<?xml version="1.0" encoding="UTF-8"?>
<svg width="40.716mm" height="36.557mm" version="1.1" viewBox="0 0 40.716 36.557" xmlns="http://www.w3.org/2000/svg" xmlns:xlink="http://www.w3.org/1999/xlink"><g transform="translate(-71.902 -73.719)"><g transform="matrix(.26458 0 0 .26458 71.902 73.812)"><path transform="translate(-3.4019,-8.471)" d="m128.14 66.03a48.744 48.744 0 1 0-97.488 0 48.744 48.744 0 1 0 97.488 0" style="fill:#d8d8d8"/><g transform="translate(-3.4019,-8.471)"><path d="m34.243 12.551c-2.334 1.447-3.404 5.531-6.17 6.199-0.284-1.541 0.974-2.691 1.456-4.083 0.725-2.092 0.427-3.265-0.41-5.133-0.496 2.755-3.792 3.974-4.531 6.635-0.536 1.929 0.299 3.923 0.074 5.823-0.15 1.274-1.325 4.519-3.019 2.833-1.221-1.216-0.669-6.625-0.524-8.335-2.64 3.437-4.313 6.588-3.463 10.848 0.506 2.534 1.465 5.21-0.101 7.628-1.082-0.819-0.776-2.085-1.021-3.406-0.334-1.793-1.619-2.589-1.893-4.231 0.549 1.446-1.322 2.967-1.821 4.447-0.597 1.772-0.5 3.869-0.01 5.633 0.93 3.345 1.592 4.771-0.354 7.869-1.933-1.261 0.435-6.662-2.744-6.807 0.656 1.364-0.658 2.721-1.232 4.055-0.766 1.778-0.923 3.493-0.311 5.39 0.382 1.18 1.51 2.215 1.768 3.309 0.308 1.31-0.471 2.51-0.405 3.796-2.189-0.541-3.549-3.263-3.86-5.461-2.118 2.952-0.848 7.044 0.899 9.789 1.709 2.683 0.763 3.883 1.097 6.828 0.254-0.86 0.484-1.638 0.385-2.511-1.806-0.188-2.496-2.386-2.593-3.93-5.568 1.737 3.582 11.97 2.712 14.922-1.405-0.172-3.215-2.612-3.113-4.051-3.582 6.769 5.36 8.823 5.536 14.413-2.1-0.52-2.241-4.137-5.104-4.266 1.847 0.875 1.575 3.1 2.037 4.776 0.611 2.22 1.966 4.749 3.833 6.185 2.492 1.915 3.783 3.279 5.815 5.709-1.833-0.762-5.438-1.243-6.758-2.671 1.253 3.975 3.328 5.03 6.83 6.853 2.878 1.5 4.096 3.922 6.688 5.646-1.562 0.299-2.525-0.609-3.981-0.875-1.279-0.234-2.284 0.045-3.487-0.131 1.917-0.158 2.102 1.832 3.098 3.031 1.284 1.543 2.533 2.035 4.454 2.322 1.372 0.207 2.891-0.301 4.123 0.37 1.252 0.682 2.115 2.388 3.303 3.251-2.943-0.209-5.443-1.826-8.378-0.421 2.145 0.271 3.208 1.426 4.831 2.679 1.795 1.387 3.258 1.872 5.413 2.269 2.556 0.472 6.105-0.079 7.693 2.386-1.163-0.145-2.536-0.596-3.799-0.806-1.724-0.287-3.546 0.126-5.201-0.334 2.59 0.188 4.411 3.438 7.178 3.87 2.107 0.328 5.104 0.453 7.202 0.171-1.858 0.702-3.926 0.706-5.883 1.026 3.729 2.092 8.46 0.382 12.427 1.17-0.551 1.238-2.833 1.221-4.072 1.736 4.727 0.996 9.306 0.598 13.908 1.188 3.314 0.425 6.524 1.328 9.898 1.4 0.963 0.021 1.762-0.742 1.783-1.705s-0.741-1.764-1.704-1.787c-2.576-0.063-6.623-0.018-8.887-1.183-0.704-0.362-5.3-5.97-5.063-6.347-0.803 1.287-1.331 2.828-1.286 4.33-3.284 0.656-2.992-7.645-5.421-8.924-1.544 2.669-0.849 5.146-0.192 7.774-2.508-0.89-4.334-1.8-4.401-4.302-0.04-1.457 0.622-2.85 0.156-4.657-0.474-1.844-1.555-3.351-2.236-5.104-1.831 2.967-5.729 5.138-3.465 9.227-3.244-1.52-2.9-3.766-1.85-6.788 0.717-2.062 2.033-3.667 1.32-5.983-0.421-1.373-1.988-3.882-3.518-2.988-0.179 2.208-0.06 4.014-2.096 5.626-1.338 1.06-4.087 1.864-1.748 4.136-1.063-0.592-2.883-2.297-3.122-3.553-0.351-1.84 0.714-1.876 1.73-2.934 3.039-3.166 3.287-8.535-0.887-11.021-0.023 2.184-0.787 5.182-2.854 6.308-2.368 1.291-3.604 0.13-2.658 3.839-2.783-3.201-4.717-7.199 0.046-9.229 3.545-1.51 4.883-4.246 2.604-7.977 0.8 4.168-2.873 2.406-4.853 2.316-3.288-0.15-4.963 2.57-4.017 5.385-1.934-1.993-2.735-6.682-0.143-8.58 1.594-1.169 3.431 0.139 4.749-1.229 1.898-1.97 0.586-6.556-1.276-8.03-0.63 3.854-5.126 2.48-7.067 4.523-1.151 1.213-1.496 4.006-1.443 5.554-0.733-1.247-1.6-4.039-1.196-5.756 0.827-3.512 4.468-4.909 6.865-6.834 1.585-1.273 2.048-4.308 1.592-6.153-1.086 2.12-3.499 1.536-5.341 2.235-2.384 0.905-6.425 4.222-5.36 7.151-1.668-2.358-1.034-6.197 0.996-7.975 1.225-1.074 2.705-1.274 4.191-1.736 1.843-0.573 3.076-1.526 4.315-2.975 0.62-0.726 1.279-1.101 1.513-2.096 0.115-0.493-0.529-2.678-0.49-2.732-1.469 2.013-4.22 1.451-6.332 2.035-1.461 0.404-5.372 2.1-5.508 3.917 0.363-4.847 4.441-5.893 8.229-7.259 1.521-0.549 3.097-0.947 4.355-2.027 1.326-1.134 1.439-3.237 2.518-4.241-2.445 2.278-7.57 0.206-10.481 0.621-1.366 0.194-2.246 0.84-3.319 1.349 0.483-0.23 1.142-2.679 2.035-3.274 1.156-0.77 3.582-1.369 4.938-1.221 2.009 0.218 3.557 1.187 5.538 0.167 1.584-0.813 4.422-3.954 4.262-5.728-2.144 1.975-4.878 1.94-7.21 0.427-1.868-1.212-3.939-3.184-6.121-0.805-0.104-0.101-0.214-0.198-0.323-0.292-1.028-0.865 3.012-4.052 3.772-4.175 2.37-0.384 4.271 1.94 6.486 2.196 4.278 0.492 5.937-3.491 7.39-6.937-0.816 1.935-5.772 0.938-7.079 0.606-1.968-0.5-4.312-1.169-6.033 0.527 0.542-1.677 2.374-4.223 4.274-4.48 1.889-0.256 3.257 1.674 5.057 1.817 3.573 0.284 7.336-3.96 7.886-7.209-2.263 1.782-3.824 1.97-6.518 1.272-2.221-0.575-2.914-0.787-4.904 0.505 1.742-3.533 4.341-3.854 7.622-3.614 3.141 0.231 8.482-2.145 7.43-6.273-2.682 2.341-6.469 0.598-9.017 2.571 2.567-4.409 12.559-6.809 11.917-12.889-2.064 2.376-5.936 1.952-8.57 3.585z" style="fill:#1fb512;stroke-width:.5;stroke:#e8bd0a"/></g><g transform="translate(-3.4019,-8.471)"><path d="m16.825 35.771c-9.091 16.39-11.511 32.491-6.995 46.563 3.498 10.899 8.951 20.256 16.209 27.813 5.812 6.05 12.778 10.956 20.709 14.583 5.937 2.716 13.176 5.566 19.794 5.932 6.961 0.385 12.504 1.456 18.539 5.482 2.494 1.664 4.426 4.17 6.762 5.748 2.256 1.527 5.982 2.322 8.623 3.539-0.348-2.814-5.025-6.407-7.178-8.122-2.686-2.143-5.277-3.972-8.279-5.604-3.402-1.85-7.849-3.316-11.673-4.09-3.004-0.607-6.124-0.333-9.149-0.928-5.547-1.092-10.976-2.83-16.112-5.192-7.502-3.45-14.088-8.104-19.575-13.831-6.856-7.158-12.018-16.039-15.341-26.396-5.313-16.56 0.7-32.917 6.68-43.724 6.563-11.859 15.299-21.706 14.619-22.39s-10.827 8.345-17.633 20.617z" style="fill:#1b960e;stroke-width:.5;stroke:#f9cb0d"/></g><g transform="translate(-3.4019,-8.471)"><path d="m127.58 12.502c2.301 1.5 3.277 5.607 6.027 6.337 0.32-1.534-0.912-2.712-1.363-4.115-0.676-2.108-0.352-3.273 0.527-5.122 0.434 2.765 3.701 4.06 4.379 6.737 0.492 1.94-0.387 3.915-0.207 5.82 0.123 1.277 1.223 4.548 2.953 2.901 1.25-1.188 0.82-6.608 0.715-8.322 2.561 3.496 4.16 6.685 3.215 10.925-0.563 2.521-1.582 5.175-0.072 7.628 1.1-0.794 0.824-2.067 1.1-3.382 0.373-1.786 1.678-2.552 1.988-4.187-0.582 1.432 1.254 2.996 1.719 4.487 0.555 1.786 0.412 3.879-0.119 5.631-1.006 3.323-1.699 4.734 0.174 7.875 1.961-1.217-0.281-6.67 2.9-6.743-0.688 1.348 0.596 2.735 1.139 4.082 0.727 1.795 0.844 3.514 0.188 5.396-0.408 1.17-1.561 2.18-1.842 3.268-0.338 1.302 0.412 2.52 0.318 3.805 2.201-0.491 3.621-3.181 3.984-5.372 2.049 2.999 0.688 7.062-1.123 9.765-1.77 2.644-0.85 3.866-1.252 6.801-0.234-0.866-0.447-1.648-0.326-2.52 1.809-0.147 2.549-2.329 2.682-3.87 5.525 1.863-3.854 11.885-3.051 14.856 1.408-0.14 3.273-2.538 3.205-3.979 3.424 6.849-5.563 8.698-5.863 14.282 2.109-0.47 2.334-4.083 5.197-4.147-1.865 0.833-1.645 3.063-2.145 4.729-0.662 2.204-2.072 4.703-3.973 6.096-2.535 1.857-3.857 3.192-5.945 5.575 1.852-0.721 5.467-1.12 6.818-2.517-1.344 3.944-3.441 4.952-6.984 6.695-2.912 1.434-4.186 3.828-6.814 5.492 1.555 0.334 2.539-0.551 4-0.784 1.285-0.205 2.283 0.097 3.488-0.05-1.912-0.203-2.143 1.783-3.164 2.959-1.318 1.514-2.58 1.977-4.506 2.221-1.377 0.174-2.883-0.367-4.131 0.274-1.268 0.653-2.17 2.339-3.375 3.176 2.945-0.142 5.482-1.701 8.385-0.229-2.15 0.223-3.24 1.352-4.891 2.567-1.826 1.345-3.301 1.798-5.463 2.146-2.568 0.412-6.104-0.219-7.748 2.21 1.168-0.118 2.551-0.538 3.818-0.72 1.729-0.248 3.541 0.207 5.205-0.215-2.59 0.129-4.486 3.336-7.264 3.705-2.113 0.28-5.113 0.336-7.203 7e-3 1.842 0.743 3.908 0.795 5.857 1.161-3.775 2.005-8.467 0.188-12.451 0.885 0.523 1.252 2.807 1.285 4.033 1.828-4.75 0.89-9.316 0.387-13.934 0.872-3.32 0.349-6.551 1.179-9.926 1.175-0.963-2e-3 -1.744-0.782-1.744-1.746s0.781-1.746 1.744-1.748c2.578-4e-3 6.623 0.135 8.912-0.979 0.713-0.348 5.434-5.849 5.207-6.23 0.773 1.305 1.266 2.857 1.188 4.358 3.268 0.731 3.166-7.575 5.621-8.799 1.482 2.704 0.732 5.164 0.018 7.777 2.527-0.833 4.373-1.7 4.498-4.201 0.072-1.454-0.557-2.862-0.051-4.659 0.516-1.832 1.629-3.314 2.352-5.053 1.762 3.009 5.609 5.268 3.252 9.304 3.279-1.445 2.988-3.698 2.006-6.743-0.67-2.078-1.949-3.713-1.186-6.014 0.453-1.361 2.078-3.835 3.586-2.907 0.129 2.212-0.031 4.015 1.967 5.673 1.313 1.09 4.043 1.957 1.652 4.175 1.078-0.568 2.938-2.231 3.205-3.481 0.391-1.83-0.674-1.891-1.666-2.973-2.965-3.232-3.092-8.607 1.139-10.998-0.025 2.184 0.67 5.199 2.709 6.371 2.338 1.345 3.602 0.212 2.57 3.898 2.855-3.136 4.879-7.09 0.164-9.227-3.51-1.591-4.785-4.355-2.424-8.035-0.895 4.149 2.82 2.472 4.801 2.428 3.289-0.076 4.902 2.682 3.895 5.475 1.977-1.948 2.885-6.617 0.336-8.576-1.568-1.204-3.434 0.063-4.721-1.336-1.852-2.012-0.436-6.567 1.461-7.999 0.541 3.866 5.066 2.597 6.961 4.683 1.125 1.238 1.404 4.039 1.316 5.586 0.762-1.23 1.693-4.002 1.328-5.727-0.748-3.531-4.355-5.01-6.709-6.99-1.555-1.309-1.949-4.354-1.451-6.188 1.039 2.144 3.465 1.615 5.289 2.356 2.361 0.96 6.326 4.367 5.195 7.271 1.721-2.319 1.174-6.171-0.813-7.995-1.203-1.102-2.676-1.335-4.152-1.832-1.828-0.615-3.041-1.596-4.246-3.072-0.604-0.74-1.256-1.131-1.465-2.13-0.104-0.496 0.59-2.665 0.551-2.72 1.424 2.046 4.188 1.546 6.285 2.178 1.451 0.438 5.322 2.221 5.418 4.042-0.252-4.853-4.307-5.992-8.063-7.444-1.508-0.583-3.074-1.018-4.309-2.125-1.299-1.165-1.365-3.27-2.418-4.298 2.391 2.334 7.563 0.379 10.463 0.86 1.361 0.226 2.227 0.891 3.287 1.424-0.477-0.24-1.08-2.704-1.959-3.318-1.139-0.796-3.551-1.45-4.91-1.333-2.012 0.172-3.582 1.104-5.541 0.042-1.564-0.85-4.33-4.055-4.131-5.824 2.1 2.022 4.834 2.051 7.201 0.591 1.893-1.168 4.01-3.093 6.137-0.665 0.107-0.098 0.217-0.193 0.332-0.285 1.045-0.841-2.92-4.119-3.68-4.259-2.359-0.438-4.313 1.842-6.533 2.048-4.289 0.394-5.855-3.625-7.23-7.104 0.771 1.953 5.75 1.069 7.063 0.767 1.979-0.456 4.34-1.071 6.021 0.664-0.506-1.689-2.277-4.276-4.17-4.577s-3.297 1.6-5.1 1.702c-3.578 0.203-7.242-4.126-7.719-7.387 2.223 1.833 3.777 2.057 6.488 1.42 2.23-0.524 2.93-0.721 4.889 0.617-1.66-3.571-4.25-3.952-7.535-3.786-3.146 0.159-8.432-2.337-7.285-6.441 2.627 2.401 6.453 0.746 8.955 2.775-2.467-4.466-12.4-7.093-11.621-13.157 2.014 2.424 5.895 2.088 8.491 3.781z" style="fill:#1fb512;stroke-width:.5;stroke:#e8bd0a"/></g><g transform="translate(-3.4019,-8.471)"><path d="m144.47 36.112c8.715 16.593 10.768 32.745 5.934 46.71-3.744 10.816-9.41 20.048-16.838 27.437-5.947 5.916-13.025 10.663-21.033 14.108-8.17 3.514-16.154 4.245-24.609 5.865-6.828 1.311-13.653 5.145-18.583 9.98-0.695 0.681-1.167 1.759-2.01 2.279-2.299 1.42-5.457 1.475-7.852 3.166 1.436-4.611 6.357-7.307 9.828-10.232 3.894-3.283 7.675-5.572 12.589-7.149 4.18-1.342 8.717-1.589 13.031-2.329 5.613-0.962 11.123-2.584 16.352-4.846 7.578-3.277 14.27-7.779 19.885-13.381 7.02-7 12.381-15.762 15.939-26.041 5.688-16.434 0.049-32.924-5.684-43.864-6.291-12.005-14.801-22.049-14.105-22.717 0.695-0.668 10.63 8.59 17.156 21.014z" style="fill:#1b960e;stroke-width:.5;stroke:#f9cb0d"/></g><g transform="translate(-3.4019,-8.471)" style="stroke:#231f20"><path d="m80.029 12.767v38.853l0.063 0.028 15.707-7.342z" style="fill:#eabf0c"/><path d="m80.234 37.548-0.205 0.084v14.671l0.063 0.142 15.707-8.139z" style="fill:#c7941d"/><path d="m80.029 12.767v38.853l-0.062 0.028-15.707-7.342z" style="fill:#ebda7f"/><path d="m79.826 37.548 0.204 0.084v13.988l0.393 0.825-16.163-8.139z" style="fill:#d3ad0d"/><path d="m29.666 49.554 36.92 11.936 8e-3 0.069-11.802 12.669z" style="fill:#e2ca50"/><path d="m53.151 57.36 0.142-0.168 13.293 4.298 0.69 0.41-12.484 12.328z" style="fill:#c7941d"/><path d="m29.666 49.554 36.92 11.936 0.047-0.052-2.153-17.18z" style="fill:#ebda7f"/><path d="m53.276 56.973 0.017 0.219 13.293 4.298 0.69 0.41-2.797-17.642z" style="fill:#d3ad0d"/><path d="m49.047 109.05 22.726-31.515-0.035-0.06-17.034-3.23z" style="fill:#ebda7f"/><path d="m63.375 88.834 0.216 0.051 8.182-11.347 0.522-0.668-17.592-2.622z" style="fill:#e2ca50"/><path d="m49.047 109.05 22.726-31.515 0.067 0.015 8.445 15.143z" style="fill:#c7941d"/><path d="m63.708 89.072-0.116-0.188 8.182-11.347 0.522-0.668 7.99 15.825z" style="fill:#d3ad0d"/><path d="m111.41 108.67-22.965-31.276 0.035-0.061 16.982-3.373z" style="fill:#d3ad0d"/><path d="m96.932 88.604-0.215 0.053-8.609-11.83-0.078-0.06 17.438-2.804z" style="fill:#ebda7f"/><path d="m111.41 108.67-22.965-31.276-0.066 0.015-8.303 15.193z" style="fill:#b67f27"/><path d="m96.604 88.845 0.113-0.188-8.268-11.26-0.295-0.555-8.074 15.762z" style="fill:#eabf0c"/><path d="m130.48 49.546-36.948 11.946-8e-3 0.068 11.813 12.678z" style="fill:#c7941d"/><path d="m106.98 57.359-0.145-0.168-13.301 4.301-0.576 0.296 12.381 12.45z" style="fill:#eabf0c"/><path d="m130.48 49.546-36.948 11.946-0.047-0.052 2.154-17.192z" style="fill:#e2ca50"/><path d="m106.85 56.971-0.02 0.22-13.301 4.301-0.615 0.062 2.723-17.306z" style="fill:#ebda7f"/></g><g transform="translate(-3.4019,-8.471)" style="stroke-width:.7;stroke:#231f20"><path d="m96.988 42.381-12.531 17.371 0.02 0.033 9.391 1.782z" style="fill:#eabf0c"/><path d="m89.088 53.526-0.119-0.028-4.73 6.559-0.018 0.084 9.646 1.425z" style="fill:#c7941d"/><path d="m96.988 42.381-12.531 17.371-0.037-8e-3 -4.654-8.348z" style="fill:#ebda7f"/><path d="m88.904 53.394 0.064 0.104-4.512 6.254-0.09 0.495-4.601-8.851z" style="fill:#d3ad0d"/><path d="m62.607 42.585 12.656 17.244-0.019 0.033-9.362 1.858z" style="fill:#e2ca50"/><path d="m70.588 53.649 0.118-0.029 4.557 6.208 0.177 0.407-9.558 1.484z" style="fill:#c7941d"/><path d="m62.607 42.585 12.656 17.244 0.037-9e-3 4.58-8.375z" style="fill:#ebda7f"/><path d="m70.77 53.517-0.063 0.104 4.557 6.208 0.177 0.407 4.44-8.79z" style="fill:#d3ad0d"/><path d="m52.083 75.438 20.323-6.762 4e-3 -0.038-6.573-6.938z" style="fill:#ebda7f"/><path d="m65.01 71.02 0.08 0.091 7.316-2.434 0.45-0.13-7.02-6.845z" style="fill:#e2ca50"/><path d="m52.083 75.438 20.323-6.762 0.025 0.029-1.107 9.494z" style="fill:#c7941d"/><path d="m65.081 71.232 0.01-0.122 7.316-2.434 0.45-0.13-1.532 9.653z" style="fill:#d3ad0d"/><path d="m80.092 95.382-0.183-21.39 0.035-0.016 8.681 3.97z" style="fill:#d3ad0d"/><path d="m80.088 81.738-0.113-0.045-0.035-8.065-0.016-0.053 8.701 4.371z" style="fill:#ebda7f"/><path d="m80.092 95.382-0.183-21.39-0.034-0.015-8.612 4.115z" style="fill:#b67f27"/><path d="m79.862 81.74 0.113-0.047-0.066-7.702 0.047-0.343-8.693 4.443z" style="fill:#eabf0c"/><path d="m107.68 75.094-20.371-6.574-0.025 0.028 1.191 9.477z" style="fill:#c7941d"/><path d="m94.656 71.008-0.012-0.121-7.334-2.366-0.352-0.054 1.518 9.559z" style="fill:#eabf0c"/><path d="m107.68 75.094-20.371-6.574-4e-3 -0.039 6.508-6.992z" style="fill:#e2ca50"/><path d="m94.723 70.794-0.078 0.093-7.334-2.366-0.295-0.171 6.799-6.86z" style="fill:#ebda7f"/></g><g transform="translate(-3.4019,-8.471)" style="stroke-width:.5;stroke:#231f20"><path d="m79.853 50.062v12.313l0.02 9e-3 4.979-2.327z" style="fill:#eabf0c"/><path d="m79.918 57.915-0.065 0.026v4.649l0.02 0.044 4.979-2.579z" style="fill:#c7941d"/><path d="m79.853 50.062v12.313l-0.021 9e-3 -4.976-2.327z" style="fill:#ebda7f"/><path d="m79.788 57.915 0.065 0.026v4.433l0.124 0.261-5.121-2.579z" style="fill:#d3ad0d"/><path d="m63.893 61.719 11.698 3.782 4e-3 0.021-3.74 4.015z" style="fill:#e2ca50"/><path d="m71.333 64.193 0.047-0.054 4.211 1.362 0.22 0.13-3.956 3.906z" style="fill:#c7941d"/><path d="m63.893 61.719 11.698 3.782 0.016-0.017-0.683-5.443z" style="fill:#ebda7f"/><path d="m71.374 64.07 7e-3 0.07 4.211 1.362 0.22 0.13-0.887-5.59z" style="fill:#d3ad0d"/><path d="m70.036 80.574 7.2-9.987-0.011-0.019-5.399-1.024z" style="fill:#ebda7f"/><path d="m74.576 74.166 0.066 0.017 2.594-3.596 0.165-0.211-5.575-0.831z" style="fill:#e2ca50"/><path d="m70.036 80.574 7.2-9.987 0.021 5e-3 2.676 4.798z" style="fill:#c7941d"/><path d="m74.679 74.242-0.037-0.06 2.594-3.596 0.165-0.211 2.532 5.015z" style="fill:#d3ad0d"/><path d="m89.799 80.453-7.277-9.911 0.01-0.02 5.381-1.068z" style="fill:#d3ad0d"/><path d="m85.209 74.094-0.068 0.016-2.729-3.748-0.023-0.019 5.523-0.888z" style="fill:#ebda7f"/><path d="m89.799 80.453-7.277-9.911-0.022 5e-3 -2.632 4.814z" style="fill:#b67f27"/><path d="m85.105 74.171 0.035-0.061-2.619-3.568-0.094-0.176-2.56 4.995z" style="fill:#eabf0c"/><path d="m95.84 61.717-11.709 3.785-2e-3 0.022 3.742 4.018z" style="fill:#c7941d"/><path d="m88.391 64.192-0.045-0.053-4.215 1.363-0.182 0.094 3.922 3.946z" style="fill:#eabf0c"/><path d="m95.84 61.717-11.709 3.785-0.016-0.017 0.684-5.448z" style="fill:#e2ca50"/><path d="m88.352 64.07-6e-3 0.069-4.215 1.363-0.195 0.02 0.863-5.485z" style="fill:#ebda7f"/></g><g transform="translate(-3.4019,-8.471)" style="stroke-width:.2911;stroke:#231f20"><path d="m73.737 59.298 4.305 5.771 0.013-3e-3 1.519-2.831z" style="fill:#eabf0c"/><path d="m76.513 62.956-0.021 0.035 1.625 2.179 0.025 0.014 1.431-2.949z" style="fill:#c7941d"/><path d="m73.737 59.298 4.305 5.771-6e-3 0.011-3.146 0.65z" style="fill:#ebda7f"/><path d="m76.453 63 0.039-0.01 1.55 2.078 0.149 0.079-3.302 0.582z" style="fill:#d3ad0d"/><path d="m70.333 70.342 6.806-2.318 8e-3 9e-3 -0.348 3.19z" style="fill:#e2ca50"/><path d="m74.686 68.899 2e-3 -0.041 2.451-0.834 0.148-0.016-0.488 3.215z" style="fill:#c7941d"/><path d="m70.333 70.342 6.806-2.318v-0.013l-2.223-2.313z" style="fill:#ebda7f"/><path d="m74.662 68.828 0.026 0.031 2.451-0.834 0.148-0.016-2.371-2.31z" style="fill:#d3ad0d"/><path d="m79.804 77.03-0.117-7.198-0.011-5e-3 -2.888 1.408z" style="fill:#ebda7f"/><path d="m79.692 72.44 0.038-0.016-0.043-2.591 3e-3 -0.158-2.901 1.56z" style="fill:#e2ca50"/><path d="m79.804 77.03-0.117-7.198 0.013-5e-3 2.931 1.312z" style="fill:#c7941d"/><path d="m79.768 72.439-0.038-0.015-0.043-2.591 3e-3 -0.158 2.941 1.464z" style="fill:#d3ad0d"/><path d="m89.025 70.064-6.877-2.101-2e-3 -0.012 2.148-2.383z" style="fill:#d3ad0d"/><path d="m84.65 68.688-0.025 0.032-2.59-0.803h-0.02l2.279-2.349z" style="fill:#ebda7f"/><path d="m89.025 70.064-6.877-2.101-8e-3 0.01 0.449 3.176z" style="fill:#b67f27"/><path d="m84.629 68.76-4e-3 -0.041-2.477-0.756-0.105-0.049 0.547 3.236z" style="fill:#eabf0c"/><path d="m85.303 59.17-4.162 5.868 8e-3 0.011 3.158 0.574z" style="fill:#c7941d"/><path d="m82.68 62.935-0.039-9e-3 -1.5 2.112-0.053 0.108 3.219 0.477z" style="fill:#eabf0c"/><path d="m85.303 59.17-4.162 5.868-0.012-2e-3 -1.585-2.792z" style="fill:#e2ca50"/><path d="m82.617 62.891 0.023 0.035-1.5 2.112-0.084 0.077-1.513-2.872z" style="fill:#ebda7f"/></g></g></g></svg>
