<?xml version="1.0" encoding="UTF-8"?>
<svg width="35.304mm" height="35.646mm" version="1.1" viewBox="0 0 35.304 35.646" xmlns="http://www.w3.org/2000/svg" xmlns:xlink="http://www.w3.org/1999/xlink"><defs><linearGradient id="d-9" x1="31.29" x2="108.78" gradientUnits="userSpaceOnUse"><stop stop-color="#fff" offset="0"/><stop stop-color="#963" offset="1"/></linearGradient><linearGradient id="a-9" x1="31.889" x2="110.94" gradientUnits="userSpaceOnUse"><stop stop-color="#1c8b10" offset=".0056"/><stop stop-color="#231f20" offset=".5056"/><stop stop-color="#1b960e" offset="1"/></linearGradient><linearGradient id="c-5" x1="39.342" x2="133.81" y1="78.155" y2="5.2533" gradientUnits="userSpaceOnUse"><stop stop-color="#cbb96e" offset=".0169"/><stop stop-color="#b06712" offset=".9944"/></linearGradient><linearGradient id="b-5" x1="78.805" x2="60.681" y1="35.419" y2="75.291" gradientUnits="userSpaceOnUse"><stop stop-color="#eabf0c" offset="0"/><stop stop-color="#f9eaaf" offset=".1011"/><stop stop-color="#eabf0c" offset=".4326"/><stop stop-color="#f9eaaf" offset=".4944"/><stop stop-color="#ad8225" offset=".8652"/><stop stop-color="#eabf0c" offset=".8989"/><stop stop-color="#b59e4d" offset="1"/></linearGradient></defs><g transform="translate(-78.694 -66.546)"><g transform="matrix(.26458 0 0 .26458 77.525 65.328)"><path d="m108.78 54.497a38.745 38.745 0 1 0-77.49 0 38.745 38.745 0 1 0 77.49 0" style="fill:url(#d-9);stroke-width:.264;stroke:#1c1cb7"/><path d="m34.671 54.312c0 19.611 15.956 35.566 35.566 35.566s35.567-15.955 35.567-35.566-15.955-35.567-35.567-35.567-35.566 15.956-35.566 35.567zm8.602 0c0-14.869 12.096-26.965 26.964-26.965s26.967 12.096 26.967 26.965-12.098 26.965-26.967 26.965-26.964-12.097-26.964-26.965z" style="fill:url(#c-5);stroke-width:.519;stroke:#231f20"/><path d="m56.864 62.838 7.61-0.921c0.242 1.936 0.896 3.415 1.958 4.439s2.352 1.537 3.863 1.537c1.621 0 2.988-0.618 4.098-1.853s1.665-2.899 1.665-4.995c0-1.983-0.531-3.555-1.592-4.715s-2.354-1.74-3.881-1.74c-1.005 0-2.207 0.197-3.602 0.587l0.866-6.393c2.125 0.056 3.75-0.406 4.868-1.383s1.679-2.277 1.679-3.899c0-1.379-0.412-2.477-1.233-3.296s-1.916-1.23-3.278-1.23c-1.346 0-2.494 0.465-3.447 1.395s-1.532 2.287-1.738 4.072l-7.243-1.228c0.504-2.475 1.263-4.453 2.282-5.933s2.435-2.644 4.254-3.491 3.858-1.27 6.117-1.27c3.863 0 6.961 1.229 9.295 3.687 1.922 2.012 2.883 4.284 2.883 6.816 0 3.595-1.969 6.463-5.904 8.605 2.345 0.504 4.222 1.634 5.627 3.388 1.405 1.756 2.109 3.875 2.109 6.359 0 3.604-1.315 6.676-3.947 9.216s-5.904 3.81-9.819 3.81c-3.714 0-6.792-1.066-9.235-3.199-2.445-2.131-3.863-4.919-4.255-8.365z" style="fill:url(#b-5);stroke-width:.7005;stroke:#000"/><path d="m31.184 8.531c-2.023 1.254-2.951 4.793-5.349 5.373-0.245-1.335 0.845-2.332 1.263-3.538 0.627-1.813 0.37-2.83-0.354-4.448-0.432 2.387-3.288 3.444-3.93 5.75-0.462 1.672 0.26 3.4 0.067 5.047-0.132 1.104-1.15 3.917-2.618 2.455-1.057-1.055-0.58-5.741-0.454-7.223-2.288 2.979-3.738 5.709-3.001 9.401 0.438 2.196 1.269 4.517-0.087 6.611-0.938-0.709-0.674-1.807-0.886-2.952-0.29-1.555-1.403-2.243-1.641-3.666 0.476 1.253-1.145 2.571-1.577 3.853-0.518 1.536-0.434 3.354-9e-3 4.881 0.806 2.899 1.379 4.135-0.307 6.82-1.675-1.093 0.377-5.772-2.378-5.898 0.57 1.181-0.57 2.358-1.067 3.514-0.665 1.54-0.8 3.027-0.269 4.671 0.33 1.022 1.307 1.919 1.53 2.868 0.268 1.135-0.407 2.175-0.35 3.29-1.899-0.469-3.076-2.828-3.347-4.732-1.836 2.558-0.733 6.104 0.78 8.483 1.481 2.325 0.66 3.365 0.951 5.916 0.22-0.745 0.419-1.418 0.333-2.176-1.564-0.162-2.163-2.067-2.248-3.405-4.825 1.505 3.105 10.373 2.351 12.932-1.217-0.149-2.786-2.264-2.698-3.511-3.104 5.867 4.646 7.646 4.798 12.489-1.82-0.448-1.943-3.583-4.422-3.695 1.6 0.758 1.364 2.686 1.765 4.139 0.53 1.923 1.704 4.116 3.322 5.36 2.16 1.659 3.278 2.842 5.04 4.948-1.589-0.66-4.713-1.078-5.856-2.314 1.087 3.444 2.885 4.359 5.92 5.939 2.494 1.299 3.55 3.397 5.794 4.893-1.353 0.258-2.188-0.528-3.451-0.759-1.108-0.203-1.979 0.037-3.022-0.111 1.662-0.139 1.821 1.586 2.686 2.625 1.111 1.338 2.195 1.764 3.858 2.014 1.19 0.178 2.506-0.262 3.574 0.319 1.085 0.591 1.833 2.069 2.862 2.818-2.55-0.183-4.717-1.583-7.26-0.365 1.858 0.234 2.781 1.236 4.188 2.321 1.555 1.201 2.823 1.621 4.689 1.965 2.217 0.409 5.293-0.068 6.669 2.069-1.009-0.125-2.199-0.517-3.292-0.699-1.495-0.249-3.074 0.109-4.507-0.289 2.244 0.163 3.823 2.979 6.221 3.354 1.825 0.284 4.423 0.394 6.24 0.148-1.61 0.608-3.401 0.611-5.097 0.89 3.232 1.813 7.332 0.331 10.769 1.014-0.478 1.074-2.455 1.059-3.528 1.504 4.095 0.864 8.063 0.519 12.053 1.03 2.871 0.367 5.654 1.15 8.578 1.214 0.835 0.018 1.527-0.644 1.546-1.479s-0.643-1.527-1.477-1.549c-2.233-0.055-5.741-0.015-7.702-1.025-0.61-0.314-4.593-5.172-4.389-5.5-0.696 1.115-1.153 2.451-1.115 3.754-2.845 0.569-2.592-6.625-4.696-7.734-1.338 2.313-0.736 4.46-0.168 6.737-2.173-0.771-3.755-1.56-3.813-3.729-0.035-1.262 0.539-2.468 0.136-4.036-0.411-1.597-1.347-2.903-1.938-4.423-1.587 2.571-4.964 4.451-3.002 7.995-2.813-1.316-2.514-3.263-1.603-5.881 0.621-1.786 1.762-3.179 1.144-5.187-0.364-1.189-1.723-3.364-3.049-2.59-0.156 1.914-0.053 3.479-1.816 4.876-1.159 0.918-3.541 1.616-1.514 3.585-0.922-0.514-2.5-1.992-2.706-3.081-0.304-1.594 0.618-1.625 1.5-2.541 2.634-2.743 2.849-7.397-0.769-9.552-0.021 1.892-0.682 4.491-2.473 5.468-2.052 1.116-3.125 0.11-2.303 3.326-2.413-2.774-4.09-6.239 0.039-7.999 3.073-1.31 4.232-3.68 2.259-6.913 0.692 3.612-2.492 2.085-4.206 2.009-2.851-0.132-4.302 2.228-3.483 4.666-1.674-1.728-2.37-5.79-0.123-7.437 1.382-1.013 2.974 0.121 4.115-1.065 1.646-1.706 0.508-5.681-1.105-6.959-0.546 3.339-4.442 2.15-6.125 3.921-0.997 1.05-1.297 3.47-1.251 4.813-0.634-1.08-1.386-3.5-1.037-4.988 0.718-3.044 3.873-4.254 5.95-5.923 1.373-1.104 1.776-3.734 1.38-5.332-0.942 1.837-3.033 1.331-4.629 1.937-2.065 0.785-5.567 3.659-4.645 6.198-1.445-2.045-0.896-5.371 0.862-6.912 1.063-0.932 2.344-1.103 3.634-1.504 1.595-0.497 2.666-1.323 3.74-2.578 0.538-0.629 1.11-0.956 1.31-1.817 0.1-0.428-0.458-2.321-0.423-2.368-1.274 1.745-3.658 1.257-5.489 1.764-1.267 0.351-4.655 1.819-4.772 3.396 0.314-4.201 3.848-5.107 7.132-6.292 1.318-0.476 2.682-0.821 3.774-1.757 1.15-0.982 1.248-2.805 2.182-3.676-2.118 1.975-6.56 0.179-9.083 0.539-1.184 0.168-1.946 0.728-2.877 1.169 0.42-0.2 0.99-2.322 1.764-2.837 1.003-0.667 3.105-1.186 4.28-1.059 1.741 0.191 3.082 1.029 4.799 0.146 1.373-0.706 3.833-3.428 3.694-4.966-1.857 1.712-4.228 1.683-6.249 0.371-1.619-1.05-3.415-2.76-5.304-0.697-0.092-0.087-0.186-0.171-0.282-0.254-0.89-0.749 2.61-3.511 3.271-3.618 2.054-0.333 3.7 1.682 5.62 1.903 3.708 0.426 5.145-3.025 6.405-6.011-0.708 1.677-5.002 0.812-6.135 0.525-1.705-0.434-3.736-1.014-5.229 0.456 0.47-1.453 2.059-3.661 3.704-3.884s2.823 1.452 4.382 1.576c3.098 0.247 6.359-3.432 6.836-6.248-1.962 1.544-3.314 1.707-5.649 1.103-1.925-0.499-2.525-0.683-4.25 0.438 1.51-3.063 3.763-3.341 6.605-3.133 2.723 0.201 7.351-1.858 6.438-5.436-2.324 2.028-5.604 0.518-7.813 2.228 2.224-3.821 10.883-5.901 10.327-11.17-1.794 2.056-5.15 1.688-7.432 3.104z" style="fill:#1fb512;stroke-width:.5046;stroke:#e8bd0a"/><path d="m16.086 28.653c-7.878 14.205-9.975 28.158-6.06 40.354 3.03 9.444 7.756 17.555 14.046 24.104 5.037 5.241 11.075 9.494 17.946 12.637 5.146 2.354 11.419 4.824 17.155 5.142 6.032 0.333 10.836 1.261 16.066 4.751 2.163 1.442 3.838 3.613 5.859 4.981 1.956 1.324 5.188 2.013 7.474 3.067-0.301-2.439-4.355-5.554-6.219-7.04-2.329-1.855-4.574-3.44-7.177-4.856-2.947-1.604-6.802-2.874-10.115-3.545-2.604-0.527-5.308-0.288-7.931-0.804-4.807-0.946-9.513-2.452-13.962-4.499-6.502-2.991-12.21-7.024-16.965-11.987-5.942-6.202-10.416-13.9-13.295-22.876-4.604-14.351 0.607-28.526 5.79-37.893 5.687-10.277 13.258-18.811 12.67-19.404s-9.381 7.233-15.282 17.868z" style="fill:#1b960e;stroke-width:.2523;stroke:#f9cb0d"/><path d="m112.08 8.487c1.993 1.3 2.839 4.86 5.222 5.493 0.277-1.33-0.791-2.351-1.181-3.566-0.587-1.826-0.307-2.837 0.457-4.439 0.376 2.397 3.207 3.518 3.795 5.838 0.426 1.682-0.337 3.393-0.178 5.044 0.104 1.107 1.058 3.942 2.558 2.515 1.082-1.03 0.71-5.727 0.619-7.212 2.219 3.03 3.605 5.793 2.785 9.468-0.486 2.185-1.37 4.485-0.062 6.609 0.952-0.687 0.714-1.79 0.952-2.929 0.323-1.549 1.455-2.211 1.723-3.629-0.503 1.242 1.088 2.597 1.489 3.889 0.481 1.548 0.358 3.362-0.102 4.881-0.871 2.879-1.472 4.102 0.15 6.825 1.7-1.055-0.244-5.78 2.514-5.843-0.596 1.168 0.516 2.37 0.986 3.537 0.63 1.555 0.732 3.044 0.162 4.676-0.354 1.015-1.351 1.89-1.595 2.833-0.294 1.128 0.356 2.184 0.275 3.296 1.907-0.424 3.139-2.756 3.453-4.655 1.776 2.599 0.595 6.12-0.974 8.463-1.532 2.291-0.736 3.351-1.085 5.894-0.203-0.75-0.388-1.428-0.283-2.184 1.567-0.127 2.208-2.018 2.324-3.354 4.79 1.615-3.34 10.299-2.645 12.875 1.221-0.122 2.838-2.2 2.778-3.449 2.969 5.936-4.819 7.538-5.081 12.378 1.828-0.409 2.021-3.539 4.505-3.595-1.617 0.723-1.426 2.654-1.859 4.099-0.574 1.91-1.796 4.075-3.442 5.282-2.196 1.61-3.344 2.768-5.152 4.832 1.604-0.624 4.737-0.971 5.908-2.182-1.164 3.42-2.983 4.293-6.055 5.804-2.521 1.241-3.625 3.317-5.903 4.76 1.347 0.289 2.199-0.478 3.466-0.68 1.114-0.179 1.98 0.084 3.023-0.044-1.656-0.176-1.855 1.546-2.743 2.565-1.142 1.311-2.234 1.711-3.903 1.924-1.192 0.152-2.5-0.319-3.581 0.238-1.099 0.565-1.879 2.027-2.924 2.752 2.553-0.123 4.752-1.475 7.266-0.198-1.862 0.191-2.808 1.172-4.238 2.224-1.582 1.167-2.859 1.559-4.735 1.859-2.224 0.356-5.289-0.19-6.713 1.916 1.012-0.103 2.21-0.467 3.309-0.623 1.498-0.216 3.069 0.179 4.512-0.188-2.246 0.112-3.89 2.894-6.296 3.212-1.831 0.243-4.43 0.292-6.242 6e-3 1.595 0.646 3.388 0.689 5.076 1.006-3.272 1.737-7.338 0.165-10.79 0.769 0.452 1.084 2.432 1.114 3.495 1.584-4.116 0.771-8.074 0.334-12.075 0.755-2.878 0.303-5.678 1.022-8.603 1.02-0.836-2e-3 -1.511-0.679-1.511-1.515-1e-3 -0.835 0.675-1.514 1.512-1.515 2.232-3e-3 5.738 0.117 7.723-0.849 0.618-0.302 4.708-5.067 4.512-5.398 0.671 1.13 1.098 2.475 1.03 3.777 2.832 0.633 2.743-6.566 4.87-7.626 1.287 2.343 0.635 4.477 0.017 6.739 2.188-0.721 3.789-1.473 3.897-3.641 0.063-1.26-0.483-2.479-0.045-4.036 0.447-1.589 1.413-2.873 2.039-4.38 1.527 2.607 4.861 4.565 2.818 8.063 2.843-1.253 2.589-3.206 1.737-5.845-0.58-1.801-1.689-3.218-1.025-5.212 0.393-1.179 1.799-3.323 3.105-2.52 0.114 1.918-0.026 3.48 1.706 4.918 1.139 0.942 3.505 1.696 1.433 3.617 0.933-0.493 2.544-1.935 2.776-3.018 0.34-1.587-0.583-1.639-1.441-2.575-2.571-2.802-2.682-7.46 0.984-9.532-0.021 1.893 0.58 4.506 2.349 5.522 2.025 1.164 3.121 0.184 2.227 3.378 2.475-2.718 4.229-6.145 0.143-7.997-3.041-1.377-4.147-3.775-2.1-6.963-0.775 3.596 2.443 2.142 4.158 2.104 2.853-0.065 4.251 2.325 3.376 4.744 1.713-1.688 2.5-5.734 0.292-7.432-1.359-1.044-2.975 0.053-4.091-1.158-1.606-1.743-0.378-5.691 1.265-6.933 0.469 3.352 4.392 2.251 6.034 4.06 0.975 1.073 1.218 3.5 1.141 4.84 0.66-1.066 1.467-3.468 1.149-4.963-0.648-3.06-3.773-4.341-5.813-6.057-1.348-1.135-1.688-3.773-1.259-5.363 0.899 1.858 3.003 1.399 4.584 2.042 2.047 0.831 5.483 3.784 4.504 6.302 1.49-2.01 1.018-5.35-0.707-6.929-1.04-0.956-2.317-1.158-3.596-1.588-1.586-0.532-2.638-1.382-3.682-2.661-0.523-0.642-1.088-0.979-1.269-1.847-0.091-0.429 0.512-2.309 0.477-2.357 1.234 1.773 3.63 1.34 5.447 1.888 1.258 0.38 4.613 1.925 4.694 3.502-0.219-4.206-3.729-5.192-6.986-6.451-1.307-0.505-2.664-0.883-3.733-1.842-1.126-1.01-1.184-2.833-2.097-3.726 2.073 2.022 6.555 0.329 9.068 0.745 1.18 0.196 1.93 0.772 2.85 1.235-0.414-0.208-0.937-2.344-1.698-2.877-0.987-0.69-3.078-1.256-4.255-1.155-1.745 0.149-3.105 0.957-4.803 0.035-1.355-0.736-3.753-3.512-3.58-5.046 1.819 1.753 4.188 1.777 6.24 0.512 1.642-1.013 3.477-2.681 5.318-0.576 0.094-0.086 0.189-0.168 0.288-0.248 0.907-0.729-2.53-3.569-3.188-3.691-2.045-0.38-3.738 1.597-5.663 1.774-3.717 0.343-5.074-3.14-6.266-6.155 0.67 1.692 4.983 0.927 6.121 0.664 1.715-0.395 3.761-0.928 5.217 0.577-0.436-1.464-1.973-3.707-3.612-3.967-1.633-0.259-2.857 1.386-4.419 1.475-3.102 0.174-6.276-3.577-6.69-6.403 1.927 1.588 3.274 1.782 5.622 1.231 1.935-0.455 2.54-0.625 4.238 0.533-1.439-3.094-3.684-3.424-6.53-3.28-2.728 0.138-7.308-2.026-6.313-5.583 2.275 2.082 5.593 0.646 7.762 2.406-2.139-3.871-10.747-6.147-10.073-11.402 1.746 2.103 5.107 1.812 7.36 3.278z" style="fill:#1fb512;stroke-width:.5046;stroke:#e8bd0a"/><path d="m126.13 28.949c7.553 14.38 9.332 28.378 5.142 40.48-3.244 9.375-8.156 17.374-14.594 23.778-5.153 5.127-11.287 9.241-18.227 12.227-7.081 3.044-13.999 3.679-21.327 5.084-5.918 1.134-11.833 4.458-16.105 8.648-0.603 0.589-1.012 1.524-1.741 1.975-1.994 1.232-4.729 1.28-6.805 2.744 1.243-3.996 5.509-6.331 8.517-8.867 3.375-2.846 6.651-4.829 10.91-6.197 3.623-1.162 7.556-1.376 11.295-2.017 4.863-0.834 9.641-2.24 14.169-4.199 6.568-2.842 12.367-6.743 17.234-11.598 6.082-6.066 10.729-13.659 13.813-22.568 4.929-14.243 0.042-28.532-4.925-38.013-5.454-10.404-12.828-19.109-12.226-19.688s9.214 7.444 14.87 18.211z" style="fill:#1b960e;stroke-width:.2523;stroke:#f9cb0d"/><path d="m89.964 114.64c-5.89-3.649-12.05-9.143-19.248-8.22-6.258 0.803-12.612 4.019-18.148 6.906-7.949 4.146-15.91 9.739-20.678 17.51 2.64-2.203 5.655-3.775 8.514-5.635-2.843 3.865-2.52 7.694-4.155 11.672 4.753-6.231 11.213-10.327 17.759-14.75 8.962-6.057 15.627-7.855 25.303-2.268 8.523 4.922 14.774 12.881 22.06 19.331-1.451-1.284-3.497-8.134-2.255-9.87 2.492-3.475 8.603 1.385 11.825 2.343-7.646-4.192-13.366-12.304-20.977-17.019z" style="fill:url(#a-9);stroke-width:.3731;stroke:#1fb512"/><path d="m74.123 112.32a3.989 3.865 0 1 0-7.978 0 3.989 3.865 0 1 0 7.978 0" style="fill:#7a4d0a"/><path d="m70.03 84.302 8.487 16.903 18.461 2.827-13.246 13.022 3.038 18.508-16.63-8.591-16.624 8.8 3.092-18.619-13.238-13.063 18.25-2.994z" stroke-miterlimit="8.6" style="fill:none;stroke-miterlimit:8.6;stroke-width:.3567;stroke:#593505"/><path d="m70.071 84.673v20.508l0.035 0.014 8.288-3.875z" style="fill:#b5a488;stroke-width:.1189;stroke:#593505"/><path d="m70.18 97.753-0.108 0.044v7.743l0.035 0.075 8.288-4.296z" style="fill:#9e85a3"/><path d="m70.071 84.673v20.508l-0.032 0.014-8.29-3.875z" style="fill:#d6c28f;stroke-width:.1189;stroke:#593505"/><path d="m69.965 97.753 0.106 0.044v7.384l0.207 0.435-8.529-4.296z" style="fill:#ab9272"/><path d="m43.489 104.09 19.486 6.302 5e-3 0.036-6.229 6.686z" style="fill:#a78d6b;stroke-width:.1189;stroke:#593505"/><path d="m55.885 108.21 0.075-0.088 7.015 2.27 0.365 0.215-6.589 6.507z" style="fill:#a993ad"/><path d="m43.489 104.09 19.486 6.302 0.025-0.029-1.136-9.069z" style="fill:#d7c28e;stroke-width:.1189;stroke:#593505"/><path d="m55.952 108 8e-3 0.116 7.015 2.27 0.385-0.028-1.496-9.069z" style="fill:#b59f82"/><path d="m53.72 135.49 11.995-16.634-0.018-0.032-8.993-1.705z" style="fill:#cfb77c;stroke-width:.1189;stroke:#593505"/><path d="m61.282 124.82 0.113 0.027 4.319-5.989 0.101-0.452-9.112-1.285z" style="fill:#c8ac68"/><path d="m53.72 135.49 11.995-16.634 0.037 7e-3 4.457 7.992z" style="fill:#b7a3bb;stroke-width:.1189;stroke:#593505"/><path d="m61.456 124.95-0.061-0.099 4.319-5.989 0.276-0.353 4.218 8.352z" style="fill:#c8aa83"/><path d="m86.637 135.29-12.121-16.509 0.02-0.031 8.962-1.78z" style="fill:#b1a3a7;stroke-width:.1189;stroke:#593505"/><path d="m78.994 124.7-0.113 0.027-4.546-6.244-0.04-0.032 9.202-1.479z" style="fill:#cfb77c"/><path d="m86.637 135.29-12.121-16.509-0.034 8e-3 -4.383 8.021z" style="fill:#a07e60;stroke-width:.1189;stroke:#593505"/><path d="m78.82 124.83 0.061-0.1-4.365-5.944-0.154-0.292-4.263 8.321z" style="fill:#cfb77c"/><path d="m96.699 104.08-19.501 6.306-4e-3 0.036 6.234 6.692z" style="fill:#beadc1;stroke-width:.1189;stroke:#593505"/><path d="m84.295 108.21-0.077-0.089-7.02 2.271-0.305 0.157 6.535 6.571z" style="fill:#ae9064"/><path d="m96.699 104.08-19.501 6.306-0.024-0.027 1.136-9.075z" style="fill:#d1ba80;stroke-width:.1189;stroke:#593505"/><path d="m84.228 108-0.01 0.115-7.02 2.271-0.324 0.033 1.436-9.136z" style="fill:#caae6b"/><path d="m70.145 126.7v-10.358l-0.018-8e-3 -4.187 1.957z" style="fill:#a78d6b;stroke-width:.1189;stroke:#593505"/><path d="m70.091 120.1 0.054-0.022v-3.911l-0.018-0.038-4.187 2.17z" style="fill:#d7c28e"/><path d="m70.145 126.7v-10.358l0.018-8e-3 4.188 1.957z" style="fill:#beadc1;stroke-width:.1189;stroke:#593505"/><path d="m70.199 120.1-0.055-0.022v-3.729l-0.104-0.221 4.309 2.17z" style="fill:#ceb474"/><path d="m83.575 116.9-9.846-3.184-1e-3 -0.019 3.146-3.378z" style="fill:#b9a88d;stroke-width:.1189;stroke:#593505"/><path d="m77.312 114.81-0.037 0.045-3.545-1.146-0.184-0.109 3.328-3.287z" style="fill:#d7c28e"/><path d="m83.575 116.9-9.846-3.184-0.013 0.015 0.574 4.581z" style="fill:#a49398;stroke-width:.1189;stroke:#593505"/><path d="m77.279 114.92-5e-3 -0.059-3.545-1.146-0.194 0.015 0.756 4.581z" style="fill:#aa8863"/><path d="m78.407 101.03-6.062 8.403 0.011 0.016 4.542 0.861z" style="fill:#a993ad;stroke-width:.1189;stroke:#593505"/><path d="m74.585 106.42-0.057-0.013-2.183 3.025-0.051 0.228 4.604 0.649z" style="fill:#9c877f"/><path d="m78.407 101.03-6.062 8.403-0.018-4e-3 -2.251-4.038z" style="fill:#d7c28e;stroke-width:.1189;stroke:#593505"/><path d="m74.498 106.36 0.03 0.051-2.183 3.025-0.14 0.178-2.129-4.22z" style="fill:#ba9661"/><path d="m61.777 101.13 6.123 8.339-9e-3 0.017-4.529 0.899z" style="fill:#c39f56;stroke-width:.1189;stroke:#593505"/><path d="m65.637 106.48 0.059-0.015 2.295 3.154 0.02 0.015-4.649 0.749z" style="fill:#9e85a3"/><path d="m61.777 101.13 6.123 8.339 0.018-3e-3 2.214-4.052z" style="fill:#caae6b;stroke-width:.1189;stroke:#593505"/><path d="m65.726 106.42-0.029 0.051 2.204 3.002 0.079 0.148 2.153-4.203z" style="fill:#a993ad"/><path d="m56.694 116.9 9.852-3.185 1e-3 -0.019-3.15-3.381z" style="fill:#d7c28e;stroke-width:.1189;stroke:#593505"/><path d="m62.961 114.81 0.038 0.046 3.547-1.146 0.151-0.078-3.3-3.321z" style="fill:#c1aa88"/><path d="m56.694 116.9 9.852-3.185 0.012 0.015-0.574 4.583z" style="fill:#987d9e;stroke-width:.1189;stroke:#593505"/><path d="m62.993 114.92 5e-3 -0.058 3.547-1.146 0.164-0.018-0.726 4.615z" style="fill:#a993ad"/><path d="m70.166 126.89-4.288-8.537-9.476-1.412 6.841-6.595-1.596-9.447 8.462 4.438 8.398-4.446-1.563 9.406 6.892 6.668-9.424 1.444z" stroke-miterlimit="8.6" style="fill:none;stroke-miterlimit:8.6;stroke-width:.2378;stroke:#593505"/><g transform="matrix(.25562 0 0 .25562 186.46 189.48)"><path d="m-455.16-328.8v20.504l0.034 0.011 8.286-3.874z" style="fill:#b5a488;stroke-width:.1189;stroke:#593505"/><path d="m-455.05-315.72-0.111 0.042v7.74l0.034 0.084 8.286-4.302z" style="fill:#9e85a3"/><path d="m-455.16-328.8v20.504l-0.027 0.011-8.3-3.874z" style="fill:#d6c28f;stroke-width:.1189;stroke:#593505"/><path d="m-455.27-315.72 0.107 0.042v7.385l0.202 0.439-8.529-4.302z" style="fill:#ab9272"/><path d="m-481.75-309.39 19.494 6.3v0.034l-6.227 6.693z" style="fill:#a78d6b;stroke-width:.1189;stroke:#593505"/><path d="m-469.35-305.27 0.074-0.088 7.022 2.266 0.359 0.218-6.586 6.51z" style="fill:#a993ad"/><path d="m-481.75-309.39 19.494 6.3 0.019-0.023-1.135-9.07z" style="fill:#d7c28e;stroke-width:.1189;stroke:#593505"/><path d="m-469.28-305.47 8e-3 0.118 7.022 2.266 0.378-0.023-1.494-9.07z" style="fill:#b59f82"/><path d="m-471.52-277.98 11.998-16.634-0.019-0.038-8.997-1.704z" style="fill:#cfb77c;stroke-width:.1189;stroke:#593505"/><path d="m-463.95-288.65 0.117 0.023 4.319-5.983 0.099-0.458-9.115-1.284z" style="fill:#c8ac68"/><path d="m-471.52-277.98 11.998-16.634 0.034 4e-3 4.458 7.988z" style="fill:#b7a3bb;stroke-width:.1189;stroke:#593505"/><path d="m-463.78-288.53-0.059-0.099 4.319-5.983 0.275-0.359 4.218 8.351z" style="fill:#c8aa83"/><path d="m-438.59-278.18-12.118-16.508 0.019-0.034 8.951-1.773z" style="fill:#b1a3a7;stroke-width:.1189;stroke:#593505"/><path d="m-446.24-288.77-0.107 0.027-4.55-6.243-0.042-0.034 9.2-1.475z" style="fill:#cfb77c"/><path d="m-438.59-278.18-12.118-16.508-0.042 8e-3 -4.382 8.019z" style="fill:#a07e60;stroke-width:.1189;stroke:#593505"/><path d="m-446.41-288.65 0.065-0.096-4.363-5.945-0.164-0.294-4.26 8.321z" style="fill:#cfb77c"/><path d="m-428.53-309.39-19.503 6.3v0.034l6.235 6.697z" style="fill:#beadc1;stroke-width:.1189;stroke:#593505"/><path d="m-440.94-305.27-0.076-0.088-7.022 2.266-0.302 0.16 6.537 6.571z" style="fill:#ae9064"/><path d="m-428.53-309.39-19.503 6.3-0.023-0.023 1.138-9.077z" style="fill:#d1ba80;stroke-width:.1189;stroke:#593505"/><path d="m-441-305.47-0.011 0.118-7.022 2.266-0.321 0.034 1.436-9.135z" style="fill:#caae6b"/><path d="m-455.2-329.18 8.485 16.905 18.751 2.785-13.54 13.062 3.159 18.697-16.753-8.779-16.625 8.798 3.095-18.613-13.643-13.203 18.649-2.858z" stroke-miterlimit="8.6" style="fill:none;stroke-miterlimit:8.6;stroke-width:.2378;stroke:#593505"/><path d="m-455.09-286.77v-10.361l-0.015-8e-3 -4.187 1.964z" style="fill:#a78d6b;stroke-width:.1189;stroke:#593505"/><path d="m-455.14-293.38 0.053-0.023v-3.908l-0.015-0.042-4.187 2.178z" style="fill:#d7c28e;stroke-width:.1189;stroke:#593505"/><path d="m-455.09-286.77v-10.361l0.019-8e-3 4.187 1.964z" style="fill:#beadc1;stroke-width:.1189;stroke:#593505"/><path d="m-455.03-293.38-0.057-0.023v-3.729l-0.099-0.222 4.306 2.178z" style="fill:#ceb474;stroke-width:.1189;stroke:#593505"/><path d="m-441.66-296.58-9.841-3.186-4e-3 -0.019 3.148-3.377z" style="fill:#b9a88d;stroke-width:.1189;stroke:#593505"/><path d="m-447.92-298.66-0.038 0.042-3.545-1.146-0.187-0.111 3.331-3.286z" style="fill:#d7c28e;stroke-width:.1189;stroke:#593505"/><path d="m-441.66-296.58-9.841-3.186-0.011 0.011 0.573 4.585z" style="fill:#a49398;stroke-width:.1189;stroke:#593505"/><path d="m-447.95-298.56-4e-3 -0.057-3.545-1.146-0.195 0.011 0.756 4.585z" style="fill:#aa8863;stroke-width:.1189;stroke:#593505"/><path d="m-446.82-312.45-6.067 8.409 0.011 0.015 4.542 0.86z" style="fill:#a993ad;stroke-width:.1189;stroke:#593505"/><path d="m-450.64-307.06-0.061-0.011-2.185 3.03-0.05 0.225 4.604 0.649z" style="fill:#9c877f;stroke-width:.1189;stroke:#593505"/><path d="m-446.82-312.45-6.067 8.409-0.019-8e-3 -2.25-4.038z" style="fill:#d7c28e;stroke-width:.1189;stroke:#593505"/><path d="m-450.74-307.12 0.034 0.046-2.185 3.03-0.138 0.176-2.132-4.222z" style="fill:#ba9661;stroke-width:.1189;stroke:#593505"/><path d="m-463.45-312.35 6.122 8.34-8e-3 0.011-4.531 0.905z" style="fill:#c39f56;stroke-width:.1189;stroke:#593505"/><path d="m-459.6-306.99 0.061-0.015 2.288 3.156 0.027 0.015-4.649 0.749z" style="fill:#9e85a3;stroke-width:.1189;stroke:#593505"/><path d="m-463.45-312.35 6.122 8.34 0.015-8e-3 2.212-4.046z" style="fill:#caae6b;stroke-width:.1189;stroke:#593505"/><path d="m-459.51-307.06-0.027 0.05 2.204 3.003 0.076 0.145 2.151-4.199z" style="fill:#a993ad;stroke-width:.1189;stroke:#593505"/><path d="m-468.54-296.58 9.853-3.186 4e-3 -0.019-3.152-3.377z" style="fill:#d7c28e;stroke-width:.1189;stroke:#593505"/><path d="m-462.28-298.66 0.038 0.042 3.549-1.146 0.153-0.084-3.301-3.312z" style="fill:#c1aa88;stroke-width:.1189;stroke:#593505"/><path d="m-468.54-296.58 9.853-3.186 0.011 0.011-0.577 4.588z" style="fill:#987d9e;stroke-width:.1189;stroke:#593505"/><path d="m-462.24-298.56v-0.057l3.549-1.146 0.164-0.015-0.73 4.615z" style="fill:#a993ad;stroke-width:.1189;stroke:#593505"/><path d="m-455.06-286.58-4.29-8.546-9.477-1.406 6.842-6.594-1.595-9.448 8.458 4.435 8.397-4.443-1.555 9.402 6.888 6.674-9.429 1.44z" style="fill:none;stroke-width:.1189;stroke:#593505"/></g><g stroke-miterlimit="8.6"><path d="m43.489 104.09 19.725 6.192" style="fill:none;stroke-miterlimit:8.6;stroke-width:.3567;stroke:#593505"/><path d="m70.073 84.574-2e-3 20.438" style="fill:none;stroke-miterlimit:8.6;stroke-width:.3567;stroke:#593505"/><path d="m77.068 110.37 19.631-6.302" style="fill:none;stroke-miterlimit:8.6;stroke-width:.3567;stroke:#593505"/><path d="m53.72 135.49 12.175-17.021" style="fill:none;stroke-miterlimit:8.6;stroke-width:.3567;stroke:#593505"/><path d="m74.384 118.44 12.253 16.853" style="fill:none;stroke-miterlimit:8.6;stroke-width:.3567;stroke:#593505"/><path d="m61.777 101.21 6.102 8.087" style="fill:none;stroke-miterlimit:8.6;stroke-width:.2378;stroke:#593505"/><path d="m78.487 100.94-6.167 8.357" style="fill:none;stroke-miterlimit:8.6;stroke-width:.2378;stroke:#593505"/><path d="m66.659 113.68-10.107 3.247" style="fill:none;stroke-miterlimit:8.6;stroke-width:.2378;stroke:#593505"/><path d="m70.134 116.19 0.01099 10.564" style="fill:none;stroke-miterlimit:8.6;stroke-width:.2378;stroke:#593505"/><path d="m73.615 113.68 10.152 3.247" style="fill:none;stroke-miterlimit:8.6;stroke-width:.2378;stroke:#593505"/><path d="m70.125 110.71-0.01-5.307" style="fill:none;stroke-miterlimit:8.6;stroke-width:.1189;stroke:#593505"/><path d="m71.874 111.98 4.886-1.499" style="fill:none;stroke-miterlimit:8.6;stroke-width:.1189;stroke:#593505"/><path d="m71.225 114.06 2.957 4.311" style="fill:none;stroke-miterlimit:8.6;stroke-width:.1189;stroke:#593505"/><path d="m69.069 113.97-3.31 4.692" style="fill:none;stroke-miterlimit:8.6;stroke-width:.1189;stroke:#593505"/><path d="m68.371 112-4.852-1.566" style="fill:none;stroke-miterlimit:8.6;stroke-width:.1189;stroke:#593505"/></g></g></g></svg>
