<?xml version="1.0" encoding="UTF-8"?>
<svg width="35.304mm" height="31.644mm" version="1.1" viewBox="0 0 35.304 31.644" xmlns="http://www.w3.org/2000/svg" xmlns:xlink="http://www.w3.org/1999/xlink"><g transform="translate(-78.694 -66.546)"><path d="m85.776 67.585c-0.53524 0.33178-0.78078 1.2681-1.4152 1.4216-0.06482-0.35321 0.22357-0.617 0.33416-0.93608 0.16589-0.47968 0.09789-0.74876-0.09366-1.1768-0.1143 0.63155-0.86994 0.91121-1.0398 1.5213-0.12224 0.44238 0.06879 0.89957 0.01773 1.3353-0.03492 0.2921-0.30427 1.0364-0.69267 0.64954-0.27966-0.27913-0.15346-1.519-0.12012-1.9111-0.60536 0.78818-0.989 1.5105-0.794 2.4873 0.11589 0.58102 0.33575 1.1951-0.02302 1.7491-0.24818-0.18759-0.17833-0.4781-0.23442-0.78104-0.07673-0.41142-0.3712-0.59345-0.43418-0.96995 0.12594 0.33152-0.30294 0.68023-0.41724 1.0194-0.13705 0.40639-0.11483 0.8874-0.0024 1.2914 0.21325 0.76702 0.36486 1.094-0.08123 1.8044-0.44317-0.28918 0.09975-1.5272-0.62917-1.5605 0.15081 0.31247-0.15081 0.62388-0.28231 0.92973-0.17594 0.40745-0.21166 0.80088-0.07117 1.2359 0.08731 0.2704 0.34581 0.50773 0.40481 0.75881 0.07091 0.3003-0.10768 0.57546-0.0926 0.87047-0.50244-0.12409-0.81385-0.74823-0.88555-1.252-0.48577 0.6768-0.19394 1.615 0.20637 2.2444 0.39184 0.61515 0.17462 0.89031 0.25162 1.5653 0.05821-0.19711 0.11086-0.37517 0.0881-0.57572-0.4138-0.04286-0.57228-0.54689-0.59477-0.90089-1.2766 0.39819 0.82152 2.7445 0.62203 3.4215-0.32199-0.03942-0.73712-0.59901-0.71384-0.92894-0.82126 1.5523 1.2292 2.023 1.2695 3.3043-0.48154-0.11853-0.51408-0.94799-1.17-0.97762 0.42333 0.20055 0.36089 0.71066 0.46698 1.0951 0.14023 0.50879 0.45084 1.089 0.87893 1.4181 0.57149 0.43894 0.86729 0.75194 1.3335 1.3091-0.42042-0.17462-1.247-0.28522-1.5494-0.61224 0.2876 0.91121 0.76331 1.1533 1.5663 1.5713 0.65986 0.34369 0.93926 0.89878 1.533 1.2946-0.35798 0.06826-0.5789-0.1397-0.91306-0.20082-0.29315-0.05371-0.5236 0.0098-0.79956-0.02937 0.43973-0.03678 0.4818 0.41962 0.71066 0.69452 0.29395 0.35401 0.58075 0.46672 1.0207 0.53286 0.31485 0.04709 0.66304-0.06932 0.94561 0.0844 0.28707 0.15637 0.48498 0.54742 0.75723 0.74558-0.67468-0.04842-1.248-0.41883-1.9208-0.09657 0.49159 0.06191 0.7358 0.32702 1.1081 0.61409 0.41142 0.31776 0.74691 0.42888 1.2406 0.5199 0.58657 0.10821 1.4004-0.01799 1.7645 0.54742-0.26696-0.03307-0.58181-0.13679-0.871-0.18494-0.39555-0.06588-0.81332 0.02884-1.1925-0.07646 0.59372 0.04313 1.0115 0.78818 1.646 0.8874 0.48286 0.07514 1.1702 0.10424 1.651 0.03916-0.42597 0.16086-0.89984 0.16166-1.3486 0.23548 0.85512 0.47968 1.9399 0.08758 2.8493 0.26828-0.12647 0.28416-0.64954 0.28019-0.93344 0.39793 1.0835 0.2286 2.1333 0.13732 3.189 0.27252 0.75961 0.0971 1.4959 0.30427 2.2696 0.3212 0.22092 0.0048 0.40401-0.17039 0.40904-0.39131 5e-3 -0.22092-0.17012-0.40401-0.39078-0.40983-0.59081-0.01455-1.519-4e-3 -2.0378-0.27119-0.16139-0.08308-1.2152-1.3684-1.1612-1.4552-0.18415 0.29501-0.30506 0.64848-0.29501 0.99323-0.75273 0.15055-0.68579-1.7528-1.2425-2.0463-0.35401 0.61197-0.19473 1.18-0.04445 1.7825-0.57493-0.20399-0.9935-0.41274-1.0088-0.98662-0.0093-0.3339 0.14261-0.65298 0.03598-1.0678-0.10874-0.42253-0.35639-0.76807-0.51276-1.1702-0.41989 0.68023-1.3134 1.1776-0.79427 2.1153-0.74426-0.34819-0.66515-0.86332-0.42412-1.556 0.1643-0.47254 0.46619-0.8411 0.30268-1.3724-0.09631-0.31458-0.45587-0.89005-0.8067-0.68526-0.04127 0.50641-0.01402 0.92047-0.48048 1.2901-0.30665 0.24288-0.93688 0.42756-0.40057 0.94852-0.24394-0.13599-0.66145-0.52704-0.71595-0.81517-0.08043-0.42174 0.16351-0.42994 0.39687-0.6723 0.6969-0.72574 0.75379-1.9571-0.20346-2.5273-0.0056 0.50058-0.18044 1.1882-0.6543 1.4467-0.54292 0.29527-0.82681 0.0291-0.60933 0.87999-0.63843-0.73394-1.0821-1.6507 0.01032-2.1164 0.81305-0.3466 1.1197-0.97365 0.59768-1.829 0.18309 0.95566-0.65933 0.55165-1.1128 0.53154-0.75432-0.03492-1.1382 0.58948-0.92153 1.2345-0.44291-0.45719-0.62705-1.5319-0.03254-1.9677 0.36565-0.26802 0.78686 0.03201 1.0887-0.28178 0.4355-0.45137 0.13441-1.5031-0.29236-1.8412-0.14446 0.88343-1.1753 0.56885-1.6206 1.0374-0.26379 0.27781-0.34316 0.91809-0.33099 1.2734-0.16774-0.28575-0.36671-0.92603-0.27437-1.3197 0.18997-0.80538 1.0247-1.1255 1.5742-1.5671 0.36327-0.2921 0.46989-0.98794 0.36512-1.4107-0.24923 0.48603-0.80247 0.35216-1.2247 0.51249-0.54636 0.2077-1.4729 0.9681-1.229 1.6399-0.38232-0.54106-0.23706-1.4211 0.22807-1.8288 0.28125-0.24659 0.62018-0.29183 0.96148-0.39793 0.422-0.1315 0.70537-0.35004 0.98953-0.68209 0.14234-0.16642 0.29368-0.25294 0.3466-0.48074 0.02646-0.11324-0.12118-0.61409-0.11192-0.62652-0.33707 0.46169-0.96783 0.33258-1.4523 0.46672-0.33522 0.09287-1.2316 0.48127-1.2626 0.89851 0.08308-1.1115 1.0181-1.3512 1.887-1.6647 0.34872-0.12594 0.7096-0.21722 0.99852-0.46487 0.30427-0.25982 0.3302-0.74215 0.57731-0.9726-0.56038 0.52254-1.7356 0.04736-2.4032 0.14261-0.31326 0.04445-0.51487 0.19261-0.7612 0.30929 0.11112-0.05292 0.26193-0.61435 0.46672-0.75061 0.26537-0.17648 0.82152-0.31379 1.1324-0.28019 0.46063 0.05053 0.81543 0.27225 1.2697 0.03863 0.36327-0.18679 1.0141-0.90698 0.97736-1.3139-0.49132 0.45296-1.1186 0.44529-1.6534 0.09816-0.42836-0.27781-0.90354-0.73024-1.4033-0.18441-0.02434-0.02302-0.04921-0.04524-0.07461-0.0672-0.23548-0.19817 0.69055-0.92894 0.86544-0.95725 0.54345-0.0881 0.97894 0.44502 1.4869 0.5035 0.98106 0.11271 1.3613-0.80035 1.6946-1.5904-0.18732 0.4437-1.3234 0.21484-1.6232 0.1389-0.45111-0.11483-0.98847-0.26828-1.3835 0.12065 0.12435-0.38443 0.54477-0.96863 0.98-1.0276 0.43523-0.059 0.74691 0.38417 1.1594 0.41698 0.81967 0.06535 1.6825-0.90804 1.8087-1.6531-0.5191 0.40851-0.87682 0.45164-1.4946 0.29183-0.50932-0.13202-0.66806-0.18071-1.1245 0.11589 0.39952-0.81041 0.99561-0.88396 1.7475-0.82893 0.72045 0.05318 1.9449-0.49159 1.7034-1.4383-0.61488 0.53657-1.4827 0.13705-2.0672 0.58948 0.58842-1.011 2.8794-1.5613 2.7323-2.9554-0.47466 0.54398-1.3626 0.44661-1.9664 0.82126z" style="fill:#1fb512;stroke-width:.13351;stroke:#e8bd0a"/><path d="m81.781 72.909c-2.0844 3.7584-2.6392 7.45-1.6034 10.677 0.80168 2.4987 2.0521 4.6447 3.7163 6.3774 1.3327 1.3867 2.9302 2.5119 4.7481 3.3435 1.3615 0.62282 3.0212 1.2763 4.5389 1.3605 1.5959 0.08811 2.867 0.33364 4.2507 1.257 0.57229 0.38152 1.0155 0.95593 1.5502 1.3179 0.51752 0.3503 1.3726 0.5326 1.9775 0.81147-0.0796-0.64531-1.1522-1.4695-1.6454-1.8626-0.6162-0.4908-1.2102-0.91015-1.8989-1.2848-0.77972-0.42438-1.7997-0.7604-2.6762-0.93793-0.68897-0.13943-1.4044-0.0762-2.0984-0.21272-1.2718-0.25029-2.5169-0.64875-3.6941-1.1903-1.7203-0.79136-3.2305-1.8584-4.4886-3.1715-1.5721-1.6409-2.7559-3.6777-3.5176-6.0525-1.2181-3.797 0.1606-7.5474 1.5319-10.026 1.5047-2.7191 3.5078-4.977 3.3522-5.1339-0.15557-0.1569-2.482 1.9137-4.0433 4.7275z" style="fill:#1b960e;stroke-width:.066753;stroke:#f9cb0d"/><path d="m107.18 67.574c0.52731 0.34395 0.75114 1.2859 1.3816 1.4533 0.0733-0.35189-0.20928-0.62203-0.31247-0.94349-0.1553-0.48312-0.0812-0.75061 0.12092-1.1745 0.0995 0.6342 0.8485 0.93079 1.0041 1.5446 0.11271 0.44502-0.0892 0.89772-0.0471 1.3345 0.0275 0.29289 0.27993 1.043 0.6768 0.66542 0.28627-0.27252 0.18785-1.5152 0.16377-1.9081 0.5871 0.80168 0.95381 1.5327 0.73686 2.505-0.12859 0.57811-0.36248 1.1866-0.0164 1.7486 0.25188-0.18177 0.18891-0.4736 0.25188-0.77495 0.0855-0.40983 0.38496-0.58499 0.45587-0.96016-0.13308 0.32861 0.28786 0.68711 0.39396 1.029 0.12726 0.40957 0.0947 0.88952-0.027 1.2914-0.23045 0.76172-0.38946 1.0853 0.0397 1.8058 0.44979-0.27913-0.0646-1.5293 0.66515-1.5459-0.15769 0.30903 0.13653 0.62705 0.26088 0.93582 0.16668 0.41142 0.19367 0.80538 0.0429 1.2372-0.0937 0.26855-0.35745 0.50006-0.422 0.74956-0.0778 0.29844 0.0942 0.57784 0.0728 0.87205 0.50455-0.11218 0.83051-0.72918 0.91359-1.2316 0.46989 0.68764 0.15742 1.6192-0.2577 2.2391-0.40534 0.60615-0.19473 0.88661-0.28707 1.5594-0.0537-0.19843-0.10266-0.37782-0.0749-0.57784 0.4146-0.0336 0.5842-0.53392 0.61489-0.8874 1.2673 0.4273-0.8837 2.7249-0.69982 3.4065 0.32306-0.03228 0.75088-0.58208 0.73501-0.91254 0.78553 1.5705-1.275 1.9944-1.3443 3.275 0.48365-0.10821 0.53471-0.93635 1.1919-0.95116-0.42783 0.19129-0.37729 0.70219-0.49186 1.0845-0.15186 0.50535-0.47518 1.0782-0.91068 1.3975-0.58102 0.42597-0.88475 0.73236-1.3631 1.2784 0.42438-0.1651 1.2533-0.25691 1.5631-0.57731-0.30797 0.90486-0.78924 1.1358-1.602 1.5356-0.667 0.32834-0.9591 0.87761-1.5618 1.2594 0.35639 0.07646 0.58181-0.12647 0.91703-0.17991 0.29475-0.04736 0.52387 0.02222 0.79983-0.01164-0.43815-0.04657-0.4908 0.40904-0.72574 0.67865-0.30215 0.34686-0.59107 0.4527-1.0327 0.50905-0.31538 0.04022-0.66145-0.0844-0.94746 0.06297-0.29077 0.14949-0.49714 0.5363-0.77363 0.72812 0.67547-0.03254 1.2573-0.39026 1.9224-0.05239-0.49265 0.05053-0.74294 0.31009-1.1213 0.58842-0.41857 0.30876-0.75643 0.41248-1.2528 0.49185-0.58842 0.09419-1.3994-0.05027-1.7761 0.50694 0.26776-0.02725 0.58472-0.12356 0.8755-0.16483 0.39634-0.05715 0.81199 0.04736 1.1938-0.04974-0.59425 0.02963-1.0292 0.76569-1.6658 0.84983-0.48444 0.06429-1.1721 0.07726-1.6515 0.0016 0.422 0.17092 0.89639 0.1823 1.343 0.26617-0.86571 0.45958-1.9415 0.04366-2.8548 0.20346 0.11959 0.2868 0.64346 0.29474 0.92471 0.41909-1.089 0.20399-2.1362 0.08837-3.1948 0.19976-0.76146 0.08017-1.5023 0.2704-2.2762 0.26987-0.22119-5.29e-4 -0.39978-0.17965-0.39978-0.40084-2.65e-4 -0.22092 0.17859-0.40057 0.40004-0.40084 0.59054-7.94e-4 1.5182 0.03096 2.0433-0.22463 0.16351-0.0799 1.2456-1.3406 1.1938-1.4282 0.17753 0.29898 0.2905 0.65483 0.27251 0.99932 0.74929 0.16748 0.72574-1.7372 1.2885-2.0177 0.34051 0.61991 0.168 1.1845 4e-3 1.783 0.5789-0.19076 1.0025-0.38973 1.0311-0.96334 0.0167-0.33337-0.12779-0.65589-0.0119-1.0678 0.11827-0.42042 0.37385-0.76014 0.53948-1.1589 0.40401 0.68976 1.2861 1.2078 0.74559 2.1333 0.7522-0.33152 0.68499-0.84824 0.45957-1.5465-0.15345-0.47651-0.44687-0.85142-0.27119-1.379 0.10398-0.31194 0.47598-0.8792 0.82152-0.66674 0.0302 0.50746-7e-3 0.92074 0.45137 1.3012 0.30136 0.24923 0.92735 0.44873 0.37914 0.95698 0.24686-0.13044 0.67309-0.51196 0.73448-0.7985 0.0899-0.41989-0.15425-0.43365-0.38126-0.68129-0.68024-0.74135-0.70961-1.9738 0.26034-2.522-6e-3 0.50085 0.15346 1.1922 0.6215 1.461 0.53577 0.30797 0.82575 0.04868 0.58922 0.89375 0.65483-0.71913 1.1189-1.6258 0.0378-2.1158-0.80458-0.36433-1.0972-0.99879-0.55561-1.8423-0.20505 0.95143 0.64637 0.56673 1.1001 0.55668 0.75484-0.0172 1.1247 0.61515 0.89322 1.2552 0.45322-0.44661 0.66145-1.5171 0.0773-1.9664-0.35957-0.27622-0.78713 0.01402-1.0824-0.30638-0.42491-0.46116-0.10001-1.5057 0.3347-1.8343 0.12408 0.88687 1.162 0.59557 1.5965 1.0742 0.25796 0.28389 0.32226 0.92603 0.30188 1.2806 0.17463-0.28204 0.38814-0.91756 0.30401-1.3131-0.17145-0.80961-0.99826-1.1485-1.538-1.6026-0.35665-0.3003-0.44661-0.99826-0.3331-1.4189 0.23786 0.49159 0.79453 0.37015 1.2128 0.54027 0.5416 0.21987 1.4507 1.0012 1.1917 1.6674 0.39422-0.5318 0.26934-1.4155-0.18706-1.8333-0.27516-0.25294-0.61303-0.30638-0.95143-0.42015-0.41962-0.14076-0.69796-0.36565-0.97418-0.70405-0.13837-0.16986-0.28786-0.25902-0.33575-0.48868-0.0241-0.1135 0.13546-0.61091 0.1262-0.62361 0.32649 0.4691 0.96043 0.35454 1.4412 0.49953 0.33284 0.10054 1.2205 0.50932 1.2419 0.92656-0.058-1.1128-0.98662-1.3737-1.8484-1.7068-0.3458-0.13361-0.70484-0.23362-0.98767-0.48736-0.29792-0.26723-0.31327-0.74955-0.55483-0.98582 0.54848 0.53498 1.7343 0.08705 2.3992 0.19711 0.3122 0.05186 0.51064 0.20426 0.75405 0.32676-0.10953-0.05503-0.24791-0.62018-0.44925-0.7612-0.26114-0.18256-0.81438-0.33231-1.1258-0.30559-0.46169 0.03942-0.82152 0.2532-1.2708 0.0093-0.3585-0.19473-0.99296-0.9292-0.94719-1.3351 0.48127 0.46381 1.1081 0.47016 1.651 0.13546 0.43444-0.26802 0.91994-0.70934 1.407-0.1524 0.0249-0.02275 0.05-0.04445 0.0762-0.06562 0.23997-0.19288-0.66939-0.94428-0.84348-0.97656-0.54107-0.10054-0.989 0.42253-1.4983 0.46936-0.98345 0.09075-1.3425-0.83078-1.6579-1.6285 0.17727 0.44767 1.3184 0.24526 1.6195 0.17568 0.45376-0.10451 0.99509-0.24553 1.3803 0.15266-0.11535-0.38734-0.52201-0.9808-0.95566-1.0496-0.43206-0.06853-0.7559 0.36671-1.1692 0.39026-0.82072 0.04604-1.6605-0.9464-1.77-1.6941 0.50984 0.42015 0.86623 0.47148 1.4875 0.3257 0.51196-0.12038 0.67204-0.16536 1.1213 0.14102-0.38073-0.81861-0.97471-0.90592-1.7277-0.86782-0.72178 0.03651-1.9336-0.53604-1.6703-1.4771 0.60191 0.55085 1.4798 0.17092 2.0537 0.63658-0.56593-1.0242-2.8434-1.6264-2.6651-3.0167 0.46196 0.55641 1.3512 0.47942 1.9473 0.86729z" style="fill:#1fb512;stroke-width:.13351;stroke:#e8bd0a"/><path d="m110.9 72.987c1.9984 3.8047 2.4691 7.5082 1.3605 10.71-0.85829 2.4804-2.1579 4.5968-3.8613 6.2912-1.3634 1.3565-2.9863 2.445-4.8225 3.235-1.8735 0.80538-3.7038 0.97339-5.6427 1.3451-1.5658 0.30003-3.1308 1.1795-4.2611 2.2881-0.15954 0.15584-0.26776 0.40322-0.46063 0.52254-0.52757 0.32596-1.2512 0.33866-1.8005 0.72601 0.32887-1.0573 1.4576-1.6751 2.2534-2.346 0.89296-0.75299 1.7597-1.2777 2.8866-1.6396 0.95857-0.30744 1.9992-0.36406 2.9884-0.53366 1.2867-0.22066 2.5508-0.59266 3.7488-1.111 1.7378-0.75194 3.272-1.7841 4.5598-3.0686 1.6092-1.6049 2.8387-3.6139 3.6546-5.971 1.3041-3.7684 0.0111-7.549-1.303-10.057-1.443-2.7527-3.394-5.0559-3.2348-5.209 0.15928-0.15319 2.4378 1.9695 3.9343 4.8183z" style="fill:#1b960e;stroke-width:.066753;stroke:#f9cb0d"/></g></svg>
