<?xml version="1.0" encoding="UTF-8"?>
<svg width="14.013mm" height="14.1mm" version="1.1" viewBox="0 0 14.013 14.1" xmlns="http://www.w3.org/2000/svg"><defs><linearGradient id="a" x1="2.6217" x2="18.81" y1="7.8123" y2="32.139" gradientTransform="scale(1.0295 .97139)" gradientUnits="userSpaceOnUse"><stop stop-color="#fff" offset="0"/><stop stop-color="#fff" stop-opacity="0" offset="1"/></linearGradient></defs><g transform="translate(-92.779 -132.71)"><g transform="matrix(.26458 0 0 .26458 92.089 132.28)"><g style="fill:#007f00"><path d="m55.573 28.288a26.482 26.482 0 1 1-52.963 0 26.482 26.482 0 1 1 52.963 0z" style="stroke-width:3.625"/><path d="m53.268 28.286a24.179 24.179 0 1 1-48.358 0 24.179 24.179 0 1 1 48.358 0z" style="stroke-width:.722;stroke:#fff"/></g><path d="m29.075 4.1227c-13.347 0-24.175 10.828-24.175 24.175 0 6.4126 2.6169 12.143 6.6955 16.472 2.1188-17.5 16.89-31.107 34.959-31.107 0.48721 0 0.93961 0.09896 1.4221 0.1185-4.4214-5.7507-11.092-9.6581-18.901-9.6581z" style="fill:url(#a);stroke-width:.616"/><text x="29.522499" y="51.7943" font-size="65" font-weight="bold" style="fill:#ffffff;font-family:Arial;font-size:65px;font-weight:bold;stroke-width:0;text-anchor:middle" xml:space="preserve">+</text></g></g></svg>
