<?xml version="1.0" encoding="UTF-8"?>
<svg width="100mm" height="114mm" version="1.1" viewBox="0 0 100 114" xmlns="http://www.w3.org/2000/svg" xmlns:xlink="http://www.w3.org/1999/xlink"><defs><linearGradient id="bf" x1="122.42" x2="35.807" y1="401.05" y2="499.09" gradientTransform="scale(1.6471 .60712)" gradientUnits="userSpaceOnUse" xlink:href="#ap"/><linearGradient id="be" x1="150.15" x2="38.366" y1="289.4" y2="407.98" gradientTransform="scale(.92144 1.0853)" gradientUnits="userSpaceOnUse" xlink:href="#ap"/><linearGradient id="bp" x1="120.62" x2="132.21" y1="256.81" y2="188.16" gradientTransform="scale(1.35 .74073)" gradientUnits="userSpaceOnUse" xlink:href="#ak"/><linearGradient id="bd" x1="721.6" x2="624.97" y1="353.04" y2="260.77" gradientTransform="scale(.67267 1.4866)" gradientUnits="userSpaceOnUse" xlink:href="#an"/><linearGradient id="bc" x1="270.59" x2="183.97" y1="567.47" y2="665.51" gradientTransform="scale(1.6471 .60712)" gradientUnits="userSpaceOnUse" xlink:href="#an"/><linearGradient id="az" x1="121.9" x2="35.29" y1="534.27" y2="632.31" gradientTransform="scale(1.6471 .60712)" gradientUnits="userSpaceOnUse" xlink:href="#aq"/><linearGradient id="bb" x1="415" x2="303.22" y1="382.5" y2="501.08" gradientTransform="scale(.92144 1.0853)" gradientUnits="userSpaceOnUse" xlink:href="#an"/><linearGradient id="ba" x1="357.53" x2="260.9" y1="339.48" y2="247.22" gradientTransform="scale(.67267 1.4866)" gradientUnits="userSpaceOnUse" xlink:href="#aq"/><linearGradient id="bg" x1="358.8" x2="262.16" y1="285.08" y2="192.81" gradientTransform="scale(.67267 1.4866)" gradientUnits="userSpaceOnUse" xlink:href="#ap"/><linearGradient id="bo" x1="256.29" x2="188.64" y1="120.03" y2="55.119" gradientTransform="scale(.87138 1.1476)" gradientUnits="userSpaceOnUse" xlink:href="#ak"/><linearGradient id="bn" x1="180.21" x2="94.179" y1="112.47" y2="97.553" gradientTransform="scale(.91782 1.0895)" gradientUnits="userSpaceOnUse" xlink:href="#ak"/><linearGradient id="bh" x1="349.29" x2="237.51" y1="289.07" y2="407.65" gradientTransform="scale(.92144 1.0853)" gradientUnits="userSpaceOnUse" xlink:href="#am"/><linearGradient id="bm" x1="224.42" x2="236" y1="293.26" y2="224.61" gradientTransform="scale(1.35 .74073)" gradientUnits="userSpaceOnUse" xlink:href="#al"/><linearGradient id="bl" x1="417.1" x2="349.45" y1="143.56" y2="78.647" gradientTransform="scale(.87138 1.1476)" gradientUnits="userSpaceOnUse" xlink:href="#al"/><linearGradient id="bi" x1="233.83" x2="147.21" y1="400.47" y2="498.51" gradientTransform="scale(1.6471 .60712)" gradientUnits="userSpaceOnUse" xlink:href="#am"/><linearGradient id="bk" x1="332.31" x2="250.48" y1="137.92" y2="118.84" gradientTransform="scale(.91782 1.0895)" gradientUnits="userSpaceOnUse" xlink:href="#al"/><linearGradient id="bj" x1="631.59" x2="534.96" y1="284.84" y2="192.58" gradientTransform="scale(.67267 1.4866)" gradientUnits="userSpaceOnUse" xlink:href="#am"/><linearGradient id="ay" x1="149.22" x2="37.443" y1="363.92" y2="482.5" gradientTransform="scale(.92144 1.0853)" gradientUnits="userSpaceOnUse" xlink:href="#aq"/><linearGradient id="al"><stop stop-color="#a9a9a9" offset="0"/><stop stop-color="#727272" offset="1"/></linearGradient><linearGradient id="am"><stop stop-color="#f3c250" offset="0"/><stop stop-color="#bd880d" offset="1"/></linearGradient><linearGradient id="ax" x1="794.05" x2="697.42" y1="471.51" y2="379.24" gradientTransform="scale(.67267 1.4866)" gradientUnits="userSpaceOnUse" xlink:href="#as"/><linearGradient id="an"><stop stop-color="#46f146" offset="0"/><stop stop-color="#0dab0d" offset="1"/></linearGradient><linearGradient id="ao"><stop stop-color="#f0ec5e" offset="0"/><stop stop-color="#c7c212" offset="1"/></linearGradient><linearGradient id="ar"><stop stop-color="#37ede9" offset="0"/><stop stop-color="#0fb0ac" offset="1"/></linearGradient><linearGradient id="ap"><stop stop-color="#c52dc7" offset="0"/><stop stop-color="#821e83" offset="1"/></linearGradient><linearGradient id="aq"><stop stop-color="#ef4ca4" offset="0"/><stop stop-color="#a20e5e" offset="1"/></linearGradient><linearGradient id="ak"><stop stop-color="#4545ef" offset="0"/><stop stop-color="#1110b3" offset="1"/></linearGradient><linearGradient id="as"><stop stop-color="#ff3c49" offset="0"/><stop stop-color="#b4000c" offset="1"/></linearGradient><linearGradient id="au" x1="767.64" x2="671.01" y1="523.54" y2="431.27" gradientTransform="scale(.67267 1.4866)" gradientUnits="userSpaceOnUse" xlink:href="#ao"/><linearGradient id="aw" x1="300.17" x2="213.56" y1="857.55" y2="955.59" gradientTransform="scale(1.6471 .60712)" gradientUnits="userSpaceOnUse" xlink:href="#as"/><linearGradient id="av" x1="467.88" x2="356.1" y1="544.78" y2="663.36" gradientTransform="scale(.92144 1.0853)" gradientUnits="userSpaceOnUse" xlink:href="#as"/><linearGradient id="at" x1="289.39" x2="202.78" y1="984.96" y2="1083" gradientTransform="scale(1.6471 .60712)" gradientUnits="userSpaceOnUse" xlink:href="#ao"/><linearGradient id="bt" x1="448.61" x2="336.83" y1="616.06" y2="734.63" gradientTransform="scale(.92144 1.0853)" gradientUnits="userSpaceOnUse" xlink:href="#ao"/><linearGradient id="bq" x1="148.57" x2="36.787" y1="642.45" y2="761.02" gradientTransform="scale(.92144 1.0853)" gradientUnits="userSpaceOnUse" xlink:href="#ar"/><linearGradient id="bs" x1="356.64" x2="260.01" y1="540.79" y2="448.52" gradientTransform="scale(.67267 1.4866)" gradientUnits="userSpaceOnUse" xlink:href="#ar"/><linearGradient id="br" x1="121.54" x2="34.926" y1="1027.2" y2="1125.2" gradientTransform="scale(1.6471 .60712)" gradientUnits="userSpaceOnUse" xlink:href="#ar"/></defs><g transform="translate(319 -77.841)"><g transform="matrix(.14293 0 0 .16445 -313.82 59.876)" style="stroke-width:1.7258"><g transform="matrix(1.6311 0 0 1.6739 -59.43 19.121)" style="stroke-linejoin:bevel;stroke-width:1.8024"><g style="fill-opacity:.376;stroke-width:1.8024"><path d="m220.33 91.213c-0.0975-0.15729-0.19936-0.30287-0.29874-0.45947-3.7164-5.8554-8.743-11.174-13.449-13.852l-34.283-19.512c-7.3904-4.2044-25.643-1.3259-33.574 3.4214l-47.588 28.486c-9.2707 5.5494-14.38 17.196-11.461 26.129l16.509 50.517c2.9187 8.9327 10.673 19.084 15.685 21.409l37.166 17.248c5.0123 2.3256 16.505-0.26552 25.776-5.8149l47.588-28.486c7.786-4.6606 19.91-14.622 15.565-25.294l-13.135-44.099c-0.93881-3.1497-2.5177-6.4951-4.4999-9.6934z" style="stroke-width:1.8024"/><path d="m218.06 90.456c-0.0975-0.1573-0.19934-0.30288-0.29875-0.45948-3.7163-5.8555-8.743-11.174-13.449-13.852l-34.283-19.512c-7.3904-4.2044-25.643-1.3259-33.574 3.4214l-47.588 28.486c-9.2708 5.5494-14.38 17.196-11.461 26.129l16.509 50.517c2.9187 8.9327 10.673 19.084 15.685 21.409l37.166 17.248c5.0123 2.3256 16.505-0.26552 25.776-5.8149l47.588-28.486c7.786-4.6606 19.91-14.622 15.565-25.294l-13.135-44.099c-0.9388-3.1497-2.5176-6.4951-4.4999-9.6934z" style="stroke-width:1.8024"/></g><path d="m215.79 89.7c-0.0975-0.1573-0.19934-0.30287-0.29874-0.45947-3.7164-5.8555-8.743-11.174-13.449-13.852l-34.283-19.512c-7.3905-4.2044-25.643-1.3259-33.574 3.4214l-47.588 28.486c-9.2707 5.5494-14.38 17.196-11.461 26.129l16.509 50.517c2.9187 8.9327 10.673 19.084 15.685 21.409l37.166 17.248c5.0123 2.3256 16.505-0.26552 25.776-5.8149l47.588-28.486c7.786-4.6606 19.91-14.622 15.565-25.294l-13.135-44.099c-0.93881-3.1497-2.5176-6.4951-4.4999-9.6934z" style="fill:#1615e3;stroke-width:1.8024"/><path d="m156.17 65.322 16.554 50.663c2.9042 8.8885-1.4642 20.059-9.7946 25.045l-50.982 30.517c-8.3305 4.9865-17.375 1.8452-20.279-7.0433l-16.554-50.663c-2.9042-8.8885 1.4642-20.059 9.7946-25.045l50.982-30.517c8.3305-4.9865 17.375-1.8452 20.279 7.0433z" style="fill:url(#bn);stroke-width:1.8024"/><path d="m220.26 99.299 13.201 44.29c2.6947 9.0406-0.94368 13.015-8.1577 8.9108l-34.935-19.874c-7.214-4.104-15.191-14.686-17.886-23.727l-13.201-44.29c-2.6947-9.0406 0.94366-13.015 8.1577-8.9108l34.935 19.874c7.214 4.104 15.191 14.686 17.886 23.727z" style="fill:url(#bo);stroke-width:1.8024"/><path d="m188.1 137.19 37.737 17.509c4.8554 2.2528 2.0578 8.0808-6.2727 13.067l-50.982 30.517c-8.3305 4.9865-18.946 7.1873-23.801 4.9345l-37.737-17.509c-4.8554-2.2528-2.0578-8.0808 6.2727-13.067l50.982-30.517c8.3305-4.9865 18.946-7.1873 23.801-4.9345z" style="fill:url(#bp);stroke-width:1.8024"/><g transform="matrix(.2824 .46926 -.504 .30169 232.97 -53.054)" style="stroke-width:1.8024"><g style="fill-opacity:.376;stroke-width:1.8024"><path d="m323.63 224.28c-0.33786 4e-3 -0.66147 0.0249-1 0.0324-12.659 0.28076-25.706 2.9438-34.312 7.4577l-62.719 32.879c-13.518 7.0894-26.125 36.241-26.125 51.977v94.421c0 18.394 13.456 36.071 30.188 39.656l94.625 20.266c16.732 3.5842 39.906 1.1843 48.25-4.0855l61.875-39.072c8.3438-5.2698 15.062-24.309 15.062-42.703v-94.421c0-15.448-4.2376-41.878-25.031-44.908l-81.406-19.552c-5.8149-1.3955-12.537-2.0293-19.406-1.9455z" style="stroke-width:1.8024"/><path d="m320.32 226.93c-0.33783 4e-3 -0.66144 0.0249-1 0.0324-12.659 0.28073-25.706 2.9438-34.312 7.4577l-62.719 32.879c-13.518 7.0894-26.125 36.241-26.125 51.977v94.421c0 18.394 13.456 36.071 30.188 39.656l94.625 20.266c16.732 3.5842 39.906 1.1843 48.25-4.0855l61.875-39.072c8.3438-5.2698 15.062-24.309 15.062-42.704v-94.421c0-15.448-4.2376-41.878-25.031-44.908l-81.406-19.552c-5.8148-1.3955-12.537-2.0292-19.406-1.9455z" style="stroke-width:1.8024"/></g><path d="m317.01 229.58c-0.33786 4e-3 -0.66144 0.0249-1 0.0324-12.659 0.28076-25.706 2.9438-34.312 7.4577l-62.719 32.879c-13.518 7.0895-26.125 36.241-26.125 51.977v94.421c0 18.394 13.456 36.071 30.188 39.656l94.625 20.266c16.732 3.5841 39.906 1.1842 48.25-4.0856l61.875-39.072c8.3438-5.2697 15.062-24.309 15.062-42.703v-94.421c0-15.448-4.2376-41.878-25.031-44.908l-81.406-19.552c-5.8148-1.3955-12.537-2.0292-19.406-1.9455z" style="fill:#eead15;stroke-width:1.8024"/><path d="m222.9 295.14 94.896 20.328c16.649 3.5664 30.052 19.744 30.052 36.273v101.16c0 16.529-13.403 26.964-30.052 23.398l-94.896-20.328c-16.649-3.5664-30.052-19.744-30.052-36.273v-101.16c0-16.529 13.403-26.964 30.052-23.398z" style="fill:url(#bh);stroke-width:1.8024"/><path d="m336.23 231.49 81.767 19.624c16.691 4.0056 19.505 12.802 6.31 19.722l-63.897 33.512c-13.195 6.9202-37.254 9.2667-53.945 5.261l-81.767-19.624c-16.691-4.0056-19.505-12.802-6.3099-19.722l63.897-33.512c13.195-6.9202 37.254-9.2667 53.945-5.261z" style="fill:url(#bi);stroke-width:1.8024"/><path d="m365.44 311.66 62.821-39.676c8.0827-5.1049 14.59 4.092 14.59 20.621v101.16c0 16.529-6.507 33.945-14.59 39.05l-62.821 39.676c-8.0827 5.1048-14.59-4.0921-14.59-20.621v-101.16c0-16.529 6.507-33.945 14.59-39.05z" style="fill:url(#bj);stroke-width:1.8024"/></g><g transform="matrix(.2824 .46926 -.504 .30169 233.97 106.21)" style="stroke-width:1.8024"><g style="fill-opacity:.376;stroke-width:1.8024"><path d="m140.13 224.64c-0.33786 4e-3 -0.66147 0.0249-1 0.0324-12.659 0.28076-25.706 2.9438-34.312 7.4577l-62.719 32.879c-13.518 7.0894-26.125 36.241-26.125 51.977v94.421c0 18.394 13.456 36.071 30.188 39.656l94.625 20.266c16.732 3.5842 39.906 1.1843 48.25-4.0855l61.875-39.072c8.3438-5.2698 15.062-24.309 15.062-42.704v-94.421c0-15.448-4.2376-41.878-25.031-44.908l-81.406-19.552c-5.8149-1.3955-12.537-2.0293-19.406-1.9455z" style="stroke-width:1.8024"/><path d="m136.82 227.29c-0.33783 4e-3 -0.66144 0.0249-1 0.0324-12.659 0.28073-25.706 2.9438-34.312 7.4577l-62.719 32.879c-13.518 7.0894-26.125 36.241-26.125 51.977v94.421c0 18.394 13.456 36.071 30.188 39.656l94.625 20.266c16.732 3.5842 39.906 1.1843 48.25-4.0855l61.875-39.072c8.3438-5.2698 15.062-24.309 15.062-42.704v-94.421c0-15.448-4.2376-41.878-25.031-44.908l-81.406-19.552c-5.8148-1.3955-12.537-2.0292-19.406-1.9455z" style="stroke-width:1.8024"/></g><path d="m133.51 229.93c-0.33786 4e-3 -0.66144 0.0249-1 0.0324-12.659 0.28076-25.706 2.9438-34.312 7.4577l-62.719 32.879c-13.518 7.0894-26.125 36.241-26.125 51.977v94.421c0 18.394 13.456 36.071 30.188 39.656l94.625 20.266c16.732 3.5841 39.906 1.1842 48.25-4.0856l61.875-39.072c8.3438-5.2697 15.062-24.309 15.062-42.703v-94.421c0-15.448-4.2375-41.878-25.031-44.908l-81.406-19.552c-5.8148-1.3955-12.537-2.0292-19.406-1.9455z" style="fill:#9c249d;stroke-width:1.8024"/><path d="m39.404 295.5 94.896 20.328c16.649 3.5664 30.052 19.744 30.052 36.273v101.16c0 16.529-13.403 26.964-30.052 23.398l-94.896-20.328c-16.649-3.5664-30.052-19.744-30.052-36.273v-101.16c0-16.529 13.403-26.964 30.052-23.398z" style="fill:url(#be);stroke-width:1.8024"/><path d="m152.73 231.84 81.767 19.624c16.691 4.0056 19.505 12.802 6.31 19.722l-63.897 33.512c-13.195 6.9202-37.254 9.2667-53.945 5.261l-81.767-19.624c-16.691-4.0056-19.505-12.802-6.3099-19.722l63.897-33.512c13.195-6.9202 37.254-9.2667 53.945-5.261z" style="fill:url(#bf);stroke-width:1.8024"/><path d="m181.94 312.01 62.821-39.676c8.0827-5.1048 14.59 4.0921 14.59 20.621v101.16c0 16.529-6.507 33.945-14.59 39.05l-62.821 39.676c-8.0827 5.1048-14.59-4.0921-14.59-20.621v-101.16c0-16.529 6.507-33.945 14.59-39.05z" style="fill:url(#bg);stroke-width:1.8024"/></g><g style="fill-opacity:.376;stroke-width:1.8024"><path d="m360.46 118.21c-0.0975-0.15729-0.19937-0.30287-0.29874-0.45947-3.7164-5.8554-8.743-11.174-13.449-13.852l-34.283-19.512c-7.3904-4.2044-25.643-1.3259-33.574 3.4214l-47.588 28.486c-9.2708 5.5494-14.38 17.196-11.461 26.129l16.509 50.517c2.9187 8.9327 10.673 19.084 15.685 21.409l37.166 17.248c5.0123 2.3256 16.505-0.26552 25.776-5.8149l47.588-28.486c7.786-4.6606 19.91-14.622 15.565-25.294l-13.135-44.099c-0.93881-3.1497-2.5177-6.4951-4.4999-9.6934z" style="stroke-width:1.8024"/><path d="m358.19 117.46c-0.0975-0.1573-0.19934-0.30288-0.29874-0.45948-3.7164-5.8555-8.743-11.174-13.449-13.852l-34.283-19.512c-7.3904-4.2044-25.643-1.3259-33.574 3.4214l-47.588 28.486c-9.2708 5.5494-14.38 17.196-11.461 26.129l16.509 50.517c2.9187 8.9327 10.673 19.084 15.685 21.409l37.166 17.248c5.0123 2.3256 16.505-0.26552 25.776-5.8149l47.588-28.486c7.786-4.6606 19.91-14.622 15.565-25.294l-13.135-44.099c-0.93878-3.1497-2.5176-6.4951-4.4999-9.6934z" style="stroke-width:1.8024"/></g><path d="m355.92 116.7c-0.0975-0.1573-0.19934-0.30287-0.29877-0.45947-3.7163-5.8555-8.743-11.174-13.449-13.852l-34.283-19.512c-7.3904-4.2044-25.643-1.3259-33.574 3.4214l-47.588 28.486c-9.2708 5.5494-14.38 17.196-11.461 26.129l16.509 50.517c2.9187 8.9327 10.673 19.084 15.685 21.409l37.166 17.248c5.0123 2.3256 16.505-0.26552 25.776-5.8149l47.588-28.486c7.786-4.6606 19.91-14.622 15.565-25.294l-13.135-44.099c-0.93881-3.1497-2.5176-6.4951-4.4999-9.6934z" style="fill:#919191;stroke-width:1.8024"/><path d="m296.3 92.322 16.554 50.663c2.9043 8.8885-1.4641 20.059-9.7946 25.045l-50.982 30.517c-8.3305 4.9865-17.375 1.8452-20.279-7.0433l-16.554-50.663c-2.9042-8.8885 1.4642-20.059 9.7946-25.045l50.982-30.517c8.3305-4.9865 17.375-1.8452 20.279 7.0433z" style="fill:url(#bk);stroke-width:1.8024"/><path d="m360.39 126.3 13.201 44.29c2.6947 9.0406-0.9437 13.015-8.1577 8.9108l-34.935-19.874c-7.214-4.104-15.191-14.686-17.886-23.727l-13.201-44.29c-2.6947-9.0406 0.94366-13.015 8.1577-8.9108l34.935 19.874c7.214 4.104 15.191 14.686 17.886 23.727z" style="fill:url(#bl);stroke-width:1.8024"/><path d="m328.23 164.19 37.737 17.509c4.8554 2.2528 2.0578 8.0808-6.2727 13.067l-50.982 30.517c-8.3305 4.9865-18.946 7.1873-23.801 4.9345l-37.737-17.509c-4.8554-2.2528-2.0578-8.0808 6.2727-13.067l50.982-30.517c8.3305-4.9865 18.946-7.1873 23.801-4.9345z" style="fill:url(#bm);stroke-width:1.8024"/><g transform="matrix(-.017428 .5474 -.58705 -.020076 545.13 62.714)" style="stroke-width:1.8024"><g style="fill-opacity:.376;stroke-width:1.8024"><path d="m384.18 325.67c-0.33786 4e-3 -0.66147 0.0249-1 0.0324-12.659 0.28076-25.706 2.9438-34.312 7.4577l-62.719 32.879c-13.518 7.0894-26.125 36.241-26.125 51.977v94.421c0 18.394 13.456 36.071 30.188 39.656l94.625 20.266c16.732 3.5842 39.906 1.1843 48.25-4.0855l61.875-39.072c8.3438-5.2698 15.062-24.309 15.062-42.703v-94.421c0-15.448-4.2376-41.878-25.031-44.908l-81.406-19.552c-5.8149-1.3955-12.537-2.0293-19.406-1.9455z" style="stroke-width:1.8024"/><path d="m380.87 328.32c-0.33783 4e-3 -0.66144 0.0249-1 0.0324-12.659 0.28073-25.706 2.9438-34.312 7.4577l-62.719 32.879c-13.518 7.0894-26.125 36.241-26.125 51.977v94.421c0 18.394 13.456 36.071 30.188 39.656l94.625 20.266c16.732 3.5842 39.906 1.1843 48.25-4.0855l61.875-39.072c8.3438-5.2698 15.062-24.309 15.062-42.703v-94.421c0-15.448-4.2376-41.878-25.031-44.908l-81.406-19.552c-5.8148-1.3955-12.537-2.0292-19.406-1.9455z" style="stroke-width:1.8024"/></g><path d="m377.55 330.96c-0.33786 4e-3 -0.66144 0.0249-1 0.0324-12.659 0.28076-25.706 2.9438-34.312 7.4577l-62.719 32.879c-13.518 7.0894-26.125 36.241-26.125 51.977v94.421c0 18.394 13.456 36.071 30.188 39.656l94.625 20.266c16.732 3.5841 39.906 1.1842 48.25-4.0856l61.875-39.072c8.3438-5.2697 15.062-24.309 15.062-42.703v-94.421c0-15.448-4.2376-41.878-25.031-44.908l-81.406-19.552c-5.8148-1.3955-12.537-2.0292-19.406-1.9455z" style="fill:#15ed15;stroke-width:1.8024"/><path d="m283.45 396.53 94.896 20.328c16.649 3.5664 30.052 19.744 30.052 36.273v101.16c0 16.529-13.403 26.964-30.052 23.398l-94.896-20.328c-16.649-3.5663-30.052-19.744-30.052-36.273v-101.16c0-16.529 13.403-26.964 30.052-23.398z" style="fill:url(#bb);stroke-width:1.8024"/><path d="m396.78 332.88 81.767 19.624c16.691 4.0056 19.505 12.802 6.31 19.722l-63.897 33.512c-13.195 6.9202-37.254 9.2667-53.945 5.261l-81.767-19.624c-16.691-4.0056-19.505-12.802-6.3099-19.722l63.897-33.512c13.195-6.9202 37.254-9.2667 53.945-5.261z" style="fill:url(#bc);stroke-width:1.8024"/><path d="m425.99 413.04 62.821-39.676c8.0827-5.1048 14.59 4.0921 14.59 20.621v101.16c0 16.529-6.507 33.945-14.59 39.05l-62.821 39.676c-8.0827 5.1048-14.59-4.0921-14.59-20.621v-101.16c0-16.529 6.507-33.945 14.59-39.05z" style="fill:url(#bd);stroke-width:1.8024"/></g><g transform="matrix(.2824 .46926 -.504 .30169 394.1 106.21)" style="stroke-width:1.8024"><g style="fill-opacity:.376;stroke-width:1.8024"><path d="m139.28 305.51c-0.33786 4e-3 -0.66147 0.0249-1 0.0324-12.659 0.28076-25.706 2.9437-34.312 7.4577l-62.719 32.879c-13.518 7.0895-26.125 36.241-26.125 51.977v94.421c0 18.394 13.456 36.071 30.188 39.656l94.625 20.266c16.732 3.5842 39.906 1.1843 48.25-4.0855l61.875-39.072c8.3438-5.2698 15.062-24.309 15.062-42.704v-94.421c0-15.448-4.2376-41.878-25.031-44.908l-81.406-19.552c-5.8149-1.3956-12.537-2.0293-19.406-1.9455z" style="stroke-width:1.8024"/><path d="m135.97 308.16c-0.33783 4e-3 -0.66144 0.025-1 0.0325-12.659 0.2807-25.706 2.9437-34.312 7.4577l-62.719 32.879c-13.518 7.0894-26.125 36.241-26.125 51.977v94.421c0 18.394 13.456 36.071 30.188 39.656l94.625 20.266c16.732 3.5842 39.906 1.1843 48.25-4.0855l61.875-39.072c8.3438-5.2698 15.062-24.309 15.062-42.704v-94.421c0-15.448-4.2376-41.878-25.031-44.908l-81.406-19.552c-5.8148-1.3955-12.537-2.0292-19.406-1.9455z" style="stroke-width:1.8024"/></g><path d="m132.66 310.81c-0.33786 4e-3 -0.66144 0.0249-1 0.0324-12.659 0.28076-25.706 2.9438-34.312 7.4577l-62.719 32.879c-13.518 7.0894-26.125 36.241-26.125 51.977v94.421c0 18.394 13.456 36.071 30.188 39.656l94.625 20.266c16.732 3.5841 39.906 1.1842 48.25-4.0856l61.875-39.072c8.3438-5.2697 15.062-24.309 15.062-42.703v-94.421c0-15.448-4.2376-41.878-25.031-44.908l-81.406-19.552c-5.8148-1.3955-12.537-2.0292-19.406-1.9455z" style="fill:#e91587;stroke-width:1.8024"/><path d="m38.554 376.37 94.896 20.328c16.649 3.5664 30.052 19.744 30.052 36.273v101.16c0 16.529-13.403 26.964-30.052 23.398l-94.896-20.328c-16.649-3.5663-30.052-19.744-30.052-36.273v-101.16c0-16.529 13.403-26.964 30.052-23.398z" style="fill:url(#ay);stroke-width:1.8024"/><path d="m151.88 312.72 81.767 19.624c16.691 4.0056 19.505 12.802 6.31 19.722l-63.897 33.512c-13.195 6.9202-37.254 9.2667-53.945 5.261l-81.767-19.624c-16.691-4.0056-19.505-12.802-6.3099-19.722l63.897-33.512c13.195-6.9202 37.254-9.2667 53.945-5.261z" style="fill:url(#az);stroke-width:1.8024"/><path d="m181.09 392.89 62.821-39.676c8.0827-5.1048 14.59 4.0921 14.59 20.621v101.16c0 16.529-6.507 33.945-14.59 39.05l-62.821 39.676c-8.0827 5.1048-14.59-4.0921-14.59-20.621v-101.16c0-16.529 6.507-33.945 14.59-39.05z" style="fill:url(#ba);stroke-width:1.8024"/></g><g transform="matrix(.2824 .46926 -.504 .30169 555.24 -213.32)" style="stroke-width:1.8024"><g style="fill-opacity:.376;stroke-width:1.8024"><path d="m432.91 501.79c-0.33786 4e-3 -0.66147 0.0249-1 0.0324-12.659 0.28076-25.706 2.9437-34.312 7.4577l-62.719 32.879c-13.518 7.0895-26.125 36.241-26.125 51.977v94.421c0 18.394 13.456 36.071 30.188 39.656l94.625 20.266c16.732 3.5842 39.906 1.1843 48.25-4.0855l61.875-39.072c8.3438-5.2698 15.062-24.309 15.062-42.704v-94.421c0-15.448-4.2376-41.878-25.031-44.908l-81.406-19.552c-5.8149-1.3956-12.537-2.0293-19.406-1.9455z" style="stroke-width:1.8024"/><path d="m429.6 504.43c-0.33783 4e-3 -0.66144 0.025-1 0.0325-12.659 0.2807-25.706 2.9437-34.312 7.4577l-62.719 32.879c-13.518 7.0894-26.125 36.241-26.125 51.977v94.421c0 18.394 13.456 36.071 30.188 39.656l94.625 20.266c16.732 3.5842 39.906 1.1843 48.25-4.0855l61.875-39.072c8.3438-5.2698 15.062-24.309 15.062-42.704v-94.421c0-15.448-4.2376-41.878-25.031-44.908l-81.406-19.552c-5.8148-1.3955-12.537-2.0292-19.406-1.9455z" style="stroke-width:1.8024"/></g><path d="m426.29 507.08c-0.33786 4e-3 -0.66144 0.0249-1 0.0324-12.659 0.28076-25.706 2.9438-34.312 7.4577l-62.719 32.879c-13.518 7.0894-26.125 36.241-26.125 51.977v94.421c0 18.394 13.456 36.071 30.188 39.656l94.625 20.266c16.732 3.5841 39.906 1.1842 48.25-4.0856l61.875-39.072c8.3438-5.2697 15.062-24.309 15.062-42.703v-94.421c0-15.448-4.2376-41.878-25.031-44.908l-81.406-19.552c-5.8148-1.3955-12.537-2.0292-19.406-1.9455z" style="fill:#e81525;stroke-width:1.8024"/><path d="m332.18 572.65 94.896 20.328c16.649 3.5664 30.052 19.744 30.052 36.273v101.16c0 16.529-13.403 26.964-30.052 23.398l-94.896-20.328c-16.649-3.5663-30.052-19.744-30.052-36.273v-101.16c0-16.529 13.403-26.964 30.052-23.398z" style="fill:url(#av);stroke-width:1.8024"/><path d="m445.51 508.99 81.767 19.624c16.691 4.0056 19.505 12.802 6.31 19.722l-63.897 33.512c-13.195 6.9202-37.254 9.2667-53.945 5.261l-81.767-19.624c-16.691-4.0056-19.505-12.802-6.3099-19.722l63.897-33.512c13.195-6.9202 37.254-9.2667 53.945-5.261z" style="fill:url(#aw);stroke-width:1.8024"/><path d="m474.72 589.16 62.821-39.676c8.0826-5.1048 14.59 4.0921 14.59 20.621v101.16c0 16.529-6.5071 33.945-14.59 39.05l-62.821 39.676c-8.0827 5.1048-14.59-4.0921-14.59-20.621v-101.16c0-16.529 6.507-33.945 14.59-39.05z" style="fill:url(#ax);stroke-width:1.8024"/></g><g transform="matrix(.2824 .46926 -.504 .30169 553.24 -53.054)" style="stroke-width:1.8024"><g style="fill-opacity:.376;stroke-width:1.8024"><path d="m415.15 579.14c-0.33786 4e-3 -0.66147 0.0249-1 0.0325-12.659 0.28076-25.706 2.9437-34.312 7.4577l-62.719 32.879c-13.518 7.0895-26.125 36.241-26.125 51.977v94.421c0 18.394 13.456 36.071 30.188 39.656l94.625 20.266c16.732 3.5841 39.906 1.1842 48.25-4.0856l61.875-39.072c8.3439-5.2698 15.062-24.309 15.062-42.703v-94.421c0-15.448-4.2376-41.878-25.031-44.908l-81.406-19.552c-5.8149-1.3956-12.537-2.0293-19.406-1.9456z" style="stroke-width:1.8024"/><path d="m411.84 581.78c-0.33783 4e-3 -0.66144 0.0249-1 0.0325-12.659 0.2807-25.706 2.9437-34.312 7.4576l-62.719 32.879c-13.518 7.0894-26.125 36.241-26.125 51.977v94.421c0 18.394 13.456 36.071 30.188 39.656l94.625 20.266c16.732 3.5841 39.906 1.1842 48.25-4.0856l61.875-39.072c8.3439-5.2698 15.062-24.309 15.062-42.704v-94.421c0-15.448-4.2376-41.878-25.031-44.908l-81.406-19.552c-5.8148-1.3955-12.537-2.0292-19.406-1.9455z" style="stroke-width:1.8024"/></g><path d="m408.52 584.43c-0.33786 4e-3 -0.66144 0.0249-1 0.0324-12.659 0.28076-25.706 2.9438-34.312 7.4577l-62.719 32.879c-13.518 7.0894-26.125 36.241-26.125 51.977v94.421c0 18.394 13.456 36.071 30.188 39.656l94.625 20.266c16.732 3.5841 39.906 1.1842 48.25-4.0856l61.875-39.072c8.3439-5.2698 15.062-24.309 15.062-42.704v-94.421c0-15.448-4.2376-41.878-25.031-44.908l-81.406-19.552c-5.8148-1.3955-12.537-2.0292-19.406-1.9454z" style="fill:#e9e31c;stroke-width:1.8024"/><path d="m314.42 650 94.896 20.328c16.649 3.5664 30.052 19.744 30.052 36.273v101.16c0 16.529-13.403 26.964-30.052 23.398l-94.896-20.328c-16.649-3.5664-30.052-19.744-30.052-36.273v-101.16c0-16.529 13.403-26.964 30.052-23.398z" style="fill:url(#bt);stroke-width:1.8024"/><path d="m427.75 586.34 81.767 19.624c16.691 4.0056 19.505 12.802 6.31 19.722l-63.897 33.512c-13.195 6.9202-37.254 9.2667-53.945 5.261l-81.767-19.624c-16.691-4.0056-19.505-12.802-6.3099-19.722l63.897-33.512c13.195-6.9202 37.254-9.2667 53.945-5.261z" style="fill:url(#at);stroke-width:1.8024"/><path d="m456.96 666.51 62.821-39.676c8.0827-5.1048 14.59 4.0921 14.59 20.621v101.16c0 16.529-6.507 33.945-14.59 39.05l-62.821 39.676c-8.0827 5.1047-14.59-4.0922-14.59-20.621v-101.16c0-16.529 6.507-33.945 14.59-39.05z" style="fill:url(#au);stroke-width:1.8024"/></g><g transform="matrix(.2824 .46926 -.504 .30169 554.24 106.21)" style="stroke-width:1.8024"><g style="fill-opacity:.376;stroke-width:1.8024"><path d="m138.68 604.78c-0.33786 4e-3 -0.66147 0.0249-1 0.0324-12.659 0.28076-25.706 2.9437-34.312 7.4578l-62.719 32.879c-13.518 7.0895-26.125 36.241-26.125 51.977v94.421c0 18.394 13.456 36.071 30.188 39.656l94.625 20.266c16.732 3.5842 39.906 1.1843 48.25-4.0855l61.875-39.072c8.3438-5.2698 15.062-24.309 15.062-42.703v-94.421c0-15.448-4.2376-41.878-25.031-44.908l-81.406-19.552c-5.8149-1.3955-12.537-2.0293-19.406-1.9455z" style="stroke-width:1.8024"/><path d="m135.37 607.43c-0.33783 4e-3 -0.66144 0.025-1 0.0325-12.659 0.28076-25.706 2.9437-34.312 7.4577l-62.719 32.879c-13.518 7.0895-26.125 36.241-26.125 51.977v94.421c0 18.394 13.456 36.071 30.188 39.656l94.625 20.266c16.732 3.5842 39.906 1.1843 48.25-4.0855l61.875-39.072c8.3438-5.2698 15.062-24.309 15.062-42.704v-94.421c0-15.448-4.2376-41.878-25.031-44.908l-81.406-19.552c-5.8148-1.3955-12.537-2.0293-19.406-1.9456z" style="stroke-width:1.8024"/></g><path d="m132.05 610.07c-0.33786 4e-3 -0.66144 0.0249-1 0.0325-12.659 0.28076-25.706 2.9437-34.312 7.4576l-62.719 32.879c-13.518 7.0895-26.125 36.241-26.125 51.977v94.421c0 18.394 13.456 36.071 30.188 39.656l94.625 20.266c16.732 3.5841 39.906 1.1842 48.25-4.0856l61.875-39.072c8.3438-5.2697 15.062-24.309 15.062-42.703v-94.421c0-15.448-4.2376-41.878-25.031-44.908l-81.406-19.552c-5.8148-1.3955-12.537-2.0292-19.406-1.9455z" style="fill:#15e8e3;stroke-width:1.8024"/><path d="m37.949 678.64 94.896 20.328c16.649 3.5664 30.052 19.744 30.052 36.273v101.16c0 16.529-13.403 26.964-30.052 23.398l-94.896-20.328c-16.649-3.5663-30.052-19.744-30.052-36.273v-101.16c0-16.529 13.403-26.964 30.052-23.398z" style="fill:url(#bq);stroke-width:1.8024"/><path d="m151.28 611.98 81.767 19.624c16.691 4.0056 19.505 12.802 6.31 19.722l-63.897 33.512c-13.195 6.9202-37.254 9.2666-53.945 5.261l-81.767-19.624c-16.691-4.0056-19.505-12.802-6.3099-19.722l63.897-33.512c13.195-6.9202 37.254-9.2666 53.945-5.261z" style="fill:url(#br);stroke-width:1.8024"/><path d="m180.49 692.15 62.821-39.676c8.0827-5.1049 14.59 4.092 14.59 20.621v101.16c0 16.529-6.507 33.945-14.59 39.05l-62.821 39.676c-8.0827 5.1048-14.59-4.0921-14.59-20.621v-101.16c0-16.529 6.507-33.945 14.59-39.05z" style="fill:url(#bs);stroke-width:1.8024"/></g></g></g></g></svg>
