<?xml version="1.0" encoding="UTF-8"?>
<svg width="100mm" height="114.03mm" version="1.1" viewBox="0 0 100 114.03" xmlns="http://www.w3.org/2000/svg" xmlns:xlink="http://www.w3.org/1999/xlink"><defs><filter id="l" style="color-interpolation-filters:sRGB"><feGaussianBlur stdDeviation="0.40788267"/></filter><filter id="j" style="color-interpolation-filters:sRGB"><feGaussianBlur stdDeviation="3.8086048"/></filter><filter id="k" style="color-interpolation-filters:sRGB"><feGaussianBlur stdDeviation="1.7114598"/></filter><linearGradient id="a-8" x1="634.76" x2="629.63" y1="291.49" y2="301.94" gradientUnits="userSpaceOnUse"><stop stop-color="#ccc" offset="0"/><stop stop-color="#fff" offset="1"/></linearGradient><linearGradient id="d"><stop stop-color="#9ade00" offset="0"/><stop stop-color="#009100" offset="1"/></linearGradient><linearGradient id="e"><stop stop-color="#009100" offset="0"/><stop stop-color="#9ade00" offset="1"/></linearGradient><linearGradient id="z" x1="533.57" x2="474.29" y1="290.93" y2="351.65" gradientTransform="matrix(1.0818 0 0 .94156 -135.49 -103.78)" gradientUnits="userSpaceOnUse" xlink:href="#e"/><linearGradient id="y" x1="437.14" x2="494.29" y1="270.93" y2="239.51" gradientTransform="matrix(1.0818 0 0 .94156 -135.49 -103.78)" gradientUnits="userSpaceOnUse" xlink:href="#d"/><linearGradient id="c"><stop stop-color="#fff" offset="0"/><stop stop-color="#009100" offset="1"/></linearGradient><linearGradient id="h"><stop stop-color="#fff" offset="0"/><stop stop-color="#666" offset="1"/></linearGradient><linearGradient id="x" x1="382.86" x2="412.14" y1="369.51" y2="332.36" gradientTransform="matrix(1.0818 0 0 .94156 -135.49 -103.78)" gradientUnits="userSpaceOnUse"><stop stop-color="#ccff42" offset="0"/><stop stop-color="#009100" offset="1"/></linearGradient><linearGradient id="w" x1="449.64" x2="438.39" y1="331.29" y2="313.08" gradientTransform="matrix(1.0818 0 0 .94156 -135.49 -103.78)" gradientUnits="userSpaceOnUse" xlink:href="#c"/><linearGradient id="v" x1="353.57" x2="338.57" y1="344.51" y2="345.93" gradientTransform="matrix(2.4164 0 0 2.159 -370.34 -535.84)" gradientUnits="userSpaceOnUse" xlink:href="#c"/><radialGradient id="p" cx="-219.55" cy="389.67" r="13.438" gradientTransform="matrix(11.816 24.444 22.676 20.43 -6092.4 -2424.7)" gradientUnits="userSpaceOnUse" xlink:href="#e"/><radialGradient id="o" cx="282.86" cy="355.93" r="66.429" gradientTransform="matrix(.078734 -4.1113 6.3331 .096825 -1963.3 1361)" gradientUnits="userSpaceOnUse" xlink:href="#d"/><linearGradient id="linearGradient2873" x1="244.29" x2="313.57" y1="403.08" y2="405.22" gradientTransform="translate(-3.5714,1.4286)" gradientUnits="userSpaceOnUse"><stop stop-color="#fff" offset="0"/><stop stop-color="#fff" stop-opacity="0" offset="1"/></linearGradient><linearGradient id="linearGradient2875" x1="634.76" x2="629.63" y1="291.49" y2="301.94" gradientTransform="matrix(2.3589 0 0 2.213 -1235.9 -515.77)" gradientUnits="userSpaceOnUse" xlink:href="#a-8"/><linearGradient id="linearGradient2877" x1="634.76" x2="629.63" y1="291.49" y2="301.94" gradientTransform="matrix(2.3589 0 0 2.213 -1151.4 -443.27)" gradientUnits="userSpaceOnUse" xlink:href="#a-8"/><linearGradient id="linearGradient2879" x1="634.76" x2="629.63" y1="291.49" y2="301.94" gradientTransform="matrix(2.3589 0 0 2.213 -1075.4 -367.72)" gradientUnits="userSpaceOnUse" xlink:href="#a-8"/><linearGradient id="linearGradient2881" x1="634.76" x2="629.63" y1="291.49" y2="301.94" gradientTransform="matrix(-2.3589 0 0 2.213 1896.8 -515.77)" gradientUnits="userSpaceOnUse" xlink:href="#a-8"/><linearGradient id="linearGradient2883" x1="634.76" x2="629.63" y1="291.49" y2="301.94" gradientTransform="matrix(-2.3589 0 0 2.213 1736.2 -367.72)" gradientUnits="userSpaceOnUse" xlink:href="#a-8"/><linearGradient id="linearGradient2887" x1="640.23" x2="610.19" y1="300.6" y2="306.24" gradientTransform="matrix(-.8951 .53729 .3718 .46925 764.52 -347.12)" gradientUnits="userSpaceOnUse" xlink:href="#h"/><linearGradient id="linearGradient2889" x1="640.23" x2="610.19" y1="300.6" y2="306.24" gradientTransform="matrix(-.8951 .53729 .3718 .46925 776.77 -323.69)" gradientUnits="userSpaceOnUse" xlink:href="#h"/><linearGradient id="linearGradient2891" x1="640.23" x2="620.32" y1="300.6" y2="304.7" gradientTransform="matrix(-.8951 .53729 .3718 .46925 789.12 -298.91)" gradientUnits="userSpaceOnUse" xlink:href="#h"/><linearGradient id="linearGradient2893" x1="634.76" x2="629.63" y1="291.49" y2="301.94" gradientUnits="userSpaceOnUse" xlink:href="#a-8"/></defs><g transform="translate(295.37 -5.7055)"><g transform="matrix(.14293 0 0 .16445 -313.82 59.876)" style="stroke-width:1.7258"><path d="m130.2 90.745c0.38087-12.295 67.785-21.993 62.136-12.337-6.63 11.334 9.0668 287.63 1.7257 279.13 0 0-56.182-1.8479-58.683-18.506-6.2012-41.286-7.61-169.79-5.1778-248.29z" style="fill:url(#p);stroke-width:0"/><path d="m197.51 73.775 262.35-1.5421c11.474-0.06925 27.318 17.511 27.616 27.759l6.9042 237.5c0.29814 10.249-17.868 18.506-29.342 18.506h-269.26c-11.475 0-15.606-5.1698-15.535-15.422l1.7259-246.75c0.0748-10.252 4.0597-19.981 15.534-20.048z" style="fill:url(#o);stroke-width:0"/><path d="m358.08 82.002s113.37-13.311 115.5 8.8122c4.3186 45.002 6.4572 242.94 12.126 251.06 7.6977 11.035-125.74 7.9319-125.74 7.9319s78.118 7.0605 96.155-16.746c5.6211-7.418 0.97387-162.03-3.5405-216.58-2.599-31.405-94.496-34.479-94.496-34.479z" style="fill:url(#v);opacity:.302;stroke-width:0"/><path transform="matrix(2.4164 0 0 2.1591 -370.34 -535.84)" d="m229.35 366.62s-5.8168 44.735 3.8506 44.987c19.664 0.51236 106.16-3.8339 109.71-1.8272 4.8218 2.7249 3.4659-49.436 3.4659-49.436s3.0854 30.399-7.3173 38.084c-3.2415 2.3946-70.804 4.6244-94.642 4.2855-13.723-0.19512-15.067-36.093-15.067-36.093z" style="fill:url(#linearGradient2873);filter:url(#l);opacity:.41;stroke-width:0"/><path d="m285.55 147.04a35.383 31.615 0 1 1-70.766 0 35.383 31.615 0 1 1 70.766 0z" style="fill:url(#linearGradient2875);stroke-linecap:round;stroke-width:.70668;stroke:#2e731a"/><path d="m370.11 219.53a35.383 31.615 0 1 1-70.766 0 35.383 31.615 0 1 1 70.766 0z" style="fill:url(#linearGradient2877);stroke-linecap:round;stroke-width:.70668;stroke:#2e731a"/><path d="m446.07 295.09a35.383 31.615 0 1 1-70.766 0 35.383 31.615 0 1 1 70.766 0z" style="fill:url(#linearGradient2879);stroke-linecap:round;stroke-width:.70668;stroke:#2e731a"/><path d="m375.29 147.04a35.383 31.615 0 1 0 70.766 0 35.383 31.615 0 1 0-70.766 0z" style="fill:url(#linearGradient2881);stroke-linecap:round;stroke-width:.70668;stroke:#2e731a"/><path d="m214.77 295.09a35.383 31.615 0 1 0 70.766 0 35.383 31.615 0 1 0-70.766 0z" style="fill:url(#linearGradient2883);stroke-linecap:round;stroke-width:.70668;stroke:#2e731a"/><path d="m214.77 295.09a35.383 31.615 0 1 0 70.766 0 35.383 31.615 0 1 0-70.766 0z" style="fill:url(#linearGradient2883);stroke-linecap:round;stroke-width:.70668;stroke:#2e731a"/><g transform="matrix(2.2338 0 0 2.293 -212.64 -588.92)" style="stroke-width:.76253"><path d="m348.98 190.63 44.043-58.945c6.4345-8.6117 7.2275-24.146 25.499-0.54262l44.815 57.898c4.5874 5.9264 2.9155 14.096 0 17.798l-61.814 78.466c-2.9159 3.7011 1.4605-7.2814-1.5455-10.907l-54.088-65.238c-3.0062-3.6257 0.28318-14.77 3.0908-18.528z" style="fill:url(#z);stroke-width:0"/><path d="m395.33 117.81-71.429-0.72835c-10.765-0.10973-19.801 1.0716-26.976 10.476l-53.89 70.641c-3.4588 4.5344 3.1956 9.5416 7.8561 9.4895l92.881-1.0402c4.6611-0.0526 4.3751-4.8874 6.4669-7.8479l54.963-77.797c2.0916-2.9605-5.1764-3.1454-9.8733-3.1935z" style="fill:url(#y);stroke-width:0"/><path d="m250.76 197.18 71.429-0.72851c10.765-0.10973 19.801 1.0716 26.976 10.477l53.89 70.641c3.4588 4.5344-3.1963 9.5875-7.8559 9.4893l-81.292-1.7125c-4.66-0.0985-15.813-4.3003-18.057-7.1752l-56.509-72.417c-2.2432-2.8748 6.7221-8.5261 11.419-8.5738z" style="fill:url(#x);stroke-width:0"/><path d="m321.93 196.37 15.647 4.876 13.136 7.7343-0.38633-6.7256 6.761-13.451-12.749 10.761z" style="fill:url(#w);opacity:.146;stroke-width:0"/><path d="m401.74 127.16s-56.085 72.771-50.437 81.115c11.678 17.252 51.572 66.607 52.657 70.674 1.4728 5.5238 60.772-73.057 60.772-73.057s-41.3 57.229-54.528 62.187c-10.589 3.969-39.555-39.61-55.907-62.384-8.3622-11.646 47.446-78.535 47.446-78.535z" style="fill:#fff;opacity:.302;stroke-width:0"/><path transform="matrix(1.0867 0 0 -.87515 -136.41 481.62)" d="m496.07 407.57s-95.526 9.4434-99.027-0.2268c-7.1209-19.67-45.996-75.229-49.237-78.257-4.4-4.1121 98.162-4.484 98.162-4.484s-85.926-13.04-90.279-0.45621c-1.3885 4.0141 32.339 59.934 42.386 78.75 6.8694 12.866 97.995 4.6737 97.995 4.6737z" style="fill:#009100;filter:url(#k);opacity:.078;stroke-width:0"/><path d="m298.53 139.98a8.4518 15.715 62.088 1 0 26.853-16.119 8.4518 15.715 62.088 1 0-26.853 16.119z" style="fill:url(#linearGradient2887);stroke-linecap:round;stroke-width:.2435;stroke:#2e731a"/><path d="m310.78 163.41a8.4518 15.715 62.088 1 0 26.853-16.119 8.4518 15.715 62.088 1 0-26.853 16.119z" style="fill:url(#linearGradient2889);stroke-linecap:round;stroke-width:.2435;stroke:#2e731a"/><path d="m323.13 188.18a8.4518 15.715 62.088 1 0 26.853-16.119 8.4518 15.715 62.088 1 0-26.853 16.119z" style="fill:url(#linearGradient2891);stroke-linecap:round;stroke-width:.2435;stroke:#2e731a"/><g transform="matrix(1.8511 0 0 1.6089 16.797 -1226.1)" style="fill:#ccc;stroke-linecap:round;stroke-width:.3093;stroke:#2e731a"><path transform="matrix(.46857 .28194 -.16567 .29906 -86.368 661.02)" d="m645 299.5a15 14.286 0 1 1-30 0 15 14.286 0 1 1 30 0z" style="stroke-width:.3093"/><path transform="matrix(.52045 .30091 -.18402 .31919 -102.71 612.52)" d="m645 299.5a15 14.286 0 1 1-30 0 15 14.286 0 1 1 30 0z" style="stroke-width:.3093"/></g><g transform="matrix(1.8511 0 0 1.6089 16.797 -1226.1)" style="fill:url(#linearGradient2893);stroke-linecap:round;stroke-width:.76253;stroke:#3b9e1f"><g style="fill:url(#linearGradient2893);stroke-width:.29957"><path transform="matrix(.43884 0 0 .59694 -83.384 707.85)" d="m645 299.5a15 14.286 0 1 1-30 0 15 14.286 0 1 1 30 0z" style="fill:url(#linearGradient2893);stroke-width:.29957"/><path transform="matrix(.43884 0 0 .59694 -73.332 721.4)" d="m645 299.5a15 14.286 0 1 1-30 0 15 14.286 0 1 1 30 0z" style="fill:url(#linearGradient2893);stroke-width:.29957"/><path transform="matrix(.43884 0 0 .59694 -63.667 736.12)" d="m645 299.5a15 14.286 0 1 1-30 0 15 14.286 0 1 1 30 0z" style="fill:url(#linearGradient2893);stroke-width:.29957"/></g><g style="fill:url(#linearGradient2893);stroke-width:.31946"><path transform="matrix(.41152 0 0 .55978 -27.514 718.6)" d="m645 299.5a15 14.286 0 1 1-30 0 15 14.286 0 1 1 30 0z" style="fill:url(#linearGradient2893);stroke-width:.31946"/><path transform="matrix(.41152 0 0 .55978 -37.566 704.66)" d="m645 299.5a15 14.286 0 1 1-30 0 15 14.286 0 1 1 30 0z" style="fill:url(#linearGradient2893);stroke-width:.31946"/><path transform="matrix(.41152 0 0 .55978 -46.844 690.72)" d="m645 299.5a15 14.286 0 1 1-30 0 15 14.286 0 1 1 30 0z" style="fill:url(#linearGradient2893);stroke-width:.31946"/></g></g><path transform="matrix(1.0818 0 0 .94158 -135.49 -103.78)" d="m481.92 410.76s-70.423 9.5722-75.969 0.91153c-8.4734-13.232-22.16-30.692-56.488-85.82-3.1834-5.1122 74.198-1.5359 74.198-1.5359s-57.319-7.8479-64.082 3.6217c-4.9295 8.3598 38.496 66.923 49.826 83.468 8.2411 12.034 72.516-0.64537 72.516-0.64537z" style="fill:#009100;filter:url(#j);opacity:.332;stroke-width:0"/></g></g></g></svg>
