<?xml version="1.0" encoding="UTF-8"?>
<svg width="99.39mm" height="113.29mm" version="1.1" viewBox="0 0 99.39 113.29" xmlns="http://www.w3.org/2000/svg" xmlns:xlink="http://www.w3.org/1999/xlink"><defs><linearGradient id="linearGradient4098"><stop stop-color="#ffb142" offset="0"/><stop stop-color="#c87600" offset="1"/></linearGradient><linearGradient id="linearGradient6390" x1="219.61" x2="219.61" y1="354.02" y2="362.28" gradientTransform="matrix(2.4093,0,0,2.3068,-266.7,-30.397)" gradientUnits="userSpaceOnUse" xlink:href="#linearGradient4098"/><linearGradient id="linearGradient6392" x1="238.98" x2="238.98" y1="354.02" y2="362.28" gradientTransform="matrix(2.4093,0,0,2.3068,-313.37,-30.397)" gradientUnits="userSpaceOnUse" xlink:href="#linearGradient4098"/><linearGradient id="linearGradient6394" x1="229.44" x2="229.44" y1="354.02" y2="362.28" gradientTransform="matrix(2.4093,0,0,2.3068,-290.37,-30.397)" gradientUnits="userSpaceOnUse" xlink:href="#linearGradient4098"/><linearGradient id="linearGradient6396" x1="176.39" x2="176.39" y1="354.02" y2="362.28" gradientTransform="matrix(2.4093,0,0,2.3068,-162.56,-30.397)" gradientUnits="userSpaceOnUse" xlink:href="#linearGradient4098"/><linearGradient id="linearGradient6398" x1="195.75" x2="195.75" y1="354.02" y2="362.28" gradientTransform="matrix(2.4093,0,0,2.3068,-209.22,-30.397)" gradientUnits="userSpaceOnUse" xlink:href="#linearGradient4098"/><linearGradient id="linearGradient6401" x1="186.21" x2="186.21" y1="354.02" y2="362.28" gradientTransform="matrix(2.4093,0,0,2.3068,-186.23,-30.397)" gradientUnits="userSpaceOnUse" xlink:href="#linearGradient4098"/><linearGradient id="linearGradient6403" x1="346.24" x2="359.47" y1="537.41" y2="537.41" gradientTransform="matrix(.86765 0 0 1.0523 -49.778 -17.662)" gradientUnits="userSpaceOnUse" xlink:href="#linearGradient4098"/><linearGradient id="linearGradient55785" x1="76" x2="76" y1="516.36" y2="412.36" gradientUnits="userSpaceOnUse" xlink:href="#linearGradient55779"/><linearGradient id="linearGradient55779"><stop stop-color="#96511f" offset="0"/><stop stop-color="#d0823f" offset="1"/></linearGradient><linearGradient id="linearGradient55752" x1="100.5" x2="100.5" y1="526.36" y2="361.36" gradientUnits="userSpaceOnUse"><stop stop-color="#421805" offset="0"/><stop stop-color="#b06528" offset="1"/></linearGradient><filter id="filter55807" style="color-interpolation-filters:sRGB"><feGaussianBlur stdDeviation="3.0648148"/></filter><linearGradient id="linearGradient55793" x1="118.5" x2="118.5" y1="286.88" y2="183.88" gradientTransform="translate(-18,177)" gradientUnits="userSpaceOnUse" xlink:href="#linearGradient55779"/><linearGradient id="linearGradient55766" x1="100.5" x2="100.5" y1="465.88" y2="414.38" gradientTransform="translate(0,-2)" gradientUnits="userSpaceOnUse"><stop stop-color="#421805" offset="0"/><stop stop-color="#c47530" offset="1"/></linearGradient><linearGradient id="linearGradient55819" x1="99.05" x2="99.05" y1="523.86" y2="365.86" gradientTransform="translate(1,-2)" gradientUnits="userSpaceOnUse"><stop stop-color="#eeeeec" offset="0"/><stop stop-color="#eeeeec" stop-opacity="0" offset="1"/></linearGradient><linearGradient id="linearGradient55970" x1="79.207" x2="128.43" y1="321.15" y2="372.7" gradientTransform="matrix(.87054 0 0 .87054 17.735 43.864)" gradientUnits="userSpaceOnUse"><stop stop-color="#c1722f" offset="0"/><stop stop-color="#995320" offset="1"/></linearGradient><linearGradient id="linearGradient55972" x1="128.43" x2="79.207" y1="372.7" y2="321.15" gradientTransform="matrix(.87054 0 0 .87054 17.735 43.864)" gradientUnits="userSpaceOnUse"><stop stop-color="#461b06" offset="0"/><stop stop-color="#ca8c57" offset="1"/></linearGradient><linearGradient id="linearGradient55967" x1="41.75" x2="86.988" y1="318.38" y2="331" gradientTransform="matrix(.87054 0 0 .87054 24.814 54.02)" gradientUnits="userSpaceOnUse"><stop stop-color="#d38646" offset="0"/><stop stop-color="#d38646" stop-opacity="0" offset="1"/></linearGradient><linearGradient id="linearGradient55963" x1="89.33" x2="89.689" y1="456.04" y2="511.18" gradientTransform="matrix(.87054 0 0 .87054 17.735 43.864)" gradientUnits="userSpaceOnUse"><stop stop-color="#be702e" offset="0"/><stop stop-color="#96511f" offset="1"/></linearGradient><linearGradient id="linearGradient55925" x1="-70.253" x2="-70.253" y1="420.42" y2="400.64" gradientTransform="translate(166.16,69.047)" gradientUnits="userSpaceOnUse" spreadMethod="reflect" xlink:href="#linearGradient55919"/><linearGradient id="linearGradient55919"><stop stop-color="#babdb6" offset="0"/><stop stop-color="#eeeeec" offset=".43196"/><stop stop-color="#d3d7cf" offset=".7395"/><stop stop-color="#eeeeec" offset="1"/></linearGradient><linearGradient id="linearGradient55917" x1="-69.899" x2="-57.238" y1="407.69" y2="376.97" gradientTransform="translate(165.81,81.775)" gradientUnits="userSpaceOnUse"><stop stop-color="#555753" offset="0"/><stop stop-color="#b1b2af" offset=".60466"/><stop stop-color="#eeeeec" offset="1"/></linearGradient><linearGradient id="linearGradient56022" x1="128" x2="139" y1="487.86" y2="498.86" gradientUnits="userSpaceOnUse"><stop stop-color="#2e3436" offset="0"/><stop stop-color="#2e3436" stop-opacity="0" offset="1"/></linearGradient><linearGradient id="linearGradient56040" x1="88.919" x2="89.095" y1="474.39" y2="480.31" gradientUnits="userSpaceOnUse" spreadMethod="reflect"><stop stop-color="#704c2e" offset="0"/><stop stop-color="#704c2e" stop-opacity="0" offset="1"/></linearGradient><linearGradient id="linearGradient56010" x1="460.61" x2="484.86" y1="-96" y2="-96" gradientTransform="matrix(0 -1 -1 0 -.25 938.47)" gradientUnits="userSpaceOnUse" xlink:href="#linearGradient55919"/><linearGradient id="linearGradient56012" x1="453.86" x2="484.86" y1="-96" y2="-96" gradientTransform="matrix(0 -1 -1 0 -.25 938.47)" gradientUnits="userSpaceOnUse"><stop stop-color="#555753" offset="0"/><stop stop-color="#555753" stop-opacity="0" offset="1"/></linearGradient><linearGradient id="linearGradient56050" x1="96" x2="95.714" y1="394.36" y2="379.36" gradientTransform="matrix(1.0704,0,0,1,-11.289,-770.22)" gradientUnits="userSpaceOnUse"><stop stop-color="#fff" offset="0"/><stop stop-color="#b86e32" offset="1"/></linearGradient></defs><g transform="translate(-39.057 -81.958)"><g transform="matrix(.17868 0 0 .18167 38.452 46.515)" style="stroke-linecap:round;stroke-linejoin:round;stroke-width:6.7628;stroke:#502d16"><path d="m248.88 784.19a19.274 31.142 0 0 1-38.549 0 19.274 31.142 0 1 1 38.549 0z" style="fill:url(#linearGradient6390);stroke:#502d16"/><path d="m202.21 784.19a19.274 31.142 0 0 1-38.549 0 19.274 31.142 0 1 1 38.549 0z" style="fill:url(#linearGradient6392);stroke:#502d16"/><path d="m225.21 784.19a19.274 31.142 0 0 1-38.549 0 19.274 31.142 0 1 1 38.549 0z" style="fill:url(#linearGradient6394);stroke:#502d16"/><path d="m353.01 784.19a19.274 31.142 0 0 1-38.549 0 19.274 31.142 0 1 1 38.549 0z" style="fill:url(#linearGradient6396);stroke:#502d16"/><path d="m306.37 784.19a19.274 31.142 0 0 1-38.549 0 19.274 31.142 0 1 1 38.549 0z" style="fill:url(#linearGradient6398);stroke:#502d16"/><path d="m329.35 784.19a19.274 31.142 0 0 1-38.549 0 19.274 31.142 0 1 1 38.549 0z" style="fill:url(#linearGradient6401);stroke:#502d16"/></g><path d="m71.14 183.32c-1.4033 0-2.6053 1.3835-3.1417 3.3633 4.5848 1.2469 9.6221 1.9742 14.916 2.0732-0.07211-3.0186-1.5813-5.4363-3.4364-5.4363-0.79775 0-1.5306 0.44906-2.1147 1.1979-0.58407-0.74882-1.3169-1.1979-2.1147-1.1979-0.76993 0-1.4805 0.41892-2.0543 1.1211-0.5737-0.70217-1.2843-1.1211-2.0543-1.1211zm18.61 0c-1.8502 0-3.357 2.4057-3.4364 5.4136 5.2882-0.17307 10.299-0.97884 14.848-2.296-0.56727-1.8467-1.7297-3.1176-3.0738-3.1176-0.79775 0-1.5306 0.44905-2.1147 1.1979-0.58407-0.74883-1.3169-1.1979-2.1147-1.1979-0.76993 0-1.4805 0.41892-2.0543 1.1211-0.57371-0.70218-1.2843-1.1211-2.0543-1.1211z" style="fill-opacity:.31373"/><g transform="matrix(.17868 0 0 .18167 38.452 46.515)" style="stroke:#000"><path d="m244.24 370.4c54.241-0.28165 91.387 0.35883 135.93-10.384 29.4-7.0904 60.624-3.2682 60.624-3.2682-0.13652 0.15587 7.9232-1.5945 3.8086 3.3325-10.306 12.341-31.254 31.159-68.236 38.441-89.735 9.3496-178.42 9.4781-266.43 3.9307-21.494-1.0456-36.945-13.167-51.811-25.792-13.128-11.149-18.49-27.893 7.8533-20.161 25.868 7.5926 124.02 14.182 178.27 13.901z" style="stroke-width:8.1424"/><path d="m479.7 546.02a223.93 223.93 0 0 1-447.86 0 223.93 223.93 0 1 1 447.86 0z" style="fill:#784421;stroke:none"/><path d="m366.46 657.98c-35.842-6.6595-3.0397 29.258-8.5356 42.244-21.727-10.683-13.448 24.684-23.274 34.509-18.616-0.99564-21.522 17.777-34.509 23.274-15.692-8.7059-27.263 8.5357-42.244 8.5357-14.982 0-23.847-16.565-42.244-8.5357-12.987-5.496-15.893-23.591-34.509-23.274-9.8249-9.8249-8.309-47.221-23.274-34.509-5.496-12.987 19.868-51.607-8.5357-42.244 0-14.982 30.091-42.782 8.5357-42.244 5.496-12.987 33.06-22.655 23.274-34.509 19.65-19.65 46.79-31.809 76.753-31.809s57.103 12.159 76.753 31.809c-14.521 7.1196 17.777 21.522 23.274 34.509-24.26-1.2152 8.5356 27.263 8.5356 42.244z" style="fill:#fff;stroke-linecap:round;stroke-linejoin:round;stroke-width:6.7628;stroke:#520"/></g><path d="m119.5 126.65c0.47864 2.5143 0.73255 5.1075 0.73255 7.7631 0 0.91649-0.0318 1.8245-0.0906 2.726-0.88758-0.0449-1.8315 5e-3 -2.8398 0.15358-8.5109 1.8425-4.8755 12.695-7.0918 24.049-5.1242 8.3879-7.8339 9.356-20.975 12.715-2.8977 0.67867-5.9154 1.0373-9.0144 1.0373-7.3405 0-14.218-2.0167-20.134-5.5288-5.7228-13.623 1.9519-28.42-8.134-30.977-11.144-2.0458-15.46 8.4667-8.2548 24.218 3.9781 8.6973 10.567 12.969 15.414 14.628 6.8549 5.6025 15.562 8.9534 25.037 8.9534 11.105 0 21.161-4.6046 28.412-12.04 4.2181-2.1421 8.9084-6.0432 12.167-12.57 6.0932-12.205 4.9264-21.397-1.3217-23.942-0.76605-3.965-2.0943-7.7259-3.9045-11.188z" style="fill-opacity:.31373;fill-rule:evenodd;stroke-width:.41118"/><path d="m73.044 114.3c-7.5485 0-13.68 7.207-13.68 16.088 0 8.8806 6.131 16.088 13.68 16.088 4.4363 0 8.3726-2.4918 10.871-6.3468 2.4988 3.8578 6.4437 6.3468 10.882 6.3468 7.5485 0 13.68-7.207 13.68-16.088 0-8.8806-6.131-16.088-13.68-16.088-4.4375 0-8.3831 2.4898-10.882 6.3468-2.499-3.8541-6.4361-6.3468-10.871-6.3468z" style="fill:#fff;stroke-linecap:round;stroke-width:1.2184;stroke:#502d16"/><path d="m84.331 141.56c-2.2448 0-4.6846 2.5376-4.5867 4.1403 0.09759 1.6027 4.0014 8.2805 4.8796 8.2805 0.87837 0 4.294-6.5441 4.1965-8.414-0.0976-1.8698-3.0254-4.1403-4.4893-4.0067z" style="fill-opacity:.31373;fill-rule:evenodd;stroke-width:.41118"/><g transform="matrix(.17868 0 0 .18167 38.452 46.515)" style="stroke-width:6.7628;stroke:#000"><path d="m253.9 508.82c-12.563 0-26.218 12.587-25.67 20.537 0.5462 7.9498 22.394 41.073 27.309 41.073 4.9159 0 24.032-32.462 23.486-41.737-0.5462-9.2746-16.932-20.537-25.125-19.874z" style="fill-rule:evenodd;fill:url(#linearGradient6403)"/><path d="m249.63 467.69a22.165 22.165 0 1 1-44.329 0 22.165 22.165 0 1 1 44.329 0z" style="stroke-linecap:round"/><path d="m305.75 467.69a22.165 22.165 0 1 1-44.329 0 22.165 22.165 0 1 1 44.329 0z" style="stroke-linecap:round"/></g><g transform="matrix(.17868 0 0 .18167 38.452 46.515)" style="stroke-width:2.2822"><path d="m225.21 459.93a5.7485 5.7485 0 0 1-11.497 0 5.7485 5.7485 0 1 1 11.497 0z" style="fill:#fff"/><path d="m281.33 459.93a5.7485 5.7485 0 0 1-11.497 0 5.7485 5.7485 0 1 1 11.497 0z" style="fill:#fff"/><path d="m5.4989 536.25c-4.6687 22.325-1.7563 52.308 10.525 87.662 32.266 92.888 123.52 106.83 110.53 90.072-5.5576-7.1684-10.172-14.438-13.948-21.725-25.634-6.1619-73.103-32.978-94.554-94.734-7.9512-22.89-11.975-43.522-12.552-61.277zm96.412 8.5802c-1.1941 11.545-2.5107 23.822-3.0855 36.689 1.3435-13.242 2.8126-25.62 3.0855-36.689z" style="fill-opacity:.31373;fill-rule:evenodd"/></g><g transform="matrix(.1906 -.065637 .064557 .19379 61.989 86.504)"><rect x="-15" y="364.36" width="231" height="159" ry="9.7193" style="fill:url(#linearGradient55785);stroke-width:6;stroke:url(#linearGradient55752)"/><path d="m-6.2812 371.38c-5.3845 0-9.7188 4.3343-9.7188 9.7188v35.141l40 55.141h151l40-55.141v-35.141c0-5.3845-4.3343-9.7188-9.7188-9.7188h-211.56z" style="fill:#2e3436;filter:url(#filter55807);opacity:.5"/><path d="m-5.2812 362.38c-5.3845 0-9.7188 4.3343-9.7188 9.7188v35.141l40 55.141h151l40-55.141v-35.141c0-5.3845-4.3343-9.7188-9.7188-9.7188h-211.56z" style="fill:url(#linearGradient55793);stroke-width:3;stroke:url(#linearGradient55766)"/><rect x="-14.006" y="364.36" width="228.11" height="157.01" ry="9.5978" style="fill:none;stroke-width:.9875;stroke:url(#linearGradient55819)"/><path d="m77.961 323.87c-16.203 0-29.245 13.041-29.245 29.245v7.318h16.404v-6.9371c0-7.3299 5.8914-13.248 13.221-13.248h37.379c7.3299 0 13.221 5.9186 13.221 13.248v6.9371h16.404v-7.318c0-16.203-13.041-29.245-29.245-29.245h-38.14z" style="fill:url(#linearGradient55970);stroke-width:.87054;stroke:url(#linearGradient55972)"/><path d="m77.781 324.43c-15.721 0-28.374 12.653-28.374 28.374v7.1001h2.9562v-3.7216c0-15.721 12.653-28.374 28.374-28.374h37.005c7.7106 0 14.692 3.041 19.796 7.9976-5.1648-6.9151-13.418-11.376-22.752-11.376h-37.005z" style="fill:url(#linearGradient55967)"/><path d="m129.47 356.56c0-4.5005-0.30145-6.3258-1.404-8.5017-0.3091-0.60997-0.47062-1.109-0.35895-1.109 0.4454 0 2.6298 2.723 3.3683 4.1989 1.1326 2.2632 1.4415 3.7288 1.4415 6.8374v2.6747h-3.0468v-4.1002z" style="fill:#2e3436;opacity:.62406"/><path d="m84.853 434.67h21.92v60.489l-10.96 12-10.96-12z" style="fill:url(#linearGradient55963);stroke:#461b06"/><g style="fill:#431905"><rect x="86.621" y="437.89" width="4.2426" height="1.4142"/><rect x="93.737" y="437.89" width="4.2426" height="1.4142"/><rect x="100.32" y="437.71" width="4.2426" height="1.4142"/></g><path d="m86.806 450.42c-4.5589 0-8.2252 3.6662-8.2252 8.2252v22.094c0 4.559 3.6662 8.2252 8.2252 8.2252h18.2c4.5589 0 8.2252-3.6662 8.2252-8.2252v-22.094c0-4.559-3.6662-8.2252-8.2252-8.2252zm2.8657 6.0595h12.469c3.1261 0 5.6439 2.5177 5.6439 5.6439v15.138c0 3.1261-2.5178 5.6439-5.6439 5.6439h-12.469c-3.1261 0-5.6439-2.5178-5.6439-5.6439v-15.138c0-3.1261 2.5177-5.6439 5.6439-5.6439z" style="fill:url(#linearGradient55925);stroke:url(#linearGradient55917)"/><circle transform="matrix(.86364 0 0 .86364 -19.295 42.527)" cx="133.5" cy="493.36" r="5" style="fill:#704c2e;stroke:url(#linearGradient56022)"/><path d="m85.031 468.47v11.844h20.844v-11.844h-5.5938c2e-3 0.0533 0.0312 0.10249 0.0312 0.15625 0 2.3849-1.9276 4.3125-4.3125 4.3125s-4.3125-1.9276-4.3125-4.3125c0-0.0538 0.0293-0.10297 0.03125-0.15625h-6.6875z" style="fill:url(#linearGradient56040);opacity:.64286"/><path d="m95.625 464.38c-0.87755 0-1.6777 0.30964-2.3438 0.84375v16.406c0 1.3717 1.0971 2.4688 2.4688 2.4688s2.4688-1.0971 2.4688-2.4688v-16.188c-0.707-0.66-1.608-1.06-2.594-1.06z" style="fill:url(#linearGradient56010);stroke-width:1.0482;stroke:url(#linearGradient56012)"/><rect transform="scale(1,-1)" x="-14.5" y="-390.86" width="228" height="27" ry="9.7193" style="fill:url(#linearGradient56050);opacity:.21805"/></g><path d="m110.05 142.92c-1.0972 17.433 2.4856 15.821 0.54104 26.904-2.6639 15.183-1.2368 10.369-4.6544 10.715 1.1098 1.7727 2.4215 4.3248 7.5868-12.388 4.0946-13.248 2.3509-22.727-3.1258-25.506l-0.34734 0.27734z" style="fill-opacity:.31373;fill-rule:evenodd;stroke-width:.41118"/><g transform="matrix(.17868 0 0 .18167 38.452 46.515)" style="fill-rule:evenodd;fill:#784421;stroke:#000"><path d="m75.389 495.95c65.072 23.399-19.157 127.33 51.153 218.02 12.996 16.763-78.27 2.8279-110.53-90.06-31.378-90.332-1.5316-145.45 59.383-127.96z" style="stroke:none"/><path d="m98.934 483.69c-18.109-6.234-36.819 10.258-40.395 19.179 18.276-4.6694 26.672-5.9862 31.403-1.8675-2.038 4.5601-23.545 9.1188-30.212 39.051 16.811-11.655 30.166-25.125 35.534-19.589-3.8975 6.8085-8.3853 19.608-5.3609 32.3 9.6592-12.747 19.529-26.211 28.596-26.574" style="stroke-linecap:round;stroke-linejoin:round;stroke-width:6.7628;stroke:#520"/><path d="m435.79 496.4c-64.91 25.656 19.109 139.62-51.025 239.06-12.964 18.38 78.074 3.1008 110.26-98.749 31.298-99.047 1.5277-159.49-59.234-140.31z" style="stroke:none"/><path d="m411.87 483.69c18.109-6.234 36.819 10.258 40.395 19.179-18.276-4.6694-26.672-5.9862-31.403-1.8675 2.0379 4.5601 23.545 9.1188 30.212 39.051-16.811-11.655-30.166-25.125-35.534-19.589 3.8975 6.8085 8.3853 19.608 5.3609 32.3-9.6592-12.747-19.529-26.211-28.596-26.574" style="stroke-linecap:round;stroke-linejoin:round;stroke-width:6.7628;stroke:#520"/></g><path d="m120.12 136.03c-0.0997-1.6e-4 -0.20098 6e-3 -0.3021 8e-3 3.9181 3.5487 5.5761 11.761 3.5722 23.181-2.6639 15.183-12.948 21.733-16.366 22.078 1.1098 1.7727 14.735-2.2071 19.9-18.921 4.9057-15.873 1.4309-26.335-6.8047-26.348z" style="fill-opacity:.31373;fill-rule:evenodd;stroke-width:.41118"/><g transform="matrix(.2623 0 0 .26669 182.97 97.535)" style="stroke:#000"><path d="m-294.64 51.062c-0.71204-17.528 1.7932-34.804-0.13139-53.346-2.1209-20.433-15.535-57.463-92.865-56.09-77.329 1.373-88.092 40.877-88.208 58.744l-0.34639 53.353c62.892-10.209 122.28-8.8554 181.55-2.6608z" style="fill:#1a1a1a;stroke:none"/><path d="m-478.43 55.376-0.24782-12.202c60.085-15.209 120.04-15.855 186.13-4.0101l-3.1321 11.599c-63.29 17.75-124.35 15.638-182.75 4.6131v8.8e-5z" style="fill:#4d4d4d;stroke-width:5.5"/><path d="m-383.09 54.381c43.459-0.96334 79.91-11.529 108.01-21.371 9.3082-3.2602 16.145 0.96579 20.649 6.0381 7.0148 10.064 8.0974 12.871 4.7435 12.431-1.1227-0.14731-2.7879-1.0229-4.6613-2.1394-22.762-0.66193-59.707 17.195-128.89 17.395-35.317 0.10198-101.67-9.6682-124.54-17.818-4.5723-1.6297-8.3947 2.186-9.7312 5.7813-1.078 0.02518-3.0052-21.043 16.298-16.116 19.303 4.9272 74.658 16.762 118.12 15.799l4e-5 1.07e-4h-1e-5z" style="fill:#333;stroke-linecap:round;stroke-width:6.6848;stroke:#1a1a1a"/></g></g></svg>
