<?xml version="1.0" encoding="UTF-8"?>
<svg width="100.05mm" height="114mm" version="1.1" viewBox="0 0 100.05 114" xmlns="http://www.w3.org/2000/svg" xmlns:xlink="http://www.w3.org/1999/xlink"><defs><clipPath id="cp1"><rect x="100" y="600" width="400" height="150"/></clipPath></defs><g transform="translate(-11.598 -137.83)"><g transform="matrix(.65431 0 0 .60686 -13.722 100.57)" style="stroke-width:1.5869"><g transform="matrix(.26458 0 0 .26458 35.779 57.438)" style="stroke-width:1.5869"><circle cx="300" cy="500" r="200" clip-path="url(#cp1)" style="fill:#fff;stroke-width:22.217px;stroke:#000"/><circle cx="300" cy="540" r="150" style="fill:#fff;stroke-width:1.5869"/><circle cx="125" cy="120" r="105" style="stroke-width:1.5869"/><circle cx="475" cy="120" r="105" style="stroke-width:1.5869"/><ellipse transform="rotate(45,150,500)" cx="150" cy="500" rx="45" ry="100" style="stroke-width:1.5869"/><ellipse transform="rotate(-45,450,500)" cx="450" cy="500" rx="45" ry="100" style="stroke-width:1.5869"/><ellipse cx="300" cy="270" rx="285" ry="210" style="fill:#fff;stroke-width:7.9347px;stroke:#000"/><circle cx="170" cy="640" r="85" style="stroke-width:1.5869"/><circle cx="175" cy="655" r="63" style="fill:#fff;stroke-width:1.5869"/><circle cx="430" cy="640" r="85" style="stroke-width:1.5869"/><circle cx="425" cy="655" r="63" style="fill:#fff;stroke-width:1.5869"/><ellipse cx="300" cy="343" rx="35" ry="18" style="stroke-width:1.5869"/><ellipse cx="310" cy="334" rx="15" ry="5.5" style="fill:#fff;stroke-width:1.5869"/><path d="m246 375q9 33 54 15 45 18 54-15m-54 15v-30" style="fill:none;stroke-linecap:round;stroke-width:11.109px;stroke:#000"/><g id="eye-9" style="stroke-width:1.5869"><ellipse transform="rotate(15,200,270)" cx="200" cy="270" rx="50" ry="100" style="stroke-width:1.5869"/><rect transform="rotate(-35,80,250)" x="80" y="250" width="169" height="80" rx="60" ry="30" style="stroke-width:1.5869"/><rect transform="rotate(235 160 382)" x="160" y="382" width="150" height="80" rx="60" ry="30" style="stroke-width:1.5869"/><ellipse transform="rotate(-33,160,215)" cx="160" cy="215" rx="80" ry="25" style="stroke-width:1.5869"/><circle cx="195" cy="250" r="40" style="fill:#fff;stroke-width:1.5869"/><circle cx="198" cy="247" r="34" style="stroke-width:1.5869"/><circle cx="211" cy="234" r="8" style="fill:#fff;stroke-width:1.5869"/><circle cx="203" cy="248" r="3" style="fill:#fff;stroke-width:1.5869"/></g><use transform="matrix(-1,0,0,1,600,0)" width="100%" height="100%" style="stroke-width:1.5869" xlink:href="#eye-9"/><path d="m300 531c11-22 39-22 46 0 11 35-39 53-46 75-7-22-57-40-46-75 7-22 35-22 46 0" style="fill:#f00;stroke-width:6.3478px;stroke:#900"/></g></g></g></svg>
