<?xml version="1.0" encoding="UTF-8"?>
<svg width="100.02mm" height="115.45mm" version="1.1" viewBox="0 0 100.02 115.45" xmlns="http://www.w3.org/2000/svg" xmlns:xlink="http://www.w3.org/1999/xlink"><defs><linearGradient id="a"><stop stop-color="#fff" offset="0"/><stop stop-color="#fff" stop-opacity="0" offset="1"/></linearGradient><filter id="af-8"><feGaussianBlur stdDeviation=".88137"/></filter><filter id="f-8" x="-.11132" y="-.12601" width="1.2226" height="1.252"><feGaussianBlur stdDeviation="1.00998"/></filter><linearGradient id="c-5"><stop stop-color="#fff" offset="0"/><stop stop-color="#fbdea9" offset="1"/></linearGradient><linearGradient id="w-4" x1="842.57" x2="831.65" y1="370.96" y2="344.42" gradientTransform="matrix(1.2045 0 0 1.3722 -838.29 -429.41)" gradientUnits="userSpaceOnUse"><stop stop-color="#fff" offset="0"/><stop stop-color="#f8bf5c" offset="1"/></linearGradient><linearGradient id="e-5"><stop stop-color="#fff" offset="0"/><stop stop-color="#f8c367" offset="1"/></linearGradient><linearGradient id="b-9"><stop stop-color="#996200" offset="0"/><stop stop-color="#593900" offset="1"/></linearGradient><linearGradient id="j-9" x1="1241.3" x2="1250.9" y1="484.24" y2="504.63" gradientUnits="userSpaceOnUse" xlink:href="#a"/><linearGradient id="k-9" x1="1056" x2="1065.7" y1="490.22" y2="510.61" gradientTransform="matrix(-.97276 0 0 1 2265.2 -6.3748)" gradientUnits="userSpaceOnUse" xlink:href="#a"/><linearGradient id="l-7" x1="1470.8" x2="1484.6" y1="597.62" y2="621.39" gradientTransform="matrix(1.141 0 0 .8206 -449.58 -22.834)" gradientUnits="userSpaceOnUse" xlink:href="#a"/><linearGradient id="m-9" x1="1228.6" x2="1244.3" y1="464.78" y2="490.31" gradientUnits="userSpaceOnUse" xlink:href="#e-5"/><linearGradient id="n-8" x1="1128" x2="1142.8" y1="698.3" y2="719.45" gradientTransform="matrix(.87331 0 0 1 243.89 -242.31)" gradientUnits="userSpaceOnUse" xlink:href="#a"/><linearGradient id="o-2" x1="1251.7" x2="1226.3" y1="479.09" y2="446.23" gradientUnits="userSpaceOnUse" xlink:href="#b-9"/><linearGradient id="d-8" x1="1462.4" x2="1437.1" y1="599.48" y2="566.62" gradientUnits="userSpaceOnUse" xlink:href="#b-9"/><linearGradient id="p-2" x1="1222.9" x2="1233.7" y1="467.98" y2="473.52" gradientUnits="userSpaceOnUse" xlink:href="#a"/><linearGradient id="q-2" x1="1224.8" x2="1237.1" y1="464.35" y2="478.65" gradientUnits="userSpaceOnUse" xlink:href="#b-9"/><linearGradient id="r-7" x1="839.8" x2="849.44" y1="343.09" y2="363.48" gradientTransform="matrix(1.2045 0 0 1.3722 -838.29 -429.41)" gradientUnits="userSpaceOnUse" xlink:href="#a"/><linearGradient id="s-6" x1="1235.8" x2="1252.1" y1="491.17" y2="509.05" gradientTransform="matrix(1.0184 0 0 1.3065 -1104.4 -639.67)" gradientUnits="userSpaceOnUse" xlink:href="#a"/><linearGradient id="t-1" x1="1255" x2="1248.9" y1="491.17" y2="529.53" gradientTransform="matrix(1.2045 0 0 1.4732 -1335.9 -723.89)" gradientUnits="userSpaceOnUse" xlink:href="#b-9"/><linearGradient id="u-1" x1="1056" x2="1065.7" y1="490.22" y2="510.61" gradientTransform="matrix(-1.1717 0 0 1.3722 1406.5 -631.83)" gradientUnits="userSpaceOnUse" xlink:href="#a"/><linearGradient id="v-9" x1="1255" x2="1248.9" y1="491.17" y2="529.53" gradientTransform="matrix(1,0,0,1.0736,190.44,32.424)" gradientUnits="userSpaceOnUse" xlink:href="#b-9"/><linearGradient id="x-0" x1="968.36" x2="978.14" y1="537.87" y2="568.56" gradientUnits="userSpaceOnUse" xlink:href="#a"/><linearGradient id="y-0" x1="1070.5" x2="1065.7" y1="486.05" y2="510.61" gradientTransform="matrix(-.97276 0 0 1 2001.8 56.891)" gradientUnits="userSpaceOnUse" xlink:href="#a"/><linearGradient id="z-4" x1="1470.8" x2="1484.6" y1="597.62" y2="621.39" gradientTransform="matrix(1.141 0 0 .8206 -713.02 40.432)" gradientUnits="userSpaceOnUse" xlink:href="#a"/><linearGradient id="aa-3" x1="965.15" x2="980.88" y1="528.05" y2="553.58" gradientUnits="userSpaceOnUse" xlink:href="#e-5"/><linearGradient id="ab-6" x1="1128" x2="1142.8" y1="698.3" y2="719.45" gradientTransform="matrix(.87331 0 0 1 -19.544 -179.05)" gradientUnits="userSpaceOnUse" xlink:href="#a"/><linearGradient id="ac-6" x1="988.24" x2="962.89" y1="542.36" y2="509.49" gradientUnits="userSpaceOnUse" xlink:href="#b-9"/><linearGradient id="ad-4" x1="959.45" x2="970.25" y1="531.24" y2="536.78" gradientUnits="userSpaceOnUse" xlink:href="#a"/><linearGradient id="ae-0" x1="961.36" x2="973.65" y1="527.61" y2="541.92" gradientUnits="userSpaceOnUse" xlink:href="#b-9"/><radialGradient id="g-0" cx="975.19" cy="469.46" r="8.9148" gradientTransform="matrix(1.335 .10019 -.10581 1.1912 -9.1405 -176.66)" gradientUnits="userSpaceOnUse" xlink:href="#c-5"/><radialGradient id="h-0" cx="1260.9" cy="522.46" r="8.9148" gradientTransform="matrix(1.0228 .032113 -.035199 1.4551 -1097.2 -770.93)" gradientUnits="userSpaceOnUse" xlink:href="#c-5"/><radialGradient id="i-7" cx="975.19" cy="469.46" r="8.9148" gradientTransform="matrix(1.335 .10019 -.10581 1.1912 -272.58 -113.39)" gradientUnits="userSpaceOnUse" xlink:href="#c-5"/></defs><g transform="translate(-95.786 -10.117)"><g transform="matrix(1.2045 0 0 1.3722 -1056.2 -689.12)" style="fill-rule:evenodd;stroke-width:.58067"><path d="m969.16 551.25 14.03-0.32165-4.209 21.369-6.8395-0.16082-2.9814-20.886z" style="fill:#fbdea9;stroke-width:.58067"/><path d="m967.23 551.11 7.7159 5.1439h2.0003l7.4302-4.2866 0.2857-12.574s-0.6925-8.4956-9.7162-8.5732c-7.0244-0.0624-8.0017 10.859-8.0017 10.859l0.2858 9.4305z" style="fill:url(#i-7);stroke-linecap:round;stroke-linejoin:round;stroke-width:.58067;stroke:#996508"/><path d="m966.86 544.39s-3.8578-6.3584-2.8577-10.288 3.0721-6.2155 6.8585-5.4297c2.8894 0.59967 4.8581 4.0008 4.8581 4.0008l-4.8581 0.28578-4.0008 11.431z" style="fill:url(#ae-0);stroke-width:.58067"/><path d="m967.34 544.72s-3.8579-6.3584-2.8578-10.288 3.072-6.2156 6.8586-5.4297c2.8893 0.59965 4.858 4.0008 4.858 4.0008l-4.858 0.28576-4.0008 11.431z" style="fill:url(#ad-4);stroke-width:.58067"/><path transform="matrix(.88342 0 0 .88454 -305.25 11.975)" d="m1440.6 587.36s0.4183-0.0954 0.8289 0.5129c5.0149 7.4281 16.042 7.1915 18.437 12.378 0.4132 0.89471 0.971 0.66079 0.971 0.66079s2.7863-5.1439 0.8573-10.002-3.7718-6.569-8.0017-8.2874c-4.5724-1.8575-5.7869-0.5001-9.1447 0.57155s-3.948 4.1665-3.948 4.1665z" style="fill:url(#d-8);filter:url(#f-8);stroke-width:.58067"/><path d="m966.46 530.23s0.4183-0.0953 0.8289 0.5129c5.0148 7.4281 16.042 7.1915 18.437 12.378 0.4132 0.89471 0.971 0.66079 0.971 0.66079s2.7864-5.1439 0.8574-10.002-3.7719-6.569-8.0018-8.2874c-4.5724-1.8575-5.7869-0.5001-9.1447 0.57155s-3.9479 4.1665-3.9479 4.1665z" style="fill:url(#ac-6);stroke-width:.58067"/><path d="m967.54 530.56s0.3653-0.0954 0.7239 0.51289c10.185 7.6649 27.844 3.0488 10.71-5.251-5.1654-1.751-3.6683-0.50009-7.9862 0.57155-3.0302 0.75206-3.4478 4.1666-3.4478 4.1666z" style="fill:url(#ab-6);stroke-width:.58067"/><path d="m970.81 536.44c3.8015 2.4988 7.6031 4.1457 11.948 4.9408v9.0297c-4.7669 2.8963-8.6289 2.726-13.215 0.51113l-0.9051-8.689 2.1724-5.7926z" style="fill:url(#aa-3);opacity:.54925;stroke-width:.58067"/><path d="m970.89 537.26c3.8015 1.9095 7.603 3.168 11.948 3.7755v6.9001c-4.767 2.2132-8.6288 2.0831-13.215 0.39058l-0.9053-6.6397 2.1726-4.4265z" style="fill:url(#z-4);stroke-width:.58067"/><path d="m982.28 555.94-12.994 17.964 26.98 0.4878s-0.464-10.982-3.1326-14.509c-3.7448-3.1958-10.853-3.943-10.853-3.943z" style="fill:#f95;stroke-width:.58067"/><path d="m970.48 556.57 9.2116 17.249-23.197 0.0443s0.8779-11.396 3.5465-14.923c3.7446-3.1958 10.439-2.3701 10.439-2.3701z" style="fill:#f95;stroke-width:.58067"/><path d="m970.15 556.33 5.155 12.423-18.882-0.58536s0.4515-4.982 3.0474-8.5089c3.6426-3.1958 10.68-3.3292 10.68-3.3292z" style="fill:url(#y-0);stroke-width:.58067"/><path d="m982.46 556.11-7.3358 11.964 21.321 0.4878s-0.464-4.982-3.1326-8.5089c-3.7448-3.1958-10.853-3.943-10.853-3.943z" style="fill:url(#x-0);stroke-width:.58067"/></g><path d="m163.43 46.697 15.943-0.44136-4.7831 23.833-7.7725-0.22067-3.3878-23.171z" style="fill-rule:evenodd;fill:url(#w-4);stroke-width:.74652"/><path d="m178.58 52.94-4.7232 17.086h21.569s-0.55889-6.8362-3.7731-11.676c-4.5106-4.3852-13.072-5.4105-13.072-5.4105z" style="fill-rule:evenodd;fill:#e9afe6;stroke-linecap:round;stroke-linejoin:round;stroke-width:.74652;stroke:#e9afe6"/><path d="m164.37 53.805 2.9282 15.836-19.774-0.34077s1.0574-7.4043 4.2718-12.244c4.5105-4.3852 12.574-3.2522 12.574-3.2522z" style="fill-rule:evenodd;fill:#e9afe6;stroke-linecap:round;stroke-linejoin:round;stroke-width:.74652;stroke:#e9afe6"/><path d="m181.26 34.576a10.146 15.648 0 1 1-20.292 0 10.146 15.648 0 1 1 20.292 0z" style="fill-rule:evenodd;fill:url(#h-0);stroke-linecap:round;stroke-linejoin:round;stroke-width:.74654;stroke:#996508"/><path transform="matrix(1.1115 0 0 1.2193 -1430.5 -680.61)" d="m1439 582.37s0.5406-7.5502 4.4291-7.105c3.2687 0.59974 4.4723 3.0268 6.1887 10.571-0.2241 5.4554-2.8951 8.2661-2.8951 8.2661l-1.7723 1.8614c2.1526 1.6281 4.5021 3.1724 6.7373 2.8484 1.4066-0.56448 2.4826-2.3269 2.9801-4.6216 0 0 0.5796-11.998-2.6489-18.131s-5.2153-6.5769-10.265-6.3992-6.9536 1.8664-9.9337 7.1102c-1.9867 5.2438-1.9867 13.865-1.9867 13.865l-0.3311 2.1331-0.9934 2.8441 1.3245 2.4886c-2.759 3.2289 2.5443 3.063 4.9668 2.4886l4.0866-5.3832s-2.5164-0.65963-3.8818-4.126c-1.0762-3.5551-0.9254-8.4964-0.9254-8.4964l4.9202-0.21423z" style="fill-rule:evenodd;fill:url(#v-9);filter:url(#af-8);stroke-width:.58067"/><path d="m163.82 54.518 3.5369 15.212h-19.924s0.54371-6.8362 3.6704-11.676c4.3878-4.3852 12.716-3.5362 12.716-3.5362z" style="fill-rule:evenodd;fill:url(#u-1);stroke-width:.74652"/><path d="m167.95 30.725s0.65104-10.36 5.3348-9.7493c3.9373 0.82295 5.3869 4.1533 7.4544 14.505-0.27005 7.4858-3.4873 11.343-3.4873 11.343l-2.1347 2.5542c5.5724 2.9844 8.2649 1.6409 11.705-2.4332 0 0 0.69813-16.463-3.1905-24.879-3.8886-8.4156-6.282-9.0247-12.364-8.7809-6.0822 0.24384-8.3757 2.561-11.965 9.7565-2.3929 7.1954-2.3929 19.025-2.3929 19.025 0.4376 8.0821-1.618 8.2959 5.9824 10.915l4.9223-4.6424s-3.031-0.90513-4.6755-5.6616c-1.2964-4.8782-1.1146-11.659-1.1146-11.659l5.9264-0.29396z" style="fill-rule:evenodd;fill:url(#t-1);stroke-width:.74652"/><path d="m166.36 28.488c-0.73029-7.2933 6.6337-9.2972 3.5545-14.42-5.1424 0.2163-7.0813 2.2712-10.116 8.6522 0 0-1.6742 4.2694 0.15382 5.9728 1.8278 0.21015 6.4078-0.20436 6.4078-0.20436z" style="fill-rule:evenodd;fill:url(#s-6);stroke-width:.74652"/><path d="m178.8 53.174-4.7232 17.086h21.569s-0.55877-6.8362-3.7731-11.676c-4.5106-4.3852-13.072-5.4105-13.072-5.4105z" style="fill-rule:evenodd;fill:url(#r-7);stroke-width:.74652"/><g transform="matrix(1.2045 0 0 1.3722 -1347.6 -576.18)" style="fill-rule:evenodd;stroke-width:.58067"><path d="m1232.6 487.98 14.03-0.32165-4.209 21.369-6.8395-0.16082-2.9814-20.886z" style="fill:#fbdea9;stroke-width:.58067"/><path d="m1230.7 487.85 7.7159 5.1439h2.0003l7.4302-4.2866 0.2857-12.574s-0.6925-8.4956-9.7162-8.5732c-7.0244-0.0624-8.0017 10.859-8.0017 10.859l0.2858 9.4305z" style="fill:url(#g-0);stroke-linecap:round;stroke-linejoin:round;stroke-width:.58067;stroke:#996508"/><path d="m1230.3 481.12s-3.8578-6.3584-2.8577-10.288 3.0721-6.2155 6.8585-5.4297c2.8894 0.59967 4.8581 4.0008 4.8581 4.0008l-4.8581 0.28578-4.0008 11.431z" style="fill:url(#q-2);stroke-width:.58067"/><path d="m1230.8 481.45s-3.8579-6.3584-2.8578-10.288 3.072-6.2156 6.8586-5.4297c2.8893 0.59965 4.858 4.0008 4.858 4.0008l-4.858 0.28576-4.0008 11.431z" style="fill:url(#p-2);stroke-width:.58067"/><path transform="matrix(.88342 0 0 .88454 -41.816 -51.29)" d="m1440.6 587.36s0.4183-0.0954 0.8289 0.5129c5.0149 7.4281 16.042 7.1915 18.437 12.378 0.4132 0.89471 0.971 0.66079 0.971 0.66079s2.7863-5.1439 0.8573-10.002-3.7718-6.569-8.0017-8.2874c-4.5724-1.8575-5.7869-0.5001-9.1447 0.57155s-3.948 4.1665-3.948 4.1665z" style="fill:url(#d-8);filter:url(#f-8);stroke-width:.58067"/><path d="m1229.9 466.97s0.4183-0.0953 0.8289 0.5129c5.0148 7.4281 16.042 7.1915 18.437 12.378 0.4132 0.89471 0.971 0.66079 0.971 0.66079s2.7864-5.1439 0.8574-10.002-3.7719-6.569-8.0018-8.2874c-4.5724-1.8575-5.7869-0.5001-9.1447 0.57155s-3.9479 4.1665-3.9479 4.1665z" style="fill:url(#o-2);stroke-width:.58067"/><path d="m1231 467.29s0.3653-0.0954 0.7239 0.51289c10.185 7.6649 27.844 3.0488 10.71-5.251-5.1654-1.751-3.6683-0.50009-7.9862 0.57155-3.0302 0.75206-3.4478 4.1666-3.4478 4.1666z" style="fill:url(#n-8);stroke-width:.58067"/><path d="m1234.2 473.18c3.8015 2.4988 7.6031 4.1457 11.948 4.9408v9.0297c-4.7669 2.8963-8.6289 2.726-13.215 0.51113l-0.9051-8.689 2.1724-5.7926z" style="fill:url(#m-9);opacity:.54925;stroke-width:.58067"/><path d="m1234.3 473.99c3.8015 1.9095 7.603 3.168 11.948 3.7755v6.9001c-4.767 2.2132-8.6288 2.0831-13.215 0.39058l-0.9053-6.6397 2.1726-4.4265z" style="fill:url(#l-7);stroke-width:.58067"/><path d="m1245.7 492.67-12.994 17.964 26.98 0.4878s-0.464-10.982-3.1326-14.509c-3.7448-3.1958-10.853-3.943-10.853-3.943z" style="stroke-linecap:round;stroke-linejoin:round;stroke-width:.58067;stroke:#000"/><path d="m1233.9 493.3 9.2116 17.249-23.197 0.0443s0.8779-11.396 3.5465-14.923c3.7446-3.1958 10.439-2.3701 10.439-2.3701z" style="stroke-linecap:round;stroke-linejoin:round;stroke-width:.58067;stroke:#000"/><path d="m1233.6 493.07 5.155 12.423-18.882-0.58536s0.4515-4.982 3.0474-8.5089c3.6426-3.1958 10.68-3.3292 10.68-3.3292z" style="fill:url(#k-9);stroke-width:.58067"/><path d="m1245.9 492.84-7.3358 11.964 21.321 0.4878s-0.464-4.982-3.1326-8.5089c-3.7448-3.1958-10.853-3.943-10.853-3.943z" style="fill:url(#j-9);stroke-width:.58067"/></g></g></svg>
