<?xml version="1.0" encoding="UTF-8"?>
<svg width="99.926mm" height="113.63mm" version="1.1" viewBox="0 0 99.926 113.63" xmlns="http://www.w3.org/2000/svg" xmlns:xlink="http://www.w3.org/1999/xlink"><g transform="translate(-72.862 -66.508)"><g transform="matrix(.1288 0 0 .14662 71.317 27.663)" style="stroke-width:1.9253"><g transform="matrix(2.0355,0,0,-1.8276,-1027.9,1457.9)" style="stroke-width:1.9253;stroke:#000"><g transform="matrix(-.99947 -.032588 .032588 -.99947 751.96 513.45)" style="fill:#00a65d;stroke-width:3.9928"><path d="m0.040851 1.2529c-5.731 0.323-12.274-5.776-17.804-7.154l2.707 47.929-45.74 2.584c1.811-5.293 7.144-11.372 6.841-16.738-0.587-10.37-9.466-18.302-19.835-17.716-10.368 0.586-18.299 9.466-17.713 19.835 0.309 5.459 6.454 10.598 8.875 15.852l-51.071 2.884-2.702-47.849-1.201-21.26-2.762-48.942 49.092-3.7176c-1.883-5.714-8.8658-10.314-9.1998-16.224-0.586-10.368 7.344-19.249 17.714-19.834 10.368-0.586 19.247 7.346 19.833 17.713 0.33 5.835-6.0299 11.255-7.2589 16.845l48.573-2.8967 2.6573 50.44c5.611-2.021 10.929-10.613 17.069-10.559 9.9724-0.73085 19.054 8.6046 19.641 18.975 0.585 10.367-7.346 19.248-17.715 19.834" style="fill:#00a65d;stroke-width:3.9928;stroke:#000"/></g><g transform="matrix(-.99872 .050503 .050503 .99872 847.23 486.82)" style="fill:#ca0e21;stroke-width:3.9928"><path d="m0 0c-0.16-5.739 6.125-12.104 7.658-17.593l-47.988 1.342-1.279-45.795-0.612-21.858-1.429-51.133 47.905-1.34c-1.644 5.437-7.741 11.701-7.58 17.36 0.29 10.382 8.94 18.562 19.32 18.271 10.382-0.291 18.563-8.942 18.271-19.322-0.161-5.743-6.763-11.315-8.725-16.904l49.002-1.369 1.379 49.338c5.766-1.719 11.502-8.728 17.418-8.893 10.381-0.292 19.031 7.888 19.322 18.27 0.291 10.379-7.891 19.031-18.269 19.321-5.842 0.163-12.333-6.342-17.885-7.73l1.356 48.479-46.565 1.5584c1.861 5.667 8.0428 11.658 8.2038 17.478 0.449 10.362-10.048 19.756-20.181 18.78-10.379 0.29-19.031-7.89-19.322-18.272" style="fill:#ca0e21;stroke-width:3.9928;stroke:#000"/></g><g transform="matrix(-.98583 0 0 -1 632.06 396.18)" style="stroke-width:4.0215"><path d="m0 0c-5.74 0.136-12.078-6.175-17.56-7.732l1.136 47.994-45.801 1.081c1.983-5.229 7.512-11.131 7.386-16.503-0.247-10.385-8.861-18.604-19.243-18.357-10.383 0.246-18.6 8.861-18.354 19.244 0.13 5.466 6.104 10.803 8.351 16.133l-51.139 1.21-1.133-47.911c5.429 1.667 11.668 7.792 17.328 7.654 10.383-0.244 18.599-8.86 18.353-19.24-0.246-10.383-8.862-18.601-19.244-18.353-5.742 0.134-11.343 6.714-16.939 8.65l-1.0466-49.783 49.343-1.166c-1.693-5.773-8.79-10.763-8.929-16.681-0.247-10.382 7.971-18.997 18.353-19.243 10.38-0.246 18.997 7.973 19.243 18.353 0.137 5.842-6.396 11.308-7.808 16.854l48.485-0.14979 1.16 49.09c5.676-1.836 11.351-8.604 17.171-8.74 10.383-0.248 18.997 7.97 19.244 18.355 0.245 10.379-7.972 18.995-18.355 19.241" style="fill:#83187a;stroke-width:4.0215;stroke:#000"/></g><g transform="rotate(188.91 277.9 238.27)" style="fill:#f34871;stroke-width:3.9928"><path d="m-7.7878-21.012 2.713 47.929-45.739 2.59c1.81-5.292 6.2037-11.332 5.8997-16.699-0.588-10.369-8.5297-18.34-18.898-17.753-10.369 0.587-18.298 9.468-17.711 19.837 0.31 5.46 6.456 10.598 8.877 15.851l-51.07 2.891-2.709-47.849c5.48 1.489 11.918 7.403 17.568 7.083 10.369-0.587 18.299-9.468 17.711-19.836-0.587-10.37-9.468-18.298-19.837-17.711-5.734 0.324-11.114 7.084-16.646 9.206l-2.771-48.943 49.28-2.79c-1.883-5.713-9.055-11.247-9.389-17.157-0.587-10.368 7.341-19.25 17.711-19.837 10.367-0.587 19.249 7.343 19.836 17.711 0.33 5.834-5.988 12.508-7.215 18.098l48.42-2.741 4.1088 72.458" style="fill:#f34871;stroke-width:3.9928;stroke:#000"/></g><g transform="matrix(1.0227,0,0,1,687.93,370.52)" style="fill:#8fcc38;stroke-width:3.9483"><path d="m-1.4797 1.3811c-0.146-5.741 6.9201-11.697 8.4681-17.182l-47.993 1.219-0.77695-46.818c5.232 1.973 10.761 7.4137 16.133 7.2787 10.384-0.266 18.589-7.7961 18.324-18.178-0.264-10.382-8.893-18.583-19.275-18.322-5.467 0.141-10.794 6.123-16.119 8.379l-1.298-51.136 47.908-1.215 70.294-1.781-0.91583 48.01c5.771-1.704 13.691-7.3684 19.609-7.5194 10.381-0.263 19.011 7.939 19.274 18.321 0.265 10.38-7.94 19.012-18.319 19.273-5.843 0.149-12.317-6.375-17.865-7.776l0.08086 48.171-47.939 1.5584c1.846 5.671 8.623 11.335 8.77 17.155 0.265 10.383-7.938 19.011-18.323 19.275-10.376 0.263-19.773-8.8018-20.037-19.183" style="fill:#00adef;stroke-width:3.9483;stroke:#000"/></g><g transform="matrix(.9953 -.064636 .064467 .99791 568.8 374.85)" style="fill:#1c3d9e;stroke-width:3.9982"><path d="m0 0c0.275-5.736 7.023-11.605 8.969-16.963l-47.953-2.3 2.197-45.76 1.049-21.842 2.45-51.095 47.87 2.297 21.27 1.021 48.964 2.351-2.365 49.3c5.879-1.277 12.13-7.831 18.043-7.548 10.372 0.498 18.378 9.31 17.881 19.684-0.499 10.371-9.312 18.378-19.683 17.879-5.837-0.28-11.86-6.5956-17.29-8.4006l-2.281 47.782-49.047-2.353c1.426 5.792 7.77 11.936 7.489 17.752-0.496 10.374-9.308 18.378-19.684 17.882-10.37-0.498-18.377-9.312-17.879-19.684" style="fill:#1c3d9e;stroke-width:3.9982;stroke:#000"/></g><g transform="matrix(-.99801 .063022 -.063022 -.99801 512.14 397.92)" style="fill:#fee800;stroke-width:3.9928"><path d="m-19.22-9.0568-4.0873 47.832-46.352-4.6397c1.3928-4.6525 8.0934-9.973 8.5512-15.329 0.88322-10.35-5.497-18.992-15.845-19.875-10.348-0.88414-19.452 6.7871-20.336 17.135-0.46516 5.4486 4.893 11.403 6.5478 16.947l-51.242-4.383 4.3559-47.723c5.2151 2.2468 10.752 9.0124 16.392 9.4926 10.348 0.88514 18.829-6.8484 19.712-17.195 0.88418-10.349-6.1633-19.392-16.511-20.275-5.7239-0.48928-12.006 5.4423-17.781 6.7603l4.1744-48.842 49.179 4.2017c-1.0565-5.9227-7.3746-12.415-6.8709-18.312 0.88411-10.347 9.9886-18.019 20.337-17.135 10.347 0.88411 18.018 9.9896 17.134 20.335-0.49695 5.8237-7.6944 11.538-9.7004 16.899l48.322 4.1272-6.3444 73.875" style="fill:#8fcc38;stroke-width:3.9928;stroke:#000"/></g><g transform="matrix(-.99999 -.0034108 -.0034108 .99999 898.83 270.1)" style="stroke-width:3.9928"><path d="m17.092 8.72 1.597-47.982 45.788 1.528 21.855 0.727 51.125 1.703-1.596 47.898c-39.991-19.81-47.057 35.718-0.71 21.282l-1.632 48.994-49.33-1.644c1.364 5.861 8.008 12.014 7.813 17.931-0.347 10.379-9.041 18.512-19.42 18.166-10.378-0.344-18.514-9.04-18.166-19.417 0.193-5.842 7.086-11.922 8.81-17.379l-48.471-1.614 2.612-75.664" style="fill:#ffb323;stroke-width:3.9928;stroke:#000"/></g><g transform="matrix(-.99995 -.010064 .010064 -.99995 635.66 544.97)" style="fill:#00adef;stroke-width:3.9928"><path d="m0 0c-5.572 1.386-13.626-3.0473-19.314-3.3703l11.288 46.77-44.849 10.353c-0.1134-6.0081 3.8462-12.143 2.5482-17.36-3.027-9.24-10.55-16.278-20.553-13.89-10.079 2.507-16.216 12.709-13.708 22.787 1.32 5.307 9.074 10.512 12.431 15.223l-49.641 12.348-12.32-47.81c5.661 0.441 13.087 5.054 18.579 3.687 10.079-2.507 16.217-12.709 13.71-22.786-2.507-10.078-12.709-16.216-22.787-13.709-5.574 1.387-9.603 9.029-14.642 12.144l-11.832-47.572 47.899-11.914c-2.914-5.262-10.991-9.365-12.419-15.109-2.507-10.078 3.63-20.28 13.71-22.787 10.076-2.507 20.278 3.632 22.785 13.709 1.41 5.671-3.555 13.404-3.721 19.125l47.065-11.707 11.851 47.65c5.137-3.029 9.197-10.873 14.848-12.278 10.071-2.508 20.272 3.63 22.78 13.709 2.506 10.077-3.631 20.28-13.709 22.787" style="fill:#00adef;stroke-width:3.9928;stroke:#000"/></g></g></g></g></svg>
