<?xml version="1.0" encoding="UTF-8"?>
<svg width="100mm" height="114mm" version="1.1" viewBox="0 0 100 114" xmlns="http://www.w3.org/2000/svg" xmlns:xlink="http://www.w3.org/1999/xlink"><defs><linearGradient id="a-9"><stop stop-color="#02e2ff" offset="0"/><stop stop-color="#0079a8" offset="1"/></linearGradient><linearGradient id="e-4" x1="49.923" x2="68.123" y1="24.827" y2="47.345" gradientTransform="scale(.76297 1.3107)" gradientUnits="userSpaceOnUse" xlink:href="#a-9"/><radialGradient id="d-9" cx="47.959" cy="9.7356" r="11.971" gradientTransform="scale(.99987 1.0001)" gradientUnits="userSpaceOnUse" xlink:href="#a-9"/><radialGradient id="c-9" cx="68.094" cy="32.824" r="4.8278" gradientTransform="scale(1.1978 .83485)" gradientUnits="userSpaceOnUse" xlink:href="#a-9"/><radialGradient id="b-6" cx="55.005" cy="115.78" r="5.6588" gradientTransform="scale(1.291 .7746)" gradientUnits="userSpaceOnUse" xlink:href="#a-9"/><radialGradient id="radialGradient3170" cx="12.899" cy="33.217" r="4.8278" gradientTransform="scale(1.1978 .83485)" gradientUnits="userSpaceOnUse" xlink:href="#a-9"/><radialGradient id="radialGradient3172" cx="24.405" cy="117.62" r="5.6588" gradientTransform="scale(1.291 .7746)" gradientUnits="userSpaceOnUse" xlink:href="#a-9"/></defs><g transform="translate(227.76 36.752)"><g transform="matrix(.14293 0 0 .16445 -313.82 59.876)" style="stroke-width:1.7258"><g transform="matrix(9.098 0 0 7.456 481.67 -623.21)" style="stroke-width:.36161"><path d="m64.71 16.75c0 6.6088-5.3621 11.972-11.969 11.972s-11.969-5.3636-11.969-11.972 5.3621-11.972 11.969-11.972 11.969 5.3636 11.969 11.972z" style="fill-rule:evenodd;fill:url(#d-9);stroke-width:.36161"/><path d="m21.639 28.528c0.87285 2.4279 3.3679 6.37 6.02 11.497 6.157-1.6765 23.811-8.7654 23.869-8.813 0.04189-0.02383 17.462 8.7081 20.179 10.843 2.3766-1.5434 9.574-13.536 9.9309-13.296" style="fill:none;stroke-width:.52384;stroke:#00007f"/><path d="m39.785 93.75c1.9509-4.9978 8.883-20.878 13.836-27.016 8.1411 6.3758 13.631 17.797 16.708 24.921" style="fill:none;stroke-width:.52384;stroke:#00007f"/><path d="m64.473 51.138c0 11.191-1.988 20.274-11.803 20.274-8.7997-0.21568-11.803-9.0826-11.803-20.274s1.7342-20.058 11.803-20.274c9.815-0.21568 11.803 9.0826 11.803 20.274z" style="fill-rule:evenodd;fill:url(#e-4);stroke-width:.36161"/><path d="m16.065 26.806c2.6205-1.0738 5.8936-0.50422 7.306 1.2713s0.43198 4.0879-2.1885 5.1617-5.8936 0.50422-7.306-1.2713-0.43197-4.0879 2.1885-5.1617z" style="fill-rule:evenodd;fill:url(#radialGradient3170);stroke-width:.36161"/><path d="m41.38 94.003c0 2.07-2.8 3.75-6.25 3.75s-6.25-1.68-6.25-3.75 2.8-3.75 6.25-3.75 6.25 1.68 6.25 3.75z" style="fill-rule:evenodd;fill:url(#radialGradient3172);stroke-width:.36161"/><path d="m80.885 92.578c0 2.07-2.8 3.75-6.25 3.75s-6.25-1.68-6.25-3.75 2.8-3.75 6.25-3.75 6.25 1.68 6.25 3.75z" style="fill-rule:evenodd;fill:url(#b-6);stroke-width:.36161"/><path d="m82.178 26.478c2.6205-1.0738 5.8936-0.50422 7.306 1.2713s0.43197 4.0879-2.1885 5.1617-5.8936 0.50422-7.306-1.2713-0.43197-4.0879 2.1885-5.1617z" style="fill-rule:evenodd;fill:url(#c-9);stroke-width:.36161"/></g></g></g></svg>
