<?xml version="1.0" encoding="UTF-8"?>
<svg width="100mm" height="114mm" version="1.1" viewBox="0 0 100 114" xmlns="http://www.w3.org/2000/svg"><g transform="translate(-34.708 -13.941)"><g transform="matrix(.69758 0 0 .72908 -19.45 -77.866)" style="stroke-width:.371"><path transform="matrix(.30286 -.00025797 .00030105 .26539 -11.072 93.141)" d="m371.43 209.51-29.631-12.882-27.41 17.107 3.0945-32.162-24.74-20.782 31.544-6.9955 12.12-29.951 16.401 27.838 32.23 2.2715-21.408 24.201 7.7994 31.355z" style="fill:#6c5353;stroke-width:.371"/><path transform="matrix(.30286 -.00025797 .00030105 .26539 17.431 93.141)" d="m371.43 209.51-29.631-12.882-27.41 17.107 3.0945-32.162-24.74-20.782 31.544-6.9955 12.12-29.951 16.401 27.838 32.23 2.2715-21.408 24.201 7.7994 31.355z" style="fill:#6c5353;stroke-width:.371"/><path transform="matrix(.25951 -.00024021 .00023216 .2224 32.167 100.09)" d="m371.43 209.51-29.631-12.882-27.41 17.107 3.0945-32.162-24.74-20.782 31.544-6.9955 12.12-29.951 16.401 27.838 32.23 2.2715-21.408 24.201 7.7994 31.355z" style="fill:#ffcf00;stroke-width:.371"/><path d="m108.17 135.79 6.5441 4.7459-0.28612 1.9131c9.8248-4.761 12.703-8.5001 12.513-8.5449l-3.1308-0.18955-4.3974-6.126-3.1331 6.6978-8.1095 1.5036z" style="fill-opacity:.60793;fill:#fff;stroke-width:.371"/><path transform="matrix(.30286 -.00025797 .00030105 .26539 45.934 93.141)" d="m371.43 209.51-29.631-12.882-27.41 17.107 3.0945-32.162-24.74-20.782 31.544-6.9955 12.12-29.951 16.401 27.838 32.23 2.2715-21.408 24.201 7.7994 31.355z" style="fill:#6c5353;stroke-width:.371"/><path transform="matrix(.25951 -.00024021 .00023216 .2224 60.67 100.09)" d="m371.43 209.51-29.631-12.882-27.41 17.107 3.0945-32.162-24.74-20.782 31.544-6.9955 12.12-29.951 16.401 27.838 32.23 2.2715-21.408 24.201 7.7994 31.355z" style="fill:#ffcf00;stroke-width:.371"/><path d="m136.68 135.79 6.5441 4.7459-0.28612 1.9131c9.8248-4.761 12.703-8.5001 12.513-8.5449l-3.1308-0.18955-4.3974-6.126-3.1331 6.6978-8.1095 1.5036z" style="fill-opacity:.60793;fill:#fff;stroke-width:.371"/><path transform="matrix(.30286 -.00025797 .00030105 .26539 75.133 93.141)" d="m371.43 209.51-29.631-12.882-27.41 17.107 3.0945-32.162-24.74-20.782 31.544-6.9955 12.12-29.951 16.401 27.838 32.23 2.2715-21.408 24.201 7.7994 31.355z" style="fill:#6c5353;stroke-width:.371"/><path transform="matrix(.25951 -.00024021 .00023216 .2224 89.869 100.09)" d="m371.43 209.51-29.631-12.882-27.41 17.107 3.0945-32.162-24.74-20.782 31.544-6.9955 12.12-29.951 16.401 27.838 32.23 2.2715-21.408 24.201 7.7994 31.355z" style="fill:#ffcf00;stroke-width:.371"/><path d="m165.88 135.79 6.5441 4.7459-0.28614 1.9131c9.8248-4.761 12.703-8.5001 12.513-8.5449l-3.1308-0.18955-4.3974-6.126-3.1331 6.6978-8.1095 1.5036z" style="fill-opacity:.60793;fill:#fff;stroke-width:.371"/><path transform="matrix(.30286 -.00025797 .00030105 .26539 104.33 93.141)" d="m371.43 209.51-29.631-12.882-27.41 17.107 3.0945-32.162-24.74-20.782 31.544-6.9955 12.12-29.951 16.401 27.838 32.23 2.2715-21.408 24.201 7.7994 31.355z" style="fill:#6c5353;stroke-width:.371"/><path transform="matrix(.25951 -.00024021 .00023216 .2224 119.07 100.09)" d="m371.43 209.51-29.631-12.882-27.41 17.107 3.0945-32.162-24.74-20.782 31.544-6.9955 12.12-29.951 16.401 27.838 32.23 2.2715-21.408 24.201 7.7994 31.355z" style="fill:#ffcf00;stroke-width:.371"/><path d="m195.08 135.79 6.5441 4.7459-0.28609 1.9131c9.8248-4.761 12.703-8.5001 12.513-8.5449l-3.1308-0.18955-4.3974-6.126-3.1331 6.6978-8.1095 1.5036z" style="fill-opacity:.60793;fill:#fff;stroke-width:.371"/><path transform="matrix(.30286 -.00025797 .00030105 .26539 -11.072 126.93)" d="m371.43 209.51-29.631-12.882-27.41 17.107 3.0945-32.162-24.74-20.782 31.544-6.9955 12.12-29.951 16.401 27.838 32.23 2.2715-21.408 24.201 7.7994 31.355z" style="fill:#6c5353;stroke-width:.371"/><path transform="matrix(.30286 -.00025797 .00030105 .26539 17.431 126.93)" d="m371.43 209.51-29.631-12.882-27.41 17.107 3.0945-32.162-24.74-20.782 31.544-6.9955 12.12-29.951 16.401 27.838 32.23 2.2715-21.408 24.201 7.7994 31.355z" style="fill:#6c5353;stroke-width:.371"/><path transform="matrix(.25951 -.00024021 .00023216 .2224 32.167 133.89)" d="m371.43 209.51-29.631-12.882-27.41 17.107 3.0945-32.162-24.74-20.782 31.544-6.9955 12.12-29.951 16.401 27.838 32.23 2.2715-21.408 24.201 7.7994 31.355z" style="fill:#ffcf00;stroke-width:.371"/><path d="m108.17 169.58 6.5441 4.7459-0.28612 1.913c9.8248-4.761 12.703-8.5001 12.513-8.5448l-3.1308-0.18958-4.3974-6.126-3.1331 6.6978-8.1095 1.5036v-2e-5z" style="fill-opacity:.60793;fill:#fff;stroke-width:.371"/><path transform="matrix(.30286 -.00025797 .00030105 .26539 45.934 126.93)" d="m371.43 209.51-29.631-12.882-27.41 17.107 3.0945-32.162-24.74-20.782 31.544-6.9955 12.12-29.951 16.401 27.838 32.23 2.2715-21.408 24.201 7.7994 31.355z" style="fill:#6c5353;stroke-width:.371"/><path transform="matrix(.25951 -.00024021 .00023216 .2224 60.67 133.89)" d="m371.43 209.51-29.631-12.882-27.41 17.107 3.0945-32.162-24.74-20.782 31.544-6.9955 12.12-29.951 16.401 27.838 32.23 2.2715-21.408 24.201 7.7994 31.355z" style="fill:#ffcf00;stroke-width:.371"/><path d="m136.68 169.58 6.5441 4.7459-0.28612 1.913c9.8248-4.761 12.703-8.5001 12.513-8.5448l-3.1308-0.18958-4.3974-6.126-3.1331 6.6978-8.1095 1.5036v-2e-5z" style="fill-opacity:.60793;fill:#fff;stroke-width:.371"/><path transform="matrix(.30286 -.00025797 .00030105 .26539 75.133 126.93)" d="m371.43 209.51-29.631-12.882-27.41 17.107 3.0945-32.162-24.74-20.782 31.544-6.9955 12.12-29.951 16.401 27.838 32.23 2.2715-21.408 24.201 7.7994 31.355z" style="fill:#6c5353;stroke-width:.371"/><path transform="matrix(.25951 -.00024021 .00023216 .2224 89.869 133.89)" d="m371.43 209.51-29.631-12.882-27.41 17.107 3.0945-32.162-24.74-20.782 31.544-6.9955 12.12-29.951 16.401 27.838 32.23 2.2715-21.408 24.201 7.7994 31.355z" style="fill:#ffcf00;stroke-width:.371"/><path d="m165.88 169.58 6.5441 4.7459-0.28616 1.913c9.8248-4.761 12.703-8.5001 12.513-8.5448l-3.1308-0.18958-4.3974-6.126-3.1331 6.6978-8.1095 1.5036v-2e-5z" style="fill-opacity:.60793;fill:#fff;stroke-width:.371"/><path transform="matrix(.30286 -.00025797 .00030105 .26539 104.33 126.93)" d="m371.43 209.51-29.631-12.882-27.41 17.107 3.0945-32.162-24.74-20.782 31.544-6.9955 12.12-29.951 16.401 27.838 32.23 2.2715-21.408 24.201 7.7994 31.355z" style="fill:#6c5353;stroke-width:.371"/><path transform="matrix(.25951 -.00024021 .00023216 .2224 3.6637 133.89)" d="m371.43 209.51-29.631-12.882-27.41 17.107 3.0945-32.162-24.74-20.782 31.544-6.9955 12.12-29.951 16.401 27.838 32.23 2.2715-21.408 24.201 7.7994 31.355z" style="fill:#ffcf00;stroke-width:.371"/><path d="m79.672 169.58 6.5441 4.7459-0.28613 1.913c9.8248-4.761 12.703-8.5001 12.513-8.5448l-3.1308-0.18958-4.3974-6.126-3.1331 6.6978-8.1095 1.5036v-2e-5z" style="fill-opacity:.60793;fill:#fff;stroke-width:.371"/><path transform="matrix(.30286 -.00025797 .00030105 .26539 -11.072 160.73)" d="m371.43 209.51-29.631-12.882-27.41 17.107 3.0945-32.162-24.74-20.782 31.544-6.9955 12.12-29.951 16.401 27.838 32.23 2.2715-21.408 24.201 7.7994 31.355z" style="fill:#6c5353;stroke-width:.371"/><path transform="matrix(.30286 -.00025797 .00030105 .26539 17.431 160.73)" d="m371.43 209.51-29.631-12.882-27.41 17.107 3.0945-32.162-24.74-20.782 31.544-6.9955 12.12-29.951 16.401 27.838 32.23 2.2715-21.408 24.201 7.7994 31.355z" style="fill:#6c5353;stroke-width:.371"/><path transform="matrix(.25951 -.00024021 .00023216 .2224 32.167 167.68)" d="m371.43 209.51-29.631-12.882-27.41 17.107 3.0945-32.162-24.74-20.782 31.544-6.9955 12.12-29.951 16.401 27.838 32.23 2.2715-21.408 24.201 7.7994 31.355z" style="fill:#ffcf00;stroke-width:.371"/><path d="m108.17 203.37 6.5441 4.746-0.28612 1.913c9.8248-4.761 12.703-8.5001 12.513-8.5449l-3.1308-0.18956-4.3974-6.126-3.1331 6.6978-8.1095 1.5036z" style="fill-opacity:.60793;fill:#fff;stroke-width:.371"/><path transform="matrix(.30286 -.00025797 .00030105 .26539 45.934 160.73)" d="m371.43 209.51-29.631-12.882-27.41 17.107 3.0945-32.162-24.74-20.782 31.544-6.9955 12.12-29.951 16.401 27.838 32.23 2.2715-21.408 24.201 7.7994 31.355z" style="fill:#6c5353;stroke-width:.371"/><path transform="matrix(.25951 -.00024021 .00023216 .2224 60.67 167.68)" d="m371.43 209.51-29.631-12.882-27.41 17.107 3.0945-32.162-24.74-20.782 31.544-6.9955 12.12-29.951 16.401 27.838 32.23 2.2715-21.408 24.201 7.7994 31.355z" style="fill:#ffcf00;stroke-width:.371"/><path d="m136.68 203.37 6.5441 4.746-0.28612 1.913c9.8248-4.761 12.703-8.5001 12.513-8.5449l-3.1308-0.18956-4.3974-6.126-3.1331 6.6978-8.1095 1.5036z" style="fill-opacity:.60793;fill:#fff;stroke-width:.371"/><path transform="matrix(.30286 -.00025797 .00030105 .26539 75.133 160.73)" d="m371.43 209.51-29.631-12.882-27.41 17.107 3.0945-32.162-24.74-20.782 31.544-6.9955 12.12-29.951 16.401 27.838 32.23 2.2715-21.408 24.201 7.7994 31.355z" style="fill:#6c5353;stroke-width:.371"/><path transform="matrix(.30286 -.00025797 .00030105 .26539 104.33 160.73)" d="m371.43 209.51-29.631-12.882-27.41 17.107 3.0945-32.162-24.74-20.782 31.544-6.9955 12.12-29.951 16.401 27.838 32.23 2.2715-21.408 24.201 7.7994 31.355z" style="fill:#6c5353;stroke-width:.371"/><path transform="matrix(.25951 -.00024021 .00023216 .2224 3.6637 167.68)" d="m371.43 209.51-29.631-12.882-27.41 17.107 3.0945-32.162-24.74-20.782 31.544-6.9955 12.12-29.951 16.401 27.838 32.23 2.2715-21.408 24.201 7.7994 31.355z" style="fill:#ffcf00;stroke-width:.371"/><path d="m79.672 203.37 6.5441 4.746-0.28612 1.913c9.8248-4.761 12.703-8.5001 12.513-8.5449l-3.1308-0.18956-4.3974-6.126-3.1331 6.6978-8.1095 1.5036z" style="fill-opacity:.60793;fill:#fff;stroke-width:.371"/><path transform="matrix(.30286 -.00025797 .00030105 .26539 -11.072 192.74)" d="m371.43 209.51-29.631-12.882-27.41 17.107 3.0945-32.162-24.74-20.782 31.544-6.9955 12.12-29.951 16.401 27.838 32.23 2.2715-21.408 24.201 7.7994 31.355z" style="fill:#6c5353;stroke-width:.371"/><path transform="matrix(.30286 -.00025797 .00030105 .26539 17.431 192.74)" d="m371.43 209.51-29.631-12.882-27.41 17.107 3.0945-32.162-24.74-20.782 31.544-6.9955 12.12-29.951 16.401 27.838 32.23 2.2715-21.408 24.201 7.7994 31.355z" style="fill:#6c5353;stroke-width:.371"/><path transform="matrix(.25951 -.00024021 .00023216 .2224 32.167 199.69)" d="m371.43 209.51-29.631-12.882-27.41 17.107 3.0945-32.162-24.74-20.782 31.544-6.9955 12.12-29.951 16.401 27.838 32.23 2.2715-21.408 24.201 7.7994 31.355z" style="fill:#ffcf00;stroke-width:.371"/><path d="m108.17 235.39 6.5441 4.746-0.28612 1.913c9.8248-4.761 12.703-8.5001 12.513-8.5448l-3.1308-0.18955-4.3974-6.126-3.1331 6.6978-8.1095 1.5036v-3e-5z" style="fill-opacity:.60793;fill:#fff;stroke-width:.371"/><path transform="matrix(.30286 -.00025797 .00030105 .26539 45.934 192.74)" d="m371.43 209.51-29.631-12.882-27.41 17.107 3.0945-32.162-24.74-20.782 31.544-6.9955 12.12-29.951 16.401 27.838 32.23 2.2715-21.408 24.201 7.7994 31.355z" style="fill:#6c5353;stroke-width:.371"/><path transform="matrix(.30286 -.00025797 .00030105 .26539 75.133 192.74)" d="m371.43 209.51-29.631-12.882-27.41 17.107 3.0945-32.162-24.74-20.782 31.544-6.9955 12.12-29.951 16.401 27.838 32.23 2.2715-21.408 24.201 7.7994 31.355z" style="fill:#6c5353;stroke-width:.371"/><path transform="matrix(.30286 -.00025797 .00030105 .26539 104.33 192.74)" d="m371.43 209.51-29.631-12.882-27.41 17.107 3.0945-32.162-24.74-20.782 31.544-6.9955 12.12-29.951 16.401 27.838 32.23 2.2715-21.408 24.201 7.7994 31.355z" style="fill:#6c5353;stroke-width:.371"/><path transform="matrix(.25951 -.00024021 .00023216 .2224 3.6637 199.69)" d="m371.43 209.51-29.631-12.882-27.41 17.107 3.0945-32.162-24.74-20.782 31.544-6.9955 12.12-29.951 16.401 27.838 32.23 2.2715-21.408 24.201 7.7994 31.355z" style="fill:#ffcf00;stroke-width:.371"/><path d="m79.672 235.39 6.5441 4.746-0.28612 1.913c9.8248-4.761 12.703-8.5001 12.513-8.5448l-3.1308-0.18955-4.3974-6.126-3.1331 6.6978-8.1095 1.5036v-3e-5z" style="fill-opacity:.60793;fill:#fff;stroke-width:.371"/><path transform="matrix(.30286 -.00025797 .00030105 .26539 -11.072 225.64)" d="m371.43 209.51-29.631-12.882-27.41 17.107 3.0945-32.162-24.74-20.782 31.544-6.9955 12.12-29.951 16.401 27.838 32.23 2.2715-21.408 24.201 7.7994 31.355z" style="fill:#6c5353;stroke-width:.371"/><path transform="matrix(.30286 -.00025797 .00030105 .26539 17.431 225.64)" d="m371.43 209.51-29.631-12.882-27.41 17.107 3.0945-32.162-24.74-20.782 31.544-6.9955 12.12-29.951 16.401 27.838 32.23 2.2715-21.408 24.201 7.7994 31.355z" style="fill:#6c5353;stroke-width:.371"/><path transform="matrix(.30286 -.00025797 .00030105 .26539 45.934 225.64)" d="m371.43 209.51-29.631-12.882-27.41 17.107 3.0945-32.162-24.74-20.782 31.544-6.9955 12.12-29.951 16.401 27.838 32.23 2.2715-21.408 24.201 7.7994 31.355z" style="fill:#6c5353;stroke-width:.371"/><path transform="matrix(.30286 -.00025797 .00030105 .26539 75.133 225.64)" d="m371.43 209.51-29.631-12.882-27.41 17.107 3.0945-32.162-24.74-20.782 31.544-6.9955 12.12-29.951 16.401 27.838 32.23 2.2715-21.408 24.201 7.7994 31.355z" style="fill:#6c5353;stroke-width:.371"/><path transform="matrix(.30286 -.00025797 .00030105 .26539 104.33 225.64)" d="m371.43 209.51-29.631-12.882-27.41 17.107 3.0945-32.162-24.74-20.782 31.544-6.9955 12.12-29.951 16.401 27.838 32.23 2.2715-21.408 24.201 7.7994 31.355z" style="fill:#6c5353;stroke-width:.371"/><path transform="matrix(.25951 -.00024021 .00023216 .2224 3.6637 232.59)" d="m371.43 209.51-29.631-12.882-27.41 17.107 3.0945-32.162-24.74-20.782 31.544-6.9955 12.12-29.951 16.401 27.838 32.23 2.2715-21.408 24.201 7.7994 31.355z" style="fill:#ffcf00;stroke-width:.371"/><path d="m79.672 268.29 6.5441 4.7459-0.28613 1.913c9.8248-4.761 12.703-8.5001 12.513-8.5448l-3.1308-0.18959-4.3974-6.1259-3.1331 6.6978-8.1095 1.5036v-2e-5z" style="fill-opacity:.60793;fill:#fff;stroke-width:.371"/><path transform="matrix(.25951 -.00024021 .00023216 .2224 3.6637 100.09)" d="m371.43 209.51-29.631-12.882-27.41 17.107 3.0945-32.162-24.74-20.782 31.544-6.9955 12.12-29.951 16.401 27.838 32.23 2.2715-21.408 24.201 7.7994 31.355z" style="fill:#ffcf00;stroke-width:.371"/><path d="m79.672 135.79 6.5441 4.7459-0.28613 1.9131c9.8248-4.761 12.703-8.5001 12.513-8.5449l-3.1308-0.18955-4.3974-6.126-3.1331 6.6978-8.1095 1.5036z" style="fill-opacity:.60793;fill:#fff;stroke-width:.371"/></g></g></svg>
