<?xml version="1.0" encoding="UTF-8"?>
<svg width="158.62mm" height="168.72mm" version="1.1" viewBox="0 0 158.62 168.72" xmlns="http://www.w3.org/2000/svg"><defs><clipPath id="clipPath843"><path d="m428.86 467.18 221.9-126.74-0.354 272.26-256.72 105.07z"/></clipPath><clipPath id="clipPath939"><path d="m650.41 612.69 0.354-272.26 165.36 158.17 24.829 247z"/></clipPath><clipPath id="clipPath1035"><path d="m393.69 717.76 256.72-105.07 190.54 132.9-240.74 71.391z"/></clipPath></defs><g transform="translate(171.91 -64.474)"><g transform="matrix(.35278 0 0 -.35278 -310.36 352.88)"><g transform="translate(650.41 612.69)"><path d="m0 0 0.354-272.26-221.9 126.74-35.173 250.58z" style="fill:#575756"/></g><g transform="translate(650.41 612.69)"><path d="m0 0 0.354-272.26-221.9 126.74-35.173 250.58z" style="fill:none;stroke-miterlimit:10;stroke:#414042"/></g><g transform="translate(650.41 612.69)"><path d="m0 0 0.354-272.26-221.9 126.74-35.173 250.58z" style="fill:#575756"/></g><g clip-path="url(#clipPath843)"><g transform="translate(639.72 606.97)"><path d="m0 0-75.184 31.224c-0.493 0.205-0.958 0.286-1.376 0.256s-0.788-0.168-1.094-0.404c-0.304-0.234-0.544-0.564-0.7-0.976-0.157-0.411-0.229-0.903-0.2-1.462l4.033-77.702c0.027-0.513 0.148-1.045 0.345-1.57 0.196-0.524 0.468-1.041 0.795-1.52 0.326-0.481 0.709-0.924 1.127-1.302 0.418-0.379 0.873-0.692 1.343-0.913l71.567-33.474c0.516-0.241 1.008-0.365 1.454-0.383 0.447-0.017 0.849 0.072 1.187 0.257 0.338 0.186 0.611 0.467 0.798 0.833 0.188 0.366 0.291 0.819 0.288 1.345l-0.416 79.95c-3e-3 0.577-0.116 1.174-0.319 1.759-0.202 0.585-0.494 1.158-0.853 1.688s-0.787 1.015-1.26 1.425c-0.473 0.409-0.992 0.743-1.535 0.969" style="fill:#009640;stroke-miterlimit:10;stroke:#414042"/></g><g transform="translate(639.71 607.91)"><path d="m0 0-75.222 31.198c-0.605 0.251-1.174 0.351-1.685 0.315s-0.963-0.206-1.336-0.493c-0.372-0.288-0.664-0.692-0.854-1.195-0.189-0.503-0.277-1.105-0.241-1.79l4.066-77.681c0.033-0.625 0.181-1.275 0.42-1.917 0.24-0.64 0.571-1.271 0.97-1.858s0.865-1.13 1.377-1.593c0.511-0.464 1.067-0.847 1.643-1.118l71.532-33.493c0.63-0.295 1.23-0.446 1.775-0.467 0.547-0.021 1.038 0.089 1.451 0.316 0.414 0.226 0.748 0.571 0.978 1.018 0.23 0.449 0.355 1.001 0.353 1.644l-0.376 79.973c-3e-3 0.707-0.142 1.438-0.39 2.154-0.247 0.716-0.604 1.418-1.044 2.065-0.439 0.647-0.961 1.24-1.54 1.74s-1.213 0.907-1.877 1.182m-70.903-55.303c-0.471 0.221-0.926 0.534-1.344 0.913-0.418 0.378-0.8 0.822-1.127 1.302s-0.599 0.996-0.795 1.521c-0.196 0.524-0.318 1.056-0.345 1.569l-4.033 77.702c-0.029 0.56 0.044 1.052 0.2 1.462 0.156 0.412 0.396 0.742 0.701 0.977s0.675 0.374 1.093 0.404c0.418 0.029 0.883-0.052 1.376-0.257l75.184-31.224c0.544-0.225 1.063-0.559 1.535-0.968 0.474-0.411 0.901-0.896 1.26-1.425 0.36-0.53 0.651-1.104 0.854-1.689 0.202-0.585 0.316-1.181 0.319-1.758l0.416-79.951c3e-3 -0.526-0.1-0.978-0.288-1.344-0.188-0.367-0.461-0.648-0.798-0.833-0.338-0.186-0.741-0.275-1.187-0.257-0.447 0.017-0.938 0.141-1.454 0.383l-71.567 33.473" style="fill:#575756;stroke-miterlimit:10;stroke:#414042"/></g><g transform="translate(548.74 644.76)"><path d="m0 0-67.379 27.982c-0.445 0.186-0.858 0.25-1.224 0.21-0.366-0.041-0.685-0.186-0.941-0.422-0.256-0.237-0.451-0.564-0.568-0.966-0.117-0.403-0.157-0.881-0.104-1.422l7.294-75.281c0.048-0.498 0.18-1.012 0.379-1.516 0.197-0.504 0.46-0.997 0.771-1.453s0.669-0.875 1.056-1.23c0.386-0.354 0.802-0.645 1.229-0.844l64.478-30.159c0.465-0.216 0.901-0.321 1.293-0.323 0.392-1e-3 0.739 0.099 1.025 0.29 0.286 0.192 0.511 0.475 0.657 0.837s0.213 0.805 0.184 1.316l-4.393 77.457c-0.031 0.556-0.16 1.129-0.366 1.689-0.207 0.56-0.49 1.106-0.83 1.606-0.341 0.5-0.738 0.958-1.172 1.339-0.433 0.381-0.903 0.688-1.389 0.89" style="fill:#009fe3;stroke-miterlimit:10;stroke:#414042"/></g><g transform="translate(548.68 645.66)"><path d="m0 0-67.41 27.958c-0.543 0.226-1.048 0.305-1.495 0.256-0.447-0.05-0.836-0.228-1.15-0.517-0.313-0.288-0.549-0.687-0.693-1.18-0.142-0.493-0.19-1.079-0.126-1.74l7.32-75.26c0.06-0.608 0.221-1.236 0.463-1.852 0.242-0.615 0.564-1.219 0.944-1.776 0.379-0.559 0.816-1.072 1.289-1.505 0.472-0.435 0.98-0.79 1.501-1.034l64.45-30.178c0.566-0.265 1.099-0.392 1.578-0.393 0.479-2e-3 0.904 0.121 1.253 0.356 0.35 0.235 0.625 0.581 0.804 1.023 0.179 0.445 0.261 0.985 0.226 1.609l-4.36 77.479c-0.038 0.683-0.196 1.385-0.448 2.069-0.252 0.685-0.599 1.351-1.016 1.963-0.416 0.613-0.901 1.17-1.432 1.636-0.53 0.466-1.104 0.84-1.698 1.086m-59.434-55.845c-0.426 0.199-0.842 0.491-1.229 0.845s-0.745 0.773-1.056 1.229c-0.31 0.457-0.573 0.95-0.771 1.454s-0.33 1.017-0.379 1.515l-7.294 75.281c-0.052 0.542-0.012 1.02 0.104 1.422 0.118 0.403 0.312 0.73 0.568 0.966 0.257 0.237 0.575 0.382 0.941 0.423 0.366 0.04 0.779-0.024 1.224-0.21l67.379-27.982c0.486-0.202 0.956-0.509 1.389-0.89 0.434-0.382 0.831-0.839 1.172-1.34 0.34-0.5 0.623-1.046 0.83-1.605 0.206-0.56 0.335-1.133 0.367-1.69l4.392-77.457c0.029-0.511-0.038-0.953-0.184-1.315-0.146-0.363-0.371-0.646-0.657-0.837-0.285-0.192-0.633-0.291-1.025-0.29-0.392 2e-3 -0.828 0.106-1.293 0.323l-64.478 30.158" style="fill:#575756;stroke-miterlimit:10;stroke:#414042"/></g><g transform="translate(467.16 678.64)"><path d="m0 0-60.73 25.222c-0.402 0.167-0.77 0.218-1.092 0.169s-0.597-0.2-0.813-0.436c-0.216-0.235-0.373-0.558-0.457-0.952-0.085-0.394-0.099-0.858-0.028-1.381l9.92-72.955c0.066-0.483 0.207-0.98 0.406-1.465 0.198-0.484 0.454-0.956 0.75-1.39 0.296-0.435 0.633-0.833 0.992-1.166 0.359-0.334 0.741-0.603 1.129-0.785l58.393-27.311c0.419-0.196 0.808-0.283 1.154-0.273 0.345 0.011 0.647 0.12 0.89 0.316 0.242 0.195 0.427 0.477 0.538 0.835 0.111 0.357 0.149 0.79 0.098 1.286l-7.582 75.045c-0.055 0.539-0.195 1.09-0.403 1.626s-0.484 1.055-0.807 1.531c-0.323 0.475-0.694 0.905-1.094 1.263-0.4 0.356-0.827 0.639-1.264 0.821" style="fill:#ffed00;stroke-miterlimit:10;stroke:#414042"/></g><g transform="translate(467.07 679.51)"><path d="m0 0-60.754 25.198c-0.491 0.203-0.941 0.267-1.334 0.206-0.393-0.059-0.729-0.243-0.994-0.531-0.263-0.288-0.455-0.682-0.558-1.164-0.104-0.481-0.12-1.051-0.033-1.69l9.942-72.935c0.08-0.59 0.252-1.196 0.495-1.789 0.243-0.592 0.556-1.17 0.918-1.701 0.362-0.532 0.773-1.018 1.212-1.426s0.905-0.739 1.377-0.961l58.371-27.331c0.511-0.239 0.987-0.345 1.409-0.331s0.79 0.148 1.087 0.388c0.298 0.239 0.523 0.585 0.659 1.021 0.136 0.438 0.182 0.967 0.121 1.572l-7.556 75.067c-0.067 0.66-0.239 1.335-0.493 1.99-0.255 0.656-0.592 1.292-0.987 1.872-0.395 0.581-0.849 1.107-1.337 1.543s-1.011 0.781-1.545 1.002m-49.833-56.011c-0.388 0.182-0.77 0.451-1.129 0.785-0.359 0.333-0.696 0.731-0.992 1.165-0.296 0.435-0.552 0.907-0.751 1.391-0.198 0.484-0.339 0.982-0.405 1.465l-9.92 72.955c-0.071 0.522-0.057 0.987 0.028 1.381 0.084 0.394 0.241 0.717 0.457 0.952 0.216 0.236 0.491 0.387 0.813 0.436s0.69-2e-3 1.092-0.169l60.73-25.222c0.436-0.182 0.864-0.465 1.264-0.821 0.399-0.358 0.771-0.788 1.094-1.263 0.323-0.476 0.598-0.995 0.806-1.531s0.349-1.087 0.404-1.626l7.582-75.045c0.051-0.496 0.013-0.929-0.098-1.286-0.111-0.358-0.296-0.64-0.538-0.835-0.244-0.196-0.545-0.305-0.891-0.316-0.345-0.01-0.734 0.076-1.153 0.273l-58.393 27.311" style="fill:#575756;stroke-miterlimit:10;stroke:#414042"/></g><g transform="translate(640.44 509.91)"><path d="m0 0-71.186 33.688c-0.468 0.22-0.91 0.33-1.308 0.336-0.397 8e-3 -0.749-0.086-1.04-0.271s-0.52-0.46-0.669-0.815c-0.15-0.355-0.22-0.79-0.194-1.292l3.623-69.796c0.024-0.46 0.138-0.946 0.324-1.431 0.185-0.484 0.443-0.968 0.753-1.424 0.31-0.455 0.674-0.882 1.071-1.253 0.397-0.372 0.83-0.687 1.277-0.921l67.936-35.329c0.489-0.255 0.954-0.401 1.377-0.449s0.804 3e-3 1.124 0.144c0.32 0.142 0.578 0.374 0.756 0.688s0.276 0.71 0.273 1.18l-0.371 71.437c-3e-3 0.516-0.11 1.057-0.301 1.594s-0.466 1.07-0.806 1.569c-0.339 0.499-0.743 0.964-1.189 1.365-0.447 0.4-0.937 0.737-1.45 0.98" style="fill:#009640;stroke-miterlimit:10;stroke:#414042"/></g><g transform="translate(640.44 510.74)"><path d="m0 0-71.22 33.668c-0.574 0.271-1.115 0.405-1.601 0.413-0.486 9e-3 -0.916-0.107-1.271-0.334-0.354-0.226-0.633-0.563-0.815-0.998-0.182-0.434-0.267-0.964-0.235-1.578l3.653-69.779c0.03-0.564 0.169-1.158 0.395-1.75s0.54-1.182 0.919-1.738c0.378-0.555 0.821-1.076 1.307-1.529 0.486-0.454 1.014-0.84 1.563-1.125l67.904-35.344c0.596-0.31 1.165-0.491 1.681-0.55 0.517-0.059 0.983 1e-3 1.374 0.174 0.392 0.172 0.708 0.454 0.926 0.838s0.337 0.869 0.335 1.444l-0.335 71.455c-3e-3 0.629-0.134 1.292-0.368 1.948-0.233 0.657-0.57 1.308-0.985 1.919-0.415 0.61-0.909 1.179-1.455 1.669-0.546 0.489-1.145 0.9-1.772 1.197m-67.342-44.011c-0.448 0.234-0.88 0.549-1.278 0.921-0.397 0.371-0.76 0.798-1.07 1.253-0.311 0.456-0.568 0.94-0.754 1.424-0.185 0.485-0.3 0.971-0.324 1.431l-3.623 69.796c-0.026 0.502 0.045 0.937 0.194 1.291 0.15 0.356 0.379 0.631 0.669 0.816 0.291 0.184 0.644 0.279 1.041 0.271 0.397-6e-3 0.839-0.116 1.307-0.337l71.186-33.687c0.514-0.243 1.004-0.58 1.451-0.98 0.446-0.401 0.849-0.866 1.189-1.365 0.339-0.499 0.614-1.032 0.805-1.569s0.298-1.078 0.301-1.594l0.372-71.437c2e-3 -0.47-0.095-0.866-0.273-1.18-0.179-0.314-0.437-0.546-0.757-0.688-0.32-0.141-0.7-0.192-1.124-0.144-0.423 0.048-0.888 0.194-1.377 0.449l-67.935 35.329" style="fill:#575756;stroke-miterlimit:10;stroke:#414042"/></g><g transform="translate(554.25 550.7)"><path d="m0 0-64.171 30.368c-0.425 0.2-0.82 0.292-1.17 0.286s-0.657-0.109-0.903-0.299c-0.247-0.19-0.434-0.465-0.548-0.816-0.115-0.351-0.155-0.776-0.108-1.265l6.587-67.983c0.043-0.448 0.167-0.92 0.355-1.387 0.187-0.467 0.437-0.93 0.732-1.364 0.296-0.434 0.637-0.838 1.006-1.186 0.369-0.35 0.766-0.643 1.175-0.855l61.532-32c0.442-0.23 0.858-0.355 1.231-0.387 0.374-0.03 0.706 0.034 0.979 0.185 0.274 0.15 0.489 0.387 0.629 0.7 0.14 0.314 0.205 0.704 0.179 1.163l-3.948 69.614c-0.028 0.502-0.149 1.025-0.344 1.54-0.194 0.516-0.462 1.025-0.784 1.498-0.323 0.473-0.699 0.911-1.11 1.285-0.411 0.375-0.858 0.684-1.319 0.903" style="fill:#e30613;stroke-miterlimit:10;stroke:#414042"/></g><g transform="translate(554.21 551.51)"><path d="m0 0-64.198 30.349c-0.519 0.245-1.002 0.356-1.43 0.348s-0.802-0.135-1.103-0.367-0.53-0.569-0.669-0.998c-0.14-0.429-0.189-0.948-0.131-1.545l6.611-67.967c0.053-0.549 0.205-1.125 0.434-1.696 0.229-0.57 0.534-1.137 0.895-1.666 0.362-0.529 0.778-1.022 1.228-1.448 0.451-0.426 0.936-0.783 1.434-1.043l61.507-32.014c0.539-0.281 1.047-0.435 1.504-0.474 0.457-0.038 0.862 0.04 1.196 0.223 0.335 0.183 0.598 0.471 0.77 0.855 0.172 0.382 0.252 0.861 0.22 1.422l-3.918 69.632c-0.035 0.613-0.183 1.251-0.42 1.881-0.239 0.631-0.566 1.253-0.96 1.832s-0.855 1.114-1.358 1.572-1.048 0.837-1.612 1.104m-56.998-45.311c-0.408 0.212-0.805 0.505-1.174 0.855-0.37 0.349-0.71 0.753-1.006 1.186-0.296 0.434-0.546 0.898-0.732 1.365-0.188 0.467-0.312 0.938-0.355 1.386l-6.587 67.984c-0.047 0.488-7e-3 0.914 0.107 1.264 0.115 0.351 0.302 0.626 0.549 0.817 0.246 0.189 0.552 0.293 0.903 0.299 0.35 6e-3 0.745-0.086 1.17-0.286l64.171-30.369c0.461-0.218 0.908-0.528 1.319-0.903 0.411-0.374 0.787-0.811 1.11-1.285 0.322-0.473 0.59-0.981 0.784-1.497 0.195-0.516 0.316-1.038 0.344-1.54l3.948-69.614c0.026-0.459-0.039-0.85-0.179-1.164-0.141-0.313-0.355-0.549-0.629-0.7-0.273-0.15-0.605-0.215-0.979-0.184-0.373 0.031-0.789 0.156-1.231 0.386l-61.533 32" style="fill:#575756;stroke-miterlimit:10;stroke:#414042"/></g><g transform="translate(476.52 587.48)"><path d="m0 0-58.144 27.516c-0.386 0.182-0.74 0.259-1.05 0.242s-0.577-0.127-0.786-0.321c-0.21-0.192-0.364-0.467-0.448-0.813-0.085-0.345-0.102-0.761-0.037-1.236l9.002-66.201c0.059-0.437 0.191-0.893 0.379-1.344 0.188-0.45 0.431-0.896 0.713-1.31 0.283-0.414 0.604-0.799 0.949-1.127 0.343-0.329 0.71-0.602 1.082-0.796l55.994-29.119c0.401-0.209 0.774-0.316 1.106-0.333 0.331-0.016 0.621 0.059 0.855 0.215 0.235 0.157 0.413 0.397 0.521 0.708 0.109 0.313 0.148 0.697 0.102 1.145l-6.851 67.802c-0.049 0.488-0.181 0.993-0.377 1.489s-0.457 0.982-0.764 1.432-0.66 0.864-1.04 1.215-0.789 0.639-1.206 0.836" style="fill:#f39200;stroke-miterlimit:10;stroke:#414042"/></g><g transform="translate(476.44 588.27)"><path d="m0 0-58.167 27.498c-0.471 0.223-0.903 0.315-1.283 0.295-0.379-0.022-0.703-0.157-0.96-0.394-0.256-0.236-0.444-0.572-0.547-0.994-0.104-0.422-0.123-0.93-0.044-1.509l9.021-66.185c0.073-0.536 0.235-1.095 0.464-1.646 0.23-0.55 0.527-1.093 0.872-1.599 0.346-0.506 0.738-0.974 1.158-1.375 0.42-0.402 0.867-0.735 1.321-0.971l55.973-29.135c0.49-0.255 0.946-0.386 1.351-0.407s0.759 0.069 1.046 0.261c0.286 0.191 0.504 0.482 0.638 0.864 0.133 0.381 0.18 0.852 0.125 1.4l-6.827 67.82c-0.06 0.595-0.221 1.212-0.461 1.818-0.241 0.607-0.559 1.201-0.934 1.752-0.376 0.551-0.807 1.057-1.272 1.486-0.466 0.429-0.964 0.78-1.474 1.021m-48.26-46.176c-0.372 0.194-0.738 0.467-1.082 0.796-0.344 0.328-0.665 0.713-0.948 1.127-0.282 0.414-0.526 0.859-0.713 1.31-0.188 0.451-0.32 0.907-0.38 1.344l-9.001 66.201c-0.065 0.475-0.049 0.891 0.036 1.236 0.085 0.346 0.239 0.621 0.448 0.813 0.21 0.194 0.476 0.304 0.786 0.321 0.311 0.017 0.665-0.06 1.051-0.243l58.144-27.515c0.417-0.197 0.825-0.485 1.206-0.836 0.38-0.351 0.733-0.765 1.04-1.215s0.568-0.936 0.764-1.433c0.196-0.495 0.328-1.001 0.377-1.488l6.851-67.803c0.045-0.447 7e-3 -0.832-0.102-1.144s-0.287-0.551-0.521-0.708c-0.234-0.156-0.524-0.232-0.856-0.215-0.331 0.017-0.704 0.124-1.106 0.333l-55.994 29.119" style="fill:#575756;stroke-miterlimit:10;stroke:#414042"/></g><g transform="translate(641.09 423.14)"><path d="m0 0-67.592 35.484c-0.446 0.234-0.867 0.365-1.245 0.401-0.379 0.037-0.715-0.022-0.993-0.166-0.277-0.144-0.496-0.373-0.64-0.681-0.143-0.307-0.212-0.691-0.188-1.144l3.272-63.04c0.022-0.417 0.13-0.865 0.306-1.315 0.176-0.451 0.421-0.905 0.716-1.338 0.295-0.431 0.64-0.843 1.019-1.205 0.379-0.363 0.791-0.679 1.218-0.921l64.654-36.661c0.465-0.264 0.907-0.429 1.308-0.502 0.402-0.073 0.765-0.055 1.068 0.05 0.304 0.104 0.55 0.296 0.719 0.566 0.169 0.271 0.261 0.621 0.259 1.046l-0.334 64.216c-3e-3 0.462-0.104 0.955-0.284 1.45-0.181 0.496-0.442 0.994-0.763 1.466-0.322 0.472-0.704 0.918-1.126 1.31-0.424 0.391-0.888 0.729-1.374 0.984" style="fill:#ffed00;stroke-miterlimit:10;stroke:#414042"/></g><g transform="translate(641.08 423.89)"><path d="m0 0-67.623 35.47c-0.546 0.287-1.062 0.446-1.524 0.49-0.463 0.045-0.874-0.027-1.212-0.204-0.339-0.177-0.605-0.458-0.78-0.834-0.174-0.376-0.257-0.845-0.229-1.399l3.3-63.027c0.026-0.51 0.158-1.056 0.373-1.605 0.215-0.55 0.513-1.105 0.873-1.632 0.36-0.529 0.782-1.03 1.244-1.474 0.463-0.443 0.967-0.83 1.49-1.127l64.626-36.671c0.567-0.321 1.107-0.523 1.598-0.613s0.933-0.066 1.304 0.061c0.373 0.127 0.673 0.36 0.88 0.69 0.207 0.331 0.321 0.759 0.318 1.277l-0.301 64.228c-3e-3 0.564-0.127 1.167-0.348 1.772-0.221 0.607-0.54 1.215-0.933 1.792-0.393 0.578-0.86 1.123-1.377 1.603-0.517 0.478-1.085 0.891-1.679 1.203m-64.121-34.672c-0.427 0.242-0.839 0.558-1.218 0.921-0.379 0.362-0.724 0.773-1.019 1.205-0.295 0.433-0.54 0.887-0.716 1.338-0.176 0.45-0.284 0.897-0.306 1.315l-3.272 63.039c-0.024 0.454 0.045 0.838 0.188 1.145 0.144 0.308 0.362 0.537 0.64 0.681s0.614 0.203 0.992 0.166c0.379-0.036 0.8-0.167 1.246-0.401l67.592-35.484c0.486-0.255 0.95-0.593 1.373-0.984 0.423-0.392 0.805-0.838 1.126-1.31 0.322-0.472 0.582-0.97 0.764-1.466 0.18-0.495 0.281-0.988 0.284-1.45l0.334-64.216c2e-3 -0.425-0.091-0.775-0.26-1.046-0.169-0.27-0.414-0.462-0.718-0.566-0.304-0.105-0.666-0.123-1.068-0.05s-0.843 0.238-1.308 0.502l-64.654 36.661" style="fill:#575756;stroke-miterlimit:10;stroke:#414042"/></g><g transform="translate(559.21 466.13)"><path d="m0 0-61.253 32.155c-0.406 0.214-0.784 0.326-1.121 0.349-0.335 0.021-0.629-0.049-0.867-0.2-0.238-0.152-0.419-0.385-0.53-0.691s-0.152-0.685-0.109-1.128l5.978-61.697c0.039-0.409 0.156-0.845 0.334-1.279 0.177-0.436 0.415-0.872 0.696-1.285 0.282-0.413 0.608-0.803 0.961-1.144 0.352-0.342 0.733-0.636 1.124-0.857l58.842-33.367c0.422-0.239 0.82-0.382 1.176-0.437 0.358-0.056 0.675-0.023 0.936 0.093 0.263 0.116 0.469 0.313 0.604 0.586 0.134 0.273 0.198 0.621 0.174 1.038l-3.567 62.906c-0.026 0.452-0.14 0.931-0.324 1.408-0.183 0.478-0.438 0.954-0.743 1.404-0.307 0.448-0.665 0.87-1.056 1.236-0.391 0.367-0.816 0.679-1.255 0.91" style="fill:#f39200;stroke-miterlimit:10;stroke:#414042"/></g><g transform="translate(559.17 466.86)"><path d="m0 0-61.278 32.142c-0.496 0.26-0.958 0.398-1.369 0.423-0.41 0.027-0.769-0.059-1.06-0.245-0.29-0.185-0.511-0.47-0.647-0.844s-0.186-0.837-0.133-1.377l6-61.686c0.049-0.5 0.192-1.03 0.408-1.562 0.217-0.532 0.508-1.065 0.852-1.57 0.345-0.504 0.742-0.98 1.173-1.397 0.431-0.418 0.895-0.777 1.372-1.047l58.819-33.377c0.515-0.292 1-0.468 1.437-0.535 0.436-0.068 0.824-0.027 1.144 0.114 0.321 0.141 0.573 0.382 0.738 0.715s0.243 0.758 0.214 1.267l-3.54 62.918c-0.031 0.552-0.171 1.137-0.396 1.72-0.224 0.584-0.535 1.167-0.909 1.717-0.375 0.549-0.812 1.064-1.29 1.513-0.479 0.448-0.998 0.829-1.535 1.111m-54.744-36.507c-0.391 0.222-0.772 0.516-1.124 0.858-0.353 0.34-0.679 0.73-0.961 1.143-0.281 0.413-0.519 0.85-0.696 1.285-0.178 0.435-0.295 0.87-0.334 1.28l-5.978 61.697c-0.043 0.442-2e-3 0.821 0.109 1.128 0.111 0.305 0.292 0.539 0.53 0.69 0.238 0.152 0.531 0.222 0.867 0.2 0.337-0.022 0.715-0.134 1.121-0.348l61.253-32.155c0.439-0.232 0.864-0.543 1.255-0.911 0.391-0.366 0.749-0.788 1.056-1.236 0.305-0.449 0.56-0.926 0.743-1.403 0.184-0.478 0.298-0.956 0.324-1.408l3.567-62.907c0.024-0.417-0.04-0.764-0.175-1.038-0.134-0.272-0.34-0.47-0.603-0.586-0.261-0.115-0.578-0.148-0.936-0.093-0.357 0.055-0.754 0.199-1.176 0.438l-58.842 33.366" style="fill:#575756;stroke-miterlimit:10;stroke:#414042"/></g><g transform="translate(484.99 505.09)"><path d="m0 0-55.765 29.274c-0.37 0.195-0.712 0.292-1.011 0.302-0.299 9e-3 -0.557-0.069-0.761-0.226-0.203-0.157-0.353-0.392-0.438-0.696-0.084-0.304-0.103-0.676-0.044-1.109l8.205-60.342c0.054-0.401 0.179-0.824 0.357-1.246 0.178-0.421 0.41-0.841 0.68-1.236 0.27-0.396 0.578-0.766 0.907-1.088 0.33-0.323 0.682-0.598 1.04-0.801l53.781-30.495c0.384-0.218 0.743-0.344 1.061-0.384 0.319-0.039 0.598 6e-3 0.824 0.13s0.399 0.326 0.505 0.6c0.106 0.273 0.145 0.618 0.103 1.027l-6.22 61.561c-0.044 0.443-0.168 0.907-0.354 1.367-0.185 0.461-0.433 0.918-0.725 1.346s-0.629 0.828-0.992 1.172-0.754 0.634-1.153 0.844" style="fill:#009640;stroke-miterlimit:10;stroke:#414042"/></g><g transform="translate(484.91 505.81)"><path d="m0 0-55.786 29.261c-0.452 0.237-0.869 0.355-1.235 0.366-0.365 0.011-0.68-0.085-0.929-0.277-0.248-0.193-0.432-0.48-0.535-0.851-0.103-0.372-0.125-0.827-0.054-1.354l8.224-60.331c0.066-0.489 0.218-1.005 0.436-1.52s0.502-1.028 0.831-1.511c0.33-0.482 0.706-0.935 1.109-1.329 0.402-0.394 0.832-0.729 1.269-0.977l53.761-30.506c0.47-0.267 0.907-0.42 1.297-0.469 0.389-0.049 0.73 6e-3 1.007 0.157 0.276 0.152 0.487 0.399 0.617 0.733s0.178 0.754 0.128 1.254l-6.199 61.574c-0.054 0.539-0.205 1.106-0.432 1.669s-0.53 1.123-0.887 1.646c-0.357 0.524-0.769 1.012-1.213 1.434-0.444 0.421-0.921 0.775-1.409 1.031m-46.757-37.881c-0.358 0.203-0.71 0.478-1.039 0.801-0.33 0.322-0.638 0.692-0.908 1.088-0.27 0.395-0.502 0.815-0.68 1.236-0.178 0.422-0.303 0.845-0.357 1.246l-8.205 60.342c-0.058 0.433-0.04 0.805 0.045 1.109 0.084 0.304 0.234 0.539 0.438 0.696s0.461 0.235 0.76 0.226c0.3-9e-3 0.641-0.107 1.012-0.301l55.764-29.275c0.4-0.21 0.79-0.5 1.153-0.844s0.7-0.744 0.992-1.172 0.54-0.885 0.725-1.346c0.186-0.46 0.31-0.924 0.354-1.366l6.221-61.562c0.041-0.409 2e-3 -0.754-0.104-1.027-0.106-0.274-0.279-0.476-0.505-0.6-0.225-0.124-0.505-0.169-0.824-0.13-0.318 0.04-0.676 0.166-1.061 0.384l-53.781 30.495" style="fill:#575756;stroke-miterlimit:10;stroke:#414042"/></g></g><g transform="translate(650.41 612.69)"><path d="m0 0 0.354-272.26-221.9 126.74-35.173 250.58z" style="fill:none;stroke-miterlimit:10;stroke:#414042"/></g><g transform="translate(650.41 612.69)"><path d="m0 0 190.54 132.9-24.83-247-165.35-158.17z" style="fill:#575756"/></g><g transform="translate(650.41 612.69)"><path d="m0 0 190.54 132.9-24.83-247-165.35-158.17z" style="fill:none;stroke-miterlimit:10;stroke:#414042"/></g><g transform="translate(650.41 612.69)"><path d="m0 0 190.54 132.9-24.83-247-165.35-158.17z" style="fill:#575756"/></g><g clip-path="url(#clipPath939)"><g transform="translate(813.08 502.88)"><path d="m0 0 5.857 59.529c0.042 0.424 0.028 0.782-0.033 1.065-0.062 0.282-0.171 0.49-0.318 0.616s-0.333 0.169-0.548 0.122c-0.216-0.047-0.461-0.184-0.727-0.419l-40.462-35.776c-0.292-0.259-0.577-0.594-0.843-0.98-0.265-0.386-0.511-0.82-0.724-1.278-0.214-0.457-0.394-0.937-0.53-1.411-0.135-0.474-0.225-0.943-0.257-1.377l-4.5-60.956c-0.03-0.405-1e-3 -0.736 0.077-0.989 0.078-0.251 0.205-0.424 0.37-0.512 0.166-0.089 0.371-0.094 0.604-9e-3 0.234 0.085 0.496 0.258 0.778 0.526l39.105 37.203c0.257 0.246 0.511 0.559 0.749 0.917 0.237 0.358 0.459 0.759 0.654 1.179 0.195 0.421 0.362 0.86 0.491 1.293s0.218 0.861 0.257 1.257" style="fill:#009fe3;stroke-miterlimit:10;stroke:#414042"/></g><g transform="translate(813.49 503.27)"><path d="m0 0 5.87 59.516c0.051 0.519 0.034 0.957-0.04 1.302-0.075 0.347-0.207 0.602-0.387 0.755-0.179 0.155-0.406 0.207-0.67 0.15-0.263-0.058-0.564-0.226-0.889-0.514l-40.477-35.761c-0.357-0.315-0.705-0.724-1.03-1.195-0.325-0.472-0.627-1.003-0.888-1.563-0.261-0.559-0.483-1.146-0.649-1.726-0.166-0.581-0.277-1.154-0.316-1.688l-4.484-60.97c-0.036-0.494 0-0.899 0.096-1.206 0.095-0.307 0.251-0.518 0.455-0.625 0.203-0.108 0.453-0.113 0.74-8e-3 0.285 0.103 0.606 0.316 0.95 0.643l39.092 37.216c0.315 0.301 0.625 0.685 0.916 1.122 0.29 0.437 0.561 0.927 0.798 1.441 0.238 0.512 0.442 1.048 0.6 1.577 0.156 0.529 0.265 1.051 0.313 1.534m-39 19.698c0.032 0.435 0.122 0.904 0.257 1.377 0.136 0.475 0.317 0.954 0.53 1.411 0.213 0.458 0.459 0.893 0.725 1.279 0.265 0.385 0.55 0.72 0.842 0.979l40.462 35.777c0.267 0.235 0.512 0.372 0.727 0.418 0.216 0.047 0.401 4e-3 0.549-0.122 0.147-0.126 0.256-0.334 0.317-0.616 0.062-0.283 0.076-0.64 0.034-1.064l-5.858-59.53c-0.039-0.396-0.128-0.824-0.257-1.256-0.128-0.434-0.296-0.872-0.491-1.293-0.194-0.42-0.416-0.822-0.654-1.179-0.238-0.358-0.491-0.672-0.748-0.917l-39.105-37.203c-0.282-0.269-0.545-0.442-0.778-0.527-0.234-0.085-0.439-0.08-0.604 9e-3 -0.166 0.088-0.293 0.261-0.37 0.513-0.078 0.253-0.107 0.584-0.078 0.988l4.5 60.956" style="fill:#575756;stroke-miterlimit:10;stroke:#414042"/></g><g transform="translate(820.29 576.23)"><path d="m0 0 6.407 65.115c0.046 0.466 0.033 0.866-0.029 1.19-0.061 0.323-0.172 0.57-0.323 0.731-0.151 0.162-0.343 0.237-0.565 0.217-0.223-0.021-0.477-0.136-0.753-0.357l-42.082-33.733c-0.304-0.244-0.602-0.574-0.879-0.963-0.277-0.388-0.534-0.836-0.758-1.312-0.224-0.477-0.414-0.984-0.557-1.491-0.142-0.507-0.238-1.015-0.274-1.497l-4.943-66.976c-0.033-0.445-5e-3 -0.816 0.075-1.106 0.08-0.289 0.21-0.499 0.382-0.62 0.172-0.122 0.383-0.155 0.626-0.094 0.242 0.06 0.515 0.215 0.809 0.472l40.618 35.596c0.267 0.234 0.531 0.545 0.778 0.906s0.478 0.774 0.681 1.21c0.204 0.438 0.379 0.899 0.514 1.359 0.135 0.461 0.231 0.92 0.273 1.353" style="fill:#ededed;stroke-miterlimit:10;stroke:#414042"/></g><g transform="translate(820.72 576.61)"><path d="m0 0 6.42 65.097c0.057 0.569 0.042 1.057-0.033 1.453-0.075 0.395-0.21 0.698-0.394 0.895-0.184 0.199-0.418 0.291-0.69 0.267-0.273-0.024-0.584-0.166-0.922-0.437l-42.097-33.712c-0.371-0.297-0.735-0.701-1.075-1.176-0.34-0.477-0.655-1.024-0.929-1.607-0.274-0.584-0.507-1.203-0.682-1.824s-0.292-1.242-0.335-1.829l-4.928-66.996c-0.04-0.543-4e-3 -0.995 0.094-1.35 0.098-0.353 0.258-0.608 0.469-0.756 0.21-0.147 0.47-0.188 0.767-0.113 0.296 0.074 0.63 0.265 0.988 0.578l40.605 35.614c0.326 0.286 0.648 0.667 0.95 1.108 0.303 0.441 0.585 0.945 0.833 1.478 0.248 0.534 0.462 1.097 0.626 1.66 0.166 0.561 0.281 1.123 0.333 1.65m-40.242 27.525c0.036 0.482 0.132 0.99 0.274 1.497 0.143 0.507 0.333 1.014 0.557 1.491 0.223 0.476 0.48 0.924 0.758 1.312 0.277 0.389 0.575 0.719 0.879 0.963l42.082 33.733c0.275 0.221 0.529 0.336 0.753 0.357 0.222 0.02 0.414-0.055 0.565-0.217 0.151-0.161 0.262-0.408 0.323-0.731 0.062-0.324 0.074-0.724 0.029-1.19l-6.407-65.115c-0.043-0.433-0.138-0.892-0.273-1.353-0.135-0.46-0.311-0.921-0.514-1.359-0.203-0.436-0.434-0.849-0.681-1.21-0.248-0.361-0.511-0.672-0.778-0.906l-40.618-35.596c-0.294-0.257-0.567-0.412-0.81-0.472-0.242-0.061-0.454-0.028-0.626 0.094-0.171 0.121-0.301 0.331-0.381 0.62-0.08 0.29-0.108 0.661-0.076 1.106l4.944 66.976" style="fill:#575756;stroke-miterlimit:10;stroke:#414042"/></g><g transform="translate(828.19 656.5)"><path d="m0 0 7.038 71.524c0.05 0.513 0.04 0.961-0.022 1.332-0.061 0.371-0.174 0.664-0.329 0.868-0.156 0.204-0.353 0.318-0.583 0.331-0.231 0.012-0.494-0.077-0.781-0.28l-43.829-31.084c-0.318-0.225-0.629-0.548-0.92-0.939-0.29-0.392-0.56-0.852-0.795-1.35-0.235-0.497-0.435-1.034-0.586-1.579s-0.253-1.097-0.292-1.63l-5.458-73.936c-0.036-0.489-8e-3 -0.906 0.074-1.241 0.081-0.334 0.215-0.586 0.393-0.747 0.177-0.161 0.398-0.23 0.65-0.199 0.252 0.033 0.536 0.164 0.841 0.407l42.25 33.497c0.278 0.219 0.551 0.525 0.808 0.889 0.258 0.365 0.499 0.787 0.712 1.242s0.396 0.942 0.539 1.433c0.142 0.491 0.243 0.987 0.29 1.462" style="fill:#ffed00;stroke-miterlimit:10;stroke:#414042"/></g><g transform="translate(828.64 656.85)"><path d="m0 0 7.052 71.5c0.061 0.627 0.05 1.174-0.025 1.627-0.075 0.454-0.213 0.813-0.402 1.063s-0.43 0.39-0.711 0.406c-0.282 0.016-0.604-0.093-0.956-0.342l-43.846-31.056c-0.388-0.275-0.769-0.67-1.124-1.148-0.356-0.48-0.686-1.042-0.974-1.652s-0.534-1.266-0.719-1.932c-0.185-0.667-0.31-1.344-0.358-1.993l-5.439-73.962c-0.044-0.598-0.01-1.107 0.091-1.515 0.1-0.407 0.265-0.715 0.483-0.911 0.218-0.195 0.488-0.278 0.796-0.239 0.309 0.039 0.656 0.201 1.029 0.497l42.235 33.519c0.339 0.269 0.674 0.643 0.988 1.088 0.315 0.446 0.609 0.962 0.869 1.517 0.259 0.555 0.484 1.149 0.657 1.749 0.174 0.599 0.297 1.205 0.354 1.784m-41.545 36.842c0.039 0.532 0.141 1.085 0.293 1.63 0.15 0.545 0.351 1.082 0.585 1.579 0.235 0.498 0.505 0.958 0.795 1.349 0.291 0.391 0.602 0.714 0.92 0.94l43.829 31.083c0.287 0.203 0.55 0.293 0.781 0.28 0.23-0.012 0.427-0.126 0.583-0.33 0.155-0.205 0.268-0.498 0.329-0.869 0.062-0.37 0.072-0.818 0.022-1.332l-7.038-71.524c-0.047-0.474-0.148-0.97-0.29-1.461-0.142-0.492-0.326-0.979-0.538-1.433-0.213-0.455-0.455-0.878-0.712-1.242-0.258-0.365-0.531-0.67-0.808-0.89l-42.25-33.497c-0.306-0.242-0.59-0.374-0.842-0.406s-0.472 0.038-0.65 0.198c-0.177 0.161-0.312 0.413-0.393 0.747-0.082 0.335-0.11 0.752-0.074 1.241l5.458 73.937" style="fill:#575756;stroke-miterlimit:10;stroke:#414042"/></g><g transform="translate(764.94 457.22)"><path d="m0 0 4.33 61.113c0.031 0.437 1e-3 0.801-0.081 1.084s-0.215 0.488-0.39 0.604c-0.174 0.116-0.39 0.144-0.636 0.078s-0.524-0.227-0.822-0.49l-45.274-40.032c-0.326-0.288-0.642-0.656-0.933-1.073s-0.558-0.884-0.786-1.37-0.418-0.992-0.555-1.489c-0.137-0.496-0.222-0.984-0.241-1.431l-2.611-62.518c-0.017-0.414 0.031-0.748 0.133-0.997 0.101-0.248 0.256-0.411 0.451-0.485 0.196-0.074 0.434-0.058 0.7 0.049 0.266 0.108 0.562 0.31 0.876 0.607l43.554 41.438c0.287 0.273 0.567 0.615 0.826 1s0.498 0.812 0.704 1.257c0.207 0.444 0.381 0.905 0.511 1.356s0.215 0.893 0.244 1.299" style="fill:#e30613;stroke-miterlimit:10;stroke:#414042"/></g><g transform="translate(765.4 457.66)"><path d="m0 0 4.346 61.099c0.038 0.535 1e-3 0.979-0.099 1.326s-0.263 0.596-0.476 0.738c-0.212 0.142-0.476 0.177-0.777 0.096s-0.64-0.279-1.004-0.6l-45.292-40.014c-0.4-0.354-0.786-0.803-1.143-1.313-0.356-0.509-0.682-1.079-0.961-1.673-0.279-0.595-0.51-1.213-0.677-1.82-0.168-0.608-0.271-1.202-0.294-1.751l-2.591-62.532c-0.021-0.507 0.037-0.914 0.161-1.218 0.124-0.303 0.313-0.503 0.552-0.593 0.239-0.091 0.529-0.072 0.855 0.061 0.325 0.131 0.687 0.379 1.071 0.744l43.538 41.449c0.351 0.334 0.692 0.752 1.008 1.223 0.316 0.469 0.608 0.992 0.861 1.535 0.252 0.543 0.465 1.105 0.624 1.656 0.158 0.552 0.263 1.091 0.298 1.587m-45.848 16.557c0.018 0.447 0.103 0.934 0.241 1.43 0.137 0.497 0.327 1.003 0.555 1.49 0.228 0.486 0.494 0.953 0.786 1.37 0.291 0.417 0.607 0.785 0.933 1.073l45.274 40.031c0.298 0.264 0.575 0.425 0.822 0.49 0.246 0.067 0.462 0.038 0.636-0.078s0.308-0.32 0.389-0.603c0.082-0.283 0.112-0.648 0.082-1.084l-4.33-61.113c-0.029-0.407-0.115-0.848-0.245-1.299-0.129-0.452-0.304-0.912-0.51-1.357-0.207-0.444-0.446-0.872-0.705-1.257-0.259-0.384-0.538-0.726-0.825-1l-43.555-41.437c-0.313-0.298-0.609-0.499-0.876-0.608-0.266-0.107-0.503-0.123-0.699-0.048-0.196 0.074-0.351 0.237-0.452 0.485s-0.149 0.582-0.132 0.996l2.611 62.519" style="fill:#575756;stroke-miterlimit:10;stroke:#414042"/></g><g transform="translate(770.28 532.56)"><path d="m0 0 4.76 67.187c0.034 0.482 4e-3 0.891-0.079 1.218-0.084 0.328-0.222 0.574-0.402 0.729-0.181 0.154-0.405 0.217-0.661 0.179-0.257-0.038-0.546-0.176-0.857-0.426l-47.347-37.954c-0.343-0.275-0.674-0.637-0.979-1.059-0.307-0.422-0.586-0.902-0.827-1.411-0.239-0.508-0.439-1.044-0.584-1.578-0.145-0.533-0.235-1.064-0.255-1.561l-2.885-69.081c-0.019-0.457 0.03-0.833 0.135-1.122 0.106-0.289 0.266-0.491 0.471-0.6 0.204-0.109 0.451-0.125 0.73-0.042s0.588 0.266 0.916 0.553l45.473 39.85c0.299 0.262 0.59 0.601 0.86 0.992 0.271 0.39 0.52 0.829 0.737 1.292 0.216 0.463 0.398 0.948 0.535 1.43 0.137 0.481 0.227 0.959 0.259 1.404" style="fill:#009640;stroke-miterlimit:10;stroke:#414042"/></g><g transform="translate(770.76 532.98)"><path d="m0 0 4.777 67.167c0.042 0.589 5e-3 1.089-0.097 1.489-0.102 0.401-0.27 0.701-0.491 0.891-0.221 0.188-0.494 0.266-0.807 0.221-0.314-0.046-0.667-0.215-1.047-0.519l-47.367-37.933c-0.42-0.336-0.825-0.78-1.199-1.296s-0.717-1.104-1.01-1.725c-0.293-0.622-0.537-1.277-0.714-1.929-0.176-0.652-0.286-1.3-0.311-1.907l-2.863-69.101c-0.024-0.557 0.037-1.017 0.165-1.371 0.129-0.352 0.325-0.599 0.575-0.733 0.249-0.133 0.552-0.152 0.892-0.05 0.341 0.103 0.72 0.325 1.121 0.678l45.455 39.866c0.365 0.32 0.72 0.735 1.051 1.212 0.329 0.477 0.635 1.014 0.899 1.579s0.487 1.158 0.654 1.746c0.168 0.588 0.278 1.171 0.317 1.715m-47.711 24.905c0.02 0.497 0.11 1.028 0.255 1.561 0.145 0.534 0.345 1.07 0.584 1.578 0.241 0.509 0.52 0.989 0.827 1.411 0.305 0.422 0.636 0.784 0.979 1.059l47.347 37.954c0.311 0.25 0.6 0.388 0.857 0.427 0.256 0.037 0.48-0.026 0.661-0.18 0.18-0.154 0.318-0.401 0.402-0.729 0.083-0.327 0.113-0.736 0.079-1.218l-4.76-67.187c-0.032-0.445-0.122-0.923-0.259-1.404-0.136-0.482-0.319-0.967-0.535-1.43-0.217-0.463-0.466-0.902-0.737-1.292-0.27-0.391-0.561-0.73-0.86-0.992l-45.473-39.85c-0.328-0.287-0.637-0.469-0.916-0.552s-0.526-0.068-0.73 0.041c-0.205 0.109-0.365 0.311-0.471 0.6-0.105 0.289-0.154 0.665-0.135 1.122l2.885 69.081" style="fill:#575756;stroke-miterlimit:10;stroke:#414042"/></g><g transform="translate(776.15 615.42)"><path d="m0 0 5.258 74.212c0.038 0.534 9e-3 0.997-0.077 1.376s-0.228 0.675-0.415 0.876c-0.188 0.2-0.42 0.306-0.688 0.303-0.267-3e-3 -0.569-0.114-0.893-0.344l-49.619-35.189c-0.359-0.255-0.708-0.611-1.029-1.037-0.322-0.426-0.618-0.921-0.87-1.453-0.253-0.533-0.464-1.102-0.618-1.679-0.153-0.575-0.249-1.155-0.272-1.709l-3.204-76.732c-0.022-0.507 0.029-0.934 0.138-1.27 0.11-0.338 0.278-0.586 0.492-0.738 0.213-0.15 0.472-0.204 0.764-0.151 0.291 0.052 0.615 0.21 0.959 0.482l47.566 37.712c0.312 0.248 0.616 0.583 0.899 0.977 0.282 0.393 0.544 0.846 0.771 1.329s0.419 0.996 0.563 1.512c0.144 0.515 0.24 1.033 0.275 1.523" style="fill:#f39200;stroke-miterlimit:10;stroke:#414042"/></g><g transform="translate(776.65 615.82)"><path d="m0 0 5.276 74.187c0.047 0.651 0.011 1.216-0.093 1.679-0.105 0.464-0.278 0.826-0.507 1.072s-0.513 0.375-0.84 0.372c-0.327-2e-3 -0.695-0.137-1.092-0.417l-49.64-35.161c-0.441-0.312-0.867-0.748-1.261-1.269s-0.755-1.126-1.064-1.777c-0.309-0.652-0.567-1.349-0.754-2.052s-0.303-1.412-0.331-2.088l-3.181-76.759c-0.026-0.619 0.036-1.14 0.17-1.553 0.133-0.412 0.338-0.714 0.599-0.899s0.578-0.25 0.934-0.186c0.357 0.065 0.753 0.259 1.175 0.593l47.545 37.735c0.381 0.302 0.752 0.711 1.098 1.193 0.345 0.48 0.664 1.033 0.942 1.623 0.276 0.59 0.511 1.217 0.688 1.847 0.176 0.629 0.294 1.26 0.336 1.86m-49.724 34.961c0.023 0.554 0.12 1.134 0.273 1.709 0.153 0.576 0.364 1.145 0.617 1.679 0.253 0.532 0.548 1.027 0.87 1.453s0.67 0.782 1.029 1.037l49.619 35.188c0.325 0.231 0.627 0.341 0.894 0.344s0.5-0.102 0.687-0.303c0.188-0.201 0.33-0.497 0.416-0.876 0.085-0.379 0.114-0.841 0.077-1.376l-5.258-74.212c-0.035-0.49-0.131-1.007-0.275-1.523-0.145-0.516-0.337-1.028-0.564-1.512-0.226-0.482-0.488-0.935-0.771-1.329-0.283-0.393-0.587-0.728-0.899-0.976l-47.566-37.712c-0.343-0.273-0.667-0.431-0.959-0.483s-0.55 1e-3 -0.764 0.152-0.382 0.399-0.491 0.737c-0.109 0.337-0.16 0.764-0.139 1.271l3.204 76.732" style="fill:#575756;stroke-miterlimit:10;stroke:#414042"/></g><g transform="translate(711.31 406.35)"><path d="m0 0 2.396 62.673c0.017 0.448-0.034 0.817-0.142 1.098-0.107 0.284-0.27 0.479-0.477 0.583-0.208 0.103-0.459 0.113-0.742 0.023-0.284-0.09-0.599-0.279-0.933-0.575l-50.998-45.091c-0.37-0.328-0.723-0.734-1.045-1.189-0.322-0.454-0.613-0.956-0.857-1.475s-0.443-1.054-0.58-1.574c-0.138-0.521-0.215-1.027-0.216-1.486l-0.209-64.016c-1e-3 -0.423 0.07-0.758 0.199-1 0.129-0.243 0.316-0.394 0.548-0.45 0.232-0.055 0.507-0.016 0.814 0.122 0.306 0.136 0.642 0.372 0.996 0.709l48.81 46.436c0.321 0.305 0.63 0.68 0.914 1.096 0.283 0.416 0.541 0.874 0.761 1.345s0.403 0.957 0.534 1.427c0.131 0.472 0.211 0.929 0.227 1.344" style="fill:#ededed;stroke-miterlimit:10;stroke:#414042"/></g><g transform="translate(711.82 406.84)"><path d="m0 0 2.416 62.658c0.021 0.55-0.041 1.001-0.172 1.347s-0.331 0.585-0.584 0.711-0.56 0.138-0.907 0.028c-0.346-0.109-0.731-0.341-1.14-0.702l-51.019-45.076c-0.452-0.4-0.885-0.896-1.278-1.45-0.394-0.555-0.749-1.168-1.048-1.802-0.299-0.635-0.542-1.289-0.71-1.926s-0.262-1.256-0.264-1.818l-0.184-64.03c-1e-3 -0.517 0.086-0.925 0.244-1.221 0.158-0.297 0.387-0.481 0.671-0.548 0.283-0.067 0.62-0.02 0.995 0.148 0.374 0.168 0.785 0.455 1.216 0.867l48.789 46.448c0.392 0.372 0.768 0.83 1.115 1.339 0.346 0.508 0.661 1.067 0.93 1.643 0.269 0.575 0.492 1.168 0.652 1.743 0.16 0.576 0.258 1.134 0.278 1.641m-54.109 12.499c2e-3 0.459 0.078 0.965 0.216 1.485 0.138 0.521 0.336 1.056 0.58 1.575 0.245 0.519 0.536 1.021 0.857 1.475 0.322 0.454 0.676 0.861 1.046 1.189l50.997 45.09c0.334 0.296 0.649 0.486 0.933 0.576 0.283 0.09 0.535 0.08 0.742-0.024 0.207-0.103 0.371-0.299 0.478-0.582 0.107-0.281 0.158-0.65 0.141-1.098l-2.396-62.673c-0.016-0.415-0.096-0.872-0.227-1.344-0.131-0.471-0.313-0.956-0.533-1.427-0.221-0.471-0.479-0.929-0.762-1.345-0.284-0.417-0.593-0.792-0.914-1.096l-48.81-46.437c-0.353-0.337-0.69-0.572-0.996-0.709s-0.582-0.176-0.814-0.121c-0.231 0.056-0.419 0.206-0.548 0.449s-0.2 0.578-0.198 1l0.208 64.017" style="fill:#575756;stroke-miterlimit:10;stroke:#414042"/></g><g transform="translate(714.26 483.65)"><path d="m0 0 2.649 69.291c0.019 0.499-0.034 0.918-0.145 1.248-0.112 0.33-0.282 0.571-0.499 0.716-0.217 0.143-0.481 0.19-0.777 0.131-0.298-0.061-0.628-0.227-0.979-0.508l-53.669-43.022c-0.391-0.312-0.763-0.715-1.103-1.176s-0.647-0.98-0.905-1.524-0.468-1.113-0.613-1.675c-0.145-0.561-0.226-1.115-0.228-1.628l-0.231-71.184c-2e-3 -0.47 0.072-0.851 0.208-1.137s0.334-0.478 0.577-0.571c0.244-0.093 0.534-0.086 0.857 0.025 0.322 0.113 0.676 0.328 1.048 0.655l51.252 44.914c0.337 0.295 0.66 0.668 0.957 1.09 0.298 0.422 0.569 0.894 0.8 1.386 0.231 0.493 0.423 1.006 0.561 1.51 0.137 0.504 0.222 1 0.24 1.459" style="fill:#e30613;stroke-miterlimit:10;stroke:#414042"/></g><g transform="translate(714.8 484.12)"><path d="m0 0 2.67 69.273c0.024 0.609-0.04 1.121-0.176 1.523-0.137 0.404-0.345 0.699-0.61 0.876s-0.587 0.234-0.949 0.162c-0.363-0.073-0.767-0.275-1.196-0.619l-53.694-42.998c-0.477-0.383-0.933-0.875-1.348-1.439-0.416-0.563-0.791-1.198-1.107-1.863-0.316-0.666-0.572-1.361-0.75-2.049-0.177-0.686-0.276-1.363-0.278-1.99l-0.205-71.203c-1e-3 -0.573 0.09-1.038 0.257-1.388 0.166-0.349 0.407-0.584 0.706-0.697 0.298-0.112 0.653-0.104 1.047 0.033 0.394 0.136 0.826 0.4 1.28 0.799l51.229 44.93c0.411 0.36 0.806 0.816 1.168 1.333 0.363 0.515 0.694 1.091 0.977 1.693 0.282 0.602 0.516 1.228 0.685 1.844s0.272 1.221 0.294 1.78m-56.808 21.383c2e-3 0.513 0.083 1.067 0.228 1.629 0.145 0.561 0.355 1.131 0.613 1.675 0.258 0.543 0.565 1.062 0.905 1.523s0.712 0.864 1.103 1.177l53.668 43.021c0.352 0.281 0.682 0.447 0.979 0.508 0.297 0.06 0.561 0.013 0.778-0.131s0.387-0.386 0.499-0.716c0.111-0.33 0.164-0.749 0.145-1.248l-2.649-69.291c-0.018-0.459-0.103-0.955-0.24-1.459-0.138-0.504-0.33-1.016-0.561-1.509s-0.502-0.964-0.8-1.387c-0.297-0.422-0.62-0.795-0.957-1.09l-51.252-44.914c-0.372-0.326-0.726-0.542-1.048-0.654-0.323-0.112-0.613-0.119-0.857-0.026s-0.441 0.285-0.577 0.571c-0.136 0.287-0.21 0.667-0.209 1.137l0.232 71.184" style="fill:#575756;stroke-miterlimit:10;stroke:#414042"/></g><g transform="translate(717.53 569.16)"><path d="m0 0 2.944 77.019c0.022 0.555-0.032 1.032-0.149 1.419-0.116 0.386-0.295 0.683-0.522 0.877-0.228 0.194-0.504 0.287-0.816 0.264-0.312-0.021-0.66-0.158-1.029-0.42l-56.635-40.165c-0.413-0.293-0.808-0.689-1.168-1.156s-0.685-1.003-0.958-1.575c-0.273-0.573-0.495-1.179-0.649-1.788s-0.24-1.218-0.242-1.794l-0.259-79.626c-1e-3 -0.524 0.077-0.959 0.22-1.298 0.144-0.339 0.352-0.581 0.609-0.719 0.258-0.138 0.564-0.172 0.904-0.092 0.341 0.078 0.715 0.27 1.107 0.581l53.951 42.775c0.353 0.279 0.693 0.648 1.005 1.077 0.313 0.428 0.598 0.914 0.841 1.43 0.243 0.514 0.445 1.058 0.591 1.6s0.235 1.083 0.255 1.591" style="fill:#ededed;stroke-miterlimit:10;stroke:#414042"/></g><g transform="translate(718.1 569.61)"><path d="m0 0 2.968 76.992c0.026 0.679-0.04 1.262-0.181 1.734-0.142 0.472-0.361 0.835-0.638 1.073-0.278 0.238-0.616 0.351-0.997 0.325s-0.805-0.191-1.257-0.511l-56.663-40.134c-0.505-0.359-0.988-0.843-1.428-1.414s-0.837-1.227-1.172-1.926c-0.334-0.701-0.605-1.444-0.794-2.188-0.188-0.743-0.293-1.488-0.295-2.192l-0.229-79.653c-1e-3 -0.639 0.095-1.171 0.271-1.585s0.431-0.709 0.746-0.877c0.314-0.167 0.689-0.208 1.105-0.111 0.415 0.097 0.872 0.33 1.351 0.711l53.925 42.797c0.431 0.342 0.846 0.793 1.227 1.315 0.382 0.523 0.729 1.118 1.027 1.748 0.297 0.628 0.543 1.292 0.722 1.955 0.178 0.661 0.288 1.321 0.312 1.941m-59.79 32.234c2e-3 0.577 0.088 1.186 0.242 1.794 0.154 0.61 0.376 1.216 0.649 1.788 0.274 0.573 0.598 1.109 0.958 1.576 0.36 0.466 0.755 0.863 1.168 1.156l56.635 40.165c0.369 0.262 0.717 0.398 1.029 0.42s0.588-0.07 0.816-0.264 0.406-0.491 0.522-0.878c0.117-0.387 0.171-0.863 0.149-1.419l-2.944-77.018c-0.019-0.508-0.109-1.049-0.255-1.591s-0.347-1.086-0.591-1.601c-0.243-0.515-0.528-1.002-0.84-1.429-0.313-0.429-0.653-0.798-1.006-1.078l-53.95-42.774c-0.393-0.311-0.767-0.503-1.107-0.581-0.341-0.08-0.647-0.046-0.905 0.092-0.257 0.137-0.465 0.38-0.609 0.719-0.143 0.338-0.221 0.774-0.22 1.297l0.259 79.626" style="fill:#575756;stroke-miterlimit:10;stroke:#414042"/></g></g><g transform="translate(650.41 612.69)"><path d="m0 0 190.54 132.9-24.83-247-165.35-158.17z" style="fill:none;stroke-miterlimit:10;stroke:#414042"/></g><g transform="translate(393.69 717.76)"><path d="m0 0 206.52 99.229 240.74-71.391-190.54-132.9z" style="fill:#575756"/></g><g transform="translate(393.69 717.76)"><path d="m0 0 206.52 99.229 240.74-71.391-190.54-132.9z" style="fill:none;stroke-miterlimit:10;stroke:#414042"/></g><g transform="translate(393.69 717.76)"><path d="m0 0 206.52 99.229 240.74-71.391-190.54-132.9z" style="fill:#575756"/></g><g clip-path="url(#clipPath1035)"><g transform="translate(824.92 744.98)"><path d="m0 0-69.822 20.908c-0.462 0.138-0.964 0.233-1.476 0.284-0.513 0.053-1.035 0.063-1.537 0.033-0.503-0.031-0.986-0.101-1.418-0.21-0.433-0.11-0.816-0.257-1.118-0.442l-46.141-28.133c-0.334-0.203-0.556-0.429-0.672-0.662-0.116-0.234-0.126-0.475-0.034-0.71 0.091-0.235 0.283-0.464 0.57-0.673 0.288-0.209 0.671-0.398 1.144-0.552l71.617-23.355c0.515-0.168 1.072-0.282 1.637-0.346 0.565-0.065 1.139-0.078 1.689-0.042 0.55 0.035 1.076 0.119 1.544 0.25 0.469 0.131 0.88 0.309 1.202 0.53l44.345 30.58c0.29 0.2 0.464 0.421 0.532 0.65 0.067 0.229 0.027 0.466-0.111 0.696-0.139 0.23-0.376 0.453-0.704 0.657s-0.746 0.387-1.247 0.537" style="fill:#f39200;stroke-miterlimit:10;stroke:#414042"/></g><g transform="translate(825.39 745.3)"><path d="m0 0-69.805 20.885c-0.565 0.169-1.179 0.285-1.805 0.348-0.625 0.064-1.263 0.077-1.875 0.04-0.613-0.037-1.202-0.123-1.73-0.256-0.529-0.134-0.996-0.315-1.367-0.54l-46.157-28.11c-0.407-0.249-0.68-0.524-0.823-0.809-0.143-0.286-0.156-0.58-0.046-0.868 0.109-0.288 0.343-0.568 0.693-0.824 0.352-0.257 0.82-0.488 1.399-0.677l71.636-23.381c0.629-0.205 1.309-0.346 2.001-0.424s1.395-0.094 2.068-0.05 1.317 0.147 1.891 0.308c0.573 0.16 1.076 0.377 1.468 0.648l44.324 30.606c0.356 0.246 0.569 0.517 0.651 0.797s0.033 0.569-0.138 0.849c-0.17 0.281-0.461 0.555-0.862 0.803-0.4 0.248-0.912 0.472-1.523 0.655m-120.97-10.478c-0.472 0.155-0.856 0.343-1.143 0.552s-0.48 0.438-0.571 0.674c-0.091 0.235-0.081 0.476 0.035 0.71 0.116 0.233 0.338 0.459 0.672 0.662l46.141 28.133c0.302 0.184 0.685 0.332 1.117 0.441 0.433 0.109 0.916 0.18 1.418 0.21 0.503 0.031 1.025 0.02 1.537-0.032 0.513-0.052 1.015-0.146 1.476-0.285l69.823-20.907c0.501-0.15 0.919-0.334 1.247-0.537 0.328-0.204 0.565-0.428 0.703-0.658 0.139-0.23 0.179-0.466 0.112-0.695-0.068-0.229-0.242-0.45-0.533-0.65l-44.344-30.58c-0.322-0.222-0.733-0.399-1.202-0.53s-0.994-0.216-1.544-0.251-1.124-0.022-1.689 0.042c-0.566 0.064-1.122 0.179-1.637 0.347l-71.618 23.354" style="fill:#575756;stroke-miterlimit:10;stroke:#414042"/></g><g transform="translate(740.3 770.32)"><path d="m0 0-63.706 19.076c-0.423 0.127-0.891 0.213-1.373 0.26-0.482 0.048-0.978 0.057-1.461 0.029-0.483-0.029-0.952-0.094-1.378-0.194-0.427-0.101-0.811-0.236-1.124-0.405l-47.633-25.751c-0.344-0.186-0.584-0.392-0.725-0.605s-0.182-0.433-0.126-0.647c0.056-0.215 0.21-0.423 0.457-0.614 0.247-0.19 0.588-0.362 1.019-0.503l65.026-21.205c0.466-0.152 0.98-0.256 1.508-0.314s1.072-0.069 1.599-0.037c0.527 0.033 1.037 0.11 1.5 0.229 0.462 0.119 0.876 0.281 1.211 0.483l46.312 27.88c0.304 0.182 0.501 0.385 0.597 0.594 0.095 0.209 0.09 0.425-0.01 0.635-0.101 0.21-0.296 0.413-0.58 0.599s-0.656 0.353-1.113 0.49" style="fill:#e30613;stroke-miterlimit:10;stroke:#414042"/></g><g transform="translate(740.78 770.61)"><path d="m0 0-63.692 19.056c-0.517 0.155-1.088 0.26-1.676 0.319-0.588 0.058-1.194 0.068-1.784 0.034-0.589-0.034-1.162-0.114-1.684-0.236-0.521-0.123-0.992-0.288-1.375-0.496l-47.643-25.731c-0.42-0.227-0.715-0.478-0.888-0.738s-0.223-0.529-0.155-0.791c0.067-0.263 0.253-0.519 0.554-0.752s0.717-0.444 1.244-0.616l65.038-21.228c0.57-0.186 1.198-0.313 1.844-0.383 0.647-0.071 1.312-0.085 1.958-0.044 0.645 0.04 1.27 0.134 1.836 0.281 0.566 0.146 1.072 0.343 1.482 0.59l46.296 27.902c0.372 0.225 0.613 0.472 0.729 0.728 0.117 0.256 0.109 0.52-0.014 0.776s-0.362 0.505-0.71 0.732c-0.347 0.226-0.803 0.43-1.36 0.597m-116.54-9.646c-0.431 0.14-0.772 0.313-1.019 0.503s-0.4 0.399-0.457 0.613c-0.056 0.215-0.015 0.435 0.126 0.648 0.141 0.212 0.382 0.418 0.725 0.604l47.633 25.751c0.313 0.17 0.697 0.305 1.124 0.405 0.426 0.101 0.895 0.166 1.378 0.194s0.98 0.019 1.462-0.028 0.949-0.134 1.372-0.26l63.706-19.076c0.457-0.137 0.829-0.305 1.114-0.49 0.284-0.186 0.479-0.39 0.579-0.6s0.106-0.426 0.01-0.635-0.293-0.411-0.596-0.594l-46.312-27.88c-0.335-0.201-0.749-0.363-1.212-0.482s-0.973-0.196-1.5-0.229-1.071-0.021-1.599 0.036c-0.528 0.059-1.041 0.163-1.508 0.315l-65.026 21.205" style="fill:#575756;stroke-miterlimit:10;stroke:#414042"/></g><g transform="translate(663.05 793.45)"><path d="m0 0-58.359 17.475c-0.389 0.116-0.825 0.195-1.28 0.239-0.454 0.043-0.927 0.051-1.392 0.025-0.466-0.027-0.922-0.087-1.343-0.179-0.42-0.093-0.805-0.218-1.125-0.374l-48.701-23.666c-0.351-0.171-0.606-0.36-0.767-0.555-0.16-0.195-0.226-0.396-0.199-0.592 0.027-0.197 0.147-0.388 0.36-0.562 0.212-0.174 0.516-0.332 0.91-0.46l59.304-19.339c0.425-0.139 0.9-0.233 1.395-0.285 0.496-0.053 1.011-0.063 1.518-0.033 0.506 0.03 1.001 0.101 1.457 0.21 0.455 0.109 0.87 0.257 1.216 0.441l47.756 25.53c0.313 0.168 0.528 0.354 0.647 0.545 0.119 0.192 0.142 0.39 0.074 0.582-0.068 0.193-0.227 0.38-0.473 0.55-0.247 0.17-0.581 0.323-0.998 0.448" style="fill:#009fe3;stroke-miterlimit:10;stroke:#414042"/></g><g transform="translate(663.56 793.72)"><path d="m0 0-58.35 17.458c-0.474 0.142-1.005 0.238-1.56 0.291s-1.133 0.063-1.701 0.031-1.125-0.105-1.639-0.218c-0.515-0.113-0.985-0.266-1.378-0.457l-48.708-23.649c-0.429-0.208-0.741-0.438-0.938-0.677-0.197-0.238-0.278-0.485-0.246-0.725 0.032-0.241 0.178-0.475 0.437-0.688 0.258-0.213 0.629-0.406 1.11-0.563l59.313-19.36c0.518-0.169 1.099-0.284 1.706-0.348 0.606-0.064 1.238-0.075 1.857-0.038 0.62 0.037 1.227 0.124 1.784 0.257 0.558 0.134 1.065 0.315 1.487 0.54l47.745 25.55c0.384 0.206 0.646 0.433 0.791 0.668 0.145 0.234 0.173 0.476 0.09 0.711-0.084 0.235-0.279 0.463-0.581 0.67-0.302 0.208-0.71 0.395-1.219 0.547m-112.4-8.918c-0.395 0.129-0.699 0.286-0.911 0.46s-0.333 0.366-0.36 0.562 0.039 0.397 0.199 0.593c0.161 0.195 0.416 0.383 0.767 0.554l48.701 23.666c0.32 0.156 0.705 0.281 1.126 0.374 0.42 0.093 0.877 0.153 1.342 0.179s0.938 0.019 1.392-0.025c0.456-0.043 0.891-0.122 1.28-0.238l58.359-17.476c0.418-0.125 0.751-0.278 0.998-0.448 0.246-0.17 0.405-0.357 0.473-0.549s0.045-0.39-0.074-0.582-0.333-0.378-0.647-0.545l-47.756-25.531c-0.345-0.184-0.76-0.331-1.216-0.441-0.456-0.109-0.951-0.179-1.457-0.21-0.506-0.03-1.022-0.02-1.518 0.033-0.495 0.052-0.97 0.146-1.395 0.285l-59.303 19.339" style="fill:#575756;stroke-miterlimit:10;stroke:#414042"/></g><g transform="translate(770.26 707.51)"><path d="m0 0-71.816 23.652c-0.474 0.156-0.995 0.263-1.53 0.323-0.536 0.059-1.088 0.071-1.622 0.038-0.534-0.034-1.053-0.112-1.522-0.235-0.469-0.122-0.891-0.288-1.232-0.496l-51.975-31.69c-0.376-0.23-0.636-0.484-0.785-0.747-0.149-0.264-0.187-0.537-0.117-0.804s0.247-0.526 0.528-0.764c0.281-0.237 0.666-0.452 1.151-0.627l73.565-26.596c0.529-0.192 1.11-0.324 1.705-0.397 0.596-0.073 1.206-0.089 1.795-0.049s1.158 0.136 1.67 0.285c0.512 0.148 0.968 0.348 1.332 0.599l50.224 34.635c0.329 0.227 0.537 0.477 0.631 0.736s0.076 0.526-0.049 0.786-0.355 0.513-0.683 0.743-0.754 0.438-1.27 0.608" style="fill:#009fe3;stroke-miterlimit:10;stroke:#414042"/></g><g transform="translate(770.79 707.87)"><path d="m0 0-71.798 23.625c-0.58 0.191-1.217 0.321-1.872 0.394s-1.328 0.087-1.98 0.046c-0.653-0.041-1.285-0.137-1.858-0.286-0.573-0.15-1.087-0.352-1.504-0.606l-51.989-31.662c-0.461-0.282-0.781-0.592-0.964-0.914-0.183-0.323-0.231-0.656-0.146-0.982 0.085-0.325 0.301-0.642 0.645-0.932s0.816-0.552 1.409-0.767l73.582-26.63c0.648-0.233 1.357-0.394 2.084-0.484 0.728-0.09 1.474-0.11 2.194-0.061 0.721 0.048 1.416 0.165 2.043 0.347 0.626 0.181 1.184 0.428 1.63 0.735l50.204 34.666c0.401 0.278 0.654 0.583 0.768 0.901 0.115 0.316 0.091 0.642-0.062 0.961-0.153 0.317-0.434 0.626-0.835 0.907s-0.921 0.534-1.551 0.742m-129.45-11.711c-0.485 0.175-0.869 0.39-1.151 0.627-0.28 0.237-0.458 0.497-0.528 0.764-0.07 0.266-0.032 0.54 0.117 0.803 0.149 0.264 0.409 0.518 0.785 0.747l51.975 31.691c0.341 0.208 0.763 0.374 1.232 0.496 0.47 0.123 0.988 0.201 1.522 0.234 0.535 0.034 1.086 0.022 1.622-0.038 0.536-0.059 1.057-0.166 1.53-0.322l71.816-23.652c0.516-0.17 0.942-0.378 1.27-0.609 0.328-0.229 0.558-0.482 0.683-0.742 0.125-0.261 0.143-0.527 0.049-0.786s-0.302-0.51-0.631-0.736l-50.224-34.635c-0.364-0.251-0.82-0.451-1.331-0.6-0.513-0.148-1.081-0.244-1.671-0.284-0.589-0.04-1.199-0.024-1.795 0.049-0.595 0.073-1.176 0.205-1.705 0.396l-73.565 26.597" style="fill:#575756;stroke-miterlimit:10;stroke:#414042"/></g><g transform="translate(683.26 736.16)"><path d="m0 0-65.168 21.462c-0.433 0.143-0.915 0.24-1.417 0.294-0.503 0.054-1.026 0.065-1.538 0.034s-1.015-0.103-1.477-0.215c-0.462-0.113-0.883-0.264-1.234-0.454l-53.36-28.848c-0.385-0.208-0.663-0.439-0.838-0.678-0.174-0.239-0.244-0.487-0.211-0.728 0.033-0.242 0.169-0.477 0.407-0.692s0.577-0.409 1.017-0.568l66.389-24.002c0.477-0.173 1.01-0.291 1.564-0.356 0.554-0.066 1.13-0.08 1.693-0.043s1.113 0.123 1.617 0.257 0.961 0.316 1.338 0.542l52.138 31.388c0.342 0.206 0.573 0.434 0.697 0.669 0.124 0.234 0.141 0.477 0.057 0.713s-0.268 0.465-0.549 0.674-0.658 0.397-1.125 0.551" style="fill:#ffed00;stroke-miterlimit:10;stroke:#414042"/></g><g transform="translate(683.81 736.49)"><path d="m0 0-65.155 21.439c-0.528 0.173-1.117 0.292-1.731 0.358-0.614 0.065-1.252 0.078-1.878 0.04-0.626-0.037-1.24-0.125-1.804-0.262s-1.079-0.322-1.508-0.553l-53.37-28.824c-0.471-0.255-0.813-0.537-1.027-0.829-0.214-0.293-0.299-0.595-0.258-0.89 0.04-0.295 0.206-0.583 0.497-0.845 0.291-0.263 0.706-0.5 1.242-0.695l66.401-24.03c0.583-0.211 1.234-0.355 1.911-0.436 0.677-0.08 1.381-0.097 2.069-0.053 0.688 0.045 1.361 0.15 1.978 0.314 0.616 0.165 1.176 0.388 1.637 0.665l52.123 31.415c0.418 0.252 0.699 0.53 0.85 0.818 0.151 0.287 0.172 0.583 0.069 0.872-0.103 0.288-0.329 0.568-0.672 0.823s-0.803 0.485-1.374 0.673m-124.37-10.722c-0.44 0.159-0.779 0.353-1.017 0.569-0.238 0.215-0.374 0.45-0.408 0.692-0.033 0.241 0.038 0.488 0.212 0.728 0.174 0.239 0.453 0.47 0.838 0.678l53.36 28.847c0.351 0.19 0.772 0.342 1.234 0.454s0.964 0.184 1.477 0.215c0.512 0.031 1.034 0.02 1.537-0.033 0.503-0.054 0.985-0.152 1.418-0.294l65.168-21.463c0.467-0.153 0.844-0.342 1.125-0.551 0.28-0.208 0.465-0.438 0.549-0.674s0.066-0.478-0.058-0.713-0.354-0.462-0.696-0.669l-52.138-31.387c-0.377-0.227-0.834-0.408-1.338-0.542-0.504-0.135-1.054-0.221-1.617-0.258-0.563-0.036-1.139-0.023-1.694 0.043-0.554 0.065-1.086 0.184-1.564 0.356l-66.388 24.002" style="fill:#575756;stroke-miterlimit:10;stroke:#414042"/></g><g transform="translate(604.28 762.17)"><path d="m0 0-59.402 19.564c-0.395 0.13-0.844 0.219-1.316 0.268-0.472 0.048-0.97 0.058-1.462 0.029-0.492-0.028-0.98-0.095-1.434-0.198s-0.875-0.242-1.232-0.416l-54.283-26.379c-0.391-0.19-0.684-0.401-0.878-0.618-0.194-0.219-0.29-0.444-0.286-0.664 2e-3 -0.22 0.104-0.435 0.305-0.63 0.201-0.196 0.502-0.373 0.901-0.517l60.213-21.77c0.433-0.156 0.924-0.262 1.442-0.322 0.518-0.059 1.063-0.071 1.602-0.037 0.539 0.033 1.072 0.112 1.567 0.234 0.495 0.123 0.951 0.288 1.337 0.494l53.47 28.585c0.352 0.188 0.601 0.396 0.748 0.61 0.148 0.215 0.196 0.436 0.146 0.651s-0.197 0.424-0.438 0.615c-0.24 0.189-0.575 0.361-1 0.501" style="fill:#ededed;stroke-miterlimit:10;stroke:#414042"/></g><g transform="translate(604.85 762.47)"><path d="m0 0-59.393 19.543c-0.482 0.159-1.03 0.267-1.607 0.327-0.577 0.059-1.184 0.071-1.786 0.036-0.601-0.035-1.197-0.116-1.752-0.241-0.554-0.126-1.068-0.296-1.505-0.508l-54.29-26.359c-0.479-0.233-0.837-0.49-1.075-0.756-0.238-0.267-0.354-0.542-0.351-0.811 4e-3 -0.269 0.129-0.531 0.374-0.77 0.246-0.239 0.613-0.455 1.101-0.631l60.221-21.794c0.527-0.191 1.127-0.321 1.76-0.394 0.634-0.073 1.299-0.087 1.958-0.046 0.659 0.04 1.311 0.137 1.916 0.286 0.606 0.15 1.164 0.352 1.637 0.605l53.46 28.609c0.43 0.23 0.732 0.484 0.913 0.746 0.18 0.262 0.237 0.533 0.176 0.795-0.061 0.263-0.241 0.518-0.535 0.751-0.294 0.232-0.702 0.441-1.222 0.612m-119.65-9.861c-0.4 0.145-0.7 0.321-0.901 0.517s-0.303 0.41-0.306 0.63 0.092 0.445 0.287 0.664c0.194 0.217 0.487 0.428 0.877 0.618l54.283 26.379c0.358 0.175 0.779 0.313 1.233 0.416s0.942 0.17 1.434 0.199c0.492 0.028 0.989 0.019 1.461-0.03 0.473-0.049 0.922-0.138 1.317-0.268l59.402-19.564c0.425-0.14 0.76-0.311 1-0.501 0.241-0.191 0.388-0.4 0.438-0.615 0.049-0.215 1e-3 -0.436-0.146-0.65-0.148-0.215-0.396-0.423-0.748-0.611l-53.471-28.585c-0.385-0.206-0.842-0.371-1.336-0.493-0.495-0.122-1.028-0.202-1.567-0.235s-1.084-0.022-1.603 0.037c-0.518 0.06-1.009 0.166-1.441 0.323l-60.213 21.769" style="fill:#575756;stroke-miterlimit:10;stroke:#414042"/></g><g transform="translate(708.35 665.07)"><path d="m0 0-73.754 26.956c-0.485 0.178-1.026 0.299-1.589 0.367-0.562 0.069-1.145 0.082-1.717 0.045-0.571-0.037-1.129-0.125-1.642-0.264-0.513-0.137-0.979-0.325-1.365-0.56l-58.989-35.967c-0.43-0.262-0.738-0.553-0.929-0.853-0.191-0.301-0.265-0.613-0.222-0.917 0.042-0.304 0.201-0.601 0.472-0.871 0.271-0.271 0.656-0.516 1.151-0.716l75.386-30.542c0.545-0.221 1.15-0.373 1.777-0.458 0.628-0.086 1.277-0.105 1.911-0.06 0.635 0.045 1.253 0.153 1.817 0.323s1.074 0.401 1.493 0.69l57.356 39.552c0.374 0.257 0.622 0.543 0.75 0.838 0.127 0.294 0.136 0.599 0.031 0.896-0.106 0.296-0.324 0.584-0.649 0.847-0.325 0.262-0.756 0.5-1.288 0.694" style="fill:#e30613;stroke-miterlimit:10;stroke:#414042"/></g><g transform="translate(708.95 665.48)"><path d="m0 0-73.737 26.923c-0.595 0.218-1.257 0.366-1.944 0.449s-1.399 0.101-2.096 0.055c-0.698-0.046-1.379-0.155-2.005-0.323-0.625-0.168-1.194-0.398-1.665-0.684l-59.003-35.934c-0.525-0.319-0.903-0.674-1.137-1.041-0.234-0.368-0.325-0.748-0.274-1.12 0.051-0.371 0.243-0.734 0.575-1.065 0.331-0.331 0.802-0.631 1.408-0.877l75.401-30.581c0.666-0.271 1.406-0.456 2.173-0.561 0.767-0.104 1.562-0.127 2.338-0.072s1.532 0.187 2.222 0.395c0.69 0.207 1.313 0.49 1.825 0.842l57.336 39.592c0.456 0.314 0.758 0.664 0.914 1.024 0.155 0.361 0.164 0.733 0.035 1.095s-0.396 0.715-0.794 1.035c-0.396 0.321-0.923 0.611-1.572 0.848m-139.18-13.191c-0.495 0.2-0.879 0.445-1.15 0.715-0.272 0.271-0.43 0.568-0.473 0.872-0.042 0.304 0.031 0.616 0.222 0.916 0.191 0.301 0.5 0.592 0.929 0.854l58.989 35.967c0.387 0.235 0.853 0.423 1.365 0.56 0.513 0.139 1.072 0.227 1.643 0.264s1.155 0.023 1.717-0.045 1.103-0.189 1.588-0.367l73.754-26.956c0.532-0.194 0.964-0.432 1.288-0.694 0.325-0.263 0.543-0.551 0.649-0.847 0.105-0.297 0.097-0.602-0.031-0.896-0.128-0.296-0.375-0.581-0.75-0.839l-57.356-39.551c-0.418-0.289-0.929-0.52-1.492-0.69-0.565-0.17-1.183-0.278-1.817-0.323s-1.284-0.026-1.912 0.06c-0.627 0.085-1.232 0.237-1.777 0.458l-75.386 30.542" style="fill:#575756;stroke-miterlimit:10;stroke:#414042"/></g><g transform="translate(619.05 697.71)"><path d="m0 0-66.516 24.311c-0.441 0.161-0.94 0.271-1.464 0.332-0.526 0.061-1.078 0.074-1.624 0.04-0.545-0.035-1.086-0.116-1.588-0.241-0.503-0.126-0.968-0.296-1.363-0.51l-60.185-32.537c-0.437-0.237-0.764-0.499-0.98-0.77-0.217-0.271-0.322-0.552-0.319-0.825 5e-3 -0.274 0.12-0.54 0.345-0.784s0.561-0.464 1.007-0.645l67.565-27.373c0.487-0.198 1.039-0.333 1.621-0.409s1.192-0.093 1.796-0.052c0.603 0.041 1.2 0.139 1.753 0.291s1.062 0.36 1.493 0.619l59.136 35.6c0.386 0.233 0.657 0.49 0.816 0.757 0.158 0.265 0.205 0.54 0.143 0.807s-0.231 0.527-0.506 0.764c-0.274 0.236-0.651 0.45-1.13 0.625" style="fill:#ededed;stroke-miterlimit:10;stroke:#414042"/></g><g transform="translate(619.67 698.08)"><path d="m0 0-66.504 24.282c-0.538 0.197-1.147 0.331-1.789 0.405-0.642 0.075-1.315 0.09-1.982 0.048-0.667-0.041-1.328-0.14-1.941-0.293-0.615-0.153-1.182-0.361-1.664-0.622l-60.194-32.508c-0.533-0.29-0.932-0.609-1.197-0.94s-0.395-0.674-0.39-1.008c4e-3 -0.335 0.144-0.661 0.419-0.959 0.275-0.299 0.684-0.568 1.229-0.789l67.575-27.407c0.594-0.241 1.27-0.406 1.98-0.5 0.712-0.093 1.459-0.112 2.197-0.063 0.739 0.05 1.468 0.169 2.145 0.357 0.676 0.185 1.299 0.439 1.824 0.756l59.123 35.633c0.472 0.285 0.802 0.599 0.995 0.924 0.193 0.326 0.249 0.662 0.174 0.988-0.077 0.326-0.285 0.643-0.62 0.933-0.334 0.288-0.796 0.549-1.38 0.763m-133.31-12c-0.445 0.181-0.781 0.401-1.007 0.645-0.225 0.244-0.34 0.51-0.344 0.784-4e-3 0.273 0.102 0.554 0.318 0.825s0.543 0.533 0.98 0.769l60.186 32.538c0.394 0.213 0.859 0.384 1.362 0.51 0.502 0.125 1.043 0.206 1.589 0.241 0.546 0.034 1.098 0.021 1.623-0.04 0.525-0.062 1.024-0.171 1.464-0.333l66.516-24.31c0.479-0.175 0.857-0.389 1.131-0.625 0.274-0.237 0.444-0.497 0.506-0.764 0.061-0.267 0.015-0.542-0.143-0.807-0.159-0.267-0.43-0.524-0.817-0.757l-59.136-35.6c-0.43-0.259-0.94-0.467-1.493-0.619s-1.149-0.25-1.753-0.291-1.214-0.024-1.796 0.052-1.134 0.211-1.621 0.409l-67.565 27.373" style="fill:#575756;stroke-miterlimit:10;stroke:#414042"/></g><g transform="translate(538.48 727.15)"><path d="m0 0-60.294 22.037c-0.4 0.146-0.862 0.246-1.354 0.301-0.493 0.056-1.016 0.066-1.539 0.035-0.523-0.032-1.047-0.106-1.54-0.22-0.492-0.115-0.954-0.271-1.354-0.465l-60.883-29.587c-0.441-0.214-0.78-0.452-1.015-0.697-0.236-0.246-0.368-0.5-0.395-0.748-0.026-0.248 0.053-0.489 0.239-0.71 0.187-0.22 0.481-0.42 0.884-0.583l60.9-24.673c0.438-0.178 0.945-0.299 1.487-0.367 0.541-0.068 1.117-0.082 1.693-0.045s1.152 0.126 1.693 0.264c0.541 0.137 1.048 0.325 1.485 0.559l60.276 32.223c0.395 0.211 0.683 0.445 0.866 0.686s0.26 0.49 0.234 0.732-0.155 0.478-0.387 0.692c-0.231 0.214-0.563 0.408-0.996 0.566" style="fill:#009fe3;stroke-miterlimit:10;stroke:#414042"/></g><g transform="translate(539.11 727.49)"><path d="m0 0-60.287 22.012c-0.488 0.178-1.052 0.3-1.653 0.368-0.602 0.067-1.241 0.08-1.88 0.042-0.639-0.039-1.279-0.129-1.88-0.269-0.602-0.14-1.166-0.329-1.655-0.567l-60.888-29.562c-0.538-0.261-0.952-0.551-1.24-0.851s-0.45-0.611-0.483-0.913c-0.033-0.303 0.064-0.599 0.291-0.868 0.227-0.27 0.586-0.514 1.078-0.713l60.906-24.702c0.534-0.218 1.154-0.366 1.816-0.449 0.663-0.083 1.367-0.101 2.072-0.055 0.704 0.045 1.408 0.153 2.07 0.322s1.281 0.398 1.815 0.684l60.267 32.251c0.483 0.258 0.835 0.544 1.057 0.839 0.223 0.295 0.317 0.599 0.285 0.895-0.033 0.296-0.191 0.583-0.474 0.845-0.282 0.262-0.689 0.498-1.217 0.691m-127.88-10.974c-0.403 0.163-0.697 0.363-0.884 0.583-0.186 0.221-0.265 0.462-0.239 0.71 0.027 0.248 0.159 0.502 0.395 0.748 0.235 0.245 0.574 0.483 1.015 0.697l60.883 29.587c0.4 0.194 0.862 0.35 1.355 0.465 0.492 0.114 1.016 0.188 1.539 0.22 0.523 0.031 1.047 0.021 1.539-0.035 0.492-0.055 0.954-0.155 1.354-0.301l60.294-22.037c0.433-0.158 0.765-0.351 0.996-0.566 0.232-0.214 0.362-0.45 0.387-0.692 0.026-0.242-0.051-0.491-0.233-0.732-0.184-0.241-0.472-0.475-0.867-0.686l-60.275-32.223c-0.438-0.234-0.944-0.422-1.485-0.559-0.542-0.138-1.118-0.227-1.694-0.264-0.575-0.037-1.152-0.023-1.693 0.045-0.542 0.068-1.048 0.189-1.487 0.367l-60.9 24.673" style="fill:#575756;stroke-miterlimit:10;stroke:#414042"/></g></g><g transform="translate(393.69 717.76)"><path d="m0 0 206.52 99.229 240.74-71.391-190.54-132.9z" style="fill:none;stroke-miterlimit:10;stroke:#414042"/></g><g transform="translate(393.69 717.76)"><path d="m0 0 256.72-105.07 190.54 132.9" style="fill:none;stroke-miterlimit:10;stroke-width:2;stroke:#fff"/></g><g transform="translate(650.77 340.44)"><path d="m0 0-0.354 272.26" style="fill:none;stroke-miterlimit:10;stroke-width:2;stroke:#fff"/></g></g></g></svg>
