<?xml version="1.0" encoding="UTF-8"?>
<svg width="100mm" height="114mm" version="1.1" viewBox="0 0 100 114" xmlns="http://www.w3.org/2000/svg"><defs><radialGradient id="a" cx="235.18" cy="563.8" r="61.993" gradientTransform="matrix(2.0525 0 0 .93994 -49.109 -102.5)" gradientUnits="userSpaceOnUse"><stop stop-color="#fff" offset="0"/><stop stop-color="#fff" stop-opacity="0" offset="1"/></radialGradient><filter id="filter2178" x="-.36897" y="-.8057" width="1.7379" height="2.6114" style="color-interpolation-filters:sRGB"><feGaussianBlur stdDeviation="39.124349"/></filter></defs><g transform="translate(313.03 -86.663)"><g transform="matrix(.14293 0 0 .16445 -313.82 59.876)" style="stroke-width:1.7258"><path d="m151.54 377.33-16.728-55.105-46.249-72.817 19.68-19.68 70.849 39.361 33.457 18.696 25.584 11.808 13.776 17.712-90.53 72.817z" style="fill:#e9ddaf;stroke-width:1.7258"/><path d="m538.26 776.84 91.514-78.721 16.728 28.536-19.68 30.505-16.728 18.696s-14.76 12.792-20.664 12.792h-29.52c-5.9041 0-13.776-3.9361-13.776-3.9361z" style="fill:#decd87;stroke-width:1.7258"/><path d="m550.07 789.63c-11.808-4.9201-201.72-209.6-201.72-209.6l-167.28-173.19-29.52-26.568 26.568-11.808 1.968-8.8562 10.824-12.792 8.8562 0.98402-1.968-13.776 15.744-7.8721 3.9361-4.9201 20.664-5.9041 7.8721-0.98402 81.673 85.609 35.425 32.473 137.76 139.73 73.801 76.753 42.313 40.345 26.568 32.473-31.489 0.98401-24.6 15.744-22.632 20.664-3.9361 5.9041z" style="fill:#800000;stroke-width:1.7258"/><path d="m12.235 767.2c-0.94113-1.2548-0.94113-15.999-0.94113-15.999l10.98-16.313 24.783-5.0194 9.4113 10.039 10.352 12.862 64.938 66.193s7.8428 11.294 6.2742 12.548-7.8428 12.548-9.0976 12.862-19.764 7.5291-19.764 7.5291l-8.4702-4.392 10.039-16.627-37.018-18.509s-10.039-7.2154-12.235-9.0976-15.372-16.94-15.372-16.94-4.392-11.294-5.0194-12.548-13.176-17.254-13.176-17.254l-8.4702 0.94113z" style="fill:#333;stroke-width:1.7258"/><path d="m156.23 704.77-33.881-50.821-30.116-27.293-15.372-14.744 25.411-1.2548 60.86-13.49-2.196 18.823 8.4702 35.136 18.823 24.156 17.568 19.136 13.176 11.921 26.352 10.666 21.332-8.4702s3.1371 14.431 1.5686 16.627-14.744 39.214-14.744 39.214l-5.6468 23.215s-0.94113 10.98-2.5097 10.039-20.391-24.156-20.391-24.156l-25.724-24.469-26.979-24.156z" style="fill:#333;stroke-width:1.7258;stroke:#000"/><path d="m177.32 654.79 184.78-216.52 78.394-96.125 11.199 4.6663 5.5995-26.131 60.662-58.795 128.79-58.795 44.796-22.398-78.394 135.32-20.532 44.796-182.92 158.65-117.59 114.79-74.661 64.395-10.266 0.93326-23.331-27.998z" style="fill:#e6e6e6;stroke-width:1.7258"/><path d="m195.98 682.79 39.197-32.664 42.93-49.463 91.459-101.72 64.395-66.261 50.396-53.196 50.396-47.596 52.262-53.196 42.93-41.997 53.196-50.396-88.659 173.59-105.46 90.526-140.92 128.79-119.46 110.12-17.732 11.199z" style="fill-opacity:.107;stroke-width:1.7258"/><path d="m160.31 692.54c-1.8823-1.2548-6.9016-5.9605-6.9016-5.9605l3.7645-10.98 5.6468-4.392 9.4113-0.94113 6.2742 2.196 3.4508 5.3331-1.5686 11.294 8.1565 5.6468 6.5879 7.5291 4.392 7.5291s-0.31371 6.2742-1.8823 6.5879-5.9605 2.5097-7.5291 2.5097-8.4702-2.8234-8.4702-2.8234l-3.4508-8.1565-3.1371-6.2742-5.3331-6.9016z" style="fill:#fff;stroke-width:1.7258"/><path d="m164.07 706.97-4.0782-8.4702 4.0782-5.6468 5.9605 4.7057 5.0194 6.9016s4.7057 5.9605 3.4508 5.9605-6.5879 1.2548-6.5879 1.2548l-4.392-1.2548z" style="fill:#fc0;stroke-width:1.7258;stroke:#000"/><path d="m58.978 748.38 24.156-5.6468s13.803-13.49 14.431-14.744 13.49-13.803 13.49-13.803l15.058-12.235 16.313-17.568 29.489 37.018 10.666 15.058-12.548 18.195-15.058 13.49-24.156 21.019-7.2154 14.431s-1.2548 9.725-3.1371 10.352-16.313-4.7057-16.313-4.7057l-20.077-17.568s-12.235-15.999-12.862-17.254-8.1565-8.7839-8.7839-10.666-3.4508-15.372-3.4508-15.372z" style="fill:#666;stroke-width:1.7258"/><path d="m89.11 250.98c-0.80825-0.80825-40.615-56.982-40.615-56.982l9.4969 3.4351s50.314 32.532 50.314 33.34 8.6887 22.025 8.6887 22.025z" style="fill:#a00;stroke-width:1.7258"/><path d="m587.01 765.77 9.1814-13.472 13.558-1.0297s-5.4917 9.0098-6.0923 9.353-10.383 5.7491-10.383 5.7491z" style="fill:#a00;stroke-width:1.7258"/><path d="m94.929 855.38c0-1.0493-4.9473-2.8292-7.8639-2.8292-5.1921 0-9.7751-4.6755-5.9223-6.0419 0.87011-0.30858 2.1922-1.0688 2.938-1.6895s4.3915-2.0255 8.1015-3.1219c5.2105-1.5398 7.4296-2.7404 9.7519-5.2757 2.8022-3.0593 2.8967-3.3597 1.3907-4.4222-0.88866-0.62696-2.4559-1.925-3.4827-2.8846s-4.6881-2.655-8.1361-3.7676c-7.6967-2.4835-21.134-9.0619-26.609-13.027-2.2374-1.6203-5.6392-4.004-7.5594-5.2971-5.2749-3.5523-12.393-10.283-16.036-15.164-2.9309-3.9269-9.5856-19.5-12.599-29.484-0.63786-2.1131-1.4541-3.842-1.8139-3.842-1.7691 0-7.1387 7.4255-7.6422 10.568-0.8231 5.138-1.6572 6.156-5.0438 6.156-2.7961 0-3.2532-0.42404-5.7776-5.36-2.1974-4.2966-2.8045-6.7482-3.0597-12.356-0.29352-6.4502-0.09245-7.4202 2.576-12.427 7.2246-13.555 23.609-23.627 36.163-22.231 5.7975 0.64468 12.376 3.166 14.705 5.6357 2.6451 2.805 4.4734 8.5846 3.6958 11.683l-0.53185 2.1191 7.5636-0.61717c4.16-0.33944 7.6992-0.96313 7.865-1.386s0.87765-0.76881 1.582-0.76881 1.2807-0.4068 1.2807-0.90401 0.50851-0.90451 1.13-0.90512 2.3504-1.0601 3.8421-2.3545 3.5873-2.6924 4.6571-3.1068c1.3455-0.52115 2.1285-1.839 2.5401-4.2754 0.75931-4.4943 3.3218-8.706 6.5458-10.759 1.3911-0.88565 2.7326-1.8699 2.9812-2.1873s1.3673-0.86269 2.486-1.2118 2.0342-1.3193 2.0345-2.1559c4.3e-4 -1.4388 8.0878-9.1711 9.6595-9.2353 1.135-0.0464 4.863-3.3649 4.7185-4.2001-0.70433-4.0713 3.392-8.4812 9.8796-10.636 5.1168-1.6995 5.6457-2.8703 3.0228-6.6905-0.90612-1.3198-2.3952-4.0268-3.3092-6.0156s-2.7451-5.0399-4.0693-6.7801-4.2082-5.5957-6.409-8.5678c-5.4558-7.3679-20.271-22.233-25.246-25.33-2.2374-1.3931-4.2715-2.7772-4.5201-3.0758-1.5854-1.904-12.647-10.939-13.393-10.939-0.50119 0-4.1665-3.1528-8.1451-7.0061l-7.2339-7.0061-0.01248-5.4241c-0.0141-6.1197 1.818-10.961 5.9863-15.82 2.4376-2.8414 3.1661-3.1577 7.145-3.102 4.5735 0.0641 11.22 2.6941 11.838 4.684 0.20683 0.66668-0.46098 1.13-1.6287 1.13-1.0886 0-2.7433 0.9713-3.6771 2.1584s-2.6942 2.4085-3.9119 2.7142c-2.458 0.61692-3.6647 3.2089-2.7847 5.9816 1.8536 5.8403 24.411 9.4376 37.967 6.0547 2.9832-0.74447 13.56-3.4504 23.504-6.0131 26.542-6.8402 35.202-6.9525 46.007-0.59616 11.869 6.9821 9.1247 13.786-3.3374 8.2745-5.846-2.5854-7.735-2.8076-9.9632-1.1718-1.8766 1.3776-2.2926 3.2984-3.0227 13.957-0.57139 8.3417-0.37325 9.4629 3.0851 17.458 0.75276 1.7402 2.8408 4.9626 4.6401 7.1609s3.5281 4.3813 3.8418 4.8512c1.1006 1.6487 4.6624-1.8736 16.154-15.975 25.801-31.66 31.097-37.967 43.393-51.667 5.2207-5.817 11.466-12.868 13.878-15.668s7.4428-8.346 11.179-12.324c6.3795-6.7919 17.372-19.871 23.168-27.566l2.5723-3.415-9.3524-9.8063c-14.323-15.018-60.366-60.685-64.949-64.419-6.9283-5.6445-25.804-24.407-36.888-36.667-5.8152-6.4323-12.2-13.348-14.189-15.368-12.586-12.785-17.611-20.442-19.593-29.858-0.52709-2.5033-1.2707-4.9583-1.6524-5.4555s-0.96943-2.3278-1.306-4.0681c-0.97069-5.0187-8.5702-28.841-11.103-34.805-2.4393-5.7435-17.39-32.788-20.241-36.613-0.92635-1.243-2.7758-4.0907-4.1098-6.3281s-4.5017-6.7123-7.0392-9.9442-5.3384-7.0167-6.2241-8.4107-3.6208-4.7545-6.0779-7.4677-4.4674-5.3967-4.4674-5.9633-1.9323-2.8522-4.2941-5.079-5.7179-6.1686-7.4581-8.7595c-3.0864-4.5952-8.3869-11.047-15.939-19.401-5.5424-6.1309-10.067-18.231-8.9812-24.018 0.45161-2.4073 1.1481-3.2906 2.9515-3.7432 1.2982-0.32582 2.8787-0.22739 3.5123 0.21873s5.7574 3.9587 11.386 7.8058 11.862 8.1725 13.85 9.612c6.3476 4.5944 23.117 15.568 24.694 16.159 0.83711 0.3138 3.3526 1.8488 5.5901 3.411s8.3395 5.4054 13.56 8.5404 12.34 7.4988 15.82 9.6974c9.2711 5.8567 21.533 13.141 30.284 17.991 4.2263 2.3422 8.7017 4.9659 9.9455 5.8305s6.5322 3.4908 11.752 5.8361 12.949 5.8828 17.175 7.8612 10.125 4.5222 13.108 5.6529c11.885 4.5045 20.179 8.592 24.252 11.951 1.4055 1.1593 3.1266 2.1078 3.8248 2.1078 1.3842 0 2.7156 3.8713 1.8262 5.3102-0.30352 0.49111-0.19096 1.116 0.25014 1.3886s1.0454 1.6228 1.3429 3.0005 1.8225 3.9287 3.3888 5.6689 4.3248 4.9599 6.1299 7.1548c7.7232 9.3907 64.829 67.519 77.415 78.801 1.9869 1.781 7.3237 7.2729 11.86 12.204s9.9333 10.797 11.994 13.034l3.7473 4.0681 3.3739-3.7773c5.5766-6.2433 11.396-13.863 16.793-21.987 2.8074-4.2263 6.778-9.5147 8.8235-11.752s6.587-7.9327 10.092-12.656c7.3374-9.8882 20.175-25.166 30.165-35.898 6.1767-6.6358 7.3411-7.4864 10.998-8.0348 3.2379-0.48555 4.3156-0.30483 5.1728 0.86737 1.2784 1.7483 2.2394 1.9156 2.2394 0.38979 0-0.6 2.1105-5.3484 4.69-10.552 4.0635-8.1973 5.9236-10.738 13.925-19.023 5.0794-5.2593 11.682-12.489 14.674-16.067s8.0347-8.8659 11.208-11.752 7.9562-7.6703 10.628-10.631c5.0862-5.636 11.679-11.648 14.329-13.066 0.85643-0.45835 4.3945-1.851 7.8624-3.0949s9.763-3.7727 13.989-5.6198 11.549-4.6872 16.272-6.3114c9.9914-3.4356 13.431-4.9152 29.539-12.706 6.5509-3.1683 13.67-6.456 15.82-7.306s5.7401-2.6318 7.9776-3.9596 14.848-7.9004 28.024-14.606 26.804-13.946 30.284-16.09c13.921-8.5763 19.146-10.731 23.032-9.4971 1.0056 0.31916 1.8284 1.1631 1.8284 1.8754s0.40681 1.2951 0.90401 1.2951c2.5538 0-0.0334 5.9325-5.9495 13.642-5.3431 6.9627-17.366 25.265-21.622 32.915-1.9364 3.4805-10.729 20.687-19.539 38.237s-16.411 32.398-16.891 32.997-4.8696 8.8144-9.7555 18.258-11.646 21.821-15.024 27.506c-6.194 10.426-6.8838 12.162-5.2364 13.18 0.49722 0.30729 0.90402 0.86793 0.90402 1.2458 0 0.94403-19.102 19.998-20.048 19.998-0.41823 0-1.9443 1.1187-3.3913 2.486-4.7711 4.5083-10.649 9.1736-23.635 18.758-4.0419 2.9832-9.8503 7.6956-12.907 10.472s-6.4997 5.6804-7.65 6.4535-4.4006 3.5866-7.2229 6.2523-8.5934 7.6087-12.825 10.984-12.671 10.824-18.754 16.552-13.203 12.083-15.82 14.122-6.8089 5.5747-9.3141 7.8564-8.7905 7.8097-13.967 12.285c-12.99 11.229-18.994 17.095-18.994 18.557 0 0.68241 4.4647 5.7054 9.9216 11.162s10.033 10.24 10.17 10.63c0.57699 1.6448 22.703 24.586 44.993 46.649 13.179 13.045 24.368 24.162 24.865 24.705s2.7317 2.6838 4.9654 4.7583 7.9291 7.4721 12.656 11.995c13.916 13.314 24.042 22.723 37.876 35.194 7.155 6.4502 17.992 17.423 24.083 24.384s14.18 15.911 17.976 19.888 9.7562 10.984 13.243 15.569 6.8751 8.6534 7.5289 9.0401c3.5735 2.1138 4.1477 8.3916 1.6059 17.558-2.5501 9.1968-6.2477 14.816-14.262 21.674-0.94116 0.80538-4.3554 4.4939-7.5873 8.1968-5.9191 6.7817-13.693 13.508-27.888 24.13l-7.7063 5.7665-10.001 0.26623c-5.5008 0.14643-13.932 0.88211-18.735 1.6348-9.9533 1.5597-12.792 1.1191-15.059-2.3372-0.88134-1.3435-6.8722-7.3962-13.313-13.45-15.146-14.237-24.002-23.101-25.823-25.848-0.80106-1.2082-3.0441-3.9-4.9845-5.982s-4.7369-5.4126-6.2144-7.4014-6.225-7.2773-10.55-11.752-11.91-12.611-16.855-18.08-12.364-13.199-16.487-17.176-10.135-10.08-13.362-13.56c-7.166-7.7302-27.005-27.99-31.602-32.272-7.194-6.7014-31.718-32.218-36.31-37.78-2.6644-3.2269-7.1198-8.1369-9.9008-10.911s-6.2746-6.541-7.7635-8.371-3.1192-3.3273-3.6231-3.3273-5.7946 4.7173-11.757 10.483-12.88 12.376-15.372 14.69c-5.1533 4.7852-36.281 34.437-43.327 41.272-2.5626 2.486-8.0982 7.3442-12.301 10.796s-9.4726 7.9922-11.71 10.09-5.4514 4.969-7.142 6.3804-5.1836 4.3968-7.7619 6.6342-7.8057 6.4294-11.616 9.3155-6.9283 5.5919-6.9283 6.0128c0 1.0991 4.9253 3.8288 11.988 6.6439 4.6764 1.864 7.6597 2.4361 12.704 2.4361 6.5274 0 6.6297-0.0372 10.411-3.7808 5.2236-5.1719 5.5249-6.7869 3.042-16.307-0.66797-2.5611-0.58824-3.6032 0.33421-4.3688 1.2437-1.0322 4.9142-0.38303 4.9142 0.86912 0 0.38462 1.8492 2.657 4.1094 5.0498 3.513 3.7191 4.0262 4.7294 3.5361 6.9609-0.33741 1.5363-0.12628 3.1491 0.5131 3.9195 0.71108 0.8568 0.85818 2.4837 0.42574 4.709-0.36339 1.87-0.7872 6.5601-0.94181 10.423-0.27901 6.97-1.1964 11.144-3.6525 16.618-0.70293 1.5668-1.2781 3.6933-1.2781 4.7256s-1.9918 5.8525-4.4263 10.712c-5.9226 11.821-7.0364 14.635-9.1453 23.109-2.1263 8.5431-2.2269 11.422-0.5402 15.459 2.463 5.8948 7.0777 8.2882 11.459 5.9433 2.2188-1.1875 2.2088-3.2767-0.0396-8.2316-2.3769-5.2382-2.4102-8.9128-0.0807-8.9128 0.98631 0 2.0121 0.83486 2.3556 1.9172 0.33467 1.0544 1.7565 3.597 3.1596 5.6501 4.1978 6.1424 4.2337 8.5788 0.18884 12.794-1.8978 1.9775-4.5747 5.121-5.9488 6.9855-2.1387 2.902-3.0015 3.39-5.9934 3.39-3.1958 0-11.544-2.8675-12.667-4.351-0.25859-0.34158-2.0085-1.4039-3.8887-2.3608-3.4357-1.7484-7.0884-6.1942-11.896-14.479-1.4255-2.4565-4.9701-7.0228-7.8769-10.147s-5.285-6.0005-5.285-6.391c0-0.95729-3.3909-4.4441-8.5849-8.8277-2.3565-1.9888-5.5587-4.8729-7.116-6.409s-5.9536-4.922-9.7697-7.5241l-6.9383-4.7312-3.6769 2.1001c-2.9829 1.7037-3.6782 2.6007-3.6839 4.7527-9e-3 3.4506-2.9611 9.4861-6.1068 12.486-1.3686 1.305-4.9893 3.6102-8.0461 5.1228-3.3604 1.6628-6.6917 4.1818-8.4257 6.3712-2.7178 3.4314-10.4 8.1724-13.243 8.1724-0.72263 0-2.1052 1.846-3.0723 4.1023s-3.7085 6.0192-6.0919 8.3621-4.8835 5.8546-5.5557 7.8038c-1.1938 3.4615-1.162 3.5877 1.3686 5.4241 12.205 8.8569 13.141 10.149 13.704 18.927 0.51039 7.9528-1.0889 12.126-7.0645 18.432-6.8011 7.1781-15.064 9.9142-30.517 10.106-5.76 0.0713-10.125-0.23863-10.125-0.71896zm26.385-11.779c5.3073-3.5903 8.0246-6.9233 9.4174-11.551 1.7681-5.8749 0.0288-9.8367-4.175-9.5098-0.25601 0.0199-2.6968-1.0506-5.4241-2.379-5.7169-2.7845-7.3487-5.6978-5.6751-10.132 0.99162-2.6271 0.95403-2.6796-1.9199-2.6796-2.4585 0-2.9197 0.32811-2.8595 2.034 0.0486 1.3769-0.51233 2.1164-1.7362 2.289-2.5915 0.36552-15.401-7.8091-21.244-13.557-10.533-10.362-28.928-34.954-28.928-38.674 0-2.4084 3.7242-3.4352 4.939-1.3617 0.51537 0.87961 1.7756 2.6635 2.8005 3.9642s3.0038 4.3476 4.3977 6.7707c1.8665 3.245 2.7365 4.0786 3.302 3.164 0.61834-1 1.7861-0.68641 5.9985 1.6109 2.8769 1.569 7.0613 3.3691 9.2988 4.0003s4.4749 1.4394 4.9721 1.796c1.1421 0.81904 19.166 5.3632 21.273 5.3632 1.6125 0 2.6838 2.2894 2.0093 4.2941-0.20912 0.62151-1.4019 1.13-2.6506 1.13-2.3589 0-14.17-3.1741-16.593-4.4593-0.76214-0.4042-2.7962-1.0355-4.5201-1.4029s-5.9329-2.0615-9.3534-3.7647-6.4437-2.8721-6.7183-2.5974 0.71605 1.8153 2.2015 3.4238c16.916 18.318 20.245 20.913 27.008 21.056 5.8353 0.12309 8.5652 1.0502 8.6807 2.9482 0.0881 1.4485 0.56238 0.0661 2.4244-7.067 0.45426-1.7402 1.6995-4.5879 2.7672-6.3281s1.9428-4.0498 1.9446-5.1325c2e-3 -1.0827 1.1221-2.8267 2.4894-3.8757s3.1264-3.0108 3.9091-4.3597c1.0206-1.759 2.6517-2.7603 5.7682-3.5413 4.6822-1.1734 10.924-5.0303 12.299-7.6002 0.4675-0.87351 0.84999-2.379 0.84999-3.3454 0-1.3228 1.3626-2.2668 5.5111-3.8182 8.0361-3.0053 14.01-9.26 10.761-11.268-0.49721-0.30729-0.90402-1.5423-0.90402-2.7446 0-2.3865 2.4631-4.3505 6.6918-5.3358 1.443-0.33623 3.8009-1.8715 5.2396-3.4117l2.6159-2.8004-2.9281-3.021c-1.6104-1.6616-3.1669-2.6346-3.4587-2.1624-0.94136 1.5232-7.5411 2.0298-14.037 1.0776-3.4804-0.51021-11.006-1.5951-16.724-2.4109-11.06-1.578-18.08-3.9882-18.08-6.2071 0-2.2883 1.5379-2.4749 5.1385-0.6236 2.156 1.1085 7.0094 2.1501 12.942 2.7774 5.2207 0.552 11.037 1.4094 12.925 1.9054 4.616 1.2124 16.135 0.86942 15.363-0.45738-2.2945-3.9409-8.507-12.569-12.369-17.178-2.5403-3.0316-5.7864-7.2318-7.2135-9.3338-3.8546-5.677-4.5773-6.0992-8.0265-4.6886-3.9098 1.5989-5.1989 2.9743-5.1989 5.5469 0 1.6882 0.71305 2.3503 3.3901 3.1478 9.3506 2.7856 12.543 4.6772 10.268 6.0835-1.113 0.68784-12.732-2.0908-14.475-3.4617-1.5584-1.2256-4.5746-0.80994-6.4864 0.89397-0.78496 0.69959-1.8725 1.272-2.4167 1.272s-2.234 1.0472-3.7552 2.3272c-1.9492 1.6401-2.7083 3.0207-2.5713 4.676 0.10692 1.2919-0.29356 2.5115-0.88994 2.7103s-2.5396 1.349-4.3183 2.5561-3.792 2.1946-4.474 2.1946c-1.8353 0-8.357 6.3984-9.4442 9.2658-0.51839 1.3671-0.69842 3.7062-0.40006 5.1981 0.44695 2.2347 0.24397 2.7194-1.1525 2.7521-5.0178 0.11747-13.883 5.8036-13.913 8.9239-0.02965 3.0711-1.6022 3.9831-7.3618 4.2693-3.1529 0.15671-7.5001 0.95306-9.6604 1.7697-10.169 3.8441-20.003-2.4472-18.504-11.839 1.3024-8.1599-0.22273-9.7961-8.4419-9.0564-6.5654 0.59083-10.617 1.8506-14.308 4.4486-1.4813 1.0427-3.4788 2.3026-4.439 2.7998-4.0431 2.0938-10.313 14.496-8.3309 16.479 0.31574 0.31574 1.8901-0.67144 3.4986-2.1937s3.8131-3.2234 4.8991-3.7803c2.6605-1.3642 11.331-1.2869 13.18 0.11753 1.8262 1.387 4.6864 8.0089 5.5643 12.882 1.762 9.7811 8.1781 23.444 14.175 30.185 2.384 2.6797 6.6136 6.4535 9.3992 8.3862 6.5427 4.5394 22.001 12.506 24.266 12.506 0.96486 0 6.7865 2.4867 12.937 5.526 9.2764 4.5841 11.279 5.9324 11.751 7.9101 0.31257 1.3113 0.94841 2.868 1.413 3.4595 2.0608 2.6235 0.33727 6.1065-4.6811 9.46-5.8269 3.8938-6.4639 5.0454-3.0206 5.4609 4.0894 0.49345 8.9201-0.87103 13.104-3.7013zm-0.16818-76.062-9.4921-1.6213c-13.721-2.3398-27.499-10.005-21.867-12.167 0.65218-0.25027 2.1777 0.30737 3.39 1.2392s3.0956 1.7033 4.185 1.7143 2.2016 0.37763 2.4717 0.8146c1.015 1.6423 24.409 6.4166 31.511 6.4308 3.652 7e-3 5.6056 2.2197 3.2674 3.7003-1.4726 0.93242-7.6677 0.88121-13.466-0.11131zm16.272-19.544c-23.455-2.4821-34.54-5.3806-35.093-9.1754-0.3804-2.6108 2.6151-2.6601 7.8533-0.12931 2.1098 1.0193 6.9944 2.2136 10.855 2.6538s8.1062 1.0735 9.4355 1.4071 8.0133 0.86832 14.854 1.1882c11.64 0.54441 12.437 0.69746 12.437 2.3897 0 1.6744-0.6348 1.8152-8.5881 1.9044-4.7235 0.053-10.012-0.0543-11.752-0.23847zm110.77 17.244c1.8052-5.4282 4.7753-12.514 6.6002-15.746 4.4474-7.8762 6.4907-13.077 6.9601-17.716 0.2145-2.1199 0.81873-5.7674 1.3427-8.1056s0.78455-4.4194 0.57901-4.6249-3.8934 0.13519-8.1952 0.75717c-14.588 2.1092-29.479-1.9468-41.556-11.319-1.9285-1.4966-4.0725-4.0759-4.7643-5.7317s-3.182-4.4229-5.5337-6.1491-7.2778-6.3894-10.947-10.363-7.0253-7.0051-7.4581-6.7376-0.787 1.5491-0.787 2.8479-0.60463 3.0296-1.3436 3.8462c-1.2132 1.3406-1.0159 1.6341 2.034 3.0239 4.8699 2.2192 14.965 12.141 16.886 16.596 2.0986 4.8676 1.3711 7.7639-3.0641 12.199-2.8125 2.8125-4.098 3.4502-6.9475 3.446-5.6416-8e-3 -9.6701-1.5468-11.588-4.4263-1.4283-2.1439-2.5463-2.7179-5.8761-3.0169-2.2617-0.20312-4.2535-0.26573-4.4262-0.13915-0.52117 0.38188 2.9092 5.7794 3.673 5.7794 0.39 0 0.71853 0.50851 0.73005 1.13 0.0345 1.8635 7.9366 9.5672 10.134 9.8798 1.2816 0.18229 2.7153 1.5653 3.8531 3.7167 1.113 2.1046 3.9931 4.9175 7.4655 7.2914 3.1094 2.1257 7.9911 5.757 10.848 8.0694 7.4438 6.0248 18.514 14.209 19.22 14.209 1.3431 0 9.2638 11.323 13.304 19.018l4.3118 8.213 0.63192-8.04c0.43013-5.4726 1.68-11.192 3.9141-17.909zm321.29 20.399c2.7016-0.48836 7.5353-0.88793 10.741-0.88793 4.4392 0 6.6093-0.47898 9.1001-2.0085 2.6372-1.6195 14.369-10.339 19.779-14.7 2.4714-1.9924 22.63-25.568 25.136-29.396 1.4644-2.2374 3.8469-6.337 5.2944-9.11l2.6318-5.042-3.0392-4.4502c-1.6716-2.4476-8.1467-9.9147-14.389-16.594-11.27-12.058-67.628-68.178-82.277-81.929-4.2054-3.9476-16.206-15.525-26.668-25.728-22.967-22.397-34.689-33.592-40.719-38.888-6.548-5.7513-27.696-27.116-36.452-36.825-4.1377-4.5884-7.8273-8.3425-8.199-8.3425-1.2221 0-12.982 11.222-15.631 14.916-1.4261 1.9888-4.0913 4.4297-5.9227 5.4241s-5.1044 4.1472-7.2732 7.0061-4.6018 5.1981-5.4065 5.1981-2.9117 1.4034-4.6822 3.1186c-5.1097 4.9502-9.4484 8.872-13.052 11.798-1.8372 1.4916-5.8683 5.0079-8.958 7.814s-7.4337 6.7285-9.6532 8.7165l-4.0355 3.6146 3.4535 3.9397c1.8994 2.1668 6.4499 7.1942 10.112 11.172s7.9874 9.0627 9.6112 11.3 3.97 4.8817 5.2138 5.8761 2.8758 2.4915 3.6269 3.3268c1.4379 1.5992 45.354 46.649 72.495 74.367 8.7914 8.9782 18.351 19.127 21.244 22.553s8.468 9.528 12.389 13.56 10.475 11.196 14.564 15.919c11.215 12.955 23.128 25.584 34.276 36.336l10.024 9.6675 5.8761-0.41743c3.2318-0.2296 8.0865-0.81701 10.788-1.3054zm-15.756-5.3944c-0.53301-1.6794 4.2095-16.15 6.149-18.762 1.1383-1.5331 2.1289-0.73324 2.6833 2.1665 0.53971 2.8233-2.7872 16.718-4.2376 17.698-1.8226 1.2314-4.0214 0.70382-4.5947-1.1026zm30.288-10.234c-3.5665-1.782-3.2802-3.94 1.0485-7.9043 2.3647-2.1656 3.8142-4.2358 3.6598-5.2269-0.24013-1.5408 1.5806-2.8692 10.994-8.0205 1.0931-0.59821 3.4887-1.2531 5.3235-1.4553s3.8671-0.80837 4.5162-1.3471c1.8212-1.5115 4.701-0.69351 5.0156 1.4246 0.41611 2.8022-1.759 6.339-7.66 12.455-8.3373 8.6408-17.606 12.719-22.897 10.075zm13.116-8.4516c3.971-2.6471 9.7562-8.4694 9.0838-9.1419-1.1816-1.1816-5.3021 1.1976-10.523 6.076-4.4472 4.1553-5.3813 5.4322-3.9847 5.4467 1.0033 0.0105 3.4441-1.0609 5.4241-2.3807zm-32.502-1.5139c-2.045-1.4954-0.92318-4.0633 2.843-6.508 1.3875-0.90064 4.7917-3.6025 7.565-6.0041s5.3158-4.3666 5.6501-4.3666c1.3127 0 0.50638 4.1018-1.3219 6.7242-1.6744 2.4017-11.71 11.356-12.727 11.356-0.20119 0-1.1053-0.54071-2.0091-1.2016zm-18.591-14.885c-9.7715-10.068-24.524-23.996-30.322-28.627-4.7954-3.8302-48.469-47.692-57.136-57.382-2.862-3.1999-6.2207-6.8875-7.4637-8.1946s-3.607-3.9775-5.2533-5.9342-12.245-12.914-23.553-24.35c-18.55-18.761-23.963-24.822-30.724-34.409-4.6084-6.5345-1.0135-4.6905 6.2292 3.1953 4.2064 4.5799 15.784 16.605 25.728 26.722 17.418 17.721 27.73 28.631 38.852 41.104 2.8818 3.2318 12.009 12.792 20.282 21.244s17.415 18.012 20.314 21.244 7.364 7.6624 9.9205 9.8456c7.6823 6.5606 39.822 38.042 41.003 40.163 1.281 2.301 1.4321 3.3347 0.48405 3.312-0.37291-9e-3 -4.1359-3.5791-8.3621-7.9338zm41.585-5.957c0-3.4484 18.932-15.021 24.574-15.021 3.4517 0 0.98393 2.2306-10.171 9.1938-11.105 6.9318-14.402 8.2661-14.402 5.8276zm-15.157-8.6972c-1.6076-0.97765-2.923-2.1666-2.923-2.642s-5.8331-6.8886-12.962-14.252-15.935-16.845-19.568-21.071-28.616-29.56-55.517-56.297l-55.239-54.902c-8.3206-8.2698-25.084-26.002-27.558-29.149-1.0745-1.3673-2.2617-2.486-2.6383-2.486s-3.7064 2.9493-7.3996 6.5541c-9.3978 9.1728-28.849 26.291-29.329 25.811-0.59623-0.59622 4.4444-5.556 15.896-15.641 11.471-10.102 38.029-34.683 39.002-36.098 0.34586-0.50302 0.8932-0.65023 1.2163-0.32714s-3.2807 4.2984-8.0084 8.834l-8.5958 8.2465 9.1875 8.6754c5.0531 4.7715 9.8492 9.6674 10.658 10.88s25.624 26.477 55.145 56.143c50.655 50.904 68.824 69.655 74.596 76.988 1.3698 1.7402 5.6508 6.0117 9.5133 9.4922s9.9396 9.5121 13.505 13.404c5.5651 6.0748 6.3023 7.255 5.2124 8.3449s-1.6828 1.018-4.1924-0.50812zm42.59-6.8148c-1.0097-2.6313 1.378-3.5088 10.55-3.8772 7.4106-0.29765 9.0263-0.13016 9.0263 0.93574 0 0.93294-2.0987 1.6134-7.4581 2.4183-4.102 0.61601-8.3824 1.3095-9.512 1.5411-1.3314 0.27296-2.2481-0.0851-2.6061-1.0179zm-19.871-12.848c-2.0562-1.3652-6.3276-5.2868-9.4922-8.7146s-7.1352-7.4959-8.8237-9.0401c-4.482-4.0989-82.014-81.602-106.4-106.36-11.484-11.659-26.097-26.283-32.475-32.498s-13.98-14.293-16.893-17.951c-5.987-7.5166-6.0379-7.045 1.3978-12.935 5.9605-4.7216 7.2139-4.3876 1.8292 0.48748l-4.3666 3.9534 5.1476 5.7648c7.2257 8.0922 21.68 22.859 29.175 29.807 3.4805 3.2262 12.634 12.528 20.34 20.67 15.21 16.07 40.061 41.162 47.951 48.416 2.7134 2.4946 7.2484 7.3763 10.078 10.848 6.4699 7.9391 6.7336 8.2084 28.315 28.913 20.861 20.014 40.217 39.484 40.218 40.455 8.2e-4 1.3319-2.3183 0.63129-5.9981-1.8119zm-165.31-192.78c0.30729-0.4972 0.96551-0.90401 1.4627-0.90401s0.6526 0.40681 0.34531 0.90401-0.96552 0.90402-1.4627 0.90402-0.65259-0.40681-0.3453-0.90402zm-233.97 196.92c1.176-1.1048 2.0923-3.0249 2.0923-4.3844 0-2.3008-4.6866-9.9176-6.1078-9.9264-0.36979-3e-3 -1.9724-1.2227-3.5614-2.712-3.4185-3.2041-3.8911-3.3082-3.8911-0.85666 0 1.0182-1.1029 2.8734-2.451 4.1227-2.0282 1.8797-2.2232 2.4156-1.13 3.107 0.72654 0.45955 0.9928 0.84177 0.59171 0.84939-0.40109 8e-3 -0.14097 0.85376 0.57808 1.8803s1.091 2.694 0.82647 3.7054c-0.33773 1.2915 0.29751 2.4754 2.134 3.9771 3.3937 2.775 8.1085 2.8776 10.919 0.23759zm-19.222-5.1536c0.55425-0.8968-3.7564-7.2486-7.8852-11.619-2.1099-2.2333-3.0377-2.6845-3.9549-1.9233-2.0024 1.6619-1.4523 7.2552 0.99321 10.099 2.83 3.2906 9.611 5.4432 10.847 3.4434zm-18.11-12.383c0.6733-1.7546-0.3767-3.7874-3.4331-6.6462-1.8864-1.7644-2.343-3.0304-2.343-6.4952 0-5.2935 0.88757-7.6776 4.206-11.297 3.7725-4.1152 6.3816-5.2504 13.257-5.7681l6.1632-0.46406-5.1538-8.1361-7.7327-12.204c-2.5943-4.0924-3.7245-6.3009-5.7825-11.3-1.3034-3.1663-2.5051-14.233-2.6182-24.111l-0.0794-6.935-4.5201 0.45806c-6.7527 0.6843-11.257 1.6503-26.668 5.719-13.78 3.6381-14.233 3.695-27.348 3.4362-7.3345-0.14479-13.335 0.0276-13.334 0.38296s0.91658 1.1312 2.0353 1.7239 2.6442 1.733 3.39 2.5338 3.4918 3.058 6.1021 5.0159 4.7461 3.8459 4.7461 4.1956 2.6173 2.6926 5.8162 5.2065c8.6461 6.7947 22.522 21.906 27.237 29.663 7.5044 12.345 11.824 19.061 15.953 24.806 9.4615 13.164 9.1118 12.81 10.107 10.217zm58.823-4.6806c2.0792-1.8645 6.1699-5.4241 9.0904-7.9101 9.0468-7.701 12.609-10.81 13.548-11.826 2.6349-2.8508 35.756-32.017 50.219-44.223 15.776-13.314 31.424-28.271 65.71-62.807 30.174-30.394 35.55-36.203 35.995-38.895 0.28823-1.7402 0.72913-4.3845 0.97976-5.8761 1.3807-8.2168 4.2039-11.814 7.0438-8.9738 0.78034 0.78034 1.4188 2.5424 1.4188 3.9156s0.24751 2.7443 0.55002 3.0468c0.62918 0.62917 12.808-9.4007 22.899-18.859 3.7593-3.5235 9.6828-8.672 13.163-11.441 7.3489-5.847 25.163-20.943 35.478-30.065 8.2833-7.3251 21.521-18.803 29.193-25.312 22.493-19.084 28.142-23.969 32.51-28.113 2.7346-2.5938 7.4129-6.6056 10.396-8.9152 16.441-12.729 39.742-33.04 43.404-37.836 1.6654-2.1811 8.3306-14.658 14.812-27.727s12.408-24.451 13.17-25.293 1.3868-1.8609 1.3868-2.2624c0-0.80784 8.8428-19.392 12.275-25.796 1.1989-2.2374 3.759-7.3226 5.689-11.3s5.7345-11.097 8.4546-15.82 6.4687-11.639 8.3304-15.368c4.843-9.7006 23.163-38.958 27.159-43.374 2.2378-2.4727 0.32843-2.3287-3.8428 0.28984-1.8546 1.1643-7.0333 3.8435-11.508 5.9537s-9.3566 4.5001-10.848 5.3108c-9.7622 5.3056-21.71 11.583-27.12 14.248-3.4804 1.7148-7.7519 3.9917-9.4921 5.0598-3.7423 2.2968-22.257 11.607-23.082 11.607-0.65214 0-11.116 4.4429-18.503 7.8564-2.7346 1.2637-11.278 4.6656-18.984 7.5599-13.851 5.2017-27.148 10.779-28.024 11.755-0.24861 0.27684-1.7907 1.045-3.4269 1.707-3.1601 1.2786-8.063 6.6814-14.863 16.379-3.923 5.5945-15.734 18.235-23.747 25.414-1.9888 1.7819-7.6841 7.6147-12.656 12.962s-9.7296 10.389-10.572 11.204c-2.331 2.2547-4.157 12.69-4.3224 24.702-0.0305 2.2125-3.8332 2.916-6.9763 1.2907-1.4462-0.74785-3.4131-2.815-4.371-4.5936s-2.2386-3.2339-2.846-3.2339-2.241 1.5255-3.6301 3.39c-4.1098 5.5163-13.882 17.61-16.983 21.018-1.5836 1.7402-4.8658 6.0117-7.2938 9.4921-4.364 6.2556-16.151 20.001-23.359 27.24-2.0456 2.0545-5.7534 6.2583-8.2394 9.3419s-5.9439 7.3606-7.6841 9.5046-4.1811 5.2542-5.4241 6.9116-6.1518 7.7002-10.908 13.428-9.9005 12.256-11.431 14.507-4.4314 5.7413-6.4468 7.7567-5.3016 5.8691-7.3028 8.5638c-5.8586 7.889-7.5442 10.016-11.436 14.432-2.0243 2.2968-6.0924 7.1792-9.0401 10.85s-5.9948 7.3235-6.7712 8.1174-6.2683 7.4389-12.204 14.767c-14.788 18.256-17.07 21.011-22.558 27.246-2.6262 2.9832-7.9457 9.4922-11.821 14.464-9.3787 12.033-14.896 18.601-22.021 26.216-3.2564 3.4804-9.9887 10.765-14.961 16.187-9.2391 10.076-17.769 18.559-19.828 19.719-0.63334 0.35683-2.9205 3.0011-5.0825 5.8761s-7.2051 8.7306-11.207 13.012c-10.04 10.743-9.9128 10.558-8.8586 12.86 2.5222 5.5075 22.953 28.32 29.131 32.526 3.0472 2.0748 3.3587 1.999 7.6712-1.8681zm-14.878-14.286c0-0.27485 2.5261-2.8174 5.6135-5.6501 13.802-12.664 39.741-39.584 48.08-49.899 5.0244-6.2151 9.4403-11.436 9.8132-11.602s0.67801-0.84376 0.67801-1.5067 0.30592-1.341 0.67982-1.5067 2.7016-2.7422 5.1726-5.7254 6.8323-7.8649 9.6917-10.848 7.5492-8.4918 10.422-12.241c5.98-7.8058 11.566-14.427 20.591-24.409 3.4804-3.8493 9.5826-10.769 13.56-15.377 10.628-12.313 46.919-49.685 57.934-59.66 1.9464-1.7627 11.675-11.705 21.619-22.095s31.301-32.211 47.461-48.493 39.586-39.901 52.061-52.487c20.158-20.339 29.272-29.147 52.275-50.524 3.4376-3.1945 11.422-10.893 17.743-17.108s12.934-12.579 14.696-14.142 4.2047-4.4278 5.4284-6.3663 3.7988-4.8984 5.7223-6.5774c6.2899-5.4905 21.288-19.349 27.244-25.173 3.2069-3.1362 6.0466-5.4864 6.3103-5.2227 0.91749 0.91739-4.7483 7.4001-19.51 22.324-8.1688 8.2581-15.271 15.784-15.783 16.724-0.88582 1.6271-25.242 25.919-38.333 38.232-3.3834 3.1823-9.6346 9.081-13.892 13.108s-12.95 12.204-19.319 18.17-13.869 13.259-16.669 16.207-21.565 21.963-41.702 42.257-42.511 43.024-49.721 50.51c-19.823 20.583-30.77 31.665-45.278 45.835-7.2517 7.0831-14.981 14.853-17.176 17.267s-7.8557 8.4263-12.579 13.361-11.833 12.623-15.798 17.085-10.087 11.164-13.603 14.893c-7.8313 8.3057-18.088 20.632-22.106 26.566-1.6452 2.43-6.2896 7.9298-10.321 12.222-8.1996 8.7303-10.717 11.665-19.385 22.601-12.312 15.533-31.782 36.312-43.161 46.062-1.9495 1.6705-6.0518 5.4335-9.1163 8.3621-3.1554 3.0156-6.3899 5.3248-7.4581 5.3248-1.0374 0-1.8863-0.22487-1.8863-0.49971zm-28.539 15.767c-0.34164-0.5528-0.0606-1.4048 0.62466-1.8933 0.94816-0.67599 0.85016-0.75983-0.41013-0.35093-0.91077 0.2955-2.1312 0.55022-2.712 0.56603-0.5808 0.0158-0.26641 0.62603 0.69873 1.356 2.0966 1.5858 2.6398 1.6831 1.7988 0.32219zm-8.529-3.7778c1.7888 0.46778 2.0242 0.27027 1.6021-1.344-0.27217-1.0408 0.0935-2.7322 0.8125-3.7588 1.6602-2.3703 7.0561-2.6051 7.9234-0.3448 0.53383 1.3911 0.73416 1.3715 2.3348-0.22915 0.96296-0.96296 1.9973-2.983 2.2984-4.4888 1.0822-5.4111-7.2315-10.066-13.652-7.6446-4.0126 1.5134-8.4524 6.2503-9.1016 9.7106-0.76399 4.0724 1.9815 9.5337 4.1968 8.3481 0.81894-0.43828 2.4326-0.55012 3.586-0.24852zm234.69-164.02c-0.30039-0.30039-0.51406 0.23355-0.4748 1.1865 0.0434 1.0531 0.25758 1.2673 0.54616 0.54618 0.26115-0.65259 0.22904-1.4323-0.0713-1.7327zm-101.22-16.763c-0.24748-0.94637 0.12096-1.8872 0.84838-2.1663 0.70722-0.27139 1.2858-0.86544 1.2858-1.3201 0-2.4447 24.548-35.317 31.643-42.373 0.24998-0.2486 4.0836-4.7235 8.5191-9.9442s10.106-11.454 12.601-13.852c2.6445-2.5418 4.1434-4.6152 3.5946-4.9721-0.51772-0.3367-1.104-1.0714-1.3029-1.6326-0.91509-2.5826-23.842-27.393-32.001-34.63-2.4866-2.2057-5.552-5.3038-6.8119-6.8847s-4.1076-4.4591-6.3281-6.3961c-5.5986-4.8836-41.764-40.978-48.849-48.753-3.1972-3.5085-8.4573-9.3484-11.689-12.977s-6.8036-6.9567-7.9371-7.3949c-3.0492-1.1788-18.528 3.9371-20.852 6.8918-1.9812 2.5187-3.9261 2.8477-5.5151 0.93315-1.3478-1.624-0.12433-4.1795 2.9726-6.2087 2.1851-1.4317 10.655-3.7739 17.114-4.7326 3.2948-0.48902 3.3635-0.57245 2.034-2.4706-0.75679-1.0805-1.376-2.9309-1.376-4.1122 0-2.1659-5.7327-8.235-7.8183-8.2772-0.57102-0.0116-3.2153-1.1596-5.8761-2.5512s-8.8776-4.123-13.815-6.0696-16.531-7.3631-25.764-12.037-18.693-9.4564-21.023-10.629-6.8664-3.7416-10.082-5.7098c-6.8892-4.2167-13.138-7.3219-14.733-7.3219-2.4132 0-12.622-6.0907-17.735-10.581-3.0535-2.6815-5.1955-3.7298-5.1955-2.5426 0 0.24021 2.5425 2.4364 5.6501 4.8805 5.0748 3.9913 5.7663 4.9363 6.7915 9.2814 1.0208 4.3266 0.97868 4.957-0.39879 5.9677-0.84709 0.62151-2.2154 1.13-3.0408 1.13-1.5697 0-10.027-4.2102-10.81-5.3813-0.2486-0.37189-1.3673-1.1582-2.486-1.7473-1.8562-0.97748-2.034-0.87073-2.034 1.2207 0 2.9343-0.87319 2.8829-7.4043-0.43594l-5.3679-2.7278 2.5376 3.4058c1.3957 1.8732 5.1916 6.8636 8.4354 11.09s6.8802 9.5148 8.0809 11.752 4.3838 7.4598 7.0736 11.605c5.5684 8.5822 11.583 19.657 13.284 24.46 0.63478 1.7924 1.9457 5.0896 2.9131 7.327 2.9119 6.7345 9.7171 26.714 12.317 36.161 3.6299 13.19 4.7758 16.515 5.8356 16.932 0.63138 0.24833 3.0722-0.35708 5.4241-1.3454 5.122-2.1523 11.156-3.1668 14.236-2.3936 3.2333 0.81152 2.7624 1.8788-1.1459 2.597-2.9807 0.5477-14.69 5.6821-14.69 6.4414 0 0.15775 0.91531 1.2364 2.034 2.3971s5.6953 6.1582 10.17 11.106c9.1461 10.112 24.409 25.531 32.555 32.888 2.9775 2.6891 7.6715 6.9606 10.431 9.4921s8.633 7.8573 13.052 11.835c15.907 14.319 45.024 42.221 57.324 54.931 9.9429 10.275 10.365 10.593 12.034 9.0827 0.98637-0.89266 1.5416-2.2841 1.2921-3.2381zm0.4035-19.434c-2.1949-2.3524-6.8728-7.5315-10.395-11.509-8.2898-9.3609-6.5005-7.4192-20.082-21.793-6.5271-6.9079-15.106-16.425-19.065-21.148s-12.997-14.283-20.085-21.244c-11.679-11.47-23.357-23.292-34.411-34.838-4.5038-4.704-9.9442-11.333-9.9442-12.117 0-2.1435 4.1762 0.87342 12.128 8.7611 5.1377 5.0964 17.989 17.809 28.559 28.25s20.668 20.815 22.442 23.052 3.6686 4.4749 4.2114 4.9721 2.1334 2.4241 3.5344 4.282 5.9987 6.7396 10.217 10.848 8.2279 8.5411 8.9103 9.85 8.1764 9.445 16.653 18.08 15.301 16.311 15.165 17.057c-0.51989 2.8442-3.8349 1.7853-7.8362-2.503zm16.339-28.007c-3.3118-3.3562-10.134-10.374-15.161-15.594s-12.552-12.527-16.723-16.236c-8.9166-7.929-18.149-16.713-42.795-40.717-9.9549-9.6956-22.071-21.493-26.926-26.216s-8.8265-8.8932-8.8273-9.2661c-4e-3 -1.6383 2.5651-0.39732 6.327 3.0567 2.2372 2.0541 6.5085 5.81 9.4918 8.3465 9.3343 7.9364 15.557 13.775 40.424 37.929 13.284 12.903 25.488 24.377 27.12 25.499s4.9911 4.423 7.4636 7.336 5.1229 5.7611 5.8897 6.329 6.3988 6.0004 12.516 12.072c10.599 10.521 12.548 13.564 8.6868 13.564-0.80618 0-4.1754-2.7459-7.4873-6.1021zm13.123-27.492c-6.0801-6.1348-13.99-14.254-17.577-18.044s-8.6614-8.8334-11.276-11.209-17.162-16.23-32.327-30.787c-32.46-31.158-39.058-38.352-35.176-38.352 1.5424 0 25.442 22.473 57.205 53.789 6.5559 6.4637 13.739 13.426 15.963 15.472 9.1295 8.398 36.136 36.691 36.136 37.858 0 3.4014-2.798 1.5158-12.949-8.7266zm-151.97-65.986c-0.78222-1.568-1.4222-3.2317-1.4222-3.6972s-0.77597-1.5216-1.7244-2.3472c-1.074-0.93483-2.0798-3.6317-2.6668-7.1504-0.65089-3.902-3.022-9.8441-7.6658-19.21-3.6979-7.4584-6.3992-13.561-6.003-13.561 1.334 0 13.302 18.988 16.827 26.696 1.9213 4.2019 3.6966 7.6384 3.9452 7.6369 0.2486-1e-3 1.3162-1.338 2.3725-2.9699 1.9081-2.9478 7.7114-6.4557 12.151-7.345 2.2291-0.44649 2.3046-0.67083 1.9366-5.7583-0.74194-10.257 4.3851-15.877 14.019-15.366 5.9311 0.31474 7.2999 2.0251 2.362 2.9515-4.6495 0.87226-8.1681 2.8196-9.4643 5.2379-1.5608 2.9121-1.1521 12.591 0.57236 13.556 2.5036 1.4011 1.4034 2.4811-2.5274 2.4811-9.0254 0-19.388 8.9534-18.196 15.721 0.26705 1.5159 0.66389 2.9345 0.88186 3.1524 0.64364 0.64364-1.5152 2.8227-2.7966 2.8227-0.64852 0-1.8191-1.2829-2.6014-2.8509zm31.574-48.388c-7.2918-1.7851-16.753-6.129-25.1-11.524-11.446-7.3981-28.624-21.569-34.565-28.514l-2.712-3.1702 4.5201 3.4245 10.873 8.2378c19.876 15.059 35.668 23.695 48.078 26.292 6.76 1.4144 7.3278 1.7804 6.0148 3.8778-0.99186 1.5844-3.9327 2.1537-7.109 1.3761zm108.05 169.89c0.0135-0.37291 1.8604-2.712 4.1044-5.1981s7.0021-7.9779 10.574-12.204c8.3966-9.9358 19.745-22.558 25.752-28.642 4.3137-4.3691 6.1566-8.4226 3.8292-8.4226-1.0554 0-8.0326 7.365-16.272 17.176-3.1316 3.7291-6.1477 7.1869-6.7023 7.6841-0.88763 0.79568-2.9433 3.2738-13.763 16.59-3.0038 3.6972-9.3549 12.715-9.3549 13.282 0 0.71017 1.8067 0.44777 1.8325-0.26615zm-204.24-243.89c-1.5431-1.7575-2.8057-3.5892-2.8057-4.0704s-1.6272-2.345-3.616-4.1418c-3.6348-3.2838-4.5114-5.3194-2.5696-5.9667 0.57555-0.19185-4.8146-4.2198-11.978-8.9511-36.362-24.016-34.923-23.183-33.212-19.209 1.3325 3.0942 10.33 15.713 14.509 20.349 4.2986 4.7684 9.8009 11.476 12.85 15.666 3.8463 5.2848 4.5469 5.8443 8.9934 7.1825 3.7788 1.1373 4.0506 1.1024 4.4894-0.57584 0.40974-1.5669 0.94681-1.7066 4.3704-1.1374 2.1468 0.35695 5.327 1.3964 7.0673 2.3099 4.6322 2.4316 5.04 2.1196 1.9017-1.4547zm590.69 248.2c-0.31234-0.50532 0.066-0.91876 0.84155-0.91876 1.5879 0 1.8217 0.54246 0.56781 1.3174-0.46286 0.28607-1.0971 0.10666-1.4094-0.39865z" style="stroke-width:1.7258"/><path d="m374.28 607.99 17.193-20.499 23.806-19.177 29.757-11.242 37.031-1.3225-52.24-50.918-79.352 78.029z" style="fill-opacity:.1906;stroke-width:1.7258"/><path d="m351.29 583.97 164.33 131.86 57.073 12.792 36.409-4.9201 26.568-12.792 11.808 17.712-23.616 28.536-16.728 21.648-27.552 11.808h-33.457l-74.785-83.641-64.945-62.977z" style="fill-opacity:.0836;stroke-width:1.7258"/><path d="m73.801 231.69s62.977 50.185 75.769 66.913 11.808 2.952 22.632 30.505 12.792 35.425 12.792 35.425 17.712 45.265 28.536 61.009 50.185 62.977 50.185 62.977l-108.24-103.32s-5.9041-10.824-6.8881-18.696-23.616-62.977-23.616-62.977l-22.632-36.409-20.664-24.6z" style="fill-opacity:.1104;stroke-width:1.7258"/><path d="m151.54 275.97s27.552 33.457 52.153 35.425 27.552 3.9361 27.552 3.9361l-16.728 3.9361-38.377-16.728z" style="fill-opacity:.1104;stroke-width:1.7258"/><path d="m164.08 713.54s31.394 23.694 56.865 18.955 28.433-1.777 36.133-10.07 9.4776-5.9235 9.4776-5.9235l-6.5158 33.171-13.032 46.795s-20.14-21.324-21.917-24.286-21.917-18.955-23.694-21.325-21.325-16.586-21.325-16.586z" style="fill-opacity:.1104;stroke-width:1.7258"/><path d="m136.83 675.04c0.59235-4.7388 8.2929-25.471-5.3311-37.91s-54.496-23.102-54.496-23.102l43.241 36.726z" style="fill-opacity:.1104;stroke-width:1.7258"/><path d="m110.18 721.24s15.993 11.255 27.248 11.847 43.834-0.59235 40.872-1.777-28.433-3.5541-28.433-3.5541-23.102-5.3311-25.471-5.9235-14.216-0.59235-14.216-0.59235z" style="fill-opacity:.1104;stroke-width:1.7258"/><path d="m93.591 740.2c2.3694 1.1847 26.656 11.255 40.28 11.255s34.948-3.5541 34.948-3.5541-27.248-2.9617-30.802-2.9617-18.955-2.3694-21.325-2.3694-24.879-7.7005-24.879-7.7005z" style="fill-opacity:.1104;stroke-width:1.7258"/><path d="m77.598 754.41s25.471 14.809 35.541 14.809 34.356-0.59235 34.356-0.59235-21.917-5.3311-24.879-5.3311-22.509-3.5541-22.509-3.5541l-20.732-9.4776z" style="fill-opacity:.1104;stroke-width:1.7258"/><path d="m71.674 773.37 55.681 15.993-5.9235 7.1082s-5.3311-0.59234-24.879-7.1082-23.102-8.2929-23.102-8.2929z" style="fill-opacity:.1104;stroke-width:1.7258"/><path d="m41.464 779.88s11.847 14.216 39.095 20.732 50.942 15.401 50.942 15.401l5.3311 18.363s-9.4776 13.032-12.439 13.032-27.248-1.1847-27.248-1.1847l13.032-13.032s-6.5158-14.216-18.363-14.216-30.802-13.624-30.802-13.624l-16.586-14.809z" style="fill-opacity:.1104;stroke-width:1.7258"/><path d="m35.541 768.04s42.649 8.2929 85.298-8.8852 56.273-29.025 56.273-29.025l7.7005 10.07-21.324 18.955-23.102 23.694-16.586 17.178-1.777 14.216 11.847 7.1082-4.1464 24.879s-20.14 2.9617-22.509 2.9617-10.662-2.9617-10.662-2.9617 15.401-17.178 11.847-17.178-40.28-18.955-40.28-18.955-18.955-18.955-20.732-21.917-11.847-20.14-11.847-20.14z" style="fill-opacity:.1104;stroke-width:1.7258"/><path d="m560.83 427.44a127.24 58.272 0 1 1-254.49 0 127.24 58.272 0 1 1 254.49 0z" style="fill:url(#a);filter:url(#filter2178);stroke-width:2.1367"/></g></g></svg>
