<?xml version="1.0" encoding="UTF-8"?>
<svg width="100.03mm" height="100mm" version="1.1" viewBox="0 0 100.03 100" xmlns="http://www.w3.org/2000/svg" xmlns:xlink="http://www.w3.org/1999/xlink"><defs><style type="text/css">.fil2 {fill:#434242}
    .fil1 {fill:#FEFEFE}
    .fil0 {fill:url(#f)}</style><radialGradient id="f" cx="12171" cy="-5729.3" r="10500" gradientTransform="matrix(.71599 -.69811 .68217 .69964 5603.1 6629.1)" gradientUnits="userSpaceOnUse"><stop stop-color="#FFED00" style="stop-color:#eed600" offset="0"/><stop stop-color="#FECC00" offset=".54902"/><stop stop-color="#F7AA47" offset="1"/></radialGradient><filter id="d"><feGaussianBlur stdDeviation="1.2786"/></filter><filter id="a" x="-.49831" y="-.19247" width="1.9966" height="1.3849"><feGaussianBlur stdDeviation=".2556"/></filter><filter id="s" x="-.14622" y="-.11529" width="1.2924" height="1.2306"><feGaussianBlur stdDeviation=".5802"/></filter><linearGradient id="e"><stop stop-color="#a20000" offset="0"/><stop stop-color="#d40000" offset="1"/></linearGradient><linearGradient id="q" x1="54.281" x2="162.22" y1="807.27" y2="882" gradientUnits="userSpaceOnUse"><stop stop-color="#e6e6e6" offset="0"/><stop stop-color="#d5d5d5" offset="1"/></linearGradient><linearGradient id="c" x1="178.61" x2="202.77" y1="1146.9" y2="1163.1" gradientUnits="userSpaceOnUse"><stop stop-color="#642e00" offset="0"/><stop stop-color="#664532" offset="1"/></linearGradient><linearGradient id="b"><stop stop-opacity="0" offset="0"/><stop stop-opacity="0" offset=".3846"/><stop stop-opacity=".6042" offset="1"/></linearGradient><linearGradient id="r" x1="70.887" x2="112.4" y1="956.72" y2="865.39" gradientUnits="userSpaceOnUse" xlink:href="#e"/><linearGradient id="p" x1="211.78" x2="228.39" y1="1014.6" y2="948.17" gradientUnits="userSpaceOnUse" xlink:href="#e"/><linearGradient id="o" x1="128.76" x2="120.45" y1="1006.3" y2="939.87" gradientUnits="userSpaceOnUse" xlink:href="#e"/><linearGradient id="n" x1="24.768" x2="19.146" y1="1031" y2="1023.4" gradientTransform="matrix(20.125,5.002,-5.002,20.125,4912.1,-19901)" gradientUnits="userSpaceOnUse" xlink:href="#e"/><radialGradient id="m" cx="22.471" cy="432.97" r="146.25" gradientTransform="matrix(1.8658 .6664 -.31458 .88075 150.02 -281.68)" gradientUnits="userSpaceOnUse" xlink:href="#b"/><radialGradient id="l" cx="39.618" cy="423.83" r="146.25" gradientTransform="matrix(1.793 -1.6577 .98992 1.0707 -421.07 -273.49)" gradientUnits="userSpaceOnUse" xlink:href="#b"/><radialGradient id="k" cx="408.13" cy="437.53" r="156.27" gradientTransform="matrix(1.7303 -.21354 .1157 .93752 -393.22 -194.25)" gradientUnits="userSpaceOnUse" xlink:href="#b"/><radialGradient id="j" cx="410.33" cy="452.36" r="156.27" gradientTransform="matrix(.41242 1.5392 -1.1234 .30102 686.8 -631.1)" gradientUnits="userSpaceOnUse" xlink:href="#b"/><radialGradient id="i" cx="364.84" cy="655.49" r="159.2" gradientTransform="matrix(1.175 .6784 -.34902 .60452 100.64 -347.67)" gradientUnits="userSpaceOnUse" xlink:href="#b"/><radialGradient id="h" cx="163.27" cy="647.08" r="136.94" gradientTransform="matrix(.81178 .46868 -.74753 1.2948 501.7 -600.93)" gradientUnits="userSpaceOnUse" xlink:href="#b"/><radialGradient id="g" cx="162.9" cy="651" r="136.94" gradientTransform="matrix(1.3009 .75108 -1.0184 1.7638 594.67 -946.37)" gradientUnits="userSpaceOnUse" xlink:href="#b"/><radialGradient id="f-7" cx="227.08" cy="468.42" r="48.898" gradientTransform="matrix(.29727 1.1094 -1.4956 .40074 848.4 -283.37)" gradientUnits="userSpaceOnUse" xlink:href="#b"/><linearGradient id="linearGradient1267" x1="178.61" x2="202.77" y1="1146.9" y2="1163.1" gradientUnits="userSpaceOnUse" xlink:href="#c"/></defs><g transform="translate(-13.812 -53.312)"><g transform="translate(146.96 -5.3045)"><g transform="matrix(.01 0 0 .01 -172.58 46.114)" style="clip-rule:evenodd;fill-rule:evenodd;image-rendering:optimizeQuality;shape-rendering:geometricPrecision"><g transform="matrix(26.886 0 0 28.637 4144.5 1250)" style="stroke-width:.95352"><g transform="matrix(.88726 -.92972 .92972 .88726 -783.07 -424.95)" style="stroke-width:.95352"><path d="m37.676 815.58c-6.9123 5.7007-14.479 27.31-12.717 41.685 3.7066 49.463 79.139 132.67 128.96 165.89l-8.3028-24.908z" style="fill:url(#r);stroke-width:.95352"/><path d="m137.31 807.27s-52.228-62.509-99.561 2.0674c-48.542 66.227 104.94 195.82 104.94 195.82s119.33-88.331 113.42-183.59c-3.5405-57.049-89.875-81.313-118.8-14.298z" style="fill:url(#q);stroke-width:.95352"/><path transform="translate(0,1004.4)" d="m197-232.25c18.076-1.803 41.182 12.724 51 31.25l4.5-1c-21.183-37.439-53.317-35.287-64.75-34.75z" style="fill:#9f9f9f;stroke-width:.95352"/><path transform="translate(0,1004.4)" d="m29.168-174.39c17.012-37.049 53.422-55.419 88.212-39.244 1.7868-0.80101 2.8193-1.4176 2.0488-3.0943-44.533-26.271-87.046 13.617-90.26 42.339z" style="fill:#9f9f9f;stroke-width:.95352"/></g><g transform="matrix(.88726 -.92972 .92972 .88726 -664.38 -420.34)" style="stroke-width:.95352"><path d="m-15.055 775.94c-2.5582 1.0406-5.0322 2.7221-6.2458 5.2937-2.2604 4.6126-0.8316 10.05 1.554 14.319 3.8422 6.5308 10.908 10.384 18.063 12.223 3.3452 0.98251 6.8229 1.4446 10.292 1.7238 1.5338-1.1014 2.7794-2.9292 4.0633-4.4366 4.6108-5.8539 8.2485-12.926 8.3486-20.521-0.05237-5.5955-2.0294-11.598-6.6954-15.02-4.3221-3.1772-10.661-1.8969-14.28 1.7752-1.7808 1.3706-2.7784 4.1552-4.1473 5.3716-3.4735-1.2788-7.368-1.9415-10.952-0.72902z" style="fill:#8e8e8e;filter:url(#d);stroke-width:.95352"/><g transform="matrix(1.3956 -.53795 .53795 1.3956 -887.02 -726.69)" style="stroke-width:.95352"><path d="m183.7 1147.9c-1.6809 0.031-3.4544 0.4444-4.7067 1.6394-2.2938 2.1251-2.6728 5.5266-2.2523 8.4734 0.75254 4.5508 3.9221 8.2866 7.5839 10.898 1.685 1.2905 3.5592 2.3144 5.4688 3.2326 1.1124-0.2898 2.2201-1.0553 3.2794-1.6304 3.9007-2.3156 7.5153-5.5361 9.2351-9.8283 1.1954-3.1898 1.3865-7.032-0.51461-9.9973-1.7594-2.751-5.6404-3.4117-8.5002-2.1183-1.3116 0.3886-2.488 1.7519-3.5318 2.1431-1.693-1.4869-3.76-2.716-6.0616-2.8121z" style="fill:url(#linearGradient1267);stroke-width:.95352"/><path transform="matrix(2.5608 .96519 -.96519 2.5608 1138.4 -1465.1)" d="m10.477 1017c-0.51907 0.7801-0.86555 3.3435 0.22737 4.4147-0.84511-0.2633-2.5029-2.9658-0.22737-4.4147z" style="fill-opacity:.7634;fill:#fff;filter:url(#a);stroke-width:.95352"/><path transform="matrix(-2.5608 .96519 .96519 2.5608 -757.67 -1465.3)" d="m9.1701 1017.8c-0.21893 0.9412 1.554 4.9801 6.5886 6.09-1.0742 1.2579-8.3523-2.7853-6.5886-6.09z" style="fill-opacity:.7634;filter:url(#a);opacity:.39;stroke-width:.95352"/><path transform="matrix(2.5608 .96519 -.96519 2.5608 1148.2 -1464.6)" d="m10.87 1016.8c-0.53435 0.9277-0.73088 1.903-0.72813 2.7039-0.58373-1.1045-0.10579-1.9942 0.72813-2.7039z" style="fill-opacity:.7634;fill:#fff;filter:url(#a);opacity:.78;stroke-width:.95352"/><path transform="matrix(-2.5608 .96519 .96519 2.5608 -768.67 -1465.6)" d="m10.87 1016.8c-0.79544 0.7845-1.1573 1.6691-0.72813 2.7039-0.98034-1.2423-0.33481-2.0737 0.72813-2.7039z" style="fill-opacity:.7634;filter:url(#a);opacity:.52;stroke-width:.95352"/></g></g><g transform="matrix(.88726 -.92972 .92972 .88726 -693.58 -473.32)" style="stroke-width:.95352"><path d="m-15.055 775.94c-2.5582 1.0406-5.0322 2.7221-6.2458 5.2937-2.2604 4.6126-0.8316 10.05 1.554 14.319 3.8422 6.5308 10.908 10.384 18.063 12.223 3.3452 0.98251 6.8229 1.4446 10.292 1.7238 1.5338-1.1014 2.7794-2.9292 4.0633-4.4366 4.6108-5.8539 8.2485-12.926 8.3486-20.521-0.05237-5.5955-2.0294-11.598-6.6954-15.02-4.3221-3.1772-10.661-1.8969-14.28 1.7752-1.7808 1.3706-2.7784 4.1552-4.1473 5.3716-3.4735-1.2788-7.368-1.9415-10.952-0.72902z" style="fill:#8e8e8e;filter:url(#d);stroke-width:.95352"/><g transform="matrix(1.3956 -.53795 .53795 1.3956 -887.02 -726.69)" style="stroke-width:.95352"><path d="m183.7 1147.9c-1.6809 0.031-3.4544 0.4444-4.7067 1.6394-2.2938 2.1251-2.6728 5.5266-2.2523 8.4734 0.75254 4.5508 3.9221 8.2866 7.5839 10.898 1.685 1.2905 3.5592 2.3144 5.4688 3.2326 1.1124-0.2898 2.2201-1.0553 3.2794-1.6304 3.9007-2.3156 7.5153-5.5361 9.2351-9.8283 1.1954-3.1898 1.3865-7.032-0.51461-9.9973-1.7594-2.751-5.6404-3.4117-8.5002-2.1183-1.3116 0.3886-2.488 1.7519-3.5318 2.1431-1.693-1.4869-3.76-2.716-6.0616-2.8121z" style="fill:url(#linearGradient1267);stroke-width:.95352"/><path transform="matrix(2.5608 .96519 -.96519 2.5608 1138.4 -1465.1)" d="m10.477 1017c-0.51907 0.7801-0.86555 3.3435 0.22737 4.4147-0.84511-0.2633-2.5029-2.9658-0.22737-4.4147z" style="fill-opacity:.7634;fill:#fff;filter:url(#a);stroke-width:.95352"/><path transform="matrix(-2.5608 .96519 .96519 2.5608 -757.67 -1465.3)" d="m9.1701 1017.8c-0.21893 0.9412 1.554 4.9801 6.5886 6.09-1.0742 1.2579-8.3523-2.7853-6.5886-6.09z" style="fill-opacity:.7634;filter:url(#a);opacity:.39;stroke-width:.95352"/><path transform="matrix(2.5608 .96519 -.96519 2.5608 1148.2 -1464.6)" d="m10.87 1016.8c-0.53435 0.9277-0.73088 1.903-0.72813 2.7039-0.58373-1.1045-0.10579-1.9942 0.72813-2.7039z" style="fill-opacity:.7634;fill:#fff;filter:url(#a);opacity:.78;stroke-width:.95352"/><path transform="matrix(-2.5608 .96519 .96519 2.5608 -768.67 -1465.6)" d="m10.87 1016.8c-0.79544 0.7845-1.1573 1.6691-0.72813 2.7039-0.98034-1.2423-0.33481-2.0737 0.72813-2.7039z" style="fill-opacity:.7634;filter:url(#a);opacity:.52;stroke-width:.95352"/></g></g><g transform="matrix(.88726 -.92972 .92972 .88726 -622.81 -470.48)" style="stroke-width:.95352"><path d="m-15.055 775.94c-2.5582 1.0406-5.0322 2.7221-6.2458 5.2937-2.2604 4.6126-0.8316 10.05 1.554 14.319 3.8422 6.5308 10.908 10.384 18.063 12.223 3.3452 0.98251 6.8229 1.4446 10.292 1.7238 1.5338-1.1014 2.7794-2.9292 4.0633-4.4366 4.6108-5.8539 8.2485-12.926 8.3486-20.521-0.05237-5.5955-2.0294-11.598-6.6954-15.02-4.3221-3.1772-10.661-1.8969-14.28 1.7752-1.7808 1.3706-2.7784 4.1552-4.1473 5.3716-3.4735-1.2788-7.368-1.9415-10.952-0.72902z" style="fill:#8e8e8e;filter:url(#d);stroke-width:.95352"/><g transform="matrix(1.3956 -.53795 .53795 1.3956 -887.02 -726.69)" style="stroke-width:.95352"><path d="m183.7 1147.9c-1.6809 0.031-3.4544 0.4444-4.7067 1.6394-2.2938 2.1251-2.6728 5.5266-2.2523 8.4734 0.75254 4.5508 3.9221 8.2866 7.5839 10.898 1.685 1.2905 3.5592 2.3144 5.4688 3.2326 1.1124-0.2898 2.2201-1.0553 3.2794-1.6304 3.9007-2.3156 7.5153-5.5361 9.2351-9.8283 1.1954-3.1898 1.3865-7.032-0.51461-9.9973-1.7594-2.751-5.6404-3.4117-8.5002-2.1183-1.3116 0.3886-2.488 1.7519-3.5318 2.1431-1.693-1.4869-3.76-2.716-6.0616-2.8121z" style="fill:url(#linearGradient1267);stroke-width:.95352"/><path transform="matrix(2.5608 .96519 -.96519 2.5608 1138.4 -1465.1)" d="m10.477 1017c-0.51907 0.7801-0.86555 3.3435 0.22737 4.4147-0.84511-0.2633-2.5029-2.9658-0.22737-4.4147z" style="fill-opacity:.7634;fill:#fff;filter:url(#a);stroke-width:.95352"/><path transform="matrix(-2.5608 .96519 .96519 2.5608 -757.67 -1465.3)" d="m9.1701 1017.8c-0.21893 0.9412 1.554 4.9801 6.5886 6.09-1.0742 1.2579-8.3523-2.7853-6.5886-6.09z" style="fill-opacity:.7634;filter:url(#a);opacity:.39;stroke-width:.95352"/><path transform="matrix(2.5608 .96519 -.96519 2.5608 1148.2 -1464.6)" d="m10.87 1016.8c-0.53435 0.9277-0.73088 1.903-0.72813 2.7039-0.58373-1.1045-0.10579-1.9942 0.72813-2.7039z" style="fill-opacity:.7634;fill:#fff;filter:url(#a);opacity:.78;stroke-width:.95352"/><path transform="matrix(-2.5608 .96519 .96519 2.5608 -768.67 -1465.6)" d="m10.87 1016.8c-0.79544 0.7845-1.1573 1.6691-0.72813 2.7039-0.98034-1.2423-0.33481-2.0737 0.72813-2.7039z" style="fill-opacity:.7634;filter:url(#a);opacity:.52;stroke-width:.95352"/></g></g><g transform="matrix(.88726 -.92972 .92972 .88726 -592.23 -413.67)" style="stroke-width:.95352"><path d="m-15.055 775.94c-2.5582 1.0406-5.0322 2.7221-6.2458 5.2937-2.2604 4.6126-0.8316 10.05 1.554 14.319 3.8422 6.5308 10.908 10.384 18.063 12.223 3.3452 0.98251 6.8229 1.4446 10.292 1.7238 1.5338-1.1014 2.7794-2.9292 4.0633-4.4366 4.6108-5.8539 8.2485-12.926 8.3486-20.521-0.05237-5.5955-2.0294-11.598-6.6954-15.02-4.3221-3.1772-10.661-1.8969-14.28 1.7752-1.7808 1.3706-2.7784 4.1552-4.1473 5.3716-3.4735-1.2788-7.368-1.9415-10.952-0.72902z" style="fill:#8e8e8e;filter:url(#d);stroke-width:.95352"/><g transform="matrix(1.3956 -.53795 .53795 1.3956 -887.02 -726.69)" style="stroke-width:.95352"><path d="m183.7 1147.9c-1.6809 0.031-3.4544 0.4444-4.7067 1.6394-2.2938 2.1251-2.6728 5.5266-2.2523 8.4734 0.75254 4.5508 3.9221 8.2866 7.5839 10.898 1.685 1.2905 3.5592 2.3144 5.4688 3.2326 1.1124-0.2898 2.2201-1.0553 3.2794-1.6304 3.9007-2.3156 7.5153-5.5361 9.2351-9.8283 1.1954-3.1898 1.3865-7.032-0.51461-9.9973-1.7594-2.751-5.6404-3.4117-8.5002-2.1183-1.3116 0.3886-2.488 1.7519-3.5318 2.1431-1.693-1.4869-3.76-2.716-6.0616-2.8121z" style="fill:url(#linearGradient1267);stroke-width:.95352"/><path transform="matrix(2.5608 .96519 -.96519 2.5608 1138.4 -1465.1)" d="m10.477 1017c-0.51907 0.7801-0.86555 3.3435 0.22737 4.4147-0.84511-0.2633-2.5029-2.9658-0.22737-4.4147z" style="fill-opacity:.7634;fill:#fff;filter:url(#a);stroke-width:.95352"/><path transform="matrix(-2.5608 .96519 .96519 2.5608 -757.67 -1465.3)" d="m9.1701 1017.8c-0.21893 0.9412 1.554 4.9801 6.5886 6.09-1.0742 1.2579-8.3523-2.7853-6.5886-6.09z" style="fill-opacity:.7634;filter:url(#a);opacity:.39;stroke-width:.95352"/><path transform="matrix(2.5608 .96519 -.96519 2.5608 1148.2 -1464.6)" d="m10.87 1016.8c-0.53435 0.9277-0.73088 1.903-0.72813 2.7039-0.58373-1.1045-0.10579-1.9942 0.72813-2.7039z" style="fill-opacity:.7634;fill:#fff;filter:url(#a);opacity:.78;stroke-width:.95352"/><path transform="matrix(-2.5608 .96519 .96519 2.5608 -768.67 -1465.6)" d="m10.87 1016.8c-0.79544 0.7845-1.1573 1.6691-0.72813 2.7039-0.98034-1.2423-0.33481-2.0737 0.72813-2.7039z" style="fill-opacity:.7634;filter:url(#a);opacity:.52;stroke-width:.95352"/></g></g><g transform="matrix(.88726 -.92972 .92972 .88726 -526.74 -402.66)" style="stroke-width:.95352"><path d="m-15.055 775.94c-2.5582 1.0406-5.0322 2.7221-6.2458 5.2937-2.2604 4.6126-0.8316 10.05 1.554 14.319 3.8422 6.5308 10.908 10.384 18.063 12.223 3.3452 0.98251 6.8229 1.4446 10.292 1.7238 1.5338-1.1014 2.7794-2.9292 4.0633-4.4366 4.6108-5.8539 8.2485-12.926 8.3486-20.521-0.05237-5.5955-2.0294-11.598-6.6954-15.02-4.3221-3.1772-10.661-1.8969-14.28 1.7752-1.7808 1.3706-2.7784 4.1552-4.1473 5.3716-3.4735-1.2788-7.368-1.9415-10.952-0.72902z" style="fill:#8e8e8e;filter:url(#d);stroke-width:.95352"/><g transform="matrix(1.3956 -.53795 .53795 1.3956 -887.02 -726.69)" style="stroke-width:.95352"><path d="m183.7 1147.9c-1.6809 0.031-3.4544 0.4444-4.7067 1.6394-2.2938 2.1251-2.6728 5.5266-2.2523 8.4734 0.75254 4.5508 3.9221 8.2866 7.5839 10.898 1.685 1.2905 3.5592 2.3144 5.4688 3.2326 1.1124-0.2898 2.2201-1.0553 3.2794-1.6304 3.9007-2.3156 7.5153-5.5361 9.2351-9.8283 1.1954-3.1898 1.3865-7.032-0.51461-9.9973-1.7594-2.751-5.6404-3.4117-8.5002-2.1183-1.3116 0.3886-2.488 1.7519-3.5318 2.1431-1.693-1.4869-3.76-2.716-6.0616-2.8121z" style="fill:url(#linearGradient1267);stroke-width:.95352"/><path transform="matrix(2.5608 .96519 -.96519 2.5608 1138.4 -1465.1)" d="m10.477 1017c-0.51907 0.7801-0.86555 3.3435 0.22737 4.4147-0.84511-0.2633-2.5029-2.9658-0.22737-4.4147z" style="fill-opacity:.7634;fill:#fff;filter:url(#a);stroke-width:.95352"/><path transform="matrix(-2.5608 .96519 .96519 2.5608 -757.67 -1465.3)" d="m9.1701 1017.8c-0.21893 0.9412 1.554 4.9801 6.5886 6.09-1.0742 1.2579-8.3523-2.7853-6.5886-6.09z" style="fill-opacity:.7634;filter:url(#a);opacity:.39;stroke-width:.95352"/><path transform="matrix(2.5608 .96519 -.96519 2.5608 1148.2 -1464.6)" d="m10.87 1016.8c-0.53435 0.9277-0.73088 1.903-0.72813 2.7039-0.58373-1.1045-0.10579-1.9942 0.72813-2.7039z" style="fill-opacity:.7634;fill:#fff;filter:url(#a);opacity:.78;stroke-width:.95352"/><path transform="matrix(-2.5608 .96519 .96519 2.5608 -768.67 -1465.6)" d="m10.87 1016.8c-0.79544 0.7845-1.1573 1.6691-0.72813 2.7039-0.98034-1.2423-0.33481-2.0737 0.72813-2.7039z" style="fill-opacity:.7634;filter:url(#a);opacity:.52;stroke-width:.95352"/></g></g><g transform="matrix(.88726 -.92972 .92972 .88726 -575.88 -607.84)" style="stroke-width:.95352"><path d="m-15.055 775.94c-2.5582 1.0406-5.0322 2.7221-6.2458 5.2937-2.2604 4.6126-0.8316 10.05 1.554 14.319 3.8422 6.5308 10.908 10.384 18.063 12.223 3.3452 0.98251 6.8229 1.4446 10.292 1.7238 1.5338-1.1014 2.7794-2.9292 4.0633-4.4366 4.6108-5.8539 8.2485-12.926 8.3486-20.521-0.05237-5.5955-2.0294-11.598-6.6954-15.02-4.3221-3.1772-10.661-1.8969-14.28 1.7752-1.7808 1.3706-2.7784 4.1552-4.1473 5.3716-3.4735-1.2788-7.368-1.9415-10.952-0.72902z" style="fill:#8e8e8e;filter:url(#d);stroke-width:.95352"/><g transform="matrix(1.3956 -.53795 .53795 1.3956 -887.02 -726.69)" style="stroke-width:.95352"><path d="m183.7 1147.9c-1.6809 0.031-3.4544 0.4444-4.7067 1.6394-2.2938 2.1251-2.6728 5.5266-2.2523 8.4734 0.75254 4.5508 3.9221 8.2866 7.5839 10.898 1.685 1.2905 3.5592 2.3144 5.4688 3.2326 1.1124-0.2898 2.2201-1.0553 3.2794-1.6304 3.9007-2.3156 7.5153-5.5361 9.2351-9.8283 1.1954-3.1898 1.3865-7.032-0.51461-9.9973-1.7594-2.751-5.6404-3.4117-8.5002-2.1183-1.3116 0.3886-2.488 1.7519-3.5318 2.1431-1.693-1.4869-3.76-2.716-6.0616-2.8121z" style="fill:url(#linearGradient1267);stroke-width:.95352"/><path transform="matrix(2.5608 .96519 -.96519 2.5608 1138.4 -1465.1)" d="m10.477 1017c-0.51907 0.7801-0.86555 3.3435 0.22737 4.4147-0.84511-0.2633-2.5029-2.9658-0.22737-4.4147z" style="fill-opacity:.7634;fill:#fff;filter:url(#a);stroke-width:.95352"/><path transform="matrix(-2.5608 .96519 .96519 2.5608 -757.67 -1465.3)" d="m9.1701 1017.8c-0.21893 0.9412 1.554 4.9801 6.5886 6.09-1.0742 1.2579-8.3523-2.7853-6.5886-6.09z" style="fill-opacity:.7634;filter:url(#a);opacity:.39;stroke-width:.95352"/><path transform="matrix(2.5608 .96519 -.96519 2.5608 1148.2 -1464.6)" d="m10.87 1016.8c-0.53435 0.9277-0.73088 1.903-0.72813 2.7039-0.58373-1.1045-0.10579-1.9942 0.72813-2.7039z" style="fill-opacity:.7634;fill:#fff;filter:url(#a);opacity:.78;stroke-width:.95352"/><path transform="matrix(-2.5608 .96519 .96519 2.5608 -768.67 -1465.6)" d="m10.87 1016.8c-0.79544 0.7845-1.1573 1.6691-0.72813 2.7039-0.98034-1.2423-0.33481-2.0737 0.72813-2.7039z" style="fill-opacity:.7634;filter:url(#a);opacity:.52;stroke-width:.95352"/></g></g><g transform="matrix(.88726 -.92972 .92972 .88726 -783.07 -424.95)" style="stroke-width:.95352"><path d="m151.05 1003 2.6133 19.872c87.677-23.887 157.75-74.725 182.66-116.24 6.2642-24.742 5.9295-43.829 0-58.12l-185.28 154.49z" style="fill:url(#p);stroke-width:.95352"/><path d="m103.85 831.93v33.211c8.3028 41.514 8.3028 91.331 49.817 157.75v-24.908l-49.817-166.06z" style="fill:url(#o);stroke-width:.95352"/><path d="m228.39 815.33s-23.677-81.505-95.868-39.693c-74.035 42.88 18.18 230.77 18.18 230.77s150.84-34.347 185.06-127.72c20.497-55.919-51.731-115.2-107.37-63.36z" style="fill:url(#n);stroke-width:.95352"/><path transform="matrix(8.3028,0,0,8.3028,-16.543,-7648.2)" d="m24.5 1014.1c-3.5129 1.7361-7.929 3.4655-9.3125 11.812-0.15645-1.5303-2.0396-14.042 9.3125-11.812z" style="fill-opacity:.7098;fill:#fff;filter:url(#s);stroke-width:.95352"/></g><g transform="matrix(.36092 -.16001 .16001 .36092 89.795 98.898)" style="stroke-width:.95352"><path d="m47.087 7.6751c-11.863-0.15457-22.688 9.3447-28.693 25.605-8.4511 22.883-10.153 55.278-9.1988 86.46s4.7442 60.623 8.9527 77.284c1.8536 7.3384 5.2221 12.799 9.3332 16.339s8.6774 4.979 11.997 5.5731c30.399 5.4134 57.059 6.7302 81.626 3.8496-30.8 30.16-59.225 63.035-71.062 88.542-0.60436 1.3024-1.4184 2.7066-2.2606 4.5211s-2.4481 4.3634-1.1638 8.8855c0.64214 2.261 2.382 4.4513 4.1182 5.6178s3.3736 1.6317 4.924 1.9472c3.1007 0.63096 6.2402 0.63294 10.587 0.40285 55.56-2.9286 91.162-0.15388 170.06 44.808 1.2463 0.71032 3.6086 3.1575 8.1693 5.0583 1.1402 0.47518 2.5696 1.0238 4.8344 0.91763s5.4556-1.5873 7.0502-3.7154c3.1892-4.2561 2.2884-7.1925 1.8577-10.34-2.8272-20.663-7.6693-38.881-23.545-84.759-6.7642-19.547-9.4356-35.599-9.5346-49.956 17.342 31.856 33.045 57.194 42.458 78.582 11.651 26.474 14.356 46.045 1.4772 70.413-1.6215 3.0523-1.1104 6.7995 1.2694 9.306s6.0953 3.2114 9.2276 1.7505c23.362-10.786 104.31-55.505 147.41-82.208 2.9692-1.8396 5.5317-3.9839 7.1174-7.274s1.377-7.402 0.3581-10.094c-2.0378-5.3843-5.1615-7.6751-6.8488-9.8479-11.467-14.767-27.968-27.964-46.196-40.869 0.2202-6e-3 0.45168 6e-3 0.67145 0 10.188-0.29345 17.831-1.2575 24.396-4.3868s11.184-8.6049 14.436-14.906c17.683-34.231 31.645-80.163 32.297-123.73 0.32615-21.804-4.0313-34.858-11.325-43.129s-15.856-10.831-20.815-13.989c-3.5936-2.2882-7.2584-3.2994-11.997-4.633s-10.223-2.617-15.712-3.7377c-10.978-2.2416-20.866-3.9339-26.903-3.9616-19.025-0.08643-33.867 5.1137-47.874 13.608s-27.481 19.98-46.129 33.528c-9.6436 7.006-17.024 14.65-26.433 18.845-6.1682 2.7501-11.831 4.3606-17.301 8.1693-0.0633 0.0441-0.11604 0.11171-0.17905 0.15667-0.71061-1.194-1.44-2.3654-2.3948-3.4915-4.7768-5.634-11.278-8.8846-21.889-13.765-16.736-7.6972-44.537-17.966-72.136-30.618s-54.82-27.925-68.846-43.264c-4.1431-4.5311-9.9741-7.417-16.182-7.4978z" style="fill-rule:evenodd;fill:#8f0000;stroke-width:.95352"/><path d="m209.71 142.6c-12.248 0.18487-17.285 9.1327-8.2866 29.412 48.384 109.04 102.4 151.94 71.375 210.63 21.746-10.04 102.57-54.6 144.7-80.701 8.7395-5.4147 2.7951-9.7634-1.4805-15.269-12.112-15.597-31.241-30.135-52.482-44.748-39.147-5.594-83.616-18.785-122.24-46.781-31.092-22.534-22.243-33.098-18.783-50.405-4.7905-1.4539-9.1185-2.199-12.795-2.1435z" style="fill-rule:evenodd;fill:#f00;stroke-width:.95352"/><path d="m223.57 127.47c0.0272-16.329 8.7983-17.208 22.671-23.393 11.011-4.9092 18.816-13.095 27.53-19.425 37.309-27.104 53.29-45.191 88.097-45.033 7.674 0.03512 42.51 6.3673 49.708 10.951 12.277 7.8172 28.666 8.6509 28.053 49.585-0.61882 41.372-14.105 85.895-31.006 118.61-5.5338 10.723-12.285 14.212-31.498 14.765-42.181 1.2149-92.661-6.3245-135.84-36.912-36.708-26.006-17.765-40.619-17.718-69.149z" style="fill-rule:evenodd;fill:#f00;stroke-width:.95352"/><path d="m46.493 15.608c-7.3232-0.09541-15.523 5.8755-20.772 20.087-15.159 41.047-7.7493 126.3 0 156.98 3.0404 12.037 9.8849 14.883 14.761 15.756 37.597 6.6954 68.751 6.9774 97.141 0.61874 12.774-11.597 29.925-23.757 42.383-30.517 10.169-5.5174 14.593-6.2785 16.043-4.2869 1.0304-2.1298 1.8006-4.2007 2.4086-6.1653 7.0583-22.804 11.454 1.321 15.269-16.485 1.8756-8.7527 11.85-18.593 9.723-28.285-3.5583-16.21-4.4292-18.629-24.992-28.086-31.808-14.629-110.88-41.052-141.73-74.8-2.7956-3.0574-6.3953-4.7673-10.231-4.8173z" style="fill-rule:evenodd;fill:#f00;stroke-width:.95352"/><path d="m56.726 310.8c-3.0976 6.6751-7.5517 10.686 8.3668 9.8432 55.364-2.9182 93.552 0.42492 172.26 45.279 4.7435 2.7033 11.138 9.4624 9.8433 0-2.714-19.836-7.2594-37.035-22.886-82.191-14.898-43.052-10.705-71.487-1.7226-99.417 9.2472-28.755 13.714-47.425-29.038-17.226-44.418 31.375-117.74 102.6-136.82 143.71z" style="fill-rule:evenodd;fill:#f00;stroke-width:.95352"/><path d="m57.012 36.733c-6.4354 0-11.645 5.21-11.645 11.645s5.21 11.668 11.645 11.668 11.668-5.2321 11.668-11.668-5.2321-11.645-11.668-11.645zm346.16 12.154c-6.6372 0-12.021 5.3839-12.021 12.021s5.3839 12.043 12.021 12.043 12.021-5.406 12.021-12.043-5.3839-12.021-12.021-12.021zm-359.02 32.727c-7.588 0-13.745 6.1788-13.745 13.767s6.1567 13.745 13.745 13.745 13.745-6.1567 13.745-13.745-6.1567-13.767-13.745-13.767zm66.934 0.50824c-5.6863 0-10.297 4.6112-10.298 10.298s4.6112 10.297 10.298 10.297 10.297-4.6112 10.297-10.297-4.6112-10.298-10.297-10.298zm254.7 3.9334c-5.958 0-10.806 4.8256-10.806 10.784s4.8477 10.806 10.806 10.806 10.784-4.8477 10.784-10.806-4.8256-10.784-10.784-10.784zm-66.204 15.999c-8.5389 0-15.468 6.9294-15.468 15.468s6.9294 15.468 15.468 15.468 15.468-6.9294 15.468-15.468-6.9294-15.468-15.468-15.468zm134.11 3.2042c-6.9089 0-12.507 5.5984-12.507 12.507s5.5984 12.507 12.507 12.507c1.2072 0 2.3639-0.16718 3.4693-0.48614 1.1352-7.7344 1.9202-15.469 2.2761-23.136-1.7234-0.89139-3.6734-1.3922-5.7454-1.3922zm-262.56 13.767c-7.588 0-13.745 6.1567-13.745 13.745s6.1567 13.745 13.745 13.745c2.3464 0 4.5416-0.59751 6.4746-1.6352 0.0374-0.35571 0.0671-0.69295 0.11049-1.0607 0.72193-6.123 2.8792-11.563 6.2094-16.043-2.0008-5.1178-6.9701-8.7506-12.795-8.7507zm221.46 12.551c-7.588 0-13.745 6.1567-13.745 13.745s6.1567 13.745 13.745 13.745 13.745-6.1567 13.745-13.745-6.1567-13.745-13.745-13.745zm-266.25 1.2375c-6.5014 0-11.778 5.2767-11.778 11.778s5.2767 11.778 11.778 11.778 11.778-5.2767 11.778-11.778-5.2767-11.778-11.778-11.778zm-43.798 11.8c-7.588 0-13.745 6.1567-13.745 13.745s6.1567 13.745 13.745 13.745 13.745-6.1567 13.745-13.745-6.1567-13.745-13.745-13.745zm237.7 21.413c-7.7239 0-13.988 6.2639-13.988 13.988s6.2639 14.01 13.988 14.01 14.01-6.286 14.01-14.01-6.286-13.988-14.01-13.988zm-43.797 18.208c-5.8222 0-10.541 4.7404-10.541 10.563s4.7184 10.541 10.541 10.541 10.541-4.7184 10.541-10.541-4.7184-10.563-10.541-10.563zm-228.36 0.75131c-5.4146 0-9.8114 4.3967-9.8114 9.8114s4.3967 9.7892 9.8114 9.7892 9.8114-4.3746 9.8114-9.7892-4.3967-9.8114-9.8114-9.8114zm101.76 2.4528c-6.1618 0-11.181 4.9975-11.181 11.159 0 2.7469 1.0001 5.2592 2.6517 7.2038 5.4741-4.72 11.515-9.4408 17.546-13.767-2.03-2.7787-5.3121-4.5963-9.0158-4.5963zm216.91 26.34c-6.5014 0-11.778 5.2767-11.778 11.778 0 3.0363 1.1604 5.7996 3.0495 7.8888 5.905 0.22252 11.692 0.2622 17.347 0.13257 1.9584-2.1035 3.16-4.923 3.16-8.0214 0-6.5014-5.2767-11.778-11.778-11.778zm-196.12 4.6626c-6.773 0-12.286 5.4911-12.286 12.264s5.5132 12.286 12.286 12.286 12.264-5.5132 12.264-12.286-5.4912-12.264-12.264-12.264zm123.61 5.4802c-1.5902 2.27-2.5191 5.04-2.5191 8.0214 0 7.7239 6.2639 13.988 13.988 13.988 7.5044 0 13.645-5.9048 13.988-13.325-8.4666-2.4454-16.976-5.3309-25.456-8.6843zm-52.018 7.0712c-3.6079 0-6.8945 1.3924-9.3473 3.6682 4.5374 8.2021 8.9188 15.931 13.104 23.291 5.7614-1.6366 9.9881-6.9301 9.9881-13.214 0-7.5881-6.1567-13.745-13.745-13.745zm-126.49 34.693c-7.588 0-13.745 6.1566-13.745 13.745s6.1567 13.745 13.745 13.745 13.745-6.1567 13.745-13.745-6.1567-13.745-13.745-13.745zm92.523 0.75132c-7.588 0-13.745 6.1566-13.745 13.745s6.1567 13.745 13.745 13.745 13.767-6.1567 13.767-13.745-6.1788-13.745-13.767-13.745zm112.72 8.3529c-9.2181 0-16.706 7.4877-16.706 16.706s7.4877 16.706 16.706 16.706 16.684-7.4877 16.684-16.706-7.4656-16.706-16.684-16.706zm-123.28 50.206c-7.8252 0-14.264 5.9241-15.115 13.524 8.2439 3.4177 16.932 7.3989 26.23 12.065 2.5318-2.7203 4.0881-6.3544 4.0881-10.364 0-8.403-6.8001-15.225-15.203-15.225z" style="fill-opacity:.4;fill:#fff;stroke-width:.95352"/><path d="m223.2 135.5c0.0252-13.811 8.1333-14.554 20.957-19.785 10.179-4.152 17.394-11.075 25.449-16.429 34.489-22.924 49.262-38.221 81.438-38.087 7.0939 0.0297 39.297 5.3852 45.951 9.2616 11.349 6.6114 26.499 7.3165 25.933 41.937-0.57206 34.99-13.039 72.646-28.663 100.32-5.1156 9.0692-11.357 12.019-29.118 12.487-38.993 1.0275-85.657-5.349-125.57-31.219-33.934-21.994-16.423-34.354-16.379-58.483z" style="fill-opacity:.4;fill-rule:evenodd;fill:#fff;stroke-width:.95352"/><path d="m50.668 42.753c-7.1507-0.07798-15.158 4.8017-20.282 16.416-14.802 33.545-7.5668 103.22 0 128.29 2.9688 9.8368 9.652 12.163 14.413 12.876 36.712 5.4717 67.132 5.7022 94.853 0.50559 12.474-9.4772 29.22-19.415 41.385-24.939 9.9292-4.509 14.25-5.131 15.665-3.5034 1.0062-1.7405 1.7582-3.433 2.3519-5.0385 6.892-18.636 11.184 1.0796 14.91-13.472 1.8314-7.153 11.571-15.195 9.4939-23.116-3.4745-13.248-4.3249-15.224-24.404-22.953-31.058-11.955-108.26-33.55-138.4-61.13-2.7297-2.4986-6.2446-3.896-9.9902-3.9369z" style="fill-opacity:.4;fill-rule:evenodd;fill:#fff;stroke-width:.95352"/><path d="m219.47 152.3c-5.4214 1.5715-13.594 6.1217-25.434 14.452-0.55005 0.48916-1.0872 0.9429-1.6573 1.4584-36.592 33.087-97.056 107.47-114.97 151.9 47.16-1.5686 84.238 3.9083 151.63 41.146-2.3204-15.586-6.395-34.709-14.386-67.884-11.127-46.197-6.9728-76.695 1.1049-106.67 4.6729-17.338 8.0506-31.285 3.7345-34.406h-0.0221z" style="fill-opacity:.4;fill-rule:evenodd;fill:#fff;stroke-width:.95352"/><path d="m209.71 142.6c-7.4867 0.113-12.277 3.5135-12.817 10.762 5.4379 2.7844 10.99 5.148 16.021 6.784 1.3889-2.1242 3.6961-3.2859 6.7398-3.5577 0.82888-3.728 1.9976-7.577 2.8506-11.844-4.7905-1.4539-9.1185-2.199-12.795-2.1435zm3.2042 17.546c-2.8362 4.3377-1.8312 12.696 4.6405 25.788 43.924 88.855 85.46 133.79 89.319 179.15 32.396-17.423 77.391-42.784 106.75-60.768-0.96077-1.192-2.0096-2.422-3.0053-3.7124-12.035-15.597-32.501-28.842-49.3-44.748-3.9672-3.7563-9.3779-9.7444-15.711-16.971-34.424-6.8288-71.483-19.93-104.32-43.731-19.85-14.386-23.409-23.892-22.495-33.39-1.8435-0.41185-3.8132-0.9417-5.878-1.6131z" style="fill-opacity:.4;fill-rule:evenodd;fill:#fff;stroke-width:.95352"/><path d="m46.493 15.608c-7.3232-0.09541-15.523 5.8755-20.772 20.087-15.159 41.047-7.7493 126.3 0 156.98 3.0404 12.037 9.8849 14.883 14.761 15.756 37.597 6.6954 68.751 6.9774 97.141 0.61874 12.774-11.597 29.925-23.757 42.383-30.517 10.169-5.5174 14.593-6.2785 16.043-4.2869 1.0304-2.1298 1.8006-4.2007 2.4086-6.1653 7.0583-22.804 11.454 1.321 15.269-16.485 1.8756-8.7527 11.85-18.593 9.723-28.285-3.5583-16.21-4.4292-18.629-24.992-28.086-31.808-14.629-110.88-41.052-141.73-74.8-2.7956-3.0574-6.3953-4.7673-10.231-4.8173z" style="fill-rule:evenodd;fill:url(#m);stroke-width:.95352"/><path d="m46.493 15.608c-7.3232-0.09541-15.523 5.8755-20.772 20.087-15.159 41.047-7.7493 126.3 0 156.98 3.0404 12.037 9.8849 14.883 14.761 15.756 37.597 6.6954 68.751 6.9774 97.141 0.61874 12.774-11.597 29.925-23.757 42.383-30.517 10.169-5.5174 14.593-6.2785 16.043-4.2869 1.0304-2.1298 1.8006-4.2007 2.4086-6.1653 7.0583-22.804 11.454 1.321 15.269-16.485 1.8756-8.7527 11.85-18.593 9.723-28.285-3.5583-16.21-4.4292-18.629-24.992-28.086-31.808-14.629-110.88-41.052-141.73-74.8-2.7956-3.0574-6.3953-4.7673-10.231-4.8173z" style="fill-rule:evenodd;fill:url(#l);stroke-width:.95352"/><path d="m223.57 127.47c0.0272-16.329 8.7983-17.208 22.671-23.393 11.011-4.9092 18.816-13.095 27.53-19.425 37.309-27.104 53.29-45.191 88.097-45.033 7.674 0.03512 42.51 6.3673 49.708 10.951 12.277 7.8172 28.666 8.6509 28.053 49.585-0.61882 41.372-14.105 85.895-31.006 118.61-5.5338 10.723-12.285 14.212-31.498 14.765-42.181 1.2149-92.661-6.3245-135.84-36.912-36.708-26.006-17.765-40.619-17.718-69.149z" style="fill-rule:evenodd;fill:url(#k);stroke-width:.95352"/><path d="m223.57 127.47c0.0272-16.329 8.7983-17.208 22.671-23.393 11.011-4.9092 18.816-13.095 27.53-19.425 37.309-27.104 53.29-45.191 88.097-45.033 7.674 0.03512 42.51 6.3673 49.708 10.951 12.277 7.8172 28.666 8.6509 28.053 49.585-0.61882 41.372-14.105 85.895-31.006 118.61-5.5338 10.723-12.285 14.212-31.498 14.765-42.181 1.2149-92.661-6.3245-135.84-36.912-36.708-26.006-17.765-40.619-17.718-69.149z" style="fill-rule:evenodd;fill:url(#j);stroke-width:.95352"/><path d="m209.71 142.6c-12.248 0.18487-17.285 9.1327-8.2866 29.412 48.384 109.04 102.4 151.94 71.375 210.63 21.746-10.04 102.57-54.6 144.7-80.701 8.7395-5.4147 2.7951-9.7634-1.4805-15.269-12.112-15.597-31.241-30.135-52.482-44.748-39.147-5.594-83.616-18.785-122.24-46.781-31.092-22.534-22.243-33.098-18.783-50.405-4.7905-1.4539-9.1185-2.199-12.795-2.1435z" style="fill-rule:evenodd;fill:url(#i);stroke-width:.95352"/><path d="m56.726 310.8c-3.0976 6.6751-7.5517 10.686 8.3668 9.8432 55.364-2.9182 93.552 0.42492 172.26 45.279 4.7435 2.7033 11.138 9.4624 9.8433 0-2.714-19.836-7.2594-37.035-22.886-82.191-14.898-43.052-10.705-71.487-1.7226-99.417 9.2472-28.755 13.714-47.425-29.038-17.226-44.418 31.375-117.74 102.6-136.82 143.71z" style="fill-rule:evenodd;fill:url(#h);stroke-width:.95352"/><path d="m56.726 310.8c-3.0976 6.6751-7.5517 10.686 8.3668 9.8432 55.364-2.9182 93.552 0.42492 172.26 45.279 4.7435 2.7033 11.138 9.4624 9.8433 0-2.714-19.836-7.2594-37.035-22.886-82.191-14.898-43.052-10.705-71.487-1.7226-99.417 9.2472-28.755 13.714-47.425-29.038-17.226-44.418 31.375-117.74 102.6-136.82 143.71z" style="fill-rule:evenodd;fill:url(#g);stroke-width:.95352"/><path transform="matrix(.73291 0 0 .73291 50.292 -185.53)" d="m226.31 409.72c-3.6373 0.031-7.1928 0.13241-10.562 0.375-23.397 1.7074-39.324 17.384-41.906 39.281-2.3653 20.061 1.8298 26.811 3.5 36.594 3.4042 19.939 14.657 35.166 29.375 38.219 17.322 3.5928 27.534 3.3433 35.219 2.125 8.052-1.2765 15.294-1.1914 22.062-4.625s11.435-10.731 13.5-22.844c2.8966-16.987 2.0649-20.225 3.1875-41.469 0.55051-10.417 0.93631-20.415-1.6562-28.969s-9.4884-15.611-20.219-16.875c-9.7672-1.1508-21.556-1.9057-32.5-1.8125z" style="fill-rule:evenodd;fill:#8f0000;stroke-width:.95352"/><path d="m181.24 143.22c1.661-14.088 11.152-23.5 26.331-24.608 9.1347-0.65763 20.772-0.0765 29.776 0.98431 12.899 1.5197 13.075 14.074 12.304 28.669-0.79976 15.134-0.19758 17.085-2.2147 28.915-2.731 16.016-10.253 14.602-22.147 16.487-5.0447 0.79983-11.67 1.0028-23.624-1.4765-8.3052-1.7226-15.732-11.04-17.964-24.116-1.2919-7.567-4.0685-11.218-2.4608-24.854z" style="fill-rule:evenodd;fill:#f00;stroke-width:.95352"/><path d="m219.36 126.91c-5.6863 0-10.32 4.6112-10.32 10.297s4.6333 10.297 10.32 10.297 10.297-4.6112 10.297-10.297-4.6112-10.297-10.297-10.297zm30.517 15.314c-4.6398 1.1079-8.1098 5.2562-8.1098 10.231 0 4.6814 3.0646 8.6572 7.2922 10.032 0.15087-3.5129 0.24565-7.5891 0.59663-14.231 0.10919-2.066 0.1832-4.074 0.22098-6.0327zm-43.333 24.042c-6.5014 0-11.756 5.2767-11.756 11.778s5.2546 11.778 11.756 11.778 11.778-5.2767 11.778-11.778-5.2767-11.778-11.778-11.778z" style="fill-opacity:.4;fill:#fff;stroke-width:.95352"/><path d="m182.9 142.12c1.3908-11.796 9.3375-19.677 22.047-20.605 7.6486-0.55063 17.392-0.0641 24.932 0.82419 10.8 1.2725 10.948 11.784 10.302 24.004-0.66965 12.672-0.16543 14.306-1.8544 24.211-2.2867 13.41-8.5853 12.226-18.544 13.805-4.224 0.66965-9.7717 0.83958-19.781-1.2362-6.9541-1.4423-13.172-9.2443-15.041-20.193-1.0818-6.3359-3.4066-9.3934-2.0605-20.811z" style="fill-opacity:.4;fill-rule:evenodd;fill:#fff;stroke-width:.95352"/><path d="m181.24 143.22c1.661-14.088 11.152-23.5 26.331-24.608 9.1347-0.65763 20.772-0.0765 29.776 0.98431 12.899 1.5197 13.075 14.074 12.304 28.669-0.79976 15.134-0.19758 17.085-2.2147 28.915-2.731 16.016-10.253 14.602-22.147 16.487-5.0447 0.79983-11.67 1.0028-23.624-1.4765-8.3052-1.7226-15.732-11.04-17.964-24.116-1.2919-7.567-4.0685-11.218-2.4608-24.854z" style="fill-rule:evenodd;fill:url(#f-7);stroke-width:.95352"/></g></g></g></g></g></svg>
