<?xml version="1.0" encoding="UTF-8"?>
<svg width="54.894mm" height="57.352mm" version="1.1" viewBox="0 0 54.894 57.352" xmlns="http://www.w3.org/2000/svg"><defs><filter id="a"><feGaussianBlur in="SourceAlpha" result="result0" stdDeviation="6"/><feSpecularLighting in="result0" result="result1" specularExponent="25" surfaceScale="10"><feDistantLight azimuth="235" elevation="45"/></feSpecularLighting><feComposite in="SourceGraphic" in2="result1" k2="1" k3="1" operator="arithmetic" result="result4"/><feComposite in="result4" in2="SourceAlpha" operator="in" result="result2"/></filter><linearGradient id="c" x1="13.709" x2="84.383" gradientUnits="userSpaceOnUse"><stop stop-color="#afd800" offset="0"/><stop stop-color="#60a600" offset="1"/></linearGradient><linearGradient id="b" x1="136.15" x2="206.82" gradientUnits="userSpaceOnUse"><stop stop-color="#ecd800" offset="0"/><stop stop-color="#ffa600" offset="1"/></linearGradient></defs><g transform="translate(-11.654 -177.35)"><path transform="matrix(.25154 0 0 .25154 8.0321 144.46)" d="m16.065 222.34 0.0077-0.0284 0.02165-0.0795 0.07775-0.27665 5e-6 -2e-5c0.10243-0.35991 0.19939-0.6866 0.29003-0.98042l4e-6 -2e-5c0.34566-1.1205 0.69403-2.1749 1.0391-3.1656l4e-6 -1e-5c1.2512-3.5945 2.6185-7.0484 4.0688-10.37l5e-6 -1e-5c4.6532-10.735 10.502-21.068 17.567-30.65l7e-6 -1e-5c8.8389-12.151 20.192-23.049 33.824-31.206 16.374-9.5154 34.786-13.686 52.742-12.778h1e-5c19.012 1.045 36.845 7.2166 52.022 16.85 8.935 5.6875 16.953 12.313 24.139 19.532 2.7224-12.051 4.2548-24.68 4.1671-37.839 7.0923 14.859 10.994 29.595 12.883 43.788v1e-5c2.0518 15.208 2.0233 29.899 0.44002 43.831v1e-5c-0.48288 4.2395-1.1206 8.3928-1.971 12.397-0.23245 1.0959-0.4922 2.157-0.79069 3.1732-0.078 0.26568-0.1656 0.51382-0.26453 0.743-0.0321 0.045-0.0687 0.081-0.11006 0.10784l11.16-5.4284 3.8669-1.8806 4e-3 -2e-3 -4e-3 2e-3 -3.8712 1.8827-11.221 5.458c-0.0213 4e-3 -0.047-1.2e-4 -0.0772-0.0132-0.14429-0.10555-0.29814-0.22663-0.46118-0.36436l-1.9407-1.6399v-1e-5c-2.4454-2.0792-4.9771-4.0844-7.5746-6.0583-8.5512-6.4808-17.43-11.923-26.403-16.106-9.8595-4.4888-19.453-7.4047-28.029-7.9002 9.2177-6.1537 20.034-10.643 31.748-13.685-6.4873-5.3602-13.33-9.9872-20.508-13.53-11.878-5.8676-24.907-9.009-37.204-8.2751-11.425 0.61393-22.623 4.3602-31.15 10.767-7.6348 5.4461-14.031 13.304-19.397 22.096h-4e-6c-4.2635 7.1137-7.6523 14.885-10.289 22.99l-2e-6 1e-5c-0.80769 2.5125-1.515 4.9734-2.0884 7.3808l-2e-6 1e-5c-0.15835 0.6652-0.29542 1.2775-0.4048 1.8375l-1e-6 1e-5c-0.02876 0.14716-0.04965 0.26468-0.06174 0.35265-0.0053 0.0313-0.0084 0.0542-0.0094 0.0686-2.5e-4 4e-3 -3.5e-4 7e-3 -3e-4 9e-3l1.1e-4 3e-3 -0.01121-5e-3 -0.03168-0.0171c-0.04081-0.0246-0.07936-0.0578-0.1158-0.0996h-1e-6c-0.15024-0.12886-0.29101-0.28998-0.42368-0.48147-0.50575-0.72887-0.97796-1.5319-1.426-2.3958h-1e-6c-1.6242-3.1277-3.0592-6.487-4.3433-10.001-2.0528-5.638-3.7647-11.557-5.0295-17.739-6.3613 2.3418-12.712 5.2757-18.948 8.7325h-2e-6c-3.8908 2.1524-7.7577 4.5582-11.573 7.3123h-2e-6c-1.0526 0.75899-2.1118 1.5908-3.1752 2.5143h-2e-6c-0.279 0.24212-0.56458 0.51795-0.85641 0.83016l-2e-6 1e-5c-0.07262 0.0707-0.14727 0.15088-0.22386 0.24057l-0.05896 0.0705-0.02061 0.0254z" style="fill:url(#b);filter:url(#a)"/><path transform="matrix(-.25154 0 0 -.25154 61.865 400.1)" d="m-17.219 748.35 0.0077-0.0284 0.02165-0.0795 0.07775-0.27665 3e-6 -1e-5c0.10243-0.35992 0.19939-0.68661 0.29004-0.98044l2e-6 -1e-5c0.34566-1.1205 0.69403-2.1749 1.0391-3.1656l4e-6 -1e-5c1.2512-3.5945 2.6185-7.0484 4.0688-10.37h2e-6c4.6532-10.735 10.502-21.068 17.567-30.65h3.5e-6c8.8389-12.151 20.192-23.049 33.824-31.206 16.374-9.5154 34.786-13.686 52.742-12.778h1.2e-5c19.012 1.045 36.845 7.2166 52.022 16.85 8.935 5.6875 16.953 12.313 24.139 19.532 2.7224-12.051 4.2548-24.68 4.1671-37.839 7.0923 14.859 10.994 29.595 12.883 43.788 2.1256 15.333 2.0764 29.989 0.37773 43.726-0.84995 5.8632-1.7978 11.551-2.8434 17.063l14.801-7.8478-14.801 7.8478c-3.5685-3.0657-7.0951-6.0564-10.58-8.972h-1e-5c-8.5146-6.4189-17.317-11.731-26.172-15.714-9.8596-4.4888-19.453-7.4047-28.029-7.9002 9.2177-6.1537 20.034-10.643 31.748-13.685-6.4873-5.3602-13.33-9.9872-20.508-13.53-11.878-5.8676-24.907-9.009-37.204-8.2751h-8e-6c-11.425 0.61393-22.623 4.3602-31.15 10.767-7.6348 5.4461-14.031 13.304-19.397 22.096h-4e-6c-4.2635 7.1137-7.6523 14.885-10.289 22.99l-3e-6 1e-5c-0.80769 2.5125-1.515 4.9734-2.0884 7.3808l-2e-6 1e-5c-0.15835 0.6652-0.29542 1.2775-0.4048 1.8375l-1e-6 1e-5c-0.02876 0.14716-0.04965 0.26468-0.06174 0.35265-0.0053 0.0313-0.0084 0.0542-0.0094 0.0687-2.5e-4 4e-3 -3.5e-4 7e-3 -3e-4 9e-3l1.1e-4 3e-3 -0.01121-5e-3 -0.03168-0.0171c-0.04081-0.0246-0.07936-0.0578-0.1158-0.0996h-1e-6c-0.15024-0.12886-0.29101-0.28998-0.42368-0.48147h-1e-6c-0.50575-0.72887-0.97796-1.5319-1.426-2.3958v-1e-5c-1.6242-3.1277-3.0592-6.487-4.3433-10.001h-1e-6c-2.0528-5.638-3.7647-11.557-5.0295-17.739-6.3613 2.3418-12.712 5.2757-18.948 8.7325h-1.8e-6c-3.8908 2.1524-7.7577 4.5582-11.573 7.3123h-2e-6c-1.0526 0.75899-2.1118 1.5908-3.1752 2.5143h-2e-6c-0.279 0.24212-0.56458 0.51795-0.85641 0.83016l-1e-6 1e-5c-0.07262 0.0708-0.14727 0.15088-0.22386 0.24057l-0.05896 0.0705-0.02061 0.0254z" style="fill:url(#c);filter:url(#a)"/></g></svg>
