<?xml version="1.0" encoding="UTF-8"?>
<svg width="167.6mm" height="187.56mm" version="1.1" viewBox="0 0 167.6 187.56" xmlns="http://www.w3.org/2000/svg" xmlns:xlink="http://www.w3.org/1999/xlink"><defs><linearGradient id="r" x1="318.96" x2="184.29" y1="598.46" y2="674.46" gradientTransform="matrix(1 0 0 -1 .1377 707.93)" gradientUnits="userSpaceOnUse"><stop stop-color="#f5e8b1" offset="0"/><stop stop-color="#d0b86d" offset=".1319"/><stop stop-color="#b7993a" offset=".3297"/><stop stop-color="#b49434" offset=".3571"/><stop stop-color="#8f6d23" offset=".4721"/><stop stop-color="#6c4a11" offset=".6084"/><stop stop-color="#593603" offset=".7138"/><stop stop-color="#523000" offset=".7747"/><stop stop-color="#553200" offset=".8079"/><stop stop-color="#5e3b08" offset=".8409"/><stop stop-color="#6c4916" offset=".8739"/><stop stop-color="#815f26" offset=".9069"/><stop stop-color="#9f803d" offset=".9397"/><stop stop-color="#c8ae5d" offset=".9723"/><stop stop-color="#c8ae5d" offset=".9725"/></linearGradient><linearGradient id="g" x1="369.72" x2="175.72" y1="585.68" y2="583.68" gradientTransform="matrix(1 0 0 -1 .1377 707.93)" gradientUnits="userSpaceOnUse"><stop stop-color="#f5e8b1" offset="0"/><stop stop-color="#d0b86d" offset=".1319"/><stop stop-color="#b7993a" offset=".3297"/><stop stop-color="#b49434" offset=".3571"/><stop stop-color="#8f6d23" offset=".4721"/><stop stop-color="#6c4a11" offset=".6084"/><stop stop-color="#593603" offset=".7138"/><stop stop-color="#523000" offset=".7747"/><stop stop-color="#553200" offset=".8079"/><stop stop-color="#5e3b08" offset=".8409"/><stop stop-color="#6c4916" offset=".8739"/><stop stop-color="#815f26" offset=".9069"/><stop stop-color="#9f803d" offset=".9397"/><stop stop-color="#c8ae5d" offset=".9723"/><stop stop-color="#c8ae5d" offset=".9725"/></linearGradient><linearGradient id="f" x1="245.03" x2="206.03" y1="666.47" y2="665.47" gradientTransform="matrix(1 0 0 -1 .1377 707.93)" gradientUnits="userSpaceOnUse"><stop stop-color="#523000" offset="0"/><stop stop-color="#553200" offset=".1762"/><stop stop-color="#5d3b06" offset=".3516"/><stop stop-color="#6a4810" offset=".5267"/><stop stop-color="#805d1e" offset=".7018"/><stop stop-color="#9c7b2d" offset=".8751"/><stop stop-color="#b7993a" offset="1"/></linearGradient><linearGradient id="d" x1="380.74" x2="79.203" y1="278.89" y2="278.3" gradientTransform="matrix(1 0 0 -1 .1377 707.93)" gradientUnits="userSpaceOnUse"><stop stop-color="#f5e8b1" offset="0"/><stop stop-color="#d0b86d" offset=".1319"/><stop stop-color="#b7993a" offset=".3297"/><stop stop-color="#523000" offset=".7747"/><stop stop-color="#553200" offset=".8079"/><stop stop-color="#5e3b08" offset=".8409"/><stop stop-color="#6c4916" offset=".8739"/><stop stop-color="#815f26" offset=".9069"/><stop stop-color="#9f803d" offset=".9397"/><stop stop-color="#c8ae5d" offset=".9723"/><stop stop-color="#c8ae5d" offset=".9725"/></linearGradient><linearGradient id="c" x1="349.34" x2="136.84" y1="410.57" y2="413.57" gradientTransform="matrix(1 0 0 -1 .1377 707.93)" gradientUnits="userSpaceOnUse"><stop stop-color="#f5e8b1" offset="0"/><stop stop-color="#d0b86d" offset=".1319"/><stop stop-color="#b7993a" offset=".3297"/><stop stop-color="#b49434" offset=".3571"/><stop stop-color="#8f6d23" offset=".4721"/><stop stop-color="#6c4a11" offset=".6084"/><stop stop-color="#593603" offset=".7138"/><stop stop-color="#523000" offset=".7747"/><stop stop-color="#553200" offset=".8079"/><stop stop-color="#5e3b08" offset=".8409"/><stop stop-color="#6c4916" offset=".8739"/><stop stop-color="#815f26" offset=".9069"/><stop stop-color="#9f803d" offset=".9397"/><stop stop-color="#c8ae5d" offset=".9723"/><stop stop-color="#c8ae5d" offset=".9725"/></linearGradient><linearGradient id="w" x1="30.281" x2="39.281" y1="284.9" y2="117.9" gradientTransform="matrix(1 0 0 -1 .1377 707.93)" gradientUnits="userSpaceOnUse"><stop stop-color="#f5e8b1" offset="0"/><stop stop-color="#d0b86d" offset=".1319"/><stop stop-color="#b7993a" offset=".3297"/><stop stop-color="#523000" offset=".7747"/><stop stop-color="#553200" offset=".8079"/><stop stop-color="#5e3b08" offset=".8409"/><stop stop-color="#6c4916" offset=".8739"/><stop stop-color="#815f26" offset=".9069"/><stop stop-color="#9f803d" offset=".9397"/><stop stop-color="#c8ae5d" offset=".9723"/><stop stop-color="#c8ae5d" offset=".9725"/></linearGradient><linearGradient id="u" x1="478.01" x2="475.01" y1="286.44" y2="110.44" gradientTransform="matrix(1 0 0 -1 .1377 707.93)" gradientUnits="userSpaceOnUse"><stop stop-color="#f5e8b1" offset="0"/><stop stop-color="#d0b86d" offset=".1319"/><stop stop-color="#b7993a" offset=".3297"/><stop stop-color="#523000" offset=".7747"/><stop stop-color="#553200" offset=".8079"/><stop stop-color="#5e3b08" offset=".8409"/><stop stop-color="#6c4916" offset=".8739"/><stop stop-color="#815f26" offset=".9069"/><stop stop-color="#9f803d" offset=".9397"/><stop stop-color="#c8ae5d" offset=".9723"/><stop stop-color="#c8ae5d" offset=".9725"/></linearGradient><linearGradient id="p" x1="415.09" x2="429.09" y1="549.07" y2="389.07" gradientTransform="matrix(1 0 0 -1 .1377 707.93)" gradientUnits="userSpaceOnUse"><stop stop-color="#f5e8b1" offset="0"/><stop stop-color="#d0b86d" offset=".1319"/><stop stop-color="#b7993a" offset=".3297"/><stop stop-color="#b49434" offset=".3571"/><stop stop-color="#8f6d23" offset=".4721"/><stop stop-color="#6c4a11" offset=".6084"/><stop stop-color="#593603" offset=".7138"/><stop stop-color="#523000" offset=".7747"/><stop stop-color="#553200" offset=".8079"/><stop stop-color="#5e3b08" offset=".8409"/><stop stop-color="#6c4916" offset=".8739"/><stop stop-color="#815f26" offset=".9069"/><stop stop-color="#9f803d" offset=".9397"/><stop stop-color="#c8ae5d" offset=".9723"/><stop stop-color="#c8ae5d" offset=".9725"/></linearGradient><linearGradient id="m" x1="83.374" x2="96.374" y1="547.3" y2="390.3" gradientTransform="matrix(1 0 0 -1 .1377 707.93)" gradientUnits="userSpaceOnUse"><stop stop-color="#f5e8b1" offset="0"/><stop stop-color="#d0b86d" offset=".1319"/><stop stop-color="#b7993a" offset=".3297"/><stop stop-color="#b49434" offset=".3571"/><stop stop-color="#8f6d23" offset=".4721"/><stop stop-color="#6c4a11" offset=".6084"/><stop stop-color="#593603" offset=".7138"/><stop stop-color="#523000" offset=".7747"/><stop stop-color="#553200" offset=".8079"/><stop stop-color="#5e3b08" offset=".8409"/><stop stop-color="#6c4916" offset=".8739"/><stop stop-color="#815f26" offset=".9069"/><stop stop-color="#9f803d" offset=".9397"/><stop stop-color="#c8ae5d" offset=".9723"/><stop stop-color="#c8ae5d" offset=".9725"/></linearGradient><linearGradient id="k" x1="91.233" x2="52.233" y1="217.88" y2="196.88" gradientTransform="matrix(1 0 0 -1 .1377 707.93)" gradientUnits="userSpaceOnUse"><stop stop-color="#f5e8b1" offset="0"/><stop stop-color="#d0b86d" offset=".1319"/><stop stop-color="#b7993a" offset=".3297"/><stop stop-color="#b49434" offset=".3571"/><stop stop-color="#8f6d23" offset=".4721"/><stop stop-color="#6c4a11" offset=".6084"/><stop stop-color="#593603" offset=".7138"/><stop stop-color="#523000" offset=".7747"/><stop stop-color="#553200" offset=".8079"/><stop stop-color="#5e3b08" offset=".8409"/><stop stop-color="#6c4916" offset=".8739"/><stop stop-color="#815f26" offset=".9069"/><stop stop-color="#9f803d" offset=".9397"/><stop stop-color="#c8ae5d" offset=".9723"/><stop stop-color="#c8ae5d" offset=".9725"/></linearGradient><linearGradient id="j" x1="443.23" x2="419.73" y1="221.82" y2="198.32" gradientTransform="matrix(1 0 0 -1 .1377 707.93)" gradientUnits="userSpaceOnUse"><stop stop-color="#f5e8b1" offset="0"/><stop stop-color="#d0b86d" offset=".1319"/><stop stop-color="#b7993a" offset=".3297"/><stop stop-color="#b49434" offset=".3571"/><stop stop-color="#8f6d23" offset=".4721"/><stop stop-color="#6c4a11" offset=".6084"/><stop stop-color="#593603" offset=".7138"/><stop stop-color="#523000" offset=".7747"/><stop stop-color="#553200" offset=".8079"/><stop stop-color="#5e3b08" offset=".8409"/><stop stop-color="#6c4916" offset=".8739"/><stop stop-color="#815f26" offset=".9069"/><stop stop-color="#9f803d" offset=".9397"/><stop stop-color="#c8ae5d" offset=".9723"/><stop stop-color="#c8ae5d" offset=".9725"/></linearGradient><filter id="an-7" x="76.604" y="57.211" width="95.219" height="105.72" filterUnits="userSpaceOnUse"><feColorMatrix values="1 0 0 0 0  0 1 0 0 0  0 0 1 0 0  0 0 0 1 0"/></filter><linearGradient id="e-8" x1="321.14" x2="287.14" y1="42.089" y2="42.089" gradientUnits="userSpaceOnUse"><stop stop-color="#523000" offset="0"/><stop stop-color="#553200" offset=".1762"/><stop stop-color="#5d3b06" offset=".3516"/><stop stop-color="#6a4810" offset=".5267"/><stop stop-color="#805d1e" offset=".7018"/><stop stop-color="#9c7b2d" offset=".8751"/><stop stop-color="#b7993a" offset="1"/></linearGradient><linearGradient id="aj-7" x1="32.191" x2="104.87" gradientUnits="userSpaceOnUse"><stop stop-color="#f5e8b1" offset="0"/><stop stop-color="#d0b86d" offset=".1319"/><stop stop-color="#b7993a" offset=".3297"/><stop stop-color="#523000" offset=".7747"/><stop stop-color="#553200" offset=".8079"/><stop stop-color="#5e3b08" offset=".8409"/><stop stop-color="#6c4916" offset=".8739"/><stop stop-color="#815f26" offset=".9069"/><stop stop-color="#9f803d" offset=".9397"/><stop stop-color="#c8ae5d" offset=".9723"/><stop stop-color="#c8ae5d" offset=".9725"/></linearGradient><linearGradient id="ah-9" x1="25.415" x2="53.288" gradientUnits="userSpaceOnUse"><stop stop-color="#f5e8b1" offset="0"/><stop stop-color="#d0b86d" offset=".1319"/><stop stop-color="#b7993a" offset=".3297"/><stop stop-color="#523000" offset=".7747"/><stop stop-color="#553200" offset=".8079"/><stop stop-color="#5e3b08" offset=".8409"/><stop stop-color="#6c4916" offset=".8739"/><stop stop-color="#815f26" offset=".9069"/><stop stop-color="#9f803d" offset=".9397"/><stop stop-color="#c8ae5d" offset=".9723"/><stop stop-color="#c8ae5d" offset=".9725"/></linearGradient><linearGradient id="ag-0" x1="83.787" x2="111.65" gradientUnits="userSpaceOnUse"><stop stop-color="#f5e8b1" offset="0"/><stop stop-color="#d0b86d" offset=".1319"/><stop stop-color="#b7993a" offset=".3297"/><stop stop-color="#523000" offset=".7747"/><stop stop-color="#553200" offset=".8079"/><stop stop-color="#5e3b08" offset=".8409"/><stop stop-color="#6c4916" offset=".8739"/><stop stop-color="#815f26" offset=".9069"/><stop stop-color="#9f803d" offset=".9397"/><stop stop-color="#c8ae5d" offset=".9723"/><stop stop-color="#c8ae5d" offset=".9725"/></linearGradient><linearGradient id="af-0" x1="407.64" x2="480.33" gradientUnits="userSpaceOnUse"><stop stop-color="#f5e8b1" offset="0"/><stop stop-color="#d0b86d" offset=".1319"/><stop stop-color="#b7993a" offset=".3297"/><stop stop-color="#523000" offset=".7747"/><stop stop-color="#553200" offset=".8079"/><stop stop-color="#5e3b08" offset=".8409"/><stop stop-color="#6c4916" offset=".8739"/><stop stop-color="#815f26" offset=".9069"/><stop stop-color="#9f803d" offset=".9397"/><stop stop-color="#c8ae5d" offset=".9723"/><stop stop-color="#c8ae5d" offset=".9725"/></linearGradient><linearGradient id="ad-6" x1="459.23" x2="487.1" gradientUnits="userSpaceOnUse"><stop stop-color="#f5e8b1" offset="0"/><stop stop-color="#d0b86d" offset=".1319"/><stop stop-color="#b7993a" offset=".3297"/><stop stop-color="#523000" offset=".7747"/><stop stop-color="#553200" offset=".8079"/><stop stop-color="#5e3b08" offset=".8409"/><stop stop-color="#6c4916" offset=".8739"/><stop stop-color="#815f26" offset=".9069"/><stop stop-color="#9f803d" offset=".9397"/><stop stop-color="#c8ae5d" offset=".9723"/><stop stop-color="#c8ae5d" offset=".9725"/></linearGradient><linearGradient id="ab-1" x1="400.87" x2="428.73" gradientUnits="userSpaceOnUse"><stop stop-color="#f5e8b1" offset="0"/><stop stop-color="#d0b86d" offset=".1319"/><stop stop-color="#b7993a" offset=".3297"/><stop stop-color="#523000" offset=".7747"/><stop stop-color="#553200" offset=".8079"/><stop stop-color="#5e3b08" offset=".8409"/><stop stop-color="#6c4916" offset=".8739"/><stop stop-color="#815f26" offset=".9069"/><stop stop-color="#9f803d" offset=".9397"/><stop stop-color="#c8ae5d" offset=".9723"/><stop stop-color="#c8ae5d" offset=".9725"/></linearGradient><linearGradient id="aa-6" x1="215.92" x2="296.81" gradientUnits="userSpaceOnUse"><stop stop-color="#f5e8b1" offset="0"/><stop stop-color="#d0b86d" offset=".1319"/><stop stop-color="#b7993a" offset=".3297"/><stop stop-color="#523000" offset=".7747"/><stop stop-color="#553200" offset=".8079"/><stop stop-color="#5e3b08" offset=".8409"/><stop stop-color="#6c4916" offset=".8739"/><stop stop-color="#815f26" offset=".9069"/><stop stop-color="#9f803d" offset=".9397"/><stop stop-color="#c8ae5d" offset=".9723"/><stop stop-color="#c8ae5d" offset=".9725"/></linearGradient><linearGradient id="y-8" x1="284.05" x2="311.22" gradientUnits="userSpaceOnUse"><stop stop-color="#f5e8b1" offset="0"/><stop stop-color="#d0b86d" offset=".1319"/><stop stop-color="#b7993a" offset=".3297"/><stop stop-color="#523000" offset=".7747"/><stop stop-color="#553200" offset=".8079"/><stop stop-color="#5e3b08" offset=".8409"/><stop stop-color="#6c4916" offset=".8739"/><stop stop-color="#815f26" offset=".9069"/><stop stop-color="#9f803d" offset=".9397"/><stop stop-color="#c8ae5d" offset=".9723"/><stop stop-color="#c8ae5d" offset=".9725"/></linearGradient><linearGradient id="x-4" x1="201.51" x2="228.67" gradientUnits="userSpaceOnUse"><stop stop-color="#f5e8b1" offset="0"/><stop stop-color="#d0b86d" offset=".1319"/><stop stop-color="#b7993a" offset=".3297"/><stop stop-color="#523000" offset=".7747"/><stop stop-color="#553200" offset=".8079"/><stop stop-color="#5e3b08" offset=".8409"/><stop stop-color="#6c4916" offset=".8739"/><stop stop-color="#815f26" offset=".9069"/><stop stop-color="#9f803d" offset=".9397"/><stop stop-color="#c8ae5d" offset=".9723"/><stop stop-color="#c8ae5d" offset=".9725"/></linearGradient><linearGradient id="v-7" x1="276.94" x2="440.6" gradientUnits="userSpaceOnUse"><stop stop-color="#f5e8b1" offset="0"/><stop stop-color="#d0b86d" offset=".1319"/><stop stop-color="#b7993a" offset=".3297"/><stop stop-color="#523000" offset=".7747"/><stop stop-color="#553200" offset=".8079"/><stop stop-color="#5e3b08" offset=".8409"/><stop stop-color="#6c4916" offset=".8739"/><stop stop-color="#815f26" offset=".9069"/><stop stop-color="#9f803d" offset=".9397"/><stop stop-color="#c8ae5d" offset=".9723"/><stop stop-color="#c8ae5d" offset=".9725"/></linearGradient><linearGradient id="t-9" x1="71.604" x2="235.85" gradientUnits="userSpaceOnUse"><stop stop-color="#f5e8b1" offset="0"/><stop stop-color="#d0b86d" offset=".1319"/><stop stop-color="#b7993a" offset=".3297"/><stop stop-color="#523000" offset=".7747"/><stop stop-color="#553200" offset=".8079"/><stop stop-color="#5e3b08" offset=".8409"/><stop stop-color="#6c4916" offset=".8739"/><stop stop-color="#815f26" offset=".9069"/><stop stop-color="#9f803d" offset=".9397"/><stop stop-color="#c8ae5d" offset=".9723"/><stop stop-color="#c8ae5d" offset=".9725"/></linearGradient><linearGradient id="q-0" x1="406.82" x2="464.14" gradientUnits="userSpaceOnUse"><stop stop-color="#f5e8b1" offset="0"/><stop stop-color="#d0b86d" offset=".1319"/><stop stop-color="#b7993a" offset=".3297"/><stop stop-color="#b49434" offset=".3571"/><stop stop-color="#8f6d23" offset=".4721"/><stop stop-color="#6c4a11" offset=".6084"/><stop stop-color="#593603" offset=".7138"/><stop stop-color="#523000" offset=".7747"/><stop stop-color="#553200" offset=".8079"/><stop stop-color="#5e3b08" offset=".8409"/><stop stop-color="#6c4916" offset=".8739"/><stop stop-color="#815f26" offset=".9069"/><stop stop-color="#9f803d" offset=".9397"/><stop stop-color="#c8ae5d" offset=".9723"/><stop stop-color="#c8ae5d" offset=".9725"/></linearGradient><linearGradient id="n-6" x1="47.202" x2="104.52" gradientUnits="userSpaceOnUse"><stop stop-color="#f5e8b1" offset="0"/><stop stop-color="#d0b86d" offset=".1319"/><stop stop-color="#b7993a" offset=".3297"/><stop stop-color="#b49434" offset=".3571"/><stop stop-color="#8f6d23" offset=".4721"/><stop stop-color="#6c4a11" offset=".6084"/><stop stop-color="#593603" offset=".7138"/><stop stop-color="#523000" offset=".7747"/><stop stop-color="#553200" offset=".8079"/><stop stop-color="#5e3b08" offset=".8409"/><stop stop-color="#6c4916" offset=".8739"/><stop stop-color="#815f26" offset=".9069"/><stop stop-color="#9f803d" offset=".9397"/><stop stop-color="#c8ae5d" offset=".9723"/><stop stop-color="#c8ae5d" offset=".9725"/></linearGradient><mask id="i-1" x="76.604" y="57.211" width="95.219" height="105.715" maskUnits="userSpaceOnUse"><g style="filter:url(#an-7)"><path d="m164.17 61.753c14.29 11.816 7.983 43.024-14.084 69.711-22.066 26.685-51.537 38.74-65.827 26.923-14.296-11.822-7.994-43.036 14.072-69.72 22.068-26.686 51.542-38.736 65.839-26.914z" style="fill:url(#h-50)"/></g></mask><radialGradient id="ac-1" cx="358.72" cy="590.33" r="362.09" gradientTransform="matrix(1 0 0 -1 .1377 707.93)" gradientUnits="userSpaceOnUse"><stop stop-color="#fff" offset="0"/><stop stop-color="#fbf7e8" offset=".0329"/><stop stop-color="#f5e8b1" offset=".1374"/><stop stop-color="#d0b86d" offset=".3901"/><stop stop-color="#b49434" offset=".5055"/><stop stop-color="#8f6d23" offset=".5796"/><stop stop-color="#6c4a11" offset=".6675"/><stop stop-color="#593603" offset=".7354"/><stop stop-color="#523000" offset=".7747"/><stop stop-color="#553200" offset=".8125"/><stop stop-color="#5e3b08" offset=".8501"/><stop stop-color="#6c4916" offset=".8877"/><stop stop-color="#815f26" offset=".9253"/><stop stop-color="#9f803d" offset=".9626"/><stop stop-color="#c8ae5d" offset=".9997"/><stop stop-color="#c8ae5d" offset="1"/></radialGradient><radialGradient id="a-9" cx="259.72" cy="510.33" r="13.314" gradientTransform="matrix(1 0 0 -1 .1377 707.93)" gradientUnits="userSpaceOnUse"><stop stop-color="#f5e8b1" offset="0"/><stop stop-color="#b7993a" offset=".6209"/><stop stop-color="#735116" offset=".8681"/><stop stop-color="#765318" offset=".9026"/><stop stop-color="#7c5a1c" offset=".9253"/><stop stop-color="#886624" offset=".9445"/><stop stop-color="#9a792f" offset=".9618"/><stop stop-color="#b2933e" offset=".9777"/><stop stop-color="#bda045" offset=".9835"/></radialGradient><radialGradient id="am-0" cx="256.22" cy="324.83" r="13.125" gradientTransform="matrix(1 0 0 -1 .1377 707.93)" gradientUnits="userSpaceOnUse"><stop stop-color="#f5e8b1" offset="0"/><stop stop-color="#b7993a" offset=".6209"/><stop stop-color="#735116" offset=".8681"/><stop stop-color="#765318" offset=".9026"/><stop stop-color="#7c5a1c" offset=".9253"/><stop stop-color="#886624" offset=".9445"/><stop stop-color="#9a792f" offset=".9618"/><stop stop-color="#b2933e" offset=".9777"/><stop stop-color="#bda045" offset=".9835"/></radialGradient><radialGradient id="al-5" cx="352.72" cy="418.83" r="13.928" gradientTransform="matrix(1 0 0 -1 .1377 707.93)" gradientUnits="userSpaceOnUse"><stop stop-color="#f5e8b1" offset="0"/><stop stop-color="#b7993a" offset=".6209"/><stop stop-color="#735116" offset=".8681"/><stop stop-color="#765318" offset=".9026"/><stop stop-color="#7c5a1c" offset=".9253"/><stop stop-color="#886624" offset=".9445"/><stop stop-color="#9a792f" offset=".9618"/><stop stop-color="#b2933e" offset=".9777"/><stop stop-color="#bda045" offset=".9835"/></radialGradient><radialGradient id="ak-1" cx="166.72" cy="416.33" r="13.901" gradientTransform="matrix(1 0 0 -1 .1377 707.93)" gradientUnits="userSpaceOnUse"><stop stop-color="#f5e8b1" offset="0"/><stop stop-color="#b7993a" offset=".6209"/><stop stop-color="#735116" offset=".8681"/><stop stop-color="#765318" offset=".9026"/><stop stop-color="#7c5a1c" offset=".9253"/><stop stop-color="#886624" offset=".9445"/><stop stop-color="#9a792f" offset=".9618"/><stop stop-color="#b2933e" offset=".9777"/><stop stop-color="#bda045" offset=".9835"/></radialGradient><radialGradient id="ai-1" cx="65.22" cy="121.83" r="38.658" gradientTransform="matrix(1 0 0 -1 .1377 707.93)" gradientUnits="userSpaceOnUse"><stop stop-color="#f5e8b1" offset="0"/><stop stop-color="#b7993a" offset=".6209"/><stop stop-color="#735116" offset=".8681"/><stop stop-color="#765318" offset=".9026"/><stop stop-color="#7c5a1c" offset=".9253"/><stop stop-color="#886624" offset=".9445"/><stop stop-color="#9a792f" offset=".9618"/><stop stop-color="#b2933e" offset=".9777"/><stop stop-color="#bda045" offset=".9835"/></radialGradient><radialGradient id="ae-1" cx="443.72" cy="121.83" r="37.001" gradientTransform="matrix(1 0 0 -1 .1377 707.93)" gradientUnits="userSpaceOnUse"><stop stop-color="#f5e8b1" offset="0"/><stop stop-color="#b7993a" offset=".6209"/><stop stop-color="#735116" offset=".8681"/><stop stop-color="#765318" offset=".9026"/><stop stop-color="#7c5a1c" offset=".9253"/><stop stop-color="#886624" offset=".9445"/><stop stop-color="#9a792f" offset=".9618"/><stop stop-color="#b2933e" offset=".9777"/><stop stop-color="#bda045" offset=".9835"/></radialGradient><radialGradient id="z-9" cx="255.22" cy="47.829" r="35.504" gradientTransform="matrix(1 0 0 -1 .1377 707.93)" gradientUnits="userSpaceOnUse"><stop stop-color="#f5e8b1" offset="0"/><stop stop-color="#b7993a" offset=".6209"/><stop stop-color="#735116" offset=".8681"/><stop stop-color="#765318" offset=".9026"/><stop stop-color="#7c5a1c" offset=".9253"/><stop stop-color="#886624" offset=".9445"/><stop stop-color="#9a792f" offset=".9618"/><stop stop-color="#b2933e" offset=".9777"/><stop stop-color="#bda045" offset=".9835"/></radialGradient><radialGradient id="s-7" cx="325.72" cy="268.33" r="266.33" gradientTransform="matrix(1 0 0 -1 .1377 707.93)" gradientUnits="userSpaceOnUse"><stop stop-color="#fff" offset="0"/><stop stop-color="#fbf7e8" offset=".0329"/><stop stop-color="#f5e8b1" offset=".1374"/><stop stop-color="#d0b86d" offset=".3901"/><stop stop-color="#b49434" offset=".5055"/><stop stop-color="#8f6d23" offset=".5796"/><stop stop-color="#6c4a11" offset=".6675"/><stop stop-color="#593603" offset=".7354"/><stop stop-color="#523000" offset=".7747"/><stop stop-color="#553200" offset=".8125"/><stop stop-color="#5e3b08" offset=".8501"/><stop stop-color="#6c4916" offset=".8877"/><stop stop-color="#815f26" offset=".9253"/><stop stop-color="#9f803d" offset=".9626"/><stop stop-color="#c8ae5d" offset=".9997"/><stop stop-color="#c8ae5d" offset="1"/></radialGradient><radialGradient id="h-50" cx="60.388" cy="572.46" r="34.508" gradientTransform="matrix(.9649 -1.1669 -.6249 -.5168 423.67 476.38)" gradientUnits="userSpaceOnUse"><stop stop-color="#fff" offset="0"/><stop offset="1"/></radialGradient></defs><g transform="translate(10.61 5.5343)"><g transform="matrix(1.2371 0 0 1 1.1829 -39.421)" style="stroke-width:.89908"><g transform="matrix(.26458 0 0 .26458 -9.5596 33.859)" style="stroke-width:.89908"><path d="m425.25 324.66c-0.455 0.015-0.912-0.014-1.363-0.074h-26.303c-0.693 0.074-1.381 0.095-2.066 0-14.441-1.986-20.928-41.637-14.465-88.56 6.457-46.913 23.406-81.356 37.85-81.356h20.135c-0.18-0.807-0.35-1.604-0.533-2.421-29.827-131.01-141.67-151.24-184.27-151.24-42.61 0-154.44 20.237-184.27 151.24-0.184 0.815-0.357 1.614-0.536 2.421h21.219c14.441 0 31.394 34.444 37.85 81.356 6.458 46.923-0.021 86.573-14.467 88.56-0.685 0.095-1.374 0.074-2.069 0h-26.301c-0.449 0.061-0.906 0.088-1.36 0.074-6.674-0.173-11.886-8.208-18.191-21.405 7.206 39.338 17.935 66.104 22.833 84.056l-0.101 0.177c40.085 18.714 99.172 30.572 165.12 30.572 66.196 0 125.48-11.947 165.58-30.79 4.756-17.414 18.662-43.123 25.947-80.547-5.851 11.124-14.171 17.782-20.24 17.938z" style="fill:url(#ac-1);stroke-width:.89908"/><path d="m255.28 9.544c-50.001 0-90.536 28.614-90.536 63.909s40.535 63.905 90.536 63.905 90.531-28.61 90.531-63.905-40.535-63.909-90.531-63.909zm71.967 53.142h-61.953v-40.664c30.843 2.958 55.597 19.407 61.953 40.664zm-82.552-40.613v40.613h-61.379c6.306-21.121 30.796-37.502 61.379-40.613zm-61.385 62.141h61.385v40.616c-30.583-3.108-55.078-19.492-61.385-40.616zm81.984 40.67v-40.67h61.953c-6.352 21.257-31.11 37.705-61.953 40.67z" style="fill:url(#r);stroke-width:.89908"/><path d="m165.59 73.164v37.539c0 35.292 40.535 63.905 90.541 63.905 49.996 0 90.525-28.613 90.525-63.905v-37.157c-0.293 35.119-40.709 63.523-90.525 63.523-50.002 0-90.535-28.61-90.535-63.905" style="fill:url(#g);stroke-width:.89908"/><path d="m191.68 62.396h4.463c1.628 0 3.127-1.428 4.526-2.195 10.792-5.913 22.689-9.725 34.813-11.724 3.056-0.503 6.124-0.888 9.207-1.163 0.563-0.049 0.778-0.116 0.854-0.289v-25.241c-0.852 0.089-1.699 0.188-2.543 0.296-8.695 1.132-17.964 3.548-26.576 7.379-15.466 7.013-26.965 18.001-31.596 30.925-0.233 0.663-0.459 1.331-0.662 2.013z" style="fill:url(#f);stroke-width:.89908"/><path d="m275.18 48.389c12.099 1.928 23.982 5.658 34.789 11.475 1.396 0.755 3.334 2.533 4.934 2.533h12.2c-0.172-0.579-0.365-1.151-0.564-1.723-0.191-0.539-0.395-1.074-0.607-1.605-0.012-0.028-0.02-0.058-0.033-0.087-0.27-0.674-0.561-1.335-0.857-1.988-0.035-0.076-0.066-0.153-0.105-0.229-0.145-0.318-0.311-0.626-0.465-0.94-6.514-12.974-20.107-23.575-37.52-29.478l-6e-3 -2e-3c-0.658-0.223-1.326-0.434-1.996-0.643l-1.385-0.421-0.543-0.156c-3.689-1.059-7.414-1.89-11.096-2.501l-0.062-0.011c-0.645-0.106-1.287-0.203-1.928-0.297l-0.893-0.124c-0.474-0.063-0.943-0.127-1.414-0.185-0.822-0.099-1.646-0.193-2.479-0.273v25.473c3.356 0.257 6.705 0.651 10.03 1.182z" style="fill:url(#e-8);stroke-width:.89908"/><path d="m265.29 124.88c30.844-2.965 55.602-19.414 61.953-40.67h-61.953z" style="fill:#a00;stroke-width:.89908"/><path d="m275.32 48.678c-3.326-0.531-6.677-0.925-10.033-1.183v15.19h49.754c-1.598 0-3.535-1.777-4.934-2.533-10.805-5.817-22.692-9.547-34.787-11.474z" style="fill:#a00;stroke-width:.89908"/><path d="m243.84 47.603c-3.083 0.275-6.151 0.66-9.207 1.163-12.124 1.999-24.021 5.812-34.813 11.723-1.399 0.769-2.898 2.196-4.526 2.196h49.4v-15.371c-0.075 0.173-0.29 0.24-0.854 0.289z" style="fill:#a00;stroke-width:.89908"/><path d="m244.69 124.83v-40.616h-61.385c6.308 21.124 30.803 37.508 61.385 40.616z" style="fill:#a00;stroke-width:.89908"/><path d="m421.42 387.3c0-0.014 4e-3 -0.027 0.014-0.041-40.096 18.843-99.375 30.79-165.57 30.79-65.951 0-125.04-11.858-165.12-30.572-8.259 14.871-12.177 23.82-11.424 30.723 0.209 1.952 0.77 3.739 1.732 5.446 8.522 13.853 19.566 42.404 175.08 47.735 155.5-5.331 166.56-33.884 175.08-47.735 0.963-1.707 1.523-3.494 1.734-5.446 0.746-6.93-3.203-15.926-11.524-30.9z" style="fill:url(#d);stroke-width:.89908"/><path d="m146.8 296.04c0-60.228 48.83-109.06 109.06-109.06s109.06 48.83 109.06 109.06-48.83 109.06-109.06 109.06-109.06-48.831-109.06-109.06z" style="fill:url(#c);stroke-width:.89908"/><path d="m175.45 296.04c0-44.41 36.002-80.416 80.414-80.416s80.421 36.005 80.421 80.416c0 44.417-36.008 80.425-80.421 80.425s-80.414-36.008-80.414-80.425z" style="fill:#a00;stroke-width:.89908"/><path d="m266.12 201.87c0 5.515-4.472 9.995-9.981 9.995-5.52 0-9.994-4.48-9.994-9.995s4.474-9.982 9.994-9.982c5.51-1e-3 9.981 4.47 9.981 9.982z" style="fill:url(#a-9);stroke-width:.89908"/><path d="m265.85 389.62a9.985 9.985 0 1 0-19.97 0 9.985 9.985 0 1 0 19.97 0" style="fill:url(#am-0);stroke-width:.89908"/><path d="m360.74 296.04c0 5.521-4.467 9.988-9.982 9.988-5.518 0-9.992-4.468-9.992-9.988s4.477-9.985 9.992-9.985c5.515-1e-3 9.982 4.47 9.982 9.985z" style="fill:url(#al-5);stroke-width:.89908"/><path d="m171.69 296.04c0 5.521-4.469 9.988-9.991 9.988-5.513 0-9.984-4.468-9.984-9.988s4.471-9.985 9.984-9.985c5.522-1e-3 9.991 4.47 9.991 9.985z" style="fill:url(#ak-1);stroke-width:.89908"/><path d="m92.446 619.64 9.015 9.023c7.184-12.595 2.844-31.817-11.276-45.935s-33.325-18.448-45.917-11.268l9.019 9.01-8.665 8.663-9.018-9.018c-7.181 12.58-2.848 31.805 11.277 45.92 14.119 14.123 33.332 18.455 45.92 11.274l-9.015-9.017zm-41.8 2.631c-9.878-9.88-9.878-25.894 7e-3 -35.768 9.875-9.888 25.893-9.888 35.768 0 9.884 9.874 9.884 25.888 5e-3 35.768s-25.898 9.88-35.78 0z" style="fill:url(#aj-7);stroke-width:.89908"/><path d="m86.42 586.51c-9.875-9.888-25.892-9.888-35.768 0-9.885 9.874-9.885 25.888-7e-3 35.768s25.899 9.881 35.78 0 9.879-25.894-5e-3 -35.768z" style="fill:url(#ai-1);stroke-width:.89908"/><path d="m44.269 571.47-10.189-10.193-8.665 8.656 10.189 10.193 9.019 9.017 8.665-8.663z" style="fill:url(#ah-9);stroke-width:.89908"/><path d="m101.46 628.67-9.015-9.023-8.659 8.656 9.015 9.017 10.186 10.193 8.66-8.663z" style="fill:url(#ag-0);stroke-width:.89908"/><path d="m428.73 628.3-9.014 9.017c12.586 7.182 31.799 2.85 45.916-11.273 14.127-14.116 18.461-33.341 11.277-45.92l-9.018 9.017-8.668-8.663 9.021-9.01c-12.59-7.182-31.799-2.851-45.92 11.268s-18.457 33.34-11.273 45.935l9.018-9.023zm-2.639-6.025c-9.877-9.88-9.877-25.894 4e-3 -35.768 9.877-9.888 25.896-9.888 35.771 0 9.887 9.874 9.887 25.888 6e-3 35.768s-25.9 9.88-35.781 0z" style="fill:url(#af-0);stroke-width:.89908"/><path d="m426.1 586.51c9.877-9.888 25.896-9.888 35.771 0 9.887 9.874 9.887 25.888 6e-3 35.768s-25.9 9.881-35.781 0-9.877-25.894 4e-3 -35.768z" style="fill:url(#ae-1);stroke-width:.89908"/><path d="m468.25 571.47 10.189-10.193 8.662 8.656-10.189 10.193-9.016 9.017-8.666-8.663z" style="fill:url(#ad-6);stroke-width:.89908"/><path d="m411.05 628.67 9.018-9.023 8.66 8.656-9.014 9.017-10.185 10.193-8.66-8.663z" style="fill:url(#ab-1);stroke-width:.89908"/><path d="m228.67 683.6-12.751 7e-3c3.823 13.974 20.473 24.493 40.442 24.493s36.626-10.521 40.444-24.493h-12.757v-12.254h12.757c-3.828-13.98-20.481-24.493-40.444-24.5-19.964 0-36.626 10.52-40.446 24.5h12.753zm2.392-6.127c0-13.967 11.327-25.296 25.299-25.296s25.294 11.329 25.294 25.303-11.322 25.296-25.292 25.296-25.301-11.329-25.301-25.303z" style="fill:url(#aa-6);stroke-width:.89908"/><path d="m256.36 652.18c13.968 0 25.294 11.329 25.294 25.303s-11.322 25.296-25.292 25.296-25.301-11.329-25.301-25.303 11.328-25.296 25.299-25.296z" style="fill:url(#z-9);stroke-width:.89908"/><path d="m296.81 671.35h14.404l4e-3 12.247-14.408 7e-3h-12.757v-12.254z" style="fill:url(#y-8);stroke-width:.89908"/><path d="m215.92 671.35h12.754l1e-3 12.247-12.751 7e-3h-14.414l5e-3 -12.254z" style="fill:url(#x-4);stroke-width:.89908"/><path d="m44.269 571.47c7.301-4.168 16.835-4.435 26.307-1.185-4.069-8.085-7.621-15.871-11.492-22.875-40.964-88.433-23.995-125.81-9.542-141.52-5.348-2.802-10.749-4.923-16.556-4.923-13.312 0-48.99 47.396-22.367 123.55 4.877 13.945 10.061 28.823 16.396 43.824l7.063-7.059 10.191 10.195z" style="fill:url(#w);stroke-width:.89908"/><path d="m419.72 637.32-10.186 10.193-8.66-8.663 10.182-10.18c-2.154-3.781-3.254-8.16-3.379-12.818-23.1 19.346-60.068 34.714-125.13 37.957 7.188 4.38 12.342 10.525 14.268 17.544h14.404l4e-3 12.247-14.408 7e-3c-2.387 8.724-9.785 16.108-19.869 20.42 81.689-3.761 131.3-29.817 163.66-64.056-7.613 1.523-14.976 0.715-20.879-2.651z" style="fill:url(#v-7);stroke-width:.89908"/><path d="m479.27 400.96c-5.807 0-11.205 2.121-16.555 4.923 14.457 15.715 31.422 53.094-9.533 141.52-3.893 7.031-7.459 14.865-11.557 22.984 9.578-3.359 19.24-3.142 26.621 1.074l10.191-10.193 6.881 6.875c6.301-14.933 11.465-29.75 16.322-43.642 26.63-76.15-9.056-123.55-22.37-123.55z" style="fill:url(#u);stroke-width:.89908"/><path d="m215.92 683.6h-14.414l5e-3 -12.254h14.406c1.916-7.004 7.06-13.145 14.226-17.523-65.092-3.188-102.15-18.476-125.31-37.767-0.158 4.576-1.246 8.881-3.371 12.606l10.187 10.181-8.66 8.663-10.187-10.193c-5.987 3.413-13.478 4.195-21.199 2.584 32.422 34.354 82.189 60.472 164.25 64.15-10.114-4.305-17.539-11.696-19.931-20.447z" style="fill:url(#t-9);stroke-width:.89908"/><path d="m59.084 547.41c3.871 7.004 7.422 14.79 11.492 22.875 6.858 2.348 13.683 6.528 19.609 12.451 9.948 9.948 15.016 22.419 14.647 33.326 23.164 19.291 60.22 34.578 125.31 37.767 7.129-4.357 16.262-6.977 26.22-6.977 9.938 7e-3 19.056 2.611 26.179 6.956 65.062-3.243 102.03-18.611 125.13-37.957-0.301-10.854 4.77-23.229 14.652-33.115 5.838-5.834 12.551-9.969 19.299-12.342 4.098-8.119 7.664-15.953 11.557-22.984 40.955-88.433 23.99-125.81 9.533-141.52-6.918 3.611-13.75 8.344-21.256 11.05-1.385 0.504-4.342 0.918-8.518 1.271-0.211 1.951-0.771 3.739-1.734 5.446-8.52 13.853-19.57 42.404-175.08 47.735-155.52-5.331-166.56-33.884-175.08-47.735-0.962-1.707-1.523-3.495-1.732-5.446-4.177-0.354-7.137-0.769-8.517-1.271-7.509-2.706-14.341-7.438-21.26-11.05-14.452 15.714-31.421 53.093 9.543 141.52z" style="fill:url(#s-7);stroke-width:.89908"/><path d="m461.64 243.23c6.457-46.919-0.02-86.57-14.471-88.562-14.445-1.979-31.395 34.444-37.852 81.356-6.457 46.923 0.027 86.573 14.467 88.56 14.458 1.989 31.399-34.435 37.856-81.354z" style="fill:url(#q-0);stroke-width:.89908"/><path d="m448.17 154.66c-0.68-0.096-1.371-0.071-2.064 0h-26.303c-14.441 0-31.395 34.444-37.852 81.356-6.459 46.923 0.021 86.573 14.467 88.56 0.684 0.095 1.375 0.074 2.068 0h26.299c14.455 1.988 31.396-34.436 37.857-81.354 6.453-46.92-0.023-86.571-14.472-88.562z" style="fill:url(#p);stroke-width:.89908"/><path d="m458.42 242.65c5.416-39.338-0.021-72.583-12.135-74.245-12.107-1.669-26.318 28.869-31.734 68.207-5.41 39.331 0.023 72.569 12.131 74.242 12.116 1.665 26.322-28.874 31.738-68.204z" style="fill:#a00;stroke-width:.89908"/><path d="m49.704 243.23c-6.46-46.919 0.021-86.57 14.47-88.562 14.441-1.979 31.395 34.444 37.85 81.356 6.453 46.923-0.025 86.573-14.467 88.56-14.456 1.989-31.396-34.435-37.853-81.354z" style="fill:url(#n-6);stroke-width:.89908"/><path d="m64.178 154.66c0.68-0.096 1.37-0.071 2.063 0h26.308c14.441 0 31.392 34.444 37.847 81.356 6.459 46.923-0.019 86.573-14.464 88.56-0.687 0.095-1.374 0.074-2.067 0h-26.304c-14.451 1.988-31.398-34.436-37.852-81.354-6.458-46.92 0.017-86.571 14.469-88.562z" style="fill:url(#m);stroke-width:.89908"/><path d="m53.932 242.65c-5.418-39.338 0.014-72.583 12.133-74.245 12.104-1.669 26.317 28.869 31.737 68.207 5.407 39.331-0.026 72.569-12.135 74.242-12.119 1.665-26.324-28.874-31.735-68.204z" style="fill:#a00;stroke-width:.89908"/><path d="m84.124 478.64-17.915 4.801-4.801 17.91 13.114 13.117 17.906-4.809 4.806-17.903zm2.726 25.445c-4.16 4.154-10.904 4.154-15.065 0-4.162-4.161-4.162-10.899 0-15.062s10.905-4.161 15.065 0 4.157 10.9 0 15.062z" style="fill:url(#k);stroke-width:.89908"/><path d="m437.74 478.64-17.914 4.801-4.799 17.91 13.109 13.117 17.916-4.809 4.797-17.903zm2.73 25.445c-4.162 4.154-10.902 4.154-15.059 0-4.162-4.161-4.162-10.899 0-15.062 4.154-4.161 10.896-4.161 15.059 0s4.158 10.9 0 15.062z" style="fill:url(#j);stroke-width:.89908"/><path d="m164.17 61.753c14.29 11.816 7.983 43.024-14.084 69.711-22.066 26.685-51.537 38.74-65.827 26.923-14.296-11.822-7.994-43.036 14.072-69.72 22.068-26.686 51.542-38.736 65.839-26.914z" mask="url(#i-1)" style="fill:#fff;stroke-width:.89908"/><g style="fill:none;stroke-width:1.7982;stroke:#000"><path d="m114.04 324.58c-0.685 0.095-1.374 0.074-2.069 0h-26.302c-0.449 0.061-0.906 0.088-1.36 0.074-6.674-0.173-11.886-8.208-18.191-21.405 7.206 39.338 17.935 66.104 22.833 84.056l-0.101 0.177c40.085 18.714 99.172 30.572 165.12 30.572 66.196 0 125.48-11.947 165.58-30.79 4.756-17.414 18.662-43.123 25.947-80.547-5.852 11.125-14.17 17.782-20.238 17.938-0.457 0.015-0.912-0.014-1.365-0.074h-26.301c-0.693 0.074-1.381 0.095-2.066 0-14.443-1.986-20.928-41.637-14.465-88.56 6.457-46.913 23.406-81.356 37.85-81.356h20.135c-0.182-0.807-0.352-1.604-0.535-2.421-29.827-131.01-141.67-151.24-184.27-151.24-42.61 0-154.44 20.237-184.27 151.24-0.184 0.815-0.357 1.614-0.536 2.421h21.219" style="stroke-width:1.7982"/><path d="m421.42 387.3c0-0.014 4e-3 -0.027 0.014-0.041-40.096 18.843-99.375 30.79-165.57 30.79-65.951 0-125.04-11.858-165.12-30.572-8.259 14.871-12.177 23.82-11.424 30.723 0.209 1.952 0.77 3.739 1.732 5.446 8.522 13.853 19.566 42.404 175.08 47.735 155.5-5.331 166.56-33.884 175.08-47.735 0.963-1.707 1.523-3.494 1.734-5.446 0.746-6.93-3.203-15.926-11.524-30.9z" stroke-miterlimit="1" style="stroke-miterlimit:1;stroke-width:1.7982"/><path d="m146.8 296.04c0-60.228 48.83-109.06 109.06-109.06s109.06 48.83 109.06 109.06-48.83 109.06-109.06 109.06-109.06-48.831-109.06-109.06z" style="stroke-width:1.7982"/><path d="m175.45 296.04c0-44.41 36.002-80.416 80.414-80.416s80.421 36.005 80.421 80.416c0 44.417-36.008 80.425-80.421 80.425s-80.414-36.008-80.414-80.425z" style="stroke-width:1.7982"/><path d="m266.12 201.87c0 5.515-4.472 9.995-9.981 9.995-5.52 0-9.994-4.48-9.994-9.995s4.474-9.982 9.994-9.982c5.51-1e-3 9.981 4.47 9.981 9.982z" style="stroke-width:1.7982"/><path d="m265.85 389.62a9.985 9.985 0 1 0-19.97 0 9.985 9.985 0 1 0 19.97 0" style="stroke-width:1.7982"/><path d="m360.74 296.04c0 5.521-4.467 9.988-9.982 9.988-5.518 0-9.992-4.468-9.992-9.988s4.477-9.985 9.992-9.985c5.515-1e-3 9.982 4.47 9.982 9.985z" style="stroke-width:1.7982"/><path d="m171.69 296.04c0 5.521-4.469 9.988-9.991 9.988-5.513 0-9.984-4.468-9.984-9.988s4.471-9.985 9.984-9.985c5.522-1e-3 9.991 4.47 9.991 9.985z" style="stroke-width:1.7982"/><g stroke-miterlimit="2" style="stroke-miterlimit:2;stroke-width:1.7982"><path d="m92.446 619.64 9.015 9.023c7.184-12.595 2.844-31.817-11.276-45.935s-33.325-18.448-45.917-11.268l9.019 9.01-8.665 8.663-9.018-9.018c-7.181 12.58-2.848 31.805 11.277 45.92 14.119 14.123 33.332 18.455 45.92 11.274l-9.015-9.017zm-41.8 2.631c-9.878-9.88-9.878-25.894 7e-3 -35.768 9.875-9.888 25.893-9.888 35.768 0 9.884 9.874 9.884 25.888 5e-3 35.768s-25.898 9.88-35.78 0z" style="stroke-miterlimit:2;stroke-width:1.7982"/><path d="m86.42 586.51c-9.875-9.888-25.892-9.888-35.768 0-9.885 9.874-9.885 25.888-7e-3 35.768s25.899 9.881 35.78 0 9.879-25.894-5e-3 -35.768z" style="stroke-miterlimit:2;stroke-width:1.7982"/><path d="m44.269 571.47-10.189-10.193-8.665 8.656 10.189 10.193 9.019 9.017 8.665-8.663z" style="stroke-miterlimit:2;stroke-width:1.7982"/><path d="m101.46 628.67-9.015-9.023-8.659 8.656 9.015 9.017 10.186 10.193 8.66-8.663z" style="stroke-miterlimit:2;stroke-width:1.7982"/><path d="m428.73 628.3-9.014 9.017c12.586 7.182 31.799 2.85 45.916-11.273 14.127-14.116 18.461-33.341 11.277-45.92l-9.018 9.017-8.668-8.663 9.021-9.01c-12.59-7.182-31.799-2.851-45.92 11.268s-18.457 33.34-11.273 45.935l9.018-9.023zm-2.639-6.025c-9.877-9.88-9.877-25.894 4e-3 -35.768 9.877-9.888 25.896-9.888 35.771 0 9.887 9.874 9.887 25.888 6e-3 35.768s-25.9 9.88-35.781 0z" style="stroke-miterlimit:2;stroke-width:1.7982"/><path d="m426.1 586.51c9.877-9.888 25.896-9.888 35.771 0 9.887 9.874 9.887 25.888 6e-3 35.768s-25.9 9.881-35.781 0-9.877-25.894 4e-3 -35.768z" style="stroke-miterlimit:2;stroke-width:1.7982"/><path d="m468.25 571.47 10.189-10.193 8.662 8.656-10.189 10.193-9.016 9.017-8.666-8.663z" style="stroke-miterlimit:2;stroke-width:1.7982"/><path d="m411.05 628.67 9.018-9.023 8.66 8.656-9.014 9.017-10.185 10.193-8.66-8.663z" style="stroke-miterlimit:2;stroke-width:1.7982"/><path d="m228.67 683.6-12.751 7e-3c3.823 13.974 20.473 24.493 40.442 24.493s36.626-10.521 40.444-24.493h-12.757v-12.254h12.757c-3.828-13.98-20.481-24.493-40.444-24.5-19.964 0-36.626 10.52-40.446 24.5h12.753zm2.392-6.127c0-13.967 11.327-25.296 25.299-25.296s25.294 11.329 25.294 25.303-11.322 25.296-25.292 25.296-25.301-11.329-25.301-25.303z" style="stroke-miterlimit:2;stroke-width:1.7982"/><path d="m256.36 652.18c13.968 0 25.294 11.329 25.294 25.303s-11.322 25.296-25.292 25.296-25.301-11.329-25.301-25.303 11.328-25.296 25.299-25.296z" style="stroke-miterlimit:2;stroke-width:1.7982"/><path d="m296.81 671.35h14.404l4e-3 12.247-14.408 7e-3h-12.757v-12.254z" style="stroke-miterlimit:2;stroke-width:1.7982"/><path d="m215.92 671.35h12.754l1e-3 12.247-12.751 7e-3h-14.414l5e-3 -12.254z" style="stroke-miterlimit:2;stroke-width:1.7982"/></g><path d="m44.269 571.47c7.301-4.168 16.835-4.435 26.307-1.185-4.069-8.085-7.621-15.871-11.492-22.875-40.964-88.433-23.995-125.81-9.542-141.52-5.348-2.802-10.749-4.923-16.556-4.923-13.312 0-48.99 47.396-22.367 123.55 4.877 13.945 10.061 28.823 16.396 43.824l7.063-7.059 10.191 10.195z" style="stroke-width:1.7982"/><path d="m419.72 637.32-10.186 10.193-8.66-8.663 10.182-10.18c-2.154-3.781-3.254-8.16-3.379-12.818-23.1 19.346-60.068 34.714-125.13 37.957 7.188 4.38 12.342 10.525 14.268 17.544h14.404l4e-3 12.247-14.408 7e-3c-2.387 8.724-9.785 16.108-19.869 20.42 81.689-3.761 131.3-29.817 163.66-64.056-7.613 1.523-14.976 0.715-20.879-2.651z" style="stroke-width:1.7982"/><path d="m479.27 400.96c-5.807 0-11.205 2.121-16.555 4.923 14.457 15.715 31.422 53.094-9.533 141.52-3.893 7.031-7.459 14.865-11.557 22.984 9.578-3.359 19.24-3.142 26.621 1.074l10.191-10.193 6.881 6.875c6.301-14.933 11.465-29.75 16.322-43.642 26.63-76.15-9.056-123.55-22.37-123.55z" style="stroke-width:1.7982"/><path d="m215.92 683.6h-14.414l5e-3 -12.254h14.406c1.916-7.004 7.06-13.145 14.226-17.523-65.092-3.188-102.15-18.476-125.31-37.767-0.158 4.576-1.246 8.881-3.371 12.606l10.187 10.181-8.66 8.663-10.187-10.193c-5.987 3.413-13.478 4.195-21.199 2.584 32.422 34.354 82.189 60.472 164.25 64.15-10.114-4.305-17.539-11.696-19.931-20.447z" style="stroke-width:1.7982"/><path d="m59.084 547.41c3.871 7.004 7.422 14.79 11.492 22.875 6.858 2.348 13.683 6.528 19.609 12.451 9.948 9.948 15.016 22.419 14.647 33.326 23.164 19.291 60.22 34.578 125.31 37.767 7.129-4.357 16.262-6.977 26.22-6.977 9.938 7e-3 19.056 2.611 26.179 6.956 65.062-3.243 102.03-18.611 125.13-37.957-0.301-10.854 4.77-23.229 14.652-33.115 5.838-5.834 12.551-9.969 19.299-12.342 4.098-8.119 7.664-15.953 11.557-22.984 40.955-88.433 23.99-125.81 9.533-141.52-6.918 3.611-13.75 8.344-21.256 11.05-1.385 0.504-4.342 0.918-8.518 1.271-0.211 1.951-0.771 3.739-1.734 5.446-8.52 13.853-19.57 42.404-175.08 47.735-155.52-5.331-166.56-33.884-175.08-47.735-0.962-1.707-1.523-3.495-1.732-5.446-4.177-0.354-7.137-0.769-8.517-1.271-7.509-2.706-14.341-7.438-21.26-11.05-14.452 15.714-31.421 53.093 9.543 141.52z" style="stroke-width:1.7982"/><path d="m463.64 243.23c6.457-46.919-0.02-86.57-14.471-88.562-14.445-1.979-31.395 34.444-37.852 81.356-6.457 46.923 0.027 86.573 14.467 88.56 14.458 1.989 31.399-34.435 37.856-81.354z" style="stroke-width:1.7982"/><path d="m397.41 324.58c0.684 0.095 1.375 0.074 2.068 0h26.299c14.455 1.988 31.396-34.436 37.857-81.354 6.453-46.919-0.023-86.57-14.475-88.562-0.68-0.096-1.369-0.071-2.062 0h-26.303" style="stroke-width:1.7982"/><path d="m459.42 242.65c5.416-39.338-0.021-72.583-12.135-74.245-12.107-1.669-26.318 28.869-31.734 68.207-5.41 39.331 0.023 72.569 12.131 74.242 12.116 1.665 26.322-28.874 31.738-68.204z" style="stroke-width:1.7982"/><path d="m49.704 243.23c-6.46-46.919 0.021-86.57 14.47-88.562 14.441-1.979 31.395 34.444 37.85 81.356 6.453 46.923-0.025 86.573-14.467 88.56-14.456 1.989-31.396-34.435-37.853-81.354z" style="stroke-width:1.7982"/><path d="m64.178 154.66c0.68-0.096 1.37-0.071 2.063 0h26.308c14.441 0 31.392 34.444 37.847 81.356 6.459 46.923-0.019 86.573-14.464 88.56-0.687 0.095-1.374 0.074-2.067 0h-26.304c-14.451 1.988-31.398-34.436-37.852-81.354-6.458-46.92 0.017-86.571 14.469-88.562z" style="stroke-width:1.7982"/><path d="m53.932 242.65c-5.418-39.338 0.014-72.583 12.133-74.245 12.104-1.669 26.317 28.869 31.737 68.207 5.407 39.331-0.026 72.569-12.135 74.242-12.119 1.665-26.324-28.874-31.735-68.204z" style="stroke-width:1.7982"/><path d="m243 22.08c-23.603 3.073-51.45 15.564-58.834 40.316h11.976c1.628 0 3.128-1.428 4.527-2.195 10.792-5.913 22.689-9.725 34.814-11.724 3.055-0.503 6.124-0.888 9.207-1.163 1.168-0.102 0.854-0.271 0.854-1.326v-24.204c-0.853 0.089-1.701 0.187-2.544 0.296" style="stroke-width:1.7982"/><path d="m326.9 58.997c-9.473-23.604-37.104-34.986-60.754-37.265v23.994c0 0.262-0.167 1.254 0 1.479 3.357 0.258 6.707 0.651 10.033 1.183 12.097 1.928 23.982 5.658 34.787 11.475 1.398 0.755 3.336 2.533 4.934 2.533h12.2c-0.346-1.148-0.751-2.284-1.2-3.399" style="stroke-width:1.7982"/><path d="m256.13 9.255c-50.006 0-90.541 28.614-90.541 63.909v37.539c0 35.292 40.535 63.905 90.541 63.905 49.996 0 90.525-28.613 90.525-63.905v-37.539c0-35.295-40.529-63.909-90.525-63.909z" style="stroke-width:1.7982"/><path d="m256.13 9.255c-50.001 0-90.536 28.614-90.536 63.909s40.534 63.905 90.536 63.905 90.531-28.61 90.531-63.905-40.535-63.909-90.531-63.909zm71.966 53.141h-61.952v-40.663c30.843 2.958 55.599 19.407 61.952 40.663zm-82.552-40.612v40.612h-61.378c6.306-21.12 30.796-37.501 61.378-40.612zm-61.384 62.141h61.385v40.616c-30.583-3.108-55.078-19.492-61.385-40.616zm81.984 40.67v-40.67h61.952c-6.349 21.257-31.109 37.705-61.952 40.67z" style="stroke-width:1.7982"/><path d="m84.124 478.64-17.915 4.801-4.801 17.91 13.114 13.117 17.906-4.809 4.806-17.903zm2.726 25.445c-4.16 4.154-10.904 4.154-15.065 0-4.162-4.161-4.162-10.899 0-15.062s10.905-4.161 15.065 0 4.157 10.9 0 15.062z" style="stroke-width:1.7982"/><path d="m437.74 478.64-17.914 4.801-4.799 17.91 13.109 13.117 17.916-4.809 4.797-17.903zm2.73 25.445c-4.162 4.154-10.902 4.154-15.059 0-4.162-4.161-4.162-10.899 0-15.062 4.154-4.161 10.896-4.161 15.059 0s4.158 10.9 0 15.062z" style="stroke-width:1.7982"/></g></g></g></g></svg>
