<?xml version="1.0" encoding="UTF-8"?>
<svg width="14.077mm" height="10.278mm" version="1.1" viewBox="0 0 14.077 10.278" xmlns="http://www.w3.org/2000/svg" xmlns:xlink="http://www.w3.org/1999/xlink"><g transform="translate(-86.699 -151.25)"><g transform="matrix(.26458 0 0 .26458 81.831 150.97)"><symbol id="as" viewBox="0 -6.51 15.277 6.53"><path d="m11.05-3.15c0.5-0.2 0.8-0.15 0.9 0.15s-0.65 0.7-2.25 1.2c-1.567 0.467-3.05 0.55-4.45 0.25-0.7-0.167-1.25-0.383-1.65-0.65 0.7 0.833 1.467 1.467 2.3 1.9 0.533 0.267 1.167 0.367 1.9 0.3 0.067 0 0.917-0.133 2.55-0.4 0.767-0.1 1.383-0.434 1.85-1 0.533-0.7 1.15-1.167 1.85-1.4 1.3-0.5 1.567-1.167 0.8-2-0.867-0.9-2.733-1.45-5.6-1.65-2.633-0.2-4.967 0.1-7 0.9-1 0.4-1.75 0.817-2.25 1.25l3.3 2.25 0.05-1c4.8 0.033 7.367 0 7.7-0.1z" style="clip-rule:evenodd;fill-rule:evenodd;fill:#825b06"/></symbol><symbol id="at" viewBox="0 -6.6 19.01 6.608"><path d="m12.25-3.6c1.433-0.066 2.1 0.117 2 0.55-0.133 0.466-1.083 0.917-2.85 1.35-1.533 0.4-3.3 0.45-5.3 0.15-1.033-0.133-1.9-0.317-2.6-0.55l0.85 1.3c0.2 0.267 0.85 0.467 1.95 0.6 1.033 0.167 2.067 0.233 3.1 0.2 1.7-0.033 4.283-0.85 7.75-2.45 1.133-0.5 1.75-0.983 1.85-1.45 0.067-0.4-0.217-0.85-0.85-1.35-1.167-0.9-4.483-1.35-9.95-1.35-2.733 0-4.917 0.4-6.55 1.2-0.833 0.4-1.383 0.8-1.65 1.2 6.4 0.433 10.483 0.633 12.25 0.6z" style="clip-rule:evenodd;fill-rule:evenodd;fill:#825b06"/></symbol><symbol id="au" viewBox="0 -5.155 15.85 5.156"><path d="m11.15-1.8 1.05-1.2h0.85c0.567 0 1.5-0.233 2.8-0.7l-0.85-0.35c-0.567-0.267-1.483-0.5-2.75-0.7-1.667-0.3-3.483-0.433-5.45-0.4-1.867 0.033-3.55 0.45-5.05 1.25-0.767 0.4-1.35 0.8-1.75 1.2l1.15 0.55c0.934 1.1 1.533 1.733 1.8 1.9 0.167 0.1 1.45 0.183 3.85 0.25 1.5 0.033 2.95-0.567 4.35-1.8z" style="clip-rule:evenodd;fill-rule:evenodd;fill:#825b06"/></symbol><symbol id="av" viewBox="0 -5.05 15.023 5.06"><path d="m10.75-0.75c0.2-0.1 0.617-0.317 1.25-0.65 0.667-0.333 1.283-0.55 1.85-0.65 0.667-0.133 1.05-0.45 1.15-0.95s-0.133-0.883-0.7-1.15c-1.1-0.6-4.267-0.9-9.5-0.9-1.633 0-2.917 0.283-3.85 0.85-0.467 0.3-0.783 0.6-0.95 0.9l0.55 0.7 6.5 0.6c0.633 0 1.217 0.067 1.75 0.2 0.633 0.133 0.517 0.3-0.35 0.5-1.367 0.267-3 0.233-4.9-0.1 1.4 0.9 2.7 1.367 3.9 1.4 1.067 0.067 2.167-0.183 3.3-0.75z" style="clip-rule:evenodd;fill-rule:evenodd;fill:#825b06"/></symbol><symbol id="aw" viewBox="-0.004 -2.007 10.09 2.007"><path d="m10.05-1.1c-0.167-0.233-0.5-0.233-1 0-1.2 0.533-2.717 0.717-4.55 0.55-0.7-0.033-1.433-0.217-2.2-0.55-0.667-0.3-1.05-0.533-1.15-0.7-0.1-0.133-0.317-0.2-0.65-0.2-0.367-0.033-0.533 0.05-0.5 0.25 0.033 0.267 0.433 0.6 1.2 1 0.833 0.4 1.7 0.633 2.6 0.7 2.667 0.133 4.517 0 5.55-0.4 0.6-0.233 0.833-0.45 0.7-0.65z" style="clip-rule:evenodd;fill-rule:evenodd;fill:#fff7cc"/></symbol><symbol id="ax" viewBox="0 -1.756 9.403 1.756"><path d="m9.15-1.05c0.3-0.267 0.333-0.467 0.1-0.6s-0.517-0.083-0.85 0.15c-0.367 0.267-0.95 0.5-1.75 0.7-0.833 0.2-1.667 0.3-2.5 0.3-0.733 0-1.467-0.15-2.2-0.45-0.534-0.2-0.934-0.417-1.2-0.65-0.167-0.167-0.35-0.2-0.55-0.1-0.2 0.067-0.25 0.217-0.15 0.45 0.167 0.333 0.633 0.617 1.4 0.85 0.767 0.267 1.583 0.4 2.45 0.4 0.9 0 1.917-0.117 3.05-0.35s1.867-0.467 2.2-0.7z" style="clip-rule:evenodd;fill-rule:evenodd;fill:#fff7cc"/></symbol><symbol id="ay" viewBox="-0.016 -3.334 9.067 3.337"><path d="m7.3-0.3c1.367-0.333 1.933-0.6 1.7-0.8-0.1-0.1-0.7-0.067-1.8 0.1-1.3 0.233-2.233 0.317-2.8 0.25-0.767-0.1-1.45-0.383-2.05-0.85-0.533-0.4-0.867-0.85-1-1.35-0.133-0.433-0.417-0.5-0.85-0.2-0.467 0.3-0.617 0.633-0.45 1 0.167 0.333 0.6 0.717 1.3 1.15s1.3 0.7 1.8 0.8c1.3 0.3 2.683 0.267 4.15-0.1z" style="clip-rule:evenodd;fill-rule:evenodd;fill:#fff7cc"/></symbol><symbol id="az" viewBox="-0.013 -4.101 14.113 4.076"><path d="m14.1-2.05c-0.9 0.1-2.317 0.4-4.25 0.9-0.967 0.267-2.1 0.3-3.4 0.1-1.167-0.133-2.033-0.383-2.6-0.75-1-0.833-1.8-1.434-2.4-1.8-1.067-0.7-1.55-0.667-1.45 0.1 0.367 0.467 0.867 0.95 1.5 1.45 1.3 1 2.667 1.6 4.1 1.8 1.467 0.2 2.717 0.267 3.75 0.2 0.367-0.034 1.167-0.167 2.4-0.4 1.067-0.233 1.85-0.767 2.35-1.6z" style="clip-rule:evenodd;fill-rule:evenodd;fill:#fff7cc"/></symbol><path d="m67.8 26c2.634 1.533 3.9 3.5 3.8 5.9-0.166 3.366-4.116 5.699-11.85 7-6.733 1.166-14.3 1.333-22.7 0.5-6.367-0.634-10.966-2.15-13.8-4.551-2.5-2.1-3-4.066-1.5-5.899 1.367-1.7 2.833-3 4.4-3.9 1.767-1.033 4.15-1.866 7.15-2.5 7.8-1.633 15.384-1.717 22.75-0.25 5.4 1.033 9.316 2.266 11.75 3.7z" style="clip-rule:evenodd;fill-rule:evenodd;fill:#ebc76c"/><path d="m64.95 25.75c-3.767-1.467-7.783-2.533-12.05-3.2-2.591-0.414-4.916-0.64-6.976-0.675l2.625-0.025c3.5 0.101 6.684 0.483 9.55 1.15 2.967 0.7 5.384 1.467 7.25 2.3 0.9 0.4 1.934 0.967 3.101 1.7 0.6 0.366 0.899 0.816 0.899 1.35 0 0.267-0.05 0.483-0.149 0.65-0.033-0.267-0.25-0.616-0.65-1.05-0.767-0.834-1.967-1.566-3.6-2.2z" style="clip-rule:evenodd;fill-rule:evenodd;fill:#fadca0"/><path d="m70.7 32.25c0.366-0.833 0.333-2.1-0.101-3.8 0.733 1.033 1.067 2.184 1 3.45-0.166 3.366-4.116 5.699-11.85 7-6.733 1.166-14.3 1.333-22.7 0.5-5.566-0.567-9.816-1.817-12.75-3.75-2.566-1.7-3.633-3.483-3.2-5.351 0.333 1.5 1.316 2.816 2.95 3.95 2.067 1.434 5.034 2.4 8.9 2.9 13.767 1.733 22.566 1.933 26.399 0.6 1.733-0.6 3.467-1.35 5.2-2.25 1.434-0.8 2.4-1.25 2.9-1.35 1.1-0.233 1.783-0.417 2.05-0.551 0.535-0.265 0.936-0.714 1.202-1.348z" style="clip-rule:evenodd;fill-rule:evenodd;fill:#c99f48"/><path d="m67.35 36.1c2.267-1.333 3.667-2.733 4.2-4.199-0.166 3.366-4.116 5.699-11.85 7-6.7 1.166-14.25 1.333-22.65 0.5-3.767-0.367-6.95-1.067-9.55-2.101-2.333-0.934-4.067-2.05-5.2-3.35 0.967 0.8 2.1 1.55 3.4 2.25 1.433 0.733 2.667 1.166 3.7 1.3 0.067 0 1.217 0.3 3.45 0.9 1.433 0.366 3.183 0.566 5.25 0.6 1.7 0.033 4.717 0.134 9.05 0.3 3.833 0.101 6.517 0.05 8.05-0.149 2.767-0.334 4.8-0.634 6.1-0.9 2.4-0.501 4.417-1.218 6.05-2.151z" style="clip-rule:evenodd;fill-rule:evenodd;fill:#a88334"/><path d="m63.1 25.7c3.134 1.333 4.801 2.566 5 3.7 0.2 1.166-0.933 2.333-3.399 3.5-2.634 1.267-6.05 2.133-10.25 2.6-3.066 0.366-6.334 0.483-9.8 0.35-4-0.133-7.733-0.583-11.2-1.35-5.567-1.2-8.184-3.2-7.85-6 0.1-0.934 1.3-1.95 3.6-3.05 1.933-0.9 3.933-1.584 6-2.05 2.966-0.634 6.316-0.917 10.05-0.851 1.9 0.066 4.467 0.267 7.7 0.601 3.566 0.367 6.949 1.216 10.149 2.55z" style="clip-rule:evenodd;fill-rule:evenodd;fill:#bd4d1e"/><path d="m43.55 37.45c2.367 0.233 4.134 0.467 5.3 0.7 1.667 0.333 4.534 0.333 8.601 0-1.4 0.333-3.017 0.5-4.851 0.5-3.4 0-5.7-0.05-6.9-0.15-2.567-0.167-5.017-0.366-7.35-0.6-3.233-0.367-5.533-0.7-6.9-1-1.267-0.267-2.317-0.551-3.15-0.851-1-0.399-1.9-0.75-2.7-1.05-1.867-0.667-2.867-1.75-3-3.25-0.067-0.6-0.133-0.95-0.2-1.05-0.066-0.134-0.217-0.15-0.45-0.05-0.333 0.166-0.317-0.117 0.05-0.851 0.333-0.7 0.783-1.166 1.35-1.399 0.233-0.101 0.333 0.25 0.3 1.05-0.033 0.434-0.1 1.083-0.2 1.95 0 0.466 0.167 0.883 0.5 1.25 0.2 0.267 0.583 0.6 1.15 1 0.2 0.133 0.583 0.383 1.15 0.75 0.433 0.267 0.8 0.517 1.1 0.75 0.467 0.366 2.167 0.783 5.1 1.25 3.3 0.5 5.433 0.75 6.4 0.75s2.533 0.101 4.7 0.301z" style="clip-rule:evenodd;fill-rule:evenodd;fill:#fadca0"/><path d="m61.05 36.2c-0.833 0.866-1.6 1.25-2.3 1.149-0.566-0.066-0.583-0.399-0.05-1 0.533-0.566 1.083-0.899 1.649-1 1.301-0.233 1.535 0.051 0.701 0.851z" style="clip-rule:evenodd;fill-rule:evenodd;fill:#c99f48"/><path d="m56.25 36.6c0.6 0 0.85 0.184 0.75 0.551-0.066 0.366-0.366 0.517-0.9 0.449-0.5-0.033-0.699-0.216-0.6-0.55 0.066-0.3 0.316-0.45 0.75-0.45z" style="clip-rule:evenodd;fill-rule:evenodd;fill:#c99f48"/><path d="m69.6 31.1c0.867-0.267 1.117-0.066 0.75 0.601-0.399 0.666-0.85 1-1.35 1-0.4 0-0.483-0.233-0.25-0.7 0.233-0.501 0.517-0.801 0.85-0.901z" style="clip-rule:evenodd;fill-rule:evenodd;fill:#c99f48"/><path d="m70 29.1c0.4 0.067 0.467 0.301 0.2 0.7-0.3 0.4-0.566 0.55-0.8 0.45-0.2-0.066-0.217-0.283-0.051-0.65 0.134-0.367 0.351-0.534 0.651-0.5z" style="clip-rule:evenodd;fill-rule:evenodd;fill:#c99f48"/><path d="m28.85 33.95c0.633 0.133 0.983 0.416 1.05 0.85 0.1 0.4-0.2 0.533-0.9 0.4-0.667-0.167-0.967-0.434-0.9-0.8 0.033-0.367 0.283-0.516 0.75-0.45z" style="clip-rule:evenodd;fill-rule:evenodd;fill:#c99f48"/><path d="m65.25 27.8 1.1 0.75 0.5 0.7c-0.267-0.066-0.55 0.066-0.85 0.4-0.167 0.166-0.233 0.366-0.2 0.6 0.066 0.333 0.05 0.65-0.05 0.95-0.134 0.333-0.65 0.6-1.55 0.8-1.101 0.233-1.8 0.45-2.101 0.65l-2.199 1.25-2.5 0.449c-0.233 0.034-0.801 0.2-1.7 0.5-0.9 0.301-2.017 0.517-3.351 0.65-2.633 0.3-5.199 0.116-7.7-0.55-2-0.601-3.617-0.767-4.85-0.5-1.033 0.233-2.716 0.033-5.05-0.601-0.2-0.033-0.817-0.083-1.85-0.149-0.967-0.066-1.75-0.217-2.35-0.45-0.566-0.2-1.05-0.667-1.45-1.4-0.434-0.699-0.833-1.083-1.2-1.149-0.5-0.101-0.917-0.367-1.25-0.8l-0.35-0.65c0.833-0.467 1.717-0.9 2.65-1.3 0.7-0.3 1.066-0.533 1.1-0.7s-0.249-0.25-0.849-0.25c-0.5 0-0.85-0.217-1.05-0.65l-0.2-0.649c1.233-0.367 2.783-0.367 4.65 0l23 0.899c5.834 0.433 9.05 0.834 9.65 1.2z" style="clip-rule:evenodd;fill-rule:evenodd;fill:#8a3915"/><path d="m64.6 26.5c1.167 0.533 1.684 0.967 1.551 1.3-0.101 0.2-0.351 0.467-0.751 0.8-0.067 0.2 0.05 0.45 0.35 0.75 0.3 0.334 0.45 0.717 0.45 1.15 0 0.566-0.45 0.9-1.351 1h-2.55c-0.6 0-1.017 0.25-1.25 0.75-0.366 0.8-0.75 1.35-1.149 1.65-0.567 0.433-1.15 0.566-1.75 0.399-0.7-0.3-1.284-0.483-1.75-0.55-0.634-0.1-1.317-0.033-2.051 0.2-0.166 0.033-1.05 0.333-2.649 0.899-0.9 0.334-1.867 0.434-2.9 0.301-1.066-0.2-1.866-0.301-2.399-0.301-0.534 0-1.05-0.216-1.55-0.649-0.667-0.566-1.434-1-2.3-1.3-0.966-0.301-1.783-0.2-2.45 0.3-0.867 0.633-1.5 0.967-1.9 1-0.7 0.066-1.284-0.033-1.75-0.3-0.467-0.367-0.9-0.634-1.3-0.801-0.467-0.199-1.033-0.233-1.7-0.1l-0.85 0.25-1.95-0.5c-0.8-0.2-1.35-0.55-1.65-1.05-0.233-0.634-0.433-1.084-0.6-1.351-0.133-0.267-0.433-0.433-0.9-0.5-0.533-0.066-0.933-0.267-1.2-0.6-0.367-0.434 0.034-1 1.2-1.7 1-0.6 1.95-1 2.85-1.2 0.267-0.066 0.05-0.1-0.65-0.1-1.167 0-1.75-0.184-1.75-0.55 0-0.3 1-0.483 3-0.55 2.1-0.034 3.283-0.233 3.55-0.601 0.433-0.566 0.783-0.95 1.05-1.149 0.6-0.434 1.383-0.684 2.35-0.75 0.767-0.067 1.617-0.184 2.55-0.351 0.767-0.1 1.683 0.017 2.75 0.351 0.6 0.199 1.45 0.283 2.55 0.25 0.667 0 1.8-0.034 3.4-0.101h2.8c0.733 0.033 1.666 0.2 2.8 0.5 1 0.233 1.884 0.533 2.65 0.9 0.866 0.467 1.483 0.75 1.85 0.85 0.167 0.066 0.9 0.217 2.2 0.45 0.966 0.171 2.016 0.504 3.149 1.004z" style="clip-rule:evenodd;fill-rule:evenodd;fill:url(#cc)"/><path d="m64.8 28.35c-0.033-0.1 0.084-0.25 0.351-0.449 0.399-0.301 0.649-0.517 0.75-0.65 0.3 0.267 0.316 0.517 0.05 0.75-0.367 0.333-0.55 0.533-0.55 0.6-0.067 0.2 0.05 0.45 0.35 0.75 0.3 0.334 0.45 0.717 0.45 1.15 0 0.566-0.45 0.9-1.351 1h-2.55c-0.6 0-1.017 0.25-1.25 0.75-0.366 0.8-0.75 1.35-1.149 1.65-0.567 0.433-1.15 0.566-1.75 0.399-0.7-0.3-1.284-0.483-1.75-0.55-0.634-0.1-1.317-0.033-2.051 0.2-0.166 0.033-1.05 0.333-2.649 0.899-0.9 0.334-1.867 0.434-2.9 0.301-1.066-0.2-1.866-0.301-2.399-0.301-0.534 0-1.05-0.216-1.55-0.649-0.667-0.566-1.434-1-2.3-1.3-0.966-0.301-1.783-0.2-2.45 0.3-0.867 0.633-1.5 0.967-1.9 1-0.7 0.066-1.284-0.033-1.75-0.3-0.467-0.367-0.9-0.634-1.3-0.801-0.467-0.199-1.033-0.233-1.7-0.1l-0.85 0.25-1.95-0.5c-0.8-0.2-1.35-0.55-1.65-1.05-0.233-0.634-0.433-1.084-0.6-1.351-0.133-0.267-0.433-0.433-0.9-0.5-0.533-0.066-0.933-0.267-1.2-0.6-0.2-0.3-0.117-0.634 0.25-1 0 0.434 0.267 0.7 0.8 0.8 0.6 0.134 1.05 0.417 1.35 0.851 0.2 0.233 0.5 0.649 0.9 1.25 1.033 1.233 2.05 1.683 3.05 1.35 0.5-0.167 1.117-0.167 1.85 0 0.433 0.1 1.083 0.3 1.95 0.6 1.233 0.367 2.433 0.067 3.6-0.899 0.434-0.367 1.067-0.533 1.9-0.5 0.933 0 1.716 0.25 2.35 0.75 1.567 1.166 3.134 1.7 4.7 1.6 0.533-0.033 1.417-0.267 2.65-0.7 1.267-0.466 2.033-0.716 2.3-0.75 0.133-0.033 0.833 0.167 2.1 0.601 1.066 0.366 1.934 0.333 2.601-0.101 0.5-0.366 1.05-0.883 1.649-1.55 0.434-0.5 0.816-0.767 1.15-0.8 0.333-0.033 1.017-0.017 2.05 0.05 0.967 0.033 1.533-0.116 1.7-0.45 0.298-0.466 0.164-1.133-0.402-2z" style="clip-rule:evenodd;fill-rule:evenodd;fill:#f7cf6a"/><path d="m33.35 28.95c1.467 0.066 1.767 0.649 0.9 1.75-0.9 1.066-1.85 1.483-2.85 1.25-1.733-0.4-1.917-1.233-0.55-2.5 0.3-0.3 0.683-0.467 1.15-0.5 0.233-0.033 0.683-0.033 1.35 0z" style="clip-rule:evenodd;fill-rule:evenodd;fill:#bd4d1e"/><path d="m28.8 27.75c0.967-0.267 1.733-0.267 2.3 0 0.533 0.267 0.617 0.5 0.25 0.7-0.333 0.2-0.783 0.333-1.35 0.399-0.633 0.134-1.15 0.117-1.55-0.05-0.4-0.166-0.517-0.366-0.35-0.6 0.133-0.199 0.367-0.349 0.7-0.449z" style="clip-rule:evenodd;fill-rule:evenodd;fill:#bd4d1e"/><path d="m30.65 26.85c0.6-0.199 1.3-0.199 2.1 0 0.8 0.167 0.75 0.367-0.15 0.601-0.434 0.1-0.917 0.033-1.45-0.2s-0.7-0.367-0.5-0.401z" style="clip-rule:evenodd;fill-rule:evenodd;fill:#bd4d1e"/><path d="m47.6 27.25c0.301 0 0.851-0.066 1.65-0.2 0.6-0.133 0.934-0.133 1 0 0.233 0.334-0.3 0.867-1.6 1.601-1.567 0.933-2.9 1.017-4 0.25-0.633-0.434-0.533-0.834 0.3-1.2 0.767-0.368 1.65-0.517 2.65-0.451z" style="clip-rule:evenodd;fill-rule:evenodd;fill:#bd4d1e"/><path d="m51.2 30.45c0.633 0 1.383 0.217 2.25 0.649 0.899 0.434 0.983 0.801 0.25 1.101-1.167 0.5-2.033 0.8-2.6 0.9-0.966 0.2-1.733 0.084-2.3-0.35-0.6-0.467-0.5-0.967 0.3-1.5 0.7-0.533 1.4-0.8 2.1-0.8z" style="clip-rule:evenodd;fill-rule:evenodd;fill:#bd4d1e"/><path d="m44.25 24.75c-0.3-0.134-0.55-0.3-0.75-0.5-0.4-0.333-0.333-0.566 0.2-0.7 0.6-0.133 1.283-0.133 2.05 0 0.733 0.134 1.066 0.283 1 0.45-0.066 0.2-0.333 0.384-0.8 0.55-0.5 0.167-1.067 0.233-1.7 0.2z" style="clip-rule:evenodd;fill-rule:evenodd;fill:#bd4d1e"/><path d="m47.1 25.15c0.534 0.033 0.884 0.233 1.051 0.6 0.166 0.333 0.1 0.566-0.2 0.7-0.3 0.133-0.767 0.184-1.4 0.149-0.667-0.033-1.233-0.149-1.7-0.35-0.434-0.233-0.283-0.483 0.45-0.75 0.699-0.266 1.299-0.383 1.799-0.349z" style="clip-rule:evenodd;fill-rule:evenodd;fill:#bd4d1e"/><path d="m57.95 29.25c-0.167 0.5-0.717 0.816-1.65 0.95-0.899 0.1-1.55-0.05-1.95-0.45-0.533-0.533-0.816-0.833-0.85-0.9-0.1-0.233 0.184-0.399 0.85-0.5 0.634-0.1 1.417 0 2.351 0.301 0.865 0.266 1.282 0.465 1.249 0.599z" style="clip-rule:evenodd;fill-rule:evenodd;fill:#bd4d1e"/><path d="m38.05 30.2c-0.066-0.134 0.5-0.334 1.7-0.601 1.2-0.3 2.15-0.416 2.85-0.35 0.566 0.066 0.8 0.233 0.7 0.5-0.267 0.533-0.4 0.816-0.4 0.85 0.1 0.634-0.983 0.867-3.25 0.7-0.933-0.066-1.45-0.2-1.55-0.399 0.067-0.266 0.05-0.5-0.05-0.7z" style="clip-rule:evenodd;fill-rule:evenodd;fill:#bd4d1e"/><path d="m52.05 27.3c0.5-0.033 0.917-0.017 1.25 0.05 0.367 0.101 0.483 0.217 0.351 0.351-0.134 0.133-0.317 0.233-0.551 0.3l-0.3 0.05-1.25-0.151c-0.434-0.067-0.55-0.184-0.35-0.351 0.166-0.165 0.45-0.249 0.85-0.249z" style="clip-rule:evenodd;fill-rule:evenodd;fill:#bd4d1e"/><use transform="matrix(1,0,0,-1,30.35,22.85)" y="-5.0500002" width="15.023" height="5.0599999" style="enable-background:new;opacity:.7188" xlink:href="#av"/><use transform="matrix(1,0,0,-1,46.4,21.7)" y="-5.1550002" width="15.85" height="5.1560001" style="enable-background:new;opacity:.7188" xlink:href="#au"/><path d="m44.5 23.7 0.05 1.649c-0.066 0.267-0.4 0.551-1 0.851-1.2 0.6-3.167 0.95-5.9 1.05-2.467 0.1-4.417-0.05-5.85-0.45l-1.45-0.649-0.15-2.151 3.4 0.45c2.4 0.3 3.917 0.399 4.55 0.3z" style="clip-rule:evenodd;fill-rule:evenodd;fill:url(#bd)"/><path d="m33.6 22.05 3.35-0.45 3.45 0.351c0.133 0.033 0.417 0.2 0.85 0.5l-0.3 1.2-0.35 0.3c-0.367-0.601-1.417-0.9-3.15-0.9-1.067 0-1.95 0.184-2.65 0.55l-0.7 0.551c-0.167-0.267-0.317-0.551-0.45-0.851-0.233-0.601-0.25-1.018-0.05-1.251z" style="clip-rule:evenodd;fill-rule:evenodd;fill:url(#bl)"/><path d="m37.85 24.25c1.367-0.1 2.183-0.267 2.45-0.5 0.3-0.3 0.2-0.566-0.3-0.8-0.633-0.267-1.6-0.384-2.9-0.351-0.8 0.034-1.567 0.217-2.3 0.551-0.8 0.333-0.85 0.616-0.15 0.85 0.733 0.267 1.8 0.35 3.2 0.25zm5.25-1.95c1.533 0.733 1.9 1.351 1.1 1.851-2.034 1.267-5.517 1.716-10.45 1.35-3.267-0.233-4.317-0.9-3.15-2 1.1-1 2.75-1.616 4.95-1.85 3.267-0.368 5.783-0.151 7.55 0.649z" style="clip-rule:evenodd;fill-rule:evenodd;fill:#ffeb38"/><g style="clip-rule:evenodd;fill-rule:evenodd;fill:#fff2ad"><polygon points="33.5 22.1 35.85 22.8 35.65 22.85 34.5 22.7 33.3 22.15"/><polygon points="34.95 23.05 31.9 22.7 32.6 22.4 34.5 22.7 35.2 23"/><polygon points="39.1 22.7 41.5 21.8 42.35 22.05 39.55 22.8"/><path d="m43.4 22.5 0.55 0.35-3.5 0.5c-0.034-0.1-0.184-0.233-0.45-0.399z"/><polygon points="40.35 23.7 40.4 23.55 44.4 23.95 44.2 24.15 44.1 24.2"/><path d="m34.2 23.6-3.85 0.25 0.45-0.5 3.7-0.05c-0.2 0.134-0.3 0.233-0.3 0.3z"/><polygon points="34.3 23.85 34.6 24 30.8 24.95 30.4 24.7"/><polygon points="37.7 25.65 37.45 25.65 37.1 24.3 37.4 24.3"/><polygon points="35.85 25.65 35.4 25.6 36.1 24.25 36.45 24.3"/><polygon points="38.8 24.15 40.25 25.4 39.6 25.5 38.3 24.2"/><polygon points="35.4 24.2 33.4 25.5 32.75 25.4 35.1 24.15"/><polygon points="38.05 22.6 39.4 21.55 39.95 21.6 38.45 22.65"/><polygon points="37.5 21.5 37.8 21.5 37.55 22.6 37.3 22.6"/><polygon points="36.55 22.65 36.25 21.6 36.6 21.55 36.8 22.65"/></g><path d="m54.3 23.95 6.25-0.4-0.149 1.7c-0.067 0.267-0.417 0.517-1.051 0.75-1.233 0.467-3.183 0.616-5.85 0.45-2.4-0.134-4.3-0.483-5.7-1.05l-1.35-0.75 0.1-2.2 3.3 0.8c2.334 0.5 3.817 0.733 4.45 0.7z" style="clip-rule:evenodd;fill-rule:evenodd;fill:url(#bm)"/><path d="m53.35 20.8 3.351 0.65 0.8 0.6-0.45 1.2-0.351 0.25c-0.3-0.634-1.3-1.033-3-1.2-1.033-0.1-1.917 0-2.65 0.3l-0.75 0.45c-0.133-0.267-0.25-0.566-0.35-0.899-0.167-0.634-0.134-1.051 0.1-1.25z" style="clip-rule:evenodd;fill-rule:evenodd;fill:url(#bn)"/><path d="m59.35 22.05c1.434 0.867 1.717 1.517 0.851 1.95-2.167 1.1-5.617 1.217-10.351 0.35-3.133-0.566-4.066-1.35-2.8-2.35 1.167-0.9 2.834-1.366 5-1.4 3.266-0.034 5.7 0.45 7.3 1.45zm-2.9 1.1c0.333-0.233 0.267-0.5-0.2-0.801-0.566-0.333-1.5-0.55-2.8-0.649-0.8-0.033-1.566 0.066-2.3 0.3-0.834 0.3-0.917 0.6-0.25 0.9 0.699 0.333 1.75 0.517 3.149 0.55 1.301 0.033 2.101-0.066 2.401-0.3z" style="clip-rule:evenodd;fill-rule:evenodd;fill:#ffeb38"/><g style="clip-rule:evenodd;fill-rule:evenodd;fill:#fff2ad"><polygon points="50 20.85 52.25 21.8 52 21.85 50.95 21.55 49.85 20.9"/><polygon points="51.35 22 48.4 21.3 49.1 21.05 50.95 21.55 51.6 21.9"/><polygon points="55.45 22.05 57.85 21.35 58.65 21.65 55.85 22.15"/><path d="m59.65 22.2 0.45 0.4-3.449 0.2c-0.067-0.166-0.2-0.316-0.4-0.45z"/><polygon points="56.5 23.15 56.6 23 60.45 23.8 60.2 24 60.1 24.05"/><polygon points="50.5 22.45 46.75 22.3 47.2 21.85 50.85 22.15"/><polygon points="50.6 22.7 50.9 22.9 47.05 23.45 46.7 23.15"/><polygon points="53.7 24.85 53.45 24.8 53.3 23.4 53.6 23.45"/><polygon points="51.9 24.65 51.45 24.6 52.3 23.3 52.65 23.35"/><polygon points="54.95 23.45 56.25 24.9 55.6 24.9 54.45 23.45"/><polygon points="51.6 23.15 49.55 24.3 48.9 24.15 51.35 23.05"/><polygon points="54.4 21.8 55.85 20.85 56.35 20.95 54.75 21.9"/><polygon points="53.95 20.65 54.25 20.7 53.9 21.75 53.65 21.75"/><polygon points="52.95 21.7 52.75 20.6 53.1 20.6 53.2 21.7"/></g><path d="m65.75 28.95-0.05 2.3c-0.066 0.366-0.417 0.733-1.05 1.1-1.301 0.767-3.351 1.184-6.15 1.25-2.533 0.034-4.533-0.233-6-0.8l-1.5-0.9v-2.95l3.5 0.7c2.467 0.466 4.017 0.633 4.65 0.5z" style="clip-rule:evenodd;fill-rule:evenodd;fill:url(#bo)"/><path d="m61.55 26.8c0.167 0.033 0.467 0.267 0.9 0.7l-0.4 1.65-0.35 0.4c-0.101-0.2-0.3-0.399-0.601-0.6-0.633-0.434-1.5-0.667-2.6-0.7s-2.017 0.184-2.75 0.65l-0.749 0.75c-0.167-0.367-0.3-0.75-0.4-1.15-0.233-0.866-0.25-1.45-0.05-1.75l3.45-0.55c2.233 0.333 3.417 0.533 3.55 0.6z" style="clip-rule:evenodd;fill-rule:evenodd;fill:url(#bp)"/><path d="m61.1 27.8c-0.633-0.434-1.616-0.633-2.949-0.6-0.834 0.033-1.634 0.25-2.4 0.649-0.866 0.467-0.934 0.884-0.2 1.25 0.767 0.367 1.867 0.5 3.3 0.4 1.4-0.066 2.25-0.283 2.551-0.65 0.331-0.366 0.232-0.715-0.302-1.049zm3.25-0.8c1.567 1 1.917 1.85 1.051 2.55-2.134 1.733-5.75 2.25-10.851 1.55-3.366-0.433-4.416-1.383-3.149-2.85 1.199-1.333 2.933-2.134 5.199-2.4 3.4-0.367 5.983 0.016 7.75 1.15z" style="clip-rule:evenodd;fill-rule:evenodd;fill:#ffeb38"/><g style="clip-rule:evenodd;fill-rule:evenodd;fill:#fff2ad"><polygon points="54.45 26.4 56.85 27.45 56.65 27.5 55.5 27.25 54.3 26.45"/><polygon points="55.95 27.8 52.8 27.2 53.55 26.8 55.5 27.25 56.2 27.65"/><polygon points="62.75 26.25 63.6 26.6 60.7 27.55 60.25 27.4"/><path d="m64.65 27.25 0.55 0.5-3.65 0.6c-0.066-0.233-0.217-0.416-0.45-0.55z"/><path d="m61.55 28.65 4.05 0.65c-0.066 0.134-0.133 0.217-0.199 0.25l-0.101 0.1-3.85-0.85z"/><path d="m55.1 28.45-3.95 0.25c0.133-0.267 0.283-0.483 0.449-0.65h3.851z"/><path d="m55.2 28.8c0.066 0.134 0.166 0.217 0.3 0.25l-3.95 1.15-0.4-0.35z"/><polygon points="58.65 31.4 58.35 31.4 58.1 29.55 58.4 29.5"/><polygon points="56.7 31.35 56.25 31.3 57.05 29.45 57.45 29.5"/><polygon points="59.8 29.4 61.25 31.2 60.6 31.3 59.35 29.45"/><polygon points="56.3 29.35 54.2 31.05 53.5 30.95 56 29.25"/><polygon points="59.1 27.25 60.6 25.8 61.15 25.9 59.55 27.3"/><polygon points="58.6 25.75 58.9 25.75 58.6 27.25 58.35 27.2"/><polygon points="57.6 27.25 57.3 25.8 57.7 25.75 57.85 27.25"/></g><path d="m48.85 29.9v2.35c-0.066 0.366-0.483 0.75-1.25 1.15-1.5 0.767-3.917 1.166-7.25 1.199-3.033 0.034-5.417-0.25-7.15-0.85l-1.75-0.9-0.1-3 4.2 0.75c2.934 0.5 4.784 0.684 5.55 0.551z" style="clip-rule:evenodd;fill-rule:evenodd;fill:url(#bq)"/><path d="m44.15 30.4c-0.1-0.233-0.333-0.467-0.7-0.7-0.767-0.467-1.8-0.717-3.1-0.75s-2.383 0.217-3.25 0.75l-0.9 0.8c-0.2-0.4-0.367-0.833-0.5-1.3-0.267-0.967-0.267-1.617 0-1.95l4.1-0.6c2.633 0.366 4.034 0.583 4.2 0.649 0.167 0.033 0.517 0.3 1.05 0.8l-0.45 1.851z" style="clip-rule:evenodd;fill-rule:evenodd;fill:url(#br)"/><path d="m47.25 27.75c1.833 1.134 2.233 2.083 1.2 2.85-2.467 1.967-6.75 2.567-12.85 1.801-3.967-0.5-5.2-1.584-3.7-3.25 1.4-1.567 3.45-2.483 6.15-2.75 4.033-0.434 7.1 0.016 9.2 1.349zm-3.5 2.1c0.4-0.399 0.283-0.816-0.35-1.25-0.733-0.466-1.917-0.683-3.55-0.649-0.967 0.033-1.9 0.283-2.8 0.75-1.033 0.5-1.117 0.95-0.25 1.35 0.867 0.434 2.184 0.601 3.95 0.5 1.633-0.101 2.633-0.334 3-0.701z" style="clip-rule:evenodd;fill-rule:evenodd;fill:#ffeb38"/><g style="clip-rule:evenodd;fill-rule:evenodd;fill:#fff2ad"><polygon points="35.5 27 38.35 28.2 38.05 28.3 36.7 28 35.3 27.1"/><polygon points="37.25 28.6 33.5 27.9 34.4 27.45 36.7 28 37.55 28.45"/><path d="m42.35 28.2 2.95-1.3c0.333 0.1 0.684 0.233 1.05 0.399l-3.5 1.05z"/><path d="m47.6 28 0.601 0.55-4.3 0.7c-0.066-0.267-0.233-0.483-0.5-0.65z"/><path d="m43.9 29.55 4.8 0.75c-0.066 0.167-0.15 0.267-0.25 0.3l-0.1 0.1-4.6-0.9z"/><path d="m36.25 29.4-4.7 0.199 0.55-0.699h4.6c-0.267 0.166-0.417 0.333-0.45 0.5z"/><polygon points="36.35 29.75 36.75 30.05 32.05 31.35 31.6 30.95"/><polygon points="40.45 32.7 40.15 32.7 39.85 30.6 40.2 30.55"/><polygon points="38.2 32.65 37.6 32.6 38.55 30.5 39 30.55"/><polygon points="41.85 30.45 43.6 32.45 42.8 32.55 41.3 30.5"/><polygon points="37.7 30.35 35.2 32.3 34.4 32.2 37.35 30.25"/><polygon points="41 28 42.75 26.4 43.4 26.45 41.5 28.05"/><polygon points="40.4 26.3 40.8 26.25 40.4 27.95 40.1 27.95"/><polygon points="39.25 28 38.9 26.35 39.35 26.3 39.55 28"/></g><use transform="matrix(1,0,0,-1,33,26.55)" x="-0.013" y="-4.1009998" width="14.113" height="4.0760002" style="enable-background:new;opacity:.8398" xlink:href="#az"/><use transform="matrix(1,0,0,-1,52.55,26.1)" x="-0.016000001" y="-3.3340001" width="9.0670004" height="3.3369999" style="enable-background:new;opacity:.8398" xlink:href="#ay"/><use transform="matrix(1,0,0,-1,48.45,20.8)" y="-1.756" width="9.4029999" height="1.756" style="enable-background:new;opacity:.8398" xlink:href="#ax"/><use transform="matrix(1,0,0,-1,32.55,21.75)" x="-0.0040000002" y="-2.007" width="10.09" height="2.007" style="enable-background:new;opacity:.8398" xlink:href="#aw"/><path d="m50.7 30.4c-0.634-0.4-0.917-0.934-0.851-1.601 0.034-0.399 0.317-0.8 0.851-1.2 0.267-0.199 0.533-0.35 0.8-0.449-0.066 0.1-0.15 0.216-0.25 0.35-0.167 0.267-0.25 0.55-0.25 0.85z" style="clip-rule:evenodd;fill-rule:evenodd;fill:#fff"/><path d="m27.65 27.6c0.4-0.133 0.633 0.017 0.7 0.45 0.033 0.434-0.233 0.667-0.8 0.7-0.5 0.033-0.683-0.134-0.55-0.5 0.133-0.333 0.35-0.55 0.65-0.65z" style="clip-rule:evenodd;fill-rule:evenodd;fill:#fff"/><path d="m69.05 26.55c-3.954 3.211-10.221 5.228-18.8 6.05-12.297 1.027-21.28-0.256-26.95-3.85z" style="clip-rule:evenodd;fill-opacity:.251;fill-rule:evenodd"/><path d="m66.638 17.344c2.697 1.419 4.047 3.33 4.049 5.731-0.021 3.371-3.869 5.871-11.539 7.501-6.678 1.454-14.23 1.943-22.658 1.47-6.388-0.36-11.048-1.679-13.982-3.955-2.587-1.991-3.171-3.935-1.751-5.83 1.293-1.757 2.703-3.119 4.229-4.084 1.721-1.108 4.066-2.042 7.037-2.804 7.722-1.966 15.294-2.373 22.717-1.223 5.44 0.801 9.406 1.866 11.898 3.194z" style="clip-rule:evenodd;fill-rule:evenodd;fill:#ebc76c"/><path d="m63.78 17.216c-3.826-1.305-7.885-2.198-12.176-2.682-2.606-0.303-4.938-0.429-6.998-0.376l2.621-0.137c3.502-0.049 6.698 0.197 9.591 0.741 2.994 0.573 5.441 1.235 7.342 1.988 0.916 0.361 1.973 0.883 3.17 1.566 0.615 0.34 0.934 0.777 0.957 1.31 0.011 0.267-0.029 0.485-0.122 0.656-0.044-0.266-0.276-0.606-0.694-1.021-0.802-0.801-2.032-1.483-3.691-2.045z" style="clip-rule:evenodd;fill-rule:evenodd;fill:#fadca0"/><path d="m69.803 23.464c0.33-0.848 0.243-2.112-0.263-3.792 0.776 1.001 1.159 2.136 1.146 3.403-0.021 3.371-3.869 5.871-11.539 7.501-6.678 1.454-14.23 1.943-22.658 1.47-5.586-0.327-9.885-1.395-12.899-3.201-2.637-1.588-3.779-3.324-3.426-5.207 0.397 1.484 1.436 2.757 3.116 3.819 2.126 1.344 5.132 2.183 9.016 2.517 13.828 1.144 22.629 0.967 26.401-0.529 1.706-0.674 3.406-1.497 5.099-2.471 1.398-0.86 2.345-1.352 2.84-1.473 1.089-0.28 1.764-0.492 2.024-0.637 0.523-0.289 0.903-0.757 1.143-1.4z" style="clip-rule:evenodd;fill-rule:evenodd;fill:#c99f48"/><path d="m66.62 27.454c2.207-1.43 3.547-2.889 4.017-4.377-0.021 3.371-3.868 5.871-11.539 7.501-6.645 1.452-14.18 1.941-22.608 1.468-3.779-0.205-6.989-0.768-9.631-1.688-2.372-0.833-4.151-1.875-5.339-3.125 1 0.758 2.165 1.459 3.494 2.103 1.463 0.672 2.714 1.052 3.752 1.141 0.066-3e-3 1.229 0.248 3.485 0.751 1.447 0.306 3.205 0.431 5.271 0.375 1.699-0.039 4.718-0.068 9.054-0.087 3.835-0.064 6.514-0.229 8.037-0.494 2.75-0.451 4.769-0.838 6.056-1.16 2.376-0.604 4.359-1.406 5.951-2.408z" style="clip-rule:evenodd;fill-rule:evenodd;fill:#a88334"/><path d="m61.93 17.245c3.188 1.198 4.905 2.358 5.153 3.482 0.25 1.157-0.832 2.371-3.247 3.643-2.576 1.378-5.953 2.39-10.129 3.036-3.049 0.497-6.308 0.753-9.777 0.769-4.002 0.038-7.751-0.252-11.247-0.87-5.613-0.96-8.313-2.847-8.1-5.658 0.06-0.937 1.215-2.004 3.466-3.201 1.893-0.982 3.862-1.75 5.907-2.305 2.937-0.76 6.271-1.186 10.004-1.279 1.901-0.015 4.475 0.075 7.719 0.27 3.58 0.213 6.996 0.918 10.251 2.113z" style="clip-rule:evenodd;fill-rule:evenodd;fill:#bd4d1e"/><path d="m42.9 29.82c2.375 0.132 4.149 0.29 5.326 0.473 1.679 0.262 4.543 0.139 8.592-0.368-1.385 0.394-2.993 0.629-4.824 0.707-3.396 0.146-5.697 0.194-6.9 0.146-2.572-0.057-5.028-0.151-7.369-0.285-3.246-0.229-5.558-0.463-6.937-0.704-1.277-0.212-2.338-0.45-3.184-0.714-1.017-0.357-1.93-0.668-2.742-0.934-1.894-0.587-2.939-1.626-3.136-3.119-0.093-0.597-0.174-0.943-0.245-1.04-0.072-0.131-0.223-0.141-0.451-0.031-0.326 0.181-0.322-0.104 0.013-0.851 0.303-0.714 0.732-1.2 1.289-1.457 0.229-0.109 0.343 0.235 0.344 1.036-0.015 0.435-0.054 1.087-0.116 1.957 0.02 0.466 0.204 0.875 0.553 1.227 0.211 0.259 0.608 0.575 1.191 0.95 0.206 0.125 0.599 0.358 1.181 0.7 0.444 0.248 0.821 0.482 1.131 0.702 0.482 0.347 2.198 0.69 5.148 1.031 3.318 0.358 5.46 0.517 6.426 0.476 0.967-0.042 2.537-9e-3 4.71 0.098z" style="clip-rule:evenodd;fill-rule:evenodd;fill:#fadca0"/><path d="m60.33 27.823c-0.795 0.901-1.545 1.317-2.248 1.247-0.569-0.043-0.601-0.375-0.093-0.997 0.509-0.589 1.044-0.945 1.605-1.069 1.29-0.289 1.535-0.016 0.736 0.819z" style="clip-rule:evenodd;fill-rule:evenodd;fill:#c99f48"/><path d="m55.552 28.428c0.6-0.025 0.857 0.146 0.773 0.518-0.052 0.369-0.345 0.532-0.88 0.488-0.501-0.012-0.709-0.187-0.623-0.523 0.054-0.305 0.297-0.465 0.73-0.483z" style="clip-rule:evenodd;fill-rule:evenodd;fill:#c99f48"/><path d="m68.654 22.362c0.854-0.304 1.113-0.115 0.774 0.567-0.37 0.683-0.806 1.035-1.306 1.057-0.399 0.017-0.492-0.213-0.279-0.688 0.213-0.51 0.483-0.821 0.811-0.936z" style="clip-rule:evenodd;fill-rule:evenodd;fill:#c99f48"/><path d="m68.969 20.347c0.402 0.05 0.479 0.279 0.229 0.691-0.282 0.412-0.542 0.573-0.779 0.483-0.203-0.059-0.229-0.274-0.079-0.647 0.118-0.372 0.328-0.548 0.629-0.527z" style="clip-rule:evenodd;fill-rule:evenodd;fill:#c99f48"/><path d="m28.064 26.952c0.638 0.106 1 0.374 1.085 0.805 0.117 0.396-0.177 0.541-0.882 0.438-0.673-0.138-0.984-0.392-0.934-0.761 0.018-0.369 0.262-0.529 0.731-0.482z" style="clip-rule:evenodd;fill-rule:evenodd;fill:#c99f48"/><path d="m64.167 19.251 1.132 0.703 0.529 0.677c-0.27-0.055-0.547 0.091-0.832 0.437-0.159 0.174-0.218 0.376-0.175 0.607 0.081 0.331 0.078 0.647-9e-3 0.952-0.119 0.338-0.624 0.627-1.515 0.865-1.089 0.28-1.779 0.526-2.07 0.739l-2.145 1.343-2.479 0.557c-0.231 0.043-0.79 0.234-1.677 0.572s-1.993 0.603-3.319 0.792c-2.618 0.413-5.19 0.34-7.716-0.22-2.024-0.514-3.646-0.611-4.867-0.292-1.022 0.277-2.712 0.149-5.071-0.384-0.202-0.024-0.82-0.048-1.855-0.07-0.969-0.025-1.758-0.142-2.367-0.35-0.574-0.175-1.077-0.621-1.508-1.336-0.463-0.682-0.879-1.047-1.248-1.098-0.504-0.079-0.932-0.327-1.283-0.746l-0.377-0.635c0.813-0.502 1.677-0.973 2.592-1.412 0.686-0.329 1.042-0.578 1.069-0.746s-0.261-0.239-0.86-0.213c-0.5 0.021-0.858-0.18-1.077-0.604l-0.227-0.641c1.216-0.419 2.765-0.485 4.646-0.199l23.017-0.084c5.846 0.183 9.077 0.446 9.692 0.786z" style="clip-rule:evenodd;fill-rule:evenodd;fill:#8a3915"/><path d="m63.463 17.98c1.188 0.483 1.723 0.894 1.604 1.233-0.092 0.204-0.33 0.48-0.715 0.831-0.058 0.203 0.069 0.447 0.382 0.734 0.313 0.32 0.48 0.696 0.499 1.13 0.024 0.566-0.411 0.918-1.307 1.057-0.066 3e-3 -0.916 0.039-2.548 0.108-0.599 0.026-1.005 0.294-1.217 0.804-0.332 0.814-0.691 1.381-1.078 1.697-0.547 0.457-1.125 0.615-1.731 0.475-0.712-0.27-1.303-0.428-1.771-0.475-0.638-0.073-1.316 0.022-2.04 0.287-0.165 0.041-1.035 0.378-2.608 1.013-0.886 0.372-1.847 0.513-2.885 0.424-1.074-0.154-1.878-0.22-2.411-0.197s-1.058-0.172-1.576-0.583c-0.691-0.538-1.475-0.938-2.354-1.2-0.978-0.259-1.79-0.124-2.435 0.404-0.839 0.67-1.458 1.03-1.855 1.08-0.697 0.097-1.284 0.022-1.761-0.225-0.482-0.347-0.927-0.595-1.333-0.743-0.475-0.181-1.042-0.189-1.702-0.027l-0.839 0.286-1.97-0.417c-0.808-0.165-1.372-0.491-1.693-0.978-0.26-0.623-0.479-1.064-0.657-1.323-0.145-0.261-0.451-0.414-0.92-0.461-0.536-0.044-0.944-0.227-1.225-0.549-0.385-0.417-9e-3 -1 1.126-1.749 0.973-0.643 1.905-1.083 2.796-1.321 0.264-0.078 0.045-0.102-0.653-0.072-1.166 0.05-1.756-0.108-1.772-0.474-0.013-0.3 0.978-0.526 2.974-0.678 2.096-0.123 3.27-0.373 3.521-0.751 0.408-0.585 0.742-0.983 1-1.194 0.581-0.458 1.353-0.742 2.316-0.85 0.763-0.099 1.607-0.252 2.533-0.458 0.762-0.133 1.683-0.055 2.763 0.232 0.607 0.174 1.46 0.221 2.558 0.141 0.666-0.029 1.797-0.11 3.393-0.245 1.799-0.077 2.73-0.117 2.798-0.12 0.733 2e-3 1.674 0.128 2.818 0.38 1.009 0.19 1.904 0.452 2.687 0.786 0.886 0.429 1.514 0.686 1.885 0.77 0.169 0.059 0.908 0.178 2.217 0.355 0.968 0.124 2.032 0.412 3.186 0.863z" style="clip-rule:evenodd;fill-rule:evenodd;fill:url(#bs)"/><path d="m63.741 19.82c-0.037-0.099 0.072-0.253 0.33-0.465 0.387-0.316 0.628-0.544 0.722-0.681 0.312 0.253 0.339 0.502 0.082 0.747-0.352 0.349-0.526 0.556-0.523 0.623-0.058 0.203 0.069 0.447 0.382 0.734 0.313 0.32 0.48 0.696 0.499 1.13 0.024 0.566-0.411 0.918-1.307 1.057-0.066 3e-3 -0.916 0.039-2.548 0.108-0.599 0.026-1.005 0.294-1.217 0.804-0.332 0.814-0.691 1.381-1.078 1.697-0.547 0.457-1.125 0.615-1.731 0.475-0.712-0.27-1.303-0.428-1.771-0.475-0.638-0.073-1.316 0.022-2.04 0.287-0.165 0.041-1.035 0.378-2.608 1.013-0.886 0.372-1.847 0.513-2.885 0.424-1.074-0.154-1.878-0.22-2.411-0.197s-1.058-0.172-1.576-0.583c-0.691-0.538-1.475-0.938-2.354-1.2-0.978-0.259-1.79-0.124-2.435 0.404-0.839 0.67-1.458 1.03-1.855 1.08-0.697 0.097-1.284 0.022-1.761-0.225-0.482-0.347-0.927-0.595-1.333-0.743-0.475-0.181-1.042-0.189-1.702-0.027l-0.839 0.286-1.97-0.417c-0.808-0.165-1.372-0.491-1.693-0.978-0.26-0.623-0.479-1.064-0.657-1.323-0.145-0.261-0.451-0.414-0.92-0.461-0.536-0.044-0.944-0.227-1.225-0.549-0.212-0.291-0.144-0.628 0.207-1.01 0.019 0.434 0.297 0.688 0.833 0.766 0.605 0.107 1.067 0.371 1.385 0.791 0.209 0.225 0.527 0.629 0.953 1.21 1.085 1.188 2.12 1.595 3.105 1.219 0.492-0.188 1.108-0.214 1.848-0.079 0.437 0.082 1.095 0.254 1.974 0.517 1.248 0.313 2.434-0.038 3.558-1.054 0.417-0.385 1.043-0.578 1.877-0.58 0.932-0.04 1.726 0.176 2.379 0.648 1.616 1.099 3.204 1.564 4.764 1.397 0.531-0.057 1.404-0.327 2.618-0.813 1.245-0.521 2-0.804 2.266-0.848 0.132-0.039 0.84 0.13 2.123 0.51 1.082 0.32 1.946 0.25 2.594-0.212 0.484-0.388 1.012-0.927 1.582-1.618 0.412-0.519 0.783-0.802 1.115-0.85 0.331-0.047 1.015-0.06 2.05-0.037 0.968-8e-3 1.527-0.182 1.68-0.522 0.278-0.479 0.117-1.139-0.487-1.98z" style="clip-rule:evenodd;fill-rule:evenodd;fill:#f7cf6a"/><path d="m32.346 21.765c1.468 3e-3 1.793 0.573 0.974 1.71-0.854 1.104-1.785 1.561-2.794 1.37-1.749-0.325-1.968-1.15-0.656-2.474 0.287-0.313 0.663-0.496 1.127-0.549 0.232-0.043 0.681-0.062 1.349-0.057z" style="clip-rule:evenodd;fill-rule:evenodd;fill:#bd4d1e"/><path d="m27.749 20.76c0.954-0.308 1.72-0.34 2.298-0.099 0.544 0.244 0.638 0.474 0.28 0.689-0.325 0.214-0.768 0.366-1.332 0.457-0.627 0.16-1.144 0.166-1.551 0.017s-0.532-0.344-0.375-0.585c0.124-0.205 0.351-0.365 0.68-0.479z" style="clip-rule:evenodd;fill-rule:evenodd;fill:#bd4d1e"/><path d="m29.558 19.782c0.591-0.226 1.291-0.256 2.098-0.09 0.807 0.132 0.765 0.334-0.124 0.606-0.429 0.118-0.915 0.072-1.458-0.138-0.542-0.21-0.714-0.337-0.516-0.378z" style="clip-rule:evenodd;fill-rule:evenodd;fill:#bd4d1e"/><path d="m46.51 19.457c0.3-0.013 0.847-0.103 1.641-0.271 0.594-0.159 0.926-0.173 0.999-0.042 0.247 0.323-0.263 0.879-1.53 1.666-1.525 1-2.854 1.141-3.986 0.421-0.651-0.405-0.568-0.809 0.249-1.211 0.749-0.4 1.625-0.587 2.627-0.563z" style="clip-rule:evenodd;fill-rule:evenodd;fill:#bd4d1e"/><path d="m50.244 22.5c0.632-0.027 1.391 0.157 2.275 0.553 0.918 0.395 1.017 0.757 0.297 1.088-1.145 0.55-1.998 0.887-2.56 1.011-0.957 0.241-1.728 0.157-2.313-0.251-0.619-0.441-0.541-0.945 0.235-1.512 0.678-0.563 1.366-0.86 2.066-0.889z" style="clip-rule:evenodd;fill-rule:evenodd;fill:#bd4d1e"/><path d="m43.056 17.102c-0.305-0.121-0.562-0.276-0.771-0.468-0.414-0.315-0.357-0.551 0.17-0.708 0.593-0.159 1.276-0.188 2.048-0.087 0.738 0.102 1.078 0.237 1.019 0.406-0.059 0.203-0.317 0.397-0.776 0.584-0.492 0.189-1.056 0.279-1.69 0.273z" style="clip-rule:evenodd;fill-rule:evenodd;fill:#bd4d1e"/><path d="m45.921 17.379c0.534 0.011 0.893 0.195 1.074 0.555 0.182 0.326 0.124 0.562-0.17 0.708s-0.758 0.216-1.392 0.21c-0.667-5e-3 -1.238-0.097-1.713-0.277-0.443-0.214-0.304-0.471 0.417-0.769 0.688-0.296 1.283-0.438 1.784-0.427z" style="clip-rule:evenodd;fill-rule:evenodd;fill:#bd4d1e"/><path d="m56.937 21.012c-0.146 0.507-0.682 0.847-1.608 1.02-0.895 0.139-1.551 0.017-1.968-0.366-0.555-0.51-0.852-0.797-0.888-0.862-0.109-0.229 0.166-0.407 0.828-0.536 0.629-0.127 1.415-0.061 2.361 0.199 0.877 0.228 1.302 0.41 1.275 0.545z" style="clip-rule:evenodd;fill-rule:evenodd;fill:#bd4d1e"/><path d="m37.095 22.813c-0.072-0.131 0.485-0.354 1.673-0.673 1.187-0.351 2.13-0.508 2.833-0.472 0.569 0.043 0.809 0.199 0.721 0.47-0.244 0.544-0.365 0.834-0.363 0.866 0.127 0.629-0.945 0.908-3.217 0.839-0.935-0.026-1.457-0.138-1.565-0.334 0.053-0.269 0.026-0.501-0.082-0.696z" style="clip-rule:evenodd;fill-rule:evenodd;fill:#bd4d1e"/><path d="m50.958 19.316c0.498-0.055 0.915-0.057 1.251-4e-3 0.37 0.084 0.492 0.196 0.364 0.335-0.127 0.139-0.306 0.247-0.536 0.323l-0.298 0.063-1.255-0.097c-0.436-0.048-0.558-0.159-0.364-0.334 0.159-0.174 0.439-0.269 0.838-0.286z" style="clip-rule:evenodd;fill-rule:evenodd;fill:#bd4d1e"/><use transform="matrix(.9991 -.0428 -.0428 -.9991 28.6 15.75)" y="-5.0500002" width="15.023" height="5.0599999" style="enable-background:new;opacity:.7188" xlink:href="#av"/><use transform="matrix(.9991 -.0428 -.0428 -.9991 44.7 13.85)" y="-5.1550002" width="15.85" height="5.1560001" style="enable-background:new;opacity:.7188" xlink:href="#au"/><use transform="matrix(.9991 -.0428 -.0428 -.9991 49.7 19.2)" y="-6.5100002" width="15.277" height="6.5300002" style="enable-background:new;opacity:.7188" xlink:href="#as"/><path d="m43.381 17.688c-0.055 0.27-0.376 0.566-0.963 0.892-1.173 0.651-3.123 1.084-5.85 1.301-2.46 0.205-4.415 0.14-5.864-0.199l-1.476-0.587-0.242-2.142 3.416 0.304c2.41 0.197 3.93 0.232 4.558 0.105l6.299-1.32z" style="clip-rule:evenodd;fill-rule:evenodd;fill:url(#bt)"/><path d="m32.3 14.86 3.328-0.593 3.461 0.202c0.135 0.027 0.425 0.182 0.871 0.463l-0.248 1.211-0.337 0.315c-0.392-0.584-1.454-0.838-3.186-0.765-1.066 0.046-1.941 0.267-2.625 0.663l-0.676 0.579c-0.178-0.259-0.34-0.536-0.486-0.83-0.257-0.588-0.292-1.003-0.102-1.245z" style="clip-rule:evenodd;fill-rule:evenodd;fill:url(#bu)"/><path d="m36.641 16.876c1.361-0.158 2.17-0.36 2.426-0.604 0.287-0.313 0.176-0.575-0.334-0.787-0.644-0.239-1.615-0.314-2.912-0.226-0.798 0.067-1.556 0.284-2.275 0.647-0.785 0.368-0.822 0.653-0.113 0.856 0.744 0.236 1.814 0.274 3.208 0.114zm5.161-2.172c1.563 0.667 1.956 1.267 1.178 1.801-1.978 1.353-5.438 1.951-10.383 1.796-3.273-0.093-4.351-0.714-3.232-1.863 1.056-1.046 2.678-1.733 4.866-2.06 3.248-0.507 5.772-0.399 7.571 0.326z" style="clip-rule:evenodd;fill-rule:evenodd;fill:#ffeb38"/><g style="clip-rule:evenodd;fill-rule:evenodd;fill:#fff2ad"><polygon points="32.203 14.914 34.581 15.513 34.383 15.572 33.228 15.471 32.005 14.973"/><polygon points="33.692 15.801 30.63 15.582 31.316 15.252 33.228 15.471 33.94 15.741"/><polygon points="37.823 15.274 40.183 14.272 41.042 14.486 38.277 15.355"/><path d="m42.11 14.89 0.565 0.326-3.475 0.65c-0.038-0.099-0.193-0.225-0.467-0.38z"/><polygon points="39.115 16.22 39.158 16.068 43.172 16.296 42.98 16.504 42.883 16.559"/><path d="m32.966 16.383-3.836 0.415 0.428-0.519 3.694-0.208c-0.193 0.141-0.289 0.245-0.286 0.312z"/><polygon points="33.077 16.628 33.383 16.765 29.627 17.877 29.217 17.645"/><polygon points="36.551 18.281 36.301 18.292 35.894 16.958 36.193 16.946"/><polygon points="34.702 18.36 34.25 18.33 34.892 16.951 35.244 16.986"/><polygon points="37.585 16.735 39.087 17.922 38.442 18.05 37.088 16.807"/><polygon points="34.19 16.931 32.248 18.315 31.594 18.243 33.889 16.894"/><polygon points="36.77 15.219 38.074 14.113 38.625 14.139 37.172 15.252"/><polygon points="36.173 14.144 36.473 14.131 36.27 15.241 36.021 15.251"/><polygon points="35.273 15.333 34.929 14.297 35.276 14.232 35.523 15.322"/></g><path d="m53.063 15.873 6.228-0.667-0.077 1.705c-0.056 0.269-0.395 0.534-1.017 0.794-1.213 0.519-3.154 0.752-5.826 0.7-2.403-0.03-4.316-0.299-5.739-0.805l-1.381-0.692 5e-3 -2.202 3.332 0.658c2.351 0.4 3.844 0.569 4.475 0.509z" style="clip-rule:evenodd;fill-rule:evenodd;fill:url(#bv)"/><path d="m51.979 12.767 3.375 0.506 0.825 0.565-0.398 1.218-0.339 0.265c-0.327-0.62-1.343-0.977-3.049-1.07-1.037-0.056-1.915 0.082-2.635 0.413l-0.73 0.482c-0.145-0.261-0.273-0.556-0.388-0.885-0.193-0.625-0.178-1.043 0.046-1.253z" style="clip-rule:evenodd;fill-rule:evenodd;fill:url(#bw)"/><path d="m55.177 14.981c0.322-0.247 0.245-0.511-0.234-0.791-0.58-0.309-1.522-0.485-2.825-0.529-0.801 1e-3 -1.563 0.133-2.285 0.397-0.819 0.336-0.89 0.639-0.211 0.91 0.714 0.303 1.771 0.441 3.17 0.415 1.3-0.021 2.095-0.155 2.385-0.402zm2.85-1.222c1.469 0.805 1.779 1.442 0.933 1.912-2.118 1.192-5.56 1.456-10.326 0.792-3.154-0.433-4.121-1.175-2.898-2.228 1.127-0.949 2.772-1.487 4.935-1.613 3.263-0.173 5.715 0.206 7.356 1.137z" style="clip-rule:evenodd;fill-rule:evenodd;fill:#ffeb38"/><g style="clip-rule:evenodd;fill-rule:evenodd;fill:#fff2ad"><polygon points="48.634 12.959 50.923 13.813 50.675 13.873 49.613 13.619 48.486 13.016"/><polygon points="50.032 14.051 47.055 13.478 47.743 13.198 49.613 13.619 50.277 13.94"/><polygon points="54.131 13.926 56.498 13.124 57.311 13.389 54.534 14.008"/><path d="m58.333 13.896 0.467 0.38-3.438 0.348c-0.073-0.164-0.213-0.308-0.419-0.433z"/><polygon points="55.227 14.979 55.32 14.825 59.201 15.46 58.96 15.67 58.861 15.725"/><polygon points="49.202 14.537 45.449 14.547 45.879 14.079 49.539 14.222"/><polygon points="49.313 14.782 49.621 14.969 45.798 15.684 45.436 15.398"/><polygon points="52.502 16.798 52.25 16.759 52.04 15.366 52.342 15.403"/><polygon points="50.694 16.675 50.243 16.644 51.036 15.309 51.389 15.344"/><polygon points="53.69 15.346 55.052 16.738 54.402 16.766 53.191 15.367"/><polygon points="50.331 15.189 48.332 16.426 47.676 16.303 50.077 15.1"/><polygon points="53.07 13.721 54.479 12.709 54.982 12.788 53.425 13.805"/><polygon points="52.572 12.591 52.874 12.628 52.569 13.692 52.319 13.703"/><polygon points="51.618 13.683 51.371 12.592 51.721 12.577 51.867 13.672"/></g><path d="m64.716 20.379 0.049 2.3c-0.051 0.369-0.385 0.75-1.002 1.144-1.267 0.821-3.297 1.325-6.091 1.512-2.529 0.142-4.539-0.039-6.029-0.542l-1.537-0.835-0.126-2.947 3.526 0.549c2.485 0.361 4.04 0.461 4.667 0.301z" style="clip-rule:evenodd;fill-rule:evenodd;fill:url(#bx)"/><path d="m60.428 18.41c0.168 0.026 0.478 0.247 0.93 0.661l-0.33 1.666-0.332 0.415c-0.108-0.195-0.316-0.387-0.625-0.574-0.651-0.405-1.527-0.602-2.628-0.588s-2.007 0.27-2.72 0.767l-0.717 0.781c-0.182-0.358-0.332-0.736-0.449-1.131-0.27-0.856-0.312-1.438-0.125-1.747l3.424-0.697c2.246 0.237 3.436 0.386 3.572 0.447z" style="clip-rule:evenodd;fill-rule:evenodd;fill:url(#by)"/><path d="m60.021 19.429c-0.651-0.406-1.643-0.563-2.974-0.473-0.831 0.068-1.621 0.319-2.37 0.752-0.846 0.503-0.894 0.922-0.146 1.257 0.782 0.333 1.887 0.42 3.314 0.258 1.396-0.126 2.236-0.379 2.52-0.758 0.319-0.381 0.203-0.726-0.344-1.036zm3.213-0.939c1.607 0.932 1.993 1.767 1.157 2.503-2.057 1.822-5.648 2.494-10.773 2.013-3.382-0.289-4.472-1.193-3.269-2.713 1.142-1.383 2.839-2.257 5.093-2.62 3.381-0.512 5.979-0.239 7.792 0.817z" style="clip-rule:evenodd;fill-rule:evenodd;fill:#ffeb38"/><g style="clip-rule:evenodd;fill-rule:evenodd;fill:#fff2ad"><polygon points="53.317 18.314 55.76 19.261 55.563 19.319 54.402 19.119 53.169 18.371"/><polygon points="54.876 19.649 51.703 19.184 52.436 18.752 54.402 19.119 55.119 19.488"/><polygon points="61.604 17.809 62.468 18.123 59.611 19.196 59.155 19.065"/><path d="m63.544 18.727 0.571 0.476-3.621 0.756c-0.076-0.23-0.234-0.407-0.473-0.53z"/><path d="m60.507 20.258 4.074 0.477c-0.061 0.137-0.124 0.223-0.189 0.259l-0.096 0.104-3.882-0.684z"/><path d="m54.055 20.335-3.937 0.418c0.122-0.271 0.263-0.495 0.423-0.668l3.846-0.165z"/><path d="m54.17 20.68c0.071 0.131 0.175 0.209 0.31 0.237l-3.897 1.318-0.414-0.333z"/><polygon points="57.728 23.13 57.428 23.143 57.099 21.306 57.396 21.242"/><polygon points="55.777 23.163 55.325 23.133 56.045 21.25 56.447 21.283"/><polygon points="58.791 21.082 60.316 22.819 59.672 22.947 58.344 21.152"/><polygon points="55.292 21.183 53.267 22.971 52.563 22.9 54.988 21.096"/><polygon points="58 18.964 59.437 17.452 59.989 17.528 58.451 18.996"/><polygon points="57.436 17.487 57.735 17.475 57.5 18.986 57.248 18.947"/><polygon points="56.501 19.029 56.139 17.593 56.537 17.526 56.751 19.018"/></g><use transform="matrix(.9991 -.0428 -.0428 -.9991 51.2 18)" x="-0.016000001" y="-3.3340001" width="9.0670004" height="3.3369999" style="enable-background:new;opacity:.8398" xlink:href="#ay"/><use transform="matrix(.9991 -.0428 -.0428 -.9991 46.7 12.9)" y="-1.756" width="9.4029999" height="1.756" style="enable-background:new;opacity:.8398" xlink:href="#ax"/><use transform="matrix(.9991 -.0428 -.0428 -.9991 30.85 14.5)" x="-0.0040000002" y="-2.007" width="10.09" height="2.007" style="enable-background:new;opacity:.8398" xlink:href="#aw"/><path d="m49.742 22.471c-0.65-0.372-0.956-0.893-0.918-1.562 0.017-0.401 0.282-0.813 0.798-1.236 0.258-0.211 0.518-0.373 0.78-0.484-0.063 0.103-0.141 0.223-0.235 0.36-0.154 0.273-0.226 0.561-0.213 0.86z" style="clip-rule:evenodd;fill-rule:evenodd;fill:#fff"/><path d="m26.593 20.659c0.394-0.15 0.633-0.011 0.719 0.42 0.052 0.432-0.205 0.676-0.77 0.733-0.499 0.055-0.688-0.104-0.571-0.476 0.119-0.338 0.327-0.564 0.622-0.677z" style="clip-rule:evenodd;fill-rule:evenodd;fill:#fff"/><path d="m45.15 23.5 0.1 2.35c-0.067 0.367-0.45 0.767-1.15 1.2-1.467 0.834-3.867 1.334-7.2 1.5-3.033 0.167-5.433 0-7.2-0.5l-1.8-0.85-0.2-3 4.25 0.6c2.933 0.367 4.783 0.467 5.55 0.3z" style="clip-rule:evenodd;fill-rule:evenodd;fill:url(#bz)"/><path d="m40.498 24.2c-0.11-0.228-0.353-0.451-0.729-0.669-0.786-0.434-1.829-0.639-3.129-0.616s-2.372 0.318-3.215 0.888l-0.865 0.838c-0.217-0.391-0.402-0.816-0.555-1.277-0.308-0.954-0.336-1.604-0.083-1.948l4.07-0.775c2.646 0.254 4.055 0.411 4.224 0.471 0.167 0.026 0.529 0.277 1.083 0.754l-0.37 1.868z" style="clip-rule:evenodd;fill-rule:evenodd;fill:url(#ca)"/><path d="m40.075 23.668c0.382-0.416 0.248-0.828-0.403-1.233-0.753-0.435-1.944-0.601-3.575-0.497-0.964 0.074-1.886 0.363-2.766 0.868-1.011 0.544-1.075 0.997-0.192 1.36 0.884 0.396 2.208 0.505 3.968 0.33 1.628-0.17 2.617-0.445 2.968-0.828zm3.407-2.247c1.88 1.054 2.32 1.985 1.321 2.796-2.38 2.07-6.634 2.854-12.761 2.348-3.984-0.33-5.263-1.359-3.836-3.089 1.332-1.625 3.341-2.628 6.027-3.011 4.011-0.605 7.094-0.286 9.249 0.956z" style="clip-rule:evenodd;fill-rule:evenodd;fill:#ffeb38"/><g style="clip-rule:evenodd;fill-rule:evenodd;fill:#fff2ad"><polygon points="31.71 21.174 34.609 22.251 34.314 22.364 32.953 22.121 31.515 21.282"/><polygon points="33.527 22.697 29.751 22.158 30.631 21.671 32.953 22.121 33.821 22.535"/><path d="m38.606 22.08 2.891-1.426c0.337 0.086 0.693 0.204 1.066 0.355l-3.452 1.198z"/><path d="m43.842 21.655 0.623 0.524-4.266 0.883c-0.078-0.264-0.254-0.473-0.527-0.628z"/><path d="m40.212 23.362 4.828 0.544c-0.06 0.169-0.139 0.273-0.237 0.311l-0.096 0.104-4.634-0.703z"/><path d="m32.563 23.539-4.687 0.401 0.52-0.723 4.596-0.197c-0.261 0.179-0.403 0.352-0.429 0.519z"/><polygon points="32.678 23.885 33.09 24.168 28.45 25.667 27.983 25.287"/><polygon points="36.9 26.657 36.6 26.67 36.211 24.585 36.559 24.52"/><polygon points="34.65 26.703 34.048 26.679 34.907 24.54 35.359 24.571"/><polygon points="38.203 24.35 40.037 26.272 39.241 26.407 37.655 24.423"/><polygon points="34.052 24.427 31.638 26.482 30.834 26.416 33.698 24.342"/><polygon points="37.249 21.938 38.928 20.264 39.58 20.286 37.75 21.967"/><polygon points="36.576 20.266 36.974 20.198 36.646 21.913 36.347 21.927"/><polygon points="35.5 22.013 35.08 20.379 35.527 20.31 35.799 22"/></g><use transform="matrix(.9991 -.0428 -.0428 -.9991 28.65 20.7)" x="-0.013" y="-4.1009998" width="14.113" height="4.0760002" style="enable-background:new;opacity:.8398" xlink:href="#az"/><path d="m69.4 19.55c1.28 0.809 1.28 1.792 0 2.95-4.233 2.866-10.667 4.333-19.301 4.4-12.3-0.067-21.133-2.134-26.5-6.2z" style="clip-rule:evenodd;fill-opacity:.251;fill-rule:evenodd"/><path d="m67.815 12.665c2.563 1.648 3.741 3.669 3.535 6.062-0.315 3.356-4.364 5.513-12.147 6.469-6.778 0.868-14.345 0.7-22.701-0.504-6.333-0.914-10.86-2.633-13.585-5.156-2.405-2.208-2.817-4.195-1.238-5.96 1.441-1.638 2.963-2.872 4.568-3.702 1.811-0.954 4.228-1.681 7.253-2.181 7.865-1.287 15.444-1.035 22.739 0.756 5.351 1.271 9.209 2.676 11.576 4.216z" style="clip-rule:evenodd;fill-rule:evenodd;fill:#ebc76c"/><path d="m64.979 12.289c-3.698-1.632-7.664-2.875-11.897-3.729-2.569-0.53-4.882-0.857-6.938-0.984l2.624 0.091c3.492 0.255 6.655 0.779 9.49 1.571 2.933 0.831 5.313 1.704 7.141 2.619 0.882 0.439 1.889 1.051 3.022 1.835 0.583 0.393 0.862 0.856 0.839 1.389-0.012 0.267-0.071 0.481-0.179 0.643-0.021-0.268-0.222-0.627-0.603-1.077-0.729-0.868-1.895-1.653-3.499-2.358z" style="clip-rule:evenodd;fill-rule:evenodd;fill:#fadca0"/><path d="m70.437 19.037c0.402-0.816 0.426-2.083 0.067-3.801 0.687 1.065 0.97 2.228 0.847 3.491-0.315 3.356-4.364 5.513-12.147 6.469-6.778 0.868-14.345 0.7-22.701-0.504-5.536-0.813-9.727-2.249-12.572-4.311-2.488-1.811-3.476-3.64-2.96-5.485 0.267 1.513 1.191 2.872 2.772 4.076 2.001 1.523 4.922 2.62 8.763 3.291 13.676 2.34 22.459 2.929 26.348 1.767 1.758-0.523 3.522-1.195 5.294-2.018 1.468-0.736 2.453-1.143 2.957-1.221 1.108-0.185 1.8-0.338 2.072-0.459 0.545-0.242 0.965-0.675 1.26-1.295z" style="clip-rule:evenodd;fill-rule:evenodd;fill:#c99f48"/><path d="m66.919 22.734c2.323-1.231 3.784-2.568 4.382-4.01-0.314 3.356-4.364 5.513-12.147 6.469-6.745 0.87-14.295 0.702-22.651-0.502-3.747-0.533-6.896-1.373-9.447-2.52-2.29-1.036-3.973-2.229-5.047-3.577 0.931 0.842 2.03 1.642 3.298 2.398 1.399 0.796 2.612 1.283 3.639 1.462 0.067 3e-3 1.202 0.354 3.407 1.052 1.416 0.43 3.155 0.707 5.218 0.831 1.697 0.108 4.707 0.342 9.028 0.7 3.825 0.27 6.508 0.338 8.049 0.206 2.778-0.21 4.823-0.42 6.133-0.629 2.419-0.392 4.465-1.019 6.138-1.88z" style="clip-rule:evenodd;fill-rule:evenodd;fill:#a88334"/><path d="m63.133 12.157c3.071 1.471 4.683 2.776 4.831 3.917 0.148 1.175-1.034 2.29-3.551 3.346-2.687 1.149-6.139 1.864-10.354 2.144-3.08 0.231-6.349 0.203-9.806-0.083-3.99-0.311-7.7-0.925-11.129-1.844-5.508-1.445-8.034-3.559-7.577-6.341 0.142-0.928 1.385-1.891 3.731-2.888 1.971-0.813 4-1.408 6.085-1.783 2.991-0.501 6.351-0.636 10.078-0.404 1.895 0.15 4.451 0.464 7.667 0.939 3.544 0.525 6.887 1.523 10.025 2.997z" style="clip-rule:evenodd;fill-rule:evenodd;fill:#bd4d1e"/><path d="m43.083 23.031c2.354 0.338 4.109 0.648 5.264 0.934 1.65 0.406 4.514 0.533 8.592 0.38-1.414 0.271-3.036 0.366-4.867 0.285-3.397-0.15-5.692-0.302-6.887-0.455-2.557-0.28-4.996-0.588-7.316-0.925-3.214-0.509-5.497-0.943-6.849-1.304-1.254-0.322-2.291-0.651-3.11-0.988-0.981-0.444-1.865-0.833-2.65-1.168-1.835-0.749-2.787-1.875-2.854-3.379-0.04-0.603-0.091-0.955-0.153-1.058-0.061-0.136-0.21-0.16-0.447-0.07-0.34 0.152-0.312-0.131 0.087-0.847 0.364-0.685 0.834-1.131 1.411-1.339 0.237-0.089 0.322 0.265 0.253 1.063-0.052 0.431-0.148 1.078-0.286 1.939-0.021 0.466 0.127 0.89 0.444 1.271 0.188 0.276 0.556 0.625 1.104 1.05 0.194 0.142 0.565 0.409 1.116 0.8 0.421 0.286 0.776 0.552 1.066 0.798 0.45 0.387 2.129 0.879 5.04 1.475 3.274 0.646 5.395 0.989 6.361 1.032 0.965 0.041 2.525 0.21 4.681 0.506z" style="clip-rule:evenodd;fill-rule:evenodd;fill:#fadca0"/><path d="m60.621 22.556c-0.871 0.829-1.653 1.179-2.349 1.048-0.563-0.092-0.565-0.426-6e-3 -1.002 0.558-0.542 1.122-0.851 1.692-0.926 1.311-0.176 1.53 0.117 0.663 0.88z" style="clip-rule:evenodd;fill-rule:evenodd;fill:#c99f48"/><path d="m55.808 22.743c0.6 0.026 0.842 0.221 0.726 0.583-0.083 0.363-0.39 0.5-0.919 0.409-0.498-0.055-0.69-0.247-0.575-0.575 0.079-0.297 0.335-0.435 0.768-0.417z" style="clip-rule:evenodd;fill-rule:evenodd;fill:#c99f48"/><path d="m69.388 17.839c0.878-0.228 1.119-0.017 0.723 0.633-0.429 0.648-0.893 0.961-1.393 0.939-0.4-0.018-0.473-0.255-0.219-0.71 0.255-0.49 0.552-0.777 0.889-0.862z" style="clip-rule:evenodd;fill-rule:evenodd;fill:#c99f48"/><path d="m69.876 15.859c0.397 0.084 0.453 0.32 0.169 0.708-0.317 0.386-0.59 0.524-0.818 0.414-0.197-0.075-0.204-0.292-0.022-0.651 0.149-0.361 0.373-0.518 0.671-0.471z" style="clip-rule:evenodd;fill-rule:evenodd;fill:#c99f48"/><path d="m28.552 18.884c0.627 0.161 0.964 0.459 1.011 0.896 0.083 0.403-0.223 0.523-0.917 0.359-0.659-0.196-0.947-0.476-0.864-0.839 0.05-0.364 0.306-0.503 0.77-0.416z" style="clip-rule:evenodd;fill-rule:evenodd;fill:#c99f48"/><path d="m65.188 14.35 1.065 0.798 0.469 0.721c-0.264-0.078-0.553 0.042-0.867 0.362-0.174 0.16-0.249 0.356-0.227 0.591 0.053 0.336 0.021 0.651-0.092 0.947-0.147 0.327-0.676 0.571-1.583 0.731-1.109 0.184-1.818 0.37-2.127 0.556l-2.254 1.151-2.518 0.339c-0.234 0.023-0.808 0.165-1.72 0.425-0.913 0.26-2.038 0.427-3.376 0.501-2.644 0.184-5.2-0.113-7.668-0.89-1.972-0.688-3.579-0.926-4.823-0.714-1.042 0.188-2.715-0.087-5.018-0.823-0.199-0.042-0.813-0.12-1.842-0.232-0.963-0.109-1.739-0.294-2.328-0.553-0.557-0.225-1.019-0.712-1.386-1.463-0.402-0.719-0.785-1.119-1.148-1.202-0.495-0.122-0.899-0.407-1.214-0.855l-0.321-0.665c0.854-0.43 1.755-0.823 2.705-1.182 0.712-0.269 1.089-0.485 1.13-0.651 0.041-0.165-0.239-0.261-0.838-0.287-0.5-0.022-0.84-0.254-1.021-0.696l-0.171-0.658c1.248-0.312 2.797-0.243 4.646 0.206l22.938 1.916c5.81 0.692 9.005 1.234 9.589 1.627z" style="clip-rule:evenodd;fill-rule:evenodd;fill:#8a3915"/><path d="m64.597 13.022c1.142 0.584 1.639 1.04 1.49 1.367-0.108 0.195-0.37 0.451-0.784 0.766-0.075 0.197 0.03 0.452 0.316 0.765 0.285 0.347 0.418 0.736 0.399 1.169-0.025 0.566-0.49 0.879-1.394 0.939-0.066-3e-3 -0.916-0.041-2.548-0.113-0.599-0.026-1.026 0.205-1.282 0.694-0.401 0.783-0.809 1.315-1.222 1.597-0.585 0.408-1.174 0.516-1.766 0.322-0.686-0.33-1.261-0.539-1.724-0.626-0.629-0.128-1.314-0.092-2.057 0.109-0.169 0.026-1.064 0.286-2.688 0.782-0.914 0.293-1.884 0.35-2.911 0.171-1.057-0.246-1.852-0.382-2.384-0.405-0.533-0.023-1.04-0.263-1.52-0.718-0.642-0.596-1.388-1.063-2.241-1.401-0.952-0.342-1.772-0.278-2.46 0.192-0.894 0.594-1.542 0.899-1.942 0.915-0.703 0.036-1.281-0.09-1.735-0.377-0.45-0.387-0.872-0.673-1.264-0.857-0.458-0.22-1.022-0.279-1.694-0.175l-0.86 0.212-1.926-0.585c-0.79-0.235-1.324-0.609-1.602-1.122-0.205-0.643-0.385-1.102-0.54-1.375-0.121-0.272-0.414-0.452-0.877-0.54-0.53-0.09-0.92-0.308-1.172-0.652-0.347-0.449 0.078-0.998 1.274-1.645 1.025-0.555 1.992-0.913 2.9-1.073 0.269-0.055 0.054-0.098-0.645-0.128-1.166-0.052-1.74-0.261-1.724-0.627 0.013-0.3 1.021-0.438 3.021-0.417 2.099 0.06 3.291-0.087 3.573-0.442 0.458-0.547 0.825-0.915 1.1-1.103 0.619-0.406 1.412-0.621 2.381-0.646 0.769-0.032 1.623-0.111 2.563-0.236 0.771-0.066 1.681 0.091 2.732 0.471 0.59 0.227 1.436 0.348 2.536 0.363 0.666 0.029 1.8 0.046 3.401 0.051 1.798 0.08 2.73 0.121 2.797 0.124 0.731 0.065 1.656 0.273 2.775 0.623 0.988 0.277 1.857 0.616 2.607 1.016 0.846 0.505 1.449 0.815 1.811 0.931 0.164 0.074 0.89 0.256 2.179 0.546 0.962 0.21 1.996 0.589 3.107 1.138z" style="clip-rule:evenodd;fill-rule:evenodd;fill:url(#cb)"/><path d="m64.714 14.879c-0.028-0.102 0.095-0.246 0.37-0.434 0.412-0.282 0.672-0.487 0.777-0.616 0.289 0.28 0.294 0.53 0.018 0.751-0.381 0.317-0.573 0.508-0.576 0.575-0.075 0.197 0.03 0.452 0.316 0.765 0.285 0.347 0.418 0.736 0.399 1.169-0.025 0.566-0.49 0.879-1.394 0.939-0.066-3e-3 -0.916-0.041-2.548-0.113-0.599-0.026-1.026 0.205-1.282 0.694-0.401 0.783-0.809 1.315-1.222 1.597-0.585 0.408-1.174 0.516-1.766 0.322-0.686-0.33-1.261-0.539-1.724-0.626-0.629-0.128-1.314-0.092-2.057 0.109-0.169 0.026-1.064 0.286-2.688 0.782-0.914 0.293-1.884 0.35-2.911 0.171-1.057-0.246-1.852-0.382-2.384-0.405-0.533-0.023-1.04-0.263-1.52-0.718-0.642-0.596-1.388-1.063-2.241-1.401-0.952-0.342-1.772-0.278-2.46 0.192-0.894 0.594-1.542 0.899-1.942 0.915-0.703 0.036-1.281-0.09-1.735-0.377-0.45-0.387-0.872-0.673-1.264-0.857-0.458-0.22-1.022-0.279-1.694-0.175l-0.86 0.212-1.926-0.585c-0.79-0.235-1.324-0.609-1.602-1.122-0.205-0.643-0.385-1.102-0.54-1.375-0.121-0.272-0.414-0.452-0.877-0.54-0.53-0.09-0.92-0.308-1.172-0.652-0.186-0.309-0.088-0.638 0.294-0.988-0.019 0.433 0.236 0.711 0.764 0.835 0.594 0.16 1.03 0.462 1.311 0.909 0.189 0.242 0.471 0.672 0.844 1.289 0.978 1.278 1.974 1.772 2.987 1.483 0.507-0.144 1.123-0.117 1.848 0.082 0.428 0.119 1.069 0.348 1.922 0.686 1.215 0.421 2.428 0.174 3.636-0.74 0.45-0.347 1.09-0.485 1.921-0.416 0.932 0.042 1.704 0.326 2.314 0.853 1.514 1.235 3.056 1.837 4.625 1.807 0.534-0.01 1.427-0.204 2.679-0.583 1.285-0.41 2.063-0.626 2.331-0.647 0.135-0.027 0.824 0.203 2.07 0.692 1.05 0.414 1.917 0.418 2.603 0.015 0.516-0.344 1.088-0.836 1.717-1.476 0.455-0.48 0.85-0.73 1.185-0.749 0.334-0.019 1.017 0.028 2.046 0.141 0.964 0.076 1.536-0.049 1.718-0.375 0.322-0.452 0.218-1.123-0.31-2.015z" style="clip-rule:evenodd;fill-rule:evenodd;fill:#f7cf6a"/><path d="m33.269 14.088c1.462 0.131 1.736 0.727 0.822 1.788-0.946 1.025-1.914 1.4-2.903 1.123-1.714-0.476-1.86-1.317-0.438-2.522 0.313-0.287 0.703-0.436 1.171-0.449 0.233-0.022 0.683-3e-3 1.348 0.06z" style="clip-rule:evenodd;fill-rule:evenodd;fill:#bd4d1e"/><path d="m28.776 12.688c0.978-0.224 1.744-0.189 2.298 0.102 0.521 0.29 0.594 0.527 0.219 0.711-0.342 0.185-0.797 0.298-1.366 0.34-0.639 0.105-1.154 0.065-1.546-0.119-0.393-0.185-0.5-0.389-0.323-0.615 0.141-0.194 0.38-0.334 0.718-0.419z" style="clip-rule:evenodd;fill-rule:evenodd;fill:#bd4d1e"/><path d="m30.664 11.871c0.608-0.173 1.308-0.142 2.098 0.093 0.792 0.202 0.733 0.399-0.176 0.593-0.438 0.081-0.917-7e-3 -1.44-0.264-0.522-0.257-0.683-0.398-0.482-0.422z" style="clip-rule:evenodd;fill-rule:evenodd;fill:#bd4d1e"/><path d="m47.58 13.02c0.299 0.013 0.852-0.029 1.657-0.127 0.605-0.106 0.938-0.092 0.999 0.044 0.218 0.343-0.338 0.853-1.67 1.527-1.605 0.863-2.942 0.888-4.007 0.073-0.613-0.46-0.496-0.855 0.353-1.185 0.783-0.332 1.672-0.443 2.668-0.332z" style="clip-rule:evenodd;fill-rule:evenodd;fill:#bd4d1e"/><path d="m51.035 16.376c0.633 0.028 1.372 0.278 2.219 0.749 0.88 0.472 0.946 0.842 0.201 1.11-1.188 0.448-2.067 0.709-2.638 0.784-0.975 0.157-1.735 7e-3 -2.282-0.452-0.578-0.493-0.457-0.988 0.366-1.485 0.723-0.501 1.434-0.737 2.134-0.706z" style="clip-rule:evenodd;fill-rule:evenodd;fill:#bd4d1e"/><path d="m44.344 10.374c-0.294-0.146-0.536-0.324-0.728-0.533-0.385-0.35-0.308-0.581 0.231-0.69 0.605-0.107 1.288-0.077 2.048 0.091 0.727 0.166 1.053 0.33 0.979 0.493-0.075 0.197-0.35 0.368-0.823 0.515-0.507 0.144-1.076 0.186-1.707 0.124z" style="clip-rule:evenodd;fill-rule:evenodd;fill:#bd4d1e"/><path d="m47.173 10.9c0.531 0.057 0.872 0.272 1.022 0.646 0.152 0.341 0.075 0.571-0.23 0.691s-0.774 0.149-1.405 0.088c-0.665-0.063-1.225-0.205-1.683-0.425-0.423-0.252-0.262-0.496 0.482-0.729 0.711-0.236 1.316-0.327 1.814-0.271z" style="clip-rule:evenodd;fill-rule:evenodd;fill:#bd4d1e"/><path d="m57.682 15.476c-0.189 0.492-0.752 0.784-1.691 0.876-0.903 0.06-1.546-0.119-1.928-0.536-0.509-0.556-0.779-0.868-0.81-0.937-0.089-0.238 0.201-0.392 0.872-0.462 0.637-0.072 1.415 0.063 2.334 0.403 0.854 0.306 1.262 0.524 1.223 0.656z" style="clip-rule:evenodd;fill-rule:evenodd;fill:#bd4d1e"/><path d="m37.908 15.545c-0.06-0.136 0.515-0.311 1.725-0.524 1.212-0.247 2.167-0.321 2.863-0.224 0.563 0.092 0.789 0.269 0.677 0.53-0.29 0.521-0.436 0.798-0.437 0.832 0.072 0.637-1.021 0.823-3.278 0.556-0.929-0.108-1.439-0.264-1.531-0.469 0.079-0.263 0.073-0.497-0.019-0.701z" style="clip-rule:evenodd;fill-rule:evenodd;fill:#bd4d1e"/><path d="m52.023 13.267c0.501-0.012 0.916 0.023 1.246 0.105 0.362 0.116 0.474 0.238 0.334 0.365-0.139 0.127-0.326 0.219-0.563 0.275l-0.302 0.037-1.242-0.206c-0.43-0.085-0.541-0.207-0.334-0.365 0.175-0.158 0.461-0.229 0.861-0.211z" style="clip-rule:evenodd;fill-rule:evenodd;fill:#bd4d1e"/><use transform="matrix(.999 .0442 .0442 -.999 30.05 7.7998)" y="-5.0500002" width="15.023" height="5.0599999" style="enable-background:new;opacity:.7188" xlink:href="#av"/><use transform="matrix(.999 .0442 .0442 -.999 46.25 7.2998)" y="-5.1550002" width="15.85" height="5.1560001" style="enable-background:new;opacity:.7188" xlink:href="#au"/><use transform="matrix(.999 .0442 .0442 -.999 28.25 14.8)" y="-6.5999999" width="19.01" height="6.6079998" style="enable-background:new;opacity:.7188" xlink:href="#at"/><path d="m44.64 9.336-0.023 1.65c-0.078 0.264-0.424 0.532-1.037 0.805-1.225 0.546-3.206 0.809-5.941 0.788-2.469-9e-3 -4.41-0.245-5.824-0.708l-1.419-0.714-0.055-2.155 3.376 0.6c2.384 0.406 3.895 0.573 4.532 0.501z" style="clip-rule:evenodd;fill-rule:evenodd;fill:url(#cd)"/><path d="m33.823 7.206 3.367-0.302 3.431 0.502c0.132 0.039 0.408 0.218 0.827 0.537l-0.353 1.186-0.363 0.284c-0.34-0.616-1.375-0.961-3.107-1.038-1.066-0.047-1.956 0.097-2.672 0.432l-0.723 0.519c-0.155-0.273-0.292-0.563-0.412-0.869-0.207-0.61-0.205-1.027 5e-3 -1.251z" style="clip-rule:evenodd;fill-rule:evenodd;fill:url(#ce)"/><path d="m37.972 9.592c1.37-0.04 2.193-0.17 2.469-0.391 0.313-0.287 0.225-0.557-0.264-0.813-0.621-0.294-1.582-0.454-2.881-0.478-0.801-2e-3 -1.575 0.147-2.323 0.448-0.813 0.298-0.876 0.578-0.187 0.842 0.721 0.299 1.783 0.43 3.186 0.392zm5.331-1.716c1.499 0.8 1.838 1.432 1.017 1.896-2.088 1.176-5.587 1.471-10.5 0.887-3.253-0.377-4.273-1.09-3.059-2.137 1.144-0.951 2.819-1.494 5.027-1.629 3.281-0.223 5.786 0.106 7.515 0.983z" style="clip-rule:evenodd;fill-rule:evenodd;fill:#ffeb38"/><g style="clip-rule:evenodd;fill-rule:evenodd;fill:#fff2ad"><polygon points="33.67 7.601 35.987 8.404 35.785 8.445 34.643 8.245 33.468 7.642"/><polygon points="35.077 8.614 32.045 8.129 32.758 7.86 34.643 8.245 35.329 8.575"/><polygon points="39.238 8.448 41.675 7.655 42.514 7.942 39.683 8.568"/><path d="m43.542 8.438 0.534 0.374-3.519 0.345c-0.029-0.102-0.173-0.241-0.432-0.419z"/><polygon points="40.443 9.502 40.499 9.354 44.477 9.931 44.269 10.122 44.167 10.167"/><path d="m34.304 9.13-3.857 0.079 0.471-0.479 3.698 0.114c-0.205 0.124-0.309 0.219-0.312 0.286z"/><polygon points="34.392 9.384 34.686 9.547 30.847 10.329 30.459 10.061"/><polygon points="37.709 11.333 37.459 11.321 37.169 9.958 37.469 9.971"/><polygon points="35.861 11.251 35.414 11.181 36.173 9.863 36.521 9.929"/><polygon points="38.874 9.883 40.268 11.195 39.614 11.267 38.373 9.911"/><polygon points="35.476 9.783 33.42 10.993 32.775 10.864 35.178 9.719"/><polygon points="38.193 8.301 39.588 7.313 40.136 7.386 38.591 8.369"/><polygon points="37.693 7.178 37.992 7.191 37.694 8.279 37.444 8.268"/><polygon points="36.693 8.285 36.44 7.223 36.792 7.188 36.942 8.296"/></g><path d="m54.419 10.02 6.262-0.123-0.225 1.691c-0.078 0.263-0.439 0.498-1.082 0.703-1.253 0.412-3.208 0.476-5.864 0.191-2.392-0.239-4.274-0.673-5.648-1.302l-1.315-0.809 0.197-2.193 3.262 0.945c2.307 0.603 3.779 0.902 4.413 0.897z" style="clip-rule:evenodd;fill-rule:evenodd;fill:url(#cf)"/><path d="m53.609 6.831 3.318 0.797 0.773 0.635-0.503 1.178-0.36 0.234c-0.272-0.646-1.253-1.089-2.944-1.331-1.028-0.146-1.915-0.085-2.661 0.182l-0.769 0.417c-0.122-0.273-0.225-0.578-0.31-0.915-0.139-0.64-0.087-1.055 0.154-1.245z" style="clip-rule:evenodd;fill-rule:evenodd;fill:url(#cg)"/><path d="m59.548 8.345c1.394 0.929 1.648 1.591 0.764 1.985-2.214 1.003-5.665 0.967-10.355-0.108-3.105-0.705-4.003-1.528-2.693-2.472 1.205-0.847 2.891-1.24 5.057-1.177 3.264 0.112 5.673 0.702 7.227 1.772zm-2.945 0.97c0.343-0.218 0.288-0.487-0.164-0.808-0.552-0.358-1.475-0.616-2.769-0.773-0.798-0.069-1.568-3e-3 -2.312 0.198-0.846 0.263-0.942 0.559-0.29 0.888 0.686 0.364 1.726 0.594 3.123 0.689 1.298 0.091 2.101 0.026 2.412-0.194z" style="clip-rule:evenodd;fill-rule:evenodd;fill:#ffeb38"/><g style="clip-rule:evenodd;fill-rule:evenodd;fill:#fff2ad"><polygon points="50.208 7.082 52.414 8.13 52.162 8.169 51.127 7.823 50.057 7.125"/><polygon points="51.506 8.29 48.59 7.46 49.301 7.242 51.127 7.823 51.761 8.201"/><polygon points="55.6 8.521 58.028 7.928 58.813 8.263 55.995 8.639"/><path d="m59.788 8.857 0.433 0.419-3.456 0.048c-0.059-0.17-0.185-0.326-0.379-0.468z"/><polygon points="56.6 9.666 56.706 9.521 60.518 10.491 60.259 10.679 60.156 10.725"/><polygon points="50.637 8.702 46.897 8.387 47.367 7.957 51 8.417"/><polygon points="50.727 8.956 51.017 9.169 47.146 9.548 46.811 9.233"/><polygon points="53.728 11.241 53.48 11.18 53.392 9.774 53.689 9.838"/><polygon points="51.938 10.961 51.491 10.892 52.397 9.631 52.745 9.696"/><polygon points="55.038 9.897 56.272 11.403 55.624 11.375 54.539 9.875"/><polygon points="51.705 9.45 49.606 10.508 48.964 10.329 51.46 9.339"/><polygon points="54.562 8.225 56.053 7.34 56.548 7.462 54.907 8.34"/><polygon points="54.163 7.056 54.461 7.12 54.064 8.153 53.814 8.142"/><polygon points="53.118 8.061 52.967 6.953 53.316 6.969 53.367 8.072"/></g><use transform="matrix(.999 .0442 .0442 -.999 48.3 6.5498)" y="-1.756" width="9.4029999" height="1.756" style="enable-background:new;opacity:.8398" xlink:href="#ax"/><use transform="matrix(.999 .0442 .0442 -.999 32.4 6.75)" x="-0.0040000002" y="-2.007" width="10.09" height="2.007" style="enable-background:new;opacity:.8398" xlink:href="#aw"/><path d="m50.538 16.304c-0.615-0.427-0.875-0.973-0.779-1.636 0.051-0.398 0.352-0.785 0.902-1.161 0.275-0.188 0.549-0.326 0.819-0.415-0.071 0.097-0.159 0.21-0.266 0.339-0.178 0.259-0.273 0.539-0.287 0.838z" style="clip-rule:evenodd;fill-rule:evenodd;fill:#fff"/><path d="m27.634 12.487c0.405-0.115 0.632 0.045 0.68 0.481 0.014 0.434-0.263 0.655-0.831 0.664-0.501 0.011-0.677-0.164-0.527-0.524 0.148-0.327 0.374-0.534 0.678-0.621z" style="clip-rule:evenodd;fill-rule:evenodd;fill:#fff"/><path d="m45.5 17.024-0.104 2.351c-0.098 0.359-0.515 0.725-1.25 1.095-1.533 0.703-3.968 0.992-7.303 0.868-3.036-0.098-5.413-0.473-7.129-1.124l-1.719-1.002 0.062-3.006 4.182 0.967c2.891 0.621 4.725 0.881 5.503 0.782z" style="clip-rule:evenodd;fill-rule:evenodd;fill:url(#ch)"/><path d="m41.143 17.463c-0.09-0.237-0.312-0.48-0.668-0.73-0.746-0.5-1.767-0.796-3.064-0.886-1.297-0.091-2.39 0.111-3.28 0.605l-0.934 0.759c-0.182-0.409-0.33-0.849-0.442-1.321-0.224-0.978-0.195-1.626 0.086-1.948l4.122-0.418c2.614 0.483 4.003 0.761 4.167 0.835 0.165 0.041 0.503 0.322 1.013 0.845l-0.531 1.828z" style="clip-rule:evenodd;fill-rule:evenodd;fill:url(#ci)"/><path d="m44.356 14.953c1.781 1.213 2.139 2.18 1.073 2.9-2.551 1.855-6.856 2.265-12.917 1.229-3.94-0.675-5.125-1.811-3.553-3.41 1.468-1.503 3.557-2.328 6.265-2.475 4.05-0.254 7.093 0.331 9.132 1.756zm-3.588 1.943c0.417-0.382 0.319-0.804-0.295-1.264-0.712-0.499-1.884-0.767-3.517-0.806-0.967-0.01-1.911 0.199-2.831 0.625-1.054 0.454-1.157 0.899-0.31 1.337 0.847 0.471 2.155 0.695 3.924 0.674 1.636-0.027 2.646-0.216 3.029-0.566z" style="clip-rule:evenodd;fill-rule:evenodd;fill:#ffeb38"/><g style="clip-rule:evenodd;fill-rule:evenodd;fill:#fff2ad"><polygon points="32.652 13.684 35.446 15.009 35.142 15.096 33.807 14.736 32.448 13.775"/><polygon points="34.33 15.36 30.614 14.495 31.533 14.085 33.807 14.736 34.636 15.223"/><path d="m39.442 15.186 3.004-1.168c0.329 0.115 0.673 0.264 1.032 0.447l-3.543 0.894z"/><path d="m44.695 15.218 0.575 0.576-4.327 0.509c-0.055-0.27-0.212-0.494-0.471-0.671z"/><path d="m40.93 16.603 4.762 0.961c-0.074 0.163-0.162 0.26-0.263 0.289l-0.104 0.095-4.556-1.102z"/><path d="m33.295 16.115-4.704-8e-3 0.581-0.675 4.595 0.203c-0.274 0.155-0.432 0.315-0.472 0.48z"/><polygon points="33.38 16.469 33.766 16.786 29.013 17.877 28.582 17.458"/><polygon points="37.345 19.597 37.045 19.584 36.838 17.473 37.19 17.438"/><polygon points="35.1 19.447 34.502 19.371 35.544 17.315 35.991 17.385"/><polygon points="38.843 17.411 40.502 19.486 39.699 19.551 38.291 17.437"/><polygon points="34.702 17.128 32.118 18.965 31.323 18.83 34.356 17.012"/><polygon points="38.102 14.926 39.921 13.405 40.568 13.484 38.599 14.999"/><polygon points="37.578 13.202 37.979 13.169 37.505 14.85 37.205 14.836"/><polygon points="36.354 14.849 36.077 13.185 36.529 13.155 36.653 14.862"/></g><use transform="matrix(.9989 .0442 .0442 -.9989 29.45 12.95)" x="-0.013" y="-4.1009998" width="14.113" height="4.0760002" style="enable-background:new;opacity:.8398" xlink:href="#az"/><path d="m70.188 18.121-0.151 2.295c-0.083 0.363-0.449 0.714-1.099 1.053-1.332 0.708-3.398 1.033-6.199 0.977-2.532-0.079-4.519-0.434-5.958-1.064l-1.459-0.966 0.13-2.947 3.466 0.854c2.444 0.575 3.985 0.81 4.623 0.705z" style="clip-rule:evenodd;fill-rule:evenodd;fill:url(#cj)"/><path d="m66.086 15.787c0.166 0.041 0.455 0.287 0.869 0.739l-0.474 1.63-0.366 0.385c-0.092-0.205-0.283-0.413-0.573-0.626-0.613-0.461-1.47-0.733-2.566-0.814-1.098-0.082-2.023 0.094-2.776 0.527l-0.782 0.716c-0.15-0.374-0.267-0.763-0.349-1.167-0.195-0.876-0.186-1.459 0.026-1.75l3.472-0.396c2.216 0.431 3.389 0.683 3.519 0.756z" style="clip-rule:evenodd;fill-rule:evenodd;fill:url(#ba)"/><path d="m65.593 16.766c-0.613-0.461-1.587-0.704-2.921-0.73-0.834-3e-3 -1.643 0.178-2.427 0.543-0.886 0.428-0.971 0.841-0.255 1.24 0.75 0.4 1.843 0.582 3.279 0.545 1.401-4e-3 2.261-0.184 2.576-0.537 0.35-0.35 0.265-0.704-0.252-1.061zm3.282-0.656c1.521 1.068 1.833 1.933 0.936 2.594-2.208 1.637-5.844 1.994-10.908 1.068-3.344-0.582-4.351-1.577-3.021-2.986 1.258-1.279 3.025-2.001 5.302-2.167 3.412-0.216 5.976 0.281 7.691 1.491z" style="clip-rule:evenodd;fill-rule:evenodd;fill:#ffeb38"/><g style="clip-rule:evenodd;fill-rule:evenodd;fill:#fff2ad"><polygon points="58.958 15.422 61.31 16.578 61.107 16.619 59.97 16.318 58.806 15.466"/><polygon points="60.395 16.888 57.274 16.149 58.041 15.782 59.97 16.318 60.651 16.749"/><polygon points="67.256 15.639 68.09 16.027 65.151 16.848 64.708 16.678"/><path d="m69.109 16.722 0.528 0.524-3.674 0.438c-0.056-0.236-0.197-0.425-0.425-0.569z"/><path d="m65.951 17.984 4.018 0.829c-0.073 0.13-0.144 0.21-0.212 0.241l-0.104 0.095-3.809-1.019z"/><path d="m59.517 17.499-3.957 0.075c0.146-0.26 0.305-0.47 0.479-0.629l3.847 0.17z"/><path d="m59.602 17.854c0.061 0.136 0.156 0.223 0.288 0.263l-3.996 0.974-0.385-0.367z"/><polygon points="62.933 20.603 62.633 20.59 62.465 18.73 62.767 18.694"/><polygon points="60.987 20.467 60.54 20.397 61.421 18.584 61.818 18.652"/><polygon points="64.17 18.656 65.539 20.519 64.885 20.589 63.719 18.686"/><polygon points="60.676 18.451 58.503 20.057 57.808 19.926 60.381 18.338"/><polygon points="63.565 16.477 65.128 15.095 65.673 15.219 64.013 16.547"/><polygon points="63.133 14.957 63.433 14.97 63.066 16.455 62.818 16.394"/><polygon points="62.067 16.411 61.831 14.949 62.233 14.917 62.317 16.422"/></g><use transform="matrix(.999 .0442 .0442 -.999 56.6 14.75)" x="-0.016000001" y="-3.3340001" width="9.0670004" height="3.3369999" style="enable-background:new;opacity:.8398" xlink:href="#ay"/><path d="m64.432 13.775c-0.189 0.492-0.752 0.784-1.691 0.876-0.903 0.06-1.546-0.119-1.928-0.536-0.509-0.556-0.779-0.868-0.81-0.937-0.089-0.238 0.201-0.392 0.872-0.462 0.637-0.072 1.415 0.063 2.334 0.403 0.854 0.307 1.262 0.525 1.223 0.656z" style="clip-rule:evenodd;fill-rule:evenodd;fill:#bd4d1e"/><path d="m67.45 15.05c-3.967 3.2-10.233 5.217-18.8 6.05-12.3 1.034-21.284-0.25-26.95-3.85z" style="clip-rule:evenodd;fill-opacity:.251;fill-rule:evenodd"/><path d="m65.038 5.844c2.696 1.419 4.046 3.33 4.048 5.732-0.021 3.371-3.868 5.871-11.539 7.5-6.677 1.455-14.229 1.944-22.658 1.47-6.388-0.36-11.048-1.679-13.982-3.955-2.587-1.991-3.171-3.935-1.751-5.83 1.293-1.757 2.703-3.119 4.229-4.084 1.721-1.108 4.066-2.042 7.037-2.804 7.723-1.966 15.296-2.373 22.719-1.223 5.439 0.801 9.405 1.866 11.897 3.194z" style="clip-rule:evenodd;fill-rule:evenodd;fill:#ebc76c"/><path d="m62.18 5.716c-3.826-1.305-7.885-2.198-12.176-2.682-2.605-0.303-4.938-0.429-6.998-0.376l2.622-0.137c3.501-0.049 6.698 0.197 9.591 0.741 2.994 0.573 5.441 1.235 7.342 1.988 0.916 0.361 1.973 0.883 3.17 1.566 0.614 0.34 0.934 0.777 0.956 1.31 0.012 0.267-0.029 0.485-0.121 0.656-0.045-0.265-0.276-0.605-0.695-1.021-0.802-0.801-2.032-1.483-3.691-2.045z" style="clip-rule:evenodd;fill-rule:evenodd;fill:#fadca0"/><path d="m68.203 11.964c0.33-0.848 0.242-2.112-0.264-3.792 0.777 1 1.16 2.135 1.146 3.404-0.021 3.371-3.868 5.871-11.539 7.5-6.677 1.455-14.229 1.944-22.658 1.47-5.586-0.327-9.885-1.395-12.899-3.201-2.637-1.588-3.779-3.324-3.426-5.208 0.397 1.484 1.436 2.757 3.116 3.82 2.126 1.344 5.132 2.183 9.016 2.517 13.828 1.143 22.628 0.967 26.402-0.529 1.706-0.674 3.405-1.498 5.099-2.471 1.397-0.86 2.345-1.352 2.84-1.473 1.089-0.28 1.764-0.493 2.024-0.637 0.523-0.289 0.904-0.756 1.143-1.4z" style="clip-rule:evenodd;fill-rule:evenodd;fill:#c99f48"/><path d="m65.02 15.954c2.208-1.429 3.547-2.888 4.018-4.376-0.022 3.371-3.869 5.871-11.54 7.5-6.644 1.452-14.18 1.941-22.608 1.468-3.779-0.205-6.989-0.768-9.631-1.689-2.372-0.833-4.151-1.875-5.339-3.125 1 0.758 2.165 1.458 3.494 2.103 1.463 0.671 2.714 1.051 3.752 1.141 0.066-3e-3 1.229 0.248 3.485 0.751 1.447 0.305 3.205 0.43 5.271 0.375 1.699-0.039 4.718-0.068 9.054-0.087 3.834-0.064 6.513-0.229 8.036-0.495 2.75-0.451 4.769-0.838 6.056-1.16 2.376-0.602 4.361-1.404 5.952-2.406z" style="clip-rule:evenodd;fill-rule:evenodd;fill:#a88334"/><path d="m60.329 5.745c3.188 1.198 4.906 2.358 5.153 3.482 0.25 1.157-0.832 2.371-3.246 3.642-2.577 1.378-5.954 2.39-10.13 3.036-3.048 0.498-6.307 0.754-9.776 0.769-4.002 0.038-7.751-0.252-11.247-0.87-5.613-0.96-8.313-2.847-8.1-5.659 0.06-0.937 1.215-2.003 3.466-3.201 1.893-0.982 3.862-1.75 5.907-2.305 2.937-0.76 6.271-1.186 10.004-1.279 1.901-0.015 4.474 0.075 7.719 0.27 3.579 0.215 6.996 0.92 10.25 2.115z" style="clip-rule:evenodd;fill-rule:evenodd;fill:#bd4d1e"/><path d="m41.3 18.32c2.375 0.132 4.149 0.29 5.325 0.473 1.68 0.262 4.543 0.139 8.592-0.368-1.385 0.393-2.992 0.629-4.824 0.707-3.396 0.146-5.697 0.194-6.899 0.146-2.572-0.057-5.028-0.152-7.369-0.285-3.246-0.228-5.558-0.462-6.937-0.704-1.277-0.212-2.338-0.45-3.184-0.714-1.017-0.357-1.93-0.668-2.742-0.934-1.894-0.586-2.939-1.626-3.136-3.119-0.093-0.597-0.174-0.943-0.245-1.041-0.072-0.13-0.223-0.14-0.451-0.031-0.326 0.181-0.322-0.103 0.013-0.851 0.303-0.714 0.732-1.199 1.289-1.457 0.229-0.11 0.343 0.235 0.344 1.036-0.015 0.434-0.054 1.086-0.116 1.957 0.02 0.466 0.204 0.875 0.553 1.228 0.211 0.258 0.608 0.575 1.191 0.95 0.206 0.125 0.599 0.358 1.181 0.7 0.444 0.249 0.821 0.482 1.131 0.702 0.482 0.347 2.198 0.69 5.148 1.031 3.318 0.358 5.46 0.517 6.426 0.476 0.967-0.042 2.536-9e-3 4.71 0.098z" style="clip-rule:evenodd;fill-rule:evenodd;fill:#fadca0"/><path d="m58.73 16.323c-0.796 0.901-1.545 1.317-2.249 1.247-0.569-0.042-0.6-0.375-0.093-0.997 0.509-0.589 1.044-0.945 1.606-1.069 1.289-0.289 1.534-0.016 0.736 0.819z" style="clip-rule:evenodd;fill-rule:evenodd;fill:#c99f48"/><path d="m53.952 16.928c0.6-0.025 0.856 0.147 0.772 0.518-0.051 0.369-0.344 0.532-0.88 0.488-0.501-0.012-0.709-0.187-0.623-0.524 0.054-0.303 0.299-0.464 0.731-0.482z" style="clip-rule:evenodd;fill-rule:evenodd;fill:#c99f48"/><path d="m67.054 10.862c0.855-0.303 1.113-0.114 0.775 0.567-0.371 0.683-0.807 1.036-1.306 1.057-0.4 0.017-0.493-0.212-0.279-0.689 0.211-0.509 0.482-0.821 0.81-0.935z" style="clip-rule:evenodd;fill-rule:evenodd;fill:#c99f48"/><path d="m67.368 8.847c0.403 0.05 0.479 0.28 0.23 0.691-0.282 0.413-0.543 0.574-0.78 0.483-0.202-0.058-0.229-0.273-0.078-0.647 0.118-0.372 0.327-0.548 0.628-0.527z" style="clip-rule:evenodd;fill-rule:evenodd;fill:#c99f48"/><path d="m26.464 15.452c0.638 0.106 1 0.374 1.085 0.805 0.117 0.395-0.177 0.541-0.882 0.438-0.673-0.138-0.984-0.392-0.934-0.761 0.018-0.368 0.262-0.529 0.731-0.482z" style="clip-rule:evenodd;fill-rule:evenodd;fill:#c99f48"/><path d="m62.567 7.751 1.131 0.703 0.529 0.678c-0.269-0.055-0.547 0.09-0.832 0.436-0.159 0.174-0.218 0.376-0.174 0.608 0.081 0.33 0.078 0.647-0.01 0.951-0.118 0.338-0.623 0.627-1.514 0.866-1.089 0.28-1.779 0.526-2.07 0.739l-2.145 1.343-2.479 0.557c-0.232 0.043-0.791 0.234-1.677 0.572-0.887 0.338-1.993 0.602-3.319 0.792-2.618 0.413-5.191 0.339-7.717-0.22-2.024-0.514-3.646-0.611-4.867-0.292-1.022 0.277-2.712 0.149-5.071-0.383-0.202-0.025-0.82-0.049-1.855-0.071-0.969-0.025-1.758-0.142-2.367-0.349-0.574-0.175-1.077-0.621-1.508-1.337-0.463-0.681-0.879-1.047-1.248-1.097-0.504-0.079-0.932-0.327-1.283-0.746l-0.377-0.634c0.813-0.502 1.677-0.973 2.592-1.412 0.686-0.33 1.042-0.579 1.069-0.747s-0.261-0.239-0.86-0.213c-0.5 0.021-0.858-0.18-1.077-0.604l-0.227-0.641c1.216-0.419 2.765-0.485 4.646-0.199l23.018-0.084c5.846 0.181 9.077 0.444 9.692 0.784z" style="clip-rule:evenodd;fill-rule:evenodd;fill:#8a3915"/><path d="m61.862 6.48c1.188 0.483 1.723 0.894 1.604 1.233-0.092 0.204-0.33 0.48-0.716 0.831-0.058 0.203 0.069 0.448 0.382 0.734 0.314 0.32 0.48 0.697 0.499 1.129 0.024 0.566-0.411 0.918-1.306 1.057-0.067 2e-3 -0.916 0.039-2.548 0.109-0.6 0.025-1.005 0.293-1.217 0.803-0.332 0.815-0.691 1.381-1.078 1.698-0.548 0.457-1.125 0.615-1.731 0.475-0.712-0.27-1.303-0.428-1.772-0.475-0.637-0.073-1.316 0.023-2.039 0.288-0.165 0.04-1.035 0.377-2.609 1.012-0.885 0.372-1.846 0.513-2.885 0.424-1.074-0.154-1.877-0.22-2.41-0.197s-1.058-0.171-1.576-0.583c-0.691-0.538-1.475-0.938-2.354-1.201-0.978-0.258-1.79-0.123-2.435 0.405-0.839 0.67-1.458 1.03-1.855 1.081-0.697 0.096-1.284 0.021-1.761-0.225-0.482-0.347-0.927-0.594-1.333-0.744-0.475-0.18-1.042-0.189-1.702-0.027l-0.839 0.286-1.97-0.416c-0.808-0.166-1.372-0.492-1.693-0.979-0.26-0.623-0.479-1.064-0.657-1.323-0.145-0.261-0.451-0.415-0.92-0.461-0.536-0.044-0.944-0.226-1.225-0.548-0.385-0.417-9e-3 -1.001 1.126-1.75 0.973-0.643 1.905-1.083 2.796-1.321 0.264-0.078 0.045-0.102-0.653-0.072-1.166 0.05-1.756-0.108-1.772-0.474-0.013-0.3 0.978-0.526 2.974-0.678 2.096-0.123 3.27-0.373 3.521-0.751 0.408-0.585 0.742-0.983 1-1.194 0.581-0.458 1.353-0.742 2.316-0.85 0.763-0.099 1.607-0.252 2.533-0.458 0.762-0.133 1.683-0.055 2.763 0.232 0.607 0.174 1.46 0.221 2.558 0.141 0.666-0.029 1.797-0.11 3.392-0.245 1.799-0.077 2.731-0.117 2.798-0.12 0.734 2e-3 1.674 0.128 2.819 0.38 1.009 0.19 1.904 0.452 2.686 0.786 0.886 0.429 1.515 0.686 1.885 0.77 0.169 0.059 0.908 0.178 2.218 0.355 0.97 0.124 2.033 0.412 3.186 0.863z" style="clip-rule:evenodd;fill-rule:evenodd;fill:url(#bb)"/><path d="m62.141 8.32c-0.037-0.099 0.073-0.253 0.331-0.465 0.387-0.316 0.627-0.544 0.722-0.681 0.312 0.253 0.338 0.502 0.082 0.747-0.353 0.349-0.527 0.556-0.524 0.623-0.058 0.203 0.069 0.448 0.382 0.734 0.314 0.32 0.48 0.697 0.499 1.129 0.024 0.566-0.411 0.918-1.306 1.057-0.067 2e-3 -0.916 0.039-2.548 0.109-0.6 0.025-1.005 0.293-1.217 0.803-0.332 0.815-0.691 1.381-1.078 1.698-0.548 0.457-1.125 0.615-1.731 0.475-0.712-0.27-1.303-0.428-1.772-0.475-0.637-0.073-1.316 0.023-2.039 0.288-0.165 0.04-1.035 0.377-2.609 1.012-0.885 0.372-1.846 0.513-2.885 0.424-1.074-0.154-1.877-0.22-2.41-0.197s-1.058-0.171-1.576-0.583c-0.691-0.538-1.475-0.938-2.354-1.201-0.978-0.258-1.79-0.123-2.435 0.405-0.839 0.67-1.458 1.03-1.855 1.081-0.697 0.096-1.284 0.021-1.761-0.225-0.482-0.347-0.927-0.594-1.333-0.744-0.475-0.18-1.042-0.189-1.702-0.027l-0.839 0.286-1.97-0.416c-0.808-0.166-1.372-0.492-1.693-0.979-0.26-0.623-0.479-1.064-0.657-1.323-0.145-0.261-0.451-0.415-0.92-0.461-0.536-0.044-0.944-0.226-1.225-0.548-0.212-0.291-0.144-0.628 0.207-1.01 0.019 0.433 0.297 0.688 0.833 0.765 0.605 0.107 1.067 0.371 1.385 0.791 0.209 0.225 0.527 0.628 0.953 1.21 1.085 1.188 2.12 1.594 3.105 1.218 0.492-0.188 1.108-0.214 1.848-0.079 0.437 0.082 1.095 0.254 1.974 0.516 1.248 0.314 2.434-0.037 3.558-1.053 0.417-0.385 1.043-0.579 1.877-0.581 0.932-0.04 1.726 0.176 2.379 0.649 1.616 1.098 3.203 1.564 4.765 1.397 0.531-0.056 1.403-0.327 2.617-0.813 1.246-0.521 2.001-0.803 2.267-0.848 0.132-0.039 0.839 0.131 2.123 0.51 1.082 0.321 1.946 0.25 2.594-0.211 0.483-0.388 1.011-0.928 1.582-1.619 0.411-0.518 0.783-0.801 1.115-0.849 0.331-0.047 1.015-0.06 2.05-0.038 0.967-8e-3 1.526-0.182 1.68-0.522 0.276-0.477 0.114-1.137-0.489-1.979z" style="clip-rule:evenodd;fill-rule:evenodd;fill:#f7cf6a"/><path d="m30.746 10.265c1.468 3e-3 1.793 0.574 0.974 1.709-0.854 1.104-1.785 1.562-2.794 1.371-1.749-0.326-1.968-1.15-0.656-2.474 0.287-0.313 0.663-0.496 1.127-0.549 0.231-0.043 0.681-0.062 1.349-0.057z" style="clip-rule:evenodd;fill-rule:evenodd;fill:#bd4d1e"/><path d="m26.148 9.26c0.954-0.308 1.72-0.34 2.298-0.098 0.544 0.244 0.638 0.473 0.28 0.689-0.325 0.214-0.768 0.366-1.332 0.457-0.627 0.16-1.144 0.166-1.551 0.017-0.407-0.15-0.532-0.344-0.375-0.584 0.125-0.207 0.352-0.367 0.68-0.481z" style="clip-rule:evenodd;fill-rule:evenodd;fill:#bd4d1e"/><path d="m27.958 8.282c0.591-0.226 1.291-0.256 2.098-0.09 0.807 0.132 0.765 0.334-0.124 0.606-0.429 0.119-0.915 0.072-1.458-0.138-0.542-0.21-0.714-0.337-0.516-0.378z" style="clip-rule:evenodd;fill-rule:evenodd;fill:#bd4d1e"/><path d="m44.91 7.957c0.299-0.013 0.846-0.103 1.64-0.271 0.594-0.159 0.927-0.173 0.999-0.042 0.247 0.323-0.263 0.878-1.53 1.667-1.525 1-2.854 1.14-3.985 0.421-0.651-0.406-0.568-0.81 0.249-1.211 0.749-0.401 1.625-0.588 2.627-0.564z" style="clip-rule:evenodd;fill-rule:evenodd;fill:#bd4d1e"/><path d="m48.644 11c0.633-0.027 1.392 0.158 2.275 0.553 0.918 0.394 1.017 0.757 0.297 1.088-1.145 0.549-1.997 0.886-2.559 1.01-0.958 0.241-1.729 0.158-2.313-0.251-0.619-0.44-0.541-0.944 0.236-1.511 0.676-0.563 1.364-0.859 2.064-0.889z" style="clip-rule:evenodd;fill-rule:evenodd;fill:#bd4d1e"/><path d="m41.456 5.602c-0.305-0.121-0.562-0.276-0.771-0.468-0.414-0.315-0.357-0.551 0.17-0.708 0.593-0.159 1.276-0.188 2.048-0.087 0.738 0.102 1.078 0.237 1.019 0.406-0.059 0.203-0.317 0.397-0.776 0.584-0.492 0.189-1.056 0.279-1.69 0.273z" style="clip-rule:evenodd;fill-rule:evenodd;fill:#bd4d1e"/><path d="m44.321 5.879c0.534 0.011 0.892 0.195 1.074 0.555 0.181 0.326 0.125 0.562-0.169 0.708s-0.759 0.216-1.393 0.21c-0.667-5e-3 -1.238-0.097-1.713-0.277-0.443-0.214-0.304-0.471 0.417-0.769 0.688-0.296 1.283-0.438 1.784-0.427z" style="clip-rule:evenodd;fill-rule:evenodd;fill:#bd4d1e"/><path d="m55.336 9.512c-0.146 0.507-0.681 0.847-1.608 1.02-0.895 0.139-1.55 0.016-1.967-0.366-0.556-0.51-0.852-0.797-0.888-0.863-0.11-0.229 0.166-0.408 0.828-0.536 0.628-0.127 1.415-0.061 2.36 0.199 0.877 0.229 1.302 0.411 1.275 0.546z" style="clip-rule:evenodd;fill-rule:evenodd;fill:#bd4d1e"/><path d="m35.495 11.313c-0.072-0.13 0.485-0.355 1.673-0.672 1.187-0.351 2.13-0.508 2.833-0.472 0.569 0.042 0.809 0.199 0.721 0.47-0.244 0.544-0.365 0.833-0.363 0.866 0.127 0.628-0.945 0.908-3.217 0.838-0.935-0.027-1.457-0.138-1.565-0.333 0.053-0.27 0.026-0.503-0.082-0.697z" style="clip-rule:evenodd;fill-rule:evenodd;fill:#bd4d1e"/><path d="m49.357 7.816c0.498-0.055 0.916-0.057 1.251-4e-3 0.371 0.084 0.492 0.196 0.365 0.335-0.128 0.139-0.307 0.247-0.536 0.323l-0.299 0.063-1.255-0.097c-0.436-0.048-0.557-0.159-0.364-0.334 0.16-0.174 0.439-0.269 0.838-0.286z" style="clip-rule:evenodd;fill-rule:evenodd;fill:#bd4d1e"/><path d="m41.661 4.542 0.121 1.646c-0.055 0.27-0.376 0.566-0.963 0.892-1.173 0.651-3.123 1.084-5.85 1.301-2.46 0.206-4.415 0.139-5.864-0.199l-1.476-0.587-0.242-2.142 3.416 0.304c2.41 0.197 3.93 0.232 4.558 0.105z" style="clip-rule:evenodd;fill-rule:evenodd;fill:url(#bc)"/><path d="m30.7 3.36 3.328-0.593 3.461 0.202c0.135 0.027 0.425 0.182 0.871 0.463l-0.248 1.211-0.337 0.315c-0.392-0.584-1.454-0.838-3.186-0.765-1.066 0.046-1.941 0.267-2.625 0.663l-0.674 0.581c-0.178-0.259-0.34-0.536-0.486-0.83-0.259-0.59-0.294-1.005-0.104-1.247z" style="clip-rule:evenodd;fill-rule:evenodd;fill:url(#be)"/><path d="m35.041 5.376c1.361-0.158 2.17-0.36 2.426-0.604 0.287-0.313 0.176-0.575-0.334-0.787-0.644-0.239-1.615-0.314-2.912-0.226-0.798 0.067-1.556 0.284-2.275 0.647-0.785 0.368-0.822 0.653-0.113 0.856 0.744 0.236 1.813 0.274 3.208 0.114zm5.161-2.172c1.563 0.667 1.956 1.267 1.178 1.801-1.977 1.352-5.438 1.951-10.382 1.795-3.273-0.093-4.351-0.714-3.232-1.863 1.056-1.046 2.678-1.733 4.866-2.06 3.247-0.506 5.771-0.398 7.57 0.327z" style="clip-rule:evenodd;fill-rule:evenodd;fill:#ffeb38"/><g style="clip-rule:evenodd;fill-rule:evenodd;fill:#fff2ad"><polygon points="30.603 3.414 32.98 4.013 32.783 4.072 31.627 3.971 30.405 3.473"/><polygon points="32.092 4.301 29.03 4.082 29.716 3.752 31.627 3.971 32.34 4.241"/><polygon points="36.223 3.774 38.583 2.772 39.442 2.986 36.677 3.855"/><path d="m40.51 3.39 0.565 0.326-3.475 0.65c-0.038-0.099-0.193-0.225-0.467-0.38z"/><polygon points="37.515 4.72 37.558 4.568 41.572 4.796 41.38 5.004 41.283 5.059"/><path d="m31.366 4.883-3.836 0.414 0.428-0.519 3.694-0.208c-0.194 0.142-0.289 0.246-0.286 0.313z"/><polygon points="31.477 5.128 31.783 5.265 28.027 6.377 27.617 6.145"/><polygon points="34.951 6.781 34.701 6.792 34.293 5.458 34.593 5.446"/><polygon points="33.102 6.86 32.65 6.83 33.292 5.451 33.644 5.486"/><polygon points="35.985 5.235 37.487 6.422 36.842 6.55 35.488 5.307"/><polygon points="32.59 5.431 30.648 6.815 29.994 6.743 32.289 5.394"/><polygon points="35.169 3.719 36.474 2.613 37.025 2.639 35.572 3.752"/><polygon points="34.573 2.644 34.873 2.631 34.67 3.741 34.42 3.751"/><polygon points="33.673 3.833 33.329 2.797 33.676 2.732 33.923 3.822"/></g><path d="m51.463 4.373 6.227-0.667-0.077 1.705c-0.055 0.269-0.394 0.534-1.017 0.794-1.212 0.519-3.154 0.752-5.825 0.7-2.403-0.03-4.316-0.299-5.74-0.805l-1.38-0.692 5e-3 -2.202 3.332 0.658c2.351 0.4 3.843 0.569 4.475 0.509z" style="clip-rule:evenodd;fill-rule:evenodd;fill:url(#bf)"/><path d="m50.379 1.267 3.375 0.506 0.824 0.565-0.398 1.218-0.338 0.264c-0.327-0.62-1.344-0.977-3.049-1.07-1.037-0.056-1.915 0.082-2.636 0.413l-0.729 0.482c-0.145-0.261-0.274-0.556-0.388-0.885-0.194-0.625-0.179-1.043 0.046-1.253z" style="clip-rule:evenodd;fill-rule:evenodd;fill:url(#bg)"/><path d="m56.427 2.259c1.469 0.805 1.78 1.442 0.933 1.912-2.118 1.192-5.56 1.456-10.325 0.792-3.155-0.433-4.121-1.175-2.898-2.228 1.127-0.949 2.772-1.487 4.936-1.613 3.261-0.173 5.712 0.206 7.354 1.137zm-2.851 1.222c0.323-0.247 0.245-0.511-0.233-0.791-0.581-0.309-1.522-0.485-2.825-0.529-0.801 1e-3 -1.563 0.133-2.285 0.397-0.82 0.336-0.891 0.639-0.212 0.91 0.714 0.303 1.771 0.441 3.171 0.415 1.3-0.021 2.094-0.155 2.384-0.402z" style="clip-rule:evenodd;fill-rule:evenodd;fill:#ffeb38"/><g style="clip-rule:evenodd;fill-rule:evenodd;fill:#fff2ad"><polygon points="47.034 1.459 49.322 2.313 49.075 2.373 48.014 2.119 46.887 1.516"/><polygon points="48.432 2.551 45.455 1.978 46.144 1.698 48.014 2.119 48.678 2.44"/><polygon points="52.53 2.426 54.898 1.624 55.71 1.889 52.935 2.508"/><path d="m56.732 2.396 0.467 0.38-3.438 0.348c-0.073-0.164-0.213-0.308-0.418-0.433z"/><polygon points="53.626 3.479 53.72 3.325 57.601 3.96 57.359 4.17 57.262 4.225"/><polygon points="47.602 3.037 43.849 3.047 44.279 2.579 47.938 2.722"/><polygon points="47.713 3.282 48.021 3.469 44.198 4.184 43.835 3.898"/><polygon points="50.901 5.298 50.65 5.259 50.439 3.866 50.742 3.903"/><polygon points="49.095 5.175 48.644 5.144 49.437 3.809 49.788 3.844"/><polygon points="52.091 3.846 53.451 5.238 52.802 5.266 51.591 3.867"/><polygon points="48.73 3.689 46.731 4.926 46.076 4.803 48.477 3.6"/><polygon points="51.471 2.221 52.879 1.209 53.383 1.288 51.824 2.305"/><polygon points="50.972 1.091 51.273 1.128 50.969 2.192 50.719 2.203"/><polygon points="50.018 2.183 49.771 1.092 50.12 1.077 50.268 2.172"/></g><path d="m63.116 8.879 0.049 2.3c-0.052 0.369-0.386 0.75-1.003 1.144-1.266 0.821-3.296 1.325-6.091 1.512-2.529 0.142-4.539-0.04-6.028-0.542l-1.537-0.835-0.126-2.948 3.526 0.549c2.484 0.361 4.04 0.461 4.667 0.3z" style="clip-rule:evenodd;fill-rule:evenodd;fill:url(#bh)"/><path d="m58.828 6.91c0.168 0.026 0.478 0.247 0.929 0.661l-0.329 1.666-0.332 0.415c-0.108-0.196-0.317-0.387-0.625-0.574-0.651-0.406-1.527-0.603-2.628-0.588-1.101 0.014-2.007 0.27-2.72 0.767l-0.718 0.781c-0.182-0.359-0.331-0.736-0.448-1.132-0.271-0.856-0.312-1.438-0.125-1.746l3.424-0.697c2.245 0.237 3.435 0.386 3.572 0.447z" style="clip-rule:evenodd;fill-rule:evenodd;fill:url(#bi)"/><path d="m58.421 7.929c-0.651-0.406-1.642-0.563-2.973-0.473-0.831 0.068-1.621 0.319-2.37 0.752-0.846 0.503-0.895 0.922-0.146 1.257 0.782 0.333 1.887 0.419 3.314 0.258 1.396-0.126 2.235-0.379 2.52-0.758 0.317-0.381 0.202-0.726-0.345-1.036zm3.213-0.939c1.607 0.932 1.994 1.766 1.158 2.503-2.058 1.823-5.648 2.494-10.774 2.013-3.382-0.289-4.472-1.193-3.269-2.713 1.143-1.383 2.84-2.257 5.093-2.62 3.381-0.512 5.978-0.239 7.792 0.817z" style="clip-rule:evenodd;fill-rule:evenodd;fill:#ffeb38"/><g style="clip-rule:evenodd;fill-rule:evenodd;fill:#fff2ad"><polygon points="51.718 6.814 54.16 7.761 53.962 7.819 52.803 7.619 51.569 6.871"/><polygon points="53.276 8.149 50.103 7.684 50.835 7.252 52.803 7.619 53.52 7.988"/><polygon points="60.003 6.309 60.867 6.623 58.011 7.696 57.555 7.565"/><path d="m61.944 7.227 0.571 0.476-3.622 0.756c-0.076-0.23-0.233-0.407-0.473-0.53z"/><path d="m58.907 8.758 4.074 0.477c-0.062 0.136-0.124 0.222-0.189 0.258l-0.096 0.104-3.883-0.685z"/><path d="m52.454 8.834-3.936 0.419c0.122-0.272 0.263-0.495 0.422-0.668l3.847-0.165z"/><path d="m52.569 9.18c0.072 0.13 0.176 0.209 0.311 0.237l-3.897 1.318-0.415-0.333z"/><polygon points="56.127 11.63 55.827 11.643 55.499 9.805 55.796 9.742"/><polygon points="54.177 11.664 53.726 11.633 54.445 9.75 54.848 9.783"/><polygon points="57.19 9.583 58.717 11.319 58.071 11.447 56.743 9.652"/><polygon points="53.691 9.683 51.667 11.471 50.963 11.401 53.388 9.595"/><polygon points="56.399 7.464 57.836 5.952 58.39 6.028 56.851 7.496"/><polygon points="55.836 5.987 56.136 5.975 55.899 7.486 55.648 7.447"/><polygon points="54.9 7.529 54.539 6.093 54.937 6.026 55.15 7.518"/></g><use transform="matrix(.9991 -.0428 -.0428 -.9991 49.6 6.5)" x="-0.016000001" y="-3.3340001" width="9.0670004" height="3.3369999" style="enable-background:new;opacity:.8398" xlink:href="#ay"/><use transform="matrix(.9991 -.0428 -.0428 -.9991 45.1 1.3999)" y="-1.756" width="9.4029999" height="1.756" style="enable-background:new;opacity:.8398" xlink:href="#ax"/><use transform="matrix(.9991 -.0428 -.0428 -.9991 29.25 3)" x="-0.0040000002" y="-2.007" width="10.09" height="2.007" style="enable-background:new;opacity:.8398" xlink:href="#aw"/><path d="m48.142 10.971c-0.649-0.373-0.956-0.893-0.917-1.562 0.016-0.402 0.281-0.813 0.798-1.236 0.258-0.211 0.518-0.373 0.779-0.484-0.063 0.103-0.141 0.223-0.234 0.36-0.155 0.273-0.227 0.561-0.214 0.86z" style="clip-rule:evenodd;fill-rule:evenodd;fill:#fff"/><path d="m24.993 9.159c0.394-0.15 0.633-0.01 0.719 0.42 0.052 0.431-0.205 0.676-0.77 0.733-0.499 0.055-0.688-0.104-0.571-0.476 0.119-0.338 0.327-0.564 0.622-0.677z" style="clip-rule:evenodd;fill-rule:evenodd;fill:#fff"/><path d="m43.55 12 0.1 2.35c-0.066 0.367-0.45 0.767-1.15 1.2-1.467 0.833-3.867 1.333-7.2 1.5-3.033 0.167-5.433 0-7.2-0.5l-1.8-0.85-0.2-3 4.25 0.6c2.933 0.367 4.783 0.467 5.55 0.3z" style="clip-rule:evenodd;fill-rule:evenodd;fill:url(#bj)"/><path d="m38.898 12.701c-0.11-0.229-0.353-0.452-0.729-0.669-0.786-0.433-1.829-0.639-3.129-0.617s-2.372 0.319-3.215 0.889l-0.865 0.837c-0.217-0.391-0.402-0.816-0.555-1.277-0.308-0.955-0.336-1.604-0.083-1.948l4.07-0.775c2.646 0.254 4.055 0.41 4.224 0.47 0.167 0.026 0.529 0.277 1.083 0.754l-0.37 1.868z" style="clip-rule:evenodd;fill-rule:evenodd;fill:url(#bk)"/><path d="m41.882 9.92c1.88 1.054 2.32 1.986 1.321 2.796-2.38 2.07-6.634 2.853-12.761 2.348-3.984-0.33-5.263-1.359-3.836-3.089 1.332-1.625 3.341-2.628 6.027-3.01 4.011-0.605 7.094-0.286 9.249 0.955zm-3.407 2.248c0.382-0.417 0.248-0.828-0.403-1.234-0.753-0.435-1.944-0.601-3.575-0.498-0.964 0.075-1.886 0.364-2.766 0.869-1.011 0.544-1.075 0.997-0.192 1.359 0.884 0.396 2.208 0.506 3.968 0.331 1.628-0.169 2.617-0.445 2.968-0.827z" style="clip-rule:evenodd;fill-rule:evenodd;fill:#ffeb38"/><g style="clip-rule:evenodd;fill-rule:evenodd;fill:#fff2ad"><polygon points="30.11 9.674 33.009 10.751 32.714 10.864 31.353 10.622 29.915 9.782"/><polygon points="31.927 11.198 28.151 10.658 29.031 10.17 31.353 10.622 32.221 11.035"/><path d="m37.006 10.58 2.891-1.425c0.337 0.085 0.693 0.204 1.066 0.355l-3.452 1.199z"/><path d="m42.242 10.155 0.623 0.524-4.266 0.883c-0.078-0.264-0.254-0.473-0.527-0.628z"/><path d="m38.612 11.862 4.828 0.544c-0.06 0.169-0.139 0.273-0.237 0.311l-0.096 0.104-4.634-0.702z"/><path d="m30.962 12.04-4.687 0.401 0.52-0.723 4.596-0.197c-0.26 0.178-0.402 0.351-0.429 0.519z"/><polygon points="31.078 12.385 31.49 12.668 26.85 14.167 26.383 13.787"/><polygon points="35.3 15.157 35 15.17 34.611 13.084 34.958 13.02"/><polygon points="33.05 15.203 32.448 15.179 33.307 13.04 33.759 13.071"/><polygon points="36.603 12.849 38.437 14.772 37.641 14.907 36.055 12.922"/><polygon points="32.452 12.927 30.038 14.982 29.234 14.917 32.098 12.842"/><polygon points="35.648 10.438 37.328 8.764 37.979 8.787 36.15 10.466"/><polygon points="34.976 8.765 35.374 8.698 35.046 10.414 34.747 10.426"/><polygon points="33.9 10.513 33.479 8.879 33.927 8.81 34.199 10.5"/></g><use transform="matrix(.9991 -.0428 -.0428 -.9991 27.05 9.2002)" x="-0.013" y="-4.1009998" width="14.113" height="4.0760002" style="enable-background:new;opacity:.8398" xlink:href="#az"/></g></g></svg>
