<?xml version="1.0" encoding="UTF-8"?>
<svg width="129.74mm" height="178.68mm" version="1.1" viewBox="0 0 129.74 178.68" xmlns="http://www.w3.org/2000/svg" xmlns:xlink="http://www.w3.org/1999/xlink"><defs><filter id="c"><feGaussianBlur stdDeviation="2.77"/></filter><filter id="b"><feGaussianBlur stdDeviation="3.843"/></filter><linearGradient id="a"><stop stop-color="#898989" offset="0"/><stop stop-color="#e6e6e6" offset=".5"/><stop stop-color="#a4a4a4" offset="1"/></linearGradient><linearGradient id="f" x1="172.58" x2="508.16" y1="354.41" y2="358.52" gradientUnits="userSpaceOnUse"><stop stop-color="#800000" offset="0"/><stop stop-color="#ff0c0c" offset=".5"/><stop stop-color="#800000" offset="1"/></linearGradient><linearGradient id="j" x1="152.48" x2="273.42" y1="441.55" y2="510.03" gradientUnits="userSpaceOnUse" spreadMethod="reflect" xlink:href="#a"/><linearGradient id="i" x1="45.442" x2="330.59" y1="450" y2="533.55" gradientTransform="matrix(1,0,0,-1,-2.3183,975.86)" gradientUnits="userSpaceOnUse" spreadMethod="reflect" xlink:href="#a"/><linearGradient id="h" x1="166.4" x2="300.03" y1="707.51" y2="740.38" gradientTransform="matrix(1,0,0,-1,-2.3183,975.86)" gradientUnits="userSpaceOnUse" spreadMethod="reflect" xlink:href="#a"/><linearGradient id="g" x1="266.33" x2="350.3" y1="456.72" y2="503.95" gradientUnits="userSpaceOnUse" spreadMethod="reflect" xlink:href="#a"/><radialGradient id="e" cx="-184.38" cy="586.54" r="73.397" gradientUnits="userSpaceOnUse"><stop stop-color="#fff" offset="0"/><stop stop-color="#cbcbcb" offset=".778"/><stop stop-color="#8c8c8c" offset="1"/></radialGradient><radialGradient id="d" cx="426.2" cy="518.42" r="29.133" gradientTransform="matrix(.9872 .68634 -.89224 1.2834 447.71 -433.28)" gradientUnits="userSpaceOnUse"><stop stop-color="#fff" offset="0"/><stop stop-color="#fff" stop-opacity="0" offset="1"/></radialGradient></defs><g transform="translate(-34.166 -40.892)"><g transform="matrix(.26458 0 0 .26458 4.9694 -7.7237)"><path d="m149.44 245.17v217.38c0.7477-0.0838 1.5104-0.125 2.2813-0.125h184.25v-217.25h-186.53zm227.38 0v217.25h185.38v-217.25zm-227.38 261v83.719c0 54.151 49.214 113.96 105.19 158.53 27.986 22.283 56.622 40.622 78.281 53.188 1.0775 0.6251 2.0367 1.1648 3.0625 1.75v-297.06h-184.25c-0.7708 0-1.5335-0.0412-2.2813-0.125zm227.38 0.125v296.69l1.9063-1.0938c21.618-12.505 50.228-30.832 78.219-53.156 55.981-44.649 105.25-104.7 105.25-158.84v-83.594h-185.38z" style="fill-rule:evenodd;fill:url(#f)"/><path d="m151.22 243.97v213.9c0.7403-0.084 1.4954-0.1253 2.2585-0.1253h3.1867v-208.3h177.23v-5.4822h-182.67zm225.11 0v217.78h5.4452v-212.3h178.08v-5.4822h-183.53zm-225.11 261.64v83.924c0 42.672 30.122 88.84 69.922 128.35-37.082-38.256-64.477-82.15-64.477-122.86v-83.924c0.7403 0.084 1.4954 0.1253 2.2585 0.1253h176.97v-5.4822h-182.42c-0.7631 0-1.5183-0.0413-2.2585-0.1253zm225.11 0.1253v297.42l1.8873-1.0964c1.1407-0.6681 2.3791-1.4292 3.558-2.1302v-288.71h178.08v-5.4822h-183.53z" style="fill-rule:evenodd;fill:#500;filter:url(#c)"/><path d="m115.32 206.4c-1.2972 0-2.3438 1.1498-2.3438 2.5625v376.28c0 145.1 234.73 261.53 240.5 261.91 5.7593 0.3775 240.53-116.81 240.53-261.91v-376.28c-1e-4 -1.4127-1.0778-2.5625-2.375-2.5625h-476.31zm31.812 34.125h186.53v217.25h-184.25c-0.7708 0-1.5335 0.0412-2.2813 0.125v-217.38zm227.38 0h185.38v217.25h-185.38zm-227.38 261c0.7477 0.0838 1.5104 0.125 2.2813 0.125h184.25v297.06c-1.0258-0.5852-1.985-1.1249-3.0625-1.75-21.659-12.566-50.295-30.904-78.281-53.188-55.973-44.567-105.19-104.38-105.19-158.53v-83.719zm227.38 0.125h185.38v83.594c0 54.145-49.269 114.19-105.25 158.84-27.99 22.324-56.601 40.651-78.219 53.156l-1.9063 1.0938v-296.69z" style="fill-rule:evenodd;fill:url(#i);stroke-width:4.6228;stroke:url(#h)"/><path d="m145.74 238.49v220.44c0.7502-0.0842 1.5154-0.1256 2.2888-0.1256h3.2294v-214.82h183.63v-5.4956h-189.15zm228.13 0v218.32h5.5183v-212.82h180.47v-5.4956h-185.99zm-228.13 262.28v84.13c0 42.777 30.526 89.057 70.859 128.66-37.58-38.35-65.341-82.352-65.341-123.16v-84.13c0.7502 0.0842 1.5154 0.1256 2.2888 0.1256h179.34v-5.4956h-184.86c-0.7734 0-1.5386-0.0414-2.2888-0.1256zm228.13 0.1256v298.14c0.6502-0.3733 1.245-0.7123 1.9126-1.0991 1.156-0.6697 2.411-1.4327 3.6057-2.1354v-289.41h180.47v-5.4956h-185.99z" style="fill-rule:evenodd;fill:url(#j)"/><path d="m409.42 432.73c11.097 12.816 17.849 29.511 17.906 47.781v0.2188c0 40.515-32.891 73.406-73.406 73.406-18.37 0-35.122-6.8024-48-17.969 13.461 15.524 33.292 25.375 55.438 25.375 40.515 0 73.406-32.891 73.406-73.406v-0.2188c-0.0688-22.045-9.8987-41.778-25.344-55.188z" style="fill-rule:evenodd;fill:#333;filter:url(#c)"/><path transform="translate(529.13,-120.46)" d="m-96.854 603.66a73.397 73.397 0 1 1-4e-4 -0.2292" style="fill-rule:evenodd;fill:#b3b3b3"/><path transform="matrix(.9285 0 0 .91956 516.96 -72.554)" d="m-96.854 603.66a73.397 73.397 0 1 1-4e-4 -0.2292" style="fill-rule:evenodd;fill:url(#e)"/><path d="m360.2 411.11c-40.515 0-73.406 32.891-73.406 73.406s32.891 73.406 73.406 73.406 73.375-32.891 73.375-73.406v-0.2188c-0.1263-40.434-32.94-73.188-73.375-73.188zm0 5.25c37.543 0 68.008 30.099 68.125 67.281v0.2188c0 37.256-30.507 67.5-68.125 67.5s-68.156-30.244-68.156-67.5 30.538-67.5 68.156-67.5z" style="fill-rule:evenodd;fill:#333"/><path d="m357.58 408.48c-40.515 0-73.406 32.891-73.406 73.406s32.891 73.406 73.406 73.406 73.375-32.891 73.375-73.406v-0.2188c-0.1263-40.434-32.94-73.188-73.375-73.188zm0 5.25c37.543 0 68.008 30.1 68.125 67.281v0.2188c0 37.256-30.507 67.5-68.125 67.5s-68.156-30.244-68.156-67.5 30.538-67.5 68.156-67.5z" style="fill-rule:evenodd;fill:url(#g)"/><path d="m413.43 487.31c12.331-1.6603 13.447 11.781 2.4909 28.404s-25.965 26.276-38.295 27.936-17.337-6.5934-6.3813-23.217c10.934-16.591 29.776-31.405 42.116-33.114" style="fill-rule:evenodd;fill:url(#d)"/><path transform="matrix(.25394 0 0 .24933 182.23 168.16)" d="m142.37 165.39-11.687-2.3095 10.472 68.417-19.23-66.593-9.7925 6.7845 2.3095-11.687-69.047 11.102 67.223-19.86-6.7845-9.7925 11.687 2.3095-9.842-65.897 18.6 64.073 9.7925-6.7845-2.3095 11.687 67.787-6.6923-65.963 15.45 6.7845 9.7925z" style="fill:#fff;filter:url(#b)"/><path transform="matrix(.25394 0 0 .24933 449.42 684.51)" d="m142.37 165.39-11.687-2.3095 10.472 68.417-19.23-66.593-9.7925 6.7845 2.3095-11.687-69.047 11.102 67.223-19.86-6.7845-9.7925 11.687 2.3095-9.842-65.897 18.6 64.073 9.7925-6.7845-2.3095 11.687 67.787-6.6923-65.963 15.45 6.7845 9.7925z" style="fill:#fff;filter:url(#b)"/><path transform="matrix(.25394 0 0 .24933 312.96 374.01)" d="m142.37 165.39-11.687-2.3095 10.472 68.417-19.23-66.593-9.7925 6.7845 2.3095-11.687-69.047 11.102 67.223-19.86-6.7845-9.7925 11.687 2.3095-9.842-65.897 18.6 64.073 9.7925-6.7845-2.3095 11.687 67.787-6.6923-65.963 15.45 6.7845 9.7925z" style="fill:#fff;filter:url(#b)"/></g></g></svg>
