<?xml version="1.0" encoding="UTF-8"?>
<svg width="88.096mm" height="65.704mm" version="1.1" viewBox="0 0 88.096 65.704" xmlns="http://www.w3.org/2000/svg" xmlns:xlink="http://www.w3.org/1999/xlink"><defs><linearGradient id="ad" x2="0" y1="164.78" y2="83.427" gradientUnits="userSpaceOnUse"><stop stop-color="#ff3600" offset=".191"/><stop stop-color="#ff9a7f" offset=".427"/><stop stop-color="#ff2d00" offset=".5337"/></linearGradient><linearGradient id="ac" x2="0" y1="75.87" y2="29.498" gradientUnits="userSpaceOnUse"><stop stop-color="#bf2200" offset=".0056"/><stop stop-color="#ff985f" offset=".5"/><stop stop-color="#bf3d00" offset=".9888"/></linearGradient><linearGradient id="ab" x2="0" y1="63.338" y2="33.278" gradientUnits="userSpaceOnUse"><stop stop-color="#ffd200" offset=".0056"/><stop stop-color="#f5ff1f" offset=".5"/><stop stop-color="#ffa400" offset=".9944"/></linearGradient><linearGradient id="aa" x2="0" y1="155.4" y2="110.85" gradientUnits="userSpaceOnUse"><stop stop-color="#9f0072" offset=".0056"/><stop stop-color="#ff9fe7" offset=".5056"/><stop stop-color="#cd3fff" offset="1"/></linearGradient><linearGradient id="z" x2="0" y1="156.58" y2="107.83" gradientUnits="userSpaceOnUse"><stop stop-color="#319f00" offset=".0056"/><stop stop-color="#18ff00" offset=".5056"/><stop stop-color="#19bf00" offset="1"/></linearGradient><linearGradient id="y" x1="90.139" x2="50.25" gradientUnits="userSpaceOnUse"><stop stop-color="#df9000" offset=".0056"/><stop stop-color="#f5ff1f" offset=".5"/><stop stop-color="#df9000" offset=".9888"/></linearGradient><linearGradient id="x" x1="73.111" x2="53.311" gradientUnits="userSpaceOnUse"><stop stop-color="#df9000" offset=".0056"/><stop stop-color="#f5ff1f" offset=".5"/><stop stop-color="#df9000" offset=".9888"/></linearGradient><linearGradient id="b" x2="0" y1="70.826" y2="26.078" gradientUnits="userSpaceOnUse"><stop stop-color="#757575" offset=".0056"/><stop stop-color="#fff" offset="1"/></linearGradient><linearGradient id="c" x2="0" y1="65.426" y2="32.018" gradientUnits="userSpaceOnUse"><stop stop-color="#757575" offset=".0056"/><stop stop-color="#fff" offset="1"/></linearGradient><linearGradient id="v" x2="0" y1="28.778" y2="9.4102" gradientUnits="userSpaceOnUse"><stop stop-color="#757575" offset=".0056"/><stop stop-color="#fff" offset="1"/></linearGradient><linearGradient id="u" x2="0" y1="26.726" y2="7.3579" gradientUnits="userSpaceOnUse"><stop stop-color="#757575" offset=".0056"/><stop stop-color="#fff" offset="1"/></linearGradient><linearGradient id="t" x2="0" y1="217.92" y2="198.55" gradientUnits="userSpaceOnUse"><stop stop-color="#757575" offset=".0056"/><stop stop-color="#fff" offset="1"/></linearGradient><linearGradient id="s" x2="0" y1="235.02" y2="215.65" gradientUnits="userSpaceOnUse"><stop stop-color="#757575" offset=".0056"/><stop stop-color="#fff" offset="1"/></linearGradient><linearGradient id="r" x2="0" y1="106.86" y2="87.494" gradientUnits="userSpaceOnUse"><stop stop-color="#757575" offset=".0056"/><stop stop-color="#fff" offset="1"/></linearGradient><linearGradient id="q" x2="0" y1="66.182" y2="46.814" gradientUnits="userSpaceOnUse"><stop stop-color="#757575" offset=".0056"/><stop stop-color="#fff" offset="1"/></linearGradient><linearGradient id="p" x2="0" y1="17.906" y2="11.822" gradientUnits="userSpaceOnUse"><stop stop-color="#757575" offset=".0056"/><stop stop-color="#fff" offset="1"/></linearGradient><linearGradient id="o" x2="0" y1="33.17" y2="27.05" gradientUnits="userSpaceOnUse"><stop stop-color="#757575" offset=".0056"/><stop stop-color="#fff" offset="1"/></linearGradient><linearGradient id="n" x2="0" y1="51.782" y2="45.698" gradientUnits="userSpaceOnUse"><stop stop-color="#757575" offset=".0056"/><stop stop-color="#fff" offset="1"/></linearGradient><linearGradient id="m" x2="0" y1="68.882" y2="62.798" gradientUnits="userSpaceOnUse"><stop stop-color="#757575" offset=".0056"/><stop stop-color="#fff" offset="1"/></linearGradient><linearGradient id="l" x2="0" y1="174.25" y2="168.17" gradientUnits="userSpaceOnUse"><stop stop-color="#757575" offset=".0056"/><stop stop-color="#fff" offset="1"/></linearGradient><linearGradient id="k" x2="0" y1="187.18" y2="181.06" gradientUnits="userSpaceOnUse"><stop stop-color="#757575" offset=".0056"/><stop stop-color="#fff" offset="1"/></linearGradient><linearGradient id="j" x2="0" y1="199.6" y2="193.48" gradientUnits="userSpaceOnUse"><stop stop-color="#757575" offset=".0056"/><stop stop-color="#fff" offset="1"/></linearGradient><linearGradient id="i" x2="0" y1="212.99" y2="206.87" gradientUnits="userSpaceOnUse"><stop stop-color="#757575" offset=".0056"/><stop stop-color="#fff" offset="1"/></linearGradient><linearGradient id="h" x2="0" y1="228.33" y2="222.24" gradientUnits="userSpaceOnUse"><stop stop-color="#757575" offset=".0056"/><stop stop-color="#fff" offset="1"/></linearGradient><linearGradient id="g" x2="0" y1="162.16" y2="156.07" gradientUnits="userSpaceOnUse"><stop stop-color="#757575" offset=".0056"/><stop stop-color="#fff" offset="1"/></linearGradient><linearGradient id="f" x2="0" y1="69.862" y2="32.109" gradientUnits="userSpaceOnUse"><stop stop-color="#757575" offset=".0056"/><stop stop-color="#fff" offset="1"/></linearGradient><linearGradient id="e" x2="0" y1="90.13" y2="52.377" gradientUnits="userSpaceOnUse"><stop stop-color="#757575" offset=".0056"/><stop stop-color="#fff" offset="1"/></linearGradient><linearGradient id="d" x2="0" y1="102.37" y2="64.63" gradientUnits="userSpaceOnUse"><stop stop-color="#757575" offset=".0056"/><stop stop-color="#fff" offset="1"/></linearGradient><linearGradient id="a" x2="0" y1="92.144" y2="77.487" gradientUnits="userSpaceOnUse"><stop stop-color="#757575" offset=".0056"/><stop stop-color="#fff" offset="1"/></linearGradient><radialGradient id="w" cx="282.85" cy="31.102" r="9.792" gradientTransform="matrix(-1,0,0,1,332.96,0)" gradientUnits="userSpaceOnUse"><stop stop-color="#00bf10" offset=".0056"/><stop stop-color="#0f9f00" offset=".809"/></radialGradient><linearGradient id="linearGradient1215" x2="0" y1="70.826" y2="26.078" gradientUnits="userSpaceOnUse" xlink:href="#b"/><linearGradient id="linearGradient1225" x2="0" y1="65.426" y2="32.018" gradientUnits="userSpaceOnUse" xlink:href="#c"/><linearGradient id="linearGradient1231" x2="0" y1="92.144" y2="77.487" gradientUnits="userSpaceOnUse" xlink:href="#a"/></defs><g transform="translate(-39.863 -113.71)"><g transform="matrix(.26458 0 0 .26458 39.863 113.71)"><path d="m180.57 83.426h10.728c2.736 3.24 3.96 7.56 3.96 13.5-0.035 5.904-3.42 14.724-4.176 21.456-0.612 6.552-0.612 12.492 0 17.964 0.756 5.508 3.42 10.512 3.96 14.436 0.576 3.637 0.612 5.761-0.468 7.92-1.08 2.196-3.492 4.104-5.58 5.148-1.872 0.972-3.816 1.152-5.832 0.684 1.08-2.34 1.98-4.464 2.556-6.768 0.721-2.268 1.332-4.464 1.152-6.732-0.18-2.376-1.008-5.04-2.34-7.703h-39.853v-18.648h39.853c1.152-5.94 2.196-10.872 3.276-15.372 1.188-4.464 2.844-8.064 3.023-11.196 0.108-3.24-0.612-5.832-2.304-7.92l-7.956-0.252c1e-3 -2.161 1e-3 -4.321 1e-3 -6.517z" style="fill-rule:evenodd;fill:url(#ad)"/><path d="m308.62 44.546c-6.516-0.036-14.652-0.576-25.236-1.62-10.439-1.116-21.888-2.7-37.403-4.896-15.552-2.34-37.477-8.568-54.937-8.532-17.388 0-34.163 3.348-48.384 8.532-13.967 5.076-23.508 17.064-34.992 21.96-11.375 4.824-22.211 7.092-32.939 6.948v8.928c10.729 0.108 21.564-2.052 32.939-6.912 11.484-4.896 21.025-16.884 34.992-21.96 14.221-5.184 30.996-8.532 48.384-8.532 17.46-0.036 39.385 6.192 54.937 8.532 15.516 2.124 26.964 3.744 37.403 4.86 10.584 1.008 18.721 1.692 25.236 1.656z" style="fill-rule:evenodd;fill:url(#ac)"/><path d="m332.96 48.326c-0.072-1.08-0.324-2.124-0.756-2.988-0.432-0.936-0.9-1.836-1.692-2.556-0.144-2.088-0.359-3.852-0.647-5.436-0.288-1.656-0.648-2.88-1.08-4.068h-3.276c-0.54 1.08-0.936 2.232-1.188 3.312-0.18 1.008-0.216 2.088-0.108 3.096h-16.848c-0.36 0.54-0.685 1.008-0.972 1.8-0.217 0.756-0.396 1.44-0.54 2.448v8.748c0.144 0.972 0.323 1.656 0.54 2.448 0.287 0.684 0.611 1.296 0.972 1.836h16.848c-0.107 0.972-0.071 2.052 0.108 3.096 0.252 1.08 0.647 2.124 1.188 3.276h3.276c0.432-1.152 0.792-2.448 1.08-4.032 0.288-1.62 0.504-3.384 0.647-5.436 0.792-0.756 1.261-1.656 1.692-2.556s0.684-1.944 0.756-2.988z" style="fill-rule:evenodd;fill:url(#ab)"/><path d="m92.227 110.86h24.48c1.08-0.036 2.088 0 3.023 0.252 1.008 0.144 2.016 0.576 2.592 1.152 0.648 0.54 0.9 1.368 0.9 2.34h8.893c1.332-0.18 2.447-0.072 3.49 0.468 1.117 0.396 2.232 1.476 2.773 2.556 0.576 1.044 0.863 2.412 0.719 3.96h11.881c-0.684 1.98-1.225 4.284-1.619 6.768-0.289 2.376-1.045 5.004-0.721 8.172 0.359 3.097 1.225 6.66 2.592 10.692h-10.512c0 2.304-0.469 3.888-1.404 4.896-0.936 0.937-2.123 1.296-3.961 0.937h-12.348c0.252 0.864 0.145 1.439-0.467 1.872-0.541 0.396-1.477 0.504-2.809 0.468h-29.124c-3.311-5.796-5.004-12.348-4.68-19.8 0.325-7.525 2.378-15.589 6.302-24.733z" style="fill-rule:evenodd;fill:url(#aa)"/><path d="m95.719 107.83c-2.268 7.164-3.744 13.356-4.428 19.116-0.576 5.58-0.324 9.648 0.467 14.688 0.9 4.968 2.125 9.9 4.213 14.939h-44.282c-2.088-5.039-3.311-9.972-4.211-14.939-0.793-5.04-1.045-9.108-0.469-14.688 0.686-5.76 2.16-11.952 4.428-19.116z" style="fill-rule:evenodd;fill:url(#z)"/><path d="m90.139 60.638c-2.664 2.448-4.068 5.508-4.213 9.324-0.072 3.744 1.045 8.172 3.492 13.284h-11.16v23.112c1.225 0.216 2.305 0.648 3.24 1.152 1.045 0.504 1.764 1.08 2.557 1.872v3.24c-2.16-1.476-4.465-2.304-7.201-3.024-2.592-0.72-5.867-0.9-8.855-0.936-2.916-0.18-5.867-0.072-8.855 0.468-2.953 0.54-5.867 1.548-8.893 3.024v-3.312c0.756-0.54 1.512-1.152 2.557-1.548 1.08-0.468 2.16-0.864 3.527-1.188l-0.18-45.468z" style="fill-rule:evenodd;fill:url(#y)"/><path d="m72.643 152.26c-3.672 2.016-6.912 3.023-10.26 3.023-3.205 0-6.229-1.008-9.072-3.023v28.08c0.107 1.296 0.324 2.34 0.936 3.132 0.648 0.792 1.404 1.296 2.557 1.656v10.008h11.412v-10.477c1.764-0.107 2.879-0.504 3.744-1.188 0.9-0.72 1.152-1.729 1.152-3.024z" style="fill-rule:evenodd;fill:url(#x)"/><path d="m64.938 17.258c-2.807-0.972-4.463-1.692-7.199-2.16-2.736-0.576-6.049-1.224-9.107-0.828-2.916 0.432-6.121 1.476-8.496 3.276-2.197 1.656-3.924 4.5-5.041 7.164-1.043 2.592-1.656 5.616-1.404 8.676 0.469 3.06 1.621 6.984 3.457 9.432 1.908 2.304 4.393 3.708 7.451 4.356 3.205 0.576 7.092 0.252 10.836-0.828 3.744-1.224 7.705-3.924 11.449-5.868 3.959-2.016 8.387-4.248 11.484-5.868 3.131-1.764 5.939-2.52 6.875-4.212 0.936-1.764 0.611-4.608-1.115-6.156-1.693-1.656-5.725-2.34-9.037-3.456-3.241-1.296-7.128-2.52-10.153-3.528z" style="fill-rule:evenodd;fill:#0f0"/><path d="m50.105 21.31c-5.404 0-9.791 4.387-9.791 9.792s4.387 9.792 9.791 9.792c5.406 0 9.793-4.387 9.793-9.792s-4.386-9.792-9.793-9.792" style="fill-rule:evenodd;fill:url(#w)"/><path d="m331.27 46.958c-0.072-2.556-0.072-4.968-0.145-7.092 0.036-2.232 0.036-4.176 0-5.976 0.145-0.648 0.036-1.26-0.324-1.692-0.288-0.54-0.72-1.044-1.691-1.224-0.937-0.252-2.269-0.36-3.996-0.18h-32.292v-3.06c0.144-1.008-0.252-1.728-0.792-2.16-0.504-0.432-1.548-0.684-2.736-0.612h-19.728v-12.42c0.18-2.304 0.107-3.996-0.612-5.22-0.684-1.224-1.62-1.8-3.204-2.16-1.404-0.432-3.204-0.684-5.4-0.612h-32.292c-0.216-1.152-0.684-2.124-1.548-2.772-0.792-0.756-1.548-0.936-3.384-1.224-1.8-0.324-4.32-0.432-7.56-0.468h-197.24c-1.908-0.144-3.492-0.144-4.607 0.288-1.008 0.18-1.729 0.576-2.16 1.872-0.469 1.44-0.576 3.456-0.469 6.444h-4.752c-1.476 0.036-2.664 0.396-3.707 0.936-0.973 0.432-1.836 1.152-2.305 2.304-0.396 1.188-0.396 2.628-0.145 4.608v52.92l8.461 12.168v7.668l16.309 16.308c1.26 0.936 2.23 2.268 3.059 3.996 0.865 1.548 1.584 3.42 2.016 6.156 0.541 2.664 1.549 5.508 0.938 10.333-0.613 4.823-2.377 11.808-4.32 18.611-1.691 6.769-4.68 15.013-6.48 21.672-1.801 6.48-3.133 10.837-4.141 17.244-0.898 6.372-1.691 13.896-1.836 20.772-0.143 6.768-0.936 13.607 1.08 19.691 2.34 5.977 7.164 12.456 11.844 16.381 4.645 3.815 6.445 5.472 15.697 6.768 9.504 1.224 28.764 0.756 40.139 0.936 11.377 0.145 19.584 0.288 27.254 0 7.668-0.396 14.326-0.792 18.611-2.304 4.428-1.584 7.127-3.492 7.523-7.092 0.432-3.708-3.889-8.604-4.896-15.084-0.898-6.552-0.611-14.184-0.646-24.012 0.18-10.08 0.684-27.828 0.936-35.208s0.359-10.116 0.324-8.604c2.051 0.108 3.635 0 4.752-0.468 1.188-0.468 1.908-1.188 2.16-2.16v-36.792c0.215-1.8 0.828-3.348 1.691-4.5 0.936-1.26 1.764-2.088 3.852-2.772 2.197-0.756 5.221-1.26 9.072-1.512h79.236c2.916 0.108 5.508-0.144 8.315-0.756 2.772-0.576 5.94-1.476 8.136-3.096 2.341-1.872 4.32-5.256 5.544-7.524 1.297-2.304 1.729-4.356 1.692-6.156 3.384-0.432 6.156-1.152 8.172-2.16 2.088-1.116 3.096-2.304 4.141-4.14 1.115-1.908 1.836-4.824 2.304-6.804 0.504-2.016 0.612-3.708 0.468-5.22h16.632c1.404 0.216 2.376-0.036 3.061-0.9 0.647-0.972 1.008-2.268 0.936-4.32h33.517c1.836 0.216 3.132 0 4.031-0.936 0.9-0.972 1.404-2.412 1.368-4.464 0.033-4.716 0.069-9.468 0.142-14.22z" style="fill:#8b8b8b;opacity:.45"/><path d="m289.44 26.078c0.684 4.464 1.224 8.604 1.476 12.852 0.288 4.176 0.432 7.848 0.288 11.988 0 3.996-0.18 8.424-0.54 11.88-0.216 3.312-0.612 5.94-1.044 8.028h-2.088c1.08-8.172 1.728-15.192 2.088-21.06 0.396-5.868 0.252-10.44 0-14.256-0.145-3.96-0.576-7.056-1.152-9.432z" style="fill-rule:evenodd;fill:url(#linearGradient1215);opacity:.55"/><path d="m286.02 26.078c0.756 4.464 1.26 8.604 1.512 12.852 0.324 4.176 0.359 7.848 0.252 11.988-0.036 3.996-0.216 8.424-0.54 11.88-0.216 3.312-0.612 5.94-1.044 8.028h-2.088c1.08-8.172 1.728-15.192 2.088-21.06 0.288-5.868 0.288-10.44 0-14.256-0.18-3.96-0.504-7.056-1.116-9.432z" style="fill-rule:evenodd;fill:url(#linearGradient1215);opacity:.55"/><path d="m281.91 26.078c0.756 4.464 1.26 8.604 1.512 12.852 0.324 4.176 0.36 7.848 0.252 11.988-0.035 3.996-0.216 8.424-0.54 11.88-0.216 3.312-0.611 5.94-1.044 8.028h-2.088c1.08-8.172 1.729-15.192 2.088-21.06 0.288-5.868 0.288-10.44 0-14.256-0.18-3.96-0.504-7.056-1.115-9.432z" style="fill-rule:evenodd;fill:url(#linearGradient1215);opacity:.55"/><path d="m277.81 26.078c0.684 4.464 1.224 8.604 1.476 12.852 0.288 4.176 0.432 7.848 0.288 11.988 0 3.996-0.18 8.424-0.54 11.88-0.216 3.312-0.612 5.94-1.044 8.028h-2.088c1.08-8.172 1.728-15.192 2.088-21.06 0.288-5.868 0.288-10.44 0-14.256-0.18-3.96-0.504-7.056-1.116-9.432z" style="fill-rule:evenodd;fill:url(#linearGradient1215);opacity:.55"/><path d="m273.02 26.078c0.684 4.464 1.224 8.604 1.476 12.852 0.324 4.176 0.36 7.848 0.252 11.988 0 3.996-0.216 8.424-0.504 11.88-0.216 3.312-0.612 5.94-1.044 8.028h-2.124c1.044-8.172 1.8-15.192 2.124-21.06 0.36-5.868 0.36-10.44 0-14.256-0.145-3.96-0.576-7.056-1.152-9.432z" style="fill-rule:evenodd;fill:url(#linearGradient1215);opacity:.55"/><path d="m302.9 32.018c0.684 3.348 1.224 6.408 1.476 9.576 0.288 3.06 0.433 5.904 0.288 8.964 0 2.988-0.18 6.264-0.54 8.856-0.216 2.52-0.612 4.428-1.044 6.012h-2.088c1.08-6.192 1.728-11.304 2.088-15.732 0.396-4.536 0.252-7.668 0-10.656-0.144-2.952-0.576-5.292-1.152-7.02z" style="fill-rule:evenodd;fill:url(#linearGradient1225);opacity:.55"/><path d="m306.21 32.018c0.756 3.348 1.26 6.408 1.513 9.576 0.323 3.06 0.359 5.904 0.252 8.964-0.036 2.988-0.217 6.264-0.54 8.856-0.217 2.52-0.612 4.428-1.044 6.012h-2.089c1.08-6.192 1.729-11.304 2.089-15.732 0.287-4.536 0.287-7.668 0-10.656-0.181-2.952-0.505-5.292-1.116-7.02z" style="fill-rule:evenodd;fill:url(#linearGradient1225);opacity:.55"/><path d="m309.81 32.018c0.684 3.348 1.224 6.408 1.476 9.576 0.288 3.06 0.432 5.904 0.288 8.964 0 2.988-0.18 6.264-0.54 8.856-0.216 2.52-0.612 4.428-1.044 6.012h-2.088c1.08-6.192 1.728-11.304 2.088-15.732 0.396-4.536 0.252-7.668 0-10.656-0.144-2.952-0.576-5.292-1.152-7.02z" style="fill-rule:evenodd;fill:url(#linearGradient1225);opacity:.55"/><path d="m247.96 9.41c5.346 0 9.685 4.338 9.685 9.684 0 5.345-4.339 9.684-9.685 9.684s-9.684-4.339-9.684-9.684 4.338-9.684 9.684-9.684zm0 2.664c3.875 0 7.021 3.145 7.021 7.02s-3.146 7.02-7.021 7.02-7.02-3.145-7.02-7.02 3.145-7.02 7.02-7.02z" style="fill-rule:evenodd;fill:url(#v);opacity:.55"/><path d="m24.223 7.358c5.346 0 9.684 4.339 9.684 9.684s-4.338 9.684-9.684 9.684-9.684-4.338-9.684-9.684 4.338-9.684 9.684-9.684zm0 2.664c3.875 0 7.02 3.145 7.02 7.02s-3.145 7.02-7.02 7.02-7.02-3.145-7.02-7.02 3.145-7.02 7.02-7.02z" style="fill-rule:evenodd;fill:url(#u);opacity:.55"/><path d="m35.598 198.55c5.346 0 9.686 4.338 9.686 9.684s-4.34 9.685-9.686 9.685-9.684-4.339-9.684-9.685 4.338-9.684 9.684-9.684zm0 2.664c3.875 0 7.021 3.145 7.021 7.02s-3.146 7.021-7.021 7.021-7.02-3.146-7.02-7.021 3.145-7.02 7.02-7.02z" style="fill-rule:evenodd;fill:url(#t);opacity:.55"/><path d="m107.64 215.65c5.346 0 9.684 4.339 9.684 9.685s-4.338 9.684-9.684 9.684-9.684-4.338-9.684-9.684 4.338-9.685 9.684-9.685zm0 2.664c3.875 0 7.02 3.146 7.02 7.021s-3.145 7.02-7.02 7.02-7.02-3.145-7.02-7.02 3.145-7.021 7.02-7.021z" style="fill-rule:evenodd;fill:url(#s);opacity:.55"/><path d="m111.7 87.494c5.346 0 9.684 4.338 9.684 9.684s-4.338 9.684-9.684 9.684-9.686-4.338-9.686-9.684 4.34-9.684 9.686-9.684zm0 2.664c3.875 0 7.02 3.145 7.02 7.02s-3.145 7.02-7.02 7.02-7.021-3.145-7.021-7.02 3.146-7.02 7.021-7.02z" style="fill-rule:evenodd;fill:url(#r);opacity:.55"/><path d="m183.7 46.814c5.346 0 9.684 4.338 9.684 9.684s-4.338 9.684-9.684 9.684-9.684-4.338-9.684-9.684 4.338-9.684 9.684-9.684zm0 2.664c3.875 0 7.021 3.145 7.021 7.02s-3.146 7.02-7.021 7.02-7.02-3.145-7.02-7.02 3.145-7.02 7.02-7.02z" style="fill-rule:evenodd;fill:url(#q);opacity:.55"/><path d="m233.02 11.822c1.116 0.756 1.728 1.656 1.836 2.7 0.18 1.008-0.252 2.088-1.152 3.384h-135.32c-0.865-1.296-1.26-2.376-1.188-3.384 0.143-1.044 0.719-1.944 1.871-2.7z" style="fill-rule:evenodd;fill:url(#p);opacity:.55"/><path d="m233.02 27.05c1.116 0.72 1.728 1.764 1.836 2.736 0.18 0.936-0.252 2.196-1.152 3.384h-135.32c-0.865-1.188-1.26-2.448-1.188-3.384 0.143-0.972 0.719-2.016 1.871-2.736z" style="fill-rule:evenodd;fill:url(#o);opacity:.55"/><path d="m233.02 45.698c1.116 0.756 1.728 1.656 1.836 2.7 0.18 1.008-0.252 2.088-1.152 3.384h-135.32c-0.865-1.296-1.26-2.376-1.188-3.384 0.143-1.044 0.719-1.944 1.871-2.7z" style="fill-rule:evenodd;fill:url(#n);opacity:.55"/><path d="m233.02 62.798c1.116 0.756 1.728 1.656 1.836 2.7 0.18 1.008-0.252 2.088-1.152 3.384h-135.32c-0.865-1.296-1.26-2.376-1.188-3.384 0.143-1.044 0.719-1.944 1.871-2.7z" style="fill-rule:evenodd;fill:url(#m);opacity:.55"/><path d="m111.78 168.17c1.188 0.756 1.764 1.655 1.871 2.699 0.107 1.009-0.287 2.089-1.188 3.385h-75.312c-0.863-1.296-1.297-2.376-1.152-3.385 0.145-1.044 0.756-1.943 1.836-2.699z" style="fill-rule:evenodd;fill:url(#l);opacity:.55"/><path d="m108.35 181.06c1.189 0.72 1.766 1.764 1.873 2.736 0.107 0.936-0.289 2.195-1.188 3.384h-75.312c-0.863-1.188-1.26-2.448-1.188-3.384 0.143-0.973 0.719-2.017 1.871-2.736z" style="fill-rule:evenodd;fill:url(#k);opacity:.55"/><path d="m105.73 193.48c1.188 0.756 1.764 1.656 1.871 2.7 0.109 1.08-0.287 2.088-1.188 3.42h-75.275c-0.865-1.332-1.26-2.34-1.188-3.42 0.143-1.044 0.756-1.944 1.836-2.7z" style="fill-rule:evenodd;fill:url(#j);opacity:.55"/><path d="m107.38 206.87c1.115 0.721 1.729 1.765 1.836 2.736 0.18 0.937-0.252 2.196-1.152 3.384h-75.313c-0.863-1.188-1.26-2.447-1.188-3.384 0.145-0.972 0.721-2.016 1.871-2.736z" style="fill-rule:evenodd;fill:url(#i);opacity:.55"/><path d="m110.98 222.24c1.115 0.757 1.729 1.656 1.836 2.7 0.107 1.008-0.287 2.088-1.188 3.384h-75.276c-0.863-1.296-1.26-2.376-1.188-3.384 0.145-1.044 0.721-1.943 1.873-2.7z" style="fill-rule:evenodd;fill:url(#h);opacity:.55"/><path d="m115.88 156.07c1.188 0.757 1.764 1.656 1.871 2.7 0.109 1.008-0.287 2.088-1.188 3.384h-75.312c-0.863-1.296-1.26-2.376-1.188-3.384 0.145-1.044 0.721-1.943 1.871-2.7z" style="fill-rule:evenodd;fill:url(#g);opacity:.55"/><path d="m13.314 67.982c-0.756 1.152-1.656 1.728-2.699 1.872-1.01 0.072-2.088-0.324-3.385-1.188v-35.352c1.297-0.9 2.375-1.296 3.385-1.188 1.043 0.108 1.943 0.684 2.699 1.872z" style="fill-rule:evenodd;fill:url(#f);opacity:.55"/><path d="m24.438 88.25c-0.756 1.152-1.654 1.728-2.699 1.872-1.08 0.072-2.088-0.324-3.42-1.188v-35.352c1.332-0.9 2.34-1.296 3.42-1.188 1.045 0.108 1.943 0.684 2.699 1.872z" style="fill-rule:evenodd;fill:url(#e);opacity:.55"/><path d="m39.775 100.49c-0.758 1.152-1.656 1.728-2.701 1.872-1.008 0.072-2.088-0.324-3.385-1.188v-35.352c1.297-0.9 2.377-1.332 3.385-1.152 1.045 0.108 1.943 0.72 2.701 1.836z" style="fill-rule:evenodd;fill:url(#d);opacity:.55"/><path d="m231.91 91.418c-0.756 0.396-1.656 0.684-2.7 0.72-1.008 0.036-2.088-0.108-3.384-0.432v-13.752c1.296-0.396 2.376-0.54 3.384-0.432 1.044 0 1.944 0.288 2.7 0.72z" style="fill-rule:evenodd;fill:url(#linearGradient1231);opacity:.55"/><path d="m221.32 91.418c-0.756 0.396-1.656 0.684-2.7 0.72-1.008 0.036-2.088-0.108-3.384-0.432v-13.752c1.296-0.396 2.376-0.54 3.384-0.432 1.044 0 1.944 0.288 2.7 0.72z" style="fill-rule:evenodd;fill:url(#linearGradient1231);opacity:.55"/><path d="m211.57 91.418c-0.756 0.396-1.656 0.684-2.7 0.72-1.008 0.036-2.088-0.108-3.384-0.432v-13.752c1.296-0.396 2.376-0.54 3.384-0.432 1.044 0 1.944 0.288 2.7 0.72z" style="fill-rule:evenodd;fill:url(#linearGradient1231);opacity:.55"/><path d="m159.91 91.418c-0.756 0.396-1.656 0.684-2.699 0.72-1.08 0.036-2.088-0.108-3.42-0.432v-13.752c1.332-0.396 2.34-0.54 3.42-0.432 1.043 0 1.943 0.288 2.699 0.72z" style="fill-rule:evenodd;fill:url(#linearGradient1231);opacity:.55"/><path d="m149.32 91.418c-0.756 0.396-1.656 0.684-2.699 0.72-1.008 0.036-2.088-0.108-3.385-0.432v-13.752c1.297-0.396 2.377-0.54 3.385-0.432 1.043 0 1.943 0.288 2.699 0.72z" style="fill-rule:evenodd;fill:url(#linearGradient1231);opacity:.55"/><path d="m139.57 91.418c-0.756 0.396-1.656 0.684-2.699 0.72-1.08 0.036-2.088-0.108-3.42-0.432v-13.752c1.332-0.396 2.34-0.54 3.42-0.432 1.043 0 1.943 0.288 2.699 0.72z" style="fill-rule:evenodd;fill:url(#linearGradient1231);opacity:.55"/></g></g></svg>
