<?xml version="1.0" encoding="UTF-8"?>
<svg width="554.56mm" height="721.57mm" version="1.1" viewBox="0 0 554.56 721.57" xmlns="http://www.w3.org/2000/svg"><defs><clipPath id="clipPath154844"><path d="m0 2377.9h1968.2v-2377.9h-1968.2z"/></clipPath><clipPath id="clipPath154920"><path d="m557.95 2186.5h1112.3v-2016.7h-1112.3z"/></clipPath><clipPath id="clipPath154936"><path d="m230.92 1998.1h1541v-1732.1h-1541z"/></clipPath></defs><g transform="translate(369.88 211.95)"><g transform="matrix(.35278 0 0 -.35278 -443.17 565.67)"><g clip-path="url(#clipPath154844)"><g transform="translate(823.32 541.86)"><path d="m0 0c-0.037-0.041-0.077-0.081-0.114-0.121 0.117-0.109 0.146-0.052 0.114 0.121m858.78 251.2c-100.41 57.999-144.49 112.1-242.02 217.78-1.022-3.228-179.79-74.993-193.77-66.8 12.606-25.241 24.044-50.625 34.33-76.149-2.614-1.59-5.222-3.472-7.817-5.751-133.32 8.741-280.37 24.274-471.29-146.97l6.655-4.599c41.773-0.79 67.095-21.926 71.04-69.503 1.551-32.346-27.22-54.498-68.493-72.445 0 0 12.178-24.508 12.592-26.766 108.34 117.58 332.3 217.7 495.51 152.52 0 0 5.089 1.359 12.561 3.374 23.862-122.22 21.681-247.62-7.783-376.34 354.57 69.421 437.48 389.16 358.5 471.64m-996.32-216.33c-19.855-10.915-47.355 5.122-78.421 33.722-32.586-77.107-107.23-149.25-247.96-213.6 243.48-58.255 196.05-189.7 442.12-100.83l9.202 272.61-60.892 8.102c-22.232-11.288-43.663-12.31-64.053 0m38.767 109.29c1.16 0 19.451-2.796 19.451-2.796l21.247 38.14-4.194 1.997-37.934-30.751zm393.67-203.28c-36.49 4.704-140.65-183.66-118-185.97 1.894-0.193 153.85 15.684 153.85 15.684 3.44 73.378 0.933 140.33-35.85 170.28m-523.36 263.27c59.096 62.176 182.05 48.172 270.55 168.6 27.341-42.68 68.339-5.74 110.91 40.365 22.492-2.831 42.861 2.343 59.838 20.327 63.021-20.327 89.487-0.152 104.58 27.57 134.09 0 69.366 143.26 178.1 149.92-15.606 34.027-66.264 47.843-122.81-19.444-28.648-25.246-57.631-43.818-86.988-54.959l-18.997 13.59c-51.733-72.127-170.48-99.447-287.23-81.141l-0.297-1.783-27.93 1.896c-77.087-50.855-156.16-112.52-155.08-191.01-39.805-34.319-43.898-57.704-24.647-73.939" style="fill:#022fad"/></g><g transform="translate(1093 1089.9)"><path d="m0 0-2.969 2.124c-47.364-66.035-150.91-94.485-257.65-84.775 8.194-32.37 16.26-66.053 30.097-96.483 0.977 1.285 1.954 2.567 2.922 3.884 27.341-42.68 68.339-5.74 110.91 40.365 22.491-2.831 42.861 2.343 59.837 20.327 52.303-16.87 79.416-5.834 95.755 14.252 10.527 38.562-15.516 72.136-38.9 100.31" style="fill:#be1622"/></g><g transform="translate(1329.2 697.16)"><path d="m0 0c0.927 19.591-4.099 39.88-9.04 58.423-10.16 38.135-26.874 74.775-50.067 106.75-132.58 8.765-278.93 22.91-468.53-147.15l6.656-4.6c41.772-0.79 67.095-21.925 71.039-69.502 1.551-32.347-27.22-54.498-68.493-72.446 0 0 12.178-24.508 12.592-26.765 108.34 117.58 332.3 217.69 495.51 152.52 0 0 4.106 1.097 10.334 2.775" style="fill:#be1622"/></g><g transform="translate(781.1 703.3)"><path d="m0 0c-0.883-0.452-10.643 17.787-10.643 17.787-10.34-4.974-18.922-18.783-26.458-37.855 35.437-22.776 37.291-58.31 5.836-106.5 60.054-10.656 110.75-6.755 127.89 49.372 17.364 38.125-32.489 107.44-96.626 77.193m957.01 708.54c-61.99-232.71-328.54-173.27-324.89 24.646-60.496 45.186-117.9 9.128-60.496-64.977 29.113-20.82 25.85-51.693 3.735-88.421 14.202-26.858 27.342-55.541 53.108-62.525 40.229-13.851 71.097-32.678 89.543-58.113 63.517-5.148 137.64 16.405 227.79 78.358 67.218 63.857 46.332 143.95 11.203 171.03m-620.68 65.724c-53.001 84.022-14.53 86.868-116.48 166.39-126.87-112.87-278.42-173.01-453.72-182.41-54.148-135.22-2.24-98.623-7.824-202.81-56.732 6.654-127.6 34.614-79.389-116.88 33.869-77.602 102.58-79.309 176.09-70.579 89.3-56.19 197.83-81.215 340.2-51.407 123.23 31.989 186.34 166.42 179.4 247.83 141 82.155 104.98 165.8 84.238 193.85-25.814 42.493-60.87 79.504-122.52 16.021" style="fill:#f7d5bf"/></g><g transform="translate(1567.2 1574)"><path d="m0 0c178.18 0 242.04-240.93 37.645-309.36-242.61 0-243.73 291.86-37.645 309.36" style="fill:#c0ecff"/></g><g transform="translate(1579.2 1574.5)"><path d="m0 0c148.46 0 201.66-200.74 31.365-257.75-202.14 0-203.07 243.18-31.365 257.75" style="fill:#f1d7ff"/></g><g transform="translate(1580.3 1568.6)"><path d="m0 0c121.34 0 164.83-164.08 25.637-210.68-165.22 0-165.98 198.76-25.637 210.68" style="fill:#d2f3ff"/></g><g transform="translate(1725.2 1434.2)"><path d="m0 0c0-43.512-35.273-78.785-78.785-78.785s-78.785 35.273-78.785 78.785 35.273 78.785 78.785 78.785 78.785-35.273 78.785-78.785" style="fill:#f6f6f6"/></g><g transform="translate(1522.4 1478.4)"><path d="m0 0c0-24.33-19.724-44.053-44.054-44.053s-44.053 19.723-44.053 44.053 19.723 44.054 44.053 44.054 44.054-19.724 44.054-44.054" style="fill:#f6f6f6"/></g><g transform="translate(1125.8 1644)"><path d="m0 0-4.578 149.53c-13.817 52.365-50.972 59.342-123.18-42.335-44.973 32.405-11.063 94.7-71.697 115.12-36.366 55.909-52.307 127.17-54.194 208.99 25.372 102.23-28.391 126.61-131.37 102.57-168.1-7.938-319.27-71.468-448.98-205.37-162.01-177.36 16.84-75.938 118.98-355.67l33.28-69.884c-128.32 7.95-138.4 53.509-171.27-52.172l151.1-152.34 7.612 105.86c379.59 21.234 453.53 113.93 614.68 220.76zm186.42-1377.9c44.498 166.54 41.876 254.67 20.91 422.61-155.71 65.753-319.03 25.046-518.67-149.9 0 0-11.216-262.71-12.917-265.51s-97.031-42.571-97.031-42.571c-132.61-71.789 0.252-68.717 247.17-48.173 56.745 146.19 115.76 293.52 160.2 299.12 55.927-2.915 48.688-158.33 43.322-295.76l244.6-12.323c113.71-0.56 53.207 37.108-87.583 92.509" style="fill:#27374f"/></g><g transform="translate(914.14 1484.3)"><path d="m0 0c-53.205-64.108-23.403-86.263 7.842-70.579 46.811 50.233 91.304 55.797 150.68 70.579-33.329 38.149-86.144 50.254-158.52 0m-158.52 10.905-91.304-25.686c-30.437-40.1-47.385-82.196-45.372-127.1 33.651 49.86 79.669 82.555 142.42 92.027 68.76 19.885 28.716 80.959-5.74 60.758m-310.78-36.672c-18.676-62.228-17.208-127.26 15.196-196.61l79.388-3.174c0 110.16-42.588 74.313 5.584 195.86 0 0-97.185 4.201-100.17 3.921m606.54 224.06-50.413-38.623c105.87-82.929 63.476-91.051 116.48-166.39l61.09 44.87c-8.537 77.415-51.585 130.32-127.15 160.14" style="fill:#d8ab48"/></g><g transform="translate(409.55 1606.4)"><path d="m0 0c38.94 122.62 350.92 246.07 534.97 248.68l46.053-100.55c-148.2-155.37-352.59-224.71-546.54-207.64z" style="fill:#022fad"/></g><g transform="translate(442.27 1659.2)"><path d="m0 0c-15.776-17.357-27.102-35.06-32.719-52.749l34.483-59.501c24.25-2.134 48.662-2.917 73.108-2.351-26.385 37.247-51.319 75.534-74.872 114.6" style="fill:#be1622"/></g><g transform="translate(596.01 1551.2)"><path d="m0 0c28.458 4.063 56.769 9.948 84.73 17.68-37.636 60.143-74.507 120.66-106.4 183.96-28.038-14.411-53.977-29.837-76.7-45.928 31.031-53.002 63.811-104.96 98.369-155.72" style="fill:#be1622"/></g><g transform="translate(752.78 1593.2)"><path d="m0 0c19.09 7.675 37.921 16.24 56.412 25.727-12.549 24.707-23.812 50.164-35.481 75.302-18.117 39.028-36.947 78.407-52.605 118.83-27.163-8.761-54.129-18.675-80.212-29.507 35.624-64.398 74.036-127.21 111.89-190.35" style="fill:#be1622"/></g><g transform="translate(869.71 1654.1)"><path d="m0 0c26.296 17.141 51.686 36.258 75.902 57.416-16.244 46.731-30.528 94.199-47.447 140.7-31.943-3.347-66.29-9.507-101.44-17.931 24.337-60.059 48.581-120.16 72.985-180.19" style="fill:#be1622"/></g><g transform="translate(730.68 679.19)"><path d="m0 0c36.36 4.449 55.746-34.173 28.222-81.058-25.37-43.042-49.522-42.254-73.116-21.4-94.892-7.448-96.467 90.025-87.01 175.44 126.59 78.153 119.31 18.28 266.63 162.44 22.753-40.3 62.659-15.743 110.91 40.365 26.275-4.992 42.203 9.254 59.837 20.327 46.028-18.353 78.781-3.971 104.58 27.57 143.43 20.442 57.686 125.71 178.1 149.92 21.409 22.918 41.931 34.768 61.353 32.924 20.779 35.274 48.037 40.296 82.912 9.748 44.345-30.587 45.778-60.135 7.832-88.729 9.533-117.81-109.74-138.6-224.62-162.7 0 0 19.784-77.262 19.606-77.043-192.53 27.917-314.65-29.69-485.1-158.47l-13.165 19.972-44.522-26.585z" style="fill:#ededed"/></g><g clip-path="url(#clipPath154920)" style="opacity:.2"><g transform="translate(1257.7 1128.8)"><path d="m0 0 61.139 23.974c-27.692 34.824-57.506 61.682-116.22-19.875l-38.368-80.019c59.89 35.492 60.532 75.723 93.452 75.92m54.514-862.78c88.8 285.97 19.914 500.32-86.758 697.51 5.332-28.578 10.964-63.003 16.231-101.64-39.308 3.956-197.11-8.061-211.12-20.901-0.936-0.858 33.692-3.567 33.692-3.567 80.414 9.082 128.78 8.535 180.5 1.098 1.844-14.572 3.623-29.649 5.305-45.172-38.297 11.614-90.452 13.975-158.06 6.022l-30.94-17.043c82.322 9.898 149.79 1.493 191.46-12.793 0.902-9.14 1.77-18.4 2.593-27.788-120.61 16.293-229.04-21.963-311.36-92.646 129.15 54.551 236.82 80.456 313.61 65.169 10.815-141.66 10.947-305.79-18.892-446.65-9.792-47.605 73.74-29.128 197.92-97.865 66.56 20.191-78.593 97.451-124.18 96.269m358.07 534.41c-81.843 49.218-160.42 117.86-230.19 210.39l-8.617-10.21c62.921-84.126 111.83-158.07 104.39-282.04 84.599 78.845 82.541 76.71 134.42 81.861m-693.96 154.52c26.83-2.973 45.868 5.089 59.838 20.327 79.014-17.447 130.96 17.196 71.15 82.467 0.504-27.578 8.296-88.809-60.818-65.232-26.856-12.444-51.841-21.765-70.42-20.396-69.208-47.634-75.93-76.015-124.08-8.589 17.462-67.31 45.211-106.97 124.33-8.577m-195.09 847.06c13.988-25.57 27.466-48.584 39.568-67.524-79.845-21.199-156.45-66.952-231.97-120.98 83.745 41.84 153.98 75.117 248.44 96.549 10.152-14.073 18.642-23.71 24.676-27.51 48.612 25.46 88.392 54.34 122.48 85.426-9.285 43.926-25.34 80.351-58.094 98.271-35.674 39.967-47.836 130.35-57.557 225.96 19.225 47.822-3.609 77.25-55.698 93.882-58.235 1.377-116.1-0.299-171.35-23.677 3.161-73.393 67.092-223.45 126.78-336.69-74.963-23.554-148.75-49.589-210.55-100.94 86.971 37.061 162.16 63.497 223.27 77.238m-178.13-259.01c108.28 3.881 324.49 48.24 471.81 179.88l58.82 66.097c-22.97 66.092-64.114 66.828-135.7-37.854-78.969-86.76-218.89-153.4-394.93-208.12m16.51-716.7c-35.773-39.563-47.43-67.921-24.746-80.322 25.654 24.702 79.401 45.663 134.25 66.478-63.694-16.068-96.664-7.248-46.306 69.077-10.189 13.45 16.522 48.516 61.876 94.503-61.371-18.381-107.79-60.717-125.07-149.74m297.51 437.88-29.675 94.597c-10.522-30.727-13.59-69.639-3.967-122.48 46.899 5.601 76.584 3.734 99.386-15.847 2.639 35.18-19.52 49.553-65.744 43.735" style="fill:#f6f6f6"/></g></g><g clip-path="url(#clipPath154936)" style="opacity:.2"><g transform="translate(877.51 633.26)"><path d="m0 0c-23.078-28.67-90.801-38.92-113.11-12.963-13.65-13.81-27.41-13.006-41.274 1.738-67.267-19.479-88.37 39.23-96.003 134.23 129.88 47.227 137.23 34.887 203.72 86.282 13.949-42.149-5.503-66.926-63.199-114.04l1.075-2.013-45.597-24.572 5.981-18.69c0 0.419 24.05-7.851 24.273-6.677 11.874 19.792 34.191 21.369 34.191 21.369l-1.368 5.755c4.462 1.73 8.864 3.414 9.748 3.671 57.885 16.841 86.892-31.429 81.563-74.083m-34.269-50.851c-0.029-9e-3 -0.082-0.028-0.113-0.038 3.184 1.571 6.129 3.305 8.839 5.193-2.697-1.932-5.598-3.668-8.726-5.155m-110.03-14.348c5.797 1.697 11.349 4.548 16.631 8.668-4.87-4.457-10.447-7.269-16.631-8.668m167.36 51.115-4.722-3.959c17.504 37.042 1.429 79.43-23.044 101.91 78.986 46.67 158.31 71.864 252.88 93.097-64.414 6.635-176.02-18.869-272.08-80.499-7.843 3.235-15.871 4.282-23.471 2.517l-23.306-8.577 48.521 38.429c24.794 32.16 14.113 70.633-3.745 96.966 6.184 5.035 12.818 10.514 20.016 16.524 13.564-14.394 60.211-2.498 93.204 28.48l19.257-70.649 24.86 9.131-30.154 76.989c1.857 2.452 3.637 4.971 5.294 7.582 18.833-5.574 50.298 4.205 68.412 20.912 30.274-22.779 80.661 3.598 100.08 28.59 154.6 24.011 76.553 95.016 160.01 165.24-92.25 0-37.846-119.26-148.99-136.91-2.083 30.235-16.531 64.092-39.484 78.088l-15.078-4.645 30.391-77.444c-22.967-33.601-59.139-38.33-103.27-25.648-19.36-18.782-39.389-23.842-59.837-20.327-35.195-46.168-71.923-74.58-113.52-46.526-11.566 9.224-20.04 38.37-27.711 72.691 133.7-15.395 228.96 12.583 273.96 97.254l-18.997 13.59c-58.575-61.534-154.8-89.989-260.5-84.813 0 4e-3 -2e-3 7e-3 -2e-3 0.01l-0.039-8e-3c-0.276 0.014-0.554 0.035-0.829 0.049 10.559-0.015 20.93 0.567 31.133 1.684-132.56 55.824-264.79 125.26-258.38 374.06 223.83 26.95 457.42 187.74 487.5 270.67 23.046-8.366 39.621-26.341 38.41-19.024-1.544 9.338-5.479 137.9-5.479 137.9-175.22-206.94-451.84-382.71-823.32-277.33 26.861-59.253 68.99-104.81 126.51-136.56l13.618 32.52c28.943-7.495 59.143-11.259 89.992-11.941-2.909-12.882-5.041-22.323-5.251-23.251-0.715-3.168 16.024-97.227 16.024-97.227l96.701-187.46c55.134-35.335 105.02-54.042 151.17-60.914l-53.169-32.029c16.686-3.383 62.966-14.403 78.686-16.695-2.286-43.497 4.6-56.872 17.495-87.595-71.263-63.738-167.06-87.757-205.63-106.47l-0.542 1.984-9.665-7.773c-1.21-0.85-2.256-1.697-3.162-2.543l-16.447-13.226c-6.875-99.879 12.365-169.24 90.93-169.28-23.443-7.438-50.052 7.057-78.42 33.722l-44.065-79.168c54.932-26.185 109.26-49.074 157.65-39.53-3.113-88.586-21.251-165.09-68.791-225.71l149.37 29.976c17.432 93.234 21.39 184.25 9.202 272.61l-35.806 4.764c23.737-2.06 42.5-0.178 57.225 4.572-6.725-2.833-13.876-5.941-13.876-5.941l3.206-19.157-7.034-5.897s10.179-42.823 8.979-46.084c88.626 92.945 298.24 178.51 398.61 202.41-73.192 20.069-200.21-23.352-321.46-84.117m-77.144-118.29c-0.071-0.074-0.146-0.148-0.216-0.222 0.098-0.015 0.163 0.08 0.216 0.222m168.35 733.53c-14.578-27.863-40.508-46.686-84.914-42.154 27.132-29.74 99.109 0.739 84.914 42.154m-259.68-92.941-4.854-9.336c114.36-76.927 234.77-49.76 336.09 60.87l-5.227 6.721c-107.87-88.503-182.33-128.27-326.01-58.255m1038.9 180.69c-67.747-90.228-153.36-117.78-244.38-141.06-17.036 26.312-49.618 50.128-86.251 55.417 2.71 17.979 20.947 29.231 50.334 35.653l-5.011 7.842c-13.792 0-55.699-3.395-80.28-44.426-2.989-0.61-5.98-1.345-8.97-2.253l13.152-17.746c37.389-6.063 63.924-28.515 79.078-44.039-1.878-0.473-3.754-0.943-5.635-1.419 6.996-24.074-7.539-43.542-26.167-62.134 0.752-51.743-72.382-97.127-222.87-135.86l12.323-28.097c102.51-277.92 131.64-350.35 82.902-611.43 0 0 73.594 11.912 78.693 11.525 20.984 47.759 35.725 98.202 43.199 151.28l3e-3 -0.011c29.135 81.221 201.36 279.16 258.12 222.93l-27.118 74.717c-47.99 13.206-105.89-13.691-184.14-122.89-8.556 110.64-48.021 215.41-103.43 317.17 64.033 31.849 83.216 72.945 76.388 119.4 23.086 17.775 31.615 36.393 28.194 55.704 108.3-20.586 287.17 97.403 271.86 159.72m-770.76-1025.4 153.85 15.684c1.139 72.528-5.611 135.55-35.849 170.28-62.74-34.585-92.264-108.06-118-185.97m208.64 1068.7c7.386 14.622 12.611 37.474 14.796 71.917-28.14 46.255-57.983 45.045-89.931-14.867l18.948-83.569c18.641-4.509 37.352 1.624 56.187 26.519m-652.28 185.47c0.013 0.294 0.021 0.593 0.033 0.887 164.81 13.51 309.58 87.034 441.41 199.33l-13.604 16.851c-129.05-112.34-273.83-159.3-427.7-168.45-1.457 41.457-6.893 85.527-16.556 128.68 117.85 72.793 249.57 111.42 386.16 138.04l-16.106 23.557c-113.1-11.061-234.44-36.558-383.61-110.78-35.595 113.93-103.4 210.68-209.02 219.08 0 0-96.09-143.39-85.899-143.03 72.376-61.568 149.38-133.31 212.35-308.18zm38.425-416.77-33.362 74.86c-50.895 23.434-80.833 12.168-82.737-45.514 17.683-23.311 36.927-36.597 56.67-46.685 30.549-15.575 48.274-5.652 59.429 17.339" style="fill:#1d1d1b"/></g></g><g transform="translate(1023.4 883.61)"><path d="m0 0c0-7.025 5.695-12.719 12.719-12.719 7.025 0 12.719 5.694 12.719 12.719 0 7.024-5.694 12.719-12.719 12.719-7.024 0-12.719-5.695-12.719-12.719m-1.772 60.44c-7.024 0-12.719-5.694-12.719-12.719 0-7.024 5.695-12.719 12.719-12.719 7.025 0 12.72 5.695 12.72 12.719 0 7.025-5.695 12.719-12.72 12.719m472.71 234.66c-7.688 9.07-18.752 19.093-34.1 30.316-2.76 1.81-5.451 3.465-8.075 4.972-11.849 38.957 13.915 53.028 49.267 49.899 16.589-7.873 34.664-13.113 53.692-15.2 13.859-6.43 27.226-14.643 38.749-24.281-3.619 8.737-10.021 16.554-18.219 23.286 36.319 0.407 69.869 12.274 97.231 32.163 16.14-1.171 26.978-13.478 32.335-30.844 3.276 20.509-8.021 33.824-19.764 40.93 30.203 26.683 50.761 63.991 55.851 106.09 9.304-0.897 18.684-15.023 19.104-67.333 0.316-39.287-26.566-87.634-104.45-123.48-71.759-27.042-113.51-47.333-161.62-26.517m-26.676-61.378c-18.071 31.518-44.105 54.865-78.43 69.703 19.875 29.905 41.31 21.261 63.771 10.651 48.221-34.529 46.74-57.352 14.659-80.354m-218.12-162.36c-9.503 19.572-19.554 39.53-30.147 59.958 33.33 37.428 20.961 109.62 93.158 126.93-5.216-11.026-10.835-23.38-18.713-36.613 26.153 24.801 39.848 65.145 70.962 73.881 37.454-15.546 74.647-39.259 92.017-71.131 36.489-79.133-94.169-127.08-207.28-153.02m402.88-150.81c-42.225-5.009-95.7-41.364-148.42-116.91-4.455 119.75-57.463 237.49-96.141 293.72 11.738 4.987 22.461 10.532 31.86 16.884 77.593-106.09 150.8-157.19 212.7-193.7m29.527-22.936c52.699-36.468-11.513-384.25-340.86-435.12 49.415 218.39 15.225 383.77-83.093 591.22 43.855 12.451 88.687 21.925 126.53 34.806 64.626-94.142 94.715-214.17 110.07-331.6 45.932 107.12 151.35 158.19 187.36 140.69m-759.09-145.8c41.177 64.365 96.012 116.97 165.92 156.59 79.342 12.505 149.94 3.679 205.53-21.046 6.745-21.619 12.721-43.241 17.852-65.028-105.82 40.595-258 20.071-389.3-70.517m-94.158-81.924c-0.691 5.603-1.463 11.325-2.299 17.159 39.58 10.431 64.591 38.349 56.328 87.399-5.43 21.377-14.292 35.533-24.799 44.411 70.624 43.397 139.32 70.64 203.09 84.365-71.301-39.623-128.3-92.317-160.5-167.66l0.014-8e-3c-25.044-19.196-49.15-41.061-71.826-65.671m-70.11 27.338c7.4 10.855 13.142 24.344 16.968 38.707 6.371 31.676-7.091 55.22-25.762 65.341 1.907 10.417 7.394 19.885 16.448 28.407l9.537-13.678c-4.278-3.171-7.662-6.495-9.824-9.628 49.61 20.48 85.683 22.966 103.33-30.248 14.592-54.585-42.516-96.634-110.7-78.901m30.802-269.74c-220.03-87.33-196.27 55.161-395.67 90.976 137.03 43.361 201.39 119.45 224.44 191.62 18.451-19.833 42.322-31.005 68.144-25.814 25.129-18.428 46.47-14.308 62.507 1.211 16.085-2.622 31.759-3.676 46.394-2.991 13.036-77.952 3.131-148.47-5.812-255m-106.64 570.46c-18.692-19.281-35.572-34.037-50.101-46.051 12.474 70.292 31.212 99.994 155.38 164l-0.012 7e-3c10.906-1.154 22.459-2.033 34.677-2.653 10.205-37.548 20.796-65.128 32.608-83.271-94.847-122.81-236.09-117.81-257.55-154.02-21.542 33.086 7.444 15.44 84.997 121.98m-132.62 371.22c4.449 122.12-47.316 77.383 5.059 191.6 32.569 2.205 65.107 6.809 97.319 13.665-37.616-46.974-42.506-100.42-42.574-140.68 31.907 46.348 59.405 93.331 142.28 106.43 65.13 6.875 59.949 69.465 35.361 76.454 75.295 31.166 146.11 73.71 208.2 124.23 113.63-66.391 41.093-57.375 118.94-159.18l-1e-3 -4e-3c39.398-199.15 49.928-267.2-43.105-374.22-38.239-43.99-93.549-69.45-151.82-70.676-238.1-5.008-276.66 21.934-369.65 232.39m-88.997-66.056c-8.431 75.026 30.785 73.289 78.106 58.493 3.63-8.678 7.134-17.121 10.534-25.312-38.39 24.47-89.912 16.128-70.913-56.395 9.539 57.81 36.935 53.976 77.075 37.905-24.54-1.706-51.169-33.895-42.988-47.248 8.182 21.481 22.762 35.252 50.374 33.324 8.062-19.019 15.792-36.507 23.727-52.53-5.399-20.052-23.167-23.328-51.519-18.137 23.115-17.859 51.188-12.6 61.344-0.698 6.887-12.466 14.078-23.902 21.889-34.339-61.012-5.589-143.7-5.386-157.63 104.94m-8.091 258.99c25.118-2.453 50.4-3.298 75.71-2.623-42.238-142.71 15.134-78.016 1.641-176.9-23.711 5.948-42.565 8.082-56.943 5.655-30.308 30.235-35.645 89.92-20.408 173.86m-29.935-71.47c-41.98 18.999-79.974 54.016-113.98 105.06 39.793-15.213 80.766-25.402 122.31-31.034-4.902-26.852-7.709-51.603-8.329-74.021m323.5 61.863c-57.882-13.443-84.381-20.359-124.35-86.262-1.382 36.955 12.27 71.042 50.665 112.88 34.605 8.4 68.761 19.303 102.1 32.457 30.972-10.712 24.593-52.77-28.413-59.078m-323.02 95.973c215.47-5.229 414.77 48.704 579.57 207.63 69.458 82.342 90.183 99.707 118 53.775-186.11-259.96-546.74-399.39-822.68-281.87 13.319 67.592 45.396 32.605 125.11 20.471m0.011 117.9c-33.096 52.904-63.956 117.83-117.27 163.67-50.04 40.504-85.559 36.512-9.709 124.73 113.36 152.15 272.9 222.83 467.54 231.53 111.43 0.64 94.105-40.331 91.117-91.117 0-102.27 22.65-167.8 50.332-210.72-7.669-0.478-16.176-1.412-25.685-2.881-179.56-30.01-337.77-95.786-431.31-188.21-9.751-10.093-18.01-19.024-25.009-26.994m531.5 169.12c-72.116-1.584-163.87-16.53-256.24-68.188 115.81 36.962 182.51 56.321 261.07 47.033 3.364-15.192 8.337-33.125 21.464-52.493-123.36-96.226-256.66-171.57-469.35-190.89 84.68 75.612 206.53 139.68 352.19 196.35-145.59-38.57-313.52-106.73-381.56-198.61-8.371-0.539-16.862-0.996-25.477-1.367-5.559 64.096-70.051 22.616 12.692 106.7 76.551 76.235 210.51 140.13 410.03 185.31 56.818 8.427 68.917-2.116 75.175-23.849m109.98-131.13c18.724 19.354 36.238 39.48 52.319 60.273-1.277-24.038-2.468-66.505-3.023-87.884-14.412 9.887-30.861 19.063-49.296 27.611m96.789-161.76c-12.606-6.42-25.798-19.22-40.312-37.981-0.206 0.802-0.408 1.586-0.614 2.392v1e-3c-68.613 74.589 19.141 52.466-105.28 150.55 10.437 9.061 20.599 18.348 30.458 27.851 81.178-32.996 119.24-80.534 115.74-142.81m60.965-59.631c57.746-93.518-4.332-145.48-55.022-179.46-1.429 12.423-3.551 25.45-6.26 39.276 15.381-2.855 40.493 10.678 47.265 39.066-18.875-21.92-34.808-30.515-51.667-18.105-3.864 17.385-8.478 36.036-13.669 56.293 20.052 18.193 39.827 16.511 59.466 5.055-2.017 15.529-42.953 23.864-63.124 9.784 21.152 37.711 40.067 57.896 83.789 18.89-30.008 66.729-73.927 43.717-89.516 2.462-2.202 8.445-4.477 17.17-6.807 26.154 26.977 39.492 55.968 62.751 95.545 0.582m-176.52-484.69c4.41 13.787 2.765 30.889-4.926 51.303 13.151 8.942 25.368 19.383 36.308 31.271 4.358 4.734 8.524 9.37 12.529 13.929 48.444-47.905 53.882-126.34-43.911-96.503m143.95 139.65c-18.328-31.234-34.836-64.156-54.453-77.001-3.735 7.832-8.611 16.29-14.708 25.396 22.248 10.844 41.377 31.072 69.161 51.605m-109.48-254.54-25.02 93.826c43.98-0.961 77.067 8.401 86.774 32.091l4e-3 -0.014c25.961-2.208 44.442 0.976 58.09 7.73 20.972-44.463 40.153-86.893 57.016-128.39-62.624 6.964-121.44 4.893-176.86-5.244m-116.72 90.032c-76.717-95.281-93.781-45.502-118.38 39 26.39-0.608 55.666-0.161 88.351 1.329 3.364 0.154 6.715 0.393 10.052 0.709 4.584-16.415 11.086-31.128 19.973-41.038m45.82 8.551c-29.153-10.992-38.836 9.934-47.921 35.007 21.739 3.987 42.61 11.407 61.883 21.899 6.936-17.978 9.807-43.758-13.962-56.906m34.064-4.264 25.095-96.595c-18.254-3.747-36.135-8.379-53.66-13.856l-31.34 93.9c6.958-1.463 14.789-0.714 23.601 2.89 10.703 3.665 19.297 8.484 25.818 14.44v-1e-3c3.549-0.317 7.042-0.572 10.486-0.778m-234.6-204.11c26.057 21.577 42.42 51.679 24.147 109.47 10.568 10.025 21.057 21.461 31.383 34.579 26.478-27.975 59.421-14.263 106.8 36.336l30.027-91.196c-79.742-27.213-152.02-72.137-218.3-131.33l-8.87 13.162zm-80.939-50.837-3.083 82.206-7.136-69.829c-13.558 28.146-30.678 40.824-54.107 50.784 29.569-24.264 47.761-54.562 51.665-87.383 23.144-31.509-5.229-83.154-25.525-95.599-67.097-28.666-103.86 98.581-82.04 162.74 48.245 44.425 131.43 37.916 212.13 105.63 19.845-31.793 4.957-67.661-20.489-90.987zm0.651-16.007 29.798 24.809v-1e-3c-9.715-8.966-15.061-17.779-18.246-26.517-3.781 1.088-7.662 1.682-11.552 1.709m1.576-11.179c30.694-7.958 43.552-25.248 33.718-58.89-11.672-29.972-31.603-57.376-59.899-43.635 23.28 22.181 41.451 76.464 26.181 102.52m370.66 128.05c-70.111-10.609-153.76-39.855-256.32-96.659-9.863 4.312-20.424 5.295-30.57 4.151 56.905 52.508 122.42 90.933 197.41 113.89 88.774 5.283 152.38-1.876 194.91-19.45-31.56 4.102-66.386 3.971-105.41-1.932v5e-3zm-51.946 31.417c65.497 14.964 137.78 18.839 217.36 10.782 8.117-20.903 15.621-41.623 22.433-62.304-16.219 6.69-33.353 12.318-51.623 16.52h4e-3c-36.475 28.057-99.071 39.803-188.17 35.002m260.77 316.11c-99.097 10.015-50.447-151.67-164.67-146.08-7e-3 7.17-1.525 15.223-4.766 24.237 63.799 34.184 79.468 196.93 169.44 121.84m71.169 191.07c-25.603 34.972-44.662 65.553-44.666 80.155-6e-3 25.35 46.992 24.413 69.09 7.334-0.547-5.533-0.838-11.142-0.838-16.819-1e-3 -59.613 30.92-111.97 77.57-142.02-30.663-3.07-53.006-19.619-43.526-53.927-5.932 2.453-11.476 4.023-16.656 4.756-100.75 52.89-24.813 93.584-40.974 120.52m192.44 218.59c81.692 0 147.92-66.232 147.92-147.92s-66.232-147.92-147.92-147.92-147.92 66.232-147.92 147.92 66.232 147.92 147.92 147.92m-555.24-1255.1c33.28 85.744 70.938 161.89 95.584 163.36 13.948 0.652 24.996-65.535 28.177-146.72-38.869-9.805-85.287-18.61-123.76-16.64m648.49 885.4c84.801 39.637 112.68 93.126 112.68 135.28 0 66.907-21.797 93.586-37.224 92.025-2.909 90.703-77.304 163.35-168.71 163.35-82.163 0-150.59-58.697-165.71-136.44-26.191 21.207-87.733 13.907-87.702-23.451 0.94-16.341 20.142-49.558 41.243-81.969 13.623-23.202-61.915-65.012 37.893-121.15-10.722-4.999-19.238-15.26-26.037-29.924-28.12-2.765-41.016-14.434-51.277-31.872-56.457 53.424-91.104 24.228-119.5-18.932-37.772-22.754-64.347-54.975-94.499-53.774-1.531 1.983-3.105 3.988-4.74 6.026 49.149 59.607 67.191 105.82 66.482 162.14 89.81 89.61 137.22 112.77 70.065 223.7-18.907 30.758-35.87 47.236-52.97 50.631 1.579 45.177-15.752 81.947-50.067 112.49l6.659 141.69c-45.357 111.19-82.802 55.671-141.87-18.343-31.558 37.525-11.691 88.98-61.976 100.09-29.038 78.14-52.239 114.53-50.089 217.74 8.962 72.446 41.825 113.52-119.5 120.25-182.98 0.846-380.05-76.18-515.34-249.45-91.424-116.26-29.875-123.98 17.924-161.32 44.965-34.206 104.66-141.89 124.2-178.59-22.761-39.276 17.536-33.576 31.077-64.883-56.215 4.347-155.28 73.132-155.28-55.275 35.886-69.065 90.061-115.04 151.1-152.34 2.673-34.384 11.779-61.693 27.608-80.916-13.182-12.82-16.78-37.011-11.867-75.287 17.747-131.17 70.969-116.22 202.92-130.99 28.161-26.168 64.867-43.311 119.19-52.181-110.68-63.593-136.37-81.96-152.17-186.28-33.355-27.105-44.449-40.134-20.257-81.783-13.313-32.96-9.295-72.965 5.602-105.71-26.184-79.672-113.86-167.92-289.26-241.36 206.76-16.325 262.13-191.03 444.39-123.09l-18.578-8.601c-103.81-52.654-133.96-100.83-18.664-97.107 97.152 3.629 260.18 6.34 260.18 18.932l-28.567 17.634c-1.972-12.278-136.07-12.01-210.71-14.9-52.183-3.495-104.93 3.742 4.482 49.293 30.785 13.018 76.18 32.108 76.18 32.108 16.597 126.71 24.977 191.04 16.05 276.74 155.11 142.94 328.56 191.43 486.37 146.58 25.98-123.88 24.171-254.8-19.294-423.06 0 0 45.405-19.091 76.18-32.115 109.42-45.559 56.678-52.796 4.481-49.293-74.62 2.9-208.71 2.614-210.7 14.913 4.612 129.66 5.7 296.9-49.956 296.9-56.389 0-134.25-177.29-173.09-297.16l28.567-17.645c9.429 30.595 20.892 64.832 33.351 98.843 49.147 0.994 94.981 6.424 136.81 17.221 0.495-38.595-0.794-78.945-4.355-116.06 0-12.603 163.12-15.047 260.28-18.671 115.3-3.735 85.142 44.438-18.672 97.092l-55.641 25.767c2.849 9.977 5.52 19.825 8.048 29.575 427.18 55.858 404 450.11 367.56 481.68-1.184 0.822-2.404 1.583-3.639 2.319h1.09c-87.066 59.36-177.03 125.03-241.66 215.38 20.511 20.314 29.792 47.749 21.514 87.367 15.9 15.36 33.901 30.541 31.229 51.681 32.85-10.465 63.044 9.202 158.15 44.488m-601.66-10.363c3.946-9.854 3.049-19.526 7.384-16.925 5.03 3.019 11.372 19.109 4.687 30.25-6.686 11.141-23.868 13.114-28.898 10.096-4.056-2.434 3.53-5.878 10.125-12.963-84.72-95.804-225.36-135.9-325.54-58.159 5.492 10.022 15.008 15.539 10.074 17.574-5.422 2.238-22.12-2.267-27.076-14.278-0.175-0.422-1.204-4.374-1.204-4.374-1.73-11.01 5.554-22.871 10.333-24.843 4.07-1.679 2.824 5.256 4.045 13.898 104.28-73.545 236.16-46.263 336.07 59.724m-158.5 7.925c124.74-14.469 93.442 98.696 24.579 78.008l0.035 0.026c-18.374 24.753-34.451 52.46-44.033 88.517 1.985-34.556 14.331-65.15 29.676-94.597-10.708-5.811-22.041-14.814-33.643-27.889 89.723 75.637 144.38-45.347 23.386-44.065m33.749 152.36c33.609-72.445 168.04-43.428 149.37 59.003-10.457-78.047-88.504-109.04-149.37-59.003m-105.45-44.064c-10.456-78.048-88.503-109.04-149.37-59.003 33.609-72.445 168.04-43.428 149.37 59.003m101.57 194.19c44.259 25.625 112.96 16.21 127.71-8.963-38.65-8.828-85.031-12.771-118.75-45.573-53.394-57.494-86.846 1.008-8.963 54.536m5.243-72.461c46.425 38.314 94.822 49.136 143.4 57.516-27.192 36.409-85.337 63.483-156.84 20.927-78.331-50.436-41.809-141.92 13.444-78.443" style="fill:#1c232d"/></g></g></g></g></svg>
