<?xml version="1.0" encoding="UTF-8"?>
<svg width="383.74mm" height="610.74mm" version="1.1" viewBox="0 0 383.74 610.74" xmlns="http://www.w3.org/2000/svg"><defs><clipPath id="clipPath274086"><path d="m0 2204h2106.1v-2204h-2106.1z"/></clipPath><clipPath id="clipPath274098"><path d="m181.48 2016h1683.9v-1772.6h-1683.9z"/></clipPath><clipPath id="clipPath274130"><path d="m1094.6 1692.7c0-186.4 151.11-337.51 337.51-337.51 186.4 0 337.51 151.11 337.51 337.51 0 186.4-151.11 337.51-337.51 337.51-186.4 0-337.51-151.11-337.51-337.51"/></clipPath><radialGradient id="radialGradient274144" cx="0" cy="0" r="1" gradientTransform="matrix(338.36 0 0 -338.36 1432.1 1692.7)" gradientUnits="userSpaceOnUse"><stop style="stop-color:#fff" offset="0"/><stop style="stop-color:#fff;stop-opacity:0" offset="1"/></radialGradient><mask id="mask274146" x="0" y="0" width="1" height="1" maskUnits="userSpaceOnUse"><path d="m-32768 32767h65535v-65535h-65535z" style="fill:url(#radialGradient274144)"/></mask><clipPath id="clipPath274176"><path d="m0 2204h2106.1v-2204h-2106.1z"/></clipPath><clipPath id="clipPath274184"><path d="m993.21 2127.2h921.08v-843.98h-921.08z"/></clipPath><clipPath id="clipPath274188"><path d="m1312.4 1597.8c-3.036-6.413-14.186-17.126-20.962-23.467-36.464-34.117-75.144-65.807-111.41-100.17-43.45-41.165-87.323-81.86-130.88-122.9-16.542-15.587-39.814-32.387-51.738-51.63 14.842 4.227 29.935 20.712 41.677 30.419 35.623 29.45 71.692 58.346 107.46 87.615 36.369 29.758 72.182 60.429 109.99 88.3 14.064 10.37 29.856 19.913 42.927 31.47-7.024-8.308-15.529-16.348-24.294-22.795 13.154 10.149 25.719 19.543 39.893 28.375-2.025-5.131-6.964-9.959-10.526-15.098 6.684 5.402 13.835 11.599 20.147 16.802-8.205-39.164-38.357-83.969-58.204-118.63-25.716-44.915-57.323-93.685-73.79-142.85 26.008 34.156 45.188 78.619 65.316 116.66 22.068 41.707 44.153 95.838 79.356 128.26-5.622-22.409-22.996-45.431-20.597-69.361 15.835 12.681 35.818 48.172 32.988 69.203-16.336-19.208 7.445-30.298 15.708-3.098-4.89-15.471-6.436-32.088-10.165-47.944-4.677-19.887-17.134-43.984-16.199-64.221 20.963 27.894 19.366 73.786 33.61 105.29 2.909-11.752-0.115-25.899 4.087-37.1 12.789 6.837 17.735 40.068 18.118 54.05 4.089-5.761 15.265-13.95 23.443-9.749 5.235 2.689 3.128 6.606 5.51 8.499 0.773 0.614 6.685 3.706 7.033 4.044 5.955 5.786 7.681 5.361 14.215 7.455 4.411 1.414 18.063-2.363 13.483 8.881 10.707-28.309 38.261-52.219 57.906-74.74 28.367-32.518 55.792-71.413 91.244-96.176-9.203 29.003-38.343 55.828-55.312 80.895-13.395 19.786-41.514 53.201-37.663 79.248 8.401-8.125 19.831-15.334 28.41-23.46-9.237 15.626-20.008 29.038-24.373 47.086 36.668-14.342 79.854-18.693 118.34-30.379 48.271-14.657 95.862-29.189 145.03-40.854 27.106-6.431 59.199-19.04 87.482-16.177-11.901 8.919-29.453 13.518-43.166 18.887-35.705 13.981-71.329 27.702-106.08 43.97-43.246 20.245-105.69 43.332-137.58 80.274 21.338 1.353 50.949-4.967 70.49-13.483-19.527-3.542-56.18 19.271-69.374 31.847 7.454 5.103 19.944 4.384 29.24 5.475 38.002 4.463 76.212 11.699 113.39 20.566 44.74 10.671 88.703 24.224 133.46 34.928 17.015 4.068 39.414 7.081 54.243 15.367-46.227 5.128-98.77-9.273-145.13-11.985-31.761-1.858-63.752-2.77-95.556-3.026-14.208-0.114-32.713-4.977-46.191 0.278 8.784 7.007 22.787 8.943 33.115 15.148-15.333-2.021-39.436-15.088-54.001-8.594 2.81 6.702 10.624 9.261 15.203 13.789-11.452-0.34-22.927-6.699-34.714-5.111 8.964 21.598 56.429 37.388 74.801 48.541 24.455 14.846 48.689 29.965 71.373 47.469 9.231 7.123 23.561 16.416 27.896 27.626-21.601 2.496-51.844-23.854-69.497-33.648-22.124-12.274-66.282-40.842-92.157-36.003 13.059 20.37 45.278 28.423 64.051 43.198-16.124 1.54-39.264-13.427-54.217-19.041-17.363-6.519-39.546-18.62-58.542-16.846 6.822 14.394 28.499 26.194 40.617 35.931 33.495 26.914 67.197 54.538 97.399 85.133 28.692 29.067 59.694 55.661 87.992 85.17 8.017 8.36 27.174 24.472 27.874 36.038-10.552-3.923-17.969-11.928-26.723-18.968-27.25-21.915-57.384-41.128-86.505-60.406-38.744-25.649-78.687-50.053-118.26-74.425-15.868-9.775-41.468-32.241-61.383-31.458-0.385 26.042 47.884 51.536 61.054 72.454-30.157-13.867-50.468-46.122-80.444-59.883 3.411 18.905 19.15 38.625 26.317 56.991 8.926 22.872 18.556 50.352 16.521 75.228-10.82-3.004-19.761-32.009-24.816-41.923-10.531-20.655-22.855-40.145-37.538-58.035 0.106 6.245 3.139 12.417 7.011 17.429-6.664-8.283-14.041-23.595-23.704-27.176-1.881 14.669 3.315 32.437 5.359 46.961 4.402 31.268 8.265 61.968 6.012 93.599-2.824 39.658-14.376 77.134-24.165 115.38 0.602-51.495-9.001-102.74-20.501-152.81-8.008-34.866-14.692-70.211-24.058-104.74-3.956-14.587-5.332-36.611-15.02-48.606-4.566 17.21 3.082 62.843-12.935 72.112-6.926-15.745-1.873-38.118-2.922-55.229-29.17 38.199-57.97 77.812-84.773 118.01-22.21 33.307-43.724 67.092-68.319 98.73-13.3 17.11-25.294 37.256-40.23 52.88 20.502-55.743 43.133-111.92 62.971-168.45 16.567-47.209 38.494-97.396 43.929-147.19-7.908 10.017-19.213 17.411-27.126 27.597 13.937-8.288 28.012-30.235 32.813-46.214-8.112-2.754-18.023 2.184-26.488 4.291-25.323 6.302-50.748 11.549-76.404 16.327-54.637 10.176-110.56 15.236-164.04 30.793 12.509-0.201 26.16-9.558 37.303-15.008 28.418-13.899 58.825-26.15 88.933-36.021 27.612-9.053 55.827-16.506 83.605-25.054 11.325-3.485 29.136-7.427 34.915-18.496-10.628-5.891-27.169-3.41-38.885-4.084-32.102-1.847-63.58-5.929-95.239-11.224-30.101-5.034-59.783-10.093-89.361-17.768-14.652-3.802-36.267-6.623-48.309-15.358 14.23-1.454 29.091 1.899 43.327 2.886 31.131 2.159 62.42 2.52 93.6 3.799 29.94 1.229 59.875 1.815 89.849 1.426 10.666-0.138 26.331 1.319 35.599-4.146-5.188-6.593-17.788-11.972-26.401-12.673 8.518 3.642 35.753 13.481 43.979 6.748 11.666-9.548-12.822-13.835-20.564-16.419-45.761-15.271-91.232-39.949-134.3-61.666-35.865-18.084-82.968-37.683-110.77-67.783 13.292-1.268 28.774 6.9 41.218 10.867 33.684 10.737 66.878 23.089 100.63 33.611 40.326 12.57 88.938 31.514 131.98 30.666-1.182-0.178-3.897-0.939-4.759-1.188 3.888 1.455 9.024 1.612 13.404 0.838-16.192-12.471-38.935-21.053-56.626-33.077-32.138-21.844-61.697-48.211-94.557-68.679 34.973 23.141 72.861 42.039 109.19 63.038 18.477 10.679 45.442 31.944 68.096 32.094-0.825-1.317-1.854-2.692-2.714-4.032 0.493-1.36 0.338 2.601 0.415 2.572"/></clipPath><radialGradient id="radialGradient274198" cx="0" cy="0" r="1" gradientTransform="matrix(442.8 0 0 -442.8 1453.8 1705.3)" gradientUnits="userSpaceOnUse"><stop style="stop-color:#fff" offset="0"/><stop style="stop-color:#fff;stop-opacity:0" offset="1"/></radialGradient><mask id="mask274200" x="0" y="0" width="1" height="1" maskUnits="userSpaceOnUse"><path d="m-32768 32767h65535v-65535h-65535z" style="fill:url(#radialGradient274198)"/></mask><clipPath id="clipPath274242"><path d="m449.26 1596.1h1131v-1486.2h-1131z"/></clipPath><clipPath id="clipPath274438"><path d="m1055.2 1306.9h132.7v-150.01h-132.7z"/></clipPath><linearGradient id="linearGradient274448" x2="1" gradientTransform="matrix(-62.717 -131.71 -131.71 62.717 1160.2 1303.8)" gradientUnits="userSpaceOnUse"><stop style="stop-color:#fff" offset="0"/><stop offset="1"/></linearGradient><clipPath id="clipPath274482"><path d="m761.68 1295.2h111.29v-132.24h-111.29z"/></clipPath><linearGradient id="linearGradient274492" x2="1" gradientTransform="matrix(-75.26 -121.25 -121.25 75.26 863.99 1309.1)" gradientUnits="userSpaceOnUse"><stop style="stop-color:#fff" offset="0"/><stop offset="1"/></linearGradient><clipPath id="clipPath274562"><path d="m601.18 1621.8h746.63v-873.92h-746.63z"/></clipPath><clipPath id="clipPath274578"><path d="m751.04 1305.3h274.13v-392.62h-274.13z"/></clipPath><clipPath id="clipPath274594"><path d="m909.13 831.81h173.19v-78.121h-173.19z"/></clipPath><clipPath id="clipPath274610"><path d="m890.32 991.08h234.86v-109.03h-234.86z"/></clipPath><clipPath id="clipPath274626"><path d="m1012.6 1452.4h197.54v-103.69h-197.54z"/></clipPath><clipPath id="clipPath274642"><path d="m677.88 740.88h192.98v-342.02h-192.98z"/></clipPath><clipPath id="clipPath274658"><path d="m774.29 762.09h257.59v-629.54h-257.59z"/></clipPath><clipPath id="clipPath274674"><path d="m988.95 436.11h146.65v-309.17h-146.65z"/></clipPath><clipPath id="clipPath274690"><path d="m902.66 753.6h133.72v-85.397h-133.72z"/></clipPath><clipPath id="clipPath274706"><path d="m1091.2 758.72h381.81v-116.29h-381.81z"/></clipPath><clipPath id="clipPath274722"><path d="m1364.4 1354.9h267.91v-496.33h-267.91z"/></clipPath><clipPath id="clipPath274738"><path d="m1379.3 1554.6h52.82v-77.82h-52.82z"/></clipPath><clipPath id="clipPath274754"><path d="m1417.4 1504.5h42.78v-21.6h-42.78z"/></clipPath><clipPath id="clipPath274770"><path d="m1450.4 1797h68.36v-87.68h-68.36z"/></clipPath><clipPath id="clipPath274786"><path d="m1451.8 1763.7h34.62v-42.02h-34.62z"/></clipPath><clipPath id="clipPath274802"><path d="m823.38 1638h489.92v-107.78h-489.92z"/></clipPath><clipPath id="clipPath274818"><path d="m1294.6 1489.5h31.6v-180.83h-31.6z"/></clipPath><clipPath id="clipPath274834"><path d="m1056.3 1467.5h134.44v-80.37h-134.44z"/></clipPath><clipPath id="clipPath274850"><path d="m1139.6 1528.5h161.1v-635.77h-161.1z"/></clipPath><clipPath id="clipPath274866"><path d="m824.34 1106.2h153.2v-57.2h-153.2z"/></clipPath><clipPath id="clipPath274882"><path d="m919.52 843.97h171.68v-65.104h-171.68z"/></clipPath><clipPath id="clipPath274898"><path d="m916.78 955.2h204.47v-133.49h-204.47z"/></clipPath><clipPath id="clipPath274914"><path d="m1389.8 1375.3h71.08v-283.42h-71.08z"/></clipPath><clipPath id="clipPath274930"><path d="m1497.1 1147.8h37.05v-65.46h-37.05z"/></clipPath><clipPath id="clipPath274946"><path d="m1621.3 1126.8h24.51v-100.59h-24.51z"/></clipPath><clipPath id="clipPath274962"><path d="m1392.5 1064.1h150.52v-84.964h-150.52z"/></clipPath><clipPath id="clipPath274978"><path d="m1571.6 1159.8h40.41v-123.21h-40.41z"/></clipPath><clipPath id="clipPath274994"><path d="m833.8 213.19h83.433v-39.148h-83.433z"/></clipPath><clipPath id="clipPath275010"><path d="m1039 203.29h93.31v-38.199h-93.31z"/></clipPath><clipPath id="clipPath275026"><path d="m764.68 150.01h173.79v-28.3h-173.79z"/></clipPath><clipPath id="clipPath275042"><path d="m988.32 144.5h157.41v-21.88h-157.41z"/></clipPath><clipPath id="clipPath275058"><path d="m783.9 797.28h337.35v-95.215h-337.35z"/></clipPath></defs><g transform="translate(211.88 207.36)"><g transform="matrix(.35278 0 0 -.35278 -414.27 434.58)"><g clip-path="url(#clipPath274086)"><g clip-path="url(#clipPath274098)" style="opacity:.5"></g></g><g clip-path="url(#clipPath274130)"><g mask="url(#mask274146)"></g></g><g clip-path="url(#clipPath274176)"><g clip-path="url(#clipPath274184)" style="opacity:.5"><g clip-path="url(#clipPath274188)"><g mask="url(#mask274200)"></g></g></g><g clip-path="url(#clipPath274242)" style="opacity:.2"></g><g transform="translate(880.78 658.73)"><path d="m0 0c-16.493-6.29-31.983-12.646-47.795-18.061-9.606-3.291-19.661-5.352-29.61-7.528-5.456-1.194-8.676 1.155-9.308 7.225-1.057 10.148-2.622 20.244-4.032 30.354-1.293 9.265-1.813 18.748-4.231 27.715-2.607 9.666-6.276 12.067-14.965 6.395-10.884-7.105-19.822-16.22-26.272-27.421-12.82-22.263-18.695-46.133-17.602-72.091 0.948-22.489 5.352-43.114 18.539-62.086 11.485-16.524 25.517-29.024 44.167-36.042 12.668-4.767 25.69-8.61 38.631-12.619 2.485-0.769 5.438-0.95 7.984-0.444 16.845 3.351 33.666 6.847 50.403 10.694 1.47 0.338 3.253 3.532 3.256 5.402 0.049 27.678 0.313 55.372-0.544 83.028-0.44 14.181-2.836 28.316-4.661 42.431-1.025 7.921-2.687 15.76-3.96 23.048m279.82 8.987c-1.393-1.966-2.642-3.376-3.497-4.994-4.398-8.321-4.711-8.791-13.777-6.082-4.807 1.436-9.491 3.834-13.7 6.604-9.194 6.05-18.05 12.615-27.068 18.987 0-6.324-0.128-12.752 0.022-19.173 0.601-25.743 0.992-51.496 2.065-77.22 0.565-13.564 2.504-27.066 3.58-40.615 0.707-8.898 0.847-17.84 1.503-26.743 0.3-4.081-0.608-6.817-4.713-8.611-4.24-1.853-7.381-15.524-3.839-18.082 9.648-6.968 7.993-16.898 7.262-26.106-1.314-16.528-3.158-33.068-5.896-49.416-6.11-36.474-13.193-72.785-19.241-109.27-1.69-10.191-2.162-20.83-1.369-31.123 0.927-12.026-2.923-20.627-15.125-27.349 3.701-0.245 5.564-0.794 7.208-0.41 12.929 3.022 23.258-8.014 27.235-16.481 1.174-2.498 2.624-5.107 2.861-7.761 0.982-11.029 6.997-17.964 16.722-22.446 2.659-1.225 4.803-3.52 7.323-5.101 14.007-8.79 15.89-23.18 17.903-37.706 0.471-3.404 1.981-7.395 4.382-9.671 9.374-8.883 9.826-27.081 0.611-35.74-14.406-13.536-32.631-16.979-51.104-18.792-20.284-1.992-40.691-3.185-61.068-3.635-16.02-0.353-31.794 2.404-46.567 9.198-1.444 0.664-3.397 1.799-3.72 3.069-2.039 8.015-4.006 16.081-5.252 24.244-0.348 2.278 1.172 5.637 2.958 7.284 4.053 3.739 3.801 7.279 0.755 11.036-5.264 6.492-4.344 13.63-1.997 20.617 6.965 20.731 9.941 41.915 11.328 63.795 1.255 19.784 6.515 39.324 10.163 58.943 5.073 27.29 13.677 53.568 23.053 79.622 0.999 2.777 1.804 5.746 1.996 8.672 1.092 16.561 1.982 33.135 2.893 49.708 0.055 1.006-0.295 2.036-0.557 3.684-28.714 0.833-56.086-3.227-81.044-18.118-1.892-1.129-3.475-3.898-3.919-6.157-6.068-30.893-12.072-61.8-17.673-92.779-1.152-6.372-0.8-13.053-0.784-19.591 0.038-15.327-0.049-30.67 0.648-45.973 0.241-5.289 2.81-10.443 4.011-15.729 0.725-3.189 1.23-6.515 1.198-9.774-0.101-10.342-0.469-20.682-0.793-31.021-0.31-9.85-0.834-19.696-0.944-29.547-0.026-2.347 0.491-5.464 2.01-6.932 7.291-7.049 9.496-15.57 7.793-25.109-1.208-6.77-2.215-13.966-5.332-19.912-4.68-8.924-14.937-10.85-23.503-13.924-20.744-7.444-42.465-8.749-64.252-6.936-23.539 1.959-47.023 4.673-69.714 11.814-5.068 1.595-10.145 3.198-15.096 5.113-1.665 0.644-3.916 2.038-4.258 3.479-2.813 11.858-8.151 23.59-2.916 36.096 0.482 1.151 1.014 2.826 1.928 3.166 6.154 2.286 6.225 7.271 6.583 12.67 1.157 17.48 12.192 29.409 23.877 40.791 6.837 6.659 11.4 13.244 11.634 24.053 0.273 12.654 7.561 23.846 17.676 31.976 5.401 4.341 11.856 7.465 18.083 10.654 4.879 2.499 7.26 5.757 7.087 11.44-0.153 5.051-0.07 10.379 1.344 15.16 6.146 20.794 12.58 41.512 19.439 62.081 2.126 6.376 5.925 12.193 8.288 19.501-3.499-1.92-7.067-3.729-10.473-5.802-2.171-1.321-4.026-3.152-6.157-4.55-6.803-4.464-9.049-3.983-13.304 2.67-9.375 14.658-20.848 27.388-34.641 38.039-4.335 3.348-8.465 6.968-12.604 10.56-5.176 4.492-6.293 12.914-2.662 19.214 3.82 6.628 3.552 7.414-3.971 8.978-21.732 4.52-42.082 12.804-60.393 25.056-17.982 12.031-32.52 27.905-39.458 48.867-5.597 16.908-11.175 34.168-13.563 51.707-3.331 24.455-2.882 49.358 2.6 73.67 5.326 23.615 19.98 42.048 35.456 59.794 13.663 15.668 28.983 29.278 47.684 38.916 4.678 2.411 11.897 2.155 13.064 9.747 0.073 0.475 2.733 0.476 4.155 0.832 11.291 2.827 22.574 5.686 33.892 10.033-9.059 3.405-18.029 7.074-27.193 10.169-47.851 16.161-87.255 43.902-118.54 83.777-19.24 24.522-32.749 51.646-37.796 82.012-3.817 22.961-4.617 46.576-4.946 69.925-0.415 29.341 0.813 58.715 1.762 88.061 0.37 11.451 1.908 22.865 2.81 33.119-38.48 19.194-52.673 52.379-56.835 91.696-2.3 21.72 3.711 41.886 13.617 60.815 8.003 15.294 27.549 30.59 51.121 25.991 2.611-0.509 5.073-1.788 9.239-3.304 0 17.861 0.182 35.049-0.039 52.232-0.414 32.153 4.343 63.67 12.268 94.667 5.998 23.461 13.266 46.597 19.995 69.871 2.755 9.527 8.707 16.777 15.944 23.374 15.109 13.771 32.217 24.334 50.667 32.896 0.921 0.428 1.767 1.018 4.633 2.69-6.537 2.526-11.531 4.372-16.445 6.41-1.377 0.571-2.52 1.708-3.77 2.585 1.214 1.24 2.422 3.528 3.643 3.535 4.734 0.028 9.472-0.669 14.756-1.146-1.602 2.393-3.571 4.639-4.689 7.248-0.729 1.702-0.807 4.218-0.032 5.812 0.411 0.847 3.627 1.229 4.942 0.565 3.47-1.752 6.592-4.189 10.9-7.05-1.476 7.689-2.734 14.609-4.148 21.497-1.154 5.624-2.794 11.168-3.589 16.836-0.284 2.027 1.278 4.312 1.999 6.48 2.14-0.965 4.696-1.488 6.312-3.009 1.939-1.826 3.076-4.503 4.602-6.876 4.892 5.861 6.74 5.891 12.15 0.77 4.372-4.137 8.896-8.114 14.362-13.08 0 5.504-0.089 9.04 0.017 12.57 0.263 8.768 0.406 8.532 9.425 7.352 10.09-1.32 20.283-1.839 30.416-2.854 5.773-0.579 9.955 1.813 12.831 6.549 3.425 5.64 7.434 5.341 13.867 4.604 17.22-1.973 34.038-8.037 51.779-5.573 8.415 1.168 16.952 1.756 25.445 1.896 3.067 0.051 7.459-1.071 8.985-3.245 3.263-4.647 6.799-3.915 11.149-3.056 15.017 2.965 30.041 5.919 45.134 8.454 6.158 1.034 12.768 2.418 16.729-5.271 0.653-1.269 4.619-1.281 7.008-1.132 13.584 0.851 27.153 2.744 40.73 2.764 33.162 0.05 65.6-5.378 97.486-14.491 20.431-5.839 41.416-9.972 61.453-16.896 20.646-7.134 40.926-15.765 60.431-25.596 11.894-5.995 22.023-15.492 33.534-23.843 0.907 2.348 2.076 6.325 3.97 9.919 1.138 2.158 3.408 3.718 5.17 5.547 1.326-2.155 3.737-4.279 3.8-6.471 0.365-12.732 0.179-25.48 0.179-39.907 2.415 2.989 4.255 5.609 6.459 7.875 1.494 1.536 3.499 2.576 5.275 3.838 0.875-2.153 2.861-4.584 2.405-6.403-1.116-4.448-3.327-8.627-5.163-12.887-1.198-2.782-2.512-5.515-3.433-7.523 3.845-1.124 6.757-1.975 9.67-2.826-2.188-3.094-4.377-6.188-6.733-9.519 0.17-1.374 1.629-4.787 0.519-6.246-1.526-2.007-4.996-2.534-8.202-3.947 13.243-43.653 9.048-88.241 2.919-132.57-6.114-44.219-14.816-87.968-39.451-126.62 11.696 0 22.199 1.973 31.615-0.388 23.494-5.893 37.697-17.404 43.909-43.311 5.642-23.53 4.255-45.793-4.217-68.175-9.043-23.889-24.437-40.545-50.622-43.884-8.108-1.034-16.702 1.668-25.062 2.738-1.677 0.214-3.309 0.777-4.96 1.186-4.507 1.118-6.508-0.346-6.842-5.279-1.322-19.53-2.635-39.073-4.605-58.544-3.793-37.48-8.031-74.915-12.086-112.37-0.069-0.635-0.29-1.281-0.226-1.899 1.272-12.23-6.241-19.247-14.918-25.829-41.649-31.592-86.677-57.672-132.89-81.836-0.892-0.466-1.715-1.061-3.151-1.958 4.399-4.317 8.145-8.664 12.547-12.192 15.585-12.49 31.124-25.073 47.269-36.81 5.498-3.997 12.636-5.882 19.21-8.209 5.747-2.034 6.803-3.62 4.232-9.204-2.489-5.403-5.117-10.742-8.012-16.797 12.507-6.424 24.893-14.403 39.041-15.875 38.209-3.977 75.7 1.076 111.78 14.117 20.097 7.264 36.557 20.714 51.637 35.66 28.352 28.1 42.131 63.257 49.174 101.62-7.181 3.689-14.317 6.874-20.975 10.856-30.793 18.417-49.152 44.949-52.931 81.166-2.151 20.613-2.844 41.147-0.312 61.764 0.782 6.368 5.522 7.599 10.28 8.668 15.409 3.465 12.206 0.484 12.986 15.4 1.432 27.411 3.438 54.805 4.223 82.234 0.949 33.146 1.499 66.33 1.017 99.48-0.295 20.361-2.208 40.763-4.57 61.01-2.14 18.345-5.874 36.505-8.908 54.746-0.034 0.209-0.046 0.447-0.154 0.617-7.533 11.892-1.377 20.127 7.372 27.687 7.72 6.67 15.291 13.518 23.167 19.998 7.57 6.227 17.196 7.152 26.008 6.062 4.894-0.605 10.092-5.934 13.453-10.41 10.415-13.872 12.794-30.972 16.109-47.286 5.663-27.878 5.942-56.333 4.351-84.623-1.886-33.541-5.081-67.007-7.699-100.51-0.157-2.008-0.23-4.021-0.379-6.701 7.412 5.977 13.974 11.614 20.894 16.771 10.795 8.046 23.425 12.031 36.377 14.637 10.646 2.142 16.216-1.331 22.437-12.176 13.446 13.909 30.938 16.862 49.002 17.508 11.564 0.414 17.021-4.676 19.784-15.844 1.268-5.12 3.078-10.138 5.065-15.03 0.56-1.377 2.566-2.965 3.997-3.055 7.816-0.489 15.726 0.24 22.331-5.583 8.637-7.612 13.779-17.167 16.714-28.072 3.276-12.173 3.729-24.505-0.335-36.467-4.912-14.457-10.435-28.719-16.101-42.904-4.656-11.658-12.669-20.572-24.781-26.507 9.144-12.725 9.829-27.728 12.108-42.029 1.397-8.759 0.949-18.559-1.557-27.04-5.482-18.557-14.641-35.08-31.648-46.331-23.078-15.265-47.819-24.967-75.763-25.206-4.215-0.036-5.276-1.985-5.83-5.712-4.659-31.361-15.416-60.525-32.331-87.343-14.753-23.388-35.546-40.932-56.305-58.685-28.593-24.454-62.021-38.759-97.103-50.874-24.506-8.463-49.312-12.543-74.967-13.369-29.575-0.952-56.74 7.207-82.412 21.244-2.046 1.119-4.014 2.43-5.854 3.863-1.666 1.297-3.109 2.883-5.416 5.066"/></g><g transform="translate(1452.4 1472.8)"><path d="m0 0c-2.833-13.018-9.897-21.26-22.351-24.331-5.507-1.358-11.186-3.61-16.641-3.248-10 0.665-16.278 7.492-20.603 16.152-2.562 5.131-2.573 5.126-8.937 4.606v12.825c-5.961 6.756-5.961 6.756 2.186 18.329-3.179 3.538-8.294 6.723-8.774 10.497-0.443 3.49 4.079 7.611 6.478 11.559-1.931 2.869-5.944 6.282-6.213 9.968-0.253 3.481 3.432 7.248 5.725 11.525-0.467 0.568-1.384 1.967-2.572 3.077-4.781 4.471-7.663 8.521-2.329 15.218 2.089 2.622 0.131 8.191 0.794 12.293 0.896 5.541-3.066 6.557-6.531 8.59-18.671 10.952-31.152 27.48-40.566 46.454-11.791 23.766-19.891 49.036-17.699 75.57 3.066 37.125 16.297 70.776 45.966 95.098 20.147 16.518 44.227 23.711 70.619 22.53 18.678-0.836 36.663-4.751 54.153-11.055 17.613-6.35 29.252-19.706 40.204-34.176 13.564-17.92 17.83-38.265 20.047-60.114 3.523-34.715-4.983-66.007-23.955-94.407-12.03-18.009-27.89-32.743-47.686-42.367-5.857-2.848-8.236-7.695-10.309-13.052-0.432-1.114-0.017-2.884 0.606-4.026 6.436-11.819 6.47-11.801-1.234-20.852 7.636-12.792 7.636-12.792-0.139-23.417 1.795-3.112 5.27-6.335 5.01-9.22-0.728-8.08-1.146-16.032-1.161-24.175-0.012-6.381-7.249-9.267-14.088-9.851"/></g><g transform="translate(938.97 964.76)"><path d="m0 0-1.8-0.987c0.212-1.491 0.048-3.173 0.694-4.444 6.94-13.64 13.932-27.256 21.137-40.758 0.876-1.642 2.907-3.239 4.708-3.726 13.093-3.539 24.433 3.086 36.276 6.701 0.908 0.278 1.645 1.322 2.32 2.128 9.881 11.8 5.338 33.875-8.425 40.891-0.263 0.135-0.761-0.192-2.293-0.631 1.987-4.016 3.733-7.976 5.842-11.733 7.133-12.71 1.841-24.786-12.394-27.601-4.148-0.821-8.484-0.654-12.669-1.333-5.702-0.926-9.071 1.359-11.672 6.403-4.968 9.631-10.324 19.07-15.793 28.429-1.471 2.516-3.927 4.456-5.931 6.661m-50.511 421.54c-0.578 0.58-1.155 1.16-1.733 1.74 0 0.623-0.106 1.268 0.016 1.867 3.086 15.234 2.885 15.717-12.681 13.139-43.959-7.278-87.167-17.503-128.74-33.9-3.357-1.323-6.789-3.021-10.286-3.304-7.599-0.613-11.543-5.509-15.076-11.223-0.776-1.255-1.095-2.93-2.119-3.873-9.37-8.622-13.842-19.174-13.016-31.924 0.096-1.48 0.226-2.972 0.15-4.448-0.343-6.592 1.199-7.733 7.065-4.843 25.93 12.77 53.381 21.144 81.372 27.803 7.579 1.804 15.621 3.545 23.246 2.899 19.648-1.665 39.18-4.694 58.763-7.143 3.154-0.395 6.368-1.022 9.484-0.747 1.772 0.157 4.288 1.527 4.96 3.027 7.735 17.272 15.271 34.636 22.553 52.104 0.665 1.594-0.785 4.071-1.253 6.138-1.814-1.038-4.224-1.655-5.319-3.202-2.276-3.217-3.855-6.928-5.721-10.435 0.122 4.388 1.463 8.224 2.08 12.175 0.234 1.497-0.806 3.748-2.017 4.71-0.739 0.587-3.432-0.142-4.338-1.121-2.704-2.924-4.959-6.262-7.39-9.439m144.56 79.892c-3.503 6.598-0.953 14.125-7.639 19.655-2.091-8.173-3.968-15.107-5.634-22.091-4.486-18.812-9.324-37.555-13.177-56.497-3.174-15.606-2.034-16.537 13.783-14.081 26.872 4.172 54.133 4.156 79.684-3.883 31.308-9.85 61.325-23.854 91.745-36.436 7.158-2.961 13.695-7.42 21.149-11.537 2.728 16.2 5.523 31.62 7.814 47.114 0.728 4.92-3.059 6.831-7.529 4.012-3.256-2.054-6.131-4.713-9.894-7.666-0.044 6.685-0.985 11.011-5.908 15.373-22.292 19.748-46.401 36.813-73.148 49.651-20.476 9.829-41.952 17.564-62.919 26.382-9.092 3.823-9.015 3.99-14.708-3.301-0.145-0.186-0.736-0.023-1.212-0.023-0.229 0.549-0.38 1.179-0.72 1.68-1.223 1.806-2.51 3.568-3.772 5.346-1.62-1.616-3.652-2.996-4.754-4.911-1.335-2.318-1.884-5.09-3.161-8.787m-76.409-347.44c-0.062-0.954-0.123-1.908-0.184-2.862-15.892 0-31.806-0.527-47.672 0.123-23.872 0.977-47.633 2.157-70.763-5.807-15.122-5.207-26.734-13.71-30.557-30.244-0.718-3.105-1.555-6.196-2.574-9.213-0.515-1.525-1.205-3.558-2.423-4.192-16.816-8.75-20.43-23.863-20.067-40.95 0.381-17.893 12.261-30.343 30.092-31.834 1.613-0.135 3.494-1.169 4.613-2.377 4.26-4.595 7.835-9.898 12.435-14.093 13.537-12.345 30.293-18.828 47.965-20.358 28.196-2.441 51.981 9.489 71.869 28.564 6.53 6.263 12.796 8.397 21.408 8.455 26.372 0.179 47.858 8.859 60.423 34.443 10.189 20.743-3.881 61.144-35.001 57.742-2.327-0.254-5.1 0.695-7.217 1.884-12.111 6.797-24.086 13.837-36.319 20.917 6.618 1.564 13.627 3.143 20.583 4.925 1.502 0.384 2.818 1.496 4.22 2.273-0.943 1.555-1.543 3.955-2.895 4.503-3.881 1.575-8.006 2.747-12.143 3.454-11.057 1.89-22.169 3.453-34.677 5.363 2.529 1.009 3.657 1.503 4.816 1.913 6.81 2.409 13.727 4.562 20.372 7.363 1.651 0.696 2.427 3.466 3.605 5.283-1.856 1.038-3.609 2.544-5.598 2.99-2.334 0.523-4.874 0.122-7.118 0.122 3.319 3.674 7.173 6.64 9.272 10.55 3.615 6.733-5.164 6.754-6.512 11.384-5.871-3.092-4.933-6.534-1.331-9.904-13.943-13.117-13.943-13.117-7.337-19.412-6.904-2.069-13.705-3.815-20.257-6.236-2.2-0.813-3.763-3.347-5.618-5.095 2.131-1.447 4.086-3.417 6.438-4.211 2.973-1.005 6.266-1.073 9.426-1.511 9.574-1.326 19.15-2.636 28.726-3.952m-79.334-244.5c12.837-3.212 24.75-6.071 36.572-9.265 2.081-0.562 4.182-2.192 5.6-3.892 12.443-14.919 27.761-26.216 44.34-36.054 26.842-15.926 53.96-16.931 80.73-0.604 9.86 6.013 18.782 13.758 27.438 21.492 7.886 7.045 16.161 14.259 21.943 22.944 17.367 26.087 28.547 55.124 35.648 85.518 2.993 12.812 12.263 19.509 21.017 28.802 3.002-5.492 5.265-10.005 7.929-14.269 0.761-1.22 2.642-2.229 4.087-2.343 0.818-0.064 2.734 2.12 2.544 2.898-1.163 4.764-1.409 10.81-4.498 13.86-12.377 12.222-25.541 23.67-38.771 34.985-2.495 2.133-9.384 3.669-9.581 3.256-2.396-5.024 1.959-7.523 5.077-10.128 5.873-4.907 12.181-9.303 17.924-14.349 1.263-1.109 2.01-5.04 1.149-5.981-7.151-7.813-14.303-15.723-22.265-22.678-28.631-25.01-61.801-42.811-95.977-58.787-31.899-14.912-65.459-23.559-100.7-25.96-12.101-0.825-24.008-1.915-36.201 1.656 0.396 1.892 0.952 3.5 1.02 5.128 0.095 2.263-0.176 4.541-0.29 6.813-2.004-1.456-5.201-2.525-5.82-4.431-4.388-13.518-8.286-27.197-12.221-40.859-0.415-1.44-0.055-3.103-0.055-5.061 6.685 2.127 7.877 7.249 9.159 12.478 1.293 5.278 2.95 10.467 4.2 14.831m0.506 284.57c2.242 21.373 4.43 41.622 6.478 61.885 3.12 30.881-4.191 57.867-29.474 78.041-3.454 2.757-6.592 7.192-10.433 7.922-8.848 1.681-18.204 2.956-27.06 1.911-27.622-3.258-52.772-14.589-77.402-26.722-10.187-5.019-20.188-9.635-24.917-22.852-7.723-21.583-12.813-43.593-16.834-65.94-2.506-13.929-3.682-28.097-5.453-42.144-8.015 0.501-13.502 8.608-22.21 6.596 1.361-2.071 3.004-3.541 4.872-4.623 20.193-11.689 41.456-20.738 64.471-25.114 20.875-3.97 41.68-8.231 63.252-5.205 13.015 1.825 26.268 1.889 39.353 3.318 9.278 1.013 18.452 2.984 27.673 4.527-1.246 1.715-2.403 2.199-3.544 2.715-7.291 3.3-7.977 6.054-3.498 12.695 4.296 6.371 10.078 3.692 15.541 2.722 3.085-0.547 6.079-1.975 9.148-2.09 1.724-0.064 3.518 1.738 5.281 2.699-1.31 1.459-2.363 3.379-3.982 4.285-3.858 2.161-7.985 3.844-11.262 5.374m318.7-30.702c0 27.753 0.193 55.126-0.062 82.494-0.198 21.255-3.989 42.071-12.09 61.653-4.566 11.036-10.804 21.735-18.07 31.222-12.778 16.682-32.351 16.075-50.333 14.813-24.291-1.703-45.573-12.897-65.116-27.135-1.311-0.956-2.319-2.503-3.113-3.968-19.912-36.75-33.385-75.862-41.928-116.66-2.068-9.876-2.229-20.151-3.273-30.306-3.473-0.368-7.029-0.744-10.585-1.121-0.149-0.838-0.299-1.676-0.45-2.514 3.694-1.368 7.29-3.389 11.103-3.959 6.791-1.016 8.322-4.871 7.728-10.962-5.794 0.756-10.987 6.495-17.512 0.379 1.801-1.317 3.099-2.615 4.663-3.35 7.888-3.709 15.666-7.761 23.828-10.751 8.734-3.2 17.718-6.902 26.827-7.696 43.698-3.805 87.156-2.623 129.61 10.172 16.123 4.86 32.087 10.176 45.549 20.842 1.899 1.504 3.31 3.626 4.946 5.462l-1.367 1.833c-10.035-3.454-20.071-6.908-30.351-10.446m-264.3-366.16c-20.651 1.657-40.804 2.965-60.887 4.967-22.934 2.286-45.066 8.078-66.961 15.367-29.622 9.861-55.076 26.386-78.971 45.912-19.417 15.867-36.077 34.339-51.273 54.119-12.008 15.633-18.556 34.224-22.916 52.961-4.652 19.992-7.025 40.655-8.723 61.164-3.443 41.601-3.889 83.296-2.194 125.05 2.056 50.633 10.997 100.19 21.341 149.6 10.392 49.642 24.323 98.171 41.568 145.94 15.492 42.913 32.52 84.974 54.109 125.17 2.704 5.034 4.963 10.308 7.406 15.481 3.688 7.806 10.353 10.565 18.46 11.537 31.018 3.716 60.531-3.318 89.783-12.274 17.896-5.479 35.721-11.192 53.62-16.661 10.11-3.09 20.253-6.106 30.505-8.659 2.062-0.514 4.87 0.858 7.009 1.98 4.766 2.498 9.328 5.388 14.691 8.541 6.809-7.685 15.884-6.847 26.147-5.977 47.371 4.013 94.805 4.805 142.06-2.071 30.915-4.499 61.922-8.498 92.675-13.93 17.073-3.015 33.702-8.535 50.547-12.865 2.235-0.574 4.564-0.786 8.316-1.409-1.661-8.789-2.523-17.891-5.148-26.451-10.715-34.952-21.991-69.732-32.954-104.61-0.507-1.612-0.731-4.479 0.159-5.182 7.847-6.194 9.368-15.627 12.576-24.077 7.25-19.095 7.506-39.338 7.255-59.25-0.358-28.481-2.072-56.974-4.1-85.399-2.572-36.072-6.4-72.054-9.035-108.12-3.876-53.044-7.027-106.14-10.847-159.19-0.761-10.566-2.819-21.083-4.996-31.473-0.601-2.867-3.28-6-5.872-7.642-34.856-22.082-69.711-44.178-104.91-65.702-14.85-9.08-30.514-16.829-46.923-25.793 10.87 18.922 21.176 36.862 31.482 54.802-16.119-21.322-33.646-41.293-53.473-58.888-24.715-21.932-53.506-36.562-86.987-38.901-25.324-1.769-45.35 9.005-57.84 31.273-8.276 14.757-14.881 30.451-22.841 46.986-0.204-2.919-1-5.519-0.453-7.795 5.661-23.548 13.985-45.991 28.217-65.887 0.21-0.294 0.129-0.797 0.38-2.645" style="fill:#f2c7a0"/></g><g transform="translate(883.74 740.71)"><path d="m0 0c-1.313-0.305-2.626-0.611-3.939-0.917 4.753-19.158 9.506-38.315 14.259-57.472 1.036 0.252 2.073 0.503 3.111 0.755-4.477 19.211-8.954 38.423-13.431 57.634m120.29-21.509c0.28 4.892-1.297 8.445-6.779 8.853-5.158 0.384-10.359-4.168-10.556-9.054-0.187-4.68 5.407-12.602 8.903-12.607 4.157-6e-3 8.058 5.926 8.432 12.808m-45.94-151.66c-0.925 2.03-1.869 4.051-2.772 6.09-10.571 23.875-21.261 47.698-31.648 71.653-5.148 11.875-9.626 24.039-14.674 35.958-0.908 2.143-3.123 3.733-4.734 5.579-0.693-0.547-1.387-1.093-2.08-1.639 17.878-39.556 24.881-84.12 55.908-117.64m148.4 228.55c22.178-28.089 48.082-50.234 81.022-63.574-6.863-26.888-26.145-45.826-37.542-68.82-14.544 0.034-24.686 8.365-35.27 15.875-9.505 6.745-17.21 14.079-16.583 27.299 0.275 5.793-1.992 11.708-3.106 17.567-0.552-0.07-1.106-0.139-1.659-0.209-0.469-8.354-1.671-16.744-1.268-25.055 1.134-23.368 3.563-46.683 4.312-70.057 1.109-34.674 1.133-69.381 1.838-104.07 0.095-4.649-1.313-6.261-5.952-6.69-24.726-2.289-49.416-4.967-74.133-7.357-16.298-1.577-32.618-2.929-48.933-4.322-22.902-1.954-44.779 3.403-66.417 9.847-1.808 0.539-3.61 4.41-3.72 6.81-0.751 16.369-0.135 32.845-1.689 49.122-2.866 30.034-6.858 59.962-10.557 89.913-0.454 3.675-1.983 7.218-3.267 11.702-27.401-10.714-54.049-21.134-82.183-32.135-1.959 12.846-3.636 25.123-5.734 37.327-3.636 21.152-7.543 42.258-11.304 63.39-0.286 1.609-0.319 3.263-0.435 4.523 26.768 7.857 53.147 15.001 81.203 6.124 1.183-16.181-0.22-33.47 7.957-49.276 2.415 16.387-1.618 32.488-2.205 48.812 11.487-1.016 22.626-1.887 33.724-3.13 1.383-0.155 3.013-2.057 3.737-3.537 7.847-16.055 15.536-32.188 23.271-48.298 0.46-0.958 0.882-1.944 1.437-2.846 4.856-7.887 7.377-7.744 11.928 0.355 7.594 13.514 15.326 26.952 23.012 40.415 1.459 2.555 2.976 5.077 4.466 7.614 1.039-0.71 2.077-1.419 3.115-2.129 0-2.858-0.055-5.718 0.01-8.575 0.288-12.766 0.676-25.53 0.887-38.297 0.089-5.376 2.504-8.122 7.905-7.251 5.637 0.909 11.345 1.857 16.711 3.696 1.717 0.588 2.445 4.066 3.625 6.222-2.16 0.55-4.402 1.764-6.463 1.511-4.301-0.531-8.507-1.837-14.056-3.128v48.904c4.607 0.877 9.357 2.061 14.177 2.535 1.54 0.151 3.886-1.158 4.806-2.515 7.164-10.562 13.891-21.421 21.11-31.943 5.933-8.647 9.648-8.509 15.304 0.655 10.211 16.543 19.275 33.774 22.677 53.091 1.51 8.573 6.43 13.234 13.219 16.488 10.136 4.857 20.63 8.967 31.023 13.417" style="fill:#8dbed4"/></g><g transform="translate(1163 671.85)"><path d="m0 0c7.443 12.749 14.398 24.663 21.524 36.869 12.299-9.024 25.469-15.82 40.586-17.558 26.602-3.059 53.116-2.634 79.238 3.983 14.422 3.653 29.059 6.825 43.023 11.825 21.583 7.729 38.183 23.13 53.252 39.678 16.117 17.698 29.265 37.807 37.898 60.202 5.088 13.198 7.98 27.306 11.071 41.18 1.14 5.119 3.113 7.02 8.111 7.485 4.137 0.384 8.248 1.751 12.185 3.192 1.245 0.455 1.889 2.553 2.808 3.899-1.281 0.858-2.484 2.276-3.859 2.469-3.976 0.559-8.031 0.954-12.038 0.833-34.826-1.046-72.195 24.648-80.203 65.42-3.616 18.409-4.627 36.846-3.396 55.223 1.209 18.043 1.253 16.914 18.432 19.037 6.586 0.814 12.997 3.303 19.394 5.326 7.889 2.495 15.751 5.11 23.502 8.005 31.226 11.66 59.763 28.743 89.02 44.374 2.814 1.503 5.608 3.045 8.444 4.507 13.729 7.075 22.574 2.943 27.263-11.772 5.015-15.732 3.149-30.578-3.773-45.165-10.134-21.357-26.979-36.013-47.826-45.915-11.835-5.62-24.437-9.867-37.048-13.499-5.633-1.622-12.145-0.053-18.248-0.257-2.111-0.071-4.19-1.121-6.283-1.724 1.637-1.588 3.185-4.422 4.927-4.547 7.568-0.542 15.469-1.587 22.735-0.038 11.769 2.51 23.136 6.911 35.264 10.699-0.517 0.399 0.066 0.167 0.076-0.09 1.078-25.7 3.255-51.532-8.763-75.721-0.565-1.136-1.192-2.366-1.275-3.587-0.103-1.531 0.326-3.098 0.525-4.65 1.742 0.351 4.059 0.13 5.1 1.178 1.882 1.895 3.333 4.407 4.387 6.905 6.183 14.671 9.639 29.967 9.444 45.932-0.126 10.212-0.539 20.429-1.198 30.62-0.219 3.391 0.726 5.11 3.486 7.221 9.737 7.448 19.179 15.299 28.468 23.306 3.106 2.678 5.015 3.577 9.272 1.3 7.616-4.072 15.816-1.969 23.191 1.654 4.317 2.122 8.014 5.506 11.626 8.064 19.736-4.828 20.838-22.635 25.611-37.46 9.221-28.638-5.868-60.601-29.07-75.642-22.441-14.548-46.504-23.725-73.414-24.581-2.847-0.091-5.719 0.639-9.173 1.061-6.591-63.551-39.6-112.92-87.761-153.05-14.929-12.44-32.128-21.811-50.09-30.185-22.498-10.489-45.401-19.351-69.263-25.466-38.95-9.981-77.526-9.311-114.79 7.878-3.725 1.718-7.593 3.144-11.236 5.014-3.557 1.826-6.912 4.047-11.156 6.57" style="fill:#f2c7a0"/></g><g transform="translate(914.91 1583.1)"><path d="m0 0c2.828-10.211 11.074-17.298 16.89-26.884-3.879 2.199-6.931 3.93-9.983 5.66l-1.527-1.647c2.329-3.211 4.657-6.421 7.062-9.736-10.982 3.53-21.81 7.04-32.658 10.49-23.023 7.322-46.669 11.253-70.726 12.942-11.377 0.798-22.759 2.387-34.121 2.249-10.701-0.13-14.567 7.513-17.566 14.659-3.874 9.232-5.451 19.426-6.829 29.578 2.967-2.616 5.532-6.262 8.992-7.613 5.433-2.121 6.418 2.881 7.266 5.963 4.771-1.503 9.968-4.873 13.946-3.785 2.674 0.731 3.625 7.767 5.855 13.224-0.868-0.329-0.123 0.154 0.657 0.221 12.225 1.047 24.514 1.608 36.65 3.28 4.247 0.585 8.085 3.951 12.186 5.885 1.69 0.798 3.798 2.007 5.348 1.606 20.32-5.255 41.058-3.259 61.641-3.791 3.589-0.093 7.215 0.298 10.788 0.752 4.429 0.563 7.91 0.104 12.263-2.484 4.324-2.57 11.141-2.45 16.504-1.493 17.128 3.053 34.088 7.042 50.868 10.617 6.437-11.313 7.013-10.541 19.707-9.601 19.48 1.442 39.136 2.377 58.617 1.441 20.981-1.008 41.868-4.258 62.749-6.898 5.208-0.658 10.224-2.782 15.352-4.148 17.67-4.706 35.679-8.416 52.929-14.34 15.814-5.43 30.981-12.882 46.114-20.11 11.24-5.369 22.161-11.487 32.845-17.901 5.024-3.017 9.833-6.963 13.525-11.48 4.663-5.703 4.427-12.407 0.991-19.163-0.984-1.934-0.041-4.847 0.019-7.312 1.97 1.433 4.363 2.534 5.806 4.379 1.883 2.41 3.014 5.407 5.532 7.836-0.49-7.229-0.638-14.504-1.604-21.668-0.533-3.952-2.93-6.541-7.822-6.759-9.964-0.444-19.622-0.54-29.637 1.608-39.905 8.563-79.789 17.455-120.63 20.654-26.076 2.042-52.213 3.643-78.175 6.697-23.737 2.793-47.097-2.407-70.673-1.513-3.339 0.127-6.687 0.018-10.604 0.018 3.492 10.129 6.732 19.523 9.971 28.917-0.851 0.459-1.702 0.919-2.554 1.378-5.789-7.175-8.661-17.256-19.484-19.162-2.699 7.857-0.276 18.468-6.223 26.981-3.837-9.349-1.357-18.708-1.015-29.99-9.804 16.724-18.67 31.847-27.536 46.97-0.887-0.323-1.773-0.645-2.66-0.968 0.284-2.182 0.083-4.58 0.941-6.506 2.855-6.407 5.907-12.743 9.25-18.908 1.846-3.404 2.599-6.15 0.461-9.93-1.805-3.191-2.152-7.207-3.654-12.729-2.607 3.028-4.719 4.851-6.05 7.13-7.831 13.414-15.423 26.968-23.243 40.389-1.453 2.494-3.58 4.596-6.301 6.278 0.941-20.932 14.892-35.944 23.863-53.133-0.526-0.355-1.053-0.709-1.58-1.064-10.06 11.664-20.12 23.329-30.18 34.993-0.85-0.693-1.699-1.386-2.549-2.079" style="fill:#8c6239"/></g><g transform="translate(923.53 356.61)"><path d="m0 0c-0.555 0.289-1.11 0.577-1.664 0.865-1.364-0.857-2.976-1.483-4.033-2.624-1.609-1.736-2.86-3.81-4.115-5.832-0.048-0.078 1.799-1.785 2.168-1.592 2.328 1.213 4.791 2.453 6.582 4.296 0.986 1.014 0.748 3.219 1.062 4.887m115.02 117.41c17.826 3.266 34.751 6.37 51.677 9.466 9.554 1.748 15.012-3.164 13.511-12.699-6.709-42.632-13.359-85.275-20.518-127.83-2.536-15.073-6.574-29.89-9.649-44.881-0.56-2.728 0.257-5.728 0.374-8.606 0.336-8.262 2.628-17.145 0.308-24.586-1.759-5.644-8.871-10.314-14.568-13.869-8.253-5.151-17.806-8.229-26.019-13.432-9.384-5.944-17.906-13.249-26.883-20.024 0 6.666-0.553 14.563 0.092 22.36 3.493 42.168 14.269 82.438 32.065 120.85 1.26 2.718 1.345 6.064 1.597 9.15 1.26 15.408 2.384 30.827 3.586 46.241 0.083 1.053 0.44 2.082 0.609 3.132 2.106 13.07 2.104 13.069 15.374 16.147 0.805 0.187 1.597 0.43 2.614 1.825-3.112 0.713-6.211 1.98-9.337 2.054-34.099 0.804-67.673-1.674-99.073-16.832-0.957-0.461-1.942-1.117-2.947-1.183-10.35-0.682-12.698-7.186-14.065-16.389-4.061-27.343-9.921-54.428-13.623-81.811-3.042-22.495-4.004-45.272-5.913-68.237 0.582 0.128 0.034-0.169-0.174-0.013-13.764 10.324-29.601 15.622-46.191 19.091-5.061 1.058-10.186 1.853-15.184 3.147-1.224 0.317-2.848 2.067-2.931 3.255-0.252 3.565-0.526 7.379 0.448 10.736 3.551 12.235 6.548 24.796 11.708 36.361 8.645 19.373 19.07 37.944 28.12 57.147 2.448 5.194 3.368 11.399 3.756 17.222 1.695 25.474 2.931 50.979 4.361 76.472 0.079 1.41 0.406 2.806 0.622 4.243 11.523-2.664 22.57-5.623 33.783-7.676 8.33-1.525 16.859-2.228 25.331-2.601 4.321-0.191 6.037-1.406 6.272-5.772 0.448-8.29 0.701-7.874 9.083-6.914 14.578 1.67 29.234 2.641 43.851 3.976 2.938 0.268 5.835 1.113 8.771 1.239 6.129 0.265 9.613 2.933 9.162 9.243" style="fill:#808080"/></g><g transform="translate(1405.8 1019.2)"><path d="m0 0c-9.115 9.977-5.089 19.788-4.866 29.052 0.558 23.178 1.611 46.343 2.434 69.515 0.86 24.227 2.453 48.46 2.327 72.683-0.156 30.003-3.107 59.817-9.131 89.331-3.228 15.815-3.828 32.211-7.667 47.842-2.498 10.171 0.58 16.959 7.283 22.944 7.86 7.018 15.816 14.23 24.771 19.634 8.899 5.369 16.142 1.456 20.167-8.292 9.5-23.012 14.54-46.996 17.136-71.701 4.014-38.211 5.344-76.419 0.402-114.58-4.301-33.203-12.04-65.697-22.371-97.569-1.08-3.33-1.566-7.1-1.201-10.547 0.181-1.721 2.909-3.173 4.484-4.747 1.255 1.441 3.253 2.704 3.648 4.351 3.92 16.314 10.69 31.326 20.103 45.157 10.25 15.06 23.775 26.614 39.456 35.598 6.882 3.943 14.293 6.764 22.546 3.724 5.668-2.088 9.732-5.554 9.779-11.958 0.14-18.89 0.147-37.781-0.047-56.67-0.018-1.753-1.399-4.318-2.887-5.099-14.243-7.487-28.646-14.67-43.616-22.251-3.062 15.633-0.485 29.706 1.025 43.799 0.431 4.018 1.24 8.012 1.389 12.035 0.059 1.59-1.209 3.229-1.873 4.846-1.385-1.09-3.689-1.962-4.007-3.305-1.902-8.036-4.018-16.118-4.781-24.304-1.043-11.195-0.883-22.499-1.401-33.748-0.066-1.445-0.727-3.687-1.747-4.145-24.018-10.775-48.123-21.355-71.355-31.594" style="fill:#f2c7a0"/></g><g transform="translate(849.11 376.46)"><path d="m0 0c-2.598 2.174-5.608 4.009-7.72 6.581-8.07 9.834-16.096 19.73-23.523 30.045-1.406 1.954-1.079 6.734 0.419 8.738 1.399 1.873 5.576 2.803 8.252 2.382 8.898-1.403 15.022-7.325 20.684-13.94 1.116-1.305 4.338-2.091 5.929-1.458 4.302 1.711 8.587 3.889 12.19 6.749 1.746 1.384 2.601 4.715 2.589 7.159-6e-3 1.324-2.514 2.92-4.184 3.893-3.345 1.946-7.61 2.832-10.201 5.441-5.37 5.406-10.078 11.512-14.695 17.606-2.623 3.462-4.844 3.553-9.366 3.247-9.748-0.659-19.853 0.505-29.479 2.518-8.875 1.856-17.399 5.575-25.923 8.873-11.89 4.6-23.714 9.39-35.425 14.428-16.692 7.181-27.572 20.44-35.233 36.235-16.836 34.709-20.792 71.377-16.497 109.5 2.935 26.041 11.684 49.25 29.441 68.483 10.637 11.521 22.19 22.255 33.913 32.689 5.159 4.592 11.667 7.728 17.745 11.207 5.225 2.992 8.159 1.655 9.907-4.218 0.785-2.638 1.697-5.458 1.476-8.106-0.168-2.02-1.539-4.821-3.208-5.706-31.148-16.538-51.182-40.983-54.294-77.025-1.479-17.139-4.077-34.708-1.878-51.52 3.807-29.109 13.859-55.948 39.464-74.416 21.358-15.405 45.761-23.199 70.509-30.098 5.4-1.505 12.074 1.132 18.075 2.305 10.638 2.079 21.178 4.659 31.82 6.719 7.509 1.454 10.616-0.418 11.624-7.848 0.995-7.332 1.316-14.839 1.055-22.238-0.628-17.821-2.308-35.618-2.515-53.437-0.138-11.915-5.073-19.548-15.593-24.449-8.528-3.973-16.818-8.459-25.213-12.718-0.049 0.792-0.097 1.583-0.145 2.375" style="fill:#f2c7a0"/></g><g transform="translate(863.71 139.05)"><path d="m0 0c-18.195 1.121-41.973 2.202-65.678 4.169-18.883 1.567-23.979 9.278-16.843 28.601 3.833 10.379 10.361 18.429 19.707 24.295 29.07 18.243 59.493 28.104 93.785 15.928 12.645-4.49 22.736-12.24 28.335-24.194 4.773-10.191 5.476-21.611 0.497-32.126-1.789-3.778-5.938-7.452-9.869-9.019-14.154-5.643-29.13-7.605-49.934-7.654" style="fill:#736357"/></g><g transform="translate(1284.9 1156.5)"><path d="m0 0c1.373 10.836 2.636 21.686 4.15 32.502 1.53 10.941 3.235 21.858 5.016 32.761 0.741 4.543 6.939 8.008 13.576 8.524 29.165 2.265 54.962-23.672 55.141-49.521 0.074-10.772 2.069-21.674 0.949-32.279-2.15-20.366-12.1-37.142-28.528-49.429-4.165-3.115-10.063-5.005-15.304-5.352-9.611-0.635-19.413-0.398-28.971 0.796-7.741 0.967-11.328 5.996-10.884 13.943 0.521 9.329 1.978 18.607 3.076 27.901 0.097 0.82 0.379 1.715 0.852 2.376 6.293 8.783 12.636 17.529 19.163 26.558 11.289-7.291 8.267-21.157 15.29-29.916 7.283 7.585 2.651 24.752-8.946 34.865 6.747 7.192 14.373 12.92 23.486 16.802 2.011 0.856 3.444 3.068 5.143 4.656-2.401 0.948-5 2.995-7.159 2.605-4.058-0.734-8.67-1.966-11.625-4.596-10.113-8.998-19.643-18.656-29.301-28.158-1.59-1.564-2.705-3.61-4.04-5.433-0.361 0.131-0.722 0.263-1.084 0.395" style="fill:#f2aa83"/></g><g transform="translate(1306.4 1506.3)"><path d="m0 0c11.768-0.549 13.361-1.019 15.923-11.452 2.713-11.045 5.387-22.469 5.41-33.733 0.059-28.693-0.077-57.504-2.613-86.049-2.004-22.543-6.876-44.948-12.001-67.061-3.967-17.119-10.263-33.702-15.613-50.494-0.673-2.111-1.89-4.048-2.855-6.065-0.538 0.099-1.078 0.198-1.616 0.297 0 6.85-0.526 13.747 0.089 20.541 2.856 31.526-3.044 61.379-16.405 89.903-0.991 2.117-1.851 4.392-3.284 6.184-3.643 4.557-3.438 9.284-1.576 14.413 13.156 36.218 23.355 73.297 32.073 110.8 0.955 4.11 1.617 8.29 2.468 12.715" style="fill:#8c6239"/></g><g transform="translate(1611.9 1102.9)"><path d="m0 0c-2.068-29.051-7.519-60.353-20.774-89.852-4.188-9.322-10.835-16.389-21.791-17.335-2.634-0.228-6.536 0.202-7.787 1.876-1.272 1.7-1.022 6.06 0.353 7.955 5.976 8.235 8.232 17.409 9.543 27.293 1.96 14.772-2.01 27.988-9.967 39.874-2.626 3.922-8.082 6.665-12.813 8.248-4.142 1.386-4.056 3.952-4.107 6.726-0.239 12.979-0.24 25.963-0.354 38.945-0.107 12.201 8.973 25.424 20.784 28.353 8.574 2.126 17.528 2.897 26.364 3.739 5.707 0.543 9.424-2.424 11.538-8.014 5.472-14.47 8.667-29.334 9.011-47.808" style="fill:#f2c7a0"/></g><g transform="translate(1031.8 132.29)"><path d="m0 0c-8.676 2.281-17.463 4.216-25.988 6.963-5.825 1.878-6.124 6.653-4.252 11.846 7.092 19.668 17.616 35.845 38.499 43.893 19.512 7.519 39.939 9.433 59.525 5.798 27.421-5.089 36.396-21.201 35.387-48.317-0.088-2.36-3.69-6.105-6.186-6.613-15.167-3.083-30.46-5.599-45.769-7.922-8.384-1.273-16.872-1.934-25.333-2.616-8.466-0.683-16.957-1.048-25.436-1.552z" style="fill:#736357"/></g><g transform="translate(661.12 1306.2)"><path d="m0 0c-4.489 56.396 0.42 111.86 16.171 166.11 5.56 19.148 12.559 37.9 19.529 56.599 1.505 4.037 5.714 7.065 9.74 9.861-8.759-24.585-19.849-48.064-23.349-74.896 4.371 11.837 7.743 23.154 12.646 33.764 8.372 18.112 17.363 35.962 26.77 53.56 5.056 9.457 15.374 12.024 24.642 15.556 0.704 0.269 1.701-0.012 2.493-0.258 0.758-0.236 1.426-0.76 2.752-1.505-39.612-83.113-67.024-170.36-91.394-258.79" style="fill:#8c6239"/></g><g transform="translate(641.19 1210.6)"><path d="m0 0c-5.157 12.977-9.533 24.949-14.71 36.564-2.2 4.937-5.897 9.27-9.323 13.551-0.829 1.036-3.279 0.775-4.983 1.11 0.095-1.546-0.265-3.311 0.358-4.602 4.031-8.354 8.276-16.605 12.35-24.69-13.399-10.584-19.805-34.398-12.788-50.961 1.049 3.144 2.361 6.228 3.093 9.444 1.837 8.072 3.132 16.276 5.221 24.277 0.908 3.476 3.231 6.583 5.076 10.179 15.746-25.791 11.613-52.232 6.6-79.336-9.134 1.732-16.136 7.07-22.334 13.48-12.603 13.035-18.409 29.415-21.93 46.727-4.718 23.194-2.165 45.685 7.551 67.265 6.92 15.37 20.205 21.196 35.881 22.43 4.788 0.377 10.137-0.349 14.512-2.235 5.757-2.481 9.115-10.981 8.044-16.685-3.845-20.459-7.689-40.918-11.541-61.375-0.264-1.403-0.584-2.796-1.077-5.143" style="fill:#f2aa83"/></g><g transform="translate(910.27 127.62)"><path d="m0 0c8.057-1.355 13.871 1.661 15.601 7.23-0.939-0.238-1.773-0.308-2.474-0.651-3.948-1.933-7.865-3.931-13.127-6.579m-18.839-3.83c-0.091 0.638-0.184 1.276-0.275 1.914-38.692 2.539-78.177-6.246-116.26 8.024 1.875-2.775 3.882-4.762 6.285-5.571 6.623-2.231 13.372-5.454 20.143-5.639 26.304-0.714 52.636-0.469 78.956-0.39 3.718 0.011 7.431 1.082 11.147 1.662m-118.27 24.441c8.931-11.66 22.469-12.719 35.543-13.802 21.154-1.752 42.384-3.28 63.591-3.412 11.972-0.074 23.987 2.662 35.936 4.445 9.506 1.418 16.668 7.057 23.917 15.548 1.89-4.777 4.56-8.481 4.562-12.185 4e-3 -7.15-0.944-14.437-2.656-21.381-0.659-2.673-4.147-5.166-6.922-6.699-7.138-3.942-14.292-9.387-21.985-10.514-26.112-3.825-52.589-4.701-78.818-1.615-17.006 2.002-33.712 6.586-50.529 10.122-1.306 0.275-3.18 1.169-3.517 2.194-2.422 7.368-5.081 14.735-6.531 22.319-1.171 6.122-0.347 12.347 7.409 14.98" style="fill:#333"/></g><g transform="translate(811.48 212.78)"><path d="m0 0c-0.864 13.365 2.955 24.408 8.423 34.684 4.642 8.721 13.511 12.641 22.588 15.526 23.76 7.551 45.959 3.745 65.928-10.713 17.456-12.638 23.37-27.866 18.496-49.929-5.24 4.448-10.177 8.892-15.382 12.997-8.234 6.494-17.515 9.921-28.196 10.271-24.658 0.809-48.874-0.471-71.857-12.836" style="fill:#b3b3b3"/></g><g transform="translate(1014.2 120.18)"><path d="m0 0c2.42-0.964 3.149-1.442 3.925-1.536 32.841-4.011 65.671-4.979 98.415 0.843 3.055 0.542 5.905 2.233 8.794 3.37-36.756-0.886-73.046-1.76-111.13-2.677m131.44 22.848c12.032-16.868 4.193-27.487-10.475-32.435-8.111-2.736-17.172-2.522-25.703-4.168-26.457-5.106-53.149-6.96-80.004-5.498-9.26 0.504-18.455 2.546-27.626 4.187-4.059 0.727-6.728 3.185-7.385 7.701-0.286 1.962-2.019 3.67-2.669 5.635-0.915 2.768-2.137 5.716-1.947 8.5 0.243 3.563 2.435 7.127 6.693 5.352 16.247-6.77 33.233-6.761 50.263-5.897 16.994 0.861 34.068 1.541 50.898 3.832 14.049 1.912 27.816 5.958 41.658 9.27 2.095 0.501 3.915 2.152 6.297 3.521" style="fill:#333"/></g><g transform="translate(1619.2 1122.7)"><path d="m0 0c9.518 3.408 14.345 1.729 18.788-5.891 14.326-24.571 12.771-50.05 3.733-75.633-2.951-8.352-7.321-16.315-11.913-23.93-2.535-4.202-6.362-8.206-10.569-10.628-3.177-1.829-8.868-2.662-11.675-0.985-4.303 2.572-6.254 8.007-4.302 13.528 1.698 4.799 4.31 9.347 5.462 14.253 3.048 12.985 4.769 26.319 8.414 39.117 4.765 16.736 4.419 33.46 2.062 50.169" style="fill:#f2c7a0"/></g><g transform="translate(993.74 151.44)"><path d="m0 0c-3.738 6.34-4.996 11.665-3.483 17.467 4.453 17.071 14.136 31.074 25.413 44.322 14.951 17.562 35.106 24.589 56.597 29.121 8.476 1.787 14.789-2.433 18.348-9.455 2.92-5.763 3.972-12.473 6.091-19.562-48.801 8.173-94.141-17.845-102.97-61.893" style="fill:#b3b3b3"/></g><g transform="translate(973.62 500.35)"><path d="m0 0c18.594 0.886 37.207 1.773 56.438 2.689-0.39-8.593-0.434-16.613-1.369-24.528-0.199-1.677-3.534-4.038-5.624-4.268-14.74-1.617-29.533-2.76-44.238-4.048-1.608 9.312-3.326 19.264-5.207 30.155" style="fill:#b3b3b3"/></g><g transform="translate(1094.1 508.57)"><path d="m0 0c-0.028 0.607-0.277 1.205-0.464 1.977-19.637-1.941-38.782-3.834-57.626-5.696 0.769-7.501 1.564-15.262 2.425-23.658 3.062 0.382 5.772 0.484 8.368 1.084 11.177 2.587 22.29 5.452 33.482 7.966 14.045 3.153 14.495 3.606 13.815 18.327m-136.61-5.852c-18.014 1.976-36.121 3.102-54.6 4.557-0.237-0.602-1.501-2.673-1.832-4.884-0.695-4.635-3.052-10.801 3.085-12.799 19.43-6.325 39.309-10.722 59.98-9.803 0.253 0.011 0.483 0.552 0.875 1.031-1.335 0.579-2.592 1.124-5.317 2.305 8.093 2.578 9.519 8.093 7.384 13.183-1.269 3.025-6.072 6.025-9.575 6.41" style="fill:#333"/></g><g transform="translate(938.71 703.99)"><path d="M 0,0 C -7.379,15.032 -14.464,29.465 -22.109,45.039 -4.857,44.251 10.97,43.528 27.266,42.784 17.923,28.124 9.318,14.621 0,0" style="fill:#fff"/></g><g transform="translate(1009.6 748.5)"><path d="M 0,0 C 14.343,6.007 28.777,12.051 44.133,18.482 40.308,0.468 33.426,-16.007 23.333,-32.707 15.151,-21.239 7.501,-10.514 0,0" style="fill:#fff"/></g><g transform="translate(805.9 421.12)"><path d="m0 0c-1.389 2.663-3.799 5.274-3.935 8-0.219 4.378 6.263 10.406 10.699 9.926 5.419-0.585 10.703-2.43 16.045-3.73-0.088-0.53-0.175-1.06-0.262-1.59-4.124-0.738-8.419-0.984-12.323-2.349-4-1.399-7.616-3.893-11.401-5.908 0.393-1.45 0.785-2.899 1.177-4.349" style="fill:#b8865a"/></g><g transform="translate(831.53 446.48)"><path d="m0 0 8.058-9.123c-0.646-0.633-1.291-1.265-1.937-1.897-2.941 2.875-5.883 5.75-8.824 8.625 0.901 0.798 1.802 1.596 2.703 2.395" style="fill:#b8865a"/></g><g transform="translate(1445.3 1574.3)"><path d="m0 0c1.87 9.994 3.113 18.153 4.955 26.174 4.282 18.657 8.76 37.27 13.46 55.825 0.442 1.743 2.795 3.747 4.642 4.263 8.742 2.443 13.492 8.789 16.184 16.65 2.521 7.361 2.013 14.82-3.559 20.986-3.803 4.21-8.572 5.729-13.791 2.803-4.178-2.344-4.715-6.106-2.953-10.814 1.655 0.35 3.156 0.395 4.406 0.979 5.246 2.451 7.984 1.184 8.737-4.744 1.064-8.378-3.861-13.87-9.661-19.388-1.377 1.582-2.398 2.755-4.182 4.805-1.375-2.431-2.897-4.16-3.394-6.146-7.589-30.279-15.044-60.591-22.871-92.271-6.176 0.303-14.215 0.407-22.158 1.337-1.541 0.181-3.383 3.408-3.937 5.53-5.209 19.962-10.071 40.014-15.263 59.98-1.494 5.75-3.55 11.376-5.678 16.933-2.012 5.257-3.978 9.901-10.756 11.945-7.777 2.345-11.38 13.49-7.335 19.689 1.357 2.081 4.762 3.948 7.164 3.868 1.889-0.062 4.066-3.019 5.4-5.14 1.416-2.252 1.988-5.034 2.929-7.586 3.439 1.293 6.894 2.544 10.303 3.911 0.732 0.294 1.295 1.006 2.477 1.964 0.786-2.075 1.139-3.943 2.123-5.379 1.346-1.961 3.094-4.904 4.814-5.007 1.828-0.109 4.409 2.241 5.624 4.17 2.329 3.699 3.925 7.86 6.433 13.1 0.827-3.833 0.937-6.597 2.042-8.881 1.287-2.661 3.135-6.45 5.31-6.881 2.104-0.418 5.012 2.699 7.401 4.486 0.936 0.7 1.42 2.005 2.19 3.155 4.274-7.724 5.035-7.842 12.251-2.617 0.88 0.638 2.172 0.68 3.236 1.092 1.516 0.588 4.212 1.175 4.264 1.914 0.151 2.131-0.295 4.668-1.479 6.369-0.555 0.8-3.548 0.532-5.061-0.121-1.855-0.8-3.318-2.511-5.718-4.448-0.194 2.65-0.045 4.69-0.568 6.541-0.472 1.669-1.548 4.3-2.592 4.417-1.704 0.191-4.235-0.83-5.286-2.205-2.546-3.33-4.439-7.157-7.567-12.419-0.991 5.494-1.475 9.498-2.505 13.357-0.555 2.078-1.931 5.419-3.138 5.509-2.035 0.153-5.084-1.281-6.191-3.015-2.938-4.602-5.066-9.72-7.627-14.855-1.999 3.147-3.257 7.314-5.885 8.535-1.917 0.891-5.638-2.098-8.862-3.49-3.186 4.789-5.509 11.662-14.121 11.453-11.967-0.292-19.33-11.201-15.211-23.814 2.483-7.603 7.234-13.42 15.8-15.063 1.41-0.271 3.465-1.411 3.777-2.547 7.486-27.191 14.774-54.437 22.579-83.459-8.949 2.47-17.171 2.562-22.274 6.597-10.869 8.593-20.926 18.553-29.869 29.171-20.92 24.836-31.869 53.419-29.824 86.472 2.042 32.97 11.735 62.497 36.19 86.005 23.968 23.04 52.653 31.183 85.083 26.916 37.632-4.951 66.667-23.641 83.174-57.999 10.562-21.983 12.754-46.205 8.376-70.546-3.675-20.433-8.321-40.941-21.355-57.473-9.628-12.213-21.335-23.071-33.384-32.993-7.873-6.484-17.945-10.351-27.187-15.087-2.471-1.267-5.512-1.42-10.082-2.513" style="fill:#fcee21"/></g><g transform="translate(1426.7 1485.4)"><path d="m0 0c11.578-3.694 18.751 3.588 28.017 6.526 1.038-1.944 3.778-5.001 3.11-6.283-1.128-2.164-4.318-4.308-6.809-4.525-10.778-0.94-21.615-1.208-32.433-1.657-3.614-0.15-7.265 0.169-10.846-0.217-7.431-0.8-15.149-2.772-17.738 8.529 13.551 8.775 32.007 9.866 46.276 20.324-7.167 1.455-13.482-1.267-19.866-3.241-6.681-2.066-13.254-4.481-19.507-6.618-3.172 3.673-6.113 7.076-8.944 10.353 1.782 3.194 5.574 6.974 5.465 10.639-0.107 3.624-4.153 7.131-6.836 11.248 0.9 0.392 2.462 1.181 4.097 1.769 13.204 4.76 26.476 9.342 39.6 14.311 3.35 1.268 6.249 3.727 8.821 6.82-16.145-1.807-30.627-8.629-45.393-13.67-3.356 4.269-6.573 8.362-8.624 10.971 0.391 5.033 1.2 8.74 0.847 12.334-0.714 7.255 1.175 8.919 8.002 6.881 6.45-1.926 13.063-3.306 19.665-5.211-6.802 0.729-13.604 1.458-20.785 2.228-1.13-4.189 1.859-6.244 5.024-7.024 14.283-3.521 28.696-3.147 42.921 0.244 2.807 0.67 4.867 4.044 7.643 5.42 1.9 0.941 4.445 0.579 5.801 0.712 2.12-5.818 3.968-10.886 5.756-15.789-7.451-16.548-26.908-16.126-38.949-26.821 12.279 0.187 22.255 6.841 33.343 11.393 2.108-2.416 4.168-4.778 6.458-7.404-1.747-1.975-3.414-3.558-4.721-5.396-2.949-4.151-3.975-8.389-0.277-12.815 4.637-5.55 3.902-8.639-2.888-11.691-6.98-3.139-14.087-5.994-21.101-9.058-1.309-0.572-2.443-1.543-5.129-3.282" style="fill:#b3b3b3"/></g><g transform="translate(1442.2 1472.1)"><path d="m0 0c-3.294-13.253-15.289-16.509-25.011-16.737-8.156-0.191-14.279 4.483-16.605 12.456 13.727 1.412 27.242 2.802 41.616 4.281" style="fill:#4d4d4d"/></g><g transform="translate(1134.9 1294.4)"><path d="m0 0c1.474-15.212 10.864-28.931 24.067-40.453 1.871-1.633 4.273-2.851 6.632-3.692 6.036-2.15 8.99-0.675 8.723 5.573-0.286 6.679-1.502 13.587-3.793 19.854-4.624 12.654-11.718 23.646-25.231 28.721-7.403 2.779-10.567 0.602-10.398-10.003m53.133-142.67c-4.714-0.769-8.391-1.158-11.963-1.992-9.904-2.312-19.652-6.029-29.669-6.964-17.234-1.609-35.062-1.183-50.329 7.722-25.715 14.997-42.081 37.86-46.192 67.522-2.126 15.333-0.374 31.205-0.374 46.833-0.643 0.236-1.286 0.473-1.93 0.709-4.027-9.181-9.026-18.07-11.88-27.603-5.975-19.953-10.456-40.35-16.24-60.366-5.011-17.342-4.927-34.704-3.512-52.466 0.652-8.191 2.595-10.437 11.402-12.487 33.928-7.895 68.168-9.746 102.63-4.396 14.472 2.247 28.901 4.963 43.155 8.297 4.345 1.017 10.561 4.077 11.541 7.467 2.421 8.376 2.307 17.486 3.358 27.724m-60.144 155.12c-21.282-1.959-40.883-4.875-57.584-17.58-4.387-3.337-9.358-5.943-10.676-12.047-5.289-24.493-7.405-48.929 2.961-72.66 3.034-6.944 7.582-13.261 11.717-19.684 8.139-12.644 18.993-21.988 34.062-24.935 8.722-1.706 17.683-2.42 26.573-2.986 16.451-1.045 31.213 5.247 45.894 11.487 5.658 2.405 7.328 7.403 7.071 13.108-0.506 11.266-0.875 22.549-1.846 33.778-0.848 9.805-2.444 19.545-3.871 30.557-8.273-7.802-16.12-6.147-22.989-1.867-6.002 3.739-11.593 8.701-16.097 14.168-11.282 13.695-18.429 29.116-15.215 48.661m68.627-178.74c10.28 3.538 20.316 6.992 30.351 10.445l1.367-1.832c-1.637-1.836-3.047-3.958-4.946-5.462-13.462-10.667-29.426-15.982-45.55-20.842-42.449-12.795-85.907-13.977-129.6-10.172-9.109 0.794-18.093 4.496-26.827 7.696-8.162 2.99-15.94 7.042-23.828 10.751-1.564 0.735-2.862 2.033-4.664 3.35 6.525 6.116 11.719 0.377 17.513-0.379 0.594 6.091-0.937 9.946-7.728 10.962-3.813 0.57-7.409 2.591-11.103 3.959l0.45 2.514c3.556 0.377 7.112 0.753 10.585 1.121 1.044 10.155 1.205 20.43 3.273 30.306 8.543 40.8 22.016 79.912 41.928 116.66 0.794 1.465 1.801 3.012 3.113 3.967 19.543 14.239 40.825 25.433 65.116 27.136 17.981 1.262 37.555 1.869 50.333-14.813 7.266-9.487 13.504-20.186 18.07-31.222 8.101-19.582 11.891-40.398 12.09-61.653 0.255-27.368 0.062-54.741 0.062-82.494"/></g><g transform="translate(865.27 1249.1)"><path d="m0 0c-1.693 5.864-2.387 12.294-5.317 17.455-4.124 7.263-10.123 13.434-14.897 20.363-2.944 4.272-6.868 7.884-11.459 5.666-3.831-1.85-7.303-6.287-8.996-10.38-5.498-13.293 7.15-38.2 17.767-44.814 4.388-2.733 8.859-6.301 14.035-3.488 5.548 3.015 8.351 8.322 8.867 15.198m-5.752-85.996c-16.487-8.115-32.534-9.869-49.415-7.144-17.433 2.813-32.235 11.131-40.915 25.603-17.702 29.516-23.921 61.56-13.069 95.462 0.272 0.849 0.192 1.811 0.315 3.149-14.362-5.237-27.255-10.712-32.338-26.679-10.805-33.94-16.267-68.548-15.467-104.18 0.111-4.931 1.959-7.447 6.533-8.386 17.016-3.492 33.887-8.266 51.079-10.195 27.865-3.126 55.469 1.868 82.972 6.086 1.396 0.214 3.385 1.487 3.754 2.682 2.295 7.422 4.204 14.963 6.551 23.603m12.689 74.356c-1.482-1.768-2.128-2.529-2.763-3.299-9.45-11.462-18.274-12.732-30.414-4.337-12.693 8.779-18.887 21.583-21.95 36.156-2.067 9.832-4.041 19.823 5.435 27.619-15.897 5.088-46.233-1.105-55.229-24.355-10.578-27.335-7.767-68.077 22.152-94.523 13.54-11.968 34.995-16.097 49.919-6.012 9.133 6.172 17.206 14.519 24.154 23.173 10.386 12.934 10.237 28.635 8.696 45.578m5.575-78.62c3.277-1.53 7.403-3.213 11.262-5.374 1.619-0.907 2.671-2.826 3.982-4.285-1.763-0.961-3.557-2.764-5.281-2.699-3.069 0.115-6.064 1.543-9.148 2.09-5.463 0.97-11.245 3.649-15.541-2.722-4.479-6.641-3.794-9.395 3.497-12.695 1.142-0.516 2.298-1 3.545-2.715-9.221-1.543-18.395-3.514-27.674-4.527-13.084-1.429-26.337-1.493-39.353-3.319-21.571-3.026-42.376 1.236-63.251 5.205-23.016 4.377-44.278 13.426-64.471 25.115-1.869 1.082-3.511 2.552-4.873 4.623 8.709 2.012 14.196-6.095 22.211-6.596 1.771 14.047 2.947 28.215 5.453 42.144 4.021 22.347 9.11 44.356 16.834 65.94 4.729 13.216 14.729 17.833 24.917 22.852 24.63 12.133 49.779 23.463 77.401 26.722 8.857 1.045 18.212-0.23 27.061-1.911 3.841-0.73 6.979-5.166 10.433-7.922 25.283-20.175 32.594-47.161 29.473-78.041-2.048-20.263-4.235-40.512-6.477-61.885"/></g><g transform="translate(961.7 839.92)"><path d="m0 0c8.028-9.283 16.851-15.449 28.003-16.681 32.24-3.561 57.987 9.447 79.077 32.82 2.423 2.685 2.556 7.435 3.751 11.228-3.371-0.182-6.884 0.192-10.091-0.63-32.072-8.219-64.094-16.631-96.124-25.011-1.185-0.31-2.308-0.854-4.616-1.726m154.2 108.38c-57.143-41.111-118.51-65.788-187.41-75.824 5.819-6.377 10.811-11.247 15.068-16.692 3.709-4.743 8.61-5.941 13.917-5.963 3.087-0.013 6.185 1.251 9.269 1.977 25.624 6.042 51.523 11.139 76.77 18.476 16.591 4.822 32.297 12.749 48.285 19.554 6.508 2.77 9.698 8.614 11.955 15.022 2.61 7.409 5.674 14.682 7.843 22.215 1.847 6.417 2.705 13.119 4.305 21.235m-238.62-74.044c-1.251-4.364-2.907-9.554-4.201-14.832-1.281-5.228-2.473-10.351-9.159-12.478 0 1.959-0.359 3.621 0.056 5.061 3.934 13.662 7.833 27.341 12.22 40.859 0.619 1.906 3.817 2.975 5.821 4.431 0.114-2.272 0.384-4.55 0.289-6.813-0.068-1.628-0.623-3.235-1.019-5.127 12.192-3.571 24.1-2.481 36.201-1.656 35.239 2.4 68.799 11.048 100.7 25.959 34.177 15.977 67.346 33.778 95.978 58.787 7.961 6.955 15.114 14.865 22.264 22.678 0.862 0.942 0.115 4.872-1.148 5.982-5.744 5.045-12.052 9.442-17.925 14.349-3.117 2.604-7.472 5.103-5.076 10.128 0.197 0.412 7.086-1.123 9.58-3.256 13.231-11.316 26.394-22.764 38.771-34.986 3.089-3.05 3.336-9.096 4.499-13.86 0.189-0.778-1.727-2.961-2.544-2.897-1.446 0.113-3.326 1.123-4.087 2.342-2.664 4.264-4.927 8.778-7.929 14.269-8.755-9.292-18.025-15.99-21.018-28.801-7.101-30.394-18.281-59.432-35.647-85.518-5.782-8.686-14.057-15.899-21.944-22.945-8.655-7.733-17.578-15.479-27.437-21.492-26.77-16.326-53.889-15.321-80.73 0.605-16.579 9.837-31.898 21.134-44.341 36.054-1.417 1.699-3.518 3.329-5.599 3.892-11.823 3.193-23.735 6.053-36.572 9.265"/></g><g transform="translate(802.3 1055.2)"><path d="m0 0c-6.776-2.619-11.097-12.075-10.699-23.131 0.42-11.643 9.916-26.918 17.18-29.079-2.109 16.993-4.274 34.429-6.481 52.21m180.2 26.132c-1.097 0.837-1.562 1.295-2.112 1.597-33.711 18.526-69.171 29.303-108.19 24.732-12.822-1.501-25.901-1.317-37.839-7.479-6.658-3.437-12.196-7.824-14.584-15.122-8.707-26.617-10.438-53.267 0.244-79.835 8.347-20.76 23.257-32.73 45.557-37.285 16.658-3.404 32.044-0.597 47.714 3.677 9.859 2.69 18.343 7.68 25.917 14.501 7.725 6.958 15.703 13.635 23.6 20.401 0.39 0.334 1.061 0.339 2.333 0.712-1.315-1.864-2.202-3.121-3.339-4.732 6.744 0.476 12.805 0.908 18.867 1.331 20.54 1.434 37.458 15.418 41.577 35.39 1.805 8.753 2.237 18.082-4.078 25.628-9.346 11.17-19.106 16.824-31.727 8.209-4.842-3.305-9.012-7.621-13.348-11.628-1.568-1.45-2.726-3.345-4.071-5.036 1.314 10.101 3.168 19.689 13.479 24.939m-25.889 37.451c-9.575 1.316-19.151 2.626-28.726 3.952-3.159 0.438-6.453 0.506-9.425 1.511-2.352 0.794-4.307 2.764-6.438 4.211 1.855 1.748 3.418 4.282 5.618 5.095 6.552 2.421 13.353 4.167 20.257 6.236-6.607 6.296-6.607 6.296 7.337 19.412-3.602 3.37-4.54 6.813 1.331 9.904 1.348-4.63 10.127-4.651 6.512-11.384-2.099-3.91-5.953-6.876-9.272-10.55 2.244 0 4.784 0.401 7.118-0.122 1.989-0.446 3.741-1.952 5.598-2.99-1.178-1.816-1.954-4.587-3.605-5.283-6.645-2.801-13.562-4.954-20.373-7.363-1.158-0.41-2.286-0.904-4.815-1.913 12.508-1.91 23.62-3.473 34.677-5.363 4.136-0.707 8.262-1.879 12.143-3.454 1.351-0.548 1.951-2.948 2.895-4.503-1.402-0.776-2.718-1.889-4.22-2.273-6.957-1.782-13.965-3.361-20.583-4.925 12.233-7.08 24.208-14.12 36.319-20.917 2.117-1.189 4.89-2.138 7.217-1.884 31.12 3.402 45.19-36.999 35.001-57.742-12.565-25.584-34.051-34.264-60.424-34.443-8.611-0.058-14.877-2.192-21.407-8.455-19.889-19.074-43.674-31.005-71.869-28.564-17.673 1.53-34.429 8.013-47.965 20.358-4.6 4.195-8.175 9.498-12.435 14.093-1.119 1.208-3 2.242-4.613 2.377-17.831 1.491-29.711 13.941-30.092 31.834-0.364 17.087 3.251 32.2 20.067 40.95 1.218 0.634 1.907 2.667 2.423 4.192 1.019 3.017 1.856 6.108 2.574 9.213 3.823 16.534 15.435 25.038 30.557 30.244 23.13 7.964 46.891 6.784 70.763 5.807 15.866-0.65 31.779-0.123 47.672-0.123 0.061 0.954 0.122 1.908 0.183 2.862"/></g><g transform="translate(1110 1400.8)"><path d="m0 0c-4.901 0.776-9.759 1.293-15.052-2.336 40.469-10.084 79.621-20.662 113.9-44.628 0.865 9.744 1.656 18.666 2.475 27.889-0.903-0.576-1.702-1.28-2.633-1.643-2.98-1.158-6.009-2.189-9.019-3.269-0.579 2.931-1.844 5.927-1.574 8.777 0.403 4.274-0.582 7.255-4.082 9.874-8.341 6.242-16.324 12.965-24.708 19.147-19.045 14.042-38.803 27.001-60.797 36.002-10.173 4.164-20.824 7.144-31.18 10.877-7.742 2.791-15.358 5.928-22.91 8.864-2.572-14.601-5.021-27.536-7.053-40.537-0.747-4.778-3.119-6.505-8.486-6.287 1.957 9.098 3.845 17.874 6 27.894-2.467-3.537-4.035-5.786-5.603-8.036-0.525 0.187-1.05 0.375-1.576 0.563v13.325c-3.403-7.485-5.735-15.181-8.455-22.738-0.676-1.88-2.606-3.31-3.96-4.947-0.891 1.946-1.831 3.871-2.646 5.848-0.259 0.627-0.187 1.39-0.266 2.091-0.364 0.037-0.727 0.075-1.09 0.112-2.901-12.696-5.802-25.392-8.792-38.476 4.237 0 7.676-0.48 10.939 0.076 26.599 4.53 53.402 3.912 80.199 3.353 2.13-0.045 4.238-1.173 6.356-1.798zm-76.96 65.363c1.277 3.697 1.826 6.469 3.161 8.788 1.102 1.914 3.134 3.294 4.754 4.91 1.262-1.778 2.549-3.54 3.772-5.345 0.34-0.502 0.491-1.131 0.72-1.681 0.476 0 1.067-0.162 1.212 0.023 5.693 7.292 5.616 7.124 14.708 3.301 20.967-8.817 42.444-16.553 62.919-26.381 26.747-12.839 50.856-29.903 73.148-49.652 4.924-4.362 5.864-8.688 5.908-15.373 3.763 2.953 6.638 5.612 9.894 7.666 4.47 2.819 8.257 0.908 7.529-4.012-2.291-15.494-5.086-30.913-7.814-47.114-7.453 4.118-13.991 8.577-21.149 11.537-30.42 12.582-60.437 26.586-91.745 36.436-25.551 8.039-52.812 8.055-79.684 3.883-15.817-2.456-16.957-1.524-13.783 14.081 3.853 18.943 8.691 37.686 13.177 56.497 1.666 6.984 3.543 13.918 5.634 22.091 6.686-5.53 4.136-13.056 7.639-19.655"/></g><g transform="translate(882.05 1396.6)"><path d="m0 0c-5.48-0.35-9.536-0.292-13.486-0.911-42.117-6.597-83.225-16.917-123.4-31.434-16.976-6.135-24.538-18.444-29.105-34.097-1.072-3.673-1.059-7.664-1.697-12.715 3.329 1.449 5.205 2.32 7.121 3.093 11.427 4.611 22.634 9.915 34.34 13.655 27.918 8.916 55.734 18.975 86.027 12.385 11.551-2.512 23.327-4.083 35.064-5.576 2.462-0.313 6.169 0.836 7.617 2.653 2.832 3.557 4.476 8.059 6.306 11.58-9.97 9.285 1.06 17.426 0.327 26.04-3.886-2.813-7.517-5.726-11.456-8.134-1.347-0.823-3.468-0.378-5.236-0.513-0.065 1.758-0.666 3.715-0.101 5.24 2.2 5.938 4.77 11.739 7.677 18.734m6.404-10.335c2.431 3.176 4.687 6.515 7.391 9.439 0.905 0.979 3.598 1.708 4.337 1.121 1.211-0.963 2.251-3.214 2.017-4.711-0.617-3.95-1.958-7.787-2.08-12.175 1.866 3.508 3.445 7.218 5.721 10.435 1.095 1.548 3.505 2.164 5.319 3.202 0.468-2.067 1.918-4.543 1.253-6.138-7.282-17.467-14.818-34.831-22.553-52.103-0.672-1.5-3.188-2.87-4.96-3.027-3.116-0.275-6.33 0.351-9.484 0.746-19.583 2.449-39.115 5.479-58.763 7.143-7.625 0.646-15.667-1.095-23.246-2.898-27.991-6.66-55.442-15.034-81.371-27.804-5.867-2.889-7.408-1.748-7.066 4.843 0.076 1.476-0.054 2.968-0.15 4.448-0.826 12.751 3.646 23.303 13.016 31.925 1.024 0.943 1.343 2.617 2.119 3.872 3.533 5.714 7.478 10.61 15.076 11.224 3.497 0.282 6.93 1.98 10.286 3.304 41.573 16.396 84.781 26.622 128.74 33.9 15.567 2.577 15.767 2.095 12.681-13.14-0.121-0.599-0.016-1.243-0.016-1.866 0.578-0.58 1.155-1.16 1.733-1.74"/></g><g transform="translate(938.97 964.76)"><path d="m0 0c2.004-2.205 4.46-4.145 5.931-6.661 5.469-9.359 10.825-18.798 15.793-28.429 2.601-5.044 5.97-7.329 11.672-6.403 4.185 0.679 8.521 0.512 12.669 1.333 14.235 2.815 19.527 14.891 12.394 27.601-2.109 3.757-3.855 7.717-5.842 11.733 1.532 0.439 2.03 0.766 2.293 0.631 13.763-7.016 18.306-29.091 8.425-40.891-0.675-0.806-1.412-1.85-2.32-2.128-11.843-3.615-23.183-10.24-36.276-6.701-1.801 0.487-3.832 2.084-4.708 3.726-7.205 13.502-14.197 27.118-21.137 40.758-0.646 1.271-0.482 2.953-0.694 4.444l1.8 0.987"/></g><g transform="translate(958.09 567.54)"><path d="m0 0c-31.027 33.521-38.03 78.085-55.908 117.64 0.693 0.546 1.387 1.092 2.08 1.639 1.611-1.846 3.826-3.436 4.734-5.579 5.048-11.919 9.526-24.084 14.674-35.958 10.387-23.955 21.077-47.778 31.648-71.653 0.903-2.039 1.847-4.06 2.772-6.09"/></g><g transform="translate(1004 719.2)"><path d="m0 0c-0.374-6.882-4.275-12.814-8.432-12.808-3.496 5e-3 -9.09 7.927-8.902 12.607 0.196 4.886 5.397 9.438 10.555 9.054 5.482-0.408 7.059-3.961 6.779-8.853"/></g><g transform="translate(883.74 740.71)"><path d="m0 0c4.477-19.211 8.954-38.423 13.431-57.634-1.038-0.252-2.075-0.503-3.111-0.755-4.753 19.157-9.506 38.314-14.259 57.472 1.313 0.306 2.626 0.612 3.939 0.917"/></g><g transform="translate(923.53 356.61)"><path d="m0 0c-0.314-1.668-0.076-3.873-1.062-4.887-1.791-1.843-4.254-3.083-6.582-4.296-0.369-0.193-2.216 1.514-2.168 1.592 1.255 2.022 2.506 4.096 4.115 5.832 1.057 1.141 2.669 1.767 4.033 2.624 0.554-0.288 1.109-0.576 1.664-0.865"/></g><g transform="translate(891.43 123.79)"><path d="m0 0c-3.716-0.58-7.43-1.65-11.147-1.662-26.32-0.079-52.652-0.324-78.956 0.391-6.771 0.184-13.52 3.407-20.143 5.638-2.403 0.809-4.41 2.796-6.285 5.571 38.079-14.27 77.564-5.485 116.26-8.024 0.091-0.638 0.183-1.276 0.275-1.914"/></g><g transform="translate(910.27 127.62)"><path d="m0 0c5.262 2.648 9.179 4.646 13.127 6.579 0.701 0.343 1.535 0.413 2.474 0.651-1.73-5.569-7.544-8.585-15.601-7.23"/></g><g transform="translate(1014.2 120.18)"><path d="m0 0c38.088 0.917 74.378 1.791 111.13 2.677-2.889-1.137-5.739-2.828-8.794-3.37-32.744-5.822-65.574-4.854-98.415-0.843-0.776 0.094-1.505 0.572-3.925 1.536"/></g><g transform="translate(1127.9 1306.9)"><path d="m0 0c-3.215-19.545 3.932-34.966 15.214-48.661 4.504-5.467 10.096-10.43 16.098-14.169 6.869-4.279 14.716-5.935 22.988 1.868 1.427-11.012 3.023-20.752 3.871-30.557 0.972-11.229 1.34-22.513 1.847-33.778 0.257-5.706-1.414-10.704-7.071-13.109-14.681-6.24-29.444-12.532-45.894-11.486-8.891 0.565-17.851 1.279-26.573 2.986-15.069 2.947-25.924 12.291-34.062 24.934-4.135 6.424-8.684 12.74-11.718 19.685-10.366 23.73-8.249 48.167-2.961 72.66 1.318 6.104 6.29 8.709 10.676 12.046 16.702 12.706 36.303 15.621 57.585 17.581" style="fill:#0071bc"/></g><g clip-path="url(#clipPath274438)" style="opacity:.5"><path d="m1127.9 1306.9c-3.215-19.545 3.933-34.966 15.215-48.661 4.504-5.467 10.095-10.43 16.097-14.168 6.869-4.28 14.716-5.935 22.989 1.867 1.426-11.012 3.023-20.752 3.871-30.557 0.971-11.229 1.34-22.512 1.846-33.778 0.257-5.705-1.413-10.703-7.071-13.108-14.681-6.24-29.443-12.532-45.894-11.487-8.89 0.566-17.851 1.28-26.573 2.986-15.069 2.947-25.923 12.291-34.062 24.934-4.135 6.424-8.683 12.741-11.717 19.685-10.366 23.731-8.25 48.167-2.961 72.66 1.317 6.104 6.289 8.71 10.675 12.047 16.702 12.705 36.303 15.62 57.585 17.58" style="fill:url(#linearGradient274448)"/></g><g transform="translate(1188 1151.7)"><path d="m0 0c-1.051-10.238-0.938-19.348-3.359-27.724-0.98-3.39-7.195-6.451-11.541-7.467-14.254-3.334-28.683-6.05-43.154-8.297-34.466-5.35-68.706-3.499-102.63 4.396-8.807 2.05-10.75 4.296-11.403 12.487-1.415 17.762-1.499 35.124 3.513 52.466 5.783 20.016 10.265 40.413 16.24 60.366 2.854 9.532 7.852 18.422 11.88 27.603 0.643-0.237 1.286-0.473 1.929-0.709 0-15.628-1.751-31.5 0.374-46.833 4.112-29.662 20.478-52.525 46.192-67.522 15.268-8.905 33.095-9.331 50.33-7.722 10.017 0.935 19.764 4.652 29.668 6.964 3.573 0.834 7.25 1.223 11.964 1.992" style="fill:#fff"/></g><g transform="translate(1134.9 1294.4)"><path d="m0 0c-0.169 10.605 2.995 12.782 10.398 10.003 13.513-5.075 20.607-16.067 25.231-28.721 2.291-6.267 3.507-13.175 3.793-19.854 0.267-6.248-2.687-7.723-8.723-5.573-2.359 0.841-4.761 2.059-6.632 3.692-13.203 11.522-22.593 25.241-24.067 40.453" style="fill:#1a1a1a"/></g><g transform="translate(872.2 1237.4)"><path d="m0 0c1.541-16.943 1.691-32.644-8.695-45.578-6.949-8.654-15.022-17.001-24.155-23.173-14.923-10.085-36.378-5.956-49.919 6.012-29.918 26.446-32.729 67.188-22.152 94.523 8.996 23.25 39.332 29.443 55.229 24.355-9.476-7.796-7.502-17.787-5.435-27.619 3.064-14.573 9.257-27.377 21.951-36.155 12.14-8.396 20.964-7.125 30.413 4.336 0.635 0.77 1.282 1.531 2.763 3.299" style="fill:#0071bc"/></g><g clip-path="url(#clipPath274482)" style="opacity:.5"><path d="m872.2 1237.4c1.541-16.943 1.69-32.644-8.696-45.578-6.948-8.654-15.021-17.001-24.154-23.173-14.924-10.085-36.379-5.956-49.919 6.012-29.919 26.446-32.73 67.188-22.152 94.523 8.996 23.25 39.332 29.443 55.229 24.355-9.476-7.796-7.502-17.787-5.435-27.619 3.063-14.573 9.257-27.377 21.95-36.156 12.14-8.395 20.964-7.125 30.414 4.337 0.635 0.77 1.281 1.531 2.763 3.299" style="fill:url(#linearGradient274492)"/></g><g transform="translate(859.52 1163.1)"><path d="m0 0c-2.346-8.64-4.256-16.181-6.551-23.603-0.369-1.195-2.358-2.468-3.754-2.682-27.503-4.218-55.107-9.212-82.972-6.086-17.192 1.929-34.063 6.703-51.079 10.195-4.574 0.939-6.422 3.454-6.533 8.386-0.8 35.633 4.662 70.241 15.467 104.18 5.083 15.967 17.977 21.443 32.338 26.68-0.123-1.338-0.043-2.301-0.315-3.15-10.852-33.902-4.633-65.945 13.069-95.461 8.68-14.472 23.482-22.79 40.915-25.603 16.881-2.725 32.928-0.971 49.415 7.144" style="fill:#fff"/></g><g transform="translate(865.27 1249.1)"><path d="m0 0c-0.516-6.876-3.319-12.183-8.867-15.198-5.176-2.813-9.647 0.755-14.035 3.488-10.617 6.614-23.265 31.521-17.767 44.814 1.693 4.093 5.165 8.53 8.996 10.38 4.591 2.218 8.515-1.394 11.459-5.666 4.774-6.929 10.773-13.1 14.897-20.363 2.93-5.161 3.624-11.591 5.317-17.455" style="fill:#1a1a1a"/></g><g transform="translate(1115.9 948.3)"><path d="m0 0c-1.599-8.117-2.457-14.819-4.305-21.235-2.168-7.534-5.233-14.807-7.842-22.216-2.257-6.407-5.448-12.252-11.955-15.022-15.988-6.805-31.694-14.732-48.285-19.553-25.247-7.338-51.146-12.435-76.77-18.476-3.084-0.727-6.182-1.99-9.27-1.977-5.306 0.022-10.208 1.22-13.917 5.963-4.257 5.444-9.248 10.315-15.067 16.691 68.903 10.037 130.27 34.713 187.41 75.825" style="fill:#fff"/></g><g transform="translate(961.7 839.92)"><path d="m0 0c2.308 0.872 3.431 1.416 4.616 1.726 32.03 8.38 64.052 16.792 96.124 25.011 3.207 0.822 6.72 0.448 10.091 0.63-1.195-3.793-1.328-8.543-3.751-11.228-21.09-23.373-46.837-36.381-79.077-32.82-11.152 1.232-19.975 7.398-28.003 16.681" style="fill:#fff"/></g><g transform="translate(982.5 1081.3)"><path d="m0 0c-10.31-5.25-12.165-14.837-13.479-24.939 1.346 1.692 2.503 3.586 4.072 5.036 4.335 4.007 8.506 8.323 13.348 11.628 12.62 8.616 22.38 2.961 31.727-8.209 6.314-7.546 5.883-16.874 4.078-25.627-4.119-19.972-21.038-33.957-41.578-35.391-6.062-0.423-12.123-0.855-18.866-1.331 1.136 1.611 2.023 2.868 3.338 4.733-1.272-0.374-1.943-0.379-2.333-0.713-7.896-6.766-15.874-13.443-23.599-20.4-7.575-6.822-16.058-11.812-25.918-14.501-15.67-4.275-31.056-7.081-47.714-3.678-22.299 4.556-37.21 16.525-45.557 37.286-10.681 26.567-8.95 53.217-0.243 79.835 2.387 7.298 7.926 11.685 14.583 15.121 11.938 6.163 25.017 5.978 37.839 7.48 39.019 4.57 74.479-6.207 108.19-24.732 0.55-0.303 1.015-0.761 2.112-1.598" style="fill:#f2aa83"/></g><g transform="translate(802.3 1055.2)"><path d="m0 0c2.207-17.781 4.372-35.217 6.481-52.21-7.264 2.161-16.76 17.436-17.18 29.079-0.398 11.056 3.923 20.512 10.699 23.131" style="fill:#c2774e"/></g><g transform="translate(1110 1400.8)"><path d="m0 0c-2.119 0.625-4.226 1.753-6.357 1.797-26.797 0.56-53.599 1.178-80.199-3.353-3.263-0.555-6.702-0.075-10.939-0.075 2.99 13.084 5.891 25.78 8.792 38.476 0.364-0.038 0.727-0.075 1.09-0.112 0.079-0.701 7e-3 -1.464 0.266-2.091 0.816-1.977 1.755-3.902 2.647-5.848 1.354 1.637 3.283 3.066 3.96 4.947 2.719 7.557 5.051 15.253 8.455 22.738v-13.326c0.525-0.187 1.05-0.375 1.575-0.562 1.569 2.249 3.137 4.499 5.603 8.036-2.155-10.021-4.042-18.796-5.999-27.894 5.366-0.218 7.739 1.509 8.486 6.287 2.032 13.001 4.48 25.936 7.053 40.537 7.552-2.936 15.168-6.074 22.909-8.864 10.356-3.733 21.007-6.713 31.18-10.877 21.994-9.001 41.753-21.961 60.797-36.003 8.384-6.181 16.367-12.904 24.708-19.146 3.5-2.619 4.486-5.601 4.082-9.874-0.269-2.85 0.996-5.846 1.574-8.777 3.01 1.08 6.039 2.111 9.019 3.269 0.932 0.363 1.731 1.067 2.633 1.642-0.818-9.222-1.61-18.144-2.474-27.888-34.277 23.965-73.428 34.544-113.9 44.628 5.293 3.629 10.151 3.112 15.055 2.335 8.922-0.945 17.839-1.889 26.757-2.833 0.034 0.557 0.067 1.113 0.1 1.67-8.959 0.387-17.917 0.774-26.876 1.161" style="fill:#8c6239"/></g><g transform="translate(882.05 1396.6)"><path d="m0 0c-2.907-6.995-5.477-12.796-7.677-18.734-0.565-1.525 0.036-3.482 0.101-5.24 1.768 0.135 3.889-0.31 5.236 0.513 3.939 2.408 7.57 5.321 11.456 8.134 0.733-8.614-10.297-16.755-0.327-26.04-1.83-3.521-3.474-8.023-6.306-11.58-1.448-1.817-5.155-2.966-7.617-2.653-11.737 1.493-23.513 3.064-35.064 5.576-30.293 6.59-58.109-3.469-86.027-12.385-11.706-3.74-22.913-9.044-34.34-13.655-1.916-0.773-3.792-1.644-7.121-3.093 0.638 5.051 0.625 9.042 1.697 12.715 4.567 15.653 12.129 27.962 29.105 34.097 40.173 14.517 81.281 24.837 123.4 31.434 3.95 0.619 8.006 0.561 13.486 0.911" style="fill:#8c6239"/></g><g transform="translate(1110 1400.8)"><path d="m0 0c8.959-0.387 17.917-0.774 26.876-1.161-0.033-0.557-0.066-1.113-0.1-1.67-8.918 0.944-17.835 1.888-26.757 2.833-3e-3 1e-3 -0.019-2e-3 -0.019-2e-3"/></g><g transform="translate(850.63 1272)"><path d="m0 0c3.081-4.726 5.34-9.907 6.948-15.312 1.505-5.057 1.423-10.645 3.382-15.505 0.762-1.89 3.241-2.002 3.969 0 2.018 5.551-0.245 12.437-2.142 17.759-2.046 5.739-4.975 10.911-8.771 15.671-1.525 1.911-4.714-0.576-3.386-2.613" style="fill:#fff"/></g><g transform="translate(848.7 1273.6)"><path d="m0 0c-1.175-5.637-0.637-10.45 0.186-16.097 0.245-1.685 2.106-2.636 3.605-2.745 0.696-0.051 1.394-0.123 2.091-0.138 3.23-0.07 4.441 3.281 3.348 5.834-2.136 4.989-1.283 10.875-3.307 15.931-2.105 5.257-9.302 3.271-8.444-2.327 0.907-5.918 4.159-12.679 9.428-15.927 1.034-0.637 2.144-1.185 3.391-1.196 0.691-6e-3 2.274 0.513 0.55 0.085 0.815 0.202 1.363 0.137 2.162 0.604 2.707 1.582 2.453 4.923 0.573 6.981-1.153 1.261-3.324 1.486-4.763 0.615-0.239-0.146-2.127-1.661-0.795-0.615-0.984-0.773-1.465-2.669-1.011-3.823 0.269-0.763 0.301-0.263 0.097 1.499 0.621 0.808 1.242 1.615 1.863 2.423 3.795 2.559 5.853-2.145 3.501 0.27-0.221 0.227-0.546 0.339-0.789 0.541 0.647-0.539-0.365 0.395-0.475 0.507-0.477 0.486-0.967 0.967-1.405 1.489-2.154 2.577-3.165 5.646-3.883 8.874l-8.002-3.373c2.594-5.088 2.111-11.263 4.613-16.472 1.116 1.945 2.232 3.89 3.348 5.834-0.697-0.015-1.395-0.087-2.091-0.138 1.077-0.617 2.153-1.234 3.229-1.852-2.045 3.997-2.702 8.851-3.618 13.216-0.353 1.681-3.051 1.685-3.402 0" style="fill:#fff"/></g><g transform="translate(1154 1289.8)"><path d="m0 0c0.833-8.879 5.772-16.969 11.58-23.51 2.997-3.374 7.344 0.924 5.785 4.463-3.398 7.714-6.504 15.571-10.165 23.164-1.967 4.079-8.79 1.216-7.341-3.094 2.176-6.471 4.391-12.899 6.984-19.22 2.365-5.768 4.411-12.352 10.299-15.256 1.686-0.831 3.547 0.187 3.649 2.095 0.338 6.317-3.503 11.79-5.946 17.455-2.588 6.001-4.916 12.08-7.645 18.02l-6.936-4.054c3.773-7.518 6.709-15.441 10.741-22.827l5.784 4.463c-6.255 5.799-10.166 11.426-13.73 19.129-0.672 1.452-3.208 0.765-3.059-0.828" style="fill:#fff"/></g><g clip-path="url(#clipPath274562)" style="opacity:.10001"><g transform="translate(764.89 1618.9)"><path d="m0 0c10.669-17.089 29.686-27.839 49.697-27.736-1.358 7.257 0.84 13.857-2.277 21.225 9.831-7.406 18.254-18.547 30.498-21.309-0.245 5.515 2.983 10.562 3.548 14.256 14.473-18.671 27.432-2.979 43.264-9.033 17.839-6.821 24.558-27.152 47.342-27.089-3.073 17.165-11.269 35.692-14.735 52.571 13.356-17.15 17.449-44.969 36.602-58.307 0.545 9.288 1.579 20.017 0.412 29.461 3.888-22.689 27.036-22.597 28.991 0.474 50.741-18.289 108.05-3.424 161.64-2.662 20.771 0.296 51.009-3.077 69.694-12.615 17.661-9.016 28.68-27.948 55.979-25.548 3.841-24.181 41.51-8.43 35.106-49.871-5.013-32.444-25.27-64.458-27.814-99.929 3.577 5.262 11.884 12.923 15.261 20.578-2.68-20.741-12.88-40.093-12.136-61.191 3.321 0.527 5.034 1.606 8.224 2.411 3.457-20.773 0.128-41.615 3.063-62.391 2.634-18.647 4.835-37.663 0.547-55.354 1.16 0.195 2.377 4.186 3.449 4.106-5.825-32.081-26.645-63.779-24.691-98.327 9.157 12.068 36.726 49.118 55.282 42.315 17.631-6.464 18.862-59.102 12.37-70.291-4.059 8.554-10.726 16.955-14.104 26.09-4.947-9.313-5.646-21.004-1.959-30.632-20.707-1.477-42.693 12.196-52.286-11.22-0.975 56.952 47.809 219.59-8.782 256.56 3.618 24.576 10.891 49.414 15.277 74.721 3.068 17.703 26.467 61.716 9.407 68.36-21.241 8.272-129.01 31.955-166.1 31.982-33.188 0.023-61.714-1.575-94.233 3.136-27.21 3.941-48.198-4.411-75.329-3.209-22.866 1.013-47.538 12.649-69.61 18.178-17.336 4.343-58.231 19.711-74.642 16.304-4.387-0.911-5.176 2.064-8.526 2.745-46.041-35.414-101.41-212.24-103.8-253.04 18.272-2.88 28.964 20.936 42.739 27.201 5.552 2.525 32.27-0.089 42.148 2.984 24.936 7.76 78.647 45.111 87.018 4.157 2.249 1.268 4.108 3.428 6.506 4.849 1.52-7.428 0.525-19.264-0.626-26.648-13.1-0.664-36.467-0.474-43.872-0.474 7.296 0.41 14.775-0.242 21.923-0.452-0.033-2.026 0.132-5.805 0.686-7.794-39.189 14.033-124.23 14.968-137.72-38.002 2.685-3.329 3.889-7.435 5.334-9.575-40.179-19.929-8.588-104.34-25.409-138.12-57.491 37.878-29.375-70.538-27.768-105.18 2.167-46.738 6.845-95.479 29.434-138.48 38.478-73.242 127.08-137.35 215.02-120.08 0.8 22.974-19.364 42.26-18.34 67.563 0.28-33.545 30.048-66.691 46.712-93.195-45.007-18.286-110.04 13.589-153.32 27.596-58.041 18.784-96.771 37.139-126.21 94.071-24.159 46.722-29.999 98.464-30.576 151.21-0.295 26.999 17.087 147.68 9.514 164.14-6.237 13.556-8.477 3.391-15.936-12.518 2.42 6.071 1.523 14.543 2.729 20.438-4.831-2.371-12.601-0.564-17.71-2.187-3.106 9.641-21.957 72.166-0.463 72.032 16.968-0.106 23.204-58.728 36.998-65.895 4.765 36.508 28.361 81.087 28.132 114.99-0.09 13.19-10.579 29.519-8.844 47.649 1.349 14.093 9.615 39.838 12.605 47.494-0.362-3.936-0.012-8.095-0.062-12.053 4.876 15.73 12.724 42.812 25.23 47.32 9.131 22.371 42.831 77.154 19.518 95.65-14.555-27.683-27.239-53.674-42.483-80.496-12.459-21.922-10.587-60.1-29.951-75.642 9.261 44.166 21.315 99.693 37.863 140.1 16.161 39.459 42.118 39.728 80.356 41.925 1.751 13.929-3.618 35.602-2.661 43.873 0-3.28-0.088-6.576 0-9.854"/></g></g><g clip-path="url(#clipPath274578)" style="opacity:.10001"><g transform="translate(908.4 1305.3)"><path d="m0 0c10.194-44.558 45.126-98.765 19.235-137.96 3.124-2.587 22.308-26.249 25.279-28.593-9.511-2.555-26.613-9.941-34.456-14.53 7.943-8.077 0.944 1.492-0.464-9.648-23.136-6.18-48.679 7.009-73.839-10.824-19.281-13.667-30.357-41.393-19.06-64.282 12.013-24.339 43.61-32.449 68.36-32.054 34.416 0.549 38.179 14.249 62.624 31.044 29.493-37.817 35.154-15.753 65.404 6.356 19.433-47.033-44.016-43.681-50.646-80.737-1.172-1.226-1.168-1.181 0.011 0.135 23.052 2.286 40.939-32.176 15.897-46.952-29.789-17.576-36.849 20.115-52.526 35.586-16.569-21.433-43.082-28.556-68.985-26.96-40.481 2.493-33.798 29.083-60.365 46.237-12.579 8.122-70.079 3.98-49.373 44.698 6.112 12.019 18.244 7.781 28.361 15.527 7.636 5.847-1.587 34.386 17.955 16.069 1.927 42.981 15.619 49.98 48.592 71.184 16.096 10.35 65.946 36.004 49.724 56.593 32.811-4.091 16.047 99.845 8.272 129.11"/></g></g><g clip-path="url(#clipPath274594)" style="opacity:.10001"><g transform="translate(909.13 831.81)"><path d="m0 0c11.624-41.538 20.554-82.833 74.57-77.684 23.468 2.237 106.4 36.001 98.027 64.746-55.778-41.784-128.56-63.87-169.46 6.666"/></g></g><g clip-path="url(#clipPath274610)" style="opacity:.10001"><g transform="translate(890.32 885.12)"><path d="m0 0c18.08 8.291 6.854-15.811 119.26 7.186 34.38 7.033 106.01 62.338 115.61 98.78-40.698-0.637-83.315-55.708-122.14-70.686-27.464-10.595-85.005-38.394-106.45-35.28"/></g></g><g clip-path="url(#clipPath274626)" style="opacity:.10001"><g transform="translate(1012.6 1399.4)"><path d="m0 0c2.292 17.087 9.093 33.216 13.313 49.993 0.888-7.25 2.502-22.317 5.35-30.231 2.955 5.945 12.117 13.359 15.121 19.892 1.961-11.445 8.493-22.615 22.173-20.366-0.345 11.159-3.8 22.966-5.312 33.768 10.14-10.001 15.238-27.962 27.747-37.68 2.408 1.843 4.572 4.144 7.059 6.1 30.587-17.672 112-30.131 112.09-72.105-13.519 36.73-154.94 57.659-197.54 50.629"/></g></g><g clip-path="url(#clipPath274642)" style="opacity:.10001"><g transform="translate(768.03 737.74)"><path d="m0 0c-91.792-28.058-90.364-196.66-22.575-245.44 16.882-12.15 41.508-22.365 60.901-26.664 9.818-2.177 28.562 0.952 37.003-3.761 15.82-8.833 7.523-12.26 15.533-25.231 10.651-17.246 25.496-46.407-12.705-35.352-3.801 1.1-12.833 16.451-18.59 19.724-12.209 6.942-20.983-11.962-27.747 8.643 6.848 5.879 5.007 10.897 8.459 16.002-68.522 1.206-134.54 61.018-130.22 126.23 2.501 37.814-1.563 62.918 16.965 96.867 19.256 35.285 52.574 49.302 76.116 72.121"/></g></g><g clip-path="url(#clipPath274658)" style="opacity:.10001"><g transform="translate(789.98 725.2)"><path d="m0 0c2.928-23.03 3.3-66.055 10.199-87.628 30.391-5.259 54.436 29.319 83.325 30.628 22.439-74.115 24.752-186.85 9.954-262.84-6.902-35.44-26.988-70.8-37.791-106.61-8.097-26.845-12.918-25.346-30.659-47.036-9.864-12.059-21.523-35.895-16.688-49.719-14.522-2.739-35.473-30.003-33.944-45.249 2.343-23.358 29.129-19.495 49.893-21.277 28.956-2.485 74.766-8.067 99.435 8.845-24.713 13.149-109.07-13.327-96.168 41.551 11.429 48.614 73.671 37.795 99.315 10.344-14.006 33.636-65.098 23.023-71.083 46.098-11.821 45.569 49.244 22.358 64.812 9.803-37.748 36.783-34.456 65.819 1.401 106.22-18.091 17.018-13.68 56.723-9.547 78.23 7.543 39.259 20.176 30.513 55.259 40.836-14.548 4.859-30.173 2.877-45.529 3.688 1.645 10.438-5e-3 22.713-3.136 33.629 30.269-8.354 90.2-30.471 112.86-5.881-32.359-4.361-92.021 7.348-111.14 36.93-18.119 28.035-21.353 97.134-21.169 131.3 24.047-32.239 26.443-80.189 66.213-98.144-15.167 52.201-72.716 90.437-53.509 154.76 1.558-15.939 15.267-24.763 27.647-33.233-3.489 16.365-20.799 43.302-28.204 58.709-25.236 3.314-38.993 6.498-40.862-6.303-2.21-15.141 5e-3 -57.78 5e-3 -57.78l-62.087-21.951s-25.812 37.813-18.801 55.224"/></g></g><g clip-path="url(#clipPath274674)" style="opacity:.10001"><g transform="translate(1043.8 434.79)"><path d="m0 0c7.855-0.679 19.141 4.702 24.933-2.353-6.251-13.122-24.851-73.669-5.18-80.224-8.03-9.258-11.775-17.863-12.436-30.314-0.311-5.858-1.546-14.263 3.166-17.79 5.059-3.786 11.741 1.816 15.75-5.206-6.178-9.26-21.643-11.344-29.419-20.673-7.267-8.717-9.544-21.393 6.063-20.113 8.197 0.672 21.798 16.961 27.461 5.271 4.849-10.012-9.242-16.56-15.704-20.114-7.451-4.096-47.396-19.662-34.777-33.298 3.097-3.346 69.554 13.899 66.231-0.993-0.959-4.297-13.571-3.618-16.796-4.391-9.59-2.3-20.693-8.157-28.035-14.63-12.847-11.329-14.721-28.716 1.825-37.679 13.389-7.253 42.09-7.326 56.525-5.228 9.114 1.324 24.782 0.312 32.22 6.164-3.817-10.681-31.895-11.247-41.603-12.891-22.205-3.762-42.302-15.178-64.904-13.137-8.81 0.795-28.844-0.924-34.468 7.579-5.997 9.065 4.479 17.818 7.203 24.953-15.068-6.092-14.5 9.48-10.37 21.064 4.048 11.347 15.634 22.541 23.672 31.354-30.882 3.915-0.693 102.15 6.663 120.21 12.291 30.177 20.295 64.094 17.799 97.212"/></g></g><g clip-path="url(#clipPath274690)" style="opacity:.10001"><g transform="translate(902.66 748.37)"><path d="m0 0c6.094-12.089 10.995-33.498 18.556-48.104 5.319-10.274 15.444-20.423 16.984-32.067 2.104 16.346 14.353 31.109 21.95 45.44 4.89 9.222 9.594 18.648 15.726 27.04-2.128-17.264-7.109-33.069-6.16-50.741 4.757 1.178 9.424 2.821 14.372 3.17-3.122 12.051-5.603 37.647 0.37 48.829 10.039-6.74 17.117-15.083 24.004-24.983 4.914-7.063 12.141-13.06 16.496-20.478 1.705 5.737 6.904 7.817 11.422 9.772-10.369 8.634-15.149 26.984-23.936 37.913-8.671 10.786-14.587 8-28.248 7.345-8.559-0.411-6.392 1.205-11.768-4.185-6.395-6.412-10.77-17.269-15.646-24.85-5.482-8.525-12.66-24.799-22.581-28.322 0.525 18.207-16.932 47.352-27.36 59.447"/></g></g><g clip-path="url(#clipPath274706)" style="opacity:.10001"><g transform="translate(1093.9 688.79)"><path d="m0 0c-4.776 18.228-3.062 41.541 3.166 59.261 4.748-19.86 37.749-79.85 66.031-70.675 4.397 7.19 13.741 38.978 25.816 35.247-11.617-12.75 4.717-35.888 16.019-43.434 14.875-9.932 35.753-9.714 53.077-9.667 43.7 0.12 81.433 9.478 120.21 27.301 32.843 15.097 68.972 45.491 94.75 71.893-8.675-8.639-16.613-17.58-24.43-28.115-35.826-48.281-117.42-74.336-154.99-82.318-42.662-9.064-106.54-12.1-134.84 24.981 0.226-4.883-4.611-14.044-9.411-15.829-6.506-2.419-10.316 2.691-15.704 6.036-9.257 5.746-33.975 13.277-37.606 24.274"/></g></g><g clip-path="url(#clipPath274722)" style="opacity:.10001"><g transform="translate(1391.9 1347.3)"><path d="m0 0c9.557 9.463 13.54 11.423 15.649-2.299 2.953-19.211 5.763-38.89 7.405-58.327 3.295-39.025 0.864-78.841 3.081-117.91 1.769-31.167-0.118-62.37-3e-3 -93.499 0.023-6.345-4.642-25.033-0.021-29.84 4.434-4.613 16.046-1.076 20.768 1.045-4.967 16.513 9.142 43.875 16.859 58.27 6.505 12.136 28.397 39.235 43.768 39.613 1.309-16.454-23.623-52.937-9.533-68.065 7.32-7.859 36.823 3.016 48.208 2.532 0.439 8.289 0.229 16.811 0.158 25.161-0.092 10.832-4.838 23.232-4.231 33.523 0.782 13.266 17.495 17.613 29.184 17.302-0.125-11.884-3.428-24.038-4.044-36.187-0.572-11.289 3.19-20.78 4.174-31.595 0.84-9.235 0.61-18.122 1.049-27.438 0.495-10.501-1.958-19.874-2.033-30.053-0.153-21.014 31.336-13.009 38.389 1.021 14.713 29.266 9.76 63.072 15.099 94.016 14.402-27.511-2.77-61.648-8.366-89.598-2.83-14.135 14.701-34.921 24.929-16.262-2.218-8.054-12.389-31.454-22.909-25.919 2.84-4.367 6.169-10.518 5.928-16.433-14.148 5.348-38.99 5.131-53.124-2.491-13.428-7.241-18.666-24.214-23.786-37.624-4.724-12.374-21.244-36.518-10.816-48.892 15.174-18.007 62.053-4.968 74.878 7.968-10.437-15.669-39.692-29.742-58.829-33.314-13.388-2.498-32.334-0.418-45.297-3.492 0.491 10.958 11.256 29.101 13.383 40.127 2.059 10.675 1.895 22.349 4.337 32.479-14.516 0.365-65.188 5.139-65.557 24.12 28.592-20.833 75.528 10.953 89.993 35.358 7.993 13.486 12.772 29.92 10.246 46.253-4.375 28.298-29.665 21.144-47.85 10.686-28.306-16.279-65.611-21.752-97.293-29.268-12.063-2.862-13.72-2.56-16.113-14.584-2.58-12.966-4.014-26.697-1.103-40.03 21.05-96.382 78.671-96.307 84.241-101.06-10.708-7.023-24.685-1.201-37.149 3.625-18.005 6.972-36.279 18.861-48.841 33.425-18.701 21.68-23.466 48.412-22.002 76.425 1.112 21.255 11.252 26.135 26.965 37.842 10.456 7.79 5.556 13.829 6.713 27.099 1.762 20.203 4.079 40.353 4.99 60.677 1.654 36.883 1.154 73.963-2.057 110.46-1.085 12.343-25.264 123.96-17.799 126.79"/></g></g><g clip-path="url(#clipPath274738)" style="opacity:.3"><g transform="translate(1379.3 1553.2)"><path d="m0 0c7.322-1.8 15.534-4.452 23.698-4.208 9.996 0.297 19.241 6.887 29.119 5.324-8.874-9.743-53.577-15.116-45.605-28.747 9.128-1.476 17.206 4.228 25.748 6.554-7.012-11.911-28.882-7.454-27.137-24.672 12.277-4.955 30.823-1.221 42.845 2.299-18.409-11.981-33.584-11.928-42.855-33.021 0.538 3.092 2.655 16.938 2.2 20.762-0.807 6.772-4.132 10.855-4.883 17.737-1.386 12.703 1.638 25.444-0.343 36.578"/></g></g><g clip-path="url(#clipPath274754)" style="opacity:.3"><g transform="translate(1458.8 1498.9)"><path d="m0 0c4.171-14.464-32.411-17.562-41.39-15.407 13.77 4.193 32.859 10.976 42.783 20.982"/></g></g><g clip-path="url(#clipPath274770)" style="opacity:.7"><g transform="translate(1450.4 1787.4)"><path d="m0 0c19.469 5.744 43.509-32.176 49.122-48.747 2.315-6.834 1.19-21.493 6.981-26.469 10.071-8.653 11.767 4.264 12.189 13.893 0.735 16.807-4.364 41.192-15.609 54.282-6.579 7.659-48.689 27.761-49.69 8.618 1.619-0.824 2.866 1.129 2.582 1.211" style="fill:#fff"/></g></g><g clip-path="url(#clipPath274786)" style="opacity:.7"><g transform="translate(1451.8 1758.1)"><path d="m0 0c9.532-0.553 18.896-45.338 30.418-34.86 15.161 13.785-14.513 43.099-28.809 40.229-0.72-2.474 0.244-3.331 1.178-5.369" style="fill:#fff"/></g></g><g clip-path="url(#clipPath274802)" style="opacity:.3"><g transform="translate(945.52 1619.1)"><path d="m0 0c10.283-4.963 11.527-29.002 21.793-36.515 0.701 7.333-2.467 14.394-1.829 21.814 6.862-0.605 7.704-10.693 14.53-11.502 3.332-0.395 4.009 4.262 6.272 4.327 3.502 0.099 4.187-0.511 7.553-1.124 7.21-1.313 9.756-4.053 17.792-3.132 7.091 0.813 13.685 2.768 20.88 3.132 34.263 1.733 67.884-5.575 102.18-4.202 19.971 0.8 39.716 2.598 59.603 0.837 13.369-1.183 28.717 1.7 39.671-7.037 6.296-5.023 8.108-11.213 16.519-13.427 8.985-2.366 12.271 0.069 20.352-6.198 7.994-6.199 14.244-13.66 22.818-19.122 4.968-3.164 13.931-13.077 18.579-14.626-0.851 0.283 1.374-2.465 1.041-1.987-8.298 29.023-25.144 37.575-49.731 53.246-28.774 18.341-66.571 28.439-99.79 35.257-35.703 7.328-69.185 20.742-105.63 10.479-13.432-3.782-25.36-9.446-39.484-10.216-20.543-1.121-6.181 8.781-15.657 18.957-3.647-7.066-2.62-8.31-10.401-8.791-7.373-0.456-16.087 2.178-24.326 1.386-18.712-1.801-36.279 3.783-55.14 3.078-15.716-0.588-31.458 0.537-47.067 0-13.225-0.456-30.071-6.36-42.665-2.195 2.144-6.079 6.072-18.893 13.269-19.622-0.331 9.986 7.023 11.994 14.795 10.082 10.345-2.544 12.991-11.388 24.014-8.938 9.222 2.049 9.069 7.759 19.076 0.863 8.098-5.582 12.849-16.045 20.511-21.84-3.38 5.445-11.813 24.176-6.11 30.198 4.488 4.74 12.071-2.245 16.687-5.398 4.567 9.593 16.661 1.239 23.03-4.056" style="fill:#fff"/></g></g><g clip-path="url(#clipPath274818)" style="opacity:.3"><g transform="translate(1308.2 1488.4)"><path d="m0 0c1.599-18.681-15.284-42.959-13.481-63.77 6.519 3.001 10.344 11.089 15.438 15.702-0.079-8.341-19.325-54.582 2.067-34.548 1.064-16.88 0.157-34.226 0.157-51.184 0-13.059-3.591-34.19 0.813-45.976 0.846 40.288 15.705 80.638 12.54 121-0.967 12.327-2.826 25.163-7.027 36.821-2.764 7.67-8.019 14.62-7.371 22.997" style="fill:#fff"/></g></g><g clip-path="url(#clipPath274834)" style="opacity:.3"><g transform="translate(1057.4 1465.4)"><path d="m0 0c-0.734 0.864 0.77 1.704-0.809 2.082-1.183-10.717 2.387-25.1 6.086-35.252-0.565 7.242-0.479 18.813 2.799 24.721 10.101-18.46 28.699-28.515 48.602-33.392 12.744-3.123 25.261-8.141 38.442-11.448 17.205-4.317 24.271-16.846 38.282-24.999-7.575 11.242-20.461 17.904-31.777 25.008-14.051 8.822-28.416 18.388-43.032 26.153-17.405 9.248-36.893 19.844-55.457 26.082" style="fill:#fff"/></g></g><g clip-path="url(#clipPath274850)" style="opacity:.2"><g transform="translate(1208.9 1515.6)"><path d="m0 0c21.665-10.43 32.763-23.102 24.271-46.201-4.389-11.937-10.016-24.669-13.059-37.185-2.719-11.184-0.536-11.636 5.483-20.101 10.569-14.863 22.019-36.789 17.799-55.42-4.595-20.291-15.138-39.508-16.903-61.56-3.736 3.518-4.113 10.915-7.03 15.852-4.917 8.32-13.94 14.868-22.059 19.624-4.871 2.854-38.277 20.867-39.792 9.356-0.528-4.019 13.096-9.583 15.75-11.683 10.239-8.096 18.27-20.152 23.017-32.188 8.095-20.519 9.801-44.919 12.266-66.643 2.263-19.936 2-40.833 1.07-60.905-0.191-4.113-3.176-13.399 1.019-16.755 5.355-4.283 6.333 1.784 11.993 2.975 14.648 3.08 21.691-14.251 21.739-26.757 0.051-13.373-10.276-15.557-21.927-19.84-15.916-5.852-31.85-10.407-48.185-14.835-10.274-2.785-28.241-8.605-32.657-19.605-10.058-25.053 17.214-71.762 43.188-75.332 9.481-1.302 14.793 3.545 21.14-3.355 5.972-6.491 43.189-96.658 49.915-102.34 6.075 98.14 10.53 201.29 19.618 298.88 3.705 39.798 14.57 92.327 4.389 131.69-4.467 17.268-6.843 25.76-12.899 42.139-6.87 18.579-2.842 16.17 3.443 33.65 5.953 16.558 14.072 39.985 20.588 56.342 2.302 5.778 14.465 63.76 7.389 50.505-4.275-8.008-20.146 9.239-27.977 10.856-12.288 2.538-53.047 0.683-60.37 11.715" style="fill:#fff"/></g></g><g clip-path="url(#clipPath274866)" style="opacity:.3"><g transform="translate(845.52 1100.3)"><path d="m0 0c-7.83-5.724-24.291-14.714-20.663-26.481 3.754-12.171 30.45-15.288 40.52-17.771 25.456-6.276 51.793-9.736 77.703-4.496 23.957 4.845 52.478 21.235 19.579 40.039-33.115 18.926-81.175 17.305-115.74 7.315" style="fill:#fff"/></g></g><g clip-path="url(#clipPath274882)" style="opacity:.3"><g transform="translate(922.17 836.87)"><path d="m0 0c-15.161-32.929 38.494-53.101 61.4-56.827 32.407-5.271 64.183 7.562 87.799 28.953 5.324 4.823 28.097 28.687 16.647 34.592-6.89 3.553-29.503-19.101-34.766-22.431-31.589-19.986-69.366-13.131-102.86-2.788-7.486 2.312-15.469 4.349-22.597 7.257 0.846 2.43 2.275 6.455 4.137 8.457" style="fill:#fff"/></g></g><g clip-path="url(#clipPath274898)" style="opacity:.2"><g transform="translate(1113.1 937.22)"><path d="m0 0c-44.768-32.055-100.25-63.397-163.06-69.928 5.919-10.658 18.697-10.239 31.207-11.038 13.42-0.857 0 0 13.392 2.918 26.868 5.855 54.818 14.411 81.807 17.494-3.927-9.374-27.817-24.782-51.287-32.698-18.09-6.101-46.253-5-33.563-22.255-30.315 9.781-60.252 24.704-74.826 55.34 18.415 5.253 38.295 3.325 57.308 9.961 23.913 8.347 48.078 17.099 70.734 27.902 14.697 7.007 29.736 13.768 44.289 21.22 10.973 5.62 20.484 14.877 32.082 19.064 0.653-6.992-4.571-17.363-1.11-20.767"/></g></g><g clip-path="url(#clipPath274914)" style="opacity:.39999"><g transform="translate(1389.8 1344.2)"><path d="m0 0c8.046 5.562 30.182 31.643 39.721 31.084 7.986-0.469 17.798-21.691 20.489-28.993 9.028-24.506 10.898-54.66 10.869-81.074-0.067-61.13-7.976-116.53-18.807-173.35-1.717 56.558 3.642 112.25-4.304 168.3-2.007 14.154-12.465 104.42-39.606 81.942" style="fill:#fff"/></g></g><g clip-path="url(#clipPath274930)" style="opacity:.39999"><g transform="translate(1502.7 1143.5)"><path d="m0 0c28.292 19.498 38.464-33.018 26.652-50.114-7.738-11.201-20.481-16.055-28.735-4.234-8.251 11.817 0.255 37.874 4.173 50.167" style="fill:#fff"/></g></g><g clip-path="url(#clipPath274946)" style="opacity:.39999"><g transform="translate(1626 1126.8)"><path d="m0 0c1.915-18.644 4.172-32.76 0.58-52.372-2.774-15.15-10.02-35.403-0.58-48.225 20.257 14.429 31.053 88.654 2.09 96.416" style="fill:#fff"/></g></g><g clip-path="url(#clipPath274962)" style="opacity:.10001"><g transform="translate(1396 1005.5)"><path d="m0 0c-16.367-33.671 27.567-28.406 52.156-20.44 29.828 9.661 76.101 29.083 90.52 59.744 17.145 36.459-21.687 11.327-38.088 4.08-32.515-14.366-69.521-34.003-103.85-41.435 1.683 2.237 3.654 4.309 5.532 6.413" style="fill:#fff"/></g></g><g clip-path="url(#clipPath274978)" style="opacity:.39999"><g transform="translate(1571.6 1147.7)"><path d="m0 0c5.427-20.362 4.312-45.898 6.38-66.898 1.247-12.663-1.729-34.836 6.115-44.159 23.277-1.621 26.492 45.781 27.778 66.25 1.672 26.605-11.997 65.414-38.182 55.26" style="fill:#fff"/></g></g><g clip-path="url(#clipPath274994)" style="opacity:.2"><g transform="translate(856.67 213.19)"><path d="m0 0c-12.488-0.581-29.121-21.219-20.482-33.025 6.984-9.542 45.053-5.249 55.549-4.605 15.345 0.941 34.333 2.256 20.962 20.906-12.157 16.955-53.549 14.827-70.663 10.452" style="fill:#fff"/></g></g><g clip-path="url(#clipPath275010)" style="opacity:.2"><g transform="translate(1090.8 198.55)"><path d="m0 0c-31.028 20.61-90.923-32.612-14.634-33.442 9.595-0.104 49.659-0.149 54.92 11.971 9.854 22.697-42.027 19.188-50.739 25.652" style="fill:#fff"/></g></g><g clip-path="url(#clipPath275026)" style="opacity:.7"><g transform="translate(768.86 146.29)"><path d="m0 0c35.438-12.85 78.577-11.409 115.09-6.38 12.89 1.776 29.528 9.936 41.711 10.096 22.596 0.298 11.483-9.104-4.14-15.794-24.496-10.49-154.49-26.01-156.84 9.988" style="fill:#fff"/></g></g><g clip-path="url(#clipPath275042)" style="opacity:.7"><g transform="translate(990.46 142.11)"><path d="m0 0c20.882-17.049 63.083-14.697 87.796-8.876 19.694 4.64 49.128 15.13 67.41 9.792 2.49-26.184-67.305-19.66-83.762-19.731-13.998-0.06-75.691-2.764-73.534 12.543" style="fill:#fff"/></g></g><g clip-path="url(#clipPath275058)" style="opacity:.39999"><g transform="translate(828.71 766.98)"><path d="m0 0c-4.028 1.601-44.804-19.798-44.804-19.798s37.225-11.17 73.81-20.669 65.27-30.972 115.91-22.52c50.638 8.452 147.62 74.967 147.62 74.967l-14.764 17.136s-19.13 4.24-33.958-3.343c-19.984-10.22-40.15-33.75-70.684-40.931-53.189-12.509-58.541 1.526-58.541 1.526z"/></g></g></g></g></g></svg>
