<?xml version="1.0" encoding="UTF-8"?>
<svg width="421.66mm" height="721.95mm" version="1.1" viewBox="0 0 421.66 721.95" xmlns="http://www.w3.org/2000/svg"><defs><clipPath id="clipPath242441"><path d="m0 2236.6h1473.8v-2236.6h-1473.8z"/></clipPath><clipPath id="clipPath242457"><path d="m141.92 2135.6h292.2v-482.11h-292.2z"/></clipPath><clipPath id="clipPath242473"><path d="m154.48 2134.3h334.02v-510.98h-334.02z"/></clipPath><clipPath id="clipPath242501"><path d="m1059.5 1954.4h180.42v-324.44h-180.42z"/></clipPath><clipPath id="clipPath242517"><path d="m993.98 2099.1h343.2v-543.79h-343.2z"/></clipPath><clipPath id="clipPath242537"><path d="m625.12 1252.1h277.14v-95.02h-277.14z"/></clipPath><clipPath id="clipPath242565"><path d="m444.24 1772.6h404.48v-560.94h-404.48z"/></clipPath><clipPath id="clipPath242581"><path d="m465.66 1768h590.45v-581.19h-590.45z"/></clipPath><clipPath id="clipPath242597"><path d="m927.65 1680.4h78.158v-110.83h-78.158z"/></clipPath><clipPath id="clipPath242617"><path d="m673.91 1805.1h127.51v-136.12h-127.51z"/></clipPath><clipPath id="clipPath242641"><path d="m817.55 1918.5h41.86v-82.38h-41.86z"/></clipPath><clipPath id="clipPath242657"><path d="m604.13 1922.8h25.84v-77.87h-25.84z"/></clipPath><clipPath id="clipPath242673"><path d="m635.41 2048.8h58.619v-277.27h-58.619z"/></clipPath><clipPath id="clipPath242689"><path d="m740.42 2066h118.99v-312.39h-118.99z"/></clipPath><clipPath id="clipPath242777"><path d="m687.52 1822.2h86.357v-14.62h-86.357z"/></clipPath><clipPath id="clipPath242793"><path d="m704.5 1907.6h24.398v-54.41h-24.398z"/></clipPath><clipPath id="clipPath242809"><path d="m740.88 1868.8h16.981v-13.72h-16.981z"/></clipPath><clipPath id="clipPath242825"><path d="m713.21 1796.9h23.72v-7.17h-23.72z"/></clipPath><clipPath id="clipPath242841"><path d="m617.04 1909.2h20.903v-48.76h-20.903z"/></clipPath><clipPath id="clipPath242861"><path d="m821.49 1900.1h24.609v-47.24h-24.609z"/></clipPath><clipPath id="clipPath242889"><path d="m618.38 475.02h137.31v-230.76h-137.31z"/></clipPath><clipPath id="clipPath242905"><path d="m595.31 357h61.742v-77.154h-61.742z"/></clipPath><clipPath id="clipPath242933"><path d="m742.13 277.91h114v-188.69h-114z"/></clipPath><clipPath id="clipPath242949"><path d="m732.97 235.95h59.118v-117.49h-59.118z"/></clipPath><clipPath id="clipPath242973"><path d="m577.63 1191.8h330.34v-947.26h-330.34z"/></clipPath><clipPath id="clipPath242989"><path d="m652.01 989.85h126.18v-72.308h-126.18z"/></clipPath><clipPath id="clipPath243005"><path d="m502.74 1098.7h341.77v-465.47h-341.77z"/></clipPath><clipPath id="clipPath243025"><path d="m854.04 1191.8h53.774v-54.51h-53.774z"/></clipPath><clipPath id="clipPath243057"><path d="m816.05 1186.4h25.221v-57.63h-25.221z"/></clipPath><clipPath id="clipPath243077"><path d="m649.11 1200h23.103v-54.81h-23.103z"/></clipPath></defs><g transform="translate(70.979 163.76)"><g transform="matrix(.35278 0 0 -.35278 -121.05 589.62)"><g clip-path="url(#clipPath242441)"><g transform="translate(459.04 1737.4)"><path d="m0 0c-1.922 0.651-23.063 7.807-49.969 7.807-26.907 0-73.673-7.807-73.673-7.807l-19.859-7.807s5.125 6.506-14.094 53.996-42.282 115.13-42.282 115.13 16.016 29.94 16.016 44.252-7.688 66.357-8.328 68.308c-0.641 1.952-5.125 14.312-5.125 14.312h-5.125v25.372c0 11.059-10.251 38.383-11.532 42.286s-10.891 31.226-13.453 35.78c-2.563 4.554-3.844 6.506-7.688 6.506-3.843 0-10.89-7.156-11.531-14.312s7.688-34.48 7.688-34.48 7.687-19.516 8.328-25.371c0.64-5.855 0-10.409 0-10.409s-16.016 6.769-22.422 4.361c-6.407-2.409-13.454-3.06-15.376-7.614l-1.921-4.554s-12.172 0.651-18.579-2.602c-6.406-3.253-8.969-4.554-8.969-11.71v-11.059s-5.125 5.204-10.89 2.602c-5.766-2.602-8.328-6.506-8.328-9.108s1.921-17.565 5.125-25.371c3.203-7.807 5.765-22.119 9.609-22.77 3.844-0.65 8.969 0 8.969 0s-2.563-13.011 4.484-30.575c7.047-17.565 12.172-28.005 19.219-33.844 7.047-5.84 19.219-7.141 19.219-7.141s7.047-120.35 16.016-156.13c8.969-35.78 13.453-61.802 13.453-67.657s0-8.457 4.485-11.059c4.484-2.603 23.703-4.554 23.703-4.554s54.454-12.361 70.469-14.963c16.016-2.602 58.939-7.807 71.751-9.108 12.813-1.301 62.141-4.554 62.141-4.554s-3.843 0.651 3.844 0c7.688-0.65 14.094 0 14.094 0z" style="fill:#a46c35"/></g><g transform="translate(195.71 2005.4)"><path d="m0 0c1.051-2.164 1.704-6.464 2.385-8.909 0.942-3.385 2.844-7.222 4.228-10.435 2.225-5.165 1.955-9.622-3.143-13.184-18.743-13.096-19.163 3.074-25.53 12.936 2.992-5.288 3.77-11.796-0.506-16.273-2.963-3.104-8.07-4.467-7.336-9.117 1.51 0.06 5.587 3.502 7.535 4.095 4.298 1.308 10.128 0.633 14.542 0.955 7.013 0.511 11.792 5.99 18.258 8.579 5.787 2.317 11.991 0.225 17.853 2.407 12.537 4.668 7.105-2.538 8.308-10.151 3.029 2.441 6.606 14.575 6.583 19.337-0.02 4.192-0.237 4.495-4.205 4.804-3.939 0.308-7.581-0.441-11.376 0.992 6.86-6.036-5.5-15.215-12.359-12.388-8.9 3.67-7.588 13.759-12.612 20.981-0.961 2.805-3.14 9.638-3.787 10.353 0.067-0.139 1.516-5.373 1.162-4.982" style="fill:#693c11"/></g><g clip-path="url(#clipPath242457)" style="opacity:.2"><g transform="translate(242.99 1735.2)"><path d="m0 0c-4.81 26.527-10.656 52.845-15.024 79.458-2.956 18.012-3.82 36.173-4.934 54.335-0.475 4.049-0.928 8.1-1.294 12.161-0.135 1.501-0.062 3.625-3e-3 5.91-0.125 1.479-0.234 2.96-0.375 4.439-0.085 0.896 0.039 1.663 0.297 2.321-0.189 2.283-0.629 4.258-1.589 5.379-1.115 1.302-4.828 2.921-6.198 3.929-2.851 2.098-5.612 4.34-8.243 6.716-5.62 5.075-11.163 11.017-14.907 17.703-3.734 6.671-5.03 14.202-7.936 21.2-2 4.815-2.509 7.627-7.648 4.478-4.334-2.655-6.058-7.663-6.629-12.503-0.083-0.709-0.295-1.33-0.575-1.89 0.597-2.02 1.302-4.114 2.178-6.295 7.046-17.565 12.171-28.004 19.218-33.844s19.219-7.141 19.219-7.141 7.047-120.35 16.016-156.13c8.969-35.781 13.453-61.803 13.453-67.658s0-8.457 4.485-11.059c2.283-1.325 8.383-2.48 13.824-3.296 1.23 2.973 2.002 6.092 1.929 9.444-0.245 11.289-6.061 23.384-8.416 34.453-2.673 12.563-4.557 25.259-6.848 37.892m-70.636 253.3c0.548-0.37 1.056-0.865 1.489-1.525 0.216-0.33 0.612-0.769 1.082-1.259-0.393 4.284-1.35 8.489-2.053 12.726-2.298 13.842-4.906 28.237-2.581 42.175-0.058-0.029-0.124-0.052-0.181-0.081-6.407-3.253-8.969-4.554-8.969-11.71v-9.186c1.501-5.507 2.804-11.069 4.403-16.547 0.502-1.582 1.01-3.162 1.521-4.742 0.398-1.079 0.826-2.141 1.271-3.192 1.29-2.054 2.692-4.3 4.018-6.659m-23.065 31.165c0 0.076 0.012 0.144 0.015 0.218-5.075-2.584-7.382-6.173-7.382-8.622 0-2.603 1.922-17.565 5.125-25.372 3.203-7.806 5.765-22.119 9.609-22.769 2.095-0.355 4.566-0.322 6.385-0.22 0.081 0.133 0.156 0.266 0.238 0.399-13.209 5.323-13.978 49.227-13.99 56.366m74.278 72.564c4.233 0.659 3.589 8.162 3.559 12.283-0.075 10.411-2.487 20.613-3.068 30.995-0.048 0-0.087 9e-3 -0.135 9e-3 -3.844 0-10.891-7.156-11.532-14.312-0.411-4.588 2.863-17.456 5.267-26.108 2.226-1.666 4.445-3.095 5.909-2.867m-13.263-90.447c1.838-1.549 4.071-2.413 6.078-3.698 1.401-0.897 2.726-1.876 4.227-2.601 1.025-0.495 2.101-0.952 3.164-1.362 0.507-0.195 1.091-0.46 1.643-0.494-2.805 2.188-5.231 4.996-7.09 8.041-1.19 1.949-2.111 4.018-3.005 6.123-1.129 2.659-2.425 5.401-3.104 8.22-0.832 3.448-1.17 7.004-0.804 10.54 0.103 0.992 0.272 1.974 0.413 2.961 0.054 0.383 0.185 0.899 0.064 1.282-0.161-0.025-0.342 0.043-0.515 0.099 0.02 0.019 0.033 0.024 0.055 0.047-0.067 5e-3 -0.127-0.01-0.193-0.01-0.104 0.025-0.204 0.039-0.287 1e-3 1e-3 -6e-3 3e-3 -0.01 4e-3 -0.016-0.673-0.078-1.253-0.398-1.87-0.762-2.151-1.273-3.627-3.017-4.634-5.324-1.161-2.661-1.784-5.298-1.678-8.205 0.116-3.201 0.813-6.429 2.44-9.199 1.271-2.163 3.189-4.041 5.092-5.643m-14.436 6.42c0.037 6.298-0.284 12.633 0.11 18.882 0.565 8.957 1.951 17.746 4.244 26.38-4.398-1.306-8.265-2.58-9.612-5.772l-1.922-4.554s-0.363 0.017-0.948 0.031c8e-3 -0.556 0.012-1.107 0.025-1.67 0.543-11.574 4.047-22.502 8.103-33.297m234.21-273.46c-0.582 3.05-1.136 6.143-1.628 9.257-5.929 0.715-12.464 1.19-19.385 1.19-20.595 0-52.802-4.571-66.79-6.716-8.825-7.221-18.077-13.991-26.266-22.185-7.305-7.308-14.576-14.8-20.893-22.994-0.358-0.464-0.727-0.947-1.099-1.433 36.801 14.533 73.723 32.304 114.28 29.117 8.823-0.693 17.424-2.154 25.82-4.223-1.518 5.966-2.895 11.969-4.043 17.987" style="fill:#fff"/></g></g><g clip-path="url(#clipPath242473)" style="opacity:.10001"><g transform="translate(290.11 1771.8)"><path d="m0 0c2.532-14.291 1.602-27.64-0.916-40.841-1.029-10.978-3.523-21.893-7.76-32.614 1.137 0.823 2.295 1.611 3.419 2.456 1.895 1.671 3.834 3.289 5.966 4.632 4.29 3.458 8.482 7.046 12.494 10.827 4.671 5.381 8.988 11.08 12.836 17.224-6e-3 5.687-2.196 19.225-14.712 50.151-19.219 47.49-42.281 115.13-42.281 115.13s16.016 29.941 16.016 44.253-7.688 66.356-8.329 68.308c-0.64 1.952-5.125 14.312-5.125 14.312h-5.125v25.372c0 11.059-10.25 38.382-11.531 42.286-1.281 3.903-10.891 31.226-13.453 35.78-1.399 2.485-2.425 4.171-3.685 5.212 0.544-6.544 0.698-13.116 1.186-19.662 4.329-12.101 7.325-24.831 9.245-37.413 0.703-2.028 1.396-4.062 2.042-6.117 3.825-12.169 9.853-31.842-1.239-41.897-2.57-2.329-7.92-2.076-8.631 2.161-0.514 3.067-0.878 6.155-1.253 9.24-0.325 0.5-0.548 7.998-0.869 10.41-2.586 1.024-11.223 4.285-17.253 4.788 6.636-5.541 11.208-12.632 6.797-22.002-1.089-2.313-1.919-3.201-2.934-4.046 7.105-12.087 25.156-9.219 33.807-20.875 7.439-10.024 9.89-24.558 10.924-36.782 2.197-25.988-4.653-54.602-25.706-70.876 10.578-5.269 16.902-14.993 21.193-26.31 1.313-3.465 2.481-7.009 3.597-10.58 10.951-16.953 16.522-36.855 21.541-56.572 4.179-11.733 7.571-23.723 9.739-35.957m-71.955 224.56c1.802-8.05 3.442-8.197 3.364-8.416 3.723-2.859 5.902-1.869 6.321-1.611-0.037-0.029-0.085-0.071-0.149-0.131-11.097-10.334-21.885-8.224-26.833 2.514-4.486 9.737-7.292 28.501-10.57 38.708-2.403 7.481-1.602 15.776-1.602 15.776s-8.568 0.488-15.736-1.496c5.206-2.163 6.993-6.72 7.608-9.848 4.391-10.482 6.61-19.898 8.409-30.983 1.805-11.125 7.496-25.025 0.125-34.499 6.971-0.846 15.721 3.668 22.064 4.462 3.46 0.433 14.706-1.712 10.329-3.045-2.849-0.868-9.848-8.341-11.658-11.928-4.297-8.516 1.138-25.173 2.723-34.154 0.32 13.987-0.926 19.434 4.324 30.902 3.034 6.628 21.301 8.619 22.783 34.845 0.147 2.609-19.241 7.128-21.502 8.904m-63.677 24.748c5.576-7.573 8.074-21.279 9.644-28.499 0.733-3.368 1.338-6.919 1.602-10.448 1.308-5.935 1.729-11.943 0.177-18.44 4.761 0.196 9.812 2.714 10.721 7.065 0.562 1.087 0.955 2.316 1.082 3.762-4.593 13.64-9.111 23.49-16.565 43.28-1.088 0.875-4.012 2.999-6.661 3.28m321.52-349.22c-23.108-29.59-65.453-29.732-100.07-27.166-22.958 1.702-45.92 3.915-68.79 6.524-10.826 1.235-21.659 2.539-32.444 4.131-0.993-0.501-2.08-0.905-3.293-1.162-2.958-0.625-5.939-1.116-8.924-1.57 2.236-0.273 3.721-0.424 3.721-0.424s54.453-12.36 70.469-14.962 58.938-7.807 71.751-9.108c12.812-1.301 62.141-4.554 62.141-4.554s-3.844 0.651 3.844 0c7.687-0.65 14.094 0 14.094 0z"/></g></g><g transform="translate(218.12 2042.4)"><path d="m0 0c1.356-0.854 0.303-8.75 0.082-9.31-1.32-3.337-3.084-3.01-6.364-3.109 2.345-0.567 4.692-2.969 6.853-4.007 3.588-1.724 7.054-2.001 11.006-2.22 4.78-0.266 19.853-2.611 23.497 1.349-7.942-0.177-15.82-0.191-23.622 1.68-1.079 0.259-3.523 18.057-4.86 20.009-1.164 1.699 4.86-20.009-3.17-15.601-3.825 2.101-0.474 8.82-3.391 12.396-0.043-0.35 0.356-2.492 0.432-2.661-0.154 0.491-0.309 0.983-0.463 1.474 0.43-0.271 0.692-2.497 0 0" style="fill:#693c11"/></g><g transform="translate(1275.5 2010.3)"><path d="m0 0s13.284 29.731 15.182 37.954c1.897 8.223 7.59 30.363 7.59 35.424 0 5.06 0 10.753-5.06 15.181-5.061 4.428-6.326 5.061-9.489 3.796-3.162-1.266-4.428-10.121-8.223-18.977s-13.284-37.954-16.447-44.28c-3.162-6.326-9.488-21.507-9.488-21.507l-1.867-2.333s-1.296 2.965-5.724 2.965-5.693-12.018-5.693-12.018-3.795-16.447-9.489-24.038c-5.693-7.591-10.753-16.447-14.549-22.14-3.795-5.693-6.325-5.693-5.06-12.018 1.265-6.326 3.795-25.936 4.428-31.629 0.632-5.693 3.163-19.609 2.53-28.465-0.632-8.856 0.633-15.814 5.061-21.508 4.428-5.693 12.018-14.548 12.018-14.548s-22.165-70.215-24.366-82.867c-2.201-12.651-15.485-43.014-21.178-51.87s-18.977-39.219-20.242-49.34l-1.266-10.121s-17.711 18.344-51.237 27.2-70.215 9.489-70.215 9.489l-11.386 0.632-37.322-106.9v-3.795l49.973-9.488s45.545-10.121 62.624-11.387c17.079-1.265 51.238 0.633 67.684-3.162 16.447-3.796 32.894-5.694 39.22-5.061 6.325 0.633 24.037 3.163 25.302 10.754s15.814 58.196 24.038 80.968c8.223 22.773 11.386 29.098 15.181 65.787 3.796 36.689 7.591 140.43 7.591 140.43s16.447 3.162 23.405 20.242c6.958 17.079 9.489 40.484 9.489 40.484s5.693 0.633 10.753 13.916c5.061 13.284 10.121 24.671 6.958 34.159-3.162 9.488-3.795 12.019-10.121 11.386-6.325-0.632-8.856 0-8.856 0s6.06 12.742 1.898 20.875c-5.06 8.223-17.712 5.693-17.712 5.693l-5.06-3.163s3.795 10.754-1.898 14.549c-5.693 3.796-18.977-1.265-18.977-1.265" style="fill:#a46c35"/></g><g transform="translate(1250.6 2011.7)"><path d="m0 0c2.244-2.371 3.31-5.12 4.326-8.182 2.349-7.085 3.098-14.725 0.304-21.811-2.233-5.666-6.745-11.239-11.03-15.498-1.789-1.777-4.745-3.118-5.212-5.972-0.435-2.657 1.252-3.038 3.376-5.082 9.242-8.892 19.302-19.16 23.901-31.442 5.015-13.393 4.111-30.192 0.707-43.849 3.89 8.863 6.144 19.796 6.204 29.466 0.029 4.563-0.547 9.342-1.716 13.757-1.088 4.111-3.979 8.22-4.605 12.362 1.777-2.798 9.001-4.537 11.824-6.069 4.975-2.701 9.515-5.835 13.496-9.819 3.75-3.752 6.812-7.676 11.54-10.319 3.717-2.077 9.893-3.885 12.484-7.403 0.938 5.245 2.613 8.687 1.83 12.32-4.516 0.032-9.8-1.669-13.782 1.767-3.179 2.742-4.396 8.154-3.531 12.112 0.971 4.442 4.335 9.387 6.319 13.483 2.581 5.329 6.168 18.7 7.973 24.342-5.223-7.877-12.05-40.325-26.365-34.852-5.336 2.04-9.139 5.914-8.681 11.745 0.518 6.606 9.956 23.666 12.179 31.456-3.103-2.388-10.955-22.503-13.267-25.778-3.28-4.645-8.943-5.706-13.261-1.534-9.886 9.553 4.74 39.01 4.637 49.698-2.487-5.79-6.444-22.997-7.607-26.686-1.017-3.225-2.083-7.994-4.26-10.667-3.285-4.032-7.444-3.39-11.321-0.66-5.001 3.521-1.78 4.12 1.918 7.845 6.533 6.58 10.276 16.535 10.741 25.785 0.259 5.143-1.129 10.04-3.83 14.422-0.58 0.94-6.292 7.91-8.187 8.938 0.651-0.762 3.169-4.163 2.896-3.875" style="fill:#693c11"/></g><g clip-path="url(#clipPath242501)" style="opacity:.2"><g transform="translate(1214.1 1888.2)"><path d="m0 0c-0.633-8.856 0.633-15.814 5.061-21.507 1.379-1.774 3.06-3.844 4.727-5.867 3.47-1.714 6.933-2.864 10.098-3.071 2 0.439 3.988 0.917 5.95 1.522-6.844 15.706-16.003 30.615-20.224 47.331-3.923 15.533-4.639 31.822-3.507 47.811-3.106-2.175-6.124-4.453-8.89-7.046 1.309-7.101 3.649-25.26 4.255-30.708 0.632-5.693 3.163-19.609 2.53-28.465m-101.21-203.05c-14.433 3.813-29.446 6.099-41.872 7.469-3.262-4.14-6.758-8.197-9.01-12.922-1.039-2.179-1.997-4.623-2.49-6.99 1.247 0.152 2.505 0.226 3.761 0.319 17.841 3.942 37.493 2.133 54.509-3.294 17.387-5.546 31.831-16.711 46.37-27.556-0.367 7.127-2.359 13.69-5.105 20.248-7.434 5.993-23.006 16.609-46.163 22.726m116.47 161.19c-5.331-17.033-20.726-66.618-22.542-77.057-2.202-12.652-15.485-43.015-21.178-51.871s-18.978-39.219-20.243-49.34c-0.408-3.267-0.683-5.468-0.87-6.967 4.808-10.989 10.827-21.286 17.695-31.115 1.288 44.247 20.812 84.214 35.848 125.11 8.216 22.344 14.75 45.391 18.549 68.913 0.94 5.82 2.834 11.383-1.299 16.313-1.761 2.101-4.053 3.981-5.96 6.017" style="fill:#fff"/></g></g><g clip-path="url(#clipPath242517)" style="opacity:.10001"><g transform="translate(1336.2 1962.2)"><path d="m0 0c-2.055 6.165-3.05 9.38-5.224 10.711 0.051-0.704 0.032-1.44-0.152-2.236-0.012-0.055-0.026-0.109-0.039-0.164 0.552-1.212 0.79-2.629 0.527-4.227-2.286-13.922-1.239-24.966-9.167-42.287-0.335-0.731-1.708-2.44-3.945-4.513-5.915-5.484-16.664-1.669-14.25 5.894 2.378 7.445 4.549 14.938 6.59 22.466 1.3 6.505 2.561 13.029 4.899 19.264 0.564 2.353 1.124 6.008 1.968 6.829 1.653 4.399 4.998 15.187 1.714 20.524-1.538 2.499-3.779 3.995-6.15 4.88-0.798-20.379-2.947-46.82-18.039-62.053-1.385-1.397-2.966-2.044-4.52-2.139-4.368-1.527-9.755 1.325-9.613 6.462 0.396 14.302 9.667 25.474 13.472 38.711 0.315 1.197 0.637 2.391 0.897 3.605 0.096 0.45 0.241 0.845 0.393 1.232 0.709 3.992 1.152 8.038 1.282 12.141l-0.495-0.309s0.254 0.727 0.532 1.859c3e-3 0.275 0.02 0.547 0.02 0.823-1e-3 1.143 0.227 2.141 0.617 2.999 0.268 3.203-0.167 6.936-3.066 8.868-1.185 0.79-2.705 1.181-4.359 1.329 2.269-10.429 0.44-20.944-2.8-31.215-2.526-9.872-6.401-19.567-9.233-24.659-0.306-0.809-0.614-1.62-0.905-2.421-3.047-8.383-15.998-5.504-13.7 3.494 0.11 0.466 1.546 14.404 1.664 14.868 2.114 10.734 0.551 3.227 2.468 11.781 2.389 10.653 2.787 15.125 7.515 25.078 0.526 1.107 3.03 6.52 3.922 8.574 4.078 9.423 10.37 24.392 11.632 29.86 1.898 8.223 7.591 30.363 7.591 35.424 0 5.06 0 10.753-5.06 15.181-0.125 0.11-0.222 0.189-0.342 0.294-0.493-16.126-5.259-32.224-11.006-47.228-4.12-10.753-16.801-54.461-33.906-36.042l-0.26-0.325s-1.296 2.965-5.724 2.965c-1.05 0-1.916-0.687-2.635-1.717 21.172-17.721 7.758-41.534-8.498-57.381 11.12-17.158 28.561-32.124 29.807-53.602 0.793-13.652-3.468-31.847-11.521-42.946-0.73-1.007-1.547-1.959-2.423-2.851 5.623-0.69 11.353-0.395 17.248-0.321 1.154 0.015 2.339-0.606 2.921-1.619 3.941-6.862 3.423-14.55 3.102-22.216-0.407-9.72 0.016-19.452-0.354-29.181-0.668-17.55-2.723-35.091-7.442-51.983-1.879-8.641-4.338-17.183-6.728-25.734-5.113-18.299-8.926-36.919-13.501-55.353-4.575-18.44-10.63-36.205-17.454-53.918-5.034-13.068-10.663-25.938-19.634-36.775-0.323-1.49-1.711-2.727-3.293-2.727h-0.113c-0.803-0.155-1.598 0.087-2.257 0.572-0.016 0.011-0.033 0.02-0.048 0.032-0.872 0.663-4.454 9.325-5.327 11.337-1.662 3.832-3.287 7.683-5.042 11.474-2.984 6.444-6.509 12.499-9.871 18.742-1.594 2.96-3.12 5.968-4.647 8.977 1.891-5.919 3.115-12.023 3.861-18.208 1.01-5.901 3.406-11.876 2.395-17.801-1.755-10.28-9.368-9.94-13.145-10.668-11.892-2.294-24.946 0.952-36.587 3.227-14.316 2.797-28.822 4.423-43.137 7.205-9.588 1.863-24.145 3.601-32.146 9.817-7.841 6.092-5.726 18.547-4.901 27.116 1.16 12.052 2.273 23.676 5.504 35.419 2.404 8.734 5.407 17.28 8.293 25.864-12.895 1.191-21.686 1.346-21.686 1.346l-11.386 0.632-37.321-106.9v-3.796l49.973-9.488s45.544-10.121 62.624-11.386c17.079-1.266 51.237 0.632 67.684-3.163 16.447-3.796 32.894-5.693 39.219-5.061 6.326 0.633 24.038 3.163 25.303 10.754s15.814 58.196 24.037 80.968c8.224 22.773 11.387 29.098 15.182 65.787s7.591 140.43 7.591 140.43 16.447 3.163 23.405 20.242 9.488 40.484 9.488 40.484 5.693 0.633 10.754 13.917c5.06 13.283 10.121 24.67 6.958 34.158"/></g></g><g transform="translate(885.34 1252.1)"><path d="m0 0c0-3.903 16.914-65.279 16.914-65.279s-53.345-28.4-85.872-29.702c-32.528-1.301-191.26 29.702-191.26 29.702v17.769l7.807 30.596z" style="fill:#a46c35"/></g><g clip-path="url(#clipPath242537)" style="opacity:.10001"><g transform="translate(885.34 1252.1)"><path d="m0 0c0-3.903 16.914-65.279 16.914-65.279s-53.345-28.4-85.872-29.702c-32.528-1.301-191.26 29.702-191.26 29.702v17.769l7.807 30.596z"/></g></g><g transform="translate(670.66 1729)"><path d="m0 0s-54.646 34.154-73.187 37.081c-18.541 2.928-20.493 9.759-48.792 4.88-28.299-4.88-7.806-1.952-28.299-4.88-20.492-2.927-64.404-0.975-69.283-1.951s-8.783-12.686-5.855-35.13c2.927-22.444 19.516-94.655 28.299-102.46 8.782-7.807 14.962-6.831 14.962-6.831s34.805 8.705 51.394-0.039c16.589-8.743 27.323-29.236 27.323-29.236l8.783-82.945s19.516-110.27 25.371-136.62c5.855-26.347 11.71-70.259 10.734-95.631-0.976-25.371-6.659-46.84-6.659-46.84s47.644-24.395 60.33-26.347 77.09-23.42 112.22-11.71 52.46 8.783 77.461 24.396 46.469 36.105 46.469 36.105-12.686 44.889 0 108.32c12.686 63.429 29.275 170.77 29.275 173.7v40.984s34.805 4.88 62.778-3.903c27.974-8.782 62.128 134.66 62.128 134.66l-101.49 30.251s-43.912 21.468-69.284 19.029c-25.371-2.44-83.921-15.126-83.921-15.126l-75.805-24.395z" style="fill:#e6bf37"/></g><g transform="translate(930.26 1543.4)"><path d="m0 0c-18.908 5.671-37.788 11.707-56.985 16.229-17.34 4.086-35.863 4.645-53.608 5.301-22.484 0.831-44.987 0.431-67.475 0.017-43.989-0.808-87.915-0.959-131.88-2.975-13.968-0.641-27.932-1.342-41.902-1.929-2.084-0.088-4.961-0.486-7.917-0.636l3.206-30.275c29.716 0.224 59.417 1.361 89.114 2.415 86.491 3.07 180.5 7.691 266.14-14.661 0.352 2.322 0.667 4.426 0.942 6.291 1.306 13.502 1.306 16.186 0.363 20.223" style="fill:#96b000"/></g><g transform="translate(930.14 1558.6)"><path d="m0 0c-0.279 0.704-0.442 1.509-0.442 2.429v5.236c-0.354 6.126-0.593 12.25-0.136 18.335-9.451 3.144-19.071 5.576-27.924 7.807-56.852 14.325-115.54 19.072-174.05 18.637-31.973-0.238-63.936-2.045-95.752-5.195-8.29-0.821-16.619-1.695-24.958-2.623-6.664-1.576-13.568-2.367-20.187-4.269-6.885-1.978-13.67-4.361-20.36-6.988 0.578-0.995 0.899-1.599 0.899-1.599l1.875-17.71c0.113-0.047 0.233-0.082 0.343-0.135 2.367 0.048 4.734 0.152 7.099 0.247 4.487 0.182 8.975 0.374 13.462 0.561 21.384 0.889 42.753 2.087 64.145 2.826 41.596 1.438 83.289 1.624 124.91 2.004 33.233 0.303 68.809 1.207 101.24-7.088 16.767-4.288 33.338-9.365 49.927-14.324-0.029 0.616-0.057 1.232-0.09 1.849" style="fill:#96b000"/></g><g clip-path="url(#clipPath242565)" style="opacity:.2"><g transform="translate(548.68 1770.9)"><path d="m0 0c-28.299-4.879-7.807-1.952-28.299-4.879-20.492-2.928-64.405-0.976-69.284-1.952s-8.782-12.686-5.855-35.13c0.351-2.686 0.902-6.102 1.607-10.019 9.895 9.518 22.607 15.628 35.788 20.426 8.486 3.089 17.24 5.979 26.115 7.679 10.489 2.008 21.307 2.481 31.675 5.107 12.785 3.24 23.747 12.148 34.891 19.559-6.07 1.214-13.524 1.47-26.638-0.791m102.3-386.4c-11.595 16.565-23.858 32.698-34.559 49.83 1.864-24.911 5.114-49.689 7.901-74.523 2.938-26.179 4.23-52.192 4.731-78.508 0.209-10.923 0.436-21.885 0.21-32.827 22.274-17.381 49.08-28.781 76.286-35.996 1.073-0.285 2.142-0.554 3.215-0.804-3.967 32.384-8.453 64.661-18.401 95.846-8.937 28.015-22.57 52.965-39.383 76.982m197.44 241.98c-34.435-6.603-69.047-12.163-104.09-13.705-20.419-0.898-40.782-0.136-60.775 2.554-27.539-0.877-56.371 1.907-80.499 14.33-7.091-30.644-6.41-64.716-1.948-95.426 2.481-17.072 11.548-33.97 15.789-51.191 62.692 12.645 126.72 17.358 190.54 14.894 22.914 37.621 44.062 84.159 40.984 128.54" style="fill:#fff"/></g></g><g clip-path="url(#clipPath242581)" style="opacity:.10001"><g transform="translate(954.63 1734.8)"><path d="m0 0s-43.912 21.468-69.284 19.029c-25.371-2.44-83.921-15.126-83.921-15.126l-75.805-24.395-54.956 14.637s-54.646 34.154-73.187 37.081c-3.508 0.554-6.419 1.248-9.031 1.975 8.366-4.416 16.103-9.805 22.043-13.974 7.169-5.031 14.549-10.299 21.785-15.862 10.652-6.815 20.519-14.865 29.13-24.832 0.56-0.648 1.065-1.333 1.53-2.038 6.895-3.538 14.036-6.919 21.364-9.994 9.278-1.619 18.628-2.819 28.026-3.474 11.094-0.773 22.252-0.926 33.352-0.183 5.002 0.334 10.108 0.71 15.053 1.559 0.572 0.098 2.281 0.595 3.781 0.933 0.512 0.714 1.082 1.394 1.784 1.984 19.939 16.76 46.971 23.552 72.615 24.318 22.199 0.662 52.189-1.836 61.476-25.882 3.703-9.587 4.741-20.883 6.366-30.999 1.837-11.438 3.349-22.932 4.357-34.474 2.056-23.533 2.154-47.228-0.645-70.702-5.186-43.503-23.042-88.602-71.975-97.608-24.467-4.504-49.541-4.476-73.319 1.128-12.872 3.034-25.793 6.168-39.086 6.332-12.273 0.151-23.2-2.948-34.908-6.109-20.347-5.493-67.421-2.761-69.19-2.122 2.964-6.192 6.861-11.787 12.115-16.285 15.09-12.919 37.647-15.71 56.645-17.915 19.477-2.26 39.011-4.144 58.371-7.321 20.471-3.359 39.169-11.092 51.798-28.254 13.73-18.658 17.388-45.235 18.45-67.778 1.066-22.605-2.131-44.35-12.674-64.55-16.721-32.036-46.454-59.041-79.734-75.1 18.244-2.564 36.99-3.197 51.049 1.489 35.13 11.71 52.46 8.783 77.461 24.396s46.469 36.106 46.469 36.106-12.685 44.888 0 108.32c12.686 63.429 29.275 170.77 29.275 173.7v40.984s34.805 4.88 62.778-3.903c27.974-8.782 62.128 134.66 62.128 134.66zm-379.82-69.218c-2.306 16.291-7.011 32.118-15.687 45.762-0.473-2.53-1.013-5.055-1.65-7.568-5.728-22.588-16.471-46.669-40.111-54.768-16.482-5.647-34.616-3.173-51.7-5.884 2.897-8.465 5.643-14.651 7.881-16.641 8.782-7.807 14.963-6.831 14.963-6.831s34.804 8.705 51.393-0.039c13.177-6.945 22.653-21.293 25.997-26.906 6.668 23.856 11.583 47.92 8.923 72.657-8e-3 0.073-2e-3 0.145-9e-3 0.218"/></g></g><g clip-path="url(#clipPath242597)" style="opacity:.10001"><g transform="translate(989.67 1576.5)"><path d="m0 0c-14.482 2.676-32.87 7.732-41.144 21.142-9.836 15.943-2.923 37.714-0.918 54.84 1.073 9.163 2.412 18.472 3.522 27.829-12.605-34.897-25.567-69.972-23.191-106.22 0.907-0.173 1.815-0.338 2.712-0.569 0.2-0.052 0.365-0.136 0.559-0.193v0.444s34.805 4.879 62.779-3.904c3.858-1.211 7.834 0.485 11.822 4.29-5.438 0.547-10.842 1.367-16.141 2.346"/></g></g><g transform="translate(673.91 1805.1)"><path d="m0 0c0.651-5.204 0.651-45.539-3.903-61.152s-3.904-9.758-3.904-9.758-15.613 6.505-16.263 4.554c-0.651-1.952 9.073-48.141 24.378-64.405s31.569-29.275 36.773-31.877c5.205-2.602 26.023-7.156 26.023-7.156s19.516 7.156 31.877 24.07c12.36 16.915 27.973 46.84 29.925 60.827s2.602 18.541 2.602 18.541l-16.264-2.602-2.602 63.754z" style="fill:#a46c35"/></g><g clip-path="url(#clipPath242617)" style="opacity:.10001"><g transform="translate(785.16 1736.1)"><path d="m0 0-2.602 63.754-108.64 5.204c0.161-1.29 0.282-4.742 0.304-9.438 1.586-0.609 2.912-2.003 3.152-4.174 0.361-3.273 0.699-6.54 1.004-9.809 0.58-0.724 0.947-1.677 0.947-2.877-0.428-26.74 5.243-55.596 17.642-80.368 3.616-4.887 7.399-9.656 11.006-14.539 1.368-1.456 2.785-2.863 4.253-4.215 3.34-2.894 6.922-5.419 10.512-8.011 1.001-0.723 1.59-1.65 1.889-2.628 4.78-0.63 11.541 4.073 15.986 5.07 5.201 1.166 10.67 1.454 15.971 1.041 6.987-0.544 13.628-2.083 19.327-5.348 10.607 16.917 21.318 38.973 22.913 50.399 1.951 13.987 2.602 18.541 2.602 18.541z"/></g></g><g transform="translate(746.78 1731.4)"><path d="m0 0c5.214-14.351 0.578-33.419-3.75-47.193 0.603 0.447 1.177 0.918 1.754 1.388 2.549 3.14 4.961 6.378 7.098 9.815 9.09 14.621 14.185 23.456 20.264 39.505 3.419 9.296 7.65 16.164 11.663 34.366l-1.249 30.59-108.64 5.204c0.161-1.29 0.283-4.743 0.304-9.439 1.586-0.609 2.912-2.002 3.152-4.174 0.362-3.272 0.7-6.54 1.005-9.809 0.579-0.722 4.548-8.537 6.393-11.335 4.22-4.025 7.327-9.516 11.509-12.571 6.214-4.54 9.27-10.49 26.103-16.101 6.825-2.275 23.1-6.679 24.396-10.246" style="fill:#73461a"/></g><g transform="translate(639.43 1902.7)"><path d="m0 0s-5.53 21.124-15.288 20.148-14.963-7.212-16.914-12.357c-1.952-5.144-6.343-22.754 0.975-36.415 7.319-13.662 16.102-26.835 25.372-31.227 9.27-4.391 10.246 2.277 11.71 2.277s6.343-30.738 6.343-30.738-2.44-0.488 13.661-16.589c16.102-16.102 44.888-40.009 44.888-40.009s29.763-8.783 41.473 0c11.71 8.782 41.961 28.299 49.767 39.521 7.807 11.222 12.686 43.424 12.686 43.424s5.042-11.385 19.191 1.789c14.15 13.174 24.234 25.534 25.697 41.635 1.464 16.101-0.65 28.639-10.409 33.607-9.34 4.755-21.305-13.602-21.305-13.602s6.831 23.908 8.782 40.985c1.952 17.077 2.44 37.569-5.855 57.085-8.294 19.517-20.98 36.594-33.666 45.864-12.686 9.271-29.275 17.077-49.767 18.541s-44.888 0-62.453-13.174c-17.565-13.173-33.178-25.371-39.521-47.327s-6.343-20.493-7.807-35.13c-1.463-14.637-2.439-25.371-0.487-40.009 1.951-14.637 2.927-28.299 2.927-28.299" style="fill:#a46c35"/></g><g clip-path="url(#clipPath242641)" style="opacity:.10001"><g transform="translate(848.59 1917.7)"><path d="m0 0c-7.008 3.568-15.495-5.877-19.295-10.815-1.347-2.595-2.692-5.19-4.082-7.762-1.641-3.828-3.275-7.617-4.813-11.433 3.936 5.692 8.056 11.209 12.491 16.281 5.681 6.497 16.05 12.732 21.638 2.555 6.159-11.214-0.89-27.916-5.666-38.472-5.968-13.193-14.865-25.331-28.562-30.981-0.997-0.412-1.924-0.367-2.744-0.046 2.95-1.628 7.97-1.808 15.745 5.431 14.149 13.174 24.233 25.534 25.697 41.635s-0.651 28.639-10.409 33.607"/></g></g><g clip-path="url(#clipPath242657)" style="opacity:.2"><g transform="translate(623.45 1861.9)"><path d="m0 0c-5 9.391-8.411 19.728-9.744 29.716-1.437 10.775 1.723 27.882 14.102 28.334 0.396 0.547 0.913 0.948 1.47 1.269-1.55 1.132-3.263 1.761-5.133 1.574-9.759-0.976-14.963-7.212-16.915-12.356-1.951-5.145-6.343-22.754 0.976-36.416 6.363-11.877 13.833-23.378 21.767-29.068-2.725 5.415-4.964 11.099-6.523 16.947" style="fill:#fff"/></g></g><g clip-path="url(#clipPath242673)" style="opacity:.2"><g transform="translate(660.81 1828.8)"><path d="m0 0c-7e-3 0.079-1.989 9.488-2.415 14.184-2.605 11.411-4.371 22.924-2.844 34.744 1.541 11.925 7.768 25.946 19.935 29.84-1.72 4.379-6.682 9.063-8.48 13.215-0.625 1.443-1.095 2.897-1.507 4.355-4.801 8.746-5.415 19.889-7.221 29.425-0.162 0.857-0.095 1.634 0.111 2.339-1.114 2.203-2.257 4.444-3.225 6.926-4.811 12.335-1.526 26.658 2.474 38.752 5.318 16.081 12.207 31.552 20.531 46.215-14.984-11.541-27.781-23.312-33.372-42.666-6.342-21.956-6.342-20.492-7.806-35.129-1.464-14.638-2.44-25.372-0.488-40.009 1.145-8.587 1.951-16.815 2.425-22.169 2.161-10.149 2.613-20.61 3.483-30.977 0.807-9.609 4.343-33.312 3.73-34.581 1.955-6.633 5.487-28.885 5.487-28.885s-2.439-0.488 13.662-16.589c8.126-8.126 19.481-18.238 28.739-26.265-0.26 0.337-0.512 0.684-0.773 1.018-9.286 11.886-21.665 22.438-27.324 36.593-4.383 10.966 1.106 31.039 2.936 31.265-2.288-0.772-7.214-7.942-8.058-11.601" style="fill:#fff"/></g></g><g clip-path="url(#clipPath242689)" style="opacity:.10001"><g transform="translate(796.51 1827)"><path d="m0 0c1.095 1.708-6.111 6.8-10.029 7.417 5.367-9.82 8.391-8.219 8.11-15.371-0.105-2.68-1.395-5.479-1.609-6.231-1.139-4.015-0.982-3.242-2.541-7.116-6.578-16.353-17.19-30.597-31.416-41.063-5.849-4.303-12.123-7.863-18.602-11.054 4.363 0.425 8.347 1.519 11.233 3.683 11.71 8.783 41.96 28.299 49.767 39.521s12.686 43.425 12.686 43.425 5.041-11.385 19.191 1.789c14.149 13.173 24.233 25.534 25.697 41.635s-0.651 28.639-10.409 33.607c-9.34 4.755-21.306-13.603-21.306-13.603s6.831 23.908 8.783 40.985c1.951 17.077 2.439 37.57-5.855 57.086-8.295 19.517-20.98 36.594-33.666 45.864-12.376 9.043-28.476 16.677-48.281 18.405 3.729-1.764 7.438-3.921 11.148-6.532 16.091-11.325 27.983-28.227 33.817-46.989 3.782-12.163 8.804-28.824 4.693-41.375-5.683-17.347-23.901-7.027-36.157-10.93-13.113-4.175-12.214-28.242-11.779-38.924 0.277-6.807 0.955-13.655 2.459-20.308 0.237-1.047 0.552-3.835 1.274-5.076 0.256-0.078 0.664-0.254 1.325-0.6 2.574-1.348 7.408-1.585 10.313-1.12 30.456 4.879 47.045-8.782 31.252-66.684"/></g></g><g transform="translate(763.21 1903.6)"><path d="m0 0c-0.682 0.947-1.311 1.929-1.98 2.885-0.902 1.289-1.918 2.378-3.039 3.489-0.642 0.636-1.532 0.977-2.46 1.146-0.016 3.118-0.188 6.352 0.48 8.99 1.51 5.971 4.766 10.022 10.804 11.428 10.179 2.369 24.034-1.832 29.869-10.786 1.6-2.455 4.028-6.168 2.808-8.606-1.512-3.022-9.089-5.761-12.103-6.584-6.937-1.895-16.114-2.447-24.279-2.134-0.038 0.055-0.061 0.118-0.1 0.172"/></g><g transform="translate(755.91 1917.4)"><path d="m0 0c1.51 5.971 4.767 10.022 10.804 11.427 10.179 2.37 24.034-1.831 29.87-10.786 1.599-2.454 4.027-6.167 2.807-8.605-1.512-3.022-9.089-5.761-12.103-6.585-9.489-2.591-23.188-2.691-32.721-1.463 1.687 4.431 0.128 11.207 1.343 16.012" style="fill:#fff"/></g><g transform="translate(786.13 1914.9)"><path d="m0 0c-0.709-6.254-6.355-10.75-12.609-10.04-6.255 0.709-10.75 6.355-10.04 12.609 0.709 6.255 6.354 10.75 12.609 10.04 6.254-0.709 10.749-6.354 10.04-12.609" style="fill:#42210b"/></g><g transform="translate(781.35 1915.5)"><path d="m0 0c-0.41-3.615-3.673-6.213-7.287-5.802-3.615 0.41-6.213 3.672-5.803 7.287 0.41 3.614 3.673 6.212 7.288 5.802 3.614-0.41 6.212-3.672 5.802-7.287"/></g><g transform="translate(773.22 1916.1)"><path d="m0 0c-0.232-2.045-2.078-3.515-4.123-3.283s-3.515 2.078-3.283 4.123 2.078 3.515 4.123 3.283 3.515-2.078 3.283-4.123" style="fill:#fff"/></g><g transform="translate(811.61 1953.1)"><path d="m0 0c-2.997 4.318-6.932 7.68-10.871 10.971-6.767 5.653-14.477 10.129-22.871 12.404-5.819 1.578-11.787 2.346-17.684 3.52-2.085 0.415-3.499 1.046-5.439 1.19-0.583 0.044-1.135 0.136-1.673 0.054-0.062-0.04-0.134-0.067-0.197-0.105-0.244-0.945-0.526-1.887-0.757-2.824-1.137-4.607-2.01-9.477-1.894-14.243 0.028-1.166 0.043-2.3 0.373-3.411 0.119-0.4 0.306-0.741 0.364-1.17 1.255-0.17 3.1 0.292 4.257 0.276 2.727-0.04 5.465-0.34 8.17-0.665 4.334-0.52 8.581-1.361 12.937-1.724 3.188-0.265 6.382-0.438 9.566-0.743 6.037-0.58 11.591-2.889 17.169-5.273 2.822-1.207 5.601-2.512 8.357-3.881 1.208-0.601 2.512-1.507 3.839-1.741-0.448 2.708-2.156 5.218-3.646 7.365"/></g><g transform="translate(698.86 1905.8)"><path d="m0 0c0.784 0.864 1.52 1.769 2.293 2.643 1.041 1.179 2.173 2.147 3.412 3.124 0.71 0.561 1.633 0.799 2.573 0.863 0.368 3.096 0.903 6.29 0.537 8.986-0.827 6.103-3.606 10.495-9.447 12.572-9.847 3.502-24.087 0.889-30.895-7.35-1.866-2.259-4.697-5.675-3.759-8.235 1.161-3.172 8.382-6.749 11.284-7.906 6.679-2.664 15.735-4.248 23.884-4.856 0.043 0.05 0.073 0.11 0.118 0.159"/></g><g transform="translate(707.68 1918.7)"><path d="m0 0c-0.828 6.103-3.607 10.495-9.448 12.572-9.846 3.502-24.086 0.889-30.894-7.351-1.866-2.258-4.697-5.674-3.76-8.234 1.162-3.173 8.382-6.749 11.284-7.906 9.136-3.645 22.737-5.288 32.348-5.143-1.178 4.593 1.136 11.151 0.47 16.062" style="fill:#fff"/></g><g transform="translate(675.44 1919.9)"><path d="m0 0c0-6.295 5.103-11.397 11.397-11.397 6.295 0 11.398 5.102 11.398 11.397s-5.103 11.397-11.398 11.397c-6.294 0-11.397-5.102-11.397-11.397" style="fill:#42210b"/></g><g transform="translate(680.25 1919.9)"><path d="m0 0c0-3.638 2.949-6.587 6.587-6.587s6.587 2.949 6.587 6.587-2.949 6.587-6.587 6.587-6.587-2.949-6.587-6.587"/></g><g transform="translate(678.14 1920.7)"><path d="m0 0c0-2.058 1.669-3.727 3.727-3.727s3.727 1.669 3.727 3.727-1.669 3.727-3.727 3.727-3.727-1.669-3.727-3.727" style="fill:#fff"/></g><g transform="translate(707.42 1976.8)"><path d="m0 0c0.1 0.019 0.2 0.037 0.3 0.056 1.277-2.129 1.488-6.125 1.643-8.191 0.225-3.015 0.89-7.066-0.3-9.895-1.246 0.253-2.585 0.269-3.854 0.4-2.71 0.28-5.504-0.1-8.208-0.175-3.578-0.1-7.147-0.063-10.717-0.388-3.962-0.361-7.85-1.055-11.763-1.779-3.644-0.674-7.266-1.279-10.732-2.643-4.15-1.632-8.257-4.115-11.661-7.05 0.603 1.368 0.896 3.016 1.321 4.42 0.862 2.847 1.768 5.957 3.341 8.507 3.446 5.587 8.443 9.499 14.614 11.7 6.946 2.478 14.031 5.03 21.308 6.343 3.461 0.624 6.906 1.009 10.43 0.992 1.304-7e-3 2.718-0.184 3.984 0.196 0.278-0.375 1.041-3.764 0.716-4.029-0.032 0.295-0.065 0.59-0.422 1.536"/></g><g transform="translate(755.81 1855.8)"><path d="m0 0c0.379-1.04 0.659-2.106 0.638-3.312-0.044-2.519-1.411-3.88-3.704-4.735-3.757-1.401-7.856 0.137-11.724-0.224-2.564-0.239-3.893-2.663-6.236-3.612-2.596-1.052-6.023-1.888-8.841-1.516-3.004 0.397-6.027 2.917-8.421 4.627-1.955 1.396-3.042 1.447-5.206 0.527-2.604-1.108-5.419-1.493-7.736 0.709-1.378 1.31-1.591 4.089-1.429 6.01-0.295-0.665-0.569-1.376-0.764-2.131-0.374-1.442-0.793-4.625 0.499-5.824 1.259-1.168 4.614-2.26 6.263-2.4 2.025-0.173 4.129 0.339 6.148 0.474 1.59 0.106 2.663-0.543 3.894-1.521 1.214-0.965 2.256-2.038 3.597-2.832 1.745-1.035 3.357-1.321 5.306-1.581 3.988-0.531 8.24 0.431 11.476 2.802 1.074 0.787 2.107 1.597 3.323 2.14 1.241 0.554 1.999 0.353 3.324 0.154 1.939-0.291 4.311-1.032 6.266-0.407 1.231 0.394 3.061 1.675 3.796 2.778 2.109 3.168 1.041 6.733-0.347 9.985-0.042-0.036-0.079-0.075-0.122-0.111" style="fill:#693c11"/></g><g transform="translate(711.63 1791.1)"><path d="m0 0c1.264-0.919 2.656-1.655 4.101-2.309 3.602-1.63 7.994-2.966 12.024-3.364 4.109-0.407 8.651-0.713 12.675 0.185 2.965 0.662 5.801 1.154 8.855 0.996 0.088-1.043-2.7-1.892-3.576-2.267-2.595-1.108-5.587-2.061-8.397-2.58-2.173-0.401-5.036-0.937-7.288-0.933-2.391 4e-3 -5.264 0.9-7.344 1.887-2.525 1.198-5.24 2.612-7.368 4.324-1.154 0.929-2.864 2.178-3.464 3.481-0.313 0.679-0.597 0.855-0.218 0.58" style="fill:#693c11"/></g><g transform="translate(695.67 1821.1)"><path d="m0 0c-2.703 1.23-6.084 0.925-8.858 2.007-0.599 0.234-2.241 0.92-2.651 1.391-0.611 0.704-0.18 1.906-0.318 2.805-3.577-1.78-9.866-3.714-10.224-8.104 1.199-0.04 2.818 1.373 4.066 1.744 2.496 0.742 4.6-0.119 6.81-1.103 4.046-1.802 8.068-3.639 12.203-5.269 1.449-0.572 2.99-1.119 4.345-1.804-0.128 1.975-3.184 4.618-4.32 6.123-0.528 0.7-0.996 1.63-1.801 2.117 0.408-0.217 1.02-0.095 0.748 0.093" style="fill:#693c11"/></g><g transform="translate(768.64 1819.4)"><path d="m0 0c6e-3 0.941-0.286 0.751-1.285 0.727 0.983-0.13 2.489 0.638 3.338 0.922 0.725 0.242 1.942 0.598 1.968 1.474-0.686 0.245-1.845 0.5-2.365 0.97 2.116 0.629 4.872 0.911 6.941 0.064 1.274-0.521 2.397-1.266 3.538-1.99 0.485-0.308 0.852-0.545 1.185-0.969-0.958 0.105-1.9 0.317-2.868 0.408-1.547 0.147-2.974-0.02-4.406-0.551-1.217-0.451-2.388-1.026-3.625-1.475-1.336-0.485-2.646-1.035-3.995-1.487 6e-3 0.575 0.626 1.096 0.757 1.681 0.093 0.413 0.069 0.764 0.294 1.151-0.01-0.227-0.015-0.454 0.523-0.925" style="fill:#693c11"/></g><g transform="translate(691.36 1822.7)"><path d="m0 0c1.04 0.192 2.002 0.555 2.991 0.887 1.605 0.537 3.281 0.912 4.913 1.375 4.719 1.337 9.639 2.184 14.486 3.059 8.005 1.445 16.672 1.651 24.747 0.731 6.372-0.726 12.615-2.323 18.849-3.694 3.601-0.792 7.286-1.639 10.777-2.793 0.552-0.183 1.428-0.42 1.881-0.788 1.097-0.892-2.985-1.998-3.193-2.087-4.073-1.749-7.876-4.012-12.11-5.437-3.85-1.295-7.99-1.502-12.068-1.585-4.142-0.085-8.299-0.052-12.44 0.023-4.952 0.089-9.911 0.365-14.803 1.085-3.218 0.473-6.386 1.129-9.561 1.795-2.941 0.616-5.867 1.254-8.694 2.231-3.101 1.071-5.705 2.827-8.684 4.105-0.752 0.323 1.208 0.778 2.909 1.093" style="fill:#8e502a"/></g><g transform="translate(689.23 1819.7)"><path d="m0 0c0.067 0.015 15.221-13.285 18.302-14.89 8.247-4.295 15.542-5.898 25.157-5.765 6.541 0.091 14.252 1.347 19.297 3.828 8.93 4.393 14.519 13.015 21.888 19.334-6.206-3.171-15.592-1.612-22.285-1.518-7.301 0.103-14.561 0.058-21.837-0.524-7.428-0.594-14.649-0.792-22.091-0.346-5.579 0.334-16.774 3.542-22.024 1.722 1.643-1.301 2.395-1.101 3.593-1.841-0.162-0.036 2.539-1.567 0 0" style="fill:#fff"/></g><g clip-path="url(#clipPath242777)" style="opacity:.3"><g transform="translate(702.05 1819.1)"><path d="m0 0c7.787-1.588 15.374-1.571 23.309-1.246 7.286 0.298 14.544 0.767 21.841 0.735 5.698-0.025 11.385 1.118 17.034 0.493 1.053-0.117 1.677-1.526 1.089-2.294-0.552-0.722-1.244-1.278-1.992-1.764-0.138-0.177-0.318-0.335-0.588-0.444-0.137-0.055-0.279-0.096-0.417-0.15-5e-3 -2e-3 -0.011-4e-3 -0.016-7e-3 2e-3 -4e-3 5e-3 -9e-3 7e-3 -0.013-0.028-7e-3 -0.056-0.013-0.084-0.02-0.456-0.22-0.923-0.424-1.416-0.591-0.132-0.212-0.307-0.402-0.578-0.52-7.27-3.162-14.978-3.371-22.918-3.342-6.257 0.023-12.462 0.028-18.665 0.309 4.097-1.156 8.393-1.997 12.536-2.576 1-6e-3 1.996-0.014 2.984-0.034 6.159-0.125 12.345-0.208 18.364 0.643 3.27 0.717 6.546 1.62 9.985 2.54 3.805 3.766 7.315 7.898 11.347 11.356-6.206-3.171-15.592-1.613-22.285-1.519-7.301 0.103-14.561 0.058-21.837-0.523-7.428-0.594-14.649-0.793-22.091-0.347-4.984 0.298-14.438 2.88-20.143 2.133 4.935-0.599 9.626-1.818 14.534-2.819" style="fill:#647482"/></g></g><g clip-path="url(#clipPath242793)" style="opacity:.2"><g transform="translate(726.36 1865.1)"><path d="m0 0c0.698-1.05 2.056-2.571 2.53-3.741-0.664-0.205-2.618 0.123-3.343 0.082-1.549-0.089-3.193-1.389-4.31-2.359-1.56-1.353-1.826-3.84-2.493-5.854-0.993 1.237-1.372 2.881-2.195 4.221-0.967 1.575-3.044 2.003-4.73 2.312-1.427 0.262-2.513 0.329-3.893-0.173-1.152-0.419-2.239-0.976-3.371-1.436-0.266 0.691 0.383 1.863 0.669 2.514 0.665 1.515 1.92 2.992 3.141 4.082 1.225 1.092 2.544 1.503 3.828 2.43 1.147 0.827 1.631 2.377 2.053 3.647 1.866 5.616 1.759 11.021 1.291 16.842-0.53 6.588-0.414 13.469 0.905 19.972 1.521-12.952 4.103-24.444 6.747-37.66 0.487-2.439 2.795-4.314 3.171-4.879" style="fill:#fff"/></g></g><g clip-path="url(#clipPath242809)" style="opacity:.10001"><g transform="translate(745.47 1868.8)"><path d="m0 0c-1.583-1.139-2.233-4.082-2.791-5.674-0.674-1.922-1.852-4.102-1.798-6.157 3.093 1.216 4.789 2.921 8.492 1.649 1.824-0.627 3.436-1.629 5.189-2.425 0.844-0.383 2.309-1.308 3.298-1.071-2.059 3.548-9.801 17.151-15.552 12.24 0.529-0.522 1.149-0.911 1.861-1.164"/></g></g><g clip-path="url(#clipPath242825)" style="opacity:.2"><g transform="translate(731.86 1794.4)"><path d="m0 0c-3.316 0.25-6.579 0.891-9.847 1.471-2.119 0.634-4.27 0.934-6.454 0.899-1.144 0.43-1.928 0.095-2.35-1.005 1.899-2.981 4.249-4.359 7.79-5.235 3.541-0.877 9.086-1.119 12.674 0 0.854 0.267 3.123 0.728 3.257 1.851-0.149 0.186-0.299 0.371-0.448 0.557-0.678 0.676-2.893 1.332-4.622 1.462" style="fill:#fff"/></g></g><g clip-path="url(#clipPath242841)" style="opacity:.16"><g transform="translate(617.48 1897.8)"><path d="m0 0c-0.637 3.618 2.171 12.649 6.654 11.263 3.908-1.209 7.974-11.281 8.92-14.748 0.645-2.359 1.461-5.75 0.338-7.995-1.209-2.416-3.556-2.622-3.67-5.705-0.243-6.582 10.84-9.653 7.637-17.163-2.864-6.714-8.301-0.548-11.023 2.983-3.994 5.181-7.507 11.234-4.359 17.66 3.083 6.296 7.588 7.118 4.146 14.549-0.877 1.895-2.143 5.246-4.943 4.507-3-0.793-1.868-4.347-2.794-6.237-0.428 0.358-1.803 2.112-1.195 2.836 0.661-0.35 0.758-1 0.289-1.95-0.443 2.516 0.221 2.831 0 0"/></g></g><g transform="translate(627.98 1902.1)"><path d="m0 0c1.193-3.049 1.723-6.577 2.061-10.126 0.245-2.572-1.552-4.139-3.644-4.549-0.665-1.969-1.388-3.997-1.383-5.946 0.017-5.941 3.19-6.926 7.272-6.561-1.476 1.701-2.647 3.495-2.566 5.678 0.114 3.082 2.461 3.289 3.669 5.704 1.124 2.245 0.307 5.636-0.337 7.995-0.791 2.896-3.759 10.383-6.993 13.481 0.821-1.847 1.459-3.732 1.921-5.676" style="fill:#693c11"/></g><g clip-path="url(#clipPath242861)" style="opacity:.16"><g transform="translate(845.48 1888.1)"><path d="m0 0c1.047 3.521-0.709 12.814-5.32 11.95-4.021-0.753-9.214-10.293-10.551-13.629-0.91-2.27-2.11-5.545-1.251-7.904 0.924-2.538 3.232-3.012 2.992-6.087-0.511-6.567-11.874-8.349-9.551-16.176 2.076-6.998 8.184-1.495 11.292 1.701 4.561 4.69 8.744 10.301 6.353 17.045-2.343 6.608-6.723 7.94-2.454 14.928 1.089 1.782 2.73 4.967 5.427 3.911 2.889-1.131 1.358-4.532 2.062-6.515 0.465 0.306 2.033 1.891 1.511 2.68-0.697-0.272-0.867-0.906-0.51-1.904 0.728 2.449 0.105 2.838 0 0"/></g></g><g transform="translate(835.54 1893.6)"><path d="m0 0c-1.535-2.893-2.465-6.337-3.207-9.823-0.538-2.527 1.068-4.29 3.099-4.937 0.435-2.032 0.922-4.129 0.693-6.065-0.696-5.9-3.962-6.515-7.975-5.685 1.661 1.52 3.03 3.169 3.199 5.346 0.24 3.075-2.068 3.549-2.992 6.087-0.859 2.359 0.341 5.634 1.251 7.904 1.117 2.786 4.923 9.884 8.49 12.591-1.027-1.74-1.876-3.539-2.558-5.418" style="fill:#693c11"/></g><g transform="translate(647.24 411.59)"><path d="m0 0s-41.961-67.332-46.84-86.849c-4.879-19.516-12.685-35.129-4.879-56.598 7.807-21.468 12.686-20.937 31.227-23.642 18.54-2.705 48.791 17.787 62.453 33.401 13.661 15.613 57.573 64.404 57.573 67.332 0 2.927 8.91 123.93 8.91 123.93l-67.459 5.855z" style="fill:#cfc800"/></g><g transform="translate(688.23 475.02)"><path d="m0 0-40.985-63.429s-14.865-23.854-27.928-47.281c4.698-1.075 9.413-3.249 14.026-5.879 4.205-1.787 8.282-3.915 12.234-6.275 4.045-2.136 7.888-4.639 11.422-7.688 2.328-1.746 4.604-3.551 6.817-5.402 24.972 32.524 55.292 78.59 24.316 116.11-5.852 7.086 4.066 17.552 9.955 10.42 2.131-2.581 4-5.187 5.698-7.807 0.814 0.818 1.808 1.438 2.952 1.715 8.047 1.949 16.106 2.218 24.356 2.233 2.963 5e-3 6.404-2.135 6.999-5.221 0.337-1.749 0.616-3.503 0.873-5.258 0.209-0.855 0.405-1.72 0.578-2.598 12.122-18.868 5.308-47.958-1.263-67.465-9.507-28.227-29.709-50.221-47.663-73.3-12.704-16.332-27.58-35.5-47.575-42.905-8.523-5.087-17.737-7.624-27.517-5.644-5.824 0.047-11.547 1.772-16.438 5.787-1.488 1.222-2.765 2.535-3.854 3.92 0.105-0.305 0.182-0.599 0.293-0.905 7.807-21.469 12.686-20.937 31.227-23.643 18.541-2.705 48.791 17.788 62.453 33.401 13.661 15.613 57.574 64.404 57.574 67.332 0 2.927 8.909 123.93 8.909 123.93z" style="fill:#b56f00"/></g><g clip-path="url(#clipPath242889)" style="opacity:.2"><g transform="translate(688.23 475.02)"><path d="m0 0-40.985-63.429s-2.588-4.154-6.548-10.689c0.78 0.189 1.648 0.143 2.549-0.274 9.879-4.568 20.184-8.877 31.283-7.977 4.916 0.399 4.971-7.261 0.079-7.659-12.387-1.005-24.053 3.842-35.074 8.938-1.018 0.471-1.594 1.185-1.852 1.975-0.419-0.699-0.846-1.41-1.283-2.14 13.38-3.019 26.362-9.672 36.261-19.089 3.252-3.093-0.694-8-4.502-6.117-8.445 4.176-17.02 8.08-25.285 12.616-2.673 1.467-6.48 3.26-9.826 5.516-0.252 0.052-0.504 0.107-0.755 0.164-0.611-1.034-1.231-2.089-1.857-3.155 6.484-2.842 12.643-6.324 18.863-9.692 2.915-1.329 5.774-2.757 8.502-4.403 0.137-0.066 0.272-0.138 0.409-0.204 0.31-0.148 0.565-0.332 0.796-0.53 1.573-1.006 3.096-2.095 4.547-3.302 3.373-2.808-0.844-8.355-4.501-6.118-2.192 1.341-4.422 2.608-6.659 3.861-9.348 3.121-18.117 7.626-27.298 11.187-0.63-1.096-1.26-2.189-1.891-3.297 13.055-5.098 25.615-10.786 36.446-19.945 2.735-2.314 0.804-5.639-1.913-6.28 1.243-1.005 2.482-2.004 3.716-2.983 0.755-0.176 1.467-0.231 2.148-0.198 7.822 11.617 17.894 20.779 24.227 33.529 2.691 5.417 7.438 17.213 15.265 16.33 8.762-0.989 9.896-16.676 10.76-23.065 1.794-13.266 0.749-26.868-2.717-39.788-6.79-25.314-22.53-48.051-43.447-63.761-11.868-8.914-25.504-15.563-40.181-18.178-3.033-0.54-6.077-0.881-9.126-1.132 2.451-0.399 5.208-0.767 8.372-1.229 18.541-2.705 48.791 17.788 62.453 33.401 13.661 15.613 57.574 64.404 57.574 67.332 0 2.927 8.909 123.93 8.909 123.93z"/></g></g><g clip-path="url(#clipPath242905)" style="opacity:.3"><g transform="translate(621.22 354.35)"><path d="m0 0c-0.013 0.396-0.027 0.792-0.04 1.188 3.343 0.934 11.905-3.419 13.331-4.204 8.563-4.714 15.853-11.207 22.545-18.252-2.17-2.03-10.902 1.197-13.837 1.7-7.849 1.345-14.55 1.917-22.016-1.004 0.773-4.509 5.116-5.606 8.991-7.737-0.346-3.19-9.439-6.199-11.284-8.008-2.957-2.899-3.605-6.068-4.284-9.989-0.819-4.735-1.875-9.892-2.261-14.64-0.363-4.445 0.089-8.842-1.204-13.144-7.121-2.826-15.704 9.728-15.843 15.406-0.132 5.339 3.306 10.941 5.057 15.797 2.176 6.033 3.479 12.284 5.517 18.347 2.478 7.376 6.024 14.59 9.646 21.471 0.867 1.647 2.244 5.207 4.367 5.669 1.575 0.343 3.138-1.002 4.598-1.271-1.318 1.095-2.412 2.386-3.283-1.329" style="fill:#fff"/></g></g><g transform="translate(746.78 277.91)"><path d="m0 0c-1.498-5.319-22.444-80.994-22.444-103.44s-0.976-61.477 11.222-69.284c12.198-7.806 29.763-14.637 37.569-15.613 7.807-0.976 39.033-1.951 54.647 12.686 15.613 14.637 27.323 26.347 28.299 42.936s-9.759 49.768-9.759 49.768l-28.299 82.945z" style="fill:#cfc800"/></g><g transform="translate(827.13 177.53)"><path d="m0 0c0.209 0.041 0.421 0.08 0.632 0.12-1.618 17.527-3.536 35.016-6.687 52.353-2.7 14.86-2.818 33.539-12.139 46.094-0.45 0.606-0.743 1.208-0.97 1.805h-45.195c4e-3 -0.297 0.027-0.582-5e-3 -0.902-3.271-33.222-7.23-66.394-9.019-99.729 0.264 0.075 0.512 0.168 0.803 0.215 23.981 3.9 48.55 3.491 72.58 0.044" style="fill:#b56f00"/></g><g transform="translate(854.22 164.16)"><path d="m0 0c-4.086-21.336-18.334-40.978-37.517-51.404-21.32-11.589-50.115-10.486-70.267 3.444-6.852 4.736-12.09 10.771-16.085 17.568-0.351 0.429-0.64 0.922-0.868 1.473-1.934 3.502-3.542 7.198-4.88 11.015 0.711-18.128 3.105-36.055 10.948-41.074 12.198-7.807 29.763-14.637 37.569-15.613 7.807-0.976 39.033-1.952 54.647 12.686 15.613 14.637 27.323 26.347 28.299 42.936 0.306 5.203-0.541 12.038-1.846 18.969" style="fill:#b56f00"/></g><g clip-path="url(#clipPath242933)" style="opacity:.2"><g transform="translate(846.31 194.96)"><path d="m0 0-28.299 82.945h-71.235c-0.403-1.43-2.218-7.971-4.647-17.17 4.387-10.111 11.834-19.103 18.025-28.202 12.02 3.098 24.172 3.02 36.359 0.292 0.494-0.111 0.914-0.314 1.273-0.575 2.515-0.373 5.023-0.812 7.51-1.377 4.033-0.916 3.369-6.066 0.109-7.391-13.175-5.353-27.709-1.034-40.977-3.605 14.019-1.157 28.335 0.715 41.844-4.617 3.755-1.483 3.783-7.603-0.908-7.54-8.093 0.107-16.172 0.871-24.271 0.977-6.612 0.087-17.443 1.189-24.923-1.107-0.166-1.118-0.353-2.231-0.579-3.334-0.074-0.482-0.151-0.963-0.223-1.444 0.839-1.461 2.435-2.478 4.414-3.186 4.513-0.529 9.205-0.35 13.65-0.253 10.539 0.229 21.325 2.109 31.854 1.368 3.998-0.281 5.623-6.817 1.094-7.51-8.3-1.269-32.362-4.707-47.302-0.921-1.64 0.195-3.203 0.443-4.688 0.742 0-5e-3 0-9e-3 -1e-3 -0.014-0.431-2.798-0.633-5.486-0.741-8.196 0.769 0.118 1.538 0.225 2.307 0.33 17.637 4.181 36.375 1.843 54.21-0.044 3.729-0.395 4.698-5.005 2.622-6.878 15.161-10.437 16.218-31.984 10.118-49.356-6.225-17.724-18.386-32.246-34.688-39.678 12.627 0.605 29.393 3.516 39.552 13.04 15.614 14.638 27.323 26.348 28.299 42.937s-9.758 49.767-9.758 49.767"/></g></g><g clip-path="url(#clipPath242949)" style="opacity:.3"><g transform="translate(748.73 235.95)"><path d="m0 0c0.378-3.323-0.766-6.504-1.528-9.711-2.422-10.199-3.372-19.611-4.119-30.061-0.526-7.352-0.998-14.881 0.388-22.093 0.291-1.513-8e-3 -2.006 1.346-2.993 1.573-1.148 10.62-0.308 11.777-0.264 12.227 0.46 23.473 1.991 35.493-1.384-12.033-5.886-23.965-11.521-35.575-18.272 4.189-0.152 11.84-0.153 15.101-2.912-2.154-1.529-6.14-3.44-7.18-6.087 3.188-1.506 6.565-2.353 10.131-2.542 2.91 0.381 5.48-0.212 7.71-1.78-1.588-1.68-4.498-3.64-3.403-6.283 1.347-3.253 8.082-4.053 7.664-8.235-0.83-8.295-23.578-3.776-27.393-2.489-8.461 2.854-16.305 6.961-22.199 13.594-2.327 2.621-3.84 4.291-3.945 8.029-0.107 3.823 0.121 7.691 0.119 11.518-5e-3 7.795 0.042 15.591-0.03 23.385-0.082 8.778 1.079 17.509 1.234 26.312 0.093 5.348 1.342 10.343 2.704 15.467 0.709 2.668 1.132 8.836 2.903 11.229 2.31 3.121 10.213 2.71 11.388 5.179-1.507-0.919-2.803-2.089-2.586 0.393" style="fill:#fff"/></g></g><g transform="translate(728.23 563.82)"><path d="m0 0-43.531 61.477s-32.584 54.646-35.511 65.381c0 0-11.71 24.395-6.831 28.299 4.879 3.903 10.734 26.347 27.323 63.428 16.589 37.082 48.792 175.65 48.792 175.65l9.758-5.855s-4.879-179.55-8.782-225.28c-3.904-45.731 8.782-163.1 8.782-163.1m179.58 535.73c-0.948 1.464-0.517 48.304-0.029 61.965 0.488 13.662-5.529 30.251-5.529 30.251s-40.822-10.734-42.774-10.246-48.791 0-48.791 0h-63.917s-34.642 4.391-57.574 7.319c-22.932 2.927-63.429 18.305-66.356 20.492l-18.541-52.247-57.574-194.15s-31.226-121-47.816-203.95c-16.589-82.946-5.854-129.79 0-136.62 5.855-6.831 71.236-87.825 84.898-128.81 13.661-40.984 33.178-62.453 41.31-75.138 8.131-12.686 19.191-20.493 24.07-20.493s32.202 12.686 55.622 28.299c23.42 15.614 30.251 33.178 30.251 33.178l0.976-48.791c0.975-48.791-4.88-118.08-4.88-118.08s16.59-29.275 39.034-41.961c22.444-12.685 35.129-2.927 50.743 5.855 15.613 8.783 35.129 34.154 42.936 46.84s18.541 60.501 23.42 98.559c4.879 38.057-5.855 81.969-5.855 84.571 0 2.603-3.253 22.119-8.457 55.948-5.205 33.829-14.963 83.27-14.963 83.27s-1.301 22.77-1.301 26.022c0 3.253 3.253 69.284 3.253 69.284s3.903 61.477 3.903 72.212c0 10.734 10.409 69.934 10.409 69.934s13.011 54.646 19.516 80.668c6.506 26.022 11.06 76.115 11.06 76.115s3.903 78.229 2.956 79.692" style="fill:#368fb5"/></g><g transform="translate(745.24 1051.9)"><path d="m0 0c-1.563-12.366-2.045-50.115-24.466-41.381-19.629 7.647-10.522 37.799-8.166 53.022 2.308 14.913 2.648 30.396 3.89 45.441 1.402 16.977 2.558 33.951 2.644 50.992 0.021 4.122 3.178 6.842 7.063 7.21 5.431 0.514 9.101-2.316 11.541-7.02 3.911 3.986 11.946 1.69 12.258-4.922 1.629-34.535-0.43-69.067-4.764-103.34m124.31 13.579c-10.549 2.825-22.679 7.603-29.416 16.65-0.687 0.502-1.33 1.139-1.874 1.988-10.899 17.004-0.648 35.2-1.123 53.185-4.24 20.558-18.251 32.824-34.925 44.214h-55.444s-34.642 4.391-57.574 7.318c-2.738 0.35-5.732 0.881-8.878 1.542-1.14-11.998-3.575-23.624-7.993-34.682-1.167-5.297-2.754-10.592-4.776-15.734-1.056-7.483-3.585-14.177-7.816-19.487-0.725-1.639-1.499-3.266-2.354-4.869-1.639-3.073-4.838-3.946-7.714-3.316-3.723-1.922-8.022-3.294-13.015-3.929-15.349-1.952-30.459 1.679-45.625 3.957l-1.408-4.747c0.582 0.02 1.18-3e-3 1.808-0.132 26.649-5.473 69.686-17.612 79.868 17.784 5.564 19.344 9.82 38.481 34.419 37.084 5.019-0.285 7.589-4.145 6.988-8.9-5.899-46.661-3.189-97.583-15.371-143.98-2.694-11.397-6.409-22.495-11.794-32.87 3.806-1.499 7.406-3.365 10.913-5.44 3.448 10.44 5.677 21.229 9.253 31.633 0.85 3.224 3.078 4.811 5.508 5.136 0.043 8e-3 0.085 0.016 0.128 0.023 0.15 0.017 0.298 0.027 0.449 0.035 1.361 0.155 2.819-0.044 4.289-0.717 5.734-2.627 13.738-6.443 20.234-4.536 7.345 2.156 9.085 11.066 10.596 17.563 4.584 19.706 5.343 40.041 6.941 60.138 1.23 15.464 1.882 30.563 2.091 46.074 0.159 11.762-0.119 25.594 6.061 36.064 2.997 5.077 9.197 4.037 12.03 0.555 16.045-4.734 32.963-5.701 48.668-11.737 3.601-1.384 6.19-4.622 5.151-8.678-4.247-16.582-3.963-35.115-1.023-51.913 2.047-11.703 7.152-16.957 17.604-22.459 10.92-5.747 23.414-9.474 35.691-10.764 7.573-0.796 19.233-1.853 24.455 4.98 0.718 0.94 1.514 1.585 2.343 1.996v0.013c-11.685-4.179-25.912-2.111-37.365 0.955" style="fill:#2b7ea1"/></g><g clip-path="url(#clipPath242973)" style="opacity:.2"><g transform="translate(907.81 1099.6)"><path d="m0 0c-0.948 1.464-0.516 48.303-0.028 61.965s-5.53 30.251-5.53 30.251-40.822-10.734-42.774-10.247c-0.387 0.097-2.558 0.155-5.768 0.187 16.281-96.967 13.436-196.47-18.666-290.2-0.099-0.29-0.219-0.555-0.328-0.834-1.295-30.494-3.051-60.985-4.298-91.458-1.644-40.212-1.002-79.909 0.854-120.08 0.851-18.403 1.152-36.851-0.748-55.203-0.995-9.606-2.272-19.197-4.84-28.519-1.359-4.933-3.215-9.663-3.489-14.504 0.172-0.215 0.363-0.412 0.526-0.636 20.169-27.628 25.608-58.954 30.337-91.996 7.641-53.39 25.768-112.54-6.097-161.74-12.179-18.805-29.725-33.79-51.423-40.284-21.431-6.415-43.425-3.205-63.665 5.083 3.394-5.642 18.592-29.597 38.317-40.746 22.444-12.686 35.13-2.928 50.743 5.855 15.613 8.782 35.13 34.154 42.937 46.84 7.806 12.685 18.54 60.501 23.419 98.558 4.88 38.057-5.854 81.97-5.854 84.572s-3.253 22.119-8.458 55.947c-5.204 33.829-14.962 83.271-14.962 83.271s-1.301 22.769-1.301 26.022 3.252 69.284 3.252 69.284 3.904 61.477 3.904 72.211 10.408 69.934 10.408 69.934 13.011 54.647 19.517 80.669 11.059 76.114 11.059 76.114 3.904 78.229 2.956 79.693m-177.43-574.63c-2.696 16.761 1.441 22.282-2.153 38.902l-43.531 61.477s-32.583 54.646-35.511 65.38c0 0-11.709 24.396-6.83 28.299s10.734 26.347 27.323 63.429c11.819 26.418 31.559 104.34 41.936 146.97 0.074 2.127 0.546 4.208 1.499 6.177 3.316 13.723 5.356 22.502 5.356 22.502l9.758-5.855s-0.073-2.696-0.208-7.486c2.801 0.054 5.573-0.589 7.919-2.088 3.318-2.121 6.59-4.368 9.819-6.704 1.135 0 2.259-0.289 3.248-0.952 5.874-3.941 13.401-5.476 20.139-8.356-5.531 6.026-10.647 12.554-15.587 19.206-29.081 12.464-56.747 28.29-82.417 46.784-5.358 1.038-10.734 1.98-16.142 2.768-6.811 0.992-14.642 1.816-22.315 1.617 16.239-10.812 30.705-22.91 35.505-44.002 6.365-27.974 2.73-59.303-3.58-86.959-7.227-31.675-20.701-61.736-36.27-90.124-7.856-14.323-16.289-28.319-24.77-42.278-2.86-4.706-5.719-9.413-8.575-14.121-8.748-11.262-19.385-49.725-17.043-45.904 4.635 7.563 35.121 26.767 39.066 21.32 12.011-16.585 23.071-33.876 33.507-51.492 9.72-16.408 18.785-33.221 26.887-50.49 7.825-16.679 16.495-34.265 20.815-52.253 7.239-30.146-1.768-60.318-24.759-81.278-17.311-15.781-37.008-24.214-58.39-26.747 4.069-5.747 7.578-10.399 10.039-14.239 8.132-12.686 19.191-20.492 24.07-20.492 4.88 0 32.203 12.686 55.623 28.299 13.838 9.226 21.853 19.105 26.121 25.667 0.476 3.05 0.913 6.106 1.278 9.171 2.534 21.233 1.563 42.772-1.827 63.852"/></g></g><g clip-path="url(#clipPath242989)" style="opacity:.2"><g transform="translate(776.33 919.12)"><path d="m0 0c0.597-0.597 1.215-1.164 1.857-1.581-0.461 0.653-1.172 1.131-1.857 1.581m-7.586 7.688c-5.169 4.665-11.472 8.236-17.173 12.238-6.213 4.363-13.245 6.995-19.673 10.949-0.503 0.309-2.276 1.101-3.337 1.834-0.02-0.083-0.136-0.118-0.257-0.167-0.257-0.957-0.071-2.137-0.079-3.128-0.01-1.297-0.376-3.553 0.603-4.591 0.093-0.099 1.147-0.49 1.33-0.541 0.765-0.212 1.616-0.373 2.419-0.598 2.051-0.576 3.975-0.965 5.948-1.838 3.191-1.412 6.379-2.802 9.375-4.602 6.28-3.775 12.592-7.501 18.866-11.289 3.002-1.812 6.09-3.569 8.976-5.564 0.189-0.13 0.388-0.259 0.588-0.391-0.787 0.788-1.534 1.635-2.215 2.327-1.769 1.797-3.499 3.67-5.371 5.361m-41.002 25.878c0.038-0.247 0.372-0.548 0.819-0.857 0.029 0.118-0.142 0.336-0.819 0.857m-10.141 6.284c-1.705 1.631-3.234 3.128-5.447 4.181-2.321 1.105-4.608 2.046-6.855 3.344-4.62 2.67-9.005 5.933-13.825 8.171-4.77 2.214-9.476 4.588-14.269 6.759-7.957 3.602-16.795 6.102-25.202 8.422 4.464-2.448 9.088-4.563 13.505-7.113 5.75-3.319 11.209-7.053 16.817-10.595 7.266-4.589 14.391-9.17 21.421-14.113 3.14-2.208 6.189-4.804 9.077-7.318 0.777-0.676 1.37-1.624 2.232-2.183 1.492 1.601 1.195 4.444 1.631 6.469 0.208 0.968 0.373 2.567 0.884 3.724-0.026-0.203-0.051-0.407-0.074-0.665-0.011 0.369 0.137 0.566 0.446 0.592-0.097 0.092-0.188 0.178-0.283 0.269 0.23 0.459 0.519 0.838 0.91 1.038-0.408 0.301-0.731 0.672-0.968-0.982"/></g></g><g clip-path="url(#clipPath243005)" style="opacity:.2"><g transform="translate(679.4 1072.5)"><path d="m0 0c-1.068 7.931-2.977 15.877-3.814 23.822-0.091 0.862 0.269 1.165 0.552 1.614-0.688 0.866-1.466 0.869-2.324 0.427-0.273-1.573-0.696-3.106-1.268-4.601-0.692-1.437-1.385-2.875-2.077-4.312-2.122-4.509-3.676-8.753-4.539-13.638-0.242-1.373-0.281-3.307-1.169-4.502-13.121 6.536-25.944 13.132-39.753 18.208-6.932 2.548-14.173 4.669-21.345 6.495-0.693 0.176-1.438 0.417-2.191 0.564-0.815-1.965-1.389-4.063-2.125-6.027-3.371-8.987-7.772-17.396-10.877-26.535-3.652-10.751-6.676-21.602-9.56-32.578-6.503-24.742-12.806-49.739-20.687-74.08-8.318-25.691-14.267-51.976-21.178-78.059-7.637-28.818-17.118-57.176-23.387-86.361-2.194-10.213-3.919-20.445-5.051-30.824-1.244-11.397-1.393-23.179-3.853-34.415-0.42-1.915-2.237-5.51-1.985-7.682 1.247-1.42 2.357-2.945 3.33-4.575 3.176-5.009 6.326-10.034 9.452-15.075 3.501-5.659 7.519-11.513 10.5-17.517 0.631-1.273 0.801-2.565 1.466-3.688 6.89 1.733 13.55 4.75 18.015 10.529 3.875 5.017 7.044 12.379 8.47 18.553 0.906 3.921 0.742 7.491 2.597 11.12 0.437 0.856 1.247 1.527 1.752 2.409 3.113 5.441 4.147 12.641 5.888 18.609 3.726 12.773 8.698 24.938 13.875 37.179 6.135 14.505 11.883 29.162 18.348 43.525 6.329 14.06 12.535 28.179 19.545 41.919 7.114 13.944 14.726 27.406 20.604 41.949 3.608 8.929 7.318 17.841 10.59 26.9 1.629 4.511 4.741 10.588 4.004 15.646-0.436 2.989-2.424 5.541-4.837 7.424-6.427 5.014-15.195 7.616-22.803 9.864-5.987 1.772-12.06 3.148-18.221 4.128-2.066-0.367-3.411 0.265-4.037 1.896 5.435 4.918 12.938 6.444 19.985 7.718 3.829 0.934 7.72 1.216 11.673 0.845 2.36-0.863 4.735-1.087 7.123-0.674-8.326 7.379-17.879 14.283-27.957 19.073-5.049 2.399-9.315 2.461-14.445 3.903 1.157 1.612 5.872 1.835 7.734 2.196 5.973 1.16 12.114 2.159 18.172 2.829 3.843 0.425 6.772-0.091 10.508-0.637-2.352 0.344 3.473-0.571 1.551-0.191 9.292 0.627 19.409-1.446 28.499-2.989 8.08-1.373 15.55-3.678 23.169-6.516 0.162 4.153-1.009 7.639-1.197 11.804-0.968 21.455-3.859 43.062-6.722 64.328m143.66-92.101c-3.066 2.936-9.309 7.279-7.256 12.347 5.576 13.762 16.969 23.885 28.71 32.257-0.659 1.66-1.857 2.841-3.593 3.545-4.537 3.267-8.912 6.744-13.125 10.431-11.311 9.561-22.172 19.613-32.854 29.869-1.294 1.243-13.744 13.883-18.831 17.54-0.012 0.133-0.03 0.283-0.059 0.456-0.015 0.081-4e-3 0.157-0.013 0.238-0.019-0.2-0.042-0.399-0.062-0.598-0.997 0.703-1.696 1.044-1.931 0.838 0.526-0.655 1.415-1.782 1.838-1.737-1.618-15.664-5.402-31.084-8.478-46.494-2.629-13.178-4.211-26.696-7.532-39.725-1.002-3.933-1.575-3.397-5.686-4.196-8.379-1.628-16.933-1.999-25.273-3.806-0.458-3.15 13.821-8.343 13.195-8.044 13.181-6.283 26.525-13.169 38.467-21.623 11.976-8.479 22.611-18.3 33.57-28.018 1.249-1.107 7.229-7.606 8.724-6.966-1.966 6.305-4.399 12.5-6.883 18.615-1.643 4.042-4.334 8.501-4.938 12.822 3.677 1.132 7.727 0.726 11.527 0.948 5.355 0.313 13.105 0.904 16.097 5.958-4.517 5.828-10.299 10.25-15.614 15.343m-32.993-82.847c-13.12 5.901-25.23 13.898-38.256 19.969-1.422-2.721-1.664-5.679-0.726-8.874l-0.497-10.939c-0.729-16.443-1.747-32.82-2.869-49.233-1.254-18.348-1.063-36.611-1.114-54.978-0.054-19.66-1.478-39.178-0.776-58.847 0.548-15.341 0.982-30.387 3.727-45.501 2.51-13.821 3.919-27.658 4.829-41.696 0.306-4.721 0.383-9.515 0.726-14.263 8.926 7.788 18.205 15.076 28.266 21.171 2.022 1.226 4.029 2.036 5.999 2.531 1.221 17.328 2.575 34.647 3.736 51.978 4.113 61.407 7.432 123.1 6.854 184.7-3.394 1.055-6.698 2.373-9.899 3.985" style="fill:#fff"/></g></g><g transform="translate(692.4 1150.1)"><path d="m0 0c31.974-5.56 64.151-9.44 96.544-11.479 34.112-2.146 69.006-2.491 103.09 0.507 4.814 0.424 10.013 1.316 15.347 2.181 0.101 8.385 0.249 15.929 0.402 20.212 0.487 13.662-5.53 30.251-5.53 30.251s-40.822-10.734-42.774-10.246-48.791 0-48.791 0h-63.917s-34.642 4.391-57.574 7.319c-22.932 2.927-63.429 18.305-66.356 20.492l-12.225-34.45c25.635-12.992 53.485-19.866 81.783-24.787" style="fill:#572000"/></g><g clip-path="url(#clipPath243025)" style="opacity:.2"><g transform="translate(902.26 1191.8)"><path d="m0 0s-40.822-10.734-42.774-10.246c-0.374 0.093-2.41 0.151-5.442 0.183 3.961-14.312 6.723-29.671 5.123-44.448 11.005 0.326 21.983 0.909 32.874 1.867 4.814 0.424 10.014 1.316 15.347 2.181 0.101 8.385 0.249 15.929 0.402 20.212 0.488 13.662-5.53 30.251-5.53 30.251"/></g></g><g transform="translate(714.57 1185.9)"><path d="m0 0c0.227-1.477-0.393-3.818-0.441-5.398-0.093-3.027-0.013-6.053-0.093-9.08-0.093-3.494-0.447-6.97-0.469-10.467-0.026-4.242 3e-3 -8.386-0.341-12.612-0.113-1.388-0.102-2.781-0.372-4.15-0.106-0.542-0.363-1.111-0.224-1.655 10.759-1.192 20.51-6.789 31.241-8.096 1.976-0.24 3.964-0.51 5.947-0.685 2.47-0.217 4.842 0.401 7.235 0.895 2.02 0.416 4.485 0.749 6.29 1.856 1.996 1.225 2.61 3.276 3.121 5.455 1.467 6.261 1.16 12.445 0.847 18.802-0.253 5.157 0.327 10.368-0.145 15.511-0.208 2.265-0.954 4.269-2.297 6.112-1.212 1.665-4.052 2.482-5.942 2.802-2.903 0.492-5.847 0.634-8.753 1.2-3.152 0.613-6.284 1.361-9.488 1.466-6.629 0.218-13.118 0.882-19.672 1.837-1.611 0.235-2.785 0.074-4.247-0.331-0.835-0.232-1.878 0.01-2.232-0.999-0.15-0.429 0.167-1.064 0.06-1.512-0.105-0.443-0.431-0.484-0.538-0.926-0.547-2.251 1.067-3.831 0.513-0.025" style="fill:#8b8b94"/></g><g transform="translate(740.88 1141.6)"><path d="m0 0c6.886-1.03 20.58-4.099 22.818 4.949 2.8 11.326-0.102 25.496-0.496 37.067-1e-3 0.049-7e-3 0.099-9e-3 0.147-1.339 0.757-3.01 1.198-4.268 1.411-2.903 0.492-5.847 0.634-8.753 1.2-3.153 0.613-6.284 1.361-9.488 1.466-6.629 0.218-13.118 0.882-19.673 1.837-1.61 0.235-2.784 0.074-4.246-0.331-0.835-0.232-1.878 0.01-2.232-0.999-0.151-0.429 0.167-1.064 0.06-1.512-0.105-0.443-0.431-0.484-0.538-0.926-0.338-1.389 0.147-2.517 0.438-2.288-0.137-1.095-0.339-2.234-0.367-3.135-0.092-3.027-0.013-6.053-0.093-9.08-0.092-3.494-0.446-6.97-0.468-10.467-0.026-4.241 2e-3 -8.386-0.341-12.612-0.054-0.667-0.08-1.335-0.122-2.002 9.345-1.101 18.472-3.333 27.778-4.725" style="fill:#d8d8db"/></g><g transform="translate(741.14 1187.8)"><path d="m0 0c-5.674-12.419-11.86-24.592-17.031-37.252-0.757-1.852-1.551-3.69-2.337-5.53 3.107-0.541 6.204-1.137 9.304-1.721 4.546 14.875 9.294 29.661 16.174 43.647-2.025 0.4-4.054 0.75-6.11 0.856m-20.122 1.866c-1.61 0.235-2.784 0.074-4.246-0.331-0.835-0.232-1.878 0.01-2.232-0.999-0.151-0.429 0.167-1.063 0.06-1.512-0.106-0.443-0.431-0.484-0.539-0.926-0.337-1.388 0.147-2.517 0.439-2.288-0.137-1.094-0.339-2.234-0.367-3.135-0.092-3.027-0.013-6.053-0.093-9.08-0.092-3.494-0.446-6.97-0.468-10.467-0.027-4.241 2e-3 -8.386-0.341-12.612-0.055-0.667-0.08-1.335-0.122-2.001 0.068-9e-3 0.136-0.019 0.204-0.028 5.31 14.114 10.853 28.144 15.789 42.393-2.693 0.279-5.384 0.593-8.084 0.986" style="fill:#fff"/></g><g transform="translate(840.45 1186.4)"><path d="m0 0c-2.248-0.03-4.205-0.074-6.427-0.573-2.242-0.503-4.364-1.114-6.663-1.279-1.427-0.102-2.839 0.216-4.013-0.53-2.199-1.398-1.916-7.668-2.143-9.996-0.583-5.981-1.179-11.92-1.951-17.883-0.779-6.01-1.342-12.099-2.334-18.078-0.282-1.696-1.524-4.607-0.44-5.989 0.817-1.04 3.421-1.518 4.537-1.838 2.999-0.861 5.941-1.549 9.066-1.474 5.546 0.133 7.24 5.453 8.207 10.435 1.273 6.561 1.218 13.452 1.514 20.103 0.243 5.476 0.416 10.953 0.64 16.43 0.102 2.498 0.939 5.474 0.809 7.907-0.074 1.387-0.68 2.386-1.825 3.249 0.131-0.16 0.146 4e-3 1.023-0.484" style="fill:#368fb5"/></g><g clip-path="url(#clipPath243057)" style="opacity:.2"><g transform="translate(839.98 1186.4)"><path d="m0 0c-1.104-0.017-2.156-0.054-3.204-0.149-0.014-0.27-0.036-0.559-0.047-0.821-0.372-8.651-0.877-17.132-0.388-25.778 0.68-12.053-0.942-24.978-15.333-26.313-1.584-0.146-3.391 0.602-4.788 1.77-0.235-1.165-0.307-2.305 0.26-3.027 0.817-1.041 3.421-1.519 4.536-1.839 3-0.861 5.941-1.548 9.066-1.474 5.547 0.133 7.24 5.453 8.207 10.435 1.273 6.562 1.219 13.452 1.514 20.103 0.243 5.477 0.417 10.953 0.641 16.43 0.102 2.498 0.939 5.474 0.809 7.907-0.061 1.135-0.497 2.003-1.273 2.756"/></g></g><g transform="translate(671.33 1194.3)"><path d="m0 0c2.091 5.704-10.853 6.994-12.675 7.01-1.828 0.015-2.706 0.891-4.059-0.605-0.94-4.425-1.679-8.919-2.214-13.483-0.964-5.75-1.669-11.559-2.114-17.428-0.533-5.849-2.949-16.325 1.334-20.184 2.877-2.592 7.261-3.618 10.501-4.291 5.292-1.098 5.938 2.52 7.388 8.921 1.317 9.726 2.056 19.542 2.218 29.449 0.378 4.568 0.545 9.148 0.501 13.737-0.999-2.22-1.621-4.662-1.865-7.327" style="fill:#368fb5"/></g><g clip-path="url(#clipPath243077)" style="opacity:.2"><g transform="translate(671.51 1195.7)"><path d="m0 0c-0.13 2.051-2.405 3.406-5.051 4.264 4.271-7.893 3.524-19.802 1.295-30.122 0.089-6.456-1.198-12.555-5.549-17.219-3.684-3.948-10.744-2.274-12.136 2.992-0.073 0.278-0.132 0.555-0.203 0.832-0.28 0.478-0.508 0.972-0.759 1.459-0.011-3.415 0.549-6.521 2.488-8.267 2.877-2.593 7.261-3.619 10.501-4.291 5.292-1.099 5.938 2.519 7.388 8.92 1.317 9.727 2.056 19.543 2.218 29.449 0.378 4.569 0.545 9.148 0.501 13.738-0.257-0.57-0.486-1.156-0.693-1.755"/></g></g></g></g></g></svg>
