<?xml version="1.0" encoding="UTF-8"?>
<svg width="426.66mm" height="726.94mm" version="1.1" viewBox="0 0 426.66 726.94" xmlns="http://www.w3.org/2000/svg"><defs><clipPath id="clipPath271707"><path d="m1550.2 2197.7h1209.4v-2060.6h-1209.4z"/></clipPath><clipPath id="clipPath272111"><path d="m2138.7 1855.4h100.59v-57.8h-100.59z"/></clipPath><clipPath id="clipPath272127"><path d="m2141.6 1852.7h116.69v-68.74h-116.69z"/></clipPath><clipPath id="clipPath272155"><path d="m2386.6 1876.7h87.74v-70.4h-87.74z"/></clipPath><clipPath id="clipPath272171"><path d="m2387.6 1878.7h97.76v-81.7h-97.76z"/></clipPath></defs><g transform="translate(333.58 289.47)"><g transform="matrix(.35278 0 0 -.35278 -880.46 485.83)"><g clip-path="url(#clipPath271707)"><g transform="translate(2636.2 1243.7)"><path d="m0 0c-30.353 9.842-28.976 52.756-28.976 52.756l-0.069 0.069c2.375 2.891 5.472 5.781 9.292 7.949 11.356 6.367 19.409 13.353 26.98 32.177 7.055 17.551 24.606 12.045 17.31-10.393-3.613-11.115-10.875-19.065-14.591-22.885-0.723-0.723-0.104-1.927 0.894-1.72 14.144 2.718 62.702 15.107 102.24-5.644 2.581-1.342 3.82-4.302 2.959-7.021-0.791-2.478-3.062-4.061-5.574-4.061-0.482 0-0.964 0.035-1.446 0.173-12.354 3.097-43.051 10.048-55.612 5.884-1.239-0.413-2.134-1.514-2.34-2.822-0.035-0.172-0.035-0.344-0.035-0.516 0-1.617 1.136-3.097 2.788-3.407 18.239-3.441 34.654-3.372 65.558-23.367 8.5-5.506 2.305-15.279-5.954-10.633-23.745 13.421-49.555 17.344-58.124 18.308-1.721 0.172-3.338-0.792-3.958-2.409-0.172-0.448-0.241-0.929-0.241-1.377 0-1.549 0.929-3.028 2.512-3.545 9.154-3.166 33.072-12.733 48.042-30.421 1.893-2.203 2.03-5.437 0.31-7.777-1.239-1.721-3.167-2.616-5.094-2.616-1.308 0-2.615 0.413-3.751 1.239-8.603 6.504-27.083 19.34-45.77 25.913-1.652 0.585-3.441-0.103-4.37-1.548-0.413-0.62-0.586-1.342-0.586-2.031 0-0.929 0.345-1.858 0.999-2.546 0 0 18.308-12.63 26.911-25.707 2.409-3.683 0.826-8.672-3.201-10.462-0.619-0.275-1.238-0.413-1.858-0.413-2.237 0-4.405 1.686-5.988 3.579-4.577 5.334-9.291 9.567-14.109 12.905-2.306 1.618-4.612 3.063-6.918 4.267-0.103 0.069-0.206 0.138-0.309 0.173-8.535 5.093-23.436 13.249-37.924 17.929" style="fill:#fad4a5"/></g><g transform="translate(2681.4 1221.3)"><path d="m0 0s-2.615 1.721-6.917 4.267c2.306-1.204 4.611-2.65 6.917-4.267" style="fill:#fad4a5"/></g><g transform="translate(2607.2 1250.8)"><path d="m0 0c0.551-20.992-7.296-34.792-7.296-34.792s-100.11-23.711-149.36-29.63l-0.791 5.334c6.538 0.723 12.079 3.889 15.933 10.462 21.784 37.442 59.019 64.043 89.854 72.715 27.221 7.64 49.452 1.308 51.655-23.917z" style="fill:#0f4370"/></g><g transform="translate(2600.4 1285.2)"><path d="m0 0s2.099 5.644 6.814 11.322l0.069-0.069s-1.377-42.914 28.976-52.756c14.488-4.68 29.389-12.836 37.924-17.929-24.64 13.077-50.175 7.33-65.249 13.146l-1.961 0.241c0.516 4.301 0.619 8.19 0.31 11.735v0.172c-0.241 9.842-2.375 21.267-8.053 33.587z" style="fill:#ebbc81"/></g><g transform="translate(2607.2 1251)"><path d="m0 0c-2.203 25.225-24.434 31.557-51.655 23.917l-0.034 0.172c23.848 6.057 42.673 11.495 42.673 11.495 0.309-0.654 0.653-1.343 0.963-1.996 5.678-12.32 7.812-23.746 8.053-33.588" style="fill:#1f578a"/></g><g transform="translate(2555.5 1275.1)"><path d="m0 0 0.034-0.172c-30.834-8.672-68.07-35.274-89.854-72.716-3.854-6.573-9.394-9.739-15.933-10.462-23.264-2.443-59.157 25.983-75.262 41.434-33.45 32.039-12.045 80.872-12.045 80.872l0.378 0.516c29.08-21.956 81.767-51.448 99.421-55.509 13.249-3.062 58.572 7.193 93.261 16.037" style="fill:#1f578a"/></g><g transform="translate(2371.1 1513.7)"><path d="m0 0c-24.881-20.786-48.007-35.687-65.386-40.711-22.575-6.539-49.624-3.029-77.121 5.575-12.492 3.923-25.121 8.913-37.441 14.522 118.21-33.002 185.97 42.742 241.89 114.6 23.161 29.767 47.388 117.9-12.974 142.99 24.847 3.682 59.398 20.889 79.668 32.039 10.599 5.816 17.861 16.243 19.581 28.185 0.792 5.575 1.652 12.01 2.512 18.789 7.778-17.791 16.347-37.442 15.59-74.505-1.274-63.631-91.816-179.16-166.32-241.48" style="fill:#ebbc81"/></g><g transform="translate(2507.7 1880.4)"><path d="m0 0c1.893 0 3.648-0.069 5.334-0.206 0.551-0.069 1.067-0.31 1.446-0.689 0.378-0.413 0.619-0.929 0.619-1.514 0.138-6.848-0.447-16.518-1.445-27.324h-0.035c-0.551 1.789-1.032 3.613-1.48 5.506-2.271 9.67-3.751 15.83-4.439 23.814z" style="fill:#1e374f"/></g><g transform="translate(2507.2 1890.7)"><path d="m0 0c-34.276 0.069-88.374-15.658-114.12-31.007l-0.241 0.379v0.034c0.585 8.879 7.605 26.602 10.909 30.388 31.729 36.099 30.628 69.033 27.565 84.485-0.998 5.024-2.168 8.19-2.512 9.051 26.395-0.207 54.408-1.721 84.21-4.853 0 0-0.035 0.207-0.103 0.551l0.722 0.103c1.101-5.919 3.958-25.294-0.344-43.946-4.198-18.239-6.194-31.419-6.091-44.187z" style="fill:#ebbc81"/></g><g transform="translate(2387.4 1801.8)"><path d="m0 0 4.198 0.31h0.035c0.895-0.103 14.075-1.79 27.427-0.448 5.472 0.517 10.944 1.549 15.659 3.373 32.727 12.733 55.199 37.855 69.446 43.292v0.172c3.269 0.62 6.47 1.308 9.498 2.134 0-0.035 0-0.035 0.035-0.069-0.035-0.034 0-0.034 0-0.069-0.964-10.014-2.271-21.026-3.717-31.66-1.686-12.63-9.601-23.539-21.027-29.217-23.883-11.873-56.885-26.189-76.948-27.497-0.998-0.069-1.962-0.103-2.891-0.103-5.644 0-7.605 1.308-8.053 1.686-7.123 6.16-11.666 21.75-13.662 38.096" style="fill:#ffe5c4"/></g><g transform="translate(2441.6 1465.6)"><path d="m0 0s-45.598 46.458-70.548 48.179c74.506 62.323 165.05 177.85 166.32 241.48 0.757 37.063-7.812 56.714-15.589 74.505v0.035c2.787 22.747 5.127 49.28 2.409 59.088-4.715 1.273-10.531 1.858-17.001 1.858v0.998c-0.103 12.768 1.893 25.948 6.091 44.187 4.302 18.652 1.446 38.027 0.345 43.946l-0.723-0.103c-1.308 7.433-16.932 86.791-91.231 121.34l0.999 2.203s101.55-31.833 140.85-229.78v-0.068c8.432-86.654-4.508-184.84-48.901-283.88-18.584-41.434-42.708-83.04-73.026-123.99" style="fill:#122230"/></g><g transform="translate(2402.2 1751.1)"><path d="m0 0 9.773 11.012c20.063 1.308 53.066 15.624 76.949 27.497 11.425 5.678 19.341 16.587 21.027 29.217 1.445 10.634 2.753 21.646 3.717 31.66 0 0.035-0.035 0.035 0 0.069v0.069c0.998 10.806 1.583 20.476 1.445 27.324 0 0.585-0.241 1.102-0.619 1.515l1.445 0.034 8.259 9.326c2.719-9.808 0.379-36.341-2.409-59.088v-0.034c-0.86-6.78-1.721-13.215-2.512-18.79-1.721-11.942-8.982-22.369-19.581-28.185-20.27-11.15-54.821-28.357-79.668-32.039-6.848-1.067-12.974-1.067-17.826 0.413" style="fill:#255682"/></g><g transform="translate(2419 1802.2)"><path d="m0 0c-6.47-0.447-13.077 2.375-18.205 8.259l-0.447 0.482c8.053 7.399 20.958 17.757 35.412 23.504l0.24-0.619c4.853-10.531 1.583-22.369-7.777-28.46-2.891-1.893-6.057-2.925-9.223-3.166" style="fill:#122230"/></g><g transform="translate(2397.7 1701.3)"><path d="m0 0 0.069 0.034s11.494-8.156 9.016-16.346c-2.581-8.603-10.737-6.022-10.737-6.022l-1.961-0.585c5.85 5.54 6.642 14.901 3.613 22.919" style="fill:#ebbc81"/></g><g transform="translate(2387.4 1801.8)"><path d="m0 0c-1.927 15.693-1.48 32.108 1.308 41.503 5.093 10.289 72.681 37.063 118.28 37.063h0.757v-0.413c0.688-7.984 2.168-14.144 4.44-23.814 0.447-1.893 0.929-3.717 1.479-5.506-3.028-0.826-6.229-1.514-9.498-2.134-20.304-3.957-44.806-5.747-65.523-13.008-0.964-0.344-1.927-0.688-2.891-1.101-14.454-5.747-27.359-16.106-35.412-23.505-5.127-4.749-8.328-8.293-8.706-8.775h-0.035z" style="fill:#ffe5c4"/></g><g transform="translate(2394.3 1755.9)"><path d="m0 0c-12.664 14.66-18.618 48.695-17.861 72.681v0.035c0.138 3.854 0.413 7.433 0.895 10.634 0.379 2.581 0.86 4.955 1.48 6.986 0.275 0.963 0.791 1.961 1.48 2.959 2.305 3.338 6.779 6.917 12.801 10.496 25.742 15.349 79.84 31.076 114.12 31.007 6.47 0 12.286-0.585 17-1.858l-8.259-9.326-1.445-0.035c-0.379 0.379-0.895 0.619-1.446 0.688-1.686 0.138-3.441 0.207-5.334 0.207h-0.757c-45.598 0-113.19-26.774-118.28-37.064-2.787-9.394-3.234-25.81-1.307-41.502 1.996-16.347 6.538-31.936 13.662-38.096 0.447-0.379 2.409-1.686 8.053-1.686 0.929 0 1.892 0.034 2.89 0.103l-9.773-11.013c-3.235 0.895-5.919 2.478-7.915 4.784" style="fill:#2e6ca3"/></g><g transform="translate(2229.6 197.93)"><path d="m0 0c-0.654 9.395-0.275 19.512 2.134 29.596 2.753 11.563 6.779 14.97 10.392 15.21 4.371 0.31 8.088-4.026 8.088-4.026s31.213-48.626 62.598-56.782c21.061-5.506 36.65-1.515 48.007-0.207 5.575 0.62 10.152 0.62 13.834-1.514-1.652-46.802-62.736-23.367-77.499-17-8.707 8.362-21.612 17.172-39.197 20.441-15.899-12.561-28.219 14.282-28.219 14.282z" style="fill:#1a3045"/></g><g transform="translate(2387.8 1674.6)"><path d="m0 0c-11.528-3.923-20.923 1.514-28.632 5.128l0.103 0.241s15.349-4.13 22.369-2.582c7.743 1.721 12.802 9.395 13.181 14.076 1.169 14.04-12.596 24.433-12.596 24.433 7.433-1.72 12.836-7.708 15.417-14.66 3.029-8.018 2.237-17.379-3.613-22.919-1.652-1.583-3.717-2.857-6.229-3.717" style="fill:#ebbc81"/></g><g transform="translate(2351.6 1619.5)"><path d="m0 0c-48.213-7.674-67.692 5.437-67.692 5.437l-0.103 0.31c11.219 3.854 18.549 11.047 27.669 14.11 8.328 2.821 15.624 0.619 21.508-3.235l0.689 1.067s11.184 6.882 18.927 3.441c1.755-0.757 3.751-2.271 5.988-4.061l-0.035-0.034v-0.035l-0.068-0.068s11.184-14.076-6.883-16.932" style="fill:#f05372"/></g><g transform="translate(2433 1185.1)"><path d="m0 0c-36.134 0-111.84 59.363-111.84 59.363l-1.686 0.104c8.603 31.385 14.591 59.088 14.591 76.019l-0.034 0.103v0.035c2.168 0.344 4.542 0.619 7.055 0.826l0.034 1.858c1.617-0.034 3.303-0.137 4.99-0.241-0.413 2.272-0.792 4.508-1.239 6.711l0.791 0.172c3.27-4.164 9.361-9.533 17.173-15.452l-0.379-0.516s-21.405-48.833 12.045-80.872c16.106-15.452 51.999-43.877 75.263-41.434l0.791-5.334c-7.055-0.86-13.043-1.342-17.551-1.342" style="fill:#0f4370"/></g><g transform="translate(2253.5 1562.4)"><path d="m0 0c-7.605 5.885-9.12 13.49-14.488 22.644 13.146-9.67 68.792-11.356 99.662-8.775v-0.103s8.603-8.053-3.717-14.936c-18.824-10.496-81.457 1.17-81.457 1.17" style="fill:#f05372"/></g><g transform="translate(2328.1 1677.2)"><path d="m0 0c-12.045 7.743-2.168 24.089 8.156 23.229 0 0-10.531-9.257-7.02-15.83 2.168-4.026 8.328-7.296 18.79-2.994l0.137-0.31c-5.747-2.718-10.909-9.98-20.063-4.095" style="fill:#ebbc81"/></g><g transform="translate(2312.6 1834.2)"><path d="m0 0 1.377 0.069s28.115 24.365 61.394 5.162l1.961-0.207c-0.482-3.2-0.757-6.779-0.895-10.633-24.709 25.775-58.503-0.138-62.598-3.442-0.31 2.925-0.723 5.954-1.239 9.051" style="fill:#255682"/></g><g transform="translate(2312.6 1834.2)"><path d="m0 0c-0.826 4.99-1.893 10.186-3.304 15.658l0.689 0.172s39.851 19.857 70.238-0.791l0.069-0.069c-0.689-0.998-1.205-1.996-1.48-2.96-0.62-2.03-1.101-4.405-1.48-6.986l-1.961 0.207c-33.279 19.203-61.394-5.162-61.394-5.162z" style="fill:#2e6ca3"/></g><g transform="translate(2310 1850.1)"><path d="m0 0-0.688-0.172c-0.069 0.206-0.104 0.447-0.172 0.654 0 0-0.172 0.069-0.482 0.172-7.571 2.409-104.82 32.727-186.21 5.85-3.304 1.411-6.779 2.547-10.221 3.51 3.166 11.426 6.883 22.197 11.184 32.108 0.035 0 0.035 0.035 0.069 0.069 19.238 16.002 122 93.02 307.86 82.73 3.063-15.452 4.164-48.385-27.565-84.485-3.304-3.786-10.324-21.509-10.909-30.387v-0.035l0.241-0.378c-6.023-3.579-10.496-7.158-12.802-10.496l-0.069 0.068c-30.387 20.649-70.238 0.792-70.238 0.792" style="fill:#fad4a5"/></g><g transform="translate(2263.8 1743.4)"><path d="m0 0c-11.597-0.929-22.954-1.411-33.897-1.411-6.367 0-12.355 0.172-17.895 0.447-41.056 2.168-60.052 11.804-63.734 20.167-7.227 16.449-12.286 58.503-14.523 83.109-0.172 1.927 1.033 3.751 2.96 4.267 18.445 4.818 39.025 7.261 61.325 7.261 44.221 0 83.969-9.705 100.18-14.247 0.722-0.172 1.342-0.585 1.858-1.101 0.482-0.551 0.86-1.205 0.998-1.928 10.565-49.555-6.229-75.916-18.618-87.995-5.059-4.921-11.597-7.984-18.652-8.569m-105.48 82.317v-0.309s20.958-19.203 36.72-26.671c7.949-3.785 18.032-4.921 28.769-4.749 23.126 0.275 49.315 6.504 64.285 5.334-10.014 8.535-25.019 14.385-41.744 18.377-14.316 3.372-29.871 5.403-44.634 6.607-16.45 1.274-31.867 1.515-43.396 1.411" style="fill:#ffe5c4"/></g><g transform="translate(2368.1 141.05)"><path d="m0 0c-25.81-10.978-56.782 4.302-56.782 4.302s-4.509 8.672-14.145 17.86c14.764-6.366 75.848-29.802 77.5 17.001 11.184-6.47 13.662-30.56-6.573-39.163" style="fill:#101e2b"/></g><g transform="translate(2133.7 1912.2)"><path d="m0 0c53.135 33.037 147.98 72.922 295.1 71.787 0.344-0.861 1.515-4.027 2.512-9.051-185.87 10.29-288.63-66.728-307.86-82.73 3.097 7.158 6.504 13.834 10.255 19.994" style="fill:#ebbc81"/></g><g transform="translate(2250.2 238.71)"><path d="m0 0s19.925 1.652 25.672 16.553c1.549 4.061 4.371 36.926 7.571 82.937l7.021-0.758c-2.994-41.089-3.855-73.954-0.241-95.291 3.648-21.749 44.737-53.341 70.548-60.223l0.034-0.207c-11.356-1.308-26.946-5.3-48.007 0.207-31.385 8.156-62.598 56.782-62.598 56.782" style="fill:#ebbc81"/></g><g transform="translate(2273.9 1622.1)"><path d="m0 0-0.103 0.86c3.682 0.413 6.951 1.205 9.945 2.237l0.103-0.309s19.479-13.112 67.692-5.438c18.067 2.857 6.883 16.932 6.883 16.932l0.068 0.068v0.035l0.035 0.034c5.644-4.645 13.008-11.459 22.85-14.866v-0.413c-0.034 0-0.034-0.035-0.068-0.035-2.203-0.826-56.335-20.717-107.4 0.895" style="fill:#cf3a57"/></g><g transform="translate(2242 1271.8)"><path d="m0 0-0.688 0.207c15.692 53.96 25.948 90.266 28.322 115.25 0.378 4.336 0.551 8.293 0.482 11.975h0.31s39.541 4.956 68.655-46.458c2.374-7.261 4.232-14.901 5.815-22.919 0.448-2.203 0.826-4.44 1.239-6.711-1.686 0.103-3.372 0.207-4.99 0.241-41.227 0.998-59.535-21.302-59.535-21.302 11.184-3.441 17.207-15.486 17.207-15.486-22.817-15.521-38.544-37.924-49.281-60.396l-0.206 0.103s-8.603-6.022-11.597-2.168c-2.96 3.786 3.923 45.529 4.267 47.663" style="fill:#2e6ca3"/></g><g transform="translate(2253.1 1433.1)"><path d="m0 0 0.103 0.172c54.098-22.713 75.263-48.248 85.862-80.493-29.114 51.414-68.655 46.458-68.655 46.458h-0.31c-0.344 16.415-5.609 26.739-17 33.863" style="fill:#1f578a"/></g><g transform="translate(2270.4 1001.8)"><path d="m0 0c18.067-27.531 39.576-228.85 19.788-253.8s-162.6-25.81-162.6-25.81l-1.859-0.103c-0.654 10.186-3.648 51.413-11.494 93.949-5.575-69.688-17.206-95.945-17.206-95.945l-22.782-0.345-5.162-0.068c-5.61 76.57-52.481 140.24-52.481 197.02 0 47.663 22.403 93.467 31.144 109.54l0.688-0.345s64.526-32.692 145.4-24.949c0 0 2.581 58.503 40.436 60.223l0.791 0.138c4.027-25.432 7.812-42.225 7.812-42.225s19.134-4.474 27.531-17.276" style="fill:#2e6ca3"/></g><g transform="translate(2253.5 1562.4)"><path d="m0 0s62.633-11.666 81.457-1.17c12.32 6.883 3.717 14.936 3.717 14.936v0.103c3.51 0.275 6.71 0.619 9.463 1.032 0 0 5.575-12.492-5.162-20.648-10.771-8.191-63.252-5.162-78.291 0-4.852 1.686-8.431 3.579-11.184 5.747" style="fill:#cf3a57"/></g><g transform="translate(2239.1 712.97)"><path d="m0 0h0.034s53.892-6.883 59.639-21.784c4.164-10.84-6.882-229.4-15.383-352.98-3.2-46.011-6.022-78.876-7.571-82.936-5.747-14.901-25.672-16.553-25.672-16.553s-3.717 4.336-8.088 4.026l-0.068 1.136c27.772 139.68-0.31 439.22-3.201 469.06z" style="fill:#fad4a5"/></g><g transform="translate(2298.8 691.18)"><path d="m0 0c-5.747 14.901-59.639 21.784-59.639 21.784h-0.034l-0.31-0.035c-0.172 1.583-0.241 2.409-0.241 2.409v1.446c24.675-0.138 51.449 0.172 78.291 1.101-0.757-143.57-19.409-284.43-26.43-380.44l-7.02 0.757c8.5 123.58 19.547 342.14 15.383 352.98" style="fill:#ebbc81"/></g><g transform="translate(2239 1585.1)"><path d="m0 0c0 0.034 0 0.069-0.034 0.103h0.034s24.95 11.322 61.463 8.913c26.016-1.72 45.839-14.316 47.869-15.623v-0.035c-0.138-0.723-0.207-1.101-0.207-1.101-2.753-0.413-5.953-0.757-9.463-1.033-30.869-2.58-86.516-0.894-99.662 8.776" style="fill:#bf203b"/></g><g transform="translate(2238.3 159.25)"><path d="m0 0c-2.753 7.192-7.502 21.715-8.741 38.681h0.138s12.32-26.843 28.219-14.282l-5.128-23.298c-0.757-3.476-3.854-5.953-7.399-5.953-3.166 0-5.988 1.927-7.089 4.852" style="fill:#101e2b"/></g><g transform="translate(2229.1 1442.3)"><path d="m0 0c9.911-2.443 17.826-5.369 23.986-9.223 11.391-7.123 16.657-17.448 17.001-33.863 0.068-3.682-0.104-7.64-0.482-11.976h-0.069c-14.626-16.794-46.252-18.721-46.252-18.721s31.626 16.071 30.766 31.558c-0.86 15.486-12.905 24.089-20.648 28.391l-0.792 0.034c0.207 1.893-0.998 3.889-4.37 5.919v7.881z" style="fill:#d1d3d4"/></g><g transform="translate(2228.3 1423)"><path d="M 0,0 V 11.425 C 3.373,9.395 4.577,7.399 4.371,5.506 4.198,3.51 2.443,1.617 0,0" style="fill:#b0b2b3"/></g><g transform="translate(2228.3 1434.4)"><path d="m0 0v-11.425c-3.889-2.65-9.532-4.749-13.18-5.816l-0.035 0.103c4.921 47.043-31.213 61.428-41.847 64.629v19.788c5.851-2.96 11.804-5.851 17.827-8.569 0.034-0.035 0.068-0.035 0.103-0.035 12.32-5.609 24.95-10.599 37.442-14.522l-0.31-0.998v-35.274z" style="fill:#e3b376"/></g><g transform="translate(2228.2 1115)"><path d="m0 0c0.034 13.903 3.82 91.024 80.906 168.11 2.581 13.766-7.743 19.788-7.743 19.788-0.103-0.034 6.745 13.697 32.659 17.792l0.034-0.103c0-16.932-5.988-44.635-14.591-76.02-6.711-24.433-14.97-51.07-23.264-76.673-21.13-65.352 18.067-127.33 18.067-127.33-9.463-7.226-19.443-12.079-28.838-15.313-23.023-7.916-42.57-6.195-42.57-6.195s-3.785 16.794-7.812 42.226c-0.481 2.993-0.963 6.16-1.445 9.394-1.962 13.215-3.889 28.254-5.403 44.187 0.034 0.035 0.034 0.069 0 0.138" style="fill:#1f578a"/></g><g transform="translate(2309.1 1283.1)"><path d="m0 0c-77.086-77.086-80.872-154.21-80.906-168.11-0.861 9.36-1.584 18.996-2.1 28.769l0.413 0.035s3.235 41.331 22.989 82.42c10.737 22.472 26.464 44.876 49.28 60.396 0 0-6.022 12.045-17.207 15.486 0 0 18.308 22.3 59.535 21.302l-0.034-1.858c-2.512-0.207-4.887-0.482-7.055-0.826v-0.034c-25.913-4.096-32.761-17.827-32.658-17.792 0 0 10.324-6.023 7.743-19.788" style="fill:#0f4370"/></g><g transform="translate(2225.8 1151.5)"><path d="m0 0c-1.308 33.966 0.413 68.689 8.466 96.392 2.443 8.397 4.783 16.45 7.02 24.124l0.689-0.206c-0.345-2.134-7.227-43.877-4.268-47.663 2.994-3.854 11.598 2.168 11.598 2.168l0.206-0.103c-19.753-41.09-22.988-82.421-22.988-82.421l-0.413-0.034c-0.103 2.581-0.241 5.162-0.31 7.743" style="fill:#1f578a"/></g><g transform="translate(2228.2 1114.8)"><path d="m0 0c1.514-15.933 3.441-30.972 5.403-44.187l-1.927-0.275c-8.294-1.755-15.934-2.34-22.369-2.409v0.688c2.34 31.729 3.682 63.493 4.336 94.293 2.616-8.156 6.126-12.664 11.15-11.494l0.998 0.034c0.069-2.581 0.207-5.162 0.31-7.743 0.516-9.773 1.239-19.409 2.099-28.769 0.034-0.069 0.034-0.104 0-0.138" style="fill:#d1d3d4"/></g><g transform="translate(2228.3 1423)"><path d="m0 0c2.443 1.617 4.198 3.51 4.371 5.506l0.791-0.034c7.743-4.302 19.788-12.905 20.648-28.391 0.861-15.487-30.766-31.558-30.766-31.558-2.305 30.112-10.324 46.7-10.736 47.904v0.069c0.619 0.137 1.479 0.378 2.512 0.688 3.648 1.067 9.291 3.166 13.18 5.816" style="fill:#f1f2f2"/></g><g transform="translate(2300.5 1594.1)"><path d="m0 0c-36.513 2.409-61.463-8.913-61.463-8.913h-0.034c-5.713 22.919-17.792 45.736-24.468 57.608l0.103 0.138v0.034c12.871-9.119 28.598-17.413 45.185-19.684 5.265-0.723 9.911-0.723 14.041-0.276l0.103-0.86c51.07-21.612 105.2-1.721 107.4-0.895-26.12-17.964-31.936-37.889-33.003-42.776-2.03 1.308-21.852 13.903-47.869 15.624" style="fill:#611d1d"/></g><g transform="translate(2212.6 1416.4)"><path d="m0 0c0.413-1.204 8.431-17.792 10.737-47.904l-0.103-0.034c-2.031 10.599-10.737 26.429-10.737 26.429h-0.035z" style="fill:#d1d3d4"/></g><g transform="translate(2234.3 1247.9)"><path d="m0 0c-8.053-27.703-9.773-62.426-8.466-96.392l-0.998-0.035c-5.024-1.17-8.534 3.338-11.15 11.494 1.102 53.272 0.035 103.65-1.893 145.95h0.138l0.516 86.034h0.035s8.706-15.83 10.737-26.429l0.103 0.034s31.626 1.927 46.252 18.721h0.069c-2.375-24.984-12.63-61.291-28.323-115.25-2.237-7.674-4.577-15.727-7.02-24.124" style="fill:#f1f2f2"/></g><g transform="translate(2268.7 1733.5)"><path d="m0 0c-22.61-2.065-45.392-2.443-65.489-0.792l8.741 9.74c5.54-0.276 11.529-0.448 17.895-0.448 10.944 0 22.3 0.482 33.897 1.411 7.055 0.585 13.594 3.648 18.653 8.569 12.388 12.079 29.182 38.44 18.617 87.996-0.137 0.722-0.516 1.376-0.998 1.927l0.998 0.206 7.64 8.569c0.31-0.103 0.482-0.172 0.482-0.172 0.069-0.206 0.103-0.447 0.172-0.654 1.411-5.472 2.478-10.668 3.304-15.658 0.516-3.097 0.929-6.126 1.239-9.051 5.54-50.691-17.517-75.916-30.319-85.793-4.267-3.338-9.429-5.368-14.832-5.85" style="fill:#255682"/></g><g transform="translate(2209.9 1344.2)"><path d="m0 0c-3.063 36.616-6.057 33.312-7.743 26.808-0.069 0-0.138 0-0.172 0.035 1.411 10.117 3.338 28.528 1.514 44.634 1.927-14.075 4.37-39.059 6.401-71.477" style="fill:#d1d3d4"/></g><g transform="translate(2201.9 1371)"><path d="m0 0c-48.833 5.644-31.041 51.345-29.664 54.683 7.984-6.298 31.041-8.672 31.041-8.672 0.034-0.379 0.103-0.723 0.103-1.101 0.034-0.104 0.034-0.172 0.034-0.276 1.824-16.105-0.103-34.516-1.514-44.634" style="fill:#f1f2f2"/></g><g transform="translate(2201.7 1369.2)"><path d="M 0,0 C 0.069,0.551 0.138,1.17 0.241,1.79 0.275,1.755 0.344,1.755 0.413,1.755 0.275,1.204 0.138,0.585 0,0" style="fill:#fad4a5"/></g><g transform="translate(2245.9 1816.1)"><path d="m0 0c-1.445-11.288-11.012-19.581-22.162-19.581-0.93 0-1.859 0.068-2.822 0.172-12.252 1.514-20.752 12.423-19.306 26.498l0.069 1.17c14.763-1.204 30.318-3.235 44.634-6.607z" style="fill:#122230"/></g><g transform="translate(2195 1798.8)"><path d="m0 0c-15.761 7.468-36.719 26.671-36.719 26.671v0.309c11.528 0.103 26.946-0.137 43.395-1.411l-0.069-1.17c-1.445-14.075 7.055-24.984 19.306-26.498 0.964-0.104 1.893-0.172 2.822-0.172l0.035-2.478c-10.737-0.172-20.821 0.963-28.77 4.749" style="fill:#fff"/></g><g transform="translate(2201.5 1368.1)"><path d="m0 0c-0.275-2.065-0.551-3.51-0.688-4.233 0.103 0.792 0.344 2.443 0.688 4.233" style="fill:#f1f2f2"/></g><g transform="translate(2213.7 1163)"><path d="m0 0c-5.059 15.521-6.986 44.29-10.358 71.959-7.021 57.195-26.361 115.9-29.699 131.32 7.915-1.583 16.931-2.684 26.808-2.856v0.068c0.103-0.034 0.206-0.034 0.31-0.068 0 0 0.034 0.172 0.068 0.516 0.138 0.723 0.413 2.168 0.689 4.233 0.068 0.344 0.137 0.722 0.206 1.101 0.138 0.585 0.275 1.204 0.413 1.755 1.686 6.504 4.68 9.808 7.743-26.808v-0.241c0.723-10.909 1.342-22.61 1.927-35.033 1.927-42.294 2.994-92.676 1.893-145.95" style="fill:#f1f2f2"/></g><g transform="translate(2209.3 1068)"><path d="m0 0c6.436 0.069 14.075 0.654 22.369 2.409l1.927 0.275c0.482-3.235 0.964-6.401 1.445-9.395l-0.791-0.137c-37.855-1.721-40.436-60.224-40.436-60.224-80.872-7.743-145.4 24.95-145.4 24.95l-0.689 0.344c1.687 3.063 2.857 5.059 3.27 5.747l0.481 1.032c23.058-10.668 61.876-20.544 126.85-21.68 0 0 6.504 23.263 12.01 58.159 1.446-0.276 8.604-1.583 18.962-1.48" style="fill:#104675"/></g><g transform="translate(1703.5 1312.4)"><path d="m0 0c-0.034 5.334-0.069 8.603-0.069 8.603s88.615-17.206 123.89-12.044c34.964 5.127 157.82 43.189 228.68 109.23-0.413-0.654-0.826-1.342-1.17-2.064l-0.103 0.034c-13.766-16.656-11.907-71.339 49.315-131.94 53.926-53.341 87.41-104.69 91.505-171.48l0.207-0.035c-1.411-15.624-3.338-30.249-5.403-43.258-5.506-34.895-12.011-58.159-12.011-58.159-64.972 1.136-103.79 11.013-126.85 21.681-29.148 13.456-33.175 28.219-33.175 28.219 21.853 102.55 12.011 177.71 4.336 213.09-2.615 12.01-4.99 19.443-5.781 21.818l-0.275-0.103c-93.777-42.157-137.24-50.795-176.37-52.481-60.224-2.581-136.79 12.905-136.79 12.905l-0.585 0.035c0.138 2.856 0.241 5.85 0.31 8.878 0.447 16.519 0.447 34.448 0.378 45.357 0 0.585 0 1.17-0.034 1.721m462.79-204.21c-7.296 0-13.181-5.885-13.181-13.181 0-2.374 0.62-4.611 1.721-6.538 2.271-3.958 6.539-6.642 11.46-6.642 7.295 0 13.18 5.885 13.18 13.18 0 2.857-0.895 5.507-2.478 7.675-2.374 3.338-6.263 5.506-10.702 5.506" style="fill:#2e6ca3"/></g><g transform="translate(2172.3 1425.7)"><path d="m0 0c-3.2 2.512-3.992 5.678 0.069 9.533h0.86v46.699c10.634-3.201 46.768-17.586 41.847-64.629l0.034-0.103c-1.032-0.31-1.892-0.551-2.512-0.688v-0.069l-0.137-21.509-0.517-86.034h-0.137c-0.585 12.424-1.205 24.124-1.927 35.033v0.241c-2.031 32.418-4.474 57.402-6.401 71.477 0 0.104 0 0.172-0.035 0.276 0 0.378-0.069 0.722-0.103 1.101 0 0-23.057 2.374-31.041 8.672" style="fill:#fad4a5"/></g><g transform="translate(2171.6 1094.8)"><path d="m0 0c0-0.964-0.757-1.721-1.721-1.721-0.963 0-1.72 0.757-1.72 1.721s0.757 1.721 1.72 1.721c0.964 0 1.721-0.757 1.721-1.721" style="fill:#2e6ca3"/></g><g transform="translate(2200.4 1363.5)"><path d="m0 0c-45.116 9.016-59.88 25.294-61.669 27.428-0.034 0.034 0 0.034 0 0.034 1.927 17.689 11.46 34.138 33.588 48.386h0.86v-4.061h-0.86c-4.061-3.855-3.27-7.021-0.069-9.533-1.377-3.338-19.169-49.039 29.664-54.683-0.103-0.619-0.172-1.239-0.241-1.79-0.068-0.378-0.137-0.757-0.206-1.101-0.344-1.789-0.585-3.441-0.688-4.233-0.035-0.344-0.069-0.516-0.069-0.516-0.103 0.035-0.207 0.035-0.31 0.069" style="fill:#d1d3d4"/></g><g transform="translate(2163.5 1093.1)"><path d="m0 0c-0.963 0-1.72 0.757-1.72 1.721 0 0.963 0.757 1.72 1.72 1.72 0.929 0 1.686-0.757 1.686-1.72 0-0.964-0.757-1.721-1.686-1.721" style="fill:#2e6ca3"/></g><g transform="translate(2179.5 1095)"><path d="m0 0c0-7.296-5.885-13.18-13.18-13.18-4.922 0-9.189 2.684-11.46 6.641l0.275 0.173s21.509-6.023 21.509 13.765l0.378 0.275c1.583-2.168 2.478-4.818 2.478-7.674" style="fill:#092945"/></g><g transform="translate(2154.9 1088.5)"><path d="m0 0c-1.101 1.927-1.721 4.164-1.721 6.539 0 7.295 5.885 13.18 13.181 13.18 4.439 0 8.328-2.168 10.702-5.506l-0.378-0.275c0-19.788-21.509-13.766-21.509-13.766zm8.603 8.053c-0.963 0-1.72-0.757-1.72-1.721 0-0.963 0.757-1.721 1.72-1.721 0.929 0 1.687 0.758 1.687 1.721 0 0.964-0.758 1.721-1.687 1.721m6.436-3.442c0.963 0 1.721 0.758 1.721 1.721 0 0.964-0.758 1.721-1.721 1.721-0.964 0-1.721-0.757-1.721-1.721 0-0.963 0.757-1.721 1.721-1.721" style="fill:#0d3a61"/></g><g transform="translate(2056 1418.2)"><path d="m0 0c1.239 1.962 2.753 3.717 4.474 5.196 29.423 25.054 66.556 28.908 89.888 28.323-48.902-16.45-8.122-96.53-6.47-99.696l0.207 0.068c4.164-12.492 10.048-25.259 16.243-37.992l-0.069-0.034c13.077-29.286 18.824-59.88 21.336-79.324 0.792-6.229-6.71-9.945-11.184-5.54-11.632 11.528-22.507 17.654-26.189 19.684-11.15 13.353-21.852 23.952-29.561 30.835 0 0 2.581 16.346 24.95 24.089-21.509 13.766-47.319 0.861-47.319 0.861-30.215 28.666-50.76 85.896-37.476 111.46 0.344 0.723 0.757 1.411 1.17 2.065" style="fill:#2e6ca3"/></g><g transform="translate(2197.3 1136)"><path d="m0 0c-3.682 43.877-29.389 84.554-53.031 112.84 3.682-2.03 14.557-8.156 26.188-19.685 4.474-4.404 11.976-0.688 11.185 5.541-2.512 19.444-8.259 50.037-21.337 79.323l0.069 0.035c10.668-21.784 22.266-43.465 27.462-63.631 9.602-37.235 11.357-77.637 9.567-114.42z" style="fill:#1f578a"/></g><g transform="translate(2138.6 1378)"><path d="m0 0c-0.344 4.37-0.31 8.672 0.172 12.905 1.789-2.134 16.553-18.411 61.669-27.428v-0.068c-9.877 0.172-18.893 1.273-26.808 2.856-19.237 3.785-32.074 10.152-35.033 11.735" style="fill:#b0b2b3"/></g><g transform="translate(2144.1 1352.1)"><path d="m0 0c-2.856 8.776-4.887 17.448-5.541 25.879 2.96-1.583 15.796-7.95 35.033-11.735 3.339-15.417 22.679-74.127 29.699-131.32 3.373-27.669 5.3-56.438 10.359-71.959-0.654-30.8-1.996-62.564-4.336-94.293v-0.688c-10.359-0.104-17.517 1.204-18.962 1.479 2.065 13.009 3.992 27.634 5.403 43.258 0.654 7.571 1.239 15.349 1.617 23.333 1.79 36.788 0.035 77.189-9.567 114.42-5.196 20.166-16.794 41.847-27.462 63.63-6.194 12.733-12.079 25.501-16.243 37.993" style="fill:#d1d3d4"/></g><g transform="translate(2143.9 1352)"><path d="m0 0c-1.652 3.166-42.432 83.246 6.47 99.696 13.524-0.31 22.369-2.099 22.369-2.099h0.447v-10.324h-0.86c-22.128-14.247-31.661-30.697-33.588-48.386 0 0-0.034 0 0-0.034-0.482-4.233-0.516-8.535-0.172-12.905 0.654-8.431 2.684-17.104 5.541-25.879z" style="fill:#1f578a"/></g><g transform="translate(2149.1 718.64)"><path d="m0 0c-0.619-4.784-17.035-131.8-117.87-156.89-11.632-2.891-23.849-3.098-36.272-1.274 3.441 1.549 58.537 26.946 64.078 82.524l-0.826 0.516c19.994 32.28 16.036 76.123 16.036 76.123v0.069l22.782 0.344s11.632 26.257 17.207 95.945c7.846-42.535 10.84-83.763 11.494-93.949 0.103-1.583 0.138-2.409 0.138-2.409s8.603-0.447 23.229-0.998" style="fill:#ebbc81"/></g><g transform="translate(2270.4 1001.8)"><path d="m0 0c-8.397 12.802-27.531 17.276-27.531 17.276s19.547-1.721 42.57 6.194c47.662-169.62 32.28-307.31 32.28-307.31-0.276 0-0.585-0.035-0.861-0.035-26.842-0.929-53.616-1.238-78.291-1.101-36.925 0.104-69.068 1.067-89.475 1.859-14.626 0.55-23.229 0.998-23.229 0.998s-0.035 0.826-0.138 2.409l1.859 0.103s142.82 0.86 162.6 25.81-1.721 226.27-19.788 253.8" style="fill:#124c80"/></g><g transform="translate(2298.2 1843)"><path d="m0 0c-16.209 4.543-55.957 14.247-100.18 14.247-22.3 0-42.879-2.443-61.325-7.261-1.927-0.516-3.132-2.34-2.959-4.267 2.236-24.606 7.295-66.659 14.522-83.109 3.682-8.363 22.679-17.998 63.734-20.167l-8.741-9.739c-32.349 2.685-57.78 10.703-64.422 25.742-7.709 17.516-12.561 57.505-14.832 80.665-1.033 10.393-1.515 17.414-1.515 17.414 81.388 26.876 178.64-3.442 186.21-5.851l-7.64-8.569-0.998-0.206c-0.516 0.516-1.135 0.929-1.858 1.101" style="fill:#2e6ca3"/></g><g transform="translate(2122.5 1856.6)"><path d="m0 0s0.482-7.02 1.514-17.413c-2.753 2.994-8.741 4.818-15.555 5.953 1.136 5.093 2.409 10.083 3.82 14.97 3.441-0.963 6.917-2.099 10.221-3.51" style="fill:#255682"/></g><g transform="translate(2214.5 1642.8)"><path d="m0 0c6.676-11.873 18.755-34.689 24.468-57.608 0.034-0.035 0.034-0.069 0.034-0.104 5.369-9.154 6.883-16.759 14.489-22.644 2.753-2.168 6.332-4.061 11.184-5.747 15.039-5.162 67.519-8.19 78.291 0 10.737 8.156 5.162 20.648 5.162 20.648s0.069 0.379 0.206 1.102v0.034c1.067 4.887 6.883 24.812 33.003 42.776 0.034 0 0.034 0.034 0.069 0.034v0.413c-9.843 3.407-17.207 10.221-22.851 14.867-2.237 1.79-4.233 3.304-5.988 4.061-7.743 3.441-18.927-3.441-18.927-3.441l-0.689-1.067c-5.884 3.854-13.18 6.056-21.508 3.235-9.12-3.063-16.45-10.256-27.668-14.11-2.994-1.032-6.264-1.824-9.946-2.237-4.13-0.447-8.776-0.447-14.041 0.276-16.587 2.271-32.314 10.564-45.185 19.684v-0.034zm218.53-35.067c-55.922-71.856-123.68-147.6-241.89-114.6-0.034 0-0.069 0-0.103 0.035-6.022 2.719-11.976 5.609-17.826 8.569-23.539 11.941-45.288 25.328-62.323 36.685l1.17 1.72v0.035c-9.12 7.158-31.557 184.49-3.648 304.94 6.814-1.135 12.802-2.959 15.555-5.953 2.271-23.161 7.124-63.149 14.832-80.666 6.642-15.038 32.074-23.057 64.422-25.741 20.098-1.652 42.88-1.273 65.489 0.792 5.403 0.481 10.565 2.512 14.833 5.85 12.801 9.877 35.859 35.102 30.318 85.793 4.095 3.304 37.889 29.217 62.598 3.441v-0.034c-0.757-23.986 5.197-58.021 17.861-72.682 1.996-2.305 4.68-3.888 7.915-4.783 4.852-1.48 10.978-1.48 17.826-0.413 60.362-25.088 36.135-113.22 12.974-142.99m-96.805 92.71c-10.324 0.86-20.201-15.486-8.156-23.229 9.154-5.885 14.316 1.376 20.063 4.095l-0.138 0.309c-10.461-4.301-16.622-1.032-18.79 2.995-3.51 6.572 7.021 15.83 7.021 15.83m45.46-23.023c-7.02-1.549-22.369 2.581-22.369 2.581l-0.103-0.241c7.709-3.613 17.104-9.051 28.632-5.127 2.512 0.86 4.577 2.133 6.229 3.716l1.961 0.585s8.156-2.581 10.738 6.023c2.477 8.19-9.017 16.346-9.017 16.346l-0.069-0.034c-2.58 6.951-7.984 12.939-15.417 14.66 0 0 13.765-10.393 12.596-24.434-0.379-4.68-5.438-12.354-13.181-14.075" style="fill:#fad4a5"/></g><g transform="translate(2110 1896.1)"><path d="m0 0c-20.683-15.486-30.25-26.739-30.25-26.739l-1.961 0.241c4.783 39.988 11.873 79.082 21.99 115.18l2.616-0.757s-4.268-57.437 7.605-87.927" style="fill:#122230"/></g><g transform="translate(2072.1 1599.9)"><path d="m0 0c-3.958 69.825-5.472 159.4 3.097 246.85l0.757-0.069s18.102 0.791 32.418-1.583c-27.909-120.45-5.472-297.78 3.648-304.94v-0.034l-1.17-1.721c-20.717 13.765-34.586 24.502-36.41 25.913-0.826 11.15-1.617 23.057-2.34 35.584" style="fill:#ebbc81"/></g><g transform="translate(2232.2 2154.2)"><path d="m0 0c0.172-0.964-0.826-1.686-1.721-1.342-12.113 4.646-32.314 5.85-46.286 6.091-9.601 0.172-18.996-2.581-26.98-7.915-15.074-10.083-39.266-26.017-37.855-23.539 13.042 22.747-4.439 49.9-29.63 42.707l-9.464-2.718-0.551 1.411c62.048 24.364 128.67 33.037 191.34 26.842-4.921-0.309-9.636-0.998-14.075-1.927-17.758-3.717-28.392-21.267-24.881-39.059 0.034-0.207 0.069-0.379 0.103-0.551" style="fill:#1e374f"/></g><g transform="translate(2079.7 1869.3)"><path d="m0 0s9.567 11.253 30.25 26.739c6.745 5.025 14.625 10.496 23.779 16.175-3.751-6.16-7.158-12.836-10.255-19.995-0.034-0.034-0.034-0.068-0.069-0.068-4.301-9.911-8.018-20.683-11.184-32.108-16.794 4.542-33.657 4.233-33.657 4.233l-1.411 0.172c0.172 1.72 0.379 3.407 0.585 5.093z" style="fill:#ebbc81"/></g><g transform="translate(2075.2 1846.8)"><path d="m0 0c0.585 5.919 1.239 11.838 1.927 17.723l1.411-0.172s16.863 0.31 33.657-4.233c-1.411-4.887-2.685-9.877-3.82-14.97-14.316 2.375-32.418 1.583-32.418 1.583z" style="fill:#255682"/></g><g transform="translate(2083.7 1470.7)"><path d="m0 0c-42.157-15.486-252.94 111.84-271.87 247.78-10.255 73.679 5.712 155.38 41.124 229.68l1.893-0.895s5.162-96.358 27.531-137.65c0 0 27.53 56.782 58.503 72.268 0 0-15.486-110.12 3.441-151.42 0 0 51.62 77.43 72.269 79.151 0 0 0-104.96 51.62-209.92l3.889 0.207c0.722-12.527 1.514-24.434 2.34-35.584 4.198-56.782 9.257-93.605 9.257-93.605" style="fill:#1a3045"/></g><g transform="translate(2217.8 2093.3)"><path d="m0 0s43.361 0.206 67.451-15.211c3.682-2.374 8.534-1.204 10.668 2.616 1.858 3.372 3.889 6.71 6.022 10.014 29.906 46.355 89.131 63.872 137.65 41.64 18.343-14.075 34.689-30.456 48.455-49.039 39.094-52.687 67.313-125.85 75.469-209.78-39.301 197.95-140.86 229.78-140.86 229.78l-0.998-2.202c74.299-34.552 89.923-113.91 91.23-121.34 0.069-0.345 0.104-0.551 0.104-0.551-29.803 3.132-57.815 4.646-84.21 4.852-147.12 1.136-241.96-38.749-295.1-71.786-9.154-5.679-17.034-11.15-23.779-16.175-11.873 30.491-7.606 87.927-7.606 87.927l-2.615 0.757c-10.118-36.1-17.207-75.194-21.991-115.18-0.206-1.687-0.412-3.373-0.585-5.093-0.688-5.885-1.342-11.804-1.927-17.723-8.569-87.445-7.055-177.02-3.097-246.85l-3.889-0.206c-51.62 104.96-51.62 209.92-51.62 209.92-20.648-1.72-72.269-79.151-72.269-79.151-18.927 41.296-3.441 151.42-3.441 151.42-30.972-15.486-58.503-72.269-58.503-72.269-22.369 41.297-27.531 137.66-27.531 137.66l-1.893 0.894c28.873 60.637 70.686 116.35 121.72 158.75 23.264 2.443 44.084-15.314 44.979-38.922 0.069-1.996 0.206-4.026 0.378-6.022 12.768 16.828 34.139 33.381 45.564 41.64 2.237 1.583 5.162-0.653 4.164-3.2-5.059-12.974-13.559-38.474-12.389-61.428 0.103-1.996 2.615-2.857 3.923-1.308 0.654 0.757 1.377 1.549 2.099 2.306 22.438 23.848 58.435 29.148 87.549 14.075l0.275-0.138c5.024-2.615 11.115-0.929 14.213 3.786 14.556 22.231 52.377 35.549 52.377 35.549" style="fill:#1e374f"/></g><g transform="translate(2230.5 2152.9)"><path d="m0 0c0.895-0.344 1.893 0.378 1.721 1.342-0.035 0.172-0.069 0.344-0.104 0.551-3.51 17.792 7.124 35.342 24.881 39.059 4.44 0.929 9.154 1.618 14.075 1.927 63.149-6.297 122.27-27.703 168.56-63.458-48.523 22.231-107.75 4.714-137.65-41.641-2.134-3.303-4.164-6.642-6.022-10.014-2.134-3.82-6.986-4.99-10.669-2.616-24.089 15.418-67.45 15.211-67.45 15.211s-37.821-13.318-52.378-35.549c-3.097-4.715-9.188-6.401-14.213-3.785l-0.275 0.137c-29.114 15.073-65.11 9.774-87.548-14.075-0.723-0.757-1.445-1.549-2.099-2.306-1.308-1.548-3.82-0.688-3.923 1.308-1.171 22.954 7.33 48.454 12.389 61.428 0.998 2.547-1.928 4.784-4.164 3.201-11.426-8.26-32.797-24.813-45.564-41.641-0.172 1.996-0.31 4.027-0.379 6.023-0.894 23.607-21.715 41.365-44.978 38.921 22.093 18.343 45.908 34.207 71.167 46.906 11.081 5.575 22.403 10.6 33.863 15.108l0.551-1.411 9.464 2.718c25.19 7.193 42.672-19.959 29.629-42.707-1.41-2.478 22.782 13.456 37.855 23.539 7.984 5.334 17.379 8.087 26.981 7.915 13.972-0.241 34.172-1.445 46.286-6.091" style="fill:#2e5478"/></g><g transform="translate(2104.1 1284.2)"><path d="m0 0c-61.222 60.602-63.08 115.28-49.315 131.94l0.104-0.035c-13.284-25.569 7.261-82.799 37.476-111.46 0 0 25.81 12.905 47.319-0.861-22.369-7.743-24.95-24.089-24.95-24.089 7.709-6.883 18.411-17.482 29.561-30.835 23.642-28.288 49.349-68.964 53.031-112.84h0.104c-0.379-7.984-0.964-15.761-1.618-23.332l-0.206 0.034c-4.096 66.797-37.58 118.14-91.506 171.48" style="fill:#124c80"/></g><g transform="translate(1840.3 1243.5)"><path d="m0 0c39.128 1.686 82.593 10.324 176.37 52.481l0.275 0.103c0.791-2.375 3.166-9.808 5.781-21.818-10.633-3.338-120.72-37.993-159.2-46.183-40.436-8.604-161.74 10.324-161.74 10.324 0.517 5.059 0.861 11.253 1.136 18.033l0.585-0.035s76.57-15.486 136.79-12.905" style="fill:#104675"/></g><g transform="translate(1978.8 564.99)"><path d="m0 0c-50.485 24.09-90.611 48.179-102.1 68.827-11.46 20.648 4.577 29.837 4.577 29.837l0.551 2.994c37.751-29.321 96.805-66.522 139.13-52.825 17.482 5.678 29.32 16.759 37.304 29.699l0.826-0.516c-5.541-55.578-60.637-80.976-64.078-82.524-5.472 0.791-10.978 1.996-16.484 3.51z" style="fill:#fad4a5"/></g><g transform="translate(1787.8 624.14)"><path d="m0 0s28.804-28.185 56.266-13.318c3.545 0.964 6.848 3.166 9.085 6.642 0.035 0.034 0.069 0.069 0.104 0.137 0.447 0.689 0.86 1.446 1.204 2.237l0.344-0.034c-1.652-12.63-6.642-27.428-20.545-30.938-34.62-8.81-46.458 35.274-46.458 35.274" style="fill:#101e2b"/></g><g transform="translate(1853.1 617.47)"><path d="m0 0c-2.237-3.476-5.541-5.678-9.085-6.642 3.063 1.652 6.091 3.82 9.085 6.642" style="fill:#ebbc81"/></g><g transform="translate(1789.9 697.55)"><path d="m0 0c-2.271-0.688-4.749 0.172-6.126 2.134-0.688 0.998-0.998 2.099-0.998 3.2 0 2.065 1.136 4.095 3.201 5.024 7.33 3.339 20.132 8.501 30.628 9.154 20.614 1.274 29.664-10.289 28.838-19.34v-0.034s-28.391-0.861-18.927-30.525l-0.034-0.035 0.241-0.241-0.207-0.172c2.753-13.421-4.749-35.101 0-47.318 2.96-7.606 10.703-10.428 17.551-8.569-27.462-14.867-56.266 13.318-56.266 13.318 14.178 63.218 15.486 75.71 15.486 75.71z" style="fill:#1a3045"/></g><g transform="translate(1844 610.83)"><path d="m0 0c-6.848-1.858-14.591 0.964-17.551 8.569-4.749 12.217 2.753 33.897 0 47.319l0.207 0.172c2.649-2.788 13.18-13.662 28.769-27.531l-0.172-0.172s0.895-8.948-0.516-19.375l-0.344 0.034c-0.344-0.791-0.757-1.548-1.205-2.237-0.034-0.068-0.068-0.103-0.103-0.137-2.994-2.822-6.022-4.99-9.085-6.642" style="fill:#ebbc81"/></g><g transform="translate(1876.7 633.81)"><path d="m0 0c11.494-20.648 51.62-44.738 102.1-68.827l-0.275-0.998c-46.493 12.836-93.708 49.349-123.03 75.366-15.589 13.868-26.12 24.743-28.77 27.53-0.103 0.104-0.172 0.173-0.24 0.241l0.034 0.035c-9.464 29.664 18.927 30.525 18.927 30.525 2.616-2.513 16.588-15.693 36.376-31.041l-0.551-2.994s-16.037-9.189-4.577-29.837" style="fill:#ebbc81"/></g><g transform="translate(1701.7 1265.4)"><path d="m0 0c-15.176-8.535-44.394-5.541-67.864-26.739 3.098 3.751 15.108 17.172 29.699 22.231 18.205 6.263 35.894 14.867 39.989 49.831 0.069-10.909 0.069-28.839-0.379-45.357z" style="fill:#ebbc81"/></g><g transform="translate(1655.5 1323.8)"><path d="m0 0c-4.233 3.235-12.561 10.014-17.757 20.476-10.497 21.165 6.056 29.148 15.623 12.802 10.221-17.517 19.169-23.229 31.351-27.909 12.183-4.646 18.756-16.725 18.756-16.725h0.068c0.035-0.551 0.035-1.136 0.035-1.721-4.096-34.964-21.784-43.568-39.989-49.831-14.591-5.059-26.602-18.48-29.699-22.231-0.034 0-0.034-0.035-0.034-0.035-4.749-4.232-9.223-9.463-13.318-15.967-1.446-2.306-3.579-4.44-6.091-4.44-0.379 0-0.826 0.069-1.239 0.172-4.233 1.17-6.539 5.885-4.68 9.877 6.607 14.178 22.885 29.355 22.885 29.355 0.447 0.654 0.653 1.411 0.653 2.133 0 0.895-0.309 1.756-0.894 2.444-1.136 1.308-3.029 1.72-4.543 0.929-17.585-9.223-33.966-24.64-41.537-32.28-1.239-1.239-2.856-1.858-4.474-1.858-1.617 0-3.269 0.619-4.508 1.892-1.996 2.1-2.34 5.3-0.792 7.778 12.252 19.684 34.517 32.59 43.121 37.063 1.273 0.654 2.03 1.962 2.03 3.304 0 0.654-0.172 1.308-0.516 1.893-0.861 1.514-2.616 2.237-4.268 1.789-8.328-2.202-33.277-9.808-54.855-26.533-7.468-5.815-15.038 2.96-7.433 9.636 27.668 24.296 43.912 26.602 61.463 32.659 1.411 0.481 2.305 1.824 2.305 3.269 0 0.344-0.034 0.688-0.137 1.032-0.379 1.239-1.411 2.203-2.719 2.444-13.043 2.271-42.398-9.051-54.201-13.938-0.723-0.309-1.48-0.447-2.237-0.447-2.168 0-4.233 1.204-5.231 3.269-1.273 2.616-0.448 5.713 1.893 7.399 36.099 26.258 85.93 21.061 100.32 20.442 1.033-0.069 1.446 1.239 0.654 1.858" style="fill:#fad4a5"/></g></g></g><g transform="matrix(.35278 0 0 -.35278 -73.386 -148.54)"><path d="m0 0s-0.519 0.317-1.493 0.91c-0.973 0.58-2.361 1.557-4.239 2.486-0.933 0.481-1.929 1.047-3.06 1.591-1.164 0.501-2.394 1.084-3.713 1.684-2.688 1.114-5.738 2.296-9.129 3.412-1.671 0.611-3.48 1.083-5.323 1.624-1.833 0.565-3.769 1.048-5.745 1.567-3.958 1.022-8.194 1.878-12.572 2.757-2.191 0.427-4.439 0.794-6.697 1.217-2.275 0.361-4.577 0.725-6.897 1.093-4.658 0.655-9.39 1.322-14.149 1.84-2.377 0.278-4.754 0.562-7.131 0.782-2.373 0.24-4.739 0.485-7.09 0.69-4.701 0.429-9.336 0.803-13.827 1.152-4.498 0.318-8.846 0.626-12.969 0.918-4.134 0.252-8.042 0.49-11.65 0.71-14.495 0.826-24.159 1.377-24.159 1.377s0.6 0.101 1.725 0.29c1.127 0.166 2.78 0.441 4.89 0.691 2.11 0.264 4.676 0.579 7.624 0.84 2.948 0.274 6.279 0.568 9.917 0.754 3.638 0.228 7.584 0.412 11.761 0.474 4.176 0.091 8.586 0.136 13.146 0.044 4.561-0.106 9.276-0.259 14.061-0.593 2.393-0.157 4.806-0.311 7.223-0.555 2.42-0.206 4.846-0.467 7.271-0.739 4.847-0.567 9.685-1.27 14.428-2.095 2.371-0.427 4.717-0.889 7.029-1.365 2.306-0.529 4.591-0.999 6.816-1.584 4.461-1.122 8.725-2.409 12.718-3.794 4.003-1.346 7.712-2.866 11.055-4.44 3.368-1.509 6.322-3.199 8.886-4.744 1.259-0.823 2.443-1.571 3.511-2.301 1.056-0.762 1.987-1.533 2.838-2.186 1.746-1.266 2.841-2.526 3.693-3.286 0.816-0.796 1.251-1.221 1.251-1.221"/></g><g transform="matrix(.35278 0 0 -.35278 7.5436 -167)"><path d="m0 0s-0.504-0.21-1.45-0.604c-0.958-0.362-2.315-1.001-4.142-1.586-0.911-0.311-1.918-0.656-3.015-1.03-1.106-0.334-2.302-0.695-3.579-1.08-2.565-0.733-5.478-1.498-8.667-2.241-6.377-1.504-13.856-2.946-21.81-4.459-1.983-0.385-3.999-0.776-6.04-1.172-2.028-0.423-4.096-0.806-6.153-1.251-1.031-0.218-2.066-0.436-3.104-0.655-1.031-0.236-2.065-0.472-3.101-0.709-2.082-0.441-4.132-0.992-6.193-1.51-2.058-0.522-4.09-1.109-6.114-1.691-1.001-0.317-1.999-0.634-2.995-0.95l-1.388-0.432-1.502-0.562c-1-0.374-1.995-0.747-2.986-1.118-0.913-0.397-1.822-0.793-2.725-1.187-1.805-0.73-3.584-1.711-5.355-2.562-1.768-0.872-3.428-1.897-5.118-2.784-1.631-0.995-3.252-1.934-4.796-2.914-3.083-1.965-5.976-3.893-8.583-5.777-0.657-0.466-1.3-0.922-1.928-1.368-0.618-0.462-1.222-0.913-1.81-1.352-1.196-0.861-2.29-1.727-3.337-2.524-2.084-1.606-3.891-3.032-5.362-4.231-1.466-1.212-2.619-2.165-3.404-2.814-0.78-0.662-1.196-1.016-1.196-1.016s1.206 1.831 3.631 4.798c1.219 1.477 2.711 3.269 4.534 5.224 0.905 0.984 1.885 2.017 2.948 3.077 1.048 1.078 2.188 2.171 3.398 3.294 2.404 2.265 5.138 4.587 8.135 6.932 1.492 1.182 3.113 2.283 4.728 3.472 0.841 0.55 1.691 1.106 2.549 1.667 0.867 0.55 1.719 1.141 2.638 1.647 1.823 1.05 3.627 2.142 5.66 3.089 0.995 0.486 1.996 0.975 3.002 1.466 0.98 0.399 1.964 0.799 2.953 1.202l1.486 0.605 0.297 0.113 0.195 0.067 0.391 0.134 0.783 0.268c1.047 0.352 2.098 0.704 3.15 1.057 2.12 0.631 4.25 1.273 6.392 1.83 4.293 1.076 8.602 2.034 12.861 2.759 4.254 0.773 8.447 1.362 12.503 1.888 8.109 1.027 15.659 1.719 22.113 2.365 3.23 0.311 6.182 0.63 8.802 0.919 1.31 0.151 2.537 0.291 3.67 0.422 1.129 0.15 2.166 0.288 3.102 0.412 1.879 0.238 3.368 0.497 4.377 0.647 1.014 0.147 1.555 0.225 1.555 0.225"/></g><g transform="matrix(.35278 0 0 -.35278 -126.23 -183.49)"><path d="m0 0s1.994 1.141 5.563 2.796c3.572 1.674 8.763 3.863 15.157 6.051 3.202 1.075 6.693 2.185 10.438 3.177 3.734 1.035 7.725 1.931 11.873 2.765 2.084 0.364 4.194 0.803 6.354 1.096 1.078 0.162 2.163 0.324 3.253 0.488 1.095 0.128 2.195 0.257 3.3 0.387 2.208 0.293 4.449 0.426 6.695 0.624 2.248 0.166 4.512 0.237 6.775 0.342 4.53 0.078 9.069 0.049 13.529-0.254 2.229-0.159 4.445-0.28 6.62-0.563 2.179-0.239 4.335-0.47 6.436-0.837 2.107-0.327 4.183-0.634 6.189-1.081 2.009-0.424 3.994-0.764 5.882-1.283 1.894-0.493 3.756-0.91 5.523-1.43 1.765-0.535 3.469-1.052 5.106-1.549 1.637-0.498 3.161-1.103 4.636-1.611 1.465-0.534 2.875-0.993 4.148-1.553 1.285-0.532 2.488-1.03 3.6-1.49 1.115-0.457 2.139-0.876 3.032-1.322 3.612-1.711 5.677-2.688 5.677-2.688 1.718-0.814 2.451-2.866 1.637-4.584-0.813-1.718-2.866-2.452-4.584-1.638-0.029 0.014-0.058 0.028-0.086 0.042l-0.164 0.084s-1.939 0.997-5.334 2.741c-0.84 0.456-1.804 0.886-2.854 1.356-1.048 0.475-2.182 0.988-3.393 1.536-1.2 0.578-2.532 1.057-3.917 1.613-1.394 0.53-2.835 1.161-4.385 1.687-1.551 0.527-3.168 1.075-4.84 1.642-1.678 0.554-3.448 1.009-5.25 1.543-1.796 0.559-3.689 0.943-5.607 1.415-1.914 0.494-3.899 0.852-5.917 1.233-2.011 0.421-4.079 0.709-6.173 1.008-2.088 0.343-4.222 0.527-6.371 0.752-4.299 0.433-8.692 0.604-13.089 0.672-2.197-0.032-4.399-0.029-6.589-0.119-2.189-0.122-4.375-0.179-6.534-0.395-1.081-0.091-2.157-0.182-3.229-0.272-1.068-0.125-2.131-0.25-3.187-0.373-2.118-0.216-4.19-0.58-6.24-0.868-4.08-0.684-8.016-1.433-11.709-2.329-3.702-0.852-7.162-1.83-10.341-2.783-6.346-1.943-11.521-3.93-15.073-5.456-3.572-1.519-5.491-2.538-5.491-2.538-0.545-0.289-1.222-0.082-1.512 0.463-0.284 0.534-0.09 1.195 0.431 1.494z"/></g><g transform="matrix(.35278 0 0 -.35278 -34.616 -180.99)"><path d="m0 0s0.382 0.34 1.098 0.977c0.709 0.619 1.747 1.496 3.089 2.577 2.687 2.156 6.583 5.128 11.48 8.353 2.435 1.632 5.145 3.287 8.031 4.996 2.917 1.66 6.003 3.389 9.295 4.991 3.268 1.645 6.73 3.174 10.279 4.64 3.575 1.407 7.23 2.781 10.972 3.897 3.719 1.182 7.515 2.114 11.268 2.924 1.874 0.412 3.763 0.691 5.612 1.036 1.861 0.278 3.709 0.494 5.519 0.737 1.821 0.15 3.613 0.297 5.366 0.44 1.757 0.054 3.477 0.107 5.151 0.159 1.674-8e-3 3.302-0.066 4.875-0.095 1.574-0.023 3.088-0.212 4.543-0.303 0.727-0.061 1.44-0.101 2.134-0.177 0.692-0.094 1.368-0.185 2.027-0.274 1.316-0.186 2.568-0.33 3.735-0.524 2.322-0.469 4.357-0.814 6.007-1.211 3.287-0.849 5.164-1.334 5.164-1.334 0.572-0.147 0.916-0.731 0.768-1.303-0.144-0.557-0.702-0.898-1.26-0.778l-0.066 0.015s-1.852 0.402-5.094 1.107c-1.624 0.326-3.623 0.583-5.898 0.954-1.143 0.145-2.368 0.237-3.653 0.368-0.643 0.062-1.303 0.126-1.978 0.191-0.676 0.048-1.371 0.059-2.079 0.091-1.417 0.033-2.888 0.161-4.416 0.124-1.527-0.032-3.105-0.036-4.725-0.091-1.617-0.112-3.278-0.227-4.976-0.345-1.689-0.205-3.415-0.414-5.169-0.626-1.743-0.305-3.517-0.582-5.303-0.918-1.775-0.405-3.583-0.741-5.378-1.211-3.593-0.922-7.217-1.96-10.762-3.241-3.566-1.214-7.044-2.68-10.438-4.168-3.37-1.548-6.651-3.15-9.742-4.86-3.114-1.665-6.028-3.451-8.776-5.157-2.719-1.756-5.266-3.449-7.547-5.111-4.591-3.284-8.213-6.277-10.679-8.417-1.23-1.073-2.173-1.934-2.796-2.522-0.605-0.582-0.928-0.892-0.928-0.892l-0.077-0.074c-1.371-1.317-3.55-1.273-4.867 0.098s-1.274 3.55 0.097 4.867c0.029 0.028 0.068 0.064 0.097 0.09"/></g><g transform="matrix(.35278 0 0 -.35278 -110.46 -103.42)"><path d="m0 0s0.486-0.504 1.396-1.449c0.915-0.94 2.297-2.278 4.046-3.985 3.499-3.413 8.701-8.081 15.217-13.304 6.535-5.192 14.445-10.905 23.505-15.961 4.522-2.538 9.36-4.836 14.392-6.832 5.036-1.985 10.324-3.538 15.704-4.478 5.369-0.98 10.865-1.393 16.177-0.953 5.316 0.435 10.439 1.718 15.127 3.734 4.69 2.016 8.979 4.611 13.111 7.092 4.139 2.473 8.175 4.786 12.381 6.052 2.089 0.623 4.191 0.955 6.194 0.916 2.002-0.038 3.887-0.395 5.551-0.981 3.349-1.17 5.811-3.025 7.694-4.6 1.891-1.59 3.2-3.013 4.122-3.946 0.907-0.949 1.392-1.454 1.392-1.454s-0.528 0.459-1.518 1.321c-0.991 0.858-2.457 2.109-4.404 3.562-1.95 1.422-4.469 3.043-7.657 3.914-3.173 0.895-6.978 0.781-10.777-0.587-1.861-0.635-3.826-1.634-5.736-2.723-1.926-1.105-3.887-2.327-5.896-3.637-4.018-2.603-8.315-5.48-13.242-7.692-4.906-2.217-10.386-3.8-16.056-4.278-5.671-0.508-11.432-0.112-17.068 0.873-5.637 1.022-11.127 2.687-16.322 4.776-5.207 2.07-10.093 4.62-14.673 7.292-4.585 2.674-8.811 5.576-12.696 8.47-3.893 2.886-7.415 5.813-10.575 8.608-6.337 5.577-11.131 10.723-14.429 14.351-1.65 1.816-2.867 3.313-3.703 4.326-0.82 1.026-1.257 1.573-1.257 1.573" style="fill:#bf203b"/></g><g transform="matrix(.35278 0 0 -.35278 -880.46 485.83)"><g clip-path="url(#clipPath272111)" style="opacity:.59"><g transform="translate(2238.9 1853.2)"><path d="m0 0 0.441 1.472c-2.006 0.243-4.045 0.468-6.106 0.684-0.801-0.417-1.469-0.783-1.791-1.009l-92.057-50.186-0.633-0.634c0.3-1.981 0.611-3.942 0.931-5.889l0.562-0.073z" style="fill:#fff"/></g></g></g><g transform="matrix(.35278 0 0 -.35278 -880.46 485.83)"><g clip-path="url(#clipPath272127)" style="opacity:.59"><g transform="translate(2253.6 1852.7)"><path d="m0 0-112.01-65.847c0.189-0.97 0.377-1.95 0.572-2.894l116.11 67.982c-1.524 0.26-3.1 0.509-4.675 0.759" style="fill:#fff"/></g></g></g><g transform="matrix(.35278 0 0 -.35278 -103.18 -13.963)"><path d="m0 0s0.188-1.349 0.541-3.877c0.359-2.529 0.892-6.235 1.411-10.975 0.586-4.732 1.169-10.491 1.838-17.098 0.654-6.608 1.327-14.07 1.969-22.217 0.308-4.074 0.629-8.319 0.961-12.712 0.33-4.393 0.595-8.94 0.91-13.612 0.654-9.342 1.134-19.206 1.665-29.408 0.211-5.104 0.426-10.293 0.643-15.545 0.107-2.627 0.215-5.269 0.323-7.924 0.082-2.657 0.164-5.327 0.247-8.007 0.163-5.361 0.328-10.765 0.493-16.19 0.108-5.426 0.216-10.873 0.325-16.321 0.045-2.724 0.09-5.448 0.135-8.169 0.015-2.722 0.029-5.441 0.043-8.155 0.027-5.427 0.053-10.833 0.079-16.197-0.04-10.726-0.109-21.283-0.234-31.498-0.219-10.214-0.381-20.089-0.723-29.448-0.373-9.357-0.654-18.206-1.04-26.369-0.451-8.16-0.864-15.639-1.23-22.269-0.367-6.629-0.878-12.397-1.201-17.152-0.721-9.505-1.133-14.937-1.133-14.937s0.291 5.439 0.799 14.958c0.238 4.76 0.646 10.532 0.895 17.165 0.269 6.632 0.572 14.113 0.902 22.275 0.298 8.162 0.483 17.01 0.753 26.364 0.159 4.677 0.17 9.485 0.248 14.397 0.077 4.912 0.157 9.931 0.237 15.035 0.088 10.208 0.12 20.758 0.121 31.477-0.045 5.359-0.091 10.761-0.137 16.184-0.024 2.712-0.048 5.429-0.072 8.148-0.054 2.719-0.107 5.441-0.161 8.163-0.088 5.444-0.177 10.888-0.266 16.31-0.146 5.422-0.291 10.822-0.435 16.18-0.073 2.679-0.146 5.347-0.218 8.002-0.098 2.654-0.197 5.295-0.294 7.92-0.199 5.249-0.395 10.435-0.588 15.536-0.525 10.195-0.866 20.06-1.423 29.402-0.264 4.671-0.48 9.219-0.763 13.612-0.284 4.394-0.559 8.639-0.823 12.714-0.24 4.078-0.589 7.976-0.843 11.69-0.277 3.711-0.499 7.236-0.798 10.541-0.552 6.614-1.033 12.38-1.535 17.117-0.237 2.371-0.449 4.488-0.633 6.329-0.212 1.839-0.393 3.404-0.539 4.672-0.293 2.536-0.449 3.889-0.449 3.889" style="fill:#a7a9ac"/></g><g transform="matrix(.35278 0 0 -.35278 -57.958 -91.054)"><path d="m0 0s0.69 0.576 1.986 1.474c0.653 0.439 1.447 0.979 2.399 1.53 0.952 0.552 2.036 1.17 3.276 1.738 1.239 0.568 2.604 1.165 4.127 1.618 1.522 0.446 3.181 0.841 4.988 0.906 0.9 0.024 1.835-0.01 2.783-0.201 0.472-0.086 0.95-0.209 1.418-0.373 0.241-0.092 0.454-0.156 0.719-0.275 0.205-0.095 0.387-0.166 0.612-0.282 1.764-0.907 3.176-2.016 4.627-3.131 1.436-1.109 2.771-2.304 4.115-3.427 1.336-1.122 2.651-2.226 3.923-3.294 1.285-1.045 2.54-2.032 3.745-2.949 1.213-0.905 2.386-1.725 3.48-2.47 2.203-1.464 4.127-2.569 5.508-3.297 0.692-0.357 1.235-0.651 1.615-0.83 0.377-0.188 0.579-0.288 0.579-0.288s-0.219 0.052-0.629 0.15c-0.412 0.094-1.015 0.239-1.769 0.473-1.511 0.456-3.651 1.227-6.075 2.468-2.433 1.221-5.154 2.891-7.873 4.912-1.369 0.998-2.749 2.069-4.109 3.194-1.354 1.108-2.729 2.234-4.105 3.36-1.35 1.095-2.776 2.187-4.121 2.937-0.159 0.097-0.38 0.2-0.567 0.3-0.13 0.069-0.334 0.141-0.496 0.214-0.345 0.141-0.708 0.254-1.078 0.339-0.736 0.188-1.512 0.255-2.283 0.271-1.547 0.041-3.095-0.173-4.543-0.486-1.449-0.32-2.821-0.707-4.067-1.136-2.501-0.845-4.543-1.742-5.964-2.387-1.423-0.644-2.221-1.058-2.221-1.058" style="fill:#bf203b"/></g><g transform="matrix(.35278 0 0 -.35278 -52.096 -70.614)"><path d="m0 0s0.258-0.494 0.623-1.476c0.354-0.983 0.849-2.457 1.099-4.422 0.248-1.952 0.297-4.435-0.515-7.151-0.778-2.706-2.508-5.586-5.174-7.867l-0.489-0.446-0.061-0.056-0.031-0.028-0.088-0.063-0.131-0.091-0.261-0.181c-0.354-0.242-0.673-0.495-1.129-0.718-0.424-0.218-0.87-0.487-1.296-0.661-0.428-0.18-0.86-0.361-1.296-0.545-1.759-0.642-3.609-1.16-5.517-1.56-3.817-0.833-7.873-1.327-12.071-1.636-4.198-0.301-8.537-0.486-12.943-0.458-4.406 0.015-8.876 0.161-13.341 0.419-4.463 0.295-8.918 0.709-13.295 1.247-4.38 0.518-8.666 1.278-12.804 2.216-2.061 0.5-4.115 1.035-6.069 1.842-0.932 0.392-1.841 0.712-2.763 1.151-0.919 0.453-1.844 0.87-2.717 1.339-3.488 1.849-6.476 4.284-8.661 6.968-2.219 2.668-3.649 5.479-4.795 7.948-1.154 2.474-2.022 4.669-2.809 6.443-0.788 1.773-1.397 3.175-1.868 4.104-0.456 0.937-0.699 1.437-0.699 1.437s0.3-0.468 0.863-1.347c0.569-0.875 1.37-2.185 2.317-3.89 0.933-1.704 2.067-3.773 3.367-6.146 1.325-2.333 2.917-4.898 5.107-7.244 2.188-2.347 5.028-4.384 8.352-5.988 0.826-0.396 1.687-0.735 2.541-1.114 0.862-0.368 1.841-0.668 2.773-1.011 1.791-0.63 3.715-1.118 5.716-1.533 4.005-0.82 8.237-1.369 12.543-1.876 4.309-0.491 8.709-0.854 13.114-1.113 4.403-0.294 8.815-0.478 13.156-0.532 4.341-0.042 8.613-0.051 12.73 0.154 4.111 0.222 8.091 0.497 11.77 1.133 1.848 0.292 3.595 0.727 5.247 1.211 0.402 0.14 0.8 0.279 1.195 0.417 0.402 0.135 0.715 0.312 1.077 0.459 0.343 0.122 0.72 0.378 1.082 0.593l0.272 0.166 0.135 0.082c-0.014-0.011 0.08 0.053-0.023-0.019l0.029 0.024 0.058 0.047 0.462 0.374c2.517 1.923 4.26 4.343 5.183 6.767 0.928 2.428 1.139 4.772 1.078 6.677-0.072 1.913-0.351 3.417-0.597 4.423-0.247 1.009-0.446 1.531-0.446 1.531" style="fill:#bf203b"/></g><g transform="matrix(.35278 0 0 -.35278 -880.46 485.83)"><g clip-path="url(#clipPath272155)" style="opacity:.59"><g transform="translate(2474.3 1876.7)"><path d="m0 0c-4-0.652-7.13-1.378-10.501-2.164l-77.23-60.779c0.114-2.467 0.572-4.962 0.804-7.462l86.927 70.395z" style="fill:#fff"/></g></g></g><g transform="matrix(.35278 0 0 -.35278 -880.46 485.83)"><g clip-path="url(#clipPath272171)" style="opacity:.59"><g transform="translate(2479.7 1877.8)"><path d="m0 0-92.05-77.575c0.145-1.09 0.302-2.173 0.47-3.251l97.286 81.693c-1.892-0.264-3.793-0.548-5.706-0.867" style="fill:#fff"/></g></g></g></g></svg>
