<?xml version="1.0" encoding="UTF-8"?>
<svg width="188.81mm" height="547.69mm" version="1.1" viewBox="0 0 188.81 547.69" xmlns="http://www.w3.org/2000/svg"><g transform="translate(463.8 124.72)"><rect x="-384.43" y="-33.628" width="104.01" height="43.845" ry=".57281" style="fill-rule:evenodd;fill:#fff;stroke-width:.26458"/><g transform="matrix(.35278 0 0 -.35278 -277.58 -13.819)"><path d="m0 0c11.609-28.051 8.721-70.629-3.86-98.68-12.582-28.052-76.405-145.09-87.071-164.42-10.637-19.358-30.94-21.274-56.103-19.358-3.288 0.257-7.635 0.943-12.81 2.001-18.816 3.832-48.554 12.668-77.263 24.02-12.153 4.775-24.106 10.036-35 15.527l0.171 0.314s121.67-44.665 152.5-18.501c30.51 25.936 56.474 108.52 58.447 136.28 5.005 1.487 11.61 6.691 12.639 16.899 1.687 16.928-12.81 15.956-12.81 15.956l-0.257-0.057c-1.173 7.006-3.117 13.782-5.605 20.502l0.229 0.086c-6.663 18.329-9.522 47.639-9.522 47.639l0.085 1.029c3.918-0.429 8.293-0.686 12.983-0.715 11.981-0.028 25.964 1.659 39.231 7.292 13.783 5.862 11.438 29.967 11.438 29.967s-15.498-6.72-35.4-14.726c-9.293-3.746-19.559-7.778-29.624-11.524l-0.4 1.087c-3.803 36.916 11.695 50.984 11.695 50.984l-0.343 0.772c9.979 4.604 23.59 11.009 41.033 19.53 0 0 9.637 0.687 21.246-0.057l0.944-0.057c-1.544-20.274-3.375-45.351 3.431-61.793" style="fill:#ebbc81"/></g><g transform="matrix(.35278 0 0 -.35278 -278.94 -46.573)"><path d="m0 0c1.887-3.775 1.716-11.981 1.058-22.304l-1.058 0.057c-10.037-0.171-19.587 2.259-22.332 3.403-0.687 0.286-1.402 0.172-1.973-0.286-16.9-14.126-48.926-34.113-57.619-39.461-0.057-0.057-0.086-0.114-0.086-0.171l-0.514 0.2c43.092 103.11-2.259 145.58-2.259 145.58-57.962-63.995-261.64-45.552-270.76-44.694l-3.203 4.375c-1.001 3.031-2.173 6.034-3.546 8.95 18.53-2.802 109.35-15.098 170.77 0.486 32.512 8.264 78.292 31.855 112.38 71.43 19.93-13.64 45.751-60.363 62.537-93.562 8.492-16.785 14.669-30.11 16.613-33.999" style="fill:#ebbc81"/></g><g transform="matrix(.35278 0 0 -.35278 -278.94 -38.725)"><path d="m0 0 1.058-0.057c-0.2-2.774-0.4-5.719-0.629-8.75l-0.944 0.057c-11.609 0.744-21.245 0.057-21.245 0.057-17.443-8.521-31.054-14.926-41.034-19.53-9.579-4.375-15.841-7.12-18.987-8.464-0.143-0.086-0.229 0.029-0.229 0.172 0 0.057 0.029 0.114 0.086 0.171 8.693 5.347 40.719 25.335 57.619 39.461 0.571 0.457 1.286 0.572 1.973 0.286 2.745-1.144 12.295-3.575 22.332-3.403" style="fill:#1a131a"/></g><g transform="matrix(.35278 0 0 -.35278 -285.43 202.53)"><path d="m0 0c6.291-3.86 11.123-31.912 6.291-41.577 0 0-29.681-5.433-28.023 37.802 6.806 2.631 16.013 5.577 20.531 4.261 0.458-0.114 0.858-0.286 1.201-0.486" style="fill:#d1d3d4"/></g><g transform="matrix(.35278 0 0 -.35278 -285.75 219.09)"><path d="m0 0c-9.665-3.46-24.706-2.373-24.706-2.373l-1.001 0.028c0.029 1.087 0.029 2.231 0.029 3.346 0 0-0.4 13.983-4.003 38.603l0.629 0.085s3.546 1.659 8.235 3.489c-1.658-43.235 28.023-37.802 28.023-37.802-1.23-2.459-3.918-4.175-7.206-5.376" style="fill:#bcbec0"/></g><g transform="matrix(.35278 0 0 -.35278 -284.57 -58.688)"><path d="m0 0-0.658-0.343c-16.785 33.198-42.606 79.922-62.536 93.562 7.492 8.664 14.383 18.1 20.474 28.337 7.062-4.604 40.976-31.483 42.72-121.56" style="fill:#1a131a"/></g><g transform="matrix(1 0 0 .73217 -440.46 81.608)" style="stroke-width:1.1687"><g transform="matrix(.35278 0 0 -.27825 155.08 195.03)" style="stroke-width:1.3159"><path d="m0 0c1.802-48.611 4.69-150.41-1.115-188.12-3.717-24.276-15.355-37.773-26.422-45.208-0.228 0.601-6.491 18.415 3.803 36.201 10.495 18.101 7.063 166.59 13.354 179.2 2.66 5.319 9.494 16.442 10.38 17.929" style="fill:#fad4a5;stroke-width:1.3159"/></g><g transform="matrix(.35278 0 0 -.27825 154.71 187.78)" style="stroke-width:1.3159"><path d="m0 0c0.086-2.116 0.515-11.781 1.058-26.078-0.886-1.487-7.72-12.611-10.38-17.929-6.291-12.61-2.859-161.1-13.354-179.2-10.294-17.786-4.031-35.601-3.803-36.201-10.666-7.177-20.788-8.721-22.618-8.95-0.887 10.952-1.687 21.617-2.431 31.826l1.173 0.085s20.817 13.526 21.303 37.717c0.457 23.962-3.803 138-3.889 140.23v0.029c4.003 15.698 6.977 33.77 7.234 56.131l1.001-0.028s15.041-1.087 24.706 2.373" style="fill:#ebbc81;stroke-width:1.3159"/></g></g><g transform="matrix(.35278 0 0 -.35278 -285.76 202.04)"><path d="m0 0-0.257-0.886c-4.518 1.315-13.726-1.63-20.531-4.261 0 0.486 0.028 0.972 0.057 1.458 0 0-0.315 1.258-0.915 3.632 6.09 2.459 14.497 5.175 20.445 4.346l0.343 0.057c0.543-2.83 0.858-4.346 0.858-4.346" style="fill:#bcbec0"/></g><g transform="matrix(.35278 0 0 -.35278 -286.07 200.51)"><path d="m0 0-0.343-0.057c-5.948 0.829-14.355-1.887-20.445-4.347-7.149 28.366-53.015 214.18-35.486 248.57 2.802-4.861 5.147-10.122 6.805-15.813 11.238-38.288 43.721-199.76 49.469-228.36" style="fill:#d1d3d4"/></g><g transform="matrix(.35278 0 0 -.35278 -293.08 203.35)"><path d="m0 0c-0.029-0.486-0.057-0.972-0.057-1.458-4.69-1.83-8.235-3.489-8.235-3.489l-0.63-0.086c-0.228 1.63-0.486 3.289-0.743 5.004l0.972 0.143s3.26 1.688 7.778 3.518c0.601-2.374 0.915-3.632 0.915-3.632" style="fill:#bcbec0"/></g><g transform="matrix(.35278 0 0 -.35278 -294.32 -13.728)"><path d="m0 0c2.059-9.179-3.346-18.186-12.067-20.159-1.258-0.286-2.516-0.429-3.746-0.429-6.319 0-11.953 3.66-14.526 9.922l-0.143 0.343c0.114 0.029 0.229 0.057 0.315 0.115 10.065 3.746 20.33 7.777 29.624 11.523z" style="fill:#1a131a"/></g><g transform="matrix(.35278 0 0 -.35278 -299.1 29.507)"><path d="m0 0c-0.4-0.114-0.772-0.229-1.144-0.286 2.002 9.379 2.402 18.158 1.573 26.565-0.2 2.201-0.486 4.375-0.858 6.519l0.257 0.057s14.498 0.973 12.811-15.955c-1.03-10.209-7.635-15.413-12.639-16.9" style="fill:#dea968"/></g><g transform="matrix(.35278 0 0 -.35278 -296.22 205.12)"><path d="m0 0c3.603-24.62 4.003-38.603 4.003-38.603s-27.479-23.848-72.316-24.649h-0.229s61.25 17.272 59.821 37.288c-1.43 20.016-42.892 195.16-31.455 261.64l0.83 0.029c1.687-38.06 6.519-98.023 20.13-146.6 9.494-33.913 15.156-62.565 18.473-84.097 0.257-1.716 0.514-3.374 0.743-5.004" style="fill:#18568c"/></g><g transform="matrix(.35278 0 0 -.35278 -293.4 202.06)"><path d="m0 0c-4.518-1.83-7.778-3.517-7.778-3.517l-0.972-0.143c-3.317 21.532-8.979 50.184-18.472 84.097-13.611 48.582-18.444 108.54-20.131 146.6-1.001 22.733-0.915 37.659-0.915 37.659l0.372 0.343c4.604-4.861 8.864-10.322 12.41-16.47-17.529-34.4 28.337-220.21 35.486-248.57" style="fill:#bcbec0"/></g><g transform="matrix(.35278 0 0 -.35278 -298.95 20.237)"><path d="m0 0c0.829-8.407 0.429-17.185-1.573-26.564-3.889-18.129-21.045-14.984-25.392-6.034-0.686 1.43-1.43 2.917-2.202 4.375-0.743 1.458-1.544 2.945-2.344 4.289l0.028 0.029s28.109-28.109 30.968 23.848z" style="fill:#ebbc81"/></g><g transform="matrix(.35278 0 0 -.35278 -312.76 18.582)"><path d="m0 0c-8.464 5.49-23.362-0.315-26.021-14.555-2.173-11.609 8.693-22.99 20.302-22.018 4.318 0.372 4.775 3.117 4.318 6.12l0.6 0.085s4.804 8.035 10.523-2.688l0.258 0.143c0.772-1.458 1.515-2.945 2.201-4.374 4.347-8.951 21.504-12.096 25.392 6.033 0.372 0.057 0.744 0.171 1.144 0.286-1.973-27.766-27.937-110.35-58.447-136.28-30.825-26.165-152.5 18.5-152.5 18.5l-0.171-0.314c-10.523 5.318-20.045 10.866-27.737 16.499-8.722 6.377-15.813 14.383-21.561 22.961-20.359 30.482-23.905 68.456-23.905 68.456l-4.604 0.029c-5.661-1.03-16.327-2.602-28.852-2.374-17.414 0.286-38.431 4.004-54.587 17.329-30.711 25.392-24.162 69.428 1.401 87.757 4.718 3.403 10.094 5.919 16.013 7.263 3.46 0.772 6.777 1.258 9.865 1.458 16.099 1.058 27.423-5.204 34.886-12.124l0.486 0.515-2.774 48.868 40.662 83.039-26.593 36.401c9.122-0.858 212.8-19.301 270.76 44.694 0 0 45.351-42.463 2.259-145.58-0.286-0.743-0.6-1.458-0.915-2.202l-3.631-6.948c-0.401-0.972-6.062-17.7 0.085-40.347 0.315-1.173 0.658-2.374 1.03-3.575 1.315-4.06 3.002-8.321 5.175-12.667 6.549-13.096 13.011-25.449 17.615-38.06 2.488-6.719 4.432-13.496 5.604-20.502 0.372-2.145 0.658-4.318 0.858-6.52l-0.515-0.057c-2.859-51.956-30.968-23.848-30.968-23.848l-0.028-0.028c-3.689 6.29-7.578 10.665-10.208 5.833-10.581-17.014-22.362 1.573-21.075 12.41 2.659 3.86 9.808 11.581 23.562 10.208zm-68.827 142.09c-0.258 0.458-0.515 0.801-0.658 1.087 0.943 0.028 1.086 1.401 0.143 1.601-15.012 3.26-56.16 12.467-71.944 19.501-1.43 0.63-3.089 0.372-4.261-0.657l-30.368-26.736c-0.972-0.858-0.085-2.488 1.144-2.088 7.864 2.488 15.842 6.663 21.789 10.066l0.515-0.915s23.877-8.293 65.425-4.261c6.348-3.917 21.532-18.243 31.997-68.627-10.551 1.115-22.018 2.602-33.284 4.175-12.696 1.83-25.106 3.746-35.543 5.461-16.7 2.717-28.395 4.861-28.395 4.861s3.346-25.678 19.845-28.537c9.608-1.659 19.015-1.744 27.765-0.915 28.109 2.716 49.612 14.955 49.612 14.955 1.83 41.491-9.922 64.624-13.782 71.029m-185.12-145.06 0.085 0.057c0.258-0.343 0.486-0.657 0.715-1l0.315 0.2c-40.405 61.564-72.088 41.376-72.088 41.376l0.286-0.486s14.384-0.572 31.626-8.064c-12.782-12.324 1.287-21.274 5.462-23.533l1.83 0.172c-0.258 0.629-4.404 10.465 3.974 12.124 9.437 1.887 23.591-15.07 27.795-20.846" style="fill:#fad4a5"/></g><g transform="matrix(.35278 0 0 -.35278 -299.3 214.28)"><path d="m0 0c1.43-20.016-59.82-37.288-59.82-37.288l-19.559 21.847 0.744 0.686s11.437 95.678-21.847 190.44c1.516 2.116 2.945 4.289 4.318 6.491 6.034 9.608 11.009 19.959 15.098 30.568 20.188 52.242 19.073 110.15 19.073 110.15l0.085 0.115c8.579-4.718 20.446-12.41 30.74-23.334l-0.372-0.343s-0.086-14.926 0.915-37.659l-0.829-0.029c-11.438-66.482 30.024-241.62 31.454-261.64" style="fill:#2e6ca3"/></g><g transform="matrix(.35278 0 0 -.35278 -306.87 -91.569)"><path d="m0 0c-34.085-39.575-79.865-63.166-112.38-71.43-61.422-15.584-152.24-3.288-170.77-0.486-0.143 0.286-0.257 0.544-0.4 0.83 0 0 257.32-3.518 327.87 165.05-3.918-24.62-12.439-46.495-23.848-65.625-6.091-10.237-12.982-19.673-20.474-28.337" style="fill:#1a131a"/></g><g transform="matrix(.35278 0 0 -.35278 -301.1 -28.769)"><path d="m0 0 0.343-0.772s-15.498-14.069-11.695-50.984l0.4-1.087c-0.085-0.057-0.2-0.086-0.314-0.114-4.146-1.544-8.236-3.06-12.239-4.461l-0.686-0.172c-6.148 22.647-0.486 39.375-0.086 40.347l3.632 6.949c0.314 0.743 0.629 1.458 0.915 2.202l0.514-0.2c0-0.143 0.086-0.258 0.229-0.172 3.146 1.344 9.408 4.089 18.987 8.464" style="fill:#dea968"/></g><g transform="matrix(.35278 0 0 -.35278 -301.15 10.674)"><path d="m0 0-0.229-0.086c-4.604 12.61-11.066 24.963-17.614 38.06-2.173 4.346-3.86 8.607-5.176 12.667l0.515 0.172c3.231-0.744 7.721-1.573 13.068-2.145l-0.086-1.029s2.859-29.31 9.522-47.639" style="fill:#dea968"/></g><g transform="matrix(.35278 0 0 -.35278 -369.47 -116.19)"><path d="m0 0c112.21 31.912 181.18 3.86 221.78 24.191-70.544-168.57-327.87-165.05-327.87-165.05 0.143-0.286 0.257-0.544 0.4-0.83-2.202 0.315-3.374 0.515-3.374 0.515l6.92-9.465c21.76-66.597-43.521-160.36-43.521-160.36l0.057-0.715c-3.088-0.2-6.405-0.686-9.865-1.458-5.919-1.344-11.295-3.86-16.013-7.263l-1.058 1.458c-58.048 115.12-40.776 181.63-40.776 181.63l38.86 11.609-11.267 30.94 21.475-2.917v20.331s62.222 48.353 164.25 77.377" style="fill:#302430"/></g><g transform="matrix(.35278 0 0 -.35278 -309.24 30.193)"><path d="m0 0-0.257-0.143c-5.719 10.723-10.523 2.688-10.523 2.688l-0.601-0.086c-0.486 3.031-1.916 6.32-1.172 7.664 2.631 4.832 6.519 0.457 10.208-5.834 0.801-1.344 1.601-2.831 2.345-4.289" style="fill:#d19a58"/></g><g transform="matrix(.35278 0 0 -.35278 -321.1 22.244)"><path d="m0 0c-1.287-10.837 10.494-29.424 21.074-12.41-0.743-1.344 0.687-4.632 1.173-7.663 0.457-3.003 0-5.748-4.318-6.12-11.61-0.972-22.476 10.409-20.302 22.018 2.659 14.24 17.557 20.045 26.021 14.555l-0.086-0.172c-13.754 1.373-20.903-6.348-23.562-10.208" style="fill:#ebbc81"/></g><g transform="matrix(.35278 0 0 -.35278 -320.32 227.43)"><path d="m0 0 0.114-3.317c-1.258 0.143-1.944 0.229-2.001 0.229l-20.017 11.781-10.208-5.033-0.514 15.67-0.029 0.029 7.749 8.206 5.119-5.719 19.558-21.846z" style="fill:#124c80"/></g><g transform="matrix(.35278 0 0 -.35278 -335.97 119.67)"><path d="m0 0c-0.172 1.201-0.6 2.545-1.344 4.289l0.286 0.229 6.005-7.006c0.143 0.143 0.257 0.315 0.4 0.458 22.333 25.706 24.82 50.012 24.248 62.508l0.744 0.028s4.747-1.858 11.695-5.69l-0.086-0.114s1.116-57.905-19.072-110.15h-0.029s-26.622 40.862-27.565 42.091l-0.372 0.372c1.687 1.544 3.003 3.46 3.746 5.662 1.029 3.059 1.687 4.889 1.344 7.32" style="fill:#f1f2f2"/></g><g transform="matrix(.35278 0 0 -.35278 -325.53 98.335)"><path d="m0 0c0.572-12.496-1.916-36.801-24.248-62.508l-0.286 0.257s27.308 49.984 3.26 77.263l20.187-6.262s0.858-3.231 1.087-8.75" style="fill:#d1d3d4"/></g><g transform="matrix(.35278 0 0 -.35278 -334.75 152.3)"><path d="m0 0c33.284-94.763 21.846-190.44 21.846-190.44l-0.743-0.686-5.119 5.719c6.177 115.12-16.127 175.89-18.615 182.23l0.486 0.229c0.744 0.972 1.459 1.944 2.145 2.945" style="fill:#18568c"/></g><g transform="matrix(.35278 0 0 -.35278 -327.91 139.23)"><path d="m0 0h0.029c-4.089-10.609-9.065-20.96-15.098-30.568l-0.572 0.372c-13.325 2.917-24.992 7.006-35.258 11.953 0.715 18.1 2.088 53.929 2.288 55.016l0.314 1.086c6.978-1.772 15.327-0.057 20.36 4.604l0.372-0.372c0.943-1.229 27.565-42.091 27.565-42.091" style="fill:#af2a3f"/></g><g transform="matrix(.35278 0 0 -.35278 -332.72 175.23)"><path d="m0 0c0 1.544-0.6 2.974-1.63 4.003-1.029 1.115-2.516 1.802-4.175 1.802-3.202 0-5.804-2.602-5.804-5.805 0-0.886 0.2-1.716 0.571-2.459 0.915-1.973 2.917-3.346 5.233-3.346 3.203 0 5.805 2.602 5.805 5.805m5.805-60.935c0 1.687-0.715 3.202-1.859 4.232-1.029 0.972-2.43 1.572-3.946 1.572-3.203 0-5.805-2.602-5.805-5.804 0-0.887 0.2-1.745 0.572-2.488 0.915-1.973 2.917-3.317 5.233-3.317 3.203 0 5.805 2.602 5.805 5.805m-136.45 181.29c-1.973 21.332-8.807 43.979-13.039 56.446-2.059 6.005-3.489 9.665-3.489 9.665l-0.772 1.087c8.721 6.291 17.672 12.667 26.908 19.158 0.2-9.093 4.375-95.735 83.21-133.62 8.779-4.232 18.501-7.864 29.224-10.694 0 0 0.086-0.201 0.229-0.572 2.487-6.348 24.791-67.112 18.615-182.23l-7.749-8.207-18.358-19.359s-59.191 0.401-105.43 32.799l0.143 0.2s54.33 96.507 16.299 184.15c-6.262 18.643-16.385 27.851-25.563 32.312 0.543 5.947 0.4 12.352-0.229 18.872" style="fill:#2e6ca3"/></g><g transform="matrix(.35278 0 0 -.35278 -331.33 195.24)"><path d="m0 0c1.144-1.029 1.859-2.545 1.859-4.232 0-3.203-2.602-5.805-5.805-5.805-2.316 0-4.318 1.344-5.233 3.317l0.257 0.115s10.352-4.032 8.922 6.605" style="fill:#010a12"/></g><g transform="matrix(.35278 0 0 -.35278 -331.33 195.24)"><path d="m0 0c1.43-10.637-8.922-6.605-8.922-6.605l-0.257-0.115c-0.372 0.744-0.572 1.602-0.572 2.488 0 3.203 2.602 5.805 5.805 5.805 1.515 0 2.917-0.601 3.946-1.573" style="fill:#04213b"/></g><g transform="matrix(.35278 0 0 -.35278 -331.83 220.62)"><path d="m0 0 0.515-15.67-17.3-8.55c-45.037-8.578-111.18 25.021-111.18 25.021-5.719-11.438-34.314-25.736-34.314-25.736l-0.486-0.028c-0.486 10.866 0.715 17.7 1.201 20.13l-1.001 1.001c5.605 5.548 10.151 10.952 13.583 15.441 1.801 2.374 4.803 7.464 8.435 14.612l1.23-0.086c4.918-4.689 10.122-8.892 15.498-12.667 46.237-32.398 105.43-32.798 105.43-32.798l18.357 19.359z" style="fill:#124c80"/></g><g transform="matrix(.35278 0 0 -.35278 -337.04 -31.543)"><path d="m0 0c3.86-6.405 15.613-29.538 13.783-71.029-10.466 50.384-25.65 64.71-31.998 68.627 5.748 0.515 11.81 1.315 18.215 2.402" style="fill:#ebbc81"/></g><g transform="matrix(.35278 0 0 -.35278 -342.89 110.45)"><path d="m0 0-0.343 0.4c3.86 2.173 7.606 4.661 11.066 7.464 6.405 5.232 11.724 11.609 14.498 19.244 2.43 6.634 2.973 14.24 0.657 22.904l2.059-0.658c24.048-27.279-3.26-77.262-3.26-77.262l0.286-0.258c-0.143-0.143-0.257-0.314-0.4-0.457l-6.005 7.005z" style="fill:#f1f2f2"/></g><g transform="matrix(.35278 0 0 -.35278 -333.3 173.82)"><path d="m0 0c1.029-1.029 1.63-2.459 1.63-4.003 0-3.203-2.602-5.805-5.805-5.805-2.316 0-4.318 1.373-5.233 3.346l0.172 0.085s9.55-4.117 9.093 6.263z" style="fill:#010a12"/></g><g transform="matrix(.35278 0 0 -.35278 -334.75 152.3)"><path d="m0 0c-0.686-1.001-1.401-1.973-2.145-2.945l-0.486-0.229c-0.143 0.372-0.228 0.572-0.228 0.572-10.724 2.831-20.446 6.462-29.224 10.694l0.2 0.429s0.143 4.118 0.372 10.294c10.265-4.947 21.932-9.036 35.257-11.952l0.572-0.372c-1.373-2.202-2.802-4.375-4.318-6.491" style="fill:#851b2b"/></g><g transform="matrix(.35278 0 0 -.35278 -334.77 173.18)"><path d="m0 0c1.659 0 3.146-0.686 4.175-1.802l-0.143-0.114c0.457-10.38-9.093-6.262-9.093-6.262l-0.172-0.086c-0.371 0.744-0.572 1.573-0.572 2.459 0 3.203 2.602 5.805 5.805 5.805" style="fill:#04213b"/></g><g transform="matrix(.35278 0 0 -.35278 -333.97 85.12)"><path d="m0 0-0.229-1.029c0.486-2.431-0.257-43.522-0.257-43.522l0.429-0.142c-2.774-7.635-8.093-14.012-14.498-19.245l-0.486 0.601s3.832 46.981-4.632 52.357c-7.978 5.089-52.757 23.104-58.019 25.22l0.086 8.922 0.343 0.858c28.709-11.353 58.448-20.188 77.263-24.02" style="fill:#ebbc81"/></g><g transform="matrix(.35278 0 0 -.35278 -335.97 119.67)"><path d="m0 0c0.343-2.431-0.315-4.261-1.344-7.32-0.743-2.202-2.059-4.118-3.746-5.662-5.033-4.661-13.382-6.377-20.359-4.604-2.745 0.686-5.29 1.945-7.321 3.746-1.544 1.373-2.659 5.061-3.317 9.608l-0.4 0.057 2.86 22.418 0.572-0.085c-1.459-15.871 7.577-45.123 33.055-18.158" style="fill:#851b2b"/></g><g transform="matrix(.35278 0 0 -.35278 -347.63 113.26)"><path d="m0 0-0.572 0.086 0.772 5.833 0.315-0.028c3.545 1.944 8.407 3.145 12.924 2.087l18.558-21.618-0.286-0.228c0.744-1.745 1.173-3.089 1.344-4.29-25.477-26.964-34.513 2.288-33.055 18.158" style="fill:#af2a3f"/></g><g transform="matrix(.35278 0 0 -.35278 -337.28 -31.926)"><path d="m0 0c-24.048-1.001-63.909 5.862-72.402 7.377-1.058 0.172-2.116-0.028-2.974-0.629-1.572-1.058-4.432-2.916-8.092-5.061-5.948-3.403-13.926-7.578-21.789-10.065-1.23-0.401-2.116 1.229-1.144 2.087l30.368 26.736c1.172 1.03 2.831 1.287 4.26 0.658 15.785-7.034 56.932-16.242 71.945-19.502 0.943-0.2 0.8-1.572-0.143-1.601z" style="fill:#1a131a"/></g><g transform="matrix(.35278 0 0 -.35278 -343.46 -30.695)"><path d="m0 0c-41.548-4.032-65.425 4.261-65.425 4.261l-0.514 0.915c3.66 2.144 6.519 4.003 8.092 5.061 0.858 0.6 1.916 0.801 2.974 0.629 8.492-1.516 48.353-8.378 72.402-7.377h0.028c0.143-0.286 0.4-0.63 0.658-1.087-6.405-1.087-12.467-1.887-18.215-2.402" style="fill:#ebbc81"/></g><g transform="matrix(.35278 0 0 -.35278 -339.28 107.46)"><path d="m0 0 0.486-0.6c-3.46-2.803-7.206-5.291-11.066-7.464l0.343-0.4c-4.518 1.058-9.379-0.143-12.925-2.087l-0.314 0.028 0.085 0.772c-0.629 0.057-1.229 0.115-1.83 0.172-22.961 2.345-33.627 11.123-38.174 20.874h0.029l0.343 31.454 0.372 34.829c5.261-2.117 50.041-20.131 58.019-25.221 8.464-5.376 4.632-52.357 4.632-52.357" style="fill:#fad4a5"/></g><g transform="matrix(.35278 0 0 -.35278 -343.92 -7.9579)"><path d="m0 0-0.086-0.572c0-9.379-7.148-17.1-16.299-18.043-0.6-0.057-1.229-0.086-1.858-0.086-10.009 0-18.129 8.121-18.129 18.129 0 1.659 0.228 3.231 0.629 4.747l0.2 1.287c10.437-1.716 22.847-3.632 35.543-5.462" style="fill:#1a131a"/></g><g transform="matrix(.35278 0 0 -.35278 -344.95 125.87)"><path d="m0 0-0.314-1.087c-0.201-1.086-1.573-36.915-2.288-55.016-70.629 34.028-73.889 108.14-73.889 108.14l1.001 0.229c11.867-51.756 62.88-51.242 62.88-51.242l1.573 12.382 0.4-0.057c0.658-4.547 1.773-8.235 3.317-9.608 2.03-1.802 4.575-3.06 7.32-3.746" style="fill:#f1f2f2"/></g><g transform="matrix(.35278 0 0 -.35278 -345.86 145.66)"><path d="m0 0c-0.229-6.177-0.372-10.294-0.372-10.294l-0.2-0.429c-78.835 37.888-83.01 124.53-83.21 133.62 2.802 1.973 5.633 3.975 8.492 5.948 0.143-7.606 1.001-14.412 2.402-20.474l-1.001-0.229s3.26-74.117 73.889-108.14" style="fill:#d1d3d4"/></g><g transform="matrix(.35278 0 0 -.35278 -347.53 110.9)"><path d="m0 0-0.086-0.772-0.772-5.833-2.859-22.419-1.573-12.381s-51.013-0.515-62.88 51.242c-1.401 6.062-2.259 12.867-2.402 20.473 0.115 0.086 0.229 0.172 0.343 0.258 4.347-31.454 43.693-89.273 68.256-31.941l0.143 1.545c0.6-0.058 1.201-0.115 1.83-0.172" style="fill:#d1d3d4"/></g><g transform="matrix(.35278 0 0 -.35278 -348.17 110.84)"><path d="m0 0-0.143-1.544c-24.563-57.332-63.909 0.486-68.255 31.94-0.229 1.401-0.344 2.745-0.401 4.032v0.229l30.882 17.671s-7.091-16.785-0.257-31.454c4.547-9.751 15.212-18.529 38.174-20.874" style="fill:#f1f2f2"/></g><g transform="matrix(1 0 0 .58838 -440.46 120.23)" style="stroke-width:1.3037"><g transform="matrix(.35278 0 0 -.35278 145.65 167.43)" style="stroke-width:1.3037"><path d="m0 0c0-1.115 0-2.259-0.029-3.346-0.257-22.361-3.231-40.433-7.234-56.131v-0.029c-7.149-27.994-17.529-48.296-21.618-71.458l-0.629 0.115c12.325 66.883 16.185 102-1.315 101.57-20.188-0.543-36.001 0.772-41.377 1.315l-0.114 3.317c44.837 0.801 72.316 24.649 72.316 24.649" style="fill:#0d4575;stroke-width:1.3037"/></g><g transform="matrix(.35278 0 0 -.35278 112.41 173.06)" style="stroke-width:1.3037"><path d="m0 0-2.145-80.78-34.714-9.179 29.024 11.61-2.373 73.316z" style="fill:#124c80;stroke-width:1.3037"/></g><g style="stroke-width:1.3037"><path transform="matrix(.35278 0 0 -.35278 137.91 478.23)" d="m0 0c-2.345-0.572-27.623-6.348-30.339 18.186-2.859 25.735 17.157 181.09 19.073 310.71 1.229 84.154-31.883 260.81-48.697 344.8 0 0.057-0.029 0.115-0.029 0.143-3.688 23.991-7.005 40.862-9.493 46.123-8.693 18.358-51.07 25.993-78.407 29.053-6.777 0.743-12.61 1.229-16.785 1.515l-0.057-1.287s-7.635-726.3-12.382-740.6c-4.775-14.298-27.651-15.241-27.651-15.241l-0.772 0.028c28.338 619.79-18.758 776.98-31.282 813.6-6.262 18.272-8.436 32.941-8.95 43.693l0.486 0.029s28.594 14.297 34.313 25.735c0 0 66.14-33.599 111.18-25.021l17.3 8.55 2.374-73.317-29.024-11.609 34.714 9.179 2.145 80.78 20.016-11.781c0.057 0 0.743-0.086 2.001-0.229 5.376-0.543 21.189-1.858 41.377-1.315 17.5 0.429 13.64-34.686 1.315-101.57l0.63-0.114c-0.458-2.573-0.83-5.176-1.116-7.835-1.315-12.296 0.658-50.555 4.147-98.737 0.743-10.209 1.544-20.875 2.43-31.826 8.493-108.09 22.104-244.74 24.877-263.13 3.889-25.849-16.842-291.32-21.388-348.51z" style="fill:#2e6ca3;stroke-width:1.3037"/><g style="stroke-width:1.3037"><g transform="matrix(.35278 0 0 -.35278 159.01 501.07)" style="stroke-width:1.3037"><path d="m0 0c4.118-11.438 0.6-26.736-9.837-32.655-21.817-12.382-53.7 0-53.7 0-20.789 25.135-55.131 48.354-55.131 48.354-0.4 1.715-0.6 3.431-0.629 5.118 12.067-9.379 100.65-75.919 119.3-20.817" style="stroke-width:1.3037"/></g><g transform="matrix(.35278 0 0 -.35278 140.05 500.38)" style="stroke-width:1.3037"><path d="m0 0c2.631 0.886 34.8 11.524 49.869 3.775l0.543 0.428c1.402-1.83 2.517-3.917 3.346-6.147-18.644-55.102-107.23 11.437-119.3 20.816-0.257 12.639 8.378 23.906 8.378 23.906s11.009-17.7 43.979-6.949l0.257-0.858s-9.35-21.96 12.839-34.742z" style="fill:#302430;stroke-width:1.3037"/></g><g transform="matrix(.35278 0 0 -.35278 157.83 498.9)" style="stroke-width:1.3037"><path d="m0 0-0.543-0.429c-15.07 7.749-47.239-2.888-49.869-3.774l-0.086 0.228s11.924 7.549 25.163 10.495c2.545 0.571 5.147 0.972 7.721 1.115 8.063 0.429 13.897-2.717 17.614-7.635" style="fill:#6e536e;stroke-width:1.3037"/></g><g transform="matrix(.35278 0 0 -.35278 148.89 496.55)" style="stroke-width:1.3037"><path d="m0 0 0.029-0.143c-13.24-2.945-25.164-10.494-25.164-10.494-22.189 12.782-12.839 34.742-12.839 34.742l-0.257 0.858c0.172 0.057 0.343 0.115 0.515 0.172 0 0 18.386-22.247 37.716-25.135" style="fill:#453445;stroke-width:1.3037"/></g><g transform="matrix(.35278 0 0 -.35278 134.92 483.77)" style="stroke-width:1.3037"><path d="m0 0c-20.474-7.177-40.69 4.404-40.69 4.404s24.648 301.79 26.107 330.81c1.172 23.447-21.36 252.6-36.916 354.17 16.814-83.983 49.926-260.64 48.697-344.8-1.916-129.62-21.932-284.98-19.073-310.71 2.717-24.535 27.994-18.758 30.339-18.187h2.002c-0.544-6.948-0.858-10.837-0.858-10.837-3.146-2.173-6.377-3.774-9.608-4.861" style="fill:#124c80;stroke-width:1.3037"/></g><g transform="matrix(.35278 0 0 -.35278 134.92 483.77)" style="stroke-width:1.3037"><path d="m0 0 1.859-11.095c-0.172-0.057-0.343-0.114-0.515-0.171-32.97-10.752-43.979 6.948-43.979 6.948l1.945 8.722s20.216-11.581 40.69-4.404" style="fill:#ebbc81;stroke-width:1.3037"/></g><g transform="matrix(.35278 0 0 -.35278 84.792 500.02)" style="stroke-width:1.3037"><path d="m0 0c1.001-7.549-0.114-15.584-1.201-20.817l-0.4 0.172-69.657 0.486-0.572-0.086c-0.686 5.662-0.972 14.383 1.973 22.647 7.177 7.292 39.232 35.686 69.056-2.516z" style="fill:#302430;stroke-width:1.3037"/></g><g transform="matrix(.35278 0 0 -.35278 84.792 500.02)" style="stroke-width:1.3037"><path d="m0 0-0.801-0.114c-29.824 38.202-61.879 9.808-69.056 2.516 1.43 4.032 3.603 7.921 6.834 11.295l0.029 0.028c11.638 12.067 40.118 16.414 56.56 0.687 3.861-3.689 5.719-8.922 6.434-14.412" style="fill:#6e536e;stroke-width:1.3037"/></g><g transform="matrix(.35278 0 0 -.35278 84.227 507.3)" style="stroke-width:1.3037"><path d="m0 0 0.4-0.172c-0.257-1.258-0.486-2.344-0.714-3.231-0.372-1.401-1.63-2.402-3.117-2.402h-62.337c-2.03 0-3.774 1.487-4.089 3.489-0.143 0.8-0.257 1.687-0.372 2.716l0.572 0.086z" style="fill:#171117;stroke-width:1.3037"/></g><g transform="matrix(.35278 0 0 -.35278 79.284 483.99)" style="stroke-width:1.3037"><path d="m0 0c-14.498-4.175-25.449-2.516-32.112-0.343-4.947 1.573-7.549 3.431-7.549 3.431 0.114 2.231 0.2 4.461 0.315 6.663l0.772-0.029s22.876 0.944 27.651 15.241c4.746 14.298 12.381 740.6 12.381 740.6l0.058 1.287c4.174-0.286 10.008-0.772 16.785-1.516-10.094-88.958-12.039-763.22-12.039-763.22-2.144-0.829-4.232-1.544-6.262-2.116" style="fill:#124c80;stroke-width:1.3037"/></g><g transform="matrix(.35278 0 0 -.35278 79.96 489.04)" style="stroke-width:1.3037"><path d="m0 0s2.431-9.179 7.263-16.699c-16.442 15.727-44.922 11.38-56.56-0.687 0.515 0.687 8.721 11.724 10.608 16.414 0 0 20.789-3.374 38.689 0.972" style="fill:#453445;stroke-width:1.3037"/></g><g transform="matrix(.35278 0 0 -.35278 79.284 483.99)" style="stroke-width:1.3037"><path d="m0 0 1.916-14.326c-17.9-4.346-38.689-0.972-38.689-0.972l4.661 14.955c6.663-2.173 17.614-3.832 32.112 0.343" style="fill:#ebbc81;stroke-width:1.3037"/></g></g></g></g><g transform="matrix(.35278 0 0 -.35278 -361.51 92.383)"><path d="m0 0-0.343-31.454h-0.029c-6.834 14.669 0.258 31.454 0.258 31.454z" style="fill:#fad4a5"/></g><g transform="matrix(.35278 0 0 -.35278 -369.71 150.83)"><path d="m0 0c38.031-87.643-16.299-184.15-16.299-184.15l-0.143-0.2c-5.376 3.774-10.58 7.978-15.498 12.667l-1.23 0.086c17.786 34.972 50.842 118.95 33.17 171.6" style="fill:#18568c"/></g><g transform="matrix(.35278 0 0 -.35278 -378.73 139.43)"><path d="m0 0c9.179-4.461 19.301-13.668 25.564-32.312 17.671-52.643-15.384-136.62-33.17-171.6-3.632-7.148-6.634-12.238-8.436-14.612-3.431-4.489-7.978-9.893-13.582-15.441-16.699-16.528-42.549-34.113-74.432-31.94-24.677 1.687-47.038 24.992-61.45 44.293-2.202 8.578-3.203 24.277-0.229 43.521l0.315-0.057c24.648-73.145 167.11-52.357 161.73 83.954l1.201 2.402c-6.891 38.86-27.365 53.158-44.493 58.104 0.171 0.086 0.314 0.143 0.486 0.229 0 0 26.193 28.509 42.578 34.257l0.285 0.772c1.173-0.429 2.402-0.944 3.632-1.573" style="fill:#f5c03d"/></g><g transform="matrix(.35278 0 0 -.35278 -372.3 100.12)"><path d="m0 0c-0.114-0.086-0.229-0.172-0.343-0.257-0.057 1.401-0.086 2.83-0.057 4.289 0.057-1.287 0.171-2.631 0.4-4.032" style="fill:#d1d3d4"/></g><g transform="matrix(.35278 0 0 -.35278 -404.28 150.63)"><path d="m0 0-97.022-67.941-0.486 0.029c0.315 5.861-0.886 11.552-5.033 15.412-0.142 0.143-0.286 0.257-0.457 0.401 18.272-7.578 139.08 87.699 148.95 98.537 15.927 17.443 19.072 40.032 12.867 60.506l0.343 0.115c4.232-12.468 11.067-35.115 13.04-56.446l-20.846-14.612z" style="fill:#d1d3d4"/></g><g transform="matrix(.35278 0 0 -.35278 -379.61 171.81)"><path d="m0 0-1.201-2.402c5.376-136.31-137.08-157.1-161.73-83.954l-0.315 0.057c6.834 44.322 34.885 107.26 118.75 144.4 17.128-4.947 37.602-19.244 44.493-58.104" style="fill:#ffd15f"/></g><g transform="matrix(.35278 0 0 -.35278 -380.01 138.88)"><path d="m0 0-0.286-0.772c-16.385-5.748-42.577-34.257-42.577-34.257-0.172-0.085-0.315-0.143-0.486-0.228-12.21 3.574-22.733 2.373-25.45 1.944l51.356 36.001 0.2-0.286s7.721 1.172 17.243-2.402" style="fill:#fabb32"/></g><g transform="matrix(.35278 0 0 -.35278 -444.67 174.63)"><path d="m0 0c-1.344 0.686-2.173 0.915-2.173 0.915 15.269-28.652 2.831-56.789 2.087-58.419-15.641 1.287-41.805 1.315-49.097-5.633 0 0-0.057-0.543-0.143-1.487-5.69 18.529-6.834 57.933-1.287 68.713 5.119 10.065 82.467 82.782 220.01 181.75l0.772-1.087s1.43-3.66 3.489-9.665l-0.344-0.114c6.206-20.474 3.06-43.064-12.867-60.506-9.865-10.838-130.68-106.12-148.95-98.538 0.172-0.143 0.315-0.257 0.458-0.4l-0.201-0.2c2.031-13.955-1.744-19.388-4.089-21.389-2.888 3.288-5.776 5.118-7.663 6.062" style="fill:#f1f2f2"/></g><g transform="matrix(.35278 0 0 -.35278 -404.37 -61.503)"><path d="m0 0 26.593-36.401-40.662-83.039 2.774-48.868-0.486-0.515c-7.463 6.92-18.787 13.182-34.886 12.124l-0.057 0.715s65.282 93.762 43.521 160.36z" style="fill:#1a131a"/></g><g transform="matrix(.35278 0 0 -.35278 -399.4 33.099)"><path d="m0 0s3.546-37.974 23.905-68.456c-41.348 35.401-54.959 61.107-57.361 66.111 12.525-0.228 23.19 1.344 28.852 2.374z" style="fill:#1a131a"/></g><g transform="matrix(.35278 0 0 -.35278 -439.88 180.2)"><path d="m0 0c1.573 4.461 3.174 10.266 3.403 15.927l0.486-0.028 97.022 67.941c2.716 0.429 13.239 1.629 25.449-1.945-83.868-37.144-111.92-100.08-118.75-144.4-2.974-19.244-1.973-34.943 0.229-43.521-10.494 13.983-16.814 25.878-16.814 25.878l-0.457-0.057c-0.057 0.429-0.086 0.715-0.086 0.886 3.26 1.115 5.805 2.574 7.234 4.432 7.721 10.152 4.347 29.51 0.486 31.455-0.228 0.114-0.629 0.257-1.172 0.371l0.2 0.801s2.488 17.357-0.486 34.314c0 0 1.63 3.231 3.26 7.949" style="fill:#fabb32"/></g><g transform="matrix(.35278 0 0 -.35278 -416.12 8.3131)"><path d="m0 0c-17.243 7.492-31.626 8.064-31.626 8.064l-0.286 0.486s31.683 20.188 72.088-41.377l-0.315-0.2c-0.229 0.343-0.457 0.658-0.715 1.001-11.266 16.585-26.05 26.307-39.146 32.026" style="fill:#ebbc81"/></g><g transform="matrix(.35278 0 0 -.35278 -402.31 19.611)"><path d="m0 0-0.086-0.057c-4.203 5.776-18.358 22.733-27.794 20.845-8.378-1.658-4.232-11.495-3.974-12.124l-1.831-0.171c-4.174 2.259-18.243 11.209-5.461 23.533 13.096-5.719 27.88-15.441 39.146-32.026" style="fill:#e0b174"/></g><g transform="matrix(.35278 0 0 -.35278 -405.5 -63.046)"><path d="m0 0-6.92 9.465s1.172-0.2 3.374-0.515c1.373-2.917 2.545-5.919 3.546-8.95" style="fill:#ebbc81"/></g><g transform="matrix(.35278 0 0 -.35278 -440.46 169.15)"><path d="m0 0c4.146-3.86 5.347-9.551 5.033-15.412-0.229-5.662-1.83-11.467-3.403-15.928-1.744 4.175-3.832 7.349-5.919 9.751 2.345 2.002 6.119 7.435 4.089 21.389z" style="fill:#d1d3d4"/></g><g transform="matrix(.35278 0 0 -.35278 -444.13 196.7)"><path d="m0 0c-0.429 1.573-1.001 3.231-1.687 4.976 0 0 0 0.028 0.057 0.085 4.861-0.4 8.721-0.886 10.694-1.372 0.544-0.115 0.944-0.258 1.173-0.372 3.86-1.944 7.234-21.303-0.486-31.454-1.43-1.859-3.975-3.317-7.235-4.432-11.752-4.032-32.741-3.66-43.378-2.116-2.488 0.371-4.375 0.772-5.49 1.229-1.172 0.486-2.087 1.659-2.774 3.317l0.715 0.315s58.219-6.577 48.411 29.824" style="fill:#d1d3d4"/></g><g transform="matrix(.35278 0 0 -.35278 -441.03 183.01)"><path d="m0 0c2.974-16.957 0.486-34.314 0.486-34.314l-0.2-0.8c-1.973 0.486-5.833 0.972-10.694 1.372 0.743 1.63 13.182 29.767-2.088 58.419 0 0 0.829-0.229 2.173-0.915 5.691-6.119 8.75-14.898 10.323-23.762" style="fill:#d1d3d4"/></g><g transform="matrix(.35278 0 0 -.35278 -441.97 176.76)"><path d="m0 0c2.087-2.402 4.175-5.576 5.919-9.751-1.63-4.718-3.26-7.949-3.26-7.949-1.572 8.864-4.632 17.643-10.322 23.762 1.887-0.944 4.775-2.774 7.663-6.062" style="fill:#d1d3d4"/></g><g transform="matrix(.35278 0 0 -.35278 -444.13 196.7)"><path d="m0 0c9.808-36.401-48.411-29.824-48.411-29.824l-0.715-0.315c-2.831 6.634-2.23 20.846-1.801 26.822l0.743-0.057s23.248 9.865 50.184 3.374" style="fill:#f1f2f2"/></g><g transform="matrix(.35278 0 0 -.35278 -462.07 197.42)"><path d="m0 0c0.086 0.944 0.143 1.487 0.143 1.487 7.292 6.948 33.456 6.92 49.097 5.633-0.057-0.057-0.057-0.086-0.057-0.086 0.686-1.744 1.258-3.403 1.687-4.975-26.936 6.491-50.184-3.374-50.184-3.374l-0.743 0.057c0.028 0.486 0.057 0.886 0.057 1.258" style="fill:#d1d3d4"/></g><g transform="matrix(1 0 0 .62901 -440.46 109.52)" style="stroke-width:1.2609"><g transform="matrix(.35278 0 0 -.35278 3.5257 205.14)" style="stroke-width:1.2609"><path d="m0 0c12.096-54.644 5.319-71.573-9.694-84.154-11.295-9.465-41.09-14.498-45.436 5.805 0 0 44.493 0.114 47.352 29.652 1.459 15.012-2.259 53.501-7.663 89.273l7.72 1.115c2.117-13.754 4.661-27.908 7.721-41.691" style="fill:#ebbc81;stroke-width:1.2609"/></g><g transform="matrix(.35278 0 0 -.35278 -4.8469 210.89)" style="stroke-width:1.2609"><path d="m0 0h-0.029c0-5.976-4.518-9.951-5.976-11.123-4.747 40.032-29.309 109.95-31.54 156.76 3.803-0.887 19.53-5.147 28.709-15.985 5.147-6.09 11.924-38.174 17.128-72.773 5.405-35.772 9.122-74.261 7.664-89.273-2.86-29.538-47.353-29.652-47.353-29.652-3.431 15.984 16.185 13.696 26.107 36.944 2.688 6.234 4.661 14.326 5.29 25.106" style="fill:#fad4a5;stroke-width:1.2609"/></g><g transform="matrix(.35278 0 0 -.35278 .80208 190.43)" style="stroke-width:1.2609"><path d="m0 0-7.721-1.115c-5.204 34.599-11.981 66.683-17.128 72.773-9.179 10.838-24.906 15.098-28.709 15.985-0.057 1.401-0.114 2.802-0.143 4.175l0.172 1.172c10.637-1.544 31.626-1.916 43.378 2.116 0-0.172 0.029-0.458 0.086-0.886 0.572-7.092 2.974-48.325 10.065-94.22" style="fill:#ebbc81;stroke-width:1.2609"/></g><g transform="matrix(.35278 0 0 -.35278 -4.857 210.89)" style="stroke-width:1.2609"><path d="m0 0h0.029c-0.629-10.78-2.602-18.872-5.29-25.106 0.171 4.089-0.115 8.778-0.715 13.983 1.458 1.172 5.976 5.147 5.976 11.123" style="fill:#ebbc81;stroke-width:1.2609"/></g></g><g transform="matrix(.35278 0 0 -.35278 -355.65 33.264)"><path d="m0 0 12.679 9.537 0.018 0.013c0.475 0.357 1.389 0.262 1.746-0.213 0.099-0.132-0.566-0.285 0.434-0.437v-1e-3c2-11.137 5.087-22.25 8.283-33.196 1.626-5.457 3.202-10.918 5.32-16.107 0.543-1.282 1.033-2.569 1.667-3.752 0.3-0.611 0.618-1.158 0.952-1.694 0.177-0.238 0.335-0.501 0.508-0.722l0.249-0.27 0.12-0.139 0.028-0.035c-0.049 0.042 0.132-0.117-0.108 0.089l0.026-0.02 0.108-0.08 0.431-0.32 0.213-0.154 0.166-0.076c0.24-0.105 0.384-0.214 0.686-0.339 0.58-0.254 1.175-0.498 1.82-0.705 1.261-0.437 2.607-0.78 3.95-1.113 5.432-1.254 11.08-2.002 16.713-2.638 5.646-0.611 11.32-1.055 17-1.358 5.679-0.307 11.367-0.478 17.034-0.471 2.833 3e-3 5.663 0.05 8.47 0.182 2.8 0.133 5.603 0.331 8.26 0.721l0.031 5e-3c1.563 0.229 3.016-0.852 3.245-2.415s-0.852-3.015-2.415-3.245c-0.02-3e-3 -0.054-7e-3 -0.074-9e-3 -3.022-0.363-5.946-0.486-8.867-0.551-2.918-0.061-5.817-0.034-8.71 0.038-5.786 0.143-11.546 0.465-17.296 0.925-5.749 0.457-11.486 1.055-17.211 1.824-2.863 0.387-5.722 0.83-8.578 1.335-2.856 0.511-5.708 1.085-8.558 1.833-1.426 0.392-2.85 0.792-4.283 1.329-0.713 0.25-1.436 0.564-2.159 0.906-0.356 0.158-0.814 0.444-1.206 0.674l-0.303 0.185-0.217 0.167-0.423 0.331-0.106 0.082-0.027 0.021c-0.258 0.219-0.088 0.079-0.154 0.136l-0.059 0.065-0.236 0.261-0.462 0.527c-0.261 0.347-0.477 0.688-0.714 1.034-0.408 0.684-0.805 1.366-1.12 2.047-0.683 1.362-1.222 2.727-1.76 4.096-2.071 5.477-3.829 11.017-5.332 16.575-2.938 11.127-4.902 22.319-7.902 33.577v1e-3l1.921-0.636-12.369-9.809c-0.544-0.429-1.283-0.334-1.711 0.21-0.429 0.545-0.309 1.334 0.235 1.762 6e-3 5e-3 0.042 0.013 0.047 0.017" style="fill:#302430"/></g><g transform="matrix(.35278 0 0 -.35278 -367.48 -11.599)"><path d="m0 0s6.13-0.627 15.269-1.838c2.283-0.307 4.757-0.639 7.374-0.991 2.614-0.368 5.37-0.755 8.221-1.157 2.846-0.431 5.797-0.81 8.782-1.282 2.988-0.447 6.024-0.902 9.06-1.356 3.033-0.47 6.067-0.939 9.053-1.401 2.99-0.428 5.919-0.953 8.765-1.379 2.841-0.455 5.588-0.896 8.193-1.313 2.605-0.426 5.067-0.829 7.34-1.201 4.549-0.728 8.334-1.4 10.988-1.841 2.652-0.478 4.167-0.75 4.167-0.75s-1.539 0.05-4.23 0.184c-1.344 0.077-2.981 0.14-4.849 0.288-1.871 0.135-3.981 0.288-6.28 0.49-4.598 0.399-9.955 0.946-15.679 1.65-2.861 0.354-5.819 0.712-8.816 1.14-2.996 0.431-6.039 0.869-9.083 1.308-3.035 0.488-6.071 0.976-9.059 1.457-2.987 0.484-5.917 1.022-8.755 1.527-5.673 1.021-10.953 2.064-15.467 3.016-9.033 1.881-14.994 3.449-14.994 3.449" style="fill:#1a131a"/></g><g transform="matrix(.35278 0 0 -.35278 -282.03 -19.391)"><path d="m0 0s-4.598-2.516-11.685-5.862c-3.538-1.688-7.695-3.588-12.183-5.544-2.247-0.971-4.562-1.994-6.938-2.974-2.378-0.976-4.793-1.969-7.208-2.961-2.433-0.949-4.866-1.899-7.261-2.833-2.395-0.935-4.776-1.793-7.076-2.634-4.601-1.679-8.931-3.15-12.665-4.348-3.732-1.203-6.866-2.133-9.074-2.742-2.205-0.616-3.473-0.942-3.473-0.942s1.189 0.554 3.282 1.478c2.097 0.91 5.085 2.23 8.692 3.745 1.803 0.76 3.755 1.584 5.821 2.455 2.069 0.859 4.251 1.765 6.508 2.702 2.269 0.907 4.583 1.92 6.972 2.855 2.379 0.962 4.795 1.939 7.211 2.916 2.423 0.96 4.847 1.92 7.232 2.865 2.377 0.967 4.748 1.84 7.021 2.74 2.272 0.9 4.49 1.719 6.584 2.518 2.101 0.785 4.088 1.526 5.921 2.21 7.343 2.719 12.319 4.356 12.319 4.356" style="fill:#1a131a"/></g></g></svg>
