<?xml version="1.0" encoding="UTF-8"?>
<svg width="262.98mm" height="664.23mm" version="1.1" viewBox="0 0 262.98 664.23" xmlns="http://www.w3.org/2000/svg"><defs><clipPath id="clipPath245429"><path d="m0 2432.3h1438.4v-2432.3h-1438.4z"/></clipPath><clipPath id="clipPath245437"><path d="m603.47 316.35h474.67v-116.03h-474.67z"/></clipPath><clipPath id="clipPath245465"><path d="m1008.4 303.5h63.09v-57.073h-63.09z"/></clipPath><clipPath id="clipPath245525"><path d="m700.83 275.37h63.087v-57.073h-63.087z"/></clipPath><clipPath id="clipPath245541"><path d="m632.27 710.89h239.1v-56.071h-239.1z"/></clipPath><clipPath id="clipPath245561"><path d="m585.82 975.34h288.48v-306.01h-288.48z"/></clipPath><pattern id="pattern246091" width="72" height="74.7998" patternTransform="matrix(3.5162 0 0 3.5162 20329 -18083)" patternUnits="userSpaceOnUse"><g transform="translate(72 .8496)"><path d="m0 0h72" style="fill:none;stroke-linecap:square;stroke-width:.3;stroke:#231f20"/></g><g transform="translate(72,2.5498)"><path d="m0 0h72" style="fill:none;stroke-linecap:square;stroke-width:.3;stroke:#231f20"/></g><g transform="translate(72,4.25)"><path d="m0 0h72" style="fill:none;stroke-linecap:square;stroke-width:.3;stroke:#231f20"/></g><g transform="translate(72,5.9502)"><path d="m0 0h72" style="fill:none;stroke-linecap:square;stroke-width:.3;stroke:#231f20"/></g><g transform="translate(72,7.6504)"><path d="m0 0h72" style="fill:none;stroke-linecap:square;stroke-width:.3;stroke:#231f20"/></g><g transform="translate(72,9.3496)"><path d="m0 0h72" style="fill:none;stroke-linecap:square;stroke-width:.3;stroke:#231f20"/></g><g transform="translate(72 11.05)"><path d="m0 0h72" style="fill:none;stroke-linecap:square;stroke-width:.3;stroke:#231f20"/></g><g transform="translate(72,12.75)"><path d="m0 0h72" style="fill:none;stroke-linecap:square;stroke-width:.3;stroke:#231f20"/></g><g transform="translate(72 14.45)"><path d="m0 0h72" style="fill:none;stroke-linecap:square;stroke-width:.3;stroke:#231f20"/></g><g transform="translate(72 16.15)"><path d="m0 0h72" style="fill:none;stroke-linecap:square;stroke-width:.3;stroke:#231f20"/></g><g transform="translate(72 17.85)"><path d="m0 0h72" style="fill:none;stroke-linecap:square;stroke-width:.3;stroke:#231f20"/></g><g transform="translate(72 19.55)"><path d="m0 0h72" style="fill:none;stroke-linecap:square;stroke-width:.3;stroke:#231f20"/></g><g transform="translate(72,21.25)"><path d="m0 0h72" style="fill:none;stroke-linecap:square;stroke-width:.3;stroke:#231f20"/></g><g transform="translate(72 22.949)"><path d="m0 0h72" style="fill:none;stroke-linecap:square;stroke-width:.3;stroke:#231f20"/></g><g transform="translate(72 24.649)"><path d="m0 0h72" style="fill:none;stroke-linecap:square;stroke-width:.3;stroke:#231f20"/></g><g transform="translate(72 26.349)"><path d="m0 0h72" style="fill:none;stroke-linecap:square;stroke-width:.3;stroke:#231f20"/></g><g transform="translate(72 28.049)"><path d="m0 0h72" style="fill:none;stroke-linecap:square;stroke-width:.3;stroke:#231f20"/></g><g transform="translate(72,29.749)"><path d="m0 0h72" style="fill:none;stroke-linecap:square;stroke-width:.3;stroke:#231f20"/></g><g transform="translate(72 31.449)"><path d="m0 0h72" style="fill:none;stroke-linecap:square;stroke-width:.3;stroke:#231f20"/></g><g transform="translate(72 33.149)"><path d="m0 0h72" style="fill:none;stroke-linecap:square;stroke-width:.3;stroke:#231f20"/></g><g transform="translate(72 34.849)"><path d="m0 0h72" style="fill:none;stroke-linecap:square;stroke-width:.3;stroke:#231f20"/></g><g transform="translate(72 36.549)"><path d="m0 0h72" style="fill:none;stroke-linecap:square;stroke-width:.3;stroke:#231f20"/></g><g transform="translate(72,38.249)"><path d="m0 0h72" style="fill:none;stroke-linecap:square;stroke-width:.3;stroke:#231f20"/></g><g transform="translate(72 39.949)"><path d="m0 0h72" style="fill:none;stroke-linecap:square;stroke-width:.3;stroke:#231f20"/></g><g transform="translate(72 41.649)"><path d="m0 0h72" style="fill:none;stroke-linecap:square;stroke-width:.3;stroke:#231f20"/></g><g transform="translate(72 43.349)"><path d="m0 0h72" style="fill:none;stroke-linecap:square;stroke-width:.3;stroke:#231f20"/></g><g transform="translate(72 45.049)"><path d="m0 0h72" style="fill:none;stroke-linecap:square;stroke-width:.3;stroke:#231f20"/></g><g transform="translate(72,46.749)"><path d="m0 0h72" style="fill:none;stroke-linecap:square;stroke-width:.3;stroke:#231f20"/></g><g transform="translate(72 48.449)"><path d="m0 0h72" style="fill:none;stroke-linecap:square;stroke-width:.3;stroke:#231f20"/></g><g transform="translate(72 50.149)"><path d="m0 0h72" style="fill:none;stroke-linecap:square;stroke-width:.3;stroke:#231f20"/></g><g transform="translate(72 51.849)"><path d="m0 0h72" style="fill:none;stroke-linecap:square;stroke-width:.3;stroke:#231f20"/></g><g transform="translate(72 53.549)"><path d="m0 0h72" style="fill:none;stroke-linecap:square;stroke-width:.3;stroke:#231f20"/></g><g transform="translate(72,55.249)"><path d="m0 0h72" style="fill:none;stroke-linecap:square;stroke-width:.3;stroke:#231f20"/></g><g transform="translate(72 56.949)"><path d="m0 0h72" style="fill:none;stroke-linecap:square;stroke-width:.3;stroke:#231f20"/></g><g transform="translate(72 58.649)"><path d="m0 0h72" style="fill:none;stroke-linecap:square;stroke-width:.3;stroke:#231f20"/></g><g transform="translate(72 60.349)"><path d="m0 0h72" style="fill:none;stroke-linecap:square;stroke-width:.3;stroke:#231f20"/></g><g transform="translate(72 62.049)"><path d="m0 0h72" style="fill:none;stroke-linecap:square;stroke-width:.3;stroke:#231f20"/></g><g transform="translate(72,63.749)"><path d="m0 0h72" style="fill:none;stroke-linecap:square;stroke-width:.3;stroke:#231f20"/></g><g transform="translate(72 65.449)"><path d="m0 0h72" style="fill:none;stroke-linecap:square;stroke-width:.3;stroke:#231f20"/></g><g transform="translate(72 67.149)"><path d="m0 0h72" style="fill:none;stroke-linecap:square;stroke-width:.3;stroke:#231f20"/></g><g transform="translate(72 68.849)"><path d="m0 0h72" style="fill:none;stroke-linecap:square;stroke-width:.3;stroke:#231f20"/></g><g transform="translate(72 70.549)"><path d="m0 0h72" style="fill:none;stroke-linecap:square;stroke-width:.3;stroke:#231f20"/></g><g transform="translate(72,72.249)"><path d="m0 0h72" style="fill:none;stroke-linecap:square;stroke-width:.3;stroke:#231f20"/></g><g transform="translate(72 73.949)"><path d="m0 0h72" style="fill:none;stroke-linecap:square;stroke-width:.3;stroke:#231f20"/></g><g transform="translate(0 .8496)"><path d="m0 0h72" style="fill:none;stroke-linecap:square;stroke-width:.3;stroke:#231f20"/></g><g transform="translate(0,2.5498)"><path d="m0 0h72" style="fill:none;stroke-linecap:square;stroke-width:.3;stroke:#231f20"/></g><g transform="translate(0,4.25)"><path d="m0 0h72" style="fill:none;stroke-linecap:square;stroke-width:.3;stroke:#231f20"/></g><g transform="translate(0,5.9502)"><path d="m0 0h72" style="fill:none;stroke-linecap:square;stroke-width:.3;stroke:#231f20"/></g><g transform="translate(0,7.6504)"><path d="m0 0h72" style="fill:none;stroke-linecap:square;stroke-width:.3;stroke:#231f20"/></g><g transform="translate(0,9.3496)"><path d="m0 0h72" style="fill:none;stroke-linecap:square;stroke-width:.3;stroke:#231f20"/></g><g transform="translate(0 11.05)"><path d="m0 0h72" style="fill:none;stroke-linecap:square;stroke-width:.3;stroke:#231f20"/></g><g transform="translate(0,12.75)"><path d="m0 0h72" style="fill:none;stroke-linecap:square;stroke-width:.3;stroke:#231f20"/></g><g transform="translate(0 14.45)"><path d="m0 0h72" style="fill:none;stroke-linecap:square;stroke-width:.3;stroke:#231f20"/></g><g transform="translate(0 16.15)"><path d="m0 0h72" style="fill:none;stroke-linecap:square;stroke-width:.3;stroke:#231f20"/></g><g transform="translate(0 17.85)"><path d="m0 0h72" style="fill:none;stroke-linecap:square;stroke-width:.3;stroke:#231f20"/></g><g transform="translate(0 19.55)"><path d="m0 0h72" style="fill:none;stroke-linecap:square;stroke-width:.3;stroke:#231f20"/></g><g transform="translate(0,21.25)"><path d="m0 0h72" style="fill:none;stroke-linecap:square;stroke-width:.3;stroke:#231f20"/></g><g transform="translate(0 22.949)"><path d="m0 0h72" style="fill:none;stroke-linecap:square;stroke-width:.3;stroke:#231f20"/></g><g transform="translate(0 24.649)"><path d="m0 0h72" style="fill:none;stroke-linecap:square;stroke-width:.3;stroke:#231f20"/></g><g transform="translate(0 26.349)"><path d="m0 0h72" style="fill:none;stroke-linecap:square;stroke-width:.3;stroke:#231f20"/></g><g transform="translate(0 28.049)"><path d="m0 0h72" style="fill:none;stroke-linecap:square;stroke-width:.3;stroke:#231f20"/></g><g transform="translate(0,29.749)"><path d="m0 0h72" style="fill:none;stroke-linecap:square;stroke-width:.3;stroke:#231f20"/></g><g transform="translate(0 31.449)"><path d="m0 0h72" style="fill:none;stroke-linecap:square;stroke-width:.3;stroke:#231f20"/></g><g transform="translate(0 33.149)"><path d="m0 0h72" style="fill:none;stroke-linecap:square;stroke-width:.3;stroke:#231f20"/></g><g transform="translate(0 34.849)"><path d="m0 0h72" style="fill:none;stroke-linecap:square;stroke-width:.3;stroke:#231f20"/></g><g transform="translate(0 36.549)"><path d="m0 0h72" style="fill:none;stroke-linecap:square;stroke-width:.3;stroke:#231f20"/></g><g transform="translate(0,38.249)"><path d="m0 0h72" style="fill:none;stroke-linecap:square;stroke-width:.3;stroke:#231f20"/></g><g transform="translate(0 39.949)"><path d="m0 0h72" style="fill:none;stroke-linecap:square;stroke-width:.3;stroke:#231f20"/></g><g transform="translate(0 41.649)"><path d="m0 0h72" style="fill:none;stroke-linecap:square;stroke-width:.3;stroke:#231f20"/></g><g transform="translate(0 43.349)"><path d="m0 0h72" style="fill:none;stroke-linecap:square;stroke-width:.3;stroke:#231f20"/></g><g transform="translate(0 45.049)"><path d="m0 0h72" style="fill:none;stroke-linecap:square;stroke-width:.3;stroke:#231f20"/></g><g transform="translate(0,46.749)"><path d="m0 0h72" style="fill:none;stroke-linecap:square;stroke-width:.3;stroke:#231f20"/></g><g transform="translate(0 48.449)"><path d="m0 0h72" style="fill:none;stroke-linecap:square;stroke-width:.3;stroke:#231f20"/></g><g transform="translate(0 50.149)"><path d="m0 0h72" style="fill:none;stroke-linecap:square;stroke-width:.3;stroke:#231f20"/></g><g transform="translate(0 51.849)"><path d="m0 0h72" style="fill:none;stroke-linecap:square;stroke-width:.3;stroke:#231f20"/></g><g transform="translate(0 53.549)"><path d="m0 0h72" style="fill:none;stroke-linecap:square;stroke-width:.3;stroke:#231f20"/></g><g transform="translate(0,55.249)"><path d="m0 0h72" style="fill:none;stroke-linecap:square;stroke-width:.3;stroke:#231f20"/></g><g transform="translate(0 56.949)"><path d="m0 0h72" style="fill:none;stroke-linecap:square;stroke-width:.3;stroke:#231f20"/></g><g transform="translate(0 58.649)"><path d="m0 0h72" style="fill:none;stroke-linecap:square;stroke-width:.3;stroke:#231f20"/></g><g transform="translate(0 60.349)"><path d="m0 0h72" style="fill:none;stroke-linecap:square;stroke-width:.3;stroke:#231f20"/></g><g transform="translate(0 62.049)"><path d="m0 0h72" style="fill:none;stroke-linecap:square;stroke-width:.3;stroke:#231f20"/></g><g transform="translate(0,63.749)"><path d="m0 0h72" style="fill:none;stroke-linecap:square;stroke-width:.3;stroke:#231f20"/></g><g transform="translate(0 65.449)"><path d="m0 0h72" style="fill:none;stroke-linecap:square;stroke-width:.3;stroke:#231f20"/></g><g transform="translate(0 67.149)"><path d="m0 0h72" style="fill:none;stroke-linecap:square;stroke-width:.3;stroke:#231f20"/></g><g transform="translate(0 68.849)"><path d="m0 0h72" style="fill:none;stroke-linecap:square;stroke-width:.3;stroke:#231f20"/></g><g transform="translate(0 70.549)"><path d="m0 0h72" style="fill:none;stroke-linecap:square;stroke-width:.3;stroke:#231f20"/></g><g transform="translate(0,72.249)"><path d="m0 0h72" style="fill:none;stroke-linecap:square;stroke-width:.3;stroke:#231f20"/></g><g transform="translate(0 73.949)"><path d="m0 0h72" style="fill:none;stroke-linecap:square;stroke-width:.3;stroke:#231f20"/></g><g transform="translate(-72 .8496)"><path d="m0 0h72" style="fill:none;stroke-linecap:square;stroke-width:.3;stroke:#231f20"/></g><g transform="translate(-72,2.5498)"><path d="m0 0h72" style="fill:none;stroke-linecap:square;stroke-width:.3;stroke:#231f20"/></g><g transform="translate(-72,4.25)"><path d="m0 0h72" style="fill:none;stroke-linecap:square;stroke-width:.3;stroke:#231f20"/></g><g transform="translate(-72,5.9502)"><path d="m0 0h72" style="fill:none;stroke-linecap:square;stroke-width:.3;stroke:#231f20"/></g><g transform="translate(-72,7.6504)"><path d="m0 0h72" style="fill:none;stroke-linecap:square;stroke-width:.3;stroke:#231f20"/></g><g transform="translate(-72,9.3496)"><path d="m0 0h72" style="fill:none;stroke-linecap:square;stroke-width:.3;stroke:#231f20"/></g><g transform="translate(-72 11.05)"><path d="m0 0h72" style="fill:none;stroke-linecap:square;stroke-width:.3;stroke:#231f20"/></g><g transform="translate(-72,12.75)"><path d="m0 0h72" style="fill:none;stroke-linecap:square;stroke-width:.3;stroke:#231f20"/></g><g transform="translate(-72 14.45)"><path d="m0 0h72" style="fill:none;stroke-linecap:square;stroke-width:.3;stroke:#231f20"/></g><g transform="translate(-72 16.15)"><path d="m0 0h72" style="fill:none;stroke-linecap:square;stroke-width:.3;stroke:#231f20"/></g><g transform="translate(-72 17.85)"><path d="m0 0h72" style="fill:none;stroke-linecap:square;stroke-width:.3;stroke:#231f20"/></g><g transform="translate(-72 19.55)"><path d="m0 0h72" style="fill:none;stroke-linecap:square;stroke-width:.3;stroke:#231f20"/></g><g transform="translate(-72,21.25)"><path d="m0 0h72" style="fill:none;stroke-linecap:square;stroke-width:.3;stroke:#231f20"/></g><g transform="translate(-72 22.949)"><path d="m0 0h72" style="fill:none;stroke-linecap:square;stroke-width:.3;stroke:#231f20"/></g><g transform="translate(-72 24.649)"><path d="m0 0h72" style="fill:none;stroke-linecap:square;stroke-width:.3;stroke:#231f20"/></g><g transform="translate(-72 26.349)"><path d="m0 0h72" style="fill:none;stroke-linecap:square;stroke-width:.3;stroke:#231f20"/></g><g transform="translate(-72 28.049)"><path d="m0 0h72" style="fill:none;stroke-linecap:square;stroke-width:.3;stroke:#231f20"/></g><g transform="translate(-72,29.749)"><path d="m0 0h72" style="fill:none;stroke-linecap:square;stroke-width:.3;stroke:#231f20"/></g><g transform="translate(-72 31.449)"><path d="m0 0h72" style="fill:none;stroke-linecap:square;stroke-width:.3;stroke:#231f20"/></g><g transform="translate(-72 33.149)"><path d="m0 0h72" style="fill:none;stroke-linecap:square;stroke-width:.3;stroke:#231f20"/></g><g transform="translate(-72 34.849)"><path d="m0 0h72" style="fill:none;stroke-linecap:square;stroke-width:.3;stroke:#231f20"/></g><g transform="translate(-72 36.549)"><path d="m0 0h72" style="fill:none;stroke-linecap:square;stroke-width:.3;stroke:#231f20"/></g><g transform="translate(-72,38.249)"><path d="m0 0h72" style="fill:none;stroke-linecap:square;stroke-width:.3;stroke:#231f20"/></g><g transform="translate(-72 39.949)"><path d="m0 0h72" style="fill:none;stroke-linecap:square;stroke-width:.3;stroke:#231f20"/></g><g transform="translate(-72 41.649)"><path d="m0 0h72" style="fill:none;stroke-linecap:square;stroke-width:.3;stroke:#231f20"/></g><g transform="translate(-72 43.349)"><path d="m0 0h72" style="fill:none;stroke-linecap:square;stroke-width:.3;stroke:#231f20"/></g><g transform="translate(-72 45.049)"><path d="m0 0h72" style="fill:none;stroke-linecap:square;stroke-width:.3;stroke:#231f20"/></g><g transform="translate(-72,46.749)"><path d="m0 0h72" style="fill:none;stroke-linecap:square;stroke-width:.3;stroke:#231f20"/></g><g transform="translate(-72 48.449)"><path d="m0 0h72" style="fill:none;stroke-linecap:square;stroke-width:.3;stroke:#231f20"/></g><g transform="translate(-72 50.149)"><path d="m0 0h72" style="fill:none;stroke-linecap:square;stroke-width:.3;stroke:#231f20"/></g><g transform="translate(-72 51.849)"><path d="m0 0h72" style="fill:none;stroke-linecap:square;stroke-width:.3;stroke:#231f20"/></g><g transform="translate(-72 53.549)"><path d="m0 0h72" style="fill:none;stroke-linecap:square;stroke-width:.3;stroke:#231f20"/></g><g transform="translate(-72,55.249)"><path d="m0 0h72" style="fill:none;stroke-linecap:square;stroke-width:.3;stroke:#231f20"/></g><g transform="translate(-72 56.949)"><path d="m0 0h72" style="fill:none;stroke-linecap:square;stroke-width:.3;stroke:#231f20"/></g><g transform="translate(-72 58.649)"><path d="m0 0h72" style="fill:none;stroke-linecap:square;stroke-width:.3;stroke:#231f20"/></g><g transform="translate(-72 60.349)"><path d="m0 0h72" style="fill:none;stroke-linecap:square;stroke-width:.3;stroke:#231f20"/></g><g transform="translate(-72 62.049)"><path d="m0 0h72" style="fill:none;stroke-linecap:square;stroke-width:.3;stroke:#231f20"/></g><g transform="translate(-72,63.749)"><path d="m0 0h72" style="fill:none;stroke-linecap:square;stroke-width:.3;stroke:#231f20"/></g><g transform="translate(-72 65.449)"><path d="m0 0h72" style="fill:none;stroke-linecap:square;stroke-width:.3;stroke:#231f20"/></g><g transform="translate(-72 67.149)"><path d="m0 0h72" style="fill:none;stroke-linecap:square;stroke-width:.3;stroke:#231f20"/></g><g transform="translate(-72 68.849)"><path d="m0 0h72" style="fill:none;stroke-linecap:square;stroke-width:.3;stroke:#231f20"/></g><g transform="translate(-72 70.549)"><path d="m0 0h72" style="fill:none;stroke-linecap:square;stroke-width:.3;stroke:#231f20"/></g><g transform="translate(-72,72.249)"><path d="m0 0h72" style="fill:none;stroke-linecap:square;stroke-width:.3;stroke:#231f20"/></g><g transform="translate(-72 73.949)"><path d="m0 0h72" style="fill:none;stroke-linecap:square;stroke-width:.3;stroke:#231f20"/></g></pattern><clipPath id="clipPath246107"><path d="m590.47 987.72h175.39v-308.5h-175.39z"/></clipPath><clipPath id="clipPath246143"><path d="m656.84 1089.5h150.7v-108.68h-150.7z"/></clipPath><clipPath id="clipPath246159"><path d="m636.45 1163.2h19.206v-58.74h-19.206z"/></clipPath><clipPath id="clipPath246175"><path d="m806.36 1160.4h19.928v-64.82h-19.928z"/></clipPath><clipPath id="clipPath246203"><path d="m544.38 867.39h57.534v-31.877h-57.534z"/></clipPath><clipPath id="clipPath246207"><path d="m601.9 853.55c0.409-5.345-7.064-19.516-11.032-17.917l-42.887 13.806c-6.888-0.278-3.492 18.543 6.792 17.931z"/></clipPath><linearGradient id="linearGradient246217" x2="1" gradientTransform="matrix(-8.91 -25.509 -14.709 14.93 576.75 864.41)" gradientUnits="userSpaceOnUse"><stop style="stop-color:#fff" offset="0"/><stop style="stop-color:#fff;stop-opacity:0" offset="1"/></linearGradient><mask id="mask246219" x="0" y="0" width="1" height="1" maskUnits="userSpaceOnUse"><path d="m-32768 32767h65535v-65535h-65535z" style="fill:url(#linearGradient246217)"/></mask><linearGradient id="linearGradient246235" x2="1" gradientTransform="matrix(-8.91 -25.509 -14.709 14.93 576.75 864.41)" gradientUnits="userSpaceOnUse"><stop style="stop-color:#231f20" offset="0"/><stop style="stop-color:#231f20" offset="1"/></linearGradient><clipPath id="clipPath246261"><path d="m554.75 867.37h47.161v-31.862h-47.161z"/></clipPath><clipPath id="clipPath246289"><path d="m567.56 1171.2h80.718v-77.41h-80.718z"/></clipPath><clipPath id="clipPath246321"><path d="m856.94 870.9h57.535v-31.876h-57.535z"/></clipPath><clipPath id="clipPath246325"><path d="m856.96 857.07c-0.409-5.345 7.064-19.516 11.032-17.916l42.888 13.805c6.887-0.278 3.491 18.543-6.793 17.931z"/></clipPath><linearGradient id="linearGradient246335" x2="1" gradientTransform="matrix(8.91 -25.509 14.709 14.93 882.11 867.93)" gradientUnits="userSpaceOnUse"><stop style="stop-color:#fff" offset="0"/><stop style="stop-color:#fff;stop-opacity:0" offset="1"/></linearGradient><mask id="mask246337" x="0" y="0" width="1" height="1" maskUnits="userSpaceOnUse"><path d="m-32768 32767h65535v-65535h-65535z" style="fill:url(#linearGradient246335)"/></mask><linearGradient id="linearGradient246353" x2="1" gradientTransform="matrix(8.91 -25.509 14.709 14.93 882.11 867.93)" gradientUnits="userSpaceOnUse"><stop style="stop-color:#231f20" offset="0"/><stop style="stop-color:#231f20" offset="1"/></linearGradient><clipPath id="clipPath246379"><path d="m856.94 870.89h47.162v-31.861h-47.162z"/></clipPath><clipPath id="clipPath246407"><path d="m810.57 1174.8h80.718v-77.42h-80.718z"/></clipPath><clipPath id="clipPath246493"><path d="m469.16 2083.7h614.63v-607.78h-614.63z"/></clipPath><clipPath id="clipPath246549"><path d="m635.36 2074.1h308.78v-154.16h-308.78z"/></clipPath><clipPath id="clipPath246573"><path d="m858.52 1604.8c-37.232-0.176-79.6-29.776-79.6-52.564 0-10.026 2.27-25.842 11.711-33.585 14.558-11.942 46.986-9.59 64.25-7.037 38.93 5.757 58.553 31.88 59.502 47.552 1.371 22.628-18.477 45.635-55.439 45.635-0.141 0-0.283 0-0.424-1e-3"/></clipPath><clipPath id="clipPath246593"><path d="m0 2432.3h1438.4v-2432.3h-1438.4z"/></clipPath><clipPath id="clipPath246613"><path d="m524.84 1559.2c0.949-15.672 16.096-43.389 55.027-49.146 17.264-2.553 52.834 0.585 67.394 12.527 9.441 7.743 13.042 19.663 13.042 29.689 0 22.788-42.368 52.388-79.6 52.564-0.141 1e-3 -0.283 1e-3 -0.423 1e-3 -36.963 0-56.811-23.007-55.44-45.635"/></clipPath><clipPath id="clipPath246633"><path d="m0 2432.3h1438.4v-2432.3h-1438.4z"/></clipPath><clipPath id="clipPath246653"><path d="m640.42 1418.1h207.84v-132.44h-207.84z"/></clipPath><clipPath id="clipPath246689"><path d="m639.52 1422.1h211.25v-100.2h-211.25z"/></clipPath><clipPath id="clipPath246717"><path d="m485.9 1527.9h469.93v-71.83h-469.93z"/></clipPath><clipPath id="clipPath246733"><path d="m750.48 1531.4h201.58v-60.81h-201.58z"/></clipPath><clipPath id="clipPath246753"><path d="m797.07 1522.3h98.651v-47.14h-98.651z"/></clipPath><clipPath id="clipPath246769"><path d="m490.77 1522.4h202.38v-54.48h-202.38z"/></clipPath><clipPath id="clipPath246789"><path d="m546.28 1514.7h84.851v-42.89h-84.851z"/></clipPath></defs><g transform="translate(52.994 185.1)"><g transform="matrix(.35278 0 0 -.35278 -176.61 555.95)"><g clip-path="url(#clipPath245429)"><g clip-path="url(#clipPath245437)" style="opacity:.2"></g><g transform="translate(1061.7 281.57)"><path d="m0 0s9.691-11.758 9.838-19.069c0.146-7.312-19.618-18.056-38.56-16.474s-30.234 13.13-27.768 19.156c2.465 6.025 4.3 16.855 4.3 16.855z" style="fill:#58595b"/></g><g transform="translate(1061.7 281.57)"><path d="m0 0s-17.127 31.143-32.614 25.034-19.576-24.566-19.576-24.566 8.469-8.66 25.493-8.051c17.025 0.61 26.697 7.583 26.697 7.583" style="fill:#efc7b0"/></g><g transform="translate(1012.2 265.35)"><path d="m0 0c0.037-0.356 0.099-0.726 0.315-1.011 0.25-0.33 0.661-0.489 1.051-0.631 1.887-0.683 3.792-1.319 5.711-1.908 0.428 1.73 0.966 3.432 1.608 5.094-2.714 0.989-5.286 2.364-7.615 4.072-0.891-1.715-1.268-3.693-1.07-5.616m11.362 0.523c-0.595-1.578-1.189-3.155-1.784-4.733 1.883-0.273 3.766-0.546 5.649-0.819 0.224 1.58 2.177 2.613 2.4 4.193-1.511 0.27-4.753 1.088-6.265 1.359m9.555-2.222c-0.796-1.149-1.494-2.374-2.1-3.646 11.007-1.027 22.308 1.169 32.087 6.332-9.454-1.663-19.753-3.805-29.987-2.686" style="fill:#929497"/></g><g clip-path="url(#clipPath245465)" style="opacity:.3"><g transform="translate(1069.4 268.41)"><path d="m0 0c-1.018 1.786-2.036 3.573-3.055 5.359-6.309 11.071-12.966 22.527-23.478 29.73 5.351-5.782 9.604-12.578 12.464-19.919 0.179-0.46 0.356-0.954 0.255-1.437-0.119-0.573-0.598-0.993-1.064-1.346-4.036-3.054-9.133-4.347-14.151-5.011-7.597-1.005-15.362-0.727-22.867 0.819 12.651-4.859 26.751-3.189 40.187-1.418 2.177-1.672 4.385-3.377 5.999-5.597 1.615-2.22 2.581-5.068 1.95-7.739-0.808-3.417-3.943-5.742-7.043-7.392-15.741-8.381-36.416-6.378-50.255 4.869 2.688-5.629 8.218-9.55 14.183-11.379 5.964-1.829 12.352-1.771 18.552-1.072 10.151 1.144 20.527 4.203 27.923 11.251 0.871 0.829 1.715 1.742 2.131 2.87 0.909 2.462-0.431 5.132-1.731 7.412" style="fill:#231f20"/></g></g><g transform="translate(709.8 863.21)"><path d="m0 0s-0.593-31.644 53.003-127.62c53.597-95.972 121.17-173.44 121.17-173.44s32.693-7.83 31.348 4.858c-1.345 12.687-29.22 118-48.928 164.27s-46.437 140.16-83.604 141.64c-37.167 1.489-72.989-9.71-72.989-9.71" style="fill:#efc7b0"/></g><g transform="translate(749.77 853.15)"><path d="m0 0c-4.447-34.274 8.31-45.206 22.565-76.69 17.515-38.686 38.796-75.531 60.038-112.3 16.55-28.647 54.443-107.58 52.155-104.96-70.458 80.736-124.21 170.69-156.71 266.5-7.836 23.099-0.731 4.777 1.597 29.057 10.151-4.754 10.205 3.144 20.357-1.61" style="fill:#e4b69d"/></g><g transform="translate(896.53 598.16)"><path d="m0 0s52.363-22.471 76.22-97.208 66.222-204.15 66.222-204.15l-7.45-5.919s-38.42 70.211-80.159 136.36c-16.639 26.371-37.429 51.731-50.985 76.478-15.823 35.162-31.51 74.76-29.519 79.893 6.058 15.624 25.671 14.548 25.671 14.548" style="fill:#efc7b0"/></g><g transform="translate(995.29 353.42)"><path d="m0 0c-36.611 66.976-77.326 137.44-113.94 204.42 11.344-7.26 15.801 1.564 22.836-5.08 10.399-9.821 70.959-143.98 91.101-199.34" style="fill:#e4b69d"/></g><g transform="translate(595.24 892.56)"><path d="m0 0s-9.311-30.249 15.694-137.29c25.004-107.04 75.723-212.23 75.723-212.23s29.491-8.085 31.703 4.48c2.211 12.565-2.897 125.07-9.059 174.98-6.161 49.914-5.919 147.53-41.229 159.22s-72.832 10.827-72.832 10.827" style="fill:#efc7b0"/></g><g transform="translate(624.5 891.06)"><path d="m0 0c-13.74-31.712-4.499-45.742 0.505-79.939 6.149-42.019 16.425-83.308 26.684-124.52 7.993-32.104 28.069-116.83 26.594-113.68-45.418 97.056-77.687 196.76-82.464 297.82-1.151 24.364 0.617 4.792 9.561 27.485 8.443-7.373 10.676 0.203 19.12-7.17" style="fill:#e4b69d"/></g><g transform="translate(689.36 589.08)"><path d="m0 0s-30.8-47.94-8.714-123.22c22.085-75.28 59.454-206.22 59.454-206.22l9.486-0.731s-19.907 327.06-33.675 336.62c-13.769 9.552-26.551-6.441-26.551-6.441" style="fill:#efc7b0"/></g><g transform="translate(729.07 307.28)"><path d="m0 0c-7.173 75.992-15.533 153.45-22.706 229.45-7.69-0.453-14.937 2.39-20.913 14.938-2.941 6.176-8.754-29.535-8.442-53.922 0.184-14.302 37.749-133.32 52.061-190.46" style="fill:#e4b69d"/></g><g transform="translate(710.57 253.44)"><path d="m0 0s-9.691-11.758-9.838-19.069c-0.146-7.312 19.618-18.056 38.56-16.474s30.234 13.13 27.768 19.156c-2.465 6.025-4.3 16.855-4.3 16.855z" style="fill:#58595b"/></g><g transform="translate(710.57 253.44)"><path d="m0 0s17.127 31.143 32.614 25.034 19.576-24.566 19.576-24.566-8.469-8.66-25.494-8.051c-17.024 0.61-26.696 7.583-26.696 7.583" style="fill:#efc7b0"/></g><g transform="translate(759.02 242.84)"><path d="m0 0c-2.329-1.709-4.901-3.084-7.615-4.072 0.642-1.662 1.18-3.364 1.608-5.094 1.92 0.588 3.824 1.225 5.711 1.908 0.39 0.142 0.801 0.301 1.051 0.631 0.216 0.285 0.279 0.655 0.315 1.011 0.198 1.922-0.179 3.901-1.07 5.616m-16.557-6.452c0.223-1.58 2.176-2.613 2.4-4.193 1.883 0.273 3.766 0.546 5.649 0.819-0.595 1.578-1.189 3.155-1.784 4.733-1.512-0.271-4.754-1.089-6.265-1.359m-33.277 1.823c9.779-5.163 21.08-7.359 32.087-6.332-0.606 1.272-1.304 2.497-2.1 3.646-10.234-1.119-20.533 1.023-29.987 2.686" style="fill:#929497"/></g><g clip-path="url(#clipPath245525)" style="opacity:.3"><g transform="translate(702.86 240.28)"><path d="m0 0c1.018 1.786 2.036 3.573 3.055 5.359 6.309 11.071 12.966 22.527 23.478 29.73-5.352-5.782-9.604-12.578-12.464-19.919-0.18-0.46-0.356-0.954-0.255-1.437 0.119-0.573 0.597-0.993 1.064-1.346 4.035-3.054 9.133-4.347 14.151-5.011 7.597-1.005 15.362-0.727 22.867 0.819-12.651-4.859-26.751-3.189-40.187-1.418-2.177-1.672-4.385-3.377-5.999-5.597-1.615-2.22-2.581-5.068-1.95-7.739 0.808-3.417 3.943-5.742 7.043-7.392 15.741-8.381 36.416-6.378 50.255 4.869-2.688-5.629-8.219-9.55-14.183-11.379s-12.352-1.771-18.552-1.072c-10.152 1.144-20.527 4.203-27.924 11.251-0.87 0.829-1.714 1.742-2.13 2.87-0.909 2.462 0.431 5.132 1.731 7.412" style="fill:#231f20"/></g></g><g clip-path="url(#clipPath245541)" style="opacity:.2"><g transform="translate(638.71 661.66)"><path d="m0 0s25.2-8.791 40.437-6.446c15.236 2.344 35.162 9.376 35.162 9.376l0.586 5.275s77.943 11.134 79.701 11.72 5.86-9.376 5.86-9.376l4.688-7.619s28.13 4.102 38.679 15.823c10.548 11.721 27.544 30.474 27.544 30.474l-239.1-26.958z" style="fill:#231f20"/></g></g><g transform="translate(693.26 970.84)"><path d="m0 0s-38.678-22.855-69.445-52.743-36.578-55.289-36.921-58.897c-7.957-83.851 30.721-177.03 30.721-177.03s38.305-17.931 130.98-11.427c100.21 7.032 125.7 43.073 125.7 43.073l-27.251 87.906s-3.067 82.982-7.911 93.18c-16.702 35.162-77.311 79.455-86.98 80.334-9.67 0.879-58.897-4.395-58.897-4.395" style="fill:#6d6e70"/></g><g clip-path="url(#clipPath245561)" style="opacity:.3"><g transform="translate(693.26 970.84)"><path d="m0 0s-38.678-22.855-69.445-52.743-36.578-55.289-36.921-58.897c-7.957-83.851 30.721-177.03 30.721-177.03s38.305-17.931 130.98-11.427c100.21 7.032 125.7 43.073 125.7 43.073l-27.251 87.906s-3.067 82.982-7.911 93.18c-16.702 35.162-77.311 79.455-86.98 80.334-9.67 0.879-58.897-4.395-58.897-4.395" style="fill:url(#pattern246091)"/></g></g><g clip-path="url(#clipPath246107)" style="opacity:.2"><g transform="translate(765.86 968.13)"><path d="m0 0c-0.541 0.476-1.489-0.473-1.011-1.014 3.266-3.698-3.828-8.645-8.309-10.71-18.685-8.613-40.164-11.03-60.296-6.783-3.442 0.726-7.063 1.635-10.407 0.542-2.813-0.919-4.987-3.121-7.044-5.249l-35.457-36.675c-7.768-8.035-15.666-16.253-20.536-26.312-7.066-14.595-10.323-46.416-9.876-62.625 1.442-52.241 2.027-88.321 9.377-140.06-8.359-1.635-39.851 123.65-29.912 182.84 0.915 5.452 0.157 11.19 2.131 16.354 1.467 3.838 3.898 7.222 6.368 10.505 23.845 31.692 54.016 58.603 88.216 78.684-0.101 2.581-0.203 5.162-0.304 7.743 2.441 2.111 5.952 2.913 9.067 2.07-1.688 3.174-1.534 7.249 0.39 10.287 7.021-2.887 14.041-5.773 21.061-8.66-7.627-1.035-9.471-12.658-4.165-18.233 5.305-5.576 14.007-6.124 21.625-5.028 9.521 1.368 20.916 7.245 29.082 12.327" style="fill:#231f20"/></g></g><g transform="translate(852.18 701.66)"><path d="m0 0 18.46 14.065s-21.849 63.597-21.537 71.936c1.53 40.811-1.846 93.415-7.472 106.07-4.783 10.762-48.348 52.743-73.882 70.729-9.605-10.596-25.527-13.142-39.469-16.327 32.818 0 74.673-29.349 102.1-78.099 3.216-5.718 6.765-47.581 10.621-88.359 2.446-25.872 11.182-80.018 11.182-80.018" style="fill:#808184"/></g><g transform="translate(767.32 974.14)"><path d="m0 0c0-10.205-17.111-20.27-38.239-20.27-21.127 0-37.18 9.022-38.239 19.171-2.181 20.913 16.892 22.636 38.019 22.636 21.128 0 38.459-1.758 38.459-21.537" style="fill:#404041"/></g><g transform="translate(764.46 984.47)"><path d="m0 0c0-7.282-17.055-12.307-35.382-12.307s-35.602 5.684-35.602 12.966c0 7.283 17.055 12.527 35.382 12.527s35.602-5.904 35.602-13.186" style="fill:#6d6e70"/></g><g transform="translate(730.18 1184.5)"><path d="m0 0c-54.851 0.505-109.87-13.223-110.76-23.734-1.758-20.805 20.218-37.8 22.855-43.074 2.638-5.275 2.345-21.098 10.549-36.041 3.901-7.105 19.339-22.856 19.339-22.856s14.249-48.439 26.372-69.445c0.111-4.598 10.549-11.135 22.772-10.562 11.578-1.648 29.131 0.931 33.488 5.287 10.548 3.517 33.404 74.72 33.404 74.72s15.54 15.696 19.339 22.856c7.618 14.357 7.911 30.766 10.549 36.041 2.637 5.274 25.199 24.613 22.855 43.074-1.329 10.464-55.91 24.239-110.76 23.734" style="fill:#e6e7e8"/></g><g transform="translate(725.84 1098.1)"><path d="m0 0c15.005 0.618 29.462-5.145 44.293-7.506 10.46-1.665 23.264-0.522 28.524 8.672 6.893 12.049-4.473 28.377 1.789 40.766 2.263 4.478 6.477 7.582 9.854 11.293s6.066 8.935 4.292 13.629c-1.016 2.69-3.321 4.672-5.685 6.309-6.514 4.51-14.196 7.319-22.083 8.074-6.191 0.593-13.999-1.295-15.341-7.367-0.752-3.405 0.91-6.806 1.981-10.125 6.184-19.167-9.178-40.545-28.611-45.833-19.434-5.289-40.437 2.293-56.521 14.415-5.582 4.207-10.869 9.103-14.019 15.343-3.151 6.24-3.857 14.048-0.404 20.126 1.152 2.026 2.794 4.228 2.054 6.438-0.314 0.938-1.032 1.693-1.832 2.274-4.809 3.492-12.851-0.109-13.447-6.022-0.677-6.7 6.508-12.663 4.937-19.211-0.618-2.576-2.501-4.624-4.201-6.656-9.949-11.898-15.079-30.52-5.28-42.542 7.725-9.479 21.697-11.128 33.773-9.211 12.077 1.917 23.71 6.631 35.927 7.134" style="fill:#f1f1f2"/></g><g clip-path="url(#clipPath246143)" style="opacity:.5"><g transform="translate(698.12 1035.6)"><path d="m0 0c0.064-11.471 0.565-23.332 5.547-33.665 4.983-10.333 15.593-18.79 27.019-17.77-8.283-5.725-20.201-3.718-28.059 2.578-7.857 6.296-12.275 15.96-14.974 25.66s-3.957 19.773-6.971 29.38c-4.455 14.205-12.78 27.175-23.838 37.14 11.11-6.459 25.074-4.841 37.524-1.652s24.952 7.791 37.755 6.668c13.406-1.176 25.541-8.521 38.805-10.795 13.263-2.273 35.123 2.952 36.612 16.327-0.276-11.299-9.774-21.657-17.469-29.935-1.469-1.58-3.16-3.12-5.267-3.584-2.183-0.481-4.425 0.27-6.551 0.96-19.577 6.359-40.589 8.253-60.988 5.499-4.106-0.554-8.351-1.361-11.689-3.816-6.752-4.967-7.503-14.613-7.456-22.995" style="fill:#bbbdbf"/></g></g><g clip-path="url(#clipPath246159)" style="opacity:.5"><g transform="translate(645.94 1125.8)"><path d="m0 0c-0.423-7.221-2.669-15.034 0.943-21.3-1.017 11.662 1.13 23.584 6.151 34.159 1.224 2.578 2.649 5.213 2.621 8.067-0.037 3.659-2.47 6.867-5.208 9.294-3.97 3.518-8.829 6.025-13.997 7.222 6.142-5.589 7.536-14.566 8.564-22.806 0.605-4.858 1.212-9.749 0.926-14.636" style="fill:#c2c3c4"/></g></g><g clip-path="url(#clipPath246175)" style="opacity:.5"><g transform="translate(806.36 1136.7)"><path d="m0 0c0.082 11.206 8.907 21.728 19.927 23.761-4.965-11.284-12.465-16.422-13.478-28.709-0.84-10.172 3.315-27.853-2.694-36.104 3.947 5.871 3.131 13.708 1.159 20.502s-4.966 13.476-4.914 20.55" style="fill:#c2c3c4"/></g></g><g transform="translate(579.94 889.7)"><path d="m0 0s-95.253 46.911-98.189 126.37c-1.418 38.384 104.18 109.24 104.18 109.24" style="fill:none;stroke-miterlimit:10;stroke-width:30.417;stroke:#efc7b0"/></g><g transform="translate(576.72 879.7)"><path d="m0 0s-106.51 46.925-103.65 138.58c1.553 49.799 112.54 118.67 112.54 118.67" style="fill:none;stroke-miterlimit:10;stroke-width:11.406;stroke:#e4b69d"/></g><g transform="translate(601.9 853.55)"><path d="m0 0c0.409-5.345-7.064-19.516-11.032-17.917l-42.888 13.806c-6.887-0.278-3.491 18.543 6.793 17.931z" style="fill:#efc7b0"/></g><g clip-path="url(#clipPath246203)" style="opacity:.5"><g clip-path="url(#clipPath246207)"><g mask="url(#mask246219)"><path d="m601.9 853.55c0.409-5.345-7.064-19.516-11.032-17.917l-42.887 13.806c-6.888-0.278-3.492 18.543 6.792 17.931z" style="fill:url(#linearGradient246235)"/></g></g></g><g clip-path="url(#clipPath246261)" style="opacity:.3"><g transform="translate(554.77 867.37)"><path d="m0 0c-0.637 0.038 15.5-13.684 24.846-19.091 4.73-2.737 8.945-7.369 10.995-12.564l0.254-0.082c3.968-1.599 11.441 12.572 11.032 17.917z" style="fill:#231f20"/></g></g><g transform="translate(571.83 927.87)"><path d="m0 0s17.425 10.335 28.823 3.74c3.197-1.85 4.132-8.599 6.434-10.005 6.12-3.738 33.265-11.098 27.213-23.194-10.073-20.131-32.255-59.854-42.165-62.789-1.936-0.574-0.224 7.932-1.897 8.828-10.235 5.482-47.247 23.225-41.71 39.922 3.05 9.2 23.302 43.498 23.302 43.498" style="fill:#efc7b0"/></g><g transform="translate(551.37 889.64)"><path d="m0 0s0.359-11.219 11.42-18.149c9.064-5.679 18.452-18.694 33.728-21.49 1.04-0.19 5.739 1.549 21.682 25.701 6.798 10.298 15.361 24.036 15.789 27.952 0.236 2.166 0.712-4.613 0.735-4.692 0.635-2.207-18.744-34.51-31.111-52.181-4.727-6.754-10.923-10.978-11.48-11.164-2.017-0.671 0.907 9.59-0.902 10.573-1.809 0.982-17.227 5.497-26.841 13.255-9.614 7.757-17.521 19.081-16.331 21.2 1.189 2.12 3.311 8.995 3.311 8.995" style="fill:#e4b69d"/></g><g transform="translate(642.77 1147.5)"><path d="m0 0c-0.923 20.056-17.427 36.045-37.711 36.045-20.876 0-37.799-16.923-37.799-37.799 0-7.076 1.98-13.673 5.363-19.336 0.923-20.055 17.427-36.045 37.711-36.045 20.876 0 37.799 16.924 37.799 37.8 0 7.075-1.98 13.673-5.363 19.335" style="fill:#e6e7e8"/></g><g clip-path="url(#clipPath246289)" style="opacity:.5"><g transform="translate(590.33 1160.8)"><path d="m0 0c-5.437-7.53-9.82-16.22-10.19-25.5-0.371-9.281 4.021-19.159 12.352-23.266 3.778-1.862 8.047-2.444 12.242-2.829 7.777-0.714 15.998-0.754 22.924 2.855 6.255 3.259 10.894 9.46 12.256 16.38 1.361 6.92-0.584 14.416-5.137 19.801 0.878-1.132 2.47-1.656 3.849-1.265-0.143 8.808-3.411 17.535-9.09 24.27 7.697-7.737 14.039-17.063 17-27.567s2.297-22.254-3.102-31.738c-5.832-10.243-17.045-17.126-28.798-18.01s-23.737 4.136-31.596 12.919c-7.07 7.902-10.703 18.247-13.558 28.458-0.898 3.216-1.742 6.478-1.894 9.813-0.428 9.416 4.688 18.243 10.889 25.341-6.513-5.783-8.828-15.82-5.508-23.872 1.9 7.796 9.343 13.888 17.361 14.21" style="fill:#bbbdbf"/></g></g><g transform="translate(627.89 1134.1)"><path d="m0 0c3.439 3.819 4.292 9.563 2.795 14.479-1.496 4.917-5.099 9.016-9.403 11.824 4.402-0.948 8.597-2.845 12.216-5.525 1.567 7.969-4.085 15.755-10.889 20.191-8.195 5.344-18.677 7.395-28.066 4.646-9.389-2.75-17.345-10.555-19.435-20.112 8.43 7.236 20.578 9.882 31.255 6.806-5.782-2.178-11.04-5.734-15.214-10.289-2.689-2.935-5.019-6.543-5.037-10.523-0.02-4.283 2.717-8.218 6.236-10.66 3.518-2.442 7.744-3.622 11.921-4.572 8.167-1.857 18.016-2.49 23.621 3.735" style="fill:#f1f1f2"/></g><g transform="translate(878.91 893.22)"><path d="m0 0s95.253 46.911 98.189 126.37c1.418 38.384-104.18 109.24-104.18 109.24" style="fill:none;stroke-miterlimit:10;stroke-width:30.417;stroke:#efc7b0"/></g><g transform="translate(882.13 883.21)"><path d="m0 0s106.51 46.925 103.65 138.58c-1.553 49.799-112.54 118.67-112.54 118.67" style="fill:none;stroke-miterlimit:10;stroke-width:11.406;stroke:#e4b69d"/></g><g transform="translate(856.96 857.07)"><path d="m0 0c-0.409-5.345 7.064-19.516 11.032-17.917l42.888 13.806c6.887-0.279 3.491 18.543-6.793 17.931z" style="fill:#efc7b0"/></g><g clip-path="url(#clipPath246321)" style="opacity:.5"><g clip-path="url(#clipPath246325)"><g mask="url(#mask246337)"><path d="m856.96 857.07c-0.409-5.345 7.064-19.516 11.032-17.916l42.888 13.805c6.887-0.278 3.491 18.543-6.793 17.931z" style="fill:url(#linearGradient246353)"/></g></g></g><g clip-path="url(#clipPath246379)" style="opacity:.3"><g transform="translate(904.08 870.89)"><path d="m0 0c0.637 0.038-15.5-13.684-24.846-19.091-4.73-2.737-8.945-7.37-10.995-12.564l-0.254-0.082c-3.968-1.599-11.441 12.571-11.032 17.917z" style="fill:#231f20"/></g></g><g transform="translate(887.02 931.39)"><path d="m0 0s-17.425 10.335-28.823 3.74c-3.197-1.85-4.132-8.599-6.434-10.005-6.12-3.738-33.265-11.098-27.213-23.194 10.073-20.132 32.255-59.854 42.165-62.789 1.936-0.574 0.224 7.932 1.897 8.828 10.235 5.482 47.247 23.225 41.71 39.922-3.05 9.2-23.302 43.498-23.302 43.498" style="fill:#efc7b0"/></g><g transform="translate(907.48 893.16)"><path d="m0 0s-0.359-11.219-11.42-18.149c-9.064-5.679-18.452-18.694-33.728-21.49-1.04-0.19-5.739 1.549-21.682 25.701-6.798 10.298-15.361 24.036-15.789 27.952-0.236 2.166-0.712-4.613-0.735-4.692-0.635-2.207 18.744-34.51 31.111-52.181 4.727-6.754 10.923-10.978 11.48-11.164 2.017-0.671-0.907 9.59 0.902 10.573 1.809 0.982 17.227 5.497 26.841 13.255 9.614 7.757 17.521 19.081 16.331 21.2-1.189 2.12-3.311 8.995-3.311 8.995" style="fill:#e4b69d"/></g><g transform="translate(816.08 1151)"><path d="m0 0c0.923 20.056 17.427 36.045 37.711 36.045 20.876 0 37.799-16.923 37.799-37.799 0-7.076-1.98-13.673-5.363-19.336-0.923-20.055-17.427-36.045-37.711-36.045-20.876 0-37.799 16.924-37.799 37.8 0 7.075 1.98 13.673 5.363 19.335" style="fill:#e6e7e8"/></g><g clip-path="url(#clipPath246407)" style="opacity:.5"><g transform="translate(868.52 1164.3)"><path d="m0 0c5.437-7.53 9.82-16.22 10.19-25.5 0.371-9.281-4.021-19.159-12.352-23.266-3.778-1.862-8.047-2.444-12.242-2.829-7.777-0.714-15.998-0.754-22.924 2.855-6.255 3.259-10.894 9.46-12.256 16.38-1.361 6.92 0.584 14.416 5.137 19.801-0.878-1.132-2.47-1.656-3.849-1.265 0.143 8.808 3.411 17.535 9.09 24.27-7.697-7.737-14.039-17.063-17-27.567s-2.297-22.254 3.102-31.738c5.832-10.243 17.045-17.126 28.798-18.01s23.737 4.136 31.596 12.919c7.07 7.902 10.703 18.247 13.558 28.458 0.898 3.216 1.742 6.478 1.894 9.813 0.428 9.416-4.688 18.243-10.889 25.341 6.513-5.783 8.828-15.82 5.508-23.872-1.9 7.796-9.343 13.888-17.361 14.21" style="fill:#bbbdbf"/></g></g><g transform="translate(830.96 1137.6)"><path d="m0 0c-3.439 3.819-4.292 9.563-2.795 14.479 1.496 4.917 5.099 9.016 9.403 11.824-4.402-0.948-8.597-2.845-12.216-5.525-1.567 7.969 4.085 15.755 10.889 20.191 8.195 5.344 18.677 7.395 28.066 4.646 9.389-2.75 17.345-10.555 19.435-20.112-8.43 7.236-20.578 9.882-31.255 6.806 5.782-2.178 11.04-5.734 15.214-10.289 2.689-2.935 5.019-6.543 5.037-10.523 0.02-4.283-2.717-8.218-6.236-10.66-3.518-2.442-7.744-3.622-11.921-4.572-8.167-1.857-18.016-2.49-23.621 3.735" style="fill:#f1f1f2"/></g><path d="m753.04 1166.9h-54.501v112.52h54.501z" style="fill:#efc7b0"/><g transform="translate(697.98 1266.1)"><path d="m0 0c18.035 2.761 36.394 3.402 54.578 1.906 0.74-10.913 0.307-21.905-1.291-32.726-17.387-5.095-35.985-1.067-53.645 2.977 0.691 9.262 0.811 18.567 0.358 27.843" style="fill:#d6ab93"/></g><g transform="translate(772.38 1160.4)"><path d="m0 0c0-19.258-24.21-44.539-43.953-44.539s-49.813 23.523-49.813 42.781 27.14 22.855 46.883 22.855 46.883-1.839 46.883-21.097" style="fill:#efc7b0"/></g><g transform="translate(697.66 1179.6)"><path d="m0 0c-15.383-4.835-27.69-22.855-10.988-39.997 3.825-3.926 23.621-21.754 27.251-20.658-6.856 1.544-34.025 27.619-30.767 39.997 0.741 2.819 2.635 5.037 4.818 6.738 4.285 3.34 9.686 4.69 9.686 4.69s0.269 9.315 0 9.23" style="fill:#d6ab93"/></g><g transform="translate(714.36 1130.4)"><path d="m0 0c5.267-2.094 7.606-8.195 9.23-13.625 28.13-6.154 58.018 34.722 45.711 54.062-3.268 5.135-10.76 5.175-15.903 8.431-0.903-3.907 0.983-6.722 0.08-10.629 6.302 0.166 9.203-5.942 11.06-11.967 1.856-6.025 0.408-12.691-2.609-18.227-3.016-5.536-7.477-10.129-11.984-14.537-5.167-5.054-12.24-7.258-19.322-5.815-0.887 3.738 6.593 10.914 8.79 14.065-2.275-1.649-8.782-8.807-12.746-9.23-4.423-0.472-9.787 9.338-12.307 7.472" style="fill:#d6ab93"/></g><g transform="translate(713.92 1152.8)"><path d="m0 0-32.086 2.198 2.198 7.032z" style="fill:#d6ab93"/></g><g transform="translate(764.9 1159.8)"><path d="m0 0-26.811-7.032 28.569-3.077z" style="fill:#d6ab93"/></g><g transform="translate(715.24 1154.3)"><path d="m0 0c-0.056-0.302-0.126-0.625-0.35-0.836-0.326-0.306-0.837-0.258-1.279-0.19-5.102 0.783-10.312 1.601-14.879 4.006-3.177 1.674-6.005 4.099-9.453 5.104 8.095-0.225 16.191-0.449 24.286-0.674 0.485-0.014 0.993-0.034 1.414-0.276 0.958-0.552 0.991-1.902 0.87-3-0.151-1.385-0.354-2.764-0.609-4.134" style="fill:#f1dbcb"/></g><g transform="translate(760.92 1161)"><path d="m0 0c-5.496 0.415-10.992 0.831-16.488 1.246-2.169 0.164-4.403 0.346-6.342 1.332-1.688-3.685-2.747-7.657-3.117-11.693 8.911 2.209 17.612 5.266 25.947 9.115" style="fill:#f1dbcb"/></g><g transform="translate(688.82 1143)"><path d="m0 0c3.088-0.382 6.218-0.774 9.102-1.944 3.855-1.563 7.025-4.41 10.109-7.201 2.962-2.681 5.923-5.362 8.884-8.043 2.704-2.448 5.544-5.119 6.39-8.666-2.564-1.466-5.799-0.466-8.483 0.768-10.089 4.64-18.761 12.31-24.598 21.758-0.638 1.032-1.256 2.123-1.404 3.328" style="fill:#f1dbcb"/></g><g transform="translate(747.21 1121.6)"><path d="m0 0c-1.272-0.886-2.637-1.674-4.133-2.082-1.077-0.294-2.199-0.384-3.312-0.474l-5.88-0.471c4.006 9.354 11.948 16.947 21.473 20.527 0.976 0.367 2.009 0.698 3.042 0.566 1.034-0.132 2.063-0.855 2.219-1.886 0.143-0.945-0.449-1.829-1.012-2.602-3.624-4.98-7.344-10.057-12.397-13.578" style="fill:#f1dbcb"/></g><g transform="translate(516.86 1525.5)"><path d="m0 0c0-35.926-16.53-65.05-36.92-65.05-20.391 0-36.921 29.124-36.921 65.05s16.53 65.05 36.921 65.05c20.39 0 36.92-29.124 36.92-65.05" style="fill:#efc7b0"/></g><g transform="translate(993.9 1532.6)"><path d="m0 0c0-35.926-16.53-65.05-36.92-65.05-20.391 0-36.921 29.124-36.921 65.05s16.53 65.05 36.921 65.05c20.39 0 36.92-29.124 36.92-65.05" style="fill:#efc7b0"/></g><g transform="translate(959.57 1512.9)"><path d="m0 0c-2.151-125.17-152.97-261.19-239.96-263.08-69.469-1.513-243.52 119.96-243.52 268.36 0 148.4-54.683 467.12 210.39 469.46 321.72 2.845 275.64-326.36 273.09-474.74" style="fill:#efc7b0"/></g><g transform="translate(686.48 1987.6)"><path d="m0 0c-75.157-0.664-124.59-26.779-156.87-67.218 31.111 24.725 73.165 39.759 129.91 40.261 321.72 2.845 275.64-326.36 273.09-474.74-1-58.146-34.09-118.63-77.954-166.92 56.574 51.384 103.72 124.3 104.91 193.88 2.55 148.38 48.624 477.58-273.09 474.74" style="fill:#f1dbcb"/></g><g transform="translate(736.02 1259.2)"><path d="m0 0c-69.469-1.512-243.52 119.96-243.52 268.36 0 120.75-36.194 354.27 93.132 438.35-148.69-74.53-109.54-322.12-109.54-447.73 0-148.4 174.05-269.87 243.52-268.36 24.242 0.527 53.442 11.482 83.001 29.707-23.828-12.547-46.855-19.901-66.592-20.331" style="fill:#e4b094"/></g><g transform="translate(478.33 1534.8)"><path d="m0 0s0.643 8.226 0.907 13.82c1.341 28.364 13.296 88.888 25.904 125.51 18.46 53.623 52.743 85.269 50.106 91.422s-42.194 123.07-93.18 167.02c-21.677 18.687-35.162 10.548-46.589-4.396-11.428-14.944-55.088-146.8-58.604-166.73-8.844-50.113-9.377-106.66 3.204-118.09z" style="fill:#ab6923"/></g><g clip-path="url(#clipPath246493)" style="opacity:.3"><g transform="translate(469.16 1903.3)"><path d="m0 0s33.783-58.502 40.226-73.709c6.444-15.208 38.676-68.371 38.676-68.371s29.508-32.823 74.045-18.728 106.33 19.598 106.33 19.598 47.041-34.389 54.638-42.603c6.063-6.557 155.23-124.83 195.34-239 6.643-18.909 8.125 27.834 8.125 27.834l2.261 87.884 94.952 118.57s1.071 94.969-10.834 127.98c-11.906 33.015-14.061 45.415-13.786 52.442 0.274 7.027-0.33 14.089-5.428 18.687-5.099 4.597-97.912 105.87-176.78 136.23s-89.341 32.522-111.34 32.502c-21.994-0.021-137.98 3.631-152.27-1.968-14.294-5.6-106.49-151.26-113.93-161.52s-30.236-15.827-30.236-15.827" style="fill:#573000"/></g></g><g transform="translate(474.38 1909.7)"><path d="m0 0s36.041-57.139 43.074-72.083c7.032-14.943 41.315-66.808 41.315-66.808s30.767-31.646 74.72-15.823 105.49 23.735 105.49 23.735 48.348-32.525 56.259-40.437c4.694-4.693 93.536-87.968 165.04-154.94 2.028-1.9-1.87-74.545-1.87-74.545l25.786 53.916 65.975-63.538-38.678 109.88 82.631 108.12s-7.912 9.669-5.275 12.307c2.638 2.637 7.033 15.823 7.033 15.823s-6.2 111.01-22.609 157.89c-17.849 50.997-117.16 141.87-197.16 169.12-79.994 27.251-90.543 29.009-112.52 28.13s-138.01-1.758-152.08-7.912c-14.065-6.153-126.58-109-133.62-119.55-7.032-10.549-3.516-63.292-3.516-63.292" style="fill:#ab6923"/></g><g transform="translate(958.61 1742.1)"><path d="m0 0c-30.202 26.581-58.992 54.766-86.209 84.396 49.238-69.353 93.76-142.18 135.52-218.66 28.376 28.217 47.717 60.342 66.837 95.497-19.659-9.062-43.125-6.618-63.022 1.907-19.898 8.525-36.871 22.559-53.121 36.861" style="fill:#825121"/></g><g transform="translate(960.27 1583.3)"><path d="m0 0 23.916-20.63-10.109-22.562-2.637 15.383-13.186-44.832z" style="fill:#825121"/></g><g transform="translate(485.81 1765.8)"><path d="m0 0c-18.937-32.523-24.234-70.966-28.746-108.33-3.867-32.027-7.112-66.119 7.023-95.117-0.528 49.704 7.843 99.491 24.597 146.29-2.97-15.04-5.94-30.079-8.91-45.119 12.399 40.908 28.459 80.705 47.923 118.76-7.252-2.433-13.936-6.541-19.381-11.913 2.398 10.305 4.796 20.611 7.195 30.917-5.827-1.595-11.655-3.191-17.482-4.786-0.468 5.877 1.35 11.906 4.989 16.544-4.369-3.557-8.737-7.113-13.105-10.67l8.58 30.65-22.522-0.336c1.37 7.321 2.739 14.642 4.109 21.963-2.297 0.88-4.594 1.759-6.892 2.639 2.014 7.662 4.028 15.324 6.041 22.986-3.59-4.67-11.062 1.261-11.808 7.104-0.747 5.843 0.723 12.707-3.391 16.923-1.276 1.308-2.967 2.171-4.161 3.554-2.83 3.278-1.498 9.164 2.466 10.906-4.892-0.566-6.239 7.179-10.698 9.273-3.553 1.668-7.595-0.838-10.589-3.377-19.882-16.861-33.472-40.974-37.601-66.713 5.113 7.877 11.88 14.675 19.735 19.822 1.85-6.037-2.562-11.956-5.589-17.497-3.026-5.542-3.822-14.171 1.992-16.633 5.926 9.318 15.338 16.362 25.95 19.419-13.042-14.266-19.959-33.952-18.706-53.24l18.717 18.438-3.555-24.411c3.676 3.631 7.351 7.261 11.027 10.892-1.579-6.344-3.158-12.688-4.736-19.033 5.559-0.125 9.393 5.204 13.364 9.097 3.97 3.893 11.568 6.183 14.331 1.358-11.982-15.754-19.666-34.744-22.01-54.398 6.064 12.383 15.315 23.188 26.614 31.089-7.941-12.968-13.542-27.364-16.454-42.289 7.228 8.412 14.455 16.823 21.683 25.235" style="fill:#c97c2a"/></g><g transform="translate(908 1763.7)"><path d="m0 0c-21.528 35.899-44.445 63.547-76.445 90.531-36.061 30.409-83.745 46.671-130.87 44.632-47.127-2.04-93.228-22.359-126.53-55.77 7.08 9.005 34.918 34.67 41.998 43.675-9.166-3.92-41.906-21.365-49.227-28.13 4.664 5.503 24.638 26.143 29.302 31.646-3.491-2.71-30.499-12.528-33.99-15.237 5.064 5.806 10.61 11.035 16.517 15.796-6.659 4.193-9.773 9.283-5.743 16.394-3.978 0.056-9.187 0.705-9.877 4.589-0.866 4.875 2.488 9.302 4.53 13.466 3.753 7.654 3.207 18.583-7.708 18.366-2.619-0.053-7.058-0.473-8.381 2.589-1.971 4.561-1.007 13.037 1.835 16.974 1.353 1.875 2.798 3.545 4.367 5.25 1.339 1.346 2.528 2.817 3.565 4.413l-5.817 7.419c-2.148-0.679-4.824-1.925-7.153-1.454-4.834 0.977-11.093 6.609-10.997 11.986 0.091 5.126 2.871 9.794 5.861 14.199-11.274 1.195-22.435-1.559-29.153-10.378-4.155-5.454-5.889-12.349-7.05-19.107-5.977-34.788 1.095-71.662 19.52-101.77 12.821-20.955 31.046-39.036 38.785-62.351 2.658-8.006 4.625-17.077 11.5-21.965 42.83-30.452 125.62 32.375 162.22 23.644 64.629-15.418 204.15-166.54 243.42-215.39 20.616-25.639 41.536-51.796 53.573-82.415-2.265 27.857-19.915 68.54-34.289 92.509-32.491 54.18-61.274 101.71-93.766 155.89" style="fill:#c97c2a"/></g><g transform="translate(1086.2 1742.6)"><path d="m0 0c7.48 28.848 2.556 57.556-3.516 86.734-4.916 23.614-13.127 80.739-28.13 99.626-51.941 65.385-133.24 120.53-216.83 147.68-76.744 24.929-155.88 25.114-206.28 12.893 63.043-2.436 256.68 0 340.28-162.2-61.324 26.244-103.52 41.481-246.73 16.183-22.208-3.922-43.364-13.94-63.625-23.863-9.127-4.471-18.269-9.219-26.566-15.128-2.532-1.803-5.27-3.781-7.808-6 18.555 8.04 38.524 13.54 58.371 17.546 42.326 8.544 95.721-1.642 138.18-9.494 24.855-4.597 134.63-77.546 157.01-112.57 11.917-18.651 23.103-37.995 38.188-54.192s34.831-29.251 56.863-31.368c-28.464 26.511-50.557 59.815-63.914 96.348 14.585-26.781 45.038-54.406 74.523-62.187" style="fill:#c97c2a"/></g><g transform="translate(434.48 1867.6)"><path d="m0 0c6.434 0.088 12.845 1.636 18.61 4.495-6.378-7.454-10.576-16.752-11.95-26.465 6.944 5.296 13.887 10.592 20.831 15.888-3.618-9.225-7.235-18.449-10.853-27.674 7.761 0.806 15.3 3.653 21.657 8.177-0.41-9.246-3.489-18.358-8.773-25.957 7.927 1.636 15.623 4.384 22.792 8.14-1.152-7.872-4.267-15.45-8.983-21.857 7.092-0.536 14.346 1.351 20.278 5.276-9.719-11.188-15.371-25.833-15.688-40.649 5.512 9.67 14.743 17.158 25.343 20.555-9.636-14.472-16.256-30.943-19.316-48.058 5.478 9.336 10.955 18.672 16.433 28.009-19.473-44.855-32.93-92.316-39.899-140.72-2.325 50.594 38.517 93.896 43.624 144.28-6.299 4.773-7.391 15.053-2.235 21.043-3.904 1.05-8.18 0.65-11.821-1.106 1.436 8.172 2.871 16.344 4.307 24.516l-12.581 3.585c-0.496 5.912 0.082 11.913 1.698 17.622-4.117 9e-3 -8.235 0.019-12.352 0.029 1.683 5.881 2.234 12.084 1.613 18.169-13.275-1.797-23.804 16.846-15.409 27.286-4.948 1.931-9.896 3.861-14.844 5.791 1.151 5.914 2.302 11.827 3.454 17.741l-12.325 3.587c-5.879-8.53-10.554-17.889-13.843-27.714 6.365 2.47 12.729 4.94 19.093 7.41-2.068-7.46-5.051-14.667-8.861-21.407" style="fill:#d4a759"/></g><g transform="translate(653.59 1837.6)"><path d="m0 0c-10.622-0.948-21.244-1.895-31.866-2.843 8.864 8.99 19.547 16.179 31.213 21.004-6.607 3.539-15.005 3.484-21.566-0.139l23.307 14.061c-24.487-1.206-48.833-5.273-72.382-12.092 27.45 18.669 60.635 27.795 93.771 29.81 33.135 2.014 66.358-2.787 98.734-10.124 9.149-2.073 20.151-6.449 20.879-15.802-18.766 12.483-42.589 15.454-64.965 12.758-22.376-2.697-43.747-10.604-64.876-18.45 20.446 0.666 40.929 0.177 61.32-1.462-15.976-5.708-32.354-10.291-48.972-13.702 21.625 4.855 44.454 4.243 65.788-1.761-14.245-4.515-28.49-9.029-42.735-13.543 17.476 3.744 35.157 7.507 53.023 7.001 17.866-0.507 36.216-5.714 49.336-17.851-54.525 14.025-114.08 7.514-164.28-17.962 8.885 6.807 18.321 12.897 28.184 18.188-19.016-5.636-38.976-8.073-58.79-7.178 14.96 10.029 29.921 20.058 44.881 30.087" style="fill:#d4a759"/></g><g transform="translate(1032.8 1899.4)"><path d="m0 0c4.811-9.348 12.823-17.01 22.376-21.4-5.34 12.347-12.944 23.71-22.32 33.356l21.543-19.359c2.88 3.162 0.411 8.158-2.159 11.577-24.218 32.217-54.55 59.821-88.899 80.906 33.79-25.394 58.926-62.097 70.388-102.78-20.577 6.759-31.28 36.774-52.818 34.495 15.24-11.507 26.609-28.052 31.887-46.404-14.631 12.625-30.909 23.338-48.291 31.781 14.797-15.504 26.081-34.341 32.77-54.703-18.054 8.928-34.898 20.3-49.928 33.709 9.724-15.034 19.448-30.068 29.172-45.102-13.042 11.134-26.084 22.267-39.126 33.401 10.799-14.438 21.951-28.611 33.443-42.503l-47.869 45.168c33.714-51.796 73.672-99.523 118.73-141.82-25.932 31.542-52.871 65.296-58.59 105.73 8.316-10.522 16.633-21.044 24.949-31.566-0.311 9.579-3.142 19.064-8.132 27.246l22.719-23.238c-3.393 8.324-6.787 16.649-10.18 24.973 14.361-19.157 29.701-37.58 45.941-55.173-12.327 27.793-24.653 55.586-36.979 83.379 11.647-8.693 22.131-18.942 31.087-30.388-7.225 14.641-14.449 29.282-21.674 43.924 4.023-7.791 10.793-14.129 18.832-17.63-5.625 14.142-11.25 28.283-16.875 42.424" style="fill:#d4a759"/></g><g transform="translate(387.66 1840.2)"><path d="m0 0c2.773-13.781-1.915-27.811-5.641-41.365-13.089-47.61-14.669-98.342-4.568-146.67 2.849 24.453 5.973 49.742 18.622 70.862-4.326-28.884-2.768-58.637 4.552-86.911 2.308 8.39 4.617 16.78 6.925 25.171 15.299-44.1 38.831-85.329 69.02-120.93-34.624 29.165-67.317 60.623-97.793 94.1-6.783 7.45-13.541 15.127-17.945 24.19-8.737 17.983-7.202 39.105-4.435 58.906 5.853 41.87 16.359 83.088 31.263 122.65" style="fill:#825121"/></g><g clip-path="url(#clipPath246549)" style="opacity:.3"><g transform="translate(686.03 1993.2)"><path d="m0 0c56.215 22.165 118.46 28.817 178.08 19.032-14.48 6.006-29.28 11.204-44.071 16.398-42.769 15.019-85.539 30.039-128.31 45.058 37.538 2.746 74.433-9.225 110.05-21.404 28.483-9.741 57.141-19.835 82.77-35.624 25.63-15.789 48.321-37.908 59.587-65.823-103.93 15.138-214.35 15.058-308.78-30.911 70.112 50.771 160.36 72.876 246 60.254-58.864 30.839-129.74 23.672-195.33 13.02" style="fill:#825121"/></g></g><g transform="translate(781.75 1526.1)"><path d="m0 0c-2.88 5.719-11.383-4.991-11.383-1.504 0 32.386 45.001 85.329 82.899 85.509h0.434c24.335 0 45.033-9.788 56.787-26.858 6.354-9.229 7.815-9.98 7.224-20.64-2.046-36.744-25.566-53.297-60.622-58.482-6.661-0.985-63.312-1.908-75.339 21.975" style="fill:#cb8c84"/></g><g transform="translate(912.15 1561.2)"><path d="m0 0c-1.424-25.589-15.491-45.749-54.421-51.506-17.264-2.553-51.45-0.163-66.01 11.778-9.44 7.744-12.8 20.738-12.8 30.763 0 22.789 37.146 47.483 74.379 47.66 37.232 0.176 60.117-15.97 58.852-38.695" style="fill:#fff"/></g></g><g clip-path="url(#clipPath246573)"><g transform="translate(888.27 1597.4)"><path d="m0 0c-9.401 16.771-26.803 28.07-46.775 28.07-29.932 0-54.196-25.306-54.196-56.522 0-31.217 24.264-56.522 54.196-56.522 16.576 0 31.392 7.782 41.334 20.01-15.467 18.016-13.659 50.31 5.441 64.964" style="fill:#26a9e0"/></g><g transform="translate(869.05 1569)"><path d="m0 0c0-15.849-12.319-28.696-27.516-28.696-15.196 0-27.515 12.847-27.515 28.696s12.319 28.696 27.515 28.696c15.197 0 27.516-12.847 27.516-28.696" style="fill:#231f20"/></g><g transform="translate(869.35 1568.3)"><path d="m0 0c0-8.92-3.467-16.151-7.743-16.151-4.277 0-7.744 7.231-7.744 16.151s3.467 16.151 7.744 16.151c4.276 0 7.743-7.231 7.743-16.151" style="fill:#fff"/></g></g><g clip-path="url(#clipPath246593)"><g transform="translate(778.44 1537.2)"><path d="m 0,0 -8.071,-12.581 c 0,0 1.433,81.153 80.243,91.389 61.581,7.998 79.994,-33.963 79.994,-33.963 L 138.155,20.684 c 0,0 -16.617,50.538 -76.436,36.465 C 8.51,44.63 0,0 0,0" style="fill:#6e4e4e"/></g><g transform="translate(657.51 1525.8)"><path d="m0 0c2.88 5.719 11.333-4.634 11.333-1.146 0 32.386-45.002 85.329-82.899 85.509h-0.434c-24.335 0-45.033-9.788-56.787-26.858-6.354-9.229-8.644-8.906-8.053-19.567 2.046-36.744 26.395-54.37 61.451-59.555 6.661-0.985 63.362-2.266 75.389 21.617" style="fill:#cb8c84"/></g><g transform="translate(527.12 1559.4)"><path d="m0 0c1.424-25.589 15.44-43.959 54.371-49.717 17.264-2.553 50.035-0.879 64.594 11.063 9.441 7.743 14.215 21.453 14.215 31.479 0 22.788-37.146 47.482-74.378 47.659-37.233 0.177-60.067-17.759-58.802-40.484" style="fill:#fff"/></g></g><g clip-path="url(#clipPath246613)"><g transform="translate(650.46 1596.8)"><path d="m0 0c-9.24 16.576-26.344 27.743-45.974 27.743-29.42 0-53.269-25.011-53.269-55.864 0-30.852 23.849-55.863 53.269-55.863 16.292 0 30.855 7.691 40.626 19.777-15.202 17.806-13.425 49.724 5.348 64.207" style="fill:#26a9e0"/></g><g transform="translate(631.56 1568.7)"><path d="m0 0c0-15.664-12.108-28.362-27.045-28.362-14.936 0-27.044 12.698-27.044 28.362s12.108 28.362 27.044 28.362c14.937 0 27.045-12.698 27.045-28.362" style="fill:#231f20"/></g><g transform="translate(631.86 1568)"><path d="m0 0c0-8.816-3.407-15.963-7.611-15.963-4.203 0-7.611 7.147-7.611 15.963s3.408 15.963 7.611 15.963c4.204 0 7.611-7.147 7.611-15.963" style="fill:#fff"/></g></g><g clip-path="url(#clipPath246633)"><g transform="translate(660.77 1537.2)"><path d="m0 0 8.071-12.581s2.134 82.366-76.676 92.602c-61.581 7.998-82.631-38.815-82.631-38.815l13.082-20.522s16.616 50.538 76.435 36.465c53.21-12.519 61.719-57.149 61.719-57.149" style="fill:#6e4e4e"/></g><g transform="translate(767.97 1622.2)"><path d="m 0,0 16.409,-11.721 c 0,0 24.028,28.13 64.464,28.716 53.913,0.781 72.669,-23.441 72.669,-23.441 0,0 -23.284,39.118 -78.371,35.015 C 20.083,24.467 0,0 0,0" style="fill:#966547"/></g><g transform="translate(667.76 1657.7)"><path d="m0 0-16.409-11.721s-24.028 28.13-64.464 28.716c-53.913 0.781-72.669-23.441-72.669-23.441s26.823 39.264 81.911 35.162c55.087-4.102 71.631-28.716 71.631-28.716" style="fill:#966547"/></g><g clip-path="url(#clipPath246653)" style="opacity:.2"><g transform="translate(640.42 1366.2)"><path d="m0 0s43.644 29.297 94.341 41.225c44.849 10.552 113.5 10.602 113.5 10.602l-4.042-9.377s-11.683-25.121-30.817-54.729c-6.409-9.916-30.502-61.776-82.693-67.907-26.479-3.111-47.815 11.249-60.313 28.845-10.277 14.47-27.924 47.415-27.924 47.415z" style="fill:#231f20"/></g></g><g transform="translate(634.51 1378.4)"><path d="m0 0s39.432 36.248 93.034 47.785c47.418 10.206 122.7 0.171 122.7 0.171s-11.323-24.839-30.4-54.083c-6.389-9.794-29.739-61.071-85.202-66.852-28.14-2.933-51.588 11.426-65.746 28.942-11.643 14.403-32.005 47.165-32.005 47.165z" style="fill:#f1dbcb"/></g><g transform="translate(634.51 1378.4)"><path d="m0 0s45.27 28.796 98.871 40.333c47.418 10.205 120.74 9.863 120.74 9.863l-3.886-9.273s-11.323-24.838-30.4-54.082c-6.389-9.794-29.739-61.071-85.202-66.852-28.14-2.933-51.588 11.425-65.746 28.941-11.643 14.404-32.005 47.166-32.005 47.166z" style="fill:#ad4639"/></g><g transform="translate(641.36 1375)"><path d="m0 0s8.015-20.093 26.942-32.531c5.754-3.781 44.517-27.98 91.341-10.967 3.08 1.119 32.596 13.705 48.932 31.585 32.167 35.206 36.08 57.267 36.08 57.267s-54.642-19.525-111.04-30.676c-51.282-10.14-92.253-14.678-92.253-14.678" style="fill:#231f20"/></g><g transform="translate(641.36 1375)"><path d="m0 0s42.934 4.167 90.603 15.036c52.288 11.923 113.88 31.258 113.88 31.258s-6.109-15.353-11.731-24.695c-5.615-9.328-13.686-19.825-13.686-19.825s-24.953-14.185-83.621-16.995c-35.228-1.687-89.018 3.044-89.018 3.044z" style="fill:#fff"/></g><g transform="translate(652.82 1357.6)"><path d="m 0,0 c 0,0 49.241,-6.183 89.664,-3.516 38.374,2.531 70.768,13.923 70.768,13.923 0,0 -40.987,-44.919 -83.225,-46.166 C 20.636,-37.428 0,0 0,0" style="fill:#fff"/></g><g clip-path="url(#clipPath246689)" style="opacity:.2"><g transform="translate(661.03 1372.9)"><path d="m0 0c-1.224-5.983 2.176-5.493 0.952-11.476 30.501-3.629 61.45-3.486 91.916 0.424-25.009-5.863-50.776-8.486-76.454-7.782 9.013-18.072 31.631-34.788 51.566-31.565-34.365-4.658-79.097 20.71-89.485 53.797 63.705 28.896 141.31 46.802 211.25 45.81-4.007-14.607-11.252-28.316-21.063-39.856 2.747 7.543 1.875 21.32 2.44 29.326-54.71-16.788-113.9-38.017-171.12-38.678" style="fill:#231f20"/></g></g><g transform="translate(691.28 1478.9)"><path d="m 0,0 c 0,0 3.179,-5.108 15.321,-12.864 26.518,-16.939 47.258,7.846 47.258,7.846 0,0 -13.015,-31.031 -33.35,-29.705 C 2.482,-24.776 0,0 0,0" style="fill:#926d5a"/></g><g transform="translate(690.98 1480)"><path d="m 0,0 c 0,0 19.802,-11.788 32.935,-11.273 22.547,0.884 33.96,9.968 33.96,9.968 0,0 -22.274,-26.448 -34.722,-24.394 C 9.405,-21.941 0,0 0,0" style="fill:#d6ab93"/></g><g transform="translate(696.61 1487.2)"><path d="M 0,0 C -1.588,-14.233 49.443,-22.997 55.555,2.185 56.98,8.055 0.705,6.318 0,0" style="fill:#f1dbcb"/></g><g clip-path="url(#clipPath246717)" style="opacity:.2"><g transform="translate(843.66 1467.9)"><path d="m0 0c-12.447-1.155-23.845-1.451-33.881-0.882-24.05 1.362-41.245 7.846-49.724 18.749-5.447 7.004-6.173 14.193-6.083 18.06l192.66 15.416c-3.879-11.992-21.777-43.809-102.97-51.343m-164.7 13.114c-13.512-12.59-40.5-18.394-78.044-16.784-1.498 0.064-2.971 0.137-4.427 0.22h-7e-3c-77.183 4.373-96.354 34.367-100.9 45.941l193.1-5.821c0.053-0.765 0.082-1.662 0.054-2.661-0.153-5.516-1.975-13.618-9.784-20.895m70.596 30.377c-4.793 1.748-17.025 5.706-28.396 5.246-10.057-0.41-20.246-3.881-25.541-5.964l-0.411 1.596-209.31 6.31 0.495-4.513c0.232-2.108 6.854-51.671 109.64-57.495h8e-3c1.493-0.085 3.002-0.16 4.535-0.226 40.272-1.726 68.454 4.633 83.763 18.897 9.807 9.137 12.097 19.425 12.293 26.446 9e-3 0.306 4e-3 0.587 5e-3 0.878 3.788 1.588 14.643 5.769 24.842 6.184 9.386 0.396 19.904-2.844 24.626-4.508-0.142-5.109 0.771-14.284 7.59-23.152 10.028-13.043 28.746-20.428 55.635-21.951 10.426-0.591 22.221-0.287 35.056 0.903 106.76 9.906 111.04 61.147 111.17 63.321l0.271 4.531z" style="fill:#231f20"/></g></g><g clip-path="url(#clipPath246733)" style="opacity:.3"><g transform="translate(750.81 1515.4)"><path d="m 0,0 201.255,16.101 c 0,0 -2.982,-49.922 -107.597,-59.629 C -10.958,-53.234 0,0 0,0" style="fill:#26a9e0"/></g></g><g transform="translate(754.42 1511.7)"><path d="m0 0c-0.089-3.867 0.637-11.056 6.083-18.06 8.479-10.904 25.674-17.387 49.724-18.749 10.036-0.569 21.435-0.273 33.881 0.882 81.197 7.534 99.094 39.351 102.97 51.343zm55.361-44.688c-26.89 1.523-45.608 8.908-55.636 21.95-9.981 12.981-7.313 26.631-7.195 27.203l0.598 2.902 208.73 16.7-0.271-4.531c-0.13-2.175-4.411-53.415-111.17-63.321-12.834-1.19-24.63-1.494-35.055-0.903" style="fill:#58595b"/></g><g clip-path="url(#clipPath246753)" style="opacity:.7"><g transform="translate(883.24 1522.3)"><path d="m0 0-38.865-46.541 17.294 2.972 34.046 42.862zm-49.034-5.126-37.143-39.393 22.906-2.615 40.067 44.497z" style="fill:#fff"/></g></g><g clip-path="url(#clipPath246769)" style="opacity:.3"><g transform="translate(692.57 1516.3)"><path d="m0 0-201.81 6.084s5.458-49.712 110.43-54.21c81.596-3.496 91.553 27.524 91.942 41.511 0.112 4.006-0.562 6.615-0.562 6.615" style="fill:#26a9e0"/></g></g><g transform="translate(496.03 1518.2)"><path d="m0 0c4.543-11.573 23.714-41.567 100.9-45.941h5e-3c1.458-0.083 2.931-0.156 4.428-0.22 37.545-1.61 64.533 4.194 78.044 16.785 7.81 7.276 9.631 15.378 9.784 20.894 0.029 0.999 0 1.896-0.053 2.661zm100.46-53.82h-6e-3c-102.79 5.824-109.41 55.388-109.64 57.495l-0.496 4.513 209.31-6.31 0.74-2.869c0.083-0.321 0.808-3.275 0.686-7.712-0.196-7.021-2.486-17.309-12.294-26.446-15.309-14.264-43.491-20.623-83.762-18.897-1.534 0.066-3.043 0.141-4.535 0.226" style="fill:#58595b"/></g><g clip-path="url(#clipPath246789)" style="opacity:.7"><g transform="translate(620.62 1514.1)"><path d="m0 0-34.591-40.855 13.751-1.438 31.345 41.698zm-45.416 0.597-28.929-33.93 20.094-5.749 33.86 39.579z" style="fill:#fff"/></g></g><g transform="translate(695.69 1509.8)"><path d="M 0,0 -3.325,7.156 C -2.716,7.438 11.76,14.1 25.92,14.677 40.143,15.253 55.747,8.906 56.405,8.632 L 53.4,1.336 C 53.253,1.395 38.741,7.317 26.24,6.791 13.685,6.28 0.136,0.062 0,0" style="fill:#58595b"/></g></g></g></g></svg>
