<?xml version="1.0" encoding="UTF-8"?>
<svg width="229.05mm" height="701.71mm" version="1.1" viewBox="0 0 229.05 701.71" xmlns="http://www.w3.org/2000/svg"><defs><clipPath id="clipPath270001"><path d="M 0,2067.723 H 883.782 V 0 H 0 Z"/></clipPath><clipPath id="clipPath270013"><path d="m389.55 2e3h334.34v-178.5h-334.34z"/></clipPath><clipPath id="clipPath270029"><path d="m384.31 2023.2h376.8v-306.21h-376.8z"/></clipPath><clipPath id="clipPath270053"><path d="m554.14 1736h94.37v-68.26h-94.37z"/></clipPath><clipPath id="clipPath270069"><path d="m444.29 1924.3h277.5v-282.04h-277.5z"/></clipPath><clipPath id="clipPath270085"><path d="m467.22 1850.7h172.56v-189.98h-172.56z"/></clipPath><clipPath id="clipPath270101"><path d="m540.62 1932.2h83.15v-34.17h-83.15z"/></clipPath><clipPath id="clipPath270121"><path d="m112.09 1881h415.06v-336.68h-415.06z"/></clipPath><clipPath id="clipPath270149"><path d="m469.7 1874.6h120.16v-186.63h-120.16z"/></clipPath><clipPath id="clipPath270177"><path d="m496.36 1710h17.433v-15h-17.433z"/></clipPath><clipPath id="clipPath270193"><path d="m527.4 1842.8h39.065v-60.63h-39.065z"/></clipPath><clipPath id="clipPath270209"><path d="m526.9 1828.6h33.778v-44.86h-33.778z"/></clipPath><clipPath id="clipPath270225"><path d="m583.41 1773h57.598v-38.87h-57.598z"/></clipPath><clipPath id="clipPath270245"><path d="m582.8 1760.5h45.53v-28.9h-45.53z"/></clipPath><clipPath id="clipPath270281"><path d="m464.9 1915.8h244.69v-213.54h-244.69z"/></clipPath><clipPath id="clipPath270297"><path d="m538.28 1888.4h159.69v-136.06h-159.69z"/></clipPath><clipPath id="clipPath270317"><path d="m561.7 1637.7h91.996v-72.29h-91.996z"/></clipPath><clipPath id="clipPath270353"><path d="m504.88 1001.2h97.494v-840.68h-97.494z"/></clipPath><clipPath id="clipPath270377"><path d="m508.41 142.43h6.084v-51.293h-6.084z"/></clipPath><clipPath id="clipPath270393"><path d="m553.62 114.52h45.014v-75.771h-45.014z"/></clipPath><clipPath id="clipPath270409"><path d="m504.33 213.24h56.588v-153.48h-56.588z"/></clipPath><clipPath id="clipPath270433"><path d="m137.12 1021.8h328.96v-809.07h-328.96z"/></clipPath><clipPath id="clipPath270453"><path d="m146.95 214.67h72.909v-65.23h-72.909z"/></clipPath><clipPath id="clipPath270469"><path d="m137.1 330.07h73.28v-142.92h-73.28z"/></clipPath><clipPath id="clipPath270489"><path d="m409.39 1238.1h313.27v-268.7h-313.27z"/></clipPath><clipPath id="clipPath270509"><path d="m383.34 1137.7h268.91v-145.08h-268.91z"/></clipPath><clipPath id="clipPath270529"><path d="m339.1 1548.5h238.93v-354.11h-238.93z"/></clipPath><clipPath id="clipPath270545"><path d="m321.41 1658.6h335.08v-482.01h-335.08z"/></clipPath><clipPath id="clipPath270569"><path d="m599.38 1568.9h44.714v-37.12h-44.714z"/></clipPath><clipPath id="clipPath270589"><path d="m608.16 1563.2h44.863v-40.95h-44.863z"/></clipPath><clipPath id="clipPath270609"><path d="m362.1 1804.4h26.141v-66.45h-26.141z"/></clipPath></defs><g transform="translate(135.69 249.65)"><g transform="matrix(.35278 0 0 -.35278 -175.23 465.74)"><g clip-path="url(#clipPath270001)"><g transform="translate(481.98 1952.7)"><path d="m0 0s-17.222 12.331-21.527 17.827 31.91-62.384 38.146-64.019c6.237-1.635-62.649 57.343-66.801 80.957-4.152 23.615-1.494-94.429-2.095-89.615-0.6 4.815-4.898 39.271-4.898 39.271s-7.286-38.315-3.132-52.276c4.155-13.961 7.123-18.417 7.123-18.417s-26.57 38.917-28.499 44.71c-1.929 5.792 6.226-40.249 11.867-46.785s-22.863 18.867-23.9 27.184-11.737-21.977 7.113-57.031c18.849-35.054 60.577-60.014 60.577-60.014l90.414-47.846 115.82-9.684s40.244 6.227 58.217 26.569c17.973 20.341 34.464 52.564 34.615 61.029 0.151 8.466-23.918-40.389-40.106-46.028-16.187-5.639-7.572 2.675-7.572 2.675s14.407 10.244 36.393 46.772c21.987 36.529 17.089 46.778 16.497 51.53-0.593 4.753-0.851 38.506-6.801 55.863-5.951 17.358-21.241 33.55-21.241 33.55s11.131-21.538 11.721-35.944c0.591-14.406-1.05-39.95-1.05-39.95s1.196 29.109-16.765 57.034c-17.96 27.925-46.467 43.675-58.196 50.658-11.73 6.984-49.519 16.666-63.253 23.482-16.88 8.377-42.186 20.831-46.361 23.477-4.19 2.656 33.59-27.483 33.59-27.483s31.769-32.236 34.142-41.593c2.374-9.357-13.312 21.265-67.905 27.728-54.594 6.462-83.997 0.381-101.22 12.712l-17.223 12.331z" style="fill:#f2d63a"/></g><g clip-path="url(#clipPath270013)" style="opacity:.39999"><g transform="translate(407.76 1862)"><path d="m0 0-12.65 17.702c1.237-2.631 2.321-4.986 3.556-7.215 0.734-0.905 1.469-1.819 2.224-2.74 2.115-2.74 4.412-5.316 6.87-7.747m18.157-25.736c-5.239 8.811-11.733 18.137-18.911 25.588-1.366 1.419-2.573 2.668-3.86 4.152-1.85 2.136-3.241 4.246-4.48 6.483-2.745 3.382-5.468 6.596-9.113 9.19-0.04-2.722 3.118-7.157 4.303-9.569 4.02-8.174 8.138-16.313 12.315-24.407 4.881-9.46 10.285-18.748 18.008-26.22-5.448 9.497-13.03 18.311-15.836 29.082 3.655-6.043 8.669-10.991 12.74-16.715-1.654 3.231-3.691 6.237-5.372 9.445 2.774-2.347 6.544-6.354 10.206-7.029m-17.837 25.401c-0.111 0.108-0.21 0.226-0.32 0.335l1.6-2.239c0.025 0.851-0.401 1.486-1.28 1.904m306.53 61.87c-3.536 8.858-8.99 18.007-15.353 25.209-6.428 7.277-14.858 12.773-22.852 18.124-6.913 4.628-13.887 9.5-21.579 12.737-7.781 3.275-16.022 5.555-23.671 9.126-7.203 3.362-13.743 7.955-21.023 11.248 2.49-1.779 5.799-4.218 7.929-6.45 0.49-0.514 0.811-1.039 1.099-1.595l-2.058 1.435c0.32-1.087 2.231-3.098 4.224-4.98 0.742-0.854 1.619-1.633 2.585-2.348 1.299-1.14 2.284-1.959 2.341-2.021 7.564-8.119 14.052-17.026 20.149-26.286 5.115-7.769 10.577-15.475 15.326-23.47 1.853-3.12 4.211-6.478 4.835-10.117-0.937 8.604-4.289 16.337-7.835 24.141 1.956 0.64 3.163-0.824 3.62-4.391 2.724-3.77 5.214-7.686 7.471-11.748 1.781-2.941 3.442-5.949 4.985-9.023 0.085-0.96 0.478-1.578 1.178-1.854-0.889 3.036-2.096 6.17-2.616 9.285 1.963-3.609 3.673-7.332 5.632-10.943 0.911 1.798-0.336 4.482-0.882 6.247-2.219 7.179-6.176 13.842-9.951 20.272-4.666 7.948-9.951 17.754-17.403 23.549 13.122-10.44 24.984-22.511 35.641-35.431 6.084-7.375 12.13-15.29 15.308-24.44 1.243-3.581 2.184-7.264 3.307-10.882-4.184 22.223-17.937 38.89-30.945 56.548 9.98-8.078 19.999-16.842 26.745-27.821 3.98-6.478 6.94-13.243 9.334-20.46 1.467-4.424 2.499-9.089 4.408-13.34-0.922 11.683-6.096 22.892-10.765 33.496-3.485 7.914-7.071 15.481-12.626 22.171 5.113-3.736 9.601-9.971 12.972-14.958 6.233-9.22 11.172-19.641 13.508-30.563 3.33-15.576 4.057-31.544 6.042-47.316 0.453 1.797 0.026 4.051-0.057 5.878-0.367 8.131-1.006 16.268-1.437 24.399-0.672 12.696-2.863 24.741-7.586 36.572m-159.63 51.318c7.819-1.719 16.708-4.906 24.062-7.971 14.598-6.085 25.905-16.771 39.195-24.965 0.045 2.635-4.022 5.502-5.696 7.117-5.741 5.543-12.072 10.611-18.572 15.232-9.645 6.856-19.668 12.103-31.186 15.136-8.703 2.292-16.985 3.729-25.985 3.327-9.233-0.413-18.404-1.588-27.654-1.737-15.15-0.244-34.23 1.78-46.521 11.947 2.587-3.135 6.192-4.882 3.908-3.875 3.533-1.809 6.642-4.417 10.192-6.327 10.993-5.914 22.703-10.647 34.055-15.805 16.267-7.389 32.756-14.394 48.801-22.251-5.737 4-11.428 8.032-17.334 11.782-5.989 3.803-12.288 7.016-18.272 10.812 10.43-2.23 20.657-5.216 30.649-8.946 9.079-3.39 17.396-7.945 26.016-12.296-10.049 9.41-21.104 16.327-33.057 22.994 10.452-3.593 20.203-8.816 29.354-14.986 6.988-4.711 12.834-10.287 18.74-16.254-0.747 3.267-4.255 6.088-6.476 8.36-6.012 6.148-13.155 11.22-20.441 15.759-7.667 4.776-15.843 8.616-23.56 13.258 1.841 1.721 8.512-0.032 9.782-0.311m-72.318-57.08c-0.19 1.763-4.934 5.459-5.184 5.705-6.124 6.038-12.147 12.18-18.065 18.419-7.816 8.239-15.69 16.258-22.235 25.538 5.163-18.344 14.366-35.869 23.921-52.198 4.133-7.062 8.339-14.068 13.215-20.647 2.428-3.277 4.849-6.699 8.219-9.063-2.866 7.954-7.785 15.436-11.754 22.812-1.487 2.788-2.974 5.576-4.46 8.364-1.328 1.541-2.104 3.261-2.328 5.16 3.31-3.91 6.525-7.89 10.006-11.651 1.812-1.957 4.149-5.031 6.641-6.262-3.806 5.521-7.829 11.061-11.028 16.958 5.212-3.029 9.423-7.51 14.808-10.217 0.582 2.35-1.917 4.155-2.894 6.01-0.91 1.73-2.606 4.142 1.138 1.072" style="fill:#fff"/></g></g><g clip-path="url(#clipPath270029)" style="opacity:.3"><g transform="translate(753.43 1915.4)"><path d="m0 0c-1.745 5.089-4.293 10.073-7.023 14.583 7.315-21.447-6.091-71.324-5.382-67.954 0.363 1.722 0.713 3.474 1.054 5.241-0.459 0.491-0.722 1.182-0.606 2.055 0.441 3.317 0.857 6.658 1.215 10.011-0.68 10.063-3.702 30.712-16.592 50.754-3.738 5.811-7.945 11.066-12.351 15.854 9.482-21.516 14.738-44.927 15.422-68.41 0.323-11.082-0.449-22.08-3.076-32.722-2.329-21.341-9.589-44.095-29.357-51.394-5.081-1.876-10.073 3.86-6.673 8.461 3.218 4.356 6.464 8.726 9.546 13.202-0.468 1.155-0.506 2.536 0.12 4.039 4.088 9.825 7.216 20.429 9.341 31.438-3.188-1.685-7.783-0.568-8.126 3.938-0.115 1.521 5.987 13.129 5.853 14.664-2.46-0.093-7.428-10.58-11.53-5.417-5.886 7.405 4.079 48.228-18.343 80.486 12.807-32.552 10.866-68.768 10.623-74.988-0.172-4.391-1.651-1.263-4.882 0.25-0.152-7.329-0.892-14.58-2.393-21.621-1.24-5.82-10.598-6.742-11.07-0.049-0.438 6.212-0.828 12.487-1.261 18.779-2.056-0.193-4.078 0.763-4.905 3.394-1.58 5.026-3.309 10.094-5.198 15.153-1.054 0.509-1.955 1.434-2.482 2.893-2.466 6.831 13.456 7.151-76.704 77.954-0.282-0.45-16.815 10.265-17.223 9.918 65.638-45.023 90.842-82.383 93.167-89.391 0.882-2.658-0.065-4.912-1.71-6.279 0.883-2.143 1.68-4.333 2.375-6.576 0.257-0.83 0.314-1.619 0.218-2.343 0.875-1.719 1.745-3.439 2.564-5.186 1.324-2.826 0.222-5.18-1.721-6.46 5.467-9.49 10.046-19.585 13.517-30.347 1.81-5.613-6.664-9.27-8.485-3.621-5.786 17.942-14.666 33.889-25.717 48.141 7.459-11.435 13.267-23.923 16.38-38.022 1.28-5.8-7.871-7.002-9.144-1.236-8.432 38.194-39.147 64.437-66.848 89.48-2.757 2.493-5.58 5.019-8.435 7.548-1.057 0.634-2.114 1.268-3.177 1.891-22.661 13.296-46.673 23.684-70.242 35.186-11.114 5.424-22.145 11.3-32.12 18.656-4.654 3.432-8.65 7.447-12.505 11.585-0.468 0.233-0.931 0.475-1.398 0.709l33.072-45.867c38.093-39.364 86.741-67.279 135.32-92.115 5.253-2.686 1.852-11.267-3.44-8.561-52.205 26.691-104.47 56.799-144.27 100.32 4.168-7.715 9.295-16.867 14.157-25.035 3.033-2.717 6.022-5.483 8.916-8.35 4.96-4.914 11.105-10.874 15.829-17.529 4.215-3.321 8.283-6.812 12.169-10.417 9.939-9.22 21.21-20.569 23.533-34.521 0.648-3.896-3.368-5.857-6.498-4.703-0.74-2.388-2.97-4.178-5.809-2.756-0.747 0.374-1.473 0.782-2.211 1.172 0.034-0.333 0.021-0.668-0.027-1.004 1.514-0.76 3.251-1.644 4.682-2.392 1.079 0.764 2.503 1.025 4.111 0.314 2.466-1.091 3.926-1.749 4.841-4.393 0.904-2.614-0.155-4.722-2.432-6.054-4.37-2.555-9.357 1.622-13.365 3.479-5.834 2.703-11.699 5.345-17.377 8.37-10.884 5.799-20.968 12.772-27.996 23.09-0.129 0.19-0.225 0.387-0.322 0.584-16.175 14.388-27.091 34.104-35.303 54.055-3.551 8.629-6.07 17.067-8.007 25.972-1.68 2.964-3.379 5.914-5.103 8.843-1.069 1.266-2.128 2.54-3.173 3.827-0.142-18.213 0.152-42.196 0.286-56.345 9.471-37.592 40.406-70.749 65.395-98.244 4.008-4.41-3.251-10.114-7.219-5.747-25.904 28.501-57.094 62.801-67.093 101.61-0.651-8.679-0.685-17.205 0.856-22.382 2.276-7.652 4.193-12.435 5.464-15.207 14.647-22.208 31.642-42.841 49.895-62.392 0.251-0.24 0.501-0.488 0.752-0.727 0.295-0.28 0.533-0.579 0.738-0.887 2.797-2.976 5.621-5.929 8.473-8.857 2.618-2.687 0.694-5.936-2.111-6.922 2.438-1.713 4.886-3.412 7.373-5.058 4.97-3.29-0.569-10.673-5.499-7.41-2.574 1.704-5.113 3.458-7.633 5.235-0.997-2.487-4.174-4.392-7.179-2.558-3.889 2.374-7.642 4.883-11.281 7.501-1.363-1.901-4.064-3.077-6.648-1.592-33.131 19.042-52.243 55.891-65.163 91.496-1.447 2.195-2.859 4.46-4.079 6.79-1.331-10.489-0.395-29.302 10.601-49.752 18.849-35.054 60.577-60.014 60.577-60.014l90.414-47.846 115.82-9.684s40.244 6.228 58.217 26.569c9.819 11.114 19.186 25.764 25.697 38.158-3.909-5.986-8.261-11.673-13.253-16.895-7.874-8.235-17.603-17.116-29.326-18.242-1.48-0.487-8.484 1.793-6.65 3.368 0.124 0.195 0.267 0.387 0.45 0.57 2.47 2.462 5.079 4.76 7.739 7-0.17 1.352 2.28 3.718 2.28 3.718s14.407 10.243 36.394 46.772c21.986 36.528 17.089 46.777 16.496 51.53-0.593 4.752-0.851 38.506-6.801 55.863m-127.43 43.286c1.321-1.326 2.619-2.676 3.888-4.054 16.187-15.025 32.581-56.15 37.232-76.821-1.713 11.431 0.118 36.02-3.73 46.796-2.199 5.417-11.479 20.703-14.023 25.901-8.213 13.651-18.961 25.418-30.148 36.807-8.016 6.799-16.713 12.841-25.783 18.43-9.081 5.595-18.413 10.767-27.678 16.047-0.791 0.451-1.584 0.926-2.38 1.409 9.573-7.881 28.497-22.978 28.497-22.978s31.647-32.113 34.125-41.537m-216.3-92.903c0.975-2.082 2.003-4.135 3.088-6.154 4.895-6.457 9.983-12.765 15.332-18.862 13.064-14.89 27.488-28.465 43.031-40.663-0.428 0.457-0.869 0.902-1.296 1.36-23.956 23.045-47.513 49.207-63.605 78.858 1.945-7.413 4.063-13.799 5.911-15.942 1.689-1.956 0.317-1.05-2.461 1.403" style="fill:#8f6d18"/></g></g><g transform="translate(597.93 1902.8)"><path d="m0 0c-30.874 10.427-60.441 24.537-87.956 41.997-13.857 8.793-27.023 18.509-39.977 28.57-6.775 5.262-13.698 10.414-20.202 16.012-3.455 2.973-6.727 6.172-9.585 9.731-1.841 2.292-3.199 5.13-5.424 7.061-0.072 0.063-0.146 0.071-0.217 0.07 0.421-0.874 0.927-1.7 1.463-2.51 1.836-2.343 3.299-5.165 5.185-7.399 2.4-2.844 5.065-5.424 7.865-7.87 6.46-5.646 13.338-10.865 20.084-16.163 13.308-10.452 26.874-20.506 41.163-29.588 27.192-17.282 56.356-31.395 87.137-40.994 0.714-0.223 1.188 0.838 0.464 1.083m0.346 73.347c-11.349 8.422-24.396 13.467-38.157 16.367-15.099 3.181-30.539 4.129-45.893 5.225-8.123 0.58-16.258 1.265-24.273 2.757-7.974 1.484-16.346 3.284-22.856 8.387 0.75-0.814 1.442-1.689 2.177-2.513 0.106-0.118 0.213-0.235 0.319-0.354 10.711-6.926 25.814-7.999 37.933-9.08 15.044-1.343 30.131-1.932 45.058-4.396 15.099-2.492 29.79-6.954 42.473-15.748 12.46-8.639 22.234-20.301 31.296-32.316 0.414-0.549 1.245 0.089 0.847 0.648-8.228 11.552-17.473 22.525-28.924 31.023m159.41-80.822c-2.554 15.965-6.288 31.638-13.684 46.148-0.059 0.116-0.146 0.186-0.24 0.237 0.809-2.391 1.538-4.84 2.188-7.33 5.155-12.554 8.011-25.84 10.092-39.26 1.089-7.018 1.266-14.338 1.356-21.429 0.055-4.339-0.605-8.436-1.046-12.715-0.394-3.835-0.547-7.53-1.406-11.316-1.228-5.415-2.814-10.644-4.76-15.707 0.293 5.26 0.368 10.55 0.338 15.878-1e-3 0.197-0.108 0.33-0.252 0.414-0.062-1.661-0.195-3.308-0.392-4.943 0.057-3.888-0.241-7.747-1.118-11.481-0.088-1.35-0.176-2.7-0.296-4.046-2.954-6.834-6.581-13.371-10.933-19.651-4.45-6.422-9.644-12.407-14.615-18.429-2.75-3.333-5.499-6.585-8.37-9.729-1.29-1.734-2.831-3.27-4.318-4.856-0.839-0.894-1.712-1.751-2.585-2.608-0.269-0.338-0.543-0.672-0.809-1.012 0.087-0.03 0.184-0.03 0.281 0.051 5.846 4.886 10.726 10.325 15.649 16.116 5.421 6.376 11.037 12.766 15.874 19.606 3.65 5.164 6.715 10.467 9.345 15.951-0.462-3.804-1.068-7.593-1.92-11.353-2.717-11.987-7.009-23.568-12.359-34.62-5.568-11.501-11.975-22.289-21.198-31.245-3.574-3.471-7.339-7.016-11.427-9.941-2.61-2.294-5.643-4.098-8.982-5.14-3.143-0.982-7.546-1.66-10.574 0.145-0.114 0.025-0.227 0.069-0.334 0.152-0.088 0.069-0.177 0.138-0.266 0.208 4e-3 -0.013-5e-3 -0.024 1e-3 -0.037 1.355-2.956 6.903-1.979 9.402-1.602 5.121 0.773 9.516 3.336 13.525 6.503 10.977 8.673 19.94 18.87 26.695 31.128 6.637 12.042 12.109 24.774 15.669 38.071 1.937 7.232 3.034 14.506 3.641 21.836 2.55 5.917 4.632 12.058 6.309 18.525 1.979 7.628 2.823 16.341 2.914 24.207 0.089 7.663-0.184 15.707-1.395 23.274m-261.29 51.716c-12.985 9.464-25.512 19.559-37.784 29.927-6.167 5.21-12.216 10.558-18.005 16.188-0.736 0.717-1.452 1.451-2.179 2.175-0.378 0.838-0.753 1.677-1.139 2.512-0.12 0.261-0.531 0.095-0.415-0.172 0.201-0.459 0.395-0.922 0.594-1.382-1.703 1.725-3.374 3.477-4.946 5.325-1.183 1.39-2.142 2.698-4.064 2.773-0.071 2e-3 -0.116-0.035-0.148-0.082 0.542-0.13 1.015-0.409 1.436-0.785 2.654-1.606 5.735-6.334 7.323-8.005 0.428-0.451 0.871-0.888 1.304-1.334 4.029-9.506 7.71-19.127 12.86-28.122 5.749-10.042 12.933-19.095 20.747-27.599 8.31-9.044 17.188-17.543 25.594-26.495 8.476-9.027 16.708-18.274 25.579-26.922 0.423-0.412 1.162 0.31 0.741 0.735-8.678 8.753-16.76 18.063-25.18 27.059-8.208 8.77-16.944 17.024-25.16 25.785-7.709 8.221-14.848 16.954-20.675 26.624-5.351 8.881-9.255 18.413-13.445 27.848 1.773-1.802 3.567-3.584 5.404-5.323 5.66-5.358 11.551-10.467 17.496-15.505 12.043-10.207 24.376-20.091 37.183-29.327 26.017-18.762 53.956-34.794 81.899-50.47 0.673-0.377 1.125 0.719 0.47 1.097-29.087 16.748-58.338 33.683-85.49 53.475m209.46 17.779c5.892-6.873 10.295-14.486 14.558-22.435 2.157-4.021 4.589-7.996 6.278-12.229 1.53-3.836 2.779-7.812 4.163-11.704 6.267-17.617 7.623-37.056 5.619-55.558-0.995-9.192-3.25-18.196-5.84-27.054-2.281-7.796-4.789-16.609-8.879-23.858-0.385-0.94-0.785-1.875-1.199-2.806 0.079-9e-3 0.159 9e-3 0.22 0.098 3.965 5.768 6.522 13.1 8.798 19.685 2.268 6.56 4.207 13.268 5.774 20.03 3.35 14.454 4.464 29.96 2.63 44.721-1.776 14.289-5.669 29.662-12.473 42.402-6.817 12.768-13.397 24.798-23.629 35.219-4.538 4.621-8.538 8.902-14.032 12.432-6.796 4.365-13.106 8.338-20.862 10.886-0.182 0.059-0.344 0.027-0.475-0.052 2.985-1.426 5.923-2.968 8.761-4.68 11.87-5.97 21.915-14.981 30.588-25.097m-10.959 17.951c0.742-0.704 1.482-1.411 2.216-2.128 0.753-0.704 1.516-1.397 2.3-2.069 0.174-0.149 0.254-0.327 0.291-0.509 15.571-15.803 28.833-34.563 36.461-55.058 10.866-29.192 5.58-61.801-3.375-90.796-4.836-15.66-12.373-31.401-20.86-45.42-0.032-0.052-0.035-0.106-0.025-0.155 0.63 0.739 1.244 1.491 1.837 2.26 15.815 24.955 25.33 53.699 29.12 82.907 1.942 14.962 1.207 30.352-2.894 44.913-4.066 14.434-11.804 27.747-20.365 39.955-9.743 13.895-21.398 25.971-34.648 36.547-0.101 0.08-0.204 0.111-0.306 0.122 1.677-2.607 4.217-4.584 6.405-6.748 1.285-1.272 2.555-2.556 3.843-3.821m-277.65-93.509c-3.353 9.284-5.903 18.858-6.37 28.757-0.236 5.014-0.065 10.051 0.444 15.044 0.405 3.97 1.877 8.195 1.183 12.157-0.03 0.17-0.186 0.216-0.313 0.177 0.226-0.976 0.152-1.915-0.052-2.882-0.137-4.106-1.602-8.579-1.975-12.51-0.434-4.571-0.535-9.197-0.296-13.783 0.522-10.005 3.266-19.729 6.657-29.105 6.562-18.148 14.71-34.72 29.083-47.966 0.527-0.487 1.192 0.389 0.68 0.875-14.306 13.595-22.428 30.924-29.041 49.236" style="fill:#f2d63a"/></g><g transform="translate(436.24 1774.9)"><path d="m0 0c1.051-1.171 12.419-24.007 25.25-21.075 12.83 2.932 43.185 38.265 43.185 38.265s24.664 50.053 21.697 62.393c-2.967 12.341 30.257 39.789 30.257 39.789s43.971 28.336 71.257 27.215c27.285-1.121 62.741-33.264 68.311-41.662 5.57-8.397 8.21-19.332 10.613-39.213 2.402-19.88-10.899-57.83-22.211-77.696-11.311-19.865-33.972-30.413-40.005-39.073s-13.393 14.805-16.004 11.921c-34.398-37.986-70.852-56.511-70.852-56.511s-7.014-6.079-1.865-14.713c6.049-10.144 20.097-19.664 20.097-19.664s7.362-4.059 16.127-2.061c8.764 1.998 26.142 15.026 26.142 15.026l12.839 14.95s13.861 17.051 17.873 26.293c4.011 9.242 12.589 17.854 12.589 17.854s21.781 18.836 34.658 41.342 25.805 54.278 25.588 75.37c-0.218 21.093-11.825 52.376-22.126 64.288s-40.589 29.249-40.589 29.249-11.943 5.072-31.182 8.78c-18.176 3.504-58.612-7.765-77.965-22.396-19.354-14.631-25.104-21.843-38.12-40.808-13.015-18.964-23.095-4.485-35.486-17.066-12.391-12.582-38.838-61.718-38.838-61.718z" style="fill:#413e4f"/></g><g clip-path="url(#clipPath270053)" style="opacity:.39999"><g transform="translate(566.73 1667.7)"><path d="m0 0c19.091-0.455 37.53 4.551 52.751 16.847 6.788 5.484 14.638 12.685 20.73 20.818 3.288 6.361 7.287 14.645 8.294 22.583-1.619-1.453-2.982-2.843-3.912-4.179-6.033-8.66-13.393 14.805-16.004 11.921-34.398-37.986-70.852-56.511-70.852-56.511s-2.927-2.561-3.602-6.703c1.323-0.125 2.699-0.424 4.124-0.958 2.91-1.091 5.692-2.47 8.471-3.818" style="fill:#212121"/></g></g><g clip-path="url(#clipPath270069)" style="opacity:.3"><g transform="translate(713.92 1867.2)"><path d="m0 0c-16.724 34.39-51.117 59.378-90.266 56.926-48.274-3.023-85.015-35.492-112.83-72.463-3.117-16.212-12.195-31.74-21.181-45.096-12.212-18.152-27.379-32.316-45.358-43.555 4.596-5.566 10.711-10.68 17.203-9.197 12.83 2.933 43.185 38.265 43.185 38.265s24.664 50.053 21.697 62.394 30.257 39.788 30.257 39.788 43.971 28.336 71.256 27.215c27.286-1.121 62.741-33.264 68.312-41.661 5.57-8.398 8.21-19.333 10.613-39.213 2.402-19.881-10.899-57.831-22.211-77.696-11.312-19.866-33.972-30.414-40.005-39.074s-13.393 14.805-16.005 11.921c-34.397-37.986-70.851-56.511-70.851-56.511s-7.014-6.079-1.866-14.712c6.05-10.145 20.098-19.665 20.098-19.665s7.362-4.059 16.126-2.061c8.765 1.999 26.142 15.026 26.142 15.026l12.84 14.95s13.861 17.051 17.873 26.293c4.011 9.243 12.589 17.854 12.589 17.854s21.78 18.836 34.658 41.342c12.877 22.507 25.805 54.278 25.588 75.371-0.075 7.207-1.48 15.604-3.708 24.011-1.259 3.234-2.635 6.424-4.154 9.548" style="fill:#212121"/></g></g><g clip-path="url(#clipPath270085)" style="opacity:.3"><g transform="translate(637.76 1699.4)"><path d="m0 0c-0.218-0.431-0.086-0.792-0.13-1.212-0.079-0.755-0.309-1.413-0.607-2.075 0.93 1.013 1.848 2.04 2.755 3.091-2.185-0.634-2.134-0.214-2.018 0.196m-20.927-21.393c-4.788-3.156-10.118-5.707-15.447-7.811-7.12-2.811-14.466-4.693-21.854-6.638-3.322-0.875-6.611-1.626-10.023-2.095-1.324-0.182-2.677-0.352-3.967-0.72 2.182 0.402 4.837-0.015 6.93 0.011 6.265 0.078 12.336 1.032 18.422 2.516 12.663 3.09 24.569 8.352 34.316 17.191 4.604 4.176 8.442 9.059 11.299 14.591 0.188 0.365 0.358 0.713 0.514 1.061-2.559-2.787-5.215-5.444-8.023-8.04-3.88-3.588-7.75-7.155-12.167-10.066m-116.5 168.41c0.14 0.612 0.401 1.023 0.709 1.389 0.059 0.618 0.079 1.208 0.031 1.722-0.237-1.711-0.662-2.427-0.74-3.111m4.743 4.287c-1.171 0.147-1.849-0.641-2.566-1.422-0.533-0.58-1.05-0.979-1.468-1.476-0.168-1.755-0.664-3.74-0.914-4.891-1.995-9.207-5.878-18.692-10.818-26.664-6.65-10.734-14.721-20.462-22.095-30.686 5.26 5.442 10.054 11.069 14.684 17.089 3.26 4.493 6.583 8.94 9.969 13.339 2.598 3.311 5.078 6.708 7.438 10.194 2.262 4.216 3.617 8.607 4.855 13.217 0.589 2.167 1.161 4.339 1.716 6.515 0.446 1.142 0.645 2.31 0.597 3.502-0.245 0.814-0.397 1.158-1.398 1.283" style="fill:#fff"/></g></g><g clip-path="url(#clipPath270101)" style="opacity:.3"><g transform="translate(605.54 1931.2)"><path d="m0 0c-5.079-0.273-9.579-0.747-14.457-2.454-3.832-1.657-7.705-3.208-11.622-4.653-2.82-0.782-5.514-1.875-8.081-3.279-6.186-3.302-11.813-7.812-17.457-11.935-4.616-3.373-9.073-6.919-13.309-10.761 5.443 3.881 10.654 8.704 17.402 10.146-3.525-3.261-8.348-6.274-11.139-10.245 7.15 4.264 14.589 7.982 21.947 11.867 7.196 3.8 14.705 7.533 22.234 10.611 6.119 2.502 12.662 4.425 19.086 5.967 4.562 1.095 9.054 2.702 13.62 3.716-4.071 0.341-8.238 0.144-12.294-0.291-2.583-0.277-5.91-1.663-8.505-1.193 2.171 1.841 5.538 1.105 7.842 2.764-2.129 1.564-7.091 0.114-9.561 0.063 1.039-0.088 2.073-0.225 4.294-0.323" style="fill:#fff"/></g></g><g transform="translate(462.62 1752.9)"><path d="m0 0c-3.863-2.601-48.189-95.807-59.624-100.85-11.436-5.047-44.262 16.312-64.448 23.39-20.186 7.077-102.63 19.958-102.63 19.958s90.395 29.747 111.52 44.144 71.387 27.382 71.387 27.382 22.926-0.078 29.7 3.705 22.104 34.251 22.104 34.251l22.417 53.153s16.76 1.674 17.757 8.174l0.997 6.501-2.842 8.289-15.19-8.799-22.232 4.131s-7.623 3.081-14.596-8.725-38.241-64.209-38.241-64.209-68.388-14.335-98.46-19.893c-30.072-5.557-93.307-16.075-93.307-16.075s-45.042-6.453-72.436-33.478c-27.395-27.026-42.407-37.257-42.407-37.257l1.392-11.161s7.67-17.961 28.085-26.878c20.416-8.916 77.284-29.575 77.284-29.575s68.811-19.683 74.273-24.777c5.461-5.095 15.405-26.78 15.847-39.998s-1.817-53.148-1.817-53.148l245.37 20.547-28.872 91.229-3.243 6.657-13.445 1.389-8.316-1.037-6.104-0.762 15.697 46.927-25.381 93.009z" style="fill:#ffd1a8"/></g><g clip-path="url(#clipPath270121)" style="opacity:.3"><g transform="translate(265.29 1773.9)"><path d="m0 0c-20.915-3.559-38.356-6.46-38.356-6.46s-45.042-6.453-72.437-33.479c-27.394-27.025-42.406-37.256-42.406-37.256l1.392-11.161s6.354-14.87 22.88-24.267c-7.153 7.475-12.169 16.768-9.316 27.379 2.795 10.396 10.966 18.661 19.004 25.35 21.637 18.005 47.697 32.328 73.42 43.44 14.85 6.415 30.234 11.747 45.819 16.454m-27.445-78.793c-5.362-2.058-11.321-3.439-15.108-4.634-3.935-1.241-7.864-2.378-11.804-3.425-0.783-0.284-1.569-0.552-2.354-0.823 11.472-1.868 22.899-4.075 34.285-6.473 7.686-0.768 15.361-1.688 23.023-2.755 9.808-1.368 19.516-3.29 29.226-5.187 0.968-0.065 1.936-0.119 2.903-0.195 7.79-0.607 15.522-1.686 23.255-2.745-4.025 4.974-8.446 9.619-13.161 13.886-27.228 5.452-61.82 11.011-70.265 12.351m219.77-123.1c-0.094-0.324-5.002-13.918-5.147-14.027-0.014-0.031-16.056 13.33-22.812 19.368-13.527 5.028-27.103 12.326-41.509 14.438-9.642-6.874-18.501-14.749-27.315-22.714 5.241-1.049 10.474-2.158 15.695-3.284 23.917-5.158 46.978-13.554 70.117-21.461 11.998 0.933 23.845 3.678 35.947 4.384 12.78 0.745 25.587 0.72 38.384 0.998 2.055 0.144 4.115 0.241 6.175 0.333-2.873 6.66-5.773 13.395-8.856 20.009-19.729 4.337-40.394 0.996-60.679 1.956m-16.909 99.995c3.916 20.166 11.768 39.17 20.082 57.86 2.509 10.369 7.296 20.085 10.737 30.183l-8.905-7.131c-3.863-2.601-48.189-95.807-59.624-100.85-3.961-1.747-10.489-0.325-18.167 2.571 19.776-12.722 37.48-28.454 56.816-41.927-2.925 19.787-4.829 39.271-0.939 59.298m-9.121 131.26c8.044 17.107 15.828 35.939 30.056 48.382-0.203 1.505 0.443 3.04 2.368 3.727l5.197 1.855c0.039 0.014 0.077 0.017 0.115 0.029 3.942 1.501 7.813 3.17 11.714 4.787 0.104 0.127 0.238 0.246 0.413 0.351 0.129 0.077 0.262 0.148 0.391 0.224l-2e-3 4e-3c0.01 6e-3 0.022 0.011 0.033 0.014 0.864 0.511 1.743 0.991 2.622 1.472 8.087 5.441 16.302 10.609 25.744 13.196l-1.272 3.71-15.19-8.799-2.007 0.373c-6.917-6.893-17.823-9.165-26.877-11.714-1.636-0.461-3.471 1.77-1.707 2.861 2.577 1.595 5.097 3.248 7.567 4.965 0.076 0.078 0.13 0.166 0.231 0.231 0.278 0.181 0.6 0.372 0.94 0.569 2.413 1.717 4.747 3.547 7.02 5.471l-7.399 1.375s-7.623 3.08-14.596-8.725c-6.973-11.806-38.241-64.209-38.241-64.209s-0.06-0.013-0.157-0.033c2.256-2.277 4.548-4.513 6.897-6.677 2.066 2.161 4.108 4.353 6.14 6.561" style="fill:#fff"/></g></g><g transform="translate(510.74 1875.8)"><path d="m0 0c-5.202-6.622-13.568-8.904-21.01-14.195-6.845-4.866-8.688-12.319-11.962-19.602-2.562-5.698-5.529-11.269-8.362-16.838-9.013-17.719-20.716-38.711-41.849-43.24-7.575-1.623-14.857-1.414-22.313-4.11-6.482-2.343-12.621-5.616-18.647-8.932-13.841-7.62-27.267-14.481-42.05-20.157-32.735-12.57-65.976-23.45-99.476-33.768-16.854-5.191-33.587-10.768-50.475-15.852-3.336-1.005-30.691-7.861-41.254-10.593 3.99-1.782 8.047-3.34 12.161-4.734 14.236-3.709 30.309-2.79 45.136 0.157 0.156 0.573 0.52 1.072 1.202 1.291 9.722 3.122 18.421 8 27.778 11.864 1.599 0.661 3.301 1.016 5.053 1.222 23.194 7.852 85.671 29.56 102.77 41.213 21.127 14.396 71.387 27.381 71.387 27.381s22.926-0.078 29.7 3.705 22.104 34.251 22.104 34.251l22.416 53.153s16.761 1.674 17.758 8.175l0.997 6.5zm-179.57-198.2c2.922-2.768 5.563-5.818 7.798-9.182 11.93-17.952 7.138-40.325 6.803-60.825 8.478 13.034 14.973 27.211 21.916 41.117 1.742 3.491 4.347 7.16 4.89 11.004 7e-3 0.053 3e-3 0.102 0.01 0.155-11.75 5.478-24.347 12.161-34.036 15.558-1.929 0.676-4.441 1.407-7.381 2.173m-38.418-73.027c0.13-0.096 0.286-0.198 0.38-0.285 5.461-5.094 15.404-26.78 15.846-39.998s-1.816-53.148-1.816-53.148l19.997 1.675c0.214 6.394-0.511 13.203 0.113 19.185 0.786 7.524 2.051 14.988 3.492 22.411 1.281 6.591 5.108 15.31 2.077 21.543-6.499 13.365-23.319 24.013-40.089 28.617m227.66 25.002-13.445 1.39-14.42-1.799 15.697 46.927-25.381 93.008-14.418-11.545c-1.767-4.38-3.966-8.631-5.894-12.872-5.194-11.425-7.464-23.769-7.972-36.284-0.585-14.416 1.73-28.705 5.977-42.457 2.493-8.073 6.36-16.115 5.414-24.791-0.85-7.803-5.27-14.896-9.365-21.41-3.053-4.854-7.255-11.305-13.777-11.142-7.2 0.18-13.932 7.638-20.21 10.324-6.375 2.727-13.346 3.688-20.319 3.559 10.083-2.815 19.535-7.333 28.502-13.383 7.581-5.115 14.716-13.88 24.602-11.122 6.266 1.748 11.083 4.982 17.836 4.959 8.331-0.028 16.803-3.61 24.762-5.595 7.564-1.888 15.35-3.378 22.581-6.378 6.327-2.626 12.03-6.332 16.746-11.25l-13.673 43.205z" style="fill:#f0b986"/></g><g transform="translate(652.19 1733.8)"><path d="m0 0c-2.971-5.197-40.408-36.03-62.643-50.455-19.091-12.386-68.941-16.639-68.941-16.639s-29.996-1.328-35.637 5.208-14.543 39.211-14.543 39.211-3.688 29.366 5.525 52.234c1.413 1.24 12.37 11.43 23.227 22.787 3.576 3.741 6.469 8.074 8.591 12.794 11.436 25.431 29.023 64.327 10.304 62.199l34.514 13.478 118.19-28.694s28.499-44.71 26.568-48.571-45.159-63.552-45.159-63.552" style="fill:#ffd1a8"/></g><g transform="translate(670.78 1845.9)"><path d="m0 0-109.27 26.527c-0.151-2.313-0.315-4.626-0.495-6.933-0.125-1.591 0.221-7.376-1.206-9.476 0.514-0.962-0.782-2.35-1.994-1.631-2.98 1.769-6.989 1.509-10.254 0.476 3.989-10.961 13.042-20.453 21.619-27.951 9.23-8.07 21.451-17.136 34.293-17.054 0.113 0 0.225 1e-3 0.338 2e-3 1.475 1e-3 1.474-2.576 0.011-2.585-0.113-1e-3 -0.225 0.01-0.338 0.011v-0.013c-8.33-0.01-16.646-0.171-24.898-1.228 29.481-11.526 69.717-12.867 96.493 4.711 0.953 0.625-8.061-11.024-9.099-11.838-5.092-3.991-10.742-7.255-15.999-11.021-6.797-4.871-28.938-10.009-23.14-14.145 6.016 1.992 14.017 0.549 20.047 2.501 1.948 0.631 8.118 3.836 5.708-0.419-4.109-7.254-13.866-20.659-17-12.467-1.31 3.426 1.123 0.104-4.543-2.755-5.337-2.693-15.243-4.512-14.345-7.213 2.262-6.805-9.825-18.423-16.704-18.787 14.715-33.17-31.136-51.725-59.089-65.403 16.051 2.466 37.531 6.914 48.628 14.113 22.235 14.425 59.672 45.258 62.643 50.455 0 0 43.227 59.691 45.159 63.552 1.931 3.861-26.568 48.571-26.568 48.571" style="fill:#f0b986"/></g><g clip-path="url(#clipPath270149)" style="opacity:.3"><g transform="translate(580.17 1742.1)"><path d="m0 0c-1.31 1.8-2.823 3.423-4.288 5.092-0.598 0.682-1.002 1.439-1.9 1.626-2.433 0.508-5.838-1.671-6.644-3.861 0.652 1.33 1.369 2.625 1.109 2.55-2.14-0.059-5.5-6.863-5.726-7.258-1.815-3.166-3.291-6.691-5.511-9.597 3.713 3.603 8.929 5.833 14.095 4.037 7.439-2.585 10.958-10.71 18.553-13.094-0.327 2.485-1.362 4.759-2.362 7.056-1.996 4.583-4.373 9.39-7.326 13.449m-31.035 21.308c-4.165-5.064-8.894-9.507-13.87-13.75-1.898-1.618-3.688-3.544-5.714-5.016 0.106 0.267 0.09 0.843-0.232 2.207 0.018-0.145 0.037-0.29 0.055-0.435-2.049-1.114-7.123-2.598-7.706-5.121 0.618-0.598 1.83 0.17 2.648 0.018 0.97-0.18 1.545-0.851 2.262-1.443 1.658-1.37 1.391-1.924 1.22-3.935-0.1-1.185 0.041-2.649 0.286-3.821 0.497-2.392 3.144-3.718 5.465-3.96 3.954-0.413 6.203 1.978 6.344 5.826 0.109 2.96-1.44 5.956-0.346 8.791 1.671 4.329 4.302 8.079 6.324 12.247 2.979 6.144 7.284 11.529 10.515 17.521-2.679-2.751-4.807-6.157-7.251-9.129m-16.135 11.966c1.919 3.859-8.224 22.417-8.118 22.505-0.944 8.844 14.126 15.492 22.507 16.367 3.927 14.051 11.997 26.432 20.267 38.348 3.67 5.287 7.779 10.319 11.485 15.599l-26.549 6.445-34.514-13.477c18.719 2.127 1.132-36.769-10.304-62.2-2.123-4.72-5.015-9.053-8.591-12.794-10.857-11.356-21.814-21.546-23.227-22.786-9.213-22.869-5.525-52.234-5.525-52.234s3.317-12.17 7.184-23.142c-1.349 11.104-0.887 22.425 1.496 33.358 3.309 15.187 9.511 29.707 18.505 42.399 4.937 6.967 9.683 15.812 15.623 18.735 8.623 4.243 16.859-12.963 19.761-7.123" style="fill:#fff"/></g></g><g transform="translate(491 1740.1)"><path d="m0 0c-0.018 0.062-0.036 0.125-0.054 0.187 0.587-1.734 1.008-3.526 1.742-5.206 0.855-1.959 1.947-3.826 3.183-5.569 1.741-2.454 3.306-5.001 5.456-7.135 1.509-1.498 3.288-2.586 5.102-3.677 0.759-0.456 1.568-0.858 2.292-1.369 0.688-0.486 1.285-1.192 1.849-1.817 0.877-0.972 1.472-2.037 1.951-3.252 0.219-0.558 0.474-1.69 0.968-2.073 0.36-0.279 1.05-0.309 1.481-0.454 1.145-0.384 2.314-0.833 3.444-1.262 3.318-1.26 4.919-4.412 6.857-7.142 0.91-1.281 1.874-2.56 3.127-3.527 1.623-1.253 3.602-2.255 5.492-3.032 1.875-0.77 3.686-1.713 5.722-1.908 1.224-0.117 2.485 0.011 3.696-0.134-1.163-0.285-2.421-0.14-3.61-0.234-1.734-0.139-3.421-0.656-5.152-0.869-3.391-0.418-6.635-1.289-9.978-1.957-2.888-0.576-5.854-0.36-8.78-0.365-2.656-4e-3 -5.248-0.086-7.852 0.531-3.7 0.878-6.675 3.061-9.374 5.685-1.9 1.847-3.555 4.281-4.738 6.64-1.106 2.203-1.952 4.704-2.307 7.158-0.326 2.26-0.17 4.562-0.186 6.837-0.017 2.247 0.152 4.415 0.35 6.652 0.196 2.226 0.233 4.468 0.192 6.701-0.026 1.411-0.122 2.802-9e-3 4.211 0.109 1.356-7e-3 2.39-0.27 3.71-0.159 0.799-8e-3 1.717-0.338 2.47-0.156-0.454 1.515-2.118-0.256 0.2" style="fill:#c40050"/></g><g transform="translate(539.61 1692.9)"><path d="m0 0c-2.036 0.195-3.847 1.137-5.722 1.908-1.89 0.777-3.869 1.779-5.492 3.032-1.253 0.967-2.217 2.245-3.127 3.527-1.938 2.73-3.539 5.881-6.857 7.142-1.13 0.429-2.3 0.878-3.444 1.262-0.431 0.145-1.121 0.175-1.481 0.454-0.494 0.383-0.749 1.515-0.968 2.073-0.479 1.215-1.074 2.279-1.952 3.252-0.563 0.625-1.16 1.331-1.848 1.816-0.725 0.512-1.534 0.914-2.292 1.37-1.814 1.091-3.593 2.178-5.103 3.677-2.149 2.134-3.715 4.681-5.455 7.135-1.236 1.743-2.328 3.61-3.183 5.569-0.489 1.12-0.839 2.289-1.192 3.458 0.01-0.204 0.023-0.407 0.038-0.607 0.089-0.204 0.192-0.394 0.24-0.636 0.396-2.013 0.78-4.026 1.155-6.04 1.012-2.956 1.774-5.976 2.408-9.039 1.498-3.599 3.189-7.118 5.04-10.544 6.165-4.063 11.563-9.18 17.973-12.936 1.843-1.081 4.377-2.182 6.538-3.61 0.85 0.458 1.913 0.529 2.94-0.144 2.308-1.513 4.868-2.461 7.5-3.231 1.459 0.246 2.898 0.626 4.37 0.743 1.189 0.095 2.447-0.051 3.61 0.234-1.211 0.146-2.472 0.018-3.696 0.135" style="fill:#9c0040"/></g><g transform="translate(523.04 1698.6)"><path d="m0 0c-4.224 2.452-8.672 4.678-12.65 7.259-3.517 2.282-5.38 6.023-8.101 9.144-2.811 3.224-5.476 5.91-7.471 9.349 0.39-2.694 0.801-5.382 1.286-8.056 1.874-4.651 4.479-8.957 8.144-12.557 7.279-7.149 16.181-8.289 25.236-9.92-2.206 1.52-4.364 3.099-6.444 4.781" style="fill:#fff"/></g><g clip-path="url(#clipPath270177)" style="opacity:.3"><g transform="translate(511.89 1696.1)"><path d="m0 0c-0.37-0.128-0.805 0.418-1.063 0.626-0.64 0.516-1.303 0.989-1.995 1.433-2.109 1.355-3.757 2.705-5.46 4.544-1.124 1.215-2.161 2.51-3.386 3.628-1.271 1.16-2.461 2.35-3.625 3.619-0.019-0.745 0.246-1.553 0.383-2.278 0.292-1.546 0.387-3.251 1.016-4.717 1.228-2.859 4.58-5.216 7.278-6.596 1.876-0.96 3.654-1.36 5.755-1.406 0.712-0.015 1.427 0.129 2.135 0.09 0.292-0.016 0.57-0.096 0.865-0.084-0.542 0.076-1.027 0.295-1.518 0.523-1.273 0.591-1.878 1.097-0.385 0.618" style="fill:#fff"/></g></g><g clip-path="url(#clipPath270193)" style="opacity:.14999"><g transform="translate(555.86 1782.5)"><path d="m0 0c0.09-1.103 3.265 0.497 3.725 0.814 2.398 1.655 3.42 7.133 4.281 9.468 5.423 14.722 0.953 28.961-0.9 35.054-2.896 9.526-17.15 16.448-27.156 14.62-15.752-2.878-5.013-27.022-2.579-33.864 2.037-5.725 5.008-11.203 8.699-16.035 2.384-3.12 5.016-6.208 8.441-8.206 0.838-0.489 7.008-2.25 6.877-1.986-0.463 0.045-0.925 0.09-1.388 0.135 5e-3 -0.062 1.894 0.138 0 0" style="fill:#cf2567"/></g></g><g clip-path="url(#clipPath270209)" style="opacity:.5"><g transform="translate(528.72 1819.2)"><path d="m0 0c4.173-19.427 9.547-34.755 31.955-35.476-3.923 4.938-4.854 4.115-20.167 19.772-9.097 9.302-9.109 16.252-13.612 25.084 0.826-8.539 3.141-17.778 6.064-25.872" style="fill:#941670"/></g></g><g clip-path="url(#clipPath270225)" style="opacity:.14999"><g transform="translate(583.81 1758)"><path d="m0 0c-0.069 1.09 0.366 2.183 0.908 3.15 2.177 3.878 6.162 7.123 10.061 9.135 9.974 5.144 22.256 2.222 31.753-2.54 4.823-2.418 9.769-5.91 12.099-10.937 0.965-2.082 1.601-4.208 2.001-6.467 0.468-2.641 0.621-5.702-0.281-8.279-0.447-1.013-0.894-2.026-1.341-3.038-0.733-0.827-1.466-1.653-2.199-2.479-0.969-0.526-1.939-1.052-2.908-1.578-1.156-0.247-2.311-0.493-3.467-0.74-2.647-0.297-5.443 0.124-8.042 0.593-2.623 0.474-5.218 1.148-7.828 1.694-2.295 0.48-4.662 0.836-6.907 1.523-1.817 0.557-3.55 1.352-5.259 2.173-2.455 1.181-4.997 2.335-7.078 4.121-2.23 1.915-4.329 4.022-6.303 6.195-1.709 1.882-3.496 3.7-4.848 5.865-0.324 0.518-1.308 2.343-0.361 1.609" style="fill:#cf2567"/></g></g><g transform="translate(528.46 1819)"><path d="m0 0c-0.103 0.317-0.113 0.636-0.029 0.958 1.035-0.311 1.455-5.349 1.763-6.248 0.868-2.534 1.947-5.114 3.111-7.519 1.857-3.837 5.003-6.967 7.587-10.305 2.5-3.229 6.01-5.58 9.585-7.529 1.615-0.881 3.314-1.537 4.98-2.296 1.498-0.682 2.768-2.062 4.402-2.391-2.746-2.23-3.13-5.257-2.866-8.632-1.824 1.724-3.861 3.274-5.576 5.104-0.265-0.898 0.38-2.689-0.488-3.246-3.218 1.334-5.956 3.76-8.376 6.215-0.756 0.767-4.558 4.136-4.01 5.818-1.128-1.117 0.429-3.618-0.689-4.926-1.262 0.41-2.426 3.025-2.869 3.827-1.417 2.564-2.795 5.17-3.831 7.912-1.323 3.499-1.676 7.211-2.017 10.915-0.346-1.239-1.335-2.242-1.825-3.449-1.404 4.262 0.403 9.312 0.576 13.642 0.047 1.183 0.169 3.117 0.664 4.21 0.369-0.392 0.454-1.539 0-1.904-0.049 0.096-0.098 0.193-0.092-0.156"/></g><g clip-path="url(#clipPath270245)" style="opacity:.5"><g transform="translate(582.8 1758.6)"><path d="m0 0c4.182 1.6 0.49 3.434 5.688 0.129 4.639-2.949 8.499-7.623 12.919-10.961 8.054-6.083 17.311-12.184 26.922-15.46-3.234-1.853-12.126 0.875-15.676 1.501-6.006 1.058-11.489 2.704-16.442 6.437-4.223 3.183-6.697 6.823-8.986 11.5-1.426 2.914-2.629 7.215-4.425 6.854 0.249 0.095 0.517 0.104 0 0" style="fill:#941670"/></g></g><g transform="translate(614.07 1735.3)"><path d="m0 0c-8.434 1.77-16.699 7.562-22.037 14.163-1.76 2.177-6.828 15.34-11.665 8.699 0.308-1.804 1.357-3.008 1.587-4.987 0.316-2.715-1.046-5.157 0.097-7.969 0.881 1.179 1.557 2.465 2.031 3.859 0.273-4.939 3.727-9.324 5.478-13.757 0.878 13.615 4.754-0.532 8.428-4.598 0.521 0.799 0.407 4.134 0.533 5.08 2.309-0.619 5.651-5.627 7.604-6.992 0.472 1.211-0.353 2.6 0.847 3.636 5.637-1.264 7.865-3.088 14.296-1.348-0.255 1.334-5.883 3.938-7.199 4.214"/></g><g transform="translate(609.36 1787)"><path d="m0 0c0.46-1.378-4.012-3.707-4.514-5.065 0.909-1.523 3.911-1.954 5.429-2.494 2.082-0.742 4.282-1.494 6.22-2.571 2.719-1.511 5.311-3.418 7.89-5.157 2.134-1.439 4.194-2.916 5.95-4.814 3.763-4.065 6.878-8.955 9.83-13.613 1.319-2.081 2.594-4.203 3.545-6.483 0.791-1.898 1.219-4.039 2.2-5.855-0.5 3.967-1.303 7.82-2.491 11.643-0.993 3.194-1.854 6.62-3.013 9.758-1.765 4.781-4.898 9.896-8.737 13.305-4.855 4.31-11.481 5.378-17.045 8.399-1.445 0.784-2.898 1.6-4.294 2.466-0.419 0.26-0.869 0.419-0.97 0.481" style="fill:#826600"/></g><g transform="translate(537.66 1854.1)"><path d="m0 0c0.901-1.398 3.332-2.545 4.474-3.582 2.707-2.457 5.13-5.658 7.485-8.428 1.845-2.17 3.623-4.339 5.143-6.756 1.535-2.439 2.873-4.991 4.553-7.337 5.409-7.552 14.267-22.863 15.424-21.43 0.73 1.057 1.525 2.062 2.385 3.015 0.436 0.348 0.854 0.716 1.254 1.104 0.251 0.964-1.476 3.423-1.792 3.947-1.91 3.171-4.18 6.11-6.097 9.278-2.234 3.689-4.364 7.16-7.359 10.313-2.319 2.442-4.68 4.852-7.026 7.268-3.315 3.414-7.063 6.299-10.852 9.167-3.287 2.489-6.556 4.62-10.494 5.893 0.999-0.857 2.595-1.396 2.902-2.452" style="fill:#826600"/></g><g transform="translate(519.01 1740.3)"><path d="m0 0c-0.988-0.487-0.862-2.559-0.798-3.358 0.161-2.024 1.311-3.095 3.038-4.036 0.88-0.48 2.171-0.715 2.825-1.488 1.236-1.46 1.478-3.881 2.397-5.539 1.789-3.226 4.054-6.667 7.976-7.394 1.987-0.369 3.667 0.468 5.53 0.942 1.068 0.271 2.195 0.166 3.215 0.627-3.732-2.369-7.461-5.587-12.101-3.626-2.487 1.051-4.828 2.048-6.37 4.372-0.777 1.17-1.525 2.432-2.01 3.753-0.433 1.177-0.432 2.386-0.748 3.578-0.361 1.357-1.144 1.954-2.158 2.869-1.329 1.199-2.368 2.868-2.864 4.573-0.447 1.533-0.845 2.671 0.589 3.878 1.07 0.901 1.3 0.666 1.479 0.849" style="fill:#d9a26c"/></g><g transform="translate(694.98 1826)"><path d="m0 0c-0.77-0.385-1.367-0.864-1.915-1.517 1.511 3.655 4.278 6.451 5.24 10.436 0.949 3.927 0.916 7.946 0.464 11.933-1.868 16.464-16.858 29.411-30.112 37.273-8.835 5.24-18.236 9.409-28.195 12.084-11.976 3.216-24.183 5.227-36 9.072-10.469 3.406-20.447 8.065-30.892 11.525-5.283 1.75-11.432 2.58-16.301 5.319 2.189-0.598 4.223-1.561 6.103-2.891 6.413-4.538 12.958-8.878 19.637-13.018 8.4-4.804 16.979-9.261 25.736-13.372 1.855-1.28 3.858-2.074 6.008-2.381-4.195 0.771-8.565 0.928-12.813 1.294-15.398 1.328-30.682 1.992-45.879 5.047-21.628 4.349-43.241 9.015-65.099 12.149 1.197-1.427 3.346-2.073 4.972-2.866 8.326-4.063 16.58-8.223 24.798-12.508 11.486-5.988 23.906-13.437 36.629-16.395-4.34 1.198-9.217 0.631-13.658 0.522-10.687-0.263-21.82-1.191-31.899-5.029-16.151-6.151-30.536-16.378-46.869-22.024-0.81 2.216 13.161 5.412 11.383 4.957 9.466 2.424 19.437 2.925 29.159 2.201 16.944-1.26 32.562-5.827 47.476-14.026 5.09-2.799 9.621-6.314 14.42-9.548 7.023-4.732 15.665-8.623 23.506-11.7 9.118-3.577 18.41-6.647 28.382-5.996 5.442 0.355 10.938 1.193 16.287 2.202-18.121-4.967-34.056-7.689-53.133-6.77-7.396 0.356-18.108 1.649-25.204 3.779-1.907 0.572-6.512 0.462-9.088 0.276 9.638-3.196 19.558-5.666 29.358-8.334 16.038-4.366 30.831-7.213 47.432-4.969 19.122 2.586 35.867 8.833 52.212 18.902-2.203-4.128-7.051-9.251-9.98-12.207-8.308-8.381-19.307-16.032-28.79-22.857-11.868-8.543-23.553-15.945-38.096-19.222-5.561-1.253-11.644-2.889-17.303-3.386 9.583 2.412 19.495 3.228 29.048 5.798 12.454 3.35 24.376 7.926 35.644 14.235 7.345 4.112 13.749 9.162 20.782 13.735 1.289 0.838 5.27 2.347 5.636 3.846-1.866-1.752-3.169-3.898-3.907-6.439-2.421-5.294-4.788-10.611-7.103-15.952-1.724-4.954-3.523-9.882-5.395-14.783-2.743-5.801-5.915-11.355-9.519-16.664-6.638-10.413-13.279-21.548-21.979-30.413-4.357-4.44-13.043-8.91-15.271-15.082 9.382 3.953 18.55 8.337 27.669 12.861 14.182 7.036 26.258 14.188 34.726 27.867 6.278 10.141 11.666 20.666 17.41 31.098 4.855 8.816 10.149 17.318 14.54 26.399 3.833 7.926 8.339 22.777-1.867 27.601-3.078 1.455-6.103 1.957-9.504 1.395 2.737 0.02 5.184 1.132 1.114-3.457" style="fill:#e8c813"/></g><g clip-path="url(#clipPath270281)" style="opacity:.3"><g transform="translate(706.93 1825.4)"><path d="m0 0c0.743-3.336-0.109-7.396-1.593-11.392-4.587-12.357-10.898-24.153-18.461-34.936-11.233-16.016-25.174-29.767-40.47-41.86-3.106-2.803-6.423-5.343-9.962-7.55-0.141-0.102-0.278-0.209-0.419-0.311-3.036-4.23-6.26-8.299-9.856-11.963-4.357-4.439-13.043-8.909-15.271-15.082 9.382 3.953 18.55 8.337 27.668 12.861 14.183 7.036 26.259 14.188 34.727 27.868 6.278 10.141 11.666 20.666 17.41 31.097 4.855 8.816 10.148 17.318 14.54 26.399 3.271 6.765 7 18.554 1.687 24.869m-59.277-41.342c7.346 4.113 13.749 9.162 20.782 13.735 0.86 0.559 2.897 1.417 4.28 2.37-1.153-1.443-2.007-3.094-2.551-4.962-0.407-0.892-0.791-1.793-1.195-2.686 4.209 5.855 8.056 11.936 11.379 18.263 1.215 2.64 2.415 5.286 3.608 7.937-13.797-15.46-30.871-26.506-49.576-34.9-10.538-7.327-21.199-13.493-34.115-16.404-0.376-0.084-0.769-0.179-1.149-0.266 4.328 0.743 8.647 1.536 12.894 2.678 12.453 3.35 24.376 7.926 35.643 14.235m29.478 37.639c-0.249-0.466-0.54-0.947-0.849-1.433 3.459 3.404 6.472 7.165 8.741 11.451-1.65-0.411-3.31-0.786-4.988-1.088-15.206-9.119-31.446-15.529-48.578-20.125-0.285-0.308-0.673-0.563-1.208-0.712-12.653-3.529-24.653-2.545-36.456 0.176-3.112 0.515-6.186 1.202-9.231 2.014-0.716 0.025-1.416 0.028-2.141 0.063-7.396 0.357-18.108 1.65-25.204 3.779-1.908 0.572-6.513 0.462-9.088 0.276 9.637-3.196 19.558-5.665 29.358-8.333 16.037-4.366 30.83-7.214 47.431-4.969 19.122 2.585 35.868 8.832 52.213 18.901m-109.75 12.611c7.023-4.732 15.664-8.624 23.506-11.7 9.118-3.578 18.409-6.648 28.382-5.997 2.275 0.149 4.556 0.409 6.834 0.707 1.697 0.42 3.382 0.886 5.058 1.392 3.748 1.64 7.453 3.375 11.145 5.137-23.381 1.899-43.536 16.591-64.769 25.78-22.547 9.757-46.686 13.672-71.005 15.163-5.053-0.124-10.082-0.633-15.077-1.659-4.669-2.455-9.325-4.938-14.071-7.208 9.151 2.199 18.739 2.655 28.1 1.959 16.945-1.261 32.563-5.827 47.477-14.027 5.09-2.799 9.62-6.314 14.42-9.547m41.372 58.606c0.72-0.497 1.469-0.898 2.234-1.248 11.057-2.406 22.297-3.863 33.536-5.363-1.045 0.426-2.092 0.851-3.136 1.278-18.53 6.118-36.614 13.649-54.682 20.975-5.347 2.169-12.334 4.167-18.282 7.293 4.8-3.284 9.648-6.497 14.593-9.563 8.401-4.803 16.979-9.261 25.737-13.372m-51.385-15.66c-2.064 0.57-4.251 0.735-6.453 0.745 8.58-2.189 16.78-5.86 24.726-9.998 1.564-0.815 3.116-1.652 4.663-2.498 2.331-0.8 4.658-1.622 6.981-2.465-3.298 2.148-6.549 4.287-9.637 6.483-12.97 9.227-26.241 17.864-41.033 23.915-12.424 5.081-25.349 8.499-38.378 11.582 7.546-3.704 15.043-7.479 22.503-11.368 11.486-5.989 23.905-13.438 36.628-16.396m-92.426-26.531c4.259 1.472 8.383 3.259 12.442 5.2-0.352-0.084-0.708-0.153-1.059-0.243 1.779 0.456-12.193-2.741-11.383-4.957" style="fill:#6e5413"/></g></g><g clip-path="url(#clipPath270297)" style="opacity:.39999"><g transform="translate(693.68 1822.8)"><path d="m0 0c-1.097 0.121-2.253-0.458-3.286-0.331-0.377 0.046-0.698 0.268-1.062 0.283 0.102 0.175 0.248 0.484 0.447 0.976-0.161-0.317-0.339-0.648-0.521-0.979-0.053-2e-3 -0.104 8e-3 -0.16-6e-3 -5e-3 -0.102 8e-3 -0.186 0.051-0.192-0.932-1.674-1.921-3.217-1.463-2.377-3.131-5.754-6.057-11.612-9.072-17.426-4.694-9.05-9.976-18.01-13.102-27.759 2.345 3.434 4.091 7.26 6.159 10.871 1.654 2.888 3.515 7.125 6.321 9.095-5.832-14.925-12.86-29.688-22.387-42.619 5.239 5.704 10.12 11.559 14.473 17.971 4.85 7.146 9.309 14.537 14.001 21.787 1.247-0.557-6.093-14.048-7.286-16.171-4.075-7.25-9.108-13.523-14.357-19.93 0.863-0.498 7.75 6.673 6.779 5.71 5.357 5.314 10.985 11.505 15.258 17.733 6.63 9.663 11.776 20.015 13.04 31.779 0.417 3.878 1.814 10.963-3.833 11.585m-3.901 0.928c0.467 0.916 0.802 1.704 0.728 1.951-0.302-0.858-0.539-1.485-0.728-1.951m-26.089 2.776c4.579 2.442 9.125 4.996 13.625 7.58 3.263 1.875 6.348 3.927 9.39 6.137 0.416 0.303 0.977 0.583 1.434 0.917-0.207-0.218-0.361-0.467-0.373-0.797 2.588 2.8 3.688 6.798 2.993 10.429-0.12 0.626-0.06 1.243-0.046 1.864-0.122 0.171-0.237 0.334-0.328 0.471-2.013 3.029-4.22 6.016-6.546 8.823-3.855 4.654-8.246 8.994-12.921 12.815-3.423 2.797-6.693 5.699-10.755 7.548-2.471 1.125-5.087 1.651-7.657 2.471-1.981 0.632-3.859 1.685-5.878 2.132 1.903-2.186 5.521-3.534 7.731-5.125 2.938-2.114 5.409-4.478 7.807-7.186-0.902 0.041-1.707 0.418-2.415 1.132-3.184 1.495-6.511 2.562-9.979 3.202-5.758 1.106-11.669 1.733-17.499 2.289-6.237 0.594-12.476 1.134-18.713 1.747-4.475 0.447-8.957 0.8-13.446 1.057-1.697 0.459-3.343 0.43-4.938-0.09 8.496-3.509 17.721-4.889 26.171-8.532-12.557 2.11-25.209 3.842-37.677 6.443-5.564 1.16-11.094 2.417-16.567 3.955-2.331 0.697-4.657 1.412-6.977 2.145-0.633 0.405-1.295 0.547-1.986 0.426 5.125-2.438 10.621-4.14 15.808-6.451 10.037-4.474 19.845-9.33 30.153-13.192 9.405-3.524 19.216-6.806 29.327-7.43 6.654-0.411 13.323-0.033 19.978-0.263-9.2-1.129-19.253-0.489-28.33 0.517-8.194 0.908-16.312 2.623-24.516 3.325 5.841-3.532 14.522-5.307 20.793-6.764 6.573-1.527 13.175-2.731 19.822-3.878-10.01-0.405-20.275-0.143-30.27 0.298-3.873 0.222-7.746 0.445-11.618 0.668-6.285 0.625-12.372 2.067-18.26 4.326-6.856 2.411-13.412 5.263-20.491 7.018-7.484 1.856-14.625 2.088-22.257 1.367 1.207-0.371 2.563-0.345 3.807-0.525 5.783-0.838 11.581-2.956 17.156-4.653 15.026-4.574 29.654-10.318 44.692-14.848 11.289-3.401 22.491-7.189 34.395-7.48 6.937-0.169 13.912 0.625 20.671 2.127-0.203-0.045 5.444 1.493 5.703 1.176-4.041-1.374-8.124-2.218-12.341-2.858-8.081-1.227-17.05-2.161-25.138-0.798-5.784 0.974-11.211 2.749-16.721 4.675-3.681 1.286-7.165 2.677-11.064 2.852 0.952-1.304 2.233-2.18 3.844-2.627 3.925-2.174 8.035-3.947 12.331-5.32 7.55-2.655 15.227-4.984 23.154-6.169 7.672-1.147 15.01-0.574 22.438 1.607-0.246-1.321-4.528-4.044-4.762-4.221-3.531-2.662-7.034-5.38-10.781-7.729-3.661-2.294-7.622-3.85-11.458-5.832-3.271-1.689-6.454-3.539-9.731-5.215 0.795-0.328 3.129 0.686 3.917 0.915 6.871 1.994 13.594 4.7 20.311 7.154 5.121 1.87 10.174 3.808 14.988 6.375m27.327 25.693c0.266-0.648 0.593-1.419 1-2.348 0.031 0.729-0.497 1.612-1 2.348m-1.079 3.624c-0.036-0.327-0.099-0.654 0.77-2.859-2e-3 0.151-2e-3 0.301-0.018 0.452-0.092 0.881-0.767 1.572-0.752 2.407m0.77-2.859c2e-3 -0.109 7e-3 -0.219 5e-3 -0.328 0.097-0.138 0.198-0.284 0.304-0.437-0.115 0.278-0.217 0.531-0.309 0.765" style="fill:#fff"/></g></g><g transform="translate(520.41 1629.6)"><path d="m0 0 32.401-85.687 60.521-57.188s61.081-83.457 69.432-92.37c8.35-8.913 22.849-30.844 43.327-35.424s26.235-0.944 26.235-0.944 13.545 38.59 7.468 57.742c-6.076 19.151-46.047 63.939-46.047 63.939l-69.108 75.266-15.219 20.458s-3.182 11.005 13.639 28.489c16.822 17.483 45.749 46.727 45.749 46.727s19.53 10.285 18.974 14.74c-0.556 4.456-9.399 2.811-9.399 2.811s-24.062-10.215-28.662-16.866 1.041 13.42 1.041 13.42-10.506 18.939-15.083 26.614c-4.576 7.674-4.439 12.013-9.283 9.135s-2.037-12.686-2.037-12.686-4.289 5.371-6.682-0.833c-2.394-6.205-0.335-11.83-0.335-11.83s5.565-15.596 5.341-17.433c-0.223-1.838 2.346-4.295-5.038-10.388l-7.384-6.094 2.231 11.138s2.035 5.446-1.542 12.358c-2.113 2.659-2.269 2.476-3.609 3.545-1.29-1.191-7.154-7.936-7.154-7.936s3.508-2.73 2.058-9.245c-1.449-6.516-2.934-9.12-2.934-9.12s-0.8-4.468-9.879-11.483c-9.078-7.015-17.716-10.315-19.663-12.84-1.947-2.526-4.394 9.839-5.173 12.456-0.779 2.618 1.45 6.516-8.627 14.761s-12.471 9.304-16.871 8.303c-4.399-1.002-3.72-2.816-3.72-2.816s11.345-14.785 12.011-23.752l0.665-8.967s-7.96 9.415-14.029 10.92c-6.07 1.505-33.615 1.08-33.615 1.08" style="fill:#ffd1a8"/></g><g clip-path="url(#clipPath270317)" style="opacity:.3"><g transform="translate(578.86 1604.5)"><path d="m0 0c0.299 5.214-0.056 10.602-1.167 15.768-1.944 5.935-4.845 12.034-8.659 17.228-0.036 2e-3 -0.07-3e-3 -0.107 1e-3 -1.907 0.216-3.732 0.035-5.481 0.21 2.023-3.827 3.7-7.884 3.944-11.169l0.666-8.966s-2.808 3.311-6.356 6.321c0.699-3.038 1.074-5.918 1.119-8.27 0.25-13.008-3.779-26.608 3.891-38.392 3.132-4.811 8.068-8.31 13.374-10.376 1.597-0.622 3.389-0.857 5.01-1.441 0.183 0.144 0.375 0.279 0.584 0.381 0.024 0.128 0.051 0.255 0.078 0.383-1.702 3.332-3.375 6.708-4.379 10.38-2.508 9.174-3.059 18.489-2.517 27.942m66.171 30.142c-9.229-2.429-18.475-4.496-27.676-7.181-3.817-1.114-7.684-2.208-11.675-2.435-1.252-0.072-2.546 0.044-3.848 0.182-3.975-2.45-7.433-4.242-9.692-5.7 2.768-8.618 3.605-17.437 4.322-27.218 0.319-4.342 0.821-8.779 0.936-13.169 5.844 8.507 12.883 16.255 20.182 23.446 10.881 10.721 22.59 21.562 36.117 28.922-2.746 1.709-5.647 3.259-8.666 3.153" style="fill:#fff"/></g></g><g transform="translate(581.06 1623)"><path d="m0 0c3.349-6.416 6.041-13.137 8.28-20.015 1.867-5.734 2.447-13.928 6.741-18.524 3.641 23.533 29.446 43.424 51.084 50.882 5.223 2.675 10.484 5.308 15.315 8.748 0.163 0.116 0.333 0.209 0.506 0.285 1.4 1.491 2.785 2.999 4.171 4.505 0.317 0.403 0.63 0.807 0.953 1.206-1.062 1.419 2.655 14.647 2.655 14.647s-10.505 18.94-15.082 26.614-4.439 12.013-9.283 9.135-2.037-12.686-2.037-12.686-4.29 5.371-6.683-0.833c-2.393-6.205-0.334-11.83-0.334-11.83s5.564-15.596 5.341-17.433c-0.223-1.838 2.345-4.295-5.038-10.388l-7.384-6.094 2.23 11.138s2.036 5.446-1.541 12.358c-2.113 2.659-2.269 2.476-3.609 3.545-1.29-1.191-7.154-7.936-7.154-7.936s3.507-2.73 2.058-9.245c-1.45-6.516-2.935-9.12-2.935-9.12s-0.8-4.468-9.878-11.483c-9.079-7.015-17.716-10.315-19.663-12.84-1.947-2.526-4.394 9.839-5.173 12.456-0.779 2.618 1.449 6.516-8.628 14.761s-12.471 9.304-16.87 8.303c-0.781-0.178-1.395-0.382-1.888-0.596 9.971-8.141 17.871-18.111 23.846-29.56" style="fill:#f0b986"/></g><g transform="translate(655.39 1642.3)"><path d="m0 0c-1.883-1.459-5.133 0.064-4.643 2.61 1.02 5.294 2.783 10.542 2.993 15.928-1.144 3.006-2.404 5.921-3.403 8.937-3.711 6.041-5.123 11.059-5.973 17.989 1.684-1.498 0.114-0.062 0 0-0.206-2.618 0.24-8.257 0.418-10.604 1.308-6.452 2.8-7.191 5.259-13.145 9e-3 -0.012 1.471-2.061 1.223-3.833-1.948-13.939-0.797-11.782-4.664-16.107-2.905-3.249-16.334-2.889-16.334-2.889l0.135 0.671c-3.621-0.233-7.434-0.054-11.129-0.1-0.086-0.301-0.327-1.007-0.946-2.067 4.572 0.182 9.198-0.563 14.235-2.019 1.942-0.561 2.518-3.841 0.719-4.917-10.554-6.31-23.349-16.05-29.536-28.009 0.023-0.105 0.065-0.198 0.071-0.313 0.021-0.417 0.024-0.821 0.029-1.226 10.079 14.947 27.767 26.743 43.322 32.105 5.223 2.675 10.485 5.308 15.315 8.747 0.164 0.117 0.333 0.21 0.506 0.285 0.979 1.042 1.947 2.097 2.916 3.15-2.702-2.108-10.209-4.958-10.513-5.193" style="fill:#d9a26c"/></g><g transform="translate(759.8 1415.7)"><path d="m0 0c-6.076 19.151-46.047 63.939-46.047 63.939l-69.108 75.266-15.219 20.458s-3.183 11.006 13.639 28.489 45.749 46.727 45.749 46.727 19.529 10.285 18.974 14.74c-0.479 3.836-7.085 3.152-8.919 2.887-17.415-18.654-34.982-37.593-54.483-54.068-3.673-4.96-7.721-9.83-12.107-14.308-0.317-0.367-13.296-14.737-21.284-19.598 3.113-4.589 6.272-9.143 9.622-13.568 0.646-0.854 25.435-32.07 37.596-47.066 15.159-16.061 30.622-31.88 44.207-49.376 19.748-25.43 32.899-54.996 35.554-87.227 0.566-6.864 1.974-20.284-6.949-22.575-8.798-2.26-18.082 8.002-23.356 13.507-22.159 23.129-34.808 52.422-48.549 80.916-10.384 21.532-21.004 43.115-34.573 62.86-10.291 14.975-22.239 28.732-34.11 42.5-2.601 1.757-5.136 3.639-7.507 5.66-3.621 1.906-7.095 4.004-9.644 7.255-2.648 3.375-4.254 7.338-5.059 11.492-2.995 9.682-0.179 21.084 0.488 31.054-0.227 1.061-0.496 2.125-0.75 3.186 0.094-1.266 0.095-1.278 0.095-1.278s-7.96 9.414-14.03 10.919c-6.069 1.505-33.614 1.08-33.614 1.08l32.401-85.686 60.521-57.189s61.081-83.457 69.432-92.37c8.35-8.913 22.849-30.844 43.327-35.424s26.235-0.944 26.235-0.944 13.544 38.591 7.468 57.742" style="fill:#f0b986"/></g><g transform="translate(549.94 1559.7)"><path d="m0 0c-3e-3 -0.088-5e-3 -0.177-8e-3 -0.265 0.501 0.621 1.946 0.506 2.649 0.598 3.851 0.509 7.053 0.565 10.897-0.344 5.789-1.369 10.643-3.897 15.539-7.247 2.96-2.084 5.868-4.238 8.724-6.462 0.78-0.778 1.669-1.366 2.666-1.766-2.637 0.376-5.888 0.147-8.503-0.021-3.524-0.227-6.945-0.978-10.074-2.668-1.688-0.913-3.295-1.927-4.989-2.818-0.522-0.274-1.042-0.601-1.519-0.956-0.672-0.501-1.338-1.021-1.886-1.678-2.226-2.668-3.4-6.207-5.817-8.688-0.905 1.886-1.199 3.883-1.689 5.914-1.615 6.708-3.686 13.275-5.789 19.844-0.829 2.591-1.984 5.511-2.045 8.28-0.017 0.782-0.112 1.852 0.318 2.563 0.43-1.021 0.122-1.896 1.086-2.735 0.661-0.577 1.493-1.102 2.206-1.636-0.369 0.341-0.029 0.362-1.766 0.085" style="fill:#d9a26c"/></g><g transform="translate(706.67 887.6)"><path d="m0 0s13.352 63.298 5.341 105.02c-8.011 41.724-169.68-3.004-169.68-3.004 4.119-6.26 30.383-217.68 30.383-217.68s12.343-109.44 10.09-118.14c-2.253-8.705-12.729-52.232-20.536-80.835s-22.173-130.58-21.666-156.7 0.828-121.88 0-129.34c-0.828-7.462-2.967-39.796-9.909-52.232-6.941-12.437-24.843-21.142-24.571-41.04s-2.942-26.116 0-42.283c2.624-14.417 0.136-41.673-2.038-50.054 1.956-3.572 4.734-6.824 7.824-5.553 0.783 0.322 1.755-0.47 1.71-1.275-0.17-3.067-0.202-6.116-0.44-9.166 1.106-1.389 13.937-17.543 17.515-23.492 3.74-6.219 58.404-9.95 58.404-9.95s6.361-6.218 9.228 17.411c2.868 23.629-14.49 50.988-15.825 54.719s1.335 88.297 0 101.98 33.38 138.04 34.715 143.02c1.335 4.974 48.067 121.87 48.067 190.27s-6.676 113.17-5.341 119.39c1.336 6.218 46.732 208.93 46.732 208.93" style="fill:#ffd1a8"/></g><g clip-path="url(#clipPath270353)" style="opacity:.3"><g transform="translate(504.99 160.52)"><path d="m0 0c0.094 0.422 0.174 0.844 0.273 1.266 4.939 21.096 16.138 37.032 28.224 54.481 9.689 13.987 15.825 28.396 18.274 45.285 3.317 22.87 3.322 46.466 4.543 69.521 1.302 24.609 2.665 49.22 4.74 73.778 4.215 49.884 12.592 99.304 23.425 148.16 2.771 12.495 5.731 24.949 8.891 37.352 2.947 11.57 6.759 23.03 8.102 34.937 2.646 23.449-1.247 47.218-2.274 70.653-3e-3 0.081 4e-3 0.157 2e-3 0.237-3.796 33.659-6.306 67.441-8.099 101.28-2.637 19.099-5.102 38.223-7.154 57.409-5.183 48.432-10.132 99.999 8.12 146.32-27.959-5.564-49.737-11.586-49.737-11.586 4.119-6.26 30.383-217.68 30.383-217.68s12.343-109.44 10.09-118.14c-2.253-8.705-12.728-52.232-20.536-80.835-7.807-28.603-22.173-130.58-21.666-156.7s0.828-121.88 0-129.34c-0.828-7.461-2.967-39.795-9.909-52.232-6.941-12.436-24.843-21.141-24.571-41.039 0.215-15.684-1.726-22.882-1.121-33.139" style="fill:#fff"/></g></g><g transform="translate(706.67 887.6)"><path d="m0 0s13.352 63.298 5.341 105.02c-8.011 41.724-169.68-3.004-169.68-3.004 0.853-1.296 2.657-11.405 4.979-26.595 16.664-5.805 33.778-10.309 51.277-12.752 14.336-2.002 28.67 1.214 43.036 0.016 12.668-1.057 24.849-5.458 32.03-16.607 7.229-11.222 9.35-26.222 10.189-39.261 1.926-29.91-5.146-60.381-12.871-89.072-1.499-24.673-7.287-49.444-14.208-72.214-1.669-5.49-3.448-11.027-5.346-16.547-5.52-18.421-13.77-36.081-23.025-51.318-2.867-4.721-7.225-6.402-11.376-6-0.038-0.021-0.072-0.045-0.109-0.066-3.506-1.888-7.19-3.366-10.87-4.857 4.365-5.828 9.976-10.924 14.555-16.369 3.001-3.568 5.57-7.169 7.749-10.903 20.928-29.395 18.243-73.499 12.103-108.42-8.601-48.912-25.311-96.375-37.359-144.5-9.511-37.988-18.211-76.175-28.02-114.09-4.519-17.468-8.372-33.612-8.535-51.74-0.14-15.551-0.708-30.772-2.073-46.278-1.251-14.218-3.167-29.551-0.362-43.694 2.079-10.485 7.036-17.312 14.816-24.339 7.001-6.325 14.411-12.259 19.724-20.148 0.399 22.459-14.885 46.651-16.135 50.143-1.335 3.731 1.335 88.297 0 101.98s33.38 138.04 34.715 143.02c1.335 4.974 48.067 121.87 48.067 190.27s-6.676 113.17-5.341 119.39c1.336 6.218 46.732 208.93 46.732 208.93" style="fill:#f0b986"/></g><g transform="translate(587.29 114.52)"><path d="m0 0c-2.873-15.375-1.508-30.349-16.254-29.062-21.128 1.844-41.367 29.986-44.311 47.828-4.802 29.106 0.459 59.067-7.641 87.444-6.672-7.136-11.357-11.055-14.203-22.724-3.488-14.302-1.704-30.469 1.239-46.636 2.613-14.356-0.213-41.248-2.134-49.882 1.96-3.638 4.78-7.016 7.919-5.725 0.783 0.322 1.756-0.47 1.711-1.275-0.171-3.078-0.204-6.138-0.443-9.199 1.151-1.845 12.087-19.252 17.518-23.459 11.637-9.017 30.234-27.593 56.745-21.997 4.535 0.957 8.02 5.829 10.887 29.458 1.977 16.294-5.661 34.358-11.033 45.229" style="fill:#5c004b"/></g><g clip-path="url(#clipPath270377)" style="opacity:.2"><g transform="translate(509.18 119.59)"><path d="m0 0c-0.144-7.813-0.286-15.648-0.771-23.453 1.095-0.652 2.267-0.871 3.489-0.368 0.783 0.322 1.756-0.47 1.711-1.276-0.062-1.12-0.105-2.237-0.145-3.353 0.186 4.077 0.573 8.15 1.029 12.222-0.066 7.349-0.593 14.688-1.763 21.994-0.933 5.824-2.354 11.49-4.034 17.078 0.52-7.578 0.625-15.19 0.484-22.844"/></g></g><g clip-path="url(#clipPath270393)" style="opacity:.2"><g transform="translate(587.29 114.52)"><path d="m0 0c-1.912-10.234-1.971-20.261-6.129-25.462 4.823-9.936 5.913-20.816-1.592-29.927-3.896-4.729-21.222-12.833-25.941-13.854 11.318-4.659 22.974-8.475 33.808-5.444 4.463 1.249 8.02 5.829 10.887 29.458 1.977 16.294-5.661 34.358-11.033 45.229"/></g></g><g clip-path="url(#clipPath270409)" style="opacity:.3"><g transform="translate(517.87 213.24)"><path d="m0 0c0.45-2.418 0.717-4.829 0.998-7.276 0.458-3.476 0.81-6.962 1.056-10.46 0.637-1.64 0.383-2.892-0.762-3.756-0.683 0.649-1.327 1.335-1.933 2.056-0.518 0.816-1.253 1.35-2.205 1.6-0.921-0.895-1.231-2.008-0.928-3.34 0.144-1.33 0.053-2.64-0.273-3.93-0.575-1.067-1.831-1.328-2.495-2.311-0.627-0.926-0.804-2.294-0.562-3.379 0.355-0.329 0.536-0.75 0.544-1.265 0.074-1.498-0.01-2.989-0.251-4.471-0.249-1.991-0.847-4.067-0.959-6.073-0.151-2.7 1.458-4.583 1.81-7.135 0.249-1.807-0.51-3.272-0.85-4.968-0.301-1.501 0.157-2.478 0.828-3.757 1.141-2.179 1.823-4.516 2.504-6.869 1.376-4.751 3.127-9.407 4.408-14.181 0.841-3.137 1.729-6.338 1.556-9.618-0.165-3.116-1.198-6.093-0.095-9.169 0.645-1.797 1.912-3.35 3.157-4.772 1.428-1.63 2.626-1.665 2.107-4.14-0.523-1.53-1.09-3.043-1.699-4.541-0.787-0.966-0.824-1.81-0.113-2.532 1.571 0.598 3.146 1.187 4.724 1.766 1.599 0.662 3.177 0.67 4.736 0.025 0.647-1.315 0.225-2.368-1.267-3.162-1.466-1.144-2.511-2.586-3.133-4.324-0.309-1.287-0.25-3.9 1.176-4.58 1.473-0.703 3.497 1.044 4.968 0.084 0.98-0.833 1.146-1.857 0.497-3.073-0.5-0.984-0.623-1.993-0.37-3.029 2.379-0.776 4.934-0.51 7.373-1.151 1.346-0.355 2.68-1.001 4.05-1.225 0.894-0.147 2.711 0.713 3.409 0.294 0.148-0.191 0.297-0.381 0.445-0.572-0.34-1.348-0.461-2.719-0.363-4.112 0.414-2.441 2.087-3.86 4.182-4.844 1.316-0.619 1.06-0.644 0.992-1.899-0.203-3.726 3.235-5.03 5.792-6.901-1.161 0.585-2.791 0.25-3.959-0.122-1.334-0.425-2.108-1.534-3.384-2.027-2.456-0.949-5.291 0.275-7.486 1.391-2.801 1.424-5.06 3.338-7.454 5.362-7.185 6.075-15.999 11.912-20.683 20.347-1.661 2.991-2.942 6.433-2.724 9.902 0.254 4.073 1.034 8.055 1.096 12.155 0.064 4.135-0.103 8.157-0.624 12.26-0.296 2.328-0.615 4.596-1.234 6.86-0.686 2.509-1.479 4.997-2.189 7.501-0.955 3.372-1.412 6.822-2.25 10.236-0.552 2.252-1.059 4.53-1.815 6.724-0.556 1.609-1.077 3.111-1.32 4.81-0.527 3.689-0.934 7.383-1.473 11.07-0.628 4.294-0.884 8.603-1.06 12.933-0.247 6.048 1.115 11.593 3.217 17.236 1.508 4.05 3.579 7.928 6.499 11.152 0.841 0.928 1.958 1.909 3.097 2.341 0.267 0.102 0.362 0.205 0.684 0.245 0.381 0.048 0.764-0.172 0.986 0.257-0.122-0.502-0.24-1.005-0.978 0.357" style="fill:#fff"/></g></g><g transform="translate(553.39 1015.7)"><path d="m0 0-156.83 6.162c-3e-3 -1.099-0.062-2.207-0.197-3.317-2.599-21.457-2.335-42.673-0.27-63.736 0.266-1.826 0.54-3.648 0.83-5.46 3.451-21.619 7.736-43.091 11.423-64.674 6.046-26.124 13.106-52.163 19.157-78.287 8.183-28.775 14.112-49.513 14.509-50.604 1.36-3.731 11.05-55.963 6.885-69.643s-47.673-39.796-47.673-39.796-70.583-37.309-90.357-75.861c-18.2-35.484-48.441-174.19-64.801-217.38-25.615-17.159-56.135-21.184-74.062-56.303-18.094-35.445 2.742-12.57-9.697-36.939-12.439-24.368-29.477-33.822-24.233-50.462 5.245-16.64 28.654-42.553 28.654-42.553s11.545-11.478 23.696-6.511c12.153 4.967 26.155 32.566 29.429 56.027 3.274 23.462 20.074 49.493 22.901 55.031 2.185 4.28 23.425 30.824 37.286 52.077 0.029-0.018 0.058-0.035 0.086-0.053 0.612 0.863 1.786 2.792 3.408 5.57 1.728 2.814 3.276 5.484 4.549 7.919 22.527 39.659 83.239 150.89 96.825 166.42 16.316 18.654 84.293 100.73 97.212 114.41 12.918 13.679 32.535 17.41 41.761 41.039s35.049 129.34 37.773 206.44c2.725 77.104-8.268 150.48-8.268 150.48" style="fill:#ffd1a8"/></g><g transform="translate(553.39 1015.7)"><path d="m0 0-156.83 6.162c-3e-3 -1.099-0.062-2.207-0.197-3.317-2.184-18.036-2.328-35.9-1.097-53.648 29.314-5.57 60.543 4.452 90.031-2.696 35.399-8.58 51.703-41.459 57.189-74.984 6.005-36.697 1.397-73.324-2.926-109.9-3.54-29.956-3.393-61.112-14.249-89.673-4.662-12.266-11.611-24.663-22.834-32.002-9.638-10.879-23.272-17.375-37.249-21.675-2.088-2.032-4.103-4.133-6.124-6.228-11.804-30.625-32.255-57.29-54.294-81.924-26.836-29.997-53.964-58.334-75.565-92.514-21.732-34.388-41.551-70.569-54.992-109.07-0.114 0.021-0.223 0.046-0.336 0.065-2.378-9.045-8.483-17.497-12.663-25.78-4.806-9.524-9.554-19.099-15.321-28.089-10.972-17.105-24.541-31.777-30.592-51.61-6.008-19.692-7.69-40.698-17.04-59.29-3.74-7.437-8.415-14.268-13.873-20.399 1.949 0.04 3.961 0.38 5.996 1.212 12.153 4.967 26.155 32.566 29.429 56.027 3.274 23.462 20.074 49.493 22.901 55.031 2.185 4.28 23.425 30.824 37.286 52.077 0.028-0.018 0.057-0.035 0.086-0.053 0.612 0.863 1.786 2.792 3.408 5.57 1.728 2.814 3.276 5.484 4.549 7.919 22.527 39.659 83.239 150.89 96.825 166.42 16.316 18.654 84.293 100.73 97.212 114.41 12.918 13.679 32.535 17.41 41.761 41.039s35.049 129.34 37.773 206.44c2.725 77.104-8.268 150.48-8.268 150.48" style="fill:#f0b986"/></g><g clip-path="url(#clipPath270433)" style="opacity:.3"><g transform="translate(464.81 724.07)"><path d="m0 0c-6.248 38.006-8.34 76.759-12.878 114.98-2.019 14.894-4.056 29.786-5.989 44.686-4.682 28.346-9.502 56.699-12.145 85.32-0.9 9.741-0.343 19.004 0.42 28.737 0.35 4.466 0.708 8.938 0.8 13.418 0.046 2.233-0.111 4.452-0.117 6.679-2e-3 0.655-1.129 2.808 0.062 0.737-0.337 0.586-0.602 1.168-0.837 1.748l-37.56 1.476c-3e-3 -1.099-0.062-2.207-0.196-3.317-2.599-21.457-2.336-42.673-0.271-63.737 0.266-1.825 0.54-3.647 0.83-5.46 3.451-21.619 7.736-43.09 11.423-64.673 6.046-26.125 13.106-52.163 19.157-78.287 8.184-28.776 14.112-49.513 14.51-50.605 1.359-3.731 11.049-55.963 6.884-69.643-4.165-13.679-47.673-39.795-47.673-39.795s-70.583-37.309-90.356-75.861c-18.2-35.485-48.441-174.19-64.801-217.38-25.616-17.159-56.136-21.185-74.063-56.304-18.093-35.445 2.743-12.57-9.697-36.938-11.568-22.662-27.103-32.428-25.005-47.068 1.752 1.743 3.469 3.638 5.352 5.761 12.133 13.692 22.131 29.212 31.942 44.599 15.7 24.626 29.292 52.018 53.401 69.367 3.371 2.426 6.962 4.173 10.553 6.461 0.119 0.109 0.228 0.224 0.367 0.324 2.145 1.444 4.02 3.122 5.722 4.947 6e-3 -3e-3 0.012-7e-3 0.019-0.01 0.108 0.116 0.203 0.242 0.31 0.358 0.472 0.519 0.93 1.049 1.376 1.59 0.356 0.431 0.7 0.873 1.041 1.317 0.229 0.298 0.456 0.597 0.679 0.9 0.319 0.435 0.637 0.871 0.945 1.315 0.036 0.052 0.07 0.105 0.106 0.157 1.023 1.486 2 3.01 2.937 4.566 15.771 38.847 27.488 79.358 42.525 118.49 19.853 51.66 44.968 100.75 88.722 136.1 19.662 15.887 42.903 28.145 61.117 45.661 13.788 13.258 19.577 29.052 21.651 47.124-0.322 7.431-0.749 14.853-1.263 22.267" style="fill:#fff"/></g></g><g transform="translate(219.86 214.67)"><path d="m0 0c-5.953-8.996-13.338-18.163-23.237-21.735-13.563-4.894-24.916 6.497-30.256 17.939-9.78 20.962 6.93 43.474 17.51 60.774 12.154 19.875 27.686 41.535 31.265 65.246-17.29-8.8-33.829-19.207-45.402-41.878-19.127-37.469 2.899-13.288-10.25-39.048-13.15-25.76-31.162-35.754-25.617-53.344 5.544-17.591 30.29-44.983 30.29-44.983s12.204-12.134 25.05-6.883 26.424 33.744 29.885 58.545c0.258 1.851 0.512 3.627 0.762 5.367" style="fill:#5c004b"/></g><g clip-path="url(#clipPath270453)" style="opacity:.2"><g transform="translate(219.1 209.31)"><path d="m0 0c0.258 1.85 0.511 3.627 0.762 5.367-3.883-5.868-8.38-11.798-13.782-16.211-8.161-17.871-19.137-35.98-42.291-28.437-6.451 2.102-11.947 5.278-16.836 9.142 8.318-11.676 17.212-21.524 17.212-21.524s12.203-12.133 25.049-6.883c12.846 5.251 26.425 33.744 29.886 58.546"/></g></g><g clip-path="url(#clipPath270469)" style="opacity:.3"><g transform="translate(140.64 198.87)"><path d="m0 0c0.358-0.26 0.704-0.558 1.018-0.942 3.177-3.891 7.748-9.654 12.959-10.667 6.442-1.253 2.767 8.318 2.306 12.693-0.01 0.011-0.022 0.019-0.032 0.03-0.266 0.787-0.533 1.575-0.799 2.362 0.187 1.361 0.375 2.722 0.565 4.082-0.784 1.782-3.796 1.836-4.122 3.84l0.333 2.403c0.87 1.303 1.635 2.664 2.295 4.083-0.579 0.772-1.325 1.338-2.24 1.698-1.155 1.67-1.396 3.516-0.724 5.535 0.515 4.052 1.962 8.083 3.486 11.862 2.482 6.155 6.854 11.063 9.835 16.912 1.659 3.254 2.936 6.382 4.008 9.882 0.659 2.152 1.325 4.195 2.325 6.213 2.22 4.48 4.438 8.893 5.283 13.889 0.381 2.255 0.45 4.095 1.614 6.113 1.179 2.044 2.65 3.811 4.063 5.686 1.079 1.432 1.789 2.776 2.254 4.483 0.54 1.986 1.473 3.982 3.136 5.312 0.818 0.654 1.857 0.739 2.545 1.532 0.541 0.918 1.026 1.866 1.452 2.844 0.24 0.786 0.688 1.406 1.345 1.859 0.396-0.084 0.792-0.173 1.187-0.265 0.69-0.272 1.312-0.059 1.867 0.64 1.181 1.397 2.113 2.946 2.794 4.646 0.153 1.324 0.799 1.986 1.939 1.986 0.606-0.603 1.036-1.306 1.291-2.108 0.045-0.633 0.366-1.003 0.962-1.11 1.798 3.425 3.073 7.048 4.496 10.637 0.631 1.593 1.369 3.19 1.929 4.819 0.185-1.67-0.059-2.013-0.304-2.356 0.745 0.472 0.639 1.723 0.676 2.523-0.435 0.176-1.699 0.042-2.139-0.032-1.311-0.222-2.726-1.263-3.89-1.885-1.924-1.026-3.782-2.163-5.716-3.175-4.075-2.132-7.668-4.966-10.842-8.29-3.783-3.962-7.512-8.465-10.125-13.297-2.563-4.738-4.953-9.498-6.561-14.652-1.719-5.507-2.397-11.301-4.008-16.85-1.4-4.821-3.14-9.724-4.971-14.402-1.766-4.511-3.722-9.144-6.364-13.222-2.901-4.478-6.641-8.354-9.106-13.115-1.593-3.075-2.902-6.475-4.836-9.361-0.861-1.285-1.646-2.552-2.583-3.738-0.392-0.496-0.754-1.422-1.013-1.993-0.43-0.946-0.949-2.127-1.066-3.139-0.251-2.186 0.343-4.608 0.756-6.725 0.499-2.56 1.465-4.967 2.722-7.24" style="fill:#fff"/></g></g><g transform="translate(717.62 1102.9)"><path d="m0 0c-10.475 35.034-24.51 85.105-48.649 108.16-59.471 56.795-240.97 16.759-240.97 16.759s-30.355-33.699-42.627-85.642c-2.669-11.298-5.636-25.27-8.645-40.217-4.88-39.832-5.942-80.175-8.357-120.37 35.512-0.5 129.46-2.229 162.4-6.863 40.957-5.76 105.43-11.898 139.61-8.31 18.905 1.985 37.152 5.775 49.708 8.771 2.798 42.661 2.307 85.28-2.464 127.71" style="fill:#407fa8"/></g><g clip-path="url(#clipPath270489)" style="opacity:.3"><g transform="translate(717.65 974.61)"><path d="m0 0c5.978 39.268 7.041 79.679 0.833 118.64-0.236 1.479-0.34 2.956-0.338 4.414-0.278 0.786-0.58 1.586-0.906 2.426-0.878 2.265-1.104 4.62-0.84 6.929-10.33 34.754-24.02 82.089-47.422 104.04-51.932 48.712-240.97 16.76-240.97 16.76s-8.668-9.628-18.612-26.514c2.682-4.099 5.676-7.924 8.901-11.546 8.209-4.498 16.346-9.134 24.451-13.832 15.169-5.82 30.394-11.507 45.034-18.663 16.841-8.23 33.672-18.474 46.16-32.702 4.961-5.03 9.052-10.735 11.712-17.265 0.699-1.393 1.375-2.804 1.995-4.257 0.87-2.037-1.817-4.405-3.627-3.179-3.32 2.249-6.671 4.454-10.025 6.655-0.802-0.234-1.704-0.12-2.397 0.502-1.636 1.469-3.298 2.919-4.978 4.356-9.212 6.094-18.304 12.356-26.742 19.541-8.356 4.749-16.96 8.957-25.717 12.832 7.022-5.834 13.631-12.039 19.351-19.035 25.97-31.758 41.234-71.375 55.163-110.33 7.448 29.884 9.782 61.969 29.821 86.117 10.457 12.601 23.851 22.476 37.222 31.534 5.683 3.849 12.291 8.699 19.283 10.513 0.348 0.574 0.746 1.141 1.26 1.691 22.211 23.763 39.729-43.088 43.839-56.666 11.642-38.458 16.707-78.805 11.796-118.16 9.643 1.639 18.499 3.514 25.751 5.201" style="fill:#00324f"/></g></g><g transform="translate(580.97 1199.7)"><path d="m0 0c5.035-7.112 2.287-18.385 2.901-26.809 0.842-11.571 2.317-23.155 1.901-34.777-0.408-11.428-2.24-23.646-9.241-33.063-5.506-7.407-23.726-21.366-30.921-9.25-5.227 8.8 3.004 30.336 4.156 39.774 1.914 15.693 2.682 31.685 1.21 47.449-0.897 9.597-7.996 17.416 3.643 22.362 7.751 3.293 21.187 1.607 26.351-5.686 4.655-6.575-5.942 8.392 0 0m114.2-30.083c-8.324-14.763-27.3-16.498-42.193-17.288-17.348-0.921-26.204 10.764-33.315 25.433-3.863 7.97-6.552 16.468-9.732 24.701-3.251 8.416-8.029 11.15-16.975 13.501-15.909 4.181-33.572 1.912-49.522-0.878-10.003-1.749-19.998-4.335-30.202-4.616-7.862-0.217-16.812 2.845-24.471 1.78-8.589-1.195-5.93-3.812-5.336-11.141 0.594-7.334 0.36-15.074-2.002-22.118-5.114-15.256-18.384-21.102-33.612-21.822-10.848-0.513-21.757 1.469-32.252 4.012-4.557 1.105-9.071 2.379-13.581 3.659-7.969 2.261-8.509 3.833-11.254-4.234 30.392-5.868 63.207-29.45 87.771 2.559 4.488 5.849 7.723 12.566 10.303 19.439 1.488 3.965 2.846 17.097 6.398 19.648 0.321 0.231 9.658-0.955 8.614-0.893 4.907-0.293 10.216 0.679 15.126 0.843 6.95 0.231 15.865 1.015 21.493-3.843 10.597-9.146 6.899-29.434 6.272-41.644-1.025-19.957-2.68-39.593-6.383-59.261-3.698-19.646 4.363-32.684 7.715-56.002 2.997-20.853 18.201-48.409 14.072-69.115 6.844-0.735 5.066-3.134 7.691 2.257 1.97 4.045-26.625 105.52-24.699 109.79 2.826 6.276 7.39 1.454 13.185 2.089 8.655 0.948 17.02 5.553 22.495 12.315 12.27 15.156 8.745 41.819 7.884 59.901-0.501 10.518-1.352 21.2-3.101 31.596-0.707 4.197-7.904 18.482-5.155 21.168 1.4 1.369 10.467-0.533 12.272-1.042 5.026-1.419 7.107-3.846 9.674-8.257 4.742-8.149 7.485-17.494 11.628-25.954 8.641-17.642 20.762-30.638 41.719-29.323 8.546 0.537 45.741 8.178 39.473 22.739-7.157-12.692 0.239-0.556 0 0" style="fill:#2a536e"/></g><g clip-path="url(#clipPath270509)" style="opacity:.2"><g transform="translate(648.37 1110)"><path d="m0 0c-7.147-6.044-15.361-10.45-23.891-14.088-9.43-4.023-19.574-7.326-28.38-12.742 1.628-0.688 3.476-0.885 5.189-1.27 3.197-0.719 6.203-1.496 9.174-2.918-1.139-2.194-2.862-3.837-5.168-4.928-4.251-3.765-7.532-8.286-9.844-13.565-3.081-7.416-5.309-15.1-6.683-23.05-1.415-6.948-2.554-13.942-3.415-20.981-1.079-7.984-1.444-15.869-1.601-23.819 10.694 0.948 25.607 2.145 35.63 8.253 0.213 2.867 0.486 5.727 0.857 8.569 1.369 10.469 3.791 20.882 6.088 31.167 2.577 11.545 5.286 23.04 8.88 34.302 2.399 7.518 5.305 14.696 8.852 21.721 2.31 4.579 4.727 9.104 6.929 13.738 0.459 0.966 0.866 1.941 1.271 2.917-1.223-1.379-3.147-2.679-3.888-3.306m-146.17-93.098c-6.876 16.166-14.6 31.382-23.541 46.283-9.11 15.182-18.311 30.355-28.291 44.858 0.982-0.055 1.961-0.36 2.918-0.606 4.784-1.226 9.522-2.761 14.265-4.178 6.279-1.876 12.446-4.114 18.528-6.699 2.181-0.882 4.337-1.84 6.48-2.835-11.237 14.26-22.316 28.682-32.345 43.995-2.588-1.417-5.191-2.78-8.028-3.789-6.229-2.217-12.26-3.41-18.888-3.224-9.448 0.265-19.192 2.21-28.481 4.114-1.675 0.351-3.346 0.725-5.018 1.09 0.467-4.562 1.309-9.075 0.901-13.678-0.467-5.269-3.037-9.078-6.399-12.186 0.265-9.526 5.848-18.344 3.176-28.246-1.735-6.43-5.625-12.275-7.809-18.566-2.434-7.01-4.196-14.275-5.846-21.569-0.294-3.359-0.466-6.781-0.476-10.31-0.023-7.736 0.218-15.455 0.2-23.165 13.156 2.663 28.17 0.525 40.479 0.334 16.882-0.262 33.66-2.287 50.301-5.441 10.997-1.535 21.933-3.952 32.769-7.545l0.024-6e-3 -1e-3 -1e-3c0.201-0.067 0.402-0.126 0.602-0.193 0.235-0.079 0.439-0.19 0.615-0.325 0.412 0.176 0.824 0.352 1.232 0.559 0.469 2.571-1e-3 4.923-1.41 7.058-2.003 4.749-3.988 9.506-5.957 14.271" style="fill:#fff"/></g></g><g transform="translate(525.38 1633.3)"><path d="m0 0-8.316-1.037s30.24-82.848 25.636-84.629-94.232-8.662-114.09-4.239c-19.855 4.422-88.606 16.358-88.606 16.358s17.24 52.83 23.925 62.11c6.684 9.28 18.509 35.391 18.509 35.391l-12.035 3.676s-29.051-51.536-34.919-64.938-15.898-39.389-16.864-41.319c-0.966-1.931-5.444-4.249-9.739-3.905s-5.158-26.593-4.955-37.889c0.202-11.296 6.051-72.708 6.422-75.678 0.37-2.971 9.789-44.631 24.631-71.739 14.843-27.108 64.539-101.51 65.259-102.44 0.72-0.938 13.049-22.406 13.049-22.406s-12.096 0.256-9.285-7.777c2.812-8.033 9.995-12.422 9.995-12.422s-11.005 6.012-14.256-1.779c-3.251-7.79-1.623-11.17-1.623-11.17s2.305-8.812 11.955-13.635c9.651-4.822 84.406-18.961 117.34-16.997 32.933 1.965 52.228-2.803 80.784 10.078 28.555 12.881 43.998 26.084 45.115 30.842 1.117 4.757 7.849 10.412-2.53 20.284-10.379 9.873-17.21 6.607-17.21 6.607l-3.784-3.523s-36.628 37.339-41.846 45.314c-5.217 7.975-31.827 47.215-30.916 49.578 0.912 2.363-15.715 43.781-16.487 59.646s-2.209 39.215-2.209 39.215 17.85 9.467 25.206 23.054 10.921 18.858 9.96 36.235c-0.96 17.376-10.135 42.569-10.135 42.569l-21.987 60.211z" style="fill:#5c004b"/></g><g clip-path="url(#clipPath270529)" style="opacity:.2"><g transform="translate(431.32 1233.5)"><path d="m0 0c0.694 0.195 1.396 0.392 2.321 0.467-0.76-0.162-1.531-0.315-2.321-0.467m86.393-23.148c-16.989 3.304-34.714 5.711-50.145 14.101 7.677 0.183 83.684-9.675 85.518 4.223-23.43 3.197-47.416 3.075-70.356 9.373 6.478 3.497 28.015 2.872 27.685 14.862-0.127 4.589-17.292 13.215-23.848 14.396-45.055 8.12-48.498 20.865-55.827 26.822-70.485 57.283-35.405 42.038-87.716 99.917 36.247-80.232 56.31-93.642 60.337-99.26 15.336-21.394 32.199-24.792 35.512-41.688 5.388-27.473-0.537-17.633-23.647-17.581-3.032-14.372 59.368-31.696 68.965-33.492 25.268-4.727 69.721-13.208 93.834-2.402-18.612 6.371-41.021 6.978-60.312 10.729-16.944 3.295 15.826-3.077 0 0m22.998 318.8c-1.884 3.212-10.05 11.615-14.852 9.911 1.176-0.339 2.358-0.659 3.545-0.957-30.77 0.746-59.284-4.917-90.434-1.145-16.125 1.953-32.233 4.001-48.29 6.463-15.727 2.411-36.028 8.696-51.587 2.212 0.96-18.945 3.883-27.399 9.834-35.683 11.497-16.005 20.601-16.025 28.035-18.014 25.32-6.774 62.734 21.691 87.518 23.799 6.911 0.588 87.224-43.107 76.231 13.414-0.707 3.632 0.62-1.058 0 0" style="fill:#fff"/></g></g><g clip-path="url(#clipPath270545)" style="opacity:.3"><g transform="translate(650.78 1238)"><path d="m0 0c-10.379 9.872-17.21 6.607-17.21 6.607l-3.784-3.523s-36.628 37.338-41.846 45.313c-5.217 7.975-31.827 47.215-30.916 49.578 0.912 2.364-15.715 43.782-16.487 59.647s-2.209 39.215-2.209 39.215 17.85 9.466 25.206 23.054c7.356 13.587 10.921 18.858 9.96 36.234-0.96 17.377-10.135 42.57-10.135 42.57l-21.987 60.21-15.996 36.36-8.316-1.038s4.353-11.927 9.504-26.825c11.808-19.999 21.287-41.099 27.941-63.616 6.19-20.95 12.541-50.394-2.802-69.163-21.599-26.423-63.81-9.315-91.895 1.04-10.715-6.888-24.815-10.627-37.318-12.606-10.508-4.099-21.759-5.747-33.107-4.522-5.856 0.632-11.771 1.917-17.571 3.747-10.906 1.916-20.907 5.919-26.891 13.632-6.295 4.686-11.857 10.232-16.326 16.534-2.49 2.196-4.997 4.288-7.189 6.594 1.541-11.472 4.114-22.733 7.826-33.629 3.143-4.661 6.647-9.074 10.608-13.113 11.466-11.694 24.769-16.733 40.945-17.203 19.609-0.569 37.544 1.868 56.7 5.494 14.374 2.721 7.256 7.674 21.122 3.129 28.54-9.355 23.453-78.988 33.409-103.76 12.832-31.926 83.648-89.715 70.843-99.011-6.908-5.015 43.906 1.67 49.51-4.791 4.972-5.731-37.066-12.824-30.951-17.171 9.889-7.031 41.083 8.598 36.574-1.334 2.127-4.463 1.374-9.777-2.892-13.963-4.904-4.813-12.422-7.301-18.981-8.844-11.285-2.653-23.682-1.921-35.193-1.597-14.089 0.396-28.196 0.889-42.274 1.59-25.844 1.287-54.035 2.911-77.482 14.95-11.101 5.7-20.671 13.438-28.589 23.08-2.212 2.693-4.303 5.45-6.378 8.202-1.994-1.096-3.353-2.982-2.202-6.271 2.812-8.032 9.995-12.421 9.995-12.421s-0.789 0.425-1.99 0.901c4.844-2.903 9.255-6.901 13.5-10.298 0.416-0.332 0.686-0.715 0.849-1.116 3.526-1.771 11.991-5.662 12.231-6.233 2.651-0.735 5.314-1.42 7.986-2.018 3.389-0.759-22.699 0.549-32.873 5.574-5.573 2.017-11.156 4.769-14.875 8.948-1.981-6.039-0.707-8.707-0.707-8.707s2.305-8.812 11.955-13.635c9.651-4.823 84.406-18.961 117.34-16.997s52.228-2.803 80.784 10.078c28.555 12.881 43.998 26.083 45.115 30.841s7.849 10.412-2.53 20.285m-286.85 383.83c6.684 9.28 18.509 35.391 18.509 35.391l-4.576 1.397c-21.52-28.781-35.626-62.884-44.768-97.708 2.444 0.251 4.946 0.356 7.428 0.384 2.901 8.786 17.405 52.203 23.407 60.536" style="fill:#212121"/></g></g><g transform="translate(573.69 1660.6)"><path d="m0 0c-1.249 0.701-2.451 1.442-3.623 2.214-33.719-22.882-76.505-32.21-114.87-43.543-46.536-13.745-79.826-47.793-112.95-80.448-20.595-20.307-37.921-43.145-58.052-63.812-17.962-18.442-37.967-35.086-53.941-55.313-15.282-19.35-25.509-41.887-33.091-65.046-2.758-8.423-9.357-23.417-12.373-37.466 1.035 66.222 29.622 136.18 69.329 183.88 22.957 27.581 47.85 53.196 67.39 83.451 9.035 13.99 13.651 30.267 23.182 43.661 8.689 12.211 20.486 22.737 30.645 33.758 18.461 20.027 41.663 31.925 53.967 57.433 5.085 10.54 8.428 21.52 16.069 30.819 2.985 3.633 8.876 6.878 12.806 10.12-0.602 1.427-1.16 2.868-1.687 4.318-20.64-6.623-31.801-48.549-42.776-62.414-8.019-10.132-17.14-16.197-27.126-24.115-14.096-11.177-26.749-26.615-38.495-40.213-9.512-11.012-13.879-22.803-20.401-35.476-8.879-17.255-21.011-32.545-32.694-48.04-22.826-30.275-50.491-56.115-70.653-88.415-39.485-63.253-54.059-132.31-38.048-204.01 15.386-68.899 79.93-125.57 156.04-119.84 13.92 1.046 32.854 5.057 45.488 9.436 0.319 1.221 0.718 2.425 1.084 3.633-1.358-0.509-8.301-2.754-9.703-3.198-37.353-11.84-78.994-8.178-112.75 11.144-54.792 31.367-78.536 82.925-81.402 138.65 0.57 7.12 2.511 14.282 4.757 20.959 2.363 10.059 5.894 19.863 10.373 29.215 7.704 23.407 17.377 46.037 32.949 65.678 17.658 22.273 40.095 40.28 59.462 61.034 19.93 21.357 38.078 43.678 58.879 64.328 36.658 36.392 72.703 65.456 124.6 77.963 24.508 5.907 48.02 14.226 70.25 26.029 3.824 2.031 18.628 7.718 27.473 13.58-0.037 0.019-0.074 0.029-0.11 0.049" style="fill:#4d4d4d"/></g><g transform="translate(633.09 1570.8)"><path d="m0 0c-9.366-0.559-17.982-5.77-24.236-12.089-5.14-5.195-13.393-14.374-11.069-22.352 1.689-5.8 8.149-4.764 12.994-3.719 0.075 0.016 0.137 0.044 0.206 0.065-0.309 1.22-0.585 2.448-0.823 3.684-0.035-6e-3 -0.066-4e-3 -0.101-0.012-1.342-0.289-3.209-0.989-4.595-0.76-4.756 0.786-3.88 5.328-2.597 8.396 1.714 4.095 4.878 7.831 7.949 11.107 3.366 3.59 7.324 6.704 11.853 8.9 2.251 1.092 4.68 2.009 7.164 2.516 0.324 0.066 6.973 0.235 9.199-0.28-0.042-0.652-0.461-1.226-0.781-1.787-0.085-0.148-0.163-0.311-0.241-0.478 0.763-1.348 1.389-2.775 1.902-4.233 0.741 0.821 1.197 1.736 1.731 2.718 0.058 0.107 0.119 0.212 0.178 0.318 0.417 0.08 0.819 0.294 1.144 0.7 4.601 5.741-6.108 7.531-9.877 7.306" style="fill:#c70074"/></g><g clip-path="url(#clipPath270569)" style="opacity:.2"><g transform="translate(642.01 1568.9)"><path d="m0 0c-0.569-0.809-1.535-1.363-2.866-1.278-11.308 0.719-20.136-2.038-28.422-9.42-7.915-7.051-12.276-15.07-11.179-24.805 2.716-2.42 7.458-1.627 11.231-0.813 0.074 0.016 0.137 0.043 0.206 0.065-0.31 1.22-0.585 2.448-0.824 3.684-0.034-6e-3 -0.065-5e-3 -0.101-0.012-1.342-0.29-3.209-0.989-4.594-0.76-4.757 0.786-3.881 5.328-2.597 8.396 1.713 4.095 4.877 7.831 7.948 11.106 3.366 3.591 7.325 6.704 11.854 8.901 2.251 1.092 4.68 2.008 7.164 2.516 0.324 0.066 6.973 0.234 9.198-0.28-0.042-0.652-0.461-1.226-0.781-1.787-0.084-0.148-0.162-0.312-0.24-0.478 0.763-1.349 1.389-2.776 1.901-4.233 0.742 0.82 1.197 1.736 1.732 2.718 0.058 0.107 0.118 0.211 0.178 0.317 0.416 0.081 0.818 0.295 1.144 0.7 2.033 2.538 1.074 4.302-0.952 5.463" style="fill:#170900"/></g></g><g transform="translate(648.75 1562.2)"><path d="m0 0c-3.083 1.583-6.895 1.413-10.551 0.684-10.223-2.037-20.729-7.889-27.2-14.916-4.893-5.313-9.74-14.835-6.26-20.771 3.094-5.278 9.527-5.49 15.934-4.413-1.333 1.922-2.514 3.916-3.631 5.947-3.197-0.034-5.628 1.054-5.381 4.893 0.243 3.774 2.899 8.237 5.788 11.315 4.332 4.614 20.948 15.457 26.301 10.027 1.713-0.873 3.086-2.41 4.128-3.536 0.571-0.616 1.115-1.288 1.666-1.968 1.946 0.437 3.755 1.888 3.446 3.891-0.57 3.694 0.013 6.664-4.24 8.847" style="fill:#ff8c00"/></g><g clip-path="url(#clipPath270589)" style="opacity:.2"><g transform="translate(648.75 1562.2)"><path d="m0 0c-1.006 0.517-2.095 0.831-3.225 1.016-0.291-1.093-1.19-2.135-2.846-2.634-19.586-5.911-41.543-19.439-32.365-37.297 0.074-0.145 0.111-0.288 0.158-0.431 3.014-0.871 6.611-0.673 10.201-0.07-1.333 1.922-2.514 3.916-3.631 5.947-3.197-0.034-5.628 1.054-5.381 4.893 0.243 3.774 2.899 8.237 5.788 11.315 4.332 4.614 20.948 15.457 26.301 10.027 1.713-0.873 3.086-2.41 4.128-3.536 0.571-0.616 1.115-1.288 1.666-1.968 1.946 0.437 3.755 1.888 3.446 3.891-0.57 3.694 0.013 6.664-4.24 8.847" style="fill:#170900"/></g></g><g transform="translate(368.22 1803.1)"><path d="m0 0c-3.741-2.116-6.012-6.121-7.566-10.332-4.345-11.774-4.652-26.327-1.056-37.525 2.719-8.467 10.123-19.636 18.933-19.956 7.835-0.285 11.84 5.028 9.26 22.266-3.489-1.257-4.876-1.698-7.659-2.701 0.22-4.277-0.155-11.056-4.242-8.297-4.017 2.712-7.239 8.339-8.779 13.299-2.308 7.439-3.577 31.491 5.884 33.415 2.071 1.18 4.657 1.579 6.574 1.909 1.05 0.18 2.145 0.298 3.253 0.417 0.772 2.273 0.334 5.068-2.08 6.06-4.454 1.83-7.363 4.364-12.522 1.445" style="fill:#00d0ff"/></g><g clip-path="url(#clipPath270609)" style="opacity:.2"><g transform="translate(368.22 1803.1)"><path d="m0 0c-1.221-0.691-2.271-1.597-3.205-2.632 1.021-1.01 1.593-2.608 1.077-4.627-6.103-23.867-8.424-55.572 17.251-57.856 0.208-0.018 2.102 0.45 3.037 1.523 2.908 2.511 1.576 12.726 1.411 18.045-3.124-1.603-3.702-1.309-6.811-2.397-0.186-0.065 5.176-13.413-5.09-8.601-4.389 2.057-7.239 8.339-8.779 13.299-2.308 7.439-3.577 31.491 5.884 33.415 2.071 1.18 4.657 1.579 6.574 1.909 1.05 0.18 2.145 0.298 3.253 0.417 0.772 2.273 0.334 5.068-2.08 6.06-4.454 1.83-7.363 4.364-12.522 1.445" style="fill:#170900"/></g></g></g></g></g></svg>
