<?xml version="1.0" encoding="UTF-8"?>
<svg width="269.1mm" height="632.17mm" version="1.1" viewBox="0 0 269.1 632.17" xmlns="http://www.w3.org/2000/svg"><defs><clipPath id="clipPath87091"><path d="m0 2200h1461.7v-2200h-1461.7z"/></clipPath><clipPath id="clipPath87099"><path d="m514.42 185.49h549.38v-62.132h-549.38z"/></clipPath><clipPath id="clipPath87207"><path d="m610.89 725.06h178.22v-34.337h-178.22z"/></clipPath><clipPath id="clipPath87223"><path d="m614.2 733.35h112.84v-554.12h-112.84z"/></clipPath><clipPath id="clipPath87239"><path d="m721.08 652.58h184.66v-463.81h-184.66z"/></clipPath><clipPath id="clipPath87255"><path d="m679.56 647.12h29.977v-68.673h-29.977z"/></clipPath><clipPath id="clipPath87271"><path d="m612.09 719.57h334.35v-550.08h-334.35z"/></clipPath><clipPath id="clipPath87643"><path d="m690.19 213.37h80.391v-49.136h-80.391z"/></clipPath><clipPath id="clipPath87659"><path d="m864.05 223.24h86.659v-50.281h-86.659z"/></clipPath><clipPath id="clipPath87675"><path d="m676.56 653.53h84.614v-10.179h-84.614z"/></clipPath><clipPath id="clipPath87703"><path d="m664.05 188.4h105.19v-65.289h-105.19z"/></clipPath><clipPath id="clipPath87727"><path d="m670.24 142.69h93.565v-17.265h-93.565z"/></clipPath><clipPath id="clipPath87755"><path d="m846.63 192.76h105.19v-65.289h-105.19z"/></clipPath><clipPath id="clipPath87779"><path d="m852.82 147.05h93.565v-17.265h-93.565z"/></clipPath><clipPath id="clipPath87803"><path d="m617.25 922.79h180.88v-206.38h-180.88z"/></clipPath><clipPath id="clipPath87871"><path d="m713.63 799.66h83.811v-59.539h-83.811z"/></clipPath><clipPath id="clipPath87899"><path d="m611.81 802.72h84.606v-61.132h-84.606z"/></clipPath><clipPath id="clipPath87931"><path d="m828.79 1906.7h262.26v-539.21h-262.26z"/></clipPath><clipPath id="clipPath87947"><path d="m834.3 1893.5h234.52v-483.25h-234.52z"/></clipPath><clipPath id="clipPath88003"><path d="m420.24 1857.4h533.18v-468.95h-533.18z"/></clipPath><clipPath id="clipPath88019"><path d="m430.22 1823.4h307.04v-241.92h-307.04z"/></clipPath><clipPath id="clipPath88055"><path d="m727.25 1483.5c-63.669-21.454-67.5-85.487-63.635-99.338 3.864-13.85 66.542-22.511 113.26-6.914 46.522 15.529 36.995 78.058 36.995 78.058s-7.818 34.94-50.374 34.939c-10.034-1e-3 -22.002-1.944-36.251-6.745"/></clipPath><clipPath id="clipPath88075"><path d="m0 2200h1461.7v-2200h-1461.7z"/></clipPath><clipPath id="clipPath88083"><path d="m657.2 1497.2h178.66v-97.77h-178.66z"/></clipPath><clipPath id="clipPath88115"><path d="m451.29 1430s-4.412-45.686 26.496-60.493c31.042-14.87 74.287-3.048 77.686 8.911 3.399 11.958 12.765 65.817-31.778 80.311-8.19 2.665-15.591 3.788-22.25 3.789-35.822 0-50.154-32.518-50.154-32.518"/></clipPath><clipPath id="clipPath88135"><path d="m0 2200h1461.7v-2200h-1461.7z"/></clipPath><clipPath id="clipPath88143"><path d="m435.65 1468.3h125.97v-76.93h-125.97z"/></clipPath><clipPath id="clipPath88195"><path d="m569.64 1258.6h179.31v-123.97h-179.31z"/></clipPath><clipPath id="clipPath88215"><path d="m529.48 1679.4h101.83v-199.34h-101.83z"/></clipPath><clipPath id="clipPath88231"><path d="m438.94 1694.2h132.98v-259.67h-132.98z"/></clipPath><clipPath id="clipPath88259"><path d="m543.9 1625.7h49.488v-143.3h-49.488z"/></clipPath><clipPath id="clipPath88283"><path d="m455.03 1630.6h60.385v-179.11h-60.385z"/></clipPath><clipPath id="clipPath88307"><path d="m366.36 1682.6h104.16v-74.64h-104.16z"/></clipPath><clipPath id="clipPath88331"><path d="m623.97 1503.6h266.4v-187.16h-266.4z"/></clipPath><clipPath id="clipPath88347"><path d="m620.7 1506.8h272.94v-193.7h-272.94z"/></clipPath><clipPath id="clipPath88363"><path d="m379.96 1455.9h185.65v-157.39h-185.65z"/></clipPath><clipPath id="clipPath88379"><path d="m376.69 1459.2h192.19v-163.94h-192.19z"/></clipPath><clipPath id="clipPath88395"><path d="m437.99 1491.2h428.59v-182.53h-428.59z"/></clipPath></defs><g transform="translate(43.243 20.041)"><g transform="matrix(.35278 0 0 -.35278 -163.27 655.56)"><g clip-path="url(#clipPath87091)"><g clip-path="url(#clipPath87099)" style="opacity:.2"></g><g transform="translate(813.62 1003.5)"><path d="m0 0s48.211-67.347 60.608-90.311c9.298-17.223 22.259-39.801 22.695-50.912 0.146-3.704-7.738-9.153-10.517-10.874-11.114-6.887-20.933 5.748-31.09 19.422-12.441 16.749-78.137 89.419-73.194 105.45 7.64 24.771 31.498 27.228 31.498 27.228" style="fill:#efc7b0"/></g><g transform="translate(792.21 951.08)"><path d="m0 0c21.56-26.755 41.55-53.483 63.11-80.238 6.291 3.219 17.888 4.472 23.898 0.755-4.96 5.939-13.842 12.304-19.918 17.094-24.731 19.494-41.667 43.807-67.09 62.389" style="fill:#e4b69d"/></g><g transform="translate(885.15 872.32)"><path d="m0 0s-2.6 21.279-17.015 43.023-40.146 64.358-40.146 64.358 55.343-74.855 65.298-103.94c7.273-21.249-8.137-3.439-8.137-3.439" style="fill:#f1dbcb"/></g><g transform="translate(895.22 857.32)"><path d="m0 0s-13.378 31.412-26.487 23.327c-29.1-17.947-34.007-45.014-57.212-68.797-11.639-11.928-29.059-33.56-37.805-44.298-4.067-4.993 6.289-4.793 7.797-6.382 4.751-5.007 58.55 35.945 80.079 55.464 29.707 26.933 33.628 40.686 33.628 40.686" style="fill:#efc7b0"/></g><g transform="translate(808.31 806.54)"><path d="m0 0c25.825 19.691 30.373 29.396 51.93 53.685 6.433 7.248 13.422 5.874 22.938 7.71-7.111 4.078-16.128 5.9-23.516 2.348-5.316-2.555-9.957-5.976-13.064-10.99-20.165-32.539-17.278-29.691-38.288-52.753" style="fill:#f1dbcb"/></g><g transform="translate(816.78 1005.6)"><path d="m0 0 43.789-57.843s-9.141-13.146-18.969-24.138c-9.827-10.991-18.523-20.982-18.523-20.982l-38.749 48.814s-14.576 26.2 7.017 53.463c12.165 15.36 25.435 0.686 25.435 0.686" style="fill:#d0d2d3"/></g><g transform="translate(858.53 946.68)"><path d="m0 0-41.425 57.47s-14.752 14.081-26.918-1.279c-1.957-2.471-2.09-4.454-3.489-6.853-3.009-8.203 3.841-14.333 3.841-14.333s16.959-5.277 29.718-21.342c12.759-16.066 22.44-30.005 22.44-30.005z" style="fill:#f1f1f2"/></g><g transform="translate(834.11 916.04)"><path d="m 0,0 -11.03,-13.387 -38.091,50.173 c 0,0 -7.438,10.926 -2.365,29.217 0.414,-14.044 16.97,-42.07 22.943,-47.891 C -8.025,-1.881 0,0 0,0" style="fill:#d0d2d3"/></g><g transform="translate(621.15 1010.2)"><path d="m0 0s-55.304-61.655-70.144-83.122c-11.13-16.1-26.488-37.121-28.14-48.117-0.55-3.666 6.688-9.946 9.262-11.962 10.292-8.064 21.437 3.419 33.032 15.897 14.202 15.284 87.47 80.313 84.313 96.787-4.878 25.459-28.323 30.517-28.323 30.517" style="fill:#efc7b0"/></g><g transform="translate(636.69 955.68)"><path d="m0 0c-24.363-24.23-47.163-48.606-71.527-72.836-5.899 3.89-17.289 6.407-23.67 3.371 5.58 5.36 15.107 10.713 21.672 14.807 26.718 16.666 46.218 38.975 73.525 54.658" style="fill:#e4b69d"/></g><g transform="translate(535.67 887.58)"><path d="m0 0s4.918 20.866 21.629 40.898c16.712 20.033 46.96 59.569 46.96 59.569s-63.216-68.336-76.3-96.156c-9.558-20.324 7.711-4.311 7.711-4.311" style="fill:#f1dbcb"/></g><g transform="translate(524.02 873.78)"><path d="m0 0s16.741 29.756 28.885 20.283c26.957-21.03 28.867-48.471 49.325-74.655 10.261-13.132 25.204-36.544 32.721-48.176 3.495-5.408-6.777-4.075-8.45-5.489-5.271-4.455-54.256 42.148-73.516 63.91-26.575 30.027-28.965 44.127-28.965 44.127" style="fill:#efc7b0"/></g><g transform="translate(604.83 813.78)"><path d="m0 0c-23.51 22.403-26.967 32.549-45.731 59.054-5.6 7.91-12.698 7.311-21.955 10.179 7.515 3.274 16.677 4.096 23.631-0.244 5.005-3.123 9.242-7.032 11.781-12.356 16.476-34.554 13.919-31.406 32.274-56.633" style="fill:#f1dbcb"/></g><g transform="translate(618.24 1012.6)"><path d="m0 0-49.867-52.694s7.645-14.068 16.209-26.071c8.563-12.003 16.111-22.887 16.111-22.887l43.867 44.271s17.36 24.445-1.113 53.91c-10.408 16.602-25.207 3.471-25.207 3.471" style="fill:#d0d2d3"/></g><g transform="translate(570.28 958.57)"><path d="m0 0 47.476 52.582s16.207 12.379 26.615-4.223c1.675-2.67 1.59-4.655 2.718-7.194 2.091-8.484-5.39-13.826-5.39-13.826s-17.435-3.385-31.878-17.955c-14.444-14.569-25.595-27.364-25.595-27.364z" style="fill:#f1f1f2"/></g><g transform="translate(591.2 925.45)"><path d="m 0,0 9.496,-14.516 43.362,45.695 c 0,0 8.591,10.044 5.554,28.781 C 56.46,46.046 36.932,20.004 30.357,14.874 7.77,-2.75 0,0 0,0" style="fill:#d0d2d3"/></g><g transform="translate(794.01 700.54)"><path d="m0 0c4.966 1.393 13.866-38.946 28.296-121.32 15.766-90.002 22.905-158.28 13.491-159.27-9.442-0.991-57.374 77.759-81.94 134.55-23.156 53.53-59.078 131.28-17.944 149.64 39.907 17.811 58.097-3.602 58.097-3.602" style="fill:#3e687a"/></g><g transform="translate(822.9 461.27)"><path d="m0 0c-17.54-2.634-1.09-28.341-1.09-28.341s10.012-26.952 23.981-81.753c14.17-55.593 31.611-178.22 31.611-178.22l69.218-1.09s-46.541 167.83-61.961 215.7c-14.72 45.7-50.438 75.405-61.759 73.705" style="fill:#3e687a"/></g><g transform="translate(609.97 691.25)"><path d="m0 0s2.977-44.092 29.178-125.56c28.739-89.353 63.906-141.89 73.315-139.63 9.368 2.251 6.706 88.754-1.981 147.46-8.144 55.032-6.874 136.51-55.464 139.68-48.802 3.191-45.048-21.958-45.048-21.958" style="fill:#3e687a"/></g><g transform="translate(704.76 454.57)"><path d="m0 0c18.067 2.693 12.421-22.754 12.421-22.754s2.688-26.306 9.365-81.06c6.12-50.193 42.937-186.52 42.937-186.52s3.27-5.927-6.54-7.767c-9.81-1.839-64.176 3.884-64.176 3.884s-12.252 164.36-22.994 214.04c-10.234 47.33 17.192 78.421 28.987 80.179" style="fill:#3e687a"/></g><g transform="translate(620.15 741.41)"><path d="m0 0s-47.127-93.231 58.862-98.104c98.536-4.53 127.54 20.711 119.19 60.497-3.522 16.788-13.454 34.337-13.454 34.337z" style="fill:#3e687a"/></g><g transform="translate(691 180.04)"><path d="m0 0-3.27 16.351s9.302 15.263 37.061 17.44c27.796 2.18 45.782-11.99 45.782-11.99l1.09-40.332-5.995-4.36s-35.426 18.531-48.507 19.621c-13.08 1.09-26.161 3.27-26.161 3.27" style="fill:#81a4b3"/></g><g transform="translate(869.77 178.68)"><path d="m0 0-7.085 29.431s5.448 14.515 40.331 15.533c37.334 1.09 47.69-20.983 47.69-20.983l-0.545-31.884-4.088-2.997z" style="fill:#81a4b3"/></g><g clip-path="url(#clipPath87207)" style="opacity:.3"><g transform="translate(617.43 725.06)"><path d="m0 0s49.052-19.621 88.293-14.716c39.242 4.906 83.389 14.716 83.389 14.716s-22.891-34.336-94.834-34.336c-58.862 0-83.388 19.62-83.388 19.62z" style="fill:#231f20"/></g></g><g clip-path="url(#clipPath87223)" style="opacity:.2"><g transform="translate(677.17 367.06)"><path d="m0 0c-1.42 10.511-2.843 21.093-2.335 31.687 0.619 12.884 4.139 25.62 10.223 36.993 1.615 3.018 6.974 6.851 7.032 10.273 0.053 3.151-4.937 5.362-6.344 8.182-19.104 38.288-32.311 79.193-45.445 119.92-16.651 51.629-33.494 106.08-22.684 159.24l23.525-11.671c2.564-1.273 5.312-2.727 6.517-5.324 0.942-2.029-7.162-2.963-7.346-5.193-6.587-79.766 27.037-159.68 52.409-235.59 2.553-7.641 5.182-15.426 10.004-21.88 1.577-2.111 3.429-4.164 4.017-6.733 0.459-2.006 0.087-4.098-0.271-6.126-13.321-75.319-6.185-154.16 20.445-225.86-3.641 0.756-6.524-3.67-10.165-2.913 1.76-11.15 4.761-16.8 10.288-26.642-9.771-1.977-19.542-3.953-29.313-5.929-1.235-0.25-2.605-0.479-3.685 0.17-1.109 0.667-1.539 2.034-1.872 3.285-1.279 4.805-2.4 9.652-3.362 14.531 5.452 4.37 10.904 8.739 16.356 13.108-3.507-2.748-7.282 3.154-7.878 7.569-6.705 49.635-13.411 99.27-20.116 148.9" style="fill:#231f20"/></g></g><g clip-path="url(#clipPath87239)" style="opacity:.2"><g transform="translate(905.74 223.64)"><path d="m0 0c-10.9 1.09-27.032-2.493-26.237-5.23 2.808-9.668 6.825-18.985 11.928-27.663-7.989-0.369-14.655 0.643-22.207-1.988-6.436 8.888-6.342 19.973 1.728 27.41-11.148 55.72-15.354 103.4-33.443 167.16-4.858 17.123-7.028 35.053-14.054 51.406-7.276 16.938-18.089 32.065-28.13 47.526-32.578 50.165-57.687 105.17-74.243 162.65 6.366 1.126 15.157-0.512 35.867 7.663-2.725-7.085-8.681-10.913-7.085-17.986 14.703-65.167 44.093-127.88 77.716-186.94-4.246-5.323 0.565-12.853 4.782-18.199 20.008-25.369 29.009-57.465 37.294-88.695 9.933-37.44 26.891-79.479 36.084-117.11" style="fill:#231f20"/></g></g><g clip-path="url(#clipPath87255)" style="opacity:.2"><g transform="translate(701.36 643.31)"><path d="m0 0-21.801 3.815s20.166-23.436 23.436-41.422c3.27-17.985 6.54-27.251 6.54-27.251z" style="fill:#231f20"/></g></g><g clip-path="url(#clipPath87271)" style="opacity:.5"><g transform="translate(613.18 678.56)"><path d="m0 0c10.398 1.082 21.144 7.274 30.109 12.332 3.221 1.817 0.282 6.873-2.901 4.963-4.536-2.722-9.152-5.334-13.844-7.778-4.659-2.426-9.661-4.303-13.944-7.375-0.819-0.587-0.673-2.272 0.58-2.142" style="fill:#231f20"/></g><g transform="translate(772.49 701.24)"><path d="m0 0c2.163-1.763 4.781-3.369 6.708-5.354 1.737-1.791 2.97-3.898 4.811-5.635 3.232-3.051 7.434-6.444 11.84-7.409 2.329-0.51 3.538 2.453 1.594 3.782-4.099 2.803-8.369 4.559-12.164 7.955-3.813 3.412-7.315 5.502-12.046 7.624-0.577 0.259-1.33-0.485-0.743-0.963" style="fill:#231f20"/></g><g transform="translate(726.4 705.56)"><path d="m0 0c-1.759-12.332-2.666-24.993-5.24-37.175 0.545 0.414 1.09 0.829 1.635 1.244-4.999 0.013-9.873-0.364-14.562 1.577-4.293 1.777-6.482-6.199-0.938-6.925 5.564-0.729 10.694 0.204 15.95 2.019 0.691 0.238 1.271 0.86 1.245 1.634-0.417 12.459 1.251 25.166 2.362 37.565 0.022 0.255-0.415 0.318-0.452 0.061" style="fill:#231f20"/></g><g transform="translate(709.89 678.17)"><path d="m0 0c-0.551 1.234-0.624 2.731-0.446 4.057 0.194 1.454-2.252 1.77-2.561 0.346-0.435-2.007-0.103-3.837 1.022-5.564 0.822-1.263 2.58-0.172 1.985 1.161" style="fill:#231f20"/></g><g transform="translate(710.97 690.59)"><path d="m0 0c-0.62 1.444 0.201 2.941-0.276 4.381-0.38 1.146-2.118 1.943-3.013 0.796-1.581-2.025-0.516-4.728 0.774-6.647 1.069-1.59 3.243-0.226 2.515 1.47" style="fill:#231f20"/></g><g transform="translate(710.87 700.54)"><path d="m0 0c-0.051 0.578-0.038 1.001 0.171 1.518 0.296 0.731 0.652 1.249 0.442 2.149v-0.925c0.205 0.487 0.291 1.037 0.255 1.342-0.058 0.5-0.306 0.926-0.816 1.072-0.968 0.278-1.621-0.129-2.346-0.722l0.768 0.447c-1.893-0.326-2.406-3.311-2.23-4.881 0.114-1.008 0.782-1.878 1.878-1.878 0.947 0 1.968 0.862 1.878 1.878" style="fill:#231f20"/></g><g transform="translate(617.2 669.2)"><path d="m0 0c0.232-1.593 0.464-3.186 0.697-4.78 0.195-1.342 0.318-2.603 1.204-3.667 0.355-0.426 1.002-0.144 1.153 0.305 0.44 1.307 0.026 2.634-0.275 3.936-0.36 1.558-0.719 3.117-1.079 4.675-0.261 1.131-1.859 0.622-1.7-0.469" style="fill:#231f20"/></g><g transform="translate(619.52 653.4)"><path d="m0 0c0.416-2.457 0.335-6.483 2.725-7.935 0.604-0.367 1.298-0.092 1.678 0.44 0.828 1.158 0.626 2.689 0.357 4.008-0.307 1.51-0.71 3.006-1.065 4.506-0.576 2.436-4.099 1.369-3.695-1.019" style="fill:#231f20"/></g><g transform="translate(624.75 634.08)"><path d="m0 0c0.273-1.009 0.546-2.019 0.819-3.028 0.21-0.778 0.416-1.822 1.2-2.191 0.285-0.135 0.613-0.079 0.786 0.206 0.464 0.761 0.083 1.696-0.181 2.482l-0.998 2.979c-0.342 1.021-1.912 0.609-1.626-0.448" style="fill:#231f20"/></g><g transform="translate(628.32 621.23)"><path d="m0 0c0.378-2.845 0.706-5.926 1.937-8.551 0.264-0.565 0.998-0.934 1.601-0.918 0.352 9e-3 0.631 0.072 0.936 0.253 0.51 0.302 0.997 0.974 0.919 1.601-0.361 2.887-1.691 5.671-2.894 8.292-0.536 1.168-2.673 0.632-2.499-0.677" style="fill:#231f20"/></g><g transform="translate(634.46 603.81)"><path d="m0 0c0.578-2.35 1.155-4.701 1.733-7.051 0.502-2.041 0.706-4.376 1.928-6.105 0.415-0.589 1.199-0.334 1.285 0.348 0.262 2.082-0.665 4.3-1.174 6.319-0.592 2.347-1.184 4.693-1.777 7.039-0.325 1.291-2.313 0.745-1.995-0.55" style="fill:#231f20"/></g><g transform="translate(618.62 693.05)"><path d="m0 0c-0.488 0.642-0.681 1.243-0.636 2.051 0.042 0.759 0.312 1.446 0.282 2.203-0.023 0.592-0.542 0.977-1.115 0.85-1.319-0.292-2.004-1.798-2.072-3.053-0.077-1.414 0.449-2.683 1.314-3.769 0.993-1.246 3.202 0.434 2.227 1.718" style="fill:#231f20"/></g><g transform="translate(618.31 706.5)"><path d="m0 0c-0.424 2.87 0.877 4.958 1.529 7.619 0.114 0.466-0.407 0.931-0.845 0.649-2.764-1.777-2.946-5.786-2.31-8.716 0.235-1.082 1.781-0.598 1.626 0.448" style="fill:#231f20"/></g><g transform="translate(639.94 582.81)"><path d="m0 0c-0.012-2.277 0.343-5.799 2.542-7.077 0.428-0.248 0.981 0.068 0.981 0.562 0 1.032-0.444 2.026-0.738 3.004-0.347 1.154-0.492 2.308-0.486 3.511 8e-3 1.48-2.291 1.482-2.299 0" style="fill:#231f20"/></g><g transform="translate(645.18 565.4)"><path d="m0 0c0.622-2.399 0.76-6.178 2.949-7.739 0.392-0.279 0.951 0.017 1.07 0.435 0.722 2.544-1.615 5.671-2.618 7.895-0.365 0.809-1.613 0.226-1.401-0.591" style="fill:#231f20"/></g><g transform="translate(650.94 550.7)"><path d="m0 0c0.589-2.195 0.998-4.539 2.052-6.562 0.237-0.454 1.053-0.264 1 0.271-0.228 2.274-1.159 4.453-1.87 6.617-0.244 0.745-1.388 0.442-1.182-0.326" style="fill:#231f20"/></g><g transform="translate(655.61 535.93)"><path d="m0 0c0.52-1.263 1.039-2.526 1.559-3.788 0.168-0.41 0.558-0.882 1.072-0.817 0.202 0.026 0.386 0.035 0.561 0.152 0.383 0.256 0.687 0.781 0.512 1.256-0.471 1.276-0.942 2.552-1.413 3.829-0.531 1.438-2.866 0.766-2.291-0.632" style="fill:#231f20"/></g><g transform="translate(661.41 524.48)"><path d="m0 0c0.341-1.652 0.748-3.321 1.493-4.846 0.566-1.157 2.311-0.33 2.022 0.852-0.401 1.631-1.186 3.173-1.974 4.644-0.471 0.877-1.727 0.252-1.541-0.65" style="fill:#231f20"/></g><g transform="translate(665.89 512.96)"><path d="m0 0c0.624-2.069 1.158-4.454 2.496-6.183 0.924-1.194 3.177-0.21 3.038 1.258-0.207 2.169-1.496 4.299-2.452 6.224-0.853 1.717-3.63 0.518-3.082-1.299" style="fill:#231f20"/></g><g transform="translate(670.91 501.52)"><path d="m0 0c0.193-1.321 0.262-2.671 0.67-3.944 0.401-1.256 0.696-2.621 1.938-3.272 0.73-0.381 1.946-0.266 2.315 0.607 1.094 2.589-1.176 5.473-2.472 7.643-0.832 1.394-2.66 0.397-2.451-1.034" style="fill:#231f20"/></g><g transform="translate(677.45 484.77)"><path d="m0 0c0.852-1.413 1.554-3.108 3.352-3.371 0.436-0.064 0.787 0.105 0.943 0.535 0.31 0.861 0.26 1.604-0.141 2.438-0.349 0.728-0.826 1.409-1.242 2.1-1.119 1.857-4.037 0.163-2.912-1.702" style="fill:#231f20"/></g><g transform="translate(681.43 475.71)"><path d="m0 0c0.805-1.478 1.589-2.97 2.414-4.437 0.745-1.324 1.477-2.321 2.932-2.835 0.397-0.141 0.899 0.16 0.99 0.562 0.349 1.543-0.147 2.684-0.887 4.047-0.803 1.479-1.647 2.936-2.471 4.404-1.088 1.938-4.04 0.21-2.978-1.741" style="fill:#231f20"/></g><g transform="translate(687.79 465.14)"><path d="m0 0c0.701-0.594 1.204-1.373 1.298-2.305 0.06-0.597 0.467-1.111 1.111-1.111 0.544 0 1.184 0.511 1.111 1.111-0.183 1.496-0.814 2.859-2.003 3.822-0.449 0.365-1.077 0.44-1.517 0-0.384-0.383-0.444-1.141 0-1.517" style="fill:#231f20"/></g><g transform="translate(690.16 456.91)"><path d="m0 0 0.147-1.272c0.1-0.862 0.285-1.589 0.922-2.226 0.546-0.546 1.442-0.957 2.227-0.922 0.814 0.036 1.658 0.304 2.226 0.922 0.6 0.654 0.821 1.349 0.922 2.226l0.147 1.272c0.091 0.782-0.433 1.798-0.965 2.33-0.572 0.572-1.509 1.002-2.33 0.966-0.853-0.038-1.737-0.318-2.331-0.966-0.551-0.601-1.063-1.481-0.965-2.33" style="fill:#231f20"/></g><g transform="translate(702.06 211.57)"><path d="m0 0c-0.83 1.817-1.184 3.688-1.187 5.679-3e-3 1.587 0.474 3.024-0.665 4.29-0.41 0.455-1.073 0.446-1.579 0.204-1.902-0.908-1.722-3.722-1.511-5.511 0.266-2.256 0.988-4.348 2.096-6.325 1.056-1.884 3.711-0.231 2.846 1.663" style="fill:#231f20"/></g><g transform="translate(699.04 229.64)"><path d="m0 0c0.015 2.052 0.353 4.405-0.18 6.399-0.348 1.297-2.281 1.298-2.629 0-0.533-1.993-0.195-4.347-0.18-6.399 0.014-1.923 2.975-1.926 2.989 0" style="fill:#231f20"/></g><g transform="translate(696.86 247.62)"><path d="m0 0c-0.158 1.421-0.316 2.842-0.475 4.263-0.131 1.182-0.082 2.192-1.072 2.952-0.368 0.282-0.873 0.026-1.101-0.289-0.689-0.95-0.23-2.145-0.035-3.216l0.726-3.975c0.199-1.091 2.082-0.855 1.957 0.265" style="fill:#231f20"/></g><g transform="translate(694.97 258.66)"><path d="m0 0c0.666 1.255 0.731 2.539 0.778 3.928 0.021 0.634 0.097 1.286-3e-3 1.914-0.124 0.77-0.479 0.902-0.874 1.453-0.317 0.441-0.875 0.441-1.191 0-0.325-0.453-0.684-0.617-0.829-1.214-0.169-0.7-0.073-1.442-0.049-2.153 0.047-1.385 0.115-2.676 0.778-3.928 0.278-0.524 1.112-0.524 1.39 0" style="fill:#231f20"/></g><g transform="translate(694.24 274.01)"><path d="m0 0c-0.153 0.879-0.305 1.759-0.458 2.638-0.145 0.835-0.218 1.634-0.75 2.326-0.317 0.413-0.945 0.393-1.121-0.146-0.275-0.844-0.083-1.628 0.065-2.48l0.49-2.827c0.202-1.164 1.975-0.671 1.774 0.489" style="fill:#231f20"/></g><g transform="translate(692.53 287.29)"><path d="m0 0c-0.277 1.156-0.495 2.315-0.595 3.501-0.093 1.096-0.076 2.228-0.448 3.274-0.455 1.285-2.23 1.338-2.667 0-0.755-2.312 0.193-5.322 0.902-7.549 0.566-1.783 3.246-1.056 2.808 0.774" style="fill:#231f20"/></g><g transform="translate(690.63 299.13)"><path d="m0 0c0.141 1.867 0.456 3.787-3e-3 5.63-0.311 1.246-2.212 1.247-2.523 0-0.459-1.841-0.144-3.765-3e-3 -5.63 0.123-1.625 2.406-1.628 2.529 0" style="fill:#231f20"/></g><g transform="translate(689.66 313.84)"><path d="m0 0c0.049 0.887 0.143 1.785 0.144 2.673 1e-3 0.83-0.079 1.664-0.83 2.143-0.244 0.155-0.607 0.155-0.851 0-1.387-0.884-0.762-3.427-0.686-4.816 0.079-1.429 2.144-1.432 2.223 0" style="fill:#231f20"/></g><g transform="translate(689.12 330.57)"><path d="m0 0c-0.471 1.386-0.822 2.954-1.61 4.192-0.987 1.553-3.176 0.517-2.866-1.208 0.257-1.429 1.089-2.838 1.674-4.165 0.699-1.582 3.359-0.457 2.802 1.181" style="fill:#231f20"/></g><g transform="translate(686.43 342.96)"><path d="m0 0c0.198 1.261 0.264 2.435 0.246 3.712-0.012 0.923-0.156 2.338-1.392 2.352-1.138 0.014-1.377-1.3-1.389-2.164-0.018-1.34 0.036-2.575 0.244-3.9 0.178-1.134 2.113-1.135 2.291 0" style="fill:#231f20"/></g><g transform="translate(685.4 356.34)"><path d="m0 0c0.142 1.279-0.063 2.489-0.33 3.749-0.187 0.877-0.593 2.238-1.779 1.963-1.106-0.255-0.975-1.651-0.841-2.488 0.215-1.339 0.424-2.525 1.022-3.746 0.499-1.02 1.827-0.389 1.928 0.522" style="fill:#231f20"/></g><g transform="translate(683.83 369.16)"><path d="m0 0c0.379 1.461 0.631 2.791 0.688 4.3 0.056 1.465-0.027 2.353-1.26 3.243-0.221 0.16-0.63 0.16-0.851 0-1.245-0.898-1.317-1.757-1.261-3.243 0.058-1.503 0.311-2.845 0.689-4.3 0.255-0.985 1.739-0.986 1.995 0" style="fill:#231f20"/></g><g transform="translate(682.8 381.71)"><path d="m0 0c-0.05 1.207-0.01 2.393-0.21 3.586-0.172 1.024-0.121 2.266-1.156 2.79-0.309 0.156-0.726 0.147-0.975-0.126-0.777-0.852-0.404-1.809-0.197-2.846 0.25-1.249 0.706-2.392 1.108-3.598 0.248-0.745 1.466-0.665 1.43 0.194" style="fill:#231f20"/></g><g transform="translate(681.3 399.68)"><path d="m0 0c-0.025 0.484-0.049 0.969-0.074 1.453-0.055 1.088-1.636 1.09-1.691 0-0.025-0.484-0.05-0.969-0.074-1.453-0.061-1.184 1.899-1.186 1.839 0" style="fill:#231f20"/></g><g transform="translate(681.53 411.97)"><path d="m0 0c-0.041 0.726 0.124 1.284 0.363 1.963 0.275 0.781 0.641 1.466 0.418 2.318-0.193 0.741-0.985 1.146-1.708 0.97-1.227-0.299-1.801-1.697-1.846-2.863-0.039-1.018 0.288-2.046 0.773-2.93 0.5-0.91 2.06-0.528 2 0.542" style="fill:#231f20"/></g><g transform="translate(689.82 431.57)"><path d="m0 0c8e-3 -0.159-0.027-0.305-0.105-0.439-0.086-0.176-0.086-0.186 1e-3 -0.028-0.549-0.834 0.394 0.49 0.267 0.309 0.093 0.133 0.377 0.463-0.039-0.031 0.031 0.03 0.063 0.061 0.095 0.091-0.138-0.151-0.306-0.25-0.505-0.296 0.99 0.39 1.663 1.203 1.513 2.318-0.139 1.039-1.014 1.816-2.075 1.832-1.094 0.016-2.153-0.468-2.821-1.333-0.799-1.034-0.671-2.34-0.187-3.467 0.342-0.798 1.548-1.207 2.337-0.951 0.915 0.296 1.45 1.048 1.519 1.995" style="fill:#231f20"/></g><g transform="translate(693.5 439.16)"><path d="m0 0c-0.037 0.257 0.435 0.582 0.638 0.6 0.401 0.036 0.747 0.281 0.797 0.704 0.044 0.369-0.178 0.819-0.581 0.891-1.6 0.289-2.854-1.091-2.554-2.664 0.089-0.467 0.652-0.734 1.084-0.615 0.506 0.139 0.685 0.611 0.616 1.084" style="fill:#231f20"/></g><g transform="translate(695.73 440.71)"><path d="m0 0c0.407-0.06 0.814-0.123 1.222-0.18 0.495-0.069 0.841 0.131 1.126 0.536 0.116 0.164 0.116 0.454 0 0.619-0.287 0.407-0.622 0.606-1.126 0.535-0.408-0.057-0.815-0.12-1.222-0.18-0.659-0.096-0.659-1.233 0-1.33" style="fill:#231f20"/></g><g transform="translate(697.23 444.47)"><path d="m0 0c0.417 0.164 0.845 0.305 1.146 0.656 0.608 0.71 0.612 1.594 0 2.309-0.305 0.356-0.727 0.492-1.146 0.656-1.159 0.456-2.377-0.688-2.377-1.81 0-1.127 1.22-2.265 2.377-1.811" style="fill:#231f20"/></g><g transform="translate(761.59 201.09)"><path d="m0 0c0.413-0.759 0.576-1.628 0.712-2.477 0.146-0.913-0.024-1.779 0.286-2.683 0.607-1.77 2.786-2.002 3.831-0.501 1.745 2.507-0.059 6.043-2 7.844-1.497 1.388-3.822-0.36-2.829-2.183" style="fill:#231f20"/></g><g transform="translate(762.88 187.47)"><path d="m0 0c0.281-1.42 0.461-3.311 1.544-4.367 0.887-0.866 2.247-0.415 2.631 0.695 0.49 1.414-0.249 3.272-0.628 4.65-0.262 0.958-1.305 1.548-2.262 1.285-1.017-0.28-1.479-1.285-1.285-2.263" style="fill:#231f20"/></g><g transform="translate(763.58 177.59)"><path d="m0 0c-0.131-0.918-0.386-1.927-0.063-2.831 0.373-1.041 1.748-1.043 2.121 0 0.322 0.901 0.068 1.916-0.063 2.831-0.14 0.988-1.854 0.989-1.995 0" style="fill:#231f20"/></g><g transform="translate(764.83 169.77)"><path d="m0 0c0.214 0.099 0.429 0.199 0.643 0.298 1.154 0.533 1.154 2.51 0 3.044-0.214 0.099-0.429 0.199-0.643 0.298-0.702 0.325-1.429 0.408-2.128 0-0.641-0.375-1.044-1.077-1.044-1.82s0.403-1.445 1.044-1.82c0.699-0.409 1.426-0.325 2.128 0" style="fill:#231f20"/></g><g transform="translate(785.84 718.06)"><path d="m0 0c0.702-1.019 1.182-2.129 1.317-3.368 0.115-1.049-0.104-2.119 0.417-3.083 0.25-0.462 0.844-0.462 1.203-0.155 2.201 1.884 0.024 6.103-1.372 7.813-0.711 0.871-2.206-0.276-1.565-1.207" style="fill:#231f20"/></g><g transform="translate(791.01 706.25)"><path d="m0 0c-0.404-0.905-0.592-1.786-0.455-2.777 0.149-1.073 0.589-1.815 1.457-2.464 1.067-0.797 2.457 0.517 2.149 1.652-0.066 0.243-0.117 0.486-0.183 0.726-0.011 0.044-0.13 0.51-0.102 0.309-0.054 0.387-0.024 0.549 0.112 0.813 0.427 0.828 0.215 1.872-0.619 2.36-0.735 0.43-1.978 0.236-2.359-0.619" style="fill:#231f20"/></g><g transform="translate(792.75 699.72)"><path d="m0 0c0-1.082-0.141-2.282 0.099-3.34 0.261-1.152 2.07-1.153 2.331 0 0.241 1.06 0.099 2.256 0.099 3.34 0 1.627-2.529 1.63-2.529 0" style="fill:#231f20"/></g><g transform="translate(797.96 678.2)"><path d="m0 0c0.561-2.182 0.835-4.705 2.213-6.525 0.238-0.314 0.906-0.385 0.981 0.128 0.341 2.344-0.617 4.684-1.199 6.947-0.331 1.289-2.327 0.743-1.995-0.55" style="fill:#231f20"/></g><g transform="translate(801.06 661.82)"><path d="m0 0c0.179-1.256 0.358-2.511 0.537-3.767 0.153-1.074 0.126-2.162 0.911-2.973 0.295-0.305 0.882-0.255 1.083 0.14 0.518 1.017 0.188 2.039 0.018 3.127-0.209 1.334-0.418 2.668-0.627 4.003-0.199 1.27-2.1 0.72-1.922-0.53" style="fill:#231f20"/></g><g transform="translate(803.97 646.77)"><path d="m0 0c-0.257-1.431-0.321-2.851-0.117-4.295 0.155-1.097 0.221-2.571 1.402-2.973 0.216-0.074 0.498 0.047 0.606 0.246 0.504 0.933-0.153 1.869-0.358 2.838-0.28 1.321-0.277 2.657-0.103 3.99 0.106 0.808-1.285 1-1.43 0.194" style="fill:#231f20"/></g><g transform="translate(805.66 632.67)"><path d="m0 0c-0.063-2.896-0.286-6.508 1.799-8.741 0.362-0.388 1.072-0.298 1.324 0.171 1.448 2.691 0.31 6.141-0.488 8.927-0.419 1.461-2.602 1.161-2.635-0.357" style="fill:#231f20"/></g><g transform="translate(807.67 616.33)"><path d="m0 0c0-2.073-0.446-4.792 1.227-6.373 0.369-0.348 0.931-0.35 1.301 0 1.673 1.581 1.228 4.3 1.228 6.373 0 2.417-3.756 2.421-3.756 0" style="fill:#231f20"/></g><g transform="translate(809.22 601.89)"><path d="m0 0c0.486-1.657 0.971-3.314 1.457-4.972 0.418-1.425 0.784-2.92 2.172-3.683 0.505-0.277 1.24-0.147 1.521 0.399 0.733 1.426 0.276 2.801-0.184 4.252l-1.566 4.941c-0.683 2.152-4.042 1.253-3.4-0.937" style="fill:#231f20"/></g><g transform="translate(813.17 583.71)"><path d="m0 0c0.389-0.556 0.665-1.138 0.72-1.822 0.028-0.338-0.028-0.675-0.014-1.011 0.023-0.519 0.292-0.847 0.6-1.226 0.211-0.258 0.697-0.385 1.007-0.266 0.574 0.221 1.037 0.481 1.238 1.107 0.166 0.521 0.201 1.107 0.17 1.65-0.064 1.123-0.407 2.203-1.008 3.154-1.086 1.719-3.866 0.061-2.713-1.586" style="fill:#231f20"/></g><g transform="translate(815.63 573.85)"><path d="m0 0c0.222-2.35 0.479-4.676 0.467-7.038-9e-3 -1.894 0.02-3.57 1.21-5.104 0.508-0.655 1.431-0.169 1.665 0.44 0.703 1.823 0.026 3.636-0.522 5.422-0.651 2.116-1.027 4.295-1.465 6.463-0.152 0.752-1.429 0.596-1.355-0.183" style="fill:#231f20"/></g><g transform="translate(818.09 555.83)"><path d="m0 0c-0.141-2.838-0.719-7.478 1.723-9.469 0.325-0.265 0.933-0.321 1.144 0.147 0.627 1.389 0.483 2.36 0.192 3.829-0.359 1.816-0.538 3.645-0.606 5.493-0.059 1.581-2.375 1.576-2.453 0" style="fill:#231f20"/></g><g transform="translate(818.91 541.12)"><path d="m0 0c-0.089-2.025 0.018-4.024 0.314-6.029 0.254-1.722 0.58-3.481 2.395-4.11 0.385-0.134 0.924 8e-3 1.193 0.315 1.117 1.277 0.755 2.705 0.502 4.256-0.3 1.842-0.347 3.707-0.265 5.568 0.117 2.663-4.022 2.657-4.139 0" style="fill:#231f20"/></g><g transform="translate(823.66 521.09)"><path d="m0 0c0.307-1.731 0.615-3.463 0.922-5.194 0.29-1.632 0.418-2.823 1.594-4.047 0.552-0.574 1.337-0.206 1.601 0.423 0.672 1.592 0.269 2.844-0.041 4.493l-0.972 5.181c-0.383 2.039-3.463 1.168-3.104-0.856" style="fill:#231f20"/></g><g transform="translate(826.82 504.33)"><path d="m0 0c-0.137-1.838-0.115-3.662 0.108-5.494 0.21-1.73 0.487-2.811 1.779-3.977 0.396-0.358 0.983-0.199 1.153 0.304 0.515 1.53 0.326 2.608 0.131 4.203-0.202 1.651-0.211 3.306-0.105 4.964 0.125 1.975-2.92 1.954-3.066 0" style="fill:#231f20"/></g><g transform="translate(827.47 489.6)"><path d="m0 0c-0.035-2.03 0.117-4.572 0.881-6.47 0.724-1.801 3.298-1.595 3.436 0.465s-0.485 4.497-1.156 6.433c-0.581 1.679-3.129 1.452-3.161-0.428" style="fill:#231f20"/></g><g transform="translate(829 476.53)"><path d="m0 0c0.01-0.587 0.016-1.174 0.03-1.761 0.021-0.904 0.198-1.551 0.991-2.089-0.237 0.308-0.473 0.616-0.71 0.924 0.194-0.689 0.697-1.379 1.49-1.379s1.297 0.69 1.49 1.379c-0.236-0.308-0.473-0.616-0.71-0.924 0.803 0.545 0.97 1.18 0.991 2.089 0.014 0.587 0.02 1.174 0.03 1.761 0.017 0.973-0.839 1.801-1.801 1.801-0.963 0-1.818-0.824-1.801-1.801" style="fill:#231f20"/></g><g transform="translate(830.17 464.23)"><path d="m0 0 0.885-1.743c0.373-0.734 0.713-1.148 1.454-1.524 0.687-0.349 1.669-0.085 1.854 0.754 0.08 0.363 0.167 0.663 0.139 1.043-0.036 0.493-0.247 0.891-0.442 1.333-0.282 0.639-0.564 1.278-0.846 1.916-0.384 0.872-1.656 1.075-2.412 0.633-0.862-0.505-1.064-1.56-0.632-2.412" style="fill:#231f20"/></g><g transform="translate(833.25 455.16)"><path d="m0 0c-1.211 0.02-2.614-0.425-3.461-1.324-1.036-1.1-1.8-2.917-0.937-4.323 0.621-1.011 2.041-1.478 3.093-0.811 0.523 0.333 0.845 0.716 1.135 1.256 0.134 0.249 0.324 0.309-0.072-0.036 0.101 0.088 0.193 0.209 0.292 0.303 0.102 0.097 0.201 0.197 0.302 0.296 0.033 0.033 0.067 0.065 0.1 0.097 0.192 0.166 0.136 0.125-0.168-0.122 0.065-4e-3 0.246 0.142 0.3 0.175 0.162 0.08 0.081 0.046-0.242-0.102 0.088 0.03 0.178 0.055 0.269 0.075 1.113 0.274 1.794 1.428 1.647 2.522-0.152 1.132-1.104 1.975-2.258 1.994" style="fill:#231f20"/></g><g transform="translate(833.25 443.75)"><path d="m 0,0 c 0.851,0.031 1.721,0.013 2.474,0.472 1.541,0.94 1.541,3.174 0,4.114 C 1.722,5.045 0.85,5.028 0,5.059 -1.324,5.106 -2.589,3.861 -2.529,2.529 -2.47,1.2 -1.416,-0.051 0,0" style="fill:#231f20"/></g><g transform="translate(842.94 440.6)"><path d="m0 0c1.598-1.068 3.22-2.427 5.023-3.113 1.568-0.597 2.605 1.61 1.562 2.683-1.326 1.364-3.291 2.314-4.883 3.342-1.834 1.184-3.496-1.714-1.702-2.912" style="fill:#231f20"/></g><g transform="translate(853.22 430.25)"><path d="m0 0c1.088-1.109 1.983-2.366 3.051-3.488 1.045-1.099 1.716-2.385 3.356-2.385 0.36 0 0.675 0.251 0.776 0.591 0.523 1.753-0.934 2.968-2.154 4.046-1.283 1.133-2.822 1.724-4.432 2.261-0.598 0.199-1.009-0.605-0.597-1.025" style="fill:#231f20"/></g><g transform="translate(863.06 418.44)"><path d="m0 0c0.521-1.494 0.899-3.001 1.719-4.363 0.897-1.49 3.128-0.174 2.325 1.359-0.732 1.398-1.829 2.499-2.827 3.712-0.46 0.56-1.45-0.04-1.217-0.708" style="fill:#231f20"/></g><g transform="translate(870.44 404.68)"><path d="m0 0c0.528-0.96 1.056-1.921 1.585-2.881 0.476-0.866 0.989-1.886 2.061-2.077 0.36-0.065 0.873 0.032 1.038 0.422 0.461 1.087 0.039 1.985-0.483 2.973l-1.62 3.072c-0.896 1.698-3.511 0.182-2.581-1.509" style="fill:#231f20"/></g><g transform="translate(877.72 389.51)"><path d="m0 0c0.324-0.83 0.648-1.66 0.971-2.49 0.351-0.9 0.554-1.554 1.421-2.059 0.526-0.307 1.177-0.015 1.351 0.549 0.282 0.915 0.019 1.491-0.316 2.349-0.305 0.781-0.609 1.563-0.914 2.344-0.256 0.655-0.874 1.11-1.603 0.91-0.625-0.172-1.167-0.944-0.91-1.603" style="fill:#231f20"/></g><g transform="translate(881.95 377.31)"><path d="m0 0c-0.637-1.35-0.431-2.862-0.335-4.331 0.11-1.691 0.367-3.468 0.966-5.055 0.354-0.94 1.118-1.66 2.176-1.657 0.432 1e-3 0.757 0.123 1.139 0.308 0.658 0.319 1.177 1.22 1.118 1.949-0.138 1.704-0.548 3.367-1.163 4.963-0.518 1.346-1.026 3.118-2.156 4.048-0.501 0.413-1.413 0.479-1.745-0.225" style="fill:#231f20"/></g><g transform="translate(885.38 359.12)"><path d="m0 0c0.571-1.896 0.903-4.444 2.409-5.841 0.805-0.747 2.25-0.48 2.528 0.667 0.495 2.042-0.583 4.273-1.168 6.213-0.723 2.403-4.497 1.379-3.769-1.039" style="fill:#231f20"/></g><g transform="translate(889.31 344.38)"><path d="m0 0c0.257-1.437 0.326-3.154 0.889-4.499 0.346-0.824 1.011-1.429 1.969-1.285 0.889 0.134 1.531 0.85 1.556 1.762 0.045 1.627-0.553 3.405-0.867 5-0.191 0.975-1.356 1.534-2.262 1.285-1.031-0.284-1.46-1.282-1.285-2.263" style="fill:#231f20"/></g><g transform="translate(894.34 330.72)"><path d="m0 0c0.408-1.468 0.816-2.937 1.223-4.405 0.379-1.363 0.616-2.759 1.483-3.906 0.461-0.61 1.361-0.407 1.429 0.387 0.122 1.435-0.415 2.738-0.823 4.095-0.439 1.459-0.878 2.919-1.317 4.379-0.382 1.272-2.353 0.739-1.995-0.55" style="fill:#231f20"/></g><g transform="translate(899.92 314.67)"><path d="m0 0c0.193-1.754 0.318-3.518 0.741-5.233 0.354-1.433 0.511-3.246 2.024-3.904 0.373-0.163 0.913-0.21 1.207 0.156 1.024 1.27 0.619 2.537 0.252 4.028-0.451 1.828-1.127 3.528-1.815 5.279-0.458 1.165-2.573 1.169-2.409-0.326" style="fill:#231f20"/></g><g transform="translate(904.37 299.72)"><path d="m0 0c0.355-1.644 0.492-3.994 1.807-5.195 0.355-0.324 0.958-0.203 1.089 0.288 0.464 1.738-0.674 3.764-1.27 5.355-0.377 1.008-1.858 0.627-1.626-0.448" style="fill:#231f20"/></g><g transform="translate(906.97 284.74)"><path d="m0 0c0.14-0.33 0.28-0.66 0.419-0.99 0.207-0.488 0.925-0.98 1.422-1.093 0.532-0.121 1.043-0.094 1.548 0.12 1.082 0.456 1.69 1.651 1.378 2.805-0.095 0.35-0.19 0.699-0.284 1.048-0.385 1.421-1.974 2.153-3.31 1.589-0.613-0.258-1.038-0.683-1.297-1.296-0.329-0.782-0.195-1.429 0.124-2.183" style="fill:#231f20"/></g><g transform="translate(910.38 275.42)"><path d="m0 0c0.055-1.711 0.258-3.419 0.671-5.082 0.34-1.366 0.668-3.082 2.048-3.728 0.487-0.229 1.005-0.043 1.182 0.481 0.43 1.267-0.251 2.439-0.588 3.665-0.421 1.531-0.639 3.079-0.707 4.664-0.072 1.669-2.66 1.683-2.606 0" style="fill:#231f20"/></g><g transform="translate(914 260.13)"><path d="m0 0c0.629-0.851 1.037-1.754 1.213-2.803 0.15-0.896 0.123-1.994 0.66-2.759 0.239-0.341 0.764-0.592 1.154-0.302 2.406 1.789 0.405 5.65-1.161 7.304-0.905 0.955-2.682-0.336-1.866-1.44" style="fill:#231f20"/></g><g transform="translate(916.69 248)"><path d="m0 0c0.625-2.306 1.146-4.676 1.916-6.937 0.76-2.231 4.195-1.335 3.563 0.982-0.63 2.308-1.526 4.567-2.301 6.831-0.681 1.988-3.739 1.193-3.178-0.876" style="fill:#231f20"/></g><g transform="translate(920.18 236.58)"><path d="m0 0c0.251-1.699 8e-3 -3.424 0.74-5.026 0.531-1.16 2.4-1.076 2.956 0 1.138 2.199 0.014 4.634-1.582 6.256-0.967 0.983-2.286-0.066-2.114-1.23" style="fill:#231f20"/></g><g transform="translate(921.49 229.12)"><path d="m0 0c0.096-0.438 0.16-0.906 0.293-1.334 0.218-0.703 0.773-1.066 1.358-1.448 0.413-0.269 0.996-0.243 1.411 0 0.465 0.272 0.633 0.701 0.693 1.208 0.072 0.603 0.119 1.156-0.242 1.701-0.234 0.355-0.523 0.687-0.781 1.025-0.452 0.592-1.129 0.935-1.867 0.611-0.7-0.308-1.029-1.017-0.865-1.763" style="fill:#231f20"/></g><g transform="translate(872.98 216.58)"><path d="m0 0c-1.042 0.391-2.529 0.393-3.499-0.175-1.352-0.792-2.286-2.647-1.254-4.077 0.533-0.739 1.44-1.275 2.384-0.97 0.966 0.313 1.426 1.066 1.549 2.035-0.116-0.914 0.046 0.118 0.071 0.298 0.011-0.209-0.032-0.402-0.131-0.581-0.097-0.203-0.107-0.234-0.029-0.094-0.245-0.293-0.307-0.377-0.187-0.252 0.12 0.116 0.04 0.06-0.24-0.17 0.211 0.12 0.468 0.347 0.627 0.469 0.293 0.226-0.431-0.238-0.057-0.055 0.035 0.02 0.069 0.04 0.104 0.06 0.185 0.095 0.139 0.079-0.138-0.05 0.017-0.015 0.267 0.081 0.293 0.089 0.44 0.139-0.313-0.01 0.038 0.01 0.882 0.051 1.611 0.632 1.732 1.529 0.123 0.915-0.43 1.621-1.263 1.934" style="fill:#231f20"/></g><g transform="translate(867.78 209.6)"><path d="m0 0c0.52-1.851 0.625-3.77 0.64-5.682 0.013-1.79 2.956-2.337 3.244-0.439 0.392 2.587-0.114 4.903-1.362 7.184-0.753 1.376-2.944 0.44-2.522-1.063" style="fill:#231f20"/></g><g transform="translate(868.98 202.66)"><path d="m0 0c-0.018-0.545-0.037-1.09-0.056-1.635-0.023-0.683 0.07-1.194 0.314-1.83 0.61-1.587 2.628-1.589 3.239 0 0.241 0.626 0.337 1.15 0.314 1.83-0.018 0.545-0.037 1.09-0.055 1.635-0.082 2.416-3.674 2.42-3.756 0" style="fill:#231f20"/></g><g transform="translate(938.83 211.23)"><path d="m0 0c0.384-0.996 0.706-2.053 1.174-3.012 0.349-0.715 1.256-1.759 2.162-1.482 0.885 0.271 0.929 1.425 0.828 2.187-0.138 1.041-0.807 2.153-1.208 3.122-0.316 0.764-1.016 1.309-1.885 1.071-0.738-0.203-1.37-1.109-1.071-1.886" style="fill:#231f20"/></g><g transform="translate(941.31 200.87)"><path d="m0 0c-0.251-1.683-0.762-3.521-0.762-5.222 0-1.311 0.846-3.063 2.3-3.254 1.432-0.189 2.722 1.28 3.036 2.532 0.416 1.654 0.379 3.555 0.545 5.251 0.283 2.892-4.686 3.602-5.119 0.693" style="fill:#231f20"/></g><g transform="translate(940.93 188.76)"><path d="m0 0c0-1.396-0.227-4.383 1.878-4.383 2.101 0 1.877 2.989 1.877 4.383 0 1.015-0.863 1.878-1.877 1.878-1.019 0-1.878-0.86-1.878-1.878" style="fill:#231f20"/></g></g><g clip-path="url(#clipPath87643)" style="opacity:.3"><g transform="translate(690.19 195.71)"><path d="M 0,0 C 0,0 11.445,16.351 35.563,17.577 59.68,18.803 80.391,6.132 80.391,6.132 l -1.09,-37.607 -3.27,36.789 c 0,0 -27.346,11.004 -49.052,6.131 C 6.949,6.949 0,0 0,0" style="fill:#fff"/></g></g><g clip-path="url(#clipPath87659)" style="opacity:.3"><g transform="translate(864.05 208.65)"><path d="M 0,0 C 0,0 14.716,10.9 35.154,11.99 56.465,13.127 81.481,-4.36 81.481,-4.36 l 3.542,-31.339 1.635,29.704 c 0,0 -17.168,23.981 -51.504,20.166 C 6.799,11.02 0,0 0,0" style="fill:#fff"/></g></g><g clip-path="url(#clipPath87675)" style="opacity:.2"><g transform="translate(676.56 647.81)"><path d="m0 0s19.899-5.655 36.653-4.224c27.115 2.316 47.962 9.947 47.962 9.947s-30.658-2.589-47.417-3.815c-16.76-1.227-37.198-1.908-37.198-1.908" style="fill:#231f20"/></g></g><g transform="translate(766.84 154.08)"><path d="m0 0s-1.561 16.614-10.981 21.602c-7.27 3.85-17.472 6.06-17.472 6.06z" style="fill:#ad4639"/></g><g transform="translate(766.84 154.08)"><path d="M 0,0 C 0,0 -12.649,30.49 -50.259,33.711 -89.897,37.107 -101.356,8.941 -97.841,-2.073 -71.651,-16.794 0,0 0,0" style="fill:#e6e7e8"/></g><g transform="translate(770.04 155.15)"><path d="m0 0s-33.022-7.569-51.863-7.833c-31.131-0.436-49.172 4.684-49.172 4.684l-4.418-1.173-0.133-18.873s10.56-8.998 51.844-7.341c41.285 1.657 54.488 10.913 54.488 10.913z" style="fill:#e6e7e8"/></g><g clip-path="url(#clipPath87703)" style="opacity:.10001"><g transform="translate(756.29 132.78)"><path d="m0 0c0.309 3.14 0.618 6.28 0.927 9.42 2.207-0.485 4.628 0.129 6.339 1.606 0.298-2.606 0.081-5.271-0.634-7.795 1.087 0.391 2.175 0.781 3.262 1.171-0.409 1.931-0.818 3.861-1.228 5.792 0.968 0.275 1.936 0.551 2.904 0.827 0.894-2.97 1.361-6.069 1.381-9.17-30.162-9.571-53.71-15.767-91.726-8.001-3.318 0.678-12.263 4.497-12.263 4.497l-1.2 10.734s1.817 0.388 2.725 0.581c-0.02-2.406-0.039-4.812-0.058-7.219 1.236-0.41 2.471-0.821 3.707-1.232 0.163 5.33-0.125 10.673-0.86 15.954 1.586 0.156 3.172 0.312 4.757 0.468-2.421 1.092-3.741 3.882-3.755 6.538-0.014 2.655 1.056 5.196 2.312 7.536 8.548 15.931 27.314 25.729 45.272 23.639-12.794-1.986-25.916-11.177-28.374-23.889-0.7-3.623-0.486-7.769 1.227-11.037 1.712-3.268 7.404-6.809 10.992-5.952-5.755 0.446-11.511 0.891-17.266 1.337-0.347-2.941-0.693-5.882-1.039-8.823-0.246-2.086-0.488-4.235 0.076-6.258 0.563-2.024 2.136-3.915 4.217-4.194 2.114-0.283 4.529 1.045 6.253-0.208-0.65 2.952-0.918 5.988-0.796 9.009 1.741 0.399 3.543 0.537 5.324 0.407 1.005-3.016 1.148-6.315 0.41-9.407 3.445-1.466 7.33-1.879 11.007-1.171 0.252 3.351 0.504 6.701 0.756 10.052 2.485-0.31 5.015-0.258 7.485 0.155-0.156-3.573-0.311-7.146-0.467-10.719 3.516 1.122 7.282 1.453 10.94 0.962-0.345 3.132-0.439 6.292-0.28 9.439 1.685 0.203 3.37 0.407 5.056 0.61 0.303-3.251 0.381-6.524 0.234-9.786 2.824 0.494 5.647 0.987 8.471 1.481 0.731 2.78 1.156 5.64 1.265 8.512l7.047 1.986c0.087-3.238-0.33-6.488-1.23-9.599 2.351 0.209 4.668 0.802 6.83 1.747" style="fill:#231f20"/></g></g><g transform="translate(669.57 149.94)"><path d="m0 0s31.631-4.003 48.608-2.622 48.669 6.757 48.669 6.757l3.053-2.515s-30.249-6.949-54.366-7.358c-24.117-0.408-50.945 6.627-50.945 6.627z" style="fill:#fff"/></g><g transform="translate(685.01 179.5)"><path d="M 0,0 C -2.447,-3.728 9.538,10.355 44.147,-0.545 57.33,-4.697 74.658,-17.618 77.938,-21.801 70.58,-7.744 57.227,3.679 35.971,6.54 20.009,8.689 2.447,3.728 0,0" style="fill:#fff"/></g><g clip-path="url(#clipPath87727)" style="opacity:.10001"><g transform="translate(763.43 142.69)"><path d="m0 0-4.488-0.042c2.118-3.741 3.722-6.548 4.823-10.703 0.102 3.986 0.011 6.772-0.335 10.745m-17.977-2.904c2.117-3.741 3.753-7.754 4.855-11.909 0.102 3.986-0.021 7.979-0.367 11.952-1.496-0.015-2.992-0.028-4.488-0.043m-16.351-2.044c2.118-3.741 3.754-7.754 4.855-11.909 0.103 3.986-0.02 7.979-0.367 11.952-1.496-0.015-2.991-0.028-4.488-0.043m-15.941-0.408c2.117-3.741 3.753-7.755 4.854-11.91 0.103 3.987-0.02 7.979-0.367 11.952-1.496-0.014-2.991-0.028-4.487-0.042m-42.921 3.27c2.117-3.741 3.753-7.755 4.855-11.909 0.102 3.986-0.021 7.978-0.367 11.951l-4.488-0.042m8.993-1.635c2.117-3.741 3.753-7.755 4.855-11.91 0.102 3.987-0.021 7.979-0.367 11.952-1.497-0.014-2.992-0.028-4.488-0.042m15.124-1.227c2.118-3.741 3.753-7.754 4.855-11.909 0.102 3.986-0.021 7.979-0.367 11.952-1.496-0.015-2.992-0.028-4.488-0.043" style="fill:#231f20"/></g></g><g transform="translate(949.42 158.44)"><path d="m0 0s-1.561 16.614-10.981 21.602c-7.27 3.85-17.472 6.06-17.472 6.06z" style="fill:#ad4639"/></g><g transform="translate(949.42 158.44)"><path d="M 0,0 C 0,0 -12.649,30.49 -50.259,33.711 -89.897,37.107 -101.355,8.941 -97.841,-2.073 -71.651,-16.794 0,0 0,0" style="fill:#e6e7e8"/></g><g transform="translate(952.62 159.51)"><path d="m0 0s-33.022-7.569-51.863-7.833c-31.131-0.436-49.172 4.684-49.172 4.684l-4.418-1.173-0.133-18.873s10.56-8.998 51.845-7.341c41.284 1.657 54.487 10.913 54.487 10.913z" style="fill:#e6e7e8"/></g><g clip-path="url(#clipPath87755)" style="opacity:.10001"><g transform="translate(938.87 137.14)"><path d="m0 0c0.309 3.14 0.618 6.28 0.927 9.42 2.207-0.485 4.628 0.129 6.339 1.606 0.298-2.606 0.081-5.271-0.634-7.795 1.087 0.391 2.175 0.781 3.262 1.171-0.409 1.931-0.818 3.861-1.228 5.792 0.968 0.275 1.936 0.551 2.904 0.827 0.894-2.97 1.361-6.069 1.381-9.17-30.162-9.571-53.71-15.767-91.726-8.001-3.318 0.678-12.263 4.497-12.263 4.497l-1.2 10.734s1.817 0.388 2.725 0.581c-0.02-2.406-0.039-4.812-0.058-7.219 1.236-0.41 2.471-0.821 3.707-1.232 0.163 5.33-0.125 10.673-0.86 15.954 1.586 0.156 3.172 0.312 4.757 0.468-2.421 1.092-3.741 3.882-3.755 6.538-0.014 2.655 1.056 5.196 2.312 7.536 8.548 15.931 27.314 25.729 45.272 23.639-12.794-1.986-25.916-11.177-28.374-23.889-0.7-3.623-0.486-7.769 1.227-11.037 1.712-3.268 7.404-6.809 10.992-5.952-5.755 0.446-11.511 0.891-17.266 1.337-0.347-2.941-0.693-5.882-1.039-8.823-0.246-2.086-0.488-4.235 0.076-6.258 0.563-2.024 2.136-3.915 4.218-4.194 2.113-0.283 4.528 1.045 6.252-0.208-0.65 2.952-0.918 5.988-0.796 9.009 1.742 0.399 3.543 0.537 5.324 0.407 1.005-3.016 1.148-6.315 0.41-9.407 3.445-1.466 7.33-1.879 11.007-1.171l0.756 10.052c2.485-0.31 5.015-0.258 7.485 0.155-0.156-3.573-0.311-7.146-0.467-10.719 3.516 1.122 7.282 1.453 10.94 0.962-0.345 3.132-0.439 6.292-0.28 9.439 1.685 0.203 3.37 0.407 5.056 0.61 0.303-3.251 0.381-6.524 0.234-9.786 2.824 0.494 5.647 0.987 8.471 1.481 0.731 2.78 1.156 5.64 1.265 8.512l7.047 1.986c0.087-3.238-0.33-6.488-1.23-9.599 2.351 0.209 4.668 0.802 6.83 1.747" style="fill:#231f20"/></g></g><g transform="translate(852.15 154.3)"><path d="m0 0s31.631-4.003 48.608-2.622 48.669 6.757 48.669 6.757l3.053-2.515s-30.249-6.949-54.366-7.358c-24.117-0.408-50.945 6.627-50.945 6.627z" style="fill:#fff"/></g><g transform="translate(866.5 184.4)"><path d="M 0,0 C -2.447,-3.728 16.351,9.265 43.602,0 56.688,-4.449 75.748,-18.163 79.028,-22.346 71.67,-8.289 59.952,3.679 38.697,6.54 22.734,8.689 2.447,3.728 0,0" style="fill:#fff"/></g><g clip-path="url(#clipPath87779)" style="opacity:.10001"><g transform="translate(946.01 147.05)"><path d="m0 0-4.488-0.042c2.118-3.741 3.722-6.548 4.823-10.703 0.102 3.986 0.011 6.772-0.335 10.745m-17.977-2.904c2.117-3.741 3.753-7.754 4.855-11.909 0.102 3.986-0.021 7.979-0.367 11.952-1.496-0.015-2.992-0.028-4.488-0.043m-16.351-2.044c2.118-3.741 3.754-7.754 4.855-11.909 0.103 3.986-0.02 7.979-0.367 11.952-1.496-0.015-2.991-0.028-4.488-0.043m-15.941-0.408c2.117-3.741 3.753-7.755 4.854-11.91 0.103 3.987-0.02 7.979-0.367 11.952-1.496-0.014-2.991-0.028-4.487-0.042m-42.921 3.27c2.117-3.741 3.753-7.755 4.855-11.909 0.102 3.986-0.021 7.978-0.367 11.951l-4.488-0.042m8.993-1.635c2.117-3.741 3.753-7.755 4.855-11.91 0.102 3.987-0.021 7.979-0.367 11.952-1.497-0.014-2.992-0.028-4.488-0.042m15.124-1.227c2.118-3.741 3.753-7.754 4.855-11.909 0.102 3.986-0.021 7.979-0.367 11.952-1.496-0.015-2.992-0.028-4.488-0.043" style="fill:#231f20"/></g></g><g transform="translate(798.91 974.89)"><path d="m0 0c7 11.937 20.461 29.464 9.047 39.343-24.088 6.826-59.935 12.142-96.12 12.005-33.726 0.495-61.315-1.938-85.734-7.83-3.197-2.872-5.46-6.382-5.112-10.605 0.729-8.845 8.792-15.307 7.75-24.602-1.084-9.658-15.962-32.325-16.311-52.017 3.642-32.842 28.717-39.953 28.717-39.953s3.765-50.895 10.112-77.187c-0.076-5.277-57.846-77.476-43.843-76.894 16.596-36.195 169.63-32.925 191.11-5.963 3.006 0.976-43.407 76.017-40.894 84.74 8.494 29.494 15.199 76.229 15.199 76.229s19.967 8.917 23.759 22.436c8.614 30.72-9.068 40.878 2.32 60.298" style="fill:#e6e7e8"/></g><g transform="translate(703.2 930.9)"><path d="m0 0c17.184 0.587 33.471-5.852 50.33-8.546 11.891-1.9 26.581-0.72 32.985 9.377 8.393 13.233-3.912 31.295 3.774 44.907 2.778 4.92 7.728 8.313 11.747 12.381s7.315 9.807 5.486 14.99c-1.048 2.97-3.6 5.168-6.234 6.987-7.257 5.01-15.032 6.33-24.019 7.211-7.054 0.692-16.26 2.452-16.26 2.452s4.518-10.156 5.601-13.818c6.259-21.158-18.464-50.618-40.91-56.324s-38.906 4.739-57.058 17.856c-11.536 8.335-16.15 33.573-11.943 40.248 1.402 2.225 12.382 11.11 11.491 11.756-5.351 3.877-39.05-1.938-39.983-8.45-1.057-7.378 11.036-21.333 5.585-35.486-7.145-18.55-18.993-32.346-8.299-45.653 8.432-10.491 22.432-9.562 36.323-7.525 13.89 2.037 27.392 7.159 41.384 7.637" style="fill:#f9f9fa"/></g><g clip-path="url(#clipPath87803)" style="opacity:.5"><g transform="translate(668.6 855.68)"><path d="m0 0c-0.434-13.164-0.384-26.777 4.857-38.665 5.24-11.888-29.193-100.11-16.083-99.01-9.724-6.517-29.116 8.523-37.823 15.797s40.874 68.238 38.216 79.386-5.812 38.653-8.834 49.696c-2.107 7.701-2.719 19.921-7.788 28.347-13.315 4.586-20.057 20.623-23.892 27.209 9.793-11.131 34.783-11.645 49.16-8.063s27.985 6.855 42.576 5.487c15.277-1.433 28.983-4.088 44.05-6.779 15.066-2.692 42.798-1.634 45.091 13.704-0.814-12.964-16.103-25.35-25.301-30.633-2.172-1.248-1.778-13.143-4.208-13.662-2.517-0.538-5.048 0.338-7.448 1.143-22.106 7.418-46.05 9.723-69.497 6.69-4.72-0.611-9.609-1.511-13.534-4.307-7.941-5.657-9.225-16.722-9.542-26.34" style="fill:#bbbdbf"/></g></g><g transform="translate(642.78 892.15)"><path d="m0 0c9.983-0.99 20.271 1.407 28.788 6.708-7.17-8.747-17.079-15.216-27.971-18.261 0.264 3.864-0.011 7.765-0.817 11.553" style="fill:#bbbdbf"/></g><g transform="translate(748.3 896.51)"><path d="m0 0c3.926-7.724 12.519-12.829 21.18-12.584 0.014 2.421 0.027 4.842 0.041 7.262l3.978 1.725c-8.486-1.643-17.512-0.355-25.199 3.597" style="fill:#bbbdbf"/></g><g transform="translate(743.86 1009.2)"><path d="m0 0-62.322 0.339 4.969 129.12 78.471 16.976z" style="fill:#efc7b0"/></g><g transform="translate(686.87 1138.6)"><path d="m0 0c20.745 3.056 55.551 13.961 76.278 12.131 0.364-12.527-3.33-27.77-5.635-40.177-20.106-5.739-52.37-37.179-72.387-32.428 1.2 10.623 1.852 49.827 1.744 60.474" style="fill:#d6ab93"/></g><g transform="translate(765.69 1001.7)"><path d="m0 0c-0.85-22.098-29.65-50.957-52.226-50.834-22.576 0.122-55.922 27.302-55.072 49.4 0.851 22.098 32.044 26.058 54.62 25.935s53.528-2.403 52.678-24.501" style="fill:#efc7b0"/></g><g transform="translate(681.09 1024.1)"><path d="m0 0c-17.804-5.452-32.673-26.054-14.331-45.828 4.201-4.528 26.05-25.109 30.248-23.874-7.77 1.814-37.686 31.904-33.415 46.088 0.973 3.23 3.236 5.763 5.808 7.702 5.047 3.805 11.282 5.321 11.282 5.321s0.72 10.686 0.408 10.591" style="fill:#d6ab93"/></g><g transform="translate(698.02 967.55)"><path d="m0 0c5.93-2.436 8.335-9.451 9.953-15.692 31.894-7.236 67.875 39.483 54.657 61.751-3.51 5.913-12.075 6.006-17.813 9.774-1.205-4.478 0.828-7.72-0.378-12.198 7.214 0.151 10.262-6.876 12.119-13.801s-0.094-14.565-3.788-20.898c-3.694-6.334-8.998-11.577-14.346-16.607-6.132-5.768-14.317-8.253-22.351-6.552-0.849 4.295 8.021 12.482 10.673 16.085-2.675-1.879-10.432-10.052-14.983-10.513-5.078-0.513-10.779 10.776-13.743 8.651" style="fill:#d6ab93"/></g><g transform="translate(698.51 993.28)"><path d="m0 0-36.592 2.721 2.823 8.056z" style="fill:#d6ab93"/></g><g transform="translate(757.12 1001)"><path d="m0 0-30.969-7.903 32.533-3.708z" style="fill:#d6ab93"/></g><g transform="translate(700.08 994.97)"><path d="m0 0c-0.078-0.346-0.172-0.717-0.437-0.957-0.386-0.35-0.969-0.291-1.471-0.211-5.799 0.931-11.721 1.902-16.837 4.691-3.559 1.94-6.686 4.74-10.584 5.915 9.247-0.308 18.494-0.617 27.741-0.925 0.554-0.019 1.134-0.044 1.605-0.325 1.07-0.64 1.048-2.188 0.862-3.449-0.234-1.588-0.527-3.169-0.879-4.739" style="fill:#f1dbcb"/></g><g transform="translate(752.61 1002.4)"><path d="m0 0c-6.266 0.511-12.532 1.022-18.799 1.533-2.473 0.201-5.019 0.424-7.193 1.567-2.093-4.218-3.48-8.769-4.081-13.398 10.287 2.48 20.372 5.933 30.073 10.298" style="fill:#f1dbcb"/></g><g transform="translate(669.37 982.17)"><path d="m0 0c3.515-0.457 7.076-0.927 10.323-2.287 4.339-1.818 7.838-5.104 11.241-8.327 3.268-3.095 6.536-6.19 9.804-9.284 2.983-2.826 6.113-5.908 6.924-9.984-2.998-1.666-6.652-0.499-9.666 0.934-11.332 5.387-20.91 14.243-27.167 25.12-0.684 1.189-1.343 2.444-1.459 3.828" style="fill:#f1dbcb"/></g><g transform="translate(735.2 957.31)"><path d="m0 0c-1.493-1.009-3.089-1.904-4.817-2.363-1.246-0.331-2.532-0.428-3.809-0.523-2.249-0.169-4.497-0.337-6.745-0.505 4.994 10.709 14.411 19.372 25.462 23.422 1.131 0.414 2.327 0.788 3.503 0.63s2.321-0.994 2.453-2.178c0.122-1.086-0.594-2.096-1.272-2.98-4.363-5.692-8.842-11.494-14.775-15.503" style="fill:#f1dbcb"/></g><g clip-path="url(#clipPath87871)" style="opacity:.2"><g transform="translate(797.44 766.38)"><path d="m0 0-14.231 19.713-16.892 13.568-52.688-15.74 1.68-6.14 37.162 8.206-29.041-17.153 2.882-5.75 36.358 15.772-34.072-18.383 3.49-5.421 39.451 12.443-27.005-23.797 3.988-3.576 32.76 19.122z" style="fill:#231f20"/></g></g><g transform="translate(794.18 760.85)"><path d="m0 0c9.783 1.245 3.258 8.796 3.258 8.796l-14.231 19.712-16.891 13.569-52.689-15.74 1.68-6.14 37.163 8.206-29.042-17.154 2.882-5.749 36.359 15.772-34.073-18.383 3.49-5.422 39.452 12.443-27.006-23.797 3.988-3.575 32.76 19.122s3.117-2.905 12.9-1.66" style="fill:#efc7b0"/></g><g transform="translate(782.21 771.44)"><path d="m0 0c-0.097-0.418-0.242-0.83-0.253-1.259-0.025-0.963 0.624-1.813 1.342-2.455 3.64-3.258 9.176-3.061 13.957-2.057-3.971 7.904-8.399 15.655-14.184 22.348-4.694 5.431-10.251 10.114-16.398 13.82-0.501-1.135-0.693-2.404-0.55-3.635 1.789-1.009 3.679-2.119 4.599-3.955 0.792-1.579 0.702-3.566-0.23-5.067 3.213-1.313 6.938-3.305 7.136-6.77 0.08-1.383-0.46-2.718-0.989-3.999 3.419 0.018 6.341-3.64 5.57-6.971" style="fill:#e4b69d"/></g><g transform="translate(778.84 768.24)"><path d="m0 0c-0.979-1.087-31.681-21.683-31.681-21.683l27.824 29.425-44.44-15.44-1.141 2.012 40.202 23.855-3.279 3.282-40.709-20.772-2.193 3.18 39.425 24.664-47.666-13.191-1.56 3.615 52.689 15.74-0.193-4.732s4.586-1.015 4.599-3.954c0.014-2.938-1.359-3.443-0.229-5.067 1.129-1.624 5.499 0.676 6.059-3.44 0.56-4.115-0.366-6.235-0.366-6.235s3.291 1.643 4.657-3.211-1.998-8.048-1.998-8.048" style="fill:#f1dbcb"/></g><g clip-path="url(#clipPath87899)" style="opacity:.2"><g transform="translate(614.16 767.98)"><path d="m0 0c-9.588 2.31 13.339 23.101 13.339 23.101l18.278 11.634 50.645-21.421-2.343-5.92-36.039 12.231 26.986-20.234-3.495-5.398-34.41 19.663 31.852-22.008-4.064-5.006-37.849 16.693 24.234-26.614-4.356-3.117-30.467 22.598s-2.723 1.488-12.311 3.798" style="fill:#231f20"/></g></g><g transform="translate(613.87 766.81)"><path d="m0 0c-9.588 2.31-2.274 9.1-2.274 9.1l16.306 18.034 18.278 11.635 50.645-21.422-2.343-5.919-36.039 12.231 26.986-20.234-3.495-5.399-34.41 19.663 31.852-22.008-4.064-5.006-37.85 16.693 24.235-26.614-4.357-3.117-30.466 22.598s-3.416-2.545-13.004-0.235" style="fill:#efc7b0"/></g><g transform="translate(626.93 776.02)"><path d="m0 0c0.05-0.426 0.149-0.851 0.113-1.279-0.081-0.96-0.818-1.734-1.602-2.294-3.976-2.839-9.457-2.036-14.099-0.514 4.814 7.422 10.065 14.64 16.548 20.659 5.261 4.883 11.298 8.929 17.815 11.939 0.373-1.183 0.425-2.465 0.148-3.674-1.889-0.806-3.889-1.703-5.005-3.426-0.96-1.483-1.088-3.468-0.327-5.062-3.337-0.953-7.259-2.525-7.835-5.947-0.231-1.367 0.159-2.753 0.545-4.083-3.397 0.392-6.703-2.923-6.301-6.319" style="fill:#e4b69d"/></g><g transform="translate(629.93 772.48)"><path d="m0 0c0.854-1.188 29.113-25.026 29.113-25.026l-24.43 32.299 42.479-20.22 1.355 1.875-37.345 28.119 3.62 2.903 38.186-25.11 2.528 2.92-36.483 28.838 45.932-18.338 1.947 3.422-50.646 21.422-0.327-4.724s-4.669-0.507-5.005-3.426c-0.335-2.919 0.974-3.572-0.327-5.062-1.301-1.491-5.392 1.275-6.4-2.754-1.007-4.029-0.32-6.239-0.32-6.239s-3.091 1.994-4.981-2.681 1.104-8.218 1.104-8.218" style="fill:#f1dbcb"/></g><g transform="translate(806.75 1849.4)"><path d="m0 0s36.26 74.427 114.5 64.885c78.244-9.541 162.21-62.977 164.12-68.702s20.992-198.47 17.176-217.56c-3.817-19.084-120.23-183.21-120.23-190.84s24.809-17.176 26.717-30.534c1.908-13.359-55.343-28.626-41.985-40.077 13.359-11.45 78.245-5.725 45.802-43.893s-61.069-59.16-59.16-72.519c1.908-13.359 3.816-30.534 3.816-30.534l-17.175 51.526s57.252 53.435 51.527 59.161c-5.726 5.725-68.703 32.442-53.436 43.893 15.268 11.45 32.443 34.351 32.443 34.351s-51.527-3.817-53.435 9.542-110.69 431.3-110.69 431.3" style="fill:#c79e38"/></g><g clip-path="url(#clipPath87931)" style="opacity:.2"><g transform="translate(938.34 1621.2)"><path d="m0 0c-16.859 87.241-42.232 179.35-109.55 237.34 22.918 32.699 64.138 51.602 103.87 47.633-8.099-4.269-16.437-8.732-22.16-15.879s-8.164-17.762-3.329-25.537c3.465-5.571 9.78-8.575 15.754-11.287 21.396-9.714 42.792-19.428 64.188-29.143 11.349-5.152 23.033-10.544 31.412-19.771 11.767-12.958 15.143-31.316 17.062-48.714 3.527-31.981 3.787-64.322 0.773-96.356-0.899-9.552-2.009-19.626 1.941-28.369 8.421-18.641 36.527-20.485 52.751-8.029-25.7-42.959-51.401-85.918-77.101-128.88-15.285-25.549-31-51.611-53.851-70.695 7.056-4.723 14.113-9.445 21.169-14.167-13.942-13.956-27.885-27.912-41.827-41.868 11.706 14.976 19.723 26.072 31.429 41.049-17.313-0.094-30.946 5.193-48.017 8.079 19.301 43.124 27.98 90.955 25.06 138.11-1.384 22.361-5.321 44.481-9.572 66.478" style="fill:#231f20"/></g></g><g clip-path="url(#clipPath87947)" style="opacity:.3"><g transform="translate(834.3 1863.2)"><path d="m0 0c11.995 13.677 27.616 24.113 44.78 30.118 2.73 0.955 4.725-2.517 2.504-4.371-7.508-6.267-13.797-14-18.358-22.65-0.99-1.879 0.534-4.076 2.639-3.801 3.248 0.424 6.457 1.14 9.578 2.134 2.329 0.743 4.233-1.945 2.803-3.928l-6.139-8.515c-1.146-1.59-0.15-3.797 1.791-4.064 4.495-0.619 9.083-0.563 13.561 0.165 1.534 0.249 2.847-1.013 2.851-2.567 0.011-4.928 5.204-9.753 9.859-12.764 15.602-10.09 31.205-20.181 46.807-30.272 1.4-0.905 1.586-2.89 0.346-4.004-3.62-3.255-5.855-9.065-7.184-14.146-0.414-1.581 33.269-12.673 33.335-13.798 0.086-1.467-14.683-25.265-12.574-24.097 6.231 3.45 12.888 7.573 18.375 5.983 1.661-0.481 2.315-2.512 1.304-3.915-3.062-4.248-5.252-12.945-7.303-20.007-0.803-2.764 2.861-4.541 4.538-2.202 0.053 0.074 0.107 0.149 0.16 0.223 1.657 2.31 5.27 0.61 4.552-2.14-1.862-7.13-3.304-16.138-4.037-21.654-0.191-1.439 0.855-2.802 2.306-2.862 2.982-0.123 5.218 1.105 7.991 2.384 1.738 0.802 3.72-0.499 3.643-2.411-0.363-9.125-0.847-20.534-2.614-30.051-0.491-2.642 2.974-4.137 4.572-1.976 2.166 2.93 4.47 6.392 6.626 9.282 1.685 2.259 5.265 0.517 4.526-2.202-2.316-8.515-5.968-19.685-8.282-28.198-0.698-2.565 2.508-4.342 4.337-2.413 4.371 4.608 10.077 10.963 14.169 15.207 1.684 1.746 4.611 0.39 4.384-2.025-1.529-16.337-4.976-55.747-8.552-76.29-0.457-2.62 2.888-4.111 4.526-2.016 3.737 4.781 8.203 10.721 12.09 15.608 1.722 2.164 5.156 0.462 4.481-2.219-1.868-7.425-3.496-15.812-5.368-23.222-0.687-2.722 2.855-4.408 4.535-2.159 4.254 5.695 8.34 12.364 12.604 18.002 1.723 2.279 5.316 0.491 4.516-2.251-1.46-5.001-3.177-10.822-4.707-16.047-0.796-2.719 2.761-4.523 4.489-2.277l20.055 26.06c-18.632-41.303-81.036-138.59-86.816-148-4.955-8.064-20.747-17.52-19.442-19.009 4.198-4.788 9.583-8.537 15.531-10.81 1.886-0.72-4.359-2.624-4.359-2.624-1.683-1.286-25.466 4.785-34.987 3.181-1.958-0.33-2.053 4.686-1.353 6.544l17.13 45.476c5.012 13.305 10.031 26.63 13.882 40.316 11.79 41.892 12.301 86.901 1.472 129.05-6.743 26.244-17.719 51.176-28.647 75.971-5.501 12.479-11.001 24.959-16.502 37.439-12.444 28.235-27.028 58.739-54.943 71.883-7.168 3.375-15.892 6.366-18.369 13.891" style="fill:#231f20"/></g></g><g transform="translate(877.36 1395.2)"><path d="m0 0s18.448 34.987 33.715 24.173 24.809-22.265 11.45-56.616c-13.358-34.351-16.643-49.679-31.17-54.707-16.54-5.725-30.534 3.181-30.534 3.181z" style="fill:#e4b69d"/></g><g transform="translate(450.51 1635.6)"><path d="m0 0s-8.906-111.96-6.361-134.86c2.544-22.901 1.272-66.158 0-94.148-1.273-27.99-9.542-28.308-9.542-60.114 0-31.807 13.358-121.82 88.422-182.89 75.064-61.069 128.5-87.787 147.58-86.515 19.084 1.273 164.76 118.64 181.93 174.3 10.375 33.625 47.073 281.17 47.073 281.17s-20.076 203.57-156.49 220.1c-251.91 30.535-292.62-117.05-292.62-117.05" style="fill:#efc7b0"/></g><g transform="translate(743.13 1752.7)"><path d="m0 0c-130.01 15.758-203.76-15.925-244.7-50.278 38.567 12.122 88.997 18.877 154.96 15.004 138.14-8.111 189.61-111.36 184.84-215.36-1.741-37.949-13.899-42.149-2.862-97.329 10.496-52.481 7.569-109.86-9.542-158.4-12.905-36.606-78.564-111.93-124.42-151.6 49.265 35.073 137.97 114 151.14 156.69 10.375 33.625 37.214 272.58 37.214 272.58s-10.217 212.16-146.63 228.69" style="fill:#f1dbcb"/></g><g transform="translate(540.58 1167.1)"><path d="m0 0c-72.137 59.682-87.391 149.54-84.975 181.26 2.545 33.397 31.22 13.017 32.443 41.031 1.222 28.013-25.227 77.337-27.672 100.19-2.446 22.854 10.512 148.2 10.512 148.2s19.676 74.484 117.29 108.68c-115.12-29.293-137.66-110.88-137.66-110.88s-8.906-111.96-6.361-134.86 1.272-66.158 0-94.148-9.542-28.308-9.542-60.114c0-31.807 13.358-121.82 88.422-182.89 75.063-61.069 128.5-87.787 147.58-86.514 2.825 0.188 8.476 2.972 16.023 7.673-1.745-0.801-3.206-1.316-4.232-1.407-18.339-1.624-69.692 24.106-141.83 83.789" style="fill:#e4af92"/></g><g transform="translate(560.09 1299.3)"><path d="m0 0c14.252-1.724 27.672-5.725 49.604-3.092-5.292-8.664-10.69-17.263-16.192-25.795-28.164 5.509-35.185 29.101-33.412 28.887" style="fill:#d1a086"/></g><g transform="translate(593.5 1270.4)"><path d="m0 0c-11.943-5.942-32.82-6.717-49.157 4.555-2.862 5.725-1.368 16.526 0.955 20.992 24.809 47.71 29.911 105.54 28.626 120.23-3.503 40.029-23.855 81.107-65.84 83.015 13.042 2.976 20.672 7.573 34.035 6.961 13.363-0.613 27.103-5.292 35.871-15.396 11.063-12.747 17.026-52.931 16.926-69.809-0.281-47.511-6.679-85.878-30.534-111.64-1.3-1.404-5.797-7.803-5.892-9.714-0.149-3.034 5.892-26.546 35.01-29.192" style="fill:#e4af92"/></g><g transform="translate(639.93 1393.1)"><path d="m0 0c-1.662 1.052-9e-3 42.188 6.251 60.757 6.261 18.57 16.612 36.277 32.219 48.129 7.311 5.552 51.059 19.108 81.268 14.313-26.393-6.655-59.044-19.14-67.423-24.785-20.019-13.486-31.642-40.686-42.085-62.448-5.447-11.349-10.587-23.383-10.23-35.966" style="fill:#e4af92"/></g><g transform="translate(599.96 1332.3)"><path d="m0 0c6.356 29.615 1.66 60.381-3.741 90.186-0.573-21.675-1.172-43.548-6.345-64.604-5.172-21.057-15.356-41.52-32.126-55.264 6.628-3.822 19.567-7.928 30.006-4.299 0.74 0.257 10.085 24.099 12.206 33.981" style="fill:#f1dbcb"/></g><g transform="translate(916.23 1390.6)"><path d="m0 0c4.888-13.72 0.46-28.484-4.361-42.027-1.855 0.792 5.085 25.635-3.503 34.223-4.343 11.876-16.857-15.442-17.653-20.039-1.042-6.013 4.771-26.717-4.408-36.018-4.248-4.305-12.503-3.365-16.812 0.878 3.082 21.89 11.426 43.02 24.13 61.11 4.143 5.899 11.074 12.173 17.726 8.297 2.385-1.389 3.955-3.825 4.881-6.424" style="fill:#cc9576"/></g><g transform="translate(444.76 1528.5)"><path d="m0 0c-29.661 34.167-27.739 84.637-24.163 129.74 1.77 22.328 3.71 45.288 13.692 65.338 6.235 12.523 15.368 23.371 25.074 33.446 55.513 57.621 130.38 92.232 205.1 120.84 15.847 6.066 32.218 12.003 49.185 11.827 11.92-0.123 23.576-3.27 35.08-6.394 16.33-4.436 32.661-8.871 48.991-13.307 25.256-6.859 50.994-13.933 72.836-28.348 21.148-13.959 37.493-34.086 51.549-55.17 52.043-78.064 76.553-174.1 68.287-267.56-0.557-6.29-1.265-12.611-3.093-18.656-2.693-8.902-7.712-16.89-12.674-24.756l-48.734-77.252c1.767 13.971-17.676 22.723-30.3 16.483-12.625-6.24-18.733-20.637-22.714-34.144-6.925 34.145-11.66 53.209-11.746 88.049-0.085 34.84-3.586 93.922-11.45 127.86-18.13 78.245-156.06 67.763-169.09 68.21-29.055 0.996-57.638-21.318-85.183-12.02-7.862 2.654-14.778 7.741-22.769 9.975-20.355 5.69-40.475-8.095-61.022-13.049-5.467-1.318-11.37-2.144-15.67-5.769-4.656-3.923-6.418-10.295-10.309-14.978-8.805-10.598-26.604-10.677-34.287-22.116-2.428-3.616-9.641-56.332-6.593-78.254" style="fill:#d1a841"/></g><g clip-path="url(#clipPath88003)" style="opacity:.3"><g transform="translate(886.88 1602.7)"><path d="m0 0 34.277 15.854c-5.689-11.583-13.394-22.171-22.666-31.147 7.79 4.395 15.579 8.79 23.369 13.185-9.848-15.029-19.696-30.058-29.543-45.087 23.511 12.96 44.411 30.634 61.097 51.666-18.339-33.655-39.196-65.937-62.339-96.488 16.08 13.458 30.361 29.064 42.343 46.272-16.405-34.566-32.81-69.131-49.215-103.7 15.433 20.653 30.866 41.306 46.299 61.959-8.33-19.181-16.66-38.363-24.991-57.545l36.429 53.458c-11.609-22.428-20.988-46.008-27.956-70.281 2.813 2.442 5.626 4.883 8.44 7.325 2.376-5.443-5.731-31.045-11.67-31.045-25.764 0-20.721-16.696-35.306-28.626-10.496 32.443-7.318 60.238-8.926 85.82-3.143 50.008-3.261 129.33-42.6 160.36-15.259 12.037-59.775 31.795-79.199 32.443-57.252 1.908-115.3-16.523-140.27-7.634-19.779 7.043-22.524 18.109-45.862 12.255-29.031-7.281-58.153-17.142-81.656-35.674s-40.722-47.149-39.076-77.034c-21.71 15.19-17.725 69.209-16.612 95.682 3.177 75.543 52.359 116.74 115.46 158.4-30.911-32.552-68.118-67.453-73.643-112 13.516 38.259 41.355 70.151 73.48 94.939s68.629 43.171 104.88 61.398c-31.635-21.098-57.211-51.174-72.951-85.788 24.674 28.879 55.591 52.396 90.008 68.466-29.35-23.852-51.537-56.406-63.006-92.445 28.458 44.685 74.523 77.816 125.94 90.578-42.232-24.061-75.266-63.837-91.166-109.77 12.847 22.791 32.733 41.55 56.234 53.047-9.113-12.989-18.227-25.978-27.34-38.966 38.724 32.55 86.117 54.689 135.93 63.5-36.344-15.03-66.229-45.03-81.119-81.432 16.52 18.773 38.526 32.658 62.581 39.486-17.016-14.187-31.92-30.903-44.071-49.429 36.358 27.319 75.072 55.611 120.26 60.741-31.132-19.321-56.812-47.324-73.37-80.009 28.386 27.8 66.593 45.363 106.18 48.807-27.521-13.723-50.325-36.703-63.836-64.33 19.267 14.72 41.663 25.323 65.26 30.895-11.568-11.521-23.136-23.041-34.703-34.562 12.454 3.69 24.907 7.381 37.361 11.071-9.815-10.54-19.63-21.081-29.445-31.621 24.228 7.383 31.459-16.497 7.159-34.611 19.869 6.933 38.848 16.412 56.326 28.133-9.39-17.511-21.904-33.341-36.773-46.521" style="fill:#231f20"/></g></g><g clip-path="url(#clipPath88019)" style="opacity:.3"><g transform="translate(535.7 1784.7)"><path d="m0 0c-2.224 1.893-5.464-0.471-7.373-2.681-33.961-39.33-69.471-82.09-75.054-133.75-0.139 37.539 7.475 75.089 22.223 109.61-30.911-40.285-44.549-93.388-36.876-143.58-2.028 10.551-4.056 21.102-6.085 31.653-3.885-21.337-2.852-43.553 2.995-64.437 4.839 25.298 21.695 47.424 43.232 61.551 21.538 14.127 47.401 20.731 73.127 21.984 13.038 0.635 26.718 0.09 38.374 5.967 2.344 1.182 4.833 2.658 7.41 2.157 3.959-0.77 5.496-5.442 7.811-8.744 5.805-8.281 17.758-8.536 27.854-7.948 2.962 0.173 6.029 0.373 8.652 1.761 4.33 2.29 6.447 7.202 8.37 11.707 18.758 43.938 49.004 82.912 86.911 111.99-46.928-27.687-96.571-58.298-119.28-107.83 7.732 25.976 20.756 50.365 38.041 71.24-23.173-19.659-42.869-43.403-57.908-69.809 10.435 58.512 44.054 112.56 91.924 147.79-25.585-15.575-51.189-31.536-73.202-51.849s-40.449-45.438-48.443-74.305c2.906 20.175 11.179 39.196 20.774 57.179 9.396 17.613 20.141 34.506 32.109 50.483-34.387-29.376-58.953-68.327-82.979-106.64 4.627 46.92 26.042 92.009 59.485 125.24-45.709-32.396-81.34-78.806-100.83-131.33 3.109 33.838 16.823 66.625 38.732 92.6" style="fill:#231f20"/></g></g><g transform="translate(964.51 1621.6)"><path d="m0 0c0.54-7.24 4.906-32.375 1.272-36.896-10.739-13.36-48.433-43.64-59.172-57 8.078 0.777 29.151 19.042 35.635 23.921-4.175-6.93-20.634-46.505-24.809-53.435 6.662 2.674 46.962 39.127 54.708 45.802-1.964-37.408-25.817-98.529-43.257-131.68 22.624 23.888 47.075 63.457 55.343 101.14 12.891 58.76-4.288 129.62-20.992 178.12-27.419 79.608-59.797 143.77-179.39 179.39-45.137 13.445-91.603 21.629-122.14 0 23.413-4.461 96.692 5.089 106.87-25.445-41.93-22.278-101.68-82.136-122.84-124.64 21.187 20.066 42.684 40.361 68.278 54.38 25.593 14.019 56.178 21.285 84.301 13.495-32.935-21.741-60.201-51.992-78.416-87 21.691 22.657 47.852 41.018 76.535 53.713-13.829-13.362-27.658-26.724-41.486-40.086 20.341 20.527 85.419 50.472 112.86 59.529-26.718-18.448-43.257-40.076-43.257-40.076s60.505 32.616 77.608 15.267c33.307-33.788 60.093-98.371 62.341-128.5" style="fill:#e3c666"/></g><g transform="translate(1100.2 1653.7)"><path d="m0 0c1.854 55.763-13.993 183.54-18.742 190.45-4.681 6.81-90 50.667-128.1 61.087-9.613 2.629-19.903 4.933-29.404 1.926-9.501-3.006-17.39-13.318-14.202-22.76 11.825-6.351 139.21-40.892 156.5-65.583 7.05-10.071 30.476-165.93 33.953-165.12" style="fill:#e3c666"/></g><g transform="translate(658.58 1380.5)"><path d="m0 0c-0.311 1.115-0.274 6.538-1.78 8.455s-8.211-2.459-8.239-0.252c-0.319 25.27 19.427 82.405 78.068 102.16 80.801 27.227 96.991-33.141 96.991-33.141s10.077-65.673-40.257-82.475c-50.552-16.874-120.6-9.738-124.78 5.248" style="fill:#cb8c84"/></g><g transform="translate(647.64 1391.1)"><path d="m0 0c-1.003 17.125 10.551 88.524 79.655 111.08 86.504 28.24 124.58-34.163 124.58-34.163s-18.221-21.669-39.219-25.42c-7.367-19.051-137.54-83.255-149.44-51.493-2.021 5.394-11.716 9.89-15.577-7e-3" style="fill:#572000"/></g><g transform="translate(663.62 1384.2)"><path d="m0 0c-3.865 13.851-0.034 77.883 63.636 99.337 74.681 25.166 86.624-28.194 86.624-28.194s9.527-62.529-36.995-78.058c-46.722-15.597-109.4-6.936-113.26 6.915" style="fill:#fff"/></g></g><g clip-path="url(#clipPath88055)"><g transform="translate(810.83 1434.6)"><path d="m0 0c-0.561-35.165-28.525-63.233-62.458-62.691-33.934 0.541-60.987 29.488-60.426 64.653s28.524 63.233 62.458 62.691 60.987-29.488 60.426-64.653" style="fill:#86b865"/></g><g transform="translate(785.03 1435.5)"><path d="m0 0c-0.303-18.975-15.392-34.121-33.703-33.829s-32.91 15.912-32.607 34.888c0.303 18.975 15.393 34.121 33.703 33.828 18.311-0.292 32.91-15.911 32.607-34.887" style="fill:#162936"/></g><g transform="translate(772.25 1454.2)"><path d="m0 0c-0.785-0.596-1.315-1.47-1.711-2.373-2.418-5.51-0.323-12.052-2.026-17.823-0.908-3.077-2.837-5.73-4.527-8.458s-3.208-5.748-3.134-8.956 2.242-6.568 5.426-6.967c2.355-0.294 4.607 1.028 6.435 2.542 3.398 2.814 6.08 6.486 7.726 10.579-1.071-6.281-0.791-12.954 1.909-18.726s8.08-10.489 14.394-11.356c6.086 7.798 10.584 16.703 13.359 26.198 4.456 15.25 2.987 25.858-0.63 32.567-1.01 1.875-2.324 2.831-4.11 3.992-1.27 0.825-2.918 0.71-4.41 0.457-7.587-1.285-14.044-7.556-18.82-13.588-0.202 2.773-1.058 7.79-2.649 10.069-1.592 2.28-5.018 3.525-7.232 1.843" style="fill:#fff"/></g></g><g clip-path="url(#clipPath88075)"><g clip-path="url(#clipPath88083)" style="opacity:.5"><g transform="translate(657.2 1402.3)"><path d="m0 0s4.64 68.664 69.424 88.513c82.603 25.309 109.24-33.847 109.24-33.847l-18.568-11.45s-9.478 46.115-80.246 27.838c-67.387-17.404-74.722-74.008-74.722-74.008z" style="fill:#231f20"/></g></g><g transform="translate(659.4 1385)"><path d="m0 0c-0.292-1.092-1.366-1.858-2.484-2.02-1.119-0.161-2.259 0.195-3.246 0.746-1.665 0.929-3.003 2.43-3.736 4.19 0.899 0.493 1.797 0.986 2.696 1.48 1.232 0.676 2.624 1.374 3.981 1.009 1.529-0.412 2.407-2.037 2.742-3.584 0.13-0.599 0.206-1.229 0.047-1.821" style="fill:#fff"/></g><g transform="translate(558.91 1375.6)"><path d="m0 0c0.273 0.962 0.496 5.556 1.661 7.266 1.165 1.711 5.759-1.608 5.88 0.264 1.387 21.428-0.944 68.522-41.97 81.871-56.529 18.394-80.043-33.519-80.043-33.519s-5.014-47.378 28.427-63.398c33.586-16.089 82.367-5.422 86.045 7.516" style="fill:#cb8c84"/></g><g transform="translate(567.22 1385.2)"><path d="m0 0c1.503 14.567 5.684 74.221-42.695 89.336-60.56 18.922-99.816-35.981-99.816-35.981s12.035-17.305 26.878-19.268c4.394-15.714 94.531-62.581 104.5-34.982 1.692 4.687 8.832 9.057 11.138 0.895" style="fill:#572000"/></g><g transform="translate(555.47 1378.4)"><path d="m0 0c3.399 11.958 12.765 65.818-31.779 80.311-52.247 17.001-72.404-28.728-72.404-28.728s-4.411-45.687 26.497-60.493c31.042-14.871 74.287-3.048 77.686 8.91" style="fill:#fff"/></g></g><g clip-path="url(#clipPath88115)"><g transform="translate(566.29 1418.2)"><path d="m0 0c-1.102-27.935-23.636-49.34-50.33-47.809-26.694 1.532-47.44 25.418-46.337 53.353 1.102 27.935 23.635 49.34 50.329 47.809s47.44-25.418 46.338-53.353" style="fill:#86b865"/></g><g transform="translate(546 1419.8)"><path d="m0 0c-0.595-15.074-12.754-26.624-27.158-25.798-14.405 0.826-25.6 13.716-25.005 28.79s12.754 26.624 27.159 25.798c14.404-0.826 25.599-13.716 25.004-28.79" style="fill:#162936"/></g><g transform="translate(536.3 1435.1)"><path d="m0 0c-0.629-0.449-1.063-1.126-1.391-1.831-2.006-4.301-0.481-9.569-1.929-14.101-0.773-2.417-2.34-4.464-3.721-6.577-1.382-2.114-2.633-4.465-2.636-7.018-1e-3 -2.552 1.642-5.294 4.14-5.714 1.848-0.31 3.645 0.668 5.111 1.812 2.728 2.127 4.907 4.959 6.28 8.159-0.961-4.959-0.866-10.272 1.15-14.948s6.161-8.6 11.113-9.493c4.937 6.001 8.644 12.934 11.006 20.391 3.793 11.978 2.836 20.459 0.116 25.909-0.76 1.523-1.776 2.325-3.16 3.306-0.983 0.697-2.282 0.659-3.461 0.507-5.995-0.775-11.194-5.551-15.066-10.191-0.107 2.211-0.686 6.226-1.896 8.09-1.209 1.864-3.882 2.964-5.656 1.699" style="fill:#fff"/></g></g><g clip-path="url(#clipPath88135)"><g clip-path="url(#clipPath88143)" style="opacity:.5"><g transform="translate(560.89 1394.2)"><path d="m0 0s9 57.736-36.414 70.806c-57.906 16.664-88.833-34.826-88.833-34.826l12.752-8.627s18.061 39.448 67.827 28.057c47.388-10.847 40.869-58.21 40.869-58.21z" style="fill:#231f20"/></g></g><g transform="translate(558.52 1379.4)"><path d="m0 0c0.159-0.908 0.891-1.495 1.684-1.567 0.792-0.073 1.624 0.296 2.355 0.819 1.233 0.883 2.259 2.233 2.864 3.766l-1.86 1.098c-0.85 0.502-1.814 1.013-2.8 0.624-1.113-0.437-1.815-1.864-2.126-3.195-0.121-0.515-0.203-1.052-0.117-1.545" style="fill:#fff"/></g><g transform="translate(664.25 1506.5)"><path d="m0 0s63.841 45.086 90.967 44.211c29.58-0.954 69.656-20.038 69.656-20.038s-35.305 31.489-73.95 32.92c-20.352 0.754-87.945-29.103-89.218-36.101-1.272-6.997 2.545-20.992 2.545-20.992" style="fill:#ad7623"/></g><g transform="translate(565.59 1508.5)"><path d="m0 0s-62.2 37.87-76.975 33.34c-14.774-4.53-39.059-17.868-39.059-17.868s26.87 30.877 43.048 30.942c18.905 0.076 74.168-18.367 75.35-25.308 1.182-6.94-2.364-21.106-2.364-21.106" style="fill:#ad7623"/></g><g transform="translate(606.36 1198.6)"><path d="m 0,0 17.653,-27.672 10.019,1.909 8.612,-22.024 c 0,0 16.837,-8.943 32.418,0.077 36.26,20.992 41.699,28.208 51.05,43.893 14.79,24.809 21.469,59.161 21.469,59.161 0,0 -47.71,-22.901 -76.336,-32.443 C 36.26,13.359 0,0 0,0" style="fill:#fff"/></g><g transform="translate(562.4 1213.1)"><path d="m0 0c-4.34 2.234-6.289 24.324 13.7 28.107 3.726 0.705 20.859-9.579 21.995-6.328 2.273 6.502 10.498 18.176 16.692 21.187 10.228 4.971 30.606 3.395 40.56-2.103 4.999-2.761 16.625-21.836 21.629-19.084-6.58-6.786-15.889-0.519-25.294 0.423-10.637 1.065-20.183-5.8-29.806-10.455-14.193-6.866-30.526-9.225-46.082-6.656-0.929 0.154-13.868-4.277-13.394-5.091" style="fill:#f1dbcb"/></g><g transform="translate(594.91 1196.6)"><path d="m0 0c-6.47-0.991-13.174-1.623-19.487 0.106s-12.215 6.268-13.892 12.594c-0.64 2.414-0.641 4.994-3e-3 7.409 1.756 6.641 8.273 11.315 15.073 12.293 6.799 0.979 13.729-1.215 19.699-4.614 1.447-0.824 3.037-1.755 4.669-1.422 1.631 0.333 2.729 1.812 3.726 3.146 7.741 10.353 18.831 18.16 31.188 21.957 6.51 2 13.656 2.88 20.071 0.591 6.414-2.289 14.54-10.791 14.338-17.599-0.257-8.645-11.318-12.192-19.006-16.155-17.639-9.093-36.76-15.302-56.376-18.306" style="fill:#ad4639"/></g><g transform="translate(658.84 1143.7)"><path d="m0 0c-3.526-0.436-10.28-0.223-14.772-0.873-11.829-1.714-7.848-23.456 1.618-30.754 12.277-9.465 32.231-9.478 44.012 0.598 11.78 10.076 18.782 28.338 24.939 42.565 5.84 13.495 33.039 69.437 33.585 83.389-16.596-29.228-16.381-45.554-54.577-80.001-9.713-9.034-19.882-13.079-34.805-14.924" style="fill:#d1a086"/></g><g transform="translate(656.22 1150.6)"><path d="m0 0c-3.551-0.113-10.258 0.716-14.79 0.477-11.936-0.628-9.954-22.643-1.193-30.773 11.363-10.545 32.024-8.918 44.674 0.042 12.65 8.961 20.497 23.049 27.925 36.655 7.046 12.906 34.841 71.596 36.657 85.441-19.191-27.594-16.075-49.332-57.252-80.153-10.496-8.111-20.992-11.212-36.021-11.689" style="fill:#ad4639"/></g><g transform="translate(737.74 1217.9)"><path d="m0 0 9.849 36.022c-40.65-21.512-94.133-41.175-139.44-49.082 0.702 3.518 0.211 7.263-1.376 10.48 38.877 10.174 83.459 21.494 119.82 38.602 19.462 9.156 25.703 12.018 32.443 32.442-4.348-28.241-6.493-44.025-21.299-68.464" style="fill:#ad4639"/></g><g clip-path="url(#clipPath88195)" style="opacity:.2"><g transform="translate(570 1208.7)"><path d="m0 0c0.889 2.142 3.348 3.281 5.666 3.333 2.319 0.052 4.556-0.765 6.748-1.523 8.513-2.945 18.25-5.066 26.242-0.91 6.037 3.14 9.881 9.285 15.281 13.426 6.488 4.976 15.285 6.801 23.218 4.817 3.508-0.878 6.819-2.447 10.349-3.231 9.562-2.125 19.335 1.689 28.388 5.431 16.5 6.818 33 13.636 49.501 20.455 4.901 2.025 9.967 4.163 13.558 8.065-6.664-25.978-11.86-50.938-32.422-73.233 0.954 4.71 0.623 9.674-0.946 14.217l-21.69-5.827 32.484 15.456c2.42 10.237 3.325 20.831 2.677 31.33-17.24-8.459-35.034-15.728-52.812-22.989-9.498-3.88-18.997-7.76-28.495-11.64-12.566-5.133-25.171-10.279-38.27-13.839 2.876-5.754 14.227-18.719 15.019-19.241 1.014-0.668 22.719 3.814 33.728 8.891l-17.955-8.211c-0.65-0.297-1.345-0.636-1.673-1.27-0.254-0.491-0.24-1.072-0.214-1.624 0.313-6.663 1.507-13.283 3.54-19.635-6.099-2.681-9.894-9.802-8.718-16.36-2.824 4.096 0.013 9.509 1.134 14.356 1.517 6.562-0.589 13.845-5.375 18.584-4.094-0.94-8.189-1.88-12.283-2.82-3.221 9.042-7.24 17.799-11.994 26.137-10.121 0.511-20.113 3.422-28.925 8.426-3.515 1.997-7.311 5.695-5.761 9.429" style="fill:#231f20"/></g></g><g transform="translate(739.67 1292.6)"><path d="m0 0c14.883-1.927 28.199-12.987 32.825-27.264-1.612 11.16-3.812 22.236-6.588 33.165-9.061 0.377-18.211-1.681-26.237-5.901" style="fill:#e4af92"/></g><g clip-path="url(#clipPath88215)" style="opacity:.2"><g transform="translate(631.31 1659.5)"><path d="m0 0c-14.109 0.899-29.273-6.225-40.446-16.592-11.173-10.366-18.773-23.642-24.247-37.076-17.693-43.419-14.17-91.203 9.267-125.67-18.408-1.388-30.123 14.461-36.156 29.94-12.126 31.11-13.536 67.267-3.996 102.44 4.002 14.751 10.062 29.625 20.343 42.187s25.285 22.584 40.845 24.424c15.559 1.839 30.972-5.897 34.39-19.646" style="fill:#231f20"/></g></g><g clip-path="url(#clipPath88231)" style="opacity:.2"><g transform="translate(510.96 1686.9)"><path d="m0 0c-16.572-7.585-31.521-19.529-42.473-33.935-10.381-13.653-17.069-29.213-21.771-44.804-20.458-67.835-0.283-142.1 57.349-173.57-31.529 33.584-45.082 82.49-36.481 131.64 3.766 21.523 11.946 43.61 27.358 61.513 15.413 17.904 38.919 30.928 61.052 29.986 4.415 6.514 9.811 12.521 15.926 17.732-3.362 10.383-13.735 17.02-25.316 18.461-11.582 1.441-24.156-1.766-35.644-7.024" style="fill:#231f20"/></g></g><g transform="translate(632.42 1665.8)"><path d="m0 0c-14.261 0.932-28.221-6.454-37.642-17.201-9.42-10.748-14.776-24.511-17.98-38.439-10.354-45.015 1.247-94.554 30.51-130.29-18.174-1.439-32.567 14.992-41.217 31.04-17.384 32.253-24.906 69.738-21.31 106.2 1.508 15.293 5.054 30.713 13.212 43.737 8.157 13.023 21.467 23.414 36.716 25.321s31.969-6.113 37.711-20.368" style="fill:#d1a841"/></g><g transform="translate(507.44 1694.2)"><path d="m0 0c-15.29-7.864-28.22-20.246-36.737-35.182-8.073-14.155-12.131-30.286-14.197-46.45-8.993-70.328 23.736-147.32 86.686-179.95-37.205 34.818-59.025 85.521-58.732 136.48 0.129 22.314 4.575 45.213 16.961 63.774s33.691 32.064 55.984 31.088c3.314 6.752 7.694 12.981 12.928 18.383-5.117 10.765-16.612 17.645-28.436 19.139-11.825 1.494-23.858-1.831-34.457-7.282" style="fill:#d1a841"/></g><g transform="translate(389.3 1483.1)"><path d="m0 0c-16.589 24.779-22.947 55.105-24.707 84.872-1.174 19.856-0.362 40.295 7.028 58.761 7.391 18.466 22.299 34.782 41.567 39.714 19.269 4.932 42.345-4.119 49.761-22.575 3.842 12.254 10.56 23.596 19.459 32.854-19.796 18.457-48.936 26.326-75.332 20.341-26.395-5.985-49.292-25.652-59.191-50.842-4.994-12.708-6.795-26.453-7.425-40.092-2.123-45.98 11.385-96.279 48.84-123.03" style="fill:#d1a841"/></g><g clip-path="url(#clipPath88259)" style="opacity:.39999"><g transform="translate(563.72 1527.9)"><path d="m0 0c-6.809 18.589-11.492 39.292-11.869 59.533-3.865 12.285-5.69 25.311-5.974 38.243-0.437-2.832-0.817-5.672-1.097-8.513-3.596-36.463 3.926-73.948 21.311-106.2 6.301-11.691 15.661-23.551 27.3-28.591-13.711 12.093-23.373 28.335-29.671 45.529" style="fill:#231f20"/></g></g><g transform="translate(594.78 1648.6)"><path d="m0 0c9.421 10.747 23.381 18.134 37.642 17.201-1.832 4.546-4.786 8.451-8.448 11.609-0.933 0.302-1.87 0.606-2.824 0.9-14.28 4.403-27.309 0.171-38.048-10.106-19.681-18.835-27.556-49.249-27.423-75.897 0.199-39.513 12.752-88.427 46.821-112.36 1.576-0.147 3.172-0.21 4.81-0.08-29.263 35.738-40.863 85.277-30.509 130.29 3.204 13.928 8.559 27.692 17.979 38.439" style="fill:#e3c666"/></g><g transform="translate(554.25 1664)"><path d="m0 0c-13.566 11.749-27.103 17.618-44.178 8.706-10.786-5.63-19.764-14.203-25.767-24.829-11.606-20.544-14.651-44.966-13.561-68.247 2.416-51.63 24.481-98.082 56.696-137.45 5.02-3.484 10.262-6.684 15.747-9.527-37.205 34.817-59.025 85.52-58.731 136.48 0.128 22.314 4.575 45.213 16.961 63.775 11.801 17.683 31.699 30.746 52.833 31.099" style="fill:#e3c666"/></g><g clip-path="url(#clipPath88283)" style="opacity:.39999"><g transform="translate(459.75 1630.6)"><path d="m0 0c-1.43-5.922-2.481-11.948-3.252-17.98-7.557-59.106 14.363-122.91 58.917-161.14-23.112 31.206-40.312 66.898-46.356 104.98-7.799 24.225-11.646 49.471-9.309 74.135" style="fill:#231f20"/></g></g><g transform="translate(407.07 1697.1)"><path d="m0 0c-26.395-5.985-49.292-25.652-59.192-50.842-4.993-12.708-6.795-26.453-7.424-40.092-0.098-2.106-0.126-4.228-0.156-6.349 1.34 10.829 3.879 21.399 7.942 31.373 9.048 22.213 26.18 44.071 49.875 51.587 0.904 0.286 1.816 0.51 2.725 0.761 0.598 0.233 1.155 0.511 1.772 0.723 0.396 0.136 0.736 0.109 1.046 0.022 24.814 5.806 50.889-1.589 68.92-19.975 2.879 4.445 6.154 8.633 9.823 12.451-19.796 18.458-48.935 26.326-75.331 20.341" style="fill:#d1a841"/></g><g transform="translate(364.54 1569.1)"><path d="m0 0c-2.689 15.995-2.891 32.604-1.483 47.516 1.724 18.268 6.502 38.711 18.355 52.876-16.362-12.248-27.837-30.578-33.151-50.272-6.35-23.531-6.239-48.839-1.046-73.104 7.364-25.181 20.88-47.877 42.084-63.023-16.589 24.779-22.948 55.106-24.708 84.873-0.022 0.377-0.03 0.757-0.051 1.134" style="fill:#e3c666"/></g><g clip-path="url(#clipPath88307)" style="opacity:.39999"><g transform="translate(470.47 1661)"><path d="m0 0c-16.821 17.541-43.273 25.78-66.798 19.576-0.019-7e-3 -0.029-0.022-0.048-0.029-28.133-9.673-36.054-43.895-37.192-70.291-0.033-0.75-0.051-1.514-0.077-2.271 1.171 6.398 2.832 12.686 5.259 18.748 7.39 18.466 22.297 34.782 41.566 39.714s42.344-4.119 49.761-22.574c1.869 5.96 4.43 11.698 7.579 17.092-0.016 0.016-0.034 0.019-0.05 0.035" style="fill:#231f20"/></g></g><g transform="translate(579.73 1335.4)"><path d="m0 0c0.014 0.606 2.669-0.77 7.029 14.49 4.361 15.261-8.586 21.039-8.586 21.039-5.589-2.559-11.068-5.594-16.47-8.831l0.88-17.313c3.903-5.641 10.243-8.638 17.147-9.385" style="fill:#f1f1f2"/></g><g transform="translate(629.28 1333.8)"><path d="m0 0c6.813 1.907 8.135 0.875 11.445 6.813l-6.812 26.978c-6.341 2.225-14.988-7.358-13.353-18.531 1.635-11.172 7.674-12.726 8.72-15.26" style="fill:#f1f1f2"/></g><g clip-path="url(#clipPath88331)" style="opacity:.2"><g transform="translate(840.94 1326.8)"><path d="m0 0-170.84-9.586c-13.261-3.996-27.119 6.496-31.186 23.88l-13.527 80.445c-4.864 20.861 3.117 42.69 18.137 48.151l218.93 33.63c18.196 2.345 30.513-15.884 27.436-39.872l-16.298-99.755c-2.485-19.482-17.132-35.733-32.657-36.893" style="fill:#9ac5d9"/></g></g><g clip-path="url(#clipPath88347)" style="opacity:.5"><g transform="translate(840.94 1326.8)"><path d="m0 0-170.84-9.586c-13.261-3.996-27.119 6.496-31.186 23.88l-13.527 80.445c-4.864 20.861 3.117 42.69 18.137 48.151l218.93 33.63c18.196 2.345 30.513-15.884 27.436-39.872l-16.298-99.755c-2.485-19.482-17.132-35.733-32.657-36.893z" style="fill:none;stroke-miterlimit:10;stroke-width:6.54;stroke:#5d99b3"/></g></g><g clip-path="url(#clipPath88363)" style="opacity:.2"><g transform="translate(542.79 1307.6)"><path d="m0 0-101.52-9.085c-11.678-0.877-25.358 11.065-30.786 27.089l-27.731 84.116c-6.46 19.079-1.359 36.375 11.699 38.074l139.7 8.068c14.76-1.48 27.144-20.171 27.531-41.036l3.926-79.755c0.311-17.264-9.951-29.333-22.823-27.471" style="fill:#9ac5d9"/></g></g><g clip-path="url(#clipPath88379)" style="opacity:.5"><g transform="translate(542.79 1307.6)"><path d="m0 0-101.52-9.085c-11.678-0.877-25.358 11.065-30.786 27.089l-27.731 84.116c-6.46 19.079-1.359 36.375 11.699 38.074l139.7 8.068c14.76-1.48 27.144-20.171 27.531-41.036l3.926-79.755c0.311-17.264-9.951-29.333-22.823-27.471z" style="fill:none;stroke-miterlimit:10;stroke-width:6.54;stroke:#5d99b3"/></g></g><g clip-path="url(#clipPath88395)" style="opacity:.3"><g transform="translate(830.24 1487)"><path d="m0 0-56.653-152.98 29.357 1.534 63.634 155.62zm-164.5-159.78 48.73 3.848 43.504 143.97-49.643-6.174zm-177.81-13.506 21.437 1.796 26.05 129.31-23.488-2.21zm-49.938-5.06 17.203 1.47 19.085 130.98-17.227-1.116z" style="fill:#fff"/></g></g><g transform="translate(555.66 1365.9)"><path d="m0 0c5.028 2.67 10.476 4.621 15.658 5.706 12.035 5.707 24.926 9.433 37.945 7.072 11.843-2.147 22.839-7.829 34.191-11.8l-9.4 56.382-0.158 0.8c-3.488 15.039 1.897 30.853 11.859 34.988l217.58 32.806 0.762 0.077c4.598 0.363 8.56-1.368 11.451-5.001 2.806-3.528 4.419-8.571 4.745-14.366 7.181 0.895 14.463 0.966 20.049 1.147-0.461 11.369-3.884 21.67-9.909 29.25-6.955 8.753-16.659 13.079-27.279 12.183-0.518-0.044-1.04-0.096-1.773-0.199l-219.28-34.31-1.414-0.367c-19.323-7.094-29.859-34.306-23.848-60.681l4.914-28.971c-7.583 2.442-17.3 4.615-27.467 4.317-9.04-0.255-16.774-2.716-22.832-5.566l-1.2 25.283c-0.53 26.619-16.698 49.989-35.961 51.875l-0.554 0.055-140.48-8.48-0.411-0.044c-7.905-1.051-14.203-6.293-17.743-14.732-3.877-9.237-3.969-21.299-0.464-33.432 5.265 0.506 10.527 1.025 15.792 1.528l-0.474 1.441c-2.48 7.351-2.756 14.587-0.728 19.352 1.352 3.176 3.587 5.016 6.65 5.462l138.63 7.642c9.838-1.422 18.338-15.018 18.64-29.98z" style="fill:#404041"/></g></g></g></g></svg>
