<?xml version="1.0" encoding="UTF-8"?>
<svg width="503.44mm" height="715.3mm" version="1.1" viewBox="0 0 503.44 715.3" xmlns="http://www.w3.org/2000/svg"><defs><clipPath id="clipPath55443"><path d="m0 2201.9h1637.5v-2201.9h-1637.5z"/></clipPath><clipPath id="clipPath55455"><path d="m1173.5 1538.9h338.75v-220.33h-338.75z"/></clipPath><clipPath id="clipPath55471"><path d="m1281.9 1538.4h149.1v-142h-149.1z"/></clipPath><clipPath id="clipPath55487"><path d="m1281.9 1538.4h114.6v-142h-114.6z"/></clipPath><clipPath id="clipPath55503"><path d="m1176.9 1329.5h339.54v-149.8h-339.54z"/></clipPath><clipPath id="clipPath55519"><path d="m1224 1492.2h248.73v-120.77h-248.73z"/></clipPath><clipPath id="clipPath55535"><path d="m1229.9 1504.1h256.4v-133.68h-256.4z"/></clipPath><clipPath id="clipPath55551"><path d="m1234.9 1306.9h268.56v-114.59h-268.56z"/></clipPath><clipPath id="clipPath55567"><path d="m1233 1347.9h287.74v-59.31h-287.74z"/></clipPath><clipPath id="clipPath55587"><path d="m511.4 772.86h176.06v-166.87h-176.06z"/></clipPath><clipPath id="clipPath55603"><path d="m553.3 754.53h99.434v-87.136h-99.434z"/></clipPath><clipPath id="clipPath55623"><path d="m973.53 763.45h306.96v-215.99h-306.96z"/></clipPath><clipPath id="clipPath55659"><path d="m1178.6 813.44h149.63v-161.4h-149.63z"/></clipPath><clipPath id="clipPath55695"><path d="m294.96 1894.5h1010.9v-355.48h-1010.9z"/></clipPath><clipPath id="clipPath55711"><path d="m313.6 1875.2h918.25v-336.11h-918.25z"/></clipPath><clipPath id="clipPath55727"><path d="m389.26 2134.6h1029.5v-468.42h-1029.5z"/></clipPath><clipPath id="clipPath55747"><path d="m520.89 1662.4h40.614v-137.63h-40.614z"/></clipPath><clipPath id="clipPath55763"><path d="m533.71 1673h38.746v-143.92h-38.746z"/></clipPath><clipPath id="clipPath55779"><path d="m547.02 1729.1h131.91v-197.09h-131.91z"/></clipPath><clipPath id="clipPath55795"><path d="m668.68 1732.8h24.047v-170.38h-24.047z"/></clipPath><clipPath id="clipPath55811"><path d="m683.77 1736.3h23.696v-170.15h-23.696z"/></clipPath><clipPath id="clipPath55827"><path d="m963.92 1723.5h28.692v-176.1h-28.692z"/></clipPath><clipPath id="clipPath55843"><path d="m987.01 1711.4h23.493v-166.61h-23.493z"/></clipPath><clipPath id="clipPath55859"><path d="m1006.4 1692.9h83.26v-170.72h-83.26z"/></clipPath><clipPath id="clipPath55875"><path d="m1073.3 1645.1h34.47v-127.13h-34.47z"/></clipPath><clipPath id="clipPath55891"><path d="m1094.4 1644.1h28.15v-128.97h-28.15z"/></clipPath><clipPath id="clipPath55907"><path d="m714.6 2113.6h330.56v-284.09h-330.56z"/></clipPath><clipPath id="clipPath55923"><path d="m1082.4 2002.9h209.04v-266.05h-209.04z"/></clipPath><clipPath id="clipPath55939"><path d="m316.9 1988.9h232.72v-267.73h-232.72z"/></clipPath><clipPath id="clipPath55955"><path d="m405.21 1756.3h746.04v-195.32h-746.04z"/></clipPath><clipPath id="clipPath55975"><path d="m843.01 807.81h75.237v-48.716h-75.237z"/></clipPath><clipPath id="clipPath55991"><path d="m850.49 805.86h79.916v-47.053h-79.916z"/></clipPath><clipPath id="clipPath56007"><path d="m399.49 215.83h899.43v-154.34h-899.43z"/></clipPath><clipPath id="clipPath56027"><path d="m640.94 159.93h76.039v-31.878h-76.039z"/></clipPath><clipPath id="clipPath56051"><path d="m1008.8 277.67h49.98v-13.333h-49.98z"/></clipPath><clipPath id="clipPath56067"><path d="m1258.6 1469.6h57.07v-54.43h-57.07z"/></clipPath><clipPath id="clipPath56103"><path d="m628.23 144.73h58.3v-26.317h-58.3z"/></clipPath><clipPath id="clipPath56119"><path d="m574.29 176.63h44.239v-61.213h-44.239z"/></clipPath><clipPath id="clipPath56139"><path d="m973.34 151.17h154.66v-44.152h-154.66z"/></clipPath><clipPath id="clipPath56155"><path d="m1085 141.85h37.08v-19.737h-37.08z"/></clipPath><clipPath id="clipPath56171"><path d="m1120.1 1051.3h58.21v-42.44h-58.21z"/></clipPath><clipPath id="clipPath56187"><path d="m554.01 1012.9h52.18v-46.324h-52.18z"/></clipPath><clipPath id="clipPath56203"><path d="m1320.1 1801.3h91.23v-180.65h-91.23z"/></clipPath><clipPath id="clipPath56219"><path d="m1100 734.58h88.66v-136.96h-88.66z"/></clipPath><clipPath id="clipPath56235"><path d="m1021.5 752.67h73.8v-133.89h-73.8z"/></clipPath><clipPath id="clipPath56255"><path d="m858.81 297.73h230.99v-121.5h-230.99z"/></clipPath><clipPath id="clipPath56271"><path d="m975.11 192.51h154.81v-58.586h-154.81z"/></clipPath><clipPath id="clipPath56287"><path d="m958.29 190.48h96.248v-51.346h-96.248z"/></clipPath><clipPath id="clipPath56303"><path d="m584.09 283.91h250.31v-168.98h-250.31z"/></clipPath><clipPath id="clipPath56319"><path d="m626.63 283.91h207.77v-117.95h-207.77z"/></clipPath><clipPath id="clipPath56335"><path d="m653.51 198.51h121.92v-70.992h-121.92z"/></clipPath><clipPath id="clipPath56355"><path d="m1386.5 1392.7h121.2v-24.2h-121.2z"/></clipPath><clipPath id="clipPath56371"><path d="m1386.5 1431.4h109.41v-56.74h-109.41z"/></clipPath><clipPath id="clipPath56387"><path d="m665.91 753.88h321.31v-78.563h-321.31z"/></clipPath><clipPath id="clipPath56407"><path d="m731.2 726.87h18.325v-13.744h-18.325z"/></clipPath><clipPath id="clipPath56427"><path d="m803.45 710.45h18.325v-14.507h-18.325z"/></clipPath><clipPath id="clipPath56443"><path d="m866.13 708.93h19.852v-12.98h-19.852z"/></clipPath><clipPath id="clipPath56467"><path d="m923.28 714.97h18.204v-14.667h-18.204z"/></clipPath><clipPath id="clipPath56487"><path d="m678.25 741.66h7.721v-8.865h-7.721z"/></clipPath><clipPath id="clipPath56507"><path d="m674.08 755.88h321.58v-63.211h-321.58z"/></clipPath><clipPath id="clipPath56527"><path d="m545.09 475.59h62.611v-214.16h-62.611z"/></clipPath><clipPath id="clipPath56543"><path d="m602.96 451.77h306.76v-202.03h-306.76z"/></clipPath><clipPath id="clipPath56559"><path d="m1034 396.11h76v-107.95h-76z"/></clipPath><clipPath id="clipPath56591"><path d="m668.49 654.74h47.516v-8.253h-47.516z"/></clipPath><clipPath id="clipPath56607"><path d="m939.26 648.52h72.97v-7.941h-72.97z"/></clipPath><clipPath id="clipPath56623"><path d="m716.82 591.62h255.53v-187.52h-255.53z"/></clipPath><clipPath id="clipPath56639"><path d="m719.23 442.39h246.21v-38.297h-246.21z"/></clipPath><clipPath id="clipPath56655"><path d="m696.4 631.14h18.415v-18.416h-18.415z"/></clipPath><clipPath id="clipPath56671"><path d="m986.22 634.25h18.76v-17.495h-18.76z"/></clipPath><clipPath id="clipPath56691"><path d="m492.71 661.06h200.57v-202.8h-200.57z"/></clipPath><clipPath id="clipPath56707"><path d="m555.41 657.84h124.12v-95.319h-124.12z"/></clipPath><clipPath id="clipPath56723"><path d="m566.09 583.95h109.53v-132.4h-109.53z"/></clipPath><clipPath id="clipPath56743"><path d="m929.91 463.35h87.159v-15.92h-87.159z"/></clipPath><clipPath id="clipPath56759"><path d="m947.32 456.31h326.32v-54.976h-326.32z"/></clipPath><clipPath id="clipPath56775"><path d="m682.31 525.18h621.63v-204.57h-621.63z"/></clipPath><clipPath id="clipPath56791"><path d="m1083.2 409.83h79.7v-25.442h-79.7z"/></clipPath><clipPath id="clipPath56811"><path d="m581.97 575.79h142.81v-130.42h-142.81z"/></clipPath><clipPath id="clipPath56827"><path d="m1170.4 738.37h113.82v-95.976h-113.82z"/></clipPath><clipPath id="clipPath56843"><path d="m396.25 1614.9h846.6v-469.84h-846.6z"/></clipPath><clipPath id="clipPath56859"><path d="m396.27 1453.6h846.58v-308.99h-846.58z"/></clipPath><clipPath id="clipPath56879"><path d="m397.24 1399.2h57.629v-160.7h-57.629z"/></clipPath><clipPath id="clipPath56895"><path d="m554.83 1613.3h287.22v-145.72h-287.22z"/></clipPath><clipPath id="clipPath56911"><path d="m887.44 1612.4h230.29v-138.43h-230.29z"/></clipPath><clipPath id="clipPath56931"><path d="m94.951 1577.8h244.99v-374.36h-244.99z"/></clipPath><clipPath id="clipPath56947"><path d="m269.92 1392.8h179.81v-156.86h-179.81z"/></clipPath><clipPath id="clipPath56963"><path d="m208.75 1575.6h230.23v-210.76h-230.23z"/></clipPath><clipPath id="clipPath56979"><path d="m226.3 1366.2h108.28v-18.12h-108.28z"/></clipPath><clipPath id="clipPath56995"><path d="m231.16 1478.4h80.18v-32.94h-80.18z"/></clipPath><clipPath id="clipPath57019"><path d="m535.7 1033.6h205.5v-121.39h-205.5z"/></clipPath><clipPath id="clipPath57035"><path d="m570.55 1324.8h197.12v-107.24h-197.12z"/></clipPath><clipPath id="clipPath57051"><path d="m851.1 1453h420.45v-694.83h-420.45z"/></clipPath><clipPath id="clipPath57067"><path d="m355.92 1418.4h692.32v-681.42h-692.32z"/></clipPath><clipPath id="clipPath57083"><path d="m959.74 1264.8h203.16v-210.95h-203.16z"/></clipPath><clipPath id="clipPath57107"><path d="m371.73 1165.7h83.163v-134.97h-83.163z"/></clipPath><clipPath id="clipPath57123"><path d="m1217.7 1167.7h42.95v-100.54h-42.95z"/></clipPath><clipPath id="clipPath57147"><path d="m985.62 1208.3h153.18v-163.08h-153.18z"/></clipPath><clipPath id="clipPath57163"><path d="m1046.6 1208.2c-78.645-16.798-58.793-145.07-58.793-145.07s58.029-20.616 83.991-17.561c25.96 3.054 64.9 35.123 66.428 37.413 1.527 2.291 0 64.138 0 66.429 0 2.055-10.445 61.298-69.427 61.292-6.744 0-14.13-0.775-22.199-2.499"/></clipPath><clipPath id="clipPath57179"><path d="m1052.3 1197.2h87.52v-87.51h-87.52z"/></clipPath><clipPath id="clipPath57203"><path d="m0 2201.9h1637.5v-2201.9h-1637.5z"/></clipPath><clipPath id="clipPath57227"><path d="m687.88 1198h119.35v-111.69h-119.35z"/></clipPath><clipPath id="clipPath57243"><path d="m624.9 1205.5h178.89v-163.32h-178.89z"/></clipPath><clipPath id="clipPath57259"><path d="m624.9 1142.4c0.06-2.29-0.098-64.199 1.739-66.405 1.836-2.206 47.983-32.113 78.268-33.733s97.262 22.192 97.262 22.192 19.74 129.32-72.203 141.78c-7.122 0.964-13.785 1.41-19.992 1.411-73.928 0.01-85.13-63.129-85.074-65.241"/></clipPath><clipPath id="clipPath57275"><path d="m714.4 1195h87.515v-87.52h-87.515z"/></clipPath><clipPath id="clipPath57299"><path d="m0 2201.9h1637.5v-2201.9h-1637.5z"/></clipPath><clipPath id="clipPath57399"><path d="m894.6 907.75h55.397v-8.831h-55.397z"/></clipPath><clipPath id="clipPath57415"><path d="m815.19 899.25h148.34v-17.135h-148.34z"/></clipPath><clipPath id="clipPath57431"><path d="m824.07 887.5h114.52v-58.222h-114.52z"/></clipPath><clipPath id="clipPath57447"><path d="m970.9 918.96h30.431v-34.537h-30.431z"/></clipPath><clipPath id="clipPath57463"><path d="m791.5 916.35h34.35v-41.386h-34.35z"/></clipPath><clipPath id="clipPath57479"><path d="m824.83 891.7h132.97v-16.065h-132.97z"/></clipPath><clipPath id="clipPath57495"><path d="m928.35 850.53h5.559v-5.549h-5.559z"/></clipPath><clipPath id="clipPath57511"><path d="m915.77 845.26h12.992v-8.078h-12.992z"/></clipPath><clipPath id="clipPath57527"><path d="m845.83 851.42h96.512v-33.565h-96.512z"/></clipPath><clipPath id="clipPath57543"><path d="m865.87 1132.9h80.56v-107.69h-80.56z"/></clipPath><clipPath id="clipPath57571"><path d="m848.05 1063.1h113.16v-64.093h-113.16z"/></clipPath><clipPath id="clipPath57587"><path d="m870.38 1075.3h77.052v-31.16h-77.052z"/></clipPath><clipPath id="clipPath57603"><path d="m848.69 1038.5h111.48v-51.402h-111.48z"/></clipPath></defs><g transform="translate(328.07 371.82)"><g transform="matrix(.35278 0 0 -.35278 -361.57 381.24)"><g clip-path="url(#clipPath55443)"><g transform="translate(1520.1 1341.3)"><path d="m0 0c-0.884-4.834-1.961-9.585-3.094-13.895-0.221-0.801-0.414-1.602-0.635-2.375-0.166-0.636-0.36-1.271-0.525-1.879-0.277-1.022-0.553-1.989-0.857-2.928-0.469-1.602-0.911-3.093-1.353-4.447-0.166-0.58-0.359-1.16-0.525-1.685-1.354-4.116-2.292-6.658-2.292-6.658 9.171-39.695-22.901-51.905-22.901-51.905 25.967-19.861-33.59-70.247-45.8-73.313-12.237-3.038-22.927-9.171-71.794 24.447-48.866 33.591-135.91 51.905-135.91 51.905s-0.884 0.691-2.431 1.989c-0.442 0.359-0.912 0.746-1.464 1.243-0.525 0.414-1.105 0.912-1.741 1.464-0.469 0.414-0.994 0.884-1.547 1.354-0.276 0.248-0.58 0.497-0.856 0.746-0.58 0.524-1.16 1.049-1.795 1.602-0.967 0.884-2.017 1.85-3.122 2.845-4.723 4.364-10.276 9.806-15.883 15.994-28.204 30.855-58.286 80.026 5.939 104.09 97.732 36.657 146.6 146.63 146.6 146.63 6.106 7.044 11.078 5.524 23.674 3.812 6.74-0.912 11.685-4.475 13.646-8.37 0.111-0.249 0.249-0.498 0.359-0.746 0.083-0.221 0.166-0.442 0.249-0.69 0.083-0.277 0.166-0.581 0.221-0.857 0.055-0.248 0.11-0.497 0.11-0.746-0.027-0.027 0-0.055 0-0.083 0.056-0.193 0.056-0.414 0.056-0.607 0-0.109-0.034-0.209-0.038-0.316-0.012-0.262-0.05-0.524-0.095-0.787-0.028-0.164-0.018-0.336-0.061-0.5l-0.027-0.027c-0.056-0.221 1.612-0.47 1.529-0.691-0.166-0.497 0.976-0.967 0.976-1.436v0.451h-3.527c-0.166 0-0.332-0.681-0.525-0.902-0.387-0.442-0.857-0.949-1.409-1.336-7.458-5.138-21.381-41.108-21.381-41.108s30.525 48.836 53.452 45.797c0.442-0.055 0.884-0.18 1.353-0.29 12.403-2.984 28.066-24.29 41.215-46.029 1.519-2.514 3.011-5.031 4.448-7.517 9.143-15.801 16.601-30.693 20.165-37.819 0.276-0.581 0.552-1.162 0.801-1.742 0.221-0.442 0.414-0.912 0.58-1.353 0.166-0.415 0.332-0.83 0.47-1.244 0.635-1.713 1.132-3.453 1.574-5.221-10.11-12.375-26.491-30.524-39.474-35.828-20.248-8.287-45.11-14.751-45.11-14.751s55.027 3.37 92.733 17.127c0.304-0.525 0.608-1.05 0.995-1.547 0.248-0.415 0.524-0.829 0.856-1.243 1.989-2.735 4.558-5.304 7.956-7.652 9.613-6.657 9.198-24.419 6.215-40.966" style="fill:#cd010e"/></g><g clip-path="url(#clipPath55455)" style="opacity:.2"><g transform="translate(1506 1391.3)"><path d="m0 0c-0.221-0.11 6.464-8.176 6.243-8.287-41.767-21.85-92.788-24.557-139.86-27.071-38.425-2.017-96.821-4.696-133.15 9.889-24.53 9.862-42.043-10.083-43.066-30.745-4.06-2.017-7.486-5.165-10.193-8.95 0-0.028-0.027-0.028-0.055-0.055-1.63-2.238-2.983-4.807-4.116-7.459-0.469 0.912-0.939 1.796-1.354 2.68-0.441 0.884-0.855 1.768-1.27 2.679-0.857 1.851-1.63 3.73-2.293 5.608-6.657 18.563-4.696 37.237 16.547 51.297 3.508-11.436 14.64-19.668 27.237-11.408 67.098 44.087 126.49 100.22 166.43 169.47 0.415-0.166 0.774-0.387 1.161-0.553 0.11-0.055 0.248-0.11 0.359-0.193 0.525-0.249 0.994-0.525 1.464-0.801l0.027-0.028c0.415-0.248 0.802-0.497 1.161-0.773 0.773-0.525 1.464-1.133 2.071-1.768 0.277-0.276 0.525-0.58 0.774-0.856 0.331-0.387 0.635-0.802 0.884-1.216 0.138-0.248 0.359-0.497 0.497-0.746 0.111-0.248 0.249-0.497 0.359-0.746 0.083-0.22 0.166-0.441 0.249-0.69 0.083-0.276 1.336-0.58 1.391-0.857 0.055-0.248 1.28-0.497 1.28-0.745v-0.083c0-0.193-1.115-0.415-1.115-0.608 0-0.111-0.612-0.221-0.612-0.304s-0.32-0.165-0.32-0.248c-0.028-0.194-0.202-0.36-0.229-0.553 0.027-0.083-0.074-0.166-0.101-0.248 0-0.083-0.037-0.166-0.064-0.249l-0.046-0.028c0-0.055-0.037-0.11-0.065-0.165-0.11-0.166 1.663-0.36 1.58-0.525-0.165-0.498 0.972-0.967 0.972-1.437v-0.027c0-0.221-2.081-0.442-2.302-0.663-0.387-0.442-1.732-0.829-2.284-1.216-7.458-5.138-21.819-41.049-21.819-41.049s-0.218 0.028-0.163 0.111c0.028 0.028-0.096 0.055-0.096 0.083 0.028 0.027-6e-3 0.055 0.022 0.11 0 0.028-3e-3 0.055 0.024 0.083 1.713 2.68 12.167 18.757 24.929 31.049 0.718 0.663 1.401 1.326 2.119 1.961 0.691 0.636 1.406 1.271 2.096 1.906 0.027-0.027 0.025 0 0.025 0 0.719 0.608 1.436 1.216 2.155 1.796 0.386 0.276 0.745 0.58 1.131 0.856 1.437 1.133 2.901 2.155 4.392 3.094 5.553 3.481 11.16 5.47 16.381 4.779 0.028 0 0.083 0 0.111-0.028 0.165-0.027 0.358-0.055 0.552-0.11 0.166-0.028 0.359-0.055 0.552-0.111 0.111-0.027 0.221-0.055 0.359-0.11 0.304-0.055 0.608-0.138 0.912-0.249 0.083-0.027 0.166-0.055 0.249-0.11 12.182-4.144 27.182-24.668 39.833-45.579l-0.147-0.276c1.464-2.404 3.969-4.834 3.969-7.21v-0.028c7-15.801 16.915-30.69 20.478-37.817 0.276-0.58 0.709-1.16 0.957-1.74 0.222-0.442 0.493-0.912 0.659-1.353 0.165-0.415 0.371-0.829 0.508-1.244 0.636-1.712 1.153-3.453 1.595-5.22-10.111-12.376-26.482-30.525-39.465-35.828-20.248-8.288-45.105-14.752-45.105-14.752s55.029 3.371 92.736 17.127c-0.94 1.63-1.712 3.315-2.347 5.055 0.663-1.712 1.437-3.397 2.404-5.027 0.276-0.525 0.608-0.387 0.939-0.912 0.277-0.414 0.553-0.58 0.857-0.58" style="fill:#fff"/></g></g><g clip-path="url(#clipPath55471)" style="opacity:.2"><g transform="translate(1431 1525.3)"><path d="m0 0c-1.922 1.003-3.807 1.777-5.598 2.016-22.906 3.054-53.448-45.813-53.448-45.813s13.935 35.886 21.379 41.04c6.017 4.165 2.966 11.998-5.042 15.784-22.973-52.018-59.479-110.68-106.39-142 58.845 25.434 111.11 73.781 149.1 128.98"/></g></g><g clip-path="url(#clipPath55487)" style="opacity:.2"><g transform="translate(1371.9 1481.5)"><path d="m 0,0 c 0,0 13.935,35.886 21.379,41.04 6.017,4.165 2.966,11.998 -5.042,15.784 C -6.636,4.806 -43.142,-53.851 -90.057,-85.179 -31.212,-59.745 0,0 0,0"/></g></g><g clip-path="url(#clipPath55503)" style="opacity:.2"><g transform="translate(1516.4 1325.1)"><path d="m0 0c-102.64-54.601-222.78-16.95-329.56 0.778-3.834 0.637-7.127 1.956-9.982 3.699 12.845-35.769 57.607-70.946 57.607-70.946s87.044-18.325 135.91-51.921c48.866-33.596 59.556-27.487 71.773-24.433s71.773 53.448 45.813 73.3c0 0 32.068 12.217 22.906 51.921 0 0 2.758 7.423 5.531 17.602"/></g></g><g clip-path="url(#clipPath55519)" style="opacity:.2"><g transform="translate(1224 1371.5)"><path d="m0 0c10.508 3.184 123.51 21.508 193.76 81.065l42.758 39.705 12.217-18.325s-88.209-101.05-248.74-102.44" style="fill:#fff"/></g></g><g clip-path="url(#clipPath55535)" style="opacity:.2"><g transform="translate(1229.9 1373.1)"><path d="m0 0s155.35 45.792 203.52 104.93c21.991 27.001 18.901 26.013 18.901 26.013s31.08-51.536 32.608-56.118c1.527-4.581 12.11-9.729-62.474-42.186-75.054-32.663-116.2-40.277-192.55-32.641" style="fill:#fff"/></g></g><g clip-path="url(#clipPath55551)" style="opacity:.2"><g transform="translate(1235.2 1296.7)"><path d="m0 0s4.589-24.368 6.116-27.422 96.971-20.616 131.33-42.758c34.36-22.143 45.049-42.759 68.72-30.542 23.669 12.217 48.103 37.413 45.049 48.867l-3.055 11.453-50.394 12.98s45.05-6.872 55.739 3.818c10.69 10.689 18.073 34.969 13.196 31.213-23.798-18.325-60.21-23.798-114.71-26.178-57.007-2.49-152.31 28.796-152.31 28.796s1.843-7.173 0.316-10.227"/></g></g><g clip-path="url(#clipPath55567)" style="opacity:.2"><g transform="translate(1232.9 1347.9)"><path d="m0 0s152.71-51.158 270.3-6.872c35.296 13.293 6.108-25.961 6.108-25.961s-104.61-59.556-271.06 0z" style="fill:#fff"/></g></g><g transform="translate(511.4 653.85)"><path d="m0 0s19.657 42.166 79.316 81.553c59.66 39.387 80.511 38.228 83.987 37.07 3.475-1.158 30.699-104.84-6.951-151.76-37.649-46.917-141.33 33.594-145.96 30.119" style="fill:#f7e8c1"/></g><g clip-path="url(#clipPath55587)" style="opacity:.10001"><g transform="translate(674.7 772.48)"><path d="m0 0c-1.941 0.647-9.313 1.287-25.83-5.131-1.863-16.976 6.982-38.418 12.102-51.265 0.17-0.426-29.058-41.581-38.228-64.449-0.378-0.94-1.505-1.398-2.308-0.609-27.905 27.363-84.748 28.2-107.88 4.913-0.064-0.064-0.122-0.109-0.181-0.168-0.662-1.245-0.975-1.914-0.975-1.914l10.39-3.013c4.633 3.475 108.31-77.036 145.96-30.119 37.65 46.916 10.427 150.6 6.951 151.76"/></g></g><g clip-path="url(#clipPath55603)" style="opacity:.39999"><g transform="translate(644.15 754.53)"><path d="m0 0c-0.294-2.427-3.546-13.14-4.2-15.551-5.488-20.23-22.529-39.345-32.402-47.984-11.049-9.668-31.076 0-46.959-5.525-15.884-5.524-2.073-6.215 6.215-5.524 8.287 0.69 29.005-8.287 41.435-11.05 12.431-2.762 15.539-4.488 26.588 21.063 11.05 25.552 19.631 27.667 17.61 32.113-3.453 7.596-8.287 32.458-8.287 32.458" style="fill:#fff"/></g></g><g transform="translate(973.43 764.27)"><path d="m0 0s49.002 10.308 66.428-19.471c17.426-29.778 72.156-58.411 72.156-58.411s21.156 4.581 36.645 25.197c15.49 20.616 58.088 45.813 58.088 45.813s-3.816 3.436-7.689-42.377 13.061-60.702 34.36-46.958c21.298 13.744 3.189-18.325 20.615 9.162 17.426 27.488-10.498 54.976-10.498 54.976s53.421-49.631 41.804-83.99c-11.618-34.36-40.872-34.188-67.192-51.158-29.015-18.707-74.295-40.849-91.244-46.958-34.226-12.335-78.264 22.525-78.264 22.525l-56.815 40.468z" style="fill:#f7e8c1"/></g><g clip-path="url(#clipPath55623)" style="opacity:.10001"><g transform="translate(1209.3 602.27)"><path d="m0 0c-77.156-42.17-88.774-22.681-99.334-13.744-13.307 11.26-24.639 35.887-12.75 67.152 4.481 11.783 14.172 20.651 19.337 32.108-2.803-1.004 0.92-5.246 0.92-5.246s-4.06 1.994-9.688 5.285c-48.273-42.493-14.524-104.64-15.624-104.61-16.9 0.447-27.352 18.033-34.824 32.295-13.349 25.482-25.1 58.923-36.816 85.198-10.409 23.346-24.214 49.374-47.003 62.738l18.294-150.36 56.815-40.468s44.038-34.859 78.264-22.525c16.949 6.108 62.229 28.251 91.244 46.959 23.199 14.957 48.672 16.611 62.343 40.32-6.833-2.286-49.726-23.38-71.178-35.105"/></g></g><g transform="translate(1300.6 713.88)"><path d="m0 0c0-34.157-26.511-61.847-59.214-61.847s-59.214 27.69-59.214 61.847 26.511 61.847 59.214 61.847 59.214-27.69 59.214-61.847" style="fill:#fec2b1"/></g><g transform="translate(1222 770.26)"><path d="m0 0c2.137-19.105-7.527-35.868-21.585-37.44-14.059-1.573-2.939-15.088-19.101 34.871-5.917 18.291-2.697 32.742 11.361 34.314 14.059 1.573 27.188-12.64 29.325-31.745" style="fill:#fec2b1"/></g><g transform="translate(1280.1 782.96)"><path d="m0 0c-4.015-16.925-16.379-27.886-27.886-25.756-35.072 6.495-11.635 16.46-7.62 33.385 4.015 16.926 10.773 30.608 22.159 27.907s17.362-18.611 13.347-35.536" style="fill:#fec2b1"/></g><g transform="translate(1316 748.26)"><path d="m0 0c-11.427-13.115-28.531-18.242-36.666-9.83-26.841 27.757-4.29 23.041 7.137 36.156 11.427 13.116 25.419 19.027 34.243 11.34 8.823-7.687 6.713-24.55-4.714-37.666" style="fill:#fec2b1"/></g><g transform="translate(1325.7 700)"><path d="m0 0c-43.416-22.007-33.638-4.294-37.345 6.805-11.797 35.326 4.714 18.435 20.653 25.4 15.94 6.965 32.385 10.545 37.07-0.179 4.685-10.722-4.862-24.162-20.378-32.026" style="fill:#fec2b1"/></g><g clip-path="url(#clipPath55659)" style="opacity:.2"><g transform="translate(1244.7 669.35)"><path d="m0 0c-8.349-9.896-34.069-6.445-27.635 22.709 1.775 8.042 1.023 13.789 0.241 22.065-0.08 0.851-2.651 6.773-2.762 7.596-6.817 7.09-2.935 12.776-1.208 24.171 2.935 11.222 14.374 18.421 26.242 14.024 4.061-0.9 7.929-2.952 11.108-6.425 0.038-0.042 0.069-0.087 0.106-0.129 4.766-3.963 8.698-9.062 10.825-14.713 1.259-3.34 1.8-7.033 1.618-10.684 1.733-16.84-3.451-48.58-18.535-58.614m22.39 100.25c-1.807-0.177-3.718 0.025-5.691 0.692-1.989 0.672-3.85 1.926-5.404 3.528-4.679 1.243-9.58 1.907-14.629 1.907-8.071 0-13.366-0.77-20.376-3.823-1.862-1.878-4.457-8.183-7.367-8.862-0.131-0.031-5.188-3.006-6.1 1.266-17.269-10.805-25.372-27.873-25.372-50.429 0-34.157 26.511-61.847 59.215-61.847 32.703 0 59.214 27.69 59.214 61.847 0 24.529-13.672 45.722-33.49 55.721" style="fill:#a1421d"/></g><g transform="translate(1211.9 745.07)"><path d="m0 0c1.588 7.876 5.342 12.608 10.125 14.926 0.364 3.288 0.377 6.735-0.018 10.265-0.174 1.56-0.447 3.073-0.763 4.562-1.797-3.808-2.748-10.239-7.388-11.323-7.068-1.652-13.56 9.549-18.796 14.672-0.886 0.867-5.259 16.865-14.084 16.395-3.44-6.255-3.219-15.856 0.346-26.875 16.162-49.959 5.042-36.444 19.1-34.871 3.774 0.422 7.215 1.967 10.212 4.329-0.135 2.609 0.229 5.266 1.266 7.92" style="fill:#a1421d"/></g><g transform="translate(1260.4 766.96)"><path d="m0 0c-6.625 2.239-10.851 14.189-7.713 21.053 3.891 8.511 3.647 16.779 1.399 25.426-4.208-5.156-7.268-13.498-9.485-22.846-4.015-16.925-27.452-26.891 7.619-33.385 10.293-1.906 21.254 6.681 26.329 20.625-3.366-6.183-10.867-13.335-18.149-10.873" style="fill:#a1421d"/></g><g transform="translate(1294 741.17)"><path d="m0 0c-5.934 3.948-0.18 21.121 4.471 27.068 2.884 3.687 4.506 6.524 5.071 9.776 0.417 2.407 0.565 6.345 0.745 9.912-5.939-2.205-12.177-6.898-17.795-13.347-11.427-13.116-33.978-8.399-7.137-36.155 8.065-8.34 24.936-3.363 36.36 9.501-5.141-7.215-17.403-9.623-21.715-6.755" style="fill:#a1421d"/></g><g transform="translate(1305 715.39)"><path d="m0 0c8.847 4.644 19.433 11.691 23.132 22.926-5.9-0.949-12.57-3.23-19.165-6.112-15.94-6.965-32.451 9.926-20.654-25.4 2.806-8.401-2.094-20.576 14.172-16.465-2.703 6.235-5.212 20.996 2.515 25.051" style="fill:#a1421d"/></g></g><g transform="translate(1414.5 1666.2)"><path d="m0 0c-5.039-19.699-15.668-40.315-37.016-57.449-180.78-145.32-280.47-18.783-280.47-18.783l-66.062 59.006s-429.36-32.527-512.74-66.703c-61.389-25.105-101.98-13.469-143.76 8.979-150.54 80.906-44.072 242.99-28.771 275.06 6.414 13.469 22.54 37.109 43.339 60.656 0.091 0 0.091 0.092 0.183 0.184 28.587 32.435 66.063 64.779 99.231 70.552 75.316 13.102 140.1 17.958 140.1 10.262 75.775 103.17 196.45 131.21 246.93 126.08 109.31-11.178 172.62-114.99 172.62-114.99s45.905 25.655 134.32-13.744c116.73-51.951 124.98-178.67 141.01-176.38 31.428 4.581 92.725-82.463 92.725-93.916 0-7.147 6.689-36.65-1.649-68.811" style="fill:#e6e6e6"/></g><g clip-path="url(#clipPath55695)" style="opacity:.10001"><g transform="translate(1226.8 1578.8)"><path d="m0 0c-65.863 46.79-6.042 89.408 18.588 136.56-46.001-19.661-90.692-26.204-136.58 6.144-26.851 18.928-56.836 47.346-72.235 77.01-8.447 16.272-9.623 31.689-9.34 47.717-50.513-69.023-129.07-94.547-219.22-94.014-52.698 0.311-104.47 12.178-148.36 42.186-16.694 11.413-33.102 24.505-43.859 41.856-11.078 17.869-14.707 38.451-20.548 58.323-9.398-27.909-10.889-60.78-20.2-87.598-8.303-23.917-19.668-45.752-36.533-64.748-33.794-38.064-86.316-70.661-138.53-71.407-48.53-0.693-91.009 32.305-96.344 81.935-0.61 5.676-0.675 11.323-0.478 16.953-16.735-59.767-14.486-132.27 71.35-178.4 41.781-22.448 82.372-34.084 143.76-8.979 83.379 34.176 512.74 66.704 512.74 66.704l66.061-59.007s73.557-93.13 208.77-27.517c-27.273-4.648-55.229-0.633-79.046 16.287"/></g></g><g clip-path="url(#clipPath55711)" style="opacity:.2"><g transform="translate(1143.5 1580.9)"><path d="m0 0c-5.185 5.663-6.145 50.02 0.779 52.56 35.009 12.847 50.976 31.357 77.108 62.185-60.511-30.056-94.628-56.345-173.27-8.457-1.966 1.198-54.506 53.339-35.237 111.62-36.791-48.6-39.515-75.801-113.88-81.641-15.467-0.659-99.012-7.624-116.02 1.947-51.697 5.883-94.628 18.813-125 47.782-34.445 32.857-50.355 67.507-61.105 108.34-11.479-43.925 6.316-92.982 36.144-128.27 4.13-4.886 3.604-11.634-1.963-15.229-30.941-19.978-72.795-31.226-102.7-52.333-42.932-30.298-55.957-45.804-111.16-66.893-41.549-15.872-92.099 30.615-103.58 32.874-0.426 0.084 41.557-47.139 98.347-70.528 30.254-9.676 63.134-10.237 106.32 7.423 83.379 34.176 512.74 66.704 512.74 66.704l66.062-59.007s46.98-59.345 134.78-49.816c-49.645 7.747-53.451 2.607-88.36 40.741"/></g></g><g clip-path="url(#clipPath55727)" style="opacity:.2"><g transform="translate(1414.5 1666.2)"><path d="m0 0c-2.382 8.613-13.855 85.184-98.773 121.13-8.429 23.273-48.58 75.905-109.2 116.32-39.84 26.56-124.08 45.128-163.76 22.68-23.863 57.418-38.098 86.173-158.53 99.174-149.99 16.192-248.48-40.442-272.12-78.191-17.53 21.282-40.223 26.296-82.829 24.006-67.803-3.666-100.6-6.14-140.1-44.164 28.587 32.435 66.063 64.779 99.231 70.552 75.316 13.102 140.1 17.958 140.1 10.262 75.775 103.17 196.45 131.21 246.93 126.08 109.31-11.178 172.62-114.99 172.62-114.99s45.905 25.655 134.32-13.744c116.73-51.951 124.98-178.67 141.01-176.38 31.428 4.581 92.725-82.463 92.725-93.916 0-7.147 6.689-36.65-1.649-68.811" style="fill:#fff"/></g></g><g transform="translate(1134 1643.1)"><path d="m0 0c-2.554 0.22-5.29 0.747-8.072 1.357-4.503-0.581-9.246-0.431-14.06 0.131-11.043-0.438-21.838 0.978-32.388 5.565-0.221 0.096-0.327 0.25-0.515 0.363-11.252 3.399-21.798 8.821-30.767 16.475-0.673 0.446-1.333 0.774-2.01 1.236-10.924 7.47-21.206 16.462-29.342 26.915-9.014 8.385-17.093 17.465-22.897 26.844-4.336 3.06-7.49 5.144-8.771 5.555-93.555-23.07-190.6-31.4-282.28 6.206-0.689 0.282-1.351 0.614-2.031 0.912-127.16-13.33-211.81-90.791-214.64-104.98-3.054-15.27 39.704-119.11 39.704-119.11s127.51 34.36 214.56 54.975c87.044 20.616 384.83-64.138 389.41-52.684 3.767 9.417 5.981 93.13 4.104 130.25" style="fill:#ccc"/></g><g clip-path="url(#clipPath55747)" style="opacity:.10001"><g transform="translate(524.68 1662.4)"><path d="m0 0c-1.271-1.013-2.582-2.033-3.795-3.031 12.016-21.714 16.935-55.255 20.024-68.215 5.462-22.923 10.312-45.117 14.033-66.384 2.102 0.616 4.306 1.26 6.558 1.918-9.782 41.166-26.532 84.72-36.82 135.71"/></g></g><g clip-path="url(#clipPath55763)" style="opacity:.10001"><g transform="translate(538.94 1673)"><path d="m0 0c-1.737-1.237-3.57-2.477-5.228-3.706 9.693-52.909 26.547-97.835 36.15-140.22 0.833 0.243 1.748 0.508 2.596 0.754-6.639 43.602-22.381 89.827-33.518 143.17"/></g></g><g clip-path="url(#clipPath55779)" style="opacity:.10001"><g transform="translate(579.83 1532)"><path d="m0 0c29.364 8.526 65.782 18.959 99.086 28.112 0.677 51.178-15.42 104.76-20.209 168.98-44.491-11.575-82.702-31.013-111.68-50.436 10.669-54.831 26.313-102.13 32.807-146.66"/></g></g><g clip-path="url(#clipPath55795)" style="opacity:.10001"><g transform="translate(685.28 1659.6)"><path d="m0 0c-2.497 20.027-6.26 40.379-9.2 62.068-0.459 3.391-1.079 7.157-1.562 11.078-1.941-0.413-3.909-0.773-5.836-1.212 3.858-64.446 19.465-117.93 18.7-169.16 1.826 0.498 3.546 0.956 5.346 1.443-0.476 30.22-3.241 62.036-7.448 95.781"/></g></g><g clip-path="url(#clipPath55811)" style="opacity:.10001"><g transform="translate(702.39 1650)"><path d="m0 0c-1.81 26.088-8.418 55.474-8.598 86.315-3.349-0.498-6.714-0.964-10.015-1.575 1.022-12.645 4.928-26.063 6.194-34.379 3.412-22.423 5.731-44.294 7.685-65.205 2.238-23.933 3.399-46.901 3.505-68.986 0.712 0.191 1.475 0.401 2.181 0.589 1.296 0.346 2.745 0.609 4.132 0.904-1.451 25.853-3.068 53.272-5.084 82.337"/></g></g><g clip-path="url(#clipPath55827)" style="opacity:.2"><g transform="translate(986.23 1722.1)"><path d="m0 0c4.403-58.101-9.917-115.41-22.308-172.09 4.7-0.886 9.394-1.783 14.069-2.69 13.378 57.379 12.827 117 14.623 176.1-2.125-0.463-4.257-0.874-6.384-1.319" style="fill:#fff"/></g></g><g clip-path="url(#clipPath55843)" style="opacity:.3"><g transform="translate(1001.4 1711.4)"><path d="m0 0c-1.484-55.711-1.876-111.73-14.436-165.76 1.429-0.282 2.832-0.568 4.256-0.85 8.354 51.852 12.037 104.36 19.24 156.4-3.246 3.319-6.257 6.738-9.06 10.211" style="fill:#fff"/></g></g><g clip-path="url(#clipPath55859)" style="opacity:.5"><g transform="translate(1079.5 1650.1)"><path d="m0 0c-0.073 0.032-0.101 0.087-0.17 0.12-11.378 3.415-22.013 8.961-31.075 16.686-0.686 0.453-1.357 0.798-2.046 1.268-10.125 6.923-19.629 15.203-27.456 24.689-7.547-54.227-3.358-95.702-12.359-151.85 34.812-6.996 31.262-13.326 58.066-18.865 12.734 40.489 21.081 82.333 25.197 124.52-3.41 0.864-6.797 1.971-10.157 3.432" style="fill:#fff"/></g></g><g clip-path="url(#clipPath55875)" style="opacity:.3"><g transform="translate(1098.7 1645.1)"><path d="m0 0c-4.224-42.295-12.707-84.128-25.408-124.7 4.219-0.858 8.276-1.673 12.116-2.428 13.262 40.756 25.323 85.144 21.704 126.56-2.822 0.033-5.623 0.242-8.412 0.569" style="fill:#fff"/></g></g><g clip-path="url(#clipPath55891)" style="opacity:.2"><g transform="translate(1116.4 1644.1)"><path d="m0 0c3.328-42.028-8.677-86.715-21.977-127.88 1.91-0.36 3.965-0.76 5.742-1.079 12.099 42.1 25.426 86.005 21.81 128.97-1.833-0.088-3.691-0.098-5.575-8e-3" style="fill:#fff"/></g></g><g clip-path="url(#clipPath55907)" style="opacity:.39999"><g transform="translate(722.11 2062)"><path d="m0 0c36.255 42.342 191.62 92.153 279.88-2.273 43.771-46.826 51.429-85.691 35.58-147.8-25.317-99.216-84.1-84.726-109.69-76.544-7.056 2.256-13.961 5.733-18.736 11.397-4.934 5.855-7.149 13.465-9.238 20.832-5.461 19.256-10.959 38.747-11.607 58.752-1.017 31.391 9.665 64.649-3.449 93.188-9.501 20.677-30.195 34.479-51.993 41.011-21.798 6.533-44.913 6.771-67.668 6.957-14.821 0.121-42.904 1.461-50.582-11.217" style="fill:#fff"/></g></g><g clip-path="url(#clipPath55923)" style="opacity:.39999"><g transform="translate(1082.4 1997.9)"><path d="m0 0c27.607 8.535 57.997 5.574 84.927-4.904 26.93-10.477 50.631-28.092 71.194-48.395 11.634-11.487 22.488-24.065 29.717-38.731 9.447-19.164 22.842-40.984 23.189-62.347 0.49-30.15-15.088-62.273-35.021-84.899-19.933-22.625-58.518-30.497-80.407-9.758-15.003 14.216-18.253 37.271-14.834 57.654 3.42 20.384 12.419 39.345 18.598 59.068 6.178 19.723 9.409 41.654 1.355 60.689-4.517 10.677-12.292 19.671-20.812 27.533-19.669 18.149-45.178 31.467-71.938 31.047-0.597 2.128-1.195 4.255-1.792 6.382" style="fill:#fff"/></g></g><g clip-path="url(#clipPath55939)" style="opacity:.39999"><g transform="translate(455.51 1971.9)"><path d="m0 0c-18.901-13.773-37.228-28.333-54.917-43.632-29.072-25.143-45.664-66.314-61.621-101.28-9.243-20.257-25.556-29.908-21.41-51.786s18.436-42.475 39.162-50.616c26.141-10.267 59.183 3.175 70.733 28.774 6.604 14.64 6.54 31.263 7.349 47.303 2.832 56.207 21.502 116.79 68.969 147.02 10.818 6.891 22.702 11.909 34.554 16.812 5.503 2.277 12.057 6.234 11.212 12.129-0.704 4.912-6.214 7.395-11.012 8.662-32.079 8.472-67.858 1.596-94.511-18.164" style="fill:#fff"/></g></g><g clip-path="url(#clipPath55955)" style="opacity:.39999"><g transform="translate(458.47 1580.9)"><path d="m0 0c8.523 2.698 11.73 4.276 18.655 9.929 9.421 7.69 2.337 32.38 8.726 42.727 22.668 36.708 71.053 59.463 111.33 74.922 12.42 4.767 46.338 18.656 77.931 24.072 7.735 1.325-17.352 23.467-14.442 23.77 13.34 1.391 53.224-38.019 181.74-42.125 32.989-1.054 69.995 0.649 102.05 8.53 14.001 3.442 49.904 30.285 49.904 30.285s10.763-29.561 15.947-37.31c44.238-66.12 83.647-73.592 140.94-63.112-4.25-21.96-14.468-69.184-14.87-91.547-0.32 16.984-1.485 54.929-1.805 71.913-50.685-13.277-100.65 6.653-139.25 42.087-11.332 10.404-22.26 22.409-36.988 26.849-16.674 5.027-75.992-37.886-155.26-30.214-118.35 11.453-141.81 40.264-149.88 39.037-3.75-0.57-61.019-36.416-89.412-45.517-13.67-4.382-27.911-7.816-40.025-15.518-12.114-7.703-33.689-32.07-23.004-73.557-3.994-2.317-48.85-14.339-95.537 2.071 0 0 37.743-2.204 53.258 2.708"/></g></g><g transform="translate(399.15 1180.7)"><path d="m0 0s-21.38 187.83 51.921 276.4c73.301 88.572 132.86 130.18 204.63 148.51 71.773 18.325 146.22 13.743 166.07 9.162s50.776-4.199 67.574-1.145 70.246 3.818 129.8-16.034c59.557-19.853 94.68-47.34 128.28-91.626s54.975-73.3 73.3-120.64 24.434-171.04 21.38-215.32c-3.055-44.285-784.93-42.758-784.93-42.758z" style="fill:#eb0226"/></g><g clip-path="url(#clipPath55975)" style="opacity:.2"><g transform="translate(904.32 804.57)"><path d="m0 0c-13.875 4.584-29.46 4.386-43.04-1.119-3.994-1.619-7.394-4.227-9.703-7.487-13.233-7.343-10.924-32.756 5.375-35.813 17.923-3.36 35.848 1.683 51.93 9.517 15.71 7.652 9.893 30.127-4.562 34.902" style="fill:#fff"/></g></g><g clip-path="url(#clipPath55991)" style="opacity:.2"><g transform="translate(921.09 801.9)"><path d="m0 0c-10.996 6.274-28.548 3.707-40.293 1.672-10.897-1.887-25.56-5.879-27.876-18.675-0.378-2.088-0.29-4.042 0.01-5.916-2.949-3.457-3.654-8.606 0.275-12.219 10.5-9.659 29.735-8.288 43.217-7.171 11.452 0.95 24.775 3.128 31.075 14.085 5.356 9.314 3.35 22.657-6.408 28.224" style="fill:#fff"/></g></g><g clip-path="url(#clipPath56007)" style="opacity:.10001"></g><g transform="translate(1072.6 537.66)"><path d="m0 0c-4.581 48.104-89.335 234.27-89.335 234.27h-293.96s-84.754-186.17-89.335-234.27c-4.581-48.103 2.29-91.94 25.197-114.85 7.348-7.348 414.88-7.131 422.23 0.217 22.906 22.906 29.779 66.526 25.197 114.63" style="fill:#fff9db"/></g><g clip-path="url(#clipPath56027)" style="opacity:.2"><g transform="translate(714.16 128.05)"><path d="m0 0c0.942 0.348 1.89 0.689 2.827 1.041-13.889 8.084-37.194 20.65-56.341 30.837-7.698-1.149-14.869-4.574-19.698-10.924 21.277-12.643 49.176-19.513 73.212-20.954" style="fill:#fff"/></g></g><g transform="translate(926.77 743.95)"><path d="m0 0c-20.812 4.028-136.5 10.483-181.84 9.402 0.526 0.313 0.88 0.525 0.88 0.525l-62.61 9.162s-25.197-6.108-25.961-17.562c-0.764-11.453-3.054-22.906 16.798-22.906 10.124 0 28.569 8.139 44.234 16.118-5.865-6.534-10.229-14.221-6.82-20.699 7.636-14.508 21.38-16.798 34.359-13.744 12.981 3.054 38.941 21.379 38.941 21.379s-6.871-14.508 3.818-25.961c10.69-11.453 10.69-12.98 25.197-13.743 14.507-0.764 29.015 20.615 24.434 32.069 0 0 12.216-28.252 29.778-29.779 17.561-1.527 32.833 9.163 29.779 27.488 0 0 7.635-20.616 29.778-23.67 22.142-3.054 23.67-5.345 32.069 26.724 0 0-3.818-35.123 21.379-21.379 25.197 13.743-30.542 41.995-54.212 46.576" style="fill:#fed3c4"/></g><g transform="translate(636.24 283.91)"><path d="m0 0s-6.872-52.685-10.308-58.412c-3.436-5.726-13.744 0-15.462-9.162s1.146-14.316 1.146-14.316-11.454 8.017-12.026-1.719c-0.573-9.735 0.572-16.606 0.572-16.606s-14.316 12.025-16.034 2.29 67.574-55.548 95.062-61.275c27.487-5.726 24.051-10.308 46.958-9.735 22.906 0.573 34.359-1.718 34.359 8.017 0 9.736 0 0.573 4.009 4.009s7.445 8.59 5.154 17.18-5.154 12.026 1.145 17.752c6.3 5.727 4.581 3.436 9.163 20.043 4.581 16.608 51.539 56.694 54.402 79.028 2.864 22.333-198.14 22.906-198.14 22.906" style="fill:#340a3e"/></g><g clip-path="url(#clipPath56051)" style="opacity:.10001"><g transform="translate(1008.8 264.34)"><path d="M 0,0 C 20.183,6.157 36.608,10.437 49.979,13.332 32.452,12.906 16.078,7.09 0,0"/></g></g><g clip-path="url(#clipPath56067)" style="opacity:.2"><g transform="translate(1315.7 1469.6)"><path d="m0 0c-15.028-18.654-34.058-38.203-57.069-54.436 21.166 11.956 40.371 31.708 57.069 54.436"/></g></g><g transform="translate(927.28 455.21)"><path d="m0 0c-27.121 5.681-56.258 11.636-59.465 12.278 2.932-0.55 31.428-5.956 59.465-12.278" style="fill:#04ff44"/></g><g transform="translate(1217.3 1087.9)"><path d="m0 0s1.527 99.261 32.833 79.027c0 0-26.343 11.072-32.833-79.027" style="fill:#ed766a"/></g><g transform="translate(1224.4 1120.6)"><path d="M 0,0 C 0,0 24.481,7.158 22.334,-11.167 20.054,-30.622 2.863,-31.496 0,-32.355 c 0,0 24.338,1.145 24.624,20.043 C 24.911,6.586 12.885,3.722 0,0" style="fill:#ed766a"/></g><g transform="translate(1159.1 1025.4)"><path d="m0 0c1.589-3.095-1.684-7.946-7.311-10.836-5.627-2.889-11.477-2.723-13.066 0.372s1.684 7.946 7.311 10.836c5.627 2.889 11.477 2.723 13.066-0.372" style="fill:#ed766a"/></g><g transform="translate(628.98 176.64)"><path d="m0 0s-41.232 4.581-49.631-15.271-3.817-29.015-3.817-29.015 1.145-3.627 14.507-8.399c28.708-10.253 55.739-15.271 79.409-14.507 23.67 0.763 55.739 9.926 59.556 11.453 3.818 1.527-100.02 55.739-100.02 55.739" style="fill:#30387c"/></g><g clip-path="url(#clipPath56103)" style="opacity:.2"><g transform="translate(667.46 125.38)"><path d="m0 0c-10.746 3.698-29.161 13.936-39.195 19.349-0.659-2.368 9.942-15.673 12.619-17.336 2.429-1.509 4.132-4.016 6.717-5.223 6.22-2.905 13.512-3.275 20.394-3.657 6.202-0.345 12.395 0.219 18.54 1.363-6.417 1.488-12.771 3.335-19.075 5.504" style="fill:#fff"/></g></g><g clip-path="url(#clipPath56119)" style="opacity:.2"><g transform="translate(597.43 149.36)"><path d="m0 0c-0.734 11.238 4.116 20.335 11.61 27.267-11.798-1.15-25.272-4.83-29.685-15.262-8.399-19.852-3.818-29.014-3.818-29.014s1.145-3.627 14.507-8.399c9.716-3.47 19.219-6.288 28.485-8.538-10.861 8.692-20.192 20.059-21.099 33.946"/></g></g><g transform="translate(973.34 141.51)"><path d="m0 0 2.291-16.798s15.271-1.527 26.724-4.582c11.453-3.054 51.157-14.507 75.591-12.98 24.433 1.527 38.941 4.581 43.522 9.163 4.581 4.581 6.108 11.453 6.108 11.453s3.818 18.325-7.635 25.961c-11.453 7.635-132.09 3.054-146.6-12.217" style="fill:#30387c"/></g><g clip-path="url(#clipPath56139)" style="opacity:.2"><g transform="translate(1127.9 128.5)"><path d="m0 0c-3.424-16.307-45.644-14.173-61.578-11.855-37.982 5.525-37.752 11.28-54.41 25.551-4.024 3.447-8.099 5.176-9.822 8.966-14.175-2.491-25.012-5.713-28.755-9.653l2.291-16.798s15.27-1.527 26.724-4.581c11.453-3.054 51.158-14.507 75.591-12.98s38.941 4.581 43.522 9.162c4.581 4.582 7.046 11.963 6.437 12.188"/></g></g><g clip-path="url(#clipPath56155)" style="opacity:.2"><g transform="translate(1097.4 141.73)"><path d="m0 0c-17.651-1.397-12.85-13.328-7.476-15.59 7.956-3.348 27.999-8.456 31.574 3.308 4.146 13.644-15.357 12.507-23.832 12.274" style="fill:#fff"/></g></g><g clip-path="url(#clipPath56171)" style="opacity:.2"><g transform="translate(1177.7 1041.2)"><path d="m0 0c1.292 5.624-4.846 10.853-10.239 9.396-7.952 2.077-17.617-0.805-24.725-4.056-6.92-3.166-16.166-8.702-17.468-16.909-0.05-0.317-0.012-0.607-0.039-0.917-0.819-0.81-1.603-1.607-2.32-2.372-6.14-6.558-1.705-17.117 7.225-17.441 15.849-0.575 37.946 5.34 46.124 20.396 2.087 3.841 2.546 8.137 1.442 11.903" style="fill:#fff"/></g></g><g clip-path="url(#clipPath56187)" style="opacity:.2"><g transform="translate(563.59 1009.6)"><path d="m0 0c-8.838-5.387-11.701-16.518-7.989-25.857 4.192-10.547 14.577-16.083 25.491-17.047 10.909-0.963 22.998 3.861 23.128 16.494 0.772 1.423 1.4 2.958 1.698 4.708 3.531 20.694-27.609 30.674-42.328 21.702" style="fill:#fff"/></g></g><g clip-path="url(#clipPath56203)" style="opacity:.39999"><g transform="translate(1333 1801.3)"><path d="m0 0c21.954-4.188 41.343-18.26 54.388-36.408s20.107-40.107 22.879-62.285c1.646-13.162 1.776-26.911-3.089-39.252-6.339-16.08-20.38-27.868-35.123-36.89-7.719-4.724-18.199-8.726-25.194-2.984-3.636 2.985-5.11 7.797-6.386 12.324-3.94 13.986-7.762 28.332-6.811 42.831 1.895 28.859 22.464 56.456 15.058 84.413-3.728 14.076-14.855 25.965-28.653 30.616" style="fill:#fff"/></g></g><g clip-path="url(#clipPath56219)" style="opacity:.39999"><g transform="translate(1182.7 734.58)"><path d="m0 0c-10.43-1.528-15.869-12.757-22.719-20.769-9.569-11.192-23.826-17.139-35.106-26.606-21.464-18.014-30.375-49.601-21.49-76.177 1.957-5.851 5.54-12.135 11.609-13.245 4.489-0.821 9.124 1.648 11.887 5.282 2.762 3.633 3.923 8.241 4.442 12.775 1.705 14.883-2.79 30.145 0.221 44.819 4.383 21.37 23.229 36.237 40.795 49.174 2.054-11.943 5.367-25.633 16.294-30.873-3.368 11.115-5.729 22.536-7.045 34.075-0.749 6.565-1.063 13.622 2.24 19.345" style="fill:#fff"/></g></g><g clip-path="url(#clipPath56235)" style="opacity:.39999"><g transform="translate(1021.5 752.67)"><path d="m0 0c9.135-3.273 13.26-13.505 18.801-21.471 13.213-18.995 37.118-26.947 54.998-41.632-5.782-11.015-11.609-22.14-14.864-34.148-3.255-12.007-3.77-25.138 0.975-36.638-11.998 15.487-17.253 36.019-14.17 55.366 0.802 5.027 2.109 10.342 0.196 15.06-1.37 3.377-4.206 5.913-7.016 8.234-12.552 10.366-27.49 20.485-31.121 36.354-1.341 5.862-1.128 12.476-4.939 17.128-0.663 0.81-1.899 1.555-2.658 0.833-0.759-0.721 1.451-1.543 0.988-0.603" style="fill:#fff"/></g></g><g transform="translate(858.81 275.9)"><path d="m0 0s31.306-58.029 44.286-68.719-2.028-27.324 14.93-30.802c4.203-0.863-2.332 7.895 15.994-8.903 18.325-16.798 3.016-16.585 22.143-15.652 15.652 0.763-10.308-34.742 24.815-24.052 11.549 3.515 38.177 12.98 70.246 16.034s57.266 5.345 72.537-1.527 14.507 10.69 2.29 22.907c-12.216 12.216-36.65 37.413-38.177 51.921-1.527 14.507 6.109 27.488-1.527 35.123-7.635 7.635 3.054 22.143-2.29 35.887-5.345 13.744-200.05 15.271-225.25-12.217" style="fill:#340a3e"/></g><g clip-path="url(#clipPath56255)" style="opacity:.2"><g transform="translate(903.1 207.18)"><path d="m0 0c12.981-10.69-2.028-27.324 14.929-30.802 3.045-0.625 0.502 3.749 5.796-0.139 52.042 15.963 103.61 32.137 154.68 35.123 3.47 0.484 6.929 1.046 10.414 1.438-0.506 1.506-0.9 2.964-1.042 4.306-1.527 14.508 6.108 27.488-1.527 35.123s3.054 22.143-2.29 35.887c-5.345 13.744-200.05 15.271-225.25-12.217 0 0 31.305-58.029 44.286-68.719"/></g></g><g clip-path="url(#clipPath56271)" style="opacity:.2"><g transform="translate(1095.7 162.26)"><path d="m0 0c19.25 2.133 8.946 18.766-21.749 29.043 5.242 1.141 12.193 1.721 17.443 0.619 18.73-3.93 29.082-23.181 38.531-39.823-51.227 9.423-104.97-3.056-154.81-18.173 0 0 82.506 24.114 120.59 28.334" style="fill:#fff"/></g></g><g clip-path="url(#clipPath56287)" style="opacity:.2"><g transform="translate(966.29 139.13)"><path d="m0 0c17.191 1.455 32.539 11.188 46.029 21.944 13.489 10.756 26.866 21.537 42.221 29.402-31.987-6.823-63.58-34.967-96.243-36.664 4.615-4.407 5.878-6.666 3.843-12.715"/></g></g><g clip-path="url(#clipPath56303)" style="opacity:.2"><g transform="translate(636.24 283.91)"><path d="m0 0s-6.872-52.685-10.308-58.411c-0.416-0.693-0.935-1.212-1.525-1.616 8.439-3.982 16.388-9.565 24.752-13.34 9.307-4.201 18.862-7.814 28.271-11.771 6.196-2.606 30.954-9.802 30.223-19.283-1.047-13.608-28.516-0.316-34.199 1.628-22.581 7.727-47.493 16.408-62.857 35.689-0.038-0.163-0.094-0.296-0.127-0.469-1.003-5.35-0.441-9.284 0.198-11.672 5.651-3.964 11.174-8.083 16.74-12.144 2.666-1.434 5.286-2.866 7.732-4.378 12.933-7.989 25.831-14.9 40.166-20.036 10.452-3.744 22.098-6.481 32.161-11.159 3.205-1.49 9.395-4.434 9.395-8.766 0-1.271-0.916-2.55-2.174-2.855-19.92-4.834-45.278 11.778-62.265 20.478-18.461 9.455-39.489 18.967-52.034 36.13-0.148 0.203-0.261 0.405-0.347 0.605-0.225-0.62-0.399-1.329-0.452-2.238-0.473-8.038 0.224-14.113 0.482-15.99 34.575-29.119 77.877-47.185 121.98-55.834 3.742-0.734 2.148-6.441-1.574-5.711-48.701 9.552-96.474 30.594-132.98 64.757-0.65 0.608-0.909 1.301-0.907 1.973-1.197-0.449-2.11-1.495-2.466-3.511-1.718-9.736 67.574-55.549 95.062-61.275 27.487-5.727 24.051-10.308 46.958-9.735 22.906 0.572 34.359-1.718 34.359 8.017s0 0.572 4.009 4.008 7.445 8.59 5.154 17.18-5.154 12.026 1.145 17.753c6.3 5.726 4.582 3.436 9.163 20.043s51.539 56.693 54.403 79.027c2.863 22.334-198.14 22.906-198.14 22.906"/></g></g><g clip-path="url(#clipPath56319)" style="opacity:.2"><g transform="translate(774.91 165.96)"><path d="m0 0c1.719 2.256 1.999 4.893 5.068 16.019 4.581 16.607 51.539 56.693 54.402 79.027s-198.14 22.906-198.14 22.906-6.015-46.11-9.604-56.736c54.692-9.197 105.4-29.814 148.27-61.216"/></g></g><g clip-path="url(#clipPath56335)" style="opacity:.39999"><g transform="translate(758.99 127.59)"><path d="m0 0c-11.378 0.911-22.757 1.822-34.116 2.947-12.637 1.251-26.06 3.104-35.725 11.342 11.024-2.706 22.196-4.811 33.449-6.304 5.33-0.707 10.907-1.251 15.956 0.599s9.364 6.814 8.686 12.148c-0.228 1.792-1.087 3.6-2.645 4.512-0.819 0.48-1.767 0.681-2.695 0.878-30.347 6.445-60.02 16.054-88.384 28.62 3.184-1.44 6.369-2.879 9.554-4.319 16.525-7.471 34.708-10.287 52.67-12.795 5.275-0.737 23.694 2.541 23.91 7.863 0.253 6.214-4.833 11.334-10.098 14.643-5.265 3.31-11.284 5.854-15.074 10.784 15.768-8.885 34.017-13.313 52.104-12.643 3.665 0.135 8.688-0.646 8.853-4.31 0.062-1.387-0.715-2.66-1.506-3.801-2.83-4.081-6.228-7.781-8.641-12.121s-3.77-9.615-2.11-14.295c0.64-1.805 1.695-3.434 2.433-5.202 2.656-6.366 0.541-14.39-4.908-18.62-0.426 0.586-0.852 1.172-1.278 1.757"/></g></g><g transform="translate(1482.1 1448)"><path d="m0 0c-0.028-0.027-0.028-0.027-0.055-0.027-0.94 1.629-1.713 3.314-2.349 5.054 0.664-1.712 1.437-3.397 2.404-5.027" style="fill:#fff"/></g><g clip-path="url(#clipPath56355)" style="opacity:.2"><g transform="translate(1504.1 1392.7)"><path d="m0 0s-47.499-14.585-86.517-17.002l-31.077-0.346s19.682-9.323 47.305-6.215c27.624 3.108 73.894 18.301 73.894 18.301z" style="fill:#fff"/></g></g><g clip-path="url(#clipPath56371)" style="opacity:.2"><g transform="translate(1475.1 1403.4)"><path d="m0 0c4.144 2.771 7.209 8.272 10.804 11.474 1.677 1.494 3.347 2.97 5.023 4.427 1.496 2.135 3.11 3.983 4.889 5.573 0.653 4.303-1.423 6.549-1.423 6.549-33.024-37.555-107.86-56.021-107.86-56.021s22.79-6.101 74.815 17.265c2.559 1.149 13.002 10.324 13.749 10.733"/></g></g><g clip-path="url(#clipPath56387)" style="opacity:.2"><g transform="translate(935.93 734.79)"><path d="m0 0c-20.812 4.028-136.5 10.483-181.84 9.402 0.526 0.312 0.88 0.524 0.88 0.524l-62.611 9.163s-25.197-6.109-25.96-17.562c-0.764-11.453-3.054-22.907 16.798-22.907 10.124 0 28.569 8.14 44.234 16.119-5.865-6.534-10.23-14.222-6.82-20.7 7.635-14.507 21.379-16.797 34.359-13.743 12.981 3.054 38.941 21.379 38.941 21.379s-6.872-14.508 3.818-25.961 10.69-12.98 25.197-13.743c14.507-0.764 29.015 20.615 24.434 32.068 0 0 12.216-28.251 29.778-29.778 17.561-1.527 32.832 9.163 29.778 27.488 0 0 7.635-20.616 29.779-23.67 22.142-3.054 23.67-5.345 32.069 26.724 0 0-14.126-45.431 11.071-31.687s-20.234 52.303-43.904 56.884"/></g></g><g transform="translate(937.99 747.27)"><path d="m0 0c-20.389-5.801-147.72 7.16-193.07 6.078 0.526 0.313 0.881 0.525 0.881 0.525l-62.611 9.162s-25.197-6.108-25.96-17.561c-0.764-11.454-3.055-22.907 16.798-22.907 10.123 0 28.569 8.14 44.233 16.119-5.865-6.534-10.229-14.222-6.82-20.7 7.636-14.507 21.38-16.798 34.36-13.744s38.941 21.38 38.941 21.38-6.872-14.508 3.817-25.961c10.69-11.453 10.69-12.98 25.197-13.744 14.508-0.763 29.016 20.616 24.434 32.069 0 0 12.217-28.251 29.778-29.778 17.562-1.527 32.833 9.162 29.779 27.487 0 0 4.041-27.363 26.184-30.417s31.76 3.671 33.914 33.106c0 0-2.069-34.758 23.128-21.014s-15.526 57.712-42.983 49.9" style="fill:#fed3c4"/></g><g clip-path="url(#clipPath56407)" style="opacity:.2"><g transform="translate(749.53 719.99)"><path d="m0 0c0-3.795-4.102-6.872-9.162-6.872-5.061 0-9.163 3.077-9.163 6.872s4.102 6.872 9.163 6.872c5.06 0 9.162-3.077 9.162-6.872"/></g></g><g transform="translate(748.1 722.57)"><path d="m0 0c0-3.795-4.103-6.872-9.163-6.872s-9.162 3.077-9.162 6.872 4.102 6.872 9.162 6.872 9.163-3.077 9.163-6.872" style="fill:#fff9db"/></g><g clip-path="url(#clipPath56427)" style="opacity:.2"><g transform="translate(821.78 703.2)"><path d="m0 0c0-4.006-4.102-7.254-9.162-7.254-5.061 0-9.163 3.248-9.163 7.254s4.102 7.254 9.163 7.254c5.06 0 9.162-3.248 9.162-7.254"/></g></g><g clip-path="url(#clipPath56443)" style="opacity:.2"><g transform="translate(885.98 702.44)"><path d="m0 0c0-3.584-4.444-6.49-9.926-6.49s-9.926 2.906-9.926 6.49 4.444 6.49 9.926 6.49 9.926-2.906 9.926-6.49"/></g></g><g transform="translate(820.63 704.63)"><path d="m0 0c0-4.006-4.102-7.253-9.163-7.253-5.06 0-9.162 3.247-9.162 7.253s4.102 7.254 9.162 7.254c5.061 0 9.163-3.248 9.163-7.254" style="fill:#fff9db"/></g><g transform="translate(884.77 703.86)"><path d="m0 0c0-3.584-4.444-6.49-9.926-6.49s-9.926 2.906-9.926 6.49 4.444 6.49 9.926 6.49 9.926-2.906 9.926-6.49" style="fill:#fff9db"/></g><g clip-path="url(#clipPath56467)" style="opacity:.2"><g transform="translate(941.38 709.38)"><path d="m0 0c0.763-3.933-2.647-7.902-7.614-8.865-4.968-0.963-9.613 1.444-10.376 5.377s2.646 7.902 7.614 8.865 9.613-1.444 10.376-5.377"/></g></g><g transform="translate(939.98 710.57)"><path d="m0 0c0.763-3.933-2.646-7.902-7.614-8.865s-9.613 1.444-10.376 5.377 2.646 7.902 7.614 8.865 9.613-1.444 10.376-5.377" style="fill:#fff9db"/></g><g clip-path="url(#clipPath56487)" style="opacity:.2"><g transform="translate(685.86 741.66)"><path d="m0 0c0.763-3.933-2.647-7.902-7.614-8.865"/></g></g><g transform="translate(685.85 742.68)"><path d="m0 0c0.763-3.933-2.646-7.902-7.614-8.865s-9.613 1.444-10.376 5.377c-0.762 3.933 2.646 7.902 7.614 8.865s9.614-1.444 10.376-5.377" style="fill:#fff9db"/></g><g clip-path="url(#clipPath56507)" style="opacity:.2"><g transform="translate(674.08 755.88)"><path d="m0 0s22.143-50.394 60.32-56.503c38.178-6.108 103.08-10.689 158.82-1.527 55.739 9.163 102.44 57.37 102.44 57.37s-51.104-13.466-107.04-17.265c-25.537-1.734-95.647-0.23-134.66 5.525-18.27 2.695-63.189 8.978-79.876 12.4"/></g></g><g transform="translate(696.94 765.33)"><path d="m0 0s-25.451-125.55-63.507-234.45c-25.064-14.882-48.864-61.195-49.545-114.97-1.312-103.64-34.157-166.6-45.338-153.64 0 0 344.7-37.525 460.76-0.875 116.06 36.65 117.97 15.653 117.97 15.653s-40.149 141.91-41.109 222.08c-42.558-3.811-71.777 161.97-81.94 262.97-5.271 52.383-47.004-12.704-47.004-12.704l20.961-106.08-252.17 3.176s15.291 102.43 29.035 115.03c13.744 12.599-48.103 3.818-48.103 3.818" style="fill:#edd9c3"/></g><g clip-path="url(#clipPath56527)" style="opacity:.10001"><g transform="translate(594.51 475.59)"><path d="m0 0c-6.329-17.651-10.346-38.062-10.619-59.684-1.11-87.618-24.756-146.15-38.796-154.33 11.107-1.141 12.438 4.518 45.02 1.878 39.681 38.904-0.936 159.2 4.395 212.13"/></g></g><g clip-path="url(#clipPath56543)" style="opacity:.39999"><g transform="translate(602.96 438.38)"><path d="m0 0c17.205-57.119 34.494-118.06 18.247-175.46 95.163-16.633 193.06-17.539 288.51-2.671-19.421 2.7-38.842 5.401-58.264 8.101-25.921 3.604-51.843 7.208-77.764 10.812-35.541 4.942-71.257 9.921-105.58 20.383-5.349 1.631-8.753-8.082-14.444 7.989-2.439 6.886-4.109 13.751-4.552 21.042-1.694 27.876-18.763 52.025-30.511 77.361-6.765 14.59-11.487 32.942-1.866 45.83" style="fill:#fff"/></g></g><g clip-path="url(#clipPath56559)" style="opacity:.39999"><g transform="translate(1034 395.07)"><path d="m0 0c5.111-31.674 11.293-111.38 20.63-106.72 18.137-0.165 37.262 3.102 55.375 4.057-6.872 7.832-13.744 15.664-20.616 23.496-10.623 12.108-38.593 43.996-40.963 48.484-2.662 5.039-3.844 3.712-5.103 9.271-1.822 8.041-7.156 14.403-8.978 22.444" style="fill:#fff"/></g></g><g transform="translate(716.81 618.9)"><path d="m0 0c0-12.481-10.118-22.598-22.598-22.598-12.481 0-22.599 10.117-22.599 22.598s10.118 22.598 22.599 22.598c12.48 0 22.598-10.117 22.598-22.598" style="fill:#a19384"/></g><g transform="translate(1011.4 618.09)"><path d="m0 0c0-11.527-9.345-20.872-20.872-20.872s-20.872 9.345-20.872 20.872 9.345 20.872 20.872 20.872 20.872-9.345 20.872-20.872" style="fill:#a19384"/></g><g transform="translate(715.22 620.74)"><path d="m0 0c0-9.57-7.758-17.328-17.328-17.328-9.569 0-17.327 7.758-17.327 17.328s7.758 17.328 17.327 17.328c9.57 0 17.328-7.758 17.328-17.328" style="fill:#edeae6"/></g><g transform="translate(1008.8 619.93)"><path d="m0 0c0-9.289-7.53-16.82-16.82-16.82-9.289 0-16.819 7.531-16.819 16.82s7.53 16.819 16.819 16.819c9.29 0 16.82-7.53 16.82-16.819" style="fill:#edeae6"/></g><g clip-path="url(#clipPath56591)" style="opacity:.10001"><g transform="translate(716.01 646.48)"><path d="m0 0-47.516 0.484 2.417 7.769z"/></g></g><g clip-path="url(#clipPath56607)" style="opacity:.39999"><g transform="translate(968.55 643.34)"><path d="m0 0 41.781 5.179 1.899-7.941s-65.836 0.92-72.973 2.992z" style="fill:#fff"/></g></g><g clip-path="url(#clipPath56623)" style="opacity:.10001"><g transform="translate(732.16 587.58)"><path d="m0 0c1.615-2.018 17.764 2.019 97.703-0.807 79.939-2.827 127.98 4.844 130 4.844 2.019 0 29.877-161.9-4.845-176.84-34.72-14.937-206.71-16.149-228.51 8.883-21.802 25.031 0 157.46 0 157.46z"/></g></g><g clip-path="url(#clipPath56639)" style="opacity:.10001"><g transform="translate(921.02 423.76)"><path d="m0 0c-15.845-3.494-31.514-7.934-47.698-9.627-21.155-2.215-42.818-1.411-63.937 0.735-26.22 2.664-66.655 7.946-90.159 27.522 1.527-8.26 3.87-14.81 7.283-18.728 21.801-25.031 193.79-23.82 228.51-8.882 4.432 1.907 7.839 6.22 10.416 12.274-14.831 0.293-29.148 0.074-44.418-3.294"/></g></g><g clip-path="url(#clipPath56655)" style="opacity:.39999"><g transform="translate(714.82 621.93)"><path d="m0 0c0-5.085-4.122-9.208-9.208-9.208-5.085 0-9.208 4.123-9.208 9.208 0 5.086 4.123 9.208 9.208 9.208 5.086 0 9.208-4.122 9.208-9.208" style="fill:#fff"/></g></g><g clip-path="url(#clipPath56671)" style="opacity:.39999"><g transform="translate(1005 625.5)"><path d="m0 0c0-4.831-4.2-8.747-9.381-8.747-5.18 0-9.38 3.916-9.38 8.747s4.2 8.747 9.38 8.747c5.181 0 9.381-3.916 9.381-8.747" style="fill:#fff"/></g></g><g transform="translate(511.4 653.85)"><path d="m0 0c-6.612-3.173-14.507-16.416-16.798-31.306-2.291-14.889-8.399-77.499 27.106-115.3s61.133-48.3 92.057-48.3 64.852 4.778 67.143 10.504c2.29 5.727-1.653 74.796-2.918 86.179-1.146 10.308 11.248 24.369-13.88 34.844-15.815 6.592-36.533 20.749-36.533 20.749-1.727 12.086-54.287 72.326-116.18 42.625" style="fill:#f7e8c1"/></g><g clip-path="url(#clipPath56691)" style="opacity:.10001"><g transform="translate(643.25 499.25)"><path d="m0 0c-19.869-7.391-39.759-9.174-59.328 0.214-18.463 8.858-32.767 24.065-43.697 41.114-11.439 17.846-19.876 37.977-23.648 58.879-3.297 18.271-6.637 42.271 20.986 61.607-0.819-0.359-13.294-0.633-26.169-7.212-6.53-3.338-14.508-16.417-16.798-31.306-2.291-14.889-8.399-77.5 27.106-115.3 35.505-37.796 54.227-48.99 85.151-48.99 30.923 0 71.758 5.468 74.048 11.194 1.379 3.447 7.778 30.151 12.38 53.352-15.243-11.02-35.414-18.119-50.031-23.557"/></g></g><g clip-path="url(#clipPath56707)" style="opacity:.39999"><g transform="translate(555.41 657.84)"><path d="m0 0s17.265-14.157 24.861-28.659c7.597-14.503 5.525-35.566 11.05-40.4s31.523 3.224 53.521-0.691c27.163-4.834 24.171-24.861 30.386-25.552 6.215-0.69 8.747 19.337-14.157 27.854-18.019 6.701-28.832 17.208-34.875 19.912 0 0-0.756 8.163-14.157 19.912-8.403 7.367-23.481 25.782-56.629 27.624" style="fill:#fff"/></g></g><g clip-path="url(#clipPath56723)" style="opacity:.60001"><g transform="translate(670.42 574.05)"><path d="m0 0c-1.725 3.32-8.795 5.725-11.962 6.446-8.126 1.849-10.708 1.241-18.932 2.492-23.484 3.574-43.621-2.66-58.684-20.864-28.967-35.008-13.654-95.447 31.681-110.18 8.704-2.829 12.438 10.403 3.787 13.215-32.749 10.643-44.39 53.716-29.379 81.062 8.219 14.973 23.245 24.438 40.789 23.955 9.41-0.259 15.037-2.43 23.768-5.582 2.07-0.747 3.796-1.535 5.962-1.89 1.7-0.278 2.861-0.456 3.649-0.55-1.267-6.408 8.949-11.149 13.284-4.505 3.428 5.255-1.092 10.879-3.963 16.403" style="fill:#fff"/></g></g><g transform="translate(1235.6 330.14)"><path d="m0 0c-20.616-4.215-43.155 2.657-61.847 6.505-18.692 3.757-66.429 27.03-87.045 41.598-20.616 14.477-84.754 53.418-109.22 63.313-8.979 3.757-26.297 8.155-44.622 12.461 20.708-4.398 38.941-8.337 41.965-9.345 7.513-2.474 35.917-16.401 54.975-27.488 19.15-11.087 73.301-40.499 100.79-55.8 27.488-15.209 58.091-22.54 99.322-24.372 39.95-1.833 61.573 33.259 62.856 35.367-7.239-26.663-36.559-38.116-57.175-42.239m-195.25 125.71c62.397 7.513 208.63 40.865 244.82-24.098-37.658 47.738-176.1 23.273-218.71 19.059-64.779-6.323-134.14 13.377-197.73 24.372 54.517-8.887 116.64-26.022 171.62-19.333m4.764-13.5c-55.8 3.666-119.48 18.814-174.36 28.801 58.366-10.628 119.02-25.289 178.58-24.922 53.967 0.367 222.56 26.113 239.14-46.088-42.881 67.62-172.9 37.537-243.36 42.209m93.535-62.038c24.647-12.552 48.485-13.171 86.281-12.789 38.452 0.388 64.901 16.416 64.901 16.416-1.527-26.342-35.291-36.772-53.066-39.704-17.684-2.841-67.956 8.994-97.734 23.288-27.854 13.377-129.92 65.878-142.94 72.659 16.584-7.972 118.64-47.684 142.55-59.87m146.98 8.926s-54.976-16.584-93.367-11.362c-38.299 5.132-132.86 41.232-151.73 49.753-7.788 3.574 124.2-30.878 163.78-30.328 39.491 0.55 81.318-8.063 81.318-8.063m-111.1 18.944c-29.509 4.001-120.35 24.028-122.55 25.769 0 0 60.152 4.559 113.39 1.718 53.326-2.84 65.856-2.863 81.891-9.735 16.034-6.872 34.336-18.921 40.109-33.214 0 0-79.05 10.88-112.84 15.462m72.155 64.71c-42.881 6.139-99.689 9.896-169.51 0.733-68.72-8.979-58.183-15.484-210.28 10.72 0 0.092 0.549 6.414 0.549 6.414l-175.1 34.268s-7.238 2.108-10.72-9.345c-3.116-10.629 10.812-12.645 10.812-12.645s130.66-37.566 167.31-43.431l2.107 4.399s100.79-12.095 158.06-52.227c57.266-40.04 94.466-67.07 134.41-80.172 62.947-20.616 130.93-16.401 145.78 48.928 14.935 65.237-16.035 87.044-53.418 92.358" style="fill:#251e58"/></g><g clip-path="url(#clipPath56743)" style="opacity:.2"><g transform="translate(1017 450.43)"><path d="m0 0c-28.954 1.979-58.285 7.237-87.136 12.92 5.339-2.034 10.629-4.156 15.86-6.394 23.701-4.22 47.535-7.765 71.294-9.525-0.115 0.988-0.119 1.991-0.018 2.999" style="fill:#fff"/></g></g><g clip-path="url(#clipPath56759)" style="opacity:.2"><g transform="translate(1058.1 401.33)"><path d="m0 0c-0.065 2.141 0.445 4.309 1.403 6.273-29.672 15.165-57.068 29.278-63.395 32.575 6.537-3.142 26.37-11.222 49.448-20.598-0.36 1.895-0.346 3.899 0.114 5.834-2.042 0.856-3.79 1.609-5.124 2.211-1.205 0.554 0.945 0.194 5.579-0.805 1.036 2.96 3.054 5.561 6.004 7.067-0.033 0.018-0.11 0.045-0.13 0.061 0 0 0.11 8e-3 0.274 0.02 1.638 0.806 3.527 1.305 5.715 1.293 3.602-0.021 7.15-0.144 10.691-0.284 21.588 1.148 60.716 2.609 96.707 0.688 53.326-2.84 65.856-2.863 81.89-9.735 5.915-2.534 12.134-5.778 17.923-9.574 1.478 0.26 2.956 0.525 4.435 0.769 1.45 0.238 2.771 0.181 4.023-4e-3 -49.317 42.169-150.6 23.849-215.57 24.745-9.946-2.187-19.904-4.169-30.12-4.118-5.654 0.028-9.017 3.192-10.334 7.218-22.969 2.75-46.739 6.858-70.303 11.339 7.353-3.179 14.598-6.58 21.758-10.174 2.895-0.675 4.929-1.184 5.766-1.463 7.513-2.474 35.917-16.401 54.975-27.487 6.335-3.668 16.511-9.347 28.274-15.851" style="fill:#fff"/></g></g><g clip-path="url(#clipPath56775)" style="opacity:.2"><g transform="translate(1246.7 472.89)"><path d="m0 0c-42.881 6.139-99.689 9.896-169.51 0.733-68.72-8.979-58.182-15.485-210.28 10.72 0 0.092 0.55 6.414 0.55 6.414l-175.1 34.268s-6.384 1.855-10.045-7.409c1.7-0.109 3.457-0.577 5.217-1.496 12.488-6.519 27.857-6.478 41.564-7.795 15.881-1.526 31.618-4.586 47.319-7.368 31.822-5.637 63.513-12.431 94.983-19.781 19.369-4.524 37.94-10.11 55.884-16.813 30.259-5.613 61.194-10.447 90.726-9.977 1.761 4.349 5.707 7.839 11.657 7.809 12.258-0.062 24.142 4.52 36.103 6.759 9.555 1.788 19.261 2.55 28.938 3.331 20.35 1.643 40.752 3.071 61.128 4.363 40.689 2.58 81.171 1.464 118.61-16.448 8.518-4.075 9.046-14.174 5.005-20.037 2.133-2.602 4.05-5.401 5.728-8.413-2.002 2.537-4.343 4.828-6.884 6.971-2.732-2.86-6.84-4.065-11.704-1.739-38.379 18.363-79.356 17.673-120.85 14.545-5.487-0.413-10.984-0.777-16.483-1.131 67.681 2.58 148.03-1.553 159.22-50.257-1.51 2.381-3.161 4.604-4.881 6.749 0.408-2.255 0.271-4.59-0.474-6.699 1.762-2.408 3.218-4.902 4.256-7.472 0 0-3.73 0.514-9.903 1.363-0.991-0.453-2.06-0.833-3.302-1.038-1.775-0.293-3.54-0.589-5.304-0.886 10.269-1.585 16.768-2.92 16.768-2.92s-29.974-9.034-61.112-11.663c0.887-3.338 0.56-7.053-1.18-10.066 0.537 5e-3 1.048 8e-3 1.59 0.014 38.452 0.388 64.901 16.416 64.901 16.416-1.527-26.343-35.291-36.772-53.066-39.705-14.854-2.386-52.699 5.585-82.08 16.668-15.038 2.436-29.869 6.601-44.418 11.721 7.573-4.168 14.549-8.018 20.335-11.239 27.487-15.21 58.09-22.54 99.321-24.373 39.95-1.832 61.573 33.26 62.856 35.368-7.239-26.664-36.559-38.117-57.175-42.239-20.616-4.215-43.155 2.657-61.847 6.505-18.691 3.757-66.429 27.029-87.045 41.598-2.576 1.81-5.842 4.006-9.616 6.475-1.226 0.144-2.516 0.497-3.876 1.163-4.796 2.35-8.467 4.508-12.226 8.404-0.413 0.429-0.748 0.89-1.069 1.355-26.58 16.532-62.274 37.274-80.411 45.068 19.232-10.327 37.85-22.2 56.073-35.771 2.828-2.107 4.337-4.766 4.846-7.518 46.063-32.2 78.928-54.344 113.9-65.814 62.947-20.615 130.93-16.401 145.78 48.929 14.935 65.237-16.035 87.044-53.418 92.358" style="fill:#fff"/></g></g><g clip-path="url(#clipPath56791)" style="opacity:.2"><g transform="translate(1086.4 409.62)"><path d="m0 0c-1.051 0.086-2.104 0.135-3.155 0.21 25.483-11.378 52.237-21.823 79.696-25.442-23.595 6.485-52.428 16.366-76.541 25.232" style="fill:#fff"/></g></g><g transform="translate(691.2 504.32)"><path d="m0 0c-10.009 5.093-1.85 21.149 9.004 18.262 9.564-2.544 20.68-3.668 24.048 3.36 3.217 6.714-10.989 12.737-22.789 26.012-11.05 12.431-27.903 3.899-56.629 19.567-22.789 12.431-46.27-6.215-46.27-6.215s-22.789-18.646-18.646-53.176c2.188-18.23 37.121-111.8 125.69-40.054 41.333 33.485 5.985 21.868-14.406 32.244" style="fill:#fec2b1"/></g><g clip-path="url(#clipPath56811)" style="opacity:.2"><g transform="translate(691.2 504.32)"><path d="m0 0c-10.009 5.093-1.85 21.149 9.004 18.262 9.564-2.544 20.68-3.668 24.048 3.36 3.218 6.714-10.989 12.737-22.789 26.013-11.05 12.43-27.903 3.898-56.629 19.566-15.936 8.693-32.199 2.192-40.545-2.506-8.487-7.853-8.89-8.24-8.832-8.198 39.709 28.66 47.471 1.552 68.023 0.345 5.9-0.346 16.903-9.61 22.925-13.219 20.582-12.332-4.274-10.658-18.091-20.85-16.919-23.941 9.488-32.535 9.668-32.573 39.364-8.287 17.946-19.566-7.596-25.207-14.584-3.22-23.804-1.651-38.673 1.727-10.992 2.497-20.756 11.489-30.372 17.324-6.864 4.165-13.498 9.209-19.377 14.995 8.766-28.573 45.126-94.891 123.64-31.283 41.333 33.485 5.985 21.869-14.406 32.244" style="fill:#a1421d"/></g></g><g clip-path="url(#clipPath56827)" style="opacity:.5"><g transform="translate(1267 658.37)"><path d="m0 0c-13.911-6.649-29.913-8.373-44.541-2.991-11.555 4.251-20.36 11.957-26.552 21.47-2.158 2.689-4.084 5.546-5.695 8.564-9.056 16.963-6.676 35.025-3.185 52.957-0.248-0.258-0.497-0.514-0.721-0.825-11.36-15.765-19.412-31.639-14.349-51.451 3.994-15.629 13.767-32.634 29.607-38.199 16.646-5.848 36.691-7.438 53.793-2.795 12.862 3.493 28.931 11.158 28.872 26.305-4.29-5.593-10.994-10.055-17.229-13.035" style="fill:#fff"/></g></g><g clip-path="url(#clipPath56843)" style="opacity:.2"><g transform="translate(1220.7 1385.3)"><path d="m0 0c-2.75 7.103-5.603 13.7-8.521 20.091-0.021-0.104-0.022-0.208-0.042-0.312-0.731-3.653-44.818 49.842-71.464 70.039-20.277 15.372-48.644 36.198-75.931 37.443 20.534-13.59 44.241-21.917 62.242-39.471 12.879-12.56 28.12-29.681 29.196-48.468 0.225-3.935-86.472 106.52-235.65 91.912-11.179-1.094-39.017-12.284-44.954 3.15-3.42 8.888 17.177 17.154 26.504 22.327-5.397-0.835-28.023-3.216-33.376-4.002-4.587-0.673 31.297 24.349 42.502 28.763-14.06 1.295-35.549-5.691-49.947-7.861-3.635-0.548-4.956 1.717-2.577 5.44 6.622 10.364 21.316 20.697 32.025 24.973-9.589-0.202-29.755-6.1-39.47-7.22-4.89-0.564 0 8.59 8.282 13.691 12.693 7.818 25.104 14.59 38.613 18.866-3.542-0.284-6.539-0.648-8.813-1.061-16.797-3.054-47.721-3.436-67.574 1.145-0.162 0.038-0.4 0.075-0.57 0.112 2.941-1.605 5.608-3.696 8.61-5.318 13.149-7.106 18.367-9.364 14.581-10.828-2.299-0.889-20.231 0.909-22.484 0.335 3.721-1.447 16.878-8.029 20.766-9.211 4.758-1.448 3.29-7.713-2.005-7.159-6.571 0.689-21.575 4.801-27.928 4.556 12.175-5.118 26.66-12.723 36.518-22.594 3.428-3.434 5.456-8.828 1.146-8.018-1.232 0.232-11.666 1.476-12.875 1.701 6.594-3.743 15.384-10.249 20.892-16.017 2.54-2.661 2.43-5.533-1.718-5.154-4.944 0.452-13.702 0.456-18.425 0.547 14.79-6.509 28.143-16.51 33.723-31.684 1.306-3.551 1.553-4.1-1.268-2.65-134.5 69.128-331.92-68.363-328.94-63.83 25.052 38.145 61.984 64.595 102.75 83.391-34.45-5.083-109.23-41.364-106.24-36.741 13.726 21.19 40.019 44.973 61.561 56.121-32.826-1.104-86.495-41.062-83.609-37.223 18.779 24.973 49.968 57.725 75.664 76.135-46.098-24.169-90.194-62.932-140.85-124.14-65.098-78.66-55.522-235.59-52.563-269.73 21.872-1.015 39.502-17.402 52.975-34.005 2.195-2.704 4.337-5.491 6.448-8.318 0.685 5.699 1.569 11.539 2.68 17.706 4.491 24.921 7.457 49.956 13.916 74.562 5.561 21.189 12.379 41.817 20.972 61.735 1.782 15.537 6.834 30.703 15.172 43.921 4.811 7.625 9.652 14.85 14.846 21.87 9.746 13.985 19.84 27.333 32.233 40.438 15.872 16.785 36.89 28.458 56.949 40.05 5.458 3.381 10.987 6.577 16.39 9.641 10.43 6.207 20.937 12.425 31.731 17.812 14.316 7.145 30.603 11.387 45.649 16.21 29.413 9.428 58.377 14.213 89.401 14.773 5.218 0.094 10.548-0.166 15.878-0.71 7.791 0.891 15.733 0.776 24.584 0.776 5.795 0 11.131-2.041 15.641-5.325 1.914-0.137 3.87-0.41 5.873-0.865-4.573 1.039 7.691-1.497 9.208-1.842 0.66-0.15 1.274-0.36 1.902-0.552 1.243 0.066 2.486 0.17 3.73 0.222 3.957 3.04 8.388 5.099 13.351 6.054 0.465 0.027 0.931 0.053 1.396 0.08 4.368 0.956 8.914 0.96 13.356-0.284 6e-3 2e-3 0.012 5e-3 0.018 7e-3 5.573 2.034 10.634 3.423 16.214 4.018 7.373 3.811 15.99 4.926 23.696 1.505 5.418-2.405 10.965-4.37 16.578-6.109 1.648-0.4 3.289-0.809 4.922-1.222 2.129-0.538 4.253-1.111 6.375-1.687 4.3-0.148 8.582-0.568 12.684-1.163 15.749-2.285 31.727-6.49 46.513-12.38 28.413-11.318 53.647-27.81 75.572-49.096 11.429-11.096 20.943-23.202 28.655-36.082 10.076-12.135 19.198-24.986 27.075-38.45 24.199-41.364 40.218-88.676 45.009-136.5 1.544-15.421 2.937-31.553 2.276-47.321 10.479 8.95 21.815 16.501 34.466 17.272 0.261 54.798-6.473 150.81-22.116 191.22"/></g></g><g clip-path="url(#clipPath56859)" style="opacity:.2"><g transform="translate(441.73 1229.2)"><path d="m0 0c-1.053 24.601 3.115 48.781 5.664 73.113-9.061-24.095-26.855-80.75-28.049-75.584-9.693 41.96-5.67 84.593 2.836 126.35-11.136-26.703-20.589-54.524-25.355-82.76-1.435-35.036 0.223-64.43 1.384-79.256 25.524-1.849 47.575-23.382 60.443-46.475 1.064 64.996 20 129.39 50.494 186.53 17.403 32.613 39.81 62.63 66.221 88.516 14.287 14.003 30.837 24.49 48.068 33.946-125.39-59.025-181.46-230.2-181.71-224.38"/></g><g transform="translate(1241.4 1247.5)"><path d="m0 0c-1.008 4.358-0.114 37.478-4.597 51.178-1.42-14.021-4.604-46.437-9.396-60.13-1.776-5.08-5.097 123.86-44.093 149.28 27.135-56.721 22.601-65.014 23.424-115.46 0.202-12.424-0.449-25.744-1.214-39.066 6.62-16.574 9.741-35.019 9.348-51.994 2.842 2.354 5.934 4.482 9.383 6.291 3.483 1.827 7.205 3.317 10.964 4.501 0.411 0.194 0.764 0.358 1.093 0.51 2.082 2.62 4.263 4.894 6.557 6.915-0.052 14.164-0.532 30.632-1.469 47.972"/></g></g><g clip-path="url(#clipPath56879)" style="opacity:.39999"><g transform="translate(453.82 1398.4)"><path d="m0 0c-0.221 0.94-1.497 0.876-2.341 0.786-0.523-24.275-4.426-49.996-17.632-70.724-6.946-10.904-15.758-18.459-25.703-23.337-0.62-1.897-9.006 0.381-9.006 0.381l-1.893-66.975s66.739 116.67 56.575 159.87"/></g></g><g clip-path="url(#clipPath56895)" style="opacity:.3"><g transform="translate(570.5 1550.7)"><path d="m0 0c16.92 17.85 38.89 30.334 61.963 38.849 23.074 8.516 47.349 13.257 71.598 17.366 34.72 5.884 70.85 10.474 104.74 0.898-30.938 5.21-63.225 2.185-92.656-8.681 32.57 4.972 66.28 2.318 97.67-7.689-27.992 8.844-58.182 0.3-86.272-8.227 34.254 5.061 70.137-1.646 100.25-18.739-47.349 12.672-97.327-0.622-144.52-13.863 47.722 12.578 99.179 10.594 145.79-5.622-20.447 3.446-41.49 3.319-61.894-0.374 25.934-1.424 51.567-8.13 74.877-19.588-93.477 10.038-191.75-6.107-270.53-57.413 50.723 30.142 102.88 60.83 160.98 71.117-59.402 3.17-117.09-18.009-172.8-38.865 7.026 7.832 15.759 13.922 24.644 19.557 43.089 27.33 91.87 45.641 142.3 53.415-31.859 0.579-63.078-8.087-93.762-16.681 25.76 14.52 53.784 25.015 82.745 30.988-17.661 0.046-35.036-4.072-52.215-8.167 12.627 6.963 26.357 11.921 40.519 14.631-21.742-0.443-42.764-7.371-63.401-14.231-30.808-10.24-62.828-21.214-85.692-44.262 4.078 7.655 11 13.753 19.108 16.834" style="fill:#fff"/></g></g><g clip-path="url(#clipPath56911)" style="opacity:.3"><g transform="translate(966.9 1527.5)"><path d="m0 0c24.944-3.407 50.009-6.841 74.109-14.117 27.666-8.353 53.798-21.758 76.721-39.356-43.246 28.799-88.876 58.472-140.62 63.231 36.331-0.025 72.654-5.357 107.46-15.776-25.12 20.14-60.125 35.356-92.143 38.739 13.52 4.031 21.761 3.817 45.624-3.004-9.534 4.829-33.257 13.018-43.715 15.221 3.973-0.404 32.451 0.763 66.047-14.508-24.433 16.798-60.799 32.155-66.81 34.741 11.755-0.014 62.61-18.707 104.8-47.103-35.669 32.79-80.036 53.356-127.32 63.901-23.655 5.276-52.805 2.803-76.658-1.488 22.344-5.19 44.164-12.633 65.022-22.18-15.299 3.367-31.464 2.717-46.442-1.869 15.802-1.637 31.359-5.619 46.004-11.778-23.637 0.704-49.288-9.699-70.007-21.096 49.63 6.872 100.86-0.33 101.55-4.581-76.473-1.787-91.872-29.031-103.08-25.579 0 0 56.168 9.783 79.456 6.602" style="fill:#fff"/></g></g><g transform="translate(444.39 1427.5)"><path d="m0 0s-181.15 148.7-239.18 150.23c-58.03 1.527-73.3-16.798-87.044-48.867s-19.852-65.665-19.852-65.665l22.906-7.636-22.906-12.216s-4.582-19.853-3.055-30.542c1.528-10.69 41.232-12.217 41.232-12.217s-33.596 1.527-38.177-16.798c-4.582-18.325 7.635-58.03 22.906-93.153s33.596-67.192 53.448-79.409 54.404-7.937 65.665-1.527c19.44 11.065 44.492 24.391 44.492 24.391s-24.052-18.577-15.991-28.251c5.33-6.396 21.194-15.129 24.52 0 10.66 48.506 93.58 93.959 119.54 98.54 25.96 4.581 57.838 85.326 31.496 123.12" style="fill:#cd010e"/></g><g clip-path="url(#clipPath56931)" style="opacity:.3"><g transform="translate(248.45 1214.3)"><path d="m0 0c14.818 14.822 20.215 38.989 23.723 59.201 4.795 27.621 4.071 43.684 15.349 68.064-3.346 10.036 52.413 15.984 52.413 15.984l-53.157 11.152s-8.098 26.266-6.949 48.731c0.249 4.871 0.258 34.163 0.258 34.163l35.686-7.434s-38.499 27.587-39.843 35.018c-7.889 43.61-30.149 79.354-71.173 98.3-0.165 0.076-0.237 0.197-0.383 0.283-57.31 1.32-72.533-16.965-86.207-48.872-13.744-32.069-19.852-65.664-19.852-65.664l22.906-7.636-22.906-12.217s-4.582-19.852-3.055-30.542 41.232-12.217 41.232-12.217-33.596 1.527-38.177-16.797c-4.582-18.326 7.635-58.03 22.906-93.153 15.271-35.124 33.596-67.192 53.448-79.409 19.853-12.217 54.404-7.937 65.665-1.527 2.628 1.495 5.359 3.032 8.116 4.572"/></g></g><g clip-path="url(#clipPath56947)" style="opacity:.2"><g transform="translate(272.83 1238.8)"><path d="m0 0c39.995 33.261 87.543 57.385 138 70.017 4.958 1.241 10.05 2.417 14.363 5.159 4.534 2.881 7.869 7.28 10.893 11.721 4.221 6.198 8.041 12.671 11.428 19.363 1.535 3.035 3.005 6.576 1.727 9.727-0.859 2.117-2.79 3.576-4.662 4.885-42.037 29.407-96.25 36.915-147.28 31.614 43.942-1.393 89.174-11.83 123.5-39.294-44.631 1.802-89.76-5.454-131.04-22.505 37.87 9.079 77.313 11.552 116.02 7.277-41.365-3.348-82.019-15.241-118.67-34.717 33.807 11.393 68.906 18.949 104.41 22.474-28.294-7.46-55.795-17.921-81.895-31.149-11.919-6.041-23.735-12.802-32.946-22.482 40.576 19.668 83.836 33.79 128.2 41.849-32.519-7.261-63.268-21.077-92.283-37.458-17.14-9.676-34.679-21.299-42.683-39.281"/></g></g><g clip-path="url(#clipPath56963)" style="opacity:.3"><g transform="translate(213.26 1572.6)"><path d="m0 0c16.43-6.098 29.922-18.582 39.816-33.047s16.489-30.907 22.295-47.442c1.476-4.203 2.925-8.464 5.281-12.245 2.677-4.298 6.422-7.81 10.121-11.269 9.46-8.843 18.92-17.687 28.38-26.531-11.15 3.107-22.3 6.215-33.45 9.322-2.69-21.143-3.771-42.49-3.23-63.797 0.098-3.883 0.336-8.022 2.627-11.159 3.357-4.595 9.775-5.402 15.45-5.817 26.526-1.939 53.053-3.878 79.579-5.817-28.377 13.234-58.866 21.924-89.956 25.641 9.708 4.2 20.443 5.343 31.007 5.862 39.983 1.965 80.355-4.396 117.8-18.559-29.285 22.174-62.093 39.686-96.814 51.674 13.921 1.292 28.224-1.91 40.266-9.014-11.235 15.662-27.427 27.712-45.656 33.977 6.718 0.577 13.613-1.141 19.274-4.804l-52.968 44.823c8.651-1.139 16.656-5.068 24.407-9.076 38.513-19.914 75.27-43.225 109.7-69.572-51.256 44.62-104.55 86.898-159.66 126.66-20.878 15.063-43.198 30.23-68.777 33.144" style="fill:#fff"/></g></g><g clip-path="url(#clipPath56979)" style="opacity:.3"><g transform="translate(285.26 1366.2)"><path d="m0 0c-20.14-4.415-40.517-8.912-58.965-18.12 35.879 5.316 72.071 10.646 108.28 8.437-16.488 3.073-32.976 6.145-49.464 9.217"/></g></g><g clip-path="url(#clipPath56995)" style="opacity:.3"><g transform="translate(310.94 1445.8)"><path d="m0 0c-11.222 9.668-20.907 19.195-33.168 27.416-1.819 1.219-3.915 3.372-2.737 5.217-1.626-2.767-4.972-3.917-8.04-4.856-11.943-3.655-23.886-7.309-35.828-10.963 11.715-0.104 52.27-10.136 53.893-10.524 8.27-1.974 27.151-5.429 26.257-6.599"/></g></g><g transform="translate(1254.3 1189.9)"><path d="m0 0c-21.312 19.79-44.128-16.548-44.272-16.777 2.474-47.705 5.55-94.992 11.505-147.45 35.683 16.986 49.565 71.447 49.565 84.815 0 13.744 4.582 59.557-16.798 79.409" style="fill:#fcb7a3"/></g><g transform="translate(1210 1173.1)"><path d="m0 0c1.527 189.36-125.6 288.62-159.2 305.42-33.597 16.798-132.23 34.606-149.27 24.433-23.67-14.126-62.611 3.054-62.611 3.054-386.36-3.054-380.25-368.03-380.25-368.03s-12.217 16.798-29.015 35.123-36.65 18.325-50.394 16.798-25.96-3.054-22.906-68.719 59.556-131.33 74.827-132.86 29.779 8.017 29.779 8.017-4.391-13.362 33.596-105.75c37.679-91.641 83.226-100.79 119.88-117.59 36.65-16.797 161.87-35.122 193.94-35.122s62.61-3.054 134.38 6.108c71.773 9.163 146.6 45.813 219.9 97.734 63.731 45.142 60.368 174.09 60.368 174.09-0.393 5.806-9.596 105.55-13.015 157.31z" style="fill:#fec2b1"/></g><g clip-path="url(#clipPath57019)" style="opacity:.2"><g transform="translate(730.72 1007.8)"><path d="m0 0c-8.282 3.525-92.036 11.721-117.72 17.743-18.814 4.411-42.899 14.067-61.329 3.032-13.307-7.968-16.708-24.084-15.848-38.527 1.831-30.773 21.384-63.964 50.466-75.946 1.055-0.434 43.641-14.535 121.26 43.332 13.61 10.145 52.026 38.085 23.167 50.366" style="fill:#fff"/></g></g><g clip-path="url(#clipPath57035)" style="opacity:.2"><g transform="translate(651.39 1309)"><path d="m0 0c-36.903-18.722-57.921-44.419-79.634-80.802-4.108-11.15 3.581-10.889 4.108-10.563 36.754 22.71 74.935 40.054 117.4 45.943 13.192 1.829 26.584 1.262 39.805 2.778 9.659 1.107 21.33 2.403 28.501 9.644 9.116 9.205 7.473 23.541-1.408 32.457-27.082 27.189-79.489 15.401-108.78 0.543" style="fill:#fff"/></g></g><g clip-path="url(#clipPath57051)" style="opacity:.2"><g transform="translate(1214.7 1126.1)"><path d="m0 0c2.761 18.844 10.038 47.342 32.177 43.669 13.281-2.204 26.342-35.479 23.158-58.635 0.301 0.274 0.682 0.489 1.078 0.692 0.239 15.139 3.921 58.747-16.821 78.007-4.088 3.796-8.229 5.502-12.258 5.817-15.302-2.828-26.931-18.027-28.913-33.338-0.746-5.766-3.783-9.579-3.051-3.732 1.032 8.257-3.876 19.962-0.379 27.519-3.27 137.5-74.4 225.49-122.81 266.91 32.635-44.652 45.307-104.02 49.827-157.81 0.245-2.915 4.374-6.803 2.042-5.248-23.26 15.51-84.964 42.99-113.11 37.795-50.19-9.265-40.156-60.165-14.149-58.365 24.227 1.676 89.657 5.399 122.56-44.604 28.1-42.698 60.612-105.98 23.22-151.66-32.639-39.878-84.71-36.759-130.8-46.819-21.664-4.729-23.375-32.889-6.584-49.473 51.451-50.816 113.06-37.477 113.06-37.477s-13.076-136.93-177.45-153.22c-21.329-2.115-29.413 20.981-51.59 20.324-32.327-0.958-66.78-43.84-47.086-47.585 10.989-2.09 85.306 1.006 111.62 4.258 69.837 8.633 168.61 50.724 214.69 104.47 28.009 41.355 34.341 97.383 35.513 129.3-1.126 0.717-4.361 126.43-3.954 129.21" style="fill:#fff"/></g></g><g clip-path="url(#clipPath57067)" style="opacity:.2"><g transform="translate(899.81 750.2)"><path d="m0 0c-66.653-5.847-131.52-3.746-195.43 17.493-54.009 17.95-112.12 42.618-148.65 88.24-35.279 44.053-59.273 162.78-32.096 213.26 8.215 15.257 31.825 23.611 40.491 17.018 53.988-41.078 104.86-50.457 169.46-50.583 86.988-0.17 91.766 86.337 92.389 111.48 2.291 92.389-59.385 119.83-93.152 116.82-117.65-10.473-138.56-54.384-162.83-53.311-32.381 1.431-13.763 156.38 7.629 207.74-113.26-117.36-118.91-280.41-118.91-280.41s-12.216 16.797-29.015 35.122c-16.797 18.326-36.65 18.326-50.393 16.798-13.745-1.526-25.961-3.053-22.907-68.719 3.054-65.664 59.556-131.33 74.828-132.86 15.271-1.527 29.778 8.017 29.778 8.017s-4.39-13.361 33.596-105.75c37.679-91.641 83.227-100.79 119.88-117.59 36.65-16.798 161.87-35.123 193.94-35.123s64.317-4.38 134.38 6.108c34.505 5.166 69.929 15.28 105.44 31.11-48.402-13.579-99.678-20.582-148.43-24.859" style="fill:#a1421d"/></g></g><g clip-path="url(#clipPath57083)" style="opacity:.2"><g transform="translate(998.16 1059)"><path d="m0 0c-35.685 26.347-45.87 75.921-33.214 150.7 4.458 26.346 28.514 50.492 54.975 54.212s53.18-4.814 76.988-16.948c13.622-6.943 84.884-63.224 61.214-155.61-1.849-7.217-113.85-44.442-146.51-36.363" style="fill:#a1421d"/></g></g><g transform="translate(454.89 1078.4)"><path d="m0 0s-44.286 96.97-73.301 86.281c0 0 34.36-11.453 73.301-86.281" style="fill:#ed766a"/></g><g transform="translate(436.38 1100.5)"><path d="m0 0s-30.924-3.436-20.043-32.069 36.65-22.333 40.659-12.025c0 0-5.727-16.608-22.334-12.026-16.607 4.581-49.249 55.548 1.718 56.12" style="fill:#ed766a"/></g><g clip-path="url(#clipPath57107)" style="opacity:.10001"><g transform="translate(451.84 1082.2)"><path d="m0 0s-11.453 12.98-15.271 15.271c-3.818 2.29-6.108 1.527-11.453 1.527s-11.453-5.345-14.508-10.69c-3.053-5.345 0-16.034 2.291-21.379s15.271-18.325 24.434-22.143c9.162-3.818 17.561 7.635 17.561 7.635s-12.98-19.088-26.724-21.379c-13.744-2.29-16.798 9.163-24.433 16.798-7.636 7.636-22.143 43.522-29.015 67.956-6.872 24.433-0.763 44.285 6.872 48.867 7.635 4.581 11.453-6.872 25.197-12.217s45.049-70.246 45.049-70.246"/></g></g><g clip-path="url(#clipPath57123)" style="opacity:.10001"><g transform="translate(1217.7 1094.4)"><path d="m0 0s4.82 47.626 11.978 57.362c7.975 10.846 12.026 16.177 17.8 15.939 2.777-0.115 12.217-3.818 12.217-26.724 0-22.907 3.818-42.759-3.818-55.739-7.635-12.981-19.088-21.38-25.197-16.798-6.108 4.581-5.583 19.47-5.583 19.47s16.588 4.041 20.091 9.544c3.674 5.775 4.39 9.831 3.388 15.081-0.906 4.743-0.709 8.664-7.158 10.164-6.156 1.432-6.872 0.286-13.601-1.145-5.01-1.066-9.354-22.572-10.117-27.154"/></g></g><g transform="translate(987.85 1063.1)"><path d="m0 0s-19.852 128.28 58.793 145.07 91.626-56.503 91.626-58.793c0-2.291 1.527-64.138 0-66.429-1.527-2.29-40.468-34.359-66.429-37.413-25.961-3.055-83.99 17.561-83.99 17.561" style="fill:#faf9f4"/></g><g transform="translate(1069.9 1200.7)"><path d="m0 0c-35.075-18.791-46.309-73.562-9.442-97.664 18.65-12.191 51.679-9.899 67.496 6.303 2.018 2.068 3.667 4.406 5.134 6.87-0.196 12.545-0.445 23.246-0.445 24.174 0 1.967-9.73 56.073-62.193 60.775-0.197-0.147-0.313-0.331-0.55-0.458" style="fill:#fff"/></g><g clip-path="url(#clipPath57147)" style="opacity:.050003"><g transform="translate(1104.6 1071.8)"><path d="m0 0c-24.434-9.291-63.179-22.167-86.325-3.189-22.901 18.778-14.334 60.968-6.276 84.927 6.793 20.195 17.873 40.359 35.36 54.739-0.245-0.051-0.474-0.079-0.72-0.132-78.645-16.798-58.793-145.07-58.793-145.07s58.03-20.615 83.99-17.561c25.961 3.054 64.902 35.123 66.429 37.414 0.261 0.391 0.428 2.615 0.533 5.893-10.656-7.15-22.745-12.662-34.198-17.017"/></g></g></g><g clip-path="url(#clipPath57163)"><g transform="translate(1121.1 1123.7)"><path d="m0 0c0-36.313-29.438-65.751-65.751-65.751-36.314 0-65.751 29.438-65.751 65.751s29.437 65.751 65.751 65.751c36.313 0 65.751-29.438 65.751-65.751" style="fill:#478f1c"/></g><g transform="translate(1095.7 1123.7)"><path d="m0 0c0-22.263-18.048-40.311-40.312-40.311-22.263 0-40.311 18.048-40.311 40.311 0 22.264 18.048 40.312 40.311 40.312 22.264 0 40.312-18.048 40.312-40.312" style="fill:#091a00"/></g><g clip-path="url(#clipPath57179)" style="opacity:.10001"><g transform="translate(1139.8 1153.5)"><path d="m0 0c0-24.167-19.591-43.757-43.757-43.757-24.167 0-43.758 19.59-43.758 43.757 0 24.166 19.591 43.757 43.758 43.757 24.166 0 43.757-19.591 43.757-43.757" style="fill:#fff"/></g></g><g transform="translate(1128.9 1159)"><path d="m0 0c0-13.401-10.864-24.265-24.265-24.265-13.402 0-24.266 10.864-24.266 24.265s10.864 24.265 24.266 24.265c13.401 0 24.265-10.864 24.265-24.265" style="fill:#fff"/></g><g transform="translate(1088.3 1136.3)"><path d="m0 0c0-6.5-5.269-11.769-11.768-11.769-6.5 0-11.769 5.269-11.769 11.769s5.269 11.769 11.769 11.769c6.499 0 11.768-5.269 11.768-11.769" style="fill:#fff"/></g></g><g clip-path="url(#clipPath57203)"><g transform="translate(987.85 1063.1)"><path d="m0 0s-16.035 129.04 74.446 142.78c90.48 13.744 75.973-122.93 75.973-122.93l7.635 8.399s17.579 147.84-83.608 137.44c-122.55-12.599-74.446-165.69-74.446-165.69" style="fill:#f28276"/></g><g transform="translate(1062.3 1205.9)"><path d="m0 0s38.559 7.349 62.993-30.065c0 0 10.689-7.254 22.906-2.29 12.217 4.963 15.748 18.325 15.748 18.325s-16.511-12.312-27.201-8.113c0 0 12.885 2.386 17.18 13.553 0 0-17.944-10.499-29.779-4.009-11.834 6.491-32.069 20.616-61.847 12.599" style="fill:#4a4a48"/></g><g transform="translate(987.85 1063.1)"><path d="m0 0s47.626-19.28 83.895-13.553c36.268 5.727 66.524 33.405 66.524 33.405s13.362 4.963 20.806-7.062c0 0-14.221 7.349-19.184 3.149 0 0 10.881 0.287 14.603-9.735 0 0-16.616 7.619-19.279 4.486-6.49-7.636-35.651-28.322-64.138-31.306-28.252-2.958-45.813-1.145-83.227 20.616" style="fill:#4a4a48"/></g><g transform="translate(802.17 1064.4)"><path d="m0 0s19.74 129.32-72.203 141.78c-91.943 12.45-105.13-61.54-105.07-63.83s-0.097-64.199 1.739-66.404c1.837-2.206 47.984-32.114 78.269-33.733 30.285-1.621 97.262 22.191 97.262 22.191" style="fill:#faf9f4"/></g><g clip-path="url(#clipPath57227)" style="opacity:.89999"><g transform="translate(718.98 1197.8)"><path d="m0 0c-11.766-8.251-20.075-25.876-24.289-36.287-7.26-17.935-11.751-42.528 2.618-58.35 16.661-18.344 51.15-19.377 74.212-14.042 13.44 3.11 25.538 8.882 35.701 16.936-0.431 32.176-9.798 83.901-64.541 90.889-8.738 1.116-16.519 1.257-23.701 0.854" style="fill:#fff"/></g></g><g clip-path="url(#clipPath57243)" style="opacity:.050003"><g transform="translate(752.44 1063.9)"><path d="m0 0c-29.401-4.042-70.792 1.457-86.96 29.856-14.351 25.207-5.972 58.853 5.605 83.493 4.196 8.93 9.952 19.593 17.296 28.274-54.483-10.826-63.528-61.222-63.479-63.107 0.06-2.29-0.097-64.199 1.74-66.404 1.836-2.206 47.983-32.114 78.268-33.734s97.263 22.192 97.263 22.192 1.184 7.814 1.619 19.753c-14.884-10.73-32.435-17.722-51.352-20.323"/></g></g></g><g clip-path="url(#clipPath57259)"><g transform="translate(783.21 1121.5)"><path d="m0 0c0-36.313-29.438-65.751-65.751-65.751s-65.751 29.438-65.751 65.751 29.438 65.751 65.751 65.751 65.751-29.438 65.751-65.751" style="fill:#478f1c"/></g><g transform="translate(757.77 1121.5)"><path d="m0 0c0-22.263-18.048-40.312-40.312-40.312-22.263 0-40.311 18.049-40.311 40.312s18.048 40.312 40.311 40.312c22.264 0 40.312-18.049 40.312-40.312" style="fill:#091a00"/></g><g clip-path="url(#clipPath57275)" style="opacity:.10001"><g transform="translate(801.92 1151.2)"><path d="m0 0c0-24.167-19.591-43.757-43.757-43.757s-43.757 19.59-43.757 43.757 19.591 43.757 43.757 43.757 43.757-19.59 43.757-43.757" style="fill:#fff"/></g></g><g transform="translate(791.03 1156.7)"><path d="m0 0c0-13.401-10.864-24.265-24.265-24.265-13.402 0-24.265 10.864-24.265 24.265s10.863 24.265 24.265 24.265c13.401 0 24.265-10.864 24.265-24.265" style="fill:#fff"/></g><g transform="translate(750.36 1134)"><path d="m0 0c0-6.499-5.269-11.768-11.769-11.768-6.499 0-11.768 5.269-11.768 11.768 0 6.5 5.269 11.769 11.768 11.769 6.5 0 11.769-5.269 11.769-11.769" style="fill:#fff"/></g></g><g clip-path="url(#clipPath57299)"><g transform="translate(802.17 1064.4)"><path d="m0 0s-54.908-21.902-97.256-18.179c-42.348 3.722-78.275 29.721-78.275 29.721s-15.676 4.223-24.023-8.209c0 0 16.353 8.131 22.238 4.207 0 0-12.667-0.314-16.736-10.537 0 0 19.134 8.533 22.315 5.548 7.751-7.274 42.22-26.344 75.443-27.753 32.948-1.399 53.333 1.384 96.294 25.202" style="fill:#4a4a48"/></g><g transform="translate(802.17 1064.4)"><path d="m0 0s15.278 129.88-90.355 138.62c-105.63 8.744-85.176-127.08-85.176-127.08l-9.103 7.974s-24.324 146.82 93.679 142c142.92-5.829 90.955-161.52 90.955-161.52" style="fill:#f28276"/></g><g transform="translate(711.81 1203.1)"><path d="m0 0s-45.056 5.218-72.504-33.531c0 0-12.248-7.841-26.592-3.554-14.344 4.286-18.802 17.449-18.802 17.449s19.533-11.396 31.86-6.608c0 0-15.053 1.674-20.343 12.599 0 0 21.152-9.504 34.752-2.363s36.772 22.379 71.629 16.008" style="fill:#4a4a48"/></g><g transform="translate(623.83 1270.8)"><path d="m0 0s58.562 24.441 88.228 25.867c0 0 8.915 14.177-6.622 15.238s-50.225-1.372-81.606-41.105" style="fill:#4a4a48"/></g><g transform="translate(1035.7 1298.1)"><path d="m0 0s63.342-15.011 82.336-19.72c0 0-29.168 32.988-78.159 35.848-17.197 1.003-12.571-14.571-4.177-16.128" style="fill:#4a4a48"/></g><g transform="translate(590.8 1014.1)"><path d="m0 0c0-3.479-5.128-6.299-11.453-6.299-6.326 0-11.453 2.82-11.453 6.299s5.127 6.299 11.453 6.299c6.325 0 11.453-2.82 11.453-6.299" style="fill:#ed766a"/></g><g transform="translate(1126.7 997.55)"><path d="m0 0c0.552-3.435-4.064-7.032-10.309-8.035-6.246-1.003-11.756 0.968-12.307 4.403-0.552 3.435 4.064 7.033 10.309 8.036 6.246 1.002 11.756-0.969 12.307-4.404" style="fill:#ed766a"/></g><g transform="translate(1104.3 961.64)"><path d="m0 0c0.894-3.362-3.336-7.406-9.449-9.032s-11.793-0.219-12.687 3.143c-0.895 3.362 3.335 7.406 9.448 9.032s11.794 0.219 12.688-3.143" style="fill:#ed766a"/></g><g transform="translate(1078.7 995.73)"><path d="m0 0c0-3.479-3.504-6.299-7.826-6.299-4.323 0-7.826 2.82-7.826 6.299s3.503 6.299 7.826 6.299c4.322 0 7.826-2.82 7.826-6.299" style="fill:#ed766a"/></g><g transform="translate(1158.6 974.21)"><path d="m0 0c1.466-3.155-1.997-7.873-7.734-10.538-5.737-2.664-11.576-2.266-13.041 0.889s1.997 7.873 7.734 10.538c5.737 2.664 11.576 2.266 13.041-0.889" style="fill:#ed766a"/></g><g transform="translate(1038 990.41)"><path d="m0 0c0.21-3.473-4.737-6.598-11.051-6.98s-11.603 2.123-11.813 5.596c-0.211 3.472 4.737 6.597 11.051 6.98 6.314 0.382 11.603-2.123 11.813-5.596" style="fill:#ed766a"/></g><g transform="translate(634.08 956.73)"><path d="m0 0c-1.327 3.216 2.338 7.779 8.186 10.191 5.847 2.412 11.663 1.76 12.989-1.456 1.327-3.216-2.338-7.779-8.185-10.191-5.848-2.412-11.664-1.76-12.99 1.456" style="fill:#ed766a"/></g><g transform="translate(640.42 999.41)"><path d="m0 0c-1.327 3.216 2.338 7.779 8.186 10.191 5.847 2.412 11.663 1.76 12.989-1.456 1.327-3.216-2.338-7.779-8.185-10.191-5.848-2.412-11.664-1.76-12.99 1.456" style="fill:#ed766a"/></g><g transform="translate(678.54 975.07)"><path d="m0 0c-1.327 3.216 0.837 7.159 4.833 8.808 3.995 1.648 8.31 0.377 9.637-2.839s-0.837-7.159-4.833-8.808c-3.996-1.648-8.31-0.377-9.637 2.839" style="fill:#ed766a"/></g><g transform="translate(596.64 983.41)"><path d="m0 0c-1.326 3.216 2.338 7.778 8.186 10.191 5.847 2.412 11.663 1.76 12.99-1.456 1.326-3.216-2.339-7.779-8.186-10.191-5.848-2.412-11.663-1.76-12.99 1.456" style="fill:#ed766a"/></g><g transform="translate(557.66 960.5)"><path d="m0 0c-2.649 2.255-1.473 7.988 2.626 12.804 4.1 4.817 9.572 6.894 12.221 4.639 2.649-2.254 1.473-7.987-2.627-12.804s-9.571-6.894-12.22-4.639" style="fill:#ed766a"/></g><g transform="translate(713.22 1002.9)"><path d="m0 0c0.72 3.404 6.321 5.101 12.509 3.791 6.189-1.31 10.621-5.132 9.901-8.535-0.721-3.404-6.321-5.101-12.51-3.791-6.188 1.31-10.621 5.131-9.9 8.535" style="fill:#ed766a"/></g><g transform="translate(815.29 894.75)"><path d="m0 0s13.453-37.392 30.542-52.494c24.625-21.761 57.504-17.818 72.728-12.599 13.362 4.582 29.778 26.343 48.103 62.42l19.184 9.449s-50.094-18.962-87.044-16.893c-35.791 2.004-73.014 7.826-83.513 10.117" style="fill:#ed766a"/></g><g transform="translate(947.61 885.57)"><path d="m0 0c-4.851-7.181-12.644-12.373-23.105-13.19-2.936-0.884-6.121-1.417-9.618-1.417-4.268 0-7.922 0.826-11.177 2.095-0.62-0.032-1.165-0.186-1.803-0.186-1.059 0-1.947 0.227-2.941 0.313-3.221-1.093-6.693-1.84-10.612-1.84-5.821 0-10.655 1.352-14.585 3.617-0.628-0.033-1.185-0.181-1.831-0.181-3.169 0-5.981 0.471-8.577 1.199-8.82 1.136-15.032 5.552-18.776 11.626l-14.217 0.464s14.03-39.513 74.16-39.513c0 0 35.887 3.149 49.344 37.795z" style="fill:#784037"/></g><g transform="translate(828.08 890.55)"><path d="m0 0s22.61-35.859 99.452-22.715c14.507 2.481 29.396 21.188 29.396 21.188s-2.481-3.818-42.567-6.872c-23.243-1.771-52.208 2.673-86.281 8.399" style="fill:#fcfbf7"/></g><g transform="translate(821.01 906.9)"><path d="m0 0s-13.089-15.437-15.353-29.068c0 0-3.45 15.11 15.353 29.068" style="fill:#ed766a"/></g><g transform="translate(971.43 909.83)"><path d="m0 0s15.844-8.781 21.952-16.989c0 0-4.772 12.789-21.952 16.989" style="fill:#ed766a"/></g><g transform="translate(815.29 894.75)"><path d="m0 0s51.462 8.112 69.769 11.644c24.243 4.677 69.006 1.527 76.45-7.063 7.445-8.59-5.917-8.781-13.171-11.071-23.097-7.294-62.338-2.884-85.899-1.337-26.152 1.719-47.149 7.827-47.149 7.827" style="fill:#ed766a"/></g><g clip-path="url(#clipPath57399)" style="opacity:.2"><g transform="translate(894.6 907.38)"><path d="m0 0s9.844 0.23 15.193 0.23c9.898 0 11.621-0.037 15.383 0.12 6.872 0.286 23.812-2.321 24.671-5.184s-1.87-4.641-10.819-2.993c-8.747 1.612-8.287 0.921-20.027 3.913-11.43 2.914-24.401 3.914-24.401 3.914" style="fill:#fff"/></g></g><g clip-path="url(#clipPath57415)" style="opacity:.2"><g transform="translate(815.19 893.8)"><path d="m0 0c0.859 0 20.043-4.582 26.629-6.013 6.586-1.432 30.351-5.154 37.509-5.154s31.115-0.668 35.028-0.477 28.251 1.908 31.973 3.054c3.723 1.145 13.076 4.39 14.412 5.345 1.336 0.954 2.482 2.386 2.768 3.817 0.286 1.432-2.577 5.154-7.444 4.868-4.868-0.286-21.189-7.731-33.215-8.876-12.026-1.146-30.637-4.295-38.941-3.436-8.303 0.859-43.235 4.581-49.248 5.44s-19.471 1.432-19.471 1.432"/></g></g><g clip-path="url(#clipPath57431)" style="opacity:.2"><g transform="translate(824.07 887.5)"><path d="m0 0s12.981-28.251 24.052-37.795c11.071-9.545 24.242-17.18 33.023-18.326 8.781-1.145 26.243-4.259 35.787 0.322 9.545 4.582 23.7 16.519 21.409 20.718-1.097 2.011-5.632 1.401-11.74-2.417-6.108-3.817-11.096-10.224-24.458-10.605-13.362-0.382-26.863 1.089-35.314 4.963-9.163 4.199-19.275 11.364-26.724 20.615-7.302 9.068-16.035 22.525-16.035 22.525" style="fill:#fff"/></g></g><g clip-path="url(#clipPath57447)" style="opacity:.2"><g transform="translate(971.43 909.83)"><path d="m0 0c3.245-2.004 11.549-4.008 16.989-10.88s4.868-10.308 6.872-12.313c2.004-2.004 5.727-4.867 6.013 2.864 0.286 7.73-2.004 24.911-11.453 28.633s-21.666-6.3-18.421-8.304" style="fill:#fff"/></g></g><g clip-path="url(#clipPath57463)" style="opacity:.2"><g transform="translate(806.32 878.91)"><path d="m0 0s-1.718 6.013 3.436 15.462 7.445 9.449 10.022 11.167 8.303 6.585 5.154 8.876c-3.15 2.291-10.404 2.481-15.367 0.955-10.899-3.354-17.11-4.367-17.943-16.035-0.764-10.69 2.386-16.416 2.672-17.18 3.207-8.549 11.167-9.258 12.026-3.245" style="fill:#fff"/></g></g><g clip-path="url(#clipPath57479)" style="opacity:.2"><g transform="translate(824.83 891.7)"><path d="m0 0c1.527 0.382 56.502-16.798 74.446-16.035 17.943 0.764 42.845 7.972 45.696 5.907 2.737-1.983 0.862-3.773 0.862-3.773l11.965 11.318s-36.38-8.298-59.668-7.152c-23.289 1.145-73.301 9.735-73.301 9.735"/></g></g><g clip-path="url(#clipPath57495)" style="opacity:.3"><g transform="translate(933.87 847.3)"><path d="m0 0c-0.25-1.512-1.68-2.534-3.194-2.283-1.515 0.25-2.54 1.678-2.29 3.19 0.25 1.511 1.68 2.534 3.195 2.283 1.514-0.25 2.539-1.678 2.289-3.19" style="fill:#fff"/></g></g><g clip-path="url(#clipPath57511)" style="opacity:.3"><g transform="translate(928.64 843.79)"><path d="m0 0c0.694-1.719-1.596-4.265-5.115-5.686s-6.935-1.18-7.629 0.539c-0.694 1.72 1.596 4.265 5.115 5.686 3.519 1.422 6.935 1.18 7.629-0.539" style="fill:#fff"/></g></g><g clip-path="url(#clipPath57527)" style="opacity:.2"><g transform="translate(845.83 842.26)"><path d="m0 0s6.586-19.757 36.65-23.479c30.065-3.722 46.531 4.9 48.104 6.49 12.741 12.885 11.739 26.151 11.739 26.151s-13.171-16.75-18.611-19.184c-5.208-2.329-17.896-5.726-24.338-6.442-4.554-0.506-24.338 0.429-33.501 4.438-9.162 4.009-20.043 12.026-20.043 12.026"/></g></g><g clip-path="url(#clipPath57543)" style="opacity:.3"><g transform="translate(941.19 1061.4)"><path d="m0 0c-13.755 29.272-16.32 68.569-35.012 71.391-21.633 3.265-52.195-86.731-35.524-97.137 23.572-14.713 87.694-19.377 73.835 23.194-0.556 1.708-4.215 1.573-3.299 2.552" style="fill:#fff"/></g></g><g transform="translate(864.44 1054.4)"><path d="m0 0s48.39 48.676 83.895-4.581c0 0-30.351 67.573-83.895 4.581" style="fill:#ed766a"/></g><g transform="translate(849.87 1021.7)"><path d="m0 0s21.167 9.896 24.001-5.387c2.71-14.621 1.548-3.026-24.001 5.387" style="fill:#ed766a"/></g><g transform="translate(939.32 1011.8)"><path d="m0 0c-5.727 0.859-0.859 6.586 2.72 10.308 2.384 2.479 3.913 1.145 16.035-3.722 0 0-13.029-7.445-18.755-6.586" style="fill:#ed766a"/></g><g clip-path="url(#clipPath57571)" style="opacity:.10001"><g transform="translate(874.53 1063.1)"><path d="m0 0c-6.132-6.658-10.028-16.95-5.391-24.724 3.785-6.345 11.753-8.678 19.056-9.795 21.043-3.218 42.936-0.686 62.69 7.25 6.274-2.017 13.043-12.408 9.189-17.755-3.853-5.347-26.947-13.641-33.357-15.175-50.251-12.026-71.879 7.218-75.162 12.025-4.618 6.762-4.335 15.652-1.145 23.193 0 0 2.577 6.299 8.017 12.026 5.441 5.727 16.103 12.955 16.103 12.955"/></g></g><g clip-path="url(#clipPath57587)" style="opacity:.3"><g transform="translate(870.38 1057.8)"><path d="m0 0c8.419 10.885 22.042 17.549 35.803 17.513 6.952-0.018 13.81-1.643 20.418-3.802 5.369-1.755 29.653-23.36 17.438-26.828-6.907-1.962-15.462 1.431-23.766 10.594-10.096 11.141-43.308 5.51-49.821-0.573" style="fill:#fff"/></g></g><g clip-path="url(#clipPath57603)" style="opacity:.10001"><g transform="translate(850.37 1038.5)"><path d="m0 0c-2.184-9.38-2.864-20.126 1.906-28.492 4.771-8.367 15.774-20.465 29.736-22.248 43.278-5.526 76.063 25.254 78.16 30.636-5.095-2.926-9.544 7.411-15.328 6.382-2.887-0.514-3.516-4.951-6.318-5.814-51.992-16.008-65.214 5.01-68.156 5.845-3.7 1.049-10.376 0.243-14.197-0.18-4.183-0.463-4.702 0.346-5.94 4.368"/></g></g></g></g></g></svg>
