<?xml version="1.0" encoding="UTF-8"?>
<svg width="357.26mm" height="709.41mm" version="1.1" viewBox="0 0 357.26 709.41" xmlns="http://www.w3.org/2000/svg"><defs><clipPath id="clipPath294234"><path d="M 0,2170 H 1373.28 V 0 H 0 Z"/></clipPath><clipPath id="clipPath294254"><path d="m980.37 246.1h212.2v-169.07h-212.2z"/></clipPath><clipPath id="clipPath294270"><path d="m992.31 206.45h135.44v-90.719h-135.44z"/></clipPath><clipPath id="clipPath294298"><path d="m229.44 287.8h148.74v-192.42h-148.74z"/></clipPath><clipPath id="clipPath294314"><path d="m237.87 238.78h74.73v-104.75h-74.73z"/></clipPath><clipPath id="clipPath294338"><path d="m250.34 999.77h883.62v-789.28h-883.62z"/></clipPath><clipPath id="clipPath294354"><path d="m469.7 1072.7h508.3v-381.77h-508.3z"/></clipPath><clipPath id="clipPath294374"><path d="m732 1599.9h196.34v-273.64h-196.34z"/></clipPath><clipPath id="clipPath294390"><path d="m540.2 1689h396.39v-532.12h-396.39z"/></clipPath><clipPath id="clipPath294406"><path d="m563.18 1749h487.67v-647.07h-487.67z"/></clipPath><clipPath id="clipPath294434"><path d="m206.18 1104.9h27.07v-20.95h-27.07z"/></clipPath><clipPath id="clipPath294450"><path d="m226.43 1094.4h79.145v-47.74h-79.145z"/></clipPath><clipPath id="clipPath294470"><path d="m313.47 1165.6h21.864v-46.69h-21.864z"/></clipPath><clipPath id="clipPath294486"><path d="m312.55 1108.4h5.343v-17.68h-5.343z"/></clipPath><clipPath id="clipPath294502"><path d="m262.23 1411.5h255.09v-253.33h-255.09z"/></clipPath><clipPath id="clipPath294518"><path d="m313.25 1452.3h287.41v-361.59h-287.41z"/></clipPath><clipPath id="clipPath294534"><path d="m222.54 1153.6h87.942v-26.34h-87.942z"/></clipPath><clipPath id="clipPath294554"><path d="m742.77 1897.1h81.399v-195.6h-81.399z"/></clipPath><clipPath id="clipPath294570"><path d="m761.81 1897.1h141.27v-253.78h-141.27z"/></clipPath><clipPath id="clipPath294594"><path d="m1052.9 1704.6h46.41v-215.46h-46.41z"/></clipPath><clipPath id="clipPath294610"><path d="m1111.8 1697.6h33.11v-47.68h-33.11z"/></clipPath><clipPath id="clipPath294626"><path d="m962.38 1778.1h201.89v-377.75h-201.89z"/></clipPath><clipPath id="clipPath294650"><path d="m919.36 1973.8h74.509v-139.75h-74.509z"/></clipPath><clipPath id="clipPath294666"><path d="m919.36 1973.8h74.509v-139.75h-74.509z"/></clipPath><clipPath id="clipPath294686"><path d="m761.24 2030.8h106.46v-257.71h-106.46z"/></clipPath><clipPath id="clipPath294702"><path d="m835.53 2058.4h121.01v-299.45h-121.01z"/></clipPath><clipPath id="clipPath294726"><path d="m795.96 1962.8h64.01v-22.27h-64.01z"/></clipPath><clipPath id="clipPath294746"><path d="m893.17 1980.2h41.951v-28.58h-41.951z"/></clipPath><clipPath id="clipPath294774"><path d="m884.27 1804.1h55.749v-69.84h-55.749z"/></clipPath><clipPath id="clipPath294794"><path d="m699.7 1905.7h75.449v-131.81h-75.449z"/></clipPath><clipPath id="clipPath294810"><path d="m677.24 2074.9h305.47v-301.02h-305.47z"/></clipPath><clipPath id="clipPath294826"><path d="m688.26 2056.1h252.65v-308.87h-252.65z"/></clipPath><clipPath id="clipPath294846"><path d="m736.19 2077.8h151.37v-253.82h-151.37z"/></clipPath><clipPath id="clipPath294862"><path d="m727.3 2022.5h16.861v-85.08h-16.861z"/></clipPath><clipPath id="clipPath294878"><path d="m731.14 1908h52.338v-66.78h-52.338z"/></clipPath><clipPath id="clipPath294902"><path d="m876.24 1910h30v-50.47h-30z"/></clipPath><clipPath id="clipPath294926"><path d="m857.82 1844h76.764v-32.59h-76.764z"/></clipPath></defs><g transform="translate(270.1 335.9)"><g transform="matrix(.35278 0 0 -.35278 -333.55 400.69)"><g clip-path="url(#clipPath294234)"><g transform="translate(985.66 238.73)"><path d="m0 0s-12.495-58.093-5.553-68.608c6.941-10.516 22.213-29.949 29.154-27.174 6.942 2.775 15.272 12.493 24.99 6.94 9.718-5.554 14.817-40.261 34.48-49.979s55.759-26.378 76.584-22.213 48.591 9.718 47.202 26.378c-1.388 16.659-2.776 33.526-31.931 66.048-29.154 32.521-65.25 75.986-65.25 75.986z" style="fill:#778b00"/></g><g transform="translate(1036.8 225.24)"><path d="m0 0c19.333-15.585 39.93-31.592 48.404-54.261 0.168-0.164 0.32-0.34 0.493-0.502 2.741-2.564 1.585-2.615 5.135-0.39 6.177 3.874 10.652 8.153 17.632 10.881 8.481 3.315 17.286 4.782 26.348 5.163 4.081 0.172 8.091-0.02 12.033-0.504-25.638 29.302-51.532 60.481-51.532 60.481l-76.64-5.156c6.212-5.052 12.268-10.277 18.127-15.712" style="fill:#bec439"/></g><g transform="translate(1191.9 110.84)"><path d="m0 0c-3.407-3.229-7.607-6-12.702-8.127-17.893-7.47-39.095-6.982-57.88-3.702-27.285 4.765-43.509 22.129-60.584 42.579-8.133 9.742-15.858 17.699-27.729 22.505-9.655 3.908-19.85 6.345-29.565 10.106-10.39 4.023-18.979 9.575-25.069 16.992-0.697-9.569-0.459-17.73 1.748-21.074 6.942-10.516 22.213-29.949 29.155-27.174 6.941 2.775 15.271 12.493 24.989 6.94s14.818-40.261 34.481-49.979 55.759-26.378 76.583-22.213c20.825 4.165 48.591 9.718 47.203 26.378-0.187 2.24-0.376 4.484-0.63 6.769" style="fill:#bec439"/></g><g clip-path="url(#clipPath294254)" style="opacity:.2"><g transform="translate(1192.5 104.07)"><path d="m0 0c-1.388 16.66-2.777 33.526-31.931 66.048s-65.25 75.986-65.25 75.986l-109.68-7.378s-3.042-14.153-5.291-29.75c23.155 3.112 46.094 7.737 69.189 11.025 8.564 2.926 18.059 3.049 27.48 3.071 6.291 0.476 12.601 0.791 18.944 0.845 6.128 0.052 5.798-8.439 0.095-9.236-5.283-0.737-10.957-0.715-16.701-0.677-6.975-0.479-13.923-1.178-20.851-2.045 0.463-0.403 0.929-0.829 1.398-1.284 1.749-0.929 3.531-1.638 5.346-2.136 8.722 1.832 19.049 0.331 27.635 0.957 1.49 0.204 2.98 0.394 4.467 0.538 5.167 0.501 6.425-8.252 1.32-9.056-0.38-0.059-0.814-0.092-1.232-0.133 2e-3 -0.015 4e-3 -0.031 6e-3 -0.046-10.235-0.993-19.685-2.867-28.73-1.968 0.774-1.522 1.611-2.997 2.506-4.436 3.37-1.8 7.569-2.022 11.905-1.571 3.98 1.013 8.194 1.597 12.016 2.258 1.582 0.349 3.09 0.668 4.454 0.889 5.709 0.923 8.449-7.453 2.545-8.876-0.748-0.18-1.699-0.339-2.781-0.495-4.813-0.912-10.15-2.15-15.433-2.722-2.349-0.746-4.37-1.721-5.672-3.046 1.209-1.101 2.371-2.248 3.537-3.396 1.101 0.722 2.239 1.339 3.447 1.876 0.69 1.23 1.949 2.157 3.782 2.262 13.119 0.744 23.466 5.571 35.736-1.375 9.516-5.387 17.537-13.938 23.399-23.086 10.166-15.865 13.595-36.15-3.14-48.764-14.364-10.828-36.952-14.114-54.512-12.368-11.194 1.114-21.029 6.465-31.029 11.214 2.69-3.017 5.728-5.556 9.236-7.29 19.663-9.718 55.759-26.378 76.584-22.213 20.824 4.165 48.59 9.718 47.202 26.378"/></g></g><g clip-path="url(#clipPath294270)" style="opacity:.2"><g transform="translate(998.85 204.37)"><path d="m0 0c-0.584-4.43 8.7-4.766 11.309-5.2 10.689-1.774 21.616-1.943 31.64-6.285-0.147-3.563-2.087-6.297-1.481-9.81 0.614-3.553 3.172-5.366 6.355-6.86 3.673-1.724 8.253-2.656 11.498-5.207 3.209-2.523 4.139-6.47 6.28-9.731 1.491-2.271 1.943-3.332 4.608-3.694 2.192-0.111 4.188 0.601 5.989 2.134 2.34 0.859 4.68 1.718 7.02 2.578 6.681 1.861 14.087 2.074 20.955 2.648 8.174 0.682 16.589 1.539 24.732 0.208-2.506-2.124-5.425-3.489-8.046-5.44-6.589-4.903-11.903-11.731-13.988-19.673-1.541-2.573-1.492-5.062 0.148-7.466 0.435-2.5 1.713-4.454 3.836-5.861 1.568-1.514 3.092-3.072 4.571-4.673 1.944-1.153 2.663-2.838 2.158-5.052-11.159-4.436-22.534 3.791-31.095 10.355-7.881 6.041-15.291 13.174-22.878 19.615-6.673 5.666-12.694 12.058-20.037 16.879-7.561 4.964-15.383 10.431-23.628 14.193-6.932 3.163-28.224 6.951-26.372 18.713 0.51 3.234 6.484 8.265 9.747 7.232-3.011 1.989-5.853 4.204-3.321 0.397" style="fill:#fff"/></g></g><g transform="translate(283 259.31)"><path d="m0 0c-2.465-4.66-34.565-55.446-38.578-68.143-4.012-12.697-20.063-43.168-13.375-58.404s41.043-31.742 51.953-31.742 50.473-12.696 63.461 0c12.987 12.697 17 34.281 17 38.09s-4.776 61.762 0 72.032c4.776 10.271 14.713 29.532 14.713 29.532l-54.774 47.121z" style="fill:#778b00"/></g><g transform="translate(305.06 178.57)"><path d="m0 0c10.823-1.854 22.43-2.633 32.878-6.271 5.04 6.922 7.786 15.94 10.128 23.638 3.003 9.869 5.374 20.141 6.104 30.448-0.204 1.741-0.456 3.462-0.82 5.132-4.062 18.687-22.374 27.693-40.812 30.064-1.531-2.355-3.04-4.721-4.517-7.104-2.184-4.954-5.234-9.706-7.788-14.122-2.208-3.818-4.567-7.616-6.881-11.447-1.925-3.61-3.805-7.242-5.663-10.886-3.643-7.563-7.007-15.254-10.143-23.052-0.294-12.736 17.311-14.653 27.514-16.4" style="fill:#bec439"/></g><g transform="translate(282.71 121.24)"><path d="m0 0c-20.754 5.49-42.983 17.535-50.565 36.546-2.678-9.402-3.925-18.577-1.096-25.024 6.688-15.236 41.043-31.741 51.953-31.741 10.911 0 50.474-12.697 63.461 0 6.653 6.504 10.939 15.33 13.549 22.915-22.256-11.629-54.555-8.714-77.302-2.696" style="fill:#bec439"/></g><g clip-path="url(#clipPath294298)" style="opacity:.2"><g transform="translate(378.18 240.68)"><path d="m0 0-54.774 47.121-40.4-28.486c-0.917-1.735-5.945-9.867-12.099-20.042 2.22 0.998 4.472 1.938 6.778 2.752 5.778 3.067 11.746 5.601 18.65 5.784 14.467 0.383 27.878-7.092 41.481-10.647 5.479-1.526 3.346-9.632-2.198-8.183-12.403 3.454-24.96 6.211-37.694 8.263-0.917-1.916-1.921-3.781-3.018-5.635 12.317-4.692 25.837-6.031 38.898-8.411 4.267-0.777 4.396-7.271 0.127-8.15-1.453-0.299-2.948-0.514-4.458-0.691-0.515-0.602-1.244-1.054-2.23-1.214-7.398-1.198-14.134 0.103-21.279 2.051-6.329 1.724-14.415 5.143-19.768 2.04-0.43-0.909-0.867-1.816-1.334-2.711 1.212-0.526 2.446-1.01 3.679-1.495 12.397-2.589 24.913-4.675 37.238-7.605 4.862-1.156 4.019-8.421-1.054-8.315-13.288 0.278-26.485 3.087-38.818 7.827-1.24 0.261-2.479 0.525-3.716 0.797-6e-3 -0.122 3e-3 -0.242-0.014-0.366-0.012-0.322-0.023-0.644-0.035-0.967 0.263-1.689-0.427-3.084-1.512-4.03 10.351-6.891 32.223-8.687 39.991-8.781 5.786-0.07 5.747-7.987 0.091-8.446-14.189-1.152-29.765-0.276-42.692 5.861 3.662-10.352 27.267-14.271 35.399-17.362 10.684-4.062 20.335-11.391 25.569-21.305 8.452-16.007-1.82-31.04-17.391-38.211-18.549-8.541-37.866-5.94-55.887 2.281-13.576 6.194-28.115 15.714-36.243 28.435-0.128-3.754 0.32-7.186 1.586-10.071 6.688-15.236 41.043-31.741 51.953-31.741 10.911 0 50.474-12.697 63.461 0 12.988 12.696 17 34.28 17 38.089s-4.775 61.762 0 72.032c4.776 10.271 14.713 29.532 14.713 29.532"/></g></g><g clip-path="url(#clipPath294314)" style="opacity:.2"><g transform="translate(280.2 235.92)"><path d="m0 0c0.318-3.77-2.897-9.1-4.26-12.563-3.465-8.8-7.316-17.483-10.873-26.253-1.562-3.848-0.933-8.048 1.255-11.694 1.141-1.902 3.253-3.078 5.292-3.927 5.386-2.241 9.994-3.993 14.74-7.575 4.963-3.745 9.486-7.277 15.542-9.439 2.705-0.965 10.11-1.465 10.699-4.725-3.858-2.059-7.969-1.776-12.333 0.849-10.993 3.359-22.214 5.748-33.662 7.168-4.39-0.326-11.239-0.215-11.601-5.917-0.194-3.056 4.264-6.023 6.084-7.645 5.271-4.3 10.453-8.693 15.548-13.18 3.852-1.606 5.369-3.934 4.55-6.985-11.004 1.943-23.186 5.775-33.071 10.984-4.489 2.366-8.072 6.064-9.398 10.856-1.919 6.936-0.481 14.102 3.354 20.183 5.66 8.975 12.013 17.144 16.072 26.98 4.663 11.299 12.26 21.364 19.977 30.985 0.952 1.186 1.944 2.802 3.06 3.83 1.72 1.585 2.054 1.268-0.975-1.932" style="fill:#fff"/></g></g><g transform="translate(590.31 1124.6)"><path d="m0 0c-1.821-6.869 2.34-18.002-4.382-33.886s-75.866-163.78-76.827-166.66c-0.96-2.881-90.271-224.72-90.271-224.72l-37.453-88.351s-21.127-105.64-47.056-169.02-73.946-175.74-73.946-175.74-12.484-22.088-9.603-24.969 35.656 22.088 54.801 11.524c19.145-10.563 48.915-43.215 68.122-42.254 19.206 0.96 22.087 0.96 31.691 24.968 9.603 24.009 37.453 103.37 55.699 125.63 18.246 22.26 45.135 127.9 45.135 127.9s22.088 81.628 29.771 88.351c7.682 6.722 108.52 137.33 108.52 137.33s78.747 94.113 90.271 128.68 27.85 72.024 27.85 72.024 5.762 2.881 14.405-17.286c8.643-20.166 73.946-133.49 73.946-133.49s42.254-102.76 57.62-124.84c15.365-22.087 28.81-24.008 38.413-40.334 9.603-16.325 17.286-10.563 16.326-32.651-0.961-22.088-9.604-118.12-9.604-171.9 0-53.778 9.685-184.4 9.685-184.4s58.178 26.571 87.426 23.389c29.249-3.183 83.111-1.281 83.111-1.281s-6.402 58.556-15.365 128.51c-8.963 69.957-29.706 371.92-29.578 377.15 0.128 5.233 0 50.049 0 50.049s-52.37 147.25-89.503 217.68c-37.133 70.424-55.059 118.59-55.059 118.59l-26.889 37.782-281.7-15.648z" style="fill:#194470"/></g><g transform="translate(580.17 1065.5)"><path d="m0 0c-0.077-1.21-0.89-2.934-1.26-3.966-0.413-1.15-1.93-3.544-1.469-4.636 2.674-0.67 5.052-1.035 7.826-1.016 4.537 0.03 9.277-0.418 13.755 0.36 5.324 0.926 10.788 1.913 16.036 3.197 7.486 1.832 14.146 5.679 20.763 9.511 12.883 7.462 24.493 17.959 30.87 31.643 1.347 2.89 2.259 6.194 3.453 9.079 0.613 1.481 0.628 3.417 1.003 5.056 1.416 0.353 3.196 0.075 4.643 0.071 2.972-7e-3 5.909 0.326 8.866 0.351 3.018 0.026 6.178-0.356 9.174-0.703 3.947-0.457 7.768 0.132 11.696 0.528 9.133 0.92 18.675 0.799 27.834 0.335 11.265-0.571 22.405-1.202 33.692-1.155 2.853 0.011 5.623-0.25 8.411-0.624 1.349-0.18 1.307 0.064 1.138-1.44-0.443-3.941-1.308-7.839-1.649-11.811-0.482-5.632-0.717-11.217-1.561-16.814-0.783-4.042-1.403-8.108-1.861-12.2-0.342-4.072-0.58-8.15-0.714-12.234-0.503-7.69-1.704-15.318-2.467-22.983-0.676-6.796-0.603-13.534-0.606-20.353-6e-3 -14.106 1.159-28.174 1.325-42.279 0.151-12.717 1.069-26.089-1.813-38.543-0.885-3.824-1.145-7.652-1.9-11.478-0.321-1.625-1.165-3.188-1.497-4.726-0.255-1.179-0.682-1.084 0.922-1.584 1.052-0.328 3.331-0.561 4.156 0.386 0.137 0.762 0.201 1.532 0.194 2.31 0.326 2.881 0.764 5.746 1.313 8.594 0.855 4.73 1.839 9.364 2.304 14.153 0.497 5.13 1.116 10.233 1.555 15.37 0.51 5.974 1.868 11.837 2.334 17.809 0.344 4.412-0.116 8.72-0.42 13.106-0.396 5.687-0.219 11.374-0.636 17.068-0.256 3.5-0.546 7.44-0.176 10.95 0.113 1.071 0.693 2.012 0.636 3.085 3.654-3.372 8.183-3.143 12.859-3.08 5.149 0.07 10.239 0.02 15.365 0.694 3.169 0.416 6.846 2.183 8.914 4.684 2.359 2.853 3.311 6.118 4.008 9.701 0.422 4.662 0.371 9.314-0.152 13.954-0.388 5.487-0.828 10.969-1.318 16.448-0.417 7.179-0.588 14.359-0.643 21.548-0.065 8.459 0.471 16.853 0.67 25.291 0.067 2.858 2.234 1.794 4.538 1.799 5.584 0.01 11.167-1e-3 16.751 0 9.167 1e-3 18.32-0.442 27.411 0.881 2.18 0.318 4.367 0.612 6.55 0.905 0.754 0.101 2.06 0.488 2.744 0.12 0.792-0.425 1.837-2.571 2.165-3.048 2.316-3.369 4.695-6.701 7.059-10.037 6.151-8.683 14.279-14.869 23.027-20.771 3.423-2.308 7.164-4.926 11.064-6.311 3.827-1.36 7.76-1.909 11.77-2.438 6.558-0.864 12.908-2.18 19.531-1.191 4.27 0.637 8.557 1.109 12.748 2.141 1.164 0.287 1.826 0.297 1.895 1.605 0.077 1.466-1.616 5.072-2.397 6.066-0.783-1.443-0.973-3.017-2.597-3.868-2.591-1.359-6.958-0.702-9.675-0.496-2.749 0.208-5.372 0.723-8.002 1.527-3.517 1.074-7.159 1.837-10.627 3.046-5.653 1.97-11.827 3.46-17.253 5.99-6.837 3.188-11.723 8.43-17.141 13.556-4.9 4.635-9.484 9.923-13.219 15.526-0.689 1.033-1.38 3.222-2.613 3.764-0.869 0.382-2.469 0.078-3.428 0.09-2.376 0.028-4.613-0.584-6.97-0.688-3.646-0.161-7.182 0.12-10.831-0.287-2.886-0.322-5.622-0.312-8.536-0.295-4.457 0.026-9.05-0.447-13.494-0.823-6.571-0.556-13.13-1.134-19.733-1.122-1.238 2e-3 -3.057 0.311-4.281 0.026-1.707-0.397-1.164-1.556-1.049-3.154 0.176-2.463-0.546-4.872-0.5-7.358 0.041-2.236-0.388-4.283-0.586-6.501-0.591-6.614-0.025-13.501-0.069-20.147-0.026-3.772 0.54-7.449 0.734-11.212 0.208-4.021 0.427-8.165 0.881-12.167 0.473-4.176 0.685-8.47 0.911-12.663 0.21-3.902 0.391-8.268-0.956-12.013-1.691-4.698-6.344-6.604-10.827-8-6.378-1.986-12.573-0.57-18.607 1.877-2.185 0.886-4.396 1.668-6.592 2.496-0.492 0.185-0.977 0.332-1.428 0.605 0.179-0.108-1.401 1.249-1.245 1.041-1.89 2.522 0.054 7.89 0.511 10.768 0.601 3.797 0.94 7.63 1.724 11.396 1.057 5.076 1.576 10.066 2.255 15.201 0.929 7.027 0.902 14.151 1.874 21.166 0.438 3.162 1.168 6.256 1.687 9.401 0.62 3.759 0.874 7.553 1.544 11.308 0.638 3.582 0.988 7.71 2.376 11.102-3.335 0.377-6.775 0.121-10.159 0.526-7.138 0.854-14.495-0.201-21.671 0.237-4.336 0.265-8.574 1.356-12.904 1.731-4.321 0.375-8.992 0.229-13.335 0.128-4.236-0.098-8.404-0.755-12.649-0.579-4.13 0.171-8.255 0.803-12.381 1.059-11.689 0.724-23.564 0.137-35.277 0.127-1.689-1e-3 -3.784 0.756-3.748-1.377 0.031-1.858 0.686-3.623 0.701-5.539 0.032-4.048-0.598-7.388-2.361-11.01-1.066-2.192-2.175-3.546-3.996-5.219-2.265-2.08-4.007-4.473-5.825-6.95-3.705-5.05-8.008-9.754-12.629-13.998-4.284-3.935-9.693-5.458-14.898-7.762-4.799-2.125-10.317-4.754-15.478-5.826-5.11-1.063-10.681-1.38-15.885-1.248-3.177 0.08-6.235 0.584-9.24 1.628-1.105 0.384-3.354 0.694-4.069 1.718 1.405-0.057 4.542-2.98 1.137-0.116" style="fill:#12304f"/></g><g clip-path="url(#clipPath294338)" style="opacity:.2"><g transform="translate(1118.6 361.11)"><path d="m0 0c-8.963 69.957-29.706 371.92-29.578 377.15s0 50.049 0 50.049-49.422 138.96-86.287 211.46c3.062-9.99 5.854-20.045 7.89-30.273 8.396-42.187 15.998-84.791 23-127.24 7.282-44.145 13.998-90.61 8.906-135.39-1.997-17.562-5.878-37.086-17.869-50.81-14.975-17.138-36.093-14.026-53.457-1.992-12.586 8.723-24.249 19.043-36.232 28.572-12.358 9.826-24.317 20.121-34.279 32.439-16.614 20.546-29.632 45.269-41.64 68.701-22.919 44.724-47.276 100.89-35.132 152.19-18.632 6.418-38.567 8.04-57.021 15.037-19.754-26.408-40.256-52.244-61.404-77.552-40.01-47.879-83.559-92.612-123.79-140.24-17.452-20.662-34.756-41.748-55.526-59.222-9.776-8.225-20.388-16.175-31.945-21.743-9.003-4.337-21.296-4.037-29.599-9.668 0.511-0.885 0.645-1.995 0.069-3.163-3.398-6.901-1.826-18.562-1.932-25.983-0.153-10.727 9e-3 -21.492-0.659-32.204-1.587-25.438-6.66-51.564-11.742-76.507-8.94-43.872-25.618-95.248-64.516-121.93-8.022-5.503-18.402-8.56-25.864-0.558-7.767 8.329-8.931 22.281-9.833 33.027-1.279 15.225-0.768 30.573-0.153 45.818 0.394 9.756 0.622 19.512 1.169 29.249-5.234-17.154-10.914-33.869-16.846-48.371-25.929-63.382-73.946-175.74-73.946-175.74s-12.484-22.087-9.603-24.968 35.656 22.087 54.801 11.524c19.145-10.564 48.915-43.215 68.122-42.255 19.206 0.961 22.087 0.961 31.691 24.969 9.603 24.008 37.452 103.37 55.699 125.63 18.246 22.26 45.135 127.9 45.135 127.9s22.088 81.628 29.771 88.35c7.682 6.722 108.52 137.33 108.52 137.33s78.747 94.112 90.271 128.68 27.85 72.025 27.85 72.025 5.762 2.881 14.405-17.286 73.946-133.49 73.946-133.49 42.254-102.76 57.619-124.84c15.366-22.088 28.81-24.009 38.414-40.334 9.603-16.326 17.286-10.564 16.325-32.652-0.96-22.087-9.603-118.12-9.603-171.9s9.685-184.4 9.685-184.4 58.178 26.571 87.426 23.388c29.249-3.183 83.111-1.28 83.111-1.28s-6.402 58.555-15.365 128.51"/></g></g><g clip-path="url(#clipPath294354)" style="opacity:.2"><g transform="translate(704.39 982.69)"><path d="m0 0c-18.365 7.338-35.513 17.281-49.894 30.888 4.199 1.545 8.503 1.032 12.913-1.539 11.403-2.395 22.743-5.054 34.02-7.979 15.225-3.809 30.745-9.281 46.504-10.054-6.644 7.405-14.611 13.999-21.92 20.761-14.655 13.558-29.543 26.688-48.021 34.709-10.051 4.362-20.153 5.693-30.558 6.165-4.269-2.193-8.333-3.661-13.033-5.039-11.934-3.499-23.799-7.172-35.616-11.045-8.527-2.795-16.775-4.896-23.142-11.54-8.142-8.497-13.335-20.152-19.207-30.224-13.372-22.936-21.575-47.725-29.883-72.841-5.483-16.578-10.691-33.231-15.68-49.964-7.762-26.036-16.449-51.875-23.544-78.106-6.197-22.911-11.039-46.255-14.576-69.723-1.839-12.207-3.49-23.962-2.941-36.266 6.617 3.004 11.755 7.818 15.416 14.44 9.233 11.378 18.505 22.726 27.815 34.041 14.183 16.28 29.366 31.459 45.37 45.961 17.42 15.784 36.29 30.186 52.916 46.801 9.915 9.889 18.87 20.561 26.865 32.017 7.791 9.527 14.418 19.822 19.881 30.886 4.329 9.893 7.909 21.762 7.453 32.797-0.172 4.159-0.856 5.823 3.626 7.655 4.163 2.093 8.665 2.381 13.506 0.864 7.901-1.347 15.83-1.756 23.788-1.227 6.471 0.185 22.418 0.945 20.039 10.934-5.45 1.479-10.949 2.522-16.435 3.843 5.885 5.584 16.67 7.775 23.953 10.781 4.673 1.929 10.298 3.493 13.777 7.387 0.849 0.95 1.298 2.176 2.223 3.105-3.065 0.774-6.191 1.192-9.378 1.252-12.452 2.058-24.531 5.478-36.237 10.26m-50.981 75.757c-1.505-0.344-3.031-1.221-4.461-2.015 3.634 0.481 4.073 1.24 4.461 2.015m-4.461-2.015c-2.499-0.33-6.494-0.531-13.078-0.51 3.904-0.047 7.754-0.108 11.564-0.281 0.223 0.115 0.442 0.208 0.667 0.327 0.275 0.146 0.562 0.306 0.847 0.464m301.18 0.549c0.024 0.117 0.105 0.293 0.202 0.484-0.186 0.142-0.21-0.164-0.202-0.484m24.969-157.09c-0.028 19.119 0.947 38.373-0.1 57.478-0.963 17.583-3.549 35.117-7.345 52.303-2.964 13.418-6.249 27.107-11.113 39.955-0.526 1.392-2.738 9.372-5.57 8.956-0.049-0.098-0.404-0.658-0.639-1.119 0.379-0.292 1.446-2.492 4.371-10.506-3.646 1.277-7.056 3.037-10.586 4.6-14.516 6.427-30.107 10.857-45.183 15.776-2.04 0.666-17.734 7.272-20.509 4.763-1.267-0.624-1.757-1.711-1.469-3.259-0.428-3.856-1.917-7.363-4.467-10.521-12.503-19.673-31.663-35.519-50.194-49.192-10.012-7.388-20.379-14.283-30.303-21.793-3.746-2.835-7.589-5.549-10.461-9.293 2.365-0.895 4.818-0.93 7.36-0.107 6.172 0.569 12.34 1.19 18.502 1.864 15.154 1.6 30.606 4.87 45.853 4.373-6.956-5.447-15.217-7.98-23.542-10.684-10.311-3.349-20.655-6.348-30.707-10.421 2.529-2.348 5.735-2.982 9.617-1.905 7.339-0.879 14.7-1.478 22.082-1.798 13.219-0.768 26.721-0.242 39.831-2.136-5.819-6.636-14.181-11.049-20.49-17.312-1.441-1.43-6.383-6.021-6.631-8.967-0.277-3.292 7.199-9.252 9.065-11.428 9.678-11.279 17.48-23.271 25.737-35.668 12.541-18.826 25.892-36.741 40.57-53.992 12.317-14.475 24.841-28.909 38.834-41.816 5.167-4.766 10.566-9.973 16.445-13.845-0.68 6.711 2.452 14.068 3.018 20.807 2.925 34.869-1.925 69.989-1.976 104.89" style="fill:#fff"/></g></g><g transform="translate(759.4 1741.9)"><path d="m0 0s-83.842-52.115-110.73-68.761-39.694-28.024-48.016-46.663c-8.323-18.64-71.065-164.61-71.065-164.61s67.863-97.314 80.668-80.668c12.804 16.646 34.238 37.133 34.238 37.133s11.19-106.65 0-146.8c-11.19-40.147-57.286-149.61-56.006-153.78 1.281-4.168 119.08-9.293 142.13-8.651l23.048 0.642s86.242-8.963 105.22-7.683c18.98 1.281 72.852 20.487 81.128 30.731 8.277 10.243-47.721 126.76-47.721 126.76l34.23 162.36s19.527 29.384 25.769 44.749c6.242 15.366 10.084 32.652 10.084 32.652s36.972-13.925 47.056-11.524c10.083 2.401 19.448 5.647 29.411 18.909 9.962 13.262 12.001 28.669 12.001 28.669l-14.523 76.304s-18.726 69.144-28.33 81.629c-9.603 12.484-6.632 13.324-45.615 27.553-38.984 14.23-84.572 28.146-84.572 28.146z" style="fill:#662058"/></g><g clip-path="url(#clipPath294374)" style="opacity:.3"><g transform="translate(895.4 1429.6)"><path d="m0 0c-3.423-8.147-7.697-16.036-11.952-23.77-6.54-11.89-14.575-21.989-23.53-32.133-1.059-1.2-7.366-10.642-9.956-10.835-1.338 4.128-1.481 9.003-2.071 13.259-1.232 8.876-3.105 17.474-5.938 25.972-3.296 9.886-7.656 19.21-12.517 28.41-0.995 1.884-1.837 4.029-3.274 5.632-3.466-6.555-6.889-13.022-10.464-19.699-8.977-16.762-20.54-32.151-29.059-49.137-3.111-5.919-5.586-12.084-7.423-18.495-7e-3 -1.917-0.75-3.185-2.227-3.804-1.181 5.699-4.387 10.295-7.298 15.247-5.67 9.646-10.385 19.884-14.703 30.206-4.809 11.498-8.029 23.164-8.949 35.575-0.285 3.834-0.884 9.889-0.114 13.962 1.24 6.56 5.074 6.471 11.446 7.618 13.365 2.404 27.6 5.066 41.11 6.129 3.257 0.256 6.823 0.022 10.253 0.1 0.408 0.241 1.056 0.545 1.822 0.769 0.828 0.494 1.905 1.173 3.29 2.099 0.154-0.69 0.179-1.384 0.113-2.081 1.619-0.372 3.171-1.074 4.94-1.031 0.389 1.823 0.094 3.908 0.098 5.772 0.024 10.681-0.546 21.333-0.934 32.009-0.736 20.274-1.521 40.52-2.937 60.76 0.219-3.133-1.179 28.912-3.363 28.994 1.242 0.993 3.003 1.147 4.522 1.407 8.766 1.503 18.271 1.574 27.159 1.044 11.987-0.714 22.929-5.956 33.254-11.643 5.766-3.176 13.287-6.785 17.951-11.758-7.619-20.683-19.229-39.511-30.672-58.225-6.948-11.361-13.286-24.605-21.495-35.112 9.439 1.031 19.024-0.341 27.865-3.74 8.381-3.223 16.7-7.692 24.179-12.705 2.913-1.952 6.296-4.717 5.891-8.751-0.367-3.661-3.662-8.82-5.017-12.045m24.781 120.32c-6.365 17.418-18.042 26.952-33.258 36.052-11.656 7.407-24.303 12.058-37.942 13.953-5.796-0.654-11.592-1.309-17.388-1.964-13.15-2.434-24.755-8.056-34.815-16.867-3.832-5.913-7.663-11.825-11.494-17.737-6.61-15.146-14.068-29.863-22.374-44.151-6.971-10.302-12.798-21.191-17.482-32.668-10.993-24.457-15.151-49.936-12.796-76.624 0.033-13.829 3.572-26.872 10.616-39.131 5.563-12.193 13.749-21.928 24.558-29.207 7.863-8.047 17.537-12.824 29.023-14.331 8.848-1.763 17.37-1.092 25.566 2.01 14.345 4.063 26.492 11.741 37.797 21.357 10.336 8.792 19.048 18.842 24.708 31.227 0.342 0.747 0.632 1.351 0.867 1.835 8.447 11.024 15.49 23.269 21.542 35.679 10.672 21.885 17.115 47.016 20.128 71.172 2.509 20.109-0.336 40.462-7.256 59.395m-106.24-95.594c0.014 0.099 5e-3 0.197 0.014 0.295-1.033 0.238-2.093 0.343-3.255 0.027-0.051-0.013-0.098-0.03-0.148-0.045-0.555-0.332-0.994-0.576-1.333-0.753 1.625 0.052 3.218 0.175 4.722 0.476" style="fill:#14beff"/></g></g><g clip-path="url(#clipPath294390)" style="opacity:.2"><g transform="translate(674.28 1363.2)"><path d="m0 0c0.817-7.36 1.466-8.927 1.914-8.358-0.258 3.382-0.682 6.711-1.65 9.662-0.088-0.435-0.176-0.869-0.264-1.304m130.67 31.953c-5.93-2.028-11.725-4.385-17.382-7.074-14.446-6.461-28.22-13.734-44.368-13.696-7.41-0.14-14.803 0.203-22.18 1.026-8.23-0.094-16.454-0.359-24.673-0.797-5.988 0.135-13.248 2.435-19.042 1.21-3.252-0.687-3.265-0.811-2.531-4.294 0.908-4.307 2.242-7.959 2.128-12.386-0.033-1.276-0.278-3.757-0.706-4.3 0.295-3.858 0.373-7.787 0.757-11.319 1.282-11.773 3.374-23.375 5.665-34.992 1.567-7.947 6.027-19.025 2.865-27.025-1.103-1.185-2.207-2.37-3.31-3.555-3.462-2.448-6.294-5.472-8.496-9.07-6.357-8.583-10.784-18.55-15.396-28.154-6.729-14.013-13.905-28.01-18.802-42.812-3.035-9.174-5.2-18.595-6.201-28.205-0.463-4.443-0.562-8.423-1.302-12.746 2.428-0.287 5.156 0.437 7.6 0.574 7.822 0.439 15.702 0.215 23.533 0.191 15.932-0.05 31.928-1.103 47.86-0.567 11.955 0.402 24.758 0.965 36.275 4.159 6.997 1.941 8.74 6.259 10.301 13.104 3.87 16.971 4.372 34.694 6.833 51.929 4.06 28.434 10.424 56.462 16.515 84.509-5.201 3.916-19.081 2.011-24.077 2.611-10.622 1.278-22.293 3.246-31.86 8.355-5.097 0.977-7.532 3.389-7.303 7.236-0.648 2.45 0.56 4.099 3.625 4.946 8.213 6.41 16.819 12.282 25.688 17.737 11.499 7.072 24.877 12.098 35.883 19.814 4.958 3.476 9.234 7.545 13.752 11.546 3.007 2.661 6.125 4.845 9.665 6.713 2.937 1.549 6.574 2.752 7.456 6.386-2.943 0.995-5.867 0.643-8.772-1.054m-161.01 197.87c-1.301 14.445-8.235 27.119-16.772 38.416-1.868-0.653-3.826-0.439-5.737-0.394 0.513 0.807 1.058 1.971 1.636 3.606-1.907-0.171-3.169-2.071-4.248-3.76-0.359-0.066-0.714-0.152-1.063-0.275 0.164-0.208 0.336-0.401 0.517-0.567-0.135-0.205-0.27-0.408-0.402-0.589-7.193-9.836-12.714-21.852-18.486-32.582-12.565-23.359-19.859-48.416-28.552-73.342-8.034-23.039-17.363-47.318-30.623-67.974 2.875-2.185 6.427-3.379 9.375-5.504 5.199-3.748 12.054-9.52 14.954-15.399 4.078 0.238 6.082 9.198 7.31 12.306 3.562 9.014 7.989 17.652 12.193 26.378 11.512 23.898 25.751 46.57 40.206 68.765 10.02 15.386 21.414 31.805 19.692 50.915m282.97 78.171c-8.286-10.19-18.005-19.918-28.883-27.428-6.554-4.526-13.876-9.141-22.042-9.221-7.442-0.073-15.368 2.347-22.551 3.698-11.003 2.07-22.02 3.984-32.839 6.931-13.959 3.803-27.327 10.153-40.299 16.466-17.771 8.649-35.57 17.735-52.95 27.314 2.11 0.859-18.401-7.525-24.963-11.214-10.174-5.721-20.189-11.708-30.314-17.515-5.756-3.301-12.092-6.232-17.382-10.259 7.369-6.406 12.625-19.097 16.991-27.198 6.214-12.051 12.298-24.168 18.253-36.35 5.64-10.107 10.301-20.643 13.982-31.608 2.987-11.601 5.051-23.366 6.192-35.295 0.82-11.046 3.038-21.794 6.655-32.244 5.8-12.681 14.396-18.421 28.095-17.217 20.575 1.81 40.026 12.08 59.404 18.573 25.965 8.702 57.202 14.052 78.468 32.737 9.93 8.645 16.565 19.38 19.906 32.205 5.164 18.132 9.853 36.386 14.066 54.762 6.409 25.11 13.439 50.061 19.905 75.158-1.491 0.01-9.065-11.522-9.694-12.295" style="fill:#fff"/></g></g><g clip-path="url(#clipPath294406)" style="opacity:.2"><g transform="translate(1036.3 1611.6)"><path d="m0 0s-18.726 69.144-28.33 81.628c-9.603 12.485-6.632 13.325-45.615 27.554-38.984 14.229-84.572 28.146-84.572 28.146l-4.226-0.254c-0.234-8.637-0.919-17.222-1.951-25.783 11.066-0.947 22.059-2.888 32.883-5.326 26.748-6.023 57.927-15.867 77.287-36.359 21.162-22.399 9.763-54.492 0.397-79.993-6.858-18.672-15.279-36.711-22.557-55.215-6.689-17.005-10.442-34.814-16.667-51.951-10.652-29.324-31.009-52.101-63.127-55.538-12.684-1.357-24.866-1.523-37.085-5.464-11.289-3.64-22.279-8.191-33.356-12.417-21.53-8.215-45.708-18.189-69.244-16.391-25.274 1.932-33.361 21.273-37.109 43.885-6.597 39.795-1.085 79.98-15.54 118.49-11.481 30.581-28.071 60.227-52.365 82.315 19.13-45.672 48.098-93.368 28.587-143.34-17.338-44.407-58.472-70.163-100.56-88.021 19.082-23.145 40.454-45.052 47.081-36.438 12.804 16.646 34.238 37.133 34.238 37.133s1.414-13.481 2.734-32.653c5.242 4.705 12.097 7.485 20.992 7.102 10.313-0.444 19.34-4.673 28.934-7.929 14.453-4.905 30.208-5.295 45.237-3.315 14.799 1.95 29.86 6.111 43.024 13.205 11.094 5.98 22.16 12.018 33.687 17.14 19.299 8.575 42.339 16.8 63.017 8.218 2.104-0.874 2.255-3.989 0.83-5.456-18.098-18.642-42.204-29.067-62.943-44.232-12.033-8.8-23.331-18.565-35.453-27.293-11.107-7.997-22.283-15.888-33.091-24.28 10.987 1.07 22.565 7.709 31.775 11.77 10.635 4.69 22.484 10.511 34.421 9.966 29.13-1.329 16.699-39.616 16.514-57.664-0.323-31.607 7.916-64.173-0.22-95.366-6.826-26.169-25.611-42.298-52.189-46.318-32.584-4.928-66.911-2.018-98.568-12.029 8.85-4.41 21.311-4.589 30.116-5.383 15.279-1.377 30.739-1.991 45.82-4.987 9.571-1.902 20.766-4.965 27.797-12.311 26.454-2.424 60.81-5.206 71.96-4.454 18.98 1.28 72.852 20.487 81.128 30.731 8.277 10.243-47.721 126.76-47.721 126.76l34.23 162.36s19.527 29.384 25.769 44.749 10.084 32.651 10.084 32.651 36.972-13.925 47.056-11.524c10.083 2.401 19.448 5.648 29.411 18.91 9.962 13.261 12.001 28.669 12.001 28.669z"/></g></g><g transform="translate(264.22 1146.8)"><path d="m0 0c0.135-0.137 0.27-0.274 0.405-0.412-0.264-1.147-5.404-4.711-5.086-4.446-4.369-3.64-8.735-7.292-13.038-11.009-2.837-2.45-5.898-4.951-7.57-8.391-0.268-0.552-0.823-1.423-0.694-2.086 0.12-0.614 0.915-1.716 1.285-2.243 0.634-0.903 1.72-1.521 2.596-2.173 2.347-1.746 4.721-3.456 7.07-5.199 6.35-4.714 12.48-10.131 17.253-16.43 4.054-5.349 7.924-10.828 11.613-16.434 3.14-4.771 5.952-9.765 9.319-14.387 0.411-0.565 1.311-2.33 2.119-2.332 0.629-2e-3 0.532 0.368 0.891 0.751 0.645 0.691 1.315 1.115 2.129 1.608 2.575 1.561 4.847 3.394 7.231 5.238 4.601 3.559 8.284 7.181 11.122 12.311 3.756 6.791 6.372 13.98 9.028 21.247 2.708 7.408 5.523 14.719 7.302 22.42 0.132 0.571 0.603 1.971 0.413 2.723-0.272 1.079-5.363 4.839-4.916 4.478-12.828 10.372-26.775 18.933-41.583 26.103-2.105 1.062-4.207 2.129-6.306 3.203-0.771 0.533-1.617 0.862-2.539 0.987-0.403-0.159-0.384-0.483-0.591-0.814-0.923-1.478-1.481-3.388-2.301-4.952-1.628-3.106-3.51-6.102-5.184-9.191-0.609-1.124-1.129-2.275-1.7-3.42 0.147 0.042 0.255 0.135 0.322 0.277-0.136-0.327-0.253-0.661-0.352-1.002 1.288-0.792 1.604-2.266 1.762 3.575" style="fill:#e8ac72"/></g><g transform="translate(269.66 1137.9)"><path d="m0 0c-1.921-1.28-47.163-12.804-47.163-12.804s-5.335 0.64-5.335-4.482 6.402-44.815 12.804-48.657c6.402-3.841 81.949 14.725 81.949 14.725s6.361-0.631 4.313 7.817c-2.048 8.447-5.594 52.243-5.594 52.243z" style="fill:#0d0a08"/></g><g transform="translate(305.49 1090.8)"><path d="m0 0c-0.593 4.457-6.664 4.076-9.237 2.432-3.104-1.983-5.293-3.882-8.125-7.196-2.139-2.504 0.922 5.413-0.759 7-4.923 4.649-7.932 3.624-10.097 3.316-6.095-0.867-7.659-7.16-11.62-12.159-1.994-2.515-3.639-2.995-2.816-0.573 0.973 2.865 0.967 6.888-1.045 9.229-1.592 1.852-4.327 2.434-6.529 2.642-7.529 0.713-12.087-3.025-16.89-9.086-2.813-3.548-5.907-7.463-8.152-11.452-1.505-2.675-4.582-8.414-3.599-11.861 0.173-5e-3 -0.275-4.441 1.286-5.788 2.585-2.23 7.534-1.996 10.424-0.784 2.383 0.999 7.083 1.989 8.857 4.006-1.296-3.589 1.985-6.097 3.089-7.297 1.41-1.534 4.179-2.83 6.004-3.101 2.883-0.427 5.264-0.197 8.174 1.007 1.636 0.677 2.077 1.706 3.512 0.182 1.072-1.137 1.748-2.101 3.252-2.879 5.844-3.023 12.856-2.187 17.397 3.319 3.969 4.813 5.755 10.715 8.604 16.211 2.317 4.472 4.473 8.756 6.249 13.514 1.112 2.976 2.464 5.99 2.021 9.318m-76.314 23.314c-1.398 1.76-3.064 2.59-5.119 3.237-2.589 0.815-4.265 0.412-6.392-1.381-4.346-3.663-7.698-9.581-10.248-14.751-2.049-4.153-1.472-7.462 0.875-11.328 1.722-2.836 6.651-7.065 9.545-5.571 4.498 2.321 4.847 6.419 9.002 9.228 2.724 1.842 5.255 4.39 6.241 9.51 0.989 5.142-2.438 9.212-3.904 11.056" style="fill:#f7c294"/></g><g clip-path="url(#clipPath294434)" style="opacity:.60001"><g transform="translate(233.08 1103)"><path d="m0 0c0.126 0.652 0.178 1.286 0.174 1.902-2.363-4.471-6.929-8.795-9.903-10.65-4.076-2.542-10.761-3.075-14.484 0.411-1.258 1.177-1.98 2.569-2.35 4.076-0.815-3.086-0.097-5.822 1.776-8.906 1.722-2.836 6.65-7.065 9.545-5.571 4.497 2.321 4.847 6.419 9.002 9.228 2.723 1.842 5.255 4.39 6.24 9.51" style="fill:#de9d5f"/></g></g><g clip-path="url(#clipPath294450)" style="opacity:.60001"><g transform="translate(305.49 1090.8)"><path d="m0 0c-0.198 1.485-1.01 2.424-2.092 2.967-0.37-6.231-3.151-12.909-5.56-17.813-3.593-7.314-9.732-16.87-18.276-18.613-2.415-0.492-4.974 1.459-4.23 4.106 2.465 8.775 8.89 15.863 12.011 24.485-0.066 1.343 1.264 5.935 0.026 7.104-0.582 0.55-1.135 1.014-1.665 1.416-0.134-2.703-0.716-5.441-1.261-7.689-2.085-8.593-8.082-14.88-14.938-20.093-3.432-2.61-11.507-9.001-15.337-3.58-3.936 5.569 6.214 14.335 8.486 19.236-0.074 0.255-0.027 0.679 0.182 1.294 0.641 1.89 0.842 4.276 0.338 6.358-0.788-2.896-2.608-5.766-4.2-7.938-3.409-4.651-8.042-10.555-13.412-13.056-6.076-2.83-15.625-0.216-14.275 7.707-0.36-0.579-0.739-1.155-1.067-1.738-1.505-2.674-4.582-8.414-3.599-11.861 0.173-4e-3 -0.275-4.441 1.286-5.788 2.585-2.23 7.534-1.996 10.424-0.784 2.383 0.999 7.083 1.99 8.857 4.006-1.296-3.588 1.985-6.097 3.089-7.297 1.41-1.533 4.179-2.83 6.004-3.101 2.883-0.427 5.264-0.197 8.174 1.007 1.636 0.677 2.077 1.706 3.512 0.183 1.072-1.138 1.748-2.102 3.252-2.88 5.844-3.023 12.856-2.186 17.397 3.32 3.97 4.813 5.755 10.714 8.604 16.21 2.317 4.472 4.473 8.756 6.249 13.514 1.112 2.976 2.464 5.99 2.021 9.318" style="fill:#de9d5f"/></g></g><g transform="translate(537.27 1452.2)"><path d="m0 0c-0.859 1.718-3.201-29.45-21.127-41.614-17.927-12.165-36.493-21.128-47.377-32.652-10.883-11.524-55.699-61.461-70.424-82.588-14.725-21.128-80.178-112.76-80.178-112.76s-2.18 1.276-13.294 0.722c-11.791-0.588-31.371-6.402-36.493-11.524s-3.201-8.963-18.566-9.603c-15.366-0.641-25.609 0-25.609 0s-3.842-7.863 0-13.855c3.841-5.992 9.603-10.474 14.725-10.474h22.408s-0.214-2.82 5.56-5.802c9.982-5.153 24.53-5.685 30.932-3.721 6.121 1.877 8.963 5.042 8.963 5.042l9.804-42.697s11.964 5.564 21.567 30.532l9.603 24.969 124.84 94.753s47.376 27.216 64.662 63.545 23.688 44.652 23.688 44.652l39.694 37.133s-55.059 49.297-63.382 65.943" style="fill:#f7c294"/></g><g clip-path="url(#clipPath294470)" style="opacity:.3"><g transform="translate(317.09 1118.9)"><path d="M 0,0 C 1.004,1.615 1.841,3.304 2.252,4.036 9.567,17.08 14.364,32.097 18.249,46.695 6.833,42.77 0.214,34.093 -3.572,23.536 -3.88,15.498 -2.507,7.71 0,0" style="fill:#fff"/></g></g><g clip-path="url(#clipPath294486)" style="opacity:.3"><g transform="translate(313.62 1108.4)"><path d="m0 0c-0.367-0.046-0.727-0.069-1.074-0.059l4.046-17.624s0.473 0.223 1.296 0.764c-0.437 5.939-2.248 11.45-4.268 16.919" style="fill:#fff"/></g></g><g clip-path="url(#clipPath294502)" style="opacity:.3"><g transform="translate(479.91 1348.9)"><path d="m0 0c4.279 2.993 26.668 20.76 36.235 19.498-3.709 10.916-1.523 25.634 0.377 37.902-0.086 0.732-0.172 1.463-0.257 2.197-0.141 1.201 0.297 2.049 0.988 2.589 0.019 0.134 0.041 0.271 0.06 0.404-0.384-0.3-0.766-0.602-1.171-0.877-17.926-12.165-36.492-21.128-47.376-32.652s-55.7-61.461-70.425-82.588c-14.725-21.128-80.177-112.76-80.177-112.76s-2.181 1.276-13.295 0.722c-11.79-0.588-31.371-6.402-36.493-11.524-2.829-2.83-3.519-5.265-6.152-6.989 5.389-1.141 10.856-1.872 16.143-3.787 9.169-3.322 16.34-4.937 24.445 1.78 4.145 3.435 7.912 7.075 12.949 9.203 4.307 1.82 9.342 2.272 13.426 4.614 3.365 1.931 6.159 5.188 8.73 8.037 20.132 22.302 36.98 47.16 55.451 70.79 15.986 20.449 33.165 39.911 50.784 58.96 10.44 13.16 22.43 25.161 35.758 34.482" style="fill:#fff"/></g></g><g clip-path="url(#clipPath294518)" style="opacity:.60001"><g transform="translate(537.27 1452.2)"><path d="m0 0c-0.279 0.559-0.72-2.372-1.798-6.985 5.873-9.387 13.891-17.355 20.689-26.069 6.09-7.806 13.03-17.437 12.004-27.883-1.751-17.816-21.462-28.256-37.42-33.252 7.649-14.402-0.711-31.792-9.213-44.333-25.207-37.178-63.89-65.491-99.212-92.415-18.728-14.275-37.614-28.296-56.376-42.521-7.628-5.784-16.622-12.275-22.4-20.095-3.809-5.157-4.787-12.433-7.054-18.35-5.215-13.614-12.035-25.767-23.246-35.033l3.35-14.59s11.964 5.563 21.567 30.531l9.603 24.969 124.84 94.753s47.376 27.216 64.662 63.545 23.688 44.652 23.688 44.652l39.694 37.133s-55.059 49.297-63.382 65.943" style="fill:#de9d5f"/></g></g><g clip-path="url(#clipPath294534)" style="opacity:.60001"><g transform="translate(306.79 1133.4)"><path d="m0 0 0.121-0.526c1.129 6.241 2.561 12.455 3.571 18.792-4.36-4.666-9.646-8.469-15.56-10.969-9.353-3.953-15.205-1.889-24.137 1.391-11.895 4.369-25.047 0.13-37.027 4.666-4.272 1.617-7.702 4.179-11.218 6.891 0.12-1.767 0.579-3.602 1.661-5.29 3.842-5.992 9.604-10.473 14.725-10.473h22.408s-0.213-2.821 5.561-5.802c9.982-5.154 24.53-5.685 30.932-3.722 6.121 1.878 8.963 5.042 8.963 5.042" style="fill:#de9d5f"/></g></g><g transform="translate(771.59 1891.4)"><path d="m0 0c-0.157 0.104-0.314 0.208-0.472 0.313 1.202-3.545 1.8-7.114 2.303-10.809 1.279-9.407 2.01-19.03 2.569-28.491 0.946-16.019 0.618-32.06 1.361-48.088 0.402-8.681 0.248-17.409 0.781-26.074 0.197-3.193 0.533-6.348 0.53-9.556-2e-3 -1.474 0.476-4.081-0.116-5.478-1.062-2.508-3.856-4.912-5.691-6.848-4.538-4.786-8.808-9.848-13.457-14.523-4.217-4.242-8.448-8.227-12.081-13.019-0.787-1.038-1.509-2.396-2.528-3.239-0.648-0.536-1.41-0.666-2.018-1.223 0.078-1.34 3.191-3.402 4.063-4.555 1.109-1.465 1.984-2.995 2.912-4.57 1.947-3.304 4.702-6.003 7.249-8.847 2.13-2.379 4.415-4.698 6.724-6.904 6.734-6.436 13.153-13.006 20.44-18.829 7.971-6.37 16.361-12.857 25.745-17.08 7.298-3.284 14.494-6.925 21.915-9.923 7.568-3.058 15.556-4.603 23.236-7.299 2.943-1.033 5.639-2.423 8.765-2.805 3.424-0.418 6.413-0.247 9.756 0.634 3.354 0.884 5.92 2.544 8.728 4.525 3.497 2.467 5.187 6.324 6.957 10.096 9.889 21.072 17.049 44.064 12.335 67.416-0.611 3.027-1.463 5.874-3.227 8.442-1.47 2.138-3.473 3.904-4.588 6.288-0.75 1.603-0.582 3.215-0.576 4.958 0.017 5.387 0.544 10.732 0.845 16.108 0.371 6.618 0.109 13.349 0.667 19.95 0.61 2.471 0.745 4.955 0.404 7.451-3.474 2.742-7.152 5.188-11.035 7.337-16.559 10.832-32.869 22.176-48.95 33.692-9.73 6.694-19.065 13.894-28.006 21.602-4.249 3.947-8.665 7.696-13.249 11.245-1.628 1.194-3.381 2.304-5.049 3.142-1.512 0.761-2.185 2.07-3.123 3.667-2.388 4.07-3.645 8.41-5.108 12.883-1.26 3.853-2.656 12.655-7.179 14.129-2.114-3.667-1.949-7.723-2.658-11.808-0.3 1.755-0.598 3.639-0.469 5.43 5e-3 -1.274 0.01-2.548 1.295 0.66" style="fill:#f7c294"/></g><g clip-path="url(#clipPath294554)" style="opacity:.3"><g transform="translate(761.67 1701.5)"><path d="m0 0c10.339 1.944 20.699 1.338 31.117 2.418 9.698 1.005 17.729 5.739 27.107 7.444 1.448 0.263 2.87 0.407 4.274 0.479-3.075 3.76-5.968 7.69-8.672 11.75-7.38 7.9-13.724 16.529-17.765 26.703-15.752 25.852-15.563 57.084-15.543 86.64 0 1.041 0.386 1.835 0.964 2.399 0.372 4.6 0.927 9.221 1.705 13.863 0.097 0.579 0.308 1.036 0.58 1.41 0.595 4.1 1.552 8.137 2.984 12.098-1.212 0.781-1.873 1.958-2.713 3.391-2.388 4.069-3.645 8.41-5.108 12.883-1.261 3.853-2.656 12.655-7.18 14.129-1.049-1.822-1.536-3.739-1.848-5.708-0.152 0.101-0.303 0.202-0.455 0.302 0.094-0.278 0.163-0.558 0.25-0.836 0.063 0.149 0.12 0.276 0.192 0.454-0.039-0.249-0.07-0.5-0.104-0.751 0.964-3.173 1.515-6.373 1.964-9.676 1.28-9.406 2.01-19.029 2.569-28.491 0.946-16.019 0.618-32.059 1.361-48.087 0.403-8.682 0.248-17.41 0.782-26.074 0.197-3.194 0.532-6.348 0.529-9.556-1e-3 -1.475 0.476-4.081-0.115-5.479-1.062-2.507-3.856-4.912-5.692-6.848-4.537-4.785-8.808-9.847-13.456-14.523-4.217-4.242-8.448-8.226-12.081-13.019-0.787-1.038-1.509-2.396-2.528-3.238-0.648-0.536-1.41-0.666-2.019-1.224 0.078-1.339 3.192-3.402 4.064-4.554 1.109-1.465 1.983-2.996 2.912-4.571 1.947-3.303 4.702-6.003 7.248-8.847 1.495-1.668 3.076-3.289 4.677-4.881" style="fill:#fff"/></g></g><g clip-path="url(#clipPath294570)" style="opacity:.60001"><g transform="translate(901.6 1726.2)"><path d="m0 0c-0.611 3.027-1.463 5.874-3.227 8.441-1.47 2.139-3.473 3.905-4.588 6.288-0.75 1.604-0.582 3.215-0.576 4.959 0.017 5.387 0.544 10.731 0.845 16.108 0.371 6.618 0.109 13.349 0.667 19.95 0.61 2.471 0.745 4.955 0.404 7.451-3.474 2.742-7.152 5.188-11.035 7.337-16.559 10.832-32.869 22.176-48.95 33.692-9.73 6.693-19.065 13.894-28.006 21.602-4.249 3.947-8.665 7.696-13.249 11.245-1.628 1.194-3.381 2.304-5.049 3.142-1.512 0.761-2.186 2.07-3.123 3.667-2.388 4.07-3.645 8.41-5.108 12.883-1.26 3.853-2.656 12.655-7.179 14.129-1.05-1.821-1.537-3.738-1.849-5.707-0.151 0.1-0.303 0.201-0.455 0.302 0.095-0.279 0.163-0.558 0.25-0.837 0.064 0.15 0.121 0.277 0.192 0.454-0.038-0.249-0.069-0.5-0.103-0.75 0.964-3.174 1.514-6.373 1.964-9.677 0.837-6.154 1.425-12.401 1.898-18.635 6.059-5.052 11.412-10.866 15.679-17.483 3.185-2e-3 6.343-1.676 7.581-5.573 12.901-40.611 26.046-81.457 46.505-119.01 0.928-1.703 1.202-3.381 1.005-4.926 2.19-3.84 3.452-8.598 5.037-12.419 1.498-3.611-3.376-5.248-5.757-3.481-6.459 4.793-13.345 11.154-21.358 13.283-1.219 0.323-2.42 0.479-3.611 0.526-9.497-8.619-22.201-9.231-34.492-9.453-8.109-0.147-16.233-0.76-24.101-2.353 0.637-0.631 1.268-1.273 1.912-1.889 6.734-6.436 13.153-13.005 20.44-18.828 7.971-6.37 16.361-12.858 25.745-17.08 7.298-3.284 14.494-6.926 21.915-9.924 7.568-3.057 15.556-4.602 23.236-7.298 2.943-1.033 5.639-2.423 8.765-2.805 3.423-0.418 6.413-0.247 9.755 0.634 3.355 0.884 5.921 2.544 8.729 4.525 3.497 2.467 5.186 6.323 6.957 10.096 9.889 21.072 17.049 44.064 12.335 67.416" style="fill:#e8ac72"/></g></g><g transform="translate(771.56 1891.3)"><path d="m0 0c-0.039-0.249-0.07-0.5-0.104-0.75 0.964-3.174 1.515-6.373 1.964-9.677 0.837-6.154 1.426-12.401 1.899-18.635 6.059-5.052 11.411-10.866 15.679-17.483 3.185-2e-3 6.343-1.676 7.58-5.573 3.436-10.814 6.894-21.644 10.497-32.425 11.485-10.634 21.654-22.671 34.829-31.35 9.799-6.456 21.463-12.016 27.096-22.877 8.633-16.645 5.64-39.496-4.206-55.965 8.441 5.29 15.073 14.722 26.178 13.568 3.289-0.341 6.79-1.441 9.98-3.143 0.314 6.353-0.056 12.764-1.356 19.204-0.611 3.027-1.463 5.874-3.228 8.441-1.47 2.139-3.473 3.905-4.587 6.288-0.751 1.604-0.582 3.215-0.577 4.959 0.017 5.387 0.544 10.731 0.846 16.108 0.37 6.618 0.109 13.349 0.666 19.95 0.61 2.471 0.745 4.955 0.405 7.451-3.474 2.742-7.153 5.188-11.035 7.337-16.559 10.832-32.869 22.176-48.951 33.692-9.729 6.693-19.065 13.894-28.005 21.602-4.249 3.947-8.666 7.696-13.249 11.245-1.628 1.194-3.381 2.304-5.049 3.142-1.512 0.761-2.186 2.07-3.123 3.667-2.388 4.07-3.645 8.41-5.108 12.883-1.261 3.853-2.656 12.655-7.18 14.129-1.049-1.821-1.536-3.738-1.848-5.707-0.152 0.1-0.303 0.201-0.455 0.302 0.094-0.279 0.163-0.558 0.25-0.837 0.063 0.15 0.12 0.277 0.192 0.454" style="fill:#de9f66"/></g><g transform="translate(1066.1 1712.5)"><path d="m0 0s-7.042 4.395-14.085 14.812c-7.042 10.416-8.323 14.258-18.566 15.538-10.244 1.281-14.725 3.201-17.927 0-3.201-3.201-1.92-3.677 0-9.521 1.921-5.844 8.323-4.515 12.805-12.542 4.481-8.027 3.172-8.027 11.509-20.832 8.338-12.804 26.904-34.923 36.508-45.951 9.603-11.028 6.402-10.687 6.402-10.687s-0.641-32.352-5.762-44.517c-5.122-12.164-17.926-43.535-22.408-54.418-4.482-10.884-8.483-18.247-9.763-23.369-1.281-5.121-3.041-13.764-10.724-18.246-7.683-4.481-10.884-9.603-23.688-10.243-12.805-0.641-34.572 4.775-34.572 4.775l-13.445 5.468s10.884-24.328 17.286-33.932c6.402-9.603 35.084-42.894 43.151-47.376 8.067-4.481 27.914-17.286 30.475-17.926 2.56-0.64 6.402-3.201 8.963-3.201 2.56 0 10.883 10.243 10.883 10.243s16.646 14.725 22.408 24.969c5.762 10.243 10.244 19.847 14.085 38.413 3.841 18.567 16.646 119.73 16.646 119.73l7.682 49.63s10.244 0.484 16.646 16.397 6.402 40.176 6.402 45.33v15.743s10.244 30.775 6.403 35.702c-3.842 4.928-21.128 2.489-21.128 2.489s2.561 4.657-1.28 11.23c-3.841 6.574-20.487-1.526-20.487-1.526s0.64 8.74-5.762 9.38c-6.402 0.641-18.567-11.363-18.567-11.363s-0.64 9.399-8.323 7.18c-7.682-2.219-21.127-22.845-21.127-22.845z" style="fill:#f7c294"/></g><g clip-path="url(#clipPath294594)" style="opacity:.3"><g transform="translate(1094.8 1640.9)"><path d="m0 0c0.729 4.581 2.951 8.636 4.513 12.935-4e-3 4e-3 -0.01 5e-3 -0.014 9e-3 -11.582 9.883-23.09 21.329-32.171 33.611-1.82 2.461-4.665 8.741-7.752 13.49-1.761 1.179-3.506 2.379-5.197 3.654-0.238-12.874 4.115-24.281 9.579-35.715 4.749-5.721 9.23-10.968 12.6-14.839 9.603-11.029 6.402-10.687 6.402-10.687s-0.64-32.353-5.762-44.517c-5.121-12.164-17.926-43.535-22.407-54.419-0.574-1.392-1.138-2.723-1.691-4.002 0.206-3.874 0.502-7.743 0.847-11.574 0.729-8.1 2.146-16.084 3.143-24.144 0.662-5.348 1.119-10.681 2.967-15.568 3.613 11.093 4.055 23.619 7.036 34.762 4.241 15.852 9.624 31.488 14.751 47.072 5.271 16.025 11.651 32.344 13.156 49.285 0.609 6.852-1.08 13.862 0 20.647" style="fill:#fff"/></g></g><g clip-path="url(#clipPath294610)" style="opacity:.3"><g transform="translate(1144.9 1697.5)"><path d="m0 0c-10.886 0.874-20.076-6.389-26.62-15.463-6.257-8.677-4.348-17.966-6.494-27.373 0.695-1.629 1.495-3.214 2.365-4.769 8.518 16.774 19.29 32.456 30.749 47.605" style="fill:#fff"/></g></g><g clip-path="url(#clipPath294626)" style="opacity:.60001"><g transform="translate(1163.4 1756.5)"><path d="m0 0c-1.269 1.628-4.013 2.442-7.109 2.815 0.142-2.705 0.104-5.404-0.106-8.088 0.053-37.216-16.336-25.241-15.868-24.524-0.716 5.488 0.116 11.112 1.087 16.729 0.122 5.277 0.543 10.511 1.802 15.672-0.579-0.067-0.933-0.116-0.933-0.116s2.561 4.658-1.281 11.231c-1.067 1.827-3.136 2.496-5.549 2.545 1.093-8.008 0.922-16.035 0.393-24.071-0.017-1.949-0.154-3.867-0.418-5.737-0.597-7.757-7.03-13.7-13.152-12.62-0.632 8.291-1 31.446-2.045 39.699-0.073 0.576-8e-3 1.069 0.142 1.495-0.381 2.614-1.638 6.145-5.62 6.543-1.095 0.109-2.365-0.171-3.708-0.678 4.267-6.132 6.142-27.581 6.549-34.574 0.578-9.937-12.459-15.63-12.91-12.491-0.563 3.915-1.357 12.29-1.615 16.212-1.807 10.137-1.96 10.461-5.751 20.167-0.12 0.307-0.175 0.6-0.2 0.885-0.577-0.538-0.931-0.884-0.931-0.884s-0.588 8.44-7.206 7.414c5.015-6.496 8.247-26.32 9.527-33.464 1.254-7.004-11.228-15.132-13.622-10.478-3.645 7.086-2.598 7.554 1.497 16-0.715-0.215-5.15 7.339-5.904 7.218-0.396-0.173-0.79-0.348-1.192-0.514-0.357-3.172-0.841-6.322-1.64-9.425-0.591-2.295-2.664-6.508-2.625-7.934 0.054-1.968 2.12-5.003 2.598-7.078 0.574-2.495 0.916-5.132 0.821-7.694-0.397-10.656-8.229-12.575-15.713-6.023-0.389 0.34-0.635 0.711-0.821 1.09-2.664 2.394-6.276 6.146-9.895 11.5-7.043 10.417-8.323 14.258-18.567 15.539-8.308 1.038-12.825 2.497-15.943 1.304 8.895-2.773 17.278-6.63 24.113-13.349 8.944-8.793 13.809-21.342 24.356-28.525 9.802-6.675 22.179-8.245 31.108-16.441 6.336-5.816 10.619-13.456 13.578-21.542 2.352 10.696 4.389 22.183 11.883 29.428 7.111 6.875 19.639 9.934 25.466-0.214 9.635-16.784-10.966-37.236-21.389-47.664-5.86-5.863-5.172-14.881-6.273-22.672-1.184-8.382-2.714-16.71-3.998-25.076-2.569-16.733-3.802-33.631-5.656-50.45-3.195-29.001-8.045-58.811-23.259-84.231-7.223-12.069-18.835-35.325-34.744-36.802-1.866-0.173-3.521 1.681-3.521 3.45 0 1.561-3.002 6.034-3.665 7.743-1.102 2.841-2.034 5.749-2.831 8.69-1.701 6.285-2.717 12.8-3.323 19.278-1.188 12.725-0.801 25.714 0.688 38.398 0.187 1.594 0.413 3.179 0.647 4.763-1.632-2.344-3.765-4.519-6.597-6.171-7.682-4.482-10.883-9.603-23.688-10.244-12.804-0.64-34.572 4.776-34.572 4.776l-13.444 5.468s10.883-24.329 17.285-33.932c6.403-9.603 35.085-42.895 43.151-47.376 8.067-4.482 27.914-17.286 30.475-17.927 2.561-0.64 6.402-3.201 8.963-3.201s10.884 10.244 10.884 10.244 16.646 14.725 22.407 24.969c5.762 10.243 10.244 19.846 14.085 38.413 3.842 18.566 16.646 119.73 16.646 119.73l7.683 49.631s10.243 0.483 16.646 16.396c6.402 15.914 6.402 40.176 6.402 45.331v15.742s10.243 30.776 6.402 35.703" style="fill:#de9d5f"/></g></g><g transform="translate(1036.3 1504.3)"><path d="m0 0c-1.485-1.156-3.036-2.258-4.356-3.609-1.029-1.053-1.826-2.302-2.871-3.336-1.322-1.309-2.682-2.2-4.317-2.916-0.43-0.187-1.118-0.437-1.383-0.76 0.506 0.211 0.406-8.252-0.117-13.892-0.655-6.834-1.451-13.65-2.387-20.451-0.604-2.736-0.885-5.495-0.842-8.278 2.3 5.956 3.275 12.416 5.007 18.539 2.33 8.235 5.426 16.069 9.043 23.805 2.535 5.424 4.614 11.065 7.473 16.322-1.757-1.901-3.183-3.815-5.25-5.424m120.19 217.51c-1.789-2.309-2.753-5.912-5.321-7.643-3.408-2.297-7.606-0.628-11.224 0.389-2.608 0.733-5.578 0.742-5.161 3.058 0.541 3.009 4.621 5.049 4.791 8.866-1.652-0.524-3.862-5.417-5.288-6.712-1.525-1.385-3.071-2.301-5.004-3.069-5.194-2.063-11.288-0.646-16.647 0.385 1.715 5.256 9.151 7.827 8.377 14.46-4.229-7.01-9.422-15.174-18.749-13.679-3.516 0.563-3.73 0.497-3.488 2.948 0.071 0.724 9.049 10.851 5.314 10.633 0.197-0.131-6.028-8.404-8.033-9.51-3.937-2.171-7.004-1.56-10.334 1.547-1.824 1.702-4.41 5.4-4.901 7.938-0.626 3.23 1.451 7.256 0.796 10.679-2.923-5.113-2.608-9.457-0.876-14.614 2.625-7.82 3.109-11.495-3.292-17.104 5.262 3.011 9.633 6.052 15.39 5.597 24.298-1.921 16.005-14.468 17.206-30.891 0.14-1.918 5.569 24.158 8.163 24.969 12.351 3.859 26.809 2.081 36.26-5.344-0.516 5.997-1.331 11.424 2.021 17.097" style="fill:#bf8850"/></g><g transform="translate(933.81 1970.2)"><path d="m0 0 0.72-0.353c0.224-0.05 0.429-0.65 0.802-1.466-0.455 0.694-0.946 1.331-1.522 1.819m23.826-48.925c-7.913 11.718-13.342 23.782-18.321 36.962-0.876 2.32-1.69 5.628-2.982 8.357 0.026-0.036 0.045-0.071 0.071-0.107-0.68 1.658-1.624 7.057-3.65 7.263-0.587-1.549-0.041-3.475-0.359-5.13-0.227-1.183-0.605-2.142-0.707-3.362-0.541-6.447-1.16-12.909-2.148-19.307-2.017-13.069-7.626-25.112-9.972-38.044-1.198-6.605 3.002-8.697 7.245-13.031 8.284-8.459 16.061-17.852 23.504-27.073 6.518-7.652 11.756-16.084 15.715-25.297 0.51-3.098 1.597-5.931 3.262-8.498 2.632 10.853 0.704 23.721-1.746 34.379-2.142 9.314-5.463 18.058-9.812 26.446-1.854 2.118-3.924 3.969-6.266 5.391-0.584 0.354-0.55 1.016-0.235 1.438-0.348 0.742 0.758 1.681 1.604 1.056 1.498-1.106 2.891-2.247 4.239-3.409 0.462-0.171 0.888-0.479 1.268-0.955 0.058-0.049 0.121-0.085 0.171-0.151 0.125-0.164 0.25-0.328 0.375-0.493 2.735-2.54 5.166-5.255 7.369-8.224 2.044-1.903 4.1-3.793 6.19-5.648 4.614-4.195 9.265-8.35 13.953-12.463 1.964-2.702 4.453-4.394 7.466-5.076-13.447 17.521-23.89 36.698-36.234 54.976" style="fill:#a67a00"/></g><g clip-path="url(#clipPath294650)" style="opacity:.2"><g transform="translate(933.81 1970.2)"><path d="m0 0 0.72-0.353c0.224-0.05 0.429-0.65 0.802-1.466-0.455 0.694-0.946 1.331-1.522 1.819m23.826-48.925c-7.913 11.718-13.342 23.782-18.321 36.962-0.876 2.32-1.69 5.628-2.982 8.357 0.026-0.036 0.045-0.071 0.071-0.107-0.68 1.658-1.624 7.057-3.65 7.263-0.587-1.549-0.041-3.475-0.359-5.13-0.227-1.183-0.605-2.142-0.707-3.362-0.541-6.447-1.16-12.909-2.148-19.307-2.017-13.069-7.626-25.112-9.972-38.044-1.198-6.605 3.002-8.697 7.245-13.031 8.284-8.459 16.061-17.852 23.504-27.073 6.518-7.652 11.756-16.084 15.715-25.297 0.51-3.098 1.597-5.931 3.262-8.498 2.632 10.853 0.704 23.721-1.746 34.379-2.142 9.314-5.463 18.058-9.812 26.446-1.854 2.118-3.924 3.969-6.266 5.391-0.584 0.354-0.55 1.016-0.235 1.438-0.348 0.742 0.758 1.681 1.604 1.056 1.498-1.106 2.891-2.247 4.239-3.409 0.462-0.171 0.888-0.479 1.268-0.955 0.058-0.049 0.121-0.085 0.171-0.151 0.125-0.164 0.25-0.328 0.375-0.493 2.735-2.54 5.166-5.255 7.369-8.224 2.044-1.903 4.1-3.793 6.19-5.648 4.614-4.195 9.265-8.35 13.953-12.463 1.964-2.702 4.453-4.394 7.466-5.076-13.447 17.521-23.89 36.698-36.234 54.976" style="fill:#331c00"/></g></g><g clip-path="url(#clipPath294666)" style="opacity:.2"><g transform="translate(933.81 1970.2)"><path d="m0 0 0.72-0.353c0.224-0.05 0.429-0.65 0.802-1.466-0.455 0.694-0.946 1.331-1.522 1.819m40.134-74.467c-12.851 12.229-25.14 25.883-31.99 41.955-1.592-0.448-3.523 0.109-4.209 2.115-0.996 2.914-1.048 6.163-1.41 9.203-0.143 1.204 0.427 2.116 1.279 2.667-0.243 1.234-0.465 2.475-0.639 3.735-0.252 1.831 0.857 2.87 2.239 3.12-0.838 2.302-1.64 5.443-2.881 8.066 0.026-0.036 0.045-0.071 0.071-0.107-0.68 1.658-1.624 7.057-3.65 7.263-0.587-1.549-0.041-3.475-0.359-5.13-0.227-1.183-0.605-2.142-0.707-3.362-0.541-6.447-1.16-12.909-2.148-19.307-2.017-13.069-7.626-25.112-9.972-38.044-1.198-6.605 3.002-8.697 7.245-13.031 8.284-8.459 16.061-17.852 23.504-27.073 6.518-7.652 11.756-16.084 15.715-25.297 0.51-3.098 1.597-5.931 3.262-8.498 1.935 7.979 1.397 17.043 7e-3 25.522-6.183 15.395-16.564 29.304-26.519 42.394-0.292 0.383-0.374 0.751-0.364 1.098-1.93 2.2-3.848 4.37-5.72 6.509-1.651 1.887 1.047 4.726 2.705 2.832 1.493-1.706 3.012-3.431 4.541-5.173 0.319 1.304 1.86 2.232 3.142 1.011 1.797-1.711 3.481-3.487 5.11-5.295 0.214 9e-3 0.436-0.034 0.643-0.188 1.498-1.106 2.891-2.247 4.239-3.409 0.462-0.171 0.888-0.479 1.268-0.955 0.058-0.049 0.121-0.085 0.171-0.151 0.125-0.164 0.25-0.328 0.375-0.493 2.735-2.54 5.166-5.255 7.369-8.224 2.044-1.903 4.1-3.793 6.19-5.648 4.614-4.195 9.265-8.35 13.953-12.463 1.964-2.702 4.453-4.394 7.466-5.076-7.261 9.462-13.644 19.409-19.926 29.434" style="fill:#331c00"/></g></g><g transform="translate(939.33 1993.9)"><path d="m0 0c0.96-2.881 0.96-55.699 5.762-67.223s14.405-33.612 10.564-50.898c-3.842-17.286-17.286-83.549-16.326-88.35 0.96-4.802-5.762-23.048-8.643-24.969s-27.85-6.722-32.651-5.762c-4.802 0.96-60.501 33.612-68.184 40.334s-24.968 19.207-30.73 34.572-42.255 69.144-37.453 95.073c4.801 25.929 12.484 81.628 48.016 101.8s22.088 41.294 67.223 23.048c45.136-18.246 62.422-57.62 62.422-57.62" style="fill:#f7c7a1"/></g><g clip-path="url(#clipPath294686)" style="opacity:.3"><g transform="translate(814.46 1857.7)"><path d="m0 0c-2.567 13.042 1.465 29.087 13.505 39.447 0.242 4.693-7.719 10.345-1.651 19.92 1.332 2.102 5.677 3.116 4.656 3.652-9.763 5.122-10.564 5.911-14.245 15.002-4.03 9.951-5.494 15.84-6.284 26.525-1.695 22.915-1.215 45.983 3.184 68.568-1.251-0.792-2.547-1.586-3.942-2.378-35.533-20.167-43.215-75.866-48.017-101.8s31.691-79.708 37.453-95.073 23.048-27.849 30.731-34.572c4.062-3.554 21.549-14.358 37.838-23.893-9.392 10.924-18.412 22.258-26.328 34.169-10.391 15.636-23.267 31.97-26.9 50.428" style="fill:#fff"/></g></g><g clip-path="url(#clipPath294702)" style="opacity:.60001"><g transform="translate(945.09 1926.6)"><path d="m0 0c-4.802 11.524-4.802 64.342-5.762 67.223 0 0-17.286 39.374-62.422 57.62-27.261 11.02-33.156 7.668-41.376-1.151 7.804-3.229 15.901-7.895 19.361-15.434 16.115-20.444 28.196-44.004 33.812-69.519 2.701-12.271 3.711-24.647 3.86-37.187 0.084-7.098-0.241-14.674 1.646-21.572 0.307-1.121 0.707-2.203 1.145-3.268 0.165-0.177 0.337-0.336 0.491-0.539 4.549-6.022 14.068-20.455 14.913-20.829 6.345-2.804 11.41-0.722 14.596-7.301 4.371-9.024-7.204-20.984-8.029-21.17 1.308-2.371 3.259-3.934 6.128-6.739 2.449-2.394 3.933-4.737 4.087-8.233 0.245-5.578-2.604-11.875-5.326-17.348 10.654-10.533 2.704-25.322-8.885-33.752 3.819-8.694 5.081-18.613 4.543-28.447 6.131 1.214 11.56 2.594 12.813 3.429 2.881 1.921 9.603 20.167 8.643 24.969-0.96 4.801 12.484 71.064 16.326 88.35 3.841 17.286-5.762 39.374-10.564 50.898" style="fill:#e8ac72"/></g></g><g transform="translate(945.09 1926.6)"><path d="m0 0c-4.802 11.524-4.802 64.342-5.762 67.223 0 0-17.286 39.374-62.422 57.62-27.261 11.02-33.156 7.668-41.376-1.151 6.505-2.691 13.175-6.409 17.233-11.929 1.822 1.176 4.205 1.6 6.184 0.611 2.165-1.082 3.166-2.248 4.407-4.316 0.311-0.519 0.505-1.032 0.649-1.54 1.322-1.727 2.65-3.451 3.926-5.21 0.101-0.051 0.199-0.08 0.301-0.138 12.321-7.013 21.938-17.209 30.323-28.433 1.295 0.32 2.681 0.17 3.929-0.697 6.915-4.802 14.304-15.317 12.991-24.244-0.732-4.978-4.293-7.61-7.619-10.939-3.916-3.918-6.772-23.963-6.299-26.032 0 0 10.173 5.268 13.265 3.9 7.886-3.489 9.052-14.711 4.042-18.787 3.256-1.713 6.292-3.691 8.929-6.091 1.225-0.906 2.332-2.071 3.329-3.435 8.893-9.236 13.702-21.826 14.843-34.608 1.792-20.083-4.365-40.542-5.168-60.613-0.253-6.326-0.241-12.778-0.223-19.266 3.319 20.764 12.097 63.747 15.082 77.177 3.841 17.286-5.762 39.374-10.564 50.898" style="fill:#de9f66"/></g><g transform="translate(860.1 1963.6)"><path d="m0 0c0.068 0.191 0.135 0.382 0.203 0.573-1.616-0.729-3.122-1.659-4.724-2.411-3.307-1.554-6.866-2.437-10.389-3.335-9.308-2.374-18.645-4.53-28.206-5.573-6.277-0.686-11.752-2.804-17.473-5.44-3.543-1.632-6.971-3.464-10.408-5.309-0.677-0.363-3.632-1.519-4.084-2.42 8.017 2.145 16.737 0.838 24.958 0.854 9.499 0.019 19.077-0.393 28.53 0.692 7.111 0.817 15.157 3.443 18.627 10.364 1.584 3.161 2.905 7.009 2.829 10.566-0.021 0.98 0.148 2.465 0.137 1.439" style="fill:#a67a00"/></g><g clip-path="url(#clipPath294726)" style="opacity:.2"><g transform="translate(832.51 1948.8)"><path d="m0 0c-6.165-0.912-12.256-1.83-18.313-2.821-6.005-2.007-12.067-3.781-18.232-5.086 4.689 0.014 9.43-0.373 14.018-0.364 9.498 0.019 19.076-0.394 28.529 0.692 7.111 0.817 15.158 3.443 18.627 10.364 1.585 3.16 2.905 7.008 2.829 10.565-4e-3 0.184 0 0.385 7e-3 0.584-6.087-9.033-16.775-12.353-27.465-13.934" style="fill:#331c00"/></g></g><g transform="translate(935.01 1979)"><path d="m0 0c0.037 0.121 0.074 0.243 0.111 0.364-2.253 0.685-5.255 0.923-7.463 1.236-4.734 0.67-9.779 1.073-14.442-0.347-6.6-2.01-12.554-5.609-18.094-9.627-1.939-1.406-3.089-1.892-2.773-4.344 0.41-3.177 0.799-6.317 1.033-9.518 0.111-1.523-0.127-3.731 0.375-5.142 5.11 5.288 10.503 9.983 16.83 13.824 5.735 3.482 12.162 6.011 17.723 9.751 1.706 1.147 3.407 2.393 5.062 3.588 1.218 0.879 1.363 0.76 1.638 0.215" style="fill:#a67a00"/></g><g clip-path="url(#clipPath294746)" style="opacity:.2"><g transform="translate(930.76 1980.2)"><path d="m0 0c-0.173-0.099-0.336-0.203-0.529-0.292-7.841-3.629-16.368-6.468-24.354-10.164-4.578-3.086-8.77-6.737-12.705-10.741 0.07-0.746 0.156-1.488 0.211-2.239 0.111-1.523-0.126-3.731 0.376-5.142 5.11 5.288 10.503 9.982 16.829 13.823 5.735 3.483 12.162 6.011 17.724 9.752 1.705 1.147 3.406 2.392 5.062 3.587 1.217 0.879 1.363 0.761 1.638 0.215 0.037 0.122 0.074 0.243 0.111 0.364-1.306 0.397-2.855 0.639-4.363 0.837" style="fill:#331c00"/></g></g><g transform="translate(841.61 1902.2)"><path d="m0 0c-7.843-2.53-15.349-2.327-23.302-3.413 12.803-6.266 39.074-3.848 45.796 11.19-1.501 0.028-2.295-0.363-3.041-0.608 0.099 0.247 1.875 3.183 0.026 2.762-2.107-1.336-2.107-1.336-2.907-2.042 1.157 0.057-12.932-6.715-16.572-7.889"/></g><g transform="translate(915.13 1924.3)"><path d="m0 0c-6.006-2.953-11.991-3.351-18.215-4.977 10.748-4.795 34.012 0.451 35.812 13.775-2.424 0.045-2.212-0.362-2.783-0.647 0.056 0.235 1.137 3.723-0.294 3.19-1.364-1.102-2.96-3.351-3.532-4.066-2.034-3.398-8.201-5.905-10.988-7.275"/></g><g transform="translate(924.61 1802.4)"><path d="m0 0c0.029 0.196 0.058 0.393 0.086 0.589 0.908 0.086 2.576-1.418 3.088-1.775 4.177-2.918 6.67-6.066 8.344-11.084 3.139-9.402 4.937-20.259 3.243-30.115-0.059 1.75-1.055 3.495-1.721 5.074-1.268 3.011-2.458 6.025-3.442 9.141-0.313-7.092 0.108-13.378-1.852-20.409-1.825-6.546-4.803-13.36-8.956-18.796-0.111 0.829-0.023 1.645 0.266 2.448 0.529 2.472 0.767 4.98 0.712 7.526 0.024 3.968 0.175 8.531-0.83 12.368-0.994-4.93-1.902-9.924-2.66-14.892-0.285-1.873-0.237-8.507-2.077-9.137-2.687 4.49-5.148 9.099-7.945 13.523-1.61 2.546-3.681 6.835-6.624 8.043 0.467-3.005 1.257-5.886 1.632-8.907-1.551-1.055-2.794-0.364-3.728 2.072-2.128 2.504-4.102 5.121-5.924 7.852-2.997 4.296-5.519 8.836-8.169 13.346 0.504-4.882 0.722-9.825 1.86-14.61-0.811-0.159-1.657 1.795-2.038 2.339-2.499 3.575-5.044 7.202-7.081 11.065-1.974 3.743-3.001 7.865-2.982 12.132 7e-3 1.438 0.355 2.804 0.564 4.213 0.16 1.076-0.048 2.198 0.172 3.245 0.45 2.135 1.679 2.243 3.675 2.277 10.151 0.176 20.918 1.438 30.308 5.346 3.127 1.302 5.864 2.913 8.433 5.104 1.217 1.038 2.332 2.419 3.653 3.322 1.394 0.953 2.145-0.27-7e-3 -1.3" style="fill:#a67a00"/></g><g clip-path="url(#clipPath294774)" style="opacity:.2"><g transform="translate(918.73 1742.2)"><path d="m0 0c0.292-2.652 0.59-5.303 0.891-7.955 1.013 2.001 1.024 6.738 1.259 8.275 0.754 4.947 1.658 9.921 2.648 14.832-0.334 5.291-1.393 10.408-3.672 14.841 1.843-9.712 0.09-19.963-1.126-29.993m17.39 47.975c-1.675 5.017-4.167 8.165-8.345 11.083-0.405 0.283-1.529 1.273-2.433 1.635 1.166 0.887 0.46 1.667-0.734 0.852-1.321-0.903-2.436-2.285-3.653-3.322-2.569-2.192-5.306-3.802-8.433-5.104-8.624-3.59-18.405-4.935-27.809-5.268 14.417-5.092 32.618 3.399 40.178-14.122 3.988-9.242 5.108-20.908 3.933-31.692 1.452 3.145 2.628 6.418 3.523 9.628 1.96 7.032 1.539 13.318 1.852 20.41 0.984-3.116 2.174-6.13 3.443-9.141 0.665-1.579 1.661-3.324 1.72-5.075 1.694 9.856-0.104 20.713-3.242 30.116m-31.598-35.386c-2.517 5.572-4.905 12.252-5.465 17.923-0.117-0.207-0.222-0.419-0.319-0.633 0.604-6.985 0.153-14.061 1.029-21.007 0.774-0.998 1.551-1.994 2.37-2.958 0.934-2.437 2.177-3.128 3.728-2.072-0.375 3.02-1.165 5.901-1.632 8.906 0.1-0.041 0.191-0.112 0.289-0.159m-19.039 23.204c-0.372 0.289-0.778 0.617-1.219 0.985 0.118-0.465 0.236-0.928 0.329-1.453 0.606-3.445 0.083-6.836-0.19-10.251 0.642-2.776 1.387-5.545 2.133-8.322 0.443-0.638 0.887-1.277 1.33-1.911 0.381-0.545 1.227-2.498 2.038-2.34-0.537 2.259-0.861 4.555-1.115 6.861-1.861 5.3-3.184 10.75-3.306 16.431" style="fill:#331c00"/></g></g><g transform="translate(854.82 2034.2)"><path d="m0 0c-0.18 0.7-0.08 1.349 0.298 1.948 1.443-1.865-2.707-17.958-2.254-15.5-3.386-18.365-6.061-36.928-8.745-55.404-1.993-13.722-3.863-27.378-4.511-41.246-0.337-7.23-0.442-14.466-1.29-21.659-2.602-0.447-9.822 39.69-9.759 39.341-3.678 20.453-6.103 41.543-5.384 62.359-1.845-20.014-5.328-39.661-9.54-59.3-5.243-24.454-11.668-49.233-20.292-72.749-2.478 1.502-2.876 4.118-1.193 7.846-0.424 7.152-0.785 14.307-1.082 21.466-0.637 14.173-0.637 28.384-1.631 42.537-2.087-2.992-3.198-6.401-3.332-10.226-2.02-9.358-4.043-18.716-6.068-28.073-3.134-15.514-4.68-30.655-4.864-46.468-0.16-13.786-0.734-27.549-0.999-41.332 0.157-6.039-0.158-12.051-0.945-18.034 0.382-1.975-0.048-3.574-1.291-4.798-4.959 15.7-9.28 32.28-11.489 48.613-1.739-5.241-1.594-11.109-2.832-16.458-1.867-8.064-4.657-15.651-8.947-22.758-6.339-10.502-13.714-21.213-21.913-30.377 2.534 12.1 2.263 23.636 1.581 35.917-0.499 8.984-1.602 17.949-2.038 26.926-0.232 4.76 0.074 9.55-0.337 14.289-1.728-0.197-3.169-14.608-3.688-17.139-2.08-10.131-4.96-20.243-5.756-30.577-1.062 9.745-6.612 18.665-10.412 27.44-4.225 9.755-6.97 19.009-8.008 29.68-1.526 15.686-2.403 33.399 3.841 48.212-3.682-7.209-7.856-14.039-12.179-20.888-2.493-3.949-5.018-7.871-7.793-11.629-1.112-1.507-2.873-4.8-4.728-5.6 4.579 17.761 12.317 34.636 17.192 52.357 2.208 8.025 3.228 16.278 5.363 24.307 1.309 4.92 3.212 9.69 3.435 14.829-5.391-12.953-13.368-24.539-18.465-37.675-0.459 9.53 0.475 19.125 0.807 28.642 0.472 13.481-0.023 26.809 2.905 40.092 3.767 17.087 11.887 34.398 24.415 46.771 11.596 11.452 25.651 17.959 40.932 22.979 8.466 2.782 16.96 5.095 25.678 6.887 6.432 1.321 12.599 3.349 19.171 3.905 12.688 1.075 26.398 2.232 39.013 0.058 16.538-2.851 32.959-8.651 48.905-13.718 13.329-4.236 25.381-9.733 37.472-16.792 9.784-5.713 19.421-11.438 27.724-19.272 11.753-11.091 19.389-24.263 24.076-39.663 2.084-7.528 3.93-15.114 5.539-22.757 1.075-2.986 1.489-6.02 1.242-9.102-6.948 15.668-15.26 29.774-26.679 42.572 0.811-2.117 1.753-4.179 2.825-6.184 3.151-9.092 5.181-18.439 6.09-28.039 0.957-10.545 2.315-21.037 4.075-31.476 1.221-5.699 2.212-11.437 2.973-17.212-1.379-0.381-10.359 24.783-8.388 19.686-5.085 13.152-9.412 26.65-14.687 39.725-2.445 6.062-4.494 12.229-6.795 18.335 0.577-7.658 2.499-15.068 4.545-22.446 1.205-4.523 2.529-9.011 3.972-13.465 0.32-2.022-15.902 23.362-25.994 36.643-4.963 6.532-9.703 13.215-14.85 19.607-2.616 3.249-5.066 6.928-8.08 9.802 0.977-2.814 3.289-5.234 4.94-7.689 5.018-7.459 9.224-15.897 12.206-24.337 3.41-9.654 5.933-19.617 8.146-29.603-0.02 0.089 4.361-15.977 2.818-19.56-2.741 5.846-4.496 12.049-6.797 18.068-7.027 18.378-19.578 33.305-33.602 46.75-9.472 9.08-19.344 17.886-30.251 25.222-3.202 2.154-8.47 3.764-10.913 6.698 0.837 0.523 1.764 0.728 6.622-1.304" style="fill:#a67a00"/></g><g clip-path="url(#clipPath294794)" style="opacity:.2"><g transform="translate(774.18 1817.7)"><path d="m0 0c0.257 13.376 0.798 26.735 0.977 40.114-0.076-0.626-0.151-1.252-0.222-1.874-0.668-5.859-1.003-11.758-1.767-17.605-0.898-6.872-0.211-20.73-1.531-30.333-0.169-1.229-6.707 36.43-12.275 48.789-0.315-4.479-0.129-9.147-1.97-13.242-0.016-0.034-0.041-0.05-0.058-0.08-0.762-9.645-0.462-25.864-17.508-49.392-0.599-0.827 5.983 19.048 6.388 25.003 0.152 2.24-0.565 6.39-0.632 8.632-1.333-6.435-3.715-15.629-5.516-26.192-0.158-0.929 0.987 44.364 1.64 55.363-0.756 6.363-1.837 12.657-3.914 18.744-1.559-12.712-2.172-43.789-3.258-56.547-0.088-1.042-3.979 37.742-2.46 47.582-0.229 7.591-0.313 15.181-0.066 22.766-4.682-10.85-9.716-21.55-13.259-32.847-0.312-0.994 1.646 16.731 5.125 24.436 2.658 8.007 5.521 15.944 8.626 23.797-1.038-0.923-2.006-1.928-2.923-2.991 0.066-0.273 0.034-0.575-0.18-0.852-1.718-2.217-3.475-4.505-5.206-6.858-0.405-0.634-0.791-1.277-1.172-1.924-0.707-1.244-1.387-2.481-2.056-3.707-2.954-5.727-5.29-11.802-7.884-17.749-1.522-4.167-7.592-12.234-7.708-11.618-1.445 7.658 0.371 15.256 1.489 22.834 1.175 7.959 2.745 15.84 4.192 23.748-6.897-13.636-9.852-29.411-11.071-44.464-0.312-3.856-0.335-7.67-0.18-11.459 1.434-6.484 3.55-12.653 6.312-19.03 3.8-8.774 9.349-17.695 10.411-27.44 0.797 10.334 3.676 20.446 5.756 30.577 0.52 2.532 1.96 16.942 3.689 17.139 0.41-4.739 0.105-9.529 0.336-14.289 0.436-8.977 1.54-17.942 2.039-26.926 0.682-12.281 0.952-23.816-1.582-35.917 8.2 9.164 15.574 19.875 21.914 30.378 4.29 7.106 7.08 14.693 8.946 22.757 1.238 5.349 1.093 11.217 2.833 16.458 2.208-16.333 6.53-32.913 11.488-48.613 1.244 1.224 1.674 2.823 1.292 4.798 0.786 5.983 1.101 11.995 0.945 18.034" style="fill:#331c00"/></g></g><g clip-path="url(#clipPath294810)" style="opacity:.2"><g transform="translate(682.79 1888.4)"><path d="m0 0c-2.054-5.911-3.991-11.852-5.55-17.9 1.855 0.8 3.616 4.093 4.728 5.6 2.775 3.757 5.3 7.68 7.793 11.629 4.323 6.849 8.498 13.679 12.179 20.888-0.822-1.95-1.514-3.952-2.104-5.992 2.346 5.343 4.937 10.576 7.349 15.699 1.483 7.625 2.932 15.257 4.381 22.89-6.632-19.13-17.071-36.363-28.776-52.814m236.01 99.47c-2.755 7.796-6.563 15.581-11.082 22.604-9.482 10.147-20.623 18.738-33.667 25.487 20.357-17.519 35.894-43.016 45.027-65.954 0.528-1.326 0.223-2.537-0.503-3.479 1.631-3.144 3.106-6.39 4.392-9.753 2.301-6.019 4.056-12.222 6.797-18.068 1.543 3.583-2.838 19.649-2.818 19.56-2.213 9.986-4.736 19.949-8.146 29.603m62.605-26.42c-1.608 7.643-3.455 15.229-5.539 22.757-4.687 15.4-12.323 28.572-24.076 39.663-8.302 7.834-17.94 13.559-27.724 19.271-12.091 7.06-24.143 12.557-37.472 16.792-15.946 5.068-32.367 10.867-48.905 13.718-12.474 2.151-26.014 1.043-38.582-0.021-2.417-0.829-4.784-1.638-6.878-2.568-4.997-2.218-9.76-4.571-14.247-7.353-0.607-1.634-1.87-3.054-3.967-3.767-0.455-0.155-0.893-0.34-1.346-0.5-0.715-1.244-1.927-2.252-3.776-2.701-0.158-0.039-0.312-0.091-0.47-0.131-0.81-0.723-1.615-1.454-2.398-2.233-15.137-15.039-27.294-35.7-28.943-57.303-0.013-0.173-0.062-0.322-0.086-0.489-2.619-28.28-8.166-56.172-13.915-84.017-3.491-16.908-7.232-33.681-11.179-50.483-1.968-8.376-4.061-16.924-3.737-25.578 0.169-4.549 0.889-8.94 1.473-13.336 3.069-6.374 6.124-12.918 6.884-19.886 0.796 10.333 3.676 20.446 5.756 30.577 0.519 2.531 1.96 16.942 3.688 17.139 0.411-4.739 0.105-9.529 0.337-14.29 0.435-8.976 1.539-17.941 2.038-26.926 0.682-12.281 0.953-23.816-1.581-35.916 8.199 9.164 15.574 19.875 21.913 30.377 4.29 7.107 7.08 14.694 8.947 22.758 1.238 5.349 1.093 11.217 2.832 16.458 2.209-16.333 6.531-32.913 11.489-48.613 1.243 1.224 1.673 2.823 1.292 4.798 0.786 5.983 1.101 11.994 0.944 18.034 0.265 13.783 0.839 27.546 0.999 41.332 0.184 15.813 1.73 30.953 4.864 46.468 2.025 9.357 4.048 18.715 6.068 28.073 0.109 3.105 0.895 5.92 2.291 8.476 0.051 1.58 0.115 3.158 0.2 4.736-9.161-16.756-17.06-33.662-17.791-53.474 0.022-1.013-7e-3 -2.056-0.096-3.157-0.433-5.345-8.466-5.637-8.479-0.087-4e-3 1.414 0.06 2.799 0.122 4.185-0.077 0.599-0.218 1.192-0.381 1.782-0.699 1.304-1.11 2.246-1.497 3.791-0.015 0.06-0.014 0.117-0.026 0.176-0.606 1.602-1.177 3.23-1.718 4.881-1.41 0.504-2.451 1.745-2.262 3.751 0.096 1.025 0.163 2.055 0.221 3.086-14.044 52.96 2.903 125.39 56.629 146.36 1.511 0.59 2.766 0.273 3.664-0.5 4.417 1.393 9.174 2.228 13.536 1.733 8.098 1.312 16.849 0.744 25.63-1.086 0.181 9e-3 0.354 0.031 0.549 0.018 25.451-1.67 50.329-13.918 69.468-30.43 17.984-15.515 27.595-36.021 32.894-58.299 1.73-4.911 3.226-9.886 4.46-14.925 1.123-3.307 2.17-6.635 3.143-9.983-0.697 5.356-1.293 10.724-1.781 16.107-0.91 9.6-2.94 18.947-6.091 28.039-1.073 2.005-2.014 4.067-2.825 6.184 11.419-12.798 19.731-26.904 26.679-42.572 0.247 3.082-0.167 6.116-1.242 9.102m-33.527-0.584c-0.672 1.171-0.721 2.315-0.393 3.31-0.292 1.045-0.6 2.085-0.879 3.133-1.722 6.212-3.347 12.448-4.165 18.834-4.054 7.344-8.78 14.216-14.062 20.646 4.528-8.932 7.953-18.551 10.958-28.264 2.923-6.019 5.57-12.269 7.911-18.762 0.278-0.769 0.325-1.457 0.23-2.073 1.991-2.84 3.189-4.409 3.1-3.846-0.518 1.598-1.002 3.206-1.49 4.813-0.406 0.736-0.791 1.48-1.21 2.209m-112.19-26.404c1.019-10.03 2.005-20.062 2.826-30.106 0.646 6.509 0.788 13.048 1.093 19.583 0.648 13.868 2.518 27.524 4.511 41.246 2.684 18.476 5.359 37.039 8.745 55.404-0.286-1.548 1.25 4.254 2.069 9.232-3.781 4.024-7.554 8.055-11.103 12.288-6.214-35.691-9.567-71.642-8.141-107.65m-24.436 53.658c-2.313-15.862-6.204-31.572-9.493-47.291-2.135-19.66-3.215-39.402-4.983-59.105 6.93 20.55 12.337 41.871 16.858 62.956 3.42 15.949 6.343 31.906 8.315 48.057-0.403 6.543-0.709 13.091-0.877 19.647-3.423-8.026-7.018-15.99-9.82-24.264m-111.28-33.212c0.256 0.847 0.506 1.696 0.787 2.536 4.806 20.124 10.653 39.975 16.098 59.931-5.526-7.674-10.239-16.02-13.955-24.97-5.708-13.75-8.199-27.556-10.864-42.094-1.591-8.673-3.621-17.114-7.309-24.906 0.013-0.362 0.016-0.725 0.034-1.087 4.149 10.696 10.191 20.375 15.209 30.59" style="fill:#331c00"/></g></g><g clip-path="url(#clipPath294826)" style="opacity:.3"><g transform="translate(914.79 1774.5)"><path d="m0 0c-1.694 4.507-4.197 6.901-8.128 9.298 0.392-1.061 2.416-4.058 0.757-4.766-2.169 2.403-4.385 4.738-7.436 6.04-1.181 0.504-2.924 1.221-4.197 0.71-0.044-1.076 0.889-1.975 1.045-3.05-3.149-0.408-6.27 3.727-9.355 4.328-2.043 0.398-1.465-1.357-2.534-2.537-1.391 0.154-1.67 3.017-3.249 2.56-0.41-0.119-0.963-1.023-1.27-1.808h-3e-3c-3.081-3.112-0.86-10.823 0.838-14.233 1.733 3.558 0.293 8.02 2.488 11.509 0.687-0.714 1.091-1.59 1.212-2.629 0.681-1.99 1.405-3.964 2.174-5.921 1.213-3.165 2.521-6.295 3.709-9.469-1.667 4.095-2.651 8.71-1.663 13.078 1.221-3.906 1.96-7.819 3.415-11.692 0.765-2.035 1.576-6.337 3.628-7.429-0.794 7.353-2.909 15.054-0.356 22.232 6.48-7.262 8.742-16.537 12.752-25.143 0.018 5.619-2.537 11.11-2.621 16.782 2.627-4.265 3.503-9.592 4.896-14.359 1.03-3.522 2.402-7.056 2.896-10.706-0.061 8.389-1.078 16.826-1.823 25.178 1.289-0.75 1.901-2.039 1.834-3.867 1.069-2.959 1.878-5.985 2.426-9.077 0.137-0.562 0.218-1.133 0.335-1.699-0.036 0.796-0.071 1.593-0.111 2.386-0.225 4.491-0.035 9.964-1.659 14.284m1.77-16.67c0.16-3.502 0.329-7.017 0.883-10.474 0.527 1.085 0.559 2.258 0.096 3.521-0.147 2.347-0.504 4.66-0.979 6.953m-172.26 298.09c-0.287-0.149-0.558-0.337-0.822-0.541 0.615 0.033 1.231 0.036 1.86-0.028 0.434 0.168 0.36 1.297-1.038 0.569m-18.887-7.178c-4.905-3.511-8.836-8.458-12.63-13.082-2.65-3.23-5.551-6.399-7.799-9.935-6.445-10.135-9.633-21.634-11.919-33.329-1.722-8.808-3.17-17.68-4.806-26.506 2.19 8.991 3.704 18.148 6.474 26.998 2.998 9.576 7.389 18.127 13.236 26.246-3.057-6.595-6.246-13.045-8.366-20.019 1.71 2.484 3.114 5.176 4.671 7.76 2.668 4.423 5.554 8.569 8.856 12.549 3.379 4.073 6.722 8.054 11.122 11.064-0.18-1.097-0.65-2.086-1.411-2.968-1.688-3.467-3.115-7.04-4.279-10.719-2.256-6.899-4.087-13.925-5.776-20.981-1.7-7.099-3.392-14.219-4.932-21.354-1.391-6.448-3.109-12.905-4.264-19.395 2.249 3.538 3.814 7.439 5.495 11.269 1.604 3.656 3.073 7.354 4.442 11.096-0.676-2.044-1.232-4.134-1.823-6.196-2.096-7.307-4.086-14.653-6.351-21.909-2.893-9.264-5.806-18.538-9.494-27.518 1.551 1.503 2.68 3.324 3.384 5.462 3.213 6.062 6.222 12.222 9.027 18.483 3.186 7.094 5.958 14.188 8.311 21.584-1.319-10.529-1.92-21.122-3.161-31.661-0.821-6.968-1.907-13.88-3.157-20.784-0.779-4.303-1.674-8.631-2.037-12.993 2.901 9.596 6.638 18.937 8.804 28.738 2.55 11.535 3.121 23.311 3.886 35.067 0.539 8.275-0.307 16.603-1.055 24.847-0.3 3.305-0.641 6.629-0.352 9.952 0.348 4.006 1.428 7.963 2.532 11.81 2.195 7.643 5.208 15.14 8.282 22.464 1.364 3.25 2.719 6.532 4.365 9.654 1.259 2.388 2.564 4.862 4.655 6.626 1.434 1.209 2.617 3.143 4.135 4.317-0.677-0.037-1.353-0.11-2.043-0.201-5.462-0.722-11.599-3.269-16.022-6.436m122.96-1.507c6e-3 -0.014 0.011-0.028 0.016-0.043l0.026-0.016c-0.013 0.02-0.028 0.039-0.042 0.059m66.278-15.78c-12.153 9.213-26.192 16.909-41.211 20.182-7.628 1.661-15.283 2.177-22.979 3.254-1.202 0.169-2.2 0.413-3.361 0.469-0.494 0.025-0.958-0.042-1.44 0.141 2.797-1.334 6.368-3.875 8.242-6.463-1.204 0.01-2.451 0.84-3.534 1.308-1.544 0.667-3.113 1.33-4.729 1.803 1.556-0.942 2.748-3.091 3.887-4.427 0.645-0.757 1.364-1.517 1.945-2.305-1.06 0.509-2.066 1.123-3.056 1.759 0.356-0.544 0.743-1.062 1.116-1.592-0.264 0.317-0.574 0.682-0.959 1.124-0.061 0.161-0.122 0.323-0.183 0.484-0.428 0.276-0.86 0.546-1.282 0.829 0.122-0.828 0.595-1.49 1.42-1.986 0.897-1.006 1.863-1.906 2.019-1.897 5.317-7.083 12.165-12.921 19.403-17.965 6.35-4.425 12.892-8.506 18.926-13.38 2.728-2.205 5.429-4.376 7.705-7.061-2.773 3.197-5.235 6.596-8.045 9.793-5.083 5.784-10.413 11.346-15.502 17.125-3.193 3.626-6.332 7.283-9.543 10.891 1.192-0.235 2.33-0.642 3.414-1.221 3.879-1.777 7.683-3.703 11.412-5.778 6.477-3.598 12.498-7.892 18.888-11.614-2.532 4.324-6.766 7.702-10.242 11.237 2.756-1.175 5.088-3.075 7.455-4.874 5.618-4.272 10.929-9.223 15.726-14.382 6.757-7.266 13.21-14.939 16.837-24.281-1.051 5.38-3.829 10.412-6.2 15.303-2.442 5.036-5.123 9.915-7.767 14.841 3.479-3.858 6.842-7.8 10.242-11.725-1.525 5.491-5.848 10.17-9.327 14.547 1.776 0.12 3.176-0.85 4.199-2.91 3.236-2.661 6.32-5.486 9.252-8.474 3.387-3.14 6.509-6.529 9.366-10.168 1.131-2.01 2.518-3.798 4.16-5.366-5.902 13.006-14.874 24.152-26.254 32.779m-76.006 8.53c0.258 2.579-0.356 5.129-0.129 7.675-0.016-0.375-0.179-0.693-0.489-0.954-1.105-1.341-2.016-2.807-2.732-4.4-2.025-4.093-3.323-8.59-4.611-12.956 0.336 4.028 0.653 8.061 1.148 12.074 0.496 4.031 1.553 7.814 2.191 11.79-3.351-1.95-5.502-5.226-7.632-8.377-3.155-4.669-5.371-10.014-8.155-14.912 1.338 4.267 3.428 8.17 5.12 12.291-4.531-5.72-8.403-11.869-12.082-18.162-2.548-4.12-4.794-8.402-6.737-12.848-0.505-0.708-0.87-1.432-1.172-2.165 0.265 2.3 0.462 4.607 0.522 6.93 0.278 5.52 1.445 10.818 3.501 15.894 1.22 4.689 3.302 8.984 6.244 12.887 1.595 1.845 3.12 3.744 4.575 5.698-5.314-2.715-10.608-5.428-15.517-8.833-4.818-3.34-8.692-7.217-12.144-11.947 2.804 5.789 5.661 11.547 8.661 17.237-0.616 0.42-5.122-4.245-5.826-4.919-3.805-3.642-7.72-7.746-11.118-11.777-5.856-6.95-10.857-15.049-15.298-22.974-5.67-10.115-6.616-23.134-6.762-34.466-0.09-7.021 0.166-14.035 0.351-21.052 0.165-6.261-0.094-12.581 1.512-18.657 3.461 6.088 4.38 13.745 5.849 20.535 1.634 7.549 3.189 15.109 5.588 22.458-0.586-8.422-1.399-16.81-1.831-25.244-0.286-4.297-0.418-8.598-0.397-12.902-0.407-1.424-0.262-2.73 0.436-3.919 3.103 10.978 4.868 22.231 8.48 33.096 3.988 11.992 9.943 23.175 13.774 35.214-0.735-6.367-2.381-12.615-3.212-18.983-1.302-9.98-1.91-20.159-0.79-30.181 3.687 7.814 3.556 17.098 5.411 25.418-0.313-8.306-0.606-16.613-0.638-24.926-9e-3 -2.165-0.804-11.167 1.073-14.151 2.64 8.799 2.927 18.173 5.265 27.087 2.478 9.445 6.546 18.36 9.892 27.505 2.651 7.247 5.114 14.56 7.836 21.782 1.235 3.279 3.366 7.169 3.917 10.72-1.46-6.632-0.656-14.102 0.044-20.776 0.753-7.183 2.381-14.268 3.195-21.451 0.45-3.976 0.25-8.283 1.53-12.073 0.423 5.033 0.428 10.046 0.496 15.095 0.039 2.853-0.466 6.521 0.495 9.2 0.589-5.335 1.097-10.676 1.619-16.018 0.328-3.358 0.3-6.971 1.354-10.19 0.406 5.263 0.241 10.535 0.365 15.808 0.198 8.438 1.193 16.845 2.438 25.184 1.021 6.844 2.38 13.679 3.701 20.471 0.481 2.472 1.502 5.915 1.493 8.645-1.174-3.797-1.349-4.247-1.488-4.71 0.048 1.403 0.543 2.829 0.684 4.229" style="fill:#fff"/></g></g><g transform="translate(799.7 2082.7)"><path d="m0 0c10.418 4.127 21.264 5.655 32.384 5.263 15.739-0.555 54.097-6.518 55.479-28.249-9.737 3.134-17.859 5.397-25.725 8.156-10.429 3.658-23.012 7.185-33.864 4.881-23.256-4.936-44.357-23.188-60.634-39.719-16.2-16.451-22.25-40.625-20.416-63.169 1.106-13.582 4.751-26.851 7.624-40.13 1.785-8.252 0.917-8.325 9.208-8.992 5.942-0.479 12.741-1.302 18.347-3.418 20.56-7.76 28.505-39.107 27.301-58.776-1.449-23.684-26.471-44.199-49.9-34.603-21.76 8.912-35.673 35.767-34.678 58.777 0.403 9.316-2.743 21.016 10.784 30.619 3.432 2.438-4.459 20.651-5.634 24.904-7.201 26.061-7.523 56.56 3.421 81.593 5.345 12.226 12.016 21.932 21.29 31.36 1.339 1.362 15.336 15.266 16.907 16.327 0.579 0.03 20.163 12.03 28.106 15.176" style="fill:#2e2e39"/></g><g clip-path="url(#clipPath294846)" style="opacity:.3"><g transform="translate(847.83 2077.5)"><path d="m0 0c-27.789 2.273-55.266-9.859-76.365-27.347-20.442-16.943-33.146-38.506-34.993-65.244-1.202-17.406 1.521-34.818 6.755-51.421 0.727-0.373 1.331-1.04 1.627-2.071 1.581-5.505 3.701-10.82 5.282-16.326 0.048-0.167 0.066-0.322 0.093-0.481 0.23-0.121 0.431-0.258 0.606-0.407 0.366-0.012 0.724 7e-3 1.093-0.017 18.261-1.211 29.597-16.311 33.863-32.837 4.515-17.491 3.91-37.502-0.878-54.901-0.227-0.824-0.476-1.657-0.732-2.49 13.673 5.481 24.294 19.346 25.224 34.528 1.203 19.67-6.742 51.016-27.302 58.777-5.606 2.116-12.404 2.939-18.347 3.417-8.29 0.668-7.423 0.741-9.208 8.992-2.873 13.279-6.518 26.548-7.623 40.131-1.835 22.544 4.215 46.718 20.415 63.169 16.277 16.53 37.378 34.782 60.635 39.719 10.851 2.303 23.434-1.223 33.863-4.881 7.866-2.759 15.989-5.023 25.725-8.156-0.186 2.93-1.063 5.565-2.448 7.947-11.898 5.133-24.308 8.838-37.285 9.899"/></g></g><g clip-path="url(#clipPath294862)" style="opacity:.2"><g transform="translate(731.26 2003.5)"><path d="m0 0c-0.113-1.162-0.757-2.448-1.12-3.537-1.036-3.109-1.678-6.289-2.063-9.54-0.824-6.957-0.927-14.192-0.609-21.193 0.236-5.199 0.61-10.436 1.551-15.559 0.381-2.076 0.705-4.159 0.983-6.251 0.128-0.961 0.052-2.359 0.56-3.196 0.526 1.763-0.554 3.809-0.232 5.638 0.158 0.892 0.672 1.256 0.946 2.042-0.274-3.175 0.466-6.556 1.633-9.476 0.238-0.595 1.579-3.874 2.462-4.438 0.291-0.185 0.608-0.133 0.922-0.202 0.715-0.157 1.727-0.575 2.356 0.03 0.643 0.619 0.283 2.052 0.203 2.686-0.42 3.317-1.041 6.612-1.516 9.922-0.907 6.308-2.115 12.75-2.233 19.129-0.102 5.478-0.114 10.994 9e-3 16.472 0.126 5.629 1.242 10.843 2.679 16.261 0.925 3.488 1.668 7.03 2.723 10.483 1.02 3.34 2.335 6.574 3.649 9.806-0.76-0.139-2.538-3.573-2.951-4.251-2.315-3.801-4.485-7.805-6.276-11.877-0.841-1.912-1.585-3.854-2.354-5.794-0.115-0.289-0.396-1.302-0.781-1.571-0.376 1.46-0.106 2.933 0.147 4.397-0.236-1.063-0.779-2.739-0.688 0.019" style="fill:#fff"/></g></g><g clip-path="url(#clipPath294878)" style="opacity:.2"><g transform="translate(752.07 1906.9)"><path d="m0 0c-0.01 0.176-0.021 0.352-0.031 0.528-3.749 1.821-8.861-1.184-11.713-3.505-6.53-5.314-9.672-13.287-9.119-21.578 0.597-8.961 3.12-18.485 6.692-26.723 1.366-3.151 3.061-5.956 5.115-8.707 0.824-1.245 1.77-2.389 2.836-3.432 0.763-1.261 1.87-2.019 3.321-2.275 0.571 3.164 0.319 6.308-0.756 9.432-1.009 6.005-1.553 12.051-1.635 18.139 0.265 6.138 1.102 12.059 4.314 17.446 1.414 2.371 3.326 4.699 5.313 6.634 1.976 1.926 3.798 2.544 6.442 1.552 3.963-1.487 7.318-4.847 9.946-8.073 2.588-3.177 4.821-6.517 6.141-10.436 3.174-9.417 2.847-19.387 4.007-29.126 0.563 1.414 0.686 2.909 0.37 4.485 0.05 4.274 0.014 8.547-0.108 12.82-0.194 5.244-0.336 11.071-1.406 16.257-1.5 7.271-6.415 13.792-12.411 18.088-2.658 1.904-5.422 3.731-8.136 5.563-2.843 1.92-5.386 2.945-8.829 2.953-0.932 2e-3 -1.938 0.064-2.864-0.017-0.908-0.079-1.714-0.495-2.634-0.445 1.003-0.894 1.918-1.875 5.145 0.42" style="fill:#fff"/></g></g><g transform="translate(880.51 1857.5)"><path d="m0 0c0.243-0.828 1.275-1.731 1.782-2.38 0.721-0.924 1.528-1.782 2.548-2.382 1.271-0.747 3.064-0.655 4.45-0.426 1.862 0.308 3.864 0.383 5.677 0.904 1.992 0.572 3.8 1.613 5.822 2.116 4.324 1.076 8.927 0.388 13.315 0.337 1.462-0.017 2.856 4e-3 4.199 0.65 1.574 0.756 2.427 2.144 3.299 3.592 1.097 1.823 1.774 3.845 2.821 5.69 0.331 0.584 0.797 1.775 1.505 1.957 0.362-0.972 0.171-2.13 8e-3 -3.125-0.277-1.694-0.712-3.349-1.236-4.982-0.798-2.484-1.788-4.853-4.411-5.824-5.616-2.078-11.656-1.085-17.465-1.786-1.517-0.183-3.107-0.549-4.489-1.221-1.097-0.535-2.083-1.25-3.203-1.736-2.648-1.152-6.472-1.701-8.898 0.288-1.231 1.009-2.152 2.353-3.096 3.614-0.548 0.732-1.14 1.456-1.483 2.314-0.192 0.483-0.26 1.059-0.184 1.571 0.284-0.323 0.604-0.607-0.961 0.829" style="fill:#c9935e"/></g><g transform="translate(931.53 1844.9)"><path d="m0 0c0.313-0.012 0.699 0.062 0.987 0.089 1.133 0.102 2.532 0.282 3.647 0.01 0.91-0.222 1.684-0.7 2.551-1.026 0.346-0.131 0.705-0.266 1.08-0.268-0.528-0.017-1.031-0.161-1.534-0.315-0.915-0.28-1.828-0.56-2.756-0.795-0.309-0.078-0.781-0.112-1.04-0.292-0.082-0.057-0.143-0.194-0.223-0.263-0.222-0.196-0.528-0.336-0.774-0.499-0.91-0.601-1.768-1.28-2.596-1.987-1.062-0.906-2.008-1.919-2.983-2.913-0.471-0.479-1.073-0.945-1.425-1.522 0.537 0.783 1.004 1.651 1.491 2.457 0.876 1.45 1.77 2.895 2.536 4.408 0.42 0.827 0.802 1.666 1.153 2.525 0.09 0.219 0.165 0.466 0.303 0.652 0.015-0.247 0.045-0.495-0.417-0.261" style="fill:#c9935e"/></g><g clip-path="url(#clipPath294902)" style="opacity:.3"><g transform="translate(881.71 1873.8)"><path d="m0 0c0.112 0.022 0.224 0.043 0.337 0.065-1.287-3.942-5.037-10.32-2.265-14.392 0.458 4.446 4.527 10.454 9.494 10.049 2.232-0.182 4.45-0.812 6.65-1.212 2.422-0.44 8.322-1.026 10.308 1.114-0.567 0.646-1.245 1.16-2.033 1.543-2.383 1.926-4.537 4.084-6.462 6.475-3.742 4.416-7.321 9.019-10.248 14.022-2.488 4.251-4.434 8.82-7.081 12.982-0.837 1.466-1.847 2.797-3.031 3.991-0.503 0.417-0.884 0.918-1.144 1.503 1.473-2.592 2.502-6.019 3.307-8.756 1.148-3.899 2.254-7.826 3.28-11.758 1.005-3.85 2.017-9.153 1.18-13.206-0.308-1.492-0.431-4.22-2.61-3.859 0.106 0 0.212-1e-3 0.318 1.439" style="fill:#fff"/></g></g><g transform="translate(866.19 1820.4)"><path d="m0 0c-0.313-0.026-0.743 0.291-1.005 0.419-0.818 0.4-1.658 0.751-2.504 1.086-1.249 0.495-2.337 1.227-3.546 1.785-1.548 0.714 1.197 1.786 1.605 2.283-0.208 0.131-0.442 0.181-0.703 0.151-0.71 0.081-1.423 0.133-2.138 0.156-1.041-0.059-1.917-0.362-2.807-0.923-0.916-0.577-1.699-1.333-2.331-2.211-0.624-0.866-1.324-1.999-1.486-3.077 0.269-4e-3 0.472 0.201 0.69 0.334 0.662 0.404 1.345 0.744 2.062 1.039 0.99 0.407 2.074 0.667 3.151 0.543 1.738-0.2 3.363-0.809 4.999-1.394 1.037-0.371 2.079-0.694 3.138-0.996 0.413-0.118 0.849-0.234 1.229-0.442-0.207 0.529-0.9 0.891-1.296 1.241-0.233 0.205-0.397 0.427-0.595 0.658 0.032-4e-3 0.064-8e-3 1.537-0.652" style="fill:#c9935e"/></g><g transform="translate(857.86 1822.3)"><path d="m0 0c3.295-1.921 8.421-5.837 12.656-9.137 8.939-6.965 17.088-9.039 28.286-6.355 7.48 1.793 20.18 5.659 23.111 12.544 1.386 3.256 1.239 8.185 3.327 12.147 2.318 4.398 5.278 9.538 9.344 12.559-7.581-4.801-15.842-8.184-23.483-13.19-7.004-4.588-15.085-9.382-23.394-10.99-11.474-2.22-30.873 4.022-29.847 2.422" style="fill:#fff"/></g><g clip-path="url(#clipPath294926)" style="opacity:.3"><g transform="translate(867.54 1817.2)"><path d="m0 0c3.577-1.258 6.873-3.109 10.574-4.04 3.503-0.881 7.101-1.289 10.679-1.757 0.541 0.107 1.085 0.202 1.61 0.336-2.135 0.671-4.368 0.883-6.589 1.42-2.732 0.661-15.911 5.031-9.669 4.671 12.409-0.716 26.715 0.61 37.462 7.352 5.603 3.514 10.423 8.15 16.264 10.909 1.849 3.006 4.038 5.911 6.713 7.898-7.581-4.8-15.842-8.183-23.484-13.189-7.004-4.589-15.085-9.383-23.394-10.99-11.474-2.22-30.873 4.022-29.847 2.421 2.262-1.318 9.079-4.819 9.681-5.031" style="fill:#8c9bba"/></g></g><g transform="translate(916.42 1740.8)"><path d="m0 0c-0.651-2.05-0.852-4.155-1.045-6.19-0.071-0.754-0.142-1.505-0.238-2.246-0.61-4.757-1.649-9.414-2.847-14.571-2.294-9.898-5.845-22.677-12.978-33.744-8.333-12.932-19.998-21.889-33.27-31.439-5.668-4.078-11.897-7.628-17.92-11.062l-3.766-2.154c-13.651-7.863-25.579-13.65-37.54-18.214-2.727-1.041-5.43-2.122-8.128-3.201-8.096-3.24-16.469-6.589-25.126-8.591-9.927-2.294-20.26-3.571-30.252-4.805-3.952-0.489-7.903-0.977-11.844-1.527-23.615-3.29-43.491-9.03-60.762-17.547-14.466-7.135-29.232-10.555-44.967-10.408-4.477 0.036-7.902 0.345-11.102 0.999 2.705 1.241 5.137 3.182 7.475 6.573 3.973 5.763 7.725 11.206 13.083 15.672 5.982 4.985 12.775 8.427 19.967 12.07l2.066 1.049c7.546 3.843 15.359 7.423 22.914 10.885l1.2 0.55c7.306 3.349 13.643 8.195 19.944 15.252 4.669 5.229 9.499 11.017 13.205 17.907 3.319 6.172 5.152 12.411 6.746 18.274 0.691 2.535 1.397 5.06 2.103 7.585 1.589 5.68 3.232 11.555 4.642 17.424 1.554 6.46 3.555 12.545 5.673 18.986 0.605 1.838 1.211 3.682 1.807 5.537 4.103 12.771 6.809 26.096 8.914 37.447 1.434 7.737 3.03 15.565 4.575 23.135l1.671 8.226c0.476 2.358 0.915 4.713 1.353 7.062 1.332 7.136 2.591 13.876 4.785 20.618 0.991 3.042 2.176 6.097 3.322 9.05 0.732 1.887 1.465 3.775 2.158 5.678l1.857 5.105-4.654-2.804c-1.023-0.616-1.596-1.638-1.615-2.877l0.101-1e-3c-0.468-1.24-0.948-2.476-1.428-3.711-1.165-3.002-2.369-6.107-3.393-9.251-2.273-6.98-3.613-14.159-4.908-21.102-0.435-2.331-0.872-4.668-1.344-7.007l-1.669-8.219c-1.548-7.586-3.148-15.43-4.588-23.202-2.083-11.231-4.757-24.407-8.794-36.972-0.594-1.848-1.197-3.682-1.799-5.512-2.049-6.232-4.168-12.674-5.758-19.288-1.395-5.801-3.028-11.64-4.608-17.288-0.708-2.533-1.417-5.067-2.109-7.611-1.536-5.648-3.297-11.648-6.424-17.462-3.516-6.539-8.175-12.116-12.687-17.168-5.935-6.649-11.871-11.198-18.678-14.318l-1.201-0.55c-7.591-3.479-15.439-7.076-23.055-10.955l-2.06-1.045c-7.066-3.581-14.374-7.282-20.69-12.546-5.763-4.803-9.842-10.72-13.786-16.443-3.897-5.653-7.515-6.241-14.723-7.414-9.135-1.485-18.033-1.073-27.451-0.643-4.859 0.223-9.887 0.46-14.903 0.395l-0.737-9e-3c-7.307-0.085-14.863-0.172-21.94-2.3-6.555-1.969-12.99-5.746-18.669-9.078l-0.928-0.545c-3.815-2.235-8.125-4.975-10.985-9.234-1.027-1.527-1.81-3.247-2.568-4.909-0.224-0.492-0.445-0.977-0.668-1.445-1.758-3.695-3.994-7.274-6.156-10.736l-0.774-1.239c-14.407-23.144-29.491-41.195-46.115-55.184-6.806-5.727-14.518-10.57-21.977-15.254-7.112-4.466-14.467-9.084-21.147-14.518-1.633-1.328-3.296-2.646-4.968-3.969-8.416-6.663-17.118-13.553-23.044-22.749-1.619-2.513-3.26-4.997-4.896-7.473-6.492-9.828-13.204-19.989-18.019-31.306-0.895-2.104-1.79-4.238-2.692-6.392-8.596-20.52-17.485-41.737-34.439-55.234-5.651-4.498-11.846-8.572-17.837-12.511-1.677-1.102-3.352-2.204-5.018-3.314-9.99-6.668-21.249-11.814-35.431-16.197-2.312-0.715-4.762-1.349-7.355-2.02-9.297-2.409-19.834-5.137-26.289-12.639-2.735-3.177-4.313-6.432-5.973-10.655-1.83-4.653-3.327-9.514-4.775-14.216-0.935-3.034-1.902-6.172-2.941-9.192-5.194-15.1-11.337-30.726-19.332-49.177-2.223-5.133-5.108-11.912-7.697-18.838-0.514-1.377-1.05-2.772-1.591-4.181-2.318-6.037-4.715-12.278-6.023-18.511-0.943-4.503-2.117-10.107 0.982-15.176 1.91-3.121 5.383-7.104 9.409-8.922 3.464-1.565 7.314-1.807 11.038-2.042 2.376-0.15 4.62-0.291 6.692-0.756 5.256-1.182 10.3-1.938 15.433-2.67 0.157-0.023 0.289-0.051 0.443-0.074 2.596 0.98 5.251 1.58 7.971 2.106-2.757 0.944-5.66 1.454-7.87 1.77-5.055 0.722-10.015 1.465-15.135 2.615-2.369 0.533-4.872 0.69-7.293 0.842-3.534 0.224-6.873 0.434-9.697 1.71-3.235 1.46-6.177 4.912-7.714 7.425-2.135 3.49-1.521 7.502-0.499 12.384 1.244 5.932 3.584 12.027 5.848 17.922 0.546 1.42 1.086 2.826 1.604 4.213 2.558 6.845 5.418 13.566 7.624 18.656 8.035 18.544 14.212 34.258 19.44 49.455 1.059 3.078 2.035 6.247 2.978 9.31 1.428 4.633 2.904 9.424 4.68 13.942 1.552 3.947 2.919 6.777 5.309 9.555 5.671 6.59 15.163 9.048 24.341 11.424 2.638 0.684 5.129 1.329 7.526 2.069 14.546 4.496 26.121 9.794 36.43 16.672 1.657 1.106 3.326 2.203 4.995 3.301 6.062 3.986 12.331 8.107 18.119 12.715 17.725 14.11 27.216 36.766 35.59 56.754 0.899 2.148 1.791 4.276 2.684 6.373 4.678 10.995 10.998 20.562 17.688 30.692 1.644 2.489 3.293 4.984 4.921 7.51 5.581 8.661 14.029 15.349 22.199 21.818 1.686 1.334 3.363 2.662 5.008 4 6.499 5.287 13.752 9.842 20.766 14.246 7.57 4.753 15.398 9.668 22.408 15.568 16.937 14.253 32.279 32.601 46.903 56.093l0.769 1.234c2.22 3.554 4.515 7.228 6.367 11.121 0.232 0.487 0.463 0.991 0.695 1.501 0.693 1.521 1.411 3.095 2.261 4.361 2.41 3.586 6.289 6.042 9.738 8.062l0.931 0.546c5.76 3.38 11.716 6.876 17.831 8.713 6.557 1.971 13.838 2.056 20.879 2.137l0.737 9e-3c4.909 0.064 9.877-0.171 14.682-0.391 8.36-0.385 16.976-0.764 25.627 0.328 1.684 0.899 3.657 1.329 5.539 0.871 0.687-0.167 1.278-0.456 1.825-0.798 0.745-0.045 1.66-0.307 2.508-0.557 0.609-0.179 1.197-0.35 1.737-0.461 3.462-0.71 7.124-1.044 11.871-1.083 0.304-3e-3 0.604-4e-3 0.906-4e-3 16.061 1e-3 31.052 3.54 45.793 10.809 16.897 8.332 36.389 13.955 59.593 17.188 3.92 0.546 7.852 1.032 11.785 1.519 10.09 1.246 20.523 2.535 30.645 4.875 8.945 2.067 17.457 5.473 25.689 8.766 2.679 1.072 5.363 2.146 8.07 3.18 12.154 4.637 24.256 10.507 38.087 18.473l3.751 2.146c6.111 3.483 12.428 7.084 18.261 11.281 13.595 9.782 25.558 18.978 34.257 32.475 7.454 11.566 11.125 24.757 13.49 34.958 1.221 5.26 2.284 10.016 2.916 14.95 0.1 0.781 0.177 1.575 0.252 2.372 0.17 1.786 0.332 3.481 0.778 5.045l0.141-8e-3 0.885 15.962z" style="fill:#333"/></g></g></g></g></svg>
