<?xml version="1.0" encoding="UTF-8"?>
<svg width="605.68mm" height="746.89mm" version="1.1" viewBox="0 0 605.68 746.89" xmlns="http://www.w3.org/2000/svg"><defs><clipPath id="clipPath177799"><path d="m0 2340.3h1897.8v-2340.3h-1897.8z"/></clipPath><clipPath id="clipPath177811"><path d="m685.6 1768.9h228.72v-152.73h-228.72z"/></clipPath><clipPath id="clipPath177831"><path d="m770.65 1852.6h23.49v-41.34h-23.49z"/></clipPath><clipPath id="clipPath177847"><path d="m934.87 1842.3h17.418v-42.24h-17.418z"/></clipPath><clipPath id="clipPath177863"><path d="m585.52 2155h362.45v-424.17h-362.45z"/></clipPath><clipPath id="clipPath177879"><path d="m836.51 1890.4h101.12v-69.79h-101.12z"/></clipPath><clipPath id="clipPath177895"><path d="m833.56 1756.7h80.757v-31.03h-80.757z"/></clipPath><clipPath id="clipPath177911"><path d="m576.43 1934h61.663v-83.94h-61.663z"/></clipPath><clipPath id="clipPath177927"><path d="m841.01 1955.8h95.149v-80.04h-95.149z"/></clipPath><clipPath id="clipPath177943"><path d="m821.4 1782.4h97.183v-27.55h-97.183z"/></clipPath><clipPath id="clipPath177979"><path d="m881.48 1983.4h60.745v-22.5h-60.745z"/></clipPath><clipPath id="clipPath178015"><path d="m753.59 1980.9h67.812v-25.12h-67.812z"/></clipPath><clipPath id="clipPath178063"><path d="m548.14 2228.8h402.8v-236.77h-402.8z"/></clipPath><clipPath id="clipPath178087"><path d="m1176.6 1655.2h493.69v-419.48h-493.69z"/></clipPath><clipPath id="clipPath178103"><path d="m1500.9 1655.2h169.41v-220.14h-169.41z"/></clipPath><clipPath id="clipPath178127"><path d="m309.5 1354h326.59v-227.49h-326.59z"/></clipPath><clipPath id="clipPath178151"><path d="m512.09 1639.7h676.73v-545.3h-676.73z"/></clipPath><clipPath id="clipPath178167"><path d="m1093.5 1485.6h95.34v-200.87h-95.34z"/></clipPath><clipPath id="clipPath178183"><path d="m512.09 1428.3h175.68v-210.11h-175.68z"/></clipPath><clipPath id="clipPath178199"><path d="m518.68 1735.2h635.88v-408.53h-635.88z"/></clipPath><clipPath id="clipPath178223"><path d="m1122.6 1476.5h165.54v-182.01h-165.54z"/></clipPath><clipPath id="clipPath178239"><path d="m1116.6 1425.8h168.37v-199.88h-168.37z"/></clipPath><clipPath id="clipPath178259"><path d="m463.66 1419.2h197.68v-122.94h-197.68z"/></clipPath><clipPath id="clipPath178275"><path d="m474.4 1358.8h207.26v-144.55h-207.26z"/></clipPath><clipPath id="clipPath178295"><path d="m674.35 1426.3h563.4v-913.02h-563.4z"/></clipPath><clipPath id="clipPath178311"><path d="m917.28 863.13h241.03v-455.7h-241.03z"/></clipPath><clipPath id="clipPath178327"><path d="m641.09 1225.4h373.88v-869.75h-373.88z"/></clipPath><clipPath id="clipPath178359"><path d="m890.13 1351.5h228.92v-210.49h-228.92z"/></clipPath><clipPath id="clipPath178383"><path d="m1042 1532.9h48.6v-125.27h-48.6z"/></clipPath><clipPath id="clipPath178399"><path d="m948.78 1616.1h139.14v-214.47h-139.14z"/></clipPath><clipPath id="clipPath178423"><path d="m632.61 1642.1h160.92v-273.52h-160.92z"/></clipPath><clipPath id="clipPath178439"><path d="m792.7 1466.5h44.9v-107.27h-44.9z"/></clipPath><clipPath id="clipPath178463"><path d="m975.95 373.37h371.8v-168.44h-371.8z"/></clipPath><clipPath id="clipPath178483"><path d="m969.58 253.64h380.9v-61.521h-380.9z"/></clipPath><clipPath id="clipPath178503"><path d="m546.9 317.76h261.79v-198.54h-261.79z"/></clipPath><clipPath id="clipPath178523"><path d="m546.9 211.59h263.82v-100.01h-263.82z"/></clipPath><clipPath id="clipPath178543"><path d="m1021.1 473.14h163.86v-92.148h-163.86z"/></clipPath><clipPath id="clipPath178559"><path d="m944.77 452.17h237.32v-160.64h-237.32z"/></clipPath><clipPath id="clipPath178579"><path d="m607.03 440.74h167.37v-166.84h-167.37z"/></clipPath><clipPath id="clipPath178595"><path d="m618.77 388.08h217.89v-161.98h-217.89z"/></clipPath><clipPath id="clipPath178679"><path d="m155.93 1574.2h261.4v-245.38h-261.4z"/></clipPath><clipPath id="clipPath178699"><path d="m343.58 1576.7h75.945v-161.84h-75.945z"/></clipPath><clipPath id="clipPath178719"><path d="m167.71 1569h81.628v-238.1h-81.628z"/></clipPath><clipPath id="clipPath178751"><path d="m1544.2 2048h63.38v-323.42h-63.38z"/></clipPath><clipPath id="clipPath178767"><path d="m1544.2 2048h63.38v-36.05h-63.38z"/></clipPath><clipPath id="clipPath178787"><path d="m1527 1756.7h101.48v-216.22h-101.48z"/></clipPath><clipPath id="clipPath178803"><path d="m1523.3 1726.4h60.13v-187.54h-60.13z"/></clipPath><clipPath id="clipPath178823"><path d="m1527 1614.4h101.48v-216.22h-101.48z"/></clipPath><clipPath id="clipPath178839"><path d="m1523.3 1616.1h60.13v-187.54h-60.13z"/></clipPath><clipPath id="clipPath178859"><path d="m1674.3 2112h133.07v-121.94h-133.07z"/></clipPath><clipPath id="clipPath178875"><path d="m1655.5 2113h145.17v-124.55h-145.17z"/></clipPath><clipPath id="clipPath178895"><path d="m1431.3 2103h134.14v-47.45h-134.14z"/></clipPath><clipPath id="clipPath178915"><path d="m1492.5 2126.2h166.8v-91.67h-166.8z"/></clipPath><clipPath id="clipPath178935"><path d="m1383.5 2148.6h83.4v-138.65h-83.4z"/></clipPath><clipPath id="clipPath178955"><path d="m1497.8 1681h160.2v-210.47h-160.2z"/></clipPath><clipPath id="clipPath178987"><path d="m1478.5 1652.8h50.75v-123.39h-50.75z"/></clipPath><clipPath id="clipPath179003"><path d="m1478.5 1638.9h50.73v-109.52h-50.73z"/></clipPath></defs><g transform="translate(395.44 224.61)"><g transform="matrix(.35278 0 0 -.35278 -427.36 561.64)"><g clip-path="url(#clipPath177799)"><g transform="translate(685.6 1768.9)"><path d="m0 0c9.845-39.067 10.973-78.915 11.021-118.86l217.7-156.95c-4.59 78.467-4.926 141.52-1e-3 193.89z" style="fill:#f2bbad"/></g><g clip-path="url(#clipPath177811)" style="opacity:.3"><g transform="translate(889.26 1617.6)"><path d="m0 0c-48.977-8.992-90.76 25.504-125.91 54.69-26.732 22.195-51.703 46.627-72.983 73.99-1.302 7.557-2.866 15.091-4.757 22.596l228.72-81.918c-1.826-19.421-2.926-40.32-3.357-62.919-7.04-2.977-14.436-5.104-21.707-6.439" style="fill:#ad5842"/></g></g><g transform="translate(873.6 2153.4)"><path d="m0 0c52.443-76.605 85.946-117.96 76.835-158.59-5.664-35.708 3.94-49.745 13.791-70.923 26.104-58.857-3.94-110.33-25.611-183.22-17.731-62.797-32.753-62.798-55.492-65.014-94.483-3.694-112.46 22.163-151.04 46.626-52.29 32.178-72.977 56.065-80.118 101.13-26.351-10.097-85.946 14.529-91.283 72.237-5.746 72.073 58.037 96.453 84.715 26.268-39.54 69.781-39.335 127.69-15.761 178.62 62.238 43.447 144.23 60.157 243.96 52.865" style="fill:#ffd5c7"/></g><g clip-path="url(#clipPath177831)" style="opacity:.3"><g transform="translate(781.4 1851.6)"><path d="m0 0c2.785 1.134 6.196 1.351 9.062 0.444 5.447-1.723 3.906-4.659 1.395-8.259-3.236-4.638-6.379-16.195-5.744-15.768-2.184-6.599 0.338-5.643-2.986-11.804-2.021-3.747-4.605-6.194-9.021-4.275-7.354 3.951-2.034 35.276 7.294 39.662" style="fill:#ad5842"/></g></g><g clip-path="url(#clipPath177847)" style="opacity:.3"><g transform="translate(937.97 1831.6)"><path d="m0 0c-0.464 1.637-0.864 3.288-1.015 4.996-0.29 3.278 0.482 6.763 4.395 5.341 2.107-0.766 6.064-3.661 7.206-5.412 4.918-7.54 4.659-18.193 1.043-26.231-1.356-3.014-3.058-6.183-5.393-8.553-4.35-4.414-9.379 0.532-9.339 5.388 0.041 5.075 3.603 24.961 3.103 24.471" style="fill:#ad5842"/></g></g><g clip-path="url(#clipPath177863)" style="opacity:.3"><g transform="translate(632.76 1836.5)"><path d="m0 0c20.183 4.932 28.918 23.622 28.055 42.985-0.908 20.394-9.437 40.529-20.398 57.491-2.628 4.067-5.557 8.237-8.774 12.254-25.278 57.756-22.42 107.11-2.004 151.22 62.238 43.447 144.23 60.157 243.96 52.865 36.989-54.03 64.53-90.517 74.368-121.59-11.192 17.702-22.724 35.297-36.814 50.831-15.135 16.688-33.915 31.044-56.859 34.012-26.364 3.411-53.521-5.871-77.532-15.796-11.549-4.774-22.701-10.336-34.06-15.518-9.385-4.281-19.081-7.846-28.668-11.639-17.446-6.902-35.961-14.512-48.92-28.619-13.943-15.177-18.674-37.982-13.462-57.798 3.62-13.755 11.768-25.809 18.949-37.892 7.833-13.178 15.405-26.387 20.06-41.076 4.748-14.98 7.782-31.247 8.011-46.971 0.225-15.52-2.577-30.86-3.819-46.287-1.131-14.038-0.367-27.607 3.479-41.203 3.756-13.28 9.728-25.891 16.861-37.675 1.085-1.793 2.247-3.538 3.385-5.299-42.435 28.099-60.124 51.566-66.615 92.529-16.327-6.256-45.407 0.832-66.445 20.845 14.677-7.536 31.742-11.451 47.237-7.664" style="fill:#ad5842"/></g></g><g clip-path="url(#clipPath177879)" style="opacity:.3"><g transform="translate(936.16 1890.4)"><path d="m0 0c-17.573-23.149-59.123-16.254-94.565 0-20.188-36.612 24.626-69.791 49.253-69.791 25.939 0 53.521 52.224 45.312 69.791" style="fill:#ad5842"/></g></g><g clip-path="url(#clipPath177895)" style="opacity:.3"><g transform="translate(914.32 1756.7)"><path d="m0 0c-2.791-41.865-73.058-40.88-80.757 0 18.37-15.515 59.907-18.88 80.757 0" style="fill:#ad5842"/></g></g><g clip-path="url(#clipPath177911)" style="opacity:.3"><g transform="translate(597.79 1860.8)"><path d="m0 0c-5.971 8.403-18.552 20.193-21.179 30.537-3.283 52.043 39.402 60.088 58.611 4.268 10.219-40.002-7.88-58.939-37.432-34.805" style="fill:#ad5842"/></g></g><g clip-path="url(#clipPath177927)" style="opacity:.45"><g transform="translate(936.16 1890.4)"><path d="m0 0c-13.991-22.373-50.32-16.239-94.565 0-3.448 32.737 8.701 65.474 27.843 65.474 4.171-27.653 60.432-52.997 66.722-65.474" style="fill:#fff1e6"/></g></g><g clip-path="url(#clipPath177943)" style="opacity:.45"><g transform="translate(918.58 1777.4)"><path d="m0 0c0.542-30.73-74.101-31.029-97.179 4.984 33.152-18.633 74.238-26.125 97.179-4.984" style="fill:#fff1e6"/></g></g><g transform="translate(871.14 2010.5)"><path d="m0 0c3.866-40.449 0.821-80.282 49.745-100.48 28.567-10.836 24.807-26.253 7.389-49.745-13.782-16.87-33.752-15.954-54.671-12.314 14.799 28.633-18.105 9.808-33.099 11.997-7.96 1.162-10.872 13.906 1.085 30.36-4.816-11.85-2.735-24.398 2.449-25.984 12.841-3.928 44.722 18.945 37.938-9.477 16.694-2.772 33.656-5.132 45.312 18.716 9.335 21.458 1.642 23.641-12.313 31.029-55.82 23.538-53.029 69.446-43.835 105.89" style="fill:#ad5842"/></g><g transform="translate(942.23 1960.9)"><path d="m0 0c-13.134 32.178-52.552 27.745-60.745 0 8.193-24.955 51.387-19.865 60.745 0" style="fill:#fff"/></g><g transform="translate(881.48 1960.9)"><path d="m0 0c2.561-7.821 8.589-12.707 15.938-15.072 0.256-0.019 0.532-0.019 0.788-0.019 11.249 0 20.371 9.122 20.371 20.371 0 7.21-3.743 13.534-9.397 17.159-12.215-0.866-23.681-8.865-27.7-22.439" style="fill:#008091"/></g><g transform="translate(883.29 1964.9)"><path d="m0 0c-0.679-5.509 3.584-10.506 11.545-10.416 9.407-1e-3 14.06 6.296 14.06 14.06 0 6.554-3.71 12.793-8.457 13.814-8.431-0.598-14.374-8.089-17.148-17.458" style="fill:#003738"/></g><g transform="translate(901.67 1970.7)"><path d="m0 0c0-3.344 2.711-6.054 6.054-6.054 3.344 0 6.054 2.71 6.054 6.054s-2.71 6.054-6.054 6.054c-3.343 0-6.054-2.71-6.054-6.054" style="fill:#fff"/></g><g clip-path="url(#clipPath177979)" style="opacity:.25"><g transform="translate(942.23 1960.9)"><path d="m0 0c-13.134 32.178-52.552 27.745-60.745 0 13.298 15.776 35.955 23.969 60.745 0" style="fill:#1d1d1b"/></g></g><g transform="translate(942.23 1960.9)"><path d="m0 0c-8.209 42.686-63.536 28.895-60.745 0 8.193 24.79 46.298 32.342 60.745 0" style="fill:#28160c"/></g><g transform="translate(821.4 1955.8)"><path d="m0 0c-14.662 35.922-58.666 30.973-67.812 0 9.147-27.858 57.366-22.177 67.812 0" style="fill:#fff"/></g><g transform="translate(753.59 1955.8)"><path d="m0 0c2.859-8.731 9.589-14.186 17.793-16.825 0.285-0.022 0.593-0.022 0.879-0.022 12.558 0 22.741 10.183 22.741 22.741 0 8.05-4.179 15.109-10.491 19.156-13.636-0.968-26.435-9.897-30.922-25.05" style="fill:#008091"/></g><g transform="translate(755.61 1960.3)"><path d="m0 0c-0.758-6.15 4.001-11.728 12.888-11.628 10.502-1e-3 15.696 7.029 15.696 15.696 0 7.317-4.142 14.281-9.441 15.421-9.411-0.668-16.046-9.03-19.143-19.489" style="fill:#003738"/></g><g transform="translate(776.12 1966.7)"><path d="m0 0c0-3.733 3.026-6.758 6.758-6.758 3.733 0 6.759 3.025 6.759 6.758s-3.026 6.758-6.759 6.758c-3.732 0-6.758-3.025-6.758-6.758" style="fill:#fff"/></g><g clip-path="url(#clipPath178015)" style="opacity:.25"><g transform="translate(821.4 1955.8)"><path d="m0 0c-14.662 35.922-58.666 30.973-67.812 0 14.845 17.611 40.137 26.758 67.812 0" style="fill:#1d1d1b"/></g></g><g transform="translate(821.4 1955.8)"><path d="m0 0c-9.164 47.651-70.928 32.256-67.812 0 9.146 27.674 51.684 36.105 67.812 0" style="fill:#28160c"/></g><g transform="translate(576.61 1891.3)"><path d="m0 0c-9.194 59.76 49.514 61.35 64.521-3.94 8.866-44.656-27.417-48.76-43.342-26.597 18.716-13.104 46.749-9.007 37.432 27.582-0.233 0.705-0.47 1.388-0.706 2.074-26.822 17.053-39.444 12.919-46.905-13.567 0.762 25.43 18.627 35.046 44.219 20.76-21.526 53.174-55.063 36.304-55.219-6.312" style="fill:#ad5842"/></g><g transform="translate(951.47 2015.9)"><path d="m0 0c-42.571 22.447-65.673-6.127-78.276 0-8.569 5.022-1.637 26.475 12.296 35.441 17.545 7.898 37.775 3.277 55.282-1.689 9.293-5.215 14.352-29.386 10.698-33.752" style="fill:#6d3814"/></g><g transform="translate(803.34 2050.9)"><path d="m0 0c27.582-4.269 33.328-43.999-4.925-32.178-31.067 5.746-55.984-3.756-84.715-23.313 8.866 37.924 30.865 60.131 89.64 55.491" style="fill:#6d3814"/></g><g transform="translate(929.87 1816.4)"><path d="m0 0c-40.3-13.113-62.818-16.905-133.32 7.492 7.581-26.958 32.947-59.097 84.911-58.784 40.246-1.152 36.692 18.538 48.41 51.292" style="fill:#fff"/></g><g transform="translate(800.72 1820.6)"><path d="m0 0c39.08-17.956 86.125-24.49 124.51-9.249-11.978-23.958-0.871-42.763-44.399-42.45-49.936 0.462-70.934 27.112-80.109 51.699m-17.902-4.314c2.888-0.834 2.906 4.421 4.24 11.244 1.013-0.564 2.033-1.121 3.062-1.669 9.579-29.77 41.003-63.199 91.366-63.199 53.901 0 37.193 30.189 52.5 52.64 1.24 0.627 2.462 1.293 3.678 1.971-0.03-6.659-0.868-11.536 2.041-11.269 3.646 0.335 9.842 8.432 8.997 17.641-0.844 9.21-8.409 16.046-12.055 15.711-3.437-0.315-0.426-6.73 0.639-15.178-40.821-23.052-107.09-13.691-148.62 9.626 2.642 8.029 6.752 13.703 3.453 14.657-3.517 1.017-12.237-4.268-14.805-13.152-2.568-8.885 1.987-18.006 5.505-19.023" style="fill:#a04c3c"/></g><g transform="translate(833.56 1756.7)"><path d="m0 0c0.71-19.812 79.925-18.726 80.757 0-19.701-12.978-55.985-12.151-80.757 0" style="fill:#ad5842"/></g><g transform="translate(585.64 2089.3)"><path d="m0 0c-8.209 14.119-10.836 38.089 0 65.67 0-17.074 7.88-28.566 17.731-42.029 1.97 62.715 41.043 68.626 84.714 101.79-2.955-12.053 1.314-33.492 1.314-33.492 34.374 35.981 78.033 49.374 128.06 47.283l-33.265-30.208c107.53 27.996 150.09-30.032 220.43-119.52-25.817-0.334-49.117 6.189-69.61 20.357 22.84-19.121 31.247-38.697 34.148-58.446 0 0-30.672 32.386-42.219 33.777l-30.877 41.087c-1.823 2.263-3.855 4.361-5.984 6.377-32.224 17.021-56.291 4.789-84.212 0.846 2.912 2.886 5.683 12.97 19.701 17.239-33.741 1.988-51.266-21.179-72.087-39.402-2.839 6.475-2.019 14.283-2.019 14.283s-7.88-3.94-27.581-27.089c-0.948 5.461-1.488 10.554-1.66 15.304-5.031-3.987-11.445-14.28-15.086-19.08-54.178-0.657-101.13-42.686-64.623-123.13 20.953-45.756 47.549-59.103 12.087-121.82 3.941 36.118 0.401 49.907-9.194 82.744-17.074 48.796-64.357 52.618-81.25 9.133-31.375 41.192-12.691 145.41 21.49 158.33" style="fill:#a0602b"/></g><g clip-path="url(#clipPath178063)" style="opacity:.35001"><g transform="translate(749.67 2184.1)"><path d="m0 0c3.359 9.714 8.741 18.198 15.562 25.902-45.03-18.26-74.268-44.35-91.044-58.767-4.566 7.88-4.14 19.815-1.62 28.479-40.98-22.158-54.024-48.922-57.59-84.815 0.422-1.684-20.031 11.826-20.175 10.878-1.16-7.657 3.834-13.293 7.66-19.371-39.472-21.962-46.669-56.823-54.316-94.426-0.081 42.835 15.482 89.026 37.497 97.344-8.209 14.12-10.836 38.089 0 65.671 0-17.075 7.881-28.567 17.731-42.03 1.97 62.716 41.043 68.626 84.715 101.79-2.956-12.053 1.313-33.492 1.313-33.492 34.375 35.98 78.033 49.373 128.06 47.283l-33.266-30.209c77.951 20.295 121.76-4.624 166.76-53.955-65.441 37.914-105.48 53.883-201.28 39.718" style="fill:#ca9e67"/></g></g><g transform="translate(611.28 1974.7)"><path d="m0 0c-11.448 10.982-16.559 22.419-13.762 32.671 0.206 0.926-5.467-3.39-7.064-5.757 3.902 47.946 15.947 80.31 92.624 89.675-0.632 10.103 4.478 23.974 12.566 34.087-0.034-7.409 0.064-12.668 6.803-21.41 3.847 20.909 22.584 45 54.91 73.233-5.267-14.479-4.559-25.158-2.109-36.695 13.22 16.614 34.269 36.69 97.323 39.507-12.438-6.711-20.104-17.661-21.437-25.745 35.645-0.311 72.268-11.018 129.57-51.285-14.78 2.486-44.021-2.926-43.377-3.245 12.012-5.947 22.013-15.794 30.42-26.076 7.045-8.617 13.632-18.376 17.519-28.974-8.626 8.704-29.31 28.696-38.329 29.783l-30.877 41.087c-1.823 2.264-3.855 4.361-5.984 6.377-32.224 17.021-56.29 4.789-84.212 0.846 2.912 2.886 5.684 12.97 19.701 17.239-33.741 1.988-51.266-21.179-72.086-39.402-2.84 6.475-2.02 14.283-2.02 14.283s-7.88-3.94-27.581-27.089c-0.948 5.461-1.487 10.554-1.659 15.304-5.032-3.987-11.445-14.28-15.087-19.08-54.178-0.657-101.13-42.686-64.623-123.13 20.953-45.756 47.55-59.103 12.088-121.82 3.94 36.118 0.4 49.907-9.195 82.744-17.074 48.796-64.357 52.618-81.25 9.133-1.973 2.591-3.748 5.432-5.334 8.483 0.496 17.037 23.005 38.208 52.461 35.256" style="fill:#84471a"/></g><g transform="translate(1251.9 1253)"><path d="m0 0c15.432-12.477 45.641-27.087 96.864-8.208 104.88 36.362 196.77 112.9 282.38 208.83 50.566 65.013 47.939 179.61 16.417 201.61l-138.56-172.71c-81.888-40.81-157.63-65.097-227.55-73.742-92.595 64.547-168.44-138.37-29.551-155.78" style="fill:#ffd5c7"/></g><g clip-path="url(#clipPath178087)" style="opacity:.3"><g transform="translate(1281.4 1408.8)"><path d="m0 0c-9.366-11.529-20.715-21.999-26.318-35.808-9.879-18.375-19.651-123.74 65.163-109.23 27.948 6.87 52.731 22.183 77.922 35.502 24.856 13.141 51.078 23.614 74.324 39.669 19.63 13.558 36.423 31.303 52.724 48.916 4.535 10.998 10.952 28.322 8.471 33.19-3.271 6.415-9.348 10.614-14.964 14.814-8.091 6.051-14.928 13.079-18.787 22.608-2.321 5.731-3.554 11.862-3.505 17.968 4.16 2.002 8.325 4.02 12.517 6.109l138.56 172.71c15.941-11.125 24.485-45.932 22.505-86.029l-0.215-3.751c-2.496-38.243-14.506-80.712-38.707-111.83-85.613-95.931-177.5-172.47-282.38-208.83-51.223-18.879-81.432-4.269-96.864 8.208-137.4 17.215-61.668 213.98 29.551 155.78" style="fill:#ad5842"/></g></g><g clip-path="url(#clipPath178103)" style="opacity:.3"><g transform="translate(1625.4 1447.3)"><path d="m0 0c-5.32-2.507-10.963-4.399-16.205-6.003-15.858-4.852-32.103-7.379-48.702-5.711-16.985 1.707-36.38 7.35-47.832 20.783-5.519 6.474-9.118 14.154-11.783 22.204 2.681 1.301 5.358 2.587 8.057 3.932l138.56 172.71c15.941-11.125 24.485-45.932 22.505-86.029l-0.215-3.751c-2.496-38.243-14.506-80.712-38.707-111.83-1.889-2.117-3.785-4.213-5.681-6.311" style="fill:#ad5842"/></g></g><g transform="translate(1281.4 1408.8)"><path d="m0 0c-34.281-22.641-54.057-76.722-21.498-121.32-23.232 51.211-7.118 88.598 25.099 121.78z" style="fill:#ad5842"/></g><g transform="translate(489.43 1311.3)"><path d="m0 0c8.865 103.51 192.23-1.827 135.94-95.621-35.789-59.45-67.641-90.685-108.68-89.097-42.293 3.283-120.97 74.306-207.19 113.7l104.74 94.474c16.374-13.107 38.463-22.736 75.192-23.456" style="fill:#ffd5c7"/></g><g clip-path="url(#clipPath178127)" style="opacity:.3"><g transform="translate(414.24 1334.8)"><path d="m0 0c8.495-6.8 18.554-12.648 31.373-16.818 2.012-8.669 4.117-17.319 6.237-25.963 3.455-14.088 6.929-28.171 9.606-42.43 2.695-14.353 5.339-28.746 9.426-42.783 5.013-17.219 11.443-37.213 25.249-49.525 11.371-10.14 27.947-12.786 42.525-9.544 30.135 6.701 52.465 35.402 62.251 63.228 4.936 14.036 7.251 29.594 4.073 44.289-3.758 17.37-15.115 32.676-29.025 43.373-14.349 11.037-31.228 17.088-48.843 20.512-7.788 1.513-15.849 2.751-23.803 2.37-4.532-0.217-9.505-0.961-13.048-3.863 15.773 92.689 190.2-10.128 135.11-101.92-35.789-59.449-67.64-90.685-108.68-89.097-42.293 3.283-120.97 74.306-207.19 113.7z" style="fill:#ad5842"/></g></g><g transform="translate(489.43 1311.3)"><path d="m0 0c50.201-11.647 73.568-44.807 73.063-97.104-6.9 52.099-28.117 83.457-80.482 97.383z" style="fill:#ad5842"/></g><g transform="translate(896.83 1552.9)"><path d="m0 0c-63.27 44.532-60.326 93.456-85.287 110.86-42.791 15.9-97.192 25.282-116.58 43.318l-2.896 28.135c-41.789-18.892-28.858-26.74-30.553-44.721-1.407-14.932-31.721-24.871 1.28-48.404-10.974-3.968-51.717-49.589-77.28-79.789-55.702-49.91-60.003-88.152-73.432-155.64 0 0 111.31-101.46 118.21-108.36 6.895-6.896 76.834-203.91 76.834-203.91l433.42 205.88 48.267 164.5c-63.044 83.401-150.71 139.22-240.04 151.32 20.248 24.455-3.818 28.534-6.673 39.542-5.797 22.349-14.481 34.764-27.787 31.27l-3.284-24.135c-0.683-45.21-2.626-89.64-14.203-109.87" style="fill:#6e9945"/></g><g clip-path="url(#clipPath178151)" style="opacity:.14999"><g transform="translate(512.09 1406.7)"><path d="m0 0s111.31-101.46 118.21-108.36c6.895-6.895 76.835-203.9 76.835-203.9l195.01 92.629c-30.447 9.16-58.87 24.13-84.969 42.198-28.249 19.556-52.61 42.871-76.874 67.019-11.508 11.453-25.859 22.098-32.145 37.588-0.283 0.698 0.55 1.427 1.212 1.212 14.455-4.699 26.711-17.727 42.4-17.788-7.096 5.598-15.677 9.148-22.194 15.506-7.056 6.884-10.588 16.383-12.925 25.759-2.148 8.617-2.885 16.725-2.739 25.579 0.166 10.138-1.129 18.55-11.633 22.595-0.684 0.263-0.982 1.073-0.435 1.646 8.674 9.076 10.517 22.637 10.896 34.668 0.329 10.462-0.422 21.139-2.186 31.459-1.755 10.258-4.38 20.469-8.134 30.184-3.217 8.326-7.914 19.262-16.453 23.539 1.36-11.376 7.013-21.689 8.986-32.943 2.007-11.449 3.676-23.432 3.315-35.068-0.69-22.33-14.093-39.511-22.359-59.365-0.4-0.96-1.934-0.939-1.935 0.263-0.019 23.273-1.171 46.37-7.258 68.956-4.248 15.764-13.528 33.882-29.828 39.673 9.188-17.725 18.707-37.367 15.304-57.805-1.734-10.411-6.831-18.468-12.258-27.269-3.673-5.954-5.769-12.966-8.268-19.459-14.615-24.68-64.735 76.349-115.75 20.914-1.223-6.214-2.475-12.669-3.82-19.429m137.91 154.1c-11.618 10.885-27.308 17.36-42.571 21.292-0.979 0.252-2.422 0.62-4.053 0.958-6.344-7.23-12.44-14.316-17.851-20.708-0.855-0.767-1.669-1.524-2.5-2.285 9.287 2.567 19.053 3.4 29.073 1.907 23.694-3.531 45.277-18.781 58.56-38.424 2.325-3.439 4.35-7.051 6.115-10.775-1.554 5.383-3.38 10.659-5.398 15.708-4.83 12.078-11.842 23.396-21.375 32.327m312.45-345.08 178.11 84.602 48.267 164.5c-4.722 6.246-9.597 12.318-14.586 18.248-5.897-0.282-14.135 3.739-19.786 2.283-12.386-3.189-17.434-2.689-31.017-1.108-11.743 1.367-12.912 7.962-18.002 17.654-4.082 7.774-9.927 7.984-14.429 15.579-3.818 6.442-12.869 7.367-17.527 13.214 3.273-9.44 4.917-32.38 5.597-42.586-5.944 29.156-29.126 87.119-71.866 106.47 5.33-10.666 28.194-52.127 30.124-63.71 2.485-14.921 3.1-24.734-1.226-45.622-8.77 39.157-19.571 54.112-48.499 77.908 34.467-63.953 17.851-207.96-25.158-347.44m-109.26 343.08c7.944-3.835 16.356-6.359 24.899-8.424-6.034 3.272-11.669 7.274-17.081 11.482-6.455 5.02-12.431 10.6-18.817 15.702-5.47 4.369-11.098 8.73-15.331 14.373-4.507 6.007-7.069 13.59-10.324 20.319-2.966 6.134-5.682 12.34-6.871 19.032-5.566-9.598-6.634-22.118-7.954-32.804-1.749-14.147-4.198-28.088-3.151-42.407 0.051-0.695-0.667-1.049-1.247-0.95-16.415 2.806-32.932 11.941-46.199 22.436-0.101-0.03-0.204-0.057-0.33-0.051-10.505 0.522-18.868 10.092-27.065 15.612-6.288 4.233-12.895 7.842-19.026 12.357-6.296 4.638-12.377 9.56-18.592 14.303-9.006 6.872-18.395 13.165-27.431 19.97-2.717-1.933-6.129-4.852-10.023-8.488 11.443-13.794 25.24-25.754 39.34-36.741 25.309-19.719 52.082-37.038 82.279-48.325 6.867-2.567 13.578-4.853 20.113-8.189 6.375-3.253 13.375-7.396 20.717-7.695-1.471 11.504-0.421 23.205 0.821 34.696 0.731 6.771 3.474 12.894 11.349 10.869 10.957-2.819 19.817-12.198 29.924-17.077m61.167 20.378c-3e-3 -0.011-6e-3 -0.022-9e-3 -0.034 1.689 3.956 3.327 7.933 4.608 12.034 0.229 0.733 1.087 0.932 1.647 0.434 6.028-5.356 9.483-12.784 13.319-19.746 3.695 3.834 19.827 32.58 24.837 41.491-0.022 0.41-0.062 0.81-0.061 1.232-2.267 0.39-4.535 0.76-6.805 1.094-3.386-8.599-7.31-16.981-11.435-25.264-0.394-0.79-1.57-0.531-1.801 0.235-4.603 15.277-11.756 29.473-18.894 43.677-0.241-6.224-0.588-12.489-1.424-18.671 1.119-12.228-1.012-24.653-3.982-36.482"/></g></g><g clip-path="url(#clipPath178167)" style="opacity:.14999"><g transform="translate(1099.7 1312.8)"><path d="m0 0c-5.955 23.955-8.37 48.718-4.03 73.165 2.879 16.219 8.554 32.194 15.737 46.981 10.077 20.744 25.361 42.102 45.961 52.689 5.329-0.052 11.91-2.827 16.852-2.591 4.988-5.93 9.864-12.001 14.586-18.248l-48.268-164.5-32.675-15.521c-3.003 9.26-5.813 18.577-8.163 28.029"/></g></g><g clip-path="url(#clipPath178183)" style="opacity:.14999"><g transform="translate(549.17 1426.8)"><path d="m0 0c14.481-2.543 28.522-7.537 41.982-13.362 23.705-10.258 46.287-23.923 63.882-43.077 18.866-20.541 30.007-46.443 32.341-74.208 2.267-26.962-4.97-53.085-21.96-74.287-1.001-1.248-2.028-2.471-3.076-3.674-15.222 41.106-29.15 77.294-32.036 80.18-6.896 6.895-118.21 108.36-118.21 108.36 1.257 6.319 2.432 12.363 3.578 18.201 10.269 4.541 22.682 3.77 33.496 1.872"/></g></g><g clip-path="url(#clipPath178199)" style="opacity:.17999"><g transform="translate(518.68 1439.9)"><path d="m0 0c1.172 0.598 2.315 1.21 3.418 1.812 28.081 26.389 69.125-14.983 99.612-20.854-11.72 65.062 18.143 47.244 14.083 64.336-3.163 13.512-6.988 28.29-15.939 39.075l5e-3 -3e-3c10.038 3.431 22.916 3.966 50.333-24.478-15.801 41.979-46.068 60.895-90.571 57.12l-6.95-6.815c-35.208-35.718-45.039-66.93-53.991-110.19m151.47 195.29c29.851-29.116 70.289-56.184 127.16-80.074 0.968 23.853 3.748 48.588 12.352 76.162 6.633-0.265 23.744-29.285 49.808-51.487 9.135-10.054 20.663-21.488 34.226-24.559-59.992 43.909-57.614 91.466-82.149 108.57-42.791 15.9-97.192 25.283-116.58 43.319l-2.896 28.134c-41.79-18.891-28.858-26.739-30.553-44.72-1.407-14.932-31.721-24.872 1.28-48.404-0.621-0.225-1.359-0.613-2.164-1.096 3.092-2.074 6.268-4.019 9.51-5.846m18.774-156.6c3.013 69.313-38.781 94.919-37.678 94.548 25.551-8.603 50.722-20.817 70.31-39.692 18.563-17.888 31.805-40.256 48.42-59.816-1.351 15.565-7.42 30.575-14.685 44.253-7.521 14.161-16.708 28.094-28.413 39.146-12.442 11.748-85.282 61.231-82.201 70.437-16.387-15.961-39.194-41.679-56.358-61.836 10.573 5.024 23.221 4.03 34.178 6.147 28.749 1.361 54.274-35.229 66.427-93.187m222.11 184.22c-0.467-30.925-1.526-61.481-5.853-84.182 4.045 5.425 7.314 11.369 9.316 18.153 2.269 7.685 3.082 15.433 2.315 23.418-0.81 8.426-2.585 16.705-1.838 25.209 0.072 0.808 1.047 1.353 1.682 0.696 12.997-13.445 15.412-31.686 22.854-48.068 2.478 7.667 0.836 16.611-0.569 24.262-1.49 8.111-3.601 16.142-4.564 24.343-1.018 8.678 1.173 20.4-0.448 30.214-5.075 8.392-11.476 12.227-19.611 10.09zm40.782-281.69c-4.709-18.307-11.141-36.122-15.935-54.397 61.51 119.05 77.599 143.88 43.01 253.67 20.965-16.409 37.774-37.375 52.029-59.732-3.606 26.441-28.93 74.799-28.127 74.587 27.445-7.255 44.413-32.983 59.638-55.397-0.903 3.813-1.784 7.543-1.05 11.598 0.089 0.496 0.744 0.859 1.211 0.688 5.328-1.944 9.457-5.074 13.116-9.38 4.066-4.784 7.732-11.782 13.948-14.012 3.117-1.117 6.522-1.153 9.33-3.13 2.121-1.494 3.67-3.922 5.075-6.061 3.634-5.529 7.185-12.221 14.745-11.485 6.301 0.614 12.182 1.387 18.566 0.702 5.857-0.628 11.596-1.989 17.181-3.835-55.935 58.123-124.8 97.294-195.27 109.55 3.154-77.672 12.147-157.11-7.465-233.37" style="fill:#fff"/></g></g><g transform="translate(996.02 1605.4)"><path d="m0 0-13.318 3.894c23.407-19.097 53.107-56.363 72.675-107.45-7.651 37.541-19.897 73.937-59.357 103.55m68.744-52.468c14.329-58.174 17.42-100.25 12.517-130.88l10.951-13.298c7.801 44.059-1.151 92.405-23.468 144.17m-399.5-66.985c9.127-35.161 7.293-61.22 0-82.744 12.885-38.278 14.778-56.987 13.298-79.297h7.039c-0.254 8.493-0.364 16.922-0.976 25.573 9.383-11.311 25.949-19.091 45.16-25.573-19.119 11.287-36.224 22.782-46.058 35.03-0.686 5.679-1.694 11.5-3.176 17.53 32.787 16.487 47.747 87.772 22.637 136.08 18.668-53.86-1.283-119.33-25.644-125.67-1.487 4.486-3.239 9.09-5.385 13.867 7.881 14.056 10.836 57.626-6.895 85.207m-85.646 70.911c55.355 15.035 91.31-23.628 105.98-88.806-1e-3 63.946-52.992 110.49-100.08 94.237zm324.52-3.927c10.613 22.92 18.47 39.238 14.444 77.982l19.048-45.967 15.976 30.442-4.829 0.7-11.147-23.919c-1.476 19.008-11.37 37.023-22.988 54.835 3.94-37.678-1.141-60.828-10.504-94.073m-247.89 84.938c50.645-35.824 80.674-58.588 144.47-89.042 1.395 31.994-0.992 51.573 10.169 79.461 1.003-31.302 29.45-58.516 82.088-86.028-58.899 40.093-71.574 56.722-82.745 97.848-11.246-24.02-14.508-48.795-14.447-81.431-40.387 15.925-114.02 63.946-132.98 83.401z" style="fill:#3a5919"/></g><g transform="translate(1281.4 1408.8)"><path d="m0 0c-68.954 19.071-126.86-105.54-29.551-155.78-26.793-42.729-54.597-28.295-82.252-1.97-31.318 29.81-68.954 8.865-45.806 157.75 30.747 96.132 76.213 69.815 120.02 42.399 14.646-9.166 61.72 1.791 37.586-42.399" style="fill:#6e9945"/></g><g clip-path="url(#clipPath178223)" style="opacity:.17999"><g transform="translate(1278.3 1429.1)"><path d="m0 0c-12.066 6.682-27.573 8.779-41.103 6.599-16.94-2.729-31.18-12.374-41.056-26.256-10.337-14.532-15.898-32.127-19.456-49.429-2.437-11.848-4.123-24.148-2.422-36.219 1.404-9.97 5.15-19.395 7.111-29.232-10.807 21.386-15.977 45.349-14.119 69.348 0.635 8.199 1.743 16.617 4.823 24.287 2.342 5.833 4.86 11.593 7.148 17.448 1.141 2.924 9.707 20.637 1.678 20.563-3.261-0.03-6.428-3.14-8.621-5.196-4.38-4.105-8.177-8.854-11.849-13.586-5.767-7.43-10.708-15.611-16.571-22.962-3.372 25.897 14.959 46.21 29.763 65.437 0.556 0.722-0.364 1.639-1.112 1.448-12.615-3.221-22.417-12.659-30.434-22.471-7.16-8.762-13.495-18.334-19.43-28.012 0.382 2.606 0.779 5.251 1.201 7.97 30.747 96.132 76.213 69.815 120.02 42.399 12.948-8.103 51.201-0.508 43.236-29.159-2.414 2.885-5.547 5.216-8.81 7.023" style="fill:#fff"/></g></g><g clip-path="url(#clipPath178239)" style="opacity:.14999"><g transform="translate(1120.7 1339.6)"><path d="m0 0c3.52-11.395 9.184-22.027 14.43-32.703 36.29-49.237-3.769 26.612 23.022 63.763 1.755-75.847 9.985-96.254 36.215-113.27 6.727-3.868 12.358-2.101 11.782 6.311-0.85 12.427-11.003 23.191-16.982 33.481-15.184 26.128-12.803 58.176-0.695 84.956 8.911 19.707 19.19 28.24 39.999 36.852 19.317 7.994 42.2 11.224 56.548-2.745-0.961-2.281-2.145-4.737-3.601-7.403-68.954 19.071-126.86-105.54-29.551-155.78-26.793-42.729-54.597-28.295-82.253-1.97-26.701 25.417-57.988 13.961-52.285 102.3 0.878-4.651 1.97-9.263 3.371-13.797"/></g></g><g transform="translate(489.43 1311.3)"><path d="m0 0c11.82 64.828 166.82-13.975 135.94-95.621 25.383-7.366 35.861 14.516 45.911 26.077 25.053 28.817 8.34 105.64-89.692 162.94-72.682 37.555-97.747-6.42-103.37-37.432-3.377-18.607-37.051-29.059 11.217-55.963" style="fill:#6e9945"/></g><g clip-path="url(#clipPath178259)" style="opacity:.17999"><g transform="translate(478.22 1367.3)"><path d="m0 0c5.627 31.012 30.691 74.987 103.37 37.432 30.098-17.591 52.52-37.023 68.432-56.342 1.587-3.342 3.069-6.731 4.428-10.164 5.106-12.894 9.625-28.348 4.878-41.985-6.689 4.536-10.405 13.522-13.856 20.455-3.61 7.252-7.101 14.294-12.134 20.686-12.649 16.064-29.494 30.056-47.909 39.041-4.549 2.219-9.367 4.283-14.303 5.454-2.529 0.599-6.985 1.686-8.841-0.916-2.132-2.99 1.312-7.805 3.197-9.955 4.139-4.726 9.978-7.695 15.104-11.18 3.366-2.289 6.819-4.839 9.061-8.308 0.469-0.727 2.341-3.561 1.922-4.389-0.594-1.169-2.243-0.234-3.339 0.137-8.169 2.764-15.262 8.946-21.904 14.218-13.067 10.373-27.041 20.028-44.518 19.864-29.839-0.28-53.153-30.671-48.416-59.374-23.18 19.433 1.931 29.389 4.824 45.326" style="fill:#fff"/></g></g><g clip-path="url(#clipPath178275)" style="opacity:.14999"><g transform="translate(489.43 1311.3)"><path d="m0 0c-6.351 3.54-11.27 6.792-15.039 9.818 0.19 3.597 0.862 7.165 2.173 10.618 4.244 11.181 14.862 20.143 25.922 24.217 23.444 8.635 50.9-4.412 70.622-16.545 9.617-5.918 19.308-12.585 27.248-20.67 5.314-5.411 9.884-11.492 15.057-17.031 2.13-2.281 6.549-8.232 10.135-8.355 2.892-0.099 3.503 3.795 3.76 5.943 0.476 3.978-0.914 7.747-2.961 11.105-4.541 7.448-16.186 15.458-15.544 25.021 34.92-10.545 36.661-56.498 51.474-83.906 0.332-0.614 1.072-0.571 1.547-0.199 8.366 6.539 8.215 20.088 8.235 29.662 0.029 15.082-2.066 29.931-5.995 44.361 20.194-35.121 19.498-67.154 5.216-83.583-10.051-11.561-20.529-33.443-45.912-26.077 30.883 81.646-124.12 160.45-135.94 95.621"/></g></g><g transform="translate(1089.7 1418.7)"><path d="m0 0c-116.59 20.968-227.9-3.886-298.5-45.195 0.908-87.925-41.918-183.57-84.058-279.1-19.356-29.551-0.016-32.014 4.597-47.282l-44.655-169.43c-47.118-14.283-15.104-51.222-18.387-116.24-7.6-86.685-11.985-240.35 7.881-344.11l158.92-61.729c22.178 97.847 47.925 198.42 101.79 320.47 0.593-86.635 27.736-177.54 55.821-268.59 55.48-0.024 113.62 17.246 174.03 49.253 40.404 146.48 66.319 299.13 90.624 452.47 0 22.164-23.435 46.863-34.805 66.327 5.769 166.72-33.039 315.14-113.26 443.16" style="fill:#4b6ec6"/></g><g clip-path="url(#clipPath178295)" style="opacity:.17999"><g transform="translate(676.54 823.81)"><path d="m0 0c6.106-26.723 21.895-51.237 39.816-71.773-4.958 19.708-10.051 41.054-2.309 60.617 5.838 14.75 17.972 26.559 29.99 36.428 25.338 20.806 60.584 39.499 64.778 75.625 2.169 18.682-2.069 37.227-4.534 55.821-0.379-1.422-0.765-2.839-1.159-4.244-3.056-10.899-6.739-21.726-11.455-32.027-8.006-17.488-25.734-27.684-42.712-34.899-17.84-7.58-37.506-12.581-53.403-24.067-8.223-5.94-15.008-13.891-18.218-23.624-4.036-12.235-3.638-25.412-0.794-37.857m136.46 561.3c8.81 1.411 17.681 2.535 26.54 3.607 26.261 3.176 52.316 8.063 78.82 8.871 24.135 0.735 49.39-1.568 71.402-12.225 19.722-9.547 37.297-23.724 53.09-38.754 17.201-16.37 32.781-34.624 46.008-54.353 12.377-18.461 20.909-38.913 31.717-58.269 11.578-20.737 24.061-41.234 32.759-63.409 4.471-11.4 12.763-31.838-2.701-38.799-6.557-2.951-14.39-2.644-21.388-2.071-8.666 0.711-17.225 2.325-25.809 3.654-25.129 3.893-52.597 2.264-74.958-10.646 13.754 1.201 27.662 1.343 41.435 0.846 18.635-0.673 38.199-2.311 55.78-8.96 12.228-4.624 25.066-13.218 24.558-27.831-0.321-9.232-5.438-13.994-14.621-14.021-5.154-0.015-10.292 1.005-15.356 1.838-7.715 1.269-15.284 1.519-23.088 0.832-19.03-1.674-37.403-7.898-56.224-10.971-15.569-2.543-31.284-4.233-46.666-7.652 10.986 0.805 22.038 0.73 33.044 0.372 15.381-0.502 30.833-1.172 46.175-2.4 9.059-0.726 18.851-2.005 25.288-9.121 8.491-9.386 10.174-24.218 12.517-36.11 3.07-15.582 8.979-30.876 16.546-44.858 3.36-6.208 7.959-10.524 13.526-14.72 4.386-3.307 9.283-6.459 12.786-10.752 4.885-5.986 3.029-14.004-2.934-18.447-7.666-5.711-18.035-7.078-26.836-10.268-12.986-4.708-25.307-13.448-36.572-21.279-11.963-8.316-24.498-17.724-32.911-29.857 32.675-6.338 67.019 2.515 99.159 8.139 0.575 0.1 0.985-0.257 1.149-0.687 6.867 1.298 13.975 1.511 20.856 0.514 4.8-0.696 13.627-2.275 15.19-7.977 1.854-6.765-8.688-11.605-13.177-13.701-10.402-4.857-21.184-6.998-32.343-9.307-10.105-2.092-23.285-3.995-30.02-12.681-2.126-2.741-4.434-6.545-2.197-9.87 1.741-2.588 5.321-3.867 8.131-4.806 12.63-4.225 30.219-2.631 37.628-15.658 10.033-17.643 3.027-42.349-3.47-59.945-6.248-16.92-14.609-32.503-28.169-44.611-14.112-12.601-31.024-22.723-42.902-37.668-5.496-6.915-9.586-15.359-8.236-24.402 1.685-11.279 10.165-20.523 18.999-27.019 8.458-6.217 18.35-10.312 26.509-16.932 8.782-7.125 13.122-16.985 15.598-27.798 3.181-13.894 8.841-27.269 19.101-37.48 1.674-1.667 3.414-3.046 5.211-4.18 32.185 129.03 54.611 262.23 75.805 395.94 0 22.163-23.434 46.863-34.805 66.327 5.769 166.72-33.038 315.14-113.26 443.16-105.21 18.922-206.12 0.523-276.69-33.604" style="fill:#fff"/></g></g><g clip-path="url(#clipPath178311)" style="opacity:.14999"><g transform="translate(956.68 728.16)"><path d="m0 0c5.567 10.193 10.609 20.662 15.82 31.038 10.505 20.919 21.731 42.571 39.1 58.702 8.203 7.618 17.426 12.607 27.451 17.353 10.256 4.856 20.567 9.605 31.089 13.861 11.401 4.613 23.07 8.775 35.084 11.484 9.672 2.181 20.048 3.617 29.859 1.481-2.568-1.201-5.143-2.386-7.716-3.576-10.787-4.986-21.624-10.133-31.415-16.926-8.024-5.567-54.569-24.884-58.157-34.227-3.231-8.417 60.83-5.607 66.441-12.624 0-44.537-62.515-25.334-111.6-110.31-9.699-22.291-14.348-47.484-11.562-71.735 1.197-10.417 3.167-22.568 10.012-30.87 4.172-5.06 11.778-9.849 11.321-17.073-0.433-6.851-4.883-11.573-8.818-16.765-6.845-9.031-10.954-20.725-12.225-31.934-0.427-3.764-0.273-17.933 6.242-16.929 3.212 0.495 6.564 3.62 9.452 4.99 7.091 3.365 14.862 5.551 22.145 8.512 15.001 6.101 29.873 12.811 45.635 16.75 16.636 4.159 33.717 4.44 50.012-1.34 13.731-4.87 26.061-13.023 36.868-22.703 2.264-2.029 4.452-4.128 6.596-6.268-3.616-14.141-7.315-28.248-11.186-42.281-73.594-26.902-142.92-50.933-174.03-49.253-25.716 83.378-50.629 166.62-55.104 246.59-0.398 8.1-0.625 15.931-0.716 22.003 2.16 2.842 3.049 3.301 7.603 10.872 6.359 10.572 25.876 30.34 31.797 41.182"/></g></g><g clip-path="url(#clipPath178327)" style="opacity:.14999"><g transform="translate(667.07 877.71)"><path d="m0 0 44.656 169.43c-4.614 15.269-23.954 17.731-4.597 47.283 19.358 43.882 38.848 87.787 54.189 130.96-0.042-7.875 0.073-15.752 0.498-23.633 0.647-11.995 1.875-24.054 4.617-35.769 2.131-9.109 5.146-19.342 11.123-26.758 6.829-8.474 18.108-13.398 27.904-17.44 10.538-4.349 22.3-9.022 33.737-10.133 14.983-1.456 29.794 3.789 44.014 7.723 8.093 2.239 16.319 4.339 24.728 4.879 7.073 0.454 14.162 0.718 21.238 1.139 28.219 1.68 57.849 4.406 85.786-1.518-40.27-11.043-199.12-42.017-208.78-44.75-5.541-1.567-11.261-2.529-16.474-5.043-9.609-4.635-18.354-11.634-26.041-18.956-7.422-7.07-15.235-15.609-18.376-25.598-6.742-21.438 19.896-23.14 34.255-21.828 21.778 1.99 153.04 44.617 185.28 41.269-9.289-0.953-127.1-78.85-136.8-87.166-5.203 11.221-24.953 41.294-25.309 40.289-5.587-15.802-5.873-32.658-9.875-48.821-4.631-18.708-16.109-32.566-33.674-40.677-26.046-12.026-61.811-10.618-79.663-36.382-13.47-19.44-11.081-45.61-7.038-67.623 4.711-25.643 14.337-50.413 17.246-76.365 3.295-29.403-0.729-139.27 2.374-150.08 5.375-18.741 15.795-37.564 16.566-57.333 0.664-17.021 1.198-23.892-7.673-37.741-3.746-5.848-19.009-7.994-24.284-12.579-30.553-20.667 29.949-9.585 59.003-14.078 37.64-6.508 64.78-43.392 87.399-71.834-2.602-11.031-5.129-22.005-7.608-32.941l-158.92 61.73c-19.866 103.76-15.481 257.43-7.882 344.11 3.283 65.013-28.731 101.95 18.387 116.24"/></g></g><g transform="translate(715.28 1112.9)"><path d="m0 0c40.774-203.56-58.057-312.03-35.069-704.72" style="fill:none;stroke-dasharray:23.641;stroke-linecap:round;stroke-linejoin:round;stroke-miterlimit:10;stroke-width:7.88;stroke:#0e337c"/></g><g transform="translate(951.5 717.25)"><path d="m0 0c-8.249-85.09 17.289-208.1 47.75-302.33" style="fill:none;stroke-dasharray:23.641;stroke-linecap:round;stroke-linejoin:round;stroke-miterlimit:10;stroke-width:7.88;stroke:#0e337c"/></g><g transform="translate(1104.2 794.73)"><path d="m0 0c-44.827-0.462-72.357-5.769-101.53-21.345zm-79.952 253.92c12.658 0.367 25.43 0.416 38.337 0.154 23.005-139.36 11.592-146.05-41.687-207.29 17.001 58.48 10.987 116.99 3.35 207.14m-357.21-170.94c126.68 39.08 131.84 39.66 139.84 135.54 70.225 19.771 137.55 32.16 207.94 35.061 10.803-158.27 24.743-198.62-97.578-372.2 48.706 55.665 77.887 98.711 94.608 139.55l-0.09-0.232c60.421 31.807 119.77 46.563 179.55 56.613-74.129 0-129.24-18.501-176.04-47.584l-9e-3 -0.026c3e-3 9e-3 6e-3 0.018 9e-3 0.026 67.104 82.603 76.284 69.361 53.795 224.22 29.815-0.85 60.434-3.443 92.23-7.863 0.92-28.851 9.543-32.768 41.614-65.249l0.164 5.089c-29.011 31.002-35.972 35.534-36.836 59.485 11.963-1.729 24.088-3.705 36.417-5.966v11.886c-222.37 28.011-294.6 13.337-507.29-60.879l-2.324-8.817c36.882 13.239 72.286 24.944 106.95 34.91-5.166-101.21-47.109-98.688-131.29-127.29zm531.6 224.59-1.202 8.139c-179.06 35.696-271.66 11.069-485.74-63.303l-3.147-11.943c177.34 63.659 312.47 105.9 490.09 67.107" style="fill:#0e337c"/></g><g transform="translate(1091 1340.3)"><path d="m0 0c-78.504 23.685-201.96 7.659-247.94-28.995-2.187-48.609 2.105-93.568 7.397-137.96 56.961-25.137 121.65-32.369 162.04-32.369 37.761 6.301 72.214 34.906 106.56 69.85-2.341 45.667-11.789 88.791-28.051 129.48" style="fill:#5a85db"/></g><g clip-path="url(#clipPath178359)" style="opacity:.17999"><g transform="translate(1031.8 1177.8)"><path d="m0 0c9.647 26.129 6.546 55.699-6.242 80.187-14.022 26.851-37.794 43.768-65.229 55.235-15.636 6.536-31.899 11.464-48.305 15.655-7.036 1.797-14.41 4.173-21.86 5.724 57.801 18.87 141.99 23.449 200.88 5.682 16.262-40.688 25.71-83.811 28.051-129.48-34.341-34.944-68.794-63.549-106.55-69.85-2.673 0-5.459 0.034-8.335 0.101 12.214 9.542 22.054 21.731 27.597 36.744" style="fill:#fff"/></g></g><g transform="translate(1081.5 1326.7)"><path d="m0 0c-50.566 13.65-174.68 8.396-216.71-21.484-17.731-17.752-7.444-75.978 0-122.15 15.741-11.49 100.48-32.088 140.54-30.208 50.104 14.119 88.2 47.283 97.192 62.829 4.597 16.632-5.254 105.29-21.015 111.01z" style="fill:none;stroke-dasharray:24.162, 24.162;stroke-linecap:round;stroke-linejoin:round;stroke-width:7.88;stroke:#0e337c"/></g><g transform="translate(1089.7 1418.7)"><path d="m0 0c-21.997 66.905-47.035 133.06-106.98 190.61-10.055 2.85-21.594 5.007-33.924 6.794 56.914-58.813 83.845-125.14 106.6-192.51 8.26-34.573 41.271-22.081 34.31-4.893" style="fill:#4b6ec6"/></g><g clip-path="url(#clipPath178383)" style="opacity:.17999"><g transform="translate(1071.1 1419.9)"><path d="m0 0c4.086 24.977-4.397 52.044-12.818 75.218-4.687 12.899-10.179 25.478-16.198 37.805 21.056-36.791 34.869-75.368 47.638-114.2 1.311-3.238 1.202-6.308 0.109-8.929-3.895-2.635-9.024-3.107-15.76 0.135-1.749 0.842-3.28 1.877-4.658 3.04 0.731 2.23 1.297 4.548 1.687 6.933" style="fill:#fff"/></g></g><g clip-path="url(#clipPath178399)" style="opacity:.14999"><g transform="translate(982.7 1609.3)"><path d="m0 0c7.138-6.852 13.767-13.83 19.969-20.914-4.664 2.099-9.937 3.142-11.71-1.341-2.295-5.802 6.948-14.331 9.803-18.531 7.999-11.766 16.462-22.722 23.207-35.318 13.665-25.522 23.891-52.955 29.883-81.292 2.429-11.483 2.312-24.76 9.15-34.794 4.927-7.231 13.636-12.385 22.593-10.958 0.817 0.131 1.575 0.342 2.317 0.573-7.174-8.528-26.487-8.467-32.537 16.857-22.754 67.372-49.686 133.7-106.6 192.51 12.33-1.788 23.869-3.944 33.924-6.794"/></g></g><g transform="translate(1061.8 1422.5)"><path d="m0 0c0 6.347 5.145 11.492 11.492 11.492s11.493-5.145 11.493-11.492-5.146-11.492-11.493-11.492-11.492 5.145-11.492 11.492" style="fill:#0e337c"/></g><g transform="translate(791.19 1373.5)"><path d="m0 0c-25.612 105.73-74.537 191.1-158.58 241.67 8.554 9.891 20.232 22.21 30.192 26.922 74.764-60.951 127.57-104.13 173.17-246.9 11.367-46.646-40.184-41.18-44.781-21.692" style="fill:#4b6ec6"/></g><g clip-path="url(#clipPath178423)" style="opacity:.14999"><g transform="translate(662.8 1642.1)"><path d="m0 0c33.224-27.085 62.109-50.667 87.955-81.033-7.06 7.52-14.503 14.665-22.702 21.062-9.001 7.023-17.919 14.319-27.952 19.85-3.139 1.731-12.311 7.705-16.101 4.066-2.982-2.865 1.066-8.398 2.757-10.739 5.523-7.645 11.922-14.755 18.146-21.83 13.438-15.277 27.379-30.236 38.413-47.415 5.593-8.709 10.218-18.001 15.077-27.129 4.707-8.843 9.355-17.729 13.426-26.887 6.817-15.335 11.686-31.383 13.458-48.096 1.941-18.321 2.846-37.567 8.246-55.363-1.107 1.508-1.92 3.156-2.337 4.923-25.611 105.73-74.536 191.1-158.58 241.67 8.554 9.891 20.231 22.211 30.191 26.922"/></g></g><g clip-path="url(#clipPath178439)" style="opacity:.17999"><g transform="translate(815.59 1385.5)"><path d="m0 0c10.017 11.887 7.686 30.171 4.631 44.119-2.764 12.621-6.568 24.871-11.055 36.865 9.262-20.703 18.166-44.181 26.809-71.244 9.556-39.218-25.353-41.595-39.449-29.777-1.043 3.285-1.872 6.606-2.601 9.717-0.452 1.926-0.842 3.86-1.218 5.795 8.065-2.629 16.867-2.614 22.883 4.525" style="fill:#fff"/></g></g><g transform="translate(798.49 1388.3)"><path d="m0 0c0 9.317 7.553 16.871 16.87 16.871 9.318 0 16.871-7.554 16.871-16.871s-7.553-16.87-16.87-16.87c-9.318 0-16.871 7.553-16.871 16.87" style="fill:#0e337c"/></g><g transform="translate(986.89 310.32)"><path d="m 0,0 c -15.761,-62.715 -27.581,-81.431 62.059,-79.789 66.691,-8.417 110.326,-25.611 202.921,-25.611 48.924,0 96.535,22.656 96.535,52.7 0,47.119 -25.94,24.463 -73.879,40.88 C 244.95,8.209 189.13,38.418 156.624,63.044 158.892,61.67 0,0 0,0" style="fill:#683c2e"/></g><g clip-path="url(#clipPath178463)" style="opacity:.14999"><g transform="translate(986.89 310.32)"><path d="m0 0s158.89 61.67 156.62 63.044c8.83-6.69 19.391-13.793 30.932-20.991-29.534 4.792-48.913-5.687-74.387-23.058-8.619-5.877-16.245-18.89-23.561-26.297-7.059-7.146-18.161-46.986-2.838-53.373 18.923-7.888 39.847-9.776 59.988-12.396 23.799-3.095 46.788-10.241 70.716-12.542 20.219-1.944 40.771-0.783 60.925 1.514 17.31 1.973 34.6 5.109 51.176 10.556 11.009 3.617 21.812 8.501 31.288 14.874-5.792-27.024-50.258-46.731-95.883-46.731-92.595 0-136.23 17.194-202.92 25.611-89.64-1.642-77.82 17.074-62.059 79.789"/></g></g><g transform="translate(1347.2 249.48)"><path d="m0 0c-16.746-18.224-84.738-35.192-151.48-36.178-100.48 3.776-133.31 26.104-219.49 40.343-5.179-4.142-9.29-14.732-4.611-25.075 56.969-5.686 147.51-36.446 224.1-36.446 85.946 0 134.46 21.425 152.68 36.94 3.599 5.5 2.095 14.844-1.208 20.416" style="fill:#96847e"/></g><g clip-path="url(#clipPath178483)" style="opacity:.2"><g transform="translate(976.23 253.64)"><path d="m0 0c5.576-0.921 10.919-1.877 16.08-2.859 7.845-5.493 16.439-10.121 25.699-13.848 26.976-10.857 56.319-15.094 84.725-20.51 36.779-7.012 73.911-13.402 111.46-13.549 16.362-0.064 33.285 0.814 49.818 3.575 7.483 0.77 14.935 1.863 22.325 3.353 23.012 4.64 47.175 14.018 63.854 30.835 0.62-4.173 0.234-8.482-1.793-11.579-18.224-15.514-66.738-36.939-152.68-36.94-76.588 0-167.13 30.761-224.1 36.447-4.679 10.343-0.568 20.932 4.612 25.075" style="fill:#1d1d1b"/></g></g><g transform="translate(806.3 238.74)"><path d="m0 0c6.855-41.852-0.985-47.611-23.641-53.193-14.776-6.239-31.85-66.327-68.954-66.327-89.968-0.259-166.8 21.999-166.8 42.685 0 36.775 80.775 92.595 126.74 135.28 35.462 46.954 128.4 7.597 132.65-58.446" style="fill:#683c2e"/></g><g clip-path="url(#clipPath178503)" style="opacity:.14999"><g transform="translate(591.39 145.31)"><path d="m0 0c19.077-5.487 39.785-8.051 59.595-8.914 19.675-0.858 40.317 0.795 58.621 8.558 8.168 3.465 16.924 8.101 21.485 16.057 4.206 7.336 4.48 15.951 7.011 23.851 3.089 9.638 10.205 14.514 18.256 19.811 6.125 4.031 13.195 8.537 14.941 16.168 3.243 14.172-9.414 28.86-18.471 38.177-13.04 13.415-29.508 22.457-48.146 24.978-17.299 2.341-35.48-0.273-51.992-5.718-0.236-0.078-0.479-0.163-0.718-0.243 7.715 6.593 15.056 13.011 21.674 19.156 35.461 46.954 128.39 7.597 132.65-58.446 6.854-41.852-0.985-47.611-23.642-53.193-14.775-6.239-31.849-66.327-68.953-66.327-89.969-0.259-166.8 21.999-166.8 42.685 0 3.581 0.774 7.345 2.2 11.257 10.001-14.327 25.059-22.903 42.288-27.857"/></g></g><g transform="translate(808.61 211.59)"><path d="m0 0c-11.146-22.19-33.35-20.53-47.669-45.224-34.24-56.652-170.78-51.049-214.04-4.459v-22.934c21.464-17.846 91.189-27.391 145.97-27.391 41.918 0 60.296 21.246 80.101 42.333 5.395 7.671 29.723 26.927 35.633 36.108 3.605 5.276 1.9 20.755 0 21.567" style="fill:#96847e"/></g><g clip-path="url(#clipPath178523)" style="opacity:.2"><g transform="translate(570.74 133.79)"><path d="m0 0c24.536-10.007 50.959-10.654 76.906-13.381 23.387-2.458 48.106-5.26 70.904 2.216 10.409 3.414 20.036 8.88 27.389 17.086 7.469 8.339 12.87 18.231 19.598 27.13 6.004 7.941 13.755 14.071 20.814 21.013 1.911 1.881 3.972 3.91 5.903 6.089 6.35 4.283 12.144 9.262 16.357 17.649 1.9-0.812 3.605-16.29 0-21.567-5.91-9.181-30.238-28.437-35.633-36.108-19.805-21.086-38.183-42.333-80.101-42.333-54.784 0-124.51 9.546-145.97 27.392v17.011c5.703-9.648 13.176-17.849 23.837-22.197" style="fill:#1d1d1b"/></g></g><g transform="translate(1174.4 352.38)"><path d="m0 0c-49.977 29.96-128.12-24.978-191.91-58.947-24.431-10.628-41.618 24.328-37.022 79.938 9.194 85.371 30.431 17.074 79.79 52.208 76.505 70.267 97.802 46.276 136.87 30.537 36.38-18.052 19.956-29.231 12.854-59.382-2.716-11.529 19.481-28.308-0.584-44.354" style="fill:#7a94d3"/></g><g clip-path="url(#clipPath178543)" style="opacity:.17999"><g transform="translate(1175.9 389.11)"><path d="m0 0c-1.888 1.521-3.831 2.984-5.851 4.36-17.294 11.78-38.106 16.339-58.837 15.09-10.498-0.632-20.733-2.409-30.477-6.469-11.58-4.825-22.23-11.609-33.828-16.393-4.035-1.665-30.872-10.339-25.001 1.127 4.614 9.01 14.789 14.144 23.769 17.522 16.58 6.236 34.123 9.903 51.721 11.418 14.833 1.277 30.429 2.087 44.597 7.038 9.718 3.396 18.695 10.018 14.783 21.38-3.987 11.582-16.269 17.506-27.292 20.523-14.805 4.05-30.813 4.314-45.953 2.259-0.213-0.029-0.431-0.062-0.645-0.092 33.891 14.823 52.375 0.081 79.282-10.759 36.379-18.052 19.955-29.231 12.853-59.382-0.55-2.339-0.06-4.901 0.879-7.622" style="fill:#fff"/></g></g><g clip-path="url(#clipPath178559)" style="opacity:.14999"><g transform="translate(945.52 373.37)"><path d="m0 0c9.194 85.372 30.431 17.074 79.789 52.208 12.059 11.075 22.742 19.804 32.343 26.597-13.099-17.209-28.975-34.876-50.507-40.328-12.194-3.087-24.763-4.416-36.39-9.547-8.131-3.588-16.708-10.264-11.991-20.02 3.077-6.362 8.098-9.615 15.106-9.891 4.529-0.178 9.119 0.746 13.635 0.229 4.199-0.481 10.275-4.587 7.591-9.473-3.135-5.704-11.947-6.689-17.154-9.616-6.461-3.632-13.333-11.387-14.276-18.953-0.752-6.017 3.345-11.903 9.206-13.492 6.154-1.667 13.077 0.999 18.648 3.406 7.609 3.285 14.689 7.616 21.85 11.752 7.868 4.545 16.033 8.576 23.956 13.034 20.753 11.675 41.521 22.807 65.365 26.463 20.201 3.097 41.363 2.663 60.796-4.159 6.63-2.327 12.836-5.396 18.604-9.084-1.112-3.368-3.443-6.758-7.642-10.117-49.978 29.961-128.12-24.978-191.91-58.946-24.432-10.628-41.619 24.327-37.022 79.937"/></g></g><g transform="translate(808.1 226.1)"><path d="m0 0c-22.41 57.133-98.013 102.2-176.85 34.425-39.121-9.06-20.072 49.304-16.219 77.871 5.664 37.678-27.582 58.61 34.969 87.177 82.252 35.955 117.51 3.761 171.89-52.208 32.015-33.245 2.709-29.551-1.97-74.864-0.738-22.656 31.769-64.274-11.82-72.401" style="fill:#7a94d3"/></g><g clip-path="url(#clipPath178579)" style="opacity:.17999"><g transform="translate(661.31 410.66)"><path d="m0 0c-7.12-4.717-13.711-10.105-18.763-17.072-3.546-4.891-8.45-14.275-2.081-19.196 5.059-3.908 14.408 0.567 19.268 2.607 7.914 3.321 15.288 7.761 23.167 11.127 12.549 5.363 25.135 12.763 38.923 14.275 5.123 0.562 15.978 0.382 18.634-5.324 1.971-4.231-3.17-8.399-6.204-10.529-6.887-4.833-14.991-6.354-23.05-8.066-9.456-2.009-18.937-4.031-28.135-7.039-7.786-2.547-16.267-5.736-22.189-11.627-2.921-2.907-7.457-9.444-3.807-13.368 3.717-3.995 12.467-2.93 17.252-2.896 7.554 0.054 17.667 1.373 24.431-2.758 2.311-1.412 1.941-2.264-0.057-3.794-1.884-1.443-4.061-2.482-6.259-3.354-4.834-1.92-9.99-3.048-15.073-4.077-9.971-2.018-20.533-2.955-30.095-6.596-10.658-4.059-23.376-11.912-29.775-21.57-5.457-8.237-6.994-18.079-9.606-27.508-3.52 17.422 4.745 46.722 7.142 64.501 5.664 37.678-27.582 58.611 34.969 87.177 56.493 24.695 90.82 17.235 124.4-7.991-35.175 16.646-81.037 14.322-113.09-6.922" style="fill:#fff"/></g></g><g clip-path="url(#clipPath178595)" style="opacity:.14999"><g transform="translate(639.38 285.3)"><path d="m0 0c15.084 16.099 33.98 31.239 56.614 33.925 25.567 3.034 51.698-9.65 73.088-22.245 7.156-4.215 13.804-9.165 20.921-13.408 4.09-2.439 10.161-5.992 14.057-1.305 4.305 5.18 0.136 14.105-2.64 19.025-4.523 8.02-11.591 14.338-19.107 19.496-8.764 6.013-18.404 10.541-27.889 15.27-7.173 3.577-16.401 8.028-20.707 15.121-7.429 12.237 18.314 13.674 24.997 12.114 10.363-2.42 19.243-8.74 28.153-14.249 8.826-5.457 26.856-16.049 29.368 1.063 1.83 12.47-2.961 26.412-8.824 37.977 4.702-4.685 9.509-9.596 14.48-14.712 32.014-33.245 2.709-29.551-1.97-74.864-0.739-22.656 31.768-64.274-11.82-72.401-22.411 57.133-98.014 102.2-176.85 34.424-5.101-1.181-9.192-1.194-12.478-0.298 6.45 8.689 13.192 17.151 20.609 25.067"/></g></g><g transform="translate(1106.4 320.52)"><path d="m0 0c4.013 4.829 6.932 10.67 11.521 15.228 4.632 4.602 10.583 7.634 16.966 9.629-6.994-8.783-14.591-18.978-19.412-29.478-3.056 1.491-6.085 3.026-9.075 4.621m16.03-7.87c0.727 2.861 1.65 5.723 2.874 8.601 3.776 8.881 8.909 17.152 14.079 25.351 0.916 0.215 1.832 0.424 2.754 0.603-2.22-7.613-5.016-15.072-7.424-22.632-4.191-3.699-7.732-7.957-10.291-12.784-0.663 0.287-1.328 0.573-1.992 0.861m22.637 19.253c1.344 5.401 2.662 10.809 3.565 16.307 2.343 0.273 4.666 0.463 6.926 0.579 1.182 0.061 1.192 1.196 0 1.224-2.224 0.052-4.427 0.107-6.633 0.159 0.218 1.509 0.411 3.023 0.552 4.547 0.206 0.253 0.416 0.502 0.621 0.755 0.982-0.855 1.829-1.577 2.507-2.109 5.084-3.992 10.562-9.046 16.632-12.381-8.269-1.755-16.681-4.792-24.17-9.081m21.502 18.055c-4.276 3.333-8.274 7.035-12.261 10.746 4.671 5.819 9.365 11.616 14.446 17.097 5.273 5.69 14.197 12.432 21.336 5.737 4.526-4.245 6.289-12.413 6.283-18.273-8e-3 -6.289-2.042-13.248-6.214-18.102-7.209-8.387-16.934-2.391-23.59 2.795m-22.596 10.858c-1.429-2.322-2.789-4.673-4.045-7.056-2.762 0.824-5.61 0.865-8.889 0.728-7.769-0.324-22.992 2.001-18.878 14.025 4.678 13.669 20.877 1.644 31.812-7.697m-82.249-27.064c14.419-11.641 33.012-20.03 50.25-27.372-2.354-8.778-2.095-17.537 2.734-25.643 0.757-1.27 4.07-1.523 4.233 0.361 0.642 7.45 0.813 14.604 1.682 21.671 2.972-1.208 5.954-2.389 8.956-3.515-0.307-6.822 0.251-13.668 0.926-20.472 0.875-8.807 1.397-17.508 5.578-25.436 0.626-1.187 3.542-1.475 4.051 0 4.623 13.38 0.954 28.006-0.021 42.158 11.022-3.742 22.217-6.96 33.572-9.643 8.041-1.899 16.257-3.633 24.541-5.07-0.014-0.474-0.012-0.949 0.047-1.426 0.169-1.363 2.491-1.617 3.403-0.889 0.583 0.466 1.111 0.959 1.617 1.463 10.26-1.607 20.597-2.687 30.826-2.914 7.031-0.155 14.348 0.561 20.602 4.043 6.872 3.825 11.985 10.581 18.158 15.383 0.43 0.335-0.044 0.731-0.458 0.697-5.438-0.449-9.452-3.054-13.933-6.135-3.702-2.543-7.135-5.611-11.442-7.139-5.65-2.005-12.012-1.311-17.812-0.664-6.972 0.777-13.933 1.798-20.861 3.033 0.594 0.783 1.21 1.565 1.886 2.335 3.56 4.049 7.829 7.351 12.448 10.102 5.546 3.304 11.525 5.525 17.484 7.93 2.613 1.053 3.647 1.191 4.917 3.615 0.156 0.3-0.272 0.503-0.49 0.544-9.081 1.69-20.642-5.118-28.239-9.717-4.643-2.81-11.888-7.674-15.676-13.348-9.172 1.852-18.27 4.069-27.239 6.604-0.08 0.023-0.159 0.048-0.239 0.07 4.418 5.658 6.89 12.385 12.272 17.493 8.545 8.11 19.162 9.188 30.416 9.535 2.527 0.078 2.485 2.454 0 2.583-11.492 0.599-23.243 0.594-33.395-5.545-7.139-4.316-16.131-12.797-17.512-21.629-8.414 2.585-16.749 5.464-24.976 8.612 0.021 0.316 0.024 0.635 0.051 0.95 0.37 4.374 1.098 8.672 1.997 12.934 3.602 3.87 7.665 7.279 12.491 10.115 6.899 4.055 14.324 6.236 21.742 8.69 1.113-0.28 2.242-0.494 3.395-0.599 8.877-0.814 17.457 4.101 22.394 11.337 10.244 15.015 3.941 44.071-16.742 45.951-10.115 0.918-18.591-5.244-25.076-12.379-4.428-4.872-8.667-10.174-12.504-15.742-2.812 2.51-5.68 4.941-8.71 7.154-9.961 7.276-33.801 11.317-36.567-6.166-1.021-6.456 2.709-12.622 8.112-15.963 5.59-3.456 11.364-2.991 17.13-2.825-4.663-0.989-9.218-2.628-13.62-5.345-5.687-3.51-13.493-10.465-16.995-17.944-8.573 4.804-17.068 9.732-25.881 14.166-4.322 2.175-16.238-0.588-9.523-6.009" style="fill:#44271e"/></g><g transform="translate(654.15 246.33)"><path d="m0 0c8.853 5.129 16.666 11.542 23.256 19.376 2.186-0.107 4.361-0.269 6.507-0.544-2.788-9.124-6.213-18.043-10.448-26.452-5.473 2.949-10.954 5.216-15.636 6.641-1.139 0.347-2.377 0.674-3.679 0.979m22.456-22.195c0.403 0.625 0.767 1.257 1.151 1.886 1.194-0.966 2.373-1.953 3.523-2.978 5.325-4.749 9.443-10.613 14.433-15.619-0.116-0.119-0.228-0.242-0.344-0.361-6.086-6.248-12.535-14.25-19.744-19.748-2.552 2.974-5.516 8.057-7.377 9.778-2.944 2.721-6.174 5.139-9.605 7.211 7.03 5.475 13.095 12.271 17.963 19.831m23.738-11.858c-2.977 8.292-10.195 15.564-18.472 21.295 4.71 9.744 7.446 19.854 9.189 30.314 2.328-0.54 4.608-1.199 6.824-1.988 7.102-2.531 13.123-6.907 17.71-12.871 1.078-1.401 4.682-7.057 6.742-11.938-1.742-1.986-3.473-3.945-5.125-5.887-5.478-6.44-11.081-12.766-16.868-18.925m3.085 53.389c-3.8 1.398-7.682 2.456-11.611 3.206 0.433 3.138 0.8 6.305 1.116 9.503 8.469 1.295 16.249 2.168 24.85-2.678 8.287-4.67 16.412-13.306 16.584-23.249-1.753-2.771-3.739-5.455-5.847-8.067-1.209 1.992-2.478 3.813-3.573 5.294-5.415 7.319-12.99 12.851-21.519 15.991m-11.906 23.177c-0.929-0.09-1.834-0.519-1.99-1.292-0.015-0.077-0.033-0.154-0.048-0.231-7.987 6.358-19.912 6.84-30.558 5.937-7.853 2.347-15.406 5.303-21.973 9.451-3.265 2.063-5.984 3.742-3.998 7.6 3.383 6.573 16.922 2.804 22.126 1.3 13.387-3.868 26.345-12.694 36.441-22.765m-42.625-1.767c2.452 0.42 5.239 0.896 8.169 1.279 8.567-2.36 17.289-4.218 25.98-6.077-16.207-2.855-31.607-7.773-46.564-14.61-7.369-3.369-20.543-10.561-28.161-5.447-6.349 4.263 2.337 11.87 6.955 14.786 9.48 5.986 22.77 8.207 33.621 10.069m38.403-9.545c-0.628-2.578-1.297-5.151-2.017-7.713-1.455 0.153-2.917 0.236-4.378 0.312 1.662 2.265 3.227 4.645 4.702 7.127 0.083 0.029 0.169 0.05 0.252 0.079 0.485 0.062 0.963 0.129 1.441 0.195m-45.947-13.805c1.788 0.81 3.571 1.624 5.346 2.418 10.325 4.618 21.341 6.233 32.05 9.078-1.371-1.706-2.779-3.377-4.259-4.978-11.301-0.247-22.598-2.622-33.137-6.518m-85.375-62.991c12.546 5.914 23.489 14.645 35.865 20.95 13.561 6.91 28.045 10.929 42.405 15.741 3.304 1.107 6.502 2.352 9.609 3.711 5.819-0.727 11.555-2.404 16.9-4.683 3.121-1.33 6.094-2.915 8.948-4.687-5.062-8.716-11.109-16.742-18.376-23.679-5.914 2.614-12.166 4.415-18.531 5.662-10.686 2.092-22.006 3.046-32.894 3.222-8.02 0.129-16.41-0.515-22.899-5.611-2.641-2.074 1.683-3.335 3.394-2.776 13.446 4.393 27.767 2.917 41.599 1.067 8.219-1.099 16.479-2.882 24.018-6.259-4.659-3.804-9.759-7.196-15.352-10.091-1.341-0.694 0.613-1.628 1.362-1.478 7.354 1.48 14.19 4.318 20.413 8.159 1.646-1.027 3.246-2.144 4.778-3.389 5.032-4.086 7.111-9.558 11.406-14.037 1.486-1.549 3.217-2.802 5.498-3.149 7.873-1.196 14.955 9.407 19.617 14.18 10.295 10.542 21.14 21.441 31.108 32.919 0.727-0.28 1.49-0.442 2.034-0.472 0.355-0.02 0.71-0.039 1.066-0.059 1.487-0.083 4.048 0.629 4.623 2.221 0.815 2.259 0.643 4.84-0.075 7.47 4.03 5.057 7.832 10.231 11.287 15.543 7.25 11.147 8.586 32.038-9.066 33.11-1.48 0.09-5.099-1.549-3.117-3.426 6.92-6.558 9.643-13.021 6.42-21.473-1.521 9.669-9.484 18.073-18.251 22.347-5.27 2.569-13.039 4.522-20.357 4.34-12.325 15.984-26.898 28.644-47.322 32.593-7.637 1.477-31.592 1.963-29.333-11.808 1.325-8.076 14.436-12.601 23.162-15.245-13.892-2.032-30.739-5.175-41.295-14.323-4.128-3.576-9.834-9.897-6.79-15.745 3.091-5.94 12.428-6.324 18.122-5.846 7.723 0.649 14.962 3.388 22.022 6.488-0.552-0.788 1.256-1.668 2.364-1.337 9.175 2.748 19.452 4.579 29.697 4.876-4.777-4.525-10.015-8.571-15.707-12.064-3.599-2.208-7.351-4.026-11.185-5.63-14.311 1.266-31.21-0.966-38.025-12.008-19.351-6.288-42.958-16.573-52.545-33.674-0.908-1.62 2.526-2.064 3.403-1.65" style="fill:#44271e"/></g><g transform="translate(512.09 1004.5)"><path d="m0 0c-0.657 0.657-91.938-30.208-91.938-30.208l-28.895 47.282 13.134-76.834-66.984-19.701-246.92 939.74 116.89 42.029 31.522-67.64-2.627 51.223 49.91 24.782z" style="fill:#9b6a59"/></g><g transform="translate(122.74 1876.3)"><path d="m0 0c2.758-14.46 6.659-28.685 10.618-42.081 9.576-32.409 22.775-63.595 37.334-94.073 14.796-30.99 31.483-61.073 47.343-91.551 8.215-15.76 16.213-31.62 23.917-47.656 4.275-8.885 9.083-18.007 13.14-27.346 2.049-7.387 4.453-14.598 7.369-21.533 0.925-3.999 11.189-3.093 10.027 1.754-4.156 17.238-9.298 33.984-12.332 51.538-2.66 15.445-4.275 30.95-5.595 46.553-2.68 31.877-5.675 63.832-11.565 95.294-5.714 30.517-14.757 60.404-26.893 88.97-8.924 20.982-18.341 42.751-29.709 63.024l-11.033-3.96c9.004-21.75 20.036-42.968 28.409-64.797 11.506-30.044 21.042-60.324 26.439-92.141 5.261-31.03 7.606-62.473 12.255-93.6 1.635-11.013 3.112-22.42 4.926-33.847-5.615 12.176-11.467 24.232-17.357 36.27-14.994 30.635-30.222 61.132-44.565 92.083-14.145 30.556-26.852 61.841-36.684 94.072-4.826 15.8-8.786 31.876-11.978 48.09z" style="fill:#754a41"/></g><g transform="translate(122.76 1744.9)"><path d="m0 0c23.996-48.898 55.498-94.506 85.681-139.74 27.778-41.647 55.182-83.65 76.322-129.16 22.795-49.055 37.097-101.72 50.061-154.08 13.319-53.882 24.508-108.3 33.551-163.08 4.551-27.562 8.57-55.222 12.018-82.961 3.487-27.838 5.931-55.813 11.21-83.375 0.355-1.871 2.916-2.778 5.064-2.541l-5.399 31.62 8.373-13.712c-0.65 26.557-4.196 53.015-7.585 79.356-3.999 30.852-8.648 61.625-13.988 92.28-9.338 53.567-20.804 106.72-34.083 159.44-13.239 52.582-28.114 104.48-52.386 153.18-44.859 90.073-110.21 168.01-161.98 253.99-1.399 2.344-8.334 1.832-6.856-1.202" style="fill:#754a41"/></g><g transform="translate(280.96 1139.8)"><path d="m0 0c0.236-0.394 0.453-0.788 0.69-1.182 15.327-26.025 32.841-50.868 50.1-75.632 2.068-2.975 12.234-2.837 11.84 2.029-3.743 45.667-7.546 91.374-13.141 136.88-9.772 79.395-25.021 158.83-55.026 233.3-7.821 19.445-16.45 38.633-27.404 56.522-9.93 16.194-21.317 31.443-32.448 46.83-12.924 17.849-25.651 35.875-38.89 53.488-7.171 9.535-14.48 18.834-21.908 28.034l6.226-23.68v-0.02c2.541-3.763 5.102-7.506 7.723-11.249 13.712-19.642 27.916-38.949 41.884-58.394 11.959-16.648 23.858-33.334 33.473-51.479 9.456-17.889 17.297-36.644 24.409-55.557 14.441-38.319 25.218-77.937 33.434-118.03 14.598-71.239 21.317-143.76 27.286-216.16-13.259 18.322-26.065 36.9-37.511 56.503-8.491 14.519-16.017 29.59-23.09 44.859-0.019 0.02-0.039 0.039-0.019 0.059z" style="fill:#754a41"/></g><g transform="translate(172.78 1542.7)"><path d="m0 0c1.498-2.916 3.034-5.831 4.63-8.727 0-0.04 0.019-0.079 0.039-0.119 11.821-21.829 25.08-42.909 36.526-64.974 12.904-24.843 24.291-50.494 34.162-76.676 18.224-48.485 30.576-98.781 38.083-149.94-20.331 24.193-37.353 50.809-52.622 78.587-0.138 0.237-0.257 0.473-0.394 0.71l9.792-37.235c14.027-21.415 29.413-41.944 46.395-61.074 2.089-2.364 11.663-2.955 11.171 1.912-5.832 57.29-19.839 113.66-40.328 167.44-10.403 27.305-22.578 53.902-36.428 79.651-13.377 24.863-28.586 50.277-47.48 71.397-0.275 0.315-0.906 0.472-1.596 0.472-1.181 0.06-2.482-0.374-1.95-1.418" style="fill:#754a41"/></g><g transform="translate(372.92 1517.8)"><path d="m0 0c0.611-44.485 4.788-89.049 9.161-133.4 7.664-77.957 17.535-155.74 27.996-233.38 5.28-39.146 10.797-78.272 16.648-117.36 2.719-18.164 5.497-36.289 8.334-54.434 4.177 1.419 9.003 3.034 14.165 4.748-3.349 21.691-6.64 43.362-9.831 65.073-11.407 77.563-22.066 155.22-31.582 233.04-9.614 78.508-16.687 157.84-30.359 235.7-0.335 1.871-4.571 1.99-4.532 0" style="fill:#754a41"/></g><g transform="translate(243.62 1894)"><path d="m0 0c3.29-16.411 6.344-32.881 9.95-49.272 4.668-21.14 8.766-42.338 11.898-63.753 5.616-38.496 5.518-76.007 4.887-114.76-0.572-34.693 3.271-69.19 10.698-103.06 15.327-69.86 44.544-136.78 79.889-198.74 1.595-2.798 11.268-3.586 10.343 0.886-12.708 61.487-9.32 125.97-8.67 188.4 0.177 16.588 0.493 33.176 0.867 49.765l-9.122 36.821c-0.63-28.882-0.906-57.744-1.182-86.587-0.511-53.271-1.556-106.84 3.941-159.87-13.357 26.794-26.104 53.903-37.057 81.819-13.418 34.221-24.371 69.545-31.03 105.74-6.581 35.816-7.624 71.376-6.66 107.69 1.045 38.456-2.206 76.4-9.83 114.13-3.527 17.534-7.625 34.969-12.255 52.247-3.684 13.771-8.294 27.089-12.806 40.486z" style="fill:#754a41"/></g><g transform="translate(142.65 1883.5)"><path d="m0 0c0.729-1.97 1.498-3.92 2.128-5.812 2.62-7.86 5.398-15.662 8.294-23.424 5.615-14.953 11.781-29.709 18.44-44.229 13.496-29.433 30.636-56.838 44.643-85.936 1.576-3.29 11.25-3.783 10.895 0.926-2.443 32.684-11.604 64.363-24.607 94.309-6.679 15.367-14.047 30.379-21.671 45.292-4.748 9.319-10.087 18.185-15.446 27.03h-0.02l-7.762-2.797c2.995-8.334 6.206-16.569 10.107-24.843 6.876-14.54 13.869-29.059 20.312-43.815 10.678-24.39 20.154-49.312 25.139-75.377-14.166 21.297-25.474 44.879-35.876 67.949-6.305 14.008-12.136 28.232-17.475 42.653-2.876 7.762-5.615 15.583-8.196 23.444-0.769 2.306-1.418 4.689-2.108 7.073z" style="fill:#754a41"/></g><g transform="translate(291.83 1728.4)"><path d="m0 0c1.202-33.906-1.675-67.811-0.729-101.72 1.714-62.137 22.085-125.2 49.351-180.62 1.045-2.108 6.679-1.773 5.813 1.024-15.584 50.415-6.719 105.46-1.163 156.76 1.852 17.002 3.802 34.122 5.555 51.321l-5.496 22.164c-1.655-25.828-3.999-51.597-6.64-77.307-4.333-41.964-8.628-83.139-3.466-124.47-8.886 23.937-16.511 48.426-21.81 73.308-13.909 65.486-2.64 132-8.038 198.02-2.503 30.675-8.669 61.093-18.283 90.31-7.349 22.341-17.397 43.599-25.395 65.664l-11.427-5.674c6.679-24.154 18.361-47.381 25.572-71.101 9.614-31.699 14.993-64.58 16.156-97.678" style="fill:#bc8779"/></g><g transform="translate(101.95 1868.9)"><path d="m0 0c0.415-18.047 3.822-36.506 7.566-53.528 5.398-24.626 14.362-47.598 28.015-68.796 14.736-22.853 31.01-44.662 44.997-68.028 13.85-23.129 26.951-46.396 42.101-68.717 0.414-0.591 2.286-0.394 1.971 0.512-17.495 50.041-49.746 92.576-75.16 138.66-12.037 21.849-20.292 45.195-25.947 69.446-4.196 18.047-6.028 37.038-10.245 55.223h-0.019z" style="fill:#bc8779"/></g><g transform="translate(148.98 1885.8)"><path d="m0 0c5.418-13.574 10.915-26.793 17.81-39.717 7.368-13.791 15.387-27.759 20.923-42.377 4.826-12.727 7.781-28.843 17.829-38.634 0.06-0.079 0.355-0.079 0.295 0.079-2.56 6.954-6.324 13.436-8.766 20.509-2.542 7.249-4.63 14.657-7.23 21.887-5.281 14.717-12.137 28.488-18.579 42.693-5.674 12.529-10.737 25.138-15.524 38.003l-6.285-2.266z" style="fill:#bc8779"/></g><g transform="translate(168.44 1568)"><path d="m0 0 4.65-17.711c10.875-14.658 23.996-28.133 34.555-42.003 19.249-25.257 32.586-54.927 45.196-83.867 12.234-28.074 22.893-56.877 31.088-86.37 15.091-54.256 23.583-110.74 23.602-167.18-13.18 20.016-26.636 39.855-39.658 59.99-6.206 9.575-12.353 19.208-18.421 28.862l10.894-41.451v-0.02c15.23-23.72 30.873-47.341 47.756-69.879 2.247-3.015 12.511-3.015 12.235 2.088-1.005 18.578-1.734 37.137-3.606 55.655-1.753 17.377-5.457 34.517-8.195 51.755-9.773 61.31-26.912 122.74-51.992 179.62-12.432 28.231-27.168 54.237-46.593 78.233-14.106 17.435-28.173 34.457-41.511 52.286" style="fill:#bc8779"/></g><g transform="translate(285.63 1122.1)"><path d="m0 0 13.121-50.001v-0.02c3.98-6.758 7.92-13.535 11.821-20.331 10.757-18.835 21.041-37.925 31.404-56.976 5.359-9.85 10.521-19.819 16.056-29.591 3.231-5.694 6.305-11.742 10.068-17.218-0.453-4.788-0.946-9.575-1.36-14.343l16.411 4.827c1.3 9.811 1.399 19.898 1.36 29.236-0.04 18.657-1.793 37.275-3.981 55.774-4.471 37.767-9.909 75.514-16.154 113-6.345 37.905-14.54 75.219-22.677 112.77-8.116 37.452-15.662 75.475-29.473 111.35-0.275 0.709-2.384 0.69-2.206-0.197 6.875-37.294 17.061-73.879 24.075-111.15 7.013-37.274 11.486-75.179 16.529-112.77 5.044-37.629 10.146-75.278 14.619-113 2.049-17.416 3.703-34.91 3.921-52.464-4.118 9.476-8.787 18.716-13.377 27.975-9.576 19.347-19.938 38.279-30.479 57.114-10.854 19.425-22.084 38.712-34.161 57.428-1.833 2.837-3.664 5.714-5.517 8.59" style="fill:#bc8779"/></g><g transform="translate(426.39 1349.9)"><path d="m0 0c0.552-24.685 2.266-49.43 3.862-73.859 4.551-69.289 11.347-138.44 18.814-207.47 2.936-27.207 5.891-54.415 8.847-81.622 5.22 1.734 10.579 3.527 15.8 5.26-6.995 64.206-14.165 128.39-20.824 192.64-3.31 31.877-6.463 63.793-9.3 95.728-0.02 0.02-0.02 0.039-0.02 0.079z" style="fill:#bc8779"/></g><g transform="translate(306.02 1835.1)"><path d="m0 0s0.02-0.02 0.02-0.039c5.437-36.27 6.856-72.914 7.152-109.79 0.216-25.651 1.359-51.401 2.64-77.032 0.591-11.919 1.3-23.838 1.832-35.777 0.512-11.623-0.374-24.606 3.704-35.659 0.256-0.669 1.674-0.532 1.812 0.158 2.266 12.51-0.61 26.38-0.689 39.087-0.079 13.081 0.61 26.301 1.576 39.363 1.812 24.941 4.058 50.198 4.019 75.218-1e-3 5.477-0.079 10.954-0.217 16.431z" style="fill:#bc8779"/></g><g clip-path="url(#clipPath178679)" style="opacity:.14999"><g transform="translate(327.97 1531.6)"><path d="m0 0c-2.209-39.968 18.859-62.151 48.511-63.675 12.114-25.001 3.508-43.246 33.808-53.048 0 0 1.609 32.625-5.186 65.415-7.306 43.663 24.464 52.158 6.795 82.229-23.106 29.052-80.191-1.189-83.928-30.921m-139.47-96.302c-23.969-17.402-12.477-55.163 20.194-64.521-8.208-16.581-0.657-41.864 33.492-41.864 27.91 0 38.089 41.372 16.746 55.655 16.089 12.642 10.271 49.553-10.836 53.193 30.537 12.23 9.686 65.835-13.298 64.521 37.432 21.835 2.462 72.894-52.563 63.812-31.824-6.351-36.092-50.842-5.555-63.812-28.895-11.821-9.851-64.357 11.82-66.984"/></g></g><g transform="translate(392.24 1487.6)"><path d="m0 0 18.047-72.748c11.254 28.851 17.37 38.535 10.574 71.324-7.305 43.664 24.465 52.158 6.796 82.23-23.106 29.052-80.191-1.19-83.928-30.921-2.209-39.969 18.858-48.36 48.511-49.885" style="fill:#ffd5c7"/></g><g clip-path="url(#clipPath178699)" style="opacity:.3"><g transform="translate(343.73 1537.5)"><path d="m0 0c2.021 16.082 19.654 32.292 39.071 39.209-7.703-4.848-14.271-11.759-18.984-19.3-6.164-9.863-8.903-21.351-4.299-32.38 4.283-10.261 12.229-17.09 23.064-19.62 6.724-1.57 12.941-2.803 18.282-7.564 5.164-4.603 8.232-11.138 10.271-17.63 4.17-13.276 7.993-27.33 8.381-41.386-2.32-6.906-5.488-14.373-9.228-23.962l-18.047 72.748c-29.652 1.525-50.72 9.917-48.511 49.885" style="fill:#ad5842"/></g></g><g transform="translate(168.44 1568)"><path d="m0 0c-31.824-6.351-36.092-50.842-5.555-63.812-28.895-11.821-9.851-64.357 11.821-66.983-23.97-17.403-12.478-55.163 20.193-64.521-8.208-16.582-0.656-41.865 33.492-41.865 27.91 0 26.268 39.402 4.926 53.685 16.088 12.642 10.27 49.553-10.836 53.193 30.536 12.23 9.686 65.835-13.299 64.521 37.432 21.836 14.283 74.864-40.742 65.782" style="fill:#ffd5c7"/></g><g clip-path="url(#clipPath178719)" style="opacity:.3"><g transform="translate(236.73 1358.9)"><path d="m0 0c-1.669 11.338-8.501 16.234-18.902 21.9 8.544 7.553 12.611 23.778 8.459 33.467-5.984 13.961-23.913 20.132-37.839 23.442 12.955 9.274 22.994 25.287 18.693 40.27-4.326 15.063-25.237 22.97-39.43 27.006 9.049 4.275 21.391 12.807 26.748 21.756 4.659 7.781 5.046 13.364 3.247 22.359-1.636 8.186-8.95 14.006-15.637 18.646-0.617 0.429-1.273 0.867-1.958 1.3 46.431 0.364 63.734-46.56 29.075-66.778 22.984 1.314 43.835-52.29 13.298-64.521 21.107-3.64 26.925-40.551 10.836-53.193 20.854-13.956 22.882-51.873-3.073-53.602 5.335 4.878 7.691 19.733 6.483 27.948" style="fill:#ad5842"/></g></g><g transform="translate(209.19 1502.2)"><path d="m0 0c-17.169 2.996-32.773 3.885-46.298 1.97 3.859-3.147 30.521-3.744 46.298-1.97" style="fill:#ad5842"/></g><g transform="translate(222.48 1437.7)"><path d="m0 0c-16.428 1.546-32.302 1.21-47.775-0.493 3.94-2.462 32.988-2.065 47.775 0.493" style="fill:#ad5842"/></g><g transform="translate(233.32 1384.5)"><path d="m0 0c-16.638-3.284-30.217-7.092-38.417-11.821 7.142-1.231 25.069 5.698 38.417 11.821" style="fill:#ad5842"/></g><g transform="translate(1544.2 1724.6)"><path d="m0 0h63.372l-1e-3 323.43h-63.372z" style="fill:#9d9d9c"/></g><g clip-path="url(#clipPath178751)" style="opacity:.14999"><g transform="translate(1607.6 2048)"><path d="m0 0v-69.972c-0.209 0.499-0.395 1.003-0.618 1.499-3.339 7.448-8.754 14.629-17.126 16.519-7.468 1.685-15.811-0.185-20.124-6.82-5.311-8.171-5.356-264.65-5.356-264.65h-20.147v323.43z"/></g></g><g clip-path="url(#clipPath178767)" style="opacity:.14999"><g transform="translate(1544.2 2013.4)"><path d="M 0,0 V 34.609 H 63.371 V 0.308 C 42.417,-2.261 21.118,-1.683 0,0"/></g></g><g transform="translate(1552.4 1538.8)"><path d="m0 0h46.888c16.027 0 29.141 13.114 29.141 29.141l-1e-3 159.62c0 16.028-13.113 29.141-29.141 29.141h-46.888c-16.027 0-29.141-13.114-29.141-29.141l1e-3 -159.62c0-16.028 13.113-29.141 29.141-29.141" style="fill:#8e1e1e"/></g><g clip-path="url(#clipPath178787)" style="opacity:.17999"><g transform="translate(1610.9 1581.4)"><path d="m0 0c0.952 27.091 1.316 54.2 1.384 81.307 0.032 13.244 0.333 26.462 0.659 39.702 0.169 6.883 0.27 13.77 0.118 20.655-0.101 4.545 0.357 9.204-0.109 13.728-0.798 7.746-5.362 11.038-12.831 11.571-4.612 0.329-9.225-0.233-13.838-0.118-4.795 0.118-9.585 0.394-14.379 0.534-15.195 0.445-31.478 0.042-44.945-7.127 4.99 8.94 14.531 15.033 25.445 15.033h46.888c16.027 0 29.141-13.113 29.141-29.141v-159.62c0-12.645-8.174-23.45-19.492-27.458 0.819 13.636 1.48 27.281 1.959 40.933" style="fill:#fff"/></g></g><g clip-path="url(#clipPath178803)" style="opacity:.14999"><g transform="translate(1537.8 1725.1)"><path d="m0 0c9.953 1.204 20.945 2.071 30.853 0.244 9.274-1.71 14.036-7.778 14.665-16.91 0.527-7.635-0.959-169.58-0.959-169.58h-29.919c-16.028 0-29.141 13.113-29.141 29.141l-1e-3 151.14c3.271 3.744 9.367 5.343 14.502 5.964"/></g></g><g transform="translate(1552.4 1616.1)"><path d="m0 0h46.888c16.028 0 29.141-13.113 29.141-29.141v-159.62c1e-3 -16.027-13.113-29.141-29.141-29.141h-46.887c-16.028 0-29.142 13.114-29.142 29.141v159.62c0 16.027 13.113 29.141 29.141 29.141" style="fill:#8e1e1e"/></g><g clip-path="url(#clipPath178823)" style="opacity:.17999"><g transform="translate(1610.9 1573.5)"><path d="m0 0c0.952-27.091 1.316-54.2 1.384-81.307 0.033-13.244 0.334-26.462 0.66-39.702 0.169-6.883 0.269-13.77 0.117-20.655-0.101-4.545 0.358-9.204-0.109-13.728-0.798-7.746-5.361-11.038-12.83-11.571-4.612-0.329-9.225 0.233-13.838 0.118-4.795-0.119-9.585-0.394-14.379-0.534-15.195-0.445-31.478-0.043-44.945 7.127 4.99-8.941 14.531-15.033 25.445-15.033h46.888c16.027 0 29.141 13.114 29.141 29.141l-1e-3 159.62c0 12.645-8.175 23.45-19.492 27.458 0.818-13.636 1.48-27.281 1.959-40.933" style="fill:#fff"/></g></g><g clip-path="url(#clipPath178839)" style="opacity:.14999"><g transform="translate(1537.8 1429.9)"><path d="m0 0c9.953-1.204 20.945-2.071 30.853-0.244 9.274 1.71 14.036 7.778 14.665 16.91 0.527 7.635-0.96 169.58-0.96 169.58h-29.919c-16.028 0-29.141-13.113-29.141-29.141v-151.14c3.271-3.744 9.367-5.343 14.502-5.964"/></g></g><g transform="translate(1656.8 2113)"><path d="m0 0c80.56 1e-3 134.56-57.043 150.04-109.48 3.34-11.309-10.292-19.956-18.984-11.988-29.881 27.39-64.836 51.603-132.4 51.612z" style="fill:#706f6f"/></g><g clip-path="url(#clipPath178859)" style="opacity:.17999"><g transform="translate(1801.5 1990.1)"><path d="m0 0c-1.77 4.473-3.765 8.86-6.003 13.122-13.615 25.929-36.563 45.641-58.509 64.417-11.302 9.67-22.63 19.633-34.919 28.04-8.878 6.074-18.229 11.41-27.776 16.36 70.858-7.532 118.21-59.984 132.55-108.52 1.718-5.815-1.064-10.906-5.343-13.416" style="fill:#fff"/></g></g><g clip-path="url(#clipPath178875)" style="opacity:.14999"><g transform="translate(1656.8 2113)"><path d="m0 0c5.744 0 11.337-0.321 16.807-0.879 1.359-3.731 1.457-8.408 1.591-11.62 0.267-6.398-0.188-12.867 0.538-19.24 1.335-11.709 12.517-17.881 22.39-22.075 6.168-2.619 12.614-4.461 18.822-6.966 9.656-3.897 18.748-9.124 27.449-14.812 16.651-10.885 32.001-23.176 45.912-37.388 1.857-1.898 6.1-7.419 10.321-10.379-3.922-1.893-8.843-1.704-12.769 1.894-29.881 27.39-64.836 51.602-132.4 51.612z"/></g></g><g transform="translate(1442.9 2055.5)"><path d="m0 0h110.94c6.379 0 11.598 5.219 11.598 11.599v24.249c0 6.38-5.219 11.599-11.598 11.599h-110.94c-6.379 0-11.599-5.22-11.599-11.599v-24.25c0-6.379 5.22-11.598 11.599-11.598" style="fill:#706f6f"/></g><g clip-path="url(#clipPath178895)" style="opacity:.14999"><g transform="translate(1442.9 2102.9)"><path d="m0 0h29.794c-0.171-7.081-1.42-14.081-1.507-21.228-0.093-7.644-1.185-12.982 5.411-13.012 7.467-0.032 8.722 1.492 8.812 5.797 0.11 5.303 0.398 9.131 0.448 14.437 0.037 3.779-0.297 10.228-0.269 14.006h68.256c6.379 0 11.599-5.219 11.599-11.598v-24.25c0-6.379-5.219-11.598-11.599-11.598l-110.94-1e-3c-6.379 0-11.598 5.22-11.598 11.599v24.25c0 6.379 5.219 11.598 11.598 11.598"/></g></g><g transform="translate(1516.1 2032.3)"><path d="m0 0h119.52c13.003 0 23.641 10.639 23.641 23.642v46.625c0 13.003-10.639 23.642-23.641 23.642h-119.52c-13.003-1e-3 -23.641-10.639-23.641-23.642v-46.626c0-13.002 10.638-23.641 23.641-23.641" style="fill:#9d9d9c"/></g><g clip-path="url(#clipPath178915)" style="opacity:.17999"><g transform="translate(1645.8 2048.6)"><path d="m0 0c0.129 9.382 1.59 18.864 0.166 28.211-0.849 5.573-2.809 10.289-7.618 13.452-5.298 3.483-11.901 4.847-18.063 5.832-16.803 2.685-33.995 3.99-50.912 5.726-18.903 1.94-38.5 3.556-57.522 2.374-8.309-0.516-14.646-3.34-19.397-8.437v6.743c0 13.003 10.638 23.641 23.641 23.641l119.52 1e-3c13.003 0 23.641-10.639 23.641-23.641l1e-3 -46.626c0-9.445-5.626-17.618-13.68-21.398 0.077 4.708 0.158 9.416 0.223 14.122" style="fill:#fff"/></g></g><g transform="translate(1403.8 2009.9)"><path d="m0 0h42.777c11.171 0 20.312 9.141 20.312 20.312v98.022c0 11.172-9.141 20.312-20.313 20.312h-42.776c-11.172 0-20.313-9.14-20.313-20.312l1e-3 -98.022c0-11.171 9.14-20.312 20.312-20.312" style="fill:#b2b2b2"/></g><g clip-path="url(#clipPath178935)" style="opacity:.17999"><g transform="translate(1403.8 2148.5)"><path d="m0 0h42.777c11.172 0 20.312-9.14 20.312-20.312v-10.341c0 10.341-48.548 11.145-59.475 3.38-9.04-8.516-2.153-111.37-2.153-111.37h-1.461c-11.172 0-20.312 9.14-20.312 20.312v98.022c0 11.171 9.14 20.312 20.312 20.312" style="fill:#fff"/></g></g><g transform="translate(1588.3 1682.2)"><path d="m0 0c62.213-5.988 79.91-25.279 59.451-59.846 12.664-2.739 16.061-49.206-1.642-53.603 21.772-11.644 13.211-50.147-4.336-56.363 11.817-25.896 2.584-47.47-72.458-40.534-56.955 6.116-70.007 25.325-54.721 41.257-26.861 14.604-18.98 59.523 5.781 59.976-18.112 4.866-14.418 51.41 2.366 57.215-12.792 33.997-0.531 54.037 65.559 51.898" style="fill:#ffd5c7"/></g><g clip-path="url(#clipPath178955)" style="opacity:.3"><g transform="translate(1520.4 1573)"><path d="m0 0c-18.112 4.866-14.419 51.41 2.365 57.215-10.321 27.431-4.311 45.767 33.105 50.706-4.991-2.286-9.596-5.285-13.058-9.142-17.349-19.328 27.2-33.37 39.331-36.545 14.306-3.744 29.493-5.742 44.284-5.897 10.534-0.11 20.529 1.031 28.169 8.222-1.038-3.769-2.699-7.775-4.979-12.028l-1.841-3.264c-12.469-1.034-29.648 2.401-42.059 3.558-14.908 1.389-29.891 4.281-44.876 4.446-9.177 0.101-20.953-0.52-27.203-8.313-4.898-6.106-4.373-14.457-0.894-21.11 4.892-9.353 14.893-14.952 24.508-18.362 20.293-7.198 42.779-5.124 63.846-3.352 9.258 0.778 18.76 1.871 27.575 4.942 3.257 1.135 6.589 2.619 9.345 4.727-0.597-5.494-2.032-10.588-4.427-14.328-2.057-3.282-5.103-5.342-7.457-5.81-6.854-0.353-12.038 1.282-18.256 1.118-15.322-0.403-30.509 1.862-45.802 1.931-13.119 0.06-28.451 1.777-40.279-5.265-7.23-4.305-9.774-12.065-6.765-19.88 3.963-10.291 13.946-16.708 23.62-20.906 12.911-5.602 27.019-7.829 41.001-8.485 13.269-0.622 27.839-1.018 40.86 2.022 5.378 1.256 10.313 3.418 14.437 6.555-1.769-3.698-4.049-6.938-6.702-9.403-2.161-1.869-4.125-3.247-6.45-4.05-8.048-2.302-17.227-1.146-25.253-1.29-9.489-0.17-18.903-0.471-28.385-0.909-8.025-0.371-16.067-0.483-24.091-0.02-6.319 0.364-12.824 1.834-19.152 0.835-9.168-1.448-7.697-9.098-2.906-15.1 6.219-7.791 17.265-10.492 26.652-11.812 10.056-1.414 20.481-1.759 30.628-1.891 9.731-0.127 19.609 0.353 29.087 2.715 6.634 1.652 12.457 4.338 17.481 7.888-2.08-15.893-21.78-26.01-76.519-20.951-56.955 6.116-70.007 25.325-54.721 41.257-26.861 14.605-18.98 59.523 5.781 59.976" style="fill:#ad5842"/></g></g><g transform="translate(1647.7 1622.3)"><path d="M 0,0 C -37.812,8.823 -80.05,10.565 -125.011,7.948 -75.388,1.064 -31.83,-2.591 0,0" style="fill:#ad5842"/></g><g transform="translate(1646.1 1568.7)"><path d="m0 0c-38.24-6.843-80.521-4.563-125.73 4.335 55.75 1.434 99.534 0.378 125.73-4.335" style="fill:#ad5842"/></g><g transform="translate(1641.7 1512.3)"><path d="m0 0c-17.856-11.023-86.81-9.792-127.18 0.722 51.95-0.22 77.801-2.914 127.18-0.722" style="fill:#ad5842"/></g><g transform="translate(1522.7 1645.1)"><path d="m0 0c-2.09 20.834-44.981 9.359-44.247-18.652l4.469-73.147c2.379-29.302 48.1-36.207 46.22 5.393z" style="fill:#ffd5c7"/></g><g clip-path="url(#clipPath178987)" style="opacity:.3"><g transform="translate(1496.4 1652.8)"><path d="m0 0c-2.351-5.778-3.177-12.719-3.627-17.812-1.923-21.754 0.893-44.222 8.681-64.653 2.488-6.527 7.512-19.942 16.61-18.886 5.277 0.612 8.78 5.87 10.408 10.442 0.15 0.423 0.255 0.86 0.386 1.289l0.335-4.484c1.88-41.599-43.841-34.695-46.22-5.392l-4.469 73.147c-0.331 12.637 8.221 21.892 17.896 26.349" style="fill:#ad5842"/></g></g><g clip-path="url(#clipPath179003)" style="opacity:.3"><g transform="translate(1481.3 1638.9)"><path d="m0 0c-0.583-10.735-0.234-21.522 0.951-32.26 1.675-15.176 4.937-30.04 8.672-44.824 1.986-7.863 3.999-16.747 9.193-23.213 5.278-6.569 12.567-5.931 18.936-1.139 6.061 4.561 8.855 11.217 10.109 18.317-0.335-38.358-43.928-31.121-46.25-2.519l-4.469 73.147c-0.122 4.646 0.964 8.83 2.858 12.491" style="fill:#ad5842"/></g></g></g></g></g></svg>
