<?xml version="1.0" encoding="UTF-8"?>
<svg width="291.58mm" height="659.14mm" version="1.1" viewBox="0 0 291.58 659.14" xmlns="http://www.w3.org/2000/svg"><defs><clipPath id="clipPath243981"><path d="m0 1966h961v-1966h-961z"/></clipPath><clipPath id="clipPath243993"><path d="m429.71 1343.4h262.13v-135.13h-262.13z"/></clipPath><clipPath id="clipPath244013"><path d="m791.48 272.63h64.663v-100.88h-64.663z"/></clipPath><clipPath id="clipPath244033"><path d="m206.93 318.51h66.246v-111.29h-66.246z"/></clipPath><clipPath id="clipPath244053"><path d="m69.301 239.9h221.5v-166.34h-221.5z"/></clipPath><clipPath id="clipPath244073"><path d="m691.32 230.21h182.31v-182.42h-182.31z"/></clipPath><clipPath id="clipPath244089"><path d="m70.162 216.36h715.92v-155.79h-715.92z"/></clipPath><clipPath id="clipPath244109"><path d="m209.14 1187.4h598.18v-933.02h-598.18z"/></clipPath><clipPath id="clipPath244133"><path d="m654.34 1285.4h36.467v-44.47h-36.467z"/></clipPath><clipPath id="clipPath244157"><path d="m532.32 1199.8h34.155v-28.6h-34.155z"/></clipPath><clipPath id="clipPath244181"><path d="m509.29 1252.4h143.6v-83.35h-143.6z"/></clipPath><clipPath id="clipPath244201"><path d="m319.6 1882.4h410.58v-405.55h-410.58z"/></clipPath><clipPath id="clipPath244217"><path d="m353.16 1732.7h277.5v-212.03h-277.5z"/></clipPath><clipPath id="clipPath244233"><path d="m312.8 1909.4h406.86v-402.65h-406.86z"/></clipPath><clipPath id="clipPath244253"><path d="m310.71 1865.4h583.67v-940.26h-583.67z"/></clipPath><clipPath id="clipPath244269"><path d="m400.14 1805.1h174.43v-124.26h-174.43z"/></clipPath><clipPath id="clipPath244285"><path d="m260.82 1862.7h559.28v-839.54h-559.28z"/></clipPath><clipPath id="clipPath244309"><path d="m400.49 1873.2h122.84v-81.65h-122.84z"/></clipPath><clipPath id="clipPath244329"><path d="m483.99 1856.6h148.47v-209.61h-148.47z"/></clipPath><clipPath id="clipPath244345"><path d="m302.72 1906.5h412.93v-236.53h-412.93z"/></clipPath><clipPath id="clipPath244365"><path d="m263.16 1504.4h337.54v-235.57h-337.54z"/></clipPath><clipPath id="clipPath244381"><path d="m270.96 1599.6h184.18v-167.15h-184.18z"/></clipPath><clipPath id="clipPath244409"><path d="m449.61 1784.5h32.571v-23.44h-32.571z"/></clipPath><clipPath id="clipPath244425"><path d="m459.99 1766h13.847v-4.45h-13.847z"/></clipPath><clipPath id="clipPath244441"><path d="m444 1823.2h36.874v-40.21h-36.874z"/></clipPath><clipPath id="clipPath244457"><path d="m444 1823.2h24.048v-11.55h-24.048z"/></clipPath><clipPath id="clipPath244497"><path d="m500.11 1781.3h48.036v-27.78h-48.036z"/></clipPath><clipPath id="clipPath244513"><path d="m536.4 1778.2h11.742v-24.56h-11.742z"/></clipPath></defs><g transform="translate(188.88 262.38)"><g transform="matrix(.35278 0 0 -.35278 -212.82 413.62)"><g clip-path="url(#clipPath243981)"><g transform="translate(429.71 1263.9)"><path d="m0 0c6.063-8.375 10.222-15.841 19.15-20.934 9.356-5.337 18.382-10.68 27.302-16.704 13.948-9.419 20.298-15.285 14.194-33.117-2.445-7.146-3.961-6.001 0.361-9.934 3.845-3.5 15.111-6.056 20.31-5.674 7.525 0.553 16.104 4.767 23.28 6.925 14.588 4.387 29.169 8.795 43.75 13.205 14.114 4.269 28.227 8.543 42.339 12.819 4.755 1.441 11.317 2.28 15.447 5.013 10.211 6.755 19.038 21.049 27.212 30.088 7.861 8.692 20.928 20.243 28.789 28.935-16.882 11.897-29.158 14.62-48.733 21.489-10.26 3.601-24.329 8.571-33.135 14.932-8.346 6.028-13.545 16.154-19.431 24.655-3.251 4.695-7.594 8.028-12.473 7.783-5.595-0.28-15.201-8.143-20.064-10.748-24.872-13.325-49.745-26.65-74.617-39.975-17.894-9.586-35.787-19.172-53.681-28.758" style="fill:#d1955b"/></g><g clip-path="url(#clipPath243993)" style="opacity:.60001"><g transform="translate(643.11 1296)"><path d="m0 0c-10.26 3.601-24.329 8.57-33.136 14.931-8.346 6.029-13.545 16.154-19.431 24.656-3.25 4.695-7.593 8.028-12.472 7.783-5.595-0.281-15.201-8.144-20.064-10.749-24.873-13.325-49.745-26.649-74.617-39.974l-53.681-28.758c5.282-7.297 9.141-13.892 15.946-18.84 6.958 1.707 14.292 2.131 21.23 4.137 6.839 1.976 13.153 0.24 19.785-1.952 13.245-4.378 29.003-9.176 39.491-18.815 5.097-4.685 8.14-10.487 11.877-16.193 0.536-0.82 1.965-3.722 2.848-3.898 4.545-0.904 3.435 6.366 2.573 8.293-2.004 4.477-6.307 7.697-10.095 10.65-12.234 9.539-26.301 15.976-35.662 28.795-0.857 1.172-0.196 2.725 0.839 3.474 11.642 8.415 23.054 18.461 36.435 24.034 5.28 2.199 9.006 2.574 14.142-0.077 3.762-1.942 6.993-4.752 10.702-6.773 5.402-2.942 11.315-5.124 16.826-7.883 20.031-10.027 37.791-21.975 52.051-39.449 3.242-3.972 6.359-8.092 9.426-12.243 9.253 7.229 17.372 20.069 24.931 28.426 7.861 8.692 20.928 20.244 28.789 28.936-16.883 11.896-29.158 14.62-48.733 21.489" style="fill:#a46c35"/></g></g><g transform="translate(844.33 267.12)"><path d="m0 0c2.099-8.398-0.346-18.474 2e-3 -27.107 0.298-7.384 10.584-7.582 11.776-13.381 0.32-1.553-1.38-5.108-1.792-6.635-1.335-4.942-2.67-9.884-4.005-14.826-2.978-11.025-5.956-22.049-8.933-33.074-2.078-7.691-3.497-16.044-6.347-23.495-1.636-4.277-4.698-8.111-7.16-11.985-6.224-9.791-12.447-19.583-18.671-29.374-2.158-3.396-5.661-12.26-9.215-14.039-3.002-1.502-10.624 0-13.922 0h-18.685c-2.626 0-5.584-0.398-8.073 0.316-4.466 1.28-9.056 4.829-13.175 7.026 5.736 9.286 13.469 18.852 16.861 29.259 4.073 12.499 6.58 24.723 8.656 37.659 3.726 23.228 10.517 45.214 17.71 67.6 1.782 5.545 3.559 10.301 3.66 16.073l0.377 21.49c16.979-1.836 33.957-3.671 50.936-5.507" style="fill:#d1955b"/></g><g clip-path="url(#clipPath244013)" style="opacity:.60001"><g transform="translate(856.11 226.64)"><path d="m0 0c-1.193 5.799-11.478 5.996-11.776 13.38-0.348 8.633 2.097 18.71-2e-3 27.107l-50.936 5.507c-0.126-7.163-0.251-14.326-0.377-21.489-0.058-3.326-0.681-6.314-1.532-9.311 8.537-3.693 21.007-0.205 29.617-3.527 9.454-3.647 11.747-16.87 13.825-25.514 3.198-13.309 6.277-27.26 6.359-41.041 0.031 0.117 0.06 0.236 0.091 0.353 2.978 11.024 5.956 22.049 8.934 33.073 1.335 4.942 2.67 9.884 4.005 14.827 0.412 1.526 2.112 5.081 1.792 6.635" style="fill:#a46c35"/></g></g><g transform="translate(202.51 265.74)"><path d="m0 0c-5.926-12.237-22.216-36.675-26.314-48.172-11.013-30.898-18.852-55.092-31.509-75.257-18.585-29.608-27.933-27.092-4.372-33.038 30.355-7.659 49.348 13.789 61.257 32.103 14.196 21.829 28.536 45.306 44.068 66.402 2.141 2.908 21.372 24.986 23.25 27.839-4 8.235-8.857 9.384-10.707 14.684-2.503 16.473 23.243 51.5 12.237 65.683-3.697 4.764-31.907 1.718-37.898-0.36-6.603-2.289-6.994-11.87-11.533-14.398-2.201-1.226 0.151 8.903 0.178 9.035 1.108 5.446-4.82-18.73-18.657-44.521" style="fill:#d1955b"/></g><g clip-path="url(#clipPath244033)" style="opacity:.60001"><g transform="translate(270.42 315.98)"><path d="m0 0c-3.697 4.764-31.907 1.717-37.898-0.36-6.603-2.29-6.994-11.871-11.533-14.399-2.2-1.225 0.151 8.904 0.178 9.036 0.982 4.826-3.567-13.613-14.243-35.82 13.963-4.365 32.844-7.462 31.201-22.935-0.33-3.107-1.339-5.974-1.145-9.138 0.336-5.461 3.402-9.621 5.207-14.556 1.946-5.32 2.758-11.286 3.003-16.925 0.054-1.222 0.063-2.442 0.053-3.661 0.134 0.182 0.264 0.37 0.397 0.552 2.141 2.907 21.372 24.985 23.25 27.839-4 8.234-8.856 9.384-10.707 14.684-2.503 16.473 23.244 51.499 12.237 65.683" style="fill:#a46c35"/></g></g><g transform="translate(266.34 239.9)"><path d="m0 0c-23.872-22.574-38.015-49.908-53.078-78.785-7.401-14.189-19.247-24.855-30.081-36.569-14.079-15.223-32.665-15.095-50.531-6.117-3.677 1.848-4.066 3.524-7.487 2.085-4.178-1.757-7.464-9.078-11.243-12.009-6.44-4.996-15.183-8.34-22.727-11.411-6.551-2.667-22.77-5.38-23.307-14.266-0.698-11.548 16.662-9.044 23.708-9.044 15.821 0 31.519 0.938 47.304 2.103 14.044 1.035 38.32-0.167 46.084 14.12 4.159 7.653 4.129 15.991 9.224 23.359 4.534 6.558 8.778 13.396 13.949 19.454 13.408 15.708 25.028 27.175 45.75 30.293-0.846-17.974-1.692-35.947-2.538-53.921-0.192-4.078-3.493-19.688-1.089-23.136 1.778-2.549 22.159-4.808 22.318-0.636 0.579 15.285-0.459 17.536-0.942 23.713-0.672 8.61 0.664 17.845 0.957 26.465 0.258 7.595-0.118 15.457 0.577 23.017 1.032 11.226 4.245 15.235 10.7 23.364 17.415 21.93-1.662 42.876-17.548 57.921" style="fill:#a20055"/></g><g clip-path="url(#clipPath244053)" style="opacity:.2"><g transform="translate(191.96 125.15)"><path d="m0 0c-0.219-0.497-0.513-0.993-0.948-1.471-7.423-8.152-10.806-18.918-19.632-25.931-7.149-5.68-15.883-8.19-24.789-9.48-22.673-3.282-45.401-5.973-68.059-9.556-2.86-0.452-6.057-1.006-9.227-1.118 4.21-5.436 16.605-3.81 22.291-3.81 15.82 0 31.519 0.937 47.304 2.102 14.044 1.035 38.32-0.167 46.084 14.12 4.159 7.653 4.129 15.991 9.224 23.359 4.534 6.558 8.778 13.396 13.949 19.454 13.13 15.383 24.568 26.676 44.496 30.067 0.061 1.478 0.137 2.952 0.249 4.413-28.073 5.215-43.822-20.831-60.942-42.149m74.382 114.75c-3.737-3.533-7.211-7.196-10.512-10.95 6.194-7.364 12.391-15.125 14.034-24.737 0.912-5.332 2e-3 -10.562-1.245-15.764-1.778-7.416-2.852-14.709-3.598-22.288-1.464-14.863-2.862-29.671-3.75-44.581-0.746-12.524-0.134-25.617-2.357-38.056 6.257-0.793 13.589-0.6 13.683 1.896 0.58 15.286-0.458 17.536-0.941 23.713-0.672 8.61 0.664 17.845 0.957 26.465 0.258 7.595-0.118 15.457 0.577 23.017 1.032 11.226 4.245 15.236 10.7 23.364 17.415 21.93-1.662 42.876-17.548 57.921" style="fill:#260c23"/></g></g><g transform="translate(746.13 103.3)"><path d="m0 0c4.865-1.474 9.964-3.718 14.973-4.537 8.319-1.361 18.559-0.712 26.84 0.447 6.805 0.953 14.824 1.508 18.814 7.422 5.749 8.521 9.482 17.827 13.541 27.204 4.586 10.594 9.575 20.75 13.123 31.72 3.341 10.332 6.607 20.693 10.027 31 3.714 11.196 7.992 22.069 10.264 33.651 13.02-11.851 22.718-29.332 19.177-47.281-3.161-16.025-11.798-30.357-14.924-46.265-2.501-12.729-1.817-25.73-1.817-38.613 0-4.163 1.535-12.216 0-15.719-1.911-4.363-16.509-7.361-18.757-3.206-1.046 1.934-0.369 7.017-0.481 9.138-0.243 4.625-0.486 9.25-0.73 13.875-0.342 6.506-0.685 13.013-1.027 19.519-6.126-10.696-9.974-20.844-12.835-32.804-2.551-10.667-0.239-24.223-7.481-32.988-4.514-5.464-13.442-5.318-20.173-5.784-10.506-0.729-21.015-1.577-31.533-2.128-16.316-0.855-32.94 1.808-49.253 2.449-5.637 0.222-15.947-2.059-20.369 1.363-2.216 1.715-4.14 8.453-2.594 10.882 1.659 2.606 8.394 5.02 11.004 6.572 7.364 4.38 15.423 8.1 21.891 13.752 7.577 6.62 14.94 13.494 22.32 20.331" style="fill:#a20055"/></g><g clip-path="url(#clipPath244073)" style="opacity:.2"><g transform="translate(853.71 230.21)"><path d="m0 0c-0.31-1.58-0.663-3.144-1.041-4.699 13.502-11.459 4.007-40.718-1.853-53.779-1.619-3.609-22.887-51.817-36.659-69.299-0.761-8.348-1.236-16.841-5.251-24.154-8.991-16.376-30.094-21.008-47.137-22.869-13.864-1.514-27.684-0.078-41.563 0.341-9.445 0.285-19.546-2.098-28.891-0.455 0.58-1.553 1.365-2.891 2.192-3.53 4.421-3.423 14.732-1.141 20.369-1.363 16.313-0.641 32.937-3.304 49.253-2.449 10.518 0.551 21.026 1.399 31.533 2.127 6.731 0.467 15.659 0.321 20.173 5.785 7.242 8.765 4.93 22.321 7.481 32.988 2.86 11.959 6.709 22.107 12.835 32.804 0.342-6.506 0.684-13.013 1.027-19.52 0.243-4.625 0.487-9.25 0.73-13.874 0.112-2.122-0.565-7.204 0.481-9.138 2.248-4.156 16.845-1.158 18.757 3.206 1.535 3.503 0 11.556 0 15.718 0 12.884-0.685 25.885 1.817 38.614 3.126 15.908 11.763 30.239 14.924 46.265 3.541 17.949-6.157 35.43-19.177 47.281" style="fill:#260c23"/></g></g><g clip-path="url(#clipPath244089)" style="opacity:.60001"><g transform="translate(746.6 99.314)"><path d="m0 0c-0.227-0.055-0.346-0.211-0.409-0.42 0.011-8e-3 0.022-0.015 0.033-0.023 0.123 0.149 0.256 0.291 0.376 0.443m19.913-12.469c-5.521 0.176-10.961 1.038-16.465 1.341 10.984 1.385 22.365 0.422 33.076 3.739-6.878-0.557-13.892-0.993-20.73 0.135-4.399 0.725-9.02 1.827-13.219 3.351-1.065 0.386-2.427 0.663-2.613 1.927-0.102 0.692 0.115 1.177-0.338 1.533-0.022-0.026-0.044-0.052-0.066-0.078 6e-3 0.039 0.023 0.067 0.033 0.101-0.11 0.08-0.244 0.155-0.439 0.221-0.102-0.398-0.152-0.79-0.084-0.899-2.839-3.199-6.509-5.769-9.763-8.474-4.074-3.386-8.18-6.736-12.237-10.141-2.175-1.825-4.335-3.764-6.776-5.228-2.175-1.304-4.327-2.913-6.576-4.062-3.488-1.783-8.854-1.578-11.29-5.183-0.642-0.951-1.008-2.829-0.094-3.647 0.61-0.545 2.326-0.699 3.084-0.788 1.611-0.19 3.259-0.188 4.842 0.176 2.923 0.673 6.018 2.534 6.75 5.556 0.304 1.251 0.579 1.688 1.782 2.239 1.369 0.627 2.76 1.173 4.119 1.826 1.404 0.675 2.507 1.352 3.757 2.264 0.766 0.559 1.548 1.1 2.48 1.224 2.072 0.275 4.554-0.904 6.592-1.167 4.992-0.642 10.312-0.429 15.336-0.213 0.379 1.795-10.752 3.576-12.638 3.765 1.368 0.956 4.117 0.413 5.744 0.523 1.624 0.109 5.376-0.169 6.174 1.616-2.557 1.202-5.23 1.94-8.006 2.442 0.466 1.003 3.001 1.066 3.94 1.23 4.464 0.78 9.018 0.392 13.524 0.437 5.273 0.053 10.517 0.327 15.764 0.87 3.574 0.369 10.489 0.756 13.913 3.189-6.497 0.511-13.058-0.033-19.576 0.175m-518.99 128.17c-0.46-0.881-1.16-1.722-1.843-2.546l2.112 3.263c-0.018-0.279-0.139-0.469-0.269-0.717m-2.632-3.536c-0.107-0.138-0.224-0.278-0.322-0.415-4.03-5.644-7.349-11.84-10.495-18.008-2.638-5.172-5.414-10.241-7.719-15.575-1.392-3.223-2.741-6.449-4.336-9.581-0.929-1.824-1.983-3.6-2.717-5.513 1.789 1.455 3.195 3.883 4.637 5.587 1.362 1.61 2.725 3.438 4.433 4.684-0.075-0.518-0.222-1.015-0.442-1.492 1.339 0.907 2.836 3.393 3.75 4.461 0.63 0.739 2.386 3.465 3.368 3.361 0.123-0.962-0.013-1.771-0.21-2.704-0.223-1.061 0.226-0.992 1.147-0.921 1.317 0.102 2.395 0.342 3.739 0.101 1.654-0.298 3.24-0.837 4.936-0.759-0.638 0.891-1.607 1.527-2.326 2.378-1.248 1.477-2.244 3.118-3.386 4.677-0.65 0.888-1.345 1.758-1.863 2.734-0.111 0.209-0.523 2.297-0.998 2.335-0.702-0.634-1.952-2.335-3.049-2.004 0.352 1.487 1.439 2.786 2.132 4.15 0.996 1.962 1.635 4.112 2.541 6.12 0.581 1.288 1.315 2.368 2.105 3.522 1.301 1.9 2.217 4.059 3.245 6.111 1.529 3.049 2.694 6.31 4.888 8.973 0.427 0.519 0.882 0.89 1.056 1.55 0.103 0.391 0.022 0.687 0.24 1.074-1.673 0.428-3.471-3.031-4.354-4.846m-118.24-93.947 0.017-0.056c0.022 8e-3 0.04 7e-3 0.061 0.014-0.028 0.015-0.05 0.027-0.078 0.042m1.667-0.737c-0.106 0.08-0.215 0.164-0.324 0.252-0.317 0.469-0.741 0.61-1.265 0.443 0.365-0.196 0.675-0.364 0.945-0.51-0.307 0.082-0.613 0.164-0.921 0.221l-0.085 0.275c-7e-3 -2e-3 -0.012-2e-3 -0.019-4e-3 -0.633-3e-3 -1.536-0.397-2.212-0.468-0.137-1.716-1.905-3.696-2.918-4.978-0.89-1.128-1.947-1.904-3.097-2.732-1.69-1.217-3.251-2.587-4.848-3.922-3.096-2.588-5.756-5.133-9.594-6.55-3.666-1.354-7.421-3.16-11.289-3.791-1.547-0.253-3.124-0.287-4.595-0.88-1.111-0.448-2.18-0.975-3.305-1.398-2.26-0.851-4.493-1.723-6.785-2.468-1.573-0.511-2.793-1.133-4.115-2.098-1.044-0.761-2.762-1.887-3.433-3.006-0.775-1.293 0.188-2.164 1.003-3.083 0.25-0.281 1.019-1.689 1.523-1.709 0.486-0.02 1.091 1.073 1.424 1.43 4.052 4.335 9.675 6.401 15.203 8.295 2.527 0.865 5.122 1.172 7.712 1.786 3.446 0.817 6.616 2.157 10.128 2.746 2.468 0.414 5.324 0.357 7.697 1.284 1.342 0.525 1.582 1.841 2.317 2.933 0.554 0.825 0.717 1.262 1.841 1.357 1.822 0.153 2.967-1.706 4.579-1.952 3.364-0.513 1.003 2.848 0.93 4.248 2.028 0.316 3.994-0.441 5.966 0.238 0.101 0.905-0.835 1.786-1.397 2.384 1.666 0.609 4.817-0.555 6.522-0.897 0.016-3e-3 6.579-2.109 7.304-0.877-1.05 1.226-2.799 2.295-3.59 3.695 2.244-0.237 4.405-0.756 6.621-1.167 0.961-0.178 2.603-0.805 3.414 0.021-4.144 2.844-8.877 4.914-13.379 7.108-2.487 1.212-5.188 2.901-7.958 3.774" style="fill:#fff"/></g></g><g transform="translate(659.34 1290.5)"><path d="m0 0c-3.944-38.198-51.487-59.607-82.661-75.951-15.638-8.198-27.984-14.28-44.893-17.287-10.937-1.944-32.381-2.428-42.171-3.192-3.056-3.404-1.776-3.716-3.059-9.331-5.243-22.936-12.343-68.681-17.474-90.913-6.555-28.406-12.777-55.14-22.916-82.35-46.704-125.34-100.24-251.15-133.71-380.5-16.835-65.074-31.231-131.68-53.346-195.2-14.078-40.435-28.155-80.869-42.232-121.3-1.735-4.983-9.183-17.709-7.494-22.974 5.383-16.781 55.769-17.716 65.591-8.308 9.344 8.95 13.652 36.07 17.893 47.818 8.302 22.994 15.49 47.255 26.295 69.231 14.226 28.934 32.999 55.91 47.717 85.137 15.081 29.948 41.077 63.772 43.851 98.288 0.896 11.149-5.199 22.805-4.119 33.409 0.836 8.195 5.706 10.402 6.98 18.083 0.357 2.154-5.181 8.355-5.121 11.739-0.011-0.61 5.178 11.088 5.393 11.919 0.837 3.231-3.215 6.024-1.863 9.578 12.871 33.848 45.33 65.68 66.855 93.603 23.689 30.732 47.464 61.548 69.508 93.485 22.609 32.757 45.678 65.828 55.729 104.15 6.475 24.684 30.067 84.392 39.551 113.61 29.707-126.99 65.824-250.78 102.58-375.88 20.14-68.549 23.738-136.3 30.407-207.58 5.487-58.635 10.797-117.58 12.632-176.45 0.394-12.657-12.383-46.597-1.836-53.23 15.879-9.986 40.382-7.954 59.349-6.118 15.908 12.848 3.454 50.452 4.969 74.61 4.304 68.643 22.699 136.53 25.939 205.27 3.095 65.669-37.469 123.15-39.337 187.28-1.956 67.161 5.511 134.81 3.554 202.3-1.992 68.663-4.122 140.12-28.246 204.89-13.081 35.118-31.13 65.231-53.232 95.831-25.833 35.764-61.933 49.85-101.08 66.342" style="fill:#0d3ba3"/></g><g clip-path="url(#clipPath244109)" style="opacity:.3"><g transform="translate(696.94 1145.4)"><path d="m0 0c-18.026 14.286-37.781 26.441-54.79 41.951-6.28-5.59-13.36-10.078-20.861-13.965-4.677-2.423-9.466-4.623-14.259-6.806-1.298-0.591-14.785-8.123-16.532-8.102-0.139-0.14-0.259-0.292-0.416-0.419-0.807-0.651-1.797-0.945-2.788-0.892 8.893-24.077 23.43-45.598 33.656-69.111 3.476-3.544 6.267-8.383 7.956-11.391 0.696-1.239 1.455-2.621 2.217-4.09 15.585 28.782 38.757 55.205 65.817 72.825m-134 9.203c-7.838-1.972-15.927-1.675-24-1.437-0.593-8.196-3.146-15.84-8.146-22.418-4e-3 -8e-3 -7e-3 -0.016-0.01-0.024-2e-3 1e-3 -3e-3 2e-3 -5e-3 4e-3 -0.128-0.169-0.238-0.346-0.37-0.514-1.249-1.587-11.694-0.918-15.871-1.68-12.592-2.299-25.512 0.127-38.128 2.85-2.602-14.411-5.144-28.138-7.327-37.602-6.556-28.406-12.778-55.14-22.917-82.351-46.704-125.34-100.24-251.15-133.71-380.5-16.835-65.075-31.232-131.68-53.347-195.2-14.077-40.435-28.155-80.87-42.232-121.3-1.735-4.983-9.183-17.709-7.494-22.975 2.089-6.51 10.959-10.625 21.598-12.687 0.865 2.621 1.754 5.234 2.614 7.854 0.692 2.109 12.682 41.401 15.413 52.466 4.058 16.444 8.397 32.832 13.107 49.102 9.385 32.426 21.553 63.979 31.403 96.266 8.604 28.204 13.772 56.996 20.558 85.637 6.815 28.759 15.135 57.148 24.492 85.178 18.3 54.821 40.521 108.23 63.343 161.29 10.625 24.706 23.449 47.616 37.59 70.469 14.312 23.128 28.791 46.405 38.351 71.991 6.167 16.503 10.085 35.155 20.202 49.847 8.88 12.897 22.362 18.298 37.212 20.148-8.371 10.772-36.055 26.165-33.946 26.971 11.481 4.388 25.094-2.334 36.127 2.072-7.232 7.03-28.642 17.333-26.293 17.297 17.42-0.267 39.978-7.681 56.978-0.942-21.678 17.946-80.892 31.668-79.235 32.692 0.53 0.653 1.356 1.078 2.397 0.907 36.795-6.029 73.03-14.76 109.22-23.65-0.39 2.015-1.155 3.735-2.075 5.886-0.731 1.71 1.333 3.62 2.99 3.08 0.331-0.108 6.099-1.973 6.168-1.786 0.483 1.302 1.684 1.798 2.783 1.693-10.234 21.517-23.284 41.72-31.195 64.295-5.307-1.605-10.745-2.461-16.245-2.927m-55.846-21.114c13.126 0.423 18.301 7.754 21.164 17.601 0.133 0.584 0.267 1.168 0.399 1.752-1.135 0.327-2.278 0.616-3.419 0.917-14.664 1.138-29.111 3.927-43.651 6.18-1.362-7.335-2.763-15.148-4.157-22.899 9.85-1.823 19.709-3.872 29.664-3.551m164.82-43.836c9.897 1.58 20.028 10.679 28.314 14.52 11.508 5.335 24.791 7.636 37.315 9.153 1.315 0.159 5.417 0.299 9.084 1.029-5.196 5.358-10.605 10.544-17.28 13.87-1.576 0.174-3.148 0.265-4.686 0.241-19.283-9.199-40.065-21.038-52.747-38.813m134.09-744.57c-0.03 3.43 0.169 6.903 0.442 10.402 1.044 13.395 1.093 26.556 0.499 39.987-1.273 28.826-3 57.713-5.726 86.438-2.729 28.748-6.341 57.345-11.255 85.795-3.058 17.704-3.29 34.606 9.997 47.051-4.32 5.044-9.219 9.697-12.623 15.422-4.089 6.877-4.104 14.074-5.347 21.784-3.207 19.89-8.371 39.419-14.048 58.73-10.276 34.956-22.269 69.38-29.967 105.04-6.729 31.169-14.421 62.13-20.299 93.48-11.006 58.694-16.855 121.64 5.915 178.11-15.711-3.346-29.614-9.231-42.782-21.046-1.571-1.41-3.164-2.857-4.754-4.327-8.12-9.538-15.456-19.697-22.444-30.168 27.651-112.58 59.867-223.01 92.616-334.48 20.141-68.548 23.738-136.3 30.407-207.58 5.487-58.634 10.797-117.58 12.632-176.45 0.395-12.657-12.383-46.597-1.835-53.23 4.332-2.725 9.318-4.531 14.647-5.714 3.35 29.565 6.327 59.299 3.607 88.885-0.067 0.738 0.067 1.35 0.318 1.865m-141.19 756.35c4.28 3.22 8.712 6.255 13.137 9.227 6.724 4.516 13.339 9.212 20.096 13.672 6.712 4.429 14.532 8.506 20.101 14.517-3.288 1.059-6.996 0.234-10.337-0.234-15.966-9.633-30.531-22.469-42.997-37.182" style="fill:#fff"/></g></g><g transform="translate(877.68 533.85)"><path d="m0 0c3.095 65.669-37.468 123.15-39.337 187.28-1.956 67.161 5.512 134.81 3.554 202.3-1.992 68.663-4.121 140.12-28.246 204.89-13.081 35.118-31.13 65.231-53.232 95.831-25.833 35.764-61.933 49.85-101.08 66.342-1.145-11.087-5.978-20.752-13.003-29.297 9.825-7.891 20.973-13.978 30.42-22.377 9.547-8.488 17.476-18.113 24.853-28.505 0.32-0.45 0.191-1.128-0.162-1.51-5.961-6.454-13.719-15.239-23.554-13.442-12.792 2.335-18.163 14.995-26.372 23.223-0.955 0.957-7.692 7.273-9.117 3.66-0.616-1.56 1.47-4.976 2.251-6.324 1.946-3.357 4.721-6.257 7.492-8.943 6.7-6.491 14.62-12.356 23.24-16.027 3.69-1.571 8.529-3.333 12.579-2.116 5.087 1.528 6.707 7.286 10.154 10.762 6.442 6.496 13.306 2.106 18.975-2.846 35.386-30.918 66.959-65.41 83.946-109.87 6.409-13.58 9.36-28.763 10.347-43.662 1-15.107-0.017-30.749-4.966-45.145 3e-3 -0.131 3e-3 -0.264-0.044-0.413-1.641-5.135-3.797-10.02-5.999-14.922 4.357 0.339 8.047 2.232 12.097 4.056 0.564 0.254 1.391 0.242 1.712-0.414 8.208-16.788 5.749-36.237 4.53-54.225-2.893-42.7-1.844-84.863 1.502-127.48 1.71-21.778 2.446-43.368 1.585-65.203-0.787-19.949-1.657-39.915 0.144-59.82 2.032-7.822 5.818-19.372-1.04-25.528-6.283-5.639-15.722-4.408-22.13-10.02 3.14-1.417 6.325-2.728 9.443-4.197 0.591-0.278 0.819-1.145 0.485-1.692-0.981-1.61-1.513-3.418-2.419-5.057 9.002-4.89 24.685-9.822 16.441-21.707 3.855-3.567 8.686-5.377 11.949-9.777 2.961-3.992 4.537-8.704 5.565-13.527 2.703-12.687 3.74-26.148 4.184-39.073 0.979-28.508-2.549-56.927-2.19-85.429 0.186-14.758 0.915-29.438 0.512-44.208-0.392-14.385-1.27-28.751-2.123-43.115-1.712-28.797-1.97-57.571-2.901-86.393-0.322-9.981-0.679-20.013-1.328-29.98-0.096-1.459-0.043-4.636-0.779-6.951 3.852 0.278 7.602 0.629 11.158 0.973 15.908 12.848 3.454 50.452 4.969 74.61 4.305 68.644 22.699 136.53 25.939 205.27m-337.04 611.3c0.64 9.607-0.619 20.023-1.676 29.585-0.794 7.195-1.778 15.838-5.028 22.933-0.714-0.142-1.425-0.285-2.155-0.415-0.639-0.113-1.321-0.221-2.027-0.325 3.798-10.512 5.71-22.12 6.627-33.084 0.741-8.859 1.844-23.993-7.613-29.063-9.648-5.173-24.061-3.341-34.427-2.479-5.279 0.439-10.568 1.034-15.794 1.918-0.403 0.068-0.968 0.124-1.602 0.194-0.207-1.151-0.414-2.298-0.621-3.442 20.87-5.495 62.31-15.98 64.316 14.178m131.18-55.859c-1.195-0.753-2.554 0.933-1.549 1.923 18.411 18.156 40.785 32.212 64.356 42.901-16.764-4.494-32.548-12.043-47.919-20.163-9.246-4.885-18.678-9.631-27.402-15.417-8.002-5.306-15.356-11.468-22.721-17.607-0.391-0.326-1.027-0.576-1.504-0.229-21.06 15.28-25.493 42.236-37.672 63.688-3.76 6.623-7.471 13.28-11.574 19.699-2.247 3.515-4.563 7.077-7.319 10.221-1.474 1.682-4.002 4.714-5.288 2.924 14.386-26.814 32.013-52.321 41.015-81.64 0.145-0.472-0.065-1.19-0.548-1.406-16.432-7.326-27.39 15.025-33.89 26.157-5.318 9.108-10.251 18.442-14.896 27.91-2.412 4.918-3.949 10.36-6.634 15.123-2.837 5.033-3.8 0.604-2.448-2.979 1.516-4.019 3.888-7.675 5.968-11.411 4.855-8.718 8.99-17.844 13.473-26.756 4.858-9.654 9.679-17.611 17.44-25.141 5.345-5.186 10.877-10.29 13.581-17.404 0.338-0.89-0.646-1.791-1.505-1.55-23.78 6.662-47.53 13.115-72.005 15.504 19.76-4.463 39.078-11.224 57.009-20.551 1.223-0.636 0.532-2.174-0.591-2.334-11.145-1.586-22.417-1.088-33.321-4.234-6.998-2.02-13.836-4.56-20.663-7.12 9.43 0.919 18.91 1.079 28.41 1.284 6.777 0.147 18.713 1.394 23.858-4.27 2.501-2.753 2.203-5.987 1.157-9.325-2.318-7.399-4.879-14.692-7.014-22.159-4.14-14.47-8.096-28.982-13.989-42.863-0.065-0.154-0.155-0.262-0.249-0.36-3.534-11.861-10.938-22.62-15.786-33.933-6.153-14.36-11.585-29.019-17.817-43.347-11.922-27.411-27.5-53.369-43.932-78.287-14.358-21.77-29.682-43.071-45.993-63.424-16.796-20.959-35.359-40.419-52.399-61.176-4.347-5.295-7.842-9.382-6.886-16.514 0.552-4.122 1.655-8.125 1.196-12.329-0.81-7.406-7.275-12.865-12.429-17.612-0.953-0.878-2.015-1.651-2.906-2.598-0.998-1.06-2.855-4.118-1.066-5.695 0.161-0.142 2.149-0.182 2.685-0.369 1.743-0.611 5.489-2.521 6.616-4.269 1.298-2.013 0.827-4.387-0.381-6.23-3.455-5.274-7.139-5.081-7.424-12.901-0.41-11.215 5.568-21.783 4.148-33.09-1.322-10.523-7.014-19.998-10.374-29.908-4.247-12.526-7.058-25.494-11.504-37.991-4.315-12.127-9.506-23.844-15.056-35.451-22.132-46.283-48.211-90.83-64.048-139.82 0.076-0.209 0.113-0.439 0.039-0.712-6.242-23.334-15.183-45.802-22.524-68.79 10.486 0.351 19.768 2.418 23.425 5.92 9.344 8.95 13.651 36.07 17.893 47.818 8.301 22.994 15.49 47.255 26.294 69.231 14.226 28.934 32.999 55.91 47.717 85.137 15.081 29.948 41.077 63.772 43.851 98.288 0.896 11.15-5.199 22.805-4.118 33.409 0.835 8.195 5.705 10.402 6.979 18.083 0.357 2.154-5.181 8.355-5.121 11.739-0.011-0.61 5.178 11.088 5.393 11.919 0.837 3.231-3.214 6.024-1.863 9.578 12.871 33.848 45.33 65.68 66.855 93.603 23.689 30.732 47.465 61.548 69.508 93.485 22.61 32.757 45.679 65.828 55.729 104.15 6.475 24.684 30.068 84.392 39.551 113.61 2.692-11.505 5.453-22.976 8.245-34.431 0.355 0.664 0.693 1.337 1.059 1.996 2.842 5.118 6.022 10.043 9.549 14.716 7.197 9.534 15.886 17.892 25.757 24.628 18.744 12.788 40.789 19.021 63.116 21.676-26.193 4.861-57.297 1.486-79.544-12.516" style="fill:#00226e"/></g><g transform="translate(542.01 1169.2)"><path d="m0 0c22.793 3.805 44.855 11.089 65.25 21.983 35.496 18.96 69.378 47.134 83.545 85.758-6.35 2.922-12.846 5.722-19.458 8.517-1.203-5.103-3.834-10.042-7.086-14.746-13.493-25.089-39.388-44.46-63.552-57.073-35.465-18.512-74.427-25.483-113.85-27.389-0.083-0.458-0.179-0.947-0.306-1.5-1.037-4.538-2.148-9.978-3.301-15.944 19.574-2.148 38.606-2.97 58.757 0.394" style="fill:#4a2300"/></g><g clip-path="url(#clipPath244133)" style="opacity:.2"><g transform="translate(670.12 1241)"><path d="m0 0c8.714 10.801 15.852 22.768 20.69 35.956-6.351 2.922-12.847 5.722-19.458 8.517-1.204-5.102-3.835-10.041-7.086-14.745-2.806-5.217-6.172-10.171-9.923-14.884 5.973-3.938 11.621-8.946 15.777-14.844" style="fill:#260c23"/></g></g><g transform="translate(548.19 1157.8)"><path d="m0 0c14.646 4.609 28.916 12.247 42.24 18.759-3.793 5.882-7.703 11.698-11.38 17.627-2.674 4.311-5.204 8.72-7.683 13.159-0.015 5e-3 -0.029 0.013-0.043 0.017-0.076 0.021-0.141 0.022-0.215 0.04-12.958-6.867-27.321-10.618-41.555-14.618 4.18-12.026 9.759-23.543 16.463-34.371 0.679-0.263 1.408-0.461 2.173-0.613" style="fill:#b2b6ba"/></g><g transform="translate(579.05 1194.2)"><path d="m0 0c-2.674 4.311-5.203 8.72-7.683 13.159-0.014 4e-3 -0.028 0.013-0.043 0.017-0.076 0.021-0.14 0.022-0.214 0.039-1.809-0.958-3.651-1.844-5.511-2.69 6.701-7.408 17.156-20.256 10.637-28.356-7.017-8.719-20.949-11.039-32.434-14.257 0.725-1.236 1.461-2.466 2.215-3.685 0.679-0.263 1.409-0.461 2.173-0.613 14.646 4.609 28.916 12.247 42.241 18.758-3.794 5.883-7.703 11.698-11.381 17.628" style="fill:#8c959d"/></g><g clip-path="url(#clipPath244157)" style="opacity:.3"><g transform="translate(554.81 1194.9)"><path d="m0 0c-4.024-1.294-8.648-2.303-11.77-5.35-2.144-2.093-2.339-3.954-2.156-6.899 0.242-3.909 1.123-7.77 2.204-11.52-1.054-0.192-4.506 7.43-4.816 7.98-1.39 2.395-2.762 4.801-4.118 7.216-0.543 0.978-1.154 1.911-1.832 2.799 0.373 0.941 1.616 0.98 2.583 1.168 3.559 0.693 6.587 1.883 9.876 3.376 2.761 1.253 5.531 2.257 8.412 3.18 2.321 0.744 11.774 1.484 13.285 2.873-0.576 0.135-8.845-3.915-11.668-4.823" style="fill:#fff"/></g></g><g transform="translate(666.99 1232.1)"><path d="m0 0c-1.759 3.437-4.194 6.537-6.489 9.619-2.241 3.007-4.53 6.036-7.042 8.823-1.198 1.33-2.408 2.845-3.978 3.749-1.74 1.001-4.233 0.906-6.146 0.322-2.185-0.667-4.186-2.702-5.405-4.622-0.136-0.214-0.558-0.937-0.828-1.655 0.538-0.488 1.02-1.224 1.406-1.673 2.599-3.037 5.179-6.059 7.653-9.199 3.665-4.651 7.045-9.562 11.214-13.795 0.662-0.673 1.944-2.58 2.848-2.933 0.98-0.382 3.559 0.964 4.09 1.317 1.302 0.867 2.525 2.026 3.23 3.445 1.125 2.265 0.567 4.415-0.553 6.602m-30.684 16.084c0.26-0.146 0.458-0.273 0.63-0.391 0.042 0.177 0.095 0.357 0.166 0.543-0.229 0.208-0.464 0.381-0.711 0.453-0.028-0.202-0.057-0.403-0.085-0.605m1.18-1.521c0.184 0.254 0.353 0.514-0.55 1.13-0.141-0.609-0.074-1.112 0.55-1.13m-113.27-72.686c-1.211 4.505-2.342 9.05-3.569 13.55 0.071-0.259-0.815 4.088-1.87 5.3-0.642 1.611-6.923 0.011-8.766-0.368-2.306-0.475-3.189-1.93-2.72-4.32 0.374-1.903 1.289-3.703 1.76-5.585 0.67-2.681 1.043-5.426 1.555-8.139 0.795-4.211 2.028-8.322 2.998-12.495 0.586-2.524 1.248-5.391 3.307-7.179 2.583-2.243 8.997-0.374 9.854 2.918 0.468 1.801-8e-3 3.934-0.267 5.721-0.521 3.593-1.34 7.096-2.282 10.597" style="fill:#0d3ba3"/></g><g transform="translate(524.21 1174)"><path d="m0 0c-1.211 4.505-2.342 9.049-3.569 13.549 0.071-0.259-0.815 4.089-1.871 5.3-0.173 0.435-0.762 0.631-1.558 0.685-0.149-0.991-0.496-1.912-1.093-2.677 4.906-9.668 8.542-22.612 2.357-30.865-1.071-1.43-2.567-1.722-3.977-1.353 0.511-1.467 1.225-2.85 2.406-3.875 2.582-2.243 8.997-0.374 9.854 2.918 0.468 1.8-8e-3 3.934-0.267 5.721-0.521 3.592-1.34 7.095-2.282 10.597m142.78 58.123c-1.76 3.436-4.194 6.537-6.49 9.618-2.24 3.008-4.529 6.036-7.041 8.823-1.198 1.33-2.408 2.846-3.978 3.749-1.74 1.002-4.234 0.907-6.146 0.323-0.182-0.056-0.362-0.134-0.541-0.208 8.176-6.193 15.448-13.165 18.725-23.312 0.704-2.182-0.758-5.238-3.146-5.674-0.844-0.154-1.638-0.207-2.406-0.206 0.47-0.514 0.918-1.047 1.408-1.544 0.662-0.673 1.944-2.581 2.847-2.933 0.98-0.383 3.56 0.963 4.09 1.316 1.303 0.868 2.526 2.027 3.231 3.446 1.125 2.265 0.567 4.415-0.553 6.602" style="fill:#00226e"/></g><g clip-path="url(#clipPath244181)" style="opacity:.3"><g transform="translate(650.97 1237.2)"><path d="m0 0c-1.416 2.23-2.551 4.664-3.884 6.949-1.2 2.058-2.467 4.132-3.532 6.267-0.133 0.268-0.422 1.3-0.822 1.446-0.047-5e-3 -0.318 0.833-1.445 0.34-1.523-0.667-2.35-1.843-1.87-3.394 0.28-0.905 0.918-1.669 1.439-2.448 1.021-1.53 2.198-2.855 3.381-4.267 1.345-1.606 2.727-3.091 4.228-4.557 0.772-0.754 3.084-3.635 4.437-3.411-0.239 1.104-1.328 2.123-1.932 3.075m-136.38-47.584c-0.077 0.273-0.54 1.939-0.439 2.874-0.412-0.391-0.895-0.251-1.308-0.306-0.705-0.092-1.146-0.442-1.673-0.87-0.895-0.726-1.657-1.119-1.823-2.331-0.163-1.187 0.102-2.233 0.423-3.353 0.753-2.625 1.328-5.276 2.021-7.915 0.465-1.767 0.816-3.563 1.223-5.343 0.253-1.103 0.545-2.485 1.332-3.357 0.122 0.295 0.319 0.399 0.497 0.605 0.46 0.532 0.682 0.815 0.931 1.538 0.857 2.478 1.075 5.279 0.879 7.873-0.27 3.576-1.086 7.152-2.063 10.585m-0.439 2.874c0.144 0.137 0.28 0.336 0.401 0.635-0.251-0.027-0.363-0.283-0.401-0.635" style="fill:#fff"/></g></g><g transform="translate(412.73 1905)"><path d="m0 0c-7.26-5.175-13.15-12.979-18.069-20.37-5.709-8.578-3.092-15.89-4.836-25.566-3.162-17.533-10.774-33.909-27.722-40.246-18.364-6.866-33.321-9.477-47.129-24.53-11.988-13.069-22.422-26.619-17.367-45.091 4.799-17.532 17.038-32.035 24.395-48.451 10.039-22.4 8.606-35.838-8.747-53.57 13.706 3.916 21.814 7.192 29.038 20.298 8.765 15.9 4.536 33.166-0.893 49.452 14.66-11.402 20.154-26.454 13.028-44.627-6.956-17.74-21.561-30.314-21.82-50.494-0.128-9.957 2.402-19.601 4.104-29.334 1.539-8.796 1.118-18.925 4.406-27.287 3.566-9.069 12.866-14.964 19.431-21.866 7.416-7.797 14.279-16.104 21.779-23.825 14.538-14.967 30.247-23.727 49.589-31.127 8.243-3.153 19.576-10.292 28.284-11.313 9.787-1.148 18.541 7.132 26.404 11.778 9.293 5.491 18.976 10.393 28.463 15.543 8.946 4.856 17.825 12.284 27.404 15.701 16.452 5.871 31.318-7.909 47.544-7.688 9.251 0.126 12.843 6.781 18.131 13.629 6.825 8.839 15.401 14.305 24.153 21.109 22.007 17.11 23.586 34.703 23.586 60.893 5.239-11.525 7.748-24.124 6.05-36.732-1.661-12.335-6.973-23.25-7.072-35.942-0.09-11.498 2.916-22.839 8.248-32.997 4.408-8.399 12.353-16.826 12.353-26.848 0 18.372-4.255 41.94 3.942 59.056 8.507 17.763 23.114 28.013 19.914 50.104-2.521 17.408-14.605 30.448-22.632 45.386-9.922 18.462-6.665 39.278 4.894 56.289-1.233-12.486-3.061-26.974 2.424-38.719 4.508-9.652 13.364-17.645 20.131-25.732 6.985-8.349 15.238-16.387 16.875-27.629 1.724-11.838-2.663-25.205-8.838-35.183 14.952 12.805 26.083 27.436 20.79 47.927-5.305 20.537-23.376 42.66-17.359 64.64 2.682 9.801 8.079 17.807 9.201 28.168 1.179 10.884-0.404 22.109-3.645 32.522-6.925 22.251-22.315 40.802-34.136 60.559-12.043 20.129-25.28 41.341-33.312 63.458-7.269 20.014-10.9 34.55-31.162 45.185-19.943 10.469-39.938 15.329-62.436 14.683-22.215-0.639-37.389-11.607-54.743-24.301-32.72 17.997-64.452 33.183-92.643 13.088" style="fill:#4a2300"/></g><g clip-path="url(#clipPath244201)" style="opacity:.3"><g transform="translate(699.55 1681.4)"><path d="m0 0c1.917 14.432 3.062 28.047-0.351 42.403-3.217 13.534-9.421 26.059-16.873 37.734-0.202 0.316-0.423 0.621-0.628 0.935 3.499-7.798 6.301-15.869 7.828-24.349 1.662-9.233 2.111-19.264 0.131-28.493-1.003-4.678-2.829-9.124-4.528-13.606-1.001-7.055-2.425-14.064-4.568-20.848-0.662-9.456-0.479-19.24 3.438-27.626 4.507-9.652 13.364-17.645 20.13-25.732 6.985-8.349 15.239-16.387 16.876-27.629 1.724-11.838-2.664-25.205-8.838-35.183 5.44 4.659 10.361 9.566 14.182 14.903 17.665 38.237-31.996 68.37-26.799 107.49m-42.631-28.535c-1.535 11.614 2.177 20.354 7.633 28.536 2.829 10.606 6.303 21.147 2.951 32.297-5.377 17.89-20.886 30.729-26.661 48.536-3.889 11.988-3.567 24.601-5.719 36.902-2.145 12.261-8.271 22.427-15.715 32.193-11.765 15.436-24.532 31.317-40.173 43.17-1.615-0.914-3.758-0.797-4.929 1.288-5.314 9.463-22.685 6.473-31.377 5.048-8.604-1.409-17.686-3.403-25.847-6.82-0.412-0.751-1.086-1.388-2.1-1.742-30.627-10.67-64.377 8.108-94.488-3.324-20.783-7.89-21.798-31.271-24.859-50.087-1.639-10.077-4.23-20.529-10.853-28.59-7.011-8.532-17.453-13.29-24.725-21.592-0.57-0.651-1.21-1.011-1.859-1.164-1.909-2.644-3.603-5.438-4.98-8.432-1.533-3.335-2.524-6.678-3.099-10.025-0.12-12.095 2.179-23.684 5.242-35.688 0.051-0.199 0.1-0.395 0.151-0.594 0.059-0.139 0.117-0.279 0.176-0.419 0.954-0.359 1.787-1.122 2.218-2.4 4.125-12.233 6.646-25.313 3.701-38.092-0.296-1.285-1.043-2.077-1.952-2.475-0.629-2.284-1.412-4.561-2.418-6.827-4.95-11.15-12.353-19.761-17.286-29.709-2.678-6.732-4.684-13.694-5.146-21.191-0.069-1.122-0.523-1.983-1.164-2.6 0.863-5.573 2.091-11.102 3.063-16.658 1.538-8.796 1.118-18.925 4.405-27.287 3.566-9.069 12.866-14.964 19.431-21.866 7.416-7.797 14.28-16.104 21.779-23.825 14.538-14.967 30.247-23.727 49.589-31.127 8.244-3.153 19.576-10.292 28.284-11.313 9.788-1.148 18.541 7.132 26.404 11.778 9.293 5.491 18.977 10.393 28.464 15.543 8.946 4.856 17.824 12.284 27.403 15.701 16.452 5.871 31.318-7.909 47.545-7.688 9.251 0.126 12.842 6.781 18.13 13.629 6.825 8.84 15.402 14.305 24.153 21.109 22.008 17.11 23.586 34.703 23.586 60.893 5.239-11.525 7.748-24.124 6.051-36.731-1.661-12.336-6.974-23.251-7.073-35.943-0.09-11.498 2.917-22.839 8.248-32.997 2.278-4.34 5.495-8.69 8.077-13.261-0.326 9.192-2.286 18.218-1.105 27.626 1.279 10.185 3.784 20.015 7.052 29.734 3.325 9.886 7.565 19.822 8.542 30.307 1.033 11.095-2.107 21.437-7.322 31.106-7.834 14.523-19.2 28.216-21.428 45.071m-314.63 14.544c8.765 15.9 4.535 33.166-0.894 49.452 0.794-0.617 1.548-1.25 2.288-1.889-0.736 1.396-1.408 2.814-2.014 4.256-5.31 10.239-9.95 21.22-12.036 32.503-2.035-8.337-2.776-16.922-1.602-25.655 1.522-11.315 5.987-22.005 7.118-33.394 1.647-16.588-3.995-32.423-15.555-43.632 10.005 3.331 16.664 7.419 22.695 18.359" style="fill:#260c23"/></g></g><g clip-path="url(#clipPath244217)" style="opacity:.5"><g transform="translate(558.91 1731)"><path d="m0 0c-0.368-2.045 0.434-4.45 0.994-6.295 1.11-3.651 2.281-7.327 3.511-10.938 1.884-5.53 5.576-10.121 7.397-15.631 1.822-5.516 2.161-11.017 1.969-16.799-0.491-14.854-3.717-30.778-9.437-44.505-2.221-5.329-5.14-10.155-8.141-15.059-0.772-1.261-2.167-2.917-2.382-4.404 13.685 7.191 27.415 15.143 37.877 26.655 14.507 15.962 22.05 35.5 27.798 55.913 1.003-4.601 0.138-12.571-0.132-16.443-1.022-14.663-3.941-30.351-8.121-44.414-3.349-11.265-6.727-23.556-13.818-33.109-2.846-3.835-6.316-7.163-9.154-10.989 11.467 4.874 20.72 15.043 27.566 25.044 9.482 13.852 14.915 30.224 14.829 47.07-0.348-2.537 4e-3 -5.208 0.121-7.751 0.366-7.945 1.085-15.924 0.822-23.886-0.322-9.75-1.759-19.767-4.386-29.168-1.654-4.753-3.309-9.505-4.963-14.257-2.598-7.266-6.773-13.332-12.526-18.2-2.977-3.677-6.551-6.623-10.723-8.839-3.591-2.246-7.067-4.657-10.429-7.233-6.307-4.613-11.097-10.114-15.383-16.643-3.127-4.762-5.924-9.63-8.277-14.823-0.249-0.549-1.877-5.255-2.834-5.552 1.236 3.344 0.034 6.525-1.163 9.659-2.547 6.667-6.825 13.176-11.048 18.928-12.265 16.707-32.884 24.503-51.609 31.323-8.647 3.15-17.409 6.062-26.403 8.056-4.235 0.939-8.864 0.868-13.028 1.884-0.902 0.22-1.541 1.009-2.478 0.976-2.552-1.035-5.001-2.281-7.347-3.738-2.501-1.575-5.001-3.149-7.502-4.723-9.777-6.283-19.419-12.583-29.461-18.438-6.528-3.806-12.896-8.502-19.807-11.645-3.255-1.48-4.131-1.219-6.653 0.583-2.348 1.678-4.647 2.085-7.451 2.182-4.319 0.15-8.567-0.405-12.852-0.794-1.577-0.143-9.06-1.515-10.636-0.077-1.135 1.035 0.016 2.547 0.602 3.727 2.842 5.721 6.998 10.895 10.543 16.188 5.221 7.797 12.033 16.216 14.629 25.44 0.98 3.48 1.625 6.991 2.848 10.396 0.836 2.326 1.502 4.452 1.846 6.927 1.194 8.589 0.461 17.803 0.419 26.458-0.022 4.51 1.334 7.361 3.199 11.693 4.484 10.411 10.633 19.635 18.09 28.138 9.326 10.635 20.503 18.598 32.381 26.164 28.315 18.035 63.729 25.236 97.051 21.963 5.682-0.558 11.644-0.421 17.228-1.474 2.599-0.491 4.898-0.58 7.345-1.655-1.489-2.092-2.491 1.223-0.921 2.115" style="fill:#260c23"/></g></g><g clip-path="url(#clipPath244233)" style="opacity:.7"><g transform="translate(507.03 1886)"><path d="m0 0c-2.165-1.429-6.575-0.463-9.043-0.444-3.198 0.024-6.395 0.016-9.591 0.15-6.766 0.283-13.491 1.176-20.267 1.304-11.641 0.22-24.25-0.756-35.397-4.393-8.862-2.891-16.852-8.22-20.534-17.092-4.687-11.291-1.484-24.22-6.628-35.38-6.456-14.003-20.198-20.286-33.941-26.291 4.209 2.679 8.306 5.536 12.288 8.686 4.591 3.632 9.035 7.508 13.807 10.901 1.527 1.085 3.213 2.093 4.489 3.49 1.307 1.432 1.84 3.28 2.983 4.835 0.134 0.182-0.171 0.42-0.315 0.243-1.69-2.073-2.343-3.989-4.65-5.818-1.439-1.141-3.107-2.008-4.618-3.053-4.535-3.141-8.785-6.699-13.166-10.046-7.984-6.098-16.406-11.074-25.251-15.801-12.127-6.481-31.789-16.498-32.389-32.487-0.257-6.867 2.823-13.463 7.718-18.169 6.327-6.084 15.052-8.733 21.439-14.786 17.186-16.29 8.133-44.56-0.209-63.115-6.276-13.961-14.941-26.892-18.383-41.227-0.255-2.939-0.203-5.829 0.096-8.68 1.609 17.614 12.425 32.752 19.786 49.031 7.091 15.683 14.274 36.733 7.71 53.683-2.85 7.359-8.249 12.767-14.807 16.947-7.046 4.491-14.855 7.716-19.006 15.477-7.433 13.896 2.32 24.877 13.815 32.922-4.818-5.002-8.448-11.276-8.318-18.249 0.198-10.629 8.63-17.819 16.208-24.009 5.633-4.602 11.519-9.186 15.535-15.36 4.551-6.994 5.344-15.024 4.045-23.131-2.206-13.768-7.88-26.707-12.891-39.655 1.066 1.787 2.14 3.569 3.2 5.36 3.885 9.513 7.746 19.066 10.069 29.084 2.457 10.601 2.568 21.183-3.939 30.373-6.371 8.997-16.212 14.33-23.646 22.269-4.864 5.194-8.116 12.055-6.504 19.3 1.388 6.243 5.681 11.64 10.444 15.723 16.421 14.074 40.623 15.949 54.984 33.082 6.925 8.262 8.012 17.884 8.773 28.28 0.501 6.837 1.409 13.838 5.409 19.621 3.478 5.029 8.808 8.406 14.438 10.57 12.594 4.84 27.408 5.851 40.756 5.317 6.983-0.28 13.929-1.043 20.926-0.958 3.195 0.039 6.398 0.228 9.592 0.134 1.956-0.057 3.662-0.384 5.323 0.78 0.351 0.246 0.026 0.823-0.34 0.582m-188.47-145.51c3.552-7.119 6.62-14.581 8.442-22.345 0.204-0.873 0.381-1.749 0.539-2.626-1.314 3.334-2.838 6.6-4.223 9.873-2.542 6.004-4.831 12.019-6.23 18.163 0.473-1.019 0.96-2.039 1.472-3.065m192.77 147.73c-3.207 0.518-6.028 0.938-9.052 2.231-6.349 2.716-12.085 6.786-18.286 9.833-12.134 5.964-24.777 9.272-38.35 9.056-11.754-0.187-24.451-4.119-33.849-11.348-8.764-6.741-11.643-16.825-12.461-27.439-1.115-14.475 0.767-29.067-10.369-40.372-8.238-8.364-19.911-11.659-30.783-15.098-9.612-3.04-19.002-6.445-26.808-13.047-7.63-6.454-13.211-15.144-16.131-24.686-1.833-5.985-2.701-12.399-2.375-18.655 0.156-3.005 0.749-5.803 1.607-8.515 0.19-2.004 0.46-4.008 0.9-6.002 2.68-12.122 9.639-22.924 12.929-34.787 0.278-3.691 0.272-7.403 0.137-11.115 0.302-1.717 0.485-3.437 0.545-5.16 0.298 4.146 0.404 8.137 0.296 12.062 0.082-0.427 0.176-0.852 0.246-1.283 1.267-7.812 1.222-16.111 0.896-24.004-0.222-5.375-1.415-10.277-2.886-15.193-0.503-2.769-1.152-5.486-1.973-8.142 0.119 0.024 0.23 0.083 0.282 0.229 1.944 5.495 4.136 10.895 5.008 16.693 0.958 6.375 0.801 12.942 0.684 19.371-0.098 5.401-0.45 10.843-1.803 16.094-0.251 0.977-0.548 1.942-0.863 2.902-0.643 6.058-1.991 12.031-4.349 18.192-1.921 5.019-4.358 9.744-6.624 14.607-0.726 1.56-1.331 3.126-1.841 4.701-0.604 4.874-0.536 9.849 0.522 14.985 2.569 12.478 8.376 23.414 17.692 32.155 10.076 9.455 22.214 12.651 35.089 16.553 9.75 2.956 19.344 6.547 25.785 14.85 6.757 8.71 8.8 18.678 8.808 29.494 5e-3 6.628-0.286 13.562 3.641 19.283 3.984 5.805 10.261 10.076 16.135 13.761 13.86 8.693 30.151 8.62 45.664 4.712 6.882-1.734 13.644-3.926 20.485-5.814 7.011-1.935 13.117-2.848 20.383-2.646 0.332 9e-3 0.334 0.513 0 0.516-26.34 0.212-52.187 19.973-78.861 9.018-9.341-3.836-20.788-11.113-25.957-20.039-6.114-10.557-1.247-24.127-5.075-35.442-4.407-13.029-13.951-20.414-26.619-24.723-11.766-4.002-24.257-6.022-34.507-13.478-14.208-10.335-23.937-27.112-24.923-44.631-0.222 2.504-0.222 5.055 8e-3 7.678 1.002 11.45 5.638 22.486 13.428 30.974 7.394 8.057 16.896 12.59 27.128 15.953 18.387 6.041 38.741 11.645 44.126 32.91 3.097 12.23-0.027 25.207 3.914 37.383 4.24 13.103 16.521 19.464 28.963 23.136 15.325 4.523 32.522 1.496 46.919-4.713 6.513-2.809 12.503-6.485 18.767-9.767 2.783-1.458 5.696-2.793 8.773-3.499 2.843-0.653 6.193-0.155 8.63-1.94 0.326-0.238 0.75 0.306 0.434 0.563-1.269 1.033-2.455 1.38-4.079 1.643m123.54-232.76c-0.241 5.32 0.753 10.672 2.527 15.679 1.582 4.461 4.242 8.403 5.921 12.817 2.995 7.876 2.646 16.462 0.433 24.485-1.201 4.358-3.346 8.083-5.327 12.111-2.513 5.112-3.666 10.583-4.698 16.141-1.008 5.434-2.668 10.9-3.03 16.421-0.297 4.532 0.028 8.883-0.882 13.353-0.065 0.32-0.534 0.18-0.484-0.134 0.713-4.448 0.174-8.754 0.337-13.219 0.16-4.351 1.293-8.567 2.085-12.829 1.574-8.467 3.186-16.128 7.16-23.822 3.774-7.305 5.852-15.91 4.873-24.171 0.146 2.188 0.017 4.327-0.579 6.242-0.069 0.219-0.407 0.128-0.346-0.096 1.959-7.254-2.072-16.207-5.351-22.436-2.632-4.999-5.58-9.851-7.719-15.094-5.261-12.893-0.707-24.424 2.94-37.122 4.278-14.893 2.689-29.21-6.271-42.081-7.929-11.389-19.231-19.905-29.896-28.547-6.901-5.593-13.256-11.467-18.396-18.318-1.713-3.308-3.292-6.679-4.717-10.112 6.06 11.461 15.545 20.132 25.68 28.317 10.348 8.358 21.113 16.778 28.762 27.822 7.237 10.451 10.462 22.675 8.306 35.279-2.555 14.933-11.13 28.433-5.392 43.738 1.178 3.142 2.674 6.138 4.228 9.107-0.655-2.241-1.159-4.528-1.465-6.825-1.059-7.935 0.566-15.688 3.656-23.001 3.917-9.268 7.159-17.713 6.979-27.97-0.33-18.831-11.065-35.442-25.344-46.973-7.552-6.098-15.072-11.932-21.105-19.635-3.757-4.797-6.757-10.061-9.278-15.566 1.219 1.633 2.513 3.204 3.858 4.734 2.434 4.317 5.228 8.424 8.482 12.23 5.633 6.592 12.416 11.743 19.127 17.154 12.844 10.356 23.028 24.797 25.33 41.466 1.105 8.006 0.56 16.42-1.996 24.111-2.995 9.011-7.967 16.997-8.408 26.744m10.696 168.92c0.051-0.189 0.165-0.297 0.299-0.349 1.518-11.723 1.119-23.751 6.221-34.724 6.971-14.989 19.603-26.567 25.615-42.111 6.949-17.966 1.733-36.811-4.392-54.296 4.793 20.631 6.477 42.443-1.19 62.618-3.476 9.146-9.856 16.891-16.008 24.37-7.303 8.879-14.39 17.61-19.252 28.107-1.042 2.25-2.005 4.532-2.927 6.831-0.094 0.609-0.186 1.219-0.287 1.823-2.44 14.567-7.241 28.276-15.775 40.365-1.929 3.891-4.09 7.679-6.62 11.306-8.598 12.328-20.825 20.272-34.893 22.778-0.48 0.244-0.959 0.491-1.444 0.728 4.383-0.603 8.723-1.482 13.008-2.819 8.511-2.657 15.681-7.298 22.947-12.329 13.934-9.647 25.836-22.902 31.835-38.946 0.202-0.539 0.366-1.084 0.546-1.627 0.595-3.95 1.295-7.875 2.317-11.725m21.947-96.339c-6.182 14.35-17.259 25.821-23.879 39.888-5.824 12.375-6.997 26.443-8.738 40.038 3.932-8.49 9.023-16.018 14.937-23.316 6.565-8.101 13.812-15.967 18.624-25.302 9.096-17.645 8.398-38.936 4.728-58.243-0.079 9.249-2.056 18.538-5.672 26.935m-45.431 119.48c4.137-7.817 6.953-16.145 8.876-24.82-2.965 8.281-5.618 16.686-8.876 24.82m-39.459 40.137c10.769-3.43 20.118-10.355 27.042-20.268 0.361-0.517 0.692-1.047 1.038-1.57-8.07 8.718-17.821 15.915-28.08 21.838m-11.112 5.748c-1.076 0.478-2.162 0.931-3.255 1.367 0.537 0.072 1.073 0.147 1.614 0.183 6.691 0.442 13.472 0.07 20.049-1.258 11.809-2.386 22.502-8.007 31.211-16.321 9.656-9.217 15.853-20.52 20.898-32.459 0.109-0.823 0.219-1.646 0.327-2.469-5.77 12.753-15.268 23.93-26.374 32.302-7.504 5.657-15.601 11.249-24.504 14.424-6.407 2.284-13.159 3.645-19.966 4.231m-8.391 0.325c0.918 0.23 1.839 0.443 2.761 0.636 0.645-0.243 1.299-0.459 1.937-0.718-1.567 0.07-3.133 0.092-4.698 0.082m-5.104 4.346c-2.781 0.671-6.102 1.329-9.408 1.468 10.823 4.269 23.137 4.886 34.623 4.299 13.563-0.693 26.177-4.76 36.349-13.958 8.537-7.719 17.112-17.99 19.819-29.42 0.816-3.446 1.405-6.944 1.92-10.457-4.393 9.555-9.741 18.585-17.267 26.349-8.426 8.694-18.973 14.986-30.757 17.874-6.374 1.562-12.967 2.199-19.524 2.058-2.637-0.057-5.313-0.186-7.93-0.596-2.566 0.932-5.173 1.743-7.825 2.383m147.63-240.77c-3.347 13.4-0.777 25.602 2.474 38.68 2.793 11.234 3.955 21.931 1.682 33.384-2.213 11.149-6.688 21.941-13.605 31.002-7.272 9.525-16.521 17.281-24.418 26.251-8.555 9.718-14.078 20.921-18.601 32.962-3.084 8.21-5.975 16.572-9.353 24.673-0.12 0.81-0.222 1.624-0.356 2.431-1.071 6.444-1.624 13.319-4.095 19.414-4.383 10.812-13.078 20.759-22.164 27.901-9.705 7.629-21.795 10.805-33.982 11.402-11.572 0.566-25.815 0.359-36.016-5.842-3.494-0.02-6.885-0.708-9.509-2.696-0.179-0.135-0.017-0.439 0.181-0.31 6.683 4.363 17.442 1.348 24.376-0.885 0.409-0.132 0.804-0.3 1.211-0.439-3.664-0.892-7.149-2.413-10.994-2.402-0.519 1e-3 -0.514-0.777 0-0.803 2.717-0.137 5.39 0.405 8.064 1.057 0.053-0.043 0.109-0.085 0.196-0.089 3.4-0.147 6.782-0.356 10.141-0.696 0.501-0.224 1.011-0.428 1.508-0.661-3.044 0.313-6.156 0.405-9.334 0.211-1.174-0.072-1.182-1.908 0-1.836 5.086 0.311 10.011-0.077 14.716-1.081 1.695-0.915 3.37-1.869 5.022-2.858 12.138-7.264 23.601-16.175 32.207-27.496 7.678-14.458 11.597-30.608 17.791-45.774 2.105-14.188 2.732-29.227 8.187-42.592 5.493-13.458 15.646-24.442 22.437-37.218 6.731-12.664 9.704-27.644 7.572-41.881-1.374-5.632-2.929-11.215-4.595-16.766-0.699-1.99-1.418-3.97-2.141-5.947 2.853 12.737 3.913 26.069-0.663 38.558-4.77 13.017-15.387 22.639-22.25 34.5-7.73 13.359-11.315 28.458-13.6 43.589-1.189 7.879-2.253 15.833-2.905 23.777-0.56 6.811-0.755 13.675-2.025 20.406-2.668 14.131-11.234 26.163-20.708 36.644-4.603 5.092-9.714 9.755-15.536 13.423-4.315 2.718-11.578 8.125-17 7.253-0.145-0.024-0.243-0.187-0.245-0.323-8e-3 -0.38-0.015-0.76-0.023-1.141-8e-3 -0.408 0.61-0.403 0.631 0 0.125 2.364 9.222-2.595 10.262-3.179 3.056-1.715 6.092-3.443 8.933-5.503 5.497-3.985 10.28-8.877 14.64-14.058 9.084-10.794 16.384-22.531 18.331-36.729 1.938-14.141 2.335-28.438 4.508-42.584 2.092-13.624 5.443-27.2 11.948-39.443 6.35-11.949 16.818-21.402 22.399-33.696 6.731-14.825 4.694-31.017 0.818-46.3-0.893-3.521-1.878-7.118-2.753-10.753-0.573-2.037-1.093-4.092-1.524-6.179-0.564-1.869-1.035-3.738-1.285-5.578-0.743-5.451 0.094-11.812 0.595-17.254 0.076-0.821 1-1.057 1.508-0.721 0.102-0.254 0.184-0.508 0.295-0.764 0.629-1.448 1.364-2.831 2.159-4.176 5.177-10.133 13.665-18.44 17.48-29.166 3.054-8.588 3.691-17.411 0.724-26.096-2.609-7.637-6.81-14.568-10.322-21.796-3.096-6.369-5.354-13.197-6.216-20.246-0.451-3.689-0.364-7.352 0.013-10.995 0.416-0.919 0.866-1.824 1.331-2.723-0.656 5.342-0.783 10.695 0.192 16.141 1.408 7.87 4.568 15.051 8.222 22.104 6.072 11.719 11.982 23.204 9.24 36.769-1.721 8.512-6.133 15.382-10.747 22.247 10.525-14.54 17.689-30.83 12.433-48.983-2.344-8.093-6.273-15.469-9.552-23.187-3.444-8.104-5.668-16.604-7.733-25.143-0.041-0.172 0.016-0.302 0.107-0.404 0.916 2.897 1.996 5.748 3.135 8.602 1.462 5.075 3.074 10.104 5.091 14.991 2.993 7.254 6.771 14.153 9.259 21.616 4.885 14.648 3.153 28.625-4.283 42.121-4.953 8.99-13.36 17.206-18.115 26.641-3.249 7.874-3.379 15.747-2.224 23.674 1.117 4.726 3.142 9.506 4.528 13.919 2.923 9.305 5.857 18.615 8.329 28.052 0.273-0.047 0.584 0.057 0.71 0.385 6.394 16.666 12.913 34.644 9.286 52.74-3.461 17.27-16.107 29.805-24.865 44.426-5.55 9.266-7.52 18.623-8.159 29.304-0.466 7.807-1.282 15.297-3.68 22.677-0.111 0.896-0.225 1.792-0.336 2.689 2.676-6.892 5.114-13.905 7.725-20.78 3.878-10.209 8.515-20.074 15.388-28.637 7.134-8.889 15.836-16.341 23.319-24.916 8.476-9.711 14.181-21.135 16.915-33.742 2.805-12.934 1.033-24.524-2.16-37.175-3.106-12.309-4.796-23.877-1.682-36.398 2.412-9.698 6.837-18.691 11.82-27.324 1.267-1.206 2.54-2.458 3.73-3.777-5.763 9.977-11.214 20.307-14.015 31.525" style="fill:#703500"/></g></g><g transform="translate(516.61 1865.4)"><path d="m0 0c-10.745-0.788-13.724 7e-3 -23.091-1.989-9.393-2.001-29.483-6.256-37.487-11.548-14.565-9.629-25.735-29.407-36.052-43.594-5.455 5.455-9.013 8.799-15.223 6.161-6.715-2.853-7.137-8.279-8.926-14.542-2.97-10.394 0.702-20.082-1.736-30.394-1.259-5.33-2.813-17.051-3.594-22.448-0.944-6.519-0.428-19.1-0.428-25.701 0-12.244-3.601-12.386-7.909-23.742-8.39-22.122-18.26-43.772-24.285-66.668-6.425-24.413-41.39-14.239-61.203-19.205-8.54-2.14-19.844-5.249-25.597-11.398-10.216-10.918-11.559-26.922-9.327-40.776 5.357-33.25 19.004-61.517 33.112-91.496 2.233-4.747 5.903-18.118 10.435-20.376 4.158-2.073 15.385 0.323 19.924 0.419 30.3 0.638 60.6 1.276 90.9 1.914 33.96 0.715 67.92 1.43 101.88 2.144 2.843 0.06 5.146-2.508 7.22-0.427 1.896 1.901 8.219 12.174 8.219 14.899 0 6.821-2.955 17.707-2.955 24.528 29.819-24.435 66.708-48.954 95.948-74.077 9.418-8.092 18.602-16.476 27.897-24.709 6.085-5.389 14.252-10.908 18.457-18.13 9.545-16.394 12.88-35.887 22.879-52.252 13.017-21.304 28.392-38.14 44.151-57.418 13.01-15.914 24.2-33.613 36.115-50.369 11.181-15.723 17.372-35.257 25.178-52.82 6.2-13.95 13.779-33.229 6.808-47.326-4.789-9.686-12.984-19.203-15.402-29.674-2.87-12.433 2.478-22.219 6.597-33.752 3.677-10.297 6.697-20.022 5.831-31.256-0.86-11.166-5.622-22.471-7.342-33.652 17.212 7.042 21.353 14.323 25.475 32.819 2.545 11.418 1.446 23.39 1.446 35.096 7.675-20.502 12.173-39.961 17.849-60.877 3.305-12.182 6.445-22.167 5.546-35.152-0.609-8.805-2.946-27.981 7.809-32.458 0 15.422 4.895 29.432 4.895 44.665 0.958-10.307-0.523-34.671 9.902-41.865 5.058-3.491 3.88-0.931 5.734 5.245 0.894 2.978 1.572 7.92 2.315 11.493 0.659 3.17-0.201 8.051 1.016 11.054 1.561 3.854 6.577 6.506 8.566 10.401 16.97 33.246-4.499 66.848-19.383 95.568-13.782 26.594-17.488 55.848-25.894 84.314-9.414 31.881-22.294 63.114-33.365 94.456-18.198 51.518-38.903 101.98-71.401 146.47-35.703 48.878-82.733 88.583-121.04 135.12-20.741 25.199-42.731 49.403-64.497 73.713-12.846 14.347-24.45 26.145-40.979 36.412-21.336 13.251-42.422 3.852-59.076-11.384 1.979 7.914 3.957 15.828 5.936 23.742 2.763 11.052 1.871 12.746 13.917 15.526 20.169 4.654 34.337 13.622 51.121 24.975-8.904-9.648 7.812-17.401 15.865-17.644 11.638-0.35 22.083 4.491 30.329 11.679 5.542 4.83 9.936 11.39 11.512 19.131 1.732 8.502-5.134 18.23-14.266 18.65 3.032 12.707 10.155 28.72 9.901 41.7-0.296 15.061-8.834 33.272-12.7 47.834-3.402 12.812-10.452 21.006-18.272 31.922-4.276 5.969-8.309 14.022-13.666 19.075-4.461 4.208-11.45 8.297-15.593 7.993" style="fill:#d1955b"/></g><g clip-path="url(#clipPath244253)" style="opacity:.60001"><g transform="translate(515.77 1457.2)"><path d="m0 0 0.59 3.605c-0.541-0.126-0.669-3.086-0.59-3.605m17.422 13.789c-0.506 1.775-0.721 3.693-0.97 5.517-0.415 3.033-0.804 6.041-1.08 9.095-0.115 1.268-0.201 2.542-0.465 3.791-0.104 0.494 0.401 0.196 0.236 0.694-0.279 0.841-1.213 1.443-1.849 2.073-0.843 0.835-1.497 1.833-2.374 2.633-4.145 3.783-8.543 7.206-13.125 10.461-2.596 1.845-5.204 3.686-7.763 5.583-2.687 1.993-5.341 4.446-8.414 5.845-2.675 1.218-5.785 2.488-8.71 2.952-1.808 0.286-4.837 0.686-6.304-0.768 8.969-8.093 18.833-15.9 23.778-27.24 3.071-7.041 7.422-23.66 10.208-30.82 2.611 0.611 5.128 1.674 7.699 2.439 3.457 1.029 7.177 1.509 10.266 3.442-0.336 0.277-0.281 1.079-0.368 1.549-0.176 0.944-0.503 1.835-0.765 2.754m333.48-440.51c2e-3 -4e-3 4e-3 -7e-3 5e-3 -0.01 0.276 0.614 0.046 0.258-5e-3 0.01m-0.094 0.202c0.026-0.083 0.063-0.16 0.086-0.244 1e-3 0.013 6e-3 0.028 8e-3 0.042-0.031 0.067-0.063 0.134-0.094 0.202m8.461-49.143c0.317 9.975 0.117 19.493-0.729 29.445-0.629 7.413-4.547 12.987-7.633 19.486-5e-3 -0.013-8e-3 -0.019-0.013-0.032-0.025-0.208 0.909-4.62 1.396-6.504 1.003-3.882 1.687-7.79 2.348-11.741 1.478-8.827 2.965-17.638 2.826-26.624-0.25-16.084-4.474-36.756 2.606-52.021 2.85 5.588-1.009 14.593-1.222 20.592-0.324 9.108 0.132 18.296 0.421 27.399m-8.461 49.143c-0.138 0.429-0.32 0.838-0.573 1.215 0.183-0.414 0.382-0.81 0.573-1.215m-46.784 37.991c0.284-7.826 1.017-15.561 0.324-23.533-0.738-8.511-2.116-17.004-4.626-25.182-3.631-11.836-9.334-23.206-17.568-32.437-0.105-0.582-0.232-1.165-0.322-1.747 17.212 7.041 21.353 14.322 25.475 32.818 2.523 11.32 1.467 23.183 1.449 34.792-1.012 5.28-2.511 10.376-4.732 15.289m48.978-6.911c-13.782 26.595-17.488 55.848-25.894 84.314-9.414 31.882-22.294 63.114-33.365 94.457-18.198 51.518-38.903 101.98-71.401 146.47-35.703 48.878-82.733 88.583-121.04 135.12-20.741 25.2-42.731 49.403-64.497 73.713-12.846 14.347-24.45 26.146-40.979 36.412-21.336 13.252-42.423 3.853-59.076-11.384 1.979 7.914 3.957 15.828 5.936 23.742 2.763 11.053 1.871 12.746 13.917 15.526 20.169 4.655 34.337 13.622 51.12 24.976-8.903-9.648 7.813-17.402 15.866-17.644 11.638-0.35 22.082 4.491 30.328 11.678 5.543 4.831 9.937 11.391 11.513 19.131 1.732 8.502-5.134 18.23-14.266 18.65 3.032 12.708 10.155 28.72 9.9 41.7-0.295 15.061-8.833 33.273-12.699 47.835-3.402 12.812-10.452 21.005-18.272 31.921-4.277 5.969-8.309 14.022-13.667 19.076-4.46 4.207-11.449 8.296-15.592 7.992-1.205-0.088-2.301-0.154-3.33-0.209 2.526-12.144 12.949-23.65 19.569-33.581 7.754-11.633 14.745-23.719 16.893-37.739 1.724-11.257 2.044-24.827-2.289-35.571-4.384-10.869-10.895-10.226-19.997-8.109 4.441-17.768-14.305-38.812-23.839-51.525-15.283-20.379-36.206-35.433-62.178-36.329 2.969-2.91 6.427-3.28 10.45-6.549-2.275-21.51-52.976-47.513-88.689-72.784-3.381-2.393-3.778-7.509-8.492-7.813-4.554-0.295-7.854 3.447-10.556 6.606-5.731 6.7-10.073 9.951-19.184 11.693-4.763 0.91-9.521 1.759-14.252 2.751 0.167-0.15 0.332-0.304 0.498-0.455 7.656-0.596 18.324-4.425 23.717-8.77 2.647-2.133 4.447-4.826 5.969-7.706 1.841-2.374 3.364-5.135 4.477-8.401 0.519-0.516 1.019-1.051 1.575-1.531 6.368-5.492 11.3-3.698 15.952 0.521 2.886 16.335 17.293 21.192 31.769 20.068 5.65 0.394 11.397 0.095 17.111-0.09 5.921 0.975 11.842 1.945 17.685 3.338 0.968 0.231 6.075 3.338 11.952 6.966 0.16-0.886 0.322-1.774 0.544-2.661 10.595 8.215 20.223 18.165 34.364 19.351 11.241 0.942 21.942-3.426 30.909-9.93 2.595-1.882 5.047-3.901 7.393-6.023 8.347-5.244 15.288-14.359 21.353-21.158 11.597-12.998 23.716-25.267 36.151-37.478 26.509-26.031 52.432-52.648 79.045-78.564 24.473-23.834 49.378-47.384 71.187-73.747 10.385-12.554 20.221-25.704 28.575-39.709 8.73-14.637 15.337-30.394 22.111-45.994 7.204-16.59 15.465-32.659 21.943-49.568 5.884-8.791 8.085-20.211 11.715-29.968 4.977-13.376 9.587-26.89 13.764-40.538 4.318-14.108 8.416-28.286 12.654-42.419 1.705-5.685 3.61-11.362 4.869-17.166 0.512-2.36 0.685-5.051 1.164-7.578 4.978-14.071 9.02-28.122 15.838-41.493 6.39-12.534 13.259-24.797 19.041-37.631 5.87-9.857 13.407-18.142 15.347-30.437 2.367-15.004 0.093-29.683-3.386-44.257 0.854 0.92 1.617 1.881 2.154 2.935 16.971 33.246-4.498 66.848-19.382 95.567m5.7-35.309c2.143-6.059 4.723-11.982 6.009-18.285 1.6-7.846 1.027-15.979 0.154-23.881-1.677-15.173-3.117-29.93-3.074-45.017 0.342 1.897 0.67 3.827 1.012 5.47 0.659 3.17-0.201 8.051 1.016 11.054 0.339 0.838 0.862 1.612 1.461 2.362 1.525 10.969 4.102 21.801 4.57 32.893 0.311 7.367-0.289 14.946-2.772 21.937-1.852 5.216-5.023 9.365-8.376 13.467m-12.889-19.282c-2.363 7.927-5.552 15.625-7.801 23.598 0.654-18.064 3.523-36.12 2.423-54.112-0.98-16.033-4.206-31.811-5.05-47.786 1.169-1.591 2.655-2.871 4.572-3.669 0 11.385 2.664 22.002 4.06 32.908 1e-3 0.04-0.012 0.072-8e-3 0.114 0.151 1.548 0.327 3.083 0.514 4.612 0.2 2.321 0.329 4.66 0.329 7.03 0.081-0.88 0.142-1.892 0.198-2.958 1.335 9.96 2.889 19.689 2.075 30.008-0.272 3.45-0.73 6.866-1.312 10.255" style="fill:#a46c35"/></g></g><g clip-path="url(#clipPath244269)" style="opacity:.60001"><g transform="translate(405.23 1804.1)"><path d="m0 0c-0.253 0.27-0.778 1.03-1.19 1.011-4e-3 -0.458 0.07-0.906 0.224-1.344 0.261-1.466 0.321-2.943 0.178-4.431-0.249-3.238-0.86-6.468-1.493-9.647-0.467-2.347-1.144-4.326-1.878-6.574-0.053-0.165-1.129-3.188-0.909-3.45 1.06 1.396 1.934 2.922 2.952 4.349 1.094 1.535 2.216 3.048 3.346 4.556 0.652 0.872 1.431 1.671 1.956 2.625 0.363 0.658 0.497 1.177 0.661 0.78-1e-3 2.742-0.429 5.171-1.355 7.801-0.57 1.618-1.305 3.057-2.492 4.324m160.81-105.5c-4.335 0.552-9.133 0.567-13.359-0.685-1.648-0.488-3.034-1.382-4.712-1.85 1.901 0.112 3.014-1.108 3.329-2.936 0.33-1.91-1.011-4.466-2.732-5.554-2.77-1.752-4.964 0.595-7.717 0.212-1.615-0.224-7.117-3.237-7.152-5.235 2.102-1.111 5.903-1.339 8.172-1.494 3.429-0.234 6.613-0.59 9.872 0.886 5.167 2.341 1.492 8.594 5.554 11.399 3.031 2.092 8.18 1.783 11.344-6e-3 4.339-2.454 0.094-5.744-1.87-8.27 1.607 0.956 3.443 1.272 4.87 2.668 0.977 0.957 2.124 3.785 2.57 4.749 2.059 4.445-5.584 5.786-8.169 6.116" style="fill:#7d5329"/></g></g><g clip-path="url(#clipPath244285)" style="opacity:.2"><g transform="translate(568.98 1711.2)"><path d="m0 0c-6.761-1.421-13.352-4.993-18.311-9.723 8.884 3.705 19.609 6.576 25.194-1.558 1.788-2.605 2.077-5.217 1.461-7.773 1.815 4.038 2.698 8.326 2.3 11.998-2.444 3.386-6.559 4.977-10.644 7.056m-156.5 102.44c0.308 0.122 0.608 0.255 0.927 0.357-2.585 1.552-5.211 1.942-8.65 0.481-6.715-2.853-7.137-8.279-8.926-14.543-0.558-1.952-0.876-3.879-1.05-5.79 3.539 9.205 8.703 17.293 17.699 19.495m55.457 11.81c2.217 4.962 3.536 10.219 5.513 15.267 3.479 8.882 9.652 15.963 16.871 22.056-10.181-2.198-27.099-6.109-34.289-10.863-14.565-9.629-25.735-29.406-36.052-43.593-0.061 0.06-0.119 0.117-0.179 0.177-5.46-11.552-13.74-21.326-19.814-32.546-3.179-5.873-5.826-11.994-7.97-18.283-0.603-4.042-1.146-8.016-1.516-10.571-0.606-4.183-0.61-10.855-0.536-16.847v1e-3c0-0.018 1e-3 -0.035 1e-3 -0.052 0.012-0.946 0.025-1.878 0.039-2.777v-1e-3c0.034-2.261 0.067-4.344 0.067-6.026 0-12.244-3.6-12.386-7.908-23.742-8.39-22.121-18.26-43.772-24.285-66.667-0.231-0.88-0.51-1.703-0.814-2.496-0.36-2.853-0.773-5.697-1.289-8.527-0.673-12.154-0.292-24.369 0.321-36.553 12.974 36.521 25.09 73.487 44.892 106.94 0.814-1.361 1.663-2.7 2.591-3.986 3.46-4.793 10.528-13.298 18.041-18.003 0.242-0.031 0.489-0.087 0.744-0.199 3.168-1.389 6.958-3.383 10.606-3.033 0.532 0.081 1.059 0.196 1.577 0.364-7.293 6.882-15.028 11.955-19.825 21.624-5.055 10.193-7.457 21.879-7.685 33.208-0.494 24.5 9.31 47.322 23.67 66.74 6.266 8.473 13.284 16.786 22.006 22.829 6.597 4.572 11.745 7.772 15.223 15.558m349.95-691.58c-1.327 7.377-3.154 14.658-5.36 21.82-9.028 29.303-23.629 57.705-39.598 83.805-16.296 26.636-34.943 51.749-52.578 77.494-15.465 22.579-31.769 44.789-42.727 69.973-1.506-5.74-2.5-11.552-2.294-17.406 7.683-15.324 11.288-32.699 20.342-47.517 13.017-21.304 28.391-38.14 44.151-57.418 13.01-15.913 24.2-33.613 36.115-50.368 11.181-15.724 17.372-35.258 25.178-52.821 6.2-13.949 13.779-33.229 6.808-47.326-4.789-9.686-12.985-19.202-15.402-29.674-2.87-12.433 2.478-22.218 6.597-33.751 3.255-9.116 5.982-17.787 5.968-27.449 0.481 1.933 0.881 3.896 1.185 5.896 2.507 16.488-3.911 32.524-1.501 48.837 0.958 6.482 3.331 12.527 6.387 18.294 3.023 5.704 7.543 10.937 8.626 17.436 1.089 6.531-0.746 13.779-1.897 20.175m-495.17 451.6c3.463-6.156 10.691-12.964 17.801-12.929-5.077 5.846-9.849 12.182-17.801 12.929m46.164-13.827c9.778 5.409 27.771 1.753 33.216 11.469-12.15 3.466-27.231 0.152-33.216-11.469m109.09 32.826c-10.877 6.329-18.421-2.706-21.903-12.225-0.676-7.087 1.788-15.73 4.428-21.229 4.51-9.396 12.086-17.045 19.955-23.704 5.976-5.057 11.978-10.167 18.118-15.027 6.116-4.841 13.501-10.849 21.444-12.689-7.062 20.417-21.347 37.295-27.701 58.166-2.701 8.872-5.667 21.661-14.341 26.708m-158.46 2.969c-0.032 2.04-0.151 4.052-0.385 6.097-8.08-0.124-16.051-0.153-22.445-1.756-8.54-2.14-19.844-5.249-25.597-11.397-10.216-10.919-11.559-26.922-9.327-40.777 5.357-33.249 19.004-61.517 33.112-91.496 2.233-4.746 5.903-18.117 10.435-20.376 2.065-1.029 5.875-0.956 9.743-0.609 2.556 14.645-7.51 31.919-13.541 44.175-7.702 15.653-14.78 31.929-20.005 48.59-5.308 16.925-7.861 37.014 2.986 52.418 8.084 11.479 21.463 16.403 35.024 15.131" style="fill:#fff"/></g></g><g transform="translate(801.79 1002.3)"><path d="m0 0c-0.105-0.125-0.221-0.201-0.337-0.269-1.472-5.445-3.019-10.891-3.852-16.308 2.13 0.871 4.058 1.747 5.812 2.646 1.25 2.051 2.408 4.225 3.057 6.533 0.326 1.158 0.645 2.484 0.553 3.698-0.114 1.512-2.022 7.551-5.233 3.7m79.254-37.974c-0.764-2.51-1.005-5.078-0.951-7.664 1.366 2.407 3.938 4.401 5.988 6.637-1.258 1.635-3.366 2.059-5.037 1.027m-7.936-20.807c-0.047-0.641-0.421-1.072-0.956-1.199-0.257-0.882-0.954-1.651-2.1-1.769-1.184-0.123-2.006-0.605-2.588-1.311 0.182-3.948 1.426-7.63 2.992-11.238 0.023-0.016 0.043-0.036 0.067-0.052 5.058-3.49 3.88-0.93 5.733 5.245 0.763 2.542 1.369 6.507 1.992 9.838-0.087 0.155-0.153 0.323-0.251 0.471-1.183 1.795-4.647 3.298-4.889 0.015m-21.892-14.774c1.161-1.553 2.624-2.809 4.51-3.594 0 4.848 0.484 9.557 1.148 14.208-0.092 0.013-0.179 0.017-0.274 0.041-7.609 1.904-6.607-5.391-5.384-10.655" style="fill:#a20055"/></g><g transform="translate(521.28 1868)"><path d="m0 0c0.086 0.094 0.173 0.187 0.259 0.281-2.038 4.979-6.616 11.545-12.009 13.304-5.961 1.944-12.751 1.35-18.834 0.33-6.19-1.039-12.341-2.89-18.505-4.141-5.675-1.151-11.376-2.341-17.004-3.7-10.272-2.481-19.819-6.213-25.019-16.147-1.85-3.533-2.944-7.146-3.712-11.056-0.971-4.937-0.908-10.065-1.974-14.974-2.156-9.925-7.765-16.962-13.027-25.495-3.163-5.129-5.829-11.734-11.081-14.985-1.61-0.996 6.512 4.079 12.151 8.642 4.541 3.675 8.446 9.43 12.084 13.934 2.753 3.407 4.913 7.165 7.299 10.827 3.604 5.531 7.525 11.262 11.816 16.303 3.222 3.783 18.168 13.866 22.352 14.805 5.162 1.158 10.154 2.293 15.418 2.94 6.806 0.837 13.642 1.486 20.472 2.092 3.171 0.278 6.342 0.566 9.511 0.864 2.965 0.106 5.791 0.768 8.479 1.988 1.647 0.951 3.172 2.341 3.36 4.322 0.356 3.741-4.22 4.575-2.036-0.134" style="fill:#703500"/></g><g clip-path="url(#clipPath244309)" style="opacity:.3"><g transform="translate(520.69 1870.1)"><path d="m0 0c-0.494 0.991-1.07 2.01-1.717 3.016-11.643-4.601-23.762-6.362-36.257-6.792-7.937-0.274-16.057 0.152-24.053-0.342-2.65-0.873-5.226-1.916-7.676-3.234-11.385-6.124-16.159-18.485-20.75-29.836-5.711-14.12-13.023-25.095-23.203-34.181-1.774-2.868-3.802-5.528-6.543-7.266 1.437 0.936 7.522 4.904 12.032 8.554 4.541 3.674 8.445 9.429 12.084 13.933 2.753 3.407 4.912 7.166 7.298 10.827 3.604 5.531 7.525 11.262 11.817 16.303 3.221 3.784 18.167 13.866 22.351 14.805 5.163 1.159 10.155 2.294 15.418 2.941 6.807 0.836 13.643 1.485 20.473 2.091 3.171 0.278 6.341 0.566 9.51 0.864 2.966 0.106 5.792 0.769 8.479 1.988 1.647 0.951 3.173 2.341 3.361 4.322 0.286 3.009-2.613 4.131-2.624 2.007" style="fill:#260c23"/></g></g><g transform="translate(508.43 1884.5)"><path d="m0 0c-0.283-5.091 3.363-12.024 5.53-16.248 3.962-7.722 9.709-14.621 14.973-21.452 10.087-13.088 22.069-25.149 27.33-41.164 2.534-7.715 4.115-15.973 5.482-23.968 0.959-5.607 1.315-11.105 1.206-16.803-0.196-10.375-0.557-22.643-7.115-31.297-6.061-7.999-16.822-11.291-26.149-13.167-4.994-1.005-19.445-8.044-22.348-9.931-2.31-2.24-3.606-4.974-3.888-8.203-2.185-11.349 3.364-22.891-0.588-34.09-3.293-9.331-9.757-16.193-18.875-20.023 5.994 1.408 12.315 4.807 17.144 8.482 7.852 5.977 13.961 15.49 14.645 25.476 0.423 6.184-0.472 12.647 3.098 18.198 3.34 5.196 8.701 7.095 14.435 8.506 2.697 0.664 5.417 1.308 8.19 1.569 3.649 0.343 16.851-0.255 19.612 0.341 4.76 1.027 8.84 4.56 12.174 7.887 9.453 9.433 13.944 21.415 16.029 34.393 1.952 12.148 2.128 23.934-2.224 35.565 1.91-5.567 10.375-31.909 10.502-39.187 0.122-7.07-1.862-12.801-5.982-18.44-3.164-4.33-5.358-7.353-4.82-13.002 0.555-5.829 3.104-11.34 4.645-16.943 2.594-9.436 3.462-21.296-0.501-30.52-2.92-6.8-7.39-12.018-12.888-16.915-2.374-2.091-4.78-4.146-7.216-6.165-0.716-0.727-1.54-1.076-2.472-1.046 1.972 0.487 3.599 1.144 5.452 2.11 4.283 2.234 9.245 4.735 13.262 7.36 9.213 6.018 17.475 15.833 20.751 26.441 3.607 11.68-0.972 23.932 3.304 35.538 1.955 5.304 6.24 9.961 9.711 14.264 4.256 5.275 8.14 10.493 9.923 17.181 1.383 5.19 2.05 10.378 1.514 15.739-0.706 7.068-2.942 13.748-5.45 20.362-5.063 13.352-10.165 26.689-15.581 39.902-3.252 7.937-6.328 15.993-9.782 23.844-3.152 7.167-6.792 14.025-10.386 20.976-3.659 7.078-7.359 14.14-13.487 19.412-2.055 1.768-4.189 3.445-6.561 4.773-2.884 1.614-21.869 4.994-28.326 4.963-8.804-0.042-16.607-1.11-24.484-5.084-2.994-1.511-5.863-2.922-8.522-4.982-1.357-1.051-1.644-7.09-1.364-7.571 0.232-0.595 2.886-7.333 4.38-9.93" style="fill:#703500"/></g><g clip-path="url(#clipPath244329)" style="opacity:.3"><g transform="translate(632.28 1765)"><path d="m0 0c-0.706 7.068-2.942 13.748-5.45 20.362-5.063 13.352-10.165 26.689-15.581 39.902-3.253 7.937-6.329 15.993-9.782 23.844-1.106 2.515-2.285 4.984-3.488 7.439 5.054-14.766 7.287-30.807 10.344-45.721 2.586-12.612 7.75-24.792 9.808-37.427 1.594-9.779-0.331-18.959-4.298-27.928-2.347-5.305-5.569-10.15-8.005-15.391-2.875-6.188-3.62-12.861-4.037-19.601-0.737-11.89-1.175-23.063-6.161-34.092-0.795-1.759-2.129-2.589-3.56-2.742-0.324-1.077-0.693-2.133-1.131-3.152-2.921-6.8-7.391-12.018-12.889-16.914-2.374-2.092-4.779-4.147-7.216-6.165-0.178-0.182-0.363-0.339-0.555-0.473 1.187 0.407 2.315 0.9 3.535 1.536 4.283 2.234 9.245 4.736 13.263 7.36 9.212 6.018 17.475 15.833 20.751 26.441 3.607 11.68-0.973 23.932 3.304 35.538 1.955 5.305 6.239 9.961 9.71 14.264 4.256 5.276 8.14 10.493 9.923 17.181 1.384 5.19 2.051 10.378 1.515 15.739m-42.961-11.98c1.266 7.879 1.775 15.605 0.796 23.236-1.127 3.48-2.365 6.9-3.677 10.215-3.107 7.847-6.849 15.642-11.302 22.982 5.55-21.638 10.601-44.366 2.949-64.977-5.81-15.647-18.834-22.065-34.44-24.889-9.827-1.779-20.825-2.933-29.152-8.955-8.149-5.893-8.599-14.536-10.963-22.815 0.735-6.588 1.617-13.164-0.663-19.626-3.294-9.33-9.758-16.193-18.875-20.023 5.994 1.408 12.315 4.807 17.143 8.482 7.852 5.977 13.961 15.49 14.645 25.476 0.424 6.184-0.471 12.647 3.098 18.198 3.341 5.196 8.702 7.095 14.435 8.506 2.697 0.664 5.417 1.308 8.19 1.569 3.65 0.343 16.852-0.255 19.613 0.341 4.76 1.028 8.84 4.56 12.174 7.887 9.453 9.434 13.943 21.415 16.029 34.393" style="fill:#260c23"/></g></g><g clip-path="url(#clipPath244345)" style="opacity:.2"><g transform="translate(709.5 1748.1)"><path d="m0 0c-1.791 2.927-3.044 6.079-3.758 9.455l3.806-9.513c-0.017 0.019-0.031 0.039-0.048 0.058m4.015-14.574c-0.403 2.326-0.615 4.817-1.046 7.213l0.615-1.539 0.012-0.696c0.254 2.186-0.228 4.234-0.897 6.362-2.706 8.606-7.58 16.322-12.604 23.724-6.673 9.832-14.164 19.061-21.46 28.438-3.519 4.524-7.339 8.916-10.399 13.763 5.13-7.183 8.822-15.599 13.227-23.256 4.749-8.255 10.697-16.542 13.284-25.786-8.802 10-18.105 19.993-25.515 31.044-3.475 5.183-6.553 10.478-9.311 16.078-0.162 0.33-2.22 5.552-3.103 5.167 2.594-17.806 12.469-33.983 21.489-49.21 2.944-4.968 6.809-10.751 7.628-16.59 0.301-2.154 1.266-6.609-0.688-8.124-5.161 4.027-9.068 10.81-13.31 15.46-6.301 6.91-12.925 13.633-20.876 18.632 2.915-5.284 6.931-10.043 10.152-15.175 7.993-12.735 11.941-25.52 12.096-40.544 0.166-16.052-2.555-34.948-12.01-48.563 2.855 2.125 4.378 6.249 5.961 9.302 4.018 7.746 7.66 15.913 10.571 24.136 1.527 4.314 2.873 8.647 4.026 13.073 0.511 1.963 0.925 6.125 2.143 8.133 1.741-7.628 1.591-16.17-0.31-23.766 4.124 7.459 7.052 15.127 8.964 23.458 0.955 3.964 1.614 7.975 1.974 12.033-0.061 1.4 0.173 2.731 0.701 3.994 1.978-2.372 2.941-5.58 4.142-8.383 3.018-7.045 5.769-14.486 6.811-22.114 1.581-11.583 1.15-23.351-0.218-34.929 4.421 11.955 7.993 26.828 6.508 39.639 3.147-6.378 3.137-15.918 2.822-22.884 1.224 14.25 1.072 27.762-1.379 41.91m-358.84 57.493c-4.106-0.562-8.281-2.315-12.403-2.361 0.262 4.678 7.592 8.922 10.797 11.226 2.687 2.108 5.563 3.911 8.626 5.408 1.293 0.335 2.462 0.9 3.508 1.695-2.587 0.604-5.777 0.2-8.327-0.297-2.387-0.465-5.687-1.994-8.084-1.341 1.92 2.446 5.657 3.432 8.563 3.98 1.046 0.248 2.107 0.38 3.184 0.396 0.053 0.063 0.103 0.126 0.155 0.188-2.813-0.148-6.12-1.238-8.467-1.688-9.396-1.8-18.809-4.532-27.028-9.523-15.381-9.342-23.137-30.025-22.45-47.546 0.419 3.869 0.699 8.178 2.24 11.774 1.461 3.407 3.751 6.261 5.468 9.509-4.192-10.482-1.035-22.27 2.116-32.714-0.647 3.165-0.672 6.742-0.641 10.045 0.442-3.613 1.902-7.572 2.877-10.078 1.492-3.838 3.781-11.882 7.2-14.155-1.871 10.944-6.398 22.954-2.814 34.021 2.794 8.63 7.97 17.019 15.83 21.883-1.286-2.319-2.721-4.68-3.7-7.141-2.564-6.446-1.605-11.769 1.52-17.888 3.066-6.003 6.824-11.536 10.709-17.04 1.647-2.333 3.386-5.367 5.446-7.429-4.058 7.418-8.488 14.949-8.496 23.689-8e-3 8.705 3.995 15.755 9.517 22.156 2.986 3.462 6.128 6.808 10.099 9.165 2.868 1.701 7.302 1.374 9.674 3.683-3.642 2.581-10.983 0.949-15.119 0.383m7.82 18.849c0.576 3.781-0.302 1.862-1.801 0.045 0.628 0.033 1.239 0.035 1.801-0.045m-49.922-70.143c0.246-1.2 0.563-2.353 1.027-3.389-0.335 1.11-0.681 2.244-1.027 3.389m318.38 142.21c-8.69 12.54-24.353 19.722-38.99 22.791 3.714-1.552 24.702-15.326 21.43-18.79-10.065 5.49-18.897 13.417-30.653 15.017 5.673-2.671 11.052-7.844 14.626-12.926-1.587-0.104-8.372 5.157-8.726 5.365-3.946 2.32-8.524 5.141-13.21 5.645-2.376 0.256-5.426 0.096-7.752 1.128 2.172-1.12 3.194-0.973 4.066-1.276 1.93 0.245 2.577-0.721 4.486-1.958 5.948-3.854 10.015-7.697 14.501-13.332 10.397-13.059 20.848-27.497 26.062-43.521 0.779 2.947-1.321 10.061-1.816 11.964-1.109 4.262-3.509 8.902-3.858 13.24 10.882-7.488 18.941-20.793 24.169-32.647-0.747 6.087-2.598 12.085-4.348 17.943-1.555 5.206-4.241 10.827-4.337 16.318 4.071-3.534 7.653-9.235 10.262-13.717 2.348-4.036 5.051-8.339 5.794-13.02-1.166 7.658-2.93 15.187-4.638 22.738-1.569 6.933-2.971 13.124-7.068 19.038m-134.15-8.384c-8.272 0.521-17.061 0.941-24.572 4.873 0.036 1.696 6.074 2.147 7.494 2.449 3.933 0.836 0.942 0.082-1.84 0.461-3.891 0.531-7.683 1.872-11.388 3.13-2.065 0.701-4.241 1.272-6.1 2.445 2.647 0.194 5.327 0.016 7.983 0.079 2.119 0.05 5.664-0.599 7.216 1.082-1.845 0.786-18.07 7.437-16.068 9.963 8.068-0.155 16.33-2.52 23.997-4.915-2.433 1.978-6.007 3.494-8.69 4.799-3.534 1.72-7.104 3.498-10.774 4.912-7.439 2.866-14.863 4.155-22.773 3.435-9.311-0.848-18.199-1.969-25.862-7.707-3.218-2.41-6.029-5.158-8.597-8.252-1.435-1.729-3.895-3.819-3.66-6.273 2.714 1.396 5.171 3.242 7.796 4.806 4.207 2.507 8.555 4.557 13.219 6.052 7.583 2.43 15.684 2.317 23.122-0.573 0.38-1.404-3.218-3.045-4.228-3.747-2.541-1.766-5.39-3.589-7.247-6.102 2.812-1.017 5.959-0.563 8.929-0.703-0.309 0.014 5.513 0.031 5.752-1.009-4.866-2.059-10.062-3.356-14.998-5.285-3.259-1.191-6.435-2.578-9.528-4.16-1.979-0.293-3.175-1.212-3.587-2.756 3.934 1.715 7.775 3.237 11.95 4.248 4.969 1.203 10.24 1.596 15.323 2.114 4.642 0.473 9.269 0.839 13.935 0.905 1.322 0.018 5.158 0.403 6.842-0.127-4.726-1.138-9.415-1.857-13.986-3.615-2.449-0.895-4.853-1.899-7.213-3.011-1.353-0.278-2.454-0.913-3.302-1.905 4.018 0.617 7.858 2.173 11.928 2.775 3.418 0.506 6.849 0.916 10.261 1.457-2.91-0.549-5.682-1.84-8.384-2.98-3.409-1.439-7.764-2.495-10.675-4.801 4.357 1.259 8.53 2.95 12.998 3.832 5.188 1.024 10.454 1.353 15.728 1.63 6.172 0.323 12.44 0.198 18.592 0.735 1.279 0.112 2.808 0.516 4.143 0.477 0.757 0.292 1.767 0.711 2.825 1.252-2.133-0.186-4.438-0.124-6.561 0.01m4.277-1.277c-0.172 0.024-0.361 0.01-0.541 0.015-1.583-0.61-2.05-0.652 0.541-0.015m95.245-38.849c-2.855 7.607-6.377 15.291-9.898 22.62-2.945 6.131-5.81 12.685-10.065 18.031-6.308 7.926-14.328 15.12-24.57 16.838-6.167 1.035-11.076-0.757-17.037-1.775-4.654-0.794-8.922-0.334-13.58-0.332-1.344 1e-3 -3.122 0.397-3.603-1.206-0.247-0.824 0.24-1.989 0.523-2.795-0.254-1.083 0.793-3.042 1.106-3.816 1.58-3.901 3.753-7.521 5.994-11.074 6.577-10.423 13.642-20.569 19.631-31.35 6.746-12.144 12.44-24.995 17.413-37.956 2.1-5.475 3.934-11.029 5.56-16.661 0.788-2.73 1.59-8.697 3.053-11.774-0.621 6.091-1.204 12.144-2.263 18.181-1.891 10.783-4.925 21.534-8.513 31.864-4.47 12.869-9.722 25.054-18.224 35.817 11.742-8.399 20.599-21.668 27.347-34.152 1.124 0.96 1.024 2.248-0.3 3.864-1.137 3.413-2.534 6.713-4.19 9.901-2.748 5.706-6.357 10.815-9.407 16.331 3.324-2.055 7.889-7.518 10.026-9.786 7.445-7.9 14.051-16.734 19.311-26.246 8.01-14.487 13.778-30.212 16.025-46.662-1.111 8.84-2.042 17.613-3.865 26.349-2.215 10.604-5.636 20.568-9.353 30.71 6.362-6.554 10.248-15.401 13.491-23.814 2.837-7.363 4.449-14.736 5.569-22.529-0.778 7.428-1.96 14.826-3.142 22.2-1.597 9.963-3.484 19.753-7.039 29.222" style="fill:#fff"/></g></g><g transform="translate(534.88 1472.2)"><path d="m0 0c2.471-17.543 7.955-36.18 12.78-53.224 4.99-17.625 11.839-37.907 24.984-50.977 6.429-6.392 13.384-12.252 19.895-18.562 6.08-5.892 10.565-6.808 6.751-13.393-3.942-6.807-13.602-7.825-20.355-8.967-9.791-1.654-19.385-3.852-28.807-7.046-19.019-6.447-34.279-15.819-48.293-29.962-12.828-12.947-28.824-26.197-46.177-32.181-19.747-6.809-36.747-4.733-56.124 1.855-10.637 3.616-21.007 7.405-31.929 10.091-5.198 1.279-11 3.525-16.293 3.813-1.14 0.062-7.349-1.469-8.069-0.735-0.758 8.517 2.85 18.614 2.734 27.548-0.131 10.039-0.911 19.848-2.183 29.797-1.462 11.434-1.503 30.836-12.342 37.379-7.086 4.276-17.777 4.712-25.521 8.674-6.82 3.489-13.145 7.309-18.642 12.698-11.714 11.488-21.681 25.63-24.623 41.947-6.931 38.442 17.681 76.888 33.17 110.24 7.924 17.06 15.159 34.909 18.593 53.489 1.057 5.717-0.416 16.767 4.329 20.457 1.118 0.87 12.968 0.593 13.006 1.542 0.629-3.067-3.208-10.118-3.96-13.22-1.957-8.068-2.988-16.124-3.946-24.358-1.539-13.215-3.664-27.34-2.601-40.656 2.614-32.742 42.921-32.458 67.87-27.794 12.979 2.427 26.353 4.854 33.097 17.402 6.528 12.15 7.586 28.05 9.631 41.463 1.76 11.549 5.424 36.321 10.499 46.934 2.402 5.021 15.029 13.106 21.338 14.684 2.837-2.928-4.398-24.852-4.286-29.971 0.171-7.867 1.078-15.81 1.676-23.655 1.511-19.814 4.014-39.663 9.036-58.926 4.009-15.378 8.301-29.178 22.026-38.548 12.804-8.741 27.655-12.466 42.736-7.836" style="fill:#cbd000"/></g><g clip-path="url(#clipPath244365)" style="opacity:.2"><g transform="translate(509.37 1311.5)"><path d="m0 0c0.804-3.3 1.716-7.345 2.48-12.28 11.304 9.227 23.682 15.908 38.277 20.856 9.422 3.194 19.016 5.391 28.807 7.046 6.753 1.141 16.413 2.159 20.355 8.967 3.814 6.584-0.671 7.5-6.751 13.393-6.511 6.31-13.466 12.169-19.895 18.562-13.145 13.07-19.994 33.351-24.984 50.977-4.825 17.043-10.309 35.68-12.78 53.223-15.081-4.629-29.932-0.905-42.736 7.837-9.316 6.36-14.281 14.764-17.767 24.314 1.081-22.129-0.621-44.346-10.676-64.579-19.781-39.802-73.336-50.647-113.12-30.963-9.076-4.982-39.862-20.191-73.212 3.797-6.013 4.325-10.453 9.978-14.205 15.973 3.441-15.315 12.987-28.645 24.128-39.57 5.496-5.39 11.822-9.209 18.642-12.699 5.946-3.041 13.617-4.018 20.071-6.237 5.45-2.437 3.292-2.97 12.187-1.646 0.155 0.145 15.581 6.717 15.754 6.846 7.622 5.7 17.364 4.278 26.007 2.013 11.011-2.887 20.644-5.788 32.228-5.707 13.266 0.092 25.578 2.747 37.726 7.967 5.331 2.291 10.868 5.325 16.872 4.285 9.088-1.575 15.127-11.324 19.848-18.367 2.349-3.504 4.501-7.138 6.642-10.772 1.968-3.34 3.92-6.707 5.546-10.23 2.543-5.509 4.008-11.384 2.456-17.391-2.032-7.867-7.703-14.488-12.85-20.53-5.981-7.023-12.079-13.422-19.615-18.829-4.605-3.303-9.509-6.184-14.635-8.6-2.75-1.426-21.166-9.999-25.58-9.061 4.283-4.566 20.476 4.487 28.603 6.906 6.063 1.446 11.184 4.629 16.717 7.519 9.356 3.453 17.881 8.424 25.574 14.914 3.697 3.822 7.394 7.643 11.091 11.465" style="fill:#260c23"/></g></g><g clip-path="url(#clipPath244381)" style="opacity:.3"><g transform="translate(439.66 1565.8)"><path d="m0 0c-0.935-11.357-1.265-22.712-5.207-33.542-6.472-17.782-20.619-29.252-38.938-33.316-10.233-2.269-20.532-2.152-30.945-2.049-9.182 0.092-18.371-0.344-27.523 0.642-14.835 1.599-29.481 7.81-29.734 24.793-0.366 24.501 13.852 49.119 9.346 73.36-1.416-9.658-1.67-19.46-3.585-29.055-1.992-9.981-5.807-19.67-9.998-28.918-7.338-16.191-17.138-31.131-24.087-47.504-5.958-14.037-12.614-33.466-3.702-47.678 10.794-17.215 28.413-8.697 41.744-0.338 10.214 6.404 18.265 13.599 30.692 14.157 14.457 0.648 35.551-13.2 38.18-13.896 14.396-3.808 36.455-0.581 50.424 6.931 16.024 8.619 19.196 27.552 18.766 44.081-0.404 15.58-3.498 30.937-4.053 46.509-0.709 19.907-2.45 39.781-1.94 59.704-7.667-8.792-8.536-22.908-9.44-33.881" style="fill:#fff"/></g></g><g transform="translate(444.37 1732.3)"><path d="m0 0c-1.918 2.788-4.818 4.146-7.96 5.082-5.789 1.724-14.771 5.184-18.558 10.254 2.724-7.921 1.634-16.935 3.938-24.908 2.262-7.826 9.564-13.353 16.305-17.022 7.884-4.291 14.367-4.573 23.216-3.332 1.399 0.196 19.881-0.084 19.823 0.697-3.945 1.36-5.595 2.459-8.014 4.493-3.061 2.575-5.285 5.896-7.806 8.967-2.306 2.808-4.758 5.845-7.837 7.839-3.022 1.957-8.414 1.343-8.457 1.383-1.195-0.071-3.366 4.681-4.65 6.547" style="fill:#752a00"/></g><g transform="translate(425.59 1732)"><path d="m0 0c2.842-4.479 7.076-8.661 11.019-12.184 3.525-3.149 7.775-6.175 12.168-7.969 5.456-2.228 16.448-3.123 22.476-5.617-4.508 1.922-13.062 9.041-16.924 11.778-3.51 2.487-9.089 1.204-12.479 3.921-3.459 2.773-3.483 6.563-6.81 9.554-3.579 3.218-13.445 8.993-14.211 10.546-0.215 0.435 3.612-8.219 4.761-10.029" style="fill:#fff"/></g><g transform="translate(447.4 1757.6)"><path d="m0 0c-1.381-0.271 2.74-5.423 4.005-5.84 2.028-0.67 3.56-0.169 5.537-1.403 1.619-1.011 2.759-2.522 4.235-3.7 3.708-2.958 7.488-5.346 10.899-8.776 1.176-1.182 1.641-2.727 3.696-2.325 2.309 0.451 1.898 1.778 0.823 3.481-1.907 3.019-4.084 3.756-5.038 7.407-1.181 4.527-2.099 7.174-6.654 9.119-4.11 1.756-7.737 0.157-11.831 0.885-1.2 0.213-2.467 1.394-3.722 1.37-0.607-0.011-0.975 0.298-1.95-0.218 0.078 0.041 1.31-0.765 0 0" style="fill:#a36a32"/></g><g clip-path="url(#clipPath244409)" style="opacity:.2"><g transform="translate(481.91 1784.5)"><path d="m0 0c-0.317-1.627-1.632-3.512-2.449-4.99-0.974-1.763-2.134-3.386-3.353-4.985-1.905-2.497-4.308-6.824-7.639-7.117-2.063-0.181-3.249-0.637-5.119-1.565-1.745-0.867-3.221-0.755-5.159-0.534-1.928 0.219-3.798 0.257-5.548-0.744-1.595-0.912-1.838-2.405-3.03-3.504 2.575 0.641 4.093 2.094 6.94 1.779 1.76-0.195 4.019-1.786 5.464-1.27 0.76 0.272 1.468 1.06 2.354 1.342 1.09 0.349 2.296 0.553 3.444 0.509 2.624-0.102 4.579-2.18 7.181-2.343-0.994 1.902-2.019 4.036-1.243 6.192 0.695 1.932 2.271 3.736 3.339 5.477 1.171 1.909 2.396 3.792 3.27 5.862 0.431 1.022 2.229 4.884 1.737 5.867-0.607-0.095-0.23-0.951-0.631-1.243 0.289 0.349 0.374 0.837 0.442 1.267-0.061-0.316-0.14-0.887 0 0" style="fill:#fff"/></g></g><g clip-path="url(#clipPath244425)" style="opacity:.2"><g transform="translate(473.78 1761.5)"><path d="m0 0c0.053 0.218-0.062 0.343-0.152 0.525-0.343 0.698-0.856 1.33-1.385 1.896-1.502 1.607-3.684 2.12-5.821 2.016-1.88-0.091-3.556-0.414-5.108-1.528-0.579-0.416-1.491-1.298-1.3-2.123 0.743-0.185 1.701 0.044 2.425 0.219 1.607 0.386 3.357 0.765 5.001 0.9 1.585 0.129 3.028-0.35 4.482-0.945 1.079-0.442 2.17-0.838 1.858-0.96" style="fill:#fff"/></g></g><g clip-path="url(#clipPath244441)" style="opacity:.3"><g transform="translate(446.71 1820.9)"><path d="m0 0c6.293 1.079 10.402 3.752 16.998 1.137 4.572-1.813 8.438-5.024 11.279-9.005 2.783-3.9 5.182-7.685 5.785-12.478 0.385-3.059-0.129-16.381-4.067-17.524-3.983-1.156-9.953 8.339-12.704 10.684-4.344 3.702-8.223 7.77-12.813 11.207-3.088 2.312-7.321 4.706-7.181 9.098 0.058 1.847 1.136 4.355 2.239 5.807 0.404 0.532 0.782 1.165 1.135 1.751 0.061 0.101 1.344-0.24 1.152-0.389-0.585-0.208-1.193-0.304-1.823-0.288 0.41 0.07 2.903 0.189 0 0" style="fill:#730040"/></g></g><g clip-path="url(#clipPath244457)" style="opacity:.3"><g transform="translate(468.05 1819.8)"><path d="m0 0c-1.363 0.9-2.81 1.677-4.344 2.286-5.94 2.355-9.868 0.424-15.185-0.772-0.158 0.163-1.09 0.397-1.142 0.311-0.122-0.203-0.252-0.413-0.38-0.621-0.098-0.018-0.192-0.038-0.291-0.055 0.091-3e-3 0.178 0.015 0.267 0.017-0.234-0.379-0.475-0.755-0.731-1.091-1.103-1.452-2.181-3.96-2.239-5.808-0.029-0.89 0.159-1.681 0.445-2.423 7.309 4.151 15.329 7.564 23.6 8.156" style="fill:#732400"/></g></g><g transform="translate(439.41 1810.2)"><path d="m0 0c1.565-6.276 4.022-11.832 9.157-15.118 4.591-2.938 9.838-5.092 14.735-7.233 1.739-0.76 12.305-5.323 13.4-4.748 2.9 1.524 2.288 13.365 1.694 16.02-1.52 6.795-6.84 10.376-12.045 14.271-2.915 2.181-25.835 13.33-26.298 13.38 0.068-0.379-2.067-10.862-0.643-16.572"/></g><g transform="translate(443.19 1805.6)"><path d="m0 0c1.393-5.309 4.224-8.355 8.793-11.135 4.086-2.486 8.835-4.728 13.193-6.539 1.547-0.644 8.524-3.171 10.783-4.36 2.554-1.343 2.455 10.415 1.926 12.661-1.353 5.749-6.657 8.159-11.29 11.454-2.594 1.844-22.421 11.896-22.832 11.939 0.06-0.321-1.84-9.19-0.573-14.02" style="fill:#fff"/></g><g transform="translate(460.47 1809.9)"><path d="m0 0c-5.417 0-9.809-4.391-9.809-9.808 0-2.344 0.865-4.459 2.238-6.145 0.034-0.014 0.068-3e-3 0.102-0.024 1.229-0.762 2.504-1.432 3.766-2.133 2.5-1.241 2.077-0.956 3.049-1.459 0.215-0.026 0.432-0.048 0.654-0.048 5.417 0 9.809 4.391 9.809 9.809 0 5.417-4.392 9.808-9.809 9.808" style="fill:#663b00"/></g><g transform="translate(454.13 1800.1)"><path d="m0 0c0-3.503 2.84-6.343 6.343-6.343s6.343 2.84 6.343 6.343-2.84 6.343-6.343 6.343-6.343-2.84-6.343-6.343"/></g><g transform="translate(452.57 1803.2)"><path d="m0 0c0-1.752 1.42-3.172 3.172-3.172 1.751 0 3.171 1.42 3.171 3.172s-1.42 3.172-3.171 3.172c-1.752 0-3.172-1.42-3.172-3.172" style="fill:#fff"/></g><g transform="translate(476.62 1834.3)"><path d="m0 0c6.21-4.818 9.862-11.433 14.307-17.745 1.436 3.266-1.537 11.419-2.911 14.361-1.785 3.821-4.614 7.93-8.027 10.465-3.644 2.707-8.407 4.047-12.83 4.748-1.446 0.229-12.8 1.644-13.162-0.966-0.039-0.28 1.516-1.037 2.116-1.351-0.39 0.204 8.948-0.545 20.507-9.512" style="fill:#4a2300"/></g><g clip-path="url(#clipPath244497)" style="opacity:.3"><g transform="translate(547.88 1760.1)"><path d="m0 0c-2.149 6.012-1.839 10.904-7.355 15.366-3.824 3.094-8.519 4.885-13.383 5.405-4.763 0.51-9.238 0.741-13.711-1.086-2.854-1.167-14.207-8.155-13.269-12.148 0.948-4.037 12.151-4.576 15.545-5.821 5.357-1.967 10.806-3.349 16.054-5.661 3.53-1.555 7.693-4.066 11.451-1.789 1.581 0.959 3.237 3.129 3.96 4.803 0.265 0.613 0.631 1.253 0.968 1.848 0.058 0.103-0.868 1.053-0.904 0.813 0.106-0.613 0.321-1.189 0.644-1.73-0.14 0.392-1.261 2.622 0 0" style="fill:#730040"/></g></g><g clip-path="url(#clipPath244513)" style="opacity:.3"><g transform="translate(536.4 1778.2)"><path d="m0 0c1.453-0.746 2.841-1.624 4.124-2.662 4.968-4.018 5.215-8.388 6.783-13.608 0.22-0.057 0.881-0.754 0.832-0.842-0.117-0.206-0.236-0.422-0.355-0.636 0.033-0.094 0.061-0.186 0.095-0.281-0.047 0.078-0.074 0.162-0.116 0.242-0.215-0.391-0.424-0.785-0.592-1.173-0.723-1.674-2.379-3.844-3.96-4.802-0.762-0.462-1.543-0.686-2.329-0.802 0.027 8.406-0.936 17.068-4.482 24.564" style="fill:#732400"/></g></g><g transform="translate(542.08 1748.5)"><path d="m0 0c-6.236-1.718-12.283-2.305-17.666 0.555-4.813 2.557-9.267 6.07-13.536 9.285-1.516 1.142-10.678 8.107-10.715 9.343-0.096 3.275 10.52 8.555 13.124 9.341 6.666 2.012 12.398-0.864 18.347-3.487 3.33-1.468 24.296-15.962 24.567-16.34-0.363-0.127-8.448-7.134-14.121-8.697"/></g><g transform="translate(536.29 1749.6)"><path d="m0 0c-5.309-1.394-9.353-0.423-14.018 2.193-4.171 2.339-8.457 5.376-12.174 8.283-1.32 1.032-6.947 5.869-9.092 7.254-2.424 1.565 7.868 7.252 10.084 7.894 5.672 1.644 10.319-1.771 15.465-4.189 2.88-1.354 21.428-13.715 21.667-14.053-0.308-0.104-7.102-6.114-11.932-7.382" style="fill:#fff"/></g><g transform="translate(531.5 1766.7)"><path d="m0 0c2.66-4.719 0.99-10.701-3.729-13.361-2.042-1.15-4.309-1.435-6.452-1.067-0.028 0.023-0.036 0.058-0.071 0.077-1.267 0.696-2.476 1.479-3.707 2.234-2.309 1.568-1.852 1.34-2.768 1.939-0.129 0.175-0.254 0.353-0.363 0.547-2.66 4.719-0.99 10.701 3.729 13.36 4.719 2.66 10.701 0.99 13.361-3.729" style="fill:#663b00"/></g><g transform="translate(526.06 1756.4)"><path d="m0 0c-3.052-1.72-6.92-0.64-8.64 2.412s-0.641 6.92 2.411 8.64 6.921 0.64 8.641-2.412 0.64-6.92-2.412-8.64"/></g><g transform="translate(520.03 1762.3)"><path d="m0 0c-1.526-0.86-3.46-0.32-4.32 1.206s-0.32 3.46 1.206 4.32 3.46 0.32 4.32-1.206 0.32-3.46-1.206-4.32" style="fill:#fff"/></g><g transform="translate(543.03 1793.3)"><path d="m0 0c-7.243 3.052-14.799 2.993-22.479 3.775 2.143 2.852 10.706 4.256 13.944 4.5 4.206 0.317 9.173-0.135 13.056-1.868 4.146-1.849 7.649-5.345 10.427-8.857 0.908-1.148 7.706-10.352 5.608-11.946-0.225-0.171-1.646 0.813-2.214 1.182 0.369-0.239-4.861 7.533-18.342 13.214" style="fill:#4a2300"/></g><g transform="translate(532.29 1677.1)"><path d="m0 0c-0.91 0.036-0.958-1.206-0.202-1.493 13.426-5.098 16.487-20.404 13.357-32.952-3.232-12.957-11.816-20.909-24.655-24.019-10.931-2.647-25.007-0.427-32.135 8.893-6.773 8.855-7.787 26.793-1.188 36.281 0.417 0.289 0.769 0.712 0.993 1.282 0.012 0.031 0.024 0.062 0.036 0.093-0.658-0.267-1.329-0.491-1.976-0.717-1.166-0.509-2.399-0.904-3.634-1.195-0.173-0.061-0.346-0.116-0.52-0.172-0.362-0.131-0.772-0.281-1.206-0.393-4.712-11.588-2.978-28.171 4.026-37.555 8.707-11.669 26.355-13.4 39.349-9.38 14.899 4.61 23.637 16.15 25.302 31.72 1.18 11.041-3.711 29.055-17.547 29.607" style="fill:#d4d8d3"/></g><g transform="translate(532.29 1677.1)"><path d="m0 0c-0.136 5e-3 -0.246-0.024-0.344-0.068 12.769-1.268 17.668-16.842 16.396-27.773-1.553-13.341-10.503-26.941-23.286-31.787-11.956-4.532-28.306-2.976-37.408 6.764-7.666 8.204-7.843 21.618-3.565 31.76 0.734 2.913 1.844 5.599 3.384 7.814 0.417 0.289 0.769 0.712 0.993 1.282 0.012 0.031 0.024 0.062 0.036 0.093-0.658-0.267-1.329-0.491-1.976-0.717-1.166-0.509-2.399-0.904-3.634-1.195-0.173-0.061-0.346-0.116-0.52-0.172-0.362-0.131-0.772-0.281-1.206-0.393-4.712-11.588-2.978-28.171 4.026-37.555 8.707-11.669 26.355-13.4 39.349-9.38 14.899 4.61 23.637 16.15 25.302 31.72 1.18 11.041-3.711 29.055-17.547 29.607" style="fill:#8c959d"/></g><g transform="translate(383.48 1701)"><path d="m0 0c-12.095 1.494-21.486 8.343-25.457 20.589-8.192 25.259 10.288 53.091 37.924 51.464 0.371-0.022 0.702 0.218 0.895 0.514 0.087 0.134 0.174 0.268 0.261 0.401-0.033 0.123-0.086 0.23-0.093 0.371-0.013 0.277 0.094 0.085-0.08 0.244-0.13 0.119-0.202 0.14-0.463 0.288-0.242 0.137-0.489 0.275-0.725 0.428-0.936 8e-3 -3.625 0.795-4.262 0.823-4.239 0.186-8.488-1.023-12.427-2.435-7.45-2.672-14.222-7.011-19.196-13.247-9.81-12.301-10.568-30.932-4.396-45.001 4.764-10.857 15.151-17.216 26.233-18.995 0.569 1.527 1.178 3.041 1.786 4.556" style="fill:#d4d8d3"/></g><g transform="translate(395.12 1774.8)"><path d="m0 0c-0.033 0.084-7.791-1.068-12.291-1.922-11.291-4.757-20.055-11.886-25.419-22.43-3.374-11.88-4.869-25.97 2.175-36.732 3.958-6.048 10.892-9.229 14.233-15.187 2.537-0.97 5.183-1.677 7.872-2.109 0.57 1.527 1.179 3.041 1.786 4.556-12.095 1.494-21.485 8.343-25.457 20.589-8.191 25.259 10.289 53.091 37.925 51.464 0.371-0.022 0.702 0.217 0.894 0.513 0.047 0.072 0.093 0.144 0.14 0.215-0.723-0.093-1.52 0.188-1.858 1.043" style="fill:#8c959d"/></g></g></g></g></svg>
