<?xml version="1.0" encoding="UTF-8"?>
<svg width="281.3mm" height="737.92mm" version="1.1" viewBox="0 0 281.3 737.92" xmlns="http://www.w3.org/2000/svg"><defs><clipPath id="clipPath172524"><path d="m1382.8 2229.2h785.67v-2036.9h-785.67z"/></clipPath></defs><g transform="translate(35.57 251.88)"><rect transform="matrix(.9174 .39797 -.44205 .89699 0 0)" x="-24.55" y="-185.3" width="19.508" height="49.821" ry=".27159" style="fill-rule:evenodd;fill:#d1d3d4;stroke-width:.26474"/><rect transform="matrix(.98545 .16995 .016517 .99986 0 0)" x="60.458" y="-187.7" width="9.5394" height="33.324" ry=".18166" style="fill-rule:evenodd;fill:#d1d3d4;stroke-width:.26693"/><rect transform="matrix(.99095 .1342 .021033 .99978 0 0)" x="64.189" y="-209.23" width="17" height="46.895" ry=".25564" style="fill-rule:evenodd;fill:#d1d3d4;stroke-width:.2662"/><rect transform="matrix(.99992 .012592 .22066 .97535 0 0)" x="117.87" y="-222.59" width="125.7" height="33.351" ry=".18181" style="fill-rule:evenodd;fill:#d1d3d4;stroke-width:.2683"/><rect transform="matrix(.9989 .046861 -.19865 .98007 0 0)" x="13.652" y="114.88" width="31.18" height="30.639" ry=".16702" style="fill-rule:evenodd;fill:#e6e7e8;stroke-width:.26614"/><rect transform="matrix(.92682 -.37551 .21376 .97689 0 0)" x="-54.203" y="73.8" width="62.805" height="33.965" ry=".18515" style="fill-rule:evenodd;fill:#e6e7e8;stroke-width:.2665"/><rect transform="matrix(.86242 -.50619 .40673 .91355 0 0)" x="-75.244" y="89.458" width="19.564" height="69.903" ry=".38106" style="fill-rule:evenodd;fill:#e6e7e8;stroke-width:.26541"/><rect transform="matrix(.98138 .19205 -.17917 .98382 0 0)" x="-16.039" y="55.132" width="21.287" height="41.967" ry=".22878" style="fill-rule:evenodd;fill:#e6e7e8;stroke-width:.26459"/><rect transform="matrix(.99275 .12017 -.078313 .99693 0 0)" x="-19.054" y="44.758" width="31.373" height="77.72" ry=".42368" style="fill-rule:evenodd;fill:#e6e7e8;stroke-width:.2647"/><rect transform="matrix(.95857 .28485 -.4496 .89323 0 0)" x="-1.0108" y="-10.004" width="33.691" height="57.717" ry=".31463" style="fill-rule:evenodd;fill:#e6e7e8;stroke-width:.26669"/><rect transform="matrix(.93453 .35589 -.0099306 .99995 0 0)" x="2.8096" y="-63.86" width="19.249" height="197.54" ry="1.0768" style="fill-rule:evenodd;fill:#e6e7e8;stroke-width:.27319"/><rect transform="matrix(.9943 .10658 -.035259 .99938 0 0)" x="8.8728" y="-93.118" width="90.148" height="277.22" ry="1.5112" style="fill-rule:evenodd;fill:#e6e7e8;stroke-width:.26492"/><rect transform="matrix(.85358 .52095 -.63944 .76884 0 0)" x="-16.809" y="-292.74" width="15.748" height="6.8909" ry=".037564" style="fill-rule:evenodd;fill:#e6e7e8;stroke-width:.266"/><rect transform="rotate(23.997)" x="31.705" y="-285.54" width="32.832" height="15.105" ry=".082344" style="fill-rule:evenodd;fill:#e6e7e8;stroke-width:.26458"/><rect transform="rotate(-15.663)" x="152.74" y="-206.23" width="32.832" height="15.105" ry=".082344" style="fill-rule:evenodd;fill:#e6e7e8;stroke-width:.26458"/><rect transform="rotate(-34.411)" x="187.04" y="-144.74" width="32.832" height="15.105" ry=".082344" style="fill-rule:evenodd;fill:#e6e7e8;stroke-width:.26458"/><rect x="114.49" y="-248.81" width="32.832" height="16.05" ry=".087496" style="fill-rule:evenodd;fill:#e6e7e8;stroke-width:.26458"/><rect x="26.519" y="-106.97" width="57.726" height="60.176" ry=".32804" style="fill-rule:evenodd;fill:#e6e7e8;stroke-width:.26458"/><g transform="matrix(.35278 0 0 -.35278 182.42 -82.734)"><path d="m0 0 18.85-22.955" style="fill:none;stroke-linecap:round;stroke-miterlimit:10;stroke-width:5.755;stroke:#ed1c24"/></g><g transform="matrix(.35278 0 0 -.35278 117.88 -192.92)"><path d="m0 0 56.591 43.642" style="fill:none;stroke-dasharray:20.142, 20.142, 20.142, 20.142, 20.142, 20.142;stroke-linecap:round;stroke-miterlimit:10;stroke-width:5.755;stroke:#ed1c24"/></g><g transform="matrix(.35278 0 0 -.35278 -521.31 551.85)"><g clip-path="url(#clipPath172524)"><g transform="translate(2166.8,1449.3)"><path d="m0 0c12.459-59.478-45.321-275.26-113.17-335.72-29.149-25.984-53.78-39.393-76.628-46.213-25.235-7.539-48.341-7.021-73.002-6.532-7.481 0.144-17.639 0.691-29.465 1.64-7.654 0.605-16.028 1.353-24.804 2.274-14.301 1.496-29.725 3.395-45.062 5.64-39.306 5.754-78.124 13.955-96.338 24.027-18.474 10.186-49.695 50.902-57.665 62.412-0.979 1.41-1.612 2.36-1.813 2.792 0 0 7.107 10.301 15.769 28.659 0.604-0.115 1.179-0.23 1.726-0.345 0 0 35.077-27.509 104.88-35.422 5.783-1.755 11.999-3.223 18.617-4.402 23.02-67.132 223.29-37.609 270.48 31.652 45.522 66.902 92.828 233.22 88.626 313.16 8.691-14.963 14.935-29.84 17.841-43.623" style="fill:#e6e7e8"/></g><g transform="translate(2036.8,213.94)"><path d="m0 0s38.127-8.632 61.866 1.439l3.626 0.057c0.316-10.042-2.13-16.43-3.77-17.322-5.237-2.878-39.767-11.51-75.016 0-16.92 51.075-42.098 56.111-42.098 56.111l-0.057-0.144c-17.035 6.331-29.696-0.403-38.07 7.338-2.244 2.071-3.654 5.697-4.488 10.042l0.172 0.029s25.351 8.834 52.198-3.568c8.604-3.971 17.351-10.129 25.495-19.452 6.618-7.625 12.862-17.409 18.214-29.84 0.662-1.525 1.295-3.079 1.928-4.69" style="fill:#bcbec0"/></g><g transform="translate(2081.1,264.87)"><path d="m0 0c-0.23 1.295-0.518 2.619-0.892 3.971 16.891-21.38 21.782-40.458 22.128-53.406l-3.626-0.058c-23.739-10.071-61.866-1.439-61.866-1.439-0.633 1.612-1.266 3.166-1.928 4.691l1.928 0.345s52.313 2.532 44.256 45.896" style="fill:#c78462"/></g><g transform="translate(2081.1,264.87)"><path d="m0 0c8.057-43.364-44.256-45.896-44.256-45.896l-1.928-0.345c-5.352 12.43-11.596 22.214-18.214 29.839 0 0 30.415 35.825 64.398 16.402" style="fill:#e79d76"/></g><g transform="translate(2080.2,268.85)"><path d="m0 0c0.374-1.352 0.662-2.676 0.892-3.971-33.983 19.423-64.398-16.402-64.398-16.402-8.144 9.323-16.891 15.481-25.495 19.452l0.317 0.691s24.429 32.314 63.218 25.897c10.589-8.747 18.934-17.38 25.466-25.667" style="fill:#e6e7e8"/></g><g transform="translate(2042.8,1596.1)"><path d="m0 0c-9.87 5.266-19.797 9.524-29.523 12.488-0.921 0.288-1.842 0.547-2.763 0.777l2.072 7.482-8.344 10.157-32.689 39.825 39.393 32.343 16.172 13.265 0.144 7.366c3.337-0.028 6.733-0.316 10.215-0.892l1.438 0.058c1.612-36.544 10.359-83.534 34.789-139.16l-4.115-0.575c-8.776 6.359-17.783 12.028-26.789 16.862" style="fill:#e6e7e8"/></g><g transform="translate(2039,1973.8)"><path d="m0 0 30.07-36.631-1.353-3.194-36.918-30.472-31.134 37.868 1.64 1.352z" style="fill:#d1d3d4"/></g><g transform="translate(2049.7,2084.3)"><path d="m0 0s7.51-23.682 3.885-42.558l-6.82 0.403-1.841-1.497-2.562 3.108-29.81 36.314 19.451 15.941 1.353 1.727c5.438-4.23 10.906-8.719 16.344-13.438" style="fill:#d1d3d4"/></g><g transform="translate(2051.4,2033.5)"><path d="m0 0c-1.496-8.143 3.396-23.336 9.899-41.752l-0.892-0.317-21.409-17.668-39.335-32.429 31.134-37.868 31.653-38.558-36.228-29.955-24.545-20.286-7.021 4.229c19.797 32.142 33.235 69.952 17.668 89.865-8.633 11.049-17.611 20.603-23.222 30.185-4.575 7.798-6.906 15.624-5.035 24.314 0.748 3.425 2.129 6.964 4.287 10.705 8.23 14.243 19.74 25.379 30.761 34.213 14.646 11.827 28.372 19.625 32.055 25.38z" style="fill:#d1d3d4"/></g><g transform="translate(2049.3,1807.1)"><path d="m0 0c0.23 0.345 0.489 0.691 0.719 1.036l1.123-0.777s-14.733-31.681-12.23-88.425l-1.438-0.058c-3.482 0.576-6.878 0.863-10.216 0.892-10.099 0.173-19.682-1.87-28.746-5.525l-17.552 21.38c17.293 15.337 33.407 29.235 45.723 42.961 8.402 9.352 15.941 18.934 22.617 28.516" style="fill:#d1d3d4"/></g><g transform="translate(2021.9,2106.4)"><path d="m0 0c-10.186 7.366-20.373 13.927-30.53 19.769-22.531 12.948-44.86 22.329-66.729 28.861 0.201 0.431 0.374 0.748 0.489 0.949v0.029c20.027-3.769 61.521-10.014 62.758 2.647 0.115 1.007-0.029 2.13-0.46 3.367 0 0 0.46 0.432 1.122 1.209 19.826-9.985 39.393-22.704 58.327-38.616 0 0 9.351-18.704 2.877-40.285-5.438 4.719-10.906 9.208-16.344 13.438-3.827 3.021-7.683 5.898-11.51 8.632" style="fill:#231f20"/></g><g transform="translate(2050.1,1808.1)"><path d="m0 0c-0.23-0.345-0.489-0.691-0.719-1.036l-4.374 3.856-18.733 24.027 36.228 29.955-31.652 38.558 36.918 30.473 1.352 3.194-30.07 36.63 21.409 17.668 0.892 0.317c11.05-31.423 26.703-72.168 22.962-103.13-2.848-23.451-14.646-52.054-34.213-80.512" style="fill:#d1d3d4"/></g><g transform="translate(1981,1735.6)"><path d="m0 0c-18.042-15.999-37.35-33.58-54.989-54.154-3.769-4.403-7.855-9.352-12.258-14.762l-7.165 4.69-5.582 6.475-7.338 2.848c12.488 18.474 21.581 38.127 36.285 59.133 8.028 11.452 17.726 23.308 30.588 35.594 10.848 10.359 23.423 26.099 34.127 43.479l7.021-4.23 24.545 20.287 18.733-24.027 4.373-3.856c-6.675-9.582-14.214-19.164-22.617-28.516-12.315-13.726-28.429-27.624-45.723-42.961" style="fill:#d1d3d4"/></g><g transform="translate(2025.9,315)"><path d="m0 0c11.078-6.82 20.603-13.668 28.804-20.488-38.789 6.417-63.219-25.897-63.219-25.897l-0.316-0.691c-26.847 12.402-52.198 3.568-52.198 3.568l-0.173-0.028c-2.733 13.754 0.173 34.558 0.173 34.558v2.36c17.61-0.058 32.516 0.748 45.033 2.014 21.034 2.101 35.278 5.554 44.284 8.46z" style="fill:#e79d76"/></g><g transform="translate(1993.3,2188.8)"><path d="m0 0c-1.87 3.252-4.949 6.503-9.726 9.611l0.345 0.777c17.064-7.683 34.271-17.121 51.45-28.574 0 0 18.704-21.581 11.51-46.04-18.934 15.913-38.501 28.632-58.327 38.616 3.137 3.568 11.251 14.417 4.748 25.61" style="fill:#231f20"/></g><g transform="translate(2033.4,2097.8)"><path d="m0 0-1.352-1.727-19.452-15.941-12.632 15.395c6.762 1.928 15.193 5.265 21.926 10.905 3.827-2.733 7.683-5.611 11.51-8.632" style="fill:#d1d3d4"/></g><g transform="translate(2041.1,324.24)"><path d="m0 0s-3.741-2.417-12.834-5.381c-9.006-2.906-23.25-6.359-44.284-8.46l-0.432 4.259c-30.012 99.273-73.923 478.21-90.094 624.16 39.882-14.157 69.721-32.228 77.922-55.248 3.914-117.8 20.488-298.8 69.722-559.33" style="fill:#414042"/></g><g transform="translate(2027.3,1719.8)"><path d="m0 0-0.144-7.366-16.171-13.266-12.431 15.107c9.064 3.655 18.646 5.698 28.746 5.525" style="fill:#e6e7e8"/></g><g transform="translate(2018.1,2009.5)"><path d="m0 0-11.51 48.917c-4.345 18.503-11.165 27.883-19.855 32.487l1.151 2.043s5.209 0.547 12.086 2.532l12.632-15.394 29.811-36.314 2.561-3.108 1.841 1.497 6.82-0.403c-0.403-2.216-0.978-4.345-1.726-6.36-0.202-0.575-0.374-1.179-0.49-1.87l-0.23 0.058c-3.683-5.755-17.409-13.553-32.055-25.38z" style="fill:#d1d3d4"/></g><g transform="translate(1896.3,1784.1)"><path d="m0 0c2.877 20.142-11.021 27.825-23.02 27.825-16.488 0-27.825-11.02-48.917-10.071-21.092 0.95-29.265 11.021-43.163 10.561-14.042-0.49-27.336-7.194-28.286-26.876-0.978-19.654 21.495-34.358 69.521-35.48 41.263-0.949 70.987 13.899 73.865 34.041m33.552-44.141c-1.554-0.834-51.018-27.854-63.277-30.674-12.488-2.877-67.16-14.387-105.52 5.755-5.986 3.137-12.028 8.834-17.927 16.172-8.287 10.272-16.315 23.796-23.653 38.213-20.344 39.795-35.566 86.267-36.544 89.317-0.173 3.482-0.346 6.964-0.518 10.417-1.784 34.357-3.655 66.873-5.122 91.015 0.115 0.144 0.259 0.374 0.431 0.662 3.396-19.279 20.661-111.24 49.752-152.74 0 0 15.366 24.632 38.386 31.653 17.265 5.266 105.98 10.071 131.39-6.734 5.553-3.654 9.927-7.337 13.351-10.819 12.258-12.488 12.546-22.732 12.546-22.732s63.794 17.725 65.233 139.07l0.748 0.461c5.611-9.583 14.589-19.136 23.221-30.185 15.568-19.913 2.13-57.723-17.668-89.865-10.704-17.38-23.278-33.12-34.127-43.479-12.862-12.286-22.559-24.142-30.587-35.594z" style="fill:#302119"/></g><g transform="translate(1912.5,1618.3)"><path d="m0 0 59.046 48.515 32.688-39.825 8.345-10.158-2.072-7.481c-28.141 7.395-67.39 0.633-103.44-9.726l-1.209 4.259c0.317 0.719 2.561 6.215 6.647 14.416" style="fill:#e6e7e8"/></g><g transform="translate(1998.6,1714.2)"><path d="m0 0 12.431-15.107-39.393-32.343-14.445 17.61c11.999 12.661 25.897 23.625 41.407 29.84" style="fill:#e6e7e8"/></g><g transform="translate(1993.3,2188.8)"><path d="m0 0c6.503-11.193-1.611-22.042-4.748-25.61-156.97 79.362-330.14-9.841-330.14-9.841s-2.244 9.007 0.288 18.531l4.028-0.316s159.5 93.432 330.57 17.236" style="fill:#414042"/></g><g transform="translate(1988.4,1974)"><path d="m0 0c-2.158-3.741-3.539-7.28-4.287-10.704l-4.892 1.093c7.827 34.098 10.675 64.024 7.251 77.721-9.927 39.767-31.652 33.581-31.652 33.581s-26.991 11.941-59.449 4.316l-0.979 4.316c-28.775 29.495-45.637 19.51-66.182 8.633-12.23-6.475-32.861-6.043-54.673 10.79-31.652 24.459-64.024-28.775-56.111-56.111l-0.201-3.913c-9.323 0.374-15.625-0.662-15.625-0.662l-2.82 0.057c0.202 9.582-0.259 18.906-0.518 27.768-0.748 24.603 0.086 45.58 21.581 58.039 9.266 5.381 18.646 7.395 27.768 6.877 18.79-1.064 36.343-12.948 48.946-28.458 10.733-13.236 24.804-0.806 40.026 10.503 9.525 7.107 19.51 13.783 29.379 13.409 1.813-0.058 3.597-0.345 5.41-0.892 27.336-8.632 25.898-35.019 60.428-36.458 14.416-0.604 27.825 1.64 39.393 0.921 5.668-0.374 10.876-1.439 15.567-3.914 8.69-4.604 15.51-13.984 19.854-32.486l11.51-48.918 1.036-1.295c-11.02-8.833-22.53-19.969-30.76-34.213" style="fill:#c78462"/></g><g transform="translate(1913.6,1822.5)"><path d="m0 0c30.3 28.631 53.723 90.094 65.636 141.92l4.891-1.093c-1.87-8.69 0.461-16.517 5.036-24.315l-0.748-0.461c-1.439-121.34-65.233-139.07-65.233-139.07s-0.288 10.244-12.546 22.732z" style="fill:#c78462"/></g><g transform="translate(1983.6,314.66)"><path d="m0 0 0.432-4.259c-12.518-1.266-27.423-2.071-45.033-2.014-7.05 0.029-14.589 0.201-22.531 0.518 0 0-68.11 502.58-94.008 558.23l-84.109 29.552-75.592 26.559-1.439-1.439 47.422-609.45c-16.776 0.403-30.818 3.223-41.149 6.244-12.574 3.655-19.682 7.568-19.682 7.568-10.071 202.95-62.815 556.62-75.217 661.59l2.302 0.23s202.09-7.856 318.51-49.177c16.171-145.95 60.082-524.88 90.094-624.16" style="fill:#58595b"/></g><g transform="translate(1658.4,2153.4)"><path d="m0 0s173.17 89.202 330.14 9.841c-0.662-0.777-1.122-1.208-1.122-1.208 0.431-1.238 0.575-2.36 0.46-3.367-161.6 73.376-332.35-18.215-332.35-18.215l-4.402 0.202c1.122 3.712 3.223 7.481 7.28 12.747" style="fill:#808285"/></g><g transform="translate(1895.5,2225.3)"><path d="m0 0c28.458-4.288 58.212-12.46 88.397-26.099l-0.346-0.777c4.777-3.108 7.856-6.359 9.726-9.611-171.07 76.196-330.57-17.236-330.57-17.236l-4.029 0.317c1.496 5.755 4.748 11.682 11.222 15.999 0 0 0.029 0 0.058 0.028 2.101 1.18 66.01 36.372 154.81 40.832 18.56 0.921 38.242 0.518 58.644-1.842 3.999-0.46 8.028-0.978 12.085-1.611" style="fill:#808285"/></g><g transform="translate(1972.1,1027.3)"><path d="m0 0 1.381-0.029c-2.331-29.062-4.287-75.908-2.043-143.7-8.201 23.02-38.04 41.091-77.922 55.248-4 35.997-6.302 57.809-6.302 57.809l-0.432 1.899c28.919 6.33 57.694 15.654 85.318 28.775" style="fill:#414042"/></g><g transform="translate(1975.8,1398.2)"><path d="m0 0c-5.64-44.918-20.258-99.849-29.724-132.51l-3.453-2.417c-21.495 0-23.337-19.193-23.337-19.193l-0.547-1.496c-9.582 3.424-19.135 6.417-28.602 9.093l1.324 4.863s46.932 22.991 84.339 141.66" style="fill:#d1d3d4"/></g><g transform="translate(1954.8,2075.7)"><path d="m 0,0 -17.265,-34.53 c -44.112,6.705 -80.57,-15.366 -80.57,-15.366 l -19.164,15.366 c 18.243,23.509 38.817,34.444 57.55,38.846 C -26.991,11.942 0,0 0,0" style="fill:#302119"/></g><g transform="translate(1946.1,1265.7)"><path d="m0 0c-5.007-17.294-8.575-28.343-8.575-28.343l-0.662-1.641c-6.014 2.475-12.057 4.748-18.099 6.878l0.546 1.496s1.842 19.193 23.337 19.193z" style="fill:#e79d76"/></g><g transform="translate(1927.7,1645.6)"><path d="m0 0v0.029c7.884 12.69 17.754 26.502 29.408 38.731l14.445-17.61-59.046-48.515c3.625 7.395 8.747 17.006 15.193 27.365" style="fill:#e6e7e8"/></g><g transform="translate(1810.9,2167.7)"><path d="m0 0c-0.432-0.432-0.834-0.834-1.266-1.238-93.404-8.171-159.84-54.355-159.84-54.355l-0.288 0.029c1.007 15.077-0.374 21.667 1.64 28.487l4.403-0.202s170.75 91.591 332.35 18.215c-1.238-12.661-42.731-6.417-62.759-2.647v-0.029c-0.201-0.317-0.402-0.633-0.604-0.921-11.366 3.424-22.559 6.071-33.609 7.999-28.257 5.036-55.334 5.64-80.483 3.482 0.258 0.662 0.431 1.065 0.46 1.18" style="fill:#414042"/></g><g transform="translate(1924.5,2155)"><path d="M 0,0 C 0.201,0.288 0.403,0.604 0.604,0.921 0.489,0.719 0.317,0.403 0.115,-0.029 0.086,0 0.029,0.029 0,0" style="fill:#231f20"/></g><g transform="translate(1913.8,2125.5)"><path d="m0 0-9.927 12.431c7.826 3.424 15.279 8.805 20.689 17.063 0.029 0.029 0.086 0 0.115-0.028-1.899-3.54-6.964-14.273-6.158-25.581z" style="fill:#d1d3d4"/></g><g transform="translate(1907.1,1599.6)"><path d="m0 0c-46.328-13.265-87.418-32.429-93.029-35.077 46.126 35.94 77.289 74.758 99.676 102.18 4.403 5.41 8.489 10.359 12.258 14.762 17.639 20.574 36.947 38.155 54.989 54.154l17.553-21.38c-15.51-6.215-29.408-17.178-41.407-29.839-11.654-12.23-21.524-26.042-29.408-38.731v-0.029c-6.446-10.359-11.568-19.97-15.194-27.365-4.086-8.201-6.33-13.697-6.646-14.416z" style="fill:#d1d3d4"/></g><g transform="translate(1893,1977.6)"><path d="m0 0c5.812-0.834 11.769-2.273 17.668-4.518 0-18.531-15.021-33.58-33.581-33.58 16.345 15.078 16.201 33.638 15.913 38.098" style="fill:#e6e7e8"/></g><g transform="translate(1873.3,1811.9)"><path d="m0 0c11.999 0 25.897-7.683 23.02-27.825-2.878-20.143-32.602-34.991-73.865-34.041-48.026 1.122-70.499 15.826-69.521 35.479 0.95 19.682 14.244 26.387 28.286 26.876 13.898 0.461 22.071-9.611 43.163-10.56 21.092-0.95 32.429 10.071 48.917 10.071" style="fill:#c78462"/></g><g transform="translate(1885.3,1972.1)"><path d="m0 0c0 2.158-0.806 4.172-2.101 5.697l0.029 0.691c3.194-0.115 6.475-0.403 9.812-0.921 0.288-4.46 0.432-23.02-15.912-38.098-18.531 0-33.552 15.049-33.552 33.581 0 0 10.589 3.798 25.581 5.093l0.058-0.662c-0.95-1.41-1.669-3.539-1.669-5.381 0-4.892 3.971-8.891 8.863-8.891 4.92 0 8.891 3.999 8.891 8.891" style="fill:#fff"/></g><g transform="translate(1887.2,996.62)"><path d="m0 0s2.302-21.811 6.302-57.809c-116.42 41.321-318.51 49.176-318.51 49.176l-2.302-0.23c-0.605 5.18-1.122 9.726-1.525 13.64-0.518 5.093-1.007 10.186-1.41 15.193 10.071-3.194 165.37-51.363 317.01-18.071z" style="fill:#414042"/></g><g transform="translate(1885.3,1972.1)"><path d="m0 0c0-4.892-3.971-8.891-8.891-8.891-4.892 0-8.863 3.999-8.863 8.891 0 1.842 0.719 3.971 1.669 5.381l-0.058 0.662c4.345 0.403 9.093 0.575 14.071 0.345l-0.029-0.691c1.295-1.525 2.101-3.539 2.101-5.697"/></g><g transform="translate(1877.1,2006.6)"><path d="m 0,0 c 18.56,0 33.58,-15.049 33.58,-33.58 -5.898,2.244 -11.855,3.683 -17.667,4.517 -0.029,0.662 -0.087,1.007 -0.087,1.007 C 15.107,-14.762 0,0 0,0" style="fill:#c78462"/></g><g transform="translate(1877.1,2006.6)"><path d="m0 0s15.107-14.762 15.826-28.056c0 0 0.058-0.345 0.087-1.007-3.338 0.518-6.619 0.806-9.813 0.921-4.978 0.23-9.726 0.058-14.071-0.345-14.991-1.295-25.581-5.093-25.581-5.093 0 18.531 15.021 33.58 33.552 33.58" style="fill:#e79d76"/></g><g transform="translate(1871.3,1659.4)"><path d="m0 0c3.856 29.724-65.923 11.999-109.34 28.775l-1.18 0.029c0.633 15.797 0.231 26.818 0.231 26.818 38.357-20.143 93.029-8.632 105.52-5.755 12.258 2.82 61.723 29.84 63.276 30.674l0.116-0.086c-14.704-21.006-23.797-40.659-36.286-59.133-3.568-5.294-7.424-10.474-11.769-15.567-3.165-2.475-6.33-4.863-9.495-7.194z" style="fill:#c78462"/></g><g transform="translate(1931.8,2093.9)"><path d="m0 0c-34.53 1.439-33.091 27.825-60.427 36.458-1.813 0.547-3.597 0.834-5.41 0.892l0.029 1.065c5.496-0.432 22.415-1.123 37.867 5.668l9.928-12.431 4.719 3.885c1.036-14.531 11.74-30.041 51.248-32.688l1.554-0.087-0.115-1.841c-11.568 0.719-24.977-1.525-39.393-0.921" style="fill:#d1d3d4"/></g><g transform="translate(1839.6,1870.3)"><path d="m0 0-0.978 0.95c3.251 1.381 15.768 7.654 8.229 20.228l0.432 1.151c5.525-2.215 10.589-6.675 11.567-15.538 1.928-17.265-21.092-25.898-31.652-16.315l-0.173 0.345c4.719 2.244 8.978 5.294 12.575 9.179" style="fill:#c78462"/></g><g transform="translate(1874.2,1058.9)"><path d="m0 0c-6.705-8.632-21.092-15.337-21.092-15.337s-0.604 1.093-1.352 2.906c-1.353 3.252-3.108 8.805-2.475 14.359l0.403 3.913c8.776-0.92 17.15-1.669 24.804-2.273z" style="fill:#e79d76"/></g><g transform="translate(1851.8,1046.5)"><path d="m0 0c0.748-1.813 1.352-2.906 1.352-2.906-11.51-9.582-44.112-17.265-44.112-17.265s-4.114 9.236-5.381 21.754c15.136-0.979 31.193-1.554 48.141-1.583" style="fill:#e6e7e8"/></g><g transform="translate(1838.7,1871.3)"><path d="m0 0 0.978-0.95c-3.597-3.884-7.855-6.934-12.574-9.179-10.331-4.978-22.819-6.158-35.307-4.172-5.352 0.834-10.532 3.539-15.05 7.827-1.64 1.553-3.193 3.338-4.661 5.323 0.518 0.23 1.007 0.518 1.468 0.863 0 0 35.623-10.79 64.398 0 0 0 0.288 0.087 0.748 0.288" style="fill:#c78462"/></g><g transform="translate(1825.3,1530.4)"><path d="m0 0c0-1.094-0.288-2.101-0.834-2.964-1.612-0.921-3.194-1.841-4.777-2.791h-0.144c-3.165 0-5.755 2.561-5.755 5.755 0 3.165 2.59 5.755 5.755 5.755 3.194 0 5.755-2.59 5.755-5.755" style="fill:#414042"/></g><g transform="translate(1824.5,1527.4)"><path d="m0 0c-0.978-1.64-2.734-2.734-4.777-2.791 1.583 0.949 3.166 1.87 4.777 2.791" style="fill:#414042"/></g><g transform="translate(1819.7,1524.6)"><path d="m0 0c-18.186-10.618-34.53-21.898-49.148-33.58 12.028 35.853 21.208 57.06 21.208 57.06l-0.058 0.087c7.798 5.323 15.222 10.761 22.301 16.257 0.028 0.029 0.057 0.029 0.086 0.058 5.611 2.647 46.702 21.811 93.029 35.077 36.055 10.359 75.304 17.121 103.45 9.726 0.921-0.231 1.842-0.49 2.763-0.777 9.726-2.964 19.653-7.223 29.523-12.489-92.569-12.373-163.73-37.58-218.37-68.628 0.546 0.863 0.834 1.87 0.834 2.964 0 3.165-2.561 5.755-5.755 5.755-3.165 0-5.755-2.59-5.755-5.755 0-3.194 2.59-5.755 5.755-5.755z" style="fill:#e6e7e8"/></g><g transform="translate(1809.6,2166.5)"><path d="m0 0c0.432 0.403 0.834 0.806 1.266 1.238-0.029-0.116-0.201-0.519-0.46-1.18-0.259 0-0.547-0.029-0.806-0.058" style="fill:#414042"/></g><g transform="translate(1773.4,2142.8)"><path d="m0 0c11.193 4.431 24.43 11.74 36.17 23.682 0.259 0.028 0.547 0.057 0.806 0.057-0.662-1.755-1.899-5.294-3.05-9.668-4.374-16.402-7.395-44.515 27.537-33.868l1.641-5.151c-15.222-11.308-29.293-23.739-40.026-10.503-12.604 15.51-30.157 27.394-48.947 28.459l0.029 0.316s11.194 0.892 25.84 6.676" style="fill:#d1d3d4"/></g><g transform="translate(1804.6,1070.4)"><path d="m0 0c15.337-2.245 30.76-4.144 45.062-5.64l-0.403-3.913c-0.633-5.554 1.122-11.108 2.474-14.359-16.948 0.029-33.004 0.604-48.14 1.583-0.604 5.841-0.576 12.373 0.806 19.02z" style="fill:#d1d3d4"/></g><g transform="translate(1804.6,1070.4)"><path d="m0 0-0.201-3.309c-1.382-6.647-1.41-13.179-0.806-19.02-162.58 10.445-222.92 68.398-222.92 68.398l-2.762-0.116c-0.317 9.122-1.353 18.589-3.194 28.459-1.237 6.532-2.82 13.236-4.834 20.114l-0.691 0.575c5.698 6.935 12.028 15.308 18.272 24.775 1.439-1.611 27.711-30.731 60.37-33.522l2.762 0.086c7.971-11.51 39.192-52.227 57.665-62.413 18.215-10.071 57.032-18.272 96.339-24.027" style="fill:#d1d3d4"/></g><g transform="translate(1787.9,1434)"><path d="m0 0c3.194 0 5.755-2.59 5.755-5.755 0-3.194-2.561-5.755-5.755-5.755-3.165 0-5.755 2.561-5.755 5.755 0 3.165 2.59 5.755 5.755 5.755" style="fill:#414042"/></g><g transform="translate(1616.8,1374.6)"><path d="m0 0c-1.237 15.941-2.475 31.739-3.252 46.99 1.928 0.92 20.92 10.013 40.314 22.444 6.59 4.23 13.208 8.834 19.222 13.61 6.388 5.122 12.085 10.417 16.258 15.712 0.287 0.316 0.518 0.604 0.748 0.92 7.855 10.244 15.251 21.006 22.847 31.768l0.173-0.115c29.782 12.2 55.794 26.732 78.613 42.27l0.057-0.086s-9.179-21.207-21.207-57.061c-118.41-94.382-126.52-213.42-126.52-213.42l-0.317-2.963c-14.819 1.669-22.703-0.374-22.703-0.374l-0.604 0.057c0.345 3.309 0.546 6.647 0.604 10.014 0.144 7.309 0.086 14.761-0.115 22.3-0.547 22.157-2.331 45.177-4.115 67.938" style="fill:#e6e7e8"/></g><g transform="translate(1780.6,1986.9)"><path d="m0 0h0.288c-0.231-4.834-0.72-10.129-1.612-15.625l-0.892 0.087c-3.136 0.748-7.078 1.553-11.654 2.158 0 0.23 0 0.489-0.028 0.719-0.72 10.791-9.352 25.178-9.352 25.178l0.115 1.266c9.611-0.921 17.984-6.186 23.135-13.783" style="fill:#c78462"/></g><g transform="translate(1778.4,1971.4)"><path d="m0 0 0.892-0.086c-1.381-8.604-3.741-17.668-7.654-26.07-0.633-1.382-1.266-2.763-1.813-4.115l-0.518 0.201c-4.345-2.331-9.265-3.654-14.474-3.741v0.461s10.532 12.603 11.827 29.839c0.144 1.842 0.201 3.712 0.086 5.669 4.575-0.604 8.518-1.41 11.654-2.158" style="fill:#e6e7e8"/></g><g transform="translate(1772,1870.1)"><path d="m0 0c-8.489-3.942-22.272 6.618-22.272 6.618l-0.316-0.057c-1.324 10.963 7.222 17.552 12.546 16.718l0.776 0.115c1.497-9.352 4.835-17.322 9.266-23.394" style="fill:#e79d76"/></g><g transform="translate(1709.4,312.35)"><path d="m0 0h-0.719l-47.422 609.45 1.439 1.439 75.592-26.559-0.288-0.777 26.847-575.5c-6.963-2.158-13.754-3.827-20.286-5.064-12.69-2.389-24.487-3.194-35.163-2.993" style="fill:#414042"/></g><g transform="translate(1759.1,1326.1)"><path d="m0 0c3.194 0 5.755-2.59 5.755-5.755 0-3.194-2.561-5.755-5.755-5.755-3.165 0-5.755 2.561-5.755 5.755 0 3.165 2.59 5.755 5.755 5.755" style="fill:#414042"/></g><g transform="translate(1769.8,1941.1)"><path d="m0 0c0.547 1.352 1.18 2.734 1.813 4.115 3.913 8.402 6.273 17.466 7.654 26.07 0.892 5.496 1.381 10.79 1.611 15.625 0.662 13.61-0.633 23.538-0.633 23.538-17.495 26.875-45.608 32.573-63.046 33.263l0.202 3.914c-7.913 27.336 24.459 80.57 56.111 56.111 21.811-16.833 42.443-17.265 54.672-10.791 20.546 10.877 37.408 20.862 66.183-8.632l0.978-4.316c-18.732-4.403-39.306-15.337-57.55-38.847l19.164-15.365s36.458 22.07 80.57 15.365l17.265 34.53s21.725 6.187 31.653-33.58c3.424-13.697 0.575-43.623-7.252-77.721-11.912-51.824-35.335-113.29-65.635-141.92l-2.964-0.288c-3.424 3.482-7.798 7.165-13.352 10.819-25.408 16.805-114.12 12-131.39 6.734-23.02-7.021-38.386-31.653-38.386-31.653-29.091 41.494-46.356 133.46-49.752 152.74 4.806 7.337 37.321 53.982 77.808 40.055v-0.029c-0.403 0.029-0.777 0.029-1.18 0.029-17.495 0-31.653-14.187-31.653-31.653 0-17.495 14.158-31.652 31.653-31.652h0.46c5.209 0.086 10.129 1.41 14.474 3.74zm77.52-48.428-0.432-1.151c7.539-12.575-4.978-18.848-8.229-20.229-0.461-0.202-0.749-0.288-0.749-0.288-28.775-10.79-64.398 0-64.398 0-0.46-0.345-0.95-0.633-1.467-0.863-4.432 6.071-7.77 14.042-9.266 23.394l-0.777-0.115c-5.323 0.834-13.869-5.755-12.546-16.718 0.23-1.842 0.719-3.77 1.525-5.813 5.726-14.301 22.704-10.819 25.725-6.071 4.518-4.288 9.697-6.993 15.049-7.827 12.489-1.986 24.977-0.806 35.307 4.172l0.173-0.345c10.56-9.582 33.58-0.95 31.652 16.315-0.978 8.863-6.042 13.323-11.567 15.539m29.782 46.788c18.56 0 33.58 15.049 33.58 33.58s-15.02 33.581-33.58 33.581c-18.531 0-33.552-15.05-33.552-33.581s15.021-33.58 33.552-33.58" style="fill:#e79d76"/></g><g transform="translate(1749.8,1876.8)"><path d="m0 0s13.783-10.56 22.272-6.618c1.467-1.986 3.021-3.77 4.661-5.324-3.021-4.747-19.998-8.229-25.725 6.072-0.805 2.043-1.294 3.971-1.525 5.813z" style="fill:#c78462"/></g><g transform="translate(1722.7,1969.2)"><path d="m0 0c0 17.466 14.157 31.652 31.652 31.652 0.403 0 0.777 0 1.18-0.028 0.662-0.029 1.295-0.058 1.928-0.144l-0.115-1.266s8.633-14.388 9.352-25.178c0.029-0.231 0.029-0.489 0.029-0.72-4.576 0.576-9.726 0.979-15.222 0.892-9.036-0.086-19.02-1.467-28.804-5.208" style="fill:#e79d76"/></g><g transform="translate(1751.5,1974.4)"><path d="m0 0c5.496 0.086 10.647-0.317 15.222-0.892 0.115-1.957 0.058-3.827-0.086-5.669h-0.374c-0.231-4.402-3.885-7.913-8.374-7.913-4.604 0-8.373 3.741-8.373 8.345 0 2.072 0.748 3.942 1.985 5.381z"/></g><g transform="translate(1766.6,1967.9)"><path d="m0 0c-1.295-17.236-11.826-29.84-11.826-29.84v-0.46h-0.461c-17.495 0-31.652 14.157-31.652 31.652 9.783 3.741 19.768 5.122 28.803 5.209v-0.748c-1.237-1.439-1.985-3.31-1.985-5.381 0-4.604 3.769-8.345 8.373-8.345 4.489 0 8.144 3.511 8.374 7.913z" style="fill:#fff"/></g><g transform="translate(1691,256.3)"><path d="m0 0c14.013 8.632 31.365 16.747 52.831 21.898l7.194-0.748c-0.576-4.576-2.216-9.237-5.525-13.87-40.026-5.525-98.554-62.585-98.554-62.585-51.795-8.633-70.499 5.755-73.377 17.265-0.316 4.172 0.605 8.661 2.475 13.322l0.892-0.374s22.157-16.517 63.305-14.387c3.741 0.201 10.129 7.136 20.545 16.517 7.683 6.906 17.582 15.135 30.214 22.962" style="fill:#bcbec0"/></g><g transform="translate(1719.4,1582.1)"><path d="m0 0c-13.668-8.115-24.142-16.776-32.142-25.639l-20.66 24.718 0.547 7.712c13.927-1.036 40.428-1.18 74.786 6.906 4.863 1.122 9.87 2.417 15.02 3.913-14.617-5.409-27.019-11.337-37.551-17.61" style="fill:#e6e7e8"/></g><g transform="translate(1709.4,312.35)"><path d="m0 0c10.676-0.201 22.473 0.604 35.163 2.993l0.144-0.691c-1.669-7.769 8.201-21.927 6.244-37.206l-7.194 0.748c-21.466-5.151-38.817-13.265-52.831-21.898-4.114 7.137-8.114 12.978-11.97 17.812 10.791 10.992 21.121 23.797 30.444 38.242" style="fill:#c78462"/></g><g transform="translate(1757,1599.7)"><path d="m0 0c-5.151-1.496-10.158-2.791-15.021-3.913l-0.086 0.316c13.956 23.653 17.927 64.945 18.963 92.109l1.18-0.029c43.421-16.776 113.2 0.949 109.34-28.775l1.065-1.439c-42.069-31.019-81.663-48.514-115.22-58.212-0.086 0-0.144-0.028-0.23-0.057" style="fill:#e79d76"/></g><g transform="translate(1743.1,1731.2)"><path d="m0 0-4.834-4.949-4.518-3.712-30.444 37.436 9.41 7.741 6.733 1.697c7.338-14.416 15.366-27.94 23.653-38.213" style="fill:#d1d3d4"/></g><g transform="translate(1780.2,2010.4)"><path d="m0 0c-46.04 16.315-93.058 2.878-93.058 2.878l-1.094 0.892c7.741 9.409 12.316 18.214 12.604 26.933 0.029 0.662 0.057 1.295 0.057 1.957l2.82-0.058s6.302 1.036 15.625 0.662c17.438-0.691 45.551-6.388 63.046-33.264" style="fill:#302119"/></g><g transform="translate(1719.4,1582.1)"><path d="m0 0-31.94-25.869-0.202 0.23c8 8.863 18.474 17.524 32.142 25.639" style="fill:#fff"/></g><g transform="translate(1881.9,1665.2)"><path d="m0 0c-40.055-46.961-98.698-83.534-122.78-104.54-18.473-16.143-32.659-35.336-46.212-54.558l-6.532 4.201-28.171-23.509-14.1 17.179c1.151 15.711 6.791 33.695 21.898 51.075l1.468 1.209 31.94 25.869c10.532 6.273 22.934 12.2 37.551 17.61 0.087 0.029 0.144 0.057 0.23 0.057 33.552 9.698 73.146 27.193 115.22 58.212 3.166 2.331 6.331 4.719 9.496 7.194" style="fill:#fff"/></g><g transform="translate(1814,1564.5)"><path d="m0 0c-7.079-5.496-14.503-10.934-22.301-16.258-22.818-15.538-48.831-30.07-78.613-42.27l-0.172 0.115c13.553 19.222 27.739 38.414 46.212 54.557 24.085 21.006 82.728 57.579 122.78 104.54 4.345 5.093 8.201 10.272 11.769 15.567l7.337-2.849 5.583-6.474 7.165-4.691c-22.387-27.422-53.55-66.239-99.677-102.18-0.029-0.029-0.057-0.029-0.086-0.058" style="fill:#d1d3d4"/></g><g transform="translate(1688.9,1473.7)"><path d="m0 0-10.733 13.064 28.171 23.509 6.532-4.201c-7.597-10.762-14.992-21.524-22.848-31.768-0.23-0.316-0.46-0.604-0.748-0.921z" style="fill:#fff"/></g><g transform="translate(1688.9,1473.7)"><path d="m0 0 0.374-0.317c-4.172-5.294-9.87-10.589-16.258-15.711l-0.259 0.317s-3.884 7.28-6.532 18.819l11.942 9.956z" style="fill:#fff"/></g><g transform="translate(1689.1,1263.3)"><path d="m0 0c-0.086-0.374-0.144-0.748-0.23-1.094l-0.72 0.144c-18.444 7.77-33.378 11.107-44.457 12.374l0.317 2.963s8.114 119.04 126.52 213.42c-16.804-50.097-39.163-128.77-49.781-218.2l0.259-3.281c-19.682-1.525-31.508-4.287-31.911-6.33" style="fill:#fff"/></g><g transform="translate(1764.9,1320.3)"><path d="m0 0c0 3.165-2.561 5.755-5.755 5.755-3.165 0-5.755-2.59-5.755-5.755 0-3.194 2.59-5.755 5.755-5.755 3.194 0 5.755 2.561 5.755 5.755m28.775 107.91c0 3.165-2.561 5.755-5.755 5.755-3.165 0-5.755-2.59-5.755-5.755 0-3.194 2.59-5.755 5.755-5.755 3.194 0 5.755 2.561 5.755 5.755m-22.444-275.69c-87.994 26.042-82.095 108.8-82.095 108.8l-0.375 0.087c0.058 0.23 0.116 0.46 0.144 0.719 0.087 0.345 0.144 0.719 0.231 1.094 0.402 2.042 12.229 4.805 31.911 6.33l-0.259 3.28c10.618 89.433 32.976 168.1 49.781 218.2 14.617 11.682 30.961 22.962 49.147 33.58 2.043 0.058 3.799 1.151 4.777 2.791 54.644 31.048 125.8 56.255 218.37 68.629 9.007-4.835 18.013-10.503 26.789-16.863 31.854-23.02 61.032-54.816 79.304-86.238 4.201-79.937-43.105-246.26-88.627-313.16-47.19-69.261-247.46-98.784-270.48-31.652-6.618 1.179-12.834 2.647-18.617 4.402m118.96 99.13c9.467-2.676 19.02-5.669 28.602-9.093 6.043-2.129 12.086-4.402 18.1-6.877l0.662 1.64s3.568 11.05 8.575 28.343c9.467 32.66 24.084 87.591 29.724 132.51-37.407-118.67-84.339-141.66-84.339-141.66z" style="fill:#fff"/></g><g transform="translate(1689.1,1261.4)"><path d="m0 0s-5.899-82.757 82.095-108.8c-69.808 7.913-104.88 35.422-104.88 35.422-0.547 0.115-1.122 0.23-1.726 0.345 8.258 17.61 17.955 42.616 24.142 73.117z" style="fill:#e6e7e8"/></g><g transform="translate(1642.6,1225.4)"><path d="m0 0c0 3.165-2.561 5.755-5.755 5.755-3.165 0-5.755-2.59-5.755-5.755 0-3.194 2.59-5.755 5.755-5.755 3.194 0 5.755 2.561 5.755 5.755m46.299 36.774c-0.029-0.258-0.086-0.489-0.144-0.719-6.186-30.501-15.884-55.507-24.142-73.117-21.639 4.661-62.758 26.012-62.758 26.012l-0.202 0.087c9.266 18.099 16.632 38.558 18.762 59.938l0.604-0.058s7.884 2.043 22.703 0.375c11.079-1.267 26.013-4.604 44.458-12.374z" style="fill:#e6e7e8"/></g><g transform="translate(1687.5,1556.2)"><path d="m0 0-1.468-1.208c0.403 0.46 0.835 0.949 1.266 1.438z" style="fill:#fff"/></g><g transform="translate(1647.6,1523.9)"><path d="m0 0 16.459-19.999c-0.748-10.301 0.432-19.624 2.158-27.134l-24.199-20.2 6.819-7.856 4.95-4.69c-19.395-12.431-38.386-21.524-40.314-22.445-0.863 16.69-1.209 32.717-0.432 47.565 0.087 0.115 0.173 0.202 0.259 0.317 0 10.79 3.942 30.386 7.395 45.464-0.028 0.029 0 0.058 0.029 0.087 7.597 24.027 20.977 49.32 33.724 75.908l1.756-0.835s3.827-0.719 10.905-1.237l-0.546-7.712 20.66-24.717c-0.431-0.49-0.863-0.979-1.266-1.439z" style="fill:#e6e7e8"/></g><g transform="translate(1647.6,1523.9)"><path d="m0 0 38.357 31.077c-15.107-17.38-20.747-35.364-21.898-51.076z" style="fill:#d1d3d4"/></g><g transform="translate(1683.4,1849.8)"><path d="m0 0c-0.144 2.993-0.288 5.956-0.432 8.891 0.979-3.05 16.201-49.521 36.545-89.317l-6.734-1.698-9.409-7.74 30.444-37.436 4.517 3.712 4.835 4.949c5.898-7.338 11.941-13.035 17.926-16.172 0 0 0.403-11.02-0.23-26.818-1.036-27.163-5.007-68.455-18.962-92.109l0.086-0.316c-34.357-8.086-60.859-7.942-74.786-6.906-7.079 0.518-10.906 1.237-10.906 1.237l-1.755 0.835c15.855 33.005 30.76 67.966 32.688 104.91 1.065 20.488 0.201 58.528-1.468 100.94-0.661 17.236-1.467 35.22-2.359 53.032" style="fill:#d1d3d4"/></g><g transform="translate(1679,274.11)"><path d="m0 0c3.856-4.834 7.856-10.676 11.97-17.812-12.632-7.826-22.53-16.056-30.213-22.962l-0.403 1.698c-3.05 6.014-6.216 11.02-9.381 15.222 9.438 6.531 18.905 14.531 28.027 23.854" style="fill:#414042"/></g><g transform="translate(1664.1,1503.9)"><path d="m0 0 14.1-17.179-11.942-9.956c-1.726 7.51-2.906 16.834-2.158 27.135" style="fill:#fff"/></g><g transform="translate(1780.2,2010.4)"><path d="m0 0s1.295-9.927 0.633-23.538h-0.288c-5.15 7.597-13.524 12.863-23.135 13.783-0.633 0.087-1.266 0.115-1.928 0.144v0.029c-40.486 13.927-73.002-32.717-77.807-40.055-0.173-0.287-0.317-0.518-0.432-0.662-1.525 24.776-2.561 40.717-2.561 40.717l-0.518 0.518c4.518 4.431 8.489 8.69 11.884 12.834l1.094-0.892s47.018 13.437 93.058-2.878" style="fill:#c78462"/></g><g transform="translate(1672.8,1458)"><path d="m 0,0 0.259,-0.317 c -6.014,-4.776 -12.632,-9.38 -19.222,-13.61 l -4.949,4.69 -6.82,7.856 24.2,20.2 C -3.885,7.28 0,0 0,0" style="fill:#e6e7e8"/></g><g transform="translate(1679,274.11)"><path d="m0 0c-9.122-9.323-18.589-17.323-28.027-23.854-1.899 2.503-3.798 4.719-5.697 6.647l0.201 0.201s24.775 7.769 27.279 24.056c2.014-2.043 4.086-4.403 6.244-7.05" style="fill:#bcbec0"/></g><g transform="translate(1647.9,1156.8)"><path d="m0 0c-32.66 2.791-58.931 31.911-60.37 33.523 2.878 4.345 5.698 8.891 8.46 13.668 1.928 3.367 3.827 6.877 5.669 10.445l0.201-0.086s41.119-21.351 62.758-26.013c-8.661-18.358-15.768-28.659-15.768-28.659 0.201-0.432 0.834-1.382 1.812-2.792z" style="fill:#e6e7e8"/></g><g transform="translate(1645.3,256.9)"><path d="m0 0c1.899-1.928 3.798-4.144 5.697-6.647-26.501-18.358-52.888-25.207-71.678-17.61l-2.705 0.287c5.007 11.309 15.481 23.625 27.595 35.279l0.547-0.576s19.826 10.532 40.544-10.733" style="fill:#e79d76"/></g><g transform="translate(1709.4,312.35)"><path d="m0 0c-9.323-14.445-19.653-27.25-30.444-38.242-2.158 2.647-4.23 5.007-6.244 7.05-21.006 21.236-36.372 12.373-36.372 12.373l-0.892 1.18c17.352 13.265 31.567 22.329 31.567 22.329l0.517 1.554c10.331-3.021 24.373-5.841 41.149-6.244z" style="fill:#e79d76"/></g><g transform="translate(1636.8,1231.1)"><path d="m0 0c3.194 0 5.755-2.59 5.755-5.755 0-3.194-2.561-5.755-5.755-5.755-3.165 0-5.755 2.561-5.755 5.755 0 3.165 2.59 5.755 5.755 5.755" style="fill:#414042"/></g><g transform="translate(1625.1,1533.8)"><path d="m0 0c0.259 0.604 0.518 1.208 0.748 1.813 0 0-0.086-0.374-0.288-1.065-0.143-0.259-0.287-0.489-0.46-0.748" style="fill:#e6e7e8"/></g><g transform="translate(1604.7,1501.8)"><path d="m0 0c8.316 9.438 15.395 20.085 20.401 32.027 0.173 0.259 0.317 0.489 0.461 0.748-0.691-2.676-2.619-10.244-4.748-19.567-0.029-0.029-0.058-0.058-0.029-0.087-0.978-3.021-1.841-6.014-2.618-9.006-2.82-11.05-4.374-23.423-5.036-36.775-4.086-4.719-11.424-16.833-20.142-33.58l-21.783 26.416 17.553 14.186-4.835 5.985c7.396 5.87 14.445 12.402 20.776 19.653" style="fill:#e6e7e8"/></g><g transform="translate(1611.6,1876.3)"><path d="m0 0 12.46-15.078c-19.28-1.295-35.998-8.172-50.443-18.848l-1.496 1.813z" style="fill:#e6e7e8"/></g><g transform="translate(1620.7,1514.9)"><path d="m0 0c-3.453-15.078-7.395-34.674-7.395-45.464-0.087-0.116-0.173-0.202-0.259-0.317 0.662 13.352 2.216 25.725 5.035 36.774 0.777 2.993 1.641 5.986 2.619 9.007" style="fill:#fff"/></g><g transform="translate(1645.3,256.9)"><path d="m0 0c-20.718 21.265-40.544 10.733-40.544 10.733l-0.547 0.576c10.043 9.61 21.207 18.79 31.308 26.501l0.892-1.18s15.365 8.863 36.371-12.373c-2.503-16.286-27.279-24.056-27.279-24.056z" style="fill:#e6e7e8"/></g><g transform="translate(1571.2,1462)"><path d="m0 0 21.783-26.415c-5.007-9.64-10.503-20.805-16.114-32.976l-11.798-9.755-31.595 38.616z" style="fill:#e6e7e8"/></g><g transform="translate(1583.9,1482.2)"><path d="m0 0 4.834-5.985-17.553-14.186-5.812 7.05c6.244 3.942 12.488 8.316 18.531 13.121" style="fill:#e6e7e8"/></g><g transform="translate(1580.7,1116.5)"><path d="m0 0s60.341-57.953 222.92-68.398c1.266-12.517 5.38-21.754 5.38-21.754-74.814-16.315-240.76 20.143-240.76 20.143l-0.489-0.029c-0.029 0.662-0.057 1.295-0.086 1.956l-0.806 0.317c7.395 19.509 11.999 42.098 11.079 67.65z" style="fill:#e6e7e8"/></g><g transform="translate(1576.9,231.21)"><path d="m0 0-0.892 0.374c0.201 0.432 0.374 0.892 0.575 1.352l2.705-0.287c18.79-7.597 45.177-0.748 71.679 17.61 3.165-4.201 6.33-9.208 9.38-15.222l0.403-1.698c-10.416-9.38-16.804-16.315-20.545-16.516-41.148-2.13-63.305 14.387-63.305 14.387" style="fill:#c78462"/></g><g transform="translate(1546.3,1109.8)"><path d="m0 0c1.094 5.007 1.899 10.417 2.331 16.2l22.013 18.1 4.086 0.777c1.841-9.87 2.877-19.337 3.194-28.459 0.921-25.552-3.683-48.14-11.079-67.65-3.395-9.064-7.424-17.466-11.769-25.178l-6.992 3.741-18.358 22.329-10.043 12.201c10.992 9.898 21.696 25.034 26.617 47.939" style="fill:#e6e7e8"/></g><g transform="translate(1565,1392.9)"><path d="m0 0 11.798 9.755c-2.302-5.036-4.662-10.273-6.993-15.625z" style="fill:#e6e7e8"/></g><g transform="translate(1574.8,1144.8)"><path d="m0 0-4.086-0.777-22.013-18.099c0.461 5.438 0.604 11.222 0.403 17.408 0 0 8.748 8.23 20.171 22.157l0.691-0.575c2.014-6.878 3.597-13.582 4.834-20.114" style="fill:#e6e7e8"/></g><g transform="translate(1551.5,1460.9)"><path d="m0 0c0.029 0.029 0.086 0.029 0.115 0.058 4.518 2.474 9.122 5.15 13.755 8.085l5.812-7.049-37.724-30.531-12.402 15.193c8.748 3.482 19.337 8.201 30.444 14.244" style="fill:#e6e7e8"/></g><g transform="translate(1565,1392.9)"><path d="m0 0 4.805-5.87c-7.222-16.603-14.387-34.472-20.717-52.486l-22.215 26.963z" style="fill:#e6e7e8"/></g><g transform="translate(1568.3,1046.5)"><path d="m0 0s165.94-36.458 240.76-20.142c0 0 32.602 7.682 44.112 17.264 0 0 14.388 6.705 21.092 15.337l0.288 3.569c11.826-0.95 21.984-1.497 29.465-1.641 24.661-0.489 47.767-1.007 73.002 6.532l0.835-2.705s-2.331-11.768-4.374-37.436l-1.381 0.029c-27.624-13.121-56.399-22.444-85.318-28.775-151.64-33.292-306.94 14.877-317.01 18.071-0.864 10.215-1.497 20.2-1.957 29.868z" style="fill:#d1d3d4"/></g><g transform="translate(1564.7,1469.8)"><path d="m0 0 0.633-0.777c-4.633-2.935-9.237-5.611-13.754-8.086 3.884 2.417 8.316 5.381 13.121 8.863" style="fill:#fff"/></g><g transform="translate(1529.8,1049.6)"><path d="m0 0 18.358-22.329 6.993-3.741c-9.697-17.236-21.006-31.048-30.818-41.263-13.467-13.956-24.142-21.179-24.142-21.179s0.978 14.388-9.583 67.161c-1.007 5.007-2.532 10.129-4.488 15.395l1.122 0.431s16.517 3.309 32.516 17.726z" style="fill:#e6e7e8"/></g><g transform="translate(1677.3,1960.2)"><path d="m0 0c1.468-24.142 3.338-56.658 5.122-91.015l-0.835-0.029-15.826-13.15c-15.078 4.518-28.947 6.1-41.666 5.237l-12.459 15.078-39.48-32.113-37.321-30.386 5.726-7.194c-9.208-13.668-16.977-28.976-23.537-44.831-5.64-13.611-10.359-27.653-14.359-41.379-1.525-5.237-2.935-10.445-4.23-15.567-4.978-19.567-8.46-37.925-10.848-52.974-0.374-2.331-0.72-4.604-1.036-6.763-2.791-19.02-3.655-31.221-3.655-31.221l-2.302-0.028c-1.438 84.857 6.36 160.28 30.128 205.77 16.459 31.48 36.026 58.097 56.226 81.002 29.667 33.638 60.715 59.305 85.232 80.714 8.172 7.107 15.624 13.783 22.041 20.084l0.518-0.517s1.036-15.942 2.561-40.717" style="fill:#e6e7e8"/></g></g></g><g transform="matrix(.35278 0 0 -.35278 50.456 17.386)"><path d="m0 0c7.597 24.027 20.977 49.32 33.724 75.908 15.855 33.005 30.761 67.967 32.689 104.91 1.064 20.488 0.201 58.528-1.468 100.94-0.662 17.236-1.467 35.221-2.359 53.033-0.144 2.992-0.288 5.956-0.432 8.891-0.173 3.482-0.345 6.963-0.518 10.416-1.784 34.358-3.654 66.873-5.122 91.016-1.525 24.775-2.561 40.716-2.561 40.716" style="fill:none;stroke-linecap:round;stroke-linejoin:round;stroke-miterlimit:10;stroke-width:11.51;stroke:#000"/></g><g transform="matrix(.35278 0 0 -.35278 18.879 123.48)"><path d="m0 0c6.618-30.156 12.834-54.615 17.812-70.93 0 0 8.747 8.229 20.171 22.157 5.697 6.934 12.028 15.308 18.272 24.775 2.877 4.345 5.697 8.891 8.46 13.668 1.928 3.366 3.827 6.877 5.669 10.445 9.265 18.1 16.631 38.559 18.761 59.938 0.345 3.309 0.547 6.647 0.604 10.014 0.144 7.309 0.086 14.762-0.115 22.301-0.547 22.156-2.331 45.176-4.115 67.937-1.237 15.942-2.475 31.739-3.251 46.99-0.864 16.689-1.209 32.717-0.432 47.565 0.662 13.351 2.216 25.725 5.036 36.774 0.776 2.993 1.64 5.985 2.618 9.007" style="fill:none;stroke-linecap:round;stroke-linejoin:round;stroke-miterlimit:10;stroke-width:11.51;stroke:#000"/></g><g transform="matrix(.35278 0 0 -.35278 190.62 -157.05)"><path d="m0 0-11.51 48.917c-4.345 18.503-11.165 27.883-19.855 32.487-4.69 2.475-9.898 3.539-15.567 3.914-11.568 0.719-24.977-1.525-39.393-0.921-34.53 1.439-33.091 27.825-60.427 36.458-1.813 0.546-3.597 0.834-5.41 0.892-9.87 0.374-19.855-6.302-29.379-13.409-15.222-11.309-29.293-23.74-40.026-10.503-12.604 15.509-30.156 27.394-48.946 28.458-9.122 0.518-18.503-1.496-27.768-6.877-21.495-12.46-22.329-33.437-21.581-58.039 0.259-8.863 0.719-18.186 0.518-27.768 0-0.662-0.029-1.295-0.058-1.957-0.288-8.718-4.863-17.524-12.603-26.933-3.396-4.144-7.367-8.402-11.884-12.834-6.417-6.301-13.87-12.977-22.042-20.084-24.516-21.409-55.564-47.076-85.231-80.714-20.201-22.905-39.767-49.522-56.227-81.002-23.768-45.493-31.566-120.91-30.127-205.77 0.144-9.611 0.432-19.366 0.806-29.207 0.345-8.575 0.777-17.207 1.266-25.926 2.273-39.738 6.129-80.541 10.963-120.45 9.064-75.132 21.581-147.24 33.321-203.67" style="fill:none;stroke-linecap:round;stroke-linejoin:round;stroke-miterlimit:10;stroke-width:11.51;stroke:#000"/></g><g transform="matrix(.35278 0 0 -.35278 118.62 -.05379)"><path d="m0 0c-7.079-5.496-14.503-10.934-22.301-16.258-22.818-15.538-48.831-30.07-78.613-42.27" style="fill:none;stroke-linecap:round;stroke-linejoin:round;stroke-miterlimit:10;stroke-width:11.51;stroke:#000"/></g><g transform="matrix(.35278 0 0 -.35278 67.814 -220)"><path d="m0 0c2.302 2.647 78.843 88.541 184.65 84.454 20.66-0.805 42.472-5.035 65.06-14.013 36.947-14.704 75.995-42.04 115.68-87.735 0 0 18.704-21.581 11.51-46.04 0 0 9.352-18.703 2.878-40.285 0 0 7.51-23.682 3.884-42.558-0.402-2.215-0.978-4.345-1.726-6.359-0.201-0.576-0.374-1.18-0.489-1.87-1.496-8.144 3.395-23.337 9.898-41.753 11.05-31.422 26.703-72.167 22.963-103.13-2.849-23.452-14.647-52.054-34.214-80.513-0.23-0.345-0.489-0.69-0.719-1.036-6.676-9.582-14.215-19.164-22.617-28.516-12.316-13.725-28.43-27.623-45.724-42.96-18.041-15.999-37.349-33.581-54.988-54.155-3.77-4.402-7.856-9.352-12.259-14.761-22.386-27.423-53.55-66.24-99.676-102.18" style="fill:none;stroke-linecap:round;stroke-linejoin:round;stroke-miterlimit:10;stroke-width:11.51;stroke:#000"/></g><g transform="matrix(.35278 0 0 -.35278 31.249 -118.81)"><path d="m0 0s25.12 49.435 47.421 99.389c10.302 23.106 19.999 46.298 26.329 64.772 3.367 9.87 5.784 18.358 6.82 24.804 1.439 9.007 2.187 16.2 2.59 22.071 1.007 15.077-0.374 21.667 1.64 28.487 1.122 3.711 3.223 7.481 7.28 12.747 0 0-2.245 9.006 0.288 18.531 1.496 5.755 4.747 11.683 11.222 15.999" style="fill:none;stroke-linecap:round;stroke-linejoin:round;stroke-miterlimit:10;stroke-width:11.51;stroke:#000"/></g><g transform="matrix(.35278 0 0 -.35278 47.837 50.376)"><path d="m0 0s0.058 0.029 0.173 0.086c1.928 0.921 20.919 10.014 40.313 22.445 6.59 4.23 13.208 8.834 19.222 13.61 6.388 5.122 12.086 10.417 16.258 15.711 0.288 0.317 0.518 0.605 0.748 0.921 7.856 10.244 15.251 21.006 22.847 31.768 13.553 19.221 27.739 38.414 46.213 54.557 24.085 21.006 82.728 57.579 122.78 104.54 4.345 5.094 8.201 10.273 11.769 15.568 12.488 18.473 21.581 38.127 36.285 59.132 8.028 11.453 17.725 23.308 30.588 35.595 10.848 10.359 23.422 26.099 34.127 43.479 19.797 32.141 33.235 69.952 17.668 89.864-8.633 11.049-17.611 20.603-23.222 30.185-4.575 7.798-6.906 15.625-5.035 24.315 0.748 3.424 2.129 6.963 4.287 10.704 8.23 14.244 19.74 25.38 30.76 34.213 14.647 11.827 28.372 19.625 32.056 25.38" style="fill:none;stroke-linecap:round;stroke-linejoin:round;stroke-miterlimit:10;stroke-width:11.51;stroke:#000"/></g><g transform="matrix(.35278 0 0 -.35278 63.734 -207.81)"><path d="m0 0s173.17 89.202 330.14 9.841c19.826-9.985 39.393-22.703 58.327-38.616" style="fill:none;stroke-linecap:round;stroke-linejoin:round;stroke-miterlimit:10;stroke-width:8.632;stroke:#000"/></g><g transform="matrix(.35278 0 0 -.35278 67.794 -219.99)"><path d="m0 0s0.029 0 0.057 0.029c2.101 1.179 66.01 36.371 154.81 40.831 18.56 0.921 38.242 0.518 58.643-1.841 4-0.461 8.028-0.978 12.086-1.612 28.458-4.287 58.211-12.459 88.396-26.098 17.064-7.684 34.271-17.121 51.45-28.574" style="fill:none;stroke-linecap:round;stroke-linejoin:round;stroke-miterlimit:10;stroke-width:11.51;stroke:#000"/></g><g transform="matrix(.35278 0 0 -.35278 157.65 -208.39)"><path d="m0 0c21.869-6.532 44.198-15.912 66.729-28.861 10.158-5.841 20.344-12.402 30.53-19.769 3.827-2.733 7.683-5.611 11.51-8.632 5.439-4.23 10.906-8.719 16.344-13.438" style="fill:none;stroke-linecap:round;stroke-linejoin:round;stroke-miterlimit:10;stroke-width:8.632;stroke:#000"/></g><g transform="matrix(.35278 0 0 -.35278 60.688 -193.25)"><path d="m0 0s66.441 46.184 159.84 54.356c0.259 0.029 0.546 0.057 0.806 0.057 25.149 2.159 52.226 1.554 80.483-3.481 11.05-1.928 22.243-4.576 33.609-8" style="fill:none;stroke-linecap:round;stroke-linejoin:round;stroke-miterlimit:10;stroke-width:8.632;stroke:#000"/></g><g transform="matrix(.35278 0 0 -.35278 85.274 -72.354)"><path d="m0 0c7.338-14.416 15.366-27.94 23.653-38.213 5.899-7.338 11.942-13.035 17.927-16.172 38.357-20.142 93.029-8.632 105.52-5.755 12.258 2.82 61.722 29.84 63.276 30.675l0.028 0.028" style="fill:none;stroke-linecap:round;stroke-linejoin:round;stroke-miterlimit:10;stroke-width:8.632;stroke:#000"/></g><g transform="matrix(.35278 0 0 -.35278 72.362 -103.92)"><path d="m0 0s0.029-0.057 0.057-0.173c0.979-3.05 16.201-49.521 36.545-89.317" style="fill:none;stroke-linecap:round;stroke-linejoin:round;stroke-miterlimit:10;stroke-width:11.51;stroke:#000"/></g><g transform="matrix(.35278 0 0 -.35278 98.583 -12.504)"><path d="m0 0c33.552 9.697 73.146 27.192 115.22 58.212 3.165 2.33 6.33 4.719 9.496 7.194" style="fill:none;stroke-linecap:round;stroke-linejoin:round;stroke-miterlimit:10;stroke-width:11.51;stroke:#000"/></g><g transform="matrix(.35278 0 0 -.35278 62.972 -9.1038)"><path d="m0 0s3.827-0.719 10.906-1.237c13.927-1.036 40.428-1.18 74.786 6.906 4.863 1.122 9.87 2.417 15.02 3.913" style="fill:none;stroke-linecap:round;stroke-linejoin:round;stroke-miterlimit:10;stroke-width:11.51;stroke:#000"/></g><g transform="matrix(.35278 0 0 -.35278 99.943 -53.174)"><path d="m0 0s0.403-11.021-0.23-26.818c-1.036-27.164-5.007-68.456-18.963-92.109" style="fill:none;stroke-linecap:round;stroke-linejoin:round;stroke-miterlimit:10;stroke-width:8.632;stroke:#000"/></g><g transform="matrix(.35278 0 0 -.35278 202.3 -85.744)"><path d="m0 0s-14.733-31.681-12.229-88.425c1.611-36.545 10.359-83.534 34.789-139.16" style="fill:none;stroke-linecap:round;stroke-linejoin:round;stroke-miterlimit:10;stroke-width:11.51;stroke:#000"/></g><g transform="matrix(.35278 0 0 -.35278 1.1391 -7.1538)"><path d="m0 0c-1.381-3.453-13.668-31.192-27.221-59.334-5.323-11.021-10.82-22.099-15.941-31.796-1.526-2.878-3.137-6.129-4.835-9.669-24.142-50.471-63.017-164.1-46.011-234.92 18.79-78.153 63.334-135.01 87.936-181.05 4.489-8.374 8.288-16.402 11.165-24.142 1.957-5.266 3.482-10.388 4.489-15.395 10.56-52.773 9.582-67.161 9.582-67.161s10.676 7.223 24.142 21.178c9.813 10.216 21.121 24.028 30.818 41.264 4.345 7.712 8.374 16.114 11.769 25.178 7.395 19.509 11.999 42.098 11.079 67.65-0.317 9.121-1.353 18.588-3.194 28.458-1.238 6.532-2.82 13.237-4.835 20.114" style="fill:none;stroke-linecap:round;stroke-linejoin:round;stroke-miterlimit:10;stroke-width:11.51;stroke:#000"/></g><g transform="matrix(.35278 0 0 -.35278 31.729 182)"><path d="m0 0c0.029-0.662 0.057-1.295 0.086-1.957 0.461-9.668 1.094-19.653 1.957-29.868 0.403-5.007 0.892-10.1 1.41-15.193 0.403-3.914 0.921-8.46 1.525-13.64 12.402-104.97 65.147-458.64 75.218-661.59 0 0 7.107-3.914 19.682-7.568 10.33-3.021 24.372-5.841 41.148-6.244h0.719c10.676-0.202 22.474 0.604 35.163 2.992 6.532 1.238 13.323 2.907 20.287 5.065l-26.847 575.5" style="fill:none;stroke-linecap:round;stroke-linejoin:round;stroke-miterlimit:10;stroke-width:11.51;stroke:#000"/></g><g transform="matrix(.35278 0 0 -.35278 176.41 176.25)"><path d="m0 0s-2.331-11.769-4.374-37.436c-2.331-29.063-4.287-75.908-2.043-143.7 3.914-117.8 20.488-298.8 69.722-559.33 0 0-3.741-2.417-12.834-5.381-9.006-2.906-23.25-6.359-44.284-8.459-12.518-1.267-27.423-2.072-45.033-2.015-7.05 0.029-14.589 0.202-22.531 0.518 0 0-68.11 502.58-94.008 558.23l-84.109 29.552-75.592 26.559" style="fill:none;stroke-linecap:round;stroke-linejoin:round;stroke-miterlimit:10;stroke-width:11.51;stroke:#000"/></g><g transform="matrix(.35278 0 0 -.35278 118.43 .03621)"><path d="m0 0s0.173 0.086 0.547 0.259c0.029 0.029 0.057 0.029 0.086 0.058 5.611 2.647 46.702 21.811 93.029 35.076 36.056 10.359 75.305 17.121 103.45 9.726 0.921-0.23 1.842-0.489 2.763-0.777 9.726-2.964 19.653-7.222 29.523-12.488 9.006-4.834 18.013-10.503 26.789-16.862 31.854-23.02 61.032-54.817 79.304-86.239 8.69-14.963 14.934-29.839 17.841-43.623 12.459-59.477-45.321-275.26-113.17-335.72-29.149-25.984-53.781-39.393-76.628-46.213-25.236-7.539-48.342-7.021-73.002-6.531-7.481 0.144-17.639 0.69-29.466 1.64-7.654 0.604-16.027 1.352-24.804 2.273-14.301 1.496-29.724 3.395-45.061 5.64-39.307 5.755-78.124 13.956-96.339 24.027-18.473 10.186-49.694 50.903-57.665 62.413-0.978 1.41-1.611 2.359-1.812 2.791 0 0 7.107 10.301 15.768 28.66 8.259 17.61 17.956 42.616 24.142 73.117 0.058 0.23 0.115 0.46 0.144 0.719 0.087 0.346 0.144 0.72 0.23 1.094 0.403 2.043 12.23 4.805 31.912 6.33 36.803 2.849 101.03 1.295 169.14-17.898 9.467-2.676 19.02-5.668 28.602-9.093 6.043-2.129 12.086-4.402 18.1-6.877 16.718-6.791 33.379-14.819 49.579-24.257" style="fill:none;stroke-linecap:round;stroke-linejoin:round;stroke-miterlimit:10;stroke-width:11.51;stroke:#000"/></g><g transform="matrix(.35278 0 0 -.35278 38.701 131.92)"><path d="m0 0 0.058-0.058c1.438-1.611 27.71-30.731 60.369-33.522" style="fill:none;stroke-linecap:round;stroke-linejoin:round;stroke-miterlimit:10;stroke-width:8.632;stroke:#000"/></g><g transform="matrix(.35278 0 0 -.35278 50.537 102.31)"><path d="m0 0s7.884 2.043 22.703 0.374c11.079-1.266 26.013-4.604 44.458-12.373" style="fill:none;stroke-linecap:round;stroke-linejoin:round;stroke-miterlimit:10;stroke-width:8.632;stroke:#000"/></g><g transform="matrix(.35278 0 0 -.35278 162.2 115.34)"><path d="m0 0s3.568 11.05 8.575 28.343c9.467 32.66 24.085 87.591 29.724 132.51 0.921 7.453 1.612 14.646 1.986 21.408" style="fill:none;stroke-linecap:round;stroke-linejoin:round;stroke-miterlimit:10;stroke-width:8.632;stroke:#000"/></g><g transform="matrix(.35278 0 0 -.35278 31.929 182.68)"><path d="m0 0s165.94-36.458 240.76-20.142c0 0 32.602 7.682 44.112 17.264 0 0-0.604 1.094-1.352 2.907-1.353 3.251-3.108 8.805-2.475 14.358" style="fill:none;stroke-linecap:round;stroke-linejoin:round;stroke-miterlimit:10;stroke-width:8.632;stroke:#000"/></g><g transform="matrix(.35278 0 0 -.35278 116.87 189.78)"><path d="m0 0s-4.115 9.237-5.381 21.754c-0.604 5.841-0.575 12.373 0.806 19.02" style="fill:none;stroke-linecap:round;stroke-linejoin:round;stroke-miterlimit:10;stroke-width:8.632;stroke:#000"/></g><g transform="matrix(.35278 0 0 -.35278 132.43 183.69)"><path d="m0 0s14.387 6.705 21.092 15.337" style="fill:none;stroke-linecap:round;stroke-linejoin:round;stroke-miterlimit:10;stroke-width:8.632;stroke:#000"/></g><g transform="matrix(.35278 0 0 -.35278 155.77 112.97)"><path d="m0 0s1.842 19.193 23.337 19.193c0.517 0 1.064 0 1.611-0.029" style="fill:none;stroke-linecap:round;stroke-linejoin:round;stroke-miterlimit:10;stroke-width:8.632;stroke:#000"/></g><g transform="matrix(.35278 0 0 -.35278 43.776 123.47)"><path d="m0 0s41.119-21.351 62.758-26.013c0.604-0.115 1.18-0.23 1.727-0.345 0 0 35.076-27.509 104.88-35.422" style="fill:none;stroke-linecap:round;stroke-linejoin:round;stroke-miterlimit:10;stroke-width:8.632;stroke:#000"/></g><g transform="matrix(.35278 0 0 -.35278 110.77 5.7062)"><path d="m0 0s-9.179-21.207-21.207-57.061c-16.805-50.097-39.163-128.77-49.781-218.2" style="fill:none;stroke-linecap:round;stroke-linejoin:round;stroke-miterlimit:10;stroke-width:8.632;stroke:#000"/></g><g transform="matrix(.35278 0 0 -.35278 32.269 193.16)"><path d="m0 0s0.173-0.058 0.518-0.173c10.071-3.194 165.37-51.363 317.01-18.07 28.918 6.33 57.693 15.653 85.317 28.775" style="fill:none;stroke-linecap:round;stroke-linejoin:round;stroke-miterlimit:10;stroke-width:8.632;stroke:#000"/></g><g transform="matrix(.35278 0 0 -.35278 78.96 -168.89)"><path d="m0 0s6.302 1.036 15.625 0.662c17.438-0.691 45.551-6.388 63.046-33.264 0 0 1.295-9.927 0.633-23.538-0.23-4.834-0.72-10.129-1.612-15.625-1.381-8.603-3.74-17.667-7.654-26.07-0.633-1.381-1.266-2.762-1.813-4.115-7.567-17.869-9.179-34.155-7.021-47.565 1.497-9.351 4.835-17.322 9.266-23.394 1.468-1.985 3.021-3.769 4.661-5.323 4.518-4.288 9.698-6.992 15.05-7.827 12.488-1.985 24.976-0.806 35.307 4.173 4.719 2.244 8.977 5.294 12.574 9.179l0.058 0.057" style="fill:none;stroke-linecap:round;stroke-linejoin:round;stroke-miterlimit:10;stroke-width:8.632;stroke:#000"/></g><g transform="matrix(.35278 0 0 -.35278 73.885 -158.4)"><path d="m0 0s47.018 13.438 93.058-2.878" style="fill:none;stroke-linecap:round;stroke-linejoin:round;stroke-miterlimit:10;stroke-width:8.632;stroke:#000"/></g><g transform="matrix(.35278 0 0 -.35278 147.32 -181.92)"><path d="m0 0c-18.733-4.403-39.307-15.337-57.55-38.846l19.164-15.366s36.458 22.07 80.57 15.366l17.265 34.53s-26.991 11.941-59.449 4.316z" style="fill:none;stroke-linecap:round;stroke-linejoin:round;stroke-miterlimit:10;stroke-width:8.632;stroke:#000"/></g><g transform="matrix(.35278 0 0 -.35278 124.64 -116.45)"><path d="m0 0s8.575 1.324 16.258-1.726c5.525-2.216 10.589-6.676 11.567-15.539 1.928-17.265-21.092-25.897-31.652-16.315" style="fill:none;stroke-linecap:round;stroke-linejoin:round;stroke-miterlimit:10;stroke-width:8.632;stroke:#000"/></g><g transform="matrix(.35278 0 0 -.35278 100.28 -116.1)"><path d="m0 0c-5.323 0.834-13.87-5.755-12.546-16.718 0.23-1.842 0.719-3.77 1.525-5.813 5.726-14.301 22.704-10.819 25.725-6.071 0.029 0.029 0.029 0.057 0.057 0.086" style="fill:none;stroke-linecap:round;stroke-linejoin:round;stroke-miterlimit:10;stroke-width:8.632;stroke:#000"/></g><g transform="matrix(.35278 0 0 -.35278 97.07 -78.044)"><path d="m0 0c0.95 19.682 14.244 26.387 28.286 26.876 13.898 0.46 22.07-9.611 43.162-10.561 21.092-0.949 32.43 10.072 48.918 10.072 11.999 0 25.897-7.683 23.02-27.826-2.878-20.142-32.602-34.99-73.866-34.04-48.025 1.122-70.498 15.826-69.52 35.479z" style="fill:none;stroke-linecap:round;stroke-linejoin:round;stroke-miterlimit:10;stroke-width:8.632;stroke:#000"/></g><g transform="matrix(.35278 0 0 -.35278 70.332 -141.15)"><path d="m0 0s0.201-1.266 0.604-3.597c3.396-19.279 20.661-111.24 49.752-152.74 0 0 15.366 24.631 38.386 31.652 17.265 5.266 105.98 10.071 131.39-6.733 5.554-3.655 9.928-7.338 13.352-10.819 12.258-12.489 12.546-22.733 12.546-22.733s63.794 17.726 65.233 139.07" style="fill:none;stroke-linecap:round;stroke-linejoin:round;stroke-miterlimit:10;stroke-width:8.632;stroke:#000"/></g><g transform="matrix(.35278 0 0 -.35278 106.71 -77.194)"><path d="m0 0s47.939-9.237 82.469 1.928" style="fill:none;stroke-linecap:round;stroke-linejoin:round;stroke-miterlimit:10;stroke-width:8.632;stroke:#000"/></g><g transform="matrix(.35278 0 0 -.35278 152.73 -144.19)"><path d="m0 0c0-18.531-15.021-33.58-33.58-33.58-18.531 0-33.552 15.049-33.552 33.58s15.021 33.58 33.552 33.58c18.559 0 33.58-15.049 33.58-33.58z" style="fill:none;stroke-linecap:round;stroke-linejoin:round;stroke-miterlimit:10;stroke-width:8.632;stroke:#000"/></g><g transform="matrix(.35278 0 0 -.35278 129.05 -144.19)"><path d="m0 0s10.589 3.798 25.581 5.093c4.345 0.403 9.093 0.576 14.071 0.345 3.194-0.115 6.474-0.402 9.812-0.92 5.813-0.835 11.769-2.274 17.668-4.518" style="fill:none;stroke-linecap:round;stroke-linejoin:round;stroke-miterlimit:10;stroke-width:8.632;stroke:#000"/></g><g transform="matrix(.35278 0 0 -.35278 143.02 -145.87)"><path d="m0 0c1.295-1.525 2.101-3.539 2.101-5.697 0-4.892-3.971-8.892-8.892-8.892-4.892 0-8.863 4-8.863 8.892 0 1.841 0.72 3.971 1.669 5.38" style="fill:none;stroke-linecap:round;stroke-linejoin:round;stroke-miterlimit:10;stroke-width:2.878;stroke:#000"/></g><g transform="matrix(.35278 0 0 -.35278 106.84 -149.08)"><path d="m0 0c-5.151 7.597-13.524 12.862-23.135 13.783-0.633 0.087-1.266 0.115-1.928 0.144-0.403 0.029-0.777 0.029-1.18 0.029-17.495 0-31.652-14.186-31.652-31.653 0-17.495 14.157-31.652 31.652-31.652h0.461c5.208 0.086 10.128 1.41 14.473 3.741" style="fill:none;stroke-linecap:round;stroke-linejoin:round;stroke-miterlimit:10;stroke-width:8.632;stroke:#000"/></g><g transform="matrix(.35278 0 0 -.35278 96.573 -144.68)"><path d="m0 0c-9.035-0.086-19.02-1.468-28.804-5.208" style="fill:none;stroke-linecap:round;stroke-linejoin:round;stroke-miterlimit:10;stroke-width:8.632;stroke:#000"/></g><g transform="matrix(.42545 0 0 -.35278 106.05 -143.6)" style="stroke-width:.9106"><path d="m0 0c-3.136 0.748-7.079 1.554-11.654 2.158" style="fill:none;stroke-linecap:round;stroke-linejoin:round;stroke-miterlimit:10;stroke-width:7.8603;stroke:#000"/></g><g transform="matrix(.35278 0 0 -.35278 101.22 -144.31)"><path d="m0 0c0.892-1.324 1.583-3.338 1.583-5.093v-0.432c-0.231-4.402-3.885-7.913-8.374-7.913-4.604 0-8.373 3.741-8.373 8.345 0 2.072 0.748 3.942 1.985 5.381" style="fill:none;stroke-linecap:round;stroke-linejoin:round;stroke-miterlimit:10;stroke-width:2.878;stroke:#000"/></g><g transform="matrix(.35278 0 0 -.35278 111.44 47.996)"><path d="m0 0c0-3.194-2.561-5.755-5.755-5.755-3.165 0-5.755 2.561-5.755 5.755 0 3.165 2.59 5.755 5.755 5.755 3.194 0 5.755-2.59 5.755-5.755z" style="fill:none;stroke-linecap:round;stroke-linejoin:round;stroke-miterlimit:10;stroke-width:8.632;stroke:#000"/></g><g transform="matrix(.35278 0 0 -.35278 101.29 86.066)"><path d="m0 0c0-3.194-2.561-5.755-5.755-5.755-3.165 0-5.755 2.561-5.755 5.755 0 3.165 2.59 5.755 5.755 5.755 3.194 0 5.755-2.59 5.755-5.755z" style="fill:none;stroke-linecap:round;stroke-linejoin:round;stroke-miterlimit:10;stroke-width:8.632;stroke:#000"/></g><g transform="matrix(.35278 0 0 -.35278 120.63 13.986)"><path d="m0 0h-0.144c-3.165 0-5.755 2.561-5.755 5.755 0 3.165 2.59 5.755 5.755 5.755 3.194 0 5.755-2.59 5.755-5.755 0-1.094-0.288-2.101-0.834-2.964-0.979-1.64-2.734-2.734-4.777-2.791z" style="fill:none;stroke-linecap:round;stroke-linejoin:round;stroke-miterlimit:10;stroke-width:8.632;stroke:#000"/></g><g transform="matrix(.35278 0 0 -.35278 58.15 119.57)"><path d="m0 0c0-3.194-2.561-5.755-5.755-5.755-3.165 0-5.755 2.561-5.755 5.755 0 3.165 2.59 5.755 5.755 5.755 3.194 0 5.755-2.59 5.755-5.755z" style="fill:none;stroke-linecap:round;stroke-linejoin:round;stroke-miterlimit:10;stroke-width:8.632;stroke:#000"/></g><g transform="matrix(.35278 0 0 -.35278 66.779 440.01)"><path d="m0 0s-14.215-9.064-31.566-22.329c-10.1-7.712-21.265-16.891-31.307-26.502-12.115-11.654-22.589-23.97-27.595-35.278-0.202-0.461-0.375-0.921-0.576-1.353-1.87-4.661-2.791-9.15-2.475-13.322 2.878-11.51 21.582-25.898 73.377-17.265 0 0 58.528 57.06 98.554 62.585 3.309 4.633 4.949 9.294 5.525 13.87 1.956 15.279-7.914 29.436-6.245 37.206" style="fill:none;stroke-linecap:round;stroke-linejoin:round;stroke-miterlimit:10;stroke-width:11.51;stroke:#000"/></g><g transform="matrix(.35278 0 0 -.35278 162.71 443.9)"><path d="m0 0s-2.906-20.804-0.173-34.559c0.835-4.345 2.245-7.97 4.489-10.042 8.374-7.741 21.035-1.007 38.069-7.338 1.957-0.719 4-1.611 6.072-2.733" style="fill:none;stroke-linecap:round;stroke-linejoin:round;stroke-miterlimit:10;stroke-width:11.51;stroke:#000"/></g><g transform="matrix(.35278 0 0 -.35278 193.37 440.73)"><path d="m0 0c-0.201 0.115-0.403 0.259-0.604 0.374" style="fill:none;stroke-linecap:round;stroke-linejoin:round;stroke-miterlimit:10;stroke-width:11.51;stroke:#000"/></g><g transform="matrix(.35278 0 0 -.35278 203.54 447.96)"><path d="m0 0c-8.201 6.82-17.725 13.668-28.804 20.488" style="fill:none;stroke-linecap:round;stroke-linejoin:round;stroke-width:11.51;stroke:#000"/></g><g transform="matrix(.35278 0 0 -.35278 177.68 462.17)"><path d="m0 0s25.178-5.036 42.098-56.111c35.249-11.51 69.779-2.878 75.016 0 1.64 0.892 4.086 7.28 3.77 17.322-0.346 12.949-5.237 32.027-22.128 53.407-6.532 8.287-14.877 16.919-25.466 25.667" style="fill:none;stroke-linecap:round;stroke-linejoin:round;stroke-miterlimit:10;stroke-width:11.51;stroke:#000"/></g><g transform="matrix(.35278 0 0 -.35278 8.2491 189.78)"><path d="m0 0 28.631 23.279 35.134 28.516" style="fill:none;stroke-dasharray:20.142, 20.142, 20.142, 20.142, 20.142, 20.142;stroke-linecap:round;stroke-miterlimit:10;stroke-width:5.755;stroke:#ed1c24"/></g><g transform="matrix(.35278 0 0 -.35278 1.6491 173.88)"><path d="m0 0 17.553 14.445 39.335 32.372 9.352 7.712 22.013 18.099" style="fill:none;stroke-dasharray:20.142, 20.142, 20.142, 20.142, 20.142, 20.142;stroke-linecap:round;stroke-miterlimit:10;stroke-width:5.755;stroke:#ed1c24"/></g><g transform="matrix(.35278 0 0 -.35278 26.639 130.04)"><path d="m0 0 29.926 23.912 16.229 12.977" style="fill:none;stroke-dasharray:20.142, 20.142, 20.142, 20.142, 20.142, 20.142;stroke-linecap:round;stroke-miterlimit:10;stroke-width:5.755;stroke:#ed1c24"/></g><g transform="matrix(.35278 0 0 -.35278 -6.8209 157.63)"><path d="m0 0 9.266 7.654 39.306 32.458 23.02 18.992" style="fill:none;stroke-dasharray:20.142, 20.142, 20.142, 20.142, 20.142, 20.142;stroke-linecap:round;stroke-miterlimit:10;stroke-width:5.755;stroke:#ed1c24"/></g><g transform="matrix(.35278 0 0 -.35278 183.19 -20.004)"><path d="m0 0 7.251 5.956 29.667 24.373" style="fill:none;stroke-dasharray:20.142, 20.142, 20.142, 20.142, 20.142, 20.142;stroke-linecap:round;stroke-miterlimit:10;stroke-width:5.755;stroke:#ed1c24"/></g><g transform="matrix(.35278 0 0 -.35278 23.639 111.19)"><path d="m0 0 8.46 7.165 35.537 30.099 23.624 20.027" style="fill:none;stroke-dasharray:20.142, 20.142, 20.142, 20.142, 20.142, 20.142;stroke-linecap:round;stroke-miterlimit:10;stroke-width:5.755;stroke:#ed1c24"/></g><g transform="matrix(.35278 0 0 -.35278 -15.271 143.26)"><path d="m0 0 3.597 2.993 39.191 32.544 36.573 30.386 1.842 1.525" style="fill:none;stroke-dasharray:20.142, 20.142, 20.142, 20.142, 20.142, 20.142;stroke-linecap:round;stroke-miterlimit:10;stroke-width:5.755;stroke:#ed1c24"/></g><g transform="matrix(.35278 0 0 -.35278 147.79 -14.444)"><path d="m0 0 15.884 13.035 59.046 48.515 39.393 32.343 16.171 13.265" style="fill:none;stroke-dasharray:20.142, 20.142, 20.142, 20.142, 20.142, 20.142;stroke-linecap:round;stroke-miterlimit:10;stroke-width:5.755;stroke:#ed1c24"/></g><g transform="matrix(.35278 0 0 -.35278 18.069 92.346)"><path d="m0 0 13.093 10.762 14.646 11.999 38.012 31.25 22.041 18.07 1.871 1.554" style="fill:none;stroke-dasharray:20.142, 20.142, 20.142, 20.142, 20.142, 20.142;stroke-linecap:round;stroke-miterlimit:10;stroke-width:5.755;stroke:#ed1c24"/></g><g transform="matrix(.35278 0 0 -.35278 -23.221 126.34)"><path d="m0 0 32.861 27.048 36.602 30.157 23.279 19.192" style="fill:none;stroke-dasharray:20.142, 20.142, 20.142, 20.142, 20.142, 20.142;stroke-linecap:round;stroke-miterlimit:10;stroke-width:5.755;stroke:#ed1c24"/></g><g transform="matrix(.35278 0 0 -.35278 53.055 42.086)"><path d="m0 0 13.927 11.596 24.2 20.2 11.941 9.956 28.171 23.51" style="fill:none;stroke-dasharray:20.142, 20.142, 20.142, 20.142, 20.142, 20.142;stroke-linecap:round;stroke-miterlimit:10;stroke-width:5.755;stroke:#ed1c24"/></g><g transform="matrix(.35278 0 0 -.35278 13.719 74.546)"><path d="m0 0 10.273 8.46 38.126 31.393 11.798 9.755 24.459 20.142" style="fill:none;stroke-dasharray:20.142, 20.142, 20.142, 20.142, 20.142, 20.142;stroke-linecap:round;stroke-miterlimit:10;stroke-width:5.755;stroke:#ed1c24"/></g><g transform="matrix(.35278 0 0 -.35278 -28.801 109.59)"><path d="m0 0 19.02 15.654 36.487 30.098 44.457 36.631" style="fill:none;stroke-dasharray:20.142, 20.142, 20.142, 20.142, 20.142, 20.142;stroke-linecap:round;stroke-miterlimit:10;stroke-width:5.755;stroke:#ed1c24"/></g><g transform="matrix(.35278 0 0 -.35278 184.84 -88.334)"><path d="m0 0 24.545 20.286 36.228 29.955 9.668 8" style="fill:none;stroke-dasharray:20.142, 20.142, 20.142, 20.142, 20.142, 20.142;stroke-linecap:round;stroke-miterlimit:10;stroke-width:5.755;stroke:#ed1c24"/></g><g transform="matrix(.35278 0 0 -.35278 53.623 19.356)"><path d="m0 0 17.898 14.503 38.357 31.076 1.468 1.209 31.94 25.869 3.021 2.446" style="fill:none;stroke-dasharray:20.142, 20.142, 20.142, 20.142, 20.142, 20.142;stroke-linecap:round;stroke-miterlimit:10;stroke-width:5.755;stroke:#ed1c24"/></g><g transform="matrix(.35278 0 0 -.35278 10.819 54.006)"><path d="m0 0 25.034 20.258 37.724 30.53 17.553 14.186 12.834 10.388" style="fill:none;stroke-dasharray:20.142, 20.142, 20.142, 20.142, 20.142, 20.142;stroke-linecap:round;stroke-miterlimit:10;stroke-width:5.755;stroke:#ed1c24"/></g><g transform="matrix(.35278 0 0 -.35278 -28.801 86.066)"><path d="m0 0 22.905 18.531 69.837 56.514" style="fill:none;stroke-dasharray:20.142, 20.142, 20.142, 20.142, 20.142, 20.142;stroke-linecap:round;stroke-miterlimit:10;stroke-width:5.755;stroke:#ed1c24"/></g><g transform="matrix(.35278 0 0 -.35278 194.41 -119.08)"><path d="m0 0 1.985 1.64 36.919 30.473" style="fill:none;stroke-dasharray:20.142, 20.142, 20.142, 20.142, 20.142, 20.142;stroke-linecap:round;stroke-miterlimit:10;stroke-width:5.755;stroke:#ed1c24"/></g><g transform="matrix(.35278 0 0 -.35278 68.982 -15.954)"><path d="m0 0 16.057 13.61 37.551 31.854 22.157 18.79" style="fill:none;stroke-dasharray:20.142, 20.142, 20.142, 20.142, 20.142, 20.142;stroke-linecap:round;stroke-miterlimit:10;stroke-width:5.755;stroke:#ed1c24"/></g><g transform="matrix(.35278 0 0 -.35278 9.8991 32.386)"><path d="m0 0 33.811 27.768 39.652 32.544 36.429 29.926 22.789 18.704" style="fill:none;stroke-dasharray:20.142, 20.142, 20.142, 20.142, 20.142, 20.142;stroke-linecap:round;stroke-miterlimit:10;stroke-width:5.755;stroke:#ed1c24"/></g><g transform="matrix(.35278 0 0 -.35278 -24.411 60.176)"><path d="m0 0 55.018 44.457 14.991 12.115" style="fill:none;stroke-dasharray:20.142, 20.142, 20.142, 20.142, 20.142, 20.142;stroke-linecap:round;stroke-miterlimit:10;stroke-width:5.755;stroke:#ed1c24"/></g><g transform="matrix(.35278 0 0 -.35278 184.71 -133.49)"><path d="m0 0 37.695 31.077 21.409 17.668" style="fill:none;stroke-dasharray:20.142, 20.142, 20.142, 20.142, 20.142, 20.142;stroke-linecap:round;stroke-miterlimit:10;stroke-width:5.755;stroke:#ed1c24"/></g><g transform="matrix(.35278 0 0 -.35278 77.823 -45.534)"><path d="m0 0 35.422 29.149 4.518 3.712" style="fill:none;stroke-dasharray:20.142, 20.142, 20.142, 20.142, 20.142, 20.142;stroke-linecap:round;stroke-miterlimit:10;stroke-width:5.755;stroke:#ed1c24"/></g><g transform="matrix(.35278 0 0 -.35278 6.3391 13.296)"><path d="m0 0 13.208 10.877 39.738 32.717 36.256 29.84 39.365 32.372 33.263 27.422 17.467 14.359" style="fill:none;stroke-dasharray:20.142, 20.142, 20.142, 20.142, 20.142, 20.142;stroke-linecap:round;stroke-miterlimit:10;stroke-width:5.755;stroke:#ed1c24"/></g><g transform="matrix(.35278 0 0 -.35278 -13.071 29.216)"><path d="m0 0 31.077 25.466 0.691 0.547" style="fill:none;stroke-dasharray:20.142, 20.142, 20.142, 20.142, 20.142, 20.142;stroke-linecap:round;stroke-miterlimit:10;stroke-width:5.755;stroke:#ed1c24"/></g><g transform="matrix(.35278 0 0 -.35278 193.69 -162.78)"><path d="m0 0 18.186 14.934 1.841 1.497" style="fill:none;stroke-dasharray:20.142, 20.142, 20.142, 20.142, 20.142, 20.142;stroke-linecap:round;stroke-miterlimit:10;stroke-width:5.755;stroke:#ed1c24"/></g><g transform="matrix(.35278 0 0 -.35278 77.235 -67.094)"><path d="m0 0 6.647 5.467 9.41 7.741" style="fill:none;stroke-dasharray:23.02, 23.02, 23.02, 23.02, 23.02, 23.02;stroke-linecap:round;stroke-miterlimit:10;stroke-width:5.755;stroke:#ed1c24"/></g><g transform="matrix(.35278 0 0 -.35278 5.0291 -7.6638)"><path d="m0 0 26.099 21.495 36.112 29.724 39.249 32.315 34.012 27.998 38.933 32.055 8.172 6.705" style="fill:none;stroke-dasharray:23.02, 23.02, 23.02, 23.02, 23.02, 23.02;stroke-linecap:round;stroke-miterlimit:10;stroke-width:5.755;stroke:#ed1c24"/></g><g transform="matrix(.35278 0 0 -.35278 188.13 -181.5)"><path d="m0 0 1.583 1.295 19.451 15.941" style="fill:none;stroke-dasharray:20.142, 20.142, 20.142, 20.142, 20.142, 20.142;stroke-linecap:round;stroke-miterlimit:10;stroke-width:5.755;stroke:#ed1c24"/></g><g transform="matrix(.35278 0 0 -.35278 4.6991 -30.674)"><path d="m0 0 30.732 25.236 39.22 32.199 34.789 28.573 38.386 31.509 39.105 32.113" style="fill:none;stroke-dasharray:20.142, 20.142, 20.142, 20.142, 20.142, 20.142;stroke-linecap:round;stroke-miterlimit:10;stroke-width:5.755;stroke:#ed1c24"/></g><g transform="matrix(.35278 0 0 -.35278 173.71 -190.55)"><path d="m0 0 12.862 11.683 5.928 5.381" style="fill:none;stroke-dasharray:20.142, 20.142, 20.142, 20.142, 20.142, 20.142;stroke-linecap:round;stroke-miterlimit:10;stroke-width:5.755;stroke:#ed1c24"/></g><g transform="matrix(.35278 0 0 -.35278 6.7291 -53.344)"><path d="m0 0 5.841 4.863 28.804 23.941 35.336 29.35 37.608 31.307 61.349 50.989 15.826 13.151" style="fill:none;stroke-dasharray:20.142, 20.142, 20.142, 20.142, 20.142, 20.142;stroke-linecap:round;stroke-miterlimit:10;stroke-width:5.755;stroke:#ed1c24"/></g><g transform="matrix(.35278 0 0 -.35278 150.43 -195.21)"><path d="m0 0 9.611 7.884 4.719 3.885 14.128 11.625" style="fill:none;stroke-dasharray:20.142, 20.142, 20.142, 20.142, 20.142, 20.142;stroke-linecap:round;stroke-miterlimit:10;stroke-width:5.755;stroke:#ed1c24"/></g><g transform="matrix(.35278 0 0 -.35278 11.629 -81.084)"><path d="m0 0 24.114 19.625 37.321 30.386 39.479 32.113 36.515 29.724 22.272 18.128" style="fill:none;stroke-dasharray:20.142, 20.142, 20.142, 20.142, 20.142, 20.142;stroke-linecap:round;stroke-miterlimit:10;stroke-width:5.755;stroke:#ed1c24"/></g><g transform="matrix(.35278 0 0 -.35278 168.28 -231.22)"><path d="m0 0 5.438 4.46 2.993 2.446" style="fill:none;stroke-dasharray:20.142, 20.142, 20.142, 20.142, 20.142, 20.142;stroke-linecap:round;stroke-miterlimit:10;stroke-width:5.755;stroke:#ed1c24"/></g><g transform="matrix(.35278 0 0 -.35278 147.84 -236.08)"><path d="m0 0 21.15 17.351" style="fill:none;stroke-dasharray:20.142, 20.142, 20.142, 20.142, 20.142, 20.142;stroke-linecap:round;stroke-miterlimit:10;stroke-width:5.755;stroke:#ed1c24"/></g><g transform="matrix(.35278 0 0 -.35278 107.5 -202.34)"><path d="m0 0 24.919 18.992 7.107 5.409" style="fill:none;stroke-dasharray:20.142, 20.142, 20.142, 20.142, 20.142, 20.142;stroke-linecap:round;stroke-miterlimit:10;stroke-width:5.755;stroke:#ed1c24"/></g><g transform="matrix(.35278 0 0 -.35278 53.085 -158.26)"><path d="m0 0 35.652 28.573 26.531 21.294" style="fill:none;stroke-dasharray:20.142, 20.142, 20.142, 20.142, 20.142, 20.142;stroke-linecap:round;stroke-miterlimit:10;stroke-width:5.755;stroke:#ed1c24"/></g><g transform="matrix(.35278 0 0 -.35278 121.09 -238.01)"><path d="m0 0 0.23 0.201 33.178 26.042" style="fill:none;stroke-dasharray:20.142, 20.142, 20.142, 20.142, 20.142, 20.142;stroke-linecap:round;stroke-miterlimit:10;stroke-width:5.755;stroke:#ed1c24"/></g><g transform="matrix(.35278 0 0 -.35278 63.165 -189.4)"><path d="m0 0 28.487 23.365" style="fill:none;stroke-dasharray:20.142, 20.142, 20.142, 20.142, 20.142, 20.142;stroke-linecap:round;stroke-miterlimit:10;stroke-width:5.755;stroke:#ed1c24"/></g><g transform="matrix(.35278 0 0 -.35278 88.096 -232.17)"><path d="m0 0 24.344 18.819" style="fill:none;stroke-dasharray:20.142, 20.142, 20.142, 20.142, 20.142, 20.142;stroke-linecap:round;stroke-miterlimit:10;stroke-width:5.755;stroke:#ed1c24"/></g><g transform="matrix(.35278 0 0 -.35278 167.47 -236.11)"><path d="m0 0 7.74-9.409 1.266-1.554" style="fill:none;stroke-dasharray:20.142, 20.142, 20.142, 20.142, 20.142, 20.142;stroke-linecap:round;stroke-miterlimit:10;stroke-width:5.755;stroke:#ed1c24"/></g><g transform="matrix(.35278 0 0 -.35278 176.21 -197.15)"><path d="m0 0 5.784-7.021 16.948-20.661 12.633-15.394 29.81-36.314" style="fill:none;stroke-dasharray:23.02, 23.02, 23.02, 23.02, 23.02, 23.02;stroke-linecap:round;stroke-miterlimit:10;stroke-width:5.755;stroke:#ed1c24"/></g><g transform="matrix(.35278 0 0 -.35278 135.53 -246.15)"><path d="m0 0 22.301-28.718" style="fill:none;stroke-dasharray:20.142, 20.142, 20.142, 20.142, 20.142, 20.142;stroke-linecap:round;stroke-miterlimit:10;stroke-width:5.755;stroke:#ed1c24"/></g><g transform="matrix(.35278 0 0 -.35278 191.46 -152.43)"><path d="m0 0 18.56-22.617 30.07-36.631" style="fill:none;stroke-dasharray:20.142, 20.142, 20.142, 20.142, 20.142, 20.142;stroke-linecap:round;stroke-miterlimit:10;stroke-width:5.755;stroke:#ed1c24"/></g><g transform="matrix(.35278 0 0 -.35278 145.56 -208.32)"><path d="m0 0 13.467-16.833 9.927-12.431 16.114-20.142" style="fill:none;stroke-dasharray:23.02, 23.02, 23.02, 23.02, 23.02, 23.02;stroke-linecap:round;stroke-miterlimit:10;stroke-width:5.755;stroke:#ed1c24"/></g><g transform="matrix(.35278 0 0 -.35278 116.01 -244.61)"><path d="m0 0 14.618-18.502 3.366-4.259" style="fill:none;stroke-dasharray:20.142, 20.142, 20.142, 20.142, 20.142, 20.142;stroke-linecap:round;stroke-miterlimit:10;stroke-width:5.755;stroke:#ed1c24"/></g><g transform="matrix(.35278 0 0 -.35278 182.34 -135.2)"><path d="m0 0 5.064-6.187 31.135-37.867 31.652-38.559 4.489-5.467" style="fill:none;stroke-dasharray:23.02, 23.02, 23.02, 23.02, 23.02, 23.02;stroke-linecap:round;stroke-miterlimit:10;stroke-width:5.755;stroke:#ed1c24"/></g><g transform="matrix(.35278 0 0 -.35278 121.45 -208.89)"><path d="m0 0 19.797-22.761" style="fill:none;stroke-dasharray:23.02, 23.02, 23.02, 23.02, 23.02, 23.02;stroke-linecap:round;stroke-miterlimit:10;stroke-width:5.755;stroke:#ed1c24"/></g><g transform="matrix(.35278 0 0 -.35278 98.694 -236.47)"><path d="m0 0 4.489-5.467" style="fill:none;stroke-dasharray:20.142, 20.142, 20.142, 20.142, 20.142, 20.142;stroke-linecap:round;stroke-miterlimit:10;stroke-width:5.755;stroke:#ed1c24"/></g><g transform="matrix(.35278 0 0 -.35278 191.4 -98.194)"><path d="m0 0 5.956-7.654 18.733-24.027" style="fill:none;stroke-dasharray:20.142, 20.142, 20.142, 20.142, 20.142, 20.142;stroke-linecap:round;stroke-miterlimit:10;stroke-width:5.755;stroke:#ed1c24"/></g><g transform="matrix(.35278 0 0 -.35278 102.04 -206.85)"><path d="m0 0 6.446-7.855 15.308-18.618" style="fill:none;stroke-dasharray:23.02, 23.02, 23.02, 23.02, 23.02, 23.02;stroke-linecap:round;stroke-miterlimit:10;stroke-width:5.755;stroke:#ed1c24"/></g><g transform="matrix(.35278 0 0 -.35278 170.23 -69.344)"><path d="m0 0 20.718-25.236 17.553-21.379 12.43-15.107 21.179-25.783" style="fill:none;stroke-dasharray:23.02, 23.02, 23.02, 23.02, 23.02, 23.02;stroke-linecap:round;stroke-miterlimit:10;stroke-width:5.755;stroke:#ed1c24"/></g><g transform="matrix(.35278 0 0 -.35278 70.342 -190.98)"><path d="m0 0 12.546-15.28" style="fill:none;stroke-dasharray:20.142, 20.142, 20.142, 20.142, 20.142, 20.142;stroke-linecap:round;stroke-miterlimit:10;stroke-width:5.755;stroke:#ed1c24"/></g><g transform="matrix(.35278 0 0 -.35278 168.56 -43.054)"><path d="m0 0 1.611-1.957 14.445-17.61 32.689-39.824 8.344-10.158" style="fill:none;stroke-dasharray:20.142, 20.142, 20.142, 20.142, 20.142, 20.142;stroke-linecap:round;stroke-miterlimit:10;stroke-width:5.755;stroke:#ed1c24"/></g><g transform="matrix(.35278 0 0 -.35278 158.9 -54.534)"><path d="m0 0 7.913-12.229" style="fill:none;stroke-dasharray:20.142, 20.142, 20.142, 20.142, 20.142, 20.142;stroke-linecap:round;stroke-miterlimit:10;stroke-width:5.755;stroke:#ed1c24"/></g><g transform="matrix(.35278 0 0 -.35278 59.389 -175.98)"><path d="m0 0 17.783-21.667 7.798-9.525 8.69-10.56" style="fill:none;stroke-dasharray:20.142, 20.142, 20.142, 20.142, 20.142, 20.142;stroke-linecap:round;stroke-miterlimit:10;stroke-width:5.755;stroke:#ed1c24"/></g><g transform="matrix(.35278 0 0 -.35278 162.39 -24.254)"><path d="m0 0 10.359-12.632" style="fill:none;stroke-linecap:round;stroke-miterlimit:10;stroke-width:5.755;stroke:#ed1c24"/></g><g transform="matrix(.35278 0 0 -.35278 155.42 -32.754)"><path d="m0 0 9.438-11.481" style="fill:none;stroke-linecap:round;stroke-miterlimit:10;stroke-width:5.755;stroke:#ed1c24"/></g><g transform="matrix(.35278 0 0 -.35278 149.32 -40.064)"><path d="m0 0 5.582-6.474" style="fill:none;stroke-linecap:round;stroke-miterlimit:10;stroke-width:5.755;stroke:#ed1c24"/></g><g transform="matrix(.35278 0 0 -.35278 55.328 -154.79)"><path d="m0 0 17.582-21.783 15.595-19.279" style="fill:none;stroke-dasharray:20.142, 20.142, 20.142, 20.142, 20.142, 20.142;stroke-linecap:round;stroke-miterlimit:10;stroke-width:5.755;stroke:#ed1c24"/></g><g transform="matrix(.35278 0 0 -.35278 51.085 -132.24)"><path d="m0 0 25.581-33.177 23.711-30.79" style="fill:none;stroke-dasharray:20.142, 20.142, 20.142, 20.142, 20.142, 20.142;stroke-linecap:round;stroke-miterlimit:10;stroke-width:5.755;stroke:#ed1c24"/></g><g transform="matrix(.35278 0 0 -.35278 44.7 -139.03)"><path d="m0 0 2.849-3.827" style="fill:none;stroke-dasharray:20.142, 20.142, 20.142, 20.142, 20.142, 20.142;stroke-linecap:round;stroke-miterlimit:10;stroke-width:5.755;stroke:#ed1c24"/></g><g transform="matrix(.35278 0 0 -.35278 124.68 -14.594)"><path d="m0 0 6.791-8.258" style="fill:none;stroke-linecap:round;stroke-miterlimit:10;stroke-width:5.755;stroke:#ed1c24"/></g><g transform="matrix(.35278 0 0 -.35278 77.61 -71.444)"><path d="m0 0 5.582-6.848 30.444-37.437 16.258-19.969" style="fill:none;stroke-dasharray:20.142, 20.142, 20.142, 20.142, 20.142, 20.142;stroke-linecap:round;stroke-miterlimit:10;stroke-width:5.755;stroke:#ed1c24"/></g><g transform="matrix(.35278 0 0 -.35278 38.189 -121.02)"><path d="m0 0 25.61-31.077 12.459-15.078 19.51-23.653 30.012-36.4 3.856-4.691" style="fill:none;stroke-dasharray:20.142, 20.142, 20.142, 20.142, 20.142, 20.142;stroke-linecap:round;stroke-miterlimit:10;stroke-width:5.755;stroke:#ed1c24"/></g><g transform="matrix(.35278 0 0 -.35278 111.22 -3.8038)"><path d="m0 0 7.971-9.726" style="fill:none;stroke-linecap:round;stroke-miterlimit:10;stroke-width:5.755;stroke:#ed1c24"/></g><g transform="matrix(.35278 0 0 -.35278 104.85 -11.644)"><path d="m0 0 7.366-9.007" style="fill:none;stroke-linecap:round;stroke-miterlimit:10;stroke-width:5.755;stroke:#ed1c24"/></g><g transform="matrix(.35278 0 0 -.35278 79.052 -43.104)"><path d="m0 0 25.063-31.48 17.84-22.444" style="fill:none;stroke-dasharray:23.02, 23.02, 23.02, 23.02, 23.02, 23.02;stroke-linecap:round;stroke-miterlimit:10;stroke-width:5.755;stroke:#ed1c24"/></g><g transform="matrix(.35278 0 0 -.35278 26.519 -106.97)"><path d="m0 0 19.222-23.365 1.496-1.813 30.76-37.379 29.782-36.199 32.228-39.162 11.108-13.496" style="fill:none;stroke-dasharray:23.02, 23.02, 23.02, 23.02, 23.02, 23.02;stroke-linecap:round;stroke-miterlimit:10;stroke-width:5.755;stroke:#ed1c24"/></g><g transform="matrix(.35278 0 0 -.35278 87.7 -6.4238)"><path d="m0 0 14.589-17.841" style="fill:none;stroke-dasharray:23.02, 23.02, 23.02, 23.02, 23.02, 23.02;stroke-linecap:round;stroke-miterlimit:10;stroke-width:5.755;stroke:#ed1c24"/></g><g transform="matrix(.35278 0 0 -.35278 73.499 -21.994)"><path d="m0 0 3.252-3.511 20.286-21.897" style="fill:none;stroke-dasharray:23.02, 23.02, 23.02, 23.02, 23.02, 23.02;stroke-linecap:round;stroke-miterlimit:10;stroke-width:5.755;stroke:#ed1c24"/></g><g transform="matrix(.35278 0 0 -.35278 16.879 -92.084)"><path d="m0 0 9.237-11.568 5.726-7.193 26.243-32.919 29.005-36.4 31.681-39.71 30.07-37.724 6.906-8.661" style="fill:none;stroke-dasharray:23.02, 23.02, 23.02, 23.02, 23.02, 23.02;stroke-linecap:round;stroke-miterlimit:10;stroke-width:5.755;stroke:#ed1c24"/></g><g transform="matrix(.35278 0 0 -.35278 66.627 -5.9438)"><path d="m0 0 20.66-24.718 0.202-0.23 25.61-30.616" style="fill:none;stroke-dasharray:20.142, 20.142, 20.142, 20.142, 20.142, 20.142;stroke-linecap:round;stroke-miterlimit:10;stroke-width:5.755;stroke:#ed1c24"/></g><g transform="matrix(.35278 0 0 -.35278 9.4291 -74.994)"><path d="m0 0 12.546-15.136 14.445-17.437 29.552-35.624 32.458-39.134 30.818-37.148 25.005-30.156" style="fill:none;stroke-dasharray:20.142, 20.142, 20.142, 20.142, 20.142, 20.142;stroke-linecap:round;stroke-miterlimit:10;stroke-width:5.755;stroke:#ed1c24"/></g><g transform="matrix(.35278 0 0 -.35278 58.252 12.186)"><path d="m0 0 4.777-5.841 16.459-19.999 14.1-17.179 10.733-13.063" style="fill:none;stroke-dasharray:20.142, 20.142, 20.142, 20.142, 20.142, 20.142;stroke-linecap:round;stroke-miterlimit:10;stroke-width:5.755;stroke:#ed1c24"/></g><g transform="matrix(.35278 0 0 -.35278 52.405 31.596)"><path d="m0 0 15.769-18.157 6.819-7.856" style="fill:none;stroke-dasharray:23.02, 23.02, 23.02, 23.02, 23.02, 23.02;stroke-linecap:round;stroke-miterlimit:10;stroke-width:5.755;stroke:#ed1c24"/></g><g transform="matrix(.35278 0 0 -.35278 3.4291 -28.444)"><path d="m0 0 30.645-37.407 30.559-37.322 30.617-37.378 23.48-28.631 1.899-2.36 2.935-3.568" style="fill:none;stroke-dasharray:23.02, 23.02, 23.02, 23.02, 23.02, 23.02;stroke-linecap:round;stroke-miterlimit:10;stroke-width:5.755;stroke:#ed1c24"/></g><g transform="matrix(.35278 0 0 -.35278 4.6991 1.8062)"><path d="m0 0 17.869-21.696 30.703-37.206 25.092-30.444 0.633-0.777 5.812-7.05 21.783-26.415 9.668-11.741 1.123-1.352" style="fill:none;stroke-dasharray:20.142, 20.142, 20.142, 20.142, 20.142, 20.142;stroke-linecap:round;stroke-miterlimit:10;stroke-width:5.755;stroke:#ed1c24"/></g><g transform="matrix(.35278 0 0 -.35278 7.7091 32.256)"><path d="m0 0 2.676-3.28 18.761-22.934 12.402-15.193 31.595-38.616 4.806-5.87 24.89-30.444 14.301-17.495" style="fill:none;stroke-dasharray:20.142, 20.142, 20.142, 20.142, 20.142, 20.142;stroke-linecap:round;stroke-miterlimit:10;stroke-width:5.755;stroke:#ed1c24"/></g><g transform="matrix(.35278 0 0 -.35278 -5.9609 15.516)"><path d="m0 0 10.934-13.38 6.705-8.201" style="fill:none;stroke-dasharray:20.142, 20.142, 20.142, 20.142, 20.142, 20.142;stroke-linecap:round;stroke-miterlimit:10;stroke-width:5.755;stroke:#ed1c24"/></g><g transform="matrix(.35278 0 0 -.35278 12.219 65.326)"><path d="m0 0 14.531-17.668 22.215-26.962 7.596-9.208 32.027-38.904 17.869-21.696" style="fill:none;stroke-dasharray:20.142, 20.142, 20.142, 20.142, 20.142, 20.142;stroke-linecap:round;stroke-miterlimit:10;stroke-width:5.755;stroke:#ed1c24"/></g><g transform="matrix(.35278 0 0 -.35278 -14.261 33.276)"><path d="m0 0 26.243-31.796 24.459-29.61" style="fill:none;stroke-dasharray:20.142, 20.142, 20.142, 20.142, 20.142, 20.142;stroke-linecap:round;stroke-miterlimit:10;stroke-width:5.755;stroke:#ed1c24"/></g><g transform="matrix(.35278 0 0 -.35278 16.309 96.036)"><path d="m0 0 9.237-11.308 19.998-24.488 29.984-36.688 12.747-15.596" style="fill:none;stroke-dasharray:20.142, 20.142, 20.142, 20.142, 20.142, 20.142;stroke-linecap:round;stroke-miterlimit:10;stroke-width:5.755;stroke:#ed1c24"/></g><g transform="matrix(.35278 0 0 -.35278 25.279 135.2)"><path d="m0 0 10.704-12.287" style="fill:none;stroke-dasharray:20.142, 20.142, 20.142, 20.142, 20.142, 20.142;stroke-linecap:round;stroke-miterlimit:10;stroke-width:5.755;stroke:#ed1c24"/></g><g transform="matrix(.35278 0 0 -.35278 -26.771 72.196)"><path d="m0 0 17.15-20.776 32.602-39.45 29.782-36.026 32.429-39.249 9.554-11.568" style="fill:none;stroke-dasharray:20.142, 20.142, 20.142, 20.142, 20.142, 20.142;stroke-linecap:round;stroke-miterlimit:10;stroke-width:5.755;stroke:#ed1c24"/></g><g transform="matrix(.35278 0 0 -.35278 -29.661 94.866)"><path d="m0 0 21.437-26.07 29.667-36.084 32.459-39.479 29.753-36.17 32.314-39.336 7.021-8.488 18.1-22.042" style="fill:none;stroke-dasharray:20.142, 20.142, 20.142, 20.142, 20.142, 20.142;stroke-linecap:round;stroke-miterlimit:10;stroke-width:5.755;stroke:#ed1c24"/></g><g transform="matrix(.35278 0 0 -.35278 -20.521 134.29)"><path d="m0 0 18.474-22.444 29.638-36.084 32.285-39.249 19.74-24.056 10.042-12.201 18.359-22.329" style="fill:none;stroke-dasharray:20.142, 20.142, 20.142, 20.142, 20.142, 20.142;stroke-linecap:round;stroke-miterlimit:10;stroke-width:5.755;stroke:#ed1c24"/></g><g transform="matrix(.35278 0 0 -.35278 9.4291 197.4)"><path d="m0 0 19.826-22.473 2.072-2.36" style="fill:none;stroke-dasharray:20.142, 20.142, 20.142, 20.142, 20.142, 20.142;stroke-linecap:round;stroke-miterlimit:10;stroke-width:5.755;stroke:#ed1c24"/></g><g transform="matrix(.35278 0 0 -.35278 145.88 -20.684)"><path d="m0 0 6.791-8.258" style="fill:none;stroke-linecap:round;stroke-miterlimit:10;stroke-width:5.755;stroke:#ed1c24"/></g><g transform="matrix(.35278 0 0 -.35278 98.501 -12.484)"><path d="m0 0c0.086 0.029 0.144 0.057 0.23 0.057" style="fill:none;stroke-linecap:round;stroke-linejoin:round;stroke-miterlimit:10;stroke-width:11.51;stroke:#000"/></g><g transform="matrix(.35278 0 0 -.35278 182.5 -81.434)"><path d="m0 0 14.387-17.265" style="fill:none;stroke-linecap:round;stroke-linejoin:round;stroke-width:5.755;stroke:#ed1c24"/></g><g transform="matrix(.35278 0 0 -.35278 44.791 457.44)"><path d="m0 0s19.826 10.532 40.544-10.733c1.899-1.928 3.798-4.144 5.697-6.647 3.166-4.201 6.331-9.208 9.381-15.222" style="fill:none;stroke-linecap:round;stroke-linejoin:round;stroke-width:11.51;stroke:#000"/></g><g transform="matrix(.35278 0 0 -.35278 55.958 448.3)"><path d="m0 0s15.366 8.863 36.372-12.373c2.014-2.043 4.086-4.403 6.244-7.05 3.856-4.834 7.855-10.676 11.97-17.812 0.029-0.057 0.058-0.115 0.086-0.172" style="fill:none;stroke-linecap:round;stroke-linejoin:round;stroke-width:11.51;stroke:#000"/></g><g transform="matrix(.35278 0 0 -.35278 34.979 470.29)"><path d="m0 0s22.157-16.517 63.305-14.387c3.741 0.201 10.129 7.136 20.545 16.516 7.683 6.906 17.582 15.136 30.214 22.963 14.013 8.632 31.365 16.747 52.831 21.897" style="fill:none;stroke-linecap:round;stroke-linejoin:round;stroke-width:11.51;stroke:#000"/></g><g transform="matrix(.35278 0 0 -.35278 162.71 456.08)"><path d="m0 0s25.351 8.834 52.198-3.568c8.604-3.971 17.351-10.129 25.494-19.452 6.619-7.625 12.863-17.409 18.215-29.84 0.662-1.525 1.295-3.079 1.928-4.69 0 0 38.127-8.632 61.866 1.439" style="fill:none;stroke-linecap:round;stroke-linejoin:round;stroke-width:11.51;stroke:#000"/></g><g transform="matrix(.35278 0 0 -.35278 190.12 464.2)"><path d="m0 0s30.415 35.825 64.398 16.402" style="fill:none;stroke-linecap:round;stroke-linejoin:round;stroke-width:11.51;stroke:#000"/></g><g transform="matrix(.35278 0 0 -.35278 181.23 457.09)"><path d="m0 0s24.43 32.314 63.219 25.897h0.086" style="fill:none;stroke-linecap:round;stroke-linejoin:round;stroke-width:11.51;stroke:#000"/></g><g transform="matrix(.35278 0 0 -.35278 20.339 39.626)"><path d="m0 0s6.33 2.82 16.085 8.92c0.029 0.029 0.087 0.029 0.115 0.058 3.885 2.417 8.316 5.381 13.122 8.862 11.423 8.259 24.919 19.596 38.04 34.358 7.741 8.661 15.337 18.531 22.301 29.667 0.172 0.259 0.316 0.489 0.46 0.748 4.863 7.827 9.41 16.229 13.467 25.293" style="fill:none;stroke-linecap:round;stroke-linejoin:round;stroke-width:8.632;stroke:#000"/></g><g transform="matrix(.35278 0 0 -.35278 16.789 113.73)"><path d="m0 0 7.194-33.091" style="fill:none;stroke-miterlimit:10;stroke-width:11.51;stroke:#000"/></g><g transform="matrix(.38619 -.030176 -.027482 -.35171 101.09 -144.37)" style="stroke-width:.95431"><path d="m0 0c-3.136 0.748-7.079 1.554-11.654 2.158" style="fill:none;stroke-linecap:round;stroke-linejoin:round;stroke-miterlimit:10;stroke-width:8.2376;stroke:#000"/></g></g></svg>
