<?xml version="1.0" encoding="UTF-8"?>
<svg width="309.52mm" height="746.86mm" version="1.1" viewBox="0 0 309.52 746.86" xmlns="http://www.w3.org/2000/svg"><defs><clipPath id="clipPath279333"><path d="m157.1 2375.4h874.56v-2114.2h-874.56z"/></clipPath></defs><g transform="translate(412.89 180.99)"><g transform="matrix(.35278 0 0 -.35278 -467.8 657.49)"><g clip-path="url(#clipPath279333)"><g transform="translate(890.24 1763.9)"><path d="m0 0c-9.779-8.585-19.529-17.084-29.08-25.612-27.574-24.703-53.3-49.832-72.346-79.481 3.696 28.114 7.505 54.465 11.172 63.05l0.199 0.569c10.972-3.98 23.708-2.417 28.966 16.914 3.781 13.985 10.973 32.122 18.421 49.774 11.882 28.199 24.361 55.205 24.646 62.368 0.255 6.453-3.781 26.465-10.575 42.356-5.43 12.792-12.65 22.94-20.837 21.32-8.215-1.592-17.709-7.334-25.669-13.162l-0.142 0.171c-0.313 2.729-0.085 9.523 0.426 18.505h0.029l0.256-0.028s279.66 81.442 94.66 357.8l6.822 4.606c1.933-2.502 4.691-4.407 7.789-5.373 4.975-1.592 10.006-4.974 10.745-12.223 0.541-5.373 3.81-10.12 8.756-12.224 4.946-2.132 9.921-6.31 10.176-14.611 0.171-5.373 3.639-9.921 8.472-12.252 4.065-1.961 7.675-5.742 6.964-12.905-0.512-5.231 1.905-10.376 6.254-13.276 4.548-3.07 8.983-8.187 8.13-16.373-0.54-5.146 1.819-10.234 5.913-13.389 4.519-3.468 8.926-9.04 7.561-17.312-0.767-4.776 1.023-9.637 4.634-12.877 3.07-2.758 5.457-7.192 3.752-14.27-1.08-4.52-0.313-9.267 2.615-12.877 3.639-4.52 7.618-11.428 6.453-19.188-0.711-4.691 0.853-9.353 4.264-12.679 3.98-3.866 7.505-10.12 4.093-19.045-1.762-4.549-1.62-9.779 1.194-13.787 2.331-3.355 3.895-8.216 1.479-14.725-1.621-4.321-1.28-9.239 1.279-13.076 3.468-5.202 6.396-13.73 0.796-25.186-2.132-4.321-2.218-9.353 0.085-13.617 2.132-3.951 3.155-9.75-1.763-16.942-2.586-3.752-3.382-8.357-2.103-12.735 1.108-3.951 1.052-9.324-3.752-14.895-2.644-3.099-3.81-7.221-3.269-11.257 0.597-4.691 0.483-10.632-3.071-14.157-2.984-2.985-5.003-6.851-4.747-11.086 0.398-6.595-1.336-15.89-11.91-22.798-4.094-2.672-6.851-7.05-6.965-11.911-0.17-7.703-2.644-18.705-14.64-22.656-4.804-1.592-8.357-5.714-9.551-10.631-1.478-6.055-4.776-13.275-12.138-15.635-4.69-1.507-8.613-5.003-10.205-9.637-2.189-6.31-7.505-13.957-20.268-16.174-2.843-0.512-5.515-1.734-7.647-3.667-6.14-5.572-18.932-17.198-26.323-23.708" style="fill:#26140e"/></g><g transform="translate(910.37 2278.4)"><path d="m0 0c185-276.36-94.66-357.8-94.66-357.8l-0.256 0.029c1.933 32.918 8.073 95.2 8.073 95.2-25.584 112.28-130.76 167.72-179.09 170.56-17.369 1.024-41.02-8.243-64.159-20.552-41.19-21.888-80.816-53.357-80.816-53.357-9.722 0.967-43.436 24.589-63.733 39.4 2.275 22.94 29.081 200.38 310.22 213.28 2.018-0.37 4.093-0.313 6.112 0.256 5.486 1.535 13.474 2.018 20.58-4.236 3.27-2.871 7.562-4.321 11.883-3.695 6.595 0.938 16.175 0.853 21.917-5.799 2.757-3.212 7.021-4.776 11.257-4.606 5.514 0.228 12.592-0.795 16.686-6.538 2.473-3.496 6.453-5.571 10.717-5.969 6.339-0.569 14.81-2.814 19.443-10.177 2.275-3.581 5.743-6.254 9.95-6.879 6.168-0.91 14.554-3.582 18.107-11.257 1.308-2.757 3.326-5.031 5.828-6.566l-1.706-1.734c4.804-6.624 9.353-13.162 13.645-19.558" style="fill:#381f17"/></g><g transform="translate(903.43 2297.7)"><path d="m0 0c4.719-0.938 9.836-3.411 11.285-9.551 0.455-1.905 1.308-3.639 2.473-5.174l-6.822-4.605c-4.292 6.396-8.841 12.934-13.645 19.558l1.706 1.733c1.507-0.938 3.212-1.591 5.003-1.961" style="fill:#381f17"/></g><g transform="translate(861.65 1893.8)"><path d="m0 0-0.455-0.199c-21.32 38.376-69.645-28.427-69.645-28.427l-0.455 0.143 6.681 22.002s7.533 7.391 17.368 14.639c7.96 5.828 17.454 11.57 25.669 13.162 8.187 1.62 15.407-8.528 20.837-21.32" style="fill:#8f6a57"/></g><g transform="translate(846.64 1789.5)"><path d="m0 0 0.938-0.398c-7.448-17.653-14.64-35.789-18.42-49.775-5.259-19.33-17.994-20.893-28.967-16.914v0.029c-3.695 1.336-7.22 3.326-10.148 5.458-0.029 0.028-0.029 0-0.029 0-4.718 3.468-7.987 7.305-8.385 9.636-0.427 2.53-0.91 5.344-1.337 8.017l1.535 0.255s40.395-8.073 64.813 43.692" style="fill:#663d2f"/></g><g transform="translate(818.64 1804.7)"><path d="m0 0c-12.593 17.88-18.307 1.336-18.762-0.085l-2.302 0.426c1.592 4.548 5.771 15.862 11.2 26.295l1.251-0.626c16.061-0.796 10.063-21.689 8.641-26.01z" style="fill:#5c372a"/></g><g transform="translate(775.06 1389.4)"><path d="m0 0c33.998-27.773 99.408-84.967 132.18-138.66v-0.028c-0.852-2.189-4.804-12.621-11.114-28.398-67.258 117.15-127.32 150.35-127.32 150.35l-2.956 0.057c0.512 1.137 1.052 2.217 1.535 3.24 3.695 7.562 6.112 11.541 6.112 11.541l1.563 1.877z" style="fill:#ba977b"/></g><g transform="translate(753.43 1406.5)"><path d="m0 0s8.443-6.339 21.633-17.113v-0.028l-1.564-1.876s-2.416-3.98-6.112-11.541l-4.974 1.677s-7.107 12.081-16.345 19.188l-1.848 2.245c3.07 2.417 6.14 4.89 9.21 7.448" style="fill:#ba977b"/></g><g transform="translate(744.22 1399.1)"><path d="m0 0c-12.053-9.495-24.02-17.852-35.732-25.243-12.479-7.902-24.703-14.668-36.528-20.467 21.974 55.346 18.903 92.187 18.42 96.934 18.108 9.012 36.955 20.183 56.398 33.942 0.029 0.369 0.057 0.739 0.057 1.108l2.786-0.17s15.18-54.01 3.809-78.656c-3.07-2.559-6.14-5.032-9.21-7.448" style="fill:#9bb3db"/></g><g transform="translate(752.35 1561.3)"><path d="m0 0 0.114-0.256s-3.696-45.34-5.629-75.643c0-0.369-0.028-0.739-0.057-1.108-19.443-13.759-38.29-24.931-56.398-33.942 0-0.028-0.028 0-0.028 0-0.029 0.37-0.057 0.54-0.057 0.54 1.506 5.345-0.37 54.721-29.507 43.465-104.35-40.252-199.21-11.03-199.21-11.03l-1.165 0.228c1.648 8.272 2.814 14.241 2.814 14.241l0.17 1.223c17.397-3.554 41.503-6.539 63.733-8.273 19.33-1.563 37.267-2.188 48.154-1.478 2.672 0.142 4.89 0.398 6.624 0.711 17.908 3.354 123.09 47.273 170.44 71.322" style="fill:#7a5744"/></g><g transform="translate(746.06 1396.8)"><path d="m0 0c9.239-7.107 16.345-19.188 16.345-19.188-27.005-39.797-46.903-140-51.167-156.35-3.81-14.639-31.554-8.755-37.324-7.362 0 0.028-0.029 0.028-0.057 0.028-10.547 4.946-19.416 9.068-22.941 10.689l9.864-14.924 0.057-0.142 20.553-47.274c4.036-9.324 0.454-20.183-8.358-25.243l-84.256-48.382c-41.645 8.187-82.238 12.707-114.84 15.237l0.114 1.649s19.273 24.077 47.017 57.933c39.399 48.041 95.94 115.78 138.78 162.23-0.511-1.592-1.449-4.861 1.365 1.478 0 0.029 0.028 0.029 0.028 0.029 20.013 21.661 36.926 38.518 47.473 46.25l-0.228 0.341c11.712 7.391 23.679 15.748 35.732 25.243z" style="fill:#cca98d"/></g><g transform="translate(717.1 1048.3)"><path d="m0 0c11.513-5.685 22.372-11.911 32.349-18.733l0.171 0.227c-29.166 29.507-58.871 40.252-66.859 42.754 22.627-0.654 55.687-3.411 87.497-12.735-44.204 23.139-110.89 21.917-113.65 21.86 9.04 12.394 26.21 36.528 32.606 49.405l-0.711 1.165 16.715 10.12-44.374 67.258-0.057 0.142-9.864 14.924c3.525-1.621 12.394-5.743 22.94-10.689 0.029 0 0.057 0 0.057-0.028 23.651-11.03 55.801-26.067 55.801-26.067-2.586 90.51 22.884 156.83 36.131 184.86l2.956-0.057s60.065-33.202 127.32-150.35v-0.029c-29.137-72.573-108.5-258.2-164.99-275.31-71.521-21.689-335.12 56.91-339.64 58.246l0.824 7.476 8.158 73.511 0.569 5.146 1.052-0.114s144.26 12.081 314.82-43.351z" style="fill:#cca98d"/></g><g transform="translate(697.54 283.4)"><path d="m0 0c0.028-0.028 0-0.028 0-0.028-22.059-22.799-60.548-9.751-60.548-9.751h-0.029c-1.251 2.928-1.848 6.254-2.075 9.552l1.023 0.056c15.322 16.943 49.69 15.066 55.347 14.612 2.786-5.117 4.946-10.092 6.282-14.441" style="fill:#521e1e"/></g><g transform="translate(767.38 1376)"><path d="m0 0c-0.483-1.023-1.023-2.104-1.535-3.241-13.247-28.028-38.717-94.347-36.13-184.86 0 0-32.15 15.037-55.801 26.067 5.77-1.393 33.515-7.277 37.324 7.362 4.264 16.346 24.162 116.55 51.167 156.35z" style="fill:#ba977b"/></g><g transform="translate(671.96 1353.4)"><path d="m0 0c11.825 5.799 24.049 12.565 36.528 20.467l0.227-0.341c-10.546-7.732-27.46-24.589-47.472-46.25 1.706 3.866 4.804 11.314 10.205 24.816 0.171 0.427 0.341 0.853 0.512 1.28z" style="fill:#9bb3db"/></g><g transform="translate(659.85 1325.8)"><path d="m0 0v-0.028c-42.839-46.449-99.379-114.19-138.78-162.23l-0.285 0.228 14.924 49.746-7.362 104.81c12.195-0.54 70.583-0.825 143.61 35.05-0.171-0.427-0.341-0.853-0.512-1.28-5.401-13.502-8.5-20.95-10.205-24.816 0 0-0.029 0-0.029-0.028-0.454-0.484-0.909-0.967-1.364-1.45" style="fill:#b0c4e6"/></g><g transform="translate(634.32 302.08)"><path d="m0 0c-2.303 5.287-9.807 4.463-11.2 14.896-1.279 9.579 3.553 14.582 3.553 14.582l0.029 0.626c2.245-0.114 5.543-0.199 9.579-0.142 6.311 0.028 14.356 0.426 22.685 1.648l0.057-0.369c12.848-6.993 24.617-21.548 32.065-35.135-27.517 11.029-54.409-0.654-56.143-1.422 0.029 2.161-0.056 3.895-0.454 4.946-0.029 0.114-0.086 0.199-0.143 0.313 0 0.029 0 0.029-0.028 0.057" style="fill:#521e1e"/></g><g transform="translate(665.9 1663.9)"><path d="m0 0c1.336 2.246-28.569-61.714-69.076-90.595-36.784-26.21-52.049-30.957-75.359-35.903-4.861-1.023-11.058-1.99-17.738-2.757-18.279-2.132-40.338-2.871-49.548 0.085-8.613 2.757-28.341 20.069-30.331 31.383l0.284 0.057s76.184-9.012 139.18 15.606c0.028 0 0.085 0 0.113 0.028l0.199-0.455c34.368 14.384 69.731 38.746 98.925 79.31 0.028 0 0.028 0.029 0.057 0.057 0.085 0.142 0.199 0.313 0.312 0.455l-0.113 0.142c1.79 1.308 2.899 2.246 3.098 2.587" style="fill:#4a2c22"/></g><g transform="translate(659.85 1325.8)"><path d="m0 0c0.455 0.483 0.91 0.966 1.364 1.45-2.814-6.339-1.876-3.07-1.364-1.478z" style="fill:#cca98d"/></g><g transform="translate(660.24 1873.6)"><path d="m0 0-0.171-0.398s-5.514-7.021-13.019-8.329c-12.166 2.331-24.646 3.042-35.761 2.985 7.448 2.16 12.878 9.068 12.878 17.198 0 1.052-0.114 2.075-0.285 3.07 11.712-3.923 25.471-9.381 36.358-14.526" style="fill:#fff"/></g><g transform="translate(666.36 334.97)"><path d="m0 0c-2.473-0.512-4.946-0.938-7.391-1.279-8.329-1.223-16.374-1.621-22.684-1.649v0.938c13.843 4.264 11.825 23.679 9.238 31.98-1.734 5.486-68.365 275.96-75.927 296.8-7.106 19.529-161.75 73.824-181.7 80.76 16.061-3.809 37.096-8.755 60.179-13.986 47.159-10.688 102.82-22.514 141.68-28.398l-0.114-0.824c2.643-59.525 76.723-364.34 76.723-364.34" style="fill:#b39176"/></g><g transform="translate(682.76 1072.5)"><path d="m0 0c7.988-2.502 37.694-13.247 66.859-42.754l-0.17-0.227c-9.978 6.822-20.837 13.048-32.35 18.733-19.159 9.466-40.166 17.397-61.941 24.049 2.757 0.171 12.991 0.625 27.574 0.199z" style="fill:#b08c6f"/></g><g transform="translate(655.16 1072.3)"><path d="m0 0c-1.45 0.455-2.928 0.881-4.378 1.336l0.057 0.171s0.256 0.369 0.768 1.023c0.938 1.251 2.7 3.639 5.003 6.794 2.757 0.057 69.446 1.279 113.65-21.86-31.809 9.324-64.869 12.081-87.497 12.735h-0.028c-14.583 0.426-24.817-0.028-27.574-0.199" style="fill:#b08c6f"/></g><g transform="translate(698.45 270.44)"><path d="m0 0c-4.975-9.949-36.244-12.081-52.589-5.685-4.577 1.791-7.306 5.003-8.898 8.869h0.029s38.489-13.048 60.548 9.75c1.791-5.685 2.218-10.319 0.91-12.934" style="fill:#2e1111"/></g><g transform="translate(623.01 1081.2)"><path d="m0 0 0.114 0.483s7.334 13.929 21.888 22.514c0.967 0.569 1.962 1.137 2.985 1.649 9.892 4.974 20.865-4.662 14.213-13.503-4.946-6.595-8.158-12.081-10.66-17.397l0.057-0.057c-0.512-0.653-0.767-1.023-0.767-1.023l-0.057-0.171c-9.154 2.701-18.449 5.203-27.773 7.505" style="fill:#7a5744"/></g><g transform="translate(647.99 1105.8)"><path d="m0 0c-1.023-0.512-2.018-1.08-2.985-1.649l-0.767 1.251 44.26 26.806 0.71-1.165c-6.395-12.878-23.565-37.012-32.605-49.406-2.302-3.155-4.065-5.543-5.003-6.794l-0.057 0.057c2.502 5.316 5.714 10.802 10.66 17.397 6.652 8.841-4.321 18.478-14.213 13.503" style="fill:#ba977b"/></g><g transform="translate(634.89 283.18)"><path d="m0 0c-0.398 4.946-0.028 9.892 0.057 13.588 1.734 0.767 28.625 12.451 56.142 1.421v-0.028c0.057-0.086 0.114-0.199 0.171-0.313-5.657 0.455-40.025 2.331-55.347-14.611z" style="fill:#752b2b"/></g><g transform="translate(609.73 1084.3)"><path d="m0 0 0.057 0.256 34.453 20.865 0.767-1.251c-14.554-8.585-21.888-22.514-21.888-22.514l-0.114-0.483c-4.434 1.109-8.84 2.132-13.275 3.127" style="fill:#ba977b"/></g><g transform="translate(614.39 1891.1)"><path d="M 0,0 C -0.54,0.171 -1.08,0.313 -1.592,0.455 -1.08,0.313 -0.54,0.171 0,0" style="fill:#8f6a57"/></g><g transform="translate(611.72 1891.8)"><path d="M 0,0 C -0.426,0.114 -0.853,0.199 -1.251,0.313 -0.853,0.227 -0.426,0.114 0,0" style="fill:#8f6a57"/></g><g transform="translate(606.21 1893.1)"><path d="M 0,0 C -0.256,0.057 -0.512,0.114 -0.768,0.142 -0.54,0.085 -0.256,0.057 0,0" style="fill:#8f6a57"/></g><g transform="translate(598.13 1892.9)"><path d="m0 0c0.284 0.114 0.54 0.199 0.824 0.284 0.341 0.086 0.683 0.171 1.024 0.228 0.028 0.028 0.057 0.028 0.113 0.028 0.37 0.085 0.711 0.142 1.052 0.142 0.057 0.029 0.085 0.029 0.142 0.029 0.455 0.028 0.967 0 1.535-0.057 0.37 0 0.739-0.057 1.166-0.114 0.455-0.028 0.938-0.114 1.45-0.199 0.255-0.028 0.511-0.085 0.767-0.142 1.279-0.227 2.701-0.54 4.264-0.938 0.398-0.114 0.824-0.199 1.251-0.313 0.369-0.085 0.711-0.199 1.08-0.284 0.512-0.142 1.052-0.284 1.592-0.455 2.899-0.824 6.112-1.819 9.494-2.956 0.171-0.995 0.285-2.019 0.285-3.07 0-8.13-5.43-15.038-12.878-17.198-3.212-0.029-6.282-0.114-9.21-0.228-7.902 1.848-13.787 8.955-13.787 17.426 0 0.909 0.086 1.762 0.199 2.615v0.028c1.024 0.683 2.047 1.336 3.042 1.905 0.426 0.256 0.853 0.512 1.279 0.739 1.933 1.109 3.724 1.99 5.316 2.53"/></g><g transform="translate(603.99 1893.4)"><path d="M 0,0 C -0.426,0.057 -0.796,0.114 -1.165,0.114 -0.796,0.085 -0.398,0.057 0,0" style="fill:#8f6a57"/></g><g transform="translate(595.92 1637)"><path d="m0 0c8.187-0.341 16.743 1.166 24.987 3.61 2.189 0.654 4.349 1.365 6.481 2.161v-0.057c-99.521-54.352-203.25-33.686-204.64-33.43l-0.029 0.029c-2.075 4.491-3.411 8.727-2.615 11.114 0.625 1.876 2.018 4.463 3.866 7.192 4.804 7.022 12.735 15.123 18.563 14.782 8.073-0.455 15.691-11.683 22.428-10.774 6.709 0.91 17.027 20.183 31.383 20.638 14.355 0.455 68.167-13.9 99.578-15.265" style="fill:#5c372a"/></g><g transform="translate(588.3 1885.1)"><path d="m0 0c0-8.471 5.884-15.578 13.787-17.425-13.531-0.597-23.765-2.104-26.778-2.587l-0.028 0.113-8.073 3.298-1.763 0.91c0.142 0.142 0.512 0.483 1.109 1.023 1.279 1.137 3.553 3.127 6.367 5.486 4.406 3.696 10.148 8.244 15.578 11.797-0.114-0.853-0.199-1.705-0.199-2.615" style="fill:#fff"/></g><g transform="translate(588.78 1088.7)"><path d="m0 0 84.256 48.382c8.812 5.06 12.394 15.919 8.358 25.243l-20.553 47.273 44.374-67.257-16.715-10.12-78.713-47.671-0.057-0.256c-6.993 1.592-13.985 3.041-20.95 4.406" style="fill:#ba977b"/></g><g transform="translate(592.82 1890.4)"><path d="m0 0c-0.426-0.227-0.853-0.483-1.279-0.739 0.455 0.284 0.881 0.54 1.279 0.739" style="fill:#8f6a57"/></g><g transform="translate(764.8 1605.1)"><path d="m0 0c-12.707-34.311-189.52-115.61-189.52-115.61v-0.227c-10.887-0.711-28.824-0.085-48.154 1.478l0.057 0.654c-4.435 4.975-8.955 12.65-12.821 20.183 44.516 3.212 101.17 14.526 151.88 46.619 103.27 65.381 119.39 476.6 87.184 538.2-32.235 61.6-113.73 93.807-172.46 68.223l-0.683 1.251c23.14 12.309 46.79 21.576 64.159 20.552 48.325-2.842 153.5-58.274 179.09-170.56 0 0-6.14-62.282-8.073-95.2h-0.028c-0.512-8.983-0.739-15.777-0.427-18.506l0.142-0.17c-9.835-7.249-17.368-14.64-17.368-14.64l-6.68-22.002 0.454-0.142s48.325 66.802 69.645 28.426l0.455 0.199c6.794-15.89 10.831-35.902 10.575-42.355-0.284-7.164-12.764-34.169-24.646-62.368l-0.938 0.398c-24.418-51.765-64.813-43.692-64.813-43.692l-1.535-0.256c0.427-2.672 0.91-5.486 1.336-8.016 0.399-2.331 3.668-6.168 8.386-9.636l-1.08-0.569s-11.371-87.667-24.134-122.23m43.976 226.25c-5.43-10.433-9.608-21.747-11.2-26.295l2.302-0.426c0.455 1.421 6.169 17.965 18.762 0.085h0.028c1.422 4.321 7.42 25.214-8.641 26.01z" style="fill:#7a5744"/></g><g transform="translate(752.35 1561.3)"><path d="m0 0c-47.359-24.049-152.54-67.968-170.44-71.322-1.734-0.313-3.952-0.569-6.624-0.711v0.228s176.81 81.3 189.52 115.61c12.763 34.567 24.134 122.23 24.134 122.23l1.08 0.569s0 0.028 0.029 0c2.928-2.132 6.452-4.122 10.148-5.458v-0.028l-0.199-0.569c-3.667-8.585-7.476-34.936-11.172-63.05 0 0 0-0.028-0.028-0.057-4.861-37.011-9.552-77.036-13.588-83.488-1.507-2.417-10.092-7.448-22.855-13.958" style="fill:#663d2f"/></g><g transform="translate(565.78 1870.9)"><path d="m0 0-10.404 85.28-0.029 1.734c10.206-0.512 78.031 19.188 98.186 16.942l-0.086-0.682c-84.796-3.781-81.498-96.167-81.498-96.167l0.966-2.076c-2.814-2.359-5.088-4.349-6.368-5.486z" style="fill:#7a5744"/></g><g transform="translate(566.12 901)"><path d="m0 0c-9.494-0.966-17.624 2.644-17.624 2.644l-1.137 0.739c6.424 10.12 11.853 20.95 12.507 29.45l0.057 0.199c10.546-3.241 21.121-6.453 31.525-9.609-5.628-17.141-16.118-22.457-25.328-23.423" style="fill:#7a5744"/></g><g transform="translate(548.5 903.64)"><path d="m0 0s8.13-3.61 17.624-2.644c-4.804-16.459-6.452-37.324-6.907-58.644-67.286 12.735-147.56 38.916-206.58 60.549 3.696 14.384 7.363 23.025 7.59 25.385 83.176-27.745 164.62-53.868 164.62-53.868s12.451 14.042 22.514 29.961z" style="fill:#ba977b"/></g><g transform="translate(356.42 751.33)"><path d="m0 0c-1.137 4.179-2.16 8.301-3.098 12.337-15.01 64.5-7.733 112.11-0.683 139.23 59.014-21.632 139.29-47.813 206.58-60.548-0.967-46.961 4.008-96.025-5.742-104.3-14.214-12.081-105.18-8.528-105.18-8.528l-0.228-0.995c-23.082 5.23-44.118 10.177-60.179 13.986-0.057 0.028-0.114 0.057-0.142 0.057-19.017 4.548-31.013 7.504-31.013 7.504-0.114 0.427-0.228 0.853-0.313 1.251" style="fill:#cca98d"/></g><g transform="translate(353.89 1859.5)"><path d="m0 0-0.313 0.085c5.202 19.586 9.438 34.027 9.438 34.027s30.359 16.715 40.991 19.245c9.608 2.274 50.201-5.231 58.189-6.737-0.995 29.961-5.373 51.452-5.373 51.452s-37.892 2.359-49.32 0c-9.522-1.99-48.438-25.812-62.254-34.425 10.632 10.688 49.718 52.93 44.772 94.12-8.045 67.257 9.011 94.746 44.999 133.12l0.54-0.029c0.029 0.398 0.086 0.91 0.143 1.535h0.028c20.297-14.81 54.01-38.432 63.732-39.399 0 0 39.627 31.468 80.817 53.357l0.682-1.251c58.729 25.584 140.23-6.623 172.46-68.224 32.207-61.6 16.089-472.82-87.184-538.2-50.713-32.094-107.37-43.407-151.88-46.62h-0.029c-42.526-3.07-73.994 1.28-78.684 1.962 0 0 0 0.028-0.029 0.028-13.048 24.22-47.301 106.46-72.402 169.05 0 0 0 0.028-0.029 0.057 0 0.028 0 0.056-0.028 0.085-24.873 100.09-13.702 159.59-9.267 176.76m346.46 98.526c5.203-1.876 26.039 26.068 21.775 32.236-4.264 6.14-47.358 39.797-59.696 42.64-12.308 2.843-125.53-21.32-129.8-30.331s15.635-42.157 21.803-44.545c0.228-0.085 0.512-0.142 0.91-0.142l0.028-1.734 10.404-85.279 0.768-0.455c-0.597-0.54-0.967-0.881-1.109-1.024l1.763-0.909 8.073-3.298 0.028-0.113c3.013 0.483 13.247 1.99 26.778 2.586 1.336-0.341 2.729-0.511 4.15-0.511 1.763 0 3.468 0.256 5.06 0.739 11.115 0.057 23.594-0.654 35.761-2.985 7.504 1.308 13.019 8.329 13.019 8.329l0.171 0.398c-10.888 5.145-24.646 10.603-36.358 14.526-3.383 1.137-6.595 2.132-9.494 2.956-0.54 0.171-1.081 0.313-1.592 0.455-0.37 0.085-0.711 0.199-1.08 0.284-0.427 0.114-0.853 0.228-1.251 0.313-1.564 0.398-2.985 0.711-4.264 0.938-0.256 0.057-0.54 0.085-0.768 0.142-0.511 0.086-0.995 0.171-1.449 0.199-0.398 0.057-0.796 0.086-1.166 0.114-0.568 0.057-1.08 0.085-1.535 0.057-0.057 0-0.085 0-0.142-0.029-0.341 0-0.682-0.056-1.052-0.142-0.057 0-0.085 0-0.114-0.028-0.312-0.028-0.653-0.142-1.023-0.228-0.256-0.085-0.54-0.17-0.824-0.284-1.592-0.54-3.383-1.421-5.316-2.53-0.398-0.199-0.824-0.455-1.279-0.739-0.995-0.568-2.019-1.222-3.042-1.904v-0.029c-5.429-3.553-11.172-8.101-15.578-11.797l-0.966 2.075s-3.298 92.387 81.499 96.167l0.085 0.682c1.279-0.142 2.359-0.369 3.212-0.682 15.18-5.685 38.376-14.213 43.606-16.118m-113.22-315.05c-20.325 2.246-76.297 17.539-91.448 18.478-15.152 0.938-32.691-18.478-32.691-18.478s-7.59 3.781-18.022 4.747c-9.438 0.853-20.098-16.259-21.974-19.415l0.966-0.654c-1.847-2.729-3.24-5.315-3.866-7.192-0.796-2.387 0.54-6.623 2.616-11.114l0.028-0.029c3.752-8.187 9.892-17.141 9.892-17.141l0.199-0.085 0.711-0.341s-5.657-7.221-8.414-15.578c-0.881-2.672-1.45-5.486-1.45-8.215 0-0.569 0.057-1.166 0.171-1.791 1.99-11.314 21.718-28.626 30.331-31.383 9.21-2.956 31.269-2.217 49.547-0.085 6.68 0.767 12.877 1.734 17.738 2.757 23.31 4.946 38.575 9.693 75.359 35.903 40.508 28.881 70.413 92.841 69.076 90.595-0.198-0.341-1.307-1.279-3.098-2.587-5.941-4.321-19.614-12.849-35.419-18.562-2.132-0.796-4.293-1.507-6.482-2.161-3.581 0.114-18.875 0.654-33.77 2.331m-59.781 49.974c8.499-1.961 43.975-3.468 51.764 22.031 2.161 7.078 2.303 13.673 0.967 19.642l-1.024-0.199c-14.213-37.921-73.425-24.645-73.425-24.645l-1.024 0.71c1.137 1.621 2.104 3.127 2.928 4.492h-0.028c-55.887-43.578-115.13-24.163-115.13-24.163l-0.057-0.028c7.476-11.996 20.922-21.292 42.241-21.292 17.653 0 30.388 5.117 41.219 12.792 0 0 27.147 17.397 48.524 11.627h0.057c0.682-0.256 1.393-0.484 2.103-0.711 0.199-0.057 0.427-0.114 0.683-0.199 0.056 0 0.142-0.029 0.199-0.057m-104.07 71.066c-13.417-3.326-34.623-15.805-38.063-39.029l0.54-0.057s21.491-5.032 43.578 7.59c13.275 7.59 19.899 26.522 19.899 26.522l0.284 0.597c-12.28 5.77-26.238 4.377-26.238 4.377m-41.645 91.932c1.99 0.057 16.374 1.108 33.572 0.54 8.755-0.256 18.193-0.938 27.119-2.36 6.311 2.104 10.233 12.48 10.233 12.48l0.228 0.369c-3.013 1.734-19.387 11.03-30.701 14.953-3.354 1.193-6.282 1.904-8.272 1.819-7.192-0.341-31.61-10.603-42.782-15.436v-0.028l0.512-1.222s2.302-5.06 10.091-11.115" style="fill:#8f6a57"/></g><g transform="translate(722.13 1990.2)"><path d="m0 0c4.264-6.169-16.573-34.112-21.775-32.236-5.23 1.905-28.426 10.433-43.606 16.118-0.853 0.313-1.933 0.54-3.212 0.682-20.155 2.246-87.98-17.454-98.185-16.942-0.398 0-0.683 0.057-0.91 0.142-6.169 2.388-26.067 35.533-21.803 44.545 4.264 9.011 117.49 33.173 129.8 30.331 12.337-2.843 55.432-36.5 59.696-42.64" style="fill:#381f17"/></g><g transform="translate(527.18 1491.4)"><path d="m0 0-0.057-0.654c-22.229 1.734-46.335 4.719-63.732 8.272-11.996 2.445-20.808 5.202-23.623 8.017-0.909 0.909-2.302 3.155-4.121 6.509 4.69-0.682 36.158-5.031 78.684-1.961h0.029c3.866-7.533 8.385-15.208 12.82-20.183" style="fill:#7a5744"/></g><g transform="translate(527.15 1693)"><path d="m0 0c-0.256 0.085-0.483 0.142-0.682 0.199-0.711 0.227-1.422 0.455-2.104 0.711 0.938-0.256 1.876-0.54 2.786-0.91" style="fill:#7a5744"/></g><g transform="translate(526.16 1325.2)"><path d="m0 0c-1.734-0.426-3.411-0.767-5.031-1.08-13.816-2.587-23.623-0.967-30.388 1.848l0.199 0.483s6.879 48.382 35.447 41.616v-0.028c0.057-15.379 0.029-31.355-0.227-42.839" style="fill:#314463"/></g><g transform="translate(526.16 1325.2)"><path d="m0 0c0.256 11.484 0.284 27.46 0.227 42.839v0.028c-0.085 25.186-0.398 48.865-0.398 48.865l0.171 1.365c41.474-5.032 98.015-0.967 164.19 31.98 0 0 0.028-0.029 0.028 0 0.483-4.748 3.553-41.588-18.42-96.935v-0.028c-73.028-35.874-131.42-35.59-143.61-35.05-1.564 0.057-2.36 0.114-2.36 0.114 0.086 2.018 0.143 4.32 0.171 6.822" style="fill:#b0c4e6"/></g><g transform="translate(520.78 1418.2)"><path d="m0 0 0.114 0.853c1.705-0.228 3.468-0.455 5.259-0.682l-0.171-1.365s0.313-23.679 0.398-48.865c-28.569 6.765-35.448-41.617-35.448-41.617l-0.199-0.483c-3.127 1.336-5.6 2.9-7.533 4.435-3.439 2.729-5.088 5.344-5.515 6.083 8.244 20.609 25.783 61.543 43.095 81.641" style="fill:#24334a"/></g><g transform="translate(521.15 1324)"><path d="m0 0s12.422-115.84-15.293-161.66c-29.422-48.694-62.88-53.669-62.88-53.669h-0.455l-1.677 117.26 41.958 103.81 0.398 0.711c1.933-1.535 4.406-3.099 7.533-4.435 6.765-2.814 16.572-4.434 30.388-1.847z" style="fill:#314463"/></g><g transform="translate(524.37 1693.9)"><path d="m0 0h-0.057c-12.28 4.435-19.756 11.939-27.972 6.538 3.326 3.383 6.084 6.879 8.273 10.035l1.023-0.711s59.212-13.275 73.426 24.646l1.023 0.199c1.336-5.97 1.194-12.565-0.966-19.643-7.789-25.499-43.266-23.992-51.765-22.03-0.057 0.028-0.142 0.056-0.199 0.056-0.91 0.37-1.848 0.654-2.786 0.91" style="fill:#7a5744"/></g><g transform="translate(496.34 1700.4)"><path d="m0 0c-1.677-1.734-3.525-3.44-5.515-5.06 0.825 0.825 1.649 1.677 2.473 2.53 1.024 1.052 2.047 1.905 3.042 2.53" style="fill:#8f6a57"/></g><g transform="translate(524.31 1693.9)"><path d="m0 0c-21.377 5.771-48.524-11.626-48.524-11.626 5.23 3.752 10.034 8.101 14.696 12.792 0.114 0.113 0.228 0.227 0.342 0.312 1.989 1.621 3.837 3.326 5.514 5.06 8.216 5.401 15.692-2.103 27.972-6.538" style="fill:#5c372a"/></g><g transform="translate(507.54 1715)"><path d="m0 0c-0.824-1.365-1.791-2.871-2.928-4.491-2.189-3.156-4.946-6.652-8.272-10.035-0.995-0.625-2.018-1.478-3.042-2.53-0.824-0.853-1.648-1.705-2.473-2.53-0.113-0.085-0.227-0.199-0.341-0.313-4.662-4.69-9.466-9.039-14.696-12.792-10.831-7.675-23.566-12.791-41.219-12.791-21.32 0-34.766 9.295-42.242 21.291l0.057 0.028s59.241-19.415 115.13 24.163z" style="fill:#7a5744"/></g><g transform="translate(559.22 842.35)"><path d="m0 0c0.455 21.32 2.104 42.185 6.908 58.644 9.21 0.966 19.699 6.282 25.328 23.423 12.991-3.922 25.726-7.76 37.892-11.37l-0.17-0.54-18.534-43.351c-13.134-41.133 7.902-172.46 7.902-172.46-7.789 0.541-17.596 1.734-28.796 3.44-38.859 5.884-94.518 17.71-141.68 28.398l0.228 0.995s90.965-3.553 105.18 8.528c9.75 8.272 4.775 57.336 5.742 104.3" style="fill:#ba977b"/></g><g transform="translate(451.68 1441.3)"><path d="m0 0c-0.37 0.227-0.54 0.341-0.54 0.341 2.615 9.637 6.595 28.682 9.267 41.901l1.165-0.228s94.86-29.222 199.21 11.03c29.138 11.257 31.014-38.12 29.507-43.464 0 0 0.029-0.171 0.057-0.54-66.177-32.947-122.72-37.012-164.19-31.98-1.791 0.227-3.554 0.455-5.259 0.682-2.957 0.426-5.828 0.91-8.614 1.421-35.305 6.396-56.995 18.677-60.605 20.837" style="fill:#8f6a57"/></g><g transform="translate(449.52 1759.6)"><path d="m0 0-0.284-0.597s-6.624-18.932-19.899-26.522c-22.087-12.621-43.578-7.59-43.578-7.59l-0.54 0.057c3.44 23.225 24.646 35.704 38.063 39.03 0 0 13.958 1.393 26.238-4.378" style="fill:#a87d66"/></g><g transform="translate(505.86 1162.3)"><path d="m0 0c27.716 45.823 15.293 161.66 15.293 161.66l-0.028 0.17c1.62 0.313 3.298 0.654 5.032 1.08-0.029-2.501-0.086-4.804-0.171-6.822 0 0 0.796-0.057 2.359-0.114l7.363-104.81-14.924-49.747 0.284-0.227c-27.744-33.856-47.017-57.933-47.017-57.933l-0.114-1.649c-11.598 0.909-22.173 1.563-31.44 2.018l0.057 1.365-0.028 1.336h0.455s33.458 4.974 62.879 53.669" style="fill:#24334a"/></g><g transform="translate(595.92 1637)"><path d="m0 0c-31.411 1.365-85.223 15.72-99.578 15.265-14.356-0.455-24.674-19.728-31.383-20.638-6.737-0.909-14.355 10.319-22.428 10.774-5.828 0.341-13.759-7.76-18.563-14.782l-0.967 0.654c1.877 3.155 12.537 20.268 21.974 19.415 10.433-0.966 18.023-4.747 18.023-4.747s17.539 19.415 32.69 18.477 71.123-16.231 91.448-18.477c14.896-1.677 30.189-2.217 33.771-2.331-8.244-2.444-16.8-3.951-24.987-3.61" style="fill:#a87d66"/></g><g transform="translate(414.53 1106.9)"><path d="m0 0v0.37l24.504 241.65 1.137 1.194c8.641-8.528 19.642-17.908 32.776-26.067 0 0 1.734 4.833 4.747 12.423 0.426-0.74 2.075-3.355 5.514-6.084l-0.398-0.71-41.957-103.81 1.677-117.26 0.029-1.336-0.057-1.365c-11.655 0.597-21.178 0.881-27.972 0.995" style="fill:#9bb3db"/></g><g transform="translate(520.78 1418.2)"><path d="m0 0c-17.312-20.098-34.851-61.032-43.095-81.641-3.013-7.59-4.747-12.422-4.747-12.422-13.133 8.158-24.134 17.539-32.776 26.067l-1.137 1.137 0.029 0.057s25.697-12.309 35.533 6.026c10.319 19.188 19.273 34.083 37.665 62.908l0.028 0.142c2.786-0.512 5.657-0.995 8.614-1.421z" style="fill:#9bb3db"/></g><g transform="translate(418.79 1375)"><path d="m0 0-0.796 1.194c1.649 30.729 29.564 60.804 33.685 65.04 3.611-2.161 25.3-14.441 60.606-20.837l-0.029-0.142c-18.392-28.824-27.346-43.72-37.665-62.908-9.835-18.335-35.533-6.026-35.533-6.026l-0.028-0.057c-1.734 1.734-3.355 3.411-4.89 5.06h-0.028c-8.187 8.812-13.389 15.947-15.322 18.676" style="fill:#b0c4e6"/></g><g transform="translate(422.74 1609.3)"><path d="m0 0c1.393-0.256 105.12-20.922 204.64 33.43v0.056c15.805 5.714 29.478 14.242 35.419 18.563l0.114-0.142c-0.114-0.142-0.228-0.313-0.313-0.455-0.028-0.028-0.028-0.057-0.057-0.057-96.366-86.331-229.46-68.081-229.46-68.081l-0.256-0.54-0.199 0.085s-6.14 8.954-9.892 17.141" style="fill:#4a2c22"/></g><g transform="translate(409.18 1357.8)"><path d="m0 0c3.639 6.112 6.908 11.911 9.608 17.198 1.933-2.729 7.135-9.864 15.322-18.676l-0.028-0.029s-14.214-127.21-23.452-181.22c-9.239-54.01-34.823-46.193-34.823-46.193l-1.734-0.625-26.977 74.477 64.785 61.288-70.043-3.525s42.469 55.716 67.342 97.304" style="fill:#cca98d"/></g><g transform="translate(563.31 1581.8)"><path d="m0 0c-2.871-0.853-65.978-19.074-138.18-5.657 2.757 8.358 8.414 15.578 8.414 15.578l-0.711 0.341 0.256 0.54s133.09-18.25 229.46 68.082c-29.194-40.565-64.557-64.926-98.924-79.31l-0.199 0.454c-0.029-0.028-0.086-0.028-0.114-0.028" style="fill:#5c372a"/></g><g transform="translate(442.33 1854.1)"><path d="m0 0c-8.926 1.421-18.364 2.104-27.119 2.359l0.029 1.479c8.897 0 16.089 7.22 16.089 16.117 0 1.138-0.114 2.246-0.341 3.326-3.184 1.479-6.339 2.843-9.154 3.809l0.256 0.711c11.314-3.923 27.688-13.218 30.701-14.952l-0.227-0.37s-3.923-10.375-10.234-12.479" style="fill:#fff"/></g><g transform="translate(563.31 1581.8)"><path d="m0 0c-62.993-24.617-139.18-15.606-139.18-15.606l-0.285-0.057c-0.113 0.625-0.17 1.222-0.17 1.791 0 2.729 0.568 5.543 1.45 8.215 72.203-13.417 135.31 4.804 138.18 5.657" style="fill:#8a6653"/></g><g transform="translate(418.79 1375)"><path d="m0 0c-2.701-5.287-5.97-11.086-9.608-17.198-65.523 8.841-249.22-305.16-252.06-309.99 39.427 124.34 192.62 300.27 203.11 306.38 10.518 6.14 57.763 22.002 57.763 22.002l0.796-1.194" style="fill:#e3bc9d"/></g><g transform="translate(414.5 1882.8)"><path d="m0 0c1.762 0.085 4.349-0.54 7.334-1.592 2.814-0.966 5.97-2.331 9.153-3.809 0.228-1.08 0.341-2.189 0.341-3.326 0-8.898-7.191-16.118-16.089-16.118-8.897 0-16.089 7.22-16.089 16.118 0 1.535 0.227 3.042 0.625 4.463 6.339 2.331 11.968 4.122 14.725 4.264"/></g><g transform="translate(588.78 1088.7)"><path d="m0 0c6.965-1.365 13.957-2.814 20.95-4.406 4.435-0.995 8.841-2.018 13.276-3.127 9.323-2.303 18.619-4.804 27.772-7.505 1.45-0.454 2.928-0.881 4.378-1.336 21.775-6.652 42.782-14.582 61.941-24.048l-0.17-0.37c-170.56 55.432-314.82 43.35-314.82 43.35l-1.052 0.114 1.194 10.717 0.569 5.031s4.178 0.029 11.711-0.17c6.794-0.114 16.317-0.398 27.972-0.995 9.267-0.455 19.842-1.109 31.44-2.018 32.605-2.53 73.198-7.05 114.84-15.237" style="fill:#e3bc9d"/></g><g transform="translate(402.25 1102.1)"><path d="m0 0c-5.088 4.747-13.474 7.675-22.116 9.438l-6.055 16.771 1.734 0.626s25.584-7.818 34.823 46.193c9.238 54.01 23.452 181.22 23.452 181.22l0.028 0.028h0.029c1.535-1.649 3.155-3.326 4.889-5.06l1.137-1.137-1.137-1.194-24.504-241.65v-0.369c-7.533 0.199-11.711 0.17-11.711 0.17z" style="fill:#ba977b"/></g><g transform="translate(323.96 1081.4)"><path d="m0 0v0.028c2.615 14.896 9.921 27.745 24.902 32.918 0 0 16.032 0.37 31.269-2.814 8.641-1.762 17.027-4.69 22.116-9.437l-1.194-10.717-0.569-5.145-0.511 0.056c-22.742-65.381-70.356-56.142-70.356-56.142l-0.455-0.227c-3.326 9.324-5.913 21.462-6.339 33.657-0.028 1.165-0.057 2.302-0.057 3.468 0 4.861 0.37 9.722 1.194 14.355" style="fill:#8f6a57"/></g><g transform="translate(371.03 1868.3)"><path d="m0 0c11.172 4.833 35.59 15.094 42.782 15.436 1.99 0.085 4.918-0.626 8.272-1.82l-0.256-0.71c-2.985 1.051-5.571 1.677-7.334 1.592-2.757-0.143-8.386-1.933-14.725-4.264-0.398-1.422-0.625-2.928-0.625-4.463 0-8.898 7.192-16.118 16.089-16.118l-0.028-1.478c-17.198 0.568-31.582-0.484-33.572-0.54-7.789 6.054-10.091 11.114-10.091 11.114l-0.512 1.223z" style="fill:#fff"/></g><g transform="translate(344.82 1013)"><path d="m0 0c14.924 0.54 46.932-0.199 46.932-0.199l0.569-0.057-0.825-7.476s0 0.028-0.028 0l-1.933-17.511s69.73-22.485 146.2-46.221c-4.208-4.435-9.609-7.903-15.948-10.518-9.21 1.876-140.06 29.109-149.18 51.054-6.254 15.009-20.808 27.119-25.783 30.928" style="fill:#ba977b"/></g><g transform="translate(785.63 921.41)"><path d="m0 0s-36.955-30.331-54.977-34.112c-6.197-1.307-48.496 10.177-101.31 25.755-12.167 3.61-24.902 7.447-37.893 11.37-10.404 3.156-20.978 6.368-31.525 9.608-8.101 2.53-16.174 5.003-24.191 7.477-76.467 23.736-146.2 46.221-146.2 46.221l1.933 17.511c0.028 0.028 0.028 0 0.028 0 4.52-1.336 268.12-79.936 339.64-58.246 56.484 17.113 135.85 202.74 164.99 275.31v0.028c6.311 15.777 10.262 26.21 11.115 28.398 2.643-4.321 5.06-8.584 7.248-12.849 0 0-52.105-225.51-128.86-316.47" style="fill:#ba977b"/></g><g transform="translate(382.2 337.95)"><path d="m0 0c1.194-6.026 4.065-22.173-1.421-24.873-21.292-10.546-58.559-28.455-69.617-33.06-8.528-3.554-25.243-4.605-36.244 0.369-1.933 0.853-3.638 2.417-5.06 4.435l0.768 0.54s88.804 18.335 95.826 52.163c0 0 0-0.029 0.028 0 4.889-0.057 10.319 0.113 15.692 0.71z" style="fill:#2e1111"/></g><g transform="translate(352.95 338.1)"><path d="m0 0c3.44-0.284 8.158-0.569 13.503-0.569-7.022-33.827-95.826-52.162-95.826-52.162l-0.768-0.54c-2.558 3.667-4.093 8.897-3.809 14.384v0.028c3.298 2.899 26.92 22.997 57.877 30.9l-0.057 0.255c6.197 1.308 12.081 2.53 17.056 3.582 2.785 0.597 5.116 2.502 6.253 5.088 0.029-0.142 0.029-0.255 0.057-0.397 0 0 2.161-0.285 5.714-0.569" style="fill:#521e1e"/></g><g transform="translate(363.19 1682.6)"><path d="M 0,0 C 0.028,-0.028 0.028,-0.057 0.028,-0.057 0,-0.028 0,-0.028 0,0" style="fill:#8f6a57"/></g><g transform="translate(366.46 337.53)"><path d="m0 0c-5.344 0-10.063 0.284-13.503 0.569l0.029 0.312s16.828 4.747 18.96 11.854-50.144 296.83-31.184 346.58v0.199l14.441-0.909c-30.558-14.924 30.559-357.46 30.559-357.46-1.194-0.171-2.388-0.313-3.582-0.426-5.373-0.597-10.802-0.768-15.692-0.711-0.028-0.028-0.028 0-0.028 0" style="fill:#b39176"/></g><g transform="translate(356.42 751.33)"><path d="m0 0-85.081-12.565-0.199-0.028c-1.279 6.197-1.961 9.608-1.961 9.608l-0.085 0.512c16.942 2.843 47.614 8.045 82.181 14.355l2.047 0.455c0.938-4.036 1.961-8.158 3.098-12.337" style="fill:#b39176"/></g><g transform="translate(347.18 339.06)"><path d="m0 0c-8.045 63.789-64.756 344.08-76.041 399.68l0.199 0.028 85.081 12.565c0.085-0.398 0.199-0.825 0.312-1.251 0 0 11.996-2.956 31.014-7.504 0.028 0 0.085-0.029 0.142-0.057 19.955-6.936 174.6-61.231 181.7-80.76 7.562-20.837 74.193-291.32 75.927-296.8 2.587-8.301 4.605-27.716-9.238-31.98v-0.938c-4.037-0.057-7.334 0.028-9.58 0.142-2.075 0.085-3.241 0.17-3.241 0.17-6.14 31.525-55.716 176.07-107.37 267.15-51.651 91.05-99.18 91.96-160.89 96.622l-14.44 0.909v-0.199c-18.961-49.746 33.315-339.47 31.183-346.58-2.131-7.107-18.96-11.854-18.96-11.854l-0.028-0.312c-3.554 0.284-5.714 0.568-5.714 0.568-0.029 0.142-0.029 0.256-0.057 0.398" style="fill:#cca98d"/></g><g transform="translate(353.32 763.67)"><path d="m0 0-2.047-0.455c-34.566-6.311-65.239-11.513-82.181-14.355-8.84-1.45-13.929-2.274-13.929-2.274-13.417 96.366 2.985 160.35 14.185 190.32 2.416-2.274 36.045-16.658 83.29-33.998-7.05-27.119-14.327-74.733 0.682-139.23" style="fill:#cca98d"/></g><g transform="translate(360.23 928.29)"><path d="m0 0c-0.227-2.359-3.894-11.001-7.59-25.385-47.245 17.34-80.873 31.724-83.29 33.998 4.179 11.257 7.647 17.71 8.528 19.273 25.556-8.84 54.068-18.448 82.352-27.886" style="fill:#ba977b"/></g><g transform="translate(334.59 1757.1)"><path d="m0 0c-3.695 12.906 9.352 66.376 18.989 102.42l0.313-0.086c-4.435-17.169-15.607-76.666 9.267-176.76-14.953 37.296-26.608 67.599-28.569 74.421" style="fill:#a87d66"/></g><g transform="translate(340.99 1012.8)"><path d="m0 0c-3.525-0.256-8.13 6.709-11.825 17.141l0.454 0.228s47.615-9.239 70.356 56.142l0.512-0.057-8.159-73.511-0.568 0.057s-32.008 0.739-46.932 0.199c-1.45-0.057-2.758-0.114-3.838-0.199" style="fill:#7a5744"/></g><g transform="translate(340.5 1920.1)"><path d="m0 0c0.483 0.313 2.16 1.365 4.69 2.956 0.029 0 0.029 0.029 0.057 0.029 13.816 8.613 52.731 32.434 62.254 34.424 11.428 2.36 49.32 0 49.32 0s4.378-21.49 5.373-51.452c-7.988 1.507-48.581 9.012-58.189 6.737-10.632-2.53-40.991-19.244-40.991-19.244s-22.741 21.774-22.741 25.584c0 0.227 0.085 0.54 0.227 0.966" style="fill:#381f17"/></g><g transform="translate(345.19 1923.1)"><path d="m0 0c-2.53-1.592-4.207-2.644-4.69-2.956 1.449 4.235 10.233 17.567 19.074 29.478 6.936 9.381 9.039 21.434 5.714 32.605-0.74 2.502-1.507 5.231-2.218 8.159h-0.028c-9.466 37.38-16.488 108.16 43.208 162.12 7.448 6.737 18.591 7.362 26.664 1.421 0.881-0.654 1.82-1.336 2.786-2.046-0.057-0.626-0.114-1.137-0.142-1.535l-0.54 0.028c-35.988-38.376-53.044-65.864-44.999-133.12 4.946-41.19-34.141-83.432-44.772-94.121-0.029 0-0.029-0.028-0.057-0.028" style="fill:#a87d66"/></g><g transform="translate(323.93 330.14)"><path d="m0 0c-30.956-7.903-54.579-28-57.876-30.9 0.341 6.226 3.041 12.792 9.21 17.739 4.861 3.951 28.398 9.181 48.609 13.417z" style="fill:#752b2b"/></g><g transform="translate(314.61 1077.1)"><path d="m0 0c-12.053 11.598-30.189 18.79-39.627 22.485l0.313 0.853c3.923-0.341 35.249-3.439 48.666-19.046v-0.028c-0.824-4.634-1.194-9.494-1.194-14.355h-0.17c-2.047 3.667-4.804 7.049-7.988 10.091" style="fill:#b08c6f"/></g><g transform="translate(253.94 1069.2)"><path d="m0 0s26.209 19.756 60.662 7.903c3.184-3.042 5.941-6.425 7.988-10.092h0.171c0-1.165 0.028-2.302 0.056-3.468l-1.023-0.028c-30.388 15.862-57.564 8.869-67.683 5.23z" style="fill:#b08c6f"/></g><g transform="translate(362.53 1990.2)"><path d="m0 0-78.685 129.91c-0.568 0.91-1.023 1.876-1.364 2.9-1.279 3.837-3.269 13.019 3.838 19.671 3.07 2.842 5.088 6.652 5.088 10.83 0 3.923 0.995 8.642 4.861 11.826 3.098 2.53 4.946 6.225 5.429 10.205 0.455 3.809 2.075 8.357 6.68 11.854 3.127 2.331 5.402 5.685 5.998 9.523 0.825 5.315 3.184 12.593 9.779 16.686 3.497 2.16 5.941 5.6 6.879 9.58 1.081 4.491 3.497 9.892 8.926 12.507 3.383 1.649 6.14 4.378 7.164 7.988 1.45 5.145 4.775 11.968 12.365 15.066 3.98 1.621 7.05 4.776 8.614 8.756 1.904 4.832 5.912 10.773 14.298 13.076 3.724 1.023 6.908 3.582 8.699 7.021 1.933 3.667 5.571 7.96 12.337 9.495 3.78 0.852 6.907 3.326 8.84 6.68 2.019 3.553 5.515 7.448 11.2 7.902 4.208 0.342 7.903 2.786 10.319 6.254 2.928 4.151 7.59 8.5 14.1 7.903 4.179-0.37 8.187 1.364 11.001 4.491 3.269 3.667 8.244 7.391 14.753 6.851 4.293-0.369 8.557 1.421 11.485 4.577 2.359 2.558 5.855 4.577 10.773 3.468 4.463-0.995 9.097-0.142 12.65 2.757 4.321 3.525 10.489 7.107 16.885 5.799 4.236-0.881 8.67-0.199 12.053 2.502 3.326 2.7 7.789 5.06 12.423 3.781 4.406-1.223 9.096-0.37 12.82 2.245 4.861 3.44 11.683 6.595 18.477 4.293 4.577-1.564 9.552-1.081 13.617 1.535 3.411 2.217 7.732 3.837 11.797 2.132 4.178-1.735 8.897-1.791 12.848 0.341 4.719 2.587 11.058 4.605 17.028 2.018 4.207-1.819 8.983-2.132 13.048 0 4.463 2.331 10.375 4.094 15.435 1.137 3.895-2.303 8.528-2.985 12.764-1.393 5.941 2.217 13.986 4.037 19.699 0.54 3.667-2.245 8.045-3.013 12.053-1.478 7.22 2.786 18.733 4.776 30.019-3.553 1.904-1.421 4.121-2.388 6.424-2.758-281.14-12.905-307.94-190.34-310.22-213.28h-0.028c-0.967 0.711-1.905 1.393-2.786 2.047-8.073 5.941-19.216 5.316-26.664-1.421-59.696-53.954-52.674-124.74-43.208-162.12z" style="fill:#4f2c20"/></g><g transform="translate(277.88 956.17)"><path d="m0 0c-49.405 17.084-87.866 31.269-92.756 35.59-4.093 3.61-8.044 9.438-11.598 16.004 8.443-2.899 70.526-24.361 114.16-40.877 41.162-15.578 175.16-59.412 232.1-35.903 6.339 2.615 11.74 6.083 15.947 10.518 8.016-2.473 16.089-4.946 24.191-7.476l-0.057-0.199c-0.654-8.5-6.083-19.33-12.508-29.45-10.063-15.919-22.513-29.962-22.513-29.962s-81.442 26.124-164.62 53.869c-28.285 9.437-56.797 19.045-82.352 27.886" style="fill:#ba977b"/></g><g transform="translate(173.53 1007.8)"><path d="m0 0h-0.028c-9.466 17.425-16.403 40.025-16.403 40.025s0 0.028 0.029 0.056c2.843 4.833 186.54 318.83 252.06 309.99-24.873-41.588-67.343-97.304-67.343-97.304l70.043 3.525-64.784-61.288 26.977-74.478 6.055-16.771c-15.237 3.184-31.269 2.814-31.269 2.814-14.981-5.174-22.287-18.022-24.902-32.918-13.417 15.606-44.743 18.705-48.666 19.046l-0.313-0.853c9.438-3.695 27.574-10.887 39.627-22.485-34.453 11.854-60.662-7.903-60.662-7.903l0.17-0.455c10.12 3.639 37.296 10.632 67.684-5.23l1.023 0.028c0.427-12.195 3.013-24.333 6.339-33.657 3.696-10.432 8.301-17.397 11.826-17.141 1.08 0.085 2.387 0.142 3.837 0.199 4.975-3.809 19.529-15.919 25.783-30.928 9.125-21.945 139.97-49.178 149.18-51.054-56.938-23.509-190.94 20.325-232.1 35.903-43.635 16.515-105.72 37.977-114.16 40.877" style="fill:#cca98d"/></g></g></g><g transform="matrix(.35278 0 0 -.35278 -263.09 -106.57)"><path d="m0 0c23.139 12.309 46.79 21.576 64.159 20.552 48.325-2.842 153.5-58.274 179.09-170.56 0 0-6.14-62.282-8.073-95.2h-0.029c-0.511-8.983-0.739-15.777-0.426-18.506" style="fill:none;stroke-linecap:round;stroke-linejoin:round;stroke-miterlimit:10;stroke-width:2.843;stroke:#000"/></g><g transform="matrix(.35278 0 0 -.35278 -339.69 63.856)"><path d="m0 0c-14.952 37.296-26.607 67.598-28.569 74.421-3.695 12.905 9.353 66.376 18.989 102.42 5.202 19.586 9.438 34.027 9.438 34.027s-22.741 21.775-22.741 25.584c0 0.227 0.085 0.54 0.227 0.966 1.45 4.236 10.234 17.568 19.074 29.479 6.936 9.38 9.04 21.433 5.714 32.605-0.739 2.501-1.507 5.23-2.217 8.158h-0.029c-9.466 37.381-16.487 108.16 43.209 162.12 7.447 6.737 18.591 7.362 26.664 1.421 0.881-0.654 1.819-1.336 2.785-2.047" style="fill:none;stroke-linecap:round;stroke-linejoin:round;stroke-miterlimit:10;stroke-width:2.843;stroke:#000"/></g><g transform="matrix(.35278 0 0 -.35278 -314.13 123.54)"><path d="m0 0c-13.048 24.219-47.302 106.46-72.402 169.05 0 0 0 0.028-0.029 0.056" style="fill:none;stroke-linecap:round;stroke-linejoin:round;stroke-miterlimit:10;stroke-width:2.843;stroke:#000"/></g><g transform="matrix(.35278 0 0 -.35278 -189.54 72.33)"><path d="m0 0c-4.861-37.011-9.551-77.036-13.588-83.489-1.506-2.416-10.091-7.447-22.855-13.957-47.358-24.049-152.54-67.968-170.44-71.322-1.734-0.313-3.952-0.569-6.624-0.711-10.887-0.711-28.824-0.085-48.154 1.478-22.23 1.734-46.335 4.719-63.732 8.272-11.996 2.445-20.809 5.202-23.623 8.017-0.909 0.909-2.302 3.155-4.122 6.509" style="fill:none;stroke-linecap:round;stroke-linejoin:round;stroke-miterlimit:10;stroke-width:2.843;stroke:#000"/></g><g transform="matrix(.35278 0 0 -.35278 -185.58 50.067)"><path d="m0 0c-3.667-8.585-7.476-34.936-11.172-63.05" style="fill:none;stroke-linecap:round;stroke-linejoin:round;stroke-miterlimit:10;stroke-width:2.843;stroke:#000"/></g><g transform="matrix(.35278 0 0 -.35278 -204.34 133.48)"><path d="m0 0c1.933 30.303 5.628 75.643 5.628 75.643" style="fill:none;stroke-linecap:round;stroke-linejoin:round;stroke-miterlimit:10;stroke-width:2.843;stroke:#000"/></g><g transform="matrix(.35278 0 0 -.35278 -304.39 129.11)"><path d="m0 0s-1.165-5.97-2.814-14.242c-2.672-13.218-6.652-32.264-9.267-41.9 0 0 0.17-0.114 0.54-0.342 3.61-2.16 25.299-14.44 60.605-20.836 2.786-0.512 5.657-0.995 8.613-1.422 1.706-0.227 3.468-0.454 5.259-0.682 41.475-5.031 98.015-0.966 164.19 31.98" style="fill:none;stroke-linecap:round;stroke-linejoin:round;stroke-miterlimit:10;stroke-width:2.843;stroke:#000"/></g><g transform="matrix(.35278 0 0 -.35278 -147.75 216.25)"><path d="m0 0c-32.776 53.698-98.185 110.89-132.18 138.66-13.19 10.773-21.633 17.112-21.633 17.112 11.371 24.646-3.809 78.657-3.809 78.657" style="fill:none;stroke-linecap:round;stroke-linejoin:round;stroke-miterlimit:10;stroke-width:2.843;stroke:#000"/></g><g transform="matrix(.35278 0 0 -.35278 -329.7 302.86)"><path d="m0 0-1.933-17.511s69.73-22.485 146.2-46.221c8.016-2.473 16.089-4.946 24.191-7.476 10.546-3.241 21.12-6.453 31.525-9.609 12.99-3.922 25.726-7.76 37.892-11.37 52.817-15.578 95.115-27.062 101.31-25.755 18.023 3.781 54.977 34.112 54.977 34.112 76.752 90.965 128.86 316.47 128.86 316.47-2.189 4.264-4.606 8.528-7.249 12.849" style="fill:none;stroke-linecap:round;stroke-linejoin:round;stroke-miterlimit:10;stroke-width:2.843;stroke:#000"/></g><g transform="matrix(.35278 0 0 -.35278 -203.35 294.33)"><path d="m0 0c-0.057 0.028-0.114 0.085-0.171 0.114-9.977 6.822-20.836 13.047-32.349 18.733-19.159 9.466-40.167 17.397-61.941 24.049-1.45 0.454-2.928 0.881-4.378 1.336-9.153 2.7-18.449 5.202-27.773 7.504-4.434 1.109-8.84 2.132-13.275 3.127-6.993 1.592-13.986 3.042-20.95 4.406-41.645 8.187-82.238 12.707-114.84 15.237-11.598 0.91-22.173 1.563-31.44 2.018-11.655 0.597-21.178 0.881-27.972 0.995-7.533 0.199-11.712 0.171-11.712 0.171l-0.568-5.032-1.194-10.717-0.569-5.145-8.158-73.511-0.824-7.476" style="fill:none;stroke-linecap:round;stroke-linejoin:round;stroke-miterlimit:10;stroke-width:2.843;stroke:#000"/></g><g transform="matrix(.35278 0 0 -.35278 -308.29 148.86)"><path d="m0 0s-0.171-0.171-0.483-0.512c-4.122-4.235-32.037-34.31-33.686-65.04 0 0 0.285-0.426 0.796-1.193 1.933-2.729 7.135-9.864 15.322-18.677h0.029c1.535-1.648 3.155-3.326 4.889-5.06 0.37-0.369 0.767-0.767 1.137-1.137 8.642-8.528 19.643-17.908 32.776-26.067 0 0 1.734 4.833 4.747 12.423 8.244 20.609 25.783 61.543 43.095 81.641" style="fill:none;stroke-linecap:round;stroke-linejoin:round;stroke-miterlimit:10;stroke-width:2.843;stroke:#000"/></g><g transform="matrix(.35278 0 0 -.35278 -230.75 180.04)"><path d="m0 0c11.825 5.799 24.049 12.565 36.528 20.467 11.712 7.391 23.679 15.748 35.732 25.243 3.07 2.416 6.14 4.889 9.21 7.448" style="fill:none;stroke-linecap:round;stroke-linejoin:round;stroke-miterlimit:10;stroke-width:2.843;stroke:#000"/></g><g transform="matrix(.35278 0 0 -.35278 -282.11 174.86)"><path d="m0 0c0.057-15.379 0.028-31.354-0.227-42.839-0.029-2.501-0.086-4.804-0.171-6.822 0 0 0.796-0.057 2.359-0.114 12.195-0.54 70.583-0.824 143.61 35.05" style="fill:none;stroke-linecap:round;stroke-linejoin:round;stroke-miterlimit:10;stroke-width:2.843;stroke:#000"/></g><g transform="matrix(.35278 0 0 -.35278 -282.25 157.61)"><path d="m0 0s0.313-23.679 0.398-48.865" style="fill:none;stroke-linecap:round;stroke-linejoin:round;stroke-miterlimit:10;stroke-width:2.843;stroke:#000"/></g><g transform="matrix(.35278 0 0 -.35278 -406.59 301.97)"><path d="m0 0c3.553-6.567 7.505-12.394 11.598-16.004 4.889-4.321 43.35-18.506 92.756-35.59 25.555-8.841 54.067-18.449 82.351-27.887 83.176-27.744 164.62-53.868 164.62-53.868s12.451 14.043 22.514 29.962c6.425 10.12 11.854 20.95 12.508 29.45" style="fill:none;stroke-linecap:round;stroke-linejoin:round;stroke-miterlimit:10;stroke-width:2.843;stroke:#000"/></g><g transform="matrix(.35278 0 0 -.35278 -412.38 287.85)"><path d="m0 0s6.936-22.599 16.402-40.025" style="fill:none;stroke-linecap:round;stroke-linejoin:round;stroke-miterlimit:10;stroke-width:2.843;stroke:#000"/></g><g transform="matrix(.35278 0 0 -.35278 -320.34 171.98)"><path d="m0 0s-47.245-15.862-57.763-22.002c-10.489-6.112-163.68-182.04-203.11-306.38" style="fill:none;stroke-linecap:round;stroke-linejoin:round;stroke-miterlimit:10;stroke-width:2.843;stroke:#000"/></g><g transform="matrix(.35278 0 0 -.35278 -369.69 320.03)"><path d="m0 0s-0.085-0.142-0.227-0.398c-0.882-1.563-4.35-8.016-8.528-19.273-11.2-29.962-27.603-93.95-14.185-190.32 0 0 5.088 0.825 13.929 2.274 16.942 2.843 47.614 8.045 82.181 14.356" style="fill:none;stroke-linecap:round;stroke-linejoin:round;stroke-miterlimit:10;stroke-width:2.843;stroke:#000"/></g><g transform="matrix(.35278 0 0 -.35278 -330.96 395.54)"><path d="m0 0c16.061-3.809 37.097-8.755 60.179-13.986 47.16-10.688 102.82-22.514 141.68-28.398 11.2-1.706 21.007-2.899 28.796-3.44 0 0-21.036 131.33-7.903 172.46l18.534 43.351" style="fill:none;stroke-linecap:round;stroke-linejoin:round;stroke-miterlimit:10;stroke-width:2.843;stroke:#000"/></g><g transform="matrix(.35278 0 0 -.35278 -340.72 329.86)"><path d="m0 0c0.028-0.114 0.028-0.256 0-0.426-0.227-2.36-3.894-11.001-7.59-25.385-7.05-27.119-14.327-74.734 0.682-139.23 0.938-4.037 1.962-8.159 3.099-12.337 0.085-0.398 0.199-0.825 0.313-1.251 0 0 11.996-2.957 31.013-7.505" style="fill:none;stroke-linecap:round;stroke-linejoin:round;stroke-miterlimit:10;stroke-width:2.843;stroke:#000"/></g><g transform="matrix(.35278 0 0 -.35278 -320.02 172.33)"><path d="m0 0c-0.028-0.057-0.057-0.142-0.114-0.199-2.7-5.287-5.969-11.086-9.608-17.198-24.873-41.588-67.342-97.304-67.342-97.304l70.043 3.525-64.784-61.288 26.976-74.477 6.055-16.772 0.256-0.682" style="fill:none;stroke-linecap:round;stroke-linejoin:round;stroke-miterlimit:10;stroke-width:2.843;stroke:#000"/></g><g transform="matrix(.35278 0 0 -.35278 -312.92 181.6)"><path d="m0 0-24.504-241.65" style="fill:none;stroke-linecap:round;stroke-linejoin:round;stroke-miterlimit:10;stroke-width:2.843;stroke:#000"/></g><g transform="matrix(.35278 0 0 -.35278 -234.53 189.26)"><path d="m0 0c20.012 21.661 36.926 38.518 47.472 46.25" style="fill:none;stroke-linecap:round;stroke-linejoin:round;stroke-miterlimit:10;stroke-width:2.843;stroke:#000"/></g><g transform="matrix(.35278 0 0 -.35278 -235.02 189.78)"><path d="m0 0c0.455 0.483 0.91 0.966 1.364 1.45" style="fill:none;stroke-linecap:round;stroke-linejoin:round;stroke-miterlimit:10;stroke-width:2.843;stroke:#000"/></g><g transform="matrix(.35278 0 0 -.35278 -300.57 267.46)"><path d="m0 0s19.273 24.077 47.017 57.933c39.4 48.041 95.94 115.78 138.78 162.23" style="fill:none;stroke-linecap:round;stroke-linejoin:round;stroke-miterlimit:10;stroke-width:2.843;stroke:#000"/></g><g transform="matrix(.35278 0 0 -.35278 -234.67 230.77)"><path d="m0 0 44.374-67.257-16.715-10.12-78.713-47.671" style="fill:none;stroke-linecap:round;stroke-linejoin:round;stroke-miterlimit:10;stroke-width:2.843;stroke:#000"/></g><g transform="matrix(.35278 0 0 -.35278 -230.08 229.22)"><path d="m0 0c-10.546 4.946-19.415 9.068-22.94 10.688l9.864-14.924" style="fill:none;stroke-linecap:round;stroke-linejoin:round;stroke-miterlimit:10;stroke-width:2.843;stroke:#000"/></g><g transform="matrix(.35278 0 0 -.35278 -194.93 168)"><path d="m0 0s-2.416-3.98-6.112-11.541c-0.483-1.023-1.023-2.104-1.535-3.241-13.246-28.028-38.717-94.347-36.13-184.86 0 0-32.15 15.037-55.801 26.067" style="fill:none;stroke-linecap:round;stroke-linejoin:round;stroke-miterlimit:10;stroke-width:2.843;stroke:#000"/></g><g transform="matrix(.35278 0 0 -.35278 -282.04 189.93)"><path d="m0 0c-0.142-0.028-0.284-0.085-0.426-0.114-1.734-0.426-3.412-0.767-5.032-1.08-13.815-2.587-23.622-0.967-30.388 1.848-3.127 1.336-5.6 2.899-7.533 4.434-3.439 2.729-5.088 5.344-5.515 6.084-0.085 0.142-0.113 0.199-0.113 0.199" style="fill:none;stroke-linejoin:round;stroke-miterlimit:10;stroke-width:2.843;stroke:#000"/></g><g transform="matrix(.35278 0 0 -.35278 -297.48 188.39)"><path d="m0 0-41.958-103.81 1.678-117.26 0.028-1.336" style="fill:none;stroke-linecap:round;stroke-linejoin:round;stroke-miterlimit:10;stroke-width:2.843;stroke:#000"/></g><g transform="matrix(.35278 0 0 -.35278 -281.41 192.41)"><path d="m0 0v-0.028l7.362-104.81-14.923-49.746" style="fill:none;stroke-linecap:round;stroke-linejoin:round;stroke-miterlimit:10;stroke-width:2.843;stroke:#000"/></g><g transform="matrix(.35278 0 0 -.35278 -353.52 275.98)"><path d="m0 0c2.615 14.896 9.921 27.744 24.902 32.918 0 0 16.032 0.369 31.269-2.814 8.641-1.763 17.027-4.691 22.116-9.438l0.028-0.028" style="fill:none;stroke-linecap:round;stroke-linejoin:round;stroke-miterlimit:10;stroke-width:2.843;stroke:#000"/></g><g transform="matrix(.35278 0 0 -.35278 -329.6 300.2)"><path d="m0 0s-32.008 0.739-46.932 0.199c-1.45-0.057-2.758-0.114-3.838-0.199-3.525-0.256-8.13 6.709-11.825 17.141-3.326 9.324-5.913 21.462-6.339 33.657-0.029 1.166-0.057 2.303-0.057 3.468 0 4.861 0.369 9.722 1.194 14.356" style="fill:none;stroke-linecap:round;stroke-linejoin:round;stroke-miterlimit:10;stroke-width:2.843;stroke:#000"/></g><g transform="matrix(.35278 0 0 -.35278 -354.28 282.29)"><path d="m0 0c-30.388 15.862-57.564 8.869-67.684 5.23-2.728-0.994-4.207-1.734-4.207-1.734" style="fill:none;stroke-linecap:round;stroke-linejoin:round;stroke-miterlimit:10;stroke-width:2.843;stroke:#000"/></g><g transform="matrix(.35278 0 0 -.35278 -372.84 268.7)"><path d="m0 0c0.853-0.512 2.928-1.308 5.799-2.445 9.438-3.695 27.574-10.887 39.627-22.485 3.183-3.042 5.941-6.424 7.987-10.091" style="fill:none;stroke-linecap:round;stroke-linejoin:round;stroke-miterlimit:10;stroke-width:2.843;stroke:#000"/></g><g transform="matrix(.35278 0 0 -.35278 -226.94 279.12)"><path d="m0 0c22.628-0.654 55.688-3.411 87.497-12.735 3.439-0.995 6.879-2.075 10.262-3.241" style="fill:none;stroke-linecap:round;stroke-linejoin:round;stroke-miterlimit:10;stroke-width:2.843;stroke:#000"/></g><g transform="matrix(.35278 0 0 -.35278 -236.94 279.2)"><path d="m0 0s0.256 0.028 0.739 0.028c2.757 0.171 12.991 0.626 27.574 0.199" style="fill:none;stroke-linecap:round;stroke-linejoin:round;stroke-miterlimit:10;stroke-width:2.843;stroke:#000"/></g><g transform="matrix(.35278 0 0 -.35278 -332.98 538.16)"><path d="m0 0c1.194 0.114 2.388 0.256 3.582 0.426 0 0-61.117 342.54-30.559 357.46 61.714-4.662 109.24-5.572 160.89-96.622 51.651-91.078 101.23-235.63 107.37-267.15 0 0 1.166-0.086 3.241-0.171 2.246-0.114 5.543-0.199 9.58-0.142 6.31 0.028 14.355 0.426 22.684 1.649 2.445 0.341 4.918 0.767 7.391 1.279 0 0-74.08 304.82-76.723 364.34" style="fill:none;stroke-linecap:round;stroke-linejoin:round;stroke-miterlimit:10;stroke-width:2.843;stroke:#000"/></g><g transform="matrix(.35278 0 0 -.35278 -372.84 393.48)"><path d="m0 0s0.682-3.411 1.961-9.608c11.286-55.602 67.997-335.89 76.041-399.68 0.029-0.142 0.029-0.256 0.057-0.398 0 0 2.161-0.284 5.714-0.569 3.44-0.284 8.158-0.568 13.503-0.568" style="fill:none;stroke-linecap:round;stroke-linejoin:round;stroke-miterlimit:10;stroke-width:2.843;stroke:#000"/></g><g transform="matrix(.35278 0 0 -.35278 -339.91 -44.629)"><path d="m0 0-78.685 129.91c-0.568 0.91-1.023 1.876-1.364 2.9-1.279 3.837-3.269 13.019 3.838 19.671 3.07 2.842 5.088 6.652 5.088 10.83 0 3.923 0.995 8.642 4.861 11.826 3.098 2.53 4.946 6.225 5.429 10.205 0.455 3.809 2.075 8.357 6.68 11.854 3.127 2.331 5.402 5.685 5.998 9.523 0.825 5.315 3.184 12.593 9.779 16.686 3.497 2.16 5.941 5.6 6.879 9.58 1.081 4.491 3.497 9.892 8.926 12.507 3.383 1.649 6.14 4.378 7.164 7.988 1.45 5.145 4.775 11.968 12.365 15.066 3.98 1.621 7.05 4.776 8.614 8.756 1.904 4.832 5.912 10.773 14.298 13.076 3.724 1.023 6.908 3.582 8.699 7.021 1.933 3.667 5.571 7.96 12.337 9.495 3.78 0.852 6.907 3.326 8.84 6.68 2.019 3.553 5.515 7.448 11.2 7.902 4.208 0.342 7.903 2.786 10.319 6.254 2.928 4.151 7.59 8.5 14.1 7.903 4.179-0.37 8.187 1.364 11.001 4.491 3.269 3.667 8.244 7.391 14.753 6.851 4.293-0.369 8.557 1.421 11.485 4.577 2.359 2.558 5.855 4.577 10.773 3.468 4.463-0.995 9.097-0.142 12.65 2.757 4.321 3.525 10.489 7.107 16.885 5.799 4.236-0.881 8.67-0.199 12.053 2.502 3.326 2.7 7.789 5.06 12.423 3.781 4.406-1.223 9.096-0.37 12.82 2.245 4.861 3.44 11.683 6.595 18.477 4.293 4.577-1.564 9.552-1.081 13.617 1.535 3.411 2.217 7.732 3.837 11.797 2.132 4.178-1.735 8.897-1.791 12.848 0.341 4.719 2.587 11.058 4.605 17.028 2.018 4.207-1.819 8.983-2.132 13.048 0 4.463 2.331 10.375 4.094 15.435 1.137 3.895-2.303 8.528-2.985 12.764-1.393 5.941 2.217 13.986 4.037 19.699 0.54 3.667-2.245 8.045-3.013 12.053-1.478 7.22 2.786 18.733 4.776 30.019-3.553 1.904-1.421 4.121-2.388 6.424-2.758 2.018-0.369 4.093-0.312 6.112 0.256 5.486 1.535 13.474 2.019 20.58-4.235 3.27-2.871 7.562-4.321 11.883-3.696 6.595 0.938 16.174 0.853 21.917-5.799 2.757-3.212 7.021-4.775 11.256-4.605 5.515 0.228 12.593-0.796 16.687-6.538 2.473-3.496 6.453-5.572 10.717-5.97 6.339-0.568 14.81-2.814 19.443-10.176 2.274-3.582 5.743-6.254 9.95-6.879 6.168-0.91 14.554-3.582 18.107-11.257 1.308-2.758 3.326-5.032 5.828-6.567 1.506-0.938 3.212-1.592 5.003-1.961 4.719-0.938 9.835-3.412 11.285-9.552 0.455-1.904 1.308-3.638 2.473-5.173 1.933-2.502 4.691-4.406 7.789-5.373 4.975-1.592 10.006-4.974 10.745-12.223 0.541-5.373 3.81-10.12 8.756-12.224 4.946-2.132 9.921-6.31 10.176-14.611 0.171-5.372 3.639-9.921 8.472-12.252 4.065-1.961 7.675-5.742 6.964-12.905-0.512-5.231 1.905-10.376 6.254-13.276 4.548-3.07 8.983-8.187 8.13-16.373-0.54-5.146 1.819-10.234 5.913-13.389 4.519-3.468 8.925-9.04 7.561-17.312-0.767-4.776 1.023-9.636 4.634-12.877 3.07-2.757 5.457-7.192 3.752-14.27-1.08-4.52-0.313-9.267 2.615-12.877 3.639-4.52 7.618-11.428 6.453-19.188-0.711-4.691 0.853-9.353 4.264-12.679 3.98-3.866 7.505-10.119 4.093-19.045-1.762-4.549-1.62-9.779 1.194-13.787 2.331-3.354 3.895-8.215 1.478-14.725-1.62-4.321-1.279-9.239 1.28-13.076 3.468-5.202 6.396-13.73 0.796-25.186-2.132-4.321-2.218-9.353 0.085-13.617 2.132-3.951 3.155-9.75-1.763-16.942-2.586-3.752-3.382-8.357-2.103-12.735 1.108-3.951 1.052-9.324-3.753-14.895-2.643-3.099-3.809-7.221-3.269-11.257 0.597-4.691 0.484-10.632-3.07-14.157-2.984-2.984-5.003-6.85-4.747-11.086 0.398-6.595-1.336-15.89-11.911-22.798-4.093-2.672-6.85-7.05-6.964-11.911-0.171-7.703-2.644-18.704-14.64-22.656-4.804-1.592-8.357-5.714-9.551-10.631-1.478-6.055-4.776-13.275-12.138-15.635-4.69-1.506-8.613-5.003-10.205-9.636-2.189-6.311-7.505-13.958-20.268-16.175-2.843-0.512-5.515-1.734-7.647-3.667-6.14-5.572-18.932-17.198-26.323-23.708-9.779-8.585-19.529-17.084-29.08-25.612-27.574-24.703-53.3-49.832-72.346-79.481 0 0 0-0.028-0.028-0.057-0.427-0.653-0.853-1.336-1.28-1.989" style="fill:none;stroke-linecap:round;stroke-linejoin:round;stroke-miterlimit:10;stroke-width:2.843;stroke:#000"/></g><g transform="matrix(.35278 0 0 -.35278 -339.74 -10.533)"><path d="m0 0s30.36 16.715 40.991 19.245c9.608 2.274 50.201-5.231 58.189-6.737 0.881-0.171 1.365-0.256 1.365-0.256" style="fill:none;stroke-linecap:round;stroke-linejoin:round;stroke-miterlimit:10;stroke-width:2.843;stroke:#000"/></g><g transform="matrix(.35278 0 0 -.35278 -281.77 60.256)"><path d="m0 0c8.5-1.961 43.976-3.468 51.765 22.031 2.16 7.078 2.302 13.673 0.966 19.642-4.093 18.279-22.286 30.473-39.484 31.156" style="fill:none;stroke-linecap:round;stroke-linejoin:round;stroke-miterlimit:10;stroke-width:2.843;stroke:#000"/></g><g transform="matrix(.35278 0 0 -.35278 -282.82 59.915)"><path d="m0 0c0.682-0.256 1.393-0.483 2.104-0.711 0.199-0.056 0.426-0.113 0.682-0.199" style="fill:none;stroke-linecap:round;stroke-linejoin:round;stroke-miterlimit:10;stroke-width:2.843;stroke:#000"/></g><g transform="matrix(.35278 0 0 -.35278 -294.65 59.394)"><path d="m0 0c0.824 0.824 1.649 1.677 2.473 2.53 1.023 1.052 2.047 1.905 3.042 2.53 8.215 5.401 15.691-2.104 27.971-6.538" style="fill:none;stroke-linecap:round;stroke-linejoin:round;stroke-miterlimit:10;stroke-width:2.843;stroke:#000"/></g><g transform="matrix(.35278 0 0 -.35278 -346.01 -20.953)"><path d="m0 0c13.815 8.613 52.731 32.435 62.254 34.424 11.428 2.36 49.32 0 49.32 0s4.378-21.49 5.373-51.452c1.421-42.81-4.008-102.93-38.916-142.1-13.418-3.326-34.624-15.805-38.063-39.029-0.256-1.535-0.398-3.099-0.455-4.748-0.398-9.466 1.848-20.268 7.561-29.45 7.477-11.995 20.922-21.291 42.242-21.291 17.653 0 30.388 5.117 41.219 12.792 5.23 3.752 10.034 8.102 14.696 12.792" style="fill:none;stroke-linecap:round;stroke-linejoin:round;stroke-miterlimit:10;stroke-width:2.843;stroke:#000"/></g><g transform="matrix(.35278 0 0 -.35278 -347.71 -19.88)"><path d="m0 0c0.028 0 0.057 0.028 0.085 0.057 0.484 0.313 2.161 1.364 4.691 2.956" style="fill:none;stroke-linecap:round;stroke-linejoin:round;stroke-miterlimit:10;stroke-width:2.843;stroke:#000"/></g><g transform="matrix(.35278 0 0 -.35278 -281.77 60.256)"><path d="m0 0c0.171-0.085 0.37-0.142 0.54-0.227" style="fill:none;stroke-miterlimit:10;stroke-width:2.843;stroke:#000"/></g><g transform="matrix(.35278 0 0 -.35278 -281.84 60.236)"><path d="m0 0c0.057 0 0.142-0.028 0.199-0.057" style="fill:none;stroke-linecap:round;stroke-linejoin:round;stroke-miterlimit:10;stroke-width:2.843;stroke:#000"/></g><g transform="matrix(.35278 0 0 -.35278 -299.96 64.017)"><path d="m0 0s27.147 17.397 48.524 11.626h0.057c0.938-0.255 1.876-0.54 2.786-0.909" style="fill:none;stroke-miterlimit:10;stroke-width:2.843;stroke:#000"/></g><g transform="matrix(.35278 0 0 -.35278 -318.48 35.185)"><path d="m0 0s13.957 1.393 26.238-4.378c4.491-2.103 8.755-5.145 12.052-9.579" style="fill:none;stroke-linecap:round;stroke-linejoin:round;stroke-miterlimit:10;stroke-width:2.843;stroke:#000"/></g><g transform="matrix(.35278 0 0 -.35278 -237.25 -39.184)"><path d="m0 0c1.279-0.142 2.359-0.37 3.212-0.682 15.18-5.686 38.376-14.214 43.606-16.118 5.203-1.876 26.039 26.067 21.775 32.236-4.264 6.14-47.358 39.797-59.695 42.639-12.309 2.843-125.53-21.32-129.8-30.331s15.635-42.156 21.803-44.544c0.228-0.085 0.512-0.142 0.91-0.142 10.205-0.512 78.031 19.188 98.185 16.942z" style="fill:none;stroke-linecap:round;stroke-linejoin:round;stroke-miterlimit:10;stroke-width:2.843;stroke:#000"/></g><g transform="matrix(.35278 0 0 -.35278 -189.54 2.1223)"><path d="m0 0 2.303 7.59 6.68 22.002s7.533 7.391 17.368 14.64c7.96 5.827 17.454 11.569 25.67 13.161 8.186 1.621 15.407-8.528 20.836-21.32 6.794-15.89 10.831-35.902 10.575-42.355-0.284-7.164-12.764-34.169-24.646-62.368-7.448-17.653-14.64-35.789-18.42-49.775-5.259-19.33-17.994-20.893-28.967-16.914v0.029c-3.695 1.336-7.22 3.326-10.148 5.458-0.029 0.028-0.029 0-0.029 0-4.718 3.468-7.988 7.305-8.386 9.636-0.426 2.53-0.909 5.344-1.336 8.017-0.966 5.77-1.819 10.83-1.819 10.83" style="fill:none;stroke-linecap:round;stroke-linejoin:round;stroke-miterlimit:10;stroke-width:2.843;stroke:#000"/></g><g transform="matrix(.35278 0 0 -.35278 -172.76 7.1865)"><path d="m0 0s0.426 10.319-8.983 8.954c-6.481-0.909-13.161-10.546-18.591-21.007-5.429-10.432-9.608-21.746-11.2-26.294-0.455-1.28-0.71-2.019-0.71-2.019" style="fill:none;stroke-linecap:round;stroke-linejoin:round;stroke-miterlimit:10;stroke-width:2.843;stroke:#000"/></g><g transform="matrix(.35278 0 0 -.35278 -179 20.835)"><path d="m0 0c1.421 4.321 7.419 25.214-8.642 26.01" style="fill:none;stroke-linecap:round;stroke-linejoin:round;stroke-miterlimit:10;stroke-width:2.843;stroke:#000"/></g><g transform="matrix(.35278 0 0 -.35278 -179.1 21.116)"><path d="m0 0s0.114 0.284 0.256 0.796" style="fill:none;stroke-linecap:round;stroke-linejoin:round;stroke-miterlimit:10;stroke-width:2.843;stroke:#000"/></g><g transform="matrix(.35278 0 0 -.35278 -247.71 -8.608)"><path d="m0 0c11.712-3.923 25.47-9.381 36.358-14.526 3.78-1.791 7.22-3.525 10.119-5.145" style="fill:none;stroke-linecap:round;stroke-linejoin:round;stroke-miterlimit:10;stroke-width:2.843;stroke:#000"/></g><g transform="matrix(.35278 0 0 -.35278 -251.62 -9.8113)"><path d="m0 0c0.512-0.142 1.052-0.284 1.592-0.455" style="fill:none;stroke-linecap:round;stroke-linejoin:round;stroke-miterlimit:10;stroke-width:2.843;stroke:#000"/></g><g transform="matrix(.35278 0 0 -.35278 -252.44 -10.022)"><path d="m0 0c0.398-0.114 0.824-0.199 1.251-0.313" style="fill:none;stroke-linecap:round;stroke-linejoin:round;stroke-miterlimit:10;stroke-width:2.843;stroke:#000"/></g><g transform="matrix(.35278 0 0 -.35278 -254.22 -10.403)"><path d="m0 0c0.227-0.057 0.512-0.085 0.768-0.142" style="fill:none;stroke-linecap:round;stroke-linejoin:round;stroke-miterlimit:10;stroke-width:2.843;stroke:#000"/></g><g transform="matrix(.35278 0 0 -.35278 -255.14 -10.513)"><path d="m0 0c0.37 0 0.739-0.057 1.165-0.114" style="fill:none;stroke-linecap:round;stroke-linejoin:round;stroke-miterlimit:10;stroke-width:2.843;stroke:#000"/></g><g transform="matrix(.35278 0 0 -.35278 -256.1 -10.473)"><path d="m0 0c0.37 0.085 0.711 0.142 1.052 0.142" style="fill:none;stroke-linecap:round;stroke-linejoin:round;stroke-miterlimit:10;stroke-width:2.843;stroke:#000"/></g><g transform="matrix(.35278 0 0 -.35278 -256.8 -10.283)"><path d="m0 0c0.284 0.114 0.54 0.199 0.824 0.284 0.37 0.086 0.711 0.199 1.024 0.228" style="fill:none;stroke-linecap:round;stroke-linejoin:round;stroke-miterlimit:10;stroke-width:2.843;stroke:#000"/></g><g transform="matrix(.35278 0 0 -.35278 -259.12 -9.1294)"><path d="m0 0c0.426 0.256 0.853 0.512 1.279 0.739" style="fill:none;stroke-linecap:round;stroke-linejoin:round;stroke-miterlimit:10;stroke-width:2.843;stroke:#000"/></g><g transform="matrix(.35278 0 0 -.35278 -268.34 -1.9893)"><path d="m0 0h0.028c0.143 0.142 0.512 0.483 1.109 1.023 1.279 1.137 3.553 3.127 6.368 5.487 4.406 3.695 10.148 8.243 15.577 11.797" style="fill:none;stroke-linecap:round;stroke-linejoin:round;stroke-miterlimit:10;stroke-width:2.843;stroke:#000"/></g><g transform="matrix(.35278 0 0 -.35278 -307.9 -1.0367)"><path d="m0 0s-0.171 0.085-0.483 0.284c-3.013 1.734-19.387 11.03-30.701 14.953-3.354 1.193-6.282 1.904-8.272 1.819-7.192-0.341-31.61-10.603-42.782-15.436v-0.028c-3.468-1.478-5.657-2.473-5.657-2.473" style="fill:none;stroke-linecap:round;stroke-linejoin:round;stroke-miterlimit:10;stroke-width:2.843;stroke:#000"/></g><g transform="matrix(.35278 0 0 -.35278 -255.14 -10.513)"><path d="m0 0c-0.569 0.057-1.08 0.085-1.535 0.057-0.057 0-0.085 0-0.142-0.029-0.341 0-0.682-0.056-1.052-0.142-0.057 0-0.085 0-0.114-0.028-0.341-0.057-0.682-0.142-1.023-0.228-0.256-0.085-0.54-0.17-0.824-0.284-1.592-0.54-3.383-1.421-5.316-2.53-0.398-0.199-0.825-0.455-1.279-0.739-0.995-0.568-2.019-1.222-3.042-1.905v-0.028c-0.114-0.853-0.199-1.706-0.199-2.615 0-8.471 5.884-15.578 13.787-17.426 1.336-0.341 2.729-0.511 4.15-0.511 1.763 0 3.468 0.256 5.06 0.739 7.448 2.16 12.877 9.068 12.877 17.198 0 1.052-0.113 2.075-0.284 3.07-3.383 1.137-6.595 2.132-9.494 2.956-0.541 0.171-1.081 0.313-1.592 0.455-0.37 0.085-0.711 0.199-1.08 0.284-0.427 0.114-0.853 0.228-1.251 0.313-1.564 0.398-2.985 0.711-4.264 0.938-0.256 0.057-0.512 0.114-0.768 0.142-0.511 0.086-0.995 0.171-1.45 0.199-0.397 0.057-0.795 0.086-1.165 0.114z" style="fill:none;stroke-linecap:round;stroke-linejoin:round;stroke-miterlimit:10;stroke-width:2.843;stroke:#000"/></g><g transform="matrix(.35278 0 0 -.35278 -318.99 -6.1611)"><path d="m0 0c-2.985 1.052-5.572 1.677-7.334 1.592-2.757-0.142-8.386-1.933-14.725-4.264-0.398-1.421-0.625-2.928-0.625-4.463 0-8.898 7.192-16.118 16.089-16.118 8.898 0 16.089 7.22 16.089 16.118 0 1.137-0.113 2.246-0.341 3.326-3.183 1.478-6.339 2.843-9.153 3.809z" style="fill:none;stroke-linecap:round;stroke-linejoin:round;stroke-miterlimit:10;stroke-width:2.843;stroke:#000"/></g><g transform="matrix(.35278 0 0 -.35278 -265.17 -.40488)"><path d="m0 0s0.313 0.057 0.91 0.171c3.013 0.483 13.246 1.989 26.777 2.586 2.928 0.114 5.998 0.199 9.211 0.228 11.114 0.057 23.594-0.654 35.76-2.985" style="fill:none;stroke-linecap:round;stroke-linejoin:round;stroke-miterlimit:10;stroke-width:2.843;stroke:#000"/></g><g transform="matrix(.35278 0 0 -.35278 -333.21 2.754)"><path d="m0 0h0.114c1.99 0.057 16.373 1.109 33.571 0.54 8.756-0.256 18.193-0.938 27.119-2.359" style="fill:none;stroke-linecap:round;stroke-linejoin:round;stroke-miterlimit:10;stroke-width:2.843;stroke:#000"/></g><g transform="matrix(.35278 0 0 -.35278 -318.68 89.749)"><path d="m0 0c-2.075 4.491-3.411 8.727-2.615 11.115 0.625 1.876 2.018 4.463 3.866 7.192 4.804 7.021 12.735 15.123 18.562 14.781 8.073-0.454 15.692-11.683 22.429-10.773 6.708 0.909 17.027 20.183 31.383 20.637 14.355 0.455 68.166-13.9 99.578-15.265 8.187-0.341 16.743 1.166 24.987 3.611 2.189 0.653 4.349 1.364 6.481 2.16 15.805 5.714 29.478 14.242 35.419 18.563 1.791 1.307 2.9 2.245 3.099 2.586 1.336 2.246-28.569-61.714-69.077-90.595-36.783-26.209-52.048-30.956-75.358-35.903-4.861-1.023-11.058-1.99-17.738-2.757-18.279-2.132-40.338-2.871-49.548 0.085-8.613 2.758-28.341 20.069-30.331 31.383-0.114 0.625-0.171 1.222-0.171 1.791 0 2.729 0.569 5.543 1.45 8.215 2.758 8.358 8.415 15.578 8.415 15.578l-0.711 0.341-0.199 0.085s-6.14 8.955-9.893 17.142" style="fill:none;stroke-linecap:round;stroke-linejoin:round;stroke-miterlimit:10;stroke-width:2.843;stroke:#000"/></g><g transform="matrix(.35278 0 0 -.35278 -234.05 71.608)"><path d="m0 0c0.341 0.313 0.711 0.625 1.052 0.938" style="fill:none;stroke-linecap:round;stroke-linejoin:round;stroke-miterlimit:10;stroke-width:2.843;stroke:#000"/></g><g transform="matrix(.35278 0 0 -.35278 -315.02 95.646)"><path d="m0 0s133.09-18.25 229.46 68.082" style="fill:none;stroke-linecap:round;stroke-linejoin:round;stroke-miterlimit:10;stroke-width:2.843;stroke:#000"/></g><g transform="matrix(.35278 0 0 -.35278 -284.47 -46.615)"><path d="m0 0 27.801-37.694" style="fill:none;stroke-linecap:round;stroke-linejoin:round;stroke-miterlimit:10;stroke-width:2.843;stroke:#000"/></g><g transform="matrix(.35278 0 0 -.35278 -302.84 -34.902)"><path d="m0 0-4.065-56.825" style="fill:none;stroke-linecap:round;stroke-linejoin:round;stroke-miterlimit:10;stroke-width:2.843;stroke:#000"/></g><g transform="matrix(.35278 0 0 -.35278 -274.3 338.7)"><path d="m0 0s8.13-3.61 17.624-2.644c9.211 0.967 19.7 6.283 25.328 23.424 0.029 0.057 0.029 0.113 0.057 0.17" style="fill:none;stroke-linecap:round;stroke-linejoin:round;stroke-miterlimit:10;stroke-width:2.843;stroke:#000"/></g><g transform="matrix(.35278 0 0 -.35278 -247.98 275.9)"><path d="m0 0s7.334 13.929 21.888 22.514c0.967 0.568 1.962 1.137 2.985 1.649 9.893 4.974 20.865-4.662 14.213-13.503-4.946-6.595-8.158-12.081-10.659-17.397" style="fill:none;stroke-linecap:round;stroke-linejoin:round;stroke-miterlimit:10;stroke-width:2.843;stroke:#000"/></g><g transform="matrix(.35278 0 0 -.35278 -238.2 278.66)"><path d="m0 0s0.256 0.37 0.768 1.023c0.938 1.251 2.7 3.639 5.003 6.794 9.039 12.394 26.209 36.528 32.605 49.406" style="fill:none;stroke-linecap:round;stroke-linejoin:round;stroke-miterlimit:10;stroke-width:2.843;stroke:#000"/></g><g transform="matrix(.35278 0 0 -.35278 -353.55 540.93)"><path d="m0 0c6.197 1.308 12.081 2.53 17.056 3.582 2.786 0.597 5.117 2.501 6.254 5.088 0.085 0.171 0.17 0.341 0.227 0.512" style="fill:none;stroke-linecap:round;stroke-linejoin:round;stroke-miterlimit:10;stroke-width:2.843;stroke:#000"/></g><g transform="matrix(.35278 0 0 -.35278 -332.97 538.26)"><path d="m0 0c1.194-6.026 4.065-22.173-1.421-24.873-21.292-10.546-58.559-28.455-69.617-33.06-8.528-3.554-25.243-4.605-36.244 0.369-1.933 0.853-3.638 2.417-5.06 4.435-2.558 3.667-4.093 8.897-3.809 14.384" style="fill:none;stroke-linecap:round;stroke-linejoin:round;stroke-miterlimit:10;stroke-width:2.843;stroke:#000"/></g><g transform="matrix(.35278 0 0 -.35278 -224 552.29)"><path d="m0 0c-7.448 13.588-19.216 28.142-32.065 35.135" style="fill:none;stroke-linecap:round;stroke-linejoin:round;stroke-width:2.843;stroke:#000"/></g><g transform="matrix(.35278 0 0 -.35278 -221.73 557.51)"><path d="m0 0c-1.336 4.349-3.496 9.324-6.282 14.441-0.057 0.113-0.114 0.227-0.171 0.312" style="fill:none;stroke-linecap:round;stroke-linejoin:round;stroke-width:2.843;stroke:#000"/></g><g transform="matrix(.35278 0 0 -.35278 -244.02 550.94)"><path d="m0 0c0.057-0.114 0.114-0.199 0.142-0.313 0.398-1.051 0.483-2.785 0.455-4.946-0.085-3.695-0.455-8.642-0.057-13.588 0.228-3.297 0.824-6.623 2.075-9.551 1.592-3.866 4.321-7.078 8.898-8.869 16.345-6.396 47.614-4.264 52.589 5.685 1.307 2.615 0.881 7.249-0.91 12.934" style="fill:none;stroke-linecap:round;stroke-linejoin:round;stroke-width:2.843;stroke:#000"/></g><g transform="matrix(.35278 0 0 -.35278 -246.73 540.52)"><path d="m0 0s-4.833-5.003-3.553-14.583c1.393-10.432 8.897-9.608 11.2-14.895" style="fill:none;stroke-linecap:round;stroke-linejoin:round;stroke-width:2.843;stroke:#000"/></g><g transform="matrix(.35278 0 0 -.35278 -244.02 550.94)"><path d="m0 0c0.199-0.995 0.37-2.047 0.512-3.155" style="fill:none;stroke-linecap:round;stroke-linejoin:round;stroke-miterlimit:10;stroke-width:2.843;stroke:#000"/></g><g transform="matrix(.35278 0 0 -.35278 -244.03 550.92)"><path d="m0 0c0.028-0.028 0.028-0.028 0.028-0.057" style="fill:none;stroke-linecap:round;stroke-linejoin:round;stroke-width:2.843;stroke:#000"/></g><g transform="matrix(.35278 0 0 -.35278 -245.97 546.28)"><path d="m0 0s3.724-4.292 5.515-13.133" style="fill:none;stroke-linecap:round;stroke-linejoin:round;stroke-miterlimit:10;stroke-width:2.843;stroke:#000"/></g><g transform="matrix(.35278 0 0 -.35278 -286.35 124.25)"><path d="m0 0c3.866-7.533 8.386-15.208 12.82-20.183" style="fill:none;stroke-linecap:round;stroke-linejoin:round;stroke-miterlimit:10;stroke-width:2.843;stroke:#000"/></g><g transform="matrix(.35278 0 0 -.35278 -290.1 116.07)"><path d="m0 0v-0.028c0.313-0.74 4.69-11.741 10.603-23.14" style="fill:none;stroke-linecap:round;stroke-linejoin:round;stroke-miterlimit:10;stroke-width:2.843;stroke:#000"/></g><g transform="matrix(.35278 0 0 -.35278 -350.52 411.41)"><path d="m0 0 8.301-0.512 14.44-0.909 11.371-0.711" style="fill:none;stroke-linecap:round;stroke-linejoin:round;stroke-miterlimit:10;stroke-width:2.843;stroke:#000"/></g><g transform="matrix(.35278 0 0 -.35278 -314.13 123.54)"><path d="m0 0c0.028 0 0.028-0.028 0.028-0.028" style="fill:none;stroke-linecap:round;stroke-linejoin:round;stroke-miterlimit:10;stroke-width:2.843;stroke:#000"/></g><g transform="matrix(.35278 0 0 -.35278 -271.88 -32.596)"><path d="m0 0 10.404-85.28" style="fill:none;stroke-linecap:round;stroke-linejoin:round;stroke-width:1.421;stroke:#000"/></g><g transform="matrix(.35278 0 0 -.35278 -179.01 20.835)"><path d="m0 0h0.028" style="fill:none;stroke-linecap:round;stroke-linejoin:round;stroke-miterlimit:10;stroke-width:2.843;stroke:#000"/></g><g transform="matrix(.35278 0 0 -.35278 -318.68 89.749)"><path d="m0 0 0.028-0.028" style="fill:none;stroke-linecap:round;stroke-linejoin:round;stroke-miterlimit:10;stroke-width:2.843;stroke:#000"/></g><g transform="matrix(.35278 0 0 -.35278 -294.77 59.504)"><path d="m0 0h-0.028" style="fill:none;stroke-linecap:round;stroke-linejoin:round;stroke-width:2.843;stroke:#000"/></g><g transform="matrix(.35278 0 0 -.35278 -294.65 59.394)"><path d="m0 0c-0.114-0.085-0.227-0.199-0.341-0.313" style="fill:none;stroke-linecap:round;stroke-linejoin:round;stroke-miterlimit:10;stroke-width:2.843;stroke:#000"/></g><g transform="matrix(.35278 0 0 -.35278 -287.26 49.636)"><path d="m0 0s-1.365-3.326-4.236-8.073c-0.824-1.365-1.79-2.871-2.927-4.492-2.189-3.155-4.947-6.651-8.273-10.034-1.677-1.734-3.525-3.44-5.514-5.06" style="fill:none;stroke-linecap:round;stroke-linejoin:round;stroke-width:2.843;stroke:#000"/></g><g transform="matrix(.35278 0 0 -.35278 -282.11 174.85)"><path d="m0 0v-0.028" style="fill:none;stroke-linecap:round;stroke-linejoin:round;stroke-miterlimit:10;stroke-width:2.843;stroke:#000"/></g></g></svg>
