<?xml version="1.0" encoding="UTF-8"?>
<svg width="390.77mm" height="697.01mm" version="1.1" viewBox="0 0 390.77 697.01" xmlns="http://www.w3.org/2000/svg"><defs><clipPath id="clipPath269277"><path d="m0 2140.1h1424.2v-2140.1h-1424.2z"/></clipPath><clipPath id="clipPath269349"><path d="m205.25 1889h973v-1784.3h-973z"/></clipPath><clipPath id="clipPath269365"><path d="m378.61 2040.8h819.98v-1952.6h-819.98z"/></clipPath></defs><g transform="translate(330.7 254.1)"><g transform="matrix(.35278 0 0 -.35278 -382.54 469.81)"><g clip-path="url(#clipPath269277)"><g transform="translate(704.64 1457.6)"><path d="M 0,0 C 20.482,0.494 37.819,11.071 48.793,20.067 21.147,16.658 -7.495,23.994 -26.633,39.459 -24.196,23.49 -16.086,-0.483 0,0" style="fill:#221544"/></g><g transform="translate(714.88 1464)"><path d="m0 0c-4.123 7.229-9.357 13.69-15.721 19.068-1.346 1.138-2.745 2.326-4.189 3.514-6.099 2.862-11.749 6.308-16.75 10.32-0.066 0.022-0.132 0.04-0.198 0.062 2.455-15.969 10.564-39.84 26.616-39.359 4.414 0.107 8.671 0.703 12.76 1.629-0.794 1.61-1.626 3.202-2.518 4.766" style="fill:#ba3232"/></g><g transform="translate(1019.5 1276)"><path d="m0 0c-10.999-11.489-29.106-22.335-50.583-25.398l-5.346-0.583c-9.942-0.781-20.497 0.138-31.343 3.432l30.117 41.192 6.572 0.322z" style="fill:#c4b497"/></g><g transform="translate(739.58 1306.8)"><path d="m0 0c-18.724-6.418-36.931-17.129-50.458-28.807 36.758 13.98 62.342 20.892 102.07 20.892-37.587-6.978-84.047-16.06-112.79-31.494-1.633-1.883-3.117-3.765-4.44-5.633h106.29c0.27 0.397 0.531 0.8 0.834 1.179l18.888 23.542c-9.994 0.49-19.889 0.886-29.465 1.172 41.529 7.086 100.03 1.073 125.62-9.191-6.801 0.882-14.01 1.714-21.508 2.49l-10.551-18.353c-0.138-0.275-0.254-0.559-0.377-0.839h56.307l19.709 19.883c-17.587 11.081-63.598 18.23-120.43 23.883 53.077 3.48 103.76-4.783 128.29-15.951l4.695 4.737c-56.137 18.933-121.95 39.515-212.68 12.49m433.35 66.83v-2e-3c-22.965-1.628-55.427-11.33-94.607-26.744 30.371 14.867 58.367 24.663 84.878 31.288-7.167 2.465-16.457 3.514-32.44 1.393-95.146-16.385-139.25-45.109-157.28-80.139l23.298-6.537c8.745 13.239 41.376 33.886 71.909 43.555-28.013-15.658-59.858-31.703-66.177-45.163l6.957-1.952c19.845 24.417 64.479 49.29 112.1 62.151-50.786-20.823-83.654-42.371-103.99-64.427l8.76-2.457 148.58 87.915c-0.668 0.378-1.33 0.751-1.989 1.119" style="fill:#e8dcc4"/></g><g transform="translate(1174.9 1356.5)"><path d="m0 0-20.114-100.57c-32.644 6.771-52.743-3.401-62.01-32.017-25.001-4.611-34.744-31.449-8.778-48.851-11.213-13.757-15.212-27.406-2.681-38.313-7.491-16.437-5.025-38.619 25.659-46.033 5.193-1.134 9.927-1.915 14.293-2.405l-7.645-38.19-73.928-51.242-9.866-6.219c-5.009-32.231-53.478-52.712-82.415-15.304l-11.535-0.551c-67.832-2.957-135.28-0.735-202.16 8.977-2.758 17.494-6.48 35.861-11.06 55.01 22.289 4.442 44.087 16.605 41.958 29.749-0.322 2.359-1.088 4.335-2.175 5.974 10.34 2.39 14.828 19.378 8.425 30.791 7.506 9.146 10.892 29.137-11.811 36.582 2.895 15.824 1.073 37.868-31.082 43.72-18.061 2.895-33.257 2.236-48.346-7.537-7.92 21.676-16.529 43.965-25.782 66.851l123.78-0.321c0.046-0.123 0.061-0.261 0.092-0.399l47.151-185.74 19.532 42.127s58.211-63.006 58.594-64.722c-0.306 1.899-31.449 165.08-39.737 208.52l55.133-0.138 10.462-0.03c6.587-3.462 13.297-5.531 19.946-6.572 29.136-4.519 57.062 10.861 67.525 17.54l10.785 10.478z" style="fill:#9b4ac6"/></g><g transform="translate(861.72 1282.2)"><path d="m0 0c-15.994 1.466-32.922 2.694-49.81 3.649l-19.581-22.179c-3.379-4.452-4.559-10.196-3.209-15.62l36.545-162.23 16.084 35.233 47.872-50.935-38.301 180.86c-0.981 4.608-0.164 9.417 2.285 13.442z" style="fill:#ead90a"/></g><g transform="translate(744.22 1140.8)"><path d="m0 0c-34.568 2.671-61.268-9.121-83.232-21.361 12.638 16.637 48.689 32.383 82.211 27.233 1.708-0.093 3.311-0.246 4.864-0.425 5.793 11.461 3.622 28.803-20.821 34.126-36.821 2.633-57.903-17.515-71.233-40.211-18.235-27.006-9.957-78.848 1.532-116.42-6.494 10.744-12.016 23.375-15.958 36.561-26.319-13.238-13.292-77.508 11.053-77.845 7.906 2.706 13.805 11.037 20.862 11.795 7.39 2.815 17.381-1.505 44.898 7.844-3.03 12.269-6.239 24.601-9.64 37-4.834-0.204-9.443 0.056-13.556 0.858 21.701 5.361 58.211 19.404 58.211 28.084-3.504 15.136-29.168 9.661-58.211 7.149 23.746 5.814 47.884 11.469 60.562 6.519 12.073 1.708 16.339 21.335-2.095 29.353-23.672 8.681-49.021 0.383-80.041-18.383 23.644 23.744 43.171 31.787 86.341 23.744 1.802-0.616 3.4-1.437 4.828-2.4l-5e-3 0.016c7.77 6.469 11.777 23.576-20.57 26.767m388.48-76.44c3.437 7.763 6.975 15.923 10.631 24.444-1.894-0.395-3.95-0.68-6.15-0.862zm-42.632 66.679c-7.079-12.328-5.423-26.631 20.149-31.855 37.048-7.186 41.434 0.885 44.328 15.927-10.311 0.433-23.625 2.981-39.732 7.434-10.43 2.422-18.547 5.288-24.745 8.494m86.798 56.418-51.307 20.627c-50.359 20.297-70.106-15.838-10.363-36.136 25.691-11.114 44.166-15.725 56.723-16.303 19.258-1.756 23.8 20.988 4.947 31.812m-3.156 10.873c1.655-0.574 3.242-1.232 4.758-1.965l1.429-0.59-0.021-0.114c1.614-0.854 3.136-1.794 4.568-2.802 11.663 19.463 9.494 41.138-24.058 51.471-34.822 11.806-50.564-2.306-53.127-20.17 6.54-0.913 13.641-3.159 21.095-7.099zm-63.11-34.041c-7.11 1.681-13.199 3.797-18.364 6.217-14.183-18.736-2.647-34.056 24.875-41.068 56.022-13.309 59.407 2.759 50.266 19.6-13.727 0.467-32.363 4.853-56.777 15.251" style="fill:#7d4e24"/></g><g transform="translate(805.66 149.72)"><path d="m0 0c0.209-9.95 0.514-25.971 0.339-27.37-0.231-1.848 60.92-6.2 72.624-7.016l2.949 37.652c-0.857-2.975-49.317-7.047-75.912-3.266m-182.87-7.253 2.948-37.652c11.704 0.816 72.856 5.168 72.625 7.015-0.175 1.4 0.129 17.421 0.338 27.371-26.594-3.782-75.054 0.29-75.911 3.266" style="fill:#ead90a"/></g><g transform="translate(889.15 147.98)"><path d="m0 0-3.659-31.346 35.537 10.266zm-305.81-31.6 35.536-10.266-3.659 31.346z" style="fill:#cc830e"/></g><g transform="translate(1092 147.37)"><path d="m0 0c-13.648 11.191-35.615 16.757-60.358 14.764l-1.687-0.465c-0.23 0.079-0.46 0.161-0.69 0.241-20.901-2.079-43.627-9.509-64.922-23.476 8.799 16.04 24.882 26.425 43.252 31.98-24.216 10.834-44.203 25.129-49.417 43.813-8.083 34.516-38.967 33.956-71.003 30.065-9.836-5.933-18.317-15.08-23.524-26.927 1.64 16.26 9.979 27.855 21.239 34.912 14.9 1.349 29.629 2.732 42.36 1.633 17.164 20.513 0.362 46.334 4.275 99.355-39.072-22.634-44.926 9.748-86.746-12.487-19.765-15.362-36.534-25.007-50.54-29.387 0.082-64.921 10.283-72.564 10.283-92.022 0-13.787-8.431-27.83-5.112-53.105 2.553-10.724 53.466-7.369 85.785-4.595l91.403-59.235c7.497-7.984 102.28-2.808 124.08 11.235 7.659 9.701 2.237 26.552-8.681 33.701m-384.83 171.44c-2.643-0.845-5.439-1.691-8.402-2.542-78.935-9.458-92.373 6.159-123.12 35.065 5.343-56.706-16.148-86.77 1.568-107.94 12.731 1.099 27.46-0.283 42.36-1.633 11.26-7.057 19.599-18.651 21.239-34.912-5.207 11.847-13.688 20.995-23.524 26.927-32.036 3.891-62.92 4.452-71.003-30.064-5.214-18.684-25.201-32.979-49.417-43.814 18.369-5.555 34.453-15.94 43.252-31.98-21.295 13.968-44.021 21.397-64.922 23.476-0.23-0.079-0.46-0.161-0.69-0.241l-1.687 0.466c-24.743 1.993-46.71-3.574-60.358-14.764-10.918-7.15-16.34-24-8.681-33.702 21.807-14.043 116.59-19.219 124.08-11.234l91.403 59.234c32.319-2.773 83.232-6.129 85.785 4.596 3.319 25.275-5.112 39.317-5.112 53.104 0 19.662 7.573 42.042 7.228 109.96" style="fill:#7d4e24"/></g><g transform="translate(629.33 915.5)"><path d="m0 0c1.007-1.282 1.877-2.744 2.548-4.464 16.506 0.882 36.74-2.211 50.164 1.256 17.345 6.697 59.721 72.404 77.361 26.808 5.301-17.817 9.26-30.939 5.13-43.951 1.271-4.001 2.574-8.047 3.82-12.119 35.577 15.843 69.122 52.007 81.651 80.662-36.316 0.962-74.236 3.513-114.01 7.905-29.929-21.046-62.223-41.105-106.66-56.097m231.77 438.26c-5.884-7.088-9.908-15.889-12.234-26.256 12.325-0.891 24.097-2.502 35.441-4.588-5.33 12.989-12.961 23.45-23.207 30.844m-158.38-513.09c-32.248-10.173-56.065-10.293-72.111-2.487 0.524-32.7-0.126-74.685 80.536-52.661 56.399 18.74 55.446 51.045 41.773 91.17-9.675-10.286-25.487-21.672-50.198-36.022m-91.089 65.02c2.36 1.651 5.18 2.83 8.334 3.662-7.581 16.26-30.576 3.03-53.803-0.216-6.161-9.603-12.284-19.155-18.331-28.512 23.831 6.175 53.301 49.774 63.8 25.066m-5.803-29.786c-3.073 12.068-2.154 20.082 1.423 25.377-0.768 0.636-1.544 1.166-2.329 1.576-29.404-70.143-37.775-158.5 3.204-95.505 6.561 12.604 9.121 25.998 7.824 42.688-5.309 6.852-8.665 15.558-10.122 25.864m-12.916 26.347c-14.164-6.823-30.983-30.343-51.607-31.689-13.16-20.214-25.89-39.235-37.801-55.552 19.831-23.764 43.971-34.026 72.335-31.045-6.58 22.879-0.452 75.531 17.073 118.29m100.28-22.076c12.456 2.78 23.593 0.383 24.873-5.355 1.281-5.737-7.779-12.642-20.236-15.423-12.457-2.78-23.593-0.383-24.874 5.354-1.28 5.738 7.78 12.643 20.237 15.424m6.463-29.165c62.041 30.255 64.531 54.382 47.489 78.51-13.021 36.083-18.766-6.32-62.297-25.277-39.037-13.978-73.467 14.745-66.382-25.659-1.04-24.883 20.298-48.829 81.19-27.574" style="fill:#7d4e24"/></g><g transform="translate(773.55 1601.4)"><path d="m0 0c-9.031 46.983 51.394 79.483 60.747 36.893-11.399 31.155-62.509 8.913-60.747-36.893m29.466-9.133c-6.442 0-11.665 5.223-11.665 11.665 0 6.443 5.223 11.666 11.665 11.666 6.443 0 11.666-5.223 11.666-11.666 0-6.442-5.223-11.665-11.666-11.665m64.263 113.56c-13.01 2.309-24.99 5.033-36.509 7.95-13.488-6.144-36.514-16.635-36.514-16.635-32.68-21.446-38.041-52.594-31.659-91.913 3.575-16.595 26.043-37.531 51.574-51.573-4.41-7.087-14.194-12.586-25.96-15.445 20.126-11.88 34.496-28.126 43.866-48.163 30.508 24.468 49.852 69.151 43.369 95.778-12.429 37.497-17.43 71.706-8.167 120m-223.15-262.98c-1.318-1e-3 -2.626 0.049-3.931 0.116 1.6-23.523 4.738-44.468 9.415-62.834 34.59-26.931 83.697-36.594 111.15-20.52 3.046 9.327 5.179 19.18 6.576 29.828-10.403-9.895-21.957-19.434-34.614-28.29-33.563 19.15-66.078 40.407-88.594 81.7m393.46-462.27c-1.386-3.491-3.261-6.847-5.542-10.01 35.942-21.674 59.685 6.455 89.257 68.85zm-503.24 77.568c-11.872-5.805-19.798-15.266-26.552-33.506-2.008 11.518 3.1 23.703 13.726 33.825-9.006-5.076-17.904-11.46-26.231-19.027-11.45-30.26-14.884-55.188 22.079-63.946 17.392-3.529 53.686-4.724 111.18 15.206-12.861 22.177-16.266 59.762 3.197 76.323-30.391 0.833-85.864 2.201-97.395-8.875m154.21 563.8c-11.398 31.155-62.509 8.913-60.746-36.893-9.031 46.983 51.394 79.483 60.746 36.893m-13.611-47.517c-6.442 0-11.665 5.223-11.665 11.665 0 6.443 5.223 11.665 11.665 11.665 6.443 0 11.665-5.222 11.665-11.665 0-6.442-5.222-11.665-11.665-11.665m-43.602-116.14c-11.439 48.177 1.061 87.067 95.793 94.06-4.537 4.937-8.04 11.093-9.984 18.662 26.808-34.983 63.317-25.879 80.168-17.361 0 0-34.723 23.744-42.382 51.063-8.013 42.005 12.398 91.988 43.61 117.73-35.238 9.697-71.494 19.166-127.03 21.372-2.601 0.158-5.199 0.281-7.794 0.381-3.541-20.837-8.969-40.081-15.533-57.938 23.866-0.032 42.157-4.638 58.488-13.553 14.669-8.448 21.573-29.153 8.726-25.07l-74.972 19.256c-24.246-55.966-57.875-97.491-73.203-132.1 5.274-41.521 26.973-77.364 64.114-76.505" style="fill:#ffcca6"/></g><g transform="translate(559.11 1505.1)"><path d="m0 0c-44.958 51.956-47.314 89.722-35.999 122.93-1.022-49.914 11.999-76.722 31.148-102 19.842 78.113 68.1 86.798 88.865 218.32-12.376-0.236-24.689-1.118-36.946-2.586-20.91-83.063-52.19-74.909-61.751-143.21 1.847 62.952 30.353 56.5 51.781 141.88-41.967-6.141-83.27-19.175-124.06-37.498-42.478-93.001-37.676-148.62 18.587-187.42-10.671 20.821-16.454 45.902-20.726 72.299 24.386-75.603 58.695-117.53 107.72-111.63-8.481 10.347-14.742 22.301-17.989 34.693-0.302-1.945-0.521-3.874-0.628-5.783m360.32 194.56c-15.451 0.938-29.341 2.493-42.177 4.468-8.031-47.258-0.048-79.81 10.447-118.35 10.468-51.511-34.467-103.15-62.807-114.38l1.532-23.999 40.126 36.545-2.339 13.126 11.744-28.924c56.219 64.221 72.327 151.65 43.474 231.52m-117.4-207.94c-1.677-0.989-2.488 0.661-3.583 3.23-11.024-8.052-23.688-13.251-36.82-15.927l0.01-0.023c-0.936-6.143-33.637-25.633-59.296-25.601-22.329-0.406-32.504 34.273-31.339 50.171-2.906 3.098-5.464 6.442-7.637 10.007-2.088-2.577-3.443-4.425-4.931-2.861-2.112 2.223-2.642 9.376 1.421 13.238 4.062 3.861 11.179 2.968 13.292 0.745 1.89-1.988-1.708-3.484-5.396-6.54 29.642-44.74 99.766-45.884 127.6-17.073-2.76 4.159-6.06 6.687-3.628 8.12 2.642 1.557 9.73 0.461 12.576-4.368s0.372-11.561-2.27-13.118m-22.982 44.824c-16.313-1.904-34.534 1.121-47.291 11.429-93.91-6.678-106.04-42.279-88.649-88.319 10.948-23.869 56.935-75.573 90.382-79.658 54.228 30.209 68.169 62.552 88.849 103.15 0.988 13.385-9.591 34.724-43.291 53.401" style="fill:#9b7867"/></g><g transform="translate(1012.6 953.65)"><path d="m0 0c3.829-29.769 20.296-67.773 32.934-92.677 52.803-94.435 54.833-9.469 47.855 106.45-21.361-24.288-44.418-27.02-80.789-13.771m-17.591-161.76c4.39-19.449 6.865-36.982 3.037-55.296-4.327-15.506-16.959-30.777-35.531-44.52 6.164-79.526-0.73-166.92-6.402-217.97-1.708-23.391 4.944-43.699 5.755-63.274 98.002-20.779 191.27-56.178 272.34-102.39-36.876 333.05-154.41 407.41-239.2 483.45m98.419 927.32c-20.671-7.402-46.299-13.554-78.747-18.02-35.383-2.728-64.66-3.067-89.859-1.798l6.332-3.293c8.921-18.372 12.916-42.925 12.49-69.692 52.364 10.351 116.39 62.151 149.78 92.803m-578.11-751.78c-29.382 3.185-41.333 30.444-37.436 53.171-14.135-18.157-24.727-40.523-28.248-66.192-39.799-300.57 41.159-146.9 141.26 16.357-32.345-6.236-53.239-6.128-75.571-3.336m-241.46-716.52c74.697 70.035 161.91 117.68 254.86 146.4-21.445 26.517-31.769 47.407 9.219 105.21 17.245 33.444 19.305 130.46 31.5 210.05-5.278 5.319-10.361 10.955-15.223 16.928-55.261-128.94-250.74-101.56-280.35-478.59m179.93 1443.4c-56.725-27.744-112.5-65.305-167.76-108.31 43.835 19.339 93.467 33.476 141.9 38.588 3.898 20.165 12.198 43.196 25.862 69.719m200.07-328.72c10.371-31.822 26.2-54.496 47.578-67.869 9.981 6.347 21.511 12.186 34.28 16.606 9.258 11.362 16.221 22.835 21.344 35.103-31.195-11.211-65.243-7.649-103.2 16.16" style="fill:#ead90a"/></g><g transform="translate(1005.4 1765)"><path d="m0 0c-177.43 10.627-148.27 60.21-302.46 53.698-110.9-8.382-253.76-63.659-386.42-187.24 114.39 86.059 230.41 129.4 353.18 127.2 151.55-4.621 189.38-52.762 340.95-45.989 79.164 9.784 123.84 41.988 155.32 79.156-38.169-14.61-101.86-26.999-160.57-26.823m-579.67-902.29c1.351 25.062 4.136 55.408 8.54 91.749 12.118 102.49 131.26 155.6 178.12 121.16l-74.459 191.6 82.202-174.58c20.39 40.1 29.174 84.057 25.359 132.5-2.941 7.28-5.943 14.581-9.01 21.904-33.91 35.212-71.725 56.358-117.18 49.966-50.015-89.86-48.575-123.98-58.224-199.37 19.028 19.819 40.718 30.591 60.328 32.602-80.685-21.946-111.23-156.66-95.67-267.53m114.65 606.34c-65.762-54.098-119.01-99.399-131.64-156.89 92.111 54.994 212.5 17.288 264.62-37.052 3.74 3.924 8.227 8.069 13.389 12.217-39.382 26.448-54.905 81.924-54.693 156.54-13.957 2.231-26.937 8.212-38.037 16.66l0.01-0.018c-21.495-0.299-39.118 2.775-53.649 8.544m344.56-6.111c-4.002-4.237-8.182-8.141-12.546-11.636l-3.167 17.773-49.427-44.581-4.829 25.586c-9.159-16.725-21.919-34.201-37.953-50.974-0.088-36.309-11.802-63.849-24.238-80.031 26.609 6.439 50.777 9.115 73.103 9.234 29.139 66.745 78.195 68.033 123.88 57.111-5.014 26.143-38.333 67.739-64.827 77.518m-1.734-115.86c5.699-7.733 9.523-16.598 12.002-26.274 8.583-1.834 16.935-3.902 25.107-6.096-3.226 11.668-16.959 26.748-37.109 32.37m-496.65 482.34c-16.585 27.351-15.987 71.513-2.323 121.15-2.788-91.96 16.997-127.29 47.074-128.13-4.981 36.959-7.533 71.05-4.636 98.708l38.376-156.8c75.637 40.612 155.56 63.893 236.97 70.982 110.22 4.302 137.95-14.422 175.35-31.108 9.959 17.705-4.504 37.656-42.322 69.805-108.87 89.21-213.89 154.54-265.46 157.6-117.96 5.851-150.11-22.718-231.89-91.326v-1e-3h-1e-3c-18.149-15.226-38.731-32.415-63.251-51.649 13.351 19.979 27.006 34.598 39.504 47.399-24.929-7.375-56.082-23.502-88.765-41.782 16.269 14.993 33.648 28.098 52.427 38.827-22.331 6.851-45.147 28.606-67.3 49.68-36.023 33.932-63.354 21.866-40.716-29.155 56.691-113.55 109.99-128.85 216.96-124.21m556.2-1150.1c-34.185-19.472-80.716-34.312-130.98-39.754l-42.7-156.02c-20.31-50.501-19.077-83.464-18.244-106.75 7.058-54.259 30.551-59.423 97.776-23.144 32.79 16.55 44.471-15.045 88.512 15.975 25.541 22.97 0.683 67.718 5.235 107.06 7.386 62.476 10.104 138.1 0.404 202.64m-39.193 284.1c-11.833-0.19-23.838-0.209-36.02-0.054-11.796-29.788-47.93-72.813-94.956-95.623 7.823-33.207 4.784-66.748-55.678-91.397-78.325-25.68-88.711-9.512-96.675 44.089-2.629-11.867-7.57-22.02-14.387-31.451-7.928-11.173-14.359-16.176-19.353-16.496l0.014-0.036c-6.752-0.827-13.633-0.774-20.436-0.047-1.008-6.682-2.296-13.016-3.842-19.042 74.376-101.19 293.51-161.64 422.76-11.608 6.071 20.246 1.291 40.137-6.059 65.033-39.045 37.726-68.552 79.873-75.367 156.63m113.15-126c-13.639 27.323-23.827 60.372-30.512 108.5-16.238-1.119-33.868 3.992-49.467 18.457-5.221-0.225-10.487-0.405-15.774-0.564-8.383-125.75 116.01-145.38 217.27-297.43-23.854 90.175-124.06 141.11-170.86 225.99 15.16-20.346 32.05-38.261 49.342-54.964m-519.08-30.324c-12.106-16.006-23.25-28.796-32.994-36.669-4.763-25.609-25.963-65.371-53.935-110.96 26.973 29.37 52.679 54.722 69.013 72.074-12.239-29.949-63.084-75.723-104.91-128.61-27.414-34.659-50.94-72.372-57.2-110.69 81.612 147.33 211.8 154.96 231.78 283.29-24.361 6.462-45.2 20.233-51.752 31.57m297.6-168.96c-73.16-4.794-152.06 10.836-211.23 60.954-9.384-77.046-9.835-159.05-26.452-200.82-48.686-72.495-22.537-84.343-3.785-110.33 61.33-43.778 41.172-74.418 141.54-54.501 69.912 20.159 20.156 50.394 60.905 151.83zm-273.74 666.85c41.733 5.383 82.492-15.261 122.72-50.169l6.831 6.9h5.175c-32.07 26.042-76.669 48.799-126.5 55.61-4.063-3.615-6.736-8.019-8.226-12.341m532.23-482.87c-4.262 5.709-8.782 12.509-13.58 20.486-22.789 38.506-34.116 72.907-40.787 105.64-0.288-0.082-0.576-0.165-0.866-0.243 2.768-35.175 12.343-66.429 23.85-94.94 12.4-14.827 22.683-24.727 31.383-30.943m-386.82 347.46c-4.199 11.451-8.542 22.951-13.048 34.508 1.528-17.333-0.575-37.259-4.637-56.765 6.089 9.143 11.935 16.464 17.685 22.257m-46.722-248.17c47.431 19.671 77.61 37.881 104.15 55.782-1.076 4.72-2.164 9.444-3.296 14.184-30.669-7.065-38.287-1.514-44.458-4.005l-7.42-3.549c-11.935-14.415-24.217-12.436-33.752-2.43-9.571-2.608-18.33-4.833-26.43-6.722-12.645-18.696-25.487-38.568-38.206-58.375 14.897 2.354 35.86 9.007 49.412 5.115m8.786 152.47c3.54-0.195 6.68-0.399 9.314-0.593-1.84 8.675-2.918 17.396-3.092 25.816-2.819-7.474-5.732-14.302-8.587-20.2z" style="fill:#2156ce"/></g><g transform="translate(443.89 1801.8)"><path d="m0 0c112.41 87.194 297.31 95.663 436.53 55.148l10.704-60.639c-130.82 50.937-254.68 51.135-437.4-42.508z" style="fill:#ead90a"/></g><g clip-path="url(#clipPath269349)" style="opacity:.28"><g transform="translate(778.4 1506.7)"><path d="m0 0 35.773 46.991c-41.662-21.183-73.485-13.902-97.02 17.361 7.41-28.891 22.499-53.39 61.247-64.352m196.62-791.46c-23.807-35.048-80.64-61.454-200.04-71.488-87.405 12.81-154.08 36.77-195.38 74.374l-11.543 19.604c0.891 0.189 1.78 0.376 2.687 0.585 21.899-6.147 34.753 10.834 45.535 33.115 1.258-31.169 16.614-45.211 65.298-33.115 104.5 31.818 128.25 60.158 116.92 114.21 34.408 18.632 57.136 40.793 73.808 64.784 8.978-1.35 18.04-2.543 27.178-3.596 16.918-74.676 47.949-130.91 95.042-166.16-2.736-11.681-8.568-22.126-19.508-32.319m-434.16 66.584c22.992 22.605 43.067 50.592 56.908 80.084-0.019-18.698 7.351-34.481 20.94-44.41-9.794-15.901-20.017-29.335-31.061-38.045-10.865-3.86-30.325-2.94-46.787 2.371m229.37 46.277c-8.394-22.99-35.917-45.766-104.86-55.995-21.775 5.015-34.136 17.98-36.34 39.524 18.876-8.171 45.639-7.678 78.488 5.991 37.228 17.82 52.542 33.446 57.783 47.801zm-161.28 62.234c5.309 16.72 8.379 33.525 8.601 49.749 36.291 6.378 63.652 16.733 90.912 13.189 40.782-10.26 81.441-20.75 123.35-28.927-16.112-16.969-37.172-34.571-64.88-53.026 3.06 16.039-4.917 30.583-6.215 45.01 2.163-24.589-7.782-39.581-57.729-71.943-60.276-18.814-100.32 10.403-94.01 45.997zm-54.748 367.13c38.094 2.73 70.352-14.555 97.837-35.513 0.75-29.453-3.988-76.899-13.769-96.378 0 37.47-53.356 107.75-84.068 131.89m624.06-672.95c-51.795 94.763-106.96 173.23-172.21 202.87l0.808 4.559c-30.048 21.866-59.224 55.432-86.116 119.64 14.038-1.197 28.286-2.005 42.81-2.304 15.176-11.747 29.558-21.294 42.963-28.137l10.893-34.67c44.836-43.375 61.188-40.074 74.041-31.041-14.24 12.855-25.403 30.597-32.475 54.834 18.761 4.307 33.185 20.62 42.061 52.291l-6.056 59.947 37.718 61.582-12.201 0.797-87.565-52.13c8.378-14.367-15.507-35.349-45.734-36.394-3.459 44.462-22.005 283.4-21.363 286.87l-3.513 56.025-36.501-48.352 14.694-280.13 27.024-12.301c-8.759 2.18-17.886 6.112-27.024 12.301-13.802-0.242-27.238-0.405-40.24-0.473l-34.539 0.078c-64.49 0.696-113.57 4.751-131.98 15.492l-15.356 16.269c-6.88-12.883-23.054-13.964-44.899-7.843-10.261-20.498-24.521-23.121-43.405-5.064-15.969 26.426-12.525 53.842 6.777 82.066l6.246-0.663c-6.155 38.466-1.693 73.414 30.853 99.057l-17.767 49.025h4e-3l-5e-3 3e-3 -4.657 12.853c-3.377 10.386-7.344 23.284-7.344 23.284l22.688 13.391c-39.88 31.073-83.662 54.336-138.15 56.169l-47.488-95.487c22.081 15.456 42.624 23.878 61.755 27.168l74.838-182.78 9.583-1.017c-22.585-23.983-36.377-53.339-27.38-96.62-72.422-16.428-117.72-8.26-116.75 41.848 10.69 32.91 30.736 44.179 53.106 50.074-41.987-11.023-80.731-33.846-97.155-137.9 21.716-82.501 37.1-102.24 143.3 24.739-32.352-63.697-66.042-127.01-128.35-182.01l-9.191-42.864c16.825 1.627 34.263 7.96 51.303 17.791 13.201-7.62 28.324-12.839 47.897-12.497-12.418-28.436-32.685-56.193-59.945-83.347-77.068-45.828-142.22-111.28-182.23-218.14 48.29 61.856 93.823 109.43 136.77 143.58-47.442-95.504-70.385-207.55-70.385-266.14 3.201 3.008 168.51 76.595 168.51 76.595-32.232 47.116-7.199 91.785 16.743 138.89l15.736 113.58c35.68-37.204 125.9-64.017 216.82-58.863l-11.218-50.629c-21.818-55.478-32.554-114.37-30.913-177.08 11.167-22.49 25.35-34.284 43.903-30.576v-51.023c1.251-0.809 2.678-1.517 4.248-2.135 10.232-61.314-3.126-85.545 7.145-103.27l1.825-44.484 32.647-6.447c-11.058 4.697-18.879 17.939-22.643 41.891 2.989 44.296 1.816 81.412 1.604 109.28 36.422 0.265 95.377 21.416 124.31 60.718v42.403l-26.916-16.355c-33.439 0-42.369 5.706-65.457-12.487l-12.024 245.78c45.6 8.522 88.995 26.269 123.08 56.124v-98.041c-10.939-65.825-8.611-113.93 4.937-147.06l41.871-8.17c24.809 61.581 31.804 160.81 15.319 309.67 67.968-24.817 114.79-69.123 160.34-114.61m-608.87-220.3s-0.445-25.317 0-26.855c10.582-36.571 50.463-55.586 89.406-54.743-1.733-29.996-3.983-67.947-3.983-67.947s0.422-108.77 2.975-109.81c2.554-1.036 49.356 4.493 49.356 4.493l1e-3 124.8 8.268 66.873 3.641 29.456-16.544-3.428c-60.022-12.137-84.825-11.944-133.12 37.16m-125.49 1293.9c96.205 28.595 152.09 32.844 194.47 27.619-20.581-46.618-45.177-96.791-84.104-159.64-6.079-8.628-18.604 14.919-33.385 49.728-2.392-41.93 10.2-77.725 56.853-99.574 40.061 74.928 67.362 141.42 89.192 204.29 54.539-12.99 94.084-38.503 201.46-30.6 6.561-69.342 42.982-101.83-36.535-164.98l-14.276-29.813-2.892 2.513c-17.905-26.37-28.622-48.629-79.403-85.601-35.702 16.519-68.93 41.991-96.807 86.832-11.38-11.137-28.641-5.741-49.632 10.141l-54.761 6.665-67.646-60.922c67.646 23.999 148.34-15.319 187.44-76.408l-17.462 81.769c17.388-44.425 52.399-73.078 94.781-88.427 14.018 6.089 22.241 11.578 36.147 33.935 32.274 41.377 76.298 73.753 138.74 92.016l-16.468 18.037-13.659-7.495-3.044 7.495c49.74 90.167 32.176 126.07 22.705 176.82 12.569 1.436 25.959 3.28 40.293 5.601l6.609-51.311c76.092 40.312 130.29 82.146 172.58 124.81-109.45-40.588-204.83-27.176-416.46 12.802-146.22 10.322-255.82-32.255-349.18-98.285 48.377 49.187 206.08 139.08 208.88 150.08-23.15 49.634-121.02 108.76-179.23 88.85-69.318-34.851-93.144-39.063-173.87 0 34.899-50.35 98.283-70.876 186.12-65.794l45.957-3.761 16.403-69.556c-67.599-33.233-121.48-84.079-167.76-144.7 0 0-9.643-13.515-24.057-26.805 4.451-4.568 169.15 35.611 169.15 35.611zm642.25-522.14c-8.213 13.963-6.495 27.891 5.303 41.784l-22.978 24.087c-16.66-92.104-5.284-147.44 65.144-150.51l16.237 42.701c-55.914-2.872-72.679 11.717-63.706 41.935" style="fill:#312783"/></g></g><g clip-path="url(#clipPath269365)" style="opacity:.2"><g transform="translate(756.31 1650.8)"><path d="m0 0-39.16-79.762c25.688-34.778 55.299-33.355 86.313-18.982-39.637 22.022-54.259 55.435-47.153 98.744m-308.18-1562.6c-15.589 31.408 5.092 51.223 43.794 65.278l-77.248-4.258c-38.189-38.692-27.514-59.209 33.454-61.02m296.08 1052.6c-35.597 6.825-61.348-3.836-83.232-21.361 66.491 17.112 91.6 12.261 103.8-5.406 12.21 14.754 14.555 26.491-20.57 26.767m-2.042-22.723c-33.345-0.467-52.385-11.84-68.552-25.404 59.625 12.666 78.506 10.433 90.963-4.538 9.662 11.248 6.851 21.574-22.411 29.942m151.15-256.22c-27.064-89.802-159.32-167.09-273.35-177.31 196.75-72.509 257.75-32.609 355.05 30.638-12.35 45.255-36.759 93.455-81.7 146.67m70.977-723.42c56.509 9.54 99.086-19.066 99.39-39.763 51.042 2.111 64.762 20.118 23.722 61.449-45.262 13.103-87.038 9.429-123.11-21.686m-410.54 249.49c60.89-79.483 100.53-87.596 181.27-47.538l15.418 102.45 31.559 122.22c-48.95-89.436-124.55-149.02-228.25-177.14m402.31 86.181-0.279 133.85c-31.318-160.98-40.892-188.93-107.19-254.31l82.886-0.381c43.541 28.994 17.524 66.525 24.586 120.84m-260.87 601.08c28.456-2.898 50.265-7.382 49.02-17.361 7.805 0.567 13.667 7.547 18.255 18.735-12.969 7.415-36.289 6.211-67.275-1.374m-254.67 313-40.467-79.934c130.48 48.539 184.35 16.123 273.3-33.185-53.061 74.372-116.18 133.72-232.83 113.12m315.68-464.28c-2.041 18.498-7.246 32.108-31.895 15.698-18.09-18.53-38.748-34.068-70.438-36.74-46.505 3.537-47.422-8.2-35.399-24.273 78.793-8.799 94.822 4.439 137.73 45.315m49.364 400.46h30.027c17.757 48.314 53.571 73.811 123.93 55.658l-39.219 62.923c-71.434-17.121-119.16-62.291-114.74-118.58m-89.848 503.99c16.287-37.389 139.03-76.319 294.92-115.73 88.32 0 137.16 41.315 168.12 83.562-115.96-30.467-222.76-41.342-301.39 7.993 48.706 29.516-34.94 103.27-234.24 215.68-52.232 34.45-199.23 28.576-264.52-34.742 217.02-55.985 322.18-39.83 337.12-156.76m296.83-874.71 20.372 39.05-5.79 275-39.391-20.74zm-258.64 203.27c-0.221 14.313-6.624 23.996-26.68 23.454-33.72 7.368-59.465-7.101-78.04-41.207 40.551 30.479 75.104 33.292 104.72 17.753m166.82-245.39c62.982-111.42 133.66-153.21 224.3-260.07 3.917 24.526-8.711 57.714-56.814 109.48-55.038 38.059-110.73 86.161-167.49 150.59m-468.09 174.65c-48.51-94.819-46.978-178.99-26.042-235.93 8.04 117.9 24.205 229.21 176.55 230.14-66.416 31.938-120.89 79.558-115.68 155.13-19.724-43.681-29.908-94.531-34.822-149.34m68.23 489.62 35.252-59.267c34.379 82.519 50.473 85.877 74.165 170.04-37.359-59.524-76.097-118.97-109.42-110.78m617.29-415.86c-20.875 6.28-43.015 12.194-45.939 10.567 41.382-22.43 68.916-36.344 68.813-51.881 30.767 17.733 13.89 33.465-22.874 41.314m-49.329 54.136c68.094-23.759 82.647-43.569 85.785-64.903 59.86 28.561-53.319 75.626-85.785 64.903m32.467 36.495 67.591-60.254c25.481 19.929 0 67.992-67.591 60.254m-31.245-119.53c30.431-16.919 57.808-26.749 50.498-36.482 60.415 24.068-28.829 34.471-50.498 36.482" style="fill:#fff"/></g></g><g transform="translate(688.56 1621.9)"><path d="m0 0c-9.353 42.59-69.778 10.09-60.747-36.893-1.762 45.805 49.348 68.048 60.747 36.893m114.46-6.354c-6.442 0-11.665-5.223-11.665-11.665 0-6.443 5.223-11.665 11.665-11.665 6.443 0 11.665 5.222 11.665 11.665 0 6.442-5.222 11.665-11.665 11.665m-49.582-137.87c-10.974-8.996-28.311-19.573-48.793-20.067-16.086-0.482-24.197 23.49-26.633 39.459 19.137-15.465 47.78-22.8 75.426-19.392m-51.091-24.279c25.659-0.032 58.36 19.457 59.295 25.6l-0.01 0.024c13.133 2.676 25.797 7.875 36.821 15.927 1.095-2.569 1.906-4.219 3.582-3.231 2.643 1.558 5.117 8.29 2.271 13.119-2.846 4.828-9.934 5.925-12.577 4.368-2.432-1.434 0.869-3.961 3.628-8.12-27.834-28.811-97.959-27.667-127.6 17.073 3.688 3.056 7.287 4.551 5.397 6.54-2.113 2.223-9.23 3.116-13.293-0.745-4.063-3.862-3.533-11.015-1.42-13.238 1.487-1.565 2.843 0.284 4.93 2.86 2.174-3.564 4.732-6.908 7.638-10.006-1.165-15.898 9.009-50.578 31.339-50.171m71.207 147.96c-1.763 45.806 49.347 68.048 60.746 36.893-9.352 42.59-69.777 10.09-60.746-36.893m163.55-1231.8c-44.041-31.021-55.722 0.575-88.513-15.975-67.224-36.279-90.717-31.115-97.775 23.144-0.833 23.29-2.066 56.252 18.244 106.75l42.699 156.02c50.268 5.442 96.799 20.282 130.98 39.755 9.7-64.533 6.982-140.16-0.404-202.64-4.553-39.342 20.306-84.091-5.235-107.06m21.026-155.39c5.214-18.685 25.202-32.98 49.417-43.814-18.369-5.555-34.453-15.94-43.252-31.98 21.295 13.968 44.021 21.397 64.922 23.476 0.23-0.08 0.46-0.162 0.691-0.241l1.686 0.465c24.744 1.993 46.711-3.573 60.358-14.764 10.919-7.149 16.34-24 8.681-33.701-21.807-14.043-116.59-19.219-124.08-11.234l-91.402 59.234c-32.32-2.773-83.233-6.129-85.786 4.595-3.319 25.275 5.113 39.318 5.113 53.105 0 19.458-10.202 27.101-10.284 92.022 14.006 4.38 30.775 14.025 50.54 29.388 41.82 22.234 47.674-10.148 86.746 12.487-3.913-53.022 12.889-78.843-4.274-99.356-12.731 1.099-27.46-0.284-42.361-1.633-11.259-7.057-19.599-18.652-21.239-34.912 5.207 11.847 13.688 20.995 23.525 26.927 32.036 3.891 62.92 4.452 71.002-30.064m-72.637-97.6 3.659 31.346 31.878-21.08zm-6.868-1.294c-11.704 0.816-72.856 5.168-72.625 7.015 0.175 1.4-0.129 17.421-0.338 27.371 26.594-3.782 75.055 0.29 75.911 3.266zm-183.34 218.09c-100.36-19.917-80.206 10.723-141.54 54.501-18.753 25.988-44.901 37.837 3.785 110.33 16.617 41.774 17.068 123.78 26.452 200.82 59.17-50.117 138.07-65.747 211.23-60.953l-39.03-152.87c-40.749-101.44 9.007-131.67-60.905-151.83m4.605-124.58c0-13.786 8.432-27.829 5.113-53.104-2.554-10.725-53.466-7.369-85.786-4.596l-91.403-59.234c-7.497-7.985-102.28-2.808-124.08 11.234-7.66 9.702-2.238 26.553 8.68 33.702 13.648 11.191 35.615 16.757 60.358 14.764l1.687-0.466c0.231 0.08 0.46 0.162 0.691 0.241 20.9-2.078 43.627-9.508 64.922-23.475-8.799 16.039-24.883 26.425-43.253 31.979 24.216 10.835 44.204 25.13 49.418 43.814 8.082 34.516 38.966 33.956 71.002 30.064 9.837-5.932 18.318-15.08 23.525-26.926-1.64 16.26-9.98 27.854-21.239 34.911-14.901 1.35-29.63 2.732-42.361 1.633-17.716 21.174 3.775 51.238-1.567 107.94 30.749-28.906 44.187-44.522 123.12-35.064 2.964 0.85 5.759 1.696 8.402 2.541 0.345-67.92-7.228-90.3-7.228-109.96m-1.526-97.019c0.231-1.848-60.92-6.2-72.624-7.016l-2.949 37.653c0.857-2.977 49.317-7.049 75.912-3.267-0.209-9.95-0.514-25.971-0.339-27.37m-115.03 4.545 31.878 21.079 3.659-31.346zm-309.54 134.55c29.613 377.03 225.09 349.66 280.35 478.59 4.862-5.974 9.945-11.609 15.223-16.928-12.195-79.592-14.255-176.61-31.5-210.05-40.988-57.803-30.664-78.693-9.22-105.21-92.945-28.729-180.16-76.368-254.86-146.4m100.99 352v1e-3c41.83 52.886 92.675 98.66 104.91 128.61-16.334-17.352-42.04-42.703-69.013-72.073 27.972 45.593 49.171 85.355 53.934 110.96 9.744 7.873 20.889 20.663 32.995 36.669 6.551-11.337 27.39-25.108 51.752-31.57-19.979-128.33-150.17-135.96-231.78-283.29 6.26 38.321 29.786 76.033 57.2 110.69m74.787 351.5c3.521 25.669 14.113 48.034 28.248 66.191-3.897-22.727 8.054-49.986 37.436-53.17 22.332-2.792 43.226-2.901 75.571 3.335-100.1-163.26-181.05-316.93-141.26-16.356m-15.319 0c-4.404-36.341-7.189-66.687-8.54-91.75-15.557 110.87 14.985 245.59 95.67 267.53-19.61-2.011-41.3-12.784-60.329-32.603 9.65 75.392 8.21 109.52 58.225 199.38 45.458 6.391 83.272-14.754 117.18-49.966 3.067-7.324 6.068-14.624 9.01-21.904 3.815-48.447-4.969-92.404-25.359-132.5l-82.202 174.58 74.459-191.6c-46.858 34.434-166-18.668-178.12-121.16m-25.532 357.7c12.634 57.495 65.879 102.8 131.64 156.89 14.531-5.769 32.154-8.843 53.649-8.544l-0.01 0.017c11.1-8.447 24.08-14.428 38.037-16.659-0.212-74.619 15.311-130.1 54.693-156.54-5.162-4.148-9.649-8.293-13.389-12.217-52.122 54.339-172.51 92.046-264.62 37.052m61.276 275.74c4.271-26.398 10.054-51.478 20.725-72.299-56.262 38.797-61.064 94.419-18.586 187.42 40.793 18.322 82.096 31.357 124.06 37.498-21.429-85.377-49.934-78.925-51.782-141.88 9.561 68.298 40.842 60.144 61.751 143.21 12.257 1.469 24.571 2.351 36.946 2.586-20.765-131.52-69.022-140.21-88.864-218.32-19.149 25.276-32.17 52.084-31.149 102-11.315-33.212-8.958-70.978 36-122.93 0.107 1.909 0.325 3.838 0.627 5.783 3.248-12.393 9.509-24.346 17.99-34.693-49.027-5.898-83.336 36.029-107.72 111.63m-184.04-1.823c55.255 43.001 111.03 80.562 167.76 108.31-13.664-26.523-21.965-49.554-25.862-69.719-48.43-5.113-98.063-19.25-141.9-38.588m416.96 232.63c154.18 6.513 125.03-43.07 302.46-53.697 58.707-0.176 122.4 12.213 160.57 26.823-31.484-37.168-76.155-69.372-155.32-79.156-151.58-6.773-189.4 41.368-340.95 45.988-122.77 2.196-238.79-41.141-353.18-127.2 132.66 123.58 275.53 178.86 386.42 187.24m-276.27 102.45c-2.897-27.658-0.345-61.749 4.636-98.708-30.077 0.843-49.862 36.172-47.074 128.13-13.664-49.639-14.262-93.802 2.323-121.15-106.97-4.641-160.27 10.656-216.96 124.21-22.638 51.02 4.693 63.087 40.716 29.154 22.152-21.073 44.968-42.828 67.3-49.679-18.779-10.729-36.159-23.834-52.428-38.827 32.684 18.279 63.837 34.407 88.765 41.782-12.497-12.801-26.152-27.42-39.503-47.399 24.52 19.233 45.102 36.423 63.251 51.649h1e-3c81.779 68.609 113.93 97.177 231.89 91.327 51.573-3.064 156.6-68.391 265.46-157.6 37.819-32.15 52.282-52.1 42.323-69.806-37.405 16.686-65.135 35.41-175.35 31.109-81.419-7.089-161.34-30.37-236.97-70.982zm516.93-294.69c0.426 26.767-3.568 51.32-12.489 69.693 77.971-2.809 123.32 5.361 162.27 23.11-33.398-30.652-97.42-82.452-149.78-92.803m-67.637-158.24-11.745 28.924 2.34-13.126-40.126-36.545-1.532 23.999c28.34 11.234 73.275 62.87 62.807 114.38-10.495 38.54-18.479 71.092-10.448 118.35 12.837-1.975 26.727-3.53 42.178-4.468 28.853-79.863 12.745-167.29-43.474-231.52m73.797-82.799c-45.688 10.922-94.745 9.633-123.88-57.112-22.326-0.118-46.494-2.795-73.104-9.234 12.437 16.183 24.151 43.722 24.239 80.032 16.033 16.772 28.794 34.249 37.953 50.974l4.829-25.586 49.427 44.581 3.167-17.773c4.364 3.494 8.544 7.399 12.546 11.636 26.494-9.779 59.813-51.375 64.826-77.518m-65.444-62.459c-11.344 2.086-23.116 3.697-35.441 4.588 2.326 10.367 6.35 19.168 12.234 26.256 10.246-7.394 17.877-17.855 23.207-30.844m35.993-8.257c-8.172 2.195-16.525 4.263-25.108 6.096-2.478 9.677-6.302 18.542-12.001 26.275 20.15-5.622 33.883-20.702 37.109-32.371m-163.3 34.796c-5.123-12.268-12.086-23.74-21.345-35.102-12.768-4.42-24.298-10.259-34.279-16.607-21.378 13.373-37.207 36.047-47.578 67.869 37.959-23.808 72.007-27.371 103.2-16.16m-112.87 93.376c22.517-41.294 55.032-62.55 88.594-81.701 12.657 8.857 24.212 18.396 34.615 28.291-1.397-10.648-3.53-20.501-6.576-29.828-27.451-16.075-76.559-6.412-111.15 20.52-4.676 18.366-7.814 39.31-9.414 62.833 1.305-0.067 2.613-0.116 3.93-0.115m231.32 142.98c6.483-26.626-12.861-71.309-43.369-95.777-9.371 20.037-23.741 36.282-43.866 48.163 11.766 2.859 21.55 8.358 25.96 15.445-25.532 14.042-47.999 34.978-51.574 51.573-6.383 39.318-1.021 70.467 31.659 91.913 0 0 23.025 10.49 36.514 16.635 11.519-2.917 23.498-5.641 36.509-7.95-9.264-48.296-4.262-82.505 8.167-120m-244.1-127.53c-37.141-0.859-58.84 34.984-64.114 76.505 15.329 34.605 48.957 76.13 73.204 132.1l74.971-19.255c12.848-4.084 5.944 16.622-8.725 25.07-16.331 8.915-34.623 13.52-58.488 13.552 6.563 17.858 11.991 37.102 15.533 57.939 2.595-0.1 5.192-0.223 7.793-0.381 55.537-2.207 91.794-11.675 127.03-21.373-31.213-25.741-51.623-75.724-43.61-117.73 7.659-27.318 42.382-51.062 42.382-51.062-16.851-8.518-53.361-17.622-80.169 17.361 1.944-7.57 5.447-13.725 9.985-18.663-94.733-6.992-107.23-45.883-95.794-94.059m100.42 89.723c12.757-10.307 30.978-13.332 47.29-11.429 33.701-18.677 44.279-40.015 43.292-53.4-20.681-40.595-34.622-72.939-88.85-103.15-33.446 4.085-79.433 55.789-90.381 79.658-1.571-0.337-3.115-0.602-4.639-0.819l4.639 0.819c-17.389 46.04-5.261 81.64 88.649 88.318m220.5-253.74-4.695-4.736c-24.53 11.167-75.215 19.43-128.29 15.95 56.831-5.653 102.84-12.802 120.43-23.882l-19.71-19.884h-56.307c0.123 0.281 0.24 0.564 0.378 0.84l10.551 18.353c7.498-0.777 14.706-1.608 21.507-2.49-25.588 10.264-84.085 16.277-125.61 9.191 9.575-0.286 19.471-0.683 29.465-1.173l-18.888-23.542c-0.304-0.378-0.564-0.781-0.835-1.179h-106.29c1.322 1.869 2.807 3.751 4.439 5.634 28.744 15.433 75.203 24.516 112.79 31.494-39.725 0-65.308-6.912-102.07-20.893 13.527 11.679 31.734 22.39 50.458 28.807 90.732 27.025 156.54 6.443 212.68-12.49m10.05 0.346c1.187-12.976 1.247-36.383 1.228-44.62-9.938-0.786-20.496 0.137-31.342 3.43zm6.577 0.32 50.59-18.971c-11.008-11.477-29.116-22.323-50.59-25.389zm161.87 84.589c15.983 2.122 25.273 1.073 32.44-1.393-26.511-6.625-54.506-16.42-84.877-31.287 39.179 15.413 71.641 25.115 94.606 26.744l1e-3 1e-3c0.659-0.367 1.321-0.741 1.989-1.118l-148.58-87.916-8.76 2.458c20.338 22.055 53.206 43.603 103.99 64.427-47.624-12.861-92.258-37.734-112.1-62.152l-6.957 1.952c6.319 13.46 38.163 29.505 66.177 45.163-30.533-9.668-63.164-30.316-71.909-43.554l-23.298 6.537c18.028 35.029 62.134 63.754 157.28 80.138m24.055-123.55c-32.637 6.768-52.737-3.391-62.003-32.008-25.014-4.609-34.747-31.45-8.79-48.856-11.204-13.75-15.206-27.405-2.675-38.318-7.487-16.438-5.032-38.607 25.656-46.029 5.198-1.133 9.934-1.911 14.289-2.405l-7.638-38.189-73.929-51.239-12.599 268.78 147.8 88.832zm29.619-63.11c-1.432 1.008-2.954 1.949-4.568 2.802l0.022 0.114-1.429 0.591c-1.516 0.732-3.104 1.39-4.759 1.965l-45.355 18.73c-7.455 3.941-14.555 6.186-21.095 7.1 2.562 17.863 18.305 31.975 53.127 20.169 33.551-10.333 35.72-32.008 24.057-51.471m-12.525-37.214c-12.557 0.578-31.031 5.189-56.723 16.303-59.743 20.298-39.996 56.433 10.364 36.137l51.307-20.628c18.853-10.823 14.31-33.568-4.948-31.812m-54.808-26.206c-27.522 7.011-39.057 22.332-24.875 41.067 5.165-2.42 11.254-4.536 18.364-6.217 24.415-10.397 43.05-14.784 56.777-15.251 9.141-16.84 5.756-32.908-50.266-19.599m-6.894-30.255c-25.572 5.224-27.228 19.527-20.148 31.855 6.198-3.206 14.314-6.072 24.744-8.494 16.108-4.453 29.421-7 39.733-7.434-2.894-15.042-7.281-23.113-44.329-15.927m22.483-34.824 4.482 23.582c2.2 0.183 4.256 0.467 6.15 0.863-3.657-8.522-7.194-16.681-10.632-24.445m-100.64-93.8c2.28 3.163 4.156 6.52 5.542 10.011l83.715 58.84c-29.572-62.395-53.316-90.524-89.257-68.851m13.439-109.58c-12.638 24.903-29.106 62.908-32.934 92.676 36.371-13.249 59.428-10.516 80.789 13.772 6.978-115.92 4.948-200.88-47.855-106.45m-23.164-7.926c-11.507 28.51-21.082 59.765-23.85 94.939 0.29 0.079 0.577 0.161 0.865 0.244 6.672-32.733 17.999-67.134 40.788-105.64 4.798-7.978 9.318-14.777 13.58-20.487-8.7 6.217-18.984 16.116-31.383 30.944m115.9-186.66c-101.26 152.05-225.65 171.68-217.27 297.43 5.287 0.16 10.553 0.34 15.773 0.565 15.6-14.465 33.229-19.576 49.468-18.457 6.685-48.134 16.873-81.182 30.512-108.5-17.293 16.703-34.182 34.618-49.342 54.963 46.794-84.886 147-135.82 170.86-225.99m95.942-357.94c-81.069 46.212-174.34 81.612-272.34 102.39-0.811 19.576-7.463 39.883-5.756 63.275 5.672 51.051 12.567 138.44 6.403 217.97 18.571 13.744 31.203 29.015 35.531 44.521 3.828 18.313 1.353 35.847-3.037 55.296 84.786-76.045 202.32-150.4 239.2-483.45m-668.1 463.95c6.803-0.726 13.684-0.78 20.436 0.048l-0.014 0.036c4.994 0.319 11.424 5.323 19.353 16.496 6.817 9.431 11.758 19.584 14.387 31.451 7.964-53.601 18.35-69.769 96.675-44.089 60.462 24.648 63.501 58.19 55.678 91.397 47.026 22.81 83.16 65.834 94.956 95.623 12.181-0.155 24.187-0.136 36.02 0.053 6.815-76.759 36.322-118.91 75.367-156.63 7.35-24.895 12.129-44.786 6.059-65.032-129.25-150.03-348.38-89.583-422.76 11.608 1.547 6.025 2.835 12.36 3.843 19.041m26.859 129.86c-17.525-42.755-23.653-95.407-17.073-118.29-28.365-2.981-52.504 7.281-72.335 31.045 11.911 16.317 24.641 35.338 37.801 55.552 20.624 1.346 37.443 24.866 51.607 31.689m12.916-26.347c1.457-10.306 4.813-19.012 10.122-25.864 1.297-16.69-1.263-30.084-7.824-42.688-40.979-63-32.608 25.362-3.204 95.505 0.785-0.409 1.561-0.94 2.329-1.576-3.577-5.295-4.496-13.309-1.423-25.377m14.137 33.448c-3.154-0.832-5.974-2.011-8.334-3.662-10.499 24.708-39.969-18.891-63.8-25.066 6.047 9.357 12.17 18.909 18.331 28.512 23.227 3.246 46.222 16.476 53.803 0.216m15.413 72.018c9.535-10.007 21.817-11.985 33.752 2.429l7.42 3.549c6.17 2.492 13.789-3.059 44.458 4.006 1.132-4.74 2.22-9.464 3.296-14.184-26.54-17.901-56.719-36.111-104.15-55.783-13.552 3.893-34.515-2.76-49.412-5.114 12.719 19.806 25.561 39.679 38.206 58.375 8.1 1.889 16.859 4.114 26.43 6.722m-6.438 92.488-2.365 5.023c2.855 5.898 5.768 12.725 8.587 20.2 0.173-8.42 1.252-17.141 3.092-25.816-2.635 0.194-5.775 0.398-9.314 0.593m24.888 130.2c4.506-11.557 8.849-23.057 13.048-34.507-5.75-5.793-11.597-13.114-17.685-22.257 4.062 19.506 6.165 39.431 4.637 56.764m-2.809 57.642-6.831-6.901c-40.224 34.909-80.983 55.553-122.72 50.17 1.49 4.322 4.163 8.726 8.226 12.341 49.827-6.811 94.425-29.568 126.5-55.61zm51.701-421.03c24.711 14.35 40.523 25.736 50.197 36.022 13.674-40.125 14.627-72.43-41.772-91.17-80.662-22.024-80.012 19.961-80.536 52.661 16.046-7.806 39.863-7.686 72.111 2.487m-17.872 63.573c43.531 18.957 49.275 61.36 62.297 25.277 17.042-24.128 14.552-48.255-47.489-78.51-60.892-21.255-82.23 2.691-81.19 27.574-7.085 40.404 27.345 11.681 66.382 25.659m74.552 34.851c-17.64 45.596-60.016-20.111-77.361-26.808-13.425-3.467-33.658-0.374-50.164-1.256-0.671 1.72-1.541 3.182-2.548 4.464 44.438 14.992 76.732 35.051 106.66 56.097 39.777-4.392 77.697-6.943 114.01-7.905-12.529-28.655-46.074-64.819-81.651-80.662-1.246 4.072-2.549 8.118-3.82 12.119 4.13 13.012 0.171 26.134-5.13 43.951m169.47 307.16c35.411-18.585 74.623 2.772 87.467 10.966l13.822-256.08c3.064-36.765-51.318-64.339-82.721-23.744zm-103.98-185.75 19.531 42.127s58.212-62.999 58.595-64.722c0.332-1.496-31.36 164.63-39.733 208.52l55.129-0.142 17.495-269.43c-67.834-2.959-135.28-0.739-202.16 8.97-2.758 17.497-6.476 35.862-11.053 55.003 22.284 4.453 44.079 16.607 41.946 29.762-0.325 2.357-1.077 4.323-2.176 5.973 10.353 2.386 14.829 19.373 8.435 30.785 7.495 9.141 10.895 29.134-11.816 36.585 2.895 15.816 1.076 37.872-31.081 43.718-18.059 2.889-33.251 2.235-48.339-7.538-7.922 21.675-16.532 43.971-25.791 66.854l123.78-0.318c0.035-0.133 0.051-0.267 0.089-0.399zm26.421 190.44 38.301-180.86-47.872 50.935-16.084-35.233-36.545 162.23c-1.35 5.424-0.17 11.167 3.209 15.619l19.581 22.179c16.888-0.954 33.816-2.182 49.81-3.648l-8.114-17.773c-2.45-4.025-3.267-8.834-2.286-13.442m-195.31-110.78c13.33 22.697 34.413 42.844 71.233 40.212 24.444-5.324 26.614-22.665 20.821-34.127-1.553 0.179-3.155 0.332-4.864 0.425-33.522 5.151-69.573-10.595-82.211-27.232 21.964 12.239 48.664 24.032 83.232 21.36 32.347-3.191 28.34-20.297 20.57-26.766l5e-3 -0.017c-1.428 0.964-3.025 1.784-4.827 2.401-43.171 8.042-62.698 0-86.342-23.745 31.021 18.766 56.369 27.064 80.041 18.383 18.435-8.018 14.168-27.645 2.095-29.352-12.677 4.949-36.816-0.706-60.562-6.52 29.043 2.512 54.707 7.987 58.212-7.148 0-8.681-36.51-22.723-58.212-28.085 4.113-0.802 8.722-1.061 13.556-0.858 3.402-12.398 6.611-24.73 9.641-37-27.518-9.349-37.509-5.028-44.899-7.843-7.057-0.758-12.956-9.089-20.862-11.796-24.345 0.337-37.372 64.607-11.052 77.846 3.941-13.186 9.464-25.817 15.957-36.561-11.489 37.575-19.766 89.418-1.532 116.42m-148.21-115.53c6.754 18.241 14.681 27.702 26.553 33.507 11.531 11.076 67.004 9.708 97.395 8.875-19.463-16.562-16.059-54.146-3.198-76.324-57.489-19.93-93.783-18.735-111.18-15.206-36.964 8.759-33.53 33.687-22.079 63.947 8.327 7.567 17.225 13.951 26.231 19.027-10.627-10.123-15.734-22.308-13.727-33.826m451.82-635.3c95.872-22.473 192.34-61.156 286.29-115.31l8.727 22.375c-16.246 155.46-52.785 260.77-95.985 336.79l4e-3 2e-3c-4.193 84.677-61.695 130.36-120.75 184.36-1.226 2.639-2.455 5.3-3.68 7.985 15.032-15.059 29.007-21.862 42.486-24.8 2.201-0.863 4.283-1.23 6.246-1.108 0.106-0.015 0.211-0.032 0.317-0.046v0.072c22.668 2.023 29.411 69.669 23.305 185.8 15.305 24.246 30.991 60.384 51.449 110.54 5.454 5.242 7.574 12.387 8.003 19.714 14.573 2.672 17.964 13.312 8.592 33.452 26.702 2.117 29.389 22.075 17.507 36.578 14.008 15.206 14.705 46.93-23.856 65.84l25.04 131.76-15.237-1.988c-13.931 4.356-29.735 8.901-47.315 6.328-83.232-8.681-159.32-45.701-169.91-84.764-8.987 2.655-18.086 5.403-27.378 8.071h4e-3c-7.86 22.952-35.434 47.824-61.603 47.824l0.048-0.067c-1.032 0.828-2.1 1.635-3.207 2.419 20.398 16.079 55.483 18.646 108.05 5.203-16.53 38.59-39.755 77.482-79.826 110.97 25.454 34.62 41.405 83.753 45.58 129.44 77.794 25.008 153.38 95.147 189.76 131.01 31.489 19.947 45.533 44.413 61.973 68.752l-13.862 3.696s-116.42-24.713-173.15-29.571c-49.332 0.402-79.783 5.791-102.79 13.059 13.081 27.451-4.396 60.303-44.836 88.954-55.148 47.291-211.91 169.33-288 169.33-128.31-2.935-158.3-14.663-237.94-95.791-14.513-3.877-28.258-9.057-41.327-15.385-44.524 15.588-48.604 31.215-68.716 49.391-52.07 49.261-100.3 29.705-64.11-42.68 45.669-87.655 68.58-136.72 242.78-135.39 8.576-6.135 19.222-10.037 32.091-11.277 2.464-16.107 5.259-32.606 8.16-49.231-78.582-46.335-152.13-111.95-217.39-198.21l10.166-8.317c90.451 34.962 132.18 48.227 189.84 52.658 0.145-55.163 38.831-85.239 85.732-109.97l-1e-3 1e-3c4.495-4.322 9.489-8.209 15.04-11.61-73.948-51.67-131.68-126.46-137.9-188.35 44.579 26.837 90.094 34.543 132.28 30.552-8.47-5.763-14.917-13.937-10.236-20.061-32.616-32.416-58.938-136.66-69.157-227.06-29.831-48.701-44.84-127.88-16.174-239.31-0.201-45.447 6.324-66.202 17.649-69.721-12.61-42.141-43.551-101.37-80.02-159.33h1e-3c-39.17-50.222-69.875-104.28-62.962-147.92-23.599-55.167-40.839-127.03-46.352-224.39l9.994-23.774c82.856 82.276 178.16 139.14 280.79 171.89 0.15-0.191 0.299-0.378 0.449-0.57 2.511-1.902 4.896-3.772 7.187-5.614 11.832-82.576-3.425-111.09 7.867-133.17-10.215-4.345-17.47-12.495-19.887-27.033-3.222-15.758-34.634-36.201-65.688-48.024-26.83 2.428-54.216-3.82-69.035-16.739-14.336-19.63-27.574-39.574-18.893-52.595 10.468-9.702 95.742-25.787 141.95-15.319l42.945 28.398 55.352-12.568s79.658 7.659 80.934 9.191c1.277 1.532 8.681 42.382 8.681 42.382 6.166 48.192-4.596 49.786-4.602 61.786-0.501 14.462 14.271 34.78 14.43 116.96 8.43 3.914 14.154 7.98 17.994 12.499 6.738-20.188 18.656-30.535 36.479-29.632 1.059-73.37 13.694-75.381 13.211-89.311-6e-3 -12-10.768-13.595-4.602-61.786 0 0 7.404-40.851 8.681-42.382 1.276-1.532 80.934-9.192 80.934-9.192l55.352 12.569 42.944-28.399c46.212-10.467 131.49 5.618 141.96 15.319 8.681 13.021-4.557 32.965-18.893 52.595-14.82 12.92-42.205 19.167-69.035 16.739-31.054 11.824-62.466 32.266-65.688 48.024-2.418 14.539-9.673 22.688-19.887 27.033 11.471 22.428-4.467 39.568 8.441 125.21 2.854 4.775 4.839 9.508 6.166 14.232m-284.66 1208.4c-6.442 0-11.665-5.223-11.665-11.665 0-6.443 5.223-11.666 11.665-11.666 6.443 0 11.665 5.223 11.665 11.666 0 6.442-5.222 11.665-11.665 11.665m22.891-738.35c12.457 2.781 21.517 9.686 20.236 15.423-1.28 5.738-12.417 8.135-24.874 5.355-12.456-2.781-21.516-9.686-20.236-15.424 1.281-5.737 12.417-8.134 24.874-5.354" style="fill:#351a0b"/></g></g></g></g></svg>
