<?xml version="1.0" encoding="UTF-8" standalone="no"?>
<!-- Created with Inkscape (http://www.inkscape.org/) -->

<svg
   xmlns:dc="http://purl.org/dc/elements/1.1/"
   xmlns:cc="http://creativecommons.org/ns#"
   xmlns:rdf="http://www.w3.org/1999/02/22-rdf-syntax-ns#"
   xmlns:svg="http://www.w3.org/2000/svg"
   xmlns="http://www.w3.org/2000/svg"
   xmlns:sodipodi="http://sodipodi.sourceforge.net/DTD/sodipodi-0.dtd"
   xmlns:inkscape="http://www.inkscape.org/namespaces/inkscape"
   width="542.71021mm"
   height="609.26361mm"
   viewBox="0 0 542.71021 609.26361"
   version="1.1"
   id="svg8"
   inkscape:version="0.92.3 (2405546, 2018-03-11)"
   sodipodi:docname="bulldog.svg">
  <defs
     id="defs2">
    <clipPath
       id="clipPath831"
       clipPathUnits="userSpaceOnUse">
      <path
         inkscape:connector-curvature="0"
         id="path829"
         d="M 0,2258.198 H 2204.257 V 0 H 0 Z" />
    </clipPath>
    <clipPath
       id="clipPath859"
       clipPathUnits="userSpaceOnUse">
      <path
         inkscape:connector-curvature="0"
         id="path857"
         d="M 934.479,187.381 H 1372.18 V 100.445 H 934.479 Z" />
    </clipPath>
    <clipPath
       id="clipPath879"
       clipPathUnits="userSpaceOnUse">
      <path
         inkscape:connector-curvature="0"
         id="path877"
         d="M 1364.99,1284.67 H 1908.2 V 737.122 h -543.21 z" />
    </clipPath>
    <clipPath
       id="clipPath895"
       clipPathUnits="userSpaceOnUse">
      <path
         inkscape:connector-curvature="0"
         id="path893"
         d="m 1524.54,1269.57 h 359.39 V 855.813 h -359.39 z" />
    </clipPath>
    <clipPath
       id="clipPath919"
       clipPathUnits="userSpaceOnUse">
      <path
         inkscape:connector-curvature="0"
         id="path917"
         d="m 1344.65,737.128 h 141.16 V 451.994 h -141.16 z" />
    </clipPath>
    <clipPath
       id="clipPath939"
       clipPathUnits="userSpaceOnUse">
      <path
         inkscape:connector-curvature="0"
         id="path937"
         d="m 1523.94,923.403 h 384.85 V 808.661 h -384.85 z" />
    </clipPath>
    <clipPath
       id="clipPath955"
       clipPathUnits="userSpaceOnUse">
      <path
         inkscape:connector-curvature="0"
         id="path953"
         d="m 1540.58,812.079 h 370.36 V 561.707 h -370.36 z" />
    </clipPath>
    <clipPath
       id="clipPath975"
       clipPathUnits="userSpaceOnUse">
      <path
         inkscape:connector-curvature="0"
         id="path973"
         d="M 398.672,1203.87 H 924.615 V 698.951 H 398.672 Z" />
    </clipPath>
    <clipPath
       id="clipPath991"
       clipPathUnits="userSpaceOnUse">
      <path
         inkscape:connector-curvature="0"
         id="path989"
         d="M 424.258,1190.42 H 779.353 V 814.456 H 424.258 Z" />
    </clipPath>
    <clipPath
       id="clipPath1015"
       clipPathUnits="userSpaceOnUse">
      <path
         inkscape:connector-curvature="0"
         id="path1013"
         d="M 783.734,682.104 H 925.993 V 418.085 H 783.734 Z" />
    </clipPath>
    <clipPath
       id="clipPath1035"
       clipPathUnits="userSpaceOnUse">
      <path
         inkscape:connector-curvature="0"
         id="path1033"
         d="m 398.963,870.189 h 363.855 v -99.21 H 398.963 Z" />
    </clipPath>
    <clipPath
       id="clipPath1051"
       clipPathUnits="userSpaceOnUse">
      <path
         inkscape:connector-curvature="0"
         id="path1049"
         d="M 398.679,773.794 H 764.177 V 516.229 H 398.679 Z" />
    </clipPath>
    <clipPath
       id="clipPath1075"
       clipPathUnits="userSpaceOnUse">
      <path
         inkscape:connector-curvature="0"
         id="path1073"
         d="m 1049.06,286.373 h 208.46 V 146.549 h -208.46 z" />
    </clipPath>
    <clipPath
       id="clipPath1091"
       clipPathUnits="userSpaceOnUse">
      <path
         inkscape:connector-curvature="0"
         id="path1089"
         d="M 973.493,373.611 H 1197.36 V 147.017 H 973.493 Z" />
    </clipPath>
    <clipPath
       id="clipPath1107"
       clipPathUnits="userSpaceOnUse">
      <path
         inkscape:connector-curvature="0"
         id="path1105"
         d="m 1213.67,350.86 h 114.24 V 203.32 h -114.24 z" />
    </clipPath>
    <clipPath
       id="clipPath1127"
       clipPathUnits="userSpaceOnUse">
      <path
         inkscape:connector-curvature="0"
         id="path1125"
         d="m 1187.78,190.562 h 66.53 v -58.92 h -66.53 z" />
    </clipPath>
    <clipPath
       id="clipPath1143"
       clipPathUnits="userSpaceOnUse">
      <path
         inkscape:connector-curvature="0"
         id="path1141"
         d="m 1194.68,189.325 h 45.96 v -48.91 h -45.96 z" />
    </clipPath>
    <clipPath
       id="clipPath1163"
       clipPathUnits="userSpaceOnUse">
      <path
         inkscape:connector-curvature="0"
         id="path1161"
         d="m 1032.47,192.451 h 64.09 v -57.617 h -64.09 z" />
    </clipPath>
    <clipPath
       id="clipPath1179"
       clipPathUnits="userSpaceOnUse">
      <path
         inkscape:connector-curvature="0"
         id="path1177"
         d="m 1072.82,189.325 h 23.23 v -48.401 h -23.23 z" />
    </clipPath>
    <clipPath
       id="clipPath1203"
       clipPathUnits="userSpaceOnUse">
      <path
         inkscape:connector-curvature="0"
         id="path1201"
         d="M 701.793,1257.88 H 1176.07 V 305.168 H 701.793 Z" />
    </clipPath>
    <clipPath
       id="clipPath1219"
       clipPathUnits="userSpaceOnUse">
      <path
         inkscape:connector-curvature="0"
         id="path1217"
         d="m 760.39,1220.81 h 823.83 V 336.364 H 760.39 Z" />
    </clipPath>
    <clipPath
       id="clipPath1235"
       clipPathUnits="userSpaceOnUse">
      <path
         inkscape:connector-curvature="0"
         id="path1233"
         d="m 1209.01,1220.81 h 384.27 V 352.052 h -384.27 z" />
    </clipPath>
    <clipPath
       id="clipPath1255"
       clipPathUnits="userSpaceOnUse">
      <path
         inkscape:connector-curvature="0"
         id="path1253"
         d="M 820.586,1669.04 H 1134.28 V 1056.45 H 820.586 Z" />
    </clipPath>
    <clipPath
       id="clipPath1271"
       clipPathUnits="userSpaceOnUse">
      <path
         inkscape:connector-curvature="0"
         id="path1269"
         d="m 1287.17,1571.68 h 201.9 v -477.1 h -201.9 z" />
    </clipPath>
    <clipPath
       id="clipPath1287"
       clipPathUnits="userSpaceOnUse">
      <path
         inkscape:connector-curvature="0"
         id="path1285"
         d="m 776.79,1515.98 h 672.59 V 1029.37 H 776.79 Z" />
    </clipPath>
    <clipPath
       id="clipPath1307"
       clipPathUnits="userSpaceOnUse">
      <path
         inkscape:connector-curvature="0"
         id="path1305"
         d="m 749.277,1518.82 h 108.561 v -77.7 H 749.277 Z" />
    </clipPath>
    <clipPath
       id="clipPath1323"
       clipPathUnits="userSpaceOnUse">
      <path
         inkscape:connector-curvature="0"
         id="path1321"
         d="M 772.692,1813.99 H 1306.99 V 1532.65 H 772.692 Z" />
    </clipPath>
    <clipPath
       id="clipPath1343"
       clipPathUnits="userSpaceOnUse">
      <path
         inkscape:connector-curvature="0"
         id="path1341"
         d="M 808.524,1846.63 H 971.01 V 1716.07 H 808.524 Z" />
    </clipPath>
    <clipPath
       id="clipPath1363"
       clipPathUnits="userSpaceOnUse">
      <path
         inkscape:connector-curvature="0"
         id="path1361"
         d="M 744.919,1853.01 H 873.28 V 1687.99 H 744.919 Z" />
    </clipPath>
    <clipPath
       id="clipPath1383"
       clipPathUnits="userSpaceOnUse">
      <path
         inkscape:connector-curvature="0"
         id="path1381"
         d="m 1243.73,1823.07 h 116.24 v -132.14 h -116.24 z" />
    </clipPath>
    <clipPath
       id="clipPath1399"
       clipPathUnits="userSpaceOnUse">
      <path
         inkscape:connector-curvature="0"
         id="path1397"
         d="m 1278.9,1821.08 h 120.48 V 1598.12 H 1278.9 Z" />
    </clipPath>
    <clipPath
       id="clipPath1419"
       clipPathUnits="userSpaceOnUse">
      <path
         inkscape:connector-curvature="0"
         id="path1417"
         d="m 1293.41,1845.21 h 158.67 v -220.82 h -158.67 z" />
    </clipPath>
    <clipPath
       id="clipPath1435"
       clipPathUnits="userSpaceOnUse">
      <path
         inkscape:connector-curvature="0"
         id="path1433"
         d="m 1176.07,1586.22 h 197.69 v -90.82 h -197.69 z" />
    </clipPath>
    <clipPath
       id="clipPath1451"
       clipPathUnits="userSpaceOnUse">
      <path
         inkscape:connector-curvature="0"
         id="path1449"
         d="m 768.08,1526.35 h 68.116 v -37.26 H 768.08 Z" />
    </clipPath>
    <clipPath
       id="clipPath1467"
       clipPathUnits="userSpaceOnUse">
      <path
         inkscape:connector-curvature="0"
         id="path1465"
         d="m 1373.32,1606.8 h 64.82 v -191.75 h -64.82 z" />
    </clipPath>
    <clipPath
       id="clipPath1483"
       clipPathUnits="userSpaceOnUse">
      <path
         inkscape:connector-curvature="0"
         id="path1481"
         d="m 1388.56,1453.54 h 52.17 v -81.58 h -52.17 z" />
    </clipPath>
    <clipPath
       id="clipPath1507"
       clipPathUnits="userSpaceOnUse">
      <path
         inkscape:connector-curvature="0"
         id="path1505"
         d="m 871.54,1812.95 h 214.62 V 1692.71 H 871.54 Z" />
    </clipPath>
    <clipPath
       id="clipPath1523"
       clipPathUnits="userSpaceOnUse">
      <path
         inkscape:connector-curvature="0"
         id="path1521"
         d="m 1050.82,1812.08 h 187.54 v -111.49 h -187.54 z" />
    </clipPath>
    <clipPath
       id="clipPath1547"
       clipPathUnits="userSpaceOnUse">
      <path
         inkscape:connector-curvature="0"
         id="path1545"
         d="m 1113.808,1600.971 c -20.631,-15.266 2.886,-97.315 2.886,-97.315 v 0 l 21.995,-0.347 c 0,0 37.318,18.81 64.518,26.264 v 0 c 27.201,7.454 40.093,9.775 40.093,9.775 v 0 c 0,0 -16.828,79.286 -31.237,82.083 v 0 c -2.272,0.441 -5.443,0.655 -9.268,0.655 v 0 c -23.373,10e-4 -71.255,-7.996 -88.987,-21.115" />
    </clipPath>
    <clipPath
       id="clipPath1567"
       clipPathUnits="userSpaceOnUse">
      <path
         inkscape:connector-curvature="0"
         id="path1565"
         d="M 0,2258.198 H 2204.257 V 0 H 0 Z" />
    </clipPath>
    <clipPath
       id="clipPath1583"
       clipPathUnits="userSpaceOnUse">
      <path
         inkscape:connector-curvature="0"
         id="path1581"
         d="m 833.135,1604.477 c -10.382,-3.792 -18.981,-69.829 -18.981,-69.829 v 0 c 0,0 9.602,-0.831 30.329,-4.762 v 0 c 21.216,-4.023 51.739,-17.161 51.739,-17.161 v 0 l 17.689,2.088 c 0,0 12.931,73.066 -4.681,83.676 v 0 c -10.42,6.278 -31.796,8.722 -49.656,8.722 v 0 c -11.646,0 -21.799,-1.04 -26.439,-2.734" />
    </clipPath>
    <clipPath
       id="clipPath1595"
       clipPathUnits="userSpaceOnUse">
      <path
         inkscape:connector-curvature="0"
         id="path1593"
         d="M 0,2258.198 H 2204.257 V 0 H 0 Z" />
    </clipPath>
    <clipPath
       id="clipPath1607"
       clipPathUnits="userSpaceOnUse">
      <path
         inkscape:connector-curvature="0"
         id="path1605"
         d="m 1053.67,1684.85 h 251.54 v -122.98 h -251.54 z" />
    </clipPath>
    <clipPath
       id="clipPath1631"
       clipPathUnits="userSpaceOnUse">
      <path
         inkscape:connector-curvature="0"
         id="path1629"
         d="M 763.113,1674.92 H 964.624 V 1565.59 H 763.113 Z" />
    </clipPath>
    <clipPath
       id="clipPath1647"
       clipPathUnits="userSpaceOnUse">
      <path
         inkscape:connector-curvature="0"
         id="path1645"
         d="m 767.641,1678.82 h 171.205 v -68.07 H 767.641 Z" />
    </clipPath>
    <clipPath
       id="clipPath1699"
       clipPathUnits="userSpaceOnUse">
      <path
         inkscape:connector-curvature="0"
         id="path1697"
         d="M 801.382,1462.05 H 948.958 V 1247.71 H 801.382 Z" />
    </clipPath>
    <clipPath
       id="clipPath1715"
       clipPathUnits="userSpaceOnUse">
      <path
         inkscape:connector-curvature="0"
         id="path1713"
         d="M 991.756,1467.73 H 1178.51 V 1237.76 H 991.756 Z" />
    </clipPath>
    <clipPath
       id="clipPath1731"
       clipPathUnits="userSpaceOnUse">
      <path
         inkscape:connector-curvature="0"
         id="path1729"
         d="m 752.47,1557.62 h 507.65 V 1212.04 H 752.47 Z" />
    </clipPath>
    <clipPath
       id="clipPath1747"
       clipPathUnits="userSpaceOnUse">
      <path
         inkscape:connector-curvature="0"
         id="path1745"
         d="M 909.683,1579.45 H 1096.63 V 1538.5 H 909.683 Z" />
    </clipPath>
    <clipPath
       id="clipPath1771"
       clipPathUnits="userSpaceOnUse">
      <path
         inkscape:connector-curvature="0"
         id="path1769"
         d="m 848.872,1240.17 h 287.818 v -66.83 H 848.872 Z" />
    </clipPath>
    <clipPath
       id="clipPath1787"
       clipPathUnits="userSpaceOnUse">
      <path
         inkscape:connector-curvature="0"
         id="path1785"
         d="M 801.579,1231.46 H 1192.93 V 1076.85 H 801.579 Z" />
    </clipPath>
  </defs>
  <sodipodi:namedview
     id="base"
     pagecolor="#ffffff"
     bordercolor="#666666"
     borderopacity="1.0"
     inkscape:pageopacity="0.0"
     inkscape:pageshadow="2"
     inkscape:zoom="0.175"
     inkscape:cx="-1233.012"
     inkscape:cy="870.0091"
     inkscape:document-units="mm"
     inkscape:current-layer="layer1"
     showgrid="false"
     fit-margin-top="0"
     fit-margin-left="0"
     fit-margin-right="0"
     fit-margin-bottom="0"
     inkscape:window-width="1920"
     inkscape:window-height="1017"
     inkscape:window-x="-8"
     inkscape:window-y="-8"
     inkscape:window-maximized="1" />
  <metadata
     id="metadata5">
    <rdf:RDF>
      <cc:Work
         rdf:about="">
        <dc:format>image/svg+xml</dc:format>
        <dc:type
           rdf:resource="http://purl.org/dc/dcmitype/StillImage" />
        <dc:title></dc:title>
      </cc:Work>
    </rdf:RDF>
  </metadata>
  <g
     inkscape:label="Layer 1"
     inkscape:groupmode="layer"
     id="layer1"
     transform="translate(59.574378,172.04982)">
    <g
       transform="matrix(0.35277777,0,0,-0.35277777,-195.28247,483.65438)"
       inkscape:label="bulldog-1456110"
       id="g823">
      <g
         id="g825">
        <g
           clip-path="url(#clipPath831)"
           id="g827">
          <g
             transform="translate(1069.1627,195.5224)"
             id="g833">
            <path
               inkscape:connector-curvature="0"
               id="path835"
               style="fill:#eb6767;fill-opacity:1;fill-rule:nonzero;stroke:none"
               d="m 0,0 c 0.967,0.13 1.932,0.262 2.898,0.391 -9.4,0.219 -18.8,0.448 -28.201,0.64 -8.241,-0.161 -16.483,-0.32 -24.724,-0.48 11.842,-0.456 23.74,-0.693 35.693,-0.693 4.79,0 9.565,0.058 14.334,0.142" />
          </g>
          <g
             transform="translate(1738.2311,1932.0681)"
             id="g837" />
          <g
             transform="translate(1653.4554,1848.4017)"
             id="g841" />
          <g
             transform="translate(615.9547,425.7142)"
             id="g845" />
          <g
             transform="translate(1926.5857,912.1839)"
             id="g849" />
          <g
             id="g853">
            <g
               id="g855" />
            <g
               id="g867">
              <g
                 style="opacity:0.10000598"
                 id="g865"
                 clip-path="url(#clipPath859)">
                <g
                   id="g863"
                   transform="translate(1372.1831,143.9128)" />
              </g>
            </g>
          </g>
          <g
             transform="translate(1507.1621,1289.7343)"
             id="g869">
            <path
               inkscape:connector-curvature="0"
               id="path871"
               style="fill:#979797;fill-opacity:1;fill-rule:nonzero;stroke:none"
               d="m 0,0 c 0,0 169.991,-86.227 255.841,-196.771 85.851,-110.544 160.651,-280.57 160.069,-296.052 -0.582,-15.481 -64.936,-86.106 -183.295,-51.247 -118.359,34.86 -301.774,228.391 -312.119,246.281 -10.346,17.891 -108.831,126.494 -77.042,228.153 C -124.756,32.023 0,0 0,0" />
          </g>
          <g
             id="g873">
            <g
               id="g875" />
            <g
               id="g887">
              <g
                 style="opacity:0.19999701"
                 id="g885"
                 clip-path="url(#clipPath879)">
                <g
                   id="g883"
                   transform="translate(1857.2317,888.7405)">
                  <path
                     inkscape:connector-curvature="0"
                     id="path881"
                     style="fill:#000000;fill-opacity:1;fill-rule:nonzero;stroke:none"
                     d="m 0,0 c -31.293,31.884 -114.946,81.952 -208.606,60.666 -2.701,-0.614 -13.836,116.011 -39.025,167.808 -45.773,94.124 -105.013,167.452 -105.013,167.452 0,0 -100.117,1.291 -131.907,-100.368 -31.789,-101.659 44.632,-174.462 54.977,-192.353 10.345,-17.89 193.761,-211.422 312.12,-246.281 88.785,-26.149 145.421,13.505 168.426,41.489 C 49.868,-59.81 39.476,-44.085 0,0" />
                </g>
              </g>
            </g>
          </g>
          <g
             id="g889">
            <g
               id="g891" />
            <g
               id="g903">
              <g
                 style="opacity:0.30000299"
                 id="g901"
                 clip-path="url(#clipPath895)">
                <g
                   id="g899"
                   transform="translate(1883.9279,855.813)">
                  <path
                     inkscape:connector-curvature="0"
                     id="path897"
                     style="fill:#f2f2f2;fill-opacity:1;fill-rule:nonzero;stroke:none"
                     d="m 0,0 c 0,0 -22.453,52.019 -90.532,80.717 -68.078,28.697 -96.795,22.3 -96.795,22.3 0,0 0.411,28.967 105.832,1.643 -45.163,124.269 -277.892,309.1 -277.892,309.1 0,0 162.204,-85.952 237.418,-186.346 C -46.754,127.02 0,0 0,0" />
                </g>
              </g>
            </g>
          </g>
          <g
             transform="translate(1398.9001,774.1241)"
             id="g905">
            <path
               inkscape:connector-curvature="0"
               id="path907"
               style="fill:#979797;fill-opacity:1;fill-rule:nonzero;stroke:none"
               d="m 0,0 c 0,0 71.582,50.662 174.942,101.236 82.646,40.438 106.791,48.043 106.791,48.043 0,0 106.954,-11.275 147.354,-40.414 C 471.345,78.388 537.506,36.042 521.668,0.699 504.939,-36.632 447,-104.829 323.836,-157.783 c -123.164,-52.954 -176.68,-54.11 -176.68,-54.11 0,0 -91.29,10.749 -128.477,79.027 C -18.508,-64.588 0,0 0,0" />
          </g>
          <g
             transform="translate(1545.3613,687.4833)"
             id="g909">
            <path
               inkscape:connector-curvature="0"
               id="path911"
               style="fill:#979797;fill-opacity:1;fill-rule:nonzero;stroke:none"
               d="M 0,0 C 0,0 -87.157,120.042 -102.726,111.95 -217.04,52.533 -206.914,-13.312 -191.331,-38.683 c 13.494,-21.969 100.727,-213.202 166.46,-210.145 9.053,0.421 69.005,-2.402 101.858,22.596 20.342,15.478 36.419,42.339 36.149,74.847 -0.079,9.501 -21.735,36.922 -29.607,42.415 -7.866,5.489 -51.858,-27.624 -51.858,-27.624 0,0 60.688,22.812 44.058,45.154 C 59.303,-69.37 0,0 0,0" />
          </g>
          <g
             id="g913">
            <g
               id="g915" />
            <g
               id="g927">
              <g
                 style="opacity:0.19999701"
                 id="g925"
                 clip-path="url(#clipPath919)">
                <g
                   id="g923"
                   transform="translate(1471.7705,530.3113)">
                  <path
                     inkscape:connector-curvature="0"
                     id="path921"
                     style="fill:#000000;fill-opacity:1;fill-rule:nonzero;stroke:none"
                     d="m 0,0 c 2.479,4.62 5.272,10.211 5.423,15.25 0.254,8.434 -5.027,16.923 -9.592,23.656 -9.961,14.693 -22.281,27.519 -33.947,40.833 -11.34,12.941 -19.793,26.807 -28.387,41.691 -15.769,27.311 -31.378,55.449 -41.709,85.386 -27.53,-37.987 -19.696,-71.773 -9.528,-88.327 C -106.525,100.23 -44.374,-34.936 14.036,-78.318 10.011,-69.469 -24.369,-45.42 0,0" />
                </g>
              </g>
            </g>
          </g>
          <g
             transform="translate(1484.705,502.0831)"
             id="g929">
            <path
               inkscape:connector-curvature="0"
               id="path931"
               style="fill:#e5e5e4;fill-opacity:1;fill-rule:nonzero;stroke:none"
               d="m 0,0 c 1.178,-5.408 4.207,-10.041 7.68,-13.96 11.368,-12.83 29.312,-37.636 45.307,-34.73 5.918,1.075 74.3,5.554 93.523,46.651 2.718,5.811 9.226,36.752 6.185,42.49 -2.176,4.103 -9.994,20.677 -32.628,11.348 -8.55,-3.524 -14.941,-3.712 -16.843,-11.555 -1.918,-7.91 10.22,-17.977 -9.614,-23.328 -3.774,-1.018 -1.859,10.123 -5.536,11.591 -3.679,1.47 -9.789,3.001 -8.347,7.065 0.647,1.823 4.726,7.136 6.037,8.382 8.336,7.916 5.45,5.486 13.619,13.252 C 104.014,61.609 52.325,34.135 26.741,22.599 18.082,18.695 -2.282,10.478 0,0" />
          </g>
          <g
             id="g933">
            <g
               id="g935" />
            <g
               id="g947">
              <g
                 style="opacity:0.5"
                 id="g945"
                 clip-path="url(#clipPath939)">
                <g
                   id="g943"
                   transform="translate(1523.943,834.5735)">
                  <path
                     inkscape:connector-curvature="0"
                     id="path941"
                     style="fill:#f2f2f2;fill-opacity:1;fill-rule:nonzero;stroke:none"
                     d="m 0,0 c 6.863,4.292 156.69,88.829 156.69,88.829 0,0 109.533,-11.942 158.316,-51.201 48.783,-39.258 69.843,-63.54 69.843,-63.54 0,0 -120.799,81.612 -235.966,72.015 C 102.98,42.278 0,0 0,0" />
                </g>
              </g>
            </g>
          </g>
          <g
             id="g949">
            <g
               id="g951" />
            <g
               id="g963">
              <g
                 style="opacity:0.19999701"
                 id="g961"
                 clip-path="url(#clipPath955)">
                <g
                   id="g959"
                   transform="translate(1781.8221,748.3459)">
                  <path
                     inkscape:connector-curvature="0"
                     id="path957"
                     style="fill:#000000;fill-opacity:1;fill-rule:nonzero;stroke:none"
                     d="m 0,0 c -20.217,-25.598 -35.221,-61.035 -58.154,-83.963 4.293,10 -0.112,37.818 4.181,47.818 -17.568,-19.125 -30.813,-55.459 -48.38,-74.584 3.411,12.05 -1.39,38.568 5.267,48.86 -17.8,-25.072 -19.412,-42.353 -41.753,-63.011 3.932,13.297 -10.027,19.367 -1.514,29.839 -4.287,-4.795 -12.861,-27.39 -30.739,-45.141 -23.599,-23.431 -58.295,-42.926 -70.154,-46.457 98.57,9.144 216.199,61.671 292.003,118.525 50.566,37.925 80.192,68.604 78.27,119.064 -15.23,-15.594 -15.746,-33.842 -35.189,-43.306 13.46,12.645 6.573,39.903 16.061,56.089 C 92.087,42.275 59.509,-27.226 36.386,-42.269 52.807,-25.606 54.817,30.316 62.837,52.995 54.06,35.955 28.053,-47.59 -15.107,-61.432 -12.733,-44.049 -2.502,-18.046 0,0" />
                </g>
              </g>
            </g>
          </g>
          <g
             transform="translate(796.5303,1208.7472)"
             id="g965">
            <path
               inkscape:connector-curvature="0"
               id="path967"
               style="fill:#979797;fill-opacity:1;fill-rule:nonzero;stroke:none"
               d="m 0,0 c 0,0 -163.657,-74.612 -248.942,-175.459 -85.286,-100.846 -162.491,-258.207 -162.551,-272.825 -0.06,-14.619 57.838,-83.734 170.797,-55.522 112.959,28.213 293.491,203.465 303.948,219.925 10.456,16.461 85.368,82.096 59.393,179.189 C 96.669,-7.597 0,0 0,0" />
          </g>
          <g
             id="g969">
            <g
               id="g971" />
            <g
               id="g983">
              <g
                 style="opacity:0.19999701"
                 id="g981"
                 clip-path="url(#clipPath975)">
                <g
                   id="g979"
                   transform="translate(450.7218,844.4511)">
                  <path
                     inkscape:connector-curvature="0"
                     id="path977"
                     style="fill:#000000;fill-opacity:1;fill-rule:nonzero;stroke:none"
                     d="m 0,0 c 30.757,28.83 111.593,72.746 199.059,48.996 2.522,-0.685 17.605,108.831 43.389,156.675 46.855,86.941 105.589,153.746 105.589,153.746 0,0 94.441,-2.718 120.416,-99.813 C 494.428,162.511 419.517,96.876 409.06,80.415 398.603,63.955 218.071,-111.297 105.112,-139.51 20.377,-160.673 -31.461,-121.06 -52.049,-93.773 -49.367,-54.428 -38.95,-40.012 0,0" />
                </g>
              </g>
            </g>
          </g>
          <g
             id="g985">
            <g
               id="g987" />
            <g
               id="g999">
              <g
                 style="opacity:0.30000299"
                 id="g997"
                 clip-path="url(#clipPath991)">
                <g
                   id="g995"
                   transform="translate(424.2585,814.4562)">
                  <path
                     inkscape:connector-curvature="0"
                     id="path993"
                     style="fill:#f2f2f2;fill-opacity:1;fill-rule:nonzero;stroke:none"
                     d="m 0,0 c 0,0 23.213,48.161 88.526,72.541 65.312,24.38 92.135,17.22 92.135,17.22 0,0 0.752,27.327 -99.713,5.71 47.463,115.384 274.146,280.495 274.146,280.495 0,0 -156.304,-74.659 -231.163,-166.354 C 49.073,117.917 0,0 0,0" />
                </g>
              </g>
            </g>
          </g>
          <g
             transform="translate(878.3327,718.3738)"
             id="g1001">
            <path
               inkscape:connector-curvature="0"
               id="path1003"
               style="fill:#979797;fill-opacity:1;fill-rule:nonzero;stroke:none"
               d="m 0,0 c 0,0 -65.497,50.578 -160.956,102.322 -76.33,41.374 -98.795,49.493 -98.795,49.493 0,0 -101.28,-6.426 -140.515,-32.309 -41.038,-27.074 -105.079,-64.396 -91.536,-98.341 14.304,-35.853 66.248,-102.426 180.286,-157.193 114.038,-54.767 164.448,-57.961 164.448,-57.961 0,0 86.49,6.546 124.234,69.457 C 14.91,-61.622 0,0 0,0" />
          </g>
          <g
             transform="translate(736.8428,642.4458)"
             id="g1005">
            <path
               inkscape:connector-curvature="0"
               id="path1007"
               style="fill:#979797;fill-opacity:1;fill-rule:nonzero;stroke:none"
               d="m 0,0 c 0,0 86.891,109.75 101.251,101.508 105.44,-60.511 93.305,-122.192 77.616,-145.5 -13.586,-20.181 -103.346,-197.047 -165.2,-191.581 -8.518,0.753 -65.152,0.448 -95.144,25.307 -18.569,15.393 -32.671,41.349 -31.138,71.988 0.447,8.954 21.943,33.955 29.58,38.825 7.632,4.865 47.806,-28.083 47.806,-28.083 0,0 -56.319,23.893 -39.763,44.304 C -58.638,-63.071 0,0 0,0" />
          </g>
          <g
             id="g1009">
            <g
               id="g1011" />
            <g
               id="g1023">
              <g
                 style="opacity:0.19999701"
                 id="g1021"
                 clip-path="url(#clipPath1015)">
                <g
                   id="g1019"
                   transform="translate(800.0459,491.371)">
                  <path
                     inkscape:connector-curvature="0"
                     id="path1017"
                     style="fill:#000000;fill-opacity:1;fill-rule:nonzero;stroke:none"
                     d="m 0,0 c -2.155,4.453 -4.569,9.834 -4.513,14.591 0.092,7.961 5.405,15.757 9.973,21.926 9.969,13.461 22.089,25.069 33.61,37.162 11.201,11.756 19.715,24.496 28.403,38.192 15.94,25.128 31.763,51.043 42.68,78.862 24.461,-36.896 15.747,-68.442 5.51,-83.65 C 104.372,90.31 40.463,-34.682 -16.311,-73.286 -12.169,-65.102 21.19,-43.78 0,0" />
                </g>
              </g>
            </g>
          </g>
          <g
             transform="translate(786.7419,465.2658)"
             id="g1025">
            <path
               inkscape:connector-curvature="0"
               id="path1027"
               style="fill:#e5e5e4;fill-opacity:1;fill-rule:nonzero;stroke:none"
               d="m 0,0 c -1.323,-5.053 -4.361,-9.301 -7.789,-12.859 -11.222,-11.65 -29.116,-34.331 -44.082,-30.963 -5.536,1.247 -69.831,8.157 -86.339,47.659 -2.334,5.586 -7.254,35.013 -4.161,40.303 2.212,3.782 10.235,19.101 31.208,9.416 7.922,-3.659 13.94,-4.087 15.425,-11.556 1.497,-7.534 -10.342,-16.547 8.147,-22.372 3.518,-1.108 2.151,9.471 5.675,10.711 3.527,1.241 9.348,2.444 8.147,6.333 -0.538,1.744 -4.174,6.914 -5.362,8.14 -7.547,7.79 -4.922,5.386 -12.319,13.029 -4.193,4.333 43.46,-23.601 67.127,-35.483 C -16.313,18.336 2.563,9.789 0,0" />
          </g>
          <g
             id="g1029">
            <g
               id="g1031" />
            <g
               id="g1043">
              <g
                 style="opacity:0.5"
                 id="g1041"
                 clip-path="url(#clipPath1035)">
                <g
                   id="g1039"
                   transform="translate(762.8181,780.2807)">
                  <path
                     inkscape:connector-curvature="0"
                     id="path1037"
                     style="fill:#f2f2f2;fill-opacity:1;fill-rule:nonzero;stroke:none"
                     d="m 0,0 c -6.302,4.316 -144.236,89.908 -144.236,89.908 0,0 -103.738,-6.954 -151.273,-42.049 -47.536,-35.095 -68.346,-57.161 -68.346,-57.161 0,0 117.097,72.196 225.299,58.62 C -95.428,43.907 0,0 0,0" />
                </g>
              </g>
            </g>
          </g>
          <g
             id="g1045">
            <g
               id="g1047" />
            <g
               id="g1059">
              <g
                 style="opacity:0.19999701"
                 id="g1057"
                 clip-path="url(#clipPath1051)">
                <g
                   id="g1055"
                   transform="translate(526.8348,707.8065)">
                  <path
                     inkscape:connector-curvature="0"
                     id="path1053"
                     style="fill:#000000;fill-opacity:1;fill-rule:nonzero;stroke:none"
                     d="m 0,0 c 19.684,-26.01 33.954,-61.749 56.409,-85.145 -4.086,10.086 0.892,37.807 -3.193,47.894 17.169,-19.483 29.661,-56.083 46.83,-75.566 -3.161,12.117 2.185,38.53 -4.258,48.958 17.279,-25.435 18.534,-42.745 40.445,-63.859 -3.658,13.375 10.423,19.156 2.128,29.801 4.187,-4.883 12.293,-27.65 29.801,-45.766 23.111,-23.913 57.396,-44.119 69.181,-47.894 -98.36,11.176 -214.881,66.119 -289.495,124.525 -49.773,38.961 -78.759,70.245 -75.796,120.654 14.905,-15.904 15.044,-34.16 34.288,-44.023 -13.197,12.92 -5.749,40.03 -14.901,56.409 17.366,-21.822 48.503,-91.979 71.31,-107.496 C -53.324,-24.51 -54.18,31.441 -61.73,54.28 -53.306,37.063 -29.029,-47 13.836,-61.73 11.821,-44.302 2.129,-18.093 0,0" />
                </g>
              </g>
            </g>
          </g>
          <g
             transform="translate(1287.467,343.81)"
             id="g1061">
            <path
               inkscape:connector-curvature="0"
               id="path1063"
               style="fill:#808080;fill-opacity:1;fill-rule:nonzero;stroke:none"
               d="M 0,0 C 0,0 9.934,27.672 19.867,21.286 29.801,14.9 32.278,10.206 31.929,5.676 31.22,-3.548 13.481,-16.319 13.481,-16.319 Z" />
          </g>
          <g
             transform="translate(1149.4604,373.6108)"
             id="g1065">
            <path
               inkscape:connector-curvature="0"
               id="path1067"
               style="fill:#979797;fill-opacity:1;fill-rule:nonzero;stroke:none"
               d="m 0,0 c -95.813,0 -175.967,-56.938 -175.967,-126.299 0,-45.667 26.963,-82.662 70.954,-99.691 7.45,-3.193 18.797,7.071 18.449,12.062 0.281,9.282 -18.345,22.411 -19.868,39.38 -3.725,41.508 38.685,63.74 95.789,65.455 57.104,1.716 115.479,6.919 108.028,-52.683 -2.218,-17.747 -16.497,-34.59 -31.929,-43.105 -5.322,-4.257 10.643,-28.205 31.397,-20.754 52.062,23.36 84.803,59.037 86.21,104.303 C 186.255,-18.625 95.812,0 0,0" />
          </g>
          <g
             id="g1069">
            <g
               id="g1071" />
            <g
               id="g1083">
              <g
                 style="opacity:0.19999701"
                 id="g1081"
                 clip-path="url(#clipPath1075)">
                <g
                   id="g1079"
                   transform="translate(1242.7655,187.71)">
                  <path
                     inkscape:connector-curvature="0"
                     id="path1077"
                     style="fill:#000000;fill-opacity:1;fill-rule:nonzero;stroke:none"
                     d="m 0,0 c 9.934,11.353 18.848,36.708 12.772,57.473 -9.579,32.736 -49.048,41.015 -78.05,41.154 -40.929,0.195 -108.56,1.419 -128.428,-56.764 19.158,26.253 60.706,34.072 89.758,34.945 C -46.844,78.524 11.531,83.726 4.08,24.125 1.862,6.378 -12.417,-10.466 -27.849,-18.98 c -5.322,-4.258 10.643,-28.205 31.397,-20.754 3.268,1.466 6.459,2.981 9.572,4.544 C 12.682,-21.336 7.096,-9.933 0,0" />
                </g>
              </g>
            </g>
          </g>
          <g
             id="g1085">
            <g
               id="g1087" />
            <g
               id="g1099">
              <g
                 style="opacity:0.19999701"
                 id="g1097"
                 clip-path="url(#clipPath1091)">
                <g
                   id="g1095"
                   transform="translate(999.3917,223.1874)">
                  <path
                     inkscape:connector-curvature="0"
                     id="path1093"
                     style="fill:#000000;fill-opacity:1;fill-rule:nonzero;stroke:none"
                     d="m 0,0 c -5.006,28.958 -2.289,70.277 21.996,90.112 11.075,9.046 33.713,17.167 47.184,14.798 20.357,-3.581 39.731,-11.694 60.766,-7.294 29.085,6.083 50.132,27.736 68.021,50.874 -15.524,1.394 -31.633,1.933 -47.898,1.933 -95.813,0 -175.968,-56.937 -175.968,-126.298 0,-45.668 26.964,-82.662 70.955,-99.691 7.451,-3.193 18.797,7.071 18.448,12.062 0.111,3.67 -2.744,7.95 -6.318,12.821 C 29.457,-43.016 4.97,-28.75 0,0" />
                </g>
              </g>
            </g>
          </g>
          <g
             id="g1101">
            <g
               id="g1103" />
            <g
               id="g1115">
              <g
                 style="opacity:0.19999701"
                 id="g1113"
                 clip-path="url(#clipPath1107)">
                <g
                   id="g1111"
                   transform="translate(1213.6746,328.2)">
                  <path
                     inkscape:connector-curvature="0"
                     id="path1109"
                     style="fill:#ffffff;fill-opacity:1;fill-rule:nonzero;stroke:none"
                     d="m 0,0 c 0,0 57.978,0.919 86.564,-32.639 32.639,-38.315 12.772,-92.241 12.772,-92.241 0,0 36.204,62.171 -4.257,114.947 C 62.44,32.639 29.801,21.286 29.801,21.286 Z" />
                </g>
              </g>
            </g>
          </g>
          <g
             transform="translate(1254.3149,151.7005)"
             id="g1117">
            <path
               inkscape:connector-curvature="0"
               id="path1119"
               style="fill:#e5e5e4;fill-opacity:1;fill-rule:nonzero;stroke:none"
               d="m 0,0 c 0,0 -14.901,34.058 -35.655,38.315 -20.754,4.258 -31.397,-8.514 -30.865,-21.286 0.532,-12.772 1.4,-25.011 1.4,-25.011 0,0 7.45,-17.029 40.641,-10.643 C -5.923,-15.055 0,0 0,0" />
          </g>
          <g
             id="g1121">
            <g
               id="g1123" />
            <g
               id="g1135">
              <g
                 style="opacity:0.19999701"
                 id="g1133"
                 clip-path="url(#clipPath1127)">
                <g
                   id="g1131"
                   transform="translate(1197.0889,144.7825)">
                  <path
                     inkscape:connector-curvature="0"
                     id="path1129"
                     style="fill:#000000;fill-opacity:1;fill-rule:nonzero;stroke:none"
                     d="M 0,0 C 0,0 -4.236,24.053 -1.597,33.26 0.002,38.835 6.939,43.351 9.837,45.779 -3.143,44.073 -9.714,34.028 -9.294,23.947 c 0.532,-12.772 1.4,-25.011 1.4,-25.011 0,0 7.451,-17.029 40.641,-10.643 18.556,3.57 24.479,18.625 24.479,18.625 0,0 -0.115,0.26 -0.32,0.704 C 49.869,0.382 40.636,-2.533 31.397,-4.789 8.515,-10.377 0,0 0,0" />
                </g>
              </g>
            </g>
          </g>
          <g
             id="g1137">
            <g
               id="g1139" />
            <g
               id="g1151">
              <g
                 style="opacity:0.5"
                 id="g1149"
                 clip-path="url(#clipPath1143)">
                <g
                   id="g1147"
                   transform="translate(1210.6587,188.9519)">
                  <path
                     inkscape:connector-curvature="0"
                     id="path1145"
                     style="fill:#ffffff;fill-opacity:1;fill-rule:nonzero;stroke:none"
                     d="m 0,0 c -2.154,1.348 -12.441,-0.532 -14.569,-12.772 -1.464,-8.418 -1.864,-17.996 -0.826,-26.477 0.199,-1.627 0.435,-3.299 1.26,-4.716 0.825,-1.416 2.39,-2.527 4.016,-2.326 0.288,0.035 0.575,0.113 0.818,0.269 C -8.464,-45.483 -15.167,-10.91 0,0 m 8.692,-10.111 c 0.167,0.555 10.289,0.71 21.286,-9.224 C 29.269,-9.757 7.919,-0.657 7.628,-0.532 5.145,0.532 -3.153,-5.987 -4.789,-18.271 c -1.169,-8.778 -0.555,-18.247 0.492,-27.04 0.113,-0.949 0.331,-2.036 1.17,-2.494 0.574,-0.314 9.86,-0.998 12.528,-0.622 -4.612,18.448 -3.134,30.257 -0.709,38.316" />
                </g>
              </g>
            </g>
          </g>
          <g
             transform="translate(1032.2084,154.5386)"
             id="g1153">
            <path
               inkscape:connector-curvature="0"
               id="path1155"
               style="fill:#e5e5e4;fill-opacity:1;fill-rule:nonzero;stroke:none"
               d="M 0,0 C 0,0 14.9,34.059 35.654,38.315 56.408,42.573 67.052,29.801 66.52,17.029 65.988,4.257 64.923,-9.046 64.923,-9.046 c 0,0 -5.853,-13.837 -40.444,-9.579 C 5.723,-16.317 0,0 0,0" />
          </g>
          <g
             id="g1157">
            <g
               id="g1159" />
            <g
               id="g1171">
              <g
                 style="opacity:0.19999701"
                 id="g1169"
                 clip-path="url(#clipPath1163)">
                <g
                   id="g1167"
                   transform="translate(1061.6544,141.9889)">
                  <path
                     inkscape:connector-curvature="0"
                     id="path1165"
                     style="fill:#000000;fill-opacity:1;fill-rule:nonzero;stroke:none"
                     d="M 0,0 C -7.436,2.348 -16.231,7.317 -6.652,34.191 -5.642,37.024 0,47.229 5.93,50.462 -14.538,45.726 -29.18,12.284 -29.18,12.284 c 0,0 5.723,-16.317 24.479,-18.625 27.86,-3.429 37.072,4.874 39.605,8.238 C 24.783,-4.688 10.111,-3.193 0,0" />
                </g>
              </g>
            </g>
          </g>
          <g
             id="g1173">
            <g
               id="g1175" />
            <g
               id="g1187">
              <g
                 style="opacity:0.5"
                 id="g1185"
                 clip-path="url(#clipPath1179)">
                <g
                   id="g1183"
                   transform="translate(1094.6481,176.1799)">
                  <path
                     inkscape:connector-curvature="0"
                     id="path1181"
                     style="fill:#ffffff;fill-opacity:1;fill-rule:nonzero;stroke:none"
                     d="m 0,0 c -2.129,12.24 -14.875,14.12 -17.029,12.772 12.772,-10.643 11.684,-30.843 10.961,-43.298 -0.058,-0.994 -0.037,-2.185 0.799,-2.724 0.244,-0.156 0.531,-0.234 0.818,-0.269 1.627,-0.202 3.192,0.91 4.017,2.326 0.825,1.417 1.061,3.089 1.26,4.716 C 1.864,-17.996 1.464,-8.418 0,0 m -14.688,3.336 c -1.334,1.501 -3.88,2.524 -5.219,1.028 -0.598,-0.668 -0.721,-1.622 -0.812,-2.514 -1.218,-11.917 -1.435,-23.938 -0.648,-35.893 2.668,-0.376 5.336,-0.753 8.005,-1.129 0.646,-0.092 1.346,-0.175 1.919,0.139 0.84,0.458 1.058,1.545 1.171,2.494 1.046,8.793 0.806,17.739 -0.71,26.464 -0.585,3.366 -1.437,6.857 -3.706,9.411" />
                </g>
              </g>
            </g>
          </g>
          <g
             transform="translate(1180.3258,1388.97)"
             id="g1189">
            <path
               inkscape:connector-curvature="0"
               id="path1191"
               style="fill:#979797;fill-opacity:1;fill-rule:nonzero;stroke:none"
               d="m 0,0 c 0,0 -404.441,-23.415 -461.914,-340.582 -57.473,-317.166 55.345,-440.627 78.76,-468.3 23.414,-27.672 261.822,-272.465 355.482,-272.465 93.66,0 414.407,342.504 447.013,576.86 34.058,244.793 -88.814,393.209 -106.432,410.827 C 214.992,4.257 0,0 0,0" />
          </g>
          <g
             transform="translate(1195.2261,952.5995)"
             id="g1193">
            <path
               inkscape:connector-curvature="0"
               id="path1195"
               style="fill:#e5e5e4;fill-opacity:1;fill-rule:nonzero;stroke:none"
               d="m 0,0 c -27.365,-24.828 -80.527,-30.103 -113.774,-13.981 -75.526,36.624 -246.043,119.432 -273.637,-32.849 -39.312,-216.943 77.564,-345.457 93.58,-364.385 16.016,-18.928 178.704,-216.358 242.744,-214.604 51.797,1.419 292.735,237.045 315.038,397.346 23.296,167.439 -9.934,240.536 -52.506,263.95 C 140.938,74.256 56.62,51.372 0,0" />
          </g>
          <g
             id="g1197">
            <g
               id="g1199" />
            <g
               id="g1211">
              <g
                 style="opacity:0.19999701"
                 id="g1209"
                 clip-path="url(#clipPath1203)">
                <g
                   id="g1207"
                   transform="translate(992.2963,1171.1396)">
                  <path
                     inkscape:connector-curvature="0"
                     id="path1205"
                     style="fill:#000000;fill-opacity:1;fill-rule:nonzero;stroke:none"
                     d="m 0,0 c -6.386,0 -186.359,-30.438 -236.988,-194.415 -47.539,-153.972 33.348,-224.217 33.348,-224.217 0,0 8.515,-93.66 44.702,-150.423 87.81,-137.741 262.252,-268.37 284.527,-276.723 34.058,-12.772 58.183,5.676 58.183,5.676 0,0 -28.695,-53.14 -85.855,-7.095 -51.087,41.154 -68.902,51.421 -105.012,82.307 -177.302,151.652 -247.009,208.104 -275.304,392.024 -34.058,221.378 44.701,403.731 134.104,457.657 C -119.823,101.964 0,0 0,0" />
                </g>
              </g>
            </g>
          </g>
          <g
             id="g1213">
            <g
               id="g1215" />
            <g
               id="g1227">
              <g
                 style="opacity:0.30000299"
                 id="g1225"
                 clip-path="url(#clipPath1219)">
                <g
                   id="g1223"
                   transform="translate(1037.7072,982.4004)">
                  <path
                     inkscape:connector-curvature="0"
                     id="path1221"
                     style="fill:#ffffff;fill-opacity:1;fill-rule:nonzero;stroke:none"
                     d="m 0,0 c 11.21,26.111 17.493,33.799 40.262,50.799 -51.358,-6.645 -76.515,-6.845 -120.086,-34.834 8.997,17.385 1.784,21.104 18.094,31.929 -33.289,-7.192 -51.791,-12.049 -82.408,-26.964 3.47,15.633 11.942,30.116 23.87,40.801 -19.844,-5.501 -57.075,-25.844 -75.586,-34.864 l 17.049,29.542 -28.737,-10.643 24.479,38.315 c 0,0 -34.77,-23.367 -42.219,-27.991 -7.449,-4.624 -47.183,-56.09 -51.441,-128.464 -2.095,-35.624 0.535,-85.914 21.287,-114.946 20.804,-29.105 90.112,-103.593 322.133,-99.336 133.739,2.454 176.266,3.967 251.303,25.618 13.35,3.852 27.455,-3.49 31.798,-16.689 9.96,-30.274 14.335,-59.015 -1.485,-94.98 -66.794,-151.85 -198.367,-280.95 -187.956,-272.979 322.488,246.922 386.264,562.016 385.993,581.827 -0.407,29.656 9.224,208.606 -73.793,302.266 C 457.657,180.934 411.079,139.615 366.125,110.689 290.529,62.046 212.816,36.7 179.87,25.544 193.064,39.428 200.716,61.642 213.91,75.526 163.021,56.007 130.524,15.754 84.081,-12.772 96.853,19.158 106.43,49.825 133.697,62.417 79.783,48.896 41.204,37.307 0,0" />
                </g>
              </g>
            </g>
          </g>
          <g
             id="g1229">
            <g
               id="g1231" />
            <g
               id="g1243">
              <g
                 style="opacity:0.19999701"
                 id="g1241"
                 clip-path="url(#clipPath1235)">
                <g
                   id="g1239"
                   transform="translate(1510.264,1220.8075)">
                  <path
                     inkscape:connector-curvature="0"
                     id="path1237"
                     style="fill:#ffffff;fill-opacity:1;fill-rule:nonzero;stroke:none"
                     d="m 0,0 c -14.9,-57.473 -61.478,-98.792 -106.432,-127.718 -15.126,-9.733 6.338,1.855 -8.514,-5.676 C 46.83,-280.27 -22.705,-530.739 -48.249,-563.379 -124.88,-714.512 -311.054,-876.299 -300.847,-868.483 21.641,-621.562 70.052,-368.482 79.469,-307.942 89.403,-244.083 83.017,-93.66 0,0" />
                </g>
              </g>
            </g>
          </g>
          <g
             transform="translate(1498.9114,1314.4677)"
             id="g1245">
            <path
               inkscape:connector-curvature="0"
               id="path1247"
               style="fill:#979797;fill-opacity:1;fill-rule:nonzero;stroke:none"
               d="m 0,0 c 0,-196.719 -214.468,-250.046 -397.345,-256.855 -266.789,-9.934 -280.98,41.688 -280.98,238.407 0,196.719 95.079,370.382 346.967,374.64 C -148.38,359.284 0,196.719 0,0" />
          </g>
          <g
             id="g1249">
            <g
               id="g1251" />
            <g
               id="g1263">
              <g
                 style="opacity:0.19999701"
                 id="g1261"
                 clip-path="url(#clipPath1255)">
                <g
                   id="g1259"
                   transform="translate(971.364,1109.0538)">
                  <path
                     inkscape:connector-curvature="0"
                     id="path1257"
                     style="fill:#000000;fill-opacity:1;fill-rule:nonzero;stroke:none"
                     d="m 0,0 c -2.206,1.967 19.139,-2.109 27.576,-3.458 -3.852,4.246 -29.945,30.256 -36.197,39.277 -9.354,13.501 -18.293,28.275 -23.244,44.048 -0.843,2.685 15.915,-16.222 23.256,-23.846 -22.043,53.819 -29.477,116.256 -27.04,173.532 5.597,131.54 74.885,281.981 198.561,330.432 -227.024,-18.437 -313.69,-185.216 -313.69,-373.019 0,-190.575 13.319,-244.975 256.712,-239.156 -6.611,2.2 -39,11.586 -61.587,22.744 C 18.268,-16.562 1.965,-1.752 0,0" />
                </g>
              </g>
            </g>
          </g>
          <g
             id="g1265">
            <g
               id="g1267" />
            <g
               id="g1279">
              <g
                 style="opacity:0.19999701"
                 id="g1277"
                 clip-path="url(#clipPath1271)">
                <g
                   id="g1275"
                   transform="translate(1456.339,1456.3768)">
                  <path
                     inkscape:connector-curvature="0"
                     id="path1273"
                     style="fill:#ffffff;fill-opacity:1;fill-rule:nonzero;stroke:none"
                     d="m 0,0 c -55.344,95.079 -140.49,136.233 -166.034,105.013 -25.543,-31.22 113.527,-173.129 113.527,-173.129 0,0 25.421,-36.249 20.224,-98.933 10.069,6.612 18.857,14.843 25.504,25.342 1.477,2.334 -15.696,-42.099 -30.887,-58.825 -0.634,-2.657 -1.321,-5.348 -2.069,-8.074 -1.789,-6.527 -4.133,-13.232 -6.915,-20.019 8.814,4.776 17.046,11.274 24.807,16.509 2.312,1.56 -25.802,-43.222 -46.458,-57.862 -5.638,-8.953 -11.767,-17.728 -18.177,-26.12 11.297,4.302 21.847,10.338 32.705,15.866 2.352,1.197 -19.68,-27.424 -33.475,-34.43 -8.127,-4.128 -16.444,-7.787 -24.82,-11.312 -12.132,-12.564 -24.351,-23.039 -35.518,-30.218 -39.734,-25.543 107.851,41.154 143.329,100.756 C 31.22,-195.835 55.344,-95.079 0,0" />
                </g>
              </g>
            </g>
          </g>
          <g
             id="g1281">
            <g
               id="g1283" />
            <g
               id="g1295">
              <g
                 style="opacity:0.30000299"
                 id="g1293"
                 clip-path="url(#clipPath1287)">
                <g
                   id="g1291"
                   transform="translate(817.5127,1078.5797)">
                  <path
                     inkscape:connector-curvature="0"
                     id="path1289"
                     style="fill:#000000;fill-opacity:1;fill-rule:nonzero;stroke:none"
                     d="m 0,0 c -12.483,13.599 -10.342,34.659 -7.417,52.885 -16.302,-2.365 -31.007,12.047 -33.181,28.376 -1.356,10.184 8.514,61.306 23.805,53.871 17.814,-8.661 -5.644,92.682 7.095,107.851 107.823,128.395 270.648,129.913 434.755,164.263 28.28,5.919 173.926,30.125 189.645,30.153 19.226,-45.274 28.133,-82.111 -4.967,-118.494 -5.033,-5.532 -29.056,-37.79 -30.978,-45.018 -2.776,-10.44 5.255,-63.544 -5.209,-74.186 C 563.084,189.06 557.093,175.487 545.876,165.643 501.414,126.624 469.954,76.95 452.925,15.929 415.621,21.188 365.482,14.201 329.464,3.157 c -2.175,-23.313 -18.95,-38.848 -41.1,-46.437 -22.151,-7.59 -46.235,-6.336 -69.589,-4.65 C 148.602,-42.865 94.119,-34.964 26.906,-14.167 17.104,-11.134 6.939,-7.559 0,0" />
                </g>
              </g>
            </g>
          </g>
          <g
             transform="translate(768.4347,1425.1564)"
             id="g1297">
            <path
               inkscape:connector-curvature="0"
               id="path1299"
               style="fill:#979797;fill-opacity:1;fill-rule:nonzero;stroke:none"
               d="m 0,0 c 0,0 -25.189,91.177 -18.093,105.368 7.095,14.19 77.34,186.965 95.788,206.832 18.449,19.867 168.872,79.469 187.32,80.888 18.448,1.419 174.548,1.419 197.254,-5.676 22.705,-7.096 144.747,-144.748 177.386,-212.864 32.639,-68.116 39.735,-130.556 39.735,-141.909 0,-11.352 -134.814,-211.444 -154.681,-211.444 -19.867,0 -361.868,-43.992 -417.213,-9.934 C 52.152,-154.681 0,0 0,0" />
          </g>
          <g
             id="g1301">
            <g
               id="g1303" />
            <g
               id="g1315">
              <g
                 style="opacity:0.19999701"
                 id="g1313"
                 clip-path="url(#clipPath1307)">
                <g
                   id="g1311"
                   transform="translate(749.2771,1518.8167)">
                  <path
                     inkscape:connector-curvature="0"
                     id="path1309"
                     style="fill:#000000;fill-opacity:1;fill-rule:nonzero;stroke:none"
                     d="m 0,0 c 0,-3.193 31.93,-64.923 31.93,-64.923 l 24.479,8.514 52.151,55.344 -46.83,-72.373 -45.765,-4.257 z" />
                </g>
              </g>
            </g>
          </g>
          <g
             id="g1317">
            <g
               id="g1319" />
            <g
               id="g1331">
              <g
                 style="opacity:0.5"
                 id="g1329"
                 clip-path="url(#clipPath1323)">
                <g
                   id="g1327"
                   transform="translate(1142.7197,1813.9873)">
                  <path
                     inkscape:connector-curvature="0"
                     id="path1325"
                     style="fill:#676767;fill-opacity:1;fill-rule:nonzero;stroke:none"
                     d="m 0,0 -36.896,-18.448 70.954,-7.095 -82.307,-5.677 c 0,0 -19.867,-14.191 -25.543,-26.963 -5.677,-12.771 14.19,8.515 41.153,-2.838 26.963,-11.353 48.249,-26.963 48.249,-26.963 0,0 -53.925,17.03 -65.278,14.191 -11.353,-2.838 -38.315,-9.933 -38.315,-9.933 0,0 -34.25,-31.783 -39.38,-92.241 -1.454,-17.131 4.096,-31.668 21.286,-31.93 l 46.475,-2.128 23.77,38.315 c 0,0 68.117,35.123 135.168,-17.029 67.053,-52.151 64.924,-80.888 64.924,-80.888 0,0 -78.76,1.064 -125.59,-8.515 -46.83,-9.579 -83.016,17.029 -83.016,17.029 0,0 -79.115,39.38 -124.526,30.865 -45.41,-8.514 -150.068,-46.829 -150.068,-46.829 l -51.088,-4.258 39.38,83.017 120.268,27.672 12.772,-37.251 27.672,-2.128 c 14.217,0.338 17.909,13.771 19.41,27.912 2.083,19.628 5.289,45.243 8.617,54.395 5.676,15.61 25.544,45.411 25.544,45.411 0,0 -12.772,18.448 -43.992,9.933 -31.22,-8.514 -49.668,-15.61 -49.668,-15.61 0,0 34.058,31.22 62.44,31.22 28.382,0 45.411,-9.933 45.411,-9.933 l 24.124,35.477 -38.315,9.934 55.344,4.257 L -26.963,0 Z" />
                </g>
              </g>
            </g>
          </g>
          <g
             transform="translate(808.5241,1768.5764)"
             id="g1333">
            <path
               inkscape:connector-curvature="0"
               id="path1335"
               style="fill:#cccbcb;fill-opacity:1;fill-rule:nonzero;stroke:none"
               d="M 0,0 28.382,-52.506 183.772,34.768 74.502,90.112 Z" />
          </g>
          <g
             id="g1337">
            <g
               id="g1339" />
            <g
               id="g1351">
              <g
                 style="opacity:0.5"
                 id="g1349"
                 clip-path="url(#clipPath1343)">
                <g
                   id="g1347"
                   transform="translate(808.5241,1768.5764)">
                  <path
                     inkscape:connector-curvature="0"
                     id="path1345"
                     style="fill:#000000;fill-opacity:1;fill-rule:nonzero;stroke:none"
                     d="M 0,0 28.382,-52.506 162.486,22.705 70.245,78.05 Z" />
                </g>
              </g>
            </g>
          </g>
          <g
             transform="translate(760.2751,1672.0781)"
             id="g1353">
            <path
               inkscape:connector-curvature="0"
               id="path1355"
               style="fill:#cccbcb;fill-opacity:1;fill-rule:nonzero;stroke:none"
               d="m 0,0 c 0,0 67.407,81.598 80.179,94.37 12.771,12.772 37.606,37.605 42.572,48.958 4.967,11.353 0,43.283 0,43.283 0,0 -97.917,-51.797 -111.398,-63.86 -13.482,-12.062 -17.739,-19.157 -17.739,-19.157 0,0 -11.353,-78.76 -8.515,-87.274 C -12.063,7.805 0,0 0,0" />
          </g>
          <g
             id="g1357">
            <g
               id="g1359" />
            <g
               id="g1371">
              <g
                 style="opacity:0.5"
                 id="g1369"
                 clip-path="url(#clipPath1363)">
                <g
                   id="g1367"
                   transform="translate(869.545,1818.9541)">
                  <path
                     inkscape:connector-curvature="0"
                     id="path1365"
                     style="fill:#676767;fill-opacity:1;fill-rule:nonzero;stroke:none"
                     d="m 0,0 c 4.967,11.353 3.548,34.058 3.548,34.058 0,0 -87.984,-46.12 -101.465,-58.183 -13.481,-12.062 -17.739,-19.157 -17.739,-19.157 0,0 -11.353,-78.76 -8.514,-87.274 C -121.332,-139.071 -4.967,-11.353 0,0" />
                </g>
              </g>
            </g>
          </g>
          <g
             transform="translate(1220.7699,1807.6013)"
             id="g1373">
            <path
               inkscape:connector-curvature="0"
               id="path1375"
               style="fill:#979797;fill-opacity:1;fill-rule:nonzero;stroke:none"
               d="m 0,0 69.535,36.187 82.308,-157.519 -25.544,6.386 z" />
          </g>
          <g
             id="g1377">
            <g
               id="g1379" />
            <g
               id="g1391">
              <g
                 style="opacity:0.5"
                 id="g1389"
                 clip-path="url(#clipPath1383)">
                <g
                   id="g1387"
                   transform="translate(1248.8777,1803.1876)">
                  <path
                     inkscape:connector-curvature="0"
                     id="path1385"
                     style="fill:#000000;fill-opacity:1;fill-rule:nonzero;stroke:none"
                     d="m 0,0 28.336,18.432 c 5.119,3.013 11.716,1.156 14.511,-4.085 l 66.985,-111.229 c 4.259,-7.986 -2.966,-17.238 -11.746,-15.043 -1.79,0.447 -17.633,31.903 -38.92,52.48 C 37.88,-38.868 -1.987,-16.481 -1.987,-16.481 -6.922,-11.676 -5.936,-3.494 0,0" />
                </g>
              </g>
            </g>
          </g>
          <g
             id="g1393">
            <g
               id="g1395" />
            <g
               id="g1407">
              <g
                 style="opacity:0.30000299"
                 id="g1405"
                 clip-path="url(#clipPath1399)">
                <g
                   id="g1403"
                   transform="translate(1282.5002,1821.0828)">
                  <path
                     inkscape:connector-curvature="0"
                     id="path1401"
                     style="fill:#000000;fill-opacity:1;fill-rule:nonzero;stroke:none"
                     d="m 0,0 c 0,0 -14.573,-34.579 14.901,-73.083 29.473,-38.504 22.281,-131.748 22.281,-131.748 0,0 71.731,-20.202 77.794,-17.957 6.063,2.245 -4.287,106.423 -4.287,106.423 0,0 -28.375,82.876 -39.665,95.596 C 59.735,-8.049 0,0 0,0" />
                </g>
              </g>
            </g>
          </g>
          <g
             transform="translate(1284.6289,1834.5641)"
             id="g1409">
            <path
               inkscape:connector-curvature="0"
               id="path1411"
               style="fill:#979797;fill-opacity:1;fill-rule:nonzero;stroke:none"
               d="m 0,0 74.502,-206.478 c 0,0 75.212,-19.157 80.888,-17.029 5.677,2.129 12.063,119.204 12.063,119.204 0,0 -77.341,60.311 -90.822,72.374 C 63.15,-19.867 16.319,10.643 9.224,10.643 2.129,10.643 0,0 0,0" />
          </g>
          <g
             id="g1413">
            <g
               id="g1415" />
            <g
               id="g1427">
              <g
                 style="opacity:0.69999701"
                 id="g1425"
                 clip-path="url(#clipPath1419)">
                <g
                   id="g1423"
                   transform="translate(1367.6455,1644.406)">
                  <path
                     inkscape:connector-curvature="0"
                     id="path1421"
                     style="fill:#f2f2f2;fill-opacity:1;fill-rule:nonzero;stroke:none"
                     d="m 0,0 c 0,0 68.117,-21.996 73.793,-19.867 5.676,2.128 10.643,105.722 10.643,105.722 0,0 -77.34,60.312 -90.822,72.374 -13.481,12.062 -60.311,42.572 -67.406,42.572 C -80.888,200.801 0,0 0,0" />
                </g>
              </g>
            </g>
          </g>
          <g
             id="g1429">
            <g
               id="g1431" />
            <g
               id="g1443">
              <g
                 style="opacity:0.30000299"
                 id="g1441"
                 clip-path="url(#clipPath1435)">
                <g
                   id="g1439"
                   transform="translate(1176.0685,1495.4014)">
                  <path
                     inkscape:connector-curvature="0"
                     id="path1437"
                     style="fill:#f2f2f2;fill-opacity:1;fill-rule:nonzero;stroke:none"
                     d="m 0,0 c 4.257,2.839 73.459,48.197 120.623,44.702 20.126,-1.492 40.015,-7.331 44.346,0 13.836,23.414 -24.479,46.12 -24.479,46.12 0,0 53.571,-18.803 56.409,-47.185 C 199.737,15.255 195.834,4.967 170.291,2.129 144.747,-0.709 103.041,18.472 79.824,14.901 52.151,10.643 0,0 0,0" />
                </g>
              </g>
            </g>
          </g>
          <g
             id="g1445">
            <g
               id="g1447" />
            <g
               id="g1459">
              <g
                 style="opacity:0.30000299"
                 id="g1457"
                 clip-path="url(#clipPath1451)">
                <g
                   id="g1455"
                   transform="translate(768.08,1524.4928)">
                  <path
                     inkscape:connector-curvature="0"
                     id="path1453"
                     style="fill:#f2f2f2;fill-opacity:1;fill-rule:nonzero;stroke:none"
                     d="m 0,0 c 0,0 8.515,5.677 38.315,-2.838 l 29.801,-8.515 -32.478,-24.05 z" />
                </g>
              </g>
            </g>
          </g>
          <g
             id="g1461">
            <g
               id="g1463" />
            <g
               id="g1475">
              <g
                 style="opacity:0.30000299"
                 id="g1473"
                 clip-path="url(#clipPath1467)">
                <g
                   id="g1471"
                   transform="translate(1389.6415,1606.8003)">
                  <path
                     inkscape:connector-curvature="0"
                     id="path1469"
                     style="fill:#f2f2f2;fill-opacity:1;fill-rule:nonzero;stroke:none"
                     d="M 0,0 C 0,0 31.929,-115.656 24.834,-128.428 17.739,-141.2 -16.319,-155.39 -16.319,-155.39 l 7.095,-11.885 c 6.108,-9.691 7.729,-13.621 10.111,-24.48 5.077,3.569 45.502,32.667 47.362,51.265 C 52.506,-97.917 0,0 0,0" />
                </g>
              </g>
            </g>
          </g>
          <g
             id="g1477">
            <g
               id="g1479" />
            <g
               id="g1491">
              <g
                 style="opacity:0.19999701"
                 id="g1489"
                 clip-path="url(#clipPath1483)">
                <g
                   id="g1487"
                   transform="translate(1388.5603,1411.0515)">
                  <path
                     inkscape:connector-curvature="0"
                     id="path1485"
                     style="fill:#000000;fill-opacity:1;fill-rule:nonzero;stroke:none"
                     d="M 0,0 C 2.557,-12.701 3.5,-25.917 4.64,-39.094 L 52.169,42.487 Z" />
                </g>
              </g>
            </g>
          </g>
          <g
             transform="translate(1307.3344,1804.0535)"
             id="g1493">
            <path
               inkscape:connector-curvature="0"
               id="path1495"
               style="fill:#f2f2f2;fill-opacity:1;fill-rule:nonzero;stroke:none"
               d="m 0,0 60.311,-159.647 73.793,-19.868 -63.859,38.316 z" />
          </g>
          <g
             transform="translate(756.0178,1688.3981)"
             id="g1497">
            <path
               inkscape:connector-curvature="0"
               id="path1499"
               style="fill:#f2f2f2;fill-opacity:1;fill-rule:nonzero;stroke:none"
               d="m 0,0 c 0,0 112.818,121.332 116.365,129.847 3.548,8.514 3.548,31.22 3.548,31.22 0,0 14.9,-18.449 2.838,-36.187 C 72.586,51.106 0,0 0,0" />
          </g>
          <g
             id="g1501">
            <g
               id="g1503" />
            <g
               id="g1515">
              <g
                 style="opacity:0.19999701"
                 id="g1513"
                 clip-path="url(#clipPath1507)">
                <g
                   id="g1511"
                   transform="translate(983.0061,1763.983)">
                  <path
                     inkscape:connector-curvature="0"
                     id="path1509"
                     style="fill:#f2f2f2;fill-opacity:1;fill-rule:nonzero;stroke:none"
                     d="m 0,0 c -30.467,-5.866 -56.45,-26.927 -73.946,-52.55 17.406,5.218 34.936,10.023 52.571,14.407 12.252,3.047 24.839,5.911 37.394,4.573 2.073,-8.34 1.426,-17.335 -1.821,-25.292 -0.748,-1.837 -1.669,-3.669 -3.16,-4.978 -1.775,-1.559 -4.154,-2.205 -6.457,-2.729 -38.147,-8.673 -69.356,-2.899 -108.463,-1.921 -21.287,0.532 8.187,39.882 15.964,45.234 49.491,34.058 90.936,56.484 149.005,69.712 9.415,2.145 27.456,3.548 36.901,1.54 2.545,-0.54 5.606,-2.243 5.115,-4.798 -0.419,-2.181 -3.095,-2.948 -5.291,-3.28 C 71.693,35.967 45.575,32.016 19.456,28.065 32.805,25.984 46.319,21.575 59.668,19.494 64.845,18.687 67.219,18.782 68.892,13.818 70.326,9.561 58.301,1.252 53.81,1.325 35.831,1.621 17.657,3.399 0,0" />
                </g>
              </g>
            </g>
          </g>
          <g
             id="g1517">
            <g
               id="g1519" />
            <g
               id="g1531">
              <g
                 style="opacity:0.19999701"
                 id="g1529"
                 clip-path="url(#clipPath1523)">
                <g
                   id="g1527"
                   transform="translate(1203.0313,1783.4767)">
                  <path
                     inkscape:connector-curvature="0"
                     id="path1525"
                     style="fill:#f2f2f2;fill-opacity:1;fill-rule:nonzero;stroke:none"
                     d="m 0,0 c -26.508,3.099 -55.142,-1.333 -81.828,-1.745 -7.092,-0.109 -14.337,-0.372 -20.97,-2.885 -6.634,-2.512 -12.655,-7.695 -14.334,-14.587 42.63,2.898 99.42,-36.234 98.5,-40.023 -0.714,-2.937 -1.702,-6.231 -4.41,-7.573 -1.277,-0.633 -36.729,5.258 -52.619,10.169 -15.889,4.912 -33.217,8.522 -48.939,3.097 -12.579,-4.34 -22.999,-14.536 -27.613,-27.017 5.119,-2.871 11.373,-2.471 17.22,-1.946 59.603,5.349 103.49,16.187 162.31,5.17 4.144,22.058 12.224,46.76 5.322,68.116 -2.757,8.53 -4.361,14.171 -11.218,19.946 -3.965,3.339 -8.885,5.305 -13.773,7.031 -12.848,4.536 -26.146,7.797 -39.636,9.718 -7.913,1.127 -16.031,1.786 -23.854,0.145 C -63.665,25.975 -71.239,21.762 -75.427,14.953 -49.487,16.55 1.228,4.22 0,0" />
                </g>
              </g>
            </g>
          </g>
          <g
             transform="translate(1110.8491,1491.3245)"
             id="g1533">
            <path
               inkscape:connector-curvature="0"
               id="path1535"
               style="fill:#4d4e4e;fill-opacity:1;fill-rule:nonzero;stroke:none"
               d="m 0,0 35.418,-12.952 c 0,0 28.745,30.371 79.47,47.54 46.12,15.61 73.083,16.319 73.083,16.319 l -47.164,3.496 c 0,0 -12.941,76.345 -35.037,84.623 C 83.674,147.304 4.172,132.084 -11.015,110.443 -26.203,88.802 0,0 0,0" />
          </g>
          <g
             transform="translate(1116.6935,1503.6563)"
             id="g1537">
            <path
               inkscape:connector-curvature="0"
               id="path1539"
               style="fill:#fdf3d8;fill-opacity:1;fill-rule:nonzero;stroke:none"
               d="m 0,0 21.996,-0.348 c 0,0 37.317,18.811 64.518,26.265 27.201,7.454 40.092,9.775 40.092,9.775 0,0 -16.827,79.286 -31.236,82.083 C 79.212,120.911 17.747,112.58 -2.885,97.315 -23.517,82.05 0,0 0,0" />
          </g>
        </g>
      </g>
      <g
         id="g1541">
        <g
           clip-path="url(#clipPath1547)"
           id="g1543">
          <g
             transform="translate(1237.149,1579.7859)"
             id="g1549">
            <path
               inkscape:connector-curvature="0"
               id="path1551"
               style="fill:#0d72b9;fill-opacity:1;fill-rule:nonzero;stroke:none"
               d="m 0,0 c 6.831,-31.427 -12.344,-62.154 -42.827,-68.631 -30.483,-6.478 -60.732,13.747 -67.563,45.174 -6.83,31.426 12.344,62.153 42.827,68.631 C -37.079,51.651 -6.831,31.426 0,0" />
          </g>
          <g
             transform="translate(1252.8297,1559.9042)"
             id="g1553">
            <path
               inkscape:connector-curvature="0"
               id="path1555"
               style="fill:#ffffff;fill-opacity:1;fill-rule:nonzero;stroke:none"
               d="m 0,0 c -0.023,-13.77 -10.858,-24.866 -24.201,-24.782 -13.344,0.083 -24.141,11.314 -24.118,25.085 0.023,13.77 10.858,24.865 24.201,24.782 C -10.775,25.001 0.023,13.77 0,0" />
          </g>
          <g
             transform="translate(1215.2054,1553.8485)"
             id="g1557">
            <path
               inkscape:connector-curvature="0"
               id="path1559"
               style="fill:#ffffff;fill-opacity:1;fill-rule:nonzero;stroke:none"
               d="m 0,0 c -0.016,-9.786 -7.717,-17.671 -17.199,-17.612 -9.482,0.06 -17.156,8.042 -17.14,17.829 0.016,9.786 7.717,17.671 17.199,17.611 C -7.657,17.768 0.016,9.786 0,0" />
          </g>
        </g>
      </g>
      <g
         id="g1561">
        <g
           clip-path="url(#clipPath1567)"
           id="g1563">
          <g
             transform="translate(918.6872,1508.0082)"
             id="g1569">
            <path
               inkscape:connector-curvature="0"
               id="path1571"
               style="fill:#4d4e4e;fill-opacity:1;fill-rule:nonzero;stroke:none"
               d="m 0,0 -42.756,-14.735 c 0,0 -11.353,20.577 -55.345,31.22 -38.147,9.229 -42.573,7.805 -42.573,7.805 l 29.755,6.89 c 0,0 5.974,62.933 21.596,71.926 15.805,9.1 76.786,3.885 90.372,-12.45 C 14.937,73.96 0,0 0,0" />
          </g>
          <g
             transform="translate(913.9111,1514.8138)"
             id="g1573">
            <path
               inkscape:connector-curvature="0"
               id="path1575"
               style="fill:#fdf3d8;fill-opacity:1;fill-rule:nonzero;stroke:none"
               d="m 0,0 -17.69,-2.088 c 0,0 -30.522,13.137 -51.739,17.16 -20.727,3.931 -30.328,4.762 -30.328,4.762 0,0 8.599,66.037 18.981,69.829 11.753,4.292 58.88,4.384 76.095,-5.988 C 12.931,73.065 0,0 0,0" />
          </g>
        </g>
      </g>
      <g
         id="g1577">
        <g
           clip-path="url(#clipPath1583)"
           id="g1579">
          <g
             transform="translate(935.3052,1554.5963)"
             id="g1585">
            <path
               inkscape:connector-curvature="0"
               id="path1587"
               style="fill:#0d72b9;fill-opacity:1;fill-rule:nonzero;stroke:none"
               d="m 0,0 c -3.166,-27.775 -26.081,-48.252 -51.182,-45.737 -25.101,2.516 -42.884,27.071 -39.718,54.847 3.165,27.775 26.081,48.252 51.182,45.737 C -14.617,52.331 3.166,27.776 0,0" />
          </g>
        </g>
      </g>
      <g
         id="g1589">
        <g
           clip-path="url(#clipPath1595)"
           id="g1591">
          <g
             transform="translate(1081.6989,1682.0121)"
             id="g1597">
            <path
               inkscape:connector-curvature="0"
               id="path1599"
               style="fill:#cccbcb;fill-opacity:1;fill-rule:nonzero;stroke:none"
               d="m 0,0 c 0,0 -12.772,-63.859 -7.805,-70.245 4.967,-6.386 14.191,-14.901 14.191,-14.901 0,0 75.921,8.515 111.399,1.42 35.477,-7.096 70.954,-25.544 70.954,-25.544 0,0 33.349,4.967 34.768,19.158 1.419,14.19 2.838,37.606 2.838,37.606 0,0 -18.932,38.51 -71.664,56.763 C 80.888,29.801 0,0 0,0" />
          </g>
          <g
             id="g1601">
            <g
               id="g1603" />
            <g
               id="g1615">
              <g
                 style="opacity:0.30000299"
                 id="g1613"
                 clip-path="url(#clipPath1607)">
                <g
                   id="g1611"
                   transform="translate(1091.9874,1684.8501)">
                  <path
                     inkscape:connector-curvature="0"
                     id="path1609"
                     style="fill:#000000;fill-opacity:1;fill-rule:nonzero;stroke:none"
                     d="M 0,0 C 0,0 -7.45,-7.45 -8.515,-35.123 -9.579,-62.795 0,-67.052 0,-67.052 c 0,0 79.824,10.643 110.689,2.129 30.865,-8.515 70.791,-35.123 80.888,-35.123 8.515,0 21.996,-4.967 21.641,7.096 -0.354,12.062 -4.612,-24.125 -22.705,-29.446 -18.094,-5.322 -39.38,27.672 -104.303,28.736 -64.924,1.064 -93.66,-11.707 -93.66,-11.707 l -30.866,31.929 c 0,0 14.546,63.505 21.287,67.052 C -10.289,-2.838 0,0 0,0" />
                </g>
              </g>
            </g>
          </g>
          <g
             transform="translate(1091.9874,1684.8501)"
             id="g1617">
            <path
               inkscape:connector-curvature="0"
               id="path1619"
               style="fill:#ffffff;fill-opacity:1;fill-rule:nonzero;stroke:none"
               d="M 0,0 C 0,0 -10.111,-25.011 -5.854,-44.701 -2.45,-60.444 0,-67.052 0,-67.052 c 0,0 2.129,48.427 15.965,55.345 13.836,6.918 72.905,14.368 105.899,3.724 32.994,-10.642 91.532,-56.94 91.532,-56.94 l 2.66,9.579 c 0,0 -35.122,51.087 -97.385,62.262 C 56.409,18.093 0,0 0,0" />
          </g>
          <g
             transform="translate(763.1132,1636.9559)"
             id="g1621">
            <path
               inkscape:connector-curvature="0"
               id="path1623"
               style="fill:#cccbcb;fill-opacity:1;fill-rule:nonzero;stroke:none"
               d="m 0,0 c 0,0 9.933,-35.832 13.481,-45.056 3.548,-9.224 11.353,-17.739 11.353,-17.739 0,0 39.025,18.448 62.44,19.867 23.415,1.42 91.531,1.42 91.531,1.42 0,0 5.677,11.352 7.805,16.319 2.129,4.967 -11.352,63.15 -11.352,63.15 0,0 -45.411,13.481 -90.113,0.709 C 40.444,25.898 0,0 0,0" />
          </g>
          <g
             id="g1625">
            <g
               id="g1627" />
            <g
               id="g1639">
              <g
                 style="opacity:0.30000299"
                 id="g1637"
                 clip-path="url(#clipPath1631)">
                <g
                   id="g1635"
                   transform="translate(763.1132,1636.9559)">
                  <path
                     inkscape:connector-curvature="0"
                     id="path1633"
                     style="fill:#000000;fill-opacity:1;fill-rule:nonzero;stroke:none"
                     d="m 0,0 13.481,-45.056 c 0,0 9.224,-21.996 10.644,-23.415 1.419,-1.419 7.805,-4.257 10.643,-2.129 2.838,2.129 27.672,19.867 50.377,18.448 22.706,-1.419 92.241,-1.419 92.241,-1.419 0,0 19.158,10.643 20.577,16.32 1.419,5.676 3.548,13.481 3.548,13.481 l -22.706,61.021 -6.386,0.71 c 0,0 4.258,-40.444 1.42,-52.507 -2.839,-12.062 -8.515,-14.9 -8.515,-14.9 0,0 -65.278,4.257 -87.984,-0.71 -11.662,-2.551 -24.635,-7.348 -34.495,-11.412 -9.183,-3.784 -19.733,-0.094 -24.551,8.591 z" />
                </g>
              </g>
            </g>
          </g>
          <g
             id="g1641">
            <g
               id="g1643" />
            <g
               id="g1655">
              <g
                 style="opacity:0.80000299"
                 id="g1653"
                 clip-path="url(#clipPath1647)">
                <g
                   id="g1651"
                   transform="translate(932.7549,1610.7458)">
                  <path
                     inkscape:connector-curvature="0"
                     id="path1649"
                     style="fill:#ffffff;fill-opacity:1;fill-rule:nonzero;stroke:none"
                     d="m 0,0 c 0.7,12.927 -6.904,48.941 -9.284,51.399 -3.676,3.795 -51.016,2.331 -73.793,-1.065 -22.778,-3.395 -55.767,-16.1 -76.277,-26.607 -1.183,-0.607 -1.547,0.482 -2.875,0.417 -1.328,-0.065 -2.806,0.817 -2.885,2.145 41.211,25.427 81.156,41.153 129.576,41.784 5.534,0.072 35.851,-3.726 36.542,-5.321 C 8.997,44.294 6.732,18.954 0,0" />
                </g>
              </g>
            </g>
          </g>
          <g
             transform="translate(821.6508,1462.4077)"
             id="g1657">
            <path
               inkscape:connector-curvature="0"
               id="path1659"
               style="fill:#cccbcb;fill-opacity:1;fill-rule:nonzero;stroke:none"
               d="m 0,0 c 0,0 -63.859,41.508 -87.274,-20.222 -9.376,-24.719 -4.258,-52.152 -4.258,-52.152 l 26.608,-40.444 c 0,0 23.415,-71.309 27.673,-91.531 4.257,-20.222 12.772,-98.982 12.772,-98.982 0,0 123.46,-31.929 278.851,-31.929 155.39,0 193.706,10.643 193.706,10.643 0,0 29.8,69.181 60.666,106.432 30.865,37.251 52.151,60.666 52.151,60.666 0,0 41.509,125.59 -38.315,164.969 -79.824,39.38 -153.262,-36.187 -153.262,-36.187 z" />
          </g>
          <g
             transform="translate(757.4366,1390.3888)"
             id="g1661">
            <path
               inkscape:connector-curvature="0"
               id="path1663"
               style="fill:#402312;fill-opacity:1;fill-rule:nonzero;stroke:none"
               d="m 0,0 8.515,5.677 c 0,0 97.917,-137.298 116.365,-146.522 18.448,-9.224 154.681,-15.61 178.805,-14.9 24.125,0.71 115.656,-7.096 151.134,6.386 35.477,13.481 73.083,20.222 89.402,67.761 16.32,47.54 12.772,68.827 12.772,68.827 0,0 8.515,-1.42 15.61,-6.386 7.096,-4.967 14.191,-11.353 14.191,-11.353 0,0 -12.062,29.091 -41.154,34.767 -29.091,5.677 -40.444,-1.419 -40.444,-1.419 0,0 24.125,-2.129 31.93,-4.967 7.805,-2.838 4.967,-6.386 4.967,-6.386 0,0 7.805,-50.377 -16.32,-83.726 -7.323,-10.123 -45.919,-35.901 -82.307,-33.703 -83.483,5.043 -200.864,56.586 -227.055,63.504 -37.606,9.934 -194.415,74.502 -194.415,74.502 l 6.386,5.677 c 0,0 -4.967,6.386 -14.901,-0.71 C 3.548,9.934 0,0 0,0" />
          </g>
          <g
             transform="translate(957.6297,1262.4153)"
             id="g1665">
            <path
               inkscape:connector-curvature="0"
               id="path1667"
               style="fill:#fdf3d8;fill-opacity:1;fill-rule:nonzero;stroke:none"
               d="m 0,0 c 1.206,-2.246 2.053,-4.685 2.498,-7.196 0.957,-0.18 1.977,-0.001 2.815,0.495 -0.24,2.903 -0.458,5.946 0.708,8.614 1.167,2.669 4.211,4.76 6.971,3.829 5.144,-1.736 3.662,-10.567 8.34,-13.324 -0.413,2.438 -0.824,4.955 -0.251,7.361 0.572,2.405 2.392,4.692 4.843,5.018 2.175,0.288 4.311,-1.034 5.609,-2.802 1.299,-1.768 1.924,-3.928 2.524,-6.039 0.57,2.334 1.167,4.729 2.549,6.695 1.381,1.966 3.747,3.432 6.118,3.046 2.332,-0.38 4.097,-2.456 4.814,-4.708 0.718,-2.251 0.588,-4.672 0.449,-7.031 -0.063,-1.08 -0.158,-2.244 -0.86,-3.067 -1.198,-1.404 -3.482,-1.073 -5.109,-0.202 -1.628,0.87 -3.105,2.173 -4.933,2.426 -2.411,0.334 -4.612,-1.232 -6.72,-2.449 -2.107,-1.217 -4.937,-2.086 -6.83,-0.557 -0.951,0.769 -1.793,2.143 -2.977,1.84 -0.521,-0.134 -0.892,-0.576 -1.257,-0.97 -4.308,-4.635 -12.801,-4.256 -16.678,0.745 -4.723,-2.586 -10.395,-5.217 -15.245,-2.878 -1.325,4.103 -1.058,8.699 0.733,12.621 0.59,1.291 1.388,2.56 2.616,3.269 C -5.909,6.678 -1.837,3.422 0,0" />
          </g>
          <g
             transform="translate(1284.6289,1279.6997)"
             id="g1669">
            <path
               inkscape:connector-curvature="0"
               id="path1671"
               style="fill:#da6865;fill-opacity:1;fill-rule:nonzero;stroke:none"
               d="m 0,0 c -36.187,-48.958 -202.938,-32.769 -218.037,-30.184 -11.213,1.92 -13.265,9.048 -24.627,9.607 -10.681,0.526 -44.673,1.394 -55.345,0.71 -22.147,-1.419 -62.709,-0.787 -81.243,-4.612 -10.722,-2.213 2.524,-7.339 -10.288,-8.16 2.025,-5.999 9.327,-10.187 15.636,-10.715 6.31,-0.528 12.547,1.269 18.713,2.707 43.756,10.203 89.554,2.697 133.488,-6.708 C -206.678,-50.571 -51.087,-100.755 0,0" />
          </g>
          <g
             transform="translate(1246.3135,1412.3849)"
             id="g1673">
            <path
               inkscape:connector-curvature="0"
               id="path1675"
               style="fill:#f2f2f2;fill-opacity:1;fill-rule:nonzero;stroke:none"
               d="m 0,0 c 0,0 30.812,30.17 70.954,11.353 45.411,-21.287 59.602,-97.917 59.602,-97.917 0,0 25.544,116.365 -43.992,143.328 C 17.029,83.726 0,0 0,0" />
          </g>
          <g
             transform="translate(743.6006,1415.2229)"
             id="g1677">
            <path
               inkscape:connector-curvature="0"
               id="path1679"
               style="fill:#f2f2f2;fill-opacity:1;fill-rule:nonzero;stroke:none"
               d="M 0,0 C 0,0 1.419,15.61 18.448,24.125 35.477,32.639 28.382,52.506 9.934,38.316 -8.514,24.125 0,0 0,0" />
          </g>
          <g
             transform="translate(748.2126,1300.6316)"
             id="g1681">
            <path
               inkscape:connector-curvature="0"
               id="path1683"
               style="fill:#e5e5e4;fill-opacity:1;fill-rule:nonzero;stroke:none"
               d="m 0,0 c 0,0 5.322,75.566 50.023,134.104 44.701,58.537 77.695,119.203 111.754,134.104 34.058,14.9 125.589,32.994 196.898,-23.415 71.31,-56.409 150.069,-133.04 154.326,-208.606 4.257,-75.567 -43.637,-149.005 -139.425,-119.204 -95.789,29.801 -147.94,91.531 -147.94,91.531 0,0 -76.631,-96.852 -150.069,-77.695 C 2.129,-50.023 0,0 0,0" />
          </g>
          <g
             transform="translate(957.2689,1444.0887)"
             id="g1685">
            <path
               inkscape:connector-curvature="0"
               id="path1687"
               style="fill:#676767;fill-opacity:1;fill-rule:nonzero;stroke:none"
               d="m 0,0 c 0,0 -0.202,-40.49 2.211,-75.341 1.747,-25.241 6.307,-47.276 6.386,-50.023 0.354,-12.328 -22.617,-41.242 -26.874,-45.5 -4.258,-4.257 35.211,25.633 35.211,25.633 l 46.12,-30.865 -32.639,35.122 c -5.798,7.843 -8.411,20.301 -8.714,30.049 l -4.59,41.97 0.887,76.985 z" />
          </g>
          <g
             transform="translate(915.5089,1528.1608)"
             id="g1689">
            <path
               inkscape:connector-curvature="0"
               id="path1691"
               style="fill:#333333;fill-opacity:1;fill-rule:nonzero;stroke:none"
               d="m 0,0 -11.317,-16.976 c -3.521,-5.282 -3.167,-12.237 0.884,-17.124 8.407,-10.14 22.571,-26.96 30.457,-34.846 6.572,-6.571 15.322,-11.802 21.736,-15.126 5.048,-2.617 11.147,-2.004 15.581,1.556 8.004,6.428 54.841,49.008 59.995,52.785 5.851,4.288 7.599,12.252 4.068,18.587 l -7.677,13.775 c -2.638,4.731 -7.713,7.577 -13.126,7.358 L 11.371,6.384 C 6.777,6.198 2.55,3.825 0,0" />
          </g>
          <g
             id="g1693">
            <g
               id="g1695" />
            <g
               id="g1707">
              <g
                 style="opacity:0.80000299"
                 id="g1705"
                 clip-path="url(#clipPath1699)">
                <g
                   id="g1703"
                   transform="translate(810.6527,1351.3639)">
                  <path
                     inkscape:connector-curvature="0"
                     id="path1701"
                     style="fill:#ffffff;fill-opacity:1;fill-rule:nonzero;stroke:none"
                     d="m 0,0 c 0,0 19.867,35.477 42.573,61.021 22.705,25.543 52.506,49.668 52.506,49.668 l 38.316,-24.125 c 0,0 14.19,-99.336 -5.677,-126.299 C 107.851,-66.697 56.306,-102.324 28.382,-103.594 -34.058,-106.432 0,0 0,0" />
                </g>
              </g>
            </g>
          </g>
          <g
             id="g1709">
            <g
               id="g1711" />
            <g
               id="g1723">
              <g
                 style="opacity:0.80000299"
                 id="g1721"
                 clip-path="url(#clipPath1715)">
                <g
                   id="g1719"
                   transform="translate(995.1343,1436.5095)">
                  <path
                     inkscape:connector-curvature="0"
                     id="path1717"
                     style="fill:#ffffff;fill-opacity:1;fill-rule:nonzero;stroke:none"
                     d="m 0,0 34.058,31.22 c 0,0 131.976,-61.021 144.747,-106.432 12.772,-45.411 -2.838,-122.042 -26.962,-123.461 -24.125,-1.419 -116.366,15.61 -140.49,86.565 C -12.772,-41.154 0,0 0,0" />
                </g>
              </g>
            </g>
          </g>
          <g
             id="g1725">
            <g
               id="g1727" />
            <g
               id="g1739">
              <g
                 style="opacity:0.19999701"
                 id="g1737"
                 clip-path="url(#clipPath1731)">
                <g
                   id="g1735"
                   transform="translate(952.0884,1304.0017)">
                  <path
                     inkscape:connector-curvature="0"
                     id="path1733"
                     style="fill:#000000;fill-opacity:1;fill-rule:nonzero;stroke:none"
                     d="m 0,0 c -4.723,-8.418 -12.334,-14.779 -19.907,-20.764 -16.306,-12.884 -33.471,-25.091 -52.808,-32.702 -19.339,-7.611 -43.128,-14.604 -60.997,-3.995 -89.321,53.026 -3.196,195.571 9.66,208.417 15.11,15.098 41.403,30.945 62.719,29.57 15.074,-0.973 26.355,-13.866 37.327,-24.249 8.337,-7.889 15.422,-10.86 20.222,-21.286 C 1.788,122.889 1.84,56.098 1.538,37.074 1.34,24.628 6.09,10.856 0,0 M 306.771,43.438 C 306.454,23.539 305.934,2.804 296.71,-14.833 286.146,-35.031 265.486,-48.217 244.008,-55.852 190.932,-74.72 128.109,-62.866 85.558,-25.954 43.006,10.959 22.399,71.478 33.584,126.687 c 2.017,9.958 5,19.759 9.449,28.893 9.284,19.057 24.513,34.451 39.472,49.47 -36.283,-16.558 -77.73,-21.573 -116.914,-14.147 -6.337,1.201 -13.775,3.835 -15.107,10.145 -2.308,10.937 16.054,17.608 14.582,28.688 -7.159,-2.871 -16.082,-0.446 -20.805,5.651 -4.722,6.097 -4.766,11.531 -0.196,17.743 3.52,4.787 -30.476,-26.777 -34.058,-32.994 -29.652,-51.457 -88.561,-103.608 -109.18,-218.986 -0.145,0.269 -0.302,0.531 -0.445,0.801 0.016,-0.86 0.066,-1.712 0.116,-2.564 -0.036,-0.213 -0.08,-0.415 -0.116,-0.628 0.049,-0.086 0.112,-0.197 0.165,-0.291 2.55,-34.367 32.74,-61.016 66.361,-70.301 34.749,-9.599 73.248,1.35 101.398,23.873 14.403,11.523 28.334,26.706 46.761,27.546 12.218,0.557 23.65,-5.519 34.293,-11.546 31.797,-18.006 63.228,-37.292 97.791,-49.152 34.563,-11.86 73.262,-15.772 107.357,-2.625 6.653,2.565 13.128,5.792 18.618,10.343 7.478,6.199 12.82,14.589 17.249,23.234 14.662,28.618 20.457,61.701 16.396,93.598" />
                </g>
              </g>
            </g>
          </g>
          <g
             id="g1741">
            <g
               id="g1743" />
            <g
               id="g1755">
              <g
                 style="opacity:0.80000299"
                 id="g1753"
                 clip-path="url(#clipPath1747)">
                <g
                   id="g1751"
                   transform="translate(909.683,1543.6086)">
                  <path
                     inkscape:connector-curvature="0"
                     id="path1749"
                     style="fill:#ffffff;fill-opacity:1;fill-rule:nonzero;stroke:none"
                     d="M 0,0 C 33.445,19.266 73.568,21.971 112.1,24.22 77.435,29.805 41.853,29.658 7.235,23.787 65.834,44.968 133.945,37.906 186.951,5.152 135.061,18.436 80.125,19.668 27.691,8.725 74.463,10.18 122.649,11.413 166.43,-5.109 113.69,4.549 59.203,4.578 6.452,-5.025 15.217,-1.017 24.734,1.334 34.356,1.872 22.904,1.248 11.452,0.624 0,0" />
                </g>
              </g>
            </g>
          </g>
          <g
             transform="translate(925.7727,1530.7642)"
             id="g1757">
            <path
               inkscape:connector-curvature="0"
               id="path1759"
               style="fill:#ffffff;fill-opacity:1;fill-rule:nonzero;stroke:none"
               d="m 0,0 c -5.945,-5.958 -11.161,-12.642 -15.495,-19.857 3.969,-9.12 34.766,-9.81 48.67,-8.41 25.018,2.518 45.428,4.771 68.116,15.61 C 85.917,-14.409 24.5,-17.426 11.12,-13.915 7.816,-13.048 4.473,-11.805 2.074,-9.372 -0.324,-6.94 -1.527,-3.056 0,0" />
          </g>
          <g
             transform="translate(878.0596,1236.7722)"
             id="g1761">
            <path
               inkscape:connector-curvature="0"
               id="path1763"
               style="fill:#e5e5e4;fill-opacity:1;fill-rule:nonzero;stroke:none"
               d="m 0,0 c 0,0 -46.83,-15.965 -50.023,-34.058 -3.193,-18.094 -11.708,-74.502 2.128,-86.21 13.837,-11.707 95.789,-38.315 166.034,-39.379 70.245,-1.065 177.741,28.736 187.32,35.122 9.579,6.386 11.707,67.052 8.515,81.953 -3.193,14.9 -154.326,55.344 -209.671,55.344 C 48.958,12.772 0,0 0,0" />
          </g>
          <g
             id="g1765">
            <g
               id="g1767" />
            <g
               id="g1779">
              <g
                 style="opacity:0.80000299"
                 id="g1777"
                 clip-path="url(#clipPath1771)">
                <g
                   id="g1775"
                   transform="translate(882.6717,1229.3221)">
                  <path
                     inkscape:connector-curvature="0"
                     id="path1773"
                     style="fill:#ffffff;fill-opacity:1;fill-rule:nonzero;stroke:none"
                     d="m 0,0 c 0,0 -41.154,-18.448 -32.639,-28.382 8.514,-9.934 26.986,-22.198 123.461,-26.962 114.946,-5.677 163.195,28.381 163.195,28.381 0,0 -74.857,30.866 -137.297,36.542 C 54.28,15.255 0,0 0,0" />
                </g>
              </g>
            </g>
          </g>
          <g
             id="g1781">
            <g
               id="g1783" />
            <g
               id="g1795">
              <g
                 style="opacity:0.19999701"
                 id="g1793"
                 clip-path="url(#clipPath1787)">
                <g
                   id="g1791"
                   transform="translate(865.6853,1231.4648)">
                  <path
                     inkscape:connector-curvature="0"
                     id="path1789"
                     style="fill:#000000;fill-opacity:1;fill-rule:nonzero;stroke:none"
                     d="m 0,0 c -12.688,-1.554 -23.093,-11.594 -28.442,-23.204 -5.35,-11.61 -6.476,-24.669 -7.112,-37.436 -0.145,-2.911 -0.252,-5.929 0.846,-8.629 0.976,-2.399 2.819,-4.329 4.685,-6.125 23.634,-22.756 56.544,-33.185 88.901,-38.612 63.331,-10.623 127.902,-7.498 189.775,9.689 76.631,21.286 73.621,45.574 76.342,67.666 3.482,-24.029 3.482,-48.508 -3.969,-82.566 -29.76,-22.434 -74.789,-25.046 -111.753,-29.802 -77.976,-10.03 -151.329,-8.812 -223.507,22.351 -10.627,4.588 -28.725,15.463 -28.725,15.463 l -0.803,32.22 c 0,0 -10.113,4.438 -15.17,6.657 -1.674,0.735 -3.449,1.554 -4.413,3.108 -1.379,2.222 -0.631,5.104 0.252,7.567 C -52.82,-33.006 -28.877,-9.609 0,0" />
                </g>
              </g>
            </g>
          </g>
        </g>
      </g>
    </g>
  </g>
</svg>
