<?xml version="1.0" encoding="utf-8"?>
<!-- Generator: Adobe Illustrator 20.0.0, SVG Export Plug-In . SVG Version: 6.00 Build 0)  -->
<!DOCTYPE svg PUBLIC "-//W3C//DTD SVG 1.1//EN" "http://www.w3.org/Graphics/SVG/1.1/DTD/svg11.dtd">
<svg version="1.1" id="Layer_1" xmlns="http://www.w3.org/2000/svg" xmlns:xlink="http://www.w3.org/1999/xlink" x="0px" y="0px"
	 viewBox="0 0 1345.88 1664.384" enable-background="new 0 0 1345.88 1664.384" xml:space="preserve">
<g>
	<path fill="#804F0C" stroke="#804F0C" stroke-width="0.5" d="M639.384,47.686c12.676-6.357,25.876-11.81,39.58-15.484
		c-8.708,24.858-11.087,51.686-7.728,77.771c8.632-8.175,16.949-16.74,26.399-24.03c18.082-14.332,38.591-26.438,61.316-31.491
		c-6.291,13.99-9.069,29.435-8.156,44.748c0.171,8.061,1.951,15.95,3.083,23.887c-0.067,0.409-0.2,1.218-0.266,1.618
		c-23.107,2.436-46.27,4.321-69.368,6.795c-41.503,3.921-82.958,8.365-124.451,12.277c0.314-1.78,0.647-3.559,1.114-5.31
		c5.815-12.638,11.011-25.667,18.738-37.334C593.998,78.101,615.287,59.905,639.384,47.686z"/>
	<path fill="#434345" stroke="#434345" stroke-width="0.5" d="M252.508,110.592c-2.579-18.187-1.742-37.591,6.072-54.455
		c20.195,25.448,43.178,48.659,68.083,69.501c26.818,22.136,56.377,41.569,89.124,53.703c13.647,5.12,27.884,8.603,42.331,10.545
		c-30.416,21.793-57.862,47.717-81.016,77.124c-5.11-0.933-10.24-1.703-15.331-2.693c-27.998-17.673-52.123-41.17-71.547-67.931
		C271.932,170.861,257.295,141.892,252.508,110.592z"/>
	<path fill="#434345" stroke="#434345" stroke-width="0.5" d="M992.265,140.75c33.156-24.135,62.639-53.084,88.753-84.642
		c8.698,20.375,8.755,43.492,3.892,64.838c-7.061,31.015-23.002,59.356-42.435,84.271c-16.407,20.747-35.65,39.418-57.605,54.236
		c-20.794-24.905-44.576-47.336-70.786-66.475c-3.559-2.484-7.071-5.025-10.535-7.623
		C935.698,176.457,965.409,160.307,992.265,140.75z"/>
	<path fill="#BCA057" stroke="#BCA057" stroke-width="0.5" d="M753.88,123.087c1.056,1.323,2.57,2.065,4.263,2.255
		c51.943,9.679,101.544,30.654,145.407,60.013c3.464,2.598,6.976,5.139,10.535,7.623c26.209,19.138,49.992,41.569,70.786,66.475
		c1.266,1.456,2.512,2.95,3.693,4.501c10.811,13.609,20.956,27.77,29.749,42.768c1.009,1.57,2.474,2.769,3.816,4.073
		c7.604,15.55,15.617,30.939,22.203,46.965c9.422,20.918,16.112,42.959,21.184,65.295c2.122,10.954,4.816,21.87,5.415,33.052
		c0.828,5.938,1.171,11.982,2.903,17.758c-1.028,7.08,0.438,14.142,0.533,21.222c0.257,9.498-0.323,19.062,1.456,28.446
		c0.79,10.754,2.998,21.346,4.901,31.948c13.181,67.15,30.939,133.339,42.892,200.737c3.664,21.584,7.185,43.358,6.89,65.323
		c-0.038,38.391-8.736,76.619-24.411,111.613c-14.294,32.119-34.375,61.516-58.109,87.402c-2.503,2.636-4.787,5.548-7.832,7.594
		c7.642-16.264,13.428-33.556,15.36-51.486c2.255-19.9,0.523-40.237-5.244-59.423c-9.412-32.043-29.236-60.117-53.094-83.1
		c-10.307-10.668-21.118-20.889-32.928-29.883c-32.233-25.086-69.33-43.292-107.711-56.901
		c-37.496-13.067-76.61-21.27-116.047-25.648c-26.304-2.788-52.77-3.607-79.208-3.236c6.329-0.685,12.705,0.038,19.034-0.619
		c0.238-25.705,0.219-51.419,0.352-77.133c1.018-47.584,0.6-95.187,1.056-142.78c0.837-27.256,0.362-54.541,0.666-81.806
		c0.143-20.309,0.2-40.618,0.286-60.917c0.818-35.526,0.476-71.062,0.771-106.588c0.19-17.14-0.143-34.279,0.466-51.41
		c0.295-21.908,0.067-43.815,0.333-65.723c23.097-2.474,46.261-4.359,69.368-6.795C753.68,124.305,753.813,123.496,753.88,123.087
		 M879.758,472.742c-14.732,2.217-28.703,9.136-39.333,19.566c-15.046,14.313-23.183,35.469-21.736,56.168
		c1.332,28.398,21.451,54.721,48.44,63.591c18.815,6.471,40.313,4.787,57.767-4.844c11.963-6.5,22.079-16.464,28.617-28.427
		c9.25-16.378,11.468-36.516,6.224-54.569c-4.102-14.551-12.933-27.713-24.896-36.973
		C919.51,475.122,899.077,469.754,879.758,472.742z"/>
	<path fill="#A68131" stroke="#A68131" stroke-width="0.5" d="M559.795,143.777c41.493-3.911,82.948-8.356,124.451-12.277
		c-0.267,21.908-0.038,43.815-0.333,65.723c-0.609,17.13-0.276,34.27-0.466,51.41c-0.295,35.526,0.048,71.062-0.771,106.588
		c-0.086,20.299-0.143,40.608-0.286,60.917c-0.305,27.265,0.171,54.55-0.666,81.806c-0.457,47.593-0.038,95.196-1.056,142.78
		c-0.133,25.714-0.114,51.429-0.352,77.133c-6.329,0.657-12.705-0.067-19.034,0.619c-39.333,1.408-78.637,6.1-116.885,15.522
		c-37.382,9.079-73.85,22.364-107.72,40.694c-28.979,15.684-56.063,35.326-78.418,59.632
		c-21.232,23.031-37.905,50.905-44.919,81.625c-5.187,22.165-5.006,45.509,0.485,67.607c7.376,31.072,24.829,58.871,46.394,82.082
		c-2.227-0.152-4.14-1.304-5.748-2.76c-7.356-6.291-15.065-12.181-22.098-18.853c-8.927-8.146-17.635-16.511-25.714-25.505
		c-24.972-27.484-45.795-58.918-60.098-93.245c-13.914-33.375-21.67-69.434-21.727-105.627c-0.209-19.424,3.217-38.657,6.881-57.662
		c1.142-4.739,1.418-9.736,3.407-14.237c8.641,2.817,17.834,3.255,26.761,1.665c12.914-2.018,25.172-7.309,36.059-14.456
		c23.811-15.37,42.245-37.81,66.77-52.18c15.922-9.403,34.841-14.332,53.313-11.706c12.572,2.179,23.839,8.755,36.354,11.163
		c7.699,1.656,15.607,0.809,23.411,0.98c14.78,0.266,29.74-0.447,44.12-4.102c15.712-4.092,30.121-14.323,37.648-28.893
		c7.404-15.408,1.856-33.385,8.156-49.078c3.131-7.404,9.117-13,14.066-19.167c17.083-20.252,35.916-39.656,47.631-63.734
		c8.794-17.387,11.877-37.087,11.744-56.425c0.485-16.968-1.408-34.089-6.481-50.325c-4.321-14.313-11.496-28.084-22.422-38.457
		c-10.402-10.202-24.81-15.902-39.323-16.217c-16.188-0.381-32.405,1.979-47.907,6.605c-35.174,10.259-66.598,31.015-102.81,38.067
		c-17.178,3.207-35.193,5.053-52.342,0.761c-15.122-3.826-29.483-12.334-38.41-25.334c-3.826-5.472-5.739-11.924-7.851-18.168
		c5.558-15.065,13.295-29.197,20.861-43.32c9.793-16.845,20.604-33.099,32.633-48.421c23.154-29.407,50.601-55.33,81.016-77.124
		c28.569-20.042,59.689-36.506,92.541-48.326c3.369-1.171,6.652-2.779,10.25-3.093C560.442,140.217,560.109,141.997,559.795,143.777
		z"/>
	<path fill="#DABE7F" stroke="#DABE7F" stroke-width="0.5" d="M183.636,289.412c31.177-18.824,67.674-27.094,103.761-29.007
		c24.848-1.361,49.754,0.514,74.374,3.911c5.091,0.99,10.221,1.761,15.331,2.693c-12.029,15.322-22.84,31.577-32.633,48.421
		c-15.208-4.121-30.634-8.146-46.489-8.451c-18.653-0.352-37.42,3.721-54.036,12.267c-29.473,14.922-53.617,38.667-72.775,65.285
		c-18.891,26.58-33.271,56.273-43.168,87.316c-0.847,2.56-1.513,5.177-2.084,7.823c4.892,1.275,9.936,1.694,14.951,2.265
		c21.774,2.988,43.691,5.853,65.732,5.272c25.343-0.704,50.905-5.805,73.565-17.501c5.681-2.788,10.782-6.624,16.502-9.336
		c-1.37,10.592-2.113,21.26-2.684,31.929c-0.438,7.299,0.048,14.637-0.628,21.936c-34.08,15.446-71.262,22.621-108.329,26.038
		c-17.52,1.618-35.107,2.36-52.704,2.151c-24.353,0.257-48.669-1.532-72.889-3.978c-6.119-0.904-12.305-1.313-18.358-2.56
		c1.78-10.135,5.234-19.881,8.013-29.759c10.763-34.803,24.02-68.892,40.399-101.449c15.17-29.797,33.08-58.481,55.854-83.1
		C156.779,309.425,169.332,298.119,183.636,289.412z"/>
	<path fill="#A68131" stroke="#A68131" stroke-width="0.5" d="M988.563,263.954c24.258-3.835,48.973-4.625,73.489-3.34
		c36.887,2.389,74.183,11.639,105.322,32.176c27.123,18.605,48.383,44.472,66.104,71.909c19.757,30.777,35.298,64.076,48.317,98.203
		c7.623,19.966,14.256,40.303,20.033,60.879c1.075,4.045,2.275,8.061,2.979,12.201c-23.935,3.654-48.136,5.215-72.308,6.195
		c-52.685,1.361-106.293-2.151-156.674-18.643c-1.78-9.383-1.199-18.948-1.456-28.446c-0.095-7.08-1.561-14.142-0.533-21.222
		c6.852,2.303,13.495,5.234,20.528,6.985c12.457,3.416,25.315,5.206,38.2,5.977c14.618,0.257,29.255,0.324,43.806-1.313
		c14.513-1.78,29.083-3.283,43.482-5.853c-3.959-16.207-10.545-31.643-17.292-46.861c-7.747-16.426-16.816-32.224-27.142-47.156
		c-10.021-13.58-20.661-26.875-33.413-37.991c-12.01-11.22-25.391-21.137-40.189-28.35c-19.291-9.974-41.522-13.866-63.087-11.924
		c-5.577,0.895-11.306,1.313-16.597,3.417c-1.342-1.304-2.807-2.503-3.816-4.073C1009.519,291.724,999.374,277.563,988.563,263.954z
		"/>
	<path fill="#F37873" stroke="#F37873" stroke-width="0.5" d="M243.943,319.247c16.616-8.546,35.383-12.619,54.036-12.267
		c15.855,0.305,31.282,4.33,46.489,8.451c-7.566,14.123-15.303,28.255-20.861,43.32c-13.323,32.528-22.479,66.741-26.942,101.62
		c-5.72,2.712-10.821,6.548-16.502,9.336c-22.659,11.696-48.221,16.797-73.565,17.501c-22.041,0.581-43.958-2.284-65.732-5.272
		c-5.015-0.571-10.059-0.99-14.951-2.265c0.571-2.646,1.237-5.263,2.084-7.823c9.897-31.044,24.277-60.736,43.168-87.316
		C190.326,357.913,214.47,334.169,243.943,319.247z"/>
	<path fill="#F37873" stroke="#F37873" stroke-width="0.5" d="M1038.726,307.379c21.565-1.941,43.796,1.951,63.087,11.924
		c14.799,7.214,28.179,17.13,40.189,28.35c12.753,11.116,23.392,24.411,33.413,37.991c10.326,14.932,19.395,30.73,27.142,47.156
		c6.747,15.217,13.333,30.653,17.292,46.861c-14.399,2.57-28.969,4.073-43.482,5.853c-14.551,1.637-29.188,1.57-43.806,1.313
		c-12.886-0.771-25.743-2.56-38.2-5.977c-7.033-1.751-13.676-4.682-20.528-6.985c-1.732-5.777-2.075-11.82-2.903-17.758
		c-0.6-11.182-3.293-22.098-5.415-33.052c-5.072-22.336-11.763-44.377-21.184-65.295c-6.586-16.026-14.599-31.415-22.203-46.965
		C1027.42,308.693,1033.149,308.274,1038.726,307.379z"/>
	<path fill="#434345" stroke="#434345" stroke-width="0.5" d="M525.021,363.423c15.503-4.625,31.719-6.985,47.907-6.605
		c14.513,0.314,28.921,6.015,39.323,16.217c10.925,10.373,18.101,24.144,22.422,38.457c5.072,16.236,6.966,33.356,6.481,50.325
		c0.133,19.338-2.95,39.038-11.744,56.425c-11.715,24.077-30.549,43.482-47.631,63.734c-4.949,6.167-10.935,11.763-14.066,19.167
		c-6.3,15.693-0.752,33.67-8.156,49.078c-7.528,14.57-21.936,24.801-37.648,28.893c-14.38,3.654-29.34,4.368-44.12,4.102
		c-7.804-0.171-15.712,0.676-23.411-0.98c-12.515-2.408-23.782-8.984-36.354-11.163c-18.472-2.627-37.391,2.303-53.313,11.706
		c-24.525,14.37-42.959,36.811-66.77,52.18c-10.887,7.147-23.145,12.438-36.059,14.456c-8.927,1.589-18.12,1.151-26.761-1.665
		l-0.685-0.171c12.172-52.552,27.484-104.304,41.674-156.332c5.758-21.546,11.706-43.092,15.655-65.066
		c0.714-3.959,1.209-7.947,1.589-11.943c0.676-7.299,0.19-14.637,0.628-21.936c0.571-10.668,1.313-21.337,2.684-31.929
		c4.463-34.879,13.618-69.092,26.942-101.62c2.113,6.243,4.026,12.695,7.851,18.168c8.927,13,23.288,21.508,38.41,25.334
		c17.149,4.292,35.164,2.446,52.342-0.761C458.423,394.439,489.847,373.682,525.021,363.423 M458.194,472.866
		c-14.637,2.341-28.493,9.345-39.019,19.785c-10.944,10.725-18.358,25.029-20.67,40.189c-1.903,12.562-0.59,25.638,4.13,37.458
		c5.748,14.722,16.54,27.408,30.111,35.497c14.256,8.546,31.539,11.972,47.955,9.336c14.304-2.198,27.884-8.841,38.372-18.805
		c11.306-10.649,19.11-25.029,21.565-40.389c2.579-14.846,0.276-30.492-6.481-43.967c-7.204-14.532-19.443-26.523-34.194-33.309
		C487.03,472.59,472.279,470.658,458.194,472.866z"/>
	<path fill="#F1ECF0" stroke="#F1ECF0" stroke-width="0.5" d="M458.194,472.866c14.085-2.208,28.836-0.276,41.769,5.796
		c14.751,6.785,26.99,18.777,34.194,33.309c6.757,13.476,9.06,29.121,6.481,43.967c-2.455,15.36-10.259,29.74-21.565,40.389
		c-10.487,9.964-24.068,16.607-38.372,18.805c-16.416,2.636-33.699-0.79-47.955-9.336c-13.571-8.089-24.363-20.775-30.111-35.497
		c-4.72-11.82-6.034-24.896-4.13-37.458c2.313-15.16,9.726-29.464,20.67-40.189C429.701,482.212,443.557,475.207,458.194,472.866
		 M464.884,494.764c-13.447,1.665-26,9.203-33.87,20.204c-7.908,10.906-11.135,25.105-8.489,38.334
		c2.636,14.066,11.696,26.771,24.182,33.775c8.194,4.739,17.787,6.947,27.237,6.395c13.932-0.609,27.399-7.604,36.049-18.529
		c7.052-8.774,11.001-20.023,10.811-31.291c0.133-13.476-5.843-26.78-15.684-35.916
		C494.529,497.714,479.331,492.794,464.884,494.764z"/>
	<path fill="#F1ECF0" stroke="#F1ECF0" stroke-width="0.5" d="M879.758,472.742c19.319-2.988,39.752,2.379,55.083,14.513
		c11.963,9.26,20.794,22.421,24.896,36.973c5.244,18.053,3.026,38.191-6.224,54.569c-6.538,11.963-16.654,21.927-28.617,28.427
		c-17.454,9.631-38.952,11.315-57.767,4.844c-26.99-8.87-47.108-35.193-48.44-63.591c-1.447-20.699,6.69-41.855,21.736-56.168
		C851.056,481.879,865.026,474.96,879.758,472.742 M884.564,494.717c-18.263,1.989-34.632,15.094-40.713,32.395
		c-6.367,17.206-2.16,37.762,10.63,50.943c11.839,12.819,30.749,18.358,47.66,14.132c17.045-3.93,31.358-17.644,36.04-34.489
		c4.254-14.342,1.447-30.511-7.347-42.607C920.642,500.56,902.17,492.404,884.564,494.717z"/>
	<path fill="#434345" stroke="#434345" stroke-width="0.5" d="M464.884,494.764c14.446-1.97,29.645,2.95,40.237,12.971
		c9.84,9.136,15.817,22.441,15.684,35.916c0.19,11.268-3.759,22.517-10.811,31.291c-8.651,10.925-22.117,17.92-36.049,18.529
		c-9.45,0.552-19.043-1.656-27.237-6.395c-12.486-7.004-21.546-19.709-24.182-33.775c-2.646-13.228,0.581-27.427,8.489-38.334
		C438.885,503.967,451.437,496.43,464.884,494.764 M485.745,515.615c-6.462,1.466-11.801,6.833-13.209,13.304
		c-1.913,7.556,2.16,15.979,9.069,19.462c5.567,2.988,12.771,2.608,17.949-1.047c6.138-3.997,9.174-12.115,7.157-19.157
		C504.465,519.337,494.634,513.255,485.745,515.615z"/>
	<path fill="#434345" stroke="#434345" stroke-width="0.5" d="M884.564,494.717c17.606-2.313,36.078,5.843,46.271,20.375
		c8.793,12.096,11.601,28.265,7.347,42.607c-4.682,16.845-18.995,30.558-36.04,34.489c-16.911,4.225-35.821-1.313-47.66-14.132
		c-12.79-13.181-16.997-33.737-10.63-50.943C849.933,509.81,866.301,496.706,884.564,494.717 M868.29,515.501
		c-6.804,1.361-12.629,6.985-13.809,13.885c-1.466,6.671,1.532,13.971,7.176,17.796c5.663,4.121,13.837,4.273,19.652,0.352
		c5.919-3.759,9.079-11.239,7.68-18.12C887.438,520.145,877.465,513.389,868.29,515.501z"/>
	<path fill="#FFFFFF" stroke="#FFFFFF" stroke-width="0.5" d="M485.745,515.615c8.889-2.36,18.72,3.721,20.965,12.562
		c2.018,7.042-1.018,15.16-7.157,19.157c-5.177,3.654-12.381,4.035-17.949,1.047c-6.909-3.483-10.982-11.905-9.069-19.462
		C473.944,522.448,479.283,517.081,485.745,515.615z"/>
	<path fill="#FFFFFF" stroke="#FFFFFF" stroke-width="0.5" d="M868.29,515.501c9.174-2.113,19.148,4.644,20.699,13.914
		c1.399,6.881-1.761,14.361-7.68,18.12c-5.815,3.921-13.99,3.769-19.652-0.352c-5.643-3.826-8.641-11.125-7.176-17.796
		C855.662,522.487,861.486,516.862,868.29,515.501z"/>
	<path fill="#F79F9E" stroke="#F79F9E" stroke-width="0.5" d="M544.397,733.997c38.248-9.422,77.552-14.113,116.885-15.522
		c26.438-0.371,52.904,0.447,79.208,3.236c39.437,4.378,78.551,12.581,116.047,25.648c38.381,13.609,75.477,31.815,107.711,56.901
		c11.81,8.993,22.621,19.214,32.928,29.883c23.858,22.983,43.682,51.057,53.094,83.1c5.767,19.186,7.499,39.523,5.244,59.423
		c-1.932,17.93-7.718,35.222-15.36,51.486c-1.418,2.684-2.827,5.377-4.254,8.07c-15.36,26.39-36.459,49.154-60.584,67.759
		c-26.78,20.794-56.901,37.049-88.306,49.677c-34.384,13.837-70.443,23.297-107.006,29.198
		c-47.917,7.709-96.805,9.127-145.121,4.796c-40.361-3.864-80.474-11.553-118.94-24.487c-31.529-10.506-62.116-24.211-90.114-42.216
		c-7.119-4.273-13.752-9.269-20.575-13.97c-12.353-10.012-24.706-20.08-35.44-31.853c-3.141-3.226-6.062-6.681-9.593-9.488
		c-21.565-23.211-39.019-51.01-46.394-82.082c-5.491-22.098-5.672-45.443-0.485-67.607c7.014-30.72,23.687-58.595,44.919-81.625
		c22.355-24.306,49.44-43.948,78.418-59.632C470.547,756.361,507.015,743.076,544.397,733.997 M886.429,860.988
		c-18.434,1.247-35.374,13.942-42.064,31.12c-7.061,17.444-3.102,38.847,10.078,52.371c13.238,14.446,35.421,19.376,53.636,12.353
		c12.962-4.882,23.697-15.465,28.655-28.398c6.966-17.416,2.931-38.733-10.307-52.114
		C916.379,865.442,901.171,859.637,886.429,860.988 M467.711,870.515c-17.958,1.123-34.689,12.971-41.817,29.464
		c-8.241,17.787-4.263,40.389,9.602,54.264c10.116,11.001,25.514,16.635,40.351,15.132c18.025-1.351,34.555-13.742,41.284-30.463
		c6.595-15.836,4.302-35.05-6.234-48.659C501.124,876.853,484.213,869.258,467.711,870.515 M469.3,1076.857
		c0.695,2.398,1.599,4.892,3.673,6.471c6.357,5.12,14.142,7.975,21.822,10.478c21.432,6.386,43.625,9.745,65.789,12.305
		c48.65,5.634,97.68,6.471,146.606,5.463c9.231-0.828,18.51-0.4,27.741-1.285c24.43-1.247,48.812-3.578,73.003-7.176
		c18.567-3.102,37.401-6.31,54.817-13.714c5.501-2.817,12.438-5.748,13.714-12.543c-26.304-0.419-52.637-0.095-78.951-0.162
		c-3.14-0.466-3.378,3.407-5.529,4.768c-4.673,3.169-10.135,4.939-15.541,6.433c-10.554,2.807-21.336,4.758-32.186,6.005
		c-23.04,2.798-46.261,3.921-69.472,3.845c-16.502,0.076-32.995-0.314-49.459-1.475c-19.852-1.761-39.866-3.54-59.061-9.212
		c-4.33-1.447-8.727-2.979-12.486-5.605c-2.179-1.342-2.389-5.234-5.539-4.749C521.937,1076.762,495.604,1076.438,469.3,1076.857z"
		/>
	<path fill="#EF515F" stroke="#EF515F" stroke-width="0.5" d="M886.429,860.988c14.741-1.351,29.949,4.454,39.999,15.331
		c13.238,13.381,17.273,34.698,10.307,52.114c-4.958,12.933-15.693,23.516-28.655,28.398c-18.215,7.023-40.399,2.094-53.636-12.353
		c-13.181-13.523-17.14-34.927-10.078-52.371C851.056,874.93,867.995,862.235,886.429,860.988z"/>
	<path fill="#EF515F" stroke="#EF515F" stroke-width="0.5" d="M467.711,870.515c16.502-1.256,33.413,6.338,43.187,19.738
		c10.535,13.609,12.829,32.823,6.234,48.659c-6.728,16.721-23.259,29.112-41.284,30.463c-14.837,1.504-30.235-4.13-40.351-15.132
		c-13.866-13.875-17.844-36.478-9.602-54.264C433.022,883.486,449.753,871.638,467.711,870.515z"/>
	<path fill="#BCA057" stroke="#BCA057" stroke-width="0.5" d="M306.659,1018.519c8.08,8.993,16.788,17.359,25.714,25.505
		c7.033,6.671,14.741,12.562,22.098,18.853c1.608,1.456,3.521,2.608,5.748,2.76c3.531,2.807,6.452,6.262,9.593,9.488
		c10.735,11.772,23.088,21.841,35.44,31.853c3.369,6.557,9.203,11.249,14.132,16.588c23.659,24.125,52.666,42.426,83.072,56.863
		c38.191,18.072,79.275,29.502,120.939,36.04c15.37,2.322,30.834,3.816,46.318,5.091c0.457,12.277,0.219,24.572,0.609,36.859
		c0.733,12.971,0.609,25.971,0.771,38.962c-0.048,8.251,0.628,16.483,0.647,24.744c0.343,48.336,1.475,96.671,1.075,145.026
		c-18.177,0.286-36.23-2.179-54.236-4.311c-0.447,30.606,0.257,61.231-0.343,91.818c-27.313-18.786-61.24-27.028-94.168-24.553
		c-23.725,1.646-47.241,9.003-67.046,22.298c-0.533-22.184-0.057-44.396-0.219-66.589c0.01-27.608-0.019-55.207,0.019-82.815
		c-0.019-1.799-0.143-3.578-0.314-5.339c-55.15-37.049-102.686-86.907-132.102-146.844c-11.401-22.869-19.376-47.308-24.629-72.28
		c-4.597,1.723-9.012,3.93-13.809,5.092c-4.654,1.39-9.612,1.275-14.228,2.798c-1.989,0.647-4.073,0.971-6.157,0.885
		c-11.972-0.39-24.363-2.179-34.822-8.394c-6.129-3.597-10.782-9.184-14.009-15.446c-17.606-1.38-35.383-5.586-50.344-15.341
		c-6.233-3.664-11.629-8.508-17.501-12.686c1.713-4.349,2.046-9.05,2.655-13.628c5.177-0.58,10.411-1.77,14.761-4.806
		c5.653,2.988,10.468,7.338,16.178,10.259c8.051,4.406,16.845,8.004,26.104,8.575c-0.676-17.016,4.939-34.603,16.845-47.013
		c7.052-7.556,17.273-12.629,27.77-11.925c12.429,0.714,23.792,9.336,28.331,20.851c2.712,6.557,3.293,14.009,1.313,20.861
		c-3.188,10.668-9.641,20.347-18.339,27.313c-4.758,4.216-10.801,6.348-16.207,9.498c8.299,2.769,17.197,2.95,25.867,2.922
		c7.994-0.114,15.474-3.788,21.489-8.87C294.039,1105.607,297.37,1061.468,306.659,1018.519 M247.978,1106.568
		c-9.393,7.671-13.514,20.499-13.238,32.328c6.509-1.161,12.258-5.082,16.769-9.774c3.854-4.463,8.28-9.897,7.109-16.217
		C257.828,1108.329,252.556,1103.561,247.978,1106.568 M441.978,1202.612c-7.889,1.408-15.826,4.073-22.003,9.326
		c-4.901,4.149-7.994,10.431-7.927,16.892c-0.152,6.938,2.313,13.79,6.509,19.281c5.929,7.947,13.828,14.304,19.053,22.821
		c5.272,8.775,9.974,17.891,15.065,26.78c6.443,11.163,13.58,22.364,23.859,30.416c7.87,6.243,17.901,9.555,27.922,9.555
		c16.359,0.029,32.995-5.824,44.853-17.292c10.906-10.316,17.006-26.152,14.094-41.084c-1.751-9.069-8.222-16.407-15.722-21.403
		c-14.446-9.774-31.748-14.77-45.262-26.019c-10.887-8.794-19.624-20.528-32.49-26.638
		C461.287,1200.956,451.275,1201.279,441.978,1202.612z"/>
	<path fill="#A68131" stroke="#A68131" stroke-width="0.5" d="M975.316,1103.98c24.125-18.605,45.224-41.369,60.584-67.759
		c4.282,22.298,6.119,45.024,7.49,67.674c1.057,25.838,1.637,51.952-3.093,77.495c-7.195,6.072-14.837,11.867-23.725,15.227
		c-8.946,3.426-19.157,4.806-28.322,1.38c-13.752-4.673-28.094-9.165-42.806-7.689c-11.886,1.018-23.107,6.652-31.548,14.989
		c-3.835,3.521-6.757,8.194-7.356,13.447c-1.447,8.784,0.647,18.843-5.149,26.409c-9.307,11.924-20.175,22.64-28.322,35.45
		c-6.224,9.545-10.487,20.566-11.068,32.024c-0.885,15.979,1.342,32.49,8.641,46.899c4.359,8.736,11.325,16.597,20.537,20.318
		c7.414,3.283,15.703,2.665,23.611,2.294c-3.169,3.93-8.175,5.824-11.353,9.669c-0.19,49.411-0.029,98.832-0.076,148.252
		c-0.057,4.844,0.228,9.726-0.39,14.561c-28.036-19.338-63.068-27.323-96.814-24.287c-22.84,2.008-45.366,9.345-64.457,22.164
		c-0.105-30.273,0.124-60.546-0.114-90.809c-22.726,3.512-45.718,6.195-68.768,5.463c0.4-48.355-0.733-96.69-1.075-145.026
		c-0.019-8.261-0.695-16.493-0.647-24.744c-0.162-12.99-0.038-25.99-0.771-38.962c-0.39-12.286-0.152-24.582-0.609-36.859
		c-15.484-1.275-30.948-2.769-46.318-5.091c-41.664-6.538-82.748-17.968-120.939-36.04c-30.406-14.437-59.413-32.738-83.072-56.863
		c-4.93-5.339-10.763-10.031-14.132-16.588c6.824,4.701,13.457,9.698,20.575,13.97c27.998,18.006,58.585,31.71,90.114,42.216
		c38.467,12.933,78.58,20.623,118.94,24.487c48.317,4.33,97.204,2.912,145.121-4.796c36.563-5.9,72.622-15.36,107.006-29.198
		C918.415,1141.029,948.536,1124.774,975.316,1103.98z"/>
	<path fill="#434345" stroke="#434345" stroke-width="0.5" d="M98.051,1065.113c9.422-6.7,23.088-8.089,32.88-1.427
		c1.218,0.609,2.427,2.246,3.911,1.256c6.871-3.502,14.903-4.711,22.441-2.922c9.812,2.351,18.434,9.764,21.527,19.471
		c4.225,12.914-1.285,27.97-12.486,35.516c-4.349,3.036-9.583,4.226-14.761,4.806c-0.609,4.578-0.942,9.279-2.655,13.628
		c-2.389,5.853-6.928,10.64-12.153,14.104c-13.114,8.356-32.414,4.073-40.894-8.927c-4.958-7.166-7.061-16.588-4.425-25.01
		c0.581-2.37,3.007-5.101,0.438-7.109C80.674,1095.881,84.385,1074.402,98.051,1065.113z"/>
	<path fill="#F67280" stroke="#F67280" stroke-width="0.5" d="M469.3,1076.857c26.304-0.419,52.637-0.095,78.942-0.152
		c3.15-0.485,3.359,3.407,5.539,4.749c3.759,2.627,8.156,4.159,12.486,5.605c19.195,5.672,39.209,7.452,59.061,9.212
		c16.464,1.161,32.956,1.551,49.459,1.475c23.211,0.076,46.432-1.047,69.472-3.845c10.849-1.247,21.632-3.198,32.186-6.005
		c5.406-1.494,10.868-3.264,15.541-6.433c2.151-1.361,2.389-5.234,5.529-4.768c26.314,0.067,52.647-0.257,78.951,0.162
		c-1.275,6.795-8.213,9.726-13.714,12.543c-17.416,7.404-36.249,10.611-54.817,13.714c-24.192,3.597-48.574,5.929-73.003,7.176
		c-9.231,0.885-18.51,0.457-27.741,1.285c-48.926,1.009-97.956,0.171-146.606-5.463c-22.165-2.56-44.358-5.919-65.789-12.305
		c-7.68-2.503-15.465-5.358-21.822-10.478C470.899,1081.749,469.995,1079.255,469.3,1076.857z"/>
	<path fill="#434345" stroke="#434345" stroke-width="0.5" d="M1016.571,1196.616c8.889-3.359,16.531-9.155,23.725-15.227
		l0.552-0.419c-5.91,37.191-20.242,72.746-39.752,104.846c-19.709,32.462-44.948,61.421-73.669,86.193
		c-4.197,3.388-8.08,7.233-12.638,10.126c-7.908,0.371-16.197,0.99-23.611-2.294c-9.212-3.721-16.178-11.582-20.537-20.318
		c-7.299-14.408-9.526-30.92-8.641-46.899c0.581-11.458,4.844-22.479,11.068-32.024c8.146-12.81,19.014-23.526,28.322-35.45
		c5.796-7.566,3.702-17.625,5.149-26.409c0.6-5.253,3.521-9.926,7.356-13.447c8.441-8.337,19.662-13.971,31.548-14.989
		c14.713-1.475,29.055,3.017,42.806,7.689C997.414,1201.422,1007.625,1200.042,1016.571,1196.616z"/>
	<path fill="#434345" stroke="#434345" stroke-width="0.5" d="M441.978,1202.612c9.298-1.332,19.309-1.656,27.951,2.636
		c12.867,6.11,21.603,17.844,32.49,26.638c13.514,11.249,30.815,16.245,45.262,26.019c7.499,4.996,13.971,12.334,15.722,21.403
		c2.912,14.932-3.188,30.768-14.094,41.084c-11.858,11.468-28.493,17.32-44.853,17.292c-10.021,0-20.052-3.312-27.922-9.555
		c-10.278-8.051-17.416-19.253-23.859-30.416c-5.091-8.889-9.793-18.006-15.065-26.78c-5.225-8.517-13.124-14.875-19.053-22.821
		c-4.197-5.491-6.662-12.343-6.509-19.281c-0.067-6.462,3.026-12.743,7.927-16.892
		C426.151,1206.685,434.088,1204.02,441.978,1202.612z"/>
	<path fill="#434345" stroke="#434345" stroke-width="0.5" d="M524.069,1530.102c32.928-2.474,66.855,5.767,94.168,24.553
		c10.973,7.928,20.918,17.444,28.388,28.788c9.517,14.313,15.341,31.434,14.894,48.716c-36.088-0.114-72.194,0.057-108.282-0.086
		c-3.093-4.035-4.863-8.993-7.423-13.39c-2.912-5.567-5.958-11.068-8.67-16.73c-2.236,2.484-3.302,5.729-4.939,8.603
		c-3.807,7.033-7.328,14.218-11.201,21.203c-5.415,0.904-11.068,0.095-16.569,0.362c-30.768,0.019-61.535-0.038-92.294,0.038
		c-0.257-17.102,4.968-34.118,14.104-48.516c7.88-12.458,18.615-22.974,30.777-31.244
		C476.828,1539.105,500.344,1531.749,524.069,1530.102z"/>
	<path fill="#434345" stroke="#434345" stroke-width="0.5" d="M806.156,1530.331c33.746-3.036,68.778,4.949,96.814,24.287
		c13.98,9.964,26.181,22.793,33.994,38.191c6.271,12.096,9.431,25.667,9.669,39.266c-36.297,0.095-72.584,0.048-108.881,0.029
		c-5.377-9.993-10.649-20.042-15.845-30.13c-5.948,9.669-10.678,20.118-16.159,30.092c-36.297,0.133-72.584,0.038-108.872,0.048
		c-0.019-17.92,5.548-35.735,15.579-50.572c7.68-11.515,17.854-21.232,29.245-29.045
		C760.789,1539.676,783.315,1532.339,806.156,1530.331z"/>
</g>
</svg>
