<?xml version="1.0" encoding="UTF-8"?>
<svg width="446.45mm" height="701.74mm" version="1.1" viewBox="0 0 446.45 701.74" xmlns="http://www.w3.org/2000/svg"><defs><clipPath id="clipPath5762"><path d="m0 2201.9h2066v-2201.9h-2066z"/></clipPath><clipPath id="clipPath5778"><path d="m1177.3 270.75h164.71v-63.958h-164.71z"/></clipPath><clipPath id="clipPath5794"><path d="m1002.4 328.99h220.1v-167.57h-220.1z"/></clipPath><clipPath id="clipPath5818"><path d="m559.46 320.82h165.76v-212.42h-165.76z"/></clipPath><clipPath id="clipPath5834"><path d="m647.36 235.58h137.39v-111.83h-137.39z"/></clipPath><clipPath id="clipPath5854"><path d="m573.04 727.05h282.36v-413.87h-282.36z"/></clipPath><clipPath id="clipPath5870"><path d="m583.66 701h62.106v-243.22h-62.106z"/></clipPath><clipPath id="clipPath5886"><path d="m691.08 436.92h275.01v-140.95h-275.01z"/></clipPath><clipPath id="clipPath5906"><path d="m944.7 568.02h268.36v-289.86h-268.36z"/></clipPath><clipPath id="clipPath5922"><path d="m1049.3 508.2h153.96v-152.96h-153.96z"/></clipPath><clipPath id="clipPath5942"><path d="m958.63 372.9h186.89v-168.38h-186.89z"/></clipPath><clipPath id="clipPath5958"><path d="m1056.4 365.32h184.01v-84.55h-184.01z"/></clipPath><clipPath id="clipPath5978"><path d="m569.21 373.34h255.55v-161.53h-255.55z"/></clipPath><clipPath id="clipPath5994"><path d="m663.83 354.75h188.95v-134.58h-188.95z"/></clipPath><clipPath id="clipPath6014"><path d="m811.84 675.96h177.51v-238.23h-177.51z"/></clipPath><clipPath id="clipPath6030"><path d="m1149.1 801.44h54.15v-300.04h-54.15z"/></clipPath><clipPath id="clipPath6046"><path d="m931.22 657.26h201.09v-45.592h-201.09z"/></clipPath><clipPath id="clipPath6062"><path d="m970.74 665.66h189.32v-220.21h-189.32z"/></clipPath><clipPath id="clipPath6090"><path d="m912.94 1194.8h210.64v-155.69h-210.64z"/></clipPath><clipPath id="clipPath6114"><path d="m1098.6 1119h11.59v-20.86h-11.59z"/></clipPath><clipPath id="clipPath6130"><path d="m913.49 1082.4h200.33v-432.55h-200.33z"/></clipPath><clipPath id="clipPath6146"><path d="m852.63 1092.6h159.22v-431.61h-159.22z"/></clipPath><clipPath id="clipPath6162"><path d="m1069.2 1119.8h123.59v-439.69h-123.59z"/></clipPath><clipPath id="clipPath6178"><path d="m1144.9 1047.6h47.41v-72.566h-47.41z"/></clipPath><clipPath id="clipPath6194"><path d="m1062.4 1127.2h2.2v-9.09h-2.2z"/></clipPath><clipPath id="clipPath6210"><path d="m743.82 1251.6h194.2v-185.71h-194.2z"/></clipPath><clipPath id="clipPath6234"><path d="m1549.2 1314.8h125.55v-81.06h-125.55z"/></clipPath><clipPath id="clipPath6274"><path d="m1607.6 1136.6h24.15v-24.39h-24.15z"/></clipPath><clipPath id="clipPath6290"><path d="m1625 1209.1h38.78v-56.9h-38.78z"/></clipPath><clipPath id="clipPath6314"><path d="m1486.1 1256.6h107.98v-263.53h-107.98z"/></clipPath><clipPath id="clipPath6330"><path d="m1047.5 978.59h19.49v-29.225h-19.49z"/></clipPath><clipPath id="clipPath6350"><path d="m1062.1 979h6.66v-24.747h-6.66z"/></clipPath><clipPath id="clipPath6366"><path d="m1051.2 979.91h9.02v-24.26h-9.02z"/></clipPath><clipPath id="clipPath6382"><path d="m1050.3 1027.5h19.7v-27.951h-19.7z"/></clipPath><clipPath id="clipPath6402"><path d="m1065.4 1032h6.55v-25.14h-6.55z"/></clipPath><clipPath id="clipPath6418"><path d="m1054.4 1032.3h10.01v-26.21h-10.01z"/></clipPath><clipPath id="clipPath6434"><path d="m1046.7 1083h20.74v-28.69h-20.74z"/></clipPath><clipPath id="clipPath6454"><path d="m1058.2 1083.8h9.52v-25.43h-9.52z"/></clipPath><clipPath id="clipPath6470"><path d="m1049.4 1084h14.09v-25.79h-14.09z"/></clipPath><clipPath id="clipPath6490"><path d="m1172.3 986.54h83.47v-425.39h-83.47z"/></clipPath><clipPath id="clipPath6506"><path d="m1105.6 1199h105.74v-84.3h-105.74z"/></clipPath><clipPath id="clipPath6522"><path d="m1159.5 585.21h97.93v-92.538h-97.93z"/></clipPath><clipPath id="clipPath6538"><path d="m1168.4 1083.9h70.8v-96.72h-70.8z"/></clipPath><clipPath id="clipPath6558"><path d="m1213.1 955.23h71.75v-74.575h-71.75z"/></clipPath><clipPath id="clipPath6574"><path d="m1240.3 1115.6h77.35v-79.51h-77.35z"/></clipPath><clipPath id="clipPath6590"><path d="m752.65 1101.4h162.42v-355.7h-162.42z"/></clipPath><clipPath id="clipPath6610"><path d="m1062.4 1166.7h104.08v-420.57h-104.08z"/></clipPath><clipPath id="clipPath6626"><path d="m1127.9 1133.5h60.69v-305.07h-60.69z"/></clipPath><clipPath id="clipPath6646"><path d="m455.41 1222.8h449.56v-739.38h-449.56z"/></clipPath><clipPath id="clipPath6666"><path d="m660.11 792.53h173.92v-285.26h-173.92z"/></clipPath><clipPath id="clipPath6686"><path d="m671.27 792.53h120.78v-285.29h-120.78z"/></clipPath><clipPath id="clipPath6702"><path d="m573.72 1096.9h160.13v-121.2h-160.13z"/></clipPath><clipPath id="clipPath6718"><path d="m709.18 1065.2h158.54v-316.4h-158.54z"/></clipPath><clipPath id="clipPath6734"><path d="m1402.5 1194.4h105.93v-128.53h-105.93z"/></clipPath><clipPath id="clipPath6750"><path d="m1310.3 1073.7h102.51v-89.031h-102.51z"/></clipPath><clipPath id="clipPath6766"><path d="m1594 1112.7h37.49v-25.5h-37.49z"/></clipPath><clipPath id="clipPath6782"><path d="m1555.8 1048.5h58.4v-34.52h-58.4z"/></clipPath><clipPath id="clipPath6798"><path d="m1653.6 1180.2h19.87v-49.81h-19.87z"/></clipPath><clipPath id="clipPath6814"><path d="m1281.4 1075h269.91v-156.39h-269.91z"/></clipPath><clipPath id="clipPath6830"><path d="m1555.7 1028.6h47.44v-32.437h-47.44z"/></clipPath><clipPath id="clipPath6846"><path d="m1581.9 1088.9h35.44v-57.61h-35.44z"/></clipPath><clipPath id="clipPath6862"><path d="m1621.1 1179.3h41.52v-85.58h-41.52z"/></clipPath><clipPath id="clipPath6878"><path d="m1434.5 1109.3h66.25v-73.63h-66.25z"/></clipPath><clipPath id="clipPath6894"><path d="m1484.2 1189.1h39.59v-78.41h-39.59z"/></clipPath><clipPath id="clipPath6910"><path d="m1039.7 1191.3h127.14v-90.38h-127.14z"/></clipPath><clipPath id="clipPath6926"><path d="m1162.8 1265.3h156.56v-115.81h-156.56z"/></clipPath><clipPath id="clipPath6950"><path d="m608.41 2027.3h151.79v-214.63h-151.79z"/></clipPath><clipPath id="clipPath6974"><path d="m1162.2 1970.7h180.64v-122.53h-180.64z"/></clipPath><clipPath id="clipPath6994"><path d="m924.19 1850.1h413.69v-722.39h-413.69z"/></clipPath><clipPath id="clipPath7034"><path d="m768.93 1587.3c-9.3-42.782 14.105-77.89 46.782-85.339 49.941-11.385 66.752 17.672 76.356 57.163s1.486 77.468-28.275 88.628c-6.36 2.385-13.025 3.509-19.764 3.509-32.676 0-66.948-26.463-75.099-63.961"/></clipPath><clipPath id="clipPath7058"><path d="m0 2201.9h2066v-2201.9h-2066z"/></clipPath><clipPath id="clipPath7074"><path d="m1034.9 1553.8h138.42v-126.59h-138.42z"/></clipPath><clipPath id="clipPath7102"><path d="m1013.7 1636h65.57v-155.02h-65.57z"/></clipPath><clipPath id="clipPath7118"><path d="m1063.7 1635.7c-37.532-4.077-53.735-51.764-48.826-96.956 4.908-45.192 34.132-72.65 71.664-68.574 37.532 4.077 75.757 45.59 61.563 94.383-10.592 36.406-43.287 71.458-78.671 71.457-1.903 0-3.815-0.102-5.73-0.31"/></clipPath><clipPath id="clipPath7158"><path d="m0 2201.9h2066v-2201.9h-2066z"/></clipPath><clipPath id="clipPath7166"><path d="m1031.9 1619.6h102.31v-102.3h-102.31z"/></clipPath><clipPath id="clipPath7182"><path d="m1050 1616.8h78.12v-78.12h-78.12z"/></clipPath><clipPath id="clipPath7198"><path d="m790.78 1632.7h102.3v-102.3h-102.3z"/></clipPath><clipPath id="clipPath7214"><path d="m808.92 1629.9h78.123v-78.12h-78.123z"/></clipPath><clipPath id="clipPath7230"><path d="m766.87 1651.3h91.579v-151.76h-91.579z"/></clipPath><clipPath id="clipPath7246"><path d="m855.85 1840.4h33.472v-13.2h-33.472z"/></clipPath><clipPath id="clipPath7262"><path d="m595.65 1827.2h415.81v-756.47h-415.81z"/></clipPath><clipPath id="clipPath7278"><path d="m1050.8 2068.8h357.84v-339.66h-357.84z"/></clipPath><clipPath id="clipPath7294"><path d="m1050.8 2067.2h229.95v-322.35h-229.95z"/></clipPath><clipPath id="clipPath7310"><path d="m1207.4 2063h189.56v-179.2h-189.56z"/></clipPath><clipPath id="clipPath7326"><path d="m1211.7 1927.8h0.41v-0.67h-0.41z"/></clipPath><clipPath id="clipPath7342"><path d="m1146.6 1897.2h30.53v-156.31h-30.53z"/></clipPath><clipPath id="clipPath7362"><path d="m560.31 2088.6h110.04v-240.46h-110.04z"/></clipPath><clipPath id="clipPath7378"><path d="m588.21 2069.8h121.81v-227h-121.81z"/></clipPath><clipPath id="clipPath7394"><path d="m767.07 1940.7h13.052v-102.2h-13.052z"/></clipPath><clipPath id="clipPath7410"><path d="m733.35 1961.2h17.908v-99.55h-17.908z"/></clipPath><clipPath id="clipPath7426"><path d="m695.51 1984.7h22.471v-82.09h-22.471z"/></clipPath><clipPath id="clipPath7442"><path d="m758.09 1848.8h87.101v-86.67h-87.101z"/></clipPath><clipPath id="clipPath7458"><path d="m738.41 1566.1h358.54v-354.7h-358.54z"/></clipPath><clipPath id="clipPath7482"><path d="m827.31 1327.4h176.99v-73.07h-176.99z"/></clipPath><clipPath id="clipPath7502"><path d="m887.1 1258h61.016v-21.81h-61.016z"/></clipPath><clipPath id="clipPath7522"><path d="m749.57 1582.9h199.56v-299.35h-199.56z"/></clipPath><clipPath id="clipPath7542"><path d="m912.44 1451h94.539v-132.92h-94.539z"/></clipPath><clipPath id="clipPath7558"><path d="m837.11 1451h108.92v-133.16h-108.92z"/></clipPath><clipPath id="clipPath7574"><path d="m895.93 1433.7h84.535v-47.86h-84.535z"/></clipPath><clipPath id="clipPath7590"><path d="m917.8 1429.7h56.731v-32.11h-56.731z"/></clipPath><clipPath id="clipPath7606"><path d="m962.39 1576.3h143.71v-302.72h-143.71z"/></clipPath><clipPath id="clipPath7626"><path d="m447.95 947.78h124.68v-322.12h-124.68z"/></clipPath><clipPath id="clipPath7642"><path d="m513.27 934.28h82.903v-139.34h-82.903z"/></clipPath><clipPath id="clipPath7658"><path d="m608.95 734.46h28.802v-84.363h-28.802z"/></clipPath><clipPath id="clipPath7678"><path d="m422.91 965.67h205.5v-120.11h-205.5z"/></clipPath><clipPath id="clipPath7694"><path d="m409.24 1047h91.594v-201.44h-91.594z"/></clipPath><clipPath id="clipPath7710"><path d="m527.96 1021.7h113.1v-136.57h-113.1z"/></clipPath><clipPath id="clipPath7730"><path d="m585.04 801.76h42.19v-67.254h-42.19z"/></clipPath><clipPath id="clipPath7762"><path d="m531.76 777.09h40.694v-92.077h-40.694z"/></clipPath><clipPath id="clipPath7778"><path d="m567.58 773.78h41.566v-84.96h-41.566z"/></clipPath></defs><g transform="translate(8.5357 165)"><g transform="matrix(.35278 0 0 -.35278 -152.91 571.83)"><g clip-path="url(#clipPath5762)"><g transform="translate(1212.6 306.67)"><path d="m0 0c2.79-0.93 23.251-26.041 40.921-30.691 17.671-4.65 45.572-10.23 62.313-15.81 16.74-5.581 39.991-11.161 36.271-62.313-3.72-51.151-337.83 16.973-337.83 16.973s-10.928 44.409-7.208 48.129c3.72 3.721 166.48 66.033 166.48 66.033z" style="fill:#30302d"/></g><g transform="translate(1002.4 234.13)"><path d="m0 0c0-2.79 0.93-43.712 0.93-43.712s186.01-61.382 339.46-36.271c0 0 11.16 37.201 9.3 43.711 0 0-109.74-34.41-338.53 28.832z" style="fill:#cfcdc1"/></g><g clip-path="url(#clipPath5778)" style="opacity:.10001"><g transform="translate(1198.1 218.31)"><path d="m0 0c24.453-10.637 82.308-15.345 116.72-7.905 6.285 1.359 32.85 10.132 26.041 23.251-18.536 35.71-154.92 50.522-162.76 22.32-4.65-16.74 11.012-33.758 19.996-37.666" style="fill:#fff"/></g></g><g clip-path="url(#clipPath5794)" style="opacity:.2"><g transform="translate(1099.1 231.35)"><path d="m0 0c3.588 66.616 67.438 71.368 123.39 66.048-5.144 4.976-8.838 8.915-9.912 9.273l-39.062 22.321s-162.76-62.312-166.48-66.033c-2.372-2.372 1.211-21.28 4.12-34.677l-8.77 5.847c0-2.791 0.93-43.712 0.93-43.712s50.307-16.59 120.16-28.993c-16.043 19.298-25.841 42.828-24.381 69.926"/></g></g><g transform="translate(648.02 320.62)"><path d="m0 0c8.37 3.72 159.04-44.642 159.04-44.642l2.092-69.519s-124.62-81.611-133.92-84.401c-9.301-2.79-98.816 35.806-100.68 38.597-1.861 2.79 8.37 90.213 8.37 90.213z" style="fill:#30302d"/></g><g transform="translate(588.97 240.17)"><path d="m0 0c4.013 5.837-13.485-36.736-9.765-56.267 2.321-12.189 14.88-27.901 40.921-35.341s63.542-11.043 84.633-2.79c21.391 8.37 60.452 27.901 94.863 72.542 34.412 44.642 10.231-19.53 10.231-19.53s-27.901-62.313-67.893-79.983c-39.991-17.671-80.913-22.321-119.97-17.671s-60.452 26.041-62.312 48.362 8.835 60.917 29.296 90.678" style="fill:#cfcdc1"/></g><g clip-path="url(#clipPath5818)" style="opacity:.2"><g transform="translate(590.42 123.18)"><path d="m0 0c-11.571 69.85 31.582 137.42 94.496 166.36 12.727 5.853 26.395 9.89 40.308 11.793-36.91 11.012-73.209 21.065-77.198 19.293l-65.102-69.753s-1.29-11.027-2.869-25.356c-14.579-26.888-21.948-57.218-20.382-76.017 1.352-16.226 13.078-31.921 34.36-41.087-1.533 4.752-2.768 9.673-3.613 14.772"/></g></g><g clip-path="url(#clipPath5834)" style="opacity:.10001"><g transform="translate(732.69 234.62)"><path d="m0 0c25.262 3.289 48.699-0.734 51.863-30.239 3.112-29.019-31.709-65.987-57.334-75.35-18.333-6.698-55.836-9.516-69.43 6.972-10.248 12.431-14.091 29.902-6.277 46.735 11.484 31.064 60.365 49.173 81.178 51.882" style="fill:#fff"/></g></g><g transform="translate(847.52 610.32)"><path d="m0 0c0-5.58 22.522-121.2 40.456-142.3 47.432-55.802 189.73 41.851 61.383-57.197-23.061-17.797-59.988-54.407-62.778-78.123s-23.018-55.802-39.759-55.802c-16.74 0-69.054 57.197-99.745 66.963-30.692 9.765-55.803 27.9-75.333 22.32-19.531-5.58-82.308-41.851-85.098-53.011 0 0-22.321 239.95-9.766 309.7l30.692-11.16s11.16 69.752 41.851 108.81c30.691 39.061 198.1-110.21 198.1-110.21" style="fill:#465f61"/></g><g clip-path="url(#clipPath5854)" style="opacity:.3"><g transform="translate(729.63 470.12)"><path d="m0 0c4.396-0.734 52.601-10 68.688-2.943 26.564 11.653 36.714 40.294 45.716 65.657 4.257 11.993 8.01 24.147 11.366 36.412-4.799 21.854-7.888 39.01-7.888 41.077 0 0-167.41 149.27-198.1 110.21-30.691-39.061-41.852-108.81-41.852-108.81l-30.691 11.16c-12.555-69.753 9.766-309.7 9.766-309.7 1.086 4.343 11.265 12.491 24.438 21.151-4.288 18.961-8.02 38.395-2.398 57.459 5.057 17.152 15.157 33.317 27.167 46.416 26.411 28.803 56.943 38.066 93.785 31.917"/></g></g><g clip-path="url(#clipPath5870)" style="opacity:.10001"><g transform="translate(642.79 701)"><path d="m0 0c-7.673-10.114-21.029-46.957-26.855-64.87-7.098-21.824-12.206-44.292-16.74-69.403-6.533-36.184-17.813-71.827-15.133-108.95 14.032 28.263 25.714 54.463 45.384 79.787 12.814 16.497 15.163 31.996 15.785 52.723 0.591 19.682 0.82 39.877-3e-3 59.556-0.376 8.996-4.531 28.832-2.438 51.153" style="fill:#fff"/></g></g><g clip-path="url(#clipPath5886)" style="opacity:.10001"><g transform="translate(766.61 385.72)"><path d="m0 0c27.468 0.054 56.189-6.098 83.135 1.816 20.425 5.998 40.952 18.759 53.838 35.385 7.555 9.749 5.164 14.523 18.339 13.951 10.59-0.46 33.356-1.643 44.177-2.325-21.67-21.346-56.315-44.349-74.403-70.218-6.956-9.949-6.331-23.206-10.695-34.411-3.127-8.027-5.116-19.996-12.556-33.946-7.465 8.484-21.633 29.488-31.156 36.736-11.246 8.56-34.876 35.806-112.02 48.362-10.802 1.758-23.177 3.762-34.187 0.89 1.815 2.132 51.631 3.713 75.523 3.76" style="fill:#fff"/></g></g><g transform="translate(945.17 408.04)"><path d="m0 0c-4.549-5.287 25.576-51.152 28.366-65.102 2.79-13.951-9.765-61.382-2.79-64.172 6.975-2.791-3.255-7.441-3.255-7.441s47.431 15.346 55.802 30.691c8.37 15.346 36.168 49.327 90.678 64.173 54.259 14.777 106.21-52.366 95.793-0.93-1.174 5.801-5.115 13.95-8.835 20.46-3.095 5.417 23.251 99.049 13.485 160.43-9.765 61.382-69.752-25.111-85.098-32.086-15.345-6.975-132.53-46.037-184.15-106.02" style="fill:#465f61"/></g><g clip-path="url(#clipPath5906)" style="opacity:.3"><g transform="translate(970.74 278.77)"><path d="m0 0c0.489-0.195 0.874-0.402 1.204-0.613 2.303 0.517 4.442 1.164 6.235 2.111 3.257 1.719 6.137 3.919 8.72 6.458 6.307 10.452 12.023 21.007 15.288 33.758 5.091 19.88 7.808 40.211 15.063 59.504 11.49 30.552 30.85 56.91 58.039 74.968 37.325 38.584 83.847 66.725 131.74 91.604 2.005 2.007 4.048 3.976 6.029 6.007-12.969 48.409-68.99-31.792-83.746-38.499-15.345-6.975-132.53-46.036-184.15-106.02-4.549-5.287 25.576-51.151 28.366-65.102 2.79-13.95-9.765-61.382-2.79-64.172"/></g></g><g clip-path="url(#clipPath5922)" style="opacity:.10001"><g transform="translate(1053.5 359.68)"><path d="m0 0c-4.905 10.336 34.736 41.049 42.781 47.273 20.277 15.687 42.15 28.989 61.552 45.811 17.502 15.176 42.024 30.476 45.399 55.44 0.052-42.93-6.419-84.485-15.948-125.13-9.373-1.437-18.907 3.166-28.255 3.601-15.819 0.736-33.027-3.842-48.215-7.902-19.662-5.255-45.023-11.375-61.542-23.523 2.462 1.376 3.392 3.135 4.228 4.432" style="fill:#fff"/></g></g><g transform="translate(1240.5 282.49)"><path d="m0 0c4.318-1.963 4.65 14.88 0.93 22.321-3.72 7.44-22.786 65.567-27.436 65.567s-119.51 23.716-182.75-51.617c0 0-62.346-21.923-72.543-42.316-0.93-1.86 24.047-37.19 28.366-50.455 6.511-19.995 14.416-35.573 25.111-1.395 6.871 21.958 100.91 66.265 135.32 69.055s72.543-1.86 93.003-11.16" style="fill:#35494a"/></g><g clip-path="url(#clipPath5942)" style="opacity:.3"><g transform="translate(1007.8 213.16)"><path d="m0 0c1.284 5.561 1.687 11.338 0.969 17.284-0.078 0.648-0.202 1.286-0.307 1.929-1.653 3.301-3.057 6.649-4.089 10.031-2.33 3.967-4.273 7.898-5.739 11.579-10.681 26.822 9.349 42.892 31.427 52.132 4.708 4.6 9.886 8.957 15.349 13.061 5.048 4.477 10.413 8.595 15.933 12.496 12.955 10.849 26.683 20.625 42.464 27.6 12.856 5.683 26.997 10.383 41.669 13.623-37.396-3.35-82.421-16.138-114.32-54.138 0 0-62.346-21.924-72.543-42.317-0.93-1.86 24.047-37.189 28.366-50.454 5.608-17.225 12.254-31.141 20.824-12.826"/></g></g><g clip-path="url(#clipPath5958)" style="opacity:.2"><g transform="translate(1064.2 298.3)"><path d="m0 0c1.965 5.534 23.589 35.454 32.319 41.735 12.987 9.345 24.721 15.741 39.759 20.577 19.454 6.257 45.945 5.218 66.527 2.905 10.775-1.212 9.654-5.717 14.049-15.137 5.668-12.147 11.375-24.379 16.629-36.612 2.762-6.431 7.382-14.785 6.888-21.768-5.324-0.835-10.307 3.074-15.903 3.545-18.289 1.54-36.327 4.889-54.556 6.795-19.789 2.07-41.506 5.711-60.918-0.169-12.508-3.789-24.772-8.107-37.083-12.518-5.034-1.804-10.704-5.729-15.514-6.886 10.145 16.394 33.671 24.896 50.029 33.737-9.217 1.159-22.963-5.866-31.126-10.158-4.282-2.251-8.399-4.717-12.38-7.456" style="fill:#fff"/></g></g><g transform="translate(809.85 198.78)"><path d="m0 0s8.37-6.51 17.671-0.93c9.3 5.58 13.95 31.621 16.74 35.341s25.808 38.364 27.669 43.014c1.86 4.65-29.994 50.454-66.265 71.845s-107.42 27.436-127.88 24.646c-20.46-2.79-99.513-55.802-104.16-65.103-4.65-9.3 0.93-22.32 4.65-33.48 3.72-11.161-5.58-13.951-8.37-22.321-2.79-8.371 3.72-39.992 3.72-39.992s11.16 21.391 17.67 32.551c6.511 11.161 24.855 27.377 40.922 39.062 17.903 13.02 49.36 17.404 70.682 14.88 39.294-4.65 58.588-20.535 73.473-30.458 16.74-11.161 32.086-31.389 33.481-69.055" style="fill:#35494a"/></g><g clip-path="url(#clipPath5978)" style="opacity:.3"><g transform="translate(823.52 335.26)"><path d="m0 0c0.416-0.283 0.819-0.572 1.232-0.856-6.105 5.087-12.52 9.777-19.091 13.652-36.271 21.39-107.42 27.436-127.88 24.646-20.461-2.791-99.514-55.802-104.16-65.103-4.65-9.3 0.93-22.321 4.65-33.481s-5.58-13.95-8.37-22.321c-2.79-8.37 3.72-39.991 3.72-39.991s6.149 11.784 11.981 22.423c0.399 1.308 0.987 2.594 1.742 3.848 2.092 8.835 2.739 18.267 7.297 26.272 3.324 5.839 12.93 12.843 12.268 18.789-0.679 6.109-14.138 8.364-12.595 15.393 1.562 7.114 9.851 18.623 15.346 23.019 27.901 22.321 52.089 30.905 79.475 36.246 45.355 10.699 97.254 2.735 134.39-22.536"/></g></g><g clip-path="url(#clipPath5994)" style="opacity:.2"><g transform="translate(663.83 305.74)"><path d="m0 0c11.534 4.955 36.95 1.724 50.017 0.952 19.938-1.179 43.038-8.732 59.727-19.553 20.408-13.232 29.605-30.287 40.545-51.275 1.697-3.255 7.439-17.293 12.281-15.543 3.728 1.347 6.254 22.153 7.884 26.416 3.231 8.447 8.937 11.903 6.3 20.847-2.014 6.832-7.404 12.693-9.229 19.411 7.237-0.426 14.33-3.846 19.223-9.082 0.368 3.447 2.675 6.926 2.115 10.345-1.219 7.435-11.336 17.167-16.135 23.059-10.504 12.898-27.625 25.477-43.192 31.436-22.492 8.609-55.691 14.661-79.576 10.813-15.598-2.512-32.021-9.526-45.323-16.928 13.85-1.054 28.231-0.363 41.934-3.231 10.283-2.151 18.675-8.08 28.537-10.971-18.632 0.319-36.965 1.028-54.621-5.535-7.454-2.772-16.339-10.346-20.487-11.161" style="fill:#fff"/></g></g><g transform="translate(1203.3 801.45)"><path d="m0 0c-1.395-4.185-58.592-104.63-90.678-125.56-32.086-20.925-57.197-46.036-114.39-44.641s-150.66 40.457-157.64 44.641c-6.975 4.186 12.556-181.36 34.877-206.47 22.32-25.11 61.086-32.137 85.795-31.388 23.018 0.697 57.43-2.093 83.936 7.673 26.506 9.765 95.793 39.526 120.44 73.937 18.523 25.863 37.666 281.8 37.666 281.8" style="fill:#465f61"/></g><g clip-path="url(#clipPath6014)" style="opacity:.2"><g transform="translate(901.71 501.05)"><path d="m0 0c-14.09 30.543-10.496 67.599-3.507 99.532 3.33 15.213 8.855 31.728 17.582 45.724 0.202 0.388 0.429 0.763 0.633 1.15-38.45 11.761-71.814 26.004-75.873 28.439-6.975 4.186-43.944-174.38-21.623-199.49 22.32-25.111 117.73-41.094 142.29-38.364 12.556 1.395 21.507-0.465 28.134 0.232-32.569 3.923-73.697 32.552-87.64 62.778"/></g></g><g clip-path="url(#clipPath6030)" style="opacity:.2"><g transform="translate(1156.9 726.46)"><path d="m0 0c0.527-0.746 0.865-1.67 0.888-2.779 0.509-24.698 7.177-48.74 7.818-73.428 0.6-23.068-0.553-46.255-2.362-69.25-1.634-20.771-4.975-41.344-9.664-61.638-1.39-6.014-2.912-11.997-4.511-17.959 7.448 6.867 13.775 13.935 16.491 18.235 16.987 26.897 37.666 281.8 37.666 281.8-0.849-2.547-22.376-40.748-46.326-74.981"/></g></g><g clip-path="url(#clipPath6046)" style="opacity:.10001"><g transform="translate(931.22 629.85)"><path d="m0 0c22.415 1.557 46.444-8.174 69.547-8.365 22.89-0.19 44.594 2.446 66.605 8.365 20.376 5.479 48.494 13.041 64.937 27.407-24.712-29.07-73.783-43.977-110.44-45.47-33.29-1.357-67.874 8.828-90.646 18.063" style="fill:#fff"/></g></g><g clip-path="url(#clipPath6062)" style="opacity:.10001"><g transform="translate(1038.6 606.14)"><path d="m0 0c43.712 1.86 110.72 42.779 119.04 59.522 3.93-28.757 2.342-54.941 0-79.983-2.282-24.406-9.21-61.283-23.251-81.843-25.074-36.718-73.46-49.285-115.32-55.801-16.135-2.513-34.695-4.651-48.361 0.929 14.077-1.942 65.102 50.222 67.892 157.18" style="fill:#fff"/></g></g><g transform="translate(576.41 502.9)"><path d="m0 0s0 140.44 6.51 161.83c6.51 21.39-27.901 103.23-28.831 99.513s-20.926-111.6-24.646-141.36-11.625-86.26 4.185-104.63c8.688-10.093 21.391-19.996 42.782-15.346" style="fill:#35224f"/></g><g transform="translate(1467.4 1086.4)"><path d="m0 0c5.58 9.287 96.723 228.46 96.723 228.46l110.67-80.796-106.95-240.53z" style="fill:#9e9a86"/></g><g transform="translate(913.08 1154.9)"><path d="m0 0c-2.647 0.882 33.481-190.66 36.271-194.38s85.563-79.053 88.353-73.472c2.79 5.58 75.333 139.5 75.333 144.16 0 4.65 14.88 163.68 9.3 163.68s-206.47-40.921-209.26-39.991" style="fill:#785634"/></g><g clip-path="url(#clipPath6090)" style="opacity:.39999"><g transform="translate(982.82 1078.1)"><path d="m0 0c3.352 5.939 10.103 4.416 13.336 0.148 1.442-0.29 2.869-0.924 4.166-2.077 5.702-5.064 10.951-10.58 16.312-15.985 2.566 6.128 5.345 12.151 8.735 17.914 2.498 4.249 7.78 4.344 11.628 2.347 12.471-6.471 25.153-12.519 37.357-19.48 14.642 2.525 28.552 7.402 42.204 13.103 4.008 48.528 9.54 120.76 5.779 120.76-5.58 0-206.47-40.922-209.26-39.992-1.509 0.504 9.59-61.563 19.927-115.7 1.853 1.307 3.712 2.608 5.579 3.901 13.904 9.628 35.64 19.832 44.234 35.057"/></g></g><g transform="translate(1329.7 1093.5)"><path d="m0 0s8.836-6.743 9.301-11.161c0.978-9.295-16.741-172.06-23.251-178.57-6.51-6.51-30.459-27.901-43.479-21.39-13.021 6.51-8.603 212.98 57.429 211.12" style="fill:#37264f"/></g><g transform="translate(852.63 674.96)"><path d="m0 0c3.72-2.79 92.82-55.714 172.99-41.851 61.847 10.695 127.88 29.295 162.29 108.35 32.04 73.604-85.562 377.59-85.562 377.59s-66.498-24.646-68.358-30.226c0 0 12.301-37.78 11.161-55.802-2.325-36.737-14.881-101.37-14.881-101.37s-24.779 152.67-32.551 155.78c-4.65 1.861-53.942-2.325-92.073 5.116-38.132 7.44-53.012-417.58-53.012-417.58" style="fill:#b7e2d5"/></g><g clip-path="url(#clipPath6114)" style="opacity:.2"><g transform="translate(1098.6 1117.6)"><path d="m0 0c4.182-5.666 8.038-12.254 11.591-19.45-4.857 13.18-7.827 20.86-7.827 20.86s-1.407-0.522-3.764-1.41" style="fill:#fff"/></g></g><g clip-path="url(#clipPath6130)" style="opacity:.5"><g transform="translate(1073 680.54)"><path d="m0 0c64.172 61.382 35.782 242.38 26.296 309.28-5.343 37.686-13.752 64.777-20.845 82.445-7.022 17.494-33.312 10.843-31.18-7.887 0.012-0.107 0.025-0.213 0.037-0.318 3.407-29.369 4.246-57.053-0.488-86.375-5.776-35.788-15.855-69.819-30.306-103.05-20.81-47.86-100.81-165.64-103.01-189.44-0.98-10.551 10.695-23.716 23.715-27.901 44.174-14.199 102.31-8.77 135.78 23.251" style="fill:#fff"/></g></g><g clip-path="url(#clipPath6146)" style="opacity:.2"><g transform="translate(887.83 689.38)"><path d="m0 0c10.506 30.479 20.23 61.377 26.831 92.965 11.966 57.267 4.665 120.65 37.155 172.11 15.392 24.378 36.843 44.441 52.815 68.459 2.56 3.849 4.971 7.769 7.222 11.764-5.642 28.24-11.145 51.556-14.134 52.751-4.65 1.86-53.941-2.325-92.073 5.116-38.131 7.44-53.012-417.58-53.012-417.58 1.173-0.88 10.845-6.745 26.036-13.928 2.644 9.587 5.947 19.03 9.16 28.35"/></g></g><g clip-path="url(#clipPath6162)" style="opacity:.3"><g transform="translate(1101.6 1119.7)"><path d="m0 0s-15.985-5.962-32.5-12.699c2.573-6.342 4.427-13.051 7.718-19.026 53.845-97.782 71.516-237.29 74.94-307.55 1.355-27.801 1.226-46.92-3.195-82.75-0.738-5.98-2.218-11.824-3.577-17.666 16.562 14.772 31.037 34.095 42.177 59.84 32.039 74.044-85.563 379.85-85.563 379.85"/></g></g><g clip-path="url(#clipPath6178)" style="opacity:.2"><g transform="translate(1163.6 1013.7)"><path d="m0 0 28.786-38.634c-2.309 4.42-4.643 8.819-7.019 13.179-6.035 11.073-12.302 22.042-18.983 32.744-6.821 9.088-13.888 17.99-21.261 26.643l-0.147-0.22c6.503-11.08 12.834-22.253 18.624-33.712" style="fill:#fff"/></g></g><g clip-path="url(#clipPath6194)" style="opacity:.3"><g transform="translate(1064.6 1118.1)"><path d="m0 0c-0.727 3.679-1.284 6.511-1.656 8.406-0.178 0.221-0.387 0.49-0.543 0.682-0.071 0.086 1.866-7.613 2.199-9.088"/></g></g><g clip-path="url(#clipPath6210)" style="opacity:.39999"><g transform="translate(780.4 1131)"><path d="m0 0c12.341-5.79 27.222-6.52 39.008-12.842 3.503-1.878 5.106-4.066 7.388-7.251 4.78-6.671 9.541-12.434 15.328-18.293 8.04-8.138 15.876-16.214 24.625-23.389-0.549 7.099 0.393 14.346 3.078 20.817 1.273 3.067 4.352 3.971 7.197 2.458 7.543-4.011 13.053-9.947 19.112-15.808 4.301-4.161 8.959-7.532 13.724-10.796-1.88 5.721-3.84 11.414-5.986 17.049-1.348 3.542 1.728 8.328 5.863 6.615 9.989-4.137 18.566-10.672 28.282-15.41-5.038 45.076-10.985 85.386-10.985 85.386l-183.22 92.073c0-1.755 1.565-55.871 2.725-99.709 7.548-9.203 25.263-16.867 33.858-20.9"/></g></g><g transform="translate(1391.6 1079.1)"><path d="m0 0s-76.263-3.72-81.843-5.115-18.601-45.107-22.786-92.538c-4.185-47.432-4.185-62.777-4.185-62.777s57.197 6.975 87.888 26.506c30.691 19.53 61.382 41.851 66.962 39.061s33.488-14.451 53.012-13.95c18.136 0.464 42.494 16.315 49.06 20.693 11.16 7.44 36.038 7.207 43.013 5.812 6.976-1.395 26.971-1.86 31.156 13.486 4.779 17.519-1.162 25.11-1.162 25.11s11.852-4.19 21.158 5.116c7.441 7.44 15.811 23.716 3.256 52.547-3.389 7.78 33.945 35.806 36.736 52.547 2.79 16.74-2.326 36.271-22.786 35.806-5.579-0.127-9.765-13.021-12.556-18.601-2.79-5.58-29.296-46.036-29.296-46.036s-19.53 0-23.715-9.766l-4.186-9.765s1.395-32.086 6.976-37.667c0 0-27.901 9.766-33.481-5.58l-5.58-15.345 8.37-27.901-11.161-2.325-55.337 46.501s12.091 13.021 9.3 54.872c0 0 48.174 36.286 19.531 72.543-27.552 34.876-45.571 6.045-50.222-11.161-2.934-10.857 0-23.715-11.16-30.691-11.16-6.975-44.641-13.95-53.012-25.111-8.37-11.16-13.95-36.271-13.95-36.271" style="fill:#b0783e"/></g><g transform="translate(571.3 734.48)"><path d="m0 0c0-0.771 0.312-1.395 0.697-1.395 0.386 0 0.698 0.624 0.698 1.395s-0.312 1.395-0.698 1.395c-0.385 0-0.697-0.624-0.697-1.395" style="fill:#877057"/></g><g clip-path="url(#clipPath6234)" style="opacity:.2"><g transform="translate(1674.8 1233.9)"><path d="m0 0-110.67 80.913h-14.88s32.808-25.064 49.908-36.026c18.372-11.778 45.962-33.671 61.696-44.887 3.662 0.174 12.042-0.423 13.95 0" style="fill:#fff"/></g></g><g transform="translate(1549.2 1314.8)"><path d="m0 0s-24.247-58.56-48.594-117.18c18.6-3.953 26.617-32.148 21.22-49.943-2.071-6.833-5.268-13.143-9.153-19.081-3.376-6.823-7.614-13.272-12.253-19.055 1.895-10.266-1.018-21.717-4.062-31.484-2.526-8.103-5.991-15.495-10.238-22.331l67.73-62.713 7.678 17.291c-1.429 1.692-2.725 3.454-3.814 5.289-2.904 4.092-4.648 8.61-4.369 13.393 0.066 1.13 0.26 2.21 0.535 3.253 2e-3 0.017 2e-3 0.034 5e-3 0.051 0.028 0.197 0.073 0.372 0.105 0.565 0.164 3.877 1.885 7.109 4.564 9.676 0.012 0.011 0.024 0.021 0.036 0.032 4.937 4.706 13.026 7.142 20.451 7.185l7.379 16.618c-5.912 15.304-6.974 32.713 6.928 41.47 0.815 0.514 6.058 3.718 8.512 4.747 1.82 0.763 3.754 1.238 5.736 1.476l53.208 119.83z" style="fill:#383522"/></g><g transform="translate(1553.3 1297.2)"><path d="m0 0s-22.115-53.804-43.17-104.47c12.152-8.427 16.1-30.651 11.731-45.057-2.07-6.826-5.261-13.129-9.141-19.062-3.376-6.831-7.62-13.285-12.266-19.075 1.618-8.764-0.27-18.384-2.753-27.091l55.881-51.743c0.089 0.52 0.2 1.031 0.332 1.533 2e-3 0.017 3e-3 0.033 5e-3 0.05 0.028 0.198 0.073 0.373 0.105 0.566 0.164 3.877 1.885 7.109 4.564 9.675 0.012 0.012 0.024 0.021 0.036 0.032 2.021 1.926 4.571 3.475 7.386 4.638l16.364 36.854c-0.48 9.297 2.24 17.861 10.36 23.332l54.153 121.96z" style="fill:#bab9b1"/></g><g transform="translate(1660.8 1236.9)"><path d="m0 0h13.95l-110.67 75h-14.881z" style="fill:#57554a"/></g><g transform="translate(1621 1112.2)"><path d="M 0,0 53.789,121.733 H 39.838 L -13.369,1.901 C -8.936,2.431 -4.257,1.71 0,0" style="fill:#403732"/></g><g transform="translate(1581 1049.8)"><path d="m0 0c4.348-0.225 8.039-1.237 11.166-2.851l1.973 4.466c-2.87 4.42-5.578 9.582-7.676 15.015l-7.379-16.618c0.642 4e-3 1.287 0.021 1.916-0.012" style="fill:#403732"/></g><g transform="translate(1561.6 1010.3)"><path d="m 0,0 -7.677,-17.291 14.88,0.93 3.136,7.096 C 6.48,-6.612 2.932,-3.472 0,0" style="fill:#403732"/></g><g clip-path="url(#clipPath6274)" style="opacity:.10001"><g transform="translate(1612.5 1114.4)"><path d="m0 0c1.749-0.229 3.467-0.661 5.164-1.153 0.581-0.133 1.156-0.29 1.721-0.496 0.295-0.108 0.561-0.237 0.812-0.377 0.349-0.077 0.642-0.154 0.827-0.229l10.779 24.395c-6.894-4.698-13.679-9.557-20.338-14.605-1.244-2.61-2.493-5.223-3.811-7.889 0.028-5e-3 0.074-0.012 0.106-0.017 1.562 0.196 3.054 0.591 4.74 0.371" style="fill:#fff"/></g></g><g clip-path="url(#clipPath6290)" style="opacity:.10001"><g transform="translate(1644.2 1164.7)"><path d="m0 0 19.602 44.363c-7.16-4.781-14.174-9.76-21.071-14.894-6.437-15.098-12.008-28.691-17.71-42.006 6.336 4.262 12.729 8.442 19.179 12.537" style="fill:#fff"/></g></g><g transform="translate(1514.1 1048.3)"><path d="m0 0c-4.143-4.085-11.229-3.615-15.827 1.049-4.598 4.663-4.966 11.756-0.823 15.84 4.143 4.085 11.229 3.615 15.827-1.049s4.966-11.756 0.823-15.84" style="fill:#1f1d1a"/></g><g transform="translate(1512.7 1049.8)"><path d="m0 0c-3.415-3.366-9.255-2.98-13.044 0.864-3.79 3.844-4.094 9.689-0.679 13.056 3.415 3.366 9.255 2.979 13.044-0.865 3.79-3.844 4.094-9.689 0.679-13.055" style="fill:#403732"/></g><g clip-path="url(#clipPath6314)" style="opacity:.2"><g transform="translate(1582.4 1084.5)"><path d="m0 0c-0.037 0.904-0.047 1.802-0.02 2.689 0.01 0.326 0.037 0.645 0.056 0.968 0.043 0.745 0.105 1.484 0.198 2.213 0.04 0.321 0.089 0.64 0.139 0.958 0.115 0.725 0.263 1.437 0.432 2.141-7.295 17.556-12.93 36.118-19.881 53.786-8.349 21.219-16.254 42.613-23.462 64.248-4.985 14.964-9.84 29.993-14.615 45.04-7.631-18.477-15.901-38.025-24.578-58.918 3.811-0.174 6.708-2.942 9.59-4.965 0.659-0.464 1.292-0.972 1.902-1.514 0.093-0.082 0.188-0.16 0.279-0.244 0.624-0.571 1.221-1.181 1.793-1.827 0.08-0.091 0.158-0.186 0.238-0.279 1.162-1.35 2.214-2.846 3.155-4.458 0.063-0.109 0.127-0.217 0.189-0.326 0.461-0.812 0.899-1.647 1.305-2.51 0.025-0.052 0.048-0.106 0.072-0.158 0.401-0.86 0.774-1.743 1.12-2.646 0.023-0.06 0.048-0.118 0.071-0.178 0.344-0.91 0.658-1.84 0.947-2.784 0.04-0.128 0.077-0.257 0.116-0.386 0.565-1.9 1.019-3.856 1.363-5.836 0.023-0.138 0.049-0.274 0.071-0.412 0.16-0.964 0.294-1.933 0.401-2.904 0.015-0.139 0.027-0.278 0.041-0.417 0.097-0.945 0.173-1.891 0.22-2.833 3e-3 -0.058 8e-3 -0.115 0.011-0.173 0.045-0.963 0.057-1.92 0.051-2.873-2e-3 -0.185-4e-3 -0.37-7e-3 -0.555-0.017-0.938-0.055-1.869-0.122-2.787-8e-3 -0.109-0.021-0.215-0.029-0.323-0.069-0.854-0.162-1.697-0.275-2.527-0.02-0.149-0.037-0.3-0.059-0.448-0.128-0.871-0.282-1.725-0.459-2.561-0.037-0.175-0.077-0.348-0.117-0.521-0.192-0.852-0.402-1.691-0.646-2.498-0.518-1.707-1.106-3.382-1.757-5.026-0.229-0.578-0.507-1.133-0.752-1.704-0.45-1.053-0.886-2.113-1.386-3.142-0.231-0.475-0.5-0.93-0.741-1.399-0.564-1.101-1.122-2.206-1.738-3.281-0.217-0.379-0.463-0.744-0.686-1.119-0.68-1.146-1.362-2.894-2.094-4.013-3.207-6.482-6.596-10.875-10.905-18.473v0.012c0-5e-3 -1e-3 -9e-3 -1e-3 -0.014-0.225-0.398-0.442-0.765-0.673-1.181h0.58c-0.084-0.811-0.183-1.625-0.118-2.446 0.033-0.41-0.3-0.825-0.28-1.237 0.04-0.827-0.099-1.655-0.107-2.49-5e-3 -0.486-0.11-0.974-0.13-1.462-0.031-0.77-0.116-1.542-0.182-2.315-0.043-0.512-0.112-1.025-0.17-1.537-0.084-0.756-0.196-1.511-0.308-2.266-0.076-0.515-0.153-1.029-0.241-1.542-0.129-0.761-0.281-1.519-0.434-2.275-0.1-0.499-0.192-0.999-0.3-1.495-0.175-0.796-0.371-1.584-0.564-2.372-0.292-1.188-0.598-2.363-0.921-3.526-0.503-1.81-1.025-3.596-1.561-5.317-2.526-8.104-5.99-15.495-10.238-22.331l67.73-62.713 14.881 0.93 3.135 7.096c-3.858 2.653-7.406 5.792-10.338 9.265-1.429 1.691-2.725 3.453-3.814 5.289-2.903 4.091-4.648 8.61-4.369 13.393 0.066 1.13 0.26 2.21 0.535 3.253 2e-3 0.017 3e-3 0.033 5e-3 0.05 0.028 0.198 0.073 0.373 0.105 0.566 0.164 3.877 1.885 7.109 4.564 9.676 0.012 0.011 0.024 0.02 0.036 0.032 0.57 0.543 1.192 1.049 1.84 1.531 0.2 0.149 0.414 0.285 0.621 0.428 0.474 0.329 0.96 0.647 1.466 0.945 0.234 0.138 0.473 0.27 0.713 0.401 0.546 0.298-0.306 0.474 0.269 0.738 0.192 0.088 1.794 0.285 1.989 0.37 4.18 1.807 8.989 2.745 13.553 2.772 0.642 3e-3 1.287 0.02 1.916-0.013 4.348-0.225 8.039-1.236 11.166-2.851l1.973 4.466c-2.87 4.42-5.577 9.583-7.676 15.015-2.294 5.938-3.84 12.187-4.083 18.13" style="fill:#fff"/></g></g><g clip-path="url(#clipPath6330)" style="opacity:.2"><g transform="translate(1064.3 955.01)"><path d="m0 0c0.075 0.132 0.134 0.28 0.206 0.415 0.297 0.554 0.571 1.135 0.818 1.746 0.101 0.25 0.19 0.508 0.282 0.768 0.198 0.555 0.372 1.129 0.526 1.722 0.066 0.257 0.246 0.508 0.304 0.771 0.187 0.852 0.537 1.725 0.537 2.634v-0.133h-0.109c0.088 1 0.048 1.882 0.023 2.762-8e-3 0.312-0.068 0.643-0.089 0.949-0.04 0.546-0.105 1.098-0.185 1.621-0.057 0.375-0.131 0.746-0.208 1.108-0.084 0.395-0.187 0.78-0.295 1.158-0.118 0.42-0.236 0.837-0.38 1.232-0.064 0.172-0.143 0.329-0.211 0.497-1.436 3.548-3.915 6.016-6.97 6.307-1.598 0.152-3.145-0.357-4.571-1.282-0.026-0.017-0.051-0.035-0.077-0.052-0.508-0.337-0.995-0.72-1.463-1.172-0.071-0.068-0.138-0.145-0.209-0.217-0.415-0.421-0.814-0.867-1.188-1.371-0.121-0.163-0.23-0.345-0.347-0.517-0.308-0.454-0.611-0.911-0.882-1.419-0.161-0.298-0.295-0.627-0.442-0.943-0.2-0.435-0.41-0.857-0.581-1.322-0.179-0.479-0.314-0.994-0.459-1.502-0.102-0.356-0.225-0.693-0.309-1.061-0.207-0.905-0.365-1.842-0.457-2.813-0.085-0.889-0.096-1.754-0.075-2.607 6e-3 -0.257 0.019-0.507 0.033-0.76 0.038-0.628 0.105-1.241 0.197-1.84 0.05-0.334 0.104-0.661 0.17-0.984 0.115-0.554 0.249-1.095 0.409-1.614 0.128-0.425 0.277-0.825 0.433-1.224 0.073-0.183 0.15-0.359 0.228-0.535 1.457-3.345 3.864-5.655 6.811-5.936 1.284-0.122 2.543 0.16 3.729 0.749 0.208 0.103 0.403 0.251 0.606 0.373 0.331 0.2 0.658 0.41 0.973 0.659 0.224 0.177 0.438 0.371 0.654 0.571 0.291 0.271 0.571 0.564 0.845 0.875 0.185 0.211 0.372 0.412 0.548 0.641 0.417 0.54 0.815 1.116 1.175 1.746"/></g></g><g transform="translate(1068.7 965.94)"><path d="m0 0c-0.694-7.286-5.143-12.823-9.937-12.366-4.793 0.456-8.117 6.733-7.423 14.02 0.695 7.286 5.143 12.823 9.937 12.366 4.794-0.456 8.117-6.733 7.423-14.02" style="fill:#fff592"/></g><g clip-path="url(#clipPath6350)" style="opacity:.7"><g transform="translate(1063.8 979)"><path d="m0 0c1.461-3.24 1.953-7.316 1.937-10.323-0.025-4.914-1.082-10.268-3.691-14.424 3.354 1.666 6.038 6.169 6.564 11.69 0.558 5.855-1.501 11.002-4.81 13.057" style="fill:#fff"/></g></g><g clip-path="url(#clipPath6366)" style="opacity:.2"><g transform="translate(1055.1 968)"><path d="m0 0c0.781 3.98 2.238 8.724 5.14 11.903-4.393-0.345-8.287-5.538-8.932-12.309-0.475-4.988 0.959-9.453 3.432-11.951-0.999 3.969-0.378 8.597 0.36 12.357"/></g></g><g clip-path="url(#clipPath6382)" style="opacity:.2"><g transform="translate(1067.1 1005)"><path d="m0 0c0.075 0.126 0.134 0.268 0.206 0.397 0.297 0.53 0.57 1.085 0.818 1.669 0.101 0.24 0.189 0.486 0.282 0.734 0.198 0.532 0.372 1.08 0.526 1.647 0.066 0.246 0.351 0.486 0.408 0.738 0.188 0.815-0.357 1.649 0.643 2.518v0.245h-0.214c0.088 1-5e-3 1.614-0.029 2.455-9e-3 0.298-0.095 0.522-0.116 0.815-0.04 0.522-0.118 1.003-0.198 1.503-0.057 0.359-0.138 0.691-0.214 1.037-0.085 0.378-0.191 0.734-0.299 1.095-0.117 0.401-0.237 0.795-0.381 1.173-0.064 0.164-0.144 0.312-0.213 0.471-1.435 3.394-3.914 5.752-6.969 6.03-1.599 0.146-3.146-0.342-4.572-1.226-0.026-0.016-0.051-0.034-0.077-0.05-0.508-0.322-0.995-0.689-1.463-1.121-0.072-0.065-0.138-0.139-0.209-0.207-0.415-0.404-0.814-0.83-1.188-1.312-0.122-0.156-0.23-0.33-0.347-0.493-0.309-0.435-0.611-0.872-0.882-1.358-0.161-0.286-0.295-0.599-0.442-0.902-0.2-0.416-0.41-0.819-0.581-1.264-0.179-0.458-0.314-0.95-0.459-1.436-0.102-0.341-0.225-0.662-0.309-1.015-0.207-0.865-0.365-1.761-0.458-2.69-0.084-0.85-0.095-1.677-0.074-2.492 6e-3 -0.246 0.018-0.486 0.033-0.727 0.038-0.601 0.105-1.187 0.197-1.759 0.05-0.32 0.104-0.633 0.17-0.942 0.115-0.53 0.248-1.046 0.408-1.543 0.129-0.407 0.278-0.789 0.434-1.171 0.073-0.174 0.15-0.343 0.228-0.512 1.457-3.198 3.864-5.407 6.811-5.675 1.284-0.117 2.543 0.152 3.729 0.716 0.208 0.098 0.403 0.239 0.606 0.357 0.331 0.191 0.657 0.391 0.973 0.63 0.224 0.169 0.438 0.354 0.654 0.545 0.291 0.259 0.571 0.539 0.844 0.837 0.186 0.202 0.373 0.394 0.549 0.613 0.417 0.516 0.815 1.067 1.175 1.67"/></g></g><g transform="translate(1071.9 1018.5)"><path d="m0 0c-0.48-7.304-4.764-12.969-9.569-12.653s-8.311 6.492-7.831 13.796c0.479 7.303 4.763 12.968 9.568 12.653 4.805-0.316 8.312-6.492 7.832-13.796" style="fill:#fff592"/></g><g clip-path="url(#clipPath6402)" style="opacity:.7"><g transform="translate(1065.4 1032)"><path d="m0 0c1.253-1.942 2.204-4.117 2.702-5.664 2.208-6.855 1.085-13.541-2.037-19.481 3.117 1.904 5.494 6.323 5.844 11.642 0.434 6.608-2.408 12.246-6.509 13.503" style="fill:#fff"/></g></g><g clip-path="url(#clipPath6418)" style="opacity:.2"><g transform="translate(1059.8 1012.7)"><path d="m0 0c-1.028 6.267 0.112 13.7 2.868 17.626 0.495 0.706 1.103 1.302 1.754 1.836-0.136 0.019-0.261 0.079-0.398 0.088-4.806 0.316-9.09-5.349-9.569-12.653-0.441-6.715 2.504-12.419 6.714-13.548-0.957 1.971-1.315 4.326-1.369 6.651"/></g></g><g clip-path="url(#clipPath6434)" style="opacity:.2"><g transform="translate(1067.2 1062.9)"><path d="m0 0c0.027 0.15 0.033 0.31 0.056 0.462 0.095 0.625 0.158 1.266 0.184 1.926 0.011 0.271 7e-3 0.544 6e-3 0.819-2e-3 0.591-0.033 1.189-0.091 1.797-0.025 0.264 0.09 0.524 0.054 0.791-0.117 0.862-0.373 1.732-0.373 2.61v-0.418h-0.135c-0.237 1-0.604 1.938-0.937 2.748-0.118 0.287-0.287 0.658-0.416 0.934-0.23 0.494-0.485 1.026-0.747 1.484-0.187 0.328-0.388 0.667-0.59 0.977-0.221 0.337-0.456 0.668-0.694 0.98-0.262 0.347-0.523 0.697-0.803 1.012-0.123 0.137-0.255 0.257-0.38 0.388-2.646 2.776-5.932 4.164-9.015 3.311-1.613-0.446-2.943-1.489-4.01-2.874-0.019-0.025-0.037-0.051-0.057-0.076-0.377-0.501-0.718-1.037-1.016-1.629-0.046-0.091-0.084-0.187-0.128-0.279-0.257-0.546-0.49-1.107-0.677-1.714-0.062-0.197-0.104-0.406-0.158-0.609-0.141-0.537-0.276-1.073-0.362-1.646-0.053-0.338-0.068-0.692-0.1-1.041-0.043-0.479-0.099-0.949-0.104-1.445-6e-3 -0.512 0.043-1.041 0.08-1.568 0.026-0.368 0.024-0.727 0.071-1.101 0.116-0.919 0.291-1.85 0.542-2.788 0.229-0.859 0.522-1.669 0.841-2.455 0.096-0.237 0.197-0.466 0.3-0.696 0.258-0.571 0.538-1.117 0.838-1.641 0.166-0.293 0.333-0.578 0.511-0.855 0.307-0.473 0.627-0.927 0.966-1.352 0.274-0.349 0.56-0.666 0.852-0.981 0.135-0.143 0.272-0.279 0.41-0.414 2.597-2.579 5.756-3.845 8.73-3.023 1.296 0.359 2.425 1.084 3.375 2.069h1e-3c0.166 0.173 0.304 0.382 0.46 0.571 0.252 0.308 0.497 0.623 0.718 0.971 0.156 0.247 0.297 0.506 0.437 0.772 0.19 0.36 0.36 0.735 0.518 1.126 0.107 0.264 0.218 0.52 0.31 0.798 0.217 0.657 0.403 1.339 0.533 2.059"/></g></g><g transform="translate(1066.9 1073.6)"><path d="m0 0c2.034-7.031-0.068-13.815-4.694-15.153s-10.024 3.278-12.057 10.309c-2.034 7.031 0.068 13.816 4.694 15.153 4.626 1.338 10.024-3.278 12.057-10.309" style="fill:#fff592"/></g><g clip-path="url(#clipPath6454)" style="opacity:.7"><g transform="translate(1066.9 1073.6)"><path d="m0 0c-1.558 5.39-5.093 9.28-8.742 10.224 3.465-3.923 4.887-9.863 5.301-15.193 0.296-3.809-0.292-7.181-1.534-10.239 0.093 0.021 0.188 0.028 0.281 0.055 4.626 1.338 6.728 8.122 4.694 15.153" style="fill:#fff"/></g></g><g clip-path="url(#clipPath6470)" style="opacity:.2"><g transform="translate(1054.1 1076.4)"><path d="m0 0c-0.082 2.515 0.265 5.344 1.489 7.617-0.25-0.038-0.505-0.027-0.752-0.098-4.626-1.338-6.727-8.122-4.694-15.154 2.033-7.031 7.431-11.647 12.057-10.309 0.452 0.131 0.859 0.354 1.261 0.584-6.506 2.575-9.15 10.919-9.361 17.36"/></g></g><g transform="translate(1119.6 1186.5)"><path d="m0 0c-8.37 33.481 65.567-8.37 101.84-32.086 36.271-23.716 50.221-41.852 50.221-41.852s-68.357-124.16-62.777-139.5c5.58-15.345 34.876-54.406 48.827-142.29 13.95-87.888-1.395-273.9-1.395-273.9s-9.766-12.09-38.132-31.621c-12.846-8.845-58.592-32.551-58.592-32.551s14.416 109.28 13.021 127.41c-1.395 18.136 0 166.01-4.185 182.75-4.186 16.741 13.95 129.74 26.506 168.8l-53.012 71.148 30.691 46.037-66.962 61.382z" style="fill:#472e6a"/></g><g clip-path="url(#clipPath6490)" style="opacity:.10001"><g transform="translate(1186.5 911.65)"><path d="m0 0c2.102-32.461 5.005-64.65 3.683-97.115-1.392-34.193-1.611-68.378-2.421-102.58-0.794-33.502-1.728-67.86 5.738-100.76 4.901-21.601 7.997-48.881 37.293-50.044 5.372-0.213 20.698 13.544 20.577 30.343-0.698 96.955 14.718 162.15-8.273 254.5-8.56 34.388-21.347 68.048-36.524 100.38-4.051 8.631-32.145 48.053-34.256 38.755-0.025-0.112 13.562-63.891 14.183-73.473" style="fill:#fff"/></g></g><g clip-path="url(#clipPath6506)" style="opacity:.2"><g transform="translate(1144.4 1114.7)"><path d="m0 0c0.436 8.231 2.238 16.169 5.951 23.471 0.417 0.82 0.87 1.601 1.331 2.373 4.03 9.294 11.476 19.532 21.248 17.228 5.936 2.25 12.396 3.459 18.942 3.793 6.024 0.307 12.724 0.118 19.498-0.724-38.255 23.899-99.447 56.296-91.79 25.67l-13.951-36.271z"/></g></g><g clip-path="url(#clipPath6522)" style="opacity:.2"><g transform="translate(1240.1 548.34)"><path d="m0 0c-69.399-53.805-65.642 30.724-70.329 36.873-3.603-31.609-10.23-92.538-10.23-92.538s45.746 23.706 58.592 32.551c28.366 19.531 38.131 31.622 38.131 31.622s0.488 5.918 1.208 16.104c-4.257-9.338-9.354-18.396-17.372-24.612"/></g></g><g clip-path="url(#clipPath6538)" style="opacity:.2"><g transform="translate(1203.3 989.31)"><path d="m0 0c-4.534 20.344-8.618 32.344-12.464 41.885-3.398 8.429-17.126 31.765-22.412 38.795 29.993-21.623 57.894-8.37 70.798 13.951-11.077-14.292-17.761-36.341-26.157-53.71-6.374-13.187-9.493-26.547-9.416-42.723 0.144-1.157 0.065 1.504-0.349 1.802"/></g></g><g transform="translate(1329.5 1092.7)"><path d="m0 0c4.342 1.665-32.147 27.735-39.588 24.946-7.44-2.791-18.6 9.3-26.97 0.93-8.371-8.371-66.212-94.682-58.592-134.86 5.525-29.131 27.405-67.889 32.346-82.628 1.892-5.646 7.272-9.255 8.868-14.977l6.217 0.881s27.901-12.09 30.691-2.79c2.79 9.301-1.682 80.73 10.408 124.44 12.091 43.712 22.499 78.637 36.62 84.052" style="fill:#634094"/></g><g clip-path="url(#clipPath6558)" style="opacity:.2"><g transform="translate(1246.8 941.08)"><path d="m0 0c-12.453 1.46-24.092 6.573-33.723 14.144 8.615-22.129 20.194-43.939 23.625-54.173 1.892-5.647 6.109-8.791 7.706-14.512l7.379 0.416s27.901-12.091 30.691-2.79c1.682 5.607 0.732 33.804 2.356 64.886-11.413-6.576-24.965-9.503-38.034-7.971"/></g></g><g clip-path="url(#clipPath6574)" style="opacity:.2"><g transform="translate(1249.8 1089.8)"><path d="m0 0c-3.851-9.377-14.952-21.42-6.045-29.761 7.779 6.299 18.237 20.259 29.74 21.364 2.703-6.109-3.601-15.012-2.761-21.637 1.103-8.692 5.154-1.895 10.268-0.44 4.816-4.592 2.075-17.106 5.444-23.175 5.973 4.129 8.324 16.855 10.895 23.397 2.938 7.476 5.342 13.558 9.889 20.254 2.441 3.596 8.415 9.51 9.998 13.486 3.043 7.646-8.371 14.415-17.206 16.973-7.818 2.263-11.626 0.232-18.833 3.487-21.158 9.556-29.583-19.551-31.389-23.948" style="fill:#fff"/></g></g><g clip-path="url(#clipPath6590)" style="opacity:.10001"><g transform="translate(752.65 1101.4)"><path d="m0 0c13.95-15.346 65.128-44.608 79.053-54.407 15.601-10.978 31.521-18.604 43.339-33.484-10.281-20.497-24.913-40.047-39.058-57.429 11.921-5.874 16.135-19.1 22.177-30.359 10.604-19.76 16.719-40.234 21.981-61.925 5.201-21.436 9.996-42.004 13.383-63.94 2.612-16.916-0.648-39.25 7.258-54.152 3.744 52.876 10.902 105.57 13.316 158.81 1.384 30.516 2.605 65.847-6.133 95.524-15.44 52.433-139.97 96.25-155.32 101.36" style="fill:#fff"/></g></g><g transform="translate(1062.4 1127.2)"><path d="m0 0c5.98-7.317 27.203-36.271 46.254-87.798 15.36-41.543 28.208-84.085 37.968-127.32 5.019-22.237 21.967-191.41 25.289-211.07 0.282 4.224 0.698 24.583 0.698 30.691 0 5.58-5.58 147.88 22.321 239.95 0 0-18.834 38.364-44.642 70.45 0 0 24.413 42.549 28.598 44.642 0 0-39.061 52.314-71.845 74.635-32.783 22.32-44.641-32.086-44.641-32.086s0.797-4.086 2.251-11.443c0.078-0.097-2.33 9.446-2.251 9.35" style="fill:#634094"/></g><g clip-path="url(#clipPath6610)" style="opacity:.3"><g transform="translate(1166.3 750.62)"><path d="m0 0c-0.238 15.816-1.166 31.609-2.412 47.375-2.348 29.71-5.711 59.329-7.911 89.052-0.061 0.825 0.071 1.565 0.325 2.224-0.896 8.253-1.8 16.504-2.662 24.765-2.758 26.448-6.359 52.117-15.449 77.251-7.373 20.384-16.767 39.95-24.99 59.991-5.824 14.194-16.467 33.298-10.838 49.159 2.155 6.072 6.592 10.994 10.994 15.545 7.142 7.385 13.515 15.172 20.054 22.945-8.694 8.558-17.777 16.548-26.43 22.44-32.784 22.32-44.642-32.086-44.642-32.086s0.189-0.97 0.543-2.774c6.591-8.231 27.16-36.941 45.711-87.117 15.36-41.543 28.208-84.085 37.968-127.32 3.614-16.013 13.413-108.2 19.856-165.9-0.049 1.491-0.095 2.978-0.117 4.447"/></g></g><g clip-path="url(#clipPath6626)" style="opacity:.10001"><g transform="translate(1133.2 1133.5)"><path d="m0 0c1.75 0.834 21.923-22.172 25.46-26.506 5.166-6.33 12.312-11.721 16.043-19.531-4.777-10.507-12.853-20.762-19.813-30.368-8.321-11.483-10.217-15.001-1.811-25.898 12.556-16.276 20.963-31.156 31.156-47.432 9.975-15.927 0.489-33.899-3.254-51.152-3.443-15.866-6.5-34.089-7.707-50.164-1.099-14.638-1.129-27.494-2.989-54-4.414 14.38-2.858 41.701-3.953 56.67-1.078 14.748-1.619 29.713-3.625 44.367-2.973 21.714-7.239 42.56-12.944 63.661-5.548 20.52-12.118 40.399-17.103 61.047-4.224 17.495-4.691 34.768-4.691 52.658 0 7.569 1.743 16.185 5.231 26.648" style="fill:#fff"/></g></g><g transform="translate(904.71 698.21)"><path d="m0 0c-4.185 25.111-25.111 239.95-46.037 253.9-20.925 13.95 12.556 53.012 12.556 53.012l-58.592 107.42-85.098 110.21s-38.772-7.827-97.654-50.222c-58.127-41.851-152.99-63.242-174.38-137.64-2.186-7.605 34.622-37.749 70.302-77.537 19.881-5.584 38.718-21.317 52.47-35.452 4.893-5.029 9.172-10.554 12.939-16.427 5.481-6.298 10.556-12.871 14.163-20.406 5.751-9.746 8.98-20.446 8.388-32.142 9.952-41.5 38.195-162.22 37.045-190.98-1.395-34.876 0-93.468 8.37-111.6 8.371-18.136 25.111-59.987 57.197-71.148 32.086-11.16 64.172-20.925 75.333-26.506 11.16-5.58 26.506-22.321 26.506-22.321s43.246 97.654 43.246 122.76 47.432 119.97 43.247 145.08" style="fill:#472e6a"/></g><g clip-path="url(#clipPath6646)" style="opacity:.2"><g transform="translate(904.71 698.21)"><path d="m0 0c-4.185 25.111-25.111 239.95-46.037 253.9-20.925 13.95 12.556 53.012 12.556 53.012l-58.592 107.42-85.098 110.21s-38.772-7.827-97.654-50.222c-58.127-41.851-152.99-63.242-174.38-137.64-2.186-7.606 34.622-37.75 70.302-77.538 19.881-5.584 38.718-21.317 52.47-35.452 4.893-5.029 9.172-10.554 12.939-16.427 5.481-6.298 10.556-12.871 14.163-20.406 5.751-9.746 8.98-20.446 8.388-32.142 1.028-4.288 2.26-9.46 3.627-15.251 3.204 8.362 7.346 16.203 13.698 21.727 13.634 11.857 25.363-1.529 26.689-15.763 0.974-10.449-0.998-20.859-1.59-31.264-1.066-18.758-1.901-37.5-3.411-56.234-1.604-19.89-3.553-39.747-5.626-59.593 2.485-15.288 3.936-27.647 3.658-34.601-1.395-34.876 0-93.468 8.37-111.6 5.745-12.447 18.601-50.222 48.362-66.962-20.461 64.172-18.033 101.22-15.811 129.27 3.04 38.367 0.756 41.336-2.717 79.818-3.793 42.016-0.537 82.472 7.833 160.6 13.971 130.4-36.097 125.21-39.643 125.37-23.447-11.78-49.492-17.775-77.936-15.828-20.556 1.407-43.097 7.971-57.361 23.379-9.193 4.147-17.291 9.628-23.5 16.661-3.625 4.106-5.019 9.439-4.647 14.683-9.126 8.533-8.277 7.678-0.216 18.089 7.359 19.932 24.767 35.526 40.875 48.665 21.824 17.799 44.726 36.278 69.161 50.326 25.788 14.825 55.868 25.572 85.979 24.252 7.097-0.311 14.463-1.306 21.296-3.383 25.831-4.506 39.807-30.335 39.787-55.758-3e-3 -3.854-0.351-7.67-0.94-11.447 28.135-31.956 68.444-51.45 102.13-76.697 0.896-0.671 1.059-1.714 0.539-2.668-11.456-21.022-22.83-42.218-30.794-64.851 16.991-7.387 24.848-28.658 30.14-44.926 16.633-51.131 20.764-105.72 31.363-158.18 4.671-23.12 12.638-45.009 17.967-67.69 3.009 10.761 4.581 19.639 3.662 25.152"/></g></g><g transform="translate(743.82 1251.6)"><path d="m0 0c0-2.79 3.953-137.88 3.953-153.69 0-2.63 116.95-85.33 116.95-85.33s-34.411-57.662-36.271-62.313c0 0 20.461-1.859 39.061-71.612 18.601-69.752 34.411-202.75 34.411-202.75s50.92 195.31 41.852 335.74c-3.957 61.282-16.741 147.88-16.741 147.88z" style="fill:#634094"/></g><g clip-path="url(#clipPath6666)" style="opacity:.2"><g transform="translate(833.16 742.85)"><path d="m0 0s-34.084-3.72-53.311 4.65c-19.227 8.371-27.967 26.971-36.706 26.041-4.651-0.495-10.78 0.064-16.293 0.695-2.206 0.253-4.302 0.514-6.175 0.727-0.062 6e-3 -0.127 0.014-0.188 0.021-0.416 0.047-0.814 0.09-1.204 0.13-0.132 0.014-0.271 0.03-0.401 0.043-0.335 0.033-0.649 0.061-0.961 0.089-0.151 0.014-0.312 0.029-0.457 0.042-0.301 0.024-0.577 0.041-0.853 0.058-0.125 8e-3 -0.262 0.019-0.382 0.025-0.38 0.019-0.734 0.03-1.053 0.03-5.243 0-22.001 30.367-31.462 10.231-2.622-5.58-23.597-42.782-23.597-42.782s12.236-95.793 24.471-122.76 33.21-66.963 47.194-82.773c13.983-15.811 29.714-25.111 35.831-29.761 0.196-0.149 0.4-0.239 0.612-0.281 0.07-0.014 0.146 8e-3 0.218 6e-3 0.144-5e-3 0.287-0.015 0.437 0.024 0.09 0.024 0.184 0.082 0.276 0.121 0.139 0.059 0.277 0.109 0.421 0.201 0.1 0.064 0.205 0.16 0.307 0.241 0.141 0.11 0.281 0.214 0.426 0.353 0.108 0.104 0.219 0.234 0.329 0.353 0.146 0.158 0.291 0.311 0.439 0.495 0.113 0.138 0.227 0.298 0.342 0.451 0.151 0.203 0.303 0.405 0.457 0.632 0.115 0.168 0.232 0.354 0.348 0.534 0.158 0.247 0.317 0.496 0.478 0.765 0.116 0.193 0.233 0.399 0.35 0.603 0.165 0.289 0.331 0.581 0.499 0.892 0.116 0.214 0.233 0.439 0.35 0.663 0.173 0.33 0.346 0.664 0.52 1.013 0.112 0.224 0.225 0.454 0.337 0.686 0.185 0.38 0.37 0.767 0.556 1.165 0.104 0.222 0.208 0.447 0.312 0.675 0.197 0.429 0.395 0.867 0.593 1.315 0.096 0.216 0.191 0.435 0.288 0.656 0.209 0.48 0.419 0.969 0.629 1.465 0.085 0.201 0.169 0.401 0.254 0.604 0.224 0.535 0.447 1.076 0.67 1.625 0.074 0.181 0.147 0.361 0.22 0.542 0.236 0.585 0.471 1.176 0.706 1.773 0.061 0.153 0.121 0.304 0.181 0.458 0.259 0.663 0.518 1.331 0.776 2.004 0.03 0.079 0.061 0.158 0.091 0.238 4.687 12.271 8.967 25.739 10.301 27.159 2.622 2.791 25.345 72.543 29.714 106.02 4.371 33.481 17.48 66.963 13.11 81.843"/></g></g><g transform="translate(844.32 742.85)"><path d="m0 0s-34.084-3.72-53.311 4.65c-19.227 8.371-27.967 26.971-36.706 26.041-8.74-0.93-22.723 1.86-27.966 1.86-5.244 0-22.002 30.367-31.463 10.231-2.622-5.581-23.596-42.782-23.596-42.782s12.235-95.793 24.47-122.76 33.21-66.963 47.194-82.773c13.983-15.811 29.714-25.111 35.832-29.761 6.117-4.65 20.1 44.641 22.722 47.431 2.622 2.791 25.345 72.543 29.715 106.02s17.479 66.962 13.109 81.843" style="fill:#634094"/></g><g clip-path="url(#clipPath6686)" style="opacity:.2"><g transform="translate(758.07 577.05)"><path d="m0 0c-9.159 18.672-12.683 39.481-8.56 59.993 3.211 15.982 15.841 32.695 18.185 49.174-11.533-10.642-16.083-29.535-31.216-35.905-13.065-5.5-24.654 3.376-26.171 16.484-2.208 19.087 8.449 39.621 14.764 56.828 6.012 16.382 8.707 33.762 12.959 50.61-4.855 0.555-9.236 1.167-11.693 1.167-5.244 0-22.001 30.367-31.462 10.23-2.622-5.58-23.597-42.781-23.597-42.781s12.235-95.794 24.471-122.76c12.235-26.971 33.21-66.962 47.193-82.773 13.983-15.81 29.715-25.111 35.832-29.761 3.196-2.429 8.538 9.867 13.286 22.561-12.624 14.729-25.374 29.37-33.991 46.938"/></g></g><g clip-path="url(#clipPath6702)" style="opacity:.10001"><g transform="translate(637.56 976.52)"><path d="m0 0c-0.053 14.539-18.024 26.138-28.223 33.654-6.483 4.778-12.599 10.149-19.375 14.505-3.65 2.346-10.96 4.541-13.701 7.925-9.636 11.895 10.814 9.409 17.449 6.586 11.616-4.941 27.656-9.877 36.238-19.208 1.924 16.157-24.085 23.991-25.107 39.496 16.974 0.927 30.486-7.985 43.392-17.927-4.005 4.263-7.308 10.578-7.184 16.475 5.414 0.058 16.835-11.812 18.8-6.3 7.007 19.657-39.558 42.598-35.542 44.768 5.415 2.925 49.525-9.068 68.282-38.254 0.58 6.124-2.382 14.622-5.367 19.938-2.727 4.858-11.908 10.004-11.962 15.47 10.828 1.509 28.343-9.445 37.104-15.154 9.893-6.447 13.51-14.77 17.704-25.358 6.31-15.931 2.803-27.781 2.895-43.774-4.418 7.321-10.483 21.298-20.626 22.871-2.621-5.775 0.789-35.587-13.4-32.63-5.439 1.133-10.194 15.862-15.324 19.657-4.708 3.483-12.362 7.176-18.094 7.392 5.641-10.28 8.193-19.972 7.509-31.939-5.473 2.808-7.394 12.407-14.45 13.118-0.538-5.299 4.025-19.208-2.165-21.472-4.882 6.558-10.182 11.526-17.472 15.2-3.295-7.534 4.227-17.321 3.397-25.631-1.678-0.406-3.358-0.194-4.778 0.592" style="fill:#fff"/></g></g><g clip-path="url(#clipPath6718)" style="opacity:.10001"><g transform="translate(776.37 768.85)"><path d="m0 0c-24.646 27.633-29.655 60.005-31.647 95.941-1.794 32.368 1.886 50.117-28.805 99.409-4.725 7.588-14.514 31.08 4.65 40.921 4.301 2.209 7.511-8.195 13.253-5.58 11.741 5.348 17.692 22.101 14.648 29.296-5.115 12.091-6.302 22.539-3.255 30.691 5.115 20.926 50.792-21.709 60.917-29.761 8.197-6.518 17.552-12.359 23.296-20.95 13.758-20.58-29.213-53.047-13.922-71.062 39.918-47.027 54.169-165.21 52.006-174.9-1.765-7.915-11.691-12.684-19.754-13.278-34.419-2.535-55.095 1.012-71.387 19.278" style="fill:#fff"/></g></g><g clip-path="url(#clipPath6734)" style="opacity:.2"><g transform="translate(1482.7 1185.2)"><path d="m0 0c-7.799-16.512-3.661-33.876-19.043-45.641-18.52-14.166-52.734-11.656-58.465-39.905-0.751-8.809-5.33-18.382-0.663-26.485 6.579-11.424 26.81-8.187 46.781 1.706 11.292 5.593 18.578 12.011 25.847 21.3 4.628 10.357 8.82 28.931 0.522 35.245 16.116 6.099 29.453 30.355 30.655 47.11 1.226 17.11-18.341 22.113-25.634 6.67" style="fill:#fff"/></g></g><g clip-path="url(#clipPath6750)" style="opacity:.2"><g transform="translate(1412.8 1049.1)"><path d="m0 0c-0.178 1.798-0.595 3.533-1.398 5.125-2.613 5.183-8.444 7.596-12.469 11.432-2.691 2.564-4.234 5.241-5.112 8.065-4.356-0.961-8.89-0.961-13.773-1.31-6.852-0.489-37.436-0.481-44.879-1.282-4.981-0.537-8.478-6.875-10.206-12.362-8.685-15.671-25.462-61.962-4.715-74.081 1.963 11.46 7.921 23.133 16.099 31.419-0.167-3.921-2.749-17.819 2.728-17.614 6.136 0.23 7.25 16.222 11.867 19.615 0.912-6.541 2.094-14.226 8.554-17.088 6.406 7.11 8.16 21.863 12.109 31.047 0.742-4.102 1.672-14.669 7.443-15.155 4.017-0.339 5.318 17.568 6.421 20.629 2.845-4.433 6.005-12.311 12.266-11.787 2.344 6.819 2.783 14.178 2.799 21.329 2.078-3.061 4.213-7.573 8.041-7.352 1.002 3.453 1.365 7.074 1.052 10.658 1.174-0.766 2.13-0.874 3.173-1.288" style="fill:#fff"/></g></g><g clip-path="url(#clipPath6766)" style="opacity:.10001"><g transform="translate(1599.3 1094)"><path d="m0 0c4.077-4.022 14.388-7.882 19.411-6.614 5.104 1.29 14.382 4.851 12.555 11.393-1.231 4.408-8.159 10.427-12.323 12.323-9.958 4.534-36.039-0.93-19.643-17.102" style="fill:#fff"/></g></g><g clip-path="url(#clipPath6782)" style="opacity:.10001"><g transform="translate(1565.1 1030.7)"><path d="m0 0c2.394 0.233 10.626 4.336 16.868 4.069 5.702-0.244 13.761-4.607 17.914-8.71 3.483-3.44 7.368-10.872 12.312-12.099 10.745 23.388-26.128 37.268-41.91 34.062-11.16-2.267-23.532-19.103-5.184-17.322" style="fill:#fff"/></g></g><g clip-path="url(#clipPath6798)" style="opacity:.10001"><g transform="translate(1653.6 1180)"><path d="m0 0c7.934-4.621 11.915-11.897 12.584-16.217 0.952-6.142 0.653-13.214-2.273-18.72-2.377-4.473-9.626-9.631-4.644-14.5 8.632-2.616 15.869 19.967 13.864 29.383-0.879 4.125-0.698 7.847-7.877 15.578-2.093 2.254-9.068 5.377-11.654 4.476" style="fill:#fff"/></g></g><g clip-path="url(#clipPath6814)" style="opacity:.2"><g transform="translate(1536.4 1009.1)"><path d="m0 0c-1.156-16.894-42.604-25.906-58.77-22.584-33.946 6.975-28.158 37.316-41.507 32.575-10.245-3.639-18.542-16.266-27.772-22.384-4.347-5.264-8.91-10.391-14.294-14.78-16.562-13.503-38.742-22.174-59.803-25.233-11.858-1.723-29.761-2.045-37.546 8.527-6.044 5.033-5.673 13.19-4.698 20.333 1.729 12.669 4.517 25.513 7.806 37.857 4.718 17.71 11.157 35.71 20.744 51.605-0.259-0.019-0.524-0.038-0.774-0.057-0.47-0.036-0.911-0.07-1.355-0.105-0.329-0.026-0.659-0.052-0.973-0.077-0.386-0.031-0.751-0.062-1.113-0.092-0.334-0.028-0.66-0.056-0.973-0.083-0.315-0.028-0.617-0.055-0.91-0.082-0.315-0.029-0.612-0.058-0.9-0.086-0.257-0.025-0.51-0.05-0.745-0.074-0.282-0.029-0.535-0.058-0.785-0.086-0.189-0.022-0.386-0.043-0.556-0.064-0.258-0.032-0.473-0.062-0.684-0.092-0.113-0.016-0.246-0.033-0.345-0.049-0.286-0.045-0.522-0.089-0.688-0.13-0.184-0.046-0.379-0.146-0.579-0.284-0.062-0.042-0.129-0.11-0.192-0.162-0.143-0.115-0.287-0.237-0.437-0.395-0.075-0.079-0.153-0.179-0.229-0.268-0.147-0.171-0.295-0.351-0.448-0.56-0.078-0.108-0.159-0.23-0.239-0.349-0.158-0.232-0.318-0.479-0.482-0.749-0.078-0.129-0.157-0.265-0.236-0.403-0.175-0.303-0.353-0.628-0.533-0.973-0.071-0.135-0.142-0.27-0.214-0.412-0.199-0.393-0.402-0.813-0.607-1.254-0.057-0.122-0.113-0.24-0.171-0.366-0.236-0.516-0.475-1.064-0.717-1.639-0.03-0.071-0.059-0.137-0.089-0.208-6.232-14.923-14.448-48.649-17.612-84.516-0.403-4.56-0.766-8.818-1.094-12.799-2e-3 -0.023-4e-3 -0.043-6e-3 -0.065-0.191-2.317-0.37-4.537-0.538-6.665-0.162-2.047-0.312-3.996-0.454-5.874-0.012-0.161-0.024-0.325-0.037-0.485-0.135-1.8-0.261-3.519-0.379-5.167-0.013-0.171-0.025-0.341-0.037-0.512-0.117-1.639-0.226-3.207-0.327-4.699-8e-3 -0.117-0.015-0.23-0.023-0.347-0.315-4.691-0.554-8.655-0.734-11.963-3e-3 -0.051-6e-3 -0.104-9e-3 -0.155-0.058-1.066-0.109-2.06-0.155-2.992-3e-3 -0.068-7e-3 -0.135-0.01-0.203-0.045-0.913-0.085-1.764-0.12-2.55-3e-3 -0.053-5e-3 -0.103-7e-3 -0.156-0.107-2.415-0.169-4.238-0.205-5.536-1e-3 -0.033 0.685-0.068 0.684-0.1-0.011-0.398 0.661-0.74 0.661-1.039v-0.876c0-0.18-2.79-0.326-2.79-0.421v-0.173s0.834 0.017 1.032 0.042c4.477 0.573 58.505 7.756 87.902 26.463 30.691 19.531 61.556 41.852 67.136 39.062 5.581-2.79 33.575-14.451 53.1-13.951 18.135 0.465 42.536 16.316 49.102 20.694 0.951 0.633 6.487 3.364 11.645 4.628-5.169 4.291-10.104 8.843-14.911 13.538"/></g></g><g clip-path="url(#clipPath6830)" style="opacity:.2"><g transform="translate(1578.9 1028.5)"><path d="m0 0c-11.848 0.555-18.528-4.121-23.146-11.313 0.841-1.158 1.673-2.325 2.528-3.473 1.707-2.109 3.403-4.227 5.081-6.359 4.253-3.281 8.382-6.736 12.696-9.954 2.831-0.125 5.173-0.363 6.668-0.662 4.102-0.821 12.695-1.292 19.939 1.557 2.632 15.749-4.594 29.305-23.766 30.204"/></g></g><g clip-path="url(#clipPath6846)" style="opacity:.2"><g transform="translate(1617.3 1034.5)"><path d="m0 0c-0.267 1.377-0.485 2.76-0.781 4.134-1.717 7.969-5.218 50.899-34.664 50.311 0.517-6.282 1.456-14.903 3.029-21.334 1.297-1.81 2.329-4.336 3.205-5.802 2.28-3.816 4.441-7.782 7.067-11.376 0.483-0.661 0.452-1.47 0.093-2.055 2.12-0.908 4.172-1.938 6.035-3.236 5.191-3.617 9.657-8.385 13.256-13.804-0.847 2.726-1.843 4.021-1.843 4.021s1.832-0.636 4.603-0.859"/></g></g><g clip-path="url(#clipPath6862)" style="opacity:.2"><g transform="translate(1651.1 1179.3)"><path d="m0 0c-4.368-12.18-10.722-22.469-15.573-34.432-2.678-6.606-5.714-13.818-8.835-20.229-1.922-3.947-4.945-7.891-5.581-12.322 1.362-1.213 3.947-3.634 6.052-5.395 4.644-5.417 6.826-8.96 9.643-13.206 0.353 1.015-3.836 9.242 1.046 17.671 6.737 11.629 23.236 34.311 24.646 47.896 1.098 10.587-4.815 14-11.398 20.017"/></g></g><g clip-path="url(#clipPath6878)" style="opacity:.10001"><g transform="translate(1499.2 1109.3)"><path d="m0 0c2.961-30.943-33.865-64.912-64.729-63.777 6.031-6.788 16.598-11.169 25.667-9.485 8.29 1.539 16.896 7.819 21.74 14.205 8.617 11.36 12.447 22.372 16.275 36.155 1.163 4.185 4.5 15.194 1.047 22.902"/></g></g><g clip-path="url(#clipPath6894)" style="opacity:.10001"><g transform="translate(1493 1123.2)"><path d="m0 0c2.626-1.806 5.974-8.259 6.139-12.519 11.997 14.379 18.042 24.144 23.518 39.998 2.613 7.563 0.452 14.391-1.641 22.288-1.22 4.604-3.442 12.894-7.009 16.126 4.104-17.066 4.512-30.523-4.732-42.177-10.695-13.486-5.115-9.766-23.25-18.601-3.791 3.194-1.395 1.395 6.975-5.115"/></g></g><g clip-path="url(#clipPath6910)" style="opacity:.2"><g transform="translate(1114.7 1147.4)"><path d="m0 0c-1.192-0.397-2.015 1.41-1.74 2.888 0.208 1.118 0.263 2.203 0.258 3.279-0.494-0.352-0.989-0.702-1.484-1.052-3.101-6.66-7.198-12.736-12.51-18.026-1.014-1.009-2.65 0.248-2.237 1.5 0.836 2.535 1.469 5.09 1.891 7.672-0.732-0.48-1.454-0.971-2.193-1.444-9e-3 -6e-3 -0.019-0.011-0.028-0.017-1.761-3.305-3.687-6.502-6.307-9.282-5.326-5.651-11.791-10.15-18.294-14.329-1.283-0.824-2.339 0.972-1.765 2.031 1.95 3.593 4.171 7.009 6.156 10.51-4.321-2.029-22.713-14.608-27.085-19.516-3.053-3.427-6.146-7.292-9.587-10.702 17.65 6.232 59.668 21.686 75.623 33.003 23.57 16.718 42.781 40.921 51.512 57.377-21.054-19.944-40.352-39.939-52.21-43.892"/></g></g><g clip-path="url(#clipPath6926)" style="opacity:.2"><g transform="translate(1318.9 1264)"><path d="m0 0c4.245 9.617-23.57-38.045-41.868-11.492-0.636 0.922-1.209 1.865-1.736 2.822-2.597-16.423-9.454-33.323-18.592-45.927-0.696-0.96-2.316-0.729-2.533 0.513-1.663 9.493-6.891 17.598-13.529 24.374-1.304-16.106-5.672-34.025-16.024-46.511-0.731-0.882-2.313-0.793-2.534 0.513-1.729 10.229-3.804 20.4-6.678 30.362-0.126-0.127-0.243-0.263-0.37-0.389-1.297-1.293-2.527-2.473-3.713-3.565-8.6-17.1-24.857-29.843-36.229-45.056-0.787-1.052-2.724-0.593-2.554 0.869 0.925 8.015-0.633 14.817-3.225 21.512-0.157-0.073-0.36-0.143-0.499-0.218-0.953-10.645-3.119-33.537-6.045-42.317 0 0 28.831 13.253 48.361 54.174 0 0 3.023-22.204-1.627-37.666 0 0 33.481 9.766 31.388 52.547 0 0 10.463-8.952 12.091-19.531 0 0 24.878 9.184 25.111 52.082 0 0 0.925-20.976 10.928-18.833 4.882 1.046 24.18 18.833 29.877 31.737"/></g></g><g transform="translate(609.89 1925.9)"><path d="m0 0c-0.93-6.51-6.51-112.53 6.51-138.58 13.021-26.041 38.131-46.502 38.131-46.502s-21.579 13.154-29.761-1.86c-11.974-21.972 41.735-73.24 74.403-82.773 35.972-10.497 22.321-15.81 54.872-26.04 32.551-10.231 67.892 202.75 67.892 202.75s-99.513 198.1-107.88 194.38c-8.37-3.721-104.16-101.37-104.16-101.37" style="fill:#ab6820"/></g><g transform="translate(653.6 1984.4)"><path d="m0 0c-2.79-13.95-16.323-181.11 2.093-151.36 4.533 7.324 20.925 23.368 18.832 14.648-1.342-5.593-9.765-23.716-6.975-46.036 2.79-22.321 33.133-65.219 33.133-65.219l11.509 23.367s-2.79-39.061 25.111-69.752 118.58 117.18 118.58 117.18l-185.54 184.15z" style="fill:#ffb795"/></g><g clip-path="url(#clipPath6950)" style="opacity:.5"><g transform="translate(662.44 1836.6)"><path d="m0 0c1.273 1.882 2.687-6.269 13.009-10.07 10.06-3.705 21.46 11.783 24.604 19.082 3.829 8.886 5.06 18.719 4.643 28.324-0.055 1.267 1.47 2.046 2.537 1.689 16.115-5.4 22.904 7.814 28.219 20.061 3.194 7.361 6.683 14.572 10.022 21.868 5.198 11.359 10.087 22.852 14.726 34.446-22.124 41.193-42.547 76.855-46.143 75.257-3.404-1.513-21.26-18.555-41.253-38.247l-2.459 2.441-16.74-6.976c-0.437-2.181-1.136-8.111-1.935-16.449-22.212-22.199-41.777-42.143-41.777-42.143-0.66-4.622-2.972-72.292 0-113 15.81-1.395 39.224 4.033 52.547 23.716"/></g></g><g transform="translate(1207 1622.7)"><path d="m0 0c7.44 5.58 82.773 36.271 93.003 72.543 10.23 36.271-13.02 32.551-13.02 32.551s58.592 114.39 55.802 201.82-188.8 8.37-188.8 8.37l11.16-163.69z" style="fill:#ab6820"/></g><g transform="translate(1190.7 1722.2)"><path d="m0 0c4.185 1.395 37.667 18.136 48.827 39.061 0 0 6.975-12.555 1.395-27.9 0 0 57.197 44.641 54.407 152.06s-141.36 52.546-141.36 52.546 6.51-166.01 11.16-163.68 25.576-52.082 25.576-52.082" style="fill:#ffb795"/></g><g clip-path="url(#clipPath6974)" style="opacity:.5"><g transform="translate(1342.8 1929.6)"><path d="m0 0c-2.436 76.324-144.51 25.763-180.55 11.694 0.971-3.179 2.298-6.195 4.204-8.936 0.701-0.111 1.339-0.574 1.528-1.471 1.52-7.199 6.712-14.216 10.69-20.219 6.215-9.375 13.102-18.345 20.544-26.778 6.668-7.554 34.926-39.465 42.244-17.846 0.493 1.458 2.267 1.657 3.276 0.646 10.376-10.387 25.134-14.938 39.482-16.16 11.037-0.94 22.006 0.856 33.08-0.167 4.894-0.452 9.891-1.153 14.873-2.136 6.863 27.033 11.455 55.394 10.626 81.373"/></g></g><g transform="translate(732.19 1685.4)"><path d="m0 0s-27.901-89.283-70.682-163.69c0 0-50.222-68.357-59.522-104.63-9.301-36.272-8.371-99.049 2.79-136.25 0 0 13.95 56.093 13.95 45.571 0-2.79-7.905-44.176 9.766-79.982 0 0-0.233 37.434 12.555 47.431 0 0-12.323-55.104 16.741-83.703 0 0 2.557 31.156 4.65 41.852 0 0 21.898-93.872 166.24-127.18 9.068-2.093-1.628-33.714 58.825-54.174l-5.348 27.668s18.368-26.971 43.479-27.668c0 0-5.286 27.288-2.79 26.04 1.86-0.93 13.95-21.39 35.748-24.704 0 0-2.965 12.033 7.963 24.704 0 0 21.856 16.276 44.642-11.625 0 0 0.191 37.648 18.019 29.993 3.692-1.584 4.342-11.842 2.442-16.972 0 0 63.277 21.318 83.703 35.806 30.015 21.29 43.572 45.413 51.512 57.377 0.651 0.98 2.173 0.449 2.079-0.724-0.763-9.518-2.782-30.94-6.16-41.075 0 0 28.831 13.253 48.362 54.174 0 0 3.023-22.204-1.628-37.666 0 0 33.481 9.765 31.389 52.547 0 0 10.463-8.952 12.09-19.531 0 0 24.879 9.184 25.111 52.082 0 0 0.925-20.977 10.928-18.833 4.883 1.046 48.827 33.713 48.827 102.54 0 68.822-22.554 106.95-47.664 145.08-25.111 38.131-58.36 122.76-68.823 163.68-6.516 25.486-19.531 108.81-53.942 140.44s-168.1 93.003-284.36 53.012-125.79-65.102-150.9-151.6" style="fill:#b0783e"/></g><g clip-path="url(#clipPath6994)" style="opacity:.2"><g transform="translate(1070.3 1467.7)"><path d="m0 0c26.942 2.192 49.795 20.102 66.198 40.455 1.11 1.378 3.337-0.028 2.325-1.544-14.549-21.786-36.107-37.144-54.061-55.842-17.646-18.378-28.828-40.223-23.54-66.229 4.425-21.758 14.358 3.619 33.89-4.804 15.408-6.645 48.765-30.037 60.684-54.407 7.708-15.757 5.623-30.984 1.322-47.181-0.349-1.315-1.988-1.063-2.58-0.155-1.648 2.524-4.053 4.477-6.357 6.459-2.019-7.608-2.73-15.488-5.013-23.045-0.382-1.262-1.992-1.124-2.581-0.155-3.47 5.709-7.335 11.783-12.942 15.603 5.74-56.207-32.25-107.05-67.082-149.11 38.545 25.542 77.517 53.148 99.651 94.888 0.694 1.308 2.599 0.412 2.554-0.869-0.185-5.308-1.274-10.255-3.118-15.102 9.986 6.544 17.453 16.635 22.885 27.131 0.57 1.103 2.36 0.611 2.533-0.513 1.418-9.168 1.567-18.042 0.193-27.029 12.585 17.129 25.968 33.689 37.265 51.723 0.686 1.095 2.239 0.604 2.534-0.513 2.398-9.093 3.901-18.268 4.424-27.606 3.207 7.074 4.498 14.744 6.833 22.214 0.336 1.072 1.657 1.187 2.375 0.469l1.787-1.787c4.203 3.866 5.574 10.231 7.929 15.269 0.317 0.678 1.001 1.143 1.769 0.874 2.032-0.711 2.346-1.234 4.153 0.056 2.52 1.8 4.52 6.765 5.777 9.478 2.596 5.603 4.22 11.644 5.262 17.716 2.073 12.081 2.039 24.415 2.5 36.628 0.055 1.468 2.012 1.666 2.65 0.506 10.806-19.658 13.851-40.898 15.707-62.876 12.905 11.329 23.094 26.788 26.284 43.77 0.223 1.188 2.124 1.976 2.65 0.505 3.379-9.441 3.152-19.423 4.515-29.236 8.297 4.573 11.158 17.306 14.185 25.424 1.018 2.729 1.999 5.464 2.962 8.205 0.658 5.64 1.028 11.562 1.028 17.79 0 68.823-22.553 106.95-47.664 145.08-25.111 38.132-58.36 122.76-68.822 163.69-6.516 25.485-19.531 108.81-53.942 140.44-30.408 27.943-138.34 79.074-243.26 63.008 10.869 0.239 21.739-0.105 32.585-1.36 33.781-3.907 72.82-8.48 103.26-23.052 26.294-12.588 43.876-36.357 65.139-56.467 11.765-11.128 35.024-25.046 16.006-37.699-8.7-5.788-16.74-6.277-29.993-4.185-7.045 1.112-18.051 3.496-25.278 3.811-7.277 0.318-14.545-0.598-21.575-2.464-28.926-7.676-53.951-30.891-67.134-57.35-23.838-47.849-22.108-114.56 5.695-160.43 14.394-23.752 38.449-42.536 67.437-40.177" style="fill:#fff"/></g></g><g transform="translate(1074.9 1874.7)"><path d="m0 0s-11.393 12.556-18.833 13.485c0 0-9.998-33.946-2.558-60.917s66.962-94.863 90.213-97.653 29.761 5.58 32.551 29.761 2.558 74.751 2.558 107.19c0 29.157 12.323 45.339 12.323 45.339s-16.969-16.527-18.601-8.37c-0.93 4.65 31.389 37.459 31.389 26.855 0 0 0.795-37.85 7.905-24.646 2.441 4.534 12.788 24.762 16.508 31.272 0 0 27.901-61.382 66.033-69.752 38.131-8.371 22.32 20.461 22.32 20.461s80.797-71.032 52.082 5.58c-1.032 2.754 6.394-27.785 33.481-26.971 8.418 0.253 7.44 17.67 2.79 34.411s-45.572 159.96-98.583 167.41c-53.012 7.44-150.66-54.756-171.13-106.95 0 0-6.307 28.151-31.621 26.041-11.16-0.93-21.856-17.438-21.856-17.438s-24.646-47.664-6.975-95.096" style="fill:#cc7c26"/></g><g transform="translate(824.73 1944.5)"><path d="m0 0c7.789-18.949 74.513-102.75 61.382-110.67-24.646-14.88-46.037-19.066-59.522-49.757-13.346-30.373-39.759-40.223-50.919-38.828-15.716 1.964-25.111 0.465-22.321 29.296 2.79 28.83 39.061 54.406 39.061 54.406s-25.808-15.345-38.364-1.627c-6.369 6.959 5.581 60.452 5.581 60.452s-7.325-42.782-18.136-45.223c-30.432-6.872-14.416 58.243-9.766 72.194 0 0-21.39-29.761-39.061-23.251s16.741 64.056 2.79 63.242c-3.347-0.195-53.36-103.44-99.513-115.32-61.382-15.81-22.786 50.222-32.086 94.398-6.134 29.138 12.09 89.284 19.996 108.35 41.208 99.385 189.73 26.791 240.88-97.653" style="fill:#cc7c26"/></g><g transform="translate(875.18 1492)"><path d="m0 0s-74.635-18.136-115.09 36.271l-12.206 46.037-32.906-1.917c5.586 0.057-19.525 4.707-16.395-32.991 1.879-22.624 11.459-42.494 24.539-57.863 27.9-32.784 57.894-39.061 84.4-39.061s67.66 49.524 67.66 49.524" style="fill:#ffb795"/></g><g transform="translate(902.87 1576.3)"><path d="m0 0c-6.094-69.554-28.115-115.42-102.18-81.43-41.944 19.253-86.69 58.703-41.048 128.86 32.437 49.861 52.226 82.248 106.01 73.41 38.116-6.263 43.228-52.171 37.211-120.84" style="fill:#ffd6ab"/></g><g transform="translate(892.16 1560)"><path d="m0 0c-4.916-42.003-40.196-62.506-80.215-53.361-26.185 5.985-62.08 27.902-43.944 91.376 12.313 43.097 45.339 62.777 89.69 55.142 33.273-5.729 40.495-41.675 34.469-93.157" style="fill:#7a6954"/></g><g transform="translate(892.07 1559.1)"><path d="m0 0c-9.604-39.491-26.415-68.548-76.356-57.163-32.677 7.449-56.082 42.557-46.782 85.338 9.833 45.231 57.662 74.403 94.863 60.452 29.761-11.16 37.879-49.136 28.275-88.627" style="fill:#fff"/></g></g><g clip-path="url(#clipPath7034)"><g transform="translate(890.99 1547.6)"><path d="m0 0c0-29.791-24.151-53.942-53.942-53.942s-53.942 24.151-53.942 53.942 24.151 53.942 53.942 53.942 53.942-24.151 53.942-53.942" style="fill:#008d85"/></g><g transform="translate(874.33 1547.6)"><path d="m0 0c0-20.589-16.691-37.28-37.28-37.28-20.59 0-37.281 16.691-37.281 37.28s16.691 37.28 37.281 37.28c20.589 0 37.28-16.691 37.28-37.28" style="fill:#121212"/></g><g transform="translate(878.29 1579.8)"><path d="m0 0c0-9.662-7.833-17.495-17.495-17.495s-17.494 7.833-17.494 17.495 7.832 17.495 17.494 17.495 17.495-7.833 17.495-17.495" style="fill:#fff"/></g><g transform="translate(823.52 1519.9)"><path d="m0 0c0-6.326-5.128-11.454-11.455-11.454-6.326 0-11.454 5.128-11.454 11.454 0 6.327 5.128 11.455 11.454 11.455 6.327 0 11.455-5.128 11.455-11.455" style="fill:#fff"/></g></g><g clip-path="url(#clipPath7058)"><g transform="translate(1144.7 1563.8)"><path d="m0 0c13.945-46.499-23.85-79.627-61.382-83.703-37.532-4.077-64.129 19.662-68.811 62.77-4.682 43.107 11.749 88.701 49.28 92.778 37.532 4.076 69.949-35.285 80.913-71.845" style="fill:#fff"/></g><g transform="translate(1034.9 1469.2)"><path d="m0 0s82.541-5.115 131.37 53.477c0 0 4.883 3.255 4.418 29.296-0.103 5.751 60.452 6.51 68.822-25.111 4.96-18.735-56.267-111.6-177.64-101.84z" style="fill:#ffb795"/></g><g clip-path="url(#clipPath7074)" style="opacity:.2"><g transform="translate(1062.8 1429.5)"><path d="m0 0c13.72 12.594 31.023 19.825 47.063 28.899 26.78 15.149 55.38 34.491 61.878 67.026 1.797 8.996 1.622 18.7 1.492 28.445-1.634-0.504-2.575-1.133-2.562-1.844 0.465-26.041-4.417-29.296-4.417-29.296-48.827-58.592-131.37-53.477-131.37-53.477l25.623-41.969c0.76 0.741 1.506 1.496 2.29 2.216"/></g></g><g transform="translate(1167.8 1597.3)"><path d="m0 0c29.868-74.587-30.854-120.11-77.551-128.3-53.709-9.416-89.298-6.835-89.748 101.61-0.233 56.034 16.805 114.42 63.937 119.54 47.133 5.119 79.656-33.651 103.36-92.85" style="fill:#ffd6ab"/></g><g transform="translate(1146.1 1571.3)"><path d="m0 0c22.945-54.203-28.891-87.2-59.582-89.06-27.853-1.688-71.867-10.452-71.576 68.609 0.15 40.852 13.837 83.522 50.773 87.534 36.937 4.011 62.174-24.062 80.385-67.083" style="fill:#7a6954"/></g><g transform="translate(1144.7 1563.8)"><path d="m0 0c13.945-46.499-23.85-79.627-61.382-83.703-37.532-4.077-64.129 19.662-68.811 62.77-4.682 43.107 11.749 88.701 49.28 92.778 37.532 4.076 69.949-35.285 80.913-71.845" style="fill:#fff"/></g><g clip-path="url(#clipPath7102)" style="opacity:.10001"><g transform="translate(1053.6 1616.5)"><path d="m0 0c6.797 8.416 15.749 14.748 25.629 18.47-5.041 1.022-10.224 1.337-15.514 0.762-37.532-4.076-53.963-49.67-49.281-92.778 3.753-34.546 21.588-56.635 47.839-61.955-38.052 29.97-37.533 99.772-8.673 135.5"/></g></g></g><g clip-path="url(#clipPath7118)"><g transform="translate(1125.1 1534.8)"><path d="m0 0c0-30.562-24.775-55.337-55.337-55.337s-55.337 24.775-55.337 55.337 24.775 55.337 55.337 55.337 55.337-24.775 55.337-55.337" style="fill:#008d85"/></g><g transform="translate(1107.8 1534.8)"><path d="m0 0c0-20.996-17.021-38.018-38.018-38.018-20.996 0-38.017 17.022-38.017 38.018s17.021 38.018 38.017 38.018c20.997 0 38.018-17.022 38.018-38.018" style="fill:#121212"/></g><g transform="translate(1117.8 1576.7)"><path d="m0 0c0-11.75-9.525-21.275-21.275-21.275-11.749 0-21.274 9.525-21.274 21.275s9.525 21.274 21.274 21.274c11.75 0 21.275-9.524 21.275-21.274" style="fill:#fff"/></g><g transform="translate(1063.4 1503.2)"><path d="m0 0c0-6.742-5.465-12.207-12.207-12.207-6.741 0-12.206 5.465-12.206 12.207s5.465 12.207 12.206 12.207c6.742 0 12.207-5.465 12.207-12.207" style="fill:#fff"/></g><g transform="translate(885.18 1564.5)"><path d="m0 0c0-30.562-24.775-55.337-55.337-55.337-30.561 0-55.337 24.775-55.337 55.337s24.776 55.337 55.337 55.337c30.562 0 55.337-24.775 55.337-55.337" style="fill:#008d85"/></g><g transform="translate(867.86 1564.5)"><path d="m0 0c0-20.996-17.021-38.018-38.018-38.018-20.996 0-38.018 17.022-38.018 38.018 0 20.997 17.022 38.018 38.018 38.018 20.997 0 38.018-17.021 38.018-38.018" style="fill:#121212"/></g><g transform="translate(877.86 1606.5)"><path d="m0 0c0-11.75-9.525-21.275-21.275-21.275-11.749 0-21.274 9.525-21.274 21.275s9.525 21.275 21.274 21.275c11.75 0 21.275-9.525 21.275-21.275" style="fill:#fff"/></g><g transform="translate(823.45 1532.9)"><path d="m0 0c0-6.742-5.465-12.207-12.207-12.207-6.741 0-12.207 5.465-12.207 12.207s5.466 12.207 12.207 12.207c6.742 0 12.207-5.465 12.207-12.207" style="fill:#fff"/></g></g><g clip-path="url(#clipPath7158)"><g clip-path="url(#clipPath7166)" style="opacity:.2"><g transform="translate(1134.2 1568.5)"><path d="m0 0c0-28.25-22.901-51.152-51.152-51.152-28.25 0-51.152 22.902-51.152 51.152s22.902 51.151 51.152 51.151c28.251 0 51.152-22.901 51.152-51.151" style="fill:#fff"/></g></g><g clip-path="url(#clipPath7182)" style="opacity:.2"><g transform="translate(1128.2 1577.8)"><path d="m0 0c0-21.573-17.488-39.061-39.061-39.061s-39.062 17.488-39.062 39.061 17.489 39.061 39.062 39.061 39.061-17.488 39.061-39.061" style="fill:#fff"/></g></g><g clip-path="url(#clipPath7198)" style="opacity:.2"><g transform="translate(893.09 1581.5)"><path d="m0 0c0-28.25-22.901-51.152-51.152-51.152-28.25 0-51.151 22.902-51.151 51.152s22.901 51.152 51.151 51.152c28.251 0 51.152-22.902 51.152-51.152" style="fill:#fff"/></g></g><g clip-path="url(#clipPath7214)" style="opacity:.2"><g transform="translate(887.04 1590.8)"><path d="m0 0c0-21.573-17.488-39.061-39.061-39.061s-39.062 17.488-39.062 39.061 17.489 39.061 39.062 39.061 39.061-17.488 39.061-39.061" style="fill:#fff"/></g></g><g clip-path="url(#clipPath7230)" style="opacity:.10001"><g transform="translate(829.05 1512.1)"><path d="m0 0c-28.018 14.8-40.035 48.875-33.793 79.004 5.588 26.977 25.346 50.968 51.406 60.079-33.448 1.475-69.361-25.372-77.733-63.882-9.3-42.782 14.105-77.89 46.782-85.339 18.258-4.162 32.072-2.901 42.741 2.281-10.069 0.435-20.092 2.938-29.403 7.857"/></g></g><g clip-path="url(#clipPath7246)" style="opacity:.2"><g transform="translate(889.11 1839.6)"><path d="m0 0c-0.1 0.05-0.105 0.159-0.093 0.281 0.101 9e-3 0.202 0.018 0.306 0.027 5e-3 0.119-0.107 0.202-0.306 0.257-0.047 0.171-0.266 0.263-0.99 0.091-2.212-7e-3 -6.042-0.818-1.83-0.586-11.669-3.871-21.701-8.087-30.347-12.525 8.386 3.218 17.403 6.491 27.244 9.876 3.75 1.29 5.463 2.093 6.016 2.579"/></g></g><g clip-path="url(#clipPath7262)" style="opacity:.2"><g transform="translate(1008.6 1094.4)"><path d="m0 0c-5.013 5.632-14.342 10.12-21.75 12.616-4.853 0.671-9.691 0.733-14.941 0.437-5.867-0.331-12.126-0.208-17.423-2.726-2.749-3.809-5.035-7.821-5.333-12.773-0.05-0.821-0.742-1.262-1.489-1.294-5.678-0.244-10.103 3.06-14.198 6.634-4.271 3.728-10.489 11.8-16.817 10.262-3.309-6.333-5.299-12.95-4.93-20.717 0.052-1.089-1.365-1.59-2.164-1.065-9.641 6.341-18.275 14.103-24.231 23.8-11.473 11.268-15.094-12.135-14.315-20.519 0.131-1.403-1.403-2.165-2.424-1.174-11.517 11.179-23.045 24.9-29.516 40.252-0.857 1.159-1.716 2.318-2.572 3.479-3.425 1.957-6.79 4.048-10.07 6.32-18.162 12.577-105.83 33.869-151.16 136.73-2.553 5.793-2.784 12.219-3.128 18.498-0.233 0.481-0.469 0.952-0.701 1.436-5.033-5.628-9.033-11.792-12.589-18.612-0.88-1.688-3.405-0.843-3.749 0.76-4.533 21.109-8.934 41.451-1.619 61.577-8.187-6.389-16.155-13.052-24.294-19.506-1.481-1.174-3.355-0.076-3.413 1.702-0.394 12.112 0.989 23.967 2.783 35.882-1.979-1.642-3.647-3.501-5.282-5.779-1.2-1.674-3.603-0.797-3.779 1.286-2.823 33.337-7.008 62.633 22.985 121.22 16.722 32.667 56.779 48.408 78.82 46.037 17.61-1.895 70.11-55.587 113.25-33.183 6.497 6.799 13.546 13.009 20.656 19.154 0.057 0.211 0.152 0.418 0.325 0.608 7.022 7.705 14.745 14.48 21.058 22.857 2.958 3.925 5.86 7.957 8.648 12.066 1.409 2.833 2.912 5.672 4.548 8.412 1.804 6.118 7.232 11.306 12.357 15.533 2.768 6.358 4.921 13.009 6.096 20.12 4.999 30.258 6.215 68.783-5.58 97.654-5.648 13.822-21.831 28.864-38.182 29.205-10.048 0.209-19.078-1.569-28.898 1.835-11.955 4.144-32.666 18.898-32.666 31.737 0 11.9-5.421 51.986 52.971 81.964-90.677-34.801-100.67-62.547-123.65-141.72 0 0-27.901-89.283-70.683-163.69 0 0-50.221-68.357-59.521-104.63-9.301-36.272-8.371-99.049 2.789-136.25 0 0 13.951 56.094 13.951 45.571 0-2.79-7.905-44.176 9.765-79.982 0 0-0.232 37.434 12.556 47.431 0 0-12.323-55.104 16.741-83.703 0 0 2.557 31.157 4.65 41.852 0 0 21.898-93.872 166.24-127.18 9.068-2.092-1.628-33.713 58.824-54.174l-5.347 27.668s18.368-26.971 43.479-27.668c0 0-5.286 27.288-2.79 26.041 1.86-0.931 13.95-21.391 35.748-24.705 0 0-2.965 12.033 7.963 24.705 0 0 21.856 16.275 44.642-11.626 0 0 0.019 2.018 0.258 5.001-0.769 1.523-1.699 2.98-2.894 4.323"/></g></g><g clip-path="url(#clipPath7278)" style="opacity:.2"><g transform="translate(1074.9 1874.7)"><path d="m0 0s-11.393 12.556-18.833 13.485c0 0-9.998-33.946-2.558-60.917s66.962-94.863 90.213-97.653 29.761 5.58 32.551 29.761 2.558 74.751 2.558 107.19c0 29.157 12.323 45.339 12.323 45.339s-16.969-16.527-18.601-8.37c-0.93 4.65 31.389 37.459 31.389 26.855 0 0 0.795-37.85 7.905-24.646 2.441 4.534 12.788 24.762 16.508 31.272 0 0 27.901-61.382 66.033-69.752 38.131-8.371 22.32 20.461 22.32 20.461s80.797-71.032 52.082 5.58c-1.032 2.754 6.394-27.785 33.481-26.971 8.418 0.253 7.44 17.67 2.79 34.411s-45.572 159.96-98.583 167.41c-53.012 7.44-150.66-54.756-171.13-106.95 0 0-6.307 28.151-31.621 26.041-11.16-0.93-21.856-17.438-21.856-17.438s-24.646-47.664-6.975-95.096"/></g></g><g clip-path="url(#clipPath7294)" style="opacity:.2"><g transform="translate(1107.5 1844.9)"><path d="m0 0c12.488 50.958 35.648 92.148 66.962 133.92 14.639 19.529 39.934 40.872 57.662 57.662 12.82 12.142 32.569 22.757 48.622 30.625-54.18-9.593-127.88-61.4-145.34-105.96 0 0-6.307 28.151-31.621 26.041-11.161-0.93-21.856-17.438-21.856-17.438s-24.646-47.664-6.975-95.096c0 0-11.393 12.556-18.833 13.486 0 0-9.998-33.946-2.558-60.918 5.369-19.464 37.86-60.231 64.271-82.47-19.629 36.899-18.007 68.809-10.329 100.14"/></g></g><g clip-path="url(#clipPath7310)" style="opacity:.2"><g transform="translate(1396.8 1903.4)"><path d="m0 0c-1.396 18.611-17.907 40.53-25.25 57.735-7.555 17.704-13.833 36.75-22.728 53.677-7.892 15.021-17.218 33.53-32.617 40.822-20.045 9.492-33.008 10.704-47.984-1.483-15.36-7.161-30.214-28.789-39.895-42.482-10.554-14.926-20.083-28.925-20.694-47.868-0.323-10.043-1.172-27.211 4.257-35.988 3.005 11.706 9.081 24.802 13.853 36.165 5.253-5.902 7.959-16.443 12.61-23.988 35.777-58.032 57.598-51.617 64.333-51.848 17.188-0.588 7.112 27.797 10.693 38.542 5.662-14.631 20.523-34.122 35.852-40.299 21.697-8.745 16.731 6.085 16.747 25.971 3.749-12.281 33.229-41.038 30.823-8.956" style="fill:#fff"/></g></g><g clip-path="url(#clipPath7326)" style="opacity:.2"><g transform="translate(1212.1 1927.4)"><path d="m0 0c-0.074 0.112-0.146 0.226-0.218 0.341-0.057-0.221-0.13-0.45-0.185-0.671 0.138 0.108 0.272 0.219 0.403 0.33" style="fill:#fff"/></g></g><g clip-path="url(#clipPath7342)" style="opacity:.2"><g transform="translate(1147.5 1745.2)"><path d="m0 0c2.352-1.116 6.083-4.72 9.243-4.269 6.346 0.907 7.916 11.476 8.735 16.464 3.236 19.723 1.078 40.231 0.091 60.051-0.899 18.058-1.995 36.19 3.535 53.663 2.751 8.692 5.757 17.582 8.129 26.093-9.654-6.782-18.951-28.803-21.677-40.102-3.603-14.938-4.801-36.187-1.186-50.986-2.75 3.126-4.577 7.528-5.32 11.501-0.996-15.967-0.159-32.481 0.569-48.362 0.316-6.916-5.461-19.579-1.56-24.783 0.244 0.923 0.291 1.864-0.559 0.73" style="fill:#fff"/></g></g><g transform="translate(824.73 1944.5)"><path d="m0 0c7.789-18.949 74.513-102.75 61.382-110.67-24.646-14.88-46.037-19.066-59.522-49.757-13.346-30.373-39.759-40.223-50.919-38.828-15.716 1.964-25.111 0.465-22.321 29.296 2.79 28.83 39.061 54.406 39.061 54.406s-25.808-15.345-38.364-1.627c-6.369 6.959 5.581 60.452 5.581 60.452s-7.325-42.782-18.136-45.223c-30.432-6.872-14.416 58.243-9.766 72.194 0 0-21.39-29.761-39.061-23.251s16.741 64.056 2.79 63.242c-3.347-0.195-53.36-103.44-99.513-115.32-61.382-15.81-22.786 50.222-32.086 94.398-6.134 29.138 12.09 89.284 19.996 108.35 41.208 99.385 189.73 26.791 240.88-97.653" style="fill:#ab6820"/></g><g clip-path="url(#clipPath7362)" style="opacity:.2"><g transform="translate(561.99 1848.1)"><path d="m0 0c8.315 6.185 15.201 16.337 19.568 23.479 10.734 17.554 12.441 38.578 11.701 58.679-1.238 33.623-6.397 65.837 5.206 98.443 7.803 21.926 20.61 53.002 71.878 58.233-50.455 8.371-74.862-16.822-86.493-44.874-7.905-19.065-26.13-79.212-19.996-108.35 6.073-28.846-8.263-66.999-1.864-85.612"/></g></g><g clip-path="url(#clipPath7378)" style="opacity:.2"><g transform="translate(588.21 1842.8)"><path d="m0 0c57.371 23.716 75.134 77.442 93.759 102.54 19.549 26.34 30.886 60.037 27.436 95.271-2.25 22.982-27.028 33.802-49.273 27.349-45.295-13.138-29.393-94.277-32.99-128.24-1.245-11.757-27.016-85.694-38.932-96.913" style="fill:#fff"/></g></g><g clip-path="url(#clipPath7394)" style="opacity:.2"><g transform="translate(780.09 1940.7)"><path d="m0 0c0.792-33.818-14.658-68.365-12.88-102.16 14.036-2.312 12.625 85.735 12.88 102.16" style="fill:#fff"/></g></g><g clip-path="url(#clipPath7410)" style="opacity:.2"><g transform="translate(751.26 1961.2)"><path d="m0 0c-1.884-20.889-15.646-39.614-16.785-61.349-0.23-4.384-3.87-39.168 3.325-38.174 10.166 1.404 6.323 88.957 13.46 99.523" style="fill:#fff"/></g></g><g clip-path="url(#clipPath7426)" style="opacity:.2"><g transform="translate(715.92 1984.4)"><path d="m0 0c1.001-17.36-7.479-41.28-13.381-57.76-2.494-6.966-7.773-16.418-6.939-23.942 12.871-2.971 17.893 40.336 19.204 49.871 0.903 6.557 0.485 13.209 1.116 19.789 0.648 6.755 4.299 13.698 0 12.042" style="fill:#fff"/></g></g><g clip-path="url(#clipPath7442)" style="opacity:.2"><g transform="translate(845.19 1848.7)"><path d="m0 0c-18.516 2.07-38.572-18.323-52.262-29.011-12.697-9.913-41.629-31.955-33.385-52.01 6.874-16.724 20.65 9.459 25.018 15.531 10.306 14.328 20.166 30.693 32.569 43.28 6.584 6.682 19.392 20.12 28.06 22.21" style="fill:#fff"/></g></g><g clip-path="url(#clipPath7458)" style="opacity:.2"><g transform="translate(1094.4 1376.9)"><path d="m0 0c-3.44 20.641-27.203 49.524-45.339 70.45-18.136 20.925-27.901 54.407-47.432 79.518-18.965 24.384-32.723 37.332-64.158 38.915 0.155 0.045 0.295 0.102 0.451 0.146-31.156 2.79-56.267-26.506-56.267-26.506-16.741-33.481-26.506-39.759-64.172-75.333-20.504-19.364-38.472-33.867-49.643-44.919-13.763-13.617-23.335-30.939-27.122-49.926-4.84-24.262-4.328-56.979 22.424-81.485 16.251-14.887 37.577-21.978 59.197-20.818 0.259-0.375 0.546-0.775 0.798-1.145 0.315-0.461 0.626-0.919 0.931-1.372 1.215-1.801 2.388-3.566 3.472-5.246 6e-3 -0.011 0.012-0.02 0.019-0.03 1.107-1.718 2.134-3.355 3.122-4.951 0.235-0.378 0.468-0.756 0.697-1.128 0.941-1.532 1.851-3.031 2.698-4.452 16.625-27.899 16.652-34.766 60.832-37.031 37.788-1.938 51.262 13.255 74.96 36.111 0.453 0.437 0.918 0.882 1.379 1.324 0.568 0.546 1.132 1.089 1.713 1.643 1.037 0.988 2.097 1.991 3.177 3.005 0 0 5e-3 4e-3 7e-3 6e-3 32.473-7.036 68.74 1.489 93.145 24.175 26.192 24.348 31.621 59.988 25.111 99.049"/></g></g><g transform="translate(1e3 1281.8)"><path d="m0 0c-37.666-32.086-47.212-55.873-93.933-53.477-54.407 2.79-41.851 12.555-75.798 59.987-15.918 22.242 34.387 39.062 82.541 39.062s108.01-27.836 87.19-45.572" style="fill:#ccab89"/></g><g transform="translate(951.21 1288.8)"><path d="m0 0c0-19.066-23.716-33.016-52.081-30.226-23.003 2.263-35.688 19.205-34.412 30.691 1.86 16.741 16.878 19.996 39.992 19.996s46.501-8.904 46.501-20.461" style="fill:#cc4137"/></g><g clip-path="url(#clipPath7482)" style="opacity:.2"><g transform="translate(846.59 1265.9)"><path d="m0 0c24.953 13.017 55.347 17.434 82.302 7.89 14.456-5.118 27.662-13.305 41.661-19.492 8.386 7.946 17.514 17.299 29.485 27.497 20.821 17.736-39.037 45.571-87.191 45.571s-98.458-16.819-82.54-39.061c6.38-8.915 11.117-16.499 14.965-22.956 0.437 0.22 0.877 0.403 1.318 0.551"/></g><g transform="translate(928.89 1273.8)"><path d="m0 0c4.028-1.426 7.955-3.102 11.832-4.897 6.536 5.275 10.488 12.14 10.488 19.876 0 11.557-23.388 20.461-46.502 20.461s-38.132-3.255-39.992-19.995c-0.487-4.386 1.075-9.565 4.456-14.42 19.509 5.458 40.485 5.785 59.718-1.025"/></g></g><g clip-path="url(#clipPath7502)" style="opacity:.39999"><g transform="translate(888.37 1246.4)"><path d="m0 0c-6.746-9.269 15.226-10.151 20.436-10.196 12.927-0.109 26.491 2.549 36.397 11.615 6.189 5.665 1.702 11.824-5.99 9.798-5.904-1.555-10.835-4.346-17.062-5.093-4.478-0.536-12.251-0.733-16.742-0.683-8.852 0.097-13.801-0.567-17.039-5.441 0.253-0.847-1.003-0.557 0 0" style="fill:#fff"/></g></g><g transform="translate(1105.6 1393.6)"><path d="m0 0c-3.441 20.641-27.204 49.524-45.339 70.45-18.136 20.926-27.901 54.407-47.432 79.518-19.531 25.11-33.481 38.131-66.962 39.061-29.417 0.817-53.012-26.506-53.012-26.506-16.741-33.481-26.506-39.759-64.172-75.333-20.504-19.365-38.473-33.867-49.644-44.919-13.763-13.617-23.334-30.939-27.121-49.926-4.84-24.262-4.328-56.979 22.424-81.485 24.655-22.586 60.988-27.355 92.316-12.33 5.762 2.763 11.867 4.806 18.209 5.59 45.986 5.684 68.654-12.995 68.654-12.995 37.699-25.801 93.496-21.289 126.97 9.826 26.192 24.348 31.621 59.988 25.111 99.049" style="fill:#f0c5a0"/></g><g clip-path="url(#clipPath7522)" style="opacity:.39999"><g transform="translate(858.91 1293.4)"><path d="m0 0c-22.782-6.327-38.477-2.757-56.267 4.185-38.131 14.881-50.429 60.238-23.483 79.983 26.796 19.636 64.189-24.508 86.737-37.284 5.159-2.923 16.101-12.604 21.379-15.263-53.942 29.296-51.019 100.64 2.325 121.37 10.294 3.999-34.341-13.587-28.831-6.742 23.018 28.598 41.154 33.481 56.5 72.542 6.726 17.122-2.791 60.685 31.853 70.45-31.156 2.79-56.267-26.506-56.267-26.506-16.74-33.481-26.506-39.759-64.172-75.332-20.505-19.366-38.472-33.868-49.644-44.92-13.762-13.617-23.334-30.939-27.121-49.925-4.84-24.263-4.328-56.979 22.424-81.486 24.656-22.586 60.988-27.355 92.317-12.33 4.211 2.019 8.609 3.64 13.145 4.68-5.416 0.196-15.676-1.971-20.895-3.421" style="fill:#825d36"/></g></g><g transform="translate(1006.6 1390.4)"><path d="m0 0c-2.884-28.877-49.552-76.823-96.337-72.351-46.785 4.471-75.016 59.587-73.087 88.544 2.404 36.08 42.737 45.698 89.712 44.212 51.267-1.622 83.818-19.292 79.712-60.405" style="fill:#543d30"/></g><g clip-path="url(#clipPath7542)" style="opacity:.2"><g transform="translate(926.92 1450.8)"><path d="m0 0c-4.913 0.156-9.745 0.181-14.477 0.076 30.005-4.188 81.293-8.234 82.95-41.922 1.046-21.274-25.576-27.668-46.966-39.293-12.71-6.908-20.694-51.152-34.179-51.617 11.625 0 8.357-0.453 21.39 2.325 28.367 6.045 68.11 41.149 70.994 70.026 4.107 41.113-28.445 58.783-79.712 60.405" style="fill:#fff"/></g></g><g clip-path="url(#clipPath7558)" style="opacity:.2"><g transform="translate(873.66 1370.5)"><path d="m0 0c-4.208 32.4 16.52 60.742 45.897 72.17 8.514 3.312 17.426 5.512 26.472 6.678-6.027 0.778-12.407 1.273-19.116 1.485-46.975 1.486-87.307-8.131-89.711-44.211-1.929-28.957 26.301-84.073 73.086-88.545 1.824-0.174 3.648-0.242 5.469-0.261-21.252 10.373-39.041 29.15-42.097 52.684"/></g></g><g clip-path="url(#clipPath7574)" style="opacity:.5"><g transform="translate(980.44 1410.1)"><path d="m0 0c-0.652-11.667-21.009-25.449-44.343-24.145-23.335 1.304-40.81 17.2-40.158 28.867 0.652 11.668 20.097 20.069 43.431 18.764 23.334-1.304 41.722-11.819 41.07-23.486" style="fill:#fff"/></g></g><g clip-path="url(#clipPath7590)" style="opacity:.5"><g transform="translate(974.52 1413.8)"><path d="m0 0c-0.438-7.83-14.099-17.079-29.758-16.203-15.659 0.875-27.387 11.543-26.95 19.372 0.438 7.83 13.487 13.468 29.147 12.592 15.659-0.875 27.999-7.931 27.561-15.761" style="fill:#fff"/></g></g><g clip-path="url(#clipPath7606)" style="opacity:.2"><g transform="translate(978.19 1500.8)"><path d="m0 0c-1.744 16.973 0.497 0.877-6.045 28.831-2.558 10.928-21.562 50.467 1.627 46.385 16.241-2.859 39.863-30.89 47.083-44.293 11.79-21.884 22.897-47.192 38.015-66.962 18.136-23.716 33.625-36.669 43.014-64.87 8.65-25.98 3.845-72.32-13.02-94.863-9.031-12.071-34.411-24.646-50.222-29.296-11.435-3.363-50.722-4.292-56.732 8.835-4.773 10.426 24 37.25 28.594 45.286 6.767 11.834 11.513 25.27 12.349 38.93 1.401 22.882-6.854 46.321-18.622 65.985-3.923 6.554-10.075 13.269-15.346 18.599-12.738 12.88-10.724 30.051-10.695 47.433" style="fill:#fff"/></g></g><g transform="translate(607.57 611.72)"><path d="m0 0s-50.222 1.395-50.222 50.222c0 48.826 8.371 33.481 0 55.802-8.37 22.32-58.592 101.84-94.863 146.48-36.271 44.641 5.58 72.542 13.95 76.727 8.371 4.186 36.272 11.161 65.568 2.791 29.296-8.371 48.826-23.716 57.197-34.877 8.37-11.16 54.407-191.12 46.036-202.28-8.37-11.16-29.296-64.172-37.666-94.863" style="fill:#b0783e"/></g><g clip-path="url(#clipPath7626)" style="opacity:.2"><g transform="translate(563.52 652.61)"><path d="m0 0c-2.805 22.016 3.614 44.432 0.217 66.376-3.09 19.962-15.221 36.954-26.877 52.95-8.342 8.782-15.165 18.601-21.439 28.802-16.698 22.452-33.099 46.073-41.909 71.649-7.32 21.248-3.07 38.849 7.519 51.261 5.064 8.175 13.827 13.155 23.329 15.861 16.315 6.064 36.059 5.915 53.834-2.071 0.856-0.268 1.72-0.517 2.568-0.806-5.711 2.469-11.954 4.719-18.765 6.665-27.292 7.797-52.569 4.166-62.777-1.414-2e-3 0-0.697 0.233-0.697 0.233-0.749 0-1.522-1.323-2.093-1.608-0.251-0.125-0.534-0.052-0.842-0.219-0.107-0.059-0.23-0.02-0.344-0.083-0.208-0.116-0.414-0.176-0.642-0.309-0.171-0.1-0.356-0.185-0.537-0.294-0.194-0.117-0.384-0.217-0.589-0.344-0.219-0.136-0.449-0.278-0.68-0.426-0.185-0.119-0.366-0.231-0.558-0.357-0.266-0.175-0.54-0.36-0.818-0.55-0.169-0.116-0.338-0.23-0.511-0.351-0.311-0.216-0.626-0.441-0.948-0.674-0.152-0.11-0.303-0.221-0.457-0.335-0.355-0.261-0.712-0.531-1.078-0.812-0.122-0.094-0.245-0.19-0.368-0.287-0.405-0.316-0.812-0.641-1.227-0.981-0.074-0.061-0.149-0.124-0.223-0.186-0.463-0.382-0.928-0.776-1.399-1.189-6e-3 -5e-3 -0.012-0.011-0.018-0.016-10.951-9.588-23.556-27.1-13.663-51.016l0.018-0.042c0.466-1.122 0.981-2.258 1.548-3.408 0.013-0.027 0.027-0.054 0.041-0.081 0.571-1.153 1.191-2.318 1.869-3.499v-1e-3c2.005-3.492 4.446-7.093 7.476-10.823 36.271-44.641 86.493-124.16 94.863-146.48 8.37-22.32 0-6.975 0-55.802 0-13.605 3.899-23.528 9.525-30.764 1.715-2.205 3.667-4.018 5.759-5.521-4.747 8.095-7.856 17.128-9.107 26.952"/></g></g><g clip-path="url(#clipPath7642)" style="opacity:.10001"><g transform="translate(528.67 933.51)"><path d="m0 0c-11.015-3.904-15.225-22.413-15.402-31.606 9.192 1.051 18.173 9.986 27.77 12.706-0.608-14.316-9.029-26.971-8.098-42.363 6.237 0.666 7.162 8.861 13.23 11.878 0.531-11.951-4.71-32.92 4.38-42.719 5.785 4.335 6.65 11.789 10.262 17.401 6.933-20.463 7.212-45.729 21.445-63.87 0.527 7.119 0.019 16.093 5.321 21.629 4.531-4.619 4.388-12.757 5.977-18.671 4.585 9.587 1.858 26.464 1.342 36.921-0.652 13.185-3.892 26.437-7.652 39.213-4.01 13.622-13.555 25.196-23.033 36.363 2.491-1.959 5.367-3.644 7.98-5.387-0.275 24.832-25.824 31.248-49.597 28.42 3.131 0.271 4.374 1.718 6.075 0.085" style="fill:#fff"/></g></g><g clip-path="url(#clipPath7658)" style="opacity:.2"><g transform="translate(620.12 730.76)"><path d="m0 0c-0.12-18.305-11.771-38.754-9.112-56.447 1.785 2.745 3.669 5.908 5.546 8.392-3.802-10.739-8.651-21.002-7.406-32.61 6.409 9.467 8.386 21.949 14.917 31.898 3.572 5.441 8.734 10.457 11.659 16.216 4.576 9.012 0.711 19.037-4.724 27.848-1.74-3.823-2.639-9.355-4.436-13.701 0.112 5.195 1.938 15.102-1.318 19.341-2.718 3.539-6.418 4.134-5.126-0.937" style="fill:#fff"/></g></g><g transform="translate(478.76 846.09)"><path d="m0 0c2.232-2.976-43.779 7.134-56.732 18.601-28.366 25.111-0.93 140.44 0.93 148.8s8.37 34.411 54.872 33.481c46.501-0.93 101.37-34.411 111.6-36.271s22.553-9.3 32.783-30.691c10.231-21.391 32.319-77.193 20.229-94.864-12.091-17.67-28.832-25.11-28.832-25.11s-13.02 37.201-13.95 40.921-65.102 53.942-99.513 43.712c-34.411-10.231-45.572-28.831-46.502-40.922-0.93-12.09 2.79-27.901 25.111-57.662" style="fill:#634094"/></g><g clip-path="url(#clipPath7678)" style="opacity:.2"><g transform="translate(588.06 933.37)"><path d="m0 0c-20.964 20.565-50.82 30.308-79.709 32.051-27.483 1.659-59.511-4.712-74.871-29.979-9.755-16.046-13.626-36.196-7.905-54.366 3.246-10.307 10.14-20.372 19.056-27.544 16.898-5.832 35.565-9.369 34.124-7.448-22.321 29.761-26.041 45.572-25.111 57.662 0.93 12.091 12.09 30.692 46.502 40.922 34.411 10.23 98.583-39.992 99.513-43.712s13.951-40.921 13.951-40.921 6.769 3.022 14.803 9.751c-7.154 24.046-22.572 46.142-40.353 63.584"/></g></g><g clip-path="url(#clipPath7694)" style="opacity:.2"><g transform="translate(453.65 903.75)"><path d="m0 0c0.618 8.029 5.805 18.915 19.273 28.323-5.722 8.905-8.597 18.823-8.968 30.779-0.56 18.119 1.322 38.335 10.504 54.3 6.51 11.319 16.129 19.544 26.383 27.074-7.74 1.586-15.485 2.598-23.011 2.749-46.502 0.93-53.012-25.111-54.872-33.481-1.86-8.371-29.296-123.7-0.93-148.8 12.953-11.467 58.964-21.577 56.732-18.601-22.321 29.761-26.041 45.571-25.111 57.662"/></g></g><g clip-path="url(#clipPath7710)" style="opacity:.2"><g transform="translate(584.32 947.93)"><path d="m0 0c14.88-8.585 38.771-49.606 49.059-62.777 14.648 12.555 5.58 36.968-4.185 65.567-4.69 13.735-9.949 27.573-18.833 39.061-8.528 11.027-25.291 18.628-38.623 22.111-10.248 2.677-23.192 9.802-33.314 9.832-0.881-10.758 21.995-17.822 22.966-30.407-8.104-1.083-18.597-1.85-25.198-6.419-21.159-14.647-0.234-9.067 48.128-36.968" style="fill:#fff"/></g></g><g transform="translate(599.2 721.93)"><path d="m 0,0 c 0,0 22.321,22.321 44.641,27.901 l -13.95,57.197 c 0,0 -23.716,1.395 -55.802,-34.876 C -57.197,13.95 0,0 0,0" style="fill:#383522"/></g><g clip-path="url(#clipPath7730)" style="opacity:.2"><g transform="translate(616.57 779.02)"><path d="m0 0c-2.097 7.429-4.339 15.035-5.705 22.74-7.116-3.417-15.914-9.073-25.824-18.333 1.953-2.273 17.737-18.635 21.534-26.23 4.18-6.386 6.895-13.795 7.536-22.261 0.01-0.143 7e-3 -0.286 0.017-0.429 3.902 2.876 8.352 5.856 13.103 8.485-3.681 11.971-7.259 23.974-10.661 36.028" style="fill:#fff"/></g></g><g transform="translate(610.42 741.15)"><path d="m0 0c6.564-24.835-5.319-49.514-26.541-55.124-21.222-5.609-43.747 9.976-50.311 34.811-6.564 24.834 5.318 49.514 26.541 55.123 21.222 5.609 43.747-9.976 50.311-34.81" style="fill:#47422c"/></g><g transform="translate(600.9 739.37)"><path d="m0 0c5.414-20.484-4.387-40.841-21.892-45.468-17.504-4.627-36.084 8.229-41.498 28.713s4.387 40.841 21.891 45.467c17.505 4.627 36.085-8.228 41.499-28.712" style="fill:#ffed9d"/></g><g transform="translate(610.42 741.15)"><path d="m0 0c6.564-24.835-5.319-49.514-26.541-55.124-21.222-5.609-43.747 9.976-50.311 34.811-6.564 24.834 5.318 49.514 26.541 55.123 21.222 5.609 43.747-9.976 50.311-34.81" style="fill:#47422c"/></g><g transform="translate(600.9 739.37)"><path d="m0 0c5.414-20.484-4.387-40.841-21.892-45.468-17.504-4.627-36.084 8.229-41.498 28.713s4.387 40.841 21.891 45.467c17.505 4.627 36.085-8.228 41.499-28.712" style="fill:#ffed9d"/></g><g clip-path="url(#clipPath7762)" style="opacity:.2"><g transform="translate(565.6 689.55)"><path d="m0 0c-23.469 19.482-24.687 75.035 2.691 87.542-2.725-0.048-5.464-0.408-8.182-1.127-21.223-5.609-33.105-30.289-26.541-55.123 5.389-20.388 21.536-34.516 38.887-35.827-2.347 1.213-4.645 2.701-6.855 4.535"/></g></g><g clip-path="url(#clipPath7778)" style="opacity:.5"><g transform="translate(567.58 689.84)"><path d="m0 0c15.811-5.115 35.166 9.634 40.456 28.366 4.449 15.752-4.65 41.386-24.18 51.617-3.191 1.671-10.88 3.268-14.416 3.952 23.251-22.321 18.002-53.539 5.115-74.17-2.118-3.391-4.35-7.024-6.975-9.765" style="fill:#fff"/></g></g><g transform="translate(572.39 732.18)"><path d="m0 0c0.654-2.616-0.634-5.191-2.876-5.752s-4.59 1.106-5.244 3.722 0.633 5.191 2.876 5.752c2.242 0.561 4.59-1.106 5.244-3.722" style="fill:#47422c"/></g><g transform="translate(573.21 735.18)"><path d="m0 0c0.349 0.523 22.495 11.335 22.321 10.811-0.175-0.523 1.918-2.79 1.395-3.138-0.523-0.349-23.019-10.114-23.019-10.114z" style="fill:#47422c"/></g><g transform="translate(569.2 725.24)"><path d="m0 0 4.534-18.31 3.139 1.57-5.58 17.612z" style="fill:#47422c"/></g></g></g></g></svg>
