<?xml version="1.0" encoding="UTF-8"?>
<svg width="152.47mm" height="168.45mm" version="1.1" viewBox="0 0 152.47 168.45" xmlns="http://www.w3.org/2000/svg"><defs><clipPath id="clipPath1543"><path d="m339.04 218.66h180.3v-33.287h-180.3z"/></clipPath><clipPath id="clipPath1567"><path d="m162.8 543.34h413.36v-327.37h-413.36z"/></clipPath><clipPath id="clipPath1659"><path d="m499.67 444.83h73.78v-21.439h-73.78z"/></clipPath><clipPath id="clipPath1715"><path d="m379.41 647.75h203.8v-176.61h-203.8z"/></clipPath><clipPath id="clipPath1731"><path d="m434.8 655.51h132.2v-131.05h-132.2z"/></clipPath></defs><g transform="translate(-20.517 -50.111)"><g transform="matrix(.35278 0 0 -.35278 -495.15 575.87)"><g clip-path="url(#clipPath1731)" style="opacity:.2"></g></g><g transform="translate(459.7 -292.93)"><g transform="matrix(.35278 0 0 -.35278 -293.68 448.93)"><path d="m0 0c-3.637 1.519-6.694 2.318-9.282 2.716-1.351-59.789-16.995-97.863-55.024-118.06-1.343-8.927-5.1-20.039-15.631-26.347 12.826-9.489 37.605-9.009 37.405-19.705-0.486-6.406-14.158-7.835-18.769-7.971-2.555-2.696-6.663-4.834-11.132-4.713-19.684 0.283-36.307 12.147-42.341 11.56-12.176-1.022-28.492 1.152-29.682 8.326-1.102 7.394 11.542 7.947 13.423 11.386-8.035 2.571-12.375 6.148-13.344 9.864-8.842-0.333-18.202-0.359-28.081-0.095-3.449-2.828-7.331-5.34-11.622-7.341 9.611-14.938 42.54-11.941 42.31-24.263-0.485-6.411-14.157-7.834-18.768-7.971-2.556-2.696-6.664-4.833-11.133-4.712-19.683 0.283-36.316 11.611-42.35 11.03-12.176-1.022-28.483 1.682-29.673 8.855-1.177 7.878 13.26 7.46 13.634 11.574 0.151 1.57-0.388 4.451-0.764 6.185-15.662 7.709-25.723 22.66-25.619 39.825-13.024 4.635-23.873 11.671-31.78 19.696-48.453 24.043-58.429 27.063-124.24 27.928 5.658 22.989 35.585 24.082 49.527 23.795 25.162 0.044 47.694-7.682 67.234-17.968-33.446 23.794-62.594 44.038-114.53 51.525 10.674 19.039 30.895 23.958 58.143 23.417 31.851-0.595 52.557-19.59 67.005-41.828-8.263 16.714-18.785 32.775-37.233 50.176 12.926 5.458 26.448-0.573 42.138-12.473 13.884-10.504 20.341-23.83 22.916-37.417 8.353 22.674 27.765 44.983 76.479 69.466l-0.797 0.704c16.805 30.234 23.308 44.266 26.457 74.194-1.942-3.582-4.505-4.662-8.219-5.318 4.609 10.518 4.776 14.366 4.968 20.385-2.579 0.07-4.705-0.611-9.502 1.767 31.287 45.775 82.901 54.52 141.75 35.172v5e-3c0.016-6e-3 0.026-0.011 0.042-0.016 0.216-0.073 0.432-0.141 0.648-0.214l-0.028-0.042c14.43-5.921 13.618-28.419 18.82-43.125 34.502-50.337 10.209-72.766 3.101-103.35-1.541-10.433 7.77-23.584 3.553-36.616" style="fill:#ededed"/></g><g transform="matrix(.35278 0 0 -.35278 -378.71 451.05)"><path d="m0 0c10.503-8.673 6.959-24.322-4.604-38.408 6.685 0.463 10.893 0.927 18.799 4.417-5.466-13.715-18.767-26.312-43.715-33.799 3.983-11.014 33.482-22.159 61.866-27.269-27.582 0.515-58.23-2.278-83.916 30.447 18.636 3.074 29.613 7.307 44.369 19.543-7.879-3.453-13.152-3.135-17.74-1.823 11.855 13.451 27.368 24.421 24.941 46.892" style="fill:#ededed"/></g><g transform="matrix(.35278 0 0 -.35278 -376.34 452.62)"><path d="m0 0s4.397-5.644-0.154-23.456c6.631 0.974 13.967 1.701 21.582 5.787-4.397-14.094-18.177-37.102-42.477-46.482 4.816-10.675 35.802-17.438 64.495-20.354-18.916-13.022-53.044-8.704-88.302 22.389 18.344 4.496 30.763 13.286 44.537 26.62-5.342-0.776-10.739-0.737-17.362 0.921 10.365 13.456 18.662 23.3 17.681 34.575" style="fill:#9d9d9c"/></g><g transform="matrix(.35278 0 0 -.35278 -376.34 452.62)"><path d="m0 0s7.574-5.703 3.023-23.515c6.631 0.974 13.967 1.7 21.582 5.786-4.397-14.093-18.177-37.101-42.477-46.481 4.816-10.676 35.802-17.438 64.495-20.355-18.916-13.021-51.465-9.263-86.724 21.831 18.345 4.495 33.26 18.814 47.034 32.146-7.591-4.048-15.684-3.963-20.358-3.007 10.365 13.456 14.406 22.32 13.425 33.595" style="fill:#ededed"/></g><g transform="matrix(.35278 0 0 -.35278 -374.87 453.86)"><path d="m0 0s5.636-3.151 7.541-13.061c5.135-1.407 18.92 0.06 18.92 0.06s-11.004-32.048-38.953-46.807c19.222-12.358 35.602-14.518 66.447-15.094-26.051-19.245-51.08-14.192-88.676 16.57 18.344 4.495 44.021 33.024 44.021 33.024-5.99-0.709-9.39-0.911-18.228 1.109 10.366 13.455 8.928 24.199 8.928 24.199" style="fill:#c6c6c6"/></g><g transform="matrix(.35278 0 0 -.35278 -374.87 453.86)"><path d="m0 0s8.813-3.21 10.718-13.12c6.63 0.974 20.53 2.71 20.53 2.71s-12.614-34.698-40.563-49.457c19.221-12.358 35.602-14.518 66.447-15.095-18.916-13.021-53.418-14.523-88.676 16.57 18.345 4.495 45.119 35.123 45.119 35.123-6.234-2.029-12.438-0.847-19.305 0.069 10.365 13.456 5.73 23.2 5.73 23.2" style="fill:#ededed"/></g><g transform="matrix(.35278 0 0 -.35278 -321.88 498.92)"><path d="m0 0c10.532 6.308 14.289 17.42 15.631 26.347 37.879 20.122 53.547 57.978 55.005 117.36-1.231 1.532-10.683 4.177-13.674 4.177-0.962-6.731-2.671-13.192-7.424-18.422-0.097-0.106-4.937 4.699-7.084 7.187-15.375-26.285-34.387-30.122-47.608-32.026 4.202 3.89 8.274 14.106 7.597 25.819-2-1.986-16.58-15.821-35.2-19.992 8.205 17.283 4.404 23.051 3.713 26.453-1.652-1.237-17.14-10.501-16.847-10.168 0.819 11.949 0.562 14.452-3.5 20.019-3.704 5.075-9.401 7.933-13.674 12.428-4.524 4.76-6.387 11.323-9.516 16.965-1.69 3.047-3.9 5.614-6.164 8.238-2.156 2.498-4.349 4.988-6.844 7.157-2.789 2.425-5.797 4.147-9.45 4.882-2.607 0.525-5.265 0.632-7.922 0.662-47.169-24.066-66.142-46.056-74.374-68.4-2.575 13.587-9.032 26.914-22.915 37.418-15.69 11.899-29.212 17.931-42.138 12.473 18.447-17.402 28.969-33.463 37.233-50.176-14.448 22.237-35.154 41.232-67.005 41.827-27.249 0.542-47.47-4.378-58.144-23.417 51.941-7.486 81.088-27.731 114.53-51.525-19.539 10.287-42.072 18.012-67.233 17.969-13.942 0.287-43.87-0.806-49.528-23.796 65.816-0.865 75.792-3.885 124.25-27.928 7.906-8.024 18.756-15.061 31.779-19.695-0.103-17.166 9.957-32.117 25.619-39.826 0.376-1.733 0.915-4.615 0.764-6.185-0.373-4.114-14.81-3.696-13.634-11.573 1.191-7.174 17.497-9.878 29.673-8.856 6.034 0.582 22.667-10.747 42.351-11.03 4.468-0.121 8.576 2.017 11.132 4.713 4.611 0.136 18.283 1.56 18.768 7.971 0.231 12.322-32.699 9.324-42.309 24.262 4.291 2.001 8.173 4.514 11.621 7.341 9.879-0.264 19.24-0.238 28.082 0.095 0.968-3.715 5.309-7.292 13.344-9.863-1.881-3.44-14.525-3.993-13.424-11.387 1.19-7.173 17.507-9.348 29.683-8.326 6.034 0.587 22.657-11.277 42.34-11.56 4.469-0.12 8.577 2.017 11.133 4.713 4.611 0.136 18.283 1.565 18.768 7.971 0.2 10.696-24.578 10.217-37.405 19.705" style="fill:#aa5129"/></g><g transform="matrix(.35278 0 0 -.35278 -384.62 455.52)"><path d="m0 0c-0.936 5.057-1.799 10.124-2.026 15.268-3.522 10.154-9.782 19.804-20.367 27.812-15.69 11.899-29.212 17.931-42.138 12.473 18.447-17.402 28.969-33.463 37.233-50.176-14.448 22.237-35.155 41.232-67.005 41.828-27.249 0.541-47.47-4.378-58.144-23.418 51.941-7.486 81.088-27.73 114.53-51.525-19.539 10.287-42.072 18.012-67.233 17.969-13.942 0.287-43.87-0.806-49.528-23.796 62.303-0.818 74.574-3.572 116.81-24.258-0.19 5.727 18.508 9.921 24.255 12.141 2.286 0.884 4.556 1.843 6.812 2.853 0.53 7.761 6.119 40.332 6.799 42.829" style="fill:#ededed"/></g><g transform="matrix(.35278 0 0 -.35278 -345.86 505.16)"><path d="m0 0c-3.109 1.208-6.598 1.475-9.836 2.167-3.62 0.775-7.133 1.918-10.64 3.088-2.816 0.939-5.655 1.826-8.132 3.51-2.642 1.796-4.866 4.114-7.501 5.93-2.217 1.527-4.637 2.805-7.267 3.403-0.86 0.408-2.017 0.432-2.792 0.378-0.039-2e-3 -0.078-8e-3 -0.118-0.011-2.747 0.105-5.509-0.398-8.197-0.896-4.401-0.815-8.507-1.213-12.882 0.056-3.205 0.929-5.907 1.899-9.254 1.071-0.011-3e-3 -0.019-7e-3 -0.03-9e-3 -0.352-0.052-0.677-0.187-0.872-0.399-1.53-1.659-2.17-3.8-3.391-5.649-1.122-1.7-2.787-3.086-4.506-4.14-0.582-0.358-1.242-0.698-1.851-1.1-2.646-0.258-5.327-1.447-5.773-4.251-0.607-3.811 3.819-5.717 6.878-6.179 0.806-0.122 1.618-0.196 2.431-0.235 1.09-0.429 2.262-0.676 3.351-0.787 3.567-0.365 7.253 0.41 10.828 0.491 3.712 0.084 7.538 0.064 11.197-0.642 6.907-1.334 13.282-5.5 19.664-8.309 5.66-2.491 12.918-3.37 18.924-1.618 2.647 0.771 5.019 2.185 7.511 3.324 1.124 0.513 2.32 1.054 3.554 1.236 1.73 0.256 3.497-0.211 5.242-0.12 2.688 0.141 5.79 1.195 6.922 3.908 1.135 2.721-1.099 4.866-3.46 5.783" style="fill:#ff864a"/></g><g transform="matrix(.35278 0 0 -.35278 -312.46 503.22)"><path d="m0 0c-8.541 2.469-17.399 2.829-24.951 8.038-2.92 2.013-5.64 3.402-9.23 2.321-0.382-0.115-0.755-0.252-1.125-0.397-3.666-0.094-7.267-1.631-10.849-2.04-3.293 0.837-6.662 1.369-10.024 1.854-3.361 0.485-7.114 1.509-10.634 1.378-3.526 1.409-8.691-2.307-11.25-4.063-2.348-1.612-5.205-1.654-7.529-3.175-1.814-1.187-3.037-3.342-1.815-5.376 2.606-4.339 10.625-4.228 14.932-3.949 3.499 0.226 6.975 0.531 10.485 0.563 1.101 0.01 2.235-0.051 3.378-0.115 1.127-0.525 2.228-1.171 3.26-1.692 1.981-1 3.987-1.943 5.998-2.882 3.981-1.861 8.005-3.679 12.202-5.007 7.483-2.368 17.147-3.963 24.589-0.548 1.489 0.683 2.651 1.752 3.246 3.056 3.61-0.33 7.359-0.306 10.838 0.574 2.487 0.63 6.246 2.058 6.117 5.218-0.143 3.514-4.847 5.435-7.638 6.242" style="fill:#ff864a"/></g><g transform="matrix(.35278 0 0 -.35278 -495.15 575.87)"><g clip-path="url(#clipPath1543)" style="opacity:.35001"><g transform="translate(404.29 191.1)"><path d="m0 0c-2.317 1.997-5.237 3.476-8.2 4.808-10.514 4.338-19.756 0.052-26.181 3.882-2.826 1.684-5.147 5.123-6.402 7.834-1.349 2.59-2.265 5.532-2.409 8.171-0.095 0.485-0.187 0.97-0.277 1.455-1.642 0.064-3.292 0.303-4.982 0.793-0.731 0.212-1.435 0.422-2.127 0.615-0.073-2.739-0.119-5.499-0.947-8.123-1.239-3.922-3.977-6.277-7.504-8.167-2.498-1.338-4.62-2.99-6.219-5.183 0.143-9e-3 0.286-0.026 0.429-0.032 1.09-0.43 2.262-0.677 3.351-0.788 3.567-0.365 7.253 0.41 10.828 0.491 3.713 0.084 7.539 0.064 11.198-0.642 6.906-1.334 13.281-5.5 19.663-8.309 5.66-2.491 12.918-3.37 18.924-1.618 1.104 0.322 2.159 0.758 3.196 1.236-0.392 1.311-1.12 2.525-2.341 3.577" style="fill:#e23f13"/></g><g transform="translate(414.4 198.44)"><path d="m0 0c-9.364 5.109-20.919 4.012-30.753 8.268-0.381 0.089-0.755 0.183-1.118 0.29 4.474-2.872 10.304-4.245 14.982-6.479 5.026-2.399 11.275-4.858 13.53-10.393 0.053-0.132 0.092-0.266 0.141-0.398 1.053 0.479 2.166 0.958 3.312 1.127 1.677 0.248 3.389-0.179 5.082-0.123-0.427 2.335-1.787 4.501-3.486 6.245-0.538 0.552-1.103 1.035-1.69 1.463" style="fill:#e23f13"/></g><g transform="translate(517.4 197.76)"><path d="m0 0c-4.254 2.145-10.409 5.409-14.914 6.33-2.453 0.501-11.653 3.44-11.233 6.586 0.152 1.139 3.98 1.769 5.637 1.022-1.822 0.762-2.25 1.084-3.957 2.262-2.92 2.013-5.641 3.402-9.23 2.322-0.382-0.116-0.755-0.253-1.125-0.398-3.666-0.093-7.268-1.631-10.85-2.04-3.292 0.837-6.661 1.369-10.024 1.854-1.932 0.279-3.994 0.731-6.066 1.042-0.608-4.012-3.639-7.16-7.595-8.64-3.017-1.129-6.249-1.168-9.354-1.91-3.073-0.734-4.111-2.325-3.714-4.88 3.405-1.082 7.678-0.975 10.434-0.797 3.499 0.226 6.975 0.531 10.484 0.563 1.101 0.01 2.235-0.05 3.379-0.115 1.127-0.525 2.228-1.171 3.26-1.692 1.981-1 3.987-1.943 5.997-2.882 3.982-1.861 8.006-3.679 12.202-5.007 6.157-1.948 11.659-3.856 18.315-2.399-0.603 2.513-2.492 5.374-6.476 7.107-2.62 0.671-5.7 2.786-7.864 4.632-1.489 1.271-4.841 4.581-3.839 6.376 1.434 2.573 10.863 1.296 12.274-2.391 1.489-0.446 2.936-1.177 4.329-1.706 3.933-1.493 9.326-2.451 11.544-6.492 0.411-0.748 0.657-1.704 0.734-2.712 2.282-0.154 7.249-0.197 9.505 0.094 0.192 1.506 0.207 2.832-1.853 3.871" style="fill:#e23f13"/></g></g></g><g transform="matrix(.35278 0 0 -.35278 -495.15 575.87)"><g clip-path="url(#clipPath1567)" style="opacity:.2"><g transform="translate(280.55 307.39)"><path d="m0 0c0.043-0.011 0.085-0.022 0.128-0.033-0.269-0.107-0.54-0.212-0.806-0.324-0.158 0.085-0.315 0.166-0.472 0.249 0.38-0.013 0.767 0.03 1.15 0.108m278.81 57.849c-1.455 0.639-8.703 0.021-10.676-0.419-1.231-0.274-6.856-15.322-7.423-17.804-0.822 2.728-5.891 7.523-6.008 7.46-1.27-0.678-9.264-11.87-12.723-15.806-1.025-1.167-6.497-5.502-8.178-6.392-7.763-4.107-16.574-6.129-25.268-7.763 1.769 2.529 5.485 23.47 5.202 23.269-3.772-2.673-7.587-5.302-11.32-8.034-1.922-1.407-18.709-9.298-24.332-10.809 0.367 0.822 3.12 7.343 3.952 9.905 1.43 4.402 3.286 10.085 2.506 14.723-0.118 0.704-2.732 0.973-2.994 0.865-3.509-1.446-15.853-10.442-16.276-10.747-0.048-6e-3 0.516 8.262-0.097 11.392-0.702 3.582-1.821 7.127-3.795 10.223-2.688 4.217-10.971 9.932-11.067 10.033-1.875 1.985-3.669 4.047-5.376 6.179-0.649 0.811-3.881 47.219 4.141 61.203-2.949-1.079-7.022-4.406-7.942-5.763 2.592 14.711 11.172 26.082 20.013 33.776-6.018-0.063-12.432-3.968-14.333-7.339 3.784 16.98 11.59 39.084 19.532 47.16-10.448-1.953-15.898-5.511-18.776-6.715 4.104 6.535 13.207 14.023 18.588 15.639-3.839 1.215-11.864-1.871-17.896-4.12 6.135 10.046 15.042 20.366 21.269 23.916l-6.031 4.07c-15.811-7.301-29.615-18.946-40.818-35.332 4.797-2.378 6.924-1.697 9.502-1.767-0.192-6.019-0.359-9.867-4.968-20.385 3.715 0.656 6.278 1.736 8.22 5.318-3.15-29.928-9.652-43.96-26.458-74.194l0.797-0.704c-0.893-0.449-1.781-0.899-2.652-1.343l1.878-1.287c-1.204-0.471-2.375-1.006-3.49-1.52-3.775-1.739-11.379-7.777-11.68-8.072-0.597-0.587 0.636-0.913 1.017-0.867 5.215 0.627 9.956 1.933 15.271 1.088 4.291-0.682 8.302-2.481 11.733-5.139 0.046-0.035 0.086-0.073 0.131-0.109 0.376-1.05 1.235-2.109 1.689-2.977 1.139-2.183 2.305-4.353 3.426-6.545 2.328-4.551 4.755-9.188 6.669-13.925 1.866-4.616 3.49-9.32 4.907-14.092 0.711-2.392 1.498-4.764 2.12-7.181 0.569-2.212 0.809-4.675 1.614-6.834 0.208-0.83 0.438-1.657 0.695-2.479 0.64-4.855 1.352-9.695 1.842-14.555-0.402-2.688-0.882-5.376-1.367-8.068-0.087-0.086-0.149-0.192-0.168-0.322-0.157-1.064-0.308-2.131-0.46-3.198-0.379-2.15-0.74-4.304-1.044-6.461-1.473-6.188-3.093-12.337-5.769-18.1-4.756-10.244-12.761-17.429-22.6-22.711-9.894-5.311-20.827-9.855-31.661-12.817-6.083-1.663-12.282-2.468-18.586-2.009-5.569 0.406-11.13 1.346-16.666 2.153-2.866 0.988-5.748 1.943-8.547 3.11-5.509 2.299-10.868 4.941-16.031 7.938-4.981 2.893-9.926 6.025-14.451 9.597-2.315 1.828-4.531 3.778-6.793 5.671-1.391 1.163-2.728 2.491-4.135 3.701 0.438 0.087 0.871 0.181 1.293 0.286 1.052 0.26 2.075 0.585 3.078 0.957 2.209 0.528 4.405 1.153 6.615 1.808 5.858 1.735 12.04 3.27 17.562 5.929 1.501 0.544 2.909 1.357 4.23 2.34 0.242 0.104 0.483 0.208 0.719 0.308 2.148 0.92 4.046 2.323 3.981 4.529 0.045 0.164 0.036 0.349-0.055 0.557-0.033 0.193-0.077 0.391-0.14 0.597-0.085 0.278-0.382 0.373-0.686 0.352-0.753 0.54-1.722 0.699-2.679 0.884-1.877 0.364-2.756 1.231-3.091 2.782 0.325 0.615 0.643 1.236 0.791 1.934 7e-3 0.032 0.011 0.065 0.017 0.098 0.788 0.676 1.532 1.427 2.311 2.173 1.999 1.918 3.963 3.877 5.831 5.924 3.613 3.958 7.405 8.026 9.935 12.785 2.383 4.482 3.847 9.398 4.325 14.456 0.251 2.668 0.119 5.311-0.353 7.949-0.476 2.666-1.683 4.246-2.901 6.384 0.082 0.247 0.149 0.498 0.188 0.754 0.138 0.908-1.637 0.902-2.101 0.591-2.846-1.907-4.853-6.002-6.68-8.856-1.885-2.945-3.672-5.953-5.293-9.051-0.342 0.303-0.859 0.493-1.406 0.585-0.197 2.32-0.644 4.645-1.174 6.92-1.356 5.812-4.065 10.813-7.414 15.645-0.695 1.57-1.528 3.058-2.542 4.412-0.393 0.524-2.132 0.429-1.847-0.455 1.139-3.539 2.571-6.906 3.385-10.559 0.832-3.735 1.178-7.574 1.215-11.396 0.035-3.637-0.25-7.253-0.618-10.868-0.553-0.77-1.07-1.562-1.545-2.359-0.046-0.077-0.085-0.158-0.131-0.236-0.74 2.707-1.721 5.373-2.73 7.959-2.879 7.379-6.916 14.26-11.201 20.906-4.208 6.529-8.323 13.005-13.776 18.596-2.371 2.43-4.914 4.765-7.712 6.696-2.656 1.833-5.812 4.192-9.139 4.321-0.063 2e-3 -0.139-5e-3 -0.219-0.016-0.719 0.691-1.892 0.706-2.928 0.483-0.694-0.149-2.022-0.862-1.168-1.739 2.626-2.7 5.592-4.993 8.393-7.5 2.704-2.421 4.983-5.131 7.196-7.996 4.667-6.043 8.958-12.409 12.705-19.064 1.763-3.133 3.441-6.341 4.961-9.621 0.335-2.433 0.623-4.875 0.876-7.317-0.773 0.72-1.544 1.65-1.994 2.1-0.695 0.695-1.324 1.417-1.918 2.177-1.661 2.356-3.546 4.58-5.183 6.682-3.946 5.066-8.322 9.771-13.048 14.114-0.097 0.089-0.454 0.06-0.328-0.113 0.021-0.029 0.041-0.057 0.062-0.085-0.331 0.332-0.664 0.66-1.009 0.972-0.128 0.116-0.719 0.155-0.593-0.146 1.577-3.76 3.916-7.126 5.704-10.794 1.759-3.61 3.247-7.363 4.469-11.187 0.581-1.819 1.094-3.659 1.542-5.515-3.548 3.145-7.318 6.042-11.256 8.67-16.935 11.299-36.82 17.624-57.011 19.505-11.977 1.115-24.776 1.569-36.541-1.109-1.125-0.256-1.262-1.34-0.029-1.586 2.016-0.402 4.044-0.709 6.081-0.95 0.265-0.055 0.531-0.106 0.796-0.159 4.481-1.698 9.159-3.464 13.906-4.538 0.645-0.199 1.288-0.394 1.918-0.59 3.98-1.235 7.958-2.478 11.929-3.74 7.871-2.501 15.67-5.198 23.293-8.386 15.318-6.407 30.243-15.154 42.391-26.555 3.532-3.315 6.913-6.834 10.137-10.449 0.076-0.087 0.15-0.175 0.226-0.262-0.01-0.033-0.017-0.07-0.027-0.103-0.053-0.172-0.12-0.327-0.195-0.472-1.037 0.192-2.044 0.355-2.93 0.546-2.696 0.584-5.391 1.162-8.103 1.649-0.145 0.075-0.29 0.149-0.434 0.224-5.351 2.741-10.737 5.397-16.169 7.97-1.515 0.859-4.255 2.306-5.031 1.174-0.671-0.979 7.063-5.156 7.838-5.67 0.343-0.228 0.682-0.465 1.023-0.697 1.687-1.608 3.336-3.292 4.945-4.971 0.88-0.996 1.755-1.995 2.625-2.995 0.721-0.829 1.427-1.673 2.132-2.518-3.95 1.711-7.971 3.185-12.092 4.438-4.727 1.438-9.541 2.611-14.408 3.455-7.785 1.967-15.682 3.358-23.693 4.122-9.618 0.917-19.245 0.88-28.86-0.069-4.634-0.457-9.309-0.984-13.873-1.916-2.224-0.454-4.488-0.978-6.618-1.774-1.279-0.477-3.383-1.026-3.879-2.425-0.425-0.194-0.374-0.693 0.085-0.866 3.884-1.454 8.896-0.933 13.001-1.098 4.877-0.196 9.754-0.389 14.631-0.588 9.535-0.388 19.088-0.817 28.553-2.092 9.299-1.252 18.293-3.461 27.065-6.79 4.054-2.374 8.197-4.592 12.407-6.699 1.488-0.745 3.259-1.491 5.129-2.038 0.052-0.021 0.098-0.044 0.152-0.064 0.681-0.254 1.407-0.438 2.152-0.577 2.674-1.526 5.942-1.758 9.05-1.383 1.221-1.414 2.721-2.684 3.995-3.898 2.086-1.986 4.324-3.793 6.604-5.553 4.899-3.782 9.862-7.402 15.182-10.578 4.818-2.877 9.821-5.465 14.961-7.72-0.421-1.7 0.013-4.084 0.322-5.469 0.052-0.231 0.12-0.45 0.185-0.672-0.492-1.579-0.12-3.215 1.335-4.536 0.902-3.24 2.225-6.391 3.664-9.167 2.822-5.447 7.024-9.824 11.995-13.367 5.148-3.67 10.89-6.559 16.884-8.565 2.997-1.002 6.068-1.798 9.176-2.362 1.92-0.349 5.453-1.453 7.167-0.133 0.01 8e-3 0.016 0.017 0.026 0.025 0.052 7e-3 0.104 7e-3 0.156 0.015 0.278 0.047 0.646 0.235 0.537 0.575-0.363 1.128-1.724 1.515-2.692 2.046-1.616 0.887-3.174 1.85-4.636 2.978-2.812 2.17-5.219 4.807-7.212 7.743-2.179 3.208-3.71 6.718-4.746 10.446-0.391 1.406-0.716 2.814-0.966 4.244 2.693 0.167 5.369 0.428 7.995 0.722 12.624 1.413 25.119 4.722 36.433 10.575 20.614 10.662 34.682 30.043 36.833 53.327 4.21 22.957-3.126 51.067-4.33 55.134-1.157 3.91-2.56 7.942-4.251 11.853 14.662-12.578 23.654-27.498 17.49-45.441 6.479 0.502 11.076 3.099 16.056 7.352 0.705-5.817 0.249-11.523-4.797-18.218 10.957-1.506 21.087 0.797 30.586 5.015 0.283-4.983-0.764-7.938-4.552-11.366 39.814 2.93 52.179 15.585 59.833 29.29 1.708-1.978 4.928-5.019 6.928-9.387 4.473 4.364 10.186 16.794 10.308 21.673 0.783-0.326 1.64-0.62 2.519-0.843-19.499-86.121-63.107-96.086-139.82-106.08l-15.792-19.908c137.48-2.57 154.94 53.12 160.04 125.7 0.768-0.227 2.011 10.567 0.625 11.176m16.777 62.103c-2.816-1.944 0.702 3.059-2.453 1.629-2.737-1.241-11.597-9.221-14.475-10.073-3.663-1.084-7.136-1.662-10.942-1.874-0.991-0.055-1.991-0.135-2.995-0.218-2.858 0.224-5.733 0.299-8.599 0.454-2.353 0.285-4.699 0.608-7 1.151-3.613 0.852-7.149 2.24-10.537 3.831-2.119 1.503-4.121 3.158-5.914 5.058-2.562 2.714-8.452 13.242-10.235 14.727 0.957 1.263-9.621 4.208-12.439 5.021 0.664 1.291 1.153 2.747 1.073 4.04-0.133 2.581 0.398 6.147-9.641 2.545-2.503-1.93-4.224-5.613-3.42-8.778 0.788-3.1 4.363-4.347 7.215-3.289 0.844 0.314 1.573 0.805 2.202 1.412 1.505-1.001 3.206-1.777 4.307-2.172 1.233-0.442 5.446-6.33 6.171-7.843 0.861-1.797 1.917-3.52 2.991-5.195 2.285-3.565 4.904-6.785 7.884-9.793 6.027-6.082 12.619-10.493 21.166-12.029 8.283-1.488 17.565-1.225 25.777 0.582 4.123 0.907 8.103 2.409 11.467 5.006 4.271 3.758 5.446 8.065 5.669 8.528 0.271 0.564 3.006 7.472 2.728 7.28" style="fill:#350b00"/></g></g></g><g transform="matrix(.35278 0 0 -.35278 -294.96 447.51)"><path d="m0 0c-10.212 6.283-13.41 2.126-19.214 6.451l-7.235-18.67-5.416 7.782c-10.802-18.205-26.8-31.016-44.314-32.808 5.301 7.317 4.935 14.644 5.51 25.588-14.999-11.241-19.484-15.13-35.334-19.998 5.461 8.77 4.663 13.42 4.916 26.923l-19.471-12.084c6.272 16.701-12.635 25.397-23.356 39.899-1.724 5.817-4.139 10.635-6.981 14.729-5.082 7.305-11.556 12.31-18.019 16.562 13.238 16.767 21.88 42.392 21.965 81.504l-6.491-4.62c3.645 6.521 3.812 9.792 4.281 16.208l-5.501-0.14c9.192 9.437 18.226 16.61 27.161 21.957 34.327 20.525 67.287 14.067 102.95 5.274 11.796-5.104 9.731-24.903 17.524-40.145 29.975-40.024 11.949-70.944 3.135-101.5-2.863-8.686 6.599-22.503 3.888-32.914m-165.16-133.81c8.918 8.652 14.275 19.247 15.641 27.13-6.137-15.157-30.004-37.223-53.142-37.495-31.387-0.092-40.583 18.307-42.642 37.94 12.065-3.219 25.667-4.395 40.3-2.586 95.202 15.791 60.714 111.93 48.334 129.76 33.474-79.552-5.854-114.84-50.005-124.78-24.609-3.603-58.143 3.847-79.109 27.964 19.324 4.226 33.042 10.681 44.567 22.824l-15.527 0.47c16.672 13.461 27.258 31.978 19.335 42.545 0.748-9.835-7.348-22.72-15.847-33.08 3.405 34.287 20.948 61.409 78.288 90.869 0.652 0.333 1.315 0.67 1.979 1.007 4.641-4.78 12.735-7.585 18.873-15.307 2.516-3.156 4.698-7.138 6.188-12.41 9.045-18.825 27.386-13.897 24.323-45.14 0.477 0.875 12.495 7.59 17.44 10.321 1.121-6.054-0.496-11.257-6.074-25.44 17.173 4.844 28.392 9.931 36.658 19.974-1.287-12.159-2.778-13.985-11.355-26.538 24.158 2.992 47.563 15.055 54.14 34.214l7.26-8.346 7.402 19.111c1.381-0.635 3.171-0.361 5.733-0.224 0.253-119.35-75.784-134.81-152.76-132.78m67.321-13.564c-20.852 0.374-33.431 4.73-36.514 10.689 27.886 1.56 50.457 6.346 68.438 14.702-2.408-11.174-15.35-24.281-31.924-25.391m54.562-17.456c-0.076-4.077-7.023-4.795-11.83-4.091 0.403 2.026-0.325 3.868-2.663 4.891l-28.912 11.304c0.476-0.321 15.71-10.554 22.889-12.425 7.125-1.987 2.684-7.467-6.156-8.011-14.493-0.529-31.955 11.742-38.086 12.19-10.302-0.782-26.492-2.036-27.298 3.864-0.188 3.271 12.183 5.371 14.604 8.536 6.09-1.248 13.608-2.029 22.653-2.15 6.921-0.13 12.587 0.909 17.224 2.745 13.793-12.235 37.683-11.113 37.575-16.853m-99.242-3.247c-0.077-4.077-7.019-4.795-11.826-4.09 0.403 2.021-0.33 3.867-2.663 4.891l-28.922 10.774c0.476-0.305 15.72-10.024 22.899-11.901 7.12-1.987 2.684-7.466-6.156-8.006-14.498-0.534-31.97 11.213-38.096 11.661-10.301-0.782-26.492-2.042-27.298 3.864-0.213 3.627 15.031 5.811 15.012 9.609l-0.259 4.597c5.019-1.582 10.453-2.494 16.187-2.601 6.847-0.128 13.103 1.01 18.745 3.029 11.961-18.117 42.498-15.345 42.377-21.827m-258.48 115.54c3.823 11.598 20.796 16.736 41.619 16.172 43.009-2.705 56.227-13.684 88.76-31.613-5.77-2.075-12.44-3.804-21.674-6.72l0.077-0.112c-29.739 16.06-48.079 23.342-108.78 22.273m3.71 56.28c5.297 11.004 19.211 17.45 48.249 16.902 46.066-2.169 65.647-43.349 82.799-77.645-0.619-0.571-1.202-1.095-1.734-1.557 0.804-0.015 1.647-4e-3 2.5 0.028 1.001-2 1.997-3.973 2.988-5.909-0.775-0.415-1.556-0.798-2.342-1.17-33.926 25.017-65.524 61.797-132.46 69.351m84.963 26.529c6.963 3.526 17.345 0.985 34.081-11.681 15.611-12.433 20.767-28.166 21.945-44.227-2.125-8.282-3.097-16.655-3.788-25.244-0.637-0.677-1.264-1.327-1.879-1.952-9.208 25.461-17.999 54.181-50.359 83.104m312.41 2.304c7.108 30.585 31.401 53.014-3.101 103.35-5.202 14.707-4.389 37.204-18.819 43.126l0.027 0.042c-0.216 0.073-0.432 0.14-0.648 0.213-0.015 6e-3 -0.026 0.011-0.042 0.017v-6e-3c-37.779 12.424-72.581 13.264-100.93 0.16-15.811-7.301-29.615-18.945-40.818-35.331 4.797-2.379 6.924-1.698 9.502-1.767-0.192-6.02-0.359-9.867-4.968-20.386 3.715 0.656 6.278 1.737 8.219 5.318-3.149-29.927-9.651-43.96-26.457-74.194l0.797-0.703c-0.893-0.45-1.781-0.899-2.652-1.344-46.771-23.958-65.625-45.864-73.827-68.123-2.575 13.588-9.032 26.914-22.915 37.418-15.69 11.899-29.212 17.931-42.138 12.473 18.447-17.402 28.969-33.463 37.232-50.176-14.448 22.237-35.154 41.232-67.004 41.827-27.249 0.542-47.47-4.378-58.144-23.417 51.94-7.486 81.088-27.731 114.53-51.525-19.539 10.287-42.072 18.012-67.234 17.969-13.941 0.287-43.869-0.806-49.527-23.796 65.816-0.864 75.792-3.885 124.24-27.928 7.907-8.024 18.757-15.06 31.78-19.695-0.103-17.166 9.957-32.117 25.619-39.825 0.376-1.734 0.915-4.615 0.764-6.186-0.373-4.114-14.811-3.696-13.634-11.573 1.19-7.174 17.497-9.878 29.673-8.855 6.034 0.581 22.667-10.748 42.35-11.031 4.469-0.121 8.577 2.017 11.133 4.713 4.611 0.136 18.283 1.56 18.768 7.971 0.231 12.322-32.699 9.324-42.309 24.262 4.29 2.002 8.173 4.514 11.621 7.342 9.879-0.264 19.24-0.238 28.081 0.094 0.969-3.715 5.309-7.292 13.345-9.863-1.881-3.44-14.525-3.993-13.424-11.387 1.19-7.173 17.507-9.348 29.683-8.325 6.033 0.586 22.656-11.277 42.34-11.561 4.469-0.12 8.577 2.017 11.133 4.713 4.611 0.137 18.283 1.566 18.768 7.971 0.2 10.697-24.578 10.217-37.405 19.705 10.532 6.308 14.288 17.42 15.631 26.347 38.029 20.202 53.673 58.276 55.024 118.06 2.588-0.398 5.645-1.196 9.282-2.716 4.217 13.032-5.093 26.184-3.553 36.617" style="fill:#75310b"/></g><g transform="matrix(.35278 0 0 -.35278 -336.48 465.93)"><path d="m0 0c6.91-5.44 12.976-11.723 14.713-15.889 4.586 1.685 10.191 4.416 17.022 13.041-4.715-8.779-9.928-13.505-18.749-17.428-5.12 10.112-6.048 12.601-12.986 20.276" style="fill:#75310b"/></g><g transform="matrix(.35278 0 0 -.35278 -323.56 469.24)"><path d="m0 0c6.923-4.743 13.004-10.215 14.752-13.84 4.581 1.453 10.179 3.812 16.989 11.288-4.694-7.615-9.895-11.708-18.706-15.094-5.144 8.797-6.078 10.961-13.035 17.646" style="fill:#75310b"/></g><g transform="matrix(.35278 0 0 -.35278 -332.87 475.45)"><path d="m0 0c6.815-4.896 12.774-10.502 14.44-14.164 4.613 1.351 10.262 3.585 17.236 10.907-4.862-7.509-10.152-11.485-19.036-14.674-4.948 8.909-5.833 11.093-12.64 17.931" style="fill:#75310b"/></g><g transform="matrix(.35278 0 0 -.35278 -346.73 472.63)"><path d="m0 0c6.816-4.896 12.774-10.502 14.441-14.164 4.612 1.351 10.261 3.585 17.235 10.907-4.861-7.509-10.152-11.485-19.036-14.674-4.947 8.909-5.833 11.093-12.64 17.931" style="fill:#75310b"/></g><g transform="matrix(.35278 0 0 -.35278 -318.08 476.85)"><path d="m0 0c6.816-4.896 12.774-10.502 14.441-14.164 4.612 1.351 10.261 3.585 17.235 10.907-4.862-7.509-10.152-11.485-19.036-14.674-4.948 8.909-5.833 11.093-12.64 17.931" style="fill:#75310b"/></g><g transform="matrix(.35278 0 0 -.35278 -326.01 482.62)"><path d="m0 0c6.816-4.895 12.774-10.502 14.441-14.164 4.612 1.351 10.261 3.585 17.235 10.908-4.862-7.509-10.152-11.485-19.036-14.675-4.947 8.909-5.833 11.094-12.64 17.931" style="fill:#75310b"/></g><g transform="matrix(.35278 0 0 -.35278 -342.04 480.71)"><path d="m0 0c6.815-4.896 12.774-10.502 14.44-14.164 4.613 1.351 10.262 3.585 17.236 10.907-4.861-7.509-10.152-11.485-19.036-14.674-4.947 8.909-5.833 11.093-12.64 17.931" style="fill:#75310b"/></g><g transform="matrix(.35278 0 0 -.35278 -314.4 507.1)"><path d="m0 0c0.403 2.026-0.325 3.867-2.663 4.891l-2.871 1.122c0.283 2.022 0.675 3.782 2.877 4.31 8.118-2.116 14.543-3.25 14.488-6.232-0.077-4.078-7.024-4.796-11.831-4.091m-14.842-4.241c-1.016-0.038-2.048-5e-3 -3.089 0.075-0.801 1.583-1.32 3.209-0.907 5.188 0.475 2.281 2.346 4.224 4.496 4.998 2.113-1.025 4.079-1.839 5.656-2.25 7.125-1.988 2.684-7.467-6.156-8.011m-15.911 3.178c-2.529 4.487 2.754 11.123 8.578 11.35 2.02-1.191 4.17-2.404 6.242-3.47-0.963-0.393-1.861-0.948-2.625-1.67-2.412-2.281-3.039-6.226-1.61-9.064-3.521 0.515-7.111 1.573-10.585 2.854m-2.113 0.808c-2.644 1.051-5.194 2.195-7.569 3.289-0.608 2.005-0.563 4.149 0.296 6.215 1.704 4.099 5.937 7.012 10.34 5.774 1.423-0.926 3.575-2.302 6.035-3.787-3.182-0.259-6.391-2.333-8.123-4.907-1.253-1.864-1.59-4.446-0.979-6.584m6.406 16.934c0.789 0.964 2.107 1.295 3.287 1.376 0.463 0.031 0.898 1e-3 1.318-0.067 1.582-1.035 3.242-1.941 4.937-2.752-1.445-0.648-2.713-2.215-2.61-3.751l-7.868 3.076c0.433 0.685 0.398 1.462 0.936 2.118m11.08-2.148c3.45-1.514 7.006-2.644 10.366-3.575-1.478-0.934-2.581-2.577-2.443-4.191l-10.684 4.178c0.123 1.533 0.581 2.857 2.322 3.467 0.15 0.053 0.295 0.09 0.439 0.121m-64.846-2.719c-0.128 2.231 5.581 3.918 9.994 5.768-0.864-1.125-1.458-2.469-1.712-3.877-0.483-2.677 0.419-4.712 2.096-6.342-5.573 0.302-9.968 1.45-10.378 4.451m59.026 11.372c0.293 0.175-5.885-2.771-4.544-2.241 0.767-0.68 1.567-1.317 2.39-1.918-0.449-0.033-0.879-0.093-1.267-0.179-1.462-0.322-4.932-2.284-3.469-4.013l-1.006 0.393c-5e-3 6e-3 -6e-3 0.011-0.012 0.018-3.379 3.344-8.898-0.161-11.203-3.093-1.852-2.357-2.74-5.451-2.143-8.184-2.244 1.04-4.289 1.987-6.053 2.698-0.62 2.302-0.265 4.524 1.255 6.657 1.629 2.285 3.786 2.896 6.088 4.198 0.523 0.295-0.101 0.705-0.448 0.71-4.637 0.075-10.727-6.468-9.007-10.793-0.884 0.282-1.662 0.465-2.309 0.512-3.445-0.261-7.549-0.575-11.516-0.657-0.817 1.468-1.536 2.965-1.55 4.75-0.024 3.018 2.624 5.639 5.03 7.118 0.47 0.289-0.203 0.582-0.483 0.544-2.655-0.362-5.442-3.57-6.122-6.092-0.547-2.024 0.026-4.402 1.175-6.339-0.795 0-1.577 0.013-2.343 0.039-1.422 2.056-2.06 4.523-1.315 7.044 0.518 1.754 1.588 3.115 2.603 4.552 0.78 0.448 1.407 0.913 1.795 1.403-1.63 0.325-4.484 1.138-6.641 1.757-1.881-3.44-14.525-3.993-13.424-11.387 1.19-7.173 17.507-9.348 29.683-8.326 6.034 0.587 22.657-11.277 42.341-11.56 4.468-0.12 8.576 2.017 11.132 4.713 4.611 0.136 18.283 1.565 18.768 7.971 0.2 10.696-24.578 10.217-37.405 19.705" style="fill:#e23f13"/></g><g transform="matrix(.35278 0 0 -.35278 -349.41 508.24)"><path d="m0 0c0.361 1.809-0.193 3.477-1.986 4.541 0.03 1.252 0.226 2.457 1.235 3.437 1.949 1.896 5.261 0.188 7.428-0.537 0.159-0.053 0.494 4e-3 0.641 0.127 2.807-0.905 4.536-1.927 4.507-3.477-0.076-4.078-7.018-4.795-11.825-4.091m-3.266 5.115-9.307 3.468c-0.044 1.413 0.842 2.766 2.163 3.51 0.071 0.04 0.144 0.072 0.216 0.107 3.329-1.083 6.615-1.895 9.595-2.604-0.013-5e-3 -0.026-8e-3 -0.038-0.014-1.795-0.791-2.589-2.6-2.629-4.467m-10.345-9.243c-0.12 1.676-0.174 3.336 0.677 4.897 1.195 2.191 3.513 2.541 5.771 2.435 4.576-2.179 0.861-6.469-6.448-7.332m-1.714-0.119c-1.518-0.027-3.066 0.074-4.629 0.281-0.109 0.545-0.295 1.081-0.421 1.655-0.431 1.965-0.421 3.392 0.898 5.068 1.259 1.6 2.943 2.714 4.823 3.345 1.486-0.702 2.903-1.311 4.175-1.769-1.29-0.097-2.522-0.553-3.582-1.605-1.895-1.88-2.207-4.64-1.264-6.975m-6.165 8.212c-1.888-2.126-2.288-5.179-0.914-7.528-3.216 0.629-6.455 1.635-9.582 2.787-0.48 1.773-0.417 3.652 0.441 5.456 1.6 3.364 5.362 5.013 8.959 5.59 1.888-1.07 3.906-2.168 5.876-3.163-1.798-0.515-3.418-1.609-4.78-3.142m-12.478-3.988c-4.055 1.591-7.856 3.352-11.094 4.764-0.039 0.125-0.087 0.245-0.121 0.373-0.95 3.525 0.439 6.656 2.929 9.154 2.029 2.034 4.475 3.801 7.074 5.031 1.538 0.728 3.145 1.266 4.841 1.488 1.578 0.207 3.01-0.077 4.513-0.264 2.021-1.789 4.254-3.291 6.605-4.556-1.267-0.941-2.295-2.834-1.79-4.241l-10.574 3.94c0.21-0.135 3.288-2.098 7.28-4.411-3.166-0.536-6.662-2.766-8.144-4.741-1.496-1.994-1.957-4.361-1.519-6.537m16.184 15.25c1.941-0.954 3.941-1.762 5.942-2.467-1.262-0.922-1.896-2.351-1.736-3.803l-6.204 2.312c0.033 0.347-0.036 0.671-1e-3 1.131 0.098 1.281 0.856 2.357 1.999 2.827m-55.31-8.1c-0.588 0.621-1.082 1.37-1.451 2.317-0.692 1.775-0.871 3.948-0.302 5.773 2.425 0.984 5.17 1.947 7.106 3.002-1.144-3.368-1.277-7.031 0.702-10.179 0.276-0.439 0.611-0.876 0.984-1.298-2.518-0.01-4.935 0.093-7.039 0.385m-7.142 4.156c-0.077 1.313 1.872 2.437 4.387 3.516-0.359-1.194-0.426-2.522-0.186-3.845 0.258-1.425 0.764-2.607 1.469-3.581-3.183 0.635-5.385 1.826-5.67 3.91m54.131 16.458c1.045 0.487-5.841-2.323-4.446-1.824 0.994-1.506 2.125-2.858 3.349-4.092-5.295 0.716-11.081-2.261-14.922-5.535-2.63-2.242-5.076-5.157-4.994-8.811 0.015-0.646 0.101-1.304 0.245-1.964-2.527 1.057-4.617 1.799-6.065 1.905-0.595-0.046-1.211-0.092-1.841-0.139-0.359 1.075-0.849 2.101-1 3.277-0.22 1.717 2e-3 3.517 0.596 5.138 0.553 1.51 1.451 2.85 2.526 4.04 0.974 1.08 2.313 1.759 3.216 2.869 0.071 0.087-0.079 0.136-0.145 0.124-5.845-1.093-10.479-10.55-6.756-15.562-2.594-0.183-5.38-0.348-8.103-0.405-0.909 0.931-1.623 2.055-2.089 3.264-1.3 3.372-0.287 6.525 0.822 9.702 0.309 0.372 0.49 0.759 0.487 1.164l-0.011 0.206c0.034 0.099 0.069 0.198 0.103 0.298 0.055 0.165-0.017 0.279-0.139 0.353l-0.211 3.74c0.741-0.233-8.542 3.53-7.366 2.951 0.376-1.734 0.915-4.615 0.764-6.186-0.374-4.113-14.811-3.696-13.634-11.573 1.19-7.173 17.497-9.877 29.673-8.855 6.034 0.581 22.667-10.748 42.35-11.031 4.469-0.12 8.577 2.017 11.133 4.713 4.611 0.136 18.283 1.56 18.768 7.971 0.23 12.322-32.699 9.325-42.31 24.262" style="fill:#e23f13"/></g><g transform="matrix(.35278 0 0 -.35278 -294.96 447.51)"><path d="m0 0c-10.212 6.283-13.41 2.126-19.214 6.451l-7.235-18.67-5.416 7.782c-10.802-18.205-26.8-31.016-44.314-32.808 5.301 7.317 4.935 14.644 5.51 25.588-14.999-11.241-19.484-15.13-35.334-19.998 5.461 8.77 4.663 13.42 4.916 26.923l-19.471-12.084c6.272 16.701-12.635 25.397-23.356 39.899-4.809 16.193-14.911 24.651-25 31.291 13.238 16.767 21.88 42.392 21.965 81.504l-6.491-4.62c3.645 6.521 3.812 9.792 4.281 16.208l-5.501-0.14c44.513 45.692 85.162 38.311 130.11 27.231 11.796-5.104 9.731-24.903 17.524-40.145 29.975-40.024 11.949-70.944 3.135-101.5-2.863-8.686 6.599-22.503 3.888-32.914m0.079 32.576c7.108 30.585 31.401 53.014-3.101 103.35-5.202 14.707-4.389 37.204-18.819 43.126l0.027 0.042c-0.216 0.073-0.432 0.14-0.648 0.213-0.015 6e-3 -0.026 0.011-0.042 0.017v-6e-3c-58.849 19.349-110.46 10.604-141.75-35.171 4.797-2.379 6.924-1.698 9.502-1.767-0.192-6.02-0.359-9.867-4.968-20.386 3.715 0.656 6.278 1.737 8.219 5.318-3.149-29.927-9.651-43.96-26.457-74.194l0.797-0.703c2.646-1.529 2.646-1.529 4.175-3.659 6.538-6.733 19.934-9.553 25.061-27.717 9.045-18.825 27.386-13.897 24.323-45.14 0.477 0.875 12.495 7.59 17.44 10.321 1.121-6.054-0.496-11.257-6.074-25.44 17.173 4.844 28.392 9.931 36.658 19.974-1.287-12.159-2.778-13.985-11.355-26.538 24.158 2.992 47.563 15.055 54.14 34.214l7.26-8.346 7.402 19.111c1.381-0.635 3.171-0.361 5.733-0.224 2.531 0.136 3.191 0.124 6.748-0.296 2.588-0.398 5.645-1.196 9.282-2.716 4.217 13.032-5.093 26.184-3.553 36.617m-276.63-12.21c-15.69 11.899-29.212 17.931-42.138 12.473 18.447-17.402 28.969-33.463 37.232-50.176-14.448 22.237-35.154 41.232-67.004 41.827-27.249 0.542-47.47-4.378-58.144-23.417 51.94-7.486 81.088-27.731 114.53-51.525-19.539 10.287-42.072 18.012-67.234 17.969-13.941 0.287-43.869-0.806-49.527-23.796 58.817-0.773 73.049-3.273 109.99-20.954 2.146 0.931 4.347 1.713 6.564 2.457-29.702 16.036-48.059 23.307-108.72 22.239 3.823 11.598 20.796 16.736 41.619 16.172 43.005-2.705 56.224-13.682 88.751-31.608 0.543 0.244 5.928 2.426 5.8 2.365-33.926 25.017-65.524 61.797-132.46 69.351 5.297 11.004 19.211 17.45 48.249 16.902 46.066-2.169 65.647-43.349 82.799-77.645-0.077-0.071 1.859 1.778 4.273 4.171-9.207 25.459-17.999 54.179-50.358 83.101 6.963 3.526 17.345 0.985 34.081-11.681 15.489-12.336 20.684-27.921 21.915-43.852 0.652 2.367 1.244 4.342 2.691 8.209-2.575 13.588-9.032 26.914-22.915 37.418" style="fill:#827d7c"/></g><g transform="matrix(.35278 0 0 -.35278 -316.75 391)"><path d="m0 0c0.442 5.922-2.214 10.986-18.462 9.489-7.384-0.925-21.022-8.453-20.339-17.986-0.23-3.363 24.006-2.777 31.225-2.133 6.112 0.489 7.059 1.42 7.576 10.63" style="fill:#b2b2b2"/></g><g transform="matrix(.35278 0 0 -.35278 -301.18 386.99)"><path d="m0 0c-16.315 0.298-18.591-4.948-17.715-10.82 1.193-9.147 2.206-10.007 8.337-10.045 3.41-0.052 10.576 0.185 17.159 0.798 2.907 0.526 0.345 19.926-7.781 20.067" style="fill:#b2b2b2"/></g><g transform="matrix(.35278 0 0 -.35278 -317.73 412.18)"><path d="m0 0c2.027 3.05 3.279 7.948 3.424 15.684 0.311 13.237-6.741 20.52-17.491 20.721-10.749 0.201-19.67-10.884-19.88-22.141-0.093-4.994 0.074-8.753 0.472-11.562-2.151-0.919-4.076-2.122-5.677-3.628 2.2 0.409 4.247 0.768 6.165 1.082 14.191 2.282 21.328 1.82 32.026-1.404 1.854-0.559 3.813-1.205 5.934-1.928-1.514 1.178-3.184 2.237-4.973 3.176" style="fill:#010016"/></g><g transform="matrix(.35278 0 0 -.35278 -323.16 405.11)"><path d="m0 0c1.119-5.742 5.083-9.801 8.853-9.066 3.771 0.735 5.92 5.985 4.801 11.727s-5.082 9.801-8.853 9.066c-3.771-0.734-5.92-5.985-4.801-11.727" style="fill:#fff"/></g><g transform="matrix(.35278 0 0 -.35278 -296.08 411.74)"><path d="m0 0c1.71 3.056 2.775 7.957 2.919 15.693 0.301 13.238-5.593 20.499-14.609 20.667-9.015 0.169-16.532-10.942-16.742-22.199-0.093-4.994 0.036-8.752 0.362-11.56-1.808-0.925-3.426-2.134-4.774-3.645 1.848 0.415 3.565 0.781 5.175 1.1 11.91 2.325 17.896 1.885 26.859-1.307 1.554-0.554 3.195-1.193 4.972-1.91-1.267 1.173-2.664 2.227-4.162 3.161" style="fill:#010016"/></g><g transform="matrix(.35278 0 0 -.35278 -300.6 404.68)"><path d="m0 0c0.921-5.738 4.234-9.785 7.399-9.039s4.984 6.003 4.062 11.741c-0.921 5.739-4.234 9.785-7.399 9.039-3.164-0.746-4.983-6.003-4.062-11.741" style="fill:#fff"/></g><g transform="matrix(.35278 0 0 -.35278 -289.69 419.58)"><path d="m0 0c-1.543 7.207-4.9 13.461-10.975 17.794-2.946 2.101-6.239 3.773-9.575 5.158-1.607 0.668-7.889 3.186-9.03 3.428-3.801 0.803-7.884 0.523-11.735 0.401-7.976-0.253-19.264-2.286-27.305-9.71-3.307-2.178-6.387-4.713-9.522-7.127-1.996-1.536-5.826-3.558-6.606-6.112-1.621-2.236 1.401-5.877 2.658-7.88 2.27-3.615 4.495-7.303 7.425-10.433 2.387-2.55 12.36-8.245 14.661-8.923 4.09-1.205 19.331-3.462 21.319-3.453 5.205 0.026 10.492 1.046 15.377 2.817 4.665 1.691 15.567 10.378 16.43 12.076 2.794-0.36 6.027-0.786 7.534 1.892 1.452 2.581-0.08 7.384-0.656 10.072" style="fill:#ff864a"/></g><g transform="matrix(.35278 0 0 -.35278 -299.68 424.09)"><path d="m0 0c-8.237-1.65-16.89-4.991-25.36-3.371-8.092 1.548-12.322 8.049-17.954 13.303-3.541 3.303-8.439 5.783-13.389 6.199-0.951-2.249 1.75-5.539 2.922-7.406 2.27-3.615 4.495-7.302 7.425-10.433 2.387-2.55 12.36-8.245 14.661-8.922 4.09-1.206 19.331-3.463 21.32-3.454 5.204 0.026 10.491 1.046 15.376 2.817 4.335 1.571 14.046 9.177 16.095 11.61-6.96 2.195-14.012 1.076-21.096-0.343" style="fill:#ef6a30"/></g><g transform="matrix(.35278 0 0 -.35278 -495.15 575.87)"><g clip-path="url(#clipPath1659)" style="opacity:.39999"><g transform="translate(573.45 431.68)"><path d="m0 0c-0.09 0.182-0.18 0.363-0.27 0.545-16.98 3.447-35.837-10.159-50.013-2.968-8.678 4.377-8.739 11.954-22.928 15.573-0.265-0.967-0.462-1.944-0.569-2.943 12.676-2.968 11.85-10.053 22.784-15.879 17.84-8.108 32.798 5.539 50.007 2.032 0.351 1.208 0.687 2.419 0.989 3.64" style="fill:#590000"/></g></g></g><g transform="matrix(.35278 0 0 -.35278 -319.35 418.76)"><path d="m0 0c9.918-14.558 11.046-25.034 40.85-26.746 16.508-0.301 26.993 3.864 33.111 12.64l3.732-1.049c-7.236-7.701-13.24-14.88-37.385-14.429-29.839 2-33.11 12.309-44.423 29.747z" style="fill:#bc1f00"/></g><g transform="matrix(.35278 0 0 -.35278 -291.42 423.28)"><path d="m0 0c-18.032 7.215-38.94-9.493-54.33-1.685-8.987 4.532-8.728 12.497-24.493 15.944 8.729 6.11 18.18 21.352 41.507 21.583 34.073-0.355 38.032-16.67 40.724-33.083 0.317-1.93-1.591-3.486-3.408-2.759m8.439-4.213c-3.034 19.458-5.507 42.076-45.051 42.815-35.59 0.665-39.066-33.188-55.344-20.424 2.459 2.263 5.135 3.264 3.94 4.385-1.314 1.232-5.655 1.061-8.267-1.723-2.612-2.785-2.506-7.128-1.192-8.361 1.059-0.994 1.828 1.045 3.455 3.331 2.064-1.827 3.932-2.963 5.677-3.55 4e-3 -3e-3 4e-3 -8e-3 0.01-0.01 9e-3 -1e-3 0.017-1e-3 0.026-2e-3 1.567-0.52 3.037-0.601 4.46-0.326 19.159-1.978 16.373-10.233 28.803-16.857 21.095-9.587 38.158 11.263 59.679-1.821 1.836-1.116 4.135 0.421 3.804 2.543" style="fill:#e23f13"/></g><g transform="matrix(.35278 0 0 -.35278 -300.99 413.76)"><path d="M 0,0 C 0,0 -16.231,-1.015 -14.614,3.563 -12.009,11.177 0,0 0,0" style="fill:#e23f13"/></g><g transform="matrix(.35278 0 0 -.35278 -298.94 388.38)"><path d="m0 0c1.787-4.365 2.612-7.833 3.796-12.915 10.159 3.204 16.975 14.592 23.235 27.341l-28.067-12.654z" style="fill:#9e0017"/></g><g transform="matrix(.35278 0 0 -.35278 -350.25 409.66)"><path d="m0 0c1.802 7.453 0.507 16.989 4.539 23.383 10.299 16.332 31.778 26.74 54.051 37.384 51.658-18.994 82.42-0.473 111.61 14.873 12.49 16.687 9.969 30.745 0 21.561l-23.757-11.618-7.706 22.924c-6.346 8.421-4.504 22.419-0.686 42.042 5.502 14.448 2.407 23.847-16.84 29.658-47.721 9.558-94.818 11.049-138.87-26.833-31.723-34.602-2.845-44.144 10.239-71.677-13.444-13.746-24.67-29.157-25.421-52.428 1.298-15.777 13.261-24.898 32.836-29.269" style="fill:#c90000"/></g><g transform="matrix(.35278 0 0 -.35278 -337.54 371.52)"><path d="m0 0c49.92 15.622 113.19 7.178 106.01-11.747l4.415-10.784c-26.587-12.927-54.919-9.627-83.929 0z" style="fill:#095ace"/></g><g transform="matrix(.35278 0 0 -.35278 -495.15 575.87)"><g clip-path="url(#clipPath1715)" style="opacity:.2"><g transform="translate(555.15 533.23)"><path d="m0 0 1.036-1.773c1.787-4.365 2.612-7.833 3.796-12.915 10.159 3.204 16.975 14.593 23.235 27.342zm-50.287 29.669c18.075-3.646 32.978-7.249 36.19-10.692l14.638 6.204c-6.907 4.93-25.183 5.97-50.828 4.488m-45.496-24.412c-3.917 2.228-7.921 4.448-12.194 5.923-4.409 1.521-8.916 1.708-13.385 0.298-9.104-2.871-16.575-9.589-22.822-16.558-6.526-7.278-12.432-15.296-17.978-23.34-3.913-5.676-7.543-11.595-10.427-17.857 5.355-7.798 15.061-12.88 28.207-15.815 1.705 7.052 0.831 17.282 4.539 23.382 10.008 16.468 30.595 25.957 52.649 36.702-0.206 0.391-0.433 0.774-0.691 1.144-1.933 2.766-5.03 4.489-7.898 6.121m11.455 31.518c15.603 4.26 42.488 7.882 48.693 7.631-16.338 2.146-32.836 1.791-49.501-1.157-0.138 0.898-3.673 17.043-5.799 24.089-1.713 5.673-3.3 11.43-5.588 16.905-6.154 15.607-27.331 6.062-27.869 30.276-12.751-5.121-25.317-12.636-37.644-23.238-30.665-33.447-2.2-45.223 11.384-70.723 3.733 2.461 21.372 20.13 29.151 23.212 3.283 1.301 6.877 2.023 10.389 1.339 3.748-0.729 7.159-3.142 10.155-5.394 5.351-4.021 9.98-8.859 14.859-13.418 0 0 2.422-2.169 2.422-2.146 28.039-9.434 49.598-10.896 65.316-5.173-36.744 4.455-54.664 7.825-65.714 14.877-0.075 0.974-0.158 1.948-0.254 2.92" style="fill:#1d1d1b"/></g></g></g><g transform="matrix(.35278 0 0 -.35278 -292.13 383.12)"><path d="m0 0c-21.725-14.286-63.413-33.591-114.24-7.115-30.334 25.133-55.018-8.576-78.216-45.783-5.612 16.496-2.412 31.046 19.03 54.337 40.705 47.826 45.521 21.185 68.984 7.425 40.701-14.846 75.44-10.089 106.35 7.27 7.903 9.142 10.079 6.807 9.163 0.802-1.061-6.961-5.18-13.067-11.063-16.936m-161.7-51.089c-1.984-3.617-2.558-17.29-3.71-20.267-10.307 1.807-15.669 4.024-24.919 12.633 30.285 48.183 47.961 67.23 77.665 45.702 0.863-0.438 1.726-0.856 2.59-1.265-20.985-9.755-38.601-21.076-51.626-36.803m-25.283 117.94c34.724 37.366 82.461 47.303 142.84 33.719 34.164-11.989-1.767-32.174 14.652-65.444-1.73 0.826-3.752 1.701-6.12 2.633-19.562 7.481-65.899 7.637-95.997-2.75-7.183 1.402-16.841-3.941-36.79-22.96-6.757 21.966-40.123 27.039-18.585 54.802m66.813-39.619c-1.792 1.769-3.449 3.354-5.104 4.639 27.711 8.947 62.297 9.138 86.759 2.983 19.86-9.003 10.8-8.307 11.519-14.397 0.47-1.617 2.152-3.309 3.502-5.061-8.176 2.541-25.74 3.828-47.151 1.142 23.614 0.508 40.377-0.856 47.935-4.734-23.62-8.59-49.691-10.365-80.62 1.365-6.504 3.99-11.116 8.4-14.98 12.221 22.579 6.984 44.658 7.572 62.318 5.885-17.352 4.025-40.67 3.224-64.178-4.043m135.5-6.997c-0.274 9.654-5.103 11.931-14.344 2.63-5.863-3.3-10.781-6.283-16.915-8.832-0.687 2.906-3.241 5.886-3.646 8.012-0.374 2.691 4.051 4.579-3.777 10.708-12.947 51.182 21.723 61.239-16.12 73.356-58.461 17.947-127.14 2.758-153.38-34.9-26.971-40.195 12.396-42.438 17.105-66.315-0.143-0.143-0.281-0.277-0.425-0.421-29.303-29.204-25.866-50.428-19.598-62.699l2.604-5.031c4.021-7.957 21.779-14.685 29.872-14.79 0.245 0.892 0.743 3.094 1.336 6.12h2e-3c0.625 2.283 2.567 17.115 2.81 19.027 16.911 19.449 29.624 26.822 52.992 36.854 39.875-16.874 80.342-4.251 106.71 10.511 1.189 0.666 2.32 1.41 3.388 2.222-4.58-9.891-10.767-19.956-19.472-24.506l1.382-6.678c14.246 7.121 21.217 26.565 27.416 43.359h-1e-3c1.439 3.554 2.169 7.413 2.057 11.373" style="fill:#7a0a2c"/></g><g transform="matrix(.35278 0 0 -.35278 -333.55 362.24)"><path d="M 0,0 C 18.073,10.851 49.795,6.221 59.158,-1.158 41.466,5.247 23.577,5.739 0,0" style="fill:#7a0a2c"/></g><g transform="matrix(.35278 0 0 -.35278 -354.55 376.15)"><path d="m0 0c-0.389 16.659 15.997 33.687 36.835 43.559-18.989-12.384-35.697-31.346-31.525-48.648z" style="fill:#7a0a2c"/></g></g></g></svg>
