<?xml version="1.0" encoding="UTF-8" standalone="no"?>
<!-- Created with Inkscape (http://www.inkscape.org/) -->

<svg
   xmlns:dc="http://purl.org/dc/elements/1.1/"
   xmlns:cc="http://creativecommons.org/ns#"
   xmlns:rdf="http://www.w3.org/1999/02/22-rdf-syntax-ns#"
   xmlns:svg="http://www.w3.org/2000/svg"
   xmlns="http://www.w3.org/2000/svg"
   xmlns:sodipodi="http://sodipodi.sourceforge.net/DTD/sodipodi-0.dtd"
   xmlns:inkscape="http://www.inkscape.org/namespaces/inkscape"
   width="197.23738mm"
   height="166.88013mm"
   viewBox="0 0 197.23738 166.88013"
   version="1.1"
   id="svg8"
   sodipodi:docname="horse.svg"
   inkscape:version="0.92.3 (2405546, 2018-03-11)">
  <defs
     id="defs2">
    <clipPath
       id="clipPath831"
       clipPathUnits="userSpaceOnUse">
      <path
         inkscape:connector-curvature="0"
         id="path829"
         d="M 0,2352.235 H 3254.362 V 0 H 0 Z" />
    </clipPath>
    <clipPath
       id="clipPath951"
       clipPathUnits="userSpaceOnUse">
      <path
         inkscape:connector-curvature="0"
         id="path949"
         d="M 447.851,1164.22 H 923.287 V 792.555 H 447.851 Z" />
    </clipPath>
    <clipPath
       id="clipPath967"
       clipPathUnits="userSpaceOnUse">
      <path
         inkscape:connector-curvature="0"
         id="path965"
         d="M 472.007,1181.15 H 919.058 V 855.713 H 472.007 Z" />
    </clipPath>
    <clipPath
       id="clipPath1015"
       clipPathUnits="userSpaceOnUse">
      <path
         inkscape:connector-curvature="0"
         id="path1013"
         d="M 612.855,1161.39 H 958.848 V 992.616 H 612.855 Z" />
    </clipPath>
    <clipPath
       id="clipPath1123"
       clipPathUnits="userSpaceOnUse">
      <path
         inkscape:connector-curvature="0"
         id="path1121"
         d="M 246.462,2099.25 H 905.173 V 1560.38 H 246.462 Z" />
    </clipPath>
    <clipPath
       id="clipPath1219"
       clipPathUnits="userSpaceOnUse">
      <path
         inkscape:connector-curvature="0"
         id="path1217"
         d="M 625.372,2025.42 H 1080.69 V 1579.37 H 625.372 Z" />
    </clipPath>
    <clipPath
       id="clipPath1235"
       clipPathUnits="userSpaceOnUse">
      <path
         inkscape:connector-curvature="0"
         id="path1233"
         d="M 506.435,2083.64 H 1039.39 V 1585.53 H 506.435 Z" />
    </clipPath>
    <clipPath
       id="clipPath1439"
       clipPathUnits="userSpaceOnUse">
      <path
         inkscape:connector-curvature="0"
         id="path1437"
         d="M 537.226,2200.16 H 1110.52 V 1823.78 H 537.226 Z" />
    </clipPath>
    <clipPath
       id="clipPath1483"
       clipPathUnits="userSpaceOnUse">
      <path
         inkscape:connector-curvature="0"
         id="path1481"
         d="M 714.626,1999.27 H 869.94 V 1876.73 H 714.626 Z" />
    </clipPath>
    <clipPath
       id="clipPath1543"
       clipPathUnits="userSpaceOnUse">
      <path
         inkscape:connector-curvature="0"
         id="path1541"
         d="M 339.039,218.662 H 519.336 V 185.375 H 339.039 Z" />
    </clipPath>
    <clipPath
       id="clipPath1567"
       clipPathUnits="userSpaceOnUse">
      <path
         inkscape:connector-curvature="0"
         id="path1565"
         d="M 162.795,543.339 H 576.151 V 215.967 H 162.795 Z" />
    </clipPath>
    <clipPath
       id="clipPath1659"
       clipPathUnits="userSpaceOnUse">
      <path
         inkscape:connector-curvature="0"
         id="path1657"
         d="m 499.666,444.826 h 73.78 v -21.439 h -73.78 z" />
    </clipPath>
    <clipPath
       id="clipPath1715"
       clipPathUnits="userSpaceOnUse">
      <path
         inkscape:connector-curvature="0"
         id="path1713"
         d="M 379.408,647.751 H 583.213 V 471.139 H 379.408 Z" />
    </clipPath>
    <clipPath
       id="clipPath1731"
       clipPathUnits="userSpaceOnUse">
      <path
         inkscape:connector-curvature="0"
         id="path1729"
         d="M 434.795,655.51 H 567 V 524.458 H 434.795 Z" />
    </clipPath>
    <clipPath
       id="clipPath1775"
       clipPathUnits="userSpaceOnUse">
      <path
         inkscape:connector-curvature="0"
         id="path1773"
         d="m 1281.55,399.608 h 94.47 v -142.2 h -94.47 z" />
    </clipPath>
    <clipPath
       id="clipPath1799"
       clipPathUnits="userSpaceOnUse">
      <path
         inkscape:connector-curvature="0"
         id="path1797"
         d="m 1110.69,235.629 h 150.92 v -48.131 h -150.92 z" />
    </clipPath>
    <clipPath
       id="clipPath1827"
       clipPathUnits="userSpaceOnUse">
      <path
         inkscape:connector-curvature="0"
         id="path1825"
         d="m 937.32,560.953 h 413.22 V 233.844 H 937.32 Z" />
    </clipPath>
    <clipPath
       id="clipPath1895"
       clipPathUnits="userSpaceOnUse">
      <path
         inkscape:connector-curvature="0"
         id="path1893"
         d="m 1273.13,463.578 h 73.96 v -20.797 h -73.96 z" />
    </clipPath>
    <clipPath
       id="clipPath2007"
       clipPathUnits="userSpaceOnUse">
      <path
         inkscape:connector-curvature="0"
         id="path2005"
         d="m 1219.2,582.74 h 134.52 V 513.015 H 1219.2 Z" />
    </clipPath>
    <clipPath
       id="clipPath2023"
       clipPathUnits="userSpaceOnUse">
      <path
         inkscape:connector-curvature="0"
         id="path2021"
         d="m 1187.24,576.432 h 130.31 v -75.558 h -130.31 z" />
    </clipPath>
    <clipPath
       id="clipPath2107"
       clipPathUnits="userSpaceOnUse">
      <path
         inkscape:connector-curvature="0"
         id="path2105"
         d="M 1467.38,2026.46 H 2000.1 V 1561.78 H 1467.38 Z" />
    </clipPath>
    <clipPath
       id="clipPath2123"
       clipPathUnits="userSpaceOnUse">
      <path
         inkscape:connector-curvature="0"
         id="path2121"
         d="m 1492.01,2025.54 h 525.37 v -464.96 h -525.37 z" />
    </clipPath>
    <clipPath
       id="clipPath2203"
       clipPathUnits="userSpaceOnUse">
      <path
         inkscape:connector-curvature="0"
         id="path2201"
         d="m 1610.02,1999.54 h 30.6 v -57.16 h -30.6 z" />
    </clipPath>
    <clipPath
       id="clipPath2231"
       clipPathUnits="userSpaceOnUse">
      <path
         inkscape:connector-curvature="0"
         id="path2229"
         d="m 1495.97,1868.7 h 369.68 v -214.94 h -369.68 z" />
    </clipPath>
    <clipPath
       id="clipPath2247"
       clipPathUnits="userSpaceOnUse">
      <path
         inkscape:connector-curvature="0"
         id="path2245"
         d="m 1526.61,1886.73 h 337.6 v -212.68 h -337.6 z" />
    </clipPath>
    <clipPath
       id="clipPath2371"
       clipPathUnits="userSpaceOnUse">
      <path
         inkscape:connector-curvature="0"
         id="path2369"
         d="m 2265.25,2026.46 h 532.73 v -464.68 h -532.73 z" />
    </clipPath>
    <clipPath
       id="clipPath2387"
       clipPathUnits="userSpaceOnUse">
      <path
         inkscape:connector-curvature="0"
         id="path2385"
         d="m 2289.88,2025.54 h 525.37 v -464.96 h -525.37 z" />
    </clipPath>
    <clipPath
       id="clipPath2467"
       clipPathUnits="userSpaceOnUse">
      <path
         inkscape:connector-curvature="0"
         id="path2465"
         d="m 2407.89,1999.54 h 30.6 v -57.16 h -30.6 z" />
    </clipPath>
    <clipPath
       id="clipPath2495"
       clipPathUnits="userSpaceOnUse">
      <path
         inkscape:connector-curvature="0"
         id="path2493"
         d="m 2293.86,1868.7 h 369.67 v -214.94 h -369.67 z" />
    </clipPath>
    <clipPath
       id="clipPath2511"
       clipPathUnits="userSpaceOnUse">
      <path
         inkscape:connector-curvature="0"
         id="path2509"
         d="m 2324.5,1886.73 h 337.59 V 1674.05 H 2324.5 Z" />
    </clipPath>
    <clipPath
       id="clipPath2615"
       clipPathUnits="userSpaceOnUse">
      <path
         inkscape:connector-curvature="0"
         id="path2613"
         d="m 2669.99,554.906 h 383.59 V 186.268 h -383.59 z" />
    </clipPath>
    <clipPath
       id="clipPath2631"
       clipPathUnits="userSpaceOnUse">
      <path
         inkscape:connector-curvature="0"
         id="path2629"
         d="m 2753.43,620.375 h 329.48 V 200.817 h -329.48 z" />
    </clipPath>
    <clipPath
       id="clipPath2651"
       clipPathUnits="userSpaceOnUse">
      <path
         inkscape:connector-curvature="0"
         id="path2649"
         d="m 2977.94,455.033 h 13.2 v -4.883 h -13.2 z" />
    </clipPath>
    <clipPath
       id="clipPath2719"
       clipPathUnits="userSpaceOnUse">
      <path
         inkscape:connector-curvature="0"
         id="path2717"
         d="m 2869.43,627.172 h 168.84 V 326.318 h -168.84 z" />
    </clipPath>
    <clipPath
       id="clipPath2735"
       clipPathUnits="userSpaceOnUse">
      <path
         inkscape:connector-curvature="0"
         id="path2733"
         d="m 2901.17,631.334 h 123.27 V 348.581 h -123.27 z" />
    </clipPath>
    <clipPath
       id="clipPath2775"
       clipPathUnits="userSpaceOnUse">
      <path
         inkscape:connector-curvature="0"
         id="path2773"
         d="m 1622.31,842.884 h 26.19 v -73.338 h -26.19 z" />
    </clipPath>
    <clipPath
       id="clipPath2791"
       clipPathUnits="userSpaceOnUse">
      <path
         inkscape:connector-curvature="0"
         id="path2789"
         d="m 1617.56,906.417 h 27.59 V 847.52 h -27.59 z" />
    </clipPath>
    <clipPath
       id="clipPath2807"
       clipPathUnits="userSpaceOnUse">
      <path
         inkscape:connector-curvature="0"
         id="path2805"
         d="m 1434.98,1037.67 h 320.24 V 769.546 h -320.24 z" />
    </clipPath>
    <clipPath
       id="clipPath2823"
       clipPathUnits="userSpaceOnUse">
      <path
         inkscape:connector-curvature="0"
         id="path2821"
         d="m 1555.05,997.892 h 136.7 V 769.546 h -136.7 z" />
    </clipPath>
    <clipPath
       id="clipPath2839"
       clipPathUnits="userSpaceOnUse">
      <path
         inkscape:connector-curvature="0"
         id="path2837"
         d="m 1623.42,1004.14 h 57.66 v -32.804 h -57.66 z" />
    </clipPath>
    <clipPath
       id="clipPath2855"
       clipPathUnits="userSpaceOnUse">
      <path
         inkscape:connector-curvature="0"
         id="path2853"
         d="m 1616.24,913.926 h 31.64 v -47.332 h -31.64 z" />
    </clipPath>
    <clipPath
       id="clipPath2871"
       clipPathUnits="userSpaceOnUse">
      <path
         inkscape:connector-curvature="0"
         id="path2869"
         d="m 1419.25,1034.36 h 151.61 V 769.546 h -151.61 z" />
    </clipPath>
    <clipPath
       id="clipPath2915"
       clipPathUnits="userSpaceOnUse">
      <path
         inkscape:connector-curvature="0"
         id="path2913"
         d="m 1421.63,1389.58 h 391.92 v -377.61 h -391.92 z" />
    </clipPath>
    <clipPath
       id="clipPath2931"
       clipPathUnits="userSpaceOnUse">
      <path
         inkscape:connector-curvature="0"
         id="path2929"
         d="m 1421.25,1382.4 h 396.18 v -369.5 h -396.18 z" />
    </clipPath>
    <clipPath
       id="clipPath3007"
       clipPathUnits="userSpaceOnUse">
      <path
         inkscape:connector-curvature="0"
         id="path3005"
         d="m 1457.52,1388.06 h 311.71 v -332.02 h -311.71 z" />
    </clipPath>
    <clipPath
       id="clipPath3165"
       clipPathUnits="userSpaceOnUse">
      <path
         inkscape:connector-curvature="0"
         id="path3163"
         d="m 1545.37,1368.03 h 259.81 v -307.18 h -259.81 z" />
    </clipPath>
    <clipPath
       id="clipPath3181"
       clipPathUnits="userSpaceOnUse">
      <path
         inkscape:connector-curvature="0"
         id="path3179"
         d="m 1554.6,1361.27 h 265.25 V 1088.08 H 1554.6 Z" />
    </clipPath>
    <clipPath
       id="clipPath3225"
       clipPathUnits="userSpaceOnUse">
      <path
         inkscape:connector-curvature="0"
         id="path3223"
         d="m 1473.34,1426.95 h 241.04 v -140.78 h -241.04 z" />
    </clipPath>
    <clipPath
       id="clipPath3241"
       clipPathUnits="userSpaceOnUse">
      <path
         inkscape:connector-curvature="0"
         id="path3239"
         d="m 1480.94,1451.88 h 230.74 v -122.23 h -230.74 z" />
    </clipPath>
    <clipPath
       id="clipPath3345"
       clipPathUnits="userSpaceOnUse">
      <path
         inkscape:connector-curvature="0"
         id="path3343"
         d="m 2292.36,1251 h 463.22 V 783.462 h -463.22 z" />
    </clipPath>
    <clipPath
       id="clipPath3361"
       clipPathUnits="userSpaceOnUse">
      <path
         inkscape:connector-curvature="0"
         id="path3359"
         d="m 2317.7,1273.42 h 442.42 V 839.361 H 2317.7 Z" />
    </clipPath>
    <clipPath
       id="clipPath3457"
       clipPathUnits="userSpaceOnUse">
      <path
         inkscape:connector-curvature="0"
         id="path3455"
         d="m 2488.84,1380.06 h 284.2 V 1108 h -284.2 z" />
    </clipPath>
    <clipPath
       id="clipPath3473"
       clipPathUnits="userSpaceOnUse">
      <path
         inkscape:connector-curvature="0"
         id="path3471"
         d="m 2472.26,1371.48 h 342.02 v -247.07 h -342.02 z" />
    </clipPath>
    <clipPath
       id="clipPath3505"
       clipPathUnits="userSpaceOnUse">
      <path
         inkscape:connector-curvature="0"
         id="path3503"
         d="M 1803.37,321.456 H 1963.4 V 213.502 h -160.03 z" />
    </clipPath>
    <clipPath
       id="clipPath3521"
       clipPathUnits="userSpaceOnUse">
      <path
         inkscape:connector-curvature="0"
         id="path3519"
         d="M 1805.22,469.197 H 2289 V 257.06 h -483.78 z" />
    </clipPath>
    <clipPath
       id="clipPath3537"
       clipPathUnits="userSpaceOnUse">
      <path
         inkscape:connector-curvature="0"
         id="path3535"
         d="m 1800.76,439.781 h 458.71 V 202.414 h -458.71 z" />
    </clipPath>
    <clipPath
       id="clipPath3633"
       clipPathUnits="userSpaceOnUse">
      <path
         inkscape:connector-curvature="0"
         id="path3631"
         d="m 2130.76,437.803 h 71.83 V 314.839 h -71.83 z" />
    </clipPath>
    <clipPath
       id="clipPath3681"
       clipPathUnits="userSpaceOnUse">
      <path
         inkscape:connector-curvature="0"
         id="path3679"
         d="m 2122.87,441.576 h 163.16 v -21.93 h -163.16 z" />
    </clipPath>
    <clipPath
       id="clipPath3697"
       clipPathUnits="userSpaceOnUse">
      <path
         inkscape:connector-curvature="0"
         id="path3695"
         d="m 2125.25,519.439 h 117.14 v -75.564 h -117.14 z" />
    </clipPath>
    <clipPath
       id="clipPath3713"
       clipPathUnits="userSpaceOnUse">
      <path
         inkscape:connector-curvature="0"
         id="path3711"
         d="m 2152.39,518.915 h 158.84 v -92.203 h -158.84 z" />
    </clipPath>
    <clipPath
       id="clipPath3733"
       clipPathUnits="userSpaceOnUse">
      <path
         inkscape:connector-curvature="0"
         id="path3731"
         d="m 2040.31,303.306 h 176.47 v -77.935 h -176.47 z" />
    </clipPath>
  </defs>
  <sodipodi:namedview
     id="base"
     pagecolor="#ffffff"
     bordercolor="#666666"
     borderopacity="1.0"
     inkscape:pageopacity="0.0"
     inkscape:pageshadow="2"
     inkscape:zoom="0.24748737"
     inkscape:cx="-1492.5013"
     inkscape:cy="-941.81298"
     inkscape:document-units="mm"
     inkscape:current-layer="layer1"
     showgrid="false"
     inkscape:window-width="1920"
     inkscape:window-height="1017"
     inkscape:window-x="-8"
     inkscape:window-y="-8"
     inkscape:window-maximized="1"
     fit-margin-top="0"
     fit-margin-left="0"
     fit-margin-right="0"
     fit-margin-bottom="0" />
  <metadata
     id="metadata5">
    <rdf:RDF>
      <cc:Work
         rdf:about="">
        <dc:format>image/svg+xml</dc:format>
        <dc:type
           rdf:resource="http://purl.org/dc/dcmitype/StillImage" />
        <dc:title></dc:title>
      </cc:Work>
    </rdf:RDF>
  </metadata>
  <g
     inkscape:label="Layer 1"
     inkscape:groupmode="layer"
     id="layer1"
     transform="translate(-3.5230143,-101.96468)">
    <g
       id="g10004"
       transform="translate(-298.27279,242.68073)">
      <g
         transform="matrix(0.35277777,0,0,-0.35277777,499.03315,-53.650473)"
         id="g2301">
        <path
           inkscape:connector-curvature="0"
           id="path2303"
           style="fill:#934d2e;fill-opacity:1;fill-rule:nonzero;stroke:none"
           d="m 0,0 c -13.595,-53.316 -30.188,-70.614 -76.09,-68.135 -28.233,1.282 -38.042,21.704 -46.415,43.19 -6.832,6.334 -14.014,9.189 -22.096,10.81 5.667,-21.926 7.897,-48.11 6.017,-78.547 11.339,-14.401 22.217,-28.224 28.07,-35.66 9.358,-10.115 -5.546,-42.369 -13.416,-63.378 -2.065,-6.07 -7.372,-12.864 -11.916,-17.478 -5.958,-6.487 -54.291,-3.31 -52.962,4.237 4.905,23.886 6.282,46.135 0.207,66.043 -2.955,0.249 -5.874,0.577 -8.744,0.985 1.509,-2.828 2.272,-5.942 2.272,-8.945 0,-9.491 -18.494,-37.957 -25.421,-45.547 -5.122,-6.18 -43.958,-5.534 -43.784,1.764 1.06,16.063 15.714,36.898 11.652,44.133 -4.788,7.547 -22.218,3.304 -29.087,15.544 -2.875,-0.429 -5.852,-0.789 -8.929,-1.075 1.684,-4.592 3.305,-9.422 4.475,-15.174 3.438,-18.356 -4.867,-43.878 -15.427,-69.983 -1.081,-2.669 -3.411,-4.628 -6.223,-5.238 -24.659,-5.37 -61.531,-5.752 -59.206,3.549 10.148,44.09 1.769,56.223 -6.334,84.468 -7.812,0.212 -15.205,0.614 -22.186,1.297 9.634,-14.712 20.327,-31.041 22.869,-34.922 3.178,-5.297 -32.836,-18.007 -44.132,-18.007 -22.244,-0.027 -62.495,40.25 -63.978,53.665 0,12.939 10.407,23.192 19.506,28.409 -14.559,18.849 -21.058,48.814 -19.193,96.019 -6.329,-1.494 -14.215,-2.193 -24.606,-1.732 -25.909,2.113 -26.831,10.349 -38.482,42.544 -2.998,10.645 5.651,15.279 9.004,19.95 2.282,3.549 0.561,33.287 5.904,41.628 -1.774,5.243 -2.467,10.322 -2.303,15.2 -7.897,-3.225 -17.213,-10.952 -28.144,-24.876 6.186,52.776 14.829,70.809 55.763,86.195 -0.233,0.995 -0.429,2.044 -0.577,3.141 -9.205,-3.496 -19.294,-8.538 -31.528,-15.19 2.95,9.433 14.019,27.789 32.762,38.641 3.956,21.825 14.056,45.239 20.729,46.097 7.134,-2.039 14.511,-20.988 17.419,-37.756 12.891,-1.181 27.461,-6.117 43.672,-16.572 5.709,25.374 40.531,57.554 46.95,57.506 6.917,0 19.368,-50.144 5.779,-79.517 24.441,-22.937 39.164,-38.931 48.035,-53.766 10.768,-11.889 19.252,-22.196 24.612,-36.13 3.156,-4.528 6.053,-9.168 8.69,-13.923 28.314,8.373 54.382,8.791 76.535,1.323 -13.727,43.302 20.698,55.202 49.254,65.233 -12.419,-13.786 -14.702,-23.144 -12.424,-33.652 6.36,8.125 17.784,12.865 42.348,10.349 C -61.563,96.385 -80.083,54.603 -78.378,19.315 -67.87,-18.192 -57.468,-49.349 0,0" />
      </g>
      <g
         transform="matrix(0.35277777,0,0,-0.35277777,366.51394,-109.66601)"
         id="g2305">
        <path
           inkscape:connector-curvature="0"
           id="path2307"
           style="fill:#c69c6c;fill-opacity:1;fill-rule:nonzero;stroke:none"
           d="m 0,0 c -2.515,-4.402 -2.032,-8.565 -0.466,-13.235 1.553,-4.631 3.811,-8.975 5.591,-13.515 1.65,-4.209 9.408,-40.377 9.343,-43.868 -0.076,-4.09 -3.422,-32.07 -4.809,-41.731 0.008,-0.032 0.023,-0.058 0.025,-0.094 0.557,-9.947 -4.361,-19.102 -4.981,-28.886 0.255,-0.013 -0.635,-14.27 -2.793,-20.788 6.338,3.64 12.048,8.079 17.823,12.557 5.158,4 11.136,7.98 14.382,13.818 0.332,0.598 1.077,-13.209 -0.19,-19.104 0.401,-3.423 -4.993,-24.622 -7.973,-31.49 -3.12,-7.189 -6.262,-14.523 -8.384,-22.084 3.824,2.846 7.908,5.307 11.852,7.979 3.734,2.53 16.71,16.37 19.426,20.564 2.711,4.186 5.06,8.59 6.922,13.219 1.554,3.865 3.797,11.904 3.775,11.924 -0.205,0.18 9.425,-9.858 12.177,-15.919 1.381,-3.043 2.513,-6.194 3.471,-9.394 0.887,-2.968 2.101,-6.116 1.838,-9.261 2.451,2.456 10.515,18.437 10.318,18.685 -0.209,0.265 7.574,-9.514 9.823,-14.51 1.215,-2.699 2.194,-5.499 2.92,-8.368 0.689,-2.723 0.895,-5.408 0.939,-8.178 1.814,4.587 3.26,13.571 3.179,13.166 -0.066,-0.335 2.322,18.153 1.259,27.224 -0.445,3.797 -2.876,18.886 -4.007,22.654 -2.143,7.14 -3.777,14.48 -6.252,21.511 -2.333,6.632 -6.148,21.864 -6.354,21.804 -2.638,4.755 -5.535,9.395 -8.691,13.923 -5.36,13.934 -13.844,24.241 -24.612,36.13 C 42.849,-31.743 2.267,11.884 0,0" />
      </g>
      <g
         transform="matrix(0.35277777,0,0,-0.35277777,350.35196,-116.96286)"
         id="g2309">
        <path
           inkscape:connector-curvature="0"
           id="path2311"
           style="fill:#c69c6c;fill-opacity:1;fill-rule:nonzero;stroke:none"
           d="m 0,0 c 0.587,3.368 0.632,9.968 0.601,9.826 -12.037,7.762 -23.167,12.48 -33.378,14.88 -13.236,-2.296 -27.15,0.471 -39.967,-3.717 -5.372,-2.316 -10.611,-4.937 -15.688,-7.737 -14.385,-10.877 -23.001,-25.686 -25.549,-33.836 9.415,5.119 17.557,9.281 25.007,12.523 1.362,0.983 2.718,1.788 3.103,2.038 1.914,1.239 3.881,2.416 5.912,3.455 2.902,1.485 30.001,5.223 33.372,3.662 0.176,-0.081 -7.447,-4.671 -11.699,-5.621 -4.628,-1.033 -23.236,-6.566 -28.156,-7.587 -1.029,-0.214 -3.96,-1.168 -5.25,-0.452 -32.575,-14.698 -40.291,-33.906 -45.947,-82.164 10.931,13.924 20.247,21.651 28.143,24.876 -0.156,-4.636 0.475,-9.455 2.06,-14.422 2.365,-3.128 3.723,-6.99 6.613,-9.741 2.494,5.421 6.624,11.521 12.458,13.577 0.105,0.037 0.249,-0.024 0.298,-0.121 2.37,-4.622 2.641,-9.978 4.932,-14.625 2.234,-4.531 5.624,-8.835 9.63,-11.952 -0.623,8.961 -1.379,18.617 1.861,27.172 4.703,12.419 16.387,21.028 27.434,27.521 3.202,1.882 6.513,3.469 9.965,4.841 3.719,1.478 7.509,3.028 11.32,4.247 1.666,0.534 6.018,1.406 6.118,1.129 0.012,-0.033 3.315,-8.959 5.806,-12.633 2.656,-3.917 6.336,-6.713 10.8,-8.224 -1.143,5.554 -1.001,11.243 -1.199,16.884 -0.189,5.389 -1.144,27.077 -0.743,32.521 C -1.802,-9.052 -0.795,-4.562 0,0" />
      </g>
      <g
         transform="matrix(0.35277777,0,0,-0.35277777,471.38317,-60.464446)"
         id="g2313">
        <path
           inkscape:connector-curvature="0"
           id="path2315"
           style="fill:#c69c6c;fill-opacity:1;fill-rule:nonzero;stroke:none"
           d="m 0,0 c -1.705,35.288 16.815,77.069 -52.701,87.402 -24.564,2.515 -35.988,-2.224 -42.349,-10.349 -2.277,10.508 0.006,19.866 12.425,33.652 -28.556,-10.031 -62.981,-21.931 -49.254,-65.233 -0.081,0.028 8.975,-7.57 14.432,-10.487 7.361,-3.934 13.918,-8.459 19.734,-14.5 6.527,-6.779 12.006,-14.586 16.499,-22.843 4.635,-8.519 7.461,-17.815 12.049,-26.353 0.434,-0.807 14.719,-1.526 26.394,-13.93 12.879,-31.548 29.232,-44.09 45.059,-44.809 45.902,-2.479 62.494,14.819 76.09,68.135 C 20.91,-68.665 10.508,-37.508 0,0" />
      </g>
      <g
         transform="matrix(0.35277777,0,0,-0.35277777,337.83276,-57.876715)"
         id="g2317">
        <path
           inkscape:connector-curvature="0"
           id="path2319"
           style="fill:#d8c9bc;fill-opacity:1;fill-rule:nonzero;stroke:none"
           d="m 0,0 c -0.053,-0.943 -0.122,-1.88 -0.201,-2.812 l -23.351,-17.832 c 0.01,0.227 0.016,0.46 0.027,0.688 -6.329,-1.493 -14.215,-2.192 -24.606,-1.732 -25.909,2.113 -26.831,10.349 -38.482,42.544 -2.764,9.824 4.385,14.528 8.135,18.865 1.404,0.18 2.849,-0.021 4.327,-0.476 6.562,-2.003 13.738,-8.914 20.348,-9.063 7.811,0.276 27.841,16.313 43.529,5.927 C -1.472,30.172 0.864,14.691 0,0" />
      </g>
      <g
         transform="matrix(0.35277777,0,0,-0.35277777,397.36634,8.9675811)"
         id="g2321">
        <path
           inkscape:connector-curvature="0"
           id="path2323"
           style="fill:#d8c9bc;fill-opacity:1;fill-rule:nonzero;stroke:none"
           d="m 0,0 c -2.929,-12.441 -7.854,-25.999 -13.405,-39.716 -1.08,-2.669 -3.41,-4.628 -6.223,-5.238 -24.658,-5.37 -61.53,-5.752 -59.205,3.549 4.883,21.216 5.476,35.028 3.876,46.802 1.711,2.245 3.406,4.279 5.095,6.106 17.97,19.411 35.421,15.343 65.021,-7.658 C -3.263,2.616 -1.647,1.335 0,0" />
      </g>
      <g
         transform="matrix(0.35277777,0,0,-0.35277777,351.99312,11.990604)"
         id="g2325">
        <path
           inkscape:connector-curvature="0"
           id="path2327"
           style="fill:#d8c9bc;fill-opacity:1;fill-rule:nonzero;stroke:none"
           d="m 0,0 c -13.034,-0.016 -32.253,13.807 -46.23,27.958 3.464,-0.137 3.591,1.939 6.742,1.986 33.291,0.504 53.083,8.977 55.726,23.044 0.238,1.276 0.365,2.579 0.376,3.903 C 18.6,57.108 41.591,21.889 44.133,18.007 47.31,12.71 11.297,0 0,0" />
      </g>
      <g
         transform="matrix(0.35277777,0,0,-0.35277777,457.23787,9.0311164)"
         id="g2329">
        <path
           inkscape:connector-curvature="0"
           id="path2331"
           style="fill:#d8c9bc;fill-opacity:1;fill-rule:nonzero;stroke:none"
           d="m 0,0 v -0.005 c -1.933,-4.957 -3.84,-9.729 -5.455,-14.035 -2.066,-6.07 -7.372,-12.864 -11.916,-17.477 -5.958,-6.488 -54.291,-3.31 -52.962,4.236 2.733,13.299 4.37,26.089 4.232,38.249 1.917,1.949 3.829,3.633 5.757,5.048 v 0.005 C -45.24,27.159 -29.335,22.27 -5.201,4.025 -3.511,2.749 -1.774,1.409 0,0" />
      </g>
      <g
         transform="matrix(0.35277777,0,0,-0.35277777,425.66631,8.0613656)"
         id="g2333">
        <path
           inkscape:connector-curvature="0"
           id="path2335"
           style="fill:#d8c9bc;fill-opacity:1;fill-rule:nonzero;stroke:none"
           d="m 0,0 c -4.74,-7.531 -9.639,-14.326 -12.525,-17.493 -5.122,-6.181 -43.958,-5.535 -43.784,1.763 0.721,10.915 7.722,24.04 10.858,33.594 2.446,1.912 4.824,3.336 7.16,4.279 11.058,4.496 21.285,-1.6 34.436,-17.361 C -2.6,3.278 -1.313,1.684 0,0" />
      </g>
      <g
         transform="matrix(0.35277777,0,0,-0.35277777,390.09234,16.92272)"
         id="g2337">
        <path
           inkscape:connector-curvature="0"
           id="path2339"
           style="fill:#878787;fill-opacity:1;fill-rule:nonzero;stroke:none"
           d="m 0,0 c -5.735,4.079 -11.865,8.336 -18.44,10.938 -7.143,2.826 -14.219,2.421 -21.365,-0.218 -3.32,-1.225 -6.637,-2.72 -9.856,-4.198 -1.602,-0.737 -3.129,-1.545 -4.552,-2.501 -0.701,-6.615 -1.985,-14.113 -4.001,-22.876 -2.325,-9.301 34.547,-8.919 59.205,-3.549 2.813,0.61 5.143,2.569 6.224,5.238 1.153,2.85 2.276,5.692 3.363,8.519 C 7.25,-5.539 3.724,-2.648 0,0" />
      </g>
      <g
         transform="matrix(0.35277777,0,0,-0.35277777,367.56222,5.6381703)"
         id="g2341">
        <path
           inkscape:connector-curvature="0"
           id="path2343"
           style="fill:#878787;fill-opacity:1;fill-rule:nonzero;stroke:none"
           d="m 0,0 c -1.257,1.919 -7.508,11.492 -13.75,20.658 -0.337,-0.721 -0.707,-1.428 -1.114,-2.115 -3.142,-5.302 -8.702,-8.871 -13.679,-12.263 -11.136,-7.59 -24.523,-11.254 -37.856,-8.396 -0.126,0.027 -0.244,0.062 -0.357,0.1 -3.903,0.141 -7.799,0.434 -11.626,1.063 11.732,-9.586 24.663,-17.065 34.249,-17.054 C -32.836,-18.007 3.177,-5.296 0,0" />
      </g>
      <g
         transform="matrix(0.35277777,0,0,-0.35277777,445.33162,12.271592)"
         id="g2345">
        <path
           inkscape:connector-curvature="0"
           id="path2347"
           style="fill:#878787;fill-opacity:1;fill-rule:nonzero;stroke:none"
           d="m 0,0 c -6.679,3.454 -13.341,5.159 -20.858,4.289 -4.518,-0.523 -8.738,-1.768 -12.65,-3.799 -0.731,-6.073 -1.777,-12.271 -3.075,-18.585 -1.329,-7.547 47.004,-10.725 52.962,-4.237 1.427,1.449 2.929,3.113 4.382,4.902 C 15.531,-10.004 8.393,-4.342 0,0" />
      </g>
      <g
         transform="matrix(0.35277777,0,0,-0.35277777,421.84417,11.988629)"
         id="g2349">
        <path
           inkscape:connector-curvature="0"
           id="path2351"
           style="fill:#878787;fill-opacity:1;fill-rule:nonzero;stroke:none"
           d="m 0,0 c -3.197,5.115 -8.135,9.4 -13.277,12.498 -5.149,3.102 -10.565,3.75 -16.473,3.332 -3.68,-0.26 -7.73,-0.891 -11.042,-2.708 -2.299,-5.969 -4.314,-12.133 -4.682,-17.719 -0.175,-7.298 38.662,-7.945 43.783,-1.764 0.874,0.959 1.935,2.255 3.117,3.799 C 0.993,-1.691 0.521,-0.835 0,0" />
      </g>
      <g
         transform="matrix(0.35277777,0,0,-0.35277777,311.61809,-67.607349)"
         id="g2353">
        <path
           inkscape:connector-curvature="0"
           id="path2355"
           style="fill:#8e6d57;fill-opacity:1;fill-rule:nonzero;stroke:none"
           d="M 0,0 C -1.161,0.339 -2.524,0.458 -3.713,0.13 -4.094,0.307 -4.59,0.374 -4.891,0.313 -5.752,0.138 -6.425,-0.466 -6.834,-1.242 -7.015,-1.585 -7.126,-2.085 -7.062,-2.52 -7.223,-2.626 -7.351,-2.76 -7.423,-2.926 -8.329,-5.014 -8.305,-7.06 -7.494,-9.169 c 0.014,-0.037 0.037,-0.068 0.056,-0.102 0.938,-3.681 3.484,-6.889 6.995,-8.793 0.33,-0.179 0.671,-0.35 1.021,-0.512 1.181,-1.074 2.843,-1.645 4.445,-1.554 1.576,-0.586 3.324,-1.014 4.816,-0.419 0.995,0.397 1.391,1.193 1.425,2.091 0.725,1.124 0.985,2.637 0.893,4.053 C 11.775,-8.527 5.614,-1.639 0,0 m 62.858,-5.873 c -0.329,3.282 -3.346,4.865 -6.327,4.746 -1.525,0.449 -3.452,0.099 -5.437,-0.629 -3.277,-0.69 -6.688,-2.581 -9.309,-4.269 -1.67,-1.075 -3.339,-2.337 -4.598,-3.888 -0.372,-0.458 -0.649,-0.877 -0.868,-1.29 -0.952,-0.983 -1.715,-2.071 -2.061,-3.281 -0.736,-2.576 1.478,-5.717 3.915,-6.506 2.906,-0.939 6.747,0.071 9.563,0.93 3.417,1.044 6.702,2.793 9.471,5.049 2.7,2.201 6.034,5.313 5.651,9.138" />
      </g>
      <g
         transform="matrix(0.35277777,0,0,-0.35277777,315.9067,-62.525621)"
         id="g2357">
        <path
           inkscape:connector-curvature="0"
           id="path2359"
           style="fill:#7c5a47;fill-opacity:1;fill-rule:nonzero;stroke:none"
           d="m 0,0 c -0.381,5.878 -6.543,12.766 -12.157,14.405 -1.161,0.339 -2.524,0.457 -3.713,0.13 -0.381,0.177 -0.877,0.244 -1.178,0.183 -0.861,-0.175 -1.534,-0.779 -1.943,-1.555 -0.181,-0.343 -0.292,-0.843 -0.228,-1.278 -0.161,-0.106 -0.289,-0.24 -0.36,-0.406 -0.73,-1.68 -0.848,-3.332 -0.447,-5.012 1.287,0.667 2.929,0.849 4.543,0.521 2.792,-0.566 4.838,-2.414 6.69,-4.475 2.121,-2.36 4.303,-5.807 4.713,-8.941 0.608,-0.018 1.203,0.061 1.762,0.284 0.996,0.396 1.392,1.193 1.425,2.091 C -0.167,-2.929 0.092,-1.416 0,0" />
      </g>
      <g
         transform="matrix(0.35277777,0,0,-0.35277777,325.15396,-60.183459)"
         id="g2361">
        <path
           inkscape:connector-curvature="0"
           id="path2363"
           style="fill:#7c5a47;fill-opacity:1;fill-rule:nonzero;stroke:none"
           d="m 0,0 c 1.703,4.982 6.186,8.31 10.858,10.399 3.038,1.359 7.084,3.394 10.49,2.347 1.045,-0.321 1.784,-0.838 2.279,-1.475 0.642,1.198 1.002,2.501 0.862,3.901 -0.33,3.281 -3.347,4.864 -6.328,4.745 -1.525,0.449 -3.452,0.099 -5.436,-0.629 C 9.448,18.598 6.037,16.707 3.415,15.019 1.746,13.944 0.076,12.682 -1.182,11.131 -1.554,10.673 -1.832,10.254 -2.051,9.841 -3.002,8.858 -3.766,7.77 -4.112,6.56 -4.847,3.984 -2.633,0.843 -0.196,0.055 -0.132,0.034 -0.065,0.019 0,0" />
      </g>
      <g
         transform="matrix(0.35277777,0,0,-0.35277777,-495.15359,575.86844)"
         id="g2365">
        <g
           id="g2367" />
        <g
           id="g2379">
          <g
             style="opacity:0.25"
             id="g2377"
             clip-path="url(#clipPath2371)">
            <g
               id="g2375"
               transform="translate(2482.4648,1596.6755)">
              <path
                 inkscape:connector-curvature="0"
                 id="path2373"
                 style="fill:#432918;fill-opacity:1;fill-rule:nonzero;stroke:none"
                 d="m 0,0 c -3.897,-0.807 -3.354,-4.982 -3.74,-8.084 -0.555,-4.452 -1.456,-8.847 -2.481,-13.212 -0.922,-3.929 -1.996,-7.697 -2.022,-11.763 -0.008,-1.359 1.892,-1.819 2.909,-1.835 6.792,-0.11 7.856,6.361 8.681,11.735 0.52,3.388 0.859,6.837 1.182,10.248 C 4.835,-9.67 5.665,-5.548 4.147,-2.529 4.707,-0.697 1.944,0.402 0,0 m -39.547,89.103 c -35.72,-3.89 -69.627,17.477 -72.481,46.722 -4.737,51.08 64.113,50.727 71.35,103.599 3.905,23.922 0.044,28.524 -5.026,42.15 -0.138,0.37 -1.195,0.355 -1.122,-0.096 0.371,-2.285 -0.424,-15.416 -0.964,-19.374 -0.716,-5.245 -2.491,-10.181 -4.582,-15.02 -2.031,-4.7 -5.417,-8.175 -8.837,-11.888 -1.733,-1.881 -7.252,-7.677 -7.812,-8.922 -6.17,-4.973 -12.688,-9.521 -19.978,-12.696 -4.889,-2.129 -9.994,-3.786 -14.642,-6.439 -4.558,-2.602 -8.317,-6.284 -12.244,-9.712 -4.16,-3.631 -8.792,-6.361 -13.601,-9.029 -3.78,-2.097 -10.388,-4.511 -11.628,-9.105 -0.592,-2.196 -0.555,-13.439 -0.52,-16.682 0.065,-5.973 1.98,-31.507 2.954,-38.265 0.369,-2.557 1.639,-6.413 3.101,-10.11 l -1.173,-2.713 21.399,-34.69 C -134.86,37.51 -99.768,23.475 -79.25,4.806 c -0.064,1.329 23.038,5.826 24.362,6.09 1.324,0.265 12.331,6.73 12.331,6.73 l -1.739,7.835 -21.289,34.701 28.812,-3.366 z M 87.068,16.931 c -0.395,0.227 -0.784,0.496 -1.263,0.471 -0.994,-0.051 -1.667,-0.291 -2.201,-0.696 -0.102,-0.011 -0.201,-0.029 -0.287,-0.06 -0.388,0.159 -0.955,0.055 -1.229,-0.188 C 79.044,13.765 77.427,10.332 76.168,6.513 75.551,4.642 75.036,2.729 74.551,0.82 74.137,-0.806 73.854,-1.499 74.521,-2.728 V -2.73 c -0.11,-0.865 0.575,-1.388 1.494,-1.604 0.158,-0.693 0.526,-1.337 1.251,-1.918 0.624,-0.5 1.732,-0.353 2.37,0 1.815,1.002 1.825,2.264 2.297,4.212 0.498,2.059 0.969,4.102 1.601,6.126 1.202,3.853 2.579,7.644 4.156,11.36 0.249,0.586 -0.107,1.19 -0.622,1.485 m 10.941,-2.59 c 0.039,0.267 0.087,0.532 0.121,0.8 0.147,1.175 -2.132,1.128 -2.728,0.713 -1.808,-1.26 -2.542,-3.088 -3.274,-5.115 -0.94,-2.601 -1.801,-5.219 -2.644,-7.853 -0.576,-1.801 -2.063,-4.488 -1.487,-6.423 0.487,-1.636 2.186,-2.438 3.745,-2.64 1.554,-0.201 3.775,0.942 3.434,2.09 0.538,0.567 0.812,1.281 1.12,2.447 0.468,1.777 0.871,3.565 1.279,5.356 0.692,3.043 2.045,6.805 1.111,9.884 -0.098,0.325 -0.348,0.57 -0.677,0.741 m 109.262,172.123 -13.505,20.125 -16.807,8.739 h -6.496 l 15.359,-29.924 c 8.494,-0.465 15.003,-4.819 22.86,-13.607 l 5.871,-7.335 9.4,-23.3 10.063,-9.778 15.889,-7.957 26.216,-2.106 27.429,7.192 11.96,11.959 c -61.898,-33.318 -76.197,-0.35 -108.239,45.992 M 137.569,133.417 C 114.101,111.523 92.08,96.694 37.047,91.407 c 0,0 -1.812,-17.133 -2.342,-18.016 -0.53,-0.883 4.59,-14.781 4.59,-14.781 l 15.78,1.191 c 3.634,-2.888 12.642,-9.183 12.642,-9.183 l 18.714,-6.709 -5.826,-22.42 c 12.367,13.817 30.833,19.724 52.451,11.343 -0.798,-1.089 -17.535,-16.463 -18.324,-16.987 -0.952,0.496 -9.09,4.07 -22.409,3.116 5.442,-1.992 11.568,-3.799 14.955,-6.265 1.454,-1.059 2.92,-2.14 4.233,-3.373 1.423,-1.337 2.577,-2.941 4.332,-3.855 1.595,-0.832 21.544,27.492 20.849,29.89 -0.085,0.293 -2.451,12.416 -2.945,18.062 l 18.947,-4.91 c 3.292,-9.632 -2.621,-56.203 -2.092,-66.954 -0.252,-1.788 4.15,0 4.15,0 7.888,24.352 24.714,57.763 21.891,67.828 -2.12,6.971 -35.633,23.29 -39.074,84.033 m -236.15,149.458 c 0.23,13.219 -10.901,17.801 -15.639,20.672 2.986,2.471 6.278,4.891 9.907,7.247 4.408,-12.141 15,-18.231 31.033,-22.682 0.312,-0.031 -6.875,26.465 -8.514,39.725 -0.799,6.463 -1.321,12.982 -1.549,19.491 -0.234,6.69 -0.818,20.158 -0.85,20.049 -1.397,-4.664 -1.804,-9.472 -1.922,-14.308 -2.241,-7.833 -1.855,-16.861 -1.56,-24.814 0.142,-3.822 1.031,-13.231 1.089,-14.146 0.212,-3.358 0.497,-6.835 0.962,-10.294 -0.135,0.048 -4.637,2.386 -6.618,3.747 -0.873,0.599 -1.733,1.214 -2.592,1.831 -0.455,0.541 -3.216,5.589 -3.796,7.102 -0.541,1.414 -3.474,8.384 -3.589,8.416 -0.021,0.006 -6.166,-0.665 -6.672,-0.818 -2.963,-0.896 -5.872,-1.949 -8.712,-3.178 -2.621,-1.135 -11.927,-5.966 -13.959,-7.208 -6.777,-2.383 -12.179,-7.533 -16.349,-13.473 -1.005,-1.431 -6.473,-10.122 -7.28,-12.192 -0.932,-1.877 -2.383,-4.995 -2.309,-7.519 -1.732,-4.636 -2.727,-9.454 -2.863,-14.651 -0.033,-1.29 -0.092,-3.242 0.032,-5.332 -2.031,1.947 -3.8,4.163 -5.354,6.503 -3.326,5.01 -5.288,10.737 -8.363,15.85 -0.146,1.078 -0.733,1.918 -2.138,1.79 -1.286,-0.116 -2.028,-1.224 -2.853,-2.1 -1.449,-1.54 -6.966,-8.672 -7.539,-10.912 -0.328,0.381 -3.212,5.449 -3.97,7.871 -0.171,0.548 -1.603,0.596 -1.733,0 -0.467,-2.127 -3.021,-12.284 -2.118,-13.572 0.396,-2.977 3.323,-13.392 9.696,-19.377 0.179,3.564 -0.919,18.686 8.217,27.804 11.71,-31 32.959,-40.409 32.984,-40.423 0.167,11.232 0.833,24.064 5.607,36.994 3.626,9.822 29.364,2.63 39.314,11.907 M 172.794,3.448 c -0.467,0.457 -1.155,0.629 -2.155,0.338 -3.68,-1.069 -4.009,-6.664 -4.686,-9.902 -0.43,-2.056 -0.775,-4.133 -1.162,-6.197 -0.428,-2.28 -1.342,-4.941 -1.015,-7.229 0.041,-0.283 0.14,-0.53 0.272,-0.752 -0.019,-0.202 -0.046,-0.406 -0.062,-0.609 -0.2,-2.544 5.41,-2.562 6.157,-0.525 1.421,3.876 2.154,8.15 2.974,12.193 0.698,3.444 2.577,8.669 0.77,11.949 -0.227,0.413 -0.636,0.643 -1.093,0.734 M -40.739,173.297 c 0.02,0.105 0.037,0.21 0.057,0.314 0.207,-0.024 0.416,-0.031 0.605,-0.023 -0.22,-0.097 -0.439,-0.197 -0.662,-0.291 m 89.971,-11.971 c 6.921,-9.154 10.256,-19.79 10.51,-37.632 7.99,14.154 10.594,27.546 7.967,58.319 -1.263,-17.308 -1.912,-26.027 -6.623,-37.12 -1.294,7.035 -2.235,12.371 -4.322,17.396 1.709,13.956 1.358,28.509 -3.876,55.686 l -3.444,-44.259 c -0.638,0.73 -1.313,1.472 -2.039,2.233 -0.377,-5.808 -3.767,-10.64 -10.319,-18.685 7.991,25.492 5.142,36.071 -2.47,84.544 3.106,-30.006 4.012,-45.365 -0.611,-73.79 -1.467,4.155 -3.291,8.324 -5.645,12.7 l 2.691,-1.544 c 0,13.308 -2.845,30.655 -9.41,50.983 l -0.432,-38.964 -0.365,-1.431 c -0.396,0.416 -1.534,0.258 -1.774,-0.207 -2.346,-4.538 -4.02,-10.021 -5.124,-15.004 -0.601,-1.402 -1.229,-2.792 -1.902,-4.164 -0.359,-0.734 -0.732,-1.462 -1.112,-2.186 -1.461,-1.768 -2.73,-3.807 -4.085,-5.648 -0.12,-0.139 -0.241,-0.277 -0.362,-0.416 -1.24,-1.426 -3.08,-3.072 -4.304,-4.838 -2.057,-2.035 -4.246,-3.941 -6.488,-5.767 -5.542,-4.516 -11.436,-9.034 -17.917,-12.208 1.267,2.519 2.151,5.318 3.228,7.872 1.333,3.16 2.593,6.351 3.782,9.567 1.789,4.836 3.743,9.913 4.862,15.048 1.255,3.574 2.393,7.188 3.29,10.87 0.803,3.296 2.155,7.814 1.638,11.491 1.358,3.573 0.946,7.676 0.504,11.392 -0.164,1.374 -2.765,1.593 -3.492,0.597 -7.86,-10.77 -18.315,-18.776 -30.464,-24.064 1.691,7.676 3.006,15.449 4.083,23.22 0.609,4.391 1.22,8.778 1.486,13.201 0.568,3.851 1.083,7.709 1.566,11.572 2.684,5.922 3.817,12.339 4.633,18.79 0.445,3.517 0.081,24.843 0.121,27.327 0.119,7.295 -0.541,14.516 -1.622,21.727 -1.078,7.186 -11.424,39.299 -12.418,41.376 -0.621,1.298 -1.349,2.827 -2.657,3.464 -0.521,0.254 -7.247,-5.055 -10.883,-7.195 0.867,-1.496 10.328,-30.764 11.817,-34.713 0.419,-2.605 1.307,-5.217 1.916,-7.713 0.974,-3.991 5.09,-32.01 5.135,-35.254 0.032,-2.369 0.021,-4.739 10e-4,-7.109 -0.392,-5.778 -0.789,-11.558 -1.24,-17.331 -0.534,-6.843 -2.624,-23.063 -2.812,-24.36 -0.585,-2.902 -5.4,-40.188 -4.728,-40.03 0.684,-0.122 15.317,6.572 24.478,12.138 -0.703,-7.462 -1.518,-14.917 -2.862,-22.291 -1.835,-10.067 -4.517,-19.955 -7.936,-29.597 -0.263,-0.743 1.032,-0.94 1.489,-0.722 12.691,6.081 25.586,12.949 35.051,23.615 5.995,6.756 10.695,15.014 13.356,23.798 5.836,-6.115 11.792,-14.956 14.539,-32.144 7.034,6.018 14.154,12.883 15.595,17.46 M 150.8,252.612 c 0.233,-0.186 0.476,-0.346 0.729,-0.477 l 1.959,5.287 2.077,3.717 c -0.182,0.141 -0.362,0.285 -0.541,0.429 l 6.171,16.651 c -2.487,8.253 -1.515,18.051 5.295,34.822 -11.422,-12.273 -17.352,-28.487 -18.911,-41.165 -1.655,4.909 -2.127,11.647 -0.684,21.569 -15.643,-31.516 -5.05,-42.774 -0.652,-48.989 z M 1.516,176.401 C 8.048,203.676 7.165,210.738 2.43,262.194 2.531,253.416 2.31,244.958 0.457,239.8 0.189,225.623 4.031,208.751 1.516,176.401 m -75.998,189.743 c 0.629,2.116 2.218,4.177 3.142,6.229 0.926,2.058 1.77,4.131 2.841,6.122 2.196,4.084 4.79,7.92 7.718,11.513 2.904,3.564 6.078,6.891 9.434,10.032 0.333,0.312 2.442,1.991 3.828,3.211 0.076,-0.285 0.161,-0.569 0.226,-0.857 0.284,-1.191 0.499,-2.396 0.678,-3.607 0.736,-4.956 0.676,-10.044 0.881,-15.042 0.213,-5.208 -1.223,-10.01 -2.347,-15.023 -0.96,-4.283 -2.338,-8.541 -4.678,-12.302 -1.196,-1.922 -2.647,-3.718 -4.238,-5.327 -0.741,-0.75 -1.601,-1.395 -2.314,-2.17 -0.597,-0.652 -0.817,-1.745 -1.437,-2.305 -0.594,-0.535 0.752,-0.856 1.107,-0.698 1.946,0.869 3.431,0.898 5.151,2.34 1.544,1.294 2.936,2.787 4.188,4.364 2.475,3.121 4.615,6.611 6.334,10.2 2.017,4.212 3.405,8.315 4.395,12.886 1.011,4.67 2.416,9.568 2.304,14.373 -0.11,4.72 -1.077,9.62 -2.519,14.108 -1.344,4.185 -4.996,6.358 -9.382,4.997 -3.828,-1.188 -6.861,-4.862 -9.569,-7.657 -3.043,-3.141 -5.946,-6.451 -8.495,-10.008 -2.613,-3.647 -4.996,-7.503 -6.65,-11.684 -0.799,-2.022 -1.56,-4.136 -1.986,-6.274 -0.205,-1.031 -0.354,-2.147 -0.351,-3.203 0.004,-1.408 0.562,-2.701 0.565,-4.118 0.001,-0.474 1.052,-0.514 1.174,-0.1 M 236.362,180.286 c 8.908,-8.45 19.781,-14.612 30.491,-20.965 15.626,-5.245 25.854,-3.875 31.873,-1.192 l -22.548,4.806 -8.401,8.766 c -9.407,2.192 -31.159,20.06 -53.35,40.18 z m -87.613,57.462 3.177,-2.472 c 37.603,49.607 84.767,30.395 102.392,-16.66 l 1.589,5.185 c -26.89,62.924 -82.542,61.259 -107.158,13.947 m -331.804,87.21 c 0.265,0.397 10.408,15.278 10.408,15.278 -23.714,-15.828 -35.962,-36.86 -44.568,-54.735 l 24.495,14.962 c 0,0 9.401,24.097 9.665,24.495 m 17.179,37.264 c 0.085,0.029 0.167,0.065 0.25,0.096 -0.323,-1.305 -0.317,-2.838 0.27,-3.427 1.594,-1.601 5.962,0.628 7.572,1.08 6.064,1.705 12.682,2.972 18.626,5.383 0.692,0.179 1.38,0.374 2.061,0.602 0.44,0.147 0.639,0.377 0.673,0.621 0.386,0.189 0.768,0.383 1.145,0.585 1.234,0.665 -0.328,1.534 -1.033,1.574 -6.538,0.373 -13.06,0.033 -19.508,-1.144 -1.649,-0.301 -12.491,-1.687 -10.971,-5.135 0.141,-0.319 0.643,-0.329 0.915,-0.235 m 19.332,28.069 c 2.95,0.14 5.859,0.77 8.866,0.595 1.778,-0.103 3.549,-0.34 5.295,-0.686 1.225,-0.242 2.958,2.505 2.637,3.328 0.032,1.36 -0.448,2.816 -0.804,4.142 -0.887,3.308 -1.905,6.59 -3.099,9.801 -0.363,0.975 -2.543,8.394 -3.412,10.738 -1.056,2.847 -9.113,11.832 -9.087,11.567 2.638,-15.799 0.254,-26.392 -2.514,-38.496 -0.091,-0.382 2.103,-0.995 2.118,-0.989 m -14.906,-65.11 c 31.743,28.817 46.274,36.408 73.602,35.345 v 5.983 C -116.5,367.856 -133.93,360 -161.45,325.181" />
            </g>
          </g>
        </g>
      </g>
      <g
         transform="matrix(0.35277777,0,0,-0.35277777,-495.15359,575.86844)"
         id="g2381">
        <g
           id="g2383" />
        <g
           id="g2395">
          <g
             style="opacity:0.19999701"
             id="g2393"
             clip-path="url(#clipPath2387)">
            <g
               id="g2391"
               transform="translate(2576.8794,1590.1012)">
              <path
                 inkscape:connector-curvature="0"
                 id="path2389"
                 style="fill:#f6f6f6;fill-opacity:1;fill-rule:nonzero;stroke:none"
                 d="M 0,0 C 0.216,-0.124 1.987,0 1.987,0 L 7.016,19.221 5.614,20.369 C 5.398,19.826 -0.216,0.124 0,0 m -236.065,66.372 16.588,-27.717 c -3.089,12.976 -13.455,31.136 8.525,42.245 l -5.7,6.657 z M 75.728,-14.854 h 2.573 l 4.691,24.005 -2.119,0.482 c 0.004,-0.171 -5.145,-24.487 -5.145,-24.487 m -169.509,-13.467 2.559,0.775 5.261,32.796 -2.701,-0.821 c -1.605,-0.383 -5.119,-32.75 -5.119,-32.75 m 18.889,326.752 -35.484,41.31 -20.326,19.138 c 1.072,1.696 3.517,11.834 4.386,14.838 2.632,9.099 2.121,18.177 2.56,27.654 0.371,7.997 -0.494,26.009 -6.392,32.2 -11.299,9.709 -31.635,-21.504 -32.963,-23.51 -0.571,-0.863 -2.465,-6.545 -2.385,-6.435 0.808,1.121 8.069,9.337 9.767,11.062 3.303,3.359 7.136,6.307 11.185,8.714 4.519,2.688 9.252,3.464 12.418,-1.458 2.471,-3.841 3.439,-8.521 3.763,-13.009 0.722,-9.999 -0.753,-20.136 -2.345,-29.981 -0.809,-5.005 -4.211,-15.458 -4.283,-15.62 -2.518,-5.706 -6.308,-10.249 -11.745,-13.372 -5.971,-3.431 -13.112,-5.117 -19.802,-3.158 -0.829,0.272 -1.938,0.456 -1.591,-0.085 4.427,-6.913 14.73,-6.38 21.116,-3.547 3.093,1.373 5.901,4.321 8.425,6.549 0.244,-0.028 0.49,-0.373 0.49,-0.373 9.98,-15.83 27.854,-62.171 8.52,-140.066 25.545,37.759 31.843,79.371 22.238,119.475 20.571,-26.495 26.891,-42.875 41.981,-100.5 l -2.912,39.986 z M -92.233,163.873 c 6.722,9.396 11.604,15.13 19.028,33.894 l 0.431,38.964 c 0,0 0,10.945 -4.413,20.302 0.353,-34.69 -1.589,-47.751 -15.046,-93.16 m 192.818,-65.726 -2.309,34.78 -6.53,-28.381 C 89.103,93.062 90.921,81.003 96.831,70.808 l 4.845,-8.357 c 7.103,-12.252 8.235,-27.071 3.071,-40.257 -6.679,-17.056 -14.929,-38.371 -14.399,-38.266 0.882,0.177 15.094,1.236 15.094,1.236 l 12.093,25.819 13.77,42.752 -4.003,11.754 z m 122.166,78.457 -11.122,-5.016 c -10.239,-7.944 -7.318,-11.651 -39.191,-5.693 -27.843,11.586 -47.23,40.059 -65.861,70.042 22.277,-50.621 47.124,-81.068 59.833,-85.333 17.739,-5.286 45.572,-2.583 66.513,16.876 l 5.452,22.911 z M -51.854,249.95 c 2.879,-10.814 3.335,-27.019 2.648,-46.585 5.305,11.649 9.748,23.832 10.945,36.448 l -13.593,23.756 z m 133.55,-38.631 -27.362,33.003 -34.602,14.653 -32.482,1.412 -32.486,-8.384 10.606,-18.536 c 51.008,9.073 106.706,3.441 132.906,-100.54 v 29.399 z m -35.13,39.712 c -13.064,33.762 -12.769,46.293 24.98,67.525 L 45.507,306.464 32.111,290.575 30.501,269.519 34.209,253.502 Z M -119.025,136.989 -133.961,95.677 c 0,0 6.776,-39.866 7.468,-39.368 0.691,0.499 9.232,-35.94 9.232,-35.94 l -3.884,-46.083 11.685,-3.804 c 13.913,105.696 -16.38,72.057 -9.565,166.507 M 60.513,267.448 c 21.714,23.304 38.309,32.837 98.191,0.53 l -12.923,19.949 -40.074,12.358 -25.245,-2.649 -13.064,-10.415 z m 74.089,-5.649 -26.688,10.593 C 90.205,271.284 73.294,262.213 57.512,241.851 l 9.146,-5.03 c 36.931,41.992 66.236,29.039 98.895,-44.577 l -12.005,44.577 z m -301.567,88.803 c 2.301,-1.933 5.424,-2.491 8.312,-1.781 2.317,0.569 6.846,2.504 7.624,4.935 0.038,0.116 -0.149,0.128 -0.218,0.106 -2.812,-0.904 -4.718,-3.22 -7.899,-3.456 -3.524,-0.261 -6.299,1.58 -7.567,4.841 -0.919,2.361 -1.205,5.097 -1.748,7.562 -0.65,2.945 -1.28,5.866 -1.79,8.839 -0.017,0.1 -0.24,0.127 -0.268,0.023 -1.139,-4.166 -0.999,-8.522 -0.351,-12.762 0.478,-3.133 1.394,-6.198 3.905,-8.307 m -91.732,-56.106 c -8.037,10.633 -13.574,28.669 10.798,61.575 -39.046,-38.298 -23.392,-72.438 -5.777,-89.379 l 1.761,20.405 c -0.264,0.256 -0.536,0.521 -0.813,0.791 2.39,6.453 5.902,15.4 6.384,15.608 0.74,0.319 14.51,12.5 14.51,12.5 1.298,7.592 7.591,17.831 27.01,34.955 -27.247,-13.81 -48.432,-34.818 -53.873,-56.455 m 65.701,93.175 c -0.529,0.132 -23.7,9.93 -24.845,10.228 -1.145,0.297 -23.117,-1.034 -23.117,-1.034 0,0 -16.916,-6.016 -17.71,-6.281 -0.794,-0.265 -18.537,-14.035 -18.537,-14.035 l -9.797,-15.359 c 28.583,26.791 53.501,31.2 87.528,19.038 -29.601,-5.214 -50.155,-8.201 -73.901,-26.475 28.083,12.38 74.995,23.149 91.113,19.331 l 2.091,0.746 -1.085,0.46 4.901,5.876 c 0,0 -16.111,7.372 -16.641,7.505 m -72.912,-39.721 -18.888,-29.658 -2.206,-24.186 6.008,-14.293 7.54,9.344 c -5.425,12.727 -7.328,28.502 7.546,58.793" />
            </g>
          </g>
        </g>
      </g>
      <g
         transform="matrix(0.35277777,0,0,-0.35277777,472.56416,-30.981679)"
         id="g2397">
        <path
           inkscape:connector-curvature="0"
           id="path2399"
           style="fill:#5e2f0f;fill-opacity:1;fill-rule:nonzero;stroke:none"
           d="m 0,0 c -57.548,4.057 -32.497,87.206 -89.325,94.425 -2.081,2.923 -4.258,5.672 -6.541,8.278 56.113,24.42 32.01,-36.173 102.046,-66.912 -71.805,44.308 -43.698,93.641 -105.779,70.926 -1.78,1.811 -3.618,3.533 -5.508,5.164 29.891,42.385 68.627,31.888 89.308,-4.724 C -5.704,89.584 -1.896,-12.006 69.909,56.139 56.848,19.596 51.902,-1.769 0,0 m -70.836,54.762 c -3.755,12.997 -8.771,24.399 -14.882,34.218 20.3,-4.787 28.08,-23.25 35.473,-42.48 -6.636,5.985 -12.605,7.118 -20.591,8.262 m 0.927,-88.308 27.54,-33.715 c 7.721,-7.24 0.911,-22.736 -6.276,-42.136 -1.912,-5.153 -3.85,-10.587 -5.551,-16.212 -0.799,-2.69 -2.388,-6.021 -4.316,-8.934 -18.87,14.135 -30.532,22.005 -45.309,17.006 0.61,6.562 0.684,13.118 0.032,20.13 v 0.006 c -0.635,6.879 -1.97,14.188 -4.189,22.381 7.997,-0.371 16.122,-0.111 23.949,0.874 -28.202,2.654 -68.092,10.142 -78.224,24.071 20.316,14.347 31.385,36.008 39.737,61.372 -17.779,-31.576 -25.66,-62.516 -96.077,-71.053 -3.829,10.687 -6.774,22.339 -3.845,43.868 -11.297,-39.944 -1.367,-46.961 3.887,-63.909 2.431,-9.591 2.24,-19.702 0.551,-29.6 -1.801,-10.539 -5.291,-20.835 -9.109,-29.997 -23.256,16.126 -35.871,24.404 -53.947,13.68 0.641,9.326 -0.302,17.021 -1.965,23.975 -3.05,12.822 -8.521,23.144 -10.915,36.596 -3.056,18.426 -2.823,39.721 8.654,72.028 -18.14,-30.839 -19.951,-49.048 -15.507,-67.86 -49.408,3.205 -103.344,1.732 -100.415,118.454 16.932,5.561 21.804,17.567 40.097,26.375 66.467,22.434 55.816,65.672 54.842,86.327 -6.382,-38.837 2.621,-59.185 -57.49,-81.561 -8.029,-3.839 -13.256,-8.214 -18.161,-12.382 -10.137,-8.617 -18.891,-16.333 -48.131,-16.572 -28.26,2.198 -25.596,16.016 -33.715,37.958 -2.029,8.388 4.851,12.138 7.695,17.859 0.254,0.502 0.472,1.021 0.652,1.562 2.224,8.484 0.81,20.755 4.925,34.361 1.271,-2.421 2.78,-4.872 4.554,-7.351 1.547,6.546 3.152,10.513 10.243,15.358 3.856,-15.04 7.913,-20.326 18.007,-28.069 -0.185,16.942 -9.888,46.956 53.941,69.3 1.25,-13.341 8.724,-19.643 19.85,-23.578 -3.548,22.943 -5.942,46.288 1.282,72.996 12.838,29.749 34.605,51.632 41.087,51.992 6.62,0 25.819,-56.801 -13.769,-90.034 3.659,0.948 6.885,2.421 9.729,4.317 19.431,-46.606 23.149,-59.375 2.981,-161.967 17.605,10.206 28.478,19.04 35.135,28.022 -0.116,-14.093 -0.164,-28.573 -18.891,-71.095 27.937,11.762 41.251,31.761 46.166,54.068 10.163,-12.245 13.812,-23.467 15.444,-37.386 5.778,6.478 9.85,13.145 12.567,20.989 5.493,-6.286 9.602,-13.722 12.854,-36.347 11.117,37.772 7.314,74.93 -8.532,107.559 99.191,32.566 146.163,-47.808 137.933,-153.726 m 5.916,-106.892 c -3.109,-3.432 -19.347,-3.887 -30.999,-2.457 1.6,7.796 3.681,17.911 4.513,21.942 9.321,-1.838 18.16,-8.712 29.51,-16.821 -0.986,-1.107 -2.008,-2.028 -3.024,-2.664 m -36.602,-1.536 c -4.216,0.917 -6.927,2.166 -6.562,3.655 1.186,5.624 2.161,10.947 2.828,16.195 3.209,1.155 6.239,1.674 9.173,1.653 z m -25.453,59.354 c -0.864,-5.074 -5.572,-14.5 -10.746,-23.271 -2.458,-4.179 -5.027,-8.204 -7.33,-11.546 -12.012,9.788 -21.195,15.142 -32.195,13.543 2.182,5.232 4.242,10.661 5.089,15.364 0.556,3.066 0.594,5.831 -0.19,8.029 -5.08,13.24 -17.414,8.182 -25.523,15.597 11.117,2.505 20.571,6.223 28.7,10.979 5.99,-8.543 21.317,-15.269 39.663,-18.717 0.985,-2.934 2.733,-5.402 2.532,-9.978 m -23.303,-41.664 c -4.158,-4.264 -14.411,-4.979 -22.562,-3.819 2.007,7.235 4.348,15.65 5.344,19.22 6.684,-1.801 12.933,-6.255 19.998,-11.969 -1.043,-1.399 -1.986,-2.57 -2.78,-3.432 m -33.896,1.413 c 0.18,3.136 2.415,8.389 4.936,14.284 2.479,0.514 4.83,0.673 7.108,0.503 l -6.17,-18.864 c -3.491,1.032 -5.847,2.473 -5.874,4.077 m -47.156,-24.017 c -1.091,-2.362 -3.168,-4.126 -5.683,-4.772 -11.048,-2.839 -21.831,-4.189 -30.469,-4.158 1.017,6.181 4.052,24.378 5.021,30.162 10.094,-1.599 19.85,-9.046 32.825,-17.472 -0.561,-1.282 -1.128,-2.537 -1.694,-3.76 m -42.259,-8.644 c -8.712,0.842 -13.817,3.549 -12.27,7.945 1.694,6.244 2.785,11.873 3.41,17.027 5.529,3.49 10.507,5.063 15.295,5.206 z m -44.858,71.991 c -0.005,-1.308 0.085,-2.643 -0.365,-3.978 -0.864,-2.552 -2.542,-4.644 -4.592,-6.345 -4.115,-3.416 -9.438,-5.751 -14.321,-7.817 -5.063,-2.15 -10.438,-3.855 -15.962,-4.173 -5.032,-0.286 -9.401,0.715 -13.982,2.224 -3.887,2.956 -7.748,6.25 -11.345,9.645 -10.115,9.528 -18.192,19.865 -19.124,25.839 -1.61,8.062 6.054,18.034 17.212,21.45 13.14,-12.579 31.242,-18.786 54.164,-21.598 0.095,-0.174 0.196,-0.349 0.297,-0.529 2.224,-4.01 5.201,-9.491 8.018,-14.718 m 3.39,-6.308 c 2.965,-5.54 5.19,-9.718 5.19,-9.718 4.237,-5.297 -16.593,-13.596 -31.072,-16.244 -5.101,-0.677 -12.563,2.553 -20.428,7.712 2.018,-0.323 4.036,-0.456 5.916,-0.451 6.721,0.016 13.309,1.78 19.49,4.306 5.709,2.336 11.89,5.021 16.619,9.056 1.362,1.16 3.051,3.131 4.285,5.339 M -423.618,240.19 c 8.162,2.659 15.788,4.02 23.849,4.137 -8.792,-2.495 -16.593,-4.894 -23.552,-7.33 -0.137,0.98 -0.233,2.05 -0.297,3.193 m -31.914,-61.848 c -7.012,-1.186 -13.913,-5.074 -21.825,-15.311 17.921,62.818 36.892,62.494 95.595,82.09 -29.394,6.223 -47.136,1.854 -71.498,-14.035 25.093,32.153 51.87,52.172 105.414,13.961 -0.508,-1.451 -0.958,-2.955 -1.361,-4.507 -39.88,-1.398 -54.778,-15.692 -81.28,-49.265 41.591,44.901 59.905,42.735 80.015,43.18 -2.68,-16.276 -0.811,-36.2 2.605,-51.828 -4.676,0.354 -12.318,7.78 -13.68,22.154 -64.062,-18.41 -61.382,-51.924 -60.026,-65.318 -6.038,5.238 -8.829,12.775 -12.711,25.421 -4.634,-1.837 -10.11,-7.525 -12.356,-12.71 -7.15,20.125 -4.899,36.014 14.474,65.672 -10.396,-10.137 -21.152,-23.684 -23.366,-39.504 m 49.143,121.859 c 4.761,-0.128 10.825,-17.806 12.022,-29.801 -10.073,0.206 -19.05,-1.891 -26.893,-5.365 3.087,15.835 8.749,31.824 14.871,35.166 M -231.616,98.153 c 0,27.683 -0.006,45.738 -5.498,62.399 19.903,-28.673 20.634,-52.574 21.651,-87.291 2.208,22.896 1.811,39.758 -0.742,53.222 22.62,-35.691 20.216,-82.88 16.895,-101.946 -1.954,16.111 -5.079,21.582 -11.461,29.002 2.86,10.698 3.607,23.636 2.987,40.907 -3.066,-26.873 -4.502,-42.899 -14.829,-57.198 -1.546,13.765 -6.53,21.031 -16.524,33.62 1.854,11.709 1.605,23.901 0.106,35.759 -4.104,-21.846 7.478,-56.271 -40.955,-88.62 12.616,29.907 18.139,41.913 15.698,69.199 9.697,16.821 6.461,35.087 6.191,64.438 -1.944,-63.643 -12.388,-70.751 -38.837,-87.211 18.399,86.369 14.83,107.951 -4.279,155.41 1.43,1.377 2.733,2.886 3.919,4.512 65.593,-56.409 58.12,-69.273 65.678,-126.202 m 136.905,90.299 c -12.086,-13.06 -11.562,-26.004 -6.843,-32.825 -4.819,-9.464 -5.984,-21.682 -12.07,-32.524 -6.742,9.321 -10.73,22.705 -0.153,46.813 -11.345,-19.829 -11.874,-34.716 -3.792,-48.989 -3.904,2.341 -7.971,4.374 -12.197,6.101 -9.48,28.43 -6.011,43.471 35.055,61.424 m 38.662,-21.184 c 58.21,-11.011 47.082,-38.333 48.454,-68.771 -0.085,0.276 -0.164,0.557 -0.249,0.832 -3.41,11.291 -9.586,21.608 -18.235,29.621 -24.446,22.647 -57.023,18.531 -82,-14.612 -1.223,0.97 -2.462,1.917 -3.728,2.818 13.743,21.237 6.032,58.316 55.758,50.112 M -3.348,83.573 c -1.705,35.288 16.816,77.07 -52.701,87.402 -24.564,2.516 -35.988,-2.224 -42.348,-10.349 -2.277,10.508 0.005,19.866 12.425,33.652 -28.557,-10.031 -62.982,-21.931 -49.255,-65.232 -22.153,7.467 -48.221,7.049 -76.534,-1.324 -2.638,4.756 -5.534,9.395 -8.691,13.923 -5.36,13.934 -13.844,24.241 -24.611,36.13 -8.871,14.835 -23.594,30.829 -48.036,53.767 13.59,29.372 1.139,79.516 -5.778,79.516 -6.419,0.048 -41.242,-32.132 -46.95,-57.506 -16.212,10.455 -30.782,15.391 -43.673,16.572 -2.907,16.768 -10.285,35.717 -17.419,37.756 -6.673,-0.858 -16.773,-24.272 -20.729,-46.097 -18.743,-10.852 -29.812,-29.208 -32.762,-38.641 12.234,6.652 22.323,11.694 31.528,15.19 0.149,-1.097 0.345,-2.146 0.578,-3.141 -40.935,-15.385 -49.578,-33.419 -55.763,-86.195 10.931,13.924 20.247,21.651 28.143,24.876 -0.164,-4.878 0.529,-9.956 2.304,-15.2 -5.344,-8.341 -3.623,-38.079 -5.905,-41.627 -0.26,-0.361 -0.551,-0.721 -0.869,-1.086 -3.749,-4.338 -10.899,-9.041 -8.135,-18.865 11.652,-32.195 12.573,-40.431 38.482,-42.544 10.391,-0.461 18.277,0.238 24.606,1.732 -0.011,-0.228 -0.016,-0.461 -0.027,-0.688 -1.774,-46.808 4.73,-76.572 19.22,-95.331 -9.099,-5.217 -19.506,-15.47 -19.506,-28.409 0.615,-5.555 7.876,-15.708 17.748,-25.707 13.976,-14.151 33.196,-27.974 46.23,-27.958 11.297,0 47.31,12.71 44.133,18.007 -2.542,3.882 -13.236,20.21 -22.869,34.922 1.557,-0.153 3.141,-0.291 4.74,-0.413 5.566,-0.439 11.381,-0.72 17.446,-0.884 4.204,-14.654 8.484,-24.972 10.21,-37.666 1.6,-11.774 1.007,-25.586 -3.876,-46.802 -2.326,-9.301 34.546,-8.919 59.205,-3.549 2.812,0.61 5.143,2.569 6.223,5.238 5.55,13.717 10.476,27.275 13.405,39.716 2.642,11.233 3.654,21.555 2.023,30.267 -1.171,5.752 -2.791,10.582 -4.476,15.174 3.078,0.286 6.054,0.646 8.93,1.075 6.869,-12.24 24.298,-7.997 29.086,-15.544 1.303,-2.32 0.683,-6.033 -0.794,-10.54 -3.135,-9.554 -10.137,-22.678 -10.857,-33.593 -0.175,-7.298 38.661,-7.944 43.783,-1.764 2.886,3.167 7.785,9.962 12.525,17.494 6.61,10.533 12.896,22.519 12.896,28.053 0,3.003 -0.762,6.117 -2.272,8.945 2.871,-0.408 5.789,-0.736 8.744,-0.985 2.696,-8.828 3.925,-18.113 4.025,-27.794 0.138,-12.16 -1.498,-24.95 -4.231,-38.249 -1.329,-7.547 47.003,-10.724 52.961,-4.237 4.544,4.614 9.851,11.408 11.917,17.478 1.615,4.306 3.521,9.077 5.454,14.035 v 0.005 c 7.505,19.257 15.402,41.294 7.961,49.339 -5.852,7.435 -16.731,21.258 -28.07,35.659 1.88,30.437 -0.349,56.621 -6.016,78.547 8.081,-1.621 15.263,-4.476 22.095,-10.81 C -39.102,17.827 -29.293,-2.595 -1.06,-3.877 44.842,-6.355 61.435,10.942 75.03,64.258 17.562,14.909 7.16,46.066 -3.348,83.573" />
      </g>
      <g
         transform="matrix(0.35277777,0,0,-0.35277777,352.61542,9.8737261)"
         id="g2401">
        <path
           inkscape:connector-curvature="0"
           id="path2403"
           style="fill:#515151;fill-opacity:1;fill-rule:nonzero;stroke:none"
           d="m 0,0 c -5.1,-0.678 -12.563,2.552 -20.427,7.711 2.017,-0.323 4.035,-0.455 5.915,-0.45 6.721,0.016 13.31,1.779 19.49,4.306 5.709,2.335 11.89,5.02 16.619,9.056 1.362,1.16 3.051,3.13 4.285,5.338 2.966,-5.539 5.19,-9.718 5.19,-9.718 C 35.309,10.947 14.479,2.648 0,0 M 28.929,32.53 C 26.755,32.076 24.603,31.493 22.494,30.847 22.481,30 22.415,29.146 22.127,28.292 21.264,25.739 19.585,23.647 17.535,21.947 13.42,18.531 8.098,16.195 3.214,14.13 -1.849,11.98 -7.224,10.274 -12.748,9.956 c -4.957,-0.282 -9.272,0.687 -13.779,2.159 -2.299,-0.984 -4.565,-2.046 -6.781,-3.22 10.981,-8.528 22.689,-14.907 31.544,-14.896 11.297,0 47.31,12.711 44.133,18.007 -1.714,2.618 -7.137,10.898 -13.44,20.524" />
      </g>
      <g
         transform="matrix(0.35277777,0,0,-0.35277777,449.98871,18.561584)"
         id="g2405">
        <path
           inkscape:connector-curvature="0"
           id="path2407"
           style="fill:#515151;fill-opacity:1;fill-rule:nonzero;stroke:none"
           d="m 0,0 c -3.109,-3.432 -19.347,-3.887 -30.999,-2.458 1.6,7.796 3.681,17.912 4.513,21.942 9.321,-1.838 18.161,-8.712 29.51,-16.82 C 2.039,1.557 1.017,0.636 0,0 m -36.602,-1.536 c -4.215,0.916 -6.927,2.166 -6.562,3.655 1.187,5.624 2.161,10.946 2.828,16.195 3.21,1.154 6.239,1.673 9.174,1.652 z M 4.619,6.539 c -18.363,13.726 -29.898,21.284 -44.446,16.362 -2.732,-1.261 -4.884,-3.104 -6.974,-5.272 -0.726,-5.853 -1.734,-11.818 -2.983,-17.894 -1.329,-7.547 47.003,-10.725 52.961,-4.237 1.197,1.215 2.445,2.583 3.674,4.047 C 7.56,2.64 5.942,5.486 5.481,5.894 5.162,6.134 4.923,6.312 4.619,6.539" />
      </g>
      <g
         transform="matrix(0.35277777,0,0,-0.35277777,419.87631,12.863094)"
         id="g2409">
        <path
           inkscape:connector-curvature="0"
           id="path2411"
           style="fill:#515151;fill-opacity:1;fill-rule:nonzero;stroke:none"
           d="m 0,0 c -4.158,-4.263 -14.411,-4.978 -22.562,-3.818 2.008,7.234 4.349,15.649 5.344,19.219 C -10.534,13.601 -4.284,9.146 2.78,3.432 1.737,2.034 0.794,0.863 0,0 m -33.895,1.414 c 0.18,3.135 2.415,8.389 4.936,14.284 2.478,0.513 4.83,0.672 7.107,0.503 l -6.17,-18.865 c -3.49,1.033 -5.847,2.473 -5.873,4.078 M 5.227,6.848 c -12.011,9.787 -21.195,15.141 -32.195,13.542 -3.186,-0.82 -5.32,-1.979 -7.989,-4.126 -2.404,-6.175 -4.557,-12.588 -4.939,-18.383 -0.175,-7.298 38.662,-7.944 43.783,-1.763 C 5,-2.662 6.413,-0.898 7.999,1.235 7.672,3.429 6.324,5.791 5.227,6.848" />
      </g>
      <g
         transform="matrix(0.35277777,0,0,-0.35277777,391.28297,20.837283)"
         id="g2413">
        <path
           inkscape:connector-curvature="0"
           id="path2415"
           style="fill:#515151;fill-opacity:1;fill-rule:nonzero;stroke:none"
           d="m 0,0 c -1.091,-2.362 -3.167,-4.125 -5.683,-4.772 -11.048,-2.839 -21.831,-4.189 -30.469,-4.157 1.017,6.18 4.052,24.378 5.021,30.161 C -21.037,19.633 -11.281,12.186 1.695,3.76 1.133,2.479 0.566,1.223 0,0 m -42.258,-8.643 c -8.712,0.842 -13.818,3.548 -12.271,7.944 1.695,6.244 2.785,11.874 3.41,17.027 5.529,3.49 10.508,5.063 15.296,5.206 z M 3.294,7.494 c -23.255,16.127 -35.871,24.405 -53.947,13.68 0.052,0.748 -6.24,-4.168 -6.863,-5.361 -0.684,-6.784 -1.985,-14.5 -4.073,-23.572 -2.325,-9.3 34.547,-8.919 59.205,-3.548 2.813,0.609 5.143,2.568 6.224,5.238 1.043,2.579 2.052,5.147 3.041,7.708 C 6.055,3.853 4.524,6.561 3.294,7.494" />
      </g>
      <g
         transform="matrix(0.35277777,0,0,-0.35277777,399.24209,-73.378441)"
         id="g2417">
        <path
           inkscape:connector-curvature="0"
           id="path2419"
           style="fill:#724c22;fill-opacity:1;fill-rule:nonzero;stroke:none"
           d="m 0,0 c -1.325,2.893 -2.831,5.674 -3.919,7.542 -2.638,4.756 -5.534,9.395 -8.691,13.923 -5.36,13.935 -13.844,24.241 -24.611,36.13 -8.871,14.835 -23.594,30.829 -48.036,53.767 0.21,0.454 -4.385,-7.447 -4.195,-7.187 65.593,-56.409 58.12,-69.273 65.678,-126.202 0,27.683 -0.006,45.738 -5.497,62.399 19.902,-28.673 20.633,-52.574 21.65,-87.29 2.208,22.895 1.811,39.758 -0.742,53.221 22.62,-35.691 20.216,-82.88 16.895,-101.946 -1.954,16.111 -5.079,21.582 -11.461,29.002 2.86,10.698 3.607,23.636 2.987,40.907 -3.066,-26.873 -4.502,-42.899 -14.829,-57.198 -1.546,13.765 -6.53,21.031 -16.524,33.62 1.854,11.709 1.605,23.901 0.106,35.759 -4.104,-21.846 7.478,-56.271 -40.955,-88.62 12.616,29.907 18.139,41.914 15.698,69.199 9.697,16.821 6.461,35.087 6.191,64.438 -1.944,-63.643 -12.388,-70.75 -38.837,-87.211 18.399,86.369 14.83,107.951 -4.279,155.41 0.102,0.098 -4.874,-3.853 -4.353,-3.506 19.431,-46.606 23.149,-59.375 2.981,-161.967 17.605,10.206 28.478,19.04 35.135,28.022 -0.116,-14.093 -0.164,-28.572 -18.891,-71.095 27.937,11.763 41.251,31.761 46.166,54.068 10.163,-12.244 13.812,-23.467 15.444,-37.385 5.778,6.477 9.85,13.145 12.567,20.988 C 1.171,-77.498 5.28,-84.934 8.532,-107.559 19.649,-69.787 15.846,-32.629 0,0" />
      </g>
      <g
         transform="matrix(0.35277777,0,0,-0.35277777,348.92529,-113.69209)"
         id="g2421">
        <path
           inkscape:connector-curvature="0"
           id="path2423"
           style="fill:#724c22;fill-opacity:1;fill-rule:nonzero;stroke:none"
           d="m 0,0 c -2.68,-16.275 -0.811,-36.199 2.606,-51.828 -4.677,0.355 -12.319,7.78 -13.68,22.154 -64.062,-18.41 -61.383,-51.924 -60.027,-65.318 -6.037,5.238 -8.828,12.775 -12.711,25.422 -4.634,-1.838 -10.11,-7.526 -12.355,-12.711 -7.15,20.126 -4.899,36.014 14.474,65.672 -10.396,-10.136 -21.152,-23.684 -23.367,-39.504 -7.012,-1.186 -13.913,-5.073 -21.825,-15.311 17.922,62.818 36.893,62.495 95.595,82.09 -29.393,6.224 -47.136,1.854 -71.497,-14.034 25.093,32.153 51.87,52.172 105.414,13.96 C 2.118,9.141 1.668,7.637 1.266,6.085 -38.614,4.687 -53.512,-9.607 -80.014,-43.179 -38.423,1.721 -20.11,-0.445 0,0 m 7.859,15.608 c -0.813,1.549 -1.962,2.663 -3.214,3.49 -16.212,10.454 -30.782,15.391 -43.672,16.571 -1.481,0.107 -3.209,0.338 -4.867,0.276 -10.074,0.206 -19.051,-1.891 -26.894,-5.365 -2.357,-0.762 -4.602,-1.782 -6.388,-3.252 -18.742,-10.852 -29.812,-29.208 -32.761,-38.641 12.234,6.652 22.323,11.694 31.528,15.19 1.528,0.506 3.443,1.267 5.264,1.859 8.161,2.658 15.788,4.019 23.849,4.136 -8.792,-2.494 -16.593,-4.894 -23.552,-7.33 -1.233,-0.449 -3.614,-1.318 -4.984,-1.806 -40.934,-15.385 -49.577,-33.418 -55.763,-86.194 10.931,13.923 20.247,21.65 28.144,24.876 -0.164,-4.878 0.529,-9.957 2.303,-15.2 0.787,-1.821 3.13,-7.267 3.13,-7.267 1.271,-2.42 2.781,-4.872 4.555,-7.351 1.546,6.546 3.151,10.513 10.243,15.359 3.855,-15.041 7.912,-20.327 18.006,-28.069 -0.185,16.942 -9.887,46.955 53.942,69.299 1.25,-13.34 8.723,-19.643 19.85,-23.578 -3.549,22.943 -5.942,46.288 1.281,72.997" />
      </g>
      <g
         transform="matrix(0.35277777,0,0,-0.35277777,471.38317,-60.464446)"
         id="g2425">
        <path
           inkscape:connector-curvature="0"
           id="path2427"
           style="fill:#724c22;fill-opacity:1;fill-rule:nonzero;stroke:none"
           d="m 0,0 c -1.705,35.288 16.815,77.069 -52.701,87.402 -24.564,2.515 -35.988,-2.224 -42.349,-10.349 -2.277,10.508 0.006,19.866 12.425,33.652 -28.556,-10.031 -62.981,-21.931 -49.254,-65.233 -1.2,0.405 5.83,-2.169 5.46,-2.018 -9.48,28.431 -6.011,43.471 35.055,61.425 -12.085,-13.06 -11.561,-26.004 -6.842,-32.825 -4.82,-9.465 -5.985,-21.683 -12.07,-32.524 -6.742,9.321 -10.73,22.705 -0.154,46.813 -11.344,-19.829 -11.873,-34.716 -3.792,-48.989 -0.994,0.596 5.881,-3.856 5.762,-3.771 13.744,21.237 6.033,58.315 55.759,50.112 58.209,-11.011 47.082,-38.334 48.454,-68.771 -0.085,0.276 -0.164,0.557 -0.249,0.832 -3.411,11.291 -9.586,21.608 -18.235,29.621 -24.447,22.646 -57.023,18.531 -82,-14.612 -0.223,0.177 3.177,-2.635 2.971,-2.457 29.892,42.385 68.628,31.888 89.309,-4.725 C -2.356,6.011 1.452,-95.579 73.257,-27.434 60.196,-63.978 55.25,-85.342 3.348,-83.573 c -57.549,4.057 -32.498,87.206 -89.326,94.424 -0.253,0.357 3.839,-5.816 3.607,-5.444 20.3,-4.787 28.081,-23.25 35.474,-42.48 -6.636,5.985 -12.605,7.118 -20.591,8.262 -0.171,0.591 1.656,-6.152 1.265,-4.639 8.082,-1.621 15.264,-4.476 22.096,-10.81 8.373,-21.487 18.181,-41.908 46.415,-43.19 45.902,-2.479 62.494,14.819 76.09,68.135 C 20.91,-68.665 10.508,-37.508 0,0 m 9.528,-47.782 c -71.805,44.307 -43.698,93.641 -105.78,70.926 -0.074,0.075 3.995,-4.313 3.734,-4.015 56.112,24.421 32.01,-36.172 102.046,-66.911" />
      </g>
      <g
         transform="matrix(0.35277777,0,0,-0.35277777,308.90816,-64.740113)"
         id="g2429">
        <path
           inkscape:connector-curvature="0"
           id="path2431"
           style="fill:#543524;fill-opacity:1;fill-rule:nonzero;stroke:none"
           d="m 0,0 c -0.392,7.051 2.849,10.333 12.955,2.812 7.42,-5.221 7.661,-11.004 4.144,-14.824 C 7.568,-11.91 3.53,-8.258 0,0 m 0.693,-8.352 c -0.446,1.403 -0.453,4.097 -0.724,5.469 3.518,-7.516 8.432,-10.845 16.065,-10.687 -0.962,-0.718 -2.095,-1.937 -3.321,-2.244 7.199,-1.721 14.532,12.504 0.368,21.578 C -3.811,17.837 -3.536,-4.036 0.693,-8.352" />
      </g>
      <g
         transform="matrix(0.35277777,0,0,-0.35277777,325.12458,-60.305767)"
         id="g2433">
        <path
           inkscape:connector-curvature="0"
           id="path2435"
           style="fill:#543524;fill-opacity:1;fill-rule:nonzero;stroke:none"
           d="m 0,0 c -4.71,3.821 -4.387,9.603 5.551,14.824 13.536,7.521 17.877,4.24 17.352,-2.812 C 18.176,3.755 12.766,0.102 0,0 M 5.382,17.776 C -13.589,8.702 -3.768,-5.523 5.876,-3.802 4.232,-3.494 2.716,-2.276 1.427,-1.558 11.65,-1.716 18.232,1.613 22.945,9.129 22.582,7.758 22.573,5.063 21.975,3.66 27.639,7.976 28.007,29.849 5.382,17.776" />
      </g>
      <g
         transform="matrix(0.35277777,0,0,-0.35277777,345.82762,-86.393507)"
         id="g2437">
        <path
           inkscape:connector-curvature="0"
           id="path2439"
           style="fill:#093035;fill-opacity:1;fill-rule:nonzero;stroke:none"
           d="m 0,0 c 0,-10.457 -11.125,-18.934 -21.582,-18.934 -10.457,0 -20.523,7.947 -20.523,18.404 0,10.457 9.536,19.464 19.993,19.464 C -11.655,18.934 0,10.457 0,0" />
      </g>
      <g
         transform="matrix(0.35277777,0,0,-0.35277777,344.21754,-86.393507)"
         id="g2441">
        <path
           inkscape:connector-curvature="0"
           id="path2443"
           style="fill:#080c1e;fill-opacity:1;fill-rule:nonzero;stroke:none"
           d="m 0,0 c 0,-8.19 -8.713,-14.829 -16.903,-14.829 -8.19,0 -16.074,6.224 -16.074,14.414 0,8.19 7.469,15.244 15.659,15.244 C -9.128,14.829 0,8.19 0,0" />
      </g>
      <g
         transform="matrix(0.35277777,0,0,-0.35277777,340.42021,-88.50086)"
         id="g2445">
        <path
           inkscape:connector-curvature="0"
           id="path2447"
           style="fill:#ffffff;fill-opacity:1;fill-rule:nonzero;stroke:none"
           d="m 0,0 c 0,-5.256 -4.261,-9.518 -9.518,-9.518 -5.256,0 -9.517,4.262 -9.517,9.518 0,5.256 4.261,9.517 9.517,9.517 C -4.261,9.517 0,5.256 0,0" />
      </g>
      <g
         transform="matrix(0.35277777,0,0,-0.35277777,341.31118,-81.194338)"
         id="g2449">
        <path
           inkscape:connector-curvature="0"
           id="path2451"
           style="fill:#ffffff;fill-opacity:1;fill-rule:nonzero;stroke:none"
           d="m 0,0 c -1.887,-1.887 -4.947,-1.887 -6.834,0 -1.888,1.887 -1.888,4.947 0,6.834 1.887,1.888 4.947,1.888 6.834,0 C 1.887,4.947 1.887,1.887 0,0" />
      </g>
      <g
         transform="matrix(0.35277777,0,0,-0.35277777,344.58979,-85.237418)"
         id="g2453">
        <path
           inkscape:connector-curvature="0"
           id="path2455"
           style="fill:#ffffff;fill-opacity:1;fill-rule:nonzero;stroke:none"
           d="m 0,0 c 0,-1.81 -1.467,-3.277 -3.277,-3.277 -1.81,0 -3.277,1.467 -3.277,3.277 0,1.81 1.467,3.277 3.277,3.277 C -1.467,3.277 0,1.81 0,0" />
      </g>
      <g
         transform="matrix(0.35277777,0,0,-0.35277777,364.20159,-129.2584)"
         id="g2457">
        <path
           inkscape:connector-curvature="0"
           id="path2459"
           style="fill:#f4a195;fill-opacity:1;fill-rule:nonzero;stroke:none"
           d="m 0,0 c -0.073,1.1 -2.097,0.789 -2.63,0.344 -1.011,-0.843 -7.846,-6.569 -8.687,-8.163 -1.571,-1.769 -3.004,-3.644 -4.218,-5.66 -0.318,-0.413 -2.858,-3.699 -3.711,-4.985 -3.166,-3.535 -6.736,-8.501 -7.908,-12.893 -0.383,-1.437 -0.81,-7.499 -0.891,-9.078 -0.236,-4.566 0.927,-11.604 5.012,-14.624 4.035,-2.984 9.34,-0.433 12.649,2.252 2.163,1.755 4.875,3.809 6.197,6.074 3.223,4.157 4.286,10.515 5.442,15.406 0.768,3.251 1.396,6.48 1.177,9.705 C 2.747,-19.455 2.454,-4.068 0,0" />
      </g>
      <g
         transform="matrix(0.35277777,0,0,-0.35277777,-495.15359,575.86844)"
         id="g2461">
        <g
           id="g2463" />
        <g
           id="g2475">
          <g
             style="opacity:0.30000299"
             id="g2473"
             clip-path="url(#clipPath2467)">
            <g
               id="g2471"
               transform="translate(2427.9802,1956.5851)">
              <path
                 inkscape:connector-curvature="0"
                 id="path2469"
                 style="fill:#db5349;fill-opacity:1;fill-rule:nonzero;stroke:none"
                 d="m 0,0 c -4.082,-1.717 -11.959,-4.425 -13.94,1.558 -0.883,2.667 -0.47,5.75 0.423,8.359 1.103,3.219 2.59,6.331 4.227,9.31 1.837,3.344 3.938,6.67 6.636,9.395 1.8,1.819 4.289,3.792 7.025,3.41 3.477,-0.485 5.402,-4.373 6.117,-7.409 0.009,-0.041 0.016,-0.082 0.026,-0.123 -0.077,5.46 -0.708,14.685 -2.527,17.7 -0.073,1.1 -2.097,0.789 -2.63,0.344 -1.011,-0.843 -7.846,-6.57 -8.687,-8.163 -1.571,-1.769 -3.004,-3.644 -4.218,-5.66 -0.318,-0.413 -2.858,-3.699 -3.711,-4.985 -3.166,-3.536 -6.736,-8.502 -7.908,-12.893 -0.383,-1.438 -0.81,-7.499 -0.891,-9.079 -0.235,-4.565 0.927,-11.604 5.012,-14.624 4.036,-2.983 9.34,-0.432 12.65,2.253 2.163,1.755 4.875,3.809 6.197,6.074 1.785,2.304 2.907,5.284 3.75,8.316 C 5.105,2.381 2.598,1.093 0,0" />
            </g>
          </g>
        </g>
      </g>
      <g
         transform="matrix(0.35277777,0,0,-0.35277777,355.27734,-111.28057)"
         id="g2477">
        <path
           inkscape:connector-curvature="0"
           id="path2479"
           style="fill:#db5349;fill-opacity:1;fill-rule:nonzero;stroke:none"
           d="m 0,0 c -4.714,15.363 1,31.505 21.407,49.072 1.52,1.308 3.811,0.36 4.094,-1.696 C 29.253,20.2 23.365,4.284 10.268,-4.078 6.411,-6.541 1.395,-4.545 0,0 M 22.708,53.45 C 2.493,34.301 -11.185,19.897 -0.455,-3.882 1.162,-7.466 5.178,-9.047 8.604,-7.45 31.377,3.164 30.467,23.302 26.89,51.803 c -0.268,2.133 -2.67,3.079 -4.182,1.647" />
      </g>
      <g
         transform="matrix(0.35277777,0,0,-0.35277777,444.39292,-55.554944)"
         id="g2481">
        <path
           inkscape:connector-curvature="0"
           id="path2483"
           style="fill:#c40033;fill-opacity:1;fill-rule:nonzero;stroke:none"
           d="m 0,0 c -4.469,18.61 -9.113,35.295 -14.312,45.898 -7.068,28.917 -24.3,37.399 -52.066,34.954 -12.41,-0.197 -22.594,-2.527 -24.495,-12.799 0,0 -22.71,-5.957 -22.641,-5.561 -5.269,2.415 -18.114,1.681 -19.664,-2.151 9.854,-17.751 14.734,-31.35 18.863,-55.035 l 1.943,-2.474 -0.699,-16.124 c -0.09,-15.652 -3.053,-31.872 -6.369,-43.744 -2.343,17.972 -6.6,30.171 -12.854,36.348 l -3.315,-7.748 c 0.034,-12.216 1.8,-25.466 5.016,-39.581 2.691,-1.958 5.304,-3.791 7.762,-5.379 -2.445,-3.652 -5.303,-7.904 -5.303,-7.904 l 0.422,-0.2 c -68.468,-51.878 -137.346,5.697 -151.625,85.513 v 11.168 c 5.322,4.535 5.477,10.26 2.597,18.056 33.404,36.57 51.005,74.538 55.396,102.854 l -2.982,7.293 c -16.826,-36.633 -36.663,-70.798 -58.567,-103.269 0,0 -9.732,-0.307 -9.498,10e-4 -5.197,14.883 -23.405,23.69 -45.592,25.596 0,0 0.138,-2.764 0.167,-4.024 -0.3,0.2 -1.483,1.223 -2.838,2.248 -1.256,1.062 -2.353,2.087 -2.353,2.087 -10.761,0.413 -22.264,-0.735 -33.549,-3.531 l -1.5,-8.871 c 39.434,5.834 69.444,3.073 78.515,-18.786 -1.434,-9.425 -0.403,-17.338 7.353,-21.123 0.788,-4.168 1.759,-9.294 2.402,-12.692 -8.236,-100.093 125.893,-155.992 171.567,-87.01 l 2.387,-1.129 7.267,10.736 c 1.123,0.119 2.236,0.244 3.344,0.375 -0.711,-20.982 -12.255,-43.773 -24.711,-60.089 43.428,4.486 62.49,37.248 59.271,66.605 v 0.001 c 16.684,4.462 31.299,10.494 44.357,17.708 C -12.043,-43.164 0.935,-32.526 0,0 m -359.619,-13.819 c -3.592,0.92 -6.483,1.672 -9.803,3.745 4.582,-45.643 24.14,-76.618 58.675,-92.924 -3.54,6.596 -5.525,10.663 -7.918,17.666 -20.512,16.903 -32.751,42.169 -40.954,71.513" />
      </g>
      <g
         transform="matrix(0.35277777,0,0,-0.35277777,444.39292,-55.554944)"
         id="g2485">
        <path
           inkscape:connector-curvature="0"
           id="path2487"
           style="fill:#2585bf;fill-opacity:1;fill-rule:nonzero;stroke:none"
           d="m 0,0 c -4.469,18.61 -9.113,35.295 -14.312,45.898 -7.068,28.917 -24.3,37.399 -52.066,34.954 -12.41,-0.197 -22.594,-2.527 -24.495,-12.799 32.402,-0.642 40.24,-22.56 45.278,-42.293 0.569,-3.984 4.382,-18.956 5.135,-22.586 1.007,-4.849 2.804,-10.288 2.204,-15.285 -0.457,-3.806 -39.981,-30.661 -58.943,-27.182 -0.665,18.964 -10.854,36.147 -15.232,40.764 l -0.64,-14.763 c -0.09,-15.652 -3.053,-31.872 -6.369,-43.744 -2.343,17.972 -6.6,30.171 -12.854,36.348 l -3.315,-7.748 c 0.034,-12.216 1.8,-25.466 5.016,-39.581 2.691,-1.958 5.304,-3.791 7.762,-5.379 -2.445,-3.652 -5.303,-7.904 -5.303,-7.904 l 0.422,-0.2 c -68.468,-51.878 -137.346,5.697 -151.625,85.513 v 11.168 c 5.322,4.535 5.477,10.26 2.597,18.056 33.404,36.57 51.005,74.538 55.396,102.854 l -2.982,7.293 c -16.826,-36.633 -36.663,-70.798 -58.567,-103.269 0,0 -9.732,-0.307 -9.498,10e-4 -5.197,14.883 -23.405,23.69 -45.592,25.596 0,0 0.138,-2.764 0.167,-4.024 -0.3,0.2 -1.483,1.223 -2.838,2.248 -1.256,1.062 -2.353,2.087 -2.353,2.087 -10.761,0.413 -22.264,-0.735 -33.549,-3.531 l -1.5,-8.871 c 39.434,5.834 69.444,3.073 78.515,-18.786 -1.434,-9.425 -0.403,-17.338 7.353,-21.123 0.788,-4.168 1.759,-9.294 2.402,-12.692 -8.236,-100.093 125.893,-155.992 171.567,-87.01 l 2.387,-1.129 7.267,10.736 c 1.123,0.119 2.236,0.244 3.344,0.375 -0.711,-20.982 -12.255,-43.773 -24.711,-60.089 43.428,4.486 62.49,37.248 59.271,66.605 v 0.001 c 16.684,4.462 31.299,10.494 44.357,17.708 C -12.043,-43.164 0.935,-32.526 0,0 m -359.619,-13.819 c -3.592,0.92 -6.483,1.672 -9.803,3.745 4.582,-45.643 24.14,-76.618 58.675,-92.924 -3.54,6.596 -5.525,10.663 -7.918,17.666 -20.512,16.903 -32.751,42.169 -40.954,71.513" />
      </g>
      <g
         transform="matrix(0.35277777,0,0,-0.35277777,-495.15359,575.86844)"
         id="g2489">
        <g
           id="g2491" />
        <g
           id="g2503">
          <g
             style="opacity:0.19999701"
             id="g2501"
             clip-path="url(#clipPath2495)">
            <g
               id="g2499"
               transform="translate(2303.6626,1776.0427)">
              <path
                 inkscape:connector-curvature="0"
                 id="path2497"
                 style="fill:#1d1d1b;fill-opacity:1;fill-rule:nonzero;stroke:none"
                 d="m 0,0 c -3.592,0.92 -6.483,1.672 -9.803,3.745 4.582,-45.643 24.14,-76.618 58.675,-92.924 -3.54,6.596 -5.525,10.663 -7.918,17.666 C 20.441,-54.61 8.203,-29.344 0,0 m 359.666,7.726 c -24.995,-32.216 -38.858,-44.025 -91.474,-53.036 0.854,6.206 0.865,12.994 0.216,19.676 13.448,0.864 28.036,9.418 42.434,16.296 16.591,12.486 19.234,24.317 16.839,35.911 -3.658,37.791 -13.294,57.768 -27.93,62.853 -18.18,5.652 -29.664,4.332 -31.005,-7.554 17.996,0.67 32.41,-5.495 41.617,-27.502 -4.769,4.823 -14.393,3.932 -27.319,2.202 13.297,-8.048 25.081,-16.266 33.83,-24.825 0.879,-4.534 1.644,-9.439 2.285,-14.754 -6.662,6.348 -13.998,8.5 -26.049,9.39 0,0 8.88,-11.461 13.559,-17.071 C 293.7,1.68 275.043,-8.187 273.235,-2.966 c -5.641,17.63 -20.697,42.214 -35.589,52.899 3.318,-9.448 5.792,-19.727 7.658,-30.808 9.278,-14.464 15.248,-25.735 16.817,-40.823 l -11.067,-40.866 3.203,-0.852 c -1.925,-15.711 -10.853,-35.792 -24.57,-58.862 l 9.21,1.444 c 16.847,15.112 25.347,26.862 26.157,49.146 8.29,1.344 17.009,3.328 24.192,7.055 l -0.288,8.959 -0.193,-0.036 c 19.824,5.203 37.237,13.032 52.581,23.114 14.956,13.04 19.606,26.547 18.32,40.322 M 240.995,-54.841 c 4.017,5.814 6.602,13.372 8.389,20.148 2.074,7.866 2.313,15.711 0.501,23.646 -1.218,5.33 -2.317,10.672 -3.142,16.064 l -0.195,-4.49 c -0.09,-15.652 -3.053,-31.872 -6.369,-43.744 -2.343,17.972 -6.6,30.171 -12.854,36.347 l -3.315,-7.747 c 0.034,-12.216 1.8,-25.466 5.016,-39.581 2.416,-1.758 4.763,-3.405 6.998,-4.875 1.936,1.05 3.675,2.356 4.971,4.232" />
            </g>
          </g>
        </g>
      </g>
      <g
         transform="matrix(0.35277777,0,0,-0.35277777,-495.15359,575.86844)"
         id="g2505">
        <g
           id="g2507" />
        <g
           id="g2519">
          <g
             style="opacity:0.25"
             id="g2517"
             clip-path="url(#clipPath2511)">
            <g
               id="g2515"
               transform="translate(2401.8892,1841.3859)">
              <path
                 inkscape:connector-curvature="0"
                 id="path2513"
                 style="fill:#ffffff;fill-opacity:1;fill-rule:nonzero;stroke:none"
                 d="M 0,0 C 7.692,18.415 11.231,32.351 13.894,45.343 1,23.468 -11.055,3.855 -21.5,-11.409 l 6.153,-6.878 z m -77.391,4.292 c 20.412,-2.787 33.896,-9.926 38.669,-22.537 l 7.723,6.837 -3.167,6.251 C -46.333,6.015 -63.504,7.353 -77.391,4.292 M 5.942,-112.079 c -12.307,19.965 -20.795,43.847 -25.059,72.062 h -10.24 c -0.996,-61.921 28.016,-109.753 96.077,-127.318 -46.095,22.216 -57.468,35.969 -60.778,55.256 M 195.014,29.328 c 17.416,-8.939 25.749,-21.2 27.129,-36.003 16.299,-5.395 20.889,-11.074 38.061,-39.971 -15.495,61.763 -24.049,79.328 -65.19,75.974 m -7.993,-15.081 c -5.021,2.02 -10.811,3.508 -16.341,3.03 -0.057,-0.246 -0.114,-0.492 -0.161,-0.748 0,0 -22.71,-5.958 -22.641,-5.561 -5.269,2.414 -18.113,1.681 -19.664,-2.152 5.954,-10.724 10.092,-19.935 13.345,-30.769 0.789,0.766 1.589,1.515 2.447,2.18 2.513,1.946 5.199,3.659 7.87,5.377 9.696,6.234 19.979,11.904 31.021,15.36 5.893,1.845 12.152,3.212 18.434,3.647 -3.913,4.271 -8.907,7.462 -14.31,9.636" />
            </g>
          </g>
        </g>
      </g>
      <g
         transform="matrix(0.35277777,0,0,-0.35277777,342.95982,-69.667254)"
         id="g2521">
        <path
           inkscape:connector-curvature="0"
           id="path2523"
           style="fill:#a00728;fill-opacity:1;fill-rule:nonzero;stroke:none"
           d="M 0,0 C -15.608,0.001 -16.322,-27.982 0.764,-27.852 18.447,-27.719 13.864,0.51 0,0" />
      </g>
      <g
         transform="matrix(0.35277777,0,0,-0.35277777,342.99376,-67.044246)"
         id="g2525">
        <path
           inkscape:connector-curvature="0"
           id="path2527"
           style="fill:#ffffff;fill-opacity:1;fill-rule:nonzero;stroke:none"
           d="M 0,0 C 0.398,-2.268 0.156,-4.206 -0.541,-4.328 -1.237,-4.45 -2.124,-2.71 -2.521,-0.442 -2.918,1.827 -2.677,3.765 -1.98,3.886 -1.284,4.009 -0.398,2.268 0,0" />
      </g>
      <g
         transform="matrix(0.35277777,0,0,-0.35277777,343.61786,-63.484153)"
         id="g2529">
        <path
           inkscape:connector-curvature="0"
           id="path2531"
           style="fill:#ffffff;fill-opacity:1;fill-rule:nonzero;stroke:none"
           d="m 0,0 c 0.398,-2.268 0.156,-4.206 -0.54,-4.328 -0.697,-0.123 -1.583,1.618 -1.981,3.886 -0.398,2.268 -0.156,4.206 0.54,4.328 C -1.284,4.009 -0.398,2.268 0,0" />
      </g>
      <g
         transform="matrix(0.35277777,0,0,-0.35277777,344.71916,-65.053626)"
         id="g2533">
        <path
           inkscape:connector-curvature="0"
           id="path2535"
           style="fill:#ffffff;fill-opacity:1;fill-rule:nonzero;stroke:none"
           d="M 0,0 C -2.268,-0.398 -4.206,-0.156 -4.328,0.541 -4.45,1.236 -2.71,2.123 -0.442,2.521 1.826,2.919 3.764,2.677 3.886,1.981 4.009,1.284 2.269,0.398 0,0" />
      </g>
      <g
         transform="matrix(0.35277777,0,0,-0.35277777,341.15892,-64.429598)"
         id="g2537">
        <path
           inkscape:connector-curvature="0"
           id="path2539"
           style="fill:#ffffff;fill-opacity:1;fill-rule:nonzero;stroke:none"
           d="M 0,0 C -2.268,-0.398 -4.206,-0.156 -4.328,0.54 -4.45,1.236 -2.71,2.123 -0.442,2.521 1.827,2.918 3.765,2.677 3.886,1.98 4.009,1.284 2.269,0.398 0,0" />
      </g>
      <g
         transform="matrix(0.35277777,0,0,-0.35277777,344.08119,-63.778688)"
         id="g2541">
        <path
           inkscape:connector-curvature="0"
           id="path2543"
           style="fill:#ffffff;fill-opacity:1;fill-rule:nonzero;stroke:none"
           d="M 0,0 C -1.885,1.323 -3.085,2.864 -2.678,3.443 -2.273,4.021 -0.415,3.418 1.47,2.095 3.355,0.772 4.554,-0.769 4.148,-1.348 3.742,-1.926 1.885,-1.323 0,0" />
      </g>
      <g
         transform="matrix(0.35277777,0,0,-0.35277777,341.12248,-65.854749)"
         id="g2545">
        <path
           inkscape:connector-curvature="0"
           id="path2547"
           style="fill:#ffffff;fill-opacity:1;fill-rule:nonzero;stroke:none"
           d="M 0,0 C -1.885,1.323 -3.084,2.864 -2.678,3.443 -2.273,4.021 -0.416,3.418 1.47,2.095 3.355,0.772 4.554,-0.769 4.148,-1.348 3.742,-1.926 1.885,-1.323 0,0" />
      </g>
      <g
         transform="matrix(0.35277777,0,0,-0.35277777,341.45346,-63.966189)"
         id="g2549">
        <path
           inkscape:connector-curvature="0"
           id="path2551"
           style="fill:#ffffff;fill-opacity:1;fill-rule:nonzero;stroke:none"
           d="M 0,0 C 1.323,1.885 2.864,3.085 3.443,2.678 4.022,2.273 3.418,0.415 2.095,-1.47 0.772,-3.355 -0.769,-4.554 -1.348,-4.148 -1.926,-3.742 -1.323,-1.885 0,0" />
      </g>
      <g
         transform="matrix(0.35277777,0,0,-0.35277777,343.52966,-66.924901)"
         id="g2553">
        <path
           inkscape:connector-curvature="0"
           id="path2555"
           style="fill:#ffffff;fill-opacity:1;fill-rule:nonzero;stroke:none"
           d="M 0,0 C 1.323,1.885 2.864,3.084 3.443,2.678 4.021,2.273 3.418,0.415 2.095,-1.47 0.772,-3.355 -0.769,-4.554 -1.348,-4.149 -1.926,-3.742 -1.323,-1.885 0,0" />
      </g>
      <g
         transform="matrix(0.35277777,0,0,-0.35277777,343.93567,-65.366152)"
         id="g2557">
        <path
           inkscape:connector-curvature="0"
           id="path2559"
           style="fill:#ffed00;fill-opacity:1;fill-rule:nonzero;stroke:none"
           d="M 0,0 C 0.292,-1.667 -0.822,-3.256 -2.49,-3.548 -4.157,-3.84 -5.745,-2.726 -6.037,-1.058 -6.33,0.609 -5.215,2.197 -3.548,2.49 -1.881,2.782 -0.292,1.667 0,0" />
      </g>
      <g
         transform="matrix(0.35277777,0,0,-0.35277777,437.43244,-39.476603)"
         id="g2561">
        <path
           inkscape:connector-curvature="0"
           id="path2563"
           style="fill:#00376d;fill-opacity:1;fill-rule:nonzero;stroke:none"
           d="m 0,0 c -12.608,-8.919 -43.781,-21.243 -70.537,-26.918 -2.755,-0.585 -5.553,-0.96 -8.366,-1.107 -2.307,-0.121 -4.488,-0.268 -6.553,-0.378 4.406,9.251 7.441,19.973 8.758,32.186 3.659,-0.207 8.163,0.327 13.728,1.769 56.484,21.309 57.885,30.754 50.441,65.606 -5.752,36.123 -15.782,50.556 -29.925,54.515 h 0.003 c 21.811,0.036 29.623,-3.569 39.33,-21.599 C 12.757,77.175 31.003,22.089 0,0 m -67.303,-67.763 c -10.287,-8.646 -18.161,-15.006 -38.132,-19.508 17.329,20.033 20.447,36.248 23.302,54.671 2.052,0.161 4.213,0.388 6.513,0.699 7.857,1.365 14.994,2.89 21.549,4.549 0.726,-8.763 -0.293,-27.048 -13.232,-40.411 m -24.499,39.226 -2.184,-4.098 c -45.16,-79.382 -183.296,-21.565 -175.013,87.942 1.07,-0.168 2.167,-0.192 3.276,-0.051 1.802,0.229 3.466,0.869 4.944,1.828 4.645,-114.588 117.633,-141.632 158.853,-88.134 l 2.667,3.735 c 6.998,10.547 11.416,23.831 12.109,39.817 0.192,2.873 0.001,3.967 -0.38,5.06 -2.768,6.987 -3.284,16.131 -4.133,23.203 -0.056,0.674 -0.247,1.772 -0.617,3.219 5.078,-7.428 11.907,-22.302 11.75,-28.95 -1.425,-17.391 -5.404,-31.831 -11.272,-43.571 M -278.46,70.17 c -0.895,7.033 3.156,13.346 9.046,14.092 5.889,0.753 11.386,-4.342 12.281,-11.375 0.895,-7.034 -3.151,-13.341 -9.04,-14.094 -5.889,-0.746 -11.392,4.343 -12.287,11.377 m 215.816,44.506 c -2.372,0.177 -4.724,0.214 -7.065,0.137 0.126,4 4.362,8.189 10.251,7.724 31.842,0.014 34.078,-17.167 43.454,-51.7 2.296,-15.85 4.325,-25.809 -1.555,-34.707 -8.363,46.149 -12.638,75.167 -45.085,78.546 M 2.75,104.368 c -9.667,24.188 -32.36,27.252 -57.705,22.434 l 0.005,-0.001 c -1.85,-0.104 -3.752,-0.302 -5.707,-0.579 -8.961,-1.752 -12.396,-7.02 -12.519,-11.604 -7.468,-0.615 -14.844,-2.395 -22.352,-4.88 -6.17,1.629 -12.952,1.691 -19.905,-0.475 l 1.985,-3.346 c 16.202,5.15 28.501,-1.436 40.043,-11.921 -4.097,6.009 -10.135,11.108 -17.281,14.096 9.493,3.059 19.962,5.142 27.839,4.159 21.365,-4.039 30.01,-20.812 35.751,-43.384 -7.547,7.025 -18.355,13.327 -29.798,19.49 l 30.855,-23.843 c 2.247,-9.664 4.101,-20.252 6.263,-31.27 -0.864,-0.978 -1.841,-1.95 -2.935,-2.922 -7.991,10.707 -16.013,19.989 -24.068,27.819 L -25.023,28.408 C -32.558,22.567 -44.682,16.563 -63.722,8.929 -68.896,7.111 -73.036,6.687 -76.37,7.284 c 0.27,3.418 0.417,6.94 0.417,10.583 0,6.7 -12.509,26.561 -18.04,32.19 l -0.592,0.825 0.575,-5.031 c 0.033,-0.301 0.064,-0.602 0.095,-0.904 l -0.064,0.307 0.638,-12.97 0.418,-3.935 c 0.381,-6.427 1.076,-12.27 3.256,-16.652 -2.788,-14.571 -7.764,-26.623 -14.307,-36.249 -5.945,5.211 -9.715,16.791 -11.905,41.693 l -2.024,-3.595 -1.761,-2.712 2.638,-17.808 c 0.239,-2.546 0.574,-4.96 1.069,-7.214 l 10e-4,-0.004 -10e-4,0.002 c 1.365,-6.215 3.939,-11.217 8.985,-14.478 -43.057,-54.878 -141.955,-18.236 -150.786,88.465 2.798,3.383 4.253,8.268 3.591,13.466 -0.224,1.765 -0.679,3.434 -1.317,4.971 33.759,36.149 52.805,77.776 56,98.024 l -2.129,5.41 c -6.154,-29.043 -20.253,-57.528 -55.468,-100.422 -1.135,1.721 -2.531,3.175 -4.105,4.281 27.442,40.493 47.291,76.233 58.82,109.646 l -4.212,-3.314 c -12.389,-31.76 -30.792,-66.135 -57.459,-104.797 -1.838,0.718 -3.814,1 -5.828,0.744 -0.799,-0.102 -1.57,-0.288 -2.312,-0.543 -7.42,17.024 -23.827,24.714 -46.171,25.525 l 0.198,-3.391 c 21.592,-1.165 35.621,-8.436 43.811,-23.127 -1.654,-0.97 -3.088,-2.333 -4.236,-3.981 -15.01,22.801 -40.231,23.961 -77.492,18.551 l 0.68,6.054 c 13.107,1.996 24.546,2.91 34.464,2.618 l -3.753,3.328 c -10.216,-0.19 -21.459,-0.716 -33.577,-3.236 -3.08,-0.339 -3.009,-12.165 -0.711,-11.915 44.473,5.679 68.82,-0.208 78.58,-18.833 -1.043,-2.71 -1.454,-5.825 -1.042,-9.063 0.699,-5.491 3.599,-10.053 7.464,-12.556 l 0.002,-3.425 0.009,0.006 c -0.7,-127.796 143.47,-163.981 186.202,-86.687 h 0.018 c -1.522,-15.764 -9.566,-35.771 -27.328,-58.921 17.348,-6.117 45.858,12.287 55.48,26.366 12.977,17.67 12.181,28.537 11.051,39.544 21.99,6.134 37.056,13.892 50.482,22.382 38.992,26.171 12.855,79.26 0.796,107.866 M -298.935,-39.756 c -0.985,3.257 -1.525,5.083 -2.357,8.34 -14.924,13.892 -27.467,34.884 -34.23,62.42 -1.166,0.204 -3,0.459 -4.366,0.754 6.479,-33.828 22.161,-57.567 40.953,-71.514 m -50.756,75.259 c -0.636,0.441 -2.618,1.865 -3.799,3.166 4.973,-54.321 33.75,-89.313 66.178,-102.874 l 0.666,0.381 -4.371,6.402 c -29.291,15.372 -54.468,48.689 -58.674,92.925" />
      </g>
    </g>
  </g>
</svg>
