<?xml version="1.0" encoding="UTF-8"?>
<svg width="98.375mm" height="125.74mm" version="1.1" viewBox="0 0 98.375 125.74" xmlns="http://www.w3.org/2000/svg"><defs><clipPath id="clipPath18467"><path d="m1879.1 490.25h261.14v-321.66h-261.14z"/></clipPath><clipPath id="clipPath18483"><path d="m1872.8 518.39h273.25v-319.01h-273.25z"/></clipPath></defs><g transform="translate(-63.273 -84.05)"><g transform="matrix(.35278 0 0 -.35278 104.71 94.313)"><path d="m0 0c4.174-39.258 15.777-50.415 32.196-43.35 16.278 11.841 37.016 15.727 60.081 15.464 16.578 7.576 10.6 28.299 0 51.716 12.642-6.966 23.289-17.021 31.942-30.168l2.028 8.62c13.996-18.183 17.049-33.329 15.211-55.012l11.408 15.211c4.839-18.312 5.914-34.823 1.956-48.928-5.231-11.882-5.005-25.361-3.857-39.109-6.003-12.049-13.993-19.79-22.436-26.549 28.711-47.406 40.434-75.039 4.672-125.33 2.211-7.414 2.084-14.969-5-22.941 23.653-17.614 9.298-24.178-1.947-20.739-16.089-5.027-17.559 5.058-38.816 6.515 2.325-8.619-8.234-13.568-17.469-9.954-5.361-4.047-20.873 0.219-36.886 6.294-29.19-0.578-37.179-11.351-37.139 10.146-25.909-1.034-50.234-5.431-100.14 44.469l-5.07 17.366c-9.874 13.793-8.327 19.981 5.197 11.441 19.726-11.051 41.386-18.298 68.954-13.916l10.521 11.854c13.897 41.764 22.74 64.644 59.574 73.771-24.482 25.106-6.935 19.087-40.434 46.392l-13.943 32.323 17.745-7.099c-8.484 9.375-20.836 35.764-16.985 55.519 0.259 0.222 7.098-7.986 7.098-7.986-2.02 19.063 1.494 33.973 11.535 43.984" style="fill:#bc723f"/></g><g transform="matrix(.35278 0 0 -.35278 129.46 123.5)"><path d="m0 0c-22.639 26.524-50.37 7.234-51.441-18.219 1.875-38.715 43.585-51.973 58.457-19.425l8.156 3.023c27.475-19.417 60.918 20.555 37.609 50.696-12.994 15.272-45.586 23.22-52.781-16.075" style="fill:#efb37d"/></g><g transform="matrix(.35278 0 0 -.35278 137.08 138.56)"><path d="m0 0c-0.051 0.394-0.12 0.785-0.204 1.17 0.236 1.561 0.07 3.218-0.554 4.451-1.039 2.052-3.57 3-5.654 3.817-0.618 0.319-1.296 0.607-1.992 0.82-0.991 0.402-2.033 0.739-3.032 0.649-0.372 0.08-0.833 0.025-0.985-0.196-0.018-0.026-0.036-0.053-0.054-0.079-0.213-0.098-0.422-0.22-0.626-0.378-1.468-1.142-2.205-3.282-2.56-5.28-0.692-1.648-1.179-3.363-1.299-5.077-0.121-1.729 0.773-2.84 1.897-4.044 1.525-1.634 3.17-3.15 4.902-4.561 2.312-1.884 5.201-3.124 7.771-0.842 2.437 2.164 2.78 6.539 2.39 9.55" style="fill:#ffb127"/></g><g transform="matrix(.35278 0 0 -.35278 141.95 158.44)"><path d="m0 0c-21.368-5.133-34.328-46.586-34.213-82.949 8.849-6.413 13.304-19.598 3.655-37.636l9.19-6.278c103.32 48.626 79.929 138.84 21.368 126.86" style="fill:#efb37d"/></g><g transform="matrix(.35278 0 0 -.35278 150.45 200.68)"><path d="m0 0c-2.565 0.992-5.196 1.781-7.818 2.318-5.609 1.149-11.361 1.331-17.029 2.091-2.304-1.083-4.607-2.169-6.89-3.295-4.166-2.056-8.242-4.218-12.616-5.785-1.697-0.825-3.51-1.143-5.36-0.519-2.952 0.995-5.183 3.421-7.773 5.049-0.028 0.017-0.057 0.032-0.084 0.049-3.807 1.156-7.724 2.006-11.649 2.718-0.03 3e-3 -24.531 6.921-49.676-1.865-3.504-1.35-6.755-3.281-9.836-5.414-1.679-1.163-3.522-2.332-4.909-3.843-0.025-0.026-0.047-0.055-0.071-0.081 0.472-18.852 8.861-8.741 37.117-8.181 16.013-6.075 31.525-10.341 36.886-6.294 9.235-3.614 19.795 1.335 17.47 9.954 21.256-1.457 22.726-11.542 38.815-6.515 11.002-3.365 24.974 2.847 3.423 19.613" style="fill:#ffb127"/></g><g transform="matrix(.35278 0 0 -.35278 99.598 180.84)"><path d="m0 0c2.276-14.603 13.014-2.216 24.527 12.644-5.653-14.64-8.325-25.984-4.754-30.421 9.814 4.539 16.44 15.376 23.102 26.143-1.634-18.223-1-32.155 6.559-32.988 10.195 1.273 18.918 11.699 29.28 30.516 2.314-34.224-26.776-49.434-52.381-47.533-23.08-2.889-41.385 1.548-57.419 9.469-9.911 3.112-9.863 7.426 0 12.925z" style="fill:#efb37d"/></g><g transform="matrix(.35278 0 0 -.35278 102.47 172.48)"><path d="m0 0c6.14 1.03 12.784 9.588 19.521 19.52-3.914-10.177-7.107-20.231-3.676-29.153 9.228 5.918 14.984 16.251 20.914 26.365-1.092-13.898-1.726-27.172 3.422-32.576 13.061 1.221 19.419 14.818 25.858 28.266 3.468-9.198 7.037-18.351 5.577-29.7-10.01-14.723-20.066-28.387-30.548-32.156-7.102 4.305-8.626 16.504-6.337 34.097-5.945-10.857-12.876-20.509-23.102-26.143-3.202 8.789-0.039 19.375 4.754 30.421-6.353-9.627-16.789-20.439-22.395-19.058-3.858 4.498-0.53 15.788 6.012 30.117" style="fill:#d18856"/></g><g transform="matrix(.35278 0 0 -.35278 87.086 187.63)"><path d="m0 0c-13.468 2.49-34.677 16.661-54.117 29.673-11.15 5.038-14.664 3.43-2.535-11.791 18.379-22.642 48.483-40.155 77.589-41.162l-2.465 6.971c-22.286 2.943-27.012 8.601-18.472 16.309" style="fill:#d18856"/></g><g transform="matrix(.35278 0 0 -.35278 66.75 181.32)"><path d="m0 0c21.709-24.57 52.076-40.155 78.583-41.162 5.93-8.98 15.264-13.551 26.222-16.016-15.717-9.906-44.49-5.786-80.869 19.881-22.93 18.226-27.696 29.413-23.936 37.297" style="fill:#efb37d"/></g><g transform="matrix(.35278 0 0 -.35278 -596.49 268.78)"><g clip-path="url(#clipPath18467)" style="opacity:.2"><g transform="translate(2063.2 361.78)"><path d="m0 0c1.065-1.6 2.163-3.184 3.338-4.705 2.122-2.748 5.202-5.302 8.863-5.251 6.52 0.091 9.781 11.59 5.277 15.863-0.011 0.465-0.054 0.928-0.15 1.384-0.051 0.246-0.561 0.306-0.653 0.056-0.093-0.254-0.177-0.511-0.253-0.77-0.095-1e-3 -0.187-0.024-0.273-0.058-2e-3 -0.042-1e-3 -0.083-9e-3 -0.127-0.465-2.778-1.508-11.219-5.966-10.293-0.05 0.01-0.1 0.026-0.15 0.038 0.301 0.04 0.545 0.181 0.428 0.431 0.21 0.094 0.333 0.258 0.23 0.485-0.848 1.868-1.657 3.832-2.663 5.616-1.001 1.777-2.038 3.553-2.701 5.492-0.595 1.74-0.871 3.58-0.758 5.42 0.08 1.305 1.236 3.162 0.44 4.283-0.086 0.122-0.335 0.151-0.468 0.121-1.362-0.315-2.113-1.336-2.484-2.618-0.063-0.05-0.113-0.11-0.138-0.185-0.077-0.217-0.145-0.436-0.218-0.654-1.093-2.944-3.678-6.093-1.796-9.182 0.625-1.024 1.513-1.965 2.399-2.855 0.675-0.955 1.491-1.789 2.397-2.402 1.033-1.006 2.114-1.969 3.318-2.751 0.045-0.029 0.114-0.047 0.191-0.055 0.282-0.275 0.57-0.545 0.866-0.809-1.658 0.76-3.22 2.313-4.445 3.442-1.79 1.648-3.837 3.336-5.224 5.362-0.365-0.016-0.714-0.161-0.718-0.514-9e-3 -0.875-0.261-1.625-5e-3 -2.477 0.25-0.833 0.848-1.571 1.325-2.287m5.068-184.64c-3.274-2.106-4.683 2.076-5.85 4.337-2.136 4.139-4.675 7.057-9.269 8.412-0.326 0.096-1.245-0.157-0.684-0.559 1.371-0.983 2.886-1.733 4.133-2.892 1.222-1.134 2.073-2.579 2.813-4.057 0.402-0.801 0.786-1.779 1.222-2.762-0.2-1.563-0.178-3.244-1.247-4.523-1.304-1.56-3.586-2.162-5.535-2.149-3.405 0.024-6.727 1.77-9.668 3.303-5.919 3.087-12.047 5.249-18.69 6.119-6.773 0.886-13.658 0.641-20.398-0.41-3.514-0.548-6.986-1.349-10.421-2.261-1.751-0.464-3.475-0.954-5.169-1.597-0.617-0.234-1.376-0.46-2.022-0.811-1.669 0.591-3.119 1.539-3.164 3.441-0.041 1.697 0.982 3.357 0.554 5.068-0.325 1.297-1.466 2.21-2.792 2.668 0.17 0.267 0.278 0.559 0.283 0.886 0.026 1.476-1.418 2.308-2.56 2.897-1.286 0.664-2.806 1.344-4.259 0.909l-7e-3 -3e-3c-3.572 2.003-6.905 4.303-9.981 7.25-2.062 1.976-4.051 4.033-6.132 5.98-0.351 0.466-0.717 0.911-1.038 1.339-0.62 0.824-1.246 1.58-1.958 2.245-0.259 0.388-0.612 0.651-1.011 0.83-0.328 0.234-0.673 0.453-1.049 0.649-1.044 0.547-2.156 0.933-3.279 1.285-1.805 1.046-3.755 1.879-5.628 2.666-3.563 1.497-6.809 3.131-10.05 5.135-0.2 0.255-0.394 0.516-0.576 0.789-1.927 2.887-0.415 5.275 1.945 6.891 0.067-0.024 0.134-0.05 0.202-0.073 1.033-0.344 1.914-0.289 2.949 0.013 1.845 0.538 3.795 1.066 5.527 1.903 0.198 0.096 0.462 0.233 0.535 0.461 0.775 0.301 1.534 0.635 2.269 0.972 1.621 0.744 4.746 1.746 5.532 3.566 0.861 0.503 1.621 1.091 1.982 1.762 0.832 0.434 1.658 0.88 2.484 1.328 2.475 1.345 4.852 2.807 6.965 4.681 0.111 0.099 0.175 0.189 0.203 0.273 0.207 0.071 0.402 0.177 0.564 0.319 0.699 0.612 1.383 1.239 2.059 1.875-0.542-2.398-0.329-4.968 0.888-7.042 1.663-2.834 4.938-4.209 8.117-3.253 3.367 1.014 6.261 4.014 8.42 6.815-0.115-0.54-0.219-1.075-0.317-1.596-0.59-3.132-0.804-6.337-0.636-9.519 0.123-2.325 0.195-5.218 2.234-6.75 1.648-1.237 3.939-1.213 5.861-0.813 4.945 1.029 9.176 4.438 12.365 8.213 1.715 2.03 3.195 4.249 4.564 6.524-0.077-1.148-0.111-2.303-0.138-3.452-0.082-3.568-0.259-7.542 0.517-11.043 1.296-5.851 7.998-7.514 13.226-7.232 8.175 0.442 15.652 5.394 20.883 11.961 0.312 0.029 0.589 0.109 0.75 0.238 3.165 2.522 4.992 6.268 6.946 9.729 0.061 0.108 0.12 0.217 0.181 0.325 2.165-0.898 3.891-2.225 5.59-4.132 1.506-1.689 2.794-3.46 4.43-4.972 0.209-0.343 0.419-0.687 0.621-1.034 0.886-1.523 1.701-3.088 2.447-4.685-0.053-8e-3 -0.104-0.016-0.156-0.024 3.982-9.737 2.697-20.274-2.15-31.35l5.998-4.098c0.163-0.227 0.318-0.46 0.466-0.699l-0.744-0.274s1.183-1.428 2.559-3.01c-0.386-2.625-0.081-5.294-2.706-6.982m-94.731 74.563c0.449 0.896 0.792 1.867 1.057 3.014 0.587 2.542 1.242 5.062 2.021 7.553 0.365 1.165 0.667 2.357 0.98 3.544 0.336 0.642 0.68 1.281 1.027 1.917 0.011 1e-3 0.021 2e-3 0.032 3e-3 3e-3 -0.02 0.013-0.041 0.034-0.065 0.142-0.161 0.291-0.297 0.443-0.419 0.04-0.051 0.094-0.094 0.163-0.125 0.718-0.506 1.525-0.619 2.359-0.483 2.212 0.099 4.887 2.495 6.162 3.533 1.202 0.978 2.371 1.994 3.508 3.047-0.375-1.697-0.596-3.442-0.642-5.156-0.06-2.208-0.084-4.985 0.842-7.047 0.815-1.812 2.45-2.037 3.973-1.466-0.119-0.249-0.233-0.492-0.34-0.719-0.07-0.151-0.064-0.281-0.01-0.392-0.54-0.749-1.076-1.5-1.609-2.253-2.101-1.898-4.204-3.768-6.18-5.816-1.544-1.6-3.739-3.451-4.974-5.514-0.375-0.31-0.746-0.623-1.126-0.929-0.262-0.211-0.642-0.461-1.026-0.739-1.557-0.774-3.13-1.332-4.657-1.126-0.668 0.492-1.199 1.084-1.633 1.74-0.262 1.119-0.355 2.259-0.38 3.428-0.032 1.498-0.063 2.985-0.024 4.47m22.013-26.246c-0.196-0.097-0.39-0.2-0.591-0.289-0.145-0.065-0.296-0.13-0.451-0.194 0.304 0.153 0.603 0.32 0.901 0.49 0.047-4e-3 0.094-6e-3 0.141-7e-3m2.424 32.008c3.369 2.322 6.805 4.508 9.929 7.167 0.67 0.57 1.323 1.161 1.967 1.762 0.186-3.875 1.357-7.851 2.669-11.388 0.018-0.05 0.048-0.089 0.078-0.126-0.096-0.426-0.191-0.85-0.283-1.273-0.239-1.094-0.471-2.193-0.681-3.293-1.64-1.868-2.906-4.178-4.216-6.28-1.097-1.276-2.194-2.552-3.377-3.726-1.489-1.477-3.013-2.977-4.584-4.419-2.041-1.207-5.507-4.204-7.897-2.981-0.014 0.043-0.03 0.083-0.044 0.128-0.908 3.007-0.25 6.59 0.264 9.609 0.627 3.687 1.605 7.369 2.547 10.987 0.018 0.066 5e-3 0.12-0.019 0.167 0.2 0.327 0.398 0.654 0.592 0.984 0.551 0.937 1.455 2.167 2.007 3.384-8e-3 -0.14-0.013-0.281-8e-3 -0.426 0.016-0.448 0.785-0.463 1.056-0.276m4.883 4.43c0.04 0.018 0.076 0.039 0.107 0.064 0.313 0.254 0.629 0.506 0.943 0.759 0.142 0.112 0.284 0.223 0.426 0.335-0.949-0.799-1.922-1.57-2.923-2.3 0.482 0.382 0.964 0.762 1.447 1.142m-94.643-34.572c-0.086 0.064-0.173 0.127-0.259 0.192 0.248-0.123 0.495-0.248 0.744-0.369 0.375-0.182 0.753-0.357 1.13-0.535-0.537 0.241-1.075 0.478-1.615 0.712m213.86-48.099c-0.161 4.664-5.521 10.573-12.826 12.204 3.719-4.607 5.515-8.469 6.083-11.854-0.328 0.043-0.657 0.087-0.994 0.138-19.016-1.193-16.882 9.61-30.89 11.46 4.114 2.036 7.989 4.154 11.631 6.355 5.783-0.6 19.292-3.39 19.95-3.298 8.339 5.328 7.145 7.842 7.056 25.73 17.376 20.658 21.779 45.852 15.347 74.833-2.315-9.499-5.389-18.107-9.215-25.8-0.188 0.209-0.374 0.416-0.557 0.618-0.805 1.368-1.655 2.68-2.728 3.911-0.028 0.032-0.166 0.04-0.155-0.027 0.369-2.249 1.323-4.162 2.356-6.183 0.037-0.072 0.075-0.148 0.112-0.223-7.076-13.503-16.575-24.055-28.469-31.516 0.362 1.447 0.648 2.973 0.403 4.382-0.033 0.193-0.385 0.199-0.466 0.04-0.299-0.583-0.525-1.208-0.715-1.851-0.013-6e-3 -0.027-0.013-0.032-0.022-0.971-1.456-1.814-3.003-2.615-4.565-2.637-1.47-5.376-2.808-8.233-3.992-0.708 0.678-1.403 1.35-2.01 2.038-1.86 2.11-3.535 4.639-5.693 6.463-0.582 1.104-1.2 2.231-2.108 2.996-0.052 0.044-0.185 0.054-0.199-0.034-0.293-1.735 1.124-3.942 1.913-5.43 0.248-0.467 0.504-0.93 0.765-1.39 0.143-0.266 0.285-0.532 0.426-0.797 0.952-1.798 1.888-3.619 2.918-5.376-3.127-1.114-6.369-2.077-9.74-2.867-0.864 2.249-1.813 4.457-2.936 6.597-0.675 1.285-1.39 2.548-2.163 3.772-1.304 2.375-2.879 4.584-4.871 6.207 0.316 1.901 0.349 3.908 0.455 5.439 0.222 3.175 0.196 6.381-0.097 9.559 0.093-0.11 0.185-0.22 0.284-0.327 0.282-0.306 0.575-0.604 0.866-0.904 0.614-1.228 1.603-2.344 2.464-3.305 1.772-1.979 3.639-4.037 5.656-5.766 0.447-0.383 1.58-0.526 1.868 0.154 1.594 3.757 3.479 7.586 3.782 11.721 7e-3 0.092-0.179 0.082-0.21 0.019-0.407-0.839-0.785-1.687-1.155-2.539-1.427-1.101-2.288-2.901-3.044-4.542-0.246 0.193-0.482 0.365-0.653 0.508-0.947 0.791-1.949 1.54-2.808 2.425-0.057 0.059-0.163 0.085-0.272 0.087-0.608 0.606-1.217 1.176-1.717 1.708-1.749 1.864-3.498 3.706-5.635 5.096-0.088 0.523-0.184 1.044-0.289 1.562-2.008 9.853-6.552 19.634-12.397 27.776-0.368 0.512-2.11 0.22-1.694-0.451 0.727-1.173 1.411-2.366 2.06-3.573-0.42-2.289 0.885-5.37 1.344-7.589 0.556-2.698 1.064-5.406 1.494-8.127 0.41-2.599 0.673-5.225 0.901-7.846 0.041-0.473 0.072-0.953 0.106-1.433-0.15-0.06-0.275-0.14-0.351-0.245-2.497-3.509-4.249-7.55-6.018-11.455-0.357-0.786-0.712-1.574-1.066-2.361-0.295-0.598-0.571-1.211-0.826-1.84-0.034-0.076-0.068-0.153-0.102-0.229-1.228-2.157-2.516-4.333-3.478-6.588-0.16-0.171-0.316-0.346-0.475-0.518-3.955-4.256-8.18-8.678-13.069-11.835-2.621-1.693-5.707-1.879-8.752-1.406-0.394 0.061-0.747 0.151-1.075 0.26-0.799 0.42-1.517 0.985-2.089 1.709-1.74 2.202-2.045 5.269-2.17 7.972-0.121 2.606 0.054 5.213 0.09 7.818 0.018 1.31-0.021 2.587-0.089 3.859 0.594 1.688 0.757 3.649 0.947 5.287 0.083 0.718 0.166 1.435 0.249 2.152 0.466-3.329 3.106-6.791 6.082-7.784 3.94-1.314 8.349 0.326 11.439 2.816 3.4 2.74 5.761 6.632 7.43 10.622 0.887 2.118 1.508 4.384 2.162 6.584 0.315 1.06 0.699 2.209 0.941 3.369 0.481 1.446 0.945 2.897 1.387 4.356 0.658 2.168 1.516 4.448 1.883 6.742 0.432 1.37 0.768 2.766 0.833 4.146 0.035 0.737-1.691 0.811-1.842 0.158-0.656-1.421-1.068-2.952-1.515-4.465-0.956-2.234-2.129-4.423-3.185-6.471-0.74-1.435-1.518-2.853-2.329-4.253-0.961-0.621-1.73-1.45-2.49-2.291-16.781-9.793-17.006 8.231-17.71 26.812-0.257-1.624-0.499-3.218-0.725-4.784-0.073-0.021-0.135-0.049-0.171-0.079-0.252-0.219-0.722-0.836-1.18-1.591-0.237 0.043-0.54-0.028-0.637-0.203-3.213-5.808-5.933-11.69-9.946-17.036-0.31-0.413-0.625-0.821-0.943-1.227-8.667-1.538-6.164 12.671-3.367 27.294-0.653-1.504-1.265-3.03-1.857-4.557-0.058-0.012-0.11-0.031-0.135-0.055-0.546-0.535-1.015-1.16-1.434-1.827-1.444-1.634-2.57-3.69-3.738-5.485-0.215-0.331-0.423-0.663-0.628-0.996-0.983-1.161-1.98-2.312-2.956-3.477-0.087-0.104-0.177-0.209-0.269-0.314-0.481-0.356-0.957-0.722-1.415-1.113-0.115-0.097-0.241-0.201-0.372-0.307-4.959-0.758-5.641 4.452-4.4 12.346 0.305 0.716 0.602 1.434 0.882 2.166 0.902 2.355 1.899 4.694 2.984 6.971 2.15 4.513 4.746 8.862 8.027 12.647 2.983 3.439 6.55 6.492 10.41 8.91 1.852 1.161 3.788 2.134 5.844 2.881 0.902 0.328 2.578 0.557 3.752 1.151 22.723-13.438 45.554-17.661 64.268-14.553 0.633-0.777 1.422-1.468 2.108-2.087 1.516-1.366 3.051-2.705 4.633-3.995 1.502-1.225 3.019-2.43 4.555-3.613 1.349-1.039 2.624-2.366 4.416-2.288 0.182 8e-3 0.489 0.062 0.562 0.27 0.026 0.076 0.053 0.153 0.08 0.229 0.897 1.583 1.475 3.348 1.87 5.126 0.364 1.639 0.855 3.495 0.847 5.2 0.226 1.226 0.374 2.454 0.478 3.754 3e-3 0.029-0.061 0.028-0.07 6e-3 -0.509-1.251-0.99-2.489-1.445-3.741-0.013-0.011-0.025-0.023-0.031-0.037-0.655-1.414-1.447-2.752-2.068-4.182-0.497-1.144-1.398-2.516-1.3-3.774 7e-3 -0.089 0.042-0.157 0.094-0.211-0.012-0.027-0.023-0.054-0.035-0.081-2.162 1.803-4.567 3.395-6.744 5.145-1.848 1.485-3.732 3.293-5.793 4.673 16.257 3.248 29.17 12.164 35.812 25.463l-3.311 5.513c-7.378-5.444-15.762-10.412-26.42-13.562-0.382-0.055-0.764-0.111-1.146-0.169-75.425-3.34-65.011 31.9-90.062 53.046 6.044-0.838 10.499 0.026 13.436 2.514-12.075 15.723-25.146 31.397-31.435 47.406 5.715-4.723 10.549-5.372 14.957-4.056-10.002 24.714-13.477 42.981-8.619 62.617-8.654-3.891-12.756-16.175-10.775-39.674l-7.098 7.985c-3.225-22.69 5.336-39.831 16.985-55.518l-17.746 7.098 9.507-24.59 32.925-40.109c0.412-1.31 0.942-2.54 1.577-3.698 0.522-1.282 1.101-2.538 1.905-3.697 0.933-1.344 2.144-2.301 3.288-3.444 1.564-1.562 1.385-2.995 0.291-4.451-8.594-1.231-16.675-6.469-22.874-12.343-2.749-2.604-5.422-5.427-7.655-8.521-1.135-1.213-2.203-2.508-3.245-3.786-2.593-3.185-4.799-6.78-6.86-10.326-2.101-3.615-3.876-7.394-5.434-11.272-0.458-1.138-1.021-2.467-1.503-3.862-0.698-1.427-1.353-2.863-1.969-4.291-0.715-1.658-1.38-3.333-1.994-5.026-1.139-2.772-2.159-5.594-3.064-8.451-0.699-1.874-1.344-3.762-1.888-5.696-0.474-1.682-1.06-3.45-1.49-5.225-1.663-1.042-3.366-2.042-4.924-3.262-1.849-1.449-3.177-3.17-4.072-5.353-0.067-0.162-0.126-0.322-0.183-0.482-0.421-0.014-0.83-0.012-1.113-0.04-1.374-0.132-2.751-0.217-4.13-0.259-2.584-0.079-5.16 0.014-7.74 0.149-5.182 0.271-10.018 1.443-15.042 2.573-0.884 0.352-1.774 0.685-2.684 0.956-0.112 0.033-0.405-0.046-0.227-0.186 2.427-1.892 5.819-2.71 8.646-3.8 2.809-1.082 5.631-2.046 8.55-2.793 2.994-0.767 6.091-1.338 9.193-1.246 0.749 0.022 2.278 0.038 3.761 0.255-0.03-0.88-0.011-1.781 0.012-2.728-0.173-0.102-0.346-0.201-0.518-0.293-0.347-0.184-0.698-0.363-1.052-0.538-1.238 0.482-2.674 0.406-3.985 0.493-2.162 0.142-4.316 0.373-6.459 0.687-4.115 0.601-8.186 1.363-12.189 2.502-8.133 2.315-15.787 5.992-23.311 9.789-0.138 0.069-0.736-9e-3 -0.483-0.236 3.29-2.943 7.024-5.303 10.986-7.225 2.044-1.601 4.664-2.74 6.863-3.933 2.602-1.413 5.206-2.833 7.943-3.972 1.322-0.549 2.678-1.034 4.061-1.411 0.703-0.53 1.439-1.016 2.203-1.453-0.767-0.267-1.497-0.651-2.047-0.949-0.774-0.421-1.58-0.911-2.26-1.504-1.366 0.41-2.824 0.63-4.17 0.97-2.356 0.596-4.684 1.287-6.996 2.033-4.611 1.487-9.132 3.215-13.53 5.25-4.392 2.033-8.652 4.361-12.752 6.932-4.165 2.613-8.021 5.782-12.317 8.17-0.207 0.115-0.924 0.05-0.65-0.317 0.043-0.059 0.091-0.115 0.135-0.173-0.1-0.034-0.173-0.101-0.135-0.215 0.675-2.003 2.975-3.757 4.5-5.131 0.081-0.073 0.164-0.145 0.246-0.218 2.47-2.675 5.056-5.031 7.918-7.194 1.921-1.834 4.036-3.471 6.128-5.095 3.056-2.371 6.116-4.734 9.237-7.02 5.808-4.253 11.886-7.997 18.506-10.856 2.808-1.213 5.685-2.268 8.607-3.185 0.255-0.769 0.552-1.53 0.959-2.302 0.853-1.62 1.764-3.19 2.799-4.7 2.299-3.356 4.937-6.495 7.981-9.2 2.763-2.456 5.775-4.534 9.125-6.106 2.334-1.095 5.365-2.495 8.154-2.47 1.381-0.324 2.785-0.541 4.205-0.643 0.904-0.282 1.751-0.45 2.157-0.498 1.851-0.215 3.693-0.012 5.527 0.266 0.49 0.075 0.999 0.153 1.485 0.282 0.925 0.11 1.801 0.411 2.671 0.881 0.596 0.323 1.477 0.726 2.128 1.279 1.294-0.504 2.121-1.514 2.133-3.011 0.013-1.696-0.977-3.351-0.521-5.06 0.432-1.621 1.855-2.614 3.483-3.144-0.079-0.09-0.156-0.183-0.218-0.286-0.237-0.09-0.412-0.241-0.361-0.485 0.527-2.509 3.262-2.389 5.296-2.103 0.105 0.015 0.211 0.031 0.317 0.046 3.09-0.592 6.722 0.058 9.423 0.547 5.903 1.067 11.577 2.79 17.64 2.656 6.311-0.139 12.217-1.918 17.851-4.679 4.687-2.297 9.368-4.175 14.699-3.635 2.563 0.26 5.999 1.252 8.52 3.044-0.255-0.569-0.361-1.152 0.053-1.661 0.71-0.871 2.647-1.075 3.651-1.193 1.454-0.17 2.932-0.109 4.362 0.213 5.11 1.15 8.809 5.768 8.29 10.855 11.536-0.429 22.783-9.176 37.796-6.498 13.557-1.858 15.97 2.056 15.311 7.56-1.828-1.026-4.198-1.628-7.154-1.77m-107.67 201.42c1.057-1.527 2.552-2.679 3.91-3.917 1.408-1.283 2.733-2.662 4.136-3.953 0.504-0.463 2.345-0.204 1.658 0.611-1.039 1.231-2.259 2.468-3.099 3.847-0.875 1.437-1.248 3.122-1.78 4.695-7e-3 0.023-0.014 0.045-0.022 0.068 0.378 0.055 0.693 0.232 0.761 0.551 1.148 5.383 3.822 11.27 7.489 15.397 1.926 2.167 4.331 4.278 7.057 5.365 1.495 0.596 2.925 0.564 4.347 0.378 1.428-0.498 2.792-1.22 4.24-1.717 0.798-0.273 1.937-0.48 2.792-0.314 0.103-0.164 0.207-0.328 0.306-0.497 0.792-1.349 1.386-2.75 1.89-4.228 0.466-1.37 0.834-2.902 1.919-3.914 0.541-0.505 1.557-0.527 2.095 0 1.875 1.838 1.098 5.046 0.43 7.274-0.785 2.613-2.234 4.973-4.015 7.027-4.09 4.715-10.432 6.884-16.585 6.683-12.515-0.408-22.466-10.682-20.8-23.403 0.443-3.373 1.305-7.115 3.271-9.953m55.341-88.176c1.66-3.335 3.841-6.47 6.075-9.447 1.155-1.539 2.399-3.003 3.743-4.381 1.197-1.227 2.518-2.756 4.177-3.294 0.293-0.094 1.091-0.058 1.161 0.335 0.093 0.026 0.173 0.073 0.209 0.147 1.097 2.243 2.012 4.51 2.715 6.914 0.561 1.92 1.811 4.473 1.543 6.464-0.033 0.245-0.487 0.282-0.62 0.106-0.905-1.188-1.357-2.822-1.787-4.387-0.205-0.402-0.411-0.803-0.62-1.203-0.353 3e-3 -0.716-0.116-0.839-0.367-0.57-1.161-1.161-2.311-1.747-3.464-0.167-0.329-0.328-0.605-0.455-0.871-0.17 0.139-0.355 0.279-0.542 0.44-0.89 0.766-1.738 1.574-2.581 2.39-1.718 1.665-3.495 3.344-5.053 5.16-0.086 0.1-0.486 0.067-0.391-0.104 0.014-0.025 0.028-0.049 0.042-0.074-1.54 1.932-3.047 3.89-4.704 5.723-0.072 0.079-0.401 0.063-0.326-0.087m47.36-7.355c-1.04 1.259-2.015 2.724-3.608 3.241-0.231 0.075-0.746 0.077-0.866-0.203-0.083 0.097-0.166 0.192-0.248 0.291-2.228 2.66-4.264 5.791-7.045 7.905-0.049 0.037-0.24 0.023-0.198-0.073 1.358-3.185 3.741-6.18 5.744-8.999 2.105-2.959 4.552-5.775 7.605-7.792 0.635-0.418 2.749-0.126 2.163 0.872 1.756 4.503 3.228 9.265 3.738 14.08 6e-3 0.059-0.077 0.074-0.142 0.059 9e-3 0.075 0.019 0.15 0.026 0.226 0.018 0.178-0.362 0.166-0.42 0.035-1.136-2.532-2.255-5.091-3.439-7.619-0.079-0.035-0.146-0.077-0.194-0.124-0.869-0.867-1.712-1.739-2.517-2.658-0.197 0.255-0.393 0.51-0.599 0.759m-20.072-21.259c-1.306 1.614-2.564 3.269-3.79 4.931-4e-3 6e-3 -0.026 4e-3 -0.021-6e-3 1.501-3.482 3.519-6.59 5.88-9.559 1.163-1.463 2.399-2.87 3.703-4.209 1.166-1.197 2.426-2.757 4.148-2.965 0.082-0.01 0.178-0.012 0.277-4e-3 0.069-0.037 0.212-0.018 0.249 0.024 0.013 0.014 0.024 0.03 0.037 0.044 0.145 0.062 0.26 0.166 0.279 0.34v4e-3c1.441 1.785 2.354 3.995 3.226 6.102 1.004 2.425 1.851 4.924 2.503 7.468 0.122 0.473-0.849 0.56-0.992 0.172-1.397-3.778-3.942-7.225-6.103-10.626-0.85 0.858-1.72 1.697-2.568 2.557-2.011 2.038-4.061 3.999-6.163 5.944-0.053 0.049-0.306 0.04-0.238-0.064 0.104-0.16 0.21-0.317 0.315-0.476-0.07 0.084-0.144 0.164-0.212 0.25-0.087 0.113-0.356 0.138-0.53 0.073m-24.833 132.07c0.275-0.524 1.801-0.632 1.774 0.151-0.117 3.319-0.244 6.7-0.198 10.019 0.043 3.097-0.06 6.089 0.846 9.095 0.746 2.472 1.947 4.809 3.821 6.615 2.125 2.048 4.769 2.659 7.618 3.03 2.513 0.327 5.208 0.422 7.665-0.3 2.694-0.792 4.434-2.603 6.18-4.693 1.943-2.327 3.656-4.876 4.894-7.652 0.682-1.532 1.042-3.001 1.208-4.663 0.132-1.322 0.21-2.681 0.991-3.782 0.313-0.442 1.159-0.348 1.552-0.126 4.919 2.781 1.295 11.402-0.442 15.161-2.486 5.38-6.76 8.935-12.539 10.338-5.591 1.356-12.61 0.886-17.965-1.224-5.03-1.983-8.453-6.33-9.738-11.529-0.786-3.185-0.87-6.588-0.177-9.804 0.827-3.838 2.705-7.211 4.51-10.636m0.118-20.64c-0.046-0.02-0.083-0.054-0.099-0.106-0.19-0.62 0.219-1.269 0.447-1.851 0.297-0.759 0.624-1.505 0.97-2.243 0.179-0.383 1.04-0.359 1.106 0.094 0.232 1.586-0.401 3.115-1.519 4.233-0.212 0.212-0.876 0.124-0.905-0.127" style="fill:#1d1d1b"/></g></g></g><g transform="matrix(.35278 0 0 -.35278 -596.49 268.78)"><g clip-path="url(#clipPath18483)" style="opacity:.2"><g transform="translate(2091.3 270.61)"><path d="m0 0 15.605-14.346 7.881 13.956-8.643-7.82z" style="fill:#f6f6f6"/></g><g transform="translate(2102.1 318.25)"><path d="m0 0-7.729-8.305-8.127 2.085-2.54-0.56 12.547-8.511z" style="fill:#f6f6f6"/></g><g transform="translate(2075.9 242.74)"><path d="m0 0 14.23-14.331 9.175 12.345-8.667-6.202z" style="fill:#f6f6f6"/></g><g transform="translate(2067.9 294.79)"><path d="m0 0 15.872-14.898 7.614 14.508-8.355-7.82z" style="fill:#f6f6f6"/></g><g transform="translate(2140.5 454.78)"><path d="M 0,0 C -0.056,0.292 -0.146,0.58 -0.274,0.865 -0.18,0.573 -0.092,0.289 0,0" style="fill:#f6f6f6"/></g><g transform="translate(2073.8 259.71)"><path d="m0 0-10.735 2.216 11.074-9.136 8.281 13.019z" style="fill:#f6f6f6"/></g><g transform="translate(2104.5 297.57)"><path d="m0 0 13.409-12.436 7.873 13.96-8.042-6.979z" style="fill:#f6f6f6"/></g><g transform="translate(2140.5 454.78)"><path d="m0 0c0.824-4.323-6.085-9.361-12.282-14.334 4.645 20.492-0.295 39.26-14.323 56.395l-1.775-10.521c-6.264 14.261-18.315 24.403-33.844 32.069 9.525-17.903 23.133-40.086-0.443-53.11-34.488 2.141-54.011-6.077-66.976-24.14l6.451 9.056c-18.043-1.998-26.073 15.453-30.421 40.054-0.361-30.704 5.01-51.534 23.476-49.803l0.025 0.034c-2.376-3.395-4.531-7.129-6.516-11.199 49.635 27.534 86.193 24.717 116.07-10.685 14.098-26.858-1.505-63.475-35.706-90.592 28.659 11.967 49.8 25.863 53.997 44.11l0.336 18.714 0.045-0.081c0.758 17.317 15.005 22.782 1.888 64.033" style="fill:#f6f6f6"/></g><g transform="translate(1982.4 244.86)"><path d="m0 0 13.113 14.694c-3.067-0.601-3.713 0.159-4.798 4.181-2.918-4.336-8.987-7.672-16.104-9.017-3.263-9.459-2.449-14.623 7.789-9.858" style="fill:#f6f6f6"/></g><g transform="translate(1999.4 235.89)"><path d="m 0,0 13.883,17.563 -2.18,5.648 C 9,17.958 1.934,11.43 -6.518,10.606 -10.143,-0.959 -10.351,-7.792 0,0" style="fill:#f6f6f6"/></g><g transform="translate(1958.2 238.15)"><path d="m0 0c-9.529-3.257-16.35-6.484-19.831-9.671-0.784 0.271-1.567 0.547-2.347 0.831-3.326 1.206-6.59 2.562-9.82 4.003-1.073 0.479-2.165 0.918-3.261 1.345-0.577 0.409-1.382 0.542-2.051 0.79-0.046 0.018-0.093 0.036-0.139 0.054-1.469 0.561-2.901 1.23-4.306 1.935-2.578 1.294-4.98 2.876-7.441 4.374-2.755 1.677-5.491 3.377-8.235 5.063-0.455 0.626-0.991 1.185-1.722 1.767-1.469 1.169-3.073 2.187-4.614 3.259-2.929 2.039-5.809 4.188-8.85 6.057-2.636 1.62-5.709 3.464-8.88 3.661-1.401 0.088-3.119-0.421-3.493-1.432-0.464-0.179-0.713-0.518-0.146-0.936 0.09-0.066 0.176-0.134 0.264-0.202 0.111-0.219 0.27-0.449 0.491-0.694 0.114-0.126 0.357-0.19 0.578-0.169 0.982-0.829 1.931-1.688 3.023-2.42 1.394-0.936 2.791-1.867 4.191-2.794 2.845-1.885 5.764-3.701 8.788-5.285 6.411-3.358 12.85-6.647 19.26-10.007 5.695-2.985 11.449-5.469 17.616-7.306 1.029-0.306 2.072-0.592 3.115-0.883 1.403-0.576 2.807-1.146 4.212-1.713 0.754-0.305 1.517-0.615 2.283-0.925-3.845-5.259 1.79-10.409 19.827-15.416-0.016-0.524-0.031-1.049-0.061-1.573-0.06-1.072-0.019-1.635-1.031-2.197-1.507-0.836-3.723-0.041-5.361 0.341-3.08 0.716-6.114 1.647-9.248 2.115-1.273 0.369-2.572 0.608-3.88 0.803-0.411 0.573-1.402 0.608-2.044 0.74-1.706 0.352-3.429 0.606-5.129 0.991-1.629 0.369-3.214 0.803-4.784 1.277-1.715 0.789-3.427 1.578-5.115 2.427-3.27 1.646-6.608 3.242-9.822 5.018-3.187 2.223-6.471 4.334-9.743 6.41-0.427 0.304-0.858 0.6-1.287 0.887-1.866 1.558-3.714 3.136-5.501 4.784-1.913 1.764-3.727 3.619-5.555 5.47-1.806 1.828-3.492 3.967-5.615 5.431-0.076 0.052-0.208 0.084-0.349 0.089-0.492 0.534-1.005 1.043-1.56 1.509-0.385 0.324-1.733 0.587-1.904-0.157-0.252-1.098-0.341-2.777-0.041-4.285-0.035-0.053-0.055-0.115-0.047-0.188 0.398-3.885 2.487-7.215 4.856-10.247 2.697-3.454 5.818-6.534 9.01-9.525 3.49-3.27 7.146-6.334 10.798-9.421 1.686-1.426 3.368-2.891 5.148-4.199 2.025-1.489 4.237-2.643 6.372-3.957 0.628-0.515 1.276-1.011 1.942-1.475 1.42-1.3 2.95-2.504 4.613-3.096 0.233-0.082 1.149-0.013 0.908 0.441-0.075 0.141-0.16 0.275-0.252 0.405 0.076 0.061 0.095 0.145-0.017 0.255-1.21 1.192-2.613 2.216-4.05 3.206-1.026 0.83-2.041 1.673-3.035 2.542-2.448 2.141-4.919 4.336-7.02 6.823-2.078 2.458-4.125 4.963-6.108 7.498-0.241 0.309-0.48 0.621-0.717 0.935 3.647-2.533 7.374-4.946 11.303-7.021 5.708-3.013 12.617-6.178 19.215-6.019 1.78 0.043 3.541 0.375 5.331 0.375 2.035-1e-3 4.042-0.346 6.023-0.788 3.442-0.768 6.822-1.795 10.343-2.164 2.878-0.303 5.397 0.164 5.705 3.464 0.044 0.476 0.075 0.954 0.099 1.433 2.135-0.558 4.424-1.114 6.876-1.669 37.652-4.922 56.541-0.498 65.278 8.983-46.439-7.164-68.396 7.575-73.056 20.043" style="fill:#f6f6f6"/></g><g transform="translate(2014.7 235.69)"><path d="m0 0c4.23-17.906 18.302-7.835 24.23-0.208l15.758 25.912-6.643 19.83c-7.123-34.032-15.679-38.486-33.345-45.534" style="fill:#f6f6f6"/></g><g transform="translate(2032 265.18)"><path d="m0 0c2.017-1.259 13.184 15.337 16.433 21.4-0.939 9.111-7.717 18.734-12.674 29.121-0.232-16.22-2.304-27.235-12.991-46.497 1.646-5.771 7.642-4.732 9.232-4.024" style="fill:#f6f6f6"/></g></g></g><g transform="matrix(.35278 0 0 -.35278 114.63 133.61)"><path d="M 0,0 C 3.3,-10.655 14.613,-16.618 25.269,-13.318 35.924,-10.019 41.887,1.295 38.587,11.95 35.287,22.606 23.974,28.569 13.318,25.269 2.663,21.969 -3.3,10.656 0,0" style="fill:#01252d"/></g><g transform="matrix(.35278 0 0 -.35278 116.27 133.11)"><path d="M 0,0 C 2.506,-8.092 11.098,-12.621 19.191,-10.115 27.283,-7.609 31.812,0.983 29.306,9.076 26.799,17.168 18.207,21.697 10.115,19.19 2.023,16.684 -2.506,8.092 0,0" style="fill:#001316"/></g><g transform="matrix(.35278 0 0 -.35278 119.92 129.71)"><path d="m0 0c1.506-4.861 6.667-7.582 11.528-6.076 4.861 1.505 7.581 6.666 6.076 11.528-1.506 4.861-6.667 7.581-11.528 6.076-4.861-1.506-7.581-6.667-6.076-11.528" style="fill:#f6f6f6"/></g><g transform="matrix(.35278 0 0 -.35278 122.27 135.71)"><path d="m0 0c-0.769 2.484 0.621 5.122 3.105 5.891 2.484 0.77 5.122-0.621 5.891-3.105 0.77-2.484-0.621-5.122-3.105-5.891-2.484-0.77-5.122 0.62-5.891 3.105" style="fill:#f6f6f6"/></g><g transform="matrix(.35278 0 0 -.35278 134.04 127.6)"><path d="M 0,0 C 3.209,-10.363 14.212,-16.162 24.574,-12.952 34.937,-9.744 40.736,1.259 37.527,11.621 34.317,21.984 23.315,27.783 12.952,24.574 2.59,21.365 -3.209,10.362 0,0" style="fill:#01252d"/></g><g transform="matrix(.35278 0 0 -.35278 135.63 127.11)"><path d="m0 0c2.437-7.87 10.793-12.274 18.663-9.837s12.274 10.793 9.837 18.663c-2.438 7.87-10.793 12.274-18.663 9.837s-12.274-10.793-9.837-18.663" style="fill:#001316"/></g><g transform="matrix(.35278 0 0 -.35278 139.19 123.81)"><path d="m0 0c1.464-4.727 6.483-7.373 11.211-5.909 4.727 1.464 7.373 6.483 5.909 11.211-1.464 4.727-6.484 7.373-11.211 5.909-4.728-1.464-7.373-6.484-5.909-11.211" style="fill:#f6f6f6"/></g><g transform="matrix(.35278 0 0 -.35278 141.47 129.64)"><path d="m0 0c-0.748 2.416 0.604 4.981 3.02 5.729s4.981-0.603 5.729-3.02c0.749-2.416-0.604-4.98-3.02-5.729-2.416-0.748-4.981 0.604-5.729 3.02" style="fill:#f6f6f6"/></g><g transform="matrix(.35278 0 0 -.35278 143.14 162.48)"><path d="m0 0c2.95 5.864 4.507 11.449 5.47 16.916-2.151-3.88-3.496-8.457-6.605-11.915-4.879 1.481-10.748 5.198-16.721 9.152 5.282-5.435 10.904-10.506 17.856-14.153m-22.352-46.446c-4.636 2.122-9.953 6.592-15.343 11.311 4.506-6.094 9.397-11.874 15.798-16.419 3.709 5.415 6.001 10.741 7.688 16.029-2.652-3.556-4.598-7.912-8.143-10.921m32.449 4.407c-4.636 2.122-9.953 6.592-15.343 11.311 4.506-6.094 9.397-11.874 15.798-16.419 3.709 5.415 6.001 10.741 7.688 16.029-2.652-3.556-4.598-7.911-8.143-10.921m-16.278-28.886c-4.481 2.432-9.482 7.253-14.539 12.328 4.081-6.387 8.569-12.485 14.645-17.455 4.069 5.15 6.718 10.309 8.76 15.469-2.887-3.367-5.125-7.581-8.866-10.342m27.732 52.653c3.709 5.415 6.001 10.741 7.688 16.029-2.652-3.556-4.598-7.912-8.143-10.921-4.636 2.122-9.953 6.591-15.343 11.311 4.505-6.094 9.397-11.874 15.798-16.419m-34.485-4.691c3.71 5.415 6.001 10.741 7.688 16.029-2.651-3.556-4.598-7.912-8.142-10.921-4.637 2.121-9.954 6.591-15.344 11.311 4.506-6.094 9.398-11.874 15.798-16.419m-5.515 92.834-0.391-8.4c-0.502-3.791-5.108-5.392-7.853-2.73l-5.799 5.678c-1.304 1.262-1.753 3.171-1.148 4.886l2.411 5.776c0.966 2.746 2.669 3.563 5.19 2.107l5.301-2.674c1.635-0.939 2.537-2.772 2.289-4.643m-0.239 6.088-6.442 3.712c-3.065 1.764-6.982 0.312-8.157-3.023l-2.467-7.024c-0.735-2.08-0.187-4.399 1.395-5.935l7.51-6.898c3.339-3.233 8.933-1.29 9.541 3.319l1.403 10.206c0.301 2.27-0.798 4.499-2.783 5.643m64.032 42.022c-0.985-12.38-7.237-16.321-5.995-31.11 6.519-27.555-22.309-47.787-51.209-58.307-16.985-5.704-62.997-3.296-70.349 13.816-7.478 23.069-18.685 21.981-27.632 33.97-7.146 8.822-10.679 17.151-15.211 28.266 8.612-7.151 14.95-7.907 20.915-6.338-16.859 21.675-21.962 29.8-22.182 54.378 2.128-6.076 6.627-9.35 10.014-11.281-3.293 29.493-2.653 36.657 6.591 47.533 3.295-43.917 13.867-45.486 25.846-42.471-4.92-5.166-8.185-11.346-8.861-18.498 18.886 31.688 51.589 38.533 86.319 30.421-2.26 2.009-5.235 3.588-8.717 4.748 12.496 3.624 21.699 9.77 0.428 49.956 11.967-7.65 18.169-12.193 32.488-35.594l0.749 13.837c12.905-20.919 13.022-30.482 10.299-57.806 5.884 1.849 10.845 5.865 14.325 16.504 2.084-11.821 3.531-20.752 2.182-32.024m-3.617-155.82c-4.438 2.249-9.449 6.47-14.524 10.914 4.078-5.515 8.475-10.769 14.017-15.088-1.479-9.635-5.081-18.867-11.172-27.598-0.477-0.444-0.975-0.867-1.505-1.259-4.481 2.432-9.483 7.253-14.539 12.328 3.602-5.638 7.523-11.049 12.572-15.66-11.426-13.985-29.689-26.579-56.405-37.342-1.244 0.822-2.605 1.637-4.097 2.411 3.309 1.438 5.381 6.04 6.271 9.191 1.396 4.937 1.47 10.108 0.458 15.124-0.98 4.858-2.94 9.413-5.674 13.541-1.388 2.095-2.945 4.074-4.625 5.942-1.118 1.243-2.313 2.553-3.648 3.643 6.436 18.214 2.242 43.475-19.643 76.059 4.804-10.513 8.416-20.265 10.911-29.249-21.85-36.712-32.595-38.418-27.2 7.861-21.206-36.412-28.63-40.46-16.969 2.375-27.652-39.674-22.291-19.263-14.962 4.69-8.631-14.899-10.497-26.661-7.329-29.437-5.1-8.32-7.708-15.904-8.211-21.451-2.404-2.408-5.045-4.543-7.8-6.452-2.524 14.694 11.691 46.21 23.14 63.171 10.061 12.995 25.713 19.284 38.745 20.972 18.681-6.392 47.007-6.139 59.363-3.227 11.71 4.54 21.089 9.192 28.576 13.896 16.582-26.427 26.351-52.004 24.25-75.355m-19.067-59.402c-0.42-1.881-1.051-3.787-2.003-5.469-0.451-0.798-0.986-1.543-1.623-2.203-0.42-0.436-0.94-0.742-1.224-1.198-3.871 1.604-8.536 2.821-14.122 3.17 7.402 4.293 13.874 9.079 19.431 14.284 0.293-2.868 0.162-5.796-0.459-8.584m-1.724-13.626c1.227-0.738 2.347-1.535 3.348-2.379 3.174-2.815 8.096-6.447 5.976-11.011-1.827-3.932-7.427-3.772-11.703-2.889 3.492 3.221 2.859 8.645-0.021 12.325-0.255 0.251-0.528 0.521-0.816 0.802 0.193 0.769 0.54 1.485 1.081 2.077 0.54 0.591 1.216 1.087 2.049 1.081 0.029-1e-3 0.057-5e-3 0.086-6e-3m-10.398 2.853c0.049 0.141 0.122 0.274 0.233 0.394 0.278 0.301 0.73 0.447 1.187 0.513 2.67-0.741 5.119-1.694 7.289-2.819-0.778-0.276-1.486-0.727-1.977-1.288-0.369-0.421-0.691-0.94-0.918-1.495-1.543 1.441-3.459 3.09-5.814 4.695m6.231-16.162c-1.928-4.392-7.925-4.116-12.377-3.098-1e-3 2e-3 -1e-3 4e-3 -1e-3 6e-3 -0.224 0.599-0.826 0.908-1.255 1.361-0.63 0.665-1.106 1.442-1.421 2.302-0.625 1.706-0.59 3.604 0.09 5.285 1.432 3.541 5.077 5.829 8.81 6.166 3.281-3.076 8.341-7.042 6.154-12.022m-9.317 18.078c0.874-0.15 1.725-0.327 2.562-0.519-0.103-0.05-0.2-0.101-0.285-0.153-0.181-0.111-0.347-0.242-0.489-0.393-0.573 0.361-1.167 0.717-1.788 1.065m-5.739-20.43c-3.029 1.003-5.935 2.329-8.899 3.493-0.91 1.092-1.896 1.982-2.395 3.474-0.693 2.071-0.499 4.287 0.289 6.303 0.732 1.875 1.928 3.613 3.413 4.974 0.264 0.242 0.566 0.496 0.894 0.747 1.191 0.576 2.364 1.162 3.514 1.76 0.106 0.022 0.211 0.04 0.317 0.054 4.184-1.34 7.798-3.227 10.642-5.482-3.559-0.45-7.175-3.119-8.75-5.977-1.093-1.984-1.33-4.32-0.623-6.477 0.333-1.017 0.934-2.142 1.772-2.925-0.058 0.019-0.117 0.037-0.174 0.056m-15.115 5.498c-0.652 0.148-1.309 0.265-1.968 0.369-1.355 0.813-2.363 1.772-3.026 3.377-0.489 1.183-0.713 2.478-0.794 3.78 3.675 1.335 7.198 2.762 10.568 4.274-0.674-0.849-1.258-1.767-1.727-2.724-1.329-2.713-1.655-7.279 0.243-10.014-1.081 0.361-2.176 0.682-3.296 0.938m-6.918 0.753c-0.387 0.758-0.861 1.484-1.414 2.152-0.83 0.772-1.826 1.704-3.002 2.714 1.305 0.424 2.592 0.859 3.861 1.305 0.236-2.398 1.004-4.793 2.58-6.236-0.674 0.043-1.349 0.061-2.025 0.065m-3.303-7.3c-2.018-4.344-8.207-4.167-12.931-3.192 3.859 3.559 3.159 9.553-0.023 13.619-0.282 0.277-0.584 0.575-0.902 0.886 0.213 0.85 0.597 1.64 1.194 2.294s1.344 1.201 2.264 1.195c0.032-1e-3 0.064-5e-3 0.096-7e-3 1.355-0.815 2.593-1.695 3.699-2.628 3.507-3.111 8.946-7.123 6.603-12.167m-14.353 14.413c-0.408-0.466-0.764-1.04-1.015-1.653-1.704 1.592-3.822 3.415-6.423 5.188 0.053 0.156 0.134 0.303 0.256 0.435 0.308 0.332 0.808 0.495 1.313 0.567 2.95-0.819 5.656-1.871 8.053-3.115-0.859-0.305-1.641-0.803-2.184-1.422m-0.554-14.324c-2.13-4.852-8.756-4.548-13.676-3.422l-1e-3 6e-3c-0.247 0.662-0.912 1.003-1.387 1.504-0.696 0.735-1.222 1.593-1.57 2.543-0.69 1.885-0.652 3.983 0.1 5.84 1.583 3.913 5.61 6.441 9.734 6.813 3.625-3.398 9.216-7.78 6.8-13.284m-16.636-2.598c-3.347 1.108-6.558 2.574-9.833 3.86-1.005 1.206-2.095 2.189-2.647 3.838-0.764 2.288-0.55 4.737 0.32 6.964 0.81 2.072 2.131 3.992 3.771 5.496 1.26 1.155 3.281 2.569 5.221 2.83 4.623-1.48 8.616-3.565 11.759-6.058-3.932-0.496-7.927-3.446-9.668-6.604-1.208-2.192-1.47-4.772-0.689-7.156 0.368-1.124 1.032-2.367 1.958-3.232-0.063 0.02-0.13 0.041-0.192 0.062m-16.701 6.074c-0.72 0.164-1.446 0.294-2.175 0.409-1.497 0.898-2.611 1.958-3.343 3.731-0.907 2.194-1 4.732-0.881 7.076 0.127 2.485 1.027 4.312 3.016 5.804 1.178 0.882 2.453 1.684 3.813 2.239 3.914-0.21 7.599-0.813 10.991-1.727-0.863-0.291-1.677-0.685-2.354-1.096-2.457-1.491-4.436-3.839-5.694-6.407-1.468-2.997-1.828-8.043 0.269-11.064-1.195 0.398-2.405 0.753-3.642 1.035m-12.343 0.595c-0.624 0.197-1.219 0.45-1.734 0.932-0.805 0.753-1.374 1.763-1.86 2.74-1.004 2.015-1.654 4.251-1.6 6.517 0.048 2.028 0.685 4.007 1.969 5.592 0.652 0.806 1.445 1.48 2.368 1.954 0.154 0.078 0.309 0.137 0.459 0.194 3.568 0.579 7.038 0.836 10.368 0.817-0.225-0.141-0.446-0.281-0.656-0.417-2.232-1.44-4.372-3.06-4.963-5.796-0.782-3.617-0.448-9.589 2.585-12.367-2.307 0.145-4.631 0.081-6.936-0.166m-6.366-1.11c-0.865-0.33-1.709-0.61-2.534-0.848-0.126 0.029-0.253 0.057-0.384 0.091-1.201 0.305-2.267 0.936-3.178 1.768-1.54 1.406-2.658 3.277-3.258 5.268-0.636 2.107-0.648 4.35 0.106 6.425 0.347 0.955 0.838 1.746 1.398 2.57 3.502 1.351 6.967 2.377 10.358 3.113-0.418-0.392-0.781-0.794-1.052-1.138-1.609-2.044-2.264-4.624-2.046-7.199 0.227-2.697 1.273-5.563 2.93-7.718 0.406-0.529 0.972-1.089 1.616-1.543-1.333-0.212-2.654-0.476-3.956-0.789m-16.104 11.507c3e-3 0 5e-3 -1e-3 8e-3 -1e-3 1.672 0.887 3.342 1.693 5.006 2.427-0.178-0.375-0.331-0.754-0.456-1.117-0.87-2.536-0.63-5.325 0.347-7.792 0.908-2.291 2.442-4.335 4.52-5.684 0.44-0.287 0.95-0.577 1.494-0.823-12.839-2.401-19.312 6.36-10.919 12.99m60.686 4.934c-0.113-0.055-0.22-0.111-0.315-0.169-0.2-0.122-0.383-0.268-0.54-0.434-0.633 0.398-1.289 0.792-1.975 1.177 0.966-0.166 1.905-0.362 2.83-0.574m-89.18 14.149c37.305-9.643 79.65-0.431 92.724 28.962 0.279-0.308 0.554-0.615 0.813-0.926 1.477-1.771 2.848-3.631 4.056-5.596 2.376-3.865 4.261-8.012 5.331-12.432 1.081-4.47 1.231-9.299 0.229-13.796-0.463-2.079-1.161-4.185-2.212-6.044-0.499-0.881-1.09-1.704-1.794-2.434-0.465-0.482-1.039-0.819-1.353-1.324-5.196 2.153-11.683 3.68-19.72 3.614-10.901 3.491-26.325 3.915-47.895-4.957-15.665 3.503-26.915 8.655-30.179 14.933m13.487-18.684c-4.592-0.473-9.262-0.323-13.838 0.251-8.836 1.108-17.448 3.696-25.677 7.055-15.47 6.315-29.512 15.798-41.335 27.586-3.209 3.2-6.283 6.565-9.094 10.122-1.499 1.895-2.895 3.901-3.821 6.145-0.509 1.232-0.912 2.544-1.04 3.875-0.033 0.347-0.07 0.742-0.05 1.098 4e-3 0.082 0.118 0.539 0.271 0.948 1.253-1.411 2.532-2.8 3.844-4.156 12.008-12.407 26.516-22.292 42.417-29.004 8.993-3.796 18.423-6.535 28.044-8.181 0.563-0.097 1.092 0.01 1.51 0.225 4.711-7.622 13.439-12.62 24.316-14.995-1.828-0.41-3.666-0.775-5.547-0.969m-96.516 63.934c-1.354 1.73-3.298 3.906-3.477 6.207-0.122 1.581 0.817 1.408 1.939 0.971 1.073-0.417 2.137-0.86 3.193-1.318 3.352-1.455 6.602-3.117 9.844-4.793 2.646-2.066 5.6-3.837 8.345-5.642 4.297-2.826 8.645-5.573 13.043-8.238 4.238-2.568 8.545-5.028 12.946-7.307 3.226-1.67 6.665-3.483 10.244-4.462-4.543-3.255-4.783-6.545 3.484-11.612 5.028-2.685 10.341-4.946 15.821-6.787 0.317-0.916 0.683-1.043 1.095-1.902-29.892 5.229-57.751 20.967-76.477 44.883m20.473-2.29c2.543-0.912 5.085-1.824 7.624-2.745 5.114-1.854 10.273-3.566 15.431-5.293 4.922-1.648 9.845-3.306 14.865-4.639 2.402-0.637 4.826-1.225 7.279-1.631 1.347-0.222 2.862-0.532 4.326-0.534 0.014-0.098 0.03-0.194 0.052-0.284-4.071-1.933-7.812-3.601-10.749-5.194-3.845 1.731-7.842 3.1-11.615 5.057-4.37 2.265-8.686 4.647-13.001 7.014-4.401 2.415-8.764 4.9-13.084 7.458-0.52 0.308-1.037 0.627-1.555 0.942 0.143-0.05 0.285-0.1 0.427-0.151m26.864-6.399c3.193-0.299 6.392-0.558 9.591-0.796 3.174-0.235 6.347-0.527 9.525-0.694 1.735-0.091 3.614-0.164 5.409 0.081-0.768-1.586-1.337-3.092-1.646-4.395-1.269 0.241-2.609 0.311-3.775 0.515-2.341 0.408-4.661 0.905-6.962 1.495-4.396 1.127-8.725 2.518-13.056 3.874 0.305-0.026 0.611-0.052 0.914-0.08m91.829 15.466c5.533-13.496 21.491-2.167 29.783 24.709 2.699-10.377 3.871-19.697 3.636-27.944-25.181-37.506-38.706-40.662-33.419 3.235m-0.557 1.555c-22.691-33.942-30.211-37.896-18.807 0.103 4.327 0.527 11.265 8.273 18.776 26.353-1.955-12.313-1.669-20.99 0.031-26.456m-40.861-5.773c0.981 4.713 2.716 10.485 4.701 16.352 3.195-1.496 10.013 3.843 19.377 19.714-7.945-16.147-8.027-27.943-3.841-29.922-19.604-23.848-22.885-19.372-20.336-6.631 0.109 0.256 0.216 0.513 0.319 0.774-0.071-0.098-0.148-0.19-0.22-0.287m-4.166-7.428c0.462-10.081 9.924-10.149 24.793 11.932-17.745-31.596-2-46.933 18.253-4.217-8.756-48.332 22.668-40.651 35.787-2.562-3.194-41.634-44.448-53.89-106.64-34.704-22.51 8.072 12.49 9.44 27.81 29.551m-13.484 0.14c-0.121-2.751-0.023-5.176 0.141-7.422-1.647-0.95-3.298-1.842-4.931-2.68 0.294 3.034 1.688 6.712 4.79 10.102m182.07 217.42c-3.845-10.721-5.8-17.909-10.06-19.521 3.189 21.588-2.279 33.794-19.115 59.408l-0.581-13.159c-4.948 11.96-16.406 25.114-37.422 31.578 20.445-45.435 15.958-51.955 1.371-56.435-16.92 2.793-40.7-2.54-55.987-13.775-14.768-4.002-22.573-0.047-29.479 49.358-14.344-16.665-17.118-34.195-14.936-46.952l-7.499 10.827c-0.607-30.647 1.267-43.888 15.464-60.461-4.463-0.905-9.542 3.494-18.507 10.52 6.272-18.556 10.878-32.895 17.112-41.575 9.507-12.676 19.014-11.281 28.393-34.477 1.405-3.379 4.232-6.184 8.017-8.492-10.779-3.285-24.453-8.832-35.523-23.197-15.277-26.941-20.851-43.154-22.633-54.374-2.441-2.803-4.808-4.396-7.564-6.486-3.836-1.189-22.323-1.929-43.697 2.639-4.279 1.21-18.588 7.974-22.453 9.793-2.685 1.264-12.382 7.472-14.862 3.97-2.182-3.082 5.012-15.466 5.96-16.584-3.98-3.903 0.864-11.817 3.3-15.142 44.954-56.337 89.496-51.111 102.59-48.598-4.917-6.912 1.928-14.472 13.936-12.374 3.64 0.473 7.091 1.818 10.645 2.666 3.668 0.875 7.427 1.387 11.203 1.23 7.526-0.313 13.925-4.119 20.885-6.511 5.619-1.932 12.532-3.08 18.132-0.45 5.356-1.374 11.456-1.767 16.274 1.028 3.577 2.074 4.48 5.681 3.593 9.072 0.066-2e-3 0.132-3e-3 0.198-6e-3 6.811-0.283 12.603-3.728 18.901-5.893 5.085-1.748 11.342-2.787 16.41-0.407 4.848-1.243 10.368-1.599 14.729 0.93 4.717 2.736 4.296 8.419 1.21 12.145-2.223 2.069-5.735 5.388-11.034 8.138 2.994 1.301 4.869 5.466 5.675 8.318 1.263 4.468 1.33 9.148 0.415 13.688-0.044 0.213-0.092 0.425-0.14 0.637 31.223 32.857 28.699 80.56-3.974 126.09 22.532 16.304 23.773 33.054 21.127 47.853 0.613 13.119 7.347 18.05 8.351 30.296 0.652 10.666-3.848 25.637-8.423 44.681" style="fill:#5b3312"/></g><g transform="matrix(.35278 0 0 -.35278 136.63 137.83)"><path d="m0 0-0.391-8.4c-0.502-3.791-5.108-5.392-7.853-2.73l-5.799 5.677c-1.304 1.262-1.753 3.171-1.148 4.887l2.41 5.776c0.967 2.745 2.67 3.563 5.191 2.106l5.301-2.673c1.635-0.939 2.537-2.772 2.289-4.643m-6.681 9.799c-3.065 1.765-6.982 0.312-8.157-3.023l-2.467-7.023c-0.735-2.08-0.187-4.4 1.395-5.936l7.51-6.898c3.339-3.232 8.933-1.289 9.541 3.32l1.403 10.206c0.3 2.27-0.798 4.498-2.784 5.643z" style="fill:#cc5700"/></g><g transform="matrix(.35278 0 0 -.35278 153.82 206.31)"><path d="m0 0c-1.826-3.932-7.427-3.772-11.703-2.889 3.493 3.221 2.86 8.645-0.021 12.325-0.254 0.251-0.528 0.521-0.816 0.802 0.194 0.769 0.541 1.485 1.081 2.076 0.54 0.592 1.216 1.088 2.049 1.082 0.029-1e-3 0.058-5e-3 0.087-7e-3 1.227-0.737 2.347-1.534 3.348-2.378 3.173-2.815 8.096-6.447 5.975-11.011m-13.49 0.08c-1.929-4.391-7.926-4.115-12.378-3.097-1e-3 2e-3 0 4e-3 -1e-3 6e-3 -0.223 0.599-0.825 0.908-1.255 1.361-0.63 0.664-1.106 1.441-1.421 2.302-0.624 1.706-0.59 3.604 0.091 5.285 1.432 3.541 5.077 5.829 8.809 6.165 3.281-3.075 8.341-7.041 6.155-12.022m-7.53 17.014c-0.573 0.36-1.167 0.717-1.787 1.065 0.874-0.15 1.724-0.328 2.561-0.519-0.102-0.05-0.199-0.101-0.285-0.154-0.181-0.11-0.347-0.242-0.489-0.392m1.531-0.457c0.278 0.301 0.731 0.447 1.188 0.513 2.67-0.741 5.119-1.694 7.288-2.82-0.777-0.275-1.485-0.726-1.976-1.287-0.37-0.421-0.692-0.941-0.919-1.495-1.542 1.441-3.458 3.09-5.813 4.695 0.048 0.141 0.122 0.274 0.232 0.394m-34.394-19.957c-2.018-4.344-8.206-4.167-12.931-3.192 3.859 3.559 3.16 9.552-0.023 13.619-0.281 0.277-0.583 0.575-0.902 0.886 0.214 0.85 0.598 1.64 1.195 2.294 0.596 0.653 1.343 1.201 2.263 1.195 0.033-1e-3 0.064-6e-3 0.096-7e-3 1.356-0.816 2.594-1.695 3.7-2.629 3.506-3.11 8.945-7.122 6.602-12.166m-14.353 14.412c-0.408-0.465-0.763-1.039-1.015-1.652-1.704 1.592-3.821 3.415-6.423 5.188 0.053 0.156 0.135 0.303 0.257 0.434 0.307 0.333 0.807 0.495 1.312 0.568 2.95-0.819 5.656-1.872 8.053-3.115-0.859-0.305-1.64-0.803-2.184-1.423m-0.553-14.323c-2.131-4.852-8.757-4.548-13.677-3.422l-1e-3 6e-3c-0.247 0.661-0.912 1.003-1.386 1.504-0.696 0.734-1.223 1.593-1.57 2.543-0.691 1.885-0.653 3.983 0.099 5.84 1.583 3.913 5.61 6.441 9.734 6.813 3.626-3.398 9.217-7.78 6.801-13.284m-16.636-2.598c-3.347 1.108-6.558 2.573-9.833 3.86-1.006 1.206-2.096 2.189-2.647 3.838-0.765 2.288-0.55 4.737 0.32 6.964 0.809 2.071 2.13 3.992 3.771 5.496 1.259 1.155 3.281 2.568 5.221 2.83 4.623-1.48 8.615-3.565 11.758-6.058-3.932-0.497-7.927-3.446-9.667-6.604-1.209-2.192-1.471-4.772-0.689-7.156 0.368-1.124 1.031-2.367 1.958-3.232-0.064 0.02-0.13 0.041-0.192 0.062m-16.702 6.074c-0.72 0.164-1.446 0.294-2.175 0.408-1.496 0.899-2.61 1.959-3.343 3.732-0.906 2.194-1 4.732-0.881 7.076 0.127 2.485 1.027 4.312 3.017 5.804 1.177 0.882 3.813 2.238 3.813 2.238s7.598-0.812 10.991-1.726c-0.864-0.291-1.677-0.685-2.354-1.096-2.458-1.491-4.437-3.839-5.695-6.407-1.468-2.998-1.828-8.043 0.27-11.064-1.195 0.398-2.406 0.753-3.643 1.035m-12.343 0.595c-0.624 0.197-1.219 0.45-1.734 0.932-0.804 0.753-1.374 1.763-1.86 2.74-1.004 2.015-1.653 4.251-1.6 6.516 0.048 2.029 0.685 4.008 1.969 5.593 0.653 0.806 1.446 1.48 2.369 1.954 0.153 0.078 0.309 0.136 0.459 0.194 3.568 0.579 7.037 0.836 10.367 0.817-0.225-0.141-0.445-0.281-0.656-0.417-2.232-1.44-4.371-3.06-4.963-5.796-0.782-3.618-0.448-9.589 2.586-12.367-2.307 0.145-4.632 0.081-6.937-0.166m-6.365-1.11c-0.865-0.33-1.71-0.61-2.534-0.849-0.126 0.029-0.253 0.058-0.384 0.092-1.201 0.305-2.267 0.936-3.178 1.768-1.54 1.406-2.658 3.277-3.259 5.268-0.635 2.107-0.647 4.35 0.106 6.424 0.347 0.956 0.839 1.747 1.399 2.571 3.502 1.351 6.966 2.377 10.358 3.113-0.418-0.392-0.781-0.794-1.053-1.138-1.609-2.044-2.263-4.624-2.046-7.2 0.228-2.696 1.274-5.562 2.93-7.717 0.406-0.529 0.972-1.089 1.616-1.543-1.332-0.212-2.653-0.476-3.955-0.789m-16.105 11.507c3e-3 0 5e-3 -1e-3 8e-3 -1e-3 1.673 0.887 3.343 1.693 5.007 2.427-0.179-0.375-0.332-0.754-0.456-1.117-0.87-2.536-0.631-5.325 0.347-7.792 0.907-2.291 2.441-4.335 4.52-5.685 0.44-0.286 0.95-0.576 1.493-0.822-12.839-2.401-19.312 6.36-10.919 12.99m60.687 4.934c-0.114-0.055-0.221-0.112-0.316-0.169-0.199-0.122-0.382-0.268-0.54-0.434-0.633 0.398-1.289 0.792-1.975 1.177 0.966-0.166 1.906-0.362 2.831-0.574m77.963-7.617c-2.223 2.069-5.734 5.388-11.033 8.138l-3.127 1.454c-3.871 1.604-8.536 2.821-14.122 3.169 0.617 0.358-5.449-2.986-5.158-2.835 0.105 0.022 0.211 0.04 0.316 0.054 4.185-1.34 7.798-3.227 10.642-5.483-3.559-0.449-7.174-3.118-8.749-5.977-1.094-1.983-1.331-4.319-0.624-6.476 0.333-1.017 0.934-2.142 1.772-2.925-0.057 0.019-0.117 0.037-0.173 0.056-3.029 1.003-5.935 2.329-8.899 3.493-0.911 1.092-1.897 1.981-2.396 3.474-0.692 2.07-0.498 4.287 0.289 6.302 0.733 1.875 1.928 3.614 3.413 4.974 0.264 0.242 0.566 0.497 0.894 0.748 0.282 0.136-4.269-1.977-3.636-1.693-0.674-0.849-1.259-1.767-1.728-2.724-1.329-2.713-1.654-7.279 0.244-10.014-1.082 0.361-2.177 0.682-3.297 0.937-0.651 0.149-1.308 0.266-1.968 0.37-1.355 0.813-2.363 1.772-3.026 3.377-0.488 1.183-0.712 2.478-0.794 3.779 0.414 0.151-1.981-0.706-1.685-0.602 0.237-2.397 1.004-4.792 2.581-6.235-0.674 0.042-1.35 0.061-2.026 0.065-0.386 0.758-0.86 1.484-1.414 2.152-0.829 0.772-1.826 1.704-3.001 2.713 0.358 0.117-4.421 4.139-5.094 3.868-1.243 0.822-2.605 1.637-4.096 2.41l-3.455 1.607c-5.195 2.153-11.683 3.68-19.72 3.614-10.9 3.491-26.324 3.914-47.895-4.957-4.022-1.724-5.458-3.549-9.151-8.263-4.916-6.912 1.929-14.472 13.937-12.374 3.639 0.473 7.09 1.818 10.645 2.666 3.667 0.875 7.427 1.387 11.203 1.23 7.526-0.313 13.925-4.119 20.884-6.511 5.619-1.932 12.532-3.081 18.132-0.45 5.356-1.374 11.456-1.767 16.275 1.027 3.577 2.075 4.479 5.682 3.592 9.072 0.066-2e-3 0.133-2e-3 0.198-5e-3 6.812-0.283 12.603-3.728 18.902-5.893 5.085-1.748 11.341-2.787 16.409-0.407 4.848-1.244 10.368-1.599 14.729 0.93 4.717 2.736 4.297 8.419 1.21 12.145" style="fill:#cc5700"/></g></g></svg>
