<?xml version="1.0" encoding="UTF-8" standalone="no"?>
<!-- Created with Inkscape (http://www.inkscape.org/) -->

<svg
   xmlns:dc="http://purl.org/dc/elements/1.1/"
   xmlns:cc="http://creativecommons.org/ns#"
   xmlns:rdf="http://www.w3.org/1999/02/22-rdf-syntax-ns#"
   xmlns:svg="http://www.w3.org/2000/svg"
   xmlns="http://www.w3.org/2000/svg"
   xmlns:sodipodi="http://sodipodi.sourceforge.net/DTD/sodipodi-0.dtd"
   xmlns:inkscape="http://www.inkscape.org/namespaces/inkscape"
   width="146.28352mm"
   height="159.42706mm"
   viewBox="0 0 146.28352 159.42706"
   version="1.1"
   id="svg8"
   sodipodi:docname="skunk.svg"
   inkscape:version="0.92.3 (2405546, 2018-03-11)">
  <defs
     id="defs2">
    <clipPath
       id="clipPath831"
       clipPathUnits="userSpaceOnUse">
      <path
         inkscape:connector-curvature="0"
         id="path829"
         d="M 0,2352.235 H 3254.362 V 0 H 0 Z" />
    </clipPath>
    <clipPath
       id="clipPath951"
       clipPathUnits="userSpaceOnUse">
      <path
         inkscape:connector-curvature="0"
         id="path949"
         d="M 447.851,1164.22 H 923.287 V 792.555 H 447.851 Z" />
    </clipPath>
    <clipPath
       id="clipPath967"
       clipPathUnits="userSpaceOnUse">
      <path
         inkscape:connector-curvature="0"
         id="path965"
         d="M 472.007,1181.15 H 919.058 V 855.713 H 472.007 Z" />
    </clipPath>
    <clipPath
       id="clipPath1015"
       clipPathUnits="userSpaceOnUse">
      <path
         inkscape:connector-curvature="0"
         id="path1013"
         d="M 612.855,1161.39 H 958.848 V 992.616 H 612.855 Z" />
    </clipPath>
    <clipPath
       id="clipPath1123"
       clipPathUnits="userSpaceOnUse">
      <path
         inkscape:connector-curvature="0"
         id="path1121"
         d="M 246.462,2099.25 H 905.173 V 1560.38 H 246.462 Z" />
    </clipPath>
    <clipPath
       id="clipPath1219"
       clipPathUnits="userSpaceOnUse">
      <path
         inkscape:connector-curvature="0"
         id="path1217"
         d="M 625.372,2025.42 H 1080.69 V 1579.37 H 625.372 Z" />
    </clipPath>
    <clipPath
       id="clipPath1235"
       clipPathUnits="userSpaceOnUse">
      <path
         inkscape:connector-curvature="0"
         id="path1233"
         d="M 506.435,2083.64 H 1039.39 V 1585.53 H 506.435 Z" />
    </clipPath>
    <clipPath
       id="clipPath1439"
       clipPathUnits="userSpaceOnUse">
      <path
         inkscape:connector-curvature="0"
         id="path1437"
         d="M 537.226,2200.16 H 1110.52 V 1823.78 H 537.226 Z" />
    </clipPath>
    <clipPath
       id="clipPath1483"
       clipPathUnits="userSpaceOnUse">
      <path
         inkscape:connector-curvature="0"
         id="path1481"
         d="M 714.626,1999.27 H 869.94 V 1876.73 H 714.626 Z" />
    </clipPath>
    <clipPath
       id="clipPath1543"
       clipPathUnits="userSpaceOnUse">
      <path
         inkscape:connector-curvature="0"
         id="path1541"
         d="M 339.039,218.662 H 519.336 V 185.375 H 339.039 Z" />
    </clipPath>
    <clipPath
       id="clipPath1567"
       clipPathUnits="userSpaceOnUse">
      <path
         inkscape:connector-curvature="0"
         id="path1565"
         d="M 162.795,543.339 H 576.151 V 215.967 H 162.795 Z" />
    </clipPath>
    <clipPath
       id="clipPath1659"
       clipPathUnits="userSpaceOnUse">
      <path
         inkscape:connector-curvature="0"
         id="path1657"
         d="m 499.666,444.826 h 73.78 v -21.439 h -73.78 z" />
    </clipPath>
    <clipPath
       id="clipPath1715"
       clipPathUnits="userSpaceOnUse">
      <path
         inkscape:connector-curvature="0"
         id="path1713"
         d="M 379.408,647.751 H 583.213 V 471.139 H 379.408 Z" />
    </clipPath>
    <clipPath
       id="clipPath1731"
       clipPathUnits="userSpaceOnUse">
      <path
         inkscape:connector-curvature="0"
         id="path1729"
         d="M 434.795,655.51 H 567 V 524.458 H 434.795 Z" />
    </clipPath>
    <clipPath
       id="clipPath1775"
       clipPathUnits="userSpaceOnUse">
      <path
         inkscape:connector-curvature="0"
         id="path1773"
         d="m 1281.55,399.608 h 94.47 v -142.2 h -94.47 z" />
    </clipPath>
    <clipPath
       id="clipPath1799"
       clipPathUnits="userSpaceOnUse">
      <path
         inkscape:connector-curvature="0"
         id="path1797"
         d="m 1110.69,235.629 h 150.92 v -48.131 h -150.92 z" />
    </clipPath>
    <clipPath
       id="clipPath1827"
       clipPathUnits="userSpaceOnUse">
      <path
         inkscape:connector-curvature="0"
         id="path1825"
         d="m 937.32,560.953 h 413.22 V 233.844 H 937.32 Z" />
    </clipPath>
    <clipPath
       id="clipPath1895"
       clipPathUnits="userSpaceOnUse">
      <path
         inkscape:connector-curvature="0"
         id="path1893"
         d="m 1273.13,463.578 h 73.96 v -20.797 h -73.96 z" />
    </clipPath>
    <clipPath
       id="clipPath2007"
       clipPathUnits="userSpaceOnUse">
      <path
         inkscape:connector-curvature="0"
         id="path2005"
         d="m 1219.2,582.74 h 134.52 V 513.015 H 1219.2 Z" />
    </clipPath>
    <clipPath
       id="clipPath2023"
       clipPathUnits="userSpaceOnUse">
      <path
         inkscape:connector-curvature="0"
         id="path2021"
         d="m 1187.24,576.432 h 130.31 v -75.558 h -130.31 z" />
    </clipPath>
    <clipPath
       id="clipPath2107"
       clipPathUnits="userSpaceOnUse">
      <path
         inkscape:connector-curvature="0"
         id="path2105"
         d="M 1467.38,2026.46 H 2000.1 V 1561.78 H 1467.38 Z" />
    </clipPath>
    <clipPath
       id="clipPath2123"
       clipPathUnits="userSpaceOnUse">
      <path
         inkscape:connector-curvature="0"
         id="path2121"
         d="m 1492.01,2025.54 h 525.37 v -464.96 h -525.37 z" />
    </clipPath>
    <clipPath
       id="clipPath2203"
       clipPathUnits="userSpaceOnUse">
      <path
         inkscape:connector-curvature="0"
         id="path2201"
         d="m 1610.02,1999.54 h 30.6 v -57.16 h -30.6 z" />
    </clipPath>
    <clipPath
       id="clipPath2231"
       clipPathUnits="userSpaceOnUse">
      <path
         inkscape:connector-curvature="0"
         id="path2229"
         d="m 1495.97,1868.7 h 369.68 v -214.94 h -369.68 z" />
    </clipPath>
    <clipPath
       id="clipPath2247"
       clipPathUnits="userSpaceOnUse">
      <path
         inkscape:connector-curvature="0"
         id="path2245"
         d="m 1526.61,1886.73 h 337.6 v -212.68 h -337.6 z" />
    </clipPath>
    <clipPath
       id="clipPath2371"
       clipPathUnits="userSpaceOnUse">
      <path
         inkscape:connector-curvature="0"
         id="path2369"
         d="m 2265.25,2026.46 h 532.73 v -464.68 h -532.73 z" />
    </clipPath>
    <clipPath
       id="clipPath2387"
       clipPathUnits="userSpaceOnUse">
      <path
         inkscape:connector-curvature="0"
         id="path2385"
         d="m 2289.88,2025.54 h 525.37 v -464.96 h -525.37 z" />
    </clipPath>
    <clipPath
       id="clipPath2467"
       clipPathUnits="userSpaceOnUse">
      <path
         inkscape:connector-curvature="0"
         id="path2465"
         d="m 2407.89,1999.54 h 30.6 v -57.16 h -30.6 z" />
    </clipPath>
    <clipPath
       id="clipPath2495"
       clipPathUnits="userSpaceOnUse">
      <path
         inkscape:connector-curvature="0"
         id="path2493"
         d="m 2293.86,1868.7 h 369.67 v -214.94 h -369.67 z" />
    </clipPath>
    <clipPath
       id="clipPath2511"
       clipPathUnits="userSpaceOnUse">
      <path
         inkscape:connector-curvature="0"
         id="path2509"
         d="m 2324.5,1886.73 h 337.59 V 1674.05 H 2324.5 Z" />
    </clipPath>
    <clipPath
       id="clipPath2615"
       clipPathUnits="userSpaceOnUse">
      <path
         inkscape:connector-curvature="0"
         id="path2613"
         d="m 2669.99,554.906 h 383.59 V 186.268 h -383.59 z" />
    </clipPath>
    <clipPath
       id="clipPath2631"
       clipPathUnits="userSpaceOnUse">
      <path
         inkscape:connector-curvature="0"
         id="path2629"
         d="m 2753.43,620.375 h 329.48 V 200.817 h -329.48 z" />
    </clipPath>
    <clipPath
       id="clipPath2651"
       clipPathUnits="userSpaceOnUse">
      <path
         inkscape:connector-curvature="0"
         id="path2649"
         d="m 2977.94,455.033 h 13.2 v -4.883 h -13.2 z" />
    </clipPath>
    <clipPath
       id="clipPath2719"
       clipPathUnits="userSpaceOnUse">
      <path
         inkscape:connector-curvature="0"
         id="path2717"
         d="m 2869.43,627.172 h 168.84 V 326.318 h -168.84 z" />
    </clipPath>
    <clipPath
       id="clipPath2735"
       clipPathUnits="userSpaceOnUse">
      <path
         inkscape:connector-curvature="0"
         id="path2733"
         d="m 2901.17,631.334 h 123.27 V 348.581 h -123.27 z" />
    </clipPath>
    <clipPath
       id="clipPath2775"
       clipPathUnits="userSpaceOnUse">
      <path
         inkscape:connector-curvature="0"
         id="path2773"
         d="m 1622.31,842.884 h 26.19 v -73.338 h -26.19 z" />
    </clipPath>
    <clipPath
       id="clipPath2791"
       clipPathUnits="userSpaceOnUse">
      <path
         inkscape:connector-curvature="0"
         id="path2789"
         d="m 1617.56,906.417 h 27.59 V 847.52 h -27.59 z" />
    </clipPath>
    <clipPath
       id="clipPath2807"
       clipPathUnits="userSpaceOnUse">
      <path
         inkscape:connector-curvature="0"
         id="path2805"
         d="m 1434.98,1037.67 h 320.24 V 769.546 h -320.24 z" />
    </clipPath>
    <clipPath
       id="clipPath2823"
       clipPathUnits="userSpaceOnUse">
      <path
         inkscape:connector-curvature="0"
         id="path2821"
         d="m 1555.05,997.892 h 136.7 V 769.546 h -136.7 z" />
    </clipPath>
    <clipPath
       id="clipPath2839"
       clipPathUnits="userSpaceOnUse">
      <path
         inkscape:connector-curvature="0"
         id="path2837"
         d="m 1623.42,1004.14 h 57.66 v -32.804 h -57.66 z" />
    </clipPath>
    <clipPath
       id="clipPath2855"
       clipPathUnits="userSpaceOnUse">
      <path
         inkscape:connector-curvature="0"
         id="path2853"
         d="m 1616.24,913.926 h 31.64 v -47.332 h -31.64 z" />
    </clipPath>
    <clipPath
       id="clipPath2871"
       clipPathUnits="userSpaceOnUse">
      <path
         inkscape:connector-curvature="0"
         id="path2869"
         d="m 1419.25,1034.36 h 151.61 V 769.546 h -151.61 z" />
    </clipPath>
    <clipPath
       id="clipPath2915"
       clipPathUnits="userSpaceOnUse">
      <path
         inkscape:connector-curvature="0"
         id="path2913"
         d="m 1421.63,1389.58 h 391.92 v -377.61 h -391.92 z" />
    </clipPath>
    <clipPath
       id="clipPath2931"
       clipPathUnits="userSpaceOnUse">
      <path
         inkscape:connector-curvature="0"
         id="path2929"
         d="m 1421.25,1382.4 h 396.18 v -369.5 h -396.18 z" />
    </clipPath>
    <clipPath
       id="clipPath3007"
       clipPathUnits="userSpaceOnUse">
      <path
         inkscape:connector-curvature="0"
         id="path3005"
         d="m 1457.52,1388.06 h 311.71 v -332.02 h -311.71 z" />
    </clipPath>
    <clipPath
       id="clipPath3165"
       clipPathUnits="userSpaceOnUse">
      <path
         inkscape:connector-curvature="0"
         id="path3163"
         d="m 1545.37,1368.03 h 259.81 v -307.18 h -259.81 z" />
    </clipPath>
    <clipPath
       id="clipPath3181"
       clipPathUnits="userSpaceOnUse">
      <path
         inkscape:connector-curvature="0"
         id="path3179"
         d="m 1554.6,1361.27 h 265.25 V 1088.08 H 1554.6 Z" />
    </clipPath>
    <clipPath
       id="clipPath3225"
       clipPathUnits="userSpaceOnUse">
      <path
         inkscape:connector-curvature="0"
         id="path3223"
         d="m 1473.34,1426.95 h 241.04 v -140.78 h -241.04 z" />
    </clipPath>
    <clipPath
       id="clipPath3241"
       clipPathUnits="userSpaceOnUse">
      <path
         inkscape:connector-curvature="0"
         id="path3239"
         d="m 1480.94,1451.88 h 230.74 v -122.23 h -230.74 z" />
    </clipPath>
    <clipPath
       id="clipPath3345"
       clipPathUnits="userSpaceOnUse">
      <path
         inkscape:connector-curvature="0"
         id="path3343"
         d="m 2292.36,1251 h 463.22 V 783.462 h -463.22 z" />
    </clipPath>
    <clipPath
       id="clipPath3361"
       clipPathUnits="userSpaceOnUse">
      <path
         inkscape:connector-curvature="0"
         id="path3359"
         d="m 2317.7,1273.42 h 442.42 V 839.361 H 2317.7 Z" />
    </clipPath>
    <clipPath
       id="clipPath3457"
       clipPathUnits="userSpaceOnUse">
      <path
         inkscape:connector-curvature="0"
         id="path3455"
         d="m 2488.84,1380.06 h 284.2 V 1108 h -284.2 z" />
    </clipPath>
    <clipPath
       id="clipPath3473"
       clipPathUnits="userSpaceOnUse">
      <path
         inkscape:connector-curvature="0"
         id="path3471"
         d="m 2472.26,1371.48 h 342.02 v -247.07 h -342.02 z" />
    </clipPath>
    <clipPath
       id="clipPath3505"
       clipPathUnits="userSpaceOnUse">
      <path
         inkscape:connector-curvature="0"
         id="path3503"
         d="M 1803.37,321.456 H 1963.4 V 213.502 h -160.03 z" />
    </clipPath>
    <clipPath
       id="clipPath3521"
       clipPathUnits="userSpaceOnUse">
      <path
         inkscape:connector-curvature="0"
         id="path3519"
         d="M 1805.22,469.197 H 2289 V 257.06 h -483.78 z" />
    </clipPath>
    <clipPath
       id="clipPath3537"
       clipPathUnits="userSpaceOnUse">
      <path
         inkscape:connector-curvature="0"
         id="path3535"
         d="m 1800.76,439.781 h 458.71 V 202.414 h -458.71 z" />
    </clipPath>
    <clipPath
       id="clipPath3633"
       clipPathUnits="userSpaceOnUse">
      <path
         inkscape:connector-curvature="0"
         id="path3631"
         d="m 2130.76,437.803 h 71.83 V 314.839 h -71.83 z" />
    </clipPath>
    <clipPath
       id="clipPath3681"
       clipPathUnits="userSpaceOnUse">
      <path
         inkscape:connector-curvature="0"
         id="path3679"
         d="m 2122.87,441.576 h 163.16 v -21.93 h -163.16 z" />
    </clipPath>
    <clipPath
       id="clipPath3697"
       clipPathUnits="userSpaceOnUse">
      <path
         inkscape:connector-curvature="0"
         id="path3695"
         d="m 2125.25,519.439 h 117.14 v -75.564 h -117.14 z" />
    </clipPath>
    <clipPath
       id="clipPath3713"
       clipPathUnits="userSpaceOnUse">
      <path
         inkscape:connector-curvature="0"
         id="path3711"
         d="m 2152.39,518.915 h 158.84 v -92.203 h -158.84 z" />
    </clipPath>
    <clipPath
       id="clipPath3733"
       clipPathUnits="userSpaceOnUse">
      <path
         inkscape:connector-curvature="0"
         id="path3731"
         d="m 2040.31,303.306 h 176.47 v -77.935 h -176.47 z" />
    </clipPath>
  </defs>
  <sodipodi:namedview
     id="base"
     pagecolor="#ffffff"
     bordercolor="#666666"
     borderopacity="1.0"
     inkscape:pageopacity="0.0"
     inkscape:pageshadow="2"
     inkscape:zoom="0.24748737"
     inkscape:cx="-1479.186"
     inkscape:cy="-835.39966"
     inkscape:document-units="mm"
     inkscape:current-layer="layer1"
     showgrid="false"
     inkscape:window-width="1920"
     inkscape:window-height="1017"
     inkscape:window-x="-8"
     inkscape:window-y="-8"
     inkscape:window-maximized="1"
     fit-margin-top="0"
     fit-margin-left="0"
     fit-margin-right="0"
     fit-margin-bottom="0" />
  <metadata
     id="metadata5">
    <rdf:RDF>
      <cc:Work
         rdf:about="">
        <dc:format>image/svg+xml</dc:format>
        <dc:type
           rdf:resource="http://purl.org/dc/dcmitype/StillImage" />
        <dc:title></dc:title>
      </cc:Work>
    </rdf:RDF>
  </metadata>
  <g
     inkscape:label="Layer 1"
     inkscape:groupmode="layer"
     id="layer1"
     transform="translate(-29.817925,-52.723263)">
    <g
       id="g9676"
       transform="translate(-416.94047,-299.34187)">
      <g
         id="g9357">
        <g
           id="g2565"
           transform="matrix(0.35277777,0,0,-0.35277777,579.52885,508.4403)">
          <path
             d="m 0,0 c -2.739,-0.879 -8.516,-0.524 -13.283,-0.514 -2.95,-0.794 -6.863,0.763 -11.953,0.657 -7.764,-1.891 -36.041,-1.456 -60.339,-0.408 -1.309,-1.345 -4.555,-4.025 -6.583,-4.708 -3.046,-1.033 -7.14,-1.753 -12.462,-1.827 -3.279,-0.932 -7.664,-0.44 -13.341,-0.646 -9.12,-2.368 -46.31,-0.668 -74.152,0.222 -2.77,3.909 -4.528,7.494 -6.54,16.254 -61.701,-14.76 -90.109,-3.834 -135.926,16.291 l 17.303,6.885 c -24.542,17.122 -43.254,33.895 -56.494,76.439 -20.655,76.873 90.209,136.995 56.139,196.842 51.653,-19.389 70.725,-34.886 81.523,-82.715 2.341,1.853 5.471,8.553 7.187,11.482 31.491,-58.533 -56.817,-138.542 26.195,-169.879 1.726,11.577 6.17,19.055 11.848,31.326 11.709,23.065 12.837,84.987 43.025,98.122 -16.211,6.117 -30.786,14.803 -46.367,29.007 5.82,-0.789 10.491,0.842 14.935,1.557 -4.036,4.216 -7.261,9.098 -7.928,13.018 31.3,3.84 13.59,45.483 24.642,80.099 -36.431,9.908 -36.935,83.456 -30.564,87.497 4.063,2.58 25.517,-16.969 50.79,-44 0.959,-1.028 1.743,-2.224 2.278,-3.527 1.287,-3.12 1.922,-6.684 1.292,-9.168 0,0 1.721,1.075 3.522,2.076 15.867,9.104 33.18,13.309 51.304,14.761 3.908,0.487 7.6,0.667 11.09,0.566 -1.859,1.759 -4.174,3.93 -4.761,7.256 -0.244,1.382 -0.223,2.812 0.037,4.194 6.853,36.369 16.238,58.878 21.052,58.878 7.547,0 43.809,-55.652 18.361,-83.542 27.885,-23.303 35.241,-67.954 63.729,-54.423 1.536,-3.67 1.425,-9.522 0.281,-15.242 4.136,1.779 7.933,3.516 12.43,7.298 1.181,-29.293 -27.815,-71.545 -75.047,-92.338 3.888,-5.789 4.905,-11.175 7.415,-16.307 C -14.024,167.146 4.539,125.879 0.762,110.356 3.39,101.739 2.018,88.917 -5.662,79.442 7.266,66.795 12.266,44.668 -13.325,26.846 c 2.203,-0.402 5.598,-0.333 7.017,-1.7 1.081,0.276 4.274,0.038 6.578,-0.386 C 11.996,21.889 11.016,3.538 0,0"
             style="fill:#82868e;fill-opacity:1;fill-rule:nonzero;stroke:none"
             id="path2567"
             inkscape:connector-curvature="0" />
        </g>
        <g
           id="g2569"
           transform="matrix(0.35277777,0,0,-0.35277777,509.50056,503.20659)">
          <path
             d="m 0,0 c 0.682,7.333 0.112,14.747 -0.194,22.086 -0.158,3.805 -0.291,7.611 -0.281,11.419 0.008,3.414 0.202,6.637 -0.903,9.923 -0.734,2.181 -1.787,4.215 -2.82,6.251 -0.006,-0.048 -0.015,-0.092 -0.023,-0.14 -83.012,31.338 5.297,111.346 -26.194,169.879 -1.716,-2.929 -4.846,-9.629 -7.187,-11.482 -10.799,47.829 -29.87,63.326 -81.524,82.715 34.07,-59.846 -76.794,-119.968 -56.139,-196.842 13.241,-42.543 31.952,-59.316 56.494,-76.439 l -17.302,-6.885 C -90.414,-9.571 -62.039,-20.488 -0.777,-5.953 -0.457,-3.978 -0.186,-1.996 0,0"
             style="fill:#5e6268;fill-opacity:1;fill-rule:nonzero;stroke:none"
             id="path2571"
             inkscape:connector-curvature="0" />
        </g>
        <g
           id="g2573"
           transform="matrix(0.35277777,0,0,-0.35277777,578.4823,473.60187)">
          <path
             d="m 0,0 c 0.182,5.151 -1.872,9.772 -3.707,14.455 -2.705,4.442 -6.412,7.978 -11.916,8.088 -5.694,0.114 -10.291,-2.709 -14.207,-6.616 -6.709,-6.693 -11.39,-15.382 -15.589,-23.793 -1.213,-2.43 -2.374,-5.128 -2.303,-7.9 0.075,-2.952 2.092,-5.358 3.124,-8.017 0.892,-2.298 1.36,-5.274 3.199,-7.032 2.334,-2.23 5.769,-1.071 8.636,-1.36 1.552,-0.157 3.037,-0.675 4.578,-0.894 1.4,-0.199 2.707,-0.021 4.033,0.457 2.645,0.955 4.975,2.71 7.089,4.524 4.088,3.506 7.856,7.472 10.88,11.936 C -2.932,-11.354 -0.209,-5.892 0,0"
             style="fill:#5e6268;fill-opacity:1;fill-rule:nonzero;stroke:none"
             id="path2575"
             inkscape:connector-curvature="0" />
        </g>
        <g
           id="g2577"
           transform="matrix(0.35277777,0,0,-0.35277777,549.6435,465.31741)">
          <path
             d="m 0,0 c -5.574,1.779 -11.424,-2.726 -15.52,-5.977 -8.173,-6.486 -13.945,-15.548 -15.825,-25.77 0.002,-0.023 0.007,-0.045 0.003,-0.07 -0.597,-3.841 -0.681,-7.664 -0.543,-11.547 0.135,-3.746 0.547,-7.534 1.582,-11.148 0.808,-2.823 2.491,-4.491 5.062,-5.792 1.311,-0.664 2.792,-1.128 4.015,-1.95 1.211,-0.813 1.772,-2.211 2.806,-3.203 2.568,-2.464 6.284,-0.804 9.253,-0.272 2.739,0.49 5.698,0.042 7.99,1.943 2.478,2.055 4.645,4.733 6.545,7.312 1.865,2.532 3.133,5.178 4.064,8.18 1.837,5.919 3.723,11.839 4.277,18.044 0.57,6.372 -0.106,12.95 -2.786,18.814 C 8.755,-6.695 5.19,-1.657 0,0"
             style="fill:#5e6268;fill-opacity:1;fill-rule:nonzero;stroke:none"
             id="path2579"
             inkscape:connector-curvature="0" />
        </g>
        <g
           id="g2581"
           transform="matrix(0.35277777,0,0,-0.35277777,579.6241,499.70562)">
          <path
             d="m 0,0 c -2.304,0.424 -5.497,0.662 -6.578,0.386 -1.228,1.183 -7.021,1.319 -7.496,1.192 -2.172,-0.583 -4.292,-1.292 -6.438,-1.945 -2.168,-0.659 -4.569,-1.59 -6.652,-0.736 -5.329,0.812 -8.279,0.575 -21.426,-2.852 -8.14,-3.014 -9.643,-4.318 -18.45,-4.399 -0.089,-0.001 -13.898,-8.819 -15.881,-10.398 -1.512,0.814 -2.747,1.595 -2.693,1.952 0.35,2.269 0.432,4.55 -0.493,6.709 -0.802,1.869 -7.41,6.634 -9.399,6.336 -1.469,-0.22 -2.811,-0.574 -4.264,-0.045 -1.585,0.577 -2.87,1.724 -4.503,2.24 -3.923,1.239 -11.828,-2.286 -12.032,-2.126 -1.345,1.05 -11.091,0.838 -14.186,0.035 -3.633,-0.943 -7.258,-1.791 -10.836,-2.943 -7.919,-2.548 -10.242,-3.883 -18.442,-5.381 -3.976,-0.726 -26.257,-5.206 -37.507,-1.959 1.781,-7.026 2.397,-14.526 4.893,-18.049 27.842,-0.89 65.032,-2.59 74.152,-0.223 5.677,0.207 10.062,-0.286 13.341,0.646 5.322,0.075 9.416,-0.264 12.462,0.768 1.397,0.471 5.301,5.284 5.301,5.284 l 4.365,0.494 c 0.04,-0.041 0.08,-0.076 0.119,-0.122 23.625,-0.965 49.656,-1.302 57.137,0.519 5.089,0.106 9.003,-1.451 11.953,-0.656 4.767,-0.011 10.544,-0.366 13.283,0.513 C 10.746,-21.222 11.726,-2.871 0,0"
             style="fill:#5e6268;fill-opacity:1;fill-rule:nonzero;stroke:none"
             id="path2583"
             inkscape:connector-curvature="0" />
        </g>
        <g
           id="g2585"
           transform="matrix(0.35277777,0,0,-0.35277777,462.02517,434.51473)">
          <path
             d="m 0,0 c 21.013,7.337 44.875,7.769 66.138,1.185 11.384,-3.525 22.331,-9.203 31.977,-16.183 4.327,-3.132 7.891,-6.48 11.194,-10.414 3.125,17.345 3.255,34.493 -5.148,50.113 -1.716,-2.929 -4.846,-9.629 -7.187,-11.482 -2.105,9.324 -4.529,17.412 -7.444,24.545 -0.996,0.761 -1.753,1.812 -2.033,3.078 -0.262,1.186 -0.669,1.899 -1.705,2.917 -0.814,0.799 -1.167,1.051 -1.641,1.374 -0.81,0.553 -1.647,1.062 -2.503,1.54 -3.547,1.979 -6.708,3.093 -10.828,4.336 -7.47,2.254 -15.199,3.248 -22.731,1.9 C 40.896,51.621 34.158,48.96 27.808,45.46 17.976,38.026 9.173,28.688 2.294,19.384 -2.878,10.999 -8.565,2.486 -14.117,-6.193 -9.599,-3.769 -4.879,-1.703 0,0"
             style="fill:#c9cdd1;fill-opacity:1;fill-rule:nonzero;stroke:none"
             id="path2587"
             inkscape:connector-curvature="0" />
        </g>
        <g
           id="g2589"
           transform="matrix(0.35277777,0,0,-0.35277777,459.83065,470.49026)">
          <path
             d="m 0,0 c 11.021,9.899 24.07,17.182 37.666,22.897 12.428,5.223 25.212,8.932 38.657,10.266 9.307,0.925 18.911,0.488 27.594,-2.629 1.411,5.773 3.056,11.666 4.706,17.623 -1.364,0.958 -2.338,2.504 -2.41,4.641 -0.017,0.523 -0.328,1.623 -0.688,2.234 -0.666,1.129 -1.004,1.557 -2.141,2.708 -2.191,2.217 -4.415,3.742 -7.075,5.446 C 91.22,66.448 86.07,69.869 80.401,72.039 68.9,76.442 56.488,77.955 44.236,77.961 32.451,77.967 21.399,76.552 10.129,72.995 -9.386,66.836 -26.952,54.047 -35.694,35.266 -37.706,24.221 -37.631,12.842 -34.468,1.07 -30.265,-12.435 -25.51,-23.341 -20.192,-32.488 -16.5,-19.802 -9.873,-8.868 0,0"
             style="fill:#c9cdd1;fill-opacity:1;fill-rule:nonzero;stroke:none"
             id="path2591"
             inkscape:connector-curvature="0" />
        </g>
        <g
           id="g2593"
           transform="matrix(0.35277777,0,0,-0.35277777,497.68819,504.9351)">
          <path
             d="m 0,0 c -10.067,9.546 -13.647,24.567 -9.795,37.782 1.599,5.489 4.362,10.374 7.902,14.719 2.716,4.937 6.336,9.357 10.494,13.232 -10.632,8.573 -15.016,18.979 -15.863,30.565 -8.851,4.596 -20.244,1.711 -29.815,-1.276 -9.927,-3.099 -19.328,-6.909 -27.91,-12.904 -7.942,-5.548 -14.833,-12.871 -19.828,-21.208 -5.666,-9.457 -9.36,-20.417 -8.752,-31.583 0.021,-0.387 0.062,-0.77 0.093,-1.155 2.654,-1.989 5.381,-3.944 8.187,-5.902 l -6.673,-2.655 c 0.876,-3.271 2.042,-6.472 3.399,-9.6 31.03,-10.527 72.19,-17.409 73.092,-17.256 4.931,0.835 12.053,2.359 19.392,4.028 C 2.56,-2.25 1.249,-1.184 0,0"
             style="fill:#c9cdd1;fill-opacity:1;fill-rule:nonzero;stroke:none"
             id="path2595"
             inkscape:connector-curvature="0" />
        </g>
        <g
           id="g2597"
           transform="matrix(0.35277777,0,0,-0.35277777,587.70818,409.94866)">
          <path
             d="m 0,0 0.478,15.676 c 0,0 -4.427,-1.225 -11.686,-2.168 -12.099,-1.572 -27.533,-1.834 -32.282,5.129 -9.158,17.637 -18.039,34.481 -37.051,33.28 -7.854,-0.495 -13.698,-3.382 -18.255,-9.879 -1.391,-1.983 -2.035,-6.329 -2.257,-11.423 -0.284,-6.51 -12.414,-8.951 -16.096,-3.575 -3.409,4.978 -6.844,9.017 -9.49,9.95 -9.237,3.258 -18.426,-0.497 -24.731,-6.769 -10.967,-14.118 -11.496,-29.218 -12.06,-39.748 -4.732,-19.961 -22.841,-27.427 -42.017,-33.956 l 5.943,-12.099 c 0,0 -4.519,-4.676 -9.438,-3.924 15.526,-13.115 31.241,-17.693 52.019,-25.103 0,0 3.289,-4.094 3.211,-4.244 4.537,-6.239 8.794,-12.747 11.098,-20.176 2.221,-7.162 1.798,-14.308 2.159,-21.689 0.153,-3.134 0.141,-7.544 2.433,-9.98 2.088,-2.219 5.382,-3.378 8.179,-4.355 60.165,-18.267 29.133,-75.117 18.881,-77.463 -1.767,-0.684 -3.619,-1.097 -5.477,-1.447 -1.171,-0.219 -4.509,-0.269 -5.216,-1.167 -0.549,-0.698 -2.888,-20.149 -5.305,-23.057 -2.238,-2.694 -4.951,-4.951 -7.407,-7.442 4.039,0.442 6.151,0.912 12.278,-2.301 4.563,0.092 8.722,-0.388 11.104,-3.553 2.91,-3.864 3.012,-8.131 3.199,-12.871 32.448,18.565 41.527,37.533 48.863,60.486 -4.982,-1.224 -8.588,1.529 -10.707,5.895 -13.361,19.769 14.101,41.666 18.287,46.251 1.191,1.309 2.833,3.049 2.79,4.95 -0.009,0.385 -1.159,28.505 -2.547,35.248 -1.286,6.253 -8.039,38.899 -8.862,40.125 26.169,11.52 46.729,29.628 59.669,48.469 4.232,9.989 11.451,36.933 11.451,36.933 z"
             style="fill:#c9cdd1;fill-opacity:1;fill-rule:nonzero;stroke:none"
             id="path2599"
             inkscape:connector-curvature="0" />
        </g>
        <g
           id="g2601"
           transform="matrix(0.35277777,0,0,-0.35277777,548.62626,410.64063)">
          <path
             d="m 0,0 c -2.247,14.532 -9.052,29.98 -27.465,27.706 -15.217,-2.36 -15.603,-14.875 -17.541,-24.671 -0.037,-0.012 -0.047,-0.033 -0.017,-0.07 0,0 0,-0.007 0.001,-0.01 -2.162,-18.485 10e-4,-34.445 -49.642,-44.476 l 9.392,-13.722 -12.886,-2.301 21.007,-15 c 33.277,-2.604 61.645,35.899 75.494,61.359 C 0.004,-7.521 0.085,-2.944 0,0"
             style="fill:#5e6268;fill-opacity:1;fill-rule:nonzero;stroke:none"
             id="path2603"
             inkscape:connector-curvature="0" />
        </g>
        <g
           id="g2605"
           transform="matrix(0.35277777,0,0,-0.35277777,555.28579,408.12766)">
          <path
             d="m 0,0 c -4.353,14.025 -5.229,30.726 11.395,36.143 13.944,4.043 19.665,-7.094 25.532,-15.148 0.036,0.004 0.054,-0.011 0.044,-0.057 0.001,-0.002 0.003,-0.006 0.004,-0.009 C 46.776,5.125 46.948,-3.749 93.444,7.336 L 91.906,-5.162 105.285,1.467 95.647,-24.781 C 68.499,-40.629 28.962,-26.779 6.227,-9.422 3.237,-6.789 1.196,-2.691 0,0"
             style="fill:#5e6268;fill-opacity:1;fill-rule:nonzero;stroke:none"
             id="path2607"
             inkscape:connector-curvature="0" />
        </g>
        <g
           id="g2609"
           transform="matrix(0.35277777,0,0,-0.35277777,-495.15359,575.86844)">
          <g
             id="g2611" />
          <g
             id="g2623">
            <g
               clip-path="url(#clipPath2615)"
               id="g2621"
               style="opacity:0.25">
              <g
                 transform="translate(2998.4556,498.3875)"
                 id="g2619">
                <path
                   d="M 0,0 C 0.615,-0.163 1.195,-0.414 1.74,-0.732 0.131,-0.359 -1.549,-0.286 -3.155,-0.535 -3.659,-0.614 -4.141,-0.729 -4.607,-0.867 -3.182,-0.047 -1.563,0.415 0,0 m -11.96,-26.498 c 2.165,-2.01 5.286,-2.632 8.14,-2.798 1.578,-0.092 3.393,-0.014 5.247,0.269 7.377,-0.904 15.898,0.722 17.462,8.616 0.855,4.319 -0.312,9.61 -1.855,13.668 -1.569,4.123 -4.485,7.862 -8.298,10.134 -7.364,4.389 -17.538,3.052 -23.188,-3.55 -5.592,-6.535 -4.475,-15.307 -0.244,-22.085 0.633,-1.615 1.513,-3.118 2.736,-4.254 m -65.651,-13.65 c 0.408,-0.956 2.262,-1.106 3.154,-0.511 2.015,-2.7 4.772,-4.707 7.87,-6.003 -1.743,0.432 -3.325,1.094 -4.494,2.082 -0.248,0.209 -1.169,0.127 -0.829,-0.306 2.904,-3.7 8.775,-4.263 13.161,-4.251 5.038,0.013 10.19,1.379 14.214,4.497 1.195,0.925 2.16,1.905 2.897,2.959 -0.398,-1.064 -0.737,-2.154 -1.002,-3.275 -0.597,-2.532 -0.637,-7.583 1.67,-9.694 1.285,-2.706 5.547,-4.722 7.796,-5.647 3.918,-1.611 8.267,-2.276 12.498,-1.928 0.244,-0.935 0.571,-1.854 0.801,-2.681 0.41,-1.476 0.66,-3.333 1.267,-4.902 -0.197,-0.334 -0.404,-0.705 -0.671,-1.127 -0.903,-1.433 -1.985,-2.755 -3.176,-3.958 -2.559,-2.584 -5.835,-4.611 -9.41,-5.404 -3.442,-0.763 -7.099,-0.327 -10.305,1.126 -2.752,1.248 -4.441,3.493 -6.624,5.286 1.393,1.442 2.58,4.417 0.322,5.182 0.077,0.059 0.155,0.117 0.229,0.182 0.834,0.723 -0.687,1.394 -1.24,1.364 -2.309,-0.124 -4.902,-2.07 -5.539,-4.402 -0.359,-0.645 -0.535,-1.363 -0.326,-2.112 0.417,-1.489 1.922,-2.089 3.362,-2.012 0.258,0.014 0.59,0.07 0.939,0.165 0.466,-0.914 1.224,-1.772 2.102,-2.543 3.382,-4.539 10.535,-6.1 15.792,-5.506 4.242,0.478 8.3,2.118 11.864,4.438 2.445,1.592 5.503,3.751 7.639,6.221 1.895,-0.951 4.142,-1.457 5.926,-1.708 3.624,-0.511 7.435,-0.188 10.844,1.191 5.889,2.383 10.224,7.885 9.781,14.145 1.911,0.069 4.102,0.934 4.001,3.202 -0.093,2.109 -1.821,3.776 -3.721,4.421 -1.639,0.556 -4.496,0.637 -5.461,-1.166 -0.578,-1.08 0.095,-2.097 1.077,-2.409 0.031,-0.523 0.09,-1.045 0.155,-1.571 -0.111,-0.156 -0.185,-0.336 -0.175,-0.501 0.085,-1.425 -0.036,-2.856 -0.342,-4.239 -2.2,-3.421 -3.485,-7.292 -7.603,-9.062 -4.976,-2.138 -10.715,0.556 -15.24,2.554 -0.04,0.018 -0.098,0.029 -0.162,0.037 0.048,1.158 -0.4,2.299 -0.715,3.555 -0.271,1.077 -0.673,2.044 -1.109,2.991 3.602,1.002 6.941,2.95 9.382,5.814 1.662,1.951 3.414,5.406 3.114,8.298 0.387,0.364 0.188,0.848 -0.263,1.215 -0.249,0.713 -0.664,1.365 -1.286,1.919 -0.141,0.124 -0.414,0.147 -0.551,0 -0.024,-0.026 -0.042,-0.054 -0.066,-0.081 -0.413,0.15 -0.953,0.143 -1.265,0.015 -5.425,-2.219 -11.004,-4.091 -16.717,-5.416 -2.917,-0.677 -5.864,-1.143 -8.815,-1.586 0.183,1.631 -0.304,3.507 -0.264,5.091 0.063,2.566 0.53,5.093 1.312,7.536 1.671,5.218 4.558,10.388 10.573,10.832 0.316,0.024 0.515,0.226 0.45,0.4 0.051,0.082 0.033,0.17 -0.145,0.218 -5.987,1.632 -12.595,-0.657 -16.093,-5.851 -0.227,-0.337 -0.438,-0.686 -0.641,-1.04 -0.395,-0.616 -0.773,-1.243 -1.147,-1.854 -0.47,-0.768 -0.91,-1.55 -1.319,-2.344 0.343,1.539 0.318,3.224 -0.094,5.102 -0.352,1.605 -0.95,3.329 -1.728,5.027 -0.799,3.209 -2.151,6.273 -3.722,8.705 -5.676,8.787 -17.041,11.452 -26.137,6.277 -4.381,-2.491 -7.146,-6.477 -8.123,-11.395 -1.105,-5.561 0.139,-10.427 2.328,-15.562 m 96.968,-215.713 c 7.771,5.38 13.446,6.265 18.62,10.271 -3.603,-8.361 -10.426,-18.259 -21.831,-23.803 2.599,4.447 3.518,9.055 3.211,13.532 m 32.692,-42.054 c -0.685,4.472 -5.155,9.276 -9.392,10.674 0.129,-0.322 0.011,-5.425 0.067,-9.064 -0.014,0.012 -0.03,0.021 -0.044,0.033 -1.297,-0.539 -0.444,-0.376 -1.658,-0.588 -1.166,4.34 -6.757,9.147 -11.471,10.225 0,0 0.5,-5.68 0.901,-9.145 -13.981,-5.897 -29.106,-4.858 -44.295,-0.651 l 0.039,0.064 c 2.31,3.848 5.792,6.855 9.926,8.605 l 2.825,1.196 c 15.802,5.164 20.422,4.282 28.699,3.706 14.991,6.142 32.063,38.943 16.797,44.686 0.163,0.26 0.327,0.524 0.49,0.799 l -6.194,12.725 -10.88,-11.936 c -4.062,-4.086 -6.437,-4.486 -15.533,-6.273 0.214,0.663 0.426,1.326 0.634,2.004 -2.39,-0.348 -12.921,-4.542 -11.95,8.652 -6.302,6.251 -5.467,16.946 19.358,44.96 8.607,1.898 15.177,1.981 17.772,-1.477 -5.852,18.628 -12.167,41.811 -20.529,52.386 l -9.836,27.057 c -6.954,-1.238 -13.945,-2.863 -21.243,-4.376 0.941,0.537 1.473,0.843 1.473,0.843 -2.908,0.143 -5.8,0.323 -8.67,0.546 -35.013,2.616 -67.123,11.01 -90.458,22.847 10.513,1.34 19.924,10.1 24.892,15.094 -7.462,-2.436 -24.04,-2.118 -24.04,-2.118 38.339,26.127 -9.061,43.163 27.631,115.736 1.154,1.923 2.457,3.819 3.913,5.688 l -1.541,1.848 c -2.394,-1.128 -4.761,-2.362 -7.097,-3.701 -1.8,-1.001 -3.521,-2.077 -3.521,-2.077 0.63,2.484 -0.006,6.048 -1.293,9.168 -0.535,1.303 -1.318,2.5 -2.277,3.527 -0.646,0.689 -1.287,1.377 -1.933,2.055 -3.326,0.514 -6.901,0.758 -10.524,0.71 -12.149,-0.148 -24.796,-3.564 -30.198,-11.345 -1.875,-2.701 -2.876,-5.926 -2.675,-9.723 5.244,-12.065 13.288,-21.979 25.104,-25.194 -11.053,-34.616 6.657,-76.259 -24.643,-80.099 0.667,-3.919 3.893,-8.802 7.928,-13.017 -4.443,-0.716 -9.114,-2.347 -14.935,-1.558 15.581,-14.204 30.156,-22.89 46.368,-29.007 -0.974,-0.423 -1.923,-0.9 -2.839,-1.424 1.079,-0.523 2.209,-1.071 3.372,-1.633 l -0.482,-0.558 10.35,-8.317 c 11.95,-8.207 16.837,-16.333 19.887,-24.225 l 0.907,-21.92 13.785,-2.383 c 0.091,4.316 -0.451,9.652 -1.731,15.03 24.04,-11.681 55.532,-2.469 71.061,8.96 -4.098,-26.954 -13.573,-47.765 -38.639,-72.533 -0.368,-5.974 -2.642,-11.663 -5.292,-17.195 -0.69,-1.441 -1.464,-3.198 -2.506,-4.873 l 0.633,3.013 c -4.456,-3.793 -7.89,-4.351 -10.539,-2.423 -6.222,-3.174 -9.6,-1.52 -10.339,4.613 -16.433,-4.104 -10.957,26.547 -14.471,27.435 -32.366,5.963 -20.02,23.077 -47.347,39.127 l -4.119,-47.363 c 38.672,-8.871 39.544,-44.532 67.219,-37.735 h 0.277 c -0.376,-9.148 -1.476,-14.394 -12.516,-25.859 l 15.946,-2.555 c 9.805,-1.953 10.189,-7.146 9.403,-13.468 -0.491,-0.404 -1.043,-0.794 -1.631,-1.152 -1.21,4.11 -6.356,9.551 -10.78,11.251 l 0.957,-9.587 c -0.61,-0.846 -1.435,-1.599 -2.374,-2.177 -1.15,4.843 -6.196,12.181 -12.741,14.718 2.415,-3.108 3.13,-7.234 2.353,-12.335 -15.525,-8.28 -58.127,-12.65 -70.981,-1.673 -7.9,6.746 -11.951,20.387 -17.951,41.76 -1.093,-4.679 -1.913,-8.661 -2.502,-12.088 -0.176,-0.043 -0.358,-0.086 -0.534,-0.129 -31.311,-7.525 -51.997,-13.918 -90.723,-7.101 15.963,3.473 21.603,7.981 31.247,14.829 -24.537,7.594 -62.139,36.003 -60.905,91.226 -5.651,-6.658 -9.708,-13.034 -14.3,-22.589 -1.233,28.112 11.027,49.345 27.54,76.418 -13.24,-5.232 -24.595,-16.243 -31.687,-23.519 23.277,52.829 84.294,75.131 37.714,123.802 l -9.321,3.479 c 13.743,-55.694 -80.501,-112.633 -61.319,-184.024 13.241,-42.544 31.952,-59.317 56.494,-76.44 l -17.302,-6.884 c 45.192,-19.851 73.452,-30.755 133.431,-16.874 0.7,1.661 1.351,3.235 1.833,4.406 2.575,-3.823 6.123,-7.59 8.791,-17.721 l 95.066,1.731 9.856,4.694 c -0.367,-1.41 -0.467,-2.252 0.026,-1.822 1.651,1.438 63.458,1.526 63.458,1.526 l 24.228,0.952 5.125,8.415 c -1.485,-0.555 -1.487,-1.035 -3.075,-1.291"
                   style="fill:#1d1d1b;fill-opacity:1;fill-rule:nonzero;stroke:none"
                   id="path2617"
                   inkscape:connector-curvature="0" />
              </g>
            </g>
          </g>
        </g>
        <g
           id="g2625"
           transform="matrix(0.35277777,0,0,-0.35277777,-495.15359,575.86844)">
          <g
             id="g2627" />
          <g
             id="g2639">
            <g
               clip-path="url(#clipPath2631)"
               id="g2637"
               style="opacity:0.25">
              <g
                 transform="translate(2860.5879,291.5624)"
                 id="g2635">
                <path
                   d="m 0,0 c -5.29,-13.997 -10.187,-25.179 -13.417,-33.542 -0.127,3.13 -0.259,6.404 -0.385,9.665 -1.415,-3.786 -2.495,-7.669 -3.168,-12.176 -83.012,31.338 5.296,111.346 -26.195,169.879 -1.716,-2.928 -4.845,-9.628 -7.187,-11.482 -8.304,36.771 -21.491,54.434 -50.62,69.443 -3.765,-0.831 -6.186,-1.382 -6.186,-1.382 1.833,-3.109 3.665,-6.297 5.466,-9.549 19.908,-35.919 36.369,-79.966 12.943,-115.726 13.897,4.284 19.723,7.462 30.491,15.406 -3.708,-38.068 -20.83,-27.116 -19.596,-77.614 -10.895,-1.06 -14.988,7.652 -19.781,12.52 8.616,-58.74 33.365,-70.402 81.459,-69.846 1.197,0.01 2.41,0.032 3.639,0.058 0,0 -0.042,0.952 -0.114,2.611 13.373,9.508 38.255,120.66 60.956,133.198 L 37.955,89.78 C 19.708,69.377 14.361,57.96 0,0 m 179.448,-75.281 -15.634,0.068 c -7.749,0.614 -17.629,-1.223 -29.824,-5.724 14.277,-4.022 18.344,3.767 33.429,1.127 4.998,0.824 9.805,-0.587 13.635,-1.665 3.773,0.25 7.556,-4.549 11.938,-6.416 -1.53,5.248 -1.077,10.232 -13.544,12.61 m -93.192,-4.187 c -3.394,3.834 -8.904,3.875 -16.535,0.114 -6.127,2.778 -21.855,-0.806 -43.463,-8.288 28.159,-0.241 23.462,5.288 48.593,5.474 4.529,1.318 7.37,0.284 12.661,-0.624 6.361,-0.862 10.234,-4.265 13.348,-7.953 -2.602,8.019 -6.722,13.183 -14.604,11.277 m 122.686,258.229 0.478,15.676 -12.676,-3.321 c -18.982,7.504 -28.253,40.506 -51.554,59.119 21.631,36.651 -5.453,77.074 -16.253,78.577 17.778,-34.514 20.722,-57.865 10.511,-74.489 -1.453,0.913 -2.953,1.773 -4.511,2.566 -24.887,9.958 -51.965,3.268 -83.74,-8.788 99.315,8.674 89.494,-66.137 141.932,-61.311 -2.301,-12.959 -7.917,-22.372 -11.472,-28.866 9.533,0.662 12.782,1.324 20.919,7.691 -8.134,-15.239 -35.561,-52.003 -36.013,-54.297 35.646,29.532 44.355,33.991 55.758,74.073 z M 152.959,14.254 c 20.577,-1.533 25.697,-11.596 21.283,-35.163 19.949,31.247 -2.254,53.378 -21.283,35.163 M 70.192,36.161 C 67.233,64.67 68.088,67.424 48.305,81.463 64.51,57.524 59.772,45.26 54.15,32.017 52.504,30.97 50.982,29.718 49.62,28.244 85.616,29.37 108.454,5.182 108.283,-32.803 133.531,4.714 98.086,35.819 70.192,36.161"
                   style="fill:#f6f6f6;fill-opacity:1;fill-rule:nonzero;stroke:none"
                   id="path2633"
                   inkscape:connector-curvature="0" />
              </g>
            </g>
          </g>
        </g>
        <g
           id="g2641"
           transform="matrix(0.35277777,0,0,-0.35277777,566.38788,418.35814)">
          <path
             d="m 0,0 c -2.187,0.634 -4.596,-1.046 -5.017,-2.499 -0.359,-1.235 1.052,-1.173 2.826,-1.517 -1.925,-15.644 -10.895,-16.8 -23.233,-9.179 l -1.704,5.317 c 3.804,2.853 14.022,11.104 12.44,16.308 -1.937,6.373 -40.171,-2.063 -37.881,-8.791 1.974,-5.796 18.397,-7.936 22.909,-8.417 l 1.368,-5.968 c -5.811,-13.106 -21.388,-17.135 -31.025,-4.663 1.35,1.201 2.595,1.867 1.656,2.747 -1.103,1.034 -4.033,1.25 -5.59,-0.411 -1.557,-1.661 -1.152,-4.571 -0.048,-5.605 0.728,-0.683 1.244,-0.059 1.957,0.92 11.083,-13.976 27.53,-8.298 35.892,4.229 12.886,-6.076 23.858,-4.7 26.199,12.526 1.113,-0.479 1.874,-0.752 2.152,0.207 C 3.323,-3.344 2.187,-0.635 0,0"
             style="fill:#1d1d1b;fill-opacity:1;fill-rule:nonzero;stroke:none"
             id="path2643"
             inkscape:connector-curvature="0" />
        </g>
        <g
           id="g2645"
           transform="matrix(0.35277777,0,0,-0.35277777,-495.15359,575.86844)">
          <g
             id="g2647" />
          <g
             id="g2659">
            <g
               clip-path="url(#clipPath2651)"
               id="g2657"
               style="opacity:0.19999701">
              <g
                 transform="translate(2991.1396,452.2891)"
                 id="g2655">
                <path
                   d="m 0,0 c -0.061,-1.338 -3.066,-2.287 -6.712,-2.12 -3.646,0.167 -6.552,1.387 -6.491,2.724 0.062,1.338 3.067,2.287 6.713,2.121 C -2.845,2.558 0.061,1.338 0,0"
                   style="fill:#f6f6f6;fill-opacity:1;fill-rule:nonzero;stroke:none"
                   id="path2653"
                   inkscape:connector-curvature="0" />
              </g>
            </g>
          </g>
        </g>
        <g
           id="g2661"
           transform="matrix(0.35277777,0,0,-0.35277777,546.56971,411.38326)">
          <path
             d="m 0,0 c 0,-9.165 -7.43,-18.184 -16.595,-18.184 -9.165,0 -16.594,9.019 -16.594,18.184 0,9.165 7.429,18.183 16.594,18.183 C -7.43,18.183 0,9.165 0,0"
             style="fill:#001116;fill-opacity:1;fill-rule:nonzero;stroke:none"
             id="path2663"
             inkscape:connector-curvature="0" />
        </g>
        <g
           id="g2665"
           transform="matrix(0.35277777,0,0,-0.35277777,539.65936,409.44158)">
          <path
             d="m 0,0 c 0,-4.183 3.391,-7.573 7.573,-7.573 4.183,0 7.574,3.39 7.574,7.573 0,4.183 -3.391,7.573 -7.574,7.573 C 3.391,7.573 0,4.183 0,0"
             style="fill:#ffffff;fill-opacity:1;fill-rule:nonzero;stroke:none"
             id="path2667"
             inkscape:connector-curvature="0" />
        </g>
        <g
           id="g2669"
           transform="matrix(0.35277777,0,0,-0.35277777,568.3422,405.19646)">
          <path
             d="m 0,0 c 0,-8.512 -6.9,-16.887 -15.412,-16.887 -8.511,0 -15.411,8.375 -15.411,16.887 0,8.512 6.9,16.887 15.411,16.887 C -6.9,16.887 0,8.512 0,0"
             style="fill:#001116;fill-opacity:1;fill-rule:nonzero;stroke:none"
             id="path2671"
             inkscape:connector-curvature="0" />
        </g>
        <g
           id="g2673"
           transform="matrix(0.35277777,0,0,-0.35277777,561.9245,403.39306)">
          <path
             d="m 0,0 c 0,-3.885 3.149,-7.034 7.033,-7.034 3.885,0 7.034,3.149 7.034,7.034 0,3.885 -3.149,7.034 -7.034,7.034 C 3.149,7.034 0,3.885 0,0"
             style="fill:#ffffff;fill-opacity:1;fill-rule:nonzero;stroke:none"
             id="path2675"
             inkscape:connector-curvature="0" />
        </g>
        <g
           id="g2677"
           transform="matrix(0.35277777,0,0,-0.35277777,543.62983,396.22747)">
          <path
             d="m 0,0 c 1.007,-3.289 -5.93,-5.215 -13.343,-7.484 -7.414,-2.269 -16.602,-6.357 -17.609,-3.067 -1.324,6.022 5.198,13.493 15.548,16.662 C -7.99,8.38 -1.007,3.289 0,0"
             style="fill:#5e6268;fill-opacity:1;fill-rule:nonzero;stroke:none"
             id="path2679"
             inkscape:connector-curvature="0" />
        </g>
        <g
           id="g2681"
           transform="matrix(0.35277777,0,0,-0.35277777,552.14808,393.26982)">
          <path
             d="M 0,0 C 0.941,-3.309 7.811,-1.158 15.268,0.962 22.726,3.083 32.661,4.641 31.72,7.95 29.562,13.726 20.028,16.458 9.615,13.496 2.158,11.376 -0.941,3.309 0,0"
             style="fill:#5e6268;fill-opacity:1;fill-rule:nonzero;stroke:none"
             id="path2683"
             inkscape:connector-curvature="0" />
        </g>
        <g
           id="g2685"
           transform="matrix(0.35277777,0,0,-0.35277777,558.40258,381.48119)">
          <path
             d="M 0,0 C -10.162,18.117 2.295,49.584 7.004,49.584 12.764,49.23 23.738,12.498 12.703,-3.597 Z"
             style="fill:#f4a195;fill-opacity:1;fill-rule:nonzero;stroke:none"
             id="path2687"
             inkscape:connector-curvature="0" />
        </g>
        <g
           id="g2689"
           transform="matrix(0.35277777,0,0,-0.35277777,526.34062,388.8571)">
          <path
             d="m 0,0 c 3.322,12.058 -24.042,43.901 -29.162,40.48 -5.824,-3.707 2.825,-48.289 23.303,-54.697 z"
             style="fill:#f4a195;fill-opacity:1;fill-rule:nonzero;stroke:none"
             id="path2691"
             inkscape:connector-curvature="0" />
        </g>
        <g
           id="g2693"
           transform="matrix(0.35277777,0,0,-0.35277777,560.52087,380.28806)">
          <path
             d="m 0,0 c -2.162,6.05 -2.485,12.942 -1.606,19.264 0.751,5.403 3.172,10.794 8.065,13.674 0.574,0.338 1.141,0.602 1.7,0.803 -2.181,7.21 -5.027,12.33 -7.159,12.46 -4.709,0 -17.166,-31.466 -7.005,-49.583 L 3.061,-5.949 C 1.728,-4.099 0.713,-1.995 0,0"
             style="fill:#f7857f;fill-opacity:1;fill-rule:nonzero;stroke:none"
             id="path2695"
             inkscape:connector-curvature="0" />
        </g>
        <g
           id="g2697"
           transform="matrix(0.35277777,0,0,-0.35277777,521.02828,388.43271)">
          <path
             d="m 0,0 c -3.671,4.572 -6.934,9.097 -8.519,14.857 -1.456,5.288 -1.694,11.989 2.37,16.236 0.828,0.865 1.716,1.485 2.621,1.886 -4.69,4.658 -8.868,7.438 -10.575,6.298 C -19.928,35.57 -11.278,-9.012 9.2,-15.42 l 3.201,7.768 C 7.293,-8.094 2.941,-3.663 0,0"
             style="fill:#f7857f;fill-opacity:1;fill-rule:nonzero;stroke:none"
             id="path2699"
             inkscape:connector-curvature="0" />
        </g>
        <g
           id="g2701"
           transform="matrix(0.35277777,0,0,-0.35277777,578.6637,506.92127)">
          <path
             d="m 0,0 c -1.673,-0.609 -2.992,-0.598 -4.639,-0.535 5.916,6.557 6.471,10.979 2.012,18.129 0.355,0.01 0.715,0.016 1.102,0.01 C 11.149,15.867 7.647,2.812 0,0 m -11.519,0.111 c -1.727,-0.715 -3.072,-0.683 -4.793,-0.609 5.063,5.556 5.153,15.672 -0.615,20.02 0.938,0.301 1.96,0.418 3.39,0.402 C 2.23,17.519 -2.727,3.76 -11.519,0.111 m -10.963,-0.333 c -8.442,-3.294 -38.18,-1.859 -57.85,-1.017 22.281,12.785 39.149,29.987 48.497,60.662 5.063,-0.699 11.032,2.828 15.02,5.709 2.929,2.118 5.073,4.613 7.388,7.383 0.106,0.127 0.212,0.254 0.323,0.386 21.492,-21.989 6.89,-40.192 -10.386,-51.992 -0.593,0.217 -1.223,0.392 -1.896,0.508 -12.393,0.499 -14.061,-1.17 -25.104,-5.036 12.436,2.346 14.199,3.241 21.969,2.071 12.674,-1.833 9.687,-15.687 2.039,-18.674 M -91.57,18.16 c -2.585,0.435 -4.37,0.085 -5.566,-0.243 -1.611,1.504 -3.644,2.579 -6.117,2.992 -0.503,0.059 -0.986,0.09 -1.457,0.101 11.201,9.284 10.327,19.924 9.856,28.043 1.653,0.164 3.279,0.747 4.772,1.748 5.095,-2.209 14.951,0.656 22.509,24.796 3.903,22.387 0.333,42.936 -28.578,53.904 -5.905,2.262 -10.932,3.596 -15.258,4.189 -2.463,28.377 -8.5,36.11 -23.59,43.895 11.837,-12.722 17.663,-12.997 19.363,-43.54 -13.595,0.313 -18.96,-8.103 -22.556,-18.393 7.886,17.133 24.463,17.609 39.975,9.84 20.38,-7.579 32.529,-20.416 26.852,-48.115 -3.941,-12.6 -10.545,-24.744 -15.884,-23.971 3.305,4.01 5.228,10.63 3.909,19.4 -2.298,-16.603 -10.958,-26.015 -17.785,-17.7 4.582,3.257 7.076,12.722 5.646,22.869 -1.419,-14.485 -8.77,-23.838 -14.553,-17.88 -4.094,5.09 -3.703,21.148 -1.955,32.1 -1.335,-1.398 -2.436,-4.931 -3.061,-9.294 -9.644,4.628 -28.531,10.136 -30.712,15.882 -3.284,10.016 -5.54,24.612 -15.603,33.604 9.931,-15.888 9.459,-25.357 13.543,-36.305 0.82,-1.906 2.526,-3.611 4.809,-5.184 -11.832,-2.034 -23.515,-8.13 -35.527,-15.862 15.756,8.166 29.25,12.266 40.441,13.018 6.816,-3.422 15.735,-6.377 22.594,-9.84 -0.44,-7.706 0.572,-16.456 4.051,-20.867 2.462,-2.447 4.788,-3.48 6.864,-3.432 1.838,-2.463 4.052,-3.957 6.345,-4.576 0.556,-8.728 1.535,-19.384 -12.218,-29.452 -0.668,-0.291 -1.261,-0.609 -1.796,-0.937 -0.662,0.228 -1.366,0.418 -2.119,0.534 -16.894,0 -27.332,-6.074 -42.67,-11.005 21.692,3.977 21.412,7.563 39.218,7.642 14.183,-1.832 11.084,-17.36 2.589,-20.824 -9.946,-4.057 -46.77,-2.563 -68.495,-2.007 -2.197,0.058 -4.141,1.477 -4.83,3.564 -8.299,25.167 -7.589,66.917 7.902,93.334 8.14,22.339 12.531,79.421 38.366,95.028 1.504,0.911 3.082,1.679 4.739,2.294 24.161,-7.854 48.296,-7.865 70.651,-2.754 7.96,1.816 15.692,4.284 23.123,7.277 16.392,-20.475 18.775,-52.665 17.377,-76.662 -2.04,-1.308 -4.121,-3.019 -6.229,-5.206 -6.604,-7.674 -25.283,-37.248 -13.452,-38.985 -1.97,-8.5 6.366,-11.99 11.387,-10.386 -9.507,-28.493 -24.77,-45.112 -46.521,-57.944 0.841,6.439 -2.67,13.552 -10.349,15.31 m 0.249,-22.248 c -1.854,-0.71 -3.326,-0.721 -5.169,-0.679 4.66,5.328 5.132,14.412 1.35,20.274 0.392,0.016 0.8,0.027 1.229,0.027 14.188,-1.727 11.085,-16.355 2.59,-19.622 m -11.684,-0.054 c -1.912,-0.826 -3.415,-0.815 -5.338,-0.757 5.561,6.286 5.492,17.583 -1.022,22.344 1.038,0.35 2.176,0.499 3.776,0.509 14.183,-1.949 11.079,-18.42 2.584,-22.096 m -209.351,24.627 11.122,8.299 c -19.68,9.555 -44.133,30.538 -59.317,72.378 -22.9,80.024 76.8,117.224 59.873,183.722 5.381,-2.812 10.635,-5.317 15.682,-7.907 21.916,-11.254 39.975,-24.129 48.2,-71.127 3.178,2.384 7.357,4.152 8.739,8.739 18.849,-60.577 -65.307,-128.882 29.187,-164.847 -0.291,-2.723 -0.492,-5.403 -0.609,-8.025 -0.159,-3.394 -0.18,-6.704 -0.085,-9.898 0.175,-6.127 0.773,-11.853 1.668,-17.048 -25.474,-13.007 -82.137,-14.194 -114.46,5.714 m 131.488,194.221 c 6.328,-0.774 10.83,0.423 16.518,1.551 -6.424,3.644 -11.683,8.273 -12.917,12.192 48.19,13.971 -8.458,81.38 49.191,113.793 8.621,4.851 19.802,8.913 34.276,11.9 81.142,13.966 76.922,-78.796 117.972,-68.32 1.059,-3.972 -0.901,-10.698 -4.37,-17.212 5.403,2.097 10.741,4.067 15.677,8.108 -15.115,-32.82 -50.229,-74.617 -101.58,-86.036 -32.184,-7.155 -70.746,-2.378 -114.767,24.024 m -1.679,133.409 c -6.303,19.395 -5.063,41.379 -3.617,42.761 2.917,2.277 18.086,-13.997 33.815,-31.417 2.124,-2.351 4.259,-4.724 6.371,-7.075 2.691,-2.987 3.671,-7.139 2.628,-11.021 -0.292,-1.086 -1.144,-2.188 -1.399,-3.316 -6.636,-5.91 -10.55,-11.069 -13.526,-18.229 -12.732,3.929 -20.131,15.555 -24.272,28.297 m 114.952,25.58 c 4.423,26.211 10.667,47.851 14.84,47.443 3.252,-0.646 33.53,-43.592 11.726,-69.157 -6.356,4.449 -12.128,7.235 -20.899,8.67 -0.821,0.816 -1.981,2.33 -1.981,2.33 0,0 -4.353,6.753 -3.686,10.714 M -3.633,111.563 c -3.951,5.694 -10.264,8.659 -17.567,6.313 1.271,16.042 1.732,29.251 -2.087,43.375 10.275,-15.39 18.293,-37.708 19.654,-49.688 M -33.72,63.405 c -4.846,-1.371 -12.568,1.335 -8.554,8.898 l 10.042,8.823 -11.832,-7.277 c -0.71,0.292 -1.308,0.906 -1.689,1.965 -2.696,7.383 8.823,25.237 15.862,32.762 24.712,22.159 33.185,-13.24 20.655,-30.362 -3.591,-8.771 -18.579,-20.205 -21.651,-15.593 l 7.923,10.28 z M 2.722,20.454 c -2.304,0.424 -5.497,0.662 -6.577,0.386 -1.42,1.367 -4.815,1.298 -7.018,1.7 25.591,17.822 20.592,39.949 7.664,52.596 7.679,9.475 9.051,22.297 6.424,30.914 3.776,15.523 -14.787,56.79 -30.124,71.127 -2.511,5.132 -3.528,10.518 -7.415,16.307 47.231,20.793 76.227,63.045 75.046,92.338 -4.497,-3.781 -8.294,-5.519 -12.43,-7.298 1.144,5.72 1.255,11.572 -0.281,15.242 -28.488,-13.531 -35.844,31.12 -63.728,54.423 25.448,27.89 -10.815,83.542 -18.362,83.542 -4.814,0 -14.199,-22.509 -21.052,-58.878 -0.259,-1.382 -0.281,-2.812 -0.037,-4.194 0.588,-3.326 2.902,-5.497 4.761,-7.256 -3.49,0.101 -7.181,-0.079 -11.09,-0.566 -15.46,-1.24 -30.326,-4.481 -44.207,-11.059 -2.394,-1.128 -4.761,-2.362 -7.097,-3.702 -1.8,-1.001 -3.522,-2.076 -3.522,-2.076 0.631,2.484 -0.005,6.048 -1.292,9.168 -0.535,1.303 -1.318,2.499 -2.277,3.527 -0.646,0.688 -1.287,1.377 -1.933,2.055 -24.426,25.962 -44.901,44.461 -48.857,41.945 -4.306,-2.727 -5.471,-37.179 5.46,-62.304 5.243,-12.064 13.288,-21.979 25.104,-25.193 -11.053,-34.616 6.657,-76.259 -24.643,-80.099 0.667,-3.919 3.893,-8.802 7.928,-13.018 -4.443,-0.715 -9.115,-2.346 -14.935,-1.557 15.581,-14.204 30.156,-22.89 46.368,-29.007 -0.975,-0.424 -1.923,-0.901 -2.839,-1.425 -27.434,-15.671 -28.854,-74.378 -40.187,-96.697 -3.469,-7.493 -6.477,-13.203 -8.68,-19.15 -1.415,-3.787 -2.495,-7.669 -3.168,-12.176 -83.012,31.337 5.297,111.346 -26.194,169.879 -1.716,-2.929 -4.846,-9.629 -7.187,-11.482 -8.304,36.771 -21.492,54.433 -50.621,69.443 -8.759,4.517 -18.96,8.791 -30.903,13.272 2.431,-4.269 4.126,-8.538 5.18,-12.817 13.743,-55.694 -80.501,-112.633 -61.319,-184.025 13.241,-42.544 31.952,-59.317 56.494,-76.439 l -17.302,-6.885 c 45.192,-19.85 73.452,-30.755 133.431,-16.873 0.826,0.185 1.657,0.381 2.494,0.582 2.013,-8.76 3.771,-12.345 6.541,-16.254 27.842,-0.889 65.031,-2.589 74.151,-0.222 5.678,0.206 10.063,-0.286 13.341,0.646 5.323,0.074 9.417,-0.265 12.462,0.768 2.029,0.683 7.113,4.708 7.113,4.708 0,0 52.045,-1.483 59.809,0.408 5.09,0.106 9.003,-0.392 11.954,0.403 4.766,-0.011 10.544,-0.366 13.282,0.513 11.016,3.538 11.996,21.889 0.27,24.76"
             style="fill:#3c3c3b;fill-opacity:1;fill-rule:nonzero;stroke:none"
             id="path2703"
             inkscape:connector-curvature="0" />
        </g>
        <g
           id="g2705"
           transform="matrix(0.35277777,0,0,-0.35277777,574.33949,444.2733)">
          <path
             d="m 0,0 c 1.786,7.683 1.717,12.921 -2.858,12.223 l -3.186,8.518 C -39.26,5.414 -88.207,2.387 -142.155,14.448 l -5.637,-9.455 c -6.964,-5.711 -10.088,-12.454 24.211,-29.255 38.422,-13.744 68.967,-12.938 94.493,-2.859 -2.438,-24.8 1.262,-23.707 25.562,-15.973 C 11.341,-31.779 7.527,-16.303 0,0 m -74.985,149.276 c 25.889,8.751 43.725,20.331 55.296,34.112 -16.865,-4.485 -31.906,-0.978 -44.436,13.53 l 0.146,1.046 c 0.861,-0.63 1.43,-1.046 1.43,-1.046 0.066,0.199 4.666,20.93 4.666,20.93 l -2.91,2.955 -22.152,4.469 c -0.447,-0.468 -0.901,-0.93 -1.368,-1.38 -3.195,-3.085 -6.755,-6.016 -10.848,-7.814 -6.826,-2.997 -14.207,-2.36 -20.301,1.503 0.107,-0.18 0.208,-0.359 0.317,-0.538 l -15.136,-15.689 -7.081,-12.015 c 5.975,-6.352 7.852,-8.039 10.74,-11.47 0,0 0.384,0.774 0.956,1.928 l 0.282,-1.319 c -5.005,-13.98 -15.995,-26.56 -30.541,-38.309 20.935,-5.221 48.539,-1.334 80.94,9.107"
             style="fill:#f48811;fill-opacity:1;fill-rule:nonzero;stroke:none"
             id="path2707"
             inkscape:connector-curvature="0" />
        </g>
        <g
           id="g2709"
           transform="matrix(0.35277777,0,0,-0.35277777,522.20169,442.51174)">
          <path
             d="m 0,0 c -6.034,-4.948 -9.179,-10.673 12.396,-23.041 0.757,3.159 1.648,6.303 1.819,9.48 0.316,5.854 0.532,11.19 4.119,16.12 0.989,1.358 2.066,2.608 3.229,3.75 C 16.31,7.212 11,8.256 5.637,9.455 Z m 12.011,115.316 c 42.317,1.755 81.41,13.329 105.375,27.937 33.118,22.732 27.04,31.087 15.226,37.337 -14.693,-15.374 -34.488,-27.177 -58.522,-36.013 -28.655,-12.699 -57.585,-13.492 -86.648,-8.474 -5.196,-8.158 -2.857,-24.164 24.569,-20.787 M 147.792,-4.993 c 1.786,7.682 1.717,12.921 -2.858,12.223 l -3.186,8.518 c -3.204,-1.478 -6.564,-2.833 -10.053,-4.078 1.212,-1.551 2.313,-3.219 3.253,-4.962 4.685,-7.129 8.936,-16.22 5.219,-23.08 -0.008,-3.558 -3.015,-7.072 -6.678,-6.487 -1.921,-1.744 -4.09,-3.166 -6.657,-4.05 -1.708,-0.588 -3.882,0.993 -3.724,2.837 0.908,10.608 -2.351,22.418 -9.209,30.683 -7.914,-1.748 -16.315,-3.01 -25.143,-3.746 3.6,-14.128 3.312,-28.776 -1.392,-42.13 11.269,0.865 21.67,3.333 31.341,7.151 -0.242,-2.456 -0.422,-4.654 -0.528,-6.62 12.518,0.861 24.637,3.943 34.591,12.069 0.506,0.414 1,0.839 1.49,1.268 -0.657,6.468 -3.213,13.358 -6.466,20.404 M 32.186,-23.887 c -0.14,-2.668 -0.176,-5.335 -0.136,-8.001 8.421,-2.651 16.448,-4.576 24.121,-5.847 0.265,2.339 0.576,4.673 0.873,7.005 1.398,10.972 1.421,22.062 3.438,32.949 -6.61,0.235 -13.376,0.72 -20.28,1.474 -5.54,-7.861 -7.523,-18.111 -8.016,-27.58 m 21.32,235.964 c 3.704,1.848 6.97,4.611 9.909,7.497 0.342,0.336 0.677,0.679 1.008,1.025 -0.007,19.455 -6.34,31.574 -21.713,33.21 -17.766,-12.575 -18.908,-26.113 -10.989,-40.174 6.464,-4.55 14.563,-5.16 21.785,-1.558 m 34.368,-8.385 c 1.06,4.764 2.036,9.162 2.036,9.162 l -2.911,2.956 -5.393,1.088 C 73.204,209.504 63.348,203.7 52.571,200.635 43.375,198.02 30.838,196.386 21.292,200.28 l -3.78,-3.919 -5.269,-8.939 c 34.418,-9.028 72.481,11.856 75.631,16.27 M 12.05,150.422 c 6.655,-0.525 13.437,-0.776 20.11,-0.543 6.879,0.24 11.326,0.773 17.782,2.063 6.331,1.266 12.573,3.003 18.63,5.239 3.362,1.242 4.589,1.763 7.764,3.297 2.884,1.395 5.676,2.951 8.427,4.591 5.311,3.165 10.445,6.62 15.401,10.315 1.126,0.84 2.344,1.787 3.611,2.8 -4.902,1.477 -9.565,3.998 -13.966,7.668 -7.158,-3.898 -14.588,-7.29 -22.259,-10.082 -9.687,-3.525 -19.653,-5.604 -29.851,-6.938 -5.34,-0.698 -11.628,-1.367 -17.508,-0.647 -2.881,-6.041 -6.874,-11.822 -11.772,-17.391 0.441,-0.056 1.003,-0.13 1.085,-0.139 0.847,-0.089 1.696,-0.165 2.546,-0.233"
             style="fill:#1aad33;fill-opacity:1;fill-rule:nonzero;stroke:none"
             id="path2711"
             inkscape:connector-curvature="0" />
        </g>
        <g
           id="g2713"
           transform="matrix(0.35277777,0,0,-0.35277777,-495.15359,575.86844)">
          <g
             id="g2715" />
          <g
             id="g2727">
            <g
               clip-path="url(#clipPath2719)"
               id="g2725"
               style="opacity:0.25">
              <g
                 transform="translate(3037.5591,344.043)"
                 id="g2723">
                <path
                   d="M 0,0 C -0.018,0.062 -0.037,0.122 -0.056,0.184 -0.021,0.038 0,-0.031 0,0 m 0.71,-4.032 -1.008,5.017 c 0.081,-0.262 0.162,-0.531 0.242,-0.801 -0.366,1.523 -2.498,12.047 -4.088,19.938 l -1.781,8.861 c -5.668,-8.526 -11.295,-17.09 -20.961,-21.916 2.068,-4.623 3.67,-10.678 4.578,-18.867 3.692,19.382 10.77,28.16 16.711,22.749 0.576,-3.055 0.816,-13.283 -1.386,-22.078 -20.124,-4.656 -22.17,-0.566 -23.165,14.943 l -4.865,-1.952 1.262,-18.988 c 7.952,-1.892 17.072,0.91 26.62,5.433 -0.107,-0.407 -0.218,-0.811 -0.336,-1.21 l 1.735,1.883 c 0.25,0.122 0.499,0.244 0.75,0.368 -0.181,-0.044 -0.349,-0.082 -0.526,-0.125 z m -9.493,45.238 c -0.582,9.399 -4.207,11.372 -10.951,5.741 -1.569,-14.305 -10.965,-24.541 -31.78,-40.033 22.909,8.45 36.559,21.514 42.731,34.292 M -69.904,17.195 c -37.968,0.071 -63.5,10.984 -66.335,24.037 l -13.744,2.199 c -2.382,-3.278 -3.642,-6.678 -3.065,-10.277 l -0.669,0.822 c -5.785,-2.953 -6.721,-8.028 1.298,-17.021 25.265,-18.989 62.48,-24.944 88.68,-20.714 -39.966,4.532 -66.38,12.038 -77.826,22.829 20.723,-8.489 45.357,-7.26 71.661,-1.875 m -66.705,132.357 c 41.801,3.027 69.779,12.854 92.899,25.073 -38.935,-14.711 -87.142,-15.875 -104.514,-7.21 29.125,-2.033 59.737,6.322 91.233,20.847 -31.684,-6.467 -74.494,-12.667 -74.318,-3.722 0.588,12.123 12.005,40.31 18.575,44.217 h -0.003 c 13.696,8.1 29.465,15.118 23.442,30.048 -20.268,-15.053 -33.287,0.542 -28.744,24.324 -11.526,-11.672 -12.926,-23.2 -2.84,-34.563 -10.512,-10.157 -17.153,-20.218 -22.408,-30.245 l 10.74,-11.469 c 0.17,0.251 0.329,0.495 0.484,0.737 -7.156,-14.421 -16.19,-27.41 -28.82,-37.658 l -5.392,0.148 c -4.434,-12.114 -3.166,-24.936 29.666,-20.527"
                   style="fill:#1d1d1b;fill-opacity:1;fill-rule:nonzero;stroke:none"
                   id="path2721"
                   inkscape:connector-curvature="0" />
              </g>
            </g>
          </g>
        </g>
        <g
           id="g2729"
           transform="matrix(0.35277777,0,0,-0.35277777,-495.15359,575.86844)">
          <g
             id="g2731" />
          <g
             id="g2743">
            <g
               clip-path="url(#clipPath2735)"
               id="g2741"
               style="opacity:0.19999701">
              <g
                 transform="translate(2901.1682,384.8577)"
                 id="g2739">
                <path
                   d="m 0,0 c 7.936,-15.103 51.491,-22.954 85.545,-13.461 -6.559,-7.097 -24.907,-17.697 -52.771,-22.47 59.434,-3.987 79.634,27.575 83.882,40.084 l -0.022,-0.011 c 0.743,0.816 1.463,1.651 2.141,2.519 C 84.175,-6.353 38.823,-9.447 0,0 m 62.917,190.214 c 1.307,-13.397 7.09,-26.075 27.468,-36.406 -15.675,-9.97 -34.835,-17.615 -64.471,-25.294 36.013,-0.886 66.38,7.326 84.863,15.832 17.882,13.385 13.924,26.537 4.509,29.406 -23.245,-8.841 -40.09,-1.841 -52.369,16.462 m 6.153,0 3.513,15.802 c -5.582,4.177 -12.852,6.292 -22.731,5.217 11.366,-4.777 16.666,-10.371 19.218,-21.019 m -29.649,26.967 c 4.983,1.703 6.808,9.568 4.075,17.567 -2.733,7.999 -8.988,13.104 -13.972,11.401 -4.984,-1.703 -7.338,-9.568 -4.605,-17.567 2.732,-7.999 9.518,-13.104 14.502,-11.401"
                   style="fill:#ffffff;fill-opacity:1;fill-rule:nonzero;stroke:none"
                   id="path2737"
                   inkscape:connector-curvature="0" />
              </g>
            </g>
          </g>
        </g>
        <g
           id="g2745"
           transform="matrix(0.35277777,0,0,-0.35277777,575.60152,454.51871)">
          <path
             d="m 0,0 c 0,-5.517 -2.913,-14.077 -24.627,-15.977 -11.648,-0.464 -4.302,6.862 -6.276,16.883 2.359,1.019 4.635,2.126 6.825,3.316 1.063,-2.687 3.151,-9.876 4.117,-15.962 0.377,6.266 -0.018,13.534 -1.101,17.685 0.959,0.576 1.901,1.168 2.822,1.778 C -11.965,13.049 -7.696,18.622 -5,23.745 -1.924,18.467 0.402,3.098 0,0 m -135.317,10.685 c -21.564,12.041 -20.997,16.739 -16.686,20.195 6.184,-19.811 43.922,-26.419 84.447,-13.626 -39.099,-8.871 -89.746,1.009 -79.765,21.937 6.696,11.709 41.797,-29.923 134.213,7.815 11.343,-0.488 0.928,-23.968 -36.058,-40.033 25.987,7.899 39.013,21.54 43.01,31.72 4.383,-2.872 -0.681,-13.738 -13.807,-28.008 -44.052,-26.22 -92.139,-10.597 -115.354,0 M -1.881,31.823 c 1.565,6.571 0.11,11.248 -3.004,11.667 l -0.001,-0.002 c 0.155,1.261 0.135,2.417 -0.047,3.443 l 0.005,-0.002 c -0.191,4.009 -1.256,8.369 -2.768,7.427 0,0 -4.11,-2.367 -4.987,-2.865 -7.889,-3.44 -15.255,-5.647 -22.457,-7.791 -62.516,-18.615 -99.156,7.605 -112.553,2.008 l -3.187,1.515 c -3.07,-2.385 -3.781,-8.471 -1.97,-11.666 l 0.005,0.007 c 0.001,-0.011 0.001,-0.021 0.001,-0.032 l -0.006,0.025 c -8.153,-1.981 -11.141,-15.023 16.121,-28.584 39.385,-17.219 75.977,-17.739 102.812,-7.302 0.453,-7.384 -4.554,-16.962 2.935,-19.402 v -4.445 c 0,-0.853 0.691,-1.544 1.544,-1.544 0.853,0 1.545,0.691 1.545,1.544 v 3.902 c 0.444,-0.029 0.91,-0.045 1.406,-0.044 0.903,-0.03 1.81,-0.028 2.718,0.001 v -3.859 c 0,-0.853 0.692,-1.544 1.545,-1.544 0.853,0 1.545,0.691 1.545,1.544 v 4.07 c 1.157,0.121 2.306,0.291 3.443,0.501 v -3.865 c 0,-0.853 0.692,-1.544 1.545,-1.544 0.853,0 1.545,0.691 1.545,1.544 v 4.547 c 0.989,0.256 1.962,0.543 2.912,0.862 v -3.643 c 0,-0.853 0.692,-1.545 1.545,-1.545 0.853,0 1.545,0.692 1.545,1.545 v 4.829 c 0.808,0.348 1.592,0.72 2.351,1.114 v -4.001 c 0,-0.853 0.691,-1.545 1.544,-1.545 0.853,0 1.545,0.692 1.545,1.545 v 5.829 c 0.839,0.568 1.623,1.167 2.351,1.794 v -2.972 c 0,-0.853 0.692,-1.544 1.545,-1.544 0.853,0 1.545,0.691 1.545,1.544 v 6.3 c 1.524,2.13 2.415,4.471 2.447,6.957 -0.123,13.54 -4.586,29.375 -7.065,33.677 m -159.668,136.353 c 43.635,-10.506 115.47,12.857 141.718,44.254 0,0 18.683,-7.962 -3.812,-23.887 -16.66,-12.976 -58.006,-36.613 -124.624,-37.21 -14.976,-0.852 -18.751,8.741 -13.282,16.843 m 141.698,15.811 c 16.144,14.442 13.893,26.936 1.37,34.813 -0.538,-0.902 -1.146,-1.811 -1.819,-2.724 -10.958,-5.231 -33.531,-5 -50.826,15.012 7.111,-19.905 29.763,-26.922 46.255,-20.292 -24.674,-24.985 -92.345,-50.535 -131.537,-40.968 18.62,12.027 25.353,26.056 30.089,45.063 -6.489,-14.081 -15.148,-29.905 -34.945,-43.635 -1.108,0.382 -2.194,0.789 -3.242,1.239 -4.782,-4.946 -11.48,-25.489 16.431,-25.273 39.945,0 90.921,6.826 128.224,36.765 m -102.478,78.601 c 0,9.109 6.414,22.164 15.524,22.164 9.114,0 16.947,-13.055 16.947,-22.164 0,-2.098 -0.392,-4.105 -1.107,-5.953 -0.593,-1.536 -1.414,-2.966 -2.42,-4.237 -3.019,-3.845 -7.711,-6.313 -12.976,-6.313 -2.055,0 -4.019,0.376 -5.831,1.059 -1.716,0.652 -3.289,1.578 -4.676,2.728 -3.66,3.024 -5.461,7.594 -5.461,12.716 m 4.709,-19.098 c 3.299,-1.949 7.15,-3.072 11.259,-3.072 8.527,0 15.931,4.814 19.638,11.874 9.793,-0.551 17.742,-2.781 25.263,-5.402 l 1.155,4.343 c -7.378,2.812 -15.481,4.745 -24.734,5.264 0.551,1.933 0.848,3.978 0.848,6.091 0,12.239 -10.37,27.831 -22.614,27.831 -12.24,0 -21.72,-15.592 -21.72,-27.831 0,-6.281 2.611,-11.948 6.806,-15.979 -8.427,-6.223 -15.852,-14.675 -22.499,-24.865 l 3.279,-3.363 c 6.89,9.972 14.522,18.595 23.319,25.109"
             style="fill:#994100;fill-opacity:1;fill-rule:nonzero;stroke:none"
             id="path2747"
             inkscape:connector-curvature="0" />
        </g>
        <g
           id="g2749"
           transform="matrix(0.35277777,0,0,-0.35277777,567.26069,388.00507)">
          <path
             d="m 0,0 c -16.66,-12.976 -58.006,-36.613 -124.624,-37.21 -14.976,-0.852 -18.751,8.742 -13.281,16.843 C -94.271,-30.872 -22.436,-7.51 3.812,23.887 3.812,23.887 22.496,15.926 0,0 M 5.163,30.257 C 4.624,29.355 4.017,28.446 3.343,27.534 L -1.228,22.253 C -25.902,-2.732 -93.572,-28.282 -132.765,-18.715 l -4.856,1.429 c -1.107,0.382 -2.193,0.789 -3.242,1.238 -4.781,-4.946 -11.479,-25.489 16.431,-25.272 39.946,0 90.921,6.826 128.225,36.765 16.143,14.441 13.892,26.935 1.37,34.812"
             style="fill:#005b11;fill-opacity:1;fill-rule:nonzero;stroke:none"
             id="path2751"
             inkscape:connector-curvature="0" />
        </g>
        <g
           id="g2753"
           transform="matrix(0.35277777,0,0,-0.35277777,543.51116,363.98373)">
          <path
             d="m 0,0 c -0.593,-1.536 -1.414,-2.966 -2.42,-4.237 -3.019,-3.844 -7.711,-6.313 -12.976,-6.313 -2.055,0 -4.02,0.376 -5.831,1.06 -1.716,0.651 -3.289,1.578 -4.676,2.727 -3.66,3.024 -5.461,7.595 -5.461,12.716 0,9.109 6.414,22.164 15.523,22.164 9.115,0 16.948,-13.055 16.948,-22.164 C 1.107,3.856 0.715,1.849 0,0 m 5.926,-0.138 c 0.551,1.934 0.848,3.978 0.848,6.091 0,12.239 -10.37,27.832 -22.615,27.832 -12.239,0 -21.719,-15.593 -21.719,-27.832 0,-6.281 2.611,-11.948 6.805,-15.978 0.953,-1.063 2.848,-2.492 4.099,-3.12 3.3,-1.949 7.15,-3.071 11.26,-3.071 8.527,0 15.931,4.814 19.638,11.873 0.713,1.234 1.291,2.651 1.684,4.205"
             style="fill:#005b11;fill-opacity:1;fill-rule:nonzero;stroke:none"
             id="path2755"
             inkscape:connector-curvature="0" />
        </g>
      </g>
    </g>
  </g>
</svg>
