<?xml version="1.0" encoding="UTF-8"?>
<svg width="111.58mm" height="92.712mm" version="1.1" viewBox="0 0 111.58 92.712" xmlns="http://www.w3.org/2000/svg"><defs><clipPath id="clipPath3894"><path d="m2885.8 932.75h253.98v-255.92h-253.98z"/></clipPath><clipPath id="clipPath3962"><path d="m3105.8 828.62h88.33v-95.235h-88.33z"/></clipPath><clipPath id="clipPath4018"><path d="m3062 891.95h96.8v-57.302h-96.8z"/></clipPath></defs><g transform="translate(-44.203 -126.42)"><g transform="matrix(.35278 0 0 -.35278 154.82 169.41)"><path d="m0 0c-5.827-3.471-10.726-8.303-14.005-16.472 16.672-19.178 12.16-39.418 5.005-51.939-2.037-3.565-5.049-6.508-8.771-8.252-4.007-1.881-7.396-2.412-11.138-0.276 0 0-16.307-10.64-35.5-9.11-2.335-15.354-8.958-25.416-23.132-31.491 6.258-0.489 9.801-7.318 9.7-14.93-0.314-4.289-35.036 0.433-35.036 0.433s0.597-9.631-9.107-8.878l-59.615 5.28c-26.658-0.495-35.057 5.966-36.213 20.29-70.617 4.049-77.903 36.914-82.168 76.435 5.81 56.963 52.294 82.148 2.685 69.701 8.462 21.942 14.147 26.943 30.225 23.799-14.233 10.848-29.714 2.907-46.499-2.611 10.954 29.979 23.842 46.917 65.283 46.73 2.869 3.717 3.567 8.706 1.562 16.253 64.979-21.251 75.58-36.074 72.164-96.594l11.537 18.806c3.906-16.335 4.107-26.288-2.017-41.372 11.762 3.64 24.659 5.764 39.005 13.325l9e-3 -0.056c-0.9 9.703-1.497 22.168 1.455 35.65-15.852 26.668-10.615 45.498-0.169 68.648-0.08-9.229 6.852-36.166 20.366-46.994 9.802 8.603 19.699 8.698 30 7.12 0 0 0.222 26.528-10.545 48.352 29.108-16.167 30.297-29.368 37.277-58.438 15.047-29.827 18.133-48.613 13.17-65.094 3.846-1.575 7.701-3.669 11.414-6.351 5.477 4.375 8.911 11.091 10.553 19.596 0.514 2.655 2.964 4.518 5.65 4.194 5.866-0.709 8.833-6.131 9.507-10.246 0.36-2.198-0.736-4.366-2.652-5.508" style="fill:#e2610a"/></g><g transform="matrix(.35278 0 0 -.35278 141.99 166.91)"><path d="m0 0c-0.836 3.966-3.941 8.062-8.03 9.023-0.118 0.028-0.152 0.217-0.035 0.271 2.392 1.114 4.889 0.116 6.943-1.254-0.554 1.855-1.413 3.627-2.778 5.026-1.443 1.48-3.308 2.361-5.318 2.78-0.071 0.015-0.132 0.111-0.103 0.182 2.504 6.171 2.287 13.723-2.117 19.012-2.611 3.135-6.598 4.71-10.634 3.859-3.91-0.824-7.169-3.64-8.859-7.216-1.066-2.255-1.427-4.732-1.447-7.208-0.021-2.546 0.401-5.085 1.373-7.445 1.878-4.565 5.264-8.055 8.982-11.169 0.094-0.03-1.807-4.564-3.442-6.148-5.463-5.295-15.285-8.984-22.104-4.024-0.153 0.112-5e-3 0.369 0.15 0.256 4e-3 -2e-3 -0.884-4e-3 -0.88-7e-3 -0.061 3.142-0.09 5.102-0.092 7.629-3e-3 3.246 0.116 6.537-0.52 9.738-1.649 8.299-10.63 15.457-19.207 12.359-4.268-1.54-6.92-5.47-8.044-9.715-0.796-3.007-1.008-6.177-0.334-9.228 0.659-2.984 2.113-5.692 3.883-8.159 0.045-0.063 0.014-0.169-0.053-0.203-4.719-2.418-7.411-8.325-6.836-13.519 1.243 3.121 3.186 6.057 6.092 7.842 0.121 0.074 0.293-0.08 0.203-0.202-1.727-2.382-3.417-4.954-4.019-7.879-0.283-1.376-0.371-2.961 0.155-4.292 0.441-1.114 1.245-2.016 1.792-3.071 0.824-1.591-0.042-3.402-0.707-4.891-0.449-1.006-0.897-1.992-1.087-3.082-0.191-1.101-0.324-2.212-0.362-3.33-0.121-3.529 0.812-6.949 3.171-9.636 2.35-2.677 5.596-4.429 8.789-5.905 4.602-2.126 3.875-1.426 8.655-3.022-0.019 0.023 3.237 1.28 3.237 1.28s2.651 0.144 2.941 1.674c0.309 1.946 0.708 3.877 1.223 5.781 0.05 0.185 0.336 0.106 0.286-0.078-0.017-0.065-0.033-0.13-0.049-0.194 0.084 0.251 0.166 0.503 0.254 0.753 0.601 1.694 1.288 3.358 2.029 4.996 0.653 1.444 1.292 2.939 2.087 4.312 2.312 3.989 6.454 6.626 8.71 10.643 0.453 0.806 0.788 1.71 0.605 2.646-0.198 1.01-0.859 1.867-1.272 2.793-0.952 2.133-0.148 4.453 1.248 6.209 1.483 1.867 3.689 2.987 5.844 3.903 2.165 0.92 4.475 1.513 6.787 1.926 2.437 0.437 4.929 0.674 7.406 0.582 1.589-0.059 3.229-0.245 4.748-0.762-0.113 0.165-0.16 0.325-0.073 0.45-0.029 0.104 0.089 0.239 0.221 0.176 1.546-0.737 3.281-1.19 4.991-1.499-0.012 0.036-9e-3 0.074 3e-3 0.107-0.081 0.033-0.163 0.064-0.243 0.098-0.176 0.074-0.024 0.329 0.15 0.256 0.326-0.138 0.655-0.267 0.986-0.392 0.763-0.115 1.527-0.243 2.292-0.398 0.096 0.016 0.19 0.036 0.283 0.063 0.662 0.198 1.029 0.787 1.321 1.373 0.939 1.883 1.24 3.864 0.805 5.93" style="fill:#f2b24c"/></g><g transform="matrix(.35278 0 0 -.35278 78.296 209.44)"><path d="m0 0c0.325 2.371 0.297 13.86-0.118 14.038-8.661 0.499-15.938 3.243-22.952 20.98-1.861-2.89-1.017-7.714 1.628-12.243-14.886 11.637-25.133 33.737-18.686 53.63-11.359-7.231-12.362-18.781-12.887-26.865-6.208 16.786-3.733 44.472 10.609 62.165-11.711-4.796-17.213-10.871-20.728-18.188 0.556 32.925 39.553 39.255 14.331 58.606 7.005 3.392 13.663-0.316 14.892 4.763 9.835 40.38-41.401 36.005-62.73 8.557 16.785 5.518 32.266 13.459 46.499 2.61-16.078 3.145-21.763-1.856-30.225-23.799 49.608 12.447 3.124-12.737-2.685-69.701 4.265-39.521 11.551-72.385 82.168-76.434 0.069-0.859 0.685 0.429 0.884 1.881" style="fill:#f2b24c"/></g><g transform="matrix(.35278 0 0 -.35278 126.76 198.02)"><path d="m0 0c-2.97 1.764-5.332 4.398-6.629 7.604-1.238-0.191-2.482-0.378-3.728-0.555-1.931-0.472-3.906-0.769-5.93-0.891-1.863-0.113-3.749-0.139-5.639-0.077-3.701-3e-3 -7.383 0.385-11.001 1.433-0.578 0.136-1.153 0.279-1.723 0.436-0.081 0.022-0.109 0.089-0.102 0.153-0.922-1.776-2.481-3.227-4.038-4.435-1.901-1.475-4.039-2.708-6.331-3.466 1.6-1.686 2.669-3.783 3.331-6.001 1.395-4.67 1.218-9.761 0.451-14.525-0.708-4.387-1.956-8.837-4.083-12.765 4.467 1.12 9.051 1.643 13.533 2.692 7.443 1.74 14.455 5.588 20.032 10.806 2.728 2.552 5.043 5.448 7.15 8.524 1.273 1.858 2.538 3.716 3.599 5.707 0.55 1.031 1.049 2.092 1.453 3.189 0.175 0.476 0.256 1.061 0.476 1.51-0.098 0.048-0.194 0.102-0.282 0.173-0.064 0.05-0.054 0.132-0.011 0.189-0.177 0.096-0.353 0.195-0.528 0.299" style="fill:#f2b24c"/></g><g transform="matrix(.35278 0 0 -.35278 -971.37 457.91)"><g clip-path="url(#clipPath3894)" style="opacity:.35001"><g transform="translate(3102.3 718.15)"><path d="m0 0c-1.963-2.916-5.226-4.667-8.214-6.349-3.28-1.844-6.442-3.807-9.896-5.328-3.132-1.38-6.359-2.451-9.65-3.377-1.68-0.472-3.438-0.864-5.184-0.964-0.715-0.04-1.938 8e-3 -2.202 0.611-0.11-0.041-0.257 0.079-0.183 0.212 0.061 0.11 0.123 0.22 0.185 0.33 0.034 0.104 0.078 0.214 0.149 0.337 0.02 0.034 0.047 0.052 0.076 0.062 0.678 1.195 1.378 2.398 1.934 3.645 0.825 1.849 1.167 3.867 1.65 5.82 0.025 0.103 0.134 0.125 0.218 0.089 2.351-1.011 4.989-0.904 7.481-0.629 2.568 0.284 5.15 0.634 7.682 1.148 2.655 0.539 5.273 1.246 7.876 1.995 2.605 0.748 5.463 1.335 7.875 2.601 0.123 0.065 0.29-0.073 0.203-0.203m21.15 15.814c-2.47 0.396-5.099 0.62-7.455 1.494-3.289 1.219-5.734 3.567-8.298 5.861-0.744 0.665-1.506 1.426-2.364 1.942-0.76 0.456-6.21 0.263-8.032 0.013-2.023-0.277-10.632-0.331-12.866-0.035-4.265 0.564-8.436 1.74-12.446 3.281-8.29 3.186-26.816 15.267-28.682 16.415-1.712 1.053-12.082 8.688-12.095 8.702-1.328-1.115-6.372-10.031-16.589-16.322 7.098 0.789 55.182 2.87 48.474-27.423-4.235-15.152-19.275-22.869-31.641-30.608 4.778-0.529 9.491 0.974 14.055 2.197 3.595 0.964 7.567 2.059 11.325 1.578 1.931-0.247 3.863-0.854 5.696-1.485 2.132-0.735 9.241-3.429 5.844-6.452 2.382-0.437 4.736-1.237 6.506-2.952 0.103-0.1-1e-3 -0.297-0.144-0.248-1.274 0.438-2.485 1.048-3.766 1.439 0.974-0.661 1.676-1.731 1.789-2.919 0.152-1.586-0.951-2.32-2.292-2.33 0.703-0.39 1.421-0.741 2.17-1.046 0.173-0.07 0.102-0.353-0.079-0.286-1.641 0.603-3.138 1.516-4.703 2.267 5.697-2.835-0.403-5.387-9.018-6.223-1.024-0.251 0.512-2.519-0.492-2.887l11.988-1.063c9.704-0.753 9.107 8.879 9.107 8.879s31.991-4.35 34.832-0.904c-1.56-0.041-2.929 0.882-4.172 1.838-3.728 2.867-8.335 4.176-12.92 4.92-3.103 0.503-6.26 0.592-9.344 1.224-0.939 0.192-2.215 0.378-2.962 1.042-0.362 0.321-0.342 0.642-0.153 0.922 0.224 0.686 1.11 1.378 1.484 1.703 1.348 1.177 2.945 1.876 4.653 2.368 1.856 0.534 3.765 0.979 5.673 1.28 2.647 0.417 5.379 0.599 8.073 0.419 0.651 0.251 1.331 0.421 2.026 0.529 12.882 6.138 19.031 15.956 21.268 30.59-0.148 0.198-0.306 0.39-0.486 0.566-1.06 1.039-2.532 1.485-3.964 1.714m15.487 86.258c-3.611 0.96-7.363 0.131-10.906-0.752-1.243-0.311-2.473-0.681-3.668-1.136-0.058 0.337-0.127 0.675-0.217 1.015-0.084 0.317-0.198 0.648-0.289 0.979 0.482 0.177 0.958 0.375 1.424 0.601 2.009 0.974 3.648 2.426 5.081 4.118 0.136 0.161 0.281 0.325 0.429 0.489 0.369 0.874 0.896 1.702 1.478 2.473 0.326 0.669 0.68 1.326 1.03 1.983 0.024 0.13 0.043 0.26 0.064 0.39-5e-3 0.047-5e-3 0.093-0.012 0.141-0.125 0.853-1.129 0.997-1.719 0.566-3.573-2.611-7.484-4.733-11.62-6.312-2.063-0.787-4.185-1.411-6.324-1.953-1.923-0.487-3.955-0.559-5.608-1.694-0.159-0.109-0.173-0.288-0.112-0.443 0.132-0.055 0.262-0.111 0.394-0.165 0.201-0.082 0.402-0.165 0.604-0.247 1.228-0.489 2.477-0.922 3.744-1.304 3.121-2e-3 6.392 0.046 9.446 0.829 0.244-0.716 0.51-1.389 0.806-2.047-1.591-0.722-3.094-1.623-4.444-2.773-3.384-2.883-5.287-7.466-4.519-11.664-3.164-3.561-5.697-7.598-7.505-11.976-0.985-0.041-1.971-0.145-2.954-0.049-3.24 0.318-6.399 1.461-9.583 2.096-5.364 1.07-10.655 3.524-14.471 7.513-1.034 1.08-1.92 2.298-2.86 3.46-0.937 1.159-1.874 2.323-2.71 3.559-1.694 2.504-2.772 5.448-3.719 8.3-0.507 1.526-0.966 3.067-1.43 4.607-0.421 1.4-0.748 2.912-1.394 4.23-0.313 0.639-0.719 1.261-1.213 1.797-1.253-0.658-2.495-1.275-3.726-1.855-0.822-11.773 2.419-22.053 3.318-24.767 0.857-2.586 8.897-17.598 13.607-20.365 2.374-1.395 4.875-2.647 7.406-3.729 2.667-1.141 5.524-2.141 8.445-2.292 2.238-0.117 4.705 0.024 6.872 0.608 1.118 0.301 2.203 0.779 3.076 1.554 1.047 0.928 1.538 2.167 1.944 3.473 0.104 0.334 0.207 0.665 0.311 0.996 0.438 0.104 0.845 0.361 1.107 0.797l0.036-0.019c0.54 1.507 7.023 13.331 9.96 17.13 0.065 0.041 0.128 0.086 0.185 0.135 0.263 0.227 0.432 0.49 0.521 0.77 0.103 0.131 0.207 0.262 0.31 0.392 0.144-0.128 0.29-0.254 0.443-0.374 1.334-1.051 2.948 0.162 2.603 1.721-0.131 0.591-0.295 1.168-0.489 1.73 0.122 0.989-0.379 1.968-1.174 2.607-0.399 0.71-0.853 1.389-1.356 2.038 0.054 1.038 0.347 2.073 0.91 3.023 0.347 0.587 0.262 1.163-0.046 1.604 0.465 0.469 0.956 0.887 1.457 1.234 2.225 1.545 4.821 2.511 7.402 3.281 2.916 0.87 6.145 1.924 9.212 1.497 1.42-0.198 1.834 1.811 0.443 2.18m-121.18 15.935c3.416 60.52-7.185 75.343-72.164 96.594 2.005-7.546 1.307-12.536-1.563-16.252-33.103 0.149-47.986-10.631-58.218-30.254 29.694 27.984 57.316 21.088 72.948 7.829 0.597 9.514 0.184 16.344-1.969 21.618 16.057-8.093 19.472-21.071 20.927-43.775 5.154 6.538 6.565 8.392 8.975 20.14 2.194-12.935-4.044-22.872-10.301-36.725 5.877 2.984 12.616 8.952 16.282 14.034-5.124-23.467-11.658-37.112-29.019-54.22 13.684 5.1 19.143 7.022 33.973 22.683-13.345-29.595-35.919-32.421-38.489-65.973 3.164 11.378 16.471 25.468 26.46 27.264-32.999-44.289-18.741-91.158-10.341-90.944-0.094 1.753 1.641 4.693 1.645 6.448 0.019 7.78-0.848 14.332 0.038 22.05 0.44 3.835 0.875 7.671 1.194 11.517 0.268 3.247 0.384 6.5 0.831 9.731 1.612 11.647 6.606 22.333 14.13 31.34 3.203 3.834 6.715 7.498 10.76 10.456 7.882 8.711 18.903 26.059 18.903 40.414z" style="fill:#980003"/></g></g></g><g transform="matrix(.35278 0 0 -.35278 151.31 178.25)"><path d="m0 0c-0.784 1.548-2.086 3.334-3.014 5.187-0.497 0.605-0.984 1.249-1.263 1.936-0.743 0.293-1.254 1.011-0.88 1.982 1.106 2.866 2.7 5.262 4.624 7.369 1.018 1.371 2.127 2.682 3.31 3.898 1.902 1.956 4.1 3.337 6.247 4.981 1.407 1.077 2.214 2.35 2.665 3.937-0.033 0.228-0.069 0.456-0.112 0.683-0.281 1.492-0.678 3.06-1.479 4.364-0.698 1.137-1.624 2.13-2.415 3.202-0.17 0.231-0.269 0.46-0.312 0.682-0.05 0.032-0.098 0.066-0.148 0.098-1.947 1.241-4.163 2.664-6.375 1.121-1.947-1.357-2.419-3.726-3.146-5.825-0.094-0.273-0.233-0.496-0.4-0.673-0.283-1.862-0.72-3.703-1.4-5.462-0.746-1.932-1.771-3.646-2.853-5.401-0.84-1.362-1.601-2.769-2.662-3.98-1.002-1.145-2.379-2.097-3.967-1.984-2.061 0.145-3.636 1.835-5.246 2.928-0.443 0.301-0.681 0.702-0.763 1.121-2.095 0.795-4.144 1.705-6.191 2.616-1.162 0.188-2.348 0.284-3.499 0.465-2.307 0.364-4.52 1.102-6.749 1.778-6.209 1.882-13.307 2.042-19.438-0.308-2.87-1.1-6.03-3.117-6.969-6.221-0.326-1.082-0.385-2.229-0.305-3.35 0.075-1.058 0.465-1.842 0.912-2.774 0.34-0.708 0.453-1.341 0.156-2.092-0.166-0.423-0.397-0.804-0.607-1.197 0.026-0.045 0.034-0.099 2e-3 -0.143-0.051-0.069-0.109-0.134-0.172-0.196-0.089-0.189-0.168-0.384-0.227-0.592-0.051-0.184-0.337-0.105-0.286 0.079 8e-3 0.026 0.017 0.051 0.025 0.077-0.028-0.026-0.057-0.051-0.083-0.079-0.409-0.433-0.809-0.878-1.21-1.319-0.804-0.881-1.57-1.801-2.321-2.727-1.458-1.798-2.756-3.725-3.886-5.746-0.991-1.772-1.812-3.63-2.67-5.469-0.89-1.907-1.655-3.827-2.23-5.851-0.176-0.622-0.476-1.221-0.597-1.857-0.075-0.397-0.046-0.804-0.084-1.204-6e-3 -0.058 0-0.205-0.031-0.259-0.012-0.022-0.019-0.039-0.024-0.054 0.069 0.022 0.142 0.052 0.195 0.063 0.574 0.117 1.179 0.115 1.76 0.211 0.436 0.072 0.894 0.171 1.336 0.101 1.105-0.173 1.487-1.416 1.666-2.364 0.321-1.688 0.027-3.52 0.909-5.068 1.486-2.61 5.274-2.849 6.602-5.557 0.945-0.929 1.386-2.164 1.294-3.543-0.23-3.442-2.661-6.683-4.781-9.24-0.954-1.15-1.965-2.276-3.077-3.276-1.892-1.701-4.383-2.558-6.333-4.185-0.044-0.037-0.093-0.041-0.138-0.029 0.226-1.208 1.136-2.237 2.009-3.057 1.045-0.982 2.24-1.813 3.482-2.529 2.743-1.58 5.816-2.625 8.926-3.186 1.615-0.292 3.232-0.358 4.858-0.529 0.711-0.075 1.424-0.21 2.096-0.46 4.21-0.09 8.344-0.692 12.563-0.322 0.283 0.285 0.688 0.466 1.218 0.45 5.024-0.152 9.88 2.442 14.334 4.463 2.575 1.17 5.234 2.223 8.018 2.778 2.727 0.544 5.472 0.31 8.224 0.505 2.096 0.148 3.975 0.75 5.674 1.671 0.153 0.309 0.392 0.589 0.688 0.817 0.719 0.554 1.392 1.152 2.033 1.781 2.412 6.774 5.067 13.472 6.468 20.535 0.297 6.549-0.06 13.108-0.695 19.63-0.949 2.25-2.142 4.4-3.256 6.599" style="fill:#a15a2c"/></g><g transform="matrix(.35278 0 0 -.35278 155.39 167.67)"><path d="m0 0c-0.281 1.492-0.678 3.06-1.478 4.364-0.698 1.137-1.624 2.129-2.415 3.202-0.17 0.231-0.27 0.46-0.313 0.682-0.049 0.032-0.098 0.066-0.148 0.097-1.947 1.242-4.163 2.665-6.375 1.122-1.946-1.357-2.418-3.727-3.145-5.826-0.095-0.273-0.233-0.495-0.401-0.672-0.283-1.862-0.72-3.703-1.4-5.463-0.746-1.931-1.771-3.645-2.853-5.4-0.84-1.362-1.6-2.769-2.661-3.98-1.002-1.145-2.38-2.097-3.968-1.985-2.06 0.146-3.635 1.836-5.246 2.929-0.443 0.3-0.68 0.702-0.762 1.121-2.095 0.795-4.145 1.704-6.192 2.615-1.162 0.189-2.348 0.285-3.498 0.466-2.307 0.364-4.521 1.102-6.749 1.778-6.21 1.882-13.308 2.041-19.439-0.308-2.87-1.1-6.03-3.117-6.968-6.222-0.327-1.081-0.386-2.228-0.306-3.35 0.075-1.058 0.465-1.841 0.912-2.773 0.233-0.484 0.355-0.934 0.317-1.41 2.229 0.891 4.775 1.141 7.1 1.271 4.382 0.244 8.731-0.135 13.016-1.083 13.048-2.888 25.78-11.099 29.07-24.771 1.746-7.257 0.492-14.729-1.477-21.806-1.514-5.44-3.498-10.735-5.262-16.096 2.703 0.525 5.424 0.299 8.152 0.492 2.096 0.148 3.976 0.75 5.675 1.671 0.152 0.309 0.391 0.589 0.687 0.817 0.719 0.553 1.393 1.152 2.033 1.781 2.412 6.774 5.067 13.472 6.468 20.535 0.297 6.549-0.06 13.108-0.695 19.63-0.949 2.25-2.141 4.399-3.256 6.599-0.784 1.548-2.085 3.333-3.013 5.187-0.498 0.605-0.984 1.249-1.264 1.935-0.743 0.294-1.254 1.012-0.88 1.983 1.106 2.866 2.7 5.262 4.624 7.369 1.018 1.371 2.128 2.681 3.31 3.898 1.902 1.956 4.101 3.337 6.247 4.98 1.407 1.078 2.214 2.351 2.666 3.938-0.034 0.228-0.07 0.456-0.113 0.683" style="fill:#513117"/></g><g transform="matrix(.35278 0 0 -.35278 132.05 169.42)"><path d="m0 0c-0.295-0.101-0.591-0.201-0.882-0.313-2.87-1.1-6.03-3.116-6.968-6.221-0.327-1.081-0.386-2.229-0.306-3.35 0.075-1.058 0.465-1.841 0.913-2.774 0.232-0.484 0.354-0.933 0.316-1.409 0.097 0.039 0.198 0.07 0.297 0.107 0.79 5.186 3.189 10.002 6.63 13.96" style="fill:#6b3d17"/></g><g transform="matrix(.35278 0 0 -.35278 132.77 169.63)"><path d="m0 0c-3.313-3.588-5.694-7.996-6.61-12.775 1.581 0.344 3.22 0.488 4.764 0.574 2.552 0.142 5.091 0.067 7.615-0.203-2.647 3.821-4.821 7.97-5.769 12.404" style="fill:#6b3d17"/></g><g transform="matrix(.35278 0 0 -.35278 139.56 169.71)"><path d="m0 0c-0.91 0.266-1.815 0.551-2.722 0.826-4.724 1.432-9.96 1.859-14.894 0.951 0.698-4.506 2.84-8.74 5.503-12.619 2.52 4.871 7.01 8.457 12.113 10.842" style="fill:#6b3d17"/></g><g transform="matrix(.35278 0 0 -.35278 140.24 170.13)"><path d="m0 0c-5.478-2.327-10.375-6.074-12.746-11.337 0.911-0.149 1.82-0.317 2.725-0.518 3.797-0.84 7.565-2.135 11.084-3.88 1.389 5.271 1.521 10.983-1.063 15.735" style="fill:#6b3d17"/></g><g transform="matrix(.35278 0 0 -.35278 152.4 180.94)"><path d="m0 0c0.077 0.053 0.161 0.092 0.253 0.113-0.029 0.308-0.055 0.616-0.085 0.923-0.949 2.25-2.142 4.4-3.256 6.599-0.784 1.548-2.086 3.334-3.014 5.187-0.497 0.605-0.984 1.249-1.263 1.936-0.041 0.015-0.081 0.034-0.12 0.052-0.881-3.461-2.847-6.58-5.166-9.297-1.229-1.44-2.591-2.799-4.061-4.035 5.404-1.652 11.057-1.834 16.712-1.478" style="fill:#6b3d17"/></g><g transform="matrix(.35278 0 0 -.35278 147.25 185.57)"><path d="m0 0c1.502 0.883 2.981 1.807 4.422 2.794 2.104 1.441 4.101 3.022 6.05 4.665 1.26 1.061 2.618 2.226 3.336 3.719-5.652-0.306-11.294-0.049-16.686 1.656 0.868-1.781 1.564-3.68 2.049-5.699 0.569-2.363 0.818-4.748 0.829-7.135" style="fill:#6b3d17"/></g><g transform="matrix(.35278 0 0 -.35278 148.87 188.27)"><path d="m0 0c2.15-2.215 4.833-3.869 7.754-4.859 0.402-0.137 0.809-0.26 1.216-0.377 0.748 2.44 1.407 4.905 1.905 7.417 0.229 5.035 0.066 10.076-0.308 15.102-0.702-1.119-1.678-2.09-2.659-2.956-1.858-1.642-3.822-3.196-5.834-4.644-2.097-1.508-4.282-2.874-6.517-4.157 1.612-1.722 2.795-3.829 4.443-5.526" style="fill:#6b3d17"/></g><g transform="matrix(.35278 0 0 -.35278 147.51 193.06)"><path d="m0 0c2.545 0.926 5.01 2.031 7.362 3.375 1.62 0.925 3.372 1.849 4.658 3.226-0.593 0.177-1.181 0.368-1.763 0.59-2.846 1.088-5.463 2.735-7.619 4.896-1.375 1.378-2.424 3.043-3.634 4.561-0.376-3.402-1.13-6.782-2.046-10.075-0.787-2.829-1.703-5.619-2.647-8.4 1.914 0.552 3.815 1.145 5.689 1.827" style="fill:#6b3d17"/></g><g transform="matrix(.35278 0 0 -.35278 145.6 196.31)"><path d="m0 0c1.754 0.091 3.514 0.044 5.277 0.168 2.096 0.148 3.975 0.75 5.674 1.671 0.153 0.309 0.392 0.589 0.688 0.817 0.719 0.554 1.392 1.152 2.033 1.781 0.978 2.747 1.995 5.481 2.953 8.232-0.694-0.476-1.42-0.913-2.151-1.333-2.267-1.304-4.598-2.446-7.033-3.406-2.761-1.09-5.595-1.958-8.453-2.754-0.451-1.317-0.901-2.634-1.344-3.952 0.776-0.429 1.562-0.836 2.356-1.224" style="fill:#6b3d17"/></g><g transform="matrix(.35278 0 0 -.35278 148.93 174.57)"><path d="m0 0c-2.199 1.38-3.994 3.287-6.062 4.847-5.324-2.59-10.259-5.843-15.066-9.295 4.908-2.836 9.177-6.627 12.124-11.383 1.528 1.19 2.945 2.525 4.238 3.956 2.725 3.017 5.188 6.78 5.623 10.914 0.016 0.149 0.06 0.279 0.125 0.39-0.333 0.182-0.661 0.369-0.982 0.571" style="fill:#6b3d17"/></g><g transform="matrix(.35278 0 0 -.35278 141.08 170.32)"><path d="m0 0c1.936-4.464 1.891-9.556 0.807-14.396 4.282 3.051 8.676 5.929 13.363 8.307-1.374 0.511-2.548 1.602-3.724 2.447-3.456 1.285-7.045 2.313-10.446 3.642" style="fill:#6b3d17"/></g><g transform="matrix(.35278 0 0 -.35278 -971.37 457.91)"><g clip-path="url(#clipPath3962)" style="opacity:.25"><g transform="translate(3194 822.71)"><path d="m0 0c-0.281 1.492-0.678 3.06-1.478 4.364-0.316 0.514-0.679 0.998-1.054 1.474-0.033 0.025-0.066 0.05-0.098 0.075 0.063-1.102-0.019-2.255-0.401-3.233-1.095-2.808-3.522-4.806-5.686-6.782-1.234-1.127-2.475-2.25-3.647-3.444-1.122-1.143-2.116-2.382-3.146-3.604-1.634-1.937-3.312-3.929-4.349-6.246 0.43-0.416 0.856-0.816 1.225-1.299 0.597-0.782 1.141-1.488 1.95-2.053 1.104 2.812 2.677 5.172 4.574 7.249 1.018 1.371 2.128 2.681 3.31 3.898 1.902 1.956 4.101 3.337 6.247 4.98 1.407 1.078 2.214 2.351 2.666 3.938-0.034 0.228-0.07 0.456-0.113 0.683" style="fill:#3a000f"/></g><g transform="translate(3180 779.64)"><path d="m0 0c-3.142-1.329-6.716-2.155-9.702-0.416-2.621-5.239-6.068-9.713-11.125-12.877-7.643-4.781-16.682-8.354-25.567-9.893-4.611-0.798-10.07-0.969-14.236 0.98-0.916-2.35-2.585-4.527-4.1-6.355-0.954-1.149-1.965-2.275-3.077-3.275-1.892-1.702-4.383-2.559-6.333-4.185-0.044-0.037-0.093-0.041-0.138-0.03 0.226-1.208 1.136-2.237 2.009-3.056 1.045-0.983 2.24-1.814 3.482-2.529 2.743-1.58 5.816-2.625 8.926-3.187 1.615-0.292 3.232-0.357 4.858-0.528 0.711-0.075 1.424-0.211 2.096-0.461 4.21-0.09 8.344-0.692 12.563-0.322 0.283 0.286 0.688 0.467 1.219 0.451 5.023-0.153 9.879 2.441 14.333 4.463 2.575 1.169 5.234 2.223 8.018 2.778 2.727 0.543 5.472 0.31 8.224 0.505 2.096 0.148 3.976 0.749 5.675 1.671 0.152 0.309 0.391 0.588 0.687 0.816 0.719 0.554 1.392 1.153 2.033 1.782 2.412 6.774 5.067 13.472 6.468 20.535 0.249 5.49 0.035 10.989-0.414 16.466-1.812-1.346-3.807-2.448-5.899-3.333" style="fill:#3a000f"/></g></g></g><g transform="matrix(.35278 0 0 -.35278 114.86 163.04)"><path d="M 0,0 C -3.216,13.835 15.51,21.982 22.516,11.58 12.595,17.179 1.752,10.048 0,0" style="fill:#bc3500"/></g><g transform="matrix(.35278 0 0 -.35278 130.82 156.42)"><path d="M 0,0 C 1.397,10.602 15.98,15.229 20.232,5.307 12.407,10.78 7.172,7.952 0,0" style="fill:#bc3500"/></g><g transform="matrix(.35278 0 0 -.35278 110.33 151.59)"><path d="m0 0c1.165 3.603 5.969 8.948 10.294 10.683-3.467 8.597-10.447 10.748-14.455 29.81-0.468-2.925-1.235-5.793-1.754-8.718-0.564-3.177-0.609-6.469-0.356-9.704 1.048-6.46 3.664-16.026 6.271-22.071" style="fill:#f2b24c"/></g><g transform="matrix(.35278 0 0 -.35278 131.61 143.25)"><path d="m0 0c6.017-0.35 9.09-0.869 14.471-5.478-0.161 2.448-1.972 10.871-2.409 12.427-0.697 2.482-1.61 4.903-2.551 7.302-0.861 2.193-1.698 4.336-3.156 6.22-0.658 0.851-5.826 10.963-6.851 10.4 5.672-19.43-1.746-22.025 0.496-30.871" style="fill:#f2b24c"/></g><g transform="matrix(.35278 0 0 -.35278 154.09 169.02)"><path d="m0 0c-5.896-2.468-10.66-8.52-13.888-15.416-1.355 1.418-2.831 2.824-4.435 4.221 2.718 2.996 9.609 11.492 10.084 21.022 0.092 1.858 1.785 3.264 3.609 2.893 3.861-0.777 6.427-4.233 7.084-8.44 0.285-1.818-0.755-3.571-2.454-4.28m-8.812-65.299c-1.245-4.2-4.076-7.793-7.955-9.836-2.759-1.457-7.517 0.338-7.517 0.338 26.945 61.069-35.23 64.133-43.639 60.383-6.109 8.751 6.618 19.092 30.525 10.143 1.293-0.481 2.614-1.021 3.971-1.62 4.185-1.848 8.667-4.266 13.417-7.348 15.291-13.906 19.015-25.659 11.198-52.06m-52.971-18.335c-1.233 0.033-2.468 0.098-3.704 0.193-2.979 0.231-5.958 0.638-8.875 1.231-0.134 0.027-0.268 0.056-0.398 0.089-0.475 0.11-0.939 0.246-1.393 0.409-3.169 1.118-5.768 3.397-7.283 6.319 6.894 2.868 11.801 8.436 13.993 16.674 0.569 4.189-1.89 6.37-6.133 8.053-1.335 0.529-2.166 1.888-1.989 3.312 0.424 3.407-0.062 8.747-5.202 6.412 2.728 10.467 7.795 20.078 16.041 25.081 17.943 4.126 58.822-5.331 43.306-51.164h-6e-3c-3.3-11.201-20.414-17.116-38.357-16.609m-33.656-35.303c9.071-1.878 13.802-3.248 15.816-6.07-0.752 0.487-1.6 0.863-2.423 1.123-1.707 0.539-3.494 0.85-5.266 1.084-1.756 0.231-3.51 0.626-5.139-0.145-0.065-0.031-0.065-0.123-8e-3 -0.161 1.199-0.796 2.341-0.827 3.758-1.126 1.473-0.311 2.934-0.698 4.375-1.137 2.35-0.718 4.439-1.83 5.916-3.765 0.028-0.964-0.046-2.037-0.211-3.249-8.905-1.513-26.106 1.246-33.632 3.473-1.087 2.16-2.56 4.355-4.34 6.384-1.779 2.029-3.87 3.892-6.199 5.387 17.561 0.946 38.839 12.358 47.34 33.217 0.065-0.015 0.13-0.026 0.196-0.038 3.19-0.558 6.332-1.555 9.412-1.792-3.279-14.965-11.839-29.975-29.595-33.185m-19.211-16.458c-0.748 0.843-1.772 1.511-2.695 2.118-0.692 0.455-1.409 0.862-2.144 1.235-1.702 1.221-3.669 2.025-5.618 2.771-2.446 0.936-4.966 1.667-7.533 2.194-2.02 0.415-4.245 0.899-6.263 0.555-0.179-0.03-0.236-0.181-0.208-0.323-0.087-0.02-0.115-0.147-9e-3 -0.172 0.041-9e-3 0.082-0.019 0.123-0.029 0.024-0.019 0.051-0.036 0.08-0.048 1.747-0.678 3.706-0.906 5.58-1.284 3.041-0.75 6.062-1.622 8.868-2.906 1.97-0.901 3.806-2.124 5.462-3.515 0.902-0.757 1.7-1.719 2.618-2.475-1.17-0.819-2.619-1.255-4.015-1.241-28.813 0.822-33.078 3.34-57.027 4.746-24.137 1-34.482 2.729-34.847 19.836 0 0 0 2.184 0.059 3.604 0.128 2.617 0.434 5.53 0.915 8.787 1.01 6.876 1.533 13.817 1.45 20.767-0.262 22.233 6.792 40.791 22.621 57.652 11.78 11.48 27.222 14.037 64.047 25.677 3.611-18.914 16.748-29.53 42.346-32.117-1.681-3.859-2.963-8.118-3.906-12.498-9.289-6.068-17.906 0.383-22.571 3.495-2.189 3.441-2.506 10.071-2.759 12.148-0.131 2.948-1.862 3.491-2.471 1.572-0.823-3.177-0.155-6.805 0.484-10.116-4.628 3.987-8.917 9.238-12.416 16.303 2.094-17.108 15.697-23.442 27.351-27.427 4.015-1.373 8.461-0.877 11.994 1.473 3.681 2.45 5.849 1.979 4.988-1.645-0.594-2.505 0.753-5.049 3.11-6.091 2.297-1.016 4.574-2.457 4.76-4.243-3.474-0.723-7.06-1.082-10.607-0.972-1.726 0.054-3.448 0.215-5.154 0.481-0.897 0.14-1.782 0.375-2.679 0.502-1.035 0.148-1.574-0.064-2.561-0.216-0.352-0.054-0.421-0.487-0.171-0.699 0.777-0.657 1.144-1.108 2.174-1.435 0.869-0.277 1.816-0.403 2.714-0.552 1.883-0.312 3.788-0.493 5.696-0.545 3.771-0.102 7.463 0.324 11.113 1.26 0.019-0.454-9e-3 -0.93-0.089-1.435-1.075-2.663-2.432-4.936-4.026-6.858-1.637 0.429-3.792-0.111-5.409-0.18-2.3-0.098-4.609-0.129-6.908 2e-3 -2.13 0.122-4.266 0.292-6.37 0.653-1.884 0.323-4.204 1.331-6.106 0.984-0.322-0.059-0.539-0.408-0.324-0.703 1.106-1.519 3.471-2.058 5.206-2.515 2.445-0.643 4.948-1.043 7.473-1.183 2.15-0.119 4.304-0.131 6.457-0.062 1.047 0.033 2.094 0.086 3.139 0.149-1.689-1.403-3.562-2.521-5.592-3.371-0.577-0.24-1.162-0.46-1.762-0.656-22.853-3.732-49.851 13.202-74.252 27.448 29.366-25.585 57.684-35.32 75.001-29.596 1.574-3.556 4.633-6.318 8.423-7.478-11.919-28.578-41.232-30.874-44.995-30.39 15.682 27.474-12.31 61.087-53.723 50.384 47.679 2.335 61.733-25.611 46.268-55.362 5.288-3.205 11.806-6.168 13.581-8.768-1.253 0.934-2.75 1.627-4.093 2.161-1.37 0.545-2.801 0.96-4.238 1.284-1.649 0.373-3.082 0.329-4.725 0.367-0.114 2e-3 -0.102-0.155-0.011-0.184 1.423-0.455 2.848-1.097 4.273-1.59 1.322-0.458 2.611-1.006 3.858-1.64 2.348-1.196 4.271-3.123 6.631-4.218 0.279-1.507 0.017-2.811-0.586-3.87m-100.46 33.945c-0.353-3.058-0.603-5.906-0.706-8.549-56.909 5.579-75.083 27.203-77.42 59.876-1.212 16.939 3.535 33.896 10.788 49.255 11.906 25.21 24.802 40.998-7.85 33.827 4.919 12.094 10.123 18.333 33.157 17.81-13.428 15.894-31.271 13.862-46.615 5.328 6.939 28.466 25.146 40.114 60.218 37.202 0 0 4.025 9.682 2.13 15.852 63.747-19.276 72.619-41.281 61.291-102.68 13.499 8.311 17.236 16.41 17.847 21.444 0.96-16.099-4.089-24.497-11.182-37.184-5.967-2.809-11.635-6.668-17.049-12.666-20.869-21.05-24.588-40.124-23.833-60.716 0.228-6.277-0.06-12.557-0.776-18.798m91.141 201.88c1.56-11.421 4.565-22.787 11.337-32.287 3.071-4.307 8.915-5.461 13.536-2.88 6.985 3.902 16.274 5.051 22.876 4.816 4.52-0.162 8.167 3.609 7.843 8.114-0.949 13.176-3.445 25.009-8.811 35.078 18.597-10.89 23.605-29.415 25.459-41.397 1.096-7.077 3.355-13.918 6.7-20.252 7.853-14.868 13.206-35.18 8.524-52.909-10.93 3.473-21.424 2.928-28.229-0.027l-0.499 1.848c3.104 2.287 7.248 6.36 9.024 10.996 0.119 0.312-0.315 0.528-0.49 0.244-2.344-3.791-5.204-6.856-10.307-10.273-4.999-1.43-11.013-0.374-15.085 1.026-0.595 0.205-1.004-0.599-0.494-0.958 4.034-2.83 6.945-2.729 14.29-2.397l0.47-2.168c-2.617-1.774-4.263-4.04-4.593-6.621-5.557-3.091-13.389-2.515-16.357 2.667-0.157 0.276-0.54 0.317-0.751 0.077-0.14-0.16-0.137-0.383-0.036-0.567 3.808-6.953 10.539-6.591 17.135-4.081 0.17-1.437 0.731-2.95 1.739-4.514-1e-3 -1e-3 -1e-3 -2e-3 -1e-3 -2e-3 -3.517-2.461-6.359-6.062-8.625-10.346-27.884-0.692-47.719 15.512-40.927 62.969 0.804 5.616-0.104 11.346-2.632 16.427-6.836 13.74-8.029 30.553-1.096 47.417m128.71-96.019c-0.675 4.114-3.642 9.537-9.508 10.246-2.685 0.323-5.136-1.54-5.65-4.195-1.642-8.504-5.075-15.22-10.553-19.595-3.712 2.681-7.567 4.775-11.414 6.351 4.688 15.565 2.195 33.187-10.772 60.223-1.627 3.392-2.895 6.944-3.756 10.604-5.914 25.152-8.796 37.641-35.918 52.704 7.356-14.91 9.582-32.016 10.255-41.358 0.255-3.543-2.679-6.475-6.23-6.28-6.522 0.359-12.903-0.575-19.226-4.618-2.858-1.826-6.623-1.307-8.806 1.286-10.516 12.497-15.886 34.364-15.815 42.492-9.654-21.394-14.858-39.099-3.08-62.71 1.958-3.925 2.648-8.362 2.037-12.704-1.528-10.866-0.99-20.827-0.243-28.883l-9e-3 0.056c-14.346-7.561-27.243-9.685-39.005-13.325 6.125 15.084 5.923 25.036 2.017 41.372l-11.536-18.807c3.415 60.52-7.185 75.343-72.164 96.594 2.004-7.546 1.306-12.535-1.563-16.252-41.44 0.187-54.328-16.752-65.282-46.73 16.784 5.518 32.265 13.459 46.499 2.611-16.078 3.144-21.764-1.857-30.226-23.8 49.609 12.447 3.125-12.737-2.685-69.7-3.002-36.409 11.552-72.386 82.168-76.435 1.156-14.325 9.556-20.786 36.213-20.29l59.615-5.281c9.704-0.753 9.107 8.879 9.107 8.879s34.722-4.722 35.037-0.433c0.101 7.612-3.443 14.44-9.701 14.93 14.174 6.075 20.797 16.137 23.132 31.491 19.194-1.531 35.5 9.11 35.5 9.11 3.743-2.136 7.132-1.605 11.139 0.275 3.721 1.745 6.733 4.687 8.771 8.253 7.155 12.521 11.666 32.761-5.006 51.938 3.28 8.17 8.178 13.002 14.005 16.473 1.916 1.141 3.012 3.31 2.653 5.508" style="fill:#721500"/></g><g transform="matrix(.35278 0 0 -.35278 118.75 166.93)"><path d="M 0,0 C -2.358,5.279 -2.954,13.105 3.985,16.489 9.871,18.864 15.475,13.137 17.038,7.273 17.642,1.647 2.679,-4.597 0,0" style="fill:#601b00"/></g><g transform="matrix(.35278 0 0 -.35278 132.04 161.67)"><path d="m0 0c2.103-4.741 14.86-0.455 14.839 4.322-1.326 8.113-5.221 11.358-10.717 10.372-6.24-1.319-6.655-8.288-4.122-14.694" style="fill:#601b00"/></g><g transform="matrix(.35278 0 0 -.35278 135.9 158.29)"><path d="m0 0c0-1.705-1.384-3.087-3.092-3.087-1.707 0-3.091 1.382-3.091 3.087s1.384 3.087 3.091 3.087c1.708 0 3.092-1.382 3.092-3.087" style="fill:#fff"/></g><g transform="matrix(.35278 0 0 -.35278 123.29 163.04)"><path d="m0 0c0-1.894-1.538-3.431-3.435-3.431s-3.435 1.537-3.435 3.431c0 1.895 1.538 3.431 3.435 3.431s3.435-1.536 3.435-3.431" style="fill:#fff"/></g><g transform="matrix(.35278 0 0 -.35278 -971.37 457.91)"><g clip-path="url(#clipPath4018)" style="opacity:.42"><g transform="translate(3129.3 881.04)"><path d="m0 0c-0.047 7e-3 -0.094 0.017-0.142 0.023 0.054 0.052 0.105 0.105 0.158 0.157-6e-3 -0.06-0.01-0.12-0.016-0.18m26.027-24.896c-1.495 3.085-1.21 7.121 0.216 10.123 0.619 1.302 1.464 2.491 2.48 3.495 2.344 5.232-1.07 11.081-6.896 16.036-0.312 0.266-0.627 0.522-0.942 0.773 0.85 1.475 1.203 3.238 1.277 5.143-0.397 0.051-0.795 0.094-1.195 0.126-2.932 0.235-5.944 0.033-8.868-0.221-5.459-0.475-10.859-1.46-16.242-2.462-4.373-0.813-8.746-1.632-13.094-2.573-8.676-1.878-17.34-4.267-25.292-8.288-7.999-4.044-15.654-9.949-20.401-17.658-1.948-3.164-3.382-6.579-4.405-10.124 2.171-0.382 4.507-0.798 4.597-3.438 0.068-1.98-0.361-4.04-0.848-6.008-0.03-0.76-0.077-1.518-0.116-2.276 0.034-0.544 0.062-1.088 0.064-1.631 0.663-0.917 1.416-1.767 2.262-2.519 5.316 7.03 13.168 15.003 6.135 22.366 2.746 0.962 5.06 2.347 6.284 3.868 0.138 0.172 0.271 0.352 0.4 0.538 3.888-7.796 12.929-4.006 20.403-1.948-1.515 4.153-5.119 7.498-8.982 9.037 1.64 1.191 3.212 2.756 4.732 4.309-0.057-3.696 2.139-5.897 5.186-7.432 0.129-1.398 0.456-2.778 1.012-4.066 1.32 0.7 2.733 1.392 4.122 2.119 1.562-0.477 3.147-0.909 4.633-1.368 0.316 1.417 0.377 2.887 0.222 4.332 2.704 2.077 4.449 4.648 3.7 8.268 1.784-1.242 3.621-2.486 5.456-3.35-3.507-2.233-6.421-6.192-7.132-10.555 7.727-0.626 17.319-2.66 19.679 5.724 0.161-0.159 0.326-0.311 0.493-0.454 1.426-1.213 3.813-2.114 6.543-2.568-4.875-7.597 3.312-13.26 9.13-18.521 2.674 3.474 3.577 8.251 2.842 12.31 0.795-0.414 1.652-0.777 2.545-1.107" style="fill:#980003"/></g></g></g><g transform="matrix(.35278 0 0 -.35278 122.94 146.09)"><path d="M 0,0 C 2.512,6.364 10.972,2.669 12.729,-3.185 7.759,-4.247 1.613,-6.474 0,0" style="fill:#059b57"/></g><g transform="matrix(.35278 0 0 -.35278 126.18 146.3)"><path d="m0 0c0.039 0.011 0.075 0.027 0.117 0.034 0.443 0.078 0.953 0.019 1.398-0.031 0.266-0.03 0.539-0.064 0.813-0.1 0.221-0.316 0.428-0.639 0.607-0.979-0.914 0.465-1.945 0.803-2.935 1.076m1.834-2.958c-0.567 0.259-1.109 0.516-1.623 0.955-0.378 0.323-0.666 0.706-0.958 1.086 1.39-0.543 2.729-1.228 4.124-1.689-0.505-0.111-1.022-0.231-1.543-0.352m-2.31-0.504c-0.177 0.097-0.371 0.174-0.568 0.29-0.623 0.363-1.11 0.873-1.561 1.429-0.403 0.498-0.663 1.045-0.94 1.618 0.363-0.062 0.726-0.136 1.087-0.228 0.37-0.094 0.733-0.211 1.093-0.337 0.273-1.024 1.176-1.965 2.192-2.497-0.435-0.098-0.87-0.192-1.303-0.275m-1.137-0.191c-0.935-0.135-1.847-0.2-2.699-0.132-0.227 0.198-0.495 0.332-0.75 0.565-0.372 0.339-0.717 0.775-0.988 1.196-0.475 0.739-0.629 1.49-0.844 2.268 0.855-0.077 1.713-0.146 2.566-0.257-0.21-1.245 1.298-2.897 2.715-3.64m-5.209 1.434c0.23-0.392 0.561-0.855 0.95-1.256-1.5 0.517-2.682 1.693-3.279 3.994 0.521-0.091 1.044-0.155 1.568-0.209-0.027-0.885 0.316-1.77 0.761-2.529m3.334 6.06c-0.479-0.129-0.928-0.306-1.263-0.469-0.93-0.453-1.964-1.215-2.446-2.178-0.586 0.01-1.169-6e-3 -1.745-0.055 1.17 2.377 3.28 3.094 5.454 2.702m1.508-0.445c0.642-0.26 1.267-0.615 1.862-1.035-1.319-0.1-2.807-0.698-3.53-1.526-1.09 0.189-2.199 0.322-3.304 0.353 0.779 0.782 1.489 1.443 2.587 1.855 0.805 0.302 1.586 0.278 2.385 0.353m3.824-2.854c-0.331 0.046-0.677 0.068-1.053 0.064-0.456-6e-3 -1.068-0.099-1.415-0.439-0.332 0.085-0.657 0.166-0.965 0.242-0.499 0.124-1.01 0.233-1.526 0.333 0.668 0.472 1.392 0.807 2.264 0.939 0.533 0.081 1.06 0.041 1.586 0.011 0.398-0.35 0.767-0.738 1.109-1.15m-12.259 0.171c2.096-8.425 10.096-5.526 16.559-4.143-2.287 7.612-13.294 12.421-16.559 4.143" style="fill:#02662f"/></g><g transform="matrix(.35278 0 0 -.35278 121.56 147.59)"><path d="M 0,0 C 6.202,5.053 12.712,-3.541 11.153,-10.511 5.479,-8.758 -2.061,-7.519 0,0" style="fill:#059b57"/></g><g transform="matrix(.35278 0 0 -.35278 124.74 149.66)"><path d="m0 0c0.046-0.01 0.093-0.015 0.138-0.031 0.497-0.174 0.983-0.526 1.408-0.831 0.254-0.182 0.513-0.372 0.772-0.566 0.044-0.447 0.071-0.895 0.058-1.344-0.665 0.996-1.523 1.928-2.376 2.772m0.177-4.062c-0.43 0.587-0.835 1.159-1.108 1.901-0.2 0.543-0.275 1.099-0.355 1.652 1.106-1.346 2.079-2.808 3.236-4.075-0.577 0.176-1.173 0.348-1.773 0.522m-2.644 0.805c-0.124 0.199-0.277 0.389-0.413 0.619-0.427 0.727-0.631 1.524-0.773 2.348-0.125 0.737-0.077 1.444-0.032 2.186 0.335-0.271 0.662-0.554 0.978-0.853 0.324-0.307 0.626-0.633 0.921-0.967-0.308-1.2 0.074-2.674 0.805-3.797-0.498 0.149-0.996 0.301-1.486 0.464m-1.267 0.454c-1.031 0.397-1.998 0.85-2.827 1.405-0.118 0.333-0.314 0.622-0.441 1.004-0.185 0.558-0.288 1.2-0.323 1.783-0.061 1.026 0.212 1.879 0.437 2.794 0.829-0.566 1.662-1.126 2.469-1.727-0.926-1.148-0.334-3.693 0.685-5.259m-4.489 4.434c0.01-0.53 0.082-1.191 0.249-1.821-1.232 1.382-1.766 3.256-1.057 5.942 0.479-0.39 0.976-0.754 1.479-1.108-0.534-0.887-0.691-1.984-0.671-3.013m6.866 4.275c-0.562 0.142-1.122 0.218-1.556 0.243-1.208 0.069-2.697-0.118-3.74-0.824-0.591 0.344-1.195 0.661-1.81 0.939 2.552 1.756 5.114 1.283 7.106-0.358m1.283-1.314c0.504-0.632 0.939-1.351 1.304-2.118-1.401 0.65-3.26 0.89-4.47 0.46-1.003 0.814-2.058 1.583-3.166 2.245 1.24 0.352 2.342 0.621 3.698 0.414 0.993-0.152 1.776-0.622 2.634-1.001m2.264-5.093c-0.311 0.236-0.652 0.456-1.037 0.667-0.467 0.255-1.145 0.508-1.694 0.36-0.289 0.277-0.574 0.544-0.844 0.798-0.438 0.411-0.897 0.814-1.365 1.21 0.951 0.1 1.88 0.028 2.845-0.335 0.589-0.221 1.103-0.563 1.622-0.894 0.205-0.584 0.36-1.19 0.473-1.806m-12.398 7.172c-2.685-9.784 7.129-11.395 14.509-13.673 2.024 9.064-6.444 20.247-14.509 13.673" style="fill:#02662f"/></g><g transform="matrix(.35278 0 0 -.35278 117.94 147.79)"><path d="M 0,0 C -6.471,4.703 -12.496,-4.237 -10.554,-11.111 -4.986,-9.047 2.474,-7.394 0,0" style="fill:#059b57"/></g><g transform="matrix(.35278 0 0 -.35278 114.1 151.05)"><path d="m0 0c-0.037 0.447-0.035 0.896-0.016 1.344 0.248 0.208 0.496 0.413 0.739 0.609 0.408 0.328 0.874 0.706 1.36 0.906 0.045 0.019 0.091 0.027 0.136 0.04-0.804-0.89-1.61-1.868-2.219-2.899m0.526-1.786c1.085 1.329 1.976 2.842 3.006 4.248-0.05-0.558-0.094-1.116-0.263-1.67-0.231-0.755-0.605-1.349-1.002-1.959-0.589-0.207-1.175-0.412-1.741-0.619m2.879 1.024c0.668 1.161 0.967 2.653 0.594 3.835 0.276 0.349 0.559 0.692 0.866 1.016 0.299 0.317 0.61 0.617 0.929 0.906 0.087-0.738 0.173-1.441 0.088-2.184-0.095-0.831-0.255-1.638-0.641-2.388-0.123-0.237-0.265-0.434-0.379-0.64-0.479-0.19-0.967-0.369-1.457-0.545m3.091 6.357c0.772 0.644 1.574 1.249 2.369 1.861 0.276-0.902 0.596-1.739 0.592-2.766-3e-3 -0.585-0.07-1.231-0.224-1.799-0.106-0.388-0.285-0.688-0.385-1.026-0.797-0.6-1.738-1.106-2.745-1.559 0.931 1.62 1.381 4.193 0.393 5.289m3.007 2.357c0.483 0.381 0.959 0.772 1.415 1.188 0.857-2.643 0.428-4.543-0.726-5.992 0.132 0.639 0.167 1.303 0.148 1.833-0.037 1.028-0.254 2.115-0.837 2.971m0.82 1.668c-0.599-0.312-1.184-0.661-1.755-1.037-1.08 0.647-2.578 0.752-3.78 0.616-0.432-0.049-0.987-0.156-1.541-0.329 1.899 1.749 4.431 2.362 7.076 0.75m-5.709-0.988c1.342 0.282 2.457 0.074 3.716-0.209-1.07-0.723-2.081-1.548-3.038-2.417-1.232 0.363-3.075 0.021-4.438-0.705 0.323 0.786 0.717 1.528 1.186 2.187 0.835 0.425 1.591 0.939 2.574 1.144m-4.182-4.525c0.5 0.359 0.995 0.728 1.571 0.983 0.944 0.415 1.867 0.538 2.822 0.49-0.445-0.421-0.881-0.848-1.296-1.283-0.255-0.268-0.525-0.551-0.799-0.843-0.556 0.118-1.218-0.173-1.671-0.453-0.373-0.232-0.701-0.47-0.998-0.723 0.078 0.62 0.199 1.235 0.371 1.829m-2.119-8.438c7.242 2.682 16.951 4.832 13.73 14.453-8.416 6.12-16.253-5.514-13.73-14.453" style="fill:#02662f"/></g><g transform="matrix(.35278 0 0 -.35278 114.36 144.24)"><path d="M 0,0 C 0.183,8.966 15.938,15.765 23.701,10.993 29.073,4.802 28.832,-2.099 18.055,-10.333 7.554,-10.686 2.83,-6.145 0,0" style="fill:#ff99db"/></g><g transform="matrix(.35278 0 0 -.35278 115.32 145.18)"><path d="m0 0c3.493-6.598 7.338-8.424 15.873-7.495 1.762 1.051 2.856 2.278 3.369 3.657-7.35-2.984-12.347-2.735-19.242 3.838m12.141 3.576c-3.774-1.609-10.922-1.262-14.187 0.731 0 0 0.095-2.608 0.227-2.675 3.756-1.892 13.934-0.533 13.96 1.944m7.485-4.363c-4.952-1.258-10.709-1.449-15.748 0.77l-1.145-0.225c5.7-3.112 11.786-3.275 18.064-1.982 3.484 3.336 3.988 7.047 2.17 11.048 0.305-3.972-0.726-7.276-3.341-9.611m-11.377 4.773-2.697 3.235c-1.486-0.645-2.804 0.071-3.85 2.557l-1.394-1.207c2.005-3.882 4.652-5.411 7.941-4.585m5.873 2.233c1.481 0.917 2.558 1.924 2.839 3.105 0.459-1.028 1.44-3.205 1.543-3.268 0.135-0.084 4.372 4.968 4.372 4.968l-2.849 2.733c0.223-0.887-1.027-2.306-2.997-3.691-0.019 0.39-0.117 0.798-0.318 1.228-0.414 1.273-11.311-1.352-11.459-2.505 2.289-0.142 4.795 0.094 7.673 0.975 0.855-0.966 1.216-2.166 1.196-3.545" style="fill:#f761cc"/></g><g transform="matrix(.35278 0 0 -.35278 122.6 145.78)"><path d="m0 0c-6.285-0.987-12.677-1.222-17.184 1.435 9.462-1.054 16.903 6.023 19.1 10.073 0.15-0.313 0.285-0.645 0.403-0.995 1.098-3.258-0.134-7.338-2.319-10.513m-21.081 2.316c0.505-0.173 1.003-0.314 1.498-0.44 5.69-4.282 12.277-4.068 18.894-2.807-1.473-1.854-3.26-3.291-5.033-3.887-3.775-1.268-12.44 2.474-15.359 7.134m0.763 7.279c0.808-4.544 5.384-5.321 11.811-4.331-3.094-1.196-4.328-2.383-13.54-0.774-0.046 2.124 0.122 2.993 1.729 5.105m14.326-1.072-0.56 3.542c-11.369-3.157-11.266-0.171-0.815 1.658 3.605 0.442 4.656-2.261 1.375-5.2m-3.899-2.444c-0.519-0.016-1.028-0.022-1.525-0.014l-3.781 3.825c1.288-0.178 4.954 0.13 7.587 1.232l0.587-3.231c-0.779-0.618-1.733-1.232-2.868-1.812m6.434 4.081c0.124-0.73 0.262-1.562 0.332-2.052-0.856-0.625-1.844-1.231-3.014-1.81-0.645-0.048-1.287-0.095-1.923-0.134 2.603 1.3 4.023 2.712 4.605 3.996m-15.728 0.736c1.689 1.657 4.073 2.994 6.843 3.926 5.589 1.879 10.929 1.502 13.555-2.134-0.959-1.388-1.32-1.995-2.914-3.288l-0.865 3.362c-0.628 2.149-2.202 2.465-5.17 2.056-6.4-1.326-10.052-3.855-8.996-4.701l3.177-3.81c-3.694 0.171-5.158 1.014-5.63 4.589m6.401 5.236c-7.758-2.609-13.162-7.353-10.919-14.008 2.244-6.656 13.649-10.365 18.576-8.708 5.81 1.953 11.77 11.5 9.526 18.156-2.243 6.655-9.42 7.169-17.183 4.56" style="fill:#c10073"/></g><g transform="matrix(.35278 0 0 -.35278 115.93 149.46)"><path d="M 0,0 C -1.426,7.273 8.455,8.832 13.48,4.512 9.564,0.646 5.255,-4.969 0,0" style="fill:#059b57"/></g><g transform="matrix(.35278 0 0 -.35278 119.01 147.77)"><path d="m0 0c0.029 0.033 0.053 0.069 0.086 0.1 0.36 0.329 0.86 0.572 1.296 0.786 0.26 0.127 0.529 0.255 0.801 0.382 0.384-0.159 0.763-0.333 1.125-0.539-1.106-0.108-2.244-0.401-3.308-0.729m3.403-1.631c-0.669-0.094-1.314-0.175-2.04-0.074-0.533 0.074-1.02 0.256-1.509 0.433 1.586 0.314 3.208 0.47 4.751 0.861-0.396-0.395-0.797-0.806-1.202-1.22m-1.815-1.807c-0.217-0.014-0.439-0.056-0.687-0.067-0.782-0.031-1.524 0.151-2.26 0.396-0.659 0.219-1.216 0.567-1.804 0.929 0.368 0.155 0.742 0.298 1.126 0.425 0.392 0.131 0.792 0.235 1.194 0.33 0.848-0.776 2.222-1.109 3.46-1.003-0.34-0.341-0.682-0.681-1.029-1.01m-0.926-0.837c-0.775-0.667-1.569-1.259-2.385-1.693-0.324 0.048-0.647 0.015-1.015 0.078-0.538 0.093-1.108 0.29-1.601 0.516-0.867 0.398-1.446 0.994-2.097 1.578 0.826 0.429 1.649 0.866 2.494 1.262 0.535-1.259 2.877-1.888 4.604-1.741m-5.592-1.727c0.439-0.223 1.012-0.453 1.6-0.592-1.67-0.403-3.437-0.019-5.326 1.734 0.528 0.221 1.043 0.467 1.553 0.723 0.492-0.824 1.323-1.431 2.173-1.865m-0.498 7.476c-0.362-0.397-0.669-0.821-0.879-1.165-0.585-0.956-1.083-2.254-0.961-3.414-0.539-0.332-1.063-0.687-1.559-1.068-0.322 2.852 1.185 4.737 3.399 5.647m1.636 0.472c0.738 0.136 1.517 0.177 2.304 0.14-1.144-0.86-2.153-2.273-2.33-3.449-1.105-0.463-2.195-0.989-3.222-1.604 0.254 1.167 0.516 2.184 1.278 3.201 0.557 0.744 1.285 1.178 1.97 1.712m5.159-0.377c-0.329-0.151-0.658-0.332-0.999-0.555-0.413-0.27-0.917-0.713-1.035-1.226-0.353-0.115-0.697-0.231-1.022-0.34-0.529-0.178-1.059-0.377-1.587-0.586 0.333 0.82 0.798 1.547 1.517 2.177 0.439 0.384 0.944 0.655 1.441 0.934 0.568-0.088 1.132-0.227 1.685-0.404m-11.29-6.989c6.836-6.468 12.445 0.841 17.536 5.871-6.536 5.615-19.393 3.588-17.536-5.871" style="fill:#02662f"/></g><g transform="matrix(.35278 0 0 -.35278 115.54 151.64)"><path d="M 0,0 C 2.708,8.227 13.672,4.176 16.323,-3.094 10.119,-4.801 2.513,-8.065 0,0" style="fill:#059b57"/></g><g transform="matrix(.35278 0 0 -.35278 119.65 151.68)"><path d="m0 0c0.048 0.017 0.094 0.04 0.145 0.052 0.555 0.131 1.204 0.093 1.77 0.063 0.338-0.019 0.686-0.042 1.035-0.068 0.301-0.382 0.588-0.775 0.839-1.192-1.189 0.521-2.517 0.872-3.789 1.145m2.535-3.605c-0.735 0.286-1.44 0.571-2.122 1.089-0.5 0.38-0.893 0.843-1.29 1.302 1.796-0.585 3.54-1.352 5.336-1.833-0.629-0.177-1.274-0.367-1.924-0.558m-2.883-0.806c-0.23 0.11-0.481 0.193-0.739 0.324-0.815 0.415-1.467 1.023-2.077 1.694-0.546 0.599-0.916 1.272-1.307 1.976 0.464-0.053 0.927-0.12 1.39-0.209 0.475-0.091 0.942-0.213 1.406-0.346 0.421-1.275 1.631-2.398 2.954-2.996-0.542-0.155-1.085-0.306-1.627-0.443m-1.423-0.324c-1.172-0.239-2.319-0.389-3.401-0.365-0.302 0.234-0.65 0.384-0.989 0.659-0.495 0.402-0.964 0.927-1.337 1.44-0.655 0.9-0.905 1.838-1.233 2.805 1.086-0.034 2.175-0.059 3.262-0.137-0.174-1.589 1.853-3.566 3.698-4.402m-6.688 1.431c0.319-0.478 0.771-1.039 1.292-1.517-1.933 0.543-3.514 1.942-4.437 4.807 0.664-0.076 1.33-0.119 1.997-0.149 0.03-1.121 0.529-2.214 1.148-3.141m3.77 7.904c-0.597-0.198-1.152-0.455-1.563-0.685-1.143-0.641-2.393-1.68-2.932-2.932-0.741-0.031-1.477-0.094-2.201-0.198 1.303 3.09 3.918 4.151 6.696 3.815m1.938-0.452c0.829-0.282 1.647-0.686 2.428-1.173-1.658-0.223-3.495-1.088-4.349-2.186-1.391 0.159-2.803 0.245-4.202 0.204 0.927 1.045 1.776 1.932 3.134 2.534 0.995 0.44 1.985 0.467 2.989 0.621m5.043-3.328c-0.423 0.033-0.862 0.036-1.337 3e-3 -0.575-0.039-1.342-0.203-1.756-0.658-0.426 0.084-0.842 0.162-1.237 0.236-0.64 0.12-1.294 0.22-1.953 0.308 0.81 0.647 1.7 1.122 2.793 1.354 0.667 0.141 1.336 0.129 2.003 0.13 0.528-0.415 1.024-0.878 1.487-1.373m-15.508-0.681c3.267-10.495 13.166-6.246 21.234-4.024-3.449 9.453-17.715 14.725-21.234 4.024" style="fill:#02662f"/></g><g transform="matrix(.35278 0 0 -.35278 110.48 153.63)"><path d="m0 0c-10.295 4.587-15.973-9.492-11.282-18.394 7.066 4.472 16.858 8.931 11.282 18.394" style="fill:#059b57"/></g><g transform="matrix(.35278 0 0 -.35278 106.15 159.25)"><path d="m0 0c-0.182 0.605-0.311 1.224-0.416 1.848 0.28 0.358 0.562 0.712 0.84 1.054 0.465 0.571 0.995 1.228 1.607 1.647 0.056 0.039 0.117 0.062 0.176 0.094-0.847-1.462-1.67-3.044-2.207-4.643m1.248-2.307c1.106 2.148 1.889 4.494 2.896 6.732 0.095-0.783 0.198-1.566 0.127-2.378-0.097-1.108-0.438-2.035-0.805-2.992-0.752-0.458-1.498-0.911-2.218-1.362m3.666 2.253c0.58 1.794 0.555 3.938-0.306 5.457 0.277 0.562 0.568 1.117 0.895 1.654 0.319 0.523 0.659 1.027 1.014 1.519 0.336-0.992 0.662-1.935 0.762-2.983 0.113-1.173 0.129-2.331-0.184-3.477-0.099-0.363-0.237-0.677-0.333-0.993-0.605-0.401-1.225-0.791-1.848-1.177m2.394 9.662c0.875 1.113 1.802 2.181 2.719 3.256 0.644-1.161 1.33-2.221 1.625-3.637 0.168-0.806 0.265-1.716 0.219-2.544-0.032-0.566-0.191-1.031-0.229-1.526-0.922-1.06-2.069-2.032-3.324-2.951 0.807 2.504 0.673 6.181-1.01 7.402m3.452 4.126c0.554 0.667 1.094 1.345 1.601 2.05 1.955-3.39 1.922-6.133 0.756-8.466-5e-3 0.918-0.151 1.844-0.333 2.569-0.352 1.404-0.97 2.839-2.024 3.847m0.641 2.538c-0.734-0.605-1.437-1.257-2.115-1.942-1.678 0.576-3.771 0.282-5.387-0.257-0.581-0.194-1.314-0.503-2.026-0.903 2.103 2.964 5.41 4.55 9.528 3.102m-7.576-3.03c1.766 0.78 3.363 0.82 5.18 0.798-1.262-1.308-2.413-2.741-3.476-4.217-1.803 0.139-4.242-0.871-5.907-2.271 0.214 1.178 0.539 2.315 0.993 3.36 1.025 0.83 1.916 1.759 3.21 2.33m-4.434-7.457c0.584 0.64 1.156 1.294 1.876 1.812 1.178 0.848 2.414 1.288 3.744 1.501-0.49-0.71-0.965-1.426-1.409-2.146-0.274-0.444-0.562-0.913-0.853-1.396-0.801 0-1.629-0.594-2.169-1.112-0.447-0.428-0.829-0.852-1.165-1.288-0.074 0.878-0.087 1.759-0.024 2.629m-0.446-12.244c9.191 5.813 21.937 11.614 14.678 23.927-13.389 5.968-20.774-12.351-14.678-23.927" style="fill:#02662f"/></g><g transform="matrix(.35278 0 0 -.35278 112.16 154)"><path d="m0 0c-9.713 0.585-10.021-12.512-3.525-18.283 4.35 5.756 10.907 12.328 3.525 18.283" style="fill:#059b57"/></g><g transform="matrix(.35278 0 0 -.35278 110.37 159.85)"><path d="m0 0c-0.331 0.433-0.624 0.895-0.898 1.367 0.118 0.374 0.237 0.746 0.358 1.106 0.202 0.603 0.432 1.294 0.798 1.818 0.034 0.048 0.076 0.086 0.115 0.129-0.242-1.437-0.425-2.966-0.373-4.42m1.709-1.486c0.241 2.071 0.161 4.204 0.294 6.317 0.315-0.603 0.637-1.204 0.826-1.882 0.258-0.925 0.265-1.777 0.259-2.662-0.468-0.597-0.934-1.19-1.379-1.773m2.279 2.932c-0.078 1.626-0.75 3.35-1.907 4.317 0.053 0.538 0.119 1.074 0.22 1.607 0.099 0.519 0.221 1.03 0.358 1.535 0.573-0.699 1.123-1.363 1.523-2.179 0.447-0.914 0.812-1.845 0.908-2.865 0.03-0.323 0.014-0.619 0.033-0.904-0.368-0.507-0.75-1.011-1.135-1.511m-1.003 8.533c0.368 1.165 0.792 2.309 1.206 3.455 0.874-0.743 1.75-1.391 2.42-2.446 0.38-0.601 0.735-1.306 0.95-1.989 0.146-0.467 0.159-0.891 0.278-1.303-0.422-1.136-1.054-2.269-1.788-3.391-0.11 2.268-1.336 5.198-3.066 5.674m1.535 4.381c0.244 0.706 0.475 1.418 0.67 2.142 2.61-2.147 3.417-4.373 3.185-6.612-0.284 0.74-0.684 1.444-1.051 1.974-0.711 1.028-1.647 2-2.804 2.496m-0.254 2.244c-0.409-0.711-0.779-1.451-1.119-2.21-1.53-0.043-3.133-0.916-4.274-1.841-0.411-0.333-0.909-0.805-1.363-1.344 0.798 3.033 2.989 5.317 6.756 5.395m-5.201-4.745c1.191 1.166 2.469 1.682 3.943 2.216-0.622-1.44-1.116-2.947-1.526-4.462-1.5-0.434-3.163-1.99-4.083-3.625-0.185 1.016-0.268 2.034-0.219 3.015 0.576 0.982 1.014 2.002 1.885 2.856m-1.315-7.37c0.277 0.695 0.541 1.397 0.965 2.034 0.694 1.042 1.559 1.772 2.568 2.348-0.18-0.723-0.346-1.445-0.486-2.162-0.086-0.442-0.177-0.908-0.265-1.386-0.647-0.243-1.135-0.974-1.415-1.557-0.23-0.481-0.409-0.94-0.549-1.393-0.326 0.686-0.605 1.395-0.818 2.116m3.361-10.028c5.66 7.483 14.195 16.036 4.587 23.783-12.633 0.764-13.031-16.277-4.587-23.783" style="fill:#02662f"/></g><g transform="matrix(.35278 0 0 -.35278 110.25 146.38)"><path d="m0 0c3.023 9.237-9.587 12.847-16.82 8.03 4.476-5.659 9.184-13.657 16.82-8.03" style="fill:#059b57"/></g><g transform="matrix(.35278 0 0 -.35278 105.04 143.17)"><path d="m0 0c0.504 0.211 1.025 0.376 1.551 0.522 0.334-0.208 0.663-0.418 0.982-0.626 0.532-0.348 1.144-0.744 1.559-1.231 0.038-0.045 0.064-0.095 0.096-0.143-1.332 0.597-2.766 1.16-4.188 1.478m-1.871-1.276c1.945-0.756 4.032-1.218 6.045-1.881-0.664-0.152-1.328-0.311-2.033-0.322-0.961-0.015-1.788 0.193-2.643 0.423-0.461 0.603-0.917 1.203-1.369 1.78m2.264-2.943c1.594-0.336 3.435-0.123 4.664 0.751 0.507-0.188 1.011-0.387 1.501-0.619 0.478-0.227 0.942-0.474 1.397-0.735-0.823-0.376-1.604-0.74-2.497-0.92-0.998-0.201-1.992-0.318-3.005-0.152-0.32 0.052-0.603 0.142-0.883 0.196-0.399 0.484-0.79 0.98-1.177 1.479m8.519-1.188c1.036-0.651 2.037-1.35 3.043-2.041-0.941-0.656-1.79-1.339-2.982-1.718-0.678-0.216-1.452-0.381-2.167-0.415-0.489-0.024-0.903 0.071-1.333 0.06-0.993 0.696-1.931 1.593-2.833 2.586 2.225-0.468 5.373-0.025 6.272 1.528m3.856-2.591c0.623-0.415 1.254-0.819 1.906-1.19-2.74-1.979-5.101-2.196-7.211-1.405 0.789 0.087 1.571 0.295 2.178 0.516 1.177 0.427 2.354 1.085 3.127 2.079m2.239-0.323c-0.585 0.575-1.21 1.12-1.859 1.64 0.346 1.489-0.094 3.258-0.701 4.596-0.219 0.481-0.55 1.081-0.958 1.656 2.736-1.538 4.394-4.232 3.518-7.892m-3.282 6.225c0.828-1.445 1.005-2.811 1.15-4.37-1.238 0.965-2.573 1.824-3.937 2.603-0.041 1.559-1.127 3.559-2.479 4.862 1.031-0.078 2.038-0.256 2.977-0.551 0.805-0.805 1.683-1.486 2.289-2.544m-6.806 3.135c0.602-0.443 1.215-0.876 1.725-1.447 0.835-0.934 1.323-1.954 1.625-3.076-0.654 0.358-1.312 0.7-1.971 1.017-0.406 0.195-0.835 0.4-1.276 0.607-0.071 0.686-0.657 1.343-1.15 1.76-0.408 0.345-0.807 0.634-1.211 0.883 0.748 0.142 1.504 0.232 2.258 0.256m-10.566-0.712c5.819-7.361 11.945-17.771 21.88-10.447 3.935 12.014-12.473 16.709-21.88 10.447" style="fill:#02662f"/></g><g transform="matrix(.35278 0 0 -.35278 107.01 152.78)"><path d="M 0,0 C -5.071,8.291 5.336,23.679 15.21,23.848 23.732,21.328 27.545,14.889 22.519,1.092 13.14,-5.351 6.174,-3.96 0,0" style="fill:#ff99db"/></g><g transform="matrix(.35278 0 0 -.35278 108.44 153.08)"><path d="m0 0c7.044-3.986 11.621-3.413 18.869 2.41 0.994 1.987 1.275 3.744 0.938 5.302-4.965-7.008-9.673-9.692-19.807-7.712m8.993 10.34c-2.505-3.668-9.232-7.517-13.377-7.601 0 0 1.61-2.325 1.769-2.309 4.534 0.462 13.031 7.634 11.608 9.91m9.381 0.381c-3.784-4.035-8.928-7.565-14.824-8.476l-0.914-0.873c7.021 0.482 12.672 3.881 17.646 8.719 1.232 5.076-0.477 8.757-4.474 11.35 2.599-3.448 3.588-7.065 2.566-10.72m-13.173-2.275-4.353 1.381c-0.979-1.455-2.601-1.569-5.009 0.09l-0.566-1.913c4.099-2.376 7.408-2.228 9.928 0.442m4.055 5.461c0.816 1.701 1.211 3.247 0.777 4.49 1.02-0.671 3.187-2.087 3.319-2.084 0.171 2e-3 1.087 7.083 1.087 7.083l-4.197 0.834c0.721-0.68 0.409-2.704-0.579-5.116-0.245 0.346-0.574 0.66-1.008 0.936-1.122 0.92-9.534-7.827-8.997-8.966 2.173 1.205 4.323 2.88 6.435 5.363 1.345-0.384 2.376-1.269 3.163-2.54" style="fill:#f761cc"/></g><g transform="matrix(.35278 0 0 -.35278 115.43 149.37)"><path d="m0 0c-5.16-4.564-10.856-8.504-16.524-8.706 9.254 4.553 11.909 15.35 11.548 20.327 0.321-0.198 0.638-0.422 0.95-0.673 2.906-2.334 4.165-6.776 4.026-10.948m-20.595-10.172c0.561 0.135 1.098 0.297 1.624 0.471 7.696-0.592 13.583 3.442 18.887 8.449-0.261-2.55-1.054-4.903-2.324-6.48-2.703-3.358-12.8-4.994-18.187-2.44m-3.558 7.088c3.393-3.676 8.025-1.719 13.312 2.931-2.125-2.895-2.558-4.698-11.907-8.598-1.283 1.911-1.637 2.802-1.405 5.667m13.703 7.371-2.581 2.907c-8.533-9.508-10.183-6.722-1.712 1.038 3.032 2.506 5.571 0.651 4.293-3.945m-2.13-4.504c-0.465-0.316-0.926-0.618-1.385-0.9l-5.686 1.286c1.28 0.589 4.447 3.008 6.205 5.548l2.424-2.607c-0.35-1.019-0.862-2.135-1.558-3.327m3.487 7.477c0.541-0.595 1.153-1.274 1.504-1.68-0.417-1.07-0.965-2.199-1.695-3.409-0.56-0.42-1.119-0.837-1.677-1.243 1.617 2.704 2.088 4.82 1.868 6.332m-14.786-8.496c0.574 2.497 1.968 5.107 3.952 7.571 4.004 4.974 9.099 7.742 13.62 5.954-0.064-1.826-0.039-2.591-0.738-4.699l-2.755 2.564c-1.829 1.596-3.45 0.967-5.92-1.137-5.067-4.941-6.923-9.378-5.465-9.534l5.127-1.626c-3.472-1.997-5.301-2.08-7.821 0.907m2.784 8.51c-5.558-6.903-7.718-14.383-1.781-19.15 5.937-4.768 18.514-1.506 22.044 2.878 4.162 5.169 4.023 17.357-1.914 22.125s-12.788 1.054-18.349-5.853" style="fill:#b2006a"/></g><g transform="matrix(.35278 0 0 -.35278 125.29 145.84)"><path d="m0 0c-3.659 5.783-11.278 0.574-11.908-5.505 5.081-0.116 11.536-1.156 11.908 5.505" style="fill:#059b57"/></g><g transform="matrix(.35278 0 0 -.35278 121.2 147.22)"><path d="m0 0c0.112 0.367 0.256 0.724 0.413 1.074 0.263 0.087 0.524 0.172 0.78 0.251 0.428 0.132 0.918 0.286 1.368 0.292 0.042 0 0.081-8e-3 0.121-0.012-0.922-0.454-1.871-0.977-2.682-1.605m-0.147-1.586c1.284 0.714 2.471 1.636 3.734 2.43-0.215-0.428-0.427-0.859-0.737-1.246-0.423-0.528-0.907-0.882-1.416-1.242-0.534 0.022-1.065 0.044-1.581 0.058m2.614-0.095c0.898 0.713 1.608 1.806 1.685 2.863 0.33 0.191 0.664 0.374 1.011 0.535 0.337 0.157 0.68 0.298 1.025 0.427-0.165-0.614-0.318-1.201-0.621-1.765-0.338-0.631-0.721-1.222-1.265-1.696-0.173-0.15-0.349-0.262-0.504-0.39-0.441 1e-3 -0.886 0.012-1.331 0.026m4.469 4.081c0.818 0.269 1.647 0.497 2.473 0.732-0.066-0.804-0.076-1.571-0.405-2.386-0.187-0.464-0.445-0.957-0.747-1.36-0.207-0.275-0.445-0.457-0.631-0.695-0.824-0.225-1.731-0.331-2.676-0.373 1.253 0.994 2.425 2.898 1.986 4.082m3.137 0.925c0.505 0.151 1.007 0.312 1.501 0.498-0.155-2.372-1.096-3.747-2.473-4.535 0.307 0.466 0.545 0.983 0.698 1.411 0.295 0.829 0.467 1.762 0.274 2.626m1.18 1.068c-0.575-0.059-1.151-0.153-1.724-0.271-0.654 0.856-1.812 1.411-2.811 1.683-0.359 0.097-0.834 0.188-1.329 0.224 2.063 0.792 4.27 0.481 5.864-1.636m-4.853 1.016c1.156-0.2 1.978-0.717 2.889-1.338-1.08-0.238-2.145-0.575-3.18-0.964-0.865 0.677-2.439 0.987-3.753 0.839 0.505 0.524 1.054 0.989 1.635 1.365 0.799 0.075 1.562 0.245 2.409 0.098m-4.757-2.279c0.511 0.127 1.021 0.265 1.56 0.285 0.881 0.033 1.655-0.161 2.4-0.5-0.488-0.194-0.969-0.397-1.437-0.611-0.288-0.133-0.592-0.273-0.902-0.419-0.405 0.269-1.024 0.247-1.472 0.167-0.371-0.066-0.707-0.152-1.023-0.26 0.258 0.469 0.549 0.919 0.874 1.338m-4.355-6.042c6.608-0.152 15.01-1.506 15.492 7.162-4.757 7.522-14.67 0.743-15.492-7.162" style="fill:#02662f"/></g><g transform="matrix(.35278 0 0 -.35278 126.93 147.06)"><path d="m0 0c-7.038 3.806-11.824-5.852-8.988-12.409 5.246 2.782 12.42 5.407 8.988 12.409" style="fill:#059b57"/></g><g transform="matrix(.35278 0 0 -.35278 123.55 150.8)"><path d="m0 0c-0.096 0.438-0.154 0.884-0.194 1.331 0.218 0.238 0.437 0.474 0.652 0.7 0.36 0.379 0.772 0.815 1.227 1.078 0.042 0.025 0.087 0.038 0.13 0.058-0.679-0.989-1.348-2.065-1.815-3.167m0.758-1.701c0.899 1.46 1.582 3.079 2.416 4.608 0.025-0.559 0.056-1.119-0.039-1.69-0.129-0.779-0.42-1.417-0.733-2.074-0.557-0.283-1.11-0.564-1.644-0.844m2.718 1.395c0.508 1.24 0.607 2.759 0.08 3.881 0.227 0.382 0.463 0.76 0.724 1.122 0.254 0.353 0.523 0.691 0.801 1.02 0.183-0.72 0.363-1.406 0.377-2.153 0.016-0.837-0.036-1.658-0.32-2.451-0.089-0.252-0.204-0.467-0.29-0.686-0.45-0.25-0.91-0.493-1.372-0.733m2.221 6.71c0.68 0.741 1.394 1.447 2.102 2.158 0.393-0.857 0.82-1.644 0.952-2.663 0.075-0.58 0.094-1.229 0.017-1.812-0.053-0.399-0.191-0.72-0.246-1.069-0.71-0.7-1.575-1.326-2.513-1.908 0.707 1.729 0.813 4.339-0.312 5.294m2.668 2.734c0.428 0.442 0.848 0.893 1.245 1.365 1.2-2.507 1.027-4.446 0.075-6.034 0.046 0.649-8e-3 1.313-0.097 1.835-0.172 1.014-0.532 2.063-1.223 2.834m0.592 1.762c-0.552-0.388-1.086-0.812-1.603-1.26-1.156 0.499-2.654 0.404-3.827 0.111-0.423-0.106-0.958-0.285-1.484-0.53 1.65 1.985 4.078 2.928 6.914 1.679m-5.528-1.734c1.293 0.456 2.426 0.398 3.711 0.284-0.965-0.857-1.858-1.809-2.691-2.797-1.269 0.197-3.05-0.386-4.305-1.286 0.215 0.822 0.508 1.609 0.886 2.324 0.771 0.532 1.452 1.141 2.399 1.475m-3.545-5.038c0.448 0.422 0.889 0.853 1.427 1.181 0.88 0.537 1.779 0.781 2.732 0.86-0.386-0.476-0.761-0.958-1.115-1.444-0.217-0.299-0.447-0.615-0.679-0.941-0.568 0.044-1.186-0.332-1.597-0.67-0.339-0.279-0.632-0.558-0.894-0.848-4e-3 0.625 0.034 1.25 0.126 1.862m-0.982-8.644c6.823 3.616 16.162 7.032 11.693 16.142-9.153 4.952-15.378-7.615-11.693-16.142" style="fill:#02662f"/></g><g transform="matrix(.35278 0 0 -.35278 130.52 146.58)"><path d="M 0,0 C 5.477,5.829 13.069,-1.829 12.448,-8.944 6.592,-7.956 -1.046,-7.725 0,0" style="fill:#059b57"/></g><g transform="matrix(.35278 0 0 -.35278 133.95 148.21)"><path d="m0 0c0.047-5e-3 0.094-3e-3 0.142-0.013 0.515-0.106 1.043-0.39 1.505-0.637 0.276-0.147 0.558-0.301 0.84-0.459 0.103-0.437 0.189-0.878 0.236-1.324-0.792 0.899-1.766 1.709-2.723 2.433m0.714-4.003c-0.504 0.525-0.982 1.039-1.35 1.737-0.271 0.513-0.418 1.053-0.571 1.592 1.274-1.189 2.433-2.509 3.748-3.612-0.595 0.098-1.209 0.19-1.827 0.283m-2.727 0.448c-0.15 0.181-0.327 0.349-0.491 0.559-0.52 0.664-0.829 1.427-1.078 2.226-0.222 0.714-0.269 1.421-0.322 2.162 0.368-0.225 0.729-0.461 1.082-0.716 0.362-0.261 0.705-0.545 1.041-0.837-0.145-1.23 0.428-2.641 1.302-3.657-0.514 0.082-1.027 0.167-1.534 0.263m-1.317 0.283c-1.074 0.257-2.092 0.578-2.988 1.019-0.161 0.314-0.394 0.574-0.57 0.936-0.258 0.529-0.445 1.152-0.557 1.725-0.197 1.009-0.039 1.89 0.063 2.827 0.897-0.451 1.797-0.896 2.676-1.385-0.765-1.261 0.159-3.705 1.376-5.122m-5.037 3.801c0.08-0.524 0.24-1.17 0.488-1.772-1.405 1.207-2.181 2.993-1.835 5.75 0.526-0.323 1.067-0.619 1.613-0.903-0.412-0.95-0.422-2.058-0.266-3.075m6.239 5.145c-0.576 0.067-1.141 0.068-1.575 0.036-1.206-0.092-2.657-0.474-3.597-1.312-0.632 0.263-1.273 0.497-1.919 0.691 2.297 2.078 4.898 1.948 7.091 0.585m1.445-1.132c0.584-0.56 1.11-1.215 1.575-1.927-1.476 0.459-3.35 0.451-4.493-0.136-1.101 0.675-2.249 1.297-3.436 1.807 1.184 0.513 2.24 0.925 3.611 0.9 1.005-0.019 1.843-0.382 2.743-0.644m2.92-4.748c-0.34 0.192-0.706 0.365-1.117 0.523-0.496 0.191-1.201 0.352-1.726 0.133-0.323 0.236-0.641 0.463-0.942 0.679-0.49 0.349-0.997 0.688-1.514 1.019 0.929 0.225 1.86 0.276 2.864 0.044 0.614-0.141 1.169-0.412 1.727-0.671 0.281-0.552 0.515-1.133 0.708-1.727m-13.24 5.468c-1.363-10.053 8.577-10.352 16.194-11.634 0.805 9.252-9.072 19.217-16.194 11.634" style="fill:#02662f"/></g><g transform="matrix(.35278 0 0 -.35278 133.38 142.43)"><path d="m0 0c-1.859 8.773-18.608 12.51-25.34 6.373-4.12-7.085-2.591-13.819 9.538-19.895 10.382 1.613 14.172 6.956 15.802 13.522" style="fill:#ff99db"/></g><g transform="matrix(.35278 0 0 -.35278 126.19 146.12)"><path d="m0 0c0.762-1.259 2.066-2.26 3.994-2.964 8.558 0.681 11.993 3.194 14.19 10.327-5.543-7.743-10.406-8.922-18.184-7.363m19.665 9.307c0.117 0.09-0.278 2.669-0.278 2.669-2.834-2.567-9.791-4.243-13.8-3.367 0.49-2.428 10.743-1.862 14.078 0.698m-25.696 2.437c-1.036-4.271 0.154-7.822 4.201-10.449 6.409-0.097 12.358 1.199 17.374 5.321l-1.167 7e-3c-4.534-3.121-10.226-4.009-15.326-3.697-3.006 1.805-4.637 4.859-5.082 8.818m22.307 3.982-1.594 0.925c-0.563-2.637-1.724-3.587-3.304-3.231l-2.044-3.682c3.385-0.196 5.699 1.8 6.942 5.988m-12.619-1.184c2.993-0.329 5.499-0.092 7.721 0.475-0.361 1.104-11.557 1.649-11.726 0.321-0.116-0.46-0.137-0.88-0.083-1.266-2.194 0.993-3.687 2.153-3.635 3.066l-2.287-3.217s5.109-4.171 5.225-4.064c0.089 0.081 0.646 2.404 0.904 3.499 0.498-1.108 1.744-1.896 3.371-2.52-0.279 1.351-0.148 2.597 0.51 3.706" style="fill:#f761cc"/></g><g transform="matrix(.35278 0 0 -.35278 124.07 141.98)"><path d="m0 0c0.051 0.365 0.121 0.717 0.21 1.053 2.916-3.568 11.55-9.132 20.649-6.329-3.931-3.452-10.254-4.415-16.612-4.619-2.741 2.712-4.716 6.489-4.247 9.895m10.77-13.559c-1.853 0.255-3.879 1.332-5.673 2.878 6.737-3e-3 13.247 1.017 18.036 6.286 0.462 0.216 0.926 0.447 1.388 0.713-1.994-5.124-9.806-10.419-13.751-9.877m14.294 12.192c-8.749-3.301-10.183-2.365-13.446-1.768 6.499 0.227 10.849 1.846 10.791 6.46 1.975-1.775 2.303-2.597 2.655-4.692m-16.149 6.329c10.608 0.155 11.269-2.759-0.491-1.781l0.113-3.584c-3.774 2.274-3.247 5.127 0.378 5.365m0.753-5.793-0.028 3.284c2.792-0.592 6.452-0.21 7.684 0.205l-2.999-4.463c-0.486-0.1-0.988-0.189-1.5-0.271-1.223 0.358-2.275 0.783-3.157 1.245m1.344-1.503c-0.632-0.08-1.272-0.154-1.914-0.227-1.258 0.35-2.342 0.761-3.3 1.214-0.023 0.495-0.043 1.338-0.058 2.079 0.812-1.153 2.472-2.275 5.272-3.066m5.37 1.166 2.407 4.336c0.879 1.028-3.182 2.831-9.716 2.939-2.993-0.152-4.48-0.756-4.695-2.985l-0.221-3.465c-1.807 0.972-2.276 1.502-3.478 2.686 1.899 4.062 7.074 5.429 12.917 4.627 2.895-0.398 5.487-1.266 7.457-2.579 0.205-3.599-1.075-4.701-4.671-5.559m-18.624 1.82c-0.958-6.958 6.684-15.223 12.757-16.057 5.151-0.708 15.661 5.065 16.619 12.023 0.958 6.956-5.239 10.608-13.35 11.722-8.115 1.114-15.068-0.731-16.026-7.688" style="fill:#7a004e"/></g><g transform="matrix(.35278 0 0 -.35278 132.81 147.85)"><path d="m0 0c0.04 7.411-9.96 7.097-14.087 1.915 4.571-3.067 9.856-7.778 14.087-1.915" style="fill:#059b57"/></g><g transform="matrix(.35278 0 0 -.35278 128.28 146.73)"><path d="m0 0c0.317 0.27 0.656 0.512 1.004 0.74 0.291-0.074 0.579-0.149 0.859-0.226 0.468-0.129 1.005-0.274 1.419-0.531 0.039-0.023 0.069-0.054 0.104-0.081-1.106 0.123-2.28 0.198-3.386 0.098m-1.061-1.362c1.589-0.096 3.211 0.054 4.829 0.041-0.447-0.265-0.892-0.534-1.401-0.707-0.695-0.235-1.344-0.276-2.019-0.308-0.475 0.331-0.946 0.66-1.409 0.974m2.331-1.61c1.236 0.127 2.522 0.711 3.211 1.631 0.412-0.018 0.824-0.046 1.235-0.101 0.4-0.053 0.794-0.124 1.185-0.207-0.509-0.465-0.992-0.911-1.598-1.249-0.678-0.379-1.372-0.696-2.146-0.811-0.245-0.037-0.471-0.037-0.688-0.063-0.402 0.258-0.802 0.528-1.199 0.8m6.463 1.12c0.904-0.231 1.794-0.506 2.685-0.773-0.53-0.696-0.987-1.389-1.763-1.942-0.442-0.315-0.966-0.614-1.477-0.806-0.349-0.131-0.673-0.158-0.982-0.267-0.884 0.275-1.774 0.708-2.661 1.219 1.725 0.178 3.908 1.233 4.198 2.569m3.405-0.984c0.549-0.156 1.101-0.302 1.661-0.42-1.528-2.075-3.191-2.782-4.908-2.699 0.553 0.247 1.073 0.58 1.461 0.882 0.755 0.584 1.457 1.336 1.786 2.237m1.701 0.287c-0.56 0.281-1.14 0.532-1.732 0.758-0.097 1.162-0.83 2.345-1.583 3.174-0.271 0.298-0.652 0.658-1.082 0.98 2.346-0.48 4.179-2.05 4.397-4.912m-3.836 3.756c0.938-0.856 1.386-1.807 1.854-2.905-1.123 0.412-2.293 0.725-3.465 0.973-0.394 1.123-1.65 2.323-2.935 2.954 0.767 0.183 1.539 0.289 2.289 0.293 0.773-0.397 1.57-0.688 2.257-1.315m-5.674 0.692c0.541-0.181 1.087-0.353 1.59-0.649 0.824-0.483 1.417-1.111 1.898-1.855-0.558 0.107-1.116 0.203-1.668 0.279-0.341 0.047-0.7 0.097-1.068 0.144-0.213 0.482-0.791 0.823-1.247 1.011-0.376 0.155-0.733 0.272-1.085 0.359 0.51 0.277 1.039 0.518 1.58 0.711m-7.506-2.976c5.943-3.991 12.821-10.123 18.326-2.492 0.053 9.638-12.957 9.228-18.326 2.492" style="fill:#02662f"/></g><g transform="matrix(.35278 0 0 -.35278 133.6 149.91)"><path d="m0 0c-4.2 7.577-14.213 1.55-15.455-6.088 6.413-0.518 14.497-2.303 15.455 6.088" style="fill:#059b57"/></g><g transform="matrix(.35278 0 0 -.35278 128.33 151.36)"><path d="m0 0c0.168 0.456 0.376 0.896 0.601 1.327 0.338 0.091 0.675 0.179 1.004 0.26 0.551 0.136 1.181 0.294 1.75 0.269 0.053-2e-3 0.102-0.016 0.153-0.024-1.198-0.506-2.437-1.098-3.508-1.832m-0.302-1.994c1.675 0.808 3.243 1.887 4.898 2.797-0.304-0.524-0.603-1.053-1.023-1.52-0.573-0.635-1.212-1.048-1.881-1.466-0.674 0.066-1.343 0.133-1.994 0.189m3.296-0.311c1.188 0.835 2.166 2.164 2.341 3.495 0.431 0.217 0.867 0.424 1.316 0.602 0.439 0.174 0.881 0.327 1.328 0.465-0.254-0.764-0.49-1.495-0.915-2.185-0.474-0.773-1.001-1.492-1.723-2.051-0.229-0.178-0.46-0.306-0.665-0.457-0.559 0.034-1.12 0.081-1.682 0.131m5.948 4.831c1.054 0.279 2.118 0.508 3.18 0.744-0.142-1.011-0.212-1.979-0.687-2.986-0.27-0.573-0.632-1.177-1.044-1.664-0.281-0.333-0.595-0.545-0.848-0.832-1.058-0.226-2.213-0.292-3.409-0.277 1.656 1.166 3.277 3.487 2.808 5.015m4.034 0.94c0.649 0.154 1.295 0.32 1.934 0.52-0.37-2.987-1.662-4.657-3.459-5.552 0.422 0.567 0.761 1.203 0.986 1.732 0.434 1.026 0.719 2.193 0.539 3.3m1.569 1.263c-0.731-0.033-1.465-0.108-2.199-0.216-0.764 1.129-2.187 1.916-3.429 2.332-0.447 0.149-1.041 0.298-1.664 0.382 2.666 0.849 5.433 0.294 7.292-2.498m-6.059 1.639c1.447-0.337 2.447-1.05 3.553-1.903-1.381-0.221-2.753-0.569-4.09-0.985-1.043 0.919-3.01 1.426-4.681 1.335 0.677 0.625 1.404 1.173 2.166 1.606 1.015 0.036 1.993 0.195 3.052-0.053m-6.179-2.532c0.655 0.124 1.309 0.26 1.992 0.246 1.117-0.023 2.08-0.324 2.996-0.808-0.63-0.209-1.254-0.43-1.86-0.668-0.374-0.146-0.768-0.3-1.171-0.463-0.493 0.37-1.276 0.388-1.849 0.32-0.473-0.057-0.904-0.142-1.312-0.254 0.362 0.574 0.762 1.121 1.204 1.627m-5.948-7.318c8.341-0.676 18.861-3.002 20.106 7.918-5.461 9.856-18.488 2.013-20.106-7.918" style="fill:#02662f"/></g><g transform="matrix(.35278 0 0 -.35278 137.16 151.57)"><path d="M 0,0 C 8.406,2.129 10.861,-9.286 6.136,-15.419 1.368,-11.104 -5.469,-6.442 0,0" style="fill:#059b57"/></g><g transform="matrix(.35278 0 0 -.35278 139.33 155.05)"><path d="m0 0c0.041-0.032 0.084-0.058 0.122-0.094 0.408-0.398 0.724-0.965 1.002-1.459 0.165-0.295 0.332-0.601 0.498-0.909-0.162-0.459-0.341-0.911-0.558-1.346-0.198 1.282-0.613 2.589-1.064 3.808m-1.687-4.071c-0.153 0.774-0.289 1.521-0.218 2.374 0.053 0.625 0.234 1.204 0.409 1.785 0.469-1.828 0.755-3.708 1.311-5.481-0.486 0.436-0.993 0.877-1.502 1.322m-2.227 2c-0.032 0.252-0.095 0.508-0.122 0.796-0.087 0.909 0.077 1.785 0.316 2.659 0.214 0.782 0.585 1.454 0.97 2.162 0.204-0.42 0.396-0.846 0.569-1.285 0.178-0.449 0.325-0.908 0.462-1.37-0.852-1.039-1.153-2.661-0.949-4.097-0.422 0.374-0.84 0.751-1.246 1.135m-1.037 1.025c-0.83 0.86-1.573 1.747-2.132 2.671 0.036 0.381-0.024 0.754 0.026 1.187 0.074 0.634 0.267 1.31 0.5 1.9 0.41 1.035 1.069 1.748 1.71 2.544 0.554-0.935 1.116-1.866 1.633-2.825-1.436-0.704-2.02-3.474-1.737-5.477m-2.377 6.406c-0.233-0.526-0.465-1.208-0.59-1.903-0.577 1.921-0.242 4.004 1.685 6.318 0.291-0.601 0.612-1.186 0.944-1.764-0.93-0.626-1.587-1.632-2.039-2.651m8.702 1.06c-0.488 0.397-1.003 0.727-1.417 0.95-1.155 0.62-2.703 1.116-4.05 0.9-0.424 0.607-0.871 1.194-1.348 1.749 3.311 0.558 5.61-1.077 6.815-3.599m0.657-1.877c0.206-0.851 0.303-1.756 0.311-2.676-1.078 1.279-2.794 2.364-4.18 2.495-0.611 1.258-1.295 2.494-2.08 3.652 1.379-0.222 2.585-0.462 3.821-1.284 0.906-0.602 1.46-1.423 2.128-2.187m-0.11-6.035c-0.197 0.373-0.431 0.745-0.713 1.128-0.342 0.464-0.891 1.023-1.498 1.127-0.158 0.405-0.315 0.798-0.464 1.17-0.242 0.604-0.508 1.209-0.786 1.812 0.98-0.337 1.859-0.832 2.641-1.629 0.477-0.487 0.826-1.057 1.184-1.619-0.067-0.668-0.192-1.334-0.364-1.989m-8.889 12.708c-7.119-8.382 1.78-14.448 7.983-20.058 6.141 7.976 2.949 22.829-7.983 20.058" style="fill:#02662f"/></g><g transform="matrix(.35278 0 0 -.35278 139.48 150.33)"><path d="m0 0c6.565 5.658 13.873-3.455 12.394-11.05-6.197 1.729-14.4 2.845-12.394 11.05" style="fill:#059b57"/></g><g transform="matrix(.35278 0 0 -.35278 142.98 152.48)"><path d="m0 0c0.051-0.01 0.101-0.014 0.151-0.03 0.543-0.173 1.08-0.54 1.55-0.857 0.28-0.19 0.566-0.389 0.852-0.591 0.061-0.482 0.104-0.967 0.104-1.453-0.751 1.059-1.708 2.042-2.657 2.931m0.314-4.394c-0.483 0.623-0.94 1.23-1.258 2.025-0.233 0.583-0.33 1.182-0.434 1.78 1.239-1.426 2.336-2.98 3.628-4.317-0.63 0.173-1.281 0.341-1.936 0.512m-2.887 0.793c-0.142 0.212-0.313 0.412-0.466 0.658-0.485 0.774-0.73 1.631-0.908 2.52-0.158 0.794-0.128 1.561-0.101 2.366 0.371-0.284 0.734-0.58 1.085-0.894 0.36-0.323 0.697-0.668 1.026-1.02-0.297-1.31 0.161-2.894 0.986-4.088-0.544 0.146-1.088 0.296-1.622 0.458m-1.387 0.453c-1.128 0.399-2.189 0.861-3.103 1.437-0.139 0.357-0.359 0.665-0.508 1.074-0.218 0.6-0.348 1.291-0.404 1.922-0.097 1.109 0.173 2.041 0.39 3.039 0.914-0.588 1.834-1.17 2.726-1.796-0.969-1.272-0.251-4.01 0.899-5.676m-4.995 4.669c0.028-0.574 0.125-1.288 0.325-1.966-1.377 1.46-2.01 3.473-1.323 6.403 0.53-0.407 1.079-0.787 1.635-1.155-0.552-0.977-0.689-2.17-0.637-3.282m7.309 4.834c-0.614 0.137-1.222 0.202-1.694 0.217-1.309 0.039-2.917-0.208-4.025-1.004-0.651 0.354-1.314 0.679-1.989 0.962 2.712 1.978 5.5 1.543 7.708-0.175m1.427-1.384c0.566-0.67 1.058-1.435 1.477-2.255-1.537 0.662-3.557 0.866-4.855 0.364-1.111 0.852-2.276 1.653-3.497 2.337 1.334 0.418 2.519 0.742 3.993 0.559 1.08-0.134 1.943-0.621 2.882-1.005m2.606-5.448c-0.345 0.247-0.72 0.475-1.144 0.691-0.513 0.262-1.255 0.516-1.844 0.339-0.322 0.291-0.639 0.573-0.939 0.839-0.487 0.432-0.996 0.855-1.514 1.269 1.027 0.138 2.035 0.087 3.091-0.276 0.645-0.223 1.212-0.578 1.784-0.92 0.239-0.627 0.425-1.279 0.566-1.942m-13.643 7.396c-2.613-10.677 8.063-12.128 16.123-14.374 1.921 9.877-7.586 21.735-16.123 14.374" style="fill:#02662f"/></g><g transform="matrix(.35278 0 0 -.35278 135.02 143.62)"><path d="M 0,0 C -8.183,-2.866 -11.645,8.286 -7.485,14.814 -2.351,10.939 4.874,6.902 0,0" style="fill:#059b57"/></g><g transform="matrix(.35278 0 0 -.35278 132.55 140.34)"><path d="m0 0c-0.043 0.028-0.089 0.05-0.129 0.083-0.443 0.36-0.808 0.897-1.128 1.364-0.192 0.279-0.385 0.569-0.577 0.861 0.12 0.471 0.257 0.938 0.436 1.39 0.31-1.259 0.84-2.524 1.398-3.698m1.318 4.204c0.222-0.757 0.424-1.489 0.428-2.344 4e-3 -0.628-0.125-1.221-0.248-1.815-0.63 1.779-1.082 3.627-1.794 5.343 0.523-0.391 1.067-0.786 1.614-1.184m2.396-1.793c0.054-0.249 0.14-0.498 0.193-0.783 0.167-0.898 0.082-1.785-0.079-2.677-0.143-0.797-0.453-1.5-0.773-2.239-0.241 0.4-0.47 0.808-0.681 1.229-0.217 0.432-0.405 0.876-0.582 1.324 0.756 1.11 0.911 2.752 0.581 4.165 0.452-0.336 0.903-0.674 1.341-1.019m1.125-0.929c0.903-0.784 1.721-1.601 2.361-2.472-2e-3 -0.382 0.091-0.749 0.079-1.185-0.017-0.637-0.149-1.328-0.328-1.936-0.316-1.067-0.909-1.836-1.477-2.686-0.635 0.882-1.278 1.76-1.878 2.669 1.368 0.829 1.703 3.639 1.243 5.61m2.937-6.17c0.185 0.544 0.356 1.244 0.418 1.948 0.746-1.862 0.598-3.967-1.115-6.443-0.344 0.573-0.716 1.127-1.098 1.673 0.872 0.707 1.436 1.767 1.795 2.822m-8.572-1.828c0.52-0.352 1.063-0.635 1.496-0.821 1.204-0.515 2.791-0.872 4.113-0.536 0.477-0.568 0.975-1.113 1.499-1.623-3.249-0.85-5.684 0.575-7.108 2.98m-0.822 1.81c-0.281 0.83-0.458 1.722-0.548 2.638 1.188-1.178 2.993-2.106 4.385-2.113 0.721-1.199 1.513-2.37 2.397-3.453-1.393 0.098-2.615 0.23-3.92 0.939-0.956 0.52-1.58 1.288-2.314 1.989m-0.429 6.022c0.231-0.355 0.496-0.705 0.812-1.061 0.381-0.431 0.978-0.939 1.592-0.99 0.193-0.388 0.384-0.766 0.566-1.123 0.295-0.581 0.613-1.16 0.944-1.735-1.006 0.248-1.925 0.663-2.775 1.387-0.519 0.443-0.916 0.98-1.323 1.508 7e-3 0.671 0.072 1.346 0.184 2.014m9.987-11.869c6.344 8.981-3.06 14.233-9.738 19.27-5.407-8.49-0.904-23 9.738-19.27" style="fill:#02662f"/></g><g transform="matrix(.35278 0 0 -.35278 137.5 144.38)"><path d="M 0,0 C -7.815,3.752 -2.367,14.082 5.196,15.76 6.083,9.395 8.333,1.439 0,0" style="fill:#059b57"/></g><g transform="matrix(.35278 0 0 -.35278 138.07 140.32)"><path d="m0 0c-0.011 0.05-0.027 0.097-0.033 0.15-0.058 0.566 0.064 1.204 0.168 1.761 0.063 0.333 0.131 0.674 0.202 1.016 0.418 0.249 0.846 0.481 1.293 0.676-0.672-1.11-1.193-2.38-1.63-3.603m3.909 2.041c-0.38-0.691-0.755-1.351-1.357-1.96-0.442-0.446-0.954-0.774-1.461-1.107 0.814 1.702 1.803 3.328 2.515 5.045 0.093-0.646 0.198-1.31 0.303-1.978m0.424-2.96c-0.138-0.213-0.253-0.451-0.417-0.689-0.518-0.753-1.207-1.32-1.952-1.837-0.665-0.463-1.382-0.741-2.131-1.037 0.112 0.452 0.239 0.903 0.387 1.35 0.153 0.458 0.335 0.905 0.527 1.347 1.321 0.251 2.593 1.303 3.359 2.535 0.083-0.557 0.162-1.115 0.227-1.669m0.138-1.451c0.084-1.191 0.083-2.347-0.08-3.415-0.273-0.269-0.467-0.594-0.783-0.893-0.464-0.439-1.047-0.834-1.604-1.137-0.979-0.532-1.942-0.657-2.945-0.857 0.175 1.072 0.342 2.146 0.561 3.213 1.554-0.379 3.781 1.371 4.851 3.089m-2.291-6.437c0.516 0.254 1.132 0.629 1.674 1.082-0.791-1.843-2.385-3.227-5.35-3.767 0.163 0.647 0.292 1.301 0.408 1.958 1.117-0.116 2.267 0.235 3.268 0.727m-7.357 4.761c0.119-0.616 0.302-1.199 0.478-1.636 0.486-1.215 1.355-2.588 2.528-3.285-0.065-0.738-0.099-1.475-0.089-2.205-2.899 1.693-3.612 4.42-2.917 7.126m0.701 1.861c0.388 0.785 0.895 1.541 1.48 2.253 6e-3 -1.672 0.626-3.604 1.605-4.592-0.339-1.356-0.609-2.744-0.75-4.134-0.916 1.054-1.687 2.01-2.107 3.432-0.308 1.043-0.206 2.027-0.228 3.041m3.96 4.561c-0.088-0.414-0.148-0.849-0.177-1.323-0.036-0.575 0.027-1.356 0.425-1.825-0.138-0.411-0.271-0.813-0.395-1.194-0.202-0.619-0.387-1.253-0.561-1.894-0.536 0.886-0.892 1.829-0.98 2.941-0.053 0.68 0.046 1.341 0.132 2.001 0.48 0.47 1.004 0.9 1.556 1.294m-1.341-15.445c10.845 1.87 7.914 12.225 6.758 20.502-9.835-2.185-16.925-15.625-6.758-20.502" style="fill:#02662f"/></g><g transform="matrix(.35278 0 0 -.35278 142.19 149.44)"><path d="m0 0c3.43 9.091-9.675 22.265-19.406 20.587-7.901-4.067-10.44-11.105-2.92-23.719 10.42-4.579 17.002-1.911 22.326 3.132" style="fill:#ff99db"/></g><g transform="matrix(.35278 0 0 -.35278 133.47 148.63)"><path d="m0 0c-0.04-1.593 0.565-3.267 1.914-5.033 8.21-4.367 12.813-4.075 18.987 1.156-9.585-3.838-14.712-2.08-20.901 3.877m23.389-2.967c0.159 0.014 1.306 2.599 1.306 2.599-4.088-0.692-11.417 1.834-14.564 4.969-0.972-2.501 8.717-7.961 13.258-7.568m-22.031 17.201c-3.442-3.294-4.431-7.229-2.271-11.985 5.792-3.825 11.98-6.108 18.967-5.27l-1.061 0.686c-5.962-0.206-11.676 2.302-16.149 5.559-1.689 3.399-1.394 7.137 0.514 11.01m22.688-9.366-0.914 1.774c-2.055-2.079-3.67-2.27-4.904-1.024l-4.018-2.169c2.976-2.153 6.255-1.68 9.836 1.419m-12.21 6.274c2.54-2.044 4.966-3.289 7.325-4.066 0.316 1.218-9.586 8.241-10.515 7.127-0.376-0.352-0.64-0.722-0.816-1.107-1.423 2.185-2.108 4.114-1.526 4.917l-3.968-1.603s2.226-6.785 2.395-6.756c0.129 0.023 1.993 1.819 2.87 2.668-0.194-1.302 0.483-2.747 1.604-4.265 0.535 1.395 1.382 2.457 2.631 3.085" style="fill:#f761cc"/></g><g transform="matrix(.35278 0 0 -.35278 133.95 143.61)"><path d="m0 0c0.26 0.305 0.529 0.584 0.807 0.839 0.577-4.957 5.207-15.068 15.15-17.812-5.605-0.86-11.939 1.947-17.863 5.467-0.917 4.072-0.512 8.671 1.906 11.506m1.907-18.653c-1.543 1.312-2.761 3.476-3.495 5.933 6.147-3.93 12.685-6.793 20.135-4.774 0.549-0.073 1.107-0.132 1.684-0.16-4.814-3.514-15.039-3.793-18.324-0.999m20.172 2.797c-9.914 2.086-10.677 3.776-13.306 6.223 6.065-3.58 10.981-4.638 13.625-0.393 0.766-2.771 0.584-3.712-0.319-5.83m-11.042 15.189c9.774-6.041 8.674-9.087-1.488-1.339l-1.992-3.338c-2.115 4.276 0.032 6.573 3.48 4.677m-2.697-5.726 1.893 3.013c2.203-2.167 5.767-3.952 7.134-4.29l-5.345-2.327c-0.503 0.192-1.013 0.403-1.529 0.627-0.907 1.04-1.619 2.041-2.153 2.977m0.348-2.155c-0.624 0.294-1.251 0.6-1.88 0.908-0.943 1.053-1.693 2.059-2.303 3.032 0.268 0.465 0.743 1.246 1.162 1.931 0.068-1.526 0.927-3.517 3.021-5.871m5.583-2.066 4.731 2.555c1.403 0.426-1.251 4.438-7.152 8.345-2.821 1.606-4.531 1.921-6.03 0.012l-2.226-3.033c-1.081 1.94-1.199 2.696-1.605 4.478 4.107 2.602 9.63 0.833 14.495-3.305 2.41-2.05 4.268-4.354 5.299-6.7-1.916-3.405-3.728-3.665-7.512-2.352m-15.937 12.516c-4.939-5.792-2.794-17.792 2.262-22.093 4.289-3.648 17.255-4.503 22.195 1.289s1.417 12.736-5.335 18.48c-6.757 5.747-14.182 8.116-19.122 2.324" style="fill:#b2006a"/></g></g></svg>
