<?xml version="1.0" encoding="UTF-8" standalone="no"?>
<!-- Created with Inkscape (http://www.inkscape.org/) -->

<svg
   xmlns:dc="http://purl.org/dc/elements/1.1/"
   xmlns:cc="http://creativecommons.org/ns#"
   xmlns:rdf="http://www.w3.org/1999/02/22-rdf-syntax-ns#"
   xmlns:svg="http://www.w3.org/2000/svg"
   xmlns="http://www.w3.org/2000/svg"
   xmlns:sodipodi="http://sodipodi.sourceforge.net/DTD/sodipodi-0.dtd"
   xmlns:inkscape="http://www.inkscape.org/namespaces/inkscape"
   width="239.06241mm"
   height="193.75874mm"
   viewBox="0 0 239.06241 193.75874"
   version="1.1"
   id="svg8"
   inkscape:version="0.92.3 (2405546, 2018-03-11)"
   sodipodi:docname="turtle.svg">
  <defs
     id="defs2">
    <linearGradient
       gradientUnits="userSpaceOnUse"
       gradientTransform="scale(0.87648,1.1409)"
       y2="182.73"
       y1="152.64"
       x2="243.38"
       x1="138.42"
       id="a">
      <stop
         id="stop815"
         offset="0" />
      <stop
         id="stop817"
         offset="1"
         stop-opacity="0" />
    </linearGradient>
  </defs>
  <sodipodi:namedview
     id="base"
     pagecolor="#ffffff"
     bordercolor="#666666"
     borderopacity="1.0"
     inkscape:pageopacity="0.0"
     inkscape:pageshadow="2"
     inkscape:zoom="0.35"
     inkscape:cx="-444.36681"
     inkscape:cy="491.7038"
     inkscape:document-units="mm"
     inkscape:current-layer="layer1"
     showgrid="false"
     inkscape:window-width="1920"
     inkscape:window-height="1017"
     inkscape:window-x="-8"
     inkscape:window-y="-8"
     inkscape:window-maximized="1"
     fit-margin-top="0"
     fit-margin-left="0"
     fit-margin-right="0"
     fit-margin-bottom="0" />
  <metadata
     id="metadata5">
    <rdf:RDF>
      <cc:Work
         rdf:about="">
        <dc:format>image/svg+xml</dc:format>
        <dc:type
           rdf:resource="http://purl.org/dc/dcmitype/StillImage" />
        <dc:title></dc:title>
      </cc:Work>
    </rdf:RDF>
  </metadata>
  <g
     inkscape:label="Layer 1"
     inkscape:groupmode="layer"
     id="layer1"
     transform="translate(19.122036,-27.30536)">
    <flowRoot
       transform="matrix(0.26458333,0,0,0.26458333,-71.176241,19.314488)"
       font-size="22px"
       letter-spacing="0px"
       word-spacing="0px"
       style="font-size:22px;line-height:125%;font-family:'Arial Black';letter-spacing:0px;word-spacing:0px;fill:#000000"
       xml:space="preserve"
       id="flowRoot832"><flowRegion
         id="flowRegion828"><rect
           x="835.60999"
           y="1025"
           width="8.2571001"
           height="165.14"
           id="rect826" /></flowRegion><flowPara
         id="flowPara830" /></flowRoot>    <g
       transform="matrix(0.1146122,-0.0297429,0.04931506,0.16568517,-54.667484,96.797009)"
       id="g842">
      <path
         style="fill:#82af16;stroke:#4b660e;stroke-width:3.19970012"
         inkscape:connector-curvature="0"
         d="m 266.26,440.21 c -39.16,-7.6796 -80.177,-33.762 -100.59,-70.904 -4.1668,-7.5805 -5.2479,-30.609 1.9914,-25.874 61.502,40.225 76.29,28.675 98.788,41.76 15.853,9.22 17.81,58.547 -0.18647,55.018 z"
         id="path834" />
      <path
         style="fill:#729913"
         inkscape:connector-curvature="0"
         d="m 163.22,344.19 c -1.8602,5.6677 -0.46459,18.439 2.4375,23.719 20.416,37.142 61.434,63.227 100.59,70.906 10.65,2.0884 14.32,-14.334 12.25,-30 -1.3785,8.9346 -5.3562,15.352 -12.25,14 -39.16,-7.6796 -80.178,-33.765 -100.59,-70.906 -1.0205,-1.8566 -1.8641,-4.6437 -2.4375,-7.7188 z"
         id="path836" />
      <path
         style="fill:#9ad01a"
         inkscape:connector-curvature="0"
         d="m 165.49,342.81 c -1.3072,0.0208 -2.1968,1.2713 -2.75,3.25 0.81557,-0.45421 1.7675,-0.3365 2.875,0.5625 57.057,46.315 72.93,36.336 93.969,51.656 9.1582,6.669 11.485,28.008 7.7812,42.094 16.404,0.61142 14.126,-46.227 -1.2812,-55.188 -22.498,-13.084 -37.28,-1.5248 -98.781,-41.75 -0.67868,-0.44389 -1.2758,-0.63353 -1.8125,-0.625 z"
         id="path838" />
      <path
         style="fill:none;stroke:#4b660e;stroke-width:3.19970012"
         inkscape:connector-curvature="0"
         d="m 266.26,440.21 c -39.16,-7.6796 -80.177,-33.762 -100.59,-70.904 -4.1668,-7.5805 -5.2479,-30.609 1.9914,-25.874 61.502,40.225 76.29,28.675 98.788,41.76 15.853,9.22 17.81,58.547 -0.18647,55.018 z"
         id="path840" />
    </g>
    <g
       transform="matrix(0.32094853,-0.07047648,0.07178992,0.31350858,-109.56939,60.562754)"
       id="g852">
      <path
         style="fill:#719913;stroke:#6e9615;stroke-width:3.29250002"
         inkscape:connector-curvature="0"
         d="m 594.13,432.05 c 51.257,20.667 54.751,92.455 57.144,146.03 1.6049,35.918 -124.92,38.012 -116.4,2.9401 30.099,-123.94 -11.838,-96.776 16.932,-132.31 9.198,-11.359 28.272,-22.328 42.329,-16.661 z"
         id="path844" />
      <path
         style="fill:#9ad01a"
         inkscape:connector-curvature="0"
         d="m 585.78,432.34 c -0.8981,0.001 -1.8018,0.0599 -2.7188,0.15625 -3.6678,0.38556 -7.4627,1.4942 -11.156,3.1562 -7.3871,3.324 -14.296,8.795 -18.688,14.219 -7.1277,8.8025 -9.6477,13.496 -10.156,17.312 -0.5083,3.816 0.97134,7.4033 2.5625,14.094 3.1823,13.381 6.1195,38.028 -8.9688,100.16 -0.94307,3.8832 -0.0966,6.9751 2.25,9.8438 2.3466,2.8686 6.332,5.422 11.469,7.4375 10.273,4.031 25.056,5.936 40.062,5.625 0.53157,-0.011 1.0618,-0.0459 1.5938,-0.0625 -12.002,-0.41994 -23.309,-2.2873 -31.656,-5.5625 -5.1367,-2.0155 -9.1222,-4.5689 -11.469,-7.4375 -2.3466,-2.8686 -3.1931,-5.9605 -2.25,-9.8438 15.088,-62.128 12.151,-86.775 8.9688,-100.16 -1.5912,-6.6904 -3.071,-10.277 -2.5625,-14.094 0.5085,-3.817 3.0286,-8.51 10.156,-17.312 4.3918,-5.4237 11.3,-10.895 18.688,-14.219 2.8519,-1.2833 5.7575,-2.2359 8.625,-2.7812 -1.5344,-0.34132 -3.1218,-0.53387 -4.75,-0.53125 z"
         id="path846" />
      <path
         style="fill:#698c11"
         inkscape:connector-curvature="0"
         d="m 585.78,432.34 c -0.84749,9.4e-4 -1.6986,0.0694 -2.5625,0.15625 23.836,10.396 36.741,32.421 44.062,58.719 7.4992,26.937 8.9908,58.155 10.188,84.938 0.17676,3.9559 -1.3726,7.3715 -4.4062,10.531 -3.0336,3.1595 -7.5934,5.9647 -13.188,8.25 -11.188,4.5706 -26.431,7.0952 -41.438,7.4062 -6.3772,0.13217 -12.72,-0.11989 -18.688,-0.78125 9.0171,2.0743 19.797,3.007 30.688,2.7812 15.006,-0.31101 30.249,-2.8356 41.438,-7.4062 5.5941,-2.2853 10.154,-5.0902 13.188,-8.25 3.034,-3.1598 4.583,-6.5754 4.4062,-10.531 -1.1967,-26.783 -2.6883,-58 -10.188,-84.938 -7.4997,-26.938 -20.85,-49.404 -45.812,-59.469 -2.3944,-0.9654 -4.9932,-1.4106 -7.6875,-1.4062 z"
         id="path848" />
      <path
         style="fill:#9eab26"
         inkscape:connector-curvature="0"
         d="m 629.14,575.19 c -6.8667,-0.54076 -15.562,3.1311 -18.83,7.5528 -2.5267,3.4184 -2.6568,9.5494 2.2506,10.811 8.8727,2.2802 23.462,-5.3956 25.012,-12.072 0.69089,-2.9746 -4.157,-5.9543 -8.4332,-6.2911 z"
         id="path850" />
    </g>
    <path
       style="fill:none;stroke:#4b660e;stroke-width:1.07616198"
       inkscape:connector-curvature="0"
       d="m 112.13004,154.13974 c 17.9349,2.90417 24.21564,25.4192 28.83558,42.2361 3.09646,11.27526 -37.36006,20.94778 -37.14545,9.21982 0.75181,-41.44345 -10.754747,-29.84569 -4.075383,-43.16036 2.135443,-4.2568 7.468583,-9.09335 12.386973,-8.2967 z"
       id="path854" />
    <g
       transform="matrix(0.30236583,0.03378465,-0.03033977,0.33099375,-135.2398,-13.316574)"
       id="g864">
      <path
         style="fill:#729913;stroke:#4b660e;stroke-width:3.29169989"
         inkscape:connector-curvature="0"
         d="m 594.13,432.05 c 51.257,20.667 54.751,92.455 57.144,146.03 1.6049,35.918 -124.92,38.012 -116.4,2.9401 30.099,-123.94 -11.838,-96.776 16.932,-132.31 9.198,-11.359 28.272,-22.328 42.329,-16.661 z"
         id="path856" />
      <path
         style="fill:#9ad01a"
         inkscape:connector-curvature="0"
         d="m 585.78,432.34 c -0.8981,0.001 -1.8018,0.0599 -2.7188,0.15625 -3.6678,0.38556 -7.4627,1.4942 -11.156,3.1562 -7.3871,3.324 -14.296,8.795 -18.688,14.219 -7.1277,8.8025 -9.6477,13.496 -10.156,17.312 -0.5083,3.816 0.97134,7.4033 2.5625,14.094 3.1823,13.381 6.1195,38.028 -8.9688,100.16 -0.94307,3.8832 -0.0966,6.9751 2.25,9.8438 2.3466,2.8686 6.332,5.422 11.469,7.4375 10.273,4.031 25.056,5.936 40.062,5.625 0.53157,-0.011 1.0618,-0.0459 1.5938,-0.0625 -12.002,-0.41994 -23.309,-2.2873 -31.656,-5.5625 -5.1367,-2.0155 -9.1222,-4.5689 -11.469,-7.4375 -2.3466,-2.8686 -3.1931,-5.9605 -2.25,-9.8438 15.088,-62.128 12.151,-86.775 8.9688,-100.16 -1.5912,-6.6904 -3.071,-10.277 -2.5625,-14.094 0.5085,-3.817 3.0286,-8.51 10.156,-17.312 4.3918,-5.4237 11.3,-10.895 18.688,-14.219 2.8519,-1.2833 5.7575,-2.2359 8.625,-2.7812 -1.5344,-0.34132 -3.1218,-0.53387 -4.75,-0.53125 z"
         id="path858" />
      <path
         style="fill:#698c11"
         inkscape:connector-curvature="0"
         d="m 585.78,432.34 c -0.84749,9.4e-4 -1.6986,0.0694 -2.5625,0.15625 23.836,10.396 36.741,32.421 44.062,58.719 7.4992,26.937 8.9908,58.155 10.188,84.938 0.17676,3.9559 -1.3726,7.3715 -4.4062,10.531 -3.0336,3.1595 -7.5934,5.9647 -13.188,8.25 -11.188,4.5706 -26.431,7.0952 -41.438,7.4062 -6.3772,0.13217 -12.72,-0.11989 -18.688,-0.78125 9.0171,2.0743 19.797,3.007 30.688,2.7812 15.006,-0.31101 30.249,-2.8356 41.438,-7.4062 5.5941,-2.2853 10.154,-5.0902 13.188,-8.25 3.034,-3.1598 4.583,-6.5754 4.4062,-10.531 -1.1967,-26.783 -2.6883,-58 -10.188,-84.938 -7.4997,-26.938 -20.85,-49.404 -45.812,-59.469 -2.3944,-0.9654 -4.9932,-1.4106 -7.6875,-1.4062 z"
         id="path860" />
      <path
         style="fill:#a0ad27"
         inkscape:connector-curvature="0"
         d="m 633,578.69 c -5.5396,-1.5033 -13.963,0.76543 -18.112,4.531 -3.208,2.9112 -5.2987,8.7641 -1.6225,10.676 6.6466,3.4571 21.27,-1.8004 24.719,-7.972 1.5368,-2.7496 -1.5342,-6.299 -4.984,-7.2352 z"
         id="path862" />
    </g>
    <path
       style="fill:#56730f;stroke-width:0.28615239"
       inkscape:connector-curvature="0"
       d="m 17.273379,157.20157 c -4.920104,7.16154 5.147596,5.08064 -7.182997,43.43794 -1.9536781,6.0773 7.27428,10.08687 17.143676,11.01028 3.707104,-18.48744 7.544409,-41.83835 -6.224959,-52.94106 -1.067978,-0.86115 -2.350742,-1.33398 -3.735433,-1.50784 z"
       id="path866" />
    <path
       style="fill:#56730f;stroke-width:0.28615239"
       inkscape:connector-curvature="0"
       d="m 117.7329,154.25707 -0.99603,3.10218 -17.300209,11.79519 c 1.078829,2.20089 3.372019,5.08779 4.513199,14.17457 8.90506,-4.23535 16.75794,-9.69284 22.81521,-16.22228 1.09074,-1.17574 0.815,-1.53626 1.74894,-2.73401 -3.15197,-4.22618 -5.78256,-8.39427 -10.78107,-10.11577 z M 17.095965,168.76069 c 0.01826,3.32567 -0.404991,8.01256 -2.055262,15.10113 3.339685,1.83095 7.029907,3.45987 11.05693,4.84055 7.2036,2.4695 14.917983,3.97409 22.812356,4.58359 0.241595,-6.04153 0.268805,-12.30026 -0.371455,-18.22733 l -21.291456,-1.5929 z"
       id="path868" />
    <path
       style="fill:#56730f;stroke-width:0.28615239"
       inkscape:connector-curvature="0"
       d="m 101.11317,166.7934 c -0.9235,0.0213 -1.869149,0.20203 -2.805436,0.49167 -0.463567,5.27064 6.750336,4.5335 6.169446,38.4646 -0.10026,5.85869 9.45047,6.5197 18.91182,4.31489 -1.29719,-16.95253 -4.17496,-36.9623 -19.52075,-42.8227 -0.87472,-0.33412 -1.80479,-0.46889 -2.75508,-0.44703 z"
       id="path870" />
    <path
       style="fill:none;stroke:#4b660e;stroke-width:1.07006693"
       inkscape:connector-curvature="0"
       d="m 112.13004,154.13974 c 17.93403,2.86667 24.20907,25.12619 28.82414,41.7525 3.09359,11.14707 -37.36293,20.72116 -37.14831,9.12568 0.76256,-40.97702 -10.747029,-29.50517 -4.06423,-42.67105 2.13653,-4.2093 7.47088,-8.99262 12.38898,-8.20627 z"
       id="path872" />
    <path
       style="fill:none;stroke:#4b660e;stroke-width:1.04666519"
       inkscape:connector-curvature="0"
       d="m 31.294237,149.76201 c 14.870906,8.57223 13.749337,32.45114 12.847902,50.26554 -0.604467,11.94276 -38.9255004,8.3611 -35.2848334,-2.95963 12.8611314,-40.005 -0.643335,-32.43263 9.1334164,-43.21969 3.125788,-3.44911 9.225756,-6.43546 13.304044,-4.08437 z"
       id="path874" />
    <path
       style="fill:#8d9922;stroke:#484e11;stroke-width:0.92773503"
       inkscape:connector-curvature="0"
       d="m 121.38486,127.8942 -5.62821,0.94138 -4.76118,5.4573 -6.28782,20.81159 -15.90411,11.06144 -31.443083,6.0624 L 23.843041,169.4433 1.0391326,158.55808 -7.1600402,143.24215 c -3.0591128,16.52666 8.0843438,32.44585 30.1439792,40.27752 26.484791,9.40276 58.838041,4.61909 80.166101,-10.79236 3.42768,-2.47682 8.0608,-5.56154 10.75717,-8.55213 10.61191,-11.76999 12.72355,-24.95497 7.47686,-36.28231 z"
       id="path876" />
    <path
       style="fill:#76801d;stroke-width:0.26458332"
       inkscape:connector-curvature="0"
       d="m 121.39809,129.01867 -5.68907,0.94279 -4.81356,5.45836 -6.36059,20.81345 -16.077669,11.0654 -31.78175,6.07034 -33.87725,-2.77654 -23.0460017,-10.87967 -8.2835749,-15.31408 c -0.9627659,5.13953 -0.540094,10.22218 1.1736122,15.01881 4.1002479,6.68946 11.597746,13.32203 21.0883504,15.74297 12.147285,3.54568 25.03461,4.08993 37.671374,4.56882 12.048067,0.0952 27.286479,-1.63245 38.523333,-5.83723 9.819484,-3.79333 19.336546,-14.0634 21.383366,-23.3389 1.72196,-5.26336 1.26153,-11.67183 5.74251,-15.7779 1.67394,-0.60425 4.12089,-0.42468 6.19496,-0.6191 -0.45472,-1.74471 -1.0659,-3.46339 -1.84933,-5.13741 z"
       id="path878" />
    <path
       style="fill:#5e6617;stroke-width:0.45722708"
       inkscape:connector-curvature="0"
       d="m 118.89808,114.75832 c -1.46175,3.62839 -3.09601,6.94449 -4.96636,9.81404 -1.52113,2.3658 -4.08774,2.59175 -6.41915,3.22613 -3.51133,7.42895 -3.43163,16.89798 -5.54535,24.94557 -0.57541,3.26391 -1.56099,6.59189 -2.858126,9.89258 2.074086,3.91206 2.572586,3.71261 7.074136,4.61131 2.56407,-0.23958 4.68125,0.0455 7.69006,-0.89674 9.11693,-17.2154 10.51964,-35.30404 5.02523,-51.5948 z"
       id="path880" />
    <path
       style="fill:#330203;stroke-width:0.40401888"
       inkscape:connector-curvature="0"
       d="m 97.808592,123.89034 a 10.449081,25.083783 6.5956921 1 1 -0.874969,2.20561"
       id="path882" />
    <path
       style="fill:#b6c52c;stroke-width:0.26458332"
       inkscape:connector-curvature="0"
       d="m -5.6802257,149.52388 c -3.1019749,14.04805 7.9409393,27.53254 29.8820417,34.11009 26.471562,7.93564 58.258603,3.82217 79.531104,-9.48876 -8.105242,3.97987 -15.312761,6.43784 -25.133301,8.10419 -15.934531,2.70404 -33.046457,2.16384 -47.826082,-2.26684 C 18.391831,176.27072 9.4793406,170.36231 4.6221196,163.39133 l -2.189506,-0.88646 z"
       id="path884" />
    <path
       style="fill:#484f11;stroke:#a5b226;stroke-width:1.01655638;stroke-linecap:round;stroke-linejoin:round"
       inkscape:connector-curvature="0"
       d="m 36.614421,182.01957 c 0,0 -1.885974,4.12259 -0.883697,5.53275"
       id="path886" />
    <path
       style="fill:#484f11;stroke:#a5b226;stroke-width:1.00090396;stroke-linecap:round;stroke-linejoin:round"
       inkscape:connector-curvature="0"
       d="m 54.172732,183.72504 c 0,0 -0.427999,5.08693 0.858056,6.24184"
       id="path888" />
    <path
       style="fill:#484f11;stroke:#a5b226;stroke-width:1.01655638;stroke-linecap:round;stroke-linejoin:round"
       inkscape:connector-curvature="0"
       d="m 71.118678,182.46596 c 0,0 0.929222,5.31586 2.456303,6.2407"
       id="path890" />
    <path
       style="fill:#484f11;stroke:#a5b226;stroke-width:1.82837582;stroke-linecap:round;stroke-linejoin:round"
       inkscape:connector-curvature="0"
       d="m 100.76338,177.91726 c 0,0 6.63466,5.38296 9.92495,5.3742"
       id="path892" />
    <path
       style="fill:none;stroke:#484e11;stroke-width:0.92773503"
       inkscape:connector-curvature="0"
       d="m 121.53303,128.02913 -5.62822,0.94139 -4.76117,5.4573 -6.28783,20.81159 -15.904103,11.06144 -31.443083,6.06239 -33.517416,-2.785 -22.8039084,-10.88522 -8.1991732,-15.31594 c -3.0591124,16.52667 8.0843432,32.44586 30.1439796,40.27752 26.484791,9.40277 58.838041,4.6191 80.166104,-10.79235 3.42768,-2.47682 8.0608,-5.56154 10.75717,-8.55213 10.6119,-11.76999 12.72354,-24.95497 7.47686,-36.28231 z"
       id="path894" />
    <g
       transform="matrix(0.31774363,0.08780873,-0.08582569,0.3484764,-133.32005,-43.957847)"
       id="g904">
      <path
         style="fill:#82af16;stroke:#4b660e;stroke-width:3.29169989"
         inkscape:connector-curvature="0"
         d="m 594.13,432.05 c 51.257,20.667 54.751,92.455 57.144,146.03 1.6049,35.918 -124.92,38.012 -116.4,2.9401 30.099,-123.94 -11.838,-96.776 16.932,-132.31 9.198,-11.359 28.272,-22.328 42.329,-16.661 z"
         id="path896" />
      <path
         style="fill:#9ad01a"
         inkscape:connector-curvature="0"
         d="m 585.78,432.34 c -0.8981,0.001 -1.8018,0.0599 -2.7188,0.15625 -3.6678,0.38556 -7.4627,1.4942 -11.156,3.1562 -7.3871,3.324 -14.296,8.795 -18.688,14.219 -7.1277,8.8025 -9.6477,13.496 -10.156,17.312 -0.5083,3.816 0.97134,7.4033 2.5625,14.094 3.1823,13.381 6.1195,38.028 -8.9688,100.16 -0.94307,3.8832 -0.0966,6.9751 2.25,9.8438 2.3466,2.8686 6.332,5.422 11.469,7.4375 10.273,4.031 25.056,5.936 40.062,5.625 0.53157,-0.011 1.0618,-0.0459 1.5938,-0.0625 -12.002,-0.41994 -23.309,-2.2873 -31.656,-5.5625 -5.1367,-2.0155 -9.1222,-4.5689 -11.469,-7.4375 -2.3466,-2.8686 -3.1931,-5.9605 -2.25,-9.8438 15.088,-62.128 12.151,-86.775 8.9688,-100.16 -1.5912,-6.6904 -3.071,-10.277 -2.5625,-14.094 0.5085,-3.817 3.0286,-8.51 10.156,-17.312 4.3918,-5.4237 11.3,-10.895 18.688,-14.219 2.8519,-1.2833 5.7575,-2.2359 8.625,-2.7812 -1.5344,-0.34132 -3.1218,-0.53387 -4.75,-0.53125 z"
         id="path898" />
      <path
         style="fill:#729913"
         inkscape:connector-curvature="0"
         d="m 585.78,432.34 c -0.84749,9.4e-4 -1.6986,0.0694 -2.5625,0.15625 23.836,10.396 36.741,32.421 44.062,58.719 7.4992,26.937 8.9908,58.155 10.188,84.938 0.17676,3.9559 -1.3726,7.3715 -4.4062,10.531 -3.0336,3.1595 -7.5934,5.9647 -13.188,8.25 -11.188,4.5706 -26.431,7.0952 -41.438,7.4062 -6.3772,0.13217 -12.72,-0.11989 -18.688,-0.78125 9.0171,2.0743 19.797,3.007 30.688,2.7812 15.006,-0.31101 30.249,-2.8356 41.438,-7.4062 5.5941,-2.2853 10.154,-5.0902 13.188,-8.25 3.034,-3.1598 4.583,-6.5754 4.4062,-10.531 -1.1967,-26.783 -2.6883,-58 -10.188,-84.938 -7.4997,-26.938 -20.85,-49.404 -45.812,-59.469 -2.3944,-0.9654 -4.9932,-1.4106 -7.6875,-1.4062 z"
         id="path900" />
      <path
         style="fill:#b6c52c"
         inkscape:connector-curvature="0"
         d="m 630.11,576.54 c -6.7397,-1.1698 -17.55,2.0897 -23.202,6.6247 -4.3699,3.5059 -7.706,10.167 -3.3464,11.954 7.8824,3.2325 26.812,-3.8851 31.886,-11.019 2.2606,-3.1784 -1.1404,-6.8314 -5.3375,-7.5599 z"
         id="path902" />
    </g>
    <g
       transform="matrix(0.32878912,-0.00756701,0.00702619,0.30523877,-97.14466,39.876224)"
       id="g914">
      <path
         style="fill:#82af16;stroke:#4b660e;stroke-width:3.29169989"
         inkscape:connector-curvature="0"
         d="m 594.13,432.05 c 51.257,20.667 54.751,92.455 57.144,146.03 1.6049,35.918 -124.92,38.012 -116.4,2.9401 30.099,-123.94 -11.838,-96.776 16.932,-132.31 9.198,-11.359 28.272,-22.328 42.329,-16.661 z"
         id="path906" />
      <path
         style="fill:#9ad01a"
         inkscape:connector-curvature="0"
         d="m 585.78,432.34 c -0.8981,0.001 -1.8018,0.0599 -2.7188,0.15625 -3.6678,0.38556 -7.4627,1.4942 -11.156,3.1562 -7.3871,3.324 -14.296,8.795 -18.688,14.219 -7.1277,8.8025 -9.6477,13.496 -10.156,17.312 -0.5083,3.816 0.97134,7.4033 2.5625,14.094 3.1823,13.381 6.1195,38.028 -8.9688,100.16 -0.94307,3.8832 -0.0966,6.9751 2.25,9.8438 2.3466,2.8686 6.332,5.422 11.469,7.4375 10.273,4.031 25.056,5.936 40.062,5.625 0.53157,-0.011 1.0618,-0.0459 1.5938,-0.0625 -12.002,-0.41994 -23.309,-2.2873 -31.656,-5.5625 -5.1367,-2.0155 -9.1222,-4.5689 -11.469,-7.4375 -2.3466,-2.8686 -3.1931,-5.9605 -2.25,-9.8438 15.088,-62.128 12.151,-86.775 8.9688,-100.16 -1.5912,-6.6904 -3.071,-10.277 -2.5625,-14.094 0.5085,-3.817 3.0286,-8.51 10.156,-17.312 4.3918,-5.4237 11.3,-10.895 18.688,-14.219 2.8519,-1.2833 5.7575,-2.2359 8.625,-2.7812 -1.5344,-0.34132 -3.1218,-0.53387 -4.75,-0.53125 z"
         id="path908" />
      <path
         style="fill:#729913"
         inkscape:connector-curvature="0"
         d="m 585.78,432.34 c -0.84749,9.4e-4 -1.6986,0.0694 -2.5625,0.15625 23.836,10.396 36.741,32.421 44.062,58.719 7.4992,26.937 8.9908,58.155 10.188,84.938 0.17676,3.9559 -1.3726,7.3715 -4.4062,10.531 -3.0336,3.1595 -7.5934,5.9647 -13.188,8.25 -11.188,4.5706 -26.431,7.0952 -41.438,7.4062 -6.3772,0.13217 -12.72,-0.11989 -18.688,-0.78125 9.0171,2.0743 19.797,3.007 30.688,2.7812 15.006,-0.31101 30.249,-2.8356 41.438,-7.4062 5.5941,-2.2853 10.154,-5.0902 13.188,-8.25 3.034,-3.1598 4.583,-6.5754 4.4062,-10.531 -1.1967,-26.783 -2.6883,-58 -10.188,-84.938 -7.4997,-26.938 -20.85,-49.404 -45.812,-59.469 -2.3944,-0.9654 -4.9932,-1.4106 -7.6875,-1.4062 z"
         id="path910" />
      <path
         style="fill:#b6c52c"
         inkscape:connector-curvature="0"
         d="m 629.67,575.03 c -8.1797,-1.044 -19.717,2.7578 -24.877,7.7639 -3.9894,3.8702 -5.8072,11.073 -0.19838,12.848 10.141,3.2089 29.909,-4.9517 33.598,-12.712 1.6432,-3.4573 -3.4282,-7.2498 -8.5221,-7.8999 z"
         id="path912" />
    </g>
    <path
       style="fill:#4f4c09;stroke:#4f4c09;stroke-width:0.26458332"
       inkscape:connector-curvature="0"
       d="M 54.265361,81.531761 C 35.040472,82.148558 16.321466,90.873405 4.4363826,106.66347 l -3.620029,5.43084 c -8.1266772,13.76442 -10.2327605,22.27792 -6.1285439,36.43577 2.0550452,1.37404 4.7114354,9.72714 6.9725649,10.95851 27.6701244,15.06749 63.1375204,14.95769 90.4769134,1.96813 l 11.103242,-28.45064 8.73178,-6.34286 2.413,1.59465 C 108.27211,108.353 104.72035,104.34482 92.420398,91.991428 82.816019,82.345514 67.417005,81.108057 54.262186,81.530068 Z"
       id="path916" />
    <path
       style="fill:#5f8010;stroke-width:0.28615239"
       inkscape:connector-curvature="0"
       d="m 5.4381157,160.60106 c -1.0995413,0.5837 -2.1212195,1.25901 -2.9736959,1.98625 -2.32619033,1.98426 -3.6055206,3.34111 -4.3017293,4.55268 4.7690156,4.78476 11.1939961,8.84068 18.6788845,10.52983 3.432685,0.89789 6.920882,1.57593 10.430542,2.09839 -0.473297,-3.6473 -1.328635,-7.09372 -2.701393,-10.20677 -5.456927,-1.16999 -10.683787,-3.03837 -15.3515052,-6.10392 -1.3568773,-0.85385 -2.6168632,-1.81303 -3.7809312,-2.85655 z m 92.1553823,5.61288 c -4.114013,0.1972 -8.571123,3.15884 -10.879801,6.09076 -2.697244,3.42524 -3.339685,4.98677 -3.157692,6.57092 5.874424,-1.15867 11.545964,-2.69657 16.479805,-4.6683 2.45767,-1.0124 4.89263,-2.40062 7.19844,-4.06107 -1.98002,-1.52674 -4.2505,-2.75617 -6.87566,-3.59665 -0.882583,-0.28255 -1.815638,-0.38104 -2.765035,-0.33554 z"
       id="path918" />
    <path
       style="fill:none;stroke:#4b660e;stroke-width:1.13199031"
       inkscape:connector-curvature="0"
       d="m 18.383651,158.76682 c 14.512791,11.70249 9.461628,37.02527 5.624325,55.90274 -2.572767,12.65709 -42.957199,2.27663 -37.239874,-9.19694 20.2012147,-40.54493 4.5443861,-34.76179 16.7353371,-44.61688 3.8976814,-3.15054 10.8998309,-5.29811 14.8799249,-2.08883 z"
       id="path920" />
    <path
       style="fill:#baba00;stroke:#4f4c09;stroke-width:0.95670688;stroke-linecap:round;stroke-linejoin:round"
       inkscape:connector-curvature="0"
       d="m 55.127903,81.09541 c -14.50631,0.46019 -28.739041,5.123656 -40.269583,13.590588 -1.721882,1.410837 -1.478412,1.731962 -1.273333,3.088745 4.881827,4.293127 13.38527,9.787207 16.550745,10.188577 4.288896,0.5438 21.021675,-5.43666 23.71381,-8.478839 1.857084,-2.098516 3.679296,-10.30605 4.10845,-16.37321 0.123457,-0.799704 -0.226004,-2.450968 -2.830248,-2.015676 z"
       id="path922" />
    <path
       style="fill:#adbf8f;stroke:#4f4c09;stroke-width:0.95866477;stroke-linecap:round;stroke-linejoin:round"
       inkscape:connector-curvature="0"
       d="m 58.215591,83.773073 c -1.627982,5.968471 -2.61366,14.7066 -1.482672,17.257447 1.596733,3.60124 15.698787,13.54349 19.987418,14.09012 4.288631,0.54663 21.894001,-5.19139 24.585613,-8.246 0.56759,-0.64416 0.92755,-1.36589 1.45225,-2.92047 1.52632,-3.34804 -6.698462,-9.621841 -9.347202,-12.189358 -7.702818,-7.460985 -18.946022,-9.9695 -29.998462,-10.550789 -1.792525,0.06819 -4.458229,-0.864209 -5.198268,2.559209 z"
       id="path924" />
    <path
       style="fill:#ba9500;stroke:#4f4c09;stroke-width:0.96165454;stroke-linecap:round;stroke-linejoin:round"
       inkscape:connector-curvature="0"
       d="m 10.93455,98.314308 c -2.4413114,2.399642 -4.7159344,5.015182 -6.7823304,7.855742 l -3.694112,5.75046 c -4.905375,8.59922 -7.6602166,15.25746 -8.2264249,22.35835 -0.556895,2.88713 0.5083968,3.71475 0.9869487,4.05394 2.8691416,2.2683 4.5696187,4.49104 6.1475937,4.70932 4.1552815,0.57457 21.9172899,-6.37566 24.5199959,-9.54458 2.602706,-3.16891 5.122862,-19.73712 3.570287,-23.48045 -1.090533,-2.62921 -8.161866,-8.51191 -13.714412,-11.981388 -0.740701,-0.171709 -1.920028,-0.583565 -2.807229,0.278765 z"
       id="path926" />
    <path
       style="fill:#a6a66c;stroke:#4f4c09;stroke-width:0.9932723;stroke-linecap:round;stroke-linejoin:round"
       inkscape:connector-curvature="0"
       d="m 53.482195,101.95021 c -5.475023,0.22872 -20.587758,5.97403 -23.153158,8.99345 -2.736321,3.22051 -5.396706,20.05119 -3.768725,23.85193 1.627822,3.80074 15.985595,14.29305 20.349633,14.87328 4.364037,0.58029 21.382566,-5.7396 24.118887,-8.96011 2.736321,-3.22051 5.386652,-20.05092 3.758935,-23.85166 -1.627822,-3.80074 -15.985595,-14.29305 -20.349633,-14.87329 -0.272759,-0.0363 -0.590867,-0.0487 -0.95586,-0.0334 z"
       id="path928" />
    <path
       style="fill:#a69400;stroke:#4f4c09;stroke-width:0.94596475;stroke-linecap:round;stroke-linejoin:round"
       inkscape:connector-curvature="0"
       d="m 99.408568,108.83361 c -5.16758,0.21763 -19.425707,6.30635 -21.845851,9.20671 -2.581301,3.09377 -5.07656,19.25717 -3.538537,22.91027 1.537917,3.6531 15.09395,13.75039 19.213248,14.30972 0.59214,0.0804 1.43753,0.0201 2.4475,-0.14509 l 8.556892,-22.33348 8.85455,-6.55002 2.4512,1.64777 c -1.44732,-4.79213 -2.75087,-8.67939 -4.06056,-12.00441 -2.62916,-5.45677 -4.4233,-7.50411 -12.078232,-7.04136 z"
       id="path930" />
    <path
       style="fill:#bfac00;stroke:#4f4c09;stroke-width:0.93749809;stroke-linecap:round;stroke-linejoin:round"
       inkscape:connector-curvature="0"
       d="m 23.528716,136.72599 c -5.167577,0.21587 -22.4258184,5.49513 -24.8470209,8.34469 -1.2818004,1.50871 -1.5050823,3.10991 -2.2644364,7.87188 0.9738518,1.87855 3.9036629,6.73709 4.8143579,7.23292 12.2229564,6.65586 25.9439834,10.3931 39.8330214,11.40142 2.181939,-5.14694 3.914775,-17.64956 2.573469,-20.78117 -1.536409,-3.58748 -15.087864,-13.49031 -19.206897,-14.03826 -0.257437,-0.0342 -0.557689,-0.0459 -0.902176,-0.0315 z"
       id="path932" />
    <path
       style="fill:#a7aa00;stroke:#4f4c09;stroke-width:0.97517478;stroke-linecap:round;stroke-linejoin:round"
       inkscape:connector-curvature="0"
       d="m 70.240903,143.48874 c -5.59144,0.22562 -21.034375,5.6843 -23.659306,8.53863 -2.325582,2.52894 -4.602162,13.91047 -4.361127,19.75009 17.345025,0.71059 34.805937,-2.19038 50.170288,-8.3992 0.17626,-2.60369 0.0764,-4.7842 -0.41931,-5.85735 -1.65555,-3.58457 -16.298861,-13.46253 -20.75418,-14.00254 -0.278447,-0.0337 -0.603303,-0.0449 -0.976048,-0.0298 z"
       id="path934" />
    <g
       style="fill:#cbbb00"
       transform="matrix(0.30400625,-0.00699664,0.00649658,0.28223104,131.68774,120.47528)"
       id="g950">
      <path
         inkscape:connector-curvature="0"
         d="m -246.26,-144.02 c -0.69427,-0.0201 -1.5071,0.0381 -2.4733,0.1875 a 1.8451,1.7718 0 0 1 -0.26034,0 c -47.297,0.44333 -94.045,15.643 -132.25,44.406 l 0.0326,0.0313 c -2.7984,2.356 -3.7408,3.6244 -4.0354,4.5938 -0.25723,0.84651 -0.041,2.1833 0.19526,4.0938 1.0856,1.0682 2.2313,2.1776 3.417,3.2812 0.47854,-0.44719 0.97205,-0.91338 1.5946,-1.4375 38.549,-29.044 85.699,-44.396 133.43,-44.844 1.7972,-0.27795 3.2676,-0.22708 4.4584,0.0313 0.18012,-1.5913 0.3228,-3.164 0.45561,-4.6875 a 1.8451,1.7718 0 0 1 0,-0.125 c 0.16936,-1.0247 0.006,-2.7973 -0.84612,-3.9062 -0.63905,-0.83174 -1.6271,-1.5647 -3.7099,-1.625 z"
         id="path936" />
      <path
         inkscape:connector-curvature="0"
         d="m -229.15,-143.12 c -0.75286,0.006 -1.4487,0.0884 -2.1151,0.21967 -1.3327,0.26268 -2.442,0.74849 -3.4492,1.8202 -1.0072,1.0716 -1.9121,2.8116 -2.5381,5.6173 a 1.8449,1.7793 0 0 1 -0.0325,0.0628 c -2.8705,10.388 -5.2909,23.293 -6.5404,34.677 -1.0558,9.6189 -1.1617,18.275 -0.29285,23.003 0.49152,-13.44 3.5392,-32.068 7.4515,-46.225 2.6915,-12.063 11.38,-8.5346 17.278,-8.63 36.289,2.9584 73.087,12.774 97.846,39.824 5.6518,6.1788 19.227,18.337 26.194,29.248 0.1468,-1.9474 -0.44259,-4.3139 -1.7246,-6.9982 -1.7719,-3.71 -4.7951,-7.8752 -8.265,-11.988 -6.94,-8.2254 -15.621,-16.226 -20.012,-21.026 -24.306,-26.554 -60.558,-36.257 -96.61,-39.196 -1.61,0.0108 -3.2537,-0.1638 -4.8158,-0.28244 -0.8126,-0.0618 -1.6225,-0.13164 -2.3754,-0.12552 z"
         id="path938" />
      <path
         inkscape:connector-curvature="0"
         d="m -391.86,-88.098 c -0.90147,0.0695 -1.6942,0.37874 -2.5217,1.2061 -8.1404,8.2306 -15.747,17.25 -22.695,27.056 h -0.0316 l -12.451,19.885 c -16.724,29.957 -26.131,53.013 -28.495,77.746 a 1.7872,1.8483 0 0 1 -0.0316,0.19559 c -0.97677,4.8516 -0.61588,7.7796 0.0316,9.5512 0.19874,0.54391 0.43253,0.96563 0.66195,1.3365 2.5769,-24.668 12.098,-47.792 28.622,-77.388 l 12.577,-20.048 c 7.0082,-9.891 14.677,-18.986 22.885,-27.285 2.9819,-2.9815 6.8452,-1.4182 9.2673,-0.74975 15.155,10.73 33.664,27.596 41.167,38.27 -0.17886,-2.8313 -0.51037,-5.0712 -1.0087,-6.4544 -1.39,-3.8583 -7.8697,-11.77 -16.171,-19.82 -8.2254,-7.9763 -18.234,-16.371 -27.077,-22.656 -1.2383,-0.35167 -2.5598,-0.77317 -3.7826,-0.84755 -0.32866,-0.0199 -0.64516,-0.0232 -0.94565,0 z"
         id="path940" />
      <path
         inkscape:connector-curvature="0"
         d="m -255.96,-70.001 c -8.3804,0.16919 -25.499,4.9666 -41.254,11.058 -7.8776,3.046 -15.48,6.4108 -21.587,9.6348 -6.1078,3.224 -10.771,6.457 -12.548,8.6084 -1.8963,2.295 -4.3256,8.0093 -6.4563,15.263 -2.1308,7.2541 -4.0924,16.121 -5.5955,25.031 -1.5031,8.91 -2.547,17.877 -2.9136,25.428 -0.28592,5.8886 -0.0949,10.956 0.49663,14.237 0.80578,-22.861 8.3855,-59.998 15.495,-68.602 8.662,-10.483 58.763,-29.6 76.78,-29.964 1.2011,-0.0242 2.2514,0.048 3.1454,0.19866 12.714,2.1428 50.78,32.666 62.643,48.969 -0.18808,-2.8691 -0.53789,-5.1555 -1.0595,-6.5556 -1.0393,-2.7896 -4.8162,-7.7756 -10.032,-13.244 -5.2159,-5.4681 -11.876,-11.565 -18.839,-17.316 -6.963,-5.751 -14.239,-11.141 -20.594,-15.23 -6.3554,-4.0891 -11.93,-6.8223 -14.866,-7.3171 -0.75137,-0.12661 -1.7078,-0.22101 -2.8143,-0.19866 z"
         id="path942" />
      <path
         inkscape:connector-curvature="0"
         d="m -101.07,-42.088 c -1.4045,0.0111 -2.8785,0.0646 -4.4375,0.12727 -0.0104,9e-5 -0.0209,9e-5 -0.0313,0 -7.9087,0.16255 -24.353,5.486 -39.231,11.348 -7.4391,2.931 -14.345,7.4683 -20.113,10.569 -5.768,3.1007 -10.166,6.205 -11.844,8.2724 -1.7898,2.2053 -4.0856,7.6998 -6.0938,14.668 -2.0082,6.9682 -3.8351,15.464 -5.25,24.022 -1.4149,8.5583 -2.438,17.214 -2.7812,24.467 -0.26765,5.6565 -0.066,10.504 0.5,13.65 0.75425,-21.961 7.8846,-57.626 14.594,-65.893 8.1756,-10.074 55.494,-30.445 72.5,-30.794 24.072,-0.96918 30.403,5.9157 38.094,23.381 -0.97345,-3.1295 -1.9372,-6.1324 -2.9062,-8.9724 -4.0526,-9.5993 -7.3977,-15.41 -12.5,-18.74 -3.8457,-2.5098 -8.9374,-5.7795 -16.5,-6.0408 -1.2604,-0.0436 -2.5955,-0.0748 -4,-0.0636 z"
         id="path944" />
      <path
         inkscape:connector-curvature="0"
         d="m -357.11,50.608 c -7.9428,0.16034 -26.627,4.521 -43.969,10.094 -8.671,2.7864 -17.066,5.8966 -23.75,8.875 -6.684,2.9784 -11.721,6.0498 -13.281,7.9375 -2.0014,2.4221 -3.1456,4.7901 -4.2188,8.8125 -1.0394,3.8962 -1.9579,9.4976 -3.3125,17.469 0.49344,1.0712 1.1504,2.4439 1.875,3.9062 1.8474,-10.414 3.1311,-15.24 6.625,-19.469 8.1756,-9.8944 65.307,-27.188 82.312,-27.531 1.1337,-0.0229 2.125,0.0453 2.9688,0.1875 12.013,2.0245 47.968,30.906 59.125,46.281 -0.18613,-2.7301 -0.5361,-4.921 -1.0312,-6.25 -0.98095,-2.633 -4.5145,-7.339 -9.4375,-12.5 -4.923,-5.161 -11.24,-10.915 -17.812,-16.344 -6.572,-5.429 -13.408,-10.516 -19.406,-14.375 -5.998,-3.859 -11.291,-6.4704 -14.062,-6.9375 -0.70919,-0.11955 -1.5807,-0.17735 -2.625,-0.15625 z"
         id="path946" />
      <path
         inkscape:connector-curvature="0"
         d="m -203.98,78.358 c -8.5571,0.15965 -26.074,4.7112 -42.163,10.469 -8.0448,2.8788 -15.774,6.0479 -22.012,9.0938 -6.2375,3.0458 -10.999,6.094 -12.815,8.125 -1.6084,1.799 -3.6649,5.8376 -5.5113,11.062 -1.8464,5.225 -3.6056,11.663 -5.1056,18.469 -2.8523,12.941 -4.6975,27.147 -4.7337,37.219 0.3951,0.0254 0.78825,0.0384 1.1834,0.0625 2.1188,-21.266 8.829,-48.988 15.182,-56.094 8.8458,-9.8944 60.044,-27.969 78.444,-28.312 1.2266,-0.0229 2.2655,0.0453 3.1783,0.1875 12.966,2.0196 51.766,30.753 63.938,46.156 -0.17584,-2.6703 -0.52371,-4.824 -1.0482,-6.125 -1.0614,-2.633 -4.8846,-7.339 -10.211,-12.5 -5.3266,-5.161 -12.161,-10.915 -19.273,-16.344 -7.1114,-5.4283 -14.507,-10.516 -20.997,-14.375 -6.4903,-3.8595 -12.217,-6.4392 -15.215,-6.9062 -0.76727,-0.1195 -1.7102,-0.2086 -2.8402,-0.1875 z"
         id="path948" />
    </g>
    <g
       style="fill:#998a04"
       transform="matrix(0.30220708,-0.00695537,0.00637831,0.27709812,-87.765616,46.72003)"
       id="g964">
      <path
         inkscape:connector-curvature="0"
         d="m 410.22,365.22 c 6.376,6.2899 4.8595,5.1095 4.8694,5.2112 6.1132,19.378 4.5916,50.097 -3.7845,61.55 -7.5081,10.266 -42.221,-2.9335 -58.326,-7.2442 -29.491,-10.497 -58.771,-24.569 -80.415,-43.329 -0.39606,2.2604 -0.76551,4.4006 -1.25,7.25 3.0595,6.7318 12.325,24.17 15.281,26 39.682,24.567 84.508,38.922 130.09,43.625 7.563,-18.049 13.695,-60.917 9.522,-72.117 -1.6779,-4.5037 1.4732,-6.7187 -6.8238,-14.5 z"
         id="path952" />
      <path
         inkscape:connector-curvature="0"
         d="m 478.78,143.28 c -2.8538,18.591 -8.0907,38.217 -13.094,44.031 -9.0814,10.554 -64.535,30.369 -78.594,28.094 -9.4041,-1.5219 -32.879,-18.21 -48.906,-32.938 -0.61487,0.45317 -1.2332,0.91496 -1.8438,1.375 -5.7678,4.8558 -4.9778,6.0227 -4.4062,10.844 15.725,15.601 43.248,35.727 53.625,37.406 14.059,2.2753 69.544,-17.54 78.625,-28.094 6.2643,-7.28 12.88,-36.174 14.75,-57.625 0.13944,-0.84365 0.1332,-1.9783 -0.15625,-3.0938 z"
         id="path954" />
      <path
         inkscape:connector-curvature="0"
         d="m 473.78,178.41 c -1.8352,13.619 -2.2464,26.064 -0.21875,31.312 4.977,12.883 50.568,49.246 64.625,51.531 14.057,2.285 72.388,-16.589 81.469,-27.188 1.9148,-2.2349 3.1574,-4.7874 5,-10.25 1.2792,-2.847 0.66368,-6.3489 -1.0938,-10.156 -0.74185,1.4777 -1.4962,2.6253 -2.4062,3.6875 -9.0805,10.598 -67.38,29.472 -81.438,27.188 -14.058,-2.284 -59.679,-38.648 -64.656,-51.531 -1.1396,-2.9498 -1.5073,-8.1682 -1.2812,-14.594 z"
         id="path956" />
      <path
         inkscape:connector-curvature="0"
         d="m 377.81,255.47 c -2.6138,20.486 -8.0122,43.366 -13.188,49.844 -8.7964,11.009 -67.726,34.186 -81.344,31.812 -5.1713,-0.9013 -10.583,-8.921 -19.844,-17.188 -0.99139,-0.79448 -2.771,-2.3319 -3.375,-6 -0.43973,2.7408 -0.82879,5.5093 -1.0938,8.2812 -2.0494,10.179 1.3898,13.197 2.9375,14.438 9.2607,8.2665 14.672,16.255 19.844,17.156 13.618,2.3734 72.547,-20.772 81.344,-31.781 6.6691,-8.3469 13.778,-43.987 14.719,-66.562 z"
         id="path958" />
      <path
         inkscape:connector-curvature="0"
         d="m 532.97,283.59 c -2.7121,20.924 -8.4299,44.466 -13.906,51.094 -9.2394,11.182 -65.665,32.192 -79.969,29.781 -14.304,-2.4106 -60.717,-40.751 -65.781,-54.344 -1.2133,-3.2566 -1.5502,-9.1541 -1.25,-16.375 -1.8717,14.384 -2.3445,27.556 -0.28125,33.094 5.0641,13.593 51.478,51.902 65.781,54.312 14.304,2.4106 70.729,-18.568 79.969,-29.75 7.029,-8.5068 14.499,-44.896 15.438,-67.812 z"
         id="path960" />
      <path
         inkscape:connector-curvature="0"
         d="m 539.81,372.25 c 0.5704,1.0913 1.1516,2.1841 1.75,3.25 5.957,10.612 20.73,19.8 18.125,31.688 -1.6674,7.6101 -11.986,10.269 -19.031,13.594 -37.038,11.007 -80.798,21.376 -118.97,19.906 -0.85564,6.8091 -1.3063,13.2 -1.2188,18.375 56.971,3.93 114.61,-4.9217 165.59,-25.656 0.7765,-9.206 0.61084,-16.909 -0.9375,-20.75 -3.5039,-8.6921 -26.374,-28.085 -45.312,-40.406 z"
         id="path962" />
    </g>
    <path
       style="fill:#998a04;stroke-width:0.26458332"
       inkscape:connector-curvature="0"
       d="m 105.71359,109.88136 c 3.37476,4.05262 6.34974,13.30749 4.8559,18.07501 l 2.23957,-1.63703 2.43728,1.61605 c -1.43742,-4.70456 -2.73102,-8.52117 -4.03198,-11.78533 -1.32583,-2.71886 -1.58094,-3.83673 -2.24033,-4.74954 -0.47861,-0.66268 -0.95153,-1.45672 -3.2602,-1.51889 z m 2.83819,16.35019 c -0.46308,8e-4 -1.64529,1.76866 -5.19933,4.37039 -7.378962,7.71896 -7.570792,16.4801 -15.740593,21.74319 2.258721,1.36179 4.249741,2.32283 5.443271,2.48256 0.58862,0.0788 1.43037,0.0111 2.43441,-0.15132 l 8.519322,-21.92523 4.01452,-2.93423 c -1.72842,-0.10899 2.33106,-3.58881 0.52853,-3.58537 z"
       id="path966" />
    <g
       style="fill:none;stroke:#4f4c09;stroke-linecap:round;stroke-linejoin:round"
       transform="matrix(0.30400625,-0.00699664,0.00649658,0.28223104,-88.591116,45.153696)"
       id="g982">
      <path
         style="stroke-width:3.2651999"
         inkscape:connector-curvature="0"
         d="m 469.77,138.99 c -47.727,0.44736 -94.872,15.802 -133.42,44.846 -5.7678,4.8558 -4.9916,6.0128 -4.4201,10.834 15.725,15.601 43.265,35.75 53.642,37.43 14.059,2.2753 69.524,-17.539 78.605,-28.093 6.2643,-7.28 12.877,-36.196 14.746,-57.648 0.4664,-2.8219 -0.55755,-8.698 -9.1525,-7.3688 z"
         id="path968" />
      <path
         style="stroke-width:3.27189994"
         inkscape:connector-curvature="0"
         d="m 479.73,148.73 c -5.8039,21.003 -11.709,52.922 -6.1805,60.992 10.828,15.809 40.592,41.195 64.645,51.526 13.086,5.6202 67.886,-16.336 81.454,-27.198 2.2974,-1.8393 3.1528,-4.7613 4.9955,-10.224 5.2714,-11.732 -21.294,-34.619 -29.808,-43.928 -24.759,-27.049 -61.533,-36.849 -97.822,-39.808 -5.8984,0.0954 -14.592,-3.4237 -17.284,8.6393 z"
         id="path970" />
      <path
         style="stroke-width:3.2822001"
         inkscape:connector-curvature="0"
         d="m 323.18,196.37 c -8.2078,8.2988 -15.884,17.376 -22.893,27.267 L 287.706,243.7 c -16.778,30.053 -26.339,53.407 -28.738,78.506 -2.0494,10.179 1.3903,13.196 2.938,14.437 9.2607,8.2665 14.683,16.276 19.854,17.178 13.618,2.3734 72.539,-20.792 81.335,-31.801 8.7964,-11.009 18.336,-69.477 13.515,-82.86 -3.3863,-9.3997 -26.189,-30.808 -44.182,-43.547 -2.4222,-0.66844 -6.2682,-2.2231 -9.2502,0.75843 z"
         id="path972" />
      <path
         style="stroke-width:3.3901"
         inkscape:connector-curvature="0"
         d="m 462.79,212.71 c -18.017,0.36374 -68.138,19.478 -76.8,29.961 -9.2394,11.182 -19.26,70.567 -14.196,84.159 5.0641,13.593 51.474,51.918 65.777,54.329 14.304,2.4106 70.733,-18.583 79.973,-29.765 9.2394,-11.182 19.227,-70.567 14.163,-84.159 -2.1759,-5.8402 -13.211,-14.739 -25.178,-24.868 -15.885,-13.446 -33.97,-27.947 -40.599,-29.461 -0.89396,-0.15065 -1.9389,-0.2205 -3.14,-0.19626 z"
         id="path974" />
      <path
         style="stroke-width:3.22860003"
         inkscape:connector-curvature="0"
         d="m 613.25,240.83 c -5.7696,0.11858 -15.297,5.7902 -25.335,9.3384 -19.549,6.9099 -41.781,14.829 -47.183,21.485 -8.7206,10.746 -18.147,67.781 -13.368,80.843 4.7797,13.062 48.583,49.924 62.083,52.24 1.9407,0.333 4.7246,0.18818 8.0576,-0.31433 l 29.822,-78.392 29.606,-22.474 7.9341,6.035 c -4.3957,-17.088 -8.3871,-30.96 -12.441,-42.842 -8.2309,-19.538 -13.974,-26.935 -39.176,-25.92 z"
         id="path976" />
      <path
         style="stroke-width:3.19970012"
         inkscape:connector-curvature="0"
         d="m 361.68,333.43 c -6.3965,0.20192 -29.168,7.4338 -49.944,14.408 -14.547,4.8828 -29.009,9.0439 -32.376,13.119 -4.3283,5.2383 -5.1835,10.89 -8.0404,27.692 3.0595,6.7318 12.324,24.176 15.28,26.006 39.682,24.567 84.508,38.919 130.09,43.622 7.563,-18.049 14.206,-62.182 10.033,-73.383 -4.7797,-12.829 -48.583,-49.003 -62.083,-51.278 -0.84377,-0.14219 -1.8303,-0.22101 -2.9637,-0.18523 z"
         id="path978" />
      <path
         style="stroke-width:3.3283"
         inkscape:connector-curvature="0"
         d="m 514.74,361.18 c -8.379,0.15633 -21.45,6.7983 -36.332,11.861 -17.798,6.0548 -37.28,11.06 -42.098,16.448 -7.8371,8.7661 -16.183,48.886 -15.833,69.585 56.971,3.93 114.6,-4.92 165.58,-25.655 0.7765,-9.206 0.61306,-16.936 -0.93528,-20.777 -5.1716,-12.829 -52.566,-49.003 -67.173,-51.278 -0.91293,-0.14221 -1.98,-0.20813 -3.2067,-0.18524 z"
         id="path980" />
    </g>
    <path
       style="fill:none;stroke:#4b660e;stroke-width:1.04308283"
       inkscape:connector-curvature="0"
       d="m 101.23336,167.26269 c 16.99803,5.92049 18.65112,27.80686 19.81434,44.14188 0.78002,10.95132 -40.80534,12.54834 -38.252859,1.77825 9.025533,-38.05826 -4.57243,-29.4508 4.637385,-40.51346 2.944509,-3.53684 9.13885,-7.02961 13.800264,-5.40598 z"
       id="path984" />
    <path
       inkscape:connector-curvature="0"
       d="m 118.01143,122.40409 c -7.80442,0.43524 -14.13352,6.63416 -15.32176,13.63636 -2.4425,7.39061 -7.192172,16.47534 -12.694976,22.65072 -5.59091,4.68841 -16.470047,5.81104 -23.57702,7.23053 -9.5758,1.34453 -19.305587,1.06206 -28.950708,0.92681 -11.168856,-0.71353 -23.017692,-1.92389 -32.2553544,-8.34046 -6.8323352,-4.5511 -10.8368039,-11.97319 -12.099131,-19.57785 -13.7705036,1.62507 -2.4221281,27.54577 18.7719234,32.89036 12.27746,3.54277 25.298929,4.08675 38.070895,4.56247 12.177977,0.0922 27.585458,-1.6402 38.94402,-5.84782 9.926369,-3.79571 19.542921,-14.07213 21.614341,-23.34789 1.74183,-5.26388 1.28191,-11.67262 5.81237,-15.77975 3.76846,-1.34665 11.43106,1.17509 10.11079,-5.13927 -1.15237,-3.05567 -5.31813,-3.95314 -8.42672,-3.86291 z"
       style="color:#000000;text-indent:0;text-decoration:none;text-decoration-line:none;text-transform:none;fill:#8f8f09;stroke:#4f4c09;stroke-width:0.93770981"
       id="path986" />
    <path
       inkscape:connector-curvature="0"
       d="m 118.01672,122.40409 c -7.80071,0.43516 -14.12505,6.63125 -15.31276,13.63319 -2.44131,7.3906 -7.190582,16.47825 -12.690745,22.65336 -5.588264,4.68841 -16.464227,5.8121 -23.568025,7.23132 -9.571566,1.34443 -19.291564,1.05712 -28.932187,0.92176 -10.814843,-0.69133 -22.274476,-1.84401 -31.3742914,-7.74938 0.484584,0.37624 0.981393,0.74173 1.498309,1.08622 9.2336944,6.41667 21.0796184,7.62476 32.2447704,8.33834 9.640094,0.13537 19.360356,0.42267 28.932188,-0.92175 7.103797,-1.41926 17.980024,-2.5431 23.568029,-7.23133 5.50015,-6.17511 10.249422,-15.26275 12.690732,-22.65336 1.18767,-7.0022 7.51205,-13.19821 15.31276,-13.63319 1.67177,-0.0485 3.64623,0.196 5.29617,0.90176 -1.685,-2.02555 -5.04613,-2.65272 -7.66339,-2.57689 z M -6.824284,138.92864 c -11.344275,1.33922 -5.627952,19.17806 8.5907566,28.40302 -11.6165316,-8.91063 -16.2742566,-23.35583 -8.1616024,-26.27683 -0.1656848,-0.70471 -0.3113088,-1.41554 -0.4291277,-2.12566 z"
       style="color:#000000;text-indent:0;text-decoration:none;text-decoration-line:none;text-transform:none;fill:#beaf00;stroke-width:0.26458332"
       id="path988" />
    <path
       inkscape:connector-curvature="0"
       d="m 118.01672,122.40409 c -7.80071,0.43516 -14.12717,6.63416 -15.31462,13.6361 -2.44131,7.3906 -7.188722,16.47534 -12.688885,22.65045 -5.588264,4.68841 -16.462375,5.81104 -23.566172,7.23027 -9.571567,1.34442 -19.296856,1.06185 -28.937479,0.92649 -11.163829,-0.71364 -23.007373,-1.92413 -32.2421254,-8.34099 -6.8294247,-4.5511 -10.8320414,-11.97319 -12.0938393,-19.57785 -13.7641533,1.62492 -2.4207258,27.54577 18.7637207,32.89036 12.271904,3.54277 25.287288,4.08702 38.055021,4.563 12.17242,0.0923 27.572229,-1.63991 38.925499,-5.84729 9.921878,-3.79571 19.53392,-14.07186 21.60429,-23.34789 1.74098,-5.26389 1.28119,-11.67262 5.80946,-15.77975 4.59872,-1.98329 11.42603,1.17522 10.10602,-5.139 -1.15186,-3.05568 -5.31574,-3.95341 -8.42275,-3.86318 z"
       style="color:#000000;text-indent:0;text-decoration:none;text-decoration-line:none;text-transform:none;fill:none;stroke:#4f4c09;stroke-width:0.93749809"
       id="path990" />
    <path
       style="fill:#82af16;stroke:#4b660f;stroke-width:1.58955002"
       inkscape:connector-curvature="0"
       d="m 171.94432,28.119277 c -13.26134,0.421173 -22.89357,6.503838 -29.72039,14.817441 -1.85809,2.262758 -3.33644,4.880616 -4.83018,7.366131 -5.05465,12.343346 -5.4061,27.774668 -8.86256,41.231098 -3.01997,11.757063 -9.06729,21.812863 -14.09295,29.523053 -1.52114,2.36578 -4.09372,2.58375 -6.42529,3.21809 -3.51134,7.42895 -3.43103,16.90511 -5.54493,24.9527 -0.57539,3.26397 -1.5518,6.5957 -2.848894,9.89638 2.074104,3.91207 2.577464,3.7169 7.078974,4.6156 69.35769,-6.48053 137.89827,-58.18572 103.09642,-115.843204 -9.48154,-12.116828 -20.37063,-19.140325 -34.40253,-19.745641 -1.18027,-0.05093 -2.32475,-0.0667 -3.44947,-0.03097 z"
       id="path992" />
    <path
       inkscape:connector-curvature="0"
       d="m 110.74455,123.12902 c -1.14826,0.31577 -2.26898,-0.18557 -3.41736,0.11416 -4.41503,7.56363 -3.948,16.84851 -6.47011,24.90703 -0.64582,3.24608 -1.825503,6.59044 -3.435324,9.93016 0.747352,0.93844 1.916999,1.91462 2.497023,2.42075 2.487961,-4.40255 3.691571,-9.16161 4.545941,-13.45358 2.49819,-7.97761 2.00188,-16.39734 6.27988,-23.9186 z"
       style="color:#000000;text-indent:0;text-decoration:none;text-decoration-line:none;text-transform:none;fill:#4b660f;stroke-width:0.45722708"
       id="path994" />
    <path
       style="fill:#729913;stroke-width:0.45722708"
       inkscape:connector-curvature="0"
       d="m 177.81785,28.33014 c 8.85905,2.969866 16.35318,9.020285 23.13651,17.688419 34.26107,56.767591 -31.63358,107.758031 -99.86751,115.510101 1.18167,1.47997 2.3425,1.55392 5.60335,2.20497 69.35769,-6.48051 137.89826,-58.1762 103.09642,-115.833684 -8.92803,-11.409198 -19.09708,-18.295164 -31.96921,-19.56719 z"
       id="path996" />
    <path
       style="fill:#ffffff;stroke:#4b660f;stroke-width:1.75296307"
       inkscape:connector-curvature="0"
       d="m 167.86317,67.735773 a 16.727991,12.896656 87.428158 1 1 -25.63002,3.16878 16.727991,12.896656 87.428158 1 1 25.63002,-3.16878 z"
       id="path998" />
    <path
       style="fill:#9ad01a;stroke-width:0.45722708"
       inkscape:connector-curvature="0"
       d="m 171.59288,29.058616 c -12.31771,0.652906 -22.12214,5.850455 -28.7258,13.536851 -2.1556,2.509071 -3.21973,5.7943 -4.90662,8.600083 -4.59163,11.212658 -5.43071,27.525777 -8.98468,40.924627 -3.77691,14.239263 -10.2332,25.365293 -13.96687,29.823343 20.4787,-28.196313 17.06046,-42.930953 28.63091,-71.448464 6.02507,-10.023438 14.81648,-18.857177 27.95306,-21.437868 z"
       id="path1000" />
    <path
       style="fill:none;stroke:#4b660f;stroke-width:1.58955002"
       inkscape:connector-curvature="0"
       d="m 171.94432,28.119277 c -13.62421,0.432699 -23.10971,5.869967 -29.97694,14.521446 -1.63634,2.061603 -3.23023,5.426445 -4.57406,7.66165 -4.70805,11.496758 -5.2664,26.648264 -8.45357,39.314264 -3.2246,12.814473 -9.08179,23.124373 -14.50195,31.439873 -1.52113,2.3658 -4.09371,2.58375 -6.42529,3.21809 -3.51133,7.42895 -3.43101,16.90513 -5.54492,24.95272 -0.5754,3.26396 -1.55182,6.59568 -2.848917,9.89638 2.074097,3.91205 2.577467,3.71691 7.078987,4.61558 69.3577,-6.4805 137.89827,-58.18569 103.09642,-115.843188 -9.48155,-12.116829 -20.37063,-19.140327 -34.40252,-19.745644 -1.18029,-0.05093 -2.32477,-0.0667 -3.44947,-0.03097 z"
       id="path1002" />
    <g
       transform="matrix(0.56064279,-0.06932127,0.06123051,0.66299448,-318.75648,-26.644342)"
       id="g1012">
      <path
         style="fill:#7d7dc0;stroke:url(#a);stroke-width:0.95608997"
         inkscape:connector-curvature="0"
         transform="matrix(0.15123,0,0,0.12713,790.77,212.17)"
         d="m 262.75,171.08 a 72.435,94.449304 0 1 1 -144.87,0 72.435,94.449304 0 1 1 144.87,0 z"
         id="path1004" />
      <path
         style="stroke:#000000;stroke-width:1.24240005"
         inkscape:connector-curvature="0"
         transform="matrix(0.10902,0,0,0.10443,775.26,213.57)"
         d="m 471.53,191.68 a 66.755,75.276255 0 1 1 -133.51,0 66.755,75.276255 0 1 1 133.51,0 z"
         id="path1006" />
      <path
         style="fill:#ffffff;fill-opacity:0.85385;stroke:#000000;stroke-width:1.25170004"
         inkscape:connector-curvature="0"
         transform="matrix(0.094478,0,0,0.11871,776.64,211.78)"
         d="m 470.11,149.07 a 58.941,48.289 0 1 1 -117.88,0 58.941,48.289 0 1 1 117.88,0 z"
         id="path1008" />
      <path
         style="fill:#ffffff;fill-opacity:0.90769001;stroke-width:0"
         inkscape:connector-curvature="0"
         transform="matrix(0.19866,0,0,0.21508,734.46,197.83)"
         d="m 426.08,147.65 a 18.464,17.043 0 1 1 -36.927,0 18.464,17.043 0 1 1 36.927,0 z"
         id="path1010" />
    </g>
    <path
       style="fill:#ffffff;stroke:#4b660f;stroke-width:1.67614889"
       inkscape:connector-curvature="0"
       d="m 215.68166,76.392947 a 11.413468,15.855613 4.2814063 1 1 -22.79121,-1.30619 11.413468,15.855613 4.2814063 1 1 22.79121,1.30619 z"
       id="path1014" />
    <path
       style="fill:#7d7dc0;stroke-width:0.45722708"
       inkscape:connector-curvature="0"
       d="m 209.87403,76.174047 a 5.4531719,7.0294437 4.0193657 0 1 -10.88689,-0.65147 5.4531719,7.0294437 4.0193657 1 1 10.88689,0.65147 z"
       id="path1016" />
    <path
       inkscape:connector-curvature="0"
       d="m 207.97623,75.864727 a 3.6230681,4.6019849 4.0473819 0 1 -7.23319,-0.43282 3.6230681,4.6019849 4.0473819 1 1 7.23319,0.43282 z"
       id="path1018"
       style="stroke-width:0.45722708" />
    <path
       style="fill:#ffffff;fill-opacity:0.85385;stroke-width:0.45722708"
       inkscape:connector-curvature="0"
       d="m 205.24814,73.600497 a 2.7722893,3.3561927 4.1701767 1 1 -5.53482,-0.33118 2.7722893,3.3561927 4.1701767 1 1 5.53482,0.33118 z"
       id="path1020" />
    <path
       style="fill:#e6e6e6;stroke-width:0.45722708"
       inkscape:connector-curvature="0"
       d="m 204.41784,73.430137 a 1.9224782,2.1461081 4.623871 1 1 -3.8382,-0.22967 1.9224782,2.1461081 4.623871 1 1 3.8382,0.22967 z"
       id="path1022" />
    <g
       transform="matrix(-0.79971329,0.1213872,0.12692879,0.79733508,1201.1249,-183.42739)"
       id="g1036">
      <path
         style="fill:none;stroke:#4b660f;stroke-width:2.1638999;stroke-linecap:round;stroke-linejoin:round"
         inkscape:connector-curvature="0"
         d="m 1342.3,141.19 c 0,0 -26.38,45.719 -60.384,34.367 -3.0958,-1.0336 -6.7513,-2.8594 -8.5606,-5.9304"
         id="path1024" />
      <path
         style="fill:#4d0305;stroke:#4b660f;stroke-width:2.14339995;stroke-linecap:round;stroke-linejoin:round"
         inkscape:connector-curvature="0"
         d="m 1281,175.28 c 1.7297,-0.95887 22.68,19.074 27.283,21.123 7.1717,3.1926 16.105,3.2854 21.151,-11.022 4.003,-14.389 1.3397,-28.472 9.6925,-39.886 -9.6181,10.169 -18.667,19.742 -31.415,27.116 -6.9597,2.1838 -10.338,4.8316 -26.711,2.6684 z"
         id="path1026" />
      <path
         style="fill:#b10005"
         inkscape:connector-curvature="0"
         d="m 1330,180.81 c -5.9187,-0.33187 -16.005,1.6981 -18.891,16.368 5.8488,0.69428 10.234,2.0306 16.682,-7.978 0.028,-0.62042 2.1966,-4.2853 2.8047,-8.3412 -0.2027,-0.0173 -0.3839,-0.0364 -0.5958,-0.0488 z"
         id="path1028" />
      <path
         style="fill:none;stroke:#4b660f;stroke-width:2.14339995;stroke-linecap:round;stroke-linejoin:round"
         inkscape:connector-curvature="0"
         d="m 1278.3,164.55 c 0,0 -7.0724,-0.16715 -6.6414,10.846"
         id="path1030" />
      <path
         style="fill:none;stroke:#4b660f;stroke-width:2.14339995;stroke-linecap:round;stroke-linejoin:round"
         inkscape:connector-curvature="0"
         d="m 1331.3,145.31 c 0,0 9.0021,-8.5944 18.526,-3.1494"
         id="path1032" />
      <path
         style="fill:none;stroke:#4b660f;stroke-width:2.14339995;stroke-linecap:round;stroke-linejoin:round"
         inkscape:connector-curvature="0"
         d="m 1281,175.28 c 1.7297,-0.95887 22.68,19.074 27.283,21.123 7.1717,3.1926 16.105,3.2854 21.151,-11.022 4.003,-14.389 1.3397,-28.472 9.6925,-39.886 -9.6181,10.169 -18.667,19.742 -31.415,27.116 -6.9597,2.1838 -10.338,4.8316 -26.711,2.6684 z"
         id="path1034" />
    </g>
    <path
       style="stroke-width:0"
       inkscape:connector-curvature="0"
       d="m 201.96652,46.83707 c 0.14927,-0.791007 -0.0965,2.074832 -0.0469,1.713783 7.06184,1.147297 11.26161,4.227803 17.58631,10.76343 -5.29717,-7.592173 -8.92407,-9.784547 -17.53975,-12.477071 z"
       id="path1038" />
    <path
       style="fill:#4b660f;stroke-width:0.45722708"
       inkscape:connector-curvature="0"
       d="m 173.9827,86.334067 a 1.9905783,2.1433657 0.10587273 1 0 3.98008,-0.0993 1.9905783,2.1433657 0.10587273 0 0 -3.98008,0.0993 z"
       id="path1040" />
    <path
       style="fill:#e6e6e6;stroke-width:0.45722708"
       inkscape:connector-curvature="0"
       d="m 157.73276,54.217951 c 3.41227,2.41204 5.89549,6.823628 6.37784,12.102556 0.78312,8.5682 -4.0152,16.18036 -10.72785,17.01028 -1.42239,0.17591 -2.81603,0.0335 -4.13695,-0.38281 2.12536,1.50154 4.61359,2.22992 7.1897,1.91146 6.71259,-0.82992 11.51114,-8.4421 10.72785,-17.010287 -0.61705,-6.751294 -4.51871,-12.082088 -9.43059,-13.631549 z"
       id="path1042" />
    <path
       style="fill:#e6e6e6;stroke-width:0.45722708"
       inkscape:connector-curvature="0"
       d="m 207.87521,61.102492 c 2.99043,3.004315 4.74713,7.814411 4.40536,13.113795 -0.45715,7.09011 -4.55255,12.83446 -9.75613,14.41008 0.49105,0.71502 1.00269,1.51663 1.45954,2.3717 5.81468,-0.93502 10.5728,-7.03921 11.06745,-14.71656 0.43695,-6.776998 -2.57402,-12.75261 -7.1765,-15.179111 z"
       id="path1044" />
    <path
       style="stroke-width:0"
       inkscape:connector-curvature="0"
       d="m 156.06779,40.523586 c -0.28811,-0.873145 0.41882,2.346179 0.30835,1.944155 -7.89215,2.645173 -12.22897,6.951163 -18.47812,15.597407 4.91892,-9.655584 8.73342,-12.841117 18.16971,-17.541371 z"
       id="path1046" />
    <path
       style="fill:#4b660f;stroke-width:0"
       inkscape:connector-curvature="0"
       d="m 152.11843,132.01368 c -0.53622,0.14029 1.43921,-0.20881 1.19245,-0.15468 1.58387,3.72914 4.2017,5.76575 9.46926,8.68954 -5.89199,-2.28895 -7.82582,-4.08313 -10.66154,-8.53487 z"
       id="path1048" />
    <path
       style="fill:#82af16;stroke:#4b660f;stroke-width:1.77742457;stroke-linecap:round;stroke-linejoin:round"
       inkscape:connector-curvature="0"
       d="m 205.44583,93.938617 c 0,0 -9.15778,-19.29118 -32.50164,-14.22118"
       id="path1050" />
    <path
       style="fill:#4b660f;stroke-width:0.45722708"
       inkscape:connector-curvature="0"
       d="m 196.58942,89.798457 a 1.6023994,1.5716815 16.803475 1 0 3.19565,0.19223 1.6023994,1.5716815 16.803475 0 0 -3.19565,-0.19223 z"
       id="path1052" />
  </g>
</svg>
