<?xml version="1.0" encoding="UTF-8"?>
<svg width="185.47mm" height="368.83mm" version="1.1" viewBox="0 0 185.47 368.83" xmlns="http://www.w3.org/2000/svg"><defs><clipPath id="clipPath2435"><path d="m469.62 1228.6h250.93v-358.69h-250.93z"/></clipPath><clipPath id="clipPath2463"><path d="m480.12 945.73h368.2v-308.01h-368.2z"/></clipPath><clipPath id="clipPath2479"><path d="m536.44 1219.3h133.84v-218.51h-133.84z"/></clipPath><clipPath id="clipPath2495"><path d="m531.02 224.07h777.58v-68.621h-777.58z"/></clipPath><clipPath id="clipPath2515"><path d="m868.82 947.02h453.21v-446.87h-453.21z"/></clipPath><clipPath id="clipPath2535"><path d="m807.04 589.1h62.084v-137.41h-62.084z"/></clipPath><clipPath id="clipPath2551"><path d="m837.07 387.35h61.995v-167.87h-61.995z"/></clipPath><clipPath id="clipPath2575"><path d="m657.18 277.59h67.318v-74.929h-67.318z"/></clipPath><clipPath id="clipPath2595"><path d="m693.75 284.46h71.388v-86.278h-71.388z"/></clipPath><clipPath id="clipPath2615"><path d="m731.09 268.12h71.389v-78.727h-71.389z"/></clipPath><clipPath id="clipPath2631"><path d="m727.28 273.93h11.696v-77.517h-11.696z"/></clipPath><clipPath id="clipPath2647"><path d="m691.64 276.28h10.079v-74.346h-10.079z"/></clipPath><clipPath id="clipPath2663"><path d="m798.49 272.94h57.609v-34.374h-57.609z"/></clipPath><clipPath id="clipPath2683"><path d="m879.9 550.73h261.02v-316.3h-261.02z"/></clipPath><clipPath id="clipPath2711"><path d="m1018.7 261.09h160.87v-90.492h-160.87z"/></clipPath><clipPath id="clipPath2727"><path d="m1126.6 250.86h13.62v-74.33h-13.62z"/></clipPath><clipPath id="clipPath2743"><path d="m1064.7 253.04h12.82v-74.354h-12.82z"/></clipPath><clipPath id="clipPath2767"><path d="m667.99 1262.7h358.79v-659.71h-358.79z"/></clipPath><clipPath id="clipPath2783"><path d="m869.93 1269.2h470.7v-597.76h-470.7z"/></clipPath><clipPath id="clipPath2799"><path d="m1110.9 1245.3h225.88v-241.14h-225.88z"/></clipPath><clipPath id="clipPath2815"><path d="m650.47 1353.4h646.62v-496.65h-646.62z"/></clipPath><clipPath id="clipPath2835"><path d="m670.43 1738.6h631.91v-761.7h-631.91z"/></clipPath><clipPath id="clipPath2851"><path d="m643.74 1721.4h622.16v-592.11h-622.16z"/></clipPath><clipPath id="clipPath2867"><path d="m657.5 1748.1h602.16v-506.75h-602.16z"/></clipPath><clipPath id="clipPath2891"><path d="m829.13 1873h310.51v-142.03h-310.51z"/></clipPath><clipPath id="clipPath2907"><path d="m950.62 1883.2h305.13v-412.58h-305.13z"/></clipPath><clipPath id="clipPath2923"><path d="m789.48 1984.3h225.48v-196.2h-225.48z"/></clipPath><clipPath id="clipPath2939"><path d="m681.98 1693.2h440.64v-213.97h-440.64z"/></clipPath><clipPath id="clipPath2975"><path d="m870.79 1610.6h104.59v-63.22h-104.59z"/></clipPath><clipPath id="clipPath2999"><path d="m802.53 1822h240.7v-136.77h-240.7z"/></clipPath><clipPath id="clipPath3019"><path d="m634.93 1833.7h142.97v-108.27h-142.97z"/></clipPath><clipPath id="clipPath3047"><path d="m723.94 1729.1h304.76v-162.19h-304.76z"/></clipPath><clipPath id="clipPath3071"><path d="m855.74 1707.2c-10.983-5.125-11.715-54.548-11.715-54.548l59.307-3.296s12.081 10.252 17.939 15.377c5.857 5.125 31.118 21.233 31.118 21.233s-13.179 24.894-31.484 30.02c-3.896 1.091-8.586 1.551-13.665 1.551-18.782 0-42.855-6.303-51.5-10.337"/></clipPath><clipPath id="clipPath3091"><path d="m0 2420.2h1915.2v-2420.2h-1915.2z"/></clipPath><clipPath id="clipPath3099"><path d="m644.59 1729.9h116.35v-82.87h-116.35z"/></clipPath><clipPath id="clipPath3123"><path d="m689.35 1733c-6.041-6.041-10.434-32.948-10.434-32.948s9.884-3.844 14.826-9.335c4.943-5.492 12.082-14.278 12.082-14.278s26.908 20.318 31.301 26.358c4.393 6.041 16.474 18.122 16.474 18.122s-19.22 10.434-25.261 13.179c-3.203 1.457-12.279 2.758-20.997 2.759-7.718 0-15.154-1.02-17.991-3.857"/></clipPath><clipPath id="clipPath3151"><path d="m532.91 1488.8h169.57v-82.52h-169.57z"/></clipPath><clipPath id="clipPath3167"><path d="m532.91 1488.8h169.48v-82.52h-169.48z"/></clipPath><clipPath id="clipPath3187"><path d="m768.08 1546.8h49.878v-35.05h-49.878z"/></clipPath><clipPath id="clipPath3203"><path d="m851.03 1901.3h252.54v-119.31h-252.54z"/></clipPath><clipPath id="clipPath3219"><path d="m711.95 1904.2h40.913v-86.22h-40.913z"/></clipPath><clipPath id="clipPath3235"><path d="m718.92 1895.8h7.048v-22.11h-7.048z"/></clipPath><clipPath id="clipPath3251"><path d="m732.76 1915.9h21.003v-66.39h-21.003z"/></clipPath><clipPath id="clipPath3267"><path d="m784.96 1983.2h222.1v-187.1h-222.1z"/></clipPath><clipPath id="clipPath3283"><path d="m763.31 1967.6h69.258v-136.83h-69.258z"/></clipPath><clipPath id="clipPath3307"><path d="m1078.8 2093h103.7v-279.34h-103.7z"/></clipPath><clipPath id="clipPath3323"><path d="m764.97 1543.6h53.419v-46.64h-53.419z"/></clipPath><clipPath id="clipPath3339"><path d="m544.46 1706.8h212.07v-172.7h-212.07z"/></clipPath><clipPath id="clipPath3355"><path d="m633 1826.4h131.33v-70.66h-131.33z"/></clipPath><clipPath id="clipPath3371"><path d="m817.83 1814.8h211.68v-94.2h-211.68z"/></clipPath><clipPath id="clipPath3387"><path d="m1041.4 2042.3h108.25v-227.07h-108.25z"/></clipPath><clipPath id="clipPath3403"><path d="m743.69 2005.9h49.037v-71.33h-49.037z"/></clipPath><clipPath id="clipPath3419"><path d="m700.88 2126.6h123.01v-156.9h-123.01z"/></clipPath><clipPath id="clipPath3435"><path d="m865 1570.1h61.216v-31.59h-61.216z"/></clipPath><clipPath id="clipPath3459"><path d="m1209.6 1231.1h188.29v-447.1h-188.29z"/></clipPath><clipPath id="clipPath3487"><path d="m926.46 909.06h470.03v-293.92h-470.03z"/></clipPath><clipPath id="clipPath3503"><path d="m1267.3 1202.1h92.93v-263.09h-92.93z"/></clipPath><clipPath id="clipPath3519"><path d="m877.85 711.26h128.89v-205.01h-128.89z"/></clipPath></defs><g transform="translate(-6.5811 64.724)"><g transform="matrix(.16375 0 0 -.16375 59.467 129.68)"><path d="m0 0s-24.618-54.45-82.846-180.8c-57.931-125.7-97.068-148.33-50.797-180.26 13.828-9.543 49.493-7.233 74.956 29.006 62.384 88.787 155.52 241.31 155.58 266.75 0.27 98.602-96.898 65.308-96.898 65.308" style="fill:#676767"/></g><g transform="matrix(.16375 0 0 -.16375 -42.656 332.04)"><g clip-path="url(#clipPath2435)" style="opacity:.3"><g transform="translate(504.08 959.41)"><path d="m0 0c21.68 9.552 44.15 16.871 66.586 24.33 4.317 1.435 9.033 2.561 13.587 2.928 0.189 0.015 2.832-0.062 3.701 0.482 3.358 2.097 6.885 5.587 9.857 8.229 7.527 6.691 13.554 14.693 19.188 23.024 13.909 20.565 26.162 42.269 40.231 62.734 11.476 16.692 24.406 32.242 34.358 50.023 17.465 31.207 24.905 65.646 7.437 97.478 12.58-10.214 21.615-28.016 21.533-58.135-0.07-25.435-93.2-177.96-155.58-266.75-25.463-36.239-61.128-38.549-74.957-29.006-28.974 19.996-24.448 36.355-2.809 76.627 5.547 2.832 11.167 5.521 16.873 8.035" style="fill:#1a1a1a"/></g></g></g><g transform="matrix(.16375 0 0 -.16375 38.809 176.8)"><path d="m0 0c36.826 3.467 134.64 8.737 134.64 8.737s63.926-60.539 131.87-119.24c68.325-59.032 100.85-83.006 30.375-151.96-70.331-68.813-92.289-29.917-113.3-16.233-21.033 13.7-176.78 161.91-178.14 166.15-0.07 0.218-0.098 0.433-0.091 0.661 0 0-54.23 47.046-54.422 47.877-1.586 6.837 13.492-2.138 32.184-7.188 0 0-26.932 21.04-45.231 28.324 9.325 9.897 11.276 5.417 31.628 5.636 9.686 16.92-16.826 7.115-15.267 8.657 0 0 8.896 25.112 45.743 28.581" style="fill:#676767"/></g><g transform="matrix(.16375 0 0 -.16375 78.633 212.89)"><path d="m0 0c0.045 0.021 0.086 0.042 0.129 0.067 2.675 1.52 71.334 62.252 80.89 53.755 73.314-65.187 65.359-109.35 42.759-127.91-14.311-11.754-127.62-117.75-157.06-98.259-6.39 4.232-54.255 16.272-73.272 43.547-11.578 16.606-9.07 26.813-0.033 48.903 2.605 6.368 18.022 20.214 25.409 21.708 7.362 1.489 25.05-21.501 25.05-21.501s-40.245 31.624-21.977 41.702c17.491 9.649 75.891 36.957 78.103 37.991" style="fill:#676767"/></g><g transform="matrix(.16375 0 0 -.16375 79.209 235.67)"><path d="m0 0c-2.212-3.49-5.704-5.913-9.382-7.707-12.099-5.901-32.53-18.601-44.474-11.867-4.408 2.485-49.033 14.773-52.85 49.166-0.531 4.782 0.788 28.402 4.644 31.433 2.75 2.161 12.684 19.411 27.482 7.06 5.624-4.694 13.914-10.804 13.394-16.622-0.529-5.899-10.117-11.482-7.548-13.357 2.559-1.869 4.022 6.404 7.227 6.385 3.206-0.019 8.298-0.669 8.207 2.495-0.041 1.416-1.843 6.138-2.537 7.34-4.394 7.613-7.685 11.776-11.946 19.172-2.404 4.174-7.75 4.254-8.465 8.936-0.707 4.627 42.08-27.777 58.98-42.652 5.76-5.071 11.913-10.119 15.946-16.889 4.098-6.878 5.585-16.164 1.322-22.893" style="fill:#e5e5e4"/></g><g transform="matrix(.16375 0 0 -.16375 -42.656 332.04)"><g clip-path="url(#clipPath2463)" style="opacity:.2"><g transform="translate(617.07 876.45)"><path d="m0 0c-1.251-11.023-1.8-22.171-1.675-33.362 2e-3 -0.138 0.018-0.278 0.049-0.417 2.755-12.451 5.697-24.845 9.038-37.108 0.582-2.135 20.26 44.049 19.841 41.8-5.835-31.353 11.305-115.79 11.301-113.77-0.05 25.786 17.796 76.175 17.642 73.957-2.712-38.939-4.073-78.809 6.229-116.15 0.078-0.282 20.815 89.014 20.526 86.718-4.98-39.58-0.219-80.629 13.663-118.52 0.139-0.377 0.396-0.71 0.733-0.947 1.212-0.852-1.294 74.691 10.103 110.93 0.654 2.08 3.676-56.936 6.601-84.812 1.474-14.045 4.054-29.029 11.058-41.058 0.226-0.387 0.584-0.691 1.007-0.858 1.592-0.632 3.2-1.218 4.82-1.753 1.405-0.465 2.752 0.683 2.444 2.094-6.688 30.601-6.03 62.647 1.963 92.589 0.563 2.111 4.49-67.299 15.377-98.07 0.853 0.011 1.698 0.069 2.546 0.122-3.789 20.224-4.731 40.959-2.753 61.369 0.205 2.116 3.287 2.181 3.732 0.079 4.028-19.001 8.039-37.923 12.033-56.765 0.235-1.105 1.418-1.789 2.482-1.405 3.431 1.241 6.755 2.789 9.943 4.594 0.635 0.359 0.981 1.07 0.889 1.796-0.828 6.534-1.657 13.076-2.487 19.626 0.921-5.896 1.839-11.785 2.757-17.667 0.206-1.321 1.735-2.039 2.845-1.311 5.63 3.691 10.765 8.153 15.201 13.073 12.649 14.033 20.653 31.479 28.454 48.597 2.577 5.655 5.206 11.583 4.857 17.899-0.23 4.175-1.757 8.22-3.405 12.131-26.078 61.901-211.38 205.87-211.38 205.87s-95.107-0.835-153.34-3.861c-1.606-0.083 50.674-7.375 50.419-10.441-0.153-1.833-9.469-17.897-8.002-16.786 0.927 0.703 37.017 13.518 36.49 11.574-0.571-2.101-14.823-28.663-9.931-21.069 4.813 7.471 35.21 14.927 42.997 19.419 1.594 0.919-21.958-24.424-23.721-30.798-0.549-1.983 38.892 16.723 44.139 21.915 1.132 1.121-24.358-44.643-21.16-59.792 2.702-0.485 25.93 22.783 25.678 20.562" style="fill:#fff"/></g></g></g><g transform="matrix(.16375 0 0 -.16375 -42.656 332.04)"><g clip-path="url(#clipPath2479)" style="opacity:.2"><g transform="translate(541.07 1008.3)"><path d="m0 0c4.53-1.922 7.635-0.78 5.037 4.293-0.844 1.649-1.081 6.316-1.423 8.131-0.483 2.562 0.538 2.256 2.285 4.105 3.74 3.954 8.276 4.204 12.659 2.869-3.595 7.135-7.193 14.272-10.771 21.423-0.989 1.975 0.012 4.973 2.595 4.896 13.466-0.406 26.273-3.001 38.681-7.765-6 15.906-21.33 28.202-32.571 40.173-1.755 1.868-0.739 5.187 1.988 5.276 17.273 0.567 33.814-2.789 49.296-9.845-8.594 15.21-20.219 27.961-34.631 38.155-1.72 1.217-2.151 4.72 0.543 5.219 18.769 3.484 37.125 2.269 54.911-3.827-8.43 17.037-24.196 28.515-39.369 39.392-1.945 1.394-1.518 4.565 1.123 4.748 18.431 1.275 36.424-0.911 53.843-6.507-10.206 13.23-21.797 25.116-34.697 35.8-1.878 1.555 0.104 4.001 2.033 3.778 16.969-1.961 33.012-6.445 48.589-12.969-11.018 11.079-22.895 21.174-35.66 30.241-1.287 0.914-1.132 3.422 0.797 3.363 14.563-0.443 28.332-3.635 41.57-9.716 1.327-0.609 0.222-2.555-1.089-2-11.228 4.749-22.701 7.395-34.733 7.995 13.627-10.056 26.176-21.284 37.702-33.78 1.342-1.455-0.251-3.632-2.023-2.789-15.393 7.326-31.698 11.95-48.494 14.367 12.912-11.203 24.335-23.827 34.393-37.755 1.129-1.564-0.645-4.229-2.524-3.526-16.912 6.328-34.377 9.256-52.3 8.799 15.719-11.489 30.469-24.316 37.818-43.054 0.899-2.293-1.792-3.623-3.555-2.926-16.178 6.39-33.329 8.476-50.44 6.018 15.133-11.587 27.05-26.595 35.213-44.03 1.145-2.447-1.11-5.514-3.792-4.03-14.738 8.15-30.574 12.407-47.197 12.821 12.616-12.574 27.255-26.056 30.839-43.707 0.548-2.698-1.838-4.683-4.347-3.574-11.744 5.186-23.817 8.145-36.498 9.007 4.311-8.476 8.618-16.948 12.888-25.433 1.302-2.585-1.404-6.616-4.311-4.583-1.667 1.256-3.414 2.389-5.239 3.399-3.194-1.188-6.387-2.377-9.581-3.566 0.932-1.778 1.804-3.585 2.616-5.422 0.966-2.115 1.227-4.931 0.065-7.067-3.223-5.927-10.319-4.014-15.214-1.863-3.652 1.604-0.645 7.001 2.975 5.466" style="fill:#1a1a1a"/></g></g></g><g transform="matrix(.16375 0 0 -.16375 -42.656 332.04)"><g clip-path="url(#clipPath2495)" style="opacity:.2"></g></g><g transform="matrix(.16375 0 0 -.16375 166.9 207.65)"><path d="m0 0c11.742 60.001-8.691 132.53-50.244 175.64 1.833-23.146 3.655-46.153 5.465-69.021-8.716 40.536-33.357 77.406-64.276 95.704 21.905-88.816 17.934-182.01-10.175-257.52-8.165-21.934-18.367-42.581-31.611-59.8-48.69-63.308-132.85-71.919-209.34-50.775-11.856 3.277-24.354 7.181-35.389 3.442-11.043-3.741-19.233-18.561-13.413-31.734 3.714-8.403 11.542-13.194 18.792-17.072 95.134-50.892 199.29-61.905 289.91-31.775 69.678 23.168 138.73 83.1 142.57 174.14-14.051-33.944-37.316-61.047-65.391-76.256 48.379 50.553 70.469 138.26 55.025 221.92-8.488-27.28-19.208-53.076-31.933-76.893" style="fill:#676767"/></g><g transform="matrix(.16375 0 0 -.16375 -42.656 332.04)"><g clip-path="url(#clipPath2515)" style="opacity:.2"><g transform="translate(1311.7 836.56)"><path d="m0 0c-8.488-27.279-19.207-53.076-31.933-76.893 11.742 60-8.69 132.53-50.243 175.64 1.832-23.147 3.654-46.153 5.465-69.022-6.764 31.455-23.133 60.647-44.576 80.733 34.616-51.023 54.699-116.23 47.482-176.65 7.169 12.986 13.952 26.093 15.058 43.244 0.22 3.419 6.653-56.996-25.493-136.02 19.421 8.484 35.301 25.222 52.091 39.249 2.617 2.186-32.256-60.278-54.163-82.116-18.592-18.535-40.806-31.509-58.199-51.575 15.408 3.479 34.091 5.282 47.317 13.9 2.837 1.848-17.798-50.962-139.55-51.308-59.348-0.169-117.04 25.792-176.83 47.011-2.775 0.985-2.545 5.076-0.552 5.953-4.596 0.366-9.095 0.082-13.37-1.366-11.044-3.742-19.235-18.562-13.413-31.735 3.714-8.403 11.541-13.194 18.791-17.072 95.135-50.892 199.29-61.905 289.91-31.775 69.678 23.167 138.73 83.1 142.57 174.14-14.051-33.944-37.317-61.047-65.391-76.256 48.378 50.553 70.468 138.26 55.024 221.92" style="fill:#1a1a1a"/></g></g></g><g transform="matrix(.16375 0 0 -.16375 88.059 235.39)"><path d="m0 0s42.467-156.69 46.86-234.3-8.054-119.35-8.054-119.35 12.447-19.77 38.806-16.841c26.358 2.929 21.965 19.037 21.965 19.037s8.055 47.592-0.731 97.381c-8.787 49.789-18.305 57.842-18.305 57.842s-10.572 66.509-18.305 103.24c-8.786 41.735-18.305 87.13-40.27 90.059z" style="fill:#808080"/></g><g transform="matrix(.16375 0 0 -.16375 -42.656 332.04)"><g clip-path="url(#clipPath2535)" style="opacity:.3"><g transform="translate(869.13 451.69)"><path d="m0 0c-2.837 16.089-5.905 32.677-8.624 45.588-8.786 41.735-18.304 87.131-40.27 90.059-5.795 0.773-10.049 1.341-13.19 1.759 14.133-48.373 38.435-92.737 62.084-137.41" style="fill:#1a1a1a"/></g></g></g><g transform="matrix(.16375 0 0 -.16375 -42.656 332.04)"><g clip-path="url(#clipPath2551)" style="opacity:.2"><g transform="translate(899.07 247.92)"><path d="m0 0c-5.919 22.934-12.524 45.674-20.825 67.906-9.333 24.993-25.909 47.008-36.263 71.524 1.514-11.345 2.613-21.952 3.148-31.384 4.393-77.613-8.055-119.35-8.055-119.35s12.448-19.769 38.806-16.84c26.359 2.928 21.966 19.036 21.966 19.036s0.56 3.329 1.223 9.105" style="fill:#1a1a1a"/></g></g></g><g transform="matrix(.16375 0 0 -.16375 86.141 299.53)"><path d="m0 0c2.196 0 54.914 6.59 54.914 6.59s24.894-11.715 38.073-8.054c13.18 3.66 26.359 13.911 26.359 13.911l-10.983 30.752s-38.805 41.735-49.056 40.27c-10.251-1.464-73.951-20.501-73.951-20.501l11.715-62.968" style="fill:#808080"/></g><g transform="matrix(.16375 0 0 -.16375 71.853 298.84)"><path d="m0 0-16.929 1.219c-12.917 0.93-22.119 7.4-28.16 20.03-6.04 12.631 4.283 37.289 4.283 37.289-0.143 10.982 10.24 17.076 23.448 17.076 0 0 39.456-11.127 39.382-22.758l3.177-34.18c-0.084-11.343-11.513-19.662-25.201-18.676" style="fill:#e5e5e4"/></g><g transform="matrix(.16375 0 0 -.16375 -42.656 332.04)"><g clip-path="url(#clipPath2575)" style="opacity:.3"><g transform="translate(721.32 255.6)"><path d="m0 0c0.062 9.828-28.092 19.294-36.827 21.994 0.91-6.202 1.33-12.471 1.144-18.693-0.295-9.863-0.885-22.307-5.991-31.067-5.251-9.009-14.372-11.734-22.467-9.138 5.95-9.148 14.226-13.944 25.188-14.734l16.929-1.218c13.689-0.986 25.117 7.333 25.201 18.676z"/></g></g></g><g transform="matrix(.16375 0 0 -.16375 78.542 299.59)"><path d="m0 0h-17.572c-13.8 0-28.831 7.068-28.831 20.867l3.845 50.521c0 13.799 11.186 21.417 24.986 21.417 0 0 39.263-13.109 39.263-26.908l3.295-40.911c0-13.8-11.186-24.986-24.986-24.986" style="fill:#e5e5e4"/></g><g transform="matrix(.16375 0 0 -.16375 -42.656 332.04)"><g clip-path="url(#clipPath2595)" style="opacity:.3"><g transform="translate(761.84 264.08)"><path d="m0 0c0 7.743-12.362 15.268-23.213 20.382-0.694-3.215-2.073-6.311-4.484-9.191-6.605-7.89-8.945-15.221-8.985-25.56-0.026-6.691 0.852-13.64 0.188-20.302-2.027-20.366-17.903-17.888-31.592-10.263l-8e-3 -0.096c0-13.799 15.031-20.867 28.83-20.867h17.573c13.799 0 24.985 11.186 24.985 24.986z"/></g></g></g><g transform="matrix(.16375 0 0 -.16375 84.657 301.03)"><path d="m0 0h-17.572c-13.8 0-28.831 7.068-28.831 20.868l3.844 50.521c0 13.799 11.187 21.416 24.987 21.416 0 0 39.263-13.108 39.263-26.908l3.295-40.911c0-13.799-11.187-24.986-24.986-24.986" style="fill:#e5e5e4"/></g><g transform="matrix(.16375 0 0 -.16375 -42.656 332.04)"><g clip-path="url(#clipPath2615)" style="opacity:.3"><g transform="translate(799.18 255.29)"><path d="m0 0c0 4.494-4.174 8.911-9.789 12.829-3.407-2.191-6.869-4.506-8.901-7.807-5.102-8.29-1.046-18.672-1.461-27.752-0.44-9.658-1.037-29.09-14.399-29.978-11.073-0.735-23.319 3.673-33.447 8.943l-0.097-1.264c0-13.8 15.031-20.868 28.83-20.868h17.573c13.799 0 24.985 11.187 24.985 24.986z"/></g></g></g><g transform="matrix(.16375 0 0 -.16375 -42.656 332.04)"><g clip-path="url(#clipPath2631)" style="opacity:.5"><g transform="translate(737.22 200.06)"><path d="m0 0c-12.78 1.179-0.785 65.385 1.074 72.384 0.403 1.519-1.84 2.111-2.334 0.643-3.543-10.538-18.577-80.399 1.732-76.516 2.104 0.402 1.389 3.317-0.472 3.489" style="fill:#1a1a1a"/></g></g></g><g transform="matrix(.16375 0 0 -.16375 -42.656 332.04)"><g clip-path="url(#clipPath2647)" style="opacity:.5"><g transform="translate(697.17 238.47)"><path d="m0 0c0.869 12.31 2.93 24.472 4.538 36.694 0.173 1.32-1.946 1.536-2.276 0.308-3.607-13.436-5.335-27.283-6.612-41.111-0.925-10.014-3.288-22.914 3.277-31.508 1.559-2.042 4.571-0.36 3.467 2.027-4.887 10.559-3.191 22.31-2.394 33.59" style="fill:#1a1a1a"/></g></g></g><g transform="matrix(.16375 0 0 -.16375 -42.656 332.04)"><g clip-path="url(#clipPath2663)" style="opacity:.5"><g transform="translate(854.79 269.45)"><path d="m0 0c-5.126 2.48-10.017 3.336-15.692 3.491-2.161 0.059-3.415-2.401-2.409-4.198 1.162-2.075 2.206-4.174 3.183-6.298-6.39 4.471-13.362 7.842-21.081 10.106-2.491 0.731-3.931-1.93-3.046-3.961 3.143-7.21 9.707-13.083 12.299-20.397-7.825 7.357-17.297 13.011-27.831 15.39-1.412 0.319-2.472-1.796-1.031-2.446 11.973-5.404 21.959-11.776 30.646-21.805 1.509-1.742 4.039-0.219 4.175 1.729 0.689 9.877-5.394 16.438-10.22 24.027 7.55-3.046 14.235-7.288 20.397-13.013 1.889-1.755 5.394-0.06 4.517 2.629-1.341 4.116-2.903 8.041-4.715 11.899 2.947-0.548 5.846-1.219 8.825-1.857 2.722-0.584 4.734 3.374 1.983 4.704" style="fill:#1a1a1a"/></g></g></g><g transform="matrix(.16375 0 0 -.16375 100.05 242.58)"><path d="m0 0s26.359-1.464 58.575-57.111c32.216-55.646 73.219-112.76 73.219-112.76l43.931-134.72s2.929-7.322 38.074-7.322 55.646 13.18 55.646 13.18-51.253 87.862-73.219 109.83c-21.965 21.966-38.074 43.932-38.074 43.932l-84.933 158.15s-39.538 32.216-64.433 24.895c-24.894-7.322-8.786-38.074-8.786-38.074" style="fill:#808080"/></g><g transform="matrix(.16375 0 0 -.16375 -42.656 332.04)"><g clip-path="url(#clipPath2683)" style="opacity:.2"><g transform="translate(1092.2 313.08)"><path d="m0 0c-8.665 4.534-18.703 6.388-27.064 11.469-17.972 10.922-30.178 28.433-42.718 44.811-10.595 13.838-21.013 27.18-29.614 42.419-15.644 27.716-27.459 58.048-46.286 83.874-14.256 19.557-45.418 48.426-66.603 55.074 10.072-8.07 36.254-37.493 50.155-61.504 32.216-55.646 73.219-112.76 73.219-112.76l43.931-134.72s2.928-7.322 38.073-7.322c35.146 0 55.647 13.18 55.647 13.18s-16.075 27.554-34.077 55.66c-4.565 3.74-9.444 7.088-14.663 9.818" style="fill:#1a1a1a"/></g></g></g><g transform="matrix(.16375 0 0 -.16375 130.32 303.04)"><path d="m0 0h-16.108c-8.492 0-16.109 3.223-16.109 11.715 0 0-20.5 57.11 21.234 68.093l13.179 0.733c8.492 0 13.18-9.813 13.18-18.305v-46.86c0-8.492-6.884-15.376-15.376-15.376" style="fill:#e5e5e4"/></g><g transform="matrix(.16375 0 0 -.16375 139.43 303.61)"><path d="m0 0h-23.43c-11.525 0-20.868 9.343-20.868 20.867v49.789c0 11.525 9.343 20.867 20.868 20.867h23.43c11.524 0 20.867-9.342 20.867-20.867v-49.789c0-11.524-9.343-20.867-20.867-20.867" style="fill:#e5e5e4"/></g><g transform="matrix(.16375 0 0 -.16375 147.92 303.51)"><path d="m0 0h-20.969c-10.314 0-18.676 8.361-18.676 18.676v44.559c0 10.314 8.362 18.676 18.676 18.676h20.969c10.314 0 18.676-8.362 18.676-18.676v-44.559c0-10.315-8.362-18.676-18.676-18.676" style="fill:#e5e5e4"/></g><g transform="matrix(.16375 0 0 -.16375 -42.656 332.04)"><g clip-path="url(#clipPath2711)" style="opacity:.3"><g transform="translate(1076 261.09)"><path d="m0 0c-9.22-1.363-13.766-12.234-13.938-21.553s2.187-18.945-0.75-27.79c-2.646-7.968-12.097-14.589-19.37-10.396-3.035 1.749-4.934 4.931-6.438 8.094-4.559 9.584-6.706 20.304-6.189 30.904-13.179-8.12-11.9-43.555-7.688-57.542 4.212-13.989 24.108-11.288 37.764-6.1 1.431 0.543 2.851 1.262 4.381 1.277 1.655 0.015 3.186-0.793 4.691-1.481 12.597-5.76 29.877-6.995 43.589-5.046 2.639 0.376 5.571 0.554 7.322 2.563 2.286 2.623 3.156 4.955 6.59 4.393 4.784-7.024 10.689-4.358 19.164-4.997s16.914 1.261 25.2 3.148c3.232 0.736 6.827 1.73 8.477 4.604 2.82 4.915-2.483 10.924-7.989 12.26-5.507 1.337-11.457 0.214-16.83 2.014-11.409 3.823-14.763 18.186-15.324 30.205-0.426 9.122-0.29 18.27 0.405 27.376-3.639 1.444-7.278 2.889-10.916 4.333-1.165-8.005-2.331-16.011-3.496-24.017-1.354-9.302-2.793-18.859-7.486-27.003-4.693-8.145-13.464-14.661-22.829-13.851-13.206 1.142-21.268 15.816-21.905 29.056-0.636 13.241 3.623 26.294 3.565 39.549" style="fill:#1a1a1a"/></g></g></g><g transform="matrix(.16375 0 0 -.16375 -42.656 332.04)"><g clip-path="url(#clipPath2727)" style="opacity:.5"><g transform="translate(1138.6 180.93)"><path d="m0 0c-10.589 3.687-7.068 27.021-6.872 35.707 0.25 11.072 1.627 22.024 2.482 33.047 0.107 1.385-2.033 1.616-2.377 0.322-4.301-16.214-5.319-33.293-5.282-50.001 0.02-8.847-0.438-23.191 11.454-23.475 2.638-0.062 2.9 3.597 0.595 4.4" style="fill:#1a1a1a"/></g></g></g><g transform="matrix(.16375 0 0 -.16375 -42.656 332.04)"><g clip-path="url(#clipPath2743)" style="opacity:.5"><g transform="translate(1076 182.95)"><path d="m0 0c-7.125 2.298-6.436 5.119-6.615 11.97-0.179 6.81 5e-3 13.622 0.28 20.426 0.493 12.213 1.949 24.373 3.292 36.513 0.152 1.37-2.071 1.632-2.376 0.322-5.305-22.745-6.466-46.231-5.665-69.515 0.037-1.078 0.725-2.127 1.819-2.389 3.659-0.878 4.97-1.089 8.69-1.574 2.52-0.329 2.781 3.534 0.575 4.247" style="fill:#1a1a1a"/></g></g></g><g transform="matrix(.16375 0 0 -.16375 83.503 224.96)"><path d="m0 0s33.032-77.113 34.779-83.835c6.041-23.248 72.487-15.56 117.52-46.86 4.598-3.197 16.943 2.037 26.359 15.375 13.179 18.671 13.179 34.047-6.59 62.603-19.769 28.555-72.487 83.469-72.487 83.469s-36.023 25.723-64.798 20.867c-58.575-9.885-34.779-51.619-34.779-51.619" style="fill:#808080"/></g><g transform="matrix(.16375 0 0 -.16375 164.19 108.78)"><path d="m0 0s105.44-63.7 76.88-140.58c-28.555-76.879-369.02-320.7-423.94-439.31-54.914-118.62-29.654-139.48-39.538-160.35-9.884-20.868-18.671-36.244-38.44-31.851-19.769 4.394-75.781 15.376-155.96 289.95-80.174 274.57 7.293 417.54 61.307 471.26 54.013 53.719 238.52 84.471 337.37 73.488 98.845-10.983 182.31-62.602 182.31-62.602" style="fill:#808080"/></g><g transform="matrix(.16375 0 0 -.16375 -42.656 332.04)"><g clip-path="url(#clipPath2767)" style="opacity:.5"><g transform="translate(833.41 603.45)"><path d="m0 0c-0.119-4.091-38.931 19.102-48.325 39.538-30.168 65.636-61.608 121.68-83.442 190.54-19.522 61.562-35.764 125.31-33.433 189.85 0.914 25.291 4.947 51.218 17.943 72.934 7.979 13.332 19.026 24.552 30.549 34.975 76.636 69.322 176.76 107.51 277.65 129.88 11.446 2.537 26.74 3.063 31.323-7.728 2.123-5 0.882-10.778-1.039-15.858-4.513-11.938-12.467-22.207-20.306-32.277-42.893-55.096-85.785-110.19-128.68-165.29 32.459 36.306 69.796 68.245 110.69 94.689-55.624-59.136-112.25-119.75-145.53-193.81 30.597 40.874 69.985 75.133 114.71 99.768-54.968-57.547-111.64-117.89-135.76-193.73 15.89 27.528 37.177 51.927 62.297 71.403-26.189-25.533-45.248-58.302-54.493-93.689 7.538 20.878 21.188 39.51 38.824 52.992-18.423-33.241-37.227-67.652-41.127-105.46 8.486 18.084 19.693 34.889 33.127 49.674-14.846-31.696-23.467-66.293-25.232-101.25 3.838 15.729 9.774 30.945 17.603 45.117-8.441-30.322-12.09-61.974-10.772-93.423 2.728 9.765 5.455 19.529 8.182 29.294-5.253-25.558-7.988-51.633-8.151-77.725 1.245 7.337 2.49 14.675 3.735 22.012-0.421-14.516-9.92-27.914-10.341-42.431" style="fill:#fff"/></g></g></g><g transform="matrix(.16375 0 0 -.16375 -42.656 332.04)"><g clip-path="url(#clipPath2783)" style="opacity:.3"><g transform="translate(1170.7 1171.2)"><path d="m0 0c-40.419-30.18-73.115-70.618-94.163-116.46 18.747 23.567 40.814 44.489 65.346 61.956-31.402-39.844-62.805-79.688-94.207-119.53 15.34 14.968 30.68 29.936 46.021 44.905-73.916-100.24-145.31-176.55-210.45-282.71-11.579-18.871-20.574-72.445-4.788-87.969 10.753 37.712 21.651 81.7 37.737 112.13 27.732 52.464 66.187 86.491 112.02 136.19 72.425 78.521 175.14 157.09 252.6 230.64 14.391 13.663 54.415 53.255 59.307 72.487 4.892 19.231-24.418 42.516-43.931 46.128-9.54 1.765-43.739-9.503-52.718-13.18-62.055-25.413-103.18-71.133-142.49-125.46 20.493 17.713 44.245 31.642 69.708 40.881" style="fill:#1a1a1a"/></g></g></g><g transform="matrix(.16375 0 0 -.16375 -42.656 332.04)"><g clip-path="url(#clipPath2799)" style="opacity:.3"><g transform="translate(1212.7 1196.5)"><path d="m0 0c-25.771-18.242-28.101-27.65-43.569-55.175 14.089 13.529 9.499 5.583 28.193 11.244-24.437-19.981-41.153-44.153-57.111-71.388 12.781 8.809 43.277 35.609 55.924 44.609-28.417-40.549-56.834-81.098-85.251-121.65 73.621 61.587 142.61 128.47 211.52 195.29 7.394 7.169 15.388 15.898 14.262 26.135-1.738 15.792-22.388 20.712-38.231 19.545-40.148-2.958-79.16-19.637-109.04-46.617 12.495 8.385 8.259-1.768 23.305-1.997" style="fill:#1a1a1a"/></g></g></g><g transform="matrix(.16375 0 0 -.16375 -42.656 332.04)"><g clip-path="url(#clipPath2815)" style="opacity:.5"><g transform="translate(1294.2 1340.3)"><path d="m0 0c-17.696 3.036-35.468 5.654-53.318 7.611-32.954 3.612-66.098 5.546-99.255 5.476-104.04-0.223-209.58-16.402-307.98-50.803-45.45-15.889-89.882-36.091-129.54-63.633-18.026-12.52-35.188-26.379-50.724-41.906 0.225-41.895-5.481-130.24-1.604-171.9 3.5-37.608 10.983-46.86 30.752-82.006 15.592-31.224 36.412-42.74 61.882-68.723-6.132 17.709-9.566 36.035-10.182 54.312 7.723-13.805 11.033-31.987 18.755-45.793-0.702 13.032 3.008 30.44 2.307 43.473 3.765-15.959 13.532-53.708 17.297-69.666 28.581 65.643 69.783 115.96 128.13 168.4 31.094 27.948 65.255 71.292 102.74 88.67-11.041-10.982-22.081-21.963-33.121-32.944 79.156 50.962 158.31 101.92 237.47 152.88 24.901 16.032 50.051 32.267 69.741 53.16 17.252 18.305 21.213 35.281 18.898 52.941-0.748 0.161-1.497 0.316-2.25 0.445" style="fill:#1a1a1a"/></g></g></g><g transform="matrix(.16375 0 0 -.16375 56.571 147.15)"><path d="m0 0c5.707 19.601 11.414 39.202 17.122 58.804-10.123-72.382 8.079-141.89 41.916-206.67-2.215 23.81-4.514 42.144 3.175 64.788 10.559-61.908 37.403-120.96 77.104-169.62-5.142 20.065-7.554 40.827-7.148 61.536 6.951-15.642 9.246-36.242 16.197-51.884 0.026 14.765 4.708 34.489 4.735 49.255 2.873-18.081 5.571-57.533 8.444-75.613 49.432 114.01 139.58 231.31 250.19 287.94-11.653-12.442-23.307-24.883-34.961-37.325 82.003 57.739 164 115.48 246.01 173.22 25.796 18.163 51.853 36.558 72.71 60.23 45.321 51.436 61.638 124.72 51.095 192.46-10.543 67.739-45.906 129.97-92.212 180.52-17.501 19.106-36.876 36.942-59.725 49.16-27.51 14.711-58.781 20.638-89.665 25.041-31.435 4.481-64 7.512-94.518-1.256-27.941-8.028-52.179-25.393-74.91-43.517-115.67-92.232-207.95-212.07-275.76-343.55-43.606-84.557-78.036-180.14-59.798-273.52" style="fill:#cccbcb"/></g><g transform="matrix(.16375 0 0 -.16375 -42.656 332.04)"><g clip-path="url(#clipPath2835)" style="opacity:.5"><g transform="translate(724.38 1349.4)"><path d="m0 0c-30.932-34.885-50.168-79.965-53.953-126.44 3.922 18.008 13.213 34.811 26.379 47.707-19.897-52.823-24.604-111.27-13.414-166.6 6.673 38.354 21.702 75.234 43.74 107.33-12.972-49.816-11.621-103.28 3.851-152.37 0.295 30.111 8.403 60.112 23.317 86.272-9.136-56.017-5.339-114.1 11.012-168.46-5.506 46.175 10.585 94.475 42.685 128.12-1.547-27.512-7.547-54.77-17.696-80.389 18.301 27.12 36.602 54.241 54.903 81.361-3.883-21.966-11.472-43.271-22.351-62.745 44.183 52.509 84.791 108.03 121.45 166.04-8.042-27.419-16.412-55.505-33.63-78.309 43.154 46.507 86.308 93.014 129.46 139.52-11.423-32.753-30.258-62.898-54.688-87.523 73.23 34.977 136.15 91.226 179.08 160.1-3.928-34.535-19.819-67.595-44.334-92.234 83.269 39.845 130.9 133.04 139.79 224.92 8.14-24.942 8.078-52.487-0.175-77.391 44.697 70.705 54.951 162.12 27.028 240.97-4.854 13.71-10.83 27.112-18.989 39.153-37.112 54.77-114.27 70.931-178.03 53.272s-116.34-62.348-162.73-109.51c-71.808-72.997-134.42-155.12-184.96-244.17" style="fill:#fff"/></g></g></g><g transform="matrix(.16375 0 0 -.16375 -42.656 332.04)"><g clip-path="url(#clipPath2851)" style="opacity:.2"><g transform="translate(802.58 1300.4)"><path d="m0 0c-2.755-28.702-3.869-57.561-3.335-86.391 12.244 42.612 35.911 81.884 67.868 112.62-3.098-15.529-6.197-31.058-9.296-46.588 22.71 55.953 65.566 103.48 118.88 131.84-12.127-14.444-21.002-31.603-25.782-49.846 23.829 36.715 66.671 56.206 108.61 68.749s86.004 20.373 123.98 42.146c-6.872 0.573-13.745 1.147-20.617 1.72 14.142 1.805 28.022 5.655 41.074 11.394-7.842 2.932-15.684 5.864-23.525 8.796 12.699 1.062 25.398 2.123 38.098 3.185-1.957 2.056-5.584 2.188-7.684 0.278 28.151 24.027 31.912 65.415 33.617 102.39 2.783-5.919 5.565-11.838 8.347-17.757 19.714 42.549 13.142 92.057 6.166 138.43-142.34-19.718-277.98-73.423-406.29-138.14-55.042-27.762-112.06-60.62-140.65-115.24-10.649-20.347-16.75-42.744-26.085-63.726-15.182-34.127-39.268-65.748-42.213-102.98 13.404 14.533 26.809 29.066 40.213 43.599-16.639-41.28-21.325-87.299-13.348-131.09 3.558 37.696 19.301 74.146 44.303 102.58-20.057-60.005-28.017-124.03-23.266-187.12 3.913 48.7 22.579 96.119 52.914 134.42-10.788-42.51-21.442-88.243-5.954-129.28 10.206 58.808 32.081 115.57 63.983 166.01" style="fill:#1a1a1a"/></g></g></g><g transform="matrix(.16375 0 0 -.16375 -42.656 332.04)"><g clip-path="url(#clipPath2867)" style="opacity:.5"><g transform="translate(747.42 1516.7)"><path d="m0 0c-34.307-56.047-68.895-112.69-89.92-174.94 14.169 12.871 28.338 25.743 42.507 38.614-14.522-38.157-29.284-77.839-26.343-118.56 13.334 44.974 43.052 84.894 82.311 110.57-22.936-40.6-38.94-85.104-47.113-131.01 11.972 35.053 32.355 67.201 58.954 92.98-13.977-27.068-23.361-56.501-27.629-86.664 21.075 49.855 55.998 93.773 99.826 125.54-12.526-16.569-20.384-36.629-22.443-57.297 18.767 38.036 49.426 70.097 86.584 90.547-9.713-11.602-17.123-25.125-21.676-39.555 28.339 49.192 83.041 82.1 139.78 84.089-5.564-4.867-11.127-9.735-16.69-14.603 57.618 25.562 128.65 12.458 182.23 45.661-2.506 0.046-5.011 0.092-7.516 0.138 7.138 5.383 14.277 10.767 21.415 16.15 3.118 2.352 10.096 1.588 7.974-1.691 2.462 6.822 4.923 13.645 7.385 20.467 1.482-3.424 2.964-6.848 4.446-10.273 0.971 6.338 1.941 12.677 2.911 19.015 1.299-2.893 2.598-5.785 3.896-8.678 8.605 33.481 17.209 66.961 25.814 100.44 1.847-6.78 3.694-13.559 5.54-20.339-0.322 36.73-3.328 73.437-8.986 109.73-1.362 8.736-2.998 17.757-8.003 25.046-13.022 18.966-41.035 17.647-63.65 13.423-101.69-18.992-199.96-54.566-292.19-101.42-35.082-17.82-69.953-37.755-96.614-66.694-16.8-18.235-29.858-39.532-42.802-60.679" style="fill:#1a1a1a"/></g></g></g><g transform="matrix(1.4842 0 0 1.4842 -42.771 15.032)"><g transform="matrix(.16375 0 0 -.16375 68.022 -14.413)"><path d="m0 0s-19.037-30.752-27.823 41.003c-8.786 71.754-2.929 137.65-8.054 159.62-5.126 21.966-10.25 39.538-10.25 39.538s11.972-1.009 29.287-13.911c43.805-32.641 122.04-98.931 128.86-104.7 9.518-8.054 21.965-28.555 38.073-32.216 16.109-3.661 8.787-7.322 8.787-7.322z" style="fill:#4d4e4e"/></g><g transform="matrix(.16375 0 0 -.16375 123.97 51.462)"><path d="m0 0c40.268-8.76 82.869-6.539 122.01 6.361-20.881 0.945-41.536 6.581-60.003 16.371 22.507-6.685 45.753-10.881 69.177-12.488-10.024 15.223-20.049 30.447-30.073 45.67 10.214-13.345 20.428-26.69 30.643-40.034-0.136 20.063-2.468 40.11-6.94 59.669 9.736-11.179 16.215-25.163 18.448-39.819 17.131 45.754 21.178 96.323 11.543 144.22 8.288-17.109 13.002-35.94 13.752-54.936 16.234 52.717 3.383 119.61-18.174 170.38-20.593 48.503-50.382 86.461-85.8 125.48-35.417 39.017-84.513 68.211-137.19 69.452-35.194 0.829-55.971 1.296-69.882-7.49 6.589 8.786 10.389 14.063 26.358 13.911-86.046 2.882-193.05-42.06-248-108.33-8.612-10.387-16.498-21.415-22.969-33.255-9.718-17.782-16.136-37.174-21.492-56.717-8.712-31.788-26.843-91.467-14.325-138.13 21.86-81.502 104.2-150.71 256.77-158.81 3.739-0.198 17.736-1.737 20.855-3.45 23.032-12.652 45.414-18.629 71.631-20.417 53.014-3.616 110.91 1.06 163.47 8.864-30.342 0.733-60.59 5.284-89.804 13.511" style="fill:#808080"/></g><g transform="matrix(.16375 0 0 -.16375 -52.861 296.13)"><g clip-path="url(#clipPath2891)" style="opacity:.3"><g transform="translate(871.5 1837.5)"><path d="m0 0c1.545 0.923 3.574-0.955 2.531-2.531-3.117-4.705-5-9.93-7.107-15.096 36.768 11.961 71.625 29.271 110.94 31.059 1.749 0.079 2.655-2.711 0.934-3.447-11.622-4.973-24.149-8.197-34.255-15.878 24.061-1.454 48.067-3.239 71.887-7.1 1.951-0.316 1.569-3.034 0-3.567-14.61-4.963-30.411-5.684-44.828-11.12 19.683-5.931 53.669-8.467 73.623-13.455 64.433-16.108 80.798-55.449 94.417-65.364-3.145 6.653-5.998 13.395-8.184 20.477-13.593 14.869-27.42 30.196-44.025 41.79-16.533 11.545-34.797 18.833-54.414 23.279-1.902 0.431-1.622 3.002 0 3.567 11.858 4.135 24.361 5.52 36.774 6.998-14.554 19.35-47.462 18.966-68.991 23.116-1.362 0.262-1.787 2.188-0.816 3.091 10.842 10.072 24.472 13.022 38.171 16.479-25.19 1.267-51.911 1.978-76.14-3.516-22.254-5.045-43.234-15.659-66.158-17.585-1.556-0.131-2.091 1.632-1.597 2.783 4.012 9.339 11.4 15.744 19.34 21.556-25.824-6.925-51.504-23.013-67.399-43.924-0.374-0.492-0.871-0.717-1.375-0.762-6-7.184-11.177-14.938-15.701-23.069 12.759 12.798 27.9 23.577 42.369 32.219" style="fill:#fff"/></g></g></g><g transform="matrix(.16375 0 0 -.16375 -52.861 296.13)"><g clip-path="url(#clipPath2907)" style="opacity:.39999"><g transform="translate(1230.3 1789.6)"><path d="m0 0c-14.979 35.281-34.837 64.979-58.175 93.567-0.444-7e-3 -0.887-3e-3 -1.331-0.02-4.171-0.167-8.336-0.523-12.424-1.418-5.755-1.259-5.863-3.137-5.14-9.01 2.391-19.431 12.96-37.203 13.484-56.919 0.217-8.197-0.748-16.022-3.528-23.288 1.165-2.306 1.711-4.848 2.359-7.403 0.271-0.208 0.509-0.474 0.642-0.875 6.132-18.568 16.806-34.921 25.554-52.276 7.986-15.842 13.519-32.58 17.549-49.85 7.923-33.957 11.14-91.141 12.224-125.89 0.055-1.778-36.254 66.871-36.254 66.871s20-85.546 18.681-84.992c-21.473 9.009-68.245 62.68-68.245 62.68s42.71-64.301 57.262-85.744c0.916-1.349-100.12 16.81-100.12 16.81s73.954-28.095 71.57-28.342c-31.487-3.265-116.42-3.845-116.42-3.845l32.949-18.67s-23.385-4.063-47.776-3.295c-36.065 1.136-78.281 7.205-82.493 6.788 17.622-7.423 35.475-11.274 55.586-12.645 53.014-3.616 110.91 1.06 163.47 8.864-30.341 0.733-60.589 5.284-89.803 13.511 40.268-8.76 82.868-6.539 122.01 6.361-20.881 0.945-41.535 6.581-60.003 16.371 22.508-6.685 45.753-10.881 69.178-12.488-10.025 15.223-20.049 30.447-30.073 45.67 10.213-13.345 20.428-26.69 30.642-40.035-0.135 20.064-2.467 40.111-6.939 59.67 9.736-11.18 16.215-25.163 18.448-39.819 17.13 45.754 21.178 96.323 11.543 144.22 8.287-17.109 13.001-35.94 13.752-54.936 16.233 52.717 3.383 119.61-18.174 170.38" style="fill:#fff"/></g></g></g><g transform="matrix(.16375 0 0 -.16375 -52.861 296.13)"><g clip-path="url(#clipPath2923)" style="opacity:.3"><g transform="translate(998.05 1904)"><path d="m0 0c-5.383 27.719 2.149 55.944 16.91 80.292-9.543-1.642-19.02-3.652-28.392-6.157-46.268-12.363-86.681-36.531-116.7-74.207-1.015-1.273 2.978 22.527 6.845 33.031-20.745-15.467-61.897-89.799-63.799-96.156-0.687-2.297-6.297 18.759-4.393 23.43-13.224-21.246-19.086-51.247-19.037-76.147 18.638 29.467 50.024 68.681 78.691 87.995 33.171 22.347 113.92 40.263 112.61 39.273-11.301-8.547-24.028-15.236-34.18-25.096 16.865 5.581 34.053 10.204 51.444 13.742" style="fill:#fff"/></g></g></g><g transform="matrix(.16375 0 0 -.16375 -52.861 296.13)"><g clip-path="url(#clipPath2939)" style="opacity:.2"><g transform="translate(1122.6 1647.5)"><path d="m0 0c-18.674-11.666-37.915-25.698-59.307-31.484 22.233 12.214 39.606 32.099 51.253 54.182-15.992-4.383-33.319-9.421-49.836-7.687 10.002 9.383 23.633 14.997 37.468 15.437-8.548 7.491-21.521 13.42-33.028 14.216-44.516 3.077-93.532-0.051-128.13-27.865-11.565-9.299-29.396-23.038-29.396-23.038s-57.644 2.958-72.751 6.56c-13.32-1.831-38.852-4.08-51.431-9.165-42.34-17.116-69.857-39.566-103.89-69.039-0.402-0.348-1.082-0.229-1.601-0.089 14.065-10.605 29.006-20.271 43.81-29.804 30.862-19.872 62.232-39.967 97.646-50.261 47.111-13.695 102.67-14.745 148.36 2.814 45.597 17.52 82.111 57.687 115.69 92.255-18.072-12.757-40.209-25.225-62.456-26.925 39.422 18.059 73.812 54.474 97.601 89.893" style="fill:#1a1a1a"/></g></g></g><g transform="matrix(.16375 0 0 -.16375 128.97 27.601)"><path d="m0 0c-18.328-11.786-38.441-20.792-59.439-26.615 21.791 12.319 39.831 31.176 51.173 53.492-15.715-4.433-32.281-5.825-48.515-4.078 9.776 9.472 23.14 15.146 36.744 15.599-8.449 7.555-20.66 8.712-31.966 9.503-43.665 3.057-92.143 4.657-125.79-23.336-11.24-9.35-28.562-23.157-28.562-23.157s-56.026 2.99-70.682 6.607c-12.902-1.834-37.609-4.081-49.762-9.17-40.857-17.106-67.362-39.538-100.11-68.958-0.385-0.347-1.04-0.226-1.539-0.085 13.531-10.649 27.92-20.372 42.193-29.972 29.807-20.047 60.175-40.366 94.521-50.887 45.817-14.035 96.226-9.365 140.83 8.153 44.601 17.517 83.683 47.277 116.53 82.167-17.714-12.866-39.043-20.698-60.873-22.355 38.626 18.157 72.021 47.288 95.254 83.092" style="fill:#cccbcb"/></g><g transform="matrix(.16375 0 0 -.16375 58.128 40.019)"><path d="m0 0c1.992 29.034 19.779 55.174 17.784 84.73-0.442 6.551-0.023 10.522 0.357 18.874 1.098 24.162-29.767 27.023-38.44 31.301-4.689 2.313 9.771 9.049 6.04 12.081-8.786 7.139-32.32-9.66-46.286-27.906-6.279-8.204-8.268-18.923-5.236-28.799 5.925-19.301 15.344-37.53 27.711-53.492 11.015-14.217 24.142-26.447 38.241-37.634-0.12 0.239-0.193 0.514-0.171 0.845" style="fill:#cccbcb"/></g><g transform="matrix(.16375 0 0 -.16375 78.633 14.602)"><path d="m0 0c5.439 3.173-27.806-28.413-33.314-36.374-7.796-11.27-2.277-26.625-3.859-40.238-1.351-11.622-7.97-21.887-14.722-31.442-18.718-26.489-39.881-51.25-63.133-73.865-20.45-19.89-48.464-39.381-75.347-29.834-12.759 4.53-22.418 14.887-33.635 22.47-11.217 7.582-28.804 24.915-39.944 17.219 26.449 29.462 41.735 48.324 71.755 74.683 7.247 6.363 22.647 15.48 30.92 20.435 5.128 3.072 10.769 5.16 16.285 7.461 30.569 12.753 89.701 48.457 94.839 65.092-0.456-10.526 36.975-3.295 50.155 4.393" style="fill:#e5e5e4"/></g><g transform="matrix(.16375 0 0 -.16375 51.522 65.314)"><path d="m0 0c0.49 1.643 3.311 0.912 3.719-0.753 0.407-1.665-0.611-3.302-1.47-4.786-9.321-16.103-1.086-39.632 16.244-46.407-0.39 6.536-0.78 13.071-1.171 19.607 10.548-29.634 40.549-51.233 71.999-51.835-7.207 9.934-14.414 19.869-21.62 29.803 15.999-16.411 44.789-18.024 62.521-3.501-8.329-0.384-16.76 1.833-23.823 6.264 26.984-3.521 55.396 6.491 74.212 26.151-7.585 0.806-15.171 1.612-22.756 2.419 21.206 0.544 42.216 7.294 59.771 19.203-7.068 7.619-8.19 19.466-4.786 29.286 3.403 9.819 10.673 17.851 18.71 24.44 15.556 12.749 34.324 20.98 50.512 32.917 16.187 11.937-7.672 73.576-19.068 62.339-11.397-11.237-18.475-26.541-30.987-36.522-8.66-6.907-31.805-1.365-38.983-9.803-83.469-98.113-138.34-96.836-193.02-98.822" style="fill:#cccbcb"/></g><g transform="matrix(.16375 0 0 -.16375 72.114 61.341)"><path d="m0 0c17.095 13.49 36.508 32.783 48.233 51.135 6.789 10.627 13.851 18.165 14.643 30.751 1.564 24.828-30.077 48.318-54.718 51.731-24.641 3.412-49.133-5.528-72.406-14.317-36.274-13.698-72.548-27.397-108.82-41.095-8.775-3.315-42.514-20.714-46.677-31.464-1.026-2.65-1.738-18.981-0.733-20.501 4.381-6.618 24.728-34.994 33.498-38.806 8.771-3.812 18.488-2.928 29.622 3.585 2.672-9.424 11.47-16.114 20.854-18.921s19.393-2.374 29.173-1.831c37.685 2.095 77.705 6.352 107.33 29.733" style="fill:#e5e5e4"/></g><g transform="matrix(.16375 0 0 -.16375 -52.861 296.13)"><g clip-path="url(#clipPath2975)" style="opacity:.7"><g transform="translate(947.23 1610.2)"><path d="m0 0c-18.487 1.392-36.895-0.345-54.755-7.449-8.045-3.2-24.207-21.981-21.359-23.477 38.44 8.237 50.604-9.048 68.094-31.85 6.355 13.599 7.275 21.303-2.197 32.948 11.209-2.399 22.963-17.195 26.743-28.017 1.196 11.65 0.251 23.516-2.774 34.829 5.935-2.845 10.992-7.494 14.323-13.17 1.144 16.674-12.054 32.528-28.075 36.186" style="fill:#fff"/></g></g></g><g transform="matrix(.16375 0 0 -.16375 125.09 21.076)"><path d="m0 0c-4.027 5.125-12.194 5.394-19.037 6.59-49.74 8.69-97.807-1.319-135.09-26.359-24.528-16.475-24.162-18.671-57.11-48.325 37.342 26.359 118.62 27.457 153.76 26.359-20.003 4.724-38.698 18.544-58.209 12.081 21.966 16.474 44.759 3.585 73.585 7.688 2.735 0.389-20.501 10.251-27.823 12.081-2.68 0.67 58.741 10.205 69.924 9.885" style="fill:#e5e5e4"/></g><g transform="matrix(.16375 0 0 -.16375 34.931 43.377)"><path d="m0 0-10.25-16.109s1.464-38.073 7.322-43.93c5.857-5.858 21.965-19.037 32.216-24.895 10.25-5.857 23.43-4.393 23.43-4.393s14.643 7.322 29.287 19.037 36.61 52.717 36.61 52.717-27.824 19.037-73.219 26.359c-36.402 5.871-45.396-8.786-45.396-8.786" style="fill:#333"/></g><g transform="matrix(.16375 0 0 -.16375 -52.861 296.13)"><g clip-path="url(#clipPath2999)" style="opacity:.2"><g transform="translate(838.72 1696.8)"><path d="m0 0s-45.042 24.042-34.621 59.615 14.735 66.7 67.573 65.589c52.838-1.112 123.84-17.787 144.06-42.244s33.803-74.656 24.521-80.215c-9.282-5.558-76.879-14.277-76.879-14.277z" style="fill:#1a1a1a"/></g></g></g><g transform="matrix(.16375 0 0 -.16375 84.568 16.94)"><path d="m0 0s-41.734 15.376-27.457 50.521c14.278 35.145 21.965 65.897 74.683 64.799 52.718-1.099 121.91-17.573 139.48-41.735 17.573-24.163 23.064-64.799 13.179-70.29-9.884-5.491-75.781-23.064-75.781-23.064l-119.71 20.867z" style="fill:#e5e5e4"/></g><g transform="matrix(.16375 0 0 -.16375 -52.861 296.13)"><g clip-path="url(#clipPath3019)" style="opacity:.2"><g transform="translate(644.04 1739.6)"><path d="m0 0c5.885-9.042 11.406-17.4 21.857-12.525 6.502 3.032 25.77 12.906 28.554 11.387 6.261-3.417 51.95-19.359 63.811-10.249s28.331 54.658 14.161 78.571c-9.35 15.78-57.553 40.994-95.002 17.081-37.45-23.913-45.466-38.717-41.62-55.797 1.677-7.45 3.676-21.458 8.239-28.468" style="fill:#1a1a1a"/></g></g></g><g transform="matrix(.16375 0 0 -.16375 52.376 11.365)"><path d="m0 0c6.757-8.721 13.083-16.782 23.064-12.081 6.21 2.925 24.527 12.448 27.457 10.983 6.59-3.295 53.816-18.671 64.799-9.885 10.982 8.787 23.064 52.718 6.589 75.782-10.871 15.219-61.503 39.538-96.649 16.474-35.144-23.064-41.734-37.342-36.243-53.816 2.395-7.185 5.745-20.696 10.983-27.457" style="fill:#e5e5e4"/></g><g transform="matrix(.16375 0 0 -.16375 111.78 -14.653)"><path d="m0 0s-15.376 57.843 43.931 120.08c59.308 62.236 150.83 87.13 150.83 87.13s-44.664-83.469-25.626-138.38c19.037-54.913 30.019-98.112 5.125-141.31-24.895-43.2-86.398-52.718-79.809-9.519 6.59 43.199 35.878 82.005 35.878 82.005l-31.484-2.929 2.928 41.003s-27.823-5.858-47.592-23.43c-16.294-14.484-42.536-15.04-51.258-14.789-1.861 0.055-2.924 0.145-2.924 0.145" style="fill:#e5e5e4"/></g><g transform="matrix(.16375 0 0 -.16375 129.56 -42.464)"><path d="m0 0c-22.09-12.838-45.102-29.276-64.624-49.762-59.307-62.236-43.931-120.08-43.931-120.08s1.063-0.09 2.923-0.144c8.606-0.248 16.479 27.967 25.266 47.736 14.277 58.209 36.812 81.867 80.366 122.25" style="fill:#4d4e4e"/></g><g transform="matrix(.16375 0 0 -.16375 -52.861 296.13)"><g clip-path="url(#clipPath3047)" style="opacity:.2"><g transform="translate(772.71 1680.7)"><path d="m0 0c-4.394-10.567-4.833-22.279-6.606-33.586-4.764-30.382-19.84-59.052-42.171-80.197 8.948 11.204 25.191 12.196 39.366 14.354 18.389 2.8 68.228 52.271 65.714 70.7 23.401-10.618 57.126-13.328 79.201-0.174 4.701 2.801 8.967 6.262 13.378 9.5 30.657 22.508 69.106 34.183 107.1 32.523-17.241 6.167-35.269 10.13-53.507 11.763 7.974 6.613 19.202 9.09 29.219 6.447-49.048 13.366-102.31 26.553-149.49 7.634-6.322-2.535-12.806-5.686-19.584-5.008-9.041 0.904-43.583 1.189-62.62-33.956" style="fill:#1a1a1a"/></g></g></g><g transform="matrix(.16375 0 0 -.16375 83.069 26.411)"><path d="m0 0 73.951-5.857s29.244 27.226 58.941 37.707c31.118 10.983 68.46 14.278 68.46 14.278s-23.43 2.197-40.637 0c-17.206-2.197-31.117-4.393-31.117-4.393s-14.644 43.199-71.023 35.877c-56.378-7.322-49.056-16.474-49.056-16.474l3.661-8.42s-7.322-35.878-5.858-39.539-7.322-13.179-7.322-13.179" style="fill:#1a1a1a"/></g><g transform="matrix(.16375 0 0 -.16375 85.347 25.512)"><path d="m0 0s0.732 49.423 11.714 54.548c10.983 5.125 46.861 13.911 65.165 8.786 18.305-5.125 31.484-30.019 31.484-30.019s-25.26-16.108-31.118-21.234c-5.857-5.125-17.938-15.376-17.938-15.376z" style="fill:#fff"/></g><g transform="matrix(.16375 0 0 -.16375 -52.861 296.13)"><g clip-path="url(#clipPath3071)"><g transform="translate(952.76 1682.3)"><path d="m0 0c0-23.251-18.849-42.1-42.101-42.1-23.251 0-42.101 18.849-42.101 42.1 0 23.252 18.85 42.101 42.101 42.101 23.252 0 42.101-18.849 42.101-42.101" style="fill:#29a9e1"/></g><g transform="translate(932.99 1683.4)"><path d="m0 0c0-12.132-9.835-21.966-21.966-21.966s-21.965 9.834-21.965 21.966c0 12.131 9.834 21.966 21.965 21.966s21.966-9.835 21.966-21.966" style="fill:#1a1a1a"/></g><g transform="translate(952.76 1673.9)"><path d="m0 0c0-9.301-8.195-16.84-18.305-16.84-10.109 0-18.304 7.539-18.304 16.84s8.195 16.84 18.304 16.84c10.11 0 18.305-7.539 18.305-16.84" style="fill:#fff"/></g></g></g><g transform="matrix(.16375 0 0 -.16375 -52.861 296.13)"><g clip-path="url(#clipPath3091)"><g clip-path="url(#clipPath3099)" style="opacity:.3"><g transform="translate(653.41 1701.7)"><path d="m0 0c4.234-3.774 9.935-5.857 15.605-5.7-8.142-0.079-16.284-0.158-24.426-0.236 12.086-3.388 37.701-17.058 38.719-20.374 1.352-4.404 2.532-3.644-1.417-6.016-12.389-7.443-24.777-14.885-37.166-22.327 48.092 9.552 91.517 40.517 116.22 82.872-10.026-4.699-20.919-9.242-31.837-7.399-4.678 0.79-9.072 2.721-13.573 4.222-22.105 7.374-45.906-5.297-65.173-18.403 6.855-6.4 12.918-2.726 21.232-7.065-6.06 0.142-12.121 0.284-18.182 0.426" style="fill:#1a1a1a"/></g></g><g transform="translate(655.85 1699.5)"><path d="m0 0s23.064-5.491 30.752-12.63 11.532-15.376 11.532-15.376 28.555 20.318 38.989 31.301c10.433 10.983 20.867 25.26 20.867 25.26l-31.85 14.278-33.498 12.081 14.278-10.983s-15.925 1.099-22.515-6.04c-6.589-7.139-13.728-34.596-13.728-34.596z" style="fill:#333"/></g><g transform="translate(678.92 1700.1)"><path d="m0 0s9.884-3.844 14.827-9.335c4.942-5.492 12.081-14.278 12.081-14.278s26.908 20.318 31.301 26.359c4.393 6.04 16.474 18.121 16.474 18.121s-19.22 10.434-25.26 13.18c-6.041 2.745-32.949 4.942-38.989-1.099-6.041-6.04-10.434-32.948-10.434-32.948" style="fill:#fff"/></g></g></g><g transform="matrix(.16375 0 0 -.16375 -52.861 296.13)"><g clip-path="url(#clipPath3123)"><g transform="translate(762.02 1707.2)"><path d="m0 0c0-18.601-15.079-33.681-33.68-33.681s-33.681 15.079-33.681 33.681c0 18.601 15.08 33.68 33.681 33.68s33.68-15.079 33.68-33.68" style="fill:#29a9e1"/></g><g transform="translate(746.21 1708.1)"><path d="m0 0c0-9.705-7.868-17.573-17.573-17.573s-17.572 7.868-17.572 17.573 7.867 17.573 17.572 17.573 17.573-7.868 17.573-17.573" style="fill:#1a1a1a"/></g><g transform="translate(762.02 1700.5)"><path d="m0 0c0-7.441-6.556-13.472-14.644-13.472-8.087 0-14.643 6.031-14.643 13.472 0 7.44 6.556 13.472 14.643 13.472 8.088 0 14.644-6.032 14.644-13.472" style="fill:#fff"/></g></g></g><g transform="matrix(.16375 0 0 -.16375 -52.861 296.13)"><g clip-path="url(#clipPath3151)" style="opacity:.10001"><g transform="translate(592.7 1420.6)"><path d="m0 0c-6.797-1.2-13.902-1.839-19.22 2.562-10.367 8.581-33.526 35.787-30.386 41.918 1.287 2.511 0.375 11.02 0.375 11.02s-13.242 14.176-10.076 12.593c6.59-3.295 13.313-6.322 28.555-7.688 16.115-1.444 42.714 8.16 58.209 4.393 14.466-3.516 26.986-9.233 33.864-11.349 38.074-11.715 57.11-55.646 44.663-60.771-11.144-4.589-52.717-10.983-71.754-3.661-7.036 2.706-21.051 13.179-21.051 13.179z"/></g></g></g><g transform="matrix(.16375 0 0 -.16375 -52.861 296.13)"><g clip-path="url(#clipPath3167)" style="opacity:.2"><g transform="translate(665.74 1418)"><path d="m0 0c-14.852 0.721-32.187 0.378-45.963 6.843-12.759 5.986-18.183 19.322-23.491 31.572-4.737 10.933 4.626 19.929 9.791 29.6-14.636-1.154-32.231-6.094-44.125-5.027-15.242 1.365-21.965 4.392-28.555 7.687-3.166 1.583 10.076-12.593 10.076-12.593s0.132-1.244 0.225-2.919c3.971-2.413 7.96-4.79 12.062-6.967 7.191-3.815 15.687-6.926 21.778-12.502 4.445-4.069 16.069-20.379 7.652-25.342-6.441-3.797-20.802 20.652-24.519 22.25-4.427 1.903-6.003 2.752-9.97 5.676-3.08 2.271-5.685 4.777-7.873 7.599-0.388-7.847 20.85-32.616 30.656-40.732 5.318-4.401 12.423-3.763 19.22-2.563l13.179 2.197s14.016-10.474 21.051-13.18c19.037-7.322 60.61-0.928 71.754 3.661 2.197 0.904 3.393 3.034 3.697 5.965-12.106-1.506-24.298-1.824-36.645-1.225"/></g></g></g><g transform="matrix(.16375 0 0 -.16375 97.746 43.285)"><path d="m0 0c-6.561 13.027-38.144 19.313-49.369 10.196-0.641-0.52 16.455-2.22 16.483-2.703 0.366-6.223-2.407-13.792-5.179-19.4-3.844-7.777-10.223-14.64-18.206-17.515-15.421-5.552-38.659-9.838-38.119-9.945-19.063-29.543-44.426-58.008-75.049-75.781-17.165-9.961-56.964-19.071-88.595-19.037-27.26 0.03-48.425 6.183-51.925 11.446-7.729 11.621-13.581 24.269-20.419 36.389-0.887 1.572-3.606 0.504-2.963-1.25 3.865-10.545 9.094-22.021 15.418-31.988-0.014-0.012-0.029-0.018-0.043-0.03-6.57-5.474-15.957-1.448-23.634-3.528-0.042-0.012-0.053-0.074-0.013-0.095 7.392-3.837 19.53-5.457 27.292-1.655 0.706-0.978 1.404-1.971 2.133-2.903 3.366-4.303 6.85-5.751 12.006-7.327 38.853-11.872 99.188-3.335 129.34 11.99 34.863 17.716 57.135 45.846 80.109 76.447 0.661 0.88 36.418 9.667 43.551 13.867 11.092 6.531 28.87 24.119 27.105 37.753-0.107 0.827 20.687-6.15 20.073-4.931" style="fill:#1a1a1a"/></g><g transform="matrix(.16375 0 0 -.16375 -52.861 296.13)"><g clip-path="url(#clipPath3187)" style="opacity:.10001"><g transform="translate(817.85 1544.1)"><path d="m0 0c-22.375 9.792-50.029-8.346-49.769-32.327 6e-3 -0.636 9.133 14.755 21.214 22.992 11.08 7.555 30.258 8.59 28.555 9.335" style="fill:#1a1a1a"/></g></g></g><g transform="matrix(.16375 0 0 -.16375 -52.861 296.13)"><g clip-path="url(#clipPath3203)" style="opacity:.39999"><g transform="translate(1069.2 1829.7)"><path d="m0 0c9.95-3.662 11.487-16.911 17.715-25.491 5.541-7.635 15.752-12.828 16.61-22.222-21.139 15.985-42.763 32.231-67.882 40.685 8.59 4.642 17.508 8.676 26.666 12.059-21.64 14.06-49.02 18.976-74.201 13.322 13.738 7.052 28.245 12.604 43.181 16.525-8.823 5.043-19.516 5.353-29.667 4.886-35.864-1.648-71.328-11.476-102.92-28.523 9.027 11.869 18.859 23.124 29.408 33.664-28.324-8.763-58.327-18.623-77.124-41.551 24.653 37.073 65.902 62.644 110.07 68.237-6.552-6.6-12.592-13.71-18.046-21.243 38.801 10.898 79.533 14.884 119.71 11.716-4.459-0.66-8.671-2.881-11.733-6.188 13.219 1.514 26.915-1.514 38.264-8.459-13.113-3.634-25.487-9.912-36.163-18.347 15.494 2.311 28.906-10.063 39.664-21.45-8.322-0.514-16.503-3.161-23.548-7.62" style="fill:#1a1a1a"/></g></g></g><g transform="matrix(.16375 0 0 -.16375 -52.861 296.13)"><g clip-path="url(#clipPath3219)" style="opacity:.2"><g transform="translate(734.96 1904.2)"><path d="m0 0c-0.297-0.272-0.594-0.545-0.892-0.817 1.493-6.97 2.191-14.256 2e-3 -22.504-0.305-1.153-1.59-2.443-2.503-1.762-4.098 3.063-7.641 6.749-10.919 10.735-2.969-3.847-5.829-7.799-8.696-11.746 7.607-11.115 14.577-22.925 22.412-33.933 1.443 5.133 3.06 10.232 3.619 15.346 0.187 1.712 2.476 2.552 2.956 1.206 4.495-12.604 8.268-27.257 9.453-42.739 1.509 8.52 2.404 16.964 2.472 25.226-0.293 0.224-0.487 0.596-0.459 1.148 1.142 22.505-5.785 44.552-17.445 59.84" style="fill:#fff"/></g></g></g><g transform="matrix(.16375 0 0 -.16375 -52.861 296.13)"><g clip-path="url(#clipPath3235)" style="opacity:.10001"><g transform="translate(723.09 1893)"><path d="m0 0c-1.415-1.761-2.804-3.548-4.168-5.357 2.424-4.48 4.665-9.113 6.665-13.927 0.376 7.449 0.462 14.819 0.316 22.109-0.959-0.922-1.871-1.888-2.813-2.825" style="fill:#1a1a1a"/></g></g></g><g transform="matrix(.16375 0 0 -.16375 -52.861 296.13)"><g clip-path="url(#clipPath3251)" style="opacity:.5"><g transform="translate(736.99 1906.1)"><path d="m0 0c-1.413-1.284-2.82-2.578-4.227-3.874 10.304-14.965 19.074-31.605 18.718-52.721 2.444 22.721 4.576 48.137-2.821 66.39-2.239-1.977-9.46-7.786-11.67-9.795" style="fill:#1a1a1a"/></g></g></g><g transform="matrix(.16375 0 0 -.16375 -52.861 296.13)"><g clip-path="url(#clipPath3267)" style="opacity:.3"><g transform="translate(845.87 1934)"><path d="m0 0c-4.702-12.439-9.403-24.878-14.105-37.316 14.477 29.771 40.062 53.98 70.587 66.789-5.984-8.102-11.968-16.203-17.952-24.305 31.709 31.678 78.097 48.017 122.66 43.203-54.815-12.128-109.17-38.93-140.02-85.839 0.243 11.98 4.691 23.834 12.389 33.017-20.185-14.768-36.559-34.699-47.127-57.368-4.489-9.63-8.744-20.621-18.31-25.245 0.2 11.731 3.08 23.41 8.358 33.89-15.687-26.752-31.646-54.215-37.183-84.729-2.845 51.681 23.943 101.46 60.699 137.9" style="fill:#1a1a1a"/></g></g></g><g transform="matrix(.16375 0 0 -.16375 -52.861 296.13)"><g clip-path="url(#clipPath3283)" style="opacity:.39999"><g transform="translate(768.71 1830.8)"><path d="m0 0c-5.279 15.975-6.642 33.229-3.936 49.836-0.489-2.952-0.977-5.904-1.466-8.856 5.774 21.999 15.488 42.958 28.541 61.583-3.308-7.976-6.616-15.952-9.925-23.927 9.888 24.085 29.807 42.583 50.641 58.198-19.605-26.676-35.569-56.025-47.308-86.979-1.796 6.087-2.288 12.555-1.432 18.843-9.125-21.924-18.438-45.184-15.115-68.698" style="fill:#1a1a1a"/></g></g></g><g transform="matrix(.16375 0 0 -.16375 72.968 -19.108)"><path d="m0 0c-6.64 14.286-16.65 26.993-28.984 36.795-2.706 2.149-5.858 5.029-5.02 8.382 10.168-3.74 19.219-10.462 25.738-19.115-5.705 9.234-12.515 17.785-20.237 25.412 9.171-6.972 18.343-13.943 27.516-20.913-4.712 12.85-12.076 24.722-21.497 34.652-3.848 4.055-8.166 7.992-10.053 13.255 16.002-11.797 33.211-25.44 36.875-44.98-3.651 22.162-12.646 43.424-26.008 61.477 19.286-11.513 28.633-33.971 36.744-54.917-4.255 17.343-8.073 34.793-11.449 52.327 7.024-14.531 12.773-29.679 17.159-45.213 1.727 2.784 2.572 6.107 2.383 9.377 4.024-11.764 7.25-23.801 9.647-36-0.748 1.656-1.496 3.313-2.244 4.969" style="fill:#b3b2b3"/></g><g transform="matrix(.16375 0 0 -.16375 61.428 -53.139)"><path d="m0 0c8.103-15.659 31.561-33.926 43.234-47.141 35.53-40.221 66.629-77.356 71.72-130.78 7.897 5.971 6.726 0.687 14.643 4.393 17.994 8.422 43.377 17.819 65.165 23.43-23.146 10.114-21.275 15.251-42.467 35.145-44.873 42.126-88.456 76.773-117.15 95.185-17.189 11.029-24.162 16.84-35.145 19.769" style="fill:#b3b2b3"/></g><g transform="matrix(.16375 0 0 -.16375 -52.861 296.13)"><g clip-path="url(#clipPath3307)" style="opacity:.5"><g transform="translate(1135.1 1986.5)"><path d="m0 0c-8.396-16.658-15.378-34.029-20.848-51.864 4.849 4.63 10.749 8.154 17.124 10.229-3.109-10.382-6.219-20.764-9.328-31.147 6.712 4.663 14.081 8.38 21.819 11.008 0.1-4.122 0.199-8.243 0.298-12.365 6.559 3.008 11.769-6.318 12.541-13.493 3.213-29.871-5.044-60.832-22.703-85.137 16.558-1.221 28.077 15.774 34.91 30.906 6.127 13.564 11.588 27.74 12.553 42.593 1.774 27.337-11.678 53.044-18.381 79.605-10.695 42.376-3.544 88.959 19.368 126.18-45.668-23.807-92.837-57.209-103.69-107.55 9.831 16.905 26.215 29.884 44.921 35.586-20.445-14.821-35.58-36.814-42.122-61.203 15.48 12.844 33.962 22.046 53.541 26.659" style="fill:#1a1a1a"/></g></g></g><g transform="matrix(.16375 0 0 -.16375 -52.861 296.13)"><g clip-path="url(#clipPath3323)" style="opacity:.5"><g transform="translate(799.73 1525.3)"><path d="m0 0c-13.063-4.832-26.06-17.409-34.762-28.286 0.902 12.537 8.1 24.111 17.892 31.991 9.793 7.879 21.977 12.343 34.34 14.613 4.518 0.83-4.406-13.486-17.47-18.318" style="fill:#fff"/></g></g></g><g transform="matrix(.16375 0 0 -.16375 -52.861 296.13)"><g clip-path="url(#clipPath3339)" style="opacity:.5"><g transform="translate(627.06 1571.7)"><path d="m0 0c15.568-0.71 31.18-0.456 46.717 0.76-9.654 6.011-20.124 13.111-22.765 24.173 14.659-2.277 29.656-2.362 44.339-0.25-3.081 8.475-19.074 7.922-19.49 16.931 11.141 1.604 22.211 3.702 33.167 6.284-5.067 4.776-9.03 10.716-11.496 17.228 4.937 2.913 11.002 2.814 16.634 3.882 5.63 1.069 11.767 4.288 12.679 9.946 5.426 3.318 10.265 7.591 14.229 12.565 3.532 4.433 6.35 9.381 9.152 14.308 5.17 9.087 5.693 18.851 6.306 29.288-36.925-35.271-85.386-47.466-127.7-76.041 13.526 4.98 28.612 5.629 42.517 1.826 2.116-0.579 4.657-2.95 3.007-4.395-22.491 3.469-46.21-1.738-65.179-14.31 12.726 2.825 26.483 0.709 37.773-5.809-21.891 1.115-44.049-3.523-63.654-13.324 13.235 2.571 27.279 0.786 39.449-5.015-0.98-4.091-6.414-4.795-10.619-4.692-15.79 0.39-33.865-1.227-43.4-13.82 8.953 0.563 17.977-8e-3 26.788-1.696-13.192-9.775-37.27-8.333-50.579-17.947-1.418-1.024 0.695 4.034 2.242 3.218 16.823 6.229 35.616 5.622 52.97 1.078s33.489-12.827 49.039-21.772c2.595 7.394 0.089 15.812-4.551 22.128-4.638 6.316-11.163 10.943-17.57 15.456" style="fill:#fff"/></g></g></g><g transform="matrix(.16375 0 0 -.16375 -52.861 296.13)"><g clip-path="url(#clipPath3355)" style="opacity:.7"><g transform="translate(653.34 1773.1)"><path d="m0 0c6.323 7.771 14.198 14.275 23.025 19.014-14.328 2.49-29.842-4.498-37.471-16.88 4.369 5.718 7.722 12.21 9.855 19.082-4.615-4.874-9.905-9.109-15.67-12.547-1.569 10.643 21.949 29.371 31.567 34.191 25.985 13.025 32.257 12.744 60.405 5.492 7.885-2.032 27.03-11.731 32.327-17.916 5.75-6.714 7.354-16.118 6.873-24.946-0.355-6.519-2.007-13.483-6.977-17.716-4.294-3.656-10.241-4.581-15.871-4.916-21.758-1.295-43.873 4.229-62.467 15.603 9.252-0.48 18.617 1.417 26.952 5.461-16.944 6.493-36.755 5.015-52.548-3.922" style="fill:#fff"/></g></g></g><g transform="matrix(.16375 0 0 -.16375 -52.861 296.13)"><g clip-path="url(#clipPath3371)" style="opacity:.7"><g transform="translate(984.33 1753.6)"><path d="m0 0c8.195-4.095 16.895-9.136 20.147-17.7-1.472 6.061-2.943 12.122-4.414 18.182 12.999-6.203 22.523-19.187 24.535-33.449 11.29 20.516 1.895 47.636-15.77 63.009-17.666 15.374-41.467 21.425-64.564 25.288-14.241 2.383-28.589 4.12-42.986 5.207-13.805 1.041-27.984 1.442-41.174-2.764-28.802-9.183-47.661-42.245-40.906-71.71 35.82 16.251 76.259 22.169 115.23 16.862-4.873 7.727-9.746 15.453-14.619 23.179 22.148-6.986 43.744-15.724 64.518-26.104" style="fill:#fff"/></g></g></g><g transform="matrix(.16375 0 0 -.16375 -52.861 296.13)"><g clip-path="url(#clipPath3387)" style="opacity:.5"><g transform="translate(1135.5 1890.6)"><path d="m0 0c3.302 6.511 8.244 12.181 14.243 16.342-6.934-30.881-15.134-61.477-24.574-91.685 0.173 27.142 2.69 54.27 7.511 80.982-8.02 1.934-16.677 1.112-24.191-2.296 1.801 8.112 3.601 16.224 5.401 24.336-3.701-5.468-7.403-10.935-11.105-16.403-0.979 17.017 0.382 34.166 4.034 50.815-17.057-9.39-32.271-22.114-44.531-37.242 2.149 15.617 5.696 31.041 10.583 46.028-11.046-13.759-20.344-28.92-27.598-45.004-0.226 13.346 0.861 26.714 3.24 39.848-1.044-3.76-3.625-7.068-7.019-8.995 10.835 35.265 29.77 68.014 54.927 94.998-15.716-25.016-27.119-52.734-33.558-81.566 8.682 23.298 25.439 43.498 46.731 56.335-17.844-23.873-30.531-51.581-36.948-80.687 15.075 18.593 35.058 33.169 57.366 41.844-12.545-15.254-19.429-35.058-19.051-54.803 2.429 7.633 8.346 14.08 15.744 17.153-5.756-12.679-8.648-26.649-8.398-40.572l20.802 19.254c-3.122-9.186-4.358-19.009-3.609-28.682" style="fill:#fff"/></g></g></g><g transform="matrix(.16375 0 0 -.16375 -52.861 296.13)"><g clip-path="url(#clipPath3403)" style="opacity:.5"><g transform="translate(774.84 1936.9)"><path d="m0 0c-1.77 1.923-4.268 3.159-6.87 3.399-1.027-1.688-1.441-3.739-1.15-5.693-8.299 7.898-16.034 16.389-23.125 25.388 7.067-4.795 14.133-9.591 21.2-14.386-4.357 6.327-8.713 12.654-13.069 18.982 8.41-5.486 16.16-11.982 23.029-19.305-3.389 13.759-10.26 26.646-19.794 37.128-3.649 4.011-7.72 7.731-10.456 12.412 14.464-9.23 26.256-22.597 33.608-38.099-4.55 17.277-11.573 33.9-20.79 49.206 12.438-14.765 23.688-31.01 29.351-49.466-1.061 15.036-4.666 29.89-10.616 43.739 9.198-16.321 14.888-34.609 16.574-53.267-4.969 5.477-9.681 11.186-14.116 17.104 2.825-7.981 4.584-16.337 5.216-24.779-3.382 3.66-6.764 7.321-10.146 10.982 0.385-4.449 0.769-8.897 1.154-13.345" style="fill:#fff"/></g></g></g><g transform="matrix(.16375 0 0 -.16375 -52.861 296.13)"><g clip-path="url(#clipPath3419)" style="opacity:.5"><g transform="translate(816.2 1969.7)"><path d="m0 0c-25.467 58.522-62.139 121.62-115.32 156.91 42.777-19.144 104.34-64.651 123.01-95.403-12.175 7.829-36.849 28.622-49.024 36.451 19.246-35.669 37.524-57.604 41.336-97.955" style="fill:#fff"/></g></g></g><g transform="matrix(.16375 0 0 -.16375 -52.861 296.13)"><g clip-path="url(#clipPath3435)" style="opacity:.2"><g transform="translate(925.43 1538.5)"><path d="m0 0c2.601 9.089-1.486 19.36-8.917 25.204s-17.627 7.517-26.896 5.659c-9.27-1.858-17.657-6.964-24.618-13.361 3.604 2.173 8.058 2.231 12.265 2.119 9.036-0.239 18.17-0.986 26.736-3.874 8.566-2.887 16.595-8.109 21.43-15.747" style="fill:#1a1a1a"/></g></g></g><g transform="matrix(.16375 0 0 -.16375 58.485 73.501)"><path d="m0 0c-11.592 5.226-20.731 15.63-24.418 27.799 0.151-2.264 0.303-4.528 0.454-6.791-1.549 4.358-3.098 8.717-4.647 13.076 0.628-4.707-8.868-2.193-11.432-6.19-0.999-1.558-0.522-3.611 0.115-5.349 2.283-6.223 6.239-11.822 11.342-16.052-2.99 6.251-3.233 13.759-0.653 20.19 10.763-21.422 29.57-38.682 51.834-47.57-3.879 4.668-7.758 9.336-11.638 14.004 6.239-5.137 12.478-10.273 18.716-15.409-9.412 12.403-16.696 26.417-21.439 41.247 12.945-16.722 34.167-26.696 55.303-25.99-11.924 6.413-22.892 14.598-32.434 24.202 25.922-14.017 58.963-13.885 84.772 0.337-16.872-1.247-31.042 11.769-42.885 23.85 28.462-15.31 65.646-12.667 91.656 6.515-10.078-0.581-20.331 3.459-27.304 10.759 7.539-3.271 16.023-4.325 24.133-3.001-9.604 8.366-5.723 24.191 1.003 35.006 10.367 16.671 25.752 30.177 43.625 38.297-23.442-9.902-44.117-26.265-59.141-46.805 6.615 15.932 15.039 31.112 25.058 45.154-12.536-9.503-20.425-23.74-30.592-35.744-10.167-12.005-24.922-22.505-40.438-19.908 1.567-10.694 9.63-20.167 19.936-23.423-12.313 0.684-24.411 4.884-34.499 11.976-10.716-9.2-24.493-14.771-38.592-15.605 2.621-12.465 11.246-23.524 22.696-29.103-17.232 2.354-33.652 10.316-46.172 22.387 0.166-5.611 1.971-11.165 5.136-15.802l-17.406 11.727c0.475-7.767 3.118-15.389 7.554-21.781-8.777 5.994-17.555 11.987-26.332 17.981 0.603-10.267 2.871-20.434 6.689-29.984" style="fill:#e5e5e4"/></g></g><g transform="matrix(.16375 0 0 -.16375 175.7 132.16)"><path d="m0 0s10.257-71.664 33.097-224.75c22.974-153.98 58.197-191.32-1.937-210.71-17.999-5.804-55.895 8.451-71.905 56.078-39.006 116.04-90.289 308.7-82.259 335.58 30.966 103.66 123 43.81 123 43.81" style="fill:#676767"/></g><g transform="matrix(.16375 0 0 -.16375 -42.656 332.04)"><g clip-path="url(#clipPath3459)" style="opacity:.3"><g transform="translate(1376.1 881.37)"><path d="m0 0c-20.383 17.388-42.304 32.617-64.128 47.973-4.197 2.954-8.92 5.705-13.711 7.588-0.199 0.078-3.07 0.861-3.834 1.727-2.951 3.35-5.643 8.247-8.004 12.052-5.978 9.633-9.922 20.173-13.337 30.93-8.417 26.52-14.68 53.665-23.273 80.032-6.998 21.471-15.905 42.171-20.904 64.239-8.752 38.647-5.757 77.354 22.95 105.18-16.64-6.671-31.92-22.471-41.406-54.225-8.029-26.877 43.253-219.54 82.259-335.58 16.01-47.627 53.906-61.882 71.905-56.078 37.673 12.149 37.914 31.356 27.172 81.967-5.099 4.873-10.321 9.613-15.689 14.192" style="fill:#1a1a1a"/></g></g></g><g transform="matrix(.16375 0 0 -.16375 183.26 190.08)"><path d="m0 0c-38.661 15.813-142.51 53.536-142.51 53.536s-88.505-44.258-181.16-85.406c-93.583-41.56-136.89-56.912-83.411-155.63 53.713-99.151 90.617-63.562 118.06-55.484 27.445 8.079 244.73 118.67 247.55 122.84 0.143 0.213 0.242 0.438 0.307 0.688 0 0 73.634 33.255 74.103 34.093 3.863 6.894-15.284 2.123-37.119 2.799 0 0 35.781 13.951 57.866 15.824-6.992 13.783-10.505 9.575-32.451 16.504-5.16 21.48 20.429 2.168 19.227 4.349 0 0-1.755 30.057-40.461 45.888" style="fill:#808080"/></g><g transform="matrix(.16375 0 0 -.16375 128.46 216.15)"><path d="m0 0c-0.042 0.038-0.079 0.074-0.118 0.115-2.406 2.55-56.786 91.48-69.975 85.396-101.46-46.812-107.77-97.78-89.453-125.66 11.617-17.681 99.716-172.74 138.5-160.93 8.415 2.562 64.843-0.081 94.682 23.814 18.135 14.524 18.75 26.652 16.139 54.064-0.751 7.893-13.023 28.284-20.589 32.386-7.539 4.088-34.426-15.352-34.426-15.352s54.324 21.44 37.72 38.595c-15.881 16.408-70.422 65.711-72.485 67.575" style="fill:#808080"/></g><g transform="matrix(.16375 0 0 -.16375 120.25 241.03)"><path d="m0 0c1.248-4.603 4.256-8.452 7.679-11.669 11.262-10.584 29.383-31.504 44.71-28.024 5.653 1.284 58.587-3e-3 74.117 36.821 2.156 5.111 8.489 31.643 5.276 36.271-2.291 3.299-7.456 25.616-27.669 16.935-7.687-3.301-18.756-7.278-20.112-13.868-1.377-6.686 7.248-16.046 3.821-17.261-3.414-1.212-2.274 8.412-5.781 9.459-3.506 1.048-9.283 2.027-8.134 5.489 0.514 1.549 4.046 6.158 5.201 7.253 7.316 6.93 12.284 10.423 19.376 17.154 4 3.795 9.857 2.106 12.179 7.022 2.296 4.856-55.097-16.595-78.495-27.373-7.982-3.677-16.388-7.2-23.057-13.332-6.78-6.236-11.517-16.008-9.111-24.877" style="fill:#e5e5e4"/></g><g transform="matrix(.16375 0 0 -.16375 -42.656 332.04)"><g clip-path="url(#clipPath3487)" style="opacity:.2"><g transform="translate(1227.7 828.88)"><path d="m0 0c-2.192-12.352-5.188-24.621-8.93-36.724-0.047-0.15-0.109-0.297-0.187-0.437-7.003-12.618-14.198-25.126-21.79-37.372-1.323-2.132-7.7 54.557-7.975 51.98-3.831-35.984-49.951-122.49-49.285-120.28 8.483 28.191 5.546 89.028 4.991 86.564-9.768-43.333-21.342-87.379-44.83-124.92-0.178-0.285 6.619 104.3 6.18 101.7-7.586-44.873-26.293-88.273-53.965-125.31-0.276-0.371-0.667-0.651-1.114-0.8-1.605-0.534 26.12 81.545 25.679 124.9-0.025 2.485-22.792-61.02-35.217-90.628-6.271-14.943-14.067-30.571-25.718-41.488-0.375-0.351-0.867-0.567-1.384-0.611-1.948-0.165-3.898-0.276-5.845-0.327-1.688-0.044-2.774 1.67-1.967 3.121 17.494 31.449 27.428 66.839 28.667 102.26 0.086 2.494-27.263-72.283-49.42-102.53-0.927 0.296-1.83 0.642-2.736 0.982 10.899 21.006 18.85 43.483 23.5 66.533 0.482 2.386-2.849 3.481-4.035 1.324-10.726-19.507-21.423-38.962-32.092-58.367-0.626-1.138-2.147-1.498-3.179-0.72-3.326 2.507-6.431 5.318-9.302 8.365-0.571 0.607-0.71 1.506-0.366 2.273 3.097 6.914 6.195 13.831 9.296 20.754-2.98-6.174-5.957-12.343-8.932-18.509-0.669-1.384-2.578-1.666-3.544-0.495-4.897 5.933-8.994 12.547-12.174 19.43-9.058 19.611-11.901 41.397-14.629 62.724-0.9 7.036-1.765 14.387 0.736 21.171 1.652 4.483 4.669 8.393 7.77 12.115 48.96 58.761 296.29 153.48 296.29 153.48s102.36-32.075 164.29-54.441c1.709-0.617-57.057 8.668-57.751 5.276-0.415-2.028 4.571-22.441 3.337-20.758-0.781 1.065-35.713 26.754-35.761 24.483-0.052-2.454 6.913-35.846 4.036-26.022-2.827 9.657-33.299 27.691-40.276 35.094-1.427 1.514 15.936-33.593 15.809-41.066-0.039-2.328-36.696 30.855-40.702 38.183-0.864 1.581 12.034-56.289 3.713-71.663-3.082 0.363-20.747 33.228-21.188 30.74" style="fill:#fff"/></g></g></g><g transform="matrix(.16375 0 0 -.16375 -42.656 332.04)"><g clip-path="url(#clipPath3503)" style="opacity:.2"><g transform="translate(1351.7 946.06)"><path d="m0 0c-5.483-0.58-8.466 1.658-4.072 6.248 1.428 1.492 3.152 6.413 4.091 8.246 1.325 2.586 0.131 2.592-1.168 5.142-2.779 5.453-7.58 7.202-12.715 7.204 6.113 6.46 12.227 12.918 18.321 19.393 1.682 1.789 1.547 5.317-1.253 6.076-14.597 3.956-29.177 5.36-44.014 4.316 11.465 15.022 31.796 23.14 47.62 32.236 2.468 1.418 2.417 5.282-0.481 6.264-18.353 6.221-37.154 8.029-55.989 5.555 14.015 13.387 30.49 23.161 49.135 29.307 2.224 0.733 3.782 4.311 1.053 5.716-19.014 9.788-39.056 14.456-60.025 13.763 14.396 15.323 34.877 22.366 54.519 28.959 2.517 0.845 3.052 4.336 0.285 5.385-19.311 7.317-39.237 10.832-59.624 10.559 15.078 10.673 31.197 19.47 48.326 26.568 2.491 1.033 1.14 4.253-0.99 4.641-18.735 3.418-37.275 3.877-55.964 2.036 15.253 8.116 31.104 14.911 47.569 20.334 1.658 0.546 2.278 3.234 0.202 3.795-15.676 4.236-31.366 5.323-47.403 3.199-1.608-0.213-1.042-2.616 0.532-2.456 13.475 1.372 26.547 0.451 39.572-2.802-17.696-6.185-34.624-13.956-50.873-23.403-1.894-1.101-0.88-3.913 1.28-3.596 18.752 2.749 37.62 2.351 56.319-0.53-17.309-7.642-33.488-17.272-48.633-28.733-1.701-1.287-0.646-4.681 1.586-4.546 20.082 1.214 39.681-1.347 58.708-7.636-20.421-7.062-40.245-15.862-54.028-33.341-1.688-2.141 0.775-4.425 2.884-4.258 19.347 1.527 38.375-1.827 55.936-9.99-19.857-7.39-37.362-19.466-51.626-35.364-2.002-2.232-0.552-6.233 2.795-5.526 18.39 3.885 36.725 3.265 54.693-1.702-17.494-9.29-37.463-18.898-46.892-36.571-1.443-2.704 0.494-5.603 3.541-5.237 14.264 1.712 28.173 0.937 42.074-2.277-7.301-7.652-14.601-15.308-21.872-22.994-2.216-2.343-0.577-7.543 3.193-6.314 2.19 0.8 4.427 1.443 6.71 1.928 3.061-2.315 6.124-4.631 9.186-6.948-1.563-1.6-3.071-3.252-4.524-4.954-1.707-1.951-2.875-4.886-2.298-7.556 1.602-7.41 9.848-7.678 15.798-6.971 4.438 0.528 2.897 7.298-1.484 6.835" style="fill:#1a1a1a"/></g></g></g><g transform="matrix(.16375 0 0 -.16375 -42.656 332.04)"><g clip-path="url(#clipPath3519)" style="opacity:.39999"><g transform="translate(965.28 549.12)"><path d="m0 0c-2.102 2.173 0.699 3.982-2.273 4.536-7.353 1.371-9.301-4.427-10.983-11.715-23.223 22.961-53.019 45.091-65.28 75.359s-13.024 66.863 5.212 93.954c-1.056-28.277 14.351-54.234 29.23-78.303 26.814-43.376 53.714-86.873 85.553-126.71-13.82 14.293-27.64 28.585-41.459 42.877" style="fill:#1a1a1a"/></g></g></g></g></svg>
