<?xml version="1.0" encoding="UTF-8"?>
<svg width="60.685mm" height="56.735mm" version="1.1" viewBox="0 0 60.685 56.735" xmlns="http://www.w3.org/2000/svg"><defs><linearGradient id="bi" x1="49.412" x2="135.32" y1="20.711" y2="142.58" gradientTransform="scale(1.5675 .63795)" gradientUnits="userSpaceOnUse"><stop stop-color="#CDCDCD" offset="0"/><stop stop-color="#fff" offset=".2474"/><stop stop-color="#fff" offset=".5684"/><stop stop-color="#686868" offset=".8842"/><stop offset=".9947"/></linearGradient><linearGradient id="bh" x1="114.4" x2="134.2" y1="145.01" y2="118.64" gradientTransform="scale(1.5181 .6587)" gradientUnits="userSpaceOnUse"><stop stop-color="#A7A7A7" offset="0"/><stop stop-color="#fff" offset=".5"/></linearGradient><radialGradient id="bf" cx="185.67" cy="108.44" r="36.787" gradientUnits="userSpaceOnUse"><stop stop-color="#767676" offset="0"/><stop offset="1"/></radialGradient><linearGradient id="be" x1="146.77" x2="184.03" y1="129.16" y2="129.16" gradientTransform="scale(1.0231 .97745)" gradientUnits="userSpaceOnUse"><stop offset=".2947"/><stop stop-color="#4B4B4B" offset=".3211"/><stop stop-color="#fff" offset="1"/></linearGradient><linearGradient id="bd" x1="148.58" x2="107.48" y1="120.14" y2="120.14" gradientTransform="scale(1.0106 .98951)" gradientUnits="userSpaceOnUse"><stop stop-color="#fff" offset=".1737"/><stop stop-color="#767676" offset=".6947"/><stop offset="1"/></linearGradient><linearGradient id="bc" x1="61.309" x2="81.062" y1="298.47" y2="298.47" gradientTransform="scale(2.0863 .47931)" gradientUnits="userSpaceOnUse"><stop stop-color="#A7A7A7" offset="0"/><stop stop-color="#fff" offset=".5"/></linearGradient><linearGradient id="bb" x1="88.653" x2="96.462" y1="299.3" y2="319.13" gradientTransform="scale(2.0977 .47671)" gradientUnits="userSpaceOnUse"><stop stop-color="#fff" offset="0"/><stop stop-color="#585858" offset="1"/></linearGradient><linearGradient id="ba" x1="65.801" x2="82.833" y1="87.93" y2="121.6" gradientTransform="scale(1.1273 .88711)" gradientUnits="userSpaceOnUse"><stop stop-color="#fff" offset="0"/><stop stop-color="#C5C5C5" offset=".3316"/><stop stop-color="#B6B6B6" offset=".3368"/><stop stop-color="#959595" offset="1"/></linearGradient><linearGradient id="az" x1="33.406" x2="60.385" y1="50.897" y2="67.586" gradientTransform="scale(.90524 1.1047)" gradientUnits="userSpaceOnUse"><stop stop-color="#595959" offset="0"/><stop stop-color="#fff" offset="1"/></linearGradient><linearGradient id="ay" x1="28.076" x2="40.836" y1="49.284" y2="50.347" gradientTransform="scale(.72512 1.3791)" gradientUnits="userSpaceOnUse"><stop stop-color="#A7A7A7" offset="0"/><stop stop-color="#fff" offset="1"/></linearGradient><linearGradient id="ax" x1="19.678" x2="34.046" y1="120.64" y2="107.07" gradientTransform="scale(1.3056 .76595)" gradientUnits="userSpaceOnUse"><stop stop-color="#898989" offset="0"/><stop stop-color="#fff" offset="1"/></linearGradient><linearGradient id="aw" x1="38.676" x2="54.555" y1="98.812" y2="77.779" gradientTransform="scale(.99131 1.0088)" gradientUnits="userSpaceOnUse"><stop stop-color="#A7A7A7" offset="0"/><stop stop-color="#fff" offset=".5"/></linearGradient><linearGradient id="au" x1="20.79" x2="31.843" y1="95.75" y2="95.75" gradientTransform="scale(1.0387 .96272)" gradientUnits="userSpaceOnUse"><stop stop-color="#595959" offset="0"/><stop stop-color="#fff" offset="1"/></linearGradient><linearGradient id="at" x1="76.536" x2="81.253" y1="81.963" y2="56.543" gradientTransform="scale(.72888 1.372)" gradientUnits="userSpaceOnUse"><stop stop-color="#A7A7A7" offset="0"/><stop stop-color="#fff" offset=".5"/></linearGradient><linearGradient id="as" x1="36.74" x2="58.447" y1="175.79" y2="175.79" gradientTransform="scale(1.4697 .68043)" gradientUnits="userSpaceOnUse"><stop stop-color="#5A5A5A" offset="0"/><stop stop-color="#fff" offset="1"/></linearGradient><linearGradient id="ar" x1="39.878" x2="92.103" y1="75.673" y2="131.09" gradientTransform="scale(.77833 1.2848)" gradientUnits="userSpaceOnUse"><stop stop-color="#fff" offset="0"/><stop stop-color="#494949" offset=".0632"/><stop stop-color="#2D2D2D" offset=".1316"/><stop stop-color="#595959" offset=".1421"/><stop stop-color="#fff" offset="1"/></linearGradient><radialGradient id="aq" cx="66.894" cy="164.93" r="55.122" gradientUnits="userSpaceOnUse"><stop stop-color="#fff" offset="0"/><stop offset=".9947"/></radialGradient><linearGradient id="ap" x1="138.82" x2="154.71" y1="75.457" y2="139.85" gradientTransform="scale(.60231 1.6603)" gradientUnits="userSpaceOnUse"><stop stop-color="#fff" offset="0"/><stop stop-color="#878787" offset=".3737"/><stop stop-color="#595959" offset=".3842"/><stop stop-color="#fff" offset="1"/></linearGradient><linearGradient id="ao" x1="149.06" x2="208.24" y1="159.06" y2="107.05" gradientTransform="scale(.70811 1.4122)" gradientUnits="userSpaceOnUse"><stop stop-color="#515151" offset="0"/><stop stop-color="#fff" offset=".6947"/></linearGradient><linearGradient id="ca" x1="121.97" x2="149.71" y1="125.01" y2="162.16" gradientTransform="scale(.89595 1.1161)" gradientUnits="userSpaceOnUse"><stop stop-color="#fff" offset="0"/><stop stop-color="#B0B0B0" offset=".2895"/><stop stop-color="#8C8C8C" offset=".3"/><stop offset="1"/></linearGradient><linearGradient id="bz" x1="95.639" x2="149.6" y1="97.75" y2="134.13" gradientTransform="scale(.76739 1.3031)" gradientUnits="userSpaceOnUse"><stop offset=".1756"/><stop stop-color="#595959" offset=".1895"/><stop stop-color="#fff" offset="1"/></linearGradient><linearGradient id="by" x1="175.64" x2="175.64" y1="181.1" y2="133.82" gradientTransform="scale(.92636 1.0795)" gradientUnits="userSpaceOnUse"><stop stop-color="#515151" offset="0"/><stop stop-color="#fff" offset=".6947"/></linearGradient><linearGradient id="bw" x1="257.88" x2="257.88" y1="117.35" y2="130.13" gradientTransform="scale(.94042 1.0634)" gradientUnits="userSpaceOnUse"><stop stop-color="#A7A7A7" offset="0"/><stop stop-color="#fff" offset=".5"/></linearGradient><linearGradient id="bv" x1="225.83" x2="239.42" y1="84.397" y2="130.06" gradientTransform="scale(.91005 1.0988)" gradientUnits="userSpaceOnUse"><stop stop-color="#545454" offset="0"/><stop stop-color="#fff" offset="1"/></linearGradient><linearGradient id="bu" x1="343.41" x2="370.36" y1="60.909" y2="88.12" gradientTransform="scale(.63717 1.5694)" gradientUnits="userSpaceOnUse"><stop stop-color="#767676" offset="0"/><stop offset="1"/></linearGradient><linearGradient id="bt" x1="273.49" x2="296.1" y1="59.676" y2="59.676" gradientTransform="scale(.77578 1.289)" gradientUnits="userSpaceOnUse"><stop stop-color="#2B2B2B" offset="0"/><stop stop-color="#fff" offset="1"/></linearGradient><linearGradient id="bs" x1="382.88" x2="363.8" y1="51.475" y2="55.197" gradientTransform="scale(.62898 1.5899)" gradientUnits="userSpaceOnUse"><stop stop-color="#fff" offset="0"/><stop offset="1"/></linearGradient><linearGradient id="br" x1="325.83" x2="339.24" y1="72.655" y2="90.621" gradientTransform="scale(.72899 1.3718)" gradientUnits="userSpaceOnUse"><stop stop-color="#fff" offset="0"/><stop stop-color="#585858" offset="1"/></linearGradient><linearGradient id="bq" x1="136.89" x2="154.27" y1="238.94" y2="181.28" gradientTransform="scale(1.2507 .79952)" gradientUnits="userSpaceOnUse"><stop stop-color="#515151" offset="0"/><stop stop-color="#fff" offset=".6947"/></linearGradient><linearGradient id="bp" x1="143.28" x2="200.71" y1="191.77" y2="191.77" gradientTransform="scale(1.1784 .84864)" gradientUnits="userSpaceOnUse"><stop stop-color="#515151" offset="0"/><stop stop-color="#fff" offset=".6947"/></linearGradient><linearGradient id="bo" x1="190.99" x2="91.82" y1="218.7" y2="218.7" gradientTransform="scale(1.1547 .86606)" gradientUnits="userSpaceOnUse"><stop stop-color="#fff" offset=".4842"/><stop offset="1"/></linearGradient><linearGradient id="bn" x1="58.994" x2="64.955" y1="31.472" y2="39.552" gradientTransform="scale(1.0696 .93495)" gradientUnits="userSpaceOnUse"><stop stop-color="#fff" offset="0"/><stop offset=".9947"/></linearGradient><linearGradient id="cb" x1="29.007" x2="47.353" y1="118.8" y2="118.8" gradientTransform="scale(1.1403 .87697)" gradientUnits="userSpaceOnUse"><stop stop-color="#2E2E2E" offset="0"/><stop stop-color="#fff" offset="1"/></linearGradient><radialGradient id="bm" cx="59.918" cy="74.006" r="32.649" gradientUnits="userSpaceOnUse"><stop stop-color="#fff" offset="0"/><stop offset=".9947"/></radialGradient><linearGradient id="bl" x1="62.672" x2="104.98" y1="115.88" y2="137.77" gradientTransform="scale(1.4508 .68927)" gradientUnits="userSpaceOnUse"><stop stop-color="#fff" offset=".1737"/><stop stop-color="#767676" offset=".6947"/><stop offset="1"/></linearGradient><linearGradient id="bk" x1="133.69" x2="133.92" y1="99.437" y2="152.28" gradientTransform="scale(1.132 .88339)" gradientUnits="userSpaceOnUse"><stop stop-color="#fff" offset=".2579"/><stop stop-color="#767676" offset=".7579"/><stop offset="1"/></linearGradient><linearGradient id="bj" x1="190.57" x2="206.1" y1="106.24" y2="147.15" gradientTransform="scale(1.029 .97179)" gradientUnits="userSpaceOnUse"><stop stop-color="#767676" offset="0"/><stop offset="1"/></linearGradient><linearGradient id="bg" x1="44.47" x2="62.516" y1="203.42" y2="170.45" gradientTransform="scale(1.778 .56244)" gradientUnits="userSpaceOnUse"><stop stop-color="#A7A7A7" offset="0"/><stop stop-color="#fff" offset=".5"/></linearGradient><linearGradient id="av" x1="66.759" x2="70.59" y1="160.08" y2="133.84" gradientTransform="scale(1.3346 .74927)" gradientUnits="userSpaceOnUse"><stop stop-color="#898989" offset="0"/><stop stop-color="#fff" offset="1"/></linearGradient><linearGradient id="bx" x1="55.142" x2="120.96" y1="84.529" y2="121.39" gradientTransform="scale(.72315 1.3828)" gradientUnits="userSpaceOnUse"><stop stop-color="#fff" offset="0"/><stop offset=".0684"/><stop offset=".1756"/><stop stop-color="#595959" offset=".1895"/><stop stop-color="#fff" offset="1"/></linearGradient></defs><g transform="translate(-76.956 -102.36)"><g transform="matrix(.26458 0 0 .26458 71.884 97.618)"><g display="none" fill="none" stroke="#000" stroke-miterlimit="10"><polygon points="133.63 17.918 75.719 20.74 60.772 42.11 93.892 68.589 156.95 86.237 212.17 84.081 228.64 62.352 195.38 35.414" display="none"/><polyline points="75.719 20.74 51.272 39.053 37.507 51.986 21.595 86.861 19.17 77.726 37.507 51.986 51.272 39.053 60.772 42.11 59.543 74.1 59.543 74.1 67.083 114.67 53.996 112.22 45.421 100.78 33.076 96.131 21.595 86.861 106.02 232.35 236.52 138.37 208.92 144.54 184.79 108.04 188.28 140.2 184.61 149.24 106.02 232.35 42.454 111.22 45.421 100.78 59.446 74.109 33.076 96.131 26.754 90.882 21.595 86.861 59.495 73.896 93.892 68.589 150.16 138.37 127.9 139.22 108.62 127.16 85.921 126.91 86.546 127.16 67.083 114.67 156.95 86.237 223.5 138.37 236.52 138.37 242.47 126.91 248.53 124.79 242.47 126.91 229.71 91.496 245.52 105.02 229.71 91.496 212.17 84.081 150.16 138.37 150.16 138.32 169.12 144.46 188.28 140.2 208.92 144.54 223.5 138.37 229.71 91.496 228.64 62.352 237.96 77.52 246.73 109.45 248.53 124.79 236.52 138.37 220.53 146.46 140.81 195.5 148.42 147.79 106.02 191.14 67.083 125.02 53.996 112.22 42.454 111.22 33.076 96.131 27.77 97.502 27.77 97.502 77.439 178.12 67.083 125.02 67.083 124.79 85.898 126.99 106.02 138.32 127.9 139.22 148.42 147.79 169.12 144.47 184.61 149.24 208.9 144.39 220.53 146.46 168.83 187.12 106.02 232.35 106.02 138.32 108.62 127.16 118.05 98.547" display="none"/></g><polygon transform="translate(-.003 .003)" points="133.63 17.918 75.719 20.74 60.772 42.11 93.892 68.589 156.95 86.237 212.17 84.081 228.64 62.352 195.38 35.414" fill="url(#bi)"/><polygon transform="translate(-.003 .003)" points="156.95 86.237 212.17 84.081 184.79 108.04" fill="url(#bh)"/><polygon transform="translate(-.003 .003)" points="208.9 144.39 184.79 108.04 188.28 140.2" fill="url(#bf)"/><polygon transform="translate(-.003 .003)" points="150.16 138.32 169.12 144.46 188.28 140.2 184.79 108.04" fill="url(#be)"/><polygon transform="translate(-.003 .003)" points="127.9 139.22 108.62 127.16 118.05 98.547 150.16 138.32" fill="url(#bd)"/><polygon transform="translate(-.003 .003)" points="148.42 147.79 169.12 144.46 150.16 138.32 127.9 139.22" fill="url(#bc)"/><polygon transform="translate(-.003 .003)" points="106.02 138.32 85.921 126.91 108.62 127.16 127.9 139.22" fill="#efefef"/><polygon transform="translate(-.003 .003)" points="184.61 149.24 208.9 144.39 188.28 140.2 169.12 144.47" fill="url(#bb)"/><polygon transform="translate(-.003 .003)" points="93.892 68.589 59.495 73.896 67.083 114.67 118.05 98.547" fill="url(#ba)"/><polygon transform="translate(-.003 .003)" points="60.731 43.14 60.772 42.11 51.272 39.053 37.507 51.986 21.595 86.861 59.495 73.896" fill="url(#az)"/><polygon transform="translate(-.003 .003)" points="21.595 86.861 37.507 51.986 19.17 77.726" fill="url(#ay)"/><polygon transform="translate(-.003 .003)" points="59.495 73.896 21.595 86.861 33.076 96.131" fill="url(#ax)"/><polygon transform="translate(-.003 .003)" points="59.495 73.896 33.076 96.131 45.421 100.78" fill="url(#aw)"/><polygon transform="translate(-.003 .003)" points="21.595 86.861 27.77 97.502 33.076 96.131" fill="url(#au)"/><polygon transform="translate(-.003 .003)" points="59.495 73.896 45.421 100.78 53.996 112.22 67.083 114.67" fill="url(#at)"/><polygon transform="translate(-.003 .003)" points="67.083 125.02 53.996 112.22 67.083 114.67 85.898 126.99" fill="url(#as)"/><polygon transform="translate(-.003 .003)" points="77.439 178.12 42.454 111.22 33.076 96.131 27.77 97.502" fill="url(#ar)"/><polygon transform="translate(-.003 .003)" points="77.439 178.12 106.02 232.35 27.77 97.502" fill="url(#aq)"/><polygon transform="translate(-.003 .003)" points="67.083 125.02 77.439 178.12 106.02 232.35 106.02 191.14" fill="url(#ap)"/><polygon transform="translate(-.003 .003)" points="140.81 195.5 106.02 232.35 106.02 191.14 148.42 147.79" fill="url(#ao)"/><polygon transform="translate(-.003 .003)" points="106.02 191.14 148.42 147.79 127.9 139.22 106.02 138.32" fill="url(#ca)"/><polygon transform="translate(-.003 .003)" points="85.898 126.99 106.02 138.32 106.02 191.14 67.083 125.02" fill="url(#bz)"/><polygon transform="translate(-.003 .003)" points="169.12 144.46 184.61 149.24 140.81 195.5 148.42 147.79" fill="url(#by)"/><polygon transform="translate(-.003 .003)" points="223.44 138.32 236.52 138.37 220.53 146.46 208.92 144.54" fill="#efefef"/><polygon transform="translate(-.003 .003)" points="248.53 124.79 242.47 126.91 236.52 138.37" fill="url(#bw)"/><polygon transform="translate(-.003 .003)" points="184.79 108.04 212.17 84.081 229.71 91.496 223.44 138.32" fill="url(#bv)"/><polygon transform="translate(-.003 .003)" points="229.71 91.496 223.44 138.32 236.52 138.37 242.47 126.91" fill="url(#bu)"/><polygon transform="translate(-.003 .003)" points="212.17 84.081 228.64 62.352 229.71 91.496" fill="url(#bt)"/><polygon transform="translate(-.003 .003)" points="229.71 91.496 228.64 62.352 237.96 77.52 245.52 105.02" fill="url(#bs)"/><polygon transform="translate(-.003 .003)" points="246.73 109.45 248.53 124.79 242.47 126.91 229.71 91.496 245.52 105.02" fill="url(#br)"/><polygon transform="translate(-.003 .003)" points="140.81 195.5 184.61 149.24 208.92 144.54 220.53 146.46" fill="url(#bq)"/><polygon transform="translate(-.003 .003)" points="168.83 187.12 236.52 138.37 220.53 146.46" fill="url(#bp)"/><polygon transform="translate(-.003 .003)" points="168.83 187.12 220.53 146.46 140.81 195.5 106.02 232.35" fill="url(#bo)"/><polygon transform="translate(-.003 .003)" points="75.719 20.74 51.272 39.053 60.772 42.11" fill="url(#bn)"/><polygon transform="translate(-.003 .003)" points="45.421 100.78 53.996 112.22 42.454 111.22 33.076 96.131" fill="url(#cb)"/><polygon transform="translate(-.003 .003)" points="60.772 42.11 59.495 73.896 93.892 68.589" fill="url(#bm)"/><polygon transform="translate(-.003 .003)" points="93.892 68.589 156.95 86.237 118.05 98.547" fill="url(#bl)"/><polygon transform="translate(-.003 .003)" points="156.95 86.237 184.79 108.04 150.16 138.32 118.05 98.547" fill="url(#bk)"/><polygon transform="translate(-.003 .003)" points="208.92 144.54 184.79 108.04 223.44 138.32" fill="url(#bj)"/><line transform="translate(-.003 .003)" x1="118.05" x2="67.083" y1="98.547" y2="114.67" fill="url(#bg)"/><polygon transform="translate(-.003 .003)" points="85.921 126.91 67.083 114.67 118.05 98.547 108.62 127.16" fill="url(#av)"/><polygon transform="translate(-.003 .003)" points="42.454 111.22 77.439 178.12 67.083 125.02 53.996 112.22" fill="url(#bx)"/><polygon transform="translate(-.003 .003)" points="75.719 20.74 51.272 39.053 37.507 51.986 19.17 77.726 21.595 86.861 106.02 232.35 236.52 138.37 248.53 124.79 246.73 109.45 237.96 77.52 228.64 62.352 195.38 35.414 133.63 17.918" fill="#007fff" opacity=".28"/></g></g></svg>
