<?xml version="1.0" encoding="UTF-8"?>
<svg width="169.21mm" height="172.26mm" version="1.1" viewBox="0 0 169.21 172.26" xmlns="http://www.w3.org/2000/svg"><g transform="translate(2.2058 -66.483)"><g transform="matrix(.26458 0 0 .26458 -2.7934 66.483)"><g transform="translate(-.014205 .028224)"><path d="m140.66 621.14c-8.9 7.3-17.8 14.7-26.7 22-2.6 2.1 0.3 5.4 2.9 5 12.2-2 24.1-5 35.7-9.2 1.9-0.7 4.0929-2.7857 2.1929-4.2857-5.5029-11.722-9.5951-19.351-12.193-17.114-0.68261 1.1727-0.72363 2.9238-1.9 3.6z" style="fill:#2b2200"/></g><g transform="translate(-.014205 .028224)"><linearGradient id="SVGID_1_" x1="1.1623" x2="322.53" y1="830.17" y2="830.17" gradientTransform="matrix(-.4518 .2536 -.2498 -.4452 399.57 731.64)" gradientUnits="userSpaceOnUse"><stop style="stop-color:#2DA6DC" offset=".048128"/><stop style="stop-color:#91E7FF" offset=".4385"/><stop style="stop-color:#fff;stop-opacity:.6" offset=".9893"/></linearGradient><path d="m74.3 463.9c-3.3-0.3-6.6-0.9-9.7-2-11.8-4.3-19.5-16.5-20.5-29s3.8-25 11.1-35.3c11.8-16.6 29.9-28.2 49.1-35.3s39.6-10 59.9-12c2.8-0.3 5.9-0.5 8.4 0.8 1.5 0.8 2.6 2 3.8 3.1 4.8 4.7 10.5 8.3 16.8 10.7-6.4 17.2-12.9 34.7-24.3 49.2-6.2 7.9-13.8 14.7-21.6 21-21 16.9-46.4 31.3-73 28.8z" style="fill:url(#SVGID_1_)"/><linearGradient id="SVGID_2_" x1="-843.26" x2="-521.89" y1="423.48" y2="423.48" gradientTransform="matrix(.348 .3838 -.3782 .3428 861.71 546.94)" gradientUnits="userSpaceOnUse"><stop style="stop-color:#2DA6DC" offset=".048128"/><stop style="stop-color:#91E7FF" offset=".4385"/><stop style="stop-color:#fff;stop-opacity:.6" offset=".9893"/></linearGradient><path d="m533.3 460.1c0.4 3.3 0.6 6.6 0.2 9.9-1.5 12.5-11.7 22.7-23.7 26.5-11.9 3.8-25.2 1.9-36.9-3-18.9-7.8-34.2-22.8-45.3-39.9-11.2-17.1-18.5-36.4-25-55.8-0.9-2.7-1.8-5.6-1.1-8.3 0.4-1.6 1.4-3 2.2-4.4 3.5-5.7 5.8-12.1 6.7-18.8 18.2 2.4 36.8 4.8 53.4 12.8 9.1 4.3 17.4 10.2 25.3 16.4 21 16.6 40.6 38.2 44.2 64.6z" style="fill:url(#SVGID_2_)"/><linearGradient id="SVGID_3_" x1="414.16" x2="735.53" y1="277.75" y2="277.75" gradientTransform="matrix(.787 -.13 .1281 .7755 27.76 184.13)" gradientUnits="userSpaceOnUse"><stop style="stop-color:#2DA6DC" offset=".048128"/><stop style="stop-color:#91E7FF" offset=".4385"/><stop style="stop-color:#fff;stop-opacity:.6" offset=".9893"/></linearGradient><path d="m612.3 260.3c4.6 2.2 9.1 4.7 13 8 14.8 12.4 19.6 34.1 14.5 52.7s-18.6 34.1-34.6 45.2c-25.8 17.9-58 25.2-89.5 25.3s-62.6-6.4-93-14.2c-4.2-1.1-8.7-2.3-11.7-5.6-1.7-1.9-2.7-4.2-3.8-6.5-4.5-9.3-10.9-17.6-18.7-24.3 18.3-21.6 36.9-43.5 61.1-58.4 13.2-8.1 27.7-14 42.3-19 39-13.3 83.3-20.7 120.4-3.2z" style="fill:url(#SVGID_3_)"/><linearGradient id="SVGID_4_" x1="-75.684" x2="245.68" y1="276.27" y2="276.27" gradientTransform="matrix(-.6386 -.3916 .4072 -.664 57.863 508.37)" gradientUnits="userSpaceOnUse"><stop style="stop-color:#2DA6DC" offset=".048128"/><stop style="stop-color:#91E7FF" offset=".4385"/><stop style="stop-color:#fff;stop-opacity:.6" offset=".9893"/></linearGradient><path d="m6.6 280.2c-1.9-4.5-3.4-9.2-4-14.1-2.5-18.6 8.1-37.9 23.6-48.7 15.5-10.9 35-14.1 53.4-12.5 29.7 2.6 57.1 17.1 79.4 36.6s40 43.7 56.6 68.5c2.3 3.5 4.7 7.2 4.7 11.4 0 2.5-0.8 4.9-1.5 7.3-2.8 9.8-3.6 20-2.4 30-26.7 4.9-54 9.8-80.6 6.1-14.5-2.1-28.5-6.7-42.1-12-36.2-14.4-72.2-36.3-87.1-72.6z" style="fill:url(#SVGID_4_)"/><linearGradient id="SVGID_5_" x1="141.51" x2="424.94" y1="450.31" y2="450.31" gradientUnits="userSpaceOnUse"><stop style="stop-color:#FAFFEC" offset="0"/><stop style="stop-color:#FAFEE3" offset=".036593"/><stop style="stop-color:#FAFCC9" offset=".097477"/><stop style="stop-color:#FBF9A0" offset=".1752"/><stop style="stop-color:#FBF466" offset=".2666"/><stop style="stop-color:#FCEE21" offset=".3636"/><stop style="stop-color:#FCEE21" offset=".8663"/></linearGradient><path d="m293.1 262.4c-25 2.7-47.7 16.3-65.2 33.8s-30.6 38.9-42.7 60.4c-10.2 17.9-20 36.5-24.1 56.6-6.8 33.5 2.7 67.8 4 102 1.2 33.3-5.6 66.8-19.7 97-3.4 7.2-6.5 17-0.1 21.8 1.7 1.3 3.9 1.9 6 2.4 23.2 5.4 48 1 69.9-8.1s41.6-22.9 60.6-36.9c46.8-34.6 92.4-73.3 119.8-124s33.6-115.7 2.1-164.1c-4.7-7.2-10.2-14-17.3-18.8-7.5-5.2-16.4-7.9-25.2-10.6-22.1-7-45-13.9-68.1-11.5z" style="fill:url(#SVGID_5_)"/><ellipse cx="401.5" cy="177.5" rx="56.8" ry="56.1" stroke-miterlimit="10" style="fill:#fff;stroke-miterlimit:10;stroke:#999"/><linearGradient id="SVGID_6_" x1="393.85" x2="254.64" y1="306.7" y2="65.573" gradientUnits="userSpaceOnUse"><stop style="stop-color:#FAFFEC" offset="0"/><stop style="stop-color:#FAFEE3" offset=".034441"/><stop style="stop-color:#FAFCC9" offset=".091743"/><stop style="stop-color:#FBF9A0" offset=".1648"/><stop style="stop-color:#FBF466" offset=".2509"/><stop style="stop-color:#FCEE21" offset=".3422"/><stop style="stop-color:#FCEE21" offset=".8663"/></linearGradient><circle cx="324.2" cy="186.1" r="139.2" stroke-miterlimit="10" style="fill:url(#SVGID_6_)"/><ellipse transform="matrix(.9996 -.026838 .026838 .9996 -3.9822 6.3894)" cx="236" cy="151.5" rx="82.9" ry="83.4" style="fill:#fff"/><g stroke-miterlimit="10" style="stroke-miterlimit:10"><ellipse cx="241.5" cy="169.5" rx="56.8" ry="56.1" style="fill:#fff;stroke-miterlimit:10;stroke-width:4;stroke:#808080"/><ellipse cx="241.4" cy="177.7" rx="49.6" ry="48.2" style="stroke-miterlimit:10;stroke-width:5;stroke:#0ff"/><circle cx="234.1" cy="140.2" r="15.5" style="fill:#fff;stroke-miterlimit:10;stroke:#000"/><circle cx="218.8" cy="166.3" r="10.1" style="fill:#fff;stroke-miterlimit:10;stroke:#000"/></g><ellipse transform="matrix(-.9999 -.013215 .013215 -.9999 816.46 317.22)" cx="409.3" cy="155.9" rx="84.5" ry="82.2" style="fill:#fff"/><g stroke-miterlimit="10" style="stroke-miterlimit:10"><ellipse cx="401.5" cy="171.5" rx="56.8" ry="56.1" style="fill:#fff;stroke-miterlimit:10;stroke-width:4;stroke:#808080"/><ellipse cx="401.4" cy="179.7" rx="49.6" ry="48.2" style="stroke-miterlimit:10;stroke-width:5;stroke:#0ff"/><circle cx="394.1" cy="142.2" r="15.5" style="fill:#fff;stroke-miterlimit:10;stroke:#000"/><circle cx="378.8" cy="168.3" r="10.1" style="fill:#fff;stroke-miterlimit:10;stroke:#000"/></g><path d="m273 247.6c10.8 14.1 27.4 22.2 45.2 22 17.5-0.3 34.1-10.3 43.8-24.6 1.1-1.6-1.5-3.1-2.6-1.5-9 13.4-23.6 21.9-39.7 23.1-16.9 1.3-33.9-7.1-44.1-20.4-1.1-1.6-3.7-0.1-2.6 1.4z"/><path d="m423.25 355.4c7.4016 25.557-76.55 72-123.75 76.8-47.2 4.7-98.15-5.125-138.15-21.125 3.471-14.729 8.9889-29.02 17.125-42.75 37.1 16.5 83.325 26.675 126.72 22.575s89.05-22.65 114.35-52.85c1.5697 5.9179 2.9575 11.763 3.7 17.35z" style="fill:#2b2200"/><path d="m402.07 300.8c-69.326 18.16-118.43 25.889-170.1-9.65l-16.634 18.791c27.96 22.2 63.581 37.259 99.37 40.059 35.789 2.8 72.157-9.05 96.66-34.85" style="fill:#2b2200"/><path d="m403.66 463.42c-10.3 7.8-23.862 9.175-36.862 10.175-71.5 5.1-148.79-13.25-206.59-55.65-1.3485 7.5138-1.6275 16.846-1.3125 27.188 54 42.4 125.2 63.562 192 58.462 12.1-0.9 24.762-2.275 34.362-10.175 8.4607-8.7809 13.336-19.44 18.4-30z" style="fill:#2b2200"/><path d="m315.89 565.03c-6.7486 5.91-21.767 17.144-21.767 17.144-10.955 10.332-98.788-1.0066-122.74-25.67-2.3369-2.4-7.5592-5.301-7.471-9.4l0.8125-37.75c1.0161 4.1 5.6424 6.75 8.9954 9.15 43.894 31.5 100.18 45.179 153.42 37.079" style="fill:#2b2200"/><path d="m105.3 276.4c9 0.9 17.3 5.2 25.4 9 7.8 3.6 15.5 7.4 23.2 11.4 15.8 8.3 31.1 17.5 45.9 27.4 1.6 1.1 3.1-1.5 1.5-2.6-15.3-10.3-31.2-19.7-47.6-28.3-8.2-4.3-16.5-8.3-24.9-12.1-7.6-3.4-15.2-7-23.6-7.8-1.8-0.2-1.8 2.8 0.1 3z" style="fill:#f2f2f2"/><path d="m427.3 333.3c19.4-6.7 38.8-13.4 58.2-20.1 1.8-0.6 1-3.5-0.8-2.9-19.4 6.7-38.8 13.4-58.2 20.1-1.8 0.6-1.1 3.5 0.8 2.9z" style="fill:#f2f2f2"/><path d="m431 342.2c18.5-1.5 36.7-4.7 54.5-9.7 1.9-0.5 1.1-3.4-0.8-2.9-17.6 4.9-35.5 8.2-53.7 9.6-1.9 0.2-1.9 3.2 0 3z" style="fill:#f2f2f2"/><path d="m164.7 377.1c-23.6-1.4-46.7 9.1-61.2 27.7-1.2 1.5 0.9 3.6 2.1 2.1 14-18.1 36.2-28.2 59.1-26.8 2 0.1 2-2.9 0-3z" style="fill:#f2f2f2"/><path d="m434.1 396.8c23.1 9.9 48.8 21.4 60.1 45.5 0.8 1.8 3.4 0.2 2.6-1.5-11.5-24.6-37.6-36.5-61.2-46.6-1.7-0.7-3.2 1.9-1.5 2.6z" style="fill:#f2f2f2"/><path d="m189.6 335.4c-30.2-14.2-63.1-21.4-96.4-21-1.9 0-1.9 3 0 3 32.8-0.4 65.2 6.6 94.9 20.6 1.7 0.8 3.3-1.8 1.5-2.6z" style="fill:#f2f2f2"/><path d="m297.2 47c-8.9-10-17.8-20.1-26.9-30-7.1-7.7-15.2-14.6-25.8-16.5-23.3-4.2-41.5 17.7-59.5 28.4-6.2 3.7-12.1 6-18.9 2.3-3.7-2-6.9-3.9-11.2-3.2-2.3 0.4-3.7 5.4-4.1 7.2-0.8 3.3-0.3 7.3 1.1 10.3 2.5 5.4 9.7 12 15.7 7.5 4.4-3.2 3.6-15.5 9.3-15.9 1.9-0.1 1.9-3.1 0-3-4.6 0.3-6.1 4.2-7.3 8.1-0.8 2.7-1.4 5.6-3.1 7.9-4.3 5.4-10.9-3.3-12.1-6.8-1.4-3.7-0.9-7.8 1-11.2 2.1-3.8 11 2.7 13.6 3.7 7.8 3.1 17.4-3.9 23.4-7.9 16.6-11.2 34.1-30 56.2-23.3 9.4 2.8 16.5 11.1 22.9 18.2 7.9 8.8 15.7 17.6 23.6 26.4 1.2 1.4 3.4-0.7 2.1-2.2z"/><path d="m376.9 56.3c6.9-8.7 13.9-17.4 20.8-26.1 6.4-8 12.9-19.2 22.8-23.2 10.8-4.4 20.9 5.9 27.2 13.2 7.3 8.5 13.2 18.1 19 27.6 4.1 6.7 7.6 14.5 14.2 19.1 4.9 3.4 11.8 2.3 15.6-2.2 10.7-13-24.8-22.4-31.5-24-1.9-0.4-2.7 2.4-0.8 2.9 8.7 2.1 17.2 5.2 25.1 9.5 5.3 2.9 8.4 9.4 1.3 12.3-4.7 2-9-1.2-12.1-4.5-5.7-6.3-9.4-15-13.9-22.1-4.8-7.7-10-15.1-15.9-21.9-9.6-11.1-23-18.6-36.1-8.5-7.2 5.6-12.6 14.3-18.3 21.4-6.5 8.2-13.1 16.4-19.6 24.5-1.1 1.4 1 3.5 2.2 2z"/></g></g></g></svg>
