<?xml version="1.0" encoding="UTF-8"?>
<svg width="45.779mm" height="66.842mm" version="1.1" viewBox="0 0 45.779 66.842" xmlns="http://www.w3.org/2000/svg"><defs><filter id="j"><feGaussianBlur stdDeviation=".277"/></filter><filter id="c"/><filter id="d" x="-.1777" y="-.2089" width="1.3553" height="1.4177"><feGaussianBlur stdDeviation=".813"/></filter><filter id="i" x="-4.662" y="-.1295" width="10.324" height="1.259"><feGaussianBlur stdDeviation=".491"/></filter><filter id="h" x="-.3882" y="-.1318" width="1.7764" height="1.2636"><feGaussianBlur stdDeviation=".784"/></filter><filter id="g" x="-.2526" y="-.1129" width="1.5051" height="1.2257"><feGaussianBlur stdDeviation=".837"/></filter><filter id="b" x="-.9092" y="-.1406" width="2.8185" height="1.2813"><feGaussianBlur stdDeviation="1.099"/></filter><filter id="a" x="-.3578" y="-.1129" width="1.7156" height="1.2257"><feGaussianBlur stdDeviation=".652"/></filter><linearGradient id="f" x1="290.48" x2="359.29" y1="564.41" y2="588.79" gradientTransform="matrix(.26458 0 0 .26458 -40.758 -1.3998)" gradientUnits="userSpaceOnUse"><stop stop-color="#fff" offset="0"/><stop stop-color="#ff0" stop-opacity="0" offset="1"/></linearGradient><radialGradient id="e" cx="356.72" cy="660.33" r="47.003" gradientTransform="matrix(.11288 -.0030162 .0026908 .10074 11.684 102.61)" gradientUnits="userSpaceOnUse"><stop stop-color="#fff" offset="0"/><stop stop-color="#ffd000" stop-opacity="0" offset="1"/></radialGradient></defs><g transform="translate(-63.376 -107.1)"><g transform="translate(32.507 -23.432)"><path d="m60.055 162.37c-2.367-0.27244-4.1349-5.4993-3.2311-9.8344 0.36351-1.7438 1.6491-4.0777 4.6473-3.8279 0.02437 2e-3 0.04799 7.9e-4 0.07255 3e-3 5.3e-5 1e-5 -5.29e-4 4e-3 -2.65e-4 4e-3 2.985 0.37811 3.7539 2.9276 3.7475 4.709-0.01582 4.4283-2.8257 9.1748-5.1977 8.9499l-0.03818-4e-3z" style="fill:#fff;stroke-width:.26458"/><path d="m61.7 159.02c-0.46024 1.8827-1.7512 3.1846-2.8835 2.9078-1.1323-0.27679-1.6771-2.0274-1.2169-3.9101s1.7512-3.1846 2.8835-2.9078c1.1106 0.27147 1.6598 1.9638 1.2388 3.817" style="stroke-width:.26333"/><path d="m60.643 156.35c-0.09887 0.59533-0.52562 1.0024-0.95316 0.90923-0.42754-0.0932-0.69398-0.65132-0.5951-1.2466 0.09887-0.59533 0.52562-1.0024 0.95316-0.90923 0.41932 0.0914 0.6852 0.63105 0.59967 1.2172" style="fill:#fff;stroke-width:.24453"/><path d="m46.604 163.03c-2.356 0.35512-5.4273-4.2288-5.6869-8.6494-0.10446-1.7782 0.52702-4.3669 3.4866-4.9088l0.07091-0.0158 7.94e-4 4e-3c2.9802-0.41446 4.3881 1.8458 4.8471 3.5671 1.1411 4.2788-0.33186 9.5945-2.6802 9.9969l-0.03789 6e-3z" style="fill:#fff;stroke-width:.26458"/><path d="m49.049 158.69c0.45828 1.8832-0.08837 3.6332-1.2209 3.9088-1.1326 0.27561-2.4222-1.0276-2.8805-2.9108s0.08837-3.6332 1.2209-3.9088c1.1108-0.27032 2.3776 0.9791 2.8571 2.818" style="stroke-width:.26333"/><path d="m46.881 156.82c0.18633 0.574-0.0051 1.1318-0.4275 1.246-0.42242 0.11413-0.91592-0.25867-1.1022-0.83266s0.0051-1.1318 0.4275-1.246c0.4143-0.11194 0.8988 0.24471 1.0928 0.80442" style="fill:#fff;stroke-width:.24453"/><path d="m51.853 130.77c-1.025 1.2949-2.1629 2.3929-2.3399 4.2746-1.2705-0.87931-2.4297-1.2929-5.6803 0.16536 2.1943-0.25206 4.2163-0.3466 5.2752 1.1079-3.3742 0.0807-4.5775 0.0421-7.0114 2.6045 1.5751-0.84372 3.0085-1.1368 4.4068-1.2733-5.0032 3.3356-6.7756 4.187-8.8883 10.228-1.2582 3.9417-0.88251 8.0086-1.3396 11.961-0.09676 0.83652-0.51823 1.7726-1.1184 2.3633-1.065 1.0482-3.0615 1.8095-4.0766 3.0017 1.3749-0.48045 1.4559-0.70365 2.2115-0.6901-1.2577 1.4597-1.3989 2.5116-0.6709 4.1753 0.13835-1.7193 0.84121-3.1699 1.578-3.1654 0.07244 0.8909-0.04694 1.638 0.54689 2.5289-0.18277-0.82406-0.04395-1.6481 0.39687-2.4722 0.51919 1.5765 0.27297 3.243 2.6045 4.6137-0.58718-1.0691-0.94749-2.139-1.0005-3.208 1.6528 2.6445 3.0366 2.6966 6.1515 3.671 1.677 0.42266 3.2165 1.0222 4.2746 2.2407l0.16536 0.35554c-1.8 0.57568-6.3457 0.46032-6.9574 0.96601-2.5888 2.3222 1.003 8.6242 2.6085 8.6499l-1.3725 3.3072c6.3179 8.5962 19.955 6.4335 24.573-0.33073 0.74868-1.0968 0.6709-7.9871 0.89296-7.9871-2.2458-1.9841-4.3172-5.3435-6.9122-5.3247 0.42674-0.35057 0.88174-0.71228 1.232-0.94257 2.9075-1.8651 6.724-4.1079 10.542-3.1501-0.03992-2.7506-0.60756-2.7141-1.1658-3.8777 1.9676 0.6043 2.5693 1.9453 3.2575 3.7539-0.06136-1.649-0.24698-2.9363-1.3394-4.2746 1.8932 0.18934 2.4532 1.0842 3.8613 2.4722-0.98135-2.3059-1.4893-3.0112-4.0597-3.8033 1.1941 0.10393 2.0593-0.50027 3.0014-0.94257-1.6825 0.19793-3.1284-0.55278-4.3407-1.8024-1.4411-1.7965-1.5478-4.3418-2.2076-6.5484-0.75516-2.5258-0.96603-5.2233-2.0009-7.648-0.51807-1.2138-2.0753-3.3734-2.0753-3.3734 0.88105 0.0616 1.6393 0.61372 2.4391 1.0005-1.8326-1.9244-4.0473-4.0269-7.5818-4.9445 1.006-0.25971 2.2946 0.0399 3.7454 0.66973-1.9307-1.6748-4.5955-2.6097-7.4826-2.7368 0.45317-0.76114 2.3959-1.0486 5.3413-1.0087-3.1284-0.57752-4.119-1.2534-6.9452 0.33901-0.23918-1.479 0.38713-2.3597 0.5953-3.5388-1.2934 0.51339-2.6868 1.5497-3.0675 3.8033-1.3146-1.7065-0.54488-3.4596-0.06614-5.209zm9.0783 18.182c0.1742-4e-3 0.35004 1e-3 0.53744 0.0165 0.02437 2e-3 0.04985-2e-3 0.07443 0 5.3e-5 1e-5 -2.65e-4 8e-3 0 8e-3 2.985 0.37811 3.7517 2.9233 3.7454 4.7045-0.0096 2.6847-1.0472 5.4879-2.3913 7.2291-2.1259 0.16565-2.0635 0.11101-4.3518 0.81874-1.5287-1.7234-2.4199-5.5916-1.7234-8.9325 0.34078-1.6348 1.4961-3.7877 4.1092-3.8446zm-15.784 0.5953c2.6119-0.0869 3.8774 1.9996 4.3076 3.6131 0.91513 3.4313 0.14994 7.5294-1.4003 9.2254-2.3479-0.74254-2.2457-0.67936-4.41-1.0133-1.3528-1.6782-2.4479-4.2944-2.5984-6.8561-0.10446-1.7782 0.52958-4.3693 3.4893-4.9111 0.024-5e-3 0.05006-0.0124 0.07443-0.0165 5.3e-5 -1e-5 0 8e-3 0 8e-3 0.18626-0.0259 0.3633-0.0438 0.53744-0.0496z" style="fill:#ff0"/><path d="m40.222 184.38c-5.3091-0.43044-7.0902-0.79617-9.2206-3.1403 2.3882-0.5368 3.9756 0.24956 6.1473 1.1359-1.4956-1.126-2.9146-2.2669-3.2739-3.7417 2.9437 0.0172 3.9981 1.4952 5.6795 3.2739-0.44349-1.3586-0.73432-1.9488-0.60136-3.3075 0.91293 0.81298 2.1662 2.039 2.6393 2.94l3.107 2.6393z" style="fill:#ff0;stroke-linecap:round;stroke-linejoin:round;stroke-width:.26458;stroke:#a80"/><path d="m64.278 161.01c-1.9932-0.26429-4.0983 0.20587-6.1806 0.9214" style="fill:none;stroke-linecap:round;stroke-linejoin:round;stroke-width:.37041;stroke:#000"/><path d="m41.995 161.64c1.7539-0.24968 4.3198 0.093 6.1486 0.83809" style="fill:none;stroke-linecap:round;stroke-linejoin:round;stroke-width:.37041;stroke:#000"/><path d="m42.159 164.59c-0.65126-0.24871-1.507-1.2825-0.09448-1.4174 0.69968-0.0668 2.2585 0.2496 3.1654 0.18899 3.008-0.43376 4.1957-2.4961 7.0135-3.0906 1.0364-0.23572 2.6178-0.0449 3.4753 0.20857 1.4997 0.4433 2.8829 1.6938 4.4971 1.9023 1.5594 0.20138 3.8978-0.79884 4.6688-0.67388 1.0094-0.22365 1.3069 0.58914 1.0867 1.0394-0.62436 1.2767-2.8199 1.0343-5.2831 2.4302-2.4394 1.3825-5.1405 4.41-6.9301 4.3259-2.3704-0.11139-3.6274-2.0898-5.7472-3.3125-1.6312-0.94088-4.1298-1.1164-5.8517-1.601z" style="fill:#ffd000;stroke-width:.13229;stroke:#000"/><path d="m63.412 145.79c-1.2501-1.7789-2.609-2.3902-4.3201-1.756l0.30906 0.55361c1.9822-0.33028 2.3923 0.15486 4.011 1.2024z" style="stroke-linecap:round;stroke-linejoin:round;stroke-width:.26458;stroke:#000"/><path d="m56.864 163.13c0.06493-0.0383 0.20584-0.0287 0.26865-0.0704 0.0725-0.0482 0.13793-0.13679 0.13433-0.22387-0.0028-0.0733-0.06178-0.14737-0.12792-0.17912-0.06932-0.0333-0.15851-0.0148-0.23029 0.0128-0.07924 0.0305-0.14708 0.0922-0.19828 0.15991-0.26268 0.34753-0.51172 1.2026-0.51172 1.2026s0.32697-0.70236 0.66523-0.90193z" style="stroke-width:.050667;stroke:#000"/><path d="m50.252 163.13c-0.06493-0.0383-0.20584-0.0287-0.26865-0.0704-0.07249-0.0482-0.13793-0.13679-0.13433-0.22387 0.0028-0.0733 0.06178-0.14737 0.12792-0.17912 0.06932-0.0333 0.15851-0.0148 0.23029 0.0128 0.07924 0.0305 0.14708 0.0922 0.19828 0.15991 0.26268 0.34753 0.51172 1.2026 0.51172 1.2026s-0.32697-0.70236-0.66523-0.90193z" style="stroke-width:.050667;stroke:#000"/><path d="m65.32 162.39c-3.943 1.4068-4.8124 1.9903-7.5212 4.8402" style="fill:none;stroke-width:.10583;stroke:#000"/><path d="m64.532 162.08c0.61544 0.037 1.1023 0.17984 0.66145 1.0867" style="fill:none;stroke-width:.10583;stroke:#000"/><path d="m42.058 164.41c-0.4474-0.45243-0.40129-0.83311 0.20045-1.1359" style="fill:none;stroke-width:.10583;stroke:#000"/><path d="m41.809 163.65c3.7713 1.2493 4.7569 0.45939 8.2747 4.051" style="fill:none;stroke-width:.10583;stroke:#000"/><path d="m68.76 158.82c0.52625 2.0273 0.55546 2.1483 2.0788 2.9292" style="fill:none;stroke-linecap:round;stroke-linejoin:round;stroke-width:.26458;stroke:#a80"/><path d="m36.677 159.98c-0.27625-7.7196 0.97056-12.787 3.2435-16.293 1.6682-2.5733 3.8581-4.2132 6.56-5.9102 5.8112-3.4334 14.933 0.92206 6.2489 15.545-0.56498 0.83478-1.8773 3.5224-2.7709 2.6852-0.09668-2.172-0.58792-3.924-1.384-4.9955-1.8394-2.4757-5.1149-2.0965-6.76 0.0546-0.7385 0.96569-1.0417 2.2618-0.92346 3.8631 0.07228 0.97942 0.59382 2.691 1.0873 3.8457 0.46373 1.5169 0.29517 2.5762-2.5388 3.5806-0.84486 0.29942-4.1523 0.68161-4.5381 0.68902-0.38253 7e-3 0.41216-0.23741 1.2275-1.5067 0.33086-0.51506 0.5661-1.0558 0.54813-1.5577z" style="fill:url(#f);stroke-width:.26458"/><path d="m41.167 148.38c0.90291-2.4308 2.2822-3.5464 4.4412-3.3308l-0.18899 0.73233c-2.3795 0.21709-2.7053 0.90087-4.2521 2.5985z" style="stroke-linecap:round;stroke-linejoin:round;stroke-width:.26458;stroke:#000"/><path d="m46.789 143.42c0.2998-1.0109 0.84192-1.5181 1.6064-2.1733-0.40653 1.1376-0.46238 2.3454-0.56697 3.5435 0.3488-1.407 1.0805-2.1556 2.0788-3.1183-0.5458 1.3031-1.2419 2.6024-1.1339 3.9213 0.28942-0.43198 0.53818-0.62414 0.77956-0.68508-0.38906 1.043-0.41984 2.1307-0.3071 3.2364 0.21386-0.8201 0.47952-1.5573 0.85044-2.1261 0.09485 0.64687 0.07096 1.3432 0.51971 1.8426 0.72214-1.1877 0.91497-2.3649 1.1812-3.5435 0.04106 1.1843-0.03368 2.4001 0.33072 3.4962 0.43587-0.92158 0.7291-1.945 0.94492-3.0239 0.33374 0.65206 0.69386 1.2909 0.66145 2.1261 0.42312-1.0768 0.59798-2.1039 0.7087-3.1183 1.19 1.0895 0.93653 2.5359 1.0198 4.0637 0.99016-2.6239 1.0403-2.8672 0.30305-5.4339" style="fill:none;stroke-linecap:round;stroke-linejoin:round;stroke-width:.26458;stroke:#a0892c"/><path d="m42.159 164.59c-0.65126-0.24871-1.507-1.2825-0.09448-1.4174 0.69968-0.0668 2.2585 0.2496 3.1654 0.18899 3.008-0.43376 4.1957-2.4961 7.0135-3.0906 1.0364-0.23572 2.6178-0.0449 3.4753 0.20857 1.4997 0.4433 2.8829 1.6938 4.4971 1.9023 1.5594 0.20138 3.8978-0.79884 4.6688-0.67388 1.0094-0.22365 1.3069 0.58914 1.0867 1.0394-0.62436 1.2767-2.8199 1.0343-5.2831 2.4302-2.4394 1.3825-5.1405 4.41-6.9301 4.3259-2.3704-0.11139-3.6274-2.0898-5.7472-3.3125-1.6312-0.94088-4.1298-1.1164-5.8517-1.601z" style="fill:url(#e);stroke-width:.13229;stroke:#000"/><path transform="matrix(.26458 0 0 .26458 -40.758 -1.3998)" d="m421.11 626.2c3.7845 1.628 7.142 2.2293 11.617 11.112" style="fill:none;filter:url(#d);stroke-opacity:.76;stroke-width:.6;stroke:#000"/><path transform="matrix(.26458 0 0 .26458 -40.758 -1.3998)" d="m428.43 624.56c3.667 1.6666 8.0686-0.3077 13.006 7.7024" style="fill:none;filter:url(#d);stroke-opacity:.738;stroke-width:.6;stroke:#000"/><path transform="matrix(.26458 0 0 .26458 -40.758 -1.3998)" d="m281.58 626.58c-5.7435 4.9094-5.3535 8.7657-4.672 14.268" style="fill:none;filter:url(#h);stroke-opacity:.729;stroke-width:.7;stroke:#000"/><path transform="matrix(.26458 0 0 .26458 -40.758 -1.3998)" d="m287.43 629.69c1.0501 9.6891 4.0335 14.174 8.6692 17.982" style="fill:none;filter:url(#g);stroke-opacity:.742;stroke-width:.7;stroke:#000"/><path transform="matrix(.26458 0 0 .26458 -40.758 -1.3998)" d="m283.82 630.36 0.7883 8.5557" style="fill:none;filter:url(#i);stroke-opacity:.516;stroke-width:.7;stroke:#000"/><path transform="matrix(.26458 0 0 .26458 -40.758 -1.3998)" d="m348.57 501.29c-3.0107 9.876-2.968 10.226 1.0408 18.876" style="fill:none;filter:url(#b);stroke-opacity:.824;stroke-width:.7;stroke:#000"/><path transform="matrix(.26458 0 0 .26458 -40.758 -1.3998)" d="m380.23 516.38c-8.246-1.0342-14.841 1.3581-17.016 5.1129" style="fill:none;filter:url(#b);stroke-opacity:.882;stroke-width:.5;stroke:#000"/><path transform="matrix(.26458 0 0 .26458 -40.758 -1.3998)" d="m361.17 505.27c-1.4929 3.626-3.4678 7.3178-2.4947 13.826" style="fill:none;filter:url(#b);stroke-opacity:.837;stroke-width:.6;stroke:#000"/><path transform="matrix(.26458 0 0 .26458 -40.758 -1.3998)" d="m392.11 530.08c-6.7308-3.6858-9.9409-4.0345-14.01-2.4262" style="fill:none;filter:url(#b);stroke-opacity:.973;stroke-width:.5;stroke:#000"/><path transform="matrix(.26458 0 0 .26458 -40.758 -1.3998)" d="m340.65 519.93c-1.4603-3.3556-13.412-6.4991-18.087-4.7085" style="fill:none;filter:url(#b);stroke-width:.5;stroke:#000"/><path transform="matrix(.26458 0 0 .26458 -40.758 -1.3998)" d="m404.76 544.57c-7.3532-5.4985-21.27-14.356-24.516-13.994" style="fill:none;filter:url(#b);stroke-opacity:.882;stroke-width:.5;stroke:#000"/><path transform="matrix(.26458 0 0 .26458 -40.758 -1.3998)" d="m340.12 521.53c-8.9603-0.677-18.591 1.1795-24.158 6.3629" style="fill:none;filter:url(#b);stroke-width:.5;stroke:#000"/><path transform="matrix(.26458 0 0 .26458 -40.758 -1.3998)" d="m363.92 562.14c0.2132-7.0087 0.4532-10.044-3.7565-13.739" style="fill:none;filter:url(#a);stroke-width:.6;stroke:#a0892c"/><path transform="matrix(.26458 0 0 .26458 -40.758 -1.3998)" d="m357.02 559.58c-0.2288-4.7359-0.0519-4.6776-2.3676-7.6778" style="fill:none;filter:url(#a);stroke-width:.6;stroke:#a0892c"/><path transform="matrix(.26458 0 0 .26458 -40.758 -1.3998)" d="m340.48 562.17c0.6551-6.3774 0.1375-4.0462 1.7362-9.1299" style="fill:none;filter:url(#a);stroke-width:.6;stroke:#a0892c"/><path transform="matrix(.26458 0 0 .26458 -40.758 -1.3998)" d="m338.97 553.84c0.9708-5.1778 2.4104-8.4657 3.9459-12.981" style="fill:none;filter:url(#a);stroke-width:.6;stroke:#a0892c"/><path transform="matrix(.26458 0 0 .26458 -40.758 -1.3998)" d="m335.56 548.66c0.8445-5.2409 0.832-6.1297 1.6099-9.3824" style="fill:none;filter:url(#a);stroke-width:.6;stroke:#a0892c"/><path transform="matrix(.26458 0 0 .26458 -40.758 -1.3998)" d="m350.9 563.18c-0.2288-6.9456-0.6201-8.0869-0.9155-12.476" style="fill:none;filter:url(#a);stroke-width:.6;stroke:#a0892c"/><path transform="matrix(.26458 0 0 .26458 -40.758 -1.3998)" d="m345.28 563.56c-1.2389-2.905-0.8095-2.3416-1.5468-6.5414" style="fill:none;filter:url(#a);stroke-width:.6;stroke:#a0892c"/><path d="m41.492 194.75c1.0864-3.3813 5.5456-4.7582 9.5548-6.9156-2.6132 2.5032-5.5522 5.0326-6.8487 8.185-0.6356 1.5454-3.7901 2.1042-2.7061-1.2695z" style="fill:#fc0;stroke-width:.26458;stroke:#fc0"/><path d="m37.735 192.33c2.7855-3.6613 7.7887-3.5993 10.941-5.2617-1.8599 1.2458-4.5569 2.7948-6.601 4.3727-1.1008 0.8497-1.7762 1.5226-2.5111 2.4676-0.73487 0.94503-3.3057 0.6056-1.8291-1.5785z" style="fill:#fc0;stroke-width:.26458;stroke:#fc0"/><path d="m33.925 190.34c2.7855-3.6613 10.612-2.3632 13.597-2.2384-5.9351 0.79054-9.8392 1.8862-11.768 3.8168-0.84605 0.84693-3.3057 0.6056-1.8291-1.5785z" style="fill:#fc0;stroke-width:.26458;stroke:#fc0"/><path d="m66.008 193.45c-1.0697-2.7297-6.2806-3.0212-10.29-5.1784 2.6132 2.5032 5.6684 3.7758 7.45 6.6817 0.88616 1.4452 4.1327 1.7959 2.8397-1.5034z" style="fill:#fc0;stroke-width:.26458;stroke:#fc0"/><path d="m71.62 189c-1.0965-2.4514-10.356-2.52-14.332-0.53453 3.4485 0.19799 8.9756 0.20113 11.793 2.0045 1.4278 0.91392 3.6308 0.97096 2.539-1.47z" style="fill:#fc0;stroke-width:.26458;stroke:#fc0"/><path d="m41.423 194.98c0.93193 0.0254 1.9597 0.20397 2.9228 0.69889-0.62362-0.67415-1.6541-1.5248-2.4665-1.8214 0.88171-0.21579 2.145 0.3262 2.9953 0.80332-0.35155-0.99932-1.154-1.6511-1.9134-2.0542 1.0266-0.0951 1.862 0.42177 2.7403 0.80168-0.24921-0.67997-1.2473-1.3505-1.7614-1.7656 0.89272-0.13859 1.8938 0.20116 2.5349 0.78594-0.05382-0.89852-0.55908-1.3456-1.2075-1.6494 0.62258-0.20825 1.5172 0.28246 2.1709 0.57173 0.10615-0.61012-0.5027-1.093-0.76474-1.335" style="fill:none;stroke-linecap:round;stroke-linejoin:round;stroke-width:.15875;stroke:#907714"/><path d="m39.479 194c-0.8483-0.29069-1.5395-0.71878-1.8855-1.449 0.82893 0.64696 1.7197 0.61415 2.6101 0.5851-0.66272-0.51919-1.0373-1.2442-1.26-2.0777 0.7259 0.55707 1.6449 0.72799 2.621 0.78461-0.44809-0.52511-0.71744-1.1694-0.60038-2.0713 0.46725 0.80041 1.0103 1.3584 1.7905 1.1572-0.65788-0.47196-0.71328-1.0192-0.89449-1.5508 0.4074 0.55958 0.90431 0.94016 1.5007 1.1218-0.52998-0.51223-0.35295-1.0244-0.35171-1.5367 0.30866 0.4931 0.76347 0.74263 1.2597 0.92307-0.19764-0.42777-0.24857-0.85555-0.0064-1.2833" style="fill:none;stroke-linecap:round;stroke-linejoin:round;stroke-width:.15875;stroke:#907714"/><path transform="matrix(.26458 0 0 .26458 -40.758 -1.3998)" d="m303.5 738.34c-3.2062-1.0987-5.8187-2.7167-7.1263-5.4766 3.133 2.4452 6.4996 2.3212 9.8649 2.2114-2.5048-1.9623-3.9205-4.7026-4.7624-7.8527 2.7436 2.1055 6.2169 2.7515 9.9062 2.9655-1.6936-1.9847-2.7116-4.4199-2.2692-7.8286 1.766 3.0252 3.8184 5.1341 6.7674 4.3738-2.4865-1.7838-2.6959-3.8523-3.3808-5.8613 1.5398 2.115 3.4179 3.5534 5.6719 4.24-2.0031-1.936-1.334-3.8719-1.3293-5.8079 1.1666 1.8637 2.8856 2.8068 4.7612 3.4888-0.747-1.6168-0.9395-3.2336-0.0241-4.8504" style="fill:none;filter:url(#c);stroke-linecap:round;stroke-linejoin:round;stroke-width:.1;stroke:#000"/><path d="m35.788 191.89c-1.3148-0.0265-1.5958-0.81485-1.7298-1.7114 0.63647 0.63717 1.5814 0.8424 2.5253 1.0493-0.81856-0.45196-1.3582-1.0782-1.673-1.8451 0.724 0.33531 1.5938 0.70466 2.4398 1.3615-1.0094-0.76572-0.73371-1.5315-0.58909-2.2972 0.35872 0.65817 0.51776 1.3876 1.7135 1.7469-0.42544-0.70957-0.28432-1.4192-0.22746-2.1288 0.36888 0.57912 0.57686 1.194 1.4792 1.6545-0.30879-0.53458-0.31178-1.1711-0.24622-1.8305 0.34464 0.48315 0.61242 0.9663 1.5019 1.4494-0.33141-0.51712-0.07789-1.0342 0.20862-1.5513 0.13655 0.40002 0.564 0.80007 1.2042 1.2001-0.22331-0.39919-0.11242-0.79839 0.10237-1.1976" style="fill:none;stroke-linecap:round;stroke-linejoin:round;stroke-width:.15875;stroke:#907714"/><path d="m64.161 195.79c1.1818-0.39636 1.5249-1.3258 1.8829-2.2421-0.75072 0.75554-1.5466 1.4502-2.7794 1.5483 0.84965-0.78776 1.4687-1.7447 1.6517-3.0212-0.75231 0.74122-1.4695 1.541-2.4788 1.8539 0.80244-0.60636 0.97246-1.6344 1.2683-2.5785-0.56139 0.80655-1.1405 1.5707-1.9208 1.8517 0.63907-0.62185 1.1154-1.3134 1.4426-2.0689-0.66375 0.42933-1.3291 0.8475-1.9495 1.58 0.37898-0.6905 0.66462-1.3934 0.38364-2.1719-0.43558 0.6383-1.2713 0.74305-2.2382 0.67296 0.74656-0.23275 0.50887-0.77868 0.30204-1.3148" style="fill:none;stroke-linecap:round;stroke-linejoin:round;stroke-width:.15875;stroke:#907714"/><path d="m70.379 191.01c0.67198-0.0184 1.119-0.48677 1.5269-1.0334-0.78176-2e-3 -1.4803 0.37083-2.1747 0.76199 0.92188-0.80102 1.1915-1.6079 1.2987-2.4162-0.49627 0.88571-1.1026 1.4688-1.7768 1.8652 0.46426-0.7903 0.66923-1.5806 0.82515-2.3708-0.50249 0.53464-0.98564 1.108-1.3125 1.9938 0.13168-0.73191 0.3666-1.4638 0.72098-2.1957-0.68439 0.57244-1.3392 1.1863-2.2377 1.459 0.23482-0.62208 0.36083-1.2442 0.15293-1.8662-0.33403 0.4396-0.7286 0.89433-1.5597 1.4582 0.04122-0.54532 0.15364-1.1008-0.22751-1.5858l-1.4255 1.289" style="fill:none;stroke-linecap:round;stroke-linejoin:round;stroke-width:.15875;stroke:#907714"/><path transform="matrix(.26458 0 0 .26458 -40.758 -1.3998)" d="m373.97 716.51c19.124-2.1371 38.938 1.0018 44.866 9.9553" style="fill:none;filter:url(#j);stroke-width:.4;stroke:#000"/><path transform="matrix(.26458 0 0 .26458 -40.758 -1.3998)" d="m419.88 726.99c2.5398-0.0697 4.2295-1.8398 5.7711-3.9059-2.9547-7e-3 -5.5948 1.4016-8.2195 2.88 3.4843-3.0275 4.5034-6.0772 4.9085-9.1324-1.8757 3.3476-4.1672 5.5516-6.7155 7.0497 1.7547-2.987 2.5294-5.9739 3.1187-8.9608-1.8992 2.0207-3.7253 4.1877-4.9608 7.5357 0.4977-2.7663 1.3856-5.5325 2.725-8.2988-2.5867 2.1636-5.0615 4.4838-8.4574 5.5144 0.8875-2.3512 1.3638-4.7024 0.578-7.0536-1.2625 1.6615-2.7538 3.3802-5.8951 5.5114 0.1558-2.0611 0.5807-4.1606-0.8599-5.9936l-5.3878 4.872" style="fill:none;filter:url(#c);stroke-linecap:round;stroke-linejoin:round;stroke-width:.1;stroke:#000"/><path d="m69.916 191.07c-1.2155-2.8104-8.6565-3.3824-12.495-2.5724 3.0141 1.3673 8.1739 1.1366 9.9556 4.0422 0.88616 1.4452 3.7679 1.3713 2.539-1.47z" style="fill:#fc0;stroke-width:.26458;stroke:#fc0"/><path transform="matrix(.26458 0 0 .26458 -40.758 -1.3998)" d="m310.74 741.95c3.5223 0.0958 7.4068 0.7709 11.047 2.6415-2.357-2.548-6.2517-5.7633-9.3222-6.884 3.3325-0.8156 8.1072 1.2329 11.321 3.0362-1.3287-3.777-4.3615-6.2405-7.232-7.7641 3.8802-0.3595 7.0377 1.5941 10.357 3.03-0.9419-2.57-4.7143-5.1044-6.6573-6.6733 3.3741-0.5238 7.1577 0.7603 9.5808 2.9705-0.2034-3.396-2.1131-5.0856-4.564-6.2341 2.3531-0.7871 5.7345 1.0676 8.2052 2.1609 0.4012-2.306-1.9-4.1312-2.8904-5.0456" style="fill:none;filter:url(#c);stroke-linecap:round;stroke-linejoin:round;stroke-width:.1;stroke:#000"/><path d="m68.445 193.37c0.90354-0.72548 1.0718-1.5641 1.4351-2.3727-0.67304 0.67624-1.1198 1.4882-2.1967 1.9222 0.47021-1.0126 0.55789-1.9978 0.40526-2.9659-0.45595 0.56139-0.70153 1.1228-1.4765 1.6842 0.17978-0.70236 0.33223-1.4047 0.29231-2.1071-0.44436 0.44235-0.87086 0.8883-1.5307 1.2876 0.13703-0.55065 0.18719-1.1013 0.01384-1.6519-0.22558 0.39214-0.67767 0.78427-1.1672 1.1764 0.06207-0.55022-0.0899-0.99339-0.2927-1.4112-0.11634 0.44757-0.37658 0.8129-0.80467 1.0823 0.20045-0.38023 0.39682-0.76043 0.33599-1.1407-0.31051 0.51239-0.70069 0.74596-1.0989 0.95154" style="fill:none;stroke-linecap:round;stroke-linejoin:round;stroke-width:.15875;stroke:#907714"/><path transform="matrix(.26458 0 0 .26458 -40.758 -1.3998)" d="m289.53 730.38c-4.9694-0.1003-6.0314-3.0798-6.538-6.4684 2.4056 2.4082 5.9772 3.1839 9.5444 3.966-3.0938-1.7082-5.1336-4.0752-6.3232-6.9736 2.7364 1.2673 6.0237 2.6633 9.2214 5.1458-3.8152-2.8941-2.7731-5.7883-2.2265-8.6824 1.3558 2.4876 1.9569 5.2447 6.4762 6.6024-1.608-2.6819-1.0746-5.3639-0.8597-8.0458 1.3942 2.1888 2.1803 4.5126 5.5906 6.2533-1.1671-2.0205-1.1784-4.4262-0.9306-6.9184 1.3026 1.8261 2.3147 3.6522 5.6766 5.4783-1.2526-1.9545-0.2944-3.9089 0.7885-5.8634 0.5161 1.5119 2.1317 3.0239 4.5515 4.5358-0.844-1.5088-0.4249-3.0176 0.3869-4.5265" style="fill:none;filter:url(#c);stroke-linecap:round;stroke-linejoin:round;stroke-width:.1;stroke:#000"/><path transform="matrix(.26458 0 0 .26458 -40.758 -1.3998)" d="m396.31 745.13c4.4666-1.4981 5.7634-5.0111 7.1164-8.4743-2.8374 2.8556-5.8455 5.481-10.505 5.8518 3.2113-2.9774 5.551-6.5941 6.2426-11.419-2.8434 2.8015-5.5541 5.8242-9.3688 7.0068 3.0329-2.2918 3.6755-6.1772 4.7936-9.7456-2.1218 3.0484-4.3105 5.9366-7.2599 6.9987 2.4154-2.3503 4.2157-4.9642 5.4526-7.8196-2.5087 1.6227-5.0234 3.2032-7.3684 5.9719 1.4324-2.6098 2.512-5.2665 1.45-8.2089-1.6463 2.4125-4.805 2.8084-8.4593 2.5435 2.8217-0.8797 1.9233-2.9431 1.1416-4.9693" style="fill:none;filter:url(#c);stroke-linecap:round;stroke-linejoin:round;stroke-width:.1;stroke:#000"/><path transform="matrix(.26458 0 0 .26458 -40.758 -1.3998)" d="m412.43 736.08c3.415-2.742 4.0509-5.9116 5.4241-8.9677-2.5438 2.5559-4.2325 5.6249-8.3025 7.2651 1.7772-3.8271 2.1086-7.5509 1.5317-11.21-1.7233 2.1218-2.6515 4.2436-5.5805 6.3655 0.6795-2.6546 1.2557-5.3092 1.1048-7.9639-1.6795 1.6719-3.2915 3.3574-5.7855 4.8664 0.5179-2.0812 0.7075-4.1623 0.0523-6.2435-0.8526 1.4821-2.5613 2.9642-4.4117 4.4464 0.2346-2.0796-0.3398-3.7546-1.1063-5.3337-0.4397 1.6916-1.4233 3.0724-3.0413 4.0907 0.7576-1.4371 1.4998-2.8741 1.2699-4.3112-1.1736 1.9366-2.6483 2.8194-4.1532 3.5964" style="fill:none;filter:url(#c);stroke-linecap:round;stroke-linejoin:round;stroke-width:.1;stroke:#000"/><path d="m64.712 172.01c1.0338 0.34112 1.5102 0.90976 1.751 1.5824 0.53712 1.8093-0.43896 4.4055-0.86073 4.5952-0.75516 0.33956-0.03741-1.2056-0.67396-2.379-0.65457 2.9469-3.1191 3.7631-3.9332 3.4864-0.98239-0.33387 1.5222-2.1996 1.484-3.679-1.7217 0.8252-1.6716 1.0329-3.0003 1.6852-0.84602 0.41537-2.1198 0.86563-2.3697 0.13235-0.35615-1.5889 3.0805-2.5103 4.5963-3.8242 0.84568-0.78858 1.2163-1.6348 3.0064-1.5993z" style="fill:#ff0;stroke-linecap:round;stroke-linejoin:round;stroke-width:.26458;stroke:#a80"/><path d="m38.526 176.91c1.2961 2.7262 4.1793 2.1922 4.2428 1.5396 0.08739-0.89936-0.30048-0.0118-1.5055-1.6623 2.1338-0.14637 1.0264-4e-3 2.582-0.26323 0.93772-0.15635 2.0317-0.14973 2.1115-0.92029 0.06242-0.65518-2.8789-0.85378-3.8179-1.5452 3.0551 0.10657 4.8423-1.179 4.8611-1.3799-1.1996-0.19259-5.3662 0.54881-6.7907 0.5164-1.8534-0.14705-2.1517 2.1635-1.6833 3.715z" style="fill:#ff0;stroke-linecap:round;stroke-linejoin:round;stroke-width:.26458;stroke:#a80"/></g></g></svg>
