<?xml version="1.0" encoding="UTF-8"?>
<svg width="188.16mm" height="274.04mm" version="1.1" viewBox="0 0 188.16 274.04" xmlns="http://www.w3.org/2000/svg" xmlns:xlink="http://www.w3.org/1999/xlink"><defs><linearGradient id="bg"><stop stop-color="#c5fdff" offset="0"/><stop stop-color="#c5fdff" stop-opacity="0" offset="1"/></linearGradient><linearGradient id="bi"><stop stop-color="#ffafdb" offset="0"/><stop stop-color="#e70000" offset="1"/></linearGradient><linearGradient id="bh"><stop stop-color="#008000" offset="0"/><stop stop-color="#00fa8a" offset="1"/></linearGradient><linearGradient id="bc"><stop stop-color="#f1e835" offset="0"/><stop stop-color="#ffdd81" offset="1"/></linearGradient><linearGradient id="bf"><stop stop-color="#ffdd81" offset="0"/><stop stop-color="#ce6900" offset="1"/></linearGradient><linearGradient id="be"><stop stop-color="#f1e835" offset="0"/><stop stop-color="#f09f27" offset="1"/></linearGradient><linearGradient id="bb"><stop stop-color="#ffdd81" offset="0"/><stop stop-color="#e0a400" offset="1"/></linearGradient><linearGradient id="a"><stop stop-color="#ffdd81" offset="0"/><stop stop-color="#ffefc5" offset="1"/></linearGradient><linearGradient id="b"><stop stop-color="#977403" offset="0"/><stop stop-color="#892900" offset="1"/></linearGradient><linearGradient id="bd"><stop stop-color="#daa704" offset="0"/><stop stop-color="#daa704" stop-opacity="0" offset="1"/></linearGradient><linearGradient id="cp" x1="424.59" x2="430.11" y1="108.43" y2="141.76" gradientUnits="userSpaceOnUse" xlink:href="#bd"/><linearGradient id="cq" x1="423.27" x2="431.38" y1="122.78" y2="163.19" gradientUnits="userSpaceOnUse" xlink:href="#b"/><linearGradient id="cr" x1="288.69" x2="379.48" y1="105.78" y2="126.99" gradientUnits="userSpaceOnUse" xlink:href="#b"/><linearGradient id="cs" x1="235.46" x2="230.14" y1="87.642" y2="114.16" gradientUnits="userSpaceOnUse" xlink:href="#bd"/><linearGradient id="ct" x1="205.09" x2="233.79" y1="84.534" y2="135.43" gradientUnits="userSpaceOnUse" xlink:href="#b"/><linearGradient id="cu" x1="227.97" x2="232.58" y1="193.96" y2="279.57" gradientUnits="userSpaceOnUse"><stop stop-color="#fcffb9" offset="0"/><stop stop-color="#fcffb9" stop-opacity="0" offset="1"/></linearGradient><linearGradient id="cv" x1="365.55" x2="364.07" y1="193.87" y2="232.62" gradientUnits="userSpaceOnUse"><stop stop-color="#fcffb9" offset="0"/><stop stop-color="#fcffb9" stop-opacity="0" offset="1"/></linearGradient><linearGradient id="cw" x1="301.64" x2="247.96" y1="173.45" y2="164.36" gradientUnits="userSpaceOnUse" xlink:href="#a"/><linearGradient id="cx" x1="342.49" x2="280.5" y1="338.74" y2="327.66" gradientUnits="userSpaceOnUse" xlink:href="#bb"/><linearGradient id="bk" x1="284.88" x2="277.44" y1="71.483" y2="49.697" gradientUnits="userSpaceOnUse" xlink:href="#bf"/><linearGradient id="bm" x1="376.58" x2="397.45" y1="92.068" y2="74.896" gradientUnits="userSpaceOnUse" xlink:href="#bf"/><linearGradient id="bo" x1="240.44" x2="198.03" y1="562.83" y2="575.69" gradientUnits="userSpaceOnUse" xlink:href="#bc"/><linearGradient id="bp" x1="246.62" x2="285.45" y1="540.41" y2="519.7" gradientUnits="userSpaceOnUse" xlink:href="#b"/><linearGradient id="bq" x1="129.14" x2="132.5" y1="553.52" y2="532.3" gradientUnits="userSpaceOnUse" xlink:href="#a"/><linearGradient id="br" x1="123.41" x2="127.77" y1="588.49" y2="545.05" gradientUnits="userSpaceOnUse" xlink:href="#bb"/><linearGradient id="bs" x1="60.131" x2="53.858" y1="628.02" y2="601.75" gradientUnits="userSpaceOnUse" xlink:href="#a"/><linearGradient id="bt" x1="262.44" x2="268.12" y1="171.84" y2="186.84" gradientUnits="userSpaceOnUse" xlink:href="#bh"/><linearGradient id="bu" x1="307.72" x2="323.21" y1="179.77" y2="195.22" gradientUnits="userSpaceOnUse" xlink:href="#bh"/><linearGradient id="bv" x1="268.75" x2="289.35" y1="476.1" y2="484.32" gradientUnits="userSpaceOnUse" xlink:href="#bi"/><linearGradient id="bw" x1="470.07" x2="542.76" y1="451.14" y2="429.93" gradientUnits="userSpaceOnUse" xlink:href="#bc"/><linearGradient id="bx" x1="451.42" x2="467.62" y1="799.85" y2="877" gradientUnits="userSpaceOnUse" xlink:href="#bc"/><linearGradient id="by" x1="371.3" x2="350.55" y1="825.46" y2="866.89" gradientUnits="userSpaceOnUse" xlink:href="#bc"/><linearGradient id="bz" x1="351.9" x2="347.25" y1="436.89" y2="313.65" gradientUnits="userSpaceOnUse" xlink:href="#be"/><linearGradient id="ca" x1="359.07" x2="348.56" y1="446.14" y2="347.14" gradientUnits="userSpaceOnUse" xlink:href="#b"/><linearGradient id="cb" x1="371.1" x2="477.56" y1="585.51" y2="567.92" gradientUnits="userSpaceOnUse"><stop stop-color="#fd92ff" offset="0"/><stop stop-color="#fd0077" offset="1"/></linearGradient><linearGradient id="cc" x1="422.1" x2="460.67" y1="481.63" y2="383.78" gradientUnits="userSpaceOnUse"><stop stop-color="#f00" offset="0"/><stop stop-color="#ff51b1" offset="1"/></linearGradient><linearGradient id="cd" x1="418.81" x2="467.84" y1="688.4" y2="739.12" gradientUnits="userSpaceOnUse" xlink:href="#bi"/><linearGradient id="ce" x1="629.19" x2="637.79" y1="378.16" y2="389.27" gradientUnits="userSpaceOnUse" xlink:href="#bb"/><linearGradient id="cf" x1="701.92" x2="668.9" y1="409.35" y2="401.27" gradientUnits="userSpaceOnUse" xlink:href="#bb"/><linearGradient id="cg" x1="452.96" x2="437.74" y1="813.98" y2="733.27" gradientUnits="userSpaceOnUse" xlink:href="#b"/><linearGradient id="ch" x1="381.48" x2="372.71" y1="799.22" y2="734.94" gradientUnits="userSpaceOnUse" xlink:href="#b"/><linearGradient id="ci" x1="492.97" x2="465.98" y1="581.97" y2="602.68" gradientUnits="userSpaceOnUse" xlink:href="#be"/><linearGradient id="cj" x1="470.74" x2="430.69" y1="946.72" y2="972.22" gradientUnits="userSpaceOnUse" xlink:href="#a"/><linearGradient id="ck" x1="318.01" x2="253.61" y1="940.8" y2="922.61" gradientUnits="userSpaceOnUse" xlink:href="#a"/><linearGradient id="cl" x1="238.87" x2="214.71" y1="921.65" y2="918.36" gradientUnits="userSpaceOnUse" xlink:href="#a"/><linearGradient id="cm" x1="565.82" x2="575.04" y1="366.59" y2="332.87" gradientUnits="userSpaceOnUse" xlink:href="#a"/><linearGradient id="cn" x1="680.77" x2="687.34" y1="396.96" y2="362.74" gradientUnits="userSpaceOnUse" xlink:href="#a"/><linearGradient id="co" x1="369.73" x2="392.44" y1="588.82" y2="695.25" gradientUnits="userSpaceOnUse"><stop stop-color="#ffc2fe" stop-opacity="0" offset="0"/><stop stop-color="#ff2dfb" offset="1"/></linearGradient><linearGradient id="cy" x1="340.55" x2="331.73" y1="324.44" y2="313.56" gradientUnits="userSpaceOnUse"><stop stop-color="#ff2a2a" offset="0"/><stop stop-color="#ff8484" offset="1"/></linearGradient><linearGradient id="cz" x1="310.64" x2="353.77" y1="323.23" y2="280.76" gradientUnits="userSpaceOnUse"><stop stop-color="#a00" offset="0"/><stop stop-color="#450000" offset="1"/></linearGradient><linearGradient id="bl" x1="250.74" x2="257.59" y1="156.11" y2="158.39" gradientUnits="userSpaceOnUse" xlink:href="#bg"/><linearGradient id="bn" x1="300.79" x2="311.69" y1="145.19" y2="155.2" gradientUnits="userSpaceOnUse" xlink:href="#bg"/><linearGradient id="bj" x1="336.06" x2="405.64" y1="834.89" y2="814.77" gradientUnits="userSpaceOnUse"><stop stop-color="#f1e835" stop-opacity="0" offset="0"/><stop stop-color="#f09f27" offset="1"/></linearGradient></defs><g transform="translate(25.288 -7.2694)"><g transform="translate(-35.529 -1.5102)"><g transform="matrix(.26458 0 0 .26458 7.2394 7.3329)"><g transform="matrix(1.0175,0,0,1.0175,-15.159,-16.45)"><path d="m290.91 446.76s-23.924 54.286-41.781 68.75-27.5 17.862-40 20.719-18.219 3.5938-18.219 3.5938-0.37328-2.0283-2.7188-4.2812c-1.0702-2.0948-2.6175-3.9798-4.75-5.5312-11.77-8.5635-23.813-10.465-30.25-9.4688-6.437 0.99575-9.8337 6.1132-16.969 6.0938-12.04-0.0327-23.583-12.124-35.5-10.531-10.69 1.4292-26.453 9.7109-24.063 21.062 2.3033 10.936 7.9352 15.234 15.25 16.781-12.771 2.1335-15.001 2.7122-24.562 3.7188-10.179 1.0714-25.723 0.52679-31.438 6.0625-5.7143 5.5357-11.433 16.987-9.4688 24.844s7.1562 13.562 7.1562 13.562-5.5357 4.8259-5 11.969c0.53571 7.1429 1.2366 16.768 9.0938 20.875s49.107 3.7589 56.25 5.1875c7.1429 1.4286 13.402 5.0134 31.438 3.4062 18.036-1.6071 44.629-10.013 51.594-14.656 6.9643-4.6428 28.406-21.438 28.406-21.438s24.996-16.424 39.281-21.781c14.286-5.3572 31.446-12.844 41.625-16.594s49.643-19.281 55-26.781 2.8304-8.5848 0.6875-13.406c-2.1428-4.8214-51.062-82.156-51.062-82.156z" style="fill:#a80"/><path d="m269.03 494.39-4.375 8.2812s-5.4618 10.262-23.844 23.125c0.81725 1.0291 1.8515 2.03 3.125 2.4375 3.1567 1.0102 11.261-2.4108 13.281-5.0625 2.0203-2.6516 1.2571-5.4274 3.6562-6.4375 2.3991-1.0102 4.5468-0.24365 9.2188-0.875 4.672-0.63134 9.2611-4.1686 9.2188-8.4688-0.064-6.4962-6.5477-10.957-10.281-13zm8.625 35.844c-3.0045-0.0261-6.1369 0.60664-8.8438 1.6562-6.1872 2.3991-14.372 6.9518-14.625 11.75-0.25254 4.7982 1.7487 3.9108 1.875 6.5625s-4.2876 5.0384-3.6562 7.4375c0.63134 2.3991 3.1629 4.5465 8.7188 3.0312 5.5558-1.5152 10.35-8.595 12.875-8.4688s9.4632 6.3104 13.125 3.4062 5.1185-16.148 0.375-21.562c-2.3242-2.6529-5.9808-3.7789-9.8438-3.8125z" style="fill:url(#bp)"/><path d="m292 450.67-22.062 41.938c5.4536 2.9877 10.551 7.3749 11.312 13.781 0.63623 8.597-9.3333 12.638-16.562 11.75-5.0277-1.2279-3.6985 5.172-6.7812 7.1875-4.8343 3.7724-13.634 8.0724-18.438 2-0.0656-0.16369-0.13816-0.31095-0.21875-0.46875-2.1972 1.4964-4.5377 3.0145-7.0938 4.5625-25.357 15.357-118.93 20.888-133.22 24.281-14.286 3.3928-48.013 6.9777-55.156 8.4062-7.1429 1.4286-11.786 6.4196-13.75 18.562-1.9643 12.143 6.0625 16.781 6.0625 16.781l14.094-3.9375 67.875-13.562s-20.531 9.8348-58.031 13.406c13.393-0.71429 49.259 4.4688 54.438 4.4688 5.1786 0 15.719-2.6875 15.719-2.6875s-9.6429 4.6518-12.5 5.1875-24.996-1.0893-36.781-2.875c-11.786-1.7857-33.929-4.1161-43.75 4.8125-9.8214 8.9286-4.4554 20.179 0.1875 26.25 4.6429 6.0714 37.491 5.7143 52.312 6.25 14.821 0.53571 16.254 9.6473 61.969-1.7812s58.75-43.75 58.75-43.75l-4.0938 12.5s19.634-14.107 36.062-20 28.071-10.769 41.594-17.312c19.489-9.4304 59.817-23.317 56.781-31.531-3.0357-8.2143-48.719-84.219-48.719-84.219zm-14.5 77.562c1.2115 1e-3 2.4171 0.10222 3.5938 0.3125 9.4407 0.98414 12.777 11.686 11.156 19.875-0.25026 5.1569-4.1103 12.062-10.25 9.5312-3.6076-0.38898-7.3904-6.2138-10.406-2.0312-4.6049 4.8237-12.873 10.233-19.219 5.375-4.0758-3.2435-0.8815-7.9252 1.6875-10.812-1.4547-2.8537-2.9825-6.6992-1.0312-9.9375 5.1709-7.3576 14.492-11.343 23.25-12.281 0.40127-0.0214 0.81491-0.0317 1.2188-0.0312z" style="fill:url(#bo)"/><path d="m132.94 551.44c-16.156 1.7972-29.392 3.1557-34 4.25-14.286 3.3928-48.013 6.9777-55.156 8.4062-7.1429 1.4286-11.786 6.4196-13.75 18.562-1.9643 12.143 6.0625 16.781 6.0625 16.781l14.094-3.9375 67.875-13.562s-20.531 9.8348-58.031 13.406c13.393-0.71429 49.259 4.4688 54.438 4.4688 5.1786 0 15.719-2.6875 15.719-2.6875s-9.6429 4.6518-12.5 5.1875-24.996-1.0893-36.781-2.875c-11.786-1.7857-33.929-4.1161-43.75 4.8125-9.8214 8.9286-4.4554 20.179 0.1875 26.25 4.6429 6.0714 37.491 5.7143 52.312 6.25 14.821 0.53571 16.254 9.6473 61.969-1.7812 59.206-9.2508-11.63-51.915-18.688-83.531z" style="fill:url(#br)"/><path d="m136.22 526.63c-12.04-0.0327-23.589-12.114-35.506-10.52-10.69 1.4292-26.436 9.6966-24.045 21.048 2.3909 11.352 8.3509 15.554 16.075 16.948 7.7244 1.394 22.962 3.7493 29.399 11.914 6.437 8.1652 10.84 18.624 24.634 19.62 13.794 0.99576 31.862 0.1588 38.297-17.807 3.8836-10.842 10.144-29.261-1.6262-37.825-11.77-8.5635-23.813-10.452-30.25-9.4563-6.437 0.99575-9.8438 6.0968-16.979 6.0774z" style="fill:#a80"/><path d="m135.91 529.45c-11.69-0.0294-24.464-12.143-34.821-10.714-10.357 1.4286-24.107 8.2143-21.786 18.393s10.536 14.107 18.036 15.357 21.429 4.6429 27.679 11.964 10.881 18.063 24.286 18.75c13.929 0.71429 31.607-1.9643 37.143-13.393 7.4965-15.477 5.7143-30.714-5.8929-38.929-11.239-7.9537-20-8.5714-26.25-7.6786-6.25 0.89285-11.465 6.2674-18.393 6.25z" style="fill:#ffdd81"/><path d="m102.31 521.14c-7.4962 1.168-19.535 4.028-19.125 13.156 0.45618 10.153 12.909 12.605 21.5 14.062 12.067 2.048 23.191 9.3758 29.531 20.312 4.847 8.3604 15.34 9.9377 24.531 8.9375 10.053-1.094 21.908-4.1502 25.844-14.938 4.1203-11.292 2.018-25.58-9.25-32-9.6921-5.5222-21.245-6.0078-31.125-0.5-12.934 7.2107-26.226-5.3401-38.75-8.75-1.0141-0.27611-2.1131-0.44379-3.1562-0.28125z" style="fill:url(#bq)"/><path d="m38.133 627.09c-3.0995-2.7719-5.5558-6.0609-4.5457-11.617 1.0102-5.5558 9.5964-14.395 17.678-14.647 8.0812-0.25253 58.589 6.8185 65.66 4.7982 7.0711-2.0203 18.688-5.0508 23.234 4.2932 4.5457 9.3439-3.0305 22.728-14.9 25.759-11.869 3.0305-26.264-3.0305-37.881-2.2728-11.617 0.75762-41.249 0.83749-49.245-6.3134z" style="fill:url(#bs)"/></g><g transform="matrix(1.0175,0,0,1.0175,-12.252,-16.45)"><path d="m391.18 235.91s-8.5863 49.75-4.2932 100.26c4.2932 50.508 7.3236 70.458 7.3236 70.458s8.8237-0.15284 11.949 0.65073 18.661 2.9464 22.232 3.3929 6.0714 1.7857 10 0.17857 5.625-4.9107 8.2143-5.1786c2.5893-0.26786 11.786 6.3393 10.893 12.411-0.89285 6.0714-9.1964 13.571-9.1964 13.571l88.036-28.839s0.89286-7.8572 6.25-11.607 14.348-11.059 13.304-16.786c-2.5893-14.196-8.4883-14.962-17.232-21.607-11.161-8.4821 4.1071-16.25 7.0536-18.036 2.9464-1.7857 11.696-8.3036 22.232-6.875s25.536 8.8393 28.036 19.196-1.7857 22.857-1.7857 22.857 21.161-3.5714 32.857-3.3928c11.696 0.17857 32.589 2.5 32.589 2.5s14.554-13.304 30.179-13.839c15.625-0.53571 24.464 2.5893 29.554 13.125 5.0893 10.536 1.7857 12.768 0.71429 15.179-1.0714 2.4107-4.8214 6.25-4.8214 6.25s4.375 2.7679 4.1071 9.1072c-0.26785 6.3393-5.4464 12.589-11.607 15.714-6.1607 3.125-17.411 3.6607-29.107 3.2143s-30.536 3.75-35.714 6.6071-21.161 21.964-39.464 27.054c-18.304 5.0893-33.839 3.3929-33.839 3.3929s-31.232 8.076-70.88 22.723-59.656 27.813-59.656 27.813 6.875 3.5714 7.1428 7.9464c0.26786 4.375-2.8571 9.2857-5.625 10-2.7678 0.71429-5.8928-2.5-5.8928-2.5s-1.875 15.089 6.3393 36.518 15.179 35.893 15.179 35.893 7.2322 3.2143 18.036-4.7322c10.804-7.9464 14.643-18.839 21.786-23.482s14.018-8.125 14.018-8.125-5.1786-4.1964-3.3929-9.6429c1.7857-5.4464 14.375-21.786 28.214-22.411s15.536 2.3214 20.179 1.6071c4.6429-0.71428 17.212-10.828 23.399-20.172 0.75761 9.0914-4.6492 20.619-4.6492 20.619s6.624-3.8678 12.054-11.696c-1.894 9.0914-4.8214 18.393-10.804 26.429-5.9567 8.0015-11.071 11.339-11.071 11.339l5.2679-2.5s2.3214 5.3571-0.17857 11.786c-2.5 6.4286-11.071 15.982-32.411 17.768-21.339 1.7857-24.821-11.875-24.821-11.875s-5.8036 4.1964-10 10.179c-4.1964 5.9822-7.4107 21.25-11.518 26.161-4.1072 4.9107-18.214 13.214-18.214 13.214l28.482 30.089s8.8393-7.8571 20.089-6.9643c11.25 0.89286 12.143 10.179 12.589 13.393 0.44643 3.2143 0.44643 8.3036-3.0357 11.786-3.4821 3.4822-10.357 3.6607-13.839 7.8572-3.4821 4.1964-2.3214 9.1964-6.7857 13.304s-16.161 11.071-23.75 12.857c-7.5893 1.7857-15.357 10.804-15.357 10.804s16.964 83.839 19.821 97.411c2.8571 13.571 7.7678 22.857 7.7678 22.857s42.768 49.107 56.161 68.393 26.786 36.964 28.214 59.107-3.0357 38.929-16.25 48.393c-13.214 9.4643-22.5 8.3929-27.679 6.4286s-11.429-4.1071-11.429-4.1071 0.89286 13.928-7.6786 20.357-26.071 12.679-48.036 8.3929c-21.964-4.2857-33.571-18.75-40.536-38.929-6.9643-20.179-18.393-89.464-18.393-89.464s-65 52.5-91.786 69.107-42.143 3.75-49.643 0.71429-22.143-9.2857-24.286-15.714c0 0-40.536-14.643-44.107-30.536s-0.53571-32.679 14.107-43.214c14.643-10.536 49.643-23.75 69.643-32.857s41.25-19.643 45.714-25c4.4643-5.3571 9.2857-26.607 9.6429-51.964 0.35714-25.357-3.2143-41.607-3.2143-41.607s-9.7321 4.1071-20.089-0.35714c-10.357-4.4643-14.643-11.786-14.643-11.786s-9.1964 3.3036-18.571-10.893c-9.375-14.196-5.3571-15.446-10.179-15.625-4.8214-0.17858-10.268 4.0178-19.732 6.0714-9.4643 2.0536-12.054-7.5893-13.304-10.714s-1.3393-7.2321 2.6786-10.179c4.0179-2.9464 17.946-10 17.946-10s23.75-46.161 28.75-58.125 9.2857-27.5 4.4643-45.179-13.214-34.821-13.393-44.464-0.35714-11.786-0.35714-11.786-6.9643-7.1429-6.9643-9.8214 2.3214-4.1072 1.6072-4.8214c-0.71429-0.71429-10.357-0.89286-9.4643-7.6786 0.89286-6.7857 5.8929-13.036 5.5357-16.607-0.35714-3.5714-7.8125-9.0625-8.2589-13.973-0.44643-4.9107 3.7946-13.036 6.3393-15.893s6.0714-5.1786 7.0982-5.4018c1.0268-0.22322 2.3661-0.0893 2.3661-0.0893s2.8197-13.582 11.532-20.526c8.7126-6.9448 16.415-7.1973 16.415-7.1973s3.2581-32.99 4.6866-55.669c1.4286-22.679 0.53571-47.679 0.53571-47.679s15-23.393 23.571-28.929 54.039-45.384 54.039-45.384z" style="fill:#a80"/><path d="m279.38 443.44c-0.83419 0.0204-1.7256 0.3194-2.5938 1.1875-2.7779 2.7779-10.48 12.009-9.3438 17.312s7.0861 7.1815 7.8438 14-7.4629 13.135-4.9375 18.312 9.8476 2.6507 9.4688 6.3125c-0.37881 3.6618-3.1428 2.6558-1.375 5.8125 1.0338 1.8461 2.5293 4.6449 4.4375 7.4062 1.0767-8.4029 4.3249-15.532 2.1875-24.125-1.5621-6.28-1.4661-16.039-3.8438-21.906-3.53-8.7104-3.3127-16.006-1.3125-24.312-0.17007-0.0197-0.35372-4e-3 -0.53125 0z" style="fill:url(#bv)"/><path d="m564.81 330.34c-13.666 0.1299-24.016 12.422-24.987 14.688-1.0714 2.5 2.4821 6.433 8.375 9.4688 5.8928 3.0357 12.5 14.277 10.893 22.312-1.6072 8.0357-7.4911 9.6473-14.812 16.969s-5.875 16.438-5.875 16.438-1.2679-3.3839-1.625-4.8125c-1.6662 0.41655-27.397 8.6781-50.188 16.094 2.0531 5.0374-3.6808 8.8102-8.125 8.875-1.8276 3.9821 4.2471 7.7237 3.0312 12.312-1.2 6.9184-9.894 5.133-14.906 5.7812-8.4647 2.7325-19.875 3.0993-25.438-5.125-1.3056-3.2882 0.31582-6.1481 2.5625-8.6875-2.4491 0.12482-4.8602 5e-3 -7.2812-0.15625-1.4965-0.0998-3.4129-0.43043-5.375-0.84375-3.251 6.6388-4.4008 12.822-12.094 16.25 4.2473 1.849 9.6283 0.58608 13.688 3.2188 4.841 3.4535 0.53444 9.5197-3.4062 11.594-4.7574 1.8898-1.3788 6.2213-1.4062 9.6562-0.84029 4.5755-5.5263 6.4649-9.5625 8.5-0.0476 0.76612-0.30937 1.5636-0.84375 2.4062-2.9174 4.6003 1.9291 5.923 4.875 7.375 5.7159 2.8174 10.744 6.3158 15.219 10.594 0.74641-0.9014 1.5147-1.7699 2.2812-2.5 2.8687-2.7321 8.2142-6.1141 22.125-11.938-1.0437-7.0253-1.1015-14.408 3.875-19.938 3.1308-5.7004 10.074-4.4435 15.375-5.5 0.16595-0.0268 0.33864-0.0547 0.5-0.0625 2.4204-0.1172 4.2995 1.8523 5.1562 3.9375 0.0386 2.7324 1.3076 1.7662 3.125 0.4375 3.5085-2.7034 7.4532 0.82497 7.5938 4.625 0.92865 0.74114 1.8911 1.486 2.875 2.2188 29.944-10.234 69.219-22.719 69.219-22.719s12.5 1.9643 28.75-2.5 28.214-14.625 35-20.875c6.7857-6.25 21.232-16.603 32.125-20.531s42.147-15.009 46.969-18.938c4.8214-3.9286 10.009-10.893 1.4375-22.5-8.5714-11.607-20.714-8.7589-30-7.6875-9.2857 1.0714-47.344 31.438-47.344 31.438s-19.089-5.8795-37.125-4.0938-38.75 22.125-38.75 22.125 15.344-17.688 36.594-25.188 55.844-8.8125 55.844-8.8125l4.3125-2.8438s-20.504-1.7277-32.469-1.9062c-11.964-0.17858-30.719 2.875-30.719 2.875l-6.5938 7.8438s5.1652-13.92 6.5938-26.062c1.4286-12.143-9.8304-20.192-25.188-23.406-1.4397-0.30134-2.8675-0.41969-4.2812-0.40625zm-56.562 97.219c2.6558-0.0307 5.1665 0.8609 7.5625 1.9688 6.4557 0.33851 11.934 7.5844 8.4375 13.594-2.6149 6.2748-9.384 7.9281-15.156 9.9688-4.0536 1.4212-12.406 0.18867-11.188-5.625 2.5749-3.7124-3.6079-3.8936-3.8125-7.0938 0.882-6.1749 6.716-11.995 13-12.75 0.38496-0.0446 0.77685-0.0581 1.1562-0.0625z" style="fill:url(#bw)"/><path d="m456.16 720.41c-1.4655 0.67915-3.0062 1.2506-4.625 1.6875-0.11779 3.8466-1.7332 7.817-3.9688 10.656 3.2287 4.5896 3.1348 11.039 2.8125 16.625 1.8609 7.0953-11.308 12.511-11.031 3.3438-0.26942-1.769 2.1809-7.0089-1.0938-6.875-5.0983 1.522-12.42-0.39078-12.625-6.7188-1.4073-4.4148-1.1444-8.865-0.1875-13.219-4.7139 0.2355-9.4047 0.61379-13.969 1.8125-4.1603 1.7961-8.6226 1.2904-12.906 1.8125 0.68059 3.4823 1.5882 8.0874 2.4688 12.562 0.40181 0.16135 0.77408 0.31746 1.0625 0.46875 2.1439 3.2774 5.6566 3.0993 9.1562 2.2812 4.2736-0.14317 11.981 1.0203 11.469 6.6875 4.6471 1.8567 3.462 8.3665 1.0938 11.969-0.59073 5.0988-1.598 12.338-7.7812 13.5-3.2139 0.37205-5.959-0.43113-8.4062-1.875 2.4415 12.095 4.8137 23.724 6.5312 31.531 5.5558 25.254 6.3277 38.108 4.8125 42.906-1.5152 4.7982-7.9561 8.7206-9.2188 20.969s9.9619 57.332 13.75 80.312c3.7881 22.981 11.131 56.053 23 69.437 11.869 13.385 29.789 18.184 47.719 15.406s27.008-7.5581 29.281-20.438c2.2728-12.88-2.0092-52.545-7.3125-63.656-2.2218-4.6551-6.0161-10.798-8.2188-13.719 6.6964 1.7857 11 13.719 11 13.719s3.1205-4.308 4.9062-13.594c1.4286 7.8571-1.625 25.469-1.625 25.469 3.9286 11.964 5.0938 43 5.0938 43s17.376 9.5398 29.75 2.4687c12.374-7.071 27.775-22.739 22.219-51.781-5.5558-29.042-28.26-57.821-45.938-78.781-17.678-20.961-34.875-43.188-34.875-43.188l2.5312 15.906s-9.1022-21.482-11.375-32.594c-0.832-4.0676-4.9252-24.11-8.5938-42.062-1.6044-0.49981-3.2748-0.97856-4.5 0.375-1.8884 3.6119-4.6365 7.6622-9.1562 8.125-7.7822-0.27945-15.797-5.5725-16.688-13.812-2.0293-4.747 3.4559-6.5975 6.6875-7.9688 0.6806-3.5521-4.8825-6.7077-3.8438-10.844 1.6406-4.2943 3.3478-10.294 8.2812-11.656 0.19128-0.0466 0.38555-0.0786 0.5625-0.0937 2.6542-0.22791 3.7809 2.8594 6.25 2.6562 2.1494-0.6835 4.0074-0.41424 5.6875 0.375-0.95198-4.6589-1.6324-8.0257-2.4062-11.812-1.3627-0.15894-2.7479-0.78029-3.7188-1.6875-1.4479 3.2554-5.3068 2.5151-7.5 0.46875-4.1067-2.1192-4.8002-6.0035-4.5625-10.156zm-18.969 67.281c3.1158-0.14976 5.6843 2.4231 6.8438 5.0312 3.8565 0.4572 8.1736-2.2547 12.188-0.0937 5.3193 2.5744 13.657 7.106 10.938 14.312-0.18141 3.5533-2.7314 6.2955-6.3438 6.0312-1.0069 1.3608-2.3813 3.3512-4.5625 3.5312-9.231 0.70039-18.619 6.046-28 3.2188-4.0414-0.5555-4.0588-4.483-3.5-7.5625-1.5771-2.1105-5.21-3.5902-4.2812-7.0938 1.3288-3.8645 1.6462-9.0971 5.4688-11.344 4.7594-0.29428 6.8363-5.4508 11.25-6.0312z" style="fill:url(#bx)"/><path d="m396.69 729.84c-0.32742 0.0694-0.64636 0.1313-0.96875 0.21875 1.4053 2.9429-1.9888 5.2162-1.0312 7.9688 2.9586 3.5391 5.837 7.774 4.1562 12.688-0.58269 5.2715-3.7976 11.699-10.062 10.656-6.0439 0.38197-12.611-0.96201-15.844-6.5625-3.4365 2.5483-10.047 2.1154-11-3.0625-2.5666-5.3859-0.75207-10.46 2.2188-14.969-3.285-0.37139-6.5461-1.1636-9.7188-2.5312-4.6082-2.7045-8.7676 0.3069-13.031 2.375 0.78042 4.4246 1.6769 10.594 2.3438 18 1.0155-0.24918 1.9978-0.44756 2.875-0.625 0.19278-0.0187 0.37337-0.0296 0.5625-0.0312 2.837-0.0248 5.2689 1.809 7.125 3.8125 6.4594 2.6562 5.0159 10.195 2.875 15.25 1.4729 3.2829 3.7069 7.9603-0.1875 10.625-3.5244 0.82905-3.7494 4.4883-3.6562 7.5 2.1068 1.9033 5.1786 5.9616 1.3438 8.1875-3.103 1.3163-7.7779 2.7436-11.281 1.625-2.1742 21.713-6.2571 29.441-8.7812 33.438-3.0305 4.7982-49.777 28.291-72 36.625-22.223 8.3338-54.277 21.464-57.812 43.688-3.5355 22.223 8.0725 28.54 16.406 33.844s24.75 12.625 24.75 12.625-5.6161-21.853-0.4375-38.281c5.1786-16.429 15.906-25 15.906-25s0.80357-9.3929 5-15.375c-1.7857 9.1071-1.5312 12.875-1.5312 12.875s9.1875-7.6116 16.688-7.3438c0 0-36.58 15.714-35.688 48.75 0.89286 33.036 7.6696 31.263 22.312 38.406 14.643 7.1428 26.062 11.254 41.062 6.9688 11.222-3.2063 73.096-51.264 103.56-75.281-0.62111-3.0922-1.2423-6.1917-1.875-9.2812-2.3455-13.961-6.9411-30.166 2.375-42.625 5.9746-5.7514 4.2726-14.46 3.5938-21.75-4.7738-30.062-12.217-59.639-17.656-89.594-0.0764-4.0284-2.8271-10.006-2.5938-13.812zm-3.7188 48.156c1.7058 0.0149 3.3876 0.58884 4.9062 1.3438 6.7701 3.0107 8.2777 12.424 3.0938 17.625 6.529 1.8688 7.073 12.724 1 15.812-4.2736 2.4263-9.363 0.82234-13.188-1.4688-3.3757 2.9998-8.1619 3.1232-12.406 1.75-5.1582-0.10054-8.8317-5.1903-7-10.094 1.0659-4.8946 0.80645-13.529 7.8125-13.688 2.1389 0.27883 5.8567 0.43626 4.5625-2.6875 1.1993-4.4421 6.1684-7.584 10.5-8.5625 0.24491-0.0217 0.47507-0.0334 0.71875-0.0312z" style="fill:url(#by)"/><path d="m388.78 241.09s-72.979 61.358-71.969 75.5c0.27882 3.9035 0.25462 10.217 0.0312 17.75 2.232-0.0166 4.9266 0.67647 6.9062 1.0312 4.3723 0.30363 3.5762 6.0244 7.3438 7.0938 5.328-1.1436 10.04 4.192 9.0625 9.4062-0.92292 3.7065-1.6634 11.103-7.2812 9.2812-0.23384 0.78141-0.28559 3.8651-2.1562 4.7188-4.2892 5.6963-13.066 2.0379-14.688-4.0938-0.16046-0.0141-0.33745-0.0104-0.5 0-0.36375 6.134-0.76241 12.39-1.1875 18.562 1.5426-0.46418 3.0676-0.98493 4.5625-1.5938 0.42154-0.1088 0.85439-0.0392 1.2812-0.0625 5.9903-0.50206 6.308 6.5646 9.7188 9.7188 3.6174-0.49474 8.5587-0.6877 10.594 3.4062 2.9212 5.8548-2.6694 11.352-7.6875 13.438-2.6351 1.3311-2.2626 3.7542-0.96875 5.875 0.29165 5.5277-7.3353 6.0094-11.406 6.5-3.4963 0.59527-6.563-0.47698-9.0625-2.4375-3.4066 24.512-10.719 42.312-10.719 42.312s-1.642 1.6375 3.1562 9.7188c0.11917 0.2007 0.29828 0.43955 0.4375 0.65625 1.7824-3.3722 3.8662-6.5688 7.5-7.7812 1.7183-0.20859 3.4227 0.25423 4.875 1.1562 2.8749 3.6086 9.0608 1.3346 10.906 6.1562-0.14421 3.0804 2.8496 3.482 4.5938 5.375 3.8707 4.7323 2.3383 12.061-3.0938 14.844 0.05 2.6649 4.8571 4.744 3.0312 8.0938-0.0392 0.0539-0.085 0.10295-0.125 0.15625 1.2444 0.80754 2.2615 1.3351 2.9375 1.4062 4.7982 0.50507 9.0776-2.7633 16.906-13.875 3.3189-4.7107 11.461-17.298 19.625-30-0.46027-0.69243-1.052-1.2713-1.9688-1.4688-4.9931-0.8265-7.9292-8.7452-3.5938-11.844 2.3766-3.1727 2.2231-9.1823 7.3438-10.031 2.874 0.0254 4.6306-2.139 7.0938-2.9375 2.4098-0.10914 4.773 0.61121 6.7812 1.9062 3.8908-6.1108 6.6562-10.531 6.6562-10.531s-5.5521-25.468-7.9062-46.031c-3.3923 4.6074-9.9031 8.8043-14.844 4.625-1.6811-4.327-6.4396-3.7683-10.219-3.1875-5.7615 1.4929-11.134-3.13-11.406-8.8125-0.48025-7.0381 5.4615-15.201 12.906-15 3.7277-0.86978 6.5568-5.1045 10.906-3.3125 5.9082 1.4043 6.2793-5.8964 9.7812-8.9688-0.80957-12.762-1.3438-25.563-1.3438-36.75 0-20.456 7.1875-59.969 7.1875-59.969zm-19.875 53.188c1.2493 5.4207-0.32654 12.106 2.9062 16.812 4.0067 2.9498 4.286 8.121 2.5625 12.438 2.7005 2.6207 3.1964 7.502-0.9375 9.3125-6.7987 4.8858-15.299-3.1964-16.469-10 0.37942-8.0071 6.0519-14.772 8.7812-22.156l3.1562-6.4062zm-11.906 86.812c4.0808 0.0595 6.8503 2.9062 7.9062 7.0625 1.216 5.0828 6.7902 1.6203 10.062 3.7188 5.2759 3.6126 5.2483 12.597 1.4688 17.281-0.81404 1.9799-5.0266 0.96579-4.75 3.25 2.3284 7.3658-8.6746 10.563-13.281 6.25-5.1842-6.1225-12.36-14.067-9.5312-22.688 0.16672-2.3391 4.8178-2.8048 3.3438-4.6875-4.1245-3.0225-2.1908-9.9758 3-10.031 0.31501-0.0521 0.63511-0.1024 0.9375-0.125 0.28349-0.0212 0.57169-0.0352 0.84375-0.0312zm-12.406 39.031c8.7371 0.37182 7.0725 10.586 7.6875 16.5 2.3015 4.9028 5.5967 11.885 0.34375 16.156-2.436 2.4794-8.7039 5.9392-10.125 0.71875-3.1814 1.0953-6.6736 2.7989-10.281 2.2812-6.0317 0.50659-7.7484-6.032-7.875-10.781-3.1866-0.38533-7.907-3.3237-5.6562-7.125 3.1783-1.4367 1.2444-5.2461 3.375-7.5938 3.1245-4.4716 8.5896-11.183 14.75-8.5625 2.8569 3.6999 4.6957-1.4202 7.7812-1.5938z" style="fill:url(#bz)"/><path d="m367.56 301.56s-7.4586 15.152-8.4688 18.688c-1.0102 3.5355 1.7744 7.8484 5.5625 10.5s5.8158 1.9916 8.5938-0.28125c2.7779-2.2728 0.76142-3.641-0.375-5.1562-1.1364-1.5152-0.13135-3.532 0.5-6.5625 0.63134-3.0305-2.0148-5.201-3.6562-6.9688-1.6415-1.7678-2.1562-10.219-2.1562-10.219zm-50.812 34.875c-0.23334 6.9575-0.61105 14.801-1.0938 23.125 0.44861-0.0638 0.84847-0.0483 1.1562 0.0937 1.6415 0.75761 0.36564 2.782 4.4062 5.8125s6.8234 0.36533 8.8438-1.7812c2.0203-2.1466-1.5152-3.9223 0-5.4375s1.0021 0.52491 3.9062 1.1562c2.9042 0.63135 2.9261-3.8095 4.0625-7.2188s-1.9045-8.3188-5.1875-7.6875c-3.283 0.63135-6.3062-2.157-6.9375-5.1875-0.4956-2.3789-6.5183-2.7979-9.1562-2.875zm66.375 4.25c-1.9237 2.5315-2.6528 5.7287-4.9375 7.2188-2.9042 1.894-5.6934 0.49873-8.2188 0.625s-4.4307 3.91-8.2188 3.5312c-3.7881-0.37881-7.5734 3.8031-9.5938 7.8438-2.0203 4.0406-0.37547 9.481 2.7812 11.375 3.1567 1.894 9.9932-0.63896 13.781 0.75s2.2503 5.7939 8.4375 4.5312c3.22-0.65715 6.1918-4.0086 8.3125-7.2188-0.0279-0.27852-0.0673-0.56783-0.0937-0.84375-0.83246-8.6888-1.6093-18.21-2.25-27.812zm-62.938 40c-1.0343-4e-3 -2.1306 0.24429-3.125 0.8125-0.64999 0.37142-1.688 0.72118-2.875 1.0625-0.54562 7.729-1.1109 15.258-1.6562 22.031-0.22707 2.8205-0.53526 5.5633-0.875 8.25 0.77924 0.8466 1.5683 1.5234 2.375 1.875 4.9245 2.1466 12.632 0.23524 15.031-1.4062 2.3991-1.6415-1.0064-3.9172-0.375-5.9375 0.63134-2.0203 2.7782-4.046 6.1875-5.6875s6.0592-6.8146 3.2812-9.7188-4.8146-1.6275-7.7188-1.375-5.5536-6.326-6.4375-8.0938c-0.55242-1.1048-2.0886-1.8051-3.8125-1.8125zm35.312 2.5312c-1.3366 0.0796-2.6954 0.60068-3.4688 2.4375-1.0102 2.3991 3.0325 4.7909 2.9062 6.9375-0.12627 2.1466-4.2762 1.1342-4.7812 6.4375-0.50508 5.3033 4.652 12.268 8.1875 16.688 3.5355 4.4194 7.5996 2.7627 10.125 1.5s0.8712-3.5371 1.25-6.0625c0.37881-2.5254 2.9134-1.2597 5.3125-3.4062 2.3991-2.1466 2.5178-9.092 0.75-12.375s-6.1972-2.1237-8.3438-2.25c-2.1466-0.12626-3.5148-2.0219-5.1562-6.0625s-3.4389-3.6476-5.5625-3.8125c-0.20751-0.0161-0.44067-0.0271-0.65625-0.0312-0.18863-4e-3 -0.37155-0.0114-0.5625 0zm-10.125 38.875c-0.19075-0.0142-0.38247 6e-3 -0.5625 0.0312-2.1604 0.30778-3.6372 3.2519-5.5312 3.0625-2.5254-0.25254-3.6482-3.5516-7.5625-1.5312-3.9143 2.0203-9.3463 7.7119-9.0938 11.5 0.25254 3.7881-3.0376 2.5358-2.4062 5.1875 0.63134 2.6516 5.81 2.0135 6.0625 3.7812 0.25254 1.7678 0.10189 3.8464 0.75 5.1875 1.1907 2.4639 0.0131 4.2659 6.4375 4.5312 5.0508 0 8.076-3.0376 9.8438-2.4062 1.7678 0.63135 0.40451 3.9202 3.6875 2.5312 3.283-1.389 7.1951-4.0493 6.4375-8.4688-0.75761-4.4194-3.1537-6.4294-3.4062-10.344-0.25254-3.9143 0.88055-9.4721-2.7812-12.25-0.68659-0.52086-1.3027-0.76997-1.875-0.8125zm35.406 7c-2.0006 0.11246-1.981 1.7774-3.875 2.1562-2.5254 0.50508-6.0523 0.86818-7.0625 4.6562-1.0102 3.7881-2.0186 5.81-3.2812 6.0625-1.2627 0.25254-1.0266 6.2086 1.625 7.2188 1.4343 0.54639 3.0743 1.4303 4.3125 2.5625 4.9962-7.7836 9.5723-14.992 13.438-21.062-0.67826-0.42613-1.4474-0.80245-2.3438-1.0938-1.2627-0.41037-2.1456-0.53749-2.8125-0.5zm-68.531 32.969c-2.3496 0.0758-4.7891 4.1878-6.7188 7.7188 5.3719 7.2737 17.575 19.663 24.75 24.969 0.63664-2.0533-2.3756-3.6354-3.125-5.5625-0.88389-2.2728 0.25333-3.0097 3.0312-5.1562 2.7779-2.1466 2.5165-6.3146 0.875-9.2188s-4.6524-2.1558-5.0312-5.3125c-0.37881-3.1567-3.0333-3.7787-5.9375-4.0312s-3.9294-3.5325-7.8438-3.4062z" style="fill:url(#ca)"/><path d="m399.59 409.59c-3.2862-0.0493-5.875 0.3125-5.875 0.3125s3.7754 8.5946 1.25 11.625c-2.5254 3.0305-32.819 51.131-38.375 59.844-5.5558 8.7126-12.643 17.55-20.219 18.812-7.5761 1.2627-24.49-15.786-34.844-30.812s-7.0625-33.469-7.0625-33.469l4.5312 18.312 8.9688-37.625s-8.3461-0.94655-17.438 9.2812c-9.0914 10.228-10.098 27.666-9.6562 32.906 0.44195 5.2402 4.0638 8.1215 3.9375 14.688-0.12626 6.566 3.7226 13.474 3.3438 19.219-0.37881 5.7452-4.3041 23.288-2.0312 38.188s19.699 47.994 12.375 73.5c-5.7792 20.128-24.286 55.364-31.967 69.988 3.3077-0.71888 8.7059-0.66584 12.11-0.32276 10.075 1.0153 11.228 13.119 13.545 21.272 1.8043 6.3492 8.2915 6.6568 13.5 6.8438 9.4426 0.33898 17.076 5.9833 23.312 12.562 6.7316 7.1012 18.374 1.911 24.822-3.5414 4.9357-4.1738 12.241 1.1536 16.022 0.44765 4.791-0.89447 9.4115-6.0416 23.969-5.4688 9.5845 0.37716 12.262 5.2204 18.812 4.6875 5.509-0.44816 8.0074-5.6621 11.688-9.1875 7.4875-7.1727 19.613-6.293 28.969-10.406 4.6129-2.028 14.247-2.6128 13.062-9.375-1.248-7.1271 4.1933-12.753 10.562-14.219 6.4084-1.4749 10.598-3.272 15.422-8.7137 2.5089-2.8299 4.2142-7.38 6.4451-9.6141-1.5277-1.5346-32.26-31.75-43.586-51.266-11.607-20-21.795-53.388-22.688-64.281-0.41859-5.1069 0.0134-10.12 0.5625-14.062-0.85847-0.56871-1.687-1.2684-2.5625-1.25-6.2042 0.13015-13.66-1.2102-16.719-7.25-2.067-4.0816-0.94472-13.395-6.9688-13.312-7.3868 0.10165-12.048-7.5836-10.375-13.719 0.79464-2.914-0.66784-2.7991-1.8438-4.7188-3.049-4.9774 0.58632-9.9243 0.773-14.691 0.18866-4.817-3.9538-10.192 0.5-14.344 5.208-4.8549 10.218-10.283 13.414-16.778 4.123-8.3788 10.536-16.76 19.25-20.469l-1.375-0.5s-15.883-1.1436-21.312-2.4062c-2.0361-0.47351-4.2783-0.65791-6.25-0.6875z" style="fill:url(#cb)"/><path d="m435.63 431.62s5.8084-1.2627 7.955-4.1669-0.75762-8.2075-0.75762-8.2075 1.0102 4.9245-2.2728 6.6923-6.3134-1.0102-9.0914 2.9042-6.4397 14.395-12.248 18.309c-5.8084 3.9143-8.46 1.0102-9.5964 4.2931-1.1364 3.283 3.6618 5.5558 2.1466 10.354s-5.4296 9.0914-3.283 12.501c2.1466 3.4093 6.566 5.0508 6.9448 7.1973 0.3788 2.1466-2.7779 6.8185-0.88389 8.8388 1.894 2.0203 16.668 8.46 19.824 12.627 3.1567 4.1669 11.112 8.8388 8.9651 12.248-2.1466 3.4093-3.1567 6.9448-5.5558 5.3033s-5.6821-4.7982-9.9752-4.1669c-4.2932 0.63134-11.49-2.6517-12.501-6.8185-1.0102-4.1669-2.1466-11.49-5.6821-13.006s-7.1973 0.63135-9.5964-4.2932c-2.3991-4.9245-2.0203-8.7126-0.25254-11.238 1.7678-2.5254-2.0203 0.12627-3.0305-1.7678-1.0102-1.894-2.2728-4.2932-0.63134-7.7024 1.6415-3.4093 2.2728-5.0508 2.0203-7.955-0.25253-2.9042-3.1567-6.566-0.88388-10.228s7.8287-6.8185 10.733-13.006c2.9042-6.1872 11.112-19.445 15.657-21.971 4.5457-2.5254 6.6923-4.9245 13.637-5.0508 6.9448-0.12627 8.3338-6.8185 11.238-4.9245s8.7126 7.8287 6.1872 13.132-10.859 10.733-10.859 10.733z" style="fill:url(#cc)"/><path d="m489.67 665.73c6.2569-4.2627 8.5863-12.627 15.152-16.92s18.688-8.3338 22.476-2.5254c3.7881 5.8084 5.3033 15.91-0.25254 18.435s-15.152 8.5863-16.92 15.405c-1.7678 6.8185-13.132 14.395-22.476 16.415-9.3439 2.0203-17.425 11.112-23.739 16.668s-20.708 10.859-35.608 10.607c-14.9-0.25254-21.971 4.2931-27.779 3.5355-5.8084-0.75761-15.152 6.3134-27.779 7.5761s-19.445-4.5457-23.739-3.7881c-4.2932 0.75762-15.657 9.849-27.779 5.3033s-18.94-18.435-18.94-18.435l0.75762 6.0609s-11.112 0.50508-17.93-12.879-4.2932-13.132-10.859-13.637-20.961 11.364-26.264 3.7881c-5.3033-7.5761-6.8185-12.879 3.0305-17.678 9.849-4.7982 23.486-10.354 30.81-4.5457 7.3236 5.8084 6.8185 20.456 13.385 23.234s16.92 0.25254 25.001 7.0711 10.859 12.374 20.708 10.859c9.849-1.5152 12.879-9.0914 19.698-8.3338 6.8185 0.75762 8.0812 3.283 13.132 0.25254 5.0508-3.0305 18.688-5.8084 27.022-2.7779 8.3338 3.0305 9.3439 5.3033 16.92 1.7678s4.5457-7.8287 12.627-10.859 32.83-8.5863 36.618-13.132c3.7881-4.5457-2.0203-10.102 5.0508-14.9 7.0711-4.7982 12.483-3.0268 17.678-6.566z" style="fill:url(#cd)"/><path d="m484.72 422.09c-15.48 5.0424-29.589 9.6962-31.875 10.625-2.0886 0.84848-4.1182 1.3631-6.125 1.6562-2.4468 2.5957-4.8801 5.7547-4.0312 7.5938 1.5152 3.283 8.8385 8.2142 18.688 5.5625 9.849-2.6516 12.904-0.38721 16.188-2.2812 3.283-1.894 1.8902-5.7871 0.375-8.3125s-2.7952-5.1959-1.4062-7.4688c1.389-2.2728 6.1997-0.61945 8.0938-4.2812 0.54008-1.0442 0.47751-2.1031 0.0937-3.0938zm23.375 7.4688c-0.54873 0.0121-1.1186 0.0616-1.75 0.15625-5.0508 0.75762-9.7137 7.4459-10.219 9.7188-0.50507 2.2728 3.1461 2.2871 4.1562 4.8125s-2.0241 4.421 0.375 6.0625 6.4358 1.7665 9.7188 0.125 6.5582-1.0194 10.094-5.3125c3.5355-4.2932 3.4236-6.6511 1.6562-9.8438-0.8756-1.5817-1.7782-2.3974-5.1875-3.2812-2.9831-0.7734-5.0027-2.5221-8.8438-2.4375zm-91.344 21.156c-1.144 0.3757-2.3782 0.72661-3.7812 1-3.0584 0.59596 2.3562 5.83 1.6875 9.5312-0.78686 4.355-7.0326 9.634-2.6875 13.344 2.0877 1.7824 4.9499 3.8467 5.9375 6.3125 2.765-1.5303 6.9484-3.9906 7.625-5.3438 1.0102-2.0203-0.74746-4.6545-1-7.9375s8.8176-6.7107 8.3125-10.625c-0.50508-3.9143-6.5519-3.6524-10.719-4.0312-1.7854-0.16231-3.6902-1.1492-5.375-2.25zm65.156 14.625c-1.386-0.0234-3.1394 0.82891-6.375 0.75-5.177-0.12627-6.9332 1.7541-10.469 7.5625-2.181 3.5831-1.8404 9.8504-1.2188 14.375 3.8812-1.5986 8.2226-3.3226 13.469-5.3125 5.3994-2.048 12.762-4.6407 20.719-7.375-0.0831-0.0473-0.20406-0.11468-0.28125-0.15625-3.283-1.7678-1.886-4.7985-3.9062-6.1875-2.0203-1.389-5.9497 3.4164-7.8438 2.4062-1.894-1.0102 0.39657-1.9096-1.75-4.6875-0.80497-1.0417-1.5122-1.3609-2.3438-1.375z" style="fill:#977403"/><path d="m601.16 383.7s20.357-1.6964 34.732 3.6607c0 0 5.8036-4.8214 15.536-11.339 0 0-19.464 0.80356-50.268 7.6786z" style="fill:url(#ce)"/><path d="m651.16 418.88s6.9643-6.6964 24.464-12.411c17.5-5.7143 36.696-14.732 36.696-14.732s5.625 2.1429 4.375 8.5714-10.804 13.125-16.786 14.375-16.001-0.35136-25.625 0.44643c-7.0961 0.58824-17.08 2.5184-23.125 3.75z" style="fill:url(#cf)"/><path d="m467.94 712.22c-3.0223 2.6411-6.1298 5.1314-9.5938 7.0625-0.15587 2.0016-0.23949 3.8377-0.125 4.9062 0.37881 3.5355 4.2947 5.0524 6.0625 6.0625 1.7678 1.0102 2.3948-2.5312 3.5312-2.5312 0.62167 0 2.1916 1.1872 3.6562 1.8125-1.0712-5.242-3.0857-15.132-3.5312-17.312zm-18.594 10.625c-7.0414 2.4442-14.429 2.6217-21.812 2.9375-0.73503 2.7229-1.2974 5.8747-0.75 8.125 1.1364 4.672 0.26808 8.7061 4.6875 9.9688s8.2022-1.6229 9.8438 1.2812c1.6415 2.9042-1.0152 8.4535 0.5 9.9688 1.5152 1.5152 5.4299 0.12801 6.1875-3.2812 0.75761-3.4093 1.0266-14.285-1.625-17.062s1.7449-5.0333 2.25-7.9375c0.19349-1.1126 0.53241-2.5205 0.71875-4zm13.062 19.781c-1.1206 0-2.333 0.69781-3.4062 2.7812-2.1466 4.1669-4.5465 6.9408-3.0312 9.7188 1.5152 2.7779 4.7965 6.5696 3.2812 8.9688s-7.4438 2.1558-6.8125 5.3125c0.63135 3.1567 1.7617 8.8222 6.8125 10.969 5.0508 2.1466 6.6781 3.8041 10.719 1.5312 4.0406-2.2728 3.0371-5.076 5.5625-6.8438 1.8278-1.2794 3.2657-1.4874 5.0625-0.9375-2.4713-12.094-3.3994-16.587-5.7188-27.938-1.0998-0.87322-2.1399-1.4136-3-1.2812-3.283 0.50508-5.4248 0.48271-6.6875-0.90625-0.63135-0.69448-1.6606-1.375-2.7812-1.375zm-60.875 2.0312c1.7114 8.684 3.5954 18.163 5.5312 27.781 2.678 1.9018 5.7847 3.3657 9.25 2.4375 3.5355-0.94701 5.315-6.5658 5.0625-9.3438s2.9413-6.0608 2.5625-9.3438c-0.37881-3.283-2.5836-2.1486-3.5938-2.9062-1.0102-0.75761 0.81694-1.3885 0.375-3.1562-0.44194-1.7678-4.2227-2.9024-6.9375-3.2812-2.7148-0.37881-7.5116 1.0089-9.4688 0.125-1.1439-0.51661-1.8936-1.5427-2.7812-2.3125zm35.938 45c-1.0503 0.0194-2.3572 0.64574-4.125 2.4688-4.0406 4.1669-7.4274 1.8982-8.4375 5.8125-1.0102 3.9143-4.7944 8.8209-0.375 11.094 4.4194 2.2728 0.76203 6.8124 2.375 7.8438 5.02 3.2098 12.377 1.2665 18.438-0.375 6.0609-1.6415 12.494-1.1596 13.125-3.9375 0.63134-2.7779 5.5587-0.7546 5.9375-3.4062s3.2957-6.1832-1.25-9.7188c-4.5457-3.5355-8.5903-7.0516-15.156-5.0312-6.566 2.0203-5.671-2.0198-7.3125-3.1562-0.92334-0.63924-1.8684-1.6187-3.2188-1.5938z" style="fill:url(#cg)"/><path d="m393.78 730.78c-8.5169 3.7872-17.956 6.6781-27.25 6.2188-2.2576 3.1713-4.2551 6.7559-3.75 9.2812 1.0102 5.0508 1.2432 8.0938 5.0312 8.0938s3.6647-2.5427 5.9375-1.4062c2.2728 1.1364 2.7752 5.6837 9.5938 6.0625 6.8185 0.3788 10.107 1.2644 11.875-3.2812 1.7678-4.5457 3.2805-10.22 0.25-13.25-3.0304-3.0305-3.9228-6.1984-2.2812-8.2188 0.71261-0.87706 0.90744-2.1965 0.59375-3.5zm-46.656 25.188c-0.96102 0.0103-2.0914 0.27364-3.1875 0.625 0.68827 8.4756 1.0353 18.505 0.53125 29.594-0.215 4.7299-0.49372 8.9362-0.84375 12.781 3.8337 0.80965 9.6099-0.47144 10.562-1.7812 1.0102-1.389-0.13721-2.2947-2.0312-4.0625-1.894-1.7678-0.25254-6.0422 0-8.0625s3.6761-2.0384 4.8125-4.4375-1.0249-4.1634-1.6562-6.5625c-0.63135-2.3991 1.4024-5.062 1.7812-8.2188 0.3788-3.1567-0.88722-4.3948-2.7812-5.5312-1.894-1.1364-3.4058-3.9337-6.5625-4.3125-0.1973-0.0237-0.40998-0.0336-0.625-0.0312zm45.812 24.031c-2.6253-0.0113-4.7044 1.7546-7.6875 4.4062-3.4093 3.0305 0.36787 2.6583-2.0312 5.5625-2.3991 2.9042-2.1431 0.7749-6.5625 1.4062-4.4194 0.63134-3.7973 5.0552-5.3125 12s2.4066 7.1761 8.5938 8.3125 5.9396-2.28 8.8438-2.4062c2.9042-0.12627 3.0392 2.9088 8.4688 2.6562 5.4296-0.25254 7.3176-3.513 6.8125-8.4375-0.50508-4.9245-4.3049-3.4134-5.0625-5.8125-0.75762-2.3991 3.2825-3.9205 3.1562-8.7188-0.12626-4.7982-4.1415-8.0938-8.0625-8.8438-0.40214-0.0769-0.78121-0.12338-1.1562-0.125z" style="fill:url(#ch)"/><path d="m456.61 596.2 13.929 19.464s15.446-7.8571 18.661-15.625c3.2143-7.7679 7.7679-20.804 12.321-25.357s15.982-14.018 15.982-14.018l-0.35714-3.3036s-16.339 2.8571-25.089 15.446c-8.75 12.589-14.018 16.161-19.643 19.911s-9.9107 5.9822-15.804 3.4822z" style="fill:url(#ci)"/><path d="m512.9 556.19 3.9775-0.37881s4.9293-8.2138 12.161-7.0531c0 0-11.918 4.6846-9.7082 11.124 2.9531 7.2206 13.978 5.5984 18.949 2.0528-4.7321 6.9643-15.72 4.2932-15.72 4.2932s1.1217 4.0279 13.89 2.7779c-3.125 1.6964-11.806 3.0936-14.9-0.63135s-3.6663-5.6036-3.6663-5.6036l-3.9098 3.7096s3.7881 9.9121 12.311 11.049 25.608-2.3026 31.82-7.1342c4.5457-3.5355 8.2075-7.0711 9.7227-12.816-4.1037 4.9876-10.607 6.9448-10.607 6.9448s8.902-7.1973 9.5333-10.607c-4.1669 2.5254-9.407 2.4622-9.407 2.4622s14.9-9.3439 23.423-31.315c-12.374 10.543-22.918 12.185-22.918 12.185s12.185-4.8614 17.804-23.675c-7.955 9.0282-15.657 14.963-21.466 15.089-5.8084 0.12627-15.91-2.841-24.117 0.25254s-17.173 9.0914-20.014 16.162c-2.841 7.0711 2.8411 11.112 2.8411 11.112z" style="fill:#977403"/><path d="m495.36 928.79c4.1558 7.5512 13.214 17.5 17.857 34.286 4.6428 16.786 7.1428 44.286 2.5 55-4.6429 10.714-35 17.857-46.429 11.428-11.429-6.4285-24.643-8.5714-31.071-33.214-6.4286-24.643-24.286-100.71-22.857-112.5 1.4286-11.786 9.0152-21.992 16.071-21.071 8.2143 1.0714 24.286-3.2143 32.857 10.714 8.5714 13.929 17.385 30.488 31.071 55.357z" style="fill:url(#cj)"/><path d="m298.5 979.63c-13.289 0.13827-42.174-10.354-45.457-18.688-4.3622-11.073-7.0711-30.81-0.75762-41.669 7.8584-13.517 24.244-28.032 38.891-32.072s48.992-8.8388 57.326-2.0203 14.142 16.668 13.385 28.032-11.364 38.891-20.708 45.457-26.792 20.795-42.679 20.961z" style="fill:url(#ck)"/><path d="m242.69 956.65s-37.881-11.112-36.618-35.608 39.143-40.659 50.255-45.457c11.112-4.7982 2.2728 22.728 2.2728 22.728s-15.405 12.627-17.173 30.052 1.2627 28.284 1.2627 28.284z" style="fill:url(#cl)"/><path d="m561.14 372.02s-0.25254-10.354-6.1872-15.026c-5.9346-4.672-13.006-7.955-13.006-10.48s12.753-14.647 21.971-14.142c9.2176 0.50507 24.244 5.9346 26.264 13.89 2.0203 7.955-4.4194 31.062-4.4194 31.062z" style="fill:url(#cm)"/><path d="m636.4 394.25c15.338-12.354 39.143-31.567 46.088-32.451 6.9448-0.88389 20.329-3.7881 27.274 4.0406s6.0609 15.784 2.6516 18.94c-3.4093 3.1567-50.76 19.698-57.452 25.001s-24.496 8.8388-29.547 2.6516c-5.0508-6.1872 5.4705-13.741 10.985-18.183z" style="fill:url(#cn)"/><path d="m323.56 570.22s-32.125 110.36-29.625 117.5c2.5 7.1428 6.4062 11.799 11.406 9.6562 5-2.1428 18.219-127.16 18.219-127.16zm21.781 10s-25.692 115-21.406 122.5c4.2857 7.5 7.4821 12.496 12.125 11.781s12.138-8.2009 16.781-7.8438c4.6429 0.35714-7.5-126.44-7.5-126.44zm51.812 0.71875s38.196 96.42 47.125 101.06c8.9286 4.6429 12.491 8.2232 16.062 3.9375 3.5714-4.2857-11.781-34.281-11.781-34.281l-51.406-70.719zm26.062 1.4375s47.491 80.692 56.062 78.906c8.5714-1.7857 10.371-4.6295 9.6562-7.8438-0.71428-3.2143-65.719-71.062-65.719-71.062zm-52.156 0.34375s18.933 115.7 28.219 120.34c9.2857 4.6429 10.362 6.0714 15.719 2.5s9.2902-4.6339 8.2188-11.062c-1.0714-6.4286-52.156-111.78-52.156-111.78z" style="fill:url(#co)"/><path d="m396.69 729.84c-0.32742 0.0694-0.64636 0.1313-0.96875 0.21875 1.4053 2.9429-1.9888 5.2162-1.0312 7.9688 2.9586 3.5391 5.837 7.774 4.1562 12.688-0.58269 5.2715-3.7976 11.699-10.062 10.656-6.0439 0.38197-12.611-0.96201-15.844-6.5625-3.4365 2.5483-10.047 2.1154-11-3.0625-2.5666-5.3859-0.75207-10.46 2.2188-14.969-3.285-0.37139-6.5461-1.1636-9.7188-2.5312-4.6082-2.7045-8.7676 0.3069-13.031 2.375 0.78042 4.4246 1.6769 10.594 2.3438 18 1.0155-0.24918 1.9978-0.44756 2.875-0.625 0.19278-0.0187 0.37337-0.0296 0.5625-0.0312 2.837-0.0248 5.2689 1.809 7.125 3.8125 6.4594 2.6562 5.0159 10.195 2.875 15.25 1.4729 3.2829 3.7069 7.9603-0.1875 10.625-3.5244 0.82905-3.7494 4.4883-3.6562 7.5 2.1068 1.9033 5.1786 5.9616 1.3438 8.1875-3.103 1.3163-7.7779 2.7436-11.281 1.625-2.1742 21.713-6.2571 29.441-8.7812 33.438-3.0305 4.7982-49.777 28.291-72 36.625-22.223 8.3338-54.277 21.464-57.812 43.688-3.5355 22.223 8.0725 28.54 16.406 33.844s24.75 12.625 24.75 12.625-5.6161-21.853-0.4375-38.281c5.1786-16.429 15.906-25 15.906-25s0.80357-9.3929 5-15.375c-1.7857 9.1071-1.5312 12.875-1.5312 12.875s9.1875-7.6116 16.688-7.3438c0 0-36.58 15.714-35.688 48.75 0.89286 33.036 7.6696 31.263 22.312 38.406 14.643 7.1428 26.062 11.254 41.062 6.9688 11.222-3.2063 73.096-51.264 103.56-75.281-0.62111-3.0922-1.2423-6.1917-1.875-9.2812-2.3455-13.961-6.9411-30.166 2.375-42.625 5.9746-5.7514 4.2726-14.46 3.5938-21.75-4.7738-30.062-12.217-59.639-17.656-89.594-0.0764-4.0284-2.8271-10.006-2.5938-13.812zm-3.7188 48.156c1.7058 0.0149 3.3876 0.58884 4.9062 1.3438 6.7701 3.0107 8.2777 12.424 3.0938 17.625 6.529 1.8688 7.073 12.724 1 15.812-4.2736 2.4263-9.363 0.82234-13.188-1.4688-3.3757 2.9998-8.1619 3.1232-12.406 1.75-5.1582-0.10054-8.8317-5.1903-7-10.094 1.0659-4.8946 0.80645-13.529 7.8125-13.688 2.1389 0.27883 5.8567 0.43626 4.5625-2.6875 1.1993-4.4421 6.1684-7.584 10.5-8.5625 0.24491-0.0217 0.47507-0.0334 0.71875-0.0312z" style="fill:url(#bj)"/></g><g transform="matrix(1.0175,0,0,1.0175,-6.4375,-19.357)"><path d="m234.1 185.27s2.5254-13.385 4.4194-37.628c0 0-7.7024 3.0305-15.026 1.389s-28.158-13.763-31.567-42.553c-3.4093-28.789 7.2066-34.232 12.501-34.724 7.8315-0.72776 15.91 7.5761 21.213 16.415s30.936 9.4702 30.936 9.4702 10.291-12.185 18.372-16.226l-6.7554-20.519c-3.6618 0.75762-13.854 1.2355-16.92-7.1973-3.0305-8.3338 0.75761-22.981 19.572-27.905 17.92-4.6904 26.571 3.4466 28.663 9.7227 2.1466 6.4397 0.63135 15.657-8.9651 20.834l6.8185 16.541s12.374-3.4093 29.673-0.50508c17.299 2.9042 34.219 11.996 34.219 11.996l16.415-14.521s-6.6923-8.8388-1.1364-16.415 18.687-10.903 30.936-1.7678c11.024 8.2212 12.346 22.683 9.2176 31.062-3.5355 9.4702-12.627 9.7227-22.223 5.0508l-16.036 13.89 3.4093 9.9753s3.4093-1.2627 6.1872-0.63135 15.566 5.0238 26.769 3.1567c18.94-3.1567 31.062-14.521 41.669-23.739 10.607-9.2176 17.804 3.4093 19.193 7.955s5.1747 20.554-5.8084 39.648c-11.792 20.5-29.547 25.759-46.72 25.506s-24.37-3.4093-24.37-3.4093 3.5355 14.9 0.50508 41.669c0 0 7.5761 6.4397 8.46 23.107 0.88389 16.668-9.7227 36.366-16.92 46.846s-10.733 31.188-17.551 44.447-17.551 29.8-44.068 34.471c-26.516 4.672-56.695-20.582-56.695-20.582s-18.183 6.566-53.791-1.1364-65.029-30.305-65.912-60.357c-0.88388-30.052 9.2176-56.821 31.694-71.847s49.624-11.49 49.624-11.49z" style="fill:#a80"/><path d="m321.07 248.43c-7.8091-19.088-8.5714-45-63.929-56.786-55.357-11.786-80.357 12.857-88.571 25.357-8.2143 12.5-22.5 50.714-3.5714 76.071 18.929 25.357 52.5 39.643 95.357 35.357 42.857-4.2857 63.6-23.044 66.786-29.643 5-10.357-0.86884-37.64-6.0714-50.357z" style="fill:#ffdd81"/><path d="m237.5 185.72c11.112 0.50508 31.079 4.6323 40.714 8.9682 10.714 4.8214 19.107 9.4643 22.679 14.643s6.6071 13.214 6.6071 13.214-20 70.179-15.536 76.786c4.4643 6.6071 6.9643 20.893 24.286 10 17.321-10.893 26.786-18.393 34.286-41.786s7.3214-30.893 7.3214-30.893c-6.6071-1.0714-18.393 8.3928-18.393 8.3928s6.6071-14.464 21.607-13.214 13.929 12.857 13.929 12.857-6.4286-7.6786-11.071-7.3214c0 0 0.35715 65.893-14.643 85.893-15 20-23.571 22.321-34.821 18.929s-22.5-16.607-22.5-16.607l-14.107 3.5714s20.357 20.714 46.964 19.464 43.571-24.286 49.107-41.071c5.5357-16.786 6.9643-25 12.857-34.107 5.8928-9.1071 16.429-21.25 18.036-39.821s-5.5357-34.643-20.893-40.714c-15.357-6.0714-24.464-4.2857-24.464-4.2857-0.50508-13.385 5.407-76.586-20-85.714-20.033-7.1975-29.821 1.7857-36.964 9.8214-7.1429 8.0357-14.286 19.464-14.286 19.464s-1.9643-26.429-13.393-30.357c-11.429-3.9286-21.786 6.7857-25.893 12.5-4.1071 5.7143-6.4286 18.929-7.5 33.036s-3.9286 38.353-3.9286 38.353z" style="fill:url(#cw)"/><path d="m248.21 187.9s-1.9643-15-0.17858-31.071c1.7857-16.071 6.6072-30.714 6.6072-30.714s-8.5444-1.1963-9.1758-10.477c3.3461 6.566 7.8918 7.1342 7.8918 7.1342s-3.4724-4.3563-1.7678-12.248c1.389 10.102 7.2605 11.932 7.2605 11.932s-2.9673-9.7858 0.75761-15.594c-0.1894 11.554 3.9775 12.248 3.9775 12.248 10.859-1.0733 11.932 15.784 11.175 40.027-0.75761 24.244-4.7982 33.335-4.7982 33.335z" style="fill:#540"/><path d="m294.9 203.9s4.8614 1.9572 19.635 0.82075c-2.0203 2.2728-3.0304 5.3033-3.0304 5.3033l3.7249 2.841s2.1466-6.8817 13.385-13.7c10.632-6.4509 18.688-6.124 18.688-6.124s-4.23-2.7148-12.438-0.56821c0 0 2.2773-15.465 1.7416-30.286-0.53571-14.821-4.1071-27.143-4.1071-27.143s10.826-1.4123 12.72-10.882c-7.0711 8.3338-16.415 6.6291-16.415 6.6291s11.617-7.4499 10.733-16.289c-7.0711 12.122-15.784 12.248-15.784 12.248s5.3033-4.9876 4.1669-13.7c-2.9042 9.9753-9.2176 12.059-9.2176 12.059s-9.9753-0.75762-14.773 4.7982c-4.7982 5.5558-9.5333 17.993-10.859 32.577-1.3258 14.584 1.8309 41.416 1.8309 41.416z" style="fill:#540"/><path d="m296.86 201.69c7.4499 1.5152 13.89 1.0102 13.89 1.0102-4.5457-2.7779-10.054-24.404-1.1364-41.416 8.2075-15.657 22.097-4.1669 23.865 0.88388-0.25254-6.3134 1.1364-31.82-14.395-31.694-15.531 0.12627-23.739 14.142-23.865 40.154s1.6415 31.062 1.6415 31.062z" style="fill:#fff"/><path d="m316.56 202.82s-8.7126-0.75761-8.8388-18.814 6.566-27.653 13.132-27.274 11.364 5.6821 12.501 12.879c1.1364 7.1973-1.2627 23.612-1.2627 23.612s-7.955 2.6516-15.531 9.5964z" style="fill:url(#bu)"/><path transform="matrix(1.4314 .0069608 -.0055406 1.1393 -133.32 -14.317)" d="m324.39 170.63c0 6.2066-2.3461 11.238-5.2402 11.238s-5.2402-5.0314-5.2402-11.238c0-6.2065 2.3461-11.238 5.2402-11.238s5.2402 5.0314 5.2402 11.238z"/><path transform="matrix(1.4123 .23331 -.18571 1.1241 -101.52 -96.712)" d="m324.39 170.63c0 6.2066-2.3461 11.238-5.2402 11.238s-5.2402-5.0314-5.2402-11.238c0-6.2065 2.3461-11.238 5.2402-11.238s5.2402 5.0314 5.2402 11.238z" style="fill:#fff"/><path d="m391.66 48.938c-5.9716-0.03698-11.53 2.2333-14 7.1562-4.1034 8.1792 10 24.375 10 24.375-4.2932-1.894-8.7188-7.4375-8.7188-7.4375l-20.094 16.406 1.0312-3.0312s-12.627-8.2601-33.781-11.562c-0.23898 0.70686-0.43803 1.408-0.46875 2.0625 1.8357 4.8479 0.34766 13.056-6.0938 13.188-4.4791 0.15509-9.3576-0.48578-12.219 3.9062-3.4575 4.0822-10.785 5.9678-13.906 0.5-1.1872-5.0043-9.0262-4.4046-8.7188-10.125 1.2813-1.8035 2.1224-3.6861 2.3125-5.875-17.48 7.5665-29.524 21.571-31.938 26.219 7.0711-5.5558 12.824-7.4689 20.062-5.6875 10.759 2.6479 14.531 26.375 14.531 26.375s10.991-14.492 15.031-18.406c3.2337-3.1326 10.28-8.4366 21.375-8.6875 0.45459-5.8215 5.1036-10.993 11.156-11.125l0.625-0.03125c0.1766-0.03102 0.36332-0.04971 0.53125-0.0625 5.206-0.39642 6.3654 7.6778 11.531 6.3438 3.5762-2.0367 8.3714-2.2873 10.781 1.6875 3.8192 4.0153-1.1707 8.4072-4.125 10.938-1.4412 2.2167-1.6665 4.9008-1.9688 7.5938 3.1328 6.4602 4.461 14.536 5.6562 23.5 2.6175 19.631 2.2812 48.75 2.2812 48.75s8.3073-0.37167 18.156 2.4062c8.3439 2.3534 16.438 10.969 16.438 10.969s0.49493-11.736 1-19.312c0.29941-4.4912-0.22634-10.543-0.71875-14.938-0.0384 0.0331-0.0901 0.0591-0.125 0.0937-3.9843 1.1656-1.722 5.0289-0.96875 7.6562 0.52047 5.1427-1.0174 13.926-7.6875 13.688-8.4814-2.4485-3.7664-14.724-10.5-19.094-6.5679-1.9305-9.002-10.223-5.3438-15.781 1.7206-3.2931 5.0557-3.5288 8.1875-4.1875-4.5003-4.8628-5.191-8.1749-6.1875-10.5-1.1364-2.6516-3.2851-12.107-2.9062-17.031 0.3788-4.9245 7.6875-7.9688 7.6875-7.9688l-3.4062-9.0938-4.9375 1.2812 21.344-17.438-0.25-3.0312s4.3115 3.5511 10.625 4.6875c6.3134 1.1364 11.361-2.0362 12.75-10.875s-4.5674-21.707-13.406-26c-3.3146-1.6099-7.042-2.4778-10.625-2.5z" style="fill:#f1e835"/><path d="m308.34 73.531c-6.9518 0.22165-13.471 1.8382-19.406 4.1875-0.1233 1.9412-0.3328 4.0998-0.65625 4.8438-0.63134 1.4521-2.1639 1.3878-1.4062 3.2188 0.75762 1.8309 3.9816 2.5785 5.8125 4.0938s2.3325 5.8093 6.5625 6.125c4.23 0.31567 9.5958-7.1837 12.5-7.5625 2.9042-0.37881 8.1028 0.23271 10.312-1.1562s2.8226-7.2023 1.8125-8.8438c-0.52119-0.84694-0.23968-2.4889 0.15625-3.875-4.0253-0.55114-8.3274-0.93506-12.906-1.0312-0.93913-0.01973-1.857-0.02947-2.7812 0zm28.969 15.656c-1.6257 0.07103-3.48 0.64261-5.4688 2-2.5266 1.7245-3.3815 4.9809-3.6875 7.125 2.1797 0.07523 4.4993 0.33086 6.9688 0.84375 8.9404 1.8569 14.428 6.0176 18 11.812 0.15533-0.94192 0.28093-1.8671 0.3125-2.6562 0.12627-3.1567 3.5741-5.2278 5.5312-7.4375 1.9572-2.2097 1.2779-3.7259-1.5-6.125s-5.4307 1.0644-9.2188 0.875-4.9803-3.7973-6.9375-5.3125c-0.97859-0.75761-2.3743-1.196-4-1.125zm43.438 60.25c-2.0257 0.10233-5.0006 0.78395-6.5 3.625-2.3991 4.5457-0.87928 9.8598 2.6562 11.375s5.8011 4.0481 6.9375 8.5938 1.2719 11.09 5.3125 11.469c4.0406 0.37881 5.4388-7.5658 5.3125-10.344s-1.91-4.282-1.5312-7.3125c0.19721-1.5777 2.266-2.9506 4.2188-3.9062-0.23262-1.8834-0.40625-3.3125-0.40625-3.3125s-7.2165-4.0328-13.656-10.094c-0.034-0.032-0.0601-0.0619-0.0937-0.0937l-0.15625 0.0937s-0.87833-0.15515-2.0938-0.0937z" style="fill:url(#cr)"/><path d="m250.14 185.78s11.27 3.1252 13.006 3.5355c-2.5885-0.72605-4.93-5.1822-4.5457-18.056 0.50508-16.92 8.46-21.087 14.268-16.162-0.25254-9.0914-0.50508-28.537-7.5761-29.294-6.572-0.70413-10.733 4.7982-13.385 19.824s-3.0305 28.537-1.7678 40.154z" style="fill:#fff"/><path d="m264.58 189.38c1.2995 0.34372 2.6491 0.79621 3.996 1.1329 0 0 2.7779-7.4499 3.283-14.837 0.50507-7.3867 1.1996-14.773 1.0733-18.183-3.8512-3.8512-9.9753-0.50508-11.617 5.8084-1.6415 6.3134-0.98985 14.993-0.0631 19.572 0.53664 2.6516 1.4795 5.3489 3.3276 6.5064z" style="fill:url(#bt)"/><path transform="matrix(.89467 .0045852 -.0034631 .7505 -16.428 45.549)" d="m324.39 170.63c0 6.2066-2.3461 11.238-5.2402 11.238s-5.2402-5.0314-5.2402-11.238c0-6.2065 2.3461-11.238 5.2402-11.238s5.2402 5.0314 5.2402 11.238z"/><path transform="matrix(.86568 .1441 -.11384 .69431 9.1475 .10889)" d="m324.39 170.63c0 6.2066-2.3461 11.238-5.2402 11.238s-5.2402-5.0314-5.2402-11.238c0-6.2065 2.3461-11.238 5.2402-11.238s5.2402 5.0314 5.2402 11.238z" style="fill:#fff"/><path d="m378.68 115.45c-4.8018 1.9516-5.9346 12.627-0.75762 21.971s13.637 17.299 24.117 20.456c10.48 3.1567 41.458 5.0911 55.18-8.9651 15.531-15.91 21.466-35.482 15.657-49.624-5.8084-14.142-12.879-8.3338-14.268-6.9448s-21.672 20.637-36.365 23.107c-11.484 1.931-19.441 1.7478-26.769 0.3788-5.9813-1.1174-9.9744-3.1504-16.794-0.37881z" style="fill:url(#cq)"/><path d="m254.68 100.29s-10.733 14.521-13.006 23.739c-2.2728 9.2176-2.7779 20.834-2.7779 20.834s-19.572 8.2075-32.325-11.617c-12.753-19.824-13.006-31.315-11.238-42.805 1.7678-11.49 6.1872-15.784 11.112-15.784 4.9245 0 13.511 9.9753 18.688 16.541 5.177 6.566 29.547 9.0914 29.547 9.0914z" style="fill:url(#ct)"/><path d="m277.22 80.217c8.2075-4.7351 17.993-6.7554 17.993-6.7554l-11.112-26.58 5.9346 6.6923s10.48-5.5558 7.0711-17.173c-3.4093-11.617-20.834-9.849-26.895-8.0812-6.0609 1.7678-21.762 11.464-16.92 23.865 3.6339 9.3061 14.521 6.1872 14.521 6.1872l-0.50507-6.8185z" style="fill:url(#bk)"/><path d="m227.16 192.56c-25.695 0-52.545 14.013-61.469 39.281-7.1286 20.184-9.6075 45.078 5.25 62.344 22.075 25.653 58.369 34.142 91.219 29.969 21.65-2.7508 45.886-7.8639 60.094-25.156 7.1856-8.7459 2.2712-21.987 0.0956-32.382-3.111-14.865-7.9696-30.067-15.908-43.18-12.318-20.347-38.094-26.164-60.178-29.668-6.2564-0.99275-12.712-1.2071-19.103-1.2071z" style="fill:url(#cu)"/><path d="m221.35 268.86s0-12.501 5.5558-21.971 9.7227-8.8388 11.49-6.9448c1.7678 1.894 2.0203 6.6923-2.3991 10.354-4.4194 3.6618-9.4702 8.46-14.647 18.562z" style="fill:#806600"/><path d="m175.22 259.44s6.6088-9.5127 7.92-19.945c1.3112-10.433-1.7941-12.372-3.9712-11.957-2.1772 0.41485-4.8818 3.9195-3.8782 9.2722s1.8264 11.937-0.0706 22.63z" style="fill:#806600"/><path d="m294.14 324.55s8.1444 9.4702 17.109 14.268c0 0 2.4622-15.784 11.743-25.38 9.2808-9.5964 15.279-11.112 15.279-11.112s3.9327-5.7909 9.6596-8.0812c6.04-2.4155 9.1545-1.3258 9.1545-1.3258s4.1669-31.82 3.6618-52.654c0 0-8.6536 42.611-24.875 57.263-23.486 21.213-41.732 27.022-41.732 27.022z" style="fill:url(#cz)"/><path d="m313.53 339.83s4.5457 2.5254 11.364 1.389c6.8185-1.1364 20.392-13.195 25.506-24.307 5.1139-11.112 6.2503-21.339 6.2503-21.339s-8.4539-1.6729-15.089 7.3867c-6.566 8.9651-9.3439 17.993-9.3439 17.993s-0.44194-7.3867 4.4194-15.089c0 0-8.4226 2.7315-15.847 14.205-7.6393 11.806-7.2605 19.761-7.2605 19.761z" style="fill:url(#cy)"/><path d="m463.38 92c-5.8342 2.1996-9.491 8.4724-14.954 11.728-10.317 8.2605-22.314 14.937-35.859 14.928-9.544 1.375-18.766-1.6936-28.031-2.5625-4.1275-0.259-8.2434 2.4809-7.9062 6.9688-0.5452 14.756 11.783 27.769 25.062 32.594 16.119 3.9867 34.55 3.895 49.344-4.3438 12.771-9.7377 22.267-25.584 22-41.969-0.57148-6.2739-2.3675-14.557-8.625-17.312-0.34243 0.02708-0.69239-0.13004-1.0312-0.03125z" style="fill:url(#cp)"/><path d="m207.67 77.95c-7.5054 1.2042-8.3518 10.896-9.25 16.706-2.0911 15.767 5.8401 31.169 16.125 42.812 6.1435 5.9127 15.667 7.7706 23.938 5.215 0.554-12.495 3.091-25.197 10.905-35.509 2.5353-3.248 4.5402-6.0063-1.4988-5.5141-9.881-1.8123-21.227-3.6866-26.644-12.961-3.948-3.813-7.7859-9.7025-13.575-10.749z" style="fill:url(#cs)"/><path d="m315.71 228.79c0.5193-9.2966 2.1429-17.321 15.179-25.893 13.218-8.6913 31.607-12.5 45.179-7.8572 13.571 4.6429 24.876 14.107 25 31.786 0.17857 25.357-16.786 41.786-16.786 41.786s-0.89285-25-7.3214-31.429c-6.4286-6.4286-22.321-12.143-30.536-5.5357-8.2143 6.6071-11.25 24.821-15.893 23.75-4.6428-1.0714-15.435-15.629-14.821-26.607z" style="fill:url(#cv)"/><path d="m363.94 237.38s0.34375 65.875-14.656 85.875c-15 20-23.562 22.33-34.812 18.938s-22.5-16.625-22.5-16.625l-14.125 3.5938s20.362 20.719 46.969 19.469 43.589-24.308 49.125-41.094c5.5357-16.786 6.9509-24.987 12.844-34.094 0.15001-0.23183 0.3442-0.48293 0.5-0.71875l-12.25-28.469c-3e-3 0.24923-0.0312 0.4375-0.0312 0.4375s-6.4196-7.6696-11.062-7.3125z" style="fill:url(#cx)"/><path d="m391.66 48.432c-5.9716-0.03698-11.53 2.2333-14 7.1562-4.1034 8.1792 10 24.375 10 24.375-4.2932-1.894-8.7188-7.4375-8.7188-7.4375l-19.281 15.75c0.0789 0.93495 0.72872 7.4177 4.25 10 3.1654 2.3213 6.1472 3.9199 8.8125 4.0937l19.844-16.219-0.25-3.0312s4.3115 3.5511 10.625 4.6875c6.3134 1.1364 11.361-2.0362 12.75-10.875s-4.5674-21.707-13.406-26c-3.3146-1.6099-7.042-2.4778-10.625-2.5z" style="fill:url(#bm)"/><path d="m263.72 127.78c-7.3082 1.6028-8.0501 10.931-9.5938 16.875-2.3831 12.994-3.4049 26.345-2.125 39.562 3.829 1.307 7.2506 2.844 5.0938-2.125-0.83722-9.7842-1.7692-21.873 6.0312-29.188 2.0321-2.006 5.6153-1.7258 7.625-1.5938-0.86968-7.7015 0.41411-17.075-4.9062-23.25-0.59944-0.39771-1.4317-0.31366-2.125-0.28125z" style="fill:url(#bl)"/><path d="m318.44 132.5c-11.825-0.17894-18.435 12.031-19.859 22.292-2.2288 14.83-1.6917 30.355 0.0151 45.177 2.3141 0.17243 6.8881 1.4909 7.7812 0.21875-5.7939-14.391-4.9129-32.796 5.1562-45.031 5.2903-5.8776 14.694-4.2645 19.812 0.90625-0.57705-8.0663-0.56322-19.208-9.0312-23.125-1.2536-0.37311-2.5666-0.54005-3.875-0.4375z" style="fill:url(#bn)"/></g></g></g></g></svg>
