<?xml version="1.0" encoding="UTF-8"?>
<svg width="81.851mm" height="121.08mm" version="1.1" viewBox="0 0 81.851 121.08" xmlns="http://www.w3.org/2000/svg" xmlns:xlink="http://www.w3.org/1999/xlink"><defs><linearGradient id="linearGradient2203" x1="-337.25" x2="-321" y1="453.24" y2="459.24" gradientTransform="matrix(.26458 0 0 .26458 139.9 -15.376)" gradientUnits="userSpaceOnUse" xlink:href="#linearGradient30301"/><linearGradient id="linearGradient30301"><stop style="stop-color:#82591e" offset="0"/><stop style="stop-color:#584100" offset="1"/></linearGradient><linearGradient id="linearGradient2151" x1="-412.6" x2="-404.11" y1="630.64" y2="644.08" gradientTransform="matrix(.26458 0 0 .26458 137.05 -19.675)" gradientUnits="userSpaceOnUse" xlink:href="#linearGradient30244"/><linearGradient id="linearGradient30244"><stop style="stop-color:#d2ba85" offset="0"/><stop style="stop-color:#ac7d2f" offset="1"/></linearGradient><linearGradient id="linearGradient2161" x1="-369.32" x2="-362.97" y1="619.18" y2="632.31" gradientTransform="matrix(.26458 0 0 .26458 137.05 -19.675)" gradientUnits="userSpaceOnUse" xlink:href="#linearGradient30244"/><linearGradient id="linearGradient20597" x1="-453.08" x2="-425.97" y1="327.03" y2="338.51" gradientTransform="matrix(.26458 0 0 .26458 137.05 -19.675)" gradientUnits="userSpaceOnUse" xlink:href="#linearGradient30301"/><linearGradient id="linearGradient2107" x1="-195.02" x2="-184.37" y1="510.41" y2="510.41" gradientTransform="matrix(.26458 0 0 .26458 137.05 -19.675)" gradientUnits="userSpaceOnUse" xlink:href="#linearGradient30301"/><linearGradient id="linearGradient2099" x1="-354.81" x2="-341.18" y1="515.56" y2="515.56" gradientTransform="matrix(.26458 0 0 .26458 137.05 -19.675)" gradientUnits="userSpaceOnUse" xlink:href="#linearGradient30301"/><linearGradient id="linearGradient2115" x1="-396.59" x2="-369.92" y1="503.79" y2="509.44" gradientTransform="matrix(.26458 0 0 .26458 137.05 -19.675)" gradientUnits="userSpaceOnUse" xlink:href="#linearGradient30301"/><linearGradient id="linearGradient2181" x1="-448" x2="-360.02" y1="419.5" y2="442.41" gradientTransform="matrix(.26458 0 0 .26458 137.05 -19.675)" gradientUnits="userSpaceOnUse" xlink:href="#linearGradient30244"/><linearGradient id="linearGradient2083" x1="-341.01" x2="-373.17" y1="381.11" y2="388.61" gradientTransform="matrix(.26458 0 0 .26458 137.05 -19.675)" gradientUnits="userSpaceOnUse" xlink:href="#linearGradient30301"/><linearGradient id="linearGradient31197" x1="126.51" x2="193.81" y1="-14.195" y2="6.739" gradientTransform="matrix(.26458 0 0 .26458 23.812 70.908)" gradientUnits="userSpaceOnUse" xlink:href="#linearGradient30244"/><linearGradient id="linearGradient31183" x1="33.225" x2="77.383" y1="-47.667" y2="-34.801" gradientTransform="matrix(.26458 0 0 .26458 23.812 70.908)" gradientUnits="userSpaceOnUse" xlink:href="#linearGradient30301"/><linearGradient id="linearGradient31234" x1="220.29" x2="276.55" y1="-50.475" y2="-9.6346" gradientTransform="matrix(.26458 0 0 .26458 23.812 70.908)" gradientUnits="userSpaceOnUse" xlink:href="#linearGradient30244"/><linearGradient id="linearGradient20418" x1="-330.85" x2="-198.97" y1="403.76" y2="403.76" gradientTransform="matrix(.26458 0 0 .26458 137.05 -19.675)" gradientUnits="userSpaceOnUse" xlink:href="#linearGradient30244"/><linearGradient id="linearGradient2193" x1="-132" x2="-28.5" y1="429.63" y2="429.63" gradientTransform="matrix(.26458 0 0 .26458 137.05 -19.675)" gradientUnits="userSpaceOnUse" xlink:href="#linearGradient30244"/><linearGradient id="linearGradient20430" x1="-112.1" x2="-78.306" y1="347.77" y2="359.3" gradientTransform="matrix(.26458 0 0 .26458 136.45 -20.04)" gradientUnits="userSpaceOnUse" xlink:href="#linearGradient30301"/><linearGradient id="linearGradient20440" x1="-491.93" x2="-464.96" y1="349.07" y2="349.07" gradientTransform="matrix(.26458 0 0 .26458 137.05 -19.675)" gradientUnits="userSpaceOnUse" xlink:href="#linearGradient30301"/><linearGradient id="linearGradient31207" x1="306.38" x2="236.84" y1="-58.188" y2="-30.501" gradientTransform="matrix(.26458 0 0 .26458 23.812 70.908)" gradientUnits="userSpaceOnUse" xlink:href="#linearGradient30301"/><linearGradient id="linearGradient31244" x1="312.01" x2="354.74" y1="-29.479" y2="-45.103" gradientTransform="matrix(.26458 0 0 .26458 23.812 70.908)" gradientUnits="userSpaceOnUse" xlink:href="#linearGradient30301"/><linearGradient id="linearGradient2063" x1="-185.86" x2="-301.5" y1="502.61" y2="523.11" gradientTransform="matrix(.26458 0 0 .26458 137.05 -19.675)" gradientUnits="userSpaceOnUse" xlink:href="#linearGradient30301"/><linearGradient id="linearGradient2073" x1="-223.3" x2="-117.5" y1="467.42" y2="463.42" gradientTransform="matrix(.26458 0 0 .26458 137.05 -19.675)" gradientUnits="userSpaceOnUse" xlink:href="#linearGradient30301"/><linearGradient id="linearGradient2171" x1="-302.5" x2="-268.95" y1="599.69" y2="611.82" gradientTransform="matrix(.26458 0 0 .26458 137.05 -19.675)" gradientUnits="userSpaceOnUse" xlink:href="#linearGradient30244"/><linearGradient id="linearGradient2222" x1="-193.04" x2="-159.81" y1="621.64" y2="632.25" gradientTransform="matrix(.2706 0 0 .27515 138.49 -23.542)" gradientUnits="userSpaceOnUse" xlink:href="#linearGradient30244"/><linearGradient id="linearGradient2232" x1="-105.89" x2="-88.684" y1="618.88" y2="642.92" gradientTransform="matrix(.2706 0 0 .27515 138.49 -23.542)" gradientUnits="userSpaceOnUse" xlink:href="#linearGradient30244"/><linearGradient id="linearGradient31111" x1="194.47" x2="222.68" y1="415.38" y2="415.38" gradientTransform="matrix(.23698 -.11767 .11767 .23698 -17.754 82.124)" gradientUnits="userSpaceOnUse" xlink:href="#linearGradient30301"/><linearGradient id="linearGradient31095" x1="215.29" x2="241.52" y1="425.76" y2="435.06" gradientTransform="matrix(.23698 -.11767 .11767 .23698 -17.754 82.124)" gradientUnits="userSpaceOnUse" xlink:href="#linearGradient30301"/><linearGradient id="linearGradient31093" x1="214.36" x2="253.06" y1="439.48" y2="454.36" gradientTransform="matrix(.23698 -.11767 .11767 .23698 -17.754 82.124)" gradientUnits="userSpaceOnUse" xlink:href="#linearGradient30301"/><linearGradient id="linearGradient31109" x1="105" x2="151.24" y1="367.01" y2="389.38" gradientTransform="matrix(.23698 -.11767 .11767 .23698 -17.754 82.124)" gradientUnits="userSpaceOnUse" xlink:href="#linearGradient30301"/><linearGradient id="linearGradient31097" x1="48.379" x2="98.991" y1="369.62" y2="387.11" gradientTransform="matrix(.23698 -.11767 .11767 .23698 -17.754 82.124)" gradientUnits="userSpaceOnUse" xlink:href="#linearGradient30301"/><linearGradient id="linearGradient31103" x1="13.684" x2="52.893" y1="451.75" y2="468.06" gradientTransform="matrix(.23698 -.11767 .11767 .23698 -17.754 82.124)" gradientUnits="userSpaceOnUse" xlink:href="#linearGradient30301"/><linearGradient id="linearGradient31107" x1="52.103" x2="62.103" y1="475.56" y2="479.51" gradientTransform="matrix(.23698 -.11767 .11767 .23698 -17.754 82.124)" gradientUnits="userSpaceOnUse" xlink:href="#linearGradient30301"/><linearGradient id="linearGradient31105" x1="19.955" x2="51.051" y1="481.22" y2="498.32" gradientTransform="matrix(.23698 -.11767 .11767 .23698 -17.754 82.124)" gradientUnits="userSpaceOnUse" xlink:href="#linearGradient30301"/><linearGradient id="linearGradient31101" x1="24.562" x2="62.893" y1="412.4" y2="427.28" gradientTransform="matrix(.23698 -.11767 .11767 .23698 -17.754 82.124)" gradientUnits="userSpaceOnUse" xlink:href="#linearGradient30301"/><linearGradient id="linearGradient31099" x1="46.518" x2="87.574" y1="386.17" y2="406.27" gradientTransform="matrix(.23698 -.11767 .11767 .23698 -17.754 82.124)" gradientUnits="userSpaceOnUse" xlink:href="#linearGradient30301"/><linearGradient id="linearGradient31087" x1="167.1" x2="196.97" y1="389.45" y2="389.45" gradientTransform="matrix(.23698 -.11767 .11767 .23698 -17.754 84.77)" gradientUnits="userSpaceOnUse"><stop style="stop-color:#0000d5" offset="0"/><stop style="stop-color:#00007d" offset="1"/></linearGradient><filter id="filter2022" x="-.010023" y="-.088176" width="1.02" height="1.1764" style="color-interpolation-filters:sRGB"><feGaussianBlur stdDeviation="0.098599824"/></filter></defs><g transform="translate(-54.29 -81.36)"><g transform="translate(29.404 50.932)"><g transform="matrix(.59643 0 0 .53267 26.165 68.19)"><path d="m75.255 136.83c-1.2888 3.259-1.6813 8.117 0.85624 10.798 0.66359 0.76165 0.80598 3.4668 1.7697 5.1919 1.3198 2.3627 3.7063 3.7303 6.7451 3.466 7.9463-0.69103 6.1-5.5753 5.2832-8.8977 1.1397 0.35654 1.8381-0.50568 2.7979-0.36916 1.2493 0.17771 2.709 1.2708 3.7823 0.99802 0.53249 0.15256 1.4173 1.6544 1.7125 1.9545 1.3674 2.7679 2.8335 2.9554 4.7536 4.0198 1.6654 0.92323 4.2673 0.22008 5.6843-1.2076 3.18 1.131 7.2456-0.29597 8.0538-1.9397 1.1634 0.3259 1.3617-0.13815 2.0785-0.59015 2.2228-1.4017 3.1285-4.8835 1.8266-6.3226 0.51582-1.5621-1.5547-2.5199-1.8058-3.2224-0.6765-1.8927-1.9646-2.6638-5.1666-4.2918-1.0622-0.54002-1.7386-1.1778-3.9341-1.922-1.8433-0.62476-4.9745-1.3418-7.1754-1.5565-8.3186-0.81163-21.271-1.9977-27.262 3.8912z" style="fill:#e4cba4"/><path d="m117.44 145.68c-1.0718 3.5218-6.0866 4.598-7.0797 1.9456-0.61287 1.2463-2.0737 1.4611-3.3007 1.9942-1.5116 3.0739-2.7456 3.4893-5.6925 3.0643 1.8731 1.2561 6.0091 1.7695 7.4624 0.29184 5.0902 0.95461 6.501-0.0877 7.7494-2.0915 2.8175-0.30909 5.1086-3.1808 4.4676-5.7882 0.0101 1.3075-1.7918 3.7096-3.3195 2.3347-0.0406-1.0324 0.19414-1.2618-0.28701-1.751z" style="fill:url(#linearGradient2232)"/><path d="m81.948 155.8c6.6374-0.15534 7.1754-2.964 7.1754-6.1286-0.27639-2.3077 0.08987-2.7674 0.08987-4.8807-0.16233-0.5863-0.5427-0.94449-0.42331-1.9055 2.8605-1.0739 3.7876 2.1269 6.4564 4.8406-1.3118-0.26412-1.729-0.5368-2.2961-0.68096-0.66218-0.076-2.0886 0.26341-2.5831 0.38912 0.69663 4.3741 0.23373 7.9662-3.7312 8.4634-1.9766 0.13782-3.6479 0.96024-4.6879-0.0973z" style="fill:url(#linearGradient2222)"/><path d="m64.046 133.23c1.458 1.7572 2.1496 6.3816 1.4161 8.9337-0.78707 2.7384-4.025 4.1346-4.5305 5.8695-0.95246 3.269-4.5897 4.64-7.494 4.5682-4.2086-0.10401-5.8382-4.9848-5.3896-7.0041-0.33021-0.0585-2.7602-0.55971-3.3489-0.19872-1.1744 0.72012-3.5979 2.0436-5.2635 2.3207-1.8543 1.8825-7.3043 2.9885-8.9966 1.3446-2.2261 0.5244-4.0409 1.1949-5.5468 0.91493-1.5288-0.28426-3.0038-1.0378-4.0691-3.2797-0.76182-0.64549-1.3271-3.3538-1.4678-4.0002-0.27099-1.2454 1.1665-2.4696 2.4425-3.4149 0.0845-0.57274 0.11716-1.3398 0.49923-1.761 0.95169-1.049 3.5678-1.7801 4.4942-2.5418 0.44912-0.36931 4.1359-1.1308 4.786-1.1308 1.1216 0 6.2737-2.582 6.9372-3.1128 8.2464-1.7654 18.105-1.2621 25.532 2.4924z" style="fill:#e4cba4"/><path d="m51.726 152.07c4.9796 0 6.2398-2.7462 7.0115-4.0349 0.92989-1.5531 2.2854-3.013 2.1828-4.8948 0.4602-1.5484 1.1787-2.4811 2.1167-3.0427 1.1703-0.70072 0.29766-2.3298-0.59531-3.5057-0.066-0.0869-0.78215-0.45142-0.99219-0.66146 0.01564 1.5813-0.31293 1.4374-0.99219 2.1167-0.01963-0.66256-0.48467-0.81539-0.52917-0.85989-0.71903-0.42795-1.4777-2.1391-2.1167-2.7781-0.94738-0.94737 1.4356-1.465 1.9844-1.1906 2.0532 1.0266 3.7935-0.11083 4.2333-0.33073 0.79889 3.0312 1.6286 5.689 1.8521 7.8714 0.0796 0.77744-0.2156 1.6381-0.33073 1.9182-0.59531 1.4487-2.344 2.5039-2.712 2.9104-1.4396 1.5905-2.594 5.6021-3.4396 5.9531-1.4027 0.58222-2.3611 1.1273-3.6106 1.2341-1.1517 0.0984-2.3986 0.10354-4.0623-0.70491z" style="fill:url(#linearGradient2171)"/><path d="m22.026 137.65c9e-3 0.98748 0.36688 1.3229 0.95911 1.356 0.81689-0.19927 0.80825-0.38396 1.2568-0.49609 0.14911-0.92577-0.20722-1.1927-0.33073-1.6867-1.5848 0.0132-1.2027 0.65621-1.8852 0.82682z" style="fill:#f5dfcf"/><path d="m94.015 139.18c0.89543 0.98432 0.44841-3.3064-0.44269-4.01 3.1066-0.23264 4.4762 1.0688 7.318 1.1969-0.8415-0.65913-1.6267-1.521-2.6753-2.0126 3.0585-0.76461 4.2848 1.434 8.2387-1.085-0.39157-0.78314-3.3531-1.207-4.3339-1.8221-1.3376-0.83884-0.75431-1.8627-1.2108-3.0644 0.46732 0.46732 1.6285 0.55684 4.3447-0.6363-2.5503-0.31612-4.4639-3.251-4.2981-4.2143 0.37769-2.1946 0.0698-9.6492-1.5912-14.067-1.0266-2.7306-1.3871-3.7832-3.6671-7.3131-0.24141-0.37376 0.85666 0.13841 2.1947 0.85592-1.2363-1.0392-4.1987-4.6342-4.7591-5.4503-0.53763-0.78288-2.2987-2.2377-3.706-4.3704 0.76367-3.0547 2.1555-5.9426 4.4704-9.4566 0.19902 0.7961 0.35425 1.6026 0.51582 2.4071 0-2.2574 0.16249-3.8786 1.5474-7.0495-0.49217 0.98434-0.71092 3.908-0.17194 7.7372 0.30636-1.2254 0.15161-0.8278 1.3755-2.5791-0.71908 2.8763 2.0005 7.9376 2.3708 9.349 1.1395 4.343 3.745 6.2124 7.0858 9.5642 12.567 3.1047 19.066-14.764 18.397-22.696-0.65847-1.0097 0.64336 0.79599 2.5791 1.0316-1.5467-3.0934-4.76-8.0696-11.176-11.004 0.5552 0.1388 0.60713 0.3109 2.2264 0.0743-1.9282-2.5709-5.0088-5.2097-5.8116-7.5095-1.7023-4.8764-3.5442-11.588-4.8129-13.158 0.7918 0.0978 1.9756 0.94991 2.9866 1.7383-1.6964-3.7749-11.498-8.1536-16.744-8.1439 0.11508-0.36072 1.1703-0.54779 1.5132-1.0901-4.3788 0.4143-6.119 2.2459-6.8027 2.3376-3.6996 1.2332-8.5184 4.8808-12.432 6.8376-8.2729 4.1365-23.136 0.16427-28.904-5.8016-1.6311-0.39818-2.968-2.7925-6.2676-3.4279-2.8621-0.55109-7.4215 1.0126-9.0921 0.58238 1.6375 1.053 4.6719 1.6866 4.0398 1.6828-5.9758-0.0361-10.205 2.0489-12.679 5.0741 1.2278-0.52705 2.7703-0.83638 3.2511-0.66693-1.8298 1.3428-6.1141 5.7187-7.3413 8.5779 0.65692-0.56717 1.7889-1.4424 1.5132-0.93907-1.8881 3.4476-2.1993 5.5847-2.9162 7.845-0.557 0.53994-2.588 1.7361-4.9094 3.446-2.7492 2.025-5.5504 5.0692-6.8134 7.7734 1.7588-1.3425 2.1418-3.1814 3.5665-2.8253-3.3787 4.1784-6.0393 9.1986-6.7056 11.864 0.25478 0.1607 0.51581 10.453 0.51581 9.8005 0-0.90699 3.8604 3.0949 5.8459 3.0949 5.9793 0 8.8891 3.7225 17.022-0.34388 2.5146-1.2573 3.5211-4.7257 4.5993-5.9748 3.3617-3.8945 4.2288-7.383 5.3301-11.391 0.16069 2.9624-0.42764 4.3888 0.043 5.3301 1.3793-2.4826 1.1446-3.5469 2.0633-7.2214 0.45278 3.3977 3.0565 6.5542 4.6337 8.1315 0.09285-1.2406 0.24803-0.99211 0.34388-1.3755 1.871 3.4291 2.3704 6.3368 1.8913 8.253-1.4918 1.728-4.9911 5.4249-7.4534 8.3573-2.2345 3.5477-3.0773 4.7832-3.6792 7.1911-3.3667 7.2247 0.24615 14.601 1.5805 19.939 0.36072-1.9228-0.1221-4.3324-0.4212-5.5288 1.1806 3.3454 2.3313 4.7787 2.5896 6.267-0.26871 1.0693-0.93179 1.5441-2.0014 1.6279-2.0435 0.15998-3.6471-0.0124-4.3552 1.2085 1.3996-0.2976 2.0776-0.54798 3.2131 0.14432 1.7881 1.0902 2.4982 0.36051 3.0345 0.18727-0.30822 0.45215-0.69575 1.1738-1.6339 1.7168 1.5355-0.16913 2.1388-0.18641 2.5478-0.59544-0.78561 0.97133-1.2049 1.394-1.5144 2.6319 1.0245-0.97352 3.1921-1.1992 5.1413-1.3408 1.3592-0.0987 2.5786-0.66489 3.126-1.2123-0.62268 1.5712-0.99987 2.103-1.8089 2.5605 2.9763 0.58381 3.8574-1.7095 5.4563-1.7095-0.76038 0.54742-0.7037 2.4649 1.273 3.0158 0.57096 0.15913 1.0101 0.30678 1.6449 0.99632 0.12822-0.61303 0.52307-1.0098 0.19291-1.6889-0.72449-1.4902-0.11978-1.5383 0.19824-1.8298 0.76409-0.70032 1.4597-0.83921 1.9679-0.96627-0.25595 0.87465 0.35393 1.7361 0.93246 1.9895 1.1551 0.50593 3.1733 0.4304 3.7809 1.6235 1.4263-1.9578-1.6408-2.2276-0.11295-3.9704 0.27321 0.38831 0.64749 0.98587 1.2458 1.1843 0.76714 0.2544 1.8646-0.29707 2.5424-0.15801 0.40527 0.0831 0.56388 0.78598 0.68075 1.0197 0.09947-0.61447 0.25446-1.5682-0.07112-2.1056-0.30726-0.50715 0.04524-0.24288-0.96219-0.74659 0.69071 0.25118 1.441 0.85994 3.0658-0.51772-1.7056-0.41649-2.8911-2.0022-5.0142-2.337 0.27786-5.8413 0.6469-8.7874-1.8814-13.624 2.2683-2.3897 4.7665-4.7207 6.2005-7.5379h1.8237c3.7843 4.4554 7.5669 7.823 11.55 8.8188-0.96869 4.2198 0.24316 7.7236 0.24316 10.391 0 1.1747 0.06649 2.2264-0.15891 3.3677-0.19583 0.99154-1.5375 1.3319-2.2388 1.7693-1.0377 0.64717-2.7525 2.8855-3.0557 4.4017 0.88687-1.2722 2.3022-1.54 3.3211-1.7947-0.60356 1.0708-1.2548 2.6169-0.58037 4.1302 2.0151-3.2604 6.0986-2.578 7.9406-2.8275 1.4218 1.0665 1.4589 1.512 1.4589 1.8237 0.71938-1.5424 1.9041-0.83504 2.6053-2.8325 0.98184-0.50078 3.8457 0.67818 6.0267 3.0757z" style="color:#000000;fill:#8e681e"/><path d="m96.639 122.44c0.0077-1.2108-0.92604-4.2054-0.92604-5.5562 0-2.4532 1.1529-2.0082 0.66146-3.9688-0.32019-1.2772 0.15753-2.5345-1.6536-4.6302 0.03883 0.15531 0.20901 0.42707 0.26458 0.99219-0.63609 9e-3 -2.5827-1.7258-2.8443-3.5057-0.24218-1.6479-0.90429-2.7672-1.6536-3.9026 0 1.2814 0.4476 2.2085 0.07513 3.6704 0-1.9109-4.1388-9.9863-7.2029-10.943-1.2021-1.6028 2.232-3.8184 2.3386-7.2029 0.08751 0.11668 0.43588 1.23 0.28063 2.4322 0.27913-1.1165-0.74237-3.3596-1.2161-6.1739 4.4409-0.13104 9.629-6.3489 10.758-8.6061-0.08477 5.013-0.26203 8.9808-0.93544 12.348-0.03708-1.4047-0.35387-3.0057-0.46772-3.4611-3.1904 3.734-4.6304 7.5826-4.6304 9.4714 0.3193 0.54935 3.7126 2.9582 3.7126 3.7026 0 2.074 4.2347 5.2269 4.6964 5.6885-1.4066-0.30832-1.8425-0.70866-2.1828-0.79375 0.21846 2.1515 3.0875 5.2661 3.638 7.7391 1.7677 3.7951 1.4597 10.478 1.5875 14.155 0.57887 2.0344 1.3688 2.9219 3.9688 3.5719-1.2849 1.3004-2.9944 1.5124-4.1672 0.92604 0.6243 0.9345 0.48458 2.3294 1.2791 3.0265 1.2152 1.0663 3.1111 0.83453 3.8141 1.5376-1.7578-0.0278-3.1302 0.28654-4.3667-0.39497-1.1301-0.62286-2.1466-2.2083-3.2401-2.9785-1.3604-0.95812-1.8142-4.7807-2.5797-6.35 0.36175 0.83197 1.1459 1.7412 1.3229 1.9182 0.33051-1.4149-0.33508-2.0299-0.33073-2.712z" style="fill:url(#linearGradient2073)"/><path d="m80.433 115.23c-0.80486-0.20121-4.9207-1.7458-7.5406-4.3656-2.4972-2.8062-3.6293-3.2267-3.5719-7.0115-0.21486-0.67507-0.15121-1.4637-1.9443-0.46108-1.3102 0.7326-2.798-3.865-3.4249-2.0486-1.0859 3.1459-7.0764 12.432-12.49 12.432-0.39168 0 0.57776 1.6172 0 2.3812 2.9637 3.5251 4.2724 7.5362 3.0134 10.054 1.3593-1.0383 1.7045-2.504 1.7264-3.8218-0.50191 1.6088-0.39078 4.9694-0.96949 5.74-2.5932 3.4531 4.0465 6.8708 4.5641 9.4588 0.09722-2.3304-1.676-2.822-0.66146-3.8365 2.5344 2.2128 3.8823-0.47805 4.4979 1.9844 0.0191-1.434 0.16088-1.9701-0.66146-2.3812 2.1629 0.11724 2.1862-0.26798 2.9104-0.92604-1.9931-0.0599-3.1296-1.8521-4.9609-2.5135-0.04522-2.3788 0.31945-5.6113-0.04834-8.2888-0.29827-2.1714-1.2594-3.9099-1.8699-5.0726 2.0978-2.5619 4.7691-4.7356 6.0854-7.4083 1.3412 0.20676 1.6193-0.74033 2.3586-0.17906 2.736 3.5262 7.0062 7.2027 9.6375 8.0845-0.81769 4.4669 1.2043 9.0211 1.7315 11.13 0.09845 3.4862-0.74515 4.3721-2.4875 4.8065-1.4145 0.35267-2.8235 1.7695-3.1042 4.2294 1.7714-0.64355 2.165-2.6245 3.3574-2.6713-0.0441 0.4049-0.29515 0.94755-0.13229 1.548 1.1673-1.2336 1.8618-1.1817 2.9265-1.7464 1.2995-0.68918 2.0867-1.1831 2.9104-1.3891 1.406-2.654 1.454-6.8839 0.13229-12.171 0.98356 2.1769 2.09 3.3862 2.7781 4.7625-1.2089-7.2376-3.7714-7.841-4.7625-10.319z" style="fill:url(#linearGradient2063)"/><path d="m121.15 82.182c3.1649 1.1333-0.23997-4.2418-2.1492-4.6423 0.58362-0.14591 0.77903 0.43545 2.5791 0.42984-1.0434-2.5819-7.0114-4.7839-9.8864-7.5653 0.93036 0 1.0754 0.14295 2.209 0.4246-2.166-2.0506-5.2986-3.601-5.9574-6.5652 0.83362 0.52213 1.451 0.93108 2.0668 1.459-0.029-2.8194-1.9398-6.8848-3.5258-9.4224 0.67385 0.14225 3.3073 2.6959 3.7081 3.0395-0.14268-2.3493-4.9529-5.828-6.8705-8.4023 1.3743 0.56919 2.5855 0.20198 3.6918 0.97523-0.36575-0.84281-7.3864-2.4602-10.048-4.0988-2.6782-1.6486-4.8798-2.3348-5.0901-3.9522 3.0646-0.54848 9.0266-0.10364 12.004 0.57509 1.5331 0.34943 3.4857 2.104 4.313 2.4511-0.82436 0.0632-1.5466 0.31393-2.1286 0.46801 3.5206 1.7672 4.5762 3.5638 5.6481 4.9931-0.84271-0.96478-2.8455-1.9321-3.5258-2.31 3.5131 4.2908 4.5459 9.576 4.7459 13.313 0.0915 1.7098 4.4942 5.3452 6.0268 7.1332-0.94908 0.0837-1.1703-0.1667-2.1953-0.1667 6.6275 2.8106 10.09 10.09 10.918 10.918-1.3831-0.23265-1.9468-0.60179-2.837-0.60179" style="color:#000000;fill:url(#linearGradient31244)"/><path d="m102.59 84.966c-0.93054-1.2759-1.2076-3.499-2.6747-4.2552-1.2982-0.66921-1.8402-3.3827-1.9453-5.1063 0.19118 0.76472 0.9878 1.7257 2.2492 2.9787-0.0131-0.0523-0.54971-1.1775-0.48632-2.1276 0.1717-2.5734-0.69258-6.4426-0.85105-7.2339 1.249 0.62451 1.8764 1.9383 4.4899 1.687-1.121-0.24883-4.7258-3.4629-4.9814-6.0188 0.79982 1.4536 1.5018 1.8477 3.0767 2.1977-1.1664-2.7858-2.4517-5.2967-2.4517-8.0862 1.3686 0.0746 2.3711 1.4037 3.1344 2.2943-1.4044-3.6255-2.3023-7.8592-5.1359-11.142-1.6794-1.9453 3.683-1.7986 1.4955-1.7986-1.4412-1.3854-3.8281-2.6263-5.5152-3.3012 0.56162-1.7842 2.0689-2.3253 3.4511-3.1892-2.5637 0.48585-8.6834 0.86415-10.26 2.7029-1.7373 3.2346-21.117 10.67-20.359 13.595 2.3527 0.9411 25.093-2.1297 27.375-0.40535 2.2159 3.5454 3.8088 8.9043 3.1121 13.122-0.71491 3.3844-1.2075 7.258-1.2009 10.5 0 1.4826 0.5471 3.9197 0.5471 4.8632 0.27042-0.71739 0.39804-1.4148 1.0942-1.7629-0.0191 1.2228-0.17336 6.1037 2.6747 9.3616" style="color:#000000;fill:url(#linearGradient31207)"/><path d="m6.8968 75.047c2.3362-2.8052 6.3592-5.0545 7.1354-4.7283-1.9945 0.85266-3.0322 1.8799-3.7826 2.3872-2.2601 0.37208-1.4559 0.58383-3.3528 2.3411z" style="fill:url(#linearGradient20440)"/><path d="m115.73 80.958c-0.32016-1.4072-1.0162-4.3261-1.4615-4.7713-2.4182-2.4182-5.162-3.583-5.8459-6.3187-0.0264 4.3475 3.0146 5.2237 4.4274 8.0811 0.086-1.4185-0.68775-2.4071-0.68775-2.4071 1.2714 0.86396 2.2151 4.0634 3.5677 5.416z" style="fill:url(#linearGradient20430)"/><path d="m109.2 74.457c5.3043 0.16494 11.698 3.2587 16.635 3.3098 1.4356 0.0148 4.0924 3.3394 4.2555 6.1468 0.12805 2.2042-1.3429 2.3404-1.2895 3.8686 0.0503 1.4414 0.329 2.9445-0.13686 4.1985-0.60449 1.6271-2.2939 2.855-2.2703 3.6677 0.0976 3.3579-1.7914 3.6417-1.8913 4.9962-0.173 2.3443-0.35332 2.3676-0.94566 3.2998-1.3743 2.1627-4.8907 2.751-6.6196 2.751-4.4006-0.85797-6.5311-1.9395-8.8548-1.9773-4.6973-0.0763-5.9097-2.9258-5.4161-4.9002-3.9126-0.75604-3.6592-6.5836-2.1492-8.5969-0.33902-0.17688-0.40384 0.32875-0.62942-0.34945-2.0731 0.55237-4.2182-1.105-3.5327-2.5559 0.73386-1.5533 3.1779-7.0704 4.2222-9.5644 0.82165-1.9622 1.9796-3.438 2.7438-2.6738 1.4276-1.8081 4.507-1.6631 5.879-1.6204z" style="fill:#e4cba4"/><path d="m116.35 105.83c-0.48044 0-1.8253-2.7971-5.2715-2.9892-3.25-0.18118-7.7691-1.7924-8.0238-3.3608 2.115 1.0575 5.4029 1.6058 11.245 1.4552 1.219-0.0314 7.5648-1.0206 7.1719-1.7128-0.36092-0.6359-3.8869-0.56665-4.3605-1.4543-1.8639-3.4932-12.452-3.0548-14.982-5.6965 1.9097 0.95483 1.5908 0.89554 5.8208 1.1906 2.0759-0.50474 7.2861 0.0632 11.377 1.6647 1.4293 0.55949 5.2232-3.1378 5.4215-4.2958 0.1147-0.66966-4.7798-0.14964-4.9268-1.2374-0.13992-1.0351-3.7159-1.763-7.5357-2.914-2.847-0.85789-6.7292-1.5509-7.0485-2.4778 5.8002 0 14.64 1.1562 16.933 2.3151 2.3635 1.1944 2.9187-0.57257 7.3422-2.0505-0.29833 2.0161-0.19112 4.9814-0.76922 7.3149-0.39678 1.6016-1.4663 2.9056-1.8105 3.4007-0.0871 1.0796-0.39622 2.4208-1.0198 3.5275-0.48951 0.86884-1.2997 1.517-1.4938 2.2934 0.064 0.42716 0.40599 1.7624-0.5528 2.9949-1.8367 2.3612-5.2472 3.1113-7.517 2.0321z" style="fill:url(#linearGradient2193)"/><path d="m96.312 70.908c0.57181-4.1741-0.57831-10.107-3.1482-13.105-7.4586-5.594-22.419-2.584-25.814 1.082-2.1803-3.8267-17.356-6.1847-25.511-1.9212-3.4833 2.89-4.5887 10.95-3.7905 13.945 0.95201 3.5714 3.8408 10.761 6.6751 11.875 1.3467 0.42643 3.2351 0.75735 4.7712 0.98884 0.30038 0.90967-0.57755 2.67 1.673 4.1306 0.56438 2.4041 1.7003 4.7628 6.5985 5.2349 3.8026 0.36647 8.1657 0.30621 9.9024-1.4521 1.2228 0.4307 3.7663 2.0412 8.1505 1.6226 1.7364-0.16577 6.0049-1.2316 6.7481-5.499 1.8352-1.1606 1.8172-2.5338 1.7926-4.0654 3.5105-0.46435 6.2129-1.1785 8.5923-4.0553 1.9208-2.3223 2.9788-6.0005 3.3597-8.7806z" style="color:#000000;fill:#e4cba4"/><path d="m67.782 92.014c-1.7761 0.88807-4.5046 1.5464-6.6266 1.2232 5.0603-0.50936 3.9164-3.3454 3.1351-4.2848-3.9125 0.94566-10.13 1.4739-13.193-1.0082 4.8993-0.39733 10.795 1.1199 12.887-0.97263-0.03676-0.46452 0.83166-3.3874-0.36474-4.0729 0.60285-0.1666 2.8199-0.97231 3.3762-1.3139 2.1223 0.7214 3.5246 0.99334 4.3967 1.0715-2.3791 1.0221-2.1836 3.4991-1.0656 3.9123 1.5774 0.58296 6.6093 1.5998 9.1352 1.0655 1.5367-0.32504 1.982-1.3586 2.5455-3.3588 0.85541-0.28274 2.0964-0.0688 2.4019-0.2216-0.36695 2.2685-1.1512 3.3102-1.7629 3.7689-0.21718 4.5234-2.4952 4.0135-4.9239 5.2279 0.8055-1.1317 1.8962-1.8708 2.1884-3.0395-6.7131 0.37105-6.6903-0.35393-8.5105-0.72947-1.1856-0.24462-1.1088 1.8089-1.5551 3.4818-0.95093-0.29195-1.1173-0.52003-2.064-0.74931z" style="fill:url(#linearGradient20418)"/><path d="m96.357 69.49c-0.27644-4.7201-0.09385-7.3386-3.2116-11.693-2.1241-1.8908-6.8198-3.7332-13.597-2.9053-2.8953 0.35368 8.0804 2.7604 10.878 4.5584 1.3069 0.83995 2.1435 8.3579 1.7612 11.458-0.43994 3.5677-2.5004 8.3856-4.4802 9.2104-4.0445 1.685-17.281 1.6098-19.496-1.3123 0.0307 0.88068-0.9685 2.4954-0.70651 2.9457 3.8963 1.0481 9.0137 2.3271 13.067 2.3212 4.9558-7e-3 8.2527-0.71949 10.574-2.665 4.2224-3.5387 5.317-10.106 5.2108-11.918z" style="color:#000000;fill:url(#linearGradient31234)"/><path d="m24.95 80.978c0-5.3398 5.721-3.3957 8.7688-10.23-0.78066 0.78066-0.74059 1.6313-3.3162 1.7936 0.7957-1.5914 3.9409-5.179 3.5187-6.6266 0.6595-2.1984 1.2106-4.3679 3.0767-6.3-1.4475 0.32167-3.2425 0.69233-4.4813 1.938 0.81937-2.4286 2.6053-4.7345 4.9209-6.1868 1.7842-1.1201 2.2728-3.2258 3.3698-4.6884 1.4937-2.2312 3.7761-4.069 5.8956-5.3937-0.581 2.8208 18.185 6.6034 22.325 9.7545 0.66093 0.50305-2.7238 2.0563-2.7238 2.456-4.0631-1.388-16.594-5.5762-24.618-0.22378-3.0284 2.5958-3.792 7.9003-3.756 13.637 1.1087 5.3843-0.14546 11.05-1.3747 13.509 0.086-1.5904 0-4.6423 0-4.6423 0.21472 1.7866-1.1896 6.1771-1.5474 7.6083-4.5802-1.586-9.0808-6.6002-10.058-6.4047z" style="color:#000000;fill:url(#linearGradient31183)"/><path d="m66.989 81.666c-8.2729 2.0724-13.485 3.1756-22.008 1.2036-0.74522-0.17244-1.0208-0.67973-1.7194-1.7194 6.0985 3.0487 18.945 0.88787 20.547-2.3212 0.96633-1.1176 1.3252-5.9036 1.3203-7.9209-0.0086-3.5591-0.83179-9.4084-1.5862-10.834-2.7244-2.0433-5.6635-4.8039-10.167-4.7685 5.5166-0.18586 10.734-0.16415 13.878 3.5037 1.1019-1.5294 6.2874-3.9454 7.9528-4.3155-2.7104 1.5265-4.9469 4.3429-5.9337 5.4942 0.55201 4.053-0.92023 9.6278-0.92023 10.92-0.09704 4.4716 0.03468 6.6001 0.70054 8.2647 0.70521 2.0903 4.463 2.9598 6.2197 4.3666-2.9034-0.20028-7.5014-1.092-8.283-1.8735z" style="color:#000000;fill:url(#linearGradient31197)"/><path d="m45.508 93.266c0.3803-1.6538-0.31244-5.7913-1.9844-8.3344-0.1659 0.66361 0.20403 0.61781-0.06615 1.5214-1.1495-1.6216-5.0467-4.2522-4.8948-9.7896 0.25007-0.91849 0.03731-1.4637 0.46302-2.3151 1.9155 5.6241 3.6717 6.5821 5.1594 8.0698 3.3444 0.75865 5.0289 9.948 1.3229 10.848z" style="fill:url(#linearGradient2083)"/><path d="m34.236 31.652 63.834 0.17756" style="fill:none"/><path d="m3.6545 88.524c1.0319-3.1291 5.2638-7.3354 7.8088-7.5093 7.2234-0.49354 7.6601-1.6838 10.586-1.7575 6.3383-0.15966 8.0882 1.4371 11.42 2.487 0.96445 0.30396 2.8478 11.136 2.8571 11.611 0.0162 0.83482-1.2791 1.165-1.3982 1.6413-0.0247 2.6945-0.8503 3.1603-1.5805 3.8905 0.99763 2.383 0.54632 6.5052-2.9179 8.7537 0.12168 2.1299-0.21097 2.1712-1.2613 3.1336-2.1986 2.0144-6.2066 2.09-9.6338 2.3629-1.7852 0.14215-3.4129 0.83451-4.5453 0.82565-2.3528-0.0184-7.5643-3.2-9.0904-6.5838-2.0295-4.5001-3.3671-15.45-2.2442-18.855z" style="fill:#e4cba4"/><path d="m13.692 112.15c0.68762 0.0322 1.7027-0.61336 3.5135-0.76088 1.2797-0.10425 3.2307-0.54933 4.2482-1.0581-3.4207-0.29278-4.1885-0.15784-3.8899-1.3523 2.4589-1.5593 7.6144-1.7816 9.5557-2.5069 0.66736-0.24932 1.3428-0.82095 1.9844-1.1679 1.0006-0.54113 2.218-3.3607 1.4165-3.8619-0.57766 0.0456-1.7807 1.2259-3.0472 1.5045-1.9822 0.43594-4.2556 0.0189-5.5702-0.0153-3.8202-0.0993-5.0115 0.021-5.499-0.27308-1.3144-0.16135 0.24494-1.0734 1.1239-1.6116 2.2527-1.3793 14.487-0.1538 14.487-5.6645 0-0.55796-0.43156-1.3175-1.0597-1.9456-1.7061 0.72814-2.6032 0.95687-4.0507 1.0339-3.9081 0.20809-6.8676-0.67581-9.3094-0.67581 2.0868 0.0439 2.5968-1.3229 3.8365-1.3229 3.7916 0 5.9698-1.0245 6.3566-1.2587 1.0816-0.65481 2.6312-2.2832 2.9586-2.6071 0.57637-0.57014 0.94144-2.9532 0.6728-4.7426 0.11155 0.25214 0.48516 0.82995 0.53822 1.073 0.19579 0.89687-0.15191 1.9368 0.0571 2.7729 1.9521-0.33496 2.3942-1.0908 2.5135-1.8521 0.2616 4.284 3.5708 8.1058 0.39688 9.4622-0.0476 2.1566-0.93554 2.7796-1.8521 3.2378 2.3353 3.4977-1.1541 7.9101-2.7781 9.1281 0.37024 1.3493-1.3744 3.2163-2.1737 3.8885-2.2367 1.8807-9.5835 1.5327-9.9957 1.7212-0.60811 0.27806-2.3374 0.34938-2.9251 0.35813-2.5774 0.0384-7.9327-3.8454-9.5-6.7405 1.7859 2.1828 6.9327 5.1879 7.992 5.2375z" style="fill:url(#linearGradient2181)"/><path d="m34.685 110.29c-0.28536 6.7734 1.1048 7.7916 2.6747 9.3616 0.05133-0.95751-0.26066-1.1212-0.39794-1.6703 0.9923 1.0682 2.1515 2.5311 2.1515 4.2095-0.31161-1.0491 0.48287-2.6825 0-3.6482-0.41059-0.82118-2.4387-1.9776-2.8063-2.7128-0.13257-0.26514-0.11929 1.4497-0.23978 1.1357-0.73723-1.9216-1.3695-6.5174-1.3822-6.6754z" style="fill:url(#linearGradient2115)"/><path d="m45.748 110.53c0.77642 5.426-1.6775 6.5885-2.4316 9.6047-0.09292 0.93398-0.37734 2.1375 0.28635 2.8012 0.20344-3.9743 1.5864-4.535 2.2451-4.8643v0.74836c0.65279-2.9322 0.93544-3.1154 0.93544-6.1739 0-0.63825-0.75283-0.89325-1.0353-2.116z" style="fill:url(#linearGradient2099)"/><path d="m86.084 110.99c0.01333 4.5531 0.84606 4.4934 2.1884 5.8358-0.79195 0.19111-1.5652-0.3239-1.639-0.34233 0.49759 1.9922 0.46772 2.2799 0.46772 3.274-3.2024-3.3873-0.68576-7.9317-1.0172-8.7675z" style="fill:url(#linearGradient2107)"/><path d="m24.351 65.452c-4.8751 2.6988-6.9906 3.8898-7.5379 6.0789 1.0509-0.63951 2.291-1.8493 3.161-2.0668-2.1779 2.1352-2.7124 2.5068-3.8905 4.8631 2.6995-4.2734 7.3533-5.2192 8.2674-8.8752z" style="fill:url(#linearGradient20597)"/><path d="m97.527 90.891c0.54268 1.3844 1.1984 1.7935 1.6553 2.7073" style="fill:none;stroke-linecap:round;stroke-linejoin:round;stroke-width:.52917;stroke:#000"/><path d="m49.684 142.49c-0.9019 0-2.0197 0.56127-3.7418 0.56127-0.99204 0-1.1599 1.1112-2.7412 1.0781-0.97515 0.21048-2.0599 1.6481-3.6114 1.5943-0.31485-0.0109-0.5861-0.2669-0.85031 0.13395-1.1254 1.7074-2.8285 2.8614-8.265 2.1846 1.135 1.4506 2.1338 2.212 3.6813 2.212 3.5047 0 5.0491-1.1341 5.5191-2.074 2.6163-0.10133 4.3893-2.2663 5.6344-2.35 1.3594-0.0913 1.9487 0.017 2.7241 0.017 0.06264-1.353 2.2336-2.1915 1.6507-3.3572z" style="fill:url(#linearGradient2161)"/><path d="m21.217 147.3c3.1636 2.5001 8.2096 0.81332 8.916 0.33268 1.0708 0.52482 0.52354 1.3609 1.1693 1.6838-2.1111 1.0407-5.278 1.4307-7.4976 0.55763-1.2403-0.48787-1.9345-1.8023-2.5878-2.5741z" style="fill:url(#linearGradient2151)"/><path d="m56.555 100.48c-0.26039 0.57445-0.54353 1.0324-0.7276 1.1245-1.5443 0.77214-4.4946 4.359-5.1594 5.6885 0.97941-1.3625 1.6249-1.4926 2.4474-2.3151-0.16394 1.3901-0.50035 1.6248-1.0583 2.1828 2.7884-1.5791 4.4979-6.1316 4.4979-6.6807z" style="fill:url(#linearGradient2203)"/><path d="m49.179 144.86c0.65087-0.95036 1.7943-2.7022 2.6789-2.7781 2.9621-0.25425 5.7238 0.3249 5.8208 1.819 0.10144 1.562-1.9893 2.9435-2.712 2.9435-1.7664-1.0693-3.2937-0.91633-4.9279-1.0253-0.5335-0.0356-1.2477-0.39287-0.8599-0.95911z" style="fill:#f5dfcf"/><path d="m80.209 145.81c-0.0085 1.8639 0.26608 3.2319 0.8118 3.3706 0.47558-0.0502 3.183-0.54424 3.6531-0.5503 2.0393-0.0262 2.6937 0.3208 3.8222 0.5503 0.77292-0.0572 0.73894-0.65051 0.64268-1.0318-0.29506-1.1687-0.7679-2.401-0.87945-2.8547-0.30478-0.36458-2.3341-0.93323-4.2956-0.9227-1.9514 0.0105-3.836 0.59699-3.7548 1.4386z" style="fill:#f5dfcf"/><path d="m32.444 140.13c1.895 0.32233 2.9291 2.121 3.0758 2.4143-0.48518 0.95742-2.0218 1.7084-2.282 1.7198-2.0058 0.0875-3.3622-0.73821-3.7372-1.4883-0.10902-0.62734 1.9902-2.4118 2.9435-2.6458z" style="fill:#f5dfcf"/><path d="m23.217 144.66c1.3733-0.12053 2.0774-0.58907 2.7781-1.2898-0.19852-1.6484-1.0876-2.1809-1.5544-2.4143-1.0721-0.0497-2.27 0.8907-3.0096 1.5875-0.1455 1.2309 0.85679 2.349 1.7859 2.1167z" style="fill:#f5dfcf"/><path d="m20.307 140.3c0.2256 1.3458 0.74987 1.7605 1.819 1.6867 0.96969-0.0669 1.1984-0.5496 1.9513-0.92604 0.13038-1.3941-0.55978-1.9819-0.72761-2.1497-1.124 0.15767-2.3019 0.63947-3.0427 1.3891z" style="fill:#f5dfcf"/><path d="m104.7 147.25c0.13716 1.6637 2.4529 2.5071 2.6045 2.5107 2.2063 0.0523 3.0674-0.9885 3.2134-1.5821-0.0889-1.8464-1.2563-2.2191-1.7251-2.8547-2.8449 0.0457-3.9501 1.2004-4.0928 1.926z" style="fill:#f5dfcf"/><path d="m112.14 144.71c0.2743 1.1174 1.2192 1.9866 1.7927 2.1324 2.3413 0.0771 2.9043-0.91922 3.2134-1.7541-0.29746-1.4958-2.0112-2.1112-2.2324-2.2012-2.4572-0.0579-2.042 1.6369-2.7736 1.8229z" style="fill:#f5dfcf"/><path d="m119.04 142.44c-0.92683 0.20321-1.4476 1.2251-1.3291 1.8278 0.44691 0.96035 1.128 1.5691 1.5659 1.6804 1.199 0.0876 1.3958-0.31872 1.7927-0.72227-0.19176-1.779-1.4701-2.6437-2.0295-2.7859z" style="fill:#f5dfcf"/><path d="m120.5 143.73c-0.52928-0.65558-1.6618-1.8023-2.0091-2.0672 0.0631-0.43017 0.17349-0.71594 0.51423-0.80256 1.0705 0.62486 1.666 2.1005 1.4949 2.8698z" style="fill:#f5dfcf"/><path d="m98.069 89.05c0.70754-0.98669 1.1728-2.9905 1.4266-3.6248-0.06761-0.6649-0.98637-1.1225-1.2395-1.1225-0.79037 1.3031-1.7443 3.8669-1.9644 4.7474 0.42882 0.46865 1.321 0.63634 1.7773 0z" style="fill:#f5dfcf"/><path d="m33.635 90.025c0.19955-0.97955 1.1373-1.5163 1.5544-1.6206 0.68487 1.8753 1.6519 3.5754 1.1245 4.9279-0.19443 0.49858-1.3381 0.69453-1.4552 0.69453 0.64327-0.33248-1.0807-4.5738-1.2237-4.0018z" style="fill:#eaceac"/><g transform="translate(0 -138.25)"><path d="m64.294 271.67c0.43006 0.43006 0.66823 1.8894 0.92604 2.7781 1.5802 5.4475 0.45879 6.9379-1.1314 8.3264-0.68027 0.59397-2.6139 1.6356-2.7563 3.3468-0.13152 1.5797-1.0508 2.8708-2.3554 3.8965-1.7446 1.3717-4.9015 1.2006-7.1106 0.47999-2.4109-0.78648-3.714-2.876-3.7119-6.3944 0.0013-2.07 1.8352-2.2874 2.73-4.6596 0.99896-2.679 3.2493-2.8191 4.3187-3.0998" style="fill:none;stroke-linecap:round;stroke-linejoin:round;stroke-width:.52917;stroke:#000"/><path d="m49.59 284.1c2.5203-0.21569 4.4808 0.41628 5.332 0.8419 1.4713-0.19697 3.1656-1.9629 2.6192-3.274-0.5464-1.3111-4.7469-1.7646-5.9868-1.2161-1.2399 0.5485-3.3759 3.2954-1.9644 3.6482z" style="fill:none;stroke-linecap:round;stroke-linejoin:round;stroke-width:.26458px;stroke:#000"/><path d="m38.454 214.52c1.1938 7.4212 4.95 9.5952 4.99 10.34 0.25195-0.24303 0.09693-1.2037 0.1112-1.5822 1.2471 1.6783 2.1974 3.1336 2.1065 7.7281-0.34204 1.0432-2.4846 3.502-3.4228 4.3793-2.0451 1.9124-5.1896 5.3559-7.0623 9.9688-0.82028 2.0206-1.6923 4.1748-2.006 6.23-0.25306 1.658-0.0549 4.6342-0.26164 5.3263 0.59502-0.69858 0.92508-1.0429 1.1682-2.5122-1.4596 6.4375 1.7055 9.7318 1.7055 12.626 1.1744-1.4321 0.34231-3.8319-0.12895-5.631 2.49 4.9593 4.3479 9.1971 0.73074 11.047 1.258 0.13808 1.8354 0.14192 2.4071-0.47283" style="fill:none;stroke-linecap:round;stroke-linejoin:round;stroke-width:.52917;stroke:#000"/><path d="m42.617 267.72c0.59548 3.0705-1.2091 3.0477-3.2538 3.8192-0.8775 0.33111-1.5233 2.3764-1.7754 2.6285 2.5322-1.7927 4.0005-0.80413 5.9319-1.1176 0.95464-0.15494 1.7315-0.46511 2.1492-0.94566" style="fill:none;stroke-linecap:round;stroke-linejoin:round;stroke-width:.52917;stroke:#000"/><path d="m45.841 270.47c-0.05292 2.6348-0.66988 3.2919-1.8913 4.0406 4.3777 0.43098 3.5915-1.7194 5.588-1.7194" style="fill:none;stroke-linecap:round;stroke-linejoin:round;stroke-width:.52917;stroke:#000"/><path d="m38.147 267.5c-0.29016 2.1446-2.6588 1.6832-4.4698 1.9076-0.75147 0.0931-1.6837 0.55595-1.8919 0.97233 1.6122-0.69631 3.3138 0.12789 4.3414 0.64171 0.44816 0.22408 1.9218-0.0962 2.1731-0.37211" style="fill:none;stroke-linecap:round;stroke-linejoin:round;stroke-width:.52917;stroke:#000"/><path d="m49.108 272.79c-0.36872 0.89473-0.31587 1.6614 0.08597 2.0633 1.3177 1.3177 2.8567 0.38333 3.0519 1.9343 1.9816-1.5869-2.4446-3.2467 2.2782-4.4274-0.27427 3.6402 3.6946 1.5003 4.7283 3.5677 1.3651-0.68243 0.28436-2.4667-0.45134-3.0734-0.26713-0.22031 0.01307-0.78679 0.49432-0.79521 0.7082 0.92913 0.94814 1.1733 2.2997 1.0961 0.90656-0.0518 1.6765-0.75195 2.0418 0.70925 0.24427-0.26407 0.41857-0.62311 0.34388-1.397-0.08598-0.89083-1.2267-1.4516-2.665-2.1707" style="fill:none;stroke-linecap:round;stroke-linejoin:round;stroke-width:.52917;stroke:#000"/><path d="m48.044 284.17c-1.9561-0.22936-1.9825-0.10689-2.4391-0.0363-2.6565 0.10846-3.3592 2.5094-6.0323 2.2636-1.8557 2.5037-5.5745 2.0819-6.4825 1.9752-2.3158-0.27217-4.287-3.9484-3.9302-6.7495 0.14559-1.143 1.777-2.7017 4.0288-3.5802 0.72115-0.28135 2.9192-2.0825 3.1068-2.1673 2.4634-1.1137 3.1407-0.15246 4.6485-1.1562 1.2528-0.83393 2.4055-0.89386 3.5717-0.60229" style="fill:none;stroke-linecap:round;stroke-linejoin:round;stroke-width:.52917;stroke:#000"/><path d="m31.326 287.54c-2.287 1.3194-6.1489 0.89717-6.758 0.79213-2.38-0.41043-4.6282-3.5125-3.9992-6.2979 0.44637-1.9766 4.0516-3.0157 5.416-3.5879 1.6635-0.69761 3.3693-2.3503 5.2109-3.1388 2.6743-1.145 4.6053-0.34603 6.8667-1.8042" style="fill:none;stroke-linecap:round;stroke-linejoin:round;stroke-width:.52917;stroke:#000"/><path d="m20.869 285.06c-1.041-0.86061-1.5876-3.061-1.5504-4.446 0.0588-2.1924 2.3818-3.0148 4.2033-3.6726 1.2017-0.43401 2.3416-1.209 2.3883-1.2858 0.55555-0.91328 2.8903-1.7984 3.6371-1.84 2.2065-0.12282 5.5211-1.2479 6.2144-1.3613" style="fill:none;stroke-linecap:round;stroke-linejoin:round;stroke-width:.52917;stroke:#000"/><path d="m21.825 277.54c-0.12955-1.4591 0.12796-1.9126 2.1776-2.6405 1.3409-0.47621 2.0732-0.83574 2.8893-1.692 0.82244-0.86302 5.0072-0.74479 6.7023-1.6356 0.5153-0.27082 1.4756-0.57477 2.2961-0.70394" style="fill:none;stroke-linecap:round;stroke-linejoin:round;stroke-width:.52917;stroke:#000"/><path d="m95.022 220.27c-0.25775 1.9168-0.57837 3.9701-0.38572 5.2787-0.7135-1.3515-0.20553-2.2761-0.65071-3.7379-1.9496 3.5405-4.2781 6.0618-4.5721 9.814 0.6296 0.87644 3.2168 2.7454 4.3408 5.0392 1.0925 2.2295 3.7007 4.021 4.2664 4.797-1.016-0.81117-2.0017-1.0216-2.6155-1.3921 2.4782 4.4624 4.4883 8.1531 5.175 12.262 0.6132 3.5147 0.35797 9.0909 0.35797 9.7411 0.18725 1.3549 2.1985 3.7703 4.3656 3.7703-2.1333 0.91743-2.4658 1.4506-4.0349 1.0583" style="fill:none;stroke-linecap:round;stroke-linejoin:round;stroke-width:.52917;stroke:#000"/><path d="m89.841 285.5c1.1746 0.44999 2.0729-0.41767 2.8285-0.29914 1.6008 0.2511 2.6079 1.2172 4.1474 1.2172 0.05142 0 1.3173 3.3968 5.7903 5.4251 4.8332 2.1916 8.4332-3.0439 8.0964-5.4624-0.14087-1.0115-1.0642-2.0292-1.8728-2.8058-1.3655-1.5857-1.5142-2.6223-2.9426-3.4018-1.3838-0.75521-2.5077-0.65639-3.4547-1.8706-0.96481-1.2371-2.1535-1.7243-4.6131-1.8773" style="fill:none;stroke-linecap:round;stroke-linejoin:round;stroke-width:.54573;stroke:#000"/><path d="m108.91 291.17c1.5733 0.72111 4.1633 0.70397 5.0678 0.24072 4.3512-2.2285 4.0613-6.4372 3.1512-8.2625-0.32109-0.64399-1.4263-1.581-2.3689-2.1954-1.7646-1.2441-2.4357-3.1891-5.3747-3.6763-2.1676-0.35929-3.7933-1.2842-4.4347-1.8729-1.6127-1.4802-4.1297-0.83955-4.6118-0.59446" style="fill:none;stroke-linecap:round;stroke-linejoin:round;stroke-width:.54573;stroke:#000"/><path d="m76.957 255.56c-0.63642 4.5323 1.4331 9.2866 1.8103 10.519 0.28239 0.9224-0.05828 3.7697-0.41659 4.2856-0.69822 1.0053-1.8552 0.78724-2.4204 1.1705-1.661 1.1264-2.8372 3.2064-2.8372 4.5036 0.72713-0.57426 1.7463-1.68 3.6771-1.9312" style="fill:none;stroke-linecap:round;stroke-linejoin:round;stroke-width:.52917;stroke:#000"/><path d="m77.294 273.29c-1.5788 1.5752-2.0606 4.4342-1.2396 5.2691 0.11438-2.4201 3.0486-2.5562 4.935-3.0471 1.2533-0.32612 2.3741 0.24167 2.6223-0.39964" style="fill:none;stroke-linecap:round;stroke-linejoin:round;stroke-width:.54573;stroke:#000"/><path d="m83.065 273.96c0.33561 1.5238 2.2352 1.4347 2.2352 3.2668 1.0553-1.0348 2.1301-0.85963 2.6029-3.0076 4.0527-8e-3 5.1485 2.2481 6.2519 3.3515 0.37498-4.0018 0.29085-3.2767-0.64494-4.2125 2.9654-0.53508 4.1048 1.4979 6.739 0.93663-1.1592-0.57276-1.1928-1.4506-2.0614-1.6678 1.4078-0.46334 4.2722 1.1753 6.7852-0.76068 0.82835-0.26637 0.97211-0.39687 1.5214-0.39687-0.40286-0.35958-0.65404-0.80049-1.6536-0.8599-2.5528-0.15173-3.6035-1.4493-4.2334-4.531" style="fill:none;stroke-linecap:round;stroke-linejoin:round;stroke-width:.52917;stroke:#000"/><path d="m78.481 281.48c0.57537-0.10968 1.0104-0.21464 2.98-0.82258 2.0057-0.61909 5.7063-0.0986 7.0483 1.293 0.98538 1.0218 1.2138 3.1619 1.4351 3.8029 0.47166 1.3661 0.9961 2.7362 0.92545 3.8557-0.21722 3.4419-2.5092 5.0951-7.5091 4.7431-6.8672-0.48347-5.3955-5.174-7.0086-8.2251-0.86322-0.47842-1.4392-1.2092-1.7473-3.1491-0.31208-1.965-1.1466-4.9472 0.98217-8.387" style="fill:none;stroke-linecap:round;stroke-linejoin:round;stroke-width:.54573;stroke:#000"/><path d="m88.767 280.86c-0.16949 0.53049-0.19121 0.91811 0 1.307" style="fill:none;stroke-linecap:round;stroke-linejoin:round;stroke-width:.27287px;stroke:#000"/><path d="m93.163 196.05c-7.4586-5.594-22.419-2.7305-25.814 0.93545-2.1803-3.8267-17.045-6.2454-25.511-1.7747-3.4833 2.89-4.4184 9.7435-3.7093 13.001 0.29817 1.3697 0.26945 3.2491 0.75533 4.5722 1.0967 2.9866 3.0552 5.2512 4.8066 7.4302 2.0627 2.5662 14.738 2.8714 23.192-0.24316 11.519 3.1711 17.442 2.9352 22.949 0.44418 2.4702-1.1175 5.2454-4.2182 6.4258-11.328 0.88197-5.3122-0.52432-10.039-3.0943-13.037z" style="color:#000000;fill:none;stroke-linecap:round;stroke-linejoin:round;stroke-width:.52917;stroke:#000"/><path d="m84.684 221.99c-0.43455 1.6744-0.45521 3.055-1.9895 4.079-0.54033 3.4409-2.3327 4.0992-3.9562 4.9611-2.4334 1.2919-6.5777 0.72195-11.107-0.67836-2.9742 1.5703-6.7637 1.5407-10.701 0.94025-2.1578-0.3291-4.5247-0.80478-5.7106-4.835-0.47774-0.50656-1.7228-2.1473-1.7676-4.3871" style="fill:none;stroke-linecap:round;stroke-linejoin:round;stroke-width:.52917;stroke:#000"/><path d="m117.95 225.99c-0.89195-1.8248-7.447-3.2149-8.9785-3.3981-4.1046-0.49094-3.5112-0.23769-5.9574-1.3374-1.1022-0.4955-1.1651-2.0142-0.97263-3.0395 0.50276-2.6781 1.0791-3.8995 2.0078-4.6114 2.1686-1.6621 3.3866-0.91158 5.7178-0.83019 3.3786 0.11796 7.6771 1.8948 10.278 2.5028 1.795 0.41968 6.6373-0.42357 8.2994 2.9006 0.73798 1.4759 1.9342 2.6603 1.6665 4.2491-0.27895 1.6555-1.6283 2.2229-1.1888 4.1398 0.61905 2.7003-0.2545 4.6279-1.2045 5.7402-0.73541 0.861-1.0226 2.2802-1.2889 3.6266-0.37206 1.8816-2.0776 2.136-1.9513 3.7078 0.0944 1.1752 0.0535 1.3089-0.78324 2.7185-0.73899 1.2449-4.8275 2.291-6.6685 2.1233-1.4915-0.13583-5.381-0.91702-8.9684-1.3717-2.905-0.36819-5.1448-0.81521-5.1862-5.1406" style="fill:none;stroke-linecap:round;stroke-linejoin:round;stroke-width:.52917;stroke:#000"/><path d="m102.11 220.07c-0.58565 0.28899-1.248 0.31829-1.7329 1.2389-1.0008 1.8999-1.3546 5.4407-0.85585 7.1022 0.84673 2.8208 7.8998 3.0524 10.699 3.3243s4.1739 0.63665 5.115 1.5597" style="fill:none;stroke-linecap:round;stroke-linejoin:round;stroke-width:.52917;stroke:#000"/><path d="m100.22 229.64c-1.5026 2.1975-0.82073 4.8254-0.33711 6.0726 0.54409 1.4031 1.4672 1.7809 3.8456 2.5387 4.3544 1.3873 7.4087 0.98726 10.716 0.99348" style="fill:none;stroke-linecap:round;stroke-linejoin:round;stroke-width:.52917;stroke:#000"/><path d="m88.82 181.58c1.8754-0.33757 5.601-1.6389 8.0276-1.5895-0.99466 0.53131-2.4658 1.2505-2.6146 1.76 2.1591-0.16411 5.2655-0.0718 8.8991 0.8343 1.6574 0.41332 3.6915 1.8285 5.3767 2.7197-1.3189-0.0631-3.0506 0.014-2.6349 0.22453 3.0499 1.545 5.7459 3.1598 6.2982 7.0402-1.7542-3.7204-1.9456-3.563-4.43-4.7653 2.3472 2.6003 4.9313 7.3503 4.9943 12.255 0.0321 2.5034 1.6812 4.2741 5.1496 7.855 0.28064 0.28974 0.74133 0.76215 1.446 1.0745-0.53369 0.10486-1.5382 0.17763-2.4674-0.26393 2.9605 1.3179 5.3332 3.0593 7.8439 6.5455" style="color:#000000;fill:none;stroke-linecap:round;stroke-linejoin:round;stroke-width:.52917;stroke:#000"/><path d="m103.36 214.24c-1.248 0.16921-2.4142 0.85204-3.1363 3.159-0.37077 1.1846-0.68028 3.0138-1.6333 4.4255-1.4996 2.2213-2.0028 4.3893-2.1932 4.84-0.73773 1.7465 1.5474 3.1226 3.433 2.3323" style="fill:none;stroke-linecap:round;stroke-linejoin:round;stroke-width:.52917;stroke:#000"/><path d="m81.233 287.56c2.2616-0.64973 5.3114-1.0529 7.1354-0.0973 0.40237 0.15156 0.95141-0.42602 0.7366-1.1381-0.24547-0.81368-0.59894-2.1231-0.87003-2.6913-0.30704-0.37781-2.0889-1.0178-4.0102-1.0087-1.7878 8e-3 -3.9554 0.66748-4.0753 1.7098-0.18567 1.6144 0.6155 3.36 1.0835 3.2256z" style="fill:none;stroke-linecap:round;stroke-linejoin:round;stroke-width:.31226px;stroke:#000"/><path d="m110.48 285.92c0.53908 1.1546-2.4819 2.2141-3.1796 2.098-0.91172-0.258-1.7406-1.3572-2.503-2.1324-0.78877-1.1215 3.0507-3.0061 4.1266-2.0872" style="fill:none;stroke-linecap:round;stroke-linejoin:round;stroke-width:.27287px;stroke:#000"/><path d="m116.98 282.89c0.28195 0.81908-0.0786 1.1795-0.50327 1.6234-0.64944 0.67872-1.8438 0.7714-2.3719 0.64663-0.6996-0.52315-1.5266-1.1441-1.928-1.9604-0.0694-0.90201 2.0672-2.2091 2.6384-2.1324" style="fill:none;stroke-linecap:round;stroke-linejoin:round;stroke-width:.27287px;stroke:#000"/><path d="m120.99 283.14c-0.0648 0.82026-1.139 1.1687-1.7828 1.0228-0.63265-0.32519-1.2228-1.1533-1.4883-1.5133-0.24863-0.93471 0.97847-1.7363 1.5361-2.0115" style="fill:none;stroke-linecap:round;stroke-linejoin:round;stroke-width:.27287px;stroke:#000"/><path d="m118.83 279.08c-0.17173 0.1932-0.34318 0.38846-0.36181 0.61491" style="fill:none;stroke-linecap:round;stroke-linejoin:round;stroke-width:.27287px;stroke:#000"/><path d="m116.64 289.16c2.548 0.0195 4.5924-3.1651 4.5701-4.5383-0.0255-1.5688-0.36278-2.5308-1.8649-3.8006-1.5768-1.333-1.4686-2.3291-2.7398-3.3575-1.6818-1.3605-4.8868-1.332-6.6163-3.0945" style="fill:none;stroke-linecap:round;stroke-linejoin:round;stroke-width:.54573;stroke:#000"/><path d="m120.74 282.17c0.26962-1.4608-1.9542-3.0038-2.484-4.0663-1.4087-2.825-4.8496-3.1011-6.4771-4.3038-1.6148-1.1934-3.7097-1.4509-6.0509-1.8112" style="fill:none;stroke-linecap:round;stroke-linejoin:round;stroke-width:.54573;stroke:#000"/><path d="m96.183 209.7c-1.3186 9.147-1.3248 13.674-0.43268 14.771 0.23514-0.84044 0.61701-1.2783 0.9395-1.4395-0.16512 1.1241-0.13073 1.8945 0.01368 2.813" style="fill:none;stroke-linecap:round;stroke-linejoin:round;stroke-width:.52917;stroke:#000"/><path d="m34.794 225.59c1.5194-2.5788 1.3029-5.3836 1.8483-7.5653 0.18375 2.2145-0.17194 3.1487-0.17194 5.1582 3.0455-5.5888 2.0197-13.968 1.6726-15.356" style="fill:none;stroke-linecap:round;stroke-linejoin:round;stroke-width:.52917;stroke:#000"/><path d="m45.402 181.66c-3.6279-1.5154-5.798-1.2328-10.505-0.40357-1.2238 0.21558-2.6658-0.0583-3.7145-0.86331 1.2685 1.9557 5.2174 1.7699 5.2828 2.6017-4.8106-0.52307-10.915 2.453-12.96 5.1615 1.475-0.69311 2.029-1.158 3.4014-0.9915-4.0274 2.8959-6.8511 7.1863-7.5743 9.2486 0.86096-0.52571 1.1894-1.7377 2.047-1.8411-2.1548 2.4253-2.0942 6.6509-3.4273 8.3348-1.3057 1.0509-8.4885 4.8332-11.715 11.525 2.4417-3.0963 2.3071-2.4747 3.8635-3.5149-7.3263 8.561-7.2888 13.601-6.718 15.911" style="color:#000000;fill:none;stroke-linecap:round;stroke-linejoin:round;stroke-width:.52917;stroke:#000"/><path d="m14.807 233c0.30857-0.10224 0.72503-0.67385 1.1137-0.74567 2.3739-0.43873 5.9781-0.37497 7.5948-0.60255 2.7787-0.39116 4.1832-0.38445 5.4352-1.1551 1.1331-0.69742 2.7483-1.2684 3.0701-3.3976" style="fill:none;stroke-linecap:round;stroke-linejoin:round;stroke-width:.52917;stroke:#000"/><path d="m15.413 240.97c3.8954-1.1028 8.7411-0.77871 11.774-1.6769 2.7436-0.81243 4.1282-1.3691 5.8458-2.4064" style="fill:none;stroke-linecap:round;stroke-linejoin:round;stroke-width:.52917;stroke:#000"/><path d="m17.153 247.39c3.9206-0.12141 6.775-0.30355 9.3145-0.90516 4.0029-0.93287 3.0564 0.48699 5.8726-2.275 0.82094-0.80512 1.6782-3.9807 1.5271-5.6006-0.0706-0.75681-0.386-0.76527-0.82618-1.7684" style="fill:none;stroke-linecap:round;stroke-linejoin:round;stroke-width:.52917;stroke:#000"/><path d="m30.252 245.91c-0.16348 2.2438-0.77099 2.7954-1.5379 3.453-1.2437 1.0662-1.5498 0.98038-4.3192 1.5828-1.728 0.37591-6.5152 0.46093-8.1757 0.8691-1.7647 0.86672-6.5174-1.3013-10.48-6.1235-1.2402-2.6352-2.2646-6.4746-2.0639-10.124 0.1834-3.3348-0.82258-4.6966-0.11747-8.7268 0.97126-1.6054 2.1236-3.427 4.2841-5.3377 2.3192-2.0511 2.1554-2.3846 6.0614-2.397 3.906-0.0124 4.01-0.79927 7.7275-1.526 3.3268-0.65035 10.753 1.5211 12.088 2.8568 1.014 1.0103 0.80435 3.2554 1.06 4.7082 0.49825 2.8313 3.1776 6.9501 0.14356 8.2732" style="fill:none;stroke-linecap:round;stroke-linejoin:round;stroke-width:.52917;stroke:#000"/><path d="m35.022 226.72c-0.90704 0.27418-1.3997 0.95485-1.2596 1.5153" style="fill:none;stroke-linecap:round;stroke-linejoin:round;stroke-width:.26458px;stroke:#000"/><path d="m58.607 253.14c-0.07988 0.94747 0.17978 1.7324 0.5588 2.2782 1.8232 2.6251 2.0714 5.5229 1.6764 8.6829-0.03741 0.29927-0.04762 4.2555-0.12895 4.2555" style="fill:none;stroke-linecap:round;stroke-linejoin:round;stroke-width:.52917;stroke:#000"/><path d="m17.702 221.56c0.7431-2.2192 4.8532-2.6571 8.0883-2.2572 3.4364 0.4248 6.2839 2.3945 6.3313 4.0985 0.0229 0.8235 0.0558 2.5235-0.12156 3.6419 0.88032 0.26201 1.2021 0.52622 1.7323 1.297 1.0844 1.5764 1.3626 5.2858 0.67387 7.1065-0.26971 0.67894-0.54452 1.1055-1.1899 1.3193" style="fill:none;stroke-linecap:round;stroke-linejoin:round;stroke-width:.52917;stroke:#000"/><path d="m15.475 222.57c2.38-1.1607 3.6905-1.7541 5.8367-0.83585 0.90823 0.38859 3.5176-0.40333 5.3475 0.19846" style="fill:none;stroke-linecap:round;stroke-linejoin:round;stroke-width:.52917;stroke:#000"/><path d="m25.08 220.24c-0.85544 0.56729-0.84754 0.66167-1.2158 1.3982" style="fill:none;stroke-linecap:round;stroke-linejoin:round;stroke-width:.52917;stroke:#000"/><path d="m20.307 278.84c0.16724 0.95857 0.9437 1.3406 1.3229 1.4221 0.85232-0.18935 1.4869-0.4005 2.282-0.92605 0.41745-0.2759-0.0246-1.51-0.69453-2.2159" style="fill:none;stroke-linecap:round;stroke-linejoin:round;stroke-width:.26458px;stroke:#000"/><path d="m24.275 276.63c0.0384-0.81487-0.0649-1.1894-0.39688-1.5214" style="fill:none;stroke-linecap:round;stroke-linejoin:round;stroke-width:.26458px;stroke:#000"/><path d="m21.993 276.13c-4e-3 0.57388 0.25175 0.89803 0.76068 1.0253" style="fill:none;stroke-linecap:round;stroke-linejoin:round;stroke-width:.26458px;stroke:#000"/><path d="m96.315 227.14c0.21384 0.77187 1.5517 0.4794 1.8709 0.0468 0.52172-0.7071 1.0951-2.4628 1.3096-3.3208 0.0697-0.72101-0.79866-1.2988-1.2161-1.4032" style="fill:none;stroke-linecap:round;stroke-linejoin:round;stroke-width:.26458px;stroke:#000"/><path d="m34.793 232.34c0.63897 0.24794 1.2327-0.38188 1.4883-0.89297" style="fill:none;stroke-linecap:round;stroke-linejoin:round;stroke-width:.26458px;stroke:#000"/><path d="m58.879 254.86c1.2554-2.6001 5.6104-4.7089 6.2005-7.6594 2.0507-0.443 1.4526-0.36789 2.7355 0.24316 2.59 3.9422 5.9898 6.8901 9.5717 8.3234" style="fill:none;stroke-linecap:round;stroke-linejoin:round;stroke-width:.52917;stroke:#000"/><path d="m63.336 271.28c1.5431 0.28599 1.9556-0.0912 2.5791-0.8167-1.5127 0.0737-2.7692-0.87792-3.6537-1.7624-0.30998-0.30997-1.1964-0.39582-1.3325-0.42984" style="fill:none;stroke-linecap:round;stroke-linejoin:round;stroke-width:.52917;stroke:#000"/><path d="m29.501 280.79c-0.0119 1.4572 2.5962 1.9403 3.5786 1.7554 0.61-0.11481 1.6064-0.80123 2.47-1.4941 0.55247-0.44322-1.8522-2.497-2.6458-2.6458" style="fill:none;stroke-linecap:round;stroke-linejoin:round;stroke-width:.26458px;stroke:#000"/><path d="m21.332 280.84c-0.0841 1.2363 0.91903 1.8231 1.657 2.102 0.80495 0.3042 2.3728-0.59507 2.8967-1.0617 0.50188-0.44691-0.62497-2.4628-1.5237-2.6425" style="fill:none;stroke-linecap:round;stroke-linejoin:round;stroke-width:.26458px;stroke:#000"/></g><path d="m50.202 51.775c-1.5301 4.444-0.74943 7.7992 0.35234 12.567-3.6423-4.8541-6.7887-14.846-2.6154-21.223" style="fill:none;stroke-linecap:round;stroke-linejoin:round;stroke-width:.52917;stroke:#000"/></g><g transform="matrix(.86259 0 0 .86259 8.3019 30.884)"><g transform="matrix(1.5301 0 0 1.5301 -35.547 -219.02)"><path d="m53.777 188.99c8.7749-6.0616 18.655-5.1718 25.671 0.33561 1.0918 1.2992 0.92432 3.1209 1.0457 3.9881 1.196-1.154 1.5725-1.8287 1.9454-2.8348 1.7657 3.3346 0.5146 7.0953-0.51261 10.149 4.0702-3.8873 4.8299-9.3841 5.3236-14.186 2.9228 3.5817 2.5155 7.3892 2.435 11.104 2.4566-4.2379 3.5537-10.165 1.1401-14.088 1.3756-3.6833 0.45164-6.8735-2.4271-9.4121 4.723 1.7598 6.3868 6.3816 6.4346 9.2912 2.5952-6.2133-2.4553-15.313-7.7501-15.969 3.3364-2.3135 6.7903-1.671 10.305-0.36084-1.736-4.8165-6.7937-4.8225-10.644-4.389 2.3834-3.2303 6.5199-1.7464 9.6546-0.54964-2.1979-3.4831-6.2599-4.6497-9.7306-3.81 1.2216-1.6519 3.0301-1.664 4.5151-1.8719-2.6388-2.0109-6.2358-1.7831-10.103-0.34858-1.1502-0.99423-3.664-0.52342-6.5114 1.0898-4.219-1.0063-9.2364-1.178-12.529-0.0674-2.8534-1.6053-4.9739-2.2749-7.2975-0.66853-3.605-1.0942-6.7334-0.95301-8.7021 0.71317 3.6091-0.54021 5.0106 1.3242 5.6701 2.293-4.0468-1.2491-9.7111-1.4052-12.54 3.2023 3.078-2.3298 8.0531-1.5268 9.8356-0.0431-4.1571-0.3258-11.48 1.0099-12.645 6.0514 2.8981-2.705 8.5395-2.9997 11.255-0.26908-7.1493 1.7715-11.312 9.6288-9.9861 15.367 0.48974-4.5764 4.4123-7.0158 7.6435-9.182-2.3862 1.3736-3.1408 4.2637-2.6441 6.1767-3.0458 4.3183-2.2854 10.863-0.54206 15.303 0.40217-4.4878 1.7362-9.263 4.4377-12.317-2.1625 6.3802 0.8937 13.313 3.6465 18.857-0.53705-4.2088-1.4843-9.3395-0.22966-12.418 0.40436 1.1385 1.7818 2.7578 2.1925 3.3087-0.06366-2.099 0.84579-3.135 1.6416-4.443z" style="color:#000000;fill:#8e681e"/><path d="m66.496 172.76c3.0637 0.1972 4.2678 0.81264 4.9486 2.4616 3.1978-0.76323 5.2985 0.53968 6.9464 2.3014 2.2216-0.75339 6.3964 1.312 3.4562 5.5011 2.3557 6.3111-9.4295 11.098-14.717 10.825-6.9889-0.36111-16.403-2.9169-15.874-11.078-2.5784-4.3327 1.0889-7.5282 3.742-5.9122 1.7147-2.1805 5.8671-2.5499 6.9726-2.3556 0.33805-1.6666 2.2591-1.8898 4.5259-1.7439z" style="color:#000000;fill:#e4cba4"/><path d="m74.467 153.45c2.1473-1.0268 4.1118-4.0464 7.9235-3.9799 0.65156 0.0114 0.86579-1.1481 1.17-1.6233-0.48997-1.6882-3.2964-3.9345-7.2118-2.6793-0.91011-1.6638-4.3753-3.1824-7.1905-1.2769-0.09273-0.96371-2.7302-1.0948-4.3478 0.22226-0.95608-1.103-5.9935-0.7859-7.2544 1.0875-1.9108-0.52797-1.9973 0.59666-2.9993 1.5931 0.3074 0.37459 0.56232 1.716 1.4539 1.597 3.1303-0.41784 5.1633 3.6031 6.3169 4.1436" style="color:#000000;fill:#8e681e"/><path d="m61.885 157.03c3.9321-0.97754 9.6273-0.55749 12.823 0.41102 0.52062-0.70628 0.5255-1.3007 0.16971-1.6075-0.51127-0.44084 0.50302-1.7064 0.15278-2.2301-2.6576-1.8517-8.6746-2.844-12.982-0.70501-0.47439 0.4614-0.46979 1.5113-0.34287 2.3372 0.10321 0.67159-0.47574 1.008 0.17947 1.7945z" style="color:#000000;fill:#00f"/><path d="m70.493 152.52c0.4696 0.72407-0.62674 1.2072-1.67 1.4899 0.26154 0.60591 0.26025 0.55025 0.07525 0.93433 1.7698 0.52297-0.76445 1.2523-1.7321 1.443 2.4825-0.14515 5.2942 0.78381 7.61 1.0798 0.55004-0.814 0.19563-1.2959-0.3838-1.9471 0.28071-0.34932 0.44026-0.84984 0.5948-1.1504-1.4602-0.77423-3.6319-1.9936-4.4942-1.8496z" style="fill:url(#linearGradient31087)"/><path d="m69.94 170.09c-0.03943-3.2459 1.7004-6.8656 4.9712-6.7543 5.0047 0.17026 5.9073 4.3522 5.013 7.5569-0.75033 2.689-2.6413 4.2788-5.315 4.2121-4.0792-0.10183-4.6574-4.0365-4.6692-5.0147z" style="fill:#fff"/><path d="m59.517 174.63c-3.0376-0.0421-5.0115-2.4578-5.4669-4.8798-0.6417-3.4125 1.202-7.7231 5.6349-7.6373 3.8178 0.0739 4.9238 4.2112 4.7558 7.2499-0.22854 4.1328-3.0877 5.2927-4.9237 5.2672z" style="fill:#fff"/><path d="m56.741 173.92c6.5334-1.0592 6.3304-5.7988 5.478-10.416 2.5723 1.9874 2.4266 5.2995 2.0655 7.4475-0.45726 2.7196-2.6586 3.6248-4.7872 3.5932-0.99699-0.0148-1.978-0.545-2.7563-0.62501z" style="color:#000000;fill:#dce0ff"/><path d="m72.153 174.27c5.5113-0.9352 7.0188-5.1135 6.6877-9.2251 2.0014 2.4466 1.7139 6.1095 0.35251 8.0615-2.0082 2.8794-4.7278 1.9416-7.0402 1.1636z" style="color:#000000;fill:#dce0ff"/><path d="m36.955 168.1c2.5294-3.9747 9.1793-3.2636 11.192-1.2611 0.32054 0.31891 1.3532 2.0038 1.2065 4.3176-3.1946-4.826-6.6963-5.8442-12.398-3.0565z" style="color:#000000;fill:url(#linearGradient31099)"/><path d="m37.412 183.27c0.86769-4.5078 3.2189-8.8348 7.7804-10.899 1.9271-0.87206 3.4186-0.34787 4.9845 0.7398-8.7278 2.6776-10.903 5.5891-12.765 10.159z" style="fill:url(#linearGradient31101)"/><path d="m50.559 202.33c-2.9789-5.566-4.5145-13.581-1.2563-18.499 0.06833 2.1622 0.74737 4.385 1.0101 6.2614-1.9182 3.7228-2.65e-4 10.477 0.2462 12.238z" style="fill:url(#linearGradient31105)"/><path d="m52.048 193.12c-0.57905-2.8943-1.2961-5.3088-0.7572-7.6308 0.53027 1.4181 1.3173 2.4608 2.2638 3.3069-0.92813 1.4545-1.2282 3.1552-1.5066 4.3239z" style="fill:url(#linearGradient31107)"/><path d="m41.703 195.92c-0.02822-6.3756 0.96419-13.231 6.2724-16.174 0.2693 1.2166-0.54613 2.5428-0.97503 3.5158-4.4414 2.7317-3.5627 8.7841-5.2974 12.658z" style="color:#000000;fill:url(#linearGradient31103)"/><path d="m39.014 162.79c2.6352-2.0871 3.6056-2.5415 7.07-2.5232 2.4161 0.0128 3.8602 1.9688 5.0843 3.4381-2.2134-0.92404-4.4042-2.1208-6.5655-2.2578-2.2371-0.14181-4.1724 0.54787-5.5888 1.343z" style="fill:url(#linearGradient31097)"/><path d="m60.127 157.3c1.4865 0.8301 2.1404 1.1609 5.1553 1.8811-0.07656-0.66549-2.1505-0.85192-3.2054-1.9127-1.125-1.5754-3.5162-1.2308-4.9245-1.6218 1.3091 0.67661 2.3988 1.3319 2.9745 1.6534z" style="fill:url(#linearGradient31109)"/><path d="m91.546 160.61c-0.85998-0.0378-3.1647 0.59608-4.1824 1.5305-0.87284 0.21156-1.3038 0.51274-1.7687 0.54641 0.31612-0.83105 2.6235-2.7023 4.3281-2.9641 1.9923-0.30593 3.7015 0.1289 6.5039 2.5261" style="color:#000000;fill:url(#linearGradient31093)"/><path d="m90.042 156.64c-2.819-0.61243-3.4676-0.11471-5.3449 1.5519-0.3952 0.35084-0.47591 1.6722-0.03261 2.1789 1.1811-1.5463 3.0079-3.9197 5.3775-3.7308z" style="fill:url(#linearGradient31095)"/><path d="m80.137 157.03c-0.21088-0.45862 0.73793-0.46845 1.1155-0.76434-2.169-0.68625-2.3744-0.3372-4.4116 0.67433 2.6283-0.54517 1.5167 0.60363 3.2961 0.09z" style="fill:url(#linearGradient31111)"/><path d="m56.599 178.65c-0.65028-0.33097-1.2966-1.47-1.734-1.7775" style="fill:none;stroke-linecap:round;stroke-linejoin:round;stroke-width:.52917;stroke:#000"/></g><path d="m49.525 21.736c-6.1068-3.7063-10.942-3.8303-14.844-0.10634 5.7149-2.2494 8.4356 2.1432 9.0574 3.5724-6.2589-2.38-15.143-2.6064-19.832 5.4288 4.6314-4.4655 11.977-2.7658 15.806-0.71552-7.3843-0.20655-17.364 1.1144-20.081 9.9197 4.664-5.606 13.537-4.6077 17.809-1.1354-7.1161 0.57049-18.314 10.254-15.145 24.645-0.3144-9.9362 7.5975-13.564 12.676-15.627-7.2025 4.2829-5.6906 6.7562-5.5534 10.562" style="fill:none;stroke-linecap:round;stroke-linejoin:round;stroke-width:.80967;stroke:#000"/><path d="m44.394 27.756c-0.08494-1.1066-0.31519-2.1815-0.72348-2.6966" style="fill:none;stroke-linecap:round;stroke-linejoin:round;stroke-width:.80967;stroke:#000"/><path d="m40.394 65.337c-0.55796 3.9821 1.3827 8.9247 4.1343 11.266-0.2893-1.8939 0.57153-5.5435 1.6979-6.1342" style="fill:none;stroke-linecap:round;stroke-linejoin:round;stroke-width:.80967;stroke:#000"/><path d="m40.398 49.353c-11.824 5.5513-16.893 15.874-11.714 32.475 0.33108-3.9044 0.62022-14.901 7.478-20.214" style="fill:none;stroke-linecap:round;stroke-linejoin:round;stroke-width:.80967;stroke:#000"/><path d="m79.021 15.394c3.2855-1.571 5.8773-6.0781 11.705-5.8333 1.2421-0.42945 1.1174-1.6455 1.5829-2.3726-0.74969-2.583-5.0438-6.0202-11.035-4.0996 0.01301-2.3289-5.2282-2.5128-8.3642-3.1085-0.90017-0.17097-1.785 0.5773-2.638 1.1547-0.14188-1.4746-5.0816-2.0587-7.0342 0.52958 0.06445-2.6839-8.7889-1.392-10.718 1.4745-2.9238-0.80786-3.056 0.91293-4.5892 2.4376 0.47035 0.57316 0.8604 2.6257 2.2246 2.4436 4.7897-0.63935 7.4622 5.6618 9.7505 6.4763" style="fill:none;stroke-linecap:round;stroke-linejoin:round;stroke-width:.80967;stroke:#000"/><path d="m81.136 2.7638c1.1013 2.019-1.3084 1.741-2.8678 3.327-0.51031 0.51899-2.9588 3.6242-3.2028 3.8502" style="fill:none;stroke-linecap:round;stroke-linejoin:round;stroke-width:.80967;stroke:#000"/><path d="m70.469 1.1619c5e-3 1.5225-0.2453 1.9062-0.62783 3.0474-0.33939 1.0125-0.18349 1.9497-0.15074 2.8105" style="fill:none;stroke-linecap:round;stroke-linejoin:round;stroke-width:.80967;stroke:#000"/><path d="m63.941 1.1914c-1.1595 1.652-0.76053 2.2478 0.8021 2.8131 1.1719 0.42394 2.1765 5.1724 2.3135 5.9146" style="fill:none;stroke-linecap:round;stroke-linejoin:round;stroke-width:.80967;stroke:#000"/><path d="m52.455 2.9699c0.33217 0.69512 0.15624 1.2788 0.23291 1.9064 3.0379 1.0977 5.3206 0.28604 7.6089 3.4043" style="fill:none;stroke-linecap:round;stroke-linejoin:round;stroke-width:.80967;stroke:#000"/><path d="m59.143 21.244c6.0165-1.4957 14.731-0.85301 19.621 0.62891 0.7966-1.0807 0.80406-1.9902 0.25966-2.4596-0.78229-0.67454 0.76966-2.6109 0.23376-3.4123-4.0663-2.8332-13.273-4.3515-19.864-1.0787-0.72586 0.70598-0.71882 2.3124-0.52462 3.576 0.15792 1.0276-0.72792 1.5423 0.2746 2.7457z" style="color:#000000;fill:none;stroke-width:.80967;stroke:#000"/><path d="m59.055 18.377c5.3823-2.5545 11.814-1.8178 16.915-1.1657" style="fill:none;stroke-linecap:round;stroke-linejoin:round;stroke-width:.60725;stroke:#000"/><path d="m78.693 19.139c-3.5204-1.1673-8.6433-1.3244-14.403-0.39768" style="fill:none;stroke-linecap:round;stroke-linejoin:round;stroke-width:.60725;stroke:#000"/><path d="m60.385 24.759c2.9845 0.38907 6.9414 2.0194 9.0544 2.8023-0.37268-2.3178-2.3386-2.7181-2.9141-3.2968 2.7766-0.3622 5.4024 1.493 7.2283 2.4318-0.06979-0.69586-1.0225-2.4043-1.0891-2.5609" style="fill:none;stroke-linecap:round;stroke-linejoin:round;stroke-width:.60725;stroke:#000"/><path d="m103.27 61.964c2.0095-7.7008 1.1807-11.007-3.8009-14.533 4.7841 0.49185 11.876 8.6804 9.711 15.302 4.4273-9.0118-3.4439-23.704-11.751-25.772 3.2333-1.8875 10.106-4.2105 16.28-0.49777-5.181-7.7184-11.5-7.6663-16.441-6.9193 3.7494-2.9687 8.4695-4.5437 15.313 0.22503-5.8891-8.0258-13.513-8.1848-17.247-6.0102 0.85495-1.4274 4.7387-3.4147 8.818-3.4034-2.5434-2.0151-9.0453-5.1604-17.495 0.77606" style="fill:none;stroke-linecap:round;stroke-linejoin:round;stroke-width:.80967;stroke:#000"/><path d="m78.653 22.076c2.5642-2.4876 7.7153-4.076 9.832-1.9812" style="fill:none;stroke-linecap:round;stroke-linejoin:round;stroke-width:.80967;stroke:#000"/><path d="m92.79 39.673c1.9192-1.391 2.9915-2.3412 5.3921-3.0341" style="fill:none;stroke-linecap:round;stroke-linejoin:round;stroke-width:.80967;stroke:#000"/><path d="m97.47 29.466c-1.2309 0.30129-3.3081 1.0558-4.2093 1.8416" style="fill:none;stroke-linecap:round;stroke-linejoin:round;stroke-width:.80967;stroke:#000"/><path d="m95.325 23.84c-0.53244 0.69867-1.3941 2.2972-1.5127 3.1264" style="fill:none;stroke-linecap:round;stroke-linejoin:round;stroke-width:.80967;stroke:#000"/><path d="m66.198 45.318c4.8193-0.15866 6.3327 0.91455 7.3745 3.4377 4.893-0.11552 8.3045 1.1546 10.826 3.8502 3.3993-1.1528 9.7871 2.0075 5.2884 8.4171 3.6044 9.6566-14.428 16.982-22.519 16.564-10.694-0.55252-25.098-4.4632-24.289-16.95-3.9451-6.6294 1.6662-11.519 5.7256-9.0463 2.6237-3.3363 8.9771-3.9016 10.669-3.6043 1.7973-2.5129 3.4513-2.554 6.925-2.6684z" style="color:#000000;fill:none;stroke-width:.80967;stroke:#000"/><path d="m60.138 51.811c-1.2535-0.61023-0.9356-3.3958-0.60375-3.9943" style="fill:none;stroke-linecap:round;stroke-linejoin:round;stroke-width:.80967;stroke:#000"/><path d="m72.097 52.375c2.401-0.64085 1.601-2.927 1.5489-3.2391" style="fill:none;stroke-linecap:round;stroke-linejoin:round;stroke-width:.80967;stroke:#000"/><path d="m62.163 48.35c1.2035 0.0661 3.3214 1.4036 3.5128 2.7111-1.325 0.63096-3.1511 0.14827-4.2234-0.112-1.2102-0.29375-0.37182-2.6584 0.7106-2.599z"/><path d="m67.161 51.173c0.895 0.25101 2.3617 0.61898 4.1515 0.0076 1.0148-0.3463 0.39039-2.926-0.53929-2.8399-1.6111 0.34929-3.1572 1.4753-3.6123 2.8317z"/><path d="m54.681 46.494c-1.8783 0.14092-4.8856-1.3258-5.3906-4.8293-0.51727-3.588 1.8646-7.3737 5.9364-7.0584 4.1921 0.32459 4.9686 4.2628 4.3078 7.4276-0.44679 2.1399-2.2473 4.2646-4.8535 4.46z"/><path d="m64.836 29.319c1.3512 0.72026-0.75003 1.7988-0.81975 2.2239-6.5652-0.0083-11.04-4.0977-16.435-2.0809-2.0694-0.76837-3.3914-2.3643 0.45943-2.9374 7.7049-1.1468 11.538 3.7048 16.795 2.7944z"/><path d="m70.589 31.975c5.9622 1.1635 12.326-2.9225 17.882-1.6947 2.7134-0.75646 2.0508-2.8311-1.2202-3.0338-8.3294-0.51611-8.9316 3.2267-16.866 2.6139-2.1214 0.72367-0.0127 1.8155 0.20379 2.1146z"/><path d="m71.467 41.234c-0.06033-4.9666 2.6018-10.636 7.6064-10.466 7.6576 0.26051 9.0386 6.7907 7.6704 11.694-1.1481 4.1145-4.0754 6.648-8.1663 6.5459-6.2416-0.15582-7.0922-6.2772-7.1104-7.774z" style="fill:none;stroke-width:.80967;stroke:#000"/><path d="m55.521 48.173c-4.6478-0.06442-7.668-3.7607-8.3649-7.4666-0.98186-5.2215 1.7076-11.817 8.4903-11.686 5.8416 0.11307 7.6654 6.4435 7.4083 11.093-0.34969 6.3236-4.7245 8.0982-7.5337 8.0593z" style="fill:none;stroke-width:.80967;stroke:#000"/><path d="m77.434 47.977c-3.2321-0.66638-4.1568-5.0021-3.5875-7.5859 0.72446-3.2879 4.1591-5.0382 6.44-4.7009 3.5876 0.5305 4.8268 4.2465 4.3246 6.7828-0.82988 4.1911-4.0492 6.149-7.1772 5.5041z"/><circle transform="rotate(-26.406)" cx="50.97" cy="69.391" r="1.4707" style="color:#000000;fill:#fff;opacity:.99"/><path d="m61.463 71.447c4.6163-1.4247 8.8686-0.55697 12.936-0.03703" style="fill:none;stroke-linecap:round;stroke-linejoin:round;stroke-width:.80967;stroke:#000"/><path d="m86.275 70.654c1.5933 0.74531 1.229 4.8338 1.2253 6.1423 2.8613-3.1376 4.0376-5.5385 4.1912-9.1967" style="fill:none;stroke-linecap:round;stroke-linejoin:round;stroke-width:.80967;stroke:#000"/><path d="m90.581 72.469c2.6383 5.1966-0.0865 12.241-1.0064 15.951 5.5014-6.3991 10.087-19.377 6.4703-27.805" style="fill:none;stroke-linecap:round;stroke-linejoin:round;stroke-width:.80967;stroke:#000"/><path d="m94.936 48.986c5.5629 6.2864 15.002 17.077 6.6931 34.648 0.87778-7.95-1.1015-14.722-4.4635-18.41" style="fill:none;stroke-linecap:round;stroke-linejoin:round;stroke-width:.80967;stroke:#000"/><path d="m37.194 38.613c1.905 1.2996 2.0617 2.5212 2.8453 3.8744" style="fill:none;stroke-linecap:round;stroke-linejoin:round;stroke-width:.80967;stroke:#000"/><path d="m84.463 52.695c-1.2124 0.30964-2.0671 2.193-3.3473 2.47" style="fill:none;stroke-linecap:round;stroke-linejoin:round;stroke-width:.80967;stroke:#000"/><path d="m60.527 21.935c-3.0944-2.3373-9.6179-4.2847-12.753-1.4793" style="fill:none;stroke-width:.80967;stroke:#000"/><path transform="matrix(1.5301 0 0 1.5301 -34.967 -7.4899)" d="m54.283 45.304c10.62 3.788 17.07 1.6929 23.61 0v0.68817c-8.1731 2.567-16.043 2.7529-23.61 0z" style="fill-rule:evenodd;fill:#a02c2c;filter:url(#filter2022);stroke-width:.16357;stroke:#000"/><circle transform="rotate(-26.406)" cx="52.066" cy="72.032" r=".5412" style="color:#000000;fill:#fff;opacity:.99"/><circle transform="matrix(-.89567 -.44472 -.44472 .89567 0 0)" cx="-68.137" cy="8.8272" r="1.4707" style="color:#000000;fill:#fff;opacity:.99"/><circle transform="matrix(-.89567 -.44472 -.44472 .89567 0 0)" cx="-67.041" cy="11.468" r=".5412" style="color:#000000;fill:#fff;opacity:.99"/></g></g></g></svg>
