<?xml version="1.0" encoding="UTF-8"?>
<svg width="377.99mm" height="358.13mm" version="1.1" viewBox="0 0 377.99 358.13" xmlns="http://www.w3.org/2000/svg" xmlns:xlink="http://www.w3.org/1999/xlink"><defs><linearGradient id="linearGradient6749"><stop style="stop-color:#fff;stop-opacity:.385" offset="0"/><stop style="stop-color:#fff;stop-opacity:0" offset="1"/></linearGradient><radialGradient id="a-5" cx="174.32" cy="664.05" r="22.148" gradientTransform="matrix(1.0005 -.0044278 .0044042 .99514 -3.0055 3.9934)" gradientUnits="userSpaceOnUse"><stop offset="0"/><stop stop-color="#464600" offset=".85949"/><stop stop-color="#8c8d00" offset="1"/></radialGradient><radialGradient id="radialGradient2915" cx="174.32" cy="664.05" r="22.148" gradientTransform="matrix(1.0005 -.0044278 .0044042 .99514 -3.0055 3.9934)" gradientUnits="userSpaceOnUse" xlink:href="#a-5"/><filter id="as-0"><feGaussianBlur stdDeviation="2.0107"/></filter><radialGradient id="radialGradient5585" cx="428.57" cy="101.56" r="18.612" gradientTransform="matrix(1 0 0 .65495 -126.84 9.4484)" gradientUnits="userSpaceOnUse"><stop style="stop-color:#a00;stop-opacity:.64824" offset="0"/><stop style="stop-color:#a00" offset="1"/></radialGradient><radialGradient id="radialGradient6751" cx="19.784" cy="51.402" r="30.161" gradientTransform="matrix(-1.3869 -3.0222 1.8036 -1.0495 -34.522 198.38)" gradientUnits="userSpaceOnUse" xlink:href="#linearGradient6749"/><radialGradient id="radialGradient6751-7" cx="19.784" cy="51.402" r="30.161" gradientTransform="matrix(-.42024 -.91578 .54653 -.31801 1.3847 54.381)" gradientUnits="userSpaceOnUse" xlink:href="#linearGradient6749"/><radialGradient id="radialGradient6751-7-7" cx="19.784" cy="51.402" r="30.161" gradientTransform="matrix(-.42024 -.91578 .54653 -.31801 87.559 206.63)" gradientUnits="userSpaceOnUse" xlink:href="#linearGradient6749"/><radialGradient id="radialGradient6751-7-7-6" cx="19.784" cy="51.402" r="30.161" gradientTransform="matrix(-.42024 -.91578 .54653 -.31801 -43.221 209.66)" gradientUnits="userSpaceOnUse" xlink:href="#linearGradient6749"/><radialGradient id="radialGradient6751-7-7-7" cx="19.784" cy="51.402" r="30.161" gradientTransform="matrix(-.090211 -.3661 .11732 -.12713 -64.73 271.18)" gradientUnits="userSpaceOnUse" xlink:href="#linearGradient6749"/><radialGradient id="radialGradient6751-7-7-71" cx="19.784" cy="51.402" r="30.161" gradientTransform="matrix(-.19798 -.43142 .25747 -.14982 81.767 238.31)" gradientUnits="userSpaceOnUse" xlink:href="#linearGradient6749"/><radialGradient id="radialGradient6751-7-7-75" cx="19.784" cy="51.402" r="30.161" gradientTransform="matrix(-.23229 -.5062 .30209 -.17578 -71.414 172.7)" gradientUnits="userSpaceOnUse" xlink:href="#linearGradient6749"/><radialGradient id="radialGradient6751-7-7-8" cx="19.784" cy="51.402" r="30.161" gradientTransform="matrix(-.1202 -.26193 .15632 -.090959 -142.45 310.18)" gradientUnits="userSpaceOnUse" xlink:href="#linearGradient6749"/></defs><g transform="translate(159.51 12.843)"><g transform="translate(6.0465 21.922)"><g transform="translate(-276.28,16.224)"><g transform="matrix(.26458 0 0 .26458 153.39 56.301)"><g transform="matrix(-.90559 -.46138 -.32456 .76014 1495.5 733.58)"><g transform="translate(435.22,-321.02)"><path d="m625.44 265.19c-80.333 9.4173-148.77 63.406-193.81 128.25-47.533 66.411-61.359 148.95-73.871 227.79-16.058 88.744-54.247 173.67-111.34 243.61-23.585 33.486-49.796 68.847-54.489 110.57 7.854 15.797 32.642 10.9 38.931-3.7787 65.47-57.33 99.45-139.48 143.45-212.54 53.06-89.13 78.22-190.96 123.38-283.78 28.05-52.01 60.85-105.3 112.31-137.03 15.747-10.068 35.426-13.049 49.938-24.875 11.005-9.5586 8.8287-26.523-1.7189-35.421-8.5188-8.554-20.693-13.425-32.781-12.798z" style="fill-rule:evenodd;fill:#69a527;stroke-width:3.2769;stroke:#000"/><path d="m632.69 281.28c-71.035 10.657-129.13 58.838-175.97 110.42-44.186 50.773-65.501 117.6-70.758 183.86-9.2975 70.491-25.43 142.41-66.155 202-32.423 52.731-72.922 103.04-88.089 164.09 5.9132 12.014 20.023-0.14536 21.996-8.8772 59.238-85.907 113.79-175.61 156.22-271.1 22.198-52.205 32.668-108.46 55.076-160.61 25.297-61.742 60.455-122.36 114.51-163.14 23.365-16.307 51.982-23.613 77.019-35.564 3.297-12.883-12.072-23.996-23.853-21.091z" style="fill-rule:evenodd;fill:#bfcf5f;stroke-width:1.0923;stroke:#5a641e"/><g transform="translate(812.12,112.08)"><g transform="matrix(.55989 0 0 .55989 -292.68 233.43)"><path transform="matrix(1.1288,0,0,1.1288,-424.4,-252.78)" d="m186.81 642.19c-27.894-1.2839-19.916 53.647 6.5 39.094 13.371-9.0101 15.652-40.976-6.5-39.094z" style="fill:url(#radialGradient2915)"/><path transform="matrix(.903 0 0 .903 -385.03 -103.02)" d="m188 641.34c-38.14 4.7262 5.3006 66.994 17.5 25.562 3.3598-11.636-3.1301-27.825-17.5-25.562z" style="fill:#b6b800"/></g></g><g transform="matrix(.61491 0 0 .61491 524.09 339.91)"><path transform="matrix(1.1288,0,0,1.1288,-401.96,-353.61)" d="m187.28 645.75c-24.6 2.0128-18.478 49.962 6.7812 39.688 16.859-8.0448 17.429-43.391-6.7812-39.688z" style="fill:url(#radialGradient2915)"/><path transform="matrix(.903 0 0 .903 -362.59 -203.86)" d="m190.62 645.75c-26.768 2.135-12.085 54.814 11.625 36.938 12.745-10.857 9.7391-40.804-11.625-36.938z" style="fill:#b6b800"/></g><g transform="matrix(.83496 0 0 .83496 585.73 164.92)"><path transform="matrix(1.1288,0,0,1.1288,-401.96,-353.61)" d="m191.94 652c-19.619 0.62541-27.573 34.994-6.7188 40.281 20.119 3.6646 34.618-30.305 14.562-39.562-2.54-0.78-5.21-0.81-7.84-0.72z" style="fill:url(#radialGradient2915)"/><path transform="matrix(.903 0 0 .903 -362.59 -203.86)" d="m195.12 654.03c-21.841 1.2725-24.452 42.583-0.0312 40.531 18.612-2.0863 27.444-36.629 5.625-40.438-1.8565-0.1851-3.7312-0.13632-5.5938-0.0937z" style="fill:#b6b800"/></g><g transform="matrix(.75244 0 0 .75244 726.28 301.37)"><g transform="translate(-223,-76.769)"><path transform="matrix(1.1288,0,0,1.1288,-401.96,-353.61)" d="m189.97 648.69c-21.701 0.16097-25.948 40.089-2.5625 41.062 20-0.24805 28.669-35.315 7.3438-40.844-1.5865-0.18862-3.1834-0.30635-4.7812-0.21875z" style="fill:url(#radialGradient2915)"/><path transform="matrix(.903 0 0 .903 -362.59 -203.86)" d="m192.06 649.62c-24.658 1.445-19.041 50.082 6.25 39.531 16.541-8.1705 18.777-43.342-6.25-39.531z" style="fill:#b6b800"/></g></g><g transform="translate(636.08,48.817)"><path transform="matrix(1.1288,0,0,1.1288,-401.96,-353.61)" d="m194.94 653.94c-18.73-0.5793-30.927 29.697-12.874 39.288 19.826 6.9698 39.439-24.811 21.374-37.757-2.5865-1.3943-5.6078-1.7148-8.5-1.5312z" style="fill:url(#radialGradient2915)"/><path transform="matrix(.903 0 0 .903 -362.59 -203.86)" d="m197.53 656.66c-19.503 0.32042-28.43 34.445-7.625 40.125 20.183 4.1947 35.698-29.81 15.562-39.5-2.577-0.7246-5.2852-0.69855-7.9375-0.625z" style="fill:#b6b800"/></g><g transform="matrix(.77995 0 0 .77995 615.71 86.266)"><path transform="matrix(1.1288,0,0,1.1288,-401.96,-353.61)" d="m201.81 659.16c-19.436 1.1651-28.353 35.193-7.5312 41.219 20.564 3.1379 35.05-31.654 14.541-40.863-2.3121-0.37528-4.6754-0.44096-7.01-0.35596z" style="fill:url(#radialGradient2915)"/><path transform="matrix(.903 0 0 .903 -362.59 -203.86)" d="m209 662.84c-23.48-1-27.03 44.85-1.09 41.41 18.5-3.89 26.77-42.4 1.09-41.41z" style="fill:#b6b800"/></g><g transform="matrix(.66992 0 0 .66992 623.4 93.987)"><path transform="matrix(1.1288,0,0,1.1288,-401.96,-353.61)" d="m205.31 660.5c-22.458 0.059-27.029 42.342-2.3438 42.25 19.75-2.7845 27.421-42.08 2.3438-42.25z" style="fill:url(#radialGradient2915)"/><path transform="matrix(.903 0 0 .903 -362.59 -203.86)" d="m212.62 664c-25.437-0.69951-23.495 51.333 3.1875 41.438 14.415-7.5364 20.115-42.535-3.1875-41.438z" style="fill:#b6b800"/></g><g transform="matrix(.5874 0 0 .5874 642.92 98.403)"><path transform="matrix(1.1288,0,0,1.1288,-401.96,-353.61)" d="m202.62 658.09c-23.52 0.64611-25.199 47.86 0.90625 43.031 16.866-5.5076 23.376-44.246-0.90625-43.031z" style="fill:url(#radialGradient2915)"/><path transform="matrix(.903 0 0 .903 -362.59 -203.86)" d="m209.47 661.44c-33.084-0.0165-11.686 66.044 11.333 35.222 6.9999-11.346 7.5282-36.486-11.333-35.222z" style="fill:#b6b800"/></g><g transform="matrix(.27626 .43346 -.58381 .36564 848.4 256.95)"><path transform="matrix(1.1288,0,0,1.1288,-401.96,-353.61)" d="m190.91 634.12c-28.249 5.2846-4.6691 56.004 17.938 39.375 12.419-13.548 0.98812-40.699-17.938-39.375z" style="fill:url(#radialGradient2915)"/><path transform="matrix(.903 0 0 .903 -362.59 -203.86)" d="m195.72 631.44c-30.089 6.2712 2.258 60.41 21.781 36.594 6.3532-14.754-4.2089-37.369-21.781-36.594z" style="fill:#b6b800"/></g><g transform="matrix(.16096 .44378 -.67927 .24638 903.59 293.13)"><path transform="matrix(1.1288,0,0,1.1288,-401.96,-353.61)" d="m181.12 636.38c-22.516 0.80418-17.049 33.34-1.0625 40.375 18.454 10.445 31.382-16.158 19.094-29.531-3.8197-6.1763-10.472-11.213-18.031-10.844z" style="fill:url(#radialGradient2915)"/><path transform="matrix(.903 0 0 .903 -362.59 -203.86)" d="m181.03 634.69c-30.236 6.5515 2.2152 58.366 22.625 36.812 8.6274-14.92-4.7615-38.806-22.625-36.812z" style="fill:#b6b800"/></g><g transform="matrix(.53239 0 0 .53239 495.48 446.1)"><path transform="matrix(1.1288,0,0,1.1288,-401.96,-353.61)" d="m181.5 639c-25.334 1.3104-18.492 51.732 7.0625 40 15.298-8.8656 16.812-43.153-7.0625-40z" style="fill:url(#radialGradient2915)"/><path transform="matrix(.903 0 0 .903 -362.59 -203.86)" d="m185.84 638.19c-28.316-1.93-17.546 44.503 5.5625 39.031 14.317-7.7653 14.979-39.728-5.5625-39.031z" style="fill:#b6b800"/></g><g transform="matrix(.35938 .14646 -.21 .5153 535.46 515.3)"><path transform="matrix(1.1288,0,0,1.1288,-401.96,-353.61)" d="m175.5 634.91c-27.603 1.4717-14.453 56.566 10.375 39.281 10.3-10.972 10.302-41.031-10.375-39.281z" style="fill:url(#radialGradient2915)"/><path transform="matrix(.903 0 0 .903 -362.59 -203.86)" d="m177.12 633.56c-29.988 1.3452-8.4464 51.354 11.812 35.031 6.8723-11.092 5.9639-35.81-11.812-35.031z" style="fill:#b6b800"/></g><g transform="matrix(.35938 .14646 -.21 .5153 524.46 548.31)"><path transform="matrix(1.1288,0,0,1.1288,-401.96,-353.61)" d="m169.53 634.66c-33.651 2.586-7.6016 68.004 13.219 33.312 5.981-11.695 4.552-34.534-13.219-33.312z" style="fill:url(#radialGradient2915)"/><path transform="matrix(.903 0 0 .903 -362.59 -203.86)" d="m168.75 633.09c-29.824 1.0202-11.316 52.789 10.594 37.969 8.2719-11.18 8.3073-38.286-10.594-37.969z" style="fill:#b6b800"/></g><g transform="matrix(.32688 .20918 -.29993 .4687 540.95 608.47)"><path transform="matrix(1.1288,0,0,1.1288,-401.96,-353.61)" d="m160.62 635.75c-33.318 6.5771 1.1535 69.213 16.938 31.75 3.9439-12.354-0.0299-33.59-16.938-31.75z" style="fill:url(#radialGradient2915)"/><path transform="matrix(.903 0 0 .903 -362.59 -203.86)" d="m157.66 634.62c-28.388 4.1322-3.6695 57.422 15.781 35.844 5.8404-12.648 2.7097-37.592-15.781-35.844z" style="fill:#b6b800"/></g><g transform="matrix(.44987 0 0 .44987 435.23 601.8)"><path transform="matrix(1.1288,0,0,1.1288,-401.96,-353.61)" d="m167.38 629.66c-28.025-2.1771-19.124 54.994 6.6875 38.562 10.591-9.6872 14.999-40.384-6.6875-38.562z" style="fill:url(#radialGradient2915)"/><path transform="matrix(.903 0 0 .903 -362.59 -203.86)" d="m165.5 627c-30.329-2.0201-13.812 54.255 9.6875 36.125 7.9011-10.706 9.4739-37.28-9.6875-36.125z" style="fill:#b6b800"/></g><g transform="matrix(.44987 0 0 .44987 421.48 625.18)"><path transform="matrix(1.1288,0,0,1.1288,-401.96,-353.61)" d="m165.31 629.59c-34.615 0.0436-9.5836 67.118 12.156 33.062 6.6004-11.251 6.4018-35.343-12.156-33.062z" style="fill:url(#radialGradient2915)"/><path transform="matrix(.903 0 0 .903 -362.59 -203.86)" d="m162.53 627.03c-41.376 7.5963 12.619 71.3 16.562 19.562 1.1627-9.7924-5.0966-21.85-16.562-19.562z" style="fill:#b6b800"/></g><g transform="matrix(.44987 0 0 .44987 409.1 645.81)"><path transform="matrix(1.1288,0,0,1.1288,-401.96,-353.61)" d="m164.25 629.84c-27.04-0.33282-20.108 51.994 4.7812 42.656 14.667-8.4597 18.675-44.319-4.7812-42.656z" style="fill:url(#radialGradient2915)"/><path transform="matrix(.903 0 0 .903 -362.59 -203.86)" d="m161.91 627.88c-41.28 4.8837 7.3497 73.523 16.156 22.844 1.8481-10.321-3.0746-25.147-16.156-22.844z" style="fill:#b6b800"/></g><g transform="matrix(.44987 0 0 .44987 395.35 666.44)"><path transform="matrix(1.1288,0,0,1.1288,-401.96,-353.61)" d="m164.22 630.72c-28.768 0.40721-19.211 59.703 8.0625 41.469 12.599-10.218 13.928-42.699-8.0625-41.469z" style="fill:url(#radialGradient2915)"/><path transform="matrix(.903 0 0 .903 -362.59 -203.86)" d="m161.97 629.06c-42.14 5.1767 8.1621 75.271 16.625 23.344 1.6254-10.541-3.4493-25.297-16.625-23.344z" style="fill:#b6b800"/></g><g transform="matrix(.44 0 0 .44 379.33 692.59)"><path transform="matrix(1.1288,0,0,1.1288,-401.96,-353.61)" d="m163.94 631.97c-30.763 0.11658-15.56 61.251 10.594 40.938 11.689-11.464 10.955-42.19-10.594-40.938z" style="fill:url(#radialGradient2915)"/><path transform="matrix(.903 0 0 .903 -362.59 -203.86)" d="m162.16 630.12c-32.202-1.5864-16.205 62.249 9.875 40.469 11.838-10.856 10.422-41.014-9.875-40.469z" style="fill:#b6b800"/></g><g transform="matrix(.33366 .19205 -.26066 .45286 442.65 750.97)"><path transform="matrix(1.1288,0,0,1.1288,-401.96,-353.61)" d="m159.88 639.25c-31.783 3.0447-8.6394 65.178 16.219 41.312 10.589-13.306 3.7284-42.452-16.219-41.312z" style="fill:url(#radialGradient2915)"/><path transform="matrix(.903 0 0 .903 -362.59 -203.86)" d="m156.62 639.56c-42.486 10.144 21.494 76.801 21.625 23.406-0.60073-11.4-8.483-25.078-21.625-23.406z" style="fill:#b6b800"/></g><g transform="matrix(.20361 .19205 -.15907 .45286 245.17 785.35)"><g transform="matrix(.80214 .20665 -.60769 1.0901 610 -185.51)"><path transform="matrix(1.1288,0,0,1.1288,-401.96,-353.61)" d="m158.31 644.91c-37.073 1.99-2.5339 61.504 19.438 39.781 10.06-15.058-0.22249-40.137-19.438-39.781z" style="fill:url(#radialGradient2915)"/><path transform="matrix(.903 0 0 .903 -362.59 -203.86)" d="m153.69 646.16c-38.402 4.6249 9.8951 65.97 24.75 32.906 3.1284-15.099-7.6867-34.351-24.75-32.906z" style="fill:#b6b800"/></g></g></g></g><g transform="matrix(-1.0575 -.20401 .05627 1.0123 1653.4 403.07)"><g transform="translate(435.22,-321.02)"><path d="m616.62 260.69c-71.104 4.789-145.16 28.039-194.37 82.027-43.615 48.815-57.192 116.2-59.011 179.82-1.7443 90.442-11.516 184.35-56.456 264.67-33.342 59.698-91.515 104.44-111.63 171.59-7.0416 8.9794-3.9064 23.656 7.3695 27.551 13.562 4.0427 22.962-10.225 33.651-16.019 49.513-37.314 83.049-90.676 117.47-141.2 55.733-87.582 83.365-189.26 102.44-290.33 18.368-74.645 55.397-148.56 118.85-194.6 27.764-18.35 62.781-19.857 91.156-36.938 5.0066-22.275-16.726-39.783-36.103-44.892-4.3376-1.209-8.8587-1.8616-13.366-1.6708z" style="fill-rule:evenodd;fill:#69a527;stroke-width:2.9152;stroke:#000"/><path d="m619.34 276.75c-76.83 10.549-154.16 44.591-201.97 107.62-33.394 47.144-37.121 107.32-36.875 163.19-0.589 70.493-3.4144 144.73-38.612 207.8-33.907 64.101-88.439 117.13-109.79 187.7-0.23644 9.198 14.177 8.8468 15.923 0.66307 68.087-78.539 129.97-165.8 161.45-265.9 25.84-85.67 25.796-179.08 68.258-259.51 29.297-56.954 85.686-100.37 149.71-109.13 8.8379-2.2644 22.351 0.47849 27.062-9.0312 2.4284-14.385-14.446-20.142-25.562-22.5-3.1487-0.66816-6.37-1.0789-9.5938-0.90625z" style="fill-rule:evenodd;fill:#bfcf5f;stroke-width:.97174;stroke:#5a641e"/><g transform="translate(812.12,112.08)"><g transform="matrix(.55989 0 0 .55989 -292.68 233.43)"><path transform="matrix(1.1288,0,0,1.1288,-424.4,-252.78)" d="m183.59 640.19c-24.272 3.484-20.167 51.082 5.875 45.125 17.988-7.7088 18.235-46.975-5.875-45.125z" style="fill:url(#radialGradient2915)"/><path transform="matrix(.903 0 0 .903 -385.03 -103.02)" d="m185.47 639.28c-27.141 3.8337-13.114 59.376 12.281 42.312 12.424-11.839 9.0724-43.748-12.281-42.312z" style="fill:#b6b800"/></g></g><g transform="matrix(.61491 0 0 .61491 524.09 339.91)"><path transform="matrix(1.1288,0,0,1.1288,-401.96,-353.61)" d="m179.94 639.62c-23.652 3.2347-19.725 48.393 4.9062 45.031 20.055-5.5716 18.845-46.851-4.9062-45.031z" style="fill:url(#radialGradient2915)"/><path transform="matrix(.903 0 0 .903 -362.59 -203.86)" d="m181.44 638.53c-26.875 3.6804-13.421 58.026 11.781 42.344 12.613-11.659 9.7499-43.784-11.781-42.344z" style="fill:#b6b800"/></g><g transform="matrix(.83496 0 0 .83496 585.73 164.92)"><path transform="matrix(1.1288,0,0,1.1288,-401.96,-353.61)" d="m174.03 639.34c-23.909 0.1276-24.378 42.595-1.1477 44.51 24.007-0.0127 27.902-45.761 1.1477-44.51z" style="fill:url(#radialGradient2915)"/><path transform="matrix(.903 0 0 .903 -362.59 -203.86)" d="m172.91 638.78c-24.568 1.4509-21.583 47.155 3.298 44.392 22.002-4.2121 22.584-46.614-3.298-44.392z" style="fill:#b6b800"/></g><g transform="matrix(.75244 0 0 .75244 726.28 301.37)"><g transform="translate(-223,-76.769)"><path transform="matrix(1.1288,0,0,1.1288,-401.96,-353.61)" d="m176.34 639.38c-23.462 2.1589-21.533 45.541 2.3275 44.79 22.08-2.9614 22.905-47.054-2.3275-44.79z" style="fill:url(#radialGradient2915)"/><path transform="matrix(.903 0 0 .903 -362.59 -203.86)" d="m176.97 638.53c-24.026 2.8862-20.314 48.473 4.5938 45.188 19.719-5.8134 19.801-47.282-4.5938-45.188z" style="fill:#b6b800"/></g></g><g transform="translate(636.08,48.817)"><path transform="matrix(1.1288,0,0,1.1288,-401.96,-353.61)" d="m172.66 639.81c-22.538-0.66224-27.663 38.519-5.5222 43.392 20.823 3.8439 35.181-30.066 15.897-40.892-3.1589-1.7412-6.7493-2.7528-10.375-2.5z" style="fill:url(#radialGradient2915)"/><path transform="matrix(.903 0 0 .903 -362.59 -203.86)" d="m171.28 639.38c-23.745-0.0254-25.528 43.026-1.2737 43.827 21.353 0.73272 31.043-36.195 8.9924-42.858-2.4901-0.78585-5.1128-1.1012-7.7188-0.96875z" style="fill:#b6b800"/></g><g transform="matrix(.77995 0 0 .77995 615.71 86.266)"><path transform="matrix(1.1288,0,0,1.1288,-401.96,-353.61)" d="m169.56 639.66c-22.006 1.4613-25.569 41.12-2.25 43.406 21.085 2.8982 34.969-32.38 14.219-41.906-3.8203-1.3691-7.9403-1.6892-11.969-1.5z" style="fill:url(#radialGradient2915)"/><path transform="matrix(.903 0 0 .903 -362.59 -203.86)" d="m171.16 639.06c-24.281-1.6709-28.089 42.367-3.3438 43.562 25.835 2.3191 33.303-45.702 3.3438-43.562z" style="fill:#b6b800"/></g><g transform="matrix(.66992 0 0 .66992 623.4 93.987)"><path transform="matrix(1.1288,0,0,1.1288,-401.96,-353.61)" d="m170.03 639.5c-22.352-0.16282-27.046 40.761-3.6875 42.938 21.087 3.939 36.614-32.313 14.844-41.156-3.4808-1.5747-7.3678-2.0484-11.156-1.7812z" style="fill:url(#radialGradient2915)"/><path transform="matrix(.903 0 0 .903 -362.59 -203.86)" d="m168.53 638.28c-24.661 1.8593-23.494 48.703 3.0938 44.062 23.637-4.3267 26.416-48.072-3.0938-44.062z" style="fill:#b6b800"/></g><g transform="matrix(.5874 0 0 .5874 642.92 98.403)"><path transform="matrix(1.1288,0,0,1.1288,-401.96,-353.61)" d="m169.78 639.25c-24.864-0.91482-26.457 45.72-0.1875 42.938 22.41 0.94011 30.821-40.672 5.75-42.781-1.8445-0.25829-3.7062-0.24669-5.5625-0.15625z" style="fill:url(#radialGradient2915)"/><path transform="matrix(.903 0 0 .903 -362.59 -203.86)" d="m170.56 637.41c-28.342-2.4532-25.609 52.567 2.9375 43.531 21.3-4.9289 22.782-45.424-2.9375-43.531z" style="fill:#b6b800"/></g><g transform="matrix(.27626 .43346 -.58381 .36564 848.4 256.95)"><path transform="matrix(1.1288,0,0,1.1288,-401.96,-353.61)" d="m167.81 642.25c-26.186 0.74287-23.481 49.072 3.0625 45.5 23.353-2.9985 22.683-48.004-3.0625-45.5z" style="fill:url(#radialGradient2915)"/><path transform="matrix(.903 0 0 .903 -362.59 -203.86)" d="m164.66 642.12c-28.537 3.5257-14.595 59.835 12.312 43.5 16.141-11.135 11.212-46.923-12.312-43.5z" style="fill:#b6b800"/></g><g transform="matrix(.16096 .44378 -.67927 .24638 903.59 293.13)"><path transform="matrix(1.1288,0,0,1.1288,-401.96,-353.61)" d="m167.75 642.72c-26.327 0.69878-23.027 49.249 3.2188 46.125 23.443-3.5067 22.297-47.619-3.2188-46.125z" style="fill:url(#radialGradient2915)"/><path transform="matrix(.903 0 0 .903 -362.59 -203.86)" d="m166.59 642.84c-31.382 0.66832-16.647 61.471 11.188 43.438 14.79-10.981 9.9452-43.969-11.188-43.438z" style="fill:#b6b800"/></g><g transform="matrix(.53239 0 0 .53239 495.48 446.1)"><path transform="matrix(1.1288,0,0,1.1288,-401.96,-353.61)" d="m185.03 640.44c-25.447 3.2458-19.426 54.146 7.4062 44.594 17.492-8.3233 16.008-46.656-7.4062-44.594z" style="fill:url(#radialGradient2915)"/><path transform="matrix(.903 0 0 .903 -362.59 -203.86)" d="m187.59 640.34c-34.222 5.4857-3.3655 70.98 17.154 35.174 6.3929-13.179 1.2232-37.02-17.154-35.174z" style="fill:#b6b800"/></g><g transform="matrix(.35938 .14646 -.21 .5153 535.46 515.3)"><path transform="matrix(1.1288,0,0,1.1288,-401.96,-353.61)" d="m188.03 636.28c-30.771 1.9764-12.531 63.217 13.438 41.625 12.172-12.335 6.8131-42.134-13.438-41.625z" style="fill:url(#radialGradient2915)"/><path transform="matrix(.903 0 0 .903 -362.59 -203.86)" d="m192.12 635.69c-31.059 1.4937-9.1126 58.425 13.594 41.219 11.126-12.641 6.7328-42.089-13.594-41.219z" style="fill:#b6b800"/></g><g transform="matrix(.35938 .14646 -.21 .5153 524.46 548.31)"><path transform="matrix(1.1288,0,0,1.1288,-401.96,-353.61)" d="m188.12 636.97c-29.104-0.39282-19.57 56.967 7.6562 44.094 17.368-8.8656 14.393-44.357-7.6562-44.094z" style="fill:url(#radialGradient2915)"/><path transform="matrix(.903 0 0 .903 -362.59 -203.86)" d="m189.41 636.31c-30.573 3.1234-8.6491 60.779 15.344 40.594 11.52-13.192 5.8121-42.703-15.344-40.594z" style="fill:#b6b800"/></g><g transform="matrix(.32688 .20918 -.29993 .4687 540.95 608.47)"><path transform="matrix(1.1288,0,0,1.1288,-401.96,-353.61)" d="m184.94 635.75c-29.465 0.13391-18.644 57.262 8.5938 44.281 18.021-8.9301 13.292-44.762-8.5938-44.281z" style="fill:url(#radialGradient2915)"/><path transform="matrix(.903 0 0 .903 -362.59 -203.86)" d="m185.44 634.84c-31.537 3.3779-5.8121 64.091 17.406 39.375 10.837-13.682 2.7408-41.594-17.406-39.375z" style="fill:#b6b800"/></g><g transform="matrix(.44987 0 0 .44987 435.23 601.8)"><path transform="matrix(1.1288,0,0,1.1288,-401.96,-353.61)" d="m184.62 640.84c-28.515-1.6193-25.287 53.919 3.0625 44.938 19.749-6.1974 21.686-45.659-3.0625-44.938z" style="fill:url(#radialGradient2915)"/><path transform="matrix(.903 0 0 .903 -362.59 -203.86)" d="m185.41 641.28c-31.858-0.66673-15.805 61.653 10.812 41.188 15.032-10.47 11.346-43.844-10.812-41.188z" style="fill:#b6b800"/></g><g transform="matrix(.44987 0 0 .44987 421.48 625.18)"><path transform="matrix(1.1288,0,0,1.1288,-401.96,-353.61)" d="m182.53 640.72c-29.675-1.4122-23.939 56.094 4.9375 44.562 18.938-7.4908 19.536-45.612-4.9375-44.562z" style="fill:url(#radialGradient2915)"/><path transform="matrix(.903 0 0 .903 -362.59 -203.86)" d="m181.97 641.16c-38.323 5.4275-0.27557 72.524 19.134 32.369 6.4597-13.817-0.87331-35.584-19.134-32.369z" style="fill:#b6b800"/></g><g transform="matrix(.44987 0 0 .44987 409.1 645.81)"><path transform="matrix(1.1288,0,0,1.1288,-401.96,-353.61)" d="m180.72 640.56c-29.58-1.55-24.84 55.47 4.28 44.94 20.188-6.4569 20.619-46.182-4.2812-44.938z" style="fill:url(#radialGradient2915)"/><path transform="matrix(.903 0 0 .903 -362.59 -203.86)" d="m178.97 641.34c-31.595 3.0494-10.185 61.934 15.031 40.25 13.49-13.426 8.5456-44.18-15.031-40.25z" style="fill:#b6b800"/></g><g transform="matrix(.44987 0 0 .44987 395.35 666.44)"><path transform="matrix(1.1288,0,0,1.1288,-401.96,-353.61)" d="m179.06 640.41c-29.43-1.9244-25.957 54.66 3.3125 45.25 21.866-5.0617 21.709-46.263-3.3125-45.25z" style="fill:url(#radialGradient2915)"/><path transform="matrix(.903 0 0 .903 -362.59 -203.86)" d="m176.88 641.25c-31.06 2.7144-12.335 59.94 13.781 41.656 15.46-12.3 10.37-46.12-13.78-41.66z" style="fill:#b6b800"/></g><g transform="matrix(.44 0 0 .44 379.33 692.59)"><path transform="matrix(1.1288,0,0,1.1288,-401.96,-353.61)" d="m174.47 640.69c-31.612 2.3024-17.618 61.55 12.031 42.625 18.054-10.777 12.293-46.389-12.031-42.625z" style="fill:url(#radialGradient2915)"/><path transform="matrix(.903 0 0 .903 -362.59 -203.86)" d="m175.81 640.88c-36.224 0.31743-13.237 66.428 14.688 40.031 13.433-12.603 7.0635-43.151-14.688-40.031z" style="fill:#b6b800"/></g><g transform="matrix(.33366 .19205 -.26066 .45286 442.65 750.97)"><path transform="matrix(1.1288,0,0,1.1288,-401.96,-353.61)" d="m175 640.09c-30.745-1.0816-23.418 54.749 5.4375 45.812 22.531-6.5342 19.899-47.022-5.4375-45.812z" style="fill:url(#radialGradient2915)"/><path transform="matrix(.903 0 0 .903 -362.59 -203.86)" d="m176.03 640.59c-30.062-2.1042-23.044 42.91 1.0625 45.844 25.71-0.67063 25.594-46.566-1.0625-45.844z" style="fill:#b6b800"/></g><g transform="matrix(.20361 .19205 -.15907 .45286 245.17 785.35)"><g transform="matrix(.80214 .20665 -.60769 1.0901 610 -185.51)"><path transform="matrix(1.1288,0,0,1.1288,-401.96,-353.61)" d="m170.41 641.03c-30.493 3.9368-14.591 60.077 14.125 42.656 20.689-10.505 10.801-48.526-14.125-42.656z" style="fill:url(#radialGradient2915)"/><path transform="matrix(.903 0 0 .903 -362.59 -203.86)" d="m174.28 641.03c-51.358 3.9939 8.9565 81.686 22 25.312 1.0565-12.337-8.5432-26.533-22-25.312z" style="fill:#b6b800"/></g></g></g></g><g transform="matrix(.99859 .053134 -.053134 .99859 13.955 -138.39)"><path d="m620.42 261.37c33.638-2.5281 74.698 60.38 41.583 62.453-195.47 12.24-192.73 338.54-327.78 534.9-132.63 192.88-206.44 156.68-66.32-20.8 149.3-189.13-23.8-548.27 352.52-576.55z" style="fill-rule:evenodd;fill:#69a527;stroke-width:3;stroke:#000"/><path d="m609.63 278.11c32.127-7.3855 72.863 31.626 40.541 34.25-228.52 18.55-180 282.86-292.72 477.24-111.16 191.71-200.99 247.7-37.35-8.01 115.89-181.06-58.01-423.59 289.53-503.48z" style="fill-rule:evenodd;fill:#bfcf5f;stroke:#5a641e"/><g transform="translate(812.12,112.08)"><g transform="matrix(.55989 0 0 .55989 -292.68 233.43)"><path transform="matrix(1.1288,0,0,1.1288,-424.4,-252.78)" d="m196.57 663.38a22.148 22.148 0 1 1-44.297 0 22.148 22.148 0 1 1 44.297 0z" style="fill:url(#radialGradient2915)"/><path transform="matrix(.903 0 0 .903 -385.03 -103.02)" d="m196.57 663.38a22.148 22.148 0 1 1-44.297 0 22.148 22.148 0 1 1 44.297 0z" style="fill:#b6b800"/></g></g><g transform="matrix(.61491 0 0 .61491 524.09 339.91)"><path transform="matrix(1.1288,0,0,1.1288,-401.96,-353.61)" d="m196.57 663.38a22.148 22.148 0 1 1-44.297 0 22.148 22.148 0 1 1 44.297 0z" style="fill:url(#radialGradient2915)"/><path transform="matrix(.903 0 0 .903 -362.59 -203.86)" d="m196.57 663.38a22.148 22.148 0 1 1-44.297 0 22.148 22.148 0 1 1 44.297 0z" style="fill:#b6b800"/></g><g transform="matrix(.83496 0 0 .83496 585.73 164.92)"><path transform="matrix(1.1288,0,0,1.1288,-401.96,-353.61)" d="m196.57 663.38a22.148 22.148 0 1 1-44.297 0 22.148 22.148 0 1 1 44.297 0z" style="fill:url(#radialGradient2915)"/><path transform="matrix(.903 0 0 .903 -362.59 -203.86)" d="m196.57 663.38a22.148 22.148 0 1 1-44.297 0 22.148 22.148 0 1 1 44.297 0z" style="fill:#b6b800"/></g><g transform="matrix(.75244 0 0 .75244 726.28 301.37)"><g transform="translate(-223,-76.769)"><path transform="matrix(1.1288,0,0,1.1288,-401.96,-353.61)" d="m196.57 663.38a22.148 22.148 0 1 1-44.297 0 22.148 22.148 0 1 1 44.297 0z" style="fill:url(#radialGradient2915)"/><path transform="matrix(.903 0 0 .903 -362.59 -203.86)" d="m196.57 663.38a22.148 22.148 0 1 1-44.297 0 22.148 22.148 0 1 1 44.297 0z" style="fill:#b6b800"/></g></g><g transform="translate(636.08,48.817)"><path transform="matrix(1.1288,0,0,1.1288,-401.96,-353.61)" d="m196.57 663.38a22.148 22.148 0 1 1-44.297 0 22.148 22.148 0 1 1 44.297 0z" style="fill:url(#radialGradient2915)"/><path transform="matrix(.903 0 0 .903 -362.59 -203.86)" d="m196.57 663.38a22.148 22.148 0 1 1-44.297 0 22.148 22.148 0 1 1 44.297 0z" style="fill:#b6b800"/></g><g transform="matrix(.77995 0 0 .77995 615.71 86.266)"><path transform="matrix(1.1288,0,0,1.1288,-401.96,-353.61)" d="m196.57 663.38a22.148 22.148 0 1 1-44.297 0 22.148 22.148 0 1 1 44.297 0z" style="fill:url(#radialGradient2915)"/><path transform="matrix(.903 0 0 .903 -362.59 -203.86)" d="m196.57 663.38a22.148 22.148 0 1 1-44.297 0 22.148 22.148 0 1 1 44.297 0z" style="fill:#b6b800"/></g><g transform="matrix(.66992 0 0 .66992 623.4 93.987)"><path transform="matrix(1.1288,0,0,1.1288,-401.96,-353.61)" d="m196.57 663.38a22.148 22.148 0 1 1-44.297 0 22.148 22.148 0 1 1 44.297 0z" style="fill:url(#radialGradient2915)"/><path transform="matrix(.903 0 0 .903 -362.59 -203.86)" d="m196.57 663.38a22.148 22.148 0 1 1-44.297 0 22.148 22.148 0 1 1 44.297 0z" style="fill:#b6b800"/></g><g transform="matrix(.5874 0 0 .5874 642.92 98.403)"><path transform="matrix(1.1288,0,0,1.1288,-401.96,-353.61)" d="m196.57 663.38a22.148 22.148 0 1 1-44.297 0 22.148 22.148 0 1 1 44.297 0z" style="fill:url(#radialGradient2915)"/><path transform="matrix(.903 0 0 .903 -362.59 -203.86)" d="m196.57 663.38a22.148 22.148 0 1 1-44.297 0 22.148 22.148 0 1 1 44.297 0z" style="fill:#b6b800"/></g><g transform="matrix(.27626 .43346 -.58381 .36564 848.4 256.95)"><path transform="matrix(1.1288,0,0,1.1288,-401.96,-353.61)" d="m196.57 663.38a22.148 22.148 0 1 1-44.297 0 22.148 22.148 0 1 1 44.297 0z" style="fill:url(#radialGradient2915)"/><path transform="matrix(.903 0 0 .903 -362.59 -203.86)" d="m196.57 663.38a22.148 22.148 0 1 1-44.297 0 22.148 22.148 0 1 1 44.297 0z" style="fill:#b6b800"/></g><g transform="matrix(.16096 .44378 -.67927 .24638 903.59 293.13)"><path transform="matrix(1.1288,0,0,1.1288,-401.96,-353.61)" d="m196.57 663.38a22.148 22.148 0 1 1-44.297 0 22.148 22.148 0 1 1 44.297 0z" style="fill:url(#radialGradient2915)"/><path transform="matrix(.903 0 0 .903 -362.59 -203.86)" d="m196.57 663.38a22.148 22.148 0 1 1-44.297 0 22.148 22.148 0 1 1 44.297 0z" style="fill:#b6b800"/></g><g transform="matrix(.53239 0 0 .53239 495.48 446.1)"><path transform="matrix(1.1288,0,0,1.1288,-401.96,-353.61)" d="m196.57 663.38a22.148 22.148 0 1 1-44.297 0 22.148 22.148 0 1 1 44.297 0z" style="fill:url(#radialGradient2915)"/><path transform="matrix(.903 0 0 .903 -362.59 -203.86)" d="m196.57 663.38a22.148 22.148 0 1 1-44.297 0 22.148 22.148 0 1 1 44.297 0z" style="fill:#b6b800"/></g><g transform="matrix(.35938 .14646 -.21 .5153 535.46 515.3)"><path transform="matrix(1.1288,0,0,1.1288,-401.96,-353.61)" d="m196.57 663.38a22.148 22.148 0 1 1-44.297 0 22.148 22.148 0 1 1 44.297 0z" style="fill:url(#radialGradient2915)"/><path transform="matrix(.903 0 0 .903 -362.59 -203.86)" d="m196.57 663.38a22.148 22.148 0 1 1-44.297 0 22.148 22.148 0 1 1 44.297 0z" style="fill:#b6b800"/></g><g transform="matrix(.35938 .14646 -.21 .5153 524.46 548.31)"><path transform="matrix(1.1288,0,0,1.1288,-401.96,-353.61)" d="m196.57 663.38a22.148 22.148 0 1 1-44.297 0 22.148 22.148 0 1 1 44.297 0z" style="fill:url(#radialGradient2915)"/><path transform="matrix(.903 0 0 .903 -362.59 -203.86)" d="m196.57 663.38a22.148 22.148 0 1 1-44.297 0 22.148 22.148 0 1 1 44.297 0z" style="fill:#b6b800"/></g><g transform="matrix(.32688 .20918 -.29993 .4687 540.95 608.47)"><path transform="matrix(1.1288,0,0,1.1288,-401.96,-353.61)" d="m196.57 663.38a22.148 22.148 0 1 1-44.297 0 22.148 22.148 0 1 1 44.297 0z" style="fill:url(#radialGradient2915)"/><path transform="matrix(.903 0 0 .903 -362.59 -203.86)" d="m196.57 663.38a22.148 22.148 0 1 1-44.297 0 22.148 22.148 0 1 1 44.297 0z" style="fill:#b6b800"/></g><g transform="matrix(.44987 0 0 .44987 435.23 601.8)"><path transform="matrix(1.1288,0,0,1.1288,-401.96,-353.61)" d="m196.57 663.38a22.148 22.148 0 1 1-44.297 0 22.148 22.148 0 1 1 44.297 0z" style="fill:url(#radialGradient2915)"/><path transform="matrix(.903 0 0 .903 -362.59 -203.86)" d="m196.57 663.38a22.148 22.148 0 1 1-44.297 0 22.148 22.148 0 1 1 44.297 0z" style="fill:#b6b800"/></g><g transform="matrix(.44987 0 0 .44987 421.48 625.18)"><path transform="matrix(1.1288,0,0,1.1288,-401.96,-353.61)" d="m196.57 663.38a22.148 22.148 0 1 1-44.297 0 22.148 22.148 0 1 1 44.297 0z" style="fill:url(#radialGradient2915)"/><path transform="matrix(.903 0 0 .903 -362.59 -203.86)" d="m196.57 663.38a22.148 22.148 0 1 1-44.297 0 22.148 22.148 0 1 1 44.297 0z" style="fill:#b6b800"/></g><g transform="matrix(.44987 0 0 .44987 409.1 645.81)"><path transform="matrix(1.1288,0,0,1.1288,-401.96,-353.61)" d="m196.57 663.38a22.148 22.148 0 1 1-44.297 0 22.148 22.148 0 1 1 44.297 0z" style="fill:url(#radialGradient2915)"/><path transform="matrix(.903 0 0 .903 -362.59 -203.86)" d="m196.57 663.38a22.148 22.148 0 1 1-44.297 0 22.148 22.148 0 1 1 44.297 0z" style="fill:#b6b800"/></g><g transform="matrix(.44987 0 0 .44987 395.35 666.44)"><path transform="matrix(1.1288,0,0,1.1288,-401.96,-353.61)" d="m196.57 663.38a22.148 22.148 0 1 1-44.297 0 22.148 22.148 0 1 1 44.297 0z" style="fill:url(#radialGradient2915)"/><path transform="matrix(.903 0 0 .903 -362.59 -203.86)" d="m196.57 663.38a22.148 22.148 0 1 1-44.297 0 22.148 22.148 0 1 1 44.297 0z" style="fill:#b6b800"/></g><g transform="matrix(.44 0 0 .44 379.33 692.59)"><path transform="matrix(1.1288,0,0,1.1288,-401.96,-353.61)" d="m196.57 663.38a22.148 22.148 0 1 1-44.297 0 22.148 22.148 0 1 1 44.297 0z" style="fill:url(#radialGradient2915)"/><path transform="matrix(.903 0 0 .903 -362.59 -203.86)" d="m196.57 663.38a22.148 22.148 0 1 1-44.297 0 22.148 22.148 0 1 1 44.297 0z" style="fill:#b6b800"/></g><g transform="matrix(.33366 .19205 -.26066 .45286 442.65 750.97)"><path transform="matrix(1.1288,0,0,1.1288,-401.96,-353.61)" d="m196.57 663.38a22.148 22.148 0 1 1-44.297 0 22.148 22.148 0 1 1 44.297 0z" style="fill:url(#radialGradient2915)"/><path transform="matrix(.903 0 0 .903 -362.59 -203.86)" d="m196.57 663.38a22.148 22.148 0 1 1-44.297 0 22.148 22.148 0 1 1 44.297 0z" style="fill:#b6b800"/></g><g transform="matrix(.20361 .19205 -.15907 .45286 245.17 785.35)"><g transform="matrix(.80214 .20665 -.60769 1.0901 610 -185.51)"><path transform="matrix(1.1288,0,0,1.1288,-401.96,-353.61)" d="m196.57 663.38a22.148 22.148 0 1 1-44.297 0 22.148 22.148 0 1 1 44.297 0z" style="fill:url(#radialGradient2915)"/><path transform="matrix(.903 0 0 .903 -362.59 -203.86)" d="m196.57 663.38a22.148 22.148 0 1 1-44.297 0 22.148 22.148 0 1 1 44.297 0z" style="fill:#b6b800"/></g></g></g><path d="m558.19-404.01c-176.78 0-354.47 283.6-246.25 593.84-128.51 119.66-63.213 407.06-201.44 525.94-183.25 157.6-76.338 171.08 60.281 40.938 120.53-114.81 175.64-447.29 342.72-535.34l179 1.2188c193.92 42.167 34.895 418.58 305.94 492.78 182.03 49.832 313.2 10.1 75.469-33.781-374.87-69.193 14.068-496.11-265.28-504.38 87.659-296.33-73.168-581.22-250.44-581.22z" style="fill:#69a527;stroke-width:3;stroke:#000"/><path d="m659.99 222.87c-165.5 87.81-136.65 356.83-311.53 555.45-156.46 177.71-258.66 114.87-68.54-12.33 253.7-169.74 96.35-705.61 356.6-583.22" style="fill-rule:evenodd;fill:#69a527;stroke-width:3;stroke:#000"/><g transform="matrix(2.2572,0,0,2.256,1064.2,-1234.4)"><path transform="matrix(.95954 0 0 1.1738 -16.204 -77.02)" d="m-230.22 451.47a23.835 27.348 0 1 1-47.669 0 23.835 27.348 0 1 1 47.669 0z" style="fill:#fff"/><path d="m-260.16 418.53c-7.0691 0-12.442 4.9421-16.916 11.109-4.4736 6.167-7.1777 13.597-7.1777 22.852 0 9.2546 1.732 17.657 6.2057 23.824 4.4736 6.167 10.819 10.137 17.888 10.137 7.0691 0 12.426-4.2478 16.9-10.415 4.4736-6.167 7.4554-14.014 7.4554-23.268 0-9.2546-2.0098-17.934-6.4834-24.101s-10.802-10.137-17.872-10.137zm0 2.99c5.9368 0 12.203 3.1688 16.253 8.7511 4.0495 5.5823 5.78 13.546 5.78 22.22 0 8.6742-3.5356 16.221-7.5851 21.803-4.0495 5.5823-8.5111 9.1676-14.448 9.1676-5.9368 0-12.081-2.8911-16.13-8.4734-4.0495-5.5823-4.9469-13.823-4.9469-22.497 0-8.6742 2.5636-15.527 6.6131-21.109 4.0495-5.5823 8.5272-9.8619 14.464-9.8619z" style="color:#000000;text-indent:0;text-transform:none"/><g transform="translate(-26.301,6.9214)"><path transform="matrix(.57422 0 0 .46502 -274.34 126.92)" d="m98.379 668.11a28.516 40.635 0 1 1-57.031 0 28.516 40.635 0 1 1 57.031 0z"/></g></g><g transform="matrix(2.2572,0,0,2.256,1067.3,-1790.3)"><path transform="matrix(1.237,0,0,1.0332,61.83,-24.835)" d="m-182.96 700.63c-0.66823 17.196-8.9954 31.67-19.267 31.67-5.136 0-9.7858-3.4851-13.152-9.1197-3.3658-5.6346-5.8618-13.433-5.4476-22.017 0.80646-16.713 9.9676-31.088 19.267-31.67 10.258-0.64201 19.267 13.959 18.599 31.136z" style="fill:#fff"/><path d="m-188.18 664.93c-7.0691 0-11.753 5.3554-16.227 11.522-4.4736 6.167-7.8665 13.184-7.8665 22.438 0 9.2546 1.732 17.657 6.2057 23.824 4.4736 6.167 10.819 10.137 17.888 10.137 7.0691 0 12.426-4.2478 16.9-10.415 2.2368-3.0835 4.1007-6.5869 5.4053-10.476 1.3046-3.8894 2.0501-8.1647 2.0501-12.792 0-9.2546-1.3209-18.486-5.7945-24.652-4.4736-6.167-11.491-9.586-18.56-9.586zm0 2.99c5.9368 0 12.892 2.6177 16.942 8.2 4.0495 5.5823 5.0911 14.097 5.0911 22.771 0 4.3371-0.19504 9.0812-1.5851 12.75-1.3901 3.6687-3.9752 6.2621-6 9.0533-4.0495 5.5823-8.5111 8.341-14.448 8.341-5.9368 0-12.081-2.0644-16.13-7.6467-4.0495-5.5823-4.9469-13.823-4.9469-22.497 0-8.6742 2.4258-15.389 6.4754-20.971 4.0495-5.5823 8.665-9.9997 14.602-9.9997z" style="color:#000000;text-indent:0;text-transform:none"/></g><g transform="matrix(2.2572,0,0,2.256,1170.4,-1218.8)"><path transform="matrix(.57422 0 0 .46502 -274.34 126.92)" d="m98.379 668.11a28.516 40.635 0 1 1-57.031 0 28.516 40.635 0 1 1 57.031 0z"/></g><path d="m684.23 0.72151c-12.93 26.309-33.89 64.791-55.33 82.774-26.5 22.224-32.2 60.014-65.6 60.014-33.393 0-37.973-38.114-66.779-57.324-25.85-17.241-40.31-59.898-54.15-85.464-36.27-67.061 58.18 28.047 124.96 28.047 66.787 0 141.08-77.26 116.9-28.048z"/><path d="m385.7-27.404c56.032 28.071 71.569-0.39918 68.778-54.461" style="fill:none;stroke-linecap:round;stroke-linejoin:round;stroke-width:3;stroke:#000"/><path d="m737.03-20.444c-56.03 28.072-71.57-0.399-68.78-54.461" style="fill:none;stroke-linecap:round;stroke-linejoin:round;stroke-width:3;stroke:#000"/><path d="m308.19 194.77c29.376-29.376 58.753-29.376 88.129 0" style="fill:none;stroke-width:3;stroke:#000"/><path d="m781.3 177.21c8.7144-0.97993 17.429-1.3309 26.143 0" style="fill:none;stroke-linecap:round;stroke-linejoin:round;stroke-width:3;stroke:#000"/><path d="m319.05 186.17c-140.4 117.34-132.22 355.35-307.1 553.98-156.47 177.71-258.66 114.87-68.543-12.34 253.7-169.74 96.354-705.6 356.6-583.21" style="fill-rule:evenodd;fill:#69a527;stroke-width:3;stroke:#000"/><path d="m782.62 178.49c165.51 87.811 136.65 356.83 311.53 555.45 156.46 177.71 258.66 114.87 68.543-12.336-253.71-169.73-96.4-705.6-356.61-583.2" style="fill-rule:evenodd;fill:#69a527;stroke-width:3;stroke:#000"/></g><path d="m332.95-4.9663a3.5903 3.5524 0 1 1-7.1805 0 3.5903 3.5524 0 1 1 7.1805 0z" style="fill:#fff;stroke-width:.29196"/><path transform="matrix(.30425 0 0 .32095 -93.298 36.319)" d="m1130.8 331.57c-1.4763 1.9384-4.2225 2.2959-6.1337 0.79859s-2.2637-4.2824-0.7874-6.2209c1.4764-1.9384 4.2226-2.2959 6.1337-0.79859 1.8958 1.4852 2.2604 4.241 0.8178 6.1805" style="fill:#007027;filter:url(#as-0);stroke-width:.23157"/><path transform="matrix(.30425 0 0 .32095 -93.298 36.319)" d="m1078.2 311.93c-5.3513 7.2707-15.306 8.6117-22.233 2.9955s-8.2054-16.063-2.8541-23.334 15.306-8.6117 22.233-2.9955c6.8716 5.5709 8.1932 15.907 2.9643 23.183" style="fill:#007027;filter:url(#as-0);stroke-width:.85386"/><path transform="matrix(.30425 0 0 .32095 -93.298 36.319)" d="m1126.2 134.53c1.6454 14.159-7.4077 23.254-20.22 20.314-12.812-2.9396-24.533-16.801-26.179-30.96-1.6456-14.159 7.4078-23.254 20.22-20.314 12.709 2.916 24.365 16.589 26.143 30.666" style="fill:#007027;filter:url(#as-0);stroke-width:1.2652"/><path transform="matrix(.30425 0 0 .32095 -93.298 36.319)" d="m1425.4 170.37c-5.3513 7.2707-15.306 8.6117-22.233 2.9955s-8.2054-16.063-2.8541-23.334c5.3513-7.2709 15.306-8.6117 22.233-2.9955 6.8716 5.5709 8.1933 15.907 2.9643 23.183" style="fill:#007027;filter:url(#as-0);stroke-width:.85386"/><path transform="matrix(.30425 0 0 .32095 -93.298 36.319)" d="m1146-24.745c0.3445 10.128-7.6506 21.098-17.857 24.502-10.207 3.4036-18.76-2.0479-19.105-12.176-0.3446-10.129 7.6506-21.098 17.857-24.502 10.124-3.376 18.639 1.9598 19.096 11.967" style="fill:#007027;filter:url(#as-0);stroke-width:.97356"/><path transform="matrix(.30425 0 0 .32095 -93.298 36.319)" d="m1031.8 547.69c-5.3514 7.2707-15.306 8.6117-22.233 2.9955s-8.2054-16.063-2.8541-23.334 15.306-8.6117 22.233-2.9955c6.8715 5.5709 8.1932 15.907 2.9643 23.183" style="fill:#007027;filter:url(#as-0);stroke-width:.85386"/><path transform="matrix(.30425 0 0 .32095 -93.298 36.319)" d="m1252.8-210.35c-5.3513 7.2707-15.306 8.6117-22.233 2.9955-6.9276-5.6162-8.2054-16.063-2.8541-23.334s15.306-8.6117 22.233-2.9955c6.8716 5.5709 8.1932 15.907 2.9643 23.183" style="fill:#007027;filter:url(#as-0);stroke-width:.85386"/><path transform="matrix(.30425 0 0 .32095 -93.298 36.319)" d="m1664.4 409.83c-5.3514 7.2707-15.306 8.6117-22.233 2.9955-6.9276-5.6162-8.2054-16.063-2.8541-23.334 5.3513-7.2709 15.306-8.6117 22.233-2.9955 6.8716 5.5709 8.1933 15.907 2.9644 23.183" style="fill:#007027;filter:url(#as-0);stroke-width:.85386"/><path transform="matrix(.30425 0 0 .32095 -93.298 36.319)" d="m1359 31.758c-5.3513 7.2707-15.306 8.6117-22.233 2.9955-6.9276-5.6162-8.2055-16.063-2.8541-23.334 5.3513-7.2709 15.306-8.6117 22.233-2.9955 6.8715 5.5709 8.1932 15.907 2.9643 23.183" style="fill:#007027;filter:url(#as-0);stroke-width:.85386"/><path transform="matrix(.30425 0 0 .32095 -93.298 36.319)" d="m1480.2-38.834c-5.3513 7.2707-15.306 8.6117-22.233 2.9955-6.9276-5.6162-8.2055-16.063-2.8541-23.334 5.3513-7.2709 15.306-8.6117 22.233-2.9955 6.8716 5.5709 8.1932 15.907 2.9643 23.183" style="fill:#007027;filter:url(#as-0);stroke-width:.85386"/><path transform="matrix(.30425 0 0 .32095 -93.298 36.319)" d="m1141.5-84.194c-2.7679 3.8774-7.9167 4.5926-11.5 1.5975-3.5832-2.9951-4.2442-8.5664-1.4762-12.444 2.7679-3.8775 7.9167-4.5926 11.5-1.5975 3.5543 2.9709 4.2379 8.4834 1.5333 12.363" style="fill:#007027;filter:url(#as-0);stroke-width:.44846"/><path transform="matrix(.30425 0 0 .32095 -93.298 36.319)" d="m1563.1 344.75c-5.3514 7.2707-15.306 8.6117-22.233 2.9955-6.9276-5.6162-8.2054-16.063-2.8541-23.334 5.3513-7.2709 15.306-8.6117 22.233-2.9955 6.8715 5.5709 8.1932 15.907 2.9643 23.183" style="fill:#007027;filter:url(#as-0);stroke-width:.85386"/><path transform="matrix(.30425 0 0 .32095 -93.298 36.319)" d="m935.25 442.27c-5.3513 9.2096-15.306 10.908-22.233 3.7943s-8.2054-20.347-2.8541-29.557c5.3513-9.2098 15.306-10.908 22.233-3.7943 6.8715 7.0565 8.1932 20.15 2.9643 29.365" style="fill:#007027;filter:url(#as-0);stroke-width:.96099"/><path transform="matrix(.30425 0 0 .32095 -93.298 36.319)" d="m723.84 739.82c-5.3513 7.2707-15.306 8.6117-22.233 2.9955-6.9276-5.6162-8.2054-16.063-2.8541-23.334 5.3513-7.2709 15.306-8.6117 22.233-2.9955 6.8715 5.5709 8.1932 15.907 2.9643 23.183" style="fill:#007027;filter:url(#as-0);stroke-width:.85386"/><path transform="matrix(.30425 0 0 .32095 -93.298 36.319)" d="m888.55 702.47c-2.768 3.8774-7.9168 4.5926-11.5 1.5975-3.5833-2.9951-4.2442-8.5664-1.4763-12.444 2.768-3.8775 7.9168-4.5926 11.5-1.5975 3.5543 2.9709 4.2379 8.4834 1.5333 12.363" style="fill:#007027;filter:url(#as-0);stroke-width:.44846"/><path transform="matrix(.30425 0 0 .32095 -93.298 36.319)" d="m1240.2 33.067c-2.7679 3.8774-7.9167 4.5926-11.5 1.5975-3.5832-2.9951-4.2442-8.5664-1.4762-12.444 2.7679-3.8775 7.9167-4.5926 11.5-1.5975 3.5542 2.9709 4.2379 8.4834 1.5332 12.363" style="fill:#007027;filter:url(#as-0);stroke-width:.44846"/><path transform="matrix(.30425 0 0 .32095 -93.298 36.319)" d="m823.69 645.95c-2.768 3.8774-7.9168 4.5926-11.5 1.5975-3.5833-2.9951-4.2442-8.5664-1.4763-12.444s7.9168-4.5926 11.5-1.5975c3.5543 2.9709 4.2379 8.4834 1.5333 12.363" style="fill:#007027;filter:url(#as-0);stroke-width:.44846"/><path transform="matrix(.30425 0 0 .32095 -93.298 36.319)" d="m1046.3 734.63c-2.7679 3.8774-7.9167 4.5926-11.5 1.5975-3.5832-2.9951-4.2442-8.5664-1.4762-12.444 2.7679-3.8775 7.9167-4.5926 11.5-1.5975 3.5542 2.9709 4.2379 8.4834 1.5332 12.363" style="fill:#007027;filter:url(#as-0);stroke-width:.44846"/><path transform="matrix(.30425 0 0 .32095 -93.298 36.319)" d="m1507.7 119.01c-2.7679 3.8774-7.9167 4.5926-11.5 1.5975-3.5832-2.9951-4.2442-8.5664-1.4762-12.444 2.7679-3.8775 7.9167-4.5926 11.5-1.5975 3.5542 2.9709 4.2379 8.4834 1.5332 12.363" style="fill:#007027;filter:url(#as-0);stroke-width:.44846"/><path transform="matrix(.30425 0 0 .32095 -93.298 36.319)" d="m1196.9 192.43c-2.7679 3.8774-7.9167 4.5926-11.5 1.5975-3.5832-2.9951-4.2442-8.5664-1.4762-12.444 2.7679-3.8775 7.9167-4.5926 11.5-1.5975 3.5542 2.9709 4.2379 8.4834 1.5333 12.363" style="fill:#007027;filter:url(#as-0);stroke-width:.44846"/><path transform="matrix(.30425 0 0 .32095 -93.298 36.319)" d="m1265.1 319.63c-2.768 3.8774-7.9168 4.5926-11.5 1.5975-3.5833-2.9951-4.2443-8.5664-1.4763-12.444 2.7679-3.8775 7.9167-4.5926 11.5-1.5975 3.5543 2.9709 4.2379 8.4834 1.5333 12.363" style="fill:#007027;filter:url(#as-0);stroke-width:.44846"/><path transform="matrix(.30425 0 0 .32095 -93.298 36.319)" d="m1614.5 263.25c-2.7679 3.8774-7.9167 4.5926-11.5 1.5975-3.5832-2.9951-4.2442-8.5664-1.4763-12.444 2.768-3.8775 7.9168-4.5926 11.5-1.5975 3.5542 2.9709 4.2379 8.4834 1.5332 12.363" style="fill:#007027;filter:url(#as-0);stroke-width:.44846"/><path transform="matrix(.30425 0 0 .32095 -93.298 36.319)" d="m1549.6 408.84c-2.768 3.8774-7.9168 4.5926-11.5 1.5975s-4.2442-8.5664-1.4762-12.444c2.7679-3.8775 7.9167-4.5926 11.5-1.5975 3.5543 2.9709 4.2379 8.4834 1.5333 12.363" style="fill:#007027;filter:url(#as-0);stroke-width:.44846"/><path transform="matrix(.30425 0 0 .32095 -93.298 36.319)" d="m1226.2 470.68c-2.768 3.8774-7.9168 4.5926-11.5 1.5975-3.5833-2.9951-4.2443-8.5664-1.4763-12.444 2.7679-3.8775 7.9168-4.5926 11.5-1.5975 3.5543 2.9709 4.2379 8.4834 1.5333 12.363" style="fill:#007027;filter:url(#as-0);stroke-width:.44846"/><path transform="matrix(.30425 0 0 .32095 -93.298 36.319)" d="m1136.4 667.81c-2.768 3.8774-7.9168 4.5926-11.5 1.5975-3.5833-2.9951-4.2442-8.5664-1.4763-12.444s7.9168-4.5926 11.5-1.5975c3.5543 2.9709 4.2379 8.4834 1.5333 12.363" style="fill:#007027;filter:url(#as-0);stroke-width:.44846"/><path transform="matrix(.30425 0 0 .32095 -93.298 36.319)" d="m1076.7 409.07c-2.768 3.8774-7.9168 4.5926-11.5 1.5975s-4.2442-8.5664-1.4762-12.444c2.7679-3.8775 7.9167-4.5926 11.5-1.5975 3.5543 2.9709 4.2379 8.4834 1.5333 12.363" style="fill:#007027;filter:url(#as-0);stroke-width:.44846"/><path transform="matrix(.30425 0 0 .32095 -93.298 36.319)" d="m1305.8 266.65c-2.7679 3.8774-7.9167 4.5926-11.5 1.5975-3.5832-2.9951-4.2442-8.5664-1.4762-12.444 2.7679-3.8775 7.9167-4.5926 11.5-1.5975 3.5542 2.9709 4.2379 8.4834 1.5332 12.363" style="fill:#007027;filter:url(#as-0);stroke-width:.44846"/><path transform="matrix(.30425 0 0 .32095 -93.298 36.319)" d="m1245.4 193.93c-2.7679 3.8774-7.9167 4.5926-11.5 1.5975s-4.2442-8.5664-1.4763-12.444c2.768-3.8775 7.9168-4.5926 11.5-1.5975 3.5543 2.9709 4.2379 8.4834 1.5333 12.363" style="fill:#007027;filter:url(#as-0);stroke-width:.44846"/><path transform="matrix(.30425 0 0 .32095 -93.298 36.319)" d="m1855.1 722.97c-2.7679 3.8774-7.9167 4.5926-11.5 1.5975-3.5832-2.9951-4.2442-8.5664-1.4763-12.444 2.768-3.8775 7.9168-4.5926 11.5-1.5975 3.5542 2.9709 4.2379 8.4834 1.5332 12.363" style="fill:#007027;filter:url(#as-0);stroke-width:.44846"/><path transform="matrix(.30425 0 0 .32095 -93.298 36.319)" d="m1140.3 282.11c-2.768 3.8774-7.9168 4.5926-11.5 1.5975-3.5833-2.9951-4.2443-8.5664-1.4763-12.444 2.7679-3.8775 7.9167-4.5926 11.5-1.5975 3.5543 2.9709 4.2379 8.4834 1.5333 12.363" style="fill:#007027;filter:url(#as-0);stroke-width:.44846"/><path transform="matrix(.30425 0 0 .32095 -93.298 36.319)" d="m1343.2-216.88c-2.768 3.8774-7.9168 4.5926-11.5 1.5975-3.5833-2.9951-4.2442-8.5664-1.4763-12.444s7.9168-4.5926 11.5-1.5975c3.5543 2.9709 4.2379 8.4834 1.5333 12.363" style="fill:#007027;filter:url(#as-0);stroke-width:.44846"/><path transform="matrix(.30425 0 0 .32095 -93.298 36.319)" d="m1457 231.2c-2.7679 3.8774-7.9167 4.5926-11.5 1.5975s-4.2442-8.5664-1.4763-12.444c2.768-3.8775 7.9168-4.5926 11.5-1.5975 3.5543 2.9709 4.238 8.4834 1.5333 12.363" style="fill:#007027;filter:url(#as-0);stroke-width:.44846"/><path transform="matrix(.30425 0 0 .32095 -93.298 36.319)" d="m984.43 299.26c-2.768 3.8774-7.9168 4.5926-11.5 1.5975-3.5833-2.9951-4.2442-8.5664-1.4763-12.444 2.7679-3.8775 7.9168-4.5926 11.5-1.5975 3.5543 2.9709 4.2379 8.4834 1.5333 12.363" style="fill:#007027;filter:url(#as-0);stroke-width:.44846"/><path transform="matrix(.30425 0 0 .32095 -93.298 36.319)" d="m1441.7 109.72c-1.4764 1.9384-4.2226 2.2959-6.1337 0.7986-1.9112-1.4973-2.2638-4.2824-0.7874-6.2209 1.4763-1.9384 4.2225-2.2959 6.1337-0.7986 1.8957 1.4852 2.2603 4.241 0.8178 6.1805" style="fill:#007027;filter:url(#as-0);stroke-width:.23157"/><path transform="matrix(.30425 0 0 .32095 -93.298 36.319)" d="m1581.2 542.12c-1.4763 1.9384-4.2225 2.2959-6.1337 0.7986s-2.2637-4.2824-0.7874-6.2209 4.2225-2.2959 6.1337-0.79859c1.8958 1.4852 2.2604 4.2409 0.8178 6.1805" style="fill:#007027;filter:url(#as-0);stroke-width:.23157"/><path transform="matrix(.30425 0 0 .32095 -93.298 36.319)" d="m1457.2 446.57c-1.4764 1.9384-4.2226 2.2959-6.1337 0.7986-1.9112-1.4973-2.2638-4.2824-0.7874-6.2209 1.4763-1.9384 4.2225-2.2959 6.1337-0.7986 1.8957 1.4852 2.2603 4.241 0.8178 6.1805" style="fill:#007027;filter:url(#as-0);stroke-width:.23157"/><path transform="matrix(.30425 0 0 .32095 -93.298 36.319)" d="m1197.4 241.02c-1.4763 1.9384-4.2225 2.2959-6.1337 0.79859-1.9112-1.4973-2.2637-4.2824-0.7874-6.2209 1.4763-1.9384 4.2225-2.2959 6.1337-0.79859 1.8957 1.4852 2.2604 4.241 0.8178 6.1805" style="fill:#007027;filter:url(#as-0);stroke-width:.23157"/><path transform="matrix(.30425 0 0 .32095 -93.298 36.319)" d="m990.3 596.29c-1.4763 1.9384-4.2225 2.2959-6.1337 0.7986s-2.2637-4.2824-0.78739-6.2209 4.2225-2.2959 6.1337-0.79859c1.8957 1.4852 2.2604 4.2409 0.81779 6.1805" style="fill:#007027;filter:url(#as-0);stroke-width:.23157"/><path transform="matrix(.30425 0 0 .32095 -93.298 36.319)" d="m968.87 737.22c-1.4763 1.9384-4.2225 2.2959-6.1337 0.7986s-2.2637-4.2824-0.78739-6.2209c1.4763-1.9384 4.2225-2.2959 6.1337-0.79859 1.8957 1.4852 2.2604 4.2409 0.8178 6.1805" style="fill:#007027;filter:url(#as-0);stroke-width:.23157"/><path transform="matrix(.30425 0 0 .32095 -93.298 36.319)" d="m1570.7 640.95c-1.4763 1.9384-4.2225 2.2959-6.1337 0.7986-1.9111-1.4973-2.2637-4.2824-0.7874-6.2209 1.4764-1.9384 4.2226-2.2959 6.1338-0.7986 1.8957 1.4852 2.2603 4.241 0.8177 6.1805" style="fill:#007027;filter:url(#as-0);stroke-width:.23157"/><path transform="matrix(.30425 0 0 .32095 -93.298 36.319)" d="m1412.6-185.54c-1.4763 1.9384-4.2225 2.2959-6.1337 0.7986s-2.2637-4.2824-0.7874-6.2209c1.4764-1.9384 4.2226-2.2959 6.1337-0.7986 1.8958 1.4852 2.2604 4.241 0.8178 6.1805" style="fill:#007027;filter:url(#as-0);stroke-width:.23157"/><path transform="matrix(.30425 0 0 .32095 -93.298 36.319)" d="m980.2 220.22c-1.4763 1.9384-4.2225 2.2959-6.1337 0.7986s-2.2637-4.2824-0.7874-6.2209c1.4763-1.9384 4.2225-2.2959 6.1337-0.79859 1.8957 1.4852 2.2604 4.241 0.8178 6.1805" style="fill:#007027;filter:url(#as-0);stroke-width:.23157"/><path transform="matrix(.30425 0 0 .32095 -93.298 36.319)" d="m1491.7 55.207c-1.4763 1.9384-4.2225 2.2959-6.1337 0.79859-1.9112-1.4973-2.2637-4.2824-0.7874-6.2209 1.4764-1.9384 4.2225-2.2959 6.1337-0.79859 1.8958 1.4852 2.2604 4.2409 0.8178 6.1805" style="fill:#007027;filter:url(#as-0);stroke-width:.23157"/><path transform="matrix(.30425 0 0 .32095 -93.298 36.319)" d="m1236.8 379.29c-1.4763 1.9384-4.2225 2.2959-6.1337 0.79859-1.9112-1.4973-2.2637-4.2824-0.7874-6.2209 1.4763-1.9384 4.2225-2.2959 6.1337-0.7986 1.8957 1.4852 2.2604 4.241 0.8178 6.1805" style="fill:#007027;filter:url(#as-0);stroke-width:.23157"/><path transform="matrix(.30425 0 0 .32095 -93.298 36.319)" d="m1705.5 542.43c-1.4764 1.9384-4.2226 2.2959-6.1338 0.79859-1.9111-1.4973-2.2637-4.2824-0.7873-6.2209 1.4763-1.9384 4.2225-2.2959 6.1337-0.7986 1.8957 1.4852 2.2603 4.241 0.8178 6.1805" style="fill:#007027;filter:url(#as-0);stroke-width:.23157"/><path transform="matrix(.30425 0 0 .32095 -93.298 36.319)" d="m1752.3 621.72c-1.4763 1.9384-4.2225 2.2959-6.1337 0.79859s-2.2637-4.2824-0.7874-6.2209c1.4763-1.9384 4.2225-2.2959 6.1337-0.79859 1.8957 1.4852 2.2604 4.241 0.8178 6.1805" style="fill:#007027;filter:url(#as-0);stroke-width:.23157"/><path transform="matrix(.30425 0 0 .32095 -93.298 36.319)" d="m1423.2 812.68c-1.4763 1.9384-4.2225 2.2959-6.1337 0.79859-1.9112-1.4973-2.2638-4.2824-0.7874-6.2209 1.4763-1.9384 4.2225-2.2959 6.1337-0.7986 1.8957 1.4852 2.2603 4.241 0.8178 6.1805" style="fill:#007027;filter:url(#as-0);stroke-width:.23157"/><path transform="matrix(.30425 0 0 .32095 -93.298 36.319)" d="m887.31 514.81c-1.4763 1.9384-4.2225 2.2959-6.1337 0.79859-1.9112-1.4973-2.2637-4.2824-0.7874-6.2209 1.4763-1.9384 4.2225-2.2959 6.1337-0.79859 1.8957 1.4852 2.2604 4.241 0.8178 6.1805" style="fill:#007027;filter:url(#as-0);stroke-width:.23157"/><path transform="matrix(.30425 0 0 .32095 -93.298 36.319)" d="m1520.4 276.62c-1.4764 1.9384-4.2225 2.2959-6.1337 0.7986s-2.2638-4.2824-0.7874-6.2209c1.4763-1.9384 4.2225-2.2959 6.1337-0.7986 1.8957 1.4852 2.2603 4.241 0.8178 6.1805" style="fill:#007027;filter:url(#as-0);stroke-width:.23157"/><path transform="matrix(.30425 0 0 .32095 -93.298 36.319)" d="m1377.1 334.44c-1.4763 1.9384-4.2225 2.2959-6.1337 0.7986-1.9111-1.4973-2.2637-4.2824-0.7874-6.2209 1.4764-1.9384 4.2226-2.2959 6.1338-0.7986 1.8957 1.4852 2.2603 4.241 0.8177 6.1805" style="fill:#007027;filter:url(#as-0);stroke-width:.23157"/><path transform="matrix(.30425 0 0 .32095 -93.298 36.319)" d="m1334.9 230.44c-1.4763 1.9384-4.2225 2.2959-6.1337 0.79859-1.9112-1.4973-2.2637-4.2824-0.7874-6.2209s4.2225-2.2959 6.1337-0.7986c1.8957 1.4852 2.2604 4.241 0.8178 6.1805" style="fill:#007027;filter:url(#as-0);stroke-width:.23157"/><path transform="matrix(.30425 0 0 .32095 -93.298 36.319)" d="m1540.3 574.62c-1.4763 1.9384-4.2225 2.2959-6.1337 0.79859-1.9112-1.4973-2.2637-4.2824-0.7874-6.2209 1.4764-1.9384 4.2226-2.2959 6.1337-0.7986 1.8958 1.4852 2.2604 4.241 0.8178 6.1805" style="fill:#007027;filter:url(#as-0);stroke-width:.23157"/><path transform="matrix(.30425 0 0 .32095 -93.298 36.319)" d="m1433.6 5.1216c-1.4763 1.9384-4.2225 2.2959-6.1337 0.79859-1.9112-1.4973-2.2637-4.2824-0.7874-6.2209 1.4763-1.9384 4.2225-2.2959 6.1337-0.79859 1.8958 1.4852 2.2604 4.2409 0.8178 6.1805" style="fill:#007027;filter:url(#as-0);stroke-width:.23157"/><path transform="matrix(.30425 0 0 .32095 -93.298 36.319)" d="m1045.3 208.15c-1.4763 1.9384-4.2225 2.2959-6.1337 0.7986s-2.2637-4.2824-0.7874-6.2209 4.2225-2.2959 6.1337-0.79859c1.8958 1.4852 2.2604 4.2409 0.8178 6.1805" style="fill:#007027;filter:url(#as-0);stroke-width:.23157"/><path transform="matrix(.30425 0 0 .32095 -93.298 36.319)" d="m1615.7 592.41c-1.4763 1.9384-4.2225 2.2959-6.1337 0.79859s-2.2637-4.2824-0.7874-6.2209c1.4763-1.9384 4.2225-2.2959 6.1337-0.79859 1.8957 1.4852 2.2604 4.241 0.8178 6.1805" style="fill:#007027;filter:url(#as-0);stroke-width:.23157"/><path transform="matrix(.30425 0 0 .32095 -93.298 36.319)" d="m1170.8 594.57c-1.4763 1.9384-4.2225 2.2959-6.1337 0.79859s-2.2637-4.2824-0.7874-6.2209c1.4763-1.9384 4.2225-2.2959 6.1337-0.79859 1.8958 1.4852 2.2604 4.241 0.8178 6.1805" style="fill:#007027;filter:url(#as-0);stroke-width:.23157"/><path transform="matrix(.30425 0 0 .32095 -93.298 36.319)" d="m1032.3 469.57c-1.4764 1.9384-4.2226 2.2959-6.1337 0.7986-1.9112-1.4973-2.2638-4.2824-0.7874-6.2209 1.4763-1.9384 4.2225-2.2959 6.1337-0.79859 1.8957 1.4852 2.2603 4.2409 0.8178 6.1805" style="fill:#007027;filter:url(#as-0);stroke-width:.23157"/><path transform="matrix(.30425 0 0 .32095 -93.298 36.319)" d="m1700 637.38c-4.5684 6.071-13.066 7.1907-18.98 2.5012-5.9141-4.6895-7.005-13.413-2.4366-19.484 4.5684-6.0712 13.066-7.1907 18.98-2.5012 5.8662 4.6517 6.9945 13.283 2.5306 19.357" style="fill:#007027;filter:url(#as-0);stroke-width:.72091"/><path transform="matrix(.30425 0 0 .32095 -93.298 36.319)" d="m1076.9 656.03c-1.4764 1.9384-4.2226 2.2959-6.1337 0.79859-1.9112-1.4973-2.2638-4.2824-0.7874-6.2209 1.4763-1.9384 4.2225-2.2959 6.1337-0.7986 1.8957 1.4852 2.2603 4.241 0.8178 6.1805" style="fill:#007027;filter:url(#as-0);stroke-width:.23157"/><path transform="matrix(.30425 0 0 .32095 -93.298 36.319)" d="m1571.1 468.44c-2.7679 3.8774-7.9167 4.5926-11.5 1.5975-3.5832-2.9951-4.2442-8.5664-1.4763-12.444 2.768-3.8775 7.9168-4.5926 11.5-1.5975 3.5542 2.9709 4.2379 8.4834 1.5332 12.363" style="fill:#007027;filter:url(#as-0);stroke-width:.44846"/><path transform="matrix(.30425 0 0 .32095 -93.298 36.319)" d="m1682.2 816.54c-1.4763 1.9384-4.2225 2.2959-6.1337 0.79859-1.9112-1.4973-2.2637-4.2824-0.7874-6.2209 1.4763-1.9384 4.2225-2.2959 6.1337-0.7986 1.8957 1.4852 2.2604 4.241 0.8178 6.1805" style="fill:#007027;filter:url(#as-0);stroke-width:.23157"/><path transform="matrix(.30425 0 0 .32095 -93.298 36.319)" d="m1339.9 383.5c-1.4763 1.9384-4.2225 2.2959-6.1337 0.7986s-2.2637-4.2824-0.7874-6.2209 4.2225-2.2959 6.1337-0.79859c1.8958 1.4852 2.2604 4.2409 0.8178 6.1805" style="fill:#007027;filter:url(#as-0);stroke-width:.23157"/><path transform="matrix(.30425 0 0 .32095 -93.298 36.319)" d="m1402.7 522.75c-1.4763 1.9384-4.2225 2.2959-6.1337 0.79859s-2.2637-4.2824-0.7874-6.2209c1.4763-1.9384 4.2225-2.2959 6.1337-0.79859 1.8957 1.4852 2.2604 4.241 0.8178 6.1805" style="fill:#007027;filter:url(#as-0);stroke-width:.23157"/><path transform="matrix(.30425 0 0 .32095 -93.298 36.319)" d="m1570.5 219.67c-4.5684 6.071-13.066 7.1907-18.98 2.5012-5.9141-4.6895-7.005-13.413-2.4366-19.484 4.5685-6.0712 13.066-7.1907 18.98-2.5012 5.8663 4.6517 6.9946 13.283 2.5307 19.357" style="fill:#007027;filter:url(#as-0);stroke-width:.72091"/><path transform="matrix(.30425 0 0 .32095 -93.298 36.319)" d="m1098.9 524.3c-2.768 3.8774-7.9168 4.5926-11.5 1.5975s-4.2442-8.5664-1.4762-12.444c2.7679-3.8775 7.9167-4.5926 11.5-1.5975 3.5543 2.9709 4.2379 8.4834 1.5333 12.363" style="fill:#007027;filter:url(#as-0);stroke-width:.44846"/><path transform="matrix(.30425 0 0 .32095 -93.298 36.319)" d="m1204.1 545.52c-2.7679 3.8774-7.9167 4.5926-11.5 1.5975s-4.2442-8.5664-1.4763-12.444c2.768-3.8775 7.9168-4.5926 11.5-1.5975 3.5543 2.9709 4.238 8.4834 1.5333 12.363" style="fill:#007027;filter:url(#as-0);stroke-width:.44846"/><path transform="matrix(.30425 0 0 .32095 -93.298 36.319)" d="m1488.4 181.74c-1.4763 1.9384-4.2225 2.2959-6.1337 0.79859-1.9111-1.4973-2.2637-4.2824-0.7874-6.2209 1.4764-1.9384 4.2226-2.2959 6.1338-0.79859 1.8957 1.4852 2.2603 4.241 0.8178 6.1805" style="fill:#007027;filter:url(#as-0);stroke-width:.23157"/><path transform="matrix(.30425 0 0 .32095 -93.298 36.319)" d="m1455.3-116.21c-1.4763 1.9384-4.2225 2.2959-6.1337 0.79859s-2.2637-4.2824-0.7874-6.2209c1.4763-1.9384 4.2225-2.2959 6.1337-0.79859 1.8958 1.4852 2.2604 4.241 0.8178 6.1805" style="fill:#007027;filter:url(#as-0);stroke-width:.23157"/><path transform="matrix(.30425 0 0 .32095 -93.298 36.319)" d="m1438.2 375.28c-1.4763 1.9384-4.2225 2.2959-6.1337 0.79859-1.9112-1.4973-2.2637-4.2824-0.7874-6.2209s4.2225-2.2959 6.1337-0.7986c1.8957 1.4852 2.2604 4.241 0.8178 6.1805" style="fill:#007027;filter:url(#as-0);stroke-width:.23157"/><path transform="matrix(.30425 0 0 .32095 -93.298 36.319)" d="m1185.5 416.14c-1.4764 1.9384-4.2226 2.2959-6.1337 0.7986-1.9112-1.4973-2.2638-4.2824-0.7874-6.2209 1.4763-1.9384 4.2225-2.2959 6.1337-0.7986 1.8957 1.4852 2.2603 4.241 0.8178 6.1805" style="fill:#007027;filter:url(#as-0);stroke-width:.23157"/><path transform="matrix(.26458 0 0 .26458 360.82 153.31)" d="m9.008 8.6687c-1.6977 2.3513-4.8556 2.785-7.0534 0.96874-2.1976-1.8163-2.6031-5.1948-0.90546-7.5462 1.6978-2.3514 4.8557-2.785 7.0535-0.96874 2.1799 1.8016 2.5992 5.1445 0.9403 7.4973" style="fill:#007027;filter:url(#as-0);opacity:.71065;stroke-width:.2735"/><path transform="matrix(.26458 0 0 .26458 315.08 184.49)" d="m9.008 8.6687c-1.6977 2.3513-4.8556 2.785-7.0534 0.96874-2.1976-1.8163-2.6031-5.1948-0.90546-7.5462 1.6978-2.3514 4.8557-2.785 7.0535-0.96874 2.1799 1.8016 2.5992 5.1445 0.9403 7.4973" style="fill:#007027;filter:url(#as-0);opacity:.71065;stroke-width:.2735"/><path d="m319.65 67.277c-1.8907 3.8469-4.9555 9.4738-8.0904 12.103-3.8749 3.2496-4.7083 8.7753-9.5921 8.7753-4.8828 0-5.5525-5.5731-9.7645-8.382-3.7798-2.521-5.8942-8.7584-7.9179-12.497-5.3034-9.8058 8.5072 4.1011 18.272 4.1011 9.7657 0 20.629-11.297 17.093-4.1012z" style="fill:url(#radialGradient5585);stroke-width:.26458"/><path d="m289.05-4.9663a3.5903 3.5524 0 1 1-7.1805 0 3.5903 3.5524 0 1 1 7.1805 0z" style="fill:#fff;stroke-width:.29196"/></g></g><ellipse cx="30.751" cy="84.646" rx="77.828" ry="96.634" style="fill-rule:evenodd;fill:url(#radialGradient6751);paint-order:normal"/><ellipse cx="21.164" cy="19.917" rx="23.583" ry="29.282" style="fill-rule:evenodd;fill:url(#radialGradient6751-7);opacity:.321;paint-order:normal"/><ellipse cx="107.34" cy="172.17" rx="23.583" ry="29.282" style="fill-rule:evenodd;fill:url(#radialGradient6751-7-7);opacity:.479;paint-order:normal"/><ellipse cx="-23.442" cy="175.19" rx="23.583" ry="29.282" style="fill-rule:evenodd;fill:url(#radialGradient6751-7-7-6);opacity:.44;paint-order:normal"/><ellipse cx="-60.484" cy="257.4" rx="5.0625" ry="11.706" style="fill-rule:evenodd;fill:url(#radialGradient6751-7-7-7);opacity:.357;paint-order:normal"/><ellipse cx="91.085" cy="222.07" rx="11.11" ry="13.795" style="fill-rule:evenodd;fill:url(#radialGradient6751-7-7-71);opacity:.714;paint-order:normal"/><ellipse cx="-60.481" cy="153.65" rx="13.036" ry="16.186" style="fill-rule:evenodd;fill:url(#radialGradient6751-7-7-75);opacity:.374;paint-order:normal"/><ellipse cx="-136.8" cy="300.32" rx="6.7453" ry="8.3752" style="fill-rule:evenodd;fill:url(#radialGradient6751-7-7-8);opacity:.359;paint-order:normal"/></g></svg>
