<?xml version="1.0" encoding="UTF-8"?>
<svg width="511.66mm" height="782.66mm" version="1.1" viewBox="0 0 511.66 782.66" xmlns="http://www.w3.org/2000/svg"><defs><clipPath id="clipPath831"><path d="m0 2218.6h1781.5v-2218.6h-1781.5z"/></clipPath><clipPath id="clipPath839"><path d="m371.86 267.82h1183.7v-121.57h-1183.7z"/></clipPath><clipPath id="clipPath855"><path d="m50.45 2009.8h1671.9v-1693.7h-1671.9z"/></clipPath><clipPath id="clipPath859"><path d="m1722.4 1180.2c0-455.06-155.2-859.71-831.98-864.19-518.73-3.435-839.95 377.21-839.95 845 0 466.44 381.34 848.72 835.97 848.72 454.63 0 835.97-374.46 835.97-829.52"/></clipPath><radialGradient id="radialGradient875" cx="0" cy="0" r="1" gradientTransform="matrix(764.02 0 0 -827.19 884.68 1141.8)" gradientUnits="userSpaceOnUse"><stop style="stop-color:#fff;stop-opacity:0" offset="0"/><stop style="stop-color:#fff;stop-opacity:0" offset=".030734"/><stop style="stop-color:#fff;stop-opacity:0" offset=".038462"/><stop style="stop-color:#fff;stop-opacity:0" offset=".79457"/><stop style="stop-color:#fff;stop-opacity:.95001" offset="1"/></radialGradient><mask id="mask877" x="0" y="0" width="1" height="1" maskUnits="userSpaceOnUse"><path d="m-32768 32767h65535v-65535h-65535z" style="fill:url(#radialGradient875)"/></mask><clipPath id="clipPath933"><path d="m630.7 668.25h199.9v-222.87h-199.9z"/></clipPath><clipPath id="clipPath953"><path d="m508.12 1283.7h906.12v-1075.8h-906.12z"/></clipPath><clipPath id="clipPath957"><path d="m1186.1 985.99c-11.056-11.383-8.044-29.851-4.401-45.295 25.563-108.39 44.944-218.23 58.018-328.83 4.128-34.925 7.63-70.209 4.173-105.21-9.544-96.594-74.849-195.77-165.04-231.64 51.95 15.329 104.33 38.167 158.33 33.982s108.68-27.045 140.74-70.702c2.069-2.819 4.082-5.81 4.816-9.229 2.057-9.589-7.023-18.569-16.627-20.558-9.603-1.99-262.76 0.307-318.47 13.852-4.263 1.037-8.832 2.324-11.543 5.774-4.155 5.287-2.123 12.925-0.036 19.317 8.208 25.138 14.416 51.788 10.244 77.902s-20.73 51.64-45.874 59.83c-22.93 7.468-48.112-0.458-69.303-11.969-43.833-23.812-78.79-76.343-96.825-122.85-2.733-7.048-4.857-15.683-11.619-19.062-32.568-16.268-191.98-19.17-279.99-14.084-10.883 0.629-23.042 2.01-29.965 10.43-13.585 16.521 5.129 43.357 23.584 54.169 71.867 42.104 165.99 43.207 238.82 2.798-29.579 69.452-59.706 155.31-39.285 227.98 6.048 21.525 16.324 41.576 26.239 61.616 48.976 98.98 90.683 201.56 124.68 306.63 3.614 11.172 7.169 23.126 4.124 34.467-4.356 16.228-21.414 26.343-38.107 28.261s-33.361-2.568-49.756-6.247c-48.844-10.961-278.35-30.127-285.45-21.894-10.206 11.83 10.187 60.153 22.59 69.654 12.404 9.5 120.83 3.462 136.2 6.272 69.189 12.653 134.23 41.447 198.36 70.337 28.292 12.745 58.074 26.824 75.046 52.801 6.762 10.35 11.17 22.193 18.782 31.934 8.901 11.393 21.552 19.134 33.917 26.626 34.895 21.143 81.39 41.895 113.35 16.537 28.289-22.443 28.361-70.86 60.164-87.962 28.516-15.335 62.894 4.685 87.166 26.113 44.671 39.437 82.502 86.601 111.3 138.77 4.777 8.651 12.089 18.867 21.778 16.928 8.283-1.658 11.975-11.257 13.728-19.52 19.187-90.441-28.557-190.86-110.81-233.07-30.235-15.515-63.654-23.533-95.587-35.157-6.317-2.299-12.793-4.878-17.477-9.701"/></clipPath><radialGradient id="radialGradient969" cx="0" cy="0" r="1" gradientTransform="matrix(208.18 -16.33 -23.918 -304.9 1025.2 732.99)" gradientUnits="userSpaceOnUse"><stop style="stop-color:#fff;stop-opacity:.95001" offset="0"/><stop style="stop-color:#fff;stop-opacity:0" offset=".65119"/><stop style="stop-color:#fff;stop-opacity:0" offset="1"/></radialGradient><mask id="mask971" x="0" y="0" width="1" height="1" maskUnits="userSpaceOnUse"><path d="m-32768 32767h65535v-65535h-65535z" style="fill:url(#radialGradient969)"/></mask><radialGradient id="radialGradient989" cx="0" cy="0" r="1" gradientTransform="matrix(208.18 -16.33 -23.918 -304.9 1025.2 732.99)" gradientUnits="userSpaceOnUse"><stop offset="0"/><stop offset=".65119"/><stop offset="1"/></radialGradient><clipPath id="clipPath1019"><path d="m508.58 393.66h493.52v-178.81h-493.52z"/></clipPath><clipPath id="clipPath1035"><path d="m1034.1 284.36h348.95v-76.467h-348.95z"/></clipPath><clipPath id="clipPath1055"><path d="m992.44 1052.5c-11.233-11.827-17.139-27.613-22.5-43.017-37.034-106.43-61.603-217.19-73.045-329.29 2.817 3.569 5.634 7.138 8.451 10.707-4.399-11.444-5.551-38.484-4.023-50.649 4.222 6.414 9.639 17.58 13.862 23.994-10.655-47.553-7.033-88.766 12.989-133.2 0.052 16.186 8.804 33.025 15.804 47.618 5.832-24.956 10.915-49.576 24.765-71.139 0.93 5.493 3.165 10.76 6.467 15.247 2.28-4.534 4.559-9.067 6.84-13.599 4.381 2.402 8.466 9.57 12.848 11.973 0.735-11.431 6.19-27.286 14.459-35.21 28.81 27.425 50.038 58.671 70.586 92.728 4.514-17.655 7.796-36.54 2.152-53.867 7.591 12.228 15.184 24.457 22.776 36.686 0.362-7.352 0.723-14.703 1.085-22.054 27.304 34.753 46.85 74.369 60.174 116.4 3.213 20.191 6.007 40.344 8.359 60.34 7.789 66.216 10.671 134.48-3.866 200.02-10.169 45.852-33.389 85.163-55.689 125.51-16.343 14.7-35.929 26.281-57.532 29.996-4.528 0.779-9.15 1.171-13.775 1.172-19.043 0-38.155-6.651-51.187-20.368"/></clipPath><radialGradient id="radialGradient1069" cx="0" cy="0" r="1" gradientTransform="matrix(230.53 0 0 -345.79 1056.5 760.22)" gradientUnits="userSpaceOnUse"><stop style="stop-color:#fff;stop-opacity:.95001" offset="0"/><stop style="stop-color:#fff;stop-opacity:0" offset="1"/></radialGradient><mask id="mask1071" x="0" y="0" width="1" height="1" maskUnits="userSpaceOnUse"><path d="m-32768 32767h65535v-65535h-65535z" style="fill:url(#radialGradient1069)"/></mask><radialGradient id="radialGradient1091" cx="0" cy="0" r="1" gradientTransform="matrix(230.53 0 0 -345.79 1056.5 760.22)" gradientUnits="userSpaceOnUse"><stop style="stop-color:#fff" offset="0"/><stop style="stop-color:#fff" offset="1"/></radialGradient><clipPath id="clipPath1109"><path d="m902.66 1002h267.53v-493.91h-267.53z"/></clipPath><clipPath id="clipPath1125"><path d="m779.44 1180.8h443.87v-340.32h-443.87z"/></clipPath><clipPath id="clipPath1141"><path d="m751.76 1025.9h57.176v-74.642h-57.176z"/></clipPath><clipPath id="clipPath1157"><path d="m1232.6 1149.7h66.44v-129.7h-66.44z"/></clipPath><clipPath id="clipPath1177"><path d="m958.91 1201.3h175.96v-69.92h-175.96z"/></clipPath><clipPath id="clipPath1197"><path d="m357.4 2085.7h962.12v-943.69h-962.12z"/></clipPath><clipPath id="clipPath1201"><path d="m414.2 1808.9c67.276-108.22 163.19-198.01 273.26-262.23-48.269-30.56-110.84-196.47-77.805-245.67 173.06-257.72 683.58-205.67 709.68 182.61 4.65 69.157-79.137 115.6-141.98 144.83-17.233 8.015-36.426 15.649-45.921 32.113-4.715 8.175-57.345 267.62-186.12 380.75-22.129 19.439-47.969 35.609-76.674 42.215-19.508 4.489-42.774 2.963-55.687-12.333-9.393-11.125-44.382-75.824 72.878-237.11 42.453-58.391 95.983-108.64 133.26-170.46-69.528 4.85-170.8-27.122-234.52-55.349-8.311 22.885-195.15 345.51-372.46 417.49-19.623 7.966-113.82-30.392 2.097-216.86"/></clipPath><radialGradient id="radialGradient1211" cx="0" cy="0" r="1" fx="-.28516" fy="-.26738" gradientTransform="matrix(232.47 -164.22 -164.22 -232.47 1005.3 1435.5)" gradientUnits="userSpaceOnUse"><stop style="stop-color:#fff;stop-opacity:.95001" offset="0"/><stop style="stop-color:#fff;stop-opacity:0" offset="1"/></radialGradient><mask id="mask1213" x="0" y="0" width="1" height="1" maskUnits="userSpaceOnUse"><path d="m-32768 32767h65535v-65535h-65535z" style="fill:url(#radialGradient1211)"/></mask><radialGradient id="radialGradient1229" cx="0" cy="0" r="1" fx="-.28516" fy="-.26738" gradientTransform="matrix(232.47 -164.22 -164.22 -232.47 1005.3 1435.5)" gradientUnits="userSpaceOnUse"><stop style="stop-color:#fff" offset="0"/><stop style="stop-color:#fff" offset="1"/></radialGradient><clipPath id="clipPath1255"><path d="m800.74 2077.2h246.5v-409.22h-246.5z"/></clipPath><clipPath id="clipPath1271"><path d="m357.4 2019.9h364.71v-644.6h-364.71z"/></clipPath><clipPath id="clipPath1291"><path d="m413 1972.9h347.61v-410.39h-347.61z"/></clipPath><clipPath id="clipPath1311"><path d="m862.22 2029.7h208.66v-367.02h-208.66z"/></clipPath><clipPath id="clipPath1331"><path d="m754.99 1154.7h146.86v-240.27h-146.86z"/></clipPath><clipPath id="clipPath1347"><path d="m831.4 1138.8h157.9v-175.08h-157.9z"/></clipPath><clipPath id="clipPath1363"><path d="m1040 1107.8h43.81v-61.42h-43.81z"/></clipPath><clipPath id="clipPath1379"><path d="m1088.9 1172.3h165.83v-211.33h-165.83z"/></clipPath><clipPath id="clipPath1395"><path d="m988.59 1110.9h44.789v-90.82h-44.789z"/></clipPath><clipPath id="clipPath1415"><path d="m1336 1501h101.22v-457.49h-101.22z"/></clipPath><clipPath id="clipPath1439"><path d="m1419.7 1702.3h128.19v-171.25h-128.19z"/></clipPath><clipPath id="clipPath1459"><path d="m829.89 1778.8h82.691v-36.72h-82.691z"/></clipPath><clipPath id="clipPath1475"><path d="m942.92 1815.3h92.544v-174.19h-92.544z"/></clipPath><clipPath id="clipPath1491"><path d="m694.67 1767h229.85v-154.47h-229.85z"/></clipPath><clipPath id="clipPath1515"><path d="m1355.9 1291.6h52.47v-99.03h-52.47z"/></clipPath><clipPath id="clipPath1535"><path d="m558.18 1007.5h80.947v-73.078h-80.947z"/></clipPath><clipPath id="clipPath1551"><path d="m803.41 1552.1h118.92v-174.17h-118.92z"/></clipPath><clipPath id="clipPath1555"><path d="m803.41 1552.1h118.92v-174.17h-118.92z"/></clipPath><clipPath id="clipPath1587"><path d="m820.68 1516.3h76.58v-112.72h-76.58z"/></clipPath><clipPath id="clipPath1591"><path d="m877.2 1405.7c4.954 2.521 8.246 7.203 10.79 11.86 13.99 25.601 11.168 55.799-1.922 79.315-4.912 8.823-12.547 17.777-23.539 19.254-12.708 1.709-24.267-7.368-30.864-17.37-12.715-19.276-14.663-44.494-4.42-65.718 6.371-13.201 17.872-24.944 33.192-28.534 5.514-1.292 11.649-1.409 16.763 1.193"/></clipPath><radialGradient id="radialGradient1609" cx="0" cy="0" r="1" gradientTransform="matrix(5.0476 -47.916 -41.724 -4.3954 858.97 1459.9)" gradientUnits="userSpaceOnUse"><stop style="stop-color:#fff;stop-opacity:0" offset="0"/><stop style="stop-color:#fff;stop-opacity:0" offset=".57444"/><stop style="stop-color:#fff;stop-opacity:0" offset=".61137"/><stop style="stop-color:#fff;stop-opacity:.65124" offset=".79771"/><stop style="stop-color:#fff;stop-opacity:.95001" offset=".90966"/><stop style="stop-color:#fff;stop-opacity:.95001" offset="1"/></radialGradient><mask id="mask1611" x="0" y="0" width="1" height="1" maskUnits="userSpaceOnUse"><path d="m-32768 32767h65535v-65535h-65535z" style="fill:url(#radialGradient1609)"/></mask><radialGradient id="radialGradient1635" cx="0" cy="0" r="1" gradientTransform="matrix(5.0476 -47.916 -41.724 -4.3954 858.97 1459.9)" gradientUnits="userSpaceOnUse"><stop style="stop-color:#130c0e" offset="0"/><stop style="stop-color:#130c0e" offset=".57444"/><stop style="stop-color:#130c0e" offset=".61137"/><stop style="stop-color:#130c0e" offset=".79771"/><stop style="stop-color:#130c0e" offset=".90966"/><stop style="stop-color:#130c0e" offset="1"/></radialGradient><clipPath id="clipPath1661"><path d="m822.96 1501.7h65.566v-90.09h-65.566z"/></clipPath><clipPath id="clipPath1685"><path d="m1033.8 1577.6h99.03v-154.37h-99.03z"/></clipPath><clipPath id="clipPath1689"><path d="m1033.8 1577.6h99.03v-154.37h-99.03z"/></clipPath><clipPath id="clipPath1721"><path d="m1045.9 1543.1h65.58v-102.23h-65.58z"/></clipPath><clipPath id="clipPath1725"><path d="m1099.7 1443.4c3.731 2.49 5.898 6.72 7.477 10.917 8.99 23.9 3.253 51.725-11.004 72.908-5.44 8.085-13.331 15.986-23.075 15.903-11.13-0.095-19.398-10.597-23.221-21.049-7.104-19.423-4.561-42.117 6.665-59.485 6.858-10.609 17.41-19.509 29.902-21.391 4.532-0.684 9.444-0.347 13.256 2.197"/></clipPath><radialGradient id="radialGradient1743" cx="0" cy="0" r="1" gradientTransform="matrix(10.852 -41.55 -28.833 -7.5308 1078.7 1492)" gradientUnits="userSpaceOnUse"><stop style="stop-color:#fff;stop-opacity:0" offset="0"/><stop style="stop-color:#fff;stop-opacity:0" offset=".57444"/><stop style="stop-color:#fff;stop-opacity:0" offset=".61137"/><stop style="stop-color:#fff;stop-opacity:.65124" offset=".79771"/><stop style="stop-color:#fff;stop-opacity:.95001" offset=".90966"/><stop style="stop-color:#fff;stop-opacity:.95001" offset="1"/></radialGradient><mask id="mask1745" x="0" y="0" width="1" height="1" maskUnits="userSpaceOnUse"><path d="m-32768 32767h65535v-65535h-65535z" style="fill:url(#radialGradient1743)"/></mask><radialGradient id="radialGradient1769" cx="0" cy="0" r="1" gradientTransform="matrix(10.852 -41.55 -28.833 -7.5308 1078.7 1492)" gradientUnits="userSpaceOnUse"><stop style="stop-color:#130c0e" offset="0"/><stop style="stop-color:#130c0e" offset=".57444"/><stop style="stop-color:#130c0e" offset=".61137"/><stop style="stop-color:#130c0e" offset=".79771"/><stop style="stop-color:#130c0e" offset=".90966"/><stop style="stop-color:#130c0e" offset="1"/></radialGradient><clipPath id="clipPath1803"><path d="m1047.2 1528.6h56.33v-80.2h-56.33z"/></clipPath><clipPath id="clipPath1847"><path d="m1004.5 1427.4h25.56v-36.27h-25.56z"/></clipPath><clipPath id="clipPath1887"><path d="m1096.3 1490.2h118.07v-78.76h-118.07z"/></clipPath><clipPath id="clipPath1903"><path d="m726.2 1424.6h148.86v-61.9h-148.86z"/></clipPath><clipPath id="clipPath1927"><path d="m241.75 921.52h655.07v-166.03h-655.07z"/></clipPath><clipPath id="clipPath1943"><path d="m103.24 1114.9h571.86v-349.08h-571.86z"/></clipPath><clipPath id="clipPath1963"><path d="m671.14 914.62h102.58v-88.006h-102.58z"/></clipPath><clipPath id="clipPath1983"><path d="m524.25 864.66h33.194v-73.924h-33.194z"/></clipPath><clipPath id="clipPath1999"><path d="m568.88 837.09h34.761v-48.412h-34.761z"/></clipPath><clipPath id="clipPath2019"><path d="m340.54 876.2h111.85v-75.927h-111.85z"/></clipPath><clipPath id="clipPath2039"><path d="m219.97 969.9h107.71v-83.901h-107.71z"/></clipPath><clipPath id="clipPath2059"><path d="m380.6 1043.4h98.92v-71.719h-98.92z"/></clipPath></defs><g transform="translate(162.35 383.77)"><g transform="matrix(.35278 0 0 -.35278 -198.56 472.23)"><g clip-path="url(#clipPath831)"><g clip-path="url(#clipPath839)" style="opacity:.60001"></g><g clip-path="url(#clipPath855)" style="opacity:.7"><g clip-path="url(#clipPath859)"><g mask="url(#mask877)"></g></g></g><g transform="translate(764.5 446.71)"><path d="m0 0c-28.381-3.684-61.947 5.382-88.796 22.786-25.787 16.716-46.575 45.729-46.279 72.912 7.061-10.977 16.516-20.799 27.322-28.381-9.476 6.649-27.349 65.715 8.375 117.97-2.975-14.146 12.08-30.947 15.291-46.353-0.425 10.665 0.974 30.86 7.103 38.355 1.601-7.054 10.663-20.139 12.264-27.193 0.028 43.904 10.063 80.193 38.262 108.77 62.007-43.458 100.29-121.48 91.236-185.94-2.95-20.985-10.66-40.734-24.833-54.743-10.471-10.349-24.434-16.171-39.945-18.184" style="fill:#fff"/></g><g clip-path="url(#clipPath933)" style="opacity:.3"><g transform="translate(778.86 668.25)"><path d="m0 0c-5.683-7.29-56.87-87.204-52.896-92.724-12.819 17.804-22.846 44.713-21.39 66.603-8.939-34.366 5.606-75.006 16.425-108.83-16.563 3.954-24.68 22.234-30.411 38.269 4.02-28.231 10.929-56.05 20.585-82.881-17.112-1.693-34.766 8.394-41.995 23.996 3.181-16.03 15.932-28.16 28.02-39.158-28.161 2.273-54.487 20.518-66.5 46.09 17.907-26.921 41.539-50.014 68.865-67.296 13.231-8.367 49.097-7.663 64.933-5.607 15.511 2.014 29.473 7.835 39.944 18.184 14.173 14.009 21.884 33.758 24.833 54.743 6.846 48.713-13.367 105.17-50.413 148.61" style="fill:#726658"/></g></g><g transform="translate(1186.1 985.99)"><path d="m0 0c-11.056-11.383-8.043-29.851-4.401-45.295 25.563-108.39 44.945-218.23 58.018-328.83 4.129-34.925 7.631-70.209 4.173-105.21-9.544-96.594-74.849-195.77-165.04-231.64 51.949 15.329 104.33 38.167 158.33 33.982 54.003-4.184 108.68-27.045 140.74-70.702 2.07-2.819 4.083-5.81 4.816-9.229 2.058-9.589-7.023-18.568-16.626-20.558-9.604-1.99-262.76 0.307-318.47 13.852-4.264 1.037-8.832 2.324-11.544 5.774-4.154 5.287-2.123 12.925-0.036 19.317 8.209 25.138 14.416 51.788 10.244 77.902-4.171 26.114-20.729 51.64-45.874 59.83-22.929 7.468-48.112-0.458-69.302-11.969-43.833-23.812-78.791-76.343-96.825-122.85-2.733-7.048-4.857-15.683-11.62-19.062-32.568-16.268-191.98-19.17-279.99-14.084-10.883 0.629-23.041 2.01-29.965 10.43-13.585 16.521 5.129 43.357 23.584 54.169 71.867 42.104 165.99 43.207 238.82 2.798-29.578 69.452-59.706 155.31-39.285 227.98 6.048 21.525 16.324 41.576 26.24 61.616 48.975 98.98 90.682 201.56 124.67 306.63 3.614 11.172 7.169 23.126 4.125 34.467-4.356 16.228-21.414 26.343-38.107 28.261s-33.362-2.568-49.757-6.247c-48.844-10.961-278.35-30.127-285.45-21.894-10.205 11.83 10.187 60.153 22.591 69.654 12.403 9.5 120.83 3.462 136.2 6.272 69.189 12.653 134.23 41.447 198.36 70.337 28.292 12.745 58.075 26.824 75.047 52.801 6.762 10.35 11.17 22.193 18.781 31.934 8.901 11.393 21.552 19.134 33.917 26.626 34.895 21.143 81.39 41.895 113.35 16.537 28.289-22.443 28.361-70.859 60.165-87.962 28.515-15.335 62.893 4.685 87.165 26.113 44.672 39.437 82.503 86.601 111.3 138.77 4.777 8.651 12.089 18.867 21.779 16.928 8.282-1.658 11.974-11.257 13.727-19.52 19.187-90.441-28.557-190.86-110.81-233.07-30.235-15.515-63.654-23.533-95.587-35.157-6.317-2.299-12.793-4.878-17.477-9.701" style="fill:#f1f2f2"/></g><g clip-path="url(#clipPath953)" style="opacity:.3"><g clip-path="url(#clipPath957)"><g mask="url(#mask971)"><path d="m1186.1 985.99c-11.056-11.383-8.044-29.851-4.401-45.295 25.563-108.39 44.944-218.23 58.018-328.83 4.128-34.925 7.63-70.209 4.173-105.21-9.544-96.594-74.849-195.77-165.04-231.64 51.95 15.329 104.33 38.167 158.33 33.982s108.68-27.045 140.74-70.702c2.069-2.819 4.082-5.81 4.816-9.229 2.057-9.589-7.023-18.569-16.627-20.558-9.603-1.99-262.76 0.307-318.47 13.852-4.263 1.037-8.832 2.324-11.543 5.774-4.155 5.287-2.123 12.925-0.036 19.317 8.208 25.138 14.416 51.788 10.244 77.902s-20.73 51.64-45.874 59.83c-22.93 7.468-48.112-0.458-69.303-11.969-43.833-23.812-78.79-76.343-96.825-122.85-2.733-7.048-4.857-15.683-11.619-19.062-32.568-16.268-191.98-19.17-279.99-14.084-10.883 0.629-23.042 2.01-29.965 10.43-13.585 16.521 5.129 43.357 23.584 54.169 71.867 42.104 165.99 43.207 238.82 2.798-29.579 69.452-59.706 155.31-39.285 227.98 6.048 21.525 16.324 41.576 26.239 61.616 48.976 98.98 90.683 201.56 124.68 306.63 3.614 11.172 7.169 23.126 4.124 34.467-4.356 16.228-21.414 26.343-38.107 28.261s-33.361-2.568-49.756-6.247c-48.844-10.961-278.35-30.127-285.45-21.894-10.206 11.83 10.187 60.153 22.59 69.654 12.404 9.5 120.83 3.462 136.2 6.272 69.189 12.653 134.23 41.447 198.36 70.337 28.292 12.745 58.074 26.824 75.046 52.801 6.762 10.35 11.17 22.193 18.782 31.934 8.901 11.393 21.552 19.134 33.917 26.626 34.895 21.143 81.39 41.895 113.35 16.537 28.289-22.443 28.361-70.86 60.164-87.962 28.516-15.335 62.894 4.685 87.166 26.113 44.671 39.437 82.502 86.601 111.3 138.77 4.777 8.651 12.089 18.867 21.778 16.928 8.283-1.658 11.975-11.257 13.728-19.52 19.187-90.441-28.557-190.86-110.81-233.07-30.235-15.515-63.654-23.533-95.587-35.157-6.317-2.299-12.793-4.878-17.477-9.701" style="fill:url(#radialGradient989)"/></g></g></g><g transform="translate(1239.8 611.87)"><path d="m0 0c-13.073 110.59-32.455 220.44-58.018 328.83-0.1 0.424-0.196 0.857-0.295 1.286-1.788-8.794 1.849-52.23 3.03-60.938 4.19-24.502 11.241-48.473 16.897-72.721 7.724-33.108 9.758-67.376 17.103-100.55 68.358-308.78-90.195-398.23-102.08-413.35 70.415 45.171 119.37 129.64 127.53 212.24 3.458 34.997-0.044 70.281-4.173 105.21" style="fill:#fff"/></g><g clip-path="url(#clipPath1019)" style="opacity:.10001"><g transform="translate(780.97 228.1)"><path d="m0 0c-37.396-3.207-74.985-7.251-112.45-8.945-28.011-1.266-56.111-1.894-84.136-0.71-9.479 0.401-48.431-1.912-51.493 10.993-7.465 31.458 81.045 61.85 69.848 58.651-21.328-3.199-60.251-20.794-78.704-46.828-1.727-2.435-6.36 0.245-7.941 2.778-2.039 3.266-0.236 7.517 1.801 10.785 10.205 16.37 27.41 26.843 44.696 34.575 17.901 8.006 36.982 12.978 55.96 17.913-36.833-4.454-75.264-15.598-99.694-43.521-22.185-25.357-5.784-44.851 23.88-46.565 57.141-3.303 114.48-3.151 171.6 0.44 28.232 1.775 56.415 4.383 84.491 7.843 10.756 1.326 20.539 0.393 27.902 8.992 7.171 8.374 11.14 19.242 15.533 29.195 12.531 28.391 44.973 84.413 80.591 105.13 40.854 23.766 51.726 17.771 79.244 19.767-27.992 12.797-101.57 4.799-138.94-64.49-10.507-19.485-20.555-39.192-28.323-59.922-10.065-26.86-26.309-33.72-53.87-36.084" style="fill:#231f20"/></g></g><g clip-path="url(#clipPath1035)" style="opacity:.10001"><g transform="translate(1381.8 224.53)"><path d="m0 0c1.026 6.503-2.995 13.207-7.281 18.525-14.633 18.154-33.937 32.511-55.533 41.303 21.737-12.092 42.242-27.604 55.661-48.548 1.408-2.198 2.766-4.544 3.024-7.141 0.257-2.597-0.882-5.508-3.279-6.541-18.738 24.113-45.899 41.548-75.626 48.545-7.484 1.761-17.073 2.04-20.992-4.575 28.234-1.695 55.721-13.861 75.959-33.62 2.293-2.239 4.551-4.657 5.681-7.655 0.876-2.324 0.906-6.609-0.176-8.785 0 0-29.342-1.002-35.694-0.987-12.411 0.03-24.822 0.174-37.232 0.361-67.71 1.024-136.28 0.868-203.8 6.486-39.32 3.271-43.586 11.803-48.385 21.933 0.195-2.267 0.595-13.843 2.046-15.689 2.711-3.45 7.279-4.737 11.543-5.774 55.703-13.545 308.86-15.842 318.47-13.853 8.773 1.818 17.082 9.473 16.889 18.093-0.28-0.669-0.737-1.371-1.267-2.078" style="fill:#231f20"/></g></g><g transform="translate(1082.1 524.81)"><path d="m0 0c7.592 12.229 15.184 24.458 22.777 36.687 0.361-7.352 0.723-14.703 1.084-22.054 27.304 34.753 46.851 74.368 60.174 116.4 3.213 20.192 6.007 40.345 8.359 60.34 7.79 66.217 10.672 134.48-3.865 200.02-10.169 45.852-33.389 85.163-55.69 125.51-16.342 14.7-35.928 26.281-57.532 29.996-23.174 3.985-48.766-2.149-64.961-19.197-11.234-11.826-17.139-27.612-22.5-43.017-37.034-106.43-61.604-217.19-73.045-329.29 2.817 3.569 5.633 7.137 8.45 10.706-4.399-11.444-5.55-38.483-4.023-50.648 4.223 6.414 9.64 17.58 13.863 23.993-10.655-47.553-7.033-88.766 12.989-133.2 0.051 16.185 8.803 33.024 15.804 47.618 5.831-24.956 10.914-49.577 24.765-71.14 0.93 5.493 3.164 10.761 6.466 15.247 2.28-4.533 4.56-9.066 6.84-13.599 4.382 2.403 8.467 9.57 12.849 11.973 0.734-11.43 6.189-27.285 14.459-35.21 28.809 27.425 50.038 58.671 70.585 92.729 4.515-17.655 7.796-36.541 2.152-53.868" style="fill:#fff"/></g></g></g><g transform="matrix(.35278 0 0 -.35278 -198.56 472.23)"><g clip-path="url(#clipPath1055)"><g mask="url(#mask1071)"><path d="m992.44 1052.5c-11.233-11.827-17.139-27.613-22.5-43.017-37.034-106.43-61.603-217.19-73.045-329.29 2.817 3.569 5.634 7.138 8.451 10.707-4.399-11.444-5.551-38.484-4.023-50.649 4.222 6.414 9.639 17.58 13.862 23.994-10.655-47.553-7.033-88.766 12.989-133.2 0.052 16.186 8.804 33.025 15.804 47.618 5.832-24.956 10.915-49.576 24.765-71.139 0.93 5.493 3.165 10.76 6.467 15.247 2.28-4.534 4.559-9.067 6.84-13.599 4.381 2.402 8.466 9.57 12.848 11.973 0.735-11.431 6.19-27.286 14.459-35.21 28.81 27.425 50.038 58.671 70.586 92.728 4.514-17.655 7.796-36.54 2.152-53.867 7.591 12.228 15.184 24.457 22.776 36.686 0.362-7.352 0.723-14.703 1.085-22.054 27.304 34.753 46.85 74.369 60.174 116.4 3.213 20.191 6.007 40.344 8.359 60.34 7.789 66.216 10.671 134.48-3.866 200.02-10.169 45.852-33.389 85.163-55.689 125.51-16.343 14.7-35.929 26.281-57.532 29.996-4.528 0.779-9.15 1.171-13.775 1.172-19.043 0-38.155-6.651-51.187-20.368" style="fill:url(#radialGradient1091)"/></g></g></g><g transform="matrix(.35278 0 0 -.35278 -198.56 472.23)"><g clip-path="url(#clipPath1109)" style="opacity:.10001"><g transform="translate(1160.3 904.61)"><path d="m0 0c-4.323 19.492-16.725 51.553-24.902 69.166 0.199-1.873 20.303-61.657 22.797-83.772 2.829-25.091 5.705-50.547 6.005-75.808 0.455-38.265-5.084-76.259-11.145-114.08-5.661-35.328-27.616-90.008-29.654-97.712 3.494 13.206 1.254 42.439 0.266 42.389-0.965-23.451-16.092-41.833-25.326-62.65 0.36 14.06-11.464 51.186-5.866 70.381-2.465-6.559-56.252-104.77-76.492-125.63-5.62 14.996-3.354 31.577-2.438 47.405l-22.714-33.312c-3.611 12.581-6.587 25.345-8.913 38.226-1.91-9.687-4.887-19.162-8.86-28.2-10.674 24.942-21.569 51.161-19.242 78.191-6.376-13.588-17.855-19.873-24.231-33.461-2.37 19.579 0.257 87.823 2.132 106.64-3.757-6.35-13.504-13.217-16.714-19.861 0.235 14.509 2.68 28.981 7.224 42.762-3.881-5.502-7.189-11.407-9.852-17.59 6.909 40.576 13.633 81.332 23.796 121.16 8.653 33.907 37.719 149.26 43.377 173.15-1.49-3.78-2.871-7.607-4.197-11.418-34.131-98.083-62.148-194.49-72.693-297.8 2.596 3.29 4.869 2.043 7.465 5.332-4.054-10.547-5.14-28.245-3.732-39.456 3.891 5.911 13.162 16.833 17.053 22.743-9.82-43.824-12.845-82.571 5.607-123.52 0.048 14.917 11.269 21.592 17.721 35.041 5.374-22.999 14.711-45.067 27.476-64.94 0.857 5.063 2.916 9.917 5.959 14.052 2.101-4.178 3.395-15.099 5.496-19.277 3.399 4.199 11.291 19.047 15.33 21.261 0.676-10.534 5.865-26.126 10.644-35.932 26.146 28.467 49.703 54.116 68.639 85.503 4.161-16.271 14.429-30.936 9.227-46.905 6.997 11.27 18.596 28.186 25.593 39.457 0.333-6.776-3.799-22.551-3.466-29.326 25.164 32.028 41.323 82.645 52.192 163.45 8.192 60.898 9.835 123.94-3.562 184.34" style="fill:#726658"/></g></g></g><g transform="matrix(.35278 0 0 -.35278 -198.56 472.23)"><g clip-path="url(#clipPath1125)" style="opacity:.3"><g transform="translate(1221.8 1180.8)"><path d="m0 0c-30.71-7.989-77.964-22.099-103.19-34.228-20.22-9.721-40.798-21.764-51.668-41.39-17.008 8.174-38.516 5.99-53.533-5.437-22.469 7.693-83.556 44.857-95.929 45.905-45.951 3.89-92.291 3.007-138.08-2.501 0.113-0.643 0.27-1.254 0.316-1.943 2.733-41.033 18.95-81.334 38.994-116.84 12.726-22.543 26.62-41.233 44.075-59.854 15.483-16.516 14.941-48.874 13.48-70.183-0.564-8.223-1.711-16.477-0.86-24.675 0.442-4.253-5.71-29.301-3.446-29.168 36.257 2.133 48.738 39.426 45.73 89.26-0.623 10.318 69.439 22.711 92.839 86.834 16.89-14.313 60.312-14.536 71.509 4.659 11.277-20.298 54.61-61.126 102.2-89.102-6.827 37.491-4.051 76.369 7.51 113.87 12.443 40.364 37.87 90.604 30.056 134.79" style="fill:#231f20"/></g></g></g><g transform="matrix(.35278 0 0 -.35278 -198.56 472.23)"><g clip-path="url(#clipPath1141)" style="opacity:.3"><g transform="translate(796.84 973.66)"><path d="m0 0c-8.296 16.988-15.112 34.362-20.576 52.202-5.883-6.874-17.607-12.059-24.493-15.034-0.297-0.128 15.091-32.868 24.79-46.527 7.115-1.943 14.072-4.431 21.05-7.6 3.781-1.718 7.54-3.626 11.331-5.486-4.322 7.334-8.376 14.815-12.102 22.445" style="fill:#231f20"/></g></g></g><g transform="matrix(.35278 0 0 -.35278 -198.56 472.23)"><g clip-path="url(#clipPath1157)" style="opacity:.3"><g transform="translate(1286.8 1149.7)"><path d="m0 0c-5.34-6.247-11.987-10.406-17.456-16.532-13.696-15.342-29.681-32.299-34.756-52.87-4.787-19.406-2.061-44.915 18.271-54.272 13.928-6.41 17.945-10.691 44.605 3.172 4.679 48.621-2.095 88.503-10.664 120.5" style="fill:#231f20"/></g></g></g><g transform="matrix(.35278 0 0 -.35278 20.778 138.38)"><path d="m0 0c-0.026-0.022-0.055-0.039-0.081-0.061-10.405-11.36-30.326-17.185-44.073-16.97-12.711 0.198-45.768 19.924-35.404 42.635 5.459 11.962 18.48 18.025 30.617 21.18 8.103 2.107 16.795 1.487 24.368-1.409 13.226-1.962 25.401-7.943 29.578-19.179 1.803-4.851 2.176-9.305 1.49-13.369-0.125-4.904-2.847-9.776-6.495-12.827m35.399 48.209c-31.583 27.156 66.379 45.117-15.706 90.518-90.782 50.212-307.14 42.506-454.91-65.503-44.11-32.242-108.72-97.706-74.014-139.9 154.54-187.87 736.54-146.8 787.68-8.722 40.458 109.23-213.1 95.469-243.06 123.61" style="fill:#c48e52"/></g><g transform="matrix(.35278 0 0 -.35278 179.04 81.302)"><path d="m0 0c-7.465 12.797-61.851 8.531-60.784-5.332-22.469 7.693-55.115 36.079-91.71 44.788-48.127 11.455-154.69 6.14-156.61 3.807-1.72-2.088-36.408-153.1 78.007-236.91 3.32-2.431 143.65 47.553 171.32 114.88 16.89-14.314 60.312-14.536 71.509 4.659 15.996-28.792 96.479-98.93 162.13-115.03 71.406 121.43 12.252 278.89 6.788 280.93-3.358 1.256-93.706-21.98-132.35-40.56-20.22-9.721-37.429-31.595-48.299-51.221" style="fill:#9e1f63"/></g><g transform="matrix(.35278 0 0 -.35278 -198.56 472.23)"><g clip-path="url(#clipPath1331)" style="opacity:.3"><g transform="translate(858 955.51)"><path d="m0 0c-37.338 28.158-55.166 79.535-55.468 125.42-0.142 21.68 4.018 46.654 23.818 59.269 13.714 8.737 30.688 11.921 46.957 13.154-50.355 3.224-110.62-0.201-112.06-1.95-1.721-2.089-36.409-153.1 78.007-236.91 1.459-1.069 29.396 7.994 62.597 24.202-15.551 1.612-30.553 6.793-43.847 16.818" style="fill:#231f20"/></g></g></g><g transform="matrix(.35278 0 0 -.35278 -198.56 472.23)"><g clip-path="url(#clipPath1347)" style="opacity:.39999"><g transform="translate(897.39 963.71)"><path d="m0 0c31.318-0.854 70.289 39.984 91.916 60.72-19.195 15.996-19.135 54.059-7.998 73.581-33.591 39.989-116.43 46.958-128.5 36.257-45.98-40.78-11.731-169.02 44.581-170.56" style="fill:#fff"/></g></g></g><g transform="matrix(.35278 0 0 -.35278 -198.56 472.23)"><g clip-path="url(#clipPath1363)" style="opacity:.39999"><g transform="translate(1052 1046.5)"><path d="m0 0c12.398-0.569 25.555 5.231 31.78 15.28-1.178 17.364-8.836 34.132-24.073 46.101-24.215-7.233-25.36-49.956-7.707-61.381" style="fill:#fff"/></g></g></g><g transform="matrix(.35278 0 0 -.35278 -198.56 472.23)"><g clip-path="url(#clipPath1379)" style="opacity:.39999"><g transform="translate(1226 1170)"><path d="m0 0c-13.855 9.059-108.77-8.531-137.14-51.671 27.52-25.283 32.115-65.995 15.96-97.462 20.17-20.507 53.004-43.259 85.439-56.912 17.904-7.536 38.531-0.336 47.815 16.727 35.381 65.028 5.979 177.51-12.074 189.32" style="fill:#fff"/></g></g></g><g transform="matrix(.35278 0 0 -.35278 -198.56 472.23)"><g clip-path="url(#clipPath1395)" style="opacity:.3"><g transform="translate(1016.8 1110.9)"><path d="m0 0c-4.587-2.105-7.451-4.836-7.199-8.11-2.689 0.92-5.548 2.178-8.519 3.624-13.511-13.187-15.035-38.081-9.315-57.757 2.84-9.77 7.374-20.243 14.776-27.644 1.53 2.748 2.908 5.524 4.063 8.335 5.476-4.64 13.754-7.766 22.806-9.262-24.683 18.351-32.014 61.371-16.612 90.814" style="fill:#231f20"/></g></g></g><g transform="matrix(1.0197 0 0 1.0197 -16.085 -22.501)"><g transform="matrix(.47849 0 0 -.47849 -313.79 643.72)"><g clip-path="url(#clipPath1177)" style="opacity:.3"><g transform="translate(1134.9 1168.4)"><path d="m0 0c-3.169 4.327-14.766 17.848-18.997 21.204-31.964 25.358-78.459 4.607-113.35-16.537-12.365-7.492-25.016-15.233-33.917-26.626-0.751-0.961-8.992-13.832-9.686-14.831 46.854-2.867 158.36 20.794 175.95 36.79" style="fill:#231f20"/></g></g></g><g transform="matrix(.47849 0 0 -.47849 -115.6 -221.83)"><path d="m0 0c67.275-108.22 163.19-198.01 273.26-262.23-48.268-30.559-110.84-196.47-77.805-245.67 173.06-257.72 683.58-205.67 709.68 182.61 4.65 69.158-79.137 115.6-141.99 144.83-17.232 8.015-36.425 15.649-45.921 32.113-4.714 8.175-57.344 267.62-186.12 380.75-22.129 19.44-47.97 35.609-76.674 42.215-19.508 4.49-42.774 2.964-55.688-12.332-9.392-11.125-44.381-75.824 72.879-237.11 42.452-58.391 95.983-108.64 133.26-170.46-69.529 4.849-170.8-27.122-234.52-55.349-8.312 22.884-195.15 345.51-372.46 417.49-19.623 7.967-113.82-30.391 2.098-216.85" style="fill:#f1f2f2"/></g><g transform="matrix(.47849 0 0 -.47849 -313.79 643.72)"><g clip-path="url(#clipPath1197)"><g clip-path="url(#clipPath1201)"><g mask="url(#mask1213)"><path d="m414.2 1808.9c67.276-108.22 163.19-198.01 273.26-262.23-48.269-30.56-110.84-196.47-77.805-245.67 173.06-257.72 683.58-205.67 709.68 182.61 4.65 69.157-79.137 115.6-141.98 144.83-17.233 8.015-36.426 15.649-45.921 32.113-4.715 8.175-57.345 267.62-186.12 380.75-22.129 19.439-47.969 35.609-76.674 42.215-19.508 4.489-42.774 2.963-55.687-12.333-9.393-11.125-44.382-75.824 72.878-237.11 42.453-58.391 95.983-108.64 133.26-170.46-69.528 4.85-170.8-27.122-234.52-55.349-8.311 22.885-195.15 345.51-372.46 417.49-19.623 7.966-113.82-30.392 2.097-216.86" style="fill:url(#radialGradient1229)"/></g></g></g></g><g transform="matrix(.47849 0 0 -.47849 -313.79 643.72)"><g clip-path="url(#clipPath1255)" style="opacity:.10001"><g transform="translate(1010.2 1709.2)"><path d="m0 0c-32.422 36.071-64.9 71.917-94.086 110.72-54.948 73.059-106.83 162.45-96.682 257.31-2.371-1.701-4.562-3.678-6.508-5.983-9.392-11.125-44.381-75.824 72.879-237.11 41.355-56.881 93.178-106.07 130.29-165.72 10.331-0.54 20.702-0.493 31.124-0.129-12.653 13.347-24.75 27.267-37.017 40.914" style="fill:#726658"/></g></g></g><g transform="matrix(.47849 0 0 -.47849 -313.79 643.72)"><g clip-path="url(#clipPath1271)" style="opacity:.10001"><g transform="translate(603.64 1375.3)"><path d="m0 0c23.67 69.927 61.591 134.2 118.48 183.18-107.54 73.463-220.38 150.39-289.11 263.64-24.035 39.606-44.032 86.266-51.49 132.29-3.618 22.326-3.92 46.057 3.772 65.487-28.495-18.009-55.508-75.241 28.905-211.03 67.275-108.22 163.19-198.01 273.26-262.23-32.906-20.833-72.439-104.56-83.816-171.34" style="fill:#726658"/></g></g></g><g transform="matrix(.47849 0 0 -.47849 -48.663 -251.04)"><path d="m0 0c-40.564 45.33-88.37 83.68-138.65 117.92-24.388-142.88 273.21-391.74 340.32-418-52.612 70.665-99.174 185.55-201.67 300.09" style="fill:#de7f7f"/></g><g transform="matrix(.47849 0 0 -.47849 -313.79 643.72)"><g clip-path="url(#clipPath1291)" style="opacity:.3"><g transform="translate(760.61 1562.5)"><path d="m0 0c-24.373 37.309-48.745 74.619-73.117 111.93 10.957-20.169 21.915-40.339 32.872-60.508 2.422-4.457 4.903-9.682 3.009-14.387-36.929 14.072-265.14 244.41-308.98 373.36-5.695-18.373 7.456-49.892 14.134-66.168 23.358-56.931 63.58-106.93 104.6-152.09 42.415-46.684 88.962-89.924 138.45-129.03-3.016 3.944 54.329-40.924 89.03-63.109" style="fill:#231f20"/></g></g></g><g transform="matrix(.47849 0 0 -.47849 99.88 -329.42)"><path d="m0 0c-25.593-105.57 166.36-327.91 206.35-371.1-27.193 207.95-148.76 361.51-206.35 371.1" style="fill:#de7f7f"/></g><g transform="matrix(.47849 0 0 -.47849 -313.79 643.72)"><g clip-path="url(#clipPath1311)" style="opacity:.3"><g transform="translate(1051.3 1757.8)"><path d="m0 0c-0.191-1.49-0.414-2.983-0.675-4.478-1.826-10.462-17.321-16.835-23.498-9.56-27.117 31.941-154.02 179.1-163.39 285.92-19.877-107.11 167.71-324.38 207.19-367.02-4.345 33.225-11.108 65.052-19.625 95.135" style="fill:#231f20"/></g></g></g><g transform="matrix(.47849 0 0 -.47849 165.72 -225.84)"><path d="m0 0c26.452-8.766 46.309-34.641 47.934-62.46 1.331-22.783-25.277-90.689-32.286-95.419-6.971-4.704-156.45-42.344-223.63-49.009-6.59-0.654-98.108 72.514-99.47 110.61-0.579 16.207 12.908 29.581 26.204 38.866 20.051 14.001 43.92 22.477 68.311 24.256 19.702 1.437 39.594-1.401 59.214 0.9 52.912 6.206 103.15 49.01 153.72 32.252" style="fill:#5b7a30"/></g><g transform="matrix(.47849 0 0 -.47849 -313.79 643.72)"><g clip-path="url(#clipPath1459)" style="opacity:.3"><g transform="translate(902.23 1773.9)"><path d="m0 0c-22.003-9.991-47.696-18.175-72.343-16.742 5.892-7.327 14.442-12.256 25.204-14.186 12.802-2.298 31.307-0.624 39.416 8.299 7.155 7.875 13.401 17.581 18.071 27.488-3.677-1.806-7.197-3.428-10.348-4.859" style="fill:#231f20"/></g></g></g><g transform="matrix(.47849 0 0 -.47849 -313.79 643.72)"><g clip-path="url(#clipPath1475)" style="opacity:.5"><g transform="translate(1002.9 1661.9)"><path d="m0 0c18.743 23.474 31.619 58.023 32.509 86.798 0.585 18.897-3.785 36.321-18.439 49.314-12.708 11.268-28.724 18.594-45.449 17.091 9.919-6.92 17.797-18.567 22.877-30.131 22.134-50.389-1.259-124.66-51.482-143.87 11.662 2.895 51.465 18.96 59.984 20.795" style="fill:#fff"/></g></g></g><g transform="matrix(.47849 0 0 -.47849 -313.79 643.72)"><g clip-path="url(#clipPath1491)" style="opacity:.3"><g transform="translate(924.52 1637.9)"><path d="m0 0c-8.801 0.178-88.162 5.187-114.77 10.797-21.708 4.577-41.726 23.4-56.911 39.575-21.225 22.609-34.396 54.337-20.42 78.774-3.947-2.204-7.823-4.537-11.53-7.125-13.297-9.285-26.783-22.659-26.204-38.866 1.361-38.1 92.866-108.98 99.469-108.48 17.595 1.333 125.86 22.236 130.37 25.327" style="fill:#231f20"/></g></g></g><g transform="matrix(.47849 0 0 -.47849 58.122 -226.58)"><path d="m 0,0 c 40.934,-4.332 73.309,-31.808 95.033,-66.281 0.741,1.954 0.985,3.953 0.704,5.906 0.32,15.946 -14.824,36.586 -22.73,46.506 C 57.341,5.787 37.08,19.658 13.483,28.098 -4.035,34.364 -12.505,9.982 0,0" style="fill:#33451b"/></g><g transform="matrix(.47849 0 0 -.47849 -313.79 643.72)"><g clip-path="url(#clipPath1551)" style="opacity:.8"><g clip-path="url(#clipPath1555)" style="opacity:.60001"><g transform="translate(892.53 1381.5)"><path d="m0 0c7.706 4.139 12.735 11.678 16.577 19.124 20.755 40.228 15.525 86.429-4.796 121.93-7.565 13.215-19.192 26.647-35.788 29.158-19.294 2.92-37.019-10.227-47.304-25.077-20.175-29.13-23.788-68.346-7.832-101.96 10.019-21.106 28.33-39.902 52.721-45.424 8.742-1.98 18.425-2.043 26.422 2.252" style="fill:#c49a6c"/></g></g></g></g><g transform="matrix(.47849 0 0 -.47849 111.87 -21.83)"><path d="m0 0c6.924 3.628 11.467 10.3 14.951 16.91 18.95 35.944 14.466 77.693-3.871 109.96-6.846 12.048-17.403 24.292-32.497 26.504-17.511 2.567-33.516-9.532-42.735-23.085-17.965-26.411-20.959-61.619-6.573-91.619 9-18.768 25.345-35.49 47.089-40.511 7.807-1.802 16.465-1.916 23.636 1.841" style="fill:#fff"/></g><g transform="matrix(.47849 0 0 -.47849 105.94 -28.88)"><path d="m0 0c4.954 2.521 8.245 7.203 10.79 11.86 13.99 25.601 11.168 55.799-1.923 79.315-4.911 8.823-12.546 17.777-23.538 19.254-12.709 1.708-24.267-7.368-30.864-17.37-12.715-19.276-14.663-44.494-4.421-65.718 6.371-13.201 17.873-24.944 33.193-28.534 5.514-1.293 11.649-1.41 16.763 1.193" style="fill:#1c75bc"/></g><g transform="matrix(.47849 0 0 -.47849 -313.79 643.72)"><g clip-path="url(#clipPath1587)" style="opacity:.5"><g clip-path="url(#clipPath1591)"><g mask="url(#mask1611)"><path d="m877.2 1405.7c4.954 2.521 8.246 7.203 10.79 11.86 13.99 25.601 11.168 55.799-1.922 79.315-4.912 8.823-12.547 17.777-23.539 19.254-12.708 1.709-24.267-7.368-30.864-17.37-12.715-19.276-14.663-44.494-4.42-65.718 6.371-13.201 17.872-24.944 33.192-28.534 5.514-1.292 11.649-1.409 16.763 1.193" style="fill:url(#radialGradient1635)"/></g></g></g></g><g transform="matrix(.47849 0 0 -.47849 -313.79 643.72)"><g clip-path="url(#clipPath1661)"><g transform="translate(868.11 1419.8)"><path d="m0 0c3.361 1.71 5.594 4.886 7.32 8.046 9.491 17.367 7.577 37.853-1.304 53.807-3.332 5.985-8.511 12.059-15.969 13.062-8.621 1.159-16.462-4.999-20.938-11.784-8.626-13.076-9.948-30.184-2.999-44.583 4.322-8.956 12.124-16.922 22.518-19.357 3.741-0.877 7.903-0.957 11.372 0.809z" style="fill:none;stroke-width:13.613;stroke:#fff"/></g></g></g><g transform="matrix(.47849 0 0 -.47849 101.59 -35.652)"><path d="m0 0c3.361 1.71 5.594 4.886 7.32 8.046 9.491 17.367 7.577 37.853-1.304 53.807-3.332 5.985-8.511 12.059-15.969 13.062-8.621 1.159-16.462-4.999-20.938-11.784-8.626-13.076-9.948-30.184-2.999-44.583 4.322-8.956 12.124-16.922 22.518-19.357 3.741-0.877 7.903-0.957 11.372 0.809" style="fill:#231f20"/></g><g transform="matrix(.47849 0 0 -.47849 110.72 -54.771)"><path d="m0 0c2.649 1.049 4.436 2.943 5.827 4.821 7.646 10.325 6.421 22.331-0.309 31.583-2.525 3.471-6.492 6.97-12.307 7.46-6.723 0.568-12.932-3.152-16.519-7.196-6.914-7.793-8.173-17.857-2.933-26.222 3.26-5.202 9.252-9.778 17.343-11.071 2.912-0.466 6.163-0.458 8.898 0.625" style="fill:#fff"/></g><g transform="matrix(.47849 0 0 -.47849 -313.79 643.72)"><g clip-path="url(#clipPath1685)" style="opacity:.8"><g clip-path="url(#clipPath1689)" style="opacity:.60001"><g transform="translate(1115.1 1427)"><path d="m0 0c5.633 3.759 8.905 10.146 11.29 16.484 13.574 36.086 4.911 78.1-16.615 110.09-8.215 12.207-20.13 24.139-34.843 24.013-16.805-0.143-29.29-16-35.062-31.783-10.727-29.327-6.888-63.593 10.063-89.819 10.355-16.019 26.289-29.457 45.15-32.299 6.844-1.032 14.26-0.524 20.017 3.318" style="fill:#c49a6c"/></g></g></g></g><g transform="matrix(.47849 0 0 -.47849 218.25 -42.491)"><path d="m0 0c5.081 3.391 8.033 9.152 10.183 14.869 12.244 32.55 4.43 70.448-14.987 99.3-7.41 11.01-18.157 21.772-31.429 21.659-15.158-0.129-26.419-14.433-31.626-28.669-9.675-26.454-6.212-57.362 9.078-81.018 9.34-14.45 23.713-26.571 40.726-29.135 6.173-0.93 12.862-0.472 18.055 2.994" style="fill:#fff"/></g><g transform="matrix(.47849 0 0 -.47849 212.39 -46.919)"><path d="m0 0c3.73 2.49 5.898 6.719 7.477 10.917 8.99 23.899 3.252 51.724-11.004 72.908-5.441 8.084-13.331 15.986-23.076 15.903-11.129-0.095-19.397-10.597-23.22-21.05-7.104-19.422-4.562-42.116 6.665-59.485 6.857-10.609 17.41-19.508 29.901-21.391 4.533-0.683 9.444-0.346 13.257 2.198" style="fill:#1c75bc"/></g><g transform="matrix(.47849 0 0 -.47849 -313.79 643.72)"><g clip-path="url(#clipPath1721)" style="opacity:.5"><g clip-path="url(#clipPath1725)"><g mask="url(#mask1745)"><path d="m1099.7 1443.4c3.731 2.49 5.898 6.72 7.477 10.917 8.99 23.9 3.253 51.725-11.004 72.908-5.44 8.085-13.331 15.986-23.075 15.903-11.13-0.095-19.398-10.597-23.221-21.049-7.104-19.423-4.561-42.117 6.665-59.485 6.858-10.609 17.41-19.509 29.902-21.391 4.532-0.684 9.444-0.347 13.256 2.197" style="fill:url(#radialGradient1769)"/></g></g></g></g><g transform="matrix(.47849 0 0 -.47849 207.29 -53.382)"><path d="m0 0c2.43 1.621 3.841 4.376 4.869 7.11 5.855 15.566 2.118 33.689-7.168 47.486-3.543 5.266-8.682 10.412-15.029 10.358-7.248-0.062-12.633-6.902-15.123-13.71-4.627-12.65-2.97-27.431 4.342-38.743 4.466-6.91 11.339-12.707 19.475-13.933 2.952-0.444 6.151-0.225 8.634 1.432" style="fill:#1c75bc"/></g><g transform="matrix(.47849 0 0 -.47849 207.29 -53.382)"><path d="m0 0c2.43 1.621 3.841 4.376 4.869 7.11 5.855 15.566 2.118 33.689-7.168 47.486-3.543 5.266-8.682 10.412-15.029 10.358-7.248-0.062-12.633-6.902-15.123-13.71-4.627-12.65-2.97-27.431 4.342-38.743 4.466-6.91 11.339-12.707 19.475-13.933 2.952-0.444 6.151-0.225 8.634 1.432" style="fill:#231f20"/></g><g transform="matrix(.47849 0 0 -.47849 -313.79 643.72)"><g clip-path="url(#clipPath1803)"><g transform="translate(1089 1456.9)"><path d="m0 0c2.43 1.621 3.841 4.376 4.869 7.11 5.855 15.566 2.118 33.689-7.168 47.486-3.543 5.266-8.682 10.412-15.029 10.358-7.248-0.062-12.633-6.902-15.123-13.71-4.627-12.65-2.97-27.431 4.342-38.743 4.466-6.91 11.339-12.707 19.475-13.933 2.952-0.444 6.151-0.225 8.634 1.432z" style="fill:none;stroke-width:6.8031;stroke:#fff"/></g></g></g><g transform="matrix(.47849 0 0 -.47849 212.37 -75.568)"><path d="m0 0c2.068 1.043 3.359 2.681 4.334 4.289 5.556 9.153 3.386 19.293-3.538 26.696-2.642 2.826-6.596 5.505-11.793 5.163-5.936-0.391-10.679-4.551-13.05-8.551-4.408-7.433-3.777-15.77 1.653-21.855 3.317-3.717 8.658-6.682 15.257-6.981 2.394-0.108 5.023 0.173 7.137 1.239" style="fill:#1c75bc"/></g><g transform="matrix(.47849 0 0 -.47849 212.37 -75.568)"><path d="m0 0c2.068 1.043 3.359 2.681 4.334 4.289 5.556 9.153 3.386 19.293-3.538 26.696-2.642 2.826-6.596 5.505-11.793 5.163-5.936-0.391-10.679-4.551-13.05-8.551-4.408-7.433-3.777-15.77 1.653-21.855 3.317-3.717 8.658-6.682 15.257-6.981 2.394-0.108 5.023 0.173 7.137 1.239" style="fill:#fff"/></g><g transform="matrix(.47849 0 0 -.47849 183.21 59.391)"><path d="m0 0c-10.802-4.245-22.763-3.829-34.308-3.348-15.435 0.643-31.185 1.348-45.519 6.759-9.192 3.47-17.514 8.779-25.392 14.525-29.043 21.183-53.007 48.913-69.557 80.488 34.709-8.632 70.222-15.128 106.18-15.616 38.053-0.516 76.911 5.968 110.91 23.357 0.246-17.791-1.686-35.65-5.74-53.074-5.024-21.59-15.515-44.815-36.573-53.091" style="fill:#5e1016"/></g><g transform="matrix(.47849 0 0 -.47849 166.74 47.399)"><path d="m0 0c-27.889 25.216-69.93 49.985-105.25 26.785 11.105-12.464 23.497-23.825 37.052-33.712 7.879-5.746 16.2-11.055 25.393-14.525 14.333-5.411 30.083-6.116 45.518-6.759 7.859-0.328 15.903-0.588 23.651 0.595-8.199 9.743-16.889 19.046-26.367 27.616" style="fill:#ee4f58"/></g><g transform="matrix(.47849 0 0 -.47849 202.04 9.0407)"><path d="m0 0c-33.034-15.913-70.348-21.915-106.93-21.419-35.962 0.487-71.474 6.984-106.18 15.616 4.297-8.198 9.117-16.122 14.372-23.754 10.45-7.981 24.894-12.591 37.434-15.945 25.924-6.934 52.742-9.976 79.765-8.523 26.857 1.445 55.343 7.298 77.696 21.371 1.495 10.839 2.493 22.25 3.847 32.654" style="fill:#fff"/></g><g transform="matrix(.47849 0 0 -.47849 252.84 -15.772)"><path d="m0 0c-9.836 2.048-19.163 4.685-28.624 8.148-2.447 0.895-7.294-0.344-8.939-2.396-31.497-39.284-75.792-62.672-124.23-72.593-1.148 34.433-3.905 53.336-16.316 83.295-1.524 3.68-11.017 3.427-9.598 0 9.295-22.435 15.899-60.756 16.625-85.037-2.943-0.493-5.893-0.963-8.86-1.361-52.802-7.078-110.92-2.147-155.37 29.251-1.94 1.37-6.977-0.703-8.554-1.966-10.31-8.259-19.428-17.335-27.782-27.547-0.4-0.489 23.087 17.268 31.025 24.099 2.093-1.394 62.64-87.528 108.8-106.96 67.848-28.561 122.42 6.749 118.9 5.097-30.794-14.463-92.645-17.663-132.77 11.591-28.348 20.669-50.735 48.74-71.064 77.191 157.04-55.125 251.52 23.347 284.72 62.412 7.995-2.696 34.421-3.721 32.038-3.225" style="fill:#c49a6c"/></g><g transform="matrix(.47849 0 0 -.47849 181.21 -39.964)"><path d="m0 0c-28.007 7.219-59.524-1.24-80.152-21.512 17.632-3.883 34.362-11.801 48.543-22.975 9.692 10.752 30.416 40.765 31.609 44.487" style="fill:#c4441c"/></g><g transform="matrix(.47849 0 0 -.47849 -313.79 643.72)"><g clip-path="url(#clipPath1847)"><g transform="translate(1004.5 1391.2)"><path d="m0 0c9.486 11.115 18.077 22.949 25.558 35.765-7.19 0.487-14.378 0.666-21.574 0.324 3.314-3.14 5.738-8.247 4.519-16.769-0.615-4.304-6.697-9.544-6.698-9.551 0.213 0.164-0.793-5.212-1.805-9.769" style="fill:#fff"/></g></g></g><g transform="matrix(.47849 0 0 -.47849 70.868 -95.715)"><path d="M 0,0 C 3.647,4.876 7.725,9.237 12.111,13.239 20.397,25.9 68.156,49.764 69.899,50.13 74.028,52.953 70.291,65.052 68.582,64.975 56.103,67.326 40.459,56.831 31.062,50.317 15.113,39.261 -1.672,0.477 0,0" style="fill:#a7a9ac"/></g><g transform="matrix(.47849 0 0 -.47849 173.37 -133.24)"><path d="m0 0c24.24 0.359 45.811-6.878 65.915-19.131-0.544 7.516-4.116 14.85-12.334 20.093-6.74 4.301-40.004 21.924-56.575 6.869-2.666-2.422-0.595-5.334 2.994-7.831" style="fill:#a7a9ac"/></g><g transform="matrix(.47849 0 0 -.47849 295.36 -24.619)"><path d="m0 0c4.086 5.173 5.488 11.915 6.625 18.408 1.957 11.166 3.445 22.93-0.331 33.619-5.467 15.478-20.766 25.3-36.104 31.147-30.147 11.492-64.538 11.875-94.642 0.27-30.103-11.605-55.528-35.259-68.518-64.792-5.542-12.601-8.815-27.218-3.802-40.039 27.848 7.664 57.247 15.361 85.224 8.18 9.592-2.462 18.713-6.624 28.412-8.624 22.067-4.552 44.8 2.451 65.709 10.849 6.448 2.589 13.12 5.529 17.427 10.982" style="fill:#f1f2f2"/></g><g transform="matrix(.47849 0 0 -.47849 218.14 -41.774)"><path d="m0 0c27.231 22.542 58.868 48.356 96.047 47.902 17.25-0.211 36.4-7.203 42.978-23.15 3.98-9.647 2.543-20.714-0.653-30.648 10.945 14.881 17.587 32.89 18.926 51.314-3.745-2.475-7.491-4.95-11.236-7.425 0.905 3.926 2.384 7.718 4.378 11.219-7.158-2.795-15.01-3.79-22.639-2.868 7.69 5.241 16.368 9.026 25.441 11.095-13.511 1.668-27.192 0.723-40.772-0.225 4.272 2.451 8.545 4.902 12.818 7.353-3.169-1.818-18.57 2.214-23.017 2.172-8.275-0.077-16.539-1.061-24.608-2.891-17.336-3.934-71.012 0.904-107.65-75.717-4.107-8.59-8.176-23.727-7.848-33.109 9.029 17.412 22.76 32.502 37.832 44.978" style="fill:#fff"/></g><g transform="matrix(.47849 0 0 -.47849 52.39 21.793)"><path d="m0 0c46.122 24.124 94.823 62.238 148.11 34.391 1.107-0.578 2.083-1.226 2.944-1.924 1.254 14.013-4.985 28.051-13.012 39.816-20.521 30.079-53.624 51.061-89.424 57.709-35.801 6.648-73.877-0.893-104.95-19.881-15.808-9.66-30.749-23.723-33.613-42.026-1.977-12.641 2.108-25.385 6.589-37.369 2.606-6.968 5.556-14.158 11.159-19.052 5.907-5.159 13.918-7.04 21.608-8.579 15.872-3.177 32.445-5.558 48.469-4.401 0.653 0.465 1.342 0.912 2.115 1.316" style="fill:#f1f2f2"/></g><g transform="matrix(.47849 0 0 -.47849 66.465 -28.388)"><path d="m0 0c38.801 0.092 76.489-15.616 101.37-45.8 7.181-8.712 13.119-19.086 17.381-30.228 0.792-0.066 1.588-0.13 2.379-0.197 2.909 15.261-3.747 30.801-12.503 43.635-26.033 38.157-71.681 62.882-117.44 60.293-49.66-2.808-98.419-22.478-135.5-55.75 5.288 2.522 10.576 5.044 15.864 7.565-4.777-3.254-9.108-7.164-12.831-11.586 3.784 0.695 7.422 2.173 10.619 4.313-14.915-8.943-25.684-24.517-28.784-41.629 5.722 8.907 14.508 15.806 24.518 19.254-7.529-4.558-12.214-13.444-11.721-22.231l20.169 7.619c-2.213-4.147-3.368-8.852-3.326-13.552 5.403 0.868 10.806 1.737 16.21 2.606-2.701-3.16 1.071-7.702 4.598-9.903 18.571-11.587 40.74-17.316 62.601-16.177-29.425-3.978-78.63 28.537-52.424 59.799 25.707 30.668 59.996 41.877 98.818 41.969" style="fill:#fff"/></g><g transform="matrix(.47849 0 0 -.47849 -313.79 643.72)"><g clip-path="url(#clipPath1887)" style="opacity:.5"><g transform="translate(1206 1488.3)"><path d="m0 0c-13.863 6.665-64.632-3.102-103.97-52.102-12.534-15.614-2.499-21.553 8.426-23.435 72.368-12.466 124.87 65.406 95.543 75.537" style="fill:#de7f7f"/></g></g></g><g transform="matrix(.47849 0 0 -.47849 -313.79 643.72)"><g clip-path="url(#clipPath1903)" style="opacity:.5"><g transform="translate(868.95 1375.6)"><path d="m0 0c8.22 5.578 8.073 17.77-0.065 23.467-19.001 13.303-41.355 21.902-64.417 24.608-23.363 2.742-47.273-0.497-69.291-8.797-8.702-3.28-11.19-13.135-6.989-21.431 23.078-45.579 122.31-30.368 140.76-17.847" style="fill:#de7f7f"/></g></g></g><g transform="matrix(.47849 0 0 -.47849 174.38 1.6319)"><path d="m0 0c0.091-0.253 0.158-0.509 0.259-0.761 0.192-0.475 0.067-0.118-0.259 0.761" style="fill:#231f20"/></g><g transform="matrix(.47849 0 0 -.47849 229.08 -40.967)"><path d="m0 0c-8.646 1.196-21.235-6.55-12.751-15.808 1.537-1.677 5.444-0.551 6.7 0.39 2.941 2.204 3.444 2.465 5.124 5.809 0.198 0.394 0.307 0.803 0.161 1.206 2.981 1.722 5.272-0.125 6.849-5.727 1.199-3.649 1.41-7.18 0.627-10.593-2.661-21.257-30.791-16.097-46.118-11.98-16.059 4.314-30.616 9.171-46.613 7.143-15.07-1.911-36.53-9.987-40.425-25.837-12.116 17.251-58.682 19.614-74.081 14.378-15.394-5.235-25.961-15.926-38.224-26.857-11.765-10.485-34.785-27.743-48.575-10.069-2.546 2.683-4.238 5.92-5.079 9.706-1.536 5.697-0.404 8.369 3.272 8.171 0.08-0.424 0.399-0.738 0.792-1 3.335-2.222 3.938-2.228 7.823-2.869 1.657-0.273 5.85 0.475 6.37 2.651 2.869 11.996-12.834 13.277-20.182 8.356-14.049-9.41-5.675-26.533 6.013-33.557 12.786-7.684 31.813-2.168 42.934 5.772 13.595 9.707 31.771 22.819 47.287 28.044 44.691 15.047 80.226-37.318 80.448-40.316-1.6 21.594 17.746 51.906 35.521 52.078 16.416 0.158 38.374-1.544 54.887-4.18 13.439-2.145 32.233 1.223 39.072 13.364 6.229 11.058 4.627 29.448-11.832 31.725" style="fill:#231f20"/></g></g><g transform="matrix(.35278 0 0 -.35278 283.79 123.24)"><path d="m0 0c2.471 161.44 57.818 316.96 83.012 476.44 1.227 7.77 2.35 15.936-0.331 23.331-2.681 7.396-10.498 13.555-18.113 11.583-5.952-1.541-9.737-7.222-12.872-12.511-87.942-148.38-107.34-335.58-51.696-498.84" style="fill:#8b5e3c"/></g><g transform="matrix(.35278 0 0 -.35278 22.875 125.17)"><path d="m0 0c-11.07 14.27-28.667 23.56-46.727 23.727-17.077 0.157-45.141-7.875-44.341-36.668-0.803-26.862 19.195-42.389 42.389-48.787 27.193-2.4 84.778 15.196 48.679 61.728" style="fill:#f1f2f2"/></g><g transform="matrix(.35278 0 0 -.35278 -198.56 472.23)"><g clip-path="url(#clipPath1535)" style="opacity:.2"><g transform="translate(627.69 983.78)"><path d="m0 0c-11.07 14.27-28.667 23.56-46.726 23.727-7.484 0.069-16.443-0.979-22.78-4.827 7.715-2.078 15.917 0.083 23.853 0.122 5.382 0.027 11.758-2.836 12.097-8.206 0.269-4.27-3.398-7.648-6.788-10.259-7.282-5.606-14.807-10.895-22.548-15.848 7.923 6.355 16.634 11.727 25.871 15.951 5.625 2.573 12.297 4.695 17.811 1.891 2.013-1.025 3.665-2.624 5.282-4.202 4.353-4.249 9.06-9.686 7.712-15.618-1.13-4.977-6.092-7.982-10.687-10.204-8.901-4.304-18.172-7.844-27.678-10.567 9.331 4.165 19.312 6.869 29.469 7.984 2.484 0.272 5.217 0.388 7.239-1.081 5.657-4.109-0.811-15.787 3.825-17.87 4.817-2.164 10.748 6.469 12.543 9.847 7.17 13.494 0.043 28.155-8.495 39.16" style="fill:#726658"/></g></g></g><g transform="matrix(.35278 0 0 -.35278 -198.56 472.23)"><g clip-path="url(#clipPath1415)" style="opacity:.5"><g transform="translate(1437.3 1500.7)"><path d="m0 0c-1.766 0.36-3.59 0.364-5.405-0.106-5.952-1.541-9.738-7.222-12.873-12.511-78.345-132.19-102.24-295.18-67.184-444.62-9.905 66.194 8.611 337.65 85.462 457.23" style="fill:#231f20"/></g></g></g><g transform="matrix(.35278 0 0 -.35278 306.5 -48.617)"><path d="m0 0c-19.254 7.313-27.156 30.371-28.74 50.905-1.009 13.069-0.366 26.606 4.874 38.621 6.688 15.336 20.133 26.633 34.047 35.924 20.291 13.548 42.553 24.112 61.948 38.915 19.395 14.802 36.272 35.104 39.737 59.255 4.363-33.087 4.076-66.783-0.849-99.791-3.662-24.542-9.994-48.989-22.045-70.68-12.051-21.692-30.229-40.55-53.066-50.258-11.328-4.816-24.398-7.262-35.906-2.891" style="fill:#231f20"/></g><g transform="matrix(.35278 0 0 -.35278 343.43 -126.73)"><path d="m0 0c-6.052-18.154-18.567-34.143-32.354-47.126-15.098-14.216-33.235-20.225-51.014-30.246-42.466-23.935-32.267-34.042-31.268-35.665 7.221 5.631 15.212 13.441 23.823 16.555 2.251 0.814 4.664 1.543 7.008 1.052 6.21-1.304 8.552-10.027 6.982-15.373-2.27-7.724-29.282-42.757-15.971-54.146 13.882-10.472 42.88 26.973 51.262 32.305 3.117 1.983 6.911 2.867 10.539 2.172 6.327-1.212 7.356-5.976 8.221-10.389 1.549-7.903 3.099-15.805 4.648-23.708 9.779-2.566 17.88 7.695 22.119 16.873 8.981 19.44 17.155 104.47 9.868 144.5-1.449 7.959-11.305 10.874-13.863 3.199" style="fill:#f15a29"/></g><g transform="matrix(.35278 0 0 -.35278 -198.56 472.23)"><g clip-path="url(#clipPath1439)" style="opacity:.5"><g transform="translate(1546.5 1577.4)"><path d="m0 0c-3.253-11.133-14.546-28.816-22.889-19.741-4.185 4.551-9.064 26.659-21.658 21.962-9.844-3.672-17.803-16.859-24.197-25.162-12.199-15.842-40.427-23.88-15.996 20.795 22.49 33.171-4.103 31.815-4.265 35.724-0.319 7.683 73.581 14.929 84.221 91.369-2.254-0.131-4.323-1.502-5.309-4.459-6.051-18.154-18.567-34.143-32.354-47.126-15.098-14.216-33.001-20.651-51.014-30.246-41.932-22.335-32.8-35.108-31.801-36.731 7.221 5.631 15.745 14.508 24.356 17.621 2.251 0.814 4.664 1.544 7.008 1.052 6.21-1.304 8.553-10.027 6.982-15.372-2.269-7.725-29.282-42.757-15.971-54.147 13.882-10.471 42.88 26.973 51.263 32.306 3.117 1.983 6.91 2.867 10.538 2.171 6.328-1.212 7.356-5.976 8.221-10.389l4.648-23.708c9.779-2.566 17.88 7.696 22.12 16.874 2.71 5.866 5.343 17.728 7.504 32.502-0.437-1.777-0.896-3.546-1.407-5.295" style="fill:#231f20"/></g></g></g><g transform="matrix(.35278 0 0 -.35278 298.62 56.638)"><path d="m0 0c5.206 2.664 8.855 7.58 11.955 12.539 6.238 9.978 11.055 20.843 14.262 32.165 6.804 24.02 5.789 51.33-7.98 72.155-2.601 3.933-5.695 7.658-9.707 10.136-3.482 2.15-7.502 3.268-11.52 4.045-8.014 1.549-16.583 1.782-24.071-1.465-12.469-5.406-19.166-19.063-22.629-32.205-7.422-28.165-4.016-60.11 13.611-83.297 8.499-11.179 23.577-20.469 36.079-14.073" style="fill:#e6e7e8"/></g><g transform="matrix(.35278 0 0 -.35278 -198.56 472.23)"><g clip-path="url(#clipPath1515)" style="opacity:.2"><g transform="translate(1367.3 1257.6)"><path d="m0 0c0.445 1.566 1.143 3.021 2.233 4.259 1.66 1.886 4.017 2.992 6.341 3.949 10.285 4.234 21.353 6.558 32.472 6.819-9.407-0.81-18.868-0.987-28.298-0.529-13.584 0.66-15.092 8.025-11.318 19.515-12.963-4.235-13.223-38.122-12.704-49.32 0.656-14.169 4.794-41.908 18.193-49.71 2.579 7.163 0.749 15.523 2.751 23.033 3.851 14.44 15.692 16.183 28.511 21.506-9.025-3-18.709-3.763-28.065-1.977-3.164 0.604-6.486 1.621-8.508 4.128-2.202 2.73-2.333 6.533-2.363 10.041-0.023 2.752 0.014 5.674 0.755 8.286" style="fill:#726658"/></g></g></g><g transform="matrix(.35278 0 0 -.35278 -198.56 472.23)"><g clip-path="url(#clipPath1927)" style="opacity:.5"><g transform="translate(874.13 921.52)"><path d="m0 0c14.623-15.963-8.531-50.653-26.66-63.983-41.87-30.787-94.765-46.888-143.44-59.68-81.114-21.315-168.18-28.503-251.9-26.496-70.81 1.698-142.1 10.412-210.38 29.752 220.82-87.119 604.97-41.035 649.98 67.088 8.187 19.668 9.197 38.657-17.595 53.319" style="fill:#fff"/></g></g></g><g transform="matrix(.35278 0 0 -.35278 -198.56 472.23)"><g clip-path="url(#clipPath1943)" style="opacity:.5"><g transform="translate(351.6 1074)"><path d="m0 0c51.884 15.277 108.5 19.461 162.33 17.13 28.704-1.244 57.707-4.675 85.294-12.975 16.434-4.945 58.189-17.427 58.28-39.142-0.02-0.608-0.04-1.215-0.06-1.823-0.537-6.004-3.364-11.521-5.917-16.982-2.552-5.461-4.924-11.301-4.455-17.311 10.168 11.697 30.933 34.569 27.689 50.772-2.951 14.736-21.633 24.932-33.322 31.397-90.782 50.212-307.14 42.506-454.91-65.503-31.117-22.745-66.837-53.867-79.827-91.404-14.79-42.742 20.696-68.616 52.952-89.831 53.136-34.947 134.93-58.281 204.75-72.514-151.43 47.987-225.41 104.92-230.94 133.88-14.334 75.136 156.79 156.25 218.14 174.31" style="fill:#231f20"/></g></g></g><g transform="matrix(.35278 0 0 -.35278 68.662 174.66)"><path d="m0 0c-12.208-10.117-27.553-17.124-43.407-16.892s-31.979 8.612-39.065 22.796c-7.337 14.686-3.774 33.435 6.726 46.055s26.91 19.426 43.289 20.54c9.51 0.647 21.306-2.22 23.639-11.462-12.867 5.378-28.891 2.013-38.508-8.087 1.516 1.438 3.515 2.24 5.487 2.93 12.369 4.331 26.403 5.448 38.384 0.136 11.982-5.311 21.104-18.072 19.518-31.082-1.226-10.058-8.261-18.469-16.063-24.934" style="fill:#ed1c24"/></g><g transform="matrix(.35278 0 0 -.35278 -198.56 472.23)"><g clip-path="url(#clipPath1963)"><g transform="translate(766.76 864.97)"><path d="m0 0c-0.064-0.089-0.136-0.177-0.201-0.267-0.594-2.594-1.949-5.173-4.279-7.546-18.959-19.316-63.985-32.318-72.323 4.659-2.82 12.504 1.119 24.624 8.629 34.607 2.015 3.447 4.374 6.655 6.91 9.422 3.027 3.305 6.346 6.239 9.886 8.772-12.97-2.702-25.218-9.02-33.645-19.149-10.5-12.62-14.063-31.369-6.726-46.055 7.086-14.184 23.211-22.564 39.065-22.796 15.854-0.233 31.199 6.775 43.407 16.892 7.802 6.465 14.837 14.876 16.063 24.934 0.345 2.829 0.157 5.64-0.43 8.371-1.541-4.189-3.715-8.195-6.356-11.844" style="fill:#231f20"/></g></g></g><g transform="matrix(.35278 0 0 -.35278 -2.1108 193.23)"><path d="m0 0c-4.794 1.208-9.498 2.818-14.043 4.587-5.847 2.277-11.715 4.938-15.893 9.094-1.559 1.55-2.909 3.471-2.647 5.443 0.804 6.044 14.605 6.145 14.061 12.252-0.251 2.82-3.665 4.609-6.258 6.48-9.574 6.912-10.006 20.033-3.088 28.452 11.401 13.875 30.844 16.957 44.643 3.757 11.115-10.633 19.099-25.863 12.375-38.34 8.516 3.37 8.144 13.686 5.466 21.479-3.585 10.431-9.913 21.236-21.445 26.247 10.76-2.247 19.469-9.57 24.551-17.927 5.081-8.358 7.014-17.714 8.361-26.93 2.638-18.049-1.382-35.102-26.504-36.69-6.575-0.416-13.157 0.478-19.579 2.096" style="fill:#f9ed32"/></g><g transform="matrix(.35278 0 0 -.35278 -198.56 472.23)"><g clip-path="url(#clipPath1983)" style="opacity:.5"><g transform="translate(547.56 817.42)"><path d="m0 0c1.112 4.105 2.753 8.043 3.885 12.135-0.06 0.141-0.114 0.253-0.179 0.421-0.66 1.707-1.769 3.434-2.698 5.002-5.329 8.998-11.682 18.527-11.045 29.451 4e-3 0.079 0.019 0.152 0.024 0.231-3.136-1.948-6.043-4.44-8.548-7.488-6.918-8.419-6.486-21.541 3.088-28.452 2.593-1.872 6.007-3.661 6.258-6.481 0.544-6.107-13.257-6.208-14.061-12.252-0.262-1.972 1.088-3.893 2.647-5.443 4.178-4.156 10.046-6.817 15.893-9.093 4.545-1.77 9.249-3.38 14.043-4.588 0.192-0.048 0.386-0.08 0.578-0.127-10.11 4.512-12.677 16.378-9.885 26.684" style="fill:#231f20"/></g></g></g><g transform="matrix(.35278 0 0 -.35278 -198.56 472.23)"><g clip-path="url(#clipPath1999)" style="opacity:.5"><g transform="translate(602.95 825.46)"><path d="m0 0c-0.568 3.884-1.258 7.789-2.226 11.637-1.201-22.928-13.224-46.732-31.838-48.21 2.516-0.193 5.037-0.277 7.56-0.118 25.122 1.589 29.142 18.642 26.504 36.691" style="fill:#231f20"/></g></g></g><g transform="matrix(.35278 0 0 -.35278 -63.359 167.19)"><path d="m0 0c12.309 7.22 27.479 9.396 41.321 5.926 3.337-0.836 7.179-2.691 7.435-6.122 0.268-3.598-3.611-6.081-4.78-9.496-1.881-5.494 3.737-10.666 9.121-12.843 5.385-2.176 11.785-3.63 14.685-8.662 2.355-4.084 1.468-9.446-1.129-13.38s-6.626-6.683-10.728-9.006c-15.027-8.515-32.783-12.652-49.858-10.05-17.075 2.601-33.263 12.294-42.339 26.989-6.145 9.949-8.812 22.85-3.825 33.426 5.279 11.195 17.91 17.32 30.208 18.709 7.316 0.826 16.903-1.577 17.682-8.898-5.487 0.575-11.172-2.592-13.573-7.559 2.814-2.649 7.214-2.987 10.905-1.841s-8.459 0.851-5.125 2.807" style="fill:#1c75bc"/></g><g transform="matrix(.35278 0 0 -.35278 -198.56 472.23)"><g clip-path="url(#clipPath2019)" style="opacity:.3"><g transform="translate(451.03 833.49)"><path d="m0 0c-2.197 3.812-6.404 5.57-10.655 7.145-7.526-18.58-29.003-30.723-48.566-26.592-1.88-0.116-3.909 0.144-6.067 0.882-16.721 5.719-32.384 20.543-32.618 39.412-0.093 7.48 1.951 15.343 5.889 21.872-6.826-3.138-12.686-8.004-15.862-14.74-4.987-10.577-2.32-23.477 3.825-33.426 9.076-14.695 25.264-24.388 42.339-26.99 17.075-2.601 34.83 1.536 49.858 10.05 4.101 2.324 8.131 5.072 10.728 9.007 2.596 3.934 3.483 9.296 1.129 13.38" style="fill:#231f20"/></g></g></g><g transform="matrix(.35278 0 0 -.35278 -90.591 131.25)"><path d="m0 0c4.987-1.659 9.865-3.982 13.645-7.634 7.658-7.402 9.578-19.417 6.745-29.685-2.833-10.267-9.753-18.967-17.632-26.135-9.452-8.597-20.964-15.576-33.667-16.946-12.704-1.37-26.608 3.852-33.051 14.885s-2.849 27.549 8.761 32.882c-11.799 3.663-25.86-3.124-30.331-14.642-3.159 14.588 7.809 28.641 20.21 36.948 18.966 12.703 43.661 17.532 65.32 10.327" style="fill:#ff8b02"/></g><g transform="matrix(.35278 0 0 -.35278 -198.56 472.23)"><g clip-path="url(#clipPath2039)" style="opacity:.3"><g transform="translate(319.7 958.91)"><path d="m0 0c-3.779 3.653-8.657 5.975-13.645 7.634-21.659 7.205-46.354 2.377-65.319-10.326-12.402-8.307-23.37-22.36-20.21-36.949 4.471 11.518 18.531 18.306 30.331 14.643-11.611-5.334-15.205-21.85-8.762-32.883 5.93-10.154 18.173-15.315 29.99-15.016-1.155 0.58-2.168 1.306-3.067 2.145-2.534 1.328-4.802 3.393-6.677 6.314-16.987 11.253-12.701 39.363 2.628 52.417-0.24 9.56 7.706 19.987 19.975 17.251 3.684-0.821 7.432-2.076 10.967-3.776 6.018-0.437 11.725-2.995 16.782-7.988 15.475-15.276 4.85-39.36-7.873-52.558-0.048-0.087-0.102-0.169-0.151-0.256 1.418 1.14 2.807 2.312 4.144 3.529 7.879 7.167 14.8 15.867 17.632 26.135 2.833 10.267 0.914 22.282-6.745 29.684" style="fill:#231f20"/></g></g></g><g transform="matrix(.35278 0 0 -.35278 -63.369 117.89)"><path d="m0 0c-1.274 2.453-2.482 5.045-2.604 7.529-0.139 2.815 1.144 5.109 2.748 6.914 6.489 7.305 19.1 7.932 29.741 1.479 2.231 12.188 8.367 22.889 18.527 28.053 10.159 5.165 24.581 4.09 36.498-4.363 4.403-3.123 8.545-7.415 10.362-12.381 3.033-8.291-1.164-15.363-5.408-20.956-6.064-7.993-13.644-16.127-24.841-15.109 1.336-8.528 0.105-17.275-5.545-21.652-5.651-4.376-16.433-2.515-21.85 5.228-2.267 3.241-3.49 7.19-6.401 9.851-3.23 2.953-7.638 3.309-10.685 1.876-3.048-1.433-5.021-4.302-6.827-7.164-5.308 6.44-9.937 13.425-13.715 20.695" style="fill:#006838"/></g><g transform="matrix(.35278 0 0 -.35278 -198.56 472.23)"><g clip-path="url(#clipPath2059)" style="opacity:.3"><g transform="translate(478.49 1031.7)"><path d="m0 0c-1.688 4.614-5.387 8.633-9.433 11.686 0.707-3.254 0.938-6.71 0.587-10.2-0.702-6.965-2.149-16.055-7.555-21.102-5.065-4.729-10.199-6.72-15.983-8.59-1.196-0.579-2.429-1.063-3.692-1.459-1.607-4.45-4.952-8.053-10.311-9.527-7.754-2.133-18.221 2.565-19.676 11.172-0.161 1.014-0.338 2.02-0.523 3.021-1.056-0.108-2.113-0.202-3.183-0.197-9.893 0.043-17.075 7.592-19.169 16.726-2.379-0.989-4.499-2.415-6.19-4.318-1.604-1.805-2.887-4.099-2.748-6.914 0.122-2.484 1.33-5.077 2.604-7.529 3.778-7.27 8.407-14.256 13.715-20.695 1.807 2.862 3.779 5.731 6.827 7.164 3.047 1.433 7.456 1.077 10.686-1.876 2.911-2.662 4.134-6.611 6.401-9.851 5.417-7.743 16.198-9.605 21.849-5.228s6.881 13.124 5.545 21.651c11.197-1.017 18.778 7.116 24.842 15.11 4.243 5.593 8.44 12.664 5.407 20.956" style="fill:#231f20"/></g></g></g></g></svg>
