<?xml version="1.0" encoding="UTF-8"?>
<svg width="106.03mm" height="95.408mm" version="1.1" viewBox="0 0 106.03 95.408" xmlns="http://www.w3.org/2000/svg" xmlns:xlink="http://www.w3.org/1999/xlink"><defs><linearGradient id="ar"><stop stop-color="#389a38" offset="0"/><stop stop-color="#225e22" offset=".69537"/><stop stop-color="#184218" offset="1"/></linearGradient><linearGradient id="av"><stop stop-color="#de8787" offset="0"/><stop stop-color="#b85533" offset="1"/></linearGradient><linearGradient id="a"><stop stop-color="#551f08" offset="0"/><stop stop-color="#321205" offset="1"/></linearGradient><linearGradient id="as"><stop stop-color="#683825" offset="0"/><stop stop-color="#8d6657" offset="1"/></linearGradient><linearGradient id="au"><stop stop-color="#008000" offset="0"/><stop stop-color="#5cff5c" offset="1"/></linearGradient><linearGradient id="aq"><stop stop-color="#4c1700" offset="0"/><stop stop-color="#9c4d2b" offset="1"/></linearGradient><linearGradient id="at"><stop stop-color="#9c4d2b" offset="0"/><stop stop-color="#9c4d2b" offset=".66477"/><stop stop-color="#dd9d82" offset="1"/></linearGradient><linearGradient id="bq" x1="301.86" x2="302.21" y1="828.69" y2="749.65" gradientTransform="matrix(.26458 0 0 .26458 -46.681 -109.08)" gradientUnits="userSpaceOnUse"><stop stop-color="#330f00" offset="0"/><stop stop-color="#551f08" offset=".39066"/><stop stop-color="#5f220a" offset=".7756"/><stop stop-color="#511d0a" stop-opacity="0" offset="1"/></linearGradient><linearGradient id="br" x1="248.08" x2="267.68" y1="814.04" y2="759.12" gradientTransform="matrix(.26458 0 0 .26458 -46.681 -109.08)" gradientUnits="userSpaceOnUse"><stop stop-color="#330f00" offset="0"/><stop stop-color="#551f08" offset=".5131"/><stop stop-color="#5f220a" offset=".80753"/><stop stop-color="#511d0a" stop-opacity="0" offset="1"/></linearGradient><radialGradient id="bj" cx="306.15" cy="799.3" r="103.8" gradientTransform="matrix(.27408 -.0039251 .0040693 .28416 -52.784 -124.23)" gradientUnits="userSpaceOnUse"><stop stop-color="#9c4d2b" offset="0"/><stop stop-color="#9c4d2b" offset=".63195"/><stop stop-color="#dd9d82" offset="1"/></radialGradient><radialGradient id="bk" cx="305.85" cy="862.24" r="29.23" gradientTransform="matrix(.24039 -.13749 .036997 .064691 -71.536 107.29)" gradientUnits="userSpaceOnUse" xlink:href="#aq"/><linearGradient id="bs" x1="285.95" x2="303.22" y1="864.07" y2="852.15" gradientTransform="matrix(.26458 0 0 .26458 -46.681 -109.08)" gradientUnits="userSpaceOnUse"><stop stop-color="#9c1919" offset="0"/><stop stop-color="#5a0000" offset="1"/></linearGradient><linearGradient id="bt" x1="290.08" x2="289.44" y1="819.81" y2="829.19" gradientTransform="matrix(.25279 0 0 .25955 -43.209 -104.91)" gradientUnits="userSpaceOnUse" xlink:href="#au"/><linearGradient id="bu" x1="260" x2="258.82" y1="818.6" y2="824" gradientTransform="matrix(.26458 0 0 .26458 -46.681 -109.08)" gradientUnits="userSpaceOnUse" xlink:href="#au"/><linearGradient id="bv" x1="219.45" x2="214.9" y1="895.72" y2="889.12" gradientTransform="matrix(.26458 0 0 .26458 -46.681 -109.08)" gradientUnits="userSpaceOnUse" xlink:href="#as"/><linearGradient id="bw" x1="450.52" x2="447.7" y1="790.35" y2="783.03" gradientTransform="matrix(.26458 0 0 .26458 -46.681 -109.08)" gradientUnits="userSpaceOnUse" xlink:href="#as"/><linearGradient id="bx" x1="531.06" x2="529.58" y1="762.51" y2="758.28" gradientTransform="matrix(.26458 0 0 .26458 -46.681 -109.08)" gradientUnits="userSpaceOnUse" xlink:href="#as"/><linearGradient id="by" x1="246.72" x2="263.88" y1="874.22" y2="874.4" gradientTransform="matrix(.26458 0 0 .26458 -46.681 -109.08)" gradientUnits="userSpaceOnUse" xlink:href="#a"/><linearGradient id="bz" x1="287.73" x2="238.53" y1="843.5" y2="835.16" gradientTransform="matrix(.26458 0 0 .26458 -46.681 -109.08)" gradientUnits="userSpaceOnUse"><stop stop-color="#9c4d2b" offset="0"/><stop stop-color="#9c4d2b" offset=".37162"/><stop stop-color="#dd9d82" offset="1"/></linearGradient><radialGradient id="bl" cx="340.68" cy="938.39" r="100.01" gradientTransform="matrix(.29464 -.00073766 .00068014 .27165 -57.461 -115.4)" gradientUnits="userSpaceOnUse" xlink:href="#at"/><radialGradient id="bm" cx="402.7" cy="966.67" r="60.155" gradientTransform="matrix(.361 -.060574 .042534 .25349 -125.98 -73.383)" gradientUnits="userSpaceOnUse" xlink:href="#at"/><linearGradient id="ca" x1="402.86" x2="406.79" y1="933.06" y2="972.34" gradientTransform="matrix(.26458 0 0 .26458 -46.681 -109.08)" gradientUnits="userSpaceOnUse" xlink:href="#a"/><linearGradient id="cb" x1="284.54" x2="316.24" y1="992" y2="1020" gradientTransform="matrix(.26458 0 0 .26458 -46.681 -109.08)" gradientUnits="userSpaceOnUse" xlink:href="#aq"/><linearGradient id="cc" x1="272.6" x2="243.21" y1="898.52" y2="901.73" gradientTransform="matrix(.26458 0 0 .26458 -46.681 -109.08)" gradientUnits="userSpaceOnUse" xlink:href="#aq"/><linearGradient id="cd" x1="348.57" x2="340.04" y1="1034.6" y2="1006.2" gradientTransform="matrix(.26458 0 0 .26458 -46.681 -109.08)" gradientUnits="userSpaceOnUse" xlink:href="#a"/><linearGradient id="ce" x1="266.95" x2="266.47" y1="951.19" y2="978.34" gradientTransform="matrix(.26458 0 0 .26458 -46.681 -109.08)" gradientUnits="userSpaceOnUse" xlink:href="#av"/><linearGradient id="aw" x1="373.61" x2="326.53" y1="1026.6" y2="963.24" gradientTransform="matrix(.26458 0 0 .26458 -46.681 -109.08)" gradientUnits="userSpaceOnUse" xlink:href="#aq"/><linearGradient id="ax" x1="275.47" x2="333.25" y1="905.29" y2="864.93" gradientTransform="matrix(.26458 0 0 .26458 -46.681 -109.08)" gradientUnits="userSpaceOnUse"><stop stop-color="#3a7e3a" offset="0"/><stop stop-color="#214b21" offset=".38323"/><stop stop-color="#182618" offset="1"/></linearGradient><radialGradient id="bn" cx="540.23" cy="796.77" r="43.937" gradientTransform="matrix(.29176 .078801 -.05711 .21144 -15.81 -108.47)" gradientUnits="userSpaceOnUse" xlink:href="#ar"/><linearGradient id="ay" x1="470.67" x2="482.51" y1="753.72" y2="771.33" gradientTransform="matrix(.26458 0 0 .26458 -46.681 -109.08)" gradientUnits="userSpaceOnUse" xlink:href="#ar"/><linearGradient id="az" x1="503.05" x2="494.45" y1="746.83" y2="762.99" gradientTransform="matrix(.26458 0 0 .26458 -46.681 -109.08)" gradientUnits="userSpaceOnUse" xlink:href="#ar"/><linearGradient id="ba" x1="499.44" x2="507.17" y1="763.72" y2="776.79" gradientTransform="matrix(.26458 0 0 .26458 -46.681 -109.08)" gradientUnits="userSpaceOnUse" xlink:href="#ar"/><linearGradient id="bb" x1="537.87" x2="542.9" y1="732.6" y2="748.57" gradientTransform="matrix(.26458 0 0 .26458 -46.681 -109.08)" gradientUnits="userSpaceOnUse"><stop stop-color="#7ca93d" offset="0"/><stop stop-color="#425a21" offset="1"/></linearGradient><linearGradient id="bc" x1="245.07" x2="255.09" y1="1009.3" y2="1022.4" gradientTransform="matrix(.26458 0 0 .26458 -46.681 -109.08)" gradientUnits="userSpaceOnUse" xlink:href="#av"/><linearGradient id="bd" x1="236.08" x2="270.84" y1="999.3" y2="1038.4" gradientTransform="matrix(.26458 0 0 .26458 -46.681 -109.08)" gradientUnits="userSpaceOnUse" xlink:href="#a"/><linearGradient id="be" x1="379.22" x2="383.68" y1="911.66" y2="935.76" gradientTransform="matrix(.26458 0 0 .26458 -46.681 -109.08)" gradientUnits="userSpaceOnUse" xlink:href="#a"/><linearGradient id="bf" x1="388.39" x2="379.75" y1="747.32" y2="742.94" gradientTransform="matrix(.26458 0 0 .26458 -46.681 -109.08)" gradientUnits="userSpaceOnUse" xlink:href="#a"/><linearGradient id="bg" x1="221.97" x2="226.41" y1="732" y2="732.36" gradientTransform="matrix(.26458 0 0 .26458 -46.681 -109.08)" gradientUnits="userSpaceOnUse" xlink:href="#a"/><linearGradient id="bh" x1="230.08" x2="248.45" y1="731.78" y2="731.24" gradientTransform="matrix(.26458 0 0 .26458 -46.681 -109.08)" gradientUnits="userSpaceOnUse" xlink:href="#a"/></defs><g transform="translate(-51.308 -120.03)"><g transform="translate(50.296 46.764)"><path d="m86.391 88.518c-1.0649 0.7185-2.2869 1.2185-3.561 1.4877-0.86863 0.33835-1.5748 1.2923-1.2668 2.1906 0.37055 0.42759 0.63738 1.0626 1.212 1.2426 0.6404 0.12148 1.0445-0.50422 1.6669-0.48278 1.1164-0.16109 2.0682-0.94303 2.5652-1.8821 0.36139-0.70358 0.50456-1.5756 0.17169-2.3081-0.17169-0.22697-0.50586-0.3384-0.78785-0.24803z" style="fill:url(#az);stroke-width:.26458"/><path d="m79.078 88.566c-1.6026 1.0404-2.3777 3.0448-2.8104 4.8313-0.11637 1.8478 1.9082 3.9635 3.7417 2.7787 0.70802-0.12164 1.1379-0.75729 1.263-1.3262 0.66072-0.40434 1.7867-1.4872 0.68186-2.0701-1.2259-0.4128-2.3624-1.2981-2.2795-2.7286-0.21282-0.54729 0.39039-1.855-0.59685-1.485z" style="fill:url(#ay);stroke-width:.26458"/><path d="m86.508 92.284c-0.63452 0.09918-0.98187 0.93895-1.7434 0.59206-1.1514 0.10129-2.4339 0.49236-3.1152 1.4963-0.37492 0.47202-0.38851 1.4166 0.40989 1.4055 0.79137 0.0292 1.5088-0.36931 2.1627-0.76824 0.70035-0.49834 1.203 0.83217 0.54816 1.1216-0.62968 0.19348-1.6488 0.23568-1.7979 1.0198 0.18264 0.65908 1.0108 0.77917 1.5874 0.89276 1.0467 0.14576 2.185-0.308 2.7088-1.2548 0.5811-0.58782 1.6298-0.42074 2.0848-1.1828 0.49525-0.69276 0.38214-1.7098-0.24926-2.2811-0.65098-0.71094-1.6346-1.1035-2.596-1.041z" style="fill:url(#ba);stroke-width:.26458"/><path d="m88.497 96.16c-1.0466 0.67606-1.5178 1.4422-2.6324 1.6742-0.80616 0.73139-1.4472-0.11823-2.1122 0.11771-0.06023 0.98316-0.51594 2.1336-0.55203 3.1409-0.17895 2.6358 0.54118 5.2874 2.1301 7.4194 1.4017 2.6906 3.9238 4.6159 7.012 4.9591 2.6046 0.32065 5.0599 0.0502 7.5478-0.7769 2.6662-1.0025 4.8874-2.9258 6.0246-5.5647 0.85452-2.4436 0.72411-5.4642-1.0948-7.493-1.5977-1.6309-3.1004-3.0054-5.5364-2.9565-1.8315-0.04393-3.7566 0.07891-5.5811 0.25108-1.7813 0.24442-3.4687-0.44437-5.2051-0.77108z" style="fill:url(#bn);stroke-width:.26458"/><path d="m29.67 159.72s2.953 3.9923 4.0632 4.3704c1.1103 0.37796 2.5277 1.1812 3.6854 0.8032 1.1577-0.37799 3.1419-1.1812 3.1419-1.1812l4.5828-3.4018-3.071-4.205s-4.1106 0.73234-5.0789 0.42521c-0.96856-0.3071-3.5671-1.6536-3.5671-1.6536l-1.6064 1.3229z" style="fill:url(#cb);stroke-width:.26458"/><path d="m39.798 156.76-0.16704 0.75171 1.4533 0.25056-0.55123 2.1549 2.3219-0.35081-0.3174 0.90204-1.0023 1.4032-0.95216 1.9544s2.2217 3.3909 4.7106 4.1426c2.4889 0.75171 2.2551 0.46773 2.94 0.15034 0.68487-0.31737 2.6895-1.7373 3.2073-1.9377 0.51779-0.20045 1.7373-1.4199 1.4533-2.3887-0.28398-0.96886-1.0524-1.6537-1.0524-1.6537l-6.7485-7.2998z" style="fill:url(#cd);stroke-width:.26458"/><path d="m64.608 131.17c-1.7431 0.21653-1.135 2.303-1.2622 3.4547-0.75343 1.3402-2.2196 2.1599-3.4327 3.0819-1.5696 0.95996-3.4528 1.1702-5.1393 1.8241-1.7182 0.31808-3.456-0.80346-5.1395-0.0452-1.3852 0.72306-1.9105-1.9382-3.1798-0.4237-1.2127 1.1268-2.624 2.781-0.95382 4.2233 0.84413 1.2894 1.294 2.8093 1.5438 4.3156 0.23405 1.5103-0.0047 3.0387-0.32848 4.5114 1.0498-0.30242 2.3423-1.0639 3.5444-1.4424 1.3167-0.57049 2.7316-0.77184 4.0883-1.2368 1.8639-0.35052 3.7695-0.26392 5.6327 0.0504 1.545 5e-3 2.8623 0.80124 4.4077 0.80108 1.5446 0.37857 2.821-0.71223 4.3299-0.74395 1.4413-0.46636 2.4731-1.6855 3.7515-2.4567 1.2679-0.32163 1.7412-1.6897 2.4972-2.625 0.96451-1.7066 1.6458-3.6534 1.5975-5.6147-0.26097-2.8938-2.3408-5.5917-5.216-6.4545-1.0403-0.3293-2.0078-0.79819-3.0872-0.86614-1.1771-0.51652-2.4179-0.23753-3.6547-0.35285z" style="fill:url(#bm);stroke-width:.26458"/><path d="m69.045 131.43c0.43852 1.0523 0.78825 2.4338 1.1504 3.5195-0.07947 1.1316 0.33613 2.1632 0.5666 3.2549 0.19404 1.3186 0.385 2.7146 0.0063 3.9915-0.16772 1.1591 0.07762 2.3042-0.92919 3.4999-0.68464 1.7004-1.7246 3.0509-2.6056 4.1632 2.3925 0.0568 3.6761-1.9083 4.9892-2.6644 1.4851-1.2551 1.7778-0.84206 2.7199-2.7742 0.65035-0.9617 1.1107-1.7805 1.2817-2.9271 0.06679-0.70096 0.58214-2.0094 0.35041-2.7199-0.31131-1.4101-0.43873-3.0242-1.591-4.0442-0.90387-0.9002-2.2621-2.2655-3.602-2.4657-0.77306-0.28776-1.5313-0.6523-2.3367-0.83375zm-6.0494 2.583c-1.447 0.9784-2.894 1.9568-4.3408 2.9353 1.6026 1.9598 1.8487 4.7262 1.0985 7.0853-0.46911 1.8423-1.0411 3.664-1.8013 5.4081 1.2706 0.11299 2.5411 0.226 3.8116 0.33898 2.7591-2.2849 3.7015-6.0722 3.6002-9.5274-0.09674-1.9564-0.14638-4.1354-1.4246-5.7348-0.24833-0.25883-0.57304-0.49144-0.94361-0.50531zm-12.394 5.2419c-0.63018 0.12139-1.2549 0.55624-1.8923 0.263-1.2744-0.52012 0.16637 0.73128 0.40293 1.2513 0.93969 1.3367 1.8527 2.7792 2.0003 4.4474 0.2948 1.5658 0.43865 3.2242-0.21812 4.7247-0.5211 0.83595-0.01979 0.68405 0.58722 0.44965 0.9221-0.28064 1.8442-0.56128 2.7662-0.84193 0.52679-2.9686 1.1609-6.1473 0.09243-9.0694-0.09377-0.65178-0.81304-0.52211-1.2891-0.68863-0.81656-0.17868-1.6331-0.35735-2.4496-0.53605z" style="fill:url(#ca);stroke-width:.26458"/><path d="m20.859 133.09-5.4097 2.3624s-2.8112 0.54335-3.4253-0.68509c-0.6142-1.2284 2.1025-13.442 2.1025-13.442s1.0631-2.7638 2.7167-3.4962c1.6537-0.73237 2.9057-0.63783 2.9057-0.63783l0.47247 10.56 3.2128-0.99219-0.3071 1.7954z" style="fill:url(#cc);stroke-width:.26458"/><path d="m12.62 129.36 1.5535-0.86863 0.28398 1.8208 1.1359-0.7851-0.15034 1.4867 2.088-1.3029 1.2862 0.13364 1.7206-2.2384 2.9567-1.0691s0.25057-2.2718 1.2528-3.842c1.0023-1.5702 1.7206-2.7728 1.7206-2.7728s-1.1359-1.186-2.1549-1.4867c-1.019-0.30068-2.4221-0.63477-2.4221-0.63477s-1.6871-1.2695-3.3409-0.68487c-1.6537 0.58465-3.7584 1.9878-4.3098 3.8587-0.55139 1.8709-1.6203 8.3857-1.6203 8.3857z" style="fill:url(#by);stroke-width:.26458"/><path d="m50.874 116.68c-3.2015 0.11861-5.5671 0.20148-7.6047 2.2308-2.4365 1.8674-5.1107 4.2029-5.3247 7.4827 0.03916 2.5084 0.81219 5.4771 3.1337 6.7966 0.8364 0.45548 1.2657-0.60346 0.71107-1.1824-0.18116-1.9571 0.34258-3.9195 0.5705-5.8208 1.4131-1.3319 3.493-1.0442 5.0353-1.3891-0.30512 2.7607-0.05396 5.4554-0.16536 8.0698-0.04175 2.6924 1.2031 5.5962 3.8283 6.3997 3.2025 0.98026 4.4212 0.32105 7.1355-0.62013 2.7144-0.94117 4.5821-2.4922 5.6388-4.3905 0.56634-1.3196-0.34023-3.5454-2.0257-2.9766-1.1634 0.27006-1.9536 1.3863-2.9684 2.2159-0.97483-1.7394-2.5194-3.4766-4.1921-4.3244 0.64495-0.9825 0.27419-2.3992 0.42995-3.3734 0.98809-1.9845 0.71948-4.3992 0.71107-6.5402-0.58163-1.6698-1.712-2.6966-4.9133-2.578zm-27.53 11.822c-0.04473 1e-3 -0.08808 3e-3 -0.13229 8e-3 -1.6975 0.87382-2.098 3.1052-2.6871 4.7625-0.58656 2.3984-1.5526 6.5225-2.034 8.9794-0.44683 2.2802 0.30538 5.506 0.678 6.168 5.2456 5.1276 6.585 6.9159 10.277 12.295 0.67098-1.073 0.90265-2.4134 1.8521-3.3652 0.56285-0.68252 0.65744-1.596 1.4635-1.7942 0.53472-0.72745 0.82169-0.34391 1.2898 0.12404 2.3821 1.281 5.2983 0.99575 7.8962 0.66971 1.7576-0.71596 3.773-1.666 4.7046-3.3898 0.31607-0.98423 0.94811-1.964 0.7855-3.1089 0.4645-3.8912-2.1174-7.0723-3.7952-10.302-0.65011-1.2967-0.67432-2.8324-1.232-4.1259-1.4745-0.4273-3.1194 0.50327-4.68 0.35555-2.5475 0.13766-5.1895 0.0788-7.5324-0.93429-1.9121-0.86625-3.2446-2.5961-4.1672-4.3987-0.99576-0.29951-1.6835-1.0938-2.2986-1.8603-0.11894-0.0695-0.2544-0.0863-0.38862-0.0827z" style="fill:url(#bl);stroke-width:.26458"/><path d="m41.941 137.49c0.23479-0.0357 0.8137-0.60884 0.7439-0.17033 0.04211 1.7967 1.1068 3.3385 1.9963 4.8242 1.4366 2.4118 2.7469 5.167 2.3389 8.0521 0.03033 1.1338-0.61677 2.1733-1.0525 3.161-1.6694 1.8837-4.1312 3.2001-6.6969 3.0298-1.8089 4e-3 -4.4318-0.2421-5.9756-1.3758-1.0767 0.65376-1.3584 1.2804-1.7943 0.29314-0.14781-0.72933 1.2545-2.4252 0.88805-3.0358-0.73475 0.47646-2.0504-0.40122-1.1184-1.1218 0.22086-0.64545-1.8158 0.21148-0.8614-0.59515 1.601-1.887 3.1247-3.8544 4.9321-5.5504 2.0576-2.6241 4.2799-5.1162 6.5998-7.5107z" style="fill:url(#aw);stroke-width:.26458"/><path d="m23.844 152c0.10023-0.11693 2.3386-3.0401 2.3386-3.0401l2.9901-0.75171-1.637 2.2551 2.4722-0.61807-0.75171 0.96886 0.68487 0.35078 2.0045-0.50112-0.61807 0.85193 0.43431 0.68488 1.5702-0.43432-1.2695 2.9064-0.15034 1.3698-2.9234 4.9112s-0.08352 4.2429-3.274 5.9968c-3.1906 1.754-5.2954 0.3842-8.0515-2.088-2.7562-2.4722-4.7942-5.1448-4.7942-5.1448s-2.3553-4.5437-1.5368-6.9657c0.81852-2.4221 1.8876-2.6393 1.8876-2.6393l1.9544-1.2027h2.4221l2.3887-0.50112z" style="fill:#551f08;stroke-width:.26458"/><path d="m24.095 167.04s1.7481-0.6142 2.0316-1.1339 0.75594-1.7482 0.56698-2.7876c-0.18899-1.0394-2.5514-5.2446-4.3468-6.6146-1.7954-1.3702-3.6854-2.6458-5.4335-2.1261-1.7481 0.51973-3.4962 0.8032-3.3547 2.3151 0.14174 1.5119-0.33073 2.3151 1.0867 3.7798 1.4174 1.4646 2.6932 3.4491 4.5828 4.6302 1.8899 1.1812 1.6536 1.7009 2.8347 1.8426 1.1812 0.14176 2.0316 0.0945 2.0316 0.0945z" style="fill:url(#bd);stroke-width:.26458"/><path d="m18.65 158.41c1.2194-0.40092 2.6895 0.28396 3.6751 1.921s1.2027 3.1403 0.66818 3.8587c-0.53454 0.71829-1.7874 0.60137-2.5224 0.30067-0.73499-0.30067-1.637-1.0022-2.0379-2.2384-0.4009-1.2361-0.48443-2.4221-0.23386-2.9567 0.25056-0.53459 0.45101-0.88532 0.45101-0.88532z" style="fill:url(#bc);stroke-width:.26458px;stroke:#000"/><path d="m84.56 94.622c-4.4797 1.3024-8.2823 2.7964-13.363 3.8203-0.88376 0.15208-2.0455 1.0295-2.7538 0.73517-0.62653-0.96972-1.3642 0.11984-1.8177 0.51811-1.8787 0.75798-4.1061 1.2969-5.7264 2.5326-0.82357 0.66752-1.1562 2.726 0.54846 2.216 0.89548-0.23609 1.6349-0.73043 2.5444-0.92286 7.0726-2.5454 14.897-4.7575 21.246-7.2551 0.71975-0.5366 0.3106-1.8522-0.67799-1.644z" style="fill:url(#bw);stroke-width:.26458"/><path d="m33.742 73.421c-0.75721 0.83627 0.08853 2.5554-0.12927 3.6886-0.10692 0.59687-0.24162 0.78801-0.45424 1.3786-2.0789-1.4883-5.1631-1.6605-8.4677-0.50318-1.4096 0.49366-3.5309 1.3224-4.4424 2.5596 1.3973 0.91191 2.799 1.6412 3.4184 2.5478-3.7827 1.4624-6.3992 4.925-8.065 8.4524-0.81523 1.2314-1.6881 3.356-3.5388 2.6871-1.5403-0.23548-2.2836-1.3414-3.4904-2.1852-0.98335 4.485-0.32134 8.8323 2.5561 11.509-0.63455 0.22257-1.8951-0.1792-2.582-0.3697 0.015637 0.52229-0.12074 1.0123 0.14056 1.8982 0.49877 1.691 1.1501 2.6995 1.6147 4.3444 0.89797 1.0847 1.7484 1.8746 2.6871 2.6045 0.74202 0.25852 1.1852 1.1265 1.819 1.6123 0.01847-0.62966 0.33478 0.73781 0.61185 0.93429 1.3248 1.8807 3.3205 1.9437 5.4758 1.9619 0.66178 6e-3 1.6143 0.37182 0.78311 0.74179 0.21897 0.65394 1.7055 0.95496 2.4908 1.2308 2.4667 0.91204 3.9785 3.9272 6.9101 3.4573 2.414-0.10197 4.418-1.8856 6.6765-2.5918 4.1309-1.7424 8.391-3.3004 12.423-5.2382 2.1402-1.4213 4.7596-3.914 6.8437-5.398-0.24016-0.52503 0.33771-1.1084 0.9792-1.9206 0.99433-1.2588 2.2432-2.4529 2.7522-3.9923-0.10774-1.3259-1.3349-0.22418-2.9318-0.0602 0.22254-0.37531 0.42775-0.69009 0.88958-1.0797 2.1766-1.5394 3.6346-3.9381 4.0444-6.468 0.21885-1.3512 0.20656-2.9834-0.24686-4.2923-0.80391 0.51274-1.6615 1.3018-2.5305 1.9464-2.9887 2.2173-6.9927 2.9922-10.512 1.8641-1.9922-0.9969-3.398-3.2541-3.8108-5.4536-0.28099-1.9376-0.02772-3.8227 1.0004-5.5065 0.12163-0.85926-1.1533-1.5085-1.7694-2.1084-0.33187-0.25108-1.1448-0.54136-1.4842-0.76922 0.04669-0.38357 0.3366-1.5232 0.23299-1.8011-0.31623 0.21815-0.69525 1.0617-1.0061 1.6443 0.4173-1.9668-0.67614-4.0238-1.8867-5.5475-0.46382 0.54475-0.42082 1.8127-1.0135 2.5394-0.23108 0.57346-0.76658 1.5834-1.1329 1.712-0.21437-2.4075-1.8951-5.0588-4.1608-6.0047-0.22228-0.0453-0.4807-0.15976-0.69453-0.02479zm-10.038 28.676c-0.07937 2.3467-0.76298 4.6178-1.3395 6.8461-0.39616 0.42934-1.679 0.11448-0.84336 1.5462-0.1732 0.94946-1.5697 1.4546-2.3482 1.8603-1.2649-0.39968-1.6184-1.9419-1.48-3.1006 0.54988 0.1555 0.8726-0.55251 0.98393-0.68628 0.65154 0.69948 1.5687 0.0697 1.4552-0.81029 0.21618-1.9072 0.27509-4.5471 2.2738-5.4737 0.45498-0.0774 0.96023-0.11122 1.3064-0.45476l-8e-3 0.26446-2.54e-4 8e-3zm5.4158 0.53742c1.6635-0.11555 2.119 1.9365 1.9348 3.233 0.17467 1.3393-0.34388 2.7485-0.09922 4.0349 0.15372 0.4117 1.2805 0.33565 0.27284 0.39688-0.99126-0.0622-2.0862 0.61579-3.0014 0.45477-0.58875-0.49536-1.7755 0.0381-1.7115-0.9343-0.22748-1.9511-0.13579-4.0061-0.12402-5.9944 1.0202 0.1832 1.4141-1.1634 2.4805-1.1493 0.08509-7e-3 0.16499-0.0324 0.24805-0.0413zm-11.344 4.3656c0.0302 0.30477-0.14047-0.32922 0 0zm7.6565 3.6298c0.40595 0.4041-0.73604-0.38881 0 0z" style="fill:url(#bj);stroke-width:.26458"/><path d="m17.166 109.04c-2.103 0.47271-3.2081 3.0165-2.1375 4.7469 0.28728 0.73041 0.84209 1.3484 1.5702 1.7292 0.83074 0.55324 1.7885 0.98377 2.8281 1.0036 0.85212 0.10376 1.707-0.32116 2.4547 0.21725 2.2023 0.87646 4.6871 1.3992 7.0617 0.8709 0.6785-0.53281 0.50678-1.4412 0.4726-2.1706-0.12974-0.7417-0.03755-1.493-0.07489-2.2296-0.05202-0.73152 0.23869-1.4708 0.0199-2.1935-0.34444-0.47051-1.0593 0.15448-1.4391-0.34417-0.8138-0.25567-1.7004-0.15535-2.51 0.0623-1.0292-0.97597-2.5166-1.4818-3.9751-1.4471-0.30086 0.65714 0.6496 1.6482-0.29281 2.045-0.62651 0.28893-1.0877 0.90892-1.798 1.0052-0.67048-0.036-1.1935-0.64022-1.3659-1.2016-0.1524-0.64362 0.16724-1.4284-0.3824-1.9527-0.11444-0.10042-0.27345-0.15941-0.43154-0.14096z" style="fill:url(#bz);stroke-width:.26458"/><path d="m41.537 117.68c-3.4994 0.89802-6.2709 2.7456-9.7848 4.0468-1.6489-0.0346-4.2963-0.21175-4.9112 1.6915-0.47657 1.2961 0.76623 3.1147 1.9678 2.9186 3.9304 0.0256 6.2465-3.2068 9.2969-5.1845 0.88942-1.3324 3.3475-1.7765 4.0561-3.1332 0.17694-0.72559-0.13178-0.38023-0.62484-0.33898z" style="fill:url(#bk);stroke-width:.26458"/><path d="m26.617 110.56s-1.0357-4.9779-0.16704-10.156c0.86863-5.1784 1.1025-9.5882 4.0759-10.257 2.9734-0.66818 5.5459-0.43431 6.9157 2.372 1.3697 2.8064 2.539 7.7507 1.9711 10.357-0.56795 2.6059-2.1382 7.3165-2.1382 7.3165s-5.2451-0.0334-5.9801 0.10022c-0.73501 0.13364-2.0713 0.70157-2.7728 0.56796-0.70157-0.13363-1.9043-0.30067-1.9043-0.30067z" style="fill:url(#bq);stroke-width:.26458"/><path d="m13.851 76.176c-1.384 0.66672-1.8232 2.2637-2.2455 3.6126-0.68808 2.1874-0.43807 4.5339-0.09161 6.7604 0.19456 1.0028 0.35824 2.0365 0.73168 2.9853 0.62193 0.55168 1.3981 1.1177 1.0647 2.0371 0.12525 0.75771 0.79645 1.2742 1.4622 1.5601 0.8735-0.09073 1.208-1.0435 1.574-1.7075 0.52337-1.1873 1.1554-2.3345 1.8892-3.4052 1.0437-1.4352 2.39-2.61 3.5116-3.9796-2.5919-1.3139-4.1669-3.8627-5.8187-6.1399-0.54584-0.64072-0.95033-1.6298-1.8967-1.7243l-0.08882-0.0026-0.09182 0.0037z" style="fill:url(#bh);stroke-width:.26458"/><path d="m17.764 107.04 1.41 1.6064 3.2576 0.6142s1.6045-2.8821 1.8476-8.1264 0.38896-9.3549-0.87516-10.253c-1.2641-0.8977-4.2299 1.9844-5.008 6.709-0.77793 4.7247-0.63206 9.4493-0.63206 9.4493z" style="fill:url(#br);stroke-width:.26458"/><path d="m57.382 77.292c-2.7715 0.59486-4.458 3.193-7.0509 4.2542-1.6104 0.6591-3.5213 1.295-4.3262 2.9906-0.66029 1.3908-0.99475 2.9641-0.72787 4.5114 0.32062 1.8588 1.1336 3.7187 2.5803 4.9519 0.83677 0.71329 1.7725 1.3891 2.9387 1.4906 1.2985 0.11304 2.8345 0.68 3.9349-0.25006 0.99499-0.8409 1.4128-2.1838 2.4113-3.0742 0.53459-0.47673 1.002-1.0535 1.1989-1.5632 0.70617-1.8277 1.2483-3.729 1.6038-5.6592 0.38029-2.0649 0.31292-4.2728-0.51369-6.2198-0.34158-0.8046-1.1318-1.6294-2.0493-1.4325z" style="fill:#551f08;stroke-width:.26458"/><path d="m52.252 90.857c0.48488-0.60301 1.4439-1.6009 2.0821-2.0313 0.04632-0.08521 0.05509-0.15429 0.04236-0.40518-0.68014 0.04467-1.8293 0.24132-2.5024 0.12096 0.10709-0.58431 1.1709-0.97131 1.6207-1.1894 0.35724-0.19402 0.65651 0.09982 0.74618-0.24033-0.43894-0.33147-0.70432-0.15379-1.2367-0.24672-0.70115-0.0477-1.5638 0.04275-2.2635-0.02723 1.1318-0.98838 2.7691-2.0801 3.7997-3.1827 0.81105-0.79915 1.6214-1.6213 2.6032-2.2131 0.70255 0.0602 0.48398 1.0657 0.44082 1.5618-0.05617 0.52904-0.26428 1.0903 0.2122 1.4271-0.19713 0.88702-0.39756 1.7956-0.7902 2.6282-0.51575 1.1894-1.3455 2.514-2.168 3.5039-1.7516-0.12358-3.1292 0.94573-2.5865 0.29403z" style="fill:url(#bf);stroke-width:.26458"/><path d="m19.902 108.72 1.4867 0.63476 1.1192-0.15034s1.0691-2.5558 1.2194-3.9756c0.15034-1.4199 0.06682-2.9734-0.3842-3.1403-0.45101-0.16704-2.3386-0.13363-2.8898 2.5725-0.55123 2.7062-0.55123 4.0592-0.55123 4.0592z" style="fill:#fff;stroke-width:.26458"/><path d="m26.752 110.42 1.7874 0.4009 2.1048-0.35078s0.90204-1.9043 0.83521-4.1762c-0.06682-2.2718-0.3842-3.5748-1.7206-3.842-1.3364-0.26728-2.7562 0.86863-3.2073 1.9377-0.45112 1.0691 0.20045 6.0304 0.20045 6.0304z" style="fill:#fff;stroke-width:.26458"/><path d="m18.968 108.67c-1.2431 0.029-1.7567 1.4664-1.1478 2.4506 0.34475 0.83331 1.2033 2.07 2.1792 1.2796 0.80304-0.5367 2.5279-1.3963 1.5666-2.5515-0.60161-0.80364-1.6131-1.2287-2.598-1.1788z" style="fill:#de8787;stroke-width:.26458"/><path d="m20.624 148.87c-0.04725-0.28347-0.44884-1.819-0.02363-3.2128 0.42524-1.3938 1.2521-3.9923 2.0553-4.89 0.8032-0.89771 2.1734-2.1734 3.1655-2.3151 0.99219-0.14174 1.7481-0.0945 2.575 1.4647s0.9213 3.1893 0.99219 4.0161c0.07088 0.82682-0.21261 1.441-0.21261 1.441s-0.85045 0.4961-1.9607 1.9135c-1.1103 1.4174-3.4017 4.6776-3.4017 4.6776z" style="fill:url(#ce);stroke-width:.26458"/><path d="m49.585 124.87-2.3482 3.3652c5.29e-4 1.5691 0.05638 3.1131-0.0083 4.6302-0.04175 2.6924 1.2031 5.5962 3.8283 6.3997 3.2025 0.98025 4.4212 0.32104 7.1355-0.62013 2.7144-0.94118 4.5821-2.4922 5.6388-4.3905 0.56634-1.3196-0.34023-3.5454-2.0257-2.9766-1.1634 0.27006-1.9536 1.3863-2.9684 2.2159-0.97483-1.7393-2.5194-3.4766-4.1921-4.3244 0.60986-0.92905 0.31599-2.2438 0.41341-3.2081l-2.0257 0.6532 0.30591-0.91778-3.3322 1.4387-0.42169-2.2655zm-2.3482 3.3652 2.2738-3.2742-2.2738 3.1999c-1.8e-5 0.0247-1e-5 0.0497 0 0.0744z" style="fill:url(#be);stroke-width:.26458"/><path d="m33.935 114.21c-1.2187 1.2969-2.3819 2.4841-4.0063 3.179-0.59904 0.73676-1.7037 1.7932-1.3006 2.6562 0.69839 0.54687 1.0749 0.045 1.523-0.52941 1.5135-1.2745 2.3036-1.2316 3.5616-1.2857 0.62108-1.6884 1.3241-3.3568 1.2465-5.1768-0.308 0.31327-0.7162 0.84368-1.0242 1.1569z" style="fill:url(#bs);stroke-width:.26458"/><path d="m32.702 118.06c-0.71181 0.0536-1.3214 0.47572-1.8638 0.90588-0.3215 0.25826-0.65408 0.50276-1.0048 0.71964-0.21577 0.14959-0.45098 0.30353-0.57042 0.5462-0.05058 0.22358 0.2352 0.29644 0.40492 0.31219 0.51734 0.0766 1.042 0.0323 1.5618 0.015 0.71326-0.0781 1.3088-0.53258 1.8199-1.0039 0.19611-0.18759 0.4196-0.35508 0.57359-0.58084 0.1492-0.23978 0.11966-0.58796-0.11594-0.76296-0.21997-0.18389-0.53382-0.21948-0.80513-0.15123z" style="fill:#f55;stroke-width:.26458"/><path d="m19.185 116.77 1.8375 1.7206 1.0357-1.6871-1.3196-0.28398z" style="fill:#fff;stroke-width:.26458"/><path d="m46.156 115.65c-1.052 0.70834-1.9546 1.3602-3.2263 1.9431-3.8933 2.5928-7.0006 5.2657-10.934 7.9992-2.0784 0.44209-3.2052 1.0865-4.29 0.1707-1.1456-0.96726-0.60219-3.41 0.09515-4.6321-0.28183-0.58499-0.61521-0.64421-1.5371-1.0314-0.69255 1.2306-1.7883 2.5649-2.3883 3.8735-0.70056 1.6412-1.1929 3.8595 0.16879 5.3052 0.97285 0.84058 1.9235 1.4703 2.3872 2.6908 0.77481 0.86246 1.3259 1.9277 2.3497 2.5388 2.8197 1.9056 6.4069 1.9986 9.6837 1.7074 1.5462-0.23782 3.225-0.16982 4.6056-0.99954 1.3213-1.0118-0.29223-2.3562-1.4604-2.3533-2.2972-1.0636-3.2763-3.7992-3.2147-6.1947-0.05106-2.7355 2.0457-4.8204 4.0024-6.4421 1.2824-1.2586 3.0046-2.002 4.1389-3.4182 0.68125 0.0522 2.177-1.3231 0.71728-1.2317-0.36462 0.0428-0.7312 0.0523-1.0976 0.0741z" style="fill:url(#ax);stroke-width:.26458"/><path d="m27.135 118.09 1.186 1.6704 1.2027-1.9377z" style="fill:#fff;stroke-width:.26458"/><path d="m18.518 121.6c-2.482 1.3036-4.9406 3.7854-7.5203 3.5753-0.61796-0.0757-1.4197 0.1858-1.7601 0.72755-0.034388 0.54478 0.55663 0.21887 0.55824 0.78642-1.0538 1.4435-3.4671 3.0657-4.8652 4.1132-0.89442 0.34698-0.33229 1.1191 0.17388 1.3781-0.23883 0.60661-0.3283 1.079-0.059719 1.7912 0.69136 0.42296 0.95631-0.44466 1.4831-0.76251 1.397-1.2289 2.7927-2.5048 4.3786-3.5195 2.985-1.91 5.6407-4.2114 8.886-5.6883-0.22019-0.82722-0.52795-1.4434-0.84545-2.3261-0.13867-0.0801-0.2698-0.0731-0.42931-0.0753z" style="fill:url(#bv);stroke-width:.26458"/><path d="m96.768 88.278c-0.89122 1.6372-1.4362 2.726-3.0467 3.5893-1.1128 0.33414-4.4508 0.46114-4.2802 2.0337 0.11912 1.5231 1.8071 0.28226 2.7345 0.09955 2.6051-1.0791 5.28-1.7009 8.0783-1.8435 1.1217-0.64119-0.18292-0.81489-1.0899-1.0714-0.84302 0.12199-1.7953 0.53986-2.9977 0.4382 0.45948-0.47763 1.5657-3.2488 0.60187-3.2459z" style="fill:url(#bx);stroke-width:.26458"/><path d="m57.454 131.75s0.61807-0.46773 1.3029-0.43432c0.68487 0.0334 1.3196 0.25057 1.4867 0.51785 0.16704 0.26728-1.2194 1.6871-1.2194 1.6871l-0.46773 0.0501z" style="fill:#551f08;stroke-width:.26458"/><path d="m48 136.73 2.6895 2.5057s-0.3174 0.30067-1.2027 0.31739c-0.88532 0.0167-1.5034-0.0334-1.7539-0.46773-0.25057-0.43431 0.26728-2.3553 0.26728-2.3553z" style="fill:#551f08;stroke-width:.26458"/><path d="m12.787 89.5c-0.52229-1.0855-0.58928-2.3169-0.7992-3.4877-0.11306-1.0114-0.30962-2.0358-0.21827-3.053 0.24479-0.78248 0.20632-1.9137 0.98528-2.3463 0.31313-0.12064 0.93194-1.1633 0.81582-0.27916 0.0647 1.9452 0.47765 3.5446 0.90786 5.4427 0.17876 0.35708 0.12925 1.0152-0.03483 1.5672-0.26958-0.46966-1.3783-1.1062-1.1964-0.36917 0.05147 0.72864 0.3038 1.4083 0.62545 2.0576 0.4028 0.63082-0.74454 0.49305-1.0857 0.46805z" style="fill:url(#bg);stroke-width:.26458"/><path d="m33.364 73.265c-0.64151 0.02687-0.63934 0.18267-0.26458 0.90122 0.19307 0.3702 0.29686 1.1346 0.29766 2.2655 0.0013 1.8097-0.11306 1.9865-0.87643 1.3808-0.37653-0.29877-0.37716-0.31025 0.14056-0.19017 0.58126 0.13481 0.75785-0.17285 0.19844-0.34726-1.2871-0.40132-3.4901-0.6559-4.9361-0.5705-1.9374 0.11443-2.4803 0.26069-1.6371 0.44648 0.53107 0.11703 0.47514 0.15115-0.58706 0.37206-1.5854 0.32975-4.1846 1.1595-4.7212 1.5048-0.24104 0.1551-0.4382 0.3964-0.4382 0.53742s-0.22001 0.35753-0.48784 0.47956c-0.63577 0.28967-0.61672 0.54718 0.04961 0.68628 0.40293 0.08411 2.8011 1.6472 3.3322 2.1746 0.03716 0.0369-0.3048 0.25948-0.75242 0.48784-0.76232 0.38891-0.83873 0.39481-1.2898 0.09922-0.68403-0.44818-2.662-2.2643-2.894-2.654-0.10713-0.18013-0.66715-0.8732-1.2402-1.5462-0.57309-0.67297-1.1348-1.429-1.2485-1.6785-0.11365-0.24943-0.3233-0.45477-0.46302-0.45477-0.13973 0-0.33827-0.16985-0.44648-0.37206-0.30176-0.56385-1.5725-0.64709-2.0009-0.13229-0.66215 0.79558-1.5569 2.9596-1.7942 4.3244-0.65294 3.7547 0.63757 9.3792 2.6376 11.485l0.57049 0.59531-0.63664 0.5705c-0.55692 0.50141-0.7461 0.56134-1.4635 0.46302-0.45143-0.06187-0.99581-0.26348-1.2072-0.45477-0.21136-0.19127-0.47879-0.29528-0.59531-0.22324-0.11652 0.07203-0.19722 0.06349-0.1819-0.02479 0.06947-0.39989-0.06374-0.65064-0.76893-1.4221-0.7647-0.83656-0.92826-0.83354-1.1162 0.04134-0.68675 3.197-0.8142 5.0525-0.45477 6.8048 0.11704 0.5706 0.24987 1.214 0.2894 1.4304 0.2033 1.1135 2.5364 3.5719 2.9602 3.1171 0.07817-0.0839 0.03213-0.19832-0.10749-0.24805-0.35631-0.1269-1.1841-1.0262-1.5131-1.6454-0.61312-1.1538-1.4315-4.776-1.1741-5.1924 0.061492-0.09949 0.12553-0.96068 0.14056-1.91 0.015002-0.94927 0.056729-1.7855 0.099219-1.8603s0.44614 0.25938 0.89297 0.74414c1.0602 1.1502 1.7147 1.4733 3.084 1.5048 1.1494 0.02643 1.508-0.17716 2.2324-1.2816 0.10713-0.16334 0.41394-0.59052 0.68628-0.95086 0.27231-0.36031 0.79084-1.3132 1.1576-2.1167 1.3723-3.0067 3.4692-5.316 5.9862-6.5982 1.1275-0.57428 1.3368-0.53152 1.9348 0.37206 0.33957 0.51311 0.58682 0.71956 0.71107 0.59531 0.35052-0.35052-1.0545-2.0092-2.2407-2.6458-1.4443-0.77515-2.0659-1.2803-2.1415-1.7529-0.05134-0.32123 0.30361-0.56721 2.0092-1.3973 1.7392-0.84648 2.4419-1.0719 4.4069-1.4056 3.0223-0.51332 3.9169-0.30628 5.9531 1.3891 1.0212 0.85021 1.4779 0.85183 0.678 0-0.41926-0.44648-0.46786-0.61783-0.30591-1.0253 0.10807-0.27189 0.14597-1.325 0.09095-2.3895-0.0973-1.8825-0.09252-1.9114 0.32248-1.7859 2.0271 0.61264 3.8283 3.2819 3.8283 5.6721 0 0.46127 0.05379 0.84336 0.11576 0.84336s0.44212-0.351 0.85164-0.77721c0.74851-0.77904 1.5627-2.6921 1.5627-3.6711 0-0.74494 0.43101-0.23937 1.1824 1.3808 0.65863 1.4202 0.81092 2.4655 0.50435 3.4727-0.14408 0.47334-0.1138 0.50469 0.53742 0.52917 0.89625 0.0337 1.5726 0.38994 2.6789 1.4221l0.90122 0.83508-0.34726 0.79375c-0.18984 0.43304-0.48855 1.116-0.66146 1.5214-0.60132 1.4098-0.27437 3.9555 0.7855 6.1434 0.53388 1.102 2.4664 3.1459 2.9766 3.1501 0.16855 0.0013 0.87463 0.18469 1.571 0.40513 1.334 0.42233 2.5184 0.40886 4.8699-0.04961 1.7395-0.33914 4.4963-1.9647 6.0275-3.5555 0.36917-0.38351 0.73075-0.69453 0.802-0.69453 0.24679 0 0.33345 3.4576 0.10749 4.3159-0.12249 0.4653-0.63638 1.6946-1.141 2.7284-1.0238 2.0978-1.9767 3.1078-3.7703 3.9852-1.0072 0.49278-1.3216 0.90667-0.81029 1.0914 0.22105 0.0799 2.1306-0.33673 3.2163-0.70278 0.24961-0.0842 0.4382-0.0718 0.4382 0.0331 0 0.42463-0.61854 1.6227-0.89297 1.728-0.16346 0.0627-0.25417 0.2351-0.19844 0.38034 0.05573 0.14523-0.06785 0.35716-0.28112 0.47127-0.21327 0.11412-0.33835 0.29091-0.27284 0.39688 0.12958 0.20966-1.081 1.4027-2.3978 2.3647-0.75888 0.55444-1.1534 1.2908-0.57878 1.0749 0.13391-0.0503 0.45979-0.15511 0.7276-0.23151 0.45064-0.12856 0.44156-0.10844-0.09922 0.26458-0.32139 0.2217-0.65323 0.40434-0.73586 0.40513-0.30718 3e-3 -1.7376 1.0663-2.8194 2.0918-1.3373 1.2677-3.5557 2.7781-4.0762 2.7781-0.20558 0-1.6357 0.57626-3.1832 1.2816-2.9017 1.3225-4.4273 1.9492-6.6146 2.712-1.0071 0.3512-4.5119 1.9516-6.6807 3.0509-0.38976 0.19756-2.6109 0.16036-3.0591-0.0496-0.1607-0.0752-0.5094-0.22765-0.77721-0.34727-0.26781-0.11964-0.981-0.63955-1.5875-1.1493-1.2862-1.081-2.5528-1.7942-3.175-1.7942-0.61375 0-1.6702-0.39301-1.6702-0.62013 0-0.10387 0.18589-0.13008 0.41341-0.0579 0.2275 0.0722 0.51599 0.15062 0.63664 0.17364 0.12067 0.023 0.74628 0.15397 1.3891 0.2894 0.64278 0.13541 1.363 0.28429 1.604 0.33073 0.24104 0.0464 0.4382 0.20935 0.4382 0.35554 0 0.36023 1.3644 1.5613 2.3234 2.0505 1.22 0.62238 1.8545 0.52864 4.0349-0.62013 0.77274-0.40711 2.0116-3.6571 2.249-5.8952 0.07208-0.67974 0.67694-0.90715 1.0501-0.39687 0.15955 0.2182 0.28287 0.25181 0.37206 0.10748 0.55666-0.90069-2.7305-1.4999-3.4478-0.62838-0.21617 0.2626-0.16134 0.28501 0.47956 0.1819 0.40174-0.0646 0.7276-0.0511 0.7276 0.0248 0 0.36597-2.3484 2.6118-3.2081 3.0676-0.53565 0.28398-1.2413 0.65834-1.5627 0.82682-0.34941 0.18317-1.264 0.34005-2.2738 0.38862-1.7787 0.0856-3.1803-0.2037-4.7376-0.95911-0.42852-0.20785-0.86614-0.37232-0.97565-0.37206-0.33205 8e-4 -1.6536-1.1743-1.6536-1.4717 0-0.29242-0.23388-0.36971-0.45477-0.14883-0.1512 0.1512 0.36166 1.0159 0.81029 1.3725 0.25658 0.20396 0.15763 0.24805-0.58706 0.24805-0.93398 0-2.4625-0.56668-2.8773-1.0666-0.1344-0.16193-0.35436-0.29765-0.47956-0.29765-0.36528 0-1.2816-2.0099-1.2816-2.8112 0-1.2681 0.81992-2.4497 1.9926-2.8856 0.25039-0.0931 0.31904-0.0266 0.30591 0.29766-0.06126 1.5146 0.05489 1.9278 0.678 2.5053 1.1638 1.0786 1.1122 1.0774 2.8112-0.0579 1.2968-0.86659 1.426-1.0611 1.1906-1.7363-0.11341-0.3253-0.15112-0.64262-0.09095-0.70279 0.06017-0.0602 0.551 8e-4 1.0997 0.1323 0.75364 0.18079 1.2125 0.45889 1.8686 1.1245 0.47773 0.48458 0.92628 0.82658 0.99219 0.76067 0.06591-0.0659 0.0032-0.25839-0.13229-0.42169-0.21646-0.26082-0.08966-0.29766 1.0253-0.29766 0.94414 0 1.298 0.0737 1.3808 0.2894 0.08634 0.225 0.22593 0.25422 0.61185 0.10749 1.0558-0.40142 4.4778-0.81666 5.9283-0.71935 3.3142 0.22238 3.7116 0.22281 3.7206 0.0331 0.0052-0.10713-0.21667-0.22242-0.48784-0.25632-0.49919-0.0624-0.64-0.38939-0.31419-0.7276 0.45969-0.47721 1.7742-5.0282 1.9761-6.8379 0.22458-2.013 0.10177-3.9605-0.24805-3.9605-0.1285 0-0.16371 0.27122-0.09095 0.7276 0.21398 1.3422-0.2156 5.1025-0.75242 6.5733-0.27371 0.74991-0.62878 1.8043-0.79375 2.3399-0.49927 1.621-0.5329 1.6355-3.729 1.5131-2.6596-0.10184-2.7794-0.12686-2.6622-0.49609 0.07695-0.24239 0.14199-0.57299 0.19017-0.95912 0.0011-8e-3 -0.0011-0.017 0-0.0248 0.20531-1.6746 0.14926-4.3288-0.1819-4.9691-0.879-1.6998-2.6102-1.8497-4.1836-0.3638l-0.66146 0.62013 0.13229-2.7945c0.2082-4.4209 1.5092-9.7443 2.2655-9.2768 0.08661 0.05353 0.3761-0.38021 0.64492-0.96737s0.90223-1.4704 1.4056-1.9596c0.50337-0.48919 0.85519-0.94729 0.7855-1.017-0.19843-0.19844-1.729 1.4096-2.3647 2.4805-0.31589 0.5321-0.67569 0.97353-0.79375 0.97565-0.2234 4e-3 -1.2521 2.1223-1.604 3.3073-0.68868 2.319-1.0356 5.9685-1.0335 10.914 0.0016 3.7005 0.03356 4.2164 0.2894 4.6302 0.24501 0.39645-0.73472 0.28133-1.2816-0.14883-0.26808-0.21087-0.88336-0.48929-1.3725-0.62013-0.78745-0.21062-0.87011-0.27551-0.69453-0.60357 0.37354-0.69797 0.91218-2.5804 1.1245-3.9439 0.31578-2.0281 0.36132-4.6186 0.08268-4.7128-0.1431-0.0484-0.28086 0.25716-0.3638 0.81028-0.13089 0.87286-0.15017 0.88472-0.86815 0.88472-1.7005 0-3.1213 2.6262-3.0509 5.6388 0.03097 1.3261-0.13149 1.4454-0.97565 0.71935-0.58351-0.50192-0.5914-0.55105-0.71935-4.5477-0.09134-2.8533 0.42513-6.1873 1.3147-8.5328 0.16251-0.42852 0.29792-0.95157 0.29766-1.1658-0.0013-0.63905-1.0694 1.6567-1.3147 2.8279-0.12339 0.5892-0.32089 1.5066-0.4382 2.0423-0.43106 1.9678-0.58399 3.7465-0.47128 5.457 0.06352 0.96414 0.15605 1.8929 0.20671 2.0671 0.06006 0.20653-0.05249 0.35719-0.33073 0.42995-0.4109 0.10745-0.39759 0.14082 0.2894 0.90122 0.39235 0.43429 0.71107 0.86376 0.71107 0.95911 0 0.26782-0.6264 0.44847-0.83508 0.23978-0.25518-0.25518-0.67508-0.0722-1.6619 0.72761-1.0053 0.81478-1.3973 1.5136-1.3973 2.4805v0.71935l-0.40513-0.51263c-0.22203-0.28226-0.56732-0.51264-0.76068-0.51264s-0.4627-0.14446-0.60357-0.31419-0.63767-0.56941-1.1079-0.89297c-0.70943-0.4881-0.83987-0.66865-0.74414-1.0501 0.08143-0.32444-0.07545-0.76174-0.53742-1.4883-0.36002-0.5662-0.70519-1.2535-0.76893-1.5214-0.063751-0.26781-0.25629-0.95647-0.42169-1.5379-0.16539-0.58142-0.26572-1.0903-0.22324-1.1327 0.042476-0.0425 0.35803 0.0575 0.69453 0.23152 0.3937 0.20358 0.96189 0.30226 1.604 0.26458 1.3639-0.08 1.3877-0.44072 0.03307-0.4961-1.1197-0.0458-2.2657-0.56467-2.4805-1.1245-0.060833-0.15853-0.25102-0.28941-0.42169-0.28941-0.24843 0-0.28726 0.14281-0.19844 0.72761 0.22815 1.5021 0.54581 2.8948 0.83508 3.6216 0.24477 0.61481 0.25227 0.77914 0.041341 0.9095-0.19851 0.12269-0.12507 0.32242 0.31419 0.86815 1.23 1.5282 2.5421 2.8776 3.0758 3.1586 0.48501 0.25535 2.2655 1.9181 2.2655 2.1167 0 0.21435 1.0739 1.6089 1.5214 1.9761 0.28766 0.23604 1.0041 0.58198 1.5875 0.76894l1.0583 0.33898-0.9343 0.23978c-2.083 0.53139-4.0442 3.1983-4.5805 6.2177l-0.26458 1.4552-0.76893 0.2067c-0.42632 0.1148-1.1067 0.14994-1.5048 0.0827-0.54023-0.0913-0.78788-0.0378-0.98393 0.19844-0.14447 0.17407-0.51446 0.45032-0.82682 0.61185s-0.51067 0.34925-0.4382 0.42169c0.13197 0.13198 0.23283 0.16136 0.77721 0.20671 0.49228 0.041 0.33779 0.30972-0.82682 1.4387-1.2164 1.1792-3.2689 2.6824-4.2995 3.1501-0.74644 0.33882-1.284 0.93633-1.604 1.7694-0.12346 0.32139-0.47143 1.1101-0.77721 1.7529-0.30575 0.64276-0.61336 1.5083-0.68628 1.9265l-0.13229 0.76068 0.70279-0.11576c0.518-0.0841 1.2109-0.55536 2.6045-1.7611 1.0457-0.90485 2.6074-2.2514 3.4645-2.993 0.85704-0.7417 2.2017-1.8128 2.993-2.3812 1.2761-0.91654 1.4309-0.97837 1.3395-0.57049-0.05674 0.25299-0.25558 1.142-0.4382 1.9844-0.51602 2.38-0.14103 3.7005 1.1989 4.2415 0.83624 0.33766 2.9575 0.22413 3.6629-0.19844 0.32681-0.19582 0.98967-0.50514 1.4717-0.68627 0.94824-0.35621 1.8749-1.0273 1.6867-1.2154-0.06416-0.0642-1.0554 0.30427-2.2076 0.81857-2.3447 1.0465-3.8537 1.2426-4.7543 0.61185-0.25641-0.1796-0.39434-0.33073-0.31419-0.33073 0.08014 0 0.01135-0.25249-0.14883-0.56224-0.25585-0.49474-0.25893-0.77433-0.01654-2.2903 0.25735-1.6095 0.32605-1.768 1.017-2.373l0.74414-0.64492 0.05788 0.98393c0.06447 1.0834 0.26855 1.2232 0.82682 0.55399l0.3638-0.43821 0.0083 0.72761c0.0036 0.40171 0.10064 0.73586 0.21497 0.73586s0.55182-0.28851 0.96737-0.63664c0.445-0.37283 0.97047-0.62839 1.2816-0.62839 0.29051 0 0.56631-0.11414 0.61185-0.24805 0.04553-0.1339-0.05428-0.23977-0.21497-0.23977-0.1607 0-0.33015-0.11415-0.38034-0.24805-0.06822-0.18198-0.15684-0.16055-0.35555 0.0661-0.1462 0.16682-0.60844 0.54616-1.0253 0.85164l-0.76068 0.56224 0.13229-0.67799c0.16521-0.88067-0.0086-1.025-0.63664-0.52917l-0.51263 0.40513-0.05788-0.90122c-0.06553-0.98862-0.13039-1.0376-0.7855-0.57878-0.2762 0.19344-0.52557 0.24337-0.63664 0.13229-0.11108-0.11107 0.40013-0.54977 1.3229-1.141 0.82563-0.52901 1.7324-1.1598 2.0174-1.3973 0.53829-0.44863 3.1141-1.8729 3.1999-1.7694 0.02685 0.0324 0.15945 0.26313 0.2894 0.51263s0.48935 0.5442 0.802 0.6532l0.57049 0.19844-0.4382 0.55399c-0.55483 0.69958-2.2738 1.4221-3.3816 1.4221-0.46874 0-0.85164 0.0638-0.85164 0.14056 0 0.3936 2.3139 0.52213 2.6871 0.14883 0.15095-0.15095 0.29972-0.17158 0.42169-0.0496 0.12197 0.12197-0.18841 0.66627-0.87643 1.5296-1.1057 1.3876-1.3772 2.0521-0.69453 1.6867 0.32237-0.17254 0.73316-0.72485 1.5048-2.0092 0.38976-0.64871 1.1091-1.3187 1.4221-1.3229 0.1688-2e-3 0.67744-0.17367 1.1327-0.38034l0.82682-0.37206v0.58706c0 0.41206-0.28646 0.93615-0.96737 1.7777-0.53234 0.65792-0.93123 1.2351-0.88471 1.2816s-0.1328 0.45064-0.39688 0.90123c-0.26407 0.45058-0.47956 0.99642-0.47956 1.2072 0 0.70871-1.1742 5.8102-1.4965 6.4987-0.1755 0.37494-0.313 0.80672-0.30591 0.96737 0.0071 0.16071-0.07845 0.64635-0.19017 1.0749-0.3293 1.2631-0.19909 4.5694 0.23151 5.8208 0.20534 0.59682 0.31358 1.1165 0.23978 1.1576-0.38759 0.21547-0.80341 0.25587-1.5926 0.39687-1.4516-0.42656-2.6099 0.0745-3.0292 0.56224-0.25334 0.29462-0.63595 0.53742-0.85164 0.53742-0.21567 0-0.69379 0.268-1.0666 0.59532-1.3431 1.1792-1.781 4.4421-0.9095 6.7551 0.25163 0.66784 0.57237 1.3084 0.71935 1.4304s0.27284 0.33734 0.27284 0.47956c0 0.92842 5.3459 6.6797 7.2512 7.797 0.96639 0.56664 2.9472 1.2815 3.5555 1.2815 1.271 3e-3 3.0924-0.91371 4.2497-2.1332 0.62212-0.65543 1.4942-2.8485 1.5048-3.7952 0.0042-0.37192 0.19773-0.86722 0.48784-1.2154 0.5421-0.65072 0.41288-0.71128 1.4056 0.67799 1.0407 1.4564 2.5526 2.7368 3.2329 2.7368 0.14838-3e-5 0.48829 0.17434 0.76068 0.38859 0.80021 0.62945 2.6441 0.53732 4.2169-0.20671 1.1101-0.52515 1.2754-0.55801 1.4304-0.2811 0.2884 0.5153 1.3422 1.6536 1.5296 1.6536 0.35825-3e-5 0.15201-0.52491-0.41341-1.0666-1.049-1.005-0.75885-1.482 2.0009-3.2991 0.61598-0.40563 1.1162-0.81282 1.1162-0.90953 0-0.26265-0.0748-0.23826-1.356 0.51266-1.4017 0.82148-1.8773 0.71533-0.97565-0.215 0.36798-0.37965 0.66008-0.89808 0.70279-1.265 0.07897-0.67823 0.14611-0.66519-1.4883-0.27284-0.48641 0.11671-0.48236 0.11547-0.08268-0.23979 0.22007-0.1956 0.61442-0.49392 0.87643-0.66974 0.26201-0.17573 0.41431-0.38491 0.33898-0.46302-0.15791-0.16375-1.7785 0.97719-2.497 1.7612l-0.48784 0.52916 0.48784-0.1075c0.26781-0.0595 0.70133-0.16893 0.95911-0.24802 0.33285-0.10213 0.42968-0.0774 0.33073 0.0827-0.19457 0.31483 0.11857 0.27575 0.5705-0.0661 0.55436-0.41925 0.84503-0.34634 0.33073 0.0827-0.24104 0.20106-0.4382 0.45752-0.4382 0.5705 0 0.11295-0.17535 0.3031-0.39688 0.42169-0.28824 0.1542-0.38841 0.36846-0.34726 0.76068 0.04735 0.45135-0.10024 0.66966-0.81857 1.2154-0.47964 0.36444-1.1795 0.77812-1.5544 0.92605-0.37494 0.1479-0.76838 0.34088-0.87643 0.42166-0.30467 0.22794-2.663-0.0243-3.1007-0.33073-0.21486-0.15049-0.53906-0.27284-0.71935-0.27284-0.48599 0-1.9756-1.3094-2.3482-2.067-0.17847-0.36296-0.54999-0.92779-0.82682-1.2568-0.57118-0.67879-0.6391-1.1874-0.20671-1.5462 0.16311-0.13541 0.24762-0.39775 0.19017-0.5788-0.14247-0.44887 1.8549-3.1253 2.3316-3.1253 0.0641 0 0.44392 0.21467 0.84336 0.47128s1.0535 0.56787 1.4552 0.69453c0.40174 0.12663 0.7276 0.30662 0.7276 0.39687 0 0.25276 2.1604 2.7284 2.3812 2.7284 0.1073 0-0.03366-0.30189-0.31419-0.66974-0.28054-0.36778-0.50435-0.77687-0.50435-0.90948 0-0.13267-0.15284-0.40701-0.33073-0.6036-0.44357-0.49014-0.29697-0.55964 0.86815-0.42166 0.88731 0.10506 0.98295 0.16406 0.81857 0.47127-0.23084 0.43143 0.04526 0.55637 0.92604 0.42169 0.49498-0.0757 0.63664-0.0251 0.63664 0.22323 0 0.17471-0.09131 0.3142-0.19844 0.3142s-0.19017 0.0913-0.19017 0.19843c0 0.30475 0.24357 0.21675 0.87643-0.30591 0.48832-0.40335 0.53356-0.5117 0.2894-0.66974-0.16069-0.104-0.6381-0.19367-1.0666-0.19843-1.0975-0.0124-0.47572-0.35111 1.1162-0.6036 0.72853-0.11549 1.3378-0.33091 1.5131-0.53742 0.1607-0.18931 0.6486-0.49498 1.0914-0.68628 0.76028-0.32842 0.83664-0.32983 1.3147-0.0164 0.27842 0.1824 0.70374 0.65114 0.94258 1.0418 0.23882 0.39066 1.6843 1.9656 3.2163 3.5057s2.8382 3.011 2.9022 3.266c0.21515 0.85722-0.09574 1.783-0.76068 2.2572-0.87701 0.62547-2.98 0.61873-3.8283-8e-3 -0.67458-0.49877-0.79375-0.51994-0.79375-0.15711 0 0.32554 1.7203 1.0997 2.4474 1.0997 0.45784 0 0.49101 0.0331 0.26458 0.30593-0.20337 0.24517-0.53639 0.29821-1.571 0.23977-1.1112-0.0628-1.4104-0.15664-1.8769-0.60357-0.61807-0.59219-0.81857-0.65294-0.81857-0.25633 0 0.34457 1.1502 1.2295 1.819 1.3973 0.28247 0.071 0.52091 0.19704 0.52091 0.28115 0 0.35314-0.72983 0.3788-1.7446 0.0661-1.009-0.31094-3.1475-1.5714-3.4232-2.0174-0.22026-0.35639-0.48747-0.20574-0.42169 0.23977 0.06524 0.44177 1.8937 1.6119 3.4396 2.1994 0.96166 0.36544 1.555 0.34158 2.3399-0.0909 0.37494-0.20664 1.0578-0.57549 1.5131-0.81857 0.4553-0.24307 0.82682-0.50953 0.82682-0.59531 0-0.0858 0.09725-0.15711 0.21497-0.15711 0.64765 0 1.5098-0.67059 1.9182-1.4883 0.63365-1.2687 0.47165-2.1741-0.56224-3.2081-0.43834-0.43831-0.79375-0.88805-0.79375-0.99219 0-0.24408-0.80605-0.91755-1.1079-0.92604-0.12739-3e-3 -0.65042-0.57698-1.1658-1.2733-0.51538-0.69633-1.0351-1.2651-1.1493-1.2651s-0.41627-0.37152-0.66971-0.82682c-0.74115-1.3314-1.2185-1.9017-1.5958-1.9017-0.53435 0-0.43349-0.18451 0.77721-1.4965 0.69051-0.7483 1.4501-1.3538 2.0009-1.5875 1.4472-0.61402 4.8742-1.7362 6.0275-1.9761 1.4558-0.30284 4.2638-0.26657 6.0357 0.0827 3.8888 0.7665 4.9263 0.91694 5.6555 0.79375 0.42537-0.0719 0.82426-0.21637 0.88471-0.31419 0.06045-0.0978 0.32128-0.17363 0.58706-0.17363 0.93345 0 3.7552-1.7517 5.1345-3.1914 0.36917-0.38536 0.77613-0.70278 0.90122-0.70278s0.46879-0.35232 0.76893-0.7855c0.30017-0.43312 0.66958-0.85921 0.81857-0.94258 0.29901-0.16732 0.81341-1.4558 0.82682-2.0753 0.0047-0.21719 0.15979-0.61155 0.34727-0.87643 0.49048-0.69299 0.47665-4.6188-0.01654-4.8948-0.17997-0.1007-0.32142-0.33877-0.32247-0.52091-0.0026-0.44784-0.87913-2.2899-1.1741-2.4722-0.13012-0.0804-0.29689-0.0472-0.37206 0.0744-0.0882 0.14272-0.46138-0.0891-1.0501-0.6532-0.50173-0.48073-1.152-0.928-1.447-0.99219-0.29493-0.0642-1.0148-0.3184-1.604-0.5705-0.5892-0.25212-1.4929-0.55943-2.0009-0.68627-1.0261-0.2562-4.5492-0.18783-5.0107 0.0992-0.15915 0.099-0.55351 0.16004-0.87643 0.13229-0.32292-0.0277-0.90442 0.0786-1.2898 0.23978-0.64548 0.26984-0.76287 0.26394-1.4635-0.0827-0.65013-0.32165-0.86307-0.3407-1.4883-0.14882-0.72112 0.22132-0.74366 0.20837-1.4387-0.60357-0.38772-0.45297-0.81388-0.78018-0.95086-0.72761-0.13696 0.0525-0.40042-0.0749-0.58706-0.28112-0.28898-0.31929-0.32118-0.60631-0.21497-1.9761 0.06859-0.8846 0.21655-1.9154 0.33073-2.2903 0.3456-1.1348 0.62502-3.161 0.58706-4.2251-0.05614-1.5734-0.64426-3.4287-1.1741-3.696-0.24636-0.12422-0.50668-0.32157-0.57878-0.4382-0.24009-0.38846-2.1443-0.68231-4.1812-0.57084-1.737 0.095-2.2282 0.0976-2.1275-0.16503 0.06338-0.16517 0.0141-0.36623-0.11576-0.44648-0.14914-0.0922 0.17734-0.34417 0.89297-0.68628 1.5942-0.76205 2.957-1.6189 3.8695-2.4391 0.43034-0.38685 1.0593-0.87027 1.4056-1.0749 0.34634-0.20459 0.63532-0.45969 0.63664-0.57049 0.0013-0.11081 0.50149-0.55248 1.1162-0.97565 1.6003-1.1017 2.9681-2.2989 2.9684-2.6045 6.9e-5 -0.19303-0.18543-0.15982-0.69453 0.14056-0.38108 0.22484-0.72091 0.41341-0.76068 0.41341-0.06657 0 0.80976-0.8591 2.3812-2.3316 0.34719-0.32533 0.74655-0.58706 0.88471-0.58706 0.13814 0 0.98092-0.31665 1.8769-0.69453s1.9453-0.76819 2.3316-0.86815c0.38632-0.1 1.8252-0.57356 3.1999-1.0583 1.3746-0.48477 2.7776-0.91805 3.1171-0.95912 0.33943-0.0411 0.96882-0.20591 1.3973-0.37205 0.42852-0.16616 2.4459-0.8509 4.4815-1.5131 2.0354-0.6622 3.7865-1.2681 3.8944-1.356 0.5057-0.41159 1.786-0.70628 2.249-0.51263 0.26047 0.10896 0.49363 0.20809 0.51263 0.21497 0.019 0.0069-0.13602 0.49509-0.33898 1.0832-0.39087 1.1324-0.54203 4.9355-0.20671 5.143 0.09269 0.0573 0.21958 0.41453 0.28112 0.79375 0.1419 0.87442 1.5005 3.5576 2.4639 4.8617 1.2125 1.6413 3.3483 3.1732 5.0271 3.605 0.5061 0.13021 1.111 0.32525 1.3477 0.4382 0.52692 0.25149 5.2155 0.0845 5.5645-0.19843 0.13162-0.10674 0.76282-0.29935 1.4056-0.42995s1.6654-0.48522 2.2738-0.7855c1.2706-0.62717 3.2824-2.083 3.2824-2.3812 0-0.11093 0.22971-0.50551 0.51263-0.87643 0.68713-0.90085 1.2054-2.3055 1.4304-3.8944 0.10168-0.71795 0.26156-1.3329 0.35555-1.3642 0.25517-0.085-0.42201-1.9294-1.3477-3.6711-0.94065-1.7698-1.2863-2.2159-1.695-2.2159-0.23565 0-0.21659 0.07822 0.0827 0.42169 0.24597 0.28228 0.0593 0.20177-0.55398-0.23151-0.50885-0.35949-0.92604-0.75345-0.92604-0.87643 0-0.32676-2.0615-0.92255-3.4147-0.99219-0.64278-0.03308-1.6515 0.01683-2.2407 0.11576-1.9187 0.32213-4.7612 0.41862-5.6637 0.19017-0.4731-0.11975-1.1534-0.27501-1.5131-0.34727l-0.6532-0.13229 0.41341-0.37206c0.22574-0.20408 0.40513-0.46916 0.40513-0.58706 0-0.22047 0.35121-0.35965 3.0263-1.2154 0.85704-0.27419 1.6457-0.57587 1.7611-0.66971 0.11541-0.09386 0.85847-0.26047 1.6454-0.37206 0.7869-0.1116 1.5429-0.29263 1.6785-0.40513 0.13557-0.11251 0.80296-0.19021 1.4883-0.16536 0.68532 0.02484 1.3434-0.0085 1.4635-0.08268 0.33078-0.20444 0.0721-0.65529-0.62013-1.0832-0.50467-0.31189-0.82714-0.36669-1.7363-0.27284-0.61518 0.0635-1.1669 0.1893-1.2237 0.28112-0.05674 0.09182-0.27612 0.17363-0.48784 0.17363-0.33883 0-0.35528-0.05245-0.14883-0.4382 0.129-0.24104 0.20991-0.4382 0.1819-0.4382s0.06027-0.23581 0.19017-0.52091c0.16301-0.35777 0.43587-0.56073 0.88471-0.64492 0.69697-0.13075 1.3217-0.82534 1.5462-1.7198 0.12537-0.49951 0.10625-0.52065-0.47128-0.40513-1.1662 0.23324-1.7012-0.94028-0.60357-1.3229 0.32139-0.11204 0.58706-0.32295 0.58706-0.47128s-0.37978-0.65492-0.83508-1.1245c-0.72842-0.75126-0.98515-0.88281-2.158-1.0997-1.1904-0.22009-1.4407-0.20395-2.3812 0.11576-1.1599 0.39426-1.4126 0.8599-0.46302 0.8599 0.66069 0 1.479 0.73472 1.6702 1.4965 0.1428 0.56893-0.03294 1.5446-0.41341 2.2738-0.16011 0.30684-0.2894 0.71527-0.2894 0.9095 0 0.47075 0.90548 1.1749 1.3229 1.0253 0.55864-0.20019-0.55851 0.90435-1.4387 1.4221-0.73755 0.43389-1.6875 0.70564-3.3898 0.97565-0.37494 0.05947-0.92728 0.22796-1.2237 0.37206-0.29641 0.1441-0.49165 0.1825-0.42995 0.08268 0.06169-0.09982-0.04889-0.1819-0.24805-0.1819-0.19915 0-0.4568-0.093-0.57049-0.20671s-0.5202-0.22786-0.9095-0.24805c-0.78155-0.04055-0.86386-0.14986-0.39688-0.53742 0.41841-0.34724 0.65228-1.0027 0.76068-2.1415 0.07466-0.7842 0.01638-1.0161-0.33073-1.3395l-0.41341-0.38862-0.74414 0.66971c-0.67456 0.60942-2.2859 1.2733-3.1007 1.2733-0.34446 0-1.943 1.5975-1.943 1.943 0 0.37936-0.55726 0.19668-0.95911-0.31419-0.43706-0.55562-0.58372-2.4707-0.20671-2.7038 0.37073-0.22913-0.03771-0.51668-0.55398-0.38862-0.73761 0.18299-1.3001 0.76536-2.1746 2.282-1.2079 2.0951-1.3356 2.8953-0.75242 4.7789 0.10778 0.34816 0.28602 0.62839 0.38862 0.62839 0.10259 0 0.41532 0.15605 0.69453 0.33898l0.50435 0.33073-1.3395 0.35555c-0.73827 0.19637-1.7791 0.43815-2.3068 0.53742-0.95353 0.17939-3.5973 0.96205-5.0602 1.4965-0.67942 0.24827-0.78301 0.24555-0.9343-0.02479-0.24077-0.43021-0.66276-0.38232-1.3808 0.16536-0.65193 0.49726-1.4736 0.8685-2.2572 1.017-0.25669 0.0486-1.1369 0.43632-1.9596 0.85989s-1.6063 0.76893-1.7363 0.76893c-0.13007 0-0.60354 0.18562-1.0501 0.41342-0.50371 0.25697-0.83333 0.33604-0.87643 0.2067-0.03822-0.11463-0.20176-0.15822-0.35555-0.0992-0.4981 0.19115-0.29811-0.0442 0.62013-0.7276 1.0994-0.81825 2.2553-2.4697 3.0263-4.3325 0.55348-1.3374 0.58063-1.5225 0.57878-4.2995-0.0011-1.5964-0.08513-2.9874-0.1819-3.084-0.10474-0.10474-0.38105 0.25263-0.68628 0.87643-0.31205 0.63783-0.72258 1.1495-1.0501 1.3147-0.29594 0.14926-0.88614 0.50472-1.3147 0.7855-0.42852 0.28078-1.1326 0.74306-1.5627 1.0253-0.68906 0.45212-2.7988 1.2981-3.2329 1.2981-0.08754 0 0.23181-0.38891 0.71107-0.86815 0.47927-0.47927 0.86815-0.96494 0.86815-1.0749 0-0.10994 0.11649-0.19844 0.25632-0.19844s0.62151-0.66114 1.0749-1.4717c0.78687-1.4069 1.5068-3.6441 2.0092-6.2259 0.28001-1.4391 0.22857-5.584-0.07441-5.7711-0.1181-0.07299-0.35258-0.50567-0.52091-0.95911-0.25245-0.68008-0.44804-0.87199-1.0832-1.0914-0.66495-0.22974-0.85098-0.22227-1.3891 0.03307-0.34264 0.1626-0.70908 0.29766-0.81857 0.29766-0.10948 0-0.47681 0.27009-0.81029 0.60357-0.98541 0.98541-3.0763 2.3055-5.366 3.3898-2.9371 1.391-2.9509 1.394-3.4232 0.79375-0.2158-0.27435-0.67493-0.63061-1.017-0.79375-0.34208-0.16314-0.87633-0.5007-1.1906-0.75242l-0.57049-0.46302 0.33073-0.70279c0.3805-0.80182 0.72358-3.2144 0.47956-3.3652-0.28694-0.17734-0.46268 0.07215-0.51263 0.7276-0.02688 0.3528-0.25478 1.0814-0.50435 1.6206l-0.44654 0.98365-0.13229-0.97565c-0.2255-1.6841-1.6319-3.9936-2.4309-3.9936-0.10014 0-0.32306 0.63614-0.49609 1.4139-0.17302 0.77772-0.49866 1.7179-0.7276 2.0918l-0.42169 0.68628-0.33073-0.97565c-0.18371-0.53565-0.3007-1.0379-0.25632-1.1162 0.04438-0.07836-0.35346-0.72038-0.88471-1.4221-1.1405-1.5066-2.3272-2.2324-3.638-2.2324-0.11893 0-0.22255-0.0038-0.31419 0zm-19.43 3.4147c0.42487-0.05467 1.0117 0.51991 1.7446 1.7115 0.4726 0.76838 1.3187 1.966 1.8769 2.6622 0.98761 1.232 3.0416 3.1171 3.3983 3.1171 0.09751 0-0.43842 0.58026-1.1906 1.2898-1.4648 1.3818-2.3127 2.6218-3.7042 5.4076-0.48207 0.96509-0.97081 1.7812-1.0914 1.819-0.224 0.07021-1.2485-1.007-1.2485-1.3147 0-0.09344 0.30649-0.03948 0.678 0.11576 0.83172 0.3475 0.88471 0.3429 0.88471 0.0083 0-0.14769-0.25144-0.37563-0.56224-0.50435-0.31081-0.12874-0.7652-0.4436-1.0087-0.70279l-0.44648-0.47128h0.47128c1.1334-0.0064 1.7452-0.43373 0.97565-0.67799-0.29625-0.09403-0.99219-1.3279-0.99219-1.7611 0-0.05292 0.35481 0.13666 0.7855 0.42169 0.43069 0.28501 0.82457 0.47352 0.87643 0.42169 0.05185-0.05185-0.03654-0.36174-0.19844-0.68628s-0.32729-0.93173-0.37206-1.3477c-0.04478-0.41598-0.22695-1.4357-0.40513-2.2738-0.17819-0.83809-0.30083-1.9982-0.26458-2.5797s7e-3 -1.0585-0.06614-1.0583c-0.07313 1.46e-4 -0.18831-0.17435-0.25632-0.38862-0.17536-0.5525-0.39359-0.48712-0.99219 0.29766-0.64659 0.8477-0.43937 1.1675 0.23978 0.37206 0.27083-0.31721 0.44775-0.48747 0.39688-0.38034-0.1653 0.34811 0.25482 3.6597 0.66146 5.2337 0.21801 0.84384 0.3484 1.5781 0.29766 1.6288-0.05074 0.05074-0.28763-0.08916-0.52917-0.31419s-0.50837-0.41341-0.59531-0.41341c-0.28718 0-0.15849 1.2528 0.21497 2.0753l0.37206 0.81029-0.52091 0.09922c-0.284 0.0543-0.57094 0.06543-0.63664 0.02479-0.46382-0.28665-1.2151-5.8505-1.0335-7.6398 0.18512-1.8243 1.291-4.4514 2.0753-4.9361 0.05415-0.03347 0.10467-0.05834 0.16536-0.06615zm43.566 1.0914c0.3946-0.01117 0.71803 0.15577 1.0501 0.48784 0.43889 0.43889 0.62402 0.894 0.85164 2.0836 0.36499 1.9078 0.37055 3.5753 0.01654 4.8699-1.242 4.5426-1.5737 5.6356-1.8025 5.9283-0.22774 0.29146-0.23759 0.25637-0.06614-0.22324 0.14983-0.41915 0.13987-0.53171-0.04134-0.47128-0.13135 0.04378-0.43844 0.58872-0.67799 1.2072-0.5166 1.3337-1.2704 2.3852-2.034 2.8194-0.30424 0.17304-0.55346 0.42005-0.55398 0.55398-7.94e-4 0.16161-0.32327 0.24805-0.95912 0.24805-0.52689 0-1.0899 0.04662-1.2485 0.10749-0.15862 0.06087-0.34017 0.02244-0.40513-0.08268-0.06496-0.10511-0.49612-0.24691-0.95086-0.32247-1.0401-0.1728-1.8252-0.5755-2.0836-1.0583-0.11007-0.20567-0.39539-0.40397-0.63664-0.4382-1.0055-0.14279-2.6731-4.831-2.2903-6.441 0.29472-1.2393 0.9861-2.8109 1.4139-3.2081 0.23994-0.22269 1.31-0.82021 2.3812-1.3229 1.0713-0.50271 2.2265-1.048 2.5632-1.2154 0.33668-0.16744 1.4646-0.98764 2.5053-1.819 1.4511-1.1593 2.3106-1.6847 2.9684-1.7033zm-13.858 1.728c0.03894 0-0.03507 0.21174-0.1571 0.47956s-0.2962 0.48784-0.38862 0.48784c-0.0924 0-0.01839-0.22 0.1571-0.48784 0.17548-0.26781 0.34967-0.47956 0.38862-0.47956zm13.808 1.5048c-0.67733 0.04441-1.9735 0.97666-3.3237 2.5053-0.6137 0.69472-1.3725 1.4002-1.6867 1.5627-0.95091 0.49173-2.6781 1.9043-2.6789 2.1911-5.29e-4 0.20509 0.17063 0.23563 0.7276 0.13229 1.3404-0.24861 2.3812-0.35811 2.3812-0.24805 0 0.0599-0.45569 0.54769-1.017 1.0832-1.0806 1.0308-1.1685 1.3739-0.23151 0.92604 0.312-0.14912 1.0166-0.32147 1.5627-0.38862l0.99219-0.12402-1.265 1.2733c-0.69786 0.69786-1.2257 1.3127-1.1658 1.3725 0.05984 0.05984 0.43548-0.0232 0.83508-0.19017 1.1482-0.47974 1.3751-0.40153 0.79375 0.2894-0.27734 0.32962-0.50435 0.68699-0.50435 0.79375 0 0.39844 0.69654 0.04801 1.0749-0.5457 0.21569-0.33848 0.54012-0.65902 0.7276-0.71107 0.18748-0.05203 0.34727-0.20366 0.34727-0.33073 0-0.15829-0.34073-0.21108-1.0749-0.16536-0.58936 0.0367-1.075 0.01294-1.0749-0.05788 5.29e-4 -0.22445 1.0947-1.0571 1.7363-1.3229 1.0143-0.42011 0.6173-0.69988-0.92604-0.64492-0.76541 0.02726-1.3891-0.02874-1.3891-0.12402 0-0.32081 1.0089-0.83836 1.9182-0.98393 0.84786-0.13572 0.8709-0.1515 0.41341-0.33898-0.26781-0.10976-1.1358-0.22097-1.9348-0.23978-0.79896-0.01881-1.4752-0.05303-1.5048-0.08268-0.02965-0.02965 0.48961-0.45956 1.1576-0.95086 0.66794-0.4913 1.6824-1.3891 2.2572-1.9926 1.1179-1.1736 2.043-1.9141 2.6376-2.1249 0.3419-0.12124 0.36018-0.04398 0.26458 1.0914-0.05658 0.67188-0.13501 1.3068-0.17363 1.4139-0.03863 0.10713 0.01569 0.23582 0.11576 0.2894 0.28107 0.15046 0.95232-1.9581 0.70279-2.2076-0.11252-0.11253-0.20671-0.39346-0.20671-0.62838 0-0.37457-0.17994-0.54107-0.48784-0.52091zm37.497 2.4474c1.1389-0.03053 2.4789 0.51192 3.2742 1.3642l0.45477 0.48784-0.5457 0.26458c-0.70776 0.33769-0.8372 1.1389-0.27284 1.7033 0.22075 0.22075 0.57124 0.40513 0.7855 0.40513 0.51043 0 0.4925 0.25177-0.06615 0.90122-0.60888 0.70787-0.98176 0.52155-1.2816-0.63664-0.36274-1.4013-0.37158-1.4304-0.56224-1.4304-0.09686 0-0.22062 0.44029-0.27284 0.98393-0.05229 0.54425-0.27038 1.2164-0.47956 1.4965-0.4109 0.55033-0.60632 0.6554-0.98393 0.50435-0.34224-0.1369-0.30718-0.58899 0.1571-1.91 0.37981-1.0806 0.38208-1.189 0.09095-1.9513-0.16995-0.445-0.56422-1.0778-0.88471-1.4056l-0.58706-0.59531 0.70279-0.13229c0.15214-0.02854 0.30858-0.04525 0.47128-0.04961zm-61.061 3.7621c-0.09415 0.0021-0.27152 0.06124-0.52917 0.20671-0.88908 0.50197-3.4645 3.0591-3.4645 3.4396 0 0.17573 0.08304 0.32247 0.19017 0.32247s0.19844-0.09858 0.19844-0.21497c0-0.30596 2.301-2.6485 3.0591-3.1171 0.5683-0.35124 0.75282-0.64132 0.5457-0.63664zm0.74414 1.0501c-0.4023 0-2.7945 1.5277-2.7945 1.7859 0 0.10257 0.37153-0.03992 0.82682-0.31419 0.4553-0.27427 1.162-0.64606 1.5627-0.83508 0.77316-0.36483 0.94588-0.63664 0.40513-0.63664zm62.185 0.05788c0.02196 4e-3 0.04763 0.01654 0.07441 0.03307 0.10713 0.06621 0.19844 0.15946 0.19844 0.2067s-0.09131 0.09095-0.19844 0.09095-0.19017-0.09325-0.19017-0.20671c0-0.05673 0.02257-0.10019 0.05788-0.11576 0.01765-0.0078 0.03591-0.01228 0.05788-0.0083zm-10.062 0.23978c0.1055-0.014 0.17554 0.02376 0.23151 0.10749 0.25093 0.37528 0.04244 1.6121-0.42169 2.5218-0.39907 0.78224-1.6946 1.5462-2.621 1.5462-0.24108 0-0.5529 0.13696-0.68628 0.29766-0.29128 0.35097-0.77721 0.38791-0.77721 0.05788 0-0.12988-0.20758-0.41836-0.46302-0.63664-0.3982-0.34028-0.43857-0.48694-0.2894-1.017 0.20889-0.74218 1.108-1.3317 2.2324-1.4717 0.49398-0.06152 1.1831-0.37825 1.819-0.83508 0.52028-0.37378 0.79984-0.54716 0.97565-0.57049zm-7.4827 0.24805 0.09922 1.1327c0.14786 1.6487 0.73467 2.4755 2.1911 3.084 0.40026 0.16724 0.7276 0.3356 0.7276 0.37206 0 0.21006-1.0853 1.1805-1.2568 1.1245-0.11309-0.03694-0.37153-0.10109-0.5705-0.14056-0.19899-0.03947-0.65244-0.29049-1.0087-0.56224-0.73403-0.55988-0.86815-0.6005-0.86815-0.24805 0 0.27607 1.4951 1.3147 1.8934 1.3147 0.13925 0 0.24805 0.14989 0.24805 0.33898 0 0.23555-0.29914 0.45479-0.95086 0.68628-1.1801 0.41913-1.153 0.41876-1.9348-0.05788-0.71816-0.43786-1.2072-1.4077-1.2072-2.3895 0-0.8372 1.4263-3.7031 2.1084-4.2415zm-56.049 0.03307c-0.10923 0 0.0029 2.2146 0.16536 3.2742 0.17486 1.1402 0.46937 0.44603 0.46302-1.0914-0.0055-1.3354-0.25048-2.1828-0.62838-2.1828zm11.782 0.11576c-0.09064 0.0037-0.21802 0.0304-0.35555 0.08268-0.8617 0.32761-1.2613 0.5928-1.1576 0.76068 0.11834 0.19149 1.6619-0.53015 1.6619-0.77721 0-0.04665-0.05819-0.06986-0.14883-0.06615zm-12.915 0.27284c-0.1187 0-0.17217 0.11414-0.11576 0.24805 0.05642 0.13391 0.20481 0.61129 0.33073 1.0666 0.2686 0.97126 0.67678 1.1433 0.47128 0.19844-0.21635-0.99473-0.45201-1.5131-0.68628-1.5131zm-0.67799 0.19844c-0.21456 0-0.21268 0.09803 0.01654 0.53742 0.15368 0.29461 0.28059 0.68895 0.28112 0.87643 5.29e-4 0.18747 0.09131 0.33898 0.19844 0.33898 0.25307 0 0.24928-0.37851-0.01654-1.141-0.11761-0.33737-0.3357-0.61185-0.47956-0.61185zm75.298 0.20671c0.06963-0.0063 0.01193 0.17279-0.09922 0.49609-0.14033 0.4082-0.49387 0.94806-0.7855 1.1989-0.29162 0.25085-0.49572 0.49646-0.44648 0.5457 0.12977 0.12976 3.1102-0.30578 3.5057-0.51263 0.38-0.19875 1.3229 0.08313 1.3229 0.39688 0 0.11053-0.45128 0.19844-1.0087 0.19844-1.1805 0-3.4028 0.34084-3.9605 0.60357-0.21426 0.10095-1.3973 0.51832-2.6293 0.9343s-2.3922 0.82452-2.5797 0.90122c-0.2872 0.11752-0.33898 0.02662-0.33898-0.56224 0-0.60172 0.07624-0.71736 0.53742-0.82682 4.2021-0.99727 4.0547-0.93348 5.3909-2.3234 0.69776-0.72578 1.0019-1.042 1.0914-1.0501zm-61.823 0.21497c-0.0636 0.0016-0.11664 0.0131-0.16536 0.03307-0.16108 0.066-0.08718 0.15326 0.19844 0.23978 0.27189 0.08236 0.40918 0.24382 0.34727 0.40513-0.06824 0.17783 0.04097 0.26458 0.33898 0.26458 0.24572 0 0.62061 0.17245 0.82682 0.38034 0.36386 0.36682 0.66146 0.49972 0.66146 0.29766 0-0.05449-0.22683-0.34996-0.50435-0.66146-0.49004-0.54999-1.258-0.97044-1.7033-0.95911zm-13.874 0.8599c-0.22611 6e-3 -0.42577 0.34594-0.62839 1.0583-0.10665 0.37494-0.25408 0.82952-0.33073 1.017-0.077 0.18834-0.05647 0.34727 0.04961 0.34727 0.10559 0 0.30509-0.26567 0.4382-0.58706 0.13312-0.32139 0.3316-0.58706 0.4382-0.58706 0.10663 0 0.14488-0.16583 0.09095-0.37206-0.06879-0.26305-0.01588-0.34557 0.17363-0.27284 0.34782 0.13346 0.35491-0.21668 0.0083-0.50435-0.08406-0.06976-0.16441-0.10122-0.23978-0.09922zm3.4147 0.802c-0.26059 0.03529-0.39351 2.3431-0.25632 4.7707 0.08997 1.592 0.18194 2.2252 0.2894 1.9348 0.22339-0.60386 0.23811-6.4593 0.01654-6.6807-0.01847-0.01847-0.03224-0.02717-0.04961-0.02479zm11.683 0.42995c-0.12056 0.01288-0.17749 0.06863-0.10749 0.1819 0.07654 0.12385 0.31962 0.22324 0.53742 0.22324 0.21782 0 0.62058 0.17435 0.89297 0.38862 0.69697 0.54824 0.93416 0.48914 0.38862-0.09922-0.35219-0.37981-1.3499-0.73316-1.7115-0.69453zm50.625 0.61185c0.35933-0.01426 0.86834 0.09021 1.3229 0.30591 1.3916 0.66035 1.7106 2.1265 0.61185 2.7945-0.64365 0.39142-0.98565 0.3738-0.57878-0.03307 0.28096-0.28096 0.30041-0.73586 0.03307-0.73586-0.10713 0-0.19017 0.08673-0.19017 0.19844 0 0.1117-0.34631 0.66813-0.76893 1.2402-0.6967 0.94308-1.541 1.5015-2.0588 1.3642-0.10713-0.0284-0.5243-0.10644-0.92604-0.17363-0.67313-0.11258-1.0475-0.48509-0.48784-0.48784 0.13391-7.94e-4 0.48757-0.13399 0.7855-0.2894 0.29792-0.1554 0.68392-0.22972 0.85164-0.16536 0.45958 0.17636 0.23842-1.8662-0.23978-2.2159-0.44953-0.32872-0.8599-0.32404-0.8599 0.0083 0 0.25699-2.2419 1.0654-2.4309 0.87643-0.05175-0.05176 0.0049-0.3171 0.13229-0.58706 0.31673-0.67114 1.5345-1.324 2.712-1.4635 0.81852-0.09694 1.0699-0.05014 1.5627 0.31419 0.71088 0.52557 0.90302 0.43857 0.37206-0.17363-0.21271-0.24526-0.34705-0.52681-0.2894-0.62013 0.06261-0.1013 0.23089-0.14854 0.44648-0.1571zm-48.715 0.97565c-0.09782 0.02911-0.10113 0.2057-0.01654 0.52917 0.06181 0.23636 0.18649 0.42995 0.28112 0.42995 0.24374 0 0.2169-0.7302-0.03307-0.88471-0.07446-0.04602-0.13455-0.06991-0.1819-0.07441-0.01775-0.0016-0.03563-0.0042-0.04961 0zm46.691 1.3891c0.27876-0.019 0.32266 0.11221 0.40513 0.37206 0.17544 0.55277 0.0084 0.68371-1.7777 1.3725-0.84717 0.32671-2.5466 0.98986-3.7785 1.4717-1.232 0.48189-2.9837 1.0798-3.8944 1.3312-0.91059 0.25136-2.5547 0.76751-3.6544 1.1493-1.0998 0.38177-2.1739 0.69453-2.3812 0.69453-0.20736 0-1.4981 0.40119-2.8691 0.89297s-3.3512 1.1858-4.3987 1.5379c-1.8001 0.605-1.8969 0.61532-1.7777 0.23978 0.34676-1.0926 0.70226-1.695 0.99219-1.695 0.17592 0 0.61598-0.23004 0.97565-0.50435 0.77171-0.5886 2.6454-1.447 3.1586-1.447 0.19808 0 0.47231-0.13778 0.61185-0.30591s0.40119-0.26969 0.57878-0.22324c0.42942 0.1123 2.3642-0.30086 3.696-0.79375 1.1098-0.41074 3.7526-1.128 5.2337-1.4221 0.84656-0.1681 3.8597-1.0859 7.0776-2.1497 1.0114-0.33438 1.5237-0.50192 1.8025-0.52091zm-45.823 0.41341c-0.20431 0.05409-0.24228 0.60804-0.13229 1.7033 0.07467 0.74356 0.20967 1.356 0.30591 1.356 0.23251 0 0.23282-2.8739 0-3.0178-0.06446-0.03984-0.12648-0.05382-0.17363-0.04134zm49.609 1.3312c0.14495-0.01524 0.40235 0.03189 0.66146 0.12402 0.85339 0.30345 3.8357 0.65725 4.1092 0.48784 0.27326-0.16924 2.2663-0.2993 5.085-0.32247 2.4279-0.01998 3.0075 0.16401 4.68 1.5048 2.8215 2.2622 3.5034 3.8571 3.0178 6.9866-0.3247 2.0927-0.77328 2.9154-2.5466 4.6302-1.6398 1.5856-2.4923 2.0521-5.1345 2.8194-0.73075 0.21221-2.0936 0.37168-3.7042 0.42169-2.6937 0.0836-2.5079 0.11287-5.4322-1.0749-1.0174-0.41323-2.8615-2.3716-3.5883-3.82-0.37642-0.74991-0.76729-1.3924-0.86815-1.4304-0.47427-0.17875-1.3144-3.4414-1.3147-5.0932-1.64e-4 -0.69633 0.12232-1.7909 0.27284-2.4309 0.15053-0.63997 0.2333-1.2315 0.1819-1.3147-0.1552-0.25112 0.25397-0.17083 0.46302 0.09095 0.10694 0.13391 0.23906 0.8998 0.2894 1.7033 0.19388 3.0951 2.6425 6.8966 2.9186 4.531 0.0804-0.68871-0.43831-1.9844-0.86815-2.1663-0.27535-0.1165-1.3061-2.4867-1.4387-3.3155-0.11502-0.7193-0.082-0.802 0.28112-0.802 0.22182 0 0.7063-0.17943 1.0749-0.39688l0.66971-0.39688 0.13229 0.71107c0.07273 0.38769 0.22958 0.9158 0.34727 1.1741 0.24223 0.53163 0.65487 0.65056 0.42995 0.12402-0.27294-0.63897-0.67067-2.2824-0.60357-2.4805 0.0368-0.10863 0.20367 0.06722 0.37206 0.38862 0.48384 0.92342 1.8405 2.0423 2.4722 2.0423 0.40624 0 0.18641-0.29107-0.42995-0.57878-0.66035-0.30824-1.8711-1.8496-1.6371-2.0836 0.01889-0.01889 0.05917-0.028 0.10749-0.03307zm-3.5719 0.16536c-0.15437 0-0.33068 0.09131-0.39688 0.19844-0.06621 0.10713 0.06054 0.19017 0.28112 0.19017s0.39688-0.08304 0.39688-0.19017-0.12675-0.19844-0.28112-0.19844zm-17.223 2.2324c0.09192-0.01371 0.11732 0.02469 0.06615 0.10749-0.06545 0.1059-0.19685 0.19017-0.29766 0.19017-0.28017 0-0.22168-0.1351 0.11576-0.26458 0.04333-0.01664 0.08512-0.02851 0.11576-0.03307zm-45.021 3.2247c0.65873 0 0.77721 0.26228 0.77721 1.6867-0.0013 0.71811-0.07337 1.2189-0.2894 2.0257-0.11706-0.64098-0.42614-1.0749-0.85164-1.0749-0.64987 0-1.3162 0.99303-1.4883 2.2241-0.10314 0.73776-0.0033 1.3967 0.23151 1.8025-0.01516-0.0125-0.02479-0.0279-0.03307-0.0413-0.06621-0.10713-0.26969-0.19844-0.45477-0.19844-0.30144 0-0.32459-0.15772-0.2067-1.5296 0.25713-2.9922 1.1583-4.8948 2.3151-4.8948zm63.376 0.0662c0.06985-0.0135 0.12402 0.0271 0.12402 0.10749 0 0.10712-0.09131 0.24798-0.19844 0.31419-0.10713 0.0662-0.19017 0.0327-0.19017-0.0744 0-0.10713 0.08304-0.24799 0.19017-0.3142 0.02678-0.0166 0.05113-0.0286 0.07442-0.0331zm-56.703 0.33073c0.41537 4e-5 0.80243 0.14607 1.1079 0.47128 0.40381 0.42984 0.763 1.5651 0.7855 2.5053 0.01349 0.18972 0.01905 0.43918 0.0083 0.70279-0.26285-0.51292-0.66246-0.83508-1.1327-0.83508-0.90675 0-1.7229 1.1863-1.8273 2.654-0.07265 1.0216 0.22045 1.9116 0.71107 2.3564-1.2415 0.0764-2.0913-0.12856-2.1746-0.56224-0.24761-1.2895-0.45453-3.6224-0.38034-4.3408 0.17022-1.6484 1.656-2.952 2.9022-2.9517zm57.126 0.26458c0.01979-5e-3 0.03462 2e-3 0.04961 0.0165 0.05997 0.06 7.94e-4 0.21514-0.13229 0.34726-0.19237 0.19094-0.21319 0.17012-0.10749-0.10748 0.05486-0.14407 0.13081-0.24221 0.19017-0.25632zm-67.313 6.0441c1.0153 0.0119 2.3488 0.84315 2.3399 1.6454-0.0019 0.17303-0.45649 0.62551-1.017 1.0004-1.2685 0.84854-1.1632 0.80195-1.5131 0.52091-0.71914-0.57775-1.3288-2.1294-1.017-2.5879 0.08016-0.11788 0.34057-0.32108 0.57878-0.44649 0.17991-0.0947 0.3941-0.13503 0.62838-0.13229zm15.379 5.0768 0.0083 0.57049c0.0043 0.3138-0.18223 1.1591-0.41341 1.8769l-0.42167 1.3064-0.89297 0.10748c-1.0829 0.13002-2.9538 1.0924-3.2493 1.6702-0.31155 0.60915-0.38507 0.64384-0.64492 0.33073-0.4382-0.528 1.0504-2.6458 1.8603-2.6458 0.33036 0 2.0075-1.3207 2.8691-2.2572zm11.642 2.0588c0.03401-4e-3 0.07081-1e-3 0.10749 0l0.4382 0.0165-0.4382 0.20671c-0.24104 0.11625-0.4382 0.32094-0.4382 0.45476 0 0.13383-0.26839 0.41614-0.60357 0.62839-1.6302 1.0322-5.4883 4.3246-5.8706 5.0107-1.5704 2.8186-1.5581 2.7718-1.4635 4.7625 0.07417 1.5612 0.18573 2.0642 0.68628 3.1253 0.91861 1.9475 2.0271 2.9292 3.696 3.2742 1.422 0.29393 0.90154 1.4918-0.73586 1.695-0.47535 0.059-1.1712 0.18859-1.5462 0.28112-0.37497 0.0925-0.81497 0.16212-0.97565 0.15709-0.16069-5e-3 -0.90374 0.0406-1.6536 0.0992-1.5721 0.12277-4.7051-0.13163-5.7298-0.46302-1.1418-0.36922-2.921-1.3501-3.5057-1.9348-0.29956-0.29956-0.65728-0.81979-0.79375-1.1493s-0.35986-0.59531-0.49609-0.59531c-0.20742 0-0.47956-0.39566-0.47956-0.69453 0-0.0448 0.34869-0.0827 0.77721-0.0827 1.1598 0 0.94282-0.27881-0.4382-0.56224-1.0783-0.22129-1.322-0.36475-2.1415-1.2485-0.86307-0.93075-0.92604-1.0662-0.92604-2.034 0-1.3306 0.5947-3.0996 1.6206-4.7956 0.44617-0.7376 0.90297-1.5004 1.0087-1.7032 0.23481-0.4503 0.27345-0.45329 0.82682 8e-3l0.44648 0.37206-0.41341 0.69453c-0.23199 0.39317-0.45381 1.1952-0.51263 1.8438-0.0959 1.0576-0.05712 1.2187 0.52091 2.0588 0.66066 0.96026 1.4925 1.5053 1.728 1.141 0.07268-0.11237 0.48099-0.26425 0.9095-0.33899 0.42852-0.0747 0.93758-0.18225 1.1327-0.23977 0.30263-0.0892 0.28646-0.0273-0.09922 0.42994-0.7058 0.83664-1.3139 1.3453-1.7777 1.4718-0.4854 0.13237-2.2587-0.46778-2.497-0.84336-0.12167-0.19174-0.15816-0.18324-0.1571 0.0413 0.0051 1.1128 1.8851 1.7896 3.2493 1.1658 0.40204-0.18384 1.5229-1.1188 2.4887-2.0753 0.96581-0.95658 2.126-1.9526 2.5797-2.2076 0.45365-0.25495 0.82682-0.52568 0.82682-0.60357 0-0.12562 1.2914-1.1576 3.7785-3.0178 1.6087-1.2033 4.9453-3.1932 5.5562-3.3155 0.40989-0.082 0.68741-0.28564 0.802-0.58706 0.10125-0.26633 0.27453-0.41931 0.51263-0.44648zm-25.342 0.62014c0.19533-2e-3 0.36875 0.017 0.47128 0.0496 0.35563 0.11285 0.36314 0.14535 0.05788 0.7855-0.17604 0.36915-0.38021 0.66971-0.44648 0.66971s-0.40201-0.29167-0.75242-0.6532l-0.63664-0.66146 0.70279-0.13229c0.19382-0.0363 0.40825-0.0554 0.60357-0.0579zm30.271 0.0909c2.2091-0.0274 2.9035 0.28167 3.7042 1.6454 0.60796 1.0356 0.61074 1.039 0.51263 3.2742-0.1263 2.8779-0.38293 3.8248-1.141 4.2169-0.67604 0.3496-0.8464 0.25703-0.55398-0.2894 0.25439-0.47532 0.26255-0.61185 0.04134-0.61185-0.22981 0-1.1185 1.701-0.96737 1.8521 0.06675 0.0667 0.49329-0.0684 0.94258-0.29766 0.44926-0.22921 0.86159-0.37036 0.91779-0.31419 0.05618 0.0562 0.04202 0.67961-0.03307 1.3808-0.11566 1.08-0.19575 1.2733-0.51263 1.2733-0.20573 0-0.37206 0.12871-0.37206 0.2894 0 0.16071 0.13269 0.29766 0.29766 0.29766 1.0553 0 3.3356 1.9348 4.2913 3.6462 0.31398 0.56232 0.61553 1.0252 0.66971 1.0253 0.05419 1.4e-4 0.20589-0.24282 0.33898-0.53742 0.37851-0.83775 2.096-1.9926 2.9602-1.9926 0.55459 0 0.77698 0.10138 0.94258 0.43821 0.68347 1.3903 0.4377 2.2087-1.0832 3.6793-1.9193 1.856-3.6158 2.4984-4.8948 1.8603-0.6559-0.32721-1.1076-0.0575-0.55398 0.33073 0.16778 0.11766 0.46471 0.32512 0.66146 0.46302 0.19676 0.13705 0.25573 0.20308 0.12402 0.14056-0.13171-0.0625-0.59455-5e-3 -1.0253 0.12402-0.59044 0.17698-0.9624 0.18153-1.5131 0.0165-0.88286-0.26453-1.0088-0.2794-1.0666-0.0909-0.02466 0.0804 0.25557 0.29567 0.62838 0.47956l0.678 0.33898-1.4552-0.0248c-1.5007-0.0186-2.2051-0.17221-2.4309-0.53742-0.07085-0.11462-0.2785-0.20671-0.46302-0.20671-0.5276 0-2.3035-1.8124-2.4556-2.5053-0.07352-0.33469-0.20387-0.61184-0.2894-0.61184-0.22389 0-0.60642-2.8591-0.52091-3.8944 0.03983-0.48207 0.07711-1.5156 0.09095-2.2986 0.0159-0.90038 0.09918-1.3831 0.22324-1.3064 0.10789 0.0667 0.24471-0.0373 0.30591-0.23151 0.26834-0.85162 0.95814-2.2249 1.2402-2.4805 0.27704-0.25104 0.30057-0.1869 0.23978 0.67799-0.04271 0.60778 0.0054 0.96737 0.14056 0.96737 0.11747 0 0.21489 0.1431 0.21497 0.32248 0 0.26995 0.08475 0.24638 0.48784-0.1323 0.26781-0.25175 0.48784-0.35729 0.48784-0.23151 0 0.36394 0.2423 0.2658 1.0583-0.45476 0.84323-0.74467 0.83529-1.1067-0.0083-0.55399-0.3824 0.25056-0.55642 0.29036-0.61185 0.12403-0.05015-0.15047-0.26129-0.0617-0.59531 0.24804-0.28559 0.2648-0.59783 0.47956-0.69453 0.47956-0.09861 0-0.12639-0.51038-0.05788-1.1658 0.06718-0.64278 0.0497-1.1741-0.04134-1.1741-0.41116 0-1.2096 0.88514-1.6867 1.8603-0.28702 0.58664-0.55597 1.0666-0.59531 1.0666-0.23327 0 0.47839-4.2516 1.0087-6.0193 0.10241-0.34136 0.07411-0.44363-0.11576-0.38034-0.28937 0.0965-0.85381 1.6179-1.0666 2.8774-0.13724 0.81232-0.15353 0.82962-0.7855 0.71106-1.3269-0.24894-5.2313 0.88832-5.9283 1.728-0.39132 0.47149-0.11859 0.56335 0.58706 0.19844 0.60441-0.31255 0.62124-0.3124 0.48784 0.0331-0.49263 1.2754-0.84392 5.4017-0.49609 5.8208 0.13511 0.1628 0.18994 0.34751 0.12402 0.41342-0.18147 0.18145-1.4464-0.85355-1.5875-1.2981-0.06802-0.21434-0.20322-0.38862-0.29766-0.38862-0.09443 0-0.31829-0.50022-0.49609-1.1162-0.17781-0.616-0.40182-1.2711-0.49609-1.4552-0.09426-0.18407-0.18066-0.9271-0.19844-1.6536-0.03491-1.4266 0.49284-3.0255 1.2154-3.6793 0.20435-0.18494 0.37206-0.4336 0.37206-0.55398 0-0.55293 4.295-4.181 5.8372-4.9279 0.84698-0.41023 3.5414-0.86328 5.2586-0.88471zm-32.303 0.47955c0.24529-7e-3 0.40238 0.10986 0.71107 0.39688 0.96012 0.89276 1.5704 1.1969 1.8769 0.94258 0.22655-0.18804 0.32848-0.0332 0.59531 0.88471 0.1778 0.61164 0.53544 1.5482 0.79375 2.0836l0.47128 0.97565-0.38862 0.62839c-0.21266 0.34409-0.38034 0.76555-0.38034 0.9343s-0.20012 0.43677-0.4382 0.60356c-0.70104 0.49102-1.2798 0.37865-1.7115-0.33072-0.40698-0.66866-1.0589-2.6683-1.2733-3.8944-0.21368-1.2218-0.57137-0.89384-0.48784 0.44649 0.02681 0.43018-0.23476 0.64479-2.1663 1.7529-2.717 1.5587-2.7178 1.5592-2.4887 0.76068 0.09851-0.34343 0.13555-0.69993 0.08268-0.7855-0.09954-0.16105 0.98777-2.7874 1.356-3.2742 0.46233-0.6113 2.1276-1.7755 2.8525-1.9926 0.26895-0.0806 0.44815-0.12828 0.59531-0.1323zm22.953 0.58706c0.22678-0.0314-0.2471 0.32261-1.5627 1.232-1.0117 0.69932-1.8671 1.405-1.9017 1.5627-0.03464 0.15771-0.14151 0.28112-0.23151 0.28112s-0.87852 0.54588-1.7611 1.2154c-2.5648 1.9457-3.5835 2.6606-3.7952 2.6707-0.10871 5e-3 -0.54046 0.19931-0.96737 0.42995-0.50493 0.27279-1.2636 0.45352-2.158 0.51263-1.588 0.10488-1.9307-0.0976-2.1497-1.265-0.2686-1.4318 1.0127-2.615 2.7202-2.5135 1.7538 0.10425 3.0128-0.24553 5.5727-1.5379 1.3424-0.67767 2.9705-1.4043 3.6132-1.6206 0.64278-0.21627 1.4951-0.53525 1.8934-0.70279 0.37957-0.15965 0.62452-0.25031 0.7276-0.26458zm-13.179 0.1571h0.55398l-0.4382 0.62838c-0.24042 0.34817-0.44683 0.65331-0.45477 0.66972-0.0079 0.0163-0.17892-0.19386-0.38034-0.46303-0.42736-0.57115-0.20634-0.83005 0.71935-0.83507zm-6.1598 0.12402c0.1636-0.0166 0.53311 0.11265 1.2816 0.38034 0.18748 0.067 0.33898 0.3229 0.33898 0.56224 0 0.58872 0.38454 1.686 0.7276 2.0836 0.32136 0.37248 0.08604 1.0028-0.44648 1.2072-0.17243 0.0662-0.37489 0.12403-0.44648 0.12403-0.16887-2e-3 -1.3608-3.0271-1.5131-3.8365-0.06346-0.33729-0.10573-0.50427 0.05788-0.52091zm10.261 0.30591c0.29247-0.0182 0.51263 0.023 0.51263 0.14883 0 0.40434-1.1556 1.3449-1.91 1.5544-0.3933 0.10922-0.92953 0.2067-1.1906 0.2067h-0.47956l0.56224-0.58705c0.3079-0.32139 0.6667-0.58706 0.802-0.58706s0.31821-0.12579 0.40513-0.28112c0.12975-0.23186 0.81068-0.42434 1.2981-0.45477zm-8.1195 0.2894 0.62838 0.37206c0.34626 0.20339 0.71334 0.46302 0.81029 0.57878 0.11138 0.13298-0.0039 0.45055-0.30591 0.85989-0.49136 0.66598-0.53888 0.63691-0.74414-0.38862-0.0536-0.26784-0.16091-0.69389-0.23978-0.95086zm-5.9944 3.2412c0.07919-0.0114 0.13916 1.3e-4 0.17363 0.0413 0.19876 0.23757 0.68347 1.6564 0.59531 1.7446-0.03709 0.0371-0.85534 0.47342-1.819 0.97565s-1.8442 1.0229-1.9513 1.1493c-0.10713 0.12639-0.67582 0.51842-1.265 0.87643s-1.119 0.73644-1.1824 0.83508c-0.12222 0.19039-1.6726 1.2877-4.0762 2.894-0.80346 0.53692-1.5922 1.1985-1.7529 1.4717-0.16069 0.27327-0.70406 0.80217-1.2072 1.1741l-0.91779 0.678 0.10749-0.74414c0.077531-0.55004 0.3166-0.92914 0.91779-1.4718 0.44564-0.40222 0.96181-0.78306 1.1493-0.84336 0.34047-0.10951 0.47993-0.47127 0.1819-0.47127-0.086646 0-0.65151 0.29697-1.2568 0.66146-0.85265 0.51342-1.1504 0.6096-1.3064 0.42169-0.14759-0.17783-0.074258-0.30036 0.26458-0.45477 0.25418-0.11581 1.2878-0.82917 2.2986-1.5875 1.9637-1.4731 2.7324-2.5066 2.2738-3.0591-0.35851-0.43198 0.00434-0.63849 1.3064-0.7276 1.5234-0.10425 4.5757-1.5525 6.9535-3.3073 0.20076-0.14821 0.38066-0.23731 0.51263-0.25631zm5.5727 0.87643c0.1567-4e-3 0.03856 0.33957-0.33073 1.0997-0.48263 0.99338-0.93432 1.162-0.9343 0.34727 6e-6 -0.3787 0.19602-0.69856 0.678-1.0832 0.29718-0.23714 0.49302-0.36161 0.58706-0.36381zm22.986 2.1249-0.07441 3.1914c-0.10844 4.6926-0.06629 6.014 0.23151 7.0032 0.15627 0.51909 0.22866 1.3257 0.17363 1.943-0.08627 0.96771-0.16452 1.1066-0.89297 1.6454-0.43804 0.32398-1.0568 0.95943-1.3808 1.4056-0.32398 0.44614-0.64098 0.8146-0.69453 0.81857-0.22034 0.0162-1.1835-2.3535-1.5462-3.7952-0.36248-1.4407-0.36965-1.5674-0.06615-1.7942 0.17922-0.1339 0.39185-0.23978 0.47128-0.23978 0.23323 0 0.4006-0.74554 0.26458-1.1741-0.06896-0.21727-0.44432-0.54313-0.83508-0.7276-0.61055-0.28824-0.73263-0.46223-0.86815-1.2154-0.27871-1.5488 0.32065-5.9111 0.8599-6.259 0.44789-0.28903 1.5734-0.53789 2.993-0.66971zm-24.705 0.14883c0.10194 0.0139 0.23588 0.0855 0.4382 0.19017 0.42116 0.21778 0.53345 0.38523 0.45477 0.68628-0.0577 0.22063-0.15031 0.35406-0.2067 0.29765-0.05639-0.0564-0.39865 0.0853-0.76893 0.3142-0.37028 0.22886-0.89749 0.44185-1.1658 0.47127l-0.48784 0.0579 0.47128-0.52091c0.26061-0.28652 0.6269-0.76264 0.81029-1.0583 0.16026-0.2584 0.24762-0.39782 0.3638-0.42994 0.02905-8e-3 0.05697-0.0129 0.09095-8e-3zm0.95911 3.8116c0.16125 6e-3 0.29009 0.12332 0.3638 0.35555 0.14267 0.4495 1.319 1.3808 1.7446 1.3808 0.16784 0 0.30591 0.11269 0.30591 0.24805 0 0.36277 1.3074 2.237 2.0174 2.894 0.71207 0.65876 3.0162 2.0192 3.1668 1.8686 0.05603-0.056 0.69083 0.0602 1.4056 0.26459 1.9851 0.56769 5.8658 0.48969 9.0371-0.19017 0.66212-0.14195 0.73173-0.1247 0.73586 0.24804 0.0074 0.66225 0.72744 3.1679 1.1658 4.068 0.22206 0.45593 0.92438 1.651 1.5627 2.6622 1.2565 1.9908 1.8498 3.5507 2.0423 5.3496 0.17436 1.6299-0.06861 3.6015-0.48784 3.9606-0.18711 0.1602-0.29676 0.44212-0.24805 0.62838 0.18438 0.70506-3.0985 2.9443-4.7625 3.2494-0.40584 0.0744-1.6533 0.13986-2.7781 0.14885-2.2056 0.0175-3.9836-0.38946-4.5889-1.0583-0.2944-0.3253-0.26966-0.38042 0.2894-0.79375 0.32959-0.24368 0.59531-0.51387 0.59531-0.60357 0-0.24947-1.1699 0.41082-2.0257 1.141-0.42024 0.35856-0.79502 0.62709-0.82682 0.59531-0.08408-0.0841 1.1051-3.1123 1.3312-3.3898 0.33666-0.41333-0.01865-0.67839-0.47956-0.35555-0.58637 0.41072-0.77364 0.3692-0.61185-0.14056 0.20883-0.65794-0.30742-0.16445-0.8599 0.81857-0.5189 0.92327-0.2985 1.0094 0.678 0.26458l0.68628-0.52091-0.33073 0.76068c-0.42323 0.97893-0.70797 1.9977-0.74414 2.6376-0.01561 0.27628-0.53327 1.1742-1.1493 1.9926-0.62058 0.82452-1.1162 1.6904-1.1162 1.943 0 0.25077-0.13045 0.61891-0.2894 0.82682-0.28297 0.37029-0.29266 0.37132-0.41341-0.0579-0.06782-0.24104-0.18781-0.43821-0.26458-0.43823-0.30065 2e-5 -0.36989 0.25492-0.19017 0.7276 0.22814 0.60008-0.10859 3.3854-0.50435 4.1508-0.28334 0.54789-1.5496 1.7446-1.8438 1.7446-0.09575 0-0.29252 0.11414-0.4382 0.24805-0.1457 0.1339-0.44032 0.34628-0.66146 0.47127-0.70834 0.4004-2.0581 0.45498-3.084 0.13229-1.0443-0.32845-2.6376-1.3669-2.6376-1.7198 0-0.1194-0.24283-0.36242-0.53742-0.53742s-1.4001-1.191-2.4639-2.2655-2.0205-1.9001-2.1249-1.8356c-0.10667 0.0659-0.12959 0.0138-0.04961-0.11576 0.08394-0.13583-0.1062-0.46042-0.46302-0.79375-0.71983-0.67241-1.7059-3.3255-1.9761-5.3081-0.15377-1.1284-0.12689-1.4482 0.23151-2.4061 0.41487-1.1088 0.96385-1.8438 1.3725-1.8438 0.15616 0 0.148 0.0829-0.01654 0.28112-0.12668 0.15263-0.27731 1.0571-0.33898 2.0092-0.11674 1.8019 0.07268 2.5797 0.62838 2.5797 0.37264 0 0.3665-0.31094-0.0083-0.45477-0.64709-0.24831-0.03347-3.7965 0.83508-4.8286 0.67495-0.80211 1.62-1.1994 2.2738-0.95085l0.49609 0.19016-0.58706 0.83508c-0.45461 0.64522-0.61754 1.1222-0.71107 2.1249-0.13074 1.4019 0.02466 2.3936 0.33898 2.1994 0.10834-0.067 0.13304-0.30543 0.05788-0.53742-0.25578-0.78954-0.0586-2.0459 0.50435-3.2081 0.47133-0.97301 0.6867-1.2039 1.356-1.4718 0.4387-0.17552 1.1446-0.32247 1.5627-0.32247 0.95843 0 1.5139 0.4563 3.4232 2.803 2.1739 2.672 3.1538 3.7391 3.3073 3.5883 0.07601-0.0747-0.29223-0.64341-0.81857-1.265-1.6368-1.9332-1.596-1.6435-0.42995-3.1089 0.82301-1.0343 1.281-1.4101 2.2159-1.8355 0.64688-0.29435 1.2023-0.508 1.232-0.47956 0.02963 0.0284-0.27202 0.52226-0.66146 1.0997-0.66024 0.97893-0.67659 1.0515-0.30591 1.1079 0.21865 0.0333 0.66061-0.0726 0.98393-0.23977 0.82754-0.42792 0.8872-0.38762 0.40513 0.2894-0.67519 0.94821-0.35311 0.83947 0.8599-0.2894 0.6196-0.57666 1.0362-1.0977 0.92604-1.1658-0.10988-0.0679-0.77878 0.1368-1.48 0.45476-0.78817 0.35743-1.2738 0.49022-1.2733 0.34727 0.0013-0.31313 1.2891-1.695 1.5792-1.695 0.22727 0 0.7402-0.5529 0.75242-0.81029 0.0087-0.18391-1.2541 0.18064-2.4722 0.71935-1.0032 0.44368-1.3366 0.38968-0.7276-0.11576 0.16557-0.13739 0.26464-0.35015 0.21497-0.47955-0.09597-0.25009 1.3304-1.7208 2.3068-2.373 0.32139-0.21468 1.2471-0.49345 2.0505-0.62013 1.3147-0.20727 1.5664-0.18869 2.5714 0.1571 1.1698 0.40251 2.4261 1.1803 3.5057 2.1746 1.1542 1.063 2.6921 2.1862 2.8194 2.0588 0.06869-0.0687 0.08598-0.15084 0.04134-0.1819-0.44-0.30628-2.9594-2.3781-3.4893-2.8691-0.37494-0.34743-1.2467-0.90461-1.943-1.232-1.0198-0.4794-1.5311-0.59378-2.6293-0.60357-1.5828-0.014-2.0476 0.0785-3.1501 0.6532-0.89501 0.46651-2.5831 2.1539-3.0427 3.0427-0.16311 0.31541-0.48527 0.74729-0.71935 0.95911-0.23407 0.21183-0.55242 0.68186-0.70279 1.0418-0.42124 1.0082-1.157 1.8031-1.4221 1.5379-0.12068-0.12068-0.21497-0.36835-0.21497-0.55398s-0.17386-0.38921-0.38034-0.45477c-0.20648-0.0655-0.55261-0.42963-0.77721-0.81029-0.27284-0.46243-0.51406-0.65439-0.71107-0.57877-0.16708 0.0641-0.34076-0.0224-0.40513-0.19017-0.13002-0.33885-1.1122-0.89429-1.447-0.81857-0.7861 0.1778-0.98367-3.7986-0.35555-7.152 0.22073-1.1784 0.42061-2.3158 0.44648-2.5301 0.02588-0.21426 0.14814-0.60859 0.26458-0.87643 0.11645-0.26781 0.48085-1.6652 0.81857-3.1006 0.57494-2.4437 1.3048-4.204 2.1167-5.1345 0.19454-0.22299 0.38444-0.328 0.5457-0.32247zm41.696 2.249c0.3823-2e-3 0.88858 0.0307 1.5627 0.0744 1.8645 0.12084 2.0047 0.16372 2.0753 0.64492 0.02344 0.1597 0.14426 0.409 0.26458 0.55399 0.36214 0.43632 1.0238 2.2731 0.84336 2.3399-0.09238 0.0342 0.08938 1.0292 0.40513 2.2076 0.60484 2.2572 0.60891 2.2836 0.2067 6.2838-0.16465 1.6376-0.62013 2.7006-0.62013 1.447 0-0.3428-0.08708-0.62013-0.19017-0.62013s-0.18067 0.47836-0.17363 1.0666c0.01093 0.91517-0.09096 1.2239-0.69453 2.1332-0.38793 0.58446-0.81172 1.175-0.95086 1.3147-0.13912 0.13965-0.41092 0.49914-0.60357 0.79375-0.19266 0.29459-0.52689 0.52917-0.73586 0.52917s-0.54343 0.091-0.74414 0.19843c-0.25234 0.13507-0.40346 0.12507-0.49609-0.0248-0.08063-0.13046-0.40958-0.16692-0.82682-0.0992-0.38132 0.0619-1.0688 0.0168-1.5296-0.0992l-0.84336-0.21497 0.88471-0.97565c1.1319-1.259 2.211-3.5137 2.4309-5.0684 0.22601-1.5984 0.28795-4.4196 0.13229-5.9367-0.12983-1.2654-0.25115-1.5764-1.0997-2.8691-0.43717-0.66596-0.50811-0.97539-0.48784-2.1332 0.02146-1.2232 0.04372-1.5392 1.1906-1.5462zm-6.2757 0.26458c0.69355 0 1.0786 0.20611 1.0666 0.56224-0.0059 0.17603-0.25552 0.50903-0.55398 0.74414l-0.53742 0.42995-0.33073-0.68628c-0.37637-0.78928-0.29025-1.0501 0.35555-1.0501zm-54.793 0.12402c0.032755-4e-3 0.070186-2e-3 0.10749 0 0.04263 3e-3 0.090292 0.0152 0.14056 0.0248 0.42354 0.081 0.44601 0.13993 0.27284 0.63665-0.13045 0.37417-0.1254 0.67735 0.016536 0.94257 0.2317 0.43294-0.049157 1.4906-0.34727 1.3064-0.093276-0.0576-0.67072 0.42619-1.2816 1.0666-0.61084 0.6404-1.1903 1.1576-1.2898 1.1576-0.23982 0-0.24081 0.0108 0.22324-0.98393 0.44344-0.95051 0.90583-1.9436 1.5296-3.3155 0.2676-0.58854 0.3991-0.80375 0.62839-0.83508zm65.384 0.11576c0.23642 0.0229 0.87929 0.28607 1.7859 0.73586 0.5892 0.29234 1.1842 0.4872 1.3229 0.4382 0.13872-0.049 0.8967 0.58981 1.6867 1.4139 1.4256 1.487 1.444 1.5102 1.8769 3.3322 0.34354 1.4458 0.38756 1.9315 0.21497 2.2738-0.12052 0.23902-0.31858 0.99864-0.4382 1.695-0.11963 0.69633-0.33168 1.402-0.47128 1.5627-0.13961 0.1607-0.47247 0.73093-0.74414 1.2733s-0.6558 1.1194-0.85164 1.2733c-0.3271 0.25717-0.33184 0.25133-0.08268-0.0661 0.1492-0.19005 0.21507-0.40502 0.14883-0.47127-0.15075-0.15073-0.71935 0.30694-0.71935 0.57877 0 0.32237-0.96724 1.5048-1.232 1.5048-0.13274 0-0.63016 0.35444-1.1079 0.79375-0.47778 0.43929-1.2474 0.96234-1.7115 1.1658-0.76851 0.33687-1.3973 0.47593-1.3973 0.30591 0-0.0368 0.47739-0.71165 1.0666-1.5048s1.0749-1.6438 1.0749-1.8852c0-0.24136 0.12085-0.43821 0.26458-0.43821 0.37571 0 0.71107-1.3068 0.71107-2.7617 0-0.68924 0.09471-1.3515 0.21497-1.4717 0.3365-0.3365 0.10629-3.6994-0.30591-4.4815-0.21611-0.4099-0.2862-0.83699-0.2067-1.1989 0.08378-0.38145-0.03345-0.95258-0.37206-1.7859-0.27366-0.67347-0.50435-1.3635-0.50435-1.5379s-0.10587-0.4299-0.23978-0.5705c-0.08558-0.0898-0.10281-0.14796-0.05788-0.16536 0.01685-7e-3 0.04064-0.0115 0.07441-8e-3zm-5.6388 3.0178c0.05554-0.0103 0.11284 0.0259 0.17363 0.0992 0.6263 0.75462 1.5971 4.563 1.2898 5.0602-0.07377 0.11935-0.12105 0.76467-0.09922 1.4387 0.04512 1.3938-0.58968 4.3381-1.1327 5.2586-0.34832 0.59033-0.56454 0.86643-1.7529 2.1828l-0.57878 0.63664-1.6206-0.13229c-0.88911-0.0712-1.6338-0.14314-1.6619-0.16537-0.02808-0.0223 0.13273-0.45542 0.35555-0.95911 0.58775-1.3287 0.32142-1.587-0.2894-0.28112-0.50747 1.085-0.98629 1.5107-1.3229 1.1741-0.21521-0.21521-2.1194-0.0547-2.4474 0.2067-0.29192 0.23259-0.30266 0.13117-0.05788-0.51263 0.12126-0.3189 0.12093-0.50263-0.0083-0.5457-0.12713-0.0424-0.13174-0.24261-0.01654-0.55399 0.29752-0.80412 0.44469-2.1332 0.23978-2.1332-0.10354 0-0.2394 0.32589-0.30591 0.72761-0.06652 0.40174-0.21312 0.96864-0.32247 1.2568-0.10934 0.28813-0.13695 0.61304-0.06615 0.7276 0.18595 0.30086-0.07217 0.98393-0.37206 0.98393-0.14036 0-0.36886 0.13439-0.50435 0.29766s-0.28273 0.2547-0.33073 0.20671c-0.04798-0.048-0.44413 0.0376-0.87643 0.19016-0.4323 0.15254-0.84677 0.28112-0.92604 0.28112s0.01405-0.49892 0.21497-1.1079c0.20103-0.60902 0.29025-1.1549 0.19844-1.2154s-0.21841-0.55563-0.28112-1.0997c-0.11124-0.96507-0.78613-2.4226-1.1245-2.4226-0.0931 0-0.09996 0.15151-0.01654 0.33898 0.08342 0.18746 0.31213 0.69094 0.50435 1.1162 0.23246 0.51432 0.31821 1.0548 0.25632 1.604-0.05747 0.50983-0.01098 0.8536 0.12402 0.90951 0.15466 0.064 0.15626 0.14246 0.0083 0.25631-0.11506 0.0885-0.32073 0.55148-0.45477 1.0335-0.19261 0.69281-0.38785 0.95192-0.92604 1.2237-0.37449 0.18912-0.7584 0.29424-0.8599 0.23151-0.10149-0.0627-0.50512 0.0828-0.89297 0.32247l-0.70279 0.42995 0.12402-0.8599c0.24733-1.7248 0.15266-3.0303-0.35555-4.9445-0.284-1.0697-0.62997-2.0784-0.76893-2.2407-0.13897-0.16227-0.50189-0.7375-0.802-1.2816l-0.5457-0.99219 0.47128-0.64492c0.25782-0.35602 0.81484-0.97917 1.2402-1.3808l0.77721-0.7276 0.33073 0.51263c0.18418 0.284 0.65217 0.82082 1.0335 1.1906 0.38134 0.36979 0.68628 0.77661 0.68628 0.90123s0.18531 0.44815 0.40513 0.7276c0.21983 0.27948 0.55414 0.9706 0.74414 1.5296 0.34629 1.0188 0.87305 1.5859 0.66146 0.71107-0.15491-0.6405-1.3065-3.0604-1.8355-3.8529-0.33851-0.5071-0.3673-0.6359-0.13229-0.54571 0.17084 0.0655 0.54639-0.0113 0.84336-0.16536 0.44037-0.22847 0.75859-0.23414 1.728-0.0579 0.65373 0.11883 1.3687 0.23277 1.5875 0.25632 0.21879 0.0236 0.50078 0.0999 0.62013 0.17363 0.30157 0.18637 0.84497 1.8533 0.62838 1.9265-0.22175 0.075 0.0032 2.6871 0.23151 2.6871 0.09164 0 0.17363-0.39433 0.17363-0.87643 0-0.48207 0.08927-0.87643 0.19844-0.87643 0.22627 0 0.10553-0.66829-0.33073-1.8934-0.16212-0.4553-0.37301-0.83508-0.47128-0.83508s-0.1819-0.0702-0.1819-0.16537c0-0.0952 0.33414-0.23982 0.73586-0.31419 0.40174-0.0744 1.5041-0.39026 2.4557-0.70279 0.95155-0.3125 1.7656-0.57049 1.8025-0.57049s0.19959 0.21241 0.3638 0.46302c0.33613 0.513 0.56335 3.5973 0.2894 3.9275-0.09236 0.11128-0.2575 0.74554-0.3638 1.4056-0.1063 0.66003-0.28284 1.3745-0.39688 1.5875-0.25002 0.46718-0.25769 0.60357-0.04134 0.60357 0.4441 0 0.95604-2.0758 1.1327-4.5723 0.05307-0.74991 0.17858-1.4568 0.27284-1.571 0.10449-0.12652-0.02877-0.57377-0.33073-1.141-0.27244-0.51179-0.46464-0.94594-0.42995-0.96737 1.1528-0.70755 1.8898-1.2564 2.1828-1.6288 0.20213-0.25696 0.55798-0.53874 0.79375-0.62839 0.23577-0.0896 0.56541-0.4423 0.7276-0.77721 0.14328-0.29583 0.23816-0.43751 0.33073-0.45476zm-15.751 2.3151 1.017 0.95911c0.56015 0.53163 1.0528 0.99018 1.0997 1.017 0.04691 0.0268 0.04417 0.0964-0.0083 0.14883-0.22523 0.22524-1.2674 0.25906-1.6702 0.0579-0.3679-0.18378-0.4382-0.37164-0.4382-1.1989zm-21.58 0.0827c-0.21538 0-1.017 1.7532-1.017 2.2241 0 0.61757 0.31681 0.2784 0.57878-0.62013l0.26458-0.92604 0.11576 0.76068c0.16035 1.0984 0.50572 1.0751 0.48784-0.0331-0.0094-0.58187-0.10044-0.90558-0.23978-0.87643-0.12302 0.0258-0.16925-0.0788-0.10749-0.23978 0.06117-0.15941 0.02273-0.2894-0.08268-0.2894zm-0.97565 0.23978c-0.10969 0.0206-0.3161 0.11672-0.52917 0.25632-0.46897 0.30728-1.6536 2.3181-1.6536 2.803 0 0.51194 0.35745 0.10471 0.76068-0.86815 0.24422-0.58923 0.52102-1.1211 0.62013-1.1824 0.09909-0.0612 0.03575 0.24563-0.14056 0.68628-0.1763 0.44066-0.2654 0.85907-0.19844 0.92604 0.06697 0.0671 0.156 0.086 0.19017 0.0413 0.20192-0.26379 1.0968-2.5825 1.0253-2.654-0.01188-0.0119-0.03785-0.0151-0.07441-8e-3zm1.8438 0.84336c-0.0191 2e-3 -0.03865 9e-3 -0.05788 0.0165-0.35542 0.13639-0.34369 0.45476 0.01654 0.45476 0.16298 0 0.37883 0.33063 0.51263 0.77722 0.12838 0.42849 0.3021 0.77721 0.38034 0.77721s0.19424 0.31131 0.26458 0.68628c0.07034 0.37496 0.21192 0.67799 0.31419 0.67799s0.19017 0.2558 0.19017 0.56224 0.0559 0.95819 0.12402 1.4552c0.06812 0.49702 0.18677 0.9095 0.26458 0.9095 0.2388 0 0.41889-2.1939 0.19844-2.4143-0.11022-0.1102-0.19844-0.61854-0.19844-1.1327 0-0.86612-0.24759-1.2605-0.4382-0.69453-0.04511 0.1339-0.14744-0.0861-0.22324-0.48784-0.08418-0.44614-0.24862-0.72761-0.42169-0.72761-0.15584 0-0.28112-0.11704-0.28112-0.25631 0-0.32734-0.30483-0.61415-0.58706-0.60357-0.02016 7.9e-4 -0.03879-2e-3 -0.05788 0zm-4.5889 2.2241c-0.09413 0-0.28342 0.2885-0.42169 0.63664-0.13826 0.34817-0.44818 0.80275-0.68628 1.017-0.77848 0.70053-1.4947 3.791-1.1741 5.0684 0.21367 0.85135 0.40508 0.35894 0.40513-1.0418 5.3e-5 -1.0934 0.05423-1.2924 0.32248-1.2485 0.22631 0.037 0.35481-0.14791 0.44648-0.63664 0.07098-0.37835 0.38693-1.3167 0.70279-2.0918 0.62238-1.5273 0.66442-1.7032 0.40513-1.7032zm1.9265 6.2426c-0.17675 0.024-0.32472 0.44222-0.24805 0.84336 0.04768 0.24942-0.04774 0.54888-0.22324 0.69453-0.1693 0.14049-0.31419 0.37333-0.31419 0.52091 0 0.33832 0.47686 0.34856 0.75242 0.0165 0.24787-0.29866 0.36526-1.8175 0.1571-2.0257-0.0416-0.0416-0.08324-0.0552-0.12402-0.0496zm7.5904 3.5139c-0.20949-2.2e-4 -0.58446 0.12328-1.1327 0.37206-0.46614 0.21153-0.9185 0.3483-1.0004 0.29765-0.1991-0.12305-0.8826 0.64704-0.71935 0.81029 0.07031 0.0703 0.3664-1e-3 0.66146-0.14883 0.86725-0.43465 0.89218-0.43481 0.73586-0.1819-0.08522 0.1379-0.03731 0.31647 0.11576 0.41341 0.39224 0.24845 0.41558 0.23691 1.0004-0.49609 0.5684-0.71236 0.68816-1.0662 0.33898-1.0666zm-13.767 7.7309-0.32248 0.80201c-0.50395 1.2596-0.41963 2.4975 0.25632 3.7454 0.84818 1.566 1.7024 2.2742 2.8607 2.3647 0.51861 0.0405 1.0145 0.0882 1.0997 0.10748 0.08521 0.0193 0.36544-0.18357 0.62838-0.44646 0.4024-0.40243 0.47548-0.65392 0.46302-1.6041-0.03411-2.5986-1.679-4.5826-4.0349-4.8617zm0.91779 0.47128c0.77846-0.0647 1.5934 0.61544 2.6622 2.1911 0.97144 1.432 1.0455 1.6174 0.99219 2.5301-0.04208 0.7202-0.13379 0.98393-0.34726 0.98393-0.16069 0-0.4745 0.10552-0.69453 0.23151-0.25318 0.14489-0.49974 0.1624-0.67799 0.0496-0.19414-0.12276-0.20915-0.17928-0.04134-0.18187 0.5157-6e-3 0.21287-0.34663-0.38862-0.43823-0.72813-0.11091-0.94313-0.0138-0.52917 0.24805 0.15759 0.0997 0.18694 0.18753 0.06615 0.19018-0.34674 5e-3 -0.72102-0.52586-0.4382-0.62013 0.14438-0.0481 0.04604-0.2767-0.26458-0.61185-0.33232-0.35859-0.53091-0.45775-0.58706-0.28937-0.05245 0.15734-0.17962 0.0734-0.34727-0.23151-0.16479-0.2998-0.26749-1.117-0.27284-2.1332-0.0086-1.6361-0.0082-1.6498 0.53742-1.8438 0.11027-0.0392 0.21952-0.0651 0.33073-0.0744z" style="fill:#520;stroke-width:.26458"/><path d="m30.146 106.07c-0.71607 0-1.3632 0.96742-1.4456 2.1575-0.08243 1.1901 0.42939 2.1494 1.1454 2.1494 0.48921 0 0.82211-0.12856 1.0889-0.79166 0.29525-0.90945 0.26197-2.4122 0.26197-2.4122-0.17584-0.65865-0.56457-1.1031-1.0507-1.1031zm0.0553 1.0058c0.44627 0 0.76234 0.60471 0.71096 1.3464-0.05138 0.74171-0.45429 1.3383-0.90056 1.3383s-0.76234-0.59658-0.71096-1.3383c0.05138-0.74173 0.45429-1.3464 0.90056-1.3464z" style="fill:url(#bt);stroke-width:.26458"/><path d="m30.432 107.04c-0.12399 0.52436-0.52622 0.94944-0.89842 0.94944s-0.5734-0.42508-0.44941-0.94944 0.52622-0.94943 0.89842-0.94943 0.5734 0.42507 0.44941 0.94943z" style="fill:#fff;stroke-width:.1068"/><path d="m22.275 105.41c-0.421 0-0.88154 0.78406-1.0282 1.7452-0.14666 0.9611 0.07406 1.7373 0.49506 1.7373s0.88154-0.77615 1.0282-1.7373c0.14666-0.9611-0.07406-1.7452-0.49506-1.7452zm0.09901 0.64754c0.27009 0 0.41397 0.50472 0.31988 1.1213-0.09409 0.61661-0.39251 1.1134-0.66262 1.1134s-0.41397-0.49681-0.31988-1.1134c0.09409-0.61661 0.39251-1.1213 0.66262-1.1213z" style="fill:url(#bu);stroke-width:.26458"/><path d="m22.38 106.24c-0.13853 0.47233-0.46446 0.85522-0.72798 0.85522s-0.36484-0.38289-0.22631-0.85522c0.13854-0.47233 0.46446-0.85522 0.72798-0.85522s0.36484 0.38289 0.22631 0.85522z" style="fill:#fff;stroke-width:.096093"/><path d="m20.287 109.8c0 0.33211-0.47117 0.60135-1.0524 0.60135-0.58121 0-1.0524-0.26924-1.0524-0.60135 0-0.33213 0.47117-0.60134 1.0524-0.60134 0.58121 0 1.0524 0.26924 1.0524 0.60134z" style="fill:#fff;stroke-width:.26458"/><path d="m1.5077 136.7c-0.010689-0.0279-2.646e-4 -0.0993 0.022939-0.15869 0.098277-0.25025 1.9852-4.3352 2.0895-4.5233 0.20081-0.36246 0.34152-0.43008 0.70903-0.34074 0.30073 0.0731 0.3238 0.14544 0.19089 0.59836-0.10908 0.37177-0.10928 0.63177-7.937e-4 0.92025 0.062905 0.16712 0.083521 0.28601 0.083521 0.48167 0 0.46691-0.19055 0.89707-0.37666 0.85037-0.14091-0.0354-0.47366 0.23607-1.3912 1.1348-1.0174 0.99656-1.2678 1.1922-1.3273 1.0372z" style="fill:#bc8544;stroke-width:.26458"/><path d="m95.041 89.5c-0.26295-0.09677-0.31832-0.30051-0.21611-0.7952 0.05195-0.25141 0.12802-0.50501 0.33523-1.1175 0.24283-0.71781 0.28572-0.88702 0.28797-1.1359 0.0021-0.22145-0.02874-0.36243-0.15114-0.69324-0.13593-0.36735-0.3044-0.68792-0.55308-1.0524-0.17842-0.26148-0.27535-0.37518-0.63458-0.74425l-0.31792-0.32663 0.38679-0.07075c0.4989-0.09125 0.58936-0.10182 0.87122-0.10181 1.0134 2.4e-5 2.145 0.43781 2.9303 1.1336 0.11927 0.10568 0.6695 0.68323 0.6695 0.70273 0 0.0052-0.12586 0.06941-0.27969 0.14262-0.34094 0.16226-0.48406 0.25388-0.61042 0.39074-0.34515 0.37386-0.34695 0.90419-0.0045 1.3325 0.16263 0.20343 0.44588 0.40124 0.68614 0.47919 0.04612 0.01495 0.15643 0.03406 0.24513 0.04246 0.23706 0.02244 0.31443 0.07131 0.31395 0.19838-7.94e-4 0.19764-0.54218 0.87879-0.81783 1.0288-0.11932 0.06494-0.19071 0.0789-0.29226 0.05714-0.07023-0.01505-0.10076-0.03502-0.18514-0.12106-0.18005-0.18359-0.27022-0.4092-0.47646-1.1923-0.23273-0.88366-0.28906-1.0519-0.37468-1.1193-0.05526-0.04347-0.12889-0.04706-0.16776-0.0082-0.07951 0.07951-0.15851 0.39262-0.22625 0.89672-0.0772 0.57452-0.17942 0.95589-0.34983 1.3051-0.10926 0.22394-0.2122 0.36875-0.40651 0.57182-0.22699 0.23726-0.40666 0.29062-0.66207 0.19664z" style="fill:url(#bb);stroke-width:.26458"/></g></g></svg>
