<?xml version="1.0" encoding="UTF-8"?>
<svg width="125.34mm" height="91.358mm" version="1.1" viewBox="0 0 125.34 91.358" xmlns="http://www.w3.org/2000/svg" xmlns:xlink="http://www.w3.org/1999/xlink"><defs><linearGradient id="z-0"><stop stop-color="#4d4d4d" offset="0"/><stop stop-color="#1f1f1f" offset="1"/></linearGradient><linearGradient id="b-0"><stop stop-color="#ff2a2a" offset="0"/><stop stop-color="#a42727" offset="1"/></linearGradient><linearGradient id="y-5"><stop stop-color="#fff725" offset="0"/><stop stop-color="#fff725" stop-opacity="0" offset="1"/></linearGradient><linearGradient id="a-6"><stop stop-color="#fff" offset="0"/><stop stop-color="#b7fdff" offset="1"/></linearGradient><linearGradient id="aa-6" x1="333.62" x2="410.39" y1="593.71" y2="708.62" gradientTransform="matrix(.13862 0 0 .13821 204.65 249.4)" gradientUnits="userSpaceOnUse"><stop stop-color="#fff" offset="0"/><stop stop-color="#72d8db" offset="1"/></linearGradient><linearGradient id="ab-9" x1="183.97" x2="242.96" y1="492.26" y2="608.32" gradientTransform="matrix(.1813 0 0 .12975 192.47 258.48)" gradientUnits="userSpaceOnUse" xlink:href="#z-0"/><linearGradient id="ac-7" x1="588.22" x2="645.09" y1="190.97" y2="314.21" gradientTransform="translate(0,308.27)" gradientUnits="userSpaceOnUse" xlink:href="#z-0"/><linearGradient id="ad-7" x1="694.64" x2="660" y1="487.67" y2="478.38" gradientTransform="translate(0,308.27)" gradientUnits="userSpaceOnUse" xlink:href="#b-0"/><linearGradient id="ae-5" x1="962.19" x2="924.15" y1="549.27" y2="545.98" gradientTransform="translate(0,308.27)" gradientUnits="userSpaceOnUse" xlink:href="#b-0"/><linearGradient id="af-4" x1="706.73" x2="669.69" y1="773.97" y2="765.4" gradientUnits="userSpaceOnUse" xlink:href="#a-6"/><linearGradient id="ag-3" x1="758.61" x2="690.68" y1="659.79" y2="690.51" gradientUnits="userSpaceOnUse" xlink:href="#a-6"/><linearGradient id="ah-2" x1="310.12" x2="311.88" y1="657.9" y2="636.94" gradientUnits="userSpaceOnUse" xlink:href="#a-6"/><linearGradient id="ai-6" x1="513.16" x2="483.25" y1="274.92" y2="255.23" gradientTransform="translate(0,308.27)" gradientUnits="userSpaceOnUse" xlink:href="#a-6"/><linearGradient id="aj-1" x1="501.55" x2="510.16" y1="417.51" y2="390.49" gradientTransform="translate(0,308.27)" gradientUnits="userSpaceOnUse" xlink:href="#a-6"/><linearGradient id="ak-5" x1="876.48" x2="877.01" y1="496.01" y2="520" gradientUnits="userSpaceOnUse" xlink:href="#y-5"/><linearGradient id="al-4" x1="331.46" x2="323.88" y1="311.75" y2="303.04" gradientTransform="matrix(.3384 0 0 .33769 155.41 224.19)" gradientUnits="userSpaceOnUse" xlink:href="#b-0"/><linearGradient id="am-1" x1="220.93" x2="226.08" y1="297.32" y2="304.39" gradientTransform="matrix(.3384 0 0 .33769 155.41 224.19)" gradientUnits="userSpaceOnUse" xlink:href="#b-0"/><linearGradient id="an-0" x1="216.22" x2="220.34" y1="298.27" y2="305.09" gradientTransform="matrix(.3384 0 0 .33769 155.41 224.19)" gradientUnits="userSpaceOnUse" xlink:href="#b-0"/><linearGradient id="ao-7" x1="235.51" x2="228.84" y1="257.62" y2="257.62" gradientTransform="matrix(.29205 0 0 .29205 -89.59 10.393)" gradientUnits="userSpaceOnUse" xlink:href="#a-6"/><linearGradient id="ap-2" x1="241.75" x2="236.04" y1="283.56" y2="260.27" gradientTransform="matrix(.25511 0 0 .27709 -80.905 14.607)" gradientUnits="userSpaceOnUse"><stop stop-color="#000080" offset="0"/><stop stop-color="#2a97ff" offset="1"/></linearGradient><linearGradient id="aq-4" x1="310.06" x2="340.95" y1="231.14" y2="217.48" gradientTransform="matrix(.34461 0 0 .35026 154.01 220.73)" gradientUnits="userSpaceOnUse" xlink:href="#a-6"/><linearGradient id="ar" x1="347.25" x2="346.59" y1="181.92" y2="208.44" gradientTransform="matrix(.3384 0 0 .33769 155.41 224.19)" gradientUnits="userSpaceOnUse" xlink:href="#a-6"/><linearGradient id="as" x1="336.46" x2="338.78" y1="291.33" y2="265.57" gradientTransform="matrix(.3384 0 0 .33769 155.41 224.19)" gradientUnits="userSpaceOnUse" xlink:href="#a-6"/><linearGradient id="at" x1="179.33" x2="193.32" y1="345.51" y2="366.72" gradientTransform="matrix(.25715 0 0 .27083 175.99 243.92)" gradientUnits="userSpaceOnUse" xlink:href="#y-5"/><linearGradient id="linearGradient1199" x1="241.75" x2="236.04" y1="283.56" y2="260.27" gradientTransform="matrix(.25511 0 0 .27709 -80.905 14.607)" gradientUnits="userSpaceOnUse" xlink:href="#ap-2"/></defs><g transform="translate(204.23 -113.71)"><g transform="translate(-406.01 -163.05)"><path d="m263.47 347.6s-6.867-0.95276-9.8487-3.8545c-2.9814-2.9017-9.254-13.412-9.254-13.412s-3.3468 1.2372-4.5903 0.71006c-1.2436-0.5271-1.8982-1.5848-1.6564-2.4707 0.24178-0.88598 4.1979-3.1432 4.1979-3.1432s-3.256 0.43949-4.4332-0.36116c-1.1772-0.80064-1.5891-1.5147-1.0612-2.4386 0.52794-0.92383 2.9309-1.9165 2.9309-1.9165s-1.6197-8e-3 -2.3132-1.0346c-0.69344-1.027-1.02-1.8718-0.43833-2.649 0.58171-0.77727 2.2543-1.8525 3.5617-2.1964 1.3074-0.34383 4.7596-0.3396 7.3697-0.67656 2.6102-0.33694 7.4859-0.76879 8.645-0.42686 1.1589 0.34191 1.5107 0.3466 1.8032 0.87149 0.29248 0.52488-0.87826 5.2403-0.68718 9.4418 0.19113 4.2018 0.29145 9.2014 1.9543 12.235 1.6628 3.0336 3.9693 6.9128 4.8337 7.678 0.86413 0.76525 3.258 2.0197 3.258 2.0197z" style="fill:url(#aa-6);stroke-width:.26458"/><path d="m237.51 319.91s-2.931 1.048-3.3579 1.7058c-0.42688 0.65787-0.93024 1.5073-0.43174 2.1415 0.49846 0.63406 1.2234 1.5834 2.6234 1.763 0 0-1.7762 0.44932-2.2433 1.0709-0.4672 0.62156-1.0367 1.5976-0.50724 2.0364 0.52946 0.43872 1.3402 1.4279 2.4217 1.5817 1.0815 0.15379 3.1141 0.12102 3.1141 0.12102s-2.9578 1.5075-3.2781 2.0752c-0.32039 0.56757-0.72144 1.0626 0.0552 1.6863 0.7766 0.6237 1.4612 1.5367 2.6089 1.564 1.1477 0.0273 5.6448-0.72866 5.6448-0.72866s7.5605 8.6936 8.7912 9.6505c1.2305 0.95734 2.7063 2.6931 3.9027 3.2849 1.1964 0.5918 2.6554 1.2709 4.5247 1.6866 1.8694 0.41563 7.615 1.3769 7.615 1.3769l-6.2538 1.3718s-6.4284-2.4678-9.9213-4.2683c-3.4929-1.8007-6.6881-3.4452-7.7166-4.2213-1.0289-0.77618-6.4536-4.0526-7.8884-4.3012-1.4351-0.24846-6.8599-0.32634-7.9976-0.41872-1.1373-0.0924-3.1184-0.38518-4.0262-1.0525-0.90793-0.66734-0.0819-1.2268 0.50013-1.4104 0.58204-0.18355 1.6045-0.52923 1.6045-0.52923s-5.1033 0.50884-8.2425 0.25389c-3.1392-0.25493-5.1261-0.21849-5.811-1.1315-0.68461-0.913-0.42424-1.6832 0.0462-1.744 0.47042-0.0607 3.1245 0.056 5.5532-0.43936 2.4286-0.49525 9.2355-2.4486 9.2355-2.4486s-5.484 0.87367-8.3455 0.90504c-2.8618 0.0313-8.3218-0.11531-9.8454-1.2613-1.5232-1.146-1.3031-1.9525-0.83075-2.6067 0.47236-0.65413 0.69562-0.89984 1.1102-0.89914 0.4146 7.1e-4 6.3701 0.2206 9.5212-0.18299 3.1512-0.40358 9.0651-1.3742 9.0651-1.3742s-6.9292 0.69033-10.872 0.27119c-3.9425-0.41913-7.9103-0.67547-9.3171-1.9769-1.4064-1.3014-1.1211-1.9377-0.63331-2.6896 0.48784-0.7518 0.36171-0.828 1.2932-1.1811 0.93146-0.35304 3.5681 0.4547 5.8428 0.63946 2.2747 0.18474 10.47 0.22387 14.425-0.0155 3.9546-0.23941 8.0199-0.30494 8.0199-0.30494z" style="fill:url(#ab-9);stroke-width:.26458"/><g transform="matrix(.11067 0 0 .12007 220.16 262.63)" style="stroke-width:2.5334"><path d="m304.11 621.47s-15 40.536-16.071 56.964c-1.0714 16.429 2.5 45 8.75 52.857 6.25 7.8572 21.607 26.786 48.75 34.464 27.143 7.6786 62.321 11.607 62.321 11.607l-5.5357-9.8214s11.964 13.214 16.429 16.071c4.4643 2.8571 16.429 9.8214 16.429 9.8214s-3.0357-8.3929-2.8571-14.643 1.6071-11.339 1.6071-11.339 4.6429 10.804 10.714 16.161 10.357 8.125 10.357 8.125c-2.0536-9.1964-0.35714-16.339-0.35714-16.339s5 10 10.893 13.393c5.8928 3.3929 40.893 6.25 56.25 3.9286s83.75-14.821 83.75-14.821l-41.964 12.679s33.75 5 46.964 5.8928c13.214 0.89286 26.071 5 38.75 1.0714s21.607-6.6071 24.464-12.321c2.8572-5.7143 3.3929-9.2857 0.17857-12.857-3.2143-3.5714-47.679-17.143-47.679-17.143l23.929 3.0357s11.964 0.71429 21.25-5.1786l-17.5-5.5357s36.964 7.5 47.143 6.7857c10.179-0.71429 24.107 2.5 33.393-5.1786 9.2857-7.6786 10.536-13.929 9.4643-15.536-1.0714-1.6071-9.2857 0-15.179 0.35714-5.8928 0.35715-40.714-1.7857-53.214-3.75s-18.571-8.3928-18.571-8.3928 21.964 4.4643 44.107 1.7857 37.679-5.8929 48.571-11.071 16.429-10.179 17.321-16.964c0.89286-6.7857 0.17857-11.25-2.3214-12.321s-7.6786 2.3214-11.964 3.0357c-4.2857 0.71429-37.143 6.25-56.607 8.3929s-67.504 1.3473-86.697 0.33711c-19.193-1.0102-60.862-6.0609-60.862-6.0609s-9.7227 13.637-24.749 19.445-30.178 7.4499-42.3 4.1669-22.981-15.279-22.981-15.279 12.753 8.7126 28.032 5.177c15.279-3.5355 29.421-13.637 33.84-22.097 4.4194-8.46 15.405-31.441 20.961-45.204s14.521-25.885 23.107-34.598c8.5863-8.7126 10.733-9.4702 10.733-9.4702s3.7881 2.0203 8.8388-0.3788c5.0508-2.3991 7.1973-5.8084 7.1973-5.8084s-6.1872-1.894-10.48-6.9448c0 0 13.258 4.672 21.466 3.6618 8.2075-1.0102 21.339-3.0304 25.001-9.3439 3.6618-6.3134 0.25254-10.354-3.4093-12.627-3.6618-2.2728-30.305-9.3439-30.305-9.3439s18.183 3.9143 24.875 3.7881 26.895-2.2728 32.451-7.3236 5.8084-9.4702 4.4194-13.006c-1.389-3.5355-4.9245-9.9753-10.228-12.753s-32.451-9.4702-32.451-9.4702l8.0812-0.37881 7.3236 1.5152s8.5863-0.12627 15.784-5.8084c7.1973-5.6821 11.364-11.112 11.238-16.541s-1.894-10.985-9.0914-14.016c-7.1973-3.0305-12.627-3.0305-19.067-3.283-6.4397-0.25254-10.354 0.12626-10.354 0.12626l12.879-1.894s1.7678-1.0102-0.25254-1.6415c-2.0203-0.63135-27.274 0.12627-38.891 3.283-11.617 3.1567-40.154 5.4296-63.64 22.981-23.486 17.551-40.027 47.225-47.603 64.902-7.5762 17.678-36.365 79.171-42.931 94.197s-10.859 29.673-22.981 40.659-24.622 14.016-40.406 12.627-27.653-6.0609-32.83-12.879c-5.177-6.8185-10.733-17.425-10.354-27.653 0.37881-10.228 7.5761-40.28 10.859-48.992s1.6415-19.193 1.6415-19.193z" style="fill:#fff;stroke-width:2.5334"/><path d="m472.05 705.04s13.125 7.5893 25.268 6.7857c12.143-0.80358 33.929-7.4107 44.196-18.75 10.268-11.339 16.339-27.857 20.268-31.964s16.875-5.8036 19.018-8.5714c2.1429-2.7679 3.125-3.8393 2.6786-6.1607-0.44643-2.3214-3.9286-3.6607-3.9286-3.6607s4.5536 0.625 7.2322-0.53571c2.6786-1.1607 3.2143-5 3.2143-5s14.107 8.4821 23.661 9.8214c9.5536 1.3393 18.304 3.2143 23.482-0.0893 5.1786-3.3036 8.4821-5.5357 7.7679-7.3214-0.71429-1.7857-6.0714-5.0893-9.375-8.2143s-12.589-15.089-12.589-15.089 18.214 9.375 27.768 11.875 17.411 7.2321 28.214 3.8393c10.804-3.3929 14.464-5.0893 16.875-8.2143 2.4107-3.125 4.6428-4.2857 3.9286-6.3393-0.71429-2.0536-8.2143-2.0536-13.393-3.4822s-16.607-4.8214-22.411-10.357c-5.8036-5.5357-5.4464-8.2143-5.4464-8.2143s11.339 1.1607 16.696 0.35715c5.3571-0.80357 33.929 6.25 42.768 8.3036 8.8393 2.0536 44.018 12.857 53.214 14.018 9.1964 1.1607 28.661 0.71428 35.446-6.25 6.7857-6.9643 15.893-19.643 14.107-22.857-1.7857-3.2143-3.6607-0.89285-9.0179-1.7857-5.3571-0.89286-47.768-11.786-64.286-16.339s-47.143-16.518-47.143-16.518 47.946 7.7678 58.304 9.1071c10.357 1.3393 53.839 4.2857 62.946 2.4107s16.161-4.5536 20-9.6428c3.8393-5.0893 9.6429-19.375 8.4821-23.036-1.1607-3.6607-3.3036-5.1786-5.5357-5.1786s-29.732 1.0714-39.911 1.0714-32.054-3.2143-48.571-5.9821c-16.518-2.7679-43.125-13.304-43.125-13.304s42.946 3.9286 71.696 0 49.821-5.2678 55.625-9.6428c5.8036-4.375 9.1071-11.161 9.1071-17.321 0-6.1607-0.53572-11.875-3.8393-15.625s-3.8393-4.8214-7.5-4.8214-10.714 1.6071-15.714 2.2321-36.607 4.1964-54.821 5.8036-58.75-0.71428-75.446-1.3393-21.875-1.4286-34.911-0.80357c-13.036 0.625-25.089 1.6071-25.089 1.6071l-0.44643 1.5179s13.661 0.625 18.571 4.2857 7.3214 9.6429 7.1429 15.446-5.8036 14.196-11.25 17.411c-5.4464 3.2143-14.018 5.8036-14.018 5.8036s12.054 1.875 15.714 5.3571c3.6607 3.4821 10.804 11.25 11.071 17.589 0.26786 6.3393-4.1071 11.518-11.696 14.464-7.5893 2.9464-24.554 4.4643-24.554 4.4643s6.6964 2.9464 7.6786 5.7143c0.98215 2.7679 1.6072 8.0357-0.44642 11.161-2.0536 3.125-9.9107 8.4821-18.75 9.7321s-15.982 1.4286-15.982 1.4286-3.8393 6.5179-9.2857 8.5714-10.357 0.98214-10.357 0.98214-8.6607 6.1607-17.054 17.411c-8.3928 11.25-15.982 26.429-22.411 42.232s-12.679 30-17.857 34.821-9.6429 8.4821-19.375 12.768c-9.7322 4.2857-15.893 5.625-26.607 4.0179z" style="fill:url(#ac-7);stroke-width:2.5334"/><path d="m678.66 776.38-0.35714 5.2679s123.21 33.304 132.5 35.714c9.2857 2.4107 22.232 5.9821 30 5.0893 7.7678-0.89286 17.5-5.9822 21.518-10.179 4.0179-4.1964 16.339-9.375 17.232-11.25 0.89285-1.875 0.71428-5.0893-2.1429-7.6786-2.8571-2.5893-5.3571-4.9107-10.089-2.5893-4.7321 2.3214-21.161 16.429-28.036 19.732s-18.839 2.0536-25.268 0.625-66.071-15.804-84.643-20.804c-18.571-5-50.714-13.929-50.714-13.929z" style="fill:#8e2100;stroke-width:2.5334"/><path d="m677.41 783.43s142.86 38.214 149.02 39.821c6.1607 1.6071 12.679 1.875 17.054 1.1607 4.375-0.71428 14.821-4.7321 19.643-8.2143 4.8214-3.4822 18.839-12.857 25.982-14.464 7.1428-1.6071 9.5536-0.17857 12.054 1.0714s3.9286 2.7679 4.0179 4.2857c0.0893 1.5179-4.8214 6.6072-9.7322 10-4.9107 3.3929-11.786 7.6786-12.143 14.375-0.35715 6.6964 1.6964 9.2857 4.4643 11.339s18.571 10.804 29.464 14.286c10.893 3.4822 28.125 7.7679 35.357 8.2143s11.607-0.44643 12.946 0.98214 1.0714 4.1072-0.0893 6.0714c-1.1607 1.9643-4.1071 6.0714-10.179 6.0714s-22.679 0.0893-39.732-5.5357c-17.054-5.625-33.661-12.321-45.357-18.929-11.696-6.6071-19.464-10.804-19.464-10.804l-61.607-14.375 4.9107-4.9107s-14.821 6.3393-28.214 3.75-17.321-13.393-17.321-13.393l-1.3393 1.5179-80.357-20.357s5.1786-2.0536 7.8571-5.8929c2.6786-3.8393 2.7679-6.0714 2.7679-6.0714z" style="fill:url(#ad-7);stroke-width:2.5334"/><path d="m894.02 844.33s20 10.179 32.411 13.393c12.411 3.2143 35.446 5.8036 35.446 5.8036s5.3571-8.5714 3.6607-11.696-4.1964-3.125-7.9464-2.7679-18.036 2.8571-27.857 1.875-35.714-6.6071-35.714-6.6071z" style="fill:url(#ae-5);stroke-width:2.5334"/><path d="m886.79 828.79s-2.3214 3.0357-1.6071 6.25c0.71428 3.2143 4.6875 6.3393 4.6875 6.3393s33.438 6.6518 41.161 7.0536c7.7232 0.40179 19.598-0.40179 19.598-0.40179s2.0089-5.5804 1.0268-7.7678-2.9464-4.8661-7.2321-5.0893c-4.2857-0.22321-15.938 2.9464-24.598 2.9464-8.6607 0-17.679-0.22321-22.054-2.7232s-10.982-6.6072-10.982-6.6072z" style="fill:#8e2100;stroke-width:2.5334"/><path d="m651.34 760.49s20.192 7.2346 23.125 9.5536c2.0457 1.6172 3.8393 4.6429 3.8393 4.6429s1.6964-2.7679 2.3214-5 1.3393-4.0179-0.26785-5.2679c-1.6072-1.25-13.571-6.5179-13.571-6.5179s-4.6428 2.3214-15.446 2.5893z" style="fill:url(#af-4);stroke-width:2.5334"/><path d="m663.75 694.59s28.214-8.9286 33.839-11.607 20.446-8.9286 22.5-6.875-0.44643 12.5-0.44643 12.5-19.018 3.3929-26.875 4.1964-29.018 1.7857-29.018 1.7857z" style="fill:url(#ag-3);stroke-width:2.5334px;stroke:#000"/><path d="m338.15 612.43-37.844 21.906c-3.4093 6.566-4.7659 12.967-9.125 27.188 5.0453-8.5203 12.79-13.969 21.469-13.969 6.5477 0 13.314 4.1078 18.039 9.2914 2.2715-9.978 4.1477-20.8 5.8049-25.198 3.283-8.7126 1.6562-19.219 1.6562-19.219z" style="fill:url(#ah-2);stroke-width:2.5334"/><path d="m417.7 696.79c19.445-25.001 31.315-55.558 42.426-85.358 11.112-29.8 34.345-74.751 41.416-84.853 7.0711-10.102 21.213-30.305 42.426-37.881 21.213-7.5761 42.426-13.637 54.548-14.142 12.122-0.50507 27.022-2.2728 35.86 1.0102 8.8388 3.283 13.89 3.5355 11.364 9.0914s-6.0609 9.849-18.688 10.354c-12.627 0.50508-57.074-1.7678-83.085 35.355-26.011 37.123-43.689 96.722-60.104 120.21-16.415 23.486-21.971 34.093-31.315 40.406-9.3439 6.3134-34.85 5.8084-34.85 5.8084z" style="fill:url(#ai-6);stroke-width:2.5334"/><path d="m459.11 697.8s0.75762 33.082 11.617 45.709 20.456 22.476 38.133 19.951 30.557-8.5863 38.133-22.476c7.5761-13.89 2.2728-52.275 2.2728-52.275s-11.364 13.637-23.739 18.94c-12.374 5.3033-22.981 8.0812-35.608 6.8185s-30.81-16.668-30.81-16.668z" style="fill:url(#aj-1);stroke-width:2.5334"/><path transform="translate(0,308.27)" d="m850.3 516.81s29.8-19.445 37.376-20.708c7.5762-1.2627 11.617-1.0102 13.132 1.2627 1.5152 2.2728-5.8084 9.0914-12.122 14.142-6.3135 5.0508-9.0914 8.5863-9.0914 12.879s-10.607 5.0508-20.708 3.0305c-10.102-2.0203-8.5863-10.607-8.5863-10.607z" style="fill:url(#ak-5);stroke-width:2.5334"/></g><path d="m228.38 331.28c12.163 5.8973 3.3418 10.238 10.325 12.97 4.7739-2.6533 17.231-5.4623 20.463-7.121 3.2329-1.6583 16.572-13.254 16.572-13.254-3.5694-46.578-6.6646-1.2768-25.318-6.6339l-24.456 2.324s-1.9052 3.4525-1.6333 4.7792c0.27192 1.3267 0.76781 3.0384 1.5107 4.1911 0.55802 0.86591 1.7081 1.8921 2.538 2.7438z" style="fill:#800000"/><path d="m258.61 334.68c-3.1835 2.7492-3.0533 3.932-11.389 7.9724-41.872 21.337-63.52 25.625-26.452-3.2042 4.3564-3.1241 7.9701-6.5966 9.6038-9.0126 1.6336-2.416 5.8209-6.4438 7.7479-6.5271 1.9268-0.0833 6.9188 1.3576 8.1334 2.1073 1.2147 0.74977 3.8126 2.1391 8.3778 1.8744 5.3145-0.30812 5.9899-3.4156 12.692-4.8735-1.9577 4.4317-5.0307 8.3112-8.7129 11.663z" style="fill:#ff2a2a;stroke-width:.29205"/><path d="m257.15 337.06c9.3574-3.8801 15.34-13.943 15.34-13.943s-0.8973-0.72488-3.4185-0.51168c0 0-4.2729 8.6988-11.921 14.455z" style="fill:url(#al-4);stroke-width:.29205"/><path d="m230.27 323.79c2.051 1.4924 2.756 2.2813 2.756 2.2813-0.85459 1.3432-1.6664 2.0467-1.6664 2.0467s-1.2391-1.6417-1.0896-4.3279z" style="fill:url(#am-1);stroke-width:.29205"/><path d="m229.03 330.7 1.4528-1.4924s-1.6451-1.1086-2.051-2.5158c-0.40594-1.4071-0.44864-3.3686-0.44864-3.3686l-1.4528 0.25585s1.7519-1.1939 3.2688-0.85279c1.5169 0.3411 3.6959 2.7929 3.6959 2.7929s2.1792-2.1533 4.5294-2.3879c2.3501-0.23452 6.0037 0.68225 7.7342 1.5137 1.7305 0.83145 3.9524 2.3452 7.2424 2.3239 3.2901-0.0213 4.4864-0.6183 5.5974-1.3005 1.111-0.68223 5.9823-3.8588 9.8492-3.9656 3.8668-0.10675 7.2852 2.1746 7.2852 2.1746l-2.4356-0.61829s-1.3673 2.3665-3.2474 4.6052c-1.88 2.2386-6.6017 6.4812-6.6017 6.4812s5.3074-1.3315 8.2382-3.0802c2.9307-1.7488 4.7587-3.8744 5.5746-5.7737 0.81576-1.8995 0.67982-4.6281 0.67982-4.6281l1.1935 1.1005-0.6345-1.387c0.51366 0.18089 1.133 0.6784 1.133 0.6784s-0.89131-2.578-2.5229-3.5428l2.7041 0.99496s-1.7977-2.382-3.7162-2.9096c-1.9186-0.52763-6.118-0.13568-6.118-0.13568s3.0667-0.91963 6.0578-0.6784c0 0 1.9488-4.3418 1.8279-7.5077-0.12086-3.1659-2.2812-7.2213-3.9578-9.2715-1.6769-2.0503-2.4322-3.0905-2.4322-3.0905s0.86783 0.5264 1.5711 0.6935c0.95174 0.22612 3.5179-0.48366 4.4566-0.84424 1.1996-0.46095 2.7646-1.7186 2.3718-3.7991 0 0-2.0545 1.5679-3.9578 1.99-1.9033 0.42212-7.0094 0.84424-7.0094 0.84424s5.9975-2.382 8.822-4.9602c2.825-2.578 3.5802-4.4474 3.807-6.0302 0.2266-1.5829-0.24171-5.1409-4.4715-6.2564 0 0-0.12086 4.4322-1.2539 6.9047-1.133 2.4724-2.9005 4.3117-3.9578 5.3823-1.0575 1.0704-4.2147 2.4423-4.2147 2.4423s1.2924-1.3197 1.4805-2.8041c0.16617-1.3116-0.12085-2.789-1.843-3.5127 0 0 0.12085 2.3367-0.24172 3.4374-0.36255 1.1005-1.7524 2.8644-1.7524 2.8644s-4.9096-2.7588-11.134-2.5177c-6.2239 0.24122-9.8496 1.1458-14.14 3.3769-4.2907 2.2312-7.1304 4.1607-7.8557 5.9701-0.72514 1.8091-0.75538 8.4726-1.0877 10.116-0.33234 1.6432-1.1632 5.4273-1.9488 6.935-0.78557 1.5076-2.6135 2.6684-3.3537 3.618-0.74025 0.94968-1.2992 2.2764-1.2992 2.2764l1.4956-1.6734s-0.69492 1.8091-0.81575 2.8041c-0.12087 0.99496 0.0453 2.6835 0.0453 2.6835l0.39278-1.5076s0.15107 2.3066 0.67982 3.6332c0.52875 1.3267 2.7703 3.5201 2.7703 3.5201z" style="fill:#fff;stroke-width:.29205"/><path d="m228.58 323.24 0.85457 0.0639c-0.0213 3.4752 1.6878 5.3085 1.6878 5.3085l-0.27773 0.27716s-2.3928-1.1939-2.2646-5.6502z" style="fill:url(#an-0);stroke-width:.29205"/><path d="m254.12 322.54s1.9639-2.8945 4.7436-4.2512l0.36255-1.598 0.33235 1.206c2.689-1.2965 5.8916-1.8091 5.8916-1.8091s-4.8342 1.779-6.2239 2.6533c-1.3899 0.87438-5.1061 3.7991-5.1061 3.7991z" style="stroke-width:.29205"/><g transform="matrix(1.1587 0 0 1.1563 259.22 212.17)" style="stroke-width:.86392"><path d="m-26.122 93.44s1.9817 0.23468 2.8422 0.78228c0.86049 0.5476 3.1813 1.7992 3.1813 1.7992l-0.93873-1.1734s1.4342 0.2086 2.06-0.18253c0.6258-0.39114 1.2205-1.273 1.4081-2.1643 0.52151-2.4772 0.49543-11.447 0.39114-13.429-0.1043-1.9817-0.88657-4.1199-2.3207-4.2505-1.4342-0.13038-3.3898 3.0247-3.7289 5.2411-0.33898 2.2164-0.88657 8.8137-0.49543 13.246 0 0-0.56739-0.19031-0.86049-0.18253-0.36886 0.0098-1.5385 0.3129-1.5385 0.3129z" style="stroke-width:.25231"/><path d="m-23.149 93.387s0.7562 0.86049 1.8514 0.96481c1.2484 0.1189 1.7731 0.2086 2.3729-0.4433 0.59975-0.6519 1.0169-3.0247 1.043-4.9543 0.02608-1.9296 0.07822-6.7796-0.1043-7.6662-0.18253-0.88657-1.0169-3.103-2.0339-3.2073s-2.3729 1.4602-2.7379 2.8422c-0.36506 1.382-0.52151 4.0156-0.52151 5.5801s-0.02608 4.5372 0.13038 6.8838z" style="fill:url(#ao-7);stroke-width:.25231"/><path d="m-17.573 89.223c0 3.0571-1.0608 5.5353-2.3694 5.5353s-2.3694-2.4782-2.3694-5.5353 1.0608-5.5353 2.3694-5.5353 2.3694 2.4782 2.3694 5.5353z" style="stroke-width:.27197"/><path d="m-18.107 89.123c0 2.7327-0.84643 4.948-1.8905 4.948s-1.8905-2.2153-1.8905-4.948 0.84643-4.948 1.8905-4.948 1.8905 2.2153 1.8905 4.948z" style="fill:url(#linearGradient1199);stroke-width:.22969"/><path d="m-18.848 90.168c0 1.3593-0.42103 2.4613-0.9404 2.4613s-0.9404-1.102-0.9404-2.4613 0.42103-2.4613 0.9404-2.4613c0.51936 0 0.9404 1.102 0.9404 2.4613z" style="stroke-width:.11426"/><path d="m-19.543 86.967c0 1.3593-0.42103 2.4613-0.9404 2.4613s-0.9404-1.102-0.9404-2.4613 0.42103-2.4613 0.9404-2.4613c0.51936 0 0.9404 1.102 0.9404 2.4613z" style="fill:#fff;stroke-width:.11426"/></g><path d="m276.04 314.73s-4.6154-0.25018-8.8002 0.75058c-4.1846 1.0007-6.2154 1.7513-6.2154 1.7513s1.7846-9.3822 0.67694-12.759c-1.1077-3.3775-3.3846-8.1934-7.0151-8.5062-3.6309-0.31273-10.707-0.62545-14.954 0.37527-4.246 1.0007-5.969 1.376-7.0151 3.5026-1.0462 2.1266-0.98458 3.315-0.98458 3.315s0.0616-4.1281 0.49229-5.1911c0.43077-1.0632 4.123-4.3155 7.8153-5.8792 3.6922-1.5637 5.9078-2.8771 10.523-3.3775 4.6154-0.50037 8.6341-0.11497 12.307 1.2509 2.5231 0.93822 4.8973 1.931 7.2002 4.1905 1.7846 1.7513 4.4641 4.1348 5.7232 6.5048 1.02 1.9199 2.0923 3.9404 1.9692 6.7552-0.12306 2.8146-1.7231 7.3179-1.7231 7.3179z" style="fill:url(#aq-4);stroke-width:.29205"/><path d="m277.06 276.75s-0.11479 4.4292-1.2478 6.9019c-1.133 2.4724-2.9081 4.3117-3.9656 5.3823-1.0575 1.0704-4.209 2.4483-4.209 2.4483s1.2924-1.3227 1.4805-2.8071c0.16617-1.3116-0.11783-2.7905-1.84-3.514 0 0 0.11934 2.3398-0.24323 3.4404-0.24577 0.74603-1.4184 2.3612-1.8553 2.9608 1.493 0.77339 2.4945 1.3842 3.8343 2.3507 2.5534-1.0509 6.6008-2.952 8.7119-4.8792 2.825-2.5779 3.5802-4.4427 3.807-6.0259 0.2266-1.5829-0.24322-5.1424-4.4732-6.2578zm2.8129 14.416s-2.0515 1.5618-3.9551 1.984c-1.2895 0.28596-4.9096 0.73345-6.5552 0.88816 1.264 0.58418 2.442 1.4301 3.679 1.7712 0.943 0.26006 3.524-0.48366 4.4628-0.84423 1.1996-0.46095 2.7615-1.7186 2.3688-3.7991z" style="fill:url(#ar);stroke-width:.29205"/><path d="m254.16 323.15c1.3833-1.5172 3.3517-3.3342 5.0848-4.3066 3.566-2.001 8.3375-3.8083 11.265-4.0113 5.2115-0.36132 3.7797-0.95876 5.5315-0.10595 1.7519 0.8528 3.5423 3.7334 3.5423 3.7334l-2.8201-0.81016c2.1364 1.3645 2.9483 3.6245 2.9483 3.6245s-0.42728-0.29848-1.2391-0.89543l0.64091 1.6203s-0.55547-0.93808-1.2819-1.2792l-0.34185 3.9656s-4.0164-3.0701-7.6483-3.0701c-3.632 0-6.2813 0.89543-8.6312 2.3879-2.3501 1.4924-2.3501 1.9615-4.4864 2.3879-2.1364 0.4264-3.4185 0.59695-4.4438-0.42642-1.0254-1.0234 1.1198-1.9803 1.88-2.8143z" style="fill:url(#as);stroke-width:.29205"/><path d="m237.83 324.41c-2.0199 0.73136-3.9072 2.4887-6.2163 5.0733-2.4442 3.6296-7.2524 7.7784-10.087 9.9193-9.2872 6.6378-26.764 22.407-15.968 17.218 3.929-2.4622 46.902-29.369 46.902-29.369s-3.3769 0.64973-4.968 0.17098c-1.5911-0.47878-2.9547-1.6757-4.6431-2.1886-1.5708-0.29745-3.754-1.2498-5.0197-0.82412z" style="fill:url(#at);stroke-width:.29205"/><g transform="matrix(1.1587 0 0 1.1563 277.06 212.17)" style="stroke-width:.86392"><path d="m-26.122 93.44s1.9817 0.23468 2.8422 0.78228c0.86049 0.5476 3.1813 1.7992 3.1813 1.7992l-0.93873-1.1734s1.4342 0.2086 2.06-0.18253c0.6258-0.39114 1.2205-1.273 1.4081-2.1643 0.52151-2.4772 0.49543-11.447 0.39114-13.429-0.1043-1.9817-0.88657-4.1199-2.3207-4.2505-1.4342-0.13038-3.3898 3.0247-3.7289 5.2411-0.33898 2.2164-0.88657 8.8137-0.49543 13.246 0 0-0.56739-0.19031-0.86049-0.18253-0.36886 0.0098-1.5385 0.3129-1.5385 0.3129z" style="stroke-width:.25231"/><path d="m-23.149 93.387s0.7562 0.86049 1.8514 0.96481c1.2484 0.1189 1.7731 0.2086 2.3729-0.4433 0.59975-0.6519 1.0169-3.0247 1.043-4.9543 0.02608-1.9296 0.07822-6.7796-0.1043-7.6662-0.18253-0.88657-1.0169-3.103-2.0339-3.2073s-2.3729 1.4602-2.7379 2.8422c-0.36506 1.382-0.52151 4.0156-0.52151 5.5801s-0.02608 4.5372 0.13038 6.8838z" style="fill:url(#ao-7);stroke-width:.25231"/><path d="m-17.573 89.223c0 3.0571-1.0608 5.5353-2.3694 5.5353s-2.3694-2.4782-2.3694-5.5353 1.0608-5.5353 2.3694-5.5353 2.3694 2.4782 2.3694 5.5353z" style="stroke-width:.27197"/><path d="m-18.107 89.123c0 2.7327-0.84643 4.948-1.8905 4.948s-1.8905-2.2153-1.8905-4.948 0.84643-4.948 1.8905-4.948 1.8905 2.2153 1.8905 4.948z" style="fill:url(#linearGradient1199);stroke-width:.22969"/><path d="m-18.848 90.168c0 1.3593-0.42103 2.4613-0.9404 2.4613s-0.9404-1.102-0.9404-2.4613 0.42103-2.4613 0.9404-2.4613c0.51936 0 0.9404 1.102 0.9404 2.4613z" style="stroke-width:.11426"/><path d="m-19.543 86.967c0 1.3593-0.42103 2.4613-0.9404 2.4613s-0.9404-1.102-0.9404-2.4613 0.42103-2.4613 0.9404-2.4613c0.51936 0 0.9404 1.102 0.9404 2.4613z" style="fill:#fff;stroke-width:.11426"/></g></g></g></svg>
