<?xml version="1.0" encoding="UTF-8" standalone="no"?>
<!-- Created with Inkscape (http://www.inkscape.org/) -->

<svg
   xmlns:dc="http://purl.org/dc/elements/1.1/"
   xmlns:cc="http://creativecommons.org/ns#"
   xmlns:rdf="http://www.w3.org/1999/02/22-rdf-syntax-ns#"
   xmlns:svg="http://www.w3.org/2000/svg"
   xmlns="http://www.w3.org/2000/svg"
   xmlns:sodipodi="http://sodipodi.sourceforge.net/DTD/sodipodi-0.dtd"
   xmlns:inkscape="http://www.inkscape.org/namespaces/inkscape"
   width="90.383606mm"
   height="117.42556mm"
   viewBox="0 0 90.383606 117.42556"
   version="1.1"
   id="svg8"
   inkscape:version="0.92.3 (2405546, 2018-03-11)"
   sodipodi:docname="zarowa.svg">
  <defs
     id="defs2" />
  <sodipodi:namedview
     id="base"
     pagecolor="#ffffff"
     bordercolor="#666666"
     borderopacity="1.0"
     inkscape:pageopacity="0.0"
     inkscape:pageshadow="2"
     inkscape:zoom="1.4"
     inkscape:cx="312.30104"
     inkscape:cy="233.99035"
     inkscape:document-units="mm"
     inkscape:current-layer="layer1-4"
     showgrid="false"
     inkscape:window-width="1920"
     inkscape:window-height="1017"
     inkscape:window-x="-8"
     inkscape:window-y="-8"
     inkscape:window-maximized="1"
     fit-margin-top="0"
     fit-margin-left="0"
     fit-margin-right="0"
     fit-margin-bottom="0" />
  <metadata
     id="metadata5">
    <rdf:RDF>
      <cc:Work
         rdf:about="">
        <dc:format>image/svg+xml</dc:format>
        <dc:type
           rdf:resource="http://purl.org/dc/dcmitype/StillImage" />
        <dc:title></dc:title>
      </cc:Work>
    </rdf:RDF>
  </metadata>
  <g
     inkscape:label="Layer 1"
     inkscape:groupmode="layer"
     id="layer1"
     transform="translate(-68.956993,-107.88538)">
    <g
       transform="matrix(15.934716,0,0,14.947483,-1261.7308,-1754.1856)"
       id="layer1-4"
       inkscape:label="Layer 1">
      <path
         inkscape:connector-curvature="0"
         id="path2397"
         sodipodi:nodetypes="csssscssccc"
         style="fill:#d5e5ff;fill-opacity:1;fill-rule:evenodd;stroke:#002255;stroke-width:0.20218706;stroke-miterlimit:4;stroke-dasharray:none"
         d="m 88.18578,128.63528 c -0.476682,0.60642 -0.724418,1.02251 -0.750639,1.51919 -0.01957,0.36715 -0.195682,0.6762 -0.401345,0.77033 -0.35086,0.16056 -1.147483,0.1793 -1.568789,0.002 -0.161242,-0.0681 -0.367296,-0.33174 -0.436763,-0.77552 -0.0953,-0.61143 -0.243038,-1.04001 -0.624815,-1.48213 -0.317202,-0.44899 -0.464747,-0.95755 -0.464747,-1.49567 0,-1.37908 1.051795,-2.49817 2.347606,-2.49817 1.295615,-10e-5 2.34741,1.11877 2.34741,2.49784 0,0.52356 -0.188834,1.05855 -0.447918,1.46255 z" />
      <g
         transform="matrix(1.0673126,0,0,1.0261022,52.143507,-222.98296)"
         style="display:none"
         inkscape:label="Layer 2"
         id="layer2">
        <ellipse
           ry="12.473214"
           rx="24.946428"
           cy="54.906246"
           cx="73.886879"
           id="path815"
           style="opacity:1;fill:#ff8080;fill-opacity:1;fill-rule:evenodd;stroke:none;stroke-width:0.79400003;stroke-linecap:round;stroke-linejoin:round;stroke-miterlimit:4;stroke-dasharray:none;stroke-opacity:1;paint-order:normal" />
        <ellipse
           ry="4.9444861"
           rx="6.0135641"
           cy="54.733601"
           cx="73.962959"
           id="path832"
           style="opacity:1;fill:#ff0000;fill-opacity:1;fill-rule:evenodd;stroke:none;stroke-width:0.79400003;stroke-linecap:round;stroke-linejoin:round;stroke-miterlimit:4;stroke-dasharray:none;stroke-opacity:1;paint-order:normal" />
        <ellipse
           ry="1.5119048"
           rx="1.6300223"
           cy="52.496647"
           cx="71.319389"
           id="path851"
           style="opacity:1;fill:#ffffff;fill-opacity:1;fill-rule:evenodd;stroke:none;stroke-width:0.79400003;stroke-linecap:round;stroke-linejoin:round;stroke-miterlimit:4;stroke-dasharray:none;stroke-opacity:1;paint-order:normal" />
        <ellipse
           ry="0.87406993"
           rx="0.82682288"
           cy="58.14267"
           cx="76.374809"
           id="path853"
           style="opacity:1;fill:#ffffff;fill-opacity:1;fill-rule:evenodd;stroke:none;stroke-width:0.79400003;stroke-linecap:round;stroke-linejoin:round;stroke-miterlimit:4;stroke-dasharray:none;stroke-opacity:1;paint-order:normal" />
        <ellipse
           ry="12.473214"
           rx="24.946428"
           cy="54.717262"
           cx="136.4494"
           id="path815-1"
           style="opacity:1;fill:#ff8080;fill-opacity:1;fill-rule:evenodd;stroke:none;stroke-width:0.79400003;stroke-linecap:round;stroke-linejoin:round;stroke-miterlimit:4;stroke-dasharray:none;stroke-opacity:1;paint-order:normal" />
        <ellipse
           ry="4.9444861"
           rx="6.0135641"
           cy="54.544617"
           cx="136.52548"
           id="path832-5"
           style="opacity:1;fill:#ff0000;fill-opacity:1;fill-rule:evenodd;stroke:none;stroke-width:0.79400003;stroke-linecap:round;stroke-linejoin:round;stroke-miterlimit:4;stroke-dasharray:none;stroke-opacity:1;paint-order:normal" />
        <ellipse
           ry="1.5119048"
           rx="1.6300223"
           cy="52.307663"
           cx="133.88191"
           id="path851-4"
           style="opacity:1;fill:#ffffff;fill-opacity:1;fill-rule:evenodd;stroke:none;stroke-width:0.79400003;stroke-linecap:round;stroke-linejoin:round;stroke-miterlimit:4;stroke-dasharray:none;stroke-opacity:1;paint-order:normal" />
        <ellipse
           ry="0.87406993"
           rx="0.82682294"
           cy="57.953682"
           cx="138.93733"
           id="path853-0"
           style="opacity:1;fill:#ffffff;fill-opacity:1;fill-rule:evenodd;stroke:none;stroke-width:0.79400003;stroke-linecap:round;stroke-linejoin:round;stroke-miterlimit:4;stroke-dasharray:none;stroke-opacity:1;paint-order:normal" />
        <rect
           ry="3.8754096"
           rx="3.9999974"
           y="50.844772"
           x="92.742523"
           height="7.7508192"
           width="24.054258"
           id="rect879"
           style="fill:#ff8080;fill-opacity:1;fill-rule:evenodd;stroke-width:0.26458332" />
        <rect
           ry="4.6318235"
           rx="3.4856284"
           y="58.324806"
           x="95.236565"
           height="29.762281"
           width="19.762281"
           id="rect935"
           style="display:inline;fill:#ff8080;fill-opacity:1;fill-rule:evenodd;stroke:none;stroke-width:0.23771937" />
      </g>
      <path
         inkscape:connector-curvature="0"
         id="path3238"
         sodipodi:nodetypes="csssscssccc"
         style="opacity:1;fill:#d5e5ff;fill-opacity:1;stroke:#002255;stroke-width:0.20778838;stroke-opacity:1"
         d="m 88.094009,128.55268 c -0.429808,0.59998 -0.751456,1.00866 -0.768004,1.49093 -0.01311,0.37937 -0.132372,0.67272 -0.304901,0.76687 -0.32407,0.17694 -1.201644,0.13715 -1.471837,0.003 -0.150131,-0.0742 -0.290978,-0.34257 -0.362815,-0.83063 -0.08738,-0.59398 -0.277861,-0.97912 -0.63906,-1.40813 -0.30026,-0.43564 -0.440704,-0.90615 -0.440704,-1.42865 0,-1.33829 1.00248,-2.32541 2.197466,-2.33204 1.226263,-0.006 2.235199,1.0414 2.235199,2.37974 0,0.50818 -0.200172,0.96647 -0.445344,1.35868 z" />
      <path
         inkscape:connector-curvature="0"
         id="path3254"
         sodipodi:nodetypes="ccccccccc"
         style="fill:none;stroke:#1c2224;stroke-width:0.20186916px;stroke-linecap:round;stroke-linejoin:round"
         d="m 86.623841,129.47779 0.40428,-1.29386 -0.315049,0.0577 -0.202727,-0.14598 -0.249887,0.13994 -0.200966,-0.12662 -0.253018,0.11496 -0.299982,-0.0613 0.407608,1.3124" />
      <g
         transform="matrix(1.4658414,0,0,1.6339818,-40.136603,-79.76567)"
         id="g3319">
        <path
           style="opacity:1;fill:#80b3ff;fill-opacity:1;fill-rule:evenodd;stroke:none;stroke-width:0.20218706;stroke-linecap:round;stroke-linejoin:round;stroke-miterlimit:4;stroke-dasharray:none;stroke-opacity:1;paint-order:normal"
           id="path1124"
           sodipodi:type="arc"
           sodipodi:cx="85.604317"
           sodipodi:cy="126.36877"
           sodipodi:rx="0.44475612"
           sodipodi:ry="0.39443523"
           sodipodi:start="0"
           sodipodi:end="6.1803854"
           sodipodi:open="true"
           d="m 86.049073,126.36877 a 0.44475612,0.39443523 0 0 1 -0.433327,0.3943 0.44475612,0.39443523 0 0 1 -0.455598,-0.37404 0.44475612,0.39443523 0 0 1 0.409912,-0.41353 0.44475612,0.39443523 0 0 1 0.476665,0.35279" />
        <path
           style="opacity:1;fill:#2a7fff;fill-opacity:1;fill-rule:evenodd;stroke:none;stroke-width:0.09350771;stroke-linecap:round;stroke-linejoin:round;stroke-miterlimit:4;stroke-dasharray:none;stroke-opacity:1;paint-order:normal"
           id="path1124-9"
           sodipodi:type="arc"
           sodipodi:cx="85.603714"
           sodipodi:cy="126.37507"
           sodipodi:rx="0.20384653"
           sodipodi:ry="0.18406978"
           sodipodi:start="0"
           sodipodi:end="6.1803854"
           sodipodi:open="true"
           d="m 85.807561,126.37507 a 0.20384653,0.18406978 0 0 1 -0.198609,0.18401 0.20384653,0.18406978 0 0 1 -0.208815,-0.17455 0.20384653,0.18406978 0 0 1 0.187876,-0.19298 0.20384653,0.18406978 0 0 1 0.218471,0.16463" />
        <path
           style="opacity:1;fill:#d7e3f4;fill-opacity:1;fill-rule:evenodd;stroke:none;stroke-width:0.20218706;stroke-linecap:round;stroke-linejoin:round;stroke-miterlimit:4;stroke-dasharray:none;stroke-opacity:1;paint-order:normal"
           id="path1141"
           sodipodi:type="arc"
           sodipodi:cx="85.676208"
           sodipodi:cy="126.37328"
           sodipodi:rx="0.041495215"
           sodipodi:ry="0.044160403"
           sodipodi:start="0"
           sodipodi:end="6.1803854"
           sodipodi:open="true"
           d="m 85.717704,126.37328 a 0.04149522,0.0441604 0 0 1 -0.04043,0.0442 0.04149522,0.0441604 0 0 1 -0.04251,-0.0419 0.04149522,0.0441604 0 0 1 0.03824,-0.0463 0.04149522,0.0441604 0 0 1 0.04447,0.0395" />
        <path
           d="m 87.30645,126.36877 a 0.44475612,0.39443523 0 0 1 -0.433327,0.3943 0.44475612,0.39443523 0 0 1 -0.455597,-0.37404 0.44475612,0.39443523 0 0 1 0.409912,-0.41353 0.44475612,0.39443523 0 0 1 0.476664,0.35279"
           sodipodi:open="true"
           sodipodi:end="6.1803854"
           sodipodi:start="0"
           sodipodi:ry="0.39443523"
           sodipodi:rx="0.44475612"
           sodipodi:cy="126.36877"
           sodipodi:cx="86.861694"
           sodipodi:type="arc"
           id="path1143"
           style="opacity:1;fill:#80b3ff;fill-opacity:1;fill-rule:evenodd;stroke:none;stroke-width:0.20218706;stroke-linecap:round;stroke-linejoin:round;stroke-miterlimit:4;stroke-dasharray:none;stroke-opacity:1;paint-order:normal" />
        <path
           d="m 87.064946,126.37507 a 0.20384653,0.18406978 0 0 1 -0.198608,0.18401 0.20384653,0.18406978 0 0 1 -0.208816,-0.17455 0.20384653,0.18406978 0 0 1 0.187876,-0.19298 0.20384653,0.18406978 0 0 1 0.218472,0.16463"
           sodipodi:open="true"
           sodipodi:end="6.1803854"
           sodipodi:start="0"
           sodipodi:ry="0.18406978"
           sodipodi:rx="0.20384653"
           sodipodi:cy="126.37507"
           sodipodi:cx="86.861099"
           sodipodi:type="arc"
           id="path1145"
           style="opacity:1;fill:#2a7fff;fill-opacity:1;fill-rule:evenodd;stroke:none;stroke-width:0.09350771;stroke-linecap:round;stroke-linejoin:round;stroke-miterlimit:4;stroke-dasharray:none;stroke-opacity:1;paint-order:normal" />
        <path
           d="m 86.975081,126.37328 a 0.04149522,0.0441604 0 0 1 -0.04043,0.0442 0.04149522,0.0441604 0 0 1 -0.04251,-0.0419 0.04149522,0.0441604 0 0 1 0.03824,-0.0463 0.04149522,0.0441604 0 0 1 0.04447,0.0395"
           sodipodi:open="true"
           sodipodi:end="6.1803854"
           sodipodi:start="0"
           sodipodi:ry="0.044160403"
           sodipodi:rx="0.041495215"
           sodipodi:cy="126.37328"
           sodipodi:cx="86.933586"
           sodipodi:type="arc"
           id="path1147"
           style="opacity:1;fill:#d7e3f4;fill-opacity:1;fill-rule:evenodd;stroke:none;stroke-width:0.20218706;stroke-linecap:round;stroke-linejoin:round;stroke-miterlimit:4;stroke-dasharray:none;stroke-opacity:1;paint-order:normal" />
      </g>
      <path
         style="opacity:1;fill:#ff5555;fill-opacity:1;fill-rule:evenodd;stroke:none;stroke-width:0.00971354;stroke-linecap:round;stroke-linejoin:round;stroke-miterlimit:4;stroke-dasharray:none;stroke-opacity:1;paint-order:normal"
         d="m 86.742721,128.38846 c 0,0.0661 0.06245,0.28406 -0.475417,0.28406 -0.537869,0 -0.475413,-0.21793 -0.475413,-0.28406 0,-0.0661 -0.06244,0.0525 0.475435,0.0525 0.53787,0 0.475395,-0.11866 0.475395,-0.0525 z"
         id="path921-3"
         inkscape:connector-curvature="0"
         sodipodi:nodetypes="sssss" />
      <path
         sodipodi:nodetypes="sssss"
         inkscape:connector-curvature="0"
         id="path1057-4-5-1-2"
         d="m 86.465405,127.48286 c 0,0.18512 -0.05703,0.24824 -0.204276,0.24824 -0.147246,0 -0.222806,-0.0725 -0.222806,-0.25765 0,-0.18511 0.08173,-0.16049 0.228985,-0.16049 0.147246,0 0.198097,-0.0152 0.198097,0.1699 z"
         style="display:inline;opacity:1;fill:#2a7fff;fill-opacity:1;fill-rule:evenodd;stroke:none;stroke-width:0.00142511;stroke-linecap:round;stroke-linejoin:round;stroke-miterlimit:4;stroke-dasharray:none;stroke-opacity:1;paint-order:normal" />
      <path
         transform="matrix(0.17021518,0,0,0.03339628,76.054396,121.6464)"
         sodipodi:type="star"
         style="display:inline;opacity:1;fill:#ffd5d5;fill-opacity:1;fill-rule:evenodd;stroke:none;stroke-width:0.00972018;stroke-linecap:round;stroke-linejoin:round;stroke-miterlimit:4;stroke-dasharray:none;stroke-opacity:1;paint-order:normal"
         id="path1057-4-5-1-2-1"
         sodipodi:sides="4"
         sodipodi:cx="60"
         sodipodi:cy="206.06519"
         sodipodi:r1="0.99535549"
         sodipodi:r2="0.70382261"
         sodipodi:arg1="0"
         sodipodi:arg2="0.78539816"
         inkscape:flatsided="true"
         inkscape:rounded="0.8"
         inkscape:randomized="0"
         d="m 60.995355,206.06519 c 0,1.12611 0.130761,0.99535 -0.995355,0.99535 -1.126116,0 -0.995355,0.13076 -0.995355,-0.99535 0,-1.12612 -0.130761,-0.99536 0.995355,-0.99536 1.126116,0 0.995355,-0.13076 0.995355,0.99536 z" />
      <path
         sodipodi:start="0"
         sodipodi:end="6.0528948"
         sodipodi:cx="85.580788"
         sodipodi:cy="132.17239"
         d="m 85.880993,132.17239 a 0.3002052,0.25769773 0 0 1 -0.282931,0.25727 0.3002052,0.25769773 0 0 1 -0.315492,-0.22766 0.3002052,0.25769773 0 0 1 0.246624,-0.28347 0.3002052,0.25769773 0 0 1 0.343873,0.19504 l -0.292279,0.0588 z"
         sodipodi:type="arc"
         style="fill:#2f2f2f;stroke-width:0.16736886"
         sodipodi:ry="0.25769773"
         sodipodi:rx="0.3002052"
         id="path3366" />
      <path
         sodipodi:start="0"
         sodipodi:end="6.0528948"
         sodipodi:cx="86.98632"
         sodipodi:cy="132.17239"
         d="m 87.286526,132.17239 a 0.3002052,0.25769773 0 0 1 -0.282931,0.25727 0.3002052,0.25769773 0 0 1 -0.315492,-0.22766 0.3002052,0.25769773 0 0 1 0.246624,-0.28347 0.3002052,0.25769773 0 0 1 0.343873,0.19504 l -0.29228,0.0588 z"
         sodipodi:type="arc"
         style="fill:#2f2f2f;stroke-width:0.16736886"
         sodipodi:ry="0.25769773"
         sodipodi:rx="0.3002052"
         id="path3366-4" />
      <path
         d="m 86.621783,131.12115 c 0.235563,-0.19999 0.509267,-0.1866 0.727818,-0.005 0,0 0.06469,0.43841 -0.101456,0.45439 0.17506,0.10486 0.115519,0.32116 0.0079,0.35862 0.387645,0.54834 -0.998777,0.46315 -0.526896,-0.0914 -0.143231,-0.0847 -0.161478,-0.22386 0.01392,-0.35861 -0.175061,-0.0372 -0.121349,-0.35829 -0.121349,-0.35829 z"
         style="fill:none;stroke:#554400;stroke-width:0.07479166;stroke-linecap:round;stroke-linejoin:round;stroke-opacity:1"
         sodipodi:nodetypes="ccccccc"
         id="rect3332-0"
         inkscape:connector-curvature="0" />
      <path
         d="m 86.630016,131.14497 c 0.240537,-0.18735 0.44983,-0.17718 0.707202,-0.008 0,0 0.06363,0.45173 -0.109142,0.46798 0.182044,0.10744 0.112922,0.25433 0.0062,0.34973 0.391621,0.48622 -0.96871,0.38817 -0.484641,-0.0848 -0.173554,-0.19897 -0.14609,-0.20835 0.01327,-0.37923 -0.182043,-0.038 -0.132894,-0.3453 -0.132894,-0.3453 z"
         style="fill:#ffdd55;fill-opacity:1;stroke-width:0.08879513"
         sodipodi:nodetypes="ccccccc"
         id="path3338-2"
         inkscape:connector-curvature="0" />
      <path
         inkscape:connector-curvature="0"
         id="path1666"
         sodipodi:nodetypes="ccccccc"
         style="fill:none;stroke:#554400;stroke-width:0.07479166;stroke-linecap:round;stroke-linejoin:round;stroke-opacity:1"
         d="m 85.216252,131.12115 c 0.235563,-0.19999 0.509267,-0.1866 0.727818,-0.005 0,0 0.06469,0.43841 -0.101456,0.45439 0.175061,0.10486 0.115518,0.32116 0.0079,0.35862 0.387645,0.54834 -0.998778,0.46315 -0.526896,-0.0914 -0.143231,-0.0847 -0.161478,-0.22386 0.01392,-0.35861 -0.175061,-0.0372 -0.12135,-0.35829 -0.12135,-0.35829 z" />
      <path
         inkscape:connector-curvature="0"
         id="path1668"
         sodipodi:nodetypes="ccccccc"
         style="fill:#ffdd55;fill-opacity:1;stroke-width:0.08879513"
         d="m 85.224485,131.14497 c 0.240538,-0.18735 0.449831,-0.17718 0.707202,-0.008 0,0 0.06362,0.45173 -0.109141,0.46798 0.182043,0.10744 0.112922,0.25433 0.0062,0.34973 0.391622,0.48622 -0.968711,0.38817 -0.48464,-0.0848 -0.173556,-0.19897 -0.146091,-0.20835 0.01327,-0.37923 -0.182042,-0.038 -0.132894,-0.3453 -0.132894,-0.3453 z" />
      <path
         d="m 89.14134,129.25872 c -0.04079,0.30214 -0.197426,0.44132 -0.499676,0.50051 0,0 -0.361527,-0.27823 -0.249461,-0.41073 -0.205219,0.0506 -0.258611,-0.10269 -0.249108,-0.24552 -0.619999,-0.0734 0.420521,-0.95511 0.405588,-0.27851 0.263204,0.0207 0.250154,0.0467 0.255855,0.28025 0.156744,-0.10011 0.336538,0.15371 0.336538,0.15371 z"
         style="fill:#ffdd55;stroke:#554400;stroke-width:0.075;stroke-miterlimit:4;stroke-dasharray:none"
         sodipodi:nodetypes="ccccccc"
         id="path3338-2-1"
         inkscape:connector-curvature="0" />
      <path
         inkscape:connector-curvature="0"
         id="path3311"
         sodipodi:nodetypes="ccccccc"
         style="fill:#ffdd55;stroke:#554400;stroke-width:0.075;stroke-miterlimit:4;stroke-dasharray:none"
         d="m 83.548226,129.25872 c 0.04079,0.30214 0.197426,0.44132 0.499676,0.50051 0,0 0.361527,-0.27823 0.249461,-0.41073 0.205219,0.0506 0.258611,-0.10269 0.249108,-0.24552 0.619999,-0.0734 -0.420521,-0.95511 -0.405588,-0.27851 -0.263204,0.0207 -0.250154,0.0467 -0.255855,0.28025 -0.156744,-0.10011 -0.336538,0.15371 -0.336538,0.15371 z" />
      <path
         style="opacity:1;fill:#000000;fill-opacity:1;fill-rule:evenodd;stroke:none;stroke-width:0.03740419;stroke-linecap:round;stroke-linejoin:round;stroke-miterlimit:4;stroke-dasharray:none;stroke-opacity:1;paint-order:normal"
         d="m 87.727706,125.9681 c 0,0.0648 0.0768,0.01 -0.533499,0.01 -0.610295,0 -0.54536,0.0549 -0.54536,-0.01 0,-0.0648 -0.06493,-0.0825 0.54536,-0.0825 0.610294,0 0.533499,0.0178 0.533499,0.0825 z"
         id="path3321"
         inkscape:connector-curvature="0"
         sodipodi:nodetypes="sssss" />
      <path
         sodipodi:nodetypes="sssss"
         inkscape:connector-curvature="0"
         id="path98"
         d="m 85.88459,125.9681 c 0,0.0648 0.0768,0.01 -0.533499,0.01 -0.610295,0 -0.54536,0.0549 -0.54536,-0.01 0,-0.0648 -0.06492,-0.0825 0.54536,-0.0825 0.610294,0 0.533499,0.0178 0.533499,0.0825 z"
         style="opacity:1;fill:#000000;fill-opacity:1;fill-rule:evenodd;stroke:none;stroke-width:0.03740419;stroke-linecap:round;stroke-linejoin:round;stroke-miterlimit:4;stroke-dasharray:none;stroke-opacity:1;paint-order:normal" />
    </g>
  </g>
</svg>
