<?xml version="1.0" encoding="UTF-8"?>
<svg width="70.003mm" height="79.997mm" version="1.1" viewBox="0 0 70.003 79.997" xmlns="http://www.w3.org/2000/svg" xmlns:osb="http://www.openswatchbook.org/uri/2009/osb" xmlns:xlink="http://www.w3.org/1999/xlink"><g transform="translate(-8.979 -119.22)"><g transform="matrix(.7796 0 0 .7613 2.0085 47.52)" style="stroke-width:1.298"><rect x="9.1129" y="94.347" width="69.735" height="104.74" rx="5.8166" style="fill:#fff;stroke-width:.34344;stroke:#000"/><g transform="matrix(.19425 0 0 .19431 9.1129 -5.4064)" style="fill:#f55;stroke-width:1.7677"><path d="m29.5 610.36s0.682-4.182 2-5.5 3.637-2 5.5-2 4.182 0.682 5.5 2 2 3.637 2 5.5-1 4.5-2 5.5-2 1.5-3 2.5-1.5 1-2.5 2l-2.5 2.5c-1 1-2.5 3-3.5 5s-1.5 5-1.5 5-0.5-3-1.5-5-2.5-4-3.5-5l-2.5-2.5c-1-1-1.5-1-2.5-2s-2-1.5-3-2.5-2-3.637-2-5.5 0.682-4.182 2-5.5 3.637-2 5.5-2 4.182 0.682 5.5 2 2 5.5 2 5.5" style="stroke-width:1.7677"/><path d="m329.5 955.36s0.682 4.182 2 5.5 3.637 2 5.5 2 4.182-0.682 5.5-2 2-3.637 2-5.5-1-4.5-2-5.5-2-1.5-3-2.5-1.5-1-2.5-2l-2.5-2.5c-1-1-2.5-3-3.5-5s-1.5-5-1.5-5-0.5 3-1.5 5-2.5 4-3.5 5l-2.5 2.5c-1 1-1.5 1-2.5 2s-2 1.5-3 2.5-2 3.637-2 5.5 0.682 4.182 2 5.5 3.637 2 5.5 2 4.182-0.682 5.5-2 2-5.5 2-5.5" style="stroke-width:1.7677"/><path d="m79.5 572.86s1.82-11.153 5.333-14.667c3.514-3.514 9.698-5.333 14.667-5.333s11.153 1.82 14.667 5.333c3.514 3.514 5.333 9.698 5.333 14.667s-2.667 12-5.333 14.667c-2.667 2.667-5.333 4-8 6.667s-4 2.667-6.667 5.333l-6.667 6.667c-2.667 2.667-6.667 8-9.333 13.333-2.667 5.333-4 13.333-4 13.333s-1.333-8-4-13.333-6.667-10.667-9.333-13.333l-6.667-6.667c-2.667-2.667-4-2.667-6.667-5.333-2.667-2.667-5.333-4-8-6.667s-5.333-9.698-5.333-14.667 1.82-11.153 5.333-14.667c3.514-3.514 9.698-5.333 14.667-5.333s11.153 1.82 14.667 5.333c3.514 3.514 5.333 14.667 5.333 14.667" style="stroke-width:1.7677"/><path d="m279.5 992.86s1.82 11.153 5.333 14.667c3.514 3.514 9.698 5.333 14.667 5.333s11.153-1.82 14.667-5.333c3.514-3.514 5.333-9.697 5.333-14.667 0-4.969-2.667-12-5.333-14.667-2.667-2.667-5.333-4-8-6.667s-4-2.667-6.667-5.333l-6.667-6.667c-2.667-2.667-6.667-8-9.333-13.333-2.667-5.333-4-13.333-4-13.333s-1.333 8-4 13.333-6.667 10.667-9.333 13.333l-6.667 6.667c-2.667 2.667-4 2.667-6.667 5.333-2.667 2.667-5.333 4-8 6.667s-5.333 9.698-5.333 14.667 1.82 11.153 5.333 14.667c3.514 3.514 9.698 5.333 14.667 5.333s11.153-1.82 14.667-5.333c3.514-3.514 5.333-14.667 5.333-14.667" style="stroke-width:1.7677"/></g><g transform="matrix(.19425 0 0 .19431 9.0157 94.25)" style="fill:none;stroke-linecap:square;stroke-width:3.5355;stroke:#000"><path d="m50 30h280v380" style="stroke-width:3.5355"/><path d="m310 510h-280v-380" style="stroke-width:3.5355"/><path d="m30 270h300" style="stroke-width:3.5355"/></g><g transform="matrix(.19425 0 0 .19431 9.1129 -5.4064)" style="fill:#f55;stroke-width:1.7677"><path d="m19.5 542.86v50h5v-15l3-7 7 22h5l-9-28 9-22h-5l-10 24v-24z" style="stroke-width:1.7677"/><path d="m339.5 1022.9v-50h-5v15l-3 7-7-22h-5l9 28-9 22h5l10-24v24z" style="stroke-width:1.7677"/></g><g transform="matrix(.58268 0 0 .58287 -10.857 52.924)" style="stroke-width:2.2273"><g transform="translate(-46.051 -89.795)" style="stroke-width:2.2273"><g transform="translate(24.504 102.23)" style="stroke-width:2.2273"><g transform="translate(65.661 -14.223)" style="stroke-width:2.2273"><circle cx="66" cy="93.359" r="8" style="fill-rule:evenodd;fill:#666;paint-order:normal"/><circle cx="34" cy="93.359" r="8" style="fill-rule:evenodd;fill:#666;paint-order:normal"/><ellipse cx="50" cy="104.68" rx="22" ry="21" style="fill-rule:evenodd;fill:#808080;paint-order:normal"/><g transform="translate(0 6.5004)" style="stroke-width:2.2273"><g style="stroke-width:2.2273"><circle cx="45" cy="96.618" r="1" style="fill-rule:evenodd;paint-order:normal"/><circle cx="45.427" cy="96.578" r=".2" style="fill-rule:evenodd;fill:#fff;paint-order:normal"/></g><g transform="translate(10)" style="stroke-width:2.2273"><circle cx="45" cy="96.618" r="1" style="fill-rule:evenodd;paint-order:normal"/><circle cx="45.427" cy="96.578" r=".2" style="fill-rule:evenodd;fill:#fff;paint-order:normal"/></g></g><ellipse cx="50" cy="111.74" rx="8" ry="7" style="fill-rule:evenodd;fill:#fff;paint-order:normal"/><ellipse cx="50" cy="108.25" rx="3" ry="2.5" style="fill-rule:evenodd;fill:#1a1a1a;paint-order:normal"/><path transform="matrix(.28466 0 0 2.2773 40.094 -129.53)" d="m36.546 106.81c0 1.978 0.22968 1.7483-1.7483 1.7483s-1.7483 0.22967-1.7483-1.7483c0-1.978-0.22968-1.7483 1.7483-1.7483s1.7483-0.22968 1.7483 1.7483z" style="fill-rule:evenodd;fill:#1a1a1a;paint-order:normal"/><path transform="matrix(0 -.28466 2.2773 0 -193.23 125.34)" d="m27.907 106.81c0 1.978 17.406 3.0738 15.428 3.0738s-16.925-1.127-16.925-3.1049c0-1.978 14.947-3.0427 16.925-3.0427s-15.428 1.0958-15.428 3.0738z" style="fill-rule:evenodd;fill:#1a1a1a;paint-order:normal"/><path d="m65 139.77c0 14.324-1.8674 15.565-15.372 15.565-13.504 0-14.628-1.8482-14.628-16.172 0-14.324 1.6479-16.567 15.152-16.567 13.504 0 14.848 2.8501 14.848 17.174z" style="fill-rule:evenodd;fill:#808080;paint-order:normal"/><ellipse transform="matrix(.93569 -.35283 .33145 .94347 0 0)" cx="22.849" cy="144.43" rx="12.94" ry="5.6241" style="fill-rule:evenodd;fill:#808080;paint-order:normal"/><ellipse transform="matrix(-.93569 -.35283 -.33145 .94347 0 0)" cx="-71.523" cy="109.13" rx="12.94" ry="5.6241" style="fill-rule:evenodd;fill:#808080;paint-order:normal"/><path transform="matrix(.44842 0 0 .037435 28.131 118.02)" d="m69.578 148.27c0 23.768 2.9595 51.333-20.809 51.333-23.768 0-21.208-27.565-21.208-51.333s-2.5602 16.445 21.208 16.445c23.768 0 20.809-40.214 20.809-16.445z" style="fill-rule:evenodd;paint-order:normal"/><path d="m58.934 123.75c0 0.52627 1.1611 1.4453-8.934 1.4453-10.095 0-8.9118-0.91906-8.9118-1.4453 0-0.52628-1.1833 0.76433 8.9118 0.76433 10.095 0 8.934-1.2906 8.934-0.76433z" style="fill-rule:evenodd;paint-order:normal"/><g transform="matrix(.97872 0 0 .53305 .57447 68.617)" style="stroke-width:2.2273"><ellipse cx="40.283" cy="161.84" rx="8.1739" ry="13.909" style="fill-rule:evenodd;fill:#666;paint-order:normal"/><ellipse cx="40.283" cy="167.11" rx="5.1087" ry="4.9091" style="fill-rule:evenodd;fill:#fff;paint-order:normal"/><ellipse cx="60.717" cy="161.84" rx="8.1739" ry="13.909" style="fill-rule:evenodd;fill:#666;paint-order:normal"/><ellipse cx="60.717" cy="167.11" rx="5.1087" ry="4.9091" style="fill-rule:evenodd;fill:#fff;paint-order:normal"/><g transform="matrix(.029241 0 0 .049797 39.891 80.364)" style="stroke-width:2.2273"></g></g></g></g><g transform="matrix(.044546 0 0 .035411 135.52 191.51)" style="stroke-width:2.2273"><path d="m59.156 1157.2c-16.16-18.5-56.045-26-52.07-53.7 3.68-67.2 10.286-134.09 15.966-201.01 4.671-47.94 7.827-96.33 18.388-143.46 4.201-23.03 35.613-51.2 19.6-70.16-11.686-21.57-21.87-43.86-38.103-62.51-15.527-20.08 16.533-32.85 32.837-30.8 22.872 0.27257 46.032-3.2704 69.237-1.5065 16.626 3.449 55.725-7.805 54.584 16.401-10.043 27.991-30.973 50.916-40.13 79.204-3.8394 25.354 23.337 41.61 26.076 66.515 7.7497 52.454 14.003 105.35 18.993 158.26 5.7956 33.526 5.0707 67.834 11.492 101.11 2.6974 33.227 7.2362 66.266 9.9864 99.494-19.548 19.256-41.781 35.121-61.473 54.159-16.318 10.787-31.315 38.897-48.667 14.991-12.258-9-24.475-18-36.718-27z" style="stroke-width:2.2273"/></g></g></g><g transform="matrix(.58268 0 0 .58287 .29327 95.615)" style="stroke-width:2.2273"><g transform="rotate(180 107.57 169.18)" style="stroke-width:2.2273"><g transform="translate(24.504 102.23)" style="stroke-width:2.2273"><g transform="translate(65.661 -14.223)" style="stroke-width:2.2273"><circle cx="66" cy="93.359" r="8" style="fill-rule:evenodd;fill:#666;paint-order:normal"/><circle cx="34" cy="93.359" r="8" style="fill-rule:evenodd;fill:#666;paint-order:normal"/><ellipse cx="50" cy="104.68" rx="22" ry="21" style="fill-rule:evenodd;fill:#808080;paint-order:normal"/><g transform="translate(0 6.5004)" style="stroke-width:2.2273"><g style="stroke-width:2.2273"><circle cx="45" cy="96.618" r="1" style="fill-rule:evenodd;paint-order:normal"/><circle cx="45.427" cy="96.578" r=".2" style="fill-rule:evenodd;fill:#fff;paint-order:normal"/></g><g transform="translate(10)" style="stroke-width:2.2273"><circle cx="45" cy="96.618" r="1" style="fill-rule:evenodd;paint-order:normal"/><circle cx="45.427" cy="96.578" r=".2" style="fill-rule:evenodd;fill:#fff;paint-order:normal"/></g></g><ellipse cx="50" cy="111.74" rx="8" ry="7" style="fill-rule:evenodd;fill:#fff;paint-order:normal"/><ellipse cx="50" cy="108.25" rx="3" ry="2.5" style="fill-rule:evenodd;fill:#1a1a1a;paint-order:normal"/><path transform="matrix(.28466 0 0 2.2773 40.094 -129.53)" d="m36.546 106.81c0 1.978 0.22968 1.7483-1.7483 1.7483s-1.7483 0.22967-1.7483-1.7483c0-1.978-0.22968-1.7483 1.7483-1.7483s1.7483-0.22968 1.7483 1.7483z" style="fill-rule:evenodd;fill:#1a1a1a;paint-order:normal"/><path transform="matrix(0 -.28466 2.2773 0 -193.23 125.34)" d="m27.907 106.81c0 1.978 17.406 3.0738 15.428 3.0738s-16.925-1.127-16.925-3.1049c0-1.978 14.947-3.0427 16.925-3.0427s-15.428 1.0958-15.428 3.0738z" style="fill-rule:evenodd;fill:#1a1a1a;paint-order:normal"/><path d="m65 139.77c0 14.324-1.8674 15.565-15.372 15.565-13.504 0-14.628-1.8482-14.628-16.172 0-14.324 1.6479-16.567 15.152-16.567 13.504 0 14.848 2.8501 14.848 17.174z" style="fill-rule:evenodd;fill:#808080;paint-order:normal"/><ellipse transform="matrix(.93569 -.35283 .33145 .94347 0 0)" cx="22.849" cy="144.43" rx="12.94" ry="5.6241" style="fill-rule:evenodd;fill:#808080;paint-order:normal"/><ellipse transform="matrix(-.93569 -.35283 -.33145 .94347 0 0)" cx="-71.523" cy="109.13" rx="12.94" ry="5.6241" style="fill-rule:evenodd;fill:#808080;paint-order:normal"/><path transform="matrix(.44842 0 0 .037435 28.131 118.02)" d="m69.578 148.27c0 23.768 2.9595 51.333-20.809 51.333-23.768 0-21.208-27.565-21.208-51.333s-2.5602 16.445 21.208 16.445c23.768 0 20.809-40.214 20.809-16.445z" style="fill-rule:evenodd;paint-order:normal"/><path d="m58.934 123.75c0 0.52627 1.1611 1.4453-8.934 1.4453-10.095 0-8.9118-0.91906-8.9118-1.4453 0-0.52628-1.1833 0.76433 8.9118 0.76433 10.095 0 8.934-1.2906 8.934-0.76433z" style="fill-rule:evenodd;paint-order:normal"/><g transform="matrix(.97872 0 0 .53305 .57447 68.617)" style="stroke-width:2.2273"><ellipse cx="40.283" cy="161.84" rx="8.1739" ry="13.909" style="fill-rule:evenodd;fill:#666;paint-order:normal"/><ellipse cx="40.283" cy="167.11" rx="5.1087" ry="4.9091" style="fill-rule:evenodd;fill:#fff;paint-order:normal"/><ellipse cx="60.717" cy="161.84" rx="8.1739" ry="13.909" style="fill-rule:evenodd;fill:#666;paint-order:normal"/><ellipse cx="60.717" cy="167.11" rx="5.1087" ry="4.9091" style="fill-rule:evenodd;fill:#fff;paint-order:normal"/><g transform="matrix(.029241 0 0 .049797 39.891 80.364)" style="stroke-width:2.2273"></g></g></g></g><g transform="matrix(.044546 0 0 .035411 135.52 191.51)" style="stroke-width:2.2273"><path d="m59.156 1157.2c-16.16-18.5-56.045-26-52.07-53.7 3.68-67.2 10.286-134.09 15.966-201.01 4.671-47.94 7.827-96.33 18.388-143.46 4.201-23.03 35.613-51.2 19.6-70.16-11.686-21.57-21.87-43.86-38.103-62.51-15.527-20.08 16.533-32.85 32.837-30.8 22.872 0.27257 46.032-3.2704 69.237-1.5065 16.626 3.449 55.725-7.805 54.584 16.401-10.043 27.991-30.973 50.916-40.13 79.204-3.8394 25.354 23.337 41.61 26.076 66.515 7.7497 52.454 14.003 105.35 18.993 158.26 5.7956 33.526 5.0707 67.834 11.492 101.11 2.6974 33.227 7.2362 66.266 9.9864 99.494-19.548 19.256-41.781 35.121-61.473 54.159-16.318 10.787-31.315 38.897-48.667 14.991-12.258-9-24.475-18-36.718-27z" style="stroke-width:2.2273"/></g></g></g></g><g transform="matrix(.7796 0 0 .7613 17.378 47.52)" style="stroke-width:1.298"><rect x="9.1129" y="94.347" width="69.735" height="104.74" rx="5.8166" style="fill:#fff;stroke-width:.34344;stroke:#000"/><g transform="matrix(.19425 0 0 .19431 9.1129 -5.4064)" style="fill:#f55;stroke-width:1.7677"><path d="m29.5 610.36s0.682-4.182 2-5.5 3.637-2 5.5-2 4.182 0.682 5.5 2 2 3.637 2 5.5-1 4.5-2 5.5-2 1.5-3 2.5-1.5 1-2.5 2l-2.5 2.5c-1 1-2.5 3-3.5 5s-1.5 5-1.5 5-0.5-3-1.5-5-2.5-4-3.5-5l-2.5-2.5c-1-1-1.5-1-2.5-2s-2-1.5-3-2.5-2-3.637-2-5.5 0.682-4.182 2-5.5 3.637-2 5.5-2 4.182 0.682 5.5 2 2 5.5 2 5.5" style="stroke-width:1.7677"/><path d="m329.5 955.36s0.682 4.182 2 5.5 3.637 2 5.5 2 4.182-0.682 5.5-2 2-3.637 2-5.5-1-4.5-2-5.5-2-1.5-3-2.5-1.5-1-2.5-2l-2.5-2.5c-1-1-2.5-3-3.5-5s-1.5-5-1.5-5-0.5 3-1.5 5-2.5 4-3.5 5l-2.5 2.5c-1 1-1.5 1-2.5 2s-2 1.5-3 2.5-2 3.637-2 5.5 0.682 4.182 2 5.5 3.637 2 5.5 2 4.182-0.682 5.5-2 2-5.5 2-5.5" style="stroke-width:1.7677"/><path d="m79.5 572.86s1.82-11.153 5.333-14.667c3.514-3.514 9.698-5.333 14.667-5.333s11.153 1.82 14.667 5.333c3.514 3.514 5.333 9.698 5.333 14.667s-2.667 12-5.333 14.667c-2.667 2.667-5.333 4-8 6.667s-4 2.667-6.667 5.333l-6.667 6.667c-2.667 2.667-6.667 8-9.333 13.333-2.667 5.333-4 13.333-4 13.333s-1.333-8-4-13.333-6.667-10.667-9.333-13.333l-6.667-6.667c-2.667-2.667-4-2.667-6.667-5.333-2.667-2.667-5.333-4-8-6.667s-5.333-9.698-5.333-14.667 1.82-11.153 5.333-14.667c3.514-3.514 9.698-5.333 14.667-5.333s11.153 1.82 14.667 5.333c3.514 3.514 5.333 14.667 5.333 14.667" style="stroke-width:1.7677"/><path d="m279.5 992.86s1.82 11.153 5.333 14.667c3.514 3.514 9.698 5.333 14.667 5.333s11.153-1.82 14.667-5.333c3.514-3.514 5.333-9.697 5.333-14.667 0-4.969-2.667-12-5.333-14.667-2.667-2.667-5.333-4-8-6.667s-4-2.667-6.667-5.333l-6.667-6.667c-2.667-2.667-6.667-8-9.333-13.333-2.667-5.333-4-13.333-4-13.333s-1.333 8-4 13.333-6.667 10.667-9.333 13.333l-6.667 6.667c-2.667 2.667-4 2.667-6.667 5.333-2.667 2.667-5.333 4-8 6.667s-5.333 9.698-5.333 14.667 1.82 11.153 5.333 14.667c3.514 3.514 9.698 5.333 14.667 5.333s11.153-1.82 14.667-5.333c3.514-3.514 5.333-14.667 5.333-14.667" style="stroke-width:1.7677"/></g><g transform="matrix(.19425 0 0 .19431 9.0157 94.25)" style="fill:none;stroke-linecap:square;stroke-width:3.5355;stroke:#000"><path d="m50 30h280v380" style="stroke-width:3.5355"/><path d="m310 510h-280v-380" style="stroke-width:3.5355"/><path d="m30 270h300" style="stroke-width:3.5355"/></g><g transform="matrix(.19425 0 0 .19431 9.1129 -5.4064)" style="fill:#f55;stroke-width:1.7677"><path d="m19.5 542.86v50h5v-15l3-7 7 22h5l-9-28 9-22h-5l-10 24v-24z" style="stroke-width:1.7677"/><path d="m339.5 1022.9v-50h-5v15l-3 7-7-22h-5l9 28-9 22h5l10-24v24z" style="stroke-width:1.7677"/></g><g transform="matrix(.58268 0 0 .58287 -10.857 52.924)" style="stroke-width:2.2273"><g transform="translate(-46.051 -89.795)" style="stroke-width:2.2273"><g transform="translate(24.504 102.23)" style="stroke-width:2.2273"><g transform="translate(65.661 -14.223)" style="stroke-width:2.2273"><circle cx="66" cy="93.359" r="8" style="fill-rule:evenodd;fill:#666;paint-order:normal"/><circle cx="34" cy="93.359" r="8" style="fill-rule:evenodd;fill:#666;paint-order:normal"/><ellipse cx="50" cy="104.68" rx="22" ry="21" style="fill-rule:evenodd;fill:#808080;paint-order:normal"/><g transform="translate(0 6.5004)" style="stroke-width:2.2273"><g style="stroke-width:2.2273"><circle cx="45" cy="96.618" r="1" style="fill-rule:evenodd;paint-order:normal"/><circle cx="45.427" cy="96.578" r=".2" style="fill-rule:evenodd;fill:#fff;paint-order:normal"/></g><g transform="translate(10)" style="stroke-width:2.2273"><circle cx="45" cy="96.618" r="1" style="fill-rule:evenodd;paint-order:normal"/><circle cx="45.427" cy="96.578" r=".2" style="fill-rule:evenodd;fill:#fff;paint-order:normal"/></g></g><ellipse cx="50" cy="111.74" rx="8" ry="7" style="fill-rule:evenodd;fill:#fff;paint-order:normal"/><ellipse cx="50" cy="108.25" rx="3" ry="2.5" style="fill-rule:evenodd;fill:#1a1a1a;paint-order:normal"/><path transform="matrix(.28466 0 0 2.2773 40.094 -129.53)" d="m36.546 106.81c0 1.978 0.22968 1.7483-1.7483 1.7483s-1.7483 0.22967-1.7483-1.7483c0-1.978-0.22968-1.7483 1.7483-1.7483s1.7483-0.22968 1.7483 1.7483z" style="fill-rule:evenodd;fill:#1a1a1a;paint-order:normal"/><path transform="matrix(0 -.28466 2.2773 0 -193.23 125.34)" d="m27.907 106.81c0 1.978 17.406 3.0738 15.428 3.0738s-16.925-1.127-16.925-3.1049c0-1.978 14.947-3.0427 16.925-3.0427s-15.428 1.0958-15.428 3.0738z" style="fill-rule:evenodd;fill:#1a1a1a;paint-order:normal"/><path d="m65 139.77c0 14.324-1.8674 15.565-15.372 15.565-13.504 0-14.628-1.8482-14.628-16.172 0-14.324 1.6479-16.567 15.152-16.567 13.504 0 14.848 2.8501 14.848 17.174z" style="fill-rule:evenodd;fill:#808080;paint-order:normal"/><ellipse transform="matrix(.93569 -.35283 .33145 .94347 0 0)" cx="22.849" cy="144.43" rx="12.94" ry="5.6241" style="fill-rule:evenodd;fill:#808080;paint-order:normal"/><ellipse transform="matrix(-.93569 -.35283 -.33145 .94347 0 0)" cx="-71.523" cy="109.13" rx="12.94" ry="5.6241" style="fill-rule:evenodd;fill:#808080;paint-order:normal"/><path transform="matrix(.44842 0 0 .037435 28.131 118.02)" d="m69.578 148.27c0 23.768 2.9595 51.333-20.809 51.333-23.768 0-21.208-27.565-21.208-51.333s-2.5602 16.445 21.208 16.445c23.768 0 20.809-40.214 20.809-16.445z" style="fill-rule:evenodd;paint-order:normal"/><path d="m58.934 123.75c0 0.52627 1.1611 1.4453-8.934 1.4453-10.095 0-8.9118-0.91906-8.9118-1.4453 0-0.52628-1.1833 0.76433 8.9118 0.76433 10.095 0 8.934-1.2906 8.934-0.76433z" style="fill-rule:evenodd;paint-order:normal"/><g transform="matrix(.97872 0 0 .53305 .57447 68.617)" style="stroke-width:2.2273"><ellipse cx="40.283" cy="161.84" rx="8.1739" ry="13.909" style="fill-rule:evenodd;fill:#666;paint-order:normal"/><ellipse cx="40.283" cy="167.11" rx="5.1087" ry="4.9091" style="fill-rule:evenodd;fill:#fff;paint-order:normal"/><ellipse cx="60.717" cy="161.84" rx="8.1739" ry="13.909" style="fill-rule:evenodd;fill:#666;paint-order:normal"/><ellipse cx="60.717" cy="167.11" rx="5.1087" ry="4.9091" style="fill-rule:evenodd;fill:#fff;paint-order:normal"/><g transform="matrix(.029241 0 0 .049797 39.891 80.364)" style="stroke-width:2.2273"></g></g></g></g><g transform="matrix(.044546 0 0 .035411 135.52 191.51)" style="stroke-width:2.2273"><path d="m59.156 1157.2c-16.16-18.5-56.045-26-52.07-53.7 3.68-67.2 10.286-134.09 15.966-201.01 4.671-47.94 7.827-96.33 18.388-143.46 4.201-23.03 35.613-51.2 19.6-70.16-11.686-21.57-21.87-43.86-38.103-62.51-15.527-20.08 16.533-32.85 32.837-30.8 22.872 0.27257 46.032-3.2704 69.237-1.5065 16.626 3.449 55.725-7.805 54.584 16.401-10.043 27.991-30.973 50.916-40.13 79.204-3.8394 25.354 23.337 41.61 26.076 66.515 7.7497 52.454 14.003 105.35 18.993 158.26 5.7956 33.526 5.0707 67.834 11.492 101.11 2.6974 33.227 7.2362 66.266 9.9864 99.494-19.548 19.256-41.781 35.121-61.473 54.159-16.318 10.787-31.315 38.897-48.667 14.991-12.258-9-24.475-18-36.718-27z" style="stroke-width:2.2273"/></g></g></g><g transform="matrix(.58268 0 0 .58287 .29327 95.615)" style="stroke-width:2.2273"><g transform="rotate(180 107.57 169.18)" style="stroke-width:2.2273"><g transform="translate(24.504 102.23)" style="stroke-width:2.2273"><g transform="translate(65.661 -14.223)" style="stroke-width:2.2273"><circle cx="66" cy="93.359" r="8" style="fill-rule:evenodd;fill:#666;paint-order:normal"/><circle cx="34" cy="93.359" r="8" style="fill-rule:evenodd;fill:#666;paint-order:normal"/><ellipse cx="50" cy="104.68" rx="22" ry="21" style="fill-rule:evenodd;fill:#808080;paint-order:normal"/><g transform="translate(0 6.5004)" style="stroke-width:2.2273"><g style="stroke-width:2.2273"><circle cx="45" cy="96.618" r="1" style="fill-rule:evenodd;paint-order:normal"/><circle cx="45.427" cy="96.578" r=".2" style="fill-rule:evenodd;fill:#fff;paint-order:normal"/></g><g transform="translate(10)" style="stroke-width:2.2273"><circle cx="45" cy="96.618" r="1" style="fill-rule:evenodd;paint-order:normal"/><circle cx="45.427" cy="96.578" r=".2" style="fill-rule:evenodd;fill:#fff;paint-order:normal"/></g></g><ellipse cx="50" cy="111.74" rx="8" ry="7" style="fill-rule:evenodd;fill:#fff;paint-order:normal"/><ellipse cx="50" cy="108.25" rx="3" ry="2.5" style="fill-rule:evenodd;fill:#1a1a1a;paint-order:normal"/><path transform="matrix(.28466 0 0 2.2773 40.094 -129.53)" d="m36.546 106.81c0 1.978 0.22968 1.7483-1.7483 1.7483s-1.7483 0.22967-1.7483-1.7483c0-1.978-0.22968-1.7483 1.7483-1.7483s1.7483-0.22968 1.7483 1.7483z" style="fill-rule:evenodd;fill:#1a1a1a;paint-order:normal"/><path transform="matrix(0 -.28466 2.2773 0 -193.23 125.34)" d="m27.907 106.81c0 1.978 17.406 3.0738 15.428 3.0738s-16.925-1.127-16.925-3.1049c0-1.978 14.947-3.0427 16.925-3.0427s-15.428 1.0958-15.428 3.0738z" style="fill-rule:evenodd;fill:#1a1a1a;paint-order:normal"/><path d="m65 139.77c0 14.324-1.8674 15.565-15.372 15.565-13.504 0-14.628-1.8482-14.628-16.172 0-14.324 1.6479-16.567 15.152-16.567 13.504 0 14.848 2.8501 14.848 17.174z" style="fill-rule:evenodd;fill:#808080;paint-order:normal"/><ellipse transform="matrix(.93569 -.35283 .33145 .94347 0 0)" cx="22.849" cy="144.43" rx="12.94" ry="5.6241" style="fill-rule:evenodd;fill:#808080;paint-order:normal"/><ellipse transform="matrix(-.93569 -.35283 -.33145 .94347 0 0)" cx="-71.523" cy="109.13" rx="12.94" ry="5.6241" style="fill-rule:evenodd;fill:#808080;paint-order:normal"/><path transform="matrix(.44842 0 0 .037435 28.131 118.02)" d="m69.578 148.27c0 23.768 2.9595 51.333-20.809 51.333-23.768 0-21.208-27.565-21.208-51.333s-2.5602 16.445 21.208 16.445c23.768 0 20.809-40.214 20.809-16.445z" style="fill-rule:evenodd;paint-order:normal"/><path d="m58.934 123.75c0 0.52627 1.1611 1.4453-8.934 1.4453-10.095 0-8.9118-0.91906-8.9118-1.4453 0-0.52628-1.1833 0.76433 8.9118 0.76433 10.095 0 8.934-1.2906 8.934-0.76433z" style="fill-rule:evenodd;paint-order:normal"/><g transform="matrix(.97872 0 0 .53305 .57447 68.617)" style="stroke-width:2.2273"><ellipse cx="40.283" cy="161.84" rx="8.1739" ry="13.909" style="fill-rule:evenodd;fill:#666;paint-order:normal"/><ellipse cx="40.283" cy="167.11" rx="5.1087" ry="4.9091" style="fill-rule:evenodd;fill:#fff;paint-order:normal"/><ellipse cx="60.717" cy="161.84" rx="8.1739" ry="13.909" style="fill-rule:evenodd;fill:#666;paint-order:normal"/><ellipse cx="60.717" cy="167.11" rx="5.1087" ry="4.9091" style="fill-rule:evenodd;fill:#fff;paint-order:normal"/><g transform="matrix(.029241 0 0 .049797 39.891 80.364)" style="stroke-width:2.2273"></g></g></g></g><g transform="matrix(.044546 0 0 .035411 135.52 191.51)" style="stroke-width:2.2273"><path d="m59.156 1157.2c-16.16-18.5-56.045-26-52.07-53.7 3.68-67.2 10.286-134.09 15.966-201.01 4.671-47.94 7.827-96.33 18.388-143.46 4.201-23.03 35.613-51.2 19.6-70.16-11.686-21.57-21.87-43.86-38.103-62.51-15.527-20.08 16.533-32.85 32.837-30.8 22.872 0.27257 46.032-3.2704 69.237-1.5065 16.626 3.449 55.725-7.805 54.584 16.401-10.043 27.991-30.973 50.916-40.13 79.204-3.8394 25.354 23.337 41.61 26.076 66.515 7.7497 52.454 14.003 105.35 18.993 158.26 5.7956 33.526 5.0707 67.834 11.492 101.11 2.6974 33.227 7.2362 66.266 9.9864 99.494-19.548 19.256-41.781 35.121-61.473 54.159-16.318 10.787-31.315 38.897-48.667 14.991-12.258-9-24.475-18-36.718-27z" style="stroke-width:2.2273"/></g></g></g></g></g></svg>
