<?xml version="1.0" encoding="UTF-8"?>
<svg width="28.725mm" height="32.802mm" version="1.1" viewBox="0 0 28.725 32.802" xmlns="http://www.w3.org/2000/svg"><defs><linearGradient id="e-8" x1="45.024" x2="110.51" y1="31.291" y2="40.89" gradientTransform="scale(.61245 1.6328)" gradientUnits="userSpaceOnUse"><stop stop-color="#fffffc" offset="0"/><stop stop-color="#fffffc" stop-opacity="0" offset="1"/></linearGradient><linearGradient id="f" x1="203.81" x2="106.35" y1="30.098" y2="43.082" gradientTransform="scale(.59423 1.6828)" gradientUnits="userSpaceOnUse"><stop stop-color="#fff" stop-opacity=".662" offset="0"/><stop stop-color="#fffffc" stop-opacity="0" offset="1"/></linearGradient><linearGradient id="d-6" x1="30.492" x2="111.03" y1="35.235" y2="51.618" gradientTransform="scale(.93222 1.0727)" gradientUnits="userSpaceOnUse"><stop stop-color="#00fffc" offset="0"/><stop stop-color="#00fffc" stop-opacity=".506" offset="1"/></linearGradient></defs><g transform="translate(99.211 -130.95)"><g transform="matrix(.26458 0 0 .26458 -101.71 130.31)"><path d="m34.909 74.093-15.911 23.748c-6.7699 10.393-5.871 24.303 12.586 22.798 3.7969-0.30973 61.269 0 61.269 0 24.09 2.0646 21.268-13.523 15.198-21.373l-16.386-24.935-56.757-0.2375z" style="fill-rule:evenodd;fill:#068713"/><g style="stroke-linecap:round;stroke-linejoin:round"><path d="m82.812 4.4062-39.781 0.0312c-0.8039 0.00655-1.537 0.47566-1.8438 1.2188-0.30678 0.74309-0.12765 1.6158 0.4375 2.1875 3.051 2.9957 4.1774 5.3391 4.6875 7.9688 0.51011 2.6296 0.30743 5.6854 0.34375 9.6562l0.2188 23.938-31.469 47.125c-0.02171 0.03065-0.04255 0.06192-0.0625 0.09375-4.1009 6.837-4.9089 13.832-2.6875 19.219 2.2074 5.3528 7.6033 8.828 14.531 8.4688 0.04383-2e-3 0.08105 3e-3 0.125 0l72.938 0.0625c7.4433-0.0313 13.086-3.728 15-9.4062 1.9003-5.6372 0.20017-12.741-5.2812-19.719l-0.0938-0.1562-29.781-45.625-0.5625-23.969c-0.0011-0.11607 0.0014-0.19799 0-0.3125 0-0.02021 6.1e-4 -0.04229 0-0.0625-0.04763-3.7696-0.25822-6.7353 0.1875-9.2812 0.46193-2.6385 1.5356-4.9802 4.5312-8.0312 0.56914-0.5758 0.72104-1.4416 0.40625-2.1875-0.31478-0.74591-1.0342-1.2248-1.8438-1.2188zm-4 4c-1.5346 2.2676-2.6397 4.5136-3.0312 6.75-0.45712 2.611-0.35635 5.2352-0.28125 8.0312h-8.9062c-0.07286-4e-3 -0.14589-4e-3 -0.21875 0-1.1046 0.06041-1.9354 0.98918-1.875 2.0938 0.0604 1.1046 0.98918 1.9667 2.0938 1.9062h8.9688l0.375 15.25h-9.3438c-0.07286-4e-3 -0.14589-4e-3 -0.21875 0-1.1046 0.06041-1.9354 0.98918-1.875 2.0938 0.0604 1.1046 0.98918 1.9667 2.0938 1.9062h9.4375l0.0938 3.7188c0.0079 0.36587 0.11596 0.72256 0.3125 1.0312l7.125 10.906h-9.5938c-0.07287-4e-3 -0.14589-4e-3 -0.21875 0-1.1046 0.06041-1.9354 0.98918-1.875 2.0938 0.0604 1.1046 0.98918 1.9667 2.0938 1.9062h10.906c0.39841 0.0056 0.76939-0.10513 1.0938-0.3125l7.8438 12.031h-9.2188c-0.06247-0.0029-0.12503-0.0029-0.1875 0-1.1046 0.05177-1.958 0.98918-1.9062 2.0938 0.05177 1.1046 0.98918 1.958 2.0938 1.9062h10.906c0.28759 0.0041 0.55721-0.07703 0.8125-0.1875l7.5938 11.625h-8.6562c-0.06246-0.0029-0.12503-0.0029-0.1875 0-1.1046 0.05177-1.958 0.98918-1.9062 2.0938 0.05177 1.1046 0.98918 1.958 2.0938 1.9062h10.906c0.10585 0.0015 0.20963-0.01644 0.3125-0.03125l0.1562 0.2188c0.0289 0.05347 0.0601 0.10562 0.0937 0.15625 5.0037 6.3044 6.0966 12.099 4.75 16.094-1.3466 3.9946-5.0401 6.6614-11.25 6.6875l-73.031-0.0625c-0.04166-1e-3 -0.08334-1e-3 -0.125 0-5.64 0.33122-9.1027-2.0813-10.719-6-1.616-3.9187-1.1627-9.6226 2.4375-15.625l31.75-47.594c0.22475-0.33207 0.34452-0.72402 0.34375-1.125l-0.2188-24.531c-0.0347-3.7939 0.21043-7.0349-0.4375-10.375-0.42818-2.2073-1.5464-4.4081-3.0938-6.625l31.688-0.0312z" style="opacity:.5;stroke-width:4"/><g style="stroke-width:8"><path d="m43.036 6.4153c6.5334 6.4149 5.5473 11.264 5.6183 19.029l0.2243 24.521-31.823 47.67c-7.7011 12.839-2.4913 25.401 10.14 24.66l73.043 0.0738c13.653-0.0574 18.638-12.709 8.0575-26.04l-30.186-46.245-0.5681-24.561c-0.07101-7.7648-1.1457-12.595 5.2693-19.129l-39.775 0.0203z" style="fill:none;opacity:.25;stroke:#000"/><path d="m42.856 6.6653c6.5488 6.4149 5.5604 11.264 5.6316 19.029l0.2248 24.521-31.898 47.67c-7.7193 12.839-2.4972 25.401 10.164 24.66l73.216 0.0738c13.685-0.0574 18.682-12.709 8.0766-26.04l-30.258-46.245-0.5695-24.561c-0.07118-7.7648-1.1484-12.595 5.2817-19.129l-39.869 0.0203z" style="fill:url(#d-6);opacity:.25"/></g></g><g style="fill-rule:evenodd"><path d="m29.685 117.08c-7.0264 0.65369-12.597-4.2209-8.0742-12.824l32.297-52.245-0.2375-34.672c0.02249-2.3748-0.2794-4.7495-2.1373-7.1243 4.0668 1.9163 7.7496 3.9606 8.0742 7.1243l0.4749 36.571c0.10669 8.2146-12.649 25.194-18.261 35.119-7.6387 13.509-17.748 23.528-12.136 28.05z" style="fill:url(#e-8);opacity:.665"/><path d="m100.24 116.64c7.0264 0.65369 9.7469-4.4584 5.2245-13.061l-32.297-52.245 0.2375-34.672c-0.02248-2.3748 0.2794-4.7495 2.1373-7.1243-4.0668 1.9163-5.1374 3.9606-5.462 7.1243l-0.2375 36.334c-0.0537 8.2152 13.599 24.481 19.211 34.406 7.6386 13.509 16.798 24.716 11.186 29.237z" style="fill:url(#f)"/></g></g></g></svg>
