<?xml version="1.0" encoding="UTF-8" standalone="no"?>
<!-- Created with Inkscape (http://www.inkscape.org/) -->

<svg
   xmlns:dc="http://purl.org/dc/elements/1.1/"
   xmlns:cc="http://creativecommons.org/ns#"
   xmlns:rdf="http://www.w3.org/1999/02/22-rdf-syntax-ns#"
   xmlns:svg="http://www.w3.org/2000/svg"
   xmlns="http://www.w3.org/2000/svg"
   xmlns:xlink="http://www.w3.org/1999/xlink"
   xmlns:sodipodi="http://sodipodi.sourceforge.net/DTD/sodipodi-0.dtd"
   xmlns:inkscape="http://www.inkscape.org/namespaces/inkscape"
   width="100.00034mm"
   height="113.61994mm"
   viewBox="0 0 100.00034 113.61994"
   version="1.1"
   id="svg8"
   inkscape:version="0.92.3 (2405546, 2018-03-11)"
   sodipodi:docname="friend.svg">
  <defs
     id="defs2">
    <filter
       id="f"
       style="color-interpolation-filters:sRGB">
      <feGaussianBlur
         id="feGaussianBlur815"
         stdDeviation=".39749" />
    </filter>
    <filter
       id="g"
       style="color-interpolation-filters:sRGB" />
    <filter
       height="1.9241"
       width="1.3321"
       y="-0.46206999"
       x="-0.16603"
       id="h"
       style="color-interpolation-filters:sRGB">
      <feGaussianBlur
         id="feGaussianBlur819"
         stdDeviation="5.25117" />
    </filter>
    <filter
       height="1.3528"
       width="2.0766001"
       y="-0.17639001"
       x="-0.53832"
       id="a"
       style="color-interpolation-filters:sRGB">
      <feGaussianBlur
         id="feGaussianBlur822"
         stdDeviation="3.83559" />
    </filter>
    <filter
       height="1.5678"
       width="1.2369"
       y="-0.28389999"
       x="-0.11844"
       id="i"
       style="color-interpolation-filters:sRGB">
      <feGaussianBlur
         id="feGaussianBlur825"
         stdDeviation="2.48285" />
    </filter>
    <linearGradient
       id="c">
      <stop
         id="stop828"
         offset="0"
         stop-color="#fea" />
      <stop
         id="stop830"
         offset="1"
         stop-color="#fc0" />
    </linearGradient>
    <linearGradient
       id="j">
      <stop
         id="stop833"
         offset="0"
         stop-color="#ffd5f6" />
      <stop
         id="stop835"
         offset="1"
         stop-color="#c837ab" />
    </linearGradient>
    <linearGradient
       id="k">
      <stop
         id="stop838"
         offset="0"
         stop-color="#d5e5ff" />
      <stop
         id="stop840"
         offset="1"
         stop-color="#2a7fff" />
    </linearGradient>
    <linearGradient
       id="l">
      <stop
         id="stop843"
         offset="0"
         stop-color="#fff" />
      <stop
         id="stop845"
         offset="1"
         stop-opacity="0"
         stop-color="#fff" />
    </linearGradient>
    <linearGradient
       id="b">
      <stop
         id="stop848"
         offset="0"
         stop-color="#df5" />
      <stop
         id="stop850"
         offset="1"
         stop-color="#8a0" />
    </linearGradient>
    <linearGradient
       xlink:href="#l"
       gradientUnits="userSpaceOnUse"
       y2="21.804001"
       y1="3.194"
       x2="-382.48001"
       x1="-384.89999"
       id="e" />
    <linearGradient
       xlink:href="#l"
       gradientUnits="userSpaceOnUse"
       y2="22.295"
       y1="4.7725"
       x2="-381.73999"
       x1="-379.60001"
       id="d" />
    <radialGradient
       gradientUnits="userSpaceOnUse"
       gradientTransform="matrix(3.08,-0.011308,0.012684,3.4548,1275.1,485.79)"
       r="12.781"
       cy="74.681"
       cx="-362.76999"
       id="t">
      <stop
         id="stop855"
         offset="0"
         stop-color="#d5e5ff" />
      <stop
         id="stop857"
         offset="1"
         stop-color="#06f" />
    </radialGradient>
    <radialGradient
       gradientUnits="userSpaceOnUse"
       gradientTransform="matrix(2.0439,-6.2795e-8,6.2779e-8,2.7605,911.24,554.43)"
       r="38.449001"
       cy="72.279999"
       cx="-394.26001"
       id="r">
      <stop
         id="stop860"
         offset="0"
         stop-color="#d7e3f4" />
      <stop
         id="stop862"
         offset="1"
         stop-color="#06f" />
    </radialGradient>
    <radialGradient
       gradientUnits="userSpaceOnUse"
       gradientTransform="matrix(3.08,-0.011308,0.012684,3.4548,1498.2,482.9)"
       r="12.781"
       cy="74.681"
       cx="-362.76999"
       id="p">
      <stop
         id="stop865"
         offset="0"
         stop-color="#df5" />
      <stop
         id="stop867"
         offset="1"
         stop-color="#c837ab" />
    </radialGradient>
    <radialGradient
       xlink:href="#b"
       gradientUnits="userSpaceOnUse"
       gradientTransform="matrix(1.8194,-0.0066798,0.0074927,2.0408,296.69,-82.131)"
       r="12.781"
       cy="74.681"
       cx="-362.76999"
       id="ab" />
    <radialGradient
       xlink:href="#b"
       gradientUnits="userSpaceOnUse"
       gradientTransform="matrix(1.299,0.35889,-0.72844,2.6366,187.23,26.506)"
       r="9.5156002"
       cy="78.509003"
       cx="-437.75"
       id="aa" />
    <radialGradient
       xlink:href="#b"
       gradientUnits="userSpaceOnUse"
       gradientTransform="matrix(1.2074,-3.7093e-8,3.7084e-8,1.6307,81.755,-41.584)"
       r="38.449001"
       cy="72.279999"
       cx="-394.26001"
       id="z" />
    <radialGradient
       xlink:href="#b"
       gradientUnits="userSpaceOnUse"
       r="31.438999"
       cy="22.365"
       cx="-381.14999"
       id="y" />
    <radialGradient
       xlink:href="#c"
       gradientUnits="userSpaceOnUse"
       gradientTransform="matrix(3.08,-0.011308,0.012684,3.4548,1680.5,483.62)"
       r="12.781"
       cy="74.681"
       cx="-362.76999"
       id="x" />
    <radialGradient
       xlink:href="#c"
       gradientUnits="userSpaceOnUse"
       gradientTransform="matrix(2.199,0.60756,-1.2332,4.4634,1495.2,667.53)"
       r="9.5156002"
       cy="78.509003"
       cx="-437.75"
       id="w" />
    <radialGradient
       xlink:href="#c"
       gradientUnits="userSpaceOnUse"
       gradientTransform="matrix(2.0439,-6.2795e-8,6.2779e-8,2.7605,1316.7,552.26)"
       r="38.449001"
       cy="72.279999"
       cx="-394.26001"
       id="v" />
    <radialGradient
       xlink:href="#c"
       gradientUnits="userSpaceOnUse"
       r="31.438999"
       cy="22.365"
       cx="-381.14999"
       id="u" />
    <radialGradient
       xlink:href="#k"
       gradientUnits="userSpaceOnUse"
       gradientTransform="matrix(2.199,0.60756,-1.2332,4.4634,1089.8,669.7)"
       r="9.5156002"
       cy="78.509003"
       cx="-437.75"
       id="s" />
    <radialGradient
       xlink:href="#k"
       gradientUnits="userSpaceOnUse"
       r="31.438999"
       cy="22.365"
       cx="-381.14999"
       id="q" />
    <radialGradient
       xlink:href="#j"
       gradientUnits="userSpaceOnUse"
       gradientTransform="matrix(2.199,0.60756,-1.2332,4.4634,1312.9,666.81)"
       r="9.5156002"
       cy="78.509003"
       cx="-437.75"
       id="o" />
    <radialGradient
       xlink:href="#j"
       gradientUnits="userSpaceOnUse"
       gradientTransform="matrix(2.0439,-6.2795e-8,6.2779e-8,2.7605,1134.4,551.54)"
       r="38.449001"
       cy="72.279999"
       cx="-394.26001"
       id="n" />
    <radialGradient
       xlink:href="#j"
       gradientUnits="userSpaceOnUse"
       r="31.438999"
       cy="22.365"
       cx="-381.14999"
       id="m" />
    <linearGradient
       inkscape:collect="always"
       xlink:href="#l"
       id="linearGradient1073"
       gradientUnits="userSpaceOnUse"
       x1="-384.89999"
       y1="3.194"
       x2="-382.48001"
       y2="21.804001" />
    <linearGradient
       inkscape:collect="always"
       xlink:href="#l"
       id="linearGradient1075"
       gradientUnits="userSpaceOnUse"
       x1="-379.60001"
       y1="4.7725"
       x2="-381.73999"
       y2="22.295" />
    <linearGradient
       inkscape:collect="always"
       xlink:href="#l"
       id="linearGradient1077"
       gradientUnits="userSpaceOnUse"
       x1="-384.89999"
       y1="3.194"
       x2="-382.48001"
       y2="21.804001" />
    <linearGradient
       inkscape:collect="always"
       xlink:href="#l"
       id="linearGradient1079"
       gradientUnits="userSpaceOnUse"
       x1="-379.60001"
       y1="4.7725"
       x2="-381.73999"
       y2="22.295" />
    <linearGradient
       inkscape:collect="always"
       xlink:href="#l"
       id="linearGradient1081"
       gradientUnits="userSpaceOnUse"
       x1="-384.89999"
       y1="3.194"
       x2="-382.48001"
       y2="21.804001" />
    <linearGradient
       inkscape:collect="always"
       xlink:href="#l"
       id="linearGradient1083"
       gradientUnits="userSpaceOnUse"
       x1="-379.60001"
       y1="4.7725"
       x2="-381.73999"
       y2="22.295" />
    <filter
       id="c-6">
      <feGaussianBlur
         id="feGaussianBlur1085"
         stdDeviation="3.84278" />
    </filter>
    <filter
       id="o-5">
      <feGaussianBlur
         id="feGaussianBlur1088"
         stdDeviation="2.77049" />
    </filter>
    <linearGradient
       id="e-1">
      <stop
         id="stop1091"
         offset="0"
         stop-color="#232323" />
      <stop
         id="stop1093"
         offset="1"
         stop-opacity=".57368"
         stop-color="#797979" />
    </linearGradient>
    <linearGradient
       id="j-3">
      <stop
         id="stop1096"
         offset="0"
         stop-color="#fff" />
      <stop
         id="stop1098"
         offset="1"
         stop-color="#5a5a5a" />
    </linearGradient>
    <linearGradient
       id="k-0">
      <stop
         id="stop1101"
         offset="0"
         stop-color="#434343" />
      <stop
         id="stop1103"
         offset=".5"
         stop-color="#fff" />
      <stop
         id="stop1105"
         offset="1"
         stop-color="#5a5a5a" />
    </linearGradient>
    <linearGradient
       id="f-6">
      <stop
         id="stop1108"
         offset="0"
         stop-color="#333" />
      <stop
         id="stop1110"
         offset="1"
         stop-color="#cecece" />
    </linearGradient>
    <linearGradient
       id="m-0">
      <stop
         id="stop1113"
         offset="0"
         stop-color="#858585" />
      <stop
         id="stop1115"
         offset=".5"
         stop-color="#fff" />
      <stop
         id="stop1117"
         offset="1"
         stop-color="#939393" />
    </linearGradient>
    <linearGradient
       id="n-7">
      <stop
         id="stop1120"
         offset="0"
         stop-color="#502d16" />
      <stop
         id="stop1122"
         offset="1"
         stop-color="#2a170b" />
    </linearGradient>
    <linearGradient
       id="i-4">
      <stop
         id="stop1130"
         offset="0"
         stop-color="#6e6e6e" />
      <stop
         id="stop1132"
         offset=".5"
         stop-color="#fff" />
      <stop
         id="stop1134"
         offset="1"
         stop-color="#a1a1a1" />
    </linearGradient>
    <linearGradient
       id="h-8">
      <stop
         id="stop1137"
         offset="0"
         stop-color="#898989" />
      <stop
         id="stop1139"
         offset=".5"
         stop-color="#e6e6e6" />
      <stop
         id="stop1141"
         offset="1"
         stop-color="#a4a4a4" />
    </linearGradient>
    <linearGradient
       gradientUnits="userSpaceOnUse"
       y2="269.87"
       y1="261.89001"
       x2="175.59"
       x1="174.12"
       id="aj">
      <stop
         id="stop1144"
         offset="0"
         stop-color="#808080" />
      <stop
         id="stop1146"
         offset="1"
         stop-opacity="0"
         stop-color="#808080" />
    </linearGradient>
    <linearGradient
       gradientUnits="userSpaceOnUse"
       y2="-138.00999"
       y1="-142.12"
       x2="1078.1"
       x1="742.56"
       id="ab-0">
      <stop
         id="stop1149"
         offset="0"
         stop-color="#800000" />
      <stop
         id="stop1151"
         offset=".5"
         stop-color="#ff0c0c" />
      <stop
         id="stop1153"
         offset="1"
         stop-color="#800000" />
    </linearGradient>
    <linearGradient
       xlink:href="#i-4"
       gradientUnits="userSpaceOnUse"
       gradientTransform="matrix(0.97751,0,0,-1,20.911,913.88)"
       y2="399.17999"
       y1="301.44"
       x2="275.22"
       x1="250.58"
       id="u-9" />
    <linearGradient
       xlink:href="#n-7"
       gradientUnits="userSpaceOnUse"
       y2="356.54001"
       y1="346.63"
       x2="181.87"
       x1="181.66"
       id="a-7" />
    <linearGradient
       spreadMethod="reflect"
       xlink:href="#i-4"
       gradientUnits="userSpaceOnUse"
       y2="380.04001"
       y1="338.25"
       x2="363.17999"
       x1="348.56"
       id="v-3" />
    <linearGradient
       xlink:href="#i-4"
       gradientUnits="userSpaceOnUse"
       y2="392.67001"
       y1="323.81"
       x2="264.14999"
       x1="261.32999"
       id="w-2" />
    <linearGradient
       xlink:href="#e-1"
       gradientUnits="userSpaceOnUse"
       y2="243.17999"
       y1="239.53"
       x2="204.38"
       x1="202.44"
       id="as" />
    <linearGradient
       xlink:href="#e-1"
       gradientUnits="userSpaceOnUse"
       y2="257.53"
       y1="253.88"
       x2="141.62"
       x1="139.67"
       id="ar" />
    <linearGradient
       spreadMethod="reflect"
       xlink:href="#k-0"
       gradientUnits="userSpaceOnUse"
       y2="-104.92"
       y1="-104.74"
       x2="256.60999"
       x1="290.38"
       id="aq" />
    <linearGradient
       xlink:href="#f-6"
       gradientUnits="userSpaceOnUse"
       gradientTransform="matrix(0.38806,1.5031,-1.5031,0.38806,338.85,-422.5)"
       y2="275.64001"
       y1="222.97"
       x2="438.56"
       x1="402.29999"
       id="ap" />
    <linearGradient
       xlink:href="#f-6"
       gradientUnits="userSpaceOnUse"
       gradientTransform="matrix(0.38806,1.5214,-1.5031,0.39276,341.11,-427)"
       y2="242.87"
       y1="251.22"
       x2="384"
       x1="346.51001"
       id="ao" />
    <linearGradient
       xlink:href="#f-6"
       gradientUnits="userSpaceOnUse"
       gradientTransform="matrix(0.4256,1.4365,1.4929,-0.40951,-311.5,-224.08)"
       y2="272.92999"
       y1="236.08"
       x2="344.56"
       x1="356.47"
       id="an" />
    <linearGradient
       spreadMethod="reflect"
       xlink:href="#m-0"
       gradientUnits="userSpaceOnUse"
       y2="137.27"
       y1="187.53"
       x2="175.44"
       x1="131.06"
       id="am" />
    <linearGradient
       xlink:href="#j-3"
       gradientUnits="userSpaceOnUse"
       y2="235.84"
       y1="153.8"
       x2="234.47"
       x1="107.25"
       id="al" />
    <linearGradient
       xlink:href="#f-6"
       gradientUnits="userSpaceOnUse"
       gradientTransform="matrix(-0.33812,-1.4669,1.4678,-0.38971,-10.34,893.96)"
       y2="242.64"
       y1="233.46001"
       x2="378.95001"
       x1="375.70999"
       id="ak" />
    <linearGradient
       spreadMethod="reflect"
       xlink:href="#m-0"
       gradientUnits="userSpaceOnUse"
       y2="135.52"
       y1="185.78"
       x2="173.99001"
       x1="129.61"
       id="ai" />
    <linearGradient
       xlink:href="#j-3"
       gradientUnits="userSpaceOnUse"
       y2="370.09"
       y1="279.14999"
       x2="264.89999"
       x1="117.21"
       id="ah" />
    <linearGradient
       xlink:href="#e-1"
       gradientUnits="userSpaceOnUse"
       y2="333.54001"
       y1="329.48001"
       x2="-141"
       x1="-141.81"
       id="ag" />
    <linearGradient
       xlink:href="#e-1"
       gradientUnits="userSpaceOnUse"
       y2="309.79999"
       y1="305.92001"
       x2="-50.207001"
       x1="-51.645"
       id="af" />
    <linearGradient
       xlink:href="#e-1"
       gradientUnits="userSpaceOnUse"
       y2="286.97"
       y1="283.32001"
       x2="36.519001"
       x1="34.573002"
       id="ae" />
    <linearGradient
       xlink:href="#k-0"
       gradientUnits="userSpaceOnUse"
       y2="218.34"
       y1="231.75"
       x2="228.87"
       x1="231.03"
       id="ad" />
    <linearGradient
       spreadMethod="reflect"
       xlink:href="#k-0"
       gradientUnits="userSpaceOnUse"
       y2="276.04001"
       y1="301.29001"
       x2="-40.452"
       x1="-33.775002"
       id="ac" />
    <linearGradient
       xlink:href="#n-7"
       gradientUnits="userSpaceOnUse"
       gradientTransform="matrix(1.436,-0.38204,0.38204,1.436,-716.33,-60.124)"
       y2="356.54001"
       y1="346.63"
       x2="181.87"
       x1="181.66"
       id="b-4" />
    <linearGradient
       spreadMethod="reflect"
       xlink:href="#h-8"
       gradientUnits="userSpaceOnUse"
       gradientTransform="matrix(1,0,0,-1,567.66,479.32)"
       y2="533.54999"
       y1="450"
       x2="330.59"
       x1="45.442001"
       id="aa-2" />
    <linearGradient
       spreadMethod="reflect"
       xlink:href="#h-8"
       gradientUnits="userSpaceOnUse"
       gradientTransform="matrix(1,0,0,-1,567.66,479.32)"
       y2="740.38"
       y1="707.51001"
       x2="300.03"
       x1="166.39999"
       id="z-6" />
    <linearGradient
       spreadMethod="reflect"
       xlink:href="#h-8"
       gradientUnits="userSpaceOnUse"
       y2="13.5"
       y1="-54.986"
       x2="843.39001"
       x1="722.46002"
       id="y-8" />
    <linearGradient
       spreadMethod="reflect"
       xlink:href="#h-8"
       gradientUnits="userSpaceOnUse"
       y2="7.4145999"
       y1="-39.817001"
       x2="920.28003"
       x1="836.31"
       id="x-8" />
    <radialGradient
       gradientUnits="userSpaceOnUse"
       gradientTransform="matrix(0.63685,0.26263,-0.65499,1.5883,281.89,-244.82)"
       r="7.7044001"
       cy="348.25"
       cx="142.22"
       id="l-5">
      <stop
         id="stop1181"
         offset="0"
         stop-color="#fff" />
      <stop
         id="stop1183"
         offset=".68889"
         stop-color="#bfbfbf" />
      <stop
         id="stop1185"
         offset="1"
         stop-color="#525252" />
    </radialGradient>
    <radialGradient
       gradientUnits="userSpaceOnUse"
       r="73.397003"
       cy="586.53998"
       cx="-184.38"
       id="s-8">
      <stop
         id="stop1188"
         offset="0"
         stop-color="#fff" />
      <stop
         id="stop1190"
         offset=".77778"
         stop-color="#cbcbcb" />
      <stop
         id="stop1192"
         offset="1"
         stop-color="#8c8c8c" />
    </radialGradient>
    <radialGradient
       xlink:href="#j-3"
       gradientUnits="userSpaceOnUse"
       r="27.464001"
       cy="323.66"
       cx="423.06"
       id="d-9" />
    <radialGradient
       xlink:href="#l"
       gradientUnits="userSpaceOnUse"
       gradientTransform="matrix(0.074556,3.7015,-5.6889,-0.60472,2109.1,-331.35)"
       r="1.0429"
       cy="348.82001"
       cx="243.78999"
       id="p-7" />
    <radialGradient
       xlink:href="#l"
       gradientUnits="userSpaceOnUse"
       gradientTransform="matrix(1,-4.9214e-7,2.1959e-6,20.007,-7.6596e-4,-6630.1)"
       r="1.0429"
       cy="348.82001"
       cx="243.78999"
       id="q-7" />
    <radialGradient
       xlink:href="#l"
       gradientUnits="userSpaceOnUse"
       gradientTransform="matrix(1.5212,5.2868,-8.4003,1.305,2185.7,-1341.7)"
       r="1.0429"
       cy="348.82001"
       cx="243.78999"
       id="t-5" />
    <radialGradient
       xlink:href="#l"
       gradientUnits="userSpaceOnUse"
       gradientTransform="matrix(0.9872,0.68634,-0.89224,1.2834,1017.7,-929.81)"
       r="29.132999"
       cy="518.41998"
       cx="426.20001"
       id="r-4" />
  </defs>
  <sodipodi:namedview
     id="base"
     pagecolor="#ffffff"
     bordercolor="#666666"
     borderopacity="1.0"
     inkscape:pageopacity="0.0"
     inkscape:pageshadow="2"
     inkscape:zoom="0.35"
     inkscape:cx="-417.8968"
     inkscape:cy="272.24006"
     inkscape:document-units="mm"
     inkscape:current-layer="layer1"
     showgrid="false"
     fit-margin-top="0"
     fit-margin-left="0"
     fit-margin-right="0"
     fit-margin-bottom="0"
     inkscape:window-width="1920"
     inkscape:window-height="1017"
     inkscape:window-x="-8"
     inkscape:window-y="-8"
     inkscape:window-maximized="1" />
  <metadata
     id="metadata5">
    <rdf:RDF>
      <cc:Work
         rdf:about="">
        <dc:format>image/svg+xml</dc:format>
        <dc:type
           rdf:resource="http://purl.org/dc/dcmitype/StillImage" />
        <dc:title></dc:title>
      </cc:Work>
    </rdf:RDF>
  </metadata>
  <g
     inkscape:label="Layer 1"
     inkscape:groupmode="layer"
     id="layer1"
     transform="translate(-17.96436,-107.24357)">
    <g
       id="g1071"
       transform="matrix(0.16319253,0,0,0.13946088,17.965778,105.92853)">
      <g
         id="g905"
         transform="matrix(3.6783,0,0,3.6783,1719.4,48.284)">
        <path
           id="path885"
           d="m -359.84,50.5 c 7.2084,5.3413 11.875,13.925 11.875,23.625 v 20.688 c 0,2.2812 -0.26206,4.4956 -0.75,6.625 4.4552,2.0232 9.0112,1.4037 12.844,-0.78125 1.032,-3.4675 1.5938,-7.1578 1.5938,-10.969 v -3.188 c 0,-16.706 -10.662,-30.826 -25.562,-36 z"
           inkscape:connector-curvature="0"
           style="fill:url(#ab)" />
        <path
           id="path887"
           d="m -416.72,53.781 c -11.4,6.575 -19.03,18.876 -19.03,33.031 V 90 c 0,5.3389 1.0684,10.426 3.0312,15.031 3.0478,0.99527 6.3757,1.1309 9.6875,0.0625 -1.187,-3.1958 -1.8438,-6.6632 -1.8438,-10.281 v -20.688 c 0,-7.9121 3.1025,-15.074 8.1562,-20.344 z"
           inkscape:connector-curvature="0"
           style="fill:url(#aa)" />
        <path
           id="path889"
           d="m -396.69,44.75 c -15.622,0 -28.188,12.596 -28.188,28.219 v 35.911 c 0,0.30131 0.022,0.60727 0.0312,0.90625 24.128,17.628 54.944,17.315 76.781,1.125 0.0467,-0.66682 0.0937,-1.3521 0.0937,-2.0312 v -35.911 c 0,-15.622 -12.596,-28.219 -28.219,-28.219 h -20.5 z"
           inkscape:connector-curvature="0"
           style="fill:url(#z)" />
        <path
           id="path891"
           d="m -360.23,54.072 c 7.2084,5.3413 11.875,13.925 11.875,23.625 v 20.688 c 1e-5,2.2812 -0.26206,4.4956 -0.75,6.625 1.885,0.85603 3.7976,1.2586 5.6562,1.25 1.2736,-13.863 -1.2373,-32.647 -8.0312,-47.812 -2.6867,-1.8064 -5.6337,-3.293 -8.75,-4.375 z"
           transform="matrix(0.65038,0,0,0.9349,-120.95,2.9225)"
           inkscape:connector-curvature="0"
           style="opacity:0.67391004;fill:#333333;filter:url(#a)" />
        <path
           id="path893"
           d="m -360.23,54.072 c 7.2084,5.3413 11.875,13.925 11.875,23.625 v 20.688 c 1e-5,2.2812 -0.26206,4.4956 -0.75,6.625 1.885,0.85603 3.7976,1.2586 5.6562,1.25 1.2736,-13.863 -1.2373,-32.647 -8.0312,-47.812 -2.6867,-1.8064 -5.6337,-3.293 -8.75,-4.375 z"
           transform="matrix(-0.89517,0,0,0.9349,-734.43,5.2277)"
           inkscape:connector-curvature="0"
           style="opacity:0.63042997;fill:#333333;filter:url(#a)" />
        <path
           id="path895"
           d="m -423.16,94.507 v 13.125 c 1e-5,0.3013 0.022,0.60727 0.0312,0.90625 23.795,17.385 54.098,17.315 75.875,1.7812 -22.03,8.1819 -51.312,9.0992 -75.906,-15.812 z"
           inkscape:connector-curvature="0"
           style="opacity:0.60145;fill:#4d4d4d;filter:url(#h)" />
        <path
           id="path897"
           d="m -364.36,17.156 a 14.62,9.9866 0 1 1 -29.24,0 14.62,9.9866 0 1 1 29.24,0 z"
           transform="matrix(0.60706,-0.75321,0.80836,0.65152,-192.39,-232.79)"
           inkscape:connector-curvature="0"
           style="fill:url(#linearGradient1073);filter:url(#f)" />
        <path
           id="path899"
           d="m -361,39.212 c -4.5673,9.767 -14.471,16.538 -25.959,16.538 -10.28,0 -19.298,-5.4227 -24.354,-13.562 3.3864,10.449 13.196,18.013 24.768,18.013 12.647,0 23.194,-9.0278 25.545,-20.99 z"
           transform="matrix(0.98197,0,0,1,-7.4157,0)"
           inkscape:connector-curvature="0"
           style="opacity:0.90579996;fill:#333333;filter:url(#i)" />
        <path
           id="path901"
           d="m -354.54,31.884 a 31.439,31.439 0 1 1 -62.878,0 31.439,31.439 0 1 1 62.878,0 z"
           transform="translate(-2.4327,-7.1716)"
           inkscape:connector-curvature="0"
           style="fill:url(#y)" />
        <path
           id="path903"
           d="m -364.36,17.156 a 14.62,9.9866 0 1 1 -29.24,0 14.62,9.9866 0 1 1 29.24,0 z"
           transform="matrix(0.98373,-0.49258,0.52865,1.0558,-30.833,-194.06)"
           inkscape:connector-curvature="0"
           style="fill:url(#linearGradient1075);filter:url(#g)" />
      </g>
      <g
         id="g927"
         transform="translate(-35.146,-28.194)">
        <path
           id="path907"
           d="m 163.67,710.32 c 12.203,9.0422 20.103,23.573 20.103,39.994 v 35.022 c 0,3.8618 -0.44364,7.6105 -1.2697,11.215 7.5422,3.4251 15.255,2.3763 21.743,-1.3226 1.7471,-5.8701 2.698,-12.117 2.698,-18.569 v -5.3961 c 0,-28.282 -18.049,-52.185 -43.274,-60.944 z"
           inkscape:connector-curvature="0"
           style="fill:url(#t)" />
        <path
           id="path909"
           d="m 67.383,715.88 c -19.294,11.131 -32.218,31.955 -32.218,55.918 v 5.3961 c 0,9.0382 1.8087,17.65 5.1316,25.446 5.1595,1.6849 10.793,1.9144 16.4,0.10581 -2.0095,-5.4102 -3.1213,-11.28 -3.1213,-17.405 v -35.022 c 0,-13.394 5.2521,-25.518 13.808,-34.44 z"
           inkscape:connector-curvature="0"
           style="fill:url(#s)" />
        <path
           id="path911"
           d="m 101.29,700.59 c -26.447,0 -47.718,21.324 -47.718,47.771 v 60.785 c 0,0.51008 0.03718,1.028 0.0529,1.5342 40.846,29.843 93.014,29.313 129.98,1.9045 0.0791,-1.1288 0.15871,-2.289 0.15871,-3.4387 v -60.785 c 0,-26.447 -21.324,-47.771 -47.771,-47.771 h -34.7 z"
           inkscape:connector-curvature="0"
           style="fill:url(#r)" />
        <path
           id="path913"
           d="m -360.23,54.072 c 7.2084,5.3413 11.875,13.925 11.875,23.625 v 20.688 c 1e-5,2.2812 -0.26206,4.4956 -0.75,6.625 1.885,0.85603 3.7976,1.2586 5.6562,1.25 1.2736,-13.863 -1.2373,-32.647 -8.0312,-47.812 -2.6867,-1.8064 -5.6337,-3.293 -8.75,-4.375 z"
           transform="matrix(1.101,0,0,1.5827,568.08,629.78)"
           inkscape:connector-curvature="0"
           style="opacity:0.67391004;fill:#333333;filter:url(#a)" />
        <path
           id="path915"
           d="m -360.23,54.072 c 7.2084,5.3413 11.875,13.925 11.875,23.625 v 20.688 c 1e-5,2.2812 -0.26206,4.4956 -0.75,6.625 1.885,0.85603 3.7976,1.2586 5.6562,1.25 1.2736,-13.863 -1.2373,-32.647 -8.0312,-47.812 -2.6867,-1.8064 -5.6337,-3.293 -8.75,-4.375 z"
           transform="matrix(-1.5154,0,0,1.5827,-470.47,633.68)"
           inkscape:connector-curvature="0"
           style="opacity:0.63042997;fill:#333333;filter:url(#a)" />
        <path
           id="path917"
           d="m -423.16,94.507 v 13.125 c 1e-5,0.3013 0.022,0.60727 0.0312,0.90625 23.795,17.385 54.098,17.315 75.875,1.7812 -22.03,8.1819 -51.312,9.0992 -75.906,-15.812 z"
           transform="matrix(1.6929,0,0,1.6929,772.84,624.83)"
           inkscape:connector-curvature="0"
           style="opacity:0.60145;fill:#4d4d4d;filter:url(#h)" />
        <path
           id="path919"
           d="m -364.36,17.156 a 14.62,9.9866 0 1 1 -29.24,0 14.62,9.9866 0 1 1 29.24,0 z"
           transform="matrix(1.0277,-1.2751,1.3685,1.103,447.14,230.75)"
           inkscape:connector-curvature="0"
           style="fill:url(#linearGradient1077);filter:url(#f)" />
        <path
           id="path921"
           d="m -361,39.212 c -4.5673,9.767 -14.471,16.538 -25.959,16.538 -10.28,0 -19.298,-5.4227 -24.354,-13.562 3.3864,10.449 13.196,18.013 24.768,18.013 12.647,0 23.194,-9.0278 25.545,-20.99 z"
           transform="matrix(1.6624,0,0,1.6929,760.29,624.83)"
           inkscape:connector-curvature="0"
           style="opacity:0.90579996;fill:#333333;filter:url(#i)" />
        <path
           id="path923"
           d="m -354.54,31.884 a 31.439,31.439 0 1 1 -62.878,0 31.439,31.439 0 1 1 62.878,0 z"
           transform="matrix(1.6929,0,0,1.6929,768.72,612.69)"
           inkscape:connector-curvature="0"
           style="fill:url(#q)" />
        <path
           id="path925"
           d="m -364.36,17.156 a 14.62,9.9866 0 1 1 -29.24,0 14.62,9.9866 0 1 1 29.24,0 z"
           transform="matrix(1.6653,-0.83388,0.89494,1.7873,720.64,296.31)"
           inkscape:connector-curvature="0"
           style="fill:url(#linearGradient1079);filter:url(#g)" />
      </g>
      <g
         id="g949"
         transform="translate(-39.939,-25.3)">
        <path
           id="path929"
           d="m 386.79,707.43 c 12.203,9.0422 20.103,23.573 20.103,39.994 v 35.022 c 0,3.8618 -0.44364,7.6105 -1.2697,11.215 7.5422,3.4251 15.255,2.3763 21.743,-1.3226 1.7471,-5.8701 2.698,-12.117 2.698,-18.569 v -5.3961 c 0,-28.282 -18.049,-52.185 -43.274,-60.944 z"
           inkscape:connector-curvature="0"
           style="fill:url(#p)" />
        <path
           id="path931"
           d="m 290.51,712.98 c -19.294,11.131 -32.218,31.955 -32.218,55.918 v 5.3961 c 0,9.0382 1.8087,17.65 5.1316,25.446 5.1595,1.6849 10.793,1.9144 16.4,0.10581 -2.0095,-5.4102 -3.1213,-11.28 -3.1213,-17.405 v -35.022 c 0,-13.394 5.2521,-25.518 13.808,-34.44 z"
           inkscape:connector-curvature="0"
           style="fill:url(#o)" />
        <path
           id="path933"
           d="m 324.42,697.69 c -26.447,0 -47.718,21.324 -47.718,47.771 v 60.785 c 0,0.51008 0.0372,1.028 0.0529,1.5342 40.846,29.843 93.014,29.313 129.98,1.9045 0.0791,-1.1288 0.15871,-2.289 0.15871,-3.4387 v -60.785 c 0,-26.447 -21.324,-47.771 -47.771,-47.771 h -34.704 z"
           inkscape:connector-curvature="0"
           style="fill:url(#n)" />
        <path
           id="path935"
           d="m -360.23,54.072 c 7.2084,5.3413 11.875,13.925 11.875,23.625 v 20.688 c 1e-5,2.2812 -0.26206,4.4956 -0.75,6.625 1.885,0.85603 3.7976,1.2586 5.6562,1.25 1.2736,-13.863 -1.2373,-32.647 -8.0312,-47.812 -2.6867,-1.8064 -5.6337,-3.293 -8.75,-4.375 z"
           transform="matrix(1.101,0,0,1.5827,791.21,626.88)"
           inkscape:connector-curvature="0"
           style="opacity:0.67391004;fill:#333333;filter:url(#a)" />
        <path
           id="path937"
           d="m -360.23,54.072 c 7.2084,5.3413 11.875,13.925 11.875,23.625 v 20.688 c 1e-5,2.2812 -0.26206,4.4956 -0.75,6.625 1.885,0.85603 3.7976,1.2586 5.6562,1.25 1.2736,-13.863 -1.2373,-32.647 -8.0312,-47.812 -2.6867,-1.8064 -5.6337,-3.293 -8.75,-4.375 z"
           transform="matrix(-1.5154,0,0,1.5827,-247.35,630.79)"
           inkscape:connector-curvature="0"
           style="opacity:0.63042997;fill:#333333;filter:url(#a)" />
        <path
           id="path939"
           d="m -423.16,94.507 v 13.125 c 1e-5,0.3013 0.022,0.60727 0.0312,0.90625 23.795,17.385 54.098,17.315 75.875,1.7812 -22.03,8.1819 -51.312,9.0992 -75.906,-15.812 z"
           transform="matrix(1.6929,0,0,1.6929,995.97,621.94)"
           inkscape:connector-curvature="0"
           style="opacity:0.60145;fill:#4d4d4d;filter:url(#h)" />
        <path
           id="path941"
           d="m -364.36,17.156 a 14.62,9.9866 0 1 1 -29.24,0 14.62,9.9866 0 1 1 29.24,0 z"
           transform="matrix(1.0277,-1.2751,1.3685,1.103,670.27,227.86)"
           inkscape:connector-curvature="0"
           style="fill:url(#linearGradient1081);filter:url(#f)" />
        <path
           id="path943"
           d="m -361,39.212 c -4.5673,9.767 -14.471,16.538 -25.959,16.538 -10.28,0 -19.298,-5.4227 -24.354,-13.562 3.3864,10.449 13.196,18.013 24.768,18.013 12.647,0 23.194,-9.0278 25.545,-20.99 z"
           transform="matrix(1.6624,0,0,1.6929,983.41,621.94)"
           inkscape:connector-curvature="0"
           style="opacity:0.90579996;fill:#333333;filter:url(#i)" />
        <path
           id="path945"
           d="m -354.54,31.884 a 31.439,31.439 0 1 1 -62.878,0 31.439,31.439 0 1 1 62.878,0 z"
           transform="matrix(1.6929,0,0,1.6929,991.85,609.79)"
           inkscape:connector-curvature="0"
           style="fill:url(#m)" />
        <path
           id="path947"
           d="m -364.36,17.156 a 14.62,9.9866 0 1 1 -29.24,0 14.62,9.9866 0 1 1 29.24,0 z"
           transform="matrix(1.6653,-0.83388,0.89494,1.7873,943.77,293.42)"
           inkscape:connector-curvature="0"
           style="fill:url(#linearGradient1083);filter:url(#g)" />
      </g>
      <g
         id="g971"
         transform="translate(0.40228,-28.815)">
        <path
           id="path951"
           d="m 569.09,708.15 c 12.203,9.0422 20.103,23.573 20.103,39.994 v 35.022 c 0,3.8618 -0.44364,7.6105 -1.2697,11.215 7.5422,3.4251 15.255,2.3763 21.743,-1.3226 1.7471,-5.8701 2.698,-12.117 2.698,-18.569 v -5.3961 c 0,-28.282 -18.049,-52.185 -43.274,-60.944 z"
           inkscape:connector-curvature="0"
           style="fill:url(#x)" />
        <path
           id="path953"
           d="m 472.8,713.7 c -19.294,11.131 -32.218,31.955 -32.218,55.918 v 5.3961 c 0,9.0382 1.8087,17.65 5.1316,25.446 5.1595,1.6849 10.793,1.9144 16.4,0.10581 -2.0095,-5.4102 -3.1213,-11.28 -3.1213,-17.405 v -35.022 c 0,-13.394 5.2521,-25.518 13.808,-34.44 z"
           inkscape:connector-curvature="0"
           style="fill:url(#w)" />
        <path
           id="path955"
           d="m 506.71,698.42 c -26.447,0 -47.718,21.324 -47.718,47.771 v 60.785 c 0,0.51008 0.0372,1.028 0.0529,1.5342 40.846,29.843 93.014,29.313 129.98,1.9045 0.0791,-1.1288 0.15871,-2.289 0.15871,-3.4387 v -60.785 c 0,-26.447 -21.324,-47.771 -47.771,-47.771 h -34.704 z"
           inkscape:connector-curvature="0"
           style="fill:url(#v)" />
        <path
           id="path957"
           d="m -360.23,54.072 c 7.2084,5.3413 11.875,13.925 11.875,23.625 v 20.688 c 1e-5,2.2812 -0.26206,4.4956 -0.75,6.625 1.885,0.85603 3.7976,1.2586 5.6562,1.25 1.2736,-13.863 -1.2373,-32.647 -8.0312,-47.812 -2.6867,-1.8064 -5.6337,-3.293 -8.75,-4.375 z"
           transform="matrix(1.101,0,0,1.5827,973.5,627.61)"
           inkscape:connector-curvature="0"
           style="opacity:0.67391004;fill:#a05a2c;filter:url(#a)" />
        <path
           id="path959"
           d="m -360.23,54.072 c 7.2084,5.3413 11.875,13.925 11.875,23.625 v 20.688 c 1e-5,2.2812 -0.26206,4.4956 -0.75,6.625 1.885,0.85603 3.7976,1.2586 5.6562,1.25 1.2736,-13.863 -1.2373,-32.647 -8.0312,-47.812 -2.6867,-1.8064 -5.6337,-3.293 -8.75,-4.375 z"
           transform="matrix(-1.5154,0,0,1.5827,-65.054,631.51)"
           inkscape:connector-curvature="0"
           style="opacity:0.63042997;fill:#784421;filter:url(#a)" />
        <path
           id="path961"
           d="m -423.16,94.507 v 13.125 c 1e-5,0.3013 0.022,0.60727 0.0312,0.90625 23.795,17.385 54.098,17.315 75.875,1.7812 -22.03,8.1819 -51.312,9.0992 -75.906,-15.812 z"
           transform="matrix(1.6929,0,0,1.6929,1178.3,622.66)"
           inkscape:connector-curvature="0"
           style="opacity:0.60145;fill:#a05a2c;filter:url(#h)" />
        <path
           id="path963"
           d="m -364.36,17.156 a 14.62,9.9866 0 1 1 -29.24,0 14.62,9.9866 0 1 1 29.24,0 z"
           transform="matrix(1.0277,-1.2751,1.3685,1.103,852.56,228.58)"
           inkscape:connector-curvature="0"
           style="fill:url(#e);filter:url(#f)" />
        <path
           id="path965"
           d="m -361,39.212 c -4.5673,9.767 -14.471,16.538 -25.959,16.538 -10.28,0 -19.298,-5.4227 -24.354,-13.562 3.3864,10.449 13.196,18.013 24.768,18.013 12.647,0 23.194,-9.0278 25.545,-20.99 z"
           transform="matrix(1.6624,0,0,1.6929,1165.7,622.66)"
           inkscape:connector-curvature="0"
           style="opacity:0.90579996;fill:#a05a2c;filter:url(#i)" />
        <path
           id="path967"
           d="m -354.54,31.884 a 31.439,31.439 0 1 1 -62.878,0 31.439,31.439 0 1 1 62.878,0 z"
           transform="matrix(1.6929,0,0,1.6929,1174.1,610.52)"
           inkscape:connector-curvature="0"
           style="fill:url(#u)" />
        <path
           id="path969"
           d="m -364.36,17.156 a 14.62,9.9866 0 1 1 -29.24,0 14.62,9.9866 0 1 1 29.24,0 z"
           transform="matrix(1.6653,-0.83388,0.89494,1.7873,1126.1,294.14)"
           inkscape:connector-curvature="0"
           style="fill:url(#d);filter:url(#g)" />
      </g>
    </g>
  </g>
</svg>
