<?xml version="1.0" encoding="UTF-8"?>
<svg width="157.03mm" height="112.11mm" version="1.1" viewBox="0 0 157.03 112.11" xmlns="http://www.w3.org/2000/svg"><defs><clipPath id="clipPath841"><path d="m107.6 612.4h504.8v-504.8h-504.8z"/></clipPath></defs><g transform="translate(67.175 -154.85)"><g transform="matrix(.35278 0 0 -.35278 -115.66 337.9)"><g clip-path="url(#clipPath841)" style="opacity:.5"></g></g><g transform="matrix(.35278 0 0 -.35278 11.339 266.96)" style="fill:#338000"><path d="m0 0c-44.092 0-151.39 80.323-151.39 80.323v93.749h302.79v-93.749s-107.3-80.323-151.39-80.323" style="fill:#338000"/></g><g transform="matrix(.61143 0 0 -.66597 52.24 231.5)" style="stroke-width:.55284"><path d="m0-0.050531s7.911-29.283 6.642-31.819c-1.27-2.5362-8.282-5.5926-8.282-5.5926l-1.491 38.435z" style="fill:#f7931d"/></g><g transform="matrix(.35278 0 0 -.35278 11.339 239.38)"><path d="m0 0-222.56 133v8.122l222.56 88.84 222.56-88.84v-8.122z" style="fill:#112b00"/></g><g transform="matrix(.35278 0 0 -.35278 11.339 236.51)" style="fill:#4a0"><path d="m0 0-222.56 133 222.56 98.485 222.56-98.485z" style="fill:#4a0"/></g><g transform="matrix(.68294 0 0 -.6861 53.407 231.34)" style="stroke-width:.51537"><path d="m0 0s7.911-27.837 6.642-30.248c-1.27-2.411-9.773-6.346-9.773-6.346v37.567z" style="fill:#f7931d"/></g><g transform="matrix(.35278 0 0 -.35278 52 229.29)"><path d="m0 0h-5.077v45.501l-111.55 71.576 2.741 4.273 113.89-73.074z" style="fill:#d35f5f"/></g><g transform="matrix(.6861 0 0 -.6861 53.407 231.34)" style="stroke-width:.51418"><path d="m0 0h-6.324c-1.123 0-2.041 0.919-2.041 2.041v0.063c0 1.123 0.918 2.042 2.041 2.042h6.324c1.123 0 2.042-0.919 2.042-2.042v-0.062c0-1.123-0.919-2.042-2.042-2.042" style="fill:#fbb03f"/></g><g transform="matrix(.6861 0 0 -.6861 49.09 231.34)" style="stroke-width:.51418"><path d="m0 0s-7.911-27.837-6.642-30.248c1.27-2.411 9.773-6.346 9.773-6.346v37.567z" style="fill:#fbb03f"/></g><g transform="matrix(.6861 0 0 -.6861 53.386 228.49)" style="stroke-width:.51418"><path d="m0 0h-3.131v-4.146h3.131c1.14 0 2.073 0.933 2.073 2.073s-0.933 2.073-2.073 2.073" style="fill:#f7931d"/></g><g transform="matrix(.35278 0 0 -.35278 24.114 187.23)"><path d="m0 0c0-8.177-16.213-14.806-36.213-14.806-19.999 0-36.212 6.629-36.212 14.806s16.213 14.807 36.212 14.807c20 0 36.213-6.63 36.213-14.807" style="fill:#e5ffd5"/></g></g></svg>
