<?xml version="1.0" encoding="UTF-8"?>
<svg width="400.55mm" height="302.41mm" version="1.1" viewBox="0 0 400.55 302.41" xmlns="http://www.w3.org/2000/svg" xmlns:xlink="http://www.w3.org/1999/xlink"><defs><filter id="d"><feGaussianBlur stdDeviation="5.6459"/></filter><filter id="c"><feGaussianBlur stdDeviation="5.33721"/></filter><filter id="k"><feGaussianBlur stdDeviation="13.10146"/></filter><linearGradient id="a"><stop stop-color="#dcdee1" offset="0"/><stop stop-color="#fff" offset="1"/></linearGradient><linearGradient id="g" x2="0" y1="106.19" y2="893.85" gradientUnits="userSpaceOnUse"><stop stop-opacity=".72028" offset="0"/><stop stop-opacity="0" offset="1"/></linearGradient><linearGradient id="e" x2="0" y1="519.3" y2="-416.56" gradientUnits="userSpaceOnUse"><stop offset="0"/><stop stop-opacity="0" offset="1"/></linearGradient><linearGradient id="j" x2="0" y1="889.65" y2="-233.11" gradientTransform="matrix(.26458 0 0 .26458 -134.13 85.558)" gradientUnits="userSpaceOnUse" xlink:href="#a"/><linearGradient id="i" x2="0" y1="888.43" y2="186.9" gradientTransform="matrix(.26458 0 0 .26458 -134.13 85.558)" gradientUnits="userSpaceOnUse" xlink:href="#a"/><linearGradient id="f" x2="0" y1="364.09" y2="-233.54" gradientTransform="matrix(.26458 0 0 .26458 -134.13 85.558)" gradientUnits="userSpaceOnUse" xlink:href="#a"/></defs><g transform="translate(175.03 -48.065)"><g transform="translate(-37.042 27.214)"><g transform="matrix(.26458 0 0 .26458 -134.13 85.558)" style="filter:url(#k)"><path d="m0-231.89h1488.2v1120.3h-1488.2z"/><path transform="translate(0,-395.83)" d="m0 163.94v129.91l67.625-81.969v-47.938h-67.625z"/><g transform="matrix(1 -1.2121 0 .79618 -520.57 776.28)"><path d="m520.57-234.73h67.634v184.46h-67.634z"/><path d="m520.57 25.56h67.634v184.46h-67.634z"/></g><g transform="matrix(1 -1.2121 0 .79618 -520.57 1193.9)"><path d="m520.57-234.73h67.634v184.46h-67.634z"/><path d="m520.57 25.56h67.634v184.46h-67.634z"/></g><path transform="translate(0,-395.83)" d="m67.625 1104.3-67.625 81.969v97.938h40.344l27.281-33.062v-146.84z"/><path d="m0.4804-232.41h85.543v1121.4h-85.543z"/><g transform="matrix(-1,0,0,1,1488.2,0)"><path transform="translate(0,-395.83)" d="m0 163.94v129.91l67.625-81.969v-47.938h-67.625z"/><g transform="matrix(1 -1.2121 0 .79618 -520.57 776.28)"><path d="m520.57-234.73h67.634v184.46h-67.634z"/><path d="m520.57 25.56h67.634v184.46h-67.634z"/></g><g transform="matrix(1 -1.2121 0 .79618 -520.57 1193.9)"><path d="m520.57-234.73h67.634v184.46h-67.634z"/><path d="m520.57 25.56h67.634v184.46h-67.634z"/></g><path transform="translate(0,-395.83)" d="m67.625 1104.3-67.625 81.969v97.938h40.344l27.281-33.062v-146.84z"/><path d="m0.4804-232.41h85.543v1121.4h-85.543z"/></g><path d="m-4.8064 880.3 1497.8-1.4571-517.24-759.1h-448.76l-531.81 760.56z" style="filter:url(#d);opacity:.55708"/><path d="m-0.80345 888.43 1489.8-1.4493-514.47-755.04h-446.36l-528.96 756.49z"/><path d="m53.318 888.43 1381.6-1.344-477.09-700.18h-413.93l-490.53 701.53z"/><g transform="matrix(-1.2121 1 .79618 0 1318.6 300.22)"><path d="m520.57-234.73h67.634v184.46h-67.634z"/><path d="m520.57 25.56h67.634v184.46h-67.634z"/></g><path transform="matrix(-.77137 .63638 1 0 1492.6 1163.3)" d="m-538.25-989.41h106.28v146.86h-106.28z"/><path transform="matrix(-.77137 .63638 1 0 1492.6 1163.3)" d="m-538.25-782.18h106.28v146.86h-106.28z"/><path transform="matrix(-.77137 .63638 1 0 1492.6 1163.3)" d="m-538.25-1610.1h106.28v146.86h-106.28z"/><path d="m-0.30005 785.44h1488.8v102.99h-1488.8z"/><path d="m0-220.13 1489-1.9164s-558.02 649-739.73 645.83c-185.54-3.2387-749.31-643.91-749.31-643.91z" style="filter:url(#c)"/><path transform="translate(0,-395.83)" d="m0 164.2 1489-1.9164s-558.02 649-739.73 645.83c-185.54-3.2387-749.31-643.91-749.31-643.91z"/><path d="m55.576-231.77 1377.9-1.7734s-516.37 600.55-684.51 597.62c-171.69-2.9969-693.38-595.85-693.38-595.85z"/></g><path d="m-134.13 24.204h393.75v296.41h-393.75z" style="fill:url(#j);stroke-width:.26458"/><path d="m-134.13 24.204v34.372l17.892-21.688v-12.684h-17.892z" style="fill:#e84141;stroke-width:.26458"/><g transform="matrix(.26458 -.3207 0 .21066 -271.86 290.95)"><path d="m520.57-234.73h67.634v184.46h-67.634z" style="fill:#6092bd"/><path d="m520.57 25.56h67.634v184.46h-67.634z" style="fill:#e84141"/></g><g transform="matrix(.26458 -.3207 0 .21066 -271.86 401.44)"><path d="m520.57-234.73h67.634v184.46h-67.634z" style="fill:#6092bd"/><path d="m520.57 25.56h67.634v184.46h-67.634z" style="fill:#e84141"/></g><path d="m-116.24 273.01-17.892 21.688v25.913h10.674l7.2181-8.7476v-38.851z" style="fill:#6092bd;stroke-width:.26458"/><g transform="matrix(-.26458 0 0 .26458 259.62 85.558)"><path transform="translate(0,-395.83)" d="m0 163.94v129.91l67.625-81.969v-47.938h-67.625z" style="fill:#e84141"/><g transform="matrix(1 -1.2121 0 .79618 -520.57 776.28)"><path d="m520.57-234.73h67.634v184.46h-67.634z" style="fill:#6092bd"/><path d="m520.57 25.56h67.634v184.46h-67.634z" style="fill:#e84141"/></g><g transform="matrix(1 -1.2121 0 .79618 -520.57 1193.9)"><path d="m520.57-234.73h67.634v184.46h-67.634z" style="fill:#6092bd"/><path d="m520.57 25.56h67.634v184.46h-67.634z" style="fill:#e84141"/></g><path transform="translate(0,-395.83)" d="m67.625 1104.3-67.625 81.969v97.938h40.344l27.281-33.062v-146.84z" style="fill:#6092bd"/></g><path transform="matrix(.26458 0 0 .26458 -134.13 85.558)" d="m-4.8064 880.3 1497.8-1.4571-517.24-759.1h-448.76l-531.81 760.56z" style="fill:url(#g);filter:url(#d);opacity:.55708"/><path d="m-134.34 320.62 394.18-0.38346-136.12-199.77h-118.1l-139.95 200.15z" style="fill:#fff;stroke-width:.26458"/><path d="m-120.02 320.62 365.55-0.3556-126.23-185.26h-109.52l-129.79 185.61z" style="fill:url(#i);stroke-width:.26458"/><g transform="matrix(-.3207 .26458 .21066 0 214.75 164.99)"><path d="m520.57-234.73h67.634v184.46h-67.634z" style="fill:#6092bd"/><path d="m520.57 25.56h67.634v184.46h-67.634z" style="fill:#e84141"/></g><path d="m108.86 302.72-21.691 17.895h38.857l21.691-17.895z" style="fill:#6092bd;stroke-width:.21107"/><path d="m163.69 302.72-21.691 17.895h38.857l21.691-17.895z" style="fill:#e84141;stroke-width:.21107"/><path d="m-55.366 302.72-21.691 17.895h38.857l21.691-17.895z" style="fill:#e84141;stroke-width:.21107"/><path transform="matrix(.26458 0 0 .26458 -134.13 85.558)" d="m0-220.13 1489-1.9164s-558.02 649-739.73 645.83c-185.54-3.2387-749.31-643.91-749.31-643.91z" style="fill:url(#e);filter:url(#c)"/><path d="m-134.13 24.273 393.96-0.50705s-147.64 171.71-195.72 170.88c-49.091-0.85691-198.25-170.37-198.25-170.37z" style="fill:#fff;stroke-width:.26458"/><path d="m-119.42 24.236 364.57-0.46921s-136.62 158.9-181.11 158.12c-45.426-0.79293-183.46-157.65-183.46-157.65z" style="fill:url(#f);stroke-width:.26458"/></g></g></svg>
