<?xml version="1.0" encoding="UTF-8"?>
<svg width="207.8mm" height="207.1mm" version="1.1" viewBox="0 0 207.8 207.1" xmlns="http://www.w3.org/2000/svg"><defs><clipPath id="clipPath841"><path d="m107.6 612.4h504.8v-504.8h-504.8z"/></clipPath><clipPath id="clipPath1031"><path d="m0 666h679v-666h-679z"/></clipPath><linearGradient id="linearGradient1073" x2="1" gradientTransform="matrix(104 818 818 -104 279.48 -127.17)" gradientUnits="userSpaceOnUse"><stop style="stop-color:#f3e868" offset="0"/><stop style="stop-color:#d18420" offset=".12466"/><stop style="stop-color:#fac73b" offset=".20203"/><stop style="stop-color:#fac73b" offset=".20837"/><stop style="stop-color:#d28319" offset=".27012"/><stop style="stop-color:#f9c447" offset=".4313"/><stop style="stop-color:#f9c447" offset=".49697"/><stop style="stop-color:#fff5c3" offset=".64848"/><stop style="stop-color:#fff5c3" offset=".67179"/><stop style="stop-color:#f9bf2a" offset=".79104"/><stop style="stop-color:#f9f4c3" offset=".89604"/><stop style="stop-color:#f9f4c3" offset="1"/></linearGradient><linearGradient id="linearGradient1113" x2="1" gradientTransform="matrix(106.49 841.46 841.46 -106.49 283.32 -123.9)" gradientUnits="userSpaceOnUse"><stop style="stop-color:#f3e868" offset="0"/><stop style="stop-color:#d18420" offset=".12466"/><stop style="stop-color:#fac73b" offset=".20203"/><stop style="stop-color:#fac73b" offset=".20837"/><stop style="stop-color:#d28319" offset=".27012"/><stop style="stop-color:#f9c447" offset=".4313"/><stop style="stop-color:#f9c447" offset=".49697"/><stop style="stop-color:#fff5c3" offset=".64848"/><stop style="stop-color:#fff5c3" offset=".67179"/><stop style="stop-color:#f9bf2a" offset=".79104"/><stop style="stop-color:#f9f4c3" offset=".89604"/><stop style="stop-color:#f9f4c3" offset="1"/></linearGradient></defs><g transform="translate(99.932 -82.706)"><g transform="matrix(.35278 0 0 -.35278 -115.66 337.9)"><g clip-path="url(#clipPath841)" style="opacity:.5"></g></g><g transform="matrix(.35278 0 0 -.35278 -114.94 300.99)"><g clip-path="url(#clipPath1031)"><g transform="translate(604 326.13)"><path d="m0 0c0-148.29-120.21-268.5-268.5-268.5-148.29 0-268.5 120.21-268.5 268.5 0 148.29 120.21 268.5 268.5 268.5 148.29 0 268.5-120.21 268.5-268.5" style="fill:#fff"/></g></g><path d="m93.452 328.68c-1.437-134.49 107.36-246.01 243.32-246.4 134.04 0.03 243.97 108.39 243.95 243.71-0.016 134.51-108.53 242.41-241.26 243.6-0.75 7e-3 -1.496 0.01-2.245 0.01-135.53-2e-3 -242.37-109.88-243.76-240.92" style="fill:url(#linearGradient1073)"/><path d="m262.18 616.47c-4.135-1.689-7.945-3.917-11.641-6.368-9.965-6.605-19.028-14.389-28.377-21.798-8.066-6.391-16.471-12.119-26.449-15.155-8.905-2.709-17.808-5.42-26.686-8.214-6.164-1.94-12.374-3.784-18.097-6.89-5.925-2.341-11.005-5.78-14.83-10.998-3.646-4.973-6.65-10.312-9.224-15.884-3.808-8.247-7.448-16.572-11.179-24.857-3.643-8.084-7.331-16.131-13.345-22.852-3.718-4.153-7.714-8.025-11.614-11.997-7.718-7.859-15.952-15.225-22.971-23.756-3.841-4.67-7.38-9.573-8.828-15.575-1.146-4.75-1.527-9.631-1.785-14.503-0.107-2.029-0.324-4.087 0.196-6.107l1e-3 1e-3c0.278-5.55 0.319-11.124 0.901-16.641 0.585-5.541 0.6-11.104 1.143-16.645 1.05-10.688-0.973-20.999-4.212-31.164-4.098-12.86-8.719-25.567-11.478-38.829-1.605-7.713-1.828-15.255 1.264-22.725 2.005-4.842 4.185-9.586 6.853-14.08 5.858-9.868 11.883-19.636 17.734-29.506 3.012-5.082 5.619-10.338 7.216-16.112 2.969-10.742 4.205-21.803 6.362-32.693 1.542-7.785 2.962-15.591 5.667-23.09 1.796-4.978 4.338-9.408 8.18-13.18 4.828-4.741 10.267-8.619 15.964-12.148 9.464-5.86 19.054-11.515 28.549-17.325 5.249-3.212 10.231-6.8 14.31-11.47 5.01-5.733 9.623-11.787 14.258-17.824 6.572-8.555 13.041-17.189 20.913-24.663 4.909-4.662 10.488-7.945 17.106-9.325l20.375-4.132c4.94-0.559 9.863-1.118 14.854-1.105 16.98 0.043 33.083-3.446 48.276-11.355 9.567-4.98 19.526-9.224 29.717-12.835 9.232-3.27 18.557-4.16 28.088-1.095 11.289 3.63 22.016 8.571 32.707 13.619 10.805 5.104 21.614 10.137 33.867 10.783 3.285 0.174 6.582 0.336 9.866 0.506 8.212 0.426 21.202 1.599 21.202 1.599 5.229 0.451 10.437 1.472 15.621 3.216 0.777 0.164 1.52 0.493 2.299 0.623 7.559 1.269 13.818 4.955 19.221 10.259 7.164 7.035 13.129 15.074 19.285 22.954 4.198 5.372 8.369 10.766 12.637 16.081 6.385 7.953 14.841 13.293 23.459 18.428 10.054 5.987 20.216 11.786 29.851 18.473 9.084 6.304 15.041 14.532 17.797 25.308 2.789 10.91 4.625 21.983 6.546 33.049 1.146 6.601 2.381 13.183 4.346 19.588 2.289 7.466 6.521 13.983 10.527 20.587 6.071 10.008 12.417 19.841 17.781 30.275 4.41 8.581 6.322 17.495 4.537 27.027-1.275 6.81-3.09 13.495-5.17 20.112-2.928 9.315-6.174 18.532-8.731 27.964-1.371 5.058-2.092 10.161-2.201 15.446-0.259 12.528 1.271 24.951 1.826 37.427 0.288 6.493 0.172 12.954-0.341 19.396-0.467 5.856-2.461 11.272-5.915 16.127-4.1 5.762-8.738 11.052-13.716 16.048-6.661 6.685-13.35 13.339-20.094 19.941-6.24 6.11-11.325 13.012-14.89 21.009-3.377 7.577-6.769 15.147-10.161 22.716-2.975 6.64-6.071 13.215-9.759 19.502-4.39 7.486-10.329 13.15-18.409 16.571-4.399 1.863-8.795 3.721-13.338 5.17-10.381 3.311-20.815 6.458-31.209 9.726-6.872 2.161-13.378 5.123-19.165 9.468-4.907 3.685-9.762 7.44-14.565 11.256-8.452 6.716-16.753 13.634-26.086 19.144-4.931 2.911-10.079 5.257-15.911 5.592-7.992 0.459-15.879-0.576-23.713-1.948-10.609-1.858-21.166-4.023-31.785-5.82-4.236-0.716-8.553-1.358-12.887-0.943-5.761 0.551-11.514 1.259-17.188 2.407-11.455 2.315-22.899 4.744-34.524 5.99-2.66 0.285-5.329 0.497-7.989 0.497-4.332 0-8.638-0.561-12.839-2.278m90.533-32.96c-0.011-4e-3 -0.021-9e-3 -0.032-0.013 0.011 4e-3 0.021 9e-3 0.032 0.013m-5.07-1.905 8.039-0.663c10.416-0.9 20.763-2.152 31.05-4.162 29.68-5.799 57.393-16.627 83.182-32.288 24.88-15.109 46.608-33.917 65.037-56.533 25.22-30.951 42.474-65.817 51.341-104.71 5.453-23.92 7.714-48.162 5.965-72.764-0.935-13.19-2.516-26.264-5.328-39.135-6.768-30.973-18.83-59.806-36.398-86.234-13.215-19.881-28.761-37.712-46.965-53.27-16.705-14.276-34.859-26.316-54.563-35.878-29.451-14.293-60.564-22.69-93.301-24.956-16.373-1.132-32.716-0.952-48.987 1.011-24.406 2.944-47.944 9.284-70.574 18.959-26.82 11.466-50.935 27.15-72.346 46.883-19.439 17.915-35.727 38.416-48.862 61.409-12.563 21.988-21.533 45.36-27.179 70.008-2.869 12.527-4.795 25.202-5.568 38.065-1.024 17.054-0.931 34.074 1.244 51.022 2.468 19.233 7.008 37.993 13.724 56.204l2.812 7.398c5.057 12.57 11.102 24.645 18.153 36.194 13.455 22.036 29.649 41.814 49.07 58.909 3.407 3 7.046 5.731 10.294 8.902l5.917 4.426c4.811 3.421 9.566 6.937 14.522 10.141 17.044 11.021 35.122 19.914 54.3 26.651 26.162 9.191 53.08 13.893 80.769 14.357 2.379 0.04 4.759 0.031 7.14 0.021 1.021-4e-3 2.042-7e-3 3.064-7e-3 1.483 0 2.965 8e-3 4.448 0.036" style="fill:url(#linearGradient1113)"/></g></g></svg>
