<?xml version="1.0" encoding="UTF-8"?>
<svg viewBox="0 0 393.32 568.34" xmlns="http://www.w3.org/2000/svg" xmlns:xlink="http://www.w3.org/1999/xlink">
 <defs>
  <filter id="b">
   <feGaussianBlur stdDeviation="3.84278"/>
  </filter>
  <filter id="bn">
   <feGaussianBlur stdDeviation="2.770486"/>
  </filter>
  <linearGradient id="av" x1=".49128" x2=".099408" y1=".14341" y2=".52657" xlink:href="#a"/>
  <linearGradient id="au" x1=".382" x2="-.009867" y1="-.076967" y2=".3062" xlink:href="#a"/>
  <linearGradient id="aw" x1=".60055" x2=".20868" y1=".36379" y2=".74695" xlink:href="#a"/>
  <linearGradient id="ax" x1=".70983" x2=".31796" y1=".58417" y2=".96733" xlink:href="#a"/>
  <linearGradient id="ay" x1=".8191" x2=".42724" y1=".80455" y2="1.1877" xlink:href="#a"/>
  <linearGradient id="az" x1=".92838" x2=".53651" y1="1.0249" y2="1.4081" xlink:href="#a"/>
  <linearGradient id="at" x1=".27273" x2="-.11914" y1="-.29735" y2=".085816" xlink:href="#a"/>
  <linearGradient id="bq" x1="-.71075" x2="-1.1026" y1="-2.2808" y2="-1.8976" xlink:href="#a"/>
  <linearGradient id="bs" x1="-.4922" x2="-.88407" y1="-1.84" y2="-1.4568" xlink:href="#a"/>
  <linearGradient id="bt" x1="-.38293" x2="-.7748" y1="-1.6196" y2="-1.2365" xlink:href="#a"/>
  <linearGradient id="ba" x1="1.0377" x2=".64579" y1="1.2453" y2="1.6285" xlink:href="#a"/>
  <linearGradient id="bu" x1="-.27365" x2="-.66552" y1="-1.3992" y2="-1.0161" xlink:href="#a"/>
  <linearGradient id="bv" x1="-.16438" x2="-.55624" y1="-1.1789" y2="-.7957" xlink:href="#a"/>
  <linearGradient id="as" x1=".16345" x2="-.22842" y1="-.51772" y2="-.13456" xlink:href="#a"/>
  <linearGradient id="bw" x1="-.0551" x2="-.44697" y1="-.95848" y2="-.57532" xlink:href="#a"/>
  <linearGradient id="ar" x1=".054175" x2="-.33769" y1="-.7381" y2="-.35494" xlink:href="#a"/>
  <linearGradient id="bb" x1="1.1469" x2=".75506" y1="1.4657" y2="1.8488" xlink:href="#a"/>
  <linearGradient id="bx" x1="-.12154" x2=".45052" y1=".32853" y2=".65025" spreadMethod="reflect" xlink:href="#c"/>
  <linearGradient id="bp" x1="-.82003" x2="-1.2119" y1="-2.5011" y2="-2.118" xlink:href="#a"/>
  <linearGradient id="by" x1=".016272" x2=".3083" y1=".36225" y2=".48442" spreadMethod="reflect" xlink:href="#c"/>
  <linearGradient id="ca" x1=".10626" x2=".38404" y1=".09668" y2=".045376" spreadMethod="reflect" xlink:href="#c"/>
  <linearGradient id="c">
   <stop stop-color="#898989" offset="0"/>
   <stop stop-color="#e6e6e6" offset=".5"/>
   <stop stop-color="#a4a4a4" offset="1"/>
  </linearGradient>
  <linearGradient id="bz" x1="-.14521" x2=".44757" y1=".49856" y2=".36816" spreadMethod="reflect" xlink:href="#c"/>
  <linearGradient id="bc" x1="1.2562" x2=".86434" y1="1.6861" y2="2.0692" xlink:href="#a"/>
  <linearGradient id="bd" x1="1.3655" x2=".97361" y1="1.9064" y2="2.2896" xlink:href="#a"/>
  <linearGradient id="bf" x1=".2508" x2="-.0959" y1=".035859" y2=".21433" xlink:href="#d"/>
  <linearGradient id="a">
   <stop stop-color="#502d16" offset="0"/>
   <stop stop-color="#2a170b" offset="1"/>
  </linearGradient>
  <linearGradient id="be" x1="1.4748" x2="1.0829" y1="2.1268" y2="2.51" xlink:href="#a"/>
  <linearGradient id="d">
   <stop stop-color="#6e6e6e" offset="0"/>
   <stop stop-color="#fff" offset=".5"/>
   <stop stop-color="#a1a1a1" offset="1"/>
  </linearGradient>
  <linearGradient id="bg" x1=".48333" x2=".31845" y1=".38466" y2=".53936" spreadMethod="reflect" xlink:href="#d"/>
  <linearGradient id="br" x1="-.60148" x2="-.99335" y1="-2.0604" y2="-1.6772" xlink:href="#a"/>
  <linearGradient id="bo" x1="-.9293" x2="-1.3212" y1="-2.7215" y2="-2.3384" xlink:href="#a"/>
  <linearGradient id="cb" x1=".056079" x2=".86911" y1=".19572" y2=".20308">
   <stop stop-color="#800000" offset="0"/>
   <stop stop-color="#ff0c0c" offset=".5"/>
   <stop stop-color="#800000" offset="1"/>
  </linearGradient>
  <linearGradient id="bi" x1="-1.2782" x2="-.6749" y1=".7409" y2=".58235" xlink:href="#d"/>
  <linearGradient id="bh" x1="-1.0386" x2="-1.4304" y1="-2.9419" y2="-2.5587" xlink:href="#a"/>
  <linearGradient id="bj">
   <stop stop-color="#fff" offset="0"/>
   <stop stop-color="#fff" stop-opacity="0" offset="1"/>
  </linearGradient>
  <radialGradient id="bm" cx="243.79" cy="348.82" r="1.0429" gradientTransform="matrix(-4.8632 3.4535 -4.3496 -8.1263 2719.6 2028.8)" gradientUnits="userSpaceOnUse" xlink:href="#bj"/>
  <radialGradient id="bl" cx="243.79" cy="348.82" r="1.0429" gradientTransform="matrix(2.0215 2.9716 -28.077 19.1 9438.6 -7234.3)" gradientUnits="userSpaceOnUse" xlink:href="#bj"/>
  <radialGradient id="cd" cx="426.2" cy="518.42" r="29.133" gradientTransform="matrix(.9872 .68634 -.89224 1.2833 447.71 -433.28)" gradientUnits="userSpaceOnUse">
   <stop stop-color="#fff" offset="0"/>
   <stop stop-color="#fff" stop-opacity="0" offset="1"/>
  </radialGradient>
  <radialGradient id="bk" cx="142.22" cy="348.25" r="7.7044" gradientTransform="matrix(.63685 .26263 -.65499 1.5883 281.89 -244.82)" gradientUnits="userSpaceOnUse">
   <stop stop-color="#fff" offset="0"/>
   <stop stop-color="#bfbfbf" offset=".68889"/>
   <stop stop-color="#525252" offset="1"/>
  </radialGradient>
  <radialGradient id="cc" cx="-184.38" cy="586.54" r="73.397" gradientUnits="userSpaceOnUse">
   <stop stop-color="#fff" offset="0"/>
   <stop stop-color="#cbcbcb" offset=".77778"/>
   <stop stop-color="#8c8c8c" offset="1"/>
  </radialGradient>
 </defs>
 <g transform="matrix(.62699 0 0 .62699 -8.3493 -1.3131)">
  <g fill-rule="evenodd" stroke-width="4.623">
   <path d="m118.18 219.39v217.38c0.74771-0.083801 1.5104-0.125 2.2812-0.125h184.25v-217.25h-186.53zm227.38 0v217.25h185.38v-217.25h-185.38zm-227.38 261v83.718c0 54.151 49.214 113.96 105.19 158.53 27.986 22.283 56.622 40.622 78.281 53.188 1.0775 0.62512 2.0367 1.1647 3.0625 1.75v-297.06h-184.25c-0.77081 0-1.5335-0.041199-2.2812-0.125zm227.38 0.125v296.69c0.64804-0.37146 1.2408-0.70886 1.9062-1.0938 21.618-12.505 50.228-30.832 78.219-53.156 55.981-44.649 105.25-104.7 105.25-158.84v-83.594h-185.38z" fill="url(#cb)"/>
   <path d="m119.96 218.19v213.9c0.74026-0.084015 1.4954-0.1253 2.2585-0.1253h3.1867v-208.3h177.23v-5.4822h-182.67zm225.11 0v217.78h5.4452v-212.3h178.08v-5.4822h-183.53zm-225.11 261.64v83.925c1.5e-5 42.672 30.122 88.84 69.922 128.35-37.082-38.256-64.477-82.15-64.477-122.86v-83.925c0.74028 0.084015 1.4954 0.12534 2.2585 0.1253h176.97v-5.4822h-182.42c-0.76314-3.1e-5 -1.5183-0.04129-2.2585-0.1253zm225.11 0.1253v297.42c0.6416-0.37244 1.2285-0.71057 1.8873-1.0964 1.1407-0.66809 2.3791-1.4293 3.558-2.1302v-288.71h178.08v-5.4822h-183.53z" fill="#500" filter="url(#bn)"/>
   <path d="m84.058 180.63c-1.2972-1.5e-5 -2.3438 1.1498-2.3438 2.5625v376.29c8e-6 145.1 234.73 261.53 240.5 261.91 5.7592 0.3775 240.53-116.81 240.53-261.91v-376.29c-6.1e-5 -1.4127-1.0778-2.5625-2.375-2.5625h-476.31zm31.812 34.125h186.53v217.25h-184.25c-0.77081 0-1.5335 0.041168-2.2812 0.125v-217.38zm227.38 0h185.38v217.25h-185.38v-217.25zm-227.38 261c0.74771 0.083801 1.5104 0.125 2.2812 0.125h184.25v297.06c-1.0258-0.5852-1.985-1.1249-3.0625-1.75-21.66-12.566-50.295-30.904-78.281-53.188-55.973-44.567-105.19-104.38-105.19-158.53v-83.718zm227.38 0.125h185.38v83.594c0 54.145-49.269 114.2-105.25 158.84-27.99 22.324-56.601 40.651-78.219 53.156-0.6654 0.38495-1.2582 0.72229-1.9062 1.0938v-296.69z" fill="url(#bz)" stroke="url(#ca)"/>
   <path d="m114.48 212.72v220.44c0.75021-0.084229 1.5155-0.12561 2.2888-0.12561h3.2294v-214.82h183.63v-5.4956h-189.15zm228.13 0v218.32h5.5182v-212.82h180.47v-5.4956h-185.99zm-228.13 262.28v84.13c1.5e-5 42.777 30.526 89.057 70.859 128.66-37.58-38.35-65.341-82.352-65.341-123.16v-84.13c0.7502 0.084229 1.5155 0.12564 2.2888 0.12564h179.34v-5.4956h-184.86c-0.77336-3.1e-5 -1.5386-0.041412-2.2888-0.12561zm228.13 0.1256v298.14c0.65021-0.37329 1.2449-0.71228 1.9126-1.0991 1.156-0.66974 2.411-1.4327 3.6057-2.1354v-289.41h180.47v-5.4956h-185.99z" fill="url(#by)"/>
   <path d="m378.16 406.96c11.097 12.816 17.849 29.511 17.906 47.781v0.21875c0 40.515-32.891 73.406-73.406 73.406-18.37 0-35.122-6.8024-48-17.969 13.461 15.524 33.292 25.375 55.438 25.375 40.515 0 73.406-32.891 73.406-73.406v-0.21875c-0.068848-22.045-9.8987-41.778-25.344-55.188z" fill="#333" filter="url(#bn)"/>
   <path d="m401.02 457.43a73.397 73.397 0 1 1 -3.66e-4 -0.22919" fill="#b3b3b3"/>
   <path d="m395.77 456.77a68.149 67.493 0 1 1 -3.36e-4 -0.21072" fill="url(#cc)"/>
   <path d="m328.95 385.34c-40.515 0-73.406 32.891-73.406 73.406s32.891 73.406 73.406 73.406 73.375-32.891 73.375-73.406v-0.21875c-0.12625-40.434-32.94-73.188-73.375-73.188zm0 5.25c37.543 0 68.008 30.099 68.125 67.281v0.21875c0 37.256-30.507 67.5-68.125 67.5s-68.156-30.244-68.156-67.5 30.538-67.5 68.156-67.5z" fill="#333"/>
   <path d="m326.32 382.71c-40.515 0-73.406 32.891-73.406 73.406s32.891 73.406 73.406 73.406 73.375-32.891 73.375-73.406v-0.21875c-0.12625-40.434-32.94-73.188-73.375-73.188zm0 5.25c37.543 0 68.008 30.099 68.125 67.281v0.21875c0 37.256-30.507 67.5-68.125 67.5s-68.156-30.244-68.156-67.5 30.538-67.5 68.156-67.5z" fill="url(#bx)"/>
   <path d="m382.17 461.54c12.331-1.6603 13.447 11.781 2.4909 28.404-10.956 16.624-25.965 26.276-38.295 27.936-12.331 1.6603-17.337-6.5934-6.3813-23.217 10.934-16.591 29.776-31.405 42.116-33.114" fill="url(#cd)"/>
  </g>
  <g fill="#fff" stroke-width="8.3">
   <path d="m187.12 183.63l-2.9678-0.5758 2.6592 17.058-4.8832-16.603-2.4867 1.6916 0.5865-2.9139-17.534 2.768 17.07-4.9516-1.7228-2.4416 2.9678 0.5758-2.4992-16.43 4.7232 15.975 2.4867-1.6915-0.5865 2.9139 17.214-1.6686-16.75 3.8522 1.7228 2.4415z" filter="url(#b)"/>
   <path d="m454.31 699.97l-2.9677-0.5759 2.6592 17.058-4.8831-16.603-2.4867 1.6915 0.5865-2.9139-17.534 2.7681 17.07-4.9517-1.7228-2.4415 2.9678 0.5758-2.4992-16.43 4.7232 15.975 2.4867-1.6916-0.5865 2.9139 17.214-1.6686-16.75 3.8522 1.7228 2.4416z" filter="url(#b)"/>
   <path d="m317.86 389.47l-2.9677-0.5758 2.6592 17.058-4.8831-16.603-2.4867 1.6916 0.5865-2.9139-17.534 2.768 17.07-4.9517-1.7228-2.4415 2.9678 0.5758-2.4992-16.43 4.7232 15.975 2.4867-1.6916-0.5865 2.9139 17.214-1.6685-16.75 3.8522 1.7228 2.4416z" filter="url(#b)"/>
  </g>
 </g>
 <g transform="matrix(.99978 0 0 .99978 9.5639 13.383)">
  <g fill="#fff" stroke-width="8.3">
   <path d="m96.319 75.436l-1.9699-0.3822 1.7651 11.323-3.2413-11.021-1.6506 1.1228 0.3893-1.9342-11.638 1.8373 11.33-3.2867-1.1435-1.6206 1.9699 0.3822-1.6589-10.906 3.1351 10.604 1.6506-1.1228-0.3893 1.9342 11.426-1.1075-11.118 2.5569 1.1435 1.6206z" filter="url(#b)"/>
   <path d="m273.67 418.17l-1.9699-0.3822 1.7651 11.323-3.2412-11.021-1.6505 1.1228 0.3893-1.9341-11.638 1.8373 11.33-3.2867-1.1435-1.6206 1.9699 0.3822-1.6589-10.906 3.1351 10.604 1.6506-1.1228-0.3893 1.9341 11.426-1.1075-11.118 2.5569 1.1436 1.6206z" filter="url(#b)"/>
  </g>
  <path d="m112.49 131.66l223.93 314.25c9.8285 22.525 11.737 38.342 8.5343 56.405-16.707-2.2062-36.304-7.0953-49.328-28.654l-207.28-324.3 24.146-17.695z" fill="url(#bf)" stroke="url(#bg)" stroke-width="5.317"/>
  <path d="m18.411 21.058a6.9816 12.764 0 1 1 0.058554 -0.039892" fill="url(#bk)" stroke-width="3.3"/>
  <g stroke="#5f3f31" stroke-width="1.233">
   <path d="m34.107 9.1434c1.769 2.6006-2.6335 8.6578-9.8712 13.581l-6.2601 4.2584c-7.2377 4.9235-14.489 6.7936-16.258 4.1931-1.7691-2.6006 2.6335-8.6579 9.8712-13.581l6.2601-4.2585c7.2377-4.9235 14.489-6.7936 16.258-4.193z" fill="url(#be)"/>
   <path d="m37.732 14.472c1.769 2.6006-2.6335 8.6578-9.8712 13.581l-6.2601 4.2585c-7.2377 4.9235-14.489 6.7936-16.258 4.1931-1.7691-2.6006 2.6335-8.6579 9.8712-13.581l6.2601-4.2585c7.2377-4.9235 14.489-6.7936 16.258-4.193z" fill="url(#bd)"/>
   <path d="m41.356 19.8c1.769 2.6006-2.6335 8.6578-9.8712 13.581l-6.26 4.2585c-7.2377 4.9235-14.489 6.7936-16.258 4.193-1.7691-2.6006 2.6335-8.6579 9.8712-13.581l6.26-4.2585c7.2377-4.9235 14.489-6.7936 16.258-4.193z" fill="url(#bc)"/>
   <path d="m44.981 25.129c1.769 2.6006-2.6335 8.6578-9.8712 13.581l-6.2601 4.2584c-7.2377 4.9235-14.489 6.7936-16.258 4.1931-1.769-2.6006 2.6335-8.6579 9.8712-13.581l6.2601-4.2584c7.2377-4.9235 14.489-6.7936 16.258-4.193z" fill="url(#bb)"/>
   <path d="m48.606 30.457c1.7691 2.6006-2.6335 8.6578-9.8712 13.581l-6.2601 4.2585c-7.2377 4.9235-14.489 6.7936-16.258 4.193-1.7691-2.6006 2.6335-8.6578 9.8712-13.581l6.2601-4.2585c7.2377-4.9235 14.489-6.7936 16.258-4.193z" fill="url(#ba)"/>
   <path d="m52.23 35.786c1.7691 2.6006-2.6335 8.6579-9.8712 13.581l-6.2601 4.2585c-7.2377 4.9235-14.489 6.7936-16.258 4.1931-1.7691-2.6006 2.6335-8.6579 9.8712-13.581l6.2601-4.2585c7.2377-4.9235 14.489-6.7936 16.258-4.193z" fill="url(#az)"/>
   <path d="m55.855 41.114c1.7691 2.6006-2.6335 8.6578-9.8712 13.581l-6.2601 4.2585c-7.2377 4.9235-14.489 6.7936-16.258 4.193-1.7691-2.6006 2.6335-8.6579 9.8712-13.581l6.2601-4.2585c7.2377-4.9235 14.489-6.7936 16.258-4.193z" fill="url(#ay)"/>
   <path d="m59.48 46.443c1.7691 2.6006-2.6335 8.6578-9.8712 13.581l-6.2601 4.2584c-7.2377 4.9235-14.489 6.7936-16.258 4.1931-1.7691-2.6006 2.6335-8.6579 9.8712-13.581l6.26-4.2585c7.2377-4.9235 14.489-6.7936 16.258-4.193z" fill="url(#ax)"/>
   <path d="m63.105 51.771c1.7691 2.6006-2.6335 8.6579-9.8712 13.581l-6.2601 4.2585c-7.2377 4.9235-14.489 6.7936-16.258 4.193-1.7691-2.6006 2.6335-8.6579 9.8712-13.581l6.2601-4.2585c7.2377-4.9235 14.489-6.7936 16.258-4.193z" fill="url(#aw)"/>
   <path d="m66.729 57.1c1.7691 2.6006-2.6335 8.6578-9.8712 13.581l-6.2601 4.2585c-7.2377 4.9235-14.489 6.7936-16.258 4.1931-1.7691-2.6006 2.6335-8.6579 9.8712-13.581l6.2601-4.2585c7.2377-4.9235 14.489-6.7936 16.258-4.193z" fill="url(#av)"/>
   <path d="m70.354 62.428c1.769 2.6006-2.6335 8.6578-9.8712 13.581l-6.2601 4.2585c-7.2377 4.9235-14.489 6.7936-16.258 4.1931-1.7691-2.6006 2.6335-8.6579 9.8712-13.581l6.2601-4.2585c7.2377-4.9235 14.489-6.7936 16.258-4.193z" fill="url(#au)"/>
   <path d="m73.979 67.756c1.7691 2.6006-2.6335 8.6578-9.8712 13.581l-6.2601 4.2585c-7.2377 4.9235-14.489 6.7936-16.258 4.1931-1.769-2.6006 2.6335-8.6579 9.8712-13.581l6.26-4.2585c7.2377-4.9235 14.489-6.7936 16.258-4.193z" fill="url(#at)"/>
   <path d="m77.604 73.085c1.7691 2.6006-2.6335 8.6578-9.8712 13.581l-6.2601 4.2585c-7.2377 4.9235-14.489 6.7936-16.258 4.1931-1.769-2.6006 2.6335-8.6579 9.8712-13.581l6.2601-4.2584c7.2377-4.9235 14.489-6.7936 16.258-4.193z" fill="url(#as)"/>
   <path d="m81.228 78.413c1.769 2.6006-2.6335 8.6578-9.8712 13.581l-6.2601 4.2585c-7.2377 4.9235-14.489 6.7936-16.258 4.193s2.6335-8.6579 9.8712-13.581l6.2601-4.2585c7.2377-4.9235 14.489-6.7936 16.258-4.193z" fill="url(#ar)"/>
   <path d="m84.853 83.742c1.7691 2.6006-2.6335 8.6578-9.8712 13.581l-6.26 4.2585c-7.2377 4.9235-14.489 6.7936-16.258 4.1931-1.7691-2.6006 2.6335-8.6579 9.8712-13.581l6.26-4.2585c7.2377-4.9235 14.489-6.7936 16.258-4.193z" fill="url(#bw)"/>
   <path d="m88.478 89.07c1.7691 2.6006-2.6335 8.6578-9.8712 13.581l-6.2601 4.2585c-7.2377 4.9235-14.489 6.7936-16.258 4.1931-1.7691-2.6006 2.6335-8.6579 9.8712-13.581l6.2601-4.2585c7.2377-4.9235 14.489-6.7936 16.258-4.193z" fill="url(#bv)"/>
   <path d="m92.102 94.399c1.7691 2.6006-2.6335 8.6578-9.8712 13.581l-6.2601 4.2585c-7.2377 4.9235-14.489 6.7936-16.258 4.193s2.6335-8.6579 9.8712-13.581l6.2601-4.2585c7.2377-4.9235 14.489-6.7936 16.258-4.193z" fill="url(#bu)"/>
   <path d="m95.727 99.727c1.769 2.6006-2.6335 8.6578-9.8712 13.581l-6.2601 4.2585c-7.2377 4.9235-14.489 6.7936-16.258 4.193-1.7691-2.6006 2.6335-8.6579 9.8712-13.581l6.2601-4.2584c7.2377-4.9235 14.489-6.7936 16.258-4.193z" fill="url(#bt)"/>
   <path d="m99.352 105.06c1.7691 2.6006-2.6335 8.6578-9.8712 13.581l-6.2601 4.2585c-7.2377 4.9235-14.489 6.7936-16.258 4.193s2.6335-8.6579 9.8712-13.581l6.2601-4.2585c7.2377-4.9235 14.489-6.7936 16.258-4.193z" fill="url(#bs)"/>
   <path d="m102.98 110.38c1.7691 2.6006-2.6335 8.6578-9.8712 13.581l-6.26 4.2585c-7.2377 4.9235-14.489 6.7936-16.258 4.193-1.7691-2.6006 2.6335-8.6579 9.8712-13.581l6.26-4.2585c7.2377-4.9235 14.489-6.7936 16.258-4.193z" fill="url(#br)"/>
   <path d="m106.6 115.71c1.7691 2.6006-2.6335 8.6578-9.8712 13.581l-6.2601 4.2585c-7.2377 4.9235-14.489 6.7936-16.258 4.193-1.7691-2.6006 2.6335-8.6578 9.8712-13.581l6.2601-4.2585c7.2377-4.9235 14.489-6.7936 16.258-4.193z" fill="url(#bq)"/>
   <path d="m110.23 121.04c1.7691 2.6006-2.6335 8.6579-9.8712 13.581l-6.2601 4.2585c-7.2377 4.9235-14.489 6.7936-16.258 4.193s2.6335-8.6579 9.8712-13.581l6.2601-4.2585c7.2377-4.9235 14.489-6.7936 16.258-4.193z" fill="url(#bp)"/>
   <path d="m113.85 126.37c1.7691 2.6006-2.6335 8.6579-9.8712 13.581l-6.2601 4.2585c-7.2377 4.9235-14.489 6.7936-16.258 4.193-1.7691-2.6006 2.6335-8.6578 9.8712-13.581l6.2601-4.2585c7.2377-4.9235 14.489-6.7936 16.258-4.1931z" fill="url(#bo)"/>
   <path d="m117.48 131.7c1.7691 2.6006-2.6335 8.6578-9.8712 13.581l-6.26 4.2585c-7.2377 4.9235-14.489 6.7936-16.258 4.193-1.7691-2.6006 2.6335-8.6579 9.8712-13.581l6.26-4.2584c7.2377-4.9235 14.489-6.7936 16.258-4.193z" fill="url(#bh)"/>
  </g>
  <g stroke-width="3.3">
   <path d="m102.9 148.59l-8.3711 6.2303 202.42 317.17c12.706 21.092 32.123 25.714 48.688 27.712 0.030396-0.16058 0.82077 5.2727 0.85028 5.1125l-243.59-356.23z" fill="url(#bi)" opacity=".664"/>
   <rect transform="rotate(55.774)" x="173.18" y="-48.872" width="8.3979" height="88.178" rx="4.1989" ry="4.1989" fill="#666"/>
  </g>
  <g stroke-width=".765">
   <path d="m120.19 139.4c-19.761 13.443-36.744 22.965-37.908 21.254-1.1637-1.7107 13.93-14.009 33.691-27.452 19.12-13.007 18.353-19.437 23.455-14.236 4.1806 4.2617 0.59158 6.9366-19.127 20.358" fill="url(#bl)"/>
   <path d="m-7.2647 22.715c-2.7913-5.8385-3.0844-11.788-0.65415-13.281 2.4301-1.4927 6.6679 2.0342 9.4592 7.8727 2.7008 5.649 9.8011 2.2301 1.5302 7.7192-6.777 4.4976-8.1306 3.9557-10.924-1.8665" fill="url(#bm)"/>
  </g>
  <g fill="#fff" stroke-width="8.3">
   <path d="m21.627 3.6558l-0.26-2.0728-11.713 6.0471 10.878-7.3758-1.7878-1.1861 2.2378-0.3573-5.9917-10.683 7.463 9.8292 1.3708-1.737 0.26 2.0728 11.295-5.7841-10.46 7.1128 1.7878 1.1861-2.2378 0.3573 5.1249 10.754-6.5963-9.8999-1.3708 1.737z" filter="url(#b)"/>
   <path d="m155.57 204.39l0.5811-3.2515-16.247 2.7507 15.84-5.196-1.5799-2.7458 2.7635 0.6723-2.4323-19.271 4.5135 18.784 2.3407-1.8668-0.5811 3.2515 15.648-2.5813-15.241 5.0266 1.5799 2.7458-2.7635-0.6723 1.3907 18.909-3.4719-18.422-2.3407 1.8668z" filter="url(#b)"/>
   <path d="m354.43 547.47l-0.1408-1.8441-10.45 4.7526 9.7776-5.9683-1.5079-1.1377 1.9635-0.203-4.7764-9.7382 6.093 9.0579 1.2655-1.4654 0.1408 1.8441 10.076-4.5413-9.4034 5.757 1.5079 1.1376-1.9635 0.2031 4.0186 9.7571-5.3352-9.0768-1.2655 1.4654z" filter="url(#b)"/>
  </g>
  <g transform="matrix(-1 0 0 1 413.48 -1.4142)">
   <path d="m151.7 131.66l223.93 314.25c9.8285 22.525 11.737 38.342 8.5343 56.405-16.707-2.2062-36.304-7.0953-49.328-28.654l-207.28-324.3 24.146-17.695z" fill="url(#bf)" stroke="url(#bg)" stroke-width="5.317"/>
   <path d="m57.617 21.058a6.9816 12.764 0 1 1 0.058552 -0.039892" fill="url(#bk)" stroke-width="3.3"/>
   <g stroke="#5f3f31" stroke-width="1.233">
    <path d="m73.313 9.1434c1.769 2.6006-2.6335 8.6578-9.8712 13.581l-6.2601 4.2584c-7.2377 4.9235-14.489 6.7936-16.258 4.1931-1.7691-2.6006 2.6335-8.6579 9.8712-13.581l6.2601-4.2585c7.2377-4.9235 14.489-6.7936 16.258-4.193z" fill="url(#be)"/>
    <path d="m76.938 14.472c1.769 2.6006-2.6335 8.6578-9.8712 13.581l-6.26 4.2585c-7.2377 4.9235-14.489 6.7936-16.258 4.1931-1.7691-2.6006 2.6335-8.6579 9.8712-13.581l6.2601-4.2585c7.2377-4.9235 14.489-6.7936 16.258-4.193z" fill="url(#bd)"/>
    <path d="m80.562 19.8c1.7691 2.6006-2.6335 8.6578-9.8712 13.581l-6.26 4.2585c-7.2377 4.9235-14.489 6.7936-16.258 4.193-1.7691-2.6006 2.6335-8.6579 9.8712-13.581l6.26-4.2585c7.2377-4.9235 14.489-6.7936 16.258-4.193z" fill="url(#bc)"/>
    <path d="m84.187 25.129c1.769 2.6006-2.6335 8.6578-9.8712 13.581l-6.2601 4.2584c-7.2377 4.9235-14.489 6.7936-16.258 4.1931-1.769-2.6006 2.6335-8.6579 9.8712-13.581l6.2601-4.2584c7.2377-4.9235 14.489-6.7936 16.258-4.193z" fill="url(#bb)"/>
    <path d="m87.812 30.457c1.7691 2.6006-2.6335 8.6578-9.8712 13.581l-6.2601 4.2585c-7.2377 4.9235-14.489 6.7936-16.258 4.193-1.7691-2.6006 2.6335-8.6578 9.8712-13.581l6.2601-4.2585c7.2377-4.9235 14.489-6.7936 16.258-4.193z" fill="url(#ba)"/>
    <path d="m91.437 35.786c1.7691 2.6006-2.6335 8.6579-9.8712 13.581l-6.2601 4.2585c-7.2377 4.9235-14.489 6.7936-16.258 4.1931-1.7691-2.6006 2.6335-8.6579 9.8712-13.581l6.2601-4.2585c7.2377-4.9235 14.489-6.7936 16.258-4.193z" fill="url(#az)"/>
    <path d="m95.061 41.114c1.7691 2.6006-2.6335 8.6578-9.8712 13.581l-6.2601 4.2585c-7.2377 4.9235-14.489 6.7936-16.258 4.193-1.7691-2.6006 2.6335-8.6579 9.8712-13.581l6.26-4.2585c7.2377-4.9235 14.489-6.7936 16.258-4.193z" fill="url(#ay)"/>
    <path d="m98.686 46.443c1.7691 2.6006-2.6335 8.6578-9.8712 13.581l-6.2601 4.2584c-7.2377 4.9235-14.489 6.7936-16.258 4.1931-1.7691-2.6006 2.6335-8.6579 9.8712-13.581l6.2601-4.2585c7.2377-4.9235 14.489-6.7936 16.258-4.193z" fill="url(#ax)"/>
    <path d="m102.31 51.771c1.7691 2.6006-2.6335 8.6579-9.8712 13.581l-6.2601 4.2585c-7.2377 4.9235-14.489 6.7936-16.258 4.193-1.7691-2.6006 2.6335-8.6579 9.8712-13.581l6.2601-4.2585c7.2377-4.9235 14.489-6.7936 16.258-4.193z" fill="url(#aw)"/>
    <path d="m105.94 57.1c1.7691 2.6006-2.6335 8.6578-9.8712 13.581l-6.2601 4.2585c-7.2377 4.9235-14.489 6.7936-16.258 4.1931-1.7691-2.6006 2.6335-8.6579 9.8712-13.581l6.2601-4.2585c7.2377-4.9235 14.489-6.7936 16.258-4.193z" fill="url(#av)"/>
    <path d="m109.56 62.428c1.769 2.6006-2.6335 8.6578-9.8712 13.581l-6.2601 4.2585c-7.2377 4.9235-14.489 6.7936-16.258 4.1931-1.7691-2.6006 2.6335-8.6579 9.8712-13.581l6.2601-4.2585c7.2377-4.9235 14.489-6.7936 16.258-4.193z" fill="url(#au)"/>
    <path d="m113.18 67.756c1.7691 2.6006-2.6335 8.6578-9.8712 13.581l-6.2601 4.2585c-7.2377 4.9235-14.489 6.7936-16.258 4.1931-1.7691-2.6006 2.6335-8.6579 9.8712-13.581l6.26-4.2585c7.2377-4.9235 14.489-6.7936 16.258-4.193z" fill="url(#at)"/>
    <path d="m116.81 73.085c1.7691 2.6006-2.6335 8.6578-9.8712 13.581l-6.2601 4.2585c-7.2377 4.9235-14.489 6.7936-16.258 4.1931-1.769-2.6006 2.6335-8.6579 9.8712-13.581l6.2601-4.2584c7.2377-4.9235 14.489-6.7936 16.258-4.193z" fill="url(#as)"/>
    <path d="m120.43 78.413c1.769 2.6006-2.6335 8.6578-9.8712 13.581l-6.2601 4.2585c-7.2377 4.9235-14.489 6.7936-16.258 4.193-1.7691-2.6006 2.6335-8.6579 9.8712-13.581l6.2601-4.2585c7.2377-4.9235 14.489-6.7936 16.258-4.193z" fill="url(#ar)"/>
    <path d="m124.06 83.742c1.7691 2.6006-2.6335 8.6578-9.8712 13.581l-6.26 4.2585c-7.2377 4.9235-14.489 6.7936-16.258 4.1931-1.7691-2.6006 2.6335-8.6579 9.8712-13.581l6.26-4.2585c7.2377-4.9235 14.489-6.7936 16.258-4.193z" fill="url(#bw)"/>
    <path d="m127.68 89.07c1.769 2.6006-2.6335 8.6578-9.8712 13.581l-6.2601 4.2585c-7.2377 4.9235-14.489 6.7936-16.258 4.1931-1.7691-2.6006 2.6335-8.6579 9.8712-13.581l6.2601-4.2585c7.2377-4.9235 14.489-6.7936 16.258-4.193z" fill="url(#bv)"/>
    <path d="m131.31 94.399c1.7691 2.6006-2.6335 8.6578-9.8712 13.581l-6.2601 4.2585c-7.2377 4.9235-14.489 6.7936-16.258 4.193s2.6335-8.6579 9.8712-13.581l6.2601-4.2585c7.2377-4.9235 14.489-6.7936 16.258-4.193z" fill="url(#bu)"/>
    <path d="m134.93 99.727c1.769 2.6006-2.6335 8.6578-9.8712 13.581l-6.2601 4.2585c-7.2377 4.9235-14.489 6.7936-16.258 4.193-1.7691-2.6006 2.6335-8.6579 9.8712-13.581l6.2601-4.2584c7.2377-4.9235 14.489-6.7936 16.258-4.193z" fill="url(#bt)"/>
    <path d="m138.56 105.06c1.7691 2.6006-2.6335 8.6578-9.8712 13.581l-6.2601 4.2585c-7.2377 4.9235-14.489 6.7936-16.258 4.193s2.6335-8.6579 9.8712-13.581l6.2601-4.2585c7.2377-4.9235 14.489-6.7936 16.258-4.193z" fill="url(#bs)"/>
    <path d="m142.18 110.38c1.7691 2.6006-2.6335 8.6578-9.8712 13.581l-6.26 4.2585c-7.2377 4.9235-14.489 6.7936-16.258 4.193-1.7691-2.6006 2.6335-8.6579 9.8712-13.581l6.26-4.2585c7.2377-4.9235 14.489-6.7936 16.258-4.193z" fill="url(#br)"/>
    <path d="m145.81 115.71c1.7691 2.6006-2.6335 8.6578-9.8712 13.581l-6.2601 4.2585c-7.2377 4.9235-14.489 6.7936-16.258 4.193-1.7691-2.6006 2.6335-8.6578 9.8712-13.581l6.2601-4.2585c7.2377-4.9235 14.489-6.7936 16.258-4.193z" fill="url(#bq)"/>
    <path d="m149.43 121.04c1.7691 2.6006-2.6335 8.6579-9.8712 13.581l-6.2601 4.2585c-7.2377 4.9235-14.489 6.7936-16.258 4.193s2.6335-8.6579 9.8712-13.581l6.26-4.2585c7.2377-4.9235 14.489-6.7936 16.258-4.193z" fill="url(#bp)"/>
    <path d="m153.06 126.37c1.7691 2.6006-2.6335 8.6579-9.8712 13.581l-6.2601 4.2585c-7.2377 4.9235-14.489 6.7936-16.258 4.193-1.7691-2.6006 2.6335-8.6578 9.8712-13.581l6.2601-4.2585c7.2377-4.9235 14.489-6.7936 16.258-4.1931z" fill="url(#bo)"/>
    <path d="m156.68 131.7c1.7691 2.6006-2.6335 8.6578-9.8712 13.581l-6.26 4.2585c-7.2377 4.9235-14.489 6.7936-16.258 4.193-1.7691-2.6006 2.6335-8.6579 9.8712-13.581l6.26-4.2584c7.2377-4.9235 14.489-6.7936 16.258-4.193z" fill="url(#bh)"/>
   </g>
   <g stroke-width="3.3">
    <path d="m142.11 148.59l-8.3711 6.2303 202.42 317.17c12.706 21.092 32.123 25.714 48.688 27.712 0.030396-0.16058 0.82077 5.2727 0.85028 5.1125l-243.59-356.23z" fill="url(#bi)" opacity=".664"/>
    <rect transform="rotate(55.774)" x="195.23" y="-81.289" width="8.3979" height="88.178" rx="4.1989" ry="4.1989" fill="#666"/>
   </g>
   <g stroke-width=".765">
    <path d="m159.4 139.4c-19.761 13.443-36.744 22.965-37.908 21.254-1.1637-1.7107 13.93-14.009 33.691-27.452 19.12-13.007 18.353-19.437 23.455-14.236 4.1806 4.2617 0.59158 6.9366-19.127 20.358" fill="url(#bl)"/>
    <path d="m31.942 22.715c-2.7913-5.8385-3.0844-11.788-0.65415-13.281 2.4301-1.4927 6.6679 2.0342 9.4592 7.8727 2.7008 5.649 9.8011 2.2301 1.5302 7.7192-6.777 4.4976-8.1306 3.9557-10.924-1.8665" fill="url(#bm)"/>
   </g>
   <g fill="#fff" stroke-width="8.3">
    <path d="m60.833 3.6558l-0.26-2.0728-11.713 6.0471 10.878-7.3758-1.7878-1.1861 2.2378-0.3572-5.9917-10.683 7.4631 9.8292 1.3708-1.737 0.26 2.0728 11.295-5.7841-10.46 7.1128 1.7878 1.1861-2.2378 0.3573 5.1249 10.754-6.5962-9.8999-1.3708 1.737z" filter="url(#b)"/>
    <path d="m194.77 204.39l0.5811-3.2515-16.247 2.7507 15.84-5.196-1.5799-2.7458 2.7635 0.6723-2.4323-19.271 4.5135 18.784 2.3407-1.8668-0.5811 3.2515 15.648-2.5813-15.241 5.0266 1.5799 2.7458-2.7635-0.6723 1.3907 18.909-3.4719-18.422-2.3407 1.8668z" filter="url(#b)"/>
    <path d="m393.64 547.47l-0.1408-1.8441-10.45 4.7526 9.7776-5.9683-1.5079-1.1377 1.9635-0.203-4.7765-9.7382 6.093 9.0579 1.2655-1.4654 0.1408 1.8441 10.076-4.5413-9.4034 5.757 1.5079 1.1376-1.9635 0.2031 4.0187 9.7571-5.3353-9.0768-1.2655 1.4654z" filter="url(#b)"/>
   </g>
  </g>
 </g>
</svg>
