<?xml version="1.0" encoding="UTF-8"?>
<svg width="83.337mm" height="109.85mm" version="1.1" viewBox="0 0 83.337 109.85" xmlns="http://www.w3.org/2000/svg"><defs><radialGradient id="SVGID_1_" cx="26.729" cy="46.346" r=".6506" gradientTransform="matrix(-.0080169 -.26445 .21362 -.0064823 -98.084 46.898)" gradientUnits="userSpaceOnUse"><stop style="stop-color:#FFC94A" offset="0"/><stop style="stop-color:#FFCB4F;stop-opacity:.8317" offset=".1683"/><stop style="stop-color:#FFD15D;stop-opacity:.6387" offset=".3613"/><stop style="stop-color:#FFDA74;stop-opacity:.4336" offset=".5664"/><stop style="stop-color:#FFE894;stop-opacity:.2199" offset=".7801"/><stop style="stop-color:#FFF9BD;stop-opacity:.0017" offset=".9983"/><stop style="stop-color:#FFF9BD;stop-opacity:0" offset="1"/></radialGradient></defs><g transform="translate(-60.012 -62.666)"><circle cx="-88.414" cy="39.526" r=".17648" style="fill:url(#SVGID_1_);stroke-width:.26458"/><g transform="matrix(.26458 0 0 .26458 -58.854 38.225)"><path d="m606.74 507.55c-41.617 0-81.234-18.209-111.56-51.269-29.191-31.829-45.934-74.145-45.934-116.1 0-44.236 17.674-105.1 45.023-155.05 32.752-59.815 72.691-92.758 112.46-92.758 39.771 0 79.711 32.942 112.46 92.758 27.35 49.952 45.023 110.81 45.023 155.05 0 41.953-16.744 84.269-45.936 116.1-30.318 33.06-69.936 51.269-111.55 51.269z" style="fill:#808080"/><radialGradient id="SVGID_14_" cx="608.29" cy="344.22" r="198.44" gradientUnits="userSpaceOnUse"><stop style="stop-color:#D1D1D1" offset="0"/><stop style="stop-color:#D6D6D6" offset=".2808"/><stop style="stop-color:#E4E4E4" offset=".6027"/><stop style="stop-color:#FAFAFA" offset=".9436"/><stop style="stop-color:#fff" offset="1"/></radialGradient><path d="m605.2 502.77c-39.727 0-77.545-17.381-106.49-48.939-27.865-30.385-43.846-70.778-43.846-110.82 0-42.228 16.869-100.32 42.977-148 31.264-57.099 69.391-88.544 107.36-88.544 37.965 0 76.09 31.445 107.36 88.544 26.109 47.682 42.977 105.78 42.977 148 0 40.045-15.98 80.438-43.846 110.82-28.943 31.558-66.761 48.939-106.49 48.939z" style="fill:url(#SVGID_14_)"/><radialGradient id="SVGID_15_" cx="636.18" cy="378.3" r="197.04" gradientUnits="userSpaceOnUse"><stop style="stop-color:#DBDBDB" offset="0"/><stop style="stop-color:#E0E0E0" offset=".9704"/><stop style="stop-color:#E0E0E0" offset="1"/></radialGradient><path d="m606.74 493.47c-39.727 0-77.545-17.381-106.49-48.94-27.865-30.383-43.846-70.776-43.846-110.82 0-42.228 16.869-100.32 42.977-148 31.266-57.099 69.391-88.544 107.36-88.544 37.965 0 76.09 31.445 107.36 88.544 26.107 47.682 42.979 105.78 42.979 148 0 40.046-15.982 80.439-43.848 110.82-28.943 31.559-66.759 48.94-106.49 48.94z" style="fill:url(#SVGID_15_)"/><path d="m606.7 485.46c-38.625 0-75.395-16.394-103.54-46.163-27.092-28.658-42.631-66.76-42.631-104.53 0-39.831 16.402-94.629 41.787-139.6 30.396-53.857 67.467-83.519 104.38-83.519 36.914 0 73.98 29.661 104.38 83.519 25.385 44.977 41.785 99.774 41.785 139.6 0 37.773-15.537 75.875-42.629 104.53-28.142 29.769-64.912 46.163-103.54 46.163z" style="fill:#c4c4c4"/><linearGradient id="SVGID_16_" x1="750.79" x2="539.59" y1="409.03" y2="245.86" gradientUnits="userSpaceOnUse"><stop style="stop-color:#A6A6A6" offset="0"/><stop style="stop-color:#D2D2D2" offset=".514"/><stop style="stop-color:#fff" offset="1"/></linearGradient><path d="m604.85 475.28c-37.369 0-72.945-16.352-100.17-46.038-26.213-28.583-41.246-66.581-41.246-104.25 0-39.722 15.869-94.371 40.43-139.22 29.41-53.712 65.273-83.292 100.99-83.292s71.578 29.58 100.99 83.292c24.561 44.854 40.428 99.503 40.428 139.22 0 37.671-15.031 75.669-41.244 104.25-27.229 29.687-62.803 46.038-100.17 46.038z" style="fill:url(#SVGID_16_)"/><path d="m603.65 441.54c-34.596 0-67.527-15.137-92.734-42.619-24.266-26.459-38.182-61.635-38.182-96.508 0-36.772 14.689-87.363 37.426-128.89 27.227-49.724 60.428-77.107 93.49-77.107 33.061 0 66.262 27.384 93.486 77.107 22.738 41.522 37.428 92.113 37.428 128.89 0 34.873-13.918 70.049-38.182 96.508-25.204 27.482-58.138 42.619-92.732 42.619z" style="fill:#dbdbdb"/><linearGradient id="SVGID_17_" x1="607.01" x2="608.36" y1="72.457" y2="184.27" gradientUnits="userSpaceOnUse"><stop style="stop-color:#fff" offset="0"/><stop style="stop-color:#fff;stop-opacity:0" offset="1"/></linearGradient><ellipse cx="608.29" cy="179" rx="81.971" ry="82.509" style="fill:url(#SVGID_17_)"/><radialGradient id="SVGID_18_" cx="701.89" cy="393.99" r="162.98" gradientUnits="userSpaceOnUse"><stop style="stop-color:#ABABAB" offset=".0121"/><stop style="stop-color:#B0B0B0;stop-opacity:.7994" offset=".2103"/><stop style="stop-color:#BEBEBE;stop-opacity:.5695" offset=".4374"/><stop style="stop-color:#D5D5D5;stop-opacity:.3251" offset=".6789"/><stop style="stop-color:#F4F4F4;stop-opacity:.0721" offset=".9287"/><stop style="stop-color:#fff;stop-opacity:0" offset="1"/></radialGradient><path d="m748.85 358.73c-9.332 63.063-57.109 108.24-106.72 100.89-49.605-7.341-82.252-64.414-72.916-127.48 9.332-63.061 57.107-108.23 106.71-100.89 49.603 7.342 82.25 64.416 72.918 127.47z" style="fill:url(#SVGID_18_)"/><radialGradient id="SVGID_19_" cx="595.28" cy="239.63" r="88.628" gradientTransform="matrix(.1854 -.8741 .646 .1356 271.23 730.66)" gradientUnits="userSpaceOnUse"><stop style="stop-color:#fff" offset="0"/><stop style="stop-color:#fff;stop-opacity:0" offset="1"/></radialGradient><path d="m593.25 256c-11.678 50.388-46.59 85.335-77.975 78.062-31.389-7.273-47.367-54.017-35.689-104.4s46.588-85.335 77.975-78.061c31.386 7.273 47.365 54.017 35.689 104.4z" style="fill:url(#SVGID_19_)"/><linearGradient id="SVGID_20_" x1="659.73" x2="609.38" y1="529" y2="364.02" gradientUnits="userSpaceOnUse"><stop style="stop-color:#fff" offset="0"/><stop style="stop-color:#fff;stop-opacity:0" offset="1"/></linearGradient><path d="m743.9 360.45c0 63.201-60.713 114.44-135.6 114.44s-135.6-51.235-135.6-114.44c0-63.198 60.713-114.43 135.6-114.43s135.6 51.234 135.6 114.43z" style="fill:url(#SVGID_20_)"/><linearGradient id="SVGID_21_" x1="612.78" x2="607.61" y1="60.339" y2="274.12" gradientUnits="userSpaceOnUse"><stop style="stop-color:#fff" offset="0"/><stop style="stop-color:#fff;stop-opacity:0" offset="1"/></linearGradient><ellipse cx="608.29" cy="246.01" rx="81.971" ry="150.3" style="fill:url(#SVGID_21_)"/><radialGradient id="SVGID_22_" cx="488.52" cy="370.39" r="38.359" gradientTransform="matrix(-.0356 -1.4747 .9484 -.0361 211.99 1145.9)" gradientUnits="userSpaceOnUse"><stop style="stop-color:#fff" offset=".2606"/><stop style="stop-color:#fff;stop-opacity:0" offset="1"/></radialGradient><ellipse cx="541.35" cy="411.05" rx="48.529" ry="55.324" style="fill:url(#SVGID_22_)"/><radialGradient id="SVGID_23_" cx="698.76" cy="236.2" r="26.371" gradientTransform="matrix(-.0303 -.9995 .8074 -.0245 529.22 940.42)" gradientUnits="userSpaceOnUse"><stop style="stop-color:#fff" offset=".2485"/><stop style="stop-color:#fff;stop-opacity:0" offset="1"/></radialGradient><ellipse cx="696.1" cy="235.73" rx="28.4" ry="25.778" style="fill:url(#SVGID_23_)"/><radialGradient id="SVGID_24_" cx="685.2" cy="204.2" r="40.315" gradientTransform="matrix(-.359 -.9333 .7539 -.29 777.23 902.94)" gradientUnits="userSpaceOnUse"><stop style="stop-color:#fff" offset=".2485"/><stop style="stop-color:#fff;stop-opacity:0" offset="1"/></radialGradient><ellipse cx="687.16" cy="220.23" rx="28.4" ry="25.779" style="fill:url(#SVGID_24_)"/><radialGradient id="SVGID_25_" cx="685.2" cy="204.2" r="40.316" gradientTransform="matrix(-.359 -.9333 .7539 -.29 777.23 902.95)" gradientUnits="userSpaceOnUse"><stop style="stop-color:#fff" offset=".2485"/><stop style="stop-color:#fff;stop-opacity:0" offset="1"/></radialGradient><ellipse cx="679.04" cy="187.87" rx="28.401" ry="25.779" style="fill:url(#SVGID_25_)"/></g></g></svg>
