<?xml version="1.0" encoding="UTF-8"?>
<svg width="336.31mm" height="717.39mm" version="1.1" viewBox="0 0 336.31 717.39" xmlns="http://www.w3.org/2000/svg"><defs><clipPath id="clipPath252968"><path d="m0 2266.2h2420.3v-2266.2h-2420.3z"/></clipPath><clipPath id="clipPath252976"><path d="m1291.8 187.87h898.25v-87.157h-898.25z"/></clipPath><clipPath id="clipPath252996"><path d="m1371.3 949.47h564.01v-750.94h-564.01z"/></clipPath><linearGradient id="linearGradient253006" x2="1" gradientTransform="matrix(-751.3 -128 -128 751.3 2118.3 649.46)" gradientUnits="userSpaceOnUse"><stop style="stop-color:#fff" offset="0"/><stop style="stop-color:#231f20" offset="1"/></linearGradient><clipPath id="clipPath253032"><path d="m1312 1701.2h786.18v-974.6h-786.18z"/></clipPath><linearGradient id="linearGradient253042" x2="1" gradientTransform="matrix(-579.92 -159.64 -159.64 579.92 1898.6 1269.8)" gradientUnits="userSpaceOnUse"><stop style="stop-color:#fff" offset="0"/><stop style="stop-color:#231f20" offset="1"/></linearGradient><clipPath id="clipPath253064"><path d="m1737.7 1513.4h103.24v-500.89h-103.24z"/></clipPath><clipPath id="clipPath253080"><path d="m1548.2 1689h190.87v-684.09h-190.87z"/></clipPath><clipPath id="clipPath253136"><path d="m1546.5 2148.7h354.13v-307.74h-354.13z"/></clipPath><linearGradient id="linearGradient253146" x2="1" gradientTransform="matrix(-116.59 -282.73 -282.73 116.59 1771.5 2150.1)" gradientUnits="userSpaceOnUse"><stop style="stop-color:#ffec5c" offset="0"/><stop style="stop-color:#231f20" offset="1"/></linearGradient><clipPath id="clipPath253172"><path d="m1812 1825c-4.549-4.093-9.326-9.101-9.146-15.217l0.735-4.783c-6.705-21.845 6.955-46.045 26.566-57.775s43.582-13.422 66.41-12.387c18.022 0.817 36.158 3.187 53.042 9.54 29.881 11.24 54.119 34.416 71.845 60.968 19.712 29.529 27.032 57.242 17.605 91.473-8.293 0.513-16.541 0.774-24.748 0.774-75.001 0-145.85-21.819-202.31-72.593"/></clipPath><linearGradient id="linearGradient253188" x2="1" gradientTransform="matrix(11.217 -89.739 -89.739 -11.217 1915.5 1888.3)" gradientUnits="userSpaceOnUse"><stop style="stop-color:#fff" offset="0"/><stop style="stop-color:#fff" offset=".004902"/><stop style="stop-color:#fff;stop-opacity:0" offset="1"/></linearGradient><mask id="mask253190" x="0" y="0" width="1" height="1" maskUnits="userSpaceOnUse"><path d="m-32768 32767h65535v-65535h-65535z" style="fill:url(#linearGradient253188)"/></mask><linearGradient id="linearGradient253212" x2="1" gradientTransform="matrix(11.217 -89.739 -89.739 -11.217 1915.5 1888.3)" gradientUnits="userSpaceOnUse"><stop style="stop-color:#fff" offset="0"/><stop style="stop-color:#fff" offset=".004902"/><stop style="stop-color:#fff" offset="1"/></linearGradient><clipPath id="clipPath253230"><path d="m1443.9 1398.9h140.5v-572.03h-140.5z"/></clipPath><clipPath id="clipPath253234"><path d="m1453.7 962.76c-23.859 146.75-3.92 300.34 56.617 436.13-1.21-74.569-0.961-149.16 0.748-223.72 0.451-19.671 1.331-40.452 11.98-56.996 7.077-10.996 17.815-19.021 26.938-28.39 27.078-27.806 39.56-69.1 32.42-107.25-3.933 27.462-14.567 53.939-30.721 76.492-10.657 14.878-28.914 29.269-45.621 21.8-8.175-3.655-13.448-11.779-16.918-20.034-31.3-74.449 51.171-154.19 38.405-233.94-8.685 48.031-29.245 93.869-59.341 132.3"/></clipPath><linearGradient id="linearGradient253244" x2="1" gradientTransform="matrix(140.5 0 0 -140.5 1443.9 1112.9)" gradientUnits="userSpaceOnUse"><stop style="stop-color:#fff" offset="0"/><stop style="stop-color:#fff;stop-opacity:0" offset="1"/></linearGradient><mask id="mask253246" x="0" y="0" width="1" height="1" maskUnits="userSpaceOnUse"><path d="m-32768 32767h65535v-65535h-65535z" style="fill:url(#linearGradient253244)"/></mask><linearGradient id="linearGradient253262" x2="1" gradientTransform="matrix(140.5 0 0 -140.5 1443.9 1112.9)" gradientUnits="userSpaceOnUse"><stop offset="0"/><stop offset="1"/></linearGradient><clipPath id="clipPath253288"><path d="m1845.6 1333.1h244.19v-326.46h-244.19z"/></clipPath><clipPath id="clipPath253292"><path d="m1848.1 1333.1c11.781-109.67 29.49-218.7 53.026-326.46 27.78 37.293 76.768 50.624 115.06 77.006 24.676 17 45.753 40.055 73.662 50.966-18.463 31.586-33.903 64.939-46.04 99.455-18.718-40.516-56.507-68.33-92.773-94.345-15.621-11.206-31.242-22.412-46.864-33.618l-58.509 224.03"/></clipPath><linearGradient id="linearGradient253302" x2="1" gradientTransform="matrix(244.19 0 0 -244.19 1845.6 1169.9)" gradientUnits="userSpaceOnUse"><stop style="stop-color:#fff" offset="0"/><stop style="stop-color:#fff;stop-opacity:0" offset="1"/></linearGradient><mask id="mask253304" x="0" y="0" width="1" height="1" maskUnits="userSpaceOnUse"><path d="m-32768 32767h65535v-65535h-65535z" style="fill:url(#linearGradient253302)"/></mask><linearGradient id="linearGradient253320" x2="1" gradientTransform="matrix(244.19 0 0 -244.19 1845.6 1169.9)" gradientUnits="userSpaceOnUse"><stop offset="0"/><stop offset="1"/></linearGradient><clipPath id="clipPath253324"><path d="m1848.1 1333.1c11.781-109.67 29.49-218.7 53.026-326.46 27.78 37.293 76.768 50.624 115.06 77.006 24.676 17 45.753 40.055 73.662 50.966-18.463 31.586-33.903 64.939-46.04 99.455-18.718-40.516-56.507-68.33-92.773-94.345-15.621-11.206-31.242-22.412-46.864-33.618l-58.509 224.03"/></clipPath><linearGradient id="linearGradient253334" x2="1" gradientTransform="matrix(220.03 106.96 106.96 -220.03 1839.4 1152.7)" gradientUnits="userSpaceOnUse"><stop style="stop-color:#fff" offset="0"/><stop style="stop-color:#fff;stop-opacity:0" offset="1"/></linearGradient><mask id="mask253336" x="0" y="0" width="1" height="1" maskUnits="userSpaceOnUse"><path d="m-32768 32767h65535v-65535h-65535z" style="fill:url(#linearGradient253334)"/></mask><linearGradient id="linearGradient253352" x2="1" gradientTransform="matrix(220.03 106.96 106.96 -220.03 1839.4 1152.7)" gradientUnits="userSpaceOnUse"><stop offset="0"/><stop offset="1"/></linearGradient><clipPath id="clipPath253392"><path d="m1372.4 1397.5h134.36v-501.21h-134.36z"/></clipPath><clipPath id="clipPath253396"><path d="m1451.4 948.11c-16.063 151.39 3.055 306.41 55.417 449.37-91.805-109.97-130.63-262.28-102.67-402.78 1.748-8.785 3.75-17.746 2.499-26.615-3.768-26.705-35.464-44.882-34.138-71.819 25.135 18.852 50.27 37.705 75.405 56.557-0.69 4.568-1.379 9.136-2.069 13.704"/></clipPath><linearGradient id="linearGradient253408" x2="1" gradientTransform="matrix(-100.85 15.28 15.28 100.85 1503.8 1137.1)" gradientUnits="userSpaceOnUse"><stop style="stop-color:#fff" offset="0"/><stop style="stop-color:#fff" offset=".004902"/><stop style="stop-color:#fff;stop-opacity:0" offset="1"/></linearGradient><mask id="mask253410" x="0" y="0" width="1" height="1" maskUnits="userSpaceOnUse"><path d="m-32768 32767h65535v-65535h-65535z" style="fill:url(#linearGradient253408)"/></mask><linearGradient id="linearGradient253428" x2="1" gradientTransform="matrix(-100.85 15.28 15.28 100.85 1503.8 1137.1)" gradientUnits="userSpaceOnUse"><stop style="stop-color:#fff" offset="0"/><stop style="stop-color:#fff" offset=".004902"/><stop style="stop-color:#fff" offset="1"/></linearGradient><clipPath id="clipPath253454"><path d="m1398.1 1023h498.63v-354.99h-498.63z"/></clipPath><clipPath id="clipPath253470"><path d="m1668.8 745.46h249.1v-566.92h-249.1z"/></clipPath><clipPath id="clipPath253474"><path d="m1678.4 559.56c26.582 72.595 59.006 151.92 128.45 185.89-47.836-83.48-45.313-187.94-18.049-280.21 4.675-15.822 10.231-31.824 20.675-44.595s26.767-21.864 43.106-19.586c10.817 1.508 20.387 7.671 30.857 10.778 10.47 3.106 23.876 1.987 29.483-7.385-15.647-14.065-31.293-28.129-46.939-42.193 16.5-3.536 33.001-7.072 49.502-10.608-29.25 1.153-56.549-25.699-55.879-54.964 0.671-29.265 29.17-54.839 58.337-52.347-26.027-27.356-57.196-49.802-91.391-65.816-19.602 34.362-24.842 74.789-37.197 112.37-29.862 90.833-101.48 165.44-120.51 259.14"/></clipPath><linearGradient id="linearGradient253484" x2="1" gradientTransform="matrix(228.12 12.816 12.816 -228.12 1704 455.66)" gradientUnits="userSpaceOnUse"><stop style="stop-color:#fff" offset="0"/><stop style="stop-color:#fff;stop-opacity:0" offset="1"/></linearGradient><mask id="mask253486" x="0" y="0" width="1" height="1" maskUnits="userSpaceOnUse"><path d="m-32768 32767h65535v-65535h-65535z" style="fill:url(#linearGradient253484)"/></mask><linearGradient id="linearGradient253502" x2="1" gradientTransform="matrix(228.12 12.816 12.816 -228.12 1704 455.66)" gradientUnits="userSpaceOnUse"><stop offset="0"/><stop offset="1"/></linearGradient><clipPath id="clipPath253528"><path d="m1371.4 825.27h267.04v-688.71h-267.04z"/></clipPath><clipPath id="clipPath253532"><path d="m1377.3 820.76c17.832-64.607 46.084-126.32 83.332-182.04 7.063-10.566 14.572-21.179 17.979-33.423 4.023-14.457 1.965-29.792 0.862-44.757-4.005-54.363 5.292-109.66 26.854-159.72 1.995-4.633 4.34-9.506 8.685-12.07 6.074-3.586 13.723-1.477 20.632-0.061 31.073 6.365 65.148-4.865 86.348-28.456-27.489 9.764-61.286-4.648-73.27-31.244-11.985-26.596-0.393-61.461 25.131-75.586 12.531-6.934 27.153-9.08 40.2-14.985 13.047-5.906 25.354-17.883 24.283-32.164-22.075 12.598-48.406 24.886-71.917 15.229-17.734-7.284-29.189-27.445-26.369-46.408 2.821-18.963 19.649-34.916 38.735-36.723-22.909-2.391-46.068-2.37-68.972 0.06-8.029 0.852-16.316 2.104-23.096 6.487-16.376 10.586-17.018 35.819-6.56 52.277 10.459 16.459 28.504 26.231 45.767 35.3-15.324 4.579-27.266 18.851-29.073 34.742-1.806 15.89 6.628 32.479 20.532 40.381-53.185 46.1-77.2 116.55-97.8 183.86-33.172 108.38-63.552 223.02-39.694 333.82"/></clipPath><linearGradient id="linearGradient253542" x2="1" gradientTransform="matrix(267.04 0 0 -267.04 1371.4 480.91)" gradientUnits="userSpaceOnUse"><stop style="stop-color:#fff" offset="0"/><stop style="stop-color:#fff;stop-opacity:0" offset="1"/></linearGradient><mask id="mask253544" x="0" y="0" width="1" height="1" maskUnits="userSpaceOnUse"><path d="m-32768 32767h65535v-65535h-65535z" style="fill:url(#linearGradient253542)"/></mask><linearGradient id="linearGradient253560" x2="1" gradientTransform="matrix(267.04 0 0 -267.04 1371.4 480.91)" gradientUnits="userSpaceOnUse"><stop offset="0"/><stop offset="1"/></linearGradient><clipPath id="clipPath253586"><path d="m1801.1 1869.3h250.66v-140.93h-250.66z"/></clipPath><clipPath id="clipPath253602"><path d="m1598.1 2025.5h209.49v-530.69h-209.49z"/></clipPath><clipPath id="clipPath253618"><path d="m1563.6 1998.1h68.54v-151.98h-68.54z"/></clipPath><clipPath id="clipPath253634"><path d="m1623.5 2099.2h265.01v-114.68h-265.01z"/></clipPath><clipPath id="clipPath253650"><path d="m1584.6 1742h172.92v-629.11h-172.92z"/></clipPath><clipPath id="clipPath253666"><path d="m1512.5 354.16h131.54v-41.554h-131.54z"/></clipPath><clipPath id="clipPath253670"><path d="m1521.8 316.61c12.523 11.233 26.436 20.916 41.321 28.755 8.926 4.702 18.551 8.821 28.64 8.788 5.647-0.018 11.202-1.341 16.663-2.776 8.881-2.333 17.846-5.06 25.409-10.269 7.301-5.031 13.27-15.014 8.436-22.447-4.268-6.565-13.731-6.494-21.518-5.679-25.146 2.634-50.292 5.268-75.438 7.902-7.635 0.8-15.967 1.442-22.381-2.777-3.296-2.169-6.738-5.694-10.461-4.386"/></clipPath><linearGradient id="linearGradient253682" x2="1" gradientTransform="matrix(131.55 0 0 -131.55 1512.5 333.38)" gradientUnits="userSpaceOnUse"><stop style="stop-color:#fff" offset="0"/><stop style="stop-color:#fff" offset=".004902"/><stop style="stop-color:#fff;stop-opacity:0" offset="1"/></linearGradient><mask id="mask253684" x="0" y="0" width="1" height="1" maskUnits="userSpaceOnUse"><path d="m-32768 32767h65535v-65535h-65535z" style="fill:url(#linearGradient253682)"/></mask><linearGradient id="linearGradient253702" x2="1" gradientTransform="matrix(131.55 0 0 -131.55 1512.5 333.38)" gradientUnits="userSpaceOnUse"><stop style="stop-color:#fff" offset="0"/><stop style="stop-color:#fff" offset=".004902"/><stop style="stop-color:#fff" offset="1"/></linearGradient><clipPath id="clipPath253728"><path d="m1581 737.65h208.31v-370.14h-208.31z"/></clipPath><clipPath id="clipPath253732"><path d="m1609.5 367.84c10.478 69.233 27.929 137.77 56.907 201.51s69.791 122.69 122.92 168.3c-91.413-67.96-154.98-168.62-192.7-276.1-8.779-25.016-16.343-51.031-15.546-77.532 11.198-1.657 21.691-7.675 28.778-16.501"/></clipPath><linearGradient id="linearGradient253744" x2="1" gradientTransform="matrix(208.31 0 0 -208.31 1581 552.58)" gradientUnits="userSpaceOnUse"><stop style="stop-color:#fff" offset="0"/><stop style="stop-color:#fff" offset=".004902"/><stop style="stop-color:#fff;stop-opacity:0" offset="1"/></linearGradient><mask id="mask253746" x="0" y="0" width="1" height="1" maskUnits="userSpaceOnUse"><path d="m-32768 32767h65535v-65535h-65535z" style="fill:url(#linearGradient253744)"/></mask><linearGradient id="linearGradient253764" x2="1" gradientTransform="matrix(208.31 0 0 -208.31 1581 552.58)" gradientUnits="userSpaceOnUse"><stop style="stop-color:#fff" offset="0"/><stop style="stop-color:#fff" offset=".004902"/><stop style="stop-color:#fff" offset="1"/></linearGradient><clipPath id="clipPath253790"><path d="m1865.3 703.74h44.59v-292.56h-44.59z"/></clipPath><clipPath id="clipPath253794"><path d="m1883.8 695.47c-13.482-94.921-4.484-192.96 26.051-283.84-13.805 6.896-30.918 6.727-44.584-0.441 8.704 25.528 7.836 53.17 7.416 80.137-1.104 70.882 1.565 141.82 7.992 212.42"/></clipPath><linearGradient id="linearGradient253806" x2="1" gradientTransform="matrix(44.584 0 0 -44.584 1865.3 557.47)" gradientUnits="userSpaceOnUse"><stop style="stop-color:#fff" offset="0"/><stop style="stop-color:#fff" offset=".004902"/><stop style="stop-color:#fff;stop-opacity:0" offset="1"/></linearGradient><mask id="mask253808" x="0" y="0" width="1" height="1" maskUnits="userSpaceOnUse"><path d="m-32768 32767h65535v-65535h-65535z" style="fill:url(#linearGradient253806)"/></mask><linearGradient id="linearGradient253826" x2="1" gradientTransform="matrix(44.584 0 0 -44.584 1865.3 557.47)" gradientUnits="userSpaceOnUse"><stop style="stop-color:#fff" offset="0"/><stop style="stop-color:#fff" offset=".004902"/><stop style="stop-color:#fff" offset="1"/></linearGradient><clipPath id="clipPath253852"><path d="m1870 363.73h58.03v-98.624h-58.03z"/></clipPath><clipPath id="clipPath253856"><path d="m1870 322.84c6.305 14.113 15.603 26.881 27.1 37.214 1.517 1.363 3.13 2.718 5.078 3.324 3.8 1.181 7.889-0.772 10.954-3.31 11.059-9.154 13.75-24.868 14.519-39.204 0.999-18.619 0.023-37.343-2.906-55.757-2.52 9.885-3.453 20.114-5.819 30.037s-6.392 19.841-13.878 26.769c-7.487 6.93-19.037 10.168-28.228 5.742-0.196 1.517-0.391 3.033-0.586 4.55"/></clipPath><linearGradient id="linearGradient253868" x2="1" gradientTransform="matrix(58.03 0 0 -58.03 1870 314.42)" gradientUnits="userSpaceOnUse"><stop style="stop-color:#fff" offset="0"/><stop style="stop-color:#fff" offset=".004902"/><stop style="stop-color:#fff;stop-opacity:0" offset="1"/></linearGradient><mask id="mask253870" x="0" y="0" width="1" height="1" maskUnits="userSpaceOnUse"><path d="m-32768 32767h65535v-65535h-65535z" style="fill:url(#linearGradient253868)"/></mask><linearGradient id="linearGradient253888" x2="1" gradientTransform="matrix(58.03 0 0 -58.03 1870 314.42)" gradientUnits="userSpaceOnUse"><stop style="stop-color:#fff" offset="0"/><stop style="stop-color:#fff" offset=".004902"/><stop style="stop-color:#fff" offset="1"/></linearGradient><clipPath id="clipPath253914"><path d="m1320 1886.2h918.4v-1722.9h-918.4z"/></clipPath></defs><g transform="translate(131.37 348.57)"><g transform="matrix(.35278 0 0 -.35278 -590.01 412.8)"><g clip-path="url(#clipPath252968)"><g clip-path="url(#clipPath252976)" style="opacity:.2"></g><g transform="translate(1371.3 853.73)"><path d="m0 0c3.961-150.05 9.14-305.34 74.515-440.45 21.536-44.509 56.867-109.39 56.659-136.29-0.27-35.054 3.659-36.805 18.037-45.956 5.724-3.643 12.629-4.81 19.326-5.899 27.931-4.543 55.861-9.086 83.792-13.63 5.579 33.467 24.093 59.456 29.673 92.923 0.811 4.868-11.326 17.45-12.904 22.125-2.225 6.594-8.539 10.74-13.336 15.78-19.698 20.695-12.719 54.201-3.43 81.22 16.408 47.726 36.079 94.331 58.83 139.38 14.3-91.763 47.317-180.57 96.439-259.38 11.355-18.219 24.034-37.508 23.248-58.962-0.314-8.582-2.823-17.036-2.448-25.615 0.375-8.58 4.787-17.969 13.083-20.188 12.122-3.243 77.828 26.539 96.891 39.687 8.792 6.064 15.46 15.603 25.628 18.87-0.246 19.452-0.492 38.904-0.738 58.355-0.188 14.902-0.489 30.32-6.762 43.839s-20.251 24.663-35.03 22.744c11.524 2.312 18.643 14.778 19.098 26.523 0.454 11.745-4.096 23.019-8.07 34.08-34.164 95.112-29.558 199.98-11.816 299.47 1.352 7.583 2.728 15.67-0.273 22.763-2.014 4.757-5.787 8.509-9.469 12.131-36.855 36.252-73.711 72.503-110.57 108.76-4.393 4.321-9.215 8.864-15.31 9.773-5.312 0.793-10.584-1.346-15.48-3.557-15.382-6.947-30.238-15.059-44.399-24.243-13.507-8.76-28.256-18.969-44.158-16.464-15.712 2.476-26.574 16.438-36.587 28.795-18.065 22.293-38.573 42.606-61.037 60.457-4.52 3.591-9.335 7.185-14.996 8.318-14.919 2.987-26.964-11.434-35.8-23.821-25.855-36.24-56.229-69.253-90.195-98.031-3.021-2.56-6.254-5.175-10.145-5.902-11.97-2.236-18.824 13.002-21.19 24.946" style="fill:#58595b"/></g><g clip-path="url(#clipPath252996)" style="opacity:.7"><path d="m1371.3 853.73c3.961-150.05 9.14-305.34 74.516-440.45 21.535-44.509 56.866-109.39 56.659-136.29-0.27-35.054 3.659-36.806 18.036-45.957 5.725-3.643 12.63-4.809 19.327-5.899 27.93-4.543 55.861-9.086 83.791-13.629 5.58 33.466 24.093 59.456 29.673 92.922 0.812 4.868-11.326 17.45-12.904 22.126-2.225 6.593-8.538 10.739-13.336 15.779-19.698 20.695-12.718 54.201-3.43 81.22 16.408 47.726 36.079 94.331 58.83 139.38 14.3-91.763 47.318-180.57 96.44-259.38 11.355-18.219 24.033-37.508 23.247-58.962-0.314-8.582-2.822-17.035-2.447-25.615s4.786-17.969 13.082-20.188c12.123-3.243 77.828 26.539 96.891 39.688 8.792 6.064 15.461 15.602 25.629 18.87-0.246 19.451-0.493 38.903-0.739 58.355-0.188 14.902-0.489 30.32-6.762 43.838-6.273 13.519-20.251 24.663-35.03 22.744 11.524 2.312 18.644 14.778 19.098 26.523 0.455 11.745-4.096 23.019-8.07 34.081-34.164 95.111-29.557 199.98-11.816 299.47 1.352 7.582 2.729 15.67-0.273 22.762-2.013 4.757-5.786 8.51-9.468 12.131-36.856 36.252-73.711 72.503-110.57 108.76-4.393 4.321-9.215 8.864-15.309 9.774-5.313 0.792-10.585-1.347-15.48-3.558-15.383-6.947-30.239-15.059-44.4-24.243-13.507-8.76-28.256-18.969-44.158-16.463-15.711 2.475-26.574 16.437-36.587 28.795-18.065 22.293-38.572 42.605-61.037 60.456-4.52 3.592-9.335 7.185-14.996 8.318-14.919 2.987-26.963-11.434-35.8-23.82-25.855-36.241-56.229-69.254-90.195-98.032-3.021-2.56-6.253-5.175-10.145-5.902-11.97-2.236-18.824 13.002-21.19 24.947" style="fill:url(#linearGradient253006)"/></g><g transform="translate(1354.2 885.66)"><path d="m0 0c-41.007 102.78-50.338 216.73-35.61 326.41s52.853 215.33 103.42 313.76c40.333 78.505 98.514 159.83 185.39 175.38 7.671-40.67 15.341-81.339 23.012-122.01 8.384-44.451 18.275-91.832 50.495-123.58 50.408 17.586 126.01 54.846 176.42 72.432-0.319-136.36 28.281-214.95 55.019-312.58 39.323 36.879 84.754 67.227 133.88 89.432-13.415-57.951 7.322-122.51 51.974-161.81-58.422-50.971-122.52-95.434-190.72-132.3-5.194-2.808-10.668-5.81-13.682-10.889-4.489-7.563-1.572-17.007 0.027-25.656 12.58-68.03 17.488-155.1 6.919-216.16-45.861 46.075-105.15 73.308-151.01 119.38-3.973 3.991 2.546 15.873-3.075 15.554-5.874-0.334-10.122-5.522-13.673-10.212-30.533-40.328-55.528-91.522-96.037-121.81-25.188-18.832-63.299-20.228-91.386-34.38-3.563 65.082-44.51 189.37-44.51 189.37s-26.215 44.135-47.794 38.286c-6.751-1.829-12.36-6.416-17.743-10.883l-74.883-62.142" style="fill:#808184"/></g><g clip-path="url(#clipPath253032)" style="opacity:.5"><path d="m1354.2 885.66c-41.007 102.78-50.338 216.73-35.61 326.41s52.852 215.33 103.42 313.76c40.333 78.506 98.513 159.83 185.39 175.38 7.671-40.67 15.341-81.339 23.011-122.01 8.384-44.451 18.275-91.832 50.496-123.58 50.408 17.586 126.01 54.846 176.42 72.432-0.319-136.36 28.281-214.95 55.02-312.58 39.323 36.878 84.754 67.227 133.88 89.432-13.415-57.951 7.322-122.52 51.974-161.81-58.422-50.971-122.52-95.434-190.72-132.3-5.195-2.808-10.669-5.811-13.683-10.889-4.489-7.563-1.571-17.007 0.028-25.656 12.58-68.03 17.487-155.1 6.919-216.16-45.861 46.074-105.15 73.308-151.02 119.38-3.972 3.991 2.547 15.873-3.074 15.554-5.874-0.334-10.122-5.522-13.673-10.212-30.533-40.328-55.528-91.522-96.038-121.81-25.187-18.832-63.299-20.228-91.386-34.38-3.563 65.082-44.509 189.37-44.509 189.37s-26.215 44.136-47.794 38.287c-6.752-1.829-12.36-6.416-17.743-10.883l-74.883-62.142" style="fill:url(#linearGradient253042)"/></g><g clip-path="url(#clipPath253064)" style="opacity:.3"><g transform="translate(1741.1 1020.4)"><path d="m0 0c19.844 41.881 37.786 84.664 53.75 128.17 13.289 36.218 25.287 73.303 29.073 111.7s-1.136 78.521-19.989 112.18l25.311-8.704c15.198 48.293 15.704 101.1 1.432 149.68-2.586-25.981-5.172-51.963-7.759-77.944-1.446-14.532-6.687-32.999-21.255-33.996-6.391-0.437-14.392 2.458-18.201-2.692-1.364-1.844-1.653-4.251-1.807-6.54-2.022-30.066 11.331-59.055 13.542-89.107 1.154-15.692-0.751-31.408-3.383-46.953-4.196-24.784-9.364-49.393-14.938-73.903l-38.601-169.75c-0.164 3.523-0.327 7.046-0.491 10.569" style="fill:#fff"/></g></g><g clip-path="url(#clipPath253080)" style="opacity:.3"><g transform="translate(1596 1689)"><path d="m0 0c-44.864-87.067-57-194.86-41.185-291.52 0.695-4.244 53.274-3.814 69.959-5.778-16.343-22.695-38.237-121.51-38.237-121.51s78.785-199.19 152.54-265.28c-47.974 148-96.484 299.47-92.906 455.02-12.383-16.27-24.766-32.54-37.15-48.809-15.238 69.129-23.478 139.8-24.552 210.58-0.346 22.825 0.29 46.657 10.952 66.841" style="fill:#fff"/></g></g><g transform="translate(1488.9 138.33)"><path d="m0 0c-7.08 1.191-13.498 5.829-16.853 12.176-4.135 7.824-3.483 17.561 0.108 25.649 3.592 8.087 9.817 14.73 16.569 20.451 33.182 28.114 81.633 35.924 122.84 22.02 11.819-3.988 23.444-9.898 31.283-19.601 7.839-9.704 11.107-23.832 5.493-34.971-7.267-14.418-25.459-18.817-41.463-20.95-31.282-4.168-62.906-5.769-94.449-4.781" style="fill:#353536"/></g><g transform="translate(1820.8 195.11)"><path d="m0 0c-4.202-13.586 8.375-27.706 22.295-30.617 13.919-2.912 28.15 2.019 41.515 6.877 0.44 5.509 0.881 11.019 1.321 16.528 69.374-27.333 146.81-33.808 219.76-18.373 14.076 2.979 29.261 7.635 37.107 19.695-47.855 6.764-94.516 21.894-137.23 44.499-17.51 9.266-35.175 20.03-54.941 21.349-23.746 1.585-45.954-10.701-66.569-22.594l-62.079-35.814" style="fill:#353536"/></g><g transform="translate(1369.4 863.47)"><path d="m0 0c4.348-12.783 11.646-24.552 21.164-34.129 1.804-1.815 3.914-3.655 6.471-3.781 2.45-0.122 4.657 1.363 6.657 2.784 22.161 15.744 44.322 31.489 66.482 47.233 9.121 6.48 18.736 13.587 22.604 24.085 3.899 10.578 1.122 22.312-1.683 33.231-2.852 11.097-8.183 24.429-19.596 25.443-19.117-38.399-53.119-69.145-93.241-84.315" style="fill:#f2d2c4"/></g><g transform="translate(2059.9 1502.3)"><path d="m0 0c13.331-34.097 16.624-72.049 9.364-107.93-4.042-19.98-11.187-41.156-3.528-60.047 4.692-11.575 13.543-27.165 3.053-33.944-2.814-1.818-6.535-2.272-8.752-4.783-2.36-2.673-2.165-6.679-1.745-10.22 3.982-33.534 16.107-66.072 35.041-94.034 3.15 7.276 7.803 13.898 13.58 19.329 17.984-11.884 41.735-14.541 61.901-6.927 27.647 10.44 45.271 37.03 61.017 62.038 12.841 20.392 26.002 45.941 14.701 67.224-3.239 6.1-8.448 11.653-8.653 18.557-0.113 3.813 1.361 7.47 2.15 11.202 3.417 16.17-8.22 33.988-24.399 37.36 9.606 10.827 4.553 29.592-7.565 37.508-12.117 7.917-28.319 6.798-41.712 1.31-13.394-5.488-24.805-14.77-36.699-23.019-2.921 22.228-8.277 44.134-15.94 65.201-3.449 9.48-7.654 19.192-15.475 25.562s-20.256 8.155-27.736 1.388" style="fill:#f2d2c4"/></g><g transform="translate(1623.8 2020.9)"><path d="m0 0c45.114-48.995 46.676-132.05 3.437-182.71-4.301 18.135-30.517 25.075-44.915 13.24-14.398-11.836-14.547-36.027-2.312-50.087s33.637-17.962 51.346-12.149c10.184-91.717 25.47-182.87 45.761-272.89 2.621-11.629 6.752-24.955 17.89-29.203 6.682-2.548 14.144-1 21.12 0.576 48.476 10.951 98.541 22.615 138.35 52.365 52.033 38.886 79.283 104.85 82.002 169.75 0.287 6.852 0.394 13.987 3.5 20.101 4.119 8.108 12.622 12.813 20.334 17.635 41.686 26.066 72.271 69.294 82.978 117.28 1.723 7.724 2.858 16.218-0.839 23.215-5.496 10.403-18.988 13.11-30.73 13.868-31.811 2.056-63.985-1.639-94.502-10.852-14.65 51.064-38.641 99.431-70.43 141.99-68.501-29.621-152.03 5.572-217.66 0.487" style="fill:#f2d2c4"/></g><g transform="translate(1635.4 1758.1)"><path d="m0 0c2.439-74.687 20.807-147.83 39.076-220.29 3.204-12.708 6.841-26.168 16.467-35.062 11.483-10.609 28.664-12.061 44.243-10.751 25.803 2.17 44.016 3.299 66.11 16.8 4.531-36.697 8.943-69.534-13.227-99.127-4.037-5.39-8.691-10.39-11.782-16.372-3.169-6.13-4.547-13.002-5.89-19.771-2.584-13.021-5.167-26.041-7.751-39.061-7.8-39.312-17.886-82.352-50.244-106-2.101-1.536-4.354-3.002-6.912-3.483-6.492-1.221-12.278 4.108-16.283 9.363-17.61 23.107-24.468 52.478-29.646 81.066-9.011 49.745-14.302 100.16-15.814 150.69l-41.394-51.84c-30.506 112.83-19.531 236.38 30.382 342.07" style="fill:#fff"/></g><g transform="translate(1810.5 1828.6)"><path d="m0 0c-19.4 5.782-35.625-1.294-44.358 37.188-3.494 15.395 3.59 31.03 10.95 44.996 2.412 4.578 4.969 9.257 8.98 12.525 7.822 6.374 19.088 5.872 29.021 4.097 5.24-0.937 10.565-2.191 15.002-5.133 4.436-2.943 7.868-7.902 7.652-13.221 3.041 7.422 12.334 10.968 20.134 9.096 7.799-1.871 13.983-8.09 17.721-15.187 3.739-7.096 5.385-15.076 6.989-22.935 0.301-1.471 0.583-3.081-0.118-4.408-0.661-1.252-2.03-1.931-3.314-2.525-24.508-11.341-51.605-22.425-65.149-45.787 0.457 2.862 0.914 5.725 1.371 8.588" style="fill:#fff"/></g><g transform="translate(1689.2 1401.5)"><path d="m0 0c-18.612 14.255-27.32 40.245-21.054 62.836 1.946 7.017 5.345 13.855 10.925 18.534 5.248 4.401-1.533 3.437 5.248 4.401 19.568 2.781 53.868-1.191 67.602-15.404 5.127-5.306 9.386-11.705 10.907-18.924 3.41-16.184-7.29-31.733-18.159-44.198-2.96-3.395-6.062-6.886-7.367-11.196-1.118-3.697-0.805-7.661-0.356-11.497 1.234-10.547 3.422-20.981 6.527-31.135 4.649-15.209 11.384-29.931 13.376-45.709 2.166-17.153-1.408-34.454-4.963-51.374-10.472-49.838-21.023-99.943-39.539-147.38-8.756 26.965-17.512 53.93-26.268 80.896-11.225 34.568-22.585 70.97-15.697 106.66 6.361 32.952 28.044 64.701 20.215 97.335" style="fill:#be1e2d"/></g><g transform="translate(1758.1 1665.4)"><path d="m0 0c-2.143-20.913 7.347-42.645 24.143-55.288 13.556-10.204 30.655-14.336 47.378-17.206 0.224 14.948 0.449 29.896 0.674 44.844 0.024 1.601-0.039 3.414-1.229 4.486-0.792 0.714-1.906 0.918-2.957 1.1-19.81 3.432-39.212 9.211-57.671 17.177-2.158 0.932-4.304 1.893-6.409 2.937-0.598 0.296-1.275 0.723-1.293 1.39-0.019 0.666 1.241 0.929 1.218 0.263" style="fill:#fff"/></g><g transform="translate(1603.5 1853.5)"><path d="m0 0c-3.995 37.465-18.251 73.785-40.81 103.96 4.759 8.871 9.518 17.742 14.276 26.613-6.294-5.284-12.588-10.569-18.883-15.854 3.473 6.728 6.945 13.456 10.417 20.185-8.239-3.332-15.778-8.384-21.991-14.739 11.473 37.41 44.068 67.543 82.262 76.048 17.615 36.802 58.61 55.343 96.812 69.672 31.438 11.792 63.439 22.794 96.678 27.538 14.392 2.055 29.287 2.891 43.279-1.057s27.057-13.353 32.376-26.884c5.683-14.458 1.763-31.065-5.342-44.88-18.125-35.237-55.567-57.723-94.437-65.426-24.189-4.795-49.371-4.515-73.448 0.815-31.106 6.886-62.018 22.167-93.298 16.118-2.541-0.492-5.5-1.545-6.094-4.064-0.399-1.689 0.464-3.394 1.323-4.901 8.088-14.187 18.478-27.151 24.615-42.284 8.755-21.584 8.113-46.065 2.556-68.684-5.557-22.62-15.751-43.787-25.874-64.764-3.539 6.706-10.836 11.261-18.415 11.496 2.878 4.26 4.661 9.252 5.132 14.37" style="fill:#a87c4f"/></g><g clip-path="url(#clipPath253136)" style="opacity:.8"><path d="m1603.5 1853.5c-3.995 37.465-18.252 73.785-40.81 103.96 4.759 8.871 9.518 17.742 14.276 26.613-6.294-5.284-12.588-10.569-18.883-15.854 3.472 6.728 6.945 13.456 10.417 20.185-8.239-3.332-15.778-8.384-21.992-14.739 11.474 37.41 44.069 67.543 82.263 76.048 17.615 36.802 58.61 55.343 96.812 69.672 31.438 11.792 63.438 22.794 96.677 27.538 14.393 2.055 29.288 2.891 43.28-1.057s27.057-13.353 32.376-26.884c5.683-14.458 1.763-31.065-5.343-44.88-18.124-35.237-55.566-57.723-94.436-65.426-24.189-4.795-49.371-4.515-73.448 0.815-31.106 6.886-62.018 22.167-93.298 16.118-2.542-0.492-5.501-1.545-6.095-4.064-0.398-1.689 0.465-3.394 1.324-4.901 8.088-14.187 18.478-27.151 24.615-42.284 8.755-21.584 8.113-46.065 2.556-68.684-5.557-22.62-15.751-43.787-25.875-64.764-3.539 6.706-10.835 11.261-18.414 11.496 2.877 4.26 4.661 9.252 5.132 14.37" style="fill:url(#linearGradient253146)"/></g><g transform="translate(1802.8 1809.8)"><path d="m0 0c-0.18 6.116 4.597 11.124 9.146 15.216 62.639 56.33 142.98 77.02 227.06 71.819 9.425-34.23 2.106-61.943-17.606-91.472-17.726-26.552-41.964-49.729-71.844-60.969-16.885-6.351-35.022-8.722-53.043-9.539-22.827-1.035-46.8 0.657-66.41 12.387-19.611 11.729-33.271 35.929-26.566 57.774" style="fill:#f2d2c4"/></g></g></g><g transform="matrix(.35278 0 0 -.35278 -590.01 412.8)"><g clip-path="url(#clipPath253172)"><g mask="url(#mask253190)"><path d="m1812 1825c-4.549-4.093-9.326-9.101-9.146-15.217l0.735-4.783c-6.705-21.845 6.955-46.045 26.566-57.775s43.582-13.422 66.41-12.387c18.022 0.817 36.158 3.187 53.042 9.54 29.881 11.24 54.119 34.416 71.845 60.968 19.712 29.529 27.032 57.242 17.605 91.473-8.293 0.513-16.541 0.774-24.748 0.774-75.001 0-145.85-21.819-202.31-72.593" style="fill:url(#linearGradient253212)"/></g></g></g><g transform="matrix(.35278 0 0 -.35278 -590.01 412.8)"><g clip-path="url(#clipPath253230)" style="opacity:.5"><g clip-path="url(#clipPath253234)"><g mask="url(#mask253246)"><path d="m1453.7 962.76c-23.859 146.75-3.92 300.34 56.617 436.13-1.21-74.569-0.961-149.16 0.748-223.72 0.451-19.671 1.331-40.452 11.98-56.996 7.077-10.996 17.815-19.021 26.938-28.39 27.078-27.806 39.56-69.1 32.42-107.25-3.933 27.462-14.567 53.939-30.721 76.492-10.657 14.878-28.914 29.269-45.621 21.8-8.175-3.655-13.448-11.779-16.918-20.034-31.3-74.449 51.171-154.19 38.405-233.94-8.685 48.031-29.245 93.869-59.341 132.3" style="fill:url(#linearGradient253262)"/></g></g></g></g><g transform="matrix(.35278 0 0 -.35278 -590.01 412.8)"><g clip-path="url(#clipPath253288)" style="opacity:.39999"><g clip-path="url(#clipPath253292)"><g mask="url(#mask253304)"><path d="m1848.1 1333.1c11.781-109.67 29.49-218.7 53.026-326.46 27.78 37.293 76.768 50.624 115.06 77.006 24.676 17 45.753 40.055 73.662 50.966-18.463 31.586-33.903 64.939-46.04 99.455-18.718-40.516-56.507-68.33-92.773-94.345-15.621-11.206-31.242-22.412-46.864-33.618l-58.509 224.03" style="fill:url(#linearGradient253320)"/></g></g><g clip-path="url(#clipPath253324)"><g mask="url(#mask253336)"><path d="m1848.1 1333.1c11.781-109.67 29.49-218.7 53.026-326.46 27.78 37.293 76.768 50.624 115.06 77.006 24.676 17 45.753 40.055 73.662 50.966-18.463 31.586-33.903 64.939-46.04 99.455-18.718-40.516-56.507-68.33-92.773-94.345-15.621-11.206-31.242-22.412-46.864-33.618l-58.509 224.03" style="fill:url(#linearGradient253352)"/></g></g></g></g><g transform="matrix(.35278 0 0 -.35278 -590.01 412.8)"><g clip-path="url(#clipPath253392)" style="opacity:.3"><g clip-path="url(#clipPath253396)"><g mask="url(#mask253410)"><path d="m1451.4 948.11c-16.063 151.39 3.055 306.41 55.417 449.37-91.805-109.97-130.63-262.28-102.67-402.78 1.748-8.785 3.75-17.746 2.499-26.615-3.768-26.705-35.464-44.882-34.138-71.819 25.135 18.852 50.27 37.705 75.405 56.557-0.69 4.568-1.379 9.136-2.069 13.704" style="fill:url(#linearGradient253428)"/></g></g></g></g><g transform="matrix(.35278 0 0 -.35278 -590.01 412.8)"><g clip-path="url(#clipPath253454)" style="opacity:.39999"><g transform="translate(1484 957.93)"><path d="m0 0c17.729-68.807 35.458-137.61 53.188-206.42 2.039-7.917 4.722-16.694 11.891-20.622 5.567-3.051 12.388-2.289 18.615-1.056 78.83 15.604 131.62 87.856 176.42 154.57 48.37-41.37 99.392-79.64 152.65-114.5-7.666-23.259-11.903-47.646-12.531-72.128-51.851 44.907-101.57 92.278-148.93 141.9-56.369-77.765-136.15-138.33-226.2-171.71 2.823 76.926-3.895 154.2-19.953 229.48-15.481-16.8-33.382-31.366-52.978-43.108 11.549 16.262 18.229 35.936 18.969 55.868 0.246 6.62-1.041 14.632-7.141 17.213-4.004 1.694-8.589 0.293-12.638-1.29-13.341-5.219-25.924-12.375-37.229-21.173 41.125 21.751 64.479 72.628 54.162 117.99 9.494-20.036 18.988-40.071 28.482-60.107" style="fill:#231f20"/></g></g></g><g transform="matrix(.35278 0 0 -.35278 -590.01 412.8)"><g clip-path="url(#clipPath253470)" style="opacity:.5"><g clip-path="url(#clipPath253474)"><g mask="url(#mask253486)"><path d="m1678.4 559.56c26.582 72.595 59.006 151.92 128.45 185.89-47.836-83.48-45.313-187.94-18.049-280.21 4.675-15.822 10.231-31.824 20.675-44.595s26.767-21.864 43.106-19.586c10.817 1.508 20.387 7.671 30.857 10.778 10.47 3.106 23.876 1.987 29.483-7.385-15.647-14.065-31.293-28.129-46.939-42.193 16.5-3.536 33.001-7.072 49.502-10.608-29.25 1.153-56.549-25.699-55.879-54.964 0.671-29.265 29.17-54.839 58.337-52.347-26.027-27.356-57.196-49.802-91.391-65.816-19.602 34.362-24.842 74.789-37.197 112.37-29.862 90.833-101.48 165.44-120.51 259.14" style="fill:url(#linearGradient253502)"/></g></g></g></g><g transform="matrix(.35278 0 0 -.35278 -590.01 412.8)"><g clip-path="url(#clipPath253528)" style="opacity:.39999"><g clip-path="url(#clipPath253532)"><g mask="url(#mask253544)"><path d="m1377.3 820.76c17.832-64.607 46.084-126.32 83.332-182.04 7.063-10.566 14.572-21.179 17.979-33.423 4.023-14.457 1.965-29.792 0.862-44.757-4.005-54.363 5.292-109.66 26.854-159.72 1.995-4.633 4.34-9.506 8.685-12.07 6.074-3.586 13.723-1.477 20.632-0.061 31.073 6.365 65.148-4.865 86.348-28.456-27.489 9.764-61.286-4.648-73.27-31.244-11.985-26.596-0.393-61.461 25.131-75.586 12.531-6.934 27.153-9.08 40.2-14.985 13.047-5.906 25.354-17.883 24.283-32.164-22.075 12.598-48.406 24.886-71.917 15.229-17.734-7.284-29.189-27.445-26.369-46.408 2.821-18.963 19.649-34.916 38.735-36.723-22.909-2.391-46.068-2.37-68.972 0.06-8.029 0.852-16.316 2.104-23.096 6.487-16.376 10.586-17.018 35.819-6.56 52.277 10.459 16.459 28.504 26.231 45.767 35.3-15.324 4.579-27.266 18.851-29.073 34.742-1.806 15.89 6.628 32.479 20.532 40.381-53.185 46.1-77.2 116.55-97.8 183.86-33.172 108.38-63.552 223.02-39.694 333.82" style="fill:url(#linearGradient253560)"/></g></g></g></g><g transform="matrix(.35278 0 0 -.35278 -590.01 412.8)"><g clip-path="url(#clipPath253586)" style="opacity:.2"><g transform="translate(1811.5 1809.7)"><path d="m0 0c3.467-21.11 25.07-34.577 45.969-39.148 36.528-7.99 74.947 2.76 107.92 20.382 34.68 18.531 65.51 45.063 86.299 78.437-2.788-24.544-15.032-46.86-27.036-68.45-6.898-12.406-13.887-24.941-23.483-35.402-26.629-29.034-69.104-37.659-108.5-37.047-23.234 0.362-48.104 4.115-65.134 19.923-14.357 13.327-20.711 32.94-26.512 51.65" style="fill:#231f20"/></g></g></g><g transform="matrix(.35278 0 0 -.35278 -590.01 412.8)"><g clip-path="url(#clipPath253602)" style="opacity:.2"><g transform="translate(1701.6 2019)"><path d="m0 0c-15.074-0.444-26.768-15.064-28.777-30.011-2.009-14.946 3.39-29.85 9.63-43.58 6.239-13.73 13.511-27.342 15.601-42.278 3.246-23.195-6.349-45.962-13.043-68.407-21.048-70.578-13.942-146.66 2.348-218.48 5.855-25.817 13.82-52.957 33.761-70.369 22.883-19.978 56.367-22.385 86.421-17.967-17.415-20.794-46.49-26.619-73.23-31.157-9.95-1.688-20.363-3.348-29.966-0.245-18.28 5.908-27.009 26.349-32.351 44.802-21.615 74.668-24.349 153.39-39.015 229.72-0.71 3.693-1.569 7.615-4.243 10.259-3.767 3.726-9.72 3.667-14.789 5.211-11.241 3.424-18.397 16.704-15.073 27.975 8.879 2.911 19.388-0.08 25.405-7.23 1.348-1.603 2.723-3.533 4.8-3.803 5.166-0.671 5.101 7.523 3.412 12.45-7.319 21.339-0.524 44.843 8.336 65.589 8.859 20.747 19.971 41.267 21.537 63.772 2.053 29.513-14.338 59.528-40.277 73.755 14.135 8.133 32.437 8.496 46.883 0.929 4.487-2.35 9.026-5.506 14.073-5.077s9.352 7.212 5.581 10.593" style="fill:#231f20"/></g></g></g><g transform="matrix(.35278 0 0 -.35278 -590.01 412.8)"><g clip-path="url(#clipPath253618)" style="opacity:.3"><g transform="translate(1563.6 1955.6)"><path d="m0 0c9.271 16.328 21.699 30.855 36.397 42.541-3.016-11.502-6.031-23.003-9.046-34.504 5.155 5.434 10.31 10.868 15.465 16.302-1.106-9.727-2.923-19.374-5.432-28.838 5.982 6.759 12.212 13.706 20.416 17.471-7.234-11.647-11.143-25.334-11.152-39.045 3.642 3.307 7.283 6.613 10.925 9.919 1.486-7.533-1.633-15.096-3.905-22.43s-3.535-15.963 1.005-22.154c4.621 4.15 9.242 8.299 13.863 12.45-1.721-20.356-5.369-40.548-10.879-60.218-4.74-3.391-10.226 3.161-12.384 8.575-12.762 32.021-25.524 64.044-38.287 96.065" style="fill:#231f20"/></g></g></g><g transform="matrix(.35278 0 0 -.35278 -590.01 412.8)"><g clip-path="url(#clipPath253634)" style="opacity:.10001"><g transform="translate(1624.8 2024.2)"><path d="m0 0c8.682 24.158 32.819 43.15 58.455 41.817 12.48-0.649 24.229-5.717 36.129-9.533 58.717-18.831 129.26-4.258 169.14 42.769-5.339-21.396-12.597-42.313-21.66-62.417-3.55-7.878-7.489-15.788-13.613-21.884-7.052-7.02-16.451-11.095-25.726-14.697-32.251-12.524-68.045-21.257-101.24-11.502-17.553 5.159-33.211 15.169-49.761 22.968-13.306 6.27-27.273 11.137-41.594 14.496-3.067 0.719-6.511 1.315-9.193-0.34-2.681-1.654-3.156-6.536-0.173-7.554" style="fill:#231f20"/></g></g></g><g transform="matrix(.35278 0 0 -.35278 -590.01 412.8)"><g clip-path="url(#clipPath253650)" style="opacity:.2"><g transform="translate(1627.8 1734.8)"><path d="m0 0c-16.371-86.731-9.864-177.68 18.687-261.19 2.899 11.946 19.067 14.668 30.94 11.482 11.873-3.185 16.763-0.529 28.79 2.015-14.4-6.34-4.377-37.794 5.821-49.775 6.091-7.153 14.462-13.175 23.855-13.355 9.394-0.179 19.161 7.473 18.568 16.849 9.075-19.907-10.048-46.247-31.788-43.783-3.923 0.445-8.458 1.462-11.382-1.192-1.52-1.381-2.175-3.45-2.757-5.421-15.506-52.555-23.306-107.38-23.07-162.17 0.039-9.115 0.395-18.61 4.68-26.654 4.286-8.044 13.688-14.102 22.453-11.605 7.375 2.101 11.994 9.245 15.63 15.995 15.349 28.495 25.349 59.859 29.327 91.978-13.728-62.165-29.457-123.89-47.156-185.04l-44.481 168.86c-4.363 16.56-8.731 34.077-4.121 50.571 3.576 12.796 26.594 53.727 19.359 57.663-22.564 12.279-28.274 32.428-32.597 54.103-0.528 2.648 11.289 20.267 9.601 22.375-5.846 7.306-17.455 0.96-24.004-5.724-14.155-14.447-27.211-29.971-39.018-46.394-22.46 109.6-8.65 226.32 38.768 327.66" style="fill:#231f20"/></g></g></g><g transform="matrix(.35278 0 0 -.35278 -590.01 412.8)"><g clip-path="url(#clipPath253666)" style="opacity:.2"><g clip-path="url(#clipPath253670)"><g mask="url(#mask253684)"><path d="m1521.8 316.61c12.523 11.233 26.436 20.916 41.321 28.755 8.926 4.702 18.551 8.821 28.64 8.788 5.647-0.018 11.202-1.341 16.663-2.776 8.881-2.333 17.846-5.06 25.409-10.269 7.301-5.031 13.27-15.014 8.436-22.447-4.268-6.565-13.731-6.494-21.518-5.679-25.146 2.634-50.292 5.268-75.438 7.902-7.635 0.8-15.967 1.442-22.381-2.777-3.296-2.169-6.738-5.694-10.461-4.386" style="fill:url(#linearGradient253702)"/></g></g></g></g><g transform="matrix(.35278 0 0 -.35278 -590.01 412.8)"><g clip-path="url(#clipPath253728)" style="opacity:.2"><g clip-path="url(#clipPath253732)"><g mask="url(#mask253746)"><path d="m1609.5 367.84c10.478 69.233 27.929 137.77 56.907 201.51s69.791 122.69 122.92 168.3c-91.413-67.96-154.98-168.62-192.7-276.1-8.779-25.016-16.343-51.031-15.546-77.532 11.198-1.657 21.691-7.675 28.778-16.501" style="fill:url(#linearGradient253764)"/></g></g></g></g><g transform="matrix(.35278 0 0 -.35278 -590.01 412.8)"><g clip-path="url(#clipPath253790)" style="opacity:.2"><g clip-path="url(#clipPath253794)"><g mask="url(#mask253808)"><path d="m1883.8 695.47c-13.482-94.921-4.484-192.96 26.051-283.84-13.805 6.896-30.918 6.727-44.584-0.441 8.704 25.528 7.836 53.17 7.416 80.137-1.104 70.882 1.565 141.82 7.992 212.42" style="fill:url(#linearGradient253826)"/></g></g></g></g><g transform="matrix(.35278 0 0 -.35278 -590.01 412.8)"><g clip-path="url(#clipPath253852)" style="opacity:.2"><g clip-path="url(#clipPath253856)"><g mask="url(#mask253870)"><path d="m1870 322.84c6.305 14.113 15.603 26.881 27.1 37.214 1.517 1.363 3.13 2.718 5.078 3.324 3.8 1.181 7.889-0.772 10.954-3.31 11.059-9.154 13.75-24.868 14.519-39.204 0.999-18.619 0.023-37.343-2.906-55.757-2.52 9.885-3.453 20.114-5.819 30.037s-6.392 19.841-13.878 26.769c-7.487 6.93-19.037 10.168-28.228 5.742-0.196 1.517-0.391 3.033-0.586 4.55" style="fill:url(#linearGradient253888)"/></g></g></g></g><g transform="matrix(.35278 0 0 -.35278 -590.01 412.8)"><g clip-path="url(#clipPath253914)" style="opacity:.3"><g transform="translate(1579.9 1685.2)"><path d="m0 0c-28.481-16.074-52.897-45.802-74.41-69.992-22.751-25.581-43.682-52.765-62.695-81.232-37.849-56.664-67.841-118.61-88.787-183.46-23.324-72.217-34.613-148.13-34.022-224.01 0.289-37.111 3.428-74.288 9.603-110.89 6.364-37.723 13.228-81.206 32.185-114.89 0.504-0.894 2.206-0.57 2.064 0.559-4.176 33.274-15.965 65.695-21.792 98.833-6.802 38.681-10.654 77.942-11.37 117.21-1.396 76.628 9.032 153.41 31.305 226.76 19.587 64.509 48.74 125.96 85.644 182.35 19.108 29.201 40.398 56.963 63.565 83.058 22.301 25.119 50.635 46.161 71.346 72.277 1.457 1.838-0.336 4.714-2.636 3.416" style="fill:#fff"/></g><g transform="translate(1540 1058.7)"><path d="m0 0c-13.497 11.279-28.507 12.878-44.24 6.7-0.603-0.236-0.604-1.325 0.168-1.243 13.283 1.402 30.19-2.974 40.055-11.865 10.716-9.659 12.892-22.574 15.484-35.946 0.408-2.104 3.394-1.803 3.965 0 4.853 15.297-3.621 32.485-15.432 42.354" style="fill:#fff"/></g><g transform="translate(1730.7 996.31)"><path d="m0 0c-2 1.263-4.635-1.282-3.3-3.3 28.61-43.261 13.237-81.638-17.669-119.14-24.026-29.157-50.49-57.569-79.021-82.384-16.213-14.102-33.376-26.717-53.397-34.821-15.778-6.385-21.505-6.157-27.569 10.41-3.108 8.493-4.02 20.035-5.807 28.91-9.027 44.85-17.079 90.191-29.181 134.34-0.205 0.746-1.499 0.629-1.399-0.189 3.588-29.406 9.216-58.573 14.699-87.676 3.036-16.108 6.178-32.198 9.271-48.295 2.277-11.849 2.302-32.588 8.523-42.933 16.139-26.834 70.197 16.714 84.689 28.724 39.223 32.506 81.789 74.106 107.48 118.55 16.107 27.871 25.288 77.236-7.314 97.809" style="fill:#fff"/></g><g transform="translate(1890.1 919.86)"><path d="m0 0c-2.566 44.487-5.994 88.921-10.379 133.26-4.097 41.434-8.957 82.791-14.56 124.05-6.074 44.717-9.728 93.295-23.926 136.24-0.459 1.389-2.682 1.221-2.641-0.357 1.175-45.435 12.44-91.909 18.424-136.98 5.863-44.164 10.845-88.444 14.966-132.8 4.122-44.366 7.486-88.803 9.943-133.29 2.345-42.458-0.271-87.028 6.281-128.99-0.276 0.676-0.725 1.294-1.335 1.705-0.402 0.271-0.805 0.543-1.208 0.814-0.273 0.185-0.59 0.212-0.901 0.255-0.232 0.366-0.682 0.925-1.684 2.021-2.342 2.563-7.6 4.529-10.698 6.534-11.018 7.131-22.013 14.635-31.874 23.275-26.06 22.835-48.1 49.907-74.437 72.431-0.912 0.781-2.642-0.281-1.801-1.389 6.789-8.941 111.73-127 123.77-108.4 0.44 0.679 0.493 1.434 0.346 2.154 0.753-2.965 4.984-1.765 5.309 0.951 5.354 44.792-1.002 93.526-3.596 138.52" style="fill:#fff"/></g><g transform="translate(1842.8 1440.4)"><path d="m0 0c0.1 19.038-1.169 37.222-4.156 56.008-0.144 0.904-1.536 0.65-1.554-0.211-0.522-24.793 0.064-49.626-1.024-74.406-0.74-16.857 2.457-34.315-17.362-42.838-9.197-3.954-25.082-2.513-35.127-3.763-4.828-0.602-5.046-8.179 0-7.751 18.053 1.527 49.775-3.478 56.642 16.741 5.19 15.285 2.495 39.971 2.581 56.22" style="fill:#fff"/></g><g transform="translate(1802.6 1359.8)"><path d="m0 0c-0.92 1.449-3.5 0.548-2.891-1.219 18.855-54.743 19.32-105.57 3.825-161.34-14.426-51.922-36.219-101.51-53.185-152.6-1.422-4.279 5.035-5.85 6.635-1.829 22.454 56.437 46.596 115.38 59.456 174.86 10.006 46.281 12.517 100.62-13.84 142.13" style="fill:#fff"/></g><g transform="translate(1695.3 1122.9)"><path d="m0 0c-12.123 33.084-22.44 66.826-30.924 101.02-8.441 34.021-15.007 68.461-19.763 103.19-4.566 33.331-4.543 67.661-10.843 100.65-0.453 2.376-3.645 1.502-3.883-0.525-1.253-10.668-1.468-21.569-1.128-32.533-0.353 0.243-0.686 0.508-1.128 0.648-8.954 2.83-17.886 5.257-27.207 6.566-9.14 1.284-26.473-2.224-32.459 5.745-4.724 6.288-1.928 29.913-2.129 37.888-0.357 14.231-0.168 28.464 0.402 42.687 2.245 56.025 15.34 108.04 26.776 162.47 0.37 1.761-2.309 3.183-3.108 1.31-33.019-77.324-37.368-171.26-29.504-253.8 0.201-2.123 1.779-4.443 4.231-4.232 19.307 1.664 37.549-0.15 56.049-5.334-42.413-84.95-23.794-189.95 47.947-253.43 0.567-0.502 1.386 0.297 0.839 0.84-64.858 64.423-82.479 169.42-40.418 251.05 1.154-20.79 4.234-41.714 6.978-61.749 4.781-34.914 11.415-69.557 19.91-103.76 8.493-34.196 18.819-67.934 30.95-101.02 11.332-30.902 22.81-65.971 41.253-93.322 1.836-2.723 6.67-1.117 5.566 2.346-10.145 31.816-26.87 61.81-38.407 93.295" style="fill:#fff"/></g><g transform="translate(2062.1 1166.7)"><path d="m0 0c-18.066 37.25-28.988 76.088-32.528 117.35-0.228 2.652-2.051 4.847-4.879 4.879-23.743 0.267-38.749-23.146-54.399-38.197-11.415-10.979-23.064-21.718-34.852-32.295-7.182-6.443-39.454-40.022-48.281-36.331-0.961 0.402-1.88-0.932-1.34-1.742 12.51-18.807 84.445 57.265 94.577 66.983 5.648 5.417 10.861 11.804 16.965 16.641 5.779 6.681 13.503 10.395 23.17 11.144 0.323-2.964 0.647-5.928 0.97-8.892 3.243-11.687 3.771-24.614 6.55-36.522 3.742-16.03 8.658-31.601 14.872-46.847 6.209-15.236 5.628-18.826-1.189-33.796-1.911-4.195 2.99-8.667 6.646-5.128 5.498 5.323 9.31 10.927 13.718 17.225 1.161 1.659 0.818 3.844 0 5.53" style="fill:#fff"/></g><g transform="translate(1694.7 559.23)"><path d="m0 0c-0.133 0.38-0.735 0.224-0.61-0.168 0.847-2.657 1.694-5.313 2.542-7.971 0.17-0.533 1.023-0.296 0.838 0.232-0.923 2.635-1.846 5.271-2.77 7.907" style="fill:#fff"/></g><g transform="translate(1809.6 299.94)"><path d="m0 0c-11.996 30.636-31.325 57.577-47.176 86.227-17.018 30.759-31.634 62.714-44.099 95.579-10.973 28.934-16.786 60.891-30.34 88.587-0.546 1.115-2.302 0.551-2.285-0.618 0.408-28.935 12.475-59.252 22.193-86.257 10.651-29.595 23.522-58.484 38.023-86.383 16.15-31.072 37.009-59.858 51.172-91.897 13.081-29.592 13.329-63.457 26.487-92.249 1.088-2.382 4.318-0.912 4.495 1.218 2.265 27.296-8.57 60.509-18.47 85.793" style="fill:#fff"/></g><g transform="translate(1516.2 320.92)"><path d="m0 0c-38.986 73.823-69.92 151.2-92.847 231.47-22.405 78.432-29.666 157.36-43.401 237.27-0.321 1.861-3.128 1.326-3.185-0.431-2.64-80.574 17.768-166.52 39.388-243.56 22.312-79.51 53.81-156.27 92.328-229.26 2.684-5.089 10.404-0.577 7.717 4.511" style="fill:#fff"/></g><g transform="translate(1521.5 240.54)"><path d="m0 0c-0.889 0.4-1.919 0.358-2.822-0.034-1.566 3.414-3.813 7.093-3.807 7.081-2.144 3.815-3.657 8.271-4.611 12.542-2.606 11.673-0.15 23.831 6.464 33.686 7.49 11.162 19.636 17.688 22.726 31.342 0.125 0.546-0.509 1.197-1.045 0.804-18.342-13.463-36.99-30.835-38.24-54.915-0.566-10.919 5.078-42.784 21.302-39.562 2.425 0.482 3.464 3.184 3.038 5.352-0.39 1.986-1.191 2.888-3.005 3.704" style="fill:#fff"/></g><g transform="translate(1636.1 324.32)"><path d="m0 0c-11.941 25.767-34.864 24.614-59.014 18.849-0.749-0.179-0.834-1.488 0-1.602 7.107-0.969 14.63-0.889 21.629-2.064 26.219-4.406 32.024-21.597 32.523-45.99 0.543-26.436-9.081-52.459-8.633-78.974 0.054-3.238 4.638-3.83 5.593-0.757 6.77 21.797 9.116 46.087 11.811 68.781 1.676 14.112 2.182 28.614-3.909 41.757" style="fill:#fff"/></g><g transform="translate(1711.7 666.21)"><path d="m0 0c-56.168-88.514-90.349-185.52-105.06-289.31-0.374-2.638 3.665-3.779 4.042-1.114 14.445 101.9 50.39 200.93 102.11 289.79 0.412 0.708-0.657 1.325-1.093 0.639" style="fill:#fff"/></g><g transform="translate(1911.6 428.87)"><path d="m0 0c-4.376 30.145-16.071 59.678-21.883 89.725-6.467 33.44-10.637 67.372-12.476 101.38-1.857 34.343 1.236 68.757-0.647 102.99-0.032 0.594-0.947 0.787-1.087 0.148-11.468-52.071-5.808-111.36 1.011-163.78 3.263-25.08 7.77-49.985 13.508-74.617 6.579-28.245 23.731-60.972 6.097-87.79-1.502-2.285 1.373-4.608 3.517-3.518 13.534 6.88 13.982 21.526 11.96 35.46" style="fill:#fff"/></g><g transform="translate(1924.4 324.46)"><path d="m0 0c-2.285 10.344-5.113 21.734-12.907 29.442-17.394 17.202-37.235-11.699-39.656-28.29-0.113-0.779 0.871-1.678 1.52-0.885 5.928 7.241 12.683 17.592 21.225 21.986 11.194 5.757 15.375-7.715 18.135-17.067 4.788-16.228 3.514-39.892 14.746-52.91 1.094-1.269 3.128-0.494 3.569 0.943 4.267 13.907-3.552 32.836-6.632 46.781" style="fill:#fff"/></g><g transform="translate(1626 171.81)"><path d="m0 0c-12.776 19.23-46.699 40.976-70.314 29.229-0.623-0.309-0.67-1.412 0-1.707 10.427-4.587 21.993-5.228 32.421-10.37 5.061-2.495 9.546-5.592 13.767-9.003-0.912 0.295-1.963 0.386-3.145 0.185-4.212-0.714-8.715-2.086-12.313 1.338-1.164 1.106-2.718-0.28-2.112-1.63 3.138-6.996 10.913-10.966 18.089-6.759 1.152 0.675 2.04 2.048 1.962 3.42-0.045 0.792-0.236 1.425-0.519 1.948 4.754-4.062 9.11-8.615 13.345-13.456 4.17-4.769 12.353 1.486 8.819 6.805" style="fill:#fff"/></g><g transform="translate(2094.8 188.56)"><path d="m0 0c-22.186 9.868-46.06 14.797-69.206 21.891-26.333 8.071-48.19 22.398-73.033 33.178-0.592 0.257-1.4-0.311-0.974-0.974 12.224-18.987 35.352-28.306 55.852-35.915 27.429-10.182 57.432-18.345 86.583-21.054 1.484-0.139 2.159 2.26 0.778 2.874" style="fill:#fff"/></g><g transform="translate(1985.8 204.07)"><path d="m0 0c-1.91 0.618-3.203 1.374-5.263 1.706-2.418 0.39-4.833 0.869-7.126 1.751-4.005 1.542-7.433 4.073-10.912 6.515-1.318 0.924-3.349-0.622-2.789-2.144 1.828-4.966 5.629-8.826 10.204-11.387 2.48-1.389 5.196-2.486 7.985-3.039 3.33-0.66 4.854-0.11 7.901 1.107 2.551 1.018 2.839 4.57 0 5.491" style="fill:#fff"/></g><g transform="translate(1437.8 1135.9)"><path d="m0 0c4.463 62.49 18.765 122.36 32.57 183.2 0.374 1.649-1.968 2.276-2.517 0.694-19.879-57.325-28.88-118.88-34.56-179.11-5.576-59.114-8.686-123.63 3.786-182.08 0.207-0.971 1.71-0.736 1.709 0.232-0.089 59.325-5.236 117.6-0.988 177.07" style="fill:#fff"/></g><g transform="translate(2097.4 1480.3)"><path d="m0 0c-5.758 11.391-13.799 21.297-27.559 19.988-2.001-0.191-2.414-2.794-0.473-3.496 29.003-10.482 28.742-54.803 43.33-77.445 2.266-3.517 7.033-1.136 6.432 2.712-2.956 18.977-13.028 41.023-21.73 58.241" style="fill:#fff"/></g><g transform="translate(2200.8 1421.7)"><path d="m0 0c-3.109 6.309-7.779 10.538-12.761 15.319-2.011 1.929-5.878-0.714-4.038-3.115 4.356-5.682 5.77-13.146 6.969-20.041 0.777-4.47 3.209-11.161 9.046-8.693 6.485 2.742 2.988 12.054 0.784 16.53" style="fill:#fff"/></g><g transform="translate(2230.6 1366)"><path d="m0 0c-4.287 5.373-1.138 12.783-7.905 17.445-4.681 3.223-10.194 2.521-15.197 0.508-16.499-6.64-28.062-27.34-37.13-41.61-0.426-0.668 0.456-1.639 1.136-1.136 11.527 8.522 21.197 18.407 31.893 27.831 1.428 1.258 5.786 5.495 8.18 5.24 5.414-0.577 3.557-3.294 4.086-7.115 0.632-4.557 1.518-7.948 5.093-11.006 6.914-5.914 15.391 2.893 9.844 9.843" style="fill:#fff"/></g><g transform="translate(2221.1 1323.2)"><path d="m0 0c-1.361 0.232-3.07-0.897-2.481-2.481 4.09-10.993 8.366-22.566 1.976-33.612-4.929-8.519 8.258-16.215 13.181-7.705 7.94 13.725 6.889 40.454-12.676 43.798" style="fill:#fff"/></g><g transform="translate(1998.1 1886.2)"><path d="m0 0c-35.798 0.425-73.5-10.232-106.4-23.635-26.172-10.661-62.23-25.3-78.625-49.468-0.345-0.506 0.228-1.238 0.803-1.045 13.349 4.477 24.144 13.557 36.295 20.567 16.5 9.52 33.829 17.679 51.666 24.36 31.96 11.97 63.973 15.724 97.42 20.676 4.96 0.734 3.596 8.489-1.156 8.545" style="fill:#fff"/></g><g transform="translate(1894.3 1663)"><path d="m0 0c-1.623 7.823-3.23 15.608-4.22 23.572-0.807 6.48-0.707 13.445-4.37 19.016-0.311 0.473-0.992 0.497-1.298 0-4.111-6.682-2.882-15.178-2.293-22.731 0.707-9.049 1.85-18.185 3.895-27.032 1.018-4.399 8.446-4.726 9.229 0 0.192 1.159 0.383 2.32 0.576 3.479 0.222 1.346-0.458 2.829-1.519 3.696" style="fill:#fff"/></g><g transform="translate(1765.9 1720.1)"><path d="m0 0c-7.468 12.805-44.536 1.554-45.981-12.622-0.041-0.406 0.362-0.681 0.712-0.712 7.296-0.638 14.408 4.886 21.674 6.08 6.688 1.098 16.802-2.138 22.205 1.951 1.67 1.265 2.549 3.316 1.39 5.303" style="fill:#fff"/></g><g transform="translate(1623.3 1823.7)"><path d="m0 0c-3.156 4.102-7.327 4.674-12.288 5.667-5.174 1.036-10.309 1.574-15.577 1.451-3.214-0.074-4.65-4.564-1.682-6.207 4.573-2.529 9.29-4.467 14.311-5.937 4.799-1.405 9.033-2.993 13.704-0.818 1.913 0.892 2.848 4.133 1.532 5.844" style="fill:#fff"/></g></g></g><g transform="matrix(.35278 0 0 -.35278 65.836 -251.75)"><path d="m0 0c-0.487-0.348-1.155-0.5-1.745-0.455-1.274 0.097-2.569 0.841-2.874 2.188-0.028 0.124-0.056 0.248-0.084 0.373-0.293 1.297 0.202 2.323 1.005 2.959-1.397 0.752-2.971 1.218-4.67 1.218-5.481 0-9.925-4.443-9.925-9.925 0-5.481 4.444-9.924 9.925-9.924 5.482 0 9.925 4.443 9.925 9.924 0 1.519-0.368 2.942-0.979 4.23-0.169-0.206-0.333-0.414-0.578-0.588m-39.307 2.344c-0.827-0.59-1.962-0.85-2.964-0.772-2.164 0.166-4.365 1.427-4.882 3.716-0.047 0.211-0.095 0.422-0.143 0.634-0.498 2.203 0.343 3.946 1.708 5.026-2.374 1.278-5.048 2.069-7.933 2.069-9.31 0-16.858-7.547-16.858-16.858 0-9.31 7.548-16.858 16.858-16.858 9.311 0 16.858 7.548 16.858 16.858 0 2.58-0.625 4.998-1.662 7.184-0.288-0.348-0.567-0.702-0.982-0.999m-93.017-546.29c1.459 0.375 2.92 0.752 4.38 1.128-2.708 16.587-5.416 33.175-8.124 49.762-1.309 0.187-2.621 0.374-3.931 0.561-2.129-5.299-5.532-10.448-6.177-15.921-3.603-30.578-6.593-61.228-9.643-91.867-0.437-4.394-0.061-8.868-0.061-13.305 12.659 31.121 13.56 63.643 15.757 96.004 2.6-8.787 5.199-17.575 7.799-26.362m-266.33-783.91c1.535-2.89 3.069-5.78 6.568-12.369-1.207 5.66-1.331 7.308-1.929 8.763-0.67 1.633-1.767 3.09-2.678 4.623-0.654-0.339-1.307-0.678-1.961-1.017m99.472 1416.1c-0.246-0.248-0.532-0.392-0.756-0.687-2.201-2.895-4-6.108-5.92-9.195-4.534-7.294 6.514-13.389 11.337-6.627 2.115 2.964 4.397 5.868 6.223 9.018 1.973 3.404 0.869 6.353-1.342 8.102 2.511 3.587 5.122 7.318 8.164 11.663-10.661-4.462-15.548-7.256-17.706-12.274m39.683-156.04c12.858-8.051 22.66-14.188 33.367-20.891 7.037 10.459 3.124 15.859-2.544 20.115-8.433 6.331-17.491 6.198-30.823 0.776m265.82 133.85c2.405-0.115 4.996 3.663 6.712 5.034-0.832 9.862-14.93 16.873-25.503 13.751-3.016-0.89-7.81-4.741-7.464-6.221 0.781-3.332 3.704-7.5 6.772-8.677 6.127-2.352 12.907-3.571 19.483-3.887m-99.663-4.863c14.215 9.687 29.446 11.524 39.82 23.222-18.111 12.008-37.01 1.928-39.82-23.222m-17.522-1005.2c0.478 6.825-4.804 13.269-11.6 14.153-8.726 1.134-17.932-7.296-18.181-16.649-0.202-7.582 4.724-12.807 12.251-12.993 8.559-0.213 16.951 7.202 17.53 15.489m28.997 1090.5c-26.009 2.622-55.034 5.549-82.444 8.312 18.714-17.981 57.121-21.528 82.444-8.312m-229.66-61.612c0.1 0.053 0.248 0.048 0.336 0.117 1.403 1.119 2.79 2.528 3.57 4.117 9.35 19.039 22.702 34.904 37.897 49.535 5.686 5.476 10.528 11.86 15.338 18.206 0.065 0.015 0.129 0 0.195 0.015 2.42 0.571 3.745 2.83 3.849 5.167 0.469-0.24 0.947-0.462 1.434-0.557 1.425-0.279 2.548-0.319 3.974 0 3.34 0.748 5.29 4.022 5.488 7.208 0.863 13.948-8.283 24.121-20.924 28.166-3.432 1.098-5.175-3.193-3.232-5.553 3.688-4.478 5.901-10.463 7.508-16.403-5.487 1.311-11.631 0.929-17.559 1.106-4.18 1.07-8.669 1.449-12.33 1.806-5.657 0.55-6.915-8.802-1.346-9.944 3.467-0.71 6.863-1.645 10.19-2.851 2.049-1.16 4.088-2.409 6.13-3.621 1.415-1.084 2.92-2.174 4.404-3.27-12.865-7.426-25.725-14.487-36.032-25.637-10.82-11.705-18.652-25.818-23.05-41.111-2.59-9.007 9.536-13.075 14.16-6.496m278.22-331.69v-38.703c-31.966-3.035-58.757 23.352-63.676 65.097 19.481-13.847 37.991-28.635 63.676-26.394m-95.554 62.537c5.742 2.01 11.352 3.972 18.208 6.37 1.229-11.007 1.97-20.709 3.448-30.298 3.982-25.835 10.466-50.618 28.365-71.076 15.113-17.274 38.953-24.939 60.244-17.904 6.108 2.018 12.999 4.205 11.935 14.064-5.753 0.334-11.035 0.641-16.435 0.956-6.216 11.916-2.702 21.984 2.849 32.436 26.677 0.417 52.645 2.878 73.246 22.763-4.182 10.74-8.392 19.696-11.124 29.081-2.776 9.539-4.096 19.503-6.053 29.28-1.402-0.221-2.804-0.443-4.207-0.664-8.399-19.936 6.255-37.73 8.766-57.599-34.723-17.009-69.91-17.656-104.22-3.864-21.78 8.754-42.174 22.205-41.085 51.352 3.742 3.266 7.627 6.658 11.877 10.368-18.722 9.659-34.67 2.535-35.811-15.265m347.58-1526.6c-36.9-0.218-74.004 0.29-110.65 4.108-22.327 2.327-44.068 10.956-65.87 17.434-18.33 5.446-24.059 2.117-27.098-18.815-11.392-2.152-23.255-4.393-36.962-6.982-2.355 6.691-4.456 12.661-6.841 19.435 32.9 11.263 60.697 28.194 87.952 46.263 16.753 11.105 33.683 14.379 53.824 5.332 33.635-15.11 68.386-27.796 102.95-40.748 14.346-5.375 29.421-8.808 47.254-14.031-15.236-9.751-30.409-11.912-44.557-11.996m62.261 25.538c-4.495 1.933-9.426 2.839-14.134 4.291-15.9 4.902-32.115 8.991-47.62 14.933-35.081 13.449-70.218 26.9-104.55 42.121-24.648 10.929-44.852 4.284-65.498-9.333-21.052-13.884-42.88-26.603-64.512-39.594-8.731-5.243-17.846-9.85-25.244-13.902 2.278-7.367 4.633-12.246 5.209-17.328 2.328-20.55 9.53-26.858 30.163-25.127 7.989 0.671 15.956 1.677 23.905 2.737 16.187 2.159 18.222 5.038 15.918 21.558-0.23 1.65 0.274 3.404 0.426 5.002 13.182-6.135 25.38-14.044 38.739-17.636 53.491-14.385 107.78-20.71 162.92-10.225 11.471 2.182 22.855 5.075 34.019 8.487 5.156 1.575 10.307 4.479 14.382 8.02 10.51 9.133 8.578 20.532-4.124 25.996m-501.5-14.887c1.742-1.602 8.74-12.57 10.452-14.906-7.112-10.32-57.092-38.765-148.37-19.984-9.867 2.03-16.312 15.191-27.362 19.815 12.334 13.458 22.148 25.303 33.255 35.778 5.068 4.779 12.365 8.612 19.202 9.866 42.298 7.757 80.528-0.861 112.82-30.569m-262.28 649.91c11.274-9.825 11.274-9.825 1.509-21.868-0.629 9.124-1.022 14.803-1.509 21.868m435.49-584.61c-2.235 10.764-3.832 22.112-8.554 31.824-14.277 29.368-29.671 58.206-45.097 86.999-30.777 57.448-51.641 118.74-71.001 180.66-2.736 8.753-2.886 16.617 1.55 24.907 16.891 31.562 33.389 63.334 50.25 94.913 1.995 3.738 35.109 50.058 57.994 61.081 2.024 0.975 3.6 8.345 2.557 9.169-2.865 2.266-7.94 4.477-10.865 3.362-6.195-2.361-11.946-6.386-17.229-10.553-16.896-13.326-72.042-85.574-80.767-105.29-1.498-3.386-2.788-6.866-4.127-10.32-9.142-23.582-17.957-47.296-27.471-70.726-19.991-49.235-39.353-98.612-45.274-152.03-0.868-7.824-2.276-15.588-3.695-25.134-11.839 0-23.023 1.199-33.834-0.3-13.897-1.927-19.248-10.142-17.935-25.217 4.754 2.051 8.926 4.498 13.428 5.648 7.625 1.946 15.401 3.693 23.216 4.422 19.391 1.81 30.175-11.76 41.138-24.384 7.668-8.831 11.123-18.975 7.944-30.899-5.885-22.066-11.356-44.243-17.291-66.295-1.055-3.919-3.525-7.457-5.723-11.949-32.597 13.138-64.849 23.337-100.64 11.789-4.219 6.303-7.313 10.881-10.362 15.49-6.38 9.644-10.081 18.999-4.3 31.081 2.461 5.143 1.052 13.51-1.28 19.34-10.769 26.921-22.381 53.51-33.883 80.135-18.397 42.591-33.495 86.303-44.243 131.44-8.577 36.011-17.447 71.997-24.427 108.33-6.976 36.316-11.917 73.028-17.439 109.61-2.21 14.648-3.769 29.404-5.269 44.147-0.813 7.987-0.88 16.05-1.283 24.079 21.079-65.331 50.152-125.88 85.881-183.4-26.551 62.03-60.987 120.81-77.271 187.43 5.953 4.379 11.064 7.776 15.771 11.662 24.766 20.454 49.784 40.626 73.972 61.744 11.332 9.894 14.427 20.491 10.281 25.413-4.562 5.419-13.068 2.811-25.552-8.147-14.399-12.638-28.645-25.449-43-38.138-7.6-6.718-15.29-13.334-24.173-21.072-6.338 11.728-11.45 21.187-16.604 30.724 22.425 16.426 47.049 27.003 63.902 50.368-4.024 0-5.513 0.474-6.301-0.069-21.191-14.603-42.433-29.138-63.268-44.235-2.394-1.735-11.373-5.114-11.833-8.671-0.79-6.111-17.029-273.21 130.05-560.98 2.56-5.009 3.406-12.477 1.416-17.271-5.655-13.634-2.407-25.324 4.385-37.004 3.029-5.209 6.125-10.377 7.917-13.407-16.496-21.784-31.702-41.865-46.345-61.203 9.453-21.812 20.3-32.112 41.286-39.372 16.309-5.64 129.45-10.053 155.6 22.176 11.178 13.774 11.583 31.546-1.14 43.679-6.562 6.258-13.515 12.106-18.852 16.858 8.228 26.128 15.813 50.192 23.382 74.262 7.162 22.778 2.543 42.381-14.781 59.313-7.441 7.274-13.438 16.023-21.783 26.156 11.382 53.442 28.087 109.44 53.571 165.47 2.547-4.698 3.592-6.132 4.154-7.735 13.069-37.246 24.025-75.4 39.639-111.54 18.822-43.563 40.494-86.017 63.164-127.74 9.733-17.91 16.903-35.085 17.092-55.602 0.092-9.983 2.422-20.587 15.664-28.946 0 9.105 0.28 15.517-0.074 21.894-0.409 7.378-0.752 14.855-2.247 22.056m415.84 1035.8c-3.269-3.653-6.466-7.382-9.918-10.856-13.981-14.067-33.467-10.271-40.72 8.338-1.258 3.231-0.689 9.327 1.546 11.419 15.088 14.124 30.852 27.526 46.363 41.133 19.14-21.262 19.46-31.335 2.729-50.034m-38.777-54.917c-11.359-8.467-22.761-17.035-34.949-24.19-14.059-8.254-25.454-3.916-34.135 10.054-9.184 14.781-11.479 31.19-12.267 47.862-0.193 4.091 2.681 9.418 5.844 12.335 5.373 4.953 12.522 7.951 18.059 12.768 2.5 2.174 2.917 6.741 4.279 10.222-3.283 0.858-7.52 3.446-9.678 2.259-7.489-4.122-14.149-9.716-21.323-14.448-8.6-5.671-5.928-13.696-5.221-21.581 1.468-16.35 2.582-32.732 3.716-47.477-9.245-10.916-17.974-21.225-27.989-33.051-18.974 32.244-21.709 66.759-25.848 101.07 7.508 4.731 14.211 8.955 21.623 13.626 6.757-5.763 13.615-11.612 20.473-17.461 1.079 0.712 2.156 1.424 3.233 2.136-3.047 5.583-5.314 11.805-9.276 16.638-16.461 20.076-18.216 42.56-11.718 66.429 7.548 27.731 11.501 55.784 5.323 84.146-3.775 17.333-9.724 34.192-14.771 51.521 12.094 8.689 17.164 8.519 27.104-2.896 16.724-19.208 25.065-42.149 28.892-67.036 1.063-6.912 3.011-13.687 5.015-22.578-14.696-8.003-19.405-21.451-13.921-39.296 5.072-16.504 13.863-28.782 32.161-32.587-1.895-20.499 4.2-36.21 21.168-46.813 2.167-1.353 4.113-4.808 4.25-7.391 1.165-21.963 14.279-31.415 34.429-34.003 0.954-0.123 1.761-1.393 4.445-3.649-6.409-5.685-12.28-11.663-18.918-16.611m-289.3-218.85c-8.763 54.874-17.52 108.14-25.719 161.49-8.178 53.213-14.305 106.75-22.904 159.9-1.934-0.056-3.867-0.111-5.801-0.167-0.707-6.195-2.587-12.519-1.925-18.564 3.755-34.34 7.404-68.719 12.417-102.89 11.733-79.977 26.953-159.46 32.004-240.34 3.041-48.672 7.302-97.275 9.841-145.97 0.824-15.801-2.071-31.796-3.528-51.214-28.884 16.176-52.134 35.233-75.089 53.91-22.771 18.528-42.349 40.98-62.302 60.698 0.223 3.435-0.1 4.864 0.437 5.797 13.997 24.285 14.3 49.096 2.083 73.921-11.627 23.627-11.39 45.168 1.269 69.649 26.712 51.657 42.808 107.68 60.369 162.99 10.81 34.044 13.884 68.989 12.729 104.29-0.375 11.471-4.639 22.874-7.61 34.18-1.841 7.013-4.596 13.785-7.35 21.863 9.983 2.221 20.915-4.136 26.719 5.792 4.492 7.684 7.606 16.174 11.849 25.434 0.263-0.63 0.567-1.249 0.872-1.868 4e-3 -0.028 9e-3 -0.056 0.013-0.084 8.125-56.301 19.849-111.92 34.721-166.8-0.925-1.104-1.961-2.181-3.163-3.238-5.405-4.756-9.034-10.073-7.869-17.68 1.731-11.299 10.528-15.683 20.209-9.758 3.116 1.908 5.596 4.826 8.496 7.118 35.361 27.936 70.71 55.886 106.17 83.7 4.78 3.748 10.136 6.764 18.101 12.016 5.25-47.618 13.336-91.743 33.272-131.74-5.77-8.138-10.56-14.896-17.768-25.063l17.366 2.895 1.257-1.954c-56.11-42.559-112.22-85.117-169.16-128.31m-156.96 1.622c-18.39 64.131-35.556 123.95-52.694 183.78-5.606 19.57-10.736 39.288-16.846 58.699-4.26 13.536-4.689 25.919 1.94 39.206 5.154 10.334 7.529 22.105 10.71 33.36 4.53 16.032 8.257 32.3 13.082 48.239 5.272 17.416 8.38 19.259 30.165 20.15 4.344-16.491 8.045-33.786 13.473-50.521 14.671-45.222 4.279-89.217-5.635-133.21-5.561-24.679-12.32-49.087-18.376-73.657-1.255-5.091-1.791-10.359-2.854-16.724 10.524 1.501 10.473 8.542 11.814 14.059 9.326 38.37 19.353 76.602 27.355 115.25 7.374 35.61 12.747 71.645 18.491 107.57 2.126 13.299 2.803 26.831 4.074 39.591 7.922 1.455 15.821 0.702 20.052 4.282 4.549 3.852 6.312 11.581 8.143 17.947 6.043 21.02 9.475 42.266 2.122 63.77-0.752 2.202-2.104 4.198-5.124 10.078-1.931-23.236-1.129-43.141-9.611-66.229-9.766 30.605-31.201 44.959-55.944 59.555 19.72 2.824 37.094 3.222 53.05 8.182 16.084 4.999 30.759 14.527 46.898 22.489 5.812-46.98 9.885-93.085 1.836-139.17-13.407-1.745-24.762-3.224-36.797-4.792 0.303-4.306-0.267-7.014 0.736-8.873 27.917-51.745 26.924-105.57 10.686-160.04-14.624-49.047-28.147-98.52-50.773-144.84-5.388-11.03-8.587-23.122-12.985-34.652-1.215-3.185-3.121-6.107-6.988-13.511m-17.979 4.249c-13.294 11.839-27.696 22.663-39.643 35.733-23.007 25.168-41.928 53.431-54.92 85.136-14.495 35.372-28.42 70.983-42.134 106.67-11.217 29.184-9.425 57.824 4.029 86.21 8.968 18.922 16.444 38.554 24.492 57.909 0.866 2.082 1.098 4.428 0.79 8.123-10.362-15.126-25.192-11.252-39.152-11.489-8.493-0.145-16.965-1.51-25.225-2.305-19.439 58.707 4.748 226.76 44.341 297.97-2.63-14.206-5.708-28.345-7.805-42.628-6.838-46.556-9.124-93.306-4.593-140.25 1.72-17.81 3.581-35.607 5.533-53.392 0.941-8.586 1.702-17.249 3.518-25.668 2.482-11.506 9.79-13.591 18.466-5.556 2.66 2.464 4.394 5.912 6.655 8.829 4.885 6.298 9.837 12.544 17.116 21.811 2.057-29.637 3.43-55.328 5.706-80.939 4.269-48.065 13.303-95.219 27.026-141.56 13.141-44.372 25.084-89.098 37.767-133.61 4.395-15.425 9.408-30.672 14.182-45.987 2.346-7.528 4.786-15.025 7.184-22.537-1.111-0.826-2.222-1.651-3.333-2.477m-95.83 722.03c7.036-79.284 20.65-157.38 43.005-236.58-28.568-14.793-46.005-42.144-63.113-70.825-21.296 104.29-16.257 206.6 20.108 307.4m59.758-347.87c-7.941-31.745-15.833-63.296-24.341-97.304-3.816 28.442-8.035 55.204-10.823 82.114-2.352 22.702-1.99 45.71-4.847 68.327-1.854 14.673 3.436 23.238 17.832 31.001-11.589-36.855-5.616-53.532 22.179-84.138m82.796 34.695c0.965-4.621 4.393-10.782 2.588-14.083-11.081-20.273-8.71-43.13-13.813-64.465-0.138-0.573-0.59-1.07-2.401-4.231-5.407 15.34-9.848 27.94-14.222 40.352 9.112 13.882 18.069 27.528 27.848 42.427m381.66-12.407c12.248 8.089 24.63 15.976 36.549 23.69 23.884-11.349 26.963-24.506 10.32-42.653-15.883-17.319-33.795-32.145-56.092-43.399-12.878 9.821-22.748 20.332-25.563 36.961 9.191 11.091 22.655 17.388 34.786 25.401m-329.26 430.25c-6.574-5.442-10.841-12.778-21.764-10.23-12.459 2.906-24.459 5.809-29.89 18.696-2.807 6.659-4.962 14.17-4.998 21.309-0.104 20.306 8.896 37.069 24.248 49.823 13.434 11.16 47.806-0.55 42.91-39.619-0.086-0.69 6.748 11.709 4.861 23.957-0.819 5.321 6.336 8.196 12.079 7.782 9.507-0.683 28.226-17.384 28.226-35.284-21.279-11.111-40.679-24.026-55.672-36.434m402.5-492.42c-18.199-16.733-37.051-34.066-55.518-51.045-14.82 6.544-17.939 18.161-19.622 30.822-0.911 6.858 1.219 11.328 7.051 15.583 19.85 14.484 39.188 29.671 59.74 45.367 16.337-2.284 15.692-18.309 19.243-32.326 11.073 20.952 6.682 32.765-14.78 43.196 0.317 1.788 0.62 3.602 0.964 5.409 3.437 18.087-6.668 29.045-20.07 38.352-13.169 9.146-23.265 1.52-33.447-5.924-2.994-2.189-5.898-4.532-9.052-6.464-8.016-4.912-16.151-9.631-25.956-15.448-0.421 6.245-0.445 9.292-0.856 12.286-3.671 26.791-11.656 52.029-30.053 72.471-5.956 6.618-14.07 12.152-22.273 15.682-11.074 4.767-20.275-1.976-28.267-9.19-7.832-7.071-1.359-13.325 1.641-19.823 16.668-36.1 20.854-73.075 9.01-111.66-5.809-18.922-9.973-38.299-3.255-58.219 1.7-5.043 0.163-8.203-2.909-10.27-0.075 0.071-0.093 0.161-0.172 0.23-22.254 19.24-32.094 2.901-53.334-13.661-19.092-14.886-38.347-29.534-57.792-43.955-12.011-8.907-25.543-17.085-35.441-28.314-0.733 2.727-1.472 5.473-2.196 8.172-12.287 47.529-23.135 95.352-30.829 143.87-7.769 48.997-5.524 104.55-20.704 151.84 72.519 57.075 87.047 154.65 91.543 204.03 36.554 12.878 68.608 39.977 86.921 74.353 12.302 23.091 29.205 65.337 11.555 89.777-17.693 24.496-60.615 16.366-85.232 12.054-13.307-2.332-26.196-5.697-38.727-9.877-16.256 45.418-32.416 89.396-63.085 125.98 0.297 0.195 0.615 0.241 0.905 0.476 23.161 18.798 59.38 52.018 54.666 86.03-4.481 32.334-42.531 42.664-69.884 46.131-61.242 7.76-208.79-21.897-222.38-96.968-2.77-5.738-5.135-12.021-1.086-20.217 3.435 5.521 5.924 9.656 8.543 13.706 2.005 3.104 4.135 6.112 6.299 9.087 37.355 35.021 77.335 54.877 128.62 67.326 30.1 7.308 62.854 11.858 93.45 4.239 2.919-0.727 5.529-1.582 7.982-2.499 4.502-2.225 8.941-4.727 13.223-7.903 1.087-0.806 1.962-1.518 2.893-2.253 12.617-14.006 5.667-34.799-7.099-53.29-4.302-5.107-9.054-9.908-14.301-14.436-17.805-15.362-35.261-30.944-58.216-38.49-33.052-10.865-65.619-6.39-98.111 2.604-3.425 0.948-6.93 1.608-10.398 2.402 51.067-25.907 101.32-28.752 149.12 6.104 23.277-32.971 56.718-106.61 61.546-134.52-6.04-2.514-11.975-5.259-17.799-8.237-3.097 21.749-26.588 54.913-52.267 36.228-23.3 32.733-50.815 17.728-62.962-4.088-0.955-1.714-23.838-31.365-12.653-62.052 6.646-18.232 22.096-29.999 40.775-29.047 0.722-0.49 1.434-1.175 2.391-1.92v-10.96c3.682 3.319 6.159 5.161 8.166 7.42 20.288 22.827 45.951 37.115 74.4 46.974 38.464 13.329 76.885 26.301 118.07 29.149 0.017-5e-3 0.038-0.01 0.057-0.01 15.462 0.308 43.093 0.859 30.955-49.82-12.341-51.53-73.964-123.73-187.15-101.16-8.072 1.609-15.215 6.306-22.815 9.478 1.101-5.575 3.166-9.424 6.285-11.997 21.15-17.449 45.332-24.35 72.525-19.746 8.773 1.486 17.487 3.332 26.407 5.048 0.858-3.695 1.376-7.239 1.888-10.783-4.39-30.722-12.119-60.442-23.641-89.173-1.462-3.092-2.821-6.237-4.32-9.307-34.369-70.428-90.249-110.69-168.69-118.49-10.468-1.04-20.482-2.507-29.537-12.324 4.321-3.186 8.123-6.806 12.606-9.087 5.447-2.773 11.843-3.738 17.179-6.667 22.277-12.226 24.999-47.464 4.537-64.657-14.329 9.728-29.04 4.04-44.718-1.516-5.679 6.792-11.771 12.931-16.521 19.975-13.262 19.666-12.328 35.682 4.177 53.135 6.934 7.332 5.622 13.452 3.149 21.701-7.234 24.124-14.778 48.277-19.805 72.908-5.175 25.365-7.548 51.303-11.114 76.995-5.689 40.992-11.203 82.006-17.101 122.97-2.241 15.557-3.35 16.173-16.833 15.831-23.178-0.587-37.529 14.864-35.423 38.14 1.236 13.673 8.524 19.077 21.334 14.498 7.359-2.631 13.986-7.309 21.426-11.327 25.23 34.35 31.016 75.555 37.907 116.11 1.395 8.218-2.631 17.902-5.918 26.213-3.107 7.852-8.414 14.861-12.966 22.108-5.149 8.193-10.535 16.237-15.818 24.347-1.338-0.7-2.675-1.398-4.012-2.098 7.176-15.353 13.268-31.359 21.949-45.808 4.952-8.242 6.693-15.42 4.495-24.252-6.703-26.919-13.228-53.882-20.067-80.766-1.288-5.06-3.708-9.832-5.924-15.563-6.3 4.07-11.433 7.387-16.635 10.748-0.694 16.747-5.029 31.822-11.383 45.98-6.358 18.282-15.206 35.803-28.481 47.409-0.385 0.337-0.839 0.397-1.274 0.546-0.764 1.018-1.503 2.047-2.273 3.062 0.21-0.964 0.56-1.881 0.799-2.835-1.951-0.192-3.675-1.796-3.068-4.159 3.874-15.104 12.112-28.409 17.709-42.912 5.463-14.159 9.513-28.681 12.593-43.521-24.463-8.368-33.037-22.021-29.56-47.575 1.064-7.821 3.326-15.843 6.806-22.901 8.221-16.669 20.965-27.251 40.936-26.284 4.711 0.228 1.336-42.759-7.925-45.262-68.114-18.407-179.92-162.56-217.68-238.86-161.54-326.42-54.881-583.79-52.569-589.55 2.095 3.909 17.803 18.987 17.027 21.851-13.282 48.994-22.45 98.883-27.606 149.24-8.026 78.388-26.585 386.43 253.18 622.83 2.053 1.734 4.927 2.424 8.742 4.238-9.206-29.391-18.206-56.789-26.356-84.437-14.897-50.532-26.745-101.64-23.753-154.9 1.107-19.712 3.184-39.367 4.711-59.057 1.427-18.398 3.858-20.387 23.078-19.922 10.657 0.258 21.33-0.15 33.939-0.278-7.834-18.811-14.481-34.665-21.043-50.554-8.778-21.259-11.415-43.256-4.243-65.235 9.171-28.109 19.092-56.015 29.874-83.546 8.771-22.395 17.231-45.338 29.505-65.837 18.64-31.13 37.246-62.953 67.74-84.901 4.031-2.901 8.143-5.69 12.217-8.531-1.609-0.772 25.766-18.574 38.541-64.652 1.62-5.844 1.8-13.217 0.308-19.358-6.7-27.579-21.039-51.291-39.392-72.611-18.122-21.051-37.636-40.985-54.705-62.841-28.61-36.635-68.363-50.192-110.97-58.576-5.936 28.041-13.416 54.933-16.99 82.335-4.765 36.523-17.172 70.712-27.833 105.46-4.629 15.09-12.201 28.641-30.666 30.904-8.1 0.992-11.208 6.922-11.884 14.346-2.794 30.684-5.616 61.366-8.142 92.072-0.33 4.016 1.001 8.169 1.818 14.113 21.111 0 41.405 0.931 61.572-0.269 19.138-1.14 31.335-12.077 37.148-30.841 4.139-13.361 10.089-26.162 15.23-39.211l3.912 1.302c-3.732 14.156-7.231 28.378-11.246 42.452-6.639 23.265-23.038 34.113-46.487 35.139-9.869 0.432-19.785 0.325-29.663-0.021-10.182-0.358-20.344-1.306-31.108-2.036-3.09 35.489 2.427 69.094 6.8 102.62 4.465 34.223 10.311 68.306 16.772 102.22 6.295 33.04 24.892 62.404 30.031 96.33-5.009-3.102-8.625-6.934-10.849-11.452-15.03-30.545-27.875-61.947-35.639-95.219-8.438-36.162-12.072-72.966-16.272-109.81-6.116-53.65-7.705-107.14-3.221-160.86 1.379-16.532 3.116-33.034 4.763-50.316-37.716-21.541-68.017-51.585-101.49-80.652 14.538-6.692 24.49-1.228 33.499 4.983 17.795 12.269 34.943 25.471 52.439 38.177 11.905 8.646 25.19 15.835 30.128 32.618 9.024-7.077 19.417-8.39 22.738-19.927 7.505-26.081 16.607-51.712 23.824-77.867 11.597-42.025 22.194-84.327 32.946-125.49 12.969-5.297 23.579-0.526 34.466 0.831 32.653 4.07 59.677 19.597 83.033 41.513 14.36 13.474 27.181 28.664 40.038 43.646 17.494 20.385 34.362 41.308 52.578 63.302 22.352-34.526 52.557-59.818 84.131-83.732 11.803-8.938 22.675-19.25 35.086-27.195 10.897-6.977 11.338-15.892 10.448-26.916-1.54-19.049-1.796-38.217-2.789-57.274-7.548-144.88 21.652-218.15 30.101-262.41 1.915-10.028 3.463-17.622-7.414-25.472-14.088-10.167-9.441-28.045 7.756-31.382 11.428-2.219 15.908-7.707 17.209-17.927 2.259-17.75 4.52-35.5 6.694-53.26 0.631-5.153 1.578-10.626 8.02-10.273 6.311 0.346 7.51 5.974 7.094 11.045-1.463 17.823-2.887 35.671-5.195 53.398-2.365 18.165-10.561 31.499-31.271 32.474-0.656 0.031-1.224 1.915-1.832 2.935 14.785 13.904 15.184 15.16 10.73 35.161-0.537 2.407-1.467 4.726-2.049 7.126-17.08 70.419-32.897 141.42-27.097 214.32 1.959 24.621 4.942 113.38 4.942 113.38s5.129-0.542 12.149-1.284c0.59 12.247 5.536 57.419 4.87 68.967-3.193 55.462-7.2 110.88-11.158 166.29-1.132 15.833-1.653 16.104 13.249 23.646 26.016 13.169 81.413 54.441 86.092 57.429 35.378 22.586 70.423 45.735 106.43 67.271 12.406 7.42 15.858 16.486 13.54 29.108-2.041 11.108-5.007 22.046-7.993 34.905 4.688-0.947 8.564-0.688 11.086-2.41 16.202-11.068 31.774-7.636 46.784 1.902 10.924 6.942 21.279 14.792 31.78 22.385 16.048 11.604 27.03 26.712 32.765 45.885 1.674 5.596 5.411 10.879 9.197 15.489 18.348 22.347 11.693 54.517-16.881 70.032"/></g></g></svg>
