<?xml version="1.0" encoding="UTF-8"?>
<svg width="374.34mm" height="710.43mm" version="1.1" viewBox="0 0 374.34 710.43" xmlns="http://www.w3.org/2000/svg"><defs><clipPath id="clipPath3564"><path d="m0 2283.2h1569.6v-2283.2h-1569.6z"/></clipPath><clipPath id="clipPath3572"><path d="m237.71 1852h1149.4v-1392.2h-1149.4z"/></clipPath><clipPath id="clipPath3576"><path d="m1171.9 502.47-737.2-42.658-196.97 1388.1 1149.4 4.119z"/></clipPath><linearGradient id="linearGradient3588" x2="1" gradientTransform="matrix(1149.4 0 0 -1149.4 237.71 1155.9)" gradientUnits="userSpaceOnUse"><stop style="stop-color:#fff;stop-opacity:.95001" offset="0"/><stop style="stop-color:#fff;stop-opacity:0" offset=".9915"/><stop style="stop-color:#fff;stop-opacity:0" offset="1"/></linearGradient><mask id="mask3590" x="0" y="0" width="1" height="1" maskUnits="userSpaceOnUse"><path d="m-32768 32767h65535v-65535h-65535z" style="fill:url(#linearGradient3588)"/></mask><clipPath id="clipPath3638"><path d="m469.19 1265.7h249.24v-294.59h-249.24z"/></clipPath><clipPath id="clipPath3658"><path d="m777.2 1410.6h72.692v-155.75h-72.692z"/></clipPath><clipPath id="clipPath3678"><path d="m589.27 928.94h197.24v-583.33h-197.24z"/></clipPath><clipPath id="clipPath3698"><path d="m836.8 856.18h211.25v-732.55h-211.25z"/></clipPath><clipPath id="clipPath3714"><path d="m661.09 821.67h216.41v-51.847h-216.41z"/></clipPath><clipPath id="clipPath3734"><path d="m785.41 1248.6h273.28v-172.8h-273.28z"/></clipPath><clipPath id="clipPath3754"><path d="m897.61 1260.1h148.39v-169.75h-148.39z"/></clipPath><clipPath id="clipPath3774"><path d="m716.43 1276.9h98.065v-76.11h-98.065z"/></clipPath><clipPath id="clipPath3790"><path d="m829.73 1135.3h156.26v-89.63h-156.26z"/></clipPath><clipPath id="clipPath3806"><path d="m534.83 1269.3h121.32v-210.24h-121.32z"/></clipPath><clipPath id="clipPath3826"><path d="m577.1 1191.4h241.41v-395.8h-241.41z"/></clipPath><clipPath id="clipPath3846"><path d="m177.13 1206.4h428.34v-409.82h-428.34z"/></clipPath><clipPath id="clipPath3866"><path d="m191.77 1240.6h160.77v-423.37h-160.77z"/></clipPath><clipPath id="clipPath3886"><path d="m248.25 1262h116.97v-80.44h-116.97z"/></clipPath><clipPath id="clipPath3902"><path d="m224.83 1229.7h336.36v-384.8h-336.36z"/></clipPath><clipPath id="clipPath3922"><path d="m855.11 1982.2h383.16v-772.08h-383.16z"/></clipPath><clipPath id="clipPath3926"><path d="m1115.4 1298.8c7.322-2.707 15.353-2.759 23.133-2.117 18.872 1.556 37.411 7.043 54.091 16.007-18.735-38.406-50.045-71.127-89.012-88.663-38.968-17.535-85.517-19.006-124.32-1.107-19.714 9.095-36.954 22.714-53.638 36.607-23.817 19.834-47.627 41.417-60.189 69.752-14.05 31.689-12.288 68.426-3.482 101.95s24.184 64.886 37.108 97.051c36.285 90.309 53.357 188.28 49.754 285.54-0.827 22.312-2.716 44.805 0.792 66.855 5.862 36.848 27.407 70.937 58.175 92.044 5.643 3.871 11.709 7.374 18.407 8.774 6.968 1.457 14.203 0.555 21.212-0.692 65.32-11.621 124.38-54.432 155.73-112.9 12.328-22.984 20.494-48.011 26.351-73.426 9.559-41.484 13-85.35 1.648-126.38-7.588-27.426-21.508-52.667-36.682-76.739-29.211-46.345-63.527-89.485-89.963-137.47-12.112-21.983-22.651-45.353-25.786-70.256-3.135-24.902 1.915-51.703 18.09-70.895 5.046-5.987 11.232-11.23 18.576-13.945"/></clipPath><linearGradient id="linearGradient3938" x2="1" gradientTransform="matrix(201.07 -31.614 -31.614 -201.07 982.22 1604.1)" gradientUnits="userSpaceOnUse"><stop style="stop-color:#fff;stop-opacity:.95001" offset="0"/><stop style="stop-color:#fff;stop-opacity:0" offset=".9915"/><stop style="stop-color:#fff;stop-opacity:0" offset="1"/></linearGradient><mask id="mask3940" x="0" y="0" width="1" height="1" maskUnits="userSpaceOnUse"><path d="m-32768 32767h65535v-65535h-65535z" style="fill:url(#linearGradient3938)"/></mask><linearGradient id="linearGradient3958" x2="1" gradientTransform="matrix(201.07 -31.614 -31.614 -201.07 982.22 1604.1)" gradientUnits="userSpaceOnUse"><stop style="stop-color:#130c0e" offset="0"/><stop style="stop-color:#130c0e" offset=".9915"/><stop style="stop-color:#130c0e" offset="1"/></linearGradient><clipPath id="clipPath3984"><path d="m856.95 1951h356.8v-717.37h-356.8z"/></clipPath><clipPath id="clipPath4000"><path d="m916.39 1885.6h288.36v-623.14h-288.36z"/></clipPath><clipPath id="clipPath4020"><path d="m563.98 1939.2h459.86v-618.24h-459.86z"/></clipPath><clipPath id="clipPath4048"><path d="m671.62 1471h129.66v-92.96h-129.66z"/></clipPath><clipPath id="clipPath4068"><path d="m662.52 1484.8h85.59v-18.51h-85.59z"/></clipPath><clipPath id="clipPath4084"><path d="m598.07 1629.1c-9.127-8.521 1.419-38.927 11.848-47.386 19.792-16.056 53.603-5.407 76.34-16.919 1.841 48.037-32.152 74.286-61.157 74.288-10.228 1e-3 -19.832-3.262-27.031-9.983"/></clipPath><clipPath id="clipPath4104"><path d="m631.94 1637.8h65.913v-62.09h-65.913z"/></clipPath><clipPath id="clipPath4124"><path d="m800.84 1625.4c-20.591-14.817-33.687-36.371-37.547-61.444 35.665 4.829 68.813 3.297 104.48 8.128 16.155 2.187 35.179 6.515 41.121 21.696 3.996 10.209-0.01 22.339-7.761 30.092-7.752 7.755-18.586 11.706-29.39 13.568-7.709 1.327-15.444 2.1-23.064 2.1-17.092 0-33.593-3.891-47.835-14.14"/></clipPath><clipPath id="clipPath4144"><path d="m831.27 1641.6h67.537v-64.81h-67.537z"/></clipPath><clipPath id="clipPath4164"><path d="m0 2283.2h1569.6v-2283.2h-1569.6z"/></clipPath><clipPath id="clipPath4180"><path d="m767.04 1594.8h152.27v-35.56h-152.27z"/></clipPath><clipPath id="clipPath4196"><path d="m601.18 1581.7h87.141v-18.8h-87.141z"/></clipPath><clipPath id="clipPath4228"><path d="m492.17 1934.2h410.28v-296.22h-410.28z"/></clipPath><clipPath id="clipPath4232"><path d="m895.01 1916.3c-0.433 0.573-0.856 1.166-1.363 1.69-22.489 23.24-180.76 19.481-239.6 1.144-66.923-20.857-108.03-74.43-149.54-139.26-14.232-22.228-16.802-53.103-4.276-76.335 6.483-12.024 59.629-53.771 75.502-65.596-1.781 5.188-8.011 51.647-6.898 54.577 1.149 3.445 26.624 14.261 31.591 16.64 18.954 9.076 40.227 14.89 59.965 22.118l121.64 44.545c31.933 11.694 64.884 24.013 89.275 47.71 19.136 18.592 43.686 66.315 23.7 92.762"/></clipPath><linearGradient id="linearGradient4244" x2="1" gradientTransform="matrix(6.3228 -188.42 -188.42 -6.3228 693.94 1914.6)" gradientUnits="userSpaceOnUse"><stop style="stop-color:#fff;stop-opacity:.95001" offset="0"/><stop style="stop-color:#fff;stop-opacity:0" offset=".9915"/><stop style="stop-color:#fff;stop-opacity:0" offset="1"/></linearGradient><mask id="mask4246" x="0" y="0" width="1" height="1" maskUnits="userSpaceOnUse"><path d="m-32768 32767h65535v-65535h-65535z" style="fill:url(#linearGradient4244)"/></mask><linearGradient id="linearGradient4264" x2="1" gradientTransform="matrix(6.3228 -188.42 -188.42 -6.3228 693.94 1914.6)" gradientUnits="userSpaceOnUse"><stop style="stop-color:#130c0e" offset="0"/><stop style="stop-color:#130c0e" offset=".9915"/><stop style="stop-color:#130c0e" offset="1"/></linearGradient><clipPath id="clipPath4290"><path d="m499.47 1936.5h402.57v-274.48h-402.57z"/></clipPath><clipPath id="clipPath4306"><path d="m966.32 1691h58.73v-66.68h-58.73z"/></clipPath><clipPath id="clipPath4322"><path d="m963.01 1720.5h83.233v-74.28h-83.233z"/></clipPath><clipPath id="clipPath4338"><path d="m889.93 1831.8h191.75v-149.71h-191.75z"/></clipPath><clipPath id="clipPath4354"><path d="m497 1852h264.02v-171.77h-264.02z"/></clipPath><clipPath id="clipPath4370"><path d="m966.16 1774.6h106.01v-161.26h-106.01z"/></clipPath><clipPath id="clipPath4390"><path d="m922.33 2095.7h160.49v-283.96h-160.49z"/></clipPath><clipPath id="clipPath4406"><path d="m561.6 2108.5h520.56v-296.76h-520.56z"/></clipPath><clipPath id="clipPath4422"><path d="m516.04 1886.7h566.18v-130.65h-566.18z"/></clipPath><clipPath id="clipPath4446"><path d="m485.48 1902.8h305.6v-88.34h-305.6z"/></clipPath><clipPath id="clipPath4462"><path d="m746.24 1897.8h103.39v-61.93h-103.39z"/></clipPath><clipPath id="clipPath4486"><path d="m638.58 1700.7h78.156v-191.38h-78.156z"/></clipPath><clipPath id="clipPath4502"><path d="m751.8 1716.3h148.65v-112.18h-148.65z"/></clipPath><clipPath id="clipPath4518"><path d="m686.92 1557.6h56.16v-29.5h-56.16z"/></clipPath><clipPath id="clipPath4538"><path d="m257.84 1003.4h36.873v-51.061h-36.873z"/></clipPath><clipPath id="clipPath4554"><path d="m239.7 1040.7h50.823v-71.624h-50.823z"/></clipPath><clipPath id="clipPath4570"><path d="m235.21 1072.9h18.519v-81.268h-18.519z"/></clipPath><clipPath id="clipPath4590"><path d="m672.22 1034.7h330.5v-63.895h-330.5z"/></clipPath><clipPath id="clipPath4610"><path d="m968.38 1030.1h184.21v-235.84h-184.21z"/></clipPath><clipPath id="clipPath4630"><path d="m671.21 970.89h302.65v-177.04h-302.65z"/></clipPath><clipPath id="clipPath4650"><path d="m1070.3 1105.4h40.76v-197.19h-40.76z"/></clipPath><clipPath id="clipPath4666"><path d="m957.3 1064.4h82.337v-243.77h-82.337z"/></clipPath><clipPath id="clipPath4682"><path d="m971.75 859.19h38.797v-66.188h-38.797z"/></clipPath><clipPath id="clipPath4698"><path d="m1029.9 887.42h34.95v-91.825h-34.95z"/></clipPath></defs><g transform="translate(285.48 -11.691)"><g transform="matrix(.35278 0 0 -.35278 -347.97 755.53)"><g clip-path="url(#clipPath3564)"><g clip-path="url(#clipPath3572)" style="opacity:.5"><g clip-path="url(#clipPath3576)"><g mask="url(#mask3590)"></g></g></g><g transform="translate(612.9 1210.5)"><path d="m0 0c-16.533-11.859-29.96-26.586-40.884-44.886-1.202-2.014-2.694-3.467-4.334-4.464-15.291-24.644-72.079-97.005-98.491-126.61 11.661-20.962 23.48-41.837 33.749-63.413 39.849 52.145 116.97 157.31 153.1 220.35 8.108 14.151 54.481 54.772 62.392 74.244-8.293-3.334-90.58-47.466-105.53-55.218" style="fill:#ffbe87"/></g><g clip-path="url(#clipPath3638)" style="opacity:.39999"><g transform="translate(612.9 1210.5)"><path d="m0 0c-16.533-11.859-29.96-26.586-40.884-44.886-1.202-2.014-2.694-3.467-4.335-4.464-15.29-24.644-72.078-97.005-98.49-126.61 11.66-20.962 23.48-41.837 33.749-63.413 14.313 18.73 33.442 44.314 53.746 72.315-6.926 13.797-11.678 29.944-19.478 43.294-8.246 14.111 5.227 19.609 13.448 5.539 5.856-10.021 17.26-15.506 22.604-25.79 31.325 43.919 63.12 90.687 82.776 124.99 8.109 14.151 54.482 54.772 62.393 74.244-8.293-3.334-90.58-47.465-105.53-55.218" style="fill:#231f20"/></g></g><g transform="translate(614.01 1081.1)"><path d="m0 0c-12.249-38.381-2.159-86.087-1.383-126.88l144.57 9.91c4.299 17.901 153.32 240.03 153.32 240.03 3.359 5.687 6.798 24.239 7.323 30.823 2.609 32.726-41.207 16.249-60.524 35.866-15.727 15.97-12.89 50.337-11.493 72.707s6.196 44.894 2.462 66.994c-26.432 1.154-47.237-23.086-56.996-47.677-11.168-28.139-14.162-80.501-47.916-91.112-9.305-2.925-19.477-4.412-27.075-10.529-4.285-3.45-7.387-8.111-10.716-12.49-21.629-28.447-55.253-44.765-86.727-59.877-22.309-10.712-32.407-36.946-22.89-59.79 6.639-15.937 8.267-33.74 18.044-47.969" style="fill:#ffbe87"/></g><g clip-path="url(#clipPath3658)" style="opacity:.39999"><g transform="translate(836.78 1332.8)"><path d="m0 0c0.53 0.732 1.067 1.457 1.611 2.175 7.961 10.503 8.265 18.296 9.613 31.805 0.376 3.771 3.857 43.593 0.284 43.749-26.431 1.154-47.236-23.086-56.995-47.677-5.163-13.009-8.583-31.19-14.098-48.034 13.046 3.164 25.515 10.169 38.297 12.642 0.676 0.131 1.455 0.218 1.98-0.227 0.526-0.446 0.566-1.229 0.559-1.918-0.263-24.425-9.362-47.782-18.331-70.5 10.74 25.617 20.602 55.222 37.08 77.985" style="fill:#231f20"/></g></g><g transform="translate(712.68 928.94)"><path d="m0 0h-94.768c-0.885-11.456-2.687-21.934-6.008-30.918-40.215-108.82-20.744-249.15 6.878-358.18 20.322-80.214 33.048-162.26 42.163-244.44 9.352-84.321 1.303-111.77 11.531-195.8 14.924-4.374 18.968-6.323 60.699-3.794 27.774 1.684 30.349-2.213 59.237 6.233-0.336 52.285-1.135 104.57-2.397 156.84-0.671 27.788-1.522 55.908-9.063 82.662-12.637 44.833-31.097 78.14-28.683 125.67 2.316 45.591 8.11 88.983 18.495 133.71 12.541 54.011 18.934 115.41 14.171 173.31-6.967 84.672-66.004 121.9-72.255 154.71" style="fill:#414042"/></g><g clip-path="url(#clipPath3678)" style="opacity:.3"><g transform="translate(594.92 769.99)"><path d="m0 0c14.574-1.441 48.631 1.035 57.743-9.862 25.339-30.304 39.681-73.314 55.144-109.08 20.883-48.304 41.013-68.051 35.06-121.91-1.967-17.797-5.873-97.609-2.786-108.37 3.146-10.963 10.442-20.155 16.791-29.63 9.461-14.12 17.101-29.46 22.67-45.519-15.387 47.931-30.966 97.406-26.781 147.57 3.052 36.581 9.741 72.161 18 107.73 12.54 54.011 18.934 115.41 14.171 173.31-6.967 84.672-66.005 121.9-72.255 154.71h-94.768c-0.885-11.456-2.688-21.934-6.008-30.918-14.586-39.47-21.291-83.09-22.633-127.85 1.88 0.045 3.764 0 5.652-0.187" style="fill:#231f20"/></g></g><g transform="translate(749.78 931.65)"><path d="m0 0-116.51-39.163c2.776-11.15 89.596-264.94 150.22-359.68 86.903-135.81 131.36-242.26 171.94-412.56 42.462-2.1 65.204-17.812 84.344-2.285 3.646 2.958 7.413 6.24 8.785 10.73 1.065 3.489 0.53 7.241-0.015 10.848-8.551 56.634-17.222 113.45-32.213 168.81-14.996 55.378-39.998 101.69-65.612 152.2-28.264 55.737-36.804 119.38-42.287 178.17-5.148 55.208-18.462 115.49-41.255 168.92-33.335 78.145-101.11 94.838-117.39 124" style="fill:#414042"/></g><g clip-path="url(#clipPath3698)" style="opacity:.3"><g transform="translate(919.1 480.62)"><path d="m0 0c16.811-29.941 35.652-58.686 51.353-89.263 15.57-30.322 29.063-61.819 39.664-94.23 18.343-56.08 28.849-114.09 34.474-172.68 1.891-3.137 3.462 3.508 3.462 7.618-2.95 13.402-9.273 181.26-97.334 328.5-32.077 53.635-36.804 119.38-42.287 178.17-5.148 55.209-18.462 115.49-41.255 168.92-8.397 19.683-18.979 35.46-30.372 48.527 32.725-55.785 45.354-120.12 52.804-183.68 3.86-32.938 6.401-66.002 9.733-98.993 3.274-32.407 9.128-62.595 19.758-92.889" style="fill:#fff"/></g></g><g clip-path="url(#clipPath3714)" style="opacity:.3"><g transform="translate(854.32 821.67)"><path d="m 0,0 -193.226,-2.529 15.175,-49.318 201.23,0.327 C 15.425,-34.363 7.316,-17.35 0,0" style="fill:#231f20"/></g></g><g transform="translate(1034.6 1062.8)"><path d="m0 0c-7.312 13.669-122.3 57.623-159.35 79.301-4.424 2.588-195.4 86.035-6.631 105.96 46.12 4.864 64.087-21.238 95.66-48.921 36.932-32.382 136.74-108.74 143.35-120.47 17.884-31.697-57.672-230.84-73.819-283.05-21.334 2.829-42.886 4.002-64.401 3.506 25.201 4.369 39.201 28.608 39.337 52.576 0.015 2.752-0.872 6.32-3.616 6.536-2.321 0.184-3.857-2.267-4.94-4.329-7.524-14.318-20.004-25.971-34.805-32.497-2.941-1.296-7.694-1.441-8.029 1.756-0.115 1.098 0.453 2.14 1.001 3.099 7.052 12.328 15.68 23.879 21.156 36.983 12.933 30.946 38.21 37.854 44.125 45.278 8.102 10.167 13.772 149.02 10.96 154.28" style="fill:#ffbe87"/></g><g clip-path="url(#clipPath3734)" style="opacity:.3"><g transform="translate(1058.7 1121.9)"><path d="m0 0c-32.824 26.75-73.626 58.982-94.447 77.239-31.573 27.683-49.54 53.785-95.66 48.92-188.77-19.922 2.207-103.37 6.631-105.96 28.808-16.854 104.72-47.173 140.52-66.255 13.384 16.206 27.548 31.725 42.961 46.053" style="fill:#231f20"/></g></g><g transform="translate(985.16 1079.6)"><path d="m0 0c20.586 23.486 41.509 46.691 60.95 71.137-24.101 19.054-99.558 83.358-101.75 89.945-3.794 11.381-83.89 31.035-85.991 31.193-22.426-16.614-82.618-68.287-115.88-32.162-10.235 11.117 1.122 25.715 7.119 37.22-19.943-0.827-98.764-2.474-115.07-15.175-5.767-4.492-73.261-101.13-99.703-143.47 18.681-17.707 34.64-38.284 49.646-59.252 3.624 7.355 8.095 14.292 13.34 20.594 0.254 0.305 10.043-24.222 9.563-27.918-6.989-53.831 19.988-173.54-29.172-243.06 24.468-10.163 59.58-16.914 85.957-14.418 64.741 6.124 121.03 28.874 181.62 52.499-18.253 17.066-75.454 74.765-49.808 144.4 7.603 20.646 86.796 131.52 92.735 131.52 1.686 0 77.309-31.4 93.578-41.731 0.944-0.599 1.902-1.005 2.866-1.325" style="fill:#27aae1"/></g><g clip-path="url(#clipPath3754)" style="opacity:.3"><g transform="translate(924.74 1243.1)"><path d="m0 0c1.846-1.608 3.634-3.283 5.358-5.022-7.426-15.484-13.678-31.532-18.682-47.959 7.012 14.08 16.152 27.097 27.015 38.473 30.139-27.794 60.964-54.844 92.439-81.116-14.357-17.199-26.15-36.535-34.868-57.173 9.515 10.545 55.169 63.495 49.519 62.636-5.396-0.82-65.61 53.369-79.802 66.24-5.81 5.271-18.738 13.571-21.363 21.436-4.101 12.283-36.134 17.101-46.744 19.434 9.863-4.167 19.054-9.917 27.128-16.949" style="fill:#fff"/></g></g><g transform="translate(727.11 1276)"><path d="m0 0c-11.512-16.493-15.167-38.732-3.676-56.438 11.988-18.472 33.864-21.647 54.118-16.745 38.599 9.34 72.895 34.924 101.01 63.954-11.221 3.022-19.534 4.985-20.192 5.035-22.427-16.613-82.619-68.287-115.88-32.161-10.234 11.116 1.122 25.714 7.12 37.219-4.725-0.196-12.777-0.44-22.497-0.864" style="fill:#fff"/></g><g clip-path="url(#clipPath3774)" style="opacity:.10001"><g transform="translate(755.01 1207.4)"><path d="m0 0c-14.734 1.374-16.093 22.681-3.761 25.117-3.075 1.854-6.016 4.184-8.76 7.164-10.235 11.117 1.122 25.715 7.119 37.22-4.725-0.196-12.776-0.44-22.497-0.864-11.512-16.494-15.166-38.733-3.676-56.439 11.988-18.471 33.865-21.646 54.118-16.745 12.816 3.102 25.145 8.024 36.944 14.238-19.053-7.102-39.262-11.577-59.487-9.691" style="fill:#231f20"/></g></g><g clip-path="url(#clipPath3790)" style="opacity:.5"><g transform="translate(971.69 1089.1)"><path d="m0 0c-17.117 10.451-70.152 39.802-83.816 46.165-18.774-28.619-44.795-58.187-58.141-89.627 25.113 36.571 55.398 76.982 58.984 76.982 1.686 0 77.309-31.4 93.577-41.731 0.945-0.6 1.903-1.005 2.867-1.325 0.278 0.317 0.557 0.632 0.835 0.949-4.785 2.834-9.558 5.689-14.306 8.587" style="fill:#231f20"/></g></g><g clip-path="url(#clipPath3806)" style="opacity:.5"><g transform="translate(588.73 1066.7)"><path d="m0 0c-4.831 8.047-9.74 16.03-15.27 23.402-6.992 9.322-17.99 16.494-17.701 29.41 0.28 12.493 60.261 103.98 71.926 120.43 8.337 11.754 16.369 22.135 28.472 29.302-9.784-1.94-17.601-4.395-21.617-7.523-5.767-4.492-73.26-101.13-99.703-143.47 18.682-17.707 34.641-38.283 49.647-59.252 1.295 2.63 2.737 5.184 4.246 7.697" style="fill:#231f20"/></g></g><g transform="translate(780.9 1077.8)"><path d="m0 0c-14.867-46.638-58.642-74-98.136-66.311-38.212 7.438-64.787 46.313-59.985 91.58 5.431 51.201 48.435 93.473 97.14 87.796 50.775-5.919 77.941-59.862 60.981-113.06" style="fill:#bfecff"/></g><g clip-path="url(#clipPath3826)" style="opacity:.5"><g transform="translate(655.18 1191.4)"><path d="m0 0-42.24-38.76c-14.422-13.235-30.17-30.127-26.632-49.379 2.354-12.81 16.578-21.318 18.369-34.218 0.697-5.028 1.393-56.463 4.146-105.72 3.794-67.865-9.407-121.45-31.723-153.19 12.988-5.689 26.34-10.546 39.947-14.534-9.665 8.608-10.95 23.264-9.312 36.102 2.253 17.654 8.657 34.496 12.305 51.916 5.908 28.214-5.122 121.41-0.587 138.4 1.512 5.667 4.576 11.746 10.228 13.314 2.786 0.774 5.745 0.296 8.611-0.092 16.773-2.272 44.583 10.221 49.777 8.599 3.29-1.027 77.56-39.201 112.12 16.861 7.692 12.475 8.388 25.492 18.314 36.274-17.745-8.888-36.395-15.97-55.567-21.1-13.004-3.48-63.692 23.246-77.401 21.92-135.1-13.067-61.416 61.857-45.643 76.399 6.359 5.863 11.556 9.406 15.283 17.212" style="fill:#231f20"/></g></g><g transform="translate(588.08 898.03)"><path d="m0 0-229.39-97.242c-12.591-5.338-27.126 0.542-32.464 13.134l-144.84 341.67c-5.338 12.592 0.543 27.126 13.134 32.464l229.39 97.242c12.592 5.338 27.126-0.543 32.464-13.134l144.84-341.67c5.338-12.592-0.543-27.126-13.134-32.464" style="fill:#00a651"/></g><g clip-path="url(#clipPath3846)" style="opacity:.39999"><g transform="translate(604.08 923.73)"><path d="m0 0-7.129 16.818c-14.656-15.826-34.891-22.628-55.881-28.014-24.931-6.397-49.513-12.081-73.789-20.735-19.48-6.944-43.498-14.23-64.081-7.348-17.021 5.691-27.672 27.305-35.756 41.803-26.1 46.802-42.266 98.708-65.425 147-21.311 44.433-44.073 88.183-64.339 133.1l-49.929-21.166c-8.855-3.753-12.99-13.974-9.236-22.828l150.57-355.2c3.754-8.854 13.974-12.989 22.828-9.236l242.93 102.98c8.854 3.753 12.989 13.974 9.236 22.828" style="fill:#231f20"/></g></g><g transform="translate(587.65 921.18)"><path d="m0 0-245.3-103.98-150.58 355.22 245.3 103.98z" style="fill:#fff"/></g><g clip-path="url(#clipPath3866)" style="opacity:.10001"><g transform="translate(352.54 1240.6)"><path d="m0 0-160.77-68.151 150.58-355.22 10.189 4.319z" style="fill:#231f20"/></g></g><g transform="translate(366.61 1220.8)"><path d="m0 0-88.527-37.528c-10.91-4.624-23.504 0.471-28.129 11.381-4.624 10.91 0.471 23.503 11.381 28.128l88.527 37.528c10.91 4.624 23.503-0.471 28.128-11.381s-0.47-23.503-11.38-28.128" style="fill:#58595b"/></g><g clip-path="url(#clipPath3886)" style="opacity:.3"><g transform="translate(278.08 1183.3)"><path d="m0 0 16.019 6.791c23.686 23.604 47.412 47.169 71.118 70.753-4.837 1.669-10.276 1.646-15.358-0.508l-88.527-37.528c-10.91-4.624-16.005-17.218-11.38-28.128s17.218-16.005 28.128-11.38" style="fill:#231f20"/></g></g><g clip-path="url(#clipPath3902)" style="opacity:.39999"><g transform="translate(509.17 914.87)"><path d="m0 0-9.724 22.974 48.659 20.727 9.763-23.256zm-168.16-44.513 156.1 66.495 9.718-22.961-156.51-65.71zm42.787 334.22 8.913-21.059-155.36-66.248-9.217 21.956zm60.61 0.985-49.369-21.052-8.908 21.046 49.547 20.801zm9.257-22.05-49.313-21.006-8.328 19.675 49.363 21.049zm-2.966-130.51-9.117 21.54 49.057 20.896 9.046-21.548zm58.243-1.162-48.929-20.842-8.328 19.675 48.98 20.885zm-19.798-89.67-9.116 21.539 48.631 20.715-0.99 2.327-48.627-20.713-8.328 19.675 48.849 20.83 18.303-43.598zm-1.341-3.322 8.327-19.674-156.1-66.493-8.245 19.64zm-10.103 23.87 9.117-21.54-156.01-66.525-9.079 21.626zm-9.313 22.003 8.327-19.675-155.96-66.435-8.245 19.64zm-7.389 23.948 48.923 20.839 8.662-20.633-48.855-20.832zm-2.327-0.992 8.73-20.627-155.88-66.467-8.695 20.712zm-9.313 22.003 8.327-19.674-155.83-66.38-8.245 19.64zm-10.103 23.87 9.117-21.54-155.74-66.412-9.079 21.626zm-9.313 22.003 8.327-19.674-155.7-66.323-8.245 19.64zm-8.81 20.814 7.824-18.485-155.61-66.354-7.794 18.567zm-9.312 22.003 8.327-19.674-155.58-66.27-8.245 19.64zm1.341 3.322-7.823 18.483 49.306 21.003 7.761-18.488zm9.313-22.005-8.327 19.675 49.237 20.996 8.279-19.719zm58.908-2.199 8.278-19.719-49.063-20.899-8.328 19.675zm-50.099-18.613-7.823 18.483 49.181 20.95 7.762-18.488zm-184.71-3.579-8.245 19.64 155.37 66.251 8.327-19.675zm156.44 63.888 7.824-18.485-155.49-66.301-7.794 18.567zm144.11-198.29-48.665-20.73-8.328 19.675 48.715 20.773zm-5.951 20.71 0.134 0.057-0.993 2.327-0.12-0.051-37.202 88.612 0.378 0.161-0.993 2.327-0.364-0.156-54.299 129.34 0.015 6e-3 -0.993 2.327-1e-3 -1e-3 -9.214 21.948-0.489 1.167-211.04-88.6-1.167-0.489 124.15-295.71 211.04 88.601 1.167 0.489z" style="fill:#231f20"/></g></g><g transform="translate(1115.4 1298.8)"><path d="m0 0c7.322-2.707 15.353-2.759 23.133-2.117 18.872 1.556 37.411 7.042 54.091 16.007-18.735-38.406-50.045-71.127-89.012-88.663-38.968-17.535-85.517-19.006-124.32-1.107-19.714 9.095-36.954 22.714-53.638 36.607-23.817 19.834-47.627 41.417-60.189 69.752-14.05 31.689-12.288 68.426-3.482 101.95s24.184 64.886 37.108 97.05c36.285 90.309 53.357 188.28 49.753 285.54-0.826 22.312-2.715 44.805 0.793 66.855 5.862 36.848 27.407 70.937 58.175 92.044 5.643 3.871 11.709 7.374 18.407 8.774 6.968 1.457 14.203 0.554 21.212-0.693 65.32-11.62 124.38-54.431 155.73-112.9 12.328-22.984 20.494-48.011 26.351-73.426 9.559-41.484 13-85.35 1.648-126.38-7.588-27.426-21.508-52.667-36.682-76.74-29.211-46.344-63.527-89.485-89.963-137.47-12.112-21.983-22.651-45.354-25.786-70.256s1.915-51.703 18.09-70.895c5.046-5.987 11.232-11.23 18.576-13.945" style="fill:#a96f36"/></g><g clip-path="url(#clipPath3922)" style="opacity:.2"><g clip-path="url(#clipPath3926)"><g mask="url(#mask3940)"><path d="m1115.4 1298.8c7.322-2.707 15.353-2.759 23.133-2.117 18.872 1.556 37.411 7.043 54.091 16.007-18.735-38.406-50.045-71.127-89.012-88.663-38.968-17.535-85.517-19.006-124.32-1.107-19.714 9.095-36.954 22.714-53.638 36.607-23.817 19.834-47.627 41.417-60.189 69.752-14.05 31.689-12.288 68.426-3.482 101.95s24.184 64.886 37.108 97.051c36.285 90.309 53.357 188.28 49.754 285.54-0.827 22.312-2.716 44.805 0.792 66.855 5.862 36.848 27.407 70.937 58.175 92.044 5.643 3.871 11.709 7.374 18.407 8.774 6.968 1.457 14.203 0.555 21.212-0.692 65.32-11.621 124.38-54.432 155.73-112.9 12.328-22.984 20.494-48.011 26.351-73.426 9.559-41.484 13-85.35 1.648-126.38-7.588-27.426-21.508-52.667-36.682-76.739-29.211-46.345-63.527-89.485-89.963-137.47-12.112-21.983-22.651-45.353-25.786-70.256-3.135-24.902 1.915-51.703 18.09-70.895 5.046-5.987 11.232-11.23 18.576-13.945" style="fill:url(#linearGradient3958)"/></g></g></g><g clip-path="url(#clipPath3984)" style="opacity:.2"><g transform="translate(883.35 1313.1)"><path d="m0 0c-28.643 34.046-31.384 83.708-20.514 126.85s33.419 82.256 51.283 123c22.009 50.205 37.14 104 38.624 158.8 0.977 36.079-3.936 72.393 0.848 108.17 2.637 19.722 8.224 39.046 16.518 57.132 14.807 32.291 42.802 62.823 78.309 63.947 26.903 0.851 51.165-15.226 72.444-31.711 16.983-13.157 33.522-27.102 47.328-43.562 29.409-35.062 45.17-80.879 45.556-126.64 0.509-60.348-22.539-111.56-55.074-161.33-29.026-44.403-62.222-87.121-79.725-137.2-17.502-50.077-16.157-110.91 19.266-150.4-14.497 4.572-25.944 16.169-33.512 29.351s-11.74 27.991-15.84 42.628c3.143-11.221-0.294-25.014 3.279-37.112 3.825-12.953 10.386-24.533 18.943-34.922 16.095-19.542 39.698-33.747 65.751-31.868-25.601-17.572-62.702-11.878-86.129 8.503-21.215 18.458-34.124 58.518-36.138 86.09-1.211 16.569 3.041 33.044 8.242 48.822 29.161 88.461 87.794 164.3 111.79 254.64-7.019-22.061-18.662-42.343-30.936-61.971-21.694-34.693-45.67-68.019-65.094-104.03-19.423-36.013-34.335-75.351-36.048-116.23-3.021 50.816 19.251 99.499 43.463 144.28 24.213 44.779 51.379 89.514 59.592 139.75-13.334-16.637-20.917-41.047-31.17-59.856-11.666-21.401-23.876-42.498-35.937-63.677-27.968-49.112-53.504-96.162-52.669-154.64 0.789-55.318 27.553-111.9 75.432-139.61-41.492 11.263-73.178 47.854-85.741 88.971-12.563 41.116-7.986 85.944 5.088 126.9 13.074 40.957 34.235 78.782 55.254 116.29-18.666-18.716-29.421-43.59-41.569-66.6-13.695-25.938-26.427-52.924-34.585-81.164-9.388-32.5-12.192-67.765-1.894-99.988 6.507-20.361 18.017-38.849 31.58-55.371 20.951-25.52 51.001-48.079 83.842-44.654-19.683 0.994-39.472-2.375-59.076-0.355-55.601 5.731-99.503 55.739-111.71 110.29-12.206 54.547 1.933 111.87 24.554 162.99 22.62 51.114 53.545 98.149 77.467 148.67 23.89 50.451 40.679 104.26 49.719 159.34 2.701 16.462 4.514 34.263-3.251 49.028 6.3-27.408 0.577-56.092-7.034-83.166-30.989-110.23-92.364-208.99-140.93-312.69-11.483-24.516-22.353-49.622-27.41-76.218s-3.933-55.069 7.814-79.46" style="fill:#231f20"/></g></g><g clip-path="url(#clipPath4000)" style="opacity:.3"><g transform="translate(1139.4 1566.7)"><path d="m0 0c-8.524-20.594-16.065-42.053-26.676-60.687-29.3-51.448-65.82-94.058-62.502-157.46-5.361 36.762-0.874 74.913 12.87 109.43-10.962-21.503-17.653-45.173-19.571-69.232-5.922 30.978-2.704 63.646 9.146 92.875-41.224-64.011-51.016-147.27-25.768-219.1-28.605 42.603-30.113 97.209-30.648 148.52-5.7-20.85-7.968-42.635-6.684-64.212-3.786 15.344-7.572 30.689-11.358 46.033-4.664-30.035-4.373-60.834 0.858-90.776-17.557 39.279-23.718 83.573-17.549 126.15-16.206-33.878-16.688-72.857-16.859-110.41-7.618 28.595-13.106 57.757-16.404 87.165-8.496-35.994-7.648-74.15 2.438-109.73-17.013 34.281-18.15 75.208-7.311 111.91 10.84 36.703 32.957 69.389 59.852 96.615-6.851-17.172-10.902-35.458-11.944-53.918 3.825 67.764 72.589 128.47 103.46 184.86 35.61 65.043 51.896 140.77 44.795 214.68 16.231-60.004 13.75-124.58-4.677-183.95 8.371 20.726 16.742 41.452 25.113 62.178-8.467-36.542-19.067-72.59-31.727-107.9 22.604 41.305 41.312 85.631 46.43 132.44 5.117 46.807-4.564 96.585-33.822 133.48 40.016-38.071 53.388-97.709 47.876-152.67s-27.452-106.74-49.132-157.54c17.428 38.213 34.857 76.427 52.285 114.64 19.757 43.319 39.716 93.131 20.937 136.88 21.01-50.516 11.496-108.84-7.982-159.97-10.635-27.917-24.098-54.598-37.089-81.461-2.963-6.126-5.708-12.447-8.359-18.852" style="fill:#fff"/></g></g><g transform="translate(572.57 1786.3)"><path d="m0 0c-8.969-15.004-9.09-33.53-8.265-50.991 1.865-39.509 7.236-78.852 16.031-117.42 3.448-15.118 7.435-30.803 4.001-45.924-2.522-11.108-8.902-21.051-11.39-32.166-4.195-18.741 3.12-37.997 11.146-55.445 19.751-42.936 47.021-81.745 74.123-120.46 56.682-80.978 114.58-25.619 146.72-9.378 151.6 76.616 156.18 153.79 151.6 153.84 74.73-56.048 164.41 206.76 31.065 112.18 14.673 14.115 46.156 99.554 33.183 157.18-9.447 41.961-34.717 79.644-68.401 106.39s-74.875 43.099-117.18 50.886c-18.096 3.331-36.58 5.157-54.918 3.642-18.136-1.498-35.866-6.239-53.096-12.096-33.867-11.511-66.581-27.656-93.596-51.102-27.083-23.504-51.55-50.829-60.514-85.55-0.113-0.436-0.175-1.002 0.208-1.24 0.382-0.238-0.265-2.313-0.714-2.346" style="fill:#ffbe87"/></g><g clip-path="url(#clipPath4020)" style="opacity:.2"><g transform="translate(1020.8 1777.7)"><path d="m0 0c-9.447 41.961-34.717 79.644-68.401 106.39s-74.875 43.099-117.18 50.885c-18.096 3.332-36.58 5.158-54.918 3.643-18.136-1.498-35.866-6.24-53.096-12.096-33.868-11.511-66.581-27.656-93.596-51.102-27.083-23.504-51.55-50.829-60.514-85.55-0.113-0.436-0.175-1.002 0.208-1.24 0.382-0.238-0.265-2.313-0.714-2.346-8.969-15.004-9.09-33.531-8.265-50.991 1.865-39.509 7.237-78.852 16.031-117.42 3.448-15.118 7.435-30.803 4.001-45.924-2.522-11.108-8.902-21.051-11.39-32.166-4.195-18.741 3.12-37.997 11.146-55.445 19.751-42.936 47.021-81.745 74.123-120.46 28.361-40.517 57.025-46.898 82.615-41.129-12.682 1.252-24.951 5.179-36.251 12.969-24.022 16.56-122.74 147.75-113.47 202.73 2.796 16.597 5.915 32.661 4.226 49.561-1.118 11.186-2.85 22.421-4.748 33.489-1.432 8.353-7.918 18.091-5.813 26.522 1.636 6.556 8.497 10.209 14.791 12.669 7.737 3.023 32.964 3.511 43.085 2.415-16.034 4.302-20.42 14.755-63.383-0.15-5.649 14.128-2.699 34.467 12.308 41.354 14.419 6.618 31.992 8.123 47.398 11.77 19.007 4.499 38.039 8.9 57.015 13.531 33.021 8.057 66.519 15.875 98.574 27.295 25.346 9.029 51.856 20.088 64.493 34.12 1.059 5.245 5.308 9.716 10.189 10.85 0.316 0.396 0.654 0.769 0.963 1.171 9.806 12.724 31.795 0.154 21.839-12.765-0.666-0.864-1.368-1.682-2.052-2.524 23.686-21.83 54.387-36.919 69.425-66.659 10.564-20.89 14.891-43.829 19.892-66.498 2.509-11.373 2.743-23.072 3.362-34.691 2.204-0.635 4.198-1.84 5.709-3.571 2.538 3.442 5.212 6.791 7.968 10.08-2.808-1.791-5.717-3.74-8.754-5.894 14.673 14.114 46.156 99.553 33.183 157.18" style="fill:#231f20"/></g></g><g transform="translate(1043 1585.6)"><path d="m0 0c2.54 7.369 3.1 15.411 1.605 23.061-0.384 1.967-1.086 4.144-2.892 5.012-0.966 0.464-2.087 0.459-3.156 0.378-9.237-0.697-17.439-6.244-24.064-12.72-20.728-20.262-32.251-41.667-37.309-68.977 9.484 51.214 55.416 46.42 51.08 47.178-11.589 2.027-22.805-0.183-31.803-5.739 3.868 2.389 53.436 72.688 46.539 11.807" style="fill:#c48a4a"/></g><g transform="translate(729.34 1400.1)"><path d="m0 0c-10.094-0.06-20.789 3.346-26.879 11.396-3.364 4.446-5.054 9.892-6.99 15.12-5.963 16.11-14.804 31.15-25.979 44.197 55.843 7.322 114.05-5.999 168.15 9.648-14.238-15.135-28.818-29.948-43.725-44.423-18.137-17.612-39.3-35.787-64.58-35.938" style="fill:#fff"/></g><g transform="translate(700.39 1386.4)"><path d="m0 0c-12.36 9.521-30.756 69.75-28.605 84.631 9.867-13.133 29.948-58.608 36.169-63.944 6.996-6.001 17.185-7.143 26.161-5.044 8.976 2.098 17.005 7.026 24.679 12.131 21.802 14.504 42.225 31.079 60.904 49.43 6.613 6.497 13.344 13.433 22.103 16.472-15.308-21.444-31.722-42.098-49.153-61.853-11.905-13.492-24.705-26.877-41.011-34.486-16.305-7.608-36.993-8.317-51.247 2.663" style="fill:#e6535f"/></g><g clip-path="url(#clipPath4048)" style="opacity:.3"><g transform="translate(790.08 1417.9)"><path d="m0 0c-18.174-15.664-40.396-40.051-66.591-35.593-10.643 1.811-11.222 13.127-5.761 19.762-3.58 0.945-6.941 2.542-9.769 4.967-6.22 5.336-26.301 50.811-36.168 63.945-2.152-14.882 16.244-75.111 28.604-84.632 14.255-10.98 34.942-10.271 51.248-2.663 16.305 7.609 29.105 20.994 41.01 34.486 2.918 3.307 5.765 6.676 8.625 10.032-3.646-3.533-7.358-6.994-11.198-10.304" style="fill:#231f20"/></g></g><g transform="translate(662.52 1471.4)"><path d="m0 0c6.277 9.375 18.865 11.776 30.119 12.584 49.355 3.541 101.93-5.618 151.38-3.861-40.674-8.576-85.671-12.147-127.22-13.488-18.258-0.59-36.983-1.114-54.279 4.765" style="fill:#d64552"/></g><g clip-path="url(#clipPath4068)" style="opacity:.3"><g transform="translate(748.11 1483.9)"><path d="m0 0c-18.715 0.959-37.312 1.381-55.471 0.078-11.254-0.807-23.842-3.208-30.119-12.584 17.296-5.879 36.021-5.355 54.279-4.765 7.58 0.245 15.298 0.596 23.061 1.006-25.027 6.572 0.865 14.388 8.25 16.265" style="fill:#231f20"/></g></g></g><g clip-path="url(#clipPath4084)"><g transform="translate(609.91 1581.7)"><path d="m0 0c19.792-16.055 53.603-5.406 76.34-16.918 1.246 63.106-60.572 90.087-88.187 64.305-9.127-8.521 1.418-38.927 11.847-47.387" style="fill:#fff"/></g><g transform="translate(719.88 1604.2)"><path d="m0 0c-0.945-22.68-24.796-39.856-52.311-39.856-27.516 0-49.821 18.402-49.821 41.101 0 22.7 23.551 48.575 51.066 48.575s52.312-19.928 51.066-49.82" style="fill:#76a635"/></g><g transform="translate(690.63 1604.1)"><path d="m0 0c-0.503-12.065-13.191-21.203-27.828-21.203-14.638 0-23.675 11.237-23.675 23.313 0 12.075 9.7 24.393 24.337 24.393 14.638 0 27.829-10.601 27.166-26.503"/></g><g clip-path="url(#clipPath4104)" style="opacity:.39999"><g transform="translate(690.63 1604.1)"><path d="m0 0c-0.503-12.065-13.191-21.203-27.828-21.203-14.638 0-23.675 11.237-23.675 23.313 0 12.075 9.7 24.393 24.337 24.393 14.638 0 27.829-10.601 27.166-26.503z" style="fill:none;stroke-width:14.386;stroke:#fff"/></g></g><g transform="translate(692.86 1604.9)"><path d="m0 0c-0.336-8.074-8.827-14.188-18.622-14.188-9.794 0-15.842 7.519-15.842 15.6 0 8.08 6.491 16.323 16.286 16.323 9.794 0 18.621-7.094 18.178-17.735" style="fill:#fff"/></g></g><g clip-path="url(#clipPath4124)"><g transform="translate(866.98 1572.2)"><path d="m0 0c-36.324-4.92-70.087-3.359-106.41-8.279 3.931 25.538 15.918 42.793 36.89 57.885 20.973 15.092 48.101 21.346 73.564 16.961 11.005-1.896 22.038-5.921 29.934-13.819 7.895-7.897 11.975-20.251 7.905-30.65-6.052-15.462-25.428-19.869-41.882-22.098" style="fill:#fff"/></g><g transform="translate(914.18 1604.2)"><path d="m0 0c-0.945-22.68-24.796-39.856-52.311-39.856s-49.821 18.402-49.821 41.101c0 22.7 23.551 48.575 51.066 48.575s52.312-19.928 51.066-49.82" style="fill:#76a635"/></g><g transform="translate(891.58 1606.4)"><path d="m0 0c-0.531-12.754-11.787-22.413-27.261-22.413-15.473 0-25.859 10.348-25.859 23.113 0 12.766 11.087 27.317 26.56 27.317s27.26-11.207 26.56-28.017"/></g><g clip-path="url(#clipPath4144)" style="opacity:.39999"><g transform="translate(891.58 1606.4)"><path d="m0 0c-0.531-12.754-11.787-22.413-27.261-22.413-15.473 0-25.859 10.348-25.859 23.113 0 12.766 11.087 27.317 26.56 27.317s27.26-11.207 26.56-28.017z" style="fill:none;stroke-width:14.386;stroke:#fff"/></g></g><g transform="translate(904 1606.7)"><path d="m0 0c-0.35-8.389-7.753-14.742-17.931-14.742-10.177 0-17.009 6.806-17.009 15.203 0 8.396 7.292 17.967 17.47 17.967 10.177 0 17.931-7.371 17.47-18.428" style="fill:#fff"/></g></g><g clip-path="url(#clipPath4164)"><g transform="translate(838.08 1634.9)"><path d="m0 0c16.144 1.577 29.601-1.959 44.645-7.026 36.853-12.411 54.531-4.651 63.282 1.945-12.144-0.335-24.328 0.776-36.21 3.304-5.661 1.204-44.191 20.535-78.235 14.723-58.275-9.95-70.697-83.126-66.427-84.695 4.691 39.848 31.482 67.698 72.945 71.749" style="fill:#3c2415"/></g><g transform="translate(636.75 1637.7)"><path d="m0 0c-10.995 2.193-20.164-0.829-30.413-5.322-25.108-11.004-37.146-2.569-43.103 4.362 8.272-0.799 16.571-0.153 24.666 1.921 3.856 0.988 30.109 18.848 53.296 11.736 39.689-12.174 48.117-85.825 45.207-87.231-3.177 40.028-21.412 68.901-49.653 74.534" style="fill:#3c2415"/></g><g clip-path="url(#clipPath4180)" style="opacity:.3"><g transform="translate(919.06 1594.7)"><path d="m0 0c-16.726-22.451-38.263-25.135-64.092-26.783-24.127-1.539-92.768-9.547-87.656-8.625 30.836 5.56 76.744 0.892 107.37 7.069 44.375 8.949 45.542 29.905 44.375 28.339" style="fill:#fff"/></g></g><g clip-path="url(#clipPath4196)" style="opacity:.3"><g transform="translate(688.3 1563.2)"><path d="m0 0c-9.69 6.373-20.686 8.247-32.179 7.892-20.024-0.619-37.807-1.809-54.808 10.556-1.741 1.266 14.654-16.612 27.747-17.26 18.01-0.891 60.482-2.005 59.24-1.188" style="fill:#fff"/></g></g><g transform="translate(773.54 1705)"><path d="m0 0c8e-3 -0.11 0.015-0.221 0.021-0.331 0.277-5.722 6.059-10.194 11.182-7.63 72.562 36.308 131.52 10.567 156.43-5.209-61.445 62.276-165.35 16.353-167.63 13.17" style="fill:#9c6939"/></g><g transform="translate(563.87 1704.3)"><path d="m0 0c0.201-2.153 0.372-4.306 0.521-6.461 23.504 11.54 57.487 17.753 96.606-6.091 3.956-2.412 8.42 2.231 8.634 7.962 5e-3 0.11 0.01 0.221 0.016 0.331-1.489 2.64-59.295 33.774-105.78 4.259" style="fill:#9c6939"/></g><g transform="translate(852.33 1996.5)"><path d="m0 0c285.68-49.059 262.17-295.29 167.11-373.29-21.294-17.473-45.471-34.056-56.304-59.381 3.062 7.159 18.551 126.66-11.97 190.58-39.625 82.998-203.48 105.41-253.73 94.225-26.143-5.821-53.223-12.315-79.396-6.629-26.173 5.687-46.489 28.094-42.291 54.547 11.804 74.391 197.17 113.58 276.58 99.941" style="fill:#a66d35"/></g><g transform="translate(895.01 1916.3)"><path d="m0 0c-0.433 0.573-0.856 1.166-1.363 1.69-22.489 23.24-180.76 19.481-239.6 1.144-66.923-20.857-108.03-74.43-149.54-139.26-14.232-22.228-16.802-53.103-4.276-76.335 6.483-12.024 59.629-53.771 75.502-65.596-1.781 5.188-8.011 51.647-6.898 54.577 1.149 3.445 26.624 14.261 31.591 16.64 18.954 9.076 40.227 14.89 59.965 22.118l121.64 44.545c31.933 11.694 64.884 24.013 89.275 47.71 19.136 18.592 43.686 66.315 23.7 92.762" style="fill:#b57a42"/></g><g clip-path="url(#clipPath4228)" style="opacity:.3"><g clip-path="url(#clipPath4232)"><g mask="url(#mask4246)"><path d="m895.01 1916.3c-0.433 0.573-0.856 1.166-1.363 1.69-22.489 23.24-180.76 19.481-239.6 1.144-66.923-20.857-108.03-74.43-149.54-139.26-14.232-22.228-16.802-53.103-4.276-76.335 6.483-12.024 59.629-53.771 75.502-65.596-1.781 5.188-8.011 51.647-6.898 54.577 1.149 3.445 26.624 14.261 31.591 16.64 18.954 9.076 40.227 14.89 59.965 22.118l121.64 44.545c31.933 11.694 64.884 24.013 89.275 47.71 19.136 18.592 43.686 66.315 23.7 92.762" style="fill:url(#linearGradient4264)"/></g></g></g><g clip-path="url(#clipPath4290)" style="opacity:.2"><g transform="translate(585.45 1796)"><path d="m0 0c-18.929-17.35-36.462-37.392-44.735-61.7-8.273-24.307-5.614-53.63 12.013-72.302-10.023 18.25-9.973 40.888-3.215 60.582 6.757 19.694 19.642 36.762 34.194 51.653 50.659 51.843 120.66 79.126 188.39 104.95-64.845-27.491-130.73-57.956-179.02-109.22 54.579 43.426 118.19 75.44 185.59 93.399-80.501-34.947-164.86-73.238-215.95-144.59 79.556 78.51 196.8 103.79 290.02 165.46-83.191-66.845-181.4-111.78-273.06-166.44-9.299-5.547-18.9-11.556-24.441-20.858-5.54-9.303-5.48-22.883 3.04-29.565-4.619 8.621-1.644 19.744 4.639 27.24s15.253 12.132 24.042 16.425c82.564 40.328 171.25 67.617 251.95 111.56 22.517 12.261 45.294 26.743 57.828 49.109 3.077 5.49 5.512 11.585 5.299 17.876-0.335 9.883-7.103 18.421-14.74 24.704-26.156 21.517-62.971 24.048-96.73 21.312-75.705-6.135-152.18-36.4-214.12-80.3-31.175-22.095-58.371-51.511-71.347-87.451-4.293-11.892-6.994-24.719-4.896-37.187 3.675-21.841 20.983-38.456 37.34-53.389-16.361 17.784-19.927 44.479-15.101 68.158 6.776 33.244 26.125 61.351 52.035 82.755 24.273 20.051 57.407 40.874 87.905 48.721-27.722-18.882-71.179-43.874-94.861-67.626-23.683-23.752-27.602-46.652-36.98-78.855 31.289 89.604 124.94 119.38 158.52 132.05-38.426-14.496-73.51-38.876-103.61-66.463" style="fill:#231f20"/></g></g><g clip-path="url(#clipPath4306)" style="opacity:.2"><g transform="translate(1025 1627.3)"><path d="m0 0c-24.208 15.623-44.077 37.901-56.853 63.724-1.79-5.239-3.232-10.344 0.265-23.363 6.42-23.893 29.598-41.915 54.141-43.316 0.799 0.992 1.621 1.975 2.447 2.955" style="fill:#231f20"/></g></g><g clip-path="url(#clipPath4322)" style="opacity:.2"><g transform="translate(998.44 1661.6)"><path d="m0 0c8.725-6.232 26.589-12.903 42.231-15.448 1.966 2.786 3.813 5.654 5.577 8.575-27.79 16.588-65.311 40.62-83.237 65.701 0.396-1.932 7.344-23.061 5.742-27.791 8.78-11.437 17.99-22.682 29.687-31.037" style="fill:#231f20"/></g></g><g clip-path="url(#clipPath4338)" style="opacity:.2"><g transform="translate(1064.1 1690.6)"><path d="m0 0c-30.997 20.715-74.832 42.294-102.72 58.406 30.577-4.019 77.867-22.014 109.48-40.828 0.681 1.976 1.335 3.959 1.963 5.949-30.398 30.448-82.712 57.602-119.76 64.68 36.245 3.866 86.864-16.798 126.4-37.435 1.211 7.213 1.971 14.515 2.223 21.9-23.119 23.213-54.339 44.029-77.369 54.567-35.561 16.27-77.382 18.352-114.38 5.695 35.264-24.553 62.991-58.731 73.081-99.955 21.344-19.428 65.708-34.81 97.318-41.558 1.298 2.843 2.552 5.704 3.768 8.579" style="fill:#231f20"/></g></g><g clip-path="url(#clipPath4354)" style="opacity:.3"><g transform="translate(511.92 1773.9)"><path d="m0 0c9.836 17.603 22.841 33.428 38.203 46.491-8.82-12.005-16.274-25.012-22.171-38.691 7.838 9.622 15.677 19.244 23.515 28.866-10.918-16.032-19.711-33.509-26.075-51.832 22.385 41.331 59.043 74.755 102.26 93.237-34.656-19.698-63.329-49.769-81.356-85.324 15.563 21.377 35.177 39.793 57.49 53.981-19.743-15.304-36.012-35.065-47.241-57.38 25.824 31.932 59.734 57.272 97.674 72.989-28.257-17.59-53.546-39.934-74.484-65.809 13.836 12.482 29.206 23.263 45.653 32.022-9.613-8.343-19.226-16.686-28.84-25.029 1.697 0.948 3.634-1.52 3.022-3.366-0.612-1.845-2.528-2.872-4.278-3.718 31.955 22.947 65.846 43.197 101.19 60.466-28.685-22.062-58.042-43.25-88.017-63.525 24.31 14.776 49.878 27.48 76.337 37.929-18.638-9.952-36.33-21.674-52.761-34.957 16.36 7.916 32.721 15.832 49.081 23.748l-36.985-25.497c39.22 16.565 78.188 33.728 116.89 51.479-46.302-34.623-97.828-62.245-152.29-81.64 15.286 4.742 29.794 11.984 42.773 21.35-24.264-8.164-48.044-17.765-71.174-28.736 9.615 6.719 19.229 13.439 28.844 20.159-20.229-9.879-39.542-21.63-57.615-35.053 9.061 12.297 18.121 24.593 27.181 36.889-12.344-11.781-24.689-23.561-37.033-35.342 2.938 7.787 12.48 21.585 9.969 29.808-6.178-4.132-15.508-16.38-15.096-24.576-0.452 8.99 0.323 18.04 2.297 26.822-9.552-22.039-8.213-48.5 3.515-69.462-4.927 6.949-9.855 13.898-14.782 20.847-2.391 3.373-4.798 6.772-6.497 10.541-1.911 4.242-2.877 8.852-3.465 13.468-1.107 8.69 0.319 17.216-0.102 25.764-5.845-5.902-11.985-23.29-8.382-31.704-3.497 8.166-5.725 16.876-6.578 25.719-2.803-10.518-4.637-21.294-5.471-32.147-0.283 32.68-1.14 32.684 14.802 61.213" style="fill:#fff"/></g></g><g clip-path="url(#clipPath4370)" style="opacity:.5"><g transform="translate(1009.3 1613.4)"><path d="m0 0c-9.552 8.182-17.586 18.265-23.283 29.608l-1.16 2.308 2.289-1.253c11.556-6.328 24.791-9.432 37.829-8.939l-0.723-2.808c-7.365 4.099-14.356 8.91-20.787 14.401-6.415 5.507-12.302 11.643-17.537 18.308l-6.566 8.36 9.372-5.114c14.47-7.895 30.57-12.731 46.919-14.124l-1.545-5.119c-8.774 4.566-17.227 9.764-25.275 15.537-8.058 5.762-15.693 12.127-22.803 19.042l-7.941 7.723 10.893-2.171 52.443-10.451-2.636-6.509-56 35.504-16.594 10.522 19.304-3.711 66.225-12.729-2.574-6.898-66.888 38.881 11.51 0.849c20.212 1.491 40.684-1.31 59.712-8.149l-2.606-0.193c-0.168-0.059-0.405-0.282-0.63-0.661-0.188-0.378-0.191-0.729-0.18-0.818 0.045-0.216-0.01 0.097-0.212 0.371-0.193 0.291-0.482 0.614-0.766 0.852-0.155 0.125-0.249 0.197-0.417 0.303l-0.881 0.527c-2.389 1.448-4.575 2.722-6.979 3.986-4.728 2.525-9.608 4.805-14.587 6.9-9.966 4.186-20.285 7.685-30.655 11.181l-15.231 5.136 16.018-0.075c17.844-0.084 35.662-1.777 53.17-5.046l-1.667-3.534c-2.927 2.56-6.006 4.951-9.215 7.159-3.193 2.231-6.517 4.282-9.95 6.14-6.867 3.714-14.171 6.657-21.731 8.72l-4.353 1.189 4.28 1.255c2.583 0.758 5.185 1.437 7.805 2.038 2.627 0.571 5.267 1.063 7.92 1.478 2.657 0.384 5.321 0.69 7.992 0.918 2.674 0.198 5.35 0.318 8.028 0.361 2.678 9e-3 5.353-0.046 8.023-0.204 2.668-0.189 5.326-0.456 7.975-0.8 2.644-0.374 5.273-0.826 7.886-1.354 2.608-0.559 5.193-1.195 7.758-1.907-2.596 0.591-5.205 1.103-7.826 1.537-2.627 0.404-5.261 0.729-7.902 0.977-2.645 0.217-5.291 0.357-7.938 0.421-2.649 0.033-5.294 0.016-7.937-0.092-2.642-0.135-5.276-0.346-7.902-0.633-2.623-0.317-5.232-0.711-7.829-1.179-2.591-0.499-5.163-1.073-7.716-1.722-2.546-0.679-5.068-1.433-7.565-2.262l-0.073 2.444c7.82-1.843 15.437-4.601 22.659-8.186 3.611-1.793 7.124-3.793 10.514-5.99 3.376-2.219 6.627-4.633 9.729-7.23l5.663-4.74-7.329 1.207c-17.333 2.853-34.908 4.141-52.438 3.847l0.787 5.061c10.446-3.276 20.958-6.585 31.277-10.66 5.156-2.041 10.256-4.289 15.241-6.816 2.468-1.231 5.051-2.65 7.361-4.007l0.887-0.517c0.419-0.246 0.883-0.572 1.258-0.881 0.767-0.637 1.413-1.332 1.993-2.169 0.557-0.856 1.13-1.809 1.325-3.391 0.091-0.764 1e-3 -1.828-0.52-2.805-0.51-1.016-1.335-1.653-2.074-2.073l-1.199-0.682-1.407 0.489c-18.233 6.329-37.796 8.776-56.981 7.147l1.508 6.663 57.042-32.797 19.32-11.108-88.117 16.943 2.71 6.81 55.827-35.775 16.423-10.524-71.384 15.04 2.952 5.553c6.835-6.746 14.123-13.043 21.808-18.824 7.694-5.771 15.803-11 24.25-15.627l11.984-6.565-13.529 1.445c-17.075 1.824-33.705 7.224-48.537 15.73l2.807 3.246c4.917-6.544 10.49-12.609 16.601-18.085 3.059-2.733 6.216-5.366 9.517-7.815 3.295-2.454 6.714-4.75 10.24-6.873l4.641-2.793-5.365-0.015c-13.6-0.038-27.106 3.666-38.691 10.544l1.129 1.055c2.617-5.664 5.811-11.064 9.446-16.164 3.648-5.09 7.797-9.84 12.381-14.149" style="fill:#fff"/></g></g><g transform="translate(660.89 1861.5)"><path d="m0 0c-33.094-0.522-66.187-1.045-99.281-1.567 7.146 190.45 138.46 229.61 189.43 240.02 50.975 10.409 105.16 12.373 155.79 0.019 187.59-45.772 177.23-237.17 175.22-288.22-33.419 7.008-94.138 10.156-127.56 17.165-68.098 14.28-136.62 28.617-206.46 32.064-29.012 1.432-58.094 0.974-87.145 0.515" style="fill:#27aae1"/></g><g clip-path="url(#clipPath4390)" style="opacity:.3"><g transform="translate(925.39 1871.3)"><path d="m0 0c0.958-0.187 155.74-59.314 156.66-59.506 1.954 49.599 11.764 231.66-159.72 283.95 134.99-50.78 234.47-305.38 3.055-224.45" style="fill:#fff"/></g></g><g clip-path="url(#clipPath4406)" style="opacity:.2"><g transform="translate(1043.2 1834.5)"><path d="m0 0c-46.635 22.407-96.339 36.736-144.65 54.849-28.599 9.648-62.99 8.12-86.284 27.334-63.45 52.337 62.975 165.9 117.65 170.19 4.724 0.371 9.49 0.731 14.285 1.068-11.487 4.671-23.881 8.721-37.325 12.002-50.634 12.354-104.81 10.39-155.79-0.02-50.975-10.409-182.29-49.575-189.43-240.02l99.28 1.567c29.051 0.458 58.134 0.916 87.145-0.515 69.84-3.447 138.36-17.784 206.46-32.064 33.42-7.009 94.138-10.157 127.56-17.166 0.039 0.995 0.082 2.062 0.126 3.162-12.93 6.69-25.898 13.313-39.021 19.618" style="fill:#231f20"/></g></g><g clip-path="url(#clipPath4422)" style="opacity:.39999"><g transform="translate(1081.4 1815.4)"><path d="m0 0c-287.09 129.63-480.86 44.001-500.64 38.205-0.195-0.057-0.356-0.119-0.535-0.216-3.159-1.719-21.418-12.852-42.668-25.959-0.706-2.988-2.648-5.579-6.095-6.918-5.459-7.446-10.417-15.229-15.429-22.978 89.303 19.713 300.73 44.192 434.62-38.185 6.424-3.952 14.468-4.419 21.449-1.111l106.33 50.37c2.3 1.089 5.241 5.768 2.972 6.792" style="fill:#231f20"/></g></g><g transform="translate(580.27 1871.8)"><path d="m0 0c-5.66-2.914-59.763-34.604-92.757-54.394-1.474-0.884-1.89-2.843-0.879-4.233 0.011-0.015 0.022-0.031 0.033-0.046 0.728-1.006 1.977-1.468 3.177-1.149 64.572 17.173 311.3 51.46 461.06-44.973 6.427-4.139 14.475-4.839 21.461-1.734l106.39 47.283c2.301 1.022 5.243 5.615 2.974 6.706-287.25 137.97-481.13 57.963-500.92 52.741-0.195-0.052-0.356-0.109-0.535-0.201" style="fill:#27aae1"/></g><g transform="translate(963.18 1773)"><path d="m0 0 115.43 44.756c-291.84 142.49-471.97 63.921-490.32 59.36-4.556-2.178-72.259-43.742-102.58-61.757-0.487-0.289-0.164-1.028 0.379-0.871 32.849 9.484 281.25 76.515 477.09-41.488" style="fill:#178dbf"/></g><g clip-path="url(#clipPath4446)" style="opacity:.2"><g transform="translate(709.99 1841.8)"><path d="m0 0 81.093 59.354c-120.21 9.109-191.59-21.203-202.78-23.985-4.556-2.178-72.259-43.742-102.58-61.757-0.487-0.289-0.164-1.028 0.379-0.871 20.301 5.861 102.22 34.7 223.89 27.259" style="fill:#231f20"/></g></g><g clip-path="url(#clipPath4462)" style="opacity:.2"><g transform="translate(849.63 1893.9)"><path d="m0 0c-8.908 1.501-17.617 2.792-26.111 3.879-19.966-19.965-57.316-36.903-77.281-56.869 8.732-0.994 24.879-3.647 33.721-5.058z" style="fill:#231f20"/></g></g><g transform="translate(669.79 1684)"><path d="m0 0c-0.12 0.127 13.249-16.884 22.776-54.991 8.406-26.34 12.346-51.951 12.329-51.558-1.388 32.556-10.648 80.699-35.105 106.55" style="fill:#c48a4a"/></g><g transform="translate(748.78 1524)"><path d="m0 0c-14.395-2.554-55.226-6.265-66.645 7.559-1.203-3.005 17.646 24.541 21.15 32.108-5.039-6.979-24.101-28.667-27.762-32.108 17.23-22.238 48.484-25.444 72.879-8.302-0.645-0.453-0.531 0.069 0.378 0.743" style="fill:#c48a4a"/></g><g clip-path="url(#clipPath4486)" style="opacity:.3"><g transform="translate(678.8 1531.5)"><path d="m0 0c2.731 6.588 5.63 10.877 10.28 16.126 11.163 12.601 13.771 15.006 13.325 31.928-0.912 34.627-15.474 82.148-36.251 108.75-1.292 1.655-38.359 21.281-24.448 7.588 21.803-21.463 50.583-80.09 51.426-120.56 0.281-13.484-20.258-37.042-25.543-49.791-0.129-0.219-0.083-0.39 0.137-0.514 3.171-2.409 11.706-21.775 49.011-13.766 0.591 0.127-42.005 10.419-37.937 20.233" style="fill:#231f20"/></g></g><g clip-path="url(#clipPath4502)" style="opacity:.3"><g transform="translate(778.4 1693.9)"><path d="m0 0c-0.314-0.607-20.441-66.754-26.606-89.777 2.076 7.752 9.986 19.669 14.657 26.341 6.273 8.961 15.581 15.727 25.628 19.879 14.867 6.143 31.355 7.139 47.432 6.58 20.583-0.716 41.081-3.855 60.935-9.332-14.167 10.591-31.783 15.8-49.384 17.547-17.601 1.746-35.348 0.228-52.951-1.493-0.958-0.094-2.014-0.163-2.791 0.405-1.981 1.447 0.02 4.485 1.967 5.975 14.349 10.984 27.093 22.918 43.711 30.632 13.416 6.227 37.829 15.359 52.802 10.702-56.514 17.462-114.39-16.893-115.4-17.459" style="fill:#231f20"/></g></g><g clip-path="url(#clipPath4518)" style="opacity:.3"><g transform="translate(743.08 1536.1)"><path d="m0 0c-1.441-0.58-22.585 24.956-30.989 21.077-16.44-7.588-16.929-16.957-25.171-23.473 25.171-11.092 48.145-3.318 56.16 2.396" style="fill:#fff"/></g></g><g transform="translate(294.18 1003)"><path d="m0 0c0.096 0.131 0.191 0.263 0.287 0.394 0.691 0.95 1.488 1.967 2.7 2.183 3.045 0.543 6.9-6.562 6.457-9.463-3.557-23.292-28.833-39.017-28.041-62.41-7.237 2.027-17.718 4.864-28.265 15.146-2.111 2.058-1.965 4.376-3.649 6.459-1.691 2.093-4.345 2.984-5.665 5.74-3.446 7.198-6.953 14.524-10.524 21.982-5.37 11.217-7.165 18.538-3.373 30.153 6.495 19.896 10.704 40.846 12.545 62.681 0.272 3.231 1.098 7.108 4.544 7.403 3.335 0.286 6.469-3.116 8.178-6.189 7.082-12.739 4.781-26.397 2.294-38.688-1.414-6.985-4.566-23.365-4.581-29.689 13.07 18.19 24.706 34.937 33.385 50.48 1.122 2.008 4.089 1.971 5.842-0.022 2.998-3.406 5.502-8.306 5.579-11.365 0.11-4.36-1.588-8.308-3.258-12.118 1.763 1.072 5.041 2.671 8.689-1.377 4.369-10.7-2.539-22.009-6.861-31.799-2.612-5.916-5.136-9.334-7.753-15.26 3.84 5.276 7.663 10.529 11.47 15.759" style="fill:#ffbe87"/></g><g clip-path="url(#clipPath4538)" style="opacity:.39999"><g transform="translate(258.32 955)"><path d="m0 0c11.072 16.23 23.683 33.951 36.395 48.396-10.521-16.872-23.202-35.439-36.761-51.06-0.037 0.862-0.074 1.726-0.112 2.59" style="fill:#231f20"/></g></g><g clip-path="url(#clipPath4554)" style="opacity:.39999"><g transform="translate(274.26 1013.9)"><path d="m 0,0 c -9.25,-12.599 -31.732,-43.189 -34.556,-44.813 7.682,12.77 32.101,49.639 50.823,71.624 C 12.479,17.022 6.233,8.49 0,0" style="fill:#231f20"/></g></g><g clip-path="url(#clipPath4570)" style="opacity:.39999"><g transform="translate(250.86 1072.9)"><path d="m0 0c2.15-5.879 1.413-11.774 0.562-17.358-3.376-22.154-8.156-43.718-16.214-63.912 2.031 4.056 5.782 7.19 7.87 11.198 1.504 2.885 4.17 7.228 4.756 10.438 2.54 13.914 3.025 26.919 5.609 41.119 0.999 5.494-0.83 12.612-2.583 18.515" style="fill:#231f20"/></g></g><g transform="translate(972.17 796.38)"><path d="m0 0-300.97 1e-3c0 24.065-0.489 175.12 1.265 175.77 50.582 18.968 285.91 60.101 311.08 61.963 26.407 1.955 142.84-0.306 173.99-5.034-15.881 1.746-134.64-54.001-184.11-64.517-1.558-55.058-1.265-116.38-1.265-168.19" style="fill:#e6b18a"/></g><g clip-path="url(#clipPath4590)" style="opacity:.3"><g transform="translate(675.43 971.7)"><path d="m0 0c18 2.447 35.108 8.222 52.727 12.383 18.501 4.368 37.55 6.439 56.332 9.295 38.066 5.79 76.051 11.602 113.77 19.412 34.824 7.211 69.562 15.071 104.46 21.949-8.24-0.103-14.893-0.307-19.165-0.624-25.172-1.862-260.5-42.995-311.08-61.963-0.091-0.035-0.176-0.498-0.256-1.308 0.953 0.392 2.013 0.692 3.217 0.856" style="fill:#231f20"/></g></g><g transform="translate(1152.6 1030.1)"><path d="m0 0-184.2-63.018 3.372-173.24 180.83 70.503z" style="fill:#d6996c"/></g><g clip-path="url(#clipPath4610)" style="opacity:.3"><g transform="translate(1010.1 955.25)"><path d="m0 0c14.205 9.74 30.639 14.93 46.406 21.499 18.093 7.538 36.695 13.934 55.325 20.018 13.54 4.422 27.149 8.618 40.803 12.661v20.683l-184.2-63.018 3.794-172.82 30.349 11.616v133.39c0 2.755 0.734 5.033 1.934 6.858 0.365 3.39 2.066 6.7 5.594 9.119" style="fill:#231f20"/></g></g><g transform="translate(972.17 793.85)"><path d="m0 0-300.97 5.058v171.98l300.97-2.529z" style="fill:#eda977"/></g><g clip-path="url(#clipPath4630)" style="opacity:.3"><g transform="translate(701.56 810.29)"><path d="m0 0c-5.775-4e-3 -9.495 3.169-11.18 7.264-1.667 1.967-2.726 4.596-2.73 7.911-0.049 40.048-1.216 80.085-1.265 120.13-3e-3 2.397 0.552 4.433 1.483 6.125 2e-3 4.949 268.74 14.547 286 15.794l-302.65 3.372v-171.98l300.97-5.058v21.078c-90.198-0.868-180.42-4.569-270.62-4.639" style="fill:#231f20"/></g></g><g transform="translate(1101.7 1085.2)"><path d="m0 0c-22.271-8.16-45.017-15.134-67.973-21.282 0.336-0.399 0.618-0.782 0.809-1.14 2.812-5.257-2.857-144.11-10.96-154.28-5.915-7.423-31.192-14.331-44.125-45.277-5.476-13.104-14.104-24.656-21.156-36.984-0.548-0.958-1.115-2-1.001-3.099 0.334-3.196 20.758-13.697 42.834 30.741 1.036 2.086 2.619 4.513 4.94 4.33 2.744-0.217 3.631-3.784 3.616-6.536-0.136-23.968-15.548-54.304-40.748-58.672 21.514 0.496 44.479 5.418 65.812 2.589 16.147 52.219 91.703 251.36 73.819 283.05-0.768 1.361-2.835 3.623-5.867 6.553" style="fill:#ffbe87"/></g><g clip-path="url(#clipPath4650)" style="opacity:.3"><g transform="translate(1092.4 977.57)"><path d="m0 0c0.236 0.961 0.476 1.922 0.722 2.881 2.737 10.664 8.038 21.245 9.31 32.081 1.405 11.973 5.271 23.636 6.769 35.682 1.102 8.86 3.994 21.256-1.086 28.897-6.985 10.507-21.461 21.268-31.825 28.242 5.138-5.49 23.525-27.177 28.664-32.668 3.082-3.297-0.405-17.191-0.843-20.992-1.544-13.416-3.55-26.782-5.652-40.12-5.018-31.834-14.668-63.314-24.914-93.819-1.076-3.204-2.172-6.401-3.287-9.592 6.822 17.629 13.661 35.308 18.348 53.621 1.342 5.243 2.505 10.531 3.794 15.787" style="fill:#fff"/></g></g><g clip-path="url(#clipPath4666)" style="opacity:.3"><g transform="translate(1037.5 992.08)"><path d="m0 0c1.888 24.029 4.509 48.951-2.197 72.279-0.522-0.143-1.042-0.295-1.565-0.435 0.335-0.399 0.617-0.782 0.809-1.14 2.812-5.257-2.858-144.11-10.96-154.28-5.916-7.423-31.193-14.332-44.125-45.277-5.477-13.105-14.104-24.656-21.156-36.984-0.549-0.959-1.116-2-1.001-3.099 0.167-1.6 1.443-2.363 3.044-2.563 10.217 11.547 16.145 25.882 23.714 39.521 9.032 16.276 19.88 28.551 35.115 39.235 3.644 2.556 6.706 5.607 9.332 8.994 3.904 27.819 6.787 55.706 8.99 83.746" style="fill:#231f20"/></g></g><g clip-path="url(#clipPath4682)" style="opacity:.3"><g transform="translate(986.83 793.85)"><path d="m0 0c7.569 8.406 13.225 17.043 17.364 26.857 1.799 4.267 3.316 8.755 4.586 13.543 1.121 4.221 1.968 8.571 1.731 12.932-0.237 4.362-1.642 8.769-4.565 12.013 7.319-11.747-0.599-31.873-6.518-42.798-5.101-9.415-17.87-18.977-27.671-23.39z" style="fill:#231f20"/></g></g><g clip-path="url(#clipPath4698)" style="opacity:.3"><g transform="translate(1029.9 796)"><path d="M 0,0 C 1.304,-0.104 2.606,-0.232 3.904,-0.404 9.392,17.343 21.744,52.076 34.955,91.421 27.571,77.57 5.334,16.204 0,0" style="fill:#231f20"/></g></g></g></g></g></svg>
