<?xml version="1.0" encoding="UTF-8"?>
<svg width="443.45mm" height="729.46mm" version="1.1" viewBox="0 0 443.45 729.46" xmlns="http://www.w3.org/2000/svg"><defs><clipPath id="clipPath831"><path d="m0 2201.9h1637.5v-2201.9h-1637.5z"/></clipPath><clipPath id="clipPath843"><path d="m411.36 715.19h241.16v-172.82h-241.16z"/></clipPath><clipPath id="clipPath863"><path d="m856.86 686.03h271.81v-225.82h-271.81z"/></clipPath><clipPath id="clipPath879"><path d="m946.17 649.72h80.646v-57.278h-80.646z"/></clipPath><clipPath id="clipPath907"><path d="m920.62 125.27h124.06v-60.369h-124.06z"/></clipPath><clipPath id="clipPath923"><path d="m605.29 155.58h143.24v-74.041h-143.24z"/></clipPath><clipPath id="clipPath947"><path d="m537.31 290.62h201.63v-94.884h-201.63z"/></clipPath><clipPath id="clipPath963"><path d="m747.57 288.78h225.5v-99.212h-225.5z"/></clipPath><clipPath id="clipPath995"><path d="m479.37 711.96h288.27v-471.85h-288.27z"/></clipPath><clipPath id="clipPath1011"><path d="m456.54 697.82h585.9v-465.78h-585.9z"/></clipPath><clipPath id="clipPath1027"><path d="m599.08 546.57h342.06v-111.22h-342.06z"/></clipPath><clipPath id="clipPath1043"><path d="m388.68 571.19h152.4v-154.5h-152.4z"/></clipPath><clipPath id="clipPath1059"><path d="m594.17 198.83h119.24v-41.623h-119.24z"/></clipPath><clipPath id="clipPath1075"><path d="m601.43 171.36h113.71v-29.521h-113.71z"/></clipPath><clipPath id="clipPath1091"><path d="m874.32 147.36h98.752v-34.818h-98.752z"/></clipPath><clipPath id="clipPath1107"><path d="m682.52 159.9h69.178v-23.544h-69.178z"/></clipPath><clipPath id="clipPath1127"><path d="m883.92 571.3h225.75v-195.84h-225.75z"/></clipPath><clipPath id="clipPath1147"><path d="m976.95 575.27h72.609v-68.354h-72.609z"/></clipPath><clipPath id="clipPath1163"><path d="m922.44 152.91h68.975v-13.643h-68.975z"/></clipPath><clipPath id="clipPath1179"><path d="m865.67 166.79h100.36v-38.926h-100.36z"/></clipPath><clipPath id="clipPath1203"><path d="m789.44 457.16h124.45v-47.093h-124.45z"/></clipPath><clipPath id="clipPath1219"><path d="m897.06 482.4h83.561v-31.067h-83.561z"/></clipPath><clipPath id="clipPath1235"><path d="m628.53 458.17h137.52v-41.995h-137.52z"/></clipPath><clipPath id="clipPath1251"><path d="m724.55 507.23h103.66v-36.503h-103.66z"/></clipPath><clipPath id="clipPath1267"><path d="m563.55 504.68h134.41v-27.914h-134.41z"/></clipPath><clipPath id="clipPath1287"><path d="m626.36 457.78h138.7v-27.007h-138.7z"/></clipPath><clipPath id="clipPath1323"><path d="m772.16 468.08h129.37v-42.17h-129.37z"/></clipPath><clipPath id="clipPath1359"><path d="m870.88 499.81h103.72v-33.53h-103.72z"/></clipPath><clipPath id="clipPath1399"><path d="m551.72 525.01h143.67v-38.758h-143.67z"/></clipPath><clipPath id="clipPath1443"><path d="m701.92 516.84h126.15v-34.183h-126.15z"/></clipPath><clipPath id="clipPath1483"><path d="m443.4 584.16h182.37v-221.13h-182.37z"/></clipPath><clipPath id="clipPath1499"><path d="m398.42 569.48h157.64v-174.8h-157.64z"/></clipPath><clipPath id="clipPath1515"><path d="m622.3 709.66h311.84v-60.822h-311.84z"/></clipPath><clipPath id="clipPath1531"><path d="m455.77 680.3h112.1v-74.303h-112.1z"/></clipPath><clipPath id="clipPath1551"><path d="m281.77 2030.7h1108.1v-687.74h-1108.1z"/></clipPath><clipPath id="clipPath1567"><path d="m292.56 1940.1h976.55v-590.6h-976.55z"/></clipPath><clipPath id="clipPath1583"><path d="m300.82 1640.6h956.93v-290.33h-956.93z"/></clipPath><clipPath id="clipPath1603"><path d="m544.54 1791.3h214.27v-436.61h-214.27z"/></clipPath><clipPath id="clipPath1619"><path d="m986.39 1705.9h134.26v-397.27h-134.26z"/></clipPath><clipPath id="clipPath1635"><path d="m463.15 1791.4h701.34v-274.64h-701.34z"/></clipPath><clipPath id="clipPath1651"><path d="m330.09 2094.8h323.38v-265.57h-323.38z"/></clipPath><clipPath id="clipPath1667"><path d="m653.21 2064.5h267.25v-210.08h-267.25z"/></clipPath><clipPath id="clipPath1683"><path d="m1063.8 1946.2h160.61v-211.84h-160.61z"/></clipPath><clipPath id="clipPath1699"><path d="m1226.2 1653.3h187.79v-199.19h-187.79z"/></clipPath><clipPath id="clipPath1719"><path d="m639.16 667.67h222.5v-56.956h-222.5z"/></clipPath><clipPath id="clipPath1735"><path d="m834.45 686.04h12.32v-15.909h-12.32z"/></clipPath><clipPath id="clipPath1751"><path d="m876.11 1024.2h104.41v-137.77h-104.41z"/></clipPath><clipPath id="clipPath1767"><path d="m1035 1133.7h39.5v-41.62h-39.5z"/></clipPath><clipPath id="clipPath1787"><path d="m923.02 1341.1h25.951v-35.81h-25.951z"/></clipPath><clipPath id="clipPath1803"><path d="m885.12 1430h9.798v-31.56h-9.798z"/></clipPath><clipPath id="clipPath1819"><path d="m1146.8 857.86h0.24v-0.248h-0.24z"/></clipPath><clipPath id="clipPath1835"><path d="m1084.3 956.8h0.24v-0.249h-0.24z"/></clipPath><clipPath id="clipPath1851"><path d="m536.33 1078.6h98.997v-121.65h-98.997z"/></clipPath><clipPath id="clipPath1867"><path d="m570.89 1075.6h94.356v-95.77h-94.356z"/></clipPath><clipPath id="clipPath1891"><path d="m414.85 1289.8h392.95v-611.1h-392.95z"/></clipPath><clipPath id="clipPath1907"><path d="m861.96 1484.6h279.72v-809.9h-279.72z"/></clipPath><clipPath id="clipPath1923"><path d="m521.81 1125.4h220.27v-206.81h-220.27z"/></clipPath><clipPath id="clipPath1939"><path d="m658.39 878.85h18.538v-27.564h-18.538z"/></clipPath><clipPath id="clipPath1955"><path d="m877.31 832.2h25.652v-32.104h-25.652z"/></clipPath><clipPath id="clipPath1971"><path d="m777.52 853.01h23.512v-28.14h-23.512z"/></clipPath><clipPath id="clipPath1987"><path d="m715.72 964.61h24.794v-37.412h-24.794z"/></clipPath><clipPath id="clipPath2003"><path d="m848.67 953.34h20.8v-35.333h-20.8z"/></clipPath><clipPath id="clipPath2023"><path d="m536.3 1200.1h136.61v-71.31h-136.61z"/></clipPath><clipPath id="clipPath2043"><path d="m921.02 1162.5h131.65v-60.74h-131.65z"/></clipPath><clipPath id="clipPath2063"><path d="m189.54 1026.9h196.11v-305.58h-196.11z"/></clipPath><clipPath id="clipPath2079"><path d="m254.34 1026h131.31v-304.76h-131.31z"/></clipPath><clipPath id="clipPath2095"><path d="m195.12 1094.2h139.81v-100.06h-139.81z"/></clipPath><clipPath id="clipPath2119"><path d="m1158.2 920.35h172.31v-299.42h-172.31z"/></clipPath><clipPath id="clipPath2135"><path d="m1158.9 899.86h171.57v-278.94h-171.57z"/></clipPath><clipPath id="clipPath2151"><path d="m1213.8 989.57h87.85v-97.843h-87.85z"/></clipPath><clipPath id="clipPath2179"><path d="m338.44 1087h27.666v-37.2h-27.666z"/></clipPath><clipPath id="clipPath2195"><path d="m343.56 1071.6h29.942v-53.91h-29.942z"/></clipPath><clipPath id="clipPath2215"><path d="m378.96 1195.1h105.55v-165.55h-105.55z"/></clipPath><clipPath id="clipPath2231"><path d="m358.99 1534.8h593.92v-329.91h-593.92z"/></clipPath><clipPath id="clipPath2247"><path d="m840.05 1512.8h88.646v-281.33h-88.646z"/></clipPath><clipPath id="clipPath2263"><path d="m833.5 1531.1h56.417v-262.06h-56.417z"/></clipPath><clipPath id="clipPath2279"><path d="m991.3 1499.6h242.45v-569.65h-242.45z"/></clipPath><clipPath id="clipPath2295"><path d="m411.99 1505.9h325.63v-200.6h-325.63z"/></clipPath><clipPath id="clipPath2315"><path d="m910.66 1484.3h216.88v-253.46h-216.88z"/></clipPath><clipPath id="clipPath2347"><path d="m350.82 1041.3h76.156v-128.88h-76.156z"/></clipPath><clipPath id="clipPath2371"><path d="m672.7 858.39h202.33v-133.72h-202.33z"/></clipPath><clipPath id="clipPath2387"><path d="m676.68 853.92h198.36v-129.25h-198.36z"/></clipPath><clipPath id="clipPath2411"><path d="m731.4 763.72h82.9v-23.283h-82.9z"/></clipPath><clipPath id="clipPath2435"><path d="m732.43 818.31h42.957v-44.558h-42.957z"/></clipPath><clipPath id="clipPath2451"><path d="m786.58 803.62h47.37v-33.421h-47.37z"/></clipPath><clipPath id="clipPath2467"><path d="m755.29 821.24h17.241v-8.341h-17.241z"/></clipPath><clipPath id="clipPath2483"><path d="m775.52 817.21h8.047v-7.115h-8.047z"/></clipPath><clipPath id="clipPath2503"><path d="m917.8 999.66h149.94v-123.54h-149.94z"/></clipPath><clipPath id="clipPath2539"><path d="m893.89 1022.8h96.75v-96.858h-96.75z"/></clipPath><clipPath id="clipPath2567"><path d="m608 1044.2h116.98v-114.68h-116.98z"/></clipPath><clipPath id="clipPath2595"><path d="m560.89 1077.5h96.75v-96.866h-96.75z"/></clipPath><clipPath id="clipPath2623"><path d="m1138.4 939.44h42.96v-87.881h-42.96z"/></clipPath></defs><g transform="translate(139.33 257.47)"><g transform="matrix(.35278 0 0 -.35278 -202.73 494.88)"><g clip-path="url(#clipPath831)"><g transform="translate(411.36 542.37)"><path d="m0 0s26.362 98.612 106.42 132.78c80.061 34.173 134.74 40.031 134.74 40.031l-14.646-39.054-112.28-132.79z" style="fill:#d1e7ff"/></g><g clip-path="url(#clipPath843)" style="opacity:.10001"><g transform="translate(622.3 709.65)"><path d="m0 0c13.323-30.652-55.081-48.989-64.186-70.862-1.202-2.887-5.356-4.332-7.541-1.487-3.073 4.002-14.055 9.367-5.739-2.885 2.782-4.097-1.267-9.16-5.794-6.597-1.656 0.936-3.395 1.592-5.163 2.157 1.673-4.826 4.227-9.308 6.64-13.948 2.288-4.399-4.33-8.825-7.34-4.82-4.493 5.978-9.955 9.486-16.268 10.182 7.4-5.742 12.696-13.391 11.606-23.738-0.191-1.812-1.615-3.884-3.598-4.045-36.816-2.986-71.972-0.371-102.32-21.131-7.905-17.621-11.246-30.107-11.246-30.107l114.24 0.976 112.28 132.79 14.645 39.054s-10.964-1.182-30.218-5.535"/></g></g><g transform="translate(872.2 695.66)"><path d="m0 0s31.243 0 82.991-31.243c51.747-31.244 139.62-90.802 153.29-105.45 13.669-14.645 24.409-30.267 18.55-53.7-5.858-23.432-13.668-41.007-33.196-44.912-19.527-3.906-187.46 75.18-187.46 75.18l-49.795 151.34z" style="fill:#d1e7ff"/></g><g clip-path="url(#clipPath863)" style="opacity:.10001"><g transform="translate(1055.8 598.78)"><path d="m0 0c-25.336 3.934-51.792-4.392-69.534-25.634-2.349-2.813-7.299-2.506-8.045 1.629-1.162 6.438-0.915 12.33 0.41 18.069-6.288-8.836-7.632-23.517-7.79-32.467-0.077-4.336-6.787-5.701-8.416-1.604-5.432 13.654-7.112 26.67-5.824 40.491-2.48-3.863-4.102-8.468-5.863-12.662-1.58-3.762-6.121-3.806-8.194-0.493-16.649 26.596-23.204 58.633-49.846 77.916-10.328 7.477-22.779 15.794-35.866 22.005l49.518-150.49s167.93-79.085 187.46-75.18c19.528 3.905 27.338 21.48 33.197 44.913 5.858 23.432-4.882 39.054-18.551 53.7-6.086 6.52-26.892 21.949-52.657 39.811"/></g></g><g clip-path="url(#clipPath879)" style="opacity:.5"><g transform="translate(1026.1 607.76)"><path d="m0 0c-0.27 1.341-0.992 2.628-2.355 3.615-10.514 7.61-22.037 13.148-33.688 18.763-5.497 2.65-10.987 5.33-16.278 8.379-5.144 2.965-10.04 7.881-15.443 10.218-4.387 1.897-9.857 1.265-11.733-3.778-1.039-2.794-0.239-6.23 1.377-9.781 0.641-5.159 4.509-10.522 8.239-14.728-3.468-2.221-6.23-5.225-4.768-9.151 1.162-3.121 20.957 8.495 21.689 8.618 0.752 0.128 1.333-1.339 2.071-1.258 0.062-0.054 0.123-0.111 0.185-0.165-3.853-3.041-7.122-6.848-9.822-11.516-2.659-4.598 3.584-9.518 7.381-5.695 4.965 5.001 11.033 8.048 17.401 9.025 1.341-0.473 2.688-0.93 4.043-1.361-3.098-2.319-5.893-5.208-8.452-8.727-3.225-4.433 2.914-9.57 7.16-7.16 9.33 5.295 13.689 9.978 23.419 14.432 5.74 2.628 12.425-2.856 9.574 0.27" style="fill:#fff"/></g></g><g transform="translate(885.22 113.1)"><path d="m0 0s25.386-24.735 33.196-31.243c7.811-6.51 10.415-11.554 35.801-15.46 25.385-3.905 57.605 0.977 73.552 1.79 16.055 0.819 20.829 15.622 13.669 24.735s-37.752 31.243-48.818 37.753c-11.065 6.509-107.4-17.575-107.4-17.575" style="fill:#fcffc7"/></g><g transform="translate(605.33 153.46)"><path d="m0 0s-46.866-7.811-53.375-28.64 5.208-28.64 23.433-35.149c18.226-6.509 33.847-11.716 55.978-5.208 22.131 6.51 76.808 33.848 93.731 40.357 16.924 6.509 23.433 7.811 23.433 22.131s-143.2 6.509-143.2 6.509" style="fill:#fcffc7"/></g><g clip-path="url(#clipPath907)" style="opacity:.2"><g transform="translate(1041.4 92.921)"><path d="m0 0c-5.761 7.332-26.678 23.078-40.401 32.348 0.095-0.357 0.014-0.841 0.312-1.061 43.378-31.962 30.331-30.719 9.208-29.477-17.741 1.044-63.645-20.402-81.294-15.838-2.879 0.232-5.763 0.556-8.642 1.061 6.346-5.6 10.744-10.042 33.595-13.558 25.385-3.905 57.605 0.976 73.553 1.79 16.055 0.819 20.829 15.622 13.669 24.735"/></g></g><g clip-path="url(#clipPath923)" style="opacity:.2"><g transform="translate(682.65 155.58)"><path d="m0 0c-0.444-7.915-3.434-15.891-9.531-22.285-19.894-20.861-44.262-35.506-67.824-51.435 7.963-0.77 16.379-0.251 26.073 2.601 22.131 6.509 76.808 33.847 93.731 40.356 16.924 6.509 23.433 7.811 23.433 22.131 0 6.778-32.087 8.595-65.882 8.632"/></g></g><g transform="translate(537.31 274.85)"><path d="m0 0s44.913-88.849 69.322-103.5c0 0-14.646 1.953-11.716-12.692 2.928-14.646 8.787-17.575 29.29-23.433 20.504-5.858 116.19-4.882 130.83 8.787 14.646 13.669-11.717 41.984-11.717 41.984s-26.361 50.771-11.716 87.872c14.646 37.102-194.3 0.977-194.3 0.977" style="fill:#ffb704"/></g><g transform="translate(887.82 105.94)"><path d="m0 0s-101.54 50.771-136.69 142.55 201.13-1.953 201.13-1.953 36.125-104.47 46.865-113.26c10.74-8.787 14.646-15.622 14.646-15.622s-35.15 32.22-125.95-11.716" style="fill:#ffb704"/></g><g clip-path="url(#clipPath947)" style="opacity:.2"><g transform="translate(572.8 221.14)"><path d="m0 0c23.917-3.235 46.865-9.735 70.661-15.363 31.193-7.378 63.481-9.271 95.48-10.043-6.799 16.516-18.061 50.956-7.331 78.137 14.645 37.102-194.3 0.977-194.3 0.977s13.147-25.996 29.075-52.182c2.164-0.326 4.316-0.788 6.412-1.526"/></g></g><g clip-path="url(#clipPath963)" style="opacity:.2"><g transform="translate(781.46 194.94)"><path d="m0 0c15.027-0.271 29.987-0.614 44.873-1.273 21.947 2.59 44.027 4.532 65.992 3.836 26.826-0.85 53.818-4.004 80.74-7.941-10.944 28.476-20.799 56.969-20.799 56.969s-236.28 93.731-201.13 1.953c7.58-19.791 18.255-37.664 30.325-53.544"/></g></g><g transform="translate(668.63 709.82)"><path d="m0 0s-49.306-43.936-39.543-61.999c9.764-18.063 82.991-27.826 86.409-27.338 3.417 0.488 57.605-13.669 57.605-13.669s53.212 4.393 60.534 4.393c7.323 0 46.378 2.929 46.378 2.929l-20.829 83.479z" style="fill:#ffb704"/></g><g transform="translate(639.83 667.67)"><path d="m0 0s-1.302-22.782 15.622-29.942 29.942-9.113 47.516-3.254c17.575 5.858 39.706 26.687 39.706 26.687s9.112-21.48 32.545-31.244 57.28-11.065 66.393-8.462c9.113 2.604 47.516 11.717 47.516 11.717l-26.687-78.76-193.97 26.036-67.695 9.113z" style="fill:#fff"/></g><g transform="translate(669.12 708.03)"><path d="m0 0c-15.622 24.735-100.24-85.92-126.28-131.48-26.037-45.564-23.433-57.281-23.433-57.281s-46.866-226.52-55.978-239.53c-9.113-13.018-9.113-15.621 1.302-15.621 10.414 0 137.99-19.528 187.46-20.83 49.469-1.301 124.98-10.414 182.26-7.811 57.28 2.604 145.8 2.604 173.14-1.301 27.338-3.906 39.055-3.906 33.848 7.81-5.208 11.717-66.393 152.31-76.808 190.07-10.414 37.752-14.319 110.65-39.054 157.52-24.735 46.866-66.393 108.05-66.393 108.05l-24.734-14.32s20.829-14.32 26.036-48.167 14.32-36.451 9.113-50.771c-5.208-14.32-76.319 7.811-121.88 7.811-40.356 0-98.613 2.767-98.613 2.767s-13.669 1.139-22.944 10.251c-17.668 17.359 29.291 81.364 59.883 105.45 5.216 4.106-16.923-2.604-16.923-2.604" style="fill:#9ab2d6"/></g><g transform="translate(669.12 708.03)"><path d="m0 0c-15.622 24.735-100.24-85.92-126.28-131.48-26.037-45.564-23.433-57.281-23.433-57.281s-46.866-226.52-55.978-239.53c-9.113-13.018-9.113-15.621 1.302-15.621 10.414 0 137.99-19.528 187.46-20.83 49.469-1.301 124.98-10.414 182.26-7.811 57.28 2.604 145.8 2.604 173.14-1.301 27.338-3.906 39.055-3.906 33.848 7.81-5.208 11.717-66.393 152.31-76.808 190.07-10.414 37.752-14.319 110.65-39.054 157.52-24.735 46.866-66.393 108.05-66.393 108.05l-24.734-14.32s20.829-14.32 26.036-48.167 14.32-36.451 9.113-50.771c-5.208-14.32-76.319 7.811-121.88 7.811-40.356 0-98.613 2.767-98.613 2.767s-13.669 1.139-22.944 10.251c-17.668 17.359 29.291 81.364 59.883 105.45 5.216 4.106-16.923-2.604-16.923-2.604" style="fill:#9ab2d6"/></g><g clip-path="url(#clipPath995)" style="opacity:.2"><g transform="translate(669.12 708.03)"><path d="m0 0c-2.242 3.549-5.91 4.299-10.616 2.865-10.551-13.437-20.53-27.314-29.66-41.797-22.617-35.879-38.854-75.251-47.386-116.84-8.735-42.574-7.424-86.231-14.525-129.05-9.21-55.529-55.777-109.41-87.566-158.24 44.555-5.883 140.33-20.825 172.83-21.681 10.05-0.264 103.62-2.425 115.44-3.17-246.02 12.425-131.27 150-122.16 226.98 5.259 44.414 18.718 87.618 40.849 126.35-21.128 0.725-37.228 1.49-37.228 1.49s-13.669 1.139-22.944 10.251c-17.668 17.359 29.291 81.364 59.883 105.45 5.216 4.106-16.923-2.604-16.923-2.604" style="fill:#fff"/></g></g><g clip-path="url(#clipPath1011)" style="opacity:.2"><g transform="translate(1041.2 242.19)"><path d="m0 0c-5.208 11.716-66.393 152.31-76.807 190.06-10.414 37.753-14.32 110.66-39.055 157.52-24.734 46.866-66.392 108.05-66.392 108.05l-13.779-7.977c1.549-9.474 8.941-4.537 11.697-13.806 3.313-6.374 13.167-18.667 14.91-28.165 8.692-23.584 24.102-49.543 31.478-72.896 16.969-53.724 11.085-117.28 22.06-172.49 5.611-28.227 14.687-59.082 4.543-87.41-6.729-18.794-20.724-33.046-37.645-43.103-41.485-24.656-95.752-26.259-142.62-25.878-46.713 0.379-93.068 5.652-139.47 10.501-49.254 5.148-97.713 15.091-146.23 24.621-0.25-0.525-0.489-0.979-0.7-1.28-9.113-13.018-9.113-15.622 1.302-15.622s137.99-19.527 187.46-20.829 124.97-10.415 182.25-7.811c57.28 2.603 145.8 2.603 173.14-1.302s39.054-3.905 33.847 7.811"/></g></g><g clip-path="url(#clipPath1027)" style="opacity:.2"><g transform="translate(929.26 495.85)"><path d="m0 0c-3.121 2.371-6.855 4.244-10.807 5.92-34.588 28.049-130.25 40.773-148.44 42.777-27.447 3.024-63.825 4.093-92.117-7.371-16.438 1.011-34.042 2.011-48.864-2.629-3.368-1.054-6.429-2.435-9.275-4.003-4.073-0.694-8.17-1.574-12.319-2.788-7.73-2.262-10.616-12.825-6.45-18.734-4.516-13.175-1.138-28.622 12.268-41.019 28.942-26.765 75.546-21.547 114.18-22.348 18.544-5.273 38.406-6.004 58.949-5.931 41.823-5.08 83.94-8.55 124.46 6.197 22.356 8.136 44.682 29.958 18.403 49.929" style="fill:#fff"/></g></g><g clip-path="url(#clipPath1043)" style="opacity:.2"><g transform="translate(522.6 455.08)"><path d="m0 0c-2.552 0.286-7.541 0.937-13.325 2-0.142 0.599-0.274 1.198-0.491 1.806-10.145 28.478-12.187 56.459-4.951 85.914 3.314 13.489-12.321 27.514-24.211 21.978-11.073 6.36-27.724 4.941-39.153 1.419-7.747-2.388-14.105-6.801-18.965-12.444-6.091 0.197-12.103-0.564-18.812-1.717-9.342-1.606-16.581-14.349-13.15-23.16 3.027-7.773 7.709-13.531 13.392-17.102 2.512-31.148 26.698-59.646 56.172-77.596 4.922-3.356 10.381-6.2 16.191-8.556 15.899-7.179 32.414-11.201 47.303-10.912 25.248 0.489 24.019 35.683 0 38.37" style="fill:#fff"/></g></g><g clip-path="url(#clipPath1059)" style="opacity:.2"><g transform="translate(603.62 187.09)"><path d="m0 0c31.184-27.999 69.159-28.882 109.8-29.883-10.123 5.243-25.28 3.942-36.416 6.689-11.006 2.714-22.345 6.494-32.834 10.995-12.152 5.216-23.135 10.391-34.104 16.982-2.016 1.211-12.246 8.031-14.349 6.811-5.476-3.181 5.216-10.343 7.492-11.905 10.937-7.507 23.582-13.933 35.206-19.57" style="fill:#fff"/></g></g><g clip-path="url(#clipPath1075)" style="opacity:.2"><g transform="translate(606.11 168.87)"><path d="m0 0c0.617 1.357 17.708-8.245 22.552-9.78 10.601-3.361 21.605-4.787 32.464-6.373 10.068-1.471 20.029-2.581 30.29-3.084 11.581-0.568 12.959-0.023 23.728 1.944-8.491-5.177-13.679-6.312-25.369-8.429-11.018-1.996-24.524-1.489-35.617-3e-3 -11.798 1.58-24.159 5.646-34.772 11.042-3.881 1.972-11.999 4.294-14.971 7.393-3.391 3.534-5.114 9.815 1.695 9.775" style="fill:#fff"/></g></g><g clip-path="url(#clipPath1091)" style="opacity:.2"><g transform="translate(883.61 112.54)"><path d="m0 0c-26.379 16.815 10.513 31.601 23.194 33.963 19.112 3.559 46.469-5.049 66.27-6.627-26.705-5.27-75.22 0.833-90.808-26.118 0.282 1.655 1.531 2.823 2.172 3.752" style="fill:#fff"/></g></g><g clip-path="url(#clipPath1107)" style="opacity:.2"><g transform="translate(682.52 139.46)"><path d="m0 0c13.047 2.071 23.401-0.622 38.519 9.94 12.526 8.751 21.788 9.289 24.23 9.941 5.051 1.348 6.216 0.325 6.42-3.728 0.335-6.69-9.345-8.22-14.807-10.562-9.559-4.096-15.258-6.193-25.369-7.662-6.496-0.944-10.355-2.485-28.993 2.071"/></g></g><g transform="translate(883.92 389.08)"><path d="m0 0s76.156-25.386 111.3-6.835 48.818 45.89 64.44 54.677 26.362 0.976 33.196 6.834c6.835 5.858 18.551 14.646 16.598 46.865-1.952 32.221-6.834 68.346-38.078 77.133-31.243 8.787-48.818 18.551-65.416 6.835s-18.551-17.575-26.361-30.267c-7.812-12.693-27.339-23.433-27.339-23.433z" style="fill:#fcffb0"/></g><g clip-path="url(#clipPath1127)" style="opacity:.10001"><g transform="translate(1109.5 490.63)"><path d="m0 0c-1.953 32.22-6.835 68.346-38.078 77.133-4.209 1.183-8.151 2.381-11.895 3.545 4.109-3.495 7.629-7.866 10.424-13.351 7.091-13.916 7.165-30.753 0.364-44.751-6.4-13.171-18.803-27.322-31.14-35.366-14.738-9.61-34.069-8.812-50.852-11.825-20.102-3.609-48.562-4.491-71.229-13.025l-33.134-63.901s76.156-25.386 111.3-6.835c35.15 18.551 48.818 45.889 64.44 54.676s26.362 0.977 33.197 6.835c6.834 5.858 18.551 14.645 16.598 46.865"/></g></g><g transform="translate(925.01 520.35)"><path d="m0 0s-11.072 17.367-0.445 23.428c10.626 6.062 24.293 6.322 36.156-1.265 11.862-7.587 27.136-40.499 27.136-40.499z" style="fill:#fcffb0"/></g><g clip-path="url(#clipPath1147)" style="opacity:.7"><g transform="translate(1049.3 553.77)"><path d="m0 0c-0.386 2.146-1.145 4.169-2.176 6.069 0 0.051 5e-3 0.099 4e-3 0.15-0.042 4.914-3.569 10.119-8.555 11.237-0.885 0.198-1.786 0.326-2.692 0.415-0.988 0.699-1.984 1.361-2.974 1.978-5.218 3.254-13.484 1.517-17.048-3.638-5.844-2.523-10.965-6.814-15.023-11.915-4.746-5.965-10.035-12.604-12.624-19.855-1.454-1.443-2.975-2.803-4.603-4.023-8.676-6.503-8.967-17.424 0-23.88 15.45-11.124 41.357 7.825 52.786 17.852 7.411 6.501 14.814 14.994 12.905 25.61" style="fill:#fff"/></g></g><g clip-path="url(#clipPath1163)" style="opacity:.2"><g transform="translate(922.55 150.65)"><path d="m0 0c-1.759-0.793 18.709-1.657 35.242-4.556s32.631-7.869 33.066-6.627c0.436 1.243 1.741 4.142-2.175 8.284s-6.081-2.071-24.305 1.657c-18.442 3.772-33.561 4.97-41.828 1.242"/></g></g><g clip-path="url(#clipPath1179)" style="opacity:.2"><g transform="translate(866.21 127.87)"><path d="m0 0c0 1.243-0.414 5.385 7.456 13.668 7.869 8.284 31.477 16.568 38.933 16.982 7.455 0.414 28.164-0.829 36.034-2.071 7.869-1.243 17.395-3.314 17.395-3.314s-24.436 11.597-38.105 11.597c-13.668 0-26.507 5.385-38.933-1.242-12.425-6.627-19.466-10.769-21.951-19.881-2.486-9.112-0.829-15.739-0.829-15.739" style="fill:#fff"/></g></g><g transform="translate(535.68 530.98)"><path d="m0 0c25.386 11.716 163.91-1.504 383.38-25.711 221.31-24.409 78.109-99.589 78.109-99.589s-32.22-18.551-138.64-18.551c-106.42 0-168.91 7.811-257.76 27.339-88.849 19.527-120.63 90.879-65.091 116.51" style="fill:#8d9096"/></g><g transform="translate(538.29 535.54)"><path d="m0 0c25.386 11.716 165 32.22 380.78-14.646 215.78-46.865 78.109-99.589 78.109-99.589s-32.219-18.551-138.64-18.551c-106.42 1e-3 -168.91 7.811-257.76 27.339-88.849 19.527-118.03 79.814-62.487 105.45" style="fill:#c9cdd6"/></g><g clip-path="url(#clipPath1203)" style="opacity:.2"><g transform="translate(902.16 453.87)"><path d="m0 0c-17.946 8.342-44.957-1.096-62.263-7.102-5.885-2.043-9.003-6.129-9.896-10.56-11.422 0.532-23.096 3.163-34.439 2.003-4.841-0.494-8.47-6.465-4.283-10.34 13.982-12.943 37.45-15.246 55.721-16.424 17.043-1.099 39.436-4.157 54.745 5.027 14.848 8.907 17.346 29.527 0.415 37.396"/></g></g><g clip-path="url(#clipPath1219)" style="opacity:.2"><g transform="translate(959.97 481.31)"><path d="m0 0c-3.194-0.468-4.719-4.413-4.068-7.165 0.13-0.551 1.26-2.7 2.484-4.834-3.981 0.411-8.278 1.451-10.796 1.821-7.03 1.031-13.963 2.476-20.792 4.449-8.406 2.429-20.297 10.045-28.584 5.29-0.673-0.386-1.207-1.213-1.153-2.011 0.673-9.994 13.396-13.964 21.465-17.333 13.151-5.492 27.197-9.046 41.427-10.085 9.334-0.681 20.872 1.666 20.662 13.58-0.194 11.01-10.812 17.728-20.645 16.288"/></g></g><g clip-path="url(#clipPath1235)" style="opacity:.2"><g transform="translate(764.63 438.68)"><path d="m0 0c-3.478 7.391-10.398 8.088-17.664 6.822-10.33-1.799-22.424-1.449-32.207-4.995-1.658-0.6-2.925-1.595-3.808-2.789-12.954 1.709-25.708 4.372-38.301 7.846-5.254 1.449-43.133 19.039-44.078 10.075-1.515-14.381 31.217-23.443 41.645-26.828 20.928-6.793 43.164-9.737 64.999-11.794 8.586-0.809 19.097-2.575 26.089 3.963 4.749 4.442 6.06 11.889 3.325 17.7"/></g></g><g clip-path="url(#clipPath1251)" style="opacity:.2"><g transform="translate(816.14 505.76)"><path d="m0 0c-9.979-7.166-25.346-11.247-37.096-14.89-8.078-2.505-16.59-3.484-25.035-3.22-8.367 0.262-16.625 2.871-24.942 2.246-3.726-0.279-6.153-4.809-3.185-7.689 13.362-12.966 38.818-13.28 55.837-9.062 9.494 2.353 18.722 6.294 28.091 9.154 7.408 2.262 13.999 4.945 17.593 12.199 3.303 6.667-3.998 16.479-11.263 11.262"/></g></g><g clip-path="url(#clipPath1267)" style="opacity:.2"><g transform="translate(678.39 499.36)"><path d="m0 0c0.061 0.122-23.604-1.02-25.603-1.204-9.099-0.841-18.19-1.856-27.321-2.309-8.256-0.41-16.6-0.547-24.829 0.376-10.118 1.135-19.25 5.049-29.119 6.798-5.988 1.061-10.724-5.709-6.12-10.514 15.664-16.348 45.435-16.145 66.329-15.562 12.863 0.358 25.707 1.291 38.547 2.106 9.862 0.626 21.052-0.265 26.355 9.647 6.434 12.027-12.144 22.767-18.239 10.662"/></g></g><g transform="translate(633.97 451.57)"><path d="m0 0c-3.905 2.929-20.503 14.645-10.74 21.48 9.764 6.835 23.433 9.763 49.795 7.811 26.362-1.953 40.874-4.141 54.676-9.764 8.787-3.58 29.616-17.9 33.196-23.107 8.85-12.873 4.882-13.018-24.409-15.947s-64.44-0.976-82.991 7.811-19.527 11.716-19.527 11.716" style="fill:#875714"/></g><g clip-path="url(#clipPath1287)" style="opacity:.2"><g transform="translate(749.46 438.19)"><path d="m0 0c-35.234-0.304-73.135-4.517-106.54 9.852-4.248 1.827-6.875 4.89-8.191 8.352-2.854 0.277-5.636 0.766-8.369 1.391 2.953-2.815 6.159-5.12 7.61-6.209 0 0 0.977-2.93 19.528-11.717 18.55-8.787 53.7-10.74 82.991-7.811 27.358 2.736 32.616 3.051 25.981 13.568-2.934-4.226-7.707-7.38-13.014-7.426"/></g></g><g transform="translate(671.07 466.95)"><path d="m0 0c0-2.831-3.716-5.126-8.299-5.126-4.584 0-8.3 2.295-8.3 5.126s3.716 5.126 8.3 5.126c4.583 0 8.299-2.295 8.299-5.126" style="fill:#3f2000"/></g><g transform="translate(704.76 467.68)"><path d="m0 0c0-1.618-3.934-2.929-8.787-2.929s-8.788 1.311-8.788 2.929 3.935 2.929 8.788 2.929 8.787-1.311 8.787-2.929" style="fill:#3f2000"/></g><g transform="translate(703.78 452.3)"><path d="m0 0c0-2.831-4.589-5.126-10.251-5.126-5.663 0-10.252 2.295-10.252 5.126s4.589 5.126 10.252 5.126c5.662 0 10.251-2.295 10.251-5.126" style="fill:#3f2000"/></g><g transform="translate(736.49 456.7)"><path d="m0 0c0-2.561-4.48-4.637-10.008-4.637-5.527 0-10.008 2.076-10.008 4.637s4.481 4.638 10.008 4.638c5.528 0 10.008-2.077 10.008-4.638" style="fill:#3f2000"/></g><g transform="translate(775.54 461.33)"><path d="m0 0s9.764 18.551 41.983 23.433c32.221 4.882 36.423 5.603 54.189-0.488 17.086-5.859 24.448-13.648 29.128-32.058 4.882-19.202-16.924-19.202-47.191-24.083-30.267-4.882-97.636-4.882-78.109 33.196" style="fill:#875714"/></g><g clip-path="url(#clipPath1323)" style="opacity:.2"><g transform="translate(900.84 452.22)"><path d="m0 0c-1.652 6.499-3.673 11.622-6.304 15.857 0.466-1.436 0.989-2.851 1.418-4.298 2.646-8.928-4.021-17.77-11.124-21.969-15.263-9.021-34.137-8.477-51.265-9.485-19.157-1.126-36.748-3.552-53.904 6.972-3.718 2.28-6.09 5.137-7.503 8.219 2.035-24.142 55.46-23.579 81.491-19.38 30.268 4.882 52.073 4.882 47.191 24.084"/></g></g><g transform="translate(815.57 461.09)"><path d="m0 0c0-2.561-4.699-4.638-10.496-4.638s-10.496 2.077-10.496 4.638 4.699 4.637 10.496 4.637 10.496-2.076 10.496-4.637" style="fill:#3f2000"/></g><g transform="translate(839.32 474.36)"><path d="m0 0c0.522-2.645-3.128-5.594-8.154-6.586s-9.523 0.347-10.046 2.993c-0.522 2.645 3.129 5.593 8.155 6.586 5.025 0.992 9.523-0.348 10.045-2.993" style="fill:#3f2000"/></g><g transform="translate(866.2 472.68)"><path d="m0 0c0.499-2.65-2.856-5.505-7.493-6.377s-8.8 0.568-9.299 3.218c-0.498 2.65 2.857 5.505 7.493 6.377 4.638 0.873 8.801-0.568 9.299-3.218" style="fill:#3f2000"/></g><g transform="translate(849.75 453.28)"><path d="m0 0c0-2.292-4.372-4.15-9.764-4.15s-9.763 1.858-9.763 4.15 4.371 4.15 9.763 4.15 9.764-1.858 9.764-4.15" style="fill:#3f2000"/></g><g transform="translate(875.22 502.03)"><path d="m0 0s10.171 8.402 36.617 5.151 29.907-3.629 43.378-10.251c12.958-6.369 17.874-12.008 19.3-22.994 1.487-11.458-15.993-7.441-40.874-4.55-24.88 2.892-78.887 15.302-58.421 32.644" style="fill:#875714"/></g><g clip-path="url(#clipPath1359)" style="opacity:.2"><g transform="translate(974.52 473.94)"><path d="m0 0c-0.409 3.151-1.153 5.828-2.243 8.242-12.758-0.595-25.534 1.226-38.409 3.216-16.781 2.593-36.018 1.084-51.866 7.575-3.937 1.613-6.791 4.035-8.857 6.839-4.654-5.547-1.7-10.524 5.024-14.806 0.599-0.241 1.215-0.356 1.809-0.63 1.441-0.666 2.747-1.427 3.931-2.263 0.752-0.325 1.453-0.746 2.152-1.168 14.072-5.979 34.688-10.056 47.585-11.555 24.881-2.891 42.361-6.908 40.874 4.55"/></g></g><g transform="translate(915.88 495.74)"><path d="m0 0c-1.06-2.332-5.302-2.685-9.474-0.79-4.173 1.896-6.697 5.324-5.638 7.656 1.06 2.331 5.301 2.685 9.475 0.789 4.172-1.896 6.696-5.323 5.637-7.655" style="fill:#3f2000"/></g><g transform="translate(943.96 495.02)"><path d="m0 0c0-2.427-3.388-4.394-7.567-4.394s-7.567 1.967-7.567 4.394 3.388 4.394 7.567 4.394 7.567-1.967 7.567-4.394" style="fill:#3f2000"/></g><g transform="translate(926.88 485.74)"><path d="m0 0c0-1.618-2.513-2.929-5.614-2.929s-5.614 1.311-5.614 2.929 2.513 2.929 5.614 2.929 5.614-1.311 5.614-2.929" style="fill:#3f2000"/></g><g transform="translate(896.12 496)"><path d="m0 0c0-1.888-2.185-3.418-4.882-3.418-2.696 0-4.882 1.53-4.882 3.418 0 1.887 2.186 3.417 4.882 3.417 2.697 0 4.882-1.53 4.882-3.417" style="fill:#3f2000"/></g><g transform="translate(958.61 488.43)"><path d="m0 0c0-1.483-2.623-2.685-5.858-2.685-3.236 0-5.858 1.202-5.858 2.685s2.622 2.685 5.858 2.685c3.235 0 5.858-1.202 5.858-2.685" style="fill:#3f2000"/></g><g transform="translate(553.91 506.25)"><path d="m0 0s-7.811 10.74 5.858 19.527c13.669 8.788 33.197 13.669 57.606 14.646 24.409 0.976 39.054-2.929 51.747-9.764 12.693-6.834 16.598-13.669 20.503-20.504 3.906-6.834 10.74-8.787 0-16.598-10.74-7.81-69.321-9.763-91.777-3.905-22.457 5.858-41.984 7.811-43.937 16.598" style="fill:#875714"/></g><g clip-path="url(#clipPath1399)" style="opacity:.2"><g transform="translate(630.88 487)"><path d="m0 0c1.106-0.391 2.301-0.519 3.463-0.747 23.47-0.138 48.609 2.449 55.281 7.302 10.74 7.811 3.906 9.763 0 16.598-1.67 2.922-3.383 5.845-5.74 8.767-3.184-8.24-10.536-13.27-20.077-13.292-30.559-0.069-60.256 6.889-90.476 10.415-6.93 0.808-11.723 4.344-14.631 8.963-12.097-8.633-4.79-18.759-4.79-18.759 1.953-8.787 21.48-10.74 43.937-16.598 5.671-1.479 13.652-2.457 22.58-2.972 2.939 1.375 6.469 1.73 10.453 0.323"/></g></g><g transform="translate(591.99 529.68)"><path d="m0 0c0-3.235-5.901-5.858-13.181-5.858s-13.181 2.623-13.181 5.858 5.901 5.858 13.181 5.858 13.181-2.623 13.181-5.858" style="fill:#3f2000"/></g><g transform="translate(638.85 524.8)"><path d="m0 0c0-2.696-5.027-4.882-11.228-4.882s-11.228 2.186-11.228 4.882 5.027 4.882 11.228 4.882 11.228-2.186 11.228-4.882" style="fill:#3f2000"/></g><g transform="translate(617.37 538.47)"><path d="m0 0c0-2.696-3.606-4.882-8.055-4.882s-8.055 2.186-8.055 4.882 3.606 4.882 8.055 4.882 8.055-2.186 8.055-4.882" style="fill:#3f2000"/></g><g transform="translate(670.58 529.68)"><path d="m0 0c0-2.966-4.48-5.37-10.007-5.37s-10.008 2.404-10.008 5.37 4.481 5.37 10.008 5.37 10.007-2.404 10.007-5.37" style="fill:#3f2000"/></g><g transform="translate(656.43 515.28)"><path d="m0 0c0-2.022-4.153-3.661-9.275-3.661-5.123 0-9.276 1.639-9.276 3.661s4.153 3.661 9.276 3.661c5.122 0 9.275-1.639 9.275-3.661" style="fill:#3f2000"/></g><g transform="translate(613.47 515.28)"><path d="m0 0c0-3.1-4.372-5.614-9.764-5.614s-9.763 2.514-9.763 5.614c0 3.101 4.371 5.614 9.763 5.614s9.764-2.513 9.764-5.614" style="fill:#3f2000"/></g><g transform="translate(792.14 485.74)"><path d="m0 0c-2.799-0.862-49.794-5.858-64.44-0.976-14.645 4.881-28.314 9.763-25.385 22.456s17.574 18.551 34.172 23.433c16.598 4.881 38.078 4.881 53.7 0 15.622-4.882 23.433-8.788 30.268-15.622 6.834-6.835 9.763-7.811 5.858-15.622-3.906-7.811-21.48-9.764-34.173-13.669" style="fill:#875714"/></g><g clip-path="url(#clipPath1443)" style="opacity:.2"><g transform="translate(820.46 515.03)"><path d="m0 0c-0.634 0.634-1.29 1.219-1.945 1.806-8.572-10.555-25.803-16.197-39.062-17.739-25.241-2.937-55.62-9.362-77.036 8.388-0.023-0.094-0.075-0.171-0.097-0.266-2.929-12.692 10.74-17.574 25.385-22.456 14.646-4.882 61.641 0.115 64.44 0.976 12.693 3.906 30.268 5.859 34.173 13.669 3.905 7.811 0.977 8.788-5.858 15.622"/></g></g><g transform="translate(736.98 514.06)"><path d="m0 0c0-2.427-4.699-4.394-10.496-4.394s-10.496 1.967-10.496 4.394 4.699 4.394 10.496 4.394 10.496-1.967 10.496-4.394" style="fill:#3f2000"/></g><g transform="translate(758.94 525.04)"><path d="m0 0c0-2.561-3.934-4.637-8.787-4.637-4.854 0-8.788 2.076-8.788 4.637s3.934 4.638 8.788 4.638c4.853 0 8.787-2.077 8.787-4.638" style="fill:#3f2000"/></g><g transform="translate(789.21 523.09)"><path d="m0 0c0-1.753-3.606-3.173-8.055-3.173s-8.055 1.42-8.055 3.173c0 1.752 3.606 3.173 8.055 3.173s8.055-1.421 8.055-3.173" style="fill:#3f2000"/></g><g transform="translate(774.08 510.89)"><path d="m0 0c0-1.483-2.732-2.685-6.102-2.685s-6.103 1.202-6.103 2.685 2.733 2.685 6.103 2.685 6.102-1.202 6.102-2.685" style="fill:#3f2000"/></g><g transform="translate(817.53 509.91)"><path d="m0 0c0-2.831-4.262-5.126-9.52-5.126-5.257 0-9.519 2.295-9.519 5.126s4.262 5.126 9.519 5.126c5.258 0 9.52-2.295 9.52-5.126" style="fill:#3f2000"/></g><g transform="translate(538.29 535.54)"><path d="m0 0s9.764 37.102-11.716 42.96-63.952 13.669-108.38-14.157c-39.554-24.775-41.008-40.519-40.031-60.046 0.976-19.528 6.958-47.766 32.22-81.527 17.411-23.27 28.314-33.684 70.298-46.377 41.983-12.693 103.49-20.504 124-3.906 20.503 16.599 25.385 24.41 17.574 43.937-7.81 19.527-91.778 42.96-91.778 42.96s14.157-1.953 30.756 5.858c16.598 7.811 1.464 27.338-11.229 31.243-12.692 3.906-34.172 0.977-34.172 6.835s22.456 32.22 22.456 32.22" style="fill:#fcffb0"/></g><g clip-path="url(#clipPath1483)" style="opacity:.10001"><g transform="translate(622.25 416.42)"><path d="m0 0c-7.811 19.527-91.778 42.96-91.778 42.96s14.157-1.953 30.755 5.858c16.599 7.811 1.465 27.339-11.228 31.244-12.693 3.906-34.173 0.976-34.173 6.834 0 5.859 22.457 32.22 22.457 32.22s9.764 37.102-11.716 42.961c-17.36 4.734-48.433 10.734-83.165-1.823 27.079 0.888 58.81-3.168 65.246-30.85 2.283-9.82-0.99-18.417-4.322-27.592-2.203-6.068-5.187-13.312-0.592-19.151 3.466-4.405 10.756-6.512 15.851-7.946 6.961-1.959 39.247-5.926 26.426-20.59-2.448-2.801-6.41-4.026-9.801-5.191-1.005-0.345-14.22-4.364-13.744-2.992-1.246-3.593 22.318-12.249 25.231-13.334 15.135-5.635 34.69-10.946 44.024-25.331 19.717-30.389-23.822-50.749-54.177-59.06 28.383-3.255 54.97-1.998 67.131 7.847 20.504 16.598 25.386 24.409 17.575 43.936"/></g></g><g clip-path="url(#clipPath1499)" style="opacity:.60001"><g transform="translate(520.64 452.27)"><path d="m0 0c-2.263 1.985-5.057 4.407-7.871 7.057 11.699 5.065 11.248 25.519-2.415 28.194-4.308 0.844-8.051 1.92-11.583 4.154-0.055 0.042-0.111 0.083-0.166 0.126-0.535 1.747-1.191 3.428-2.01 5.023-2.587 8.549-4.928 17.179-7.035 25.901-1.341 17.009-8.264 32.546-23.997 40.691-0.246 0.136-0.479 0.282-0.73 0.413-7.399 5.214-17.552 7.083-26.888 4.49-2.744-0.763-5.353-1.842-7.827-3.139-11.55-2.59-22.005-10.004-27.614-21.951-3.744-7.973-5.087-17.607-3.312-26.444-0.526-7.185 0.243-14.546 1.95-21.07 5.492-20.992 16.268-41.856 30.347-58.345 15.228-17.834 36.82-29.243 58.719-36.804 17.681-6.105 51.621-12.398 62.739 8.569 13.195 24.885-19.101 31.551-32.307 43.135" style="fill:#fff"/></g></g><g clip-path="url(#clipPath1515)" style="opacity:.2"><g transform="translate(622.3 709.65)"><path d="m0 0s190.07-45.834 311.84-30.924c0 0-19.55-7.592-57.158-20.502-83.251-28.578-188.87 13.669-254.68 51.426"/></g></g><g clip-path="url(#clipPath1531)" style="opacity:.5"><g transform="translate(562.32 680.3)"><path d="m0 0c-12.686-0.692-24.272-4.397-35.784-9.656-1.54-0.703-3.129-1.405-4.729-2.124-7.437-2.85-14.574-6.533-21.204-10.908-8.035-5.302-15.328-11.469-22.028-18.239-1.703-1.589-3.305-3.28-4.803-5.074-5.143-5.659-9.933-11.661-14.41-17.906-1.739-2.426-12.505-15.32 14.401-6.284 11.946 4.068 23.781 3.238 35.172-3.436 4.641-2.718 9.209 3.474 5.642 7.312-6.857 7.377-15.766 11.241-24.997 11.585 8.224 5.125 17.839 6.476 26.939-0.519 4.709-3.621 10.673 4.245 6.335 8.21-1.762 1.61-3.593 2.967-5.457 4.203 3.938-0.949 7.81-2.655 11.53-5.131 5.527-3.679 10.363 4.117 6.645 8.611-1.165 1.407-2.362 2.64-3.576 3.77 0.618 0.346 1.231 0.689 1.836 1.022 11.155 6.132 21.648 12.906 30.295 22.336 0.53 0.579 0.88 1.263 1.101 1.988 0.337 0.261 0.674 0.493 1.012 0.777 3.65 3.066 0.706 9.716-3.92 9.463" style="fill:#fff"/></g></g><g transform="translate(635.14 1535.1)"><path d="m0 0c-39.004 7.368-93.536-27.098-132.58-34.252-29.9-5.479-78.924 2.708-122.6 24.851-82.167 41.658-107.33 208.01-96.763 278.3s40.139 192.67 170.83 252.55c33.948 15.555 65.806 30.583 94.37 44.308 84.009 40.367 181.25 42.223 267.01 5.725 33.614-14.305 185.03-97.858 200.74-98.78 44.352-2.604 152.8 3e-3 190.52-36.448 37.724-36.451 128.21-162.15 122.94-235.05 0 0-1.967-18.225 33.062-52.073 35.029-33.847 87.043-106.75 71.09-171.84-15.954-65.091-27.608-104.15-73.292-137.99s-125.43-53.79-218.83 11.3c-71.612 49.907-356.04 120.97-506.51 149.4" style="fill:#e2f5fa"/></g><g clip-path="url(#clipPath1551)" style="opacity:.10001"><g transform="translate(1385.2 1502.5)"><path d="m0 0c-5.886 25.62-47.237 85.015-68.34 100.65-33.549 24.851-58.631 45.469-68.02 63.174-21.579 40.689 28.584 89.178 7.455 130.46-19.978 39.033-54.077 83.66-129.13 70.199-23.449-4.205-57.053-55.389-79.524-44.732-18.123 8.596-50.416 112.01-86.15 135.02-164.02 105.62-290.23-10.049-313.12-7.455-23.209 2.628 10.216 71.138-12.108 77.61-45.705 13.251-266.22-8.028-330.84-191.92-4.943-14.071-13.503-39.085-16.103-53.766-1.412-7.973-6.05-23.066-4.996-31.043 0.849-1.282 1.052-2.959-0.061-4.621-0.056-0.085-0.113-0.171-0.17-0.255-0.546-0.817-1.384-1.406-2.312-1.721 5.174-79.282 34.615-186.17 98.195-218.4 43.675-22.143 92.699-30.33 122.6-24.851 39.043 7.154 93.575 41.62 132.58 34.252 150.47-28.424 434.9-99.489 506.51-149.4 91.817-63.988 170.42-45.788 216.46-12.997 20.388 60.04 41.303 67.91 27.083 129.8" style="fill:#737e80"/></g></g><g clip-path="url(#clipPath1567)" style="opacity:.10001"><g transform="translate(1261.6 1411.2)"><path d="m0 0c-15.008 30.382-43.677 60.321-45.974 94.434-2.137 31.729 1.297 62.096 6.37 93.528 2.719 16.851-5.161 58.802-5.335 67.383-0.242 11.964-14.94 2.483-49.702 0.828-69.583-3.314-103.11 12.112-122.6 62.956-19.053 49.702-0.829 82.837-38.105 95.262-25.182 8.394-135.2-77.266-190.11-67.097-67.098 12.425-188.87 37.276-174.47 170.9 3.922 36.401-73.198-29.673-99.303-60.724-49.024-58.314-68.907-172.6-140.82-200.46-32.406-12.557-73.806-3.504-108.36 2.75-0.196 0.035-0.387 0.083-0.582 0.12 14.228-61.686 42.168-122.41 87.406-145.35 43.675-22.143 92.698-30.33 122.6-24.852 39.043 7.154 93.575 41.62 132.58 34.252 150.47-28.423 434.89-99.488 506.51-149.4 21.155-14.743 45.564-26.437 70.42-33.931 30.319-9.14 74.958 7.837 49.486 59.403"/></g></g><g clip-path="url(#clipPath1583)" style="opacity:.10001"><g transform="translate(1250.5 1407.7)"><path d="m0 0c-15.147 27.129-42.4 41.669-48.006 72.509-0.919 1.301-37.002 62.087-37.898 63.37-14.583 20.872 10.11-6.586-10.969 8.417-25.973 18.487-55.199 32.234-84.936 43.479-32.125 12.147-64.436 19.473-98.778 21.514-37.368 2.222-74.998 0.307-112.15 5.569-37.815 5.356-75.488 14.298-113.85 14.72-37.351 0.411-75.006-7.483-111.52-14.514-30.565-5.886-61.176-10.97-91.871-16.081-12.895-2.148-43.853 9.334-58.72 2.752-11.397-13.028-14.713-35.148-33.473-35.989-26.212-1.176-52.943 6.543-76.686 17.081-24.351 10.807-51.881 27.82-70.872 50.062 15.747-50.309 41.429-95.699 79.142-114.82 43.675-22.143 92.698-30.33 122.6-24.851 39.043 7.154 93.575 41.619 132.58 34.252 150.47-28.424 434.89-99.489 506.51-149.4 21.155-14.743 45.564-26.437 70.42-33.93 30.318-9.141 56.435 23.136 41.203 50.899-0.914 1.667-1.819 3.321-2.732 4.956"/></g></g><g transform="translate(446.51 1381.1)"><path d="m0 0s26.036 260.36 57.28 320.25c0 0 55.456 155.15 215.74 58.235 80.84-48.88 162.55-35.204 212.47-18.073 28.722 9.857 60.464 0.636 80.08-22.544 28.801-34.038 75.257-74.662 130.9-70.993 16.636 1.097 16.924-20.829 16.924-36.451s22.13-309.83 22.13-309.83z" style="fill:#bfcfd4"/></g><g clip-path="url(#clipPath1603)" style="opacity:.2"><g transform="translate(708.69 1532.8)"><path d="m0 0c7.573 45.485 18.121 90.288 30.37 134.72 6.69 24.271 13.595 48.503 19.754 72.908-13.026 4.89-26.166 11.151-39.285 19.084-36.166 21.867-66.977 30.873-93.036 31.752-22.122-65.818-43.369-131.9-55.928-200.38-13.359-72.852-19.166-146.74-26.024-220.44l146.33-15.799c2.644 59.664 8.002 119.18 17.82 178.15" style="fill:#fff"/></g></g><g clip-path="url(#clipPath1619)" style="opacity:.10001"><g transform="translate(1119.1 1491)"><path d="m0 0c-0.417 42.53-0.232 84.772 0.934 127.29 0.278 10.113 0.527 20.288 0.582 30.478-39.073 5.54-72.515 31.387-96.928 57.122-10.325-127.91-20.92-255.86-37.337-383.14l130.92-14.135c1.085 60.79 2.423 121.58 1.827 182.38"/></g></g><g clip-path="url(#clipPath1635)" style="opacity:.3"><g transform="translate(546.4 1669.2)"><path d="m0 0c20.767 23.031 47.237 42.872 78.443 48.244 41.926 7.218 77.143-18.224 117.03-25.789 53.504-10.147 107.46 2.228 159.73 13.499 22.741 4.903 46.505 9.145 69.288 2.056 22.458-6.988 40.203-24.097 56.869-39.93 18.423-17.504 36.282-31.653 59.448-42.372 15.395-7.124 29.234-16.93 41.091-29.06 15.569-15.927 27.185-35.04 36.19-55.356-2.684 37.966-4.583 66.442-4.583 71.016 0 15.622-0.288 37.548-16.923 36.451-55.648-3.669-102.1 36.955-130.91 70.993-19.615 23.18-51.357 32.401-80.079 22.544-49.917-17.131-131.63-30.807-212.47 18.073-160.28 96.915-215.74-58.235-215.74-58.235-15.765-30.215-30.201-111.46-40.639-184.56 18.534 55.546 44.896 109.89 83.246 152.42"/></g></g><g clip-path="url(#clipPath1651)" style="opacity:.60001"><g transform="translate(643.56 2087.1)"><path d="m0 0c-16.081 13.713-38.308 5.915-56.078 0.362-18.684-5.839-36.938-13.028-54.603-21.459-10.228-4.882-35.419-12.718-45.232-18.418-43.397-10.291-67.807-37.382-100.69-65.976-13.92-12.104-26.434-27.91-34.385-45.231-11.463-15.4-19.794-32.79-22.023-52.37-2.064-18.137 2.511-36.112 18.635-46.356 15.072-9.577 33.944-9.852 50.947-6.569 41.852 8.079 72.181 41.04 98.195 72.296 28.582 34.34 58.814 66.998 92.118 96.837 16.37 14.667 34.149 27.564 50.713 41.935 14.028 12.171 17.672 31.928 2.402 44.949" style="fill:#fff"/></g></g><g clip-path="url(#clipPath1667)" style="opacity:.60001"><g transform="translate(796.66 2012.6)"><path d="m0 0c-0.323 0.818-0.714 1.605-1.168 2.353 3.398 1.976 6.9 3.655 10.568 4.858-3.267-2.255-6.408-4.683-9.4-7.211m-24.722 21.659c-0.677 0.225-1.354 0.448-2.035 0.635 1.645 0.476 3.317 0.937 5.03 1.37-1.003-0.664-2.003-1.331-2.995-2.005m116.65 7.953c-48.045 28.165-73.751 23.068-105.67 19.149-43.974-5.399-83.585-29.697-106.81-67.659-19.875-32.486-33.975-85.721-11.135-120.27 12.187-18.432 34.514-23.857 54.361-14.702 20.82 9.604 30.912 30.737 40.644 50.187 11.202 22.387 22.247 45.6 38.124 65.141 12.11 14.904 33.502 30.611 58.709 27.377 121.24-15.554 32.06 40.431 31.777 40.775" style="fill:#fff"/></g></g><g clip-path="url(#clipPath1683)" style="opacity:.60001"><g transform="translate(1217.8 1915.6)"><path d="m0 0c-8.887 13.005-22.011 28.988-39.237 29.206-0.38 4e-3 -0.747-0.033-1.122-0.041-0.316 0.114-0.63 0.231-0.956 0.323-3.823 1.073-7.652 1.365-11.442 1.101-0.622 0.02-1.274-0.023-1.974-0.172-5.059-0.625-10.02-2.268-14.771-4.543-58.92-22.28-103.27-90.865-76.605-152.9 1.207-2.809 2.592-5.539 4.067-8.219 1.543-3.896 3.721-7.411 6.649-10.429 14.434-19.686 36.315-33.732 61.203-35.339 36.189-2.337 60.2 23.872 62.93 58.352 1.664 21.015-2.27 43.125-6.312 63.674-0.654 3.323-1.365 6.631-2.115 9.929 3.434 1.147 6.65 2.988 9.37 5.411 1.725 0.858 3.384 1.816 4.955 2.867 14.961 10.01 14.79 26.984 5.36 40.783" style="fill:#fff"/></g></g><g clip-path="url(#clipPath1699)" style="opacity:.60001"><g transform="translate(1311 1649.4)"><path d="m0 0c-18.707-14.207-95.055-67.719-83.735-140.59 6.506-41.884 32.287-53.4 51.842-54.413 109.55-5.671 130.02 81.639 134.61 112.78 2.48 16.826-18.224 49.909-64.199 83.458-8.545 2.639-30.405 4.92-38.519-1.242" style="fill:#fff"/></g></g><g transform="translate(434.79 1125.3)"><path d="m0 0c-0.437-0.873-0.995-3.236-1.633-6.829-5.061-28.537-15.068-134.68-8.131-188.44 7.811-60.535 17.575-113.26 76.157-154.27s126.93-70.949 214.8-84.618c87.872-13.669 185.48-22.787 239.21-11.066 53.7 11.717 95.076 23.484 125.95 60.535 29.291 35.149 50.771 72.251 56.629 113.26s7.811 140.6 7.811 193.32c0 52.723 3.906 212.85 3.906 212.85l-263.62 224.56-372.97-195.27" style="fill:#ffceba"/></g><g clip-path="url(#clipPath1719)" style="opacity:.2"><g transform="translate(639.83 667.67)"><path d="m0 0-0.666-1.331c0.347-15.834 8.351-29.892 25.807-36.754 11.893-4.674 30.772-5.123 43.027-1.802 9.798 2.657 12.873 6.514 22.366 9.527 10.401 3.3 13.614 0.828 21.123-5.385 12.229-10.118 42.247-22.366 59.643-21.123 25.214 1.801 39.664 12.929 50.53 16.153-14.359-0.42-23.816-16.568-84.08 2.071-21.865 6.762-34.907 32.135-34.907 32.135s-22.13-20.829-39.705-26.687c-17.575-5.859-30.593-3.906-47.517 3.254-16.923 7.16-15.621 29.942-15.621 29.942"/></g></g><g clip-path="url(#clipPath1735)" style="opacity:.2"><g transform="translate(846.77 670.13)"><path d="m0 0c-2.436 5.346-4.961 10.65-7.574 15.909l-4.747-2.748s5.974-4.154 12.321-13.161" style="fill:#fff"/></g></g><g clip-path="url(#clipPath1751)" style="opacity:.8"><g transform="translate(926.67 886.39)"><path d="m0 0c0.439 0.225 0.888 0.42 1.323 0.653 20.551 10.981 35.08 30.952 43.48 52.307 7.236 18.392 11.302 39.551 7.733 59.219-0.814 4.485-3.109 16.16-7.122 25.458-68.618 4.226-95.976-89.153-95.976-89.153 8.513-24.591 28.256-39.998 50.562-48.484" style="fill:#fdfff0"/></g></g><g clip-path="url(#clipPath1767)" style="opacity:.2"><g transform="translate(1069.5 1094.6)"><path d="m0 0c1.705-0.834 3.374-1.682 4.968-2.568-11.282 15.181-24.224 29.13-39.5 41.626 12.568-12.303 24.237-25.209 34.532-39.058" style="fill:#fff"/></g></g><g transform="translate(540.24 1049.1)"><path d="m0 0s-1.953-88.849 68.345-114.24c0 0-62.975 7.323-74.692 109.35z" style="fill:#3f2000"/></g><g clip-path="url(#clipPath1787)" style="opacity:.2"><g transform="translate(948.97 1305.2)"><path d="M 0,0 C -8.697,11.793 -17.686,23.595 -25.95,35.807 -18.603,23.939 -10.004,11.856 0,0"/></g></g><g clip-path="url(#clipPath1803)" style="opacity:.2"><g transform="translate(887.17 1421.8)"><path d="m0 0c1.949-6.768 4.494-14.672 7.745-23.365-2.79 10.413-4.971 20.95-6.608 31.562-1.086-4.077-2.164-8.157-3.191-12.246 0.672 1.387 1.356 2.739 2.054 4.049" style="fill:#fff"/></g></g><g clip-path="url(#clipPath1819)" style="opacity:.2"><g transform="translate(1146.9 857.61)"><path d="m0 0c0.16 0 0.16 0.248 0 0.248s-0.16-0.248 0-0.248"/></g></g><g clip-path="url(#clipPath1835)" style="opacity:.2"><g transform="translate(1084.4 956.55)"><path d="m0 0c0.16 0 0.16 0.248 0 0.248s-0.16-0.248 0-0.248"/></g></g><g clip-path="url(#clipPath1851)" style="opacity:.8"><g transform="translate(571.26 956.94)"><path d="m0 0c4.673 2.52 9.057 5.533 13.474 8.467 11.81 7.844 23.656 14.696 32.448 26.176 20.459 26.714 21.633 57.389 13.291 86.952-55.484 1.651-94.508-34.779-94.138-38.216 4.343-40.365 17.652-66.606 34.925-83.379" style="fill:#fff"/></g></g><g clip-path="url(#clipPath1867)" style="opacity:.2"><g transform="translate(651.81 1062.5)"><path d="m0 0c-14.23 14.606-36.686 16.529-54.577 8.004-18.973-9.04-30.006-29.436-25.23-50.226 0.21-0.912 0.595-1.777 0.86-2.676 0.547-5.516 1.989-10.782 4.41-15.401 4.748-13.37 22.74-21.154 36.791-22.241 20.759-1.605 39.917 9.713 47.636 29.156 7.022 17.686 3.568 39.571-9.89 53.384" style="fill:#fff"/></g></g><g transform="translate(635.68 1026.8)"><path d="m0 0c0-14.035-10.883-25.413-24.308-25.413s-24.308 11.378-24.308 25.413c0 14.036 10.883 25.413 24.308 25.413s24.308-11.377 24.308-25.413" style="fill:#fff"/></g><g transform="translate(426.98 1125.3)"><path d="m0 0c-0.437-0.873-0.996-3.236-1.633-6.829-5.061-28.537-15.068-134.68-8.131-188.44 7.811-60.535 17.575-113.26 76.157-154.27 58.581-41.007 126.93-70.949 214.8-84.618 87.873-13.669 185.48-22.787 239.21-11.066 53.7 11.717 95.076 23.484 125.95 60.535 29.291 35.149 50.771 72.251 56.629 113.26s7.811 140.6 7.811 193.32c0 52.723 3.906 212.85 3.906 212.85l-263.62 224.56-372.97-195.27" style="fill:#ffceba"/></g><g clip-path="url(#clipPath1891)" style="opacity:.3"><g transform="translate(768.46 1279.5)"><path d="m0 0c-25.814-7.032-50.226-17.875-74.8-28.29-22.993-9.745-46.109-18.48-70.281-24.829-20.511-5.387-41.303-9.548-61.889-14.617-41.232-10.152-79.691-26.386-103.26-63.66-17.329-27.409-29.854-59.409-39.764-90.788-3.409-42.27-5.485-94.532-1.253-127.33 7.811-60.535 17.574-113.26 76.156-154.27 58.582-41.007 126.93-70.948 214.8-84.618 13.095-2.037 26.407-3.969 39.757-5.749 4.06-0.541 51.972-8.56 55.327-6.211 8.284 5.798 4.556 11.597-5.798 19.881-3.202 2.561-25.265 9.112-33.549 11.597-21.71 6.513-61.28-2.651-83.251 1.657-45.308 8.883-124.43 42.842-161.53 72.068-23.496 18.509-55.747 48.185-36.034 64.612 3.728 3.107 3.728-20.502 55.915-14.91 12.119 1.298 118.46 54.465 24.851 100.02-17.696 8.613-36.034 37.484-40.59 51.152-12.502 37.505-14.917 78.781 8.698 110.17 23.32 30.999 62.499 48.132 100.59 55.264 39.465 7.389 78.592-12.735 118.19-9.756 13.853 1.042 39.517 9.891 39.739 27.457 0.174 13.729-18.607 23.078-28.945 28.082-13.349 6.463-27.756 11.264-42.211 14.543-22.772 5.168-48.921 6.92-71.804 4.109-5.63-0.656-5.677 2.828 6e-3 3.526 30.781 3.59 62.203 16.799 89.607 30.788 12.667 6.466 25.184 13.766 32.241 26.662 1.321 2.414 5.79 10.54 2.962 13.052-1.85 1.645-5.813 0.102-9.69-2.123 1.389 0.398 2.768 0.823 4.165 1.204 5.506 1.499 7.121-7.216 1.644-8.708" style="fill:#fff"/></g></g><g clip-path="url(#clipPath1907)" style="opacity:.2"><g transform="translate(878.06 1484.6)"><path d="m0 0-11.267-5.899c-0.468-2.039-0.938-4.078-1.348-6.13-3.24-16.202-7.226-40.177 3.501-54.086 2.325 2.285 6.965 2.035 7.42-2.061 0.177-1.596 0.393-3.184 0.61-4.772 1.216-0.666 2.509-1.273 3.911-1.794 5.136-1.907 2.718-9.683-2.207-8.56 2.19-11.442 5.356-22.669 9.419-33.641 23.443-63.305 68.701-120.79 120.82-163.16 24.859-20.209 51.742-38.253 73.685-61.805 17.609-18.9 22.561-43.159 23.01-70.032 0.315-18.888 8.105-51.914-9.94-57.157-21.615-6.281-50.531 77.038-181.41 44.731-25.204-6.221-43.345-45.198-47.217-63.37-5.385-25.265-4.05-40.828-0.414-64.198 2.899-18.639 28.879-42.334 57.571-53.844 23.89-9.584 54.217-13.362 79.524-12.426 18.079 0.669 40.301-1.929 57.157-9.94 16.288-7.742 37.302-27.59 27.336-55.915-23.608-67.098-70.965-79.618-113.49-99.818-27.779-13.198-62.74-19.083-93.095-26.013 25.414-0.092 53.798 0.6 71.558 4.475 53.7 11.716 97.076 24.379 127.95 61.429 29.291 35.149 50.771 72.251 56.629 113.26 5.858 41.007 0 140.6 0 193.32 0 52.724 3.906 212.85 3.906 212.85z" style="fill:#a1421d"/></g></g><g clip-path="url(#clipPath1923)" style="opacity:.2"><g transform="translate(628.47 919.17)"><path d="m0 0s53.43-6.213 88.221 21.124c34.792 27.336 35.413 116.8-8.076 151.59-22.147 17.717-90.085 45.353-138.54 27.957-48.459-17.396-52.187-88.221-45.974-110.59 6.212-22.366 21.744-52.187 36.655-63.37s35.413-24.23 67.719-26.715" style="fill:#a1421d"/></g></g><g clip-path="url(#clipPath1939)" style="opacity:.2"><g transform="translate(665.89 861.88)"><path d="m0 0c0.796 2.38 2.104 4.544 3.873 6.459-0.865-2.39-2.175-4.565-3.873-6.459m6.577 16.605c-1.135-0.59-2.212-1.316-3.251-2.1-0.663-0.113-1.326-0.386-1.922-0.865-6.289-5.053-9.573-12.956-8.796-20.979 0.235-2.425 2.587-4.086 4.891-2.807 8.724 4.844 14.038 14.224 13.497 24.216-0.123 2.272-2.386 3.591-4.419 2.535" style="fill:#fff"/></g></g><g clip-path="url(#clipPath1955)" style="opacity:.2"><g transform="translate(897.68 824.39)"><path d="m0 0c-4.052 5.377-18.197 13.505-20.258 1.845-0.323-1.829 0.041-3.779 1.266-5.211 1.607-1.882 3.521-1.592 5.574-2.398 0.165-0.065 0.311-0.157 0.466-0.237 2.017-3.086 3.986-6.176 5.108-9.961 1.121-3.784 2.469-8.823 7.56-8.3 10.373 1.066 3.706 19.721 0.284 24.262" style="fill:#fff"/></g></g><g clip-path="url(#clipPath1971)" style="opacity:.2"><g transform="translate(795.52 851.08)"><path d="m0 0c-1.716 1.593-4.254 2.203-6.44 1.817-0.939 0.024-1.891-0.252-2.823-0.913-0.613-0.048-1.235-0.391-1.498-1.039-0.128-0.318-0.225-0.645-0.348-0.964-0.203-0.297-0.433-0.564-0.609-0.888-4.019-4.897-7.529-11.98-5.852-17.985 2.415-8.647 12.268-5.355 18.457-6.189 2.369-0.319 4.245 0.884 4.442 3.384 0.542 6.887 0.197 17.647-5.329 22.777" style="fill:#fff"/></g></g><g clip-path="url(#clipPath1987)" style="opacity:.2"><g transform="translate(740.28 963.58)"><path d="m0 0c-0.181 1.07-1.697 1.356-2.385 0.63-4.522-4.772-6.241-11.153-9.519-16.774-3.555-6.098-8.871-10.944-12.342-17.001-1.134-1.979 1.084-3.937 2.988-2.988 6.557 3.268 11.42 10.493 15.186 16.58 3.705 5.989 7.282 12.372 6.072 19.553" style="fill:#fff"/></g></g><g clip-path="url(#clipPath2003)" style="opacity:.2"><g transform="translate(866.93 931.22)"><path d="m0 0c-1.441 3.618-8.358 29.671-15.989 19.979-2.447-3.108-2.563-9.776-1.973-13.492 0.443-2.791 1.489-5.079 3.258-7.28 1.005-1.25 2.72-2.332 4.007-3.55 1.125-2.035 2.397-3.936 3.764-5.614 1.925-2.363 4.928-4.686 7.83-2.147 3.572 3.127 0.406 8.831-0.897 12.104" style="fill:#fff"/></g></g><g transform="translate(536.33 1129.2)"><path d="m0 0c-1.258-4.717 31.732 37.59 81.526 43.448 39.153 4.606 81.11-7.433 95.196-12.204 15.133-5.126 40.275-10.984 40.275-10.984l11.472 34.416-10.74 3.906-8.787-16.598-2.929 19.527-14.646 4.882s6.835-7.567 2.929-14.401c-3.905-6.835-7.811-2.198-7.811-2.198s-3.905 16.599-9.763 19.528-14.645 1.953-14.645 1.953 10.74-9.764 7.81-14.646c-2.929-4.882-13.181 12.693-23.921 13.669-10.74 0.977-45.907 1.09-67.369-1.464-20.503-2.441-70.786-39.543-78.597-68.834" style="fill:#3f2000"/></g><g clip-path="url(#clipPath2023)" style="opacity:.2"><g transform="translate(622.1 1179.4)"><path d="m0 0c13.051 5.872 26.173 12.428 39.683 17.131 3.679 1.281 7.391 2.403 11.125 3.431-15.23 0.434-40.923 0.089-57.975-1.941-20.504-2.44-70.787-39.542-78.598-68.833-1.138-4.269 25.786 29.987 67.832 40.867 5.632 3.686 11.845 6.605 17.933 9.345" style="fill:#fff"/></g></g><g transform="translate(925.9 1159.4)"><path d="m0 0-4.882-35.149s11.54-3.905 22.457-3.905c15.133 0 22.148 0.271 39.054-1.953 18.551-2.441 37.931-4.578 61.023-13.181 24.897-9.276 42.471-16.11 53.211-33.685 9.566-15.653 6.835-20.503 6.835-20.503s3.906 17.574-0.977 34.172c-4.881 16.599-37.101 39.055-55.652 46.865-18.551 7.812-59.561 23.245-67.369 23.433-13.507 0.326-19.527-13.669-19.527-13.669l-7.811 19.528c-1.465-11.473-7.811-20.504-7.811-20.504s3.661 14.89-2.197 18.795-9.519 2.685-9.519 2.685 4.881-2.929 1.952-11.716c-2.929-8.788-8.787 8.787-8.787 8.787" style="fill:#3f2000"/></g><g clip-path="url(#clipPath2043)" style="opacity:.2"><g transform="translate(1018.7 1137)"><path d="m0 0c-3.829 3.525-7.723 7.044-11.699 10.491-12.643 4.484-23.754 7.983-27.444 8.072-13.506 0.326-19.527-13.669-19.527-13.669l-7.811 19.527c-1.465-11.472-7.811-20.503-7.811-20.503s3.661 14.889-2.197 18.795-9.52 2.685-9.52 2.685 4.882-2.929 1.953-11.717c-2.929-8.787-8.787 8.788-8.787 8.788l-4.882-35.149s11.54-3.906 22.456-3.906c15.134 0 22.149 0.272 39.055-1.952 18.551-2.441 37.931-4.578 61.022-13.181 3.162-1.178 6.197-2.317 9.121-3.444-10.379 12.383-21.828 24.023-33.929 35.163" style="fill:#fff"/></g></g><g transform="translate(183.42 1003.8)"><path d="m0 0c-18.154-48.41 37.004-77.986 23.433-128.88-20.829-78.109 113.26-153.61 113.26-153.61s-44.262 191.37 29.942 235.63c69.641 41.541 15.622 54.677 15.622 54.677s-7.811 59.883-7.811 70.298-127.58 46.866-174.44-78.109" style="fill:#613100"/></g><g clip-path="url(#clipPath2063)" style="opacity:.2"><g transform="translate(365.68 1011.6)"><path d="m0 0s-0.829 6.358-1.945 15.272c-10.055-3.889-19.296-10.419-27.138-17.518-21.756-19.694-39.993-41.378-65.991-56.123-22.698-12.873-52.274-20.871-76.682-7.629-1.449 0.786-2.913 1.695-4.382 2.659 8.57-18.163 19.61-36.024 19.476-57.441 1.098-0.857 2.15-1.838 3.127-2.955 7.994-9.146 12.784-22.077 15.318-33.8 4.866-22.516 9.207-43.282 17.902-64.753 1.753-4.329 3.942-9.804 4.763-15.221 32.309-31.576 69.988-52.796 69.988-52.796s-44.261 191.37 29.942 235.63c69.642 41.541 15.622 54.677 15.622 54.677"/></g></g><g clip-path="url(#clipPath2079)" style="opacity:.2"><g transform="translate(365.68 1011.6)"><path d="m0 0s-0.78 5.981-1.844 14.464c-6.283-15.98-14.009-31.438-21.939-45.865-10.021-37.059-66.732-49.415-82.46-82.769-15.526-32.926 8.047-93.932 22.635-128.55 7.148-16.964 20.273-29.9 31.853-43.895 3.908-2.4 6.191-3.686 6.191-3.686s-44.261 191.37 29.942 235.63c69.642 41.541 15.622 54.677 15.622 54.677"/></g></g><g clip-path="url(#clipPath2095)" style="opacity:.2"><g transform="translate(324.67 1086.3)"><path d="m0 0c-40.383 5.591-57.365-2.899-79.731-14.497-18.399-9.54-40.634-36.335-43.74-56.943 13.885 16.693 26.994 23.851 47.945 30.308-5.736-7.171-15.609-8.815-22.014-15.961-5.388-6.01-9.757-14.002-12.298-21.429 7.294 4.833 13.774 13.422 22.393 18.27 7.675 4.318 16.531 6.499 24.532 9.838-2.902-12.479-18.04-26.755-27.827-35.504 16.549 0.635 39.492 16.795 53.256 26.69 34.792 44.731 35.687 16.236 41.833 30.028-3.163 8.285-5.501 20.183-4.349 29.2" style="fill:#fff"/></g><g transform="translate(324.67 1092.5)"><path d="m0 0c-15.291 2.053-30.793 2.677-45.979-0.511-11.162-2.344-21.611-7.032-31.73-12.178-12.27-6.24-22.737-14.468-31.637-25.026-9.197-10.909-17.722-23.968-20.115-38.287-0.909-5.438 5.954-11.303 10.384-6.044 12.349 14.661 27.047 23.047 45.203 28.71-2.015 3.461-4.03 6.923-6.045 10.384-5.689-6.591-14.751-8.798-20.975-14.877-6.992-6.827-11.691-16.16-14.935-25.254-1.773-4.97 4.755-10.044 9.127-7.016 6.898 4.778 12.277 11.339 19.098 16.173 7.858 5.569 17.531 7.735 26.343 11.308-2.547 2.548-5.095 5.095-7.642 7.643-3.492-13.345-16.374-23.927-26.23-32.762-3.917-3.512-0.911-10.921 4.393-10.606 14.251 0.846 27.5 8.326 39.298 15.82 5.752 3.654 11.825 7.379 17.094 11.717 5.887 4.848 10.154 12.122 15.722 17.494 2.995 2.889 6.187 5.686 9.975 7.49 0.205 0.097 1.102 0.421 2.461 0.76 1.014 0.254-1.294-0.065 0.364 0.025 0.47 0.025 0.934-0.029 1.402-0.036 1.083-0.015-1.52 0.287-0.269 0.029 0.319-0.066 0.638-0.135 0.957-0.201 1.095-0.227 2.192-0.503 3.315-0.558 2.538-0.124 4.894 0.655 6.79 2.38 3.127 2.843 4.719 6.95 3.478 10.999-2.641 8.62-4.596 17.13-3.634 26.211 0.841 7.943-11.591 7.884-12.426 0-1.093-10.322 1.009-21.172 4.571-30.851 0.209 1.595 0.417 3.191 0.626 4.787-0.256-0.559-0.504-1.137-0.827-1.662-0.877-1.425-0.412-0.125-3e-3 -0.154-0.854 0.06 0.494 0.269 0.306 0.172 1.637 0.836 0.044 0.327 1.96 0.507-1.54-0.145 1.664-0.452-0.347 0.036-0.629 0.152-1.264 0.283-1.902 0.393-6.834 1.176-13.005-1.422-18.443-5.473-5.099-3.796-9.569-8.298-13.762-13.06-2.843-3.229-5.321-7.225-8.564-9.978-2.544-2.159-5.565-3.947-8.323-5.822-11.506-7.821-25.449-17.746-39.819-18.6 1.464-3.535 2.929-7.07 4.393-10.606 11.578 10.38 25.34 22.629 29.425 38.246 1.086 4.151-3.055 9.502-7.642 7.642-9.319-3.779-19.496-6.17-28.016-11.685-7.501-4.856-13.092-11.992-20.394-17.049 3.043-2.339 6.085-4.678 9.127-7.016 2.764 7.748 7.146 16.548 13.878 21.6 6.216 4.665 13.617 7 18.836 13.048 3.807 4.41 0.278 12.356-6.045 10.384-20.077-6.263-37.008-15.668-50.686-31.906l10.384-6.045c2.129 12.739 9.568 24.328 17.898 33.95 8.382 9.68 17.791 16.713 29.159 22.452 9.249 4.669 18.702 8.645 28.915 10.647 13.645 2.676 27.828 1.667 41.508-0.17 3.354-0.45 6.181 3.179 6.213 6.213 0.039 3.726-2.901 5.768-6.213 6.213" style="fill:#fff"/></g></g><g transform="translate(1215.4 1001.5)"><path d="m0 0s26.85 7.729 50.283-18.307c23.432-26.036 53.7-49.144 61.511-90.802s1.952-70.949-18.877-104.8-70.298-72.902-83.316-98.938c-13.018-26.037-15.622-67.695-15.622-67.695s-51.096 28.315-43.285 82.991c7.81 54.676 56.28 97.833 27.663 122.7-39.705 34.498-40.356 108.05-30.592 104.8 9.763-3.255 47.028 2.359 52.235 70.054" style="fill:#613100"/></g><g clip-path="url(#clipPath2119)" style="opacity:.2"><g transform="translate(1327.2 892.36)"><path d="m0 0c-1.945 10.371-5.283 19.588-9.559 27.991-2.369-24.075-13.994-44.538-42.288-51.346-28.012-6.74-58.754 4.299-83.667 16.544-10.949 5.381-23.374 12.429-33.469 21.439 1.664-23.81 11.339-59.337 35.547-80.37 28.617-24.864-19.853-68.02-27.664-122.7-7.811-54.677 43.285-82.991 43.285-82.991s2.604 41.658 15.622 67.694c13.019 26.037 62.487 65.091 83.317 98.939 20.829 33.847 26.687 63.138 18.876 104.8"/></g></g><g clip-path="url(#clipPath2135)" style="opacity:.2"><g transform="translate(1328.5 884.81)"><path d="m0 0c-0.034-0.466-0.039-0.925-0.078-1.392-2.772-33.756-15.196-65.464-39.276-89.639-11.898-11.944-36.463-35.3-50.529-13.34-7.977 12.454-7.976 28.425-12.109 42.244-5.041 16.856-15.889 28.638-28.882 39.977-12.018 10.489-28.836 22.461-38.667 37.197 2.939-23.347 12.919-54.218 34.823-73.249 28.617-24.864-19.853-68.02-27.663-122.7-7.812-54.676 43.285-82.991 43.285-82.991s2.603 41.658 15.621 67.694c13.019 26.037 62.488 65.091 83.317 98.939 19.549 31.767 25.908 59.523 20.158 97.256"/></g></g><g clip-path="url(#clipPath2151)" style="opacity:.2"><g transform="translate(1224.9 950.85)"><path d="m0 0c3.415 0.378 11.875-3.588 15.497-8.535-6.752 1.157-15.132 5.537-21.675 8.471 6.109 7.424 17.045 7.079 25.776 5.129-5.415 5.671-10.56 12.807-17.763 16.147 7.273-0.083 14.387-0.521 20.146-5.236-7.002 3.784-11.103 11.024-15.324 17.385 21.003 0.635 29.336-23.925 39.926-37.708 11.712-15.242 26.305-24.455 24.267-46.218-3.537 9.621-14.345 16.037-24.564 18.126 5.571-5.739 10.519-12.604 9.441-20.887-10.967 6.652-13.918 18.735-28.046 23.474 2.262-4.085 5.238-8.682 5.733-13.35-10.773 11.028-19.613 10.187-31.825 14.623 1.925 0.217 5.68 2.288 8 2.733-4.058 2.595-8.425 4.647-10.761 8.515 4.904 2.828 15.668 3.402 18.568 3.663" style="fill:#fff"/></g><g transform="translate(1224.9 946.43)"><path d="m0 0c4.468-0.189 9.455-4.252 12.058-7.556 1.577 2.709 3.154 5.418 4.731 8.128-7.219 1.521-13.789 5.044-20.45 8.086 0.336-2.611 0.672-5.22 1.009-7.83 5.377 5.941 13.684 5.28 20.889 3.717 4.995-1.083 8.538 4.724 4.981 8.557-5.783 6.232-11.005 13.112-18.731 17.064l-2.652-9.792c6.387-0.136 12.212-0.596 17.463-4.572 1.789 3.061 3.578 6.121 5.367 9.181-6.113 3.592-9.599 9.725-13.383 15.498-1.541-2.686-3.083-5.373-4.625-8.059 17.277 0.075 24.713-19.995 32.889-32.048 5.094-7.508 11.592-13.823 17.212-20.903 6.096-7.681 9.065-15.76 8.326-25.619 3.775 0.511 7.55 1.022 11.325 1.533-4.935 12.074-16.133 19.355-28.598 22.124-5.554 1.234-9.627-5.334-5.581-9.587 4.599-4.834 8.359-9.863 7.783-16.831 2.866 1.644 5.732 3.289 8.598 4.933-5.258 3.359-8.79 8.444-12.959 12.966-4.676 5.07-9.967 8.696-16.461 11.051-4.849 1.758-8.697-4.292-6.414-8.343 2.189-3.884 4.443-7.524 5.174-11.989 3.157 1.837 6.313 3.674 9.469 5.512-4.862 4.791-10.243 8.429-16.661 10.79-5.772 2.124-11.863 3.228-17.672 5.258v-10.862c2.766 0.588 5.266 2.008 8.005 2.713 4.851 1.247 5.366 7.809 1.351 10.332-2.976 1.87-6.641 3.539-8.689 6.513-0.682-2.602-1.364-5.204-2.047-7.806 4.638 2.37 10.59 2.404 15.689 2.814 7.373 0.592 7.401 12.202 0 11.552-7.257-0.638-14.872-1.092-21.447-4.514-2.578-1.341-3.754-5.366-2.047-7.805 3.364-4.807 7.93-7.485 12.834-10.516l1.35 10.332c-2.734-0.725-5.224-2.169-7.994-2.753-5.833-1.229-4.851-9.157 0-10.862 10.692-3.759 20.9-4.874 29.316-13.199 4.326-4.278 10.327 0.211 9.469 5.513-0.867 5.365-3.669 10.036-6.292 14.71-2.138-2.781-4.276-5.562-6.414-8.342 11.401-4.158 16.695-16.533 26.672-22.932 3.926-2.518 8.255 0.872 8.598 4.934 0.838 9.925-4.547 18.03-11.099 24.943-1.86-3.195-3.721-6.391-5.581-9.587 8.006-1.794 17.225-6 20.529-14.128 2.421-5.953 10.806-5.239 11.325 1.533 0.869 11.315-2.526 21.496-9.336 30.482-6.155 8.12-13.776 15.009-19.409 23.535-10.183 15.41-19.875 35.431-41.213 35.265-3.881-0.03-6.915-4.592-4.625-8.059 4.84-7.33 9.488-14.738 17.266-19.273 6.073-3.54 10.692 5.177 5.367 9.181-6.67 5.014-14.734 5.818-22.83 5.9-5.015 0.052-7.418-7.42-2.652-9.791 6.937-3.452 11.569-9.724 16.795-15.23 1.661 2.852 3.321 5.704 4.981 8.556-10.698 2.195-22.811 2.213-30.662-6.54-1.934-2.156-2.091-6.431 1.009-7.83 7.431-3.353 14.816-7.339 22.898-8.855 4.917-0.922 7.869 4.322 4.731 8.128-4.204 5.099-12.038 10.148-18.935 9.513-5.594-0.515-5.766-8.591 0-8.834" style="fill:#fff"/></g></g><g transform="translate(1207.4 1030.2)"><path d="m0 0s12.367-24.083 7.811-46.214-18.226-53.375-42.309-57.931c-24.084-4.557-1.953 35.149-1.953 35.149z" style="fill:#ffb704"/></g><g transform="translate(374.75 1032)"><path d="m0 0c-4.15 8.299-12.963 67.49-12.963 67.49s-10.538 11.546-21.942-9.396c-13.425-24.653 21.724-73.716 21.724-73.716z" style="fill:#ffb704"/></g><g clip-path="url(#clipPath2179)" style="opacity:.3"><g transform="translate(347.39 1062.4)"><path d="m0 0c4.37 6.678 11.323 9.348 18.716 10.076-0.891 5.275-1.708 10.315-2.386 14.583-6.526 0.125-13.882-3.776-18.295-7.745-4.282-3.851-6.158-9.388-6.985-15.175 1.141-4.774 2.801-9.608 4.712-14.278 0.525 4.558 1.848 8.887 4.238 12.539" style="fill:#fff"/></g></g><g clip-path="url(#clipPath2195)" style="opacity:.2"><g transform="translate(348.62 1064.8)"><path d="m0 0c-2.477-3.659-4.718-11.124-5.055-17.616 7.24-16.229 16.762-29.534 16.762-29.534l13.181 15.621c-2.089 4.178-5.359 21.248-8.092 37.174-5.684 2.391-12.227 1.102-16.796-5.645"/></g></g><g transform="translate(1167.1 1338.1)"><path d="m0 0c-93.731 124.98-162.1 164.44-238.23 185.51-70.868 19.617-272.14 38.873-410.07-60.534-72.25-52.073-130.18-115.86-143.85-174.44-13.669-58.582-20.178-85.269-16.272-151.66 3.905-66.392 13.669-105.45 13.669-105.45s39.054 5.859 54.676-1.952c0 0 54.676 160.77 62.487 178.35 7.551 16.99 223.14 33.382 350.38 173.82 0.766-95.663 113.06-168.62 113.06-168.62-97.065 99.575-86.021 170.64-65.744 208.71 10.844-37.65 39.725-110.06 110.01-161.84 98.938-72.902 101.54-78.109 101.54-78.109l36.451-46.865s-5.208-56.63-1.302-97.637c3.905-41.007 8.787-107.4 8.787-107.4s13.994 11.066 25.711 7.16c11.716-3.905 53.374 100.24 57.28 131.48 3.905 31.243 35.149 144.5-58.582 269.48" style="fill:#613100"/></g><g clip-path="url(#clipPath2215)" style="opacity:.2"><g transform="translate(476.62 1191)"><path d="m0 0c-21.655-12.209-40.458-29.799-55.708-49.308-14.701-18.805-28.69-40.926-35.787-63.864-4.559-14.734-5.183-30.129-6.162-45.481 11.835 1.279 36.403 3.03 48.022-2.779 0 0 41.82 122.97 57.53 165.56-2.663-1.295-5.299-2.66-7.895-4.124"/></g></g><g clip-path="url(#clipPath2231)" style="opacity:.2"><g transform="translate(887.17 1421.8)"><path d="m0 0c1.949-6.768 4.494-14.672 7.745-23.365-11.483 42.869-12.852 87.811-6.992 131.66-18.266 2.407-6.865 3.527-29.993 4.716-5.384-19.133-28.164-42.247-46.389-79.523-20.557-42.05-42.499-79.094-82.836-108.52-44.492-32.453-168.16-83.665-339.01-104.8-5.114-0.633-15.137-7.047-22.17-12.911-0.544-1.673-1.166-3.326-2.006-5.069-0.835-1.735-2.548-2.652-4.232-2.765-0.452-1.211-0.687-2.442-0.581-3.691 0.093-1.094-0.168-2.034-0.641-2.806-0.404-3.244-0.762-6.511-1.073-9.829 12.211 1.231 24.526 1.719 36.726 2.189 25.271 0.975 50.335 2.162 75.494 4.856 11.967 1.281 23.934 2.697 35.868 4.324 55.082 16.743 225.38 46.916 332.77 165.44 0.766-95.664 113.06-168.62 113.06-168.62-97.065 99.575-86.021 170.64-65.745 208.71"/></g></g><g clip-path="url(#clipPath2247)" style="opacity:.2"><g transform="translate(918.23 1246.4)"><path d="m0 0c-1.375 2.031-2.732 4.068-4.084 6.107-0.916 1.043-1.822 2.074-2.714 3.084-19.452 22.014-34.957 46.419-43.783 74.629-8.204 26.224-9.715 53.947-4.408 80.89 3.375 17.134 9.195 36.294 21.925 48.917-1.04 17.563-0.676 35.213 0.87 52.759-15.903-24.53-27.051-52.357-34.973-80.216-5.263-18.509-9.065-37.459-11.019-56.61 3.549-64.41 56.551-117.84 88.646-144.5-3.565 4.884-7.031 9.876-10.46 14.941" style="fill:#fff"/></g></g><g clip-path="url(#clipPath2263)" style="opacity:.10001"><g transform="translate(855.64 1402)"><path d="m0 0c2.062 30.484 13.573 58.609 28.971 84.608 0.134 7.457 2.667 37.048 3.247 44.486-3.739-5.05-19.796-25.793-22.883-30.649-6.432-10.118-15.666-28.238-20.295-39.348-9.18-22.03-10.601-47.567-10.769-68.754-0.048-6.056 0.842-11.473-0.406-17.43 2.137 2.241 4.259 4.503 6.35 6.811 0.352-44.003 24.303-83.192 50.067-112.7-7.486 13.166-14.004 26.879-19.255 41.212-10.683 29.158-17.135 60.599-15.027 91.759" style="fill:#fff"/></g></g><g clip-path="url(#clipPath2279)" style="opacity:.2"><g transform="translate(1167.1 1338.1)"><path d="m0 0c-66.426 88.568-122.84 135.36-175.77 161.54 2.839-2.313 9.831-2.813 12.546-5.199 24.686-21.697 44.259-48.399 61.26-76.363 18.464-30.373 65.335-73.394 80.271-105.65 15.639-33.774 28.159-62.622 33.548-99.404 4.214-28.76-24.574-57.006-35.564-84.671-1.455-3.663-6.302-3.944-8.194-0.494-0.163 0.298-0.346 0.573-0.511 0.869-1.21-15.845-3.908-58.569-0.786-91.344 3.905-41.007 8.787-107.4 8.787-107.4s13.994 11.066 25.711 7.16c11.716-3.905 53.374 100.24 57.28 131.48 3.905 31.243 35.149 144.5-58.582 269.48"/></g></g><g clip-path="url(#clipPath2295)" style="opacity:.2"><g transform="translate(432.98 1329.4)"><path d="m0 0c-4.478 14.499 20.758 38.391 29.945 50.195 15.101 19.403 29.161 36.45 48.75 51.754 30.35 23.71 73.312 54.328 111.04 63.56-27.216-19.607-62.204-45.969-81.632-73.519 17.765 12.258 42.334 14.373 56.454 30.694 13.542 15.653 56.689 45.82 73.185 48.788-41.419-39.762-66.418-67.061-84.934-82.159 13.819-3.4 48.705 22.863 62.63 30.784 17.78 10.115 55.91 36.238 75.319 43.091-43.075-33.134-54.283-48.728-68.338-60.417-14.438-12.007-34.919-20.44-47.657-33.056 16.936 5.883 41.981 10.198 58.009 18.92 14.418 7.846 49.962 30.404 66.27 29.822-43.075-36.449-102.01-82.868-140.82-102.72-36.787-18.812-96.945-10.819-131.25-33.008 12.697 13.646 20.776 30.585 34.332 43.793 12.007 11.7 27.467 18.495 39.373 29.587-29.739-3.891-63.575-30.963-86.959-48.983 5.902 5.265 10.421 11.808 15.599 17.677-14.678-12.57-27.433-29.711-44.22-39.701 14.403 27.913 33.274 51.734 54.667 74.539" style="fill:#fff"/></g><g transform="translate(436.63 1330.4)"><path d="m0 0c-1.309 5.494 2.156 11.085 4.895 15.581 3.738 6.136 8.364 11.679 13.055 17.099 10.157 11.736 19.659 24.002 29.866 35.692 23.781 27.237 54.248 49.116 85.135 67.666 17.015 10.218 34.978 19.324 54.299 24.236-1.126 2.671-2.253 5.343-3.379 8.015-30.076-21.813-61.543-44.467-83.505-74.917-2.777-3.85 2.656-9.016 6.476-6.475 12.6 8.379 27.513 11.797 40.868 18.667 11.142 5.731 18.393 15.138 27.722 23.131 9.953 8.528 20.703 16.193 31.802 23.155 8.571 5.376 18.128 11.695 28.222 13.666-1.665 2.86-3.33 5.72-4.994 8.579-17.256-16.536-34.165-33.419-51.124-50.258-10.982-10.904-21.911-21.996-33.898-31.813-3.012-2.467-1.346-8.019 2.32-8.786 8.769-1.837 17.814 2.443 25.467 6.272 10.071 5.038 19.532 11.237 28.976 17.343 17.585 11.37 35.596 22.251 53.513 33.095 10.441 6.32 21.202 13.177 32.746 17.317-1.309 3.106-2.619 6.213-3.929 9.32-20.306-15.51-39.411-32.087-57.698-49.908-6.583-6.415-13.232-12.401-20.959-17.455-13.103-8.571-27.393-15.535-38.731-26.547-3.881-3.77 0.066-11.23 5.457-9.375 12.67 4.361 25.809 7.166 38.571 11.231 10.415 3.317 19.876 7.867 29.295 13.327 9.382 5.437 18.756 10.95 28.541 15.639 7.957 3.814 17.326 8.587 26.381 8.398-1.309 3.161-2.618 6.322-3.928 9.483-33.958-28.282-68.758-55.958-105.61-80.408-14.471-9.6-29.698-20.042-46.382-25.334-18.88-5.988-38.928-7.531-58.455-10.212-20.946-2.876-42.92-6.337-61.063-17.94 2.694-3.492 5.389-6.984 8.083-10.476 11.923 13.17 20.051 29.314 32.344 42.143 12.027 12.552 28.232 19.894 41.038 31.56 5.093 4.641-0.513 11.172-6.045 10.384-16.767-2.388-32.443-10.506-46.649-19.382-14.6-9.121-28.178-19.727-41.794-30.227 2.51-3.252 5.019-6.505 7.529-9.757 5.807 5.354 10.436 11.731 15.598 17.676 5.256 6.054-2.728 14.044-8.786 8.786-14.548-12.626-26.362-28.59-42.963-38.729 2.834-2.834 5.667-5.667 8.501-8.5 7.01 13.47 15.13 26.305 24.192 38.488 9.004 12.104 18.232 24.73 28.542 35.754 4.264 4.56-2.586 11.439-6.864 6.864-10.779-11.526-21.838-22.273-31.366-34.954-9.47-12.605-17.954-25.894-25.234-39.881-2.761-5.306 2.962-11.883 8.501-8.5 17.58 10.737 30.09 27.317 45.477 40.672l-8.786 8.786c-5.162-5.944-9.791-12.321-15.598-17.676-5.074-4.679 1.872-14.12 7.529-9.758 13.181 10.166 26.325 20.428 40.399 29.35 13.811 8.755 28.692 16.673 45.075 19.007l-6.045 10.384c-12.827-11.687-29.126-18.764-41.332-31.266-12.417-12.719-20.668-28.754-32.696-41.791-4.969-5.387 1.426-14.646 8.083-10.476 15.932 9.981 35.246 13.056 53.56 15.626 19.902 2.792 40.17 4.475 59.493 10.316 17.453 5.276 33.102 15.23 48.213 25.196 18.242 12.031 35.817 25.066 53.037 38.508 19.836 15.484 39.235 31.524 58.329 47.911 3.771 3.236 0.624 9.456-3.928 9.483-9.417 0.058-18.676-4.139-27.041-8.032-10.391-4.837-20.421-10.458-30.376-16.125-9.425-5.365-18.56-10.183-28.967-13.473-13.023-4.116-26.443-6.882-39.386-11.258 1.819-3.125 3.638-6.249 5.457-9.374 11.412 10.964 26.175 17.633 39.061 26.619 7.332 5.114 13.803 11.057 20.13 17.334 17.899 17.753 36.536 34.378 56.444 49.88 4.005 3.118-0.34 10.213-4.961 8.523-20.812-7.613-39.713-20.769-58.431-32.385-16.66-10.34-33.158-21.179-50.101-31.032-4.94-2.873-9.998-5.706-15.307-7.844-3.325-1.339-7.826-3.199-11.357-2.462l2.32-8.787c11.977 9.826 22.91 20.918 33.861 31.851 16.912 16.884 33.774 33.814 50.985 50.396 3.909 3.767-0.212 9.527-4.994 8.579-10.123-2.005-19.793-8.078-28.448-13.417-11.615-7.166-22.777-15.181-33.271-23.909-9.383-7.804-16.804-17.809-27.666-23.644-13.433-7.216-28.561-10.742-41.278-19.375l6.475-6.475c20.685 29.262 50.948 51.465 79.759 72.121 3.909 2.803 1.69 9.274-3.38 8.015-36.729-9.124-69.715-31.862-99.602-54.239-15.5-11.606-30.068-23.8-42.921-38.348-10.922-12.362-20.85-25.619-31.484-38.237-8.534-10.126-22.542-25.334-18.212-39.92 1.387-4.674 8.432-2.733 7.301 2.013" style="fill:#fff"/></g></g><g clip-path="url(#clipPath2315)" style="opacity:.2"><g transform="translate(916.74 1451.4)"><path d="m0 0c0-25.186 4.611-52.909 14.911-76.417 6.629-15.131 17.572-28.19 27.957-41.004 10.312-12.724 82.63-83.251 112.04-98.162-19.052 26.922-84.503 115.19-91.404 131.32 15.13-19.514 70.352-92.382 91.404-105.64-6.348 20.004-52.878 91.052-60.719 110.62 14.664-23.398 63.089-65.492 79.771-87.424 1.425 21.279-50.178 77.515-58.687 98.653 15.518-19.721 74.436-71.854 90.373-90.991-4.62 34.932-77.054 114.01-103.75 137.3-10.41 9.082-19.881 22.987-32.928 31.064-10.448 6.468-33.045 14.323-44.732 17.396 22.936-18.054 36.991-49.353 34.248-82.842-9.021 17.878-17.014 31.522-28.035 45.565 0.196-10.326-1.815-28.176 0.914-38.098-19.967 11.642-23.259 30.046-31.357 48.66" style="fill:#fff"/></g><g transform="translate(913.25 1451.4)"><path d="m0 0c-1.014-26.011 3.039-52.027 13.062-76.13 7.576-18.218 20.376-34.845 33.66-49.335 21.254-23.184 44.879-44.681 68.848-65.001 12.526-10.619 25.555-21.977 40.245-29.538 4.175-2.149 10.181 2.52 7.006 7.005-26.354 37.219-54.053 73.517-79.343 111.48-4.233 6.353-8.961 12.826-12.037 19.853-2.695-2.079-5.39-4.159-8.086-6.238 23.328-30.116 46.915-61.867 73.579-89.719 5.768-6.025 11.799-12.213 18.855-16.75 3.727-2.397 8.985 1.593 7.599 5.842-2.656 8.139-6.989 15.816-11.08 23.297-5.969 10.914-12.285 21.638-18.604 32.352-6.394 10.843-12.851 21.651-19.114 32.571-4.063 7.086-9.149 15.648-11.909 22.402l-9.477-3.996c10.516-16.495 25.302-30.457 38.984-44.274 13.828-13.964 28.859-27.473 40.84-43.119 3.001-3.919 9.296-2.853 9.548 2.586 0.363 7.858-3.597 15.734-7.194 22.464-5.231 9.788-11.584 18.974-17.976 28.028-6.71 9.503-13.661 18.833-20.348 28.351-4.635 6.599-10.26 14.138-13.194 21.215-2.946-1.714-5.892-3.429-8.838-5.144 13.236-16.649 29.732-31.026 45.047-45.697 15.323-14.681 31.741-28.933 45.321-45.298 3.814-4.595 9.471 0.614 8.847 5.15-1.866 13.577-9.79 26.522-17.001 37.87-10.113 15.914-21.744 30.888-33.799 45.366-22.069 26.504-46.916 49.95-70.791 74.703-8.626 8.944-17.981 15.624-29.373 20.537-10.981 4.737-22.338 8.798-33.895 11.891-5.6 1.499-11.149-6.344-6.066-10.421 23.591-18.922 34.604-48.629 32.398-78.433 3.888 1.053 7.775 2.106 11.663 3.159-8.35 16.496-17.645 32.223-29.023 46.823-3.443 4.418-10.721 0.578-10.663-4.417 0.155-13.161-2.107-26.811 1.15-39.755 3.053 2.347 6.105 4.693 9.157 7.039-17.158 10.346-21.719 29.125-29.139 46.414-1.333 3.107-5.843 3.74-8.5 2.229-3.208-1.826-3.544-5.435-2.229-8.501 4.016-9.358 7.009-19.182 11.866-28.168 5.135-9.5 12.471-17.158 21.71-22.738 4.76-2.874 10.455 1.865 9.156 7.039-2.94 11.718-0.547 24.504-0.678 36.441-3.555-1.472-7.109-2.944-10.663-4.416 10.676-13.719 19.205-28.837 27.047-44.308 3.017-5.952 11.243-2.559 11.664 3.159 2.402 32.676-10.214 66.511-36.099 87.251-2.022-3.474-4.044-6.948-6.066-10.421 18.841-5.033 39.478-11.465 53.82-25.223 7.606-7.296 14.228-15.505 22.145-22.486 4.69-4.135 9.211-8.457 13.658-12.851 24.763-24.464 48.388-50.951 68.122-79.672 8.338-12.136 18.001-26.009 20.221-40.925 2.949 1.717 5.898 3.433 8.847 5.15-13.776 16.225-30.033 30.544-45.364 45.255-15.304 14.684-31.789 29.072-45.012 45.732-3.202 4.034-10.824-0.345-8.838-5.145 3.265-7.891 8.166-14.956 13.045-21.922 6.383-9.114 13.054-18.022 19.54-27.062 6.391-8.908 12.73-17.911 18.219-27.412 3.535-6.121 8.162-13.832 7.859-20.851 3.182 0.862 6.365 1.724 9.547 2.586-12.026 15.604-26.624 29.228-40.446 43.204-13.677 13.829-28.779 27.729-39.272 44.251-2.98 4.692-11.792 1.696-9.477-3.995 7.892-19.404 20.197-37.351 30.814-55.32 6.392-10.818 12.786-21.642 18.863-32.641 4.022-7.278 8.475-14.76 11.053-22.655 2.533 1.947 5.066 3.895 7.599 5.842-5.609 3.605-10.393 8.577-15.024 13.325-7.054 7.23-13.735 14.824-20.291 22.504-13.759 16.118-26.939 32.727-39.95 49.452-5.054 6.497-10.065 13.029-15.109 19.535-3.88 5.006-10.211-1.386-8.086-6.238 2.56-5.843 6.373-11.24 9.859-16.55 6.09-9.275 12.434-18.384 18.814-27.46 14.603-20.772 29.528-41.315 44.431-61.873 6.131-8.458 12.284-16.902 18.324-25.425 2.335 2.335 4.671 4.67 7.006 7.005-12.058 6.201-22.812 15.139-33.199 23.746-13.616 11.283-26.756 23.146-39.642 35.255-22.159 20.823-45.564 42.469-60.894 69.068-14.127 24.512-18.945 55.197-20.26 83.093-0.211 4.488-6.813 4.51-6.989 0" style="fill:#fff"/></g></g><g transform="translate(416.31 975.08)"><path d="m0 0c0.061 16.723 9.429 51.774 10.674 54.498-7.298 5.429-17.34 11.717-26.362 11.717-27.5 0-49.794-28.851-49.794-64.44s22.294-64.44 49.794-64.44c6.456 0 12.618 1.607 18.279 4.501-2.281 20.577-2.645 43.347-2.591 58.164" style="fill:#ffceba"/></g><g transform="translate(417.87 1009.2)"><path d="m0 0c0.294 1.546 0.613 3.086 0.972 4.617-9.066 13.573-23.367 18.647-35.31 10.116-13.669-9.763-19.296-26.019-22.945-37.997-0.459-1.508 11.229 30.756 30.919 38.892 9.324 3.853 24.409-10.089 26.362-15.621 0-3e-3 1e-3 -5e-3 2e-3 -7e-3" style="fill:#ff9c73"/></g><g transform="translate(415.09 942.2)"><path d="m0 0c-6.313 0.632-21.164 3.617-20.651 17.728 0.651 17.9 14.646 21.48 14.646 21.48s-19.528-2.278-17.901-17.574c1.556-14.621 4.346-20.902 23.91-21.713-2e-3 0.026-3e-3 0.052-4e-3 0.079" style="fill:#ff9c73"/></g><g clip-path="url(#clipPath2347)" style="opacity:.2"><g transform="translate(408.59 983.38)"><path d="m0 0c-10.197-6.855-14.32-14.514-14.339-25.701-0.025-14.722-10.204-25.689-19.141-15.875-8.21 9.015-12.925 21.471-14.072 34.215 0.907 8.996 6.654 25.693 9.294 33.226 7.456 16.153 36.034 27.958 48.274 0.158 0.805-1.829-1.697-3.608-2.566-5.394-0.622-7.299-1.213-16.436-7.45-20.629m7.717-8.305c0.061 16.723 9.429 51.774 10.674 54.499-7.298 5.429-17.34 11.716-26.362 11.716-27.501 0-49.795-28.851-49.795-64.44s22.294-64.44 49.795-64.44c6.456 0 12.618 1.607 18.279 4.501-2.281 20.577-2.646 43.347-2.591 58.164" style="fill:#a1421d"/></g><g transform="translate(402.57 945.82)"><path d="m0 0c-0.213-0.512-0.433-1.018-0.701-1.489 3.241-1.245 7.496-1.966 13.217-2.204-2e-3 0.027-3e-3 0.053-4e-3 0.08-3.07 0.307-8.153 1.184-12.512 3.613" style="fill:#a1421d"/></g></g><g transform="translate(881.97 815.43)"><path d="m0 0s-39.802-21.122-41.007-38.241c-2.441-34.661-29.135-55.204-54.286-52.235-31.009 3.593-48.056 5.174-61.413 16.109-5.39 4.296-9.601 9.276-14.821 19.43-13.61 26.471 15.797 39.152-37.74 97.897 0 0 4.762-2.109 38.404-21.643 15.133-8.787 36.939-12.205 70.298-16.11 32.985-3.862 74.399-24.266 100.56-5.207" style="fill:#ff9c73"/></g><g clip-path="url(#clipPath2371)" style="opacity:.2"><g transform="translate(831.23 810.01)"><path d="m0 0c-3.279-3.471-9.43-4.728-14.451-5.258-15.704-1.657-31.749 1.304-46.783 5.731-8.366 2.464-16.341 5.745-23.93 10.045-3.481 1.973-6.726 4.511-9.957 7.077-9.986 2.316-18.186 5.181-25.011 9.144-33.642 19.534-38.403 21.643-38.403 21.643 53.537-58.745 24.13-71.426 37.739-97.897 5.221-10.154 9.432-15.134 14.821-19.43 13.357-10.935 30.405-12.516 61.414-16.109 25.151-2.969 51.844 17.574 54.286 52.235 0.885 12.584 22.613 27.32 34.07 34.25-12.68-5.683-27.964-4.54-43.795-1.431"/></g></g><g clip-path="url(#clipPath2387)" style="opacity:.10001"><g transform="translate(832.11 765.82)"><path d="m0 0c-3.231-26.26-22.229-38.314-63.234-34.897-39.358 3.28-57.594 25.764-59.44 55.507-0.348 5.62 8.355 7.333 8.708 1.645 1.479-23.827 25.259-41.334 47.159-45.432 12.265-2.295 25.361-1.672 36.866 3.46 7.886 3.518 19.937 10.863 21.102 20.335 0.696 5.649 9.537 5.053 8.839-0.618m28.671 41.965c-0.035-0.044-0.06-0.093-0.096-0.138-4.154-5.165-11.674-6.945-19.359-7.879-1.439-0.669-2.913-1.117-4.409-1.444-4.696-2.191-9.202-4.752-13.969-6.762-0.207-2.952-3.569-5.187-6.82-3.445-0.502 0.268-0.974 0.576-1.465 0.858-0.33-8e-3 -0.64 0.026-0.933 0.089-1.386-0.806-3.134-1.021-4.644-0.119-1.489 0.89-2.941 1.838-4.376 2.812-1.268-1.456-3.385-2.123-5.564-0.741-1.809 1.147-3.585 2.349-5.352 3.567-1.201-1.683-3.458-2.556-5.831-1.081-1.403 0.871-2.78 1.778-4.151 2.693-1.262-1.623-3.511-2.465-5.79-1.037-1.976 1.239-3.895 2.536-5.787 3.861-0.997-2.209-3.555-3.611-6.224-1.79-1.986 1.355-3.898 2.788-5.78 4.254-1.256-1.4-3.298-1.977-5.403-0.526-2.478 1.707-4.82 3.545-7.096 5.447-1.275-1.294-3.269-1.811-5.329-0.477-5.873 3.802-11.385 8.019-16.195 12.912-0.331 0.04-0.664 0.11-0.998 0.25-10.344 4.351-19.237 11.048-25.357 20.508-0.149 0.23-0.262 0.455-0.36 0.679-1.635 1.465-3.245 2.96-4.785 4.541-0.484 0.497-0.772 1.081-0.922 1.695-5.27 2.199-10.603 4.289-15.793 6.54-0.529 0.23-0.953 0.534-1.322 0.872 48.028-54.924 20.507-67.643 33.763-93.426 5.221-10.155 9.432-15.134 14.821-19.43 13.357-10.936 30.405-12.517 61.414-16.11 25.151-2.968 51.844 17.574 54.286 52.235 0.885 12.585 22.613 27.32 34.07 34.251-4.455-1.997-9.236-3.137-14.244-3.659"/></g></g><g transform="translate(672.7 858.39)"><path d="m0 0s23.758-11.391 49.144-31.895c25.385-20.503 51.421-27.338 78.76-26.361 27.338 0.976 57.931 5.858 81.363 15.296 0 0-7.323-7.974-22.944-20.666-16.217-13.176-33.685-58.094-72.739-54.189-39.055 3.906-52.724 8.788-68.346 27.339s-18.876 66.067-45.238 90.476" style="fill:#3f2000"/></g><g transform="translate(834.77 765.96)"><path d="m0 0c-20.829-26.036-38.637-27.377-63.789-24.409-31.009 3.593-37.753 10.414-53.049 25.385l-10.13 20.382s9.037 1.45 26.533 2.934c11.092 1.015 24.683 1.25 39.054-0.625 4.687-0.547 9.53-1.406 14.451-2.499 9.217-2.109 18.59-5.078 27.728-9.452 0.86-0.39 1.641-0.781 2.422-1.171 12.185-6.015 12.094-5.234 16.78-10.545" style="fill:#8d1400"/></g><g clip-path="url(#clipPath2411)" style="opacity:.2"><g transform="translate(773.96 763.71)"><path d="m0 0c-3.905 0.149-41.18-1.598-42.559-9.057 8.878-6.816 18.757-10.69 39.581-13.103 16.657-1.966 30.093-2.033 43.319 5.703-8.466 11.787-25.233 15.88-40.341 16.457" style="fill:#fff"/></g></g><g transform="translate(765.21 803.95)"><path d="m0 0c-7.665 2.054-19.735 7.744-32.571 14.359 0.012-2.501-0.872-17.929 0.919-25.989 1.953-8.787 26.362-22.456 33.196-17.575 5.793 4.138 8.072 21.905 8.634 27.239-3.416 0.439-6.813 1.065-10.178 1.966" style="fill:#fff"/></g><g transform="translate(813.92 800.97)"><path d="m0 0c-9.029-0.713-18.25-0.811-27.336-0.622-0.045-5.826 0.392-27.437 8.377-29.699 14.646-4.15 31 9.519 35.149 14.645 2.863 3.536 3.642 14.181 3.841 18.324-6.064-1.685-12.161-2.027-20.031-2.648" style="fill:#fff"/></g><g clip-path="url(#clipPath2435)" style="opacity:.10001"><g transform="translate(765.21 803.95)"><path d="m0 0c-7.665 2.054-19.735 7.744-32.571 14.359 0.012-2.501-0.872-17.929 0.919-25.989 0.372-1.673 1.565-3.524 3.289-5.389-1.708 6.172-1.21 12.881 2.248 18.504 1.268 2.063 4.026 2.427 5.963 1.323 0.514 0.028 1.051-5e-3 1.633-0.198 5.03-1.662 11.692-3.883 15.531-7.999 2.014 0.192 3.979-0.822 4.178-3.452 0.475-6.297-0.185-15.964-4.548-21.323 2.009-0.138 3.727 0.12 4.902 0.959 5.793 4.138 8.072 21.905 8.634 27.239-3.416 0.439-6.813 1.065-10.178 1.966"/></g></g><g clip-path="url(#clipPath2451)" style="opacity:.10001"><g transform="translate(813.92 800.97)"><path d="m0 0c-9.029-0.713-18.25-0.811-27.336-0.622-0.045-5.826 0.392-27.436 8.377-29.699 0.718-0.203 1.441-0.33 2.165-0.451-4.674 5.861-6.911 13.962-5.086 21.093 1.064 4.162 4.175 5.65 8.193 5.926 7.38 0.506 14.568 0.655 21.874 2.049 2.488 0.475 4.564-1.222 5.176-3.531 1.184-4.477 0.503-9.74-1.439-14.686 1.886 1.633 3.373 3.142 4.266 4.245 2.863 3.536 3.642 14.181 3.841 18.324-6.064-1.685-12.161-2.027-20.031-2.648"/></g></g><g clip-path="url(#clipPath2467)" style="opacity:.2"><g transform="translate(772.48 814.64)"><path d="m0 0c-0.531-1.871-4.797-2.297-9.528-0.953s-8.135 3.95-7.604 5.82c0.532 1.871 4.798 2.297 9.528 0.953 4.731-1.344 8.135-3.95 7.604-5.82" style="fill:#fff"/></g></g><g clip-path="url(#clipPath2483)" style="opacity:.2"><g transform="translate(783.3 815.4)"><path d="m0 0c0.796-1.711-0.24-3.881-2.314-4.846s-4.4-0.36-5.196 1.351c-0.797 1.711 0.239 3.88 2.313 4.846 2.074 0.965 4.401 0.36 5.197-1.351" style="fill:#fff"/></g></g><g transform="translate(876.11 934.87)"><path d="m0 0s28.315 96.66 99.589 88.849 90.802-64.44 90.802-64.44 1.045-64.066-70.299-79.086c-37.101-7.81-102.52 3.906-120.09 54.677" style="fill:#fdfff0"/></g><g clip-path="url(#clipPath2503)" style="opacity:.3"><g transform="translate(1067.7 958.66)"><path d="m0 0s-7.636 22.27-30.724 41.003c3.326-21.275 3.948-42.157-6.306-63.281-11.493-23.677-33.683-37.969-58.361-44.777-17.894-4.937-36.337-5.606-54.553-3.072 25.953-12.67 57.32-14.778 79.059-10.17 71.939 15.25 70.885 80.297 70.885 80.297" style="fill:#5d5e57"/></g></g><g transform="translate(971.42 877.54)"><path d="m0 0s82.389-7.108 95.082 73.93l6.834 6.834s-6.232-94.433-101.92-80.764" style="fill:#3f2000"/></g><g transform="translate(611.7 934.7)"><path d="m0 0s-78.281 19.26-69.583 116.18l-6.363-4.268s-14.139-90.165 75.946-111.91" style="fill:#3f2000"/></g><g transform="translate(876.11 934.87)"><path d="m0 0c-0.252-4.359 19.707 96.536 102.52 85.92 76.156-9.764 87.873-69.322 87.873-69.322s21.48 13.669 24.409 43.936c0 0-16.532-16.823-27.339-2.929-13.668 17.575-40.031 41.984-84.943 44.913-44.913 2.929-70.298-19.527-73.227-20.504-2.929-0.976-26.362-31.243-29.291-82.014" style="fill:#3f2000"/></g><g transform="translate(1033.5 952.09)"><path d="m0 0c0-36.028-29.206-65.234-65.234-65.234s-65.234 29.206-65.234 65.234 29.206 65.234 65.234 65.234 65.234-29.206 65.234-65.234" style="fill:#5e86c4"/></g><g transform="translate(1013.5 952.09)"><path d="m0 0c0-24.934-20.213-45.146-45.146-45.146-24.934 0-45.146 20.212-45.146 45.146 0 24.933 20.212 45.146 45.146 45.146s45.146-20.213 45.146-45.146"/></g><g clip-path="url(#clipPath2539)" style="opacity:.2"><g transform="translate(977.79 1009.6)"><path d="m0 0c-19.165 20.818-52.749 15.791-71.528-5.755-13.164-15.104-15.668-34.306-8.236-48.849 1.233-7.459 4.28-14.431 10.327-19.861 12.273-11.022 31.142-11.049 45.806-5.465 16.213 6.173 28.79 19.406 33.675 34.853 1.338 3.601 2.263 7.467 2.628 11.627 1.248 14.222-4.051 25.771-12.672 33.45" style="fill:#fff"/></g></g><g transform="translate(965.62 976.67)"><path d="m0 0c0-13.764-10.694-24.923-23.884-24.923-13.192 0-23.885 11.159-23.885 24.923 0 13.765 10.693 24.923 23.885 24.923 13.19 0 23.884-11.158 23.884-24.923" style="fill:#fff"/></g><g transform="translate(997.92 912.48)"><path d="m0 0c0-7.172-5.562-12.986-12.422-12.986s-12.422 5.814-12.422 12.986c0 7.173 5.562 12.987 12.422 12.987 6.861 0 12.422-5.814 12.422-12.987" style="fill:#fff"/></g><g transform="translate(536.33 1040.3)"><path d="m0 0c-0.443 4.119 55.653 55.653 128.88 32.22s64.44-107.4 49.794-121.07l-14.645-13.669s-147.43-51.747-164.03 102.52" style="fill:#fdfff0"/></g><g clip-path="url(#clipPath2567)" style="opacity:.3"><g transform="translate(707.09 1044.1)"><path d="m0 0c1.382-7.486 2.29-14.983 0.674-23.107-2.457-12.353-7.99-24.475-14.164-35.407-11.12-19.692-27.986-36.249-49.403-44.227-11.346-4.226-23.605-6.149-36.192-6.228 44.321-14.22 92.359 2.624 92.359 2.624l14.645 13.669c10.825 10.103 18.408 58.593-7.919 92.676" style="fill:#5d5e57"/></g></g><g transform="translate(718.18 955.37)"><path d="m0 0s33.304 82.454-53.944 113.26c-83.339 29.424-127.9-28.314-127.9-28.314s-5.858 7.322-14.645 18.062-4.394 24.41-4.394 24.41 18.063-14.158 27.827-11.228c9.21 2.762 25.385 20.503 68.345 21.479 42.96 0.977 59.884-10.089 73.227-17.574 12.97-7.276 21.303-12.787 39.32-37.017 4.804-6.461 14.624-45.974-7.832-83.076" style="fill:#3f2000"/></g><g transform="translate(700.54 1006.8)"><path d="m0 0c0-36.028-29.206-65.234-65.234-65.234s-65.234 29.206-65.234 65.234 29.206 65.234 65.234 65.234 65.234-29.206 65.234-65.234" style="fill:#5e86c4"/></g><g transform="translate(680.45 1006.8)"><path d="m0 0c0-24.934-20.213-45.146-45.146-45.146-24.934 0-45.146 20.213-45.146 45.146 0 24.934 20.212 45.146 45.146 45.146 24.933 0 45.146-20.212 45.146-45.146"/></g><g clip-path="url(#clipPath2595)" style="opacity:.2"><g transform="translate(644.78 1064.3)"><path d="m0 0c-19.164 20.818-52.749 15.791-71.528-5.756-13.164-15.103-15.668-34.305-8.235-48.848 1.232-7.459 4.28-14.431 10.326-19.861 12.273-11.022 31.143-11.049 45.806-5.466 16.213 6.173 28.79 19.407 33.675 34.854 1.338 3.601 2.263 7.467 2.628 11.627 1.249 14.222-4.051 25.771-12.672 33.45" style="fill:#fff"/></g></g><g transform="translate(632.61 1031.3)"><path d="m0 0c0-13.765-10.694-24.923-23.884-24.923-13.192 0-23.885 11.158-23.885 24.923 0 13.764 10.693 24.923 23.885 24.923 13.19 0 23.884-11.159 23.884-24.923" style="fill:#fff"/></g><g transform="translate(664.92 967.15)"><path d="m0 0c0-7.173-5.562-12.987-12.422-12.987s-12.422 5.815-12.422 12.987 5.562 12.986 12.422 12.986 12.422-5.814 12.422-12.986" style="fill:#fff"/></g><g transform="translate(1161.2 939.75)"><path d="m0 0c-6.016 0-15.643-6.328-22.986-15.848 0.94-22.676 4.813-47.789-0.645-70.017 3.6-1.028 8.13-1.721 13.867-2.008 10.772-0.538 29.291 24.218 29.291 46.866 0 22.647-8.743 41.007-19.527 41.007" style="fill:#ffceba"/></g><g clip-path="url(#clipPath2623)" style="opacity:.2"><g transform="translate(1161.8 939.44)"><path d="m0 0c-5.077 0-14.951-2.898-21.63-10.026-2.232-18.243 1.327-34.792 0.414-47.631-0.089-1.259-0.157-2.541-0.215-3.835-0.034-1.834-0.107-3.659-0.207-5.477-0.22-6.379-0.478-12.91-1.795-18.951 3.264-0.755 8.908-1.715 13.669-1.953 10.771-0.538 29.291 24.218 29.291 46.866s-8.743 41.007-19.527 41.007" style="fill:#a1421d"/></g></g><g transform="translate(1166.7 923.92)"><path d="m0 0s-17.086-0.732-16.272-12.774c0.437-6.47 10.414-14.564 6.834-24.328-3.58-9.763-7.974-13.994-7.974-13.994s11.228 10.74 11.88 17.574c0.65 6.835-2.442 6.062-3.418 11.595-0.976 5.532-4.394 19.649 8.95 21.927" style="fill:#ff9c73"/></g></g></g></g></svg>
