<?xml version="1.0" encoding="UTF-8"?>
<svg width="307.39mm" height="522.45mm" version="1.1" viewBox="0 0 307.39 522.45" xmlns="http://www.w3.org/2000/svg"><defs><clipPath id="clipPath23942"><path d="m0 2290h1377.7v-2290h-1377.7z"/></clipPath><clipPath id="clipPath23950"><path d="m75.976 332.7h1226.4v-218.75h-1226.4z"/></clipPath><clipPath id="clipPath23974"><path d="m579.07 1186.9c-20.818-56.144-40.02-168.56-128.69-204.39-87.756-35.463-100.94 105.98-100.94 105.98s-69.199-111.03 56.777-151.4c79.262-25.403 158.97 54.252 186.73 117.34 27.756 63.085 68.499 118.6 68.499 118.6s25.496 83.271-23.079 90.842c0 0-38.481-20.819-59.299-76.964"/></clipPath><clipPath id="clipPath23982"><path d="m489.69 1162.4h162.09v-230.22h-162.09z"/></clipPath><clipPath id="clipPath23998"><path d="m322.12 1054.5h137.38v-114.88h-137.38z"/></clipPath><clipPath id="clipPath24014"><path d="m611.09 1300.1h168.07v-109.72h-168.07z"/></clipPath><clipPath id="clipPath24030"><path d="m0 2290h1377.7v-2290h-1377.7z"/></clipPath><clipPath id="clipPath24042"><path d="m748.14 1173c118.6-47.314 148.88-209.44 140.05-295.24-5.446-52.897-18.807-87.56-28.255-106.36l22.941-19.376c21.794 37.955 63.194 129.45 45.687 254.13-23.34 166.24-180.42 268.41-180.42 268.41-61.823-43.528 0-101.57 0-101.57"/></clipPath><clipPath id="clipPath24050"><path d="m751.03 1189.3h123.94v-206.97h-123.94z"/></clipPath><clipPath id="clipPath24066"><path d="m862.53 922.74h80.503v-163.64h-80.503z"/></clipPath><clipPath id="clipPath24082"><path d="m611.09 1300.1h168.07v-109.72h-168.07z"/></clipPath><clipPath id="clipPath24098"><path d="m0 2290h1377.7v-2290h-1377.7z"/></clipPath><clipPath id="clipPath24110"><path d="m589.16 784.38c-1.261-3.154-215.75-488.27-215.75-488.27l618.23 5.047-127.43 523.6z"/></clipPath><clipPath id="clipPath24118"><path d="m548.46 817.38h366.53v-104.08h-366.53z"/></clipPath><clipPath id="clipPath24134"><path d="m627.79 613.02h115.58v-270.87h-115.58z"/></clipPath><clipPath id="clipPath24150"><path d="m381.76 599.41h287.14v-239.66h-287.14z"/></clipPath><clipPath id="clipPath24166"><path d="m719.88 578h224.7v-241.48h-224.7z"/></clipPath><clipPath id="clipPath24182"><path d="m894.86 567.38h84.877v-172.54h-84.877z"/></clipPath><clipPath id="clipPath24198"><path d="m673.24 760.43h74.648v-189.63h-74.648z"/></clipPath><clipPath id="clipPath24214"><path d="m760.87 762.04h119.22v-157.64h-119.22z"/></clipPath><clipPath id="clipPath24230"><path d="m812.32 771.85h72.698v-67.731h-72.698z"/></clipPath><clipPath id="clipPath24246"><path d="m0 2290h1377.7v-2290h-1377.7z"/></clipPath><clipPath id="clipPath24258"><path d="m266.17 255.74c-35.327-75.07 302.4-56.089 362.1-42.897 54.253 11.986 73.809 3.785 69.392 102.2l-286.4 17.663s-109.77-1.892-145.09-76.963"/></clipPath><clipPath id="clipPath24266"><path d="m323.24 341.35h380.39v-167.68h-380.39z"/></clipPath><clipPath id="clipPath24282"><path d="m0 2290h1377.7v-2290h-1377.7z"/></clipPath><clipPath id="clipPath24294"><path d="m702.14 316.27c-9.295-98.071 10.644-90.851 64.234-105.52 58.982-16.139 395.34-51.861 363.79 24.871-31.557 76.731-141.1 84.07-141.1 84.07z"/></clipPath><clipPath id="clipPath24302"><path d="m696.1 361.86h342.12v-182.49h-342.12z"/></clipPath><clipPath id="clipPath24318"><path d="m0 2290h1377.7v-2290h-1377.7z"/></clipPath><clipPath id="clipPath24330"><path d="m644.69 1251.2s-28.405-275.68-54.27-340.66c-25.865-64.977-71.916-112.92-70.655-123.64 0 0 34.059-6.939 62.45-25.234 28.392-18.294 275.68 9.463 332.46 59.3 0 0-48.576 47.944-61.823 84.533-13.248 36.589-119.37 350.75-119.37 350.75z"/></clipPath><clipPath id="clipPath24338"><path d="m611.09 1300.1h168.07v-109.72h-168.07z"/></clipPath><clipPath id="clipPath24354"><path d="m689.21 1204.4h89.872v-357.88h-89.872z"/></clipPath><clipPath id="clipPath24370"><path d="m609.61 993.84h297.81v-217.86h-297.81z"/></clipPath><clipPath id="clipPath24386"><path d="m511.02 980.84h184.08v-233.09h-184.08z"/></clipPath><clipPath id="clipPath24402"><path d="m0 2290h1377.7v-2290h-1377.7z"/></clipPath><clipPath id="clipPath24414"><path d="m682.42 1199.6-30.494-239.68 52.901-103.76 52.931 106.23-50.832 237.7z"/></clipPath><clipPath id="clipPath24422"><path d="m631.6 1115.3h133.71v-282.6h-133.71z"/></clipPath><clipPath id="clipPath24438"><path d="m0 2290h1377.7v-2290h-1377.7z"/></clipPath><clipPath id="clipPath24450"><path d="m665.9 1243c-19.759-61 32.624-64.903 32.624-64.903 27.071 20.132 23.601 64.903 23.601 64.903z"/></clipPath><clipPath id="clipPath24458"><path d="m653.21 1250h72.259v-77.19h-72.259z"/></clipPath><clipPath id="clipPath24474"><path d="m0 2290h1377.7v-2290h-1377.7z"/></clipPath><clipPath id="clipPath24486"><path d="m888.97 1791h81.636v-81.59h-81.636z"/></clipPath><clipPath id="clipPath24510"><path d="m407.34 1795.4h74.488v-81.96h-74.488z"/></clipPath><clipPath id="clipPath24534"><path d="m544.53 1860.1s-89.417-212.9-82.321-292.38c7.097-79.483 164.64-170.32 164.64-170.32s40.855-97.933 39.589-153.29c0 0 37.055-28.387 51.248 14.193 0 0 0 97.934 25.548 144.77 0 0 133.42 77.31 150.45 150.07 17.032 72.761-49.677 390.69-70.966 411.98-11.246 11.245-62.106 55.357-121.38 55.365-52.948 0.01-112.61-35.173-156.8-160.4"/></clipPath><clipPath id="clipPath24542"><path d="m496.09 1998.2h369.92v-253.54h-369.92z"/></clipPath><clipPath id="clipPath24558"><path d="m478.47 1495.9h384.95v-168.45h-384.95z"/></clipPath><clipPath id="clipPath24574"><path d="m0 2290h1377.7v-2290h-1377.7z"/></clipPath><clipPath id="clipPath24594"><path d="m705.24 354.15c-53.621-54.253-11.324-55.421-11.324-55.421 53.529 14.668 135.12 13.464 202.48 12.26 69.218-1.237 123.41-2.474 116.7 13.511-13.248 31.543-3.785 70.911-3.785 70.911-9.24 10.232-28.239 14.261-52.469 14.259-89.913-9e-3 -251.6-55.52-251.6-55.52"/></clipPath><clipPath id="clipPath24602"><path d="m683.75 399h252.55v-112.76h-252.55z"/></clipPath><clipPath id="clipPath24618"><path d="m0 2290h1377.7v-2290h-1377.7z"/></clipPath><clipPath id="clipPath24630"><path d="m364.62 358.37c-7.99-18.719-7.989-37.439-6.35-37.029 30.202 7.55 119.22-4.505 198.28-16.559 66.263-10.104 125.53-20.207 137.33-18.768 25.864 3.154 25.233 59.93 17.663 83.272-7.571 23.34-197.45 6.939-275.05 23.971-6.723 1.476-12.89 2.15-18.554 2.149-29.69-3e-3 -45.418-18.519-53.321-37.036"/></clipPath><clipPath id="clipPath24638"><path d="m347.59 403.66h235.61v-104.75h-235.61z"/></clipPath><clipPath id="clipPath24654"><path d="m0 2290h1377.7v-2290h-1377.7z"/></clipPath><clipPath id="clipPath24670"><path d="m253.55 1434.2c-70.023-35.958-22.71-177.9-22.71-177.9s51.098-125.54 94.627-5.046c37.337 103.36 9.235 190.46-43.711 190.46-8.778 0-18.247-2.398-28.206-7.512"/></clipPath><clipPath id="clipPath24678"><path d="m201.14 1436.7h153.95v-208.1h-153.95z"/></clipPath><clipPath id="clipPath24694"><path d="m0 2290h1377.7v-2290h-1377.7z"/></clipPath><clipPath id="clipPath24706"><path d="m326.73 1098.8c-62.453-0.837-114.81-17.869-114.81-17.869s-15.14-77.685 31.542-92.149 140.36 29.064 144.62 59.345c4.18 29.702 1.224 50.697-57.834 50.697-1.15 0-2.319-0.01-3.512-0.024"/></clipPath><clipPath id="clipPath24714"><path d="m199.46 1076.3h195.97v-105.26h-195.97z"/></clipPath><clipPath id="clipPath24730"><path d="m0 2290h1377.7v-2290h-1377.7z"/></clipPath><clipPath id="clipPath24742"><path d="m290.14 1180.3c-51.098-8.591-95.114-19.439-95.114-19.439s-47.457-15.649-27.27-48.453c20.187-32.803 60.561-70.023 141.31-37.85 80.749 32.173 93.996 41.005 87.057 61.823-6.14 18.422-44.397 45.361-88.531 45.362-5.738 0-11.572-0.455-17.451-1.443"/></clipPath><clipPath id="clipPath24750"><path d="m158.97 1165.1h251.18v-109.9h-251.18z"/></clipPath><clipPath id="clipPath24766"><path d="m0 2290h1377.7v-2290h-1377.7z"/></clipPath><clipPath id="clipPath24778"><path d="m204.35 1263.8c-38.11-9.614-51.44-42.022-50.5-69.567 0.725-21.248 20.205-36.861 41.18-33.384 55.013 9.118 151.09 8.324 151.09 8.324 70.481 20.187 39.285 59.299 0 87.056-20.746 14.658-39.583 20.872-63.059 20.871-20.979-1e-3 -45.662-4.964-78.708-13.3"/></clipPath><clipPath id="clipPath24786"><path d="m143.88 1283.1h257.63v-148.68h-257.63z"/></clipPath><clipPath id="clipPath24802"><path d="m0 2290h1377.7v-2290h-1377.7z"/></clipPath><clipPath id="clipPath24822"><path d="m822.58 1977.9c-6.393-13.368 34.065-264.96 49.431-196.54 11.341 50.495 2.133 136.52-3.468 178.12-2.479 18.409-13.457 34.763-29.889 43.422-4.75 2.504-8.385 3.554-11.144 3.553-14.388 0-4.93-28.557-4.93-28.557"/></clipPath><clipPath id="clipPath24830"><path d="m795.65 2016.1h73.436v-136.37h-73.436z"/></clipPath><clipPath id="clipPath24846"><path d="m0 2290h1377.7v-2290h-1377.7z"/></clipPath><clipPath id="clipPath24858"><path d="m518.51 2077.6c-7.619-31.276 36.241-20.336 78.614-9.395 24.294 6.272 48.1 12.544 61.433 10.861 36.589-4.621 157.97-128.9 175.82-108.71 0 0-41.986 195.56-156.22 214.49-12.097 2.004-23.293 2.933-33.648 2.933-87.429 0-115.29-66.181-126-110.18"/></clipPath><clipPath id="clipPath24866"><path d="m508.05 2172.9h102.32v-127.8h-102.32z"/></clipPath><clipPath id="clipPath24882"><path d="m633.11 2163h234.07v-246.54h-234.07z"/></clipPath><clipPath id="clipPath24898"><path d="m512.16 2199.6h217.07v-346.45h-217.07z"/></clipPath><clipPath id="clipPath24914"><path d="m0 2290h1377.7v-2290h-1377.7z"/></clipPath><clipPath id="clipPath24926"><path d="m585.38 2086.4c-85.346-23.461-108.45-89.973-114.04-134.68-1.344-10.753 13.553-24.285 20.595-16.048 125.62 146.95 320.55 53.581 320.55 53.581-9.199 51.106-65.179 107.18-156.88 107.18-21.493 0-44.951-3.081-70.226-10.028"/></clipPath><clipPath id="clipPath24934"><path d="m465.65 2019.6h92.751v-105.87h-92.751z"/></clipPath><clipPath id="clipPath24950"><path d="m633.11 2163h234.07v-246.54h-234.07z"/></clipPath><clipPath id="clipPath24966"><path d="m512.16 2199.6h217.07v-346.45h-217.07z"/></clipPath><clipPath id="clipPath24982"><path d="m0 2290h1377.7v-2290h-1377.7z"/></clipPath><clipPath id="clipPath24994"><path d="m567.71 1998.1c-79.813-52.811-81.039-146.65-69.585-196.32 1.754-7.608 27.965-27.178 36.813-4.637 87.655 223.3 288.9 129.04 288.9 129.04s30.28-17.663 10.539 44.16c-12.258 38.386-63.213 72.152-130.44 72.151-41.044-1e-3 -88.155-12.588-136.22-44.394"/></clipPath><clipPath id="clipPath25002"><path d="m484.63 1940.6h75.002v-181.33h-75.002z"/></clipPath><clipPath id="clipPath25018"><path d="m633.11 2163h234.07v-246.54h-234.07z"/></clipPath><clipPath id="clipPath25034"><path d="m512.16 2199.6h217.07v-346.45h-217.07z"/></clipPath><clipPath id="clipPath25050"><path d="m0 2290h1377.7v-2290h-1377.7z"/></clipPath><clipPath id="clipPath25062"><path d="m705.87 1762.1c0-32.575 26.408-58.983 58.984-58.983s58.985 26.408 58.985 58.983c0 32.577-26.409 58.985-58.985 58.985s-58.984-26.408-58.984-58.985"/></clipPath><clipPath id="clipPath25070"><path d="m699.29 1821.6h132.74v-95.44h-132.74z"/></clipPath><clipPath id="clipPath25098"><path d="m0 2290h1377.7v-2290h-1377.7z"/></clipPath><clipPath id="clipPath25122"><path d="m545 1756.4c0-32.576 26.408-58.984 58.984-58.984s58.984 26.408 58.984 58.984c0 32.577-26.408 58.983-58.984 58.983s-58.984-26.406-58.984-58.983"/></clipPath><clipPath id="clipPath25130"><path d="m536.53 1817.8h132.74v-95.44h-132.74z"/></clipPath><clipPath id="clipPath25158"><path d="m0 2290h1377.7v-2290h-1377.7z"/></clipPath><clipPath id="clipPath25182"><path d="m654.52 1745.6c-34.095-40.626-69.143-115.92-69.143-115.92-23.972-40.375-4.415-56.776-4.415-56.776 49.205-29.65 163.39-12.617 192.41 10.093 29.019 22.711-17.664 88.319-17.664 88.319-18.333 37.914-35.027 61.167-47.79 75.256-7.068 7.802-16.684 11.683-26.284 11.683-10.029 0-20.041-4.236-27.111-12.66"/></clipPath><clipPath id="clipPath25190"><path d="m556.64 1782.6h240.96v-252.41h-240.96z"/></clipPath><clipPath id="clipPath25206"><path d="m0 2290h1377.7v-2290h-1377.7z"/></clipPath></defs><g transform="translate(268.28 -1459.6)"><g transform="matrix(.31416 0 0 -.26129 -316.6 2031.2)" style="stroke-width:1.2313"><g style="stroke-width:1.2313"><g clip-path="url(#clipPath23942)" style="stroke-width:1.2313"><g style="stroke-width:1.2313"><g style="stroke-width:1.2313"><g clip-path="url(#clipPath23950)" style="opacity:.23;stroke-width:1.2313"></g></g></g><g transform="translate(615.49 1322.4)" style="stroke-width:1.2313"><path d="m0 0c-3.651 9.749 2.308 20.991 10.968 26.768 8.659 5.778 19.353 7.389 29.659 8.856 34.09 4.854 71.326 9.119 100.78-8.718 1.61-0.975 3.223-2.048 4.309-3.585 1.186-1.678 1.637-3.76 1.91-5.797 2.827-21.135-11.408-41.709-29.855-52.406-18.447-10.696-40.349-13.411-61.621-14.902-8.93-0.626-18.191-1.028-26.532 2.222-11.503 4.481-19.3 15.061-26.45 25.123-4.46 6.276-8.811 15.34-3.498 20.91" style="fill:#b3b3b3"/></g><g transform="translate(638.37 1263.8)" style="stroke-width:1.2313"><path d="m0 0s-38.482-20.818-59.299-76.963c-20.818-56.145-40.02-168.56-128.69-204.39-87.757-35.463-100.94 105.98-100.94 105.98s-69.2-111.03 56.775-151.4c79.262-25.402 158.97 54.253 186.73 117.34 27.757 63.084 68.5 118.6 68.5 118.6s25.496 83.272-23.079 90.842" style="fill:#fff4d9"/></g></g></g><g style="stroke-width:1.2313"><g clip-path="url(#clipPath23974)" style="stroke-width:1.2313"><g style="stroke-width:1.2313"><g style="stroke-width:1.2313"><g clip-path="url(#clipPath23982)" style="opacity:.10001;stroke-width:1.2313"><g transform="translate(626.2 1109.8)" style="stroke-width:1.2313"><path d="m0 0c5.474 16.902 14.187 32.765 25.583 46.401-14.388-4.897-24.968-19.115-25.506-34.308 0.285 13.786-1.984 27.612-6.674 40.579-2.753-41.765-17.258-82.376-39.937-117.43-26.877-41.537-51.499-81.693-89.975-112.79 43.697 14.31 81.44 45.984 103.12 86.532 7.773 14.539 13.515 30.058 19.232 45.52 4.922 13.313 9.844 26.627 14.766 39.941"/></g></g></g></g><g style="stroke-width:1.2313"><g style="stroke-width:1.2313"><g clip-path="url(#clipPath23998)" style="opacity:.10001;stroke-width:1.2313"><g transform="translate(333.15 972.21)" style="stroke-width:1.2313"><path d="m0 0c14.003-25.556 47.189-38.757 74.92-29.803 13.617 4.396 25.284 13.229 36.662 21.907 4.407 3.362 8.911 6.827 11.862 11.52 2.95 4.692 4.066 10.948 1.348 15.779-1.745 3.102-4.787 5.217-7.738 7.206-25.589 17.243-52.05 33.191-79.248 47.762-11.26 6.032-25.492 11.733-36.066 4.567-5.637-3.82-8.638-10.489-10.418-17.062-6.995-25.829 1.941-55.293 22.106-72.885"/></g></g></g></g><g style="stroke-width:1.2313"><g style="stroke-width:1.2313"><g clip-path="url(#clipPath24014)" style="opacity:.10001;stroke-width:1.2313"><g transform="translate(775.44 1276.5)" style="stroke-width:1.2313"><path d="m0 0c1.86-1.852 0.704-4.987-0.57-7.281-8.56-15.402-18.277-30.162-29.041-44.112-10.796-13.991-23.579-27.782-40.54-32.747-26.579-7.78-53.911 8.252-75.867 25.132-8.462 6.505-17.415 14.458-18.279 25.096-0.869 10.703 7.885 20.882 18.419 22.968 10.533 2.086 21.76-3.147 28.198-11.742 6.611-8.825 9.327-21.275 19.023-26.526 7.274-3.939 16.559-2.327 23.602 2.011 7.043 4.337 12.292 11.003 17.253 17.622 15.93 21.254 32.303 44.88 57.546 53.142 3.098-5.389 4.453-11.764 3.816-17.947"/></g></g></g></g></g></g><g style="stroke-width:1.2313"><g clip-path="url(#clipPath24030)" style="stroke-width:1.2313"><g transform="translate(859.93 771.38)" style="stroke-width:1.2313"><path d="m0 0c9.447 18.805 22.809 53.468 28.254 106.36 8.832 85.795-21.449 247.92-140.05 295.24 0 0-61.822 58.038 0 101.57 0 0 157.08-102.17 180.42-268.41 17.506-124.68-23.893-216.17-45.687-254.13z" style="fill:#fff4d9"/></g></g></g><g style="stroke-width:1.2313"><g clip-path="url(#clipPath24042)" style="stroke-width:1.2313"><g style="stroke-width:1.2313"><g style="stroke-width:1.2313"><g clip-path="url(#clipPath24050)" style="opacity:.10001;stroke-width:1.2313"><g transform="translate(773.33 1153.4)" style="stroke-width:1.2313"><path d="m0 0c-7.435 11.964-14.87 23.928-22.305 35.891 11.915-2.747 21.478-13.65 22.648-25.822 1.951 5.097 3.902 10.193 5.853 15.29 18.496-38.359 66.555-55.543 85.111-93.873 5.289-10.927 7.832-22.997 9.171-35.064 2.501-22.532 0.932-45.511-4.61-67.494-20.285 59.421-52.417 114.77-93.959 161.85"/></g></g></g></g><g style="stroke-width:1.2313"><g style="stroke-width:1.2313"><g clip-path="url(#clipPath24066)" style="opacity:.10001;stroke-width:1.2313"><g transform="translate(882.6 922.74)" style="stroke-width:1.2313"><path d="m0 0c5.358-6.629 6.375-15.697 6.6-24.218 0.226-8.521-0.065-17.359 3.331-25.177 3.397-7.819 11.878-14.254 20.118-12.07 5.579 1.478 9.524 6.358 12.701 11.178 8.75 13.275 14.802 28.322 17.68 43.96-4.303-38.984-13.049-77.476-26.012-114.49-4.647-13.269-10.028-26.669-19.466-37.089-2.654-2.93-6.015-5.76-9.967-5.734-2.602 0.018-5.032 1.295-7.159 2.795-15.911 11.217-18.582 33.562-17.769 53.012 1.366 32.692 8.492 65.136 20.954 95.39"/></g></g></g></g><g style="stroke-width:1.2313"><g style="stroke-width:1.2313"><g clip-path="url(#clipPath24082)" style="opacity:.10001;stroke-width:1.2313"><g transform="translate(775.44 1276.5)" style="stroke-width:1.2313"><path d="m0 0c1.86-1.852 0.704-4.987-0.57-7.281-8.56-15.402-18.277-30.162-29.041-44.112-10.796-13.991-23.579-27.782-40.54-32.747-26.579-7.78-53.911 8.252-75.867 25.132-8.462 6.505-17.415 14.458-18.279 25.096-0.869 10.703 7.885 20.882 18.419 22.968 10.533 2.086 21.76-3.147 28.198-11.742 6.611-8.825 9.327-21.275 19.023-26.526 7.274-3.939 16.559-2.327 23.602 2.011 7.043 4.337 12.292 11.003 17.253 17.622 15.93 21.254 32.303 44.88 57.546 53.142 3.098-5.389 4.453-11.764 3.816-17.947"/></g></g></g></g></g></g><g style="stroke-width:1.2313"><g clip-path="url(#clipPath24098)" style="stroke-width:1.2313"><g transform="translate(589.16 784.38)" style="stroke-width:1.2313"><path d="m0 0c-1.262-3.154-215.75-488.27-215.75-488.27l618.23 5.047-127.43 523.6z" style="fill:#a67c52"/></g></g></g><g style="stroke-width:1.2313"><g clip-path="url(#clipPath24110)" style="stroke-width:1.2313"><g style="stroke-width:1.2313"><g style="stroke-width:1.2313"><g clip-path="url(#clipPath24118)" style="opacity:.10001;stroke-width:1.2313"><g transform="translate(914.99 791.51)" style="stroke-width:1.2313"><path d="m0 0c-51.112-37.958-113.15-59.197-176-69.342s-126.9-9.704-190.54-7.748c6.207 23.57 22.766 44.214 44.427 55.388 15.879 8.191 33.809 11.308 51.42 14.322 75.099 12.848 150.29 25.708 226.14 32.8 10.483 0.981 22.888 1.058 29.274-7.311 5.385-7.058 5.076-18.699 13.093-22.511"/></g></g></g></g><g style="stroke-width:1.2313"><g style="stroke-width:1.2313"><g clip-path="url(#clipPath24134)" style="opacity:.10001;stroke-width:1.2313"><g transform="translate(738.7 578.65)" style="stroke-width:1.2313"><path d="m0 0c-27.862 15.407-57.828 27.002-88.804 34.361 25.07-14.696 51.5-27.074 78.84-36.925-36.587-7.36-71.426-23.272-100.95-46.105l86.259 6.429c6.998-56.252-5.659-114.76-35.282-163.09 12.928-7.784 24.058-18.534 32.287-31.184 25.778 74.982 36.365 155.15 30.935 234.25"/></g></g></g></g><g style="stroke-width:1.2313"><g style="stroke-width:1.2313"><g clip-path="url(#clipPath24150)" style="opacity:.10001;stroke-width:1.2313"><g transform="translate(499.73 599.41)" style="stroke-width:1.2313"><path d="m0 0c-14.157-46.122-28.314-92.245-42.471-138.37-1.241-4.041-2.495-8.206-2.125-12.416 0.627-7.117 5.749-13.008 11.233-17.587 15.587-13.017 35.457-19.512 54.838-25.575 48.09-15.045 97.311-29.327 147.7-29.112-86.517-5.46-173.03-10.92-259.55-16.379-7.871-0.497-16.74-0.652-22.446 4.791-6.922 6.603-5.62 17.853-3.213 27.112 19.248 74.052 73.51 132.91 114.72 197.38"/></g></g></g></g><g style="stroke-width:1.2313"><g style="stroke-width:1.2313"><g clip-path="url(#clipPath24166)" style="opacity:.10001;stroke-width:1.2313"><g transform="translate(743.26 578)" style="stroke-width:1.2313"><path d="m0 0c23.439-7.633 46.082-17.711 67.44-30.019-16.405 2.501-33.278 1.89-49.458-1.79-2.673-36.959-5.345-73.919-8.017-110.88-0.695-9.609-0.794-20.747 6.512-27.027 4.089-3.515 9.653-4.646 14.963-5.586 55.972-9.91 113.27-12.285 169.87-7.039-28.919-1.316-56.975-9.786-84.676-18.193-44.974-13.649-89.948-27.299-134.92-40.948-16.268 46.432 11.529 96.271 12.148 145.47 0.403 32.105-10.478 66.487 4.335 94.973"/></g></g></g></g><g style="stroke-width:1.2313"><g style="stroke-width:1.2313"><g clip-path="url(#clipPath24182)" style="opacity:.10001;stroke-width:1.2313"><g transform="translate(928.57 567.38)" style="stroke-width:1.2313"><path d="m0 0c12.311-29.688 20.283-62.04 16.285-93.93s-21.495-63.212-49.996-78.067c24.33-1.555 48.872 0.213 72.728 5.241 3.108 0.655 6.367 1.449 8.672 3.636 3.807 3.612 3.715 9.606 3.255 14.833-2.853 32.365-9.354 64.408-19.339 95.326-5.193 16.08-11.397 32.261-11.379 49.158"/></g></g></g></g><g style="stroke-width:1.2313"><g style="stroke-width:1.2313"><g clip-path="url(#clipPath24198)" style="opacity:.10001;stroke-width:1.2313"><g transform="translate(688.73 760.43)" style="stroke-width:1.2313"><path d="m0 0-1.755-47.874c-0.427-11.644-0.838-23.462 1.89-34.79 2.729-11.329 9.044-22.306 19.182-28.051s24.372-4.885 32.068 3.864c6.27 7.127 7.089 17.384 7.605 26.862 0.874-36.67-1.606-73.419-7.399-109.64-11.368 7.616-20.274 18.298-29.013 28.827-9.774 11.775-19.547 23.55-29.32 35.324-2.813 3.388-5.673 6.859-7.229 10.977-2.161 5.719-1.587 12.063-0.861 18.132 2.47 20.641 6.349 41.113 11.601 61.227"/></g></g></g></g><g style="stroke-width:1.2313"><g style="stroke-width:1.2313"><g clip-path="url(#clipPath24214)" style="opacity:.10001;stroke-width:1.2313"><g transform="translate(767.78 755.98)" style="stroke-width:1.2313"><path d="m0 0c-3.914-16.851-6.19-34.081-6.785-51.37-0.853-24.823 2.501-51.538 18.855-70.232 6.076-6.946 13.644-12.407 21.318-17.532 7.34-4.903 15.037-9.639 23.656-11.546 15.368-3.401 32.085 3.169 42.352 15.099 10.266 11.93 14.325 28.516 12.484 44.147-4.251-8.512-15.712-10.098-25.175-9.104-24.915 2.618-48.539 15.851-63.784 35.731s-21.898 46.127-17.963 70.869"/></g></g></g></g><g style="stroke-width:1.2313"><g style="stroke-width:1.2313"><g clip-path="url(#clipPath24230)" style="opacity:.10001;stroke-width:1.2313"><g transform="translate(825.03 722.44)" style="stroke-width:1.2313"><path d="m0 0c12.999-8.639 28.282-13.036 43.295-17.31 2.084-0.594 4.234-1.193 6.389-0.951 3.944 0.442 7.119 3.699 8.612 7.377 1.492 3.678 1.61 7.748 1.67 11.716 0.249 16.403-1.025 34.86-13.313 45.727-1.673 1.479-3.668 2.824-5.901 2.855-4.751 0.066-7.444-5.498-7.964-10.221-0.519-4.724-0.294-10.077-3.618-13.473-4.62-4.717-12.384-2.402-18.963-1.84-7.372 0.631-14.95-1.532-20.876-5.961-0.937-0.7-1.902-1.575-2.023-2.738-0.128-1.217 0.708-2.302 1.504-3.232 5.284-6.184 10.907-12.079 16.833-17.651"/></g></g></g></g></g></g><g style="stroke-width:1.2313"><g clip-path="url(#clipPath24246)" style="stroke-width:1.2313"><g transform="translate(411.26 332.7)" style="stroke-width:1.2313"><path d="m0 0s-109.77-1.892-145.09-76.963c-35.327-75.07 302.4-56.089 362.1-42.897 54.253 11.986 73.809 3.785 69.393 102.2z" style="fill:#705646"/></g></g></g><g style="stroke-width:1.2313"><g clip-path="url(#clipPath24258)" style="stroke-width:1.2313"><g style="stroke-width:1.2313"><g style="stroke-width:1.2313"><g clip-path="url(#clipPath24266)" style="opacity:.10001;stroke-width:1.2313"><g transform="translate(333.07 316.32)" style="stroke-width:1.2313"><path d="m0 0c83.615-1.547 167.07-11.462 248.72-29.549 11.235-2.488 22.728-5.256 32.221-11.76 1.748-1.198 3.518-2.664 4.057-4.713 0.778-2.962-1.264-5.874-3.301-8.161-21.417-24.049-54.136-34.385-85.719-40.676-67.534-13.451-136.95-13.144-205.81-12.786 42.63-18.76 89.186-26.923 135.56-31.232 55.344-5.142 111.18-5.013 166.5 0.388 23.771 2.32 50.189 7.178 64.088 26.601 8.496 11.873 10.569 27.025 12.39 41.51 2.804 22.302 4.55 47.996-11.15 64.083-11.732 12.023-29.756 14.786-46.437 16.77-86.829 10.327-174.32 17.075-261.69 13.67-16.605-0.647-35.356-2.746-45.459-15.94-1.056-1.378-2.272-3.01-4.009-3.01-1.737-1e-3 -2.525 3.193-0.789 3.252"/></g></g></g></g></g></g><g style="stroke-width:1.2313"><g clip-path="url(#clipPath24282)" style="stroke-width:1.2313"><g transform="translate(989.07 319.7)" style="stroke-width:1.2313"><path d="m0 0s109.54-7.339 141.1-84.07c31.557-76.732-304.81-41.01-363.79-24.871-53.591 14.665-73.53 7.445-64.235 105.52z" style="fill:#705646"/></g></g></g><g style="stroke-width:1.2313"><g clip-path="url(#clipPath24294)" style="stroke-width:1.2313"><g style="stroke-width:1.2313"><g style="stroke-width:1.2313"><g clip-path="url(#clipPath24302)" style="opacity:.10001;stroke-width:1.2313"><g transform="translate(1038.2 318.38)" style="stroke-width:1.2313"><path d="m0 0c-40.998-24.231-91.941-19.611-139.54-21.073-30.373-0.932-60.659-4.658-90.352-11.117-5.729-1.246-12.264-3.272-14.418-8.726-1.889-4.78 0.489-10.121 3.135-14.527 21.003-34.977 60.549-54.878 100.17-64.604 39.622-9.727 80.828-11.083 120.86-18.963-45.344 2.149-90.688 4.297-136.03 6.446-39.395 1.866-78.821 3.735-118.02 8.124-18.014 2.017-36.215 4.632-52.894 11.729-4.115 1.751-8.273 3.894-10.935 7.487-3.611 4.873-3.786 11.397-3.817 17.462-0.089 17.815-0.179 35.63-0.269 53.445-0.074 14.729 0.265 30.72 9.415 42.262 6.962 8.782 17.852 13.371 28.452 17.008 95.625 32.813 200.3 15.527 299.85-2.095"/></g></g></g></g></g></g><g style="stroke-width:1.2313"><g clip-path="url(#clipPath24318)" style="stroke-width:1.2313"><g transform="translate(644.69 1251.2)" style="stroke-width:1.2313"><path d="m0 0s-28.406-275.68-54.271-340.66c-25.864-64.977-71.916-112.92-70.654-123.65 0 0 34.058-6.939 62.45-25.233 28.391-18.295 275.68 9.462 332.46 59.299 0 0-48.575 47.944-61.823 84.533-13.247 36.589-119.37 350.75-119.37 350.75z" style="fill:#fff4d9"/></g></g></g><g style="stroke-width:1.2313"><g clip-path="url(#clipPath24330)" style="stroke-width:1.2313"><g style="stroke-width:1.2313"><g style="stroke-width:1.2313"><g clip-path="url(#clipPath24338)" style="opacity:.10001;stroke-width:1.2313"><g transform="translate(775.44 1276.5)" style="stroke-width:1.2313"><path d="m0 0c1.86-1.852 0.704-4.987-0.57-7.281-8.56-15.402-18.277-30.162-29.041-44.112-10.796-13.991-23.579-27.782-40.54-32.747-26.579-7.78-53.911 8.252-75.867 25.132-8.462 6.505-17.415 14.458-18.279 25.096-0.869 10.703 7.885 20.882 18.419 22.968 10.533 2.086 21.76-3.147 28.198-11.742 6.611-8.825 9.327-21.275 19.023-26.526 7.274-3.939 16.559-2.327 23.602 2.011 7.043 4.337 12.292 11.003 17.253 17.622 15.93 21.254 32.303 44.88 57.546 53.142 3.098-5.389 4.453-11.764 3.816-17.947"/></g></g></g></g><g style="stroke-width:1.2313"><g style="stroke-width:1.2313"><g clip-path="url(#clipPath24354)" style="opacity:.10001;stroke-width:1.2313"><g transform="translate(718.3 1204.4)" style="stroke-width:1.2313"><path d="m0 0c3.453-68.319 38.779-130.54 55.799-196.8 4.025-15.669 7.023-32.193 3.266-47.928-2.805-11.751-9.197-22.278-15.497-32.586-13.128-21.482-26.256-42.963-39.384-64.444-4.442-7.268-10.084-15.324-18.564-16.126-14.383 104.79-18.234 211.02-11.475 316.58 0.56 8.753 1.262 17.763 5.189 25.604 3.928 7.842 11.906 14.313 20.66 13.777"/></g></g></g></g><g style="stroke-width:1.2313"><g style="stroke-width:1.2313"><g clip-path="url(#clipPath24370)" style="opacity:.10001;stroke-width:1.2313"><g transform="translate(825.13 993.84)" style="stroke-width:1.2313"><path d="m0 0c10.307-19.715 16.77-41.429 18.922-63.571 0.756-7.784 0.959-15.817-1.52-23.234-4.599-13.764-17.638-23.052-31.092-28.493s-27.953-8.001-41.301-13.696c-17.582-7.5-32.784-20.472-42.957-36.654 19.774 7.933 40.051 14.615 60.669 19.99 12.524 3.265 25.736 6.049 38.298 2.933 4.373-1.084 9.204-3.66 9.717-8.136 0.647-5.629-5.714-9.226-11.061-11.101-35.243-12.362-72.352-19.393-109.68-20.781-19.203-0.714-38.61 0.04-57.448-3.757-18.837-3.797-37.571-12.891-48.068-28.987 58.811-5.736 118.62-1.067 175.83 13.726 17.727 4.584 35.521 10.174 53.83 9.998 12.695-0.122 25.363-3.03 37.996-1.768s26.034 8.222 29.355 20.476c3.259 12.027-4.061 24.081-10.617 34.677-23.854 38.556-41.673 80.837-52.612 124.84"/></g></g></g></g><g style="stroke-width:1.2313"><g style="stroke-width:1.2313"><g clip-path="url(#clipPath24386)" style="opacity:.10001;stroke-width:1.2313"><g transform="translate(594.73 980.84)" style="stroke-width:1.2313"><path d="m0 0c4.124-33.497 22.043-65.085 48.679-85.813 10.591-8.242 22.456-14.816 32.539-23.672s18.531-20.765 19.147-34.171c-27.819 1.293-44.799 35.517-72.47 38.666-15.753 1.794-32.057-8.589-37.094-23.622 21.254-2.225 41.922-9.852 59.526-21.969-18.965-18.965-56.75-12.705-69.863-36.101 13.385-17.252 31.606-30.709 52.032-38.427-6.882-8.386-19.584-9.394-30.053-6.55-10.468 2.843-19.878 8.726-30.228 11.975-17.596 5.522-39.548 4.544-50.457 19.412-10.453 14.248-3.99 34.227 3.252 50.345 19.056 42.409 41.216 83.423 66.242 122.61"/></g></g></g></g></g></g><g style="stroke-width:1.2313"><g clip-path="url(#clipPath24402)" style="stroke-width:1.2313"><g transform="translate(682.42 1199.6)" style="stroke-width:1.2313"><path d="m0 0-30.493-239.68 52.899-103.76 52.932 106.23-50.832 237.7z" style="fill:#a67c52"/></g></g></g><g style="stroke-width:1.2313"><g clip-path="url(#clipPath24414)" style="stroke-width:1.2313"><g style="stroke-width:1.2313"><g style="stroke-width:1.2313"><g clip-path="url(#clipPath24422)" style="opacity:.17;stroke-width:1.2313"><g transform="translate(665.91 1115.3)" style="stroke-width:1.2313"><path d="m0 0c-2.994-33.979-5.987-67.958-8.981-101.94-1.158-13.141-2.288-26.618 1.239-39.329 3.877-13.98 13.034-25.796 21.984-37.214 2.959-3.774 6.175-7.736 10.715-9.279 5.326-1.809 11.191 0.162 16.149 2.816 21.159 11.328 33.761 34.645 38.029 58.263 4.267 23.617 1.369 47.872-1.538 71.695 34.401-66.405 27.582-152.12-16.885-212.25-4.895-6.619-10.841-13.341-18.91-14.974-13.496-2.732-24.987 9.65-32.427 21.237-48.924 76.187-57.453 176.78-22.052 260.12"/></g></g></g></g></g></g><g style="stroke-width:1.2313"><g clip-path="url(#clipPath24438)" style="stroke-width:1.2313"><g transform="translate(665.9 1243)" style="stroke-width:1.2313"><path d="m0 0h56.225s3.471-44.772-23.6-64.902c0 0-52.383 3.902-32.625 64.902" style="fill:#a67c52"/></g></g></g><g style="stroke-width:1.2313"><g clip-path="url(#clipPath24450)" style="stroke-width:1.2313"><g style="stroke-width:1.2313"><g style="stroke-width:1.2313"><g clip-path="url(#clipPath24458)" style="opacity:.17;stroke-width:1.2313"><g transform="translate(673.54 1250)" style="stroke-width:1.2313"><path d="m0 0c-8.842-8.94-7.482-24.184-1.14-35.042 3.504-6 9.054-11.625 15.994-11.985 6.906-0.358 12.994 4.621 17.068 10.209 7.14 9.793 10.337 22.378 8.735 34.391 9.778-9.101 10.829-23.967 11.211-37.32 0.111-3.911 0.205-7.932-1.133-11.608-1.463-4.02-4.498-7.245-7.588-10.203-5.485-5.251-11.508-10.124-18.523-13.031s-15.172-3.678-22.181-0.756c-7.762 3.236-13.143 10.481-16.859 18.025-3.778 7.672-6.265 16.151-5.877 24.693 0.564 12.412 7.567 24.356 18.123 30.909"/></g></g></g></g></g></g><g style="stroke-width:1.2313"><g clip-path="url(#clipPath24474)" style="stroke-width:1.2313"><g transform="translate(852.86 1787.4)" style="stroke-width:1.2313"><path d="m0 0s42.582 74.755 109.77 32.173 25.549-138.16-17.033-141.94-102.2 7.57-109.77 49.206c-7.57 41.635 17.033 60.561 17.033 60.561" style="fill:#edcbb9"/></g><g style="stroke-width:1.2313"><g style="stroke-width:1.2313"><g clip-path="url(#clipPath24486)" style="opacity:.050003;stroke-width:1.2313"><g transform="translate(967.35 1766)" style="stroke-width:1.2313"><path d="m0 0c-5.209 10.15-15.66 16.571-26.298 20.691-11.104 4.299-24.034 6.528-34.633 1.102-5.201-2.664-9.821-8.717-7.366-14.02 3.415-7.376 15.132-4.578 21.615-9.481 7.826-5.919 3.548-18.681-3.214-25.791-7.652-8.044-17.677-13.804-28.48-16.362 0 0 24.919-24.758 60.318-5.23 16.86 9.301 26.85 31.96 18.058 49.091"/></g></g></g></g><g transform="translate(890.55 1723.7)" style="stroke-width:1.2313"><path d="m0 0c19.379-6.771 58.114 27.26 36.249 43.907-4.644 3.536-10.483 4.275-15.953 5.734-1.575 0.42-3.674 0.58-5.024 1.571-2.493 0.479-3.067 2.236-1.723 5.27-1.443 3.113-0.84 4.896 1.808 5.349 3.223 2.433 9.877 2.542 13.726 2.55 17.135 0.038 31.119-10.079 41.886-22.563 1.096-1.271 3.336 0.077 2.817 1.64-4.605 13.873-16.922 22.935-30.754 26.74-11.291 3.106-30.922 3.984-38.656-6.961-8.562-12.115 6.801-19.439 16.22-21.636 1.99-0.464 4.068-0.776 5.997-1.471 5.562-2.004 6.298-2.513 6.281-9.071-0.018-7.119-2.568-11.06-7.625-16.064-7.473-7.396-16.524-8.817-25.487-13.171-0.832-0.404-0.506-1.564 0.238-1.824" style="fill:#cf9f86"/></g><g transform="translate(521.52 1789.3)" style="stroke-width:1.2313"><path d="m0 0s-42.582 74.755-109.77 32.173-25.549-138.16 17.033-141.94 102.2 7.57 109.77 49.206c7.57 41.635-17.033 60.561-17.033 60.561" style="fill:#edcbb9"/></g><g style="stroke-width:1.2313"><g style="stroke-width:1.2313"><g clip-path="url(#clipPath24510)" style="opacity:.050003;stroke-width:1.2313"><g transform="translate(481.83 1727.7)" style="stroke-width:1.2313"><path d="m0 0c-7.441-0.014-14.878 1.81-21.467 5.267-5.135 2.693-9.886 6.529-12.45 11.73s-2.543 11.914 1.081 16.441c3.944 4.925 10.769 6.145 16.828 7.905s12.713 5.45 13.423 11.72c0.969 8.547-9.484 13.609-18.056 14.331-15.495 1.307-31.958-3.213-42.796-14.364-10.839-11.151-14.703-29.386-7.054-42.925 6.526-11.549 19.554-17.756 32.259-21.571 6.99-2.099 14.369-3.703 21.553-2.416s14.148 6.054 16.127 13.078"/></g></g></g></g><g transform="translate(484.06 1727.5)" style="stroke-width:1.2313"><path d="m0 0c-8.523 4.14-17.123 5.565-24.468 12.235-3.385 3.074-6.908 6.969-8.63 11.289-4.797 12.031 2.798 14.091 11.058 16 9.547 2.207 26.354 9.097 17.426 21.889-7.431 10.647-26.371 10.003-37.384 7.276-14.322-3.545-27.281-12.76-32.027-27.055-0.519-1.562 1.72-2.912 2.818-1.64 10.505 12.181 23.934 22.042 40.58 22.528 4.391 0.128 8.988-0.296 13.165-1.716l3.734-1.598c-0.04-3.033-0.079-6.066-0.119-9.099-0.764-1.134-4.18-1.656-5.517-2.036-5.848-1.662-12.114-2.177-17.124-5.99-21.863-16.64 16.876-50.676 36.25-43.907 0.74 0.259 1.068 1.421 0.238 1.824" style="fill:#cf9f86"/></g><g transform="translate(544.53 1860.1)" style="stroke-width:1.2313"><path d="m0 0s-89.417-212.9-82.321-292.38c7.097-79.482 164.64-170.32 164.64-170.32s40.856-97.934 39.589-153.29c0 0 37.055-28.386 51.248 14.194 0 0 0 97.933 25.548 144.77 0 0 133.42 77.31 150.45 150.07 17.032 72.762-49.677 390.69-70.967 411.98s-184.51 160.38-278.19-105.03" style="fill:#edcbb9"/></g></g></g><g style="stroke-width:1.2313"><g clip-path="url(#clipPath24534)" style="stroke-width:1.2313"><g style="stroke-width:1.2313"><g style="stroke-width:1.2313"><g clip-path="url(#clipPath24542)" style="opacity:.050003;stroke-width:1.2313"><g transform="translate(860.66 1777.2)" style="stroke-width:1.2313"><path d="m0 0c-20.154 31.644-35.248 66.503-44.536 102.85-1.74 6.812-3.616 14.222-9.162 18.543-3.033 2.363-6.824 3.495-10.541 4.479-83.794 22.167-179.59-12.178-230.22-82.536-20.164-28.025-35.968-62.973-67.967-75.935-6.523 32.853 2.671 66.87 15.769 97.697 17.438 41.042 41.962 79.063 72.16 111.88 13.428 14.591 28.381 28.434 46.62 36.218 33.707 14.386 72.299 5.923 107.91-2.741 32.557-7.921 67.696-17.467 88.064-44.072 12.815-16.739 17.874-38.009 21.952-58.691 7.097-35.994 12.206-72.38 15.296-108.94"/></g></g></g></g><g style="stroke-width:1.2313"><g style="stroke-width:1.2313"><g clip-path="url(#clipPath24558)" style="opacity:.34;stroke-width:1.2313"><g transform="translate(854.75 1463.8)" style="stroke-width:1.2313"><path d="m0 0c-53.068-45.887-125.01-69.243-194.91-63.276-69.902 5.966-136.85 41.176-181.37 95.394 23.702-50.806 67.397-84.678 111.74-118.99 20.182-15.616 42.045-31.73 67.493-33.61 14.078-1.04 28.13 2.432 42.245 2.23s29.708-5.396 35.909-18.077c42.522 45.133 85.044 90.266 127.57 135.4"/></g></g></g></g></g></g><g style="stroke-width:1.2313"><g clip-path="url(#clipPath24574)" style="stroke-width:1.2313"><g transform="translate(756.97 1349.6)" style="stroke-width:1.2313"><path d="m0 0s2.523-23.341-61.823-49.206c0 0 11.986-74.439 8.832-100.94 0 0 63.715 72.547 65.608 93.365 0 0 10.093 51.729-12.617 56.776" style="fill:#f2f2f2"/></g><g transform="translate(619.29 1344.6)" style="stroke-width:1.2313"><path d="m0 0s-1.378-23.437 64.157-46.122c0 0-8.33-74.937-3.883-101.25 0 0-67.189 69.342-70.098 90.043 0 0-12.612 51.173 9.824 57.325" style="fill:#f2f2f2"/></g><g transform="translate(705.24 354.15)" style="stroke-width:1.2313"><path d="m0 0s260.54 89.462 304.07 41.261c0 0-9.463-39.368 3.785-70.911 13.248-31.542-210.64 3.971-319.18-25.771 0 0-42.297 1.168 11.325 55.421" style="fill:#c69c6d"/></g></g></g><g style="stroke-width:1.2313"><g clip-path="url(#clipPath24594)" style="stroke-width:1.2313"><g style="stroke-width:1.2313"><g style="stroke-width:1.2313"><g clip-path="url(#clipPath24602)" style="opacity:.10001;stroke-width:1.2313"><g transform="translate(809.93 392.12)" style="stroke-width:1.2313"><path d="m0 0c-15.96-3.522-30.685-12.411-41.237-24.892 13.161-12.307 32.972-13.71 50.972-12.91 18.001 0.8 36.858 2.979 53.355-4.267-25.149-14.096-62.817-1.562-81.145-23.816 34.418-4.661 69.36-5.441 103.95-2.322 12.082 1.089 24.732 2.575 35.961-2.016 1.761-0.72 3.612-1.743 4.265-3.53 1.468-4.019-3.877-6.959-8.069-7.816-59.671-12.197-123.06 0.435-181.45-16.873-9.368-2.778-18.619-6.328-28.348-7.236s-20.332 1.266-27.049 8.363c-9.025 9.535-8.415 24.594-5.324 37.354 2.458 10.145 6.18 20.12 12.259 28.606 19.858 27.716 58.607 32.875 92.702 32.581 6.192-0.054 13.541 0.388 16.791 5.659"/></g></g></g></g></g></g><g style="stroke-width:1.2313"><g clip-path="url(#clipPath24618)" style="stroke-width:1.2313"><g transform="translate(358.27 321.34)" style="stroke-width:1.2313"><path d="m0 0c-3.569-0.892 0.631 88.949 78.225 71.916 77.594-17.032 267.48-0.63 275.05-23.972 7.57-23.341 8.201-80.117-17.664-83.271-25.864-3.155-280.1 49.206-335.61 35.327" style="fill:#c69c6d"/></g></g></g><g style="stroke-width:1.2313"><g clip-path="url(#clipPath24630)" style="stroke-width:1.2313"><g style="stroke-width:1.2313"><g style="stroke-width:1.2313"><g clip-path="url(#clipPath24638)" style="opacity:.10001;stroke-width:1.2313"><g transform="translate(443.95 398.47)" style="stroke-width:1.2313"><path d="m0 0c-16.2 1.565-32.948-3.667-45.378-14.173-1.529-1.293-3.041-2.727-3.777-4.589-2.868-7.266 7.049-12.707 14.773-13.866 23.43-3.515 47.292-2.32 70.924-3.999 23.632-1.678 47.931-6.618 66.992-20.689-28.133 1.765-56.265 3.531-84.397 5.296-14.492 0.909-31.419 0.798-40.42-10.595 50.268-22.019 111.79-6.136 160.53-31.365-16.485-7.321-35.357-5.882-53.326-4.304-55.301 4.857-110.6 9.714-165.9 14.571-2.924 0.257-5.925 0.535-8.559 1.831-7.92 3.9-9.015 14.904-6.843 23.461 6.828 26.904 32.772 43.835 57.032 57.323 8.484 4.716 19.31 9.282 27.299 3.767"/></g></g></g></g></g></g><g style="stroke-width:1.2313"><g clip-path="url(#clipPath24654)" style="stroke-width:1.2313"><g transform="translate(882.87 752.01)" style="stroke-width:1.2313"><path d="m0 0c-7.264-12.652-12.351-19.354-12.351-19.354s0.631-19.556-1.261-27.757c-1.893-8.201-60.757 9.847-74.44 39.112 0 0 22.673 15.414 54.875 10.116 0 0 4.361 5.562 10.236 17.258z" style="fill:#edcbb9"/></g><g transform="translate(230.84 1256.3)" style="stroke-width:1.2313"><path d="M 0,0 C 0,0 -47.313,141.94 22.71,177.898 92.734,213.856 138.155,115.444 94.627,-5.047 51.098,-125.538 0,0 0,0" style="fill:#edcbb9"/></g></g></g><g style="stroke-width:1.2313"><g clip-path="url(#clipPath24670)" style="stroke-width:1.2313"><g style="stroke-width:1.2313"><g style="stroke-width:1.2313"><g clip-path="url(#clipPath24678)" style="opacity:.050003;stroke-width:1.2313"><g transform="translate(223.37 1436.7)" style="stroke-width:1.2313"><path d="m0 0c-6.986-7.422-10.177-17.673-11.584-27.769-3.548-25.47 3.554-52.629 20.606-71.879 17.052-19.251 44.154-29.662 69.435-24.951 25.281 4.713 47.368 25.224 52.213 50.479 2.018-27.423 1.144-55.057-2.599-82.299-2.134-15.528-5.971-32.273-18.183-42.1-11.251-9.053-26.871-9.97-41.304-9.476-15.902 0.544-31.762 2.314-47.392 5.29-6.886 1.311-14.051 3.014-19.301 7.658-4.821 4.262-7.403 10.46-9.588 16.513-15.133 41.92-18.548 88.003-9.756 131.7"/></g></g></g></g></g></g><g style="stroke-width:1.2313"><g clip-path="url(#clipPath24694)" style="stroke-width:1.2313"><g transform="translate(211.92 1080.9)" style="stroke-width:1.2313"><path d="m 0,0 c 0,0 -15.14,-77.685 31.542,-92.149 46.683,-14.464 140.356,29.065 144.618,59.345 4.261,30.281 1.108,51.512 -61.346,50.674 C 52.36,17.033 0,0 0,0" style="fill:#edcbb9"/></g></g></g><g style="stroke-width:1.2313"><g clip-path="url(#clipPath24706)" style="stroke-width:1.2313"><g style="stroke-width:1.2313"><g style="stroke-width:1.2313"><g clip-path="url(#clipPath24714)" style="opacity:.050003;stroke-width:1.2313"><g transform="translate(231.55 1068.3)" style="stroke-width:1.2313"><path d="m0 0c-3.337-17.342 11.461-33.999 28.354-39.146 16.893-5.146 35.063-1.794 52.392 1.607 15.423 3.027 31.035 6.128 45.199 12.941 14.163 6.812 26.952 17.858 32.516 32.557 14.016-28.273-0.74-64.462-26.279-82.997s-58.751-22.791-90.302-22.21c-10.259 0.189-20.69 0.861-30.309 4.433-17.136 6.363-29.904 21.415-37.547 38.019-4.61 10.017-7.654 21.29-5.298 32.063 2.355 10.773 11.335 20.631 22.351 21.127"/></g></g></g></g></g></g><g style="stroke-width:1.2313"><g clip-path="url(#clipPath24730)" style="stroke-width:1.2313"><g transform="translate(195.03 1160.9)" style="stroke-width:1.2313"><path d="m0 0s-47.457-15.648-27.269-48.452c20.186-32.804 60.561-70.024 141.31-37.851s93.995 41.005 87.056 61.823-54.883 52.51-105.98 43.919c-51.098-8.591-95.114-19.439-95.114-19.439" style="fill:#edcbb9"/></g></g></g><g style="stroke-width:1.2313"><g clip-path="url(#clipPath24742)" style="stroke-width:1.2313"><g style="stroke-width:1.2313"><g style="stroke-width:1.2313"><g clip-path="url(#clipPath24750)" style="opacity:.050003;stroke-width:1.2313"><g transform="translate(175.84 1160.5)" style="stroke-width:1.2313"><path d="m0 0c-8.052-9.093-7.585-23.593-1.378-34.033 6.206-10.44 17.006-17.363 28.191-22.098 33.129-14.023 71.338-11.522 105.71-0.918 31.607 9.75 63.987 29.626 71.994 61.718 11.244-4.54 18.656-8.927 24.965-19.282 3.389-5.56 5.856-12.183 4.389-18.527-1.604-6.935-7.472-11.971-13.229-16.158-33.468-24.34-73.723-37.136-113.2-49.548-8.726-2.744-17.545-5.506-26.666-6.201-10.31-0.787-20.649 1.101-30.645 3.746-22.974 6.078-46.045 17.228-58.809 37.274s-11.114 50.426 8.44 63.932"/></g></g></g></g></g></g><g style="stroke-width:1.2313"><g clip-path="url(#clipPath24766)" style="stroke-width:1.2313"><g transform="translate(195.03 1160.9)" style="stroke-width:1.2313"><path d="m0 0c-20.975-3.477-40.454 12.136-41.18 33.385-0.94 27.544 12.391 59.953 50.5 69.566 70.023 17.663 102.48 20.187 141.77-7.571 39.285-27.757 70.481-66.869 0-87.056 0 0-96.074 0.794-151.09-8.324" style="fill:#edcbb9"/></g></g></g><g style="stroke-width:1.2313"><g clip-path="url(#clipPath24778)" style="stroke-width:1.2313"><g style="stroke-width:1.2313"><g style="stroke-width:1.2313"><g clip-path="url(#clipPath24786)" style="opacity:.050003;stroke-width:1.2313"><g transform="translate(210.1 1283.1)" style="stroke-width:1.2313"><path d="m0 0c-10.905-8.009-20.866-17.882-26.41-30.224s-6.083-27.463 1.007-38.987c5.159-8.387 13.742-14.121 22.683-18.243 38.311-17.658 83.047-9.22 124.13 0.353 12.019 2.801 24.599 5.97 33.644 14.365 9.046 8.396 12.851 23.785 4.79 33.13 9.434-7.364 19.069-14.949 25.371-25.124 6.301-10.175 8.682-23.644 2.881-34.112-5.924-10.688-18.431-15.604-30.054-19.376-53.499-17.365-109.32-27.569-165.5-30.256-8.812-0.421-18.064-0.568-25.93 3.426-7.409 3.762-12.628 10.737-16.913 17.856-10.164 16.888-16.666 36.404-15.855 56.098 0.811 19.695 9.533 39.47 25.26 51.353 7.957 6.012 17.708 10.168 23.381 18.369"/></g></g></g></g></g></g><g style="stroke-width:1.2313"><g clip-path="url(#clipPath24802)" style="stroke-width:1.2313"><g transform="translate(705.87 1853)" style="stroke-width:1.2313"><path d="m 0,0 c 0,0 21.449,68.762 106.612,17.663 0,0 -1.793,73.861 -51.994,62.48 C 4.416,68.762 0,0 0,0" style="fill:#a86140"/></g><g transform="translate(662.97 1853)" style="stroke-width:1.2313"><path d="m 0,0 c 0,0 -21.449,68.762 -106.613,17.663 0,0 1.794,73.861 51.995,62.48 C -4.416,68.762 0,0 0,0" style="fill:#a86140"/></g><g transform="translate(822.57 1977.9)" style="stroke-width:1.2313"><path d="m0 0s-13.438 40.558 16.074 25.005c16.433-8.661 27.41-25.015 29.889-43.423 5.602-41.603 14.809-127.63 3.468-178.12-15.366-68.415-55.824 183.17-49.431 196.54" style="fill:#a86140"/></g></g></g><g style="stroke-width:1.2313"><g clip-path="url(#clipPath24822)" style="stroke-width:1.2313"><g style="stroke-width:1.2313"><g style="stroke-width:1.2313"><g clip-path="url(#clipPath24830)" style="opacity:.10001;stroke-width:1.2313"><g transform="translate(795.65 1978.5)" style="stroke-width:1.2313"><path d="m0 0c21.184-28.495 35.026-62.401 39.838-97.581 5.639 23.17 3.088 48.248-7.101 69.808 17.573-19.473 26.83-45.206 31.326-71.048 1.573 31.986-3.984 64.302-16.151 93.925 10.66-10.517 18.935-23.438 24.029-37.52 3.934 11.815-0.637 24.597-5.158 36.2-5.164 13.253-10.595 26.922-20.686 36.948-3.292 3.271-7.28 6.195-11.891 6.726-4.918 0.565-9.747-1.688-13.779-4.56-13.055-9.3-20.328-27.722-13.387-42.169"/></g></g></g></g></g></g><g style="stroke-width:1.2313"><g clip-path="url(#clipPath24846)" style="stroke-width:1.2313"><g transform="translate(834.38 1970.4)" style="stroke-width:1.2313"><path d="m0 0s-41.986 195.56-156.22 214.49c-114.23 18.925-147.66-58.038-159.65-107.24-11.986-49.206 103.46 6.087 140.05 1.466 36.588-4.621 157.97-128.9 175.82-108.71" style="fill:#a86140"/></g></g></g><g style="stroke-width:1.2313"><g clip-path="url(#clipPath24858)" style="stroke-width:1.2313"><g style="stroke-width:1.2313"><g style="stroke-width:1.2313"><g clip-path="url(#clipPath24866)" style="opacity:.10001;stroke-width:1.2313"><g transform="translate(513.19 2081.5)" style="stroke-width:1.2313"><path d="m0 0c7.271 28.788 21.822 55.707 41.925 77.558 7.132 7.753 16.678 15.428 27.035 13.501-19.586-18.654-35.464-41.186-46.443-65.905 11.54 12.778 27.078 21.893 43.863 25.729-16.557-12.01-29.955-28.336-38.505-46.917 15.763 20.238 46.003 27.592 69.3 16.852-33.339-9.748-63.769-29.227-86.58-55.422-0.685-0.787-1.45-1.63-2.479-1.804-1.497-0.252-2.796 0.999-3.729 2.196-10.757 13.797-10.076 33.02-8.887 50.474"/></g></g></g></g><g style="stroke-width:1.2313"><g style="stroke-width:1.2313"><g clip-path="url(#clipPath24882)" style="opacity:.10001;stroke-width:1.2313"><g transform="translate(815.47 1919.9)" style="stroke-width:1.2313"><path d="m0 0c-1.136 11.817-15.807 16.322-27.595 17.722-11.789 1.4-26.443 4.984-28.642 16.65 14.026 1.991 28.052 3.982 42.078 5.972-44.65 2.864-89.384 4.423-134.12 4.673 28.988 18.887 66.488 16.041 100.9 12.501-22.015 9.229-45.042 16.04-68.534 20.272 19.123 0.606 38.247 1.211 57.371 1.817-39.245 15.529-81.62 23.1-123.81 22.124 42.183 17.341 90.428 19.492 133.99 5.974-20.557 26.436-54.575 37.745-86.553 47.686 31.75 0.849 63.689-6.948 91.476-22.33-15.531 17.598-36.363 30.456-59.056 36.449 19.605-4.174 38.694-10.771 56.693-19.593-1.754 17.732-17.247 31.014-33.254 38.843-16.007 7.83-33.789 12.345-48.231 22.783 23.471-4.31 46.541-10.802 68.816-19.364-16.678 16.972-33.355 33.945-50.032 50.917 36.937-4.994 69.686-27.834 93.495-56.511 23.81-28.676 39.728-62.982 54.097-97.374 6.592-15.78 13.022-32.223 12.616-49.319-0.407-17.097-9.356-35.135-25.383-41.103-14.512-5.404-30.577 0.036-45.086 5.449"/></g></g></g></g><g style="stroke-width:1.2313"><g style="stroke-width:1.2313"><g clip-path="url(#clipPath24898)" style="opacity:.3;stroke-width:1.2313"><g transform="translate(649.82 2192.5)" style="stroke-width:1.2313"><path d="m0 0c-28.338-2.311-55.418-17.208-72.542-39.905 11.804 3.001 26.083 5.385 34.67-3.253-15.686-5.894-28.588-18.796-34.481-34.482 9.293 4.423 18.887 8.926 29.164 9.486s21.527-3.79 26.058-13.031c-2.684-3.612-7.969-3.501-12.44-4.009s-9.84-3.6-8.845-7.989c0.444-1.958 2.117-3.466 2.551-5.426 0.902-4.07-3.634-7.094-7.505-8.64-18.173-7.256-37.674-10.964-55.472-19.099-17.797-8.134-34.525-22.133-38.812-41.226 7.303 2.856 14.64 5.626 22.009 8.308 2.735 0.995 6.69 1.474 7.729-1.244 0.759-1.989-0.842-4.034-2.322-5.563-6.338-6.546-12.676-13.092-19.014-19.638 26.991 5.842 53.983 11.684 80.975 17.526 6.66 1.441 15.936 1.402 17.644-5.195 1.93-7.457-8.204-11.514-15.717-13.214-31.371-7.097-57.948-32.328-66.664-63.288 6.869 7.123 16.317 11.706 26.164 12.691-1.494-7.786-8.677-12.895-14.621-18.141-14.347-12.659-23.987-30.534-26.684-49.477 7.691 15.979 20.551 29.42 36.174 37.809-8.795-11.596-13.942-25.918-14.541-40.46 9.161 21.392 28.693 38.051 51.261 43.724 1.369-12.101-9.261-21.657-16.711-31.29-9.684-12.521-14.934-28.404-14.619-44.231 21.972 28.97 45.73 59.313 79.72 72.225 25.066 9.522 55.63 9.714 73.572 29.642-22.706-5.141-46.106-7.203-69.36-6.113 14.447 16.168 33.348 28.317 54.056 34.745-12.105 5.666-25.561 8.42-38.919 7.967 12.988 9.426 29.173 14.359 45.21 13.781-20.778 17.437-54.032 4.645-78.322 16.717 17.444 9.993 36.92 16.422 56.885 18.777 9.205 1.086 20.355 2.545 24.023 11.058-14.029 4.834-29.028 6.837-43.834 5.853 7.578 1.308 15.155 2.615 22.733 3.923-12.078 5.213-24.157 10.426-36.235 15.639 21.953 4.903 44.554 6.89 67.025 5.891-12.575 11.265-29.278 17.815-46.159 18.1 12.672-0.142 25.366 2.077 37.237 6.51-18.151 8.11-37.484 13.573-57.196 16.163 15.841 15.496 41.677 19.649 61.576 9.898-8.064 11.311-20.094 19.735-33.482 23.443 4.074 2.026 8.147 4.052 12.221 6.078 11.71 1.443 23.634 1.132 35.252-0.921-17.234 25.449-49.964 39.406-80.26 34.225-1.887-0.323-4.387-0.398-5.098 1.378-0.71 1.778 3.531 1.938 2.298 0.474" style="fill:#fff"/></g></g></g></g></g></g><g style="stroke-width:1.2313"><g clip-path="url(#clipPath24914)" style="stroke-width:1.2313"><g transform="translate(812.48 1989.3)" style="stroke-width:1.2313"><path d="m0 0s-194.93 93.365-320.55-53.581c-7.042-8.237-21.939 5.295-20.595 16.048 5.591 44.711 28.694 111.22 114.04 134.68 133.11 36.589 215.75-34.066 227.1-97.15" style="fill:#a86140"/></g></g></g><g style="stroke-width:1.2313"><g clip-path="url(#clipPath24926)" style="stroke-width:1.2313"><g style="stroke-width:1.2313"><g style="stroke-width:1.2313"><g clip-path="url(#clipPath24934)" style="opacity:.10001;stroke-width:1.2313"><g transform="translate(471.14 1971.5)" style="stroke-width:1.2313"><path d="m0 0c4.589 17.395 12.701 33.852 23.7 48.086-4.929-18.932-9.896-38.184-9.268-57.737 4.925 11.479 11.645 22.185 19.843 31.61-3.608-10.021-7.215-20.041-10.823-30.061 15.666 19.559 38.989 32.815 63.81 36.268-6.167 0.071-10.993-5.064-14.9-9.837-18.12-22.137-34.836-45.422-50.016-69.669-2.206-3.525-5.791-7.602-9.68-6.131-2.202 0.833-3.381 3.178-4.318 5.338-6.384 14.721-11.038 30.192-13.837 45.992"/></g></g></g></g><g style="stroke-width:1.2313"><g style="stroke-width:1.2313"><g clip-path="url(#clipPath24950)" style="opacity:.10001;stroke-width:1.2313"><g transform="translate(815.47 1919.9)" style="stroke-width:1.2313"><path d="m0 0c-1.136 11.817-15.807 16.322-27.595 17.722-11.789 1.4-26.443 4.984-28.642 16.65 14.026 1.991 28.052 3.982 42.078 5.972-44.65 2.864-89.384 4.423-134.12 4.673 28.988 18.887 66.488 16.041 100.9 12.501-22.015 9.229-45.042 16.04-68.534 20.272 19.123 0.606 38.247 1.211 57.371 1.817-39.245 15.529-81.62 23.1-123.81 22.124 42.183 17.341 90.428 19.492 133.99 5.974-20.557 26.436-54.575 37.745-86.553 47.686 31.75 0.849 63.689-6.948 91.476-22.33-15.531 17.598-36.363 30.456-59.056 36.449 19.605-4.174 38.694-10.771 56.693-19.593-1.754 17.732-17.247 31.014-33.254 38.843-16.007 7.83-33.789 12.345-48.231 22.783 23.471-4.31 46.541-10.802 68.816-19.364-16.678 16.972-33.355 33.945-50.032 50.917 36.937-4.994 69.686-27.834 93.495-56.511 23.81-28.676 39.728-62.982 54.097-97.374 6.592-15.78 13.022-32.223 12.616-49.319-0.407-17.097-9.356-35.135-25.383-41.103-14.512-5.404-30.577 0.036-45.086 5.449"/></g></g></g></g><g style="stroke-width:1.2313"><g style="stroke-width:1.2313"><g clip-path="url(#clipPath24966)" style="opacity:.2;stroke-width:1.2313"><g transform="translate(649.82 2192.5)" style="stroke-width:1.2313"><path d="m0 0c-28.338-2.311-55.418-17.208-72.542-39.905 11.804 3.001 26.083 5.385 34.67-3.253-15.686-5.894-28.588-18.796-34.481-34.482 9.293 4.423 18.887 8.926 29.164 9.486s21.527-3.79 26.058-13.031c-2.684-3.612-7.969-3.501-12.44-4.009s-9.84-3.6-8.845-7.989c0.444-1.958 2.117-3.466 2.551-5.426 0.902-4.07-3.634-7.094-7.505-8.64-18.173-7.256-37.674-10.964-55.472-19.099-17.797-8.134-34.525-22.133-38.812-41.226 7.303 2.856 14.64 5.626 22.009 8.308 2.735 0.995 6.69 1.474 7.729-1.244 0.759-1.989-0.842-4.034-2.322-5.563-6.338-6.546-12.676-13.092-19.014-19.638 26.991 5.842 53.983 11.684 80.975 17.526 6.66 1.441 15.936 1.402 17.644-5.195 1.93-7.457-8.204-11.514-15.717-13.214-31.371-7.097-57.948-32.328-66.664-63.288 6.869 7.123 16.317 11.706 26.164 12.691-1.494-7.786-8.677-12.895-14.621-18.141-14.347-12.659-23.987-30.534-26.684-49.477 7.691 15.979 20.551 29.42 36.174 37.809-8.795-11.596-13.942-25.918-14.541-40.46 9.161 21.392 28.693 38.051 51.261 43.724 1.369-12.101-9.261-21.657-16.711-31.29-9.684-12.521-14.934-28.404-14.619-44.231 21.972 28.97 45.73 59.313 79.72 72.225 25.066 9.522 55.63 9.714 73.572 29.642-22.706-5.141-46.106-7.203-69.36-6.113 14.447 16.168 33.348 28.317 54.056 34.745-12.105 5.666-25.561 8.42-38.919 7.967 12.988 9.426 29.173 14.359 45.21 13.781-20.778 17.437-54.032 4.645-78.322 16.717 17.444 9.993 36.92 16.422 56.885 18.777 9.205 1.086 20.355 2.545 24.023 11.058-14.029 4.834-29.028 6.837-43.834 5.853 7.578 1.308 15.155 2.615 22.733 3.923-12.078 5.213-24.157 10.426-36.235 15.639 21.953 4.903 44.554 6.89 67.025 5.891-12.575 11.265-29.278 17.815-46.159 18.1 12.672-0.142 25.366 2.077 37.237 6.51-18.151 8.11-37.484 13.573-57.196 16.163 15.841 15.496 41.677 19.649 61.576 9.898-8.064 11.311-20.094 19.735-33.482 23.443 4.074 2.026 8.147 4.052 12.221 6.078 11.71 1.443 23.634 1.132 35.252-0.921-17.234 25.449-49.964 39.406-80.26 34.225-1.887-0.323-4.387-0.398-5.098 1.378-0.71 1.778 3.531 1.938 2.298 0.474" style="fill:#fff"/></g></g></g></g></g></g><g style="stroke-width:1.2313"><g clip-path="url(#clipPath24982)" style="stroke-width:1.2313"><g transform="translate(823.84 1926.2)" style="stroke-width:1.2313"><path d="m0 0s-201.24 94.266-288.89-129.04c-8.849-22.541-35.059-2.97-36.814 4.637-11.453 49.671-10.227 143.51 69.585 196.32 126.8 83.903 246.92 34.066 266.66-27.757s-10.539-44.159-10.539-44.159" style="fill:#a86140"/></g></g></g><g style="stroke-width:1.2313"><g clip-path="url(#clipPath24994)" style="stroke-width:1.2313"><g style="stroke-width:1.2313"><g style="stroke-width:1.2313"><g clip-path="url(#clipPath25002)" style="opacity:.10001;stroke-width:1.2313"><g transform="translate(484.72 1844.2)" style="stroke-width:1.2313"><path d="m0 0c-1.307 34.976 11.449 70.28 34.811 96.343-3.585-12.681-7.036-25.4-10.353-38.154-5.904-22.7-11.286-47.29-2.602-69.078 1.372 20.119 10.103 39.656 24.176 54.1-5.502-19.827-9.388-40.102-11.607-60.558 11.205 21.596 24.811 41.946 40.486 60.554-20.419-38.989-27.057-85.024-18.484-128.19-18.92-0.155-35.576 14.073-44.002 31.013-8.425 16.941-10.245 36.291-11.927 55.136"/></g></g></g></g><g style="stroke-width:1.2313"><g style="stroke-width:1.2313"><g clip-path="url(#clipPath25018)" style="opacity:.10001;stroke-width:1.2313"><g transform="translate(815.47 1919.9)" style="stroke-width:1.2313"><path d="m0 0c-1.136 11.817-15.807 16.322-27.595 17.722-11.789 1.4-26.443 4.984-28.642 16.65 14.026 1.991 28.052 3.982 42.078 5.972-44.65 2.864-89.384 4.423-134.12 4.673 28.988 18.887 66.488 16.041 100.9 12.501-22.015 9.229-45.042 16.04-68.534 20.272 19.123 0.606 38.247 1.211 57.371 1.817-39.245 15.529-81.62 23.1-123.81 22.124 42.183 17.341 90.428 19.492 133.99 5.974-20.557 26.436-54.575 37.745-86.553 47.686 31.75 0.849 63.689-6.948 91.476-22.33-15.531 17.598-36.363 30.456-59.056 36.449 19.605-4.174 38.694-10.771 56.693-19.593-1.754 17.732-17.247 31.014-33.254 38.843-16.007 7.83-33.789 12.345-48.231 22.783 23.471-4.31 46.541-10.802 68.816-19.364-16.678 16.972-33.355 33.945-50.032 50.917 36.937-4.994 69.686-27.834 93.495-56.511 23.81-28.676 39.728-62.982 54.097-97.374 6.592-15.78 13.022-32.223 12.616-49.319-0.407-17.097-9.356-35.135-25.383-41.103-14.512-5.404-30.577 0.036-45.086 5.449"/></g></g></g></g><g style="stroke-width:1.2313"><g style="stroke-width:1.2313"><g clip-path="url(#clipPath25034)" style="opacity:.10001;stroke-width:1.2313"><g transform="translate(649.82 2192.5)" style="stroke-width:1.2313"><path d="m0 0c-28.338-2.311-55.418-17.208-72.542-39.905 11.804 3.001 26.083 5.385 34.67-3.253-15.686-5.894-28.588-18.796-34.481-34.482 9.293 4.423 18.887 8.926 29.164 9.486s21.527-3.79 26.058-13.031c-2.684-3.612-7.969-3.501-12.44-4.009s-9.84-3.6-8.845-7.989c0.444-1.958 2.117-3.466 2.551-5.426 0.902-4.07-3.634-7.094-7.505-8.64-18.173-7.256-37.674-10.964-55.472-19.099-17.797-8.134-34.525-22.133-38.812-41.226 7.303 2.856 14.64 5.626 22.009 8.308 2.735 0.995 6.69 1.474 7.729-1.244 0.759-1.989-0.842-4.034-2.322-5.563-6.338-6.546-12.676-13.092-19.014-19.638 26.991 5.842 53.983 11.684 80.975 17.526 6.66 1.441 15.936 1.402 17.644-5.195 1.93-7.457-8.204-11.514-15.717-13.214-31.371-7.097-57.948-32.328-66.664-63.288 6.869 7.123 16.317 11.706 26.164 12.691-1.494-7.786-8.677-12.895-14.621-18.141-14.347-12.659-23.987-30.534-26.684-49.477 7.691 15.979 20.551 29.42 36.174 37.809-8.795-11.596-13.942-25.918-14.541-40.46 9.161 21.392 28.693 38.051 51.261 43.724 1.369-12.101-9.261-21.657-16.711-31.29-9.684-12.521-14.934-28.404-14.619-44.231 21.972 28.97 45.73 59.313 79.72 72.225 25.066 9.522 55.63 9.714 73.572 29.642-22.706-5.141-46.106-7.203-69.36-6.113 14.447 16.168 33.348 28.317 54.056 34.745-12.105 5.666-25.561 8.42-38.919 7.967 12.988 9.426 29.173 14.359 45.21 13.781-20.778 17.437-54.032 4.645-78.322 16.717 17.444 9.993 36.92 16.422 56.885 18.777 9.205 1.086 20.355 2.545 24.023 11.058-14.029 4.834-29.028 6.837-43.834 5.853 7.578 1.308 15.155 2.615 22.733 3.923-12.078 5.213-24.157 10.426-36.235 15.639 21.953 4.903 44.554 6.89 67.025 5.891-12.575 11.265-29.278 17.815-46.159 18.1 12.672-0.142 25.366 2.077 37.237 6.51-18.151 8.11-37.484 13.573-57.196 16.163 15.841 15.496 41.677 19.649 61.576 9.898-8.064 11.311-20.094 19.735-33.482 23.443 4.074 2.026 8.147 4.052 12.221 6.078 11.71 1.443 23.634 1.132 35.252-0.921-17.234 25.449-49.964 39.406-80.26 34.225-1.887-0.323-4.387-0.398-5.098 1.378-0.71 1.778 3.531 1.938 2.298 0.474" style="fill:#fff"/></g></g></g></g></g></g><g style="stroke-width:1.2313"><g clip-path="url(#clipPath25050)" style="stroke-width:1.2313"><g transform="translate(823.84 1762.1)" style="stroke-width:1.2313"><path d="m0 0c0-32.576-26.408-58.984-58.984-58.984s-58.984 26.408-58.984 58.984 26.408 58.984 58.984 58.984 58.984-26.408 58.984-58.984" style="fill:#f2f2f2"/></g></g></g><g style="stroke-width:1.2313"><g clip-path="url(#clipPath25062)" style="stroke-width:1.2313"><g style="stroke-width:1.2313"><g style="stroke-width:1.2313"><g clip-path="url(#clipPath25070)" style="opacity:.38;stroke-width:1.2313"><g transform="translate(707.04 1733.1)" style="stroke-width:1.2313"><path d="m0 0c8.398 18.679 23.408 35.073 42.808 41.638 19.399 6.565 43.109 1.632 55.804-14.438 7.568-9.581 10.708-21.938 12.095-34.069 11.782 19.763 19.769 44.774 9.676 65.45-10.779 22.084-38.341 30.765-62.902 29.938-15.509-0.522-31.391-4.126-43.834-13.4-22.653-16.882-28.359-52.518-12.109-75.629" style="fill:#ccc"/></g></g></g></g><g transform="translate(793.17 1756.4)" style="stroke-width:1.2313"><path d="m0 0c0-18.05-14.632-32.682-32.682-32.682s-32.682 14.632-32.682 32.682 14.632 32.682 32.682 32.682 32.682-14.632 32.682-32.682" style="fill:#1b1464"/></g><g transform="translate(745.8 1747.1)" style="stroke-width:1.2313"><path d="m0 0c0-6.203-5.028-11.231-11.231-11.231s-11.231 5.028-11.231 11.231 5.028 11.231 11.231 11.231 11.231-5.028 11.231-11.231" style="fill:#fff"/></g><g transform="translate(695.14 1760.5)" style="stroke-width:1.2313"><path d="m0 0s80.117 70.169 128.69 1.539c0 0 23.544 45.914-4.314 70.651-27.859 24.738-131.95-3.206-124.38-72.19" style="fill:#e6c2af"/></g></g></g><g style="stroke-width:1.2313"><g clip-path="url(#clipPath25098)" style="stroke-width:1.2313"><g transform="translate(704.24 1768.5)" style="stroke-width:1.2313"><path d="m0 0c8.618 1.15 16.436 6.714 24.327 10.188 11.005 4.845 22.747 8.43 34.786 9.283 11.808 0.838 23.805-0.913 34.312-6.578 7.365-3.972 22.65-13.208 24.847-21.759 0.515-2.002 3.655-2.593 4.621-0.604 4.763 9.803-8.72 17.55-15.4 22.619-9.728 7.383-20.643 12.064-32.839 13.454-13.694 1.561-28.024-0.987-40.84-5.876-11.231-4.284-26.242-10.429-34.3-19.553-0.345-0.39-0.157-1.26 0.486-1.174" style="fill:#cf9f86"/></g><g transform="translate(706.9 1777.7)" style="stroke-width:1.2313"><path d="m0 0c7.65 25.749 29.689 34.61 50.975 46.711 0.945 0.538 0.292 1.921-0.718 1.703-23.724-5.127-46.834-23.513-51.668-48.025-0.181-0.916 1.14-1.302 1.411-0.389" style="fill:#cf9f86"/></g><g transform="translate(704.09 1771)" style="stroke-width:1.2313"><path d="m0 0c5.193 9.786 7.938 20.773 13.084 30.681 5.196 10.006 12.311 18.699 17.891 28.428 0.889 1.548-1.074 2.816-2.333 1.8-9.211-7.428-15.643-18.551-20.718-29.07-4.605-9.543-9.41-20.751-9.205-31.492 0.012-0.657 0.951-0.968 1.281-0.347" style="fill:#cf9f86"/></g><g transform="translate(545 1756.4)" style="stroke-width:1.2313"><path d="m0 0c0-32.576 26.408-58.984 58.984-58.984s58.984 26.408 58.984 58.984-26.408 58.984-58.984 58.984-58.984-26.408-58.984-58.984" style="fill:#f2f2f2"/></g></g></g><g style="stroke-width:1.2313"><g clip-path="url(#clipPath25122)" style="stroke-width:1.2313"><g style="stroke-width:1.2313"><g style="stroke-width:1.2313"><g clip-path="url(#clipPath25130)" style="opacity:.38;stroke-width:1.2313"><g transform="translate(661.52 1729.3)" style="stroke-width:1.2313"><path d="m0 0c-8.398 18.679-23.408 35.073-42.808 41.638-19.399 6.565-43.109 1.632-55.804-14.439-7.569-9.581-10.708-21.938-12.095-34.068-11.782 19.762-19.769 44.774-9.676 65.45 10.779 22.084 38.341 30.765 62.902 29.938 15.509-0.522 31.391-4.127 43.834-13.4 22.653-16.882 28.359-52.519 12.11-75.629" style="fill:#ccc"/></g></g></g></g><g transform="translate(575.67 1750.7)" style="stroke-width:1.2313"><path d="m0 0c0-18.05 14.632-32.682 32.682-32.682s32.682 14.632 32.682 32.682-14.632 32.682-32.682 32.682-32.682-14.632-32.682-32.682" style="fill:#1b1464"/></g><g transform="translate(588.85 1747.1)" style="stroke-width:1.2313"><path d="m0 0c0-6.203-5.028-11.231-11.231-11.231-6.202 0-11.231 5.028-11.231 11.231s5.029 11.231 11.231 11.231c6.203 0 11.231-5.028 11.231-11.231" style="fill:#fff"/></g><g transform="translate(673.7 1754.8)" style="stroke-width:1.2313"><path d="m0 0s-80.117 70.169-128.69 1.539c0 0-23.544 45.913 4.314 70.651 27.859 24.738 131.95-3.206 124.38-72.19" style="fill:#e6c2af"/></g></g></g><g style="stroke-width:1.2313"><g clip-path="url(#clipPath25158)" style="stroke-width:1.2313"><g transform="translate(663.3 1767.9)" style="stroke-width:1.2313"><path d="m0 0c-20.033 17.15-51.699 24.507-77.271 19.234-17.664-3.642-39.662-12.579-42.306-33.007-0.18-1.39 1.749-1.915 2.612-1.082 5.848 5.645 9.013 13.261 16.033 17.825 7.829 5.089 18.028 8.23 27.135 9.857 12.693 2.268 25.747 1.354 38.161-2.02 11.992-3.259 22.246-9.628 33.565-14.365 1.964-0.823 3.623 2.229 2.071 3.558" style="fill:#cf9f86"/></g><g transform="translate(658.67 1775.3)" style="stroke-width:1.2313"><path d="m0 0c-3.023 14.01-11.182 24.591-20.518 35.091-7.714 8.675-16.343 18.499-28.501 19.953-1.383 0.165-1.708-1.849-0.672-2.48 19.255-11.725 40.43-31.456 48.964-52.765 0.177-0.442 0.831-0.284 0.727 0.201" style="fill:#cf9f86"/></g><g transform="translate(643.51 1799.5)" style="stroke-width:1.2313"><path d="m0 0c-12.821 10.439-27.648 18.813-44.32 20.566-0.892 0.093-0.954-1.216-0.2-1.481 15.344-5.398 29.956-11.107 42.961-21.105 1.148-0.882 2.691 1.098 1.559 2.02" style="fill:#cf9f86"/></g><g transform="translate(585.38 1629.7)" style="stroke-width:1.2313"><path d="m0 0s35.048 75.289 69.143 115.92c13.837 16.488 38.944 16.93 53.395 0.977 12.763-14.09 29.457-37.343 47.79-75.256 0 0 46.682-65.608 17.664-88.318-29.019-22.711-143.2-39.744-192.41-10.094 0 0-19.556 16.402 4.416 56.776" style="fill:#d18564"/></g></g></g><g style="stroke-width:1.2313"><g clip-path="url(#clipPath25182)" style="stroke-width:1.2313"><g style="stroke-width:1.2313"><g style="stroke-width:1.2313"><g clip-path="url(#clipPath25190)" style="opacity:.10001;stroke-width:1.2313"><g transform="translate(668.32 1782.6)" style="stroke-width:1.2313"><path d="m0 0c-21.252-24.458-38.529-52.362-50.951-82.287-7.7-18.551-13.606-38.352-12.583-58.411 1.024-20.06 9.91-40.504 26.649-51.605 17.99-11.93 41.455-11.321 62.709-7.546 25.014 4.442 52.357 15.4 61.303 39.179 10.719 28.488-10.137 58.255-15.796 88.163 25.956-15.99 42.927-43.704 52.195-72.746 5.785-18.129 8.797-38.37 1.224-55.827-7.385-17.02-23.669-28.58-40.586-36.2-46.848-21.103-101.4-17.732-151.06-4.53-14.934 3.971-30.844 9.675-39.12 22.725-12.061 19.018-2.636 43.874 7.387 64.041 25.613 51.528 54.1 101.63 85.286 149.99"/></g></g></g></g></g></g><g style="stroke-width:1.2313"><g clip-path="url(#clipPath25206)" style="stroke-width:1.2313"><g transform="translate(812.05 1548.2)" style="stroke-width:1.2313"><path d="m0 0c-34.73-27.747-75.709-46.75-120.06-52.014-21.27-2.524-42.913-2.05-64.027 1.57-10.034 1.72-19.953 4.079-29.647 7.197-10.528 3.386-20.531 8.448-31.297 10.938-2.167 0.501-4.256-2.354-2.331-4.004 15.897-13.617 40.87-18.94 61.049-22.208 22.529-3.648 45.529-3.769 68.124-0.633 44.476 6.173 88.321 24.96 119.57 57.774 0.887 0.931-0.419 2.148-1.38 1.38" style="fill:#cf9f86"/></g><g transform="translate(588.38 1528.2)" style="stroke-width:1.2313"><path d="m0 0c-8.241-4.17-14.576-10.647-23.418-14.01-8.116-3.087-16.4-3.579-24.904-4.783-2.114-0.299-1.76-3.407 0-3.935 16.185-4.856 43.949 4.427 49.69 21.676 0.274 0.821-0.689 1.396-1.368 1.052" style="fill:#cf9f86"/></g><g transform="translate(649.81 1450.4)" style="stroke-width:1.2313"><path d="m0 0c24.97-5.963 56.857-7.964 80.948 2.49 1.724 0.747 0.841 3.627-0.951 3.512-13.277-0.848-26.274-3.956-39.635-4.503-13.35-0.546-26.641 0.371-39.896 1.943-1.972 0.233-2.361-2.99-0.466-3.442" style="fill:#cf9f86"/></g><g transform="translate(881.36 734.25)" style="stroke-width:1.2313"><path d="m0 0c-5.515 10.898-15.474 19.642-27.256 23.931-4.13 1.503-8.816 2.723-11.261 6.26-2.652 3.836-1.214 9.707 2.939 12 1.127 0.622 2.415 1.016 3.364 1.87 1.96 1.764 1.793 4.74 2.605 7.201 1.798 5.447 8.725 8.069 14.568 7.041 5.843-1.027 10.737-4.774 15.089-8.664 5.581-4.986 10.798-10.512 14.2-17.069s4.854-14.279 2.727-21.316c-2.128-7.036-8.25-13.129-15.776-14.258" style="fill:#f2f2f2"/></g><g transform="translate(685.49 760.12)" style="stroke-width:1.2313"><path d="m0 0c-5.1-17.893-4.349-38.204-6.91-56.638-1.318-9.481-2.876-18.931-4.605-28.345-1.463-7.963-4.005-16.497-2.841-24.66 2.019-14.163 16.29-27.179 25.036-37.615 11.579-13.817 23.604-28.138 38.275-38.779 2.264-1.643 5.509 1.62 3.884 3.883-9.589 13.361-21.437 25.108-32.144 37.569-10.541 12.268-27.77 27.135-25.927 44.452 1.763 16.575 5.222 32.951 6.87 49.579 1.603 16.174 4.486 34.549 1.014 50.554-0.296 1.364-2.295 1.254-2.652 0" style="fill:#754c24"/></g><g transform="translate(745.14 763.9)" style="stroke-width:1.2313"><path d="m0 0c-1.686-6.702-0.766-13.997-0.663-20.878 0.122-8.124 0.303-16.245 0.342-24.37 0.076-15.627-0.093-31.262-0.541-46.882-0.448-15.624-1.2-31.243-2.157-46.844-0.974-15.886-3.991-32.759-1.892-48.6 0.239-1.805 2.619-2.325 3.267-0.442 4.882 14.197 4.831 30.444 5.753 45.299 1.008 16.222 1.596 32.46 1.836 48.712 0.241 16.256 0.135 32.507-0.364 48.757-0.433 14.06 1.278 31.965-3.614 45.248-0.328 0.89-1.704 1.045-1.967 0" style="fill:#754c24"/></g><g transform="translate(774.24 775)" style="stroke-width:1.2313"><path d="m0 0c0.082-10.983 7.758-22.345 14.176-30.79 7.572-9.964 16.879-18.502 27.333-25.372 10.419-6.847 22.065-12.053 34.156-15.13 9.845-2.505 25.49-6.464 34.667-1.089 2.335 1.367 1.497 4.374-0.689 5.27-4.533 1.856-9.415 1.121-14.251 1.397-5.898 0.337-11.732 1.2-17.474 2.594-11.488 2.79-22.39 7.551-32.334 13.93-9.574 6.143-18.15 13.747-25.403 22.511-7.073 8.546-11.09 19.134-18.061 27.557-0.706 0.853-2.128 0.133-2.12-0.878" style="fill:#754c24"/></g><g transform="translate(652.01 756.61)" style="stroke-width:1.2313"><path d="m0 0c-4.254-8.863-7.33-18.068-12.48-26.526-5.463-8.974-12.129-17.166-19.739-24.407-16.223-15.437-38.96-29.082-61.949-23.761-2.034 0.471-4.113-2.281-2.222-3.818 18.632-15.138 48.195 4.28 63.124 16.703 17.409 14.486 34.73 37.548 36.944 60.813 0.184 1.928-2.85 2.721-3.678 0.996" style="fill:#754c24"/></g><g transform="translate(649.86 571.7)" style="stroke-width:1.2313"><path d="m0 0c25.336-6.414 53.827-5.442 79.668-3.399 24.839 1.964 53.194 4.717 75.657 16.056 2.017 1.018 1.136 4.603-1.187 4.381-12.011-1.15-23.571-4.404-35.389-6.763-13.508-2.697-27.134-4.689-40.839-6.065-25.967-2.607-51.615-0.762-77.562-1.64-1.439-0.048-1.822-2.197-0.348-2.57" style="fill:#754c24"/></g><g transform="translate(734.97 572.42)" style="stroke-width:1.2313"><path d="m0 0c-2.286-36.533-2.836-73.003-6.899-109.43-2.118-18.989-4.888-37.908-8.217-56.721-3.012-17.026-7.566-33.925-8.768-51.202-0.207-2.969 3.789-2.932 4.748-0.643 7.041 16.794 9.765 35.315 12.902 53.169 3.123 17.771 5.627 35.647 7.603 53.581 4.036 36.642 6.826 74.453 3.421 111.25-0.282 3.048-4.595 3.113-4.79 0" style="fill:#754c24"/></g><g transform="translate(734.24 568.29)" style="stroke-width:1.2313"><path d="m0 0c14.726-7.813 33.475-17.166 50.535-16.369 1.645 0.077 2.734 2.653 0.929 3.43-7.068 3.045-14.822 4.203-22.183 6.442-9.245 2.812-18.283 6.249-27.042 10.327-2.548 1.186-4.796-2.473-2.239-3.83" style="fill:#754c24"/></g><g transform="translate(734.64 573.96)" style="stroke-width:1.2313"><path d="m0 0c-13.211-8.92-27.494-15.381-41.428-22.997-1.116-0.61-0.351-2.34 0.854-2.027 15.459 4.023 29.538 12.601 42.567 21.615 2.07 1.433 0.126 4.84-1.993 3.409" style="fill:#754c24"/></g></g></g></g></g></svg>
