<?xml version="1.0" encoding="UTF-8"?>
<svg width="283.92mm" height="741.54mm" version="1.1" viewBox="0 0 283.92 741.54" xmlns="http://www.w3.org/2000/svg"><defs><clipPath id="clipPath283884"><path d="m159.74 2226.3h802.15v-2099.3h-802.15z"/></clipPath></defs><g transform="translate(83.752 29.924)"><rect x="45.892" y="54.469" width="33.141" height="27.796" ry=".3666" style="fill-rule:evenodd;fill:#fff;stroke-width:.26458"/><g transform="translate(202.65 127)"><g transform="matrix(.35278 0 0 -.35278 -342.29 628.93)"><g clip-path="url(#clipPath283884)"><g transform="translate(960.37,1506.5)"><path d="m0 0c0.479 0.692 0.931 1.383 1.383 2.048 0.532-5.479-0.479-11.119-3.192-16.252l-98.42-170.24-3.644 1.969-15.667 8.432-15.269 8.219c0.506 0.799 0.984 1.623 1.463 2.448l1.197-0.665c32.266 0 98.739 113.02 132.15 164.04" style="fill:#93a9cf"/></g><g transform="translate(961.75,1508.6)"><path d="m0 0c-0.452-0.665-0.904-1.357-1.383-2.048-47.109 49.476-246.02 175.32-249.16 177.29 16.067-8.645 166.25-93.18 240.52-156.12 5.878-4.974 9.31-11.916 10.028-19.125" style="fill:#c3d9ff"/></g><g transform="translate(872.99,1498.8)"><path d="m0 0-165.35 97.276-1.09-0.479c-0.798 1.809-1.65 3.485-2.501 5.028 10.321-33.649-13.3-67.218-28.861-97.782-29.02-11.012-55.753-16.465-79.241-18.54-2.261 45.273-0.905 80.731-0.905 80.731v0.904c0.027 0.586 0.027 1.144 0.08 1.729 2.74 68.894 39.874 130.98 46.896 124.62 0 0 7.767-7.103 13.034-19.312 0 0 3.192 10.321 5.879 22.184 1.596-0.106 33.383-2.234 50.247-11.305l0.027-0.026c3.138-1.969 202.05-127.81 249.16-177.29-33.41-51.019-99.883-164.04-132.15-164.04l-1.197 0.665c24.339 42.161 21.094 104.62 48.838 146.33l-2.421 0.186c-0.612 3.059-0.691 6.145-0.452 9.124" style="fill:#b0c4e6"/></g><g transform="translate(707.64,1596.1)"><path d="m0 0 165.35-97.276c-0.24-2.979-0.16-6.065 0.452-9.124-99.857 37.905-156.46 82.433-161.84 86.769-0.824 7.501-2.739 13.885-5.054 19.152z" style="fill:#93a9cf"/></g><g transform="translate(856.5,1324.1)"><path d="m0 0-0.346-0.665s-2.633-40.991-29.02-54.503c-2.128-1.091-4.416-2.022-6.89-2.714 0 0-10.64 0.107-16.838-3.617-6.65-3.99-16.837-18.274-21.28-26.707-0.505-0.957-1.277-1.782-2.234-2.42-0.133 0.585-0.293 1.17-0.426 1.755-0.691 2.74-1.383 5.427-2.101 8.034 4.815 9.921 13.859 23.647 29.154 30.536 31.574 14.285 36.761 43.358 34.314 58.733z" style="fill:#966658"/></g><g transform="translate(840.83,1332.5)"><path d="m0 0c2.447-15.375-2.74-44.449-34.314-58.733-15.295-6.889-24.339-20.615-29.154-30.537-1.117 4.044-2.261 7.9-3.458 11.624 6.571 11.518 14.976 22.903 24.632 25.563-1.436 0.532-2.926 0.692-4.416 0.559l-0.026 0.346c-8.326 1.968-17.343-4.842-24.791-13.008-1.623 4.309-3.299 8.379-5.001 12.236 11.97 10.933 25.802 16.732 25.802 16.732h-0.08c-12.183 2.42-22.371-1.091-30.457-6.704-1.915 3.804-3.884 7.369-5.879 10.747 12.529 9.443 25.776 13.247 25.776 13.247l-0.027 0.026c-7.82 17.157-28.781 13.114-41.363 8.778-2.075 2.501-4.176 4.841-6.251 7.102 10.773 6.012 29.686 10.534 41.443 7.129 14.55-4.203 23.488-9.416 25.642-10.746 0.346-0.213 0.506-0.319 0.506-0.319 16.412 3.99 26.148 14.177 26.148 14.177z" style="fill:#ad7663"/></g><g transform="translate(701.26,844.05)"><path d="m0 0c-22.716-8.698-45.3-14.816-67.298-18.939-57.43-10.693-110.84-7.767-151.83-1.437-10.959 1.676-21.014 3.591-30.031 5.56-30.856 6.756-49.476 14.045-49.476 14.045 0.292 1.09 0.611 2.34 0.904 3.75h0.027l0.851-0.213c4.442-1.755 231.87-21.466 303.24 59.425 37.666 42.693 88.738 254.54 72.246 327.18 0.957 0.639 1.729 1.463 2.234 2.421 4.442 8.432 14.63 22.716 21.28 26.706 6.198 3.724 16.838 3.618 16.838 3.618 2.474 0.691 4.761 1.622 6.889 2.713l0.213-0.452c15.96-94.43-25.722-208.36-47.002-257.57s-34.58-146.3-34.58-146.3c-2.66-1.437-5.32-2.847-7.98-4.203-12.156-6.251-24.366-11.651-36.522-16.306" style="fill:#183466"/></g><g transform="translate(798.96,1327)"><path d="m0 0-0.053-0.106c-2.155 1.33-11.092 6.543-25.643 10.746-11.757 3.405-30.669-1.117-41.442-7.129-17.583 18.806-35.378 30.005-48.625 47.88 8.352 3.804 16.811 8.087 25.323 12.901 26.6-23.94 65.17-40.352 90.44-64.292" style="fill:#183466"/></g><g transform="translate(794.12,1281)"><path d="m0 0c1.49 0.133 2.979-0.027 4.416-0.559-9.656-2.66-18.062-14.044-24.632-25.562-0.851 2.793-1.756 5.479-2.687 8.113 6.225 8.326 14.817 17.396 22.903 18.008" style="fill:#183466"/></g><g transform="translate(794.09,1281.3)"><path d="m0 0 0.027-0.346c-8.087-0.612-16.679-9.682-22.903-18.008-0.638 1.809-1.277 3.591-1.915 5.347 7.448 8.166 16.465 14.975 24.791 13.007" style="fill:#966658"/></g><g transform="translate(790.02,1297.3)"><path d="m0 0h0.08s-13.832-5.799-25.802-16.731c-0.851 1.941-1.703 3.803-2.58 5.639 6.809 5.373 16.039 9.948 28.302 11.092" style="fill:#183466"/></g><g transform="translate(759.57,1290.6)"><path d="M 0,0 C 8.086,5.613 18.274,9.124 30.457,6.703 18.194,5.559 8.964,0.984 2.155,-4.389 1.436,-2.899 0.718,-1.41 0,0" style="fill:#966658"/></g><g transform="translate(432.97,1039.4)"><path d="m0 0c31.521 204.98 105.74 298.5 114.99 309.49 17.29-0.08 40.272 1.33 66.58 6.863 21.147 4.416 44.448 11.491 68.654 22.583 13.247-17.875 31.043-29.073 48.625-47.88-0.239-0.133-0.452-0.266-0.691-0.399-4.868-2.819-5.533-7.767-3.512-11.092 1.543-2.633 4.735-4.256 8.832-3.085 1.862 0.532 3.511 1.516 5.532 2.66 3.964-5.134 7.901-10.827 11.704-17.237-6.65-4.974-13.087-11.571-17.236-20.003-6.624-13.513-4.31-19.126-0.24-20.083 3.299-0.825 7.767 1.436 9.55 5 1.782 3.565 6.57 12.529 15.96 19.95 0.877-1.835 1.729-3.697 2.58-5.639-5.666-5.134-10.906-11.385-14.098-18.753-4.256-9.762-1.304-15.162 2.979-16.359 3.272-0.958 7.315 0.532 9.443 4.389 1.064 1.942 4.256 7.342 8.592 13.141 0.931-2.634 1.835-5.32 2.686-8.114-2.181-3.83-4.202-7.687-5.958-11.225-4.07-8.113-0.027-11.73 4.868-12.05 2.447-0.159 5.134 0.506 7.075 1.863 16.492-72.645-34.58-284.49-72.245-327.18-71.368-80.89-298.8-61.18-303.24-59.424l-0.852 0.213c5.64 25.083 15.242 102.54 29.154 192.42z" style="fill:#1e4282"/></g><g transform="translate(779.46,1235.2)"><path d="m0 0c0.133-0.585 0.293-1.17 0.426-1.756-1.942-1.356-4.629-2.021-7.076-1.862v0.08s1.33 4.921 4.549 11.571c0.718-2.607 1.409-5.293 2.101-8.033" style="fill:#966658"/></g><g transform="translate(779.44,1314.6)"><path d="m0 0 0.027-0.027s-13.247-3.803-25.776-13.246c-3.804 6.41-7.74 12.103-11.704 17.236 3.565 2.022 8.246 4.469 17.077 5.32 13.354 1.304 20.004-8.698 20.376-9.283" style="fill:#183466"/></g><g transform="translate(773.9,1254.8)"><path d="m0 0c1.197-3.724 2.341-7.581 3.458-11.624-3.219-6.65-4.549-11.571-4.549-11.571v-0.08c-4.894 0.319-8.937 3.937-4.867 12.05 1.755 3.538 3.777 7.395 5.958 11.225" style="fill:#ad7663"/></g><g transform="translate(769.3,1268.3)"><path d="m0 0c0.638-1.755 1.277-3.538 1.915-5.347-4.336-5.798-7.528-11.198-8.592-13.14-2.128-3.857-6.171-5.347-9.443-4.389l0.187 0.745c0.691 1.197 7.208 12.582 15.933 22.131" style="fill:#966658"/></g><g transform="translate(767.71,207.6)"><path d="m0 0 0.239-0.053s-0.904-12.848-4.442-17.742c-3.538-4.868-25.27-12.848-47.88-8.858-22.823 4.016-23.94 8.858-52.322 36.362-28.356 27.478-69.586 45.646-71.82 47.88-2.208 2.208-1.33 20.828-1.33 20.828l0.798 0.106c0.452-3.99 1.436-7.341 3.192-9.416 7.98-9.31 42.56-19.498 90.44-71.82 17.875-19.525 49.582-21.121 66.5-14.178 7.501 3.086 15.401 8.485 16.625 16.891" style="fill:#1a0c12"/></g><g transform="translate(663.3,282.37)"><path d="m0 0c5.4-5.027 11.172-9.363 16.864-11.864 0.905-0.399 1.783-0.771 2.66-1.117h0.027c17.529-7.208 27.185-6.277 28.941-6.038 45.858-25.775 57.669-43.784 55.913-55.754-1.223-8.405-9.124-13.805-16.625-16.891-16.918-6.942-48.625-5.346-66.5 14.178-47.88 52.322-82.46 62.51-90.44 71.82-1.756 2.075-2.74 5.427-3.192 9.417-1.649 14.044 3.192 35.803 3.192 35.803s16.598-13.832 42.454-6.676l0.106-0.426s4.735-7.501 11.97-16.492c4.203-5.214 9.23-10.933 14.63-15.96" style="fill:#4a2332"/></g><g transform="translate(753.37,1246.2)"><path d="m0 0-0.186-0.745c-4.283 1.197-7.235 6.597-2.979 16.359 3.192 7.368 8.432 13.619 14.098 18.753 1.702-3.857 3.378-7.927 5-12.236-8.724-9.549-15.241-20.934-15.933-22.131" style="fill:#ad7663"/></g><g transform="translate(779.44,1314.6)"><path d="m0 0c-0.372 0.585-7.022 10.587-20.376 9.283-8.831-0.851-13.512-3.298-17.077-5.32-1.303 1.65-2.58 3.272-3.91 4.815 12.582 4.336 33.543 8.379 41.363-8.778" style="fill:#966658"/></g><g transform="translate(759.57,1290.6)"><path d="m0 0c0.718-1.41 1.436-2.899 2.155-4.389-9.39-7.421-14.178-16.386-15.96-19.95-1.783-3.564-6.251-5.825-9.55-5.001l0.027 0.133s7.9 18.461 23.328 29.207" style="fill:#966658"/></g><g transform="translate(751.48,2091)"><path d="m0 0c0.532-5.427 8.698-10.8 8.539-16.093-0.133-5.081-8.539-10.108-9.231-15.029-0.691-5.214 6.305-12.954 5.134-17.875-1.489-6.092-11.252-9.284-13.273-14.816-1.862-5.081 4.07-12.556 1.915-17.051-2.261-4.735-12.662-6.464-15.082-10.401-1.729-2.819-0.825-8.086-2.554-10.427-2.713-3.671-8.033-4.07-10.48-6.384l-0.878 0.027c0.08 4.761 0.505 9.895 1.33 15.561 0.399 2.979 0.931 6.118 1.569 9.389 1.064 5.453 1.809 12.024 1.783 19.126-0.027 6.863 4.548 14.231 2.686 21.599-1.25 5.001-8.352 9.975-10.773 14.79-2.58 5.187-3.245 15.481-7.421 20.083-1.995 2.181-4.682 3.245-7.661 4.123-0.053 0.079-0.08 0.133-0.08 0.133s3.033 4.761 5.161 13.193c1.17 4.655-3.246 13.114-3.272 19.844-0.053 6.73 4.282 11.73 1.676 20.163-1.703 5.506-9.443 8.645-12.715 14.736-2.66 4.921-0.559 12.662-4.469 17.875-3.165 4.256-12.103 8.566-16.199 12.981-4.469 4.788-4.203 9.682-9.922 14.657 4.176-1.809 13.699 4.229 17.928 2.101 4.815-2.394 4.336-13.007 9.204-15.853 3.538-2.049 14.896 1.143 18.114-1.011 4.788-3.245 1.251-11.89 5.347-15.322 4.416-3.697 13.726 0.506 17.396-3.351 3.272-3.485 0.931-15.003 3.645-18.621 2.926-3.856 13.486-5.133 15.8-9.097 2.926-5.08-2.58-12.901-0.559-18.088 1.916-4.921 11.438-7.208 12.635-12.182 1.304-5.4-5.798-13.434-5.293-18.78" style="fill:#301721"/></g><g transform="translate(753.69,1301.3)"><path d="m0 0c1.995-3.378 3.963-6.943 5.879-10.746-15.428-10.747-23.329-29.207-23.329-29.207l-0.026-0.133c-4.07 0.957-6.384 6.57 0.239 20.083 4.15 8.432 10.587 15.029 17.237 20.003" style="fill:#ad7663"/></g><g transform="translate(738.07,1323.4)"><path d="m0 0c1.33-1.543 2.607-3.165 3.91-4.815-2.021-1.143-3.671-2.128-5.533-2.66-4.096-1.17-7.288 0.453-8.831 3.086l0.426 0.239s4.096 2.102 10.028 4.15" style="fill:#966658"/></g><g transform="translate(731.82,1330.5)"><path d="m0 0c2.075-2.261 4.176-4.602 6.251-7.102-5.932-2.048-10.028-4.15-10.028-4.15l-0.426-0.239c-2.021 3.325-1.356 8.272 3.511 11.092 0.24 0.133 0.453 0.266 0.692 0.399" style="fill:#ad7663"/></g><g transform="translate(641.97,1772.3)"><path d="m0 0c7.581 0.931 14.577 2.793 20.455 5.932 33.703 17.955 71.368 94.882 67.378 142.76l0.133 0.027c4.389-25.51 1.862-56.978-8.379-77.779-22.583-45.911-46.443-77.911-68.282-81.688-8.485-1.463-21.12-2.926-39.208 0.372-16.253 2.979-36.948 9.789-63.069 23.913l0.186 0.346c0.293-0.08 2.82-0.957 6.969-2.234 15.588-4.815 54.211-15.322 83.817-11.651" style="fill:#875b4e"/></g><g transform="translate(729.8,1921)"><path d="m0 0c3.99-47.88-33.676-124.81-67.378-142.76-5.878-3.139-12.874-5.001-20.455-5.932 12.927 3.963 23.035 14.045 30.829 27.132 8.911 6.118 14.87 17.503 11.305 25.057 6.65 19.392 10.161 40.751 11.545 58.068 0.186 0.372 0.345 0.718 0.505 1.091 0.559 1.33 0.931 2.766 1.091 4.256 0.319 2.793-0.187 5.878-1.836 9.203-3.139 6.358-9.735 8.326-16.811 10.906-8.751 11.332-13.061 21.732-14.311 31.122l1.596 0.186s13.114-9.31 30.298-3.83c5 1.569 20.003 9.416 16.252 32.346l0.027 0.186c1.303-0.24 2.66-0.506 4.07-0.825 1.356-9.044 4.043-16.891 7.448-24.924 2.633-6.224 4.628-13.46 5.958-21.253z" style="fill:#a36e5f"/></g><g transform="translate(722.94,2048.6)"><path d="m0 0c1.862-7.368-2.713-14.736-2.687-21.599 0.027-7.102-0.718-13.672-1.782-19.125-0.638-3.272-1.17-6.411-1.569-9.39l-0.612 0.079s-4.336 1.091-10.667 1.783c11.997 50.061-7.208 84.907-8.538 87.248 2.979-0.878 5.666-1.942 7.661-4.123 4.176-4.602 4.841-14.896 7.421-20.083 2.421-4.815 9.523-9.789 10.773-14.79" style="fill:#875b4e"/></g><g transform="translate(737.78,860.36)"><path d="m0 0c-2.74-50.726-31.947-202.05-50.54-272.44-46.231-175.06-43.89-250.04-39.9-268.66-3.724-1.755-7.315-3.085-10.746-4.016-25.856-7.156-42.454 6.676-42.454 6.676 0.186 0.985 0.399 2.022 0.585 3.059l2.075-0.399s25.11 7.581 28.648 19.099c3.565 11.518 11.97 123.69 52.056 255.76 30.457 100.42 24.153 236.85 23.754 244.61 12.156 4.655 24.366 10.055 36.522 16.306" style="fill:#966553"/></g><g transform="translate(668.54,1951.9)"><path d="m0 0c-2.846-6.57-2.66-12.502-2.66-12.502l-1.596-0.186c-5.134 38.596 41.15 60.329 41.15 60.329 0.08 0.266 0.133 0.558 0.186 0.824 6.331-0.691 10.667-1.782 10.667-1.782l0.612-0.08c-0.825-5.666-1.25-10.799-1.33-15.561-0.107-5.719 0.239-10.853 0.957-15.667-1.409 0.319-2.766 0.585-4.069 0.824-7.023 1.224-12.981 1.463-18.035 0.985-15.588-1.437-22.663-9.736-25.882-17.184" style="fill:#875b4e"/></g><g transform="translate(712.43,1967.9)"><path d="m0 0c3.751-22.929-11.252-30.776-16.253-32.346-17.183-5.479-30.297 3.831-30.297 3.831s-0.186 5.932 2.66 12.502c2.261-8.565 8.539-13.752 17.476-13.327 9.656 0.452 15.003 10.268 13.54 19.95-0.506 3.378-2.102 8.299-5.108 10.294l-0.026 0.266c5.054 0.479 11.012 0.24 18.035-0.984z" style="fill:#fff"/></g><g transform="translate(711.61,1576.4)"><path d="m0 0c1.835-16.545-1.649-38.57-18.008-66.367l-0.373 0.213c-6.091-2.74-12.103-5.214-18.034-7.448 15.561 30.563 39.181 64.132 28.861 97.781 0.851-1.542 1.702-3.218 2.5-5.027 2.314-5.267 4.229-11.651 5.054-19.152" style="fill:#93a9cf"/></g><g transform="translate(711.79,263.35)"><path d="m0 0c-1.756-0.239-11.411-1.17-28.941 6.038 1.969 2.607 5.24 4.841 10.614 3.777 6.65-3.378 12.741-6.65 18.327-9.815" style="fill:#1a0c12"/></g><g transform="translate(598.08,2100.1)"><path d="m0 0-0.798 2.74c7.528 1.942 12.688 6.517 22.583 6.596 5.64 0.054 16.28-5.452 21.307-5.851 9.682-0.772 15.561 2.979 23.089 0.771 6.809-2.022 15.454-9.869 20.695-12.795 3.91-2.181 8.246-2.899 12.129-3.99 1.33-2.34 20.536-37.187 8.539-87.248-13.114 1.49-34.793 1.33-44.023-13.699-13.646-22.264-8.991-58.759 1.649-69.718 3.724-3.831 8.113-6.039 12.476-7.768l-0.213-0.532s2.872-16.412 21.28-20.615l0.452-0.053c-0.16-1.489-0.532-2.926-1.091-4.256l-0.266 0.107c-16.173-15.535-40.99-10.64-40.99-10.64l-0.08-0.266c0.904-0.24 1.888-0.719 3.059-1.623 5.586-4.309 15.508-3.378 21.333-1.702 4.655 1.356 12.901 5.985 16.439 13.034-1.383-17.317-4.895-38.677-11.545-58.068-0.186 0.452-0.425 0.878-0.691 1.277 0 0 6.251 14.869-2.474 22.051-0.293 0.239-0.559 0.452-0.851 0.638-9.975 7.023-19.658-7.341-19.658-7.341l-1.197-0.32c-3.724 2.581-8.538 4.789-14.763 5.055-9.017 0.425-17.502-11.625-25.562-14.657-2.394-0.904-5.693-1.304-9.124-1.383-3.937-0.133-8.086 0.106-11.278 0.399l-0.027-0.426s1.463-0.452 3.83-1.676c3.272-1.702 8.273-4.947 13.433-10.613 1.783-1.969 3.591-4.256 5.374-6.863 1.463-2.208 2.926-4.655 4.282-7.368 7.9-15.667 38.464-9.975 47.348-3.884 0.027 0 0.027 0.027 0.053 0.053-7.793-13.087-17.901-23.168-30.829-27.132-29.606-3.67-68.229 6.837-83.817 11.651l0.08 0.266c-64.691 85.44-40.884 182.64-27.823 208.84l0.026 0.027c1.171 2.34 2.261 4.123 3.192 5.266-1.968 78.577 62.484 101.05 64.452 101.72m-33.09-91.424c37.665-12.742 39.846-67.378 39.846-67.378s-5.266 7.74-13.805 13.991c-4.921 3.591-10.933 6.73-17.636 7.555-4.575 0.558-8.991 0.266-13.034-0.479-11.225-2.128-19.444-7.714-19.444-7.714s0.345-23.488 22.663-27.478c22.317-3.99 41.256 14.125 41.256 14.125 6.597 38.676-6.251 57.296-6.251 57.296l-0.798 0.745c-12.129 7.475-23.195 9.815-32.797 9.337" style="fill:#ad7663"/></g><g transform="translate(705.62,2000.3)"><path d="m0 0c-0.053-0.266-0.106-0.559-0.186-0.825 0 0-46.284-21.732-41.15-60.328 1.25-9.39 5.559-19.791 14.31-31.123-0.957 0.346-1.915 0.719-2.872 1.091-4.363 1.729-8.752 3.937-12.476 7.767-10.64 10.96-15.295 47.455-1.649 69.719 9.23 15.029 30.909 15.189 44.023 13.699" style="fill:#875b4e"/></g><g transform="translate(698.89,2120.7)"><path d="m0 0c0.027-6.73 4.442-15.189 3.272-19.844-2.128-8.432-5.161-13.193-5.161-13.193s0.027-0.054 0.08-0.133c-3.883 1.09-8.219 1.808-12.129 3.99-5.241 2.926-13.886 10.773-20.695 12.794-7.528 2.208-13.407-1.542-23.089-0.771-5.027 0.399-15.667 5.905-21.307 5.852-9.895-0.08-15.055-4.655-22.583-6.597-1.117-0.293-2.288-0.505-3.511-0.665-9.63-1.144-15.747 2.527-23.781 0.505-5.346-1.356-13.034-8.192-17.715-9.868-6.225-2.235-14.577 0.585-19.711-2.128-6.623-3.511-9.735-12.662-14.683-16.705-6.145-5.027-13.726-5.054-17.583-10.48-3.431-4.815-3.351-14.976-5.24-19.711-2.341-5.852-8.938-9.629-9.496-16.146-0.585-6.517 6.597-15.88 5.4-21.972-3.219-16.385 5.772-16.279 4.335-26.573-0.319-2.208-0.399-4.017-0.319-5.56-1.809-9.336-9.815-10.666-12.289-17.768-1.942-5.533 4.735-13.593-1.011-20.403l-0.213-1.037c-5.187 1.144-10.879 0.692-15.853-3.564-6.038-5.187-7.927-13.939-6.464-24.605l-0.745-0.107c-5.001-3.83-8.618-1.463-13.539-3.431-5.161-2.048-8.938-8.379-13.486-9.044-2.66-0.373-10.481 2.075-12.768 2.021-8.885-0.292-12.183-1.356-12.183-1.356-3.777 3.883-12.742 5.373-16.173 9.815s-1.33 11.811-4.283 16.838c-2.58 4.362-10.267 6.198-12.395 10.8-2.075 4.468 1.383 11.704-0.24 16.359-1.968 5.612-8.964 8.645-10.32 14.47-1.357 5.746 2.926 14.284 2.181 20.216 0 0 6.597 4.841 9.496 18.088 1.383 6.304-2.474 17.077-0.053 25.403 1.835 6.331 11.996 13.14 14.55 20.296 2.261 6.304-3.139 12.874-0.239 19.631 2.979 6.916 14.31 14.018 18.061 21.173 2.899 5.533-1.942 11.119 1.436 16.679 3.113 5.107 14.444 7.554 18.009 12.608 4.362 6.198 1.117 14.976 6.197 20.961 4.07 4.761 11.97 5.001 16.519 9.549 4.442 4.389 5.533 13.141 10.454 17.264 6.41 5.399 17.263 0.984 24.578 5.772 6.171 4.043 8.645 17.369 15.481 20.881 5.693 2.926 14.258 0.319 20.429 2.819 6.171 2.474 9.922 10.055 16.599 12.077 7.022 2.128 16.119-3.618 23.753-2.075 6.996 1.41 12.503 10.108 20.03 10.959 7.528 0.851 15.322 1.437 23.355 1.676 4.708-0.692 12.103 6.437 16.865 5.373 5.027-1.117 7.421-10.4 12.528-11.943 3.99-1.197 10.667 5.453 14.71 3.963 3.963-1.436 5.293-11.012 9.31-12.741 5.719-4.974 5.453-9.869 9.922-14.657 4.096-4.415 13.034-8.725 16.199-12.981 3.91-5.213 1.809-12.954 4.469-17.875 3.272-6.091 11.012-9.23 12.715-14.736 2.607-8.433-1.729-13.433-1.676-20.163" style="fill:#4a2332"/></g><g transform="translate(701.26,844.05)"><path d="m0 0c0.399-7.767 6.703-144.2-23.754-244.61-40.086-132.07-48.492-244.24-52.056-255.76-3.538-11.518-28.648-19.099-28.648-19.099l-2.075 0.399c16.439 89.19 4.894 336.68 18.035 387.96 13.3 51.871 21.28 111.72 21.28 111.72l-0.08 0.452c21.998 4.123 44.582 10.241 67.298 18.939" style="fill:#ad7663"/></g><g transform="translate(693.89,1959.8)"><path d="m0 0c0 1.277-1.037 2.314-2.314 2.314-1.304 0-2.341-1.037-2.341-2.314s1.037-2.341 2.341-2.341c1.277 0 2.314 1.064 2.314 2.341m5.666-1.33c1.463-9.682-3.884-19.498-13.54-19.95-8.937-0.426-15.215 4.761-17.476 13.327 3.219 7.448 10.294 15.747 25.882 17.183l0.027-0.266c3.005-1.995 4.601-6.916 5.107-10.294" style="fill:#260c16"/></g><g transform="translate(678.6,1908.1)"><path d="m0 0c7.076-2.58 13.672-4.549 16.811-10.906 1.649-3.325 2.155-6.411 1.836-9.204l-0.453 0.054c-18.407 4.202-21.28 20.615-21.28 20.615l0.213 0.532c0.958-0.373 1.915-0.745 2.873-1.091" style="fill:#ba7f6b"/></g><g transform="translate(695.65,1882.6)"><path d="m0 0c-3.538-7.049-11.784-11.677-16.439-13.034-5.825-1.676-15.747-2.607-21.333 1.702-1.17 0.905-2.155 1.384-3.059 1.623l0.08 0.266s24.818-4.894 40.99 10.64l0.266-0.106c-0.159-0.373-0.319-0.719-0.505-1.091" style="fill:#ad7663"/></g><g transform="translate(693.6,1510.1)"><path d="m0 0c-0.319-0.585-0.665-1.197-1.037-1.782-21.52-35.777-10.64-93.1 15.96-117.04-8.512-4.815-16.971-9.097-25.324-12.901-0.133 0.159-0.266 0.319-0.372 0.479 0 0-0.638 1.356-1.676 3.803-2.261 9.337-5.346 17.344-8.991 24.26-5.931 18.513-11.624 43.012-8.857 63.281 1.409 10.374 6.091 21.307 11.89 32.665 5.932 2.234 11.943 4.708 18.035 7.448z" style="fill:#93a9cf"/></g><g transform="translate(693.46,273.16)"><path d="m0 0c-5.373 1.064-8.645-1.17-10.613-3.777h-0.027c-0.878 0.346-1.756 0.718-2.66 1.117-5.692 2.5-11.465 6.836-16.864 11.864 2.606 2.819 6.224 5.399 10.64 4.974l0.079 0.106c10.241-8.272 19.445-14.284 19.445-14.284" style="fill:#1a0c12"/></g><g transform="translate(691.58,1962.1)"><path d="m0 0c1.277 0 2.314-1.037 2.314-2.314s-1.037-2.341-2.314-2.341c-1.303 0-2.341 1.064-2.341 2.341s1.038 2.314 2.341 2.314" style="fill:#fff"/></g><g transform="translate(684.1,1824.5)"><path d="m0 0c3.564-7.554-2.394-18.939-11.305-25.057 4.522 7.554 8.246 16.093 11.305 25.057" style="fill:#522c3a"/></g><g transform="translate(678.62,1816.6)"><path d="m0 0c-0.106-0.027-0.213-0.053-0.372-0.106 0.319 2.101 0.133 4.415-0.612 6.995 1.915 0.665 3.857 1.437 5.772 2.288 0.266-0.399 0.505-0.825 0.692-1.277-3.059-8.964-6.783-17.503-11.305-25.057-0.027-0.027-0.027-0.053-0.054-0.053-8.884-6.092-39.447-11.784-47.348 3.883 6.89-6.357 49.902-6.197 52.855 13.114 0.133 0.053 0.239 0.133 0.372 0.213" style="fill:#522c3a"/></g><g transform="translate(681.5,1836.3)"><path d="m0 0c0.133 3.298-0.293 7.235-1.729 11.757l0.319 0.399c0.293-0.186 0.559-0.399 0.851-0.638 8.725-7.182 2.474-22.052 2.474-22.052-1.915-0.851-3.857-1.622-5.772-2.287 0 0.053-0.027 0.08-0.027 0.133 0 0 3.591 4.469 3.884 12.688" style="fill:#522c3a"/></g><g transform="translate(681.15,1382.6)"><path d="m0 0c1.037-2.447 1.676-3.804 1.676-3.804 0.106-0.159 0.239-0.319 0.372-0.479-24.206-11.092-47.507-18.167-68.654-22.583v0.027c-8.566 28.196-13.513 62.403-16.333 94.935 19.259-1.569 54.69-7.368 73.948-43.837 3.458-10.799 6.996-19.551 8.991-24.259" style="fill:#b0c4e6"/></g><g transform="translate(659.23,1840.8)"><path d="m0 0 1.197 0.319s9.682 14.364 19.657 7.342l-0.319-0.399c1.437-4.522 1.862-8.459 1.729-11.757-16.226-16.333-71.713-6.544-71.713-6.544v0.053c3.431 0.08 6.729 0.479 9.123 1.383 8.06 3.033 16.546 15.083 25.563 14.657 6.224-0.266 11.039-2.474 14.763-5.054" style="fill:#733f52"/></g><g transform="translate(678.62,1816.6)"><path d="m0 0c-0.133-0.08-0.239-0.16-0.372-0.213v0.107c0.159 0.053 0.266 0.079 0.372 0.106" style="fill:#94516a"/></g><g transform="translate(677.64,1823.5)"><path d="m0 0c0.745-2.58 0.931-4.894 0.612-6.996-4.043-1.223-31.894-8.964-62.164 1.304l-0.346-0.293c-5.161 5.666-10.161 8.911-13.433 10.613l0.106 0.24s36.948-18.461 75.225-4.868" style="fill:#733f52"/></g><g transform="translate(678.25,1816.5)"><path d="m0 0v-0.106c-26.307-14.763-56.844-5.56-56.844-5.56l-0.293-0.186c-1.782 2.607-3.591 4.894-5.373 6.863l0.346 0.292c30.271-10.267 58.121-2.527 62.164-1.303" style="fill:#94516a"/></g><g transform="translate(681.5,1836.3)"><path d="m0 0c-0.293-8.219-3.884-12.688-3.884-12.688 0-0.053 0.027-0.08 0.027-0.133-38.277-13.593-75.225 4.868-75.225 4.868l-0.106-0.24c-2.368 1.224-3.831 1.676-3.831 1.676l0.027 0.426c3.192-0.293 7.342-0.532 11.278-0.399v-0.054s55.488-9.788 71.714 6.544" style="fill:#522c3a"/></g><g transform="translate(674.02,287.45)"><path d="m0 0-0.08-0.106c-4.415 0.425-8.033-2.155-10.64-4.975-5.4 5.028-10.427 10.747-14.63 15.96 2.634 1.862 6.198 3.166 10.773 2.368 4.469-4.655 9.656-9.204 14.577-13.247" style="fill:#1a0c12"/></g><g transform="translate(672.16,1406.9)"><path d="M 0,0 C 3.644,-6.916 6.73,-14.923 8.991,-24.259 6.996,-19.551 3.458,-10.8 0,0" style="fill:#93a9cf"/></g><g transform="translate(660.93,1695.1)"><path d="m0 0c-2.687-11.864-5.879-22.184-5.879-22.184-5.266 12.209-13.034 19.311-13.034 19.311s7.98 10.188-2.207 32.346c-3.299 7.155-4.443 12.901-4.762 14.843 14.205-4.15 30.856-12.582 28.702-29.021-0.665-4.921-1.703-10.268-2.82-15.295" style="fill:#93a9cf"/></g><g transform="translate(675.19,1502.8)"><path d="m0 0c-5.799-11.358-10.48-22.291-11.89-32.665-2.767-20.269 2.926-44.768 8.858-63.281-19.259 36.468-54.69 42.267-73.948 43.837-1.011 11.517-1.729 22.822-2.261 33.569 23.487 2.075 50.22 7.528 79.241 18.54" style="fill:#93a9cf"/></g><g transform="translate(659.44,300.7)"><path d="m0 0c-4.575 0.798-8.14-0.505-10.773-2.367-7.235 8.99-11.97 16.492-11.97 16.492l-0.106 0.425c3.431 0.931 7.022 2.261 10.746 4.017 1.224-5.693 6.012-12.236 12.103-18.567" style="fill:#1a0c12"/></g><g transform="translate(621.41,1810.9)"><path d="m0 0s30.537-9.204 56.844 5.559c-2.952-19.311-45.965-19.471-52.854-13.113-1.357 2.713-2.82 5.16-4.283 7.368z" style="fill:#733f52"/></g><g transform="translate(639.81,1724.6)"><path d="m0 0c10.188-22.158 2.208-32.346 2.208-32.346-7.023 6.358-44.156-55.727-46.896-124.62l-0.532 0.027c-0.08 1.224-0.16 2.447-0.239 3.644-3.139 61.287 27.318 121.86 40.033 144.22 3.325 5.826 5.426 9.071 5.426 9.071" style="fill:#b0c4e6"/></g><g transform="translate(635.05,1739.5)"><path d="m0 0c0.319-1.942 1.463-7.687 4.761-14.843 0 0-2.101-3.245-5.426-9.07l-0.346 0.212c-11.571 2.9-16.518 16.014-18.62 27.372l0.665 0.106s8.858-0.798 18.966-3.75z" style="fill:#93a9cf"/></g><g transform="translate(634.04,1715.8)"><path d="m0 0 0.346-0.213c-12.715-22.37-43.172-82.939-40.033-144.22l-1.969-0.08c-3.378 15.109-8.086 29.526-13.433 42.933l0.133 0.053c37.24 72.724 27.026 139.65 16.12 143.03-10.64 3.272-42.853 19.711-44.449 20.535-0.133 2.288-0.292 4.682-0.505 7.156l0.559 1.011c0.079-0.027 0.133-0.054 0.186-0.08 26.121-14.125 46.816-20.935 63.068-23.914l-0.186-0.984s-0.239-8.299 1.543-17.849c2.101-11.358 7.049-24.472 18.62-27.371" style="fill:#966658"/></g><g transform="translate(547.96,1348.9)"><path d="m0 0c-20.987 0.106-33.622 2.447-33.622 2.447 2.447 74.746-2.793 108.4-15.907 135.63 1.622-1.49 35.085-31.043 99.564-36.23 0.079 0 0.133 0 0.212-0.026 2.82-32.532 7.768-66.74 16.333-94.936v-0.026c-26.308-5.533-49.29-6.943-66.58-6.863" style="fill:#b0c4e6"/></g><g transform="translate(598.58,1998.6)"><path d="m0 0s12.848-18.62 6.251-57.297c0 0-2.181 54.637-39.847 67.378 9.603 0.479 20.668-1.862 32.798-9.336z" style="fill:#966658"/></g><g transform="translate(598.21,1450.7)"><path d="m0 0c-0.08 0.027-0.133 0.027-0.213 0.027-64.478 5.187-97.941 34.739-99.564 36.229-1.516 3.085-3.112 6.118-4.788 9.097l1.41 0.239s39.342-17.476 100.89-12.023c0.532-10.746 1.25-22.051 2.261-33.569" style="fill:#93a9cf"/></g><g transform="translate(551.18,1786.2)"><path d="m0 0-0.186-0.346c-0.053 0.027-0.107 0.053-0.186 0.08-3.778 2.075-7.688 4.283-11.731 6.65-8.805 5.187-15.854 12.874-20.455 21.998-3.432 6.783-7.794 16.12-11.492 26.627-2.58 7.315-4.867 15.188-6.277 23.142l-0.373 0.798c1.437 0.612 2.82 1.41 4.203 2.394-28.728-3.857-43.757 32.399-43.757 32.399l-0.585-0.16c-0.505 2.181-0.931 4.309-1.197 6.357-1.463 10.667 0.426 19.418 6.464 24.605 4.974 4.256 10.666 4.709 15.853 3.565v-0.027c4.549-0.984 8.699-3.192 11.678-5.107l0.159 0.239c10.587 4.017 12.157 22.211 8.087 30.032-3.139 6.038-6.012 8.326-6.411 14.071 0.293 1.57 0.426 3.405 0.319 5.56 1.437 10.294-7.554 10.187-4.335 26.573 1.197 6.092-5.985 15.455-5.4 21.972 0.558 6.517 7.155 10.294 9.496 16.146 1.889 4.735 1.809 14.896 5.24 19.71 3.857 5.427 11.438 5.454 17.583 10.481 4.947 4.043 8.06 13.194 14.683 16.705 5.134 2.713 13.486-0.107 19.711 2.128 4.681 1.675 12.369 8.512 17.715 9.868 8.033 2.022 14.151-1.649 23.781-0.505 1.223 0.16 2.394 0.372 3.511 0.665l0.798-2.74c-1.969-0.665-66.42-23.142-64.452-101.72-0.931-1.144-2.022-2.926-3.192-5.267l-0.027-0.027c-13.06-26.201-36.867-123.4 27.824-208.84l-0.08-0.265c-4.149 1.276-6.676 2.154-6.969 2.234m-58.653 101.72c-1.915 5.985-5.373 14.364-10.028 20.296-5.001 6.411-9.496-2.341-9.496-2.341l0.106-0.957s14.231-5.56 19.418-16.998" style="fill:#ba7f6b"/></g><g transform="translate(588.87,2226.3)"><path d="m0 0c5.799-0.319 9.017-8.885 14.976-9.762-8.033-0.24-15.827-0.825-23.355-1.676s-13.034-9.549-20.03-10.959c-7.634-1.543-16.731 4.203-23.754 2.074-6.676-2.021-10.427-9.602-16.598-12.076-6.171-2.5-14.736 0.107-20.429-2.82-6.836-3.511-9.31-16.837-15.481-20.88-7.315-4.788-18.168-0.373-24.579-5.773-4.921-4.123-6.011-12.874-10.453-17.263-4.549-4.549-12.449-4.788-16.519-9.55-5.081-5.984-1.835-14.763-6.198-20.96-3.564-5.054-14.896-7.501-18.008-12.609-3.378-5.559 1.463-11.145-1.436-16.678-3.751-7.155-15.083-14.257-18.062-21.173-2.899-6.757 2.501-13.327 0.24-19.631-2.554-7.156-12.715-13.965-14.551-20.296-2.42-8.326 1.437-19.099 0.054-25.403-2.9-13.247-9.497-18.088-9.497-18.088-0.691 5.506-6.463 11.119-6.623 16.758-0.186 5.639 5.24 11.331 5.586 17.077 0.372 6.384-6.916 15.481-5.879 21.918 0.852 5.347 9.922 8.034 11.226 13.38 1.409 5.773-4.921 14.205-3.006 19.95 1.888 5.693 12.023 8.699 14.444 14.311 2.5 5.905-0.027 17.077 3.032 22.849 2.899 5.427 11.358 5.48 14.71 10.773 3.325 5.241 1.569 15.721 5.373 20.775 3.165 4.23 11.997 3.192 15.854 7.448 3.537 3.91 2.021 13.114 6.091 16.971 4.176 3.91 13.912 2.421 18.593 6.171 4.815 3.857 1.916 12.928 7.262 16.519 3.698 2.474 15.481-0.452 19.418 1.862 4.815 2.819 7.156 13.512 12.316 16.013 5.639 2.766 14.125-2.687 20.136-0.372 5.187 1.995 7.847 11.757 13.274 13.353 5.958 1.755 14.71-4.735 20.934-3.511 5.107 0.984 10.294 9.762 15.561 10.374 5.772 0.638 11.624-6.943 17.609-6.81 4.974 0.106 12.662 8.006 17.769 7.714" style="fill:#693247"/></g><g transform="translate(548.87,1744.1)"><path d="m0 0c0.452 2.048 0.825 4.256 1.144 6.623 1.011 7.342 1.356 16.226 0.745 27.026 1.596-0.825 33.808-17.263 44.448-20.535 10.906-3.378 21.121-70.304-16.119-143.03l-0.133-0.054c-18.514 46.364-44.875 80.731-51.977 91.159-3.139 4.601-4.282 8.458-3.484 11.358l0.159-0.053s7.448-0.985 14.577 5.798c4.176 3.964 8.246 10.614 10.64 21.706" style="fill:#ad7663"/></g><g transform="translate(356.82,1490)"><path d="m0 0c8.618 33.915 10.347 93.685 10.347 93.685l-0.824 0.453c3.963 7.261 8.459 15.428 13.247 24.073 8.219 13.007 69.931 108.21 113.29 102.3-2.979-9.842-4.628-22.078-4.229-37.266 0 0 5.745 11.943 14.018 20.109l0.16-0.159s51.87-47.88 89.562-121.91l1.968 0.08c0.08-1.198 0.16-2.421 0.24-3.645l0.532-0.026c-0.054-0.585-0.054-1.144-0.08-1.729v-0.905s-1.357-35.457 0.904-80.731c-61.552-5.453-100.89 12.023-100.89 12.023l-1.409-0.239c-5.161 9.044-11.252 17.822-18.301 27.717-6.251 8.805-10.853 18.7-14.205 27.957-1.41 3.857-2.607 7.608-3.591 11.119l-1.729-0.506s-78.895-95.76-109.94-119.7c-26.068-20.109-47.135-0.824-53.2 5.879l-0.026 0.026c-14.816 46.657-21.892 120.34-15.056 166.12l47.88 18.62s14.604-37.826 23.887-80.466c4.602-21.12 7.9-43.411 7.448-62.882" style="fill:#b0c4e6"/></g><g transform="translate(584.83,1953.2)"><path d="m0 0c0 1.277-1.037 2.314-2.314 2.314-1.304 0-2.341-1.037-2.341-2.314s1.037-2.341 2.341-2.341c1.277 0 2.314 1.064 2.314 2.341m6.517 0.186c1.383-9.682-5.347-18.673-15.029-20.083-9.682-1.383-18.673 5.347-20.083 15.056-0.745 5.267 0.904 10.294 4.123 14.045 4.043 0.744 8.459 1.037 13.034 0.478 6.703-0.824 12.715-3.963 17.636-7.554l-0.053-0.08c0.159-0.612 0.292-1.223 0.372-1.862" style="fill:#260c16"/></g><g transform="translate(582.52,1955.5)"><path d="m0 0c1.277 0 2.314-1.037 2.314-2.314s-1.037-2.341-2.314-2.341c-1.303 0-2.341 1.064-2.341 2.341s1.038 2.314 2.341 2.314" style="fill:#fff"/></g><g transform="translate(503.99,1694.6)"><path d="m0 0-0.293 0.319c3.911 52.934 43.491 49.396 45.167 49.21-2.394-11.092-6.464-17.742-10.64-21.705l-0.159 0.186c-8.539 0.266-13.46-1.889-14.577-5.932-0.798-2.899 0.346-6.756 3.484-11.358 7.103-10.427 33.463-44.795 51.977-91.158 5.346-13.407 10.055-27.824 13.433-42.933-37.692 74.028-89.562 121.91-89.562 121.91l-0.16 0.16c0.426 0.478 0.878 0.904 1.33 1.303" style="fill:#93a9cf"/></g><g transform="translate(492.87,1710.5)"><path d="m0 0c0.851 2.82 1.809 5.453 2.873 7.874 16.093 37.479 53.891 32.478 53.891 32.478l0.373-0.053c-0.319-2.367-0.692-4.575-1.144-6.623-1.676 0.186-41.257 3.724-45.167-49.21l0.293-0.32c-0.452-0.399-0.905-0.824-1.33-1.303-8.273-8.166-14.018-20.11-14.018-20.11-0.399 15.189 1.25 27.425 4.229 37.267" style="fill:#b0c4e6"/></g><g transform="translate(538.07,1722.6)"><path d="m0 0 0.16-0.186c-7.129-6.783-14.577-5.799-14.577-5.799l-0.16 0.053c1.117 4.043 6.038 6.198 14.577 5.932" style="fill:#b0c4e6"/></g><g transform="translate(514.34,1351.3)"><path d="m0 0s12.635-2.341 33.622-2.447c-9.256-10.986-83.47-104.51-114.99-309.49l-0.266 0.053c6.703 43.172 14.39 89.19 23.115 133.66 27.93 142.31 58.52 178.22 58.52 178.22" style="fill:#2859b0"/></g><g transform="translate(507.13,1841.2)"><path d="m0 0-0.505-0.186s-20.642 3.804-46.045 15.694c-3.884 1.809-10.534 1.17-14.577 3.378-4.841 2.633-7.075 8.193-11.943 11.438-4.469 2.953-14.231 3.511-18.594 6.996-4.921 3.99-4.442 10.959-9.044 15.694 0 0 3.299 1.064 12.183 1.356 2.288 0.054 10.108-2.394 12.768-2.021 4.549 0.665 8.326 6.996 13.486 9.044 4.921 1.968 8.539-0.399 13.54 3.431l0.745 0.107c0.266-2.049 0.691-4.177 1.197-6.358 1.037-4.309 2.527-8.858 4.442-13.566 5.799-14.257 21.413-27.212 35.697-21.067l0.372-0.798c1.41-7.953 3.698-15.827 6.278-23.142" style="fill:#301721"/></g><g transform="translate(460.93,1900)"><path d="m0 0s15.029-36.256 43.757-32.399c-1.383-0.984-2.766-1.782-4.203-2.394-14.284-6.144-29.898 6.81-35.697 21.067-1.915 4.709-3.405 9.257-4.442 13.566z" style="fill:#a36f5d"/></g><g transform="translate(501.39,1959.5)"><path d="m0 0c4.07-7.82 2.5-26.015-8.086-30.031l-0.16-0.24c-2.979 1.915-7.129 4.123-11.677 5.107v0.027l0.212 1.037c5.746 6.81-0.931 14.87 1.011 20.403 2.474 7.102 10.481 8.432 12.289 17.768 0.399-5.745 3.272-8.033 6.411-14.071" style="fill:#301721"/></g><g transform="translate(495.06,1718.6)"><path d="m0 0 0.692-0.293c-1.064-2.42-2.022-5.054-2.873-7.873-43.358 5.905-105.07-89.297-113.29-102.3 12.157 21.812 26.255 46.657 38.996 67.697 30.59 50.54 76.475 42.773 76.475 42.773" style="fill:#c3d9ff"/></g><g transform="translate(495.29,1979.1)"><path d="m0 0c0.106-2.155-0.027-3.99-0.319-5.559-0.08 1.542 0 3.351 0.319 5.559" style="fill:#ba7f6b"/></g><g transform="translate(482.5,1908.2)"><path d="m0 0c4.655-5.932 8.113-14.311 10.028-20.296-5.187 11.438-19.418 16.998-19.418 16.998l-0.106 0.957s4.495 8.752 9.496 2.341" style="fill:#875b4e"/></g><g transform="translate(461.14,1551.7)"><path d="m0 0-0.665-0.239s-85.12-119.04-130.34-144.3c-14.657-8.193-27.717 10.746-37.453 41.336 6.065-6.703 27.132-25.988 53.2-5.879 31.042 23.94 109.94 119.7 109.94 119.7l1.729 0.506c0.984-3.511 2.181-7.262 3.591-11.119" style="fill:#93a9cf"/></g><g transform="translate(482.13,823.68)"><path d="m0 0c-4.043-14.497-51.976-184.98-60.887-209.16-9.31-25.27-97.091-223.44-106.4-260.68-4.282-17.077-5.187-36.416-4.921-52.322h-0.399c-11.384-16.253-23.86-19.844-34.048-18.94-4.415 0.373-8.405 1.596-11.677 2.953-1.915 0.825-3.564 1.676-4.921 2.5 10.081 1.862 34.553 8.007 37.346 24.127 3.565 20.402 8.06 119.3 76.263 232.32 59.637 98.819 79.427 283.96 79.427 283.96l0.187 0.798c9.017-1.968 19.072-3.883 30.031-5.559" style="fill:#966553"/></g><g transform="translate(452.1,829.24)"><path d="m0 0-0.186-0.798s-19.791-185.14-79.428-283.96c-68.202-113.02-72.698-211.92-76.262-232.32-2.793-16.119-27.265-22.264-37.347-24.126-2.739 1.543-4.309 2.846-4.309 2.846h-0.026c14.124 24.206 22.503 45.353 25.722 54.982 6.65 19.95 9.31 115.71 18.62 194.18s54.53 172.9 74.48 218.12 29.26 85.12 29.26 85.12 18.62-7.289 49.476-14.045" style="fill:#ad7663"/></g><g transform="translate(366.34,1584.1)"><path d="m0 0 0.825-0.452s-1.729-59.771-10.348-93.686c0.452 19.472-2.846 41.763-7.448 62.883h0.053s6.783 12.741 16.918 31.255" style="fill:#93a9cf"/></g><g transform="translate(306.7,1673.7)"><path d="m0 0c0 0.026 0 0.053-0.027 0.106-1.01 2.581-1.649 5.693-1.649 9.39 0 7.821-7.155 9.337-15.667 9.656-4.575 0.16-9.523 0-13.965 0.239-0.293 0.027-0.585 0.054-0.851 0.054-4.443 0.319-8.3 1.117-10.72 3.218-0.027 0.08-0.053 0.16-0.107 0.24l0.586 0.212s40.91 7.315 50.54 1.011c9.655-6.331 12.874-16.731 25.722-14.843 4.868-17.742-15.082-49.662-15.082-49.662l-47.88-18.62c-5.427 3.245-10.241 7.235-14.364 11.598l0.399 0.372s54.397 1.942 43.065 47.029" style="fill:#966658"/></g><g transform="translate(333.19,1697.3)"><path d="m0 0 0.106 0.08c2.926-4.15 5.453-7.741 7.262-14.391-12.848-1.888-16.066 8.512-25.722 14.843-9.629 6.304-50.54-1.011-50.54-1.011l-0.585-0.213c-1.197 3.166-2.075 6.358-2.687 9.55 0.984 2.288 3.378 4.149 7.688 4.868 1.489 0.239 3.245 0.345 5.24 0.266 2.341-0.08 4.655-0.107 6.969-0.054 2.793 0.027 5.586 0.107 8.326 0.213 17.024 0.532 32.798 0.878 43.943-14.151" style="fill:#ad7663"/></g><g transform="translate(290.37,1746.9)"><path d="m0 0 0.532 0.08s8.645 34.899-5.32 89.429v0.053c1.064-0.186 1.995-0.585 2.66-1.037 3.112-2.208 19.072-52.748 28.382-95.76 5.826-26.893 11.811-35.405 16.678-42.347l-0.106-0.08c-11.145 15.029-26.919 14.683-43.943 14.151v0.452l-2.767 20.722-7.208 1.117c1.782 10.666 7.315 15.614 7.315 15.614l0.026 0.027c2.102-1.277 3.458-2.341 3.458-2.341l0.266 0.053c0.027-0.053 0.027-0.106 0.027-0.133" style="fill:#966658"/></g><g transform="translate(312.18,268.72)"><path d="m0 0v-1.197c0-6.278-2.341-12.263-6.437-17.051-18.008-21.067-45.513-76.874-57.775-102.68-4.203-8.857-11.917-16.066-24.233-18.726-11.97-2.58-30.457-3.671-43.225 1.995-23.94 10.64-20.615 37.559-20.615 37.559h0.319c0.559-17.981 17.955-28.834 24.366-30.43 10.64-2.66 46.337-5.746 57.855 11.97 8.459 13.007 32.505 86.636 69.745 118.56" style="fill:#1a0c12"/></g><g transform="translate(261.96,262.66)"><path d="m0 0 13.433 18.913 0.08 1.01c10.188-0.904 22.663 2.687 34.048 18.94h0.399c0.292-18.78 2.261-32.798 2.261-32.798-37.24-31.92-61.287-105.55-69.745-118.56-11.518-17.716-47.215-14.63-57.855-11.971-6.411 1.597-23.807 12.449-24.366 30.431-0.399 11.864 6.544 26.786 28.728 44.236 28.861 22.69 50.513 52.109 65.596 78.018h0.026s1.57-1.304 4.309-2.847c1.357-0.824 3.006-1.675 4.921-2.5l-0.372-0.851-9.842-18.993-7.475-14.443-6.729-12.981-14.072-27.185 18.328 25.775 8.698 12.263z" style="fill:#4a2332"/></g><g transform="translate(306.7,1673.7)"><path d="m0 0c11.332-45.087-43.065-47.029-43.065-47.029l-0.399-0.372c-9.39 9.922-15.402 21.971-17.556 32.744-0.825 4.123-1.756 7.741-2.66 10.853 0 0 14.63-5.32 20.615 1.33 0 0 13.965-1.011 17.955 5.985 0 0 18.62-1.676 23.434 5.985 0-3.697 0.639-6.809 1.649-9.39 0.027-0.053 0.027-0.08 0.027-0.106" style="fill:#ad7663"/></g><g transform="translate(289.36,1692.8)"><path d="m0 0c8.512-0.319 15.667-1.835 15.667-9.656-4.814-7.661-23.434-5.985-23.434-5.985-3.99-6.996-17.955-5.985-17.955-5.985-5.985-6.65-20.615-1.33-20.615-1.33-1.942 6.677-3.857 10.959-4.602 12.582 2.314-2.953 5.027-5.48 8.166-7.475 7.475-4.814 9.922 3.246 10.693 8.326v0.08l0.825 2.926c1.569-1.623 3.352-3.059 5.32-4.256 5.16-3.139 7.953-1.809 9.443 0.798 2.101 3.644 1.649 9.842 1.649 9.842l0.027 0.426c0.266 0 0.558-0.027 0.851-0.054v-0.372c3.644-10.081 13.406-6.756 13.965 0z" style="fill:#ad7663"/></g><g transform="translate(285.58,1836.4)"><path d="m0 0c13.965-54.53 5.32-89.429 5.32-89.429l-0.532-0.08c0 0.026 0 0.08-0.027 0.133-1.143 7.075-10.64 65.276-12.741 77.752-1.756 10.507 3.99 12.422 7.98 11.677z" style="fill:#ad7663"/></g><g transform="translate(289.36,1692.8)"><path d="m0 0v-0.133c-0.559-6.756-10.321-10.081-13.965 0v0.372c4.442-0.239 9.39-0.079 13.965-0.239" style="fill:#ad7663"/></g><g transform="translate(289.25,1711.9)"><path d="m0 0v-0.452c-2.74-0.107-5.533-0.186-8.326-0.213v0.559c-2.527 8.99-2.633 16.279-1.649 21.945l7.209-1.118z" style="fill:#966658"/></g><g transform="translate(282.97,1750.3)"><path d="m0 0 0.399 0.851c1.197-0.585 2.314-1.197 3.245-1.755l-0.026-0.027s-5.533-4.948-7.315-15.614c-0.985-5.666-0.878-12.954 1.649-21.945v-0.559c-2.314-0.053-4.629-0.026-6.969 0.053-1.995 0.08-3.751-0.026-5.241-0.266l-0.079 0.426c-3.698 12.821-4.23 25.722-4.31 28.568l0.798 0.027s7.369 12.848 17.849 10.241" style="fill:#ad7663"/></g><g transform="translate(283.37,1751.1)"><path d="m0 0-0.399-0.851c-10.48 2.607-17.849-10.241-17.849-10.241l-0.798-0.027c-0.026 0.373-0.026 0.585-0.026 0.585 1.995 15.721 12.129 13.859 19.072 10.534" style="fill:#bd816d"/></g><g transform="translate(275.47,282.58)"><path d="m0 0-0.08-1.011-13.433-18.912c-2.873 1.941-5.852 2.739-8.379 3.032l9.842 18.992 0.373 0.852c3.271-1.357 7.261-2.581 11.677-2.953" style="fill:#1a0c12"/></g><g transform="translate(274.54,1693.1)"><path d="m0 0-0.027-0.426s0.453-6.197-1.649-9.842l-1.25 0.32c-3.485 4.069-5.985 8.565-7.794 13.167 2.421-2.102 6.278-2.9 10.72-3.219" style="fill:#ad7663"/></g><g transform="translate(257.65,1686.9)"><path d="m0 0c-0.213 0.16-0.426 0.346-0.638 0.559-0.054 0-0.054 0.026-0.08 0.053-3.857 4.362-6.597 9.815-8.486 15.428-0.133 0.293-0.239 0.612-0.319 0.957-1.596 5.267-2.66 10.8-3.378 15.668-0.053 0.159-0.053 0.293-0.053 0.425-0.266 2.102-0.452 4.044-0.559 5.719h0.053s6.145 16.466 18.275 15.455v0.027c0.026 0 0.079-0.027 0.106-0.027l-0.106-0.319s-4.868-16.865-1.437-34.74c-1.383-3.085-0.159-6.916 2.394-9.443 0.133-0.133 0.266-0.239 0.399-0.345 1.809-4.602 4.309-9.098 7.794-13.167l1.25-0.32c-1.489-2.607-4.282-3.937-9.443-0.798-1.968 1.197-3.75 2.634-5.32 4.256l0.053 0.186c-0.186 0.133-0.345 0.266-0.505 0.426" style="fill:#ad7663"/></g><g transform="translate(268.64,1711.4)"><path d="m0 0 0.08-0.426c-4.309-0.718-6.703-2.58-7.688-4.867-3.431 17.875 1.437 34.739 1.437 34.739l0.106 0.319c1.091-0.319 1.729-0.611 1.729-0.611s0-0.213 0.027-0.586c0.08-2.846 0.612-15.747 4.309-28.568" style="fill:#966658"/></g><g transform="translate(263.82,1696.3)"><path d="m0 0c-0.133 0.106-0.266 0.213-0.399 0.346-2.554 2.527-3.777 6.357-2.394 9.443 0.612-3.192 1.49-6.384 2.687-9.55 0.053-0.079 0.079-0.159 0.106-0.239" style="fill:#ad7663"/></g><g transform="translate(243.42,1732.4)"><path d="m0 0c-0.027 0.745-0.053 1.17-0.053 1.17v0.027c0.372-0.053 0.558-0.08 0.558-0.08 3.831 10.826 14.285 8.991 18.541 7.714v-0.026c-12.13 1.01-18.275-15.455-18.275-15.455h-0.053c0.107-1.676 0.293-3.618 0.559-5.719-0.825 5.639-1.144 10.294-1.277 12.369" style="fill:#bd816d"/></g><g transform="translate(261.96,262.66)"><path d="m0 0-9.629-13.539c-2.235 1.383-4.389 1.941-6.225 2.128l7.475 14.443c2.527-0.292 5.506-1.09 8.379-3.032" style="fill:#1a0c12"/></g><g transform="translate(258.16,1686.5)"><path d="m0 0-0.053-0.186c-0.186 0.159-0.319 0.319-0.479 0.479 0.027 0.053 0.027 0.079 0.027 0.133 0.159-0.16 0.319-0.293 0.505-0.426" style="fill:#ad7663"/></g><g transform="translate(258.1,1686.3)"><path d="m0 0-0.825-2.926c0.266 1.596 0.346 2.899 0.346 3.405 0.16-0.16 0.293-0.319 0.479-0.479" style="fill:#ad7663"/></g><g transform="translate(257.01,1687.5)"><path d="m0 0c0.213-0.213 0.426-0.399 0.638-0.559 0-0.053 0-0.079-0.026-0.133-0.213 0.213-0.426 0.453-0.612 0.692" style="fill:#ad7663"/></g><g transform="translate(257.62,1686.8)"><path d="m0 0c0-0.505-0.08-1.809-0.346-3.405v-0.08l-1.622-5.798c-18.381 18.673-13.753 48.571-12.556 54.849 0.107 0 0.213 0.026 0.32 0.026 0.133-2.074 0.452-6.729 1.276-12.369 0-0.133 0-0.266 0.054-0.425 0.585-4.708 1.596-10.241 3.378-15.668 0.08-0.345 0.186-0.665 0.319-0.957 1.968-6.198 4.708-11.89 8.485-15.428 0.027-0.027 0.027-0.053 0.08-0.053 0.186-0.24 0.399-0.479 0.612-0.692" style="fill:#966658"/></g><g transform="translate(238.39,1682.5)"><path d="m0 0c-5.932 7.528-9.39 17.875-11.332 29.579l0.16 0.027s3.591 19.178 15.88 20.269c-1.197-6.278-5.825-36.176 12.555-54.849l1.623 5.799c-0.771-5.081-3.219-13.141-10.693-8.326-3.139 1.995-5.852 4.522-8.166 7.474z" style="fill:#ad7663"/></g><g transform="translate(252.33,249.12)"><path d="m0 0-8.698-12.263c-1.49 0.825-2.953 1.251-4.256 1.41l6.73 12.981c1.835-0.186 3.99-0.745 6.224-2.128" style="fill:#1a0c12"/></g><g transform="translate(248.45,1703)"><path d="m0 0c1.889-5.613 4.628-11.066 8.485-15.428-3.777 3.538-6.517 9.23-8.485 15.428" style="fill:#ad7663"/></g><g transform="translate(244.75,1719.6)"><path d="M 0,0 C 0.718,-4.868 1.782,-10.401 3.378,-15.667 1.596,-10.241 0.585,-4.708 0,0" style="fill:#ad7663"/></g><g transform="translate(243.63,236.86)"><path d="M 0,0 -18.327,-25.775 -4.256,1.41 C -2.953,1.25 -1.49,0.825 0,0" style="fill:#1a0c12"/></g><g transform="translate(243.42,1732.4)"><path d="m0 0c-0.106 0-0.213-0.027-0.319-0.027 0.159 0.772 0.266 1.197 0.266 1.197s0.026-0.425 0.053-1.17" style="fill:#966658"/></g><g transform="translate(243.37,1733.6)"><path d="m0 0v-0.027s-0.106-0.425-0.266-1.197c-12.289-1.09-15.88-20.269-15.88-20.269l-0.16-0.026c-0.346 2.074-0.638 4.202-0.878 6.357-1.995 17.184 13.992 15.641 17.184 15.162" style="fill:#bd816d"/></g></g></g><g transform="matrix(.35278 0 0 -.35278 -182.57 69.466)"><path d="m0 0s1.091-9.869 4.815-23.009c0.984-3.511 2.181-7.262 3.591-11.119 3.351-9.257 7.953-19.152 14.204-27.956 7.049-9.896 13.14-18.674 18.301-27.718 1.676-2.979 3.272-6.011 4.788-9.097 13.114-27.238 18.354-60.887 15.907-135.63 0 0-30.59-35.91-58.52-178.22-8.725-44.476-16.413-90.494-23.116-133.67-13.912-89.881-23.514-167.34-29.153-192.42h-0.027c-0.293-1.41-0.612-2.66-0.904-3.751 0 0 18.62-7.288 49.476-14.045 9.017-1.968 19.072-3.883 30.031-5.559 40.991-6.331 94.403-9.257 151.83 1.437 21.998 4.122 44.582 10.241 67.298 18.939 12.156 4.655 24.366 10.055 36.522 16.306 2.66 1.356 5.32 2.766 7.98 4.202 0 0 13.3 97.09 34.58 146.3 21.28 49.211 62.962 163.14 47.002 257.57" style="fill:none;stroke-linecap:round;stroke-miterlimit:10;stroke-width:2.66;stroke:#000"/></g><g transform="matrix(.35278 0 0 -.35278 -60.432 160.81)"><path d="m0 0c-25.27 23.94-63.84 40.352-90.44 64.292s-37.479 81.263-15.96 117.04c0.372 0.586 0.718 1.197 1.037 1.783 16.359 27.797 19.844 49.821 18.009 66.367-0.825 7.501-2.74 13.885-5.054 19.152" style="fill:none;stroke-linecap:round;stroke-miterlimit:10;stroke-width:2.66;stroke:#000"/></g><g transform="matrix(.35278 0 0 -.35278 -167.64 22.631)"><path d="m0 0s-45.885 7.767-76.475-42.773c-12.741-21.04-26.839-45.885-38.996-67.697-4.788-8.645-9.283-16.811-13.246-24.073-10.135-18.514-16.918-31.255-16.918-31.255" style="fill:none;stroke-linecap:round;stroke-miterlimit:10;stroke-width:2.66;stroke:#000"/></g><g transform="matrix(.35278 0 0 -.35278 -239.04 117.91)"><path d="m0 0c-14.816 46.656-21.892 120.34-15.056 166.12l47.88 18.62s14.604-37.825 23.887-80.465c4.602-21.12 7.9-43.411 7.448-62.882" style="fill:none;stroke-linecap:round;stroke-miterlimit:10;stroke-width:2.66;stroke:#000"/></g><g transform="matrix(.35278 0 0 -.35278 -179.84 81.59)"><path d="m0 0s-85.12-119.04-130.34-144.3c-14.657-8.193-27.717 10.746-37.453 41.336" style="fill:none;stroke-linecap:round;stroke-miterlimit:10;stroke-width:2.66;stroke:#000"/></g><g transform="matrix(.35278 0 0 -.35278 -91.389 34.914)"><path d="m0 0c16.066-8.645 166.25-93.18 240.52-156.12 5.879-4.975 9.31-11.917 10.029-19.126 0.532-5.479-0.479-11.119-3.192-16.253l-98.42-170.24-3.645 1.969-15.667 8.432-15.268 8.219c0.505 0.798 0.984 1.623 1.463 2.448 24.339 42.161 21.093 104.62 48.837 146.33 6.544 9.816 14.79 18.461 25.51 25.456" style="fill:none;stroke-linecap:round;stroke-linejoin:round;stroke-miterlimit:10;stroke-width:2.66;stroke:#000"/></g><g transform="matrix(.35278 0 0 -.35278 -109.14 30.917)"><path d="m0 0h0.053c1.596-0.106 33.383-2.234 50.248-11.305" style="fill:none;stroke-linecap:round;stroke-linejoin:round;stroke-miterlimit:10;stroke-width:2.66;stroke:#000"/></g><g transform="matrix(.35278 0 0 -.35278 -91.399 72.675)"><path d="m0 0s0.133-0.106 0.426-0.346c5.373-4.336 61.978-48.864 161.83-86.769" style="fill:none;stroke-linecap:round;stroke-miterlimit:10;stroke-width:2.66;stroke:#000"/></g><g transform="matrix(.35278 0 0 -.35278 -160.84 152.2)"><path d="m0 0s12.635-2.341 33.622-2.447c17.29-0.08 40.273 1.33 66.58 6.863 21.147 4.415 44.449 11.491 68.655 22.583" style="fill:none;stroke-linecap:round;stroke-miterlimit:10;stroke-width:2.66;stroke:#000"/></g><g transform="matrix(.35278 0 0 -.35278 -200.25 331.44)"><path d="m0 0s-9.31-39.9-29.26-85.12-65.17-139.65-74.48-218.12-11.97-174.23-18.62-194.18c-3.219-9.63-11.598-30.777-25.722-54.983-15.083-25.908-36.735-55.328-65.596-78.017-22.184-17.45-29.127-32.373-28.728-44.236 0.559-17.982 17.955-28.835 24.366-30.431 10.64-2.66 46.337-5.745 57.855 11.97 8.458 13.008 32.505 86.637 69.745 118.56 0 0-1.968 14.018-2.261 32.797-0.266 15.907 0.638 35.245 4.921 52.323 9.31 37.24 97.09 235.41 106.4 260.68 8.911 24.179 56.844 194.66 60.887 209.16 0.187 0.638 0.293 0.984 0.293 0.984" style="fill:none;stroke-linecap:round;stroke-miterlimit:10;stroke-width:2.66;stroke:#000"/></g><g transform="matrix(.35278 0 0 -.35278 -104.51 527.52)"><path d="m0 0c-4.921 4.043-10.108 8.592-14.577 13.247-6.091 6.331-10.879 12.874-12.103 18.567-3.99 18.62-6.331 93.605 39.9 268.66 18.594 70.383 47.8 221.71 50.54 272.44v0.213" style="fill:none;stroke-linecap:round;stroke-miterlimit:10;stroke-width:2.66;stroke:#000"/></g><g transform="matrix(.35278 0 0 -.35278 -97.648 532.56)"><path d="m0 0s-9.204 6.012-19.445 14.284" style="fill:none;stroke-linecap:round;stroke-linejoin:round;stroke-width:2.66;stroke:#000"/></g><g transform="matrix(.35278 0 0 -.35278 -118.61 338)"><path d="m0 0s-7.98-59.85-21.28-111.72c-13.14-51.285-1.596-298.77-18.035-387.96-0.186-1.038-0.399-2.075-0.585-3.059 0 0-4.841-21.759-3.192-35.804 0.452-3.99 1.436-7.342 3.192-9.416 7.98-9.31 42.56-19.498 90.44-71.82 17.875-19.525 49.582-21.121 66.5-14.178 7.501 3.085 15.402 8.485 16.625 16.891 1.756 11.97-10.055 29.978-55.913 55.753-5.586 3.166-11.678 6.438-18.328 9.816" style="fill:none;stroke-linecap:round;stroke-miterlimit:10;stroke-width:2.66;stroke:#000"/></g><g transform="matrix(.35278 0 0 -.35278 -157.56 23.335)"><path d="m0 0s7.448-0.984 14.577 5.799c4.176 3.963 8.246 10.613 10.64 21.705 0.452 2.049 0.824 4.256 1.144 6.624 1.01 7.341 1.356 16.226 0.744 27.025" style="fill:none;stroke-linecap:round;stroke-miterlimit:10;stroke-width:2.66;stroke:#000"/></g><g transform="matrix(.35278 0 0 -.35278 -125.73 7.6917)"><path d="m0 0s-0.239-8.299 1.543-17.849c2.101-11.358 7.049-24.472 18.62-27.371" style="fill:none;stroke-linecap:round;stroke-miterlimit:10;stroke-width:2.66;stroke:#000"/></g><g transform="matrix(.35278 0 0 -.35278 -148.39 11.276)"><path d="m0 0s-37.799 5.001-53.892-32.479c-1.064-2.42-2.021-5.054-2.872-7.873-2.98-9.842-4.629-22.078-4.23-37.267 0 0 5.746 11.944 14.018 20.11 0.426 0.479 0.878 0.904 1.33 1.303 3.299 3.033 6.97 5.347 10.8 6.065" style="fill:none;stroke-linecap:round;stroke-linejoin:round;stroke-miterlimit:10;stroke-width:2.66;stroke:#000"/></g><g transform="matrix(.35278 0 0 -.35278 -164.9 31.621)"><path d="m0 0s51.87-47.88 89.562-121.91c-3.378 15.109-8.086 29.526-13.433 42.933-18.513 46.363-44.874 80.731-51.976 91.158-3.139 4.602-4.283 8.459-3.485 11.358 1.117 4.043 6.038 6.198 14.577 5.932" style="fill:none;stroke-linecap:round;stroke-miterlimit:10;stroke-width:2.66;stroke:#000"/></g><g transform="matrix(.35278 0 0 -.35278 -118.26 15.283)"><path d="m0 0c14.204-4.15 30.856-12.582 28.701-29.021-0.665-4.921-1.702-10.267-2.819-15.295-2.687-11.863-5.879-22.184-5.879-22.184-5.267 12.209-13.034 19.312-13.034 19.312-7.022 6.357-44.156-55.727-46.896-124.62-0.053-0.586-0.053-1.144-0.079-1.729" style="fill:none;stroke-linecap:round;stroke-linejoin:round;stroke-miterlimit:10;stroke-width:2.66;stroke:#000"/></g><g transform="matrix(.35278 0 0 -.35278 -124.95 13.951)"><path d="m0 0s8.858-0.798 18.966-3.751" style="fill:none;stroke-linecap:round;stroke-linejoin:round;stroke-miterlimit:10;stroke-width:2.66;stroke:#000"/></g><g transform="matrix(.35278 0 0 -.35278 -118.49 23.719)"><path d="m0 0c-12.715-22.371-43.172-82.939-40.033-144.22 0.08-1.197 0.16-2.421 0.239-3.645" style="fill:none;stroke-linecap:round;stroke-miterlimit:10;stroke-width:2.66;stroke:#000"/></g><g transform="matrix(.35278 0 0 -.35278 -132.37 76.823)"><path d="m0 0s-1.357-35.458 0.904-80.731c0.532-10.746 1.251-22.051 2.261-33.569 2.82-32.532 7.768-66.74 16.333-94.936" style="fill:none;stroke-linecap:round;stroke-miterlimit:10;stroke-width:2.66;stroke:#000"/></g><g transform="matrix(.35278 0 0 -.35278 -31.651 92.147)"><path d="m0 0s-6.57-10.587-7.554-22.796c-0.24-2.979-0.16-6.065 0.452-9.124" style="fill:none;stroke-linecap:round;stroke-miterlimit:10;stroke-width:2.66;stroke:#000"/></g><g transform="matrix(.35278 0 0 -.35278 -227.47 52.734)"><path d="m0 0s19.95 31.92 15.082 49.662c-1.809 6.65-4.336 10.241-7.262 14.391-4.867 6.942-10.852 15.454-16.678 42.347-9.31 43.012-25.27 93.552-28.382 95.76-0.665 0.452-1.596 0.851-2.66 1.038-3.99 0.744-9.736-1.171-7.98-11.678 2.101-12.475 11.598-70.676 12.741-77.752 0.027-0.053 0.027-0.106 0.027-0.133 0.08-0.372 0.106-0.585 0.106-0.585" style="fill:none;stroke-linecap:round;stroke-miterlimit:10;stroke-width:2.66;stroke:#000"/></g><g transform="matrix(.35278 0 0 -.35278 -251.53 35.065)"><path d="m0 0c0.266 1.596 0.346 2.899 0.346 3.405 0.026 0.053 0.026 0.08 0.026 0.133v0.08" style="fill:none;stroke-linecap:round;stroke-miterlimit:10;stroke-width:2.66;stroke:#000"/></g><g transform="matrix(.35278 0 0 -.35278 -258.18 35.393)"><path d="m0 0c2.314-2.953 5.027-5.48 8.166-7.475 7.475-4.814 9.922 3.246 10.693 8.326" style="fill:none;stroke-linecap:round;stroke-miterlimit:10;stroke-width:2.66;stroke:#000"/></g><g transform="matrix(.35278 0 0 -.35278 -239.96 12.618)"><path d="m0 0s-1.357 1.064-3.458 2.341c-0.931 0.558-2.048 1.17-3.245 1.755-6.943 3.325-17.077 5.187-19.072-10.533 0 0-0.639 0.292-1.729 0.612-0.027 0-0.08 0.026-0.107 0.026-4.256 1.277-14.71 3.112-18.54-7.714 0 0-0.186 0.027-0.559 0.08-3.192 0.479-19.178 2.022-17.183-15.162 0.239-2.155 0.532-4.283 0.878-6.357 1.941-11.704 5.399-22.052 11.331-29.58" style="fill:none;stroke-linecap:round;stroke-miterlimit:10;stroke-width:2.66;stroke:#000"/></g><g transform="matrix(.35278 0 0 -.35278 -251.62 33.619)"><path d="m0 0c0.186-0.239 0.399-0.479 0.612-0.692 0.159-0.159 0.292-0.319 0.479-0.478 1.569-1.623 3.351-3.059 5.32-4.256 5.16-3.139 7.953-1.809 9.443 0.798 2.101 3.644 1.649 9.842 1.649 9.842" style="fill:none;stroke-linecap:round;stroke-miterlimit:10;stroke-width:2.66;stroke:#000"/></g><g transform="matrix(.35278 0 0 -.35278 -254.64 28.158)"><path d="m0 0c1.889-5.613 4.628-11.066 8.485-15.428" style="fill:none;stroke-linecap:round;stroke-miterlimit:10;stroke-width:2.66;stroke:#000"/></g><g transform="matrix(.35278 0 0 -.35278 -255.95 22.293)"><path d="m0 0c0.585-4.708 1.596-10.241 3.378-15.667" style="fill:none;stroke-linecap:round;stroke-miterlimit:10;stroke-width:2.66;stroke:#000"/></g><g transform="matrix(.35278 0 0 -.35278 -256.24 17.704)"><path d="m0 0s-0.08-2.687 0.213-6.863c0.106-1.676 0.292-3.617 0.558-5.719" style="fill:none;stroke-linecap:round;stroke-miterlimit:10;stroke-width:2.66;stroke:#000"/></g><g transform="matrix(.35278 0 0 -.35278 -247.52 25.174)"><path d="m0 0c-3.697 12.821-4.229 25.722-4.309 28.568-0.027 0.373-0.027 0.586-0.027 0.586" style="fill:none;stroke-linecap:round;stroke-miterlimit:10;stroke-width:2.66;stroke:#000"/></g><g transform="matrix(.35278 0 0 -.35278 -240.21 31.78)"><path d="m0 0c-0.559-6.756-10.321-10.081-13.965 0" style="fill:none;stroke-linecap:round;stroke-miterlimit:10;stroke-width:2.66;stroke:#000"/></g><g transform="matrix(.35278 0 0 -.35278 -241.22 17.704)"><path d="m0 0 2.766-20.721" style="fill:none;stroke-linecap:round;stroke-miterlimit:10;stroke-width:2.66;stroke:#000"/></g><g transform="matrix(.35278 0 0 -.35278 -245.44 31.63)"><path d="m0 0c0.266 0 0.559-0.027 0.851-0.053 4.442-0.24 9.39-0.08 13.965-0.24 8.512-0.319 15.668-1.835 15.668-9.655 0-3.698 0.638-6.81 1.649-9.39" style="fill:none;stroke-linecap:round;stroke-miterlimit:10;stroke-width:2.66;stroke:#000"/></g><g transform="matrix(.35278 0 0 -.35278 -224.18 30.992)"><path d="m0 0c-0.532 0.825-1.064 1.596-1.596 2.341-11.145 15.029-26.919 14.683-43.943 14.151-2.74-0.107-5.533-0.186-8.326-0.213-2.314-0.053-4.628-0.026-6.969 0.053-1.995 0.08-3.751-0.026-5.24-0.266-4.31-0.718-6.704-2.58-7.688-4.867-1.383-3.086-0.159-6.916 2.394-9.444 0.133-0.132 0.266-0.239 0.399-0.345" style="fill:none;stroke-linecap:round;stroke-miterlimit:10;stroke-width:2.66;stroke:#000"/></g><g transform="matrix(.35278 0 0 -.35278 -258.31 35.14)"><path d="m0 0s0.133-0.24 0.346-0.692l0.026-0.026c0.745-1.623 2.66-5.905 4.602-12.582 0.905-3.112 1.836-6.73 2.66-10.853 2.155-10.773 8.166-22.823 17.556-32.744 4.123-4.363 8.938-8.353 14.364-11.598" style="fill:none;stroke-linecap:round;stroke-miterlimit:10;stroke-width:2.66;stroke:#000"/></g><g transform="matrix(.35278 0 0 -.35278 -60.451 160.85)"><path d="m0 0c0.346-0.213 0.505-0.319 0.505-0.319 16.413 3.99 26.148 14.178 26.148 14.178" style="fill:none;stroke-linecap:round;stroke-linejoin:round;stroke-miterlimit:10;stroke-width:2.66;stroke:#000"/></g><g transform="matrix(.35278 0 0 -.35278 -85.599 163.62)"><path d="m0 0c-2.022 3.325-1.357 8.273 3.511 11.092 0.24 0.133 0.452 0.266 0.692 0.399 10.773 6.012 29.685 10.534 41.443 7.129 14.55-4.203 23.487-9.416 25.642-10.746" style="fill:none;stroke-linecap:round;stroke-linejoin:round;stroke-width:2.66;stroke:#000"/></g><g transform="matrix(.35278 0 0 -.35278 -67.32 165.17)"><path d="m0 0c-0.372 0.585-7.022 10.587-20.376 9.283-8.831-0.851-13.512-3.298-17.077-5.32" style="fill:none;stroke-linecap:round;stroke-linejoin:round;stroke-width:2.66;stroke:#000"/></g><g transform="matrix(.35278 0 0 -.35278 -73.569 175.19)"><path d="m0 0c-9.39-7.421-14.178-16.386-15.96-19.95s-6.251-5.825-9.549-5.001c-4.07 0.958-6.384 6.57 0.239 20.083 4.15 8.432 10.587 15.029 17.237 20.003 12.528 9.443 25.775 13.247 25.775 13.247" style="fill:none;stroke-linecap:round;stroke-linejoin:round;stroke-width:2.66;stroke:#000"/></g><g transform="matrix(.35278 0 0 -.35278 -63.585 171.28)"><path d="m0 0c-12.263-1.144-21.493-5.719-28.302-11.092" style="fill:none;stroke-linecap:round;stroke-linejoin:round;stroke-miterlimit:10;stroke-width:2.66;stroke:#000"/></g><g transform="matrix(.35278 0 0 -.35278 -72.659 177.18)"><path d="m0 0c11.97 10.933 25.802 16.731 25.802 16.731" style="fill:none;stroke-linecap:round;stroke-linejoin:round;stroke-miterlimit:10;stroke-width:2.66;stroke:#000"/></g><g transform="matrix(.35278 0 0 -.35278 -76.582 189.57)"><path d="m0 0c-4.283 1.197-7.235 6.597-2.979 16.359 3.192 7.368 8.432 13.619 14.098 18.753" style="fill:none;stroke-linecap:round;stroke-linejoin:round;stroke-width:2.66;stroke:#000"/></g><g transform="matrix(.35278 0 0 -.35278 -62.14 177.03)"><path d="m0 0c-8.086-0.612-16.678-9.682-22.903-18.008" style="fill:none;stroke-linecap:round;stroke-linejoin:round;stroke-miterlimit:10;stroke-width:2.66;stroke:#000"/></g><g transform="matrix(.35278 0 0 -.35278 -67.16 193.8)"><path d="m0 0c-1.942-1.357-4.628-2.022-7.076-1.862-4.894 0.319-8.937 3.937-4.867 12.05 1.755 3.538 3.777 7.395 5.958 11.225" style="fill:none;stroke-linecap:round;stroke-linejoin:round;stroke-width:2.66;stroke:#000"/></g><g transform="matrix(.35278 0 0 -.35278 -40.256 162.07)"><path d="m0 0s-2.633-40.991-29.021-54.504c-2.128-1.09-4.415-2.021-6.889-2.713 0 0-10.64 0.107-16.838-3.617-6.65-3.99-16.838-18.275-21.28-26.707-0.505-0.957-1.277-1.782-2.234-2.42" style="fill:none;stroke-linecap:round;stroke-linejoin:round;stroke-miterlimit:10;stroke-width:2.66;stroke:#000"/></g><g transform="matrix(.35278 0 0 -.35278 -89.381 -76.088)"><path d="m0 0c-0.825-5.666-1.25-10.8-1.33-15.561-0.106-5.719 0.239-10.853 0.958-15.667 1.356-9.044 4.043-16.891 7.448-24.925 2.633-6.224 4.628-13.459 5.958-21.253 4.389-25.509 1.862-56.977-8.379-77.778-22.583-45.912-46.444-77.912-68.282-81.689-8.486-1.463-21.121-2.926-39.209 0.372-16.252 2.98-36.947 9.789-63.068 23.914-0.054 0.026-0.107 0.053-0.187 0.08-3.777 2.074-7.687 4.282-11.73 6.649-8.805 5.187-15.854 12.875-20.456 21.999-3.431 6.783-7.793 16.119-11.491 26.626-2.58 7.315-4.868 15.189-6.277 23.142" style="fill:none;stroke-linecap:round;stroke-miterlimit:10;stroke-width:2.66;stroke:#000"/></g><g transform="matrix(.35278 0 0 -.35278 -168.26 -51.736)"><path d="m0 0c10.587 4.017 12.156 22.211 8.086 30.031-3.138 6.039-6.011 8.326-6.41 14.072-0.08 1.543 0 3.351 0.319 5.559 1.436 10.294-7.554 10.188-4.336 26.574 1.197 6.091-5.985 15.454-5.4 21.971 0.559 6.517 7.156 10.294 9.497 16.147 1.888 4.734 1.808 14.896 5.24 19.71 3.857 5.426 11.438 5.453 17.582 10.48 4.948 4.044 8.06 13.194 14.684 16.705 5.133 2.713 13.486-0.106 19.71 2.128 4.682 1.676 12.369 8.512 17.716 9.869 8.033 2.022 14.151-1.649 23.78-0.506 1.224 0.16 2.394 0.373 3.511 0.666 7.528 1.941 12.689 6.517 22.584 6.596 5.639 0.053 16.279-5.453 21.307-5.852 9.682-0.771 15.561 2.979 23.088 0.772 6.81-2.022 15.455-9.869 20.695-12.795 3.91-2.181 8.246-2.899 12.13-3.99" style="fill:none;stroke-linecap:round;stroke-miterlimit:10;stroke-width:2.66;stroke:#000"/></g><g transform="matrix(.35278 0 0 -.35278 -166.69 -50.451)"><path d="m0 0s-1.782 1.569-4.628 3.405c-2.98 1.915-7.129 4.123-11.678 5.107v0.027c-5.187 1.143-10.879 0.691-15.853-3.565-6.039-5.187-7.927-13.938-6.464-24.605 0.266-2.048 0.691-4.176 1.197-6.357 1.037-4.309 2.527-8.858 4.442-13.566 5.799-14.258 21.413-27.212 35.697-21.067 1.437 0.611 2.82 1.409 4.203 2.393" style="fill:none;stroke-linecap:round;stroke-miterlimit:10;stroke-width:2.66;stroke:#000"/></g><g transform="matrix(.35278 0 0 -.35278 -168.52 -37.051)"><path d="m0 0c0.133-0.452 0.266-0.878 0.399-1.303" style="fill:none;stroke-linecap:round;stroke-miterlimit:10;stroke-width:2.66;stroke:#000"/></g><g transform="matrix(.35278 0 0 -.35278 -155.16 -74.202)"><path d="m0 0c6.145 5.719 18.248 14.683 34.527 15.561" style="fill:none;stroke-linecap:round;stroke-miterlimit:10;stroke-width:2.66;stroke:#000"/></g><g transform="matrix(.35278 0 0 -.35278 -156.76 -72.531)"><path d="m0 0s1.569 1.995 4.495 4.708" style="fill:none;stroke-linecap:round;stroke-miterlimit:10;stroke-width:2.66;stroke:#000"/></g><g transform="matrix(.35278 0 0 -.35278 -111.28 -31.786)"><path d="m0 0c-3.165 0.771-5.16-1.676-8.884-1.197-8.832 1.117-11.438 15.428 1.649 19.179" style="fill:none;stroke-linecap:round;stroke-miterlimit:10;stroke-width:2.66;stroke:#000"/></g><g transform="matrix(.35278 0 0 -.35278 -103.91 -44.577)"><path d="m0 0c0.958-0.372 1.915-0.745 2.873-1.091 7.075-2.58 13.672-4.548 16.811-10.906 1.649-3.325 2.155-6.41 1.835-9.203-0.159-1.49-0.532-2.926-1.09-4.256-0.16-0.373-0.319-0.718-0.506-1.091" style="fill:none;stroke-linecap:round;stroke-miterlimit:10;stroke-width:2.66;stroke:#000"/></g><g transform="matrix(.35278 0 0 -.35278 -89.597 -76.116)"><path d="m0 0s-4.336 1.091-10.667 1.782" style="fill:none;stroke-linecap:round;stroke-miterlimit:10;stroke-width:2.66;stroke:#000"/></g><g transform="matrix(.35278 0 0 -.35278 -107.38 -55.237)"><path d="m0 0s13.114-9.31 30.297-3.83c5.001 1.569 20.004 9.416 16.253 32.345" style="fill:none;stroke-linecap:round;stroke-linejoin:round;stroke-miterlimit:10;stroke-width:2.66;stroke:#000"/></g><g transform="matrix(.35278 0 0 -.35278 -106.44 -59.647)"><path d="m0 0c-2.846-6.57-2.66-12.502-2.66-12.502" style="fill:none;stroke-linecap:round;stroke-miterlimit:10;stroke-width:2.558;stroke:#000"/></g><g transform="matrix(.35278 0 0 -.35278 -87.411 -64.564)"><path d="m0 0c-2.048 0.559-4.043 1.037-5.958 1.436-1.41 0.32-2.767 0.586-4.07 0.825-7.023 1.224-12.981 1.463-18.035 0.984-15.588-1.436-22.663-9.735-25.882-17.183" style="fill:none;stroke-linecap:round;stroke-linejoin:round;stroke-miterlimit:10;stroke-width:2.66;stroke:#000"/></g><g transform="matrix(.35278 0 0 -.35278 -133.79 -60.858)"><path d="m0 0c8.539-6.251 13.805-13.992 13.805-13.992s-18.939-18.114-41.256-14.124c-22.318 3.99-22.663 27.478-22.663 27.478s8.219 5.586 19.444 7.714" style="fill:none;stroke-linecap:round;stroke-linejoin:round;stroke-miterlimit:10;stroke-width:2.66;stroke:#000"/></g><g transform="matrix(.35278 0 0 -.35278 -144.61 -63.354)"><path d="m0 0c4.043 0.745 8.459 1.037 13.034 0.479 6.703-0.825 12.715-3.964 17.636-7.555" style="fill:none;stroke-linecap:round;stroke-miterlimit:10;stroke-width:2.739;stroke:#000"/></g><g transform="matrix(.35278 0 0 -.35278 -144.61 -63.354)"><path d="m0 0c-3.219-3.751-4.868-8.778-4.123-14.045 1.41-9.709 10.401-16.439 20.083-15.055 9.682 1.409 16.412 10.4 15.029 20.083-0.08 0.638-0.213 1.25-0.372 1.862" style="fill:none;stroke-linecap:round;stroke-miterlimit:10;stroke-width:2.739;stroke:#000"/></g><g transform="matrix(.35278 0 0 -.35278 -133.11 -16.969)"><path d="m0 0s2.288-0.346 5.559-0.638c3.192-0.293 7.342-0.532 11.279-0.399 3.431 0.079 6.73 0.478 9.124 1.383 8.059 3.032 16.545 15.082 25.562 14.656 6.225-0.266 11.039-2.473 14.763-5.054 1.703-1.197 3.192-2.447 4.496-3.67" style="fill:none;stroke-linecap:round;stroke-miterlimit:10;stroke-width:2.66;stroke:#000"/></g><g transform="matrix(.35278 0 0 -.35278 -131.16 -16.594)"><path d="m0 0s1.463-0.452 3.83-1.676c3.272-1.702 8.273-4.947 13.433-10.613 1.783-1.969 3.591-4.256 5.374-6.863 1.463-2.208 2.926-4.655 4.282-7.368 7.9-15.668 38.464-9.975 47.348-3.884 0.027 0 0.027 0.027 0.053 0.053 8.911 6.118 14.87 17.503 11.305 25.058-0.186 0.452-0.425 0.877-0.691 1.276 0 0 6.251 14.87-2.474 22.052-0.293 0.239-0.559 0.452-0.851 0.638-9.975 7.023-19.658-7.341-19.658-7.341" style="fill:none;stroke-linecap:round;stroke-miterlimit:10;stroke-width:2.66;stroke:#000"/></g><g transform="matrix(.35278 0 0 -.35278 -129.77 -16.087)"><path d="m0 0s36.947-18.46 75.225-4.868c1.915 0.665 3.857 1.437 5.772 2.288" style="fill:none;stroke-linecap:round;stroke-miterlimit:10;stroke-width:2.66;stroke:#000"/></g><g transform="matrix(.35278 0 0 -.35278 -139.13 -20.713)"><path d="m0 0s-3.165-3.511-2.953-7.182" style="fill:none;stroke-linecap:round;stroke-miterlimit:10;stroke-width:2.66;stroke:#000"/></g><g transform="matrix(.35278 0 0 -.35278 -163.56 -20.554)"><path d="m0 0s-20.642 3.804-46.045 15.694c-3.883 1.809-10.533 1.17-14.576 3.378-4.842 2.634-7.076 8.193-11.944 11.438-4.469 2.953-14.231 3.511-18.593 6.996-4.921 3.99-4.442 10.959-9.044 15.694-3.777 3.884-12.742 5.373-16.173 9.815-3.431 4.443-1.33 11.811-4.283 16.838-2.58 4.363-10.267 6.198-12.395 10.8-2.075 4.469 1.383 11.704-0.24 16.359-1.968 5.612-8.964 8.645-10.321 14.47-1.356 5.746 2.926 14.284 2.182 20.216-0.692 5.506-6.464 11.119-6.624 16.758-0.186 5.639 5.24 11.332 5.586 17.077 0.373 6.384-6.916 15.482-5.878 21.919 0.851 5.346 9.921 8.033 11.225 13.38 1.41 5.772-4.921 14.204-3.006 19.95 1.889 5.692 12.023 8.698 14.444 14.311 2.5 5.905-0.027 17.077 3.032 22.849 2.9 5.426 11.359 5.48 14.71 10.773 3.325 5.24 1.569 15.721 5.373 20.775 3.166 4.229 11.997 3.192 15.854 7.447 3.538 3.911 2.022 13.114 6.091 16.971 4.177 3.911 13.912 2.421 18.594 6.172 4.814 3.857 1.915 12.927 7.262 16.518 3.697 2.474 15.481-0.452 19.418 1.862 4.814 2.82 7.155 13.513 12.315 16.013 5.64 2.767 14.125-2.686 20.137-0.372 5.187 1.995 7.847 11.757 13.273 13.353 5.958 1.756 14.71-4.735 20.934-3.511 5.107 0.984 10.294 9.762 15.561 10.374 5.772 0.638 11.624-6.942 17.609-6.81 4.975 0.107 12.662 8.007 17.769 7.714 5.799-0.319 9.018-8.884 14.976-9.762 4.708-0.691 12.103 6.437 16.864 5.374 5.028-1.118 7.422-10.401 12.529-11.944 3.99-1.197 10.667 5.453 14.71 3.964 3.963-1.437 5.293-11.013 9.31-12.742 4.176-1.809 13.699 4.229 17.928 2.101 4.815-2.394 4.336-13.007 9.204-15.853 3.538-2.048 14.896 1.144 18.115-1.011 4.788-3.245 1.25-11.89 5.346-15.322 4.416-3.697 13.726 0.506 17.397-3.351 3.271-3.485 0.931-15.003 3.644-18.62 2.926-3.857 13.486-5.134 15.8-9.097 2.926-5.081-2.58-12.901-0.558-18.088 1.915-4.922 11.438-7.209 12.635-12.183 1.303-5.4-5.799-13.433-5.294-18.78 0.532-5.426 8.698-10.8 8.539-16.093-0.133-5.08-8.539-10.108-9.23-15.029-0.692-5.213 6.304-12.954 5.133-17.875-1.489-6.092-11.251-9.284-13.273-14.816-1.862-5.081 4.07-12.556 1.915-17.051-2.261-4.735-12.661-6.464-15.082-10.401-1.729-2.819-0.825-8.086-2.554-10.427-2.713-3.671-8.033-4.069-10.48-6.384" style="fill:none;stroke-linecap:round;stroke-miterlimit:10;stroke-width:2.66;stroke:#000"/></g><g transform="matrix(.35278 0 0 -.35278 -252.48 526.31)"><path d="m0 0s1.569-1.303 4.309-2.846c1.357-0.825 3.006-1.676 4.921-2.501 3.272-1.356 7.262-2.58 11.678-2.952 10.187-0.905 22.663 2.686 34.048 18.939" style="fill:none;stroke-linecap:round;stroke-miterlimit:10;stroke-width:2.66;stroke:#000"/></g><g transform="matrix(.35278 0 0 -.35278 -113.92 516.3)"><path d="m0 0c-3.724-1.756-7.315-3.086-10.746-4.017-25.856-7.155-42.454 6.677-42.454 6.677" style="fill:none;stroke-linecap:round;stroke-miterlimit:10;stroke-width:2.66;stroke:#000"/></g><g transform="matrix(.35278 0 0 -.35278 -106.45 -59.675)"><path d="m0 0c0-0.026 0.027-0.053 0.027-0.08 2.261-8.565 8.538-13.752 17.476-13.326 9.656 0.452 15.002 10.267 13.539 19.95-0.505 3.378-2.101 8.299-5.107 10.294" style="fill:none;stroke-linecap:round;stroke-miterlimit:10;stroke-width:2.558;stroke:#000"/></g><g transform="matrix(.35278 0 0 -.35278 -239.04 117.91)"><path d="m0 0 0.027-0.027c6.064-6.703 27.132-25.988 53.2-5.878 31.042 23.94 109.94 119.7 109.94 119.7" style="fill:none;stroke-linecap:round;stroke-miterlimit:10;stroke-width:2.66;stroke:#000"/></g><g transform="matrix(.35278 0 0 -.35278 -91.399 34.905)"><path d="m0 0 0.027-0.027" style="fill:none;stroke-linecap:round;stroke-linejoin:round;stroke-miterlimit:10;stroke-width:2.66;stroke:#000"/></g><g transform="matrix(.35278 0 0 -.35278 -155.16 -74.202)"><path d="m0 0-0.027-0.027" style="fill:none;stroke-linecap:round;stroke-miterlimit:10;stroke-width:2.66;stroke:#000"/></g><g transform="matrix(.35278 0 0 -.35278 -153.91 -59.281)"><path d="m0 0s4.974 3.671 12.635 6.996" style="fill:none;stroke-linecap:round;stroke-linejoin:round;stroke-width:2.66;stroke:#000"/></g><g transform="matrix(.35278 0 0 -.35278 -285.88 569.44)"><path d="m0 0s-3.325-26.919 20.615-37.559c12.768-5.666 31.255-4.575 43.225-1.995 12.316 2.66 20.03 9.868 24.233 18.726 12.262 25.802 39.767 81.609 57.775 102.68 4.096 4.788 6.437 10.773 6.437 17.051v1.197" style="fill:none;stroke-linecap:round;stroke-linejoin:round;stroke-width:2.66;stroke:#000"/></g><g transform="matrix(.35278 0 0 -.35278 -249.36 528.5)"><path d="m0 0-9.842-18.992-7.475-14.444-6.729-12.981-14.072-27.185 18.328 25.775 8.698 12.263 9.629 13.539 13.433 18.913" style="fill:none;stroke-linecap:round;stroke-linejoin:round;stroke-width:2.66;stroke:#000"/></g><g transform="matrix(.35278 0 0 -.35278 -255.15 535.3)"><path d="m0 0s2.766 0.745 6.57 0.293c2.527-0.293 5.506-1.091 8.379-3.033 1.49-0.984 2.979-2.261 4.336-3.91" style="fill:none;stroke-linecap:round;stroke-linejoin:round;stroke-width:2.66;stroke:#000"/></g><g transform="matrix(.35278 0 0 -.35278 -257.26 540.46)"><path d="m0 0s2.101 0.745 5.081 0.479c1.835-0.186 3.99-0.745 6.224-2.128 1.782-1.064 3.618-2.66 5.32-5.001" style="fill:none;stroke-linecap:round;stroke-linejoin:round;stroke-width:2.66;stroke:#000"/></g><g transform="matrix(.35278 0 0 -.35278 -259.37 544.92)"><path d="m0 0s1.835 0.479 4.336 0.133c1.303-0.16 2.766-0.585 4.256-1.41 1.888-1.011 3.777-2.686 5.373-5.373" style="fill:none;stroke-linecap:round;stroke-linejoin:round;stroke-width:2.66;stroke:#000"/></g><g transform="matrix(.35278 0 0 -.35278 -134.1 528.03)"><path d="m0 0s-0.878-18.62 1.33-20.828c2.234-2.234 43.464-20.402 71.82-47.88 28.382-27.504 29.499-32.345 52.322-36.362 22.61-3.99 44.343 3.99 47.88 8.858 3.538 4.894 4.442 17.742 4.442 17.742" style="fill:none;stroke-linecap:round;stroke-linejoin:round;stroke-width:2.66;stroke:#000"/></g><g transform="matrix(.35278 0 0 -.35278 -101.39 533.89)"><path d="m0 0c17.529-7.209 27.185-6.278 28.941-6.038 0.186 0.026 0.292 0.053 0.292 0.053" style="fill:none;stroke-linecap:round;stroke-linejoin:round;stroke-width:2.66;stroke:#000"/></g><g transform="matrix(.35278 0 0 -.35278 -117.67 517.87)"><path d="m0 0s4.735-7.501 11.97-16.492c4.203-5.214 9.23-10.933 14.63-15.96s11.172-9.363 16.864-11.864c0.905-0.399 1.783-0.771 2.66-1.117" style="fill:none;stroke-linecap:round;stroke-linejoin:round;stroke-width:2.66;stroke:#000"/></g><g transform="matrix(.35278 0 0 -.35278 -115.48 525.99)"><path d="m0 0s1.862 3.857 5.746 6.544c2.633 1.862 6.197 3.165 10.773 2.367 0.106 0 0.212-0.027 0.319-0.053" style="fill:none;stroke-linecap:round;stroke-linejoin:round;stroke-width:2.66;stroke:#000"/></g><g transform="matrix(.35278 0 0 -.35278 -109.85 531.62)"><path d="m0 0s1.569 3.431 4.416 6.544c2.606 2.819 6.224 5.399 10.64 4.974" style="fill:none;stroke-linecap:round;stroke-linejoin:round;stroke-width:2.66;stroke:#000"/></g><g transform="matrix(.35278 0 0 -.35278 -102.34 536.01)"><path d="m0 0s0.585 3.192 2.66 5.985h0.027c1.968 2.607 5.24 4.841 10.613 3.777" style="fill:none;stroke-linecap:round;stroke-linejoin:round;stroke-width:2.66;stroke:#000"/></g></g></g></svg>
