<?xml version="1.0" encoding="UTF-8"?>
<svg width="419.44mm" height="714.84mm" version="1.1" viewBox="0 0 419.44 714.84" xmlns="http://www.w3.org/2000/svg"><defs><clipPath id="clipPath52523"><path d="m0 2201.9h1625.5v-2201.9h-1625.5z"/></clipPath><clipPath id="clipPath52531"><path d="m901.1 192.03h293.18v-90.431h-293.18z"/></clipPath><clipPath id="clipPath52551"><path d="m1024.5 1062h236.1v-182.84h-236.1z"/></clipPath><clipPath id="clipPath52567"><path d="m1204.7 1056.4h55.88v-44.22h-55.88z"/></clipPath><clipPath id="clipPath52587"><path d="m882.28 969.65h148.61v-102.02h-148.61z"/></clipPath><clipPath id="clipPath52607"><path d="m1027.7 950.64h38.02v-105.26h-38.02z"/></clipPath><clipPath id="clipPath52627"><path d="m584.26 751.61h417.02v-485.73h-417.02z"/></clipPath><clipPath id="clipPath52643"><path d="m589.52 477.33h58.947v-79.832h-58.947z"/></clipPath><clipPath id="clipPath52659"><path d="m851.88 379.14h41.969v-23.004h-41.969z"/></clipPath><clipPath id="clipPath52675"><path d="m843.21 359.41h54.524v-19.919h-54.524z"/></clipPath><clipPath id="clipPath52691"><path d="m574.43 379.83h107.27v-76.07h-107.27z"/></clipPath><clipPath id="clipPath52707"><path d="m549.66 602.77h73.453v-105.08h-73.453z"/></clipPath><clipPath id="clipPath52723"><path d="m966.07 313h185.9v-59.244h-185.9z"/></clipPath><clipPath id="clipPath52739"><path d="m600.87 273.32h342.93v-110.59h-342.93z"/></clipPath><clipPath id="clipPath52755"><path d="m331.7 197.9h678.17v-105.8h-678.17z"/></clipPath><clipPath id="clipPath52775"><path d="m583.41 1002.1h424.25v-289.94h-424.25z"/></clipPath><clipPath id="clipPath52799"><path d="m1036.7 1032h273.82v-176.83h-273.82z"/></clipPath><clipPath id="clipPath52827"><path d="m851.17 953.14h19.404v-18.882h-19.404z"/></clipPath><clipPath id="clipPath52843"><path d="m866.65 903h16.852v-21.313h-16.852z"/></clipPath><clipPath id="clipPath52859"><path d="m876.1 850.05h16.336v-24.252h-16.336z"/></clipPath><clipPath id="clipPath52879"><path d="m588.52 798.93h271.67v-327.08h-271.67z"/></clipPath><clipPath id="clipPath52895"><path d="m692.78 782.82h363.37v-322.24h-363.37z"/></clipPath><clipPath id="clipPath52915"><path d="m723.33 694.41h153.44v-144.53h-153.44z"/></clipPath><clipPath id="clipPath52931"><path d="m769.69 609.52h135.97v-100.03h-135.97z"/></clipPath><clipPath id="clipPath52951"><path d="m638.52 799.88h400.4v-78.89h-400.4z"/></clipPath><clipPath id="clipPath52991"><path d="m908.9 384.71h302.4v-267.94h-302.4z"/></clipPath><clipPath id="clipPath53043"><path d="m549.14 339.53h421.73v-259.55h-421.73z"/></clipPath><clipPath id="clipPath53075"><path d="m719.01 1024.5h33.218v-32.254h-33.218z"/></clipPath><clipPath id="clipPath53095"><path d="m495.46 1043.4h247.36v-93.109h-247.36z"/></clipPath><clipPath id="clipPath53115"><path d="m451.56 1022.6h256.75v-42.298h-256.75z"/></clipPath><clipPath id="clipPath53131"><path d="m455.55 997.94h269.23v-104.71h-269.23z"/></clipPath><clipPath id="clipPath53151"><path d="m839.2 1030.2h48.131v-50.158h-48.131z"/></clipPath><clipPath id="clipPath53171"><path d="m512.78 831.16h169.98v-251.68h-169.98z"/></clipPath><clipPath id="clipPath53187"><path d="m579.27 660.41h43.326v-51.678h-43.326z"/></clipPath><clipPath id="clipPath53203"><path d="m516.74 809.53h77.174v-145.84h-77.174z"/></clipPath><clipPath id="clipPath53223"><path d="m510.65 1001.7h233.52v-186.66h-233.52z"/></clipPath><clipPath id="clipPath53243"><path d="m496.61 842h101.66v-63.366h-101.66z"/></clipPath><clipPath id="clipPath53267"><path d="m354.39 1249.3h183.73v-158.99h-183.73z"/></clipPath><clipPath id="clipPath53291"><path d="m727.04 1731h401.48v-628.22h-401.48z"/></clipPath><clipPath id="clipPath53311"><path d="m999.74 1419.3h44.221v-85.67h-44.221z"/></clipPath><clipPath id="clipPath53331"><path d="m729.9 1437.7h102.98v-132.84h-102.98z"/></clipPath><clipPath id="clipPath53347"><path d="m785.48 1219.1h193.95v-46.52h-193.95z"/></clipPath><clipPath id="clipPath53371"><path d="m757.49 1232.2h254.03v-89.13h-254.03z"/></clipPath><clipPath id="clipPath53387"><path d="m926.84 1551.8h19.028v-43.6h-19.028z"/></clipPath><clipPath id="clipPath53415"><path d="m765.21 1257.4h237.98v-97.68h-237.98z"/></clipPath><clipPath id="clipPath53431"><path d="m765.22 1257.4h237.37v-73.2h-237.37z"/></clipPath><clipPath id="clipPath53451"><path d="m775.42 1270.5h237.81v-69.05h-237.81z"/></clipPath><clipPath id="clipPath53471"><path d="m845.15 1163h19.615v-13.28h-19.615z"/></clipPath><clipPath id="clipPath53487"><path d="m868.33 1157.2h13.125v-11.17h-13.125z"/></clipPath><clipPath id="clipPath53503"><path d="m462.94 1621.6h527.87v-598.27h-527.87z"/></clipPath><clipPath id="clipPath53519"><path d="m486.67 1645.9h228.66v-123.26h-228.66z"/></clipPath><clipPath id="clipPath53539"><path d="m631.01 1567.4h118.37v-106h-118.37z"/></clipPath><clipPath id="clipPath53559"><path d="m955.79 1548.9h71.139v-84.01h-71.139z"/></clipPath><clipPath id="clipPath53579"><path d="m933.91 1438.9-7.249-71.911 25.701-33.972 48.107 0.566 43.494 1.133-0.659 19.817-3.954 48.129-15.816 27.744-21.088 19.817-40.858 2.266z"/></clipPath><clipPath id="clipPath53603"><path d="m913.18 1443.2h103.21v-103.21h-103.21z"/></clipPath><clipPath id="clipPath53619"><path d="m904.21 1452.2h94.607v-94.61h-94.607z"/></clipPath><clipPath id="clipPath53635"><path d="m678.84 1428.7-26.598-34.501 2.203-63.369 8.818-36.919 27 3.858 142.62 25.512-2.102 38.407-10.794 35.837-37.581 39.289-49.111 4.056z"/></clipPath><clipPath id="clipPath53659"><path d="m669.02 1431.7h119.58v-119.58h-119.58z"/></clipPath><clipPath id="clipPath53675"><path d="m663.04 1437.7h100.79v-100.79h-100.79z"/></clipPath><clipPath id="clipPath53691"><path d="m0 2201.9h1625.5v-2201.9h-1625.5z"/></clipPath><clipPath id="clipPath53715"><path d="m175.32 2006.4h834.3v-706.96h-834.3z"/></clipPath><clipPath id="clipPath53731"><path d="m266.95 1963h691.05v-645.67h-691.05z"/></clipPath><clipPath id="clipPath53751"><path d="m330.38 1748.6h296.99v-250.6h-296.99z"/></clipPath><clipPath id="clipPath53767"><path d="m530.71 1822.8h112.45v-163.02h-112.45z"/></clipPath><clipPath id="clipPath53783"><path d="m640.97 1866.4h153.05v-212.69h-153.05z"/></clipPath><clipPath id="clipPath53799"><path d="m177.28 1916.4h251.22v-222.39h-251.22z"/></clipPath><clipPath id="clipPath53815"><path d="m663.72 2095.7h238.16v-191.15h-238.16z"/></clipPath><clipPath id="clipPath53831"><path d="m128.11 1574.5h170.55v-238.75h-170.55z"/></clipPath><clipPath id="clipPath53851"><path d="m663.68 1824.9h491.12v-350.34h-491.12z"/></clipPath><clipPath id="clipPath53867"><path d="m437.34 1328.8h41.851v-79.86h-41.851z"/></clipPath><clipPath id="clipPath53883"><path d="m486.67 1523.8h88.983v-279.6h-88.983z"/></clipPath><clipPath id="clipPath53899"><path d="m374.54 1778.9h428.64v-433.05h-428.64z"/></clipPath><clipPath id="clipPath53919"><path d="m406.28 1334.5h76.23v-83.59h-76.23z"/></clipPath><clipPath id="clipPath53935"><path d="m486.28 1331.8h63.382v-84.64h-63.382z"/></clipPath><clipPath id="clipPath53955"><path d="m424.79 1741.4h258.67v-182.41h-258.67z"/></clipPath><clipPath id="clipPath53975"><path d="m382.74 1581.8h98.232v-154.36h-98.232z"/></clipPath><clipPath id="clipPath53995"><path d="m996.16 1812.6h139.85v-68.62h-139.85z"/></clipPath><clipPath id="clipPath54011"><path d="m873.22 1297.9h21.947v-9.54h-21.947z"/></clipPath><clipPath id="clipPath54027"><path d="m860.29 1325.9h94.335v-38.15h-94.335z"/></clipPath><clipPath id="clipPath54043"><path d="m864.94 1348.6h40.429v-34.27h-40.429z"/></clipPath><clipPath id="clipPath54059"><path d="m858.88 1439.2h55.832v-125.33h-55.832z"/></clipPath><clipPath id="clipPath54079"><path d="m859.52 1307.4h92.531v-43.21h-92.531z"/></clipPath></defs><g transform="translate(259.61 281.91)"><g transform="matrix(.35278 0 0 -.35278 -302.51 461.14)"><g clip-path="url(#clipPath52523)"><g clip-path="url(#clipPath52531)" style="opacity:.10001"><g transform="translate(1194.3 156.76)"><path d="m0 0s-99.186-57.307-239.52-55.103 38.94 90.369 38.94 90.369z"/></g></g><g transform="translate(1307.2 1017.1)"><path d="m0 0c-1.587-2.292-3.703-4.673-5.907-7.494-7.141-8.817-40.644-41.438-48.756-45.317-8.199-3.968-66.035-1.058-81.288 1.939-13.578 2.645-90.458-84.286-109.85-106.06-2.38-2.646-3.879-4.32-4.32-4.762-3.351-3.262-23.276 27.684-30.153 38.617-1.499 2.381-2.38 3.791-2.38 3.791l2.069 4.056 4.185 8.993v0.088l5.425 14.547s13.171 4.67 30.804 14.191c27.42 14.9 63.876 37.562 69.431 42.94 9.169 8.905 16.162 21.777 23.304 31.563 7.141 9.875 22.628 17.457 39.908 16.487 17.281-0.97 33.841 13.49 35.869 20.366 2.115 6.877 16.655 16.135 23.708 7.23 6.701-8.288-12.788-27.596-15.256-30.064 2.645 2.028 24.156 17.986 40.378 18.867 17.192 1.058 17.544 1.675 23.627-11.109 4.232-8.816 2.821-13.753-0.794-18.867" style="fill:#ffd6ab"/></g><g clip-path="url(#clipPath52551)" style="opacity:.2"><g transform="translate(1036.6 879.13)"><path d="m0 0c19.262 9.581 37.153 21.171 54.276 33.972 7.324 7.217 24.599 19.805 31.503 26.613 30.748 30.321 29.231 49.515 61.693 46.753 14.984-1.275 27.81-7.371 43.029-4.866 6.244 1.028 12.419 2.554 18.224 5.107 2.538 1.116 5.188 2.288 7.429 3.933 0.426 0.314 1.153 1.106 1.923 1.966-3.161 0.549-6.812 2.185-9.586 3.431-7.358 3.307-14.987 15.955-35.806 20.119-3.808 5.995 18.839 6.003 27.225 9.609 4.588 1.973 11.53 5.445 16.454 12.498 5.284 6.774 10.165 15.245 6.292 20.036-5.971 7.538-17.272 2.059-21.893-3.97-0.396-1.478-1.105-2.882-2.157-4.134-3.036-7.148-18.911-20.423-35.503-19.492-1.097 0.062-2.186 0.087-3.266 0.082-8.788-4.692-17.265-9.909-25.041-16.156-16.466-13.229-25.884-30.96-39.53-46.639-26.394-30.325-66.765-31.256-99.383-52.726-1.749-1.151-2.524-11.084-4.313-11.392l-1.035-1.978-2.592-4.056s0.882-1.411 2.381-3.791c2.207-3.509 5.76-9.08 9.676-14.919" style="fill:#fff"/></g></g><g clip-path="url(#clipPath52567)" style="opacity:.10001"><g transform="translate(1217.6 1013.4)"><path d="m0 0c2.065-0.26 4.066-0.771 6.068-1.244 0.786 1.254 1.871 2.447 3.339 3.522 6.155 4.506 12.212 9.139 18.222 13.832 4.549 4.653 17.674 18.834 15.018 26.859-12.546-13.163-26.287-25.026-42.929-33.05-4.084-1.968-8.331-3.662-12.601-5.324 4.79-0.489 9.205-1.936 12.883-4.595" style="fill:#a1421d"/></g></g><g transform="translate(1031.6 938.76)"><path d="m0 0-4.408-25.304-1.146-6.612-0.706-3.879-1.058-6.348-2.909-16.487s9.522-15.164-14.988-12.079c-2.116 0.265-4.585 0.705-7.318 1.323-2.909 0.617-5.995 1.41-9.169 2.38l-0.088 0.088c-2.822 0.794-5.642 1.675-8.552 2.821-0.441 0.089-0.97 0.353-1.499 0.529-8.905 3.351-18.162 7.583-27.067 12.432-22.394 11.99-42.495 27.066-48.667 38.704-7.494 14.195-20.895 41.35-27.948 55.633-2.822 5.731-4.585 9.433-4.585 9.433s0-0.567 0.088-0.479c0.617 0.088 3.086 1.019 6.613 1.019h0.176c2.557 0 5.554 1.537 8.817 1.89 4.849 0.441 10.138 0.725 14.635-0.509 0.441-0.089 0.969-0.123 1.498-0.299 14.636-4.938 65.684-32.462 80.584-36.165 9.345-2.293 24.862-8.429 35.618-12.925 7.054-2.909 12.079-5.166 12.079-5.166" style="fill:#f5f3f0"/></g><g clip-path="url(#clipPath52587)" style="opacity:.10001"><g transform="translate(1022.4 931.38)"><path d="m0 0c-23.932 0.039-20.264 13.903-43.532 6.631-13.666-4.27-46.351 23.533-60.594 27.71-11.611 3.405-23.892 4.349-35.976 3.773 7.117-14.371 16.132-32.456 21.787-43.166 6.171-11.638 26.273-26.714 48.667-38.705 8.905-4.849 18.162-9.081 27.067-12.431 0.529-0.177 1.058-0.441 1.499-0.529 2.909-1.146 5.73-2.028 8.551-2.822l0.089-0.088c3.173-0.97 6.26-1.763 9.169-2.38 2.733-0.617 5.201-1.058 7.317-1.323 24.511-3.085 14.989 12.079 14.989 12.079l2.909 16.487 1.058 6.348 0.705 3.879 1.146 6.613 3.655 20.976c-2.13-1.866-4.978-3.058-8.506-3.052"/></g></g><g transform="translate(1064.7 939.29)"><path d="m0 0c-0.176-0.617-1.644-1.142-2.349-1.495-9.434-5.113-11.317-7.473-11.317-7.473s-19.116-9.64-15.237-36.354c0.97-6.789 3.439-14.371 8.2-22.659 0 0 9.61-7.405 14.811-8.551 1.235-0.353 2.293-0.265 2.822 0.441 2.292 2.733 2.027-2.381 0.176-7.847-1.499-4.673-4.055-9.61-7.141-10.139-1.146-0.177-3.262-0.088-5.908 0.264-12.607 1.499-38.263 8.376-41.084 16.575-0.441 1.323-0.882 3.351-1.235 5.995-1.235 10.492-1.41 30.153 1.235 47.081 1.851 11.285 4.937 21.424 9.874 26.714 0.706 0.705 1.411 1.411 2.027 2.116 11.815 12.608 15.583 15.96 26.098 15.164 22.231-1.682 20.791-15.6 19.028-19.832" style="fill:#e6e5e1"/></g><g clip-path="url(#clipPath52607)" style="opacity:.2"><g transform="translate(1055.4 845.47)"><path d="m0 0c3.085 0.529 5.642 5.466 7.141 10.139 1.852 5.466 2.116 10.579-0.176 7.846-0.529-0.705-1.587-0.793-2.822-0.44-5.201 1.146-14.811 8.552-14.811 8.552-4.761 8.287-7.23 15.869-8.2 22.658-3.879 26.715 15.447 37.061 15.447 37.061s0.961 0.481 12.175 6.766c0.688 0.386 1.209 6.604 1.385 7.221 0.247 0.593 0.237 1.278 0.012 2.02-0.787 2.601-3.757 3.901-6.362 3.13-24.306-7.2-34.137-35.875-30.885-61.354 1.994-15.624 7.963-29.717 16.211-42.578 1.799-0.321 3.485-0.579 4.978-0.757 2.645-0.352 4.761-0.44 5.907-0.264"/></g></g><g transform="translate(1000.8 490.52)"><path d="m0 0v-2.468c0-8.553 0.585-17.016 0.233-25.128-0.529-11.902-1.075-23.187-2.485-33.679-0.441-3.262-0.67-6.348-1.199-9.433-2.204-13.754-5.272-25.921-9.591-35.708-1.058-2.292-1.975-4.584-3.033-6.788-16.928-35.708-37.62-58.19-54.195-73.707-10.316-9.61-18.943-16.487-23.968-22.129-2.821-3.174-4.49-5.995-4.666-8.64-0.177-1.94-0.702-3.351-1.848-4.408-0.441-0.529-0.969-0.97-1.674-1.235-4.584-2.38-13.665-1.234-26.096 1.058-11.902 2.116-26.978 5.202-44.435 6.965-1.939 0.177-3.967 0.353-5.995 0.529-3.438 0.265-4.673 2.204-4.32 5.378 0 0.177 0 0.441 0.088 0.706 0 0.176 0 0.529 0.089 0.793 2.116 10.933 17.192 32.798 20.366 52.635-2.293 1.587-5.466 4.32-7.053 8.111-2.558 6.26 8.111 5.466 8.111 5.466s-4.849 2.998-4.056 6.26c0.353 1.764 3.879 3.703 7.23 5.29 2.644 16.399-1.058 29.976-5.026 32.974-9.434 6.788-45.405 2.821-61.187 0.617-4.584-0.617-7.494-1.058-7.494-1.058s-0.881-6.788-2.644-15.87c-1.587-7.582-3.616-16.751-6.349-24.686-1.939-6.172-4.319-11.55-7.141-15.076-0.793-1.147-1.675-2.028-2.645-2.734 0 0-10.051 0.97-21.424 1.411-3.791 0.176-7.67 0.265-11.461 0.265-9.787 0-18.515-0.617-21.16-2.734-2.028-1.763-5.995-4.143-10.669-7.229-10.491-6.965-24.686-17.986-30.064-34.737-3.702-11.55-7.141-26.714-9.698-39.322-0.353-1.586-0.617-3.086-0.882-4.496-1.322-6.436-2.292-11.903-2.909-15.429-0.529-2.91-0.793-4.585-0.793-4.585s-60.658 0.794-87.989 16.575c-4.409 2.469-7.847 5.378-10.139 8.729-0.618 0.881-1.147 1.851-1.499 2.909-10.757 26.714 43.377 95.219 43.377 95.219l-11.02 15.34 11.02 2.293-13.225 9.874 14.283 9.875s1.146 20.983-5.466 40.82c-6.612 19.838-6.612 36.413-15.429 58.454-4.673 11.638-9.346 22.394-12.519 31.211-2.822 7.846-4.497 14.194-3.968 18.338 0.441 3.35-1.763 6.965-4.496 12.431-4.585 8.905-11.021 22.482-11.021 47.08 0 35.531-2.645 62.157 25.215 105.27 3.35 5.026 7.054 10.403 11.197 15.958 1.852 2.469 4.409 4.761 7.67 6.965 2.293 1.499 5.026 5.43 8.024 6.84 2.733 1.235 5.819 6.047 9.169 6.047h0.088c4.673 0 9.963 0.742 15.693 2.153 2.998 0.705 6.084 0.239 9.257 0.856 10.933 2.204 23.1 3.425 36.237 4.924 74.764 8.464 179.86 5.856 249.33 2.859 23.805-0.97 43.378-2.185 56.162-2.979 10.315-0.617 15.285-1.181 15.285-1.181s24.806-141.89 24.806-254.04" style="fill:#5e8559"/></g><g clip-path="url(#clipPath52627)" style="opacity:.2"><g transform="translate(1001.1 488.06)"><path d="m0 0v2.468c0 112.15-24.955 254.04-24.955 254.04s-5.118 0.567-15.433 1.184c-12.784 0.794-32.357 2.016-56.161 2.986-69.475 2.997-174.57 5.618-249.33-2.846-7.543-0.86-53.628-15.203-60.482-16.111 77.53-39.463 87.352-100.53 34.183-130-76.743-42.532-20.712-80.287 54.45-90.536 41.778-5.697-15.094-25.499-16.228-29.894-27.332-105.91-76.924-90.216-82.208-100.36-3.538-6.789 8.96-14.711 10.676-16.015 17.321-13.161 95.371 51.614 110.82 36.086 18.015-18.105 24.497-20.238 25.029-45.693 0.122-5.849-0.344-11.685-1.249-17.476 10.605-0.468 19.609-1.335 19.609-1.335 0.97 0.705 1.852 1.587 2.645 2.733 2.822 3.527 5.202 8.905 7.142 15.076 2.733 7.935 4.761 17.104 6.348 24.686 1.098 5.658 1.854 10.423 2.269 13.214-0.13 1.283-0.275 2.545-0.45 3.767l0.21 0.012c-0.251 2.303-0.486 4.607-0.611 6.906-0.209 3.851 0.793 7.428 2.57 10.62 2.709 9.678 11.536 16.826 21.142 19.246 1.047 0.264 2.11 0.514 3.172 0.766 27.471 9.6 55.99 15.541 84.997 16.714 3.368 1.243 7.066 1.864 10.994 1.711 3.473-0.135 6.673-0.75 9.653-1.692 0.199-8e-3 0.397-8e-3 0.596-0.016 11.643-0.483 22.997-10.458 24.741-22.003 2.341-15.501-0.039-29.781-5.192-43.259 0.63-5.47-0.463-11.522-3.985-17.761-5.522-9.783-11.091-19.193-16.264-28.581-3.955-12.09-9.516-23.862-16.033-35.103-3.523-11.156-6.322-22.44-7.293-34.081 10.283-1.762 17.856-2.417 21.907-0.314 0.705 0.265 1.233 0.706 1.673 1.235 1.147 1.058 1.673 2.469 1.849 4.408 0.177 2.645 1.847 5.466 4.668 8.641 5.025 5.642 13.654 12.519 23.969 22.128 16.576 15.518 37.272 38 54.201 73.708 1.057 2.204 1.983 4.495 3.041 6.788 4.32 9.787 7.407 21.953 9.611 35.707 0.529 3.086 0.795 6.171 1.235 9.433 1.411 10.492 2.03 21.777 2.559 33.679 0.353 8.112-0.084 16.576-0.084 25.128"/></g></g><g clip-path="url(#clipPath52643)" style="opacity:.2"><g transform="translate(648.38 460.14)"><path d="m0 0c-0.238 2.527-1.214 5.71-2.774 8.65-0.275 0.778-0.708 1.473-1.236 2.073-2.46 3.706-5.914 6.588-10.047 6.464-8.479-0.255-12.169-14.638-14.915-20.548-5.997-12.912-12.4-24.096-20.9-35.171-4.926-2.966-9.311-6.302-8.968-12.736 0.539-10.1 11.577-13.435 19.816-10.157 11.527 4.588 18.183 17.322 24.121 27.39 5.763 9.773 16.046 21.9 14.903 34.035" style="fill:#fff"/></g></g><g clip-path="url(#clipPath52659)" style="opacity:.2"><g transform="translate(891.07 379.13)"><path d="m0 0c-7.602-0.599-13.778-5.101-20.461-8.445-6.512-3.259-12.647-6.083-18.087-10.79-1.424-1.232-0.298-3.86 1.557-3.759 7.194 0.394 13.337 2.962 19.914 6.051 7.1 3.335 14.824 6.201 19.454 12.801 1.16 1.654-0.372 4.3-2.377 4.142" style="fill:#fff"/></g></g><g clip-path="url(#clipPath52675)" style="opacity:.2"><g transform="translate(894.37 359.22)"><path d="m0 0c-7.288-2.936-14.542-6.298-22.12-8.405-8.581-2.385-16.983-1.962-25.75-2.342-3.998-0.174-4.459-5.574-0.806-6.798 16.796-5.626 39.524-0.06 51.38 13.072 1.665 1.845-0.045 5.544-2.704 4.473" style="fill:#fff"/></g></g><g clip-path="url(#clipPath52691)" style="opacity:.2"><g transform="translate(663.79 365.33)"><path d="m0 0c2.013 2.301 20.23 13.196 17.664 12.949-14.781 8.617-55.742-21.017-73.938-31.642-14.103-8.234-35.431-19.198-32.879-38.181 0.641-4.767 6.434-5.489 9.851-4.008 11.849 5.137 56.882 35.259 79.302 60.882" style="fill:#fff"/></g></g><g clip-path="url(#clipPath52707)" style="opacity:.2"><g transform="translate(549.66 537)"><path d="m0 0s24.342 35.872 45.268 47.83 28.186 17.937 28.186 17.937-30.748-25.197-35.019-31.175c-4.271-5.979-16.655-25.197-18.79-46.123-2.136-20.925-2.136-26.904-3.844-27.758s-14.947 22.207-15.801 39.289" style="fill:#fff"/></g></g><g clip-path="url(#clipPath52723)" style="opacity:.2"><g transform="translate(1145.4 289.73)"><path d="m0 0c-1.681 0.461-3.355 0.803-5.032 1.207-27.077 40.963-119.53 14.895-153.15 1.25-1.689-0.685-3.048-1.65-4.131-2.784-9.75-4.287-16.868-11.487-17.002-24.641-0.061-5.917 5.09-11.045 11.003-11.003 53.045 0.377 105.94 3.393 158.73 8.531 6.13 0.596 10.602 4.758 10.914 10.508 6.592 3.44 7.843 14.414-1.334 16.932" style="fill:#fff"/></g></g><g clip-path="url(#clipPath52739)" style="opacity:.2"><g transform="translate(836.41 269.93)"><path d="m0 0c-66.895 10.612-132.92-5.442-196.93-24.069-16.645 5.699-31.247-6.5-35.066-20.39-8.094-9.069-1.37-26.752 10.392-29.241 3.591-2.471 7.974-4.123 13.074-4.514 2.952-0.226 5.929-0.386 8.888-0.592 78.318-28.137 166.06-26.535 249.42-27.524 6.563-0.946 13.079-1.225 19.392-0.305 4.404-0.085 8.812-0.165 13.183-0.285 9.934-0.272 22.519 7.907 24.171 18.403 9.343 59.36-58.839 80.953-106.52 88.517" style="fill:#fff"/></g></g><g clip-path="url(#clipPath52755)" style="opacity:.10001"></g><g transform="translate(1007.4 783.76)"><path d="m0 0c0 0.617-0.088 1.322-0.088 2.027-0.264 2.028-0.529 4.407-0.882 7.317-0.44 3.262-1.058 7.139-1.939 11.459-0.353 1.675-0.705 3.435-1.058 5.198-1.852 8.728-4.673 19.035-8.729 30.497-1.675 5.025-3.703 10.387-5.995 15.765-1.587 3.968-3.35 8.343-5.29 12.486-0.705 1.499-1.41 4.167-2.115 6.018-0.529 1.235-0.97 1.985-1.5 1.985h-0.088c-0.882 0-1.763 2.865-2.733 4.716-0.353 0.617-0.705 0.925-1.058 1.366-0.088 0.176-0.264 0.354-0.353 0.53-0.088 0.088-0.088 0.177-0.176 0.265l-0.088 0.09c-2.116 4.056-4.496 8.114-6.965 12.258-2.292 3.791-4.761 7.677-7.318 11.645-0.264 0.441-0.529 0.895-0.881 1.247-17.546 26.097-41.526 53.72-74.324 80.786-0.088 0.089-0.088 0.142-0.176 0.23-1.146 0.97-2.38 1.606-3.615 2.664l-3.527-0.492h-6.524l-15.429 2.399-5.378 0.901-1.499 1.787-13.753 5.162h-40.821l-43.113 0.089s-1.504-0.019-4.043-0.038c-15.927-19.695-11.943-29.92-21.906-52.152-10.086-22.505-16.806-45.98-34.591-62.777-0.875-7.389-16.237-28.768-21.78-38.862-11.991-21.777-40.759-69.791-65.798-97.74-4.144-4.672-7.935-8.752-11.02-12.19-1.852-2.116-3.527-3.75-4.849-5.25-2.91-3.174-4.585-4.679-4.585-4.679l11.814-0.279 18.515-0.292h0.529l171.92-15.765 117.88 31.139h0.088l0.793 2.813 17.721 7.927 38.176 11.422 0.176-0.344 21.513 6.368h0.087l2.734 2.741 7.406 4.946h6.26l6.612 0.766 1.234 0.413 0.794-1.587s0 1.763-0.265 5.025" style="fill:#faf8f5"/></g><g clip-path="url(#clipPath52775)" style="opacity:.10001"><g transform="translate(1007.4 783.76)"><path d="m0 0c0 0.617-0.088 1.322-0.088 2.027-0.264 2.028-0.529 4.407-0.882 7.317-0.44 3.262-1.058 7.139-1.939 11.459-0.353 1.675-0.705 3.435-1.058 5.198-1.852 8.728-4.673 19.035-8.729 30.497-1.675 5.025-3.703 10.387-5.995 15.765-1.587 3.968-3.35 8.343-5.29 12.486-0.705 1.499-1.41 4.167-2.115 6.018-0.529 1.235-0.97 1.985-1.5 1.985h-0.088c-0.882 0-1.763 2.865-2.733 4.716-0.353 0.617-0.705 0.925-1.058 1.366-0.088 0.176-0.264 0.354-0.353 0.53-0.088 0.088-0.088 0.177-0.176 0.265l-0.088 0.09c-2.116 4.056-4.496 8.114-6.965 12.258-2.292 3.791-4.761 7.677-7.318 11.645-0.264 0.441-0.529 0.895-0.881 1.247-17.546 26.097-41.526 53.72-74.324 80.786-0.088 0.089-0.088 0.142-0.176 0.23-1.146 0.97-2.38 1.606-3.615 2.664l-3.527-0.492h-6.524l-15.429 2.399-5.378 0.901-1.499 1.787-13.753 5.162h-39.352c19.923-15.247 35.012-36.764 41.824-61.712 12.081-44.244 5.526-89.689-37.835-113.04-19.893-10.715-42.927-14.854-65.161-17.149-17.22-1.778-36.248-5.307-53.355-1.457-12.587 2.834-20.591 9.069-25.315 17.225-14.277-23.786-34.56-54.917-52.858-75.342-4.144-4.672-7.935-8.752-11.02-12.19-1.852-2.116-3.527-3.75-4.849-5.25-2.91-3.174-4.585-4.679-4.585-4.679l11.814-0.279 18.515-0.292h0.529l171.92-15.765 117.88 31.139h0.088l0.793 2.813 17.721 7.927 38.176 11.422 0.176-0.344 21.513 6.368h0.087l2.734 2.741 7.406 4.946h6.26l6.612 0.766 1.234 0.413 0.794-1.587s0 1.763-0.265 5.025"/></g></g><g transform="translate(922.66 753.74)"><path d="m0 0 85 24.95s0 112.78-125.64 214.17l-32.315 1.277c51.704-64.824 70.664-158.03 72.951-240.4" style="fill:#f2f1ed"/></g><g transform="translate(519.67 859.58)"><path d="m0 0c8.904 0.441 20.781 0.213 27.216-2.608 9.522-4.144 19.952-7.266 30.973-12.468" style="fill:#f2f1ed"/></g><g clip-path="url(#clipPath52799)" style="opacity:.10001"><g transform="translate(1309.5 1032)"><path d="m0 0c-23.162-35.119-61.711-59.617-105.04-58.907-1.003 0.016-1.934 0.129-2.804 0.318-3.486 0.036-7.09 0.383-10.839 0.909-9.866-0.858-19.691-0.385-29.324 3.266-1.302 0.494-2.518 1.222-3.615 2.113-0.205-0.283-0.412-0.566-0.648-0.849-20.963-25.101-44.837-48.599-69.797-69.679-10.533-8.895-32.402-27.824-50.769-30.282 8.257-12.297 18.073-25.689 20.335-23.486 0.441 0.441 1.94 2.116 4.32 4.761 19.397 21.777 96.277 108.71 109.86 106.06 15.252-2.997 73.089-5.907 81.288-1.94 8.111 3.88 41.614 36.501 48.756 45.317 2.204 2.821 4.32 5.202 5.907 7.495 3.029 4.285 4.462 8.477 2.373 14.901" style="fill:#a1421d"/></g></g><g transform="translate(870.57 946.06)"><path d="m0 0c0.22-6.207-9.969-11.606-22.758-12.061-12.79-0.454-23.337 4.21-23.557 10.416-0.221 6.207 9.969 11.606 22.758 12.06 12.79 0.455 23.336-4.208 23.557-10.415" style="fill:#5e8559"/></g><g transform="translate(883.5 893.59)"><path d="m0 0c0.282-6.408-10.238-12.077-23.498-12.661s-24.238 4.138-24.52 10.547c-0.282 6.408 10.238 12.077 23.498 12.661s24.238-4.138 24.52-10.547" style="fill:#5e8559"/></g><g transform="translate(892.43 839.35)"><path d="m0 0c0.331-7.505-10.729-14.088-24.701-14.703s-25.567 4.97-25.897 12.475c-0.331 7.505 10.728 14.088 24.7 14.703 13.973 0.616 25.567-4.97 25.898-12.475" style="fill:#5e8559"/></g><g clip-path="url(#clipPath52827)" style="opacity:.3"><g transform="translate(864.8 953.14)"><path d="m0 0c0.091-2.605-0.409-5.313-1.738-8.071-2.428-5.034-6.832-8.444-11.892-10.811 11.164 1.19 19.602 6.158 19.401 11.809-0.098 2.774-2.269 5.235-5.771 7.073"/></g></g><g clip-path="url(#clipPath52843)" style="opacity:.3"><g transform="translate(871.46 903)"><path d="m0 0c2.353-5.316 2.454-11.412-1.099-16.917-1.035-1.604-2.301-3.056-3.707-4.397 9.949 1.839 17.079 6.616 16.847 11.904-0.186 4.211-5.006 7.683-12.041 9.41"/></g></g><g clip-path="url(#clipPath52859)" style="opacity:.3"><g transform="translate(880.99 850.05)"><path d="m0 0c2.972-8.468 1.335-17.857-4.891-24.252 9.752 2.297 16.59 7.629 16.329 13.549-0.204 4.64-4.721 8.542-11.438 10.703"/></g></g><g transform="translate(1056.2 490.35)"><path d="m0 0s-3.438-0.353-10.051-0.794c-6.524-0.352-16.134-0.705-28.565-0.705-3.615 0-8.729-0.264-15.077-0.793-8.199-0.617-18.514-1.675-30.417-2.998-42.936-4.761-106.5-13.313-165.66-21.159-88.165-11.815-145.47 11.725-145.47 11.725l7.318 13.225c5.202 9.522 12.784 97.423 7.935 155.17-0.618 8.023-1.5 15.429-2.646 21.953-0.176 0.793-0.264 1.499-0.44 2.205-2.205 11.108-5.202 19.396-9.258 23.451-13.048 13.049-31.668 22.571-46.656 28.213-0.088 0.089 0.6 0.089 0.6 0.089v0.088c-11 4.143-21.302 6.912-22.36 6.912h-0.089c-0.088 0-0.088 0.159-0.088 0.247-0.087 0.176-0.087 0.343-0.087 0.52-0.177 0.264-0.177 0.613-0.265 0.965-0.089 0.353-0.177 0.704-0.177 1.056l-0.705 3.437-3.114 2.468-3.115 2.116v0.088s2.762-0.088 2.939 0l15.443 3.792 1.109 0.087 65.048 17.546 183.82 39.674 64.444-10.407 8.459-1.589h0.176l20.013-2.995 2.116-0.263 15.43-2.336 23.099-1.805 9.081 0.399h0.088l10.58-3.551 12.784-2.965 5.158-28.682 3.217-11.225v-0.088l-0.572-12.431 20.696-178.8z" style="fill:#cc0052"/></g><g clip-path="url(#clipPath52879)" style="opacity:.10001"><g transform="translate(593.99 733.19)"><path d="m0 0 0.705-3.407c0-0.353 0.088-0.643 0.176-0.995 0.088-0.353 0.088-0.581 0.265-0.845 0-0.177 0-0.102 0.088-0.278 0-0.089 0 0.236 0.088 0.236h0.088c1.058 0 11.057-3.735 21.306-7.879v-0.088s-0.16 0-0.073-0.089c14.988-5.642 34.135-15.163 47.184-28.212 4.055-4.055 7.053-12.343 9.257-23.452 0.176-0.705 0.265-1.411 0.441-2.204 1.146-6.524 2.028-13.93 2.645-21.953 4.849-57.749-2.733-145.65-7.935-155.17l-7.318-13.225s3.945-1.612 11.297-3.775c0.212 0.343 0.419 0.669 0.633 1.019 16.761 27.317 27.164 63.954 36.403 98.217 11.044 40.956 21.356 82.098 40.645 120.14 10.763 21.227 24.405 40.315 40.829 57.544 17.663 18.531 39.029 31.75 60.949 44.609 2.827 1.659 5.67 3.319 8.526 4.973l-4.05 0.576-183.79-39.674-65.001-17.546-1.014-0.087-15.253-3.792c-0.176-0.088-2.558 0-2.558 0v-0.088l2.735-2.1z" style="fill:#fff"/></g></g><g clip-path="url(#clipPath52895)" style="opacity:.2"><g transform="translate(1050.5 542.19)"><path d="m0 0-21.076 178.8-0.186 12.431v0.088l-2.459 11.127-4.399 28.583-12.784 2.769-10.58 3.158h-0.088l-9.081 0.148-23.099 2.352-6.866 1.176c29.499-77.285 18.057-173.74-36.534-234.53-60.072-66.889-146.43-74.117-230.57-81.486 25.404-5.144 64.754-9.452 113.6-2.906 59.159 7.846 122.73 16.398 165.66 21.159 11.902 1.323 22.217 2.381 30.416 2.998 6.349 0.529 11.462 0.793 15.077 0.793 12.432 0 22.041 0.353 28.565 0.705 6.613 0.441 10.051 0.794 10.051 0.794z"/></g></g><g transform="translate(723.33 676.2)"><path d="m0 0s9.551-114.62 8.817-141.06c-0.659-23.73 31.959-29.755 84.859-23.143 52.899 6.612 83.39 5.51 87.798 18.735s-9.551 157.6-9.551 157.6-40.777 19.837-171.92-12.123" style="fill:#eb2675"/></g><g clip-path="url(#clipPath52915)" style="opacity:.2"><g transform="translate(740.28 577.42)"><path d="m0 0c5.622 18.806 3.574 38.786 9.005 57.698 12.285 42.784 61.504 47.647 98.843 52.824 9.022 1.251 18.875 3.65 28.649 4.784-23.001 3.168-69.838 3.848-153.45-16.526 0 0 7.182-86.187 8.611-126.33 2.502 9.154 5.565 18.273 8.338 27.549" style="fill:#fff"/></g></g><g clip-path="url(#clipPath52931)" style="opacity:.10001"><g transform="translate(902.06 609.52)"><path d="m0 0c-1.372-9.396-3.366-18.576-6.087-27.38-8.84-28.604-27.785-49.882-56.44-58.952-19.244-6.091-39.501-9.428-59.924-11.043-3.296-0.803-6.602-1.563-9.918-2.241 12.95-0.974 28.898-0.209 47.311 2.093 52.9 6.612 83.39 5.51 87.799 18.735 2.107 6.322 0.015 42.621-2.741 78.788"/></g></g><g transform="translate(1031.9 726.63)"><path d="m0 0c-2.028-3.439-1.719-5.643-1.719-5.643s0.573 5.378 0.573 12.431v0.088c-12 11.021-9.742 26.186-24.025 31.564-5.202 1.939-12.718 4.496-20.389 7.141-0.44 0.089-1.377 0.265-1.818 0.441-5.819 1.94-12.414 3.967-19.379 5.907-4.762 1.322-9.911 2.557-15.201 3.703-6.348 1.322-13.022 2.469-19.811 3.262-2.998 0.353-6.114 0.706-9.2 0.97-14.547 1.058-29.903 0.706-45.509-2.292-54.398-10.316-89.231-1.675-132.78-12.696-24.598-6.172-46.996-17.545-83.408-25.48-14.371-3.174-30.86-5.731-50.521-7.318-0.705-0.088-1.411-0.088-2.205-0.176-4.32-0.353-8.817-0.617-13.402-0.793 0 0 0.088 0 0.265 0.088 1.058 0.617 5.907 3.261 13.048 7.141 23.893 12.872 52.692 34.64 98.046 43.143 235.74 44.201 290.15 12.666 301.96 4.995 1.499-0.969 2.821-1.939 4.144-2.997 16.222-13.225 25.039-25.039 27.948-38.264 1.852-8.552-2.997-18.956-6.612-25.215" style="fill:#8a0037"/></g><g clip-path="url(#clipPath52951)" style="opacity:.2"><g transform="translate(1028.9 771.75)"><path d="m0 0c-11.325 10.484-24.627 18.355-40.455 22.86-23.089 6.573-48.027 5.848-71.726 3.918-29.266-2.384-58.181-7.104-87.349-10.202-15.988-1.698-32.161-2.174-48.367-2.212-23.898-5.418-47.629-11.597-71.21-18.26-24.21-6.84-48.478-14.847-71.313-25.683 7.382 1.142 14.274 2.432 20.711 3.853 36.412 7.935 58.809 19.308 83.407 25.48 43.554 11.021 78.384 2.381 132.78 12.696 15.605 2.998 30.956 3.35 45.503 2.292 3.086-0.264 6.191-0.617 9.188-0.97 6.789-0.793 13.44-1.939 19.788-3.262 5.289-1.146 10.391-2.38 15.153-3.703 6.965-1.939 13.465-3.967 19.285-5.907 0.44-0.176 1.187-0.353 1.628-0.44 7.671-2.645 14.807-5.202 20.009-7.142 14.283-5.378 13.017-20.542 23.266-31.563v-0.089c0-7.053 0.186-12.431 0.186-12.431s0.45 2.205 2.478 5.643c3.615 6.259 8.464 16.663 6.612 25.215-1.515 6.885-4.648 13.388-9.576 19.907"/></g></g><g transform="translate(910.68 259.62)"><path d="m0 0s-31.96 8.816-18.735 50.695 41.879 67.226 56.205 68.328c14.327 1.102 29.756-4.408 41.879 0s29.756 12.123 22.041-2.204c-7.714-14.327-28.653-83.757-31.96-87.063-3.306-3.307-12.122-7.715-40.776-18.735z" style="fill:#edebe8"/></g><g transform="translate(967.99 296.36)"><path d="m0 0s49.96 13.225 95.513 16.164c45.551 2.938 64.654 5.877 86.696-7.348 22.041-13.224 29.388-22.041 38.204-33.796 8.817-11.755 19.103-58.777 17.633-77.879-1.469-19.103-7.347-33.797-11.755-36.736s-132.62-41.511-252.74-32.328c-31.56 2.413-70.532 148.41-70.532 148.41z" style="fill:#d1cfcc"/></g><g transform="translate(1124.5 314.72)"><path d="m0 0s-26.449 2.204-28.653-52.899c-2.205-55.103 8.816-127.84 8.816-127.84s69.981 10.47 89.635 22.776c11.139 6.975 23.878 32.327 18.368 58.777-5.511 26.449-24.246 95.88-88.166 99.186" style="fill:#edebe8"/></g><g transform="translate(967.99 145)"><path d="m0 0s131.15 8.266 148.78 20.388c17.633 12.123 48.491 2.756 42.981-3.857-5.511-6.612-55.104-27.551-55.104-27.551s-88.165-17.633-143.27-13.225c-55.104 4.408 6.612 24.245 6.612 24.245" style="fill:#edebe8"/></g><g transform="translate(1024.1 307)"><path d="m0 0s-26.012 24.555-46.217-13.171c-20.205-37.727-12.662-75.699-12.662-75.699s6.206-5.964 8.762 0.973c2.557 6.937-1.336 41.988 10.957 61.095 12.294 19.106 26.99 26.559 39.16 26.802" style="fill:#edebe8"/></g><g transform="translate(1053.1 312.89)"><path d="m0 0s-20.222 10.691-35.518-11.336c-15.295-22.028-26.108-39.491-26.149-55.759-0.042-16.268-2.639-29.492 0.484-30.994 3.124-1.501 11.319 1.257 11.685 7.951 0.365 6.693 2.435 27.991 6.574 40.648s16.554 33.995 26.453 41.377c9.899 7.383 9.25 6.572 16.471 8.113" style="fill:#edebe8"/></g><g clip-path="url(#clipPath52991)" style="opacity:.10001"><g transform="translate(990.03 378.64)"><path d="m0 0c-7.733-2.812-16.811-1.59-26.09-0.621-25.816-32.059-54.416-66.519-55.039-109.1 4.101-1.578 8.136-3.358 12.077-5.338 4.187 1.61 10.067 3.872 18.357 7.06 28.654 11.021 37.47 15.429 40.776 18.736 3.307 3.306 24.246 72.736 31.96 87.063 7.715 14.327-9.918 6.612-22.041 2.204"/></g><g transform="translate(1192 274.36)"><path d="m0 0c-3.504 4.673-7.864 10.173-12.322 14.864 25.134-68.673-1.976-106.04-32.519-126.33-38.477-25.551-117.52-35.543-161.39-39.923-8.531-4.381-14.452-5.868-18.591-6.207 109.89 0.929 224.13 37.978 227.15 39.988 4.409 2.939 15.422 21.631 16.892 40.734 1.469 19.103-10.402 65.115-19.218 76.87"/></g><g transform="translate(942.91 249.72)"><path d="m0 0c12.244 11.145 25.157 21.706 38.213 31.843 11.461 8.899 23.28 17.451 35.577 25.151-27.438-4.73-48.714-10.36-48.714-10.36l-57.965-14.051c-0.668-4.374-1.056-8.833-1.124-13.385 12.232-4.707 23.936-11.245 34.013-19.198"/></g><g transform="translate(981.13 281.56)"><path d="m0 0c3.765 2.923 7.57 5.808 11.417 8.639 7.211 8.1 14.856 12.928 22.107 15.199 2.126 1.354 4.266 2.681 6.421 3.982-7.454 5.11-27.121 14.366-43.148-15.559-3.948-7.372-6.825-14.75-8.918-21.856 4.021 3.237 8.06 6.443 12.121 9.595"/></g></g><g transform="translate(645.08 204.52)"><path d="m0 0s-17.633 84.859 17.633 116.82 109.1 12.123 109.1 12.123 2.204 5.51 3.306-4.408c1.102-9.919-28.654-46.287-31.96-54.001-3.306-7.715-38.573-11.021-98.084-70.533" style="fill:#faf8f5"/></g><g transform="translate(643.25 247.13)"><path d="m0 0s77.329 43.899 204.25 33.062c35.412-3.024 73.471-16.164 94.043-36.735 20.572-20.572 30.858-79.349 27.919-111.68-2.939-32.328-29.389-44.083-44.083-48.492-14.694-4.408-261.56 14.695-301.23 19.103-39.675 4.408-66.124 0-72.002 16.164-5.878 16.163-5.878 116.08 1.469 127.84 7.347 11.756 89.635 0.735 89.635 0.735" style="fill:#dedcd9"/></g><g transform="translate(812.6 88.799)"><path d="m0 0s2.204 186.25 119.02 163.11c0 0 59.512-23.143 31.96-147.68 0 0-4.408-41.878-150.98-15.429" style="fill:#faf8f5"/></g><g transform="translate(549.2 147.21)"><path d="m0 0s106.9-22.041 136.66-24.246c29.756-2.204 154.29-4.408 187.35-11.02 33.062-6.613 7.714-31.96 7.714-31.96s-316.29 23.143-324.01 26.449c-7.715 3.307-9.919 25.348-7.715 40.777" style="fill:#faf8f5"/></g><g transform="translate(794.14 281.66)"><path d="m0 0s-23.143 27.276-47.389-7.99c-24.245-35.266-20.939-73.838-20.939-73.838s5.51-6.613 8.817 0c3.306 6.612 3.306 41.878 17.633 59.511 14.326 17.633 29.755 23.419 41.878 22.317" style="fill:#faf8f5"/></g><g transform="translate(819.94 281.29)"><path d="m0 0s-18.919 12.858-36.552-7.347-30.307-36.368-32.143-52.532c-1.837-16.163-5.878-29.021-2.939-30.858s11.388 0 12.49 6.613c1.102 6.612 5.51 27.551 11.02 39.674 5.511 12.123 20.205 31.96 30.858 38.205 10.654 6.245 9.919 5.51 17.266 6.245" style="fill:#faf8f5"/></g><g clip-path="url(#clipPath53043)" style="opacity:.10001"><g transform="translate(771.82 333.46)"><path d="m 0,0 c 0,0 -22.773,6.106 -49.061,6.075 -25.21,-17.255 -38.932,-45.394 -47.359,-75.243 21.855,5.582 44.057,9.92 66.431,12.307 0.305,0.823 0.673,1.627 1.162,2.376 2.454,3.76 5.451,6.82 8.803,9.352 9.811,13.959 24.1,33.794 23.33,40.725 C 2.204,5.51 0,0 0,0"/></g><g transform="translate(742.01 277.03)"><path d="m0 0c-3.306-0.503-6.526-1.037-9.681-1.596 3.164 0.414 6.328 0.825 9.499 1.163 0.054 0.147 0.123 0.288 0.182 0.433"/></g><g transform="translate(941.54 243.46)"><path d="m0 0c-7.283 7.283-16.784 13.612-27.557 18.913-3.646-6.717-6.453-13.846-9.265-20.966-1.03-2.913-2.216-5.771-3.471-8.547-2.058-4.856-4.305-9.615-7.03-14.134-5.398-10.093-11.649-20.028-19.31-28.423-24.417-26.756-59.597-39.827-94.287-47.916-0.695-0.273-1.397-0.559-2.088-0.825-26.092-10.025-52.593-15.018-80.33-17.245-21.405-1.718-43.08-2.727-64.615-1.873-5.943-1.008-12.012-1.68-18.208-2.012-15.971-0.855-32.135-0.082-48.092 0.924-5.326 0.335-10.896 0.896-16.327 2.026 0.365-1.99 0.756-3.65 1.183-4.823 5.878-16.163 32.327-11.755 72.002-16.163 39.674-4.409 286.54-23.511 301.23-19.103 14.695 4.408 41.144 16.164 44.083 48.491s-7.347 91.104-27.919 111.68"/></g><g transform="translate(931.62 251.91)"><path d="m0 0c-7.765 1.538-15.009 2.126-21.794 1.931-1.806-4.095-3.462-8.263-5.109-12.433-1.03-2.913-2.216-5.771-3.471-8.547-2.059-4.856-4.306-9.615-7.03-14.134-5.399-10.094-11.649-20.029-19.31-28.423-14.755-16.169-33.451-27.318-53.583-35.412-8.356-35.114-8.726-66.088-8.726-66.088 146.58-26.45 150.98 15.429 150.98 15.429 27.552 124.53-31.96 147.68-31.96 147.68"/></g><g transform="translate(873.21 111.94)"><path d="m0 0c-33.062 6.612-157.6 8.816-187.35 11.021-0.925 0.068-1.925 0.156-2.994 0.262-16.387-1.002-32.873-1.436-49.279-0.786-5.943-1.007-12.012-1.68-18.208-2.011-15.971-0.855-32.135-0.083-48.092 0.923-5.926 0.373-12.15 1.034-18.15 2.439 1.152-8.536 3.681-15.601 7.781-17.358 7.715-3.306 324.01-26.45 324.01-26.45s25.348 25.348-7.714 31.96"/></g></g><g clip-path="url(#clipPath53075)" style="opacity:.2"><g transform="translate(747.7 1023.2)"><path d="m0 0c-4.48 0.186-8.893 0.391-13.123 0.621-6.195 0.338-9.182 0.641-15.567 0.657 0.188-0.619 0.416-1.268 0.706-2.022 2.557-5.995 5.202-8.848 7.582-10.171 3.351-2.027 6.084-0.592 6.701-0.239-0.353-0.617-2.646-4.446-4.056-9.031-0.177-0.441-0.353-0.517-0.441-1.045-1.732-2.731 0.991-5.573 0.991-5.573 0.597-1.393 9.039-2.646 21.735-4.168-4.537 9.908-6.758 21.63-4.528 30.971"/></g></g><g transform="translate(742.81 1005)"><path d="m0 0s-2.821-1.763-7.759-4.761c-1.499-0.881-3.262-1.94-5.202-3.086-1.586-0.882-3.262-1.94-5.113-2.997-4.408-2.469-9.433-5.202-14.988-8.112-15.517-8.199-35.09-17.545-55.104-24.51 0-0.087-0.088-0.087-0.088-0.087-5.377-1.941-10.756-3.616-16.134-5.114-20.278-5.643-40.027-8.111-55.897-3.88-7.053 1.852-13.93 5.026-20.542 9.081-15.429 9.346-29.183 23.629-40.644 38.353-0.442 0.529-0.794 1.057-1.146 1.498-21.337 27.773-34.209 56.602-34.209 56.602 1.94 8.905 3.968 3.351 6.789 2.646 1.499-0.354 8.287-4.497 16.751-8.288 7.847-3.439 17.104-6.524 25.04-5.819 4.584 0.441 9.521 1.587 14.9 2.997 0.087 0 0.175 0 0.352 0.089 14.018 3.526 31.034 8.023 52.017 1.675 11.286-3.439 28.125-6.083 45.758-8.2 27.949-3.526 57.925-5.995 70.709-9.521 1.058-0.265 2.028-0.618 2.998-0.97 3.879-1.411 7.053-3.527 9.697-5.907 9.875-8.817 11.815-21.689 11.815-21.689" style="fill:#8a0037"/></g><g clip-path="url(#clipPath53095)" style="opacity:.2"><g transform="translate(731 1026.7)"><path d="m0 0c-2.645 2.381-5.819 4.497-9.698 5.907-0.97 0.353-1.94 0.705-2.998 0.97-12.784 3.526-42.76 5.995-70.709 9.522-0.935 0.112-1.855 0.232-2.785 0.347-2.189-0.029-4.377-0.048-6.566-0.102-25.93-0.649-50.604-6.93-76.249-9.658-20.323-2.162-42.615-1.11-62.9 5.032-1.217 0.22-2.431 0.462-3.635 0.731 5.871-10.599 14.285-24.448 24.737-38.052 0.352-0.441 0.705-0.97 1.146-1.499 11.461-14.724 25.215-29.006 40.644-38.352 6.612-4.056 13.489-7.229 20.543-9.081 15.869-4.232 35.618-1.764 55.896 3.879 5.378 1.499 10.757 3.174 16.134 5.114 0 0 0.089 0 0.089 0.088 20.013 6.965 39.586 16.311 55.103 24.51 5.555 2.909 10.58 5.643 14.988 8.111 1.852 1.058 3.527 2.116 5.113 2.998 1.941 1.146 3.704 2.204 5.203 3.086 4.937 2.997 7.758 4.76 7.758 4.76s-1.94 12.872-11.814 21.689"/></g></g><g transform="translate(731.44 1000.2)"><path d="m0 0-1.146-0.793-1.234-0.97-4.144-1.979-7.582-4.535h-0.088l-137.19-99.499s-3.967 0.68-10.668 3.325c-2.116 0.793-4.408 1.53-7.053 2.677-10.492 4.496-24.863 11.521-40.468 21.748-25.391 16.488-54.045 42.624-75.557 78.508 0 0 31.739 5.241 68.416 5.241h0.088c1.675 0 3.35-0.979 5.025-0.804 3.351 0.442 6.789 0.216 10.228 0.657 42.671 5.907 51.488 15.89 99.979 18.799 35.178 2.116 72.737-10.659 90.634-17.624 3.791-1.498 6.613-2.816 8.464-3.61 0.176-0.088 0.264-0.217 0.353-0.217 1.234-0.529 1.939-0.924 1.939-0.924" style="fill:#af0046"/></g><g clip-path="url(#clipPath53115)" style="opacity:.2"><g transform="translate(633.32 1002.2)"><path d="m0 0c24.21 5.806 50.057 10.691 74.995 7.125-19.905 6.781-49.852 14.706-78.26 12.997-48.49-2.909-57.307-13.124-99.979-19.031-3.438-0.441-6.877-0.681-10.227-1.122-1.676-0.176-3.351-0.128-5.026-0.128h-0.088c-27.77 0-52.696-2.472-63.171-3.673 51.577-35.932 126-9.541 181.76 3.832" style="fill:#fff"/></g></g><g clip-path="url(#clipPath53131)" style="opacity:.2"><g transform="translate(668.28 989.59)"><path d="m0 0c-25.761-7.368-68.817-45.32-95.127-50.722-45.202-9.281-77.679 19.928-117.6 44.418 19.919-27.856 43.867-48.225 65.47-62.252 15.605-10.227 29.976-17.259 40.467-21.756 2.645-1.146 4.938-1.897 7.053-2.69 6.701-2.646 10.669-3.354 10.669-3.354l137.18 99.443h0.088l7.582 4.592 0.715 0.351c-18.873 1.599-38.595-2.908-56.502-8.03"/></g></g><g transform="translate(886.08 1011.1)"><path d="m0 0c-0.617 11.373-18.956 3.438-19.22 3.438 0.176 0.089 1.146 0.618 3.086 1.588 6.965 3.615 4.408 9.611 0.793 14.019-0.02 0.026-0.041 0.049-0.061 0.075-14.394-4.19-21.227-3.763-37.455-5.044-17.158-1.354-34.662-3.436-51.888-2.989-14.933 0.387-31.916 0.898-46.762 1.708-6.195 0.338-9.182 0.64-15.567 0.656 0.188-0.618 0.415-1.267 0.706-2.022 2.557-5.995 5.202-8.847 7.582-10.17 3.351-2.028 6.084-0.592 6.701-0.24-0.353-0.617-2.646-4.446-4.056-9.03-0.177-0.441-0.353-0.517-0.441-1.046-1.732-2.731 0.991-5.573 0.991-5.573 1.321-3.083 40.998-5.472 80.408-11.644 20.718-3.262 36.478-4.937 49.263-4.761 6.612 0.089 11.901 0.706 15.957 1.94 3.351 0.882 5.731 2.204 7.142 3.967 1.058 1.323 1.851 2.469 2.38 3.615 0.088 0.088 0.088 0.176 0.176 0.264 0.794 1.588 1.235 3.087 1.411 4.585 0.441 3.968-0.705 8.376-1.146 16.664" style="fill:#af0046"/></g><g clip-path="url(#clipPath53151)" style="opacity:.2"><g transform="translate(886.08 1011.1)"><path d="m0 0c-0.617 11.373-18.956 3.438-19.22 3.438 0.176 0.089 1.146 0.618 3.086 1.588 6.965 3.615 4.408 9.611 0.793 14.019-0.02 0.026-0.041 0.049-0.061 0.075-12.492-3.636-19.297-3.796-31.483-4.612 3.59-3.232 6.207-7.195 6.494-11.662 9.873-2.977 17.325-9.008 16.415-21.086-0.425-5.641-2.531-9.763-5.636-12.78 1.248-0.015 2.497-0.031 3.692-0.015 6.612 0.089 11.901 0.706 15.957 1.94 3.351 0.882 5.731 2.204 7.142 3.967 1.058 1.323 1.851 2.469 2.38 3.615 0.088 0.088 0.088 0.176 0.176 0.264 0.794 1.588 1.235 3.087 1.411 4.585 0.441 3.968-0.705 8.376-1.146 16.664"/></g></g><g transform="translate(676.16 644.02)"><path d="m0 0c-1.499-0.265-3.086-0.177-4.321-0.177-4.231 0-20.277 6.084-21.247 6.436 0.353-1.058 4.232-11.108 3.086-18.25-0.265-2.116-1.058-3.967-2.557-5.29-6.612-5.906-67.711-47.256-67.711-47.256-3.262 4.584-5.466 9.609-6.789 14.723-6.788 26.538 7.847 57.573 7.847 57.573l-26.626 50.342-44.171 83.492-0.176 0.441-18.691 35.266c5.554 12.343 41.702 12.431 64.978 3.88 10.667-3.88 18.602-9.611 19.572-16.752 0.353-2.645 0.97-6.348 1.764-11.021 2.556-14.371 7.229-37.117 11.726-59.158 0.176-0.882 0.352-1.764 0.529-2.646 0.529-2.38 1.058-4.672 1.498-6.964 0.088-0.529 0.177-1.058 0.353-1.499 2.292-11.374 4.585-20.251 6.524-29.067 2.822-13.225 4.761-20.162 4.761-20.162h33.062c14.283 0 27.19-6.228 36.19-11.958v-0.088c0-2.557 4.696-5.819 6.018-9.875 3.175-9.522-1.652-11.637-5.619-11.99" style="fill:#ffd6ab"/></g><g clip-path="url(#clipPath53171)" style="opacity:.10001"><g transform="translate(681.72 656.01)"><path d="m0 0c-1.322 4.056-6.079 7.318-6.079 9.875v0.088c-7.687 5.73-21.786 8.115-36.069 8.115h-33.062s-1.939 8.859-4.76 22.084c-1.94 8.816-4.233 19.614-6.525 30.988-0.176 0.441-0.265 0.969-0.353 1.498-0.441 2.293-0.969 4.585-1.498 6.965-0.177 0.882-0.353 1.764-0.529 2.645-4.497 22.042-9.17 44.788-11.726 59.159-0.794 4.673-1.411 8.376-1.764 11.021-0.97 7.141-8.905 12.872-19.572 16.752-14.169 5.206-33.097 7.201-47.002 5.188 7.601-3.093 14.675-7.526 19.316-11.46 25.74-21.814 38.94-53.85 51.247-84.448 6.373-15.847 12.101-32.056 16.419-48.594 1.301-4.982 4.354-12.406 4.598-17.958 0.061 4e-3 0.12 0.012 0.181 0.015 0.538 4.889 0.546 2.752 0.478 6e-3 7.227 0.236 16.929-3.29 22.566-7.683 11.298-5.291 18.145-16.881 9.833-30.806-8.694-14.566-29.109-22.781-44.88-26.726-7.061-1.767-12.742-1.648-17.367-0.161 0.283-2.811 0.746-5.613 1.45-8.367 1.323-5.114 3.527-10.139 6.789-14.723 0 0 61.098 41.349 67.711 47.256 1.499 1.323 2.292 3.174 2.556 5.29 1.147 7.141-2.733 17.192-3.085 18.25 0.97-0.352 17.016-6.436 21.248-6.436 1.234 0 2.821-0.088 4.32 0.177 3.967 0.352 8.733 2.468 5.559 11.99" style="fill:#a1421d"/></g></g><g clip-path="url(#clipPath53187)" style="opacity:.2"><g transform="translate(606.05 660.16)"><path d="m0 0c-15.338-2.33-28.974-22.455-26.477-37.539 0.742-4.487 2.71-7.073 5.351-8.311 2.379-6.136 9.724-6.684 15.527-4.189 7.86 3.38 14.567 9.835 18.478 17.428 6.132 11.904 6.274 35.52-12.879 32.611" style="fill:#fff"/></g></g><g clip-path="url(#clipPath53203)" style="opacity:.2"><g transform="translate(593.65 670.25)"><path d="m0 0c-5.779 25.353-13.248 51.563-24.022 75.269-4.279 9.415-30.73 61.261-42.799 63.849-4.05 0.869-8.451-1.73-8.702-6.085-0.934-1.178-1.508-2.625-1.366-4.039 1.166-11.546 5.217-22.881 11.229-32.586 7.685-12.405 14.909-27.314 21.46-40.357 11.196-22.291 20.633-40.898 37.142-60.04 4.458-5.168 8.391-1.857 7.058 3.989" style="fill:#fff"/></g></g><g transform="translate(595.93 823.71)"><path d="m0 0c17.586 16.417 38.703 34.804 59.213 50.246 41.57-5.106 63.179 49.1 71.745 69.183 8.053 18.881 36.727 52.955-4.225 58.589-5.287-0.609-12.679-1.844-14.057-2.172-7.318-1.235-35.355-19.621-68.064-42.192 0 0 0 0.353-0.089 0.353-0.705-0.441-1.322-0.97-2.028-1.411-25.303-17.633-53.075-37.47-76.086-56.338-0.441-0.352-0.793-0.706-1.235-1.058-0.087 0-0.087-0.089-0.087-0.089-0.177-0.089-0.265-0.267-0.442-0.355-2.997-2.733-5.907-5.735-8.728-8.644-0.176-0.089-0.352-0.273-0.617-0.537-1.058-1.147-2.028-2.133-3.086-3.191-2.821-2.822-5.378-5.323-7.935-6.998-0.264-0.176-0.529-0.418-0.705-0.506-1.94-1.235-3.791-2.072-5.554-2.072h-0.088c-5.203-7.687-9.523-11.241-12.873-15.297-0.44-0.529-0.881-1.015-1.322-1.632-2.028-2.821-3.615-6.259-4.673-8.199-19.749-35.266 34.208-9.874 34.208-9.874l17.368-12.255 20.102-14.194s3.527 3.353 9.258 8.643" style="fill:#faf8f5"/></g><g clip-path="url(#clipPath53223)" style="opacity:.10001"><g transform="translate(722.66 1001.7)"><path d="m0 0c-2.114-0.243-4.554-0.587-6.822-0.933 14.939-19.486 4.613-46.341-8.338-66.234-7.151-10.982-15.814-21.788-25.627-30.522-5.949-5.294-13.73-11.365-21.273-14.156-5.886-2.178-10.462 9.579-16.138 9.696 1.282-23.488-9.295-3.694-11.103-5.551-0.409-0.421 1.139-14.671 2.13-13.674-6.458-5.918-11.584-12.628-19.033-17.647-14.801-9.972-34.72-13.939-51.42-8.858-67.481 20.534-39.556-11.538-47.409-2.1-3.789-4.819 5.992 12.66 3.359 9.472-0.441-0.529-0.882-1.015-1.322-1.632-2.029-2.821-3.615-6.259-4.673-8.199-19.75-35.266 34.208-9.874 34.208-9.874l17.368-12.255 20.102-14.194s3.527 3.353 9.258 8.643c17.585 16.417 38.702 34.804 59.212 50.246 41.57-5.106 63.18 49.1 71.745 69.183 8.054 18.881 36.727 52.955-4.224 58.589"/></g></g><g transform="translate(584.03 798.93)"><path d="m0 0h-2.909s-9.081 14.854-24.687 23.406c-0.088 0.088-0.176-0.288-0.265-0.2-11.196 6.26-19.26 5.669-36.188-4.646-14.547-8.817-9.393-24.818-9.393-24.818l2.91-6.572 0.175-0.464 2.47-5.566s-13.225-6.883-26.45 9.604c-13.225 16.575-13.666 33.147-7.318 48.136 6.083 14.459 21.953 20.893 37.295 21.775 8.903 0.441 23.129 0.532 29.565-2.289 9.522-4.144 17.603-7.587 28.623-12.788 8.552-4.056 15.606-10.14 18.074-20.808 0.353-1.058 0.529-2.116 0.706-3.174 0.088-0.705 0.176-0.438 0.352-1.144 1.764-10.492 4.408-20.452-12.96-20.452" style="fill:#f2f1ed"/></g><g clip-path="url(#clipPath53243)" style="opacity:.2"><g transform="translate(596.64 820.53)"><path d="m0 0c-0.176 1.058-0.353 2.116-0.705 3.174-0.038 0.161-0.098 0.299-0.137 0.457-5.989 5.981-13.32 10.6-22.356 13.513-16.455 5.303-36.342 5.772-53.04 1.223-16.669-4.54-25.381-15.898-23.545-33.153 0.607-5.703 2.356-18.529 6.96-26.339 7.133-2.042 12.328 0.655 12.328 0.655l-2.469 5.551-0.176 0.436-2.91 6.513s-4.513 15.779 10.034 24.596c16.928 10.315 24.351 10.782 35.548 4.522 0.088-0.089 0.176-0.175 0.265-0.263 15.605-8.552 24.686-24.331 24.686-24.331h2.909c17.369 0 14.724 10.885 12.96 21.377-0.176 0.706-0.264 1.364-0.352 2.069"/></g></g><g transform="translate(1124.4 1263.7)"><path d="m0 0c-0.705-0.265-1.41-0.441-2.116-0.529-11.373-1.851-51.4 37.823-62.509 49.197-1.851 1.939-2.909 2.997-2.909 2.997l4.408 20.543s1.146 0.44 3.174 1.058c0.176 0-0.462 11.216-0.285 11.304 1.41 0.352 22.314 11.21 53.007-11.569 18.302-13.582 20.543-26.449 22.042-38.264 1.323-11.108-3.174-30.681-14.812-34.737" style="fill:#d4b28d"/></g><g transform="translate(471.51 1248.1)"><path d="m0 0c-10.177 0.205-50.23 1.973-57.109 0.958-14.988-2.115-23.452-6.7-30.505-11.814-12.078-8.817-28.449-23.092-29.357-43.025-4.313-94.735 85.534-105.8 110.93-103.59 21.661 1.88 64.643 21.372 76.082 37.899-12.74 49.14-48.795 73.416-70.037 119.58" style="fill:#ffd6ab"/></g><g clip-path="url(#clipPath53267)" style="opacity:.10001"><g transform="translate(450.56 1138.6)"><path d="m0 0c-15.17-3.135-5.197 14.568-11.934 28.057-6.418 12.852-28.538 20.087-15.183 26.815 1.279 0.645 2.605 1.168 3.951 1.614 4.777 3.641 10.933 5.336 17.953 4.149 2.769 0.224 5.551 0.202 8.254-0.11 7.075-0.818 10.72-6.123 11.22-11.668 3.729-4.65 6.283-10.247 7.114-16.142 2.095-14.853-6.191-29.577-21.375-32.715m-63.607 41.082c-0.054-2.785 1.942-13.169 0.687-14.914 0.288-0.754 0.574-1.507 0.895-2.259 6.355-14.933-16.976-29.435-23.362-14.43-10.922 25.661-9.545 59.782 14.093 77.725 4.365 3.314 8.804 6.338 13.665 8.541 22.17 11.774 58.485 17.771 73.172-1.102 5.79-7.439 9.246-25.652-0.572-27.511-2.609-0.494-8.114 0.855-14.52 3.417-8.636-1.835-17.441-0.268-26.214-0.956-4.779-0.695-9.517-1.564-14.15-2.852-16.913-4.705-23.374-9.17-23.694-25.659m112.51-4.463c-14.114 23.046-21.04 48.653-32.444 72.915-14.285 0.445-46.514 1.736-52.62 0.835-14.989-2.115-23.452-6.7-30.505-11.814-12.078-8.817-28.449-23.092-29.357-43.025-4.313-94.735 85.534-105.8 110.93-103.59 19.889 1.726 57.735 18.3 72.652 33.794-14.071 16.073-27.368 32.464-38.652 50.889" style="fill:#a1421d"/></g></g><g transform="translate(470.96 1205.2)"><path d="m0 0s-87.841 18.532-84.859-24.401c2.755-39.675 27.551-57.152 54.001-61.561 26.45-4.408 45.185 6.613 59.511 28.654 0 0-36.919-19.286-53.45-13.775-16.531 5.51-53.337 11.972-39.563 49.244 9.367 25.347 64.36 21.839 64.36 21.839" style="fill:#edb798"/></g><g transform="translate(1124.4 1263.8)"><path d="m0 0c-2.998 8.993-8.19 18.955-15.684 30.681-9.434 14.636-19.643 22.13-27.49 25.833-6.612 3.262-12.482 3.79-14.51 3.879l-1.602 2.733v0.088l0.08 10.668-7.767 107.65v0.177l-11.526 145.38-7.912 24.51-18.163 53.781s-78.202 21.953-141.95 39.586c-42.231 11.815-78.115 21.689-80.76 22.13-0.441 0.088-1.676 0.088-3.528 0-27.154-0.882-193.7-14.371-193.7-14.371l-24.69-29.359-109.77-130.48 14.358-56.25 3.5-13.753 8.499-33.503-0.636-6.789v-0.088l-5.977-81.288-22.199-22.394-1.94-1.94-1.737-72.088c9.757-25.459 26.831-48.579 41.296-71.092 14.978-23.312 30.24-47.941 37.533-74.897 10.581-14.161 29.25-34.291 61.769-54.457 50.12-31.082 103.33-43.04 118.76-43.04h0.088c4.232 0 144.8-19.645 270.23 38.999 42.452 19.849 56.161 30.858 88.165 64.978 25.48 27.332 39.234 57.219 45.846 79.349l0.089 0.088c1.586 5.29 2.733 10.051 3.614 14.283 2.733 13.665 2.743 26.097-2.283 40.997" style="fill:#ffd6ab"/></g><g clip-path="url(#clipPath53291)" style="opacity:.10001"><g transform="translate(1124.4 1263.8)"><path d="m0 0c-2.998 8.993-8.19 18.955-15.684 30.681-9.434 14.636-19.643 22.13-27.49 25.833-6.612 3.262-12.482 3.79-14.51 3.879l-1.602 2.733v0.088l0.08 10.668-7.767 107.65v0.177l-11.526 145.38-7.912 24.51-18.163 53.781s-78.202 21.953-141.95 39.586c-42.231 11.815-78.115 21.689-80.76 22.13-0.441 0.088-1.676 0.088-3.528 0-9.496-0.308-36.047-2.159-66.555-4.436 1.818-18.898 14.498-40.258 32.297-37.993 6.526 4.68 13.916 1.994 17.816-3.089 154.72-42.752 169.24-87.166 194.87-129.87 14.995-24.991 34.057-64.712 20.15-95.327-5.451-12-17.336-15.942-28.464-21.08-11.95-5.518-21.205-12.866-26.59-25.16-9.896-22.594-6.454-53.01 10.045-71.722 11.565-13.116 26.423-14.133 43.039-13.89 19.598 0.286 37.015-1.373 54.544-10.842 73.043-39.457 48.172-134.71 17.834-194.31-3.571-7.016-7.482-13.826-11.68-20.428 7.913 7.154 16.17 15.599 26.24 26.335 25.48 27.332 39.234 57.219 45.846 79.349l0.089 0.088c1.586 5.29 2.733 10.051 3.614 14.283 2.733 13.665 2.743 26.097-2.283 40.997" style="fill:#a1421d"/></g></g><g transform="translate(933.91 1438.9)"><path d="m0 0 27.678 13.589 40.858-2.265 21.088-19.817 15.815-27.745 3.955-48.128 0.658-19.817-43.494-1.133-48.106-0.566-18.351 0.432-9.395 53.382z" style="fill:#fffcfa"/></g><g clip-path="url(#clipPath53311)" style="opacity:.10001"><g transform="translate(1043.3 1354.5)"><path d="m0 0-3.954 48.128-9.451 16.579c3.784-12.924 4.774-26.677 2.333-39.597-3.576-18.925-16.112-35.058-32.494-46.068l0.731 8e-3 43.494 1.133z"/></g></g><g transform="translate(654.45 1330.8)"><path d="m0 0-2.204 63.369 31.082 43.042 51.247 8.114 47.831-8.541 37.581-39.29 10.794-35.836 2.102-38.407-142.62-25.513-27.001-3.857z" style="fill:#fffcfa"/></g><g clip-path="url(#clipPath53331)" style="opacity:.10001"><g transform="translate(786.16 1419.3)"><path d="m0 0c9.616-28.823 8.542-64.045-12.626-87.621-11.78-13.119-27.107-21.748-43.635-26.775l102.98 18.422-2.103 38.407-10.794 35.837-37.581 39.289-4.993 0.892c3.548-5.596 6.506-11.727 8.749-18.451"/></g></g><g clip-path="url(#clipPath53347)" style="opacity:.10001"><g transform="translate(887.31 1172.6)"><path d="m0 0c0.256-0.024 0.509-0.037 0.764-0.059 15.677-0.268 31.449 2.009 46.46 6.327 12.46 3.584 30.862 10.748 32.406 25.679 0.733 7.089 6.928 9.98 12.39 9.171 0.139 1.677 0.148 3.432-0.057 5.312l-19.546-10.565-58.409-19.838-115.84 26.015c30.773-20.494 64.772-38.524 101.83-42.042"/></g></g><g transform="translate(1000.5 1230.5)"><path d="m0 0c2.204 0 11.021 4.959 11.021-2.204s-2.562-33.197-33.613-57.307c-31.226-24.246-44.751-29.954-94.075-27.391-37.201 1.932-65.725 13.615-89.971 30.146-24.245 16.531-36.368 25.898-36.368 25.898l13.776 18.184 130.04-29.204 58.409 19.837z" style="fill:#edb798"/></g><g transform="translate(832.88 1323.3)"><path d="m0 0c-0.836-0.449-3.805-0.875-8.447-1.402 5.995 1.124 9.118 1.745 8.447 1.402" style="fill:#010030"/></g><g clip-path="url(#clipPath53371)" style="opacity:.10001"><g transform="translate(1000.5 1230.5)"><path d="m0 0-3.248-1.756c1.324-1.34 2.262-3.217 2.545-5.697 5.418-47.696-54.733-69.721-93.578-71.704-6.711-0.343-13.365-0.2-19.955 0.368-24.692 0.557-48.438 8.02-70.689 18.456-18.444 8.651-39.931 17.951-55.391 31.346-0.264 0.228-0.504 0.465-0.738 0.705l-1.952-2.576s12.123-9.368 36.368-25.899c24.246-16.531 52.77-28.213 89.971-30.146 49.324-2.562 62.849 3.146 94.074 27.391 31.052 24.111 33.614 50.144 33.614 57.308 0 7.163-8.817 2.204-11.021 2.204"/></g></g><g clip-path="url(#clipPath53387)" style="opacity:.2"><g transform="translate(933.91 1551.3)"><path d="m0 0-7.07 0.502s9.14-39.523 6.915-43.602c0 0 4.828 0.601 12.113 0.421-3.994 14.224-8.014 28.442-11.958 42.679" style="fill:#fff"/></g></g><g transform="translate(948.15 1376.3)"><path d="m0 0c0-4.108-3.33-7.439-7.439-7.439-4.108 0-7.439 3.331-7.439 7.439 0 4.109 3.331 7.439 7.439 7.439 4.109 0 7.439-3.33 7.439-7.439" style="fill:#fff"/></g><g transform="translate(984.52 1339.9)"><path d="m0 0c0-2.891-2.343-5.235-5.235-5.235-2.891 0-5.235 2.344-5.235 5.235s2.344 5.235 5.235 5.235c2.892 0 5.235-2.344 5.235-5.235" style="fill:#fff"/></g><g transform="translate(766.61 1209)"><path d="m0 0s-4.973 10.839 3.844 7.901c8.968-2.99 24.148-8.012 52.067-9.481 27.919-1.47 89.635 0 120.49 14.694 30.858 14.694 55.839 35.266 55.839 35.266s7.347-27.919 2.938-41.144c-4.408-13.225-29.667-40.886-48.77-48.234-19.102-7.347-52.804-10.169-78.151-7.046-24.053 2.963-70.054 20.125-108.26 48.044" style="fill:#fff"/></g><g clip-path="url(#clipPath53415)" style="opacity:.2"><g transform="translate(766.61 1209)"><path d="m0 0s-4.973 10.839 3.844 7.901c8.968-2.99 24.148-8.012 52.067-9.481 27.919-1.47 89.635 0 120.49 14.694 30.858 14.694 55.839 35.266 55.839 35.266s7.347-27.919 2.938-41.144c-4.408-13.225-29.667-40.886-48.77-48.234-19.102-7.347-52.804-10.169-78.151-7.046-24.053 2.963-70.054 20.125-108.26 48.044" style="fill:#fff"/></g></g><g clip-path="url(#clipPath53431)" style="opacity:.10001"><g transform="translate(862.49 1184.5)"><path d="m0 0c24.858-1.801 48.682 3.717 72.348 10.721 13.251 3.92 26.047 7.569 37.659 15.318 10.46 6.981 19.554 15.732 28.112 24.894 0.625 0.669 1.292 1.17 1.975 1.591-1.196 10.655-3.74 20.328-3.74 20.328s-24.98-20.572-55.838-35.267c-30.857-14.694-92.573-16.163-120.49-14.694-27.919 1.47-43.099 6.492-52.068 9.481-3.882 1.295-5.088-0.085-5.224-2.032 27.523-19.336 65.89-28.067 97.268-30.34"/></g></g><g transform="translate(765.11 1221.4)"><path d="m0 0s9.823-13.88 64.293-19.2c25.8-2.52 71.662 1.65 97.258 8.541 35.817 9.643 66.399 35.266 78.247 47.389 6.089 6.231 8.322 12.381 8.322 12.381s-8.862-8.523-30.535-19.858c-22.749-11.899-48.968-14.659-75.161-23.061-22.635-7.26-41.571-11.581-60.856-12.171-27-0.827-35.232-1.922-52.816 0.28-15.562 1.947-28.752 5.699-28.752 5.699" style="fill:#edb798"/></g><g clip-path="url(#clipPath53451)" style="opacity:.10001"><g transform="translate(990.14 1254.7)"><path d="m0 0c-7.514-11.055-19.826-18.293-31.926-23.927-17.83-8.304-36.848-15.417-55.911-20.237-23.342-5.903-47.15-7.17-71.112-5.553-11.234 0.759-23.245 1.42-34.199 4.158-3.335 0.834-6.466 2.119-9.521 3.573-4.037 0.451-8.059 1.003-12.051 1.721 9.008-4.272 25.3-9.445 53.982-12.247 25.8-2.52 71.662 1.65 97.257 8.541 35.818 9.643 66.4 35.267 78.247 47.389 6.09 6.231 8.323 12.382 8.323 12.382s-6.813-6.549-23.089-15.8"/></g></g><g transform="translate(794.77 1228.3)"><path d="m0 0c-5.627-3.517-34.33-7.457-29.447-27.259 4.959-20.113-2.136-18.364-2.136-18.364s-12.949 13.928-8.541 26.051c4.409 12.122 9.266 16.266 19.736 19.572 10.469 3.306 24.796 2.755 20.388 0" style="fill:#edb798"/></g><g clip-path="url(#clipPath53471)" style="opacity:.2"><g transform="translate(864.75 1155.6)"><path d="m0 0c-0.271-3.645-4.877-6.274-10.287-5.871s-9.575 3.685-9.303 7.33c0.271 3.646 4.877 6.275 10.287 5.872s9.574-3.685 9.303-7.331" style="fill:#fff"/></g></g><g clip-path="url(#clipPath53487)" style="opacity:.2"><g transform="translate(881.44 1151.1)"><path d="m0 0c-0.229-3.072-3.347-5.343-6.964-5.074-3.617 0.27-6.364 2.978-6.135 6.049 0.229 3.072 3.347 5.344 6.964 5.074 3.617-0.269 6.364-2.978 6.135-6.049" style="fill:#fff"/></g></g><g clip-path="url(#clipPath53503)" style="opacity:.2"><g transform="translate(949.81 1083.1)"><path d="m0 0c-13.517-2.028-29.389-7.969-36.305-20.065-2.53-4.424-6.96-7.344-12.051-7.591-4.905-0.238-10.231-0.984-16.556-1.277-291.02-13.464-183.78 147.78-158.87 175.09 10.888 11.933 54.158 31.729 73.794 40.908 15.547 7.268 69.27 37.457-31.302 35.535-34.898-0.666-68.542-15.374-111.46-29.467-15.278-5.016-25.165-9.782-32.67 5.125-7.256 14.412-14.815 61.289-12.812 76.87 1.964 15.279 4.484 48.685 17.296 72.387 19.657 36.365 53.202 49.953 89.682 62.136 18.491 6.176 67.054 4.177 81.995 17.296 5.977 5.248 3.89 55.225-8.969 58.934-19.407 5.598-69.76-12.391-87.76-19.218-21.168-8.028-39.331-23.341-58.934-34.591-7.85-4.506-27.816 20.958-26.264 30.107 5.21 30.712 12.812 36.514 32.243 62.35 3.244 4.314 5.146 9.499 8.205 13.996-18.38-13.828-33.224-25.265-52.192-38.338-24.261-16.721-50.482-36.408-76.443-50.393-10.998-5.924-24.53-11.645-37.207-10.836-3.301 0.21-3.298 1.16-6.566 1.762-0.124-0.251 0.153 0.253 0 0 0.018-0.043 4.328-2.566 0 0 8.488-10.09 14.671-22.173 16.976-27.225 10.579-23.198 17.857-47.253 25.943-71.426 12.794-38.249 36.087-122.88 45.695-162.17 1.388-4.378-19.911-7.1-36.513-11.744-10.21-2.857-26.958-8.969-29.681-1.495-3.745 10.28-6.158 17.419-10.89 28.613-7.698 18.212-12.103 31.029-19.004 49.538-1.612-3.528-3.34-4.686-4.911-8.327-4.697-10.89-8.297-17.974-9.822-30.108-0.926-7.371-0.642-9.825-1.134-17.29 0.103-1.152-3e-3 -2.381-0.353-3.676-0.099-0.795 0.053-2.369-8e-3 -3.163-0.159-2.067 2.916-16.295 2.478-17.295 9.989-23.229 14.039-37.687 27.416-58.507 14.978-23.312 32.029-45.695 45.268-66.92 10.581-14.161 29.25-34.291 61.769-54.457 50.12-31.082 103.33-43.04 118.76-43.04h0.089c2.172 0 130.31-10.253 215.74 18.577 16.119 4.461 38.167 11.811 56.321 22.42 0 0-8.968 21.78-40.997 16.976" style="fill:#fff"/></g></g><g clip-path="url(#clipPath53519)" style="opacity:.3"><g transform="translate(486.67 1523.8)"><path d="m0 0s30.107-16.976 142 76.977c0 0 52.035 38.082 86.66 45.091 0 0-52.495-8.364-99.471-39.112-46.977-30.748-41.852-36.727-70.038-57.226-18.854-13.712-25.196-19.004-59.147-25.73"/></g></g><g transform="translate(638.25 1428.2)"><path d="m0 0c-2.779-3.422-11.66 45.22-4.538 52.786 7.121 7.566 53.142 41.302 74.818 53.719s37.387 27.594 40.191 32.089-3.783-20.696-12.374-28.307c-8.59-7.61 10.059 7.655 30.444 14.153 20.385 6.497 24.657 11.037 25.058-2.182 0.4-13.218-2.182-25.057-7.79-34.048-5.608-8.99 7.522-5.653-17.403-7.877-18.104-1.616-74.55-14.018-128.41-80.333" style="fill:#010030"/></g><g clip-path="url(#clipPath53539)" style="opacity:.2"><g transform="translate(708.37 1512.7)"><path d="m0 0c12.313 10.938 23.774 22.68 34.452 35.075 5.03 9.939 7.939 22.297 5.905 19.036-2.804-4.495-18.515-19.672-40.191-32.089-21.675-12.417-67.697-46.153-74.818-53.719-2.551-2.71-3.046-10.692-2.505-19.663 24.162 18.827 54.278 31.036 77.157 51.36" style="fill:#fff"/></g></g><g transform="translate(933.75 1508.2)"><path d="m0 0s34.359 4.282 58.056-13.409c23.696-17.69 33.449-29.891 33.449-29.891l10.607 17.503s-0.148 7.492-17.799 25.589c-17.652 18.099-9.001 43.418-40.412 43.086-31.411-0.333-26.868 3.144-26.868 3.144l1.682-24.936-10.151 21.417-15.479 1.1s9.14-39.524 6.915-43.603" style="fill:#010030"/></g><g clip-path="url(#clipPath53559)" style="opacity:.2"><g transform="translate(996.79 1515)"><path d="m0 0c-10.743 8.525-28.519 36.22-40.998 33.737 2.367-8.426 1.488-31.714 3.844-40.143 11.957-1.281 24.918-8.397 32.176-13.815 23.696-17.691 33.449-29.892 33.449-29.892l1.668 2.752c-8.204 14.657-16.469 36.513-30.139 47.361" style="fill:#fff"/></g></g><g transform="translate(831.09 1321.9)"><path d="m0 0c-7.439 0.578 5.125 152.46-131.11 113.17-17.507-5.049-28.854-11.63-38.862-33.738-14.307-31.602 2.937-110.03 2.937-110.03l-14.041-6.449s-11.086 81.236-3.966 106.45c7.121 25.21 18.059 42.49 37.276 48.041 66.518 19.217 124.7 8.541 142.48-48.707 6.202-19.97 14.889-69.48 5.28-68.733" style="fill:#edb798"/></g></g><g clip-path="url(#clipPath53579)"><g transform="translate(1028.6 1381.7)"><path d="m0 0c0-31.453-25.498-56.95-56.95-56.95-31.453 0-56.951 25.497-56.951 56.95s25.498 56.95 56.951 56.95c31.452 0 56.95-25.497 56.95-56.95" style="fill:#523b00"/></g><g transform="translate(1006.4 1381.7)"><path d="m0 0c0-19.238-15.596-34.833-34.834-34.833s-34.833 15.595-34.833 34.833 15.595 34.834 34.833 34.834 34.834-15.596 34.834-34.834" style="fill:#010030"/></g><g transform="translate(962.57 1400.1)"><path d="m0 0c0-8.856-7.179-16.035-16.034-16.035-8.856 0-16.035 7.179-16.035 16.035 0 8.855 7.179 16.034 16.035 16.034 8.855 0 16.034-7.179 16.034-16.034" style="fill:#fffcfa"/></g><g transform="translate(1003.9 1353.2)"><path d="m0 0c-2.087-3.614-6.708-4.853-10.322-2.766s-4.853 6.708-2.766 10.322c2.086 3.615 6.708 4.853 10.322 2.766 3.615-2.086 4.853-6.708 2.766-10.322" style="fill:#fffcfa"/></g><g clip-path="url(#clipPath53603)" style="opacity:.2"><g transform="translate(1016.4 1391.6)"><path d="m0 0c0-28.501-23.105-51.605-51.605-51.605-28.501 0-51.606 23.104-51.606 51.605s23.105 51.605 51.606 51.605c28.5 0 51.605-23.104 51.605-51.605" style="fill:#fffcfa"/></g></g><g clip-path="url(#clipPath53619)" style="opacity:.2"><g transform="translate(998.82 1404.9)"><path d="m0 0c0-26.125-21.178-47.303-47.304-47.303-26.125 0-47.303 21.178-47.303 47.303s21.178 47.304 47.303 47.304c26.126 0 47.304-21.179 47.304-47.304" style="fill:#fffcfa"/></g></g></g><g clip-path="url(#clipPath53635)"><g transform="translate(802.69 1360.4)"><path d="m0 0c0-36.44-29.541-65.98-65.98-65.98-36.44 0-65.981 29.54-65.981 65.98s29.541 65.98 65.981 65.98c36.439 0 65.98-29.54 65.98-65.98" style="fill:#523b00"/></g><g transform="translate(777.07 1360.4)"><path d="m0 0c0-22.289-18.068-40.357-40.357-40.357-22.288 0-40.357 18.068-40.357 40.357 0 22.288 18.069 40.357 40.357 40.357 22.289 0 40.357-18.069 40.357-40.357" style="fill:#010030"/></g><g transform="translate(726.25 1381.7)"><path d="m0 0c0-10.26-8.317-18.577-18.577-18.577s-18.577 8.317-18.577 18.577 8.317 18.577 18.577 18.577 18.577-8.317 18.577-18.577" style="fill:#fffcfa"/></g><g transform="translate(774.19 1327.4)"><path d="m0 0c-2.418-4.187-7.772-5.622-11.959-3.204-4.187 2.417-5.622 7.772-3.205 11.959 2.418 4.187 7.772 5.622 11.96 3.204 4.187-2.417 5.622-7.772 3.204-11.959" style="fill:#fffcfa"/></g><g clip-path="url(#clipPath53659)" style="opacity:.2"><g transform="translate(788.6 1371.9)"><path d="m0 0c0-33.02-26.768-59.788-59.788-59.788s-59.788 26.768-59.788 59.788 26.768 59.788 59.788 59.788 59.788-26.768 59.788-59.788" style="fill:#fffcfa"/></g></g><g clip-path="url(#clipPath53675)" style="opacity:.2"><g transform="translate(763.83 1387.3)"><path d="m0 0c0-27.831-22.562-50.393-50.393-50.393s-50.392 22.562-50.392 50.393 22.561 50.393 50.392 50.393 50.393-22.562 50.393-50.393" style="fill:#fffcfa"/></g></g></g><g clip-path="url(#clipPath53691)"><g transform="translate(635.29 1273.7)"><path d="m0 0s48.684 56.372 212.67 48.685c0 0-122.99-9.609-212.67-48.685" style="fill:#edb798"/></g><g transform="translate(939.56 1332.6)"><path d="m0 0c-29.04-1.708-13.019 98.218-13.019 98.218s2.09 20.996 24.951 24.466c68.724 10.431 80.105-30.315 86.671-43.97 6.566-13.656 9.193-78.393 9.193-78.393h-7.88s3.283 59.474-7.222 76.544c-10.506 17.069-27.359 49.604-79.449 36.707-12.88-3.189-17.903-6.779-19.651-25.024-6.833-71.319 6.406-88.548 6.406-88.548" style="fill:#edb798"/></g><g transform="translate(932.36 1332.1)"><path d="m0 0c-2.876-0.053-2.276 9.977 74.943 10.977 8.07 0.104 23.307-1.336 31.748-2.946 0.628-0.121 1.213-0.34 1.775-0.648l16.128-8.824s-94.471 1.992-124.59 1.441" style="fill:#edb798"/></g><g transform="translate(998.94 1776)"><path d="m0 0c-8.993-9.433-22.482-18.074-41.702-25.921-4.056-1.675-8.464-3.262-13.049-4.849-4.32-1.498-8.817-2.997-13.665-4.408-32.533-9.698-65.86-11.726-97.952-9.081-11.021 0.882-21.953 2.293-32.621 4.232-18.515 3.174-36.324 7.67-52.899 12.873-26.715 8.287-50.431 18.25-69.123 27.154-13.488 6.436-24.421 12.343-32.091 16.663-8.288 4.673-12.873 7.671-12.873 7.671l-6.524-12.784-13.577-26.626-23.629-46.287-14.018-27.419-84.022-164.6-0.217-2.205-9.211-19.836v-0.089l-13.183-23.892-2.316-3.704-27.123-52.634-17.66-34.296s-36.206-52.228-86.285-75.944c-17.633-8.376-36.998-15.057-57.1-8.057h-0.177c-17.633 0-35.354 2.943-52.282 6.646-0.088 0-0.176-1.042-0.264-0.953-56.779 12.607-103.77 40.036-103.77 138.34 0 127.84 48.491 125.38 52.899 167.25 4.409 41.878-37.47 101.26-15.428 171.79 22.041 70.532 61.715 147.61 182.94 189.49 121.23 41.879 134.45 15.397 246.86 66.092s262.29 83.741 306.37 55.087c44.083-28.654 79.349-46.295 90.37-145.48 2.381-21.248 7.67-41.089 13.137-59.516 13.842-46.815 28.918-84.907 0.176-114.71" style="fill:#e6e6e6"/></g><g clip-path="url(#clipPath53715)" style="opacity:.10001"><g transform="translate(1002.8 1795.2)"><path d="m0 0c-17.953 12.92-13.678 53.191-22.221 72.957-16.439 38.031-19.804 95.768-61.496 115.3-41.667 19.525-46.123 33.311-125.56 12.812-54.299-14.012-61.738-33.999-120.43-33.31-35.706 0.419-27.002 17.214-61.496 23.061-75.589 12.811-382.09-26.105-374.1-297.23 1.5-50.93 58.419-52.921 47.83-83.703-10.709-31.131-47.83-49.539-77.774-95.494-65.348-100.29-38.558-263.12 147.81-193.2 38.361 26.164 66.236 69.55 66.236 69.55l17.768 34.296 27.335 52.634 2.742 3.704 14.036 23.892v0.089l8.358 19.837-0.634 2.204 84.021 164.6 14.018 27.419 23.629 46.287 13.577 26.626 6.525 12.784s4.584-2.998 12.872-7.671c7.67-4.32 18.603-10.227 32.092-16.663 18.691-8.904 42.407-18.867 69.122-27.154 16.575-5.202 34.384-9.699 52.899-12.873 10.668-1.939 21.601-3.35 32.621-4.232 32.092-2.644 65.418-0.617 97.952 9.081 4.849 1.411 9.345 2.91 13.665 4.408 4.585 1.587 8.993 3.174 13.049 4.849 19.22 7.847 32.709 16.488 41.702 25.921 4.648 4.819 8.135 9.859 10.682 15.114-2.305 1.12-4.587 2.475-6.835 4.093"/></g></g><g clip-path="url(#clipPath53731)" style="opacity:.3"><g transform="translate(855.01 1755.4)"><path d="m0 0c-11.531 96.088 52.528 69.183 34.592 97.369-17.628 27.7-24.286 25.513-57.653 26.904-24.922 1.04-42.597-4.09-67.496-2.858-83.682 4.14-78.557 41.293-101.62 86.135-6.406-43.56 10.249-70.465-79.345-100.18-47.284-15.682-87.847-52.314-126.54-83.28-22.918-18.34-41.119-42.171-61.354-63.284-21.261-22.185-48.094-68.638-77.82-78.674-11.562-3.903-40.19 0.974-50.82 2.563 5.696-9.731 32.115-24.115 35.446-35.019 8.064-26.395 0.199-42.511-11.958-66.621-9.689-19.215 16.709-22.773 22.634-27.118 21.283-15.608 83.153-12.164 90.963-27.545 11.179-15.682-27.909-58.672-26.715-76.876 3.431-16.762 3.378-34.261-0.429-50.153-3.793-15.832-10.895-28.893-20.266-39.483 37.699 26.245 64.962 68.656 64.962 68.656l17.768 34.296 27.335 52.634 2.742 3.704 14.036 23.892v0.089l8.358 19.837-0.634 2.204 84.021 164.6 14.018 27.419 23.629 46.287 13.577 26.626 6.525 12.784s4.584-2.998 12.872-7.671c7.67-4.32 18.603-10.226 32.092-16.663 18.691-8.904 42.407-18.867 69.122-27.154 16.575-5.202 34.385-9.699 52.899-12.873 10.668-1.939 21.601-3.35 32.621-4.232 32.092-2.644 65.418-0.617 97.952 9.081 4.849 1.411 9.345 2.91 13.665 4.408 4.585 1.587 8.993 3.174 13.049 4.849 11.45 4.675-109.87 0.104-102.23 5.342"/></g></g><g transform="translate(819.77 1863)"><path d="m0 0c-19.152 4.597-94.653 4.508-131.02-0.353s-99.186-18.178-143.27-43.699c-44.083-25.522-114.62-72.737-178.54-156.49-61.708-80.859-59.65-100.76-66.262-112.91-6.613-12.154 8.077-22.654 31.602-31.603 20.112-7.65 106.98-48.257 106.98-48.257l43.897 25.194c-0.601 0.679-1.179 1.407-1.705 2.229-6.19 9.66-7.623 21.827-8.706 33.008-1.191 12.286 11.308 17.73 19.25 12.697 9.683 1.877 18.683 4.97 27.856 8.741 5.178 2.129 9.88 0.803 13.197-2.097 1.219 0.903 2.425 1.831 3.615 2.795 7.348 5.954 16.029 1.989 19.526-4.382l286 207.52s13.021 60.513 17.296 90.322c1.21 8.435-23.701 13.452-39.716 17.296" style="fill:#ccc"/></g><g clip-path="url(#clipPath53751)" style="opacity:.2"><g transform="translate(552.75 1666)"><path d="m0 0c-4.385-1.652-9.619-1.313-13.909 2.572-30.068 27.225-61.353 53.072-91.596 80.092-26.34-23.18-53.88-51.536-80.294-86.148-14.56-19.078-26.577-37.068-36.571-53.61 26.093-15.267 52.082-30.773 76.636-48.358 6.188 1.108 13.363-1.666 15.422-9.454 0.925-3.497 5.185-5.701 7.712-8.149 3.866-3.742 7.375-7.854 11.208-11.643 8.374-8.277 17.37-15.857 26.585-23.176 4.294-3.411 8.643-6.75 13.011-10.064-5.731 9.514-7.15 21.266-8.201 32.112-1.19 12.286 11.308 17.73 19.251 12.697 9.682 1.877 18.683 4.97 27.855 8.741 5.179 2.129 9.881 0.803 13.198-2.097 1.218 0.903 2.424 1.831 3.614 2.795 7.348 5.954 16.029 1.989 19.526-4.382l71.171 51.641c-24.171 22.887-49.354 44.713-74.618 66.431" style="fill:#fff"/></g></g><g clip-path="url(#clipPath53767)" style="opacity:.2"><g transform="translate(643.16 1659.7)"><path d="m0 0c-15.867 33.007-33.929 64.869-52.085 96.675-9.912 17.364-19.315 35.074-29.975 51.988-2.999 4.757-5.932 9.525-8.706 14.358-2.339-1.239-4.658-2.493-6.905-3.794-4.641-2.686-9.59-5.63-14.778-8.816 32.565-53.343 76.91-99.089 112.45-150.41" style="fill:#fff"/></g></g><g clip-path="url(#clipPath53783)" style="opacity:.2"><g transform="translate(784.25 1866.1)"><path d="m0 0c-30.624 0.914-71.547-0.217-95.5-3.418-13.171-1.761-29.818-4.637-47.782-8.794 25.578-64.856 39.517-133.94 61.061-200.17l91.99 66.746c-4.201 48.491-8.144 97.003-9.769 145.64" style="fill:#4a4a4a"/></g></g><g clip-path="url(#clipPath53799)" style="opacity:.5"><g transform="translate(220.45 1869.3)"><path d="m0 0c-18.996-14.821-28.395-34.555-31.384-55.129-0.724-1.092-1.426-2.209-2.078-3.38-15.607-28.033-12.533-63.607 10.113-87.179 18.177-18.921 41.845-26.495 67.266-29.092 23.909-2.442 48.807 3.913 69.935 14.958 17.401 9.096 32.282 23.3 47.162 35.956 14.995 12.753 62.147 40.304 42.172 41.799-191.28 14.316-27.292 219.3-203.19 82.067" style="fill:#fff"/></g></g><g clip-path="url(#clipPath53815)" style="opacity:.5"><g transform="translate(666.06 2018.2)"><path d="m0 0c-5.358-11.911-0.608-24.351 5.109-33.899 0.063-0.315 0.112-0.629 0.179-0.944 6.148-28.919 30.025-61.924 57.464-73.854 35.528-15.448 67.136 8.292 93.822 29.66 11.39 9.12 38.19 52.812 47.325 60.943 124.27 110.61-150.75 136.23-203.9 18.094" style="fill:#fff"/></g></g><g clip-path="url(#clipPath53831)" style="opacity:.5"><g transform="translate(296.42 1391.5)"><path d="m0 0c-3.68 13.389-21.036 18.351-32.363 25.493-14.838 9.357-34.397 15.386-46.492 27.667-5.946 6.037-8.477 15.149-13.614 22.462-8.678 12.354 29.692 119.12-21.555 106.3-29.438-7.359-58.356-72.215-53.809-129.4 1.826-22.969 3.934-67.1 34.591-94.807 16.742-15.131 38.822-13.067 61.51-12.562 0.981 0.021 1.981 0.069 2.989 0.129 14.946-4.183 45.512 4.969 58.494 13.714 13.364 9.003 14.598 25.173 10.249 40.998" style="fill:#fff"/></g></g><g transform="translate(1135.5 1657)"><path d="m0 0c19.308-57.836-2.204-88.165-2.204-88.165-2.204-79.349-48.491-94.778-48.491-94.778 1.939-25.48-1.323-57.925-5.466-86.049-3.086-19.926-6.524-37.735-8.993-49.461-1.852-8.993-3.174-14.371-3.174-14.371s-0.97 4.761-2.204 12.96c-0.353 1.94-0.618 4.144-0.97 6.525 0 0.088 0 0.264-0.088 0.44-0.353 2.645-0.706 5.555-1.147 8.728-2.204 17.633-18.147 192.42-101.15 266.7-13.241 11.851-32.303 25.645-86.112 35.895-29.45 5.609-111.46 10.89-183.56-17.557-30.219-11.922-54.661-31.739-88.958-57.043-0.176-0.087-0.44-0.264-0.615-0.441-11.374-8.287-23.717-17.368-37.735-26.978-43.377-29.888-64.361-32.357-73.442-30.858-2.557 0.441-4.143 1.146-5.025 1.675 1.234-0.97 2.557-2.204 3.879-3.879 3.527-4.32 7.406-11.021 11.462-19.397 31.739-66.212 74.147-240.52 74.147-240.52-0.177 0-63.92-16.241-63.92-16.241l-33.062 83.454c-3.439-5.995-6.172-10.988-8.376-16.718-12.96-34.473-4.849-62.036-4.849-62.036h-48.491l-2.556 1.01-79.262 58.429-2.115 1.355-0.618 0.324-1.41 1s28.653 59.483 37.47 81.524c5.731 14.283 1.226 64.042 2.204 85.943 6.034 135.1 90.207 204.95 170.78 249.08 125.66 68.82 251.98 59.336 299.5 48.336h0.087c48.051 0 102.54-4 155.26 0h0.088c0.882 0 1.675 0.066 2.557-0.022 2.645-0.088 5.201-0.32 7.847 0.033 0.44 0.088 0.881 0.105 1.322 0.193 2.821 0.177 5.554 0.097 8.376 0.538 110.21 17.633 124.83 48.23 124.83 48.23 8.729-14.019 14.45-32.176 14.45-51.044v-0.176c0-40.027-11.893-84.286-16.83-105-1.587-6.26-3.782-10.492-3.429-11.638" style="fill:#003a66"/></g><g clip-path="url(#clipPath53851)" style="opacity:.3"><g transform="translate(1154.8 1773.7)"><path d="m0 0v0.176c0 3.328 0.32 26.698-13.969 51.043 5.962-54.132-23.363-70.304-43.53-79.243-42.195-18.703-91.553-17.294-136.73-16.109-49.34 1.294-100.33 4.204-147.3-13.907-38.676-14.914-101.76-61.887-149.59-90.926 76.016 42.705 185.52 35.757 211.82 30.748 53.809-10.25 72.871-24.044 86.113-35.896 26.325-23.56 45.897-57.233 60.432-92.792 14.555-3.914 27.411-13.852 38.557-24.128 9.172-8.458 17.739-17.957 25.388-28.088 7.236 3.058 50.869 88.659-14.471 111.72 0 0 84.407-37.593 35.873 69.183-6.406 14.092 27.452-1.563 29.04 4.697 4.937 20.719 18.363 73.494 18.363 113.52"/></g></g><g clip-path="url(#clipPath53867)" style="opacity:.3"><g transform="translate(479.2 1328.8)"><path d="m0 0s-39.289-26.859-41.851-79.859h28.101s-8.03 48.257 13.75 79.859"/></g></g><g clip-path="url(#clipPath53883)" style="opacity:.3"><g transform="translate(486.67 1523.8)"><path d="m0 0s38.533-42.529 88.983-263.35l-63.92-16.242s38.355 18.342 37.501 37.987c-0.854 19.644-15.801 136.44-62.564 241.61"/></g></g><g clip-path="url(#clipPath53899)" style="opacity:.2"><g transform="translate(502.26 1679)"><path d="m0 0c7.062 2.61-62.989-56.72-56.291-49.107 9.629 10.945 20.923 21.016 30.78 31.744 23.213 25.266 49.211 48.319 79.524 64.376 47.943 25.396 99.33 39.101 153.32 44.804 23.72 2.506 65.236 5.682 88.401-1.921-44.841-7.688-57.058-9.242-73.667-27.546 20.498 0 49.8 2.273 70.102 1.062-17.186-8.923-31.519-21.084-46.424-33.948 7.769 3.344 32.716 7.471 41.661 7.263-12.797-3.02-41.358-19.408-50.928-27.896-10.251-9.093-21.826-16.877-33.555-23.915-21.516-12.912-44.216-24.122-66.621-35.259-21.328-10.6-41.54-24.113-61.57-37.489-22.2-14.825-38.448-33.573-64.129-41.923-10.509-3.416-22.767-10.81-34.551-9.064-10.491 1.555-19.07 11.125-26.809 17.609 19.493-28.296 40.324-65.538 43.494-100.54 3.109-34.324 11.236-70.361 8.708-104.7-13.592 27.938-21.541 62.215-39.228 87.135-0.232-12.296 4.642-23.932 3.36-36.247-3.912 16.092-8.944 28.8-15.214 43.615 3.908-33.012-24.754-56.85-41.279-81.113-3.064 10.112 4.215 25.439 5.568 36.003 1.614 12.607 1.716 26.208 0.955 38.773-5.18-17.384-8.485-46.56-24.204-57.15-3.237 9.708 2.654 21.559 2.78 31.88-1.953-9.974-6.715-25.001-15.343-30.607 6.285 46.883-4.36 94.551 5.852 140.85 6.406 29.04 12.631 44.954 20.498 65.766 9.333 24.689 26.611 45.303 45.696 63.205 21.828 20.475 47.962 40.014 75.161 53.382" style="fill:#fff"/></g><g transform="translate(503.19 1675.6)"><path d="m0 0c2.174 0.687-2.121 5.198-3.673 4.663-0.361-0.124 0.622 0.399-0.172-0.174-0.644-0.464-1.23-1.285-1.797-1.843-2.064-2.036-4.237-3.967-6.403-5.892-6.146-5.463-12.43-10.774-18.743-16.044-6.357-5.307-12.675-10.665-19.092-15.901-2.037-1.661-4.815-3.916-6.479-5.192-0.657-0.504-1.454-0.961-2.051-1.529-2.114-2.013-1.383 1.787 2.886-0.806 0.701-1.223 1.403-2.447 2.105-3.67-4e-3 0.028-0.338-2.353-0.931-2.502 0.295 0.074 2.346 2.608 2.582 2.866 2.492 2.712 5.059 5.353 7.652 7.968 5.211 5.255 10.554 10.376 15.723 15.671 9.312 9.541 18.258 19.356 28.056 28.419 19.68 18.204 41.345 33.417 65.446 45.186 48.363 23.618 101.56 35.749 155.01 40.101 23.78 1.936 50.456 4.208 73.456-3.159v10.223c-16-2.722-32.959-4.588-48.412-9.986-10.982-3.837-20.021-10.252-27.874-18.776-3.181-3.453-1.038-9.399 3.872-9.402 23.359-0.015 46.741 2.211 70.091 0.849-0.962 3.553-1.93 7.107-2.893 10.66-17.561-9.196-32.627-22-47.616-34.811-4.23-3.615 0.279-11.793 5.609-9.638 6.242 2.524 13.153 3.641 19.757 4.76 6.692 1.135 13.563 2.204 20.37 2.104-0.528 3.902-1.056 7.805-1.584 11.707-9.002-2.212-17.654-6.717-25.763-11.091-8.31-4.482-16.514-9.348-24.033-15.079-10.001-7.622-19.429-15.582-30.146-22.271-12.154-7.585-24.76-14.448-37.473-21.043-13.382-6.943-27.037-13.345-40.423-20.273-12.919-6.687-25.334-14.302-37.551-22.186-11.477-7.407-22.892-14.88-33.677-23.273-9.536-7.42-18.761-15.296-29.083-21.634-5.994-3.68-12.213-6.62-18.847-8.937-6.721-2.347-13.169-5.494-20.001-7.522-6.986-2.074-13.185-2.152-19.511 1.724-5.665 3.47-10.327 8.329-15.362 12.61-5.365 4.56-15.035-1.408-10.46-8.07 18.879-27.492 36.77-58.203 41.944-91.641 1.328-8.583 1.867-17.314 2.975-25.935 1.207-9.396 2.547-18.775 3.721-28.176 2.326-18.619 4.005-37.358 2.747-56.125 4.078 1.104 8.157 2.209 12.235 3.314-13.827 28.659-20.866 60.74-39.312 87.086-3.523 5.032-12.069 3.538-12.055-3.265 0.027-12.215 4.366-24.003 3.398-36.247l12.634 1.71c-3.737 15.018-9.226 29.372-15.23 43.61-1.258 2.981-3.596 5.061-7.039 4.596-2.884-0.39-5.892-3.12-5.563-6.301 3.28-31.685-24.105-54.106-40.434-77.856l11.793-1.542c-2.629 10.102 3.714 21.456 5.36 31.34 2.279 13.688 2.135 27.912 1.363 41.721-0.398 7.11-10.515 8.867-12.615 1.707-2.828-9.641-4.658-19.544-7.58-29.162-2.596-8.548-6.074-18.693-13.709-24.087 3.18-1.294 6.36-2.587 9.541-3.881-2.738 9.658 2.647 20.36 3.027 30.153 0.281 7.232-11.314 8.994-12.789 1.731-1.782-8.774-4.523-21.206-12.354-26.709 3.27-1.877 6.539-3.753 9.809-5.629 3.447 26.635 1.692 53.441 1.267 80.192-0.212 13.316-0.066 26.667 1.316 39.925 1.337 12.812 4.304 25.395 7.66 37.814 2.629 9.725 5.717 19.312 9.138 28.787 3.504 9.707 6.861 19.629 11.549 28.838 10.731 21.081 26.937 38.572 44.366 54.309 20.745 18.732 43.652 35.187 68.726 47.63 7.617 3.779 0.932 15.179-6.668 11.408-23.436-11.629-44.991-26.851-64.782-43.908-18.274-15.748-35.59-33.287-48.123-54.052-10.999-18.221-17.986-39.604-24.107-59.92-7.646-25.377-11.972-50.955-12.215-77.484-0.286-31.202 2.844-62.455-1.165-93.539-0.619-4.802 6.038-8.282 9.809-5.629 11.042 7.767 15.755 21.791 18.331 34.505-4.263 0.577-8.527 1.154-12.79 1.731-0.438-11.411-5.817-22.113-2.53-33.606 1.068-3.735 6.037-6.368 9.54-3.881 19.226 13.648 21.054 40.196 27.118 61.05l-12.615 1.707c0.803-13.795 1.456-28.694-1.717-42.242-2.609-11.135-7.597-22.682-4.605-34.249 1.476-5.706 8.773-5.921 11.794-1.542 17.875 25.916 45.737 49.748 42.122 84.37-3.985-1.079-7.97-2.159-11.955-3.238 5.802-13.723 10.979-27.603 14.552-42.087 1.825-7.401 12.072-5.215 12.633 1.71 0.996 12.27-3.321 24.035-3.323 36.247-4.018-1.088-8.036-2.176-12.054-3.265 18.371-26.353 25.381-58.509 39.144-87.184 3.041-6.335 11.826-2.615 12.236 3.314 1.34 19.4-0.46 38.768-2.893 58.01-2.344 18.533-4.017 37.307-6.899 55.75-5.383 34.454-23.774 66.476-43.226 94.839-3.486-2.69-6.973-5.38-10.459-8.07 9.17-7.806 18.095-17.646 30.631-19.45 13.484-1.941 25.693 5.207 38.01 9.44 25.175 8.651 43.325 27.743 64.94 42.308 12.627 8.509 25.295 16.993 38.342 24.847 12.951 7.796 26.452 14.448 39.927 21.269 26.242 13.283 52.958 26.888 76.181 45.117 9.11 7.151 17.613 14.086 27.685 19.946 8.998 5.235 18.575 10.825 28.74 13.421 6.553 1.674 5.119 11.67-1.584 11.708-7.402 0.042-14.902-1.238-22.173-2.493-7.02-1.211-14.405-2.425-21.021-5.17 1.87-3.212 3.74-6.425 5.61-9.638 14.141 12.31 28.607 24.251 45.234 33.087 5.274 2.803 2.484 10.38-2.888 10.66-23.36 1.221-46.742-1.148-70.102-1.275 1.298-3.134 2.596-6.268 3.895-9.402 6.991 7.682 14.753 13.449 24.682 16.73 14.978 4.948 31.013 6.917 46.5 9.598 5.471 0.947 4.595 8.775 0 10.223-17.581 5.541-37.041 5.328-55.268 4.604-19.781-0.786-39.567-2.848-59.13-5.858-45.656-7.024-90.325-20.81-131.11-42.679-40.354-21.639-70.704-55.348-102.19-87.756-3.033-3.121-7.609-6.676-9.654-10.569-0.963-1.832-1.147-3.905 0.462-5.52 2.447-2.456 5.268-0.803 7.471 0.832 7.29 5.411 14.164 11.442 21.068 17.328 9.306 7.934 18.445 16.132 27.272 24.597 2.316 2.221 5.282 4.563 6.977 7.34 1.797 2.945 0.07 7.464-3.977 6.052-4.213-1.47-2.477-8.128 1.863-6.756" style="fill:#fff"/></g></g><g clip-path="url(#clipPath53919)" style="opacity:.2"><g transform="translate(406.28 1261.8)"><path d="m 0,0 c 1.181,15.321 23.975,33.871 34.859,43.843 7.127,6.529 14.606,13.384 22.772,18.612 12.513,8.009 14.162,6.092 18.598,10.251 C 63.352,59.973 48.293,44.793 39.396,29.147 30.107,12.812 29.08,2.08 28.826,-10.89 23.401,-10.078 3.844,-8.648 0,0" style="fill:#fff"/></g></g><g clip-path="url(#clipPath53935)" style="opacity:.2"><g transform="translate(543.04 1286.5)"><path d="m0 0c-1.611 11.247-12.811 21.459-24.662 26.905-7.751 3.56-17.957 6.871-25.606 12.009 11.529-17.436 27.155-32.913 29.253-54.99 0.559-5.892 0.2-11.482-0.942-16.721 14.418 8.819 23.969 18.752 21.957 32.797" style="fill:#fff"/></g><g transform="translate(549.22 1288.2)"><path d="m0 0c-2.063 11.618-11.059 20.759-20.645 26.924-10.204 6.561-22.355 9.21-32.567 15.818-5.285 3.42-12.317-3.449-8.764-8.764 13.701-20.496 33.073-39.943 27.665-66.775-1.049-5.203 4.374-10.362 9.41-7.234 13.685 8.499 27.214 20.661 25.13 38.328-0.955 8.089-13.778 8.186-12.812 0 1.546-13.105-8.67-20.983-18.784-27.266 3.137-2.411 6.273-4.822 9.41-7.234 2.947 14.621 0.771 29.004-5.883 42.304-6.193 12.378-15.419 22.893-23.074 34.343-2.921-2.922-5.842-5.843-8.764-8.765 15.486-10.021 43.457-13.314 47.324-35.085 1.439-8.104 13.788-4.67 12.354 3.406" style="fill:#fff"/></g></g><g clip-path="url(#clipPath53955)" style="opacity:.2"><g transform="translate(433.07 1609.3)"><path d="m0 0c-4.377 8.643 14.562 26.839 19.837 32.859 12.643 14.426 25.93 28.961 41.569 40.117 14.909 10.637 38.566 26.544 55.181 34.215 9.444 4.361 39.401 20.107 49.965 20.072-37.154-16.656-51.383-36.901-62.062-47.961-9.506-9.845-19.283-20.905-25.119-33.261 15.008 15.882 31.144 32.978 46.611 41.933 24.342 14.092 64.95 25.996 57.652 21.779-19.217-11.103-61.539-61.868-67.018-67.685 15.345 11.741 28.666 21.617 41.395 25.834 11.446 3.791 44.677 18.963 56.372 19.644-26.478-17.082-46.329-37.067-58.02-45.78-9.871-7.357-20.155-13.973-30.012-20.987 12.333 7.492 26.105 14.285 40.008 18.34 11.136 3.248 62.543 21.95 77.917 18.106-40.143-23.061-53.335-28.104-59.361-32.456-8.405-6.071-21.393-13.926-29.466-20.498-14.413-11.733-22.002-19.227-39.29-26.478-25.677-10.771-52.18-24.033-80.287-20.499-7.62 0.959-21.267 11.28-23.104 20.563-1.195 6.033 7.672 14.811 12.641 20.534-8.857-0.488-17.417-7.089-26.985-7.696-0.367 7.354 1.426 15.278 6.7 20.408" style="fill:#fff"/></g><g transform="translate(436.69 1610.3)"><path d="m0 0c-1.758 4.343 2.741 9.729 5.205 12.958 3.518 4.611 7.561 8.833 11.525 13.059 11.501 12.261 22.367 24.952 35.364 35.713 22.417 18.561 48.228 33.128 74.327 45.747 6.577 3.181 13.183 6.341 19.95 9.101 5.112 2.085 10.95 4.811 16.562 4.946-0.798 2.945-1.595 5.89-2.393 8.835-19.298-8.748-36.919-20.482-51.659-35.752-13.813-14.309-29.015-28.78-37.941-46.751-2.699-5.437 4.156-11.545 8.752-6.753 9.447 9.85 18.796 19.865 29.081 28.856 8.708 7.612 18.157 13.514 28.6 18.432 9.012 4.244 18.32 7.871 27.748 11.08 3.516 1.197 7.055 2.343 10.634 3.34 1.311 0.366 2.629 0.682 3.951 1.006 2.415 0.594-0.041-0.323-1.699 0.822-0.866 1.127-1.732 2.253-2.598 3.38 5e-3 -0.025 0.01-0.049 0.016-0.074 0.19 1.453 0.38 2.905 0.57 4.358 0.414 0.872 2.23 1.569 0.874 1.163-0.716-0.214-1.506-0.932-2.122-1.345-1.526-1.024-2.987-2.139-4.437-3.267-3.359-2.612-6.567-5.401-9.694-8.286-7.533-6.95-14.676-14.315-21.672-21.801-10.26-10.976-19.819-22.598-30.096-33.547-4.329-4.613 1.583-13.416 7.111-9.216 9.659 7.34 19.337 14.926 29.999 20.78 6.715 3.686 14.076 5.949 21.165 8.803 7.836 3.155 15.64 6.397 23.56 9.339 6.262 2.325 13.68 5.366 20.08 5.842-0.972 3.591-1.945 7.181-2.917 10.772-16.002-10.327-30.707-22.363-45.144-34.741-13.627-11.684-28.444-21.343-43.078-31.702-6.357-4.501-0.693-14.789 6.214-10.631 12.671 7.629 25.766 13.756 39.9 18.13 7.295 2.258 14.519 4.745 21.805 7.033 9.841 3.089 19.75 6.047 29.808 8.351 6.639 1.52 16.019 3.549 21.649 2.236-0.497 3.798-0.993 7.596-1.489 11.394-15.247-8.61-30.65-16.928-46.285-24.812-9.497-4.789-17.885-10.518-26.771-16.406-8.891-5.891-17.227-12.243-25.466-19.009-7.248-5.954-14.688-11.452-23.127-15.624-10.49-5.186-21.609-9.571-32.537-13.746-11.246-4.296-23.026-8.125-35.097-9.054-5.301-0.408-11.852-1.017-16.972 0.753-4.112 1.422-7.868 4.375-10.877 7.451-2.235 2.284-5.267 5.335-3.927 8.622 1.994 4.892 6.642 8.996 10.009 12.937 3.337 3.904 1.526 11.836-4.671 11.277-9.529-0.86-17.592-6.731-26.986-7.621 2.227-2.227 4.454-4.454 6.681-6.68-0.152 5.563 0.603 11.677 4.408 16.02 5.226 5.963-2.988 14.4-8.776 8.776-6.789-6.597-9.295-15.517-8.993-24.796 0.109-3.337 2.984-7.051 6.68-6.681 4.951 0.496 9.43 1.746 14.042 3.57 4.157 1.644 8.441 3.776 12.944 4.2-1.557 3.759-3.114 7.518-4.671 11.277-6.403-7.096-16.843-16.329-14.582-27.028 2.012-9.518 10.898-17.632 19.088-22.139 10.145-5.583 22.614-4.686 33.708-3.064 12.997 1.9 25.413 6.267 37.523 11.228 11.563 4.737 23.639 9.232 34.519 15.412 9.423 5.352 17.643 12.488 25.953 19.373 9.166 7.593 19.302 13.747 29.029 20.569 3.139 2.202 6.268 4.155 9.659 5.949 17.426 9.222 34.745 18.554 51.787 28.481 4.451 2.592 3.851 10.224-1.489 11.394-8.497 1.862-17.655-0.2-25.992-1.974-10.464-2.226-20.757-5.237-30.963-8.424-22.802-7.119-45.113-14.329-65.735-26.744 2.072-3.544 4.143-7.087 6.214-10.631 14.735 10.431 29.688 20.293 43.337 32.147 14.278 12.401 28.662 24.556 44.506 34.944 4.417 2.896 3.187 11.27-2.918 10.772-7.362-0.601-14.439-3.235-21.327-5.74-8.533-3.103-16.945-6.514-25.385-9.86-7.313-2.899-14.929-5.194-21.947-8.775-11.526-5.881-21.85-13.96-32.069-21.817l7.111-9.215c18.374 19.801 34.925 41.31 55.358 59.149 2.153 1.88 4.341 3.731 6.669 5.393 1.782 1.271 4.169 2.269 5.659 3.891 2.51 2.734 2.141 7.163-1.192 9.102-2.161 1.258-4.641 0.737-6.941 0.267-15.421-3.153-30.873-9.909-45.035-16.567-24.005-11.287-42.002-30.005-59.852-49.174 2.917-2.25 5.834-4.501 8.752-6.752 8.272 17.288 22.587 31.248 35.582 45.11 14.037 14.973 30.506 26.335 49.18 34.83 4.374 1.99 2.079 8.949-2.393 8.835-12.092-0.308-24.655-7.483-35.314-12.53-12.309-5.828-24.626-11.669-36.307-18.694-15.028-9.039-30.138-18.739-43.77-29.803-14.146-11.481-25.631-25.504-37.875-38.876-7.273-7.942-21.969-21.956-16.527-33.995 1.73-3.829 8.46-1.061 6.86 2.892" style="fill:#fff"/></g></g><g clip-path="url(#clipPath53975)" style="opacity:.2"><g transform="translate(409.16 1573.5)"><path d="m0 0c-0.429-8.894-3.525-4.783 2.394 3.139 2.18-5.956 3.167-12.956 4.608-19.316 4.503 5.278 5.757 14.129 9.907 20.189 1.45-21.369 20.656-38.661 29.427-57.628 7.693-16.635 22.305-39.063 19.257-58.483-3.224 7.81-14.988 23.767-21.878 28.347-0.059-7.961 3.605-15.371 3.322-23.652-2.963 6.309-8.485 14.68-13.788 19.233-2.966-8.118 0.284-18.765-0.786-27.521-0.881-7.214-3.68-18.143-6.817-24.447-3.848 10.081-4.401 21.104-7.498 31.52-2.757 9.271-7.726 17.524-10.648 26.597-4.718-4.393-4.722-23.96-6.456-31.385-1.933-8.28-1.14-18.914-6.874-25.572-0.993 15.012 1.145 30.516-4.23 44.828-0.844-9.937-5.053-19.802-7.896-29.303 0.629 13.757-3.993 27.169-2.575 41.137 1.046 10.293 2.129 23.556 4.516 33.632 2.187 9.23 5.448 17.206 7.047 26.478" style="fill:#fff"/></g><g transform="translate(407.52 1573.9)"><path d="m0 0c-0.162-0.848-0.365-1.686-0.611-2.513-0.658-1.131-0.483-1.324 0.526-0.579 0.927-0.377 1.854-0.754 2.781-1.132 1.113-2.463-0.167-1.021 0.662 0.173 1.027 1.479 1.645 3.14 2.794 4.619-1.668 0.441-3.337 0.881-5.005 1.322 1.853-6.389 2.733-12.968 3.995-19.484 0.495-2.554 4.381-3.658 6.067-1.602 5.032 6.138 6.709 14.019 11.086 20.567-2.694 0.729-5.389 1.459-8.083 2.189 1.074-21.305 16.764-37.329 26.482-55.213 4.852-8.927 9.194-18.376 13.391-27.627 4.376-9.646 8.995-20.892 7.531-31.722 3.55 0.464 7.099 0.927 10.649 1.391-4.86 11.22-13.914 23.393-23.956 30.46-3.661 2.576-8.905-0.866-8.806-5.053 0.191-8.036 3.325-15.631 3.306-23.653 3.646 0.988 7.291 1.975 10.937 2.963-3.63 7.496-8.478 14.828-14.694 20.432-3.339 3.012-8.461 1.747-9.838-2.597-2.886-9.104-0.192-18.26-0.869-27.522-0.559-7.661-2.878-16.104-6.173-23.02 3.609-0.472 7.218-0.944 10.827-1.416-3.493 9.662-4.303 19.917-6.983 29.785-2.674 9.844-7.883 18.708-11.133 28.341-1.372 4.068-6.728 6.068-9.953 2.628-6.362-6.786-6.101-18.65-7.032-27.31-0.497-4.633-1.508-9.152-2.113-13.77-0.796-6.067-1.25-12.086-5.102-17.091 3.689-0.999 7.378-1.998 11.067-2.998-1.069 15.519 0.663 31.427-4.619 46.358-2.231 6.306-10.632 4.921-11.305-1.53-1-9.578-4.891-18.634-7.691-27.773 3.768-0.51 7.536-1.02 11.305-1.53 0.267 9.013-1.432 17.799-2.338 26.726-0.844 8.322-0.073 16.356 0.783 24.642 0.823 7.963 1.771 15.929 3.742 23.702 2.229 8.794 5.503 17.033 6 26.178 0.314 5.774-8.07 6.454-9.732 1.317-5.396-16.68-9.601-32.903-11.435-50.372-0.897-8.544-1.74-16.874-0.868-25.467 0.905-8.924 2.604-17.716 2.337-26.726-0.196-6.626 9.437-7.628 11.305-1.53 3.139 10.244 6.982 20.097 8.102 30.833l-11.304-1.53c4.954-14.005 3.151-28.745 3.84-43.298 0.219-4.623 6.681-8.497 10.138-4.199 7.035 8.746 7.451 20.884 9.016 31.61 0.697 4.774 1.032 9.59 1.646 14.373 0.398 3.1 0.867 9.028 2.68 10.962-3.318 0.876-6.636 1.752-9.954 2.628 3.249-9.632 8.467-18.506 11.151-28.335 2.694-9.864 3.519-20.117 7.025-29.773 1.569-4.319 8.456-6.413 10.828-1.415 3.672 7.735 5.994 16.17 7.233 24.631 1.386 9.46-1.958 19.605 0.931 28.762-3.279-0.866-6.559-1.732-9.838-2.598 5.544-4.984 9.642-11.365 12.882-18.033 2.622-5.396 10.932-2.581 10.937 2.962 8e-3 8.078-3.138 15.641-3.339 23.653-2.936-1.685-5.871-3.369-8.806-5.053 8.371-5.873 15.77-16.964 19.801-26.235 2.62-6.025 10.206-1.929 10.857 2.941 2.924 21.857-10.967 41.929-20.083 60.623-9.087 18.636-27.447 34.056-30.09 55.488-0.499 4.047-5.669 6.184-8.083 2.189-3.917-6.483-4.741-14.41-9.296-20.546 2.212-0.289 4.423-0.578 6.635-0.867-1.574 6.437-2.761 12.969-5.221 19.146-0.938 2.356-4.004 3.037-5.473 0.716-1.706-2.695-5.341-8.271-2.62-11.405 0.714-0.823 2.083-0.899 2.983-0.385 2.259 1.288 1.685 5.084 1.53 7.14-0.135 1.802-2.906 2.442-3.342 0.452" style="fill:#fff"/></g></g><g clip-path="url(#clipPath53995)" style="opacity:.2"><g transform="translate(998.99 1764.8)"><path d="m0 0c18.284-1.842 61.43 7.632 79.811 11.958 21.271 5.005 42.665 17.478 57.209 35.872-8.476-32.456-29.296-56.993-53.678-65.767-11.002-3.959-33.977-3.653-45.203 0-23.626 7.689-7.769 1.709-27.545 11.104-4.591 2.182-12.113 6.172-13.419 9.395" style="fill:#fff"/></g></g><g clip-path="url(#clipPath54011)" style="opacity:.5"><g transform="translate(892 1296.1)"><path d="m0 0c-3.422-0.189-6.456-0.133-9.77 0.7-0.95 0.238-1.974 0.421-2.934 0.389-0.282 0.129-0.56 0.257-0.848 0.384-2.114 0.933-5.498-0.146-5.211-2.692 0.416-3.689 3.631-4.337 7.097-5.195 4.002-0.99 7.721-1.657 11.874-1.144 2.067 0.255 2.797 1.704 2.56 3.15 1.103 1.76-0.165 4.552-2.768 4.408" style="fill:#a1421d"/></g></g><g clip-path="url(#clipPath54027)" style="opacity:.2"><g transform="translate(944.13 1325.9)"><path d="m0 0c-10.727-1.216-11.289-8.453-23.46-17.101-11.756-8.353-49.885-0.801-54.289-1.602-1.752-0.747-4.522-1.453-4.725-2.882-7.693-12.766 18.138-16.59 52.929-16.495 28.914 2.04 38.987 20.267 40.036 33.791 0.248 3.19-6.747 4.713-10.491 4.289" style="fill:#a1421d"/></g></g><g clip-path="url(#clipPath54043)" style="opacity:.2"><g transform="translate(905.29 1338.2)"><path d="m0 0c-0.92 9.314-9.866 12.116-17.832 9.36-3.281-1.135-6.556-3.102-9.559-5.506-0.827-0.439-1.59-0.888-2.247-1.32-4.593-3.028-10.711-9.375-10.714-15.351-2e-3 -1.759 0.513-2.995 1.351-3.855 0.096-1.652 1.05-3.274 3.377-4.734 7.218-4.532 17.115-2.256 23.977 1.867 6.688 4.019 12.457 11.346 11.647 19.539" style="fill:#fff"/></g></g><g clip-path="url(#clipPath54059)" style="opacity:.2"><g transform="translate(908.85 1350.2)"><path d="m0 0c-2.284 1.885-4.653 3.297-7.001 4.555-0.157 0.25-0.323 0.497-0.468 0.752-2.975 5.219-4.964 11.011-6.283 16.86-2.976 13.21-2.427 26.884-2.337 40.326 0.052 7.937 2.25 18.985-4.157 24.9-0.737 0.68-1.78 1.212-2.853 1.411-0.749 0.347-1.673 0.312-2.341-0.262-7.665-3.313-8.76-10.763-11.241-18.545-3.66-11.477-6.428-23.224-8.351-35.114-0.659-3.453-1.237-6.913-1.739-10.378-0.729-4.306-1.488-9.068-1.96-13.947-1.767-13.443-2.989-30.811 6.138-39.476 0.199-0.337 0.4-0.673 0.631-1 4.644-6.601 13.604-6.866 20.866-6.076 11.271 1.228 21.589 7.55 24.525 17.397 0.93 1.463 1.654 3.048 2.093 4.781 1.351 5.333-1.537 10.527-5.522 13.816" style="fill:#fff"/></g></g><g transform="translate(868.67 1339.9)"><path d="m0 0s56.249 46.606 79.859 0.854c24.022-46.549-33.95-52.955-33.95-52.955s13.452 13.666 16.014 19.645c6.134 14.312 4.698 63.204-61.923 32.456" style="fill:#edb798"/></g><g clip-path="url(#clipPath54079)" style="opacity:.2"><g transform="translate(947.78 1305.4)"><path d="m0 0c-3.652-2.739-4.74-4.379-8.541-6.726-6.012-3.712-22.794-3.826-31.389-0.961-7.687 2.562-10.569 7.367-37.474 9.609-0.949 0.079-4.724 0.56-8.648-2.563-4.164-8.808-1.891-15.722 2.242-18.577 16-11.051 34.758-22.909 51.407-21.94 16.495 0.961 28.026 3.792 35.713 21.62 2.644 6.133-0.747 21.46-3.31 19.538" style="fill:#a1421d"/></g></g></g></g></g></svg>
