<?xml version="1.0" encoding="UTF-8"?>
<svg width="277.94mm" height="729.53mm" version="1.1" viewBox="0 0 277.94 729.53" xmlns="http://www.w3.org/2000/svg"><defs><clipPath id="clipPath21874"><path d="m0 2334.2h1212.1v-2334.2h-1212.1z"/></clipPath><clipPath id="clipPath21894"><path d="m345.51 2051.7h207.25v-253.36h-207.25z"/></clipPath><clipPath id="clipPath21926"><path d="m476.77 1804h373.07v-118.64h-373.07z"/></clipPath><clipPath id="clipPath21946"><path d="m480.99 1369.7h151.67v-60.32h-151.67z"/></clipPath><clipPath id="clipPath21974"><path d="m437.56 1743h532.42v-366.35h-532.42z"/></clipPath><clipPath id="clipPath21990"><path d="m436.86 1724.9h449.88v-294.34h-449.88z"/></clipPath><clipPath id="clipPath22010"><path d="m450.16 1820.7h125.82v-316.16h-125.82z"/></clipPath><clipPath id="clipPath22046"><path d="m520.04 1891.4h13.958v-16.82h-13.958z"/></clipPath><clipPath id="clipPath22066"><path d="m503.22 2048.8h49.777v-65.21h-49.777z"/></clipPath><clipPath id="clipPath22082"><path d="m485.39 2008.4h106.82v-172.23h-106.82z"/></clipPath><clipPath id="clipPath22098"><path d="m514.91 2022.2h34.314v-37.23h-34.314z"/></clipPath><clipPath id="clipPath22134"><path d="m416.45 2141.8h329.17v-136.33h-329.17z"/></clipPath><clipPath id="clipPath22150"><path d="m702.48 2124.9h192.05v-309.36h-192.05z"/></clipPath><clipPath id="clipPath22166"><path d="m304.74 2171.7h589.79v-356.15h-589.79z"/></clipPath><clipPath id="clipPath22190"><path d="m522.46 2173.8h149.64v-234.13h-149.64z"/></clipPath><clipPath id="clipPath22206"><path d="m583.53 2186.9h154.36v-248.6h-154.36z"/></clipPath><clipPath id="clipPath22230"><path d="m624.47 1952.1h170.02v-494.58h-170.02z"/></clipPath><clipPath id="clipPath22262"><path d="m652.67 1786.8h63.027v-57.5h-63.027z"/></clipPath><clipPath id="clipPath22282"><path d="m659.42 1766.5h62.435v-68.44h-62.435z"/></clipPath><clipPath id="clipPath22302"><path d="m267.41 1149.1h314.1v-739.15h-314.1z"/></clipPath><clipPath id="clipPath22326"><path d="m582.5 1136.7h275.74v-767.96h-275.74z"/></clipPath><clipPath id="clipPath22354"><path d="m199.98 370.12h153.56v-238.1h-153.56z"/></clipPath><clipPath id="clipPath22378"><path d="m729.08 368.84h234.94v-249.87h-234.94z"/></clipPath><clipPath id="clipPath22394"><path d="m719.62 207.82h53.39v-73.571h-53.39z"/></clipPath><clipPath id="clipPath22410"><path d="m208.12 461.94h563.62v-284.23h-563.62z"/></clipPath><clipPath id="clipPath22430"><path d="m357.83 1304.8h309.07v-232.9h-309.07z"/></clipPath><clipPath id="clipPath22450"><path d="m438.82 1313.6h346.74v-233.19h-346.74z"/></clipPath><clipPath id="clipPath22470"><path d="m628.51 1305.5h70.888v-46.67h-70.888z"/></clipPath><clipPath id="clipPath22490"><path d="m635.93 1295.7h28.008v-49.23h-28.008z"/></clipPath><clipPath id="clipPath22510"><path d="m441.53 1316.4h23.007v-42.89h-23.007z"/></clipPath></defs><g transform="translate(62.413 -284.81)"><g transform="matrix(.35278 0 0 -.35278 -132.79 1056.3)"><g clip-path="url(#clipPath21874)"><g transform="translate(461.35 1991.5)"><path d="m0 0c3.065 3.764 7.188 8.232 6.926 13.38-0.021 0.405-0.633 0.375-0.628-0.028 0.087-7.046-8.572-14.636-13.254-19.222-5.107-5.003-10.665-9.509-16.522-13.604-12.255-8.567-25.247-14.208-39.479-18.602-12.119-3.742-24.959-6.922-36.268-12.761-11.76-6.071-6.513-4.872 7.457 0.964 13.559 5.664 28.078 8.93 41.821 14.12 13.362 5.048 25.607 12.905 36.461 22.141 4.874 4.147 9.443 8.647 13.486 13.612m-113.8-47.906c13.773 8.713 29.002 13.988 44.411 18.986 14.156 4.591 28.414 9.222 41.329 16.764 12.21 7.131 23.158 16.939 32.133 27.843 0.164 0.199-0.121 0.463-0.297 0.271-10.507-11.423-22.631-21.774-36.48-28.911-14.688-7.569-30.692-11.764-46.322-16.869-14.131-4.615-28.349-10.226-40.499-18.969-11.216-8.072-7.198-7.291 5.725 0.885m182.24-21.335c-2.149-1.985-4.242-4.014-6.319-6.057-20.93-15.016-38.095-34.358-52.815-55.471-8.14-11.675-15.462-23.946-21.428-36.877-2.602-5.64-5.055-11.367-7.133-17.223-2.109-5.945-4.496-12.329-4.103-18.725 8e-3 -0.134 0.211-0.125 0.209 0.01-0.143 7.088 3.09 14.572 5.682 21.042 2.402 5.998 5.053 11.91 7.933 17.694 6.05 12.15 13.204 23.731 21.103 34.763 12.176 17.006 26.019 32.57 41.936 45.954-13.647-14.605-25.789-30.443-37.18-47.02-7.767-11.303-15.461-22.737-21.898-34.865-2.833-5.338-5.405-10.878-7.402-16.587-1.579-4.512-3.934-10.233-2.576-15.04 0.103-0.364 0.628-0.179 0.552 0.179-1.348 6.301 3.292 14.988 5.825 20.521 2.515 5.494 5.429 10.788 8.503 15.987 6.818 11.531 14.521 22.575 22.283 33.484 13.584 19.091 28.513 36.985 45.049 53.556 0.331 0.236 0.645 0.49 0.977 0.724 0.212 0.149 0.292 0.35 0.296 0.551 0.675 0.671 1.335 1.355 2.016 2.021 0.949 0.929-0.554 2.262-1.51 1.379m237.08 6.156c-0.027 5.199-0.365 10.399-0.852 15.57-0.374 3.963-0.805 7.921-1.217 11.881-0.351 3.375-1.968 8.932-0.422 12.119 0.146 0.302-0.284 0.522-0.456 0.24-2.645-4.324-0.304-12.572 0.09-17.358 0.255-3.105 0.505-6.215 0.717-9.326-0.092 0.014-0.181-0.015-0.242-0.091-0.055 0.252-0.103 0.506-0.158 0.758-0.772 3.507-1.516 7.05-2.523 10.497-0.348 1.192-0.797 2.354-1.118 3.555-0.333 1.249-1.215 3.232-1.305 4.064 0.042-0.388 0.626-0.369 0.611 0.028l-0.018 0.501c-0.013 0.353-0.605 0.429-0.64 0.057-0.36-3.814 1.311-7.672 2.126-11.35 1.3-5.867 2.448-11.778 3.334-17.725 0.172-2.841 0.296-5.695 0.092-8.614-0.452-6.462-1.33-12.901-2.525-19.267-0.114-0.607-0.25-1.209-0.372-1.815-1.422-5.923-3.298-11.721-5.683-17.238-5.752-13.306-15.091-23.948-24.966-34.349-10.464-11.021-29.855-35.974-29.095-35.118 10.279 11.587 20.777 22.967 31.414 34.225 7.294 7.72 14.215 15.613 19.596 24.632-0.646-1.491-1.313-2.975-2.012-4.448-10.608-22.366-41.878-61.765-41.155-60.913 16.4 19.321 33.077 38.276 43.652 61.582 3.599 7.931 6.4 16.17 8.416 24.619 2.104 7.148 3.483 14.522 4.195 21.924 0.578-10.242 0.084-20.559-1.889-30.623-5.251-26.799-37.501-72.198-36.72-71.256 16.696 20.154 32.661 42.069 38.237 68.15 2.751 12.871 3.027 26.198 1.637 39.257-0.208 1.949-0.467 3.892-0.749 5.832m56.514-18.489c-2.174 13.66-6.422 26.717-11.471 39.557-5.644 14.356-12.178 29.343-12.938 44.961-0.016 0.331-0.524 0.308-0.515-0.024 0.369-13.462 5.184-26.622 9.905-39.076 4.995-13.177 9.818-26.301 12.473-40.188 2.705-14.149 3.584-29.075 0.544-43.243-2.912-13.565-14.455-39.949-13.981-39.087 6.313 11.478 12.231 23.3 15.278 36.117 3.188 13.412 2.861 27.436 0.705 40.983" style="fill:#452400"/></g><g transform="translate(534.29 1886.6)"><path d="m0 0c-19.712-21.559-41.296-53.569-27.233-83.664 6.298-13.478 17.556-23.58 28.831-32.882 14.71-12.136 29.737-23.875 44.522-35.92 2.051-1.671 4.841 1.364 2.779 3.044-11.61 9.459-23.426 18.661-35.027 28.131-11.599 9.468-24.028 18.699-32.621 31.156-20.885 30.272 0.619 64.196 21.793 87.355 1.792 1.961-1.251 4.741-3.044 2.78" style="fill:#3b3b3b"/></g><g transform="translate(474.61 2051.7)"><path d="m0 0c-5.372-5.349-56.908-74.842-83.292-96.762-36.781-30.56-45.803-81.795-45.803-81.795s30.981 44.7 47.025 54.871c16.043 10.17 39.792 32.407 51.198 31.114 0 0-31.241-16.256-46.582-41.902s-31.858-70.847-31.858-70.847 25.419 30.892 30.373 35.378c4.954 4.487 37.925 28.078 37.925 28.078s-12.849-12.362-19.262-41.537c-6.412-29.175-5.352-52.542-5.352-52.542s3.118 44.948 16.543 67.356c13.425 22.409 36.36 39.844 36.36 39.844s-28.364-34.187-30.518-54.916c-2.154-20.73-6.157-68.902-6.157-68.902l2.659-13.136s9.258 46.046 24.931 64.368c15.674 18.322 32.981 34.029 38.475 38.71 15.229 12.973 31.886 24.765 31.886 24.765l29.6 75.155z" style="fill:#592f00"/></g><g clip-path="url(#clipPath21894)" style="opacity:.2"><g transform="translate(474.61 2051.7)"><path d="m0 0c-1.606-1.6-7.362-8.961-15.321-19.048-0.598-8.348-4.642-16.723-9.467-24.223-3.879-7.383-8.753-14.246-14.1-20.629-12.084-14.426-26.67-26.189-40.802-38.486-0.911-0.793-1.757-1.611-2.642-2.414-1.764-1.641-3.517-3.292-5.255-4.954-13.445-13.269-23.774-27.992-31.987-45.652-2.71-5.828-5.571-11.74-8.326-17.737-0.839-3.413-1.195-5.414-1.195-5.414s30.981 44.7 47.025 54.87c14.448 9.16 35.141 28.096 47.444 30.829 5.888 2.923 18.69 6.56 18.708 6.571 0.365 0.224 0.715 0.276 1.027 0.22 0.07 0.017-19.776-20.549-28.493-27.895-10.779-9.083-20.914-20.355-29.307-31.662-8.862-11.941-16.701-25.034-23.143-38.438-1.992-4.145-4.259-8.443-6.496-12.834 7.903 9.489 20.113 23.985 23.391 26.953 4.954 4.487 37.925 28.077 37.925 28.077s-0.178-0.176-0.463-0.481c1.053 0.315 2.442-0.415 2.157-1.825-0.354-1.746-2.84-3.448-3.916-4.693-3.008-3.478-5.589-7.362-7.826-11.373-3.998-7.173-6.879-14.908-9.125-22.797-0.028-0.126-0.061-0.24-0.089-0.367-6.412-29.175-5.352-52.542-5.352-52.542s3.118 44.948 16.543 67.356c9.858 16.454 24.832 30.216 32.1 36.374 7.195 6.98 8.931 5.497 7.627 1.352-4.724-15.025-17.137-26.194-23.53-40.572-1.187-2.67-2.311-5.366-3.379-8.082-3.817-24.556-7.324-48.804-7.565-73.851 3.88 14.972 11.503 39.741 22.022 52.037 15.674 18.322 32.981 34.029 38.475 38.71 15.229 12.973 31.886 24.765 31.886 24.765l29.6 75.154z" style="fill:#170900"/></g></g><g transform="translate(592.58 1884.4)"><path d="m0 0c1.515-3.085 16.674-34.032 19.107-42.174 2.433-8.143 11.837-21.127 6.447-29.795-5.389-8.67-22.048-5.286-22.048-5.286s-57.744-0.515-70.643-4.223c-12.898-3.708-22.409-6.285-29.633-13.793s-15.648-18.894-17.708-34.117-1.116-66.334-1.116-66.334l149.49-17.47 261.53 37.711 29.76 26.161s4.209 28.484 0.796 43.066c-3.413 14.583-7.531 29.553-22.565 42.611-15.035 13.059-53.04 1.878-53.04 1.878s-60.366-18.523-73.385-19.561c-13.02-1.038-32.807-4.477-37.123-0.308-4.316 4.17-15.793 44.912-15.793 44.912l-12.171 86.333s1.243 32.911-2.362 36.888c-3.604 3.976-90.617-14.52-90.617-14.52z" style="fill:#fccfa6"/></g><g transform="translate(918.57 1778.1)"><path d="m0 0c-3.413 14.583-7.531 29.552-22.565 42.611-15.035 13.058-53.04 1.877-53.04 1.877s-60.366-18.522-73.385-19.56c-13.02-1.038-32.808-4.478-37.123-0.308-4.316 4.169-15.793 44.911-15.793 44.911l-12.171 86.333s1.243 32.912-2.362 36.888c-3.605 3.977-90.617-14.52-90.617-14.52l-18.93-71.978c1.515-3.086 16.674-34.033 19.107-42.175s11.836-21.126 6.447-29.795-22.048-5.285-22.048-5.285-57.745-0.515-70.643-4.224c-6.939-1.994-12.889-3.668-18.038-5.951 21.881-0.61 45.824-18.556 55.47-35.91 15.277-27.485-0.371-54.195-9.938-81.258l36.328-4.245c6.275 23.005 15.074 45.365 18.009 69.151 0.388 3.142 3.392 3.807 5.645 2.74 11.155 0.868 20.093-1.728 30.439-6.226 7.284-3.167 13.097-3.008 20.499-0.498 4.227 1.433 8.266 2.993 12.791 2.695 2.797-0.185 4.239-2.61 4.192-4.792 6.994-7.736 10.287-19.364 14.322-28.526 3.999-9.082 7.858-18.115 10.964-27.409l64.869 9.354c-9.548 20.807-26.624 37.669-35.375 59.067-0.927 2.266 0.681 4.349 2.608 5.255 25.456 11.97 51.216 24.003 78.334 31.751 17.056 4.874 36.83 9.473 52.994-0.47 17.279-10.628 24.585-33.195 26.853-52.254 0.722-6.075 0.986-12.197 0.877-18.322l20.484 18.006s4.209 28.484 0.796 43.067" style="fill:#d69f70"/></g><g transform="translate(570.03 1677.8)"><path d="m0 0c0.03 0.031 0.054 0.064 0.085 0.096 7.644 7.822 9.134 24.52 11.549 34.851 3.332 14.253 3.982 29.374 8.776 43.244 1.078 3.118 2.483 5.971 4.073 8.678-0.461 2.004-0.31 4.244 0.721 6.591 5.282 12.03 10.978 23.673 14.544 35.907-6.473-1.474-13.693-0.027-13.693-0.027s-57.745-0.515-70.643-4.223c-6.939-1.995-12.889-3.668-18.039-5.951 21.882-0.61 45.825-18.556 55.471-35.91 15.277-27.485-0.371-54.195-9.939-81.258z" style="fill:#eebc8c"/></g><g transform="translate(918.57 1778.1)"><path d="m0 0c-3.413 14.583-7.531 29.552-22.565 42.611-15.035 13.058-53.04 1.877-53.04 1.877s-60.366-18.522-73.385-19.56c-13.02-1.038-32.808-4.478-37.123-0.308-4.252 4.107-15.446 43.682-15.777 44.856-1.01-12.098-2.308-24.186-2.325-36.335-0.013-9.501 0.264-19.062 0.8-28.626 3.844-9.288 8.702-18.137 14.643-26.466 2.032-1.833 4.046-3.687 6.037-5.564-0.068 0.162-0.145 0.319-0.211 0.482-0.927 2.266 0.681 4.349 2.608 5.255 25.456 11.97 51.216 24.003 78.334 31.751 17.056 4.874 36.83 9.473 52.994-0.47 17.279-10.628 24.585-33.195 26.853-52.254 0.722-6.075 0.986-12.197 0.877-18.322l20.484 18.006s4.209 28.484 0.796 43.067" style="fill:#eebc8c"/></g><g clip-path="url(#clipPath21926)" style="opacity:.3"><g transform="translate(843.92 1784.1)"><path d="m0 0c-16.054-15.659-28.289-34.852-36.883-55.589-4.494-10.842-8.266-21.945-12.126-33.013l44.417 6.404c1.418 28.185 4.152 56.258 10.52 83.726-1.989-0.467-3.965-0.978-5.928-1.528m-348.1 5.033c-7.225-7.508-15.648-18.894-17.708-34.117s-1.116-66.334-1.116-66.334l28.468-3.327c-3.134 20.522-6.503 41.009-4.191 61.823 1.955 17.606 11.223 47.371 29.661 56.816-2.238-0.323-4.12-0.677-5.481-1.068-12.898-3.708-22.409-6.285-29.633-13.793" style="fill:#fff"/></g></g><g transform="translate(515.89 1437.6)"><path d="m0 0c0.614-11.717-12.82-26.523-19.609-34.956-9.661-12.002-20.431-23.166-32.182-33.142-9.664-8.205-20.507-14.525-30.672-22.023-11.085-8.177-25.025-18.196-30.896-30.962-4.834-10.509-8.773-21.202 3.632-27.39 13.879-6.922 31.218-10.504 46.113-14.824 30.373-8.809 62.244-15.05 93.613-19.07 28.784-3.689 62.526-2.293 89.713 8.69 12.413 5.014 23.499 11.948 28.888 24.545 6.187 14.464 6.649 29.207 7.035 44.74 0.337 13.564-4.222 27.435 1.447 40.056 5.859 13.043 17.385 21.34 22.499 35.058 7.911 21.218 10.69 51.375-16.476 57.743-12.19 2.858-25.144 1.749-37.539 1.606-18.507-0.215-36.856 1.364-55.274 2.991-15.114 1.335-36.2 7.188-49.809-1.483-13.505-8.605-21.699-22.074-22.338-37.873 0.096 2.249 0.714 4.347 1.855 6.294 0.155-2.951-1.361-2.122 0 0" style="fill:#fccfa6"/></g><g clip-path="url(#clipPath21946)" style="opacity:.3"><g transform="translate(581.89 1309.4)"><path d="m0 0c9.516 0.157 18.987 0.891 28.436 1.901 4.489 1.814 8.751 3.93 12.536 6.516 3.311 2.262 6.497 5.619 9.092 9.542 1.341 10.693 0.66 21.788-1.231 32.081-18.057-3.489-36.201-3.68-54.604-1.335-10.064 1.282-20.025 3.31-29.873 5.732-7.321 1.801-18.148 7.126-25.022 5.583-11.784-2.644-27.762-11.005-40.24-22.166 7.851-7.236 15.06-15.609 21.363-24.678 25.496-8.323 52.831-13.618 79.543-13.176" style="fill:#fff"/></g></g><g transform="translate(679 1466)"><path d="m0 0c-12.19 2.858-25.144 1.749-37.54 1.605-18.506-0.214-36.855 1.365-55.273 2.992-15.114 1.335-36.2 7.188-49.809-1.483-13.506-8.605-21.699-22.075-22.338-37.874 0.083 1.952 0.584 3.783 1.454 5.507 0.09 0.236 0.214 0.496 0.401 0.788 0.021-0.395 9e-3 -0.711-0.02-0.977-0.102-8.708-7.407-18.921-13.847-26.944 14.506 2.013 28.608 6.372 43.179 8.043 7.794 0.894 15.695 1.451 23.538 1.596 10.16 0.187 35.54 1.181 37.228-13.405 1.143-9.887-6.635-21.167-10.499-29.737-2.712-6.014-4.207-12.228-6.121-18.496-1.488-4.875-3.258-9.674-4.333-14.667-0.926-4.301-2.404-13.263 2.637-15.903 2.776-1.454 3.434 1.799 4.078 4.19 1.812 6.722 2.003 13.959 2.387 20.872 0.424 7.632 2.183 14.03 5.637 21.03 2.999 6.08 6.759 11.624 10.667 17.138 2.16 3.048 4.087 6.659 7.917 7.766 6.673 1.929 17.081-1.058 23.418-2.983 7.019-2.132 10.565-5.621 9.01-13.356-1.082-5.38-4.02-10.212-5.14-15.565-1.434-6.857 1.169-14.357 2.015-21.153 1.17-9.407-0.861-18.505-5.705-26.646-9.018-15.159-25.27-24.567-40.958-31.518-16.957-7.514-34.939-12.755-52.616-18.288-10.887-3.407-21.946-6.187-33.064-8.717 10.205-1.782 20.423-3.345 30.591-4.648 28.783-3.688 62.526-2.292 89.713 8.691 12.413 5.014 30.306 25.088 35.695 37.685 6.186 14.464-0.158 16.066 0.228 31.6 0.337 13.564-4.222 27.435 1.447 40.056 5.859 13.043 17.385 21.34 22.499 35.058 7.911 21.218 10.69 51.375-16.476 57.743" style="fill:#eebc8c"/></g><g transform="translate(589.35 1349.5)"><path d="m0 0c0.02 0.177 0.039 0.353 0.059 0.53-1.64-3.599-3.689-6.962-3.668-11.076 9e-3 -1.722 0.029-7.606 2.26-8.12 0.525 3.502 1.142 6.909 1.411 10.468 0.225 2.987-0.201 5.883 0.635 8.785-7e-3 -1.101 0.063-2.202 0.114-3.301" style="fill:#cc8d56"/></g><g transform="translate(695.16 1710.1)"><path d="m0 0c-5.37 2.252-86.792-6.932-103.37-5.284s-46.056 10.626-69.236 8.198-62.877-14.194-62.877-14.194-4.457-0.288-4.217-5.568c0.239-5.279 13.59-26.68 6.507-44.882s-1.051-9.676-15.766-28.912c-14.715-19.237-24.074-25.163-24.075-40.293s11.877-34.407 11.877-34.407 11.936-24.633 23.408-25.343c11.473-0.71 62.079 14.966 62.079 14.966s-1.725-47.156-9.962-62.659c-8.237-15.504-10.71-21.616-21.204-32.847-10.493-11.23-16.711-10.614-15.958-19.626 0.753-9.011 14.183-17.032 15.563-17.124 1.38-0.093 10.428 0.473 10.428 0.473s7.667 9.963 14.206 17.41-7.084-0.049 10.958 6.272 66.003 11.174 68.071 10.617 26.11 0.057 58.183-9.596 48.189-24.739 48.413-25.416c0.224-0.678 25.023-16.745 46.486-19.897 21.462-3.152 49.132-6.711 61.423-4.777 12.291 1.933 29.761 4.789 28.841 13-0.919 8.211 4.446 11.205-5.098 24.526-9.545 13.321-20.927 13.621-25.28 33.991-4.352 20.369 55.294 115.36 55.294 115.36l7.206 0.327s24.352-25.155 29.64-28.01c5.287-2.855 11.604-5.663 19.816-4.774 8.213 0.888 20.894 5.59 18.555 11.673-2.34 6.084-10.083 17.595-10.083 17.595s12.47-2.013 22.601 2.058c10.131 4.07 19.771 7.602 21.246 20.564s2.926 26.438-5.121 44.641-10.971 37.155-10.479 49.04c0.493 11.885 0.447 35.61-4.208 47.262-4.655 11.651-0.56 12.353-9.474 15.559s-37.294 3.465-37.294 3.465l-58.492-6.781z" style="fill:#ebda28"/></g><g clip-path="url(#clipPath21974)" style="opacity:.2"><g transform="translate(963.72 1628.1)"><path d="m0 0c-8.047 18.203-10.971 37.155-10.478 49.04 0.492 11.885 0.447 35.61-4.209 47.262-4.655 11.651-0.56 12.353-9.474 15.559-4.626 1.664-14.492 2.533-22.917 2.985 1.793-7.742 3.162-15.662 5.625-23.2 10.807-33.06 31.315-69.371 19.95-105.06-9.235-28.998-39.824-28.92-64.252-21.141-27.901 8.884-53.269 20.396-68.207 46.883-8.966 15.899-17.028 31.863-27.922 46.618-8.486 11.495-17.656 22.456-26.335 33.793l-50.457-9.033c16.948-25.565 34.391-57.299 35.386-88.536 0.435-13.644-3.365-27.305-14.486-36.007-17.129-13.403-38.359-6.467-57.506-2.526-19.489 4.012-35.016-7.336-54.037-8.676-18.984-1.338-29.589 13.615-30.57 31.296-1.07 19.299 3.873 39.836 5.752 59.066 1.214 12.421 2.461 25.741 6.012 38.144-1.492 0.025-2.771 0.085-3.798 0.187-12.491 1.241-32.299 6.638-51.222 8.189 0.342-1.939 0.591-3.933 0.654-6.03 0.706-23.466-15.472-44.382-30.363-60.915-18.18-20.184-40.392-36.986-56.964-58.542-7.941-10.329-16.446-23.655-16.332-37.169 0.044-5.107 2.062-10.886 2.747-16.404 4.517-6.716 10.875-14.145 17.101-14.53 11.472-0.71 62.078 14.966 62.078 14.966s-1.247-34.01-6.669-53.758c12.057 6.239 22.54 19.637 31.844 27.641 14.936 12.85 34.228 21.021 52.966 26.585 33.022 9.806 67.247 11.838 95.955-9.735 16.477-12.381 27.998-26.893 42.363-42.268 12.649-13.539 28.06-28.578 34.785-46.258 6.644-17.467-6.058-27.106-22.765-25.695-39.033 3.297-76.886 19.357-114.76 28.395-39.106 9.332-79.254 12.465-115.88-7.219-11.682-6.277-22.054-19.188-33.896-27.447 2.225-1.538 4.037-2.466 4.497-2.497 1.38-0.092 10.428 0.473 10.428 0.473s7.667 9.963 14.206 17.41c2.152 2.451 2.118 3.279 1.75 3.518 1.041 0.157 3.587 0.785 9.208 2.754 18.042 6.321 66.004 11.174 68.071 10.617 2.068-0.556 26.11 0.057 58.183-9.596 32.074-9.653 48.19-24.739 48.413-25.416 0.224-0.678 25.023-16.745 46.486-19.897 21.462-3.152 49.132-6.711 61.423-4.777 12.292 1.933 29.761 4.789 28.842 13-0.92 8.211 4.446 11.205-5.099 24.526s-20.927 13.621-25.28 33.991c-4.352 20.369 55.294 115.36 55.294 115.36l7.206 0.327s24.352-25.155 29.64-28.01c5.287-2.855 11.604-5.663 19.816-4.774 8.213 0.888 20.894 5.59 18.555 11.673-2.339 6.084-10.083 17.595-10.083 17.595s12.47-2.013 22.601 2.058c10.131 4.07 19.771 7.602 21.246 20.564s2.926 26.438-5.121 44.641" style="fill:#170900"/></g></g><g clip-path="url(#clipPath21990)" style="opacity:.3"><g transform="translate(628.96 1688.9)"><path d="m0 0c-4.821 2.283-29.53 7.415-30.406 9.028 1.793-5.408 6.275-21.748 6.365-23.451 0.346-6.568 2.914-12.539 3.184-18.764 9.467-7.296 21.327-11.483 33.284-15.289 5.154 3.792 10.488 7.359 15.951 10.716 5.632 3.462 11.464 6.346 17.28 9.467 0.686 0.368 1.596 0.807 2.63 1.307-3.211 12.764-5.563 31.523-5.748 36.74-7.274-0.93-37.212-12.278-42.54-9.754m249.18 35.707c-1.694 0.326-2.123 0.127 0 0m4.727-0.072c-2.216-0.031-3.742 0.012-4.727 0.072 0.361-0.07 0.775-0.161 1.237-0.284 0.269-0.072 0.488-0.116 0.724-0.169 0.13 0.018 0.259 0.034 0.389 0.052 0.783 0.112 1.579 0.25 2.377 0.329m-2.766-0.381c-9.691-1.368-19.362-2.449-29.134-3.163-10.279-0.751-20.582-1.462-30.788-2.919-3.137-0.448-9.232-0.599-11.956-2.912 1-1.74 2.129-3.395 3.389-4.963 2.797-5.427 4.476-11.198 5.038-17.315 1.539-11.732-1.398-23.658 1.881-35.12 5.158-18.027 22.704-30.528 39.371-36.894-1.456 7.943-4.021 14.352-4.76 22.856-0.204 5.796-0.409 11.593-0.613 17.39 0.056 8.38 2.444 15.854 7.166 22.421 5.651 9.665 13.271 17.705 19.327 27.133 2.525 3.93 7.294 9.509 7.718 14.227-3.068-0.707-3.652-1.416-6.639-0.741m2.766 0.381c0.522 7e-3 1.08 0.019 1.68 0.035-0.558 0.05-1.119 0.02-1.68-0.035m-368.04-247.01c0.204 1.117 0.673 2.121 1.28 3.049-3.601-1.553-2.396-2.221-1.28-3.049m20.123 4.526c-2.613 3.285-4.151 6.425-8.957 4.994-3.462-1.031-7.727-3.168-9.886-6.471 0.276 0.119 0.573 0.242 0.909 0.373-0.232-2.745-1.185-5.597-1.827-8.277-1.717-7.164-3.505-14.74-6.677-21.398-2.75-5.773-7.39-9.397-11.477-14.135-1.752-2.031-2.273-4.571-3.842-6.582 1.498 2.687 5.721 4.191 8.298 5.628 9.486 5.289 18.941 10.736 28.743 15.418 8.189 3.912 16.507 5.368 25.353 7.006 9.659 1.789 19.359 3.603 28.947 5.734-12.038 4.176-25.95 2.546-37.714 7.923-4.987 2.28-8.521 5.575-11.87 9.787m-35.122 221.44c-0.382-0.261-0.753-0.55-1.13-0.826 0.683 0.119 1.365 0.267 2.049 0.365-6.343 4.048-4.666 1.03-0.919 0.461m-20.854-43.095c0.101 13.937 2.793 25.804 12.605 35.979 2.202 2.284 4.6 4.441 7.119 6.29-5.698-0.999-11.369-2.631-17.094-3.558-5.649-0.916-14.11-1.362-18.603-5.814-2.07-2.051-2.14-2.65-1.741-4.972 0.574-1.538 1.278-3.018 2.114-4.441 1.966-4.649 3.281-9.481 3.944-14.497 1.437-7.533 3.056-15.164 2.008-22.846-1.197-8.783-6.257-16.889-12.272-23.114-10.153-10.509-20.709-20.501-20.18-36.204 2.793 1.469 4.971 7.134 6.841 9.733 5.359 7.449 13.39 14.876 20.176 20.981 4.817 4.333 15.936 10.439 18.001 17.366 0.331 3.984-0.047 7.885-1.131 11.703-1.101 4.388-1.697 8.853-1.787 13.394" style="fill:#fff"/></g></g><g transform="translate(516.08 1908.7)"><path d="m0 0c-3.468-4.982-16.104-29.625-14.888-41.261s9.254-19.527 9.254-19.527 32-40.884 32.802-43.404c0.802-2.521 12.443-16.568 10.989-29.978-1.455-13.409-0.924-9.947-1.455-13.409-0.53-3.463-41.683-82.761-42.93-85.021-1.248-2.261-41.403-87.297-44.772-96.391-3.37-9.093-13.271-18.229-14.608-34.234s1.937-42.677 1.937-42.677c7.797-20.278 8.296-31.259 17.499-29.466 9.202 1.793 26.298 3.945 32.225 9.716 5.928 5.77 21.932 16.812 31.354 36.496 9.423 19.684 17.137 31.547 21.704 52.131 4.568 20.584 21.202 123.81 21.795 125.9s14.985 48.651 15.667 48.766c0.682 0.116 6.33 12.064 6.33 12.064s3.344 2.079 10.392 13.47 9.891 2.58 9.765 16.329c-0.127 13.748-1.87 21.856-10.106 36.645-8.237 14.789-12.504 17.89-13.318 20.676-0.814 2.785-3.932 26.026-4.088 29.458-0.155 3.431-75.548 33.718-75.548 33.718" style="fill:#fccfa6"/></g><g clip-path="url(#clipPath22010)" style="opacity:.3"><g transform="translate(572.55 1794.6)"><path d="m0 0c-5.175 10.484-14.578 20.181-24.869 26.057-0.787-10.274 1.554-20.167 3.397-30.201 2.151-4.869 3.76-10.452 3.165-15.941-1.455-13.41-0.925-9.947-1.455-13.41-0.531-3.462-41.683-82.76-42.931-85.021s-41.402-87.297-44.772-96.39-13.271-18.229-14.607-34.234c-1.135-13.585 1.051-34.846 1.739-40.969 0.188 0.109 0.373 0.234 0.56 0.346 11.507 38.156 28.244 75.312 43.255 111.88 9.286 22.622 20.329 44.384 30.26 66.714 9.372 21.074 18.457 42.268 29.798 62.384 0.861 1.528 2.065 2.447 3.379 2.924 0.465 1.208 0.966 2.391 1.542 3.52 2.308 4.525 6.294 7.905 9.406 11.829 6.978 8.797 7.026 20.598 2.133 30.512" style="fill:#fff"/></g></g><g transform="translate(609.04 1824.8)"><path d="m0 0c-8.236 14.789-12.503 17.89-13.317 20.676-0.815 2.786-3.933 26.026-4.088 29.458-0.156 3.431-75.549 33.718-75.549 33.718-3.467-4.982-16.103-29.625-14.888-41.261 1.216-11.636 9.255-19.526 9.255-19.526s11.893-15.196 21.36-27.631c1.603 2.77 4.443 5.105 8.839 6.634 13.04 4.536 26.916-1.292 34.631-12.137 9.436-13.263 12.89-31.936 9.151-47.723-2.257-9.528-6.813-18.376-10.595-27.342-4.641-11.002-7.469-22.644-10.39-34.199-11.013-43.559-19.021-87.936-35.171-130.04-5.613-14.631-38.36-81.015-67.886-95.098 2.321-5.449 4.752-7.978 9.522-7.048 9.203 1.793 26.298 3.944 32.226 9.715 5.927 5.77 21.931 16.813 31.354 36.496 9.422 19.684 17.136 31.547 21.704 52.131 4.567 20.584 21.201 123.81 21.794 125.9s14.985 48.651 15.667 48.767c0.683 0.115 4.459 8.179 16.773 22.509 4.332 5.04 9.84 5.604 9.714 19.353-0.127 13.749-1.87 21.856-10.106 36.645" style="fill:#eebc8c"/></g><g transform="translate(590.92 1782.1)"><path d="m0 0c0.301 1.025 0.601 2.05 0.89 3.077 0.228 0.814 0.473 1.655 0.718 2.497 0.53 6.103 0.474 12.148-0.245 18.199-2.728 4.804-6.205 9.05-9.13 13.953-3.301 5.534-6.009 11.505-3.525 17.892 2.611 6.713 9.748 8.912 13.707 14.447 0.328 0.459 0.679 0.842 1.044 1.17-1.185 7.984-2.64 19.324-2.745 21.641-0.156 3.431-75.548 33.718-75.548 33.718-0.867-1.245-2.307-3.719-3.96-6.912 2.717-0.616 5.148-2.806 5.479-6.027 0.458-4.453-4.585-16.464-6.075-24.365 1.731-1.834 3.433-3.69 5.122-5.556 5.82-5.158 11.184-10.788 16.51-16.52 26.114-18.834 58.07-34.31 57.758-67.214" style="fill:#e6ab78"/></g><g transform="translate(473.61 2094.2)"><path d="m0 0c-2.441-15.934-5.267-31.954-4.461-48.149 0.892-17.911 9.306-35.137 16.6-51.231 4.04-8.913 12.23-19.423 13.332-29.034 1.992-17.366-10.484-29.848-21.2-41.473-1.617-1.754-1.349-4.519 0.568-5.939 3.217-2.384 2.914-2.335 10.263-5.39 3.729-1.55 6.492-2.038 9.594-3.143 3.99-1.421 2.67 0.098 3.697-3.808 1.566-5.951-2.131-16.712 5.741-19.35 4.321-1.447 13.174 0.598 17.886 0.812-4.907-3.852-10.006-9.008-6.179-15.385 3.31-5.515 5.932-1.386 10.835-3.3 6.581-2.568 10.592-13.632 12.54-19.745 1.335-4.188 1.899-10.087 6.416-12.077 3.819-1.683 13.966-0.71 17.844 0.81 2.967 1.163 5.968 4.186 8.555 6.001 8.463 5.937 17.869 11.368 25.745 18.059 8.805 7.481 16.138 17.526 24.561 24.915 3.393 2.976 6.613 6.149 9.376 9.719 8.575 11.08 16.118 23.06 24.09 34.544 2.553 3.678 4.987 7.435 7.559 11.1 1.62 2.31 5.527 6.093 6.122 8.807 0.63 2.872-1.537 6.86-2.541 9.66-2.903 8.096-6.015 16.119-9.119 24.139-9.248 23.895-18.753 47.691-28.283 71.474-8.097 20.205-16.237 40.393-24.412 60.566-0.915 2.26-2.358 9.34-4.426 10.91-3.315 2.519-14.53 1.54-18.686 1.975-14.613 1.53-29.226 3.06-43.839 4.59-5.317 0.557-13.486 3.096-18.295 0.923-3.705-1.674-7.508-6.168-10.606-8.713-5.477-4.499-10.954-8.999-16.431-13.499z" style="fill:#fccfa6"/></g><g transform="translate(670.55 1960.6)"><path d="m0 0c-2.903 8.096-6.015 16.119-9.119 24.14-9.248 23.894-18.753 47.69-28.283 71.473-8.097 20.205-16.237 40.393-24.412 60.566-0.915 2.26-2.358 9.34-4.426 10.911-3.315 2.518-14.53 1.539-18.686 1.974-14.613 1.53-29.226 3.06-43.839 4.59-5.317 0.557-13.486 3.097-18.295 0.923-3.705-1.674-7.508-6.168-10.606-8.712l-39.277-32.268c-2.442-15.934-5.267-31.954-4.461-48.149 0.484-9.716 3.772-24.426 8.917-34.349 1.483 2.13 10.762 13.851 12.812 15.284 9.06 6.335 14.747 4.941 14.382 4.607 5.454-1.773 13.951-2.212 14.973-8.776 0.682-4.386-3.556-4.116-7.16-15.627 7.268 5.843 14.597 10.978 18.952 6.706 3.183-3.123 7.068-5.182 6.357-9.261 2.122 2.274 4.356 4.483 6.723 6.404 4.716 8.352 16.696 9.502 24.758 3.023 8.824-7.092 12.435-16.896 13.438-27.309 1.62-6.641 1.644-13.942 1.903-20.665 0.389-10.089 0.496-20.27-0.187-30.349-0.092-1.357-0.055-3.399-0.228-5.443 0.018-0.149 0.061-0.285 0.045-0.449-0.86-8.853-4.806-17.271-8.574-25.462 13.332 10.62 25.204 21.915 34.035 36.982 0.799 1.364 3.088 1.485 3.584-0.244 5.022-17.515 10.4-36.037 5.434-54.197-1.029-3.761-2.393-7.379-3.973-10.903 3.47 3.799 6.935 7.529 10.607 10.75 3.393 2.976 6.613 6.149 9.375 9.719 8.576 11.08 16.119 23.06 24.091 34.544 2.553 3.678 4.987 7.436 7.559 11.1 1.62 2.31 5.526 6.093 6.122 8.807 0.63 2.872-1.537 6.86-2.541 9.66m-168.05-42.63c-1.841 0.802-5.776 0.012-7.789 0.065-5.674 0.151-11.339 0.577-16.996 1.057 0.211-0.263 0.448-0.51 0.732-0.721 3.217-2.384 2.914-2.335 10.263-5.389 3.729-1.55 6.492-2.039 9.594-3.144 2.047-0.729 2.694-0.687 2.98-0.998 1.086 0.433 2.138 0.916 3.156 1.479 1.474 2.84 1.333 6.224-1.94 7.651" style="fill:#eeb885"/></g><g transform="translate(545.31 1899.3)"><path d="m0 0c0.969 2.048 3.706 5.298 4.529 7.408 0.12 0.944-2.411 1.171-3.495 0.555-4.615-6.708-12.827-7.926-20.477-8.502-5.268-0.396-27.844-0.959-21.478-9.773 0.319-0.441 0.572-0.193 0.559-0.611 0.716-0.716 1.62-1.304 2.8-1.699 4.32-1.448 13.173 0.598 17.886 0.811-4.908-3.851-10.006-9.007-6.179-15.384 2.106-3.51 3.936-3.115 6.25-2.857 4.828 2.31 8.948 8.726 11.739 13.484 3.319 6.906 1.582 7.389 7.866 16.568" style="fill:#c70074"/></g><g clip-path="url(#clipPath22046)" style="opacity:.3"><g transform="translate(520.59 1874.6)"><path d="m0 0c0.574 0.02 1.198 0.143 1.929 0.486 0.141 0.066 0.275 0.153 0.413 0.227 0.893 1.982 1.891 3.92 3.07 5.792 2.307 3.665 5.6 6.745 7.996 10.32-4.172-2.144-8.167-4.601-11.37-7.887-1.705-2.353-3.029-5.139-2.45-7.784 0.098-0.452 0.246-0.82 0.412-1.154" style="fill:#fff"/></g></g><g transform="translate(530.09 1890.3)"><path d="m0 0c3.438 2.394 6.873 4.795 9.961 7.627 3.279 3.008 6.051 6.544 9.485 9.382-0.686 0.46-2.359 0.484-3.188 0.013-4.616-6.708-12.828-7.926-20.478-8.502-5.268-0.396-27.844-0.959-21.477-9.773 0.318-0.441 0.571-0.193 0.558-0.611 0.716-0.716 1.621-1.304 2.8-1.699 4.096-1.373 12.222 0.376 17.076 0.747 1.682 1.038 3.466 1.931 5.263 2.816" style="fill:#990058"/></g><g clip-path="url(#clipPath22066)" style="opacity:.10001"><g transform="translate(519.55 1987.2)"><path d="m0 0c0.372-4.634 0.563-0.577 0 0-4.933 5.048-18.864 21.027-15.937 37.299 2.531 14.075 21.522 23.631 32.488 24.141 3.446 0.16 13.971 1.449 16.596-10.095 1.141-5.019-1.367-10.635-2.114-15.846-1.761-12.285-21.574-32.701-30.301-39.146-0.795 1.173-1.039 2.389-0.732 3.647 0.022-0.28-0.693 0.654 0 0" style="fill:#b90066"/></g></g><g clip-path="url(#clipPath22082)" style="opacity:.3"><g transform="translate(501.95 1955)"><path d="m0 0c-2.198-12.38-9.846-22.923-16.562-34.014 5.354 0.285 10.686-0.278 16.102-0.26 0.973 3e-3 1.74-0.336 2.316-0.85 4.126 3.944 0.573 12.489-0.044 17.685-0.691 5.812-1.255 11.625-1.812 17.439m89.522-100.46c-8.148-4.057-17.611-8.9-27.016-7.134-13.164 2.471-20.274 15.834-22.721 29.33-2.646-3.584-5.672-6.873-9.256-9.141 5.291-3.857 8.627-13.112 10.348-18.514 1.335-4.187 1.899-10.087 6.416-12.077 3.819-1.683 13.966-0.71 17.844 0.81 2.967 1.164 5.967 4.186 8.555 6.002 5.353 3.754 11.081 7.308 16.562 11.105-0.246-0.124-0.486-0.258-0.732-0.381m-61.111 113.33c0.498 8.627 1.052 18.313 3.576 27.088-1.998-1.387-4.035-2.382-5.93-2.77-1.321-1.778-4.554-2.427-5.841-0.118-0.404 0.724-0.804 1.448-1.199 2.173-3.65 3.116-6.3 8.93-7.501 14.102-3.838-6.562-1.741-11.152 1.877-18.019 2.695-5.115 2.442-8.39 0.869-13.629-3.416-11.371 2.313-20.846 8.117-30.562 2.499-4.183 5.101-8.289 7.828-12.307-1.947 11.201-2.453 22.624-1.796 34.042" style="fill:#fff"/></g></g><g clip-path="url(#clipPath22098)" style="opacity:.3"><g transform="translate(517.24 1985)"><path d="m 0,0 c 0.071,0.89 -2.548,5.286 -2.309,7.458 0.526,4.784 6.295,8.607 9.813,11.504 6.884,5.669 20.365,10.206 24.295,18.263 C 33.361,29.089 24.908,19.763 19.782,15.51 16.61,12.878 3.895,0.464 2.495,0.579 2.491,0.526 1,-0.082 0,0" style="fill:#b90066"/></g></g><g transform="translate(546.66 2011.9)"><path d="m0 0c-9.675-5.301-22.807-14.364-29.303-23.202-1.429-1.944 1.776-5.03-6.657-14.451 7.636-0.552 15.414 12.378 19.424 17.266 3.227 3.932 8.608 8.103 11.526 12.267 1.115 1.592 6.546 8.962 5.01 8.12"/></g><g transform="translate(536.3 2053.6)"><path d="m0 0c-18.276-1.8-34.043-13.952-36.81-33.608 3.001 1.306 6.013 8.124 8.216 10.691 3.333 3.881 6.887 7.521 10.928 10.671 3.571 2.784 7.469 5.514 11.463 7.647 1.872 0.999 7.859 2.242 9.64 4.126-1.132 0.016-2.292 0.213-3.437 0.473" style="fill:#592f00"/></g><g transform="translate(583.85 2167.6)"><path d="m0 0c-9.073-0.315-14.185 0.141-21.042-6.408-6.142-5.866-6.822-23.173-12.578-26.723-2.907-1.793-22.039-0.508-26.374-0.352-10.411 0.374-10.079-2.913-9.866 8.338 0.294 15.509 17.791 27.467 31.167 28.864 8.933 0.934 19.385-0.27 28.069-2.103 2.203-0.465 13.614-5.715 10.624-1.616-2.761-0.096 1.626-2.229 0 0" style="fill:#1f1f1f"/></g><g transform="translate(860.92 1930.7)"><path d="m0 0c-14.756 8.711-23.691 18.034-32.064 32.806-12.427 21.925-22.55 44.245-31.52 67.681-10.224 26.712-18.927 59.641-38.902 80.93-26.784 28.546-67.956 54.371-108.25 54.995-7.476 0.116-15.303-1.666-22.587-0.686-8.118 1.092-15.844 4.365-24.137 5.132-18.328 1.693-32.057-11.451-45.595-22.318-17.732 2.326-39.411 5.336-55.121-4.71-18.246-11.668-34.663-24.665-51.085-38.591-16.515-14.005-34.126-29.191-53.608-38.9-17.334-8.639-35.32-16.126-53.031-23.958 29.169 3.277 61.972 4.718 85.561 24.046-17.407-27.212-48.574-32.785-77.858-38.837-21.004-4.341-42.04-7.977-63.272-10.934 11.636-3.173 23.971-8.244 35.919-9.681 13.149-1.581 27.57 0.378 40.832 0.559-12.415-5.497-24.83-10.994-37.245-16.492 0.419 0.025 0.837 0.045 1.256 0.068 0.438 0.146 23.009 1.007 33.138 2.855 16.716 3.048 31.551 10.896 45.981 19.546 0.919 0.551-9.232-15.172-12.764-16.941-8.693-5.767-18.968-8.362-29.513-9.612-3.803-0.574-7.667-0.888-11.527-1.047-7.132-2.258-14.797-1.776-22.093-3.492-9.45-2.221-18.175-6.522-26.368-11.642-0.783-0.489-1.551-0.998-2.323-1.503 12.085 2.812 24.161 3.549 36.99 3.506 9.469-0.033 19.098-0.33 28.483-1.874 6.92 0.199 13.87 0.388 20.771 1.528 0.145 0.024 0.258-7e-3 0.384-0.016 1.257 0.362 2.512 0.737 3.761 1.17 0.234 0.082 0.459 0.099 0.673 0.077 1.262 0.385 2.523 0.777 3.784 1.168 9.059 4.249 17.912 8.954 26.373 13.702 25.298 14.198 44.609 34.49 66.525 53.133 22.824 19.416 50.127 34.46 71.272 55.636 5.076 5.084 8.735 9.495 9.334-0.596 0.278-4.677 0.033-9.051 0.597-13.789 1.243-10.44 3.023-20.895 5.901-31.018 3.334-11.727 10.601-20.605 14.804-31.776 2.418-6.427 1.079-12.936 0.766-19.63-0.685-14.627-3.984-29.123-8.827-42.888-4.337-12.326-8.284-24.784-12.601-37.117-2.129-6.08-4.024-16.094-9.025-20.61 10.229 9.236 20.436 18.405 28.897 29.373 12.787 16.577 18.214 38.013 27.556 56.607 8.569 17.056 7.268 23.782 14.35 12.572 6.446-10.203 8.305-130.65 10.554-141.61 2.248-10.954 13.729 123.07 16.256 111.55 5.304-24.179 44.614-77.979 45.373-102.88 0.331-10.882 0.085-21.902-1.403-32.701-0.202-1.463-4.317-15.745-3.756-16.272 2.808-2.639 39.45 47.831 41.951 51.579 7.231 10.836 14.407 22.089 18.115 34.671 2.2 7.463 6.2 19.189 4.041 27.756 5.313-15.419 9.813-31.87 10.458-48.139 0.804-20.264-5.775-41.785-10.433-61.414 10.542 15.936 20.211 34.01 24.449 52.735 5.058 22.354 0.393 47.671-5.243 69.575 9.453-18.096 16.314-39.461 15.892-60.002-0.311-15.12-3.928-30.677-7.706-45.262-1.97-7.604-6.216-15.595-7.633-23.159 0.05 0.269 3.683 3.071 4.119 3.498 3.69 3.619 6.698 8.204 9.339 12.609 8.469 14.123 12.684 30.293 13.623 46.66 1.514 26.373-3.154 53.862-10.707 79.107 9.501-11.49 21.184-22.615 34.601-29.31 17.031-8.498 38.742-9.172 57.128-14.375-11.493 4.995-22.817 10.579-33.61 16.95" style="fill:#733c00"/></g><g transform="translate(566.82 2107.5)"><path d="m0 0c-11.782-11.701-23.799-23.141-36.209-34.178-11.877-10.562-24.34-20.474-35.716-31.592-10.458-10.221-20.108-21.194-27.082-34.123-2.558-4.743-4.348-11.656-5.597-18.526 5.987 21.645 20.871 39.734 37.756 55.583 22.31 20.941 46.733 39.63 67.181 62.532 0.194 0.218-0.128 0.508-0.333 0.304m-104.6-118.42c-2.072-7.493-3.086-15.41-2.738-23.812 0.019-0.451 0.522 11.614 2.738 23.812m131.19-0.941c5.655 20.221 8.212 41.147 10.727 61.955 0.045 0.371-0.249 0.585-0.536 0.604-0.546-8.769-2.129-17.439-3.014-26.218-0.118-1.168-0.694-1.905-1.453-2.292-1.894-12.182-4.18-24.295-7.593-36.147-0.369-1.281-0.804-2.535-1.203-3.803-8.201-15.133-20.03-31.573-36.875-34.832-0.053-0.01-0.061-0.053-0.103-0.072 2.264-4e-3 4.502 0.114 6.643 0.854 0.234 0.081 0.458 0.13 0.677 0.164 11.501 4.803 20.402 15.637 27.24 26.739-2.51-6.903-5.39-13.657-8.584-20.305-3.471-7.225-7.411-13.661-12.062-19.748-0.654-0.998-1.331-1.984-2.027-2.963-1.133-1.594-2.196-3.263-3.272-4.922 6.894 7.555 12.412 15.272 17.094 24.591s8.826 18.891 12.057 28.808c1.484 2.653 2.861 5.269 4.121 7.764 1.904 3.766 3.663 7.626 5.23 11.563 0.341 2.433 0.626 4.874 0.885 7.318-1.818-5.654-4.094-11.167-6.691-16.509-0.405-0.833-0.832-1.69-1.261-2.549" style="fill:#733c00"/></g><g clip-path="url(#clipPath22134)" style="opacity:.3"><g transform="translate(664.49 2136.7)"><path d="m0 0c-0.182 0.201-0.279 0.441-0.325 0.705-0.353 0.399-0.723 0.78-1.146 1.102 0.424-0.618 1.065-1.132 1.471-1.807m16.392-1.199c-0.44 0.417-0.876 0.84-1.343 1.212 0.11-0.347 0.657-0.778 1.343-1.212m-13.962-1.687c-0.676 0.79-1.398 1.599-2.201 2.233l6.808-7.931c-0.019 0.026-0.037 0.053-0.056 0.079-1.559 1.836-3.083 3.702-4.551 5.619m75.261-80.243c-1.577 6.277-3.745 12.34-6.503 18.19-1.379 2.4-2.513 4.906-3.4 7.516 5.659-4.925 8.762-12.965 12.358-19.365-2.636 9.346-7.573 18.35-12.545 26.626l-6.51 10.32c-5.414 7.393-11.557 14.123-18.426 20.188-6.97 6.362-14.113 11.642-22.221 16.362-0.27 0.157-2.538 1.135-4.052 2.093 2.098-1.985 3.941-4.372 5.837-6.489 1.523-1.701 4.573-4.247 4.554-6.716-6.204 2.331-10.373 7.218-15.464 11.221-3.885 3.056-8.104 5.788-12.326 8.36 2.999-3.621 6.313-6.96 9.348-10.553-1.002 1.27-3.337 2.526-4.456 3.355-0.958 0.709-3.056 2.975-4.247 2.886 4e-3 -0.057 0.027-0.106 0.037-0.16 0.759-0.86 1.404-1.84 2.082-2.745 0.217-0.29 0.453-0.56 0.673-0.846 0.237-0.278 0.47-0.553 0.698-0.818 1.329-1.545 2.612-3.152 3.853-4.801 1.011-1.191 2.023-2.38 3.05-3.567l-2.994 3.488c3.615-4.813 6.862-9.994 9.749-15.156 5.011-8.958 9.766-18.195 12.746-28.052 0.881-2.914 1.317-6.422 2.76-9.108 0.175 6.956 0.37 13.941-1.285 20.739 0.921 0.275 5.3-6.429 4.396-5.101 2.895-4.251 5.223-8.81 7.689-13.312 0.654 6.405-1.694 12.873-4.021 18.728-2.316 5.827-4.938 11.706-9.006 16.552 10.886-10.275 20.273-21.586 28.354-34.222 10.093-15.785 17.38-32.82 22.471-50.826 0.384 2.18 0.31 4.378-0.221 6.594-0.464 6.289-1.457 12.495-2.978 18.619m-122.78-3.578c-0.341-2.034-0.708-4.063-1.095-6.078 0.563 1.987 0.896 4.024 1.095 6.078m-19.867 65.785c-6.041 5.307-13.108 9.265-19.875 13.768 3.525-3.332 6.229-7.519 8.5-11.563 2.882-5.131 5.665-10.355 6.662-16.087-1.598 1.115-2.746 2.558-3.442 4.328-2.203 3.16-4.419 6.313-6.647 9.459-1.542 2.309-3.164 4.743-4.366 7.23-0.548-2.221 0.389-5.206 0.846-7.166 0.783-3.362 1.569-6.678 2.053-10.098-1.31 2.597-3.016 5.016-4.079 7.71-0.462 1.17-0.421 2.795-1.36 3.654-0.82-0.858-0.956-2.602-1.06-3.631-0.074-0.734-0.198-1.533-0.28-2.324-0.058 0.787-0.228 1.851-0.628 3.471-0.455-12.079 0.662-24.261 3.706-35.966 2.169-8.338 4.828-16.512 8.727-24.321 1.762-3.529 3.589-7.292 6.435-10.257-3.033 8.523-4.025 17.9-5.325 26.794 5.567-11.087 9.595-22.812 12.468-34.699-0.431 6.69-0.196 13.404-0.716 20.091-0.643 8.277-2.665 16.15-4.757 24.172 4.798-13.016 9.592-26.559 10.134-40.414 0.258-6.606-0.76-13.206-1.707-19.786-0.701-4.876-1.325-9.791-2.643-14.594 3.809 13.731 8.164 27.631 10.721 41.553 1.676 9.129 2.147 18.071 1.787 27.264l-0.261 5.832c-0.653 1.502-0.552 2.883 0.302 4.143 2.831-6.842 3.948-14.275 4.53-21.563 0.332-4.165 0.555-8.514 0.142-12.785 2.591 15.488 3.423 31.383-3.954 45.74-3.779 7.355-9.444 14.363-15.913 20.045m-41.277 3.584c-9.368-3.143-22.158-11.32-25.695-10.373 7.768 10.669 23.597 11.884 29.633 15.67-0.143 3.496-16.22 0.586-17.48 0.312-6.49-1.416-17.988-8.918-24.284-10.859 3.994 3.277 14.157 10.001 18.925 12 3.222 1.41 6.555 2.443 10.001 3.098 1.171-0.212 2.046 0.094 2.624 0.917-7.964 1.08-28.258-5.705-35.738-8.21 4.052 7.329 24.324 10.015 26.033 10.672-1.199-0.18-2.35-0.138-3.49-0.028-1.658-0.714-4.633 0.159-6.082 0.248-8.979 0.555-17.8-1.584-25.938-5.196-9.45-4.196-18.788-9.095-26.781-15.738-3.603-2.996-8.712-6.674-10.671-11.071 5.311 2.979 9.949 6.828 15.545 9.391 1.138 0.521 18.181 8.694 18.095 9.056-9.232-9.595-25.174-21.764-33.989-31.494-7.136-7.876-13.942-15.73-20.265-24.277 8.102 8.384 27.343 24.993 36.775 31.767-7.096-10.721-25.836-29.811-33.031-40.466 3.076 0.742 5.704 2.401 7.884 4.976 5.122 3.927 10.123 8.003 15.002 12.229 6.443 5.46 28.116 34.419 29.623 31.624-5.595-4.954-19.898-26.201-24.204-32.024-7.777-10.515-16.244-20.234-26.148-28.788-7.649-6.608-15.862-12.743-24.907-17.321-3.964-2.007-10.066-3.532-13.24-6.574 17.546 4.168 34.772 12.472 50.084 21.753 8.785 5.325 14.192 11.189 21.135 18.801 4.521 4.955 18.719 21.177 26.817 28.508-8.134-17.906-29.445-34.289-38.511-44.553 5.721 1.689 11.804 6.326 16.489 9.481 7.555 5.087 15.634 10.5 22.398 16.686 9.952 9.101 19.405 18.746 29.537 27.652 5.239 4.605 10.513 9.114 15.679 13.808 2.018 1.834 4.01 3.694 5.947 5.616 0.843 0.837 1.898 1.484 2.177 2.734-2.316 1.494-7.686 0.732-9.949-0.027m-18.564 13.928-6.262-0.284c1.852 0.057 3.591-0.276 5.355-0.445 0.374 0.161 0.703 0.376 0.907 0.729" style="fill:#fff"/></g></g><g clip-path="url(#clipPath22150)" style="opacity:.3"><g transform="translate(860.92 1930.7)"><path d="m0 0c-14.756 8.711-23.691 18.034-32.064 32.806-12.427 21.925-22.55 44.245-31.52 67.681-10.224 26.712-18.927 59.641-38.902 80.93-4.087 4.356-8.513 8.647-13.215 12.796 8.006-12.605 13.92-26.928 18.319-38.29 17.024-43.976 19.367-92.446 30.888-137.92 0.511-2.019-20.656 27.907-28.241 43.229 6.108-23.324 14.662-46.033 15.112-70.48 0.04-2.178-16.23 30.219-24.032 44.978 2.453-19.557-3.951-40.004-12.652-57.441-5.555-11.135-12.394-21.632-20.53-31.052-4.849-5.615-10.033-10.941-15.562-15.89-0.206-0.185-0.464-0.392-0.75-0.612 0.127-9.327-0.207-18.713-1.479-27.941-0.202-1.463-4.317-15.745-3.756-16.272 2.808-2.639 39.45 47.831 41.951 51.579 7.231 10.836 14.407 22.089 18.115 34.671 2.2 7.463 6.2 19.189 4.041 27.756 5.313-15.419 9.813-31.87 10.458-48.139 0.804-20.264-5.775-41.785-10.433-61.414 10.542 15.936 20.211 34.01 24.449 52.735 5.058 22.354 0.393 47.671-5.243 69.575 9.453-18.096 16.314-39.461 15.892-60.002-0.311-15.12-3.928-30.677-7.706-45.262-1.97-7.604-6.216-15.595-7.633-23.159 0.05 0.269 3.683 3.071 4.119 3.498 3.69 3.619 6.698 8.204 9.339 12.609 8.469 14.123 12.684 30.293 13.623 46.66 1.514 26.373-3.154 53.862-10.707 79.107 9.501-11.49 21.184-22.615 34.601-29.31 17.031-8.498 38.742-9.172 57.128-14.375-11.493 4.995-22.817 10.579-33.61 16.95" style="fill:#170900"/></g></g><g clip-path="url(#clipPath22166)" style="opacity:.2"><g transform="translate(860.92 1930.7)"><path d="m0 0c-14.756 8.711-23.691 18.034-32.064 32.806-12.427 21.925-22.55 44.245-31.52 67.681-10.224 26.712-18.927 59.641-38.902 80.93-26.784 28.546-67.956 54.371-108.25 54.995-7.476 0.116-15.303-1.666-22.587-0.686-8.118 1.092-15.844 4.365-24.137 5.132-18.328 1.693-32.057-11.451-45.595-22.318-17.732 2.326-39.411 5.336-55.121-4.71-3.322-2.125-6.566-4.307-9.777-6.517 6.793 2.261 13.743 4.019 21.046 4.819 14.133 1.548 42.176 3.813 58.402-5.407 1.04 8.102 3.498 16.116 7.751 24.04 2.861 5.329 11.282 3.435 11.621-1.998 2.85-0.817 5.218-3.878 4.869-7.224-4e-3 -0.038-0.011-0.075-0.015-0.112 1.868-0.727 3.26-2.37 3.189-5.05-0.016-0.628-0.054-1.254-0.079-1.881 1.362 0.452 2.936 0.398 4.371-0.081 1.131 4.323 4.191 7.431 9.095 8.471 0.266 0.587 0.64 1.173 1.163 1.746 0.218 0.239 0.436 0.478 0.655 0.717 0.054 0.06 0.109 0.12 0.164 0.18 1.926 2.109 4.361 2.378 6.432 1.606 28.165 3.598 56.177-10.276 79.645-24.805 21.088-13.054 39.079-30.335 49.436-53.159 6.049-13.33 8.558-27.245 8.423-41.331 0.171-2.021 0.249-4.028 0.286-6.029 0.98-9.996 0.905-20.093 1.591-30.166 1.212-17.805 4.896-35.294 8.613-52.71 0.443-2.073-17.967 31.267-19.11 37.013-9.989-27.23-25.726-53.608-33.155-81.361-2.073-7.747-14.335-5.258-12.247 2.538 4.409 16.473 12.263 32.839 19.994 49.335-2.211-3.662-7.586-4.851-10.345-0.672-14.094 21.35-26.082 43.916-38.653 66.169-12.297 21.769-26.29 42.279-39.913 63.215-1.424 2.188-2.854 4.372-4.289 6.554 0.586-26.591-6.027-53.929-15.338-77.831-4.116-10.567-8.699-20.924-13.503-31.18-6.761-25.182-18.33-49.457-31.683-69.837-1.534-4.937-3.463-10.102-6.674-13.002 10.229 9.236 20.436 18.405 28.897 29.373 12.787 16.577 18.214 38.013 27.556 56.607 8.569 17.056 7.268 23.782 14.35 12.572 6.446-10.203 8.305-130.65 10.554-141.61 2.248-10.954 13.729 123.07 16.256 111.55 5.304-24.179 44.614-77.979 45.373-102.88 0.331-10.882 0.085-21.902-1.403-32.701-0.202-1.463-4.317-15.745-3.756-16.272 2.808-2.639 39.45 47.831 41.951 51.579 7.231 10.836 14.407 22.089 18.115 34.671 2.2 7.463 6.2 19.189 4.041 27.756 5.313-15.419 9.813-31.87 10.458-48.139 0.804-20.264-5.775-41.785-10.433-61.414 10.542 15.936 20.211 34.01 24.449 52.735 5.058 22.354 0.393 47.671-5.243 69.575 9.453-18.096 16.314-39.461 15.892-60.002-0.311-15.12-3.928-30.677-7.706-45.262-1.97-7.604-6.216-15.595-7.633-23.159 0.05 0.269 3.683 3.071 4.119 3.498 3.69 3.619 6.698 8.204 9.339 12.609 8.469 14.123 12.684 30.293 13.623 46.66 1.514 26.373-3.154 53.862-10.707 79.107 9.501-11.49 21.184-22.615 34.601-29.31 17.031-8.498 38.742-9.172 57.128-14.375-11.493 4.995-22.817 10.579-33.61 16.95m-490.18 52.997c-17.449-2.814-35.072-3.669-52.404-6.003-3.87-1.842-7.625-3.94-11.268-6.217-0.783-0.489-1.551-0.998-2.323-1.503 12.085 2.812 24.161 3.549 36.99 3.506 9.469-0.033 19.098-0.33 28.483-1.874 6.92 0.199 13.87 0.388 20.771 1.528 0.145 0.024 0.258-7e-3 0.384-0.016 1.257 0.362 2.512 0.737 3.761 1.17 0.234 0.082 0.459 0.099 0.673 0.077 1.262 0.385 2.523 0.777 3.784 1.168 9.059 4.249 17.912 8.954 26.373 13.702 21.136 11.862 38.097 27.978 55.886 43.832-9.931-6.115-19.892-12.2-30.35-17.539-25.581-13.058-52.162-27.22-80.76-31.831m-4.537 24.537c-0.125-0.055-0.25-0.111-0.376-0.166 8.881 2.574 17.703 5.36 26.526 8.175 0.014 4e-3 0.026 4e-3 0.04 9e-3 4.401 2.083 8.644 4.494 12.711 7.257 8.043 7.83 15.154 16.575 21.86 25.716-1.513-1.178-3.047-2.309-4.607-3.383-0.256-1.329-0.942-2.617-2.246-3.658-8.484-6.78-18.312-11.349-28.706-14.261-16.009-7.03-33.033-9.792-50.953-11.569-11.437-1.133-22.676-2.408-33.747-4.305 6.226-1.918 12.497-3.632 18.666-4.374 13.149-1.581 27.57 0.378 40.832 0.559m59.831 56.205c7.766 7.455 14.452 15.904 20.692 24.702-17.162-11.899-34.8-23.052-53.594-32.249-8.723-4.269-17.611-8.585-26.911-11.518 19.997 2.339 40.244 5.936 57.017 16.513 0.943 0.827 1.878 1.671 2.796 2.552" style="fill:#170900"/></g></g><g transform="translate(782.16 1805.2)"><path d="m0 0c0.144 0.034 0.274 0.023 0.415 0.046-8.063 14.779-18.167 28.183-28.87 41.252-13.1 15.998-26.9 31.428-39.586 47.766-5.968 7.687-11.364 15.577-15.852 24.223-4.935 9.506-11.79 20.018-13.445 30.836 0.835 0.746 1.143 2.012 0.011 2.89-0.314 0.243-0.628 0.487-0.942 0.73-1.321 1.024-3.611 0.291-3.449-1.615 0.639-7.531 3.772-14.073 7.155-20.721 4.629-9.098 8.853-18.44 14.527-26.956 11.966-17.961 26.921-34.065 40.776-50.556 12.936-15.397 25.967-31.128 35.606-48.865 1.204 0.375 2.42 0.706 3.654 0.97" style="fill:#3b3b3b"/></g><g transform="translate(734.18 2037.5)"><path d="m0 0c-6.583 8.68-4.555 24.59-45.296 28.242-0.456 0.041-1.747 0.368-3.564 0.748-4.79 16.301-14.811 36.789-17.162 42.648-8.907 22.195-19.349 41.243-35.996 58.695-16.41 17.202-38.332 22.403-61.464 17.069-13.443-3.1-41.718-10.743-48.239-25.218 0.315 0.372 0.69 0.723 1.189 1.029 0.201 1.685 16.94 6.59 19.61 7.12 11.202 2.222 23.445 0.111 33.462-5.547 17.341-9.796 31.418-28.014 41.382-44.726 11.332-19.008 23.459-39.326 29.148-60.88 0.089-0.336 0.151-0.628 0.23-0.95-9.417-7.44-16.666-12.885-19.781-35.912-3.805-28.114-5.767-54.77 7.802-65.845 13.57-11.076 23.173-14.778 38.414-15.112s26.33-2.21 37.07 3.593c10.74 5.804 19.632 22.025 22.94 40.056s6.838 46.31 0.255 54.99m-211.72 122.18c-0.557-0.657-0.859-1.404-0.842-2.267 0.215 0.776 0.509 1.527 0.842 2.267m1.189 1.029c-2.424-3.012-0.017-0.145 0 0" style="fill:#3b3b3b"/></g><g clip-path="url(#clipPath22190)" style="opacity:.2"><g transform="translate(645.69 2028.2)"><path d="m0 0c5.239 14.009 16.459 21.615 26.411 31.613-5.447-0.887-10.848-2.119-16.243-3.639-3.843-1.083-7.727-1.967-11.531-2.994-7.867-6.406-13.871-13.019-16.627-33.391-3.804-28.115-5.767-54.771 7.802-65.846 10.424-8.508 18.515-12.654 28.611-14.276-12.261 12.506-20.468 28.695-23.089 46.658-2.054 14.08-0.308 28.574 4.666 41.875m-25.604 86.609c0.034 0.832 0.259 1.548 0.597 2.167-2.119 3.891-4.441 7.503-6.374 10.519-7.461 11.641-17.119 21.297-25.606 32.002-19.892 14.047-45.185 22.162-64.61 3.02-0.635-0.924-1.188-1.876-1.633-2.863 0.315 0.372 0.69 0.723 1.189 1.029 0.201 1.685 16.94 6.59 19.61 7.12 11.202 2.222 23.446 0.111 33.462-5.547 17.342-9.796 31.419-28.013 41.382-44.726 0.63-1.057 1.265-2.14 1.897-3.208 0.049 0.145 0.079 0.306 0.086 0.487" style="fill:#fff"/></g></g><g clip-path="url(#clipPath22206)" style="opacity:.3"><g transform="translate(734.18 2037.5)"><path d="m0 0c-6.583 8.68-4.555 24.59-45.296 28.242-0.456 0.041-1.747 0.368-3.564 0.748-4.79 16.301-14.811 36.789-17.162 42.648-8.907 22.195-19.349 41.243-35.996 58.695-13.339 13.983-30.32 20.035-48.633 18.946 25.003-5.481 45.416-24.502 60.288-47.274 12.383-18.96 21.244-40.32 30.33-60.971 2.689-6.112 1.169-10.644-4.324-14.781-4.024-3.03-9.197-4.199-13.444-6.81-1.429-0.879-2.798-1.86-4.133-2.895 9.157 1.475 18.399 1.997 27.931 1.705 9.176-0.28 18.583-0.598 24.441-8.718 6.353-8.809 8.831-23.142 11.032-33.493 2.391-11.247 2.776-22.427 2.052-33.782 0.21-0.702 0.253-1.5 0.013-2.408-0.097-0.366-0.188-0.732-0.282-1.099-0.041-0.5-0.071-0.997-0.116-1.498-0.082-0.907-0.379-1.611-0.793-2.167-2.613-10.933-4.656-21.686-11.751-30.909-2.593-3.371-7.863-1.012-8.185 2.811-1.369 16.272-10.018 30.932-17.378 45.177-4.139 8.01-9.795 21.741-19.149 25.64 1.272-9.972 5.237-19.28 7.861-29.041 3.236-12.043 5.028-24.624 4.796-37.09-0.077-4.139-6.157-7.289-8.537-2.873-5.228 9.702-9.296 20.212-16.715 28.52-2.82 3.157-5.926 6.323-9.142 9.095-2.469 2.13-5.573 3.064-7.917 4.837-0.885-0.124-1.503-0.081-1.883 0.11 0.083-3.867 2.639-9.418 3.643-12.586 1.643-5.177 3.189-10.238 4.264-15.568 0.579-2.867 1.025-5.696 1.298-8.513 12.425-9.695 21.794-13.021 36.186-13.337 15.241-0.334 26.33-2.21 37.07 3.593 10.74 5.804 19.632 22.025 22.94 40.056s6.838 46.31 0.255 54.99" style="fill:#170900"/></g></g><g transform="translate(925.16 1396.2)"><path d="m0 0c-15.926 21.527-28.669 45.989-40.508 69.938-6.107 12.356-11.293 25.061-16.431 37.839-3.456 8.593-6.78 22.305-13.739 28.851-1.936 1.821-4.714-1.224-2.779-3.044 3.75-3.528 5.958-11.719 8.049-16.399 2.321-5.194 4.438-10.451 6.553-15.73 3.902-9.741 7.949-19.426 12.498-28.886 9.834-20.449 20.81-40.303 32.738-59.603 4.636-7.502 10.026-14.723 15.72-21.849-4.256 3.884-8.702 7.627-13.573 11.208-12.955 9.524-24.005 19.978-35.728 30.939-12.329 11.527-24.98 23.114-35.924 35.996-6.269 7.379-11.502 22.206-20.837 26.293-2.422 1.06-4.349-2.585-1.917-3.65 4.921-2.155 9.646-11.078 12.427-15.414 3.722-5.803 7.755-10.718 12.503-15.681 10.882-11.375 22.171-22.182 33.564-33.035 10.759-10.249 21.318-19.534 33.133-28.492 12.398-9.399 34.639-31.387 35.281-31.089 16.871-20.547 32.386-41.91 36.017-68.451 3.262-23.843-2.889-47.925-25.759-59.659-22.139-11.36-48.601-2.651-70.689 4.723-22.622 7.551-43.736 18.931-65.767 27.991-20.63 8.484-41.587 14.485-63.61 18.107-22.326 3.672-47.351 6.82-69.443 0.416-9.261-2.684-17.237-7.29-24.255-13.893-8.88-8.356-10.955-20.248-18.801-28.882-1.787-1.965 1.256-4.746 3.043-2.779 7.025 7.729 9.06 18.668 16.378 26.549 10.025 10.797 23.636 16.034 38.041 17.616 24.732 2.717 50.761-1.625 74.859-7.036 48.145-10.812 89.358-40.769 137.94-50.185 19.088-3.7 37.848-2.933 53.547 9.816 13.801 11.209 20.011 27.875 19.659 45.394-0.935 46.565-36.404 77.232-62.185 112.08" style="fill:#3b3b3b"/></g><g transform="translate(870.73 1574.5)"><path d="m0 0c4.394-30.623-0.745-67.832-18.201-93.808-8.14-12.114-18.945-21.174-29.532-30.955-6.462-5.971-9.763-7.532-18.433-1.07-14.254 10.626-25.712 27.178-37.247 40.54-9.931 11.503-16.851 25.191-22.896 39.051-4.114 9.432-7.519 19.123-11.171 28.733-27.478 72.307-54.955 144.61-82.433 216.92-2.177 5.729-3.692 12.939-6.732 16.66-7.712 9.441-17.92 12.824-18.931 26.339-0.83 11.105-1.008 22.124 0.095 33.219 1.613 16.229 4.655 32.508 4.832 48.838 0.184 16.979-2.042 33.908-4.86 50.619-1.413 8.373-2.94 16.726-4.475 25.077-1.359 7.391-5.445 18.431-3.661 25.916 2.168 9.099 8.614 6.317 12.302-0.741 10.006-19.152 12.573-42.238 16.2-63.195 0.604-3.487 2.649-21.455 7.492-21.816 8.276-0.618 7.201 31.598 7.043 36.126-0.718 20.557-6.62 37.925-10.938 57.86-1.302 6.014-4.183 23.948 2.561 26.67 7.063 2.85 9.971-16.49 11.246-20.516 5.63-17.786 12.62-35.472 14.82-54.144 0.59-5.01-0.855-43.96 3.42-44.659 1.519-0.249 6.593 6.957 7.301 8.471 1.631 3.488 1.813 8.472 2.614 12.216 1.538 7.189 3.125 14.368 4.628 21.563 3.077 14.732 4.656 28.62 3.12 43.63-0.58 5.662-5.918 29.675 1.096 33.521 7.958 4.364 12.684-13.821 14.462-17.993 5.52 11.526 16.556-17.743 17.64-22.038 2.604-10.319 1.032-19.594 0.346-30.075-1.076-16.448-5.055-30.973-8.265-47.144-6.346-31.965-19.302-62.936-29.689-93.846-3.901-11.608-5.213-17.695-0.581-30.051 6.057-16.158 16.77-31.884 25.091-46.943 18.928-34.258 42.957-64.149 63.821-97.199 8.95-14.178 17.606-28.537 26.525-42.734 1.542-2.454 4.757-10.458 7.405-11.788 2.821-1.416 12.109 0.884 15.998 0.033 13.911-3.042 26.821-12.806 37.987-21.288" style="fill:#fccfa6"/></g><g clip-path="url(#clipPath22230)" style="opacity:.3"><g transform="translate(791.88 1489.8)"><path d="m0 0c-8.388 13.722-16.955 27.345-24.761 41.401-15.316 27.578-28.275 56.733-41.374 85.415-13.796 30.208-25.678 61.123-38.434 91.765-11.33 27.22-22.954 54.349-31.703 82.516-0.43 0.931-0.882 1.857-1.307 2.789-7.51 16.457-5.603 36.726-4.38 54.249 0.864 12.376 1.111 25.704 8.101 36.462 6.192 9.53 16.396 14.284 27.257 16.415 9.404 1.844 35.134 0.438 28.066 14.947-0.544-0.121-1.095-0.205-1.647-0.266-0.568-0.62-1.241-1.316-2.555-1.871-3.292-1.389-6.731 0.781-9.737 2.1-4.358 1.913-7.356 3.609-11.408 2.541-2.058-2.166-4.451-4.242-7.19-5.18-0.788-0.27-1.507-0.376-2.168-0.361-1.688-0.402-2.293 0.022-4.183 0.343-3.749 0.637-6.412 2.711-10.822 1.767-5.893-5.022-12.689-9.691-18.483-3.464-3.412 3.666-3.904 10.371-5.192 14.989-1.612 5.78-3.004 11.596-5.427 17.019-0.646 1-1.34 1.972-2.107 2.903-0.946 1.148-2.422 3.291-3.828 3.967-0.824 0.611-1.648 1.222-2.473 1.833-0.366-0.458-0.733-0.916-1.099-1.374 0.061-0.362 0.128-0.723 0.189-1.084 2.819-16.711 5.044-33.64 4.86-50.619-0.177-16.33-3.218-32.609-4.832-48.838-1.103-11.095-0.925-22.114-0.095-33.219 1.011-13.515 11.219-16.898 18.931-26.339 3.04-3.721 4.555-10.931 6.732-16.66 27.478-72.307 54.956-144.61 82.433-216.92 3.652-9.611 7.057-19.301 11.171-28.733 6.045-13.861 12.966-27.548 22.897-39.051 8.691-10.068 17.34-21.946 27.174-31.736-0.606 9.003-1.022 18.039-1.955 27.015-0.183 1.768-0.406 3.526-0.651 5.28" style="fill:#fff"/></g></g><g transform="translate(870.73 1574.5)"><path d="m0 0c-11.166 8.482-24.076 18.246-37.987 21.288-3.889 0.851-13.177-1.449-15.998-0.033-2.649 1.33-5.863 9.334-7.405 11.788-8.919 14.197-17.574 28.556-26.525 42.734-20.864 33.05-44.893 62.941-63.821 97.199-8.321 15.059-19.034 30.785-25.091 46.943-4.632 12.356-3.32 18.444 0.581 30.051 10.387 30.91 23.343 61.881 29.689 93.846 3.21 16.172 7.189 30.696 8.265 47.144 0.686 10.482 2.258 19.756-0.346 30.075-0.6 2.376-4.247 12.391-8.32 18.918 4e-3 -0.04 9e-3 -0.08 0.014-0.12 0.449-0.473 0.759-1.118 0.807-1.961 0.132-2.334 0.196-4.664 0.243-6.992 3.215-16.254 2.532-33.176-0.972-49.41-0.923-5.713-2.192-11.333-3.669-16.902-0.849-5.123-1.906-10.205-3.373-15.113-0.473-2.232-0.95-4.464-1.422-6.697-0.12-0.567-0.352-1.02-0.651-1.382-1.281-9.581-4.602-19.031-9.081-27.681-3.218-8.302-6.803-16.481-10.563-24.696-7.8-17.045-16.506-35.019-16.576-54.083 2.642-18.621 12.065-35.7 20.158-52.417 8.996-18.583 17.514-37.401 26.945-55.772 5.73-11.161 11.958-22.04 18.344-32.829 21.85-32.286 44.391-64.231 60.046-100.07 10.269-23.504 17.568-48.357 19.517-74.012 1.319-17.353-1.728-33.234-6.642-49.101 1.889 0.839 3.794 2.389 6.1 4.52 10.587 9.781 21.391 18.841 29.532 30.955 17.456 25.976 22.595 63.185 18.201 93.808m-164.95 340.9c0.26-0.015 0.521 6e-3 0.779-0.05 1.686 5.6 3.432 11.179 5.076 16.78 1.984 11.359 3.668 22.728 4.862 34.142 0.231 5.755 0.513 11.515 0.664 17.27-0.016 1.089-0.032 2.177-0.042 3.257-0.011 1.229 0.066 4.366 0.099 8.193-0.152 7.439-0.744 14.854-2.216 22.218-0.046 0.231-0.066 0.453-0.071 0.67-0.089 0.038-0.156 0.088-0.237 0.13-0.081-0.148-0.165-0.275-0.244-0.439-0.096 0.225-0.201 0.496-0.315 0.797-0.829 0.675-1.086 1.636-0.923 2.575-2.063 5.816-5.703 15.576-11.039 15.284 8.987-24.929 8.433-52.844 4.777-78.772-0.808-5.734-1.911-11.314-3.218-16.83-0.699-7.829-1.614-15.628-2.799-23.385 0.662-0.403 1.3-0.853 1.884-1.395 1.018 0.176 2.044-7e-3 2.963-0.445m-23.146-0.212c0.271 0.832 0.537 1.665 0.795 2.501-0.917-0.963-1.73-1.603-2.2-1.526-4.275 0.699-2.83 39.649-3.42 44.659-2.2 18.672-9.19 36.358-14.82 54.144-1.275 4.026-4.183 23.366-11.246 20.516-0.294-0.118-0.546-0.301-0.804-0.475 0.176-0.519 0.313-1.071 0.37-1.685 1.142-12.317 7.797-23.296 11.304-35.001 1.535-5.125 2.869-10.365 4.001-15.658 9.21-21.918 6.496-45.149 5.989-68.233 2.994 1.216 6.348 1.566 10.031 0.758m-53.249 84.649c-2.935 5.617-7.61 8.502-10.493 4.87 0.289-0.268 0.562-0.55 0.796-0.865 11.429-15.384 12.951-37.734 16.67-55.981 0.961-4.716 1.836-9.429 2.596-14.143 2.581-7.177 5.479-14.35 7.822-21.623 0.459 0.288 0.883 0.606 1.367 0.872 0.581 0.318 1.191 0.542 1.807 0.717 0.535 0.701 1.173 1.268 1.882 1.695-3.951 2.999-5.698 18.093-6.247 21.263-3.627 20.957-6.194 44.043-16.2 63.195" style="fill:#eebc8c"/></g><g transform="translate(721.68 2020.6)"><path d="m0 0c-2.048 2.843-4.138 4.566-5.952 3.801-0.325-1.235-0.502-2.434-0.575-3.619 0.15-0.23 0.264-0.496 0.291-0.831 0.267-3.188 1.193-6.045 2.408-8.997 0.479-1.162 1.006-2.31 1.523-3.455 2.45 0.441 5.1 1.786 5.729 3.282-0.822 3.318-1.819 6.769-3.424 9.819m-17.898 19.349c-1.415 0.784-2.972 0.913-4.684-0.026-0.057-0.031-0.107-0.076-0.164-0.11-0.163-1.179-0.304-2.361-0.43-3.542 0.762-5.112 1.946-10.12 3.306-15.097 2.779 0.76 5.373 1.949 7.963 3.335l-0.132 0.339c-0.312 0.632-0.182 1.157 0.14 1.548-0.473 5.027-3.274 9.297-5.999 13.553m-50.257-0.101c-0.818 0.346-1.705 0.383-2.672-7e-3 -0.581-0.234-1.067-0.617-1.512-1.059-1.192-5.52-0.502-11.195 0.775-16.809 2.837 1.445 5.821 2.462 9.08 2.84-0.8 4.961-1.561 11.095-4.961 14.142-0.312 0.28-0.533 0.583-0.71 0.893m-35.651-30.93c-0.448-4.759 1.129-9.927 2.592-14.261 0.296-0.878 0.55-2.183 1.097-2.937 0.435-0.599 0.699-1.006 0.855-1.275 5e-3 0.212 0.144 0.426 0.648 0.458 1.894 0.122 4.436 2.053 6.014 3.045 0.255 0.16 0.46 0.289 0.667 0.421-1.217 5.57-2.862 10.968-6.235 15.567-2.047 1.175-4.111 1.045-5.638-1.018" style="fill:#c70074"/></g><g transform="translate(831.33 1544.8)"><path d="m0 0c2.52 5.743 5.332 11.342 8.757 16.618 5.747 8.854 13.768 13.993 22.035 19.518-9.016 6.489-18.914 12.582-29.379 14.87-3.889 0.851-13.177-1.449-15.997-0.033-2.649 1.33-5.864 9.334-7.406 11.788-1.125 1.791-2.226 3.598-3.344 5.394 9.603-22.431 19.387-44.64 25.334-68.155" style="fill:#e6ab78"/></g><g transform="translate(711.97 1784.1)"><path d="m0 0c-3.607 3.539-8.542 4.475-13.403 4.458-13.59-0.048-28.397-6.176-38.283-15.485-7.474-7.039-15.831-20.901-12.688-31.606 2.795-9.519 11.013-11.906 19.485-12.2-1.283 3.532-2.354 7.133-3.335 10.772-4.115 0.96-6.995 3.493-5.819 9.623 1.157 6.028 5.567 12.402 9.967 16.462 6.598 6.087 30.37 18.346 36.034 7.864 2.006-1.956 3.426-4.879 4.513-7.029 0.595-1.178 1.144-2.439 1.7-3.713 2.598 0.088 5.246 1.86 5.297 5.198 0.094 6.156 1.507 10.774-3.468 15.656" style="fill:#14b0db"/></g><g clip-path="url(#clipPath22262)" style="opacity:.2"><g transform="translate(711.97 1784.1)"><path d="m0 0c-1.177 1.155-2.505 2.01-3.917 2.667-0.617-1.674-2.005-3.074-4.245-3.356-26.486-3.339-57.722-18.244-49.925-50.043 0.063-0.258 0.08-0.501 0.107-0.748 3.678-2.365 8.344-3.188 13.091-3.353-1.283 3.532-2.354 7.133-3.335 10.772-4.115 0.96-6.995 3.493-5.819 9.623 1.157 6.028 5.567 12.402 9.967 16.462 6.598 6.087 30.37 18.346 36.034 7.864 2.006-1.956 3.426-4.879 4.513-7.029 0.595-1.178 1.144-2.439 1.7-3.713 2.598 0.088 5.246 1.86 5.297 5.198 0.094 6.156 1.507 10.774-3.468 15.656" style="fill:#170900"/></g></g><g transform="translate(703.94 1767.5)"><path d="m0 0c-14.222-2.977-26.284-13.308-34.488-24.907-6.744-9.534-17.388-26.198-12.095-38.579 3.847-9.001 13.516-5.895 20.708-3.133 0.111 0.042 0.201 0.101 0.301 0.151-0.739 1.903-1.428 3.827-2.061 5.772-0.052-0.017-0.1-0.022-0.152-0.042-1.992-0.765-4.7-2.309-6.871-2.246-7.456 0.218-7.101 7.753-5.802 12.997 1.734 6.998 5.768 13.736 9.759 19.711 4.375 6.549 9.76 12.458 16.219 17.011 3.21 2.263 6.73 4.282 10.424 5.653 0.482 0.178 10.628 1.923 14.148 1.584 0.077-1.063-0.439-2.083-0.808-3.062-0.097-0.257-0.181-0.539-0.265-0.826 1.463-2.01 2.732-4.178 3.833-6.421 0.957 1.491 1.456 3.072 2.06 4.777 0.066 0.186 0.136 0.368 0.205 0.553 0.62 0.222 1.189 0.657 1.599 1.385 5.798 10.299-10.991 10.82-16.714 9.622" style="fill:#c70074"/></g><g clip-path="url(#clipPath22282)" style="opacity:.2"><g transform="translate(718.01 1766.5)"><path d="m0 0c-0.696-1.434-2.055-2.542-4.112-2.7-17.474-1.342-30.394-7.753-41.479-21.519-10.589-13.149-15.525-27.077-11.729-42.568 4.686-3.31 11.775-0.979 17.376 1.171 0.11 0.043 0.2 0.101 0.301 0.152-0.739 1.903-1.428 3.827-2.062 5.772-0.051-0.018-0.099-0.022-0.152-0.042-1.992-0.765-4.699-2.31-6.87-2.246-7.456 0.218-7.102 7.753-5.802 12.996 1.734 6.998 5.767 13.737 9.758 19.712 4.375 6.549 9.76 12.458 16.22 17.011 3.209 2.262 6.73 4.282 10.424 5.652 0.481 0.179 10.627 1.923 14.148 1.585 0.077-1.063-0.44-2.084-0.808-3.062-0.097-0.258-0.182-0.539-0.265-0.826 1.462-2.01 2.731-4.178 3.832-6.421 0.958 1.491 1.456 3.072 2.061 4.776 0.066 0.186 0.136 0.369 0.204 0.554 0.62 0.222 1.19 0.656 1.599 1.384 2.563 4.552 0.711 7.191-2.644 8.619" style="fill:#170900"/></g></g><g transform="translate(375.21 1127.9)"><path d="m0 0s5.125-56.16 31.382-109.99c26.256-53.825 87.174-161.1 87.174-161.1s68.92-108.28 65.292-123.58c-3.628-15.294-19.601-27.023-23.657-28.582-4.055-1.56-80.487-44.916-96.335-59.39s-56.864-49.346-67.18-64.943c-10.315-15.598-62.979-97.764-62.979-97.764l-41.494-55.525 39.615-54.595 47.358 47.539 158.43 135.11 119.25 103.07s31.172 30.299 32.203 46.851-12.879 94.411-12.879 94.411-19.455 142.07-34.924 195.01c-15.469 52.94-58.537 149.74-58.537 149.74l-109.36 72.337z" style="fill:#fccfa6"/></g><g clip-path="url(#clipPath22302)" style="opacity:.3"><g transform="translate(291.18 431.13)"><path d="m0 0c21.294 36.09 45.677 70.585 71.741 103.37 43.437 54.644 90.091 114.84 153.78 146.72 10.545 5.276 21.029 8.526 32.214 12.033 9.664 3.03 27.887 7.114 31.567 18.029 3.33 9.876-2.124 22.652-5.879 31.666-5.273 12.657-12.09 24.654-19.11 36.409-34.744 58.177-65.515 118.13-93.079 180.06-27.433 61.64-58.671 122.76-69.674 189.66l-17.528-21.169s5.125-56.16 31.382-109.99c26.256-53.826 87.174-161.1 87.174-161.1s68.92-108.28 65.292-123.58-19.601-27.023-23.657-28.582c-4.055-1.56-80.487-44.916-96.335-59.39-15.849-14.474-56.864-49.346-67.18-64.944-10.315-15.598-62.979-97.763-62.979-97.763l-41.494-55.525 12.419-17.115c3.575 7.185 7.279 14.297 11.348 21.193" style="fill:#fff"/></g></g><g transform="translate(651.39 799.44)"><path d="m0 0s-19.455 142.07-34.924 195.01c-15.47 52.94-58.538 149.74-58.538 149.74l-109.35 72.337-73.365-88.606s1.868-20.393 9.087-48.366c2.195 3.266 4.541 6.295 7.582 7.484 6.52 2.551 14.172-4.877 18.999-9.442 2.773 4.41 6.402 8.113 9.355 12.439 0.545 0.798 2.07 0.891 2.724 0.186 8.166-8.785 15.979-17.875 25.089-25.689 1.697 5.514 3.968 10.825 5.13 16.513 0.222 1.086 1.25 1.631 2.283 1.499 11.48-1.465 19.188-9.841 29.298-14.385 2.178 7.547 4.52 14.974 8.075 22.022 0.509 1.011 1.605 1.238 2.587 0.871 5.101-1.904 9.98-4.285 15.024-6.316 5.79-2.331 6.818-0.169 9.903 5.319 0.657 1.168 1.954 1.332 2.999 0.596 6.321-4.452 17.757-19.651 24.765-6.213 0.679 1.302 2.484 1.419 3.33 0.221 24.02-34.03 35.613-75.18 46.763-114.79 11.715-41.616 24.229-83.103 32.989-125.47 6.792-32.854 10.091-71.737 16.11-105.06 7.157-39.625 0.405-68.743-50.698-80.013-23.394-29.248-50.873-45.433-72.333-62.896-21.73-17.683-46.89-30.345-69.137-47.241-29.403-22.332-56.92-47.002-84.052-72.007-21.965-20.244-43.837-40.494-63.539-62.999-5.546-6.334-11.133-12.897-16.484-19.704l15.969-22.007 47.358 47.539 158.43 135.1 119.25 103.07s31.172 30.299 32.203 46.851-12.878 94.411-12.878 94.411" style="fill:#eebc8c"/></g><g transform="translate(583 1109.3)"><path d="m0 0s-5.625-2.472 20.783-35.659c26.408-33.188 85.147-106.17 85.147-106.17s106.79-119.41 113.02-135.4c6.227-15.987 22.711-33.119 19.115-51.163-3.595-18.044-29.116-61.841-42.72-95.468-13.603-33.628-15.261-80.468-14.061-110.67 1.199-30.205 8.404-146.79-1.786-170.64s52.323-67.773 52.323-67.773l12.67 23.892 27.158 177.35s46.782 163.05 51.718 175.65 20.574 38.071 19.371 61.398c-1.203 23.328-34.892 126.33-37.073 130.36-2.181 4.028-58.323 150.03-94.505 219.91-36.182 69.88-76.974 98.288-76.974 98.288z" style="fill:#fccfa6"/></g><g clip-path="url(#clipPath22326)" style="opacity:.3"><g transform="translate(777.63 368.76)"><path d="m0 0c0.117 17.324 0.144 34.65 0.2 51.975 0.252 77.512 2.029 155.02 14.743 231.65 7.348 44.294 20.679 102.31 65.672 122.95-17.058 30.119-36.435 58.806-56.852 86.74-35.654 48.779-73.56 95.878-109.42 144.51-29.703 40.271-59.298 82.806-76.663 130.14l-32.298-27.417s-5.625-2.472 20.783-35.659c26.408-33.188 85.147-106.17 85.147-106.17s106.79-119.41 113.02-135.4c6.227-15.987 22.711-33.119 19.115-51.163-3.595-18.044-29.116-61.841-42.72-95.468-13.603-33.628-15.261-80.468-14.061-110.67 1.199-30.205 8.404-146.79-1.786-170.64-4.217-9.867 4.024-23.17 15.125-35.379" style="fill:#fff"/></g></g><g transform="translate(888.67 905.02)"><path d="m0 0c-2.181 4.027-58.323 150.03-94.505 219.91-36.182 69.881-76.974 98.289-76.974 98.289l-134.19-113.91s-5.284-2.325 18.446-32.696c-0.079 0.57-0.166 1.138-0.223 1.712-0.133 1.324 1.271 2.574 2.577 2.22 11.684-3.168 22.889-7.428 33.634-12.892-3.057 6.007-6.15 11.843-7.605 18.622-0.361 1.683 1.191 3.58 2.987 2.605 4.979-2.701 9.807-5.52 14.499-8.654 5.02 6.131 9.267 12.826 14.423 18.857 0.965 1.128 2.545 0.842 3.396-0.211 1.307-1.617 2.813-3.018 4.263-4.481 3.343 6.366 6.132 12.974 10.264 18.916 0.511 0.735 1.827 0.942 2.571 0.511 5.749-3.336 10.37-7.888 15.322-12.171 0.198 6.841 0.386 16.165 5.529 19.943 5.06 3.717 12.867 0.555 18.622-1.754 0.696 5.061-0.176 9.756-1.234 14.91-0.368 1.793 1.153 3.415 2.987 2.606 22.625-9.983 35.642-35.836 47.736-55.929 17.125-28.454 34.867-56.319 50.521-85.655 29.581-55.432 56.08-112.46 75.737-172.2 7.058-21.453 15.952-48.564 7.289-70.84-3.515-9.039-11.039-14.614-18.449-20.369-5.16-4.007-11.596-8.569-13.298-15.27-1.301-5.123 0.174-11.41 0.833-16.538 3.54-27.525-7.717-54.005-15.951-79.844-9.864-30.96-19.784-61.759-27.03-93.472-6.753-29.552-13.054-59.389-18.883-89.139-5.73-29.246-9.91-59.315-5.2-89.003 0.181-1.142-0.478-1.815-1.323-2.046-0.038-1.153-0.115-2.303-0.216-3.45 5.694-4.485 9.596-7.227 9.596-7.227l12.67 23.892 27.159 177.35s46.782 163.05 51.718 175.65 20.573 38.07 19.371 61.398c-1.203 23.328-34.892 126.33-37.073 130.36" style="fill:#eebc8c"/></g><g transform="translate(255.56 468.49)"><path d="m0 0 97.979-113.18s-40.296-66.767-43.033-74.654c-2.737-7.886-2.503-13.034-7.791-10.179-5.287 2.855-10.506 4.191-10.506 4.191l9.334-46.539s17.873-30.136 22.504-41.273c4.632-11.137 8.048-18.203 7.345-25.456-0.702-7.253-2.187-20.004-2.187-20.004l-12.086-6.433s-30.744-4.49-52.503-2.383c-21.758 2.107-63.731 17.739-63.731 17.739l-1.402 30.884 8.473 40.616-1.728 60.784 3.937 49.629 8.468 17.987-14.208 17.579s34.896 94.819 51.135 100.69" style="fill:#7a1834"/></g><g transform="translate(319.12 154.97)"><path d="m0 0c-16.135-4.577-34.463-2.479-50.823-0.08-16.15 2.369-32.095 6.224-47.874 10.363-6.293 1.65-14.238 3.543-20.545 7.238l1.006-22.163s41.973-15.632 63.731-17.739c21.759-2.107 52.503 2.383 52.503 2.383l12.086 6.433s1.231 10.578 1.982 17.945c-3.959-1.643-7.949-3.212-12.066-4.38" style="fill:#bd661a"/></g><g clip-path="url(#clipPath22354)" style="opacity:.2"><g transform="translate(301.54 228.13)"><path d="m0 0-9.333 46.539s5.218-1.336 10.506-4.191c5.287-2.855 5.054 2.292 7.79 10.179 2.737 7.886 43.033 74.654 43.033 74.654l-12.82 14.809c-6.355-30.613-25.03-71.033-57.013-71.826-22.911-0.568-39.852 21.549-52.867 37.503-4.074 4.994-8.158 9.492-12.49 13.819l-1.62-3.442c20.725-32.549 48.806-61.214 62.77-97.708 4.289-11.21 8.339-26.003-1.593-35.329-7.75-7.278-18.799-7.119-27.781-10.919 8.144-2.43 16.28-4.859 24.243-7.975 4.139-1.62 9.525-3.666 14.712-6.336 2.503 0.444 5.234-0.201 7.261-2.608 1.221-1.449 2.421-3.017 3.551-4.667 3.744-3.458 6.402-7.568 6.772-12.521 0.089-1.2 0.066-2.317-0.032-3.378 0.829-6.498-1.228-12.754-8.551-17.238-12.142-7.433-28.605-4.491-41.719-1.858-17.818 3.578-42.158 10.378-56.38 24.596l0.903-19.913s41.973-15.632 63.732-17.739c21.758-2.107 52.502 2.383 52.502 2.383l12.087 6.433s1.484 12.751 2.187 20.004c0.702 7.253-2.713 14.319-7.345 25.456s-22.505 41.273-22.505 41.273" style="fill:#170900"/></g></g><g transform="translate(704.03 444.12)"><path d="m0 0s3.424-105.75 5.108-112.55c1.685-6.8 26.765-13.915 26.765-13.915s-31.946-23.457-33.132-42.767c-1.187-19.309-0.691-60.55 2.928-64.512 3.618-3.962 19.944-76.119 19.944-76.119l47.371 2.15-11.019 65.521 7.904 3.109s32.532-19.764 45.899-41.547c13.368-21.784 27.904-39.004 27.904-39.004s99.818-10.952 111.64-1.986c11.827 8.965 12.056 40.61-2.375 52.334-14.432 11.724-46.313 17.154-46.313 17.154l-26.516 8.425-44.542 72.252-6.467 9.365 20.068-5.997 32.137 79.858s-114.15 60.84-136.62 70.824c-22.471 9.983-40.689 17.409-40.689 17.409" style="fill:#7a1834"/></g><g transform="translate(933.44 139.55)"><path d="m0 0c-18.149-0.775-35.923-1.51-54.058-0.178-10.095 0.742-20.408 1.78-29.525 6.56-9.981 5.232-16.585 14.09-23.938 22.317-15.756 17.625-33.94 35.309-54.343 48.084-21.757 10.451-46.207 16.428-69 16.718 0.494-11.516 1.489-20.888 3.12-22.675 3.619-3.962 19.945-76.119 19.945-76.119l47.37 2.15-11.018 65.521 7.903 3.109s32.532-19.764 45.9-41.548c13.368-21.783 27.903-39.004 27.903-39.004s99.819-10.951 111.65-1.985c4.502 3.413 7.318 10.115 8.29 17.751-10.067 0.105-20.142-0.272-30.195-0.701" style="fill:#bd661a"/></g><g clip-path="url(#clipPath22378)" style="opacity:.2"><g transform="translate(952.97 174.83)"><path d="m0 0c-14.431 11.724-46.313 17.154-46.313 17.154l-26.515 8.425-44.543 72.251-6.466 9.366 20.068-5.997 32.136 79.858s-9.882 5.267-24.396 12.952c1.238-11.635-0.916-24.008-5.455-36.451-0.748-2.051-1.563-4.078-2.47-6.042-4.269-10.083-11.732-18.338-23.357-22.843-0.819-0.318-1.646-0.598-2.478-0.859-1.1-1.467-2.835-2.447-5.265-2.366-1.712 0.058-3.352 0.237-4.962 0.476-18.546-1.319-38.896 7.374-56.27 12.828-7.183 0.89-14.319 2.042-21.213 3.747-0.925-0.699-3.309-2.536-6.389-5.17 17.695-7.891 36.398-13.569 53.356-23.035 16.442-9.177 30.581-21.802 42.546-36.27 11.335-13.705 18.848-28.792 26.866-44.476 6.952-13.601 16.706-17.587 30.291-22.448 9.754-3.491 21.102-8.89 22.831-20.334 1.534-10.16-5.178-18.539-14.696-21.09-20.764-5.564-49.096 7.551-66.038 18.408-6.123 3.924-12.026 8.291-17.884 12.753 3.608-3.903 6.879-8.005 9.443-12.182 13.367-21.783 27.903-39.004 27.903-39.004s99.818-10.951 111.64-1.986c11.827 8.966 12.056 40.611-2.375 52.335" style="fill:#170900"/></g></g><g clip-path="url(#clipPath22394)" style="opacity:.2"><g transform="translate(765.52 203.31)"><path d="m0 0c-3.547 1.714-7.183 3.252-10.961 4.512 2.106-16.887 3.22-35.814-14.108-44.547-6.415-3.234-13.715-4.01-20.83-3.199 3.385-14.183 6.02-25.824 6.02-25.824l47.37 2.15-11.018 65.52z" style="fill:#170900"/></g></g><g clip-path="url(#clipPath22410)" style="opacity:.3"><g transform="translate(238.59 205.52)"><path d="m0 0c-2.812 1.808-5.639 2.657-8.776 3.729-3.05 1.042-2.821 2.15-2.98 5.61-0.282 6.152-4.369 10.891-4.965 17.099-0.701 7.317 0.197 12.456 2.933 19.182 1.772 4.354 1.116 6.627-0.358 11.241-1.706 5.344-2.556 9.535-1.509 15.21 0.728 3.946 1.023 6.791-0.331 10.773-1.376 4.05-4.568 8.678-3.491 13.102 0.827 3.398 1.632 4.626 1.346 8.57-0.592 8.152 0.111 21.858-0.96 20.463-1.56-2.031-2.768-4.362-4.34-6.412-2.963-3.861-3.146-5.944-3.267-10.677-0.195-7.657-0.671-15.292-1.118-22.938-0.571-9.765 0.102-19.405 0.546-29.178 0.398-8.762 1.029-17.258 2.232-25.929 0.829-5.97 0.541-10.756-1.308-16.577-2.246-7.069-1.911-14.134-2.378-21.427-0.356-5.547-3.204-14.257-0.786-19.65 1.652 1.469 3.281 3.281 4.289 5.248 1.243 2.429 1.217 4.461 3.394 6.262 5.098 4.216 14.964 5.346 21.244 6.031 8.668 0.946 17.971 0.446 26.467-1.547-6.414 3.699-12.582 6.331-19.621 8.515-2.529 0.786-4.063 1.885-6.263 3.3m23.056 249.92c-1.292 1.465-3.217 2.906-3.654 4.887 1.301 2.075-0.395 2.603-3.103-1.148-2.055-2.847-4.411-5.416-5.969-8.66-3.468-7.217-6.443-14.673-10.101-21.809-1.924-3.754-4.436-7.124-6.526-10.781-2.102-3.678-3.861-7.529-5.96-11.211-3.448-6.048-6.835-12.141-10.262-18.211-1.592-2.821-2.981-5.63-3.986-8.709-0.674-2.066-2.704-5.603-2.575-7.775 0.185-3.092 4.434-5.271 6.422-6.959 7.603-6.46 13.938-15.434 23.053-19.953-2.766 5.026-6.225 9.727-8.363 14.92-0.983 2.388-2.617 4.469-3.971 6.697-2.373 3.905-3.808 7.767-4.463 12.24 4.594 0.776 7.753-3.891 12.767-2.656 0.76 4.303-7.097 12.685-2.709 16.075 1.451 1.121 3.337 0.224 4.438 2.068 1.047 1.752 0.071 4.728-0.244 6.648-0.544 3.322-0.345 5.757 3.144 6.758 2.27 0.652 5.42-0.307 6.59 2.318 0.911 2.045-0.609 5.326-1.139 7.416-0.781 2.639-1.25 5.338-1.407 8.098 0.655 0.973 1.31 1.947 1.964 2.921 6.187-0.086 12.073-1.533 17.658-4.341 3.5-3.908 6.259-4.432 8.275-1.57-0.292 0.636-4.517 7.703-3.063 8.517 8.759-6.869 15.958-15.918 25.068-22.191-4.949 12.029-12.985 23.348-20.878 33.658-3.396 4.437-7.307 8.559-11.006 12.753m471.8-206.12c-2.5 1.777-4.811 3.852-7.354 5.638-3.222 2.264-8.975 4.914-8.378 9.609 0.43 3.386 3.222 5.625 4.628 8.489-0.635 0.937-1.376 1.781-2.222 2.534 4e-3 1.335 0.595 2.318 1.772 2.95 3.245 2.969 8.22 3.793 10.571 7.504-0.924 1.145-1.872 2.269-2.845 3.372 0.178 1.689 1.161 2.437 2.949 2.244 1.91 0.657 3.878 0.848 5.904 0.572 4.704 0.025 9.33-0.627 14.025-0.786-4.193 3.987-9.33 7.138-14.187 10.307-1.651 1.077-3.544 1.872-5.229 2.903-0.466-0.056-0.935-0.093-1.397-0.227-1.325-0.386-2.326-1.41-3.445-2.204-5.219-3.705-11.253-7.243-15.054-12.527-2.233-3.104-3.786-7-4.998-10.608-1.154-3.434-1.048-6.554-1.18-10.105-0.327-8.766-3.163-19.227 0.14-27.685 2.674-0.062 5.668 0.155 8.341 0.444 3.738 0.405 7.244 0.748 11.045 0.684 9.584-0.163 19.569-3.309 29.09-1.922-3.433 1.579-6.974 2.882-10.621 3.909-3.947 1.416-7.798 3.051-11.555 4.905m-1.106 55.793c0.236-0.164 0.492-0.305 0.74-0.457 0.631 0.077 1.253 0.193 1.828 0.662-1.317 0.657-2.662 1.254-2.568-0.205m25.034 109.99c-7.741 4.697-15.456 9.403-23.532 13.504-6.003 3.048-12.258 5.826-18.492 8.381-0.828 0.339-2.418 1.215-3.497 1.297-0.212 0.269-0.389 0.492-0.55 0.696-0.875 0.194-1.974-0.114-2.247-0.76-0.202-0.48 0.122-1.593 0.148-2.111 0.067-1.383 0.049-2.775 0.15-4.156 0.229-3.119 0.99-6.132 1.18-9.265 0.211-3.492 0.278-6.996 0.439-10.49 0.391-8.508 1.06-17.036 0.816-25.555-0.113-3.938 0.052-7.829 0.227-11.757 0.228-5.144-0.537-10.1-0.619-15.227-0.112-7.038 0.865-14.172 1.702-21.158 0.38-3.168 0.504-6.802 3.662-8.344 1.931-0.943 3.964-0.804 6.054-0.785 3.033 0.027 7.113-0.063 10.07 1.028-4.936 3.887-14.209 5.48-16.718 11.77 3.915 1.538 8.088 1.835 12.262 2.194 3.316 0.286 6.863-0.079 10.088 0.695-2.634 1.276-5.36 2.328-8.176 3.157-3.81 0.989-7.258 2.678-10.344 5.066-1.495 3.122 2.272 5.621 3.967 7.805 0.837 0.773 1.301 1.732 1.394 2.879-0.986 1.178-2.063 2.265-3.232 3.263-2.103 2.821 1.078 4.465 2.86 6.557 2.493 2.925 1.157 4.517-1.46 6.67-1.435 1.18-1.915 1.594-1.522 3.362 0.358 1.609 1.211 3.513 1.919 4.946 1.878 3.796 4.788 4.904 8.201 6.92-1.389 3.05-12.591 4.361-5.865 8.18 1.398 0.794 6.549 1.986 6.21 4.485-0.237 1.744-6.466 4.833-7.858 5.677 1.832 0.54 3.72 0.506 5.665-0.101 5.644-0.056 11.225-0.645 16.746-1.768 5.944-0.676 11.701-2.144 17.271-4.405 2.296-1.895 4.778-2.688 7.447-2.381-4.376 3.865-9.392 6.714-14.366 9.731m-46.071 23.878c0.135-0.031 0.267-0.067 0.387-0.122-1.219 1.184-1.941 2.083-0.387 0.122m0.387-0.122c0.204-0.198 0.421-0.403 0.644-0.604-0.129 0.279-0.362 0.474-0.644 0.604" style="fill:#fff"/></g></g><g transform="translate(423.75 1342.5)"><path d="m0 0s-26.726-13.46-45.306-58.661-21.53-71.124-20.408-95.831c1.121-24.707 10.433-70.762 11.741-76.864 1.309-6.102 6.176 0.309 2.805-16.349-3.37-16.659-4.119-22.882-4.119-22.882l28.078 29.127 14.552-13.782s15.536 21.337 19.841 17.406 13.647-21.044 13.647-21.044 11.247 18.048 18.36 20.434c7.112 2.386 9.567-25.356 15.755-27.138 6.189-1.782 8.062 25.124 8.062 25.124s21.561-6.148 29.958-16.177-0.408 16.486-0.887 19.559c-0.48 3.073 31.634-30.199 30.022-25.571-1.075 3.087-5.048 29.8-5.048 29.8s22.065-27.459 21.678-29.236 5.163 25.296 5.163 25.296 4.967-22.211 6.423-24.853 3.325 15.091 3.325 15.091l1.97 11.325s11.554-42.234 12.796-31.913c1.124 9.335 7.137 17.345 7.137 17.345l17.37-11.823s-3.519 9.356-0.758 16.703c2.762 7.346 19.591-15.849 19.591-15.849l-3.043 26.916c14.756-18.931 11.958-26.511 11.958-26.511s6.797 24.267 5.594 32.465c-1.202 8.198 14.378-16.884 14.378-16.884s9.316 22.029 3.934 26.971 6.64-1.766 13.989-12.747c3.607-5.391 9.17-2.845 9.785-6.777 0 0-2.494 30.834-6.817 33.732-4.323 2.899 25.633-17.404 25.633-17.404s-1.147 8.2-6.59 21.364c-5.443 13.163 22.549-2.624 28.112-5.19 5.562-2.566 6.428 1.084 5.903 12.665-0.526 11.581-6.325 16.476-6.325 16.476s19.673-15.096 25.884-15.588c6.212-0.492-10.247 23.519-10.247 23.519s39.264-20.913 37.876-15.818c-1.389 5.095-26.983 23.533-29.182 26.528s-36.095 61.288-36.095 61.288l-29.97 53.313-12.929 13.559s-49.614-29.808-89.445-23.363c-39.83 6.445-88.051 11.993-109.15 22.382-17.759 8.744-50.266 16.539-54.997 29.867" style="fill:#6e9dcf"/></g><g clip-path="url(#clipPath22430)" style="opacity:.2"><g transform="translate(583.35 1242.8)"><path d="m0 0c-0.379 0.365-0.643 0.759-0.846 1.162-7.449 0.39-14.919 1.182-22.334 2.183 1.819-13.49-0.566-27.281-1.951-40.787-0.978-9.524-1.97-19.061-3.802-28.398 2.239-0.31 4.471-0.669 6.686-1.111 6.143 9.708 10.639 20.548 14.345 31.355 2.117 6.174 4.099 12.471 5.727 18.796 0.763 2.965 4.579 14.488 2.175 16.8m-106.81 21.901c-0.914-0.889-1.865-1.698-2.855-2.418-13.603-18.364-58.863 3.197-73.449 10.285-3.997 1.941-1.799 8.868 2.586 7.487 15.752-4.961 47.165-21.946 64.53-12.114-7.389 2.72-14.7 5.65-21.898 8.813-11.816 5.192-23.116 11.449-35.064 16.332-1.805 0.738-3.697 1.391-5.27 2.275-5.723 1.094-11.157 5.696-16.299 9.463-3.581-6.085-7.102-13.032-10.369-20.98-18.58-45.201-21.53-71.125-20.409-95.832 1.122-24.707 10.433-70.761 11.742-76.863 1.308-6.102 6.175 0.308 2.805-16.35s-4.119-22.881-4.119-22.881l28.077 29.127 14.552-13.782s15.537 21.337 19.842 17.406c4.304-3.931 13.647-21.044 13.647-21.044s11.247 18.047 18.359 20.433c7.113 2.386 4.258 57.528-0.368 58.384-0.938 0.174-32.872 3.182-53.428 2.744-3.966-0.084 60.228 20.563 77.959 18.919 3.455-0.107 6.913-0.337 10.373-0.638-6.976 6.175-18.496 9.313-26.301 12.713-10.525 4.586-59.644 28.456-54.493 28.408 27.356-0.254 53.658-7.142 80.136-13.3 13.37-3.109 31.43-6.903 41.78-17.437 1.364 4.357 2.656 8.737 3.685 13.201 1.287 5.585 2.304 11.286 3.074 17.035 0.413 8.042 0.711 16.09 1.17 24.134-10.292 1.74-20.37 3.756-29.972 5.672-13.558 2.704-26.915 6.383-40.023 10.808m107.14-79.027c14.222 10.711 28.444 21.416 41.349 33.723 0.102 0.097 0.211 0.163 0.315 0.247-0.807 9.005-2.665 17.726-5.975 26.21-7.01-1.287-14.192-1.935-21.451-2.141 2.608-15.227-5.429-33.969-10.212-47.402-1.264-3.55-2.599-7.107-4.026-10.637m63.506-48.414c-8.548 14.251-19.909 30.202-23.506 47.117-7.69-6.34-16.488-11.027-24.558-17.047-6.99-5.216-12.839-11.742-18.66-18.296 0.512-1.054 1.004-2.115 1.489-3.166 3.574-7.748 7.276-15.426 10.92-23.143 5.973-12.652 11.738-25.397 18.002-37.892l5.797-3.946s-3.519 9.357-0.758 16.703c2.761 7.347 19.59-15.848 19.59-15.848l-3.042 26.915c13.615-17.466 12.288-25.253 12.001-26.356 0.546 1.975 6.701 24.475 5.551 32.311-1.203 8.198 14.378-16.885 14.378-16.885s1.213 2.877 2.51 6.778c-6.522 10.948-13.159 21.827-19.714 32.755m-56.215-34.655c1.028-3.074 2.071-6.143 3.171-9.192 0.693-1.923 1.392-3.833 2.088-5.742 0.347 0.665 0.683 1.264 1.003 1.815-1.63 3.418-3.257 6.837-4.906 10.246-0.459 0.95-0.909 1.91-1.356 2.873" style="fill:#fff"/></g></g><g transform="translate(470.07 1259.8)"><path d="m0 0c-11.577-5.785-27.985-0.766-39.354 2.786-7.378 2.305-14.735 4.947-21.9 7.842-2.57 1.039-4.936 1.304-6.193 4.129-3.811 8.56 5.079 20.527 10.542 27.435-1.354 1.079-2.82 2.008-4.475 2.542-22.986-32.783-27.505-71.378-25.733-110.75 0.939-20.868 3.262-41.384 7.113-61.905 1.956-10.427 3.56-21.08 5.84-31.538l0.638 0.662 10.475-9.921c-4.566 24.192-12.131 47.971-14.698 72.529-3.436 32.872-4.989 69.449 2.781 101.8 0.472 1.965 2.524 3.569 4.607 3.025 20.365-5.315 39.238-18.43 60.741-18.563 9.864-0.061 16.987 3.58 21.536 12.519 2.972 5.841 4.801 14.859 0.036 19.693-1.139-8.812-3.459-18.038-11.956-22.284m123.27-12.281c0.275-4.555 0.086-9.245-0.175-13.811-0.463-8.127-2.173-16.182-4.053-24.089-3.823-16.082-9.485-32.379-20.884-44.715-1.526-1.652-3.77-1.655-5.498-0.375-1.786 1.321-3.141 2.801-4.166 4.396-2.603-1.247-6.4 0.467-5.558 4.105 3.819 16.505 7.514 33.398 9.481 50.392 1.475 15.103 1.814 30.204-0.136 45.318-1.704-0.674-3.536-1.025-5.381-1.127 5.659-32.815 1.358-66.693-9.299-98.117 5.487-3.902 10.809-7.93 15.825-12.414 0.443 1.575 2.07 2.835 3.637 3.021 10.592 1.255 14.848 15.437 17.555 24.019 2.871 9.098 5.835 18.32 8.325 27.516 3.022 11.16 5.366 22.759 5.479 34.353 0.037 3.786-2e-3 7.579-0.144 11.363-0.014 0.378-0.084 0.953-0.162 1.59-6.543-0.167-5.14-6.565-4.846-11.425m118.79 13.65c-3.326-3.336-6.464-7.12-9.548-9.867-7.713-6.87-17.245-12.613-27.278-15.244-20.372-5.343-29.205 9.483-33.895 26.285-2.021-0.534-4.035-1.09-6.051-1.636 2.745-15.532 8.361-36.756 25.789-36.685 21.157 0.085 39.126 18.107 53.867 32.016z" style="fill:#4c7cb0"/></g><g clip-path="url(#clipPath22450)" style="opacity:.2"><g transform="translate(756.34 1185.4)"><path d="m0 0c-2.199 2.995-36.095 61.288-36.095 61.288l-29.969 53.313-12.929 13.559s-15.799-9.489-36.721-16.602c0.39-0.173 0.758-0.44 1.071-0.847 11.989-15.563 18.504-34.133 27.605-51.357 0.669-1.266 0.595-2.905-0.728-3.751-23.096-14.775-44.885-32.873-61.455-54.906 9.263 5.766 17.82 12.671 27.671 17.491 7.47 3.655 15.269 6.901 23.082 9.739 12.31 4.472 28.765 10.99 36.825-2.585 12.238-20.612 18.981-41.578 24.109-64.913 0.129-0.588 0.257-1.176 0.386-1.764 5.613-2.504 11.094-5.457 13.239-6.447 5.563-2.566 6.429 1.084 5.903 12.665s-6.325 16.476-6.325 16.476 19.673-15.096 25.885-15.588c6.211-0.492-10.247 23.519-10.247 23.519s39.263-20.913 37.875-15.818-26.983 23.533-29.182 26.528m-217.15-73.813c0.036-0.065-3e-3 0.046-0.094 0.281-0.034-9e-3 -7e-3 -0.097 0.094-0.281m20.826 55.407c-11.459 7.852-11.571 1.234-8.833 9.095-18.611 17.981-71.962 30.973-91.683 34.007 14.398-5.877 43.296-20.056 54.996-29.827 2.041-1.705 15.733-9.003 13.101-8.346-20.42 5.102-68.664 6.206-88.782 1.473 13.291-2.317 29.881-1.196 56.573-3.966 15.796-1.639 7.354-3.019 20.56-17.377 11.241-12.222 21.997-37.245 23.148-40.185 0.515 0.135 16.282-19.811 19.519-25.299 2.354-3.253 3.949-5.685 3.864-6.195 0.319 1.648 5.164 25.283 5.164 25.283s4.967-22.211 6.424-24.853c1.456-2.642 3.325 15.092 3.325 15.092l1.97 11.324s0.018-0.065 0.044-0.16c-0.093 1.448-0.205 2.896-0.307 4.344-5.096 16.863-18.092 54.911-19.083 55.59" style="fill:#00122b"/></g></g><g transform="translate(685.1 1305.5)"><path d="m0 0c-32.375-29.144-85.391-28.947-125.98-24.832-28.117 2.851-55.626 9.147-82.323 18.367-23.298 8.045-45.639 18.751-63.613 35.843-5.883-5.096-13.529-13.048-21.166-24.859 1.036-0.817 2.061-1.659 3.106-2.459 8.278-4.014 16.186-8.79 24.753-12.315 12.719-5.233 25.715-9.861 38.611-14.641 27.332-10.133 55.448-16.725 84.154-21.594 21.878-3.712 43.862-5.494 65.607-4.83 0.791 0.148 1.583 0.289 2.374 0.44 17.562 3.348 34.925 7.776 52.363 11.697 8.814 1.982 17.342 4.477 25.074 9.281 3.98 2.471 7.678 5.334 11.339 8.25l-9.117 16.218z" style="fill:#693304"/></g><g clip-path="url(#clipPath22470)" style="opacity:.2"><g transform="translate(690.28 1300)"><path d="m0 0-5.181 5.434c-15.384-13.849-35.432-21.065-56.59-24.391 2.921-7.647 4.088-15.01 2.001-22.282 10.838 2.447 21.644 5.055 32.473 7.49 8.814 1.982 17.342 4.477 25.075 9.28 3.979 2.472 7.678 5.334 11.339 8.251z" style="fill:#170900"/></g></g><g transform="translate(645.63 1295.7)"><path d="m0 0c4.014 0.537 7.399-8.77 8.691-11.424 4.347-8.934 6.462-18.846 8.928-28.399 0.509-1.972 1.334-3.53-0.138-5.09-1.067-1.131-3.705-2.049-5.097-2.678-1.316-0.594-4.038-2-5.584-1.522-3.139 0.971-3.143 6.26-3.697 8.756-1.798 8.11-4.108 16.303-8.276 23.585-1.739 3.038-5.321 7.139-4.391 10.858 0.542 2.165 1.946 3.639 4.109 3.99 2.531 0.412 8.279 1.081 9.187-2.214-1.692 0.428-2.922 1.515-3.732 4.138" style="fill:#6e9dcf"/></g><g clip-path="url(#clipPath22490)" style="opacity:.2"><g transform="translate(663.24 1255.9)"><path d="m0 0c-2.466 9.553-4.581 19.465-8.928 28.399-1.292 2.655-4.677 11.961-8.691 11.424 0.225-0.727 0.49-1.315 0.78-1.825-2.088 0.466-4.727 0.147-6.235-0.098-2.163-0.352-3.567-1.825-4.109-3.99-0.141-0.567-0.151-1.143-0.106-1.722 2.755 3.174 7.955 3.202 11.018-1.467 5.509-8.395 7.701-18.932 10.702-28.302 1.472-4.597-4.529-6.95-7.42-3.566-0.767 0.898-1.433 1.84-2.033 2.813 0.172-0.734 0.344-1.467 0.506-2.199 0.554-2.496 0.558-7.785 3.697-8.756 1.546-0.479 4.268 0.928 5.584 1.522 1.392 0.629 4.03 1.547 5.097 2.678 1.472 1.56 0.647 3.117 0.138 5.089" style="fill:#00122b"/></g></g><g transform="translate(462.8 1313.9)"><path d="m0 0c3.303-1.936 0.97-10.17 0.55-12.706-1.413-8.533-5.019-16.449-8.174-24.324-0.651-1.625-0.847-3.151-2.773-3.364-1.396-0.153-3.864 0.737-5.242 1.109-1.301 0.351-4.088 0.959-5.001 2.168-1.854 2.455 0.917 6.035 1.81 8.041 2.899 6.516 5.458 13.381 6.139 20.694 0.285 3.051-0.261 7.877 2.39 9.859 1.543 1.155 3.373 1.347 5.185 0.347 2.121-1.172 6.8-4.012 5.755-6.76-1.049 1.258-1.405 2.698-0.639 4.936" style="fill:#6e9dcf"/></g><g clip-path="url(#clipPath22510)" style="opacity:.2"><g transform="translate(455.17 1276.9)"><path d="m0 0c3.154 7.875 6.761 15.791 8.174 24.324 0.42 2.536 2.753 10.77-0.55 12.706-0.213-0.621-0.321-1.17-0.37-1.681-1.328 1.51-3.482 2.806-4.746 3.505-1.812 1-3.642 0.808-5.185-0.347-0.404-0.302-0.714-0.686-0.983-1.103 3.739 0.569 7.667-2.391 7.525-7.304-0.257-8.834-4.133-17.217-6.789-25.274-1.303-3.953-7.054-2.107-7.455 1.838-0.107 1.046-0.114 2.065-0.056 3.067-0.255-0.594-0.51-1.189-0.771-1.777-0.893-2.006-3.664-5.586-1.81-8.041 0.913-1.209 3.699-1.817 5.001-2.168 1.378-0.372 3.846-1.262 5.242-1.109 1.926 0.213 2.122 1.739 2.773 3.364" style="fill:#00122b"/></g></g><g transform="translate(597.7 1283)"><path d="m0 0c-1.741-0.144-3.427-0.153-5.174-0.067-6.662 0.329-13.464 1.164-20.117 1.663-2.584 0.17-5.161 0.409-7.731 0.717-1.093 0.169-2.192 0.253-3.297 0.252-0.851-0.092-1.886-0.464-2.492-1.08-0.779-0.792-0.589-1.07-0.688-2.585-0.269-4.081-0.53-8.158-0.905-12.232-0.441-4.787-1.12-9.654-0.658-14.461 0.189-1.974 0.413-2.211 2.313-2.626 10.655-2.323 21.807-2.938 32.642-3.911 1.908-0.561 3.767-0.564 5.579-0.01 1.191-0.031 1.827 0.613 1.908 1.934 0.179 1.741 0.32 3.486 0.425 5.233 0.235 2.677 0.291 5.36 0.169 8.05-0.202 5.67-0.998 11.093-2.272 16.558-0.139 0.595-0.075 1.216-0.232 1.791-0.176 0.648-0.668 1.011 0.53 0.774" style="fill:#8c959d"/></g><g transform="translate(584.62 1254.1)"><path d="m0 0c16.837-2.424 12.427 18.851 8.035 28.797-0.044 2e-3 -0.086 0-0.13 2e-3 -6.662 0.33-13.465 1.164-20.118 1.664-2.584 0.17-5.161 0.409-7.731 0.717-1.093 0.168-2.192 0.252-3.297 0.251-0.85-0.092-1.886-0.464-2.492-1.08-0.779-0.792-0.588-1.07-0.688-2.585-0.269-4.081-0.53-8.157-0.905-12.232-0.339-3.68-0.806-7.408-0.8-11.12 9.389-1.339 18.704-3.057 28.126-4.414" style="fill:#d4d8d3"/></g></g></g></g></svg>
