<?xml version="1.0" encoding="UTF-8"?>
<svg width="120mm" height="140mm" version="1.1" viewBox="0 0 120 140" xmlns="http://www.w3.org/2000/svg" xmlns:osb="http://www.openswatchbook.org/uri/2009/osb" xmlns:xlink="http://www.w3.org/1999/xlink"><defs><style type="text/css"><![CDATA[
    .fil5 {fill:#FFED00}
    .fil4 {fill:#EF7F1A}
    .fil6 {fill:#EF7F1A}
    .fil3 {fill:#E31E24}
    .fil2 {fill:#E31E24}
    .fil0 {fill:#FCEE5E}
    .fil1 {fill:#FFED00;fill-opacity:0.501961}
   ]]></style><filter id="a"><feGaussianBlur stdDeviation=".41431"/></filter><radialGradient id="b" cx="170.31" cy="209.17" r="104.54" gradientTransform="matrix(1.0744 -.88115 .89487 1.0911 -193.9 134.77)" gradientUnits="userSpaceOnUse"><stop stop-color="#70ffea" offset="0"/><stop stop-color="#0055f6" offset="1"/></radialGradient><filter id="u"><feGaussianBlur stdDeviation="34.6347"/></filter><linearGradient id="b-1"><stop stop-color="#fff" offset="0"/><stop stop-color="#fff" stop-opacity="0" offset="1"/></linearGradient><linearGradient id="c-3"><stop stop-opacity="0" offset="0"/><stop offset="1"/></linearGradient><linearGradient id="t" x1="-367.7" x2="315.17" y1="2082.7" y2="1824.1" gradientUnits="userSpaceOnUse"><stop stop-color="#f2f2f2" offset="0"/><stop stop-color="#f2f2f2" stop-opacity="0" offset="1"/></linearGradient><radialGradient id="h" cx="-249.67" cy="1545.8" r="78.609" gradientTransform="matrix(1.0922 -.19643 .18037 1.0029 -255.8 -53.565)" gradientUnits="userSpaceOnUse"><stop stop-color="#999" offset="0"/><stop stop-color="#999" stop-opacity="0" offset="1"/></radialGradient><radialGradient id="k" cx="-464.52" cy="1903.5" r="558.14" gradientTransform="matrix(.99679 -.47507 .25632 .53782 -491.73 615.9)" gradientUnits="userSpaceOnUse" xlink:href="#b-1"/><radialGradient id="j" cx="-472.87" cy="1866.4" r="409.06" gradientTransform="matrix(1.1907 -1.1486 .24423 .25319 -340.94 714.81)" gradientUnits="userSpaceOnUse" xlink:href="#c-3"/><radialGradient id="i" cx="-550.29" cy="1760.6" r="124.64" gradientTransform="matrix(.86996 .2431 -.21246 .76033 302.34 552.89)" gradientUnits="userSpaceOnUse" xlink:href="#c-3"/><radialGradient id="g" cx="-512.74" cy="1703.8" r="115.58" gradientTransform="matrix(.33835 -.34336 .6094 .60051 -1421.7 544.34)" gradientUnits="userSpaceOnUse" xlink:href="#b-1"/><clipPath id="ac"><path d="m688.38 337.76c33.959 3.6662 103.24-40.5 67.5-128.65s-146.41-69.02-162-18.265c-2.9502 9.6019 45.515 19.719 65.912 58.765s12.02 86.358 28.588 88.147z" style="fill-rule:evenodd"/></clipPath><clipPath id="ab"><path d="m265.82 354.97c-7.8299 9.3328-25.563 13.474-26.542 33.395-0.99345 20.213 17.934 56.514 45.548 63.567 27.525 7.0304 30.475-0.87881 44.565-0.29294 13.763 0.57227 14.746-48.92-9.8305-72.062-24.413-22.988-42.271-26.657-53.74-24.607z" style="fill-rule:evenodd"/></clipPath><filter id="x"><feGaussianBlur stdDeviation="2.88774"/></filter><filter id="w"><feGaussianBlur stdDeviation=".15907"/></filter><filter id="v"><feGaussianBlur stdDeviation=".17345"/></filter><filter id="aa" x="-.44669" y="-.25418" width="1.8934" height="1.5084"><feGaussianBlur stdDeviation="18.5373"/></filter><filter id="z" x="-.14467" y="-.09848" width="1.2894" height="1.197"><feGaussianBlur stdDeviation="5.98855"/></filter><filter id="y" x="-.17623" y="-.17892" width="1.3525" height="1.3578"><feGaussianBlur stdDeviation="6.44421"/></filter><style type="text/css">.str0 {stroke:#3F4446;stroke-width:2;stroke-linecap:round;stroke-linejoin:round}
    .fil1 {fill:none}
    .fil13 {fill:#007CC3}
    .fil15 {fill:#1F1A17}
    .fil16 {fill:#3C746B}
    .fil17 {fill:#3F4446}
    .fil14 {fill:#75C5F0}
    .fil10 {fill:#84C225}
    .fil9 {fill:#B8DB7C}
    .fil0 {fill:#DEDEDD}
    .fil18 {fill:#F7C5B4}
    .fil2 {fill:#F8C300}
    .fil12 {fill:white}
    .fil3 {fill:#FCDB00}
    .fil8 {fill:url(#a)}
    .fil11 {fill:url(#g)}
    .fil4 {fill:url(#h)}
    .fil6 {fill:url(#i);fill-rule:nonzero}
    .fil5 {fill:url(#j);fill-rule:nonzero}
    .fil7 {fill:url(#k);fill-rule:nonzero}</style><linearGradient id="a-6"><stop stop-color="#e3dedb" offset="0"/><stop stop-color="#917c6f" offset="1"/></linearGradient><linearGradient id="aj" x1="278.18" x2="304.61" y1="508.88" y2="506.84" gradientUnits="userSpaceOnUse" xlink:href="#a-6"/><linearGradient id="ag" x1="342.86" x2="359.39" gradientUnits="userSpaceOnUse" xlink:href="#a-6"/><linearGradient id="af" x1="386.27" x2="412.7" y1="357.67" y2="359.03" gradientUnits="userSpaceOnUse" xlink:href="#a-6"/><linearGradient id="ae" x1="391.43" x2="416.13" gradientUnits="userSpaceOnUse" xlink:href="#a-6"/><linearGradient id="ad" x1="271.28" x2="305" y1="522.24" y2="521.9" gradientUnits="userSpaceOnUse"><stop stop-color="#917c6f" offset="0"/><stop stop-color="#483e37" offset="1"/></linearGradient><style type="text/css">.str0 {stroke:#3F4446;stroke-width:2;stroke-linecap:round;stroke-linejoin:round}
    .fil1 {fill:none}
    .fil13 {fill:#007CC3}
    .fil15 {fill:#1F1A17}
    .fil16 {fill:#3C746B}
    .fil17 {fill:#3F4446}
    .fil14 {fill:#75C5F0}
    .fil10 {fill:#84C225}
    .fil9 {fill:#B8DB7C}
    .fil0 {fill:#DEDEDD}
    .fil18 {fill:#F7C5B4}
    .fil2 {fill:#F8C300}
    .fil12 {fill:white}
    .fil3 {fill:#FCDB00}
    .fil8 {fill:url(#a)}
    .fil11 {fill:url(#g)}
    .fil4 {fill:url(#h)}
    .fil6 {fill:url(#i);fill-rule:nonzero}
    .fil5 {fill:url(#j);fill-rule:nonzero}
    .fil7 {fill:url(#k);fill-rule:nonzero}</style><style type="text/css">.str0 {stroke:#3F4446;stroke-width:2;stroke-linecap:round;stroke-linejoin:round}
    .fil1 {fill:none}
    .fil13 {fill:#007CC3}
    .fil15 {fill:#1F1A17}
    .fil16 {fill:#3C746B}
    .fil17 {fill:#3F4446}
    .fil14 {fill:#75C5F0}
    .fil10 {fill:#84C225}
    .fil9 {fill:#B8DB7C}
    .fil0 {fill:#DEDEDD}
    .fil18 {fill:#F7C5B4}
    .fil2 {fill:#F8C300}
    .fil12 {fill:white}
    .fil3 {fill:#FCDB00}
    .fil8 {fill:url(#a)}
    .fil11 {fill:url(#g)}
    .fil4 {fill:url(#h)}
    .fil6 {fill:url(#i);fill-rule:nonzero}
    .fil5 {fill:url(#j);fill-rule:nonzero}
    .fil7 {fill:url(#k);fill-rule:nonzero}</style><style type="text/css"><![CDATA[
    .fil5 {fill:#FFED00}
    .fil4 {fill:#EF7F1A}
    .fil6 {fill:#EF7F1A}
    .fil3 {fill:#E31E24}
    .fil2 {fill:#E31E24}
    .fil0 {fill:#FCEE5E}
    .fil1 {fill:#FFED00;fill-opacity:0.501961}
   ]]></style><style type="text/css">.str0 {stroke:#3F4446;stroke-width:2;stroke-linecap:round;stroke-linejoin:round}
    .fil1 {fill:none}
    .fil13 {fill:#007CC3}
    .fil15 {fill:#1F1A17}
    .fil16 {fill:#3C746B}
    .fil17 {fill:#3F4446}
    .fil14 {fill:#75C5F0}
    .fil10 {fill:#84C225}
    .fil9 {fill:#B8DB7C}
    .fil0 {fill:#DEDEDD}
    .fil18 {fill:#F7C5B4}
    .fil2 {fill:#F8C300}
    .fil12 {fill:white}
    .fil3 {fill:#FCDB00}
    .fil8 {fill:url(#a)}
    .fil11 {fill:url(#g)}
    .fil4 {fill:url(#h)}
    .fil6 {fill:url(#i);fill-rule:nonzero}
    .fil5 {fill:url(#j);fill-rule:nonzero}
    .fil7 {fill:url(#k);fill-rule:nonzero}</style><radialGradient id="radialGradient3999" cx="352.01" cy="290.74" r="1.9198" gradientTransform="matrix(.92757 -.0024296 .028923 11.042 5.8555 -2862.5)" gradientUnits="userSpaceOnUse"><stop stop-color="#fdcc00" offset="0"/><stop stop-color="#008044" offset="1"/></radialGradient><radialGradient id="radialGradient4155" cx="349.07" cy="290.81" r="1.9198" gradientTransform="matrix(.99356 .10927 -.89577 8.1451 250.92 -2059.2)" gradientUnits="userSpaceOnUse"><stop stop-color="#fdcc00" offset="0"/><stop stop-color="#008044" offset="1"/></radialGradient><linearGradient id="linearGradient4017" x1="341.11" x2="332.66" y1="247.81" y2="243.79" gradientUnits="userSpaceOnUse"><stop stop-color="#c87600" offset="0"/><stop stop-color="#ffb142" offset="1"/></linearGradient><radialGradient id="radialGradient4188" cx="340.93" cy="269.25" r="3.3" gradientTransform="matrix(.9412 -.16125 .40295 2.352 -103.75 -244.04)" gradientUnits="userSpaceOnUse"><stop stop-color="#00519c" offset="0"/><stop stop-color="#008044" offset="1"/></radialGradient><linearGradient id="linearGradient4011" x1="521.34" x2="521.52" y1="441.65" y2="416.29" gradientTransform="matrix(.62915 0 0 .81201 149.81 82.72)" gradientUnits="userSpaceOnUse"><stop stop-color="#909090" offset="0"/><stop stop-color="#ededed" offset="1"/></linearGradient><radialGradient id="radialGradient4013" cx="-406.03" cy="34.019" r="39.158" gradientTransform="matrix(1,0,0,1.0476,0,-3.2299)" gradientUnits="userSpaceOnUse"><stop stop-color="#fff" stop-opacity=".74403" offset="0"/><stop stop-color="#fff" stop-opacity="0" offset="1"/></radialGradient><linearGradient id="a-2"><stop stop-color="#a18930" offset="0"/><stop stop-color="#e3c565" offset=".66667"/><stop stop-color="#fffbcc" offset="1"/></linearGradient><linearGradient id="c-6" x1="32.232" x2="41.601" y1="52.825" y2="65.947" gradientUnits="userSpaceOnUse" spreadMethod="reflect" xlink:href="#a-2"/><linearGradient id="b-48" x1="44.906" x2="51.25" y1="38.795" y2="47.564" gradientUnits="userSpaceOnUse" spreadMethod="reflect" xlink:href="#a-2"/><radialGradient id="radialGradient6267" cx="414.68" cy="-8.8805" r="123.55" gradientTransform="matrix(-5.8291e-6 .89419 -1.9479 1.1251e-8 598.73 580.58)" gradientUnits="userSpaceOnUse"><stop style="stop-color:#ffb142" offset="0"/><stop style="stop-color:#ffb141" offset=".88679"/><stop style="stop-color:#c87600" offset="1"/></radialGradient><linearGradient id="linearGradient6269" x1="348.29" x2="361.63" y1="-137.29" y2="-137.29" gradientTransform="matrix(.76434 0 0 -.96923 348.22 653.79)" gradientUnits="userSpaceOnUse"><stop style="stop-color:#fbb045" offset="0"/><stop style="stop-color:#c77829" offset="1"/></linearGradient></defs><g transform="translate(-36.76 -92.438)"><rect x="36.76" y="92.462" width="7.5883" height="139.85" ry="3.3779" style="color-rendering:auto;color:#000000;fill:#2c89a0;image-rendering:auto;isolation:auto;mix-blend-mode:normal;shape-rendering:auto;solid-color:#000000;stroke-width:1.3895"/><rect x="40.926" y="99.632" width="114.02" height="132.81" ry=".57281" style="color-rendering:auto;color:#000000;fill:#2c89a0;image-rendering:auto;isolation:auto;mix-blend-mode:normal;shape-rendering:auto;solid-color:#000000;stroke-width:1.3895"/><rect x="40.926" y="99.632" width="111.81" height="130.42" ry=".56251" style="color-rendering:auto;color:#000000;fill:#fff;image-rendering:auto;isolation:auto;mix-blend-mode:normal;shape-rendering:auto;solid-color:#000000;stroke-width:1.3895"/><g transform="translate(-8.6976 80.964)" style="fill:#80e5ff"><rect x="49.021" y="11.474" width="116.44" height="132.81" ry=".57281" style="color-rendering:auto;color:#000000;fill:#80e5ff;image-rendering:auto;isolation:auto;mix-blend-mode:normal;shape-rendering:auto;solid-color:#000000;stroke-width:1.3895"/></g><text x="59.840553" y="106.65023" style="fill:#004455;font-family:'Lucida Console';font-size:10.583px;font-stretch:semi-condensed;letter-spacing:0px;line-height:1.25;stroke-width:.26458;word-spacing:0px" xml:space="preserve"><tspan x="59.840553" y="106.65023" style="fill:#004455;font-family:'Lucida Console';font-stretch:semi-condensed;stroke-width:.26458">Wisies:</tspan><tspan x="59.840553" y="119.87939" style="fill:#004455;font-family:'Lucida Console';font-stretch:semi-condensed;stroke-width:.26458">what's that</tspan></text><g transform="matrix(.48415 0 0 .48415 20.876 96.88)" style="stroke-width:2.0655"><g transform="translate(-46.051 -89.795)" style="stroke-width:2.0655"><g transform="translate(24.504 102.23)" style="stroke-width:2.0655"><g transform="translate(65.661 -14.223)" style="stroke-width:2.0655"><circle cx="66" cy="93.359" r="8" style="fill-rule:evenodd;fill:#666;paint-order:normal"/><circle cx="34" cy="93.359" r="8" style="fill-rule:evenodd;fill:#666;paint-order:normal"/><ellipse cx="50" cy="104.68" rx="22" ry="21" style="fill-rule:evenodd;fill:#808080;paint-order:normal"/><g transform="translate(0 6.5004)" style="stroke-width:2.0655"><g style="stroke-width:2.0655"><circle cx="45" cy="96.618" r="1" style="fill-rule:evenodd;paint-order:normal"/><circle cx="45.427" cy="96.578" r=".2" style="fill-rule:evenodd;fill:#fff;paint-order:normal"/></g><g transform="translate(10)" style="stroke-width:2.0655"><circle cx="45" cy="96.618" r="1" style="fill-rule:evenodd;paint-order:normal"/><circle cx="45.427" cy="96.578" r=".2" style="fill-rule:evenodd;fill:#fff;paint-order:normal"/></g></g><ellipse cx="50" cy="111.74" rx="8" ry="7" style="fill-rule:evenodd;fill:#fff;paint-order:normal"/><ellipse cx="50" cy="108.25" rx="3" ry="2.5" style="fill-rule:evenodd;fill:#1a1a1a;paint-order:normal"/><path transform="matrix(.28466 0 0 2.2773 40.094 -129.53)" d="m36.546 106.81c0 1.978 0.22968 1.7483-1.7483 1.7483s-1.7483 0.22967-1.7483-1.7483c0-1.978-0.22968-1.7483 1.7483-1.7483s1.7483-0.22968 1.7483 1.7483z" style="fill-rule:evenodd;fill:#1a1a1a;paint-order:normal"/><path transform="matrix(0 -.28466 2.2773 0 -193.23 125.34)" d="m27.907 106.81c0 1.978 17.406 3.0738 15.428 3.0738s-16.925-1.127-16.925-3.1049c0-1.978 14.947-3.0427 16.925-3.0427s-15.428 1.0958-15.428 3.0738z" style="fill-rule:evenodd;fill:#1a1a1a;paint-order:normal"/><path d="m65 139.77c0 14.324-1.8674 15.565-15.372 15.565-13.504 0-14.628-1.8482-14.628-16.172 0-14.324 1.6479-16.567 15.152-16.567 13.504 0 14.848 2.8501 14.848 17.174z" style="fill-rule:evenodd;fill:#808080;paint-order:normal"/><ellipse transform="matrix(.93569 -.35283 .33145 .94347 0 0)" cx="22.849" cy="144.43" rx="12.94" ry="5.6241" style="fill-rule:evenodd;fill:#808080;paint-order:normal"/><ellipse transform="matrix(-.93569 -.35283 -.33145 .94347 0 0)" cx="-71.523" cy="109.13" rx="12.94" ry="5.6241" style="fill-rule:evenodd;fill:#808080;paint-order:normal"/><path transform="matrix(.44842 0 0 .037435 28.131 118.02)" d="m69.578 148.27c0 23.768 2.9595 51.333-20.809 51.333-23.768 0-21.208-27.565-21.208-51.333s-2.5602 16.445 21.208 16.445c23.768 0 20.809-40.214 20.809-16.445z" style="fill-rule:evenodd;paint-order:normal"/><path d="m58.934 123.75c0 0.52627 1.1611 1.4453-8.934 1.4453-10.095 0-8.9118-0.91906-8.9118-1.4453 0-0.52628-1.1833 0.76433 8.9118 0.76433 10.095 0 8.934-1.2906 8.934-0.76433z" style="fill-rule:evenodd;paint-order:normal"/><g transform="matrix(.97872 0 0 .53305 .57447 68.617)" style="stroke-width:2.0655"><ellipse cx="40.283" cy="161.84" rx="8.1739" ry="13.909" style="fill-rule:evenodd;fill:#666;paint-order:normal"/><ellipse cx="40.283" cy="167.11" rx="5.1087" ry="4.9091" style="fill-rule:evenodd;fill:#fff;paint-order:normal"/><ellipse cx="60.717" cy="161.84" rx="8.1739" ry="13.909" style="fill-rule:evenodd;fill:#666;paint-order:normal"/><ellipse cx="60.717" cy="167.11" rx="5.1087" ry="4.9091" style="fill-rule:evenodd;fill:#fff;paint-order:normal"/><g transform="matrix(.029241 0 0 .049797 39.891 80.364)" style="stroke-width:2.0655"></g></g></g></g><g transform="matrix(.044546 0 0 .035411 135.52 191.51)" style="stroke-width:2.0655"><path d="m59.156 1157.2c-16.16-18.5-56.045-26-52.07-53.7 3.68-67.2 10.286-134.09 15.966-201.01 4.671-47.94 7.827-96.33 18.388-143.46 4.201-23.03 35.613-51.2 19.6-70.16-11.686-21.57-21.87-43.86-38.103-62.51-15.527-20.08 16.533-32.85 32.837-30.8 22.872 0.27257 46.032-3.2704 69.237-1.5065 16.626 3.449 55.725-7.805 54.584 16.401-10.043 27.991-30.973 50.916-40.13 79.204-3.8394 25.354 23.337 41.61 26.076 66.515 7.7497 52.454 14.003 105.35 18.993 158.26 5.7956 33.526 5.0707 67.834 11.492 101.11 2.6974 33.227 7.2362 66.266 9.9864 99.494-19.548 19.256-41.781 35.121-61.473 54.159-16.318 10.787-31.315 38.897-48.667 14.991-12.258-9-24.475-18-36.718-27z" style="stroke-width:2.0655"/></g></g></g><g transform="matrix(.080796 0 0 .081696 73.468 178.87)"><g transform="matrix(2.0296,0,0,2.0296,-461.73,-413.57)"><path d="m333.16 347.37c-2.6327 14.722-2.8288 39.794 5.0954 40.743 11.135-1.6727 7.0848-37.361 4.6066-44.672-1.4609 0.66359-6.2408 3.2658-9.702 3.9294z" style="fill:#1a171b"/><path d="m334.31 348.78 7e-3 -0.66509c0.59413 0.114 2.753 0.52173 2.5591-0.56405 0 0-1.7893-3.9434 1.2009-3.6244 2e-3 -6e-3 5e-3 -0.0131 6e-3 -0.0204 0.52915 0.1299 1.6542 0.29736 3.8613 0.25816 0.22835 1.4906 0.55605 3.8226 0.77652 5.6426 1.4808 11.044 3.5474 33.831-3.835 35.939 0.0934-3.5047-0.23372-17.11-0.77863-18.638-0.56914 2.555-0.89628 14.811-0.98027 18.345-2.2025-1.5844-7.7691-8.4239-2.8599-35.868l0.0428-0.804z" style="fill:#00519c"/><path d="m341.83 344.07c4.3128 36.256-3.9623 33.967-3.3189-0.069 1.4362-0.18908 1.8028 0.0455 3.3189 0.069z" style="fill:url(#radialGradient3999)"/><path d="m336.72 344.04c-1.1069 2.2902-0.19908 1.7957 0.0879 3.7663-0.0464 0.24993-0.23363 0.58159-1.6697 0.41592-3.4154 37.095 3.7948 21.243 3.8139-4.3417-1.147-0.14453-1.3697-0.27496-2.2322 0.15946z" style="color:#000000;fill:url(#radialGradient4155)"/></g><path d="m244.08 378.44c0.018 60.508-49.029 109.57-109.54 109.57-60.508 0-109.55-49.061-109.54-109.57-0.01801-60.508 49.029-109.57 109.54-109.57 60.508 0 109.55 49.061 109.54 109.57z" style="fill:#fc0"/><path d="m71.652 427.76a15.203 8.8389 60.05 0 1-15.317 8.8256 15.203 8.8389 60.05 1 1 15.317-8.8256z" style="fill:#784421"/><path d="m237.46 340.86c0.0768 1.6816 0.125 3.3933 0.125 5.0938 0 60.464-49.067 109.53-109.53 109.53-47.262 0-87.591-29.999-102.94-71.969 2.6535 58.112 50.674 104.47 109.44 104.47 60.464 0 109.53-49.067 109.53-109.53 0-13.202-2.3382-25.87-6.625-37.594z" style="fill-opacity:.31373"/><path d="m142.73 489.01c0 9.0908 14.665 9.3814 32.735 9.3814s32.735 0.69349 32.735-9.3814c0-17.716-14.665-32.094-32.735-32.094s-32.735 14.378-32.735 32.094z" style="fill:#784421"/><path d="m188.05 497.79c0-16.368-9.4428-26.44-9.4428-26.44s3.7771 13.849 3.1476 26.44z" style="fill-opacity:.31373;fill-rule:evenodd"/><path d="m82.009 305.08c24.501-37.9 20.001-128.73 20.001-128.73l60-3.2673s-1.5 91.485 23.5 130.04" style="fill-rule:evenodd;fill:#fc0"/><path d="m157.58 212.17a10.521 14.849 0 0 1-21.042 0 10.521 14.849 0 1 1 21.042 0z" style="fill:#784421"/><path d="m162 173.08-17.156 0.9375-42.84 2.34s0.24111 4.8545 0.3125 12.562c13.159 8.2563 26.42 13.062 35.719 13.062 3.3283 0 7.1053-0.5723 11.156-1.6562 6.1863 33.341 17.668 80.343 36.031 102.5l-1 0.34375 1.2812-0.0312c-17.207-26.536-21.834-78.152-23.062-107.75-0.13915-3.3512-0.24539-6.4361-0.3125-9.1562-0.051-2.1738-0.0751-4.0973-0.0937-5.7812-0.0171-1.3569-0.0272-2.3769-0.0312-3.375-5e-3 -1.5501-6e-3 -1.748 0-2.4062 2e-3 -1.0446 0-1.5938 0-1.5938z" style="fill-opacity:.31373;fill-rule:evenodd"/><path d="m134.54 26.305c-22.79 0-41.278 6.9679-54.875 18.594-0.57066-0.42629-1.3434-0.8054-2.3438-1.25-55.508-10.607-74.605 25.093-75.312 30.75-0.70711 5.6568 38.515 14.485 59.375-6.375 0.27075-0.27075 0.45453-0.45474 0.71875-0.71875-6.1713 12.024-9.4062 25.97-9.4062 40.844 0 45.174 56.125 81.844 81.844 81.844 26.717 0 81.844-36.669 81.844-81.844 0-15.041-3.463-29.135-9.9375-41.25 0.40783 0.40733 0.70122 0.70122 1.125 1.125 20.86 20.86 60.082 12.032 59.375 6.375-0.70711-5.6568-19.773-41.357-75.281-30.75-1.1728 0.52125-2.0848 0.95218-2.6562 1.4688-13.735-11.746-32.207-18.812-54.469-18.812z" style="fill:#fc0"/><path d="m130.92 96.152c4e-3 12.519-10.144 22.67-22.663 22.67s-22.667-10.151-22.663-22.67c-4e-3 -12.519 10.144-22.67 22.663-22.67s22.666 10.151 22.663 22.67z" style="fill:#fff"/><path d="m183.65 96.152c4e-3 12.519-10.144 22.67-22.663 22.67s-22.667-10.151-22.663-22.67c-4e-3 -12.519 10.144-22.67 22.663-22.67s22.666 10.151 22.663 22.67z" style="fill:#fff"/><path d="m163.5 100.15c1e-3 4.173-3.3813 7.5565-7.5542 7.5565-4.173 0-7.5555-3.3835-7.5542-7.5565-1e-3 -4.173 3.3813-7.5565 7.5542-7.5565 4.173 0 7.5555 3.3835 7.5542 7.5565z"/><path d="m121.47 100.15c1e-3 4.173-3.3813 7.5565-7.5542 7.5565-4.173 0-7.5555-3.3835-7.5542-7.5565-1e-3 -4.173 3.3813-7.5565 7.5542-7.5565 4.173 0 7.5555 3.3835 7.5542 7.5565z"/><path d="m208.96 69.229c1.7546 7.6324 2.625 15.723 2.625 24.125 0 45.174-55.127 81.844-81.844 81.844-20.706 2e-5 -61.097-23.756-76.062-56.594 7.6158 40.246 57.172 71.375 80.875 71.375 26.717 0 81.844-36.669 81.844-81.844 0-14.081-2.4127-27.332-7.4375-38.906z" style="fill-opacity:.31373"/><path d="m127.73 489.01c0 9.0908-14.665 9.3814-32.735 9.3814s-32.735 0.69349-32.735-9.3814c0-17.716 14.665-32.094 32.735-32.094s32.735 14.378 32.735 32.094z" style="fill:#784421"/><path d="m82.403 497.79c0-16.368 9.4428-26.44 9.4428-26.44s-3.7771 13.849-3.1476 26.44z" style="fill-opacity:.31373;fill-rule:evenodd"/><path d="m151.14 160.78c-2.2927 3.9731-6.5002 5.8386-9.3968 4.1663-2.8965-1.6723-3.3847-6.2489-1.0903-10.221 2.2927-3.9731 6.5003-5.8386 9.3968-4.1663s3.3847 6.2489 1.0903 10.221z"/><path d="m118.4 160.78c2.2927 3.9731 6.5002 5.8386 9.3968 4.1663 2.8965-1.6723 3.3847-6.2489 1.0903-10.221-2.2927-3.9731-6.5003-5.8386-9.3968-4.1663s-3.3847 6.2489-1.0903 10.221z"/><path d="m201.86 50.241c35.782-4.5675 52.523 16.965 53.837 20.227 1.3131 3.2625-35.125 10.114-53.837-20.227z" style="fill-rule:evenodd;fill:#d4aa00"/><path d="m68.203 351.58a13.435 21.213 13.776 0 1-26.097-6.3984 13.435 21.213 13.776 1 1 26.097 6.3984z" style="fill:#784421"/><path d="m141.42 385.5a24.395 25.809 0 0 1-48.79 0 24.395 25.809 0 1 1 48.79 0z" style="fill:#784421"/><path d="m218.77 337.21a14.849 8.4854 71.565 0 1-16.1 5.3666 14.849 8.4854 71.565 0 1 16.1-5.3666z" style="fill:#784421"/><path d="m204.58 408.17a12.021 14.849 0 0 1-24.042 0 12.021 14.849 0 1 1 24.042 0z" style="fill:#784421"/><path d="m178.9 329.29a19.092 21.213 0 0 1-38.184 0 19.092 21.213 0 1 1 38.184 0z" style="fill:#784421"/><path d="m130.11 258.26a13.082 21.214 0 0 1-26.163 0 13.082 21.214 0 1 1 26.163 0z" style="fill:#784421"/><path d="m66.732 50.241c-35.782-4.5675-52.523 16.965-53.837 20.227-1.3131 3.2625 35.125 10.114 53.837-20.227z" style="fill-rule:evenodd;fill:#d4aa00"/><g transform="matrix(1.5293,0,0,1.5293,-296.38,-446.14)"><path d="m277.53 291.74c-14.841 0.2283-33.201 2.213-43.885 25.685-2.0478 1.673-2.8993 4.1275-3.1904 5.1324-5.9338 4.485-10.385 17.41-9.2369 25.714-0.0669 3.257-4.0499 8.3363 1.2188 8.2812 2.3374 0.65433 4.0938-4.049 5.0938-3.1875-0.65002 4.7868-4.1214 10.149-3 15.219 2.1573 4.2812 4.9866-1.1141 6.0312-3.4688 3.197-3.8299 7.3379-7.7551 6.6562-13.344 1.1837-1.2146 2.535-2.5176 3.1875-4.375 2.9262-2.9494 3.9496-7.2363 2.5938-11.156 0.50414-4.4225-2.7389-11.01 2.3125-13.5 13.493-6.6423 29.425-5.3224 44.184-5.0002 13.488 0.97147 27.427 2.7368 39.129 10.125-6.6193-24.781-27.881-36.633-51.094-36.125z"/><path d="m275.5 293.03c-12.452 0.24514-24.305 4.1817-31.656 11.531-4.386 5.5107-7.894 10.024-9.1875 14.719-0.25261 0.19237-1.2165 0.14288-1.2576 0.55869-0.0397 0.40124-0.28482 1.1812-0.87247 1.75-0.58764 0.56881-0.55768 1.6045-0.52617 1.8163 0.0316 0.21183-0.18206 0.4255-0.5 0.46875-0.79917 0.1087-2.9379 2.6161-4.75 5.5938-2.9483 4.8448-4.4425 11.196-3.6875 15.781 0.20816 1.2642 0.3103 2.4072 0.21875 2.5312-0.0916 0.12408-0.26575 0.92397-0.375 1.7812-0.1092 0.85728-0.50126 2.358-0.875 3.3438-0.72702 1.9174-0.71235 0.62231 0.53125 1.4062 0.42338 0.26688 1.1426-0.95754 1.7188-1.375 1.2608-0.91354 2.0207-2.7651 2.3438-5.6562 0.42353-3.7904 1.7645-8.5862 3.0625-11.438-0.63459 1.9946-1.2757 5.0469-1.1562 5.625 0.0458 0.22153 4e-3 0.75157-0.0937 1.1875-0.0981 0.43592-0.0969 1.837 0.0313 3.0938s0.17991 2.4963 0.0937 2.75c-0.0862 0.25369 0.0455 0.83245 0.3125 1.3125 0.26717 0.48005 0.39405 1.1678 0.28125 1.5-0.11281 0.33222-0.0366 0.84231 0.15625 1.1562 0.4548 0.74063 0.36296 2.0368-0.15625 2.1562-0.23318 0.0537-0.34516 0.33129-0.25 0.625 0.0909 0.2806-0.54382 2.8014-1.4375 5.5938-1.2472 3.8969-1.5779 5.308-1.375 6.0938 0.14538 0.56304 0.30899 0.97558 0.375 0.9375 0.066-0.0381 0.47143-0.73161 0.875-1.5625 1.0031-2.0653 2.8495-4.5913 4.9375-6.75 1.9638-2.0304 2.717-3.8151 2.6875-6.3125-0.0275-2.3186 0.78746-4.3318 1.75-4.3125 0.51777 0.0104 0.77469-0.22309 0.8125-0.75 0.03-0.41921 0.84162-1.8203 1.8125-3.0938 2.1271-2.7901 2.6011-4.4179 1.9375-6.625-0.27428-0.91219-0.42546-2.2162-0.34375-2.875 0.13891-1.12-0.23235-4.7669-0.71875-7.1562-0.14211-0.69818 0.12402-1.919 0.75-3.6562 0.34429-0.95544 0.61531-1.9853 0.8125-2.9688 1.7115-0.72927 3.5636-1.5438 5.4688-2.1875 7.2172-5.7608 57.854-7.3908 78.035 3.9637-6.22-21.61-29.04-30.97-49.79-30.56z" style="fill:#e40000"/><path d="m230.45 349.27c-1.071 2.0607 1.289-7.4877 1.6336-8.1653 0.23135-0.45478 0.54619-1.5599 0.69969-2.4558 0.15343-0.89594 0.9554-3.05 1.782-4.7868 1.199-2.5193 1.714-3.2727 2.5465-3.7258l1.0435-0.56788-0.44854 1.7064c-0.25959 0.98755-0.69004 1.874-1.0218 2.1042-0.34492 0.23936-0.59218 0.76383-0.62071 1.3166-0.0261 0.50533-0.20802 1.0314-0.40432 1.1689-0.19629 0.13757-0.57983 1.271-0.85226 2.5187-0.97039 4.444-0.96097 4.0844-0.098 3.7402 0.42396-0.1691 1.1206-0.93925 1.548-1.7115 0.80356-1.4516 1.1144-1.7628 1.299-1.3 0.31714 0.79514-2.7053 6.1397-4.5439 8.0349-0.83479 0.8605-1.7671 1.8201-2.0719 2.1325-0.43065 0.44144-0.54003 0.43934-0.49088-9e-3z" style="opacity:.4"/><path d="m227.1 333.12c-0.23949-0.60044 1.0628-3.0821 2.8189-5.3719 2.3369-3.047 3.2466-3.9404 3.6482-3.5827 0.33258 0.29624-0.74751 3.6202-1.1238 3.4584-0.28528-0.12264-2.0511 1.5716-2.6113 2.5053-0.26435 0.4406-0.84656 1.4147-1.2939 2.1646-0.7802 1.308-1.1592 1.5257-1.4382 0.82621z" style="color:#000000;opacity:.4"/><path d="m234.5 325.26c1.6704 0.1109 3.8144 0.86167 4.6243 0.50295 1.1177 0.91773 0.24549 0.85611 0.63043 1.5167-0.11664 0.81308-1.797 0.49123-5.2548-2.0197z" style="color:#000000;opacity:.4"/><path d="m241.16 321.74c-1.6467-0.56917-2.4898-1.9256-4.8661-1.7857-1.88 0.10119-0.81825-0.77073-0.13393-0.9375 2.3247-0.24015 4.2038 2.1376 5 2.7232z" style="color:#000000;opacity:.4"/><path d="m242.94 320c6.1467-6.0851 24.32-6.0148 53.538-5.8084 0.57563 0.22137-24.464-4.5075-51.897 2.7779-0.5753 0.7225-4.2366 0.72277-1.6415 3.0305z" style="fill:#890000"/><path d="m246.54 307.07c-1.4548 2.2148-4.4056 7.7192-5.6467 8.8647-0.0648 0.55421-0.29432 1.1555 1.25 1.25 2.6401-3.6448 3.2602-7.7588 4.3967-10.115z" style="color:#000000;fill:#890000"/><path d="m253.87 310.65c-11.043 1.0521-8.8414 1.8587-1.6184 0.76449-1.0582 0.3744-5.274 3.057-7.8987 4.8875 3.7596-1.4231 5.8939-3.3526 10.634-4.6617 9.1568-0.75096 8.5584 0.33363 2.9649-1.3664 5.3885-1.237 8.817-0.47798 8.6526-0.56606-3.6698-1.9666-9.1902-1.0651-12.734 0.9422z" style="color:#000000;fill:#890000"/></g><g transform="matrix(2.0293,0,0,2.0293,-478.79,-404.7)"><path d="m343.38 343.7c0.81592-0.0992 2.578-0.34779 3.6928-0.74872 2.8337 0.64262 7.0111 1.3923 8.2799 0.58082 1.1823-0.7334-4.652-5.4872-9.5325-12.334l4.2e-4 -3.2e-4c2e-3 -0.63928-0.0144-1.2606-0.0412-1.8742 0.43041-9.0484-3.6075-15.329-5.9645-18.19-0.59262-0.83816-1.1165-1.4806-1.5067-1.9292-0.36853-0.69576-0.6465-1.2799-0.78918-1.8121-0.10525-0.39477 0.23387-0.92428 4e-3 -1.6863 0.33557-0.34689 0.5643-0.80067 0.69286-1.329 0.12855-0.52834 0.15694-1.1312 0.0918-1.7764-0.0651-0.64511-0.22373-1.3325-0.4692-2.0297-0.24546-0.69719-0.57775-1.4043-0.99024-2.0889-0.41246-0.68463 1.8151 0.55738 1.249-0.05-0.31354-1.0286-4.0436-3.6892-5.2441-3.8729-0.14365-0.0741-0.40074-0.46049 1.4559-0.31064-0.61138-1.139-4.8848-0.8464-5.8319-0.83386-15.324 1.3105-12.231 12.569-12.347 12.503 0 0-0.49367 0.98309-1.3176 3.2311-0.80695 8.0665 6.6509 7.8176 7.631 7.4876 0 0-0.32466-1.3193-0.0322-3.3662-0.25706-0.47815 1.6593 2.6825 3.9101 1.4885 0 0-2.5944 3.4262-3.0064 8.5955-1.0592 2.6964-4.7699 13.52 2.1396 17.484-0.0102 4e-3 -0.0229 9e-3 -0.0328 0.0143l-0.0263 0.0128-0.0633 0.037c-1.0755 0.67344-1.4396 1.7906-0.99805 3.0662 0.38727 1.115 1.4277 2.3308 2.5917 2.3859 0.35759 0.0183 0.63829-0.0282 0.85593-0.10478 0.35838 0.25535 0.75521 0.42226 1.1677 0.44175 0.94474 0.0464 1.3476-0.35048 1.5044-0.59132 0-3.4e-4 0.0625-0.21304 0.11048-0.37595 0 0 0.0984 0.22636 0.34999 0.54168 0.08 0.10828 0.1632 0.21388 0.2524 0.31498 2e-3 -6e-3 6e-3 -0.0116 8e-3 -0.0174 0.43197 0.44606 1.1273 0.97258 2.2005 1.3219z" style="fill:#1a171b"/><g transform="matrix(1.1995,0,0,1.0236,-81.587,58.603)"><path d="m332.29 243.09c1.7226-0.10159 4.4601 0.10159 4.4601 0.10159s-1.1154 2.7368 5.2708 3.8514c0.4532 2.0873-2.7299 3.5526-4.3874 1.915 1.0532-0.2165 1.8312-0.11419 1.9207-1.2871-1.632 1.1902-1.9055 0.19383-2.6961 0.48043 0 0-1.6286-0.0944-1.0202 3.1488-0.15835 0.83522-7.2274-2.1454-3.5479-8.2101zm1.0731 4.3081c0.67637-1.6897 1.183-1.6046 0.0861-2.5339 0-1.6e-4 -0.84591 1.0134-0.0861 2.5339z" style="fill:url(#linearGradient4017)"/><path d="m338.81 238.83c1.7196-0.91544 2.8086 3.092 0.95959 3.8092 0.23507-4e-3 0.48136-0.017 0.75057-0.0487 5.5483-1.0145 1.5056-7.3106-0.21745-6.37-2.4821-0.16577-4.3079 3.3767-3.1188 5.3575 0.0325 0.0566 0.0716 0.1096 0.10769 0.16504 0.0707 0.0928 0.14678 0.1846 0.23907 0.266-0.58823-0.89158 0.20041-2.5884 1.2793-3.179z" style="fill:#fff"/><circle transform="matrix(-.16024 0 0 .16024 363.88 230.04)" cx="150.88" cy="63.558" r="2.665" style="fill:#fff"/><path d="m340.28 235.68c4.3837-0.67414 5.5254 7.5507 0 7.5507-5.5257-1.6e-4 -4.7885-6.8142 0-7.5507z" style="fill:none"/><path d="m362.63 278.2c-4.5422-0.43505-8.1657-2.0463-10.756-3.6572-1.5856-0.71772-3.2639-1.832-4.5588-3.6743-0.058-0.0635-0.091-0.1016-0.091-0.1016l0.01-0.01c-1.3109-1.9186-2.2073-4.61-2.1725-8.4365 0.10111-11.15 0.91256-11.961 4.2573-15.002l0.74865-0.32625s5.5333 6.891 4.75 17.907c-0.83453-1.3052-1.6261-2.374-2.4571-3.1183 0.13444 1.5543 1.0315 3.0263 1.0315 3.0263 2.345 4.6768 5.971 9.036 9.2385 13.393zm-24.636-15.586c-0.32079 3.463-0.30381 10.219 4.2936 12.386 8e-3 6e-3 0.015 0.0115 0.0226 0.017-1.5141 1.0526-8.1644 0.13108-4.2789-13.761-1.6e-4 1.7e-4 -0.0365 0.51854-0.0373 1.3582zm3.1319-31.675-3.2e-4 -1e-3c9.1032 0.50073 7.9587 11.397 6.6677 10.887 0.70672 2.2571 0.98266 2.6831 1.3015 4.0824 0 0-5.3518 2.5264-5.3518 14.588 0 11.657 4.2598 13.564 10.768 16.422 0.0777 0.0958 0.15239 0.18684 0.22417 0.27337-1.9972-0.10448-4.5742 5e-3 -7.0456-0.92106-8.0812-1.4455-9.2552-8.9518-8.6132-15.581-0.0328-3.1042 0.60025-6.6035 2.2966-10.42-7e-4 -5e-3 -2e-3 -0.01-2e-3 -0.0146 0.0163-0.0288 0.0292-0.054 0.0456-0.0828 0.0328-0.0729 0.0633-0.14469 0.0965-0.21696 8e-3 0 0.0214-0.012 0.0326-0.0165 1.5676-2.8302 1.5981-3.9067 1.5739-4.1498-3.6261 1.2117-5.2331-1.04-5.5257-1.5269-0.30269-0.507 0.10272-1.3177 0.10272-1.3177s-9e-3 -8e-3 -0.02-0.0184c-0.4522-0.39436-0.68983-0.57559-0.78117-0.64241-1.4873-0.0875-4.3705-0.22212-5.016-0.24981-7e-4 -2e-3 0.24146-0.13493 0.24076-0.13703-0.77615-5.9315 3.5733-10.954 9.0058-10.957zm-0.84608 12.291c5.5254 0 4.3837-8.2248 0-7.5507-4.7885 0.73662-5.5257 7.5507 0 7.5507z" style="fill:#00519c"/><path d="m344.25 246.65c-0.0498-1.8477-2.4403-0.75826-3.1441-0.39676 0.58808 2e-3 1.2566-0.0989 2.0142-0.35188 0.024 0.24292-6e-3 1.3196-1.5739 4.1496-0.0112 4e-3 -0.025 0.0165-0.0325 0.0165-0.0332 0.0724-0.0634 0.14421-0.0965 0.21696-0.0167 0.0288-0.0295 0.054-0.0456 0.0829 3.3e-4 5e-3 1e-3 0.01 2e-3 0.0146-0.0666 0.14982-0.12899 0.29836-0.19213 0.44723 1.8599-0.30286 3.1208-2.2405 3.0683-4.1791z" style="fill:#fdcc00"/><path d="m343.35 277.44s-2.2394-0.3381-0.78117 2.606c0.13012 0.18172 0.52079 0.96353-0.39067 0.91194-0.62461-0.0367-1.5455-1.3137-1.5664-2.4847 0.0917-0.0869 0.18684-0.17161 0.29645-0.24629 0.29164-0.19805 0.60282-0.31888 0.90296-0.37175 0.0306-3e-3 0.0626-9e-3 0.0939-0.01-6e-3 -2e-3 -0.0115-3e-3 -0.0168-5e-3 7e-4 0 7e-4 -6.4e-4 7e-4 -6.4e-4 -2e-3 0-3e-3 0-4e-3 -7e-4 -0.35301-0.14373-0.76307-0.13716-1.121 0.064-0.0375 0.0205-0.0682 0.0476-0.1008 0.0732 0.0745-0.31263 0.23187-0.60283 0.50412-0.83742-0.55683 0.11569-1.2353 0.61388-0.25911 2.5823 0.13011 0.18283 0.52046 0.96321-0.39082 0.9116-0.65507-0.037-1.6391-1.4433-1.567-2.6576 0.0683-0.058 0.14117-0.11408 0.21809-0.16616 0.29132-0.1979 0.6025-0.31888 0.90263-0.37128 0.0309-3e-3 0.0633-9e-3 0.0939-0.0101-6e-3 -2e-3 -0.0109-3e-3 -0.0167-5e-3 7e-4 0 7e-4 -3.2e-4 1e-3 -3.2e-4 -3e-3 0-3e-3 0-6e-3 -1e-3 -0.34516-0.14037-0.74608-0.13444-1.0997 0.0549 0.10047-0.28458 0.27818-0.54321 0.56052-0.75024 0.55091-0.31166 1.8484-0.70826 2.0533 0.14246 0.68984-0.26328 1.691-0.39083 1.691 0.57173zm4.475 3.7668c0.14182 0.19869 0.56725 1.0501-0.42656 0.99365-0.68759-0.0388-1.7062-1.4627-1.7066-2.7507 0.0917-0.0873 0.18684-0.17242 0.29757-0.24821 0.29163-0.19758 0.60282-0.31888 0.90263-0.37096 0.0309-4e-3 0.0626-9e-3 0.0936-0.0104-6e-3 -2e-3 -0.0109-3e-3 -0.0164-4e-3 3.3e-4 0 3.3e-4 -3.2e-4 3.3e-4 -3.2e-4 -1e-3 0-2e-3 0-3e-3 -1e-3 -0.35269-0.14373-0.76307-0.13684-1.1214 0.0639-0.0364 0.0202-0.0663 0.0465-0.0976 0.0708 0.0833-0.34563 0.25783-0.66611 0.56341-0.92394-0.61436 0.10624-1.4274 0.62093-0.33394 2.8282 0.14085 0.19869 0.56741 1.05-0.42656 0.99445-0.68231-0.0389-1.697-1.4406-1.7186-2.7209 0.10015-0.0969 0.20879-0.1902 0.33073-0.27321 0.29196-0.19789 0.60251-0.31919 0.90264-0.37096 0.0312-3e-3 0.0633-9e-3 0.0939-0.0104-5e-3 -2e-3 -0.0103-3e-3 -0.016-4e-3 6.4e-4 0 6.4e-4 -1e-3 7e-4 -1e-3 -2e-3 0-3e-3 0-5e-3 -1e-3 -0.35237-0.14357-0.76243-0.13717-1.1207 0.0636-0.0489 0.0274-0.0886 0.0641-0.13237 0.0963 0.0877-0.39628 0.29036-0.76098 0.67013-1.0393 0.60379-0.34116 2.0312-0.77685 2.2437 0.16905 0.75265-0.29612 1.8777-0.45557 1.8777 0.61051-1.6e-4 -3.1e-4 -2.443-0.36871-0.852 2.8412z" style="fill:#9b9c9e"/><path d="m349.27 247.34 0.74865-0.32625s5.5333 6.891 4.75 17.907c-0.83454-1.3052-1.6261-2.374-2.4571-3.1183 0.13444 1.5543 1.0315 3.0263 1.0315 3.0263 2.345 4.6769 5.9712 9.036 9.2387 13.393-7e-4 0-2e-3 0-3e-3 -3.2e-4 -6.2894-4.1156-11.269-12.427-11.269-16.654 0-4.0456-2.5533-9.9123-3.8398-12.477 0.49803-0.56292 1.0919-1.1065 1.7997-1.7501zm-7.8469-16.312c0.5951-0.20272 2.3606-0.36697 3.1753-0.0193-0.20296 0.25621-0.31585 0.2982-0.0992 0.59267 1.0583 0.42366 2.6082 1.4689 3.6832 2.6746 0.32734 0.44797-0.93305-0.40811-0.0297 1.9522 0.25981 0.66337 0.45355 1.335 0.57881 1.9801 0.12525 0.64508 0.18202 1.2636 0.16788 1.8206-0.0141 0.55704-0.0992 1.0526-0.25755 1.4519-0.15837 0.39926-0.39006 0.7022-0.6975 0.87395 0.36421 0.8267 1.0704 3.3782 1.0683 3.3796-0.28087 0.45632-1.3539 1.188-1.642 1.5255-0.71419-1.1265-2.0078-0.88995-1.3108-4.2875 2.0267-4.9187-2.5238-10.534-4.6368-11.944z" style="fill:#006cb2"/></g><path d="m332.76 319.1c0.13608 6.7478-1.0728 14.615 7.8835 20.643-10.249-3.7508-9.2485-13.483-7.8835-20.643z" style="fill:#008044"/><path d="m323.9 325.89c0.39539 6.5508-1.2389 10.486 5.2403 14.345-8.3052 1.6644-7.6281-9.7152-5.2403-14.345z" style="fill:url(#radialGradient4188)"/></g><g transform="translate(817.85,160.44)"><path d="m-636.77 216.62c0 9.0908 14.665 9.3814 32.735 9.3814s32.735 0.69349 32.735-9.3814c0-17.716-14.665-32.094-32.735-32.094s-32.735 14.378-32.735 32.094z" style="fill:#784421"/><path d="m-591.44 225.4c0-16.368-9.4428-26.44-9.4428-26.44s3.7771 13.849 3.1476 26.44z" style="fill-opacity:.31373;fill-rule:evenodd"/></g><g transform="matrix(-1.6067 .48759 .48759 1.6067 688.87 -561.83)"><path d="m511.72 417.28c-2.8953 1.7116-3.7959 6.1367-4.463 8.5261-1.3636 0.10423-2.6151 0.20897-3.9322 0.30451-34.96-1.393-70.725 0.3152-103.94 0.40856 28.07 19.632 74.571 5.8478 107.74 2.4588 1.257 4.6546 3.9732 11.039 10.133 10.249 5.7128-1.8006 6.925-6.1337 5.6156-9.9187 0.10596-0.0355 0.57537 0.037 1.042 0.15213 1.0482 0.25868 1.3684 0.18232 1.8481-0.43138 0.3021-0.38639 0.38876-0.67349 0.39322-1.4464 4e-3 -0.82442-0.0919-1.0596-0.66847-1.5986-0.37035-0.34622-0.80574-0.59698-0.96339-0.55823-0.15778 0.0387-0.65118-9e-3 -1.101-0.10152-3.9097-0.88596-11.697 1.0006-11.266-1.0413 0.71455-2.796 0.2514-5.3722-0.43249-7.0024zm-1.2976 3.7048c-0.67184 2.1278-1.0097 4.2932-1.5137 6.1154 0.18386-2.1378 0.59488-4.3325 1.5139-6.1155zm10.066 8.2469c1.1333 1.466-0.34142 4.3381-1.6318 5.5064-1.1215 1.0026-2.8102 1.1152-4.1288 0.2791-1.888-1.6564-2.8013-4.0286-2.0841-5.684 2.8409-0.036 5.4408-0.20287 7.8447-0.10147z" style="fill:url(#linearGradient4011)"/><path transform="matrix(.00014402 .090919 -.090919 .00014402 533.11 463.64)" d="m-364.85 67.827c0 22.656-17.531 41.022-39.158 41.022-21.626 0-39.158-18.366-39.158-41.022s17.531-41.022 39.158-41.022c21.626 0 39.158 18.366 39.158 41.022z" style="fill:#d7b96e"/><path transform="matrix(9.1653e-5 .065154 -.081827 .00014585 532.53 453.17)" d="m-364.85 67.827c0 21.899-17.531 39.652-39.158 39.652-21.626 0-39.158-17.753-39.158-39.652s17.531-39.652 39.158-39.652c21.626 0 39.158 17.753 39.158 39.652z" style="fill:#b18d31"/><path transform="matrix(5.798e-5 .041265 -.081998 .00014609 532.53 443.61)" d="m-364.85 67.827c0 21.901-17.531 39.655-39.158 39.655-21.626 0-39.158-17.754-39.158-39.655s17.531-39.655 39.158-39.655c21.626 0 39.158 17.754 39.158 39.655z" style="fill:#d7b96e"/><path transform="matrix(1.947e-5 .013857 -.082278 .00014671 532.54 432.53)" d="m-364.85 67.827c0 21.716-17.531 39.319-39.158 39.319-21.626 0-39.158-17.604-39.158-39.319 0-21.716 17.531-39.319 39.158-39.319 21.626 0 39.158 17.604 39.158 39.319z" style="fill:#b18d31"/><path transform="matrix(.033709 .079239 -.079239 .033709 545.66 456.85)" d="m-364.85 67.827c0 22.656-17.531 41.022-39.158 41.022-21.626 0-39.158-18.366-39.158-41.022s17.531-41.022 39.158-41.022c21.626 0 39.158 18.366 39.158 41.022z" style="fill:url(#radialGradient4013)"/><path d="m410.03 427.9-4.2052 0.65216 1.4935 3.0038-2.129-2.6202-1.7263 2.0744 1.0749-2.3431-3.9621-0.52942 3.9262-0.43935-1.2275-2.655 2.0226 2.4807 2.2063-2.3853-1.3787 2.7404z" style="color:#000000;fill:#fff"/><path d="m409 427.65c6.0848 2.4466 59.336 0.0359 94.107-0.71429-31.498-0.14919-63.066-0.50749-94.107 0.71429z" style="fill:#fff"/></g><g transform="translate(875.58,219.24)" style="stroke-linejoin:round"><path d="m-787.25 155.68c0 9.0908-14.665 9.3814-32.735 9.3814s-32.735 0.69349-32.735-9.3814c0-17.716 14.665-32.094 32.735-32.094s32.735 14.378 32.735 32.094z" style="fill:#784421"/><path d="m-832.58 164.46c0-16.368 9.4428-26.44 9.4428-26.44s-3.7771 13.849-3.1476 26.44z" style="fill-opacity:.31373;fill-rule:evenodd"/></g></g><g transform="matrix(.02297 0 0 .022994 102.21 134.46)" style="stroke-width:11.513"><path d="m639.38 47.686c12.676-6.357 25.876-11.81 39.58-15.484-8.708 24.858-11.087 51.686-7.728 77.771 8.632-8.175 16.949-16.74 26.399-24.03 18.082-14.332 38.591-26.438 61.316-31.491-6.291 13.99-9.069 29.435-8.156 44.748 0.171 8.061 1.951 15.95 3.083 23.887-0.067 0.409-0.2 1.218-0.266 1.618-23.107 2.436-46.27 4.321-69.368 6.795-41.503 3.921-82.958 8.365-124.45 12.277 0.314-1.78 0.647-3.559 1.114-5.31 5.815-12.638 11.011-25.667 18.738-37.334 14.353-23.032 35.642-41.228 59.739-53.447z" style="fill:#804f0c;stroke-width:5.7563;stroke:#804f0c"/><path d="m252.51 110.59c-2.579-18.187-1.742-37.591 6.072-54.455 20.195 25.448 43.178 48.659 68.083 69.501 26.818 22.136 56.377 41.569 89.124 53.703 13.647 5.12 27.884 8.603 42.331 10.545-30.416 21.793-57.862 47.717-81.016 77.124-5.11-0.933-10.24-1.703-15.331-2.693-27.998-17.673-52.123-41.17-71.547-67.931-18.292-25.525-32.929-54.494-37.716-85.794z" style="fill:#434345;stroke-width:5.7563;stroke:#434345"/><path d="m992.26 140.75c33.156-24.135 62.639-53.084 88.753-84.642 8.698 20.375 8.755 43.492 3.892 64.838-7.061 31.015-23.002 59.356-42.435 84.271-16.407 20.747-35.65 39.418-57.605 54.236-20.794-24.905-44.576-47.336-70.786-66.475-3.559-2.484-7.071-5.025-10.535-7.623 32.149-8.898 61.86-25.048 88.716-44.605z" style="fill:#434345;stroke-width:5.7563;stroke:#434345"/><path d="m753.88 123.09c1.056 1.323 2.57 2.065 4.263 2.255 51.943 9.679 101.54 30.654 145.41 60.013 3.464 2.598 6.976 5.139 10.535 7.623 26.209 19.138 49.992 41.569 70.786 66.475 1.266 1.456 2.512 2.95 3.693 4.501 10.811 13.609 20.956 27.77 29.749 42.768 1.009 1.57 2.474 2.769 3.816 4.073 7.604 15.55 15.617 30.939 22.203 46.965 9.422 20.918 16.112 42.959 21.184 65.295 2.122 10.954 4.816 21.87 5.415 33.052 0.828 5.938 1.171 11.982 2.903 17.758-1.028 7.08 0.438 14.142 0.533 21.222 0.257 9.498-0.323 19.062 1.456 28.446 0.79 10.754 2.998 21.346 4.901 31.948 13.181 67.15 30.939 133.34 42.892 200.74 3.664 21.584 7.185 43.358 6.89 65.323-0.038 38.391-8.736 76.619-24.411 111.61-14.294 32.119-34.375 61.516-58.109 87.402-2.503 2.636-4.787 5.548-7.832 7.594 7.642-16.264 13.428-33.556 15.36-51.486 2.255-19.9 0.523-40.237-5.244-59.423-9.412-32.043-29.236-60.117-53.094-83.1-10.307-10.668-21.118-20.889-32.928-29.883-32.233-25.086-69.33-43.292-107.71-56.901-37.496-13.067-76.61-21.27-116.05-25.648-26.304-2.788-52.77-3.607-79.208-3.236 6.329-0.685 12.705 0.038 19.034-0.619 0.238-25.705 0.219-51.419 0.352-77.133 1.018-47.584 0.6-95.187 1.056-142.78 0.837-27.256 0.362-54.541 0.666-81.806 0.143-20.309 0.2-40.618 0.286-60.917 0.818-35.526 0.476-71.062 0.771-106.59 0.19-17.14-0.143-34.279 0.466-51.41 0.295-21.908 0.067-43.815 0.333-65.723 23.097-2.474 46.261-4.359 69.368-6.795 0.066-0.397 0.199-1.206 0.266-1.615m125.88 349.66c-14.732 2.217-28.703 9.136-39.333 19.566-15.046 14.313-23.183 35.469-21.736 56.168 1.332 28.398 21.451 54.721 48.44 63.591 18.815 6.471 40.313 4.787 57.767-4.844 11.963-6.5 22.079-16.464 28.617-28.427 9.25-16.378 11.468-36.516 6.224-54.569-4.102-14.551-12.933-27.713-24.896-36.973-15.331-12.132-35.764-17.5-55.083-14.512z" style="fill:#bca057;stroke-width:5.7563;stroke:#bca057"/><path d="m559.8 143.78c41.493-3.911 82.948-8.356 124.45-12.277-0.267 21.908-0.038 43.815-0.333 65.723-0.609 17.13-0.276 34.27-0.466 51.41-0.295 35.526 0.048 71.062-0.771 106.59-0.086 20.299-0.143 40.608-0.286 60.917-0.305 27.265 0.171 54.55-0.666 81.806-0.457 47.593-0.038 95.196-1.056 142.78-0.133 25.714-0.114 51.429-0.352 77.133-6.329 0.657-12.705-0.067-19.034 0.619-39.333 1.408-78.637 6.1-116.88 15.522-37.382 9.079-73.85 22.364-107.72 40.694-28.979 15.684-56.063 35.326-78.418 59.632-21.232 23.031-37.905 50.905-44.919 81.625-5.187 22.165-5.006 45.509 0.485 67.607 7.376 31.072 24.829 58.871 46.394 82.082-2.227-0.152-4.14-1.304-5.748-2.76-7.356-6.291-15.065-12.181-22.098-18.853-8.927-8.146-17.635-16.511-25.714-25.505-24.972-27.484-45.795-58.918-60.098-93.245-13.914-33.375-21.67-69.434-21.727-105.63-0.209-19.424 3.217-38.657 6.881-57.662 1.142-4.739 1.418-9.736 3.407-14.237 8.641 2.817 17.834 3.255 26.761 1.665 12.914-2.018 25.172-7.309 36.059-14.456 23.811-15.37 42.245-37.81 66.77-52.18 15.922-9.403 34.841-14.332 53.313-11.706 12.572 2.179 23.839 8.755 36.354 11.163 7.699 1.656 15.607 0.809 23.411 0.98 14.78 0.266 29.74-0.447 44.12-4.102 15.712-4.092 30.121-14.323 37.648-28.893 7.404-15.408 1.856-33.385 8.156-49.078 3.131-7.404 9.117-13 14.066-19.167 17.083-20.252 35.916-39.656 47.631-63.734 8.794-17.387 11.877-37.087 11.744-56.425 0.485-16.968-1.408-34.089-6.481-50.325-4.321-14.313-11.496-28.084-22.422-38.457-10.402-10.202-24.81-15.902-39.323-16.217-16.188-0.381-32.405 1.979-47.907 6.605-35.174 10.259-66.598 31.015-102.81 38.067-17.178 3.207-35.193 5.053-52.342 0.761-15.122-3.826-29.483-12.334-38.41-25.334-3.826-5.472-5.739-11.924-7.851-18.168 5.558-15.065 13.295-29.197 20.861-43.32 9.793-16.845 20.604-33.099 32.633-48.421 23.154-29.407 50.601-55.33 81.016-77.124 28.569-20.042 59.689-36.506 92.541-48.326 3.369-1.171 6.652-2.779 10.25-3.093-0.468 1.753-0.801 3.533-1.115 5.313z" style="fill:#a68131;stroke-width:5.7563;stroke:#a68131"/><path d="m183.64 289.41c31.177-18.824 67.674-27.094 103.76-29.007 24.848-1.361 49.754 0.514 74.374 3.911 5.091 0.99 10.221 1.761 15.331 2.693-12.029 15.322-22.84 31.577-32.633 48.421-15.208-4.121-30.634-8.146-46.489-8.451-18.653-0.352-37.42 3.721-54.036 12.267-29.473 14.922-53.617 38.667-72.775 65.285-18.891 26.58-33.271 56.273-43.168 87.316-0.847 2.56-1.513 5.177-2.084 7.823 4.892 1.275 9.936 1.694 14.951 2.265 21.774 2.988 43.691 5.853 65.732 5.272 25.343-0.704 50.905-5.805 73.565-17.501 5.681-2.788 10.782-6.624 16.502-9.336-1.37 10.592-2.113 21.26-2.684 31.929-0.438 7.299 0.048 14.637-0.628 21.936-34.08 15.446-71.262 22.621-108.33 26.038-17.52 1.618-35.107 2.36-52.704 2.151-24.353 0.257-48.669-1.532-72.889-3.978-6.119-0.904-12.305-1.313-18.358-2.56 1.78-10.135 5.234-19.881 8.013-29.759 10.763-34.803 24.02-68.892 40.399-101.45 15.17-29.797 33.08-58.481 55.854-83.1 11.438-12.153 23.991-23.459 38.295-32.166z" style="fill:#dabe7f;stroke-width:5.7563;stroke:#dabe7f"/><path d="m988.56 263.95c24.258-3.835 48.973-4.625 73.489-3.34 36.887 2.389 74.183 11.639 105.32 32.176 27.123 18.605 48.383 44.472 66.104 71.909 19.757 30.777 35.298 64.076 48.317 98.203 7.623 19.966 14.256 40.303 20.033 60.879 1.075 4.045 2.275 8.061 2.979 12.201-23.935 3.654-48.136 5.215-72.308 6.195-52.685 1.361-106.29-2.151-156.67-18.643-1.78-9.383-1.199-18.948-1.456-28.446-0.095-7.08-1.561-14.142-0.533-21.222 6.852 2.303 13.495 5.234 20.528 6.985 12.457 3.416 25.315 5.206 38.2 5.977 14.618 0.257 29.255 0.324 43.806-1.313 14.513-1.78 29.083-3.283 43.482-5.853-3.959-16.207-10.545-31.643-17.292-46.861-7.747-16.426-16.816-32.224-27.142-47.156-10.021-13.58-20.661-26.875-33.413-37.991-12.01-11.22-25.391-21.137-40.189-28.35-19.291-9.974-41.522-13.866-63.087-11.924-5.577 0.895-11.306 1.313-16.597 3.417-1.342-1.304-2.807-2.503-3.816-4.073-8.797-15-18.942-29.161-29.753-42.77z" style="fill:#a68131;stroke-width:5.7563;stroke:#a68131"/><path d="m243.94 319.25c16.616-8.546 35.383-12.619 54.036-12.267 15.855 0.305 31.282 4.33 46.489 8.451-7.566 14.123-15.303 28.255-20.861 43.32-13.323 32.528-22.479 66.741-26.942 101.62-5.72 2.712-10.821 6.548-16.502 9.336-22.659 11.696-48.221 16.797-73.565 17.501-22.041 0.581-43.958-2.284-65.732-5.272-5.015-0.571-10.059-0.99-14.951-2.265 0.571-2.646 1.237-5.263 2.084-7.823 9.897-31.044 24.277-60.736 43.168-87.316 19.159-26.619 43.303-50.363 72.776-65.285z" style="fill:#f37873;stroke-width:5.7563;stroke:#f37873"/><path d="m1038.7 307.38c21.565-1.941 43.796 1.951 63.087 11.924 14.799 7.214 28.179 17.13 40.189 28.35 12.753 11.116 23.392 24.411 33.413 37.991 10.326 14.932 19.395 30.73 27.142 47.156 6.747 15.217 13.333 30.653 17.292 46.861-14.399 2.57-28.969 4.073-43.482 5.853-14.551 1.637-29.188 1.57-43.806 1.313-12.886-0.771-25.743-2.56-38.2-5.977-7.033-1.751-13.676-4.682-20.528-6.985-1.732-5.777-2.075-11.82-2.903-17.758-0.6-11.182-3.293-22.098-5.415-33.052-5.072-22.336-11.763-44.377-21.184-65.295-6.586-16.026-14.599-31.415-22.203-46.965 5.292-2.102 11.021-2.521 16.598-3.416z" style="fill:#f37873;stroke-width:5.7563;stroke:#f37873"/><path d="m525.02 363.42c15.503-4.625 31.719-6.985 47.907-6.605 14.513 0.314 28.921 6.015 39.323 16.217 10.925 10.373 18.101 24.144 22.422 38.457 5.072 16.236 6.966 33.356 6.481 50.325 0.133 19.338-2.95 39.038-11.744 56.425-11.715 24.077-30.549 43.482-47.631 63.734-4.949 6.167-10.935 11.763-14.066 19.167-6.3 15.693-0.752 33.67-8.156 49.078-7.528 14.57-21.936 24.801-37.648 28.893-14.38 3.654-29.34 4.368-44.12 4.102-7.804-0.171-15.712 0.676-23.411-0.98-12.515-2.408-23.782-8.984-36.354-11.163-18.472-2.627-37.391 2.303-53.313 11.706-24.525 14.37-42.959 36.811-66.77 52.18-10.887 7.147-23.145 12.438-36.059 14.456-8.927 1.589-18.12 1.151-26.761-1.665l-0.685-0.171c12.172-52.552 27.484-104.3 41.674-156.33 5.758-21.546 11.706-43.092 15.655-65.066 0.714-3.959 1.209-7.947 1.589-11.943 0.676-7.299 0.19-14.637 0.628-21.936 0.571-10.668 1.313-21.337 2.684-31.929 4.463-34.879 13.618-69.092 26.942-101.62 2.113 6.243 4.026 12.695 7.851 18.168 8.927 13 23.288 21.508 38.41 25.334 17.149 4.292 35.164 2.446 52.342-0.761 36.212-7.055 67.636-27.812 102.81-38.071m-66.827 109.44c-14.637 2.341-28.493 9.345-39.019 19.785-10.944 10.725-18.358 25.029-20.67 40.189-1.903 12.562-0.59 25.638 4.13 37.458 5.748 14.722 16.54 27.408 30.111 35.497 14.256 8.546 31.539 11.972 47.955 9.336 14.304-2.198 27.884-8.841 38.372-18.805 11.306-10.649 19.11-25.029 21.565-40.389 2.579-14.846 0.276-30.492-6.481-43.967-7.204-14.532-19.443-26.523-34.194-33.309-12.933-6.071-27.684-8.003-41.769-5.795z" style="fill:#434345;stroke-width:5.7563;stroke:#434345"/><path d="m458.19 472.87c14.085-2.208 28.836-0.276 41.769 5.796 14.751 6.785 26.99 18.777 34.194 33.309 6.757 13.476 9.06 29.121 6.481 43.967-2.455 15.36-10.259 29.74-21.565 40.389-10.487 9.964-24.068 16.607-38.372 18.805-16.416 2.636-33.699-0.79-47.955-9.336-13.571-8.089-24.363-20.775-30.111-35.497-4.72-11.82-6.034-24.896-4.13-37.458 2.313-15.16 9.726-29.464 20.67-40.189 10.526-10.44 24.382-17.445 39.019-19.786m6.69 21.898c-13.447 1.665-26 9.203-33.87 20.204-7.908 10.906-11.135 25.105-8.489 38.334 2.636 14.066 11.696 26.771 24.182 33.775 8.194 4.739 17.787 6.947 27.237 6.395 13.932-0.609 27.399-7.604 36.049-18.529 7.052-8.774 11.001-20.023 10.811-31.291 0.133-13.476-5.843-26.78-15.684-35.916-10.591-10.022-25.789-14.942-40.236-12.972z" style="fill:#f1ecf0;stroke-width:5.7563;stroke:#f1ecf0"/><path d="m879.76 472.74c19.319-2.988 39.752 2.379 55.083 14.513 11.963 9.26 20.794 22.421 24.896 36.973 5.244 18.053 3.026 38.191-6.224 54.569-6.538 11.963-16.654 21.927-28.617 28.427-17.454 9.631-38.952 11.315-57.767 4.844-26.99-8.87-47.108-35.193-48.44-63.591-1.447-20.699 6.69-41.855 21.736-56.168 10.631-10.43 24.601-17.349 39.333-19.567m4.806 21.975c-18.263 1.989-34.632 15.094-40.713 32.395-6.367 17.206-2.16 37.762 10.63 50.943 11.839 12.819 30.749 18.358 47.66 14.132 17.045-3.93 31.358-17.644 36.04-34.489 4.254-14.342 1.447-30.511-7.347-42.607-10.192-14.531-28.664-22.687-46.27-20.374z" style="fill:#f1ecf0;stroke-width:5.7563;stroke:#f1ecf0"/><path d="m464.88 494.76c14.446-1.97 29.645 2.95 40.237 12.971 9.84 9.136 15.817 22.441 15.684 35.916 0.19 11.268-3.759 22.517-10.811 31.291-8.651 10.925-22.117 17.92-36.049 18.529-9.45 0.552-19.043-1.656-27.237-6.395-12.486-7.004-21.546-19.709-24.182-33.775-2.646-13.228 0.581-27.427 8.489-38.334 7.87-11 20.422-18.537 33.869-20.203m20.861 20.851c-6.462 1.466-11.801 6.833-13.209 13.304-1.913 7.556 2.16 15.979 9.069 19.462 5.567 2.988 12.771 2.608 17.949-1.047 6.138-3.997 9.174-12.115 7.157-19.157-2.246-8.84-12.077-14.922-20.966-12.562z" style="fill:#434345;stroke-width:5.7563;stroke:#434345"/><path d="m884.56 494.72c17.606-2.313 36.078 5.843 46.271 20.375 8.793 12.096 11.601 28.265 7.347 42.607-4.682 16.845-18.995 30.558-36.04 34.489-16.911 4.225-35.821-1.313-47.66-14.132-12.79-13.181-16.997-33.737-10.63-50.943 6.081-17.303 22.449-30.407 40.712-32.396m-16.274 20.784c-6.804 1.361-12.629 6.985-13.809 13.885-1.466 6.671 1.532 13.971 7.176 17.796 5.663 4.121 13.837 4.273 19.652 0.352 5.919-3.759 9.079-11.239 7.68-18.12-1.551-9.269-11.524-16.025-20.699-13.913z" style="fill:#434345;stroke-width:5.7563;stroke:#434345"/><path d="m485.74 515.62c8.889-2.36 18.72 3.721 20.965 12.562 2.018 7.042-1.018 15.16-7.157 19.157-5.177 3.654-12.381 4.035-17.949 1.047-6.909-3.483-10.982-11.905-9.069-19.462 1.409-6.471 6.748-11.838 13.21-13.304z" style="fill:#fff;stroke-width:5.7563;stroke:#fff"/><path d="m868.29 515.5c9.174-2.113 19.148 4.644 20.699 13.914 1.399 6.881-1.761 14.361-7.68 18.12-5.815 3.921-13.99 3.769-19.652-0.352-5.643-3.826-8.641-11.125-7.176-17.796 1.181-6.9 7.005-12.525 13.809-13.886z" style="fill:#fff;stroke-width:5.7563;stroke:#fff"/><path d="m544.4 734c38.248-9.422 77.552-14.113 116.88-15.522 26.438-0.371 52.904 0.447 79.208 3.236 39.437 4.378 78.551 12.581 116.05 25.648 38.381 13.609 75.477 31.815 107.71 56.901 11.81 8.993 22.621 19.214 32.928 29.883 23.858 22.983 43.682 51.057 53.094 83.1 5.767 19.186 7.499 39.523 5.244 59.423-1.932 17.93-7.718 35.222-15.36 51.486-1.418 2.684-2.827 5.377-4.254 8.07-15.36 26.39-36.459 49.154-60.584 67.759-26.78 20.794-56.901 37.049-88.306 49.677-34.384 13.837-70.443 23.297-107.01 29.198-47.917 7.709-96.805 9.127-145.12 4.796-40.361-3.864-80.474-11.553-118.94-24.487-31.529-10.506-62.116-24.211-90.114-42.216-7.119-4.273-13.752-9.269-20.575-13.97-12.353-10.012-24.706-20.08-35.44-31.853-3.141-3.226-6.062-6.681-9.593-9.488-21.565-23.211-39.019-51.01-46.394-82.082-5.491-22.098-5.672-45.443-0.485-67.607 7.014-30.72 23.687-58.595 44.919-81.625 22.355-24.306 49.44-43.948 78.418-59.632 33.868-18.331 70.336-31.616 107.72-40.695m342.03 126.99c-18.434 1.247-35.374 13.942-42.064 31.12-7.061 17.444-3.102 38.847 10.078 52.371 13.238 14.446 35.421 19.376 53.636 12.353 12.962-4.882 23.697-15.465 28.655-28.398 6.966-17.416 2.931-38.733-10.307-52.114-10.048-10.878-25.256-16.683-39.998-15.332m-418.72 9.527c-17.958 1.123-34.689 12.971-41.817 29.464-8.241 17.787-4.263 40.389 9.602 54.264 10.116 11.001 25.514 16.635 40.351 15.132 18.025-1.351 34.555-13.742 41.284-30.463 6.595-15.836 4.302-35.05-6.234-48.659-9.773-13.4-26.684-20.995-43.186-19.738m1.589 206.34c0.695 2.398 1.599 4.892 3.673 6.471 6.357 5.12 14.142 7.975 21.822 10.478 21.432 6.386 43.625 9.745 65.789 12.305 48.65 5.634 97.68 6.471 146.61 5.463 9.231-0.828 18.51-0.4 27.741-1.285 24.43-1.247 48.812-3.578 73.003-7.176 18.567-3.102 37.401-6.31 54.817-13.714 5.501-2.817 12.438-5.748 13.714-12.543-26.304-0.419-52.637-0.095-78.951-0.162-3.14-0.466-3.378 3.407-5.529 4.768-4.673 3.169-10.135 4.939-15.541 6.433-10.554 2.807-21.336 4.758-32.186 6.005-23.04 2.798-46.261 3.921-69.472 3.845-16.502 0.076-32.995-0.314-49.459-1.475-19.852-1.761-39.866-3.54-59.061-9.212-4.33-1.447-8.727-2.979-12.486-5.605-2.179-1.342-2.389-5.234-5.539-4.749-26.304 0.058-52.637-0.266-78.941 0.153z" style="fill:#f79f9e;stroke-width:5.7563;stroke:#f79f9e"/><path d="m886.43 860.99c14.741-1.351 29.949 4.454 39.999 15.331 13.238 13.381 17.273 34.698 10.307 52.114-4.958 12.933-15.693 23.516-28.655 28.398-18.215 7.023-40.399 2.094-53.636-12.353-13.181-13.523-17.14-34.927-10.078-52.371 6.69-17.177 23.629-29.872 42.063-31.119z" style="fill:#ef515f;stroke-width:5.7563;stroke:#ef515f"/><path d="m467.71 870.52c16.502-1.256 33.413 6.338 43.187 19.738 10.535 13.609 12.829 32.823 6.234 48.659-6.728 16.721-23.259 29.112-41.284 30.463-14.837 1.504-30.235-4.13-40.351-15.132-13.866-13.875-17.844-36.478-9.602-54.264 7.127-16.493 23.858-28.341 41.816-29.464z" style="fill:#ef515f;stroke-width:5.7563;stroke:#ef515f"/><path d="m306.66 1018.5c8.08 8.993 16.788 17.359 25.714 25.505 7.033 6.671 14.741 12.562 22.098 18.853 1.608 1.456 3.521 2.608 5.748 2.76 3.531 2.807 6.452 6.262 9.593 9.488 10.735 11.772 23.088 21.841 35.44 31.853 3.369 6.557 9.203 11.249 14.132 16.588 23.659 24.125 52.666 42.426 83.072 56.863 38.191 18.072 79.275 29.502 120.94 36.04 15.37 2.322 30.834 3.816 46.318 5.091 0.457 12.277 0.219 24.572 0.609 36.859 0.733 12.971 0.609 25.971 0.771 38.962-0.048 8.251 0.628 16.483 0.647 24.744 0.343 48.336 1.475 96.671 1.075 145.03-18.177 0.286-36.23-2.179-54.236-4.311-0.447 30.606 0.257 61.231-0.343 91.818-27.313-18.786-61.24-27.028-94.168-24.553-23.725 1.646-47.241 9.003-67.046 22.298-0.533-22.184-0.057-44.396-0.219-66.589 0.01-27.608-0.019-55.207 0.019-82.815-0.019-1.799-0.143-3.578-0.314-5.339-55.15-37.049-102.69-86.907-132.1-146.84-11.401-22.869-19.376-47.308-24.629-72.28-4.597 1.723-9.012 3.93-13.809 5.092-4.654 1.39-9.612 1.275-14.228 2.798-1.989 0.647-4.073 0.971-6.157 0.885-11.972-0.39-24.363-2.179-34.822-8.394-6.129-3.597-10.782-9.184-14.009-15.446-17.606-1.38-35.383-5.586-50.344-15.341-6.233-3.664-11.629-8.508-17.501-12.686 1.713-4.349 2.046-9.05 2.655-13.628 5.177-0.58 10.411-1.77 14.761-4.806 5.653 2.988 10.468 7.338 16.178 10.259 8.051 4.406 16.845 8.004 26.104 8.575-0.676-17.016 4.939-34.603 16.845-47.013 7.052-7.556 17.273-12.629 27.77-11.925 12.429 0.714 23.792 9.336 28.331 20.851 2.712 6.557 3.293 14.009 1.313 20.861-3.188 10.668-9.641 20.347-18.339 27.313-4.758 4.216-10.801 6.348-16.207 9.498 8.299 2.769 17.197 2.95 25.867 2.922 7.994-0.114 15.474-3.788 21.489-8.87-1.635-43.874 1.696-88.013 10.985-130.96m-58.681 88.049c-9.393 7.671-13.514 20.499-13.238 32.328 6.509-1.161 12.258-5.082 16.769-9.774 3.854-4.463 8.28-9.897 7.109-16.217-0.79-4.576-6.062-9.344-10.64-6.337m194 96.044c-7.889 1.408-15.826 4.073-22.003 9.326-4.901 4.149-7.994 10.431-7.927 16.892-0.152 6.938 2.313 13.79 6.509 19.281 5.929 7.947 13.828 14.304 19.053 22.821 5.272 8.775 9.974 17.891 15.065 26.78 6.443 11.163 13.58 22.364 23.859 30.416 7.87 6.243 17.901 9.555 27.922 9.555 16.359 0.029 32.995-5.824 44.853-17.292 10.906-10.316 17.006-26.152 14.094-41.084-1.751-9.069-8.222-16.407-15.722-21.403-14.446-9.774-31.748-14.77-45.262-26.019-10.887-8.794-19.624-20.528-32.49-26.638-8.642-4.291-18.654-3.968-27.951-2.635z" style="fill:#bca057;stroke-width:5.7563;stroke:#bca057"/><path d="m975.32 1104c24.125-18.605 45.224-41.369 60.584-67.759 4.282 22.298 6.119 45.024 7.49 67.674 1.057 25.838 1.637 51.952-3.093 77.495-7.195 6.072-14.837 11.867-23.725 15.227-8.946 3.426-19.157 4.806-28.322 1.38-13.752-4.673-28.094-9.165-42.806-7.689-11.886 1.018-23.107 6.652-31.548 14.989-3.835 3.521-6.757 8.194-7.356 13.447-1.447 8.784 0.647 18.843-5.149 26.409-9.307 11.924-20.175 22.64-28.322 35.45-6.224 9.545-10.487 20.566-11.068 32.024-0.885 15.979 1.342 32.49 8.641 46.899 4.359 8.736 11.325 16.597 20.537 20.318 7.414 3.283 15.703 2.665 23.611 2.294-3.169 3.93-8.175 5.824-11.353 9.669-0.19 49.411-0.029 98.832-0.076 148.25-0.057 4.844 0.228 9.726-0.39 14.561-28.036-19.338-63.068-27.323-96.814-24.287-22.84 2.008-45.366 9.345-64.457 22.164-0.105-30.273 0.124-60.546-0.114-90.809-22.726 3.512-45.718 6.195-68.768 5.463 0.4-48.355-0.733-96.69-1.075-145.03-0.019-8.261-0.695-16.493-0.647-24.744-0.162-12.99-0.038-25.99-0.771-38.962-0.39-12.286-0.152-24.582-0.609-36.859-15.484-1.275-30.948-2.769-46.318-5.091-41.664-6.538-82.748-17.968-120.94-36.04-30.406-14.437-59.413-32.738-83.072-56.863-4.93-5.339-10.763-10.031-14.132-16.588 6.824 4.701 13.457 9.698 20.575 13.97 27.998 18.006 58.585 31.71 90.114 42.216 38.467 12.933 78.58 20.623 118.94 24.487 48.317 4.33 97.204 2.912 145.12-4.796 36.563-5.9 72.622-15.36 107.01-29.198 31.404-12.628 61.525-28.883 88.305-49.677z" style="fill:#a68131;stroke-width:5.7563;stroke:#a68131"/><path d="m98.051 1065.1c9.422-6.7 23.088-8.089 32.88-1.427 1.218 0.609 2.427 2.246 3.911 1.256 6.871-3.502 14.903-4.711 22.441-2.922 9.812 2.351 18.434 9.764 21.527 19.471 4.225 12.914-1.285 27.97-12.486 35.516-4.349 3.036-9.583 4.226-14.761 4.806-0.609 4.578-0.942 9.279-2.655 13.628-2.389 5.853-6.928 10.64-12.153 14.104-13.114 8.356-32.414 4.073-40.894-8.927-4.958-7.166-7.061-16.588-4.425-25.01 0.581-2.37 3.007-5.101 0.438-7.109-11.2-12.618-7.489-34.097 6.177-43.386z" style="fill:#434345;stroke-width:5.7563;stroke:#434345"/><path d="m469.3 1076.9c26.304-0.419 52.637-0.095 78.942-0.152 3.15-0.485 3.359 3.407 5.539 4.749 3.759 2.627 8.156 4.159 12.486 5.605 19.195 5.672 39.209 7.452 59.061 9.212 16.464 1.161 32.956 1.551 49.459 1.475 23.211 0.076 46.432-1.047 69.472-3.845 10.849-1.247 21.632-3.198 32.186-6.005 5.406-1.494 10.868-3.264 15.541-6.433 2.151-1.361 2.389-5.234 5.529-4.768 26.314 0.067 52.647-0.257 78.951 0.162-1.275 6.795-8.213 9.726-13.714 12.543-17.416 7.404-36.249 10.611-54.817 13.714-24.192 3.597-48.574 5.929-73.003 7.176-9.231 0.885-18.51 0.457-27.741 1.285-48.926 1.009-97.956 0.171-146.61-5.463-22.165-2.56-44.358-5.919-65.789-12.305-7.68-2.503-15.465-5.358-21.822-10.478-2.075-1.58-2.979-4.074-3.674-6.472z" style="fill:#f67280;stroke-width:5.7563;stroke:#f67280"/><path d="m1016.6 1196.6c8.889-3.359 16.531-9.155 23.725-15.227l0.552-0.419c-5.91 37.191-20.242 72.746-39.752 104.85-19.709 32.462-44.948 61.421-73.669 86.193-4.197 3.388-8.08 7.233-12.638 10.126-7.908 0.371-16.197 0.99-23.611-2.294-9.212-3.721-16.178-11.582-20.537-20.318-7.299-14.408-9.526-30.92-8.641-46.899 0.581-11.458 4.844-22.479 11.068-32.024 8.146-12.81 19.014-23.526 28.322-35.45 5.796-7.566 3.702-17.625 5.149-26.409 0.6-5.253 3.521-9.926 7.356-13.447 8.441-8.337 19.662-13.971 31.548-14.989 14.713-1.475 29.055 3.017 42.806 7.689 9.165 3.428 19.376 2.048 28.322-1.378z" style="fill:#434345;stroke-width:5.7563;stroke:#434345"/><path d="m441.98 1202.6c9.298-1.332 19.309-1.656 27.951 2.636 12.867 6.11 21.603 17.844 32.49 26.638 13.514 11.249 30.815 16.245 45.262 26.019 7.499 4.996 13.971 12.334 15.722 21.403 2.912 14.932-3.188 30.768-14.094 41.084-11.858 11.468-28.493 17.32-44.853 17.292-10.021 0-20.052-3.312-27.922-9.555-10.278-8.051-17.416-19.253-23.859-30.416-5.091-8.889-9.793-18.006-15.065-26.78-5.225-8.517-13.124-14.875-19.053-22.821-4.197-5.491-6.662-12.343-6.509-19.281-0.067-6.462 3.026-12.743 7.927-16.892 6.176-5.254 14.113-7.919 22.003-9.327z" style="fill:#434345;stroke-width:5.7563;stroke:#434345"/><path d="m524.07 1530.1c32.928-2.474 66.855 5.767 94.168 24.553 10.973 7.928 20.918 17.444 28.388 28.788 9.517 14.313 15.341 31.434 14.894 48.716-36.088-0.114-72.194 0.057-108.28-0.086-3.093-4.035-4.863-8.993-7.423-13.39-2.912-5.567-5.958-11.068-8.67-16.73-2.236 2.484-3.302 5.729-4.939 8.603-3.807 7.033-7.328 14.218-11.201 21.203-5.415 0.904-11.068 0.095-16.569 0.362-30.768 0.019-61.535-0.038-92.294 0.038-0.257-17.102 4.968-34.118 14.104-48.516 7.88-12.458 18.615-22.974 30.777-31.244 19.806-13.294 43.322-20.65 67.047-22.297z" style="fill:#434345;stroke-width:5.7563;stroke:#434345"/><path d="m806.16 1530.3c33.746-3.036 68.778 4.949 96.814 24.287 13.98 9.964 26.181 22.793 33.994 38.191 6.271 12.096 9.431 25.667 9.669 39.266-36.297 0.095-72.584 0.048-108.88 0.029-5.377-9.993-10.649-20.042-15.845-30.13-5.948 9.669-10.678 20.118-16.159 30.092-36.297 0.133-72.584 0.038-108.87 0.048-0.019-17.92 5.548-35.735 15.579-50.572 7.68-11.515 17.854-21.232 29.245-29.045 19.089-12.821 41.615-20.158 64.456-22.166z" style="fill:#434345;stroke-width:5.7563;stroke:#434345"/></g><g transform="matrix(1.9876 0 0 1.9672 -180.66 -208.32)" style="stroke-width:.50572"><g transform="matrix(.26458 0 0 .26458 117.59 -63.791)" style="stroke-width:.50572"><path d="m158.39 822.8c6.1991 7e-5 11.299 1.9339 15.3 5.8014s6.0012 8.5012 6.0013 13.901c-4e-5 3.6662-0.86674 6.9326-2.6001 9.7992-1.2675 2.0671-3.1016 4.067-5.5023 5.9998-1.5992 1.2675-3.1983 2.5014-4.7974 3.7018-1.4018 1.3998-2.1027 3.0996-2.1027 5.0995-3e-5 1.3326 0.0335 2.1658 0.10071 2.4994l-14.301 1.4008c-0.26653-2.1342-0.39979-4.5674-0.39978-7.2998-1e-5 -0.46791-1e-5 -0.83514 0-1.1017-1e-5 -5.3324 2.15-9.3322 6.4499-12s6.4499-5.2002 6.4499-7.5989c-3e-5 -1.534-0.66633-2.8676-1.9989-4.0009s-2.7659-1.6998-4.2999-1.6998c-1.8677 6e-5 -3.4678 0.46647-4.8004 1.3992s-2.5991 2.266-3.7994 3.9993l-11.801-8.8989c5.601-7.3343 12.968-11.002 22.101-11.002zm-0.20141 50.702 10.303 10.3-10.303 10.501-10.498-10.501z" style="fill:url(#c-6);stroke-width:1.0114;stroke:url(#b-48)"/></g></g><g transform="matrix(.45998 0 0 .45899 121.89 179.6)"><g transform="translate(-100.63,-453.35)" style="display:none"><rect x="67.696" y="91.349" width="83.765" height="83.765" style="fill:none"/><rect x="167.7" y="91.349" width="83.765" height="83.765" style="fill:none"/><rect x="67.696" y="195.35" width="83.765" height="83.765" style="fill:none"/><rect x="167.7" y="195.35" width="83.765" height="83.765" style="fill:none"/><rect x="271.7" y="149.35" width="83.765" height="83.765" style="fill:none"/><rect x="375.7" y="149.35" width="83.765" height="83.765" style="fill:none"/></g><g transform="translate(-100.63,-453.35)"><g transform="translate(422.9,674.48)" style="display:none"><path id="path3283_1_" d="m201.31 36.735c6.693-16.214 17.981-18.409 17.981-18.409s-6.278 8.458-0.592 6.105c8.805-3.644 36.803 7.773 36.803 7.773s-37.094-8.633-54.192 4.531z" style="display:inline;fill:#fff"/><path id="path3285_1_" d="m185.96 35.223c-6.69-16.214-17.98-18.409-17.98-18.409s6.279 8.457 0.591 6.105c-8.805-3.643-36.802 7.773-36.802 7.773s37.094-8.634 54.192 4.531z" style="display:inline;fill:#fff"/></g><g transform="matrix(.21579 0 0 .21579 -3.6127 308.84)"><path d="m581.25 998.75c-48.083 4.9498-103.23 43.858-81.312 52.344 21.92 8.4853 85.542 12.024 97.562 2.125 6.177-5.087 17.229-17.827 18.531-29.781 1.3042 11.953 12.324 24.695 18.5 29.781 12.021 9.8995 75.673 6.3603 97.594-2.125 21.92-8.4853-33.229-47.394-81.312-52.344-24.76 2.3865-33.666 10.706-34.781 20.25-1.1157-9.5442-10.022-17.864-34.781-20.25z" style="fill-rule:evenodd;fill:url(#radialGradient6267)"/><path d="m581.26 998.76c-23.6 2.4295-48.881 13.04-65.938 24.219 25.832 11.947 57.418 19.309 91.656 20.156 4.3872-5.7723 8.3175-12.85 9.0625-19.688 0.739 6.7733 4.5771 13.788 8.9062 19.531 33.676-1.4259 64.607-9.1457 89.781-21.312-16.995-10.691-41.222-20.571-63.906-22.906-24.76 2.3865-33.666 10.706-34.781 20.25-1.1158-9.5441-10.022-17.864-34.781-20.25z" style="fill-opacity:.31373;fill-rule:evenodd"/><path d="m726.07 928.62c0.018 60.508-49.029 109.57-109.54 109.57-60.508 0-109.56-49.062-109.54-109.57-0.019-60.508 49.028-109.57 109.54-109.57 60.508-1e-3 109.55 49.061 109.54 109.57z" style="fill:#8a916f"/><path d="m719.45 891.04c0.076 1.682 0.125 3.395 0.125 5.094 0 60.465-49.067 109.53-109.53 109.53-47.263 0-87.592-30-102.94-71.97 2.653 58.113 50.674 104.47 109.44 104.47 60.463 0 109.53-49.067 109.53-109.53 0-13.202-2.338-25.87-6.625-37.594z" style="fill-opacity:.3137;fill:#010101"/><path id="path3800_2_" d="m694.75 857.99c-48.11 17.3 14.164 94.143-37.818 161.19-9.608 12.394 57.867 2.091 81.723-66.585 23.198-66.786 1.132-107.54-43.905-94.606z" style="fill:#8a916f"/><path d="m747.75 897.5c-20.715 10.391-44.509 18.388-70.375 23.312 1.9088 18.727 3.5081 39.837-2.0938 61.25 20.972-3.8405 40.626-9.6792 58.406-17.188 1.8184-3.8712 3.4662-7.9559 4.9688-12.281 7.4-21.32 10.19-39.97 9.09-55.09z" style="fill:#fff"/><ellipse transform="matrix(1.0818,0,0,1.1701,172.99,321.41)" cx="409.94" cy="461.36" rx="50.25" ry="17" style="fill:#e2e3db"/><path d="m747.88 908.53c-18.811 10.618-42.55 18.962-69.406 24.062 0.97457 12.771 1.2264 26.364-1.1562 40.219 22.946-4.2634 43.653-10.866 61-19.25 0.11494-0.32268 0.23075-0.64345 0.34375-0.96875 5.694-16.393 8.6491-31.216 9.2188-44.062z" style="fill:#025"/><path id="path3200_1_" d="m710.51 855.6c-0.412 0-0.832 0.021-1.25 0.031 16.212 13.064 23.073 43.297 14.781 85.344-11.023 55.895-53.576 80.008-67.719 81.281 4.592 6.526 60.971-8.126 82.344-69.656 20.299-58.437 5.921-96.95-28.156-97z" style="fill-opacity:.3137;fill:#010101"/><path id="path3169_2_" d="m538.31 857.99c48.111 17.3-14.163 94.143 37.819 161.19 9.608 12.394-57.868 2.091-81.723-66.585-23.197-66.786-1.131-107.54 43.904-94.606z" style="fill:#8a916f"/><path d="m485.31 897.47c-1.1034 15.122 1.6814 33.784 9.0938 55.125 1.4909 4.2922 3.1665 8.3426 4.9688 12.188 4e-3 2e-3 -4e-3 0.0297 0 0.0312 17.78 7.52 37.429 13.4 58.406 17.25-5.6049-21.425-4.0038-42.547-2.0938-61.281-25.864-4.933-49.663-12.915-70.375-23.312z" style="fill:#fff"/><path d="m485.19 908.5c0.56613 12.854 3.5204 27.688 9.2188 44.094 0.10536 0.30333 0.20544 0.60519 0.3125 0.90625 17.354 8.4067 38.088 15.005 61.062 19.281-2.3795-13.856-2.1634-27.447-1.1875-40.219-26.86-5.11-50.61-13.43-69.41-24.06z" style="fill:#025"/><path id="path3205_1_" d="m486.64 887.79c-3.451 16.506-1.299 38.673 7.781 64.813 23.855 68.676 91.327 78.986 81.719 66.594-4.109-5.3-7.521-10.674-10.313-16.063-18.951-4.541-54.048-24.376-69.906-70.031-5.878-16.928-8.853-32.181-9.281-45.313zm71.281 6.343c-0.883 8.536-1.855 17.611-2.281 27.125 0.993-9.791 2.08-18.941 2.281-27.125z" style="fill-opacity:.3137;fill:#010101"/><path d="m644.34 797.78-60.719 1.5625s1.4879 14.033-1.9062 29.375c-5.2413 1.7566-10.302 3.9125-15.156 6.4062 16.967 14.17 36.741 22.875 49.281 22.875 13.127 0 33.096-8.8553 50.031-23.219-5.607-2.8342-11.484-5.2158-17.594-7.0625-4.4282-15.598-3.9375-29.938-3.9375-29.938z" style="fill:#010101;opacity:.32"/><path transform="translate(206.17,392.43)" d="m460.19 461.36c-0.17469 10.869-22.498 17-50.25 17s-50.25-7.6112-50.25-17c10.132-8.166 22.498-17 50.25-17s36.798 5.4317 50.25 17z" style="fill:#050"/><path d="m676.57 942.88c-19.788-3.6765-1.6782 16.152-4.7123 23.322-11.995-5.8978-7.4244 13.627-12.848 19.051-10.278-0.54965-11.882 9.8141-19.052 12.848-8.663-4.8064-15.051 4.7122-23.322 4.7122-8.2709 0-13.165-9.1452-23.322-4.7122-7.1696-3.0342-8.7738-13.025-19.051-12.848-5.424-5.424-4.5872-26.069-12.848-19.051-3.0342-7.1696 10.969-28.492-4.7123-23.322 0-8.2709 16.612-23.619 4.7123-23.322 3.0342-7.1696 18.252-12.507 12.848-19.051 10.848-10.848 25.831-17.561 42.373-17.561s31.525 6.7126 42.373 17.561c-8.0168 3.9306 9.8142 11.882 12.848 19.051-13.393-0.67085 4.7123 15.051 4.7123 23.322z" style="fill:#520"/><path d="m565.65 853.96c24.794-17.827 17.969-58.63 17.969-58.63l58.797-3.4588s-1.518 43.032 23.782 61.167" style="fill:#050"/><path d="m643.28 799.84-57.397 1.489s0.0462 0.61052 0.11815 1.7569c0.0369 0.53865 0.054 0.93637 0.0886 1.757 6e-3 0.13107 0.0244 0.21979 0.0295 0.35734 0.0149 0.3883 0.0185 0.69238 0.0295 1.1316 4e-3 0.12744-3e-3 0.25552 0 0.38712 0.0149 0.67317 0.029 1.3692 0.0295 2.1441 3.6e-4 0.59547-0.0183 1.1966-0.0295 1.8463-4e-3 0.19835 5e-3 0.36274 0 0.5658-8e-3 0.3298-0.0185 0.67067-0.0295 1.0125-0.0261 0.81437-0.0687 1.5954-0.11816 2.4716-7e-3 0.1142 7e-3 0.21241 0 0.32757 0.54984 3.7286 0.1419 5.8414-1.754 14.234-0.99082 4.5149-2.5761 9.1556-4.6266 13.549 13.378 9.0388 27.468 18.356 36.952 18.356 9.7252 0 23.19-8.2551 36.367-17.086-2.6331-4.7771-5.6791-11.556-7.0783-16.524-2.3153-6.821-1.261-9.5225-1.8723-14.792-0.17783-1.5414-0.31267-2.9602-0.41357-4.2882-0.10002-1.3165-0.16202-2.5159-0.20678-3.5735-0.0457-1.0778-0.0792-2.0118-0.0886-2.7694-0.0181-1.4506 0-2.3525 0-2.3525h-1.9e-4z" style="fill:#010101;opacity:.32"/><path d="m664.78 691.02c-13.018-9.159-29.542-14.532-48.948-14.532-17.658 0-32.721 4.198-44.939 11.49-13.976 9.66-25.2 23.694-32.085 40.362-3.172 9.29-4.819 19.403-4.819 29.992 0 45.175 56.125 81.844 81.844 81.844 26.717 0 81.843-36.669 81.843-81.844 0-10.912-1.831-21.32-5.303-30.841-6.206-14.628-15.765-27.186-27.593-36.471z" style="fill:#050"/><path d="m619.71 765.74c-11.154 0-23.279 11.687-22.793 19.065 6.6977 26.132-21.646 38.13 24.249 38.13s12.47-23.562 20.855-38.746c-0.48374-8.6086-15.032-19.063-22.311-18.449z" style="fill:#010101;opacity:.32"/><path id="path2391_1_" d="m617.33 758.27c-11.154 0-23.279 11.687-22.793 19.065 6.6977 26.132-21.646 38.13 24.249 38.13s12.47-23.562 20.855-38.746c-0.48375-8.6086-15.032-19.063-22.311-18.449z" style="fill:url(#linearGradient6269)"/><g transform="translate(422.9,674.48)"><path id="path2387_1_" d="m171.65 31.18c-15.749 0-28.539 14.788-28.539 33.009s12.79 33.008 28.539 33.008c9.254 0 17.466-5.112 22.679-13.022 5.213 7.916 13.443 13.022 22.702 13.022 15.747 0 28.538-14.788 28.538-33.008 0-18.222-12.791-33.009-28.538-33.009-9.258 0-17.489 5.108-22.702 13.023-5.21-7.908-13.43-13.023-22.68-13.023z" style="fill:#fff"/><path id="path2411_1_" d="m192.53 66.423c0 4.563-3.699 8.261-8.261 8.261-4.563 0-8.262-3.699-8.262-8.261 0-4.563 3.699-8.262 8.262-8.262 4.562 0 8.261 3.699 8.261 8.262z" style="fill:#010101"/><path id="path3341_1_" d="m183.43 63.529c0 1.184-0.958 2.143-2.142 2.143s-2.143-0.959-2.143-2.143 0.959-2.144 2.143-2.144 2.142 0.961 2.142 2.144z" style="fill:#fff"/><path id="path3301_1_" d="m213.45 66.423c0 4.563-3.699 8.261-8.261 8.261-4.563 0-8.262-3.699-8.262-8.261 0-4.563 3.699-8.262 8.262-8.262 4.562 0 8.261 3.699 8.261 8.262z" style="fill:#010101"/><path id="path3343_1_" d="m204.35 63.529c0 1.184-0.959 2.143-2.143 2.143s-2.143-0.959-2.143-2.143 0.959-2.144 2.143-2.144c1.183 1e-3 2.143 0.961 2.143 2.144z" style="fill:#fff"/></g><path d="m624.19 709.57c7.292-33.479 19.59-38.011 19.59-38.011s-6.8402 17.463-0.64478 12.605c9.5931-7.5222 40.095 16.051 40.095 16.051s-40.412-17.828-59.04 9.3547z" style="fill-rule:evenodd;fill:#8a916f"/><path d="m607.47 709.57c-7.292-33.479-19.59-38.011-19.59-38.011s6.8402 17.463 0.64481 12.605c-9.5931-7.5222-40.095 16.051-40.095 16.051s40.412-17.828 59.04 9.3547z" style="fill-rule:evenodd;fill:#8a916f"/><path d="m694.75 857.99c-48.11 17.3 14.164 94.143-37.818 161.19-9.608 12.394 57.867 2.091 81.723-66.585 23.198-66.786 1.132-107.54-43.905-94.606z" style="fill:none"/><path d="m538.31 857.99c48.111 17.3-14.163 94.143 37.819 161.19 9.608 12.394-57.868 2.091-81.723-66.585-23.197-66.786-1.131-107.54 43.904-94.606z" style="fill:none"/></g></g></g></g><style type="text/css">.st0{clip-path:url(#b);fill:url(#a);}
	.st1{clip-path:url(#b);}
	.st2{fill:url(#y);}
	.st3{fill:#FFFFFF;}
	.st4{fill:#D1D3D4;}
	.st5{fill:#E6E7E8;}
	.st6{opacity:0.76;clip-path:url(#b);}
	.st7{opacity:0.25;fill:url(#z);}
	.st8{fill:url(#aa);}
	.st9{fill:url(#aj);}
	.st10{opacity:0.2;fill:url(#ab);}
	.st11{fill:none;}
	.st12{opacity:0.15;fill:url(#ac);}
	.st13{opacity:0.5;fill:url(#t);}
	.st14{fill:url(#u);}
	.st15{opacity:3.000000e-02;fill:none;stroke:#FFFFFF;stroke-width:2;stroke-miterlimit:10;}
	.st16{opacity:0.5;fill:url(#v);}
	.st17{fill:url(#w);}
	.st18{fill:url(#ad);}
	.st19{fill:url(#ae);}
	.st20{fill:url(#af);}
	.st21{fill:url(#ag);}
	.st22{clip-path:url(#x);}
	.st23{clip-path:url(#SVGID_21_);fill:url(#SVGID_22_);}
	.st24{opacity:0.71;clip-path:url(#SVGID_21_);}
	.st25{clip-path:url(#SVGID_21_);}
	.st26{fill:url(#SVGID_23_);}
	.st27{fill:#262262;}
	.st28{fill:#2B3990;}
	.st29{opacity:0.26;clip-path:url(#SVGID_21_);}
	.st30{opacity:0.25;fill:url(#SVGID_24_);}
	.st31{fill:url(#SVGID_25_);}
	.st32{fill:url(#SVGID_26_);}
	.st33{opacity:0.2;fill:url(#SVGID_27_);}
	.st34{opacity:0.15;fill:url(#SVGID_28_);}
	.st35{opacity:0.5;fill:url(#SVGID_29_);}
	.st36{fill:url(#SVGID_30_);}
	.st37{opacity:0.5;fill:url(#SVGID_31_);}
	.st38{fill:url(#SVGID_32_);}
	.st39{fill:url(#SVGID_33_);}
	.st40{fill:url(#SVGID_34_);}
	.st41{fill:url(#SVGID_35_);}
	.st42{fill:url(#SVGID_36_);}</style><style type="text/css">.st0{clip-path:url(#b);fill:url(#a);}
	.st1{clip-path:url(#b);}
	.st2{fill:url(#y);}
	.st3{fill:#FFFFFF;}
	.st4{fill:#D1D3D4;}
	.st5{fill:#E6E7E8;}
	.st6{opacity:0.76;clip-path:url(#b);}
	.st7{opacity:0.25;fill:url(#z);}
	.st8{fill:url(#aa);}
	.st9{fill:url(#aj);}
	.st10{opacity:0.2;fill:url(#ab);}
	.st11{fill:none;}
	.st12{opacity:0.15;fill:url(#ac);}
	.st13{opacity:0.5;fill:url(#t);}
	.st14{fill:url(#u);}
	.st15{opacity:3.000000e-02;fill:none;stroke:#FFFFFF;stroke-width:2;stroke-miterlimit:10;}
	.st16{opacity:0.5;fill:url(#v);}
	.st17{fill:url(#w);}
	.st18{fill:url(#ad);}
	.st19{fill:url(#ae);}
	.st20{fill:url(#af);}
	.st21{fill:url(#ag);}
	.st22{clip-path:url(#x);}
	.st23{clip-path:url(#SVGID_21_);fill:url(#SVGID_22_);}
	.st24{opacity:0.71;clip-path:url(#SVGID_21_);}
	.st25{clip-path:url(#SVGID_21_);}
	.st26{fill:url(#SVGID_23_);}
	.st27{fill:#262262;}
	.st28{fill:#2B3990;}
	.st29{opacity:0.26;clip-path:url(#SVGID_21_);}
	.st30{opacity:0.25;fill:url(#SVGID_24_);}
	.st31{fill:url(#SVGID_25_);}
	.st32{fill:url(#SVGID_26_);}
	.st33{opacity:0.2;fill:url(#SVGID_27_);}
	.st34{opacity:0.15;fill:url(#SVGID_28_);}
	.st35{opacity:0.5;fill:url(#SVGID_29_);}
	.st36{fill:url(#SVGID_30_);}
	.st37{opacity:0.5;fill:url(#SVGID_31_);}
	.st38{fill:url(#SVGID_32_);}
	.st39{fill:url(#SVGID_33_);}
	.st40{fill:url(#SVGID_34_);}
	.st41{fill:url(#SVGID_35_);}
	.st42{fill:url(#SVGID_36_);}</style></svg>
