<?xml version="1.0" encoding="UTF-8" standalone="no"?>
<!-- Created with Inkscape (http://www.inkscape.org/) -->

<svg
   xmlns:dc="http://purl.org/dc/elements/1.1/"
   xmlns:cc="http://creativecommons.org/ns#"
   xmlns:rdf="http://www.w3.org/1999/02/22-rdf-syntax-ns#"
   xmlns:svg="http://www.w3.org/2000/svg"
   xmlns="http://www.w3.org/2000/svg"
   xmlns:sodipodi="http://sodipodi.sourceforge.net/DTD/sodipodi-0.dtd"
   xmlns:inkscape="http://www.inkscape.org/namespaces/inkscape"
   width="210.00191mm"
   height="296.99973mm"
   viewBox="0 0 210.00191 296.99973"
   version="1.1"
   id="svg4555"
   inkscape:version="0.92.3 (2405546, 2018-03-11)"
   sodipodi:docname="readOwl.svg">
  <defs
     id="defs4549">
    <linearGradient
       id="linearGradient5130"
       spreadMethod="pad"
       gradientTransform="matrix(-3.68e-5,841.88867,841.88867,3.68e-5,297.64063,0)"
       gradientUnits="userSpaceOnUse"
       y2="0"
       x2="1"
       y1="0"
       x1="0">
      <stop
         id="stop5122"
         offset="0"
         style="stop-opacity:1;stop-color:#5dacdf" />
      <stop
         id="stop5124"
         offset="0.269767"
         style="stop-opacity:1;stop-color:#5dacdf" />
      <stop
         id="stop5126"
         offset="0.513953"
         style="stop-opacity:1;stop-color:#b8d4f0" />
      <stop
         id="stop5128"
         offset="1"
         style="stop-opacity:1;stop-color:#bed8f2" />
    </linearGradient>
    <linearGradient
       id="linearGradient5156"
       spreadMethod="pad"
       gradientTransform="matrix(-7.1e-6,161.7959,161.7959,7.1e-6,298.14014,0)"
       gradientUnits="userSpaceOnUse"
       y2="0"
       x2="1"
       y1="0"
       x1="0">
      <stop
         id="stop5146"
         offset="0"
         style="stop-opacity:1;stop-color:#7f4114" />
      <stop
         id="stop5148"
         offset="0.169088"
         style="stop-opacity:1;stop-color:#c27c51" />
      <stop
         id="stop5150"
         offset="0.840136"
         style="stop-opacity:1;stop-color:#8f4819" />
      <stop
         id="stop5152"
         offset="0.977528"
         style="stop-opacity:1;stop-color:#69350d" />
      <stop
         id="stop5154"
         offset="1"
         style="stop-opacity:1;stop-color:#69350d" />
    </linearGradient>
    <clipPath
       id="clipPath5166"
       clipPathUnits="userSpaceOnUse">
      <path
         inkscape:connector-curvature="0"
         id="path5164"
         d="M 0,0 H 595.281 V 841.89 H 0 Z" />
    </clipPath>
    <clipPath
       id="clipPath5174"
       clipPathUnits="userSpaceOnUse">
      <path
         inkscape:connector-curvature="0"
         id="path5172"
         d="m 518.684,114.122 h 23.064 v -2.15 h -23.064 z" />
    </clipPath>
    <clipPath
       id="clipPath5190"
       clipPathUnits="userSpaceOnUse">
      <path
         inkscape:connector-curvature="0"
         id="path5188"
         d="m 517.821,111.972 h 0.863 v -0.112 h -0.863 z" />
    </clipPath>
    <clipPath
       id="clipPath5206"
       clipPathUnits="userSpaceOnUse">
      <path
         inkscape:connector-curvature="0"
         id="path5204"
         d="m 508.91,111.86 h 9.709 v -1.274 h -9.709 z" />
    </clipPath>
    <clipPath
       id="clipPath5222"
       clipPathUnits="userSpaceOnUse">
      <path
         inkscape:connector-curvature="0"
         id="path5220"
         d="M 52.21,162.19 H 517.821 V 91.3682 H 52.21 Z" />
    </clipPath>
    <clipPath
       id="clipPath5238"
       clipPathUnits="userSpaceOnUse">
      <path
         inkscape:connector-curvature="0"
         id="path5236"
         d="m 500.205,111.891 h 17.643 v -1.643 h -17.643 z" />
    </clipPath>
    <clipPath
       id="clipPath5254"
       clipPathUnits="userSpaceOnUse">
      <path
         inkscape:connector-curvature="0"
         id="path5252"
         d="M 18.0015,288.256 H 311.797 V 160.702 H 18.0015 Z" />
    </clipPath>
    <linearGradient
       id="linearGradient5282"
       spreadMethod="pad"
       gradientTransform="matrix(-2.1241729,-73.884689,-65.838089,1.8928328,493.12891,141.06934)"
       gradientUnits="userSpaceOnUse"
       y2="0"
       x2="1"
       y1="0"
       x1="0">
      <stop
         id="stop5276"
         offset="0"
         style="stop-opacity:1;stop-color:#f9eede" />
      <stop
         id="stop5278"
         offset="0.493415"
         style="stop-opacity:1;stop-color:#f7e8d1" />
      <stop
         id="stop5280"
         offset="1"
         style="stop-opacity:1;stop-color:#f3dbad" />
    </linearGradient>
    <clipPath
       id="clipPath5292"
       clipPathUnits="userSpaceOnUse">
      <path
         inkscape:connector-curvature="0"
         id="path5290"
         d="M 0,0 H 595.281 V 841.89 H 0 Z" />
    </clipPath>
    <linearGradient
       id="linearGradient5302"
       spreadMethod="pad"
       gradientTransform="matrix(172.958,4.9725,-5.58023,194.096,-168.1265,820.3922)"
       gradientUnits="userSpaceOnUse"
       y2="0"
       x2="1"
       y1="0"
       x1="0">
      <stop
         id="stop5296"
         offset="0"
         style="stop-opacity:1;stop-color:#e58976" />
      <stop
         id="stop5298"
         offset="0.511236"
         style="stop-opacity:1;stop-color:#aa3d17" />
      <stop
         id="stop5300"
         offset="1"
         style="stop-opacity:1;stop-color:#611c01" />
    </linearGradient>
    <linearGradient
       id="linearGradient5324"
       spreadMethod="pad"
       gradientTransform="matrix(-1.6624212,-57.823673,-51.526237,1.4813697,232.26318,131.56348)"
       gradientUnits="userSpaceOnUse"
       y2="0"
       x2="1"
       y1="0"
       x1="0">
      <stop
         id="stop5318"
         offset="0"
         style="stop-opacity:1;stop-color:#c2ced6" />
      <stop
         id="stop5320"
         offset="0.539326"
         style="stop-opacity:1;stop-color:#899ea9" />
      <stop
         id="stop5322"
         offset="1"
         style="stop-opacity:1;stop-color:#506975" />
    </linearGradient>
    <linearGradient
       id="linearGradient5346"
       spreadMethod="pad"
       gradientTransform="matrix(388.36429,-11.165382,-12.530007,-435.82941,150.07764,141.71582)"
       gradientUnits="userSpaceOnUse"
       y2="0"
       x2="1"
       y1="0"
       x1="0">
      <stop
         id="stop5340"
         offset="0"
         style="stop-opacity:1;stop-color:#c2ced6" />
      <stop
         id="stop5342"
         offset="0.539326"
         style="stop-opacity:1;stop-color:#899ea9" />
      <stop
         id="stop5344"
         offset="1"
         style="stop-opacity:1;stop-color:#506975" />
    </linearGradient>
    <linearGradient
       id="linearGradient5368"
       spreadMethod="pad"
       gradientTransform="matrix(-1.4857547,-51.678738,-51.678738,1.4857547,500.91992,179.51855)"
       gradientUnits="userSpaceOnUse"
       y2="0"
       x2="1"
       y1="0"
       x1="0">
      <stop
         id="stop5362"
         offset="0"
         style="stop-opacity:1;stop-color:#faeccb" />
      <stop
         id="stop5364"
         offset="0.488764"
         style="stop-opacity:1;stop-color:#f8e5b4" />
      <stop
         id="stop5366"
         offset="1"
         style="stop-opacity:1;stop-color:#dcc79e" />
    </linearGradient>
    <clipPath
       id="clipPath5378"
       clipPathUnits="userSpaceOnUse">
      <path
         inkscape:connector-curvature="0"
         id="path5376"
         d="M 0,0 H 595.281 V 841.89 H 0 Z" />
    </clipPath>
    <linearGradient
       id="linearGradient5388"
       spreadMethod="pad"
       gradientTransform="matrix(145.848,4.1931,-4.1931,145.848,-141.8491,826.1534)"
       gradientUnits="userSpaceOnUse"
       y2="0"
       x2="1"
       y1="0"
       x1="0">
      <stop
         id="stop5382"
         offset="0"
         style="stop-opacity:1;stop-color:#e58976" />
      <stop
         id="stop5384"
         offset="0.511236"
         style="stop-opacity:1;stop-color:#aa3d17" />
      <stop
         id="stop5386"
         offset="1"
         style="stop-opacity:1;stop-color:#611c01" />
    </linearGradient>
    <linearGradient
       id="linearGradient5410"
       spreadMethod="pad"
       gradientTransform="matrix(-1.1627867,-40.445,-40.445,1.1627867,280.93408,173.94824)"
       gradientUnits="userSpaceOnUse"
       y2="0"
       x2="1"
       y1="0"
       x1="0">
      <stop
         id="stop5404"
         offset="0"
         style="stop-opacity:1;stop-color:#e58976" />
      <stop
         id="stop5406"
         offset="0.511236"
         style="stop-opacity:1;stop-color:#aa3d17" />
      <stop
         id="stop5408"
         offset="1"
         style="stop-opacity:1;stop-color:#611c01" />
    </linearGradient>
    <linearGradient
       id="linearGradient5432"
       spreadMethod="pad"
       gradientTransform="matrix(327.61261,-9.4187908,-9.4187908,-327.61261,211.57373,181.3916)"
       gradientUnits="userSpaceOnUse"
       y2="0"
       x2="1"
       y1="0"
       x1="0">
      <stop
         id="stop5426"
         offset="0"
         style="stop-opacity:1;stop-color:#e58976" />
      <stop
         id="stop5428"
         offset="0.511236"
         style="stop-opacity:1;stop-color:#aa3d17" />
      <stop
         id="stop5430"
         offset="1"
         style="stop-opacity:1;stop-color:#611c01" />
    </linearGradient>
    <linearGradient
       id="linearGradient5454"
       spreadMethod="pad"
       gradientTransform="matrix(-1.5785538,-54.906551,-54.906551,1.5785538,508.68359,220.64941)"
       gradientUnits="userSpaceOnUse"
       y2="0"
       x2="1"
       y1="0"
       x1="0">
      <stop
         id="stop5448"
         offset="0"
         style="stop-opacity:1;stop-color:#faeccb" />
      <stop
         id="stop5450"
         offset="0.488764"
         style="stop-opacity:1;stop-color:#f8e5b4" />
      <stop
         id="stop5452"
         offset="1"
         style="stop-opacity:1;stop-color:#dcc79e" />
    </linearGradient>
    <clipPath
       id="clipPath5464"
       clipPathUnits="userSpaceOnUse">
      <path
         inkscape:connector-curvature="0"
         id="path5462"
         d="M 0,0 H 595.281 V 841.89 H 0 Z" />
    </clipPath>
    <linearGradient
       id="linearGradient5474"
       spreadMethod="pad"
       gradientTransform="matrix(154.958,4.45502,-4.45502,154.958,-150.706,825.1693)"
       gradientUnits="userSpaceOnUse"
       y2="0"
       x2="1"
       y1="0"
       x1="0">
      <stop
         id="stop5468"
         offset="0"
         style="stop-opacity:1;stop-color:#e58976" />
      <stop
         id="stop5470"
         offset="0.511236"
         style="stop-opacity:1;stop-color:#aa3d17" />
      <stop
         id="stop5472"
         offset="1"
         style="stop-opacity:1;stop-color:#611c01" />
    </linearGradient>
    <linearGradient
       id="linearGradient5496"
       spreadMethod="pad"
       gradientTransform="matrix(-1.2354122,-42.971119,-42.971119,1.2354122,274.95703,214.7334)"
       gradientUnits="userSpaceOnUse"
       y2="0"
       x2="1"
       y1="0"
       x1="0">
      <stop
         id="stop5490"
         offset="0"
         style="stop-opacity:1;stop-color:#e58976" />
      <stop
         id="stop5492"
         offset="0.511236"
         style="stop-opacity:1;stop-color:#aa3d17" />
      <stop
         id="stop5494"
         offset="1"
         style="stop-opacity:1;stop-color:#611c01" />
    </linearGradient>
    <linearGradient
       id="linearGradient5518"
       spreadMethod="pad"
       gradientTransform="matrix(348.07446,-10.007066,-10.007066,-348.07446,201.26367,222.63965)"
       gradientUnits="userSpaceOnUse"
       y2="0"
       x2="1"
       y1="0"
       x1="0">
      <stop
         id="stop5512"
         offset="0"
         style="stop-opacity:1;stop-color:#e58976" />
      <stop
         id="stop5514"
         offset="0.511236"
         style="stop-opacity:1;stop-color:#aa3d17" />
      <stop
         id="stop5516"
         offset="1"
         style="stop-opacity:1;stop-color:#611c01" />
    </linearGradient>
    <clipPath
       id="clipPath5528"
       clipPathUnits="userSpaceOnUse">
      <path
         inkscape:connector-curvature="0"
         id="path5526"
         d="M 0,0 H 595.281 V 841.89 H 0 Z" />
    </clipPath>
    <clipPath
       id="clipPath5594"
       clipPathUnits="userSpaceOnUse">
      <path
         inkscape:connector-curvature="0"
         id="path5592"
         d="m 213.612,530.637 h 97.654 v -97.656 h -97.654 z" />
    </clipPath>
    <clipPath
       id="clipPath5614"
       clipPathUnits="userSpaceOnUse">
      <path
         inkscape:connector-curvature="0"
         id="path5612"
         d="M 318.962,530.637 H 416.61 V 432.981 H 318.962 Z" />
    </clipPath>
  </defs>
  <sodipodi:namedview
     id="base"
     pagecolor="#ffffff"
     bordercolor="#666666"
     borderopacity="1.0"
     inkscape:pageopacity="0.0"
     inkscape:pageshadow="2"
     inkscape:zoom="0.35"
     inkscape:cx="-338.86029"
     inkscape:cy="415.54506"
     inkscape:document-units="mm"
     inkscape:current-layer="layer1"
     showgrid="false"
     fit-margin-top="0"
     fit-margin-left="0"
     fit-margin-right="0"
     fit-margin-bottom="0"
     inkscape:window-width="1920"
     inkscape:window-height="1017"
     inkscape:window-x="-8"
     inkscape:window-y="-8"
     inkscape:window-maximized="1" />
  <metadata
     id="metadata4552">
    <rdf:RDF>
      <cc:Work
         rdf:about="">
        <dc:format>image/svg+xml</dc:format>
        <dc:type
           rdf:resource="http://purl.org/dc/dcmitype/StillImage" />
        <dc:title></dc:title>
      </cc:Work>
    </rdf:RDF>
  </metadata>
  <g
     inkscape:label="Layer 1"
     inkscape:groupmode="layer"
     id="layer1"
     transform="translate(2.9473824,38.220094)">
    <g
       transform="matrix(0.35277777,0,0,-0.35277777,-2.9473824,258.77963)"
       inkscape:label="read-owl-1376297"
       id="g5108">
      <g
         id="g5110">
        <g
           id="g5112">
          <g
             id="g5118">
            <g
               id="g5120">
              <path
                 inkscape:connector-curvature="0"
                 id="path5132"
                 style="fill:url(#linearGradient5130);stroke:none"
                 d="m 0.001,0 h 595.28 V 841.889 H 0.001 Z" />
            </g>
          </g>
        </g>
      </g>
      <g
         id="g5134">
        <g
           id="g5136">
          <g
             id="g5142">
            <g
               id="g5144">
              <path
                 inkscape:connector-curvature="0"
                 id="path5158"
                 style="fill:url(#linearGradient5156);stroke:none"
                 d="M 0,0 H 595.281 V 161.796 H 0 Z" />
            </g>
          </g>
        </g>
      </g>
      <g
         id="g5160">
        <g
           clip-path="url(#clipPath5166)"
           id="g5162">
          <g
             id="g5168">
            <g
               id="g5170" />
            <g
               id="g5182">
              <g
                 style="opacity:0.30000299"
                 id="g5180"
                 clip-path="url(#clipPath5174)">
                <g
                   id="g5178"
                   transform="translate(518.6836,111.9717)">
                  <path
                     inkscape:connector-curvature="0"
                     id="path5176"
                     style="fill:#1d1d1b;fill-opacity:1;fill-rule:nonzero;stroke:none"
                     d="M 0,0 23.064,2.15 C 16.04,1.857 8.265,1.083 0,0" />
                </g>
              </g>
            </g>
          </g>
          <g
             id="g5184">
            <g
               id="g5186" />
            <g
               id="g5198">
              <g
                 style="opacity:0.30000299"
                 id="g5196"
                 clip-path="url(#clipPath5190)">
                <g
                   id="g5194"
                   transform="translate(518.6836,111.9717)">
                  <path
                     inkscape:connector-curvature="0"
                     id="path5192"
                     style="fill:#1d1d1b;fill-opacity:1;fill-rule:nonzero;stroke:none"
                     d="m 0,0 -0.862,-0.081 0.026,-0.03 C -0.558,-0.074 -0.277,-0.037 0,0" />
                </g>
              </g>
            </g>
          </g>
          <g
             id="g5200">
            <g
               id="g5202" />
            <g
               id="g5214">
              <g
                 style="opacity:0.30000299"
                 id="g5212"
                 clip-path="url(#clipPath5206)">
                <g
                   id="g5210"
                   transform="translate(518.6191,110.9619)">
                  <path
                     inkscape:connector-curvature="0"
                     id="path5208"
                     style="fill:#1d1d1b;fill-opacity:1;fill-rule:nonzero;stroke:none"
                     d="M 0,0 -0.771,0.898 C -3.693,0.509 -6.674,0.083 -9.709,-0.376 -6.487,-0.251 -3.254,-0.126 0,0" />
                </g>
              </g>
            </g>
          </g>
          <g
             id="g5216">
            <g
               id="g5218" />
            <g
               id="g5230">
              <g
                 style="opacity:0.30000299"
                 id="g5228"
                 clip-path="url(#clipPath5222)">
                <g
                   id="g5226"
                   transform="translate(500.2051,110.248)">
                  <path
                     inkscape:connector-curvature="0"
                     id="path5224"
                     style="fill:#1d1d1b;fill-opacity:1;fill-rule:nonzero;stroke:none"
                     d="M 0,0 17.616,1.643 7.582,13.322 c 2.264,0.088 4.531,0.176 6.811,0.265 L 2.715,27.181 c -5.887,-0.155 -11.738,-0.313 -17.572,-0.47 l 19.511,0.59 -214.129,-0.029 -1.073,0.947 c 10.404,2.904 17.811,6.704 21.715,11.146 4.047,-0.519 8.225,-1.229 11.674,-4.847 7.212,-7.575 14.658,-5.295 14.658,-5.295 l 1.898,21.665 -284.092,1.054 54.888,-22.749 c 0,0 12.616,-2.278 2.637,5.296 -4.771,3.621 -2.195,4.328 0.673,4.848 12.654,-4.017 26.985,-7.511 42.19,-10.287 0.027,-0.027 0.047,-0.052 0.077,-0.079 l 3.185,-2.807 -104.781,-3.167 h -1.211 c -3.579,-4.508 3.044,-10.342 16.853,-14.85 4.518,0.002 9.037,0.002 13.556,0.003 -1.061,-3.601 3.869,-7.826 13.326,-11.394 l -18.863,-0.616 h -1.139 c -3.009,-4.56 3.688,-10.46 17.046,-15.02 97.66,0.015 195.321,0.027 292.978,0.04 -0.224,0.075 -0.434,0.156 -0.657,0.235 C -79.979,-17.252 -31.236,-5.71 8.705,0.338 5.793,0.225 2.892,0.111 0,0" />
                </g>
              </g>
            </g>
          </g>
          <g
             id="g5232">
            <g
               id="g5234" />
            <g
               id="g5246">
              <g
                 style="opacity:0.30000299"
                 id="g5244"
                 clip-path="url(#clipPath5238)">
                <g
                   id="g5242"
                   transform="translate(508.9102,110.5859)">
                  <path
                     inkscape:connector-curvature="0"
                     id="path5240"
                     style="fill:#1d1d1b;fill-opacity:1;fill-rule:nonzero;stroke:none"
                     d="M 0,0 C 3.035,0.459 6.016,0.885 8.938,1.274 L 8.911,1.305 -8.705,-0.338 C -5.813,-0.227 -2.912,-0.113 0,0" />
                </g>
              </g>
            </g>
          </g>
          <g
             id="g5248">
            <g
               id="g5250" />
            <g
               id="g5262">
              <g
                 style="opacity:0.30000299"
                 id="g5260"
                 clip-path="url(#clipPath5254)">
                <g
                   id="g5258"
                   transform="translate(311.2485,160.7021)">
                  <path
                     inkscape:connector-curvature="0"
                     id="path5256"
                     style="fill:#1d1d1b;fill-opacity:1;fill-rule:nonzero;stroke:none"
                     d="m 0,0 c 0,0 1.229,10.445 0.004,13.059 -7.912,16.889 -27.46,30.4 -43.77,30.398 -3.624,0 -6.779,-0.67 -9.414,-1.892 -1.876,1.206 -3.78,2.291 -5.69,3.225 8.106,7.297 10.724,16.115 6.27,25.623 -0.259,0.55 -0.547,1.1 -0.848,1.647 l 3.558,1.497 c -1.599,3.417 -4.298,7.655 -8.212,4.998 -8.887,10.026 -24.829,18.904 -44.619,25.482 -8.086,-0.324 -16.928,-0.761 -25.395,-2.341 -0.081,-0.015 -0.159,-0.034 -0.239,-0.047 -0.085,0 -0.17,0.003 -0.254,0.003 -0.835,0 -1.657,-0.015 -2.472,-0.037 0.354,0.066 0.701,0.138 1.06,0.199 27.874,4.913 59.503,-1.806 55.864,14.178 -4.151,0.757 -31.439,-3.959 -60.44,-7.221 l -2.001,4.272 52.786,7.94 -135.462,6.571 -73.975,-11.072 66.695,-3.336 1.954,-4.175 c -31.356,3.246 -61.817,7.749 -65.187,7.007 8.408,-11.853 24.515,-11.219 45.52,-12.102 -12.535,-6.124 -19.911,-14.217 -20.436,-23.356 -6.202,0.551 -2.684,-5.688 -1.739,-7.707 l 3.295,-1.118 c 0.172,-0.431 0.36,-0.861 0.562,-1.295 4.455,-9.508 15.336,-18.327 30.276,-25.622 -1.035,-0.931 -1.919,-2.019 -2.668,-3.225 -3.778,1.224 -7.563,1.89 -11.184,1.89 -16.31,-10e-4 -23.199,-13.51 -15.288,-30.4 1.738,-3.71 9.064,-11.554 9.064,-11.554 z" />
                </g>
              </g>
            </g>
          </g>
        </g>
      </g>
      <g
         id="g5264">
        <g
           id="g5266">
          <g
             id="g5272">
            <g
               id="g5274">
              <path
                 inkscape:connector-curvature="0"
                 id="path5284"
                 style="fill:url(#linearGradient5282);stroke:none"
                 d="m 406.468,125.717 c -0.578,-20.109 -1.157,-40.221 -1.734,-60.33 v 0 c 59.502,5.662 112.001,11.274 168.621,17.022 v 0 c -3.948,18.632 1.151,37.683 5.891,55.113 v 0 C 519.8,133.866 462.61,129.79 406.468,125.717" />
            </g>
          </g>
        </g>
      </g>
      <g
         id="g5286">
        <g
           clip-path="url(#clipPath5292)"
           id="g5288">
          <g
             transform="translate(573.3545,82.4092)"
             id="g5294">
            <path
               inkscape:connector-curvature="0"
               id="path5304"
               style="fill:none;stroke:url(#linearGradient5302);stroke-width:1.22500002;stroke-linecap:butt;stroke-linejoin:miter;stroke-miterlimit:10;stroke-dasharray:none;stroke-opacity:1"
               d="m 0,0 c -56.619,-5.748 -109.118,-11.36 -168.621,-17.022 0.578,20.109 1.157,40.22 1.735,60.33 56.142,4.073 113.332,8.149 172.778,11.804" />
          </g>
        </g>
      </g>
      <g
         id="g5306">
        <g
           id="g5308">
          <g
             id="g5314">
            <g
               id="g5316">
              <path
                 inkscape:connector-curvature="0"
                 id="path5326"
                 style="fill:url(#linearGradient5324);stroke:none"
                 d="M 55.695,75.421 C 174.729,72 293.764,68.577 412.796,65.156 v 0 c -9.446,18.595 -8.764,42.304 1.734,60.328 v 0 c -119.031,3.422 -238.067,6.845 -357.101,10.267 v 0 C 46.929,117.725 46.247,94.019 55.695,75.421" />
            </g>
          </g>
        </g>
      </g>
      <g
         id="g5328">
        <g
           id="g5330">
          <g
             id="g5336">
            <g
               id="g5338">
              <path
                 inkscape:connector-curvature="0"
                 id="path5348"
                 style="fill:url(#linearGradient5346);stroke:none"
                 d="m 58.819,135.711 355.017,-10.206 167.802,12.433 -355.022,10.206 z" />
            </g>
          </g>
        </g>
      </g>
      <g
         id="g5350">
        <g
           id="g5352">
          <g
             id="g5358">
            <g
               id="g5360">
              <path
                 inkscape:connector-curvature="0"
                 id="path5370"
                 style="fill:url(#linearGradient5368);stroke:none"
                 d="m 427.891,169.138 c -0.405,-14.065 -0.809,-28.132 -1.214,-42.197 v 0 c 50.164,3.715 94.42,7.424 142.153,11.208 v 0 c -3.408,13.052 0.817,26.358 4.74,38.532 v 0 c -50.123,-2.311 -98.346,-4.926 -145.679,-7.543" />
            </g>
          </g>
        </g>
      </g>
      <g
         id="g5372">
        <g
           clip-path="url(#clipPath5378)"
           id="g5374">
          <g
             transform="translate(568.8301,138.1494)"
             id="g5380">
            <path
               inkscape:connector-curvature="0"
               id="path5390"
               style="fill:none;stroke:url(#linearGradient5388);stroke-width:0.94099998;stroke-linecap:butt;stroke-linejoin:miter;stroke-miterlimit:10;stroke-dasharray:none;stroke-opacity:1"
               d="m 0,0 c -47.732,-3.785 -91.989,-7.494 -142.152,-11.209 0.404,14.065 0.808,28.132 1.213,42.197 47.334,2.617 95.556,5.233 145.679,7.543" />
          </g>
        </g>
      </g>
      <g
         id="g5392">
        <g
           id="g5394">
          <g
             id="g5400">
            <g
               id="g5402">
              <path
                 inkscape:connector-curvature="0"
                 id="path5412"
                 style="fill:url(#linearGradient5410);stroke:none"
                 d="m 132.241,135.405 c 100.413,-2.886 200.827,-5.774 301.237,-8.661 v 0 c -8.045,13.05 -7.568,29.632 1.212,42.198 v 0 c -100.409,2.887 -200.823,5.774 -301.237,8.66 v 0 c -8.781,-12.566 -9.258,-29.148 -1.212,-42.197" />
            </g>
          </g>
        </g>
      </g>
      <g
         id="g5414">
        <g
           id="g5416">
          <g
             id="g5422">
            <g
               id="g5424">
              <path
                 inkscape:connector-curvature="0"
                 id="path5434"
                 style="fill:url(#linearGradient5432);stroke:none"
                 d="m 134.625,177.568 299.481,-8.609 141.483,8.003 -299.486,8.609 z" />
            </g>
          </g>
        </g>
      </g>
      <g
         id="g5436">
        <g
           id="g5438">
          <g
             id="g5444">
            <g
               id="g5446">
              <path
                 inkscape:connector-curvature="0"
                 id="path5456"
                 style="fill:url(#linearGradient5454);stroke:none"
                 d="m 431.092,209.62 c -0.43,-14.945 -0.86,-29.889 -1.289,-44.833 v 0 c 53.295,3.948 100.318,7.888 151.03,11.909 v 0 c -3.619,13.867 0.868,28.005 5.038,40.937 v 0 c -53.255,-2.455 -104.489,-5.231 -154.779,-8.013" />
            </g>
          </g>
        </g>
      </g>
      <g
         id="g5458">
        <g
           clip-path="url(#clipPath5464)"
           id="g5460">
          <g
             transform="translate(580.833,176.6963)"
             id="g5466">
            <path
               inkscape:connector-curvature="0"
               id="path5476"
               style="fill:none;stroke:url(#linearGradient5474);stroke-width:1;stroke-linecap:butt;stroke-linejoin:miter;stroke-miterlimit:10;stroke-dasharray:none;stroke-opacity:1"
               d="m 0,0 c -50.712,-4.021 -97.735,-7.962 -151.03,-11.909 0.429,14.943 0.859,29.888 1.289,44.833 50.29,2.781 101.524,5.558 154.779,8.014" />
          </g>
        </g>
      </g>
      <g
         id="g5478">
        <g
           id="g5480">
          <g
             id="g5486">
            <g
               id="g5488">
              <path
                 inkscape:connector-curvature="0"
                 id="path5498"
                 style="fill:url(#linearGradient5496);stroke:none"
                 d="m 116.974,173.78 c 106.686,-3.067 213.372,-6.134 320.054,-9.201 v 0 c -8.548,13.864 -8.04,31.482 1.289,44.833 v 0 c -106.682,3.067 -213.368,6.134 -320.053,9.202 v 0 c -9.331,-13.351 -9.837,-30.969 -1.29,-44.834" />
            </g>
          </g>
        </g>
      </g>
      <g
         id="g5500">
        <g
           id="g5502">
          <g
             id="g5508">
            <g
               id="g5510">
              <path
                 inkscape:connector-curvature="0"
                 id="path5520"
                 style="fill:url(#linearGradient5518);stroke:none"
                 d="m 119.509,218.577 318.186,-9.147 150.32,8.502 -318.192,9.149 z" />
            </g>
          </g>
        </g>
      </g>
      <g
         id="g5522">
        <g
           clip-path="url(#clipPath5528)"
           id="g5524">
          <path
             inkscape:connector-curvature="0"
             id="path5530"
             style="fill:#1d1d1b;fill-opacity:1;fill-rule:nonzero;stroke:none"
             d="m 363.859,575.814 h -103.86 v 30.647 h 103.86 z" />
          <g
             transform="translate(429.1328,614.6113)"
             id="g5532">
            <path
               inkscape:connector-curvature="0"
               id="path5534"
               style="fill:#343433;fill-opacity:1;fill-rule:nonzero;stroke:none"
               d="m 0,0 -92.422,-28.499 -151.951,17.117 91.445,28.073 z" />
          </g>
          <g
             transform="translate(467.5557,340.8125)"
             id="g5536">
            <path
               inkscape:connector-curvature="0"
               id="path5538"
               style="fill:#ca9e67;fill-opacity:1;fill-rule:nonzero;stroke:none"
               d="m 0,0 c 0,-42.845 -34.114,-98.037 -34.114,-98.037 0,0 -10.321,-6.886 -8.899,15.99 1.424,22.877 -15.326,7.26 -13,28.484 2.33,21.228 -12.219,36.241 -12.219,53.563 0,42.846 15.272,77.122 34.118,77.122 C -15.271,77.122 0,42.846 0,0" />
          </g>
          <g
             transform="translate(165.5176,340.8125)"
             id="g5540">
            <path
               inkscape:connector-curvature="0"
               id="path5542"
               style="fill:#ca9e67;fill-opacity:1;fill-rule:nonzero;stroke:none"
               d="m 0,0 c 0,-42.845 34.112,-98.037 34.112,-98.037 0,0 10.316,-6.889 8.893,15.987 -1.422,22.875 15.328,7.256 13,28.484 C 53.676,-32.34 68.231,-17.328 68.231,0 68.231,42.846 52.953,77.122 34.112,77.122 15.272,77.122 0,42.846 0,0" />
          </g>
          <g
             transform="translate(278.9751,238.0107)"
             id="g5544">
            <path
               inkscape:connector-curvature="0"
               id="path5546"
               style="fill:#fbbc33;fill-opacity:1;fill-rule:nonzero;stroke:none"
               d="M 0,0 C -2.821,0 -5.244,-0.918 -6.399,-2.231 -7.556,-0.918 -9.976,0 -12.797,0 -15.621,0 -18.041,-0.918 -19.194,-2.231 -20.349,-0.918 -22.773,0 -25.597,0 c -3.937,0 -7.135,-1.764 -7.135,-3.938 v -8.109 c 0,-2.177 3.198,-7.708 7.135,-7.708 2.824,0 5.248,0.914 6.403,2.231 1.153,-1.317 3.573,-2.231 6.397,-2.231 2.821,0 5.241,0.914 6.398,2.231 1.155,-1.317 3.578,-2.231 6.399,-2.231 3.94,0 7.133,5.531 7.133,7.708 v 8.109 C 7.133,-1.764 3.94,0 0,0" />
          </g>
          <g
             transform="translate(375.7207,238.0107)"
             id="g5548">
            <path
               inkscape:connector-curvature="0"
               id="path5550"
               style="fill:#fbbc33;fill-opacity:1;fill-rule:nonzero;stroke:none"
               d="M 0,0 C -2.823,0 -5.248,-0.918 -6.402,-2.231 -7.558,-0.918 -9.974,0 -12.798,0 -15.625,0 -18.044,-0.918 -19.199,-2.231 -20.354,-0.918 -22.774,0 -25.601,0 c -3.936,0 -7.132,-1.764 -7.132,-3.938 v -8.109 c 0,-2.177 3.196,-7.708 7.132,-7.708 2.827,0 5.247,0.914 6.402,2.231 1.155,-1.317 3.574,-2.231 6.401,-2.231 2.824,0 5.24,0.914 6.396,2.231 1.154,-1.317 3.579,-2.231 6.402,-2.231 3.935,0 7.131,5.531 7.131,7.708 v 8.109 C 7.131,-1.764 3.935,0 0,0" />
          </g>
          <g
             transform="translate(398.1201,571.6318)"
             id="g5552">
            <path
               inkscape:connector-curvature="0"
               id="path5554"
               style="fill:#7e4e24;fill-opacity:1;fill-rule:nonzero;stroke:none"
               d="m 0,0 c -9.518,-0.823 -19.966,-1.931 -30.603,-5.936 -31.321,-11.792 -49.085,-46.339 -52.342,-46.339 -3.263,0 -21.025,34.547 -52.348,46.339 -9.717,3.662 -19.279,4.899 -28.119,5.716 -24.243,-21.082 -39.463,-51.391 -39.463,-85.091 0,-24.121 7.797,-46.496 21.108,-65.004 -13.311,-18.512 -21.108,-60.889 -21.108,-85.004 0,-63.683 54.304,-115.314 121.292,-115.314 66.984,0 121.287,51.631 121.287,115.314 0,24.115 -7.799,66.492 -21.111,85.004 13.312,18.508 21.111,40.883 21.111,65.004 C 39.704,-51.501 24.39,-21.09 0,0" />
          </g>
          <g
             transform="translate(386.2031,376.1572)"
             id="g5556">
            <path
               inkscape:connector-curvature="0"
               id="path5558"
               style="fill:#ca9e67;fill-opacity:1;fill-rule:nonzero;stroke:none"
               d="m 0,0 c -20.49,-8.721 -43.617,-13.663 -68.123,-13.663 -24.503,0 -47.638,4.942 -68.127,13.663 -15.165,-13.938 -24.427,-32.534 -24.427,-52.966 0,-43.223 41.435,-78.268 92.554,-78.268 51.116,0 92.556,35.045 92.556,78.268 C 24.433,-32.534 15.165,-13.938 0,0" />
          </g>
          <g
             transform="translate(366.9238,565.5825)"
             id="g5560">
            <path
               inkscape:connector-curvature="0"
               id="path5562"
               style="fill:#ca9e67;fill-opacity:1;fill-rule:nonzero;stroke:none"
               d="M 0,0 C -22.336,0 -41.781,-15.3 -52.098,-37.945 -62.419,-15.3 -81.866,0 -104.203,0 c -33.117,0 -59.962,-33.569 -59.962,-74.99 0,-41.41 26.845,-74.984 59.962,-74.984 22.337,0 41.784,15.301 52.105,37.945 10.317,-22.644 29.762,-37.945 52.098,-37.945 33.106,0 59.961,33.574 59.961,74.984 C 59.961,-33.569 33.106,0 0,0" />
          </g>
          <g
             transform="translate(301.7197,492.4199)"
             id="g5564">
            <path
               inkscape:connector-curvature="0"
               id="path5566"
               style="fill:#ffffff;fill-opacity:1;fill-rule:nonzero;stroke:none"
               d="m 0,0 c 0,-30.699 -19.902,-55.59 -44.456,-55.59 -24.551,0 -44.457,24.891 -44.457,55.59 0,30.705 19.906,55.592 44.457,55.592 C -19.902,55.592 0,30.705 0,0" />
          </g>
          <g
             transform="translate(268.7266,503.3389)"
             id="g5568">
            <path
               inkscape:connector-curvature="0"
               id="path5570"
               style="fill:#1e1f1d;fill-opacity:1;fill-rule:nonzero;stroke:none"
               d="m 0,0 c -3.621,0 -6.544,1.835 -6.544,4.089 0,2.255 2.923,4.086 6.544,4.086 0.225,0 0.436,-0.029 0.652,-0.04 -4.173,6.189 -11.089,10.241 -18.923,10.241 -12.75,0 -23.082,-10.713 -23.082,-23.938 0,-13.22 10.332,-23.939 23.082,-23.939 12.754,0 23.092,10.719 23.092,23.939 0,2.225 -0.314,4.37 -0.867,6.413 C 2.86,0.326 1.492,0 0,0" />
          </g>
          <g
             transform="translate(416.832,492.4199)"
             id="g5572">
            <path
               inkscape:connector-curvature="0"
               id="path5574"
               style="fill:#ffffff;fill-opacity:1;fill-rule:nonzero;stroke:none"
               d="m 0,0 c 0,-30.699 -19.909,-55.59 -44.456,-55.59 -24.556,0 -44.448,24.891 -44.448,55.59 0,30.705 19.892,55.592 44.448,55.592 C -19.909,55.592 0,30.705 0,0" />
          </g>
          <g
             transform="translate(383.8413,503.3389)"
             id="g5576">
            <path
               inkscape:connector-curvature="0"
               id="path5578"
               style="fill:#1e1f1d;fill-opacity:1;fill-rule:nonzero;stroke:none"
               d="m 0,0 c -3.619,0 -6.555,1.835 -6.555,4.089 0,2.255 2.936,4.086 6.555,4.086 0.216,0 0.434,-0.029 0.644,-0.04 -4.167,6.189 -11.081,10.241 -18.916,10.241 -12.748,0 -23.088,-10.713 -23.088,-23.938 0,-13.22 10.34,-23.939 23.088,-23.939 12.748,0 23.084,10.719 23.084,23.939 0,2.225 -0.314,4.37 -0.867,6.413 C 2.85,0.326 1.494,0 0,0" />
          </g>
          <g
             transform="translate(332.2178,445.7607)"
             id="g5580">
            <path
               inkscape:connector-curvature="0"
               id="path5582"
               style="fill:#fbbc33;fill-opacity:1;fill-rule:nonzero;stroke:none"
               d="m 0,0 c -1.265,1.352 -3.381,2.169 -5.646,2.169 0,0 -5.437,10.007 -11.839,10.007 -6.404,0 -11.641,-10.007 -11.641,-10.007 -2.272,0 -4.39,-0.817 -5.651,-2.169 -1.25,-1.352 -1.487,-3.07 -0.613,-4.57 l 11.743,-20.226 c 1.055,-1.808 3.523,-2.991 6.255,-2.991 2.741,0 5.201,1.183 6.259,2.991 L 0.612,-4.57 C 1.486,-3.07 1.253,-1.352 0,0" />
          </g>
          <g
             transform="translate(313.041,576.2163)"
             id="g5584">
            <path
               inkscape:connector-curvature="0"
               id="path5586"
               style="fill:#683c10;fill-opacity:1;fill-rule:nonzero;stroke:none"
               d="m 0,0 c -43.928,0 -117.946,28.631 -124.554,25.736 4.447,-40.547 37.347,-23.5 72.206,-35.953 31.323,-11.187 49.085,-43.967 52.348,-43.967 3.256,0 21.021,32.78 52.342,43.967 34.856,12.453 67.76,-4.594 72.205,35.953 C 117.938,28.631 43.924,0 0,0" />
          </g>
          <g
             id="g5588">
            <g
               id="g5590" />
            <g
               id="g5602">
              <g
                 style="opacity:0.5"
                 id="g5600"
                 clip-path="url(#clipPath5594)">
                <g
                   id="g5598"
                   transform="translate(311.2661,481.8076)">
                  <path
                     inkscape:connector-curvature="0"
                     id="path5596"
                     style="fill:#75a6c5;fill-opacity:1;fill-rule:nonzero;stroke:none"
                     d="m 0,0 c 0,-26.967 -21.861,-48.826 -48.827,-48.826 -26.965,0 -48.826,21.859 -48.826,48.826 0,26.97 21.861,48.829 48.826,48.829 C -21.861,48.829 0,26.97 0,0" />
                </g>
              </g>
            </g>
          </g>
          <g
             transform="translate(311.2661,481.8076)"
             id="g5604">
            <path
               inkscape:connector-curvature="0"
               id="path5606"
               style="fill:none;stroke:#432a18;stroke-width:8.19900036;stroke-linecap:butt;stroke-linejoin:miter;stroke-miterlimit:10;stroke-dasharray:none;stroke-opacity:1"
               d="m 0,0 c 0,-26.967 -21.861,-48.826 -48.827,-48.826 -26.965,0 -48.826,21.859 -48.826,48.826 0,26.97 21.861,48.829 48.826,48.829 C -21.861,48.829 0,26.97 0,0 Z" />
          </g>
          <g
             id="g5608">
            <g
               id="g5610" />
            <g
               id="g5622">
              <g
                 style="opacity:0.5"
                 id="g5620"
                 clip-path="url(#clipPath5614)">
                <g
                   id="g5618"
                   transform="translate(416.6104,481.8076)">
                  <path
                     inkscape:connector-curvature="0"
                     id="path5616"
                     style="fill:#75a6c5;fill-opacity:1;fill-rule:nonzero;stroke:none"
                     d="m 0,0 c 0,-26.967 -21.86,-48.826 -48.826,-48.826 -26.965,0 -48.822,21.859 -48.822,48.826 0,26.97 21.857,48.829 48.822,48.829 C -21.86,48.829 0,26.97 0,0" />
                </g>
              </g>
            </g>
          </g>
          <g
             transform="translate(416.6104,481.8076)"
             id="g5624">
            <path
               inkscape:connector-curvature="0"
               id="path5626"
               style="fill:none;stroke:#432a18;stroke-width:8.19900036;stroke-linecap:butt;stroke-linejoin:miter;stroke-miterlimit:10;stroke-dasharray:none;stroke-opacity:1"
               d="m 0,0 c 0,-26.967 -21.86,-48.826 -48.826,-48.826 -26.965,0 -48.822,21.859 -48.822,48.826 0,26.97 21.857,48.829 48.822,48.829 C -21.86,48.829 0,26.97 0,0 Z" />
          </g>
          <g
             transform="translate(416.6973,477.8223)"
             id="g5628">
            <path
               inkscape:connector-curvature="0"
               id="path5630"
               style="fill:none;stroke:#432a18;stroke-width:4.44199991;stroke-linecap:butt;stroke-linejoin:miter;stroke-miterlimit:10;stroke-dasharray:none;stroke-opacity:1"
               d="m 0,0 c 4.989,7.329 7.529,18.873 12.687,26.226 7.101,10.128 8.024,-1.236 8.024,-10.245" />
          </g>
          <g
             transform="translate(212.7427,477.8223)"
             id="g5632">
            <path
               inkscape:connector-curvature="0"
               id="path5634"
               style="fill:none;stroke:#432a18;stroke-width:5.46600008;stroke-linecap:butt;stroke-linejoin:miter;stroke-miterlimit:10;stroke-dasharray:none;stroke-opacity:1"
               d="m 0,0 c 0,8.388 0.672,25.64 -6.628,31.222 -10.226,7.82 -9.354,-11.38 -9.352,-17.018" />
          </g>
          <g
             transform="translate(213.9355,600.0015)"
             id="g5636">
            <path
               inkscape:connector-curvature="0"
               id="path5638"
               style="fill:none;stroke:#f9b233;stroke-width:8.5369997;stroke-linecap:butt;stroke-linejoin:miter;stroke-miterlimit:10;stroke-dasharray:none;stroke-opacity:1"
               d="M 0,0 V -237.691" />
          </g>
          <g
             transform="translate(248.958,345.9629)"
             id="g5640">
            <path
               inkscape:connector-curvature="0"
               id="path5642"
               style="fill:#1d1d1b;fill-opacity:1;fill-rule:nonzero;stroke:none"
               d="m 0,0 c 0,0 0.368,-0.355 0.958,-1.008 0.592,-0.65 1.412,-1.612 2.326,-2.785 0.932,-1.166 1.969,-2.542 3.06,-4.008 1.102,-1.456 2.264,-2.994 3.474,-4.466 0.619,-0.716 1.214,-1.465 1.856,-2.126 0.317,-0.337 0.631,-0.671 0.942,-1.003 0.325,-0.311 0.646,-0.619 0.962,-0.921 0.302,-0.327 0.652,-0.564 0.965,-0.846 0.326,-0.262 0.622,-0.567 0.955,-0.779 0.653,-0.451 1.249,-0.949 1.872,-1.269 0.306,-0.182 0.6,-0.355 0.879,-0.52 0.294,-0.137 0.574,-0.266 0.837,-0.388 0.532,-0.247 1.003,-0.484 1.415,-0.592 0.814,-0.274 1.302,-0.47 1.302,-0.47 0,0 -0.493,-0.068 -1.395,-0.119 -0.224,-0.005 -0.481,-0.042 -0.751,-0.021 -0.27,0.018 -0.56,0.06 -0.876,0.095 -0.317,0.04 -0.655,0.082 -1.011,0.127 -0.345,0.087 -0.703,0.199 -1.083,0.306 -0.778,0.184 -1.547,0.547 -2.375,0.928 -0.429,0.172 -0.792,0.453 -1.209,0.686 -0.403,0.248 -0.831,0.494 -1.209,0.802 -0.789,0.585 -1.58,1.222 -2.297,1.946 -0.764,0.688 -1.409,1.487 -2.092,2.256 -0.63,0.806 -1.271,1.606 -1.816,2.442 -0.579,0.817 -1.073,1.66 -1.559,2.471 C 3.192,-7.625 2.41,-6.056 1.816,-4.679 1.197,-3.312 0.76,-2.145 0.452,-1.316 0.146,-0.49 0,0 0,0" />
          </g>
          <g
             transform="translate(192.9829,381.75)"
             id="g5644">
            <path
               inkscape:connector-curvature="0"
               id="path5646"
               style="fill:#1d1d1b;fill-opacity:1;fill-rule:nonzero;stroke:none"
               d="M 0,0 C 0,0 -0.05,-0.509 -0.194,-1.378 -0.336,-2.245 -0.58,-3.484 -0.931,-4.93 -1.266,-6.385 -1.7,-8.052 -2.17,-9.818 c -0.456,-1.768 -0.939,-3.635 -1.34,-5.497 -0.178,-0.93 -0.395,-1.862 -0.513,-2.776 -0.067,-0.458 -0.134,-0.912 -0.201,-1.36 -0.042,-0.448 -0.083,-0.892 -0.124,-1.327 -0.068,-0.44 -0.036,-0.862 -0.063,-1.283 -0.002,-0.418 -0.058,-0.838 -0.017,-1.232 0.053,-0.791 0.033,-1.567 0.169,-2.255 0.049,-0.352 0.095,-0.69 0.139,-1.012 0.076,-0.316 0.148,-0.615 0.216,-0.897 0.137,-0.57 0.244,-1.086 0.416,-1.477 0.291,-0.807 0.441,-1.311 0.441,-1.311 0,0 -0.36,0.344 -0.961,1.018 -0.142,0.173 -0.331,0.351 -0.483,0.576 -0.154,0.222 -0.301,0.476 -0.469,0.746 -0.166,0.273 -0.343,0.564 -0.53,0.871 -0.145,0.323 -0.281,0.673 -0.432,1.038 -0.341,0.725 -0.534,1.552 -0.749,2.437 -0.132,0.444 -0.138,0.904 -0.214,1.374 -0.055,0.47 -0.129,0.958 -0.123,1.446 -0.032,0.981 -0.025,1.997 0.097,3.01 0.065,1.025 0.289,2.028 0.468,3.041 0.24,0.994 0.468,1.993 0.785,2.939 0.28,0.962 0.633,1.872 0.968,2.757 0.699,1.753 1.442,3.341 2.153,4.662 0.685,1.334 1.329,2.401 1.786,3.158 C -0.294,-0.419 0,0 0,0" />
          </g>
          <g
             transform="translate(177.5981,368.6953)"
             id="g5648">
            <path
               inkscape:connector-curvature="0"
               id="path5650"
               style="fill:#1d1d1b;fill-opacity:1;fill-rule:nonzero;stroke:none"
               d="m 0,0 c 0,0 0.023,-0.64 0.022,-1.755 -0.002,-1.112 -0.046,-2.709 -0.149,-4.601 -0.104,-1.883 -0.227,-4.08 -0.358,-6.434 -0.062,-1.169 -0.098,-2.377 -0.132,-3.596 -0.068,-1.222 -0.022,-2.454 -0.021,-3.688 0.059,-1.225 0.046,-2.462 0.201,-3.652 0.079,-0.594 0.085,-1.2 0.186,-1.775 0.087,-0.581 0.173,-1.154 0.258,-1.719 0.08,-0.567 0.262,-1.093 0.36,-1.635 0.115,-0.537 0.215,-1.069 0.398,-1.555 0.159,-0.498 0.315,-0.983 0.465,-1.45 0.139,-0.477 0.366,-0.893 0.534,-1.321 0.183,-0.42 0.347,-0.833 0.527,-1.213 0.204,-0.367 0.398,-0.716 0.58,-1.044 0.183,-0.333 0.354,-0.645 0.512,-0.933 0.171,-0.281 0.359,-0.517 0.513,-0.743 0.631,-0.899 0.988,-1.445 0.988,-1.445 0,0 -0.5,0.383 -1.369,1.109 -0.212,0.186 -0.465,0.379 -0.71,0.617 -0.225,0.256 -0.47,0.533 -0.73,0.829 -0.262,0.302 -0.539,0.622 -0.832,0.961 -0.27,0.355 -0.502,0.763 -0.773,1.174 -0.253,0.42 -0.57,0.838 -0.801,1.313 -0.224,0.483 -0.456,0.981 -0.694,1.493 -0.26,0.508 -0.435,1.059 -0.627,1.621 -0.188,0.56 -0.396,1.137 -0.535,1.734 -0.263,1.197 -0.594,2.435 -0.7,3.715 -0.193,1.275 -0.217,2.57 -0.302,3.868 0.027,1.292 0.013,2.588 0.112,3.849 0.047,1.267 0.228,2.497 0.359,3.689 0.14,1.19 0.347,2.329 0.535,3.407 0.191,1.076 0.398,2.09 0.61,3.019 C -0.753,-2.447 0,0 0,0" />
          </g>
          <g
             transform="translate(248.958,300.4883)"
             id="g5652">
            <path
               inkscape:connector-curvature="0"
               id="path5654"
               style="fill:#1d1d1b;fill-opacity:1;fill-rule:nonzero;stroke:none"
               d="m 0,0 c 0,0 0.361,-0.099 0.958,-0.321 0.597,-0.222 1.434,-0.557 2.397,-1.028 0.962,-0.472 2.058,-1.076 3.18,-1.742 0.555,-0.342 1.129,-0.695 1.711,-1.054 0.581,-0.353 1.152,-0.736 1.727,-1.116 0.575,-0.366 1.155,-0.721 1.71,-1.102 0.553,-0.388 1.116,-0.715 1.651,-1.061 0.543,-0.328 1.038,-0.727 1.548,-1.002 0.503,-0.298 0.976,-0.594 1.414,-0.879 0.432,-0.302 0.843,-0.545 1.215,-0.752 0.373,-0.206 0.692,-0.417 0.96,-0.585 0.534,-0.339 0.84,-0.571 0.84,-0.571 0,0 -0.365,-0.024 -1.006,-0.002 -0.319,0.014 -0.713,0.023 -1.159,0.069 -0.451,0.031 -0.96,0.08 -1.486,0.222 -0.533,0.125 -1.111,0.273 -1.721,0.445 -0.619,0.157 -1.207,0.444 -1.844,0.701 -0.627,0.272 -1.289,0.543 -1.895,0.911 -0.624,0.344 -1.245,0.718 -1.863,1.093 -0.588,0.409 -1.178,0.815 -1.742,1.239 -0.576,0.411 -1.097,0.856 -1.606,1.288 -1.021,0.865 -1.905,1.72 -2.643,2.492 C 1.613,-1.976 1.01,-1.303 0.612,-0.804 0.21,-0.311 0,0 0,0" />
          </g>
          <g
             transform="translate(286.334,343.4707)"
             id="g5656">
            <path
               inkscape:connector-curvature="0"
               id="path5658"
               style="fill:#1d1d1b;fill-opacity:1;fill-rule:nonzero;stroke:none"
               d="M 0,0 C 0,0 0.228,0.047 0.603,0.073 0.979,0.103 1.502,0.11 2.11,0.068 2.412,0.044 2.735,0.007 3.072,-0.047 3.407,-0.104 3.763,-0.242 4.125,-0.369 4.849,-0.638 5.612,-0.983 6.336,-1.385 7,-1.827 7.637,-2.314 8.196,-2.817 c 0.572,-0.49 1.021,-1.043 1.376,-1.551 0.353,-0.509 0.615,-0.967 0.78,-1.307 0.167,-0.336 0.238,-0.554 0.238,-0.554 0,0 -0.236,0.014 -0.607,0.084 -0.374,0.069 -0.88,0.193 -1.449,0.382 -0.283,0.098 -0.58,0.212 -0.885,0.344 -0.301,0.138 -0.635,0.251 -0.954,0.405 -0.648,0.295 -1.298,0.66 -1.92,1.069 -0.623,0.348 -1.217,0.738 -1.76,1.167 C 2.735,-2.572 2.5,-2.329 2.224,-2.131 1.947,-1.932 1.69,-1.73 1.458,-1.535 0.995,-1.137 0.626,-0.763 0.379,-0.477 0.129,-0.193 0,0 0,0" />
          </g>
          <g
             transform="translate(286.334,309.209)"
             id="g5660">
            <path
               inkscape:connector-curvature="0"
               id="path5662"
               style="fill:#1d1d1b;fill-opacity:1;fill-rule:nonzero;stroke:none"
               d="M 0,0 C 0,0 0.321,-0.125 0.841,-0.389 1.367,-0.636 2.077,-1.082 2.925,-1.522 3.341,-1.755 3.782,-2.014 4.234,-2.296 4.69,-2.576 5.196,-2.848 5.686,-3.16 6.183,-3.466 6.68,-3.801 7.207,-4.101 7.73,-4.408 8.245,-4.744 8.76,-5.077 c 0.524,-0.313 1.057,-0.609 1.563,-0.935 0.259,-0.152 0.505,-0.33 0.758,-0.476 0.256,-0.139 0.511,-0.274 0.756,-0.42 0.498,-0.276 0.966,-0.594 1.426,-0.849 0.465,-0.233 0.905,-0.47 1.315,-0.702 0.408,-0.237 0.783,-0.473 1.134,-0.611 0.35,-0.151 0.656,-0.316 0.913,-0.446 0.513,-0.263 0.817,-0.451 0.817,-0.451 0,0 -0.324,-0.074 -0.91,-0.137 -0.292,-0.031 -0.654,-0.074 -1.07,-0.086 -0.425,-0.043 -0.885,-0.008 -1.383,0.066 -0.501,0.065 -1.047,0.151 -1.625,0.259 -0.566,0.131 -1.134,0.338 -1.732,0.541 -0.6,0.204 -1.214,0.432 -1.784,0.753 -0.587,0.293 -1.173,0.614 -1.753,0.942 -0.548,0.373 -1.098,0.743 -1.622,1.132 -0.538,0.369 -1.014,0.799 -1.471,1.217 -0.927,0.811 -1.709,1.687 -2.326,2.473 -0.64,0.77 -1.033,1.484 -1.333,1.988 C 0.142,-0.313 0,0 0,0" />
          </g>
          <g
             transform="translate(290.0718,272.4561)"
             id="g5664">
            <path
               inkscape:connector-curvature="0"
               id="path5666"
               style="fill:#1d1d1b;fill-opacity:1;fill-rule:nonzero;stroke:none"
               d="m 0,0 c 0,0 0.23,-0.109 0.583,-0.336 0.173,-0.114 0.393,-0.248 0.613,-0.422 0.227,-0.169 0.483,-0.378 0.765,-0.515 0.274,-0.16 0.553,-0.331 0.826,-0.515 0.245,-0.201 0.616,-0.343 0.919,-0.538 0.322,-0.18 0.615,-0.408 0.973,-0.556 0.346,-0.161 0.673,-0.36 1.011,-0.542 0.356,-0.153 0.712,-0.305 1.053,-0.485 0.334,-0.195 0.71,-0.294 1.049,-0.459 0.348,-0.144 0.674,-0.339 1.013,-0.447 0.332,-0.13 0.65,-0.269 0.946,-0.409 0.593,-0.293 1.122,-0.472 1.492,-0.678 0.372,-0.186 0.593,-0.327 0.593,-0.327 0,0 -0.218,-0.121 -0.613,-0.27 C 11.026,-6.57 10.782,-6.666 10.501,-6.739 10.219,-6.821 9.896,-6.925 9.542,-6.949 9.188,-6.989 8.8,-7.02 8.387,-7.035 7.971,-7.068 7.542,-6.996 7.092,-6.935 6.648,-6.853 6.169,-6.824 5.724,-6.636 5.267,-6.482 4.812,-6.295 4.358,-6.11 3.93,-5.866 3.509,-5.603 3.109,-5.328 2.691,-5.081 2.363,-4.716 2.038,-4.389 1.721,-4.045 1.403,-3.76 1.179,-3.361 0.942,-2.989 0.741,-2.633 0.571,-2.306 0.379,-1.98 0.319,-1.672 0.249,-1.396 0.171,-1.125 0.13,-0.871 0.09,-0.667 0.015,-0.255 0,0 0,0" />
          </g>
          <g
             transform="translate(331.1855,261.2432)"
             id="g5668">
            <path
               inkscape:connector-curvature="0"
               id="path5670"
               style="fill:#1d1d1b;fill-opacity:1;fill-rule:nonzero;stroke:none"
               d="m 0,0 c 0,0 0.242,0.108 0.66,0.236 0.41,0.147 1.032,0.253 1.703,0.442 0.337,0.084 0.696,0.163 1.07,0.231 0.37,0.052 0.773,0.172 1.178,0.234 0.407,0.079 0.829,0.12 1.248,0.212 0.421,0.085 0.849,0.142 1.278,0.201 0.424,0.076 0.846,0.162 1.27,0.213 0.426,0.046 0.832,0.135 1.237,0.196 0.4,0.074 0.813,0.083 1.182,0.164 0.375,0.064 0.739,0.113 1.084,0.15 0.7,0.05 1.267,0.175 1.711,0.187 0.433,0.033 0.706,0.025 0.706,0.025 0,0 -0.14,-0.218 -0.427,-0.553 C 13.755,1.773 13.581,1.564 13.36,1.354 13.145,1.131 12.895,0.887 12.589,0.679 12.29,0.46 11.956,0.232 11.591,0.004 11.231,-0.236 10.816,-0.396 10.392,-0.589 9.964,-0.768 9.521,-0.968 9.046,-1.07 8.579,-1.2 8.095,-1.304 7.612,-1.405 7.122,-1.457 6.632,-1.512 6.149,-1.536 5.667,-1.584 5.19,-1.538 4.732,-1.507 4.271,-1.465 3.838,-1.442 3.414,-1.341 2.993,-1.251 2.601,-1.151 2.244,-1.049 1.527,-0.848 1.003,-0.55 0.605,-0.354 0.218,-0.151 0,0 0,0" />
          </g>
          <g
             transform="translate(386.001,351.5693)"
             id="g5672">
            <path
               inkscape:connector-curvature="0"
               id="path5674"
               style="fill:#1d1d1b;fill-opacity:1;fill-rule:nonzero;stroke:none"
               d="M 0,0 C 0,0 0.145,-0.226 0.338,-0.625 0.434,-0.823 0.558,-1.061 0.627,-1.374 0.708,-1.678 0.83,-2.051 0.859,-2.433 0.97,-3.209 0.95,-4.146 0.728,-5.119 0.614,-5.602 0.461,-6.1 0.247,-6.576 0.136,-6.812 0.033,-7.057 -0.091,-7.291 l -0.413,-0.678 c -0.302,-0.434 -0.62,-0.86 -0.983,-1.228 -0.348,-0.383 -0.736,-0.713 -1.126,-1.007 -0.782,-0.586 -1.592,-1.004 -2.326,-1.248 -0.362,-0.13 -0.706,-0.216 -1.018,-0.269 -0.302,-0.068 -0.575,-0.1 -0.803,-0.11 -0.453,-0.027 -0.715,-0.005 -0.715,-0.005 0,0 0.163,0.221 0.453,0.542 0.286,0.33 0.691,0.772 1.134,1.299 0.454,0.51 0.945,1.103 1.445,1.722 0.117,0.162 0.247,0.314 0.375,0.47 0.117,0.165 0.235,0.331 0.363,0.491 0.241,0.328 0.482,0.661 0.703,1.003 0.236,0.335 0.444,0.684 0.649,1.03 0.205,0.344 0.394,0.693 0.577,1.036 0.357,0.689 0.665,1.371 0.915,1.994 0.146,0.314 0.235,0.59 0.347,0.857 0.104,0.258 0.196,0.519 0.26,0.729 C -0.114,-0.242 0,0 0,0" />
          </g>
          <g
             transform="translate(397.8369,329.7656)"
             id="g5676">
            <path
               inkscape:connector-curvature="0"
               id="path5678"
               style="fill:#1d1d1b;fill-opacity:1;fill-rule:nonzero;stroke:none"
               d="m 0,0 c 0,0 0.074,-0.36 0.145,-0.982 0.05,-0.305 0.023,-0.701 0,-1.157 -0.009,-0.472 -0.103,-0.956 -0.204,-1.506 -0.102,-0.547 -0.296,-1.108 -0.49,-1.715 -0.244,-0.576 -0.473,-1.214 -0.815,-1.805 -0.312,-0.614 -0.685,-1.216 -1.095,-1.804 -0.402,-0.595 -0.868,-1.155 -1.338,-1.709 -0.493,-0.533 -0.984,-1.068 -1.527,-1.534 -0.513,-0.496 -1.087,-0.909 -1.625,-1.32 -0.562,-0.385 -1.108,-0.749 -1.657,-1.047 -0.553,-0.293 -1.071,-0.567 -1.584,-0.761 -0.501,-0.212 -0.974,-0.373 -1.408,-0.482 -0.422,-0.127 -0.795,-0.216 -1.115,-0.258 -0.631,-0.099 -0.992,-0.116 -0.992,-0.116 0,0 0.269,0.263 0.74,0.657 0.24,0.184 0.504,0.458 0.822,0.726 0.318,0.268 0.655,0.598 1.026,0.944 0.379,0.328 0.761,0.724 1.176,1.113 0.416,0.389 0.829,0.829 1.272,1.254 0.858,0.89 1.767,1.828 2.626,2.811 0.433,0.486 0.856,0.982 1.266,1.474 0.196,0.252 0.4,0.495 0.605,0.736 0.192,0.248 0.38,0.493 0.567,0.734 0.392,0.475 0.704,0.968 1.055,1.416 0.299,0.468 0.632,0.901 0.883,1.325 0.247,0.423 0.536,0.812 0.708,1.162 0.176,0.36 0.406,0.657 0.517,0.954 C -0.183,-0.32 0,0 0,0" />
          </g>
          <g
             transform="translate(438.1475,394.626)"
             id="g5680">
            <path
               inkscape:connector-curvature="0"
               id="path5682"
               style="fill:#1d1d1b;fill-opacity:1;fill-rule:nonzero;stroke:none"
               d="m 0,0 c 0,0 0.442,-0.33 1.195,-0.931 0.379,-0.293 0.767,-0.752 1.244,-1.251 0.491,-0.5 0.9,-1.14 1.409,-1.821 0.441,-0.711 0.943,-1.484 1.356,-2.354 0.419,-0.869 0.864,-1.789 1.193,-2.786 0.386,-0.981 0.67,-2.026 0.969,-3.088 0.222,-1.078 0.507,-2.164 0.656,-3.27 0.177,-1.103 0.277,-2.216 0.362,-3.311 0.097,-1.092 0.068,-2.176 0.074,-3.219 -0.04,-1.044 -0.069,-2.052 -0.199,-3.002 -0.055,-0.475 -0.109,-0.937 -0.16,-1.383 -0.082,-0.442 -0.162,-0.87 -0.239,-1.28 -0.081,-0.409 -0.143,-0.802 -0.231,-1.171 -0.102,-0.366 -0.196,-0.714 -0.286,-1.041 -0.17,-0.654 -0.344,-1.215 -0.526,-1.666 -0.34,-0.908 -0.551,-1.414 -0.551,-1.414 0,0 0.049,0.555 0.164,1.504 0.075,0.469 0.106,1.05 0.159,1.711 0.061,0.658 0.109,1.399 0.131,2.211 0.047,0.807 0.049,1.682 0.048,2.607 0.028,0.923 -0.063,1.896 -0.071,2.899 -0.056,1.004 -0.143,2.038 -0.238,3.086 -0.104,1.049 -0.224,2.111 -0.412,3.162 -0.119,1.064 -0.371,2.101 -0.559,3.135 -0.277,1.009 -0.44,2.037 -0.759,2.983 C 4.46,-8.727 4.151,-7.815 3.841,-6.953 3.525,-6.094 3.168,-5.307 2.854,-4.567 2.467,-3.879 2.187,-3.171 1.831,-2.64 1.471,-2.106 1.222,-1.583 0.914,-1.209 0.324,-0.448 0,0 0,0" />
          </g>
          <g
             transform="translate(456.9258,373.5498)"
             id="g5684">
            <path
               inkscape:connector-curvature="0"
               id="path5686"
               style="fill:#1d1d1b;fill-opacity:1;fill-rule:nonzero;stroke:none"
               d="m 0,0 c 0,0 0.085,-0.104 0.244,-0.3 0.148,-0.203 0.416,-0.465 0.663,-0.866 0.198,-0.423 0.551,-0.946 0.749,-1.586 0.217,-0.634 0.47,-1.361 0.586,-2.178 0.19,-0.813 0.241,-1.701 0.316,-2.645 0.004,-0.937 0.071,-1.942 -0.04,-2.956 -0.066,-1.024 -0.165,-2.075 -0.348,-3.132 -0.162,-1.06 -0.4,-2.119 -0.627,-3.182 -0.288,-1.046 -0.55,-2.099 -0.891,-3.109 -0.298,-1.025 -0.692,-1.999 -1.059,-2.943 -0.341,-0.956 -0.789,-1.832 -1.168,-2.678 -0.381,-0.846 -0.821,-1.61 -1.198,-2.324 -0.378,-0.714 -0.792,-1.335 -1.134,-1.895 -0.332,-0.564 -0.678,-1.025 -0.952,-1.409 -0.553,-0.765 -0.883,-1.188 -0.883,-1.188 0,0 0.185,0.51 0.534,1.378 0.177,0.434 0.394,0.955 0.619,1.566 0.23,0.603 0.489,1.285 0.773,2.029 0.266,0.746 0.554,1.555 0.86,2.41 0.277,0.864 0.605,1.759 0.891,2.703 0.147,0.47 0.296,0.949 0.448,1.432 0.138,0.487 0.279,0.979 0.421,1.477 0.31,0.985 0.536,2.008 0.796,3.022 0.24,1.017 0.493,2.034 0.671,3.045 0.083,0.507 0.181,1.006 0.282,1.5 0.073,0.497 0.145,0.987 0.217,1.471 0.154,0.966 0.207,1.901 0.3,2.793 0.011,0.884 0.096,1.735 0.036,2.504 C 1.104,-4.277 1.004,-3.581 0.921,-2.95 0.843,-2.319 0.657,-1.825 0.564,-1.364 0.412,-0.927 0.243,-0.59 0.151,-0.356 0.053,-0.124 0,0 0,0" />
          </g>
          <g
             transform="translate(376.6567,294.2588)"
             id="g5688">
            <path
               inkscape:connector-curvature="0"
               id="path5690"
               style="fill:#1d1d1b;fill-opacity:1;fill-rule:nonzero;stroke:none"
               d="m 0,0 c 0,0 -0.021,-0.252 -0.109,-0.658 -0.103,-0.408 -0.195,-0.969 -0.507,-1.609 -0.29,-0.647 -0.697,-1.385 -1.23,-2.057 -0.505,-0.712 -1.184,-1.341 -1.871,-1.954 -0.37,-0.276 -0.738,-0.554 -1.117,-0.803 -0.365,-0.27 -0.78,-0.453 -1.163,-0.651 -0.391,-0.187 -0.761,-0.374 -1.147,-0.49 -0.381,-0.124 -0.744,-0.227 -1.082,-0.311 -0.675,-0.171 -1.286,-0.185 -1.699,-0.204 -0.417,-0.012 -0.664,0.016 -0.664,0.016 0,0 0.146,0.214 0.416,0.527 0.262,0.328 0.672,0.705 1.124,1.192 0.229,0.236 0.481,0.48 0.751,0.722 0.279,0.229 0.54,0.517 0.836,0.768 0.293,0.251 0.595,0.511 0.903,0.776 0.299,0.272 0.621,0.522 0.94,0.777 0.319,0.255 0.62,0.529 0.946,0.77 0.326,0.239 0.632,0.491 0.939,0.729 0.301,0.24 0.632,0.45 0.913,0.664 0.281,0.212 0.563,0.408 0.835,0.586 0.561,0.33 1.029,0.71 1.395,0.899 C -0.232,-0.1 0,0 0,0" />
          </g>
          <g
             transform="translate(361.7075,304.2256)"
             id="g5692">
            <path
               inkscape:connector-curvature="0"
               id="path5694"
               style="fill:#1d1d1b;fill-opacity:1;fill-rule:nonzero;stroke:none"
               d="m 0,0 c 0,0 -0.277,-0.255 -0.785,-0.645 -0.511,-0.39 -1.236,-0.927 -2.16,-1.494 -0.928,-0.56 -2.022,-1.19 -3.267,-1.728 -0.622,-0.27 -1.251,-0.574 -1.938,-0.789 -0.677,-0.239 -1.374,-0.451 -2.069,-0.668 -0.715,-0.165 -1.434,-0.322 -2.144,-0.451 -0.703,-0.163 -1.427,-0.189 -2.113,-0.245 -0.691,-0.036 -1.351,-0.106 -1.989,-0.042 -0.635,0.04 -1.231,0.092 -1.778,0.152 -0.547,0.04 -1.044,0.178 -1.481,0.287 -0.436,0.101 -0.813,0.22 -1.121,0.311 -0.615,0.187 -0.957,0.329 -0.957,0.329 0,0 0.365,0.119 0.985,0.267 0.31,0.072 0.683,0.167 1.107,0.241 0.424,0.084 0.898,0.161 1.408,0.303 0.512,0.124 1.061,0.246 1.638,0.359 0.579,0.084 1.176,0.292 1.797,0.425 0.62,0.155 1.263,0.265 1.908,0.461 0.643,0.185 1.304,0.333 1.962,0.5 0.659,0.189 1.315,0.38 1.971,0.541 0.655,0.153 1.297,0.365 1.929,0.52 1.264,0.311 2.455,0.627 3.504,0.832 1.05,0.204 1.947,0.366 2.582,0.438 C -0.376,-0.015 0,0 0,0" />
          </g>
          <g
             transform="translate(369.8057,327.2744)"
             id="g5696">
            <path
               inkscape:connector-curvature="0"
               id="path5698"
               style="fill:#1d1d1b;fill-opacity:1;fill-rule:nonzero;stroke:none"
               d="m 0,0 c 0,0 -0.09,-0.233 -0.283,-0.595 -0.204,-0.36 -0.46,-0.863 -0.905,-1.39 -0.453,-0.516 -1.022,-1.14 -1.717,-1.624 -0.348,-0.249 -0.699,-0.528 -1.097,-0.736 -0.396,-0.218 -0.811,-0.414 -1.225,-0.611 -0.422,-0.182 -0.868,-0.312 -1.303,-0.44 -0.429,-0.143 -0.871,-0.225 -1.306,-0.27 -0.433,-0.052 -0.848,-0.1 -1.247,-0.101 -0.403,0.016 -0.782,0.046 -1.128,0.086 -0.69,0.06 -1.264,0.296 -1.649,0.43 -0.387,0.147 -0.598,0.268 -0.598,0.268 0,0 0.215,0.142 0.576,0.329 0.359,0.208 0.865,0.383 1.436,0.696 0.288,0.139 0.596,0.276 0.919,0.406 0.321,0.141 0.652,0.316 0.997,0.455 0.171,0.077 0.349,0.141 0.527,0.208 0.172,0.088 0.348,0.171 0.528,0.245 0.352,0.171 0.73,0.282 1.088,0.454 0.364,0.158 0.726,0.319 1.097,0.451 0.369,0.135 0.717,0.31 1.078,0.437 0.354,0.139 0.717,0.248 1.034,0.382 0.327,0.124 0.65,0.231 0.958,0.324 0.624,0.181 1.173,0.39 1.574,0.47 C -0.249,-0.028 0,0 0,0" />
          </g>
          <g
             transform="translate(336.1685,319.1758)"
             id="g5700">
            <path
               inkscape:connector-curvature="0"
               id="path5702"
               style="fill:#1d1d1b;fill-opacity:1;fill-rule:nonzero;stroke:none"
               d="M 0,0 C 0,0 -0.203,-0.175 -0.571,-0.421 -0.951,-0.657 -1.445,-1.019 -2.149,-1.291 -2.5,-1.43 -2.886,-1.569 -3.304,-1.701 -3.728,-1.845 -4.15,-1.917 -4.606,-2.008 -5.057,-2.091 -5.531,-2.18 -6.003,-2.204 -6.479,-2.246 -6.962,-2.26 -7.446,-2.277 c -0.955,0.016 -1.917,0.077 -2.791,0.218 -0.885,0.135 -1.694,0.322 -2.39,0.53 -0.697,0.217 -1.271,0.42 -1.681,0.6 -0.407,0.173 -0.642,0.307 -0.642,0.307 0,0 0.234,0.128 0.647,0.29 0.411,0.163 1.01,0.373 1.72,0.541 1.429,0.347 3.304,0.524 5.135,0.513 C -6.994,0.723 -6.539,0.726 -6.09,0.7 -5.639,0.674 -5.207,0.671 -4.78,0.639 -4.36,0.621 -3.928,0.551 -3.554,0.534 -3.172,0.505 -2.803,0.462 -2.456,0.412 -1.76,0.292 -1.121,0.262 -0.691,0.161 -0.255,0.08 0,0 0,0" />
          </g>
          <g
             transform="translate(330.5625,281.1768)"
             id="g5704">
            <path
               inkscape:connector-curvature="0"
               id="path5706"
               style="fill:#1d1d1b;fill-opacity:1;fill-rule:nonzero;stroke:none"
               d="m 0,0 c 0,0 -0.327,-0.098 -0.895,-0.209 -0.566,-0.114 -1.373,-0.24 -2.334,-0.338 -0.961,-0.095 -2.076,-0.146 -3.276,-0.108 -1.199,0.032 -2.473,0.119 -3.74,0.272 -1.267,0.211 -2.527,0.474 -3.694,0.778 -0.582,0.161 -1.145,0.289 -1.668,0.502 -0.523,0.209 -1.012,0.419 -1.458,0.624 -0.892,0.416 -1.613,0.804 -2.106,1.101 -0.495,0.293 -0.763,0.493 -0.763,0.493 0,0 0.346,0.051 0.925,0.081 0.58,0.035 1.393,0.05 2.342,0.017 0.473,-0.021 0.98,-0.054 1.512,-0.103 0.528,-0.058 1.11,-0.046 1.691,-0.097 1.17,-0.08 2.402,-0.227 3.627,-0.425 C -8.598,2.431 -7.363,2.23 -6.209,1.981 -5.061,1.727 -3.978,1.452 -3.054,1.175 -2.131,0.89 -1.366,0.606 -0.834,0.382 -0.301,0.161 0,0 0,0" />
          </g>
          <g
             transform="translate(331.8076,350.3232)"
             id="g5708">
            <path
               inkscape:connector-curvature="0"
               id="path5710"
               style="fill:#1d1d1b;fill-opacity:1;fill-rule:nonzero;stroke:none"
               d="M 0,0 C 0,0 0.279,0.095 0.759,0.199 1.24,0.308 1.922,0.425 2.733,0.512 4.354,0.696 6.49,0.622 8.592,0.32 c 1.033,-0.126 2.059,-0.301 3.019,-0.527 0.478,-0.102 0.943,-0.256 1.38,-0.346 0.436,-0.099 0.85,-0.209 1.234,-0.32 0.767,-0.23 1.414,-0.469 1.871,-0.662 0.457,-0.191 0.722,-0.334 0.722,-0.334 0,0 -0.263,-0.118 -0.731,-0.263 -0.468,-0.149 -1.142,-0.324 -1.961,-0.476 -0.409,-0.074 -0.853,-0.14 -1.325,-0.196 -0.473,-0.06 -0.957,-0.047 -1.465,-0.05 -1.01,0.009 -2.087,0.08 -3.156,0.204 C 6.092,-2.348 4.043,-1.78 2.513,-1.204 1.751,-0.91 1.121,-0.619 0.684,-0.39 0.246,-0.163 0,0 0,0" />
          </g>
          <g
             transform="translate(239.6138,328.5205)"
             id="g5712">
            <path
               inkscape:connector-curvature="0"
               id="path5714"
               style="fill:#1d1d1b;fill-opacity:1;fill-rule:nonzero;stroke:none"
               d="m 0,0 c 0,0 0.185,-0.119 0.451,-0.349 0.277,-0.213 0.605,-0.599 1.004,-0.963 0.194,-0.183 0.389,-0.381 0.578,-0.592 0.174,-0.213 0.407,-0.43 0.606,-0.665 0.213,-0.228 0.385,-0.491 0.603,-0.726 0.214,-0.238 0.405,-0.496 0.599,-0.752 0.189,-0.26 0.408,-0.494 0.586,-0.76 0.182,-0.262 0.367,-0.515 0.552,-0.76 0.344,-0.516 0.679,-1 0.958,-1.457 0.257,-0.485 0.521,-0.853 0.673,-1.177 0.161,-0.31 0.243,-0.521 0.243,-0.521 0,0 -0.213,-0.015 -0.567,0.02 -0.348,0.041 -0.875,0.088 -1.417,0.305 -0.557,0.198 -1.182,0.497 -1.761,0.937 -0.3,0.208 -0.599,0.439 -0.856,0.72 -0.27,0.267 -0.536,0.551 -0.778,0.851 -0.22,0.318 -0.442,0.634 -0.636,0.961 -0.211,0.315 -0.338,0.675 -0.481,1.006 -0.135,0.338 -0.261,0.655 -0.331,1.001 -0.076,0.336 -0.131,0.655 -0.17,0.948 -0.075,0.587 0.006,1.058 0.04,1.412 C -0.058,-0.212 0,0 0,0" />
          </g>
        </g>
      </g>
    </g>
  </g>
</svg>
