<?xml version="1.0" encoding="UTF-8"?>
<svg width="74.417mm" height="85.823mm" version="1.1" viewBox="0 0 74.417 85.823" xmlns="http://www.w3.org/2000/svg" xmlns:xlink="http://www.w3.org/1999/xlink"><defs><filter id="p-1" x="-.108" y="-.108" width="1.216" height="1.216"><feGaussianBlur stdDeviation=".945"/></filter><filter id="o-6" x="-.25444" y="-.06855" width="1.5089" height="1.1371"><feGaussianBlur stdDeviation="3.0282"/></filter><filter id="n-7" x="-.09481" y="-.12546" width="1.1896" height="1.2509"><feGaussianBlur stdDeviation="2.8619"/></filter><linearGradient id="a-23"><stop stop-color="#f6e79c" offset="0"/><stop stop-color="#c69435" offset="1"/></linearGradient><linearGradient id="j-2" x1="286.11" x2="607.39" y1="612.44" y2="260.44" gradientTransform="matrix(.26458 0 0 .26458 -123.91 -19.183)" gradientUnits="userSpaceOnUse"><stop stop-color="#c69435" offset="0"/><stop stop-color="#fff7b1" offset="1"/></linearGradient><linearGradient id="i-98" x1="133.38" x2="258.4" y1="248.18" y2="184.01" gradientUnits="userSpaceOnUse" xlink:href="#a-23"/><linearGradient id="h-91" x1="538.77" x2="396.19" y1="577.33" y2="398.36" gradientTransform="matrix(-1,0,0,1,570.65,-277.41)" gradientUnits="userSpaceOnUse" xlink:href="#a-23"/><linearGradient id="g-4" x1="301.08" x2="474.61" y1="363.9" y2="465.46" gradientTransform="matrix(1,0,0,-1,3.34e-4,980.95)" gradientUnits="userSpaceOnUse" xlink:href="#a-23"/><linearGradient id="f-6" x1="253.03" x2="286.7" y1="226.35" y2="88.608" gradientUnits="userSpaceOnUse" xlink:href="#a-23"/><radialGradient id="d-9" cx="188" cy="205.59" r="10.5" gradientTransform="matrix(1.7167,4.5224e-7,-4.5139e-7,1.7134,-133.85,-147.65)" gradientUnits="userSpaceOnUse"><stop stop-color="#f6e79d" offset="0"/><stop stop-color="#c69435" offset="1"/></radialGradient><radialGradient id="c-7" cx="445.75" cy="424.43" r="121.77" gradientTransform="matrix(1,0,0,1.1665,0,-81.659)" gradientUnits="userSpaceOnUse"><stop stop-color="#e6e6e6" offset="0"/><stop stop-color="#c6cccc" offset="1"/></radialGradient></defs><g transform="translate(-90.547 -86.266)"><g transform="translate(149.6 18.599)"><path d="m-56.784 70.286s22.536-2.6187 34.938-2.6187 34.938 2.6187 34.938 2.6187 2.2707 25.989 2.2707 40.293-2.2707 40.293-2.2707 40.293-22.536 2.6187-34.938 2.6187-34.938-2.6187-34.938-2.6187-2.2707-25.989-2.2707-40.293 2.2707-40.293 2.2707-40.293z" style="fill:url(#j-2);stroke-width:.26458"/><g transform="matrix(.26458 0 0 .26458 -123.91 -19.193)"><path transform="translate(200.85,277.41)" d="m308.04 69.401s8.0026 92.64 8.0026 143.63-8.0026 143.63-8.0026 143.63c-70.043-81.462-122.27-143.63-122.27-143.63s50.348-60.368 122.27-143.63z" style="fill:url(#i-98)"/><path transform="translate(200.85,277.41)" d="m61.767 69.401s-8.0026 92.64-8.0026 143.63 8.0026 143.63 8.0026 143.63c70.043-81.462 122.27-143.63 122.27-143.63s-50.348-60.368-122.27-143.63z" style="fill:url(#h-91)"/><path d="m262.62 634.14s79.422 9.3344 123.13 9.3344 123.13-9.3344 123.13-9.3344c-78.478-93.655-123.13-144.59-123.13-144.59s-41.741 47.545-123.13 144.59z" style="fill:url(#g-4)"/><path transform="translate(200.85,277.41)" d="m61.767 69.401s79.422-9.3344 123.13-9.3344 123.13 9.3344 123.13 9.3344c-78.478 93.655-123.13 144.59-123.13 144.59s-41.741-47.545-123.13-144.59z" style="fill:url(#f-6)"/></g><g transform="matrix(.26458 0 0 .26458 -123.91 -19.183)"><path d="m271.41 357.06s73.748-8.6682 114.34-8.6682 114.34 8.6682 114.34 8.6682 7.4309 86.028 7.4309 133.38-7.4309 133.38-7.4309 133.38-73.748 8.6682-114.34 8.6682-114.34-8.6682-114.34-8.6682-7.4309-86.028-7.4309-133.38 7.4309-133.38 7.4309-133.38z" style="fill:url(#c-7)"/><g font-size="41.77" letter-spacing="0" word-spacing="0"><path d="m378.07 391.25 4.7522 0.4895v1.754h-15.378v-1.754l4.7318-0.4895v-20.62l-4.7114 1.5501v-1.7336l7.7096-4.5279h2.8962v25.332"/><path d="m404.07 393.49h-17.336v-3.8548c1.1694-1.2509 2.2503-2.3659 3.2429-3.3449 0.99258-0.99259 1.89-1.9104 2.6922-2.7534 0.81583-0.85661 1.5365-1.6656 2.162-2.4271 0.62546-0.77502 1.1422-1.5704 1.5501-2.3863 0.4215-0.82941 0.74104-1.7132 0.9586-2.6514s0.32632-2.0056 0.32633-3.2021c-1e-5 -0.82941-0.10879-1.55-0.32633-2.162-0.21756-0.62545-0.5099-1.1421-0.87701-1.5501-0.35354-0.42148-0.76826-0.73422-1.2442-0.9382s-0.979-0.30591-1.5093-0.30594c-0.84303 3e-5 -1.5161 0.0884-2.0192 0.26515s-0.96541 0.44193-1.3869 0.79543l-0.87702 3.9568h-1.7744v-6.2207c1.0878-0.24472 2.1484-0.44868 3.1817-0.61187 1.047-0.17674 2.1823-0.26512 3.4061-0.26514 3.005 2e-5 5.3029 0.61869 6.8938 1.856 1.6044 1.2374 2.4067 2.9982 2.4067 5.2825-2e-5 1.0878-0.12919 2.0736-0.38752 2.9574-0.25836 0.87024-0.63908 1.6929-1.1422 2.4679-0.48951 0.77505-1.1014 1.5297-1.8356 2.2639s-1.5841 1.5093-2.5495 2.3251c-0.95181 0.81584-2.0124 1.6997-3.1817 2.6514s-2.4339 2.0328-3.7936 3.2429h13.42v4.6094"/><path d="m447.67 396.99 4.7522 0.4895v1.754h-15.378v-1.754l4.7318-0.4895v-20.62l-4.7114 1.5501v-1.7336l7.7096-4.5279h2.8962v25.332"/><path d="m487.02 441.42h-17.336v-3.8548c1.1694-1.2509 2.2503-2.3659 3.2429-3.3449 0.99259-0.99259 1.89-1.9104 2.6922-2.7534 0.81582-0.85661 1.5365-1.6656 2.162-2.4271 0.62546-0.77503 1.1422-1.5705 1.5501-2.3863 0.4215-0.82941 0.74103-1.7132 0.9586-2.6514s0.32632-2.0056 0.32633-3.2021c-1e-5 -0.8294-0.10879-1.55-0.32633-2.162-0.21757-0.62544-0.50991-1.1421-0.87702-1.5501-0.35354-0.42148-0.76825-0.73422-1.2441-0.9382s-0.97901-0.30591-1.5093-0.30594c-0.84303 3e-5 -1.5161 0.0884-2.0192 0.26515s-0.9654 0.44193-1.3869 0.79543l-0.87702 3.9568h-1.7744v-6.2207c1.0878-0.24472 2.1484-0.44867 3.1817-0.61187 1.047-0.17673 2.1823-0.26512 3.4061-0.26514 3.005 2e-5 5.3029 0.6187 6.8938 1.856 1.6044 1.2374 2.4067 2.9982 2.4067 5.2825-1e-5 1.0878-0.12919 2.0736-0.38751 2.9574-0.25837 0.87023-0.63909 1.6929-1.1422 2.4679-0.48951 0.77505-1.1014 1.5297-1.8356 2.2639s-1.5841 1.5093-2.5495 2.3251c-0.95182 0.81584-2.0124 1.6996-3.1817 2.6514s-2.4339 2.0328-3.7936 3.2429h13.42v4.6094"/><path d="m491.23 496.61c-2e-5 1.2374-0.22437 2.3455-0.67306 3.3245-0.44872 0.9654-1.1082 1.788-1.9784 2.4679-0.85663 0.66626-1.9104 1.1762-3.1613 1.5297s-2.6786 0.53029-4.2831 0.53029c-1.3869 0-2.7262-0.0816-4.018-0.24475-1.2917-0.14957-2.4679-0.33993-3.5285-0.57108l-0.24474-6.6286h1.8764l1.0606 4.3851c0.43511 0.24475 0.9722 0.4759 1.6113 0.69345 0.65266 0.20396 1.3529 0.30594 2.1008 0.30594 0.89741 0 1.6724-0.14957 2.3251-0.44871s1.1965-0.71385 1.6317-1.2441 0.75463-1.1626 0.9586-1.8968c0.21754-0.73425 0.32632-1.5365 0.32633-2.4067-1e-5 -0.97899-0.12239-1.7948-0.36712-2.4475-0.24477-0.66625-0.5779-1.1965-0.9994-1.5909-0.42152-0.40791-0.92461-0.70024-1.5093-0.87702-0.57109-0.19035-1.183-0.30592-1.8356-0.34673l-2.3659-0.14277v-2.4679l2.2843-0.16317c1.2101-0.0816 2.1008-0.52347 2.6718-1.3257 0.58467-0.81582 0.87701-2.0396 0.87702-3.6712-1e-5 -0.82941-0.10199-1.55-0.30594-2.162-0.19037-0.61185-0.46231-1.1217-0.81583-1.5297-0.33994-0.40789-0.75465-0.70703-1.2441-0.89741-0.48951-0.20394-1.0198-0.30592-1.5909-0.30594-0.73425 2e-5 -1.3393 0.1156-1.8152 0.34673-0.46231 0.21758-0.90422 0.45553-1.3257 0.71385l-0.87702 3.9568h-1.7744v-6.2207c0.48949-0.12235 0.97899-0.23792 1.4685-0.34673s0.99939-0.19713 1.5297-0.26514c0.53029-0.0816 1.0878-0.14275 1.6725-0.18356 0.58467-0.0544 1.2169-0.0816 1.8968-0.0816 3.005 3e-5 5.2893 0.55071 6.853 1.6521s2.3455 2.7942 2.3455 5.0785c-2e-5 0.85664-0.1156 1.6589-0.34673 2.4067-0.21757 0.73427-0.5575 1.3869-1.0198 1.958s-1.0538 1.0538-1.7744 1.4481c-0.70707 0.38074-1.5501 0.64588-2.5291 0.79544 2.3387 0.28555 4.0723 0.9994 5.2009 2.1416s1.6928 2.7194 1.6928 4.7318"/><path d="m484.03 561.64v5.4049h-5.4864v-5.4049h-11.32v-3.3245l12.319-18.764h4.4871v17.907h2.733v4.1811h-2.733m-5.4864-12.278c-2e-5 -0.3535 7e-3 -0.72743 0.0204-1.1218l0.0408-1.1626c0.0272-0.3943 0.0476-0.76142 0.0612-1.1014 0.0272-0.35351 0.0544-0.66624 0.0816-0.93821l-8.1379 12.421h7.934v-8.0971"/><path d="m444.01 591.04c1.5637 2e-5 2.937 0.15638 4.1199 0.4691 1.1965 0.31275 2.1959 0.79545 2.9982 1.4481s1.4073 1.4889 1.8152 2.5087c0.42149 1.0062 0.63225 2.2096 0.63227 3.61-2e-5 1.2917-0.19718 2.4611-0.59148 3.5081s-0.99941 1.9444-1.8152 2.6922-1.8492 1.3257-3.1002 1.7336c-1.2374 0.40792-2.699 0.61188-4.3851 0.61188-1.3869 0-2.7262-0.0816-4.018-0.24475-1.2917-0.14957-2.4679-0.33993-3.5285-0.57108l-0.24475-6.6286h1.8764l1.0606 4.3851c0.21755 0.12238 0.48269 0.24476 0.79543 0.36713s0.64586 0.23115 0.99939 0.32633c0.36712 0.0816 0.74104 0.15637 1.1218 0.22435 0.39431 0.0544 0.77503 0.0816 1.1422 0.0816 0.85661 0 1.5773-0.14957 2.162-0.44871 0.59827-0.31273 1.081-0.74104 1.4481-1.2849 0.38071-0.55748 0.65265-1.217 0.81583-1.9784 0.17675-0.77503 0.26513-1.6316 0.26515-2.5699-2e-5 -1.0198-0.0884-1.9172-0.26515-2.6922s-0.46232-1.4209-0.85662-1.9376-0.91102-0.9042-1.5501-1.1626c-0.62548-0.25833-1.4005-0.38751-2.3251-0.38752-0.40793 1e-5 -0.77505 0.0272-1.1014 0.0816-0.31275 0.0408-0.59829 0.102-0.85663 0.18357-0.24475 0.0816-0.4759 0.16997-0.69345 0.26514-0.21755 0.0952-0.42832 0.18358-0.63227 0.26514h-2.0396v-14.032h14.277v4.5482h-12.013v7.1793c0.24475-0.0544 0.50989-0.10876 0.79544-0.16316 0.28553-0.068 0.60506-0.12916 0.9586-0.18356 0.36711-0.0544 0.77503-0.10197 1.2237-0.14277s0.9518-0.0612 1.5093-0.0612"/><path d="m394.87 606.34c-2e-5 1.4141-0.18358 2.6718-0.55068 3.7732s-0.91783 2.0328-1.6521 2.7942c-0.72067 0.76144-1.6113 1.3393-2.6718 1.7336s-2.2843 0.59148-3.6712 0.59148c-1.5229 0-2.8894-0.29234-4.0996-0.87702-1.1966-0.58468-2.2095-1.4549-3.039-2.6107-0.82943-1.1694-1.4617-2.6174-1.8968-4.3443-0.43511-1.7404-0.65266-3.7664-0.65266-6.0779 0-2.4747 0.28554-4.6026 0.85662-6.3839 0.58467-1.7812 1.3597-3.2497 2.3251-4.4055s2.0736-2.0056 3.3245-2.5495c1.2645-0.54386 2.5767-0.8158 3.9364-0.81583 1.0606 3e-5 2.128 0.0816 3.2021 0.24475 1.0878 0.16319 2.0668 0.37395 2.937 0.63227v6.2207h-1.7744l-0.87701-3.9568c-0.43513-0.32631-0.91783-0.58466-1.4481-0.77504-0.51671-0.19034-1.0606-0.28552-1.6317-0.28554-0.62548 2e-5 -1.217 0.20398-1.7744 0.61187-0.5439 0.40794-1.0266 1.0198-1.4481 1.8356s-0.77505 1.8492-1.0606 3.1002c-0.27195 1.2374-0.44871 2.6923-0.53029 4.3647 0.69345-0.29912 1.3937-0.53027 2.1008-0.69345 0.72064-0.17675 1.4889-0.26513 2.3047-0.26515 1.1829 2e-5 2.2503 0.16998 3.2021 0.5099 0.96538 0.32634 1.788 0.82944 2.4679 1.5093 0.67984 0.66628 1.2033 1.5093 1.5705 2.5291s0.55066 2.2163 0.55068 3.5896m-8.6274 6.8326c0.99258 0 1.6792-0.53709 2.06-1.6113s0.57107-2.6854 0.57108-4.8338c-1e-5 -1.1558-0.0884-2.1144-0.26515-2.8758-0.17677-0.77503-0.41472-1.3937-0.71385-1.856-0.28555-0.46229-0.61868-0.78182-0.99939-0.9586-0.38073-0.19034-0.77505-0.28552-1.183-0.28554-0.62548 2e-5 -1.1694 0.0408-1.6317 0.12238-0.46229 0.0816-0.94501 0.19717-1.4481 0.34672v0.10198c-1e-5 1.9036 0.068 3.5897 0.20396 5.0582s0.34672 2.7058 0.63226 3.712c0.29913 1.0062 0.67306 1.7744 1.1218 2.3047 0.4623 0.51669 1.013 0.77504 1.6521 0.77504"/><path d="m321.27 587.88h-1.7744v-7.8116h17.479v1.6113l-10.626 25.739h-4.8746l11.524-22.802h-10.789l-0.9382 3.2633"/><path d="m301.55 546.37c-1e-5 1.4957-0.36714 2.7738-1.1014 3.8344-0.73426 1.047-1.7676 1.8084-3.1002 2.2843 0.72063 0.27196 1.3801 0.62549 1.9784 1.0606s1.1082 0.95182 1.5297 1.5501c0.42149 0.58469 0.74782 1.2578 0.97899 2.0192 0.23114 0.74785 0.34671 1.5773 0.34673 2.4883-2e-5 2.5835-0.74786 4.5279-2.2435 5.8332-1.4821 1.3053-3.7936 1.958-6.9346 1.958-2.9778 0-5.2145-0.63907-6.7102-1.9172-1.4821-1.2917-2.2231-3.2497-2.2231-5.874 0-0.8974 0.10878-1.72 0.32634-2.4679 0.23115-0.76143 0.55068-1.4345 0.9586-2.0192 0.4215-0.59827 0.9246-1.115 1.5093-1.5501 0.58467-0.44869 1.2441-0.80902 1.9784-1.081-1.3189-0.50308-2.3387-1.2781-3.0594-2.3251s-1.081-2.3319-1.081-3.8548c0-1.0742 0.17676-2.0464 0.53029-2.9166 0.36712-0.88379 0.90421-1.6316 1.6113-2.2435 0.70704-0.62545 1.5909-1.1014 2.6514-1.4277 1.0606-0.3399 2.2843-0.50986 3.6712-0.50989 1.3461 3e-5 2.5359 0.16999 3.5693 0.50989 1.047 0.32636 1.924 0.80226 2.631 1.4277 0.72063 0.62549 1.2645 1.3801 1.6317 2.2639 0.3671 0.87025 0.55067 1.856 0.55068 2.9574m-5.1601 13.237c-2e-5 -0.96539-0.0612-1.8152-0.18356-2.5495-0.10879-0.74783-0.29915-1.3733-0.57108-1.8764-0.25836-0.51668-0.60509-0.9042-1.0402-1.1626-0.42152-0.27193-0.95181-0.40791-1.5909-0.40792-0.62548 1e-5 -1.1422 0.13599-1.5501 0.40792-0.39433 0.25835-0.71386 0.64587-0.9586 1.1626-0.23116 0.50311-0.39433 1.1286-0.4895 1.8764-0.0952 0.73426-0.14278 1.5841-0.14277 2.5495-1e-5 0.92462 0.0476 1.7472 0.14277 2.4679 0.0952 0.70706 0.25834 1.3053 0.4895 1.7948 0.24474 0.4759 0.56427 0.84302 0.9586 1.1014 0.4079 0.24475 0.92459 0.36712 1.5501 0.36712 0.63906 0 1.1694-0.12237 1.5909-0.36712 0.4351-0.25835 0.78183-0.62547 1.0402-1.1014 0.27193-0.4895 0.46229-1.0878 0.57108-1.7948 0.12236-0.72065 0.18354-1.5433 0.18356-2.4679m-0.63227-13.237c-1e-5 -0.73423-0.0408-1.4141-0.12237-2.0396-0.0816-0.62549-0.23117-1.1625-0.44871-1.6113-0.20397-0.46228-0.48271-0.81581-0.83623-1.0606-0.33994-0.25832-0.77505-0.38749-1.3053-0.38752-0.5167 3e-5 -0.93821 0.1292-1.2645 0.38752-0.32634 0.24477-0.58469 0.5983-0.77504 1.0606-0.19037 0.44873-0.32634 0.98582-0.40792 1.6113-0.068 0.62549-0.10198 1.3054-0.10197 2.0396-1e-5 0.78865 0.034 1.4957 0.10197 2.1212 0.0816 0.62548 0.21755 1.1558 0.40792 1.5909s0.4487 0.76825 0.77504 0.99939 0.74783 0.34674 1.2645 0.34673c0.53028 1e-5 0.96539-0.11557 1.3053-0.34673 0.35352-0.23114 0.63226-0.56427 0.83623-0.99939 0.21754-0.4351 0.36711-0.96539 0.44871-1.5909s0.12236-1.3325 0.12237-2.1212"/><path d="m279.97 485.05c-1e-5 -1.4005 0.20395-2.6378 0.61187-3.712 0.42151-1.0877 1.0198-1.992 1.7948-2.7126 0.78864-0.73422 1.7404-1.2849 2.8554-1.6521 1.115-0.38069 2.3659-0.57105 3.7528-0.57108 1.5773 3e-5 2.9438 0.27197 4.0996 0.81583 1.1693 0.54392 2.1279 1.3869 2.8758 2.5291 0.76142 1.1286 1.3257 2.5699 1.6928 4.3239s0.55067 3.8344 0.55069 6.2411c-2e-5 2.6379-0.29916 4.861-0.89741 6.6694-0.5847 1.7948-1.3801 3.2497-2.3863 4.3647-0.99261 1.1014-2.1484 1.8968-3.4673 2.3863-1.3053 0.4895-2.6719 0.73425-4.0996 0.73425-1.251 0-2.3795-0.0748-3.3857-0.22435s-1.992-0.36713-2.9574-0.65267v-6.2207h1.7744l0.87702 3.9568c0.47589 0.33994 1.0402 0.60508 1.6928 0.79544 0.66626 0.19036 1.3053 0.28554 1.9172 0.28554 0.63905 0 1.2373-0.16996 1.7948-0.5099 0.55748-0.35352 1.047-0.9178 1.4685-1.6928 0.43509-0.77504 0.78862-1.7744 1.0606-2.9982 0.28552-1.2373 0.46908-2.7466 0.55068-4.5279-0.65268 0.23117-1.3257 0.41473-2.0192 0.55069s-1.4277 0.20397-2.2027 0.20396c-1.183 1e-5 -2.2639-0.17676-3.2429-0.53029-0.9654-0.36711-1.8016-0.8974-2.5087-1.5909-0.69346-0.70704-1.2374-1.5841-1.6317-2.631-0.38073-1.047-0.57109-2.2571-0.57108-3.6304m5.9964 0.0816c-1e-5 1.0606 0.0748 1.9648 0.22435 2.7126 0.16316 0.73426 0.38071 1.3325 0.65266 1.7948 0.28554 0.46231 0.61867 0.80224 0.9994 1.0198 0.39431 0.20398 0.82941 0.30595 1.3053 0.30594 1.0334 1e-5 2.0532-0.12236 3.0594-0.36712v-0.28554c-2e-5 -3.9296-0.23797-6.887-0.71385-8.8722-0.46232-1.9852-1.285-2.9778-2.4679-2.9778-1.0606 3e-5 -1.8356 0.57111-2.3251 1.7132s-0.73425 2.7942-0.73424 4.9562"/><path d="m296.9 439.03 4.7522 0.4895v1.754h-15.378v-1.754l4.7318-0.4895v-20.62l-4.7114 1.5501v-1.7336l7.7096-4.5279h2.8962v25.332"/><path d="m323.11 427.49c-2e-5 2.2843-0.18358 4.3103-0.55068 6.0779-0.35355 1.7676-0.89743 3.2565-1.6317 4.4667-0.73427 1.1966-1.6657 2.1076-2.7942 2.733-1.1286 0.61188-2.4611 0.91781-3.9976 0.91781-2.8826 0-5.0582-1.2101-6.5266-3.6304s-2.2027-5.942-2.2027-10.565c0-4.5278 0.73424-7.9883 2.2027-10.381 1.4685-2.4067 3.6984-3.61 6.6898-3.61 2.8826 3e-5 5.0717 1.1898 6.5674 3.5693 1.4957 2.3659 2.2435 5.84 2.2435 10.422m-5.976 0c-2e-5 -1.89-0.0476-3.576-0.14277-5.0582-0.0952-1.4822-0.25836-2.733-0.4895-3.7528s-0.5371-1.7948-0.91781-2.3251c-0.36713-0.53027-0.83624-0.79541-1.4073-0.79544s-1.0402 0.26517-1.4073 0.79544c-0.35354 0.53031-0.63228 1.3054-0.83623 2.3251s-0.34673 2.2708-0.42831 3.7528c-0.0816 1.482-0.12238 3.1682-0.12237 5.0582-1e-5 1.9036 0.0408 3.6101 0.12237 5.1193 0.0816 1.4957 0.22435 2.767 0.42831 3.814 0.20395 1.0334 0.48269 1.8288 0.83623 2.3863 0.36711 0.55749 0.83621 0.83623 1.4073 0.83623s1.0402-0.27874 1.4073-0.83623c0.38071-0.55748 0.68665-1.3529 0.91781-2.3863 0.23114-1.047 0.3943-2.3183 0.4895-3.814 0.0952-1.5093 0.14275-3.2157 0.14277-5.1193"/><path d="m321.88 396.99 4.7522 0.4895v1.754h-15.378v-1.754l4.7318-0.4895v-20.62l-4.7114 1.5501v-1.7336l7.7096-4.5279h2.8962v25.332"/><path d="m340.46 396.99 4.7522 0.4895v1.754h-15.378v-1.754l4.7318-0.4895v-20.62l-4.7114 1.5501v-1.7336l7.7096-4.5279h2.8962v25.332"/></g><path d="m410.37 382.12s-0.73475 17.406-4.5399 36.08-18.776 69.944-18.776 69.944l-5.2471-1.2916s10.539-52.361 15.836-70.668 12.727-34.065 12.727-34.065z" style="filter:url(#o-6);opacity:.5"/><path d="m412.37 380.12s-0.73475 17.406-4.5399 36.08-18.776 69.944-18.776 69.944l-5.2471-1.2916s10.539-52.361 15.836-70.668 12.727-34.065 12.727-34.065z"/><path d="m382.65 495.38c24.128 17.498 33.493 23.886 47.414 34.145-0.12427 1.9526 0.25494 6.022 2.4508 7.64 2.8598 2.1073 13.963 2.077 22.584 7.0779-7.3516-6.8587-10.457-17.195-13.432-19.498-2.1958-1.618-6.1947-0.77496-8.0228-0.0778-13.948-10.278-22.656-17.487-46.657-35.173z" style="filter:url(#n-7);opacity:.5"/><path d="m384.65 493.38c24.128 17.498 33.493 23.886 47.414 34.145-0.12427 1.9526 0.25494 6.022 2.4508 7.64 2.8598 2.1073 13.963 2.077 22.584 7.0779-7.3516-6.8587-10.457-17.195-13.432-19.498-2.1958-1.618-6.1947-0.77496-8.0228-0.0778-13.948-10.278-22.656-17.487-46.657-35.173z"/><path d="m276.51 363.01s70.46-8.2817 109.24-8.2817 109.24 8.2817 109.24 8.2817 7.0996 82.192 7.0996 127.43-7.0996 127.43-7.0996 127.43-70.46 8.2817-109.24 8.2817-109.24-8.2817-109.24-8.2817-7.0996-82.192-7.0996-127.43 7.0996-127.43 7.0996-127.43z" style="fill:none;stroke-linecap:round;stroke-linejoin:round;stroke:#000"/><path d="m280.1 367.19s68.147-8.01 105.65-8.01 105.65 8.01 105.65 8.01 6.8665 79.495 6.8665 123.25-6.8665 123.25-6.8665 123.25-68.147 8.01-105.65 8.01-105.65-8.01-105.65-8.01-6.8665-79.495-6.8665-123.25 6.8665-123.25 6.8665-123.25z" style="fill:none;stroke-linecap:round;stroke-linejoin:round;stroke:#000"/><path transform="translate(200.85,277.41)" d="m115.94 86c1.1282-0.10631 0.90583-0.11214 2.0625-0.21875 0.71712-0.0661 1.5544-0.12147 2.2812-0.1875l-2.2812-4.3125c-0.71691 0.06516-1.5423 0.12227-2.25 0.1875-1.1559 0.10654-0.93402 0.11249-2.0625 0.21875z"/><path transform="translate(200.85,277.41)" d="m75.281 144.25c0.0965-1.5043 0.15254-3.1169 0.25-4.5938l-3.6875-2.4375c-0.09747 1.4775-0.18471 3.0897-0.28125 4.5938l3.7188 2.4375z"/><path transform="translate(200.85,277.41)" d="m72.406 214.5c-0.0013-0.4325-0.03125-1.0429-0.03125-1.4688 0-0.73395 0.0587-1.7777 0.0625-2.5312h-3.8125c-0.0037 0.75289-0.0625 1.7973-0.0625 2.5312 0 0.42583 0.03 1.0365 0.03125 1.4688z"/><path transform="translate(200.85,277.41)" d="m75.594 287.38c-0.09758-1.4704-0.15324-3.0948-0.25-4.5938l-3.7188 2.4375c0.09679 1.4989 0.18366 3.1225 0.28125 4.5938l3.6875-2.4375z"/><path transform="translate(200.85,277.41)" d="m120.28 340.47c-0.72689-0.066-1.5641-0.1214-2.2812-0.1875-1.1567-0.10662-0.93427-0.11244-2.0625-0.21875l-2.25 4.3125c1.1285 0.10626 0.90661 0.11221 2.0625 0.21875 0.70769 0.0652 1.5331 0.12234 2.25 0.1875z"/><path transform="translate(200.85,277.41)" d="m186.91 344.25c-0.62816 4e-3 -1.3877 0.0313-2 0.0313s-1.3718-0.027-2-0.0313v4.4375c0.6274 4e-3 1.388 0.0625 2 0.0625s1.3713-0.0584 2-0.0625z"/><path transform="translate(200.85,277.41)" d="m254.03 340.06-2.25 0.21875c-0.63826 0.0588-1.3852 0.0975-2.0312 0.15625l2.25 4.3125c0.6561-0.0597 1.4142-0.0965 2.0625-0.15625l2.25-0.21875z"/><path transform="translate(200.85,277.41)" d="m294.44 283.28c-0.0975 1.5063-0.1517 3.1483-0.25 4.625l3.6875 2.4062c0.0976-1.468 0.18434-3.0976 0.28125-4.5938l-3.7188-2.4375z"/><path transform="translate(200.85,277.41)" d="m297.34 210.5c4e-3 0.75354 0.0625 1.7973 0.0625 2.5312 0 0.42584-0.03 1.0362-0.0313 1.4688h3.8438c1e-3 -0.43226 0.0313-1.0429 0.0313-1.4688 0-0.73392-0.0588-1.7784-0.0625-2.5312z"/><path transform="translate(200.85,277.41)" d="m294.25 139.16c0.0975 1.4736 0.15336 3.0922 0.25 4.5938l3.7188-2.4375c-0.0967-1.5015-0.18371-3.1194-0.28125-4.5938l-3.6875 2.4375z"/><path transform="translate(200.85,277.41)" d="m249.75 85.625c0.64604 0.05878 1.393 0.09742 2.0312 0.15625l2.25 0.21875 2.2812-4.3125-2.25-0.21875c-0.64833-0.05976-1.4064-0.09654-2.0625-0.15625z"/><path transform="translate(200.85,277.41)" d="m184.91 77.312c-0.61202 0-1.3726 0.05844-2 0.0625v4.4375c0.62816-0.0042 1.3877-0.03125 2-0.03125s1.3718 0.02705 2 0.03125v-4.4375c-0.62867-0.0041-1.3868-0.0625-2-0.0625z"/><path transform="matrix(.95486 0 0 .95489 209.49 290.43)" d="m193 211.56c0 5.799-4.701 10.5-10.5 10.5s-10.5-4.701-10.5-10.5 4.701-10.5 10.5-10.5 10.5 4.701 10.5 10.5z" style="filter:url(#p-1);opacity:.5"/><path transform="matrix(.95486 0 0 .95489 211.49 288.43)" d="m193 211.56c0 5.799-4.701 10.5-10.5 10.5s-10.5-4.701-10.5-10.5 4.701-10.5 10.5-10.5 10.5 4.701 10.5 10.5z" style="fill:url(#d-9)"/></g></g></g></svg>
