<?xml version="1.0" encoding="UTF-8"?>
<svg width="149.86mm" height="149.86mm" version="1.1" viewBox="0 0 149.86 149.86" xmlns="http://www.w3.org/2000/svg" xmlns:xlink="http://www.w3.org/1999/xlink"><defs><clipPath id="f-1"><path d="m6 1h43a5 5 0 0 1 5 5v35a5 5 0 0 1-5 5h-43a5 5 0 0 1-5-5v-35a5 5 0 0 1 5-5"/></clipPath><clipPath id="e-2"><path d="m8.15 3.25h38.7a4.5 4.5 0 0 1 4.5 4.5v31.5a4.5 4.5 0 0 1-4.5 4.5h-38.7a4.5 4.5 0 0 1-4.5-4.5v-31.5a4.5 4.5 0 0 1 4.5-4.5"/></clipPath><filter id="d-4"><feGaussianBlur stdDeviation=".735"/></filter><filter id="c-9"><feGaussianBlur stdDeviation=".6615"/></filter><linearGradient id="b-5" x2="0" y1="46" y2="1" gradientUnits="userSpaceOnUse"><stop stop-opacity=".7843" offset="0"/><stop stop-color="#fff" stop-opacity=".7843" offset=".307"/><stop stop-color="#fff" stop-opacity=".2157" offset=".531"/><stop stop-opacity=".7843" offset=".6417"/><stop stop-color="#fff" stop-opacity=".2157" offset=".7604"/><stop stop-color="#fff" stop-opacity=".7843" offset="1"/></linearGradient><linearGradient id="a-8" x2="0" y1="44" y2="3" gradientUnits="userSpaceOnUse"><stop stop-color="#fff" stop-opacity=".3922" offset="0"/><stop stop-opacity=".3922" offset="1"/></linearGradient><linearGradient id="linearGradient2753" x2="0" y1="46" y2="1" gradientUnits="userSpaceOnUse" xlink:href="#b-5"/><linearGradient id="linearGradient2755" x2="0" y1="44" y2="3" gradientUnits="userSpaceOnUse" xlink:href="#a-8"/></defs><g transform="translate(-13.306 -89.313)"><g transform="matrix(.26458 0 0 .26458 8.8612 84.868)"><g transform="matrix(.96 0 0 1.0213 16.8 16.8)" style="fill-rule:evenodd;fill:#d90000"><path d="m4.717-2e-5h40.566a4.717 5.2222 0 0 1 4.717 5.2222v36.556a4.717 5.2222 0 0 1-4.717 5.2222h-40.566a4.717 5.2222 0 0 1-4.717-5.2222v-36.556a4.717 5.2222 0 0 1 4.717-5.2222"/><path transform="matrix(.9434 0 0 1.0444 -.9434 -1.0444)" d="m6 1h43a5 5 0 0 1 5 5v35a5 5 0 0 1-5 5h-43a5 5 0 0 1-5-5v-35a5 5 0 0 1 5-5" clip-path="url(#f-1)" style="fill:url(#linearGradient2753);filter:url(#d-4)"/><path d="m6.7453 2.35h36.509a4.2453 4.7 0 0 1 4.2453 4.7v32.9a4.2453 4.7 0 0 1-4.2453 4.7h-36.509a4.2453 4.7 0 0 1-4.2453-4.7v-32.9a4.2453 4.7 0 0 1 4.2453-4.7"/><path transform="matrix(.9434 0 0 1.0444 -.9434 -1.0444)" d="m8.15 3.25h38.7a4.5 4.5 0 0 1 4.5 4.5v31.5a4.5 4.5 0 0 1-4.5 4.5h-38.7a4.5 4.5 0 0 1-4.5-4.5v-31.5a4.5 4.5 0 0 1 4.5-4.5" clip-path="url(#e-2)" style="fill:url(#linearGradient2755);filter:url(#c-9)"/></g><g transform="matrix(.96 0 0 1.0213 16.8 74.4)" style="fill-rule:evenodd;fill:#d36906"><path d="m4.717-2e-5h40.566a4.717 5.2222 0 0 1 4.717 5.2222v36.556a4.717 5.2222 0 0 1-4.717 5.2222h-40.566a4.717 5.2222 0 0 1-4.717-5.2222v-36.556a4.717 5.2222 0 0 1 4.717-5.2222"/><path transform="matrix(.9434 0 0 1.0444 -.9434 -1.0444)" d="m6 1h43a5 5 0 0 1 5 5v35a5 5 0 0 1-5 5h-43a5 5 0 0 1-5-5v-35a5 5 0 0 1 5-5" clip-path="url(#f-1)" style="fill:url(#linearGradient2753);filter:url(#d-4)"/><path d="m6.7453 2.35h36.509a4.2453 4.7 0 0 1 4.2453 4.7v32.9a4.2453 4.7 0 0 1-4.2453 4.7h-36.509a4.2453 4.7 0 0 1-4.2453-4.7v-32.9a4.2453 4.7 0 0 1 4.2453-4.7"/><path transform="matrix(.9434 0 0 1.0444 -.9434 -1.0444)" d="m8.15 3.25h38.7a4.5 4.5 0 0 1 4.5 4.5v31.5a4.5 4.5 0 0 1-4.5 4.5h-38.7a4.5 4.5 0 0 1-4.5-4.5v-31.5a4.5 4.5 0 0 1 4.5-4.5" clip-path="url(#e-2)" style="fill:url(#linearGradient2755);filter:url(#c-9)"/></g><g transform="matrix(.96 0 0 1.0213 16.8 132)" style="fill-rule:evenodd;fill:#ccc509"><path d="m4.717-2e-5h40.566a4.717 5.2222 0 0 1 4.717 5.2222v36.556a4.717 5.2222 0 0 1-4.717 5.2222h-40.566a4.717 5.2222 0 0 1-4.717-5.2222v-36.556a4.717 5.2222 0 0 1 4.717-5.2222"/><path transform="matrix(.9434 0 0 1.0444 -.9434 -1.0444)" d="m6 1h43a5 5 0 0 1 5 5v35a5 5 0 0 1-5 5h-43a5 5 0 0 1-5-5v-35a5 5 0 0 1 5-5" clip-path="url(#f-1)" style="fill:url(#linearGradient2753);filter:url(#d-4)"/><path d="m6.7453 2.35h36.509a4.2453 4.7 0 0 1 4.2453 4.7v32.9a4.2453 4.7 0 0 1-4.2453 4.7h-36.509a4.2453 4.7 0 0 1-4.2453-4.7v-32.9a4.2453 4.7 0 0 1 4.2453-4.7"/><path transform="matrix(.9434 0 0 1.0444 -.9434 -1.0444)" d="m8.15 3.25h38.7a4.5 4.5 0 0 1 4.5 4.5v31.5a4.5 4.5 0 0 1-4.5 4.5h-38.7a4.5 4.5 0 0 1-4.5-4.5v-31.5a4.5 4.5 0 0 1 4.5-4.5" clip-path="url(#e-2)" style="fill:url(#linearGradient2755);filter:url(#c-9)"/></g><g transform="matrix(.96 0 0 1.0213 16.8 189.6)" style="fill-rule:evenodd;fill:#64b005"><path d="m4.717-2e-5h40.566a4.717 5.2222 0 0 1 4.717 5.2222v36.556a4.717 5.2222 0 0 1-4.717 5.2222h-40.566a4.717 5.2222 0 0 1-4.717-5.2222v-36.556a4.717 5.2222 0 0 1 4.717-5.2222"/><path transform="matrix(.9434 0 0 1.0444 -.9434 -1.0444)" d="m6 1h43a5 5 0 0 1 5 5v35a5 5 0 0 1-5 5h-43a5 5 0 0 1-5-5v-35a5 5 0 0 1 5-5" clip-path="url(#f-1)" style="fill:url(#linearGradient2753);filter:url(#d-4)"/><path d="m6.7453 2.35h36.509a4.2453 4.7 0 0 1 4.2453 4.7v32.9a4.2453 4.7 0 0 1-4.2453 4.7h-36.509a4.2453 4.7 0 0 1-4.2453-4.7v-32.9a4.2453 4.7 0 0 1 4.2453-4.7"/><path transform="matrix(.9434 0 0 1.0444 -.9434 -1.0444)" d="m8.15 3.25h38.7a4.5 4.5 0 0 1 4.5 4.5v31.5a4.5 4.5 0 0 1-4.5 4.5h-38.7a4.5 4.5 0 0 1-4.5-4.5v-31.5a4.5 4.5 0 0 1 4.5-4.5" clip-path="url(#e-2)" style="fill:url(#linearGradient2755);filter:url(#c-9)"/></g><g transform="matrix(.96 0 0 1.0213 16.8 247.2)" style="fill-rule:evenodd;fill:#0d9e00"><path d="m4.717-2e-5h40.566a4.717 5.2222 0 0 1 4.717 5.2222v36.556a4.717 5.2222 0 0 1-4.717 5.2222h-40.566a4.717 5.2222 0 0 1-4.717-5.2222v-36.556a4.717 5.2222 0 0 1 4.717-5.2222"/><path transform="matrix(.9434 0 0 1.0444 -.9434 -1.0444)" d="m6 1h43a5 5 0 0 1 5 5v35a5 5 0 0 1-5 5h-43a5 5 0 0 1-5-5v-35a5 5 0 0 1 5-5" clip-path="url(#f-1)" style="fill:url(#linearGradient2753);filter:url(#d-4)"/><path d="m6.7453 2.35h36.509a4.2453 4.7 0 0 1 4.2453 4.7v32.9a4.2453 4.7 0 0 1-4.2453 4.7h-36.509a4.2453 4.7 0 0 1-4.2453-4.7v-32.9a4.2453 4.7 0 0 1 4.2453-4.7"/><path transform="matrix(.9434 0 0 1.0444 -.9434 -1.0444)" d="m8.15 3.25h38.7a4.5 4.5 0 0 1 4.5 4.5v31.5a4.5 4.5 0 0 1-4.5 4.5h-38.7a4.5 4.5 0 0 1-4.5-4.5v-31.5a4.5 4.5 0 0 1 4.5-4.5" clip-path="url(#e-2)" style="fill:url(#linearGradient2755);filter:url(#c-9)"/></g><g transform="matrix(.96 0 0 1.0213 16.8 304.8)" style="fill-rule:evenodd;fill:#01bd4c"><path d="m4.717-2e-5h40.566a4.717 5.2222 0 0 1 4.717 5.2222v36.556a4.717 5.2222 0 0 1-4.717 5.2222h-40.566a4.717 5.2222 0 0 1-4.717-5.2222v-36.556a4.717 5.2222 0 0 1 4.717-5.2222"/><path transform="matrix(.9434 0 0 1.0444 -.9434 -1.0444)" d="m6 1h43a5 5 0 0 1 5 5v35a5 5 0 0 1-5 5h-43a5 5 0 0 1-5-5v-35a5 5 0 0 1 5-5" clip-path="url(#f-1)" style="fill:url(#linearGradient2753);filter:url(#d-4)"/><path d="m6.7453 2.35h36.509a4.2453 4.7 0 0 1 4.2453 4.7v32.9a4.2453 4.7 0 0 1-4.2453 4.7h-36.509a4.2453 4.7 0 0 1-4.2453-4.7v-32.9a4.2453 4.7 0 0 1 4.2453-4.7"/><path transform="matrix(.9434 0 0 1.0444 -.9434 -1.0444)" d="m8.15 3.25h38.7a4.5 4.5 0 0 1 4.5 4.5v31.5a4.5 4.5 0 0 1-4.5 4.5h-38.7a4.5 4.5 0 0 1-4.5-4.5v-31.5a4.5 4.5 0 0 1 4.5-4.5" clip-path="url(#e-2)" style="fill:url(#linearGradient2755);filter:url(#c-9)"/></g><g transform="matrix(.96 0 0 1.0213 16.8 362.4)" style="fill-rule:evenodd;fill:#15f9dd"><path d="m4.717-2e-5h40.566a4.717 5.2222 0 0 1 4.717 5.2222v36.556a4.717 5.2222 0 0 1-4.717 5.2222h-40.566a4.717 5.2222 0 0 1-4.717-5.2222v-36.556a4.717 5.2222 0 0 1 4.717-5.2222"/><path transform="matrix(.9434 0 0 1.0444 -.9434 -1.0444)" d="m6 1h43a5 5 0 0 1 5 5v35a5 5 0 0 1-5 5h-43a5 5 0 0 1-5-5v-35a5 5 0 0 1 5-5" clip-path="url(#f-1)" style="fill:url(#linearGradient2753);filter:url(#d-4)"/><path d="m6.7453 2.35h36.509a4.2453 4.7 0 0 1 4.2453 4.7v32.9a4.2453 4.7 0 0 1-4.2453 4.7h-36.509a4.2453 4.7 0 0 1-4.2453-4.7v-32.9a4.2453 4.7 0 0 1 4.2453-4.7"/><path transform="matrix(.9434 0 0 1.0444 -.9434 -1.0444)" d="m8.15 3.25h38.7a4.5 4.5 0 0 1 4.5 4.5v31.5a4.5 4.5 0 0 1-4.5 4.5h-38.7a4.5 4.5 0 0 1-4.5-4.5v-31.5a4.5 4.5 0 0 1 4.5-4.5" clip-path="url(#e-2)" style="fill:url(#linearGradient2755);filter:url(#c-9)"/></g><g transform="matrix(.96 0 0 1.0213 16.8 420)" style="fill-rule:evenodd;fill:#27b1ff"><path d="m4.717-2e-5h40.566a4.717 5.2222 0 0 1 4.717 5.2222v36.556a4.717 5.2222 0 0 1-4.717 5.2222h-40.566a4.717 5.2222 0 0 1-4.717-5.2222v-36.556a4.717 5.2222 0 0 1 4.717-5.2222"/><path transform="matrix(.9434 0 0 1.0444 -.9434 -1.0444)" d="m6 1h43a5 5 0 0 1 5 5v35a5 5 0 0 1-5 5h-43a5 5 0 0 1-5-5v-35a5 5 0 0 1 5-5" clip-path="url(#f-1)" style="fill:url(#linearGradient2753);filter:url(#d-4)"/><path d="m6.7453 2.35h36.509a4.2453 4.7 0 0 1 4.2453 4.7v32.9a4.2453 4.7 0 0 1-4.2453 4.7h-36.509a4.2453 4.7 0 0 1-4.2453-4.7v-32.9a4.2453 4.7 0 0 1 4.2453-4.7"/><path transform="matrix(.9434 0 0 1.0444 -.9434 -1.0444)" d="m8.15 3.25h38.7a4.5 4.5 0 0 1 4.5 4.5v31.5a4.5 4.5 0 0 1-4.5 4.5h-38.7a4.5 4.5 0 0 1-4.5-4.5v-31.5a4.5 4.5 0 0 1 4.5-4.5" clip-path="url(#e-2)" style="fill:url(#linearGradient2755);filter:url(#c-9)"/></g><g transform="matrix(.96 0 0 1.0213 16.8 477.6)" style="fill-rule:evenodd;fill:#0620ad"><path d="m4.717-2e-5h40.566a4.717 5.2222 0 0 1 4.717 5.2222v36.556a4.717 5.2222 0 0 1-4.717 5.2222h-40.566a4.717 5.2222 0 0 1-4.717-5.2222v-36.556a4.717 5.2222 0 0 1 4.717-5.2222"/><path transform="matrix(.9434 0 0 1.0444 -.9434 -1.0444)" d="m6 1h43a5 5 0 0 1 5 5v35a5 5 0 0 1-5 5h-43a5 5 0 0 1-5-5v-35a5 5 0 0 1 5-5" clip-path="url(#f-1)" style="fill:url(#linearGradient2753);filter:url(#d-4)"/><path d="m6.7453 2.35h36.509a4.2453 4.7 0 0 1 4.2453 4.7v32.9a4.2453 4.7 0 0 1-4.2453 4.7h-36.509a4.2453 4.7 0 0 1-4.2453-4.7v-32.9a4.2453 4.7 0 0 1 4.2453-4.7"/><path transform="matrix(.9434 0 0 1.0444 -.9434 -1.0444)" d="m8.15 3.25h38.7a4.5 4.5 0 0 1 4.5 4.5v31.5a4.5 4.5 0 0 1-4.5 4.5h-38.7a4.5 4.5 0 0 1-4.5-4.5v-31.5a4.5 4.5 0 0 1 4.5-4.5" clip-path="url(#e-2)" style="fill:url(#linearGradient2755);filter:url(#c-9)"/></g><g transform="matrix(.96 0 0 1.0213 16.8 535.2)" style="fill-rule:evenodd;fill:#4700dd"><path d="m4.717-2e-5h40.566a4.717 5.2222 0 0 1 4.717 5.2222v36.556a4.717 5.2222 0 0 1-4.717 5.2222h-40.566a4.717 5.2222 0 0 1-4.717-5.2222v-36.556a4.717 5.2222 0 0 1 4.717-5.2222"/><path transform="matrix(.9434 0 0 1.0444 -.9434 -1.0444)" d="m6 1h43a5 5 0 0 1 5 5v35a5 5 0 0 1-5 5h-43a5 5 0 0 1-5-5v-35a5 5 0 0 1 5-5" clip-path="url(#f-1)" style="fill:url(#linearGradient2753);filter:url(#d-4)"/><path d="m6.7453 2.35h36.509a4.2453 4.7 0 0 1 4.2453 4.7v32.9a4.2453 4.7 0 0 1-4.2453 4.7h-36.509a4.2453 4.7 0 0 1-4.2453-4.7v-32.9a4.2453 4.7 0 0 1 4.2453-4.7"/><path transform="matrix(.9434 0 0 1.0444 -.9434 -1.0444)" d="m8.15 3.25h38.7a4.5 4.5 0 0 1 4.5 4.5v31.5a4.5 4.5 0 0 1-4.5 4.5h-38.7a4.5 4.5 0 0 1-4.5-4.5v-31.5a4.5 4.5 0 0 1 4.5-4.5" clip-path="url(#e-2)" style="fill:url(#linearGradient2755);filter:url(#c-9)"/></g><g transform="matrix(.96 0 0 1.0213 74.4 16.8)" style="fill-rule:evenodd;fill:#ef7300"><path d="m4.717-2e-5h40.566a4.717 5.2222 0 0 1 4.717 5.2222v36.556a4.717 5.2222 0 0 1-4.717 5.2222h-40.566a4.717 5.2222 0 0 1-4.717-5.2222v-36.556a4.717 5.2222 0 0 1 4.717-5.2222"/><path transform="matrix(.9434 0 0 1.0444 -.9434 -1.0444)" d="m6 1h43a5 5 0 0 1 5 5v35a5 5 0 0 1-5 5h-43a5 5 0 0 1-5-5v-35a5 5 0 0 1 5-5" clip-path="url(#f-1)" style="fill:url(#linearGradient2753);filter:url(#d-4)"/><path d="m6.7453 2.35h36.509a4.2453 4.7 0 0 1 4.2453 4.7v32.9a4.2453 4.7 0 0 1-4.2453 4.7h-36.509a4.2453 4.7 0 0 1-4.2453-4.7v-32.9a4.2453 4.7 0 0 1 4.2453-4.7"/><path transform="matrix(.9434 0 0 1.0444 -.9434 -1.0444)" d="m8.15 3.25h38.7a4.5 4.5 0 0 1 4.5 4.5v31.5a4.5 4.5 0 0 1-4.5 4.5h-38.7a4.5 4.5 0 0 1-4.5-4.5v-31.5a4.5 4.5 0 0 1 4.5-4.5" clip-path="url(#e-2)" style="fill:url(#linearGradient2755);filter:url(#c-9)"/></g><g transform="matrix(.96 0 0 1.0213 74.4 74.4)" style="fill-rule:evenodd;fill:#e0d706"><path d="m4.717-2e-5h40.566a4.717 5.2222 0 0 1 4.717 5.2222v36.556a4.717 5.2222 0 0 1-4.717 5.2222h-40.566a4.717 5.2222 0 0 1-4.717-5.2222v-36.556a4.717 5.2222 0 0 1 4.717-5.2222"/><path transform="matrix(.9434 0 0 1.0444 -.9434 -1.0444)" d="m6 1h43a5 5 0 0 1 5 5v35a5 5 0 0 1-5 5h-43a5 5 0 0 1-5-5v-35a5 5 0 0 1 5-5" clip-path="url(#f-1)" style="fill:url(#linearGradient2753);filter:url(#d-4)"/><path d="m6.7453 2.35h36.509a4.2453 4.7 0 0 1 4.2453 4.7v32.9a4.2453 4.7 0 0 1-4.2453 4.7h-36.509a4.2453 4.7 0 0 1-4.2453-4.7v-32.9a4.2453 4.7 0 0 1 4.2453-4.7"/><path transform="matrix(.9434 0 0 1.0444 -.9434 -1.0444)" d="m8.15 3.25h38.7a4.5 4.5 0 0 1 4.5 4.5v31.5a4.5 4.5 0 0 1-4.5 4.5h-38.7a4.5 4.5 0 0 1-4.5-4.5v-31.5a4.5 4.5 0 0 1 4.5-4.5" clip-path="url(#e-2)" style="fill:url(#linearGradient2755);filter:url(#c-9)"/></g><g transform="matrix(.96 0 0 1.0213 74.4 132)" style="fill-rule:evenodd;fill:#a0ff26"><path d="m4.717-2e-5h40.566a4.717 5.2222 0 0 1 4.717 5.2222v36.556a4.717 5.2222 0 0 1-4.717 5.2222h-40.566a4.717 5.2222 0 0 1-4.717-5.2222v-36.556a4.717 5.2222 0 0 1 4.717-5.2222"/><path transform="matrix(.9434 0 0 1.0444 -.9434 -1.0444)" d="m6 1h43a5 5 0 0 1 5 5v35a5 5 0 0 1-5 5h-43a5 5 0 0 1-5-5v-35a5 5 0 0 1 5-5" clip-path="url(#f-1)" style="fill:url(#linearGradient2753);filter:url(#d-4)"/><path d="m6.7453 2.35h36.509a4.2453 4.7 0 0 1 4.2453 4.7v32.9a4.2453 4.7 0 0 1-4.2453 4.7h-36.509a4.2453 4.7 0 0 1-4.2453-4.7v-32.9a4.2453 4.7 0 0 1 4.2453-4.7"/><path transform="matrix(.9434 0 0 1.0444 -.9434 -1.0444)" d="m8.15 3.25h38.7a4.5 4.5 0 0 1 4.5 4.5v31.5a4.5 4.5 0 0 1-4.5 4.5h-38.7a4.5 4.5 0 0 1-4.5-4.5v-31.5a4.5 4.5 0 0 1 4.5-4.5" clip-path="url(#e-2)" style="fill:url(#linearGradient2755);filter:url(#c-9)"/></g><g transform="matrix(.96 0 0 1.0213 74.4 189.6)" style="fill-rule:evenodd;fill:#0fbb00"><path d="m4.717-2e-5h40.566a4.717 5.2222 0 0 1 4.717 5.2222v36.556a4.717 5.2222 0 0 1-4.717 5.2222h-40.566a4.717 5.2222 0 0 1-4.717-5.2222v-36.556a4.717 5.2222 0 0 1 4.717-5.2222"/><path transform="matrix(.9434 0 0 1.0444 -.9434 -1.0444)" d="m6 1h43a5 5 0 0 1 5 5v35a5 5 0 0 1-5 5h-43a5 5 0 0 1-5-5v-35a5 5 0 0 1 5-5" clip-path="url(#f-1)" style="fill:url(#linearGradient2753);filter:url(#d-4)"/><path d="m6.7453 2.35h36.509a4.2453 4.7 0 0 1 4.2453 4.7v32.9a4.2453 4.7 0 0 1-4.2453 4.7h-36.509a4.2453 4.7 0 0 1-4.2453-4.7v-32.9a4.2453 4.7 0 0 1 4.2453-4.7"/><path transform="matrix(.9434 0 0 1.0444 -.9434 -1.0444)" d="m8.15 3.25h38.7a4.5 4.5 0 0 1 4.5 4.5v31.5a4.5 4.5 0 0 1-4.5 4.5h-38.7a4.5 4.5 0 0 1-4.5-4.5v-31.5a4.5 4.5 0 0 1 4.5-4.5" clip-path="url(#e-2)" style="fill:url(#linearGradient2755);filter:url(#c-9)"/></g><g transform="matrix(.96 0 0 1.0213 74.4 247.2)" style="fill-rule:evenodd;fill:#00c750"><path d="m4.717-2e-5h40.566a4.717 5.2222 0 0 1 4.717 5.2222v36.556a4.717 5.2222 0 0 1-4.717 5.2222h-40.566a4.717 5.2222 0 0 1-4.717-5.2222v-36.556a4.717 5.2222 0 0 1 4.717-5.2222"/><path transform="matrix(.9434 0 0 1.0444 -.9434 -1.0444)" d="m6 1h43a5 5 0 0 1 5 5v35a5 5 0 0 1-5 5h-43a5 5 0 0 1-5-5v-35a5 5 0 0 1 5-5" clip-path="url(#f-1)" style="fill:url(#linearGradient2753);filter:url(#d-4)"/><path d="m6.7453 2.35h36.509a4.2453 4.7 0 0 1 4.2453 4.7v32.9a4.2453 4.7 0 0 1-4.2453 4.7h-36.509a4.2453 4.7 0 0 1-4.2453-4.7v-32.9a4.2453 4.7 0 0 1 4.2453-4.7"/><path transform="matrix(.9434 0 0 1.0444 -.9434 -1.0444)" d="m8.15 3.25h38.7a4.5 4.5 0 0 1 4.5 4.5v31.5a4.5 4.5 0 0 1-4.5 4.5h-38.7a4.5 4.5 0 0 1-4.5-4.5v-31.5a4.5 4.5 0 0 1 4.5-4.5" clip-path="url(#e-2)" style="fill:url(#linearGradient2755);filter:url(#c-9)"/></g><g transform="matrix(.96 0 0 1.0213 74.4 304.8)" style="fill-rule:evenodd;fill:#00b6a0"><path d="m4.717-2e-5h40.566a4.717 5.2222 0 0 1 4.717 5.2222v36.556a4.717 5.2222 0 0 1-4.717 5.2222h-40.566a4.717 5.2222 0 0 1-4.717-5.2222v-36.556a4.717 5.2222 0 0 1 4.717-5.2222"/><path transform="matrix(.9434 0 0 1.0444 -.9434 -1.0444)" d="m6 1h43a5 5 0 0 1 5 5v35a5 5 0 0 1-5 5h-43a5 5 0 0 1-5-5v-35a5 5 0 0 1 5-5" clip-path="url(#f-1)" style="fill:url(#linearGradient2753);filter:url(#d-4)"/><path d="m6.7453 2.35h36.509a4.2453 4.7 0 0 1 4.2453 4.7v32.9a4.2453 4.7 0 0 1-4.2453 4.7h-36.509a4.2453 4.7 0 0 1-4.2453-4.7v-32.9a4.2453 4.7 0 0 1 4.2453-4.7"/><path transform="matrix(.9434 0 0 1.0444 -.9434 -1.0444)" d="m8.15 3.25h38.7a4.5 4.5 0 0 1 4.5 4.5v31.5a4.5 4.5 0 0 1-4.5 4.5h-38.7a4.5 4.5 0 0 1-4.5-4.5v-31.5a4.5 4.5 0 0 1 4.5-4.5" clip-path="url(#e-2)" style="fill:url(#linearGradient2755);filter:url(#c-9)"/></g><g transform="matrix(.96 0 0 1.0213 74.4 362.4)" style="fill-rule:evenodd;fill:#35b6ff"><path d="m4.717-2e-5h40.566a4.717 5.2222 0 0 1 4.717 5.2222v36.556a4.717 5.2222 0 0 1-4.717 5.2222h-40.566a4.717 5.2222 0 0 1-4.717-5.2222v-36.556a4.717 5.2222 0 0 1 4.717-5.2222"/><path transform="matrix(.9434 0 0 1.0444 -.9434 -1.0444)" d="m6 1h43a5 5 0 0 1 5 5v35a5 5 0 0 1-5 5h-43a5 5 0 0 1-5-5v-35a5 5 0 0 1 5-5" clip-path="url(#f-1)" style="fill:url(#linearGradient2753);filter:url(#d-4)"/><path d="m6.7453 2.35h36.509a4.2453 4.7 0 0 1 4.2453 4.7v32.9a4.2453 4.7 0 0 1-4.2453 4.7h-36.509a4.2453 4.7 0 0 1-4.2453-4.7v-32.9a4.2453 4.7 0 0 1 4.2453-4.7"/><path transform="matrix(.9434 0 0 1.0444 -.9434 -1.0444)" d="m8.15 3.25h38.7a4.5 4.5 0 0 1 4.5 4.5v31.5a4.5 4.5 0 0 1-4.5 4.5h-38.7a4.5 4.5 0 0 1-4.5-4.5v-31.5a4.5 4.5 0 0 1 4.5-4.5" clip-path="url(#e-2)" style="fill:url(#linearGradient2755);filter:url(#c-9)"/></g><g transform="matrix(.96 0 0 1.0213 74.4 420)" style="fill-rule:evenodd;fill:#0023d9"><path d="m4.717-2e-5h40.566a4.717 5.2222 0 0 1 4.717 5.2222v36.556a4.717 5.2222 0 0 1-4.717 5.2222h-40.566a4.717 5.2222 0 0 1-4.717-5.2222v-36.556a4.717 5.2222 0 0 1 4.717-5.2222"/><path transform="matrix(.9434 0 0 1.0444 -.9434 -1.0444)" d="m6 1h43a5 5 0 0 1 5 5v35a5 5 0 0 1-5 5h-43a5 5 0 0 1-5-5v-35a5 5 0 0 1 5-5" clip-path="url(#f-1)" style="fill:url(#linearGradient2753);filter:url(#d-4)"/><path d="m6.7453 2.35h36.509a4.2453 4.7 0 0 1 4.2453 4.7v32.9a4.2453 4.7 0 0 1-4.2453 4.7h-36.509a4.2453 4.7 0 0 1-4.2453-4.7v-32.9a4.2453 4.7 0 0 1 4.2453-4.7"/><path transform="matrix(.9434 0 0 1.0444 -.9434 -1.0444)" d="m8.15 3.25h38.7a4.5 4.5 0 0 1 4.5 4.5v31.5a4.5 4.5 0 0 1-4.5 4.5h-38.7a4.5 4.5 0 0 1-4.5-4.5v-31.5a4.5 4.5 0 0 1 4.5-4.5" clip-path="url(#e-2)" style="fill:url(#linearGradient2755);filter:url(#c-9)"/></g><g transform="matrix(.96 0 0 1.0213 74.4 477.6)" style="fill-rule:evenodd;fill:#4d00f1"><path d="m4.717-2e-5h40.566a4.717 5.2222 0 0 1 4.717 5.2222v36.556a4.717 5.2222 0 0 1-4.717 5.2222h-40.566a4.717 5.2222 0 0 1-4.717-5.2222v-36.556a4.717 5.2222 0 0 1 4.717-5.2222"/><path transform="matrix(.9434 0 0 1.0444 -.9434 -1.0444)" d="m6 1h43a5 5 0 0 1 5 5v35a5 5 0 0 1-5 5h-43a5 5 0 0 1-5-5v-35a5 5 0 0 1 5-5" clip-path="url(#f-1)" style="fill:url(#linearGradient2753);filter:url(#d-4)"/><path d="m6.7453 2.35h36.509a4.2453 4.7 0 0 1 4.2453 4.7v32.9a4.2453 4.7 0 0 1-4.2453 4.7h-36.509a4.2453 4.7 0 0 1-4.2453-4.7v-32.9a4.2453 4.7 0 0 1 4.2453-4.7"/><path transform="matrix(.9434 0 0 1.0444 -.9434 -1.0444)" d="m8.15 3.25h38.7a4.5 4.5 0 0 1 4.5 4.5v31.5a4.5 4.5 0 0 1-4.5 4.5h-38.7a4.5 4.5 0 0 1-4.5-4.5v-31.5a4.5 4.5 0 0 1 4.5-4.5" clip-path="url(#e-2)" style="fill:url(#linearGradient2755);filter:url(#c-9)"/></g><g transform="matrix(.96 0 0 1.0213 74.4 535.2)" style="fill-rule:evenodd;fill:#d943ff"><path d="m4.717-2e-5h40.566a4.717 5.2222 0 0 1 4.717 5.2222v36.556a4.717 5.2222 0 0 1-4.717 5.2222h-40.566a4.717 5.2222 0 0 1-4.717-5.2222v-36.556a4.717 5.2222 0 0 1 4.717-5.2222"/><path transform="matrix(.9434 0 0 1.0444 -.9434 -1.0444)" d="m6 1h43a5 5 0 0 1 5 5v35a5 5 0 0 1-5 5h-43a5 5 0 0 1-5-5v-35a5 5 0 0 1 5-5" clip-path="url(#f-1)" style="fill:url(#linearGradient2753);filter:url(#d-4)"/><path d="m6.7453 2.35h36.509a4.2453 4.7 0 0 1 4.2453 4.7v32.9a4.2453 4.7 0 0 1-4.2453 4.7h-36.509a4.2453 4.7 0 0 1-4.2453-4.7v-32.9a4.2453 4.7 0 0 1 4.2453-4.7"/><path transform="matrix(.9434 0 0 1.0444 -.9434 -1.0444)" d="m8.15 3.25h38.7a4.5 4.5 0 0 1 4.5 4.5v31.5a4.5 4.5 0 0 1-4.5 4.5h-38.7a4.5 4.5 0 0 1-4.5-4.5v-31.5a4.5 4.5 0 0 1 4.5-4.5" clip-path="url(#e-2)" style="fill:url(#linearGradient2755);filter:url(#c-9)"/></g><g transform="matrix(.96 0 0 1.0213 132 16.8)" style="fill-rule:evenodd;fill:#f3ea19"><path d="m4.717-2e-5h40.566a4.717 5.2222 0 0 1 4.717 5.2222v36.556a4.717 5.2222 0 0 1-4.717 5.2222h-40.566a4.717 5.2222 0 0 1-4.717-5.2222v-36.556a4.717 5.2222 0 0 1 4.717-5.2222"/><path transform="matrix(.9434 0 0 1.0444 -.9434 -1.0444)" d="m6 1h43a5 5 0 0 1 5 5v35a5 5 0 0 1-5 5h-43a5 5 0 0 1-5-5v-35a5 5 0 0 1 5-5" clip-path="url(#f-1)" style="fill:url(#linearGradient2753);filter:url(#d-4)"/><path d="m6.7453 2.35h36.509a4.2453 4.7 0 0 1 4.2453 4.7v32.9a4.2453 4.7 0 0 1-4.2453 4.7h-36.509a4.2453 4.7 0 0 1-4.2453-4.7v-32.9a4.2453 4.7 0 0 1 4.2453-4.7"/><path transform="matrix(.9434 0 0 1.0444 -.9434 -1.0444)" d="m8.15 3.25h38.7a4.5 4.5 0 0 1 4.5 4.5v31.5a4.5 4.5 0 0 1-4.5 4.5h-38.7a4.5 4.5 0 0 1-4.5-4.5v-31.5a4.5 4.5 0 0 1 4.5-4.5" clip-path="url(#e-2)" style="fill:url(#linearGradient2755);filter:url(#c-9)"/></g><g transform="matrix(.96 0 0 1.0213 132 74.4)" style="fill-rule:evenodd;fill:#7cdd00"><path d="m4.717-2e-5h40.566a4.717 5.2222 0 0 1 4.717 5.2222v36.556a4.717 5.2222 0 0 1-4.717 5.2222h-40.566a4.717 5.2222 0 0 1-4.717-5.2222v-36.556a4.717 5.2222 0 0 1 4.717-5.2222"/><path transform="matrix(.9434 0 0 1.0444 -.9434 -1.0444)" d="m6 1h43a5 5 0 0 1 5 5v35a5 5 0 0 1-5 5h-43a5 5 0 0 1-5-5v-35a5 5 0 0 1 5-5" clip-path="url(#f-1)" style="fill:url(#linearGradient2753);filter:url(#d-4)"/><path d="m6.7453 2.35h36.509a4.2453 4.7 0 0 1 4.2453 4.7v32.9a4.2453 4.7 0 0 1-4.2453 4.7h-36.509a4.2453 4.7 0 0 1-4.2453-4.7v-32.9a4.2453 4.7 0 0 1 4.2453-4.7"/><path transform="matrix(.9434 0 0 1.0444 -.9434 -1.0444)" d="m8.15 3.25h38.7a4.5 4.5 0 0 1 4.5 4.5v31.5a4.5 4.5 0 0 1-4.5 4.5h-38.7a4.5 4.5 0 0 1-4.5-4.5v-31.5a4.5 4.5 0 0 1 4.5-4.5" clip-path="url(#e-2)" style="fill:url(#linearGradient2755);filter:url(#c-9)"/></g><g transform="matrix(.96 0 0 1.0213 132 132)" style="fill-rule:evenodd;fill:#3bff2a"><path d="m4.717-2e-5h40.566a4.717 5.2222 0 0 1 4.717 5.2222v36.556a4.717 5.2222 0 0 1-4.717 5.2222h-40.566a4.717 5.2222 0 0 1-4.717-5.2222v-36.556a4.717 5.2222 0 0 1 4.717-5.2222"/><path transform="matrix(.9434 0 0 1.0444 -.9434 -1.0444)" d="m6 1h43a5 5 0 0 1 5 5v35a5 5 0 0 1-5 5h-43a5 5 0 0 1-5-5v-35a5 5 0 0 1 5-5" clip-path="url(#f-1)" style="fill:url(#linearGradient2753);filter:url(#d-4)"/><path d="m6.7453 2.35h36.509a4.2453 4.7 0 0 1 4.2453 4.7v32.9a4.2453 4.7 0 0 1-4.2453 4.7h-36.509a4.2453 4.7 0 0 1-4.2453-4.7v-32.9a4.2453 4.7 0 0 1 4.2453-4.7"/><path transform="matrix(.9434 0 0 1.0444 -.9434 -1.0444)" d="m8.15 3.25h38.7a4.5 4.5 0 0 1 4.5 4.5v31.5a4.5 4.5 0 0 1-4.5 4.5h-38.7a4.5 4.5 0 0 1-4.5-4.5v-31.5a4.5 4.5 0 0 1 4.5-4.5" clip-path="url(#e-2)" style="fill:url(#linearGradient2755);filter:url(#c-9)"/></g><g transform="matrix(.96 0 0 1.0213 132 189.6)" style="fill-rule:evenodd;fill:#1cff77"><path d="m4.717-2e-5h40.566a4.717 5.2222 0 0 1 4.717 5.2222v36.556a4.717 5.2222 0 0 1-4.717 5.2222h-40.566a4.717 5.2222 0 0 1-4.717-5.2222v-36.556a4.717 5.2222 0 0 1 4.717-5.2222"/><path transform="matrix(.9434 0 0 1.0444 -.9434 -1.0444)" d="m6 1h43a5 5 0 0 1 5 5v35a5 5 0 0 1-5 5h-43a5 5 0 0 1-5-5v-35a5 5 0 0 1 5-5" clip-path="url(#f-1)" style="fill:url(#linearGradient2753);filter:url(#d-4)"/><path d="m6.7453 2.35h36.509a4.2453 4.7 0 0 1 4.2453 4.7v32.9a4.2453 4.7 0 0 1-4.2453 4.7h-36.509a4.2453 4.7 0 0 1-4.2453-4.7v-32.9a4.2453 4.7 0 0 1 4.2453-4.7"/><path transform="matrix(.9434 0 0 1.0444 -.9434 -1.0444)" d="m8.15 3.25h38.7a4.5 4.5 0 0 1 4.5 4.5v31.5a4.5 4.5 0 0 1-4.5 4.5h-38.7a4.5 4.5 0 0 1-4.5-4.5v-31.5a4.5 4.5 0 0 1 4.5-4.5" clip-path="url(#e-2)" style="fill:url(#linearGradient2755);filter:url(#c-9)"/></g><g transform="matrix(.96 0 0 1.0213 132 247.2)" style="fill-rule:evenodd;fill:#11ffe2"><path d="m4.717-2e-5h40.566a4.717 5.2222 0 0 1 4.717 5.2222v36.556a4.717 5.2222 0 0 1-4.717 5.2222h-40.566a4.717 5.2222 0 0 1-4.717-5.2222v-36.556a4.717 5.2222 0 0 1 4.717-5.2222"/><path transform="matrix(.9434 0 0 1.0444 -.9434 -1.0444)" d="m6 1h43a5 5 0 0 1 5 5v35a5 5 0 0 1-5 5h-43a5 5 0 0 1-5-5v-35a5 5 0 0 1 5-5" clip-path="url(#f-1)" style="fill:url(#linearGradient2753);filter:url(#d-4)"/><path d="m6.7453 2.35h36.509a4.2453 4.7 0 0 1 4.2453 4.7v32.9a4.2453 4.7 0 0 1-4.2453 4.7h-36.509a4.2453 4.7 0 0 1-4.2453-4.7v-32.9a4.2453 4.7 0 0 1 4.2453-4.7"/><path transform="matrix(.9434 0 0 1.0444 -.9434 -1.0444)" d="m8.15 3.25h38.7a4.5 4.5 0 0 1 4.5 4.5v31.5a4.5 4.5 0 0 1-4.5 4.5h-38.7a4.5 4.5 0 0 1-4.5-4.5v-31.5a4.5 4.5 0 0 1 4.5-4.5" clip-path="url(#e-2)" style="fill:url(#linearGradient2755);filter:url(#c-9)"/></g><g transform="matrix(.96 0 0 1.0213 132 304.8)" style="fill-rule:evenodd;fill:#1caafa"><path d="m4.717-2e-5h40.566a4.717 5.2222 0 0 1 4.717 5.2222v36.556a4.717 5.2222 0 0 1-4.717 5.2222h-40.566a4.717 5.2222 0 0 1-4.717-5.2222v-36.556a4.717 5.2222 0 0 1 4.717-5.2222"/><path transform="matrix(.9434 0 0 1.0444 -.9434 -1.0444)" d="m6 1h43a5 5 0 0 1 5 5v35a5 5 0 0 1-5 5h-43a5 5 0 0 1-5-5v-35a5 5 0 0 1 5-5" clip-path="url(#f-1)" style="fill:url(#linearGradient2753);filter:url(#d-4)"/><path d="m6.7453 2.35h36.509a4.2453 4.7 0 0 1 4.2453 4.7v32.9a4.2453 4.7 0 0 1-4.2453 4.7h-36.509a4.2453 4.7 0 0 1-4.2453-4.7v-32.9a4.2453 4.7 0 0 1 4.2453-4.7"/><path transform="matrix(.9434 0 0 1.0444 -.9434 -1.0444)" d="m8.15 3.25h38.7a4.5 4.5 0 0 1 4.5 4.5v31.5a4.5 4.5 0 0 1-4.5 4.5h-38.7a4.5 4.5 0 0 1-4.5-4.5v-31.5a4.5 4.5 0 0 1 4.5-4.5" clip-path="url(#e-2)" style="fill:url(#linearGradient2755);filter:url(#c-9)"/></g><g transform="matrix(.96 0 0 1.0213 132 362.4)" style="fill-rule:evenodd;fill:#153afe"><path d="m4.717-2e-5h40.566a4.717 5.2222 0 0 1 4.717 5.2222v36.556a4.717 5.2222 0 0 1-4.717 5.2222h-40.566a4.717 5.2222 0 0 1-4.717-5.2222v-36.556a4.717 5.2222 0 0 1 4.717-5.2222"/><path transform="matrix(.9434 0 0 1.0444 -.9434 -1.0444)" d="m6 1h43a5 5 0 0 1 5 5v35a5 5 0 0 1-5 5h-43a5 5 0 0 1-5-5v-35a5 5 0 0 1 5-5" clip-path="url(#f-1)" style="fill:url(#linearGradient2753);filter:url(#d-4)"/><path d="m6.7453 2.35h36.509a4.2453 4.7 0 0 1 4.2453 4.7v32.9a4.2453 4.7 0 0 1-4.2453 4.7h-36.509a4.2453 4.7 0 0 1-4.2453-4.7v-32.9a4.2453 4.7 0 0 1 4.2453-4.7"/><path transform="matrix(.9434 0 0 1.0444 -.9434 -1.0444)" d="m8.15 3.25h38.7a4.5 4.5 0 0 1 4.5 4.5v31.5a4.5 4.5 0 0 1-4.5 4.5h-38.7a4.5 4.5 0 0 1-4.5-4.5v-31.5a4.5 4.5 0 0 1 4.5-4.5" clip-path="url(#e-2)" style="fill:url(#linearGradient2755);filter:url(#c-9)"/></g><g transform="matrix(.96 0 0 1.0213 132 420)" style="fill-rule:evenodd;fill:#6117ff"><path d="m4.717-2e-5h40.566a4.717 5.2222 0 0 1 4.717 5.2222v36.556a4.717 5.2222 0 0 1-4.717 5.2222h-40.566a4.717 5.2222 0 0 1-4.717-5.2222v-36.556a4.717 5.2222 0 0 1 4.717-5.2222"/><path transform="matrix(.9434 0 0 1.0444 -.9434 -1.0444)" d="m6 1h43a5 5 0 0 1 5 5v35a5 5 0 0 1-5 5h-43a5 5 0 0 1-5-5v-35a5 5 0 0 1 5-5" clip-path="url(#f-1)" style="fill:url(#linearGradient2753);filter:url(#d-4)"/><path d="m6.7453 2.35h36.509a4.2453 4.7 0 0 1 4.2453 4.7v32.9a4.2453 4.7 0 0 1-4.2453 4.7h-36.509a4.2453 4.7 0 0 1-4.2453-4.7v-32.9a4.2453 4.7 0 0 1 4.2453-4.7"/><path transform="matrix(.9434 0 0 1.0444 -.9434 -1.0444)" d="m8.15 3.25h38.7a4.5 4.5 0 0 1 4.5 4.5v31.5a4.5 4.5 0 0 1-4.5 4.5h-38.7a4.5 4.5 0 0 1-4.5-4.5v-31.5a4.5 4.5 0 0 1 4.5-4.5" clip-path="url(#e-2)" style="fill:url(#linearGradient2755);filter:url(#c-9)"/></g><g transform="matrix(.96 0 0 1.0213 132 477.6)" style="fill-rule:evenodd;fill:#d21cff"><path d="m4.717-2e-5h40.566a4.717 5.2222 0 0 1 4.717 5.2222v36.556a4.717 5.2222 0 0 1-4.717 5.2222h-40.566a4.717 5.2222 0 0 1-4.717-5.2222v-36.556a4.717 5.2222 0 0 1 4.717-5.2222"/><path transform="matrix(.9434 0 0 1.0444 -.9434 -1.0444)" d="m6 1h43a5 5 0 0 1 5 5v35a5 5 0 0 1-5 5h-43a5 5 0 0 1-5-5v-35a5 5 0 0 1 5-5" clip-path="url(#f-1)" style="fill:url(#linearGradient2753);filter:url(#d-4)"/><path d="m6.7453 2.35h36.509a4.2453 4.7 0 0 1 4.2453 4.7v32.9a4.2453 4.7 0 0 1-4.2453 4.7h-36.509a4.2453 4.7 0 0 1-4.2453-4.7v-32.9a4.2453 4.7 0 0 1 4.2453-4.7"/><path transform="matrix(.9434 0 0 1.0444 -.9434 -1.0444)" d="m8.15 3.25h38.7a4.5 4.5 0 0 1 4.5 4.5v31.5a4.5 4.5 0 0 1-4.5 4.5h-38.7a4.5 4.5 0 0 1-4.5-4.5v-31.5a4.5 4.5 0 0 1 4.5-4.5" clip-path="url(#e-2)" style="fill:url(#linearGradient2755);filter:url(#c-9)"/></g><g transform="matrix(.96 0 0 1.0213 132 535.2)" style="fill-rule:evenodd;fill:#ff24c2"><path d="m4.717-2e-5h40.566a4.717 5.2222 0 0 1 4.717 5.2222v36.556a4.717 5.2222 0 0 1-4.717 5.2222h-40.566a4.717 5.2222 0 0 1-4.717-5.2222v-36.556a4.717 5.2222 0 0 1 4.717-5.2222"/><path transform="matrix(.9434 0 0 1.0444 -.9434 -1.0444)" d="m6 1h43a5 5 0 0 1 5 5v35a5 5 0 0 1-5 5h-43a5 5 0 0 1-5-5v-35a5 5 0 0 1 5-5" clip-path="url(#f-1)" style="fill:url(#linearGradient2753);filter:url(#d-4)"/><path d="m6.7453 2.35h36.509a4.2453 4.7 0 0 1 4.2453 4.7v32.9a4.2453 4.7 0 0 1-4.2453 4.7h-36.509a4.2453 4.7 0 0 1-4.2453-4.7v-32.9a4.2453 4.7 0 0 1 4.2453-4.7"/><path transform="matrix(.9434 0 0 1.0444 -.9434 -1.0444)" d="m8.15 3.25h38.7a4.5 4.5 0 0 1 4.5 4.5v31.5a4.5 4.5 0 0 1-4.5 4.5h-38.7a4.5 4.5 0 0 1-4.5-4.5v-31.5a4.5 4.5 0 0 1 4.5-4.5" clip-path="url(#e-2)" style="fill:url(#linearGradient2755);filter:url(#c-9)"/></g><g transform="matrix(.96 0 0 1.0213 189.6 16.8)" style="fill-rule:evenodd;fill:#87ee04"><path d="m4.717-2e-5h40.566a4.717 5.2222 0 0 1 4.717 5.2222v36.556a4.717 5.2222 0 0 1-4.717 5.2222h-40.566a4.717 5.2222 0 0 1-4.717-5.2222v-36.556a4.717 5.2222 0 0 1 4.717-5.2222"/><path transform="matrix(.9434 0 0 1.0444 -.9434 -1.0444)" d="m6 1h43a5 5 0 0 1 5 5v35a5 5 0 0 1-5 5h-43a5 5 0 0 1-5-5v-35a5 5 0 0 1 5-5" clip-path="url(#f-1)" style="fill:url(#linearGradient2753);filter:url(#d-4)"/><path d="m6.7453 2.35h36.509a4.2453 4.7 0 0 1 4.2453 4.7v32.9a4.2453 4.7 0 0 1-4.2453 4.7h-36.509a4.2453 4.7 0 0 1-4.2453-4.7v-32.9a4.2453 4.7 0 0 1 4.2453-4.7"/><path transform="matrix(.9434 0 0 1.0444 -.9434 -1.0444)" d="m8.15 3.25h38.7a4.5 4.5 0 0 1 4.5 4.5v31.5a4.5 4.5 0 0 1-4.5 4.5h-38.7a4.5 4.5 0 0 1-4.5-4.5v-31.5a4.5 4.5 0 0 1 4.5-4.5" clip-path="url(#e-2)" style="fill:url(#linearGradient2755);filter:url(#c-9)"/></g><g transform="matrix(.96 0 0 1.0213 189.6 74.4)" style="fill-rule:evenodd;fill:#1ce60a"><path d="m4.717-2e-5h40.566a4.717 5.2222 0 0 1 4.717 5.2222v36.556a4.717 5.2222 0 0 1-4.717 5.2222h-40.566a4.717 5.2222 0 0 1-4.717-5.2222v-36.556a4.717 5.2222 0 0 1 4.717-5.2222"/><path transform="matrix(.9434 0 0 1.0444 -.9434 -1.0444)" d="m6 1h43a5 5 0 0 1 5 5v35a5 5 0 0 1-5 5h-43a5 5 0 0 1-5-5v-35a5 5 0 0 1 5-5" clip-path="url(#f-1)" style="fill:url(#linearGradient2753);filter:url(#d-4)"/><path d="m6.7453 2.35h36.509a4.2453 4.7 0 0 1 4.2453 4.7v32.9a4.2453 4.7 0 0 1-4.2453 4.7h-36.509a4.2453 4.7 0 0 1-4.2453-4.7v-32.9a4.2453 4.7 0 0 1 4.2453-4.7"/><path transform="matrix(.9434 0 0 1.0444 -.9434 -1.0444)" d="m8.15 3.25h38.7a4.5 4.5 0 0 1 4.5 4.5v31.5a4.5 4.5 0 0 1-4.5 4.5h-38.7a4.5 4.5 0 0 1-4.5-4.5v-31.5a4.5 4.5 0 0 1 4.5-4.5" clip-path="url(#e-2)" style="fill:url(#linearGradient2755);filter:url(#c-9)"/></g><g transform="matrix(.96 0 0 1.0213 189.6 132)" style="fill-rule:evenodd;fill:#00c54f"><path d="m4.717-2e-5h40.566a4.717 5.2222 0 0 1 4.717 5.2222v36.556a4.717 5.2222 0 0 1-4.717 5.2222h-40.566a4.717 5.2222 0 0 1-4.717-5.2222v-36.556a4.717 5.2222 0 0 1 4.717-5.2222"/><path transform="matrix(.9434 0 0 1.0444 -.9434 -1.0444)" d="m6 1h43a5 5 0 0 1 5 5v35a5 5 0 0 1-5 5h-43a5 5 0 0 1-5-5v-35a5 5 0 0 1 5-5" clip-path="url(#f-1)" style="fill:url(#linearGradient2753);filter:url(#d-4)"/><path d="m6.7453 2.35h36.509a4.2453 4.7 0 0 1 4.2453 4.7v32.9a4.2453 4.7 0 0 1-4.2453 4.7h-36.509a4.2453 4.7 0 0 1-4.2453-4.7v-32.9a4.2453 4.7 0 0 1 4.2453-4.7"/><path transform="matrix(.9434 0 0 1.0444 -.9434 -1.0444)" d="m8.15 3.25h38.7a4.5 4.5 0 0 1 4.5 4.5v31.5a4.5 4.5 0 0 1-4.5 4.5h-38.7a4.5 4.5 0 0 1-4.5-4.5v-31.5a4.5 4.5 0 0 1 4.5-4.5" clip-path="url(#e-2)" style="fill:url(#linearGradient2755);filter:url(#c-9)"/></g><g transform="matrix(.96 0 0 1.0213 189.6 189.6)" style="fill-rule:evenodd;fill:#00dfc5"><path d="m4.717-2e-5h40.566a4.717 5.2222 0 0 1 4.717 5.2222v36.556a4.717 5.2222 0 0 1-4.717 5.2222h-40.566a4.717 5.2222 0 0 1-4.717-5.2222v-36.556a4.717 5.2222 0 0 1 4.717-5.2222"/><path transform="matrix(.9434 0 0 1.0444 -.9434 -1.0444)" d="m6 1h43a5 5 0 0 1 5 5v35a5 5 0 0 1-5 5h-43a5 5 0 0 1-5-5v-35a5 5 0 0 1 5-5" clip-path="url(#f-1)" style="fill:url(#linearGradient2753);filter:url(#d-4)"/><path d="m6.7453 2.35h36.509a4.2453 4.7 0 0 1 4.2453 4.7v32.9a4.2453 4.7 0 0 1-4.2453 4.7h-36.509a4.2453 4.7 0 0 1-4.2453-4.7v-32.9a4.2453 4.7 0 0 1 4.2453-4.7"/><path transform="matrix(.9434 0 0 1.0444 -.9434 -1.0444)" d="m8.15 3.25h38.7a4.5 4.5 0 0 1 4.5 4.5v31.5a4.5 4.5 0 0 1-4.5 4.5h-38.7a4.5 4.5 0 0 1-4.5-4.5v-31.5a4.5 4.5 0 0 1 4.5-4.5" clip-path="url(#e-2)" style="fill:url(#linearGradient2755);filter:url(#c-9)"/></g><g transform="matrix(.96 0 0 1.0213 189.6 247.2)" style="fill-rule:evenodd;fill:#0076b9"><path d="m4.717-2e-5h40.566a4.717 5.2222 0 0 1 4.717 5.2222v36.556a4.717 5.2222 0 0 1-4.717 5.2222h-40.566a4.717 5.2222 0 0 1-4.717-5.2222v-36.556a4.717 5.2222 0 0 1 4.717-5.2222"/><path transform="matrix(.9434 0 0 1.0444 -.9434 -1.0444)" d="m6 1h43a5 5 0 0 1 5 5v35a5 5 0 0 1-5 5h-43a5 5 0 0 1-5-5v-35a5 5 0 0 1 5-5" clip-path="url(#f-1)" style="fill:url(#linearGradient2753);filter:url(#d-4)"/><path d="m6.7453 2.35h36.509a4.2453 4.7 0 0 1 4.2453 4.7v32.9a4.2453 4.7 0 0 1-4.2453 4.7h-36.509a4.2453 4.7 0 0 1-4.2453-4.7v-32.9a4.2453 4.7 0 0 1 4.2453-4.7"/><path transform="matrix(.9434 0 0 1.0444 -.9434 -1.0444)" d="m8.15 3.25h38.7a4.5 4.5 0 0 1 4.5 4.5v31.5a4.5 4.5 0 0 1-4.5 4.5h-38.7a4.5 4.5 0 0 1-4.5-4.5v-31.5a4.5 4.5 0 0 1 4.5-4.5" clip-path="url(#e-2)" style="fill:url(#linearGradient2755);filter:url(#c-9)"/></g><g transform="matrix(.96 0 0 1.0213 189.6 304.8)" style="fill-rule:evenodd;fill:#1c40ff"><path d="m4.717-2e-5h40.566a4.717 5.2222 0 0 1 4.717 5.2222v36.556a4.717 5.2222 0 0 1-4.717 5.2222h-40.566a4.717 5.2222 0 0 1-4.717-5.2222v-36.556a4.717 5.2222 0 0 1 4.717-5.2222"/><path transform="matrix(.9434 0 0 1.0444 -.9434 -1.0444)" d="m6 1h43a5 5 0 0 1 5 5v35a5 5 0 0 1-5 5h-43a5 5 0 0 1-5-5v-35a5 5 0 0 1 5-5" clip-path="url(#f-1)" style="fill:url(#linearGradient2753);filter:url(#d-4)"/><path d="m6.7453 2.35h36.509a4.2453 4.7 0 0 1 4.2453 4.7v32.9a4.2453 4.7 0 0 1-4.2453 4.7h-36.509a4.2453 4.7 0 0 1-4.2453-4.7v-32.9a4.2453 4.7 0 0 1 4.2453-4.7"/><path transform="matrix(.9434 0 0 1.0444 -.9434 -1.0444)" d="m8.15 3.25h38.7a4.5 4.5 0 0 1 4.5 4.5v31.5a4.5 4.5 0 0 1-4.5 4.5h-38.7a4.5 4.5 0 0 1-4.5-4.5v-31.5a4.5 4.5 0 0 1 4.5-4.5" clip-path="url(#e-2)" style="fill:url(#linearGradient2755);filter:url(#c-9)"/></g><g transform="matrix(.96 0 0 1.0213 189.6 362.4)" style="fill-rule:evenodd;fill:#4900e3"><path d="m4.717-2e-5h40.566a4.717 5.2222 0 0 1 4.717 5.2222v36.556a4.717 5.2222 0 0 1-4.717 5.2222h-40.566a4.717 5.2222 0 0 1-4.717-5.2222v-36.556a4.717 5.2222 0 0 1 4.717-5.2222"/><path transform="matrix(.9434 0 0 1.0444 -.9434 -1.0444)" d="m6 1h43a5 5 0 0 1 5 5v35a5 5 0 0 1-5 5h-43a5 5 0 0 1-5-5v-35a5 5 0 0 1 5-5" clip-path="url(#f-1)" style="fill:url(#linearGradient2753);filter:url(#d-4)"/><path d="m6.7453 2.35h36.509a4.2453 4.7 0 0 1 4.2453 4.7v32.9a4.2453 4.7 0 0 1-4.2453 4.7h-36.509a4.2453 4.7 0 0 1-4.2453-4.7v-32.9a4.2453 4.7 0 0 1 4.2453-4.7"/><path transform="matrix(.9434 0 0 1.0444 -.9434 -1.0444)" d="m8.15 3.25h38.7a4.5 4.5 0 0 1 4.5 4.5v31.5a4.5 4.5 0 0 1-4.5 4.5h-38.7a4.5 4.5 0 0 1-4.5-4.5v-31.5a4.5 4.5 0 0 1 4.5-4.5" clip-path="url(#e-2)" style="fill:url(#linearGradient2755);filter:url(#c-9)"/></g><g transform="matrix(.96 0 0 1.0213 189.6 420)" style="fill-rule:evenodd;fill:#a000c8"><path d="m4.717-2e-5h40.566a4.717 5.2222 0 0 1 4.717 5.2222v36.556a4.717 5.2222 0 0 1-4.717 5.2222h-40.566a4.717 5.2222 0 0 1-4.717-5.2222v-36.556a4.717 5.2222 0 0 1 4.717-5.2222"/><path transform="matrix(.9434 0 0 1.0444 -.9434 -1.0444)" d="m6 1h43a5 5 0 0 1 5 5v35a5 5 0 0 1-5 5h-43a5 5 0 0 1-5-5v-35a5 5 0 0 1 5-5" clip-path="url(#f-1)" style="fill:url(#linearGradient2753);filter:url(#d-4)"/><path d="m6.7453 2.35h36.509a4.2453 4.7 0 0 1 4.2453 4.7v32.9a4.2453 4.7 0 0 1-4.2453 4.7h-36.509a4.2453 4.7 0 0 1-4.2453-4.7v-32.9a4.2453 4.7 0 0 1 4.2453-4.7"/><path transform="matrix(.9434 0 0 1.0444 -.9434 -1.0444)" d="m8.15 3.25h38.7a4.5 4.5 0 0 1 4.5 4.5v31.5a4.5 4.5 0 0 1-4.5 4.5h-38.7a4.5 4.5 0 0 1-4.5-4.5v-31.5a4.5 4.5 0 0 1 4.5-4.5" clip-path="url(#e-2)" style="fill:url(#linearGradient2755);filter:url(#c-9)"/></g><g transform="matrix(.96 0 0 1.0213 189.6 477.6)" style="fill-rule:evenodd;fill:#fd2ac2"><path d="m4.717-2e-5h40.566a4.717 5.2222 0 0 1 4.717 5.2222v36.556a4.717 5.2222 0 0 1-4.717 5.2222h-40.566a4.717 5.2222 0 0 1-4.717-5.2222v-36.556a4.717 5.2222 0 0 1 4.717-5.2222"/><path transform="matrix(.9434 0 0 1.0444 -.9434 -1.0444)" d="m6 1h43a5 5 0 0 1 5 5v35a5 5 0 0 1-5 5h-43a5 5 0 0 1-5-5v-35a5 5 0 0 1 5-5" clip-path="url(#f-1)" style="fill:url(#linearGradient2753);filter:url(#d-4)"/><path d="m6.7453 2.35h36.509a4.2453 4.7 0 0 1 4.2453 4.7v32.9a4.2453 4.7 0 0 1-4.2453 4.7h-36.509a4.2453 4.7 0 0 1-4.2453-4.7v-32.9a4.2453 4.7 0 0 1 4.2453-4.7"/><path transform="matrix(.9434 0 0 1.0444 -.9434 -1.0444)" d="m8.15 3.25h38.7a4.5 4.5 0 0 1 4.5 4.5v31.5a4.5 4.5 0 0 1-4.5 4.5h-38.7a4.5 4.5 0 0 1-4.5-4.5v-31.5a4.5 4.5 0 0 1 4.5-4.5" clip-path="url(#e-2)" style="fill:url(#linearGradient2755);filter:url(#c-9)"/></g><g transform="matrix(.96 0 0 1.0213 189.6 535.2)" style="fill-rule:evenodd;fill:#c30231"><path d="m4.717-2e-5h40.566a4.717 5.2222 0 0 1 4.717 5.2222v36.556a4.717 5.2222 0 0 1-4.717 5.2222h-40.566a4.717 5.2222 0 0 1-4.717-5.2222v-36.556a4.717 5.2222 0 0 1 4.717-5.2222"/><path transform="matrix(.9434 0 0 1.0444 -.9434 -1.0444)" d="m6 1h43a5 5 0 0 1 5 5v35a5 5 0 0 1-5 5h-43a5 5 0 0 1-5-5v-35a5 5 0 0 1 5-5" clip-path="url(#f-1)" style="fill:url(#linearGradient2753);filter:url(#d-4)"/><path d="m6.7453 2.35h36.509a4.2453 4.7 0 0 1 4.2453 4.7v32.9a4.2453 4.7 0 0 1-4.2453 4.7h-36.509a4.2453 4.7 0 0 1-4.2453-4.7v-32.9a4.2453 4.7 0 0 1 4.2453-4.7"/><path transform="matrix(.9434 0 0 1.0444 -.9434 -1.0444)" d="m8.15 3.25h38.7a4.5 4.5 0 0 1 4.5 4.5v31.5a4.5 4.5 0 0 1-4.5 4.5h-38.7a4.5 4.5 0 0 1-4.5-4.5v-31.5a4.5 4.5 0 0 1 4.5-4.5" clip-path="url(#e-2)" style="fill:url(#linearGradient2755);filter:url(#c-9)"/></g><g transform="matrix(.96 0 0 1.0213 247.2 16.8)" style="fill-rule:evenodd;fill:#34fe22"><path d="m4.717-2e-5h40.566a4.717 5.2222 0 0 1 4.717 5.2222v36.556a4.717 5.2222 0 0 1-4.717 5.2222h-40.566a4.717 5.2222 0 0 1-4.717-5.2222v-36.556a4.717 5.2222 0 0 1 4.717-5.2222"/><path transform="matrix(.9434 0 0 1.0444 -.9434 -1.0444)" d="m6 1h43a5 5 0 0 1 5 5v35a5 5 0 0 1-5 5h-43a5 5 0 0 1-5-5v-35a5 5 0 0 1 5-5" clip-path="url(#f-1)" style="fill:url(#linearGradient2753);filter:url(#d-4)"/><path d="m6.7453 2.35h36.509a4.2453 4.7 0 0 1 4.2453 4.7v32.9a4.2453 4.7 0 0 1-4.2453 4.7h-36.509a4.2453 4.7 0 0 1-4.2453-4.7v-32.9a4.2453 4.7 0 0 1 4.2453-4.7"/><path transform="matrix(.9434 0 0 1.0444 -.9434 -1.0444)" d="m8.15 3.25h38.7a4.5 4.5 0 0 1 4.5 4.5v31.5a4.5 4.5 0 0 1-4.5 4.5h-38.7a4.5 4.5 0 0 1-4.5-4.5v-31.5a4.5 4.5 0 0 1 4.5-4.5" clip-path="url(#e-2)" style="fill:url(#linearGradient2755);filter:url(#c-9)"/></g><g transform="matrix(.96 0 0 1.0213 247.2 74.4)" style="fill-rule:evenodd;fill:#37ff87"><path d="m4.717-2e-5h40.566a4.717 5.2222 0 0 1 4.717 5.2222v36.556a4.717 5.2222 0 0 1-4.717 5.2222h-40.566a4.717 5.2222 0 0 1-4.717-5.2222v-36.556a4.717 5.2222 0 0 1 4.717-5.2222"/><path transform="matrix(.9434 0 0 1.0444 -.9434 -1.0444)" d="m6 1h43a5 5 0 0 1 5 5v35a5 5 0 0 1-5 5h-43a5 5 0 0 1-5-5v-35a5 5 0 0 1 5-5" clip-path="url(#f-1)" style="fill:url(#linearGradient2753);filter:url(#d-4)"/><path d="m6.7453 2.35h36.509a4.2453 4.7 0 0 1 4.2453 4.7v32.9a4.2453 4.7 0 0 1-4.2453 4.7h-36.509a4.2453 4.7 0 0 1-4.2453-4.7v-32.9a4.2453 4.7 0 0 1 4.2453-4.7"/><path transform="matrix(.9434 0 0 1.0444 -.9434 -1.0444)" d="m8.15 3.25h38.7a4.5 4.5 0 0 1 4.5 4.5v31.5a4.5 4.5 0 0 1-4.5 4.5h-38.7a4.5 4.5 0 0 1-4.5-4.5v-31.5a4.5 4.5 0 0 1 4.5-4.5" clip-path="url(#e-2)" style="fill:url(#linearGradient2755);filter:url(#c-9)"/></g><g transform="matrix(.96 0 0 1.0213 247.2 132)" style="fill-rule:evenodd;fill:#00c6af"><path d="m4.717-2e-5h40.566a4.717 5.2222 0 0 1 4.717 5.2222v36.556a4.717 5.2222 0 0 1-4.717 5.2222h-40.566a4.717 5.2222 0 0 1-4.717-5.2222v-36.556a4.717 5.2222 0 0 1 4.717-5.2222"/><path transform="matrix(.9434 0 0 1.0444 -.9434 -1.0444)" d="m6 1h43a5 5 0 0 1 5 5v35a5 5 0 0 1-5 5h-43a5 5 0 0 1-5-5v-35a5 5 0 0 1 5-5" clip-path="url(#f-1)" style="fill:url(#linearGradient2753);filter:url(#d-4)"/><path d="m6.7453 2.35h36.509a4.2453 4.7 0 0 1 4.2453 4.7v32.9a4.2453 4.7 0 0 1-4.2453 4.7h-36.509a4.2453 4.7 0 0 1-4.2453-4.7v-32.9a4.2453 4.7 0 0 1 4.2453-4.7"/><path transform="matrix(.9434 0 0 1.0444 -.9434 -1.0444)" d="m8.15 3.25h38.7a4.5 4.5 0 0 1 4.5 4.5v31.5a4.5 4.5 0 0 1-4.5 4.5h-38.7a4.5 4.5 0 0 1-4.5-4.5v-31.5a4.5 4.5 0 0 1 4.5-4.5" clip-path="url(#e-2)" style="fill:url(#linearGradient2755);filter:url(#c-9)"/></g><g transform="matrix(.96 0 0 1.0213 247.2 189.6)" style="fill-rule:evenodd;fill:#0895e4"><path d="m4.717-2e-5h40.566a4.717 5.2222 0 0 1 4.717 5.2222v36.556a4.717 5.2222 0 0 1-4.717 5.2222h-40.566a4.717 5.2222 0 0 1-4.717-5.2222v-36.556a4.717 5.2222 0 0 1 4.717-5.2222"/><path transform="matrix(.9434 0 0 1.0444 -.9434 -1.0444)" d="m6 1h43a5 5 0 0 1 5 5v35a5 5 0 0 1-5 5h-43a5 5 0 0 1-5-5v-35a5 5 0 0 1 5-5" clip-path="url(#f-1)" style="fill:url(#linearGradient2753);filter:url(#d-4)"/><path d="m6.7453 2.35h36.509a4.2453 4.7 0 0 1 4.2453 4.7v32.9a4.2453 4.7 0 0 1-4.2453 4.7h-36.509a4.2453 4.7 0 0 1-4.2453-4.7v-32.9a4.2453 4.7 0 0 1 4.2453-4.7"/><path transform="matrix(.9434 0 0 1.0444 -.9434 -1.0444)" d="m8.15 3.25h38.7a4.5 4.5 0 0 1 4.5 4.5v31.5a4.5 4.5 0 0 1-4.5 4.5h-38.7a4.5 4.5 0 0 1-4.5-4.5v-31.5a4.5 4.5 0 0 1 4.5-4.5" clip-path="url(#e-2)" style="fill:url(#linearGradient2755);filter:url(#c-9)"/></g><g transform="matrix(.96 0 0 1.0213 247.2 247.2)" style="fill-rule:evenodd;fill:#0024e1"><path d="m4.717-2e-5h40.566a4.717 5.2222 0 0 1 4.717 5.2222v36.556a4.717 5.2222 0 0 1-4.717 5.2222h-40.566a4.717 5.2222 0 0 1-4.717-5.2222v-36.556a4.717 5.2222 0 0 1 4.717-5.2222"/><path transform="matrix(.9434 0 0 1.0444 -.9434 -1.0444)" d="m6 1h43a5 5 0 0 1 5 5v35a5 5 0 0 1-5 5h-43a5 5 0 0 1-5-5v-35a5 5 0 0 1 5-5" clip-path="url(#f-1)" style="fill:url(#linearGradient2753);filter:url(#d-4)"/><path d="m6.7453 2.35h36.509a4.2453 4.7 0 0 1 4.2453 4.7v32.9a4.2453 4.7 0 0 1-4.2453 4.7h-36.509a4.2453 4.7 0 0 1-4.2453-4.7v-32.9a4.2453 4.7 0 0 1 4.2453-4.7"/><path transform="matrix(.9434 0 0 1.0444 -.9434 -1.0444)" d="m8.15 3.25h38.7a4.5 4.5 0 0 1 4.5 4.5v31.5a4.5 4.5 0 0 1-4.5 4.5h-38.7a4.5 4.5 0 0 1-4.5-4.5v-31.5a4.5 4.5 0 0 1 4.5-4.5" clip-path="url(#e-2)" style="fill:url(#linearGradient2755);filter:url(#c-9)"/></g><g transform="matrix(.96 0 0 1.0213 247.2 304.8)" style="fill-rule:evenodd;fill:#5000fb"><path d="m4.717-2e-5h40.566a4.717 5.2222 0 0 1 4.717 5.2222v36.556a4.717 5.2222 0 0 1-4.717 5.2222h-40.566a4.717 5.2222 0 0 1-4.717-5.2222v-36.556a4.717 5.2222 0 0 1 4.717-5.2222"/><path transform="matrix(.9434 0 0 1.0444 -.9434 -1.0444)" d="m6 1h43a5 5 0 0 1 5 5v35a5 5 0 0 1-5 5h-43a5 5 0 0 1-5-5v-35a5 5 0 0 1 5-5" clip-path="url(#f-1)" style="fill:url(#linearGradient2753);filter:url(#d-4)"/><path d="m6.7453 2.35h36.509a4.2453 4.7 0 0 1 4.2453 4.7v32.9a4.2453 4.7 0 0 1-4.2453 4.7h-36.509a4.2453 4.7 0 0 1-4.2453-4.7v-32.9a4.2453 4.7 0 0 1 4.2453-4.7"/><path transform="matrix(.9434 0 0 1.0444 -.9434 -1.0444)" d="m8.15 3.25h38.7a4.5 4.5 0 0 1 4.5 4.5v31.5a4.5 4.5 0 0 1-4.5 4.5h-38.7a4.5 4.5 0 0 1-4.5-4.5v-31.5a4.5 4.5 0 0 1 4.5-4.5" clip-path="url(#e-2)" style="fill:url(#linearGradient2755);filter:url(#c-9)"/></g><g transform="matrix(.96 0 0 1.0213 247.2 362.4)" style="fill-rule:evenodd;fill:#dd54ff"><path d="m4.717-2e-5h40.566a4.717 5.2222 0 0 1 4.717 5.2222v36.556a4.717 5.2222 0 0 1-4.717 5.2222h-40.566a4.717 5.2222 0 0 1-4.717-5.2222v-36.556a4.717 5.2222 0 0 1 4.717-5.2222"/><path transform="matrix(.9434 0 0 1.0444 -.9434 -1.0444)" d="m6 1h43a5 5 0 0 1 5 5v35a5 5 0 0 1-5 5h-43a5 5 0 0 1-5-5v-35a5 5 0 0 1 5-5" clip-path="url(#f-1)" style="fill:url(#linearGradient2753);filter:url(#d-4)"/><path d="m6.7453 2.35h36.509a4.2453 4.7 0 0 1 4.2453 4.7v32.9a4.2453 4.7 0 0 1-4.2453 4.7h-36.509a4.2453 4.7 0 0 1-4.2453-4.7v-32.9a4.2453 4.7 0 0 1 4.2453-4.7"/><path transform="matrix(.9434 0 0 1.0444 -.9434 -1.0444)" d="m8.15 3.25h38.7a4.5 4.5 0 0 1 4.5 4.5v31.5a4.5 4.5 0 0 1-4.5 4.5h-38.7a4.5 4.5 0 0 1-4.5-4.5v-31.5a4.5 4.5 0 0 1 4.5-4.5" clip-path="url(#e-2)" style="fill:url(#linearGradient2755);filter:url(#c-9)"/></g><g transform="matrix(.96 0 0 1.0213 247.2 420)" style="fill-rule:evenodd;fill:#ff19be"><path d="m4.717-2e-5h40.566a4.717 5.2222 0 0 1 4.717 5.2222v36.556a4.717 5.2222 0 0 1-4.717 5.2222h-40.566a4.717 5.2222 0 0 1-4.717-5.2222v-36.556a4.717 5.2222 0 0 1 4.717-5.2222"/><path transform="matrix(.9434 0 0 1.0444 -.9434 -1.0444)" d="m6 1h43a5 5 0 0 1 5 5v35a5 5 0 0 1-5 5h-43a5 5 0 0 1-5-5v-35a5 5 0 0 1 5-5" clip-path="url(#f-1)" style="fill:url(#linearGradient2753);filter:url(#d-4)"/><path d="m6.7453 2.35h36.509a4.2453 4.7 0 0 1 4.2453 4.7v32.9a4.2453 4.7 0 0 1-4.2453 4.7h-36.509a4.2453 4.7 0 0 1-4.2453-4.7v-32.9a4.2453 4.7 0 0 1 4.2453-4.7"/><path transform="matrix(.9434 0 0 1.0444 -.9434 -1.0444)" d="m8.15 3.25h38.7a4.5 4.5 0 0 1 4.5 4.5v31.5a4.5 4.5 0 0 1-4.5 4.5h-38.7a4.5 4.5 0 0 1-4.5-4.5v-31.5a4.5 4.5 0 0 1 4.5-4.5" clip-path="url(#e-2)" style="fill:url(#linearGradient2755);filter:url(#c-9)"/></g><g transform="matrix(.96 0 0 1.0213 247.2 477.6)" style="fill-rule:evenodd;fill:#fd567e"><path d="m4.717-2e-5h40.566a4.717 5.2222 0 0 1 4.717 5.2222v36.556a4.717 5.2222 0 0 1-4.717 5.2222h-40.566a4.717 5.2222 0 0 1-4.717-5.2222v-36.556a4.717 5.2222 0 0 1 4.717-5.2222"/><path transform="matrix(.9434 0 0 1.0444 -.9434 -1.0444)" d="m6 1h43a5 5 0 0 1 5 5v35a5 5 0 0 1-5 5h-43a5 5 0 0 1-5-5v-35a5 5 0 0 1 5-5" clip-path="url(#f-1)" style="fill:url(#linearGradient2753);filter:url(#d-4)"/><path d="m6.7453 2.35h36.509a4.2453 4.7 0 0 1 4.2453 4.7v32.9a4.2453 4.7 0 0 1-4.2453 4.7h-36.509a4.2453 4.7 0 0 1-4.2453-4.7v-32.9a4.2453 4.7 0 0 1 4.2453-4.7"/><path transform="matrix(.9434 0 0 1.0444 -.9434 -1.0444)" d="m8.15 3.25h38.7a4.5 4.5 0 0 1 4.5 4.5v31.5a4.5 4.5 0 0 1-4.5 4.5h-38.7a4.5 4.5 0 0 1-4.5-4.5v-31.5a4.5 4.5 0 0 1 4.5-4.5" clip-path="url(#e-2)" style="fill:url(#linearGradient2755);filter:url(#c-9)"/></g><g transform="matrix(.96 0 0 1.0213 247.2 535.2)" style="fill-rule:evenodd;fill:#f03a00"><path d="m4.717-2e-5h40.566a4.717 5.2222 0 0 1 4.717 5.2222v36.556a4.717 5.2222 0 0 1-4.717 5.2222h-40.566a4.717 5.2222 0 0 1-4.717-5.2222v-36.556a4.717 5.2222 0 0 1 4.717-5.2222"/><path transform="matrix(.9434 0 0 1.0444 -.9434 -1.0444)" d="m6 1h43a5 5 0 0 1 5 5v35a5 5 0 0 1-5 5h-43a5 5 0 0 1-5-5v-35a5 5 0 0 1 5-5" clip-path="url(#f-1)" style="fill:url(#linearGradient2753);filter:url(#d-4)"/><path d="m6.7453 2.35h36.509a4.2453 4.7 0 0 1 4.2453 4.7v32.9a4.2453 4.7 0 0 1-4.2453 4.7h-36.509a4.2453 4.7 0 0 1-4.2453-4.7v-32.9a4.2453 4.7 0 0 1 4.2453-4.7"/><path transform="matrix(.9434 0 0 1.0444 -.9434 -1.0444)" d="m8.15 3.25h38.7a4.5 4.5 0 0 1 4.5 4.5v31.5a4.5 4.5 0 0 1-4.5 4.5h-38.7a4.5 4.5 0 0 1-4.5-4.5v-31.5a4.5 4.5 0 0 1 4.5-4.5" clip-path="url(#e-2)" style="fill:url(#linearGradient2755);filter:url(#c-9)"/></g><g transform="matrix(.96 0 0 1.0213 304.8 16.8)" style="fill-rule:evenodd;fill:#05ff69"><path d="m4.717-2e-5h40.566a4.717 5.2222 0 0 1 4.717 5.2222v36.556a4.717 5.2222 0 0 1-4.717 5.2222h-40.566a4.717 5.2222 0 0 1-4.717-5.2222v-36.556a4.717 5.2222 0 0 1 4.717-5.2222"/><path transform="matrix(.9434 0 0 1.0444 -.9434 -1.0444)" d="m6 1h43a5 5 0 0 1 5 5v35a5 5 0 0 1-5 5h-43a5 5 0 0 1-5-5v-35a5 5 0 0 1 5-5" clip-path="url(#f-1)" style="fill:url(#linearGradient2753);filter:url(#d-4)"/><path d="m6.7453 2.35h36.509a4.2453 4.7 0 0 1 4.2453 4.7v32.9a4.2453 4.7 0 0 1-4.2453 4.7h-36.509a4.2453 4.7 0 0 1-4.2453-4.7v-32.9a4.2453 4.7 0 0 1 4.2453-4.7"/><path transform="matrix(.9434 0 0 1.0444 -.9434 -1.0444)" d="m8.15 3.25h38.7a4.5 4.5 0 0 1 4.5 4.5v31.5a4.5 4.5 0 0 1-4.5 4.5h-38.7a4.5 4.5 0 0 1-4.5-4.5v-31.5a4.5 4.5 0 0 1 4.5-4.5" clip-path="url(#e-2)" style="fill:url(#linearGradient2755);filter:url(#c-9)"/></g><g transform="matrix(.96 0 0 1.0213 304.8 74.4)" style="fill-rule:evenodd;fill:#07b6a1"><path d="m4.717-2e-5h40.566a4.717 5.2222 0 0 1 4.717 5.2222v36.556a4.717 5.2222 0 0 1-4.717 5.2222h-40.566a4.717 5.2222 0 0 1-4.717-5.2222v-36.556a4.717 5.2222 0 0 1 4.717-5.2222"/><path transform="matrix(.9434 0 0 1.0444 -.9434 -1.0444)" d="m6 1h43a5 5 0 0 1 5 5v35a5 5 0 0 1-5 5h-43a5 5 0 0 1-5-5v-35a5 5 0 0 1 5-5" clip-path="url(#f-1)" style="fill:url(#linearGradient2753);filter:url(#d-4)"/><path d="m6.7453 2.35h36.509a4.2453 4.7 0 0 1 4.2453 4.7v32.9a4.2453 4.7 0 0 1-4.2453 4.7h-36.509a4.2453 4.7 0 0 1-4.2453-4.7v-32.9a4.2453 4.7 0 0 1 4.2453-4.7"/><path transform="matrix(.9434 0 0 1.0444 -.9434 -1.0444)" d="m8.15 3.25h38.7a4.5 4.5 0 0 1 4.5 4.5v31.5a4.5 4.5 0 0 1-4.5 4.5h-38.7a4.5 4.5 0 0 1-4.5-4.5v-31.5a4.5 4.5 0 0 1 4.5-4.5" clip-path="url(#e-2)" style="fill:url(#linearGradient2755);filter:url(#c-9)"/></g><g transform="matrix(.96 0 0 1.0213 304.8 132)" style="fill-rule:evenodd;fill:#0099f0"><path d="m4.717-2e-5h40.566a4.717 5.2222 0 0 1 4.717 5.2222v36.556a4.717 5.2222 0 0 1-4.717 5.2222h-40.566a4.717 5.2222 0 0 1-4.717-5.2222v-36.556a4.717 5.2222 0 0 1 4.717-5.2222"/><path transform="matrix(.9434 0 0 1.0444 -.9434 -1.0444)" d="m6 1h43a5 5 0 0 1 5 5v35a5 5 0 0 1-5 5h-43a5 5 0 0 1-5-5v-35a5 5 0 0 1 5-5" clip-path="url(#f-1)" style="fill:url(#linearGradient2753);filter:url(#d-4)"/><path d="m6.7453 2.35h36.509a4.2453 4.7 0 0 1 4.2453 4.7v32.9a4.2453 4.7 0 0 1-4.2453 4.7h-36.509a4.2453 4.7 0 0 1-4.2453-4.7v-32.9a4.2453 4.7 0 0 1 4.2453-4.7"/><path transform="matrix(.9434 0 0 1.0444 -.9434 -1.0444)" d="m8.15 3.25h38.7a4.5 4.5 0 0 1 4.5 4.5v31.5a4.5 4.5 0 0 1-4.5 4.5h-38.7a4.5 4.5 0 0 1-4.5-4.5v-31.5a4.5 4.5 0 0 1 4.5-4.5" clip-path="url(#e-2)" style="fill:url(#linearGradient2755);filter:url(#c-9)"/></g><g transform="matrix(.96 0 0 1.0213 304.8 189.6)" style="fill-rule:evenodd;fill:#0e35ff"><path d="m4.717-2e-5h40.566a4.717 5.2222 0 0 1 4.717 5.2222v36.556a4.717 5.2222 0 0 1-4.717 5.2222h-40.566a4.717 5.2222 0 0 1-4.717-5.2222v-36.556a4.717 5.2222 0 0 1 4.717-5.2222"/><path transform="matrix(.9434 0 0 1.0444 -.9434 -1.0444)" d="m6 1h43a5 5 0 0 1 5 5v35a5 5 0 0 1-5 5h-43a5 5 0 0 1-5-5v-35a5 5 0 0 1 5-5" clip-path="url(#f-1)" style="fill:url(#linearGradient2753);filter:url(#d-4)"/><path d="m6.7453 2.35h36.509a4.2453 4.7 0 0 1 4.2453 4.7v32.9a4.2453 4.7 0 0 1-4.2453 4.7h-36.509a4.2453 4.7 0 0 1-4.2453-4.7v-32.9a4.2453 4.7 0 0 1 4.2453-4.7"/><path transform="matrix(.9434 0 0 1.0444 -.9434 -1.0444)" d="m8.15 3.25h38.7a4.5 4.5 0 0 1 4.5 4.5v31.5a4.5 4.5 0 0 1-4.5 4.5h-38.7a4.5 4.5 0 0 1-4.5-4.5v-31.5a4.5 4.5 0 0 1 4.5-4.5" clip-path="url(#e-2)" style="fill:url(#linearGradient2755);filter:url(#c-9)"/></g><g transform="matrix(.96 0 0 1.0213 304.8 247.2)" style="fill-rule:evenodd;fill:#4c00ee"><path d="m4.717-2e-5h40.566a4.717 5.2222 0 0 1 4.717 5.2222v36.556a4.717 5.2222 0 0 1-4.717 5.2222h-40.566a4.717 5.2222 0 0 1-4.717-5.2222v-36.556a4.717 5.2222 0 0 1 4.717-5.2222"/><path transform="matrix(.9434 0 0 1.0444 -.9434 -1.0444)" d="m6 1h43a5 5 0 0 1 5 5v35a5 5 0 0 1-5 5h-43a5 5 0 0 1-5-5v-35a5 5 0 0 1 5-5" clip-path="url(#f-1)" style="fill:url(#linearGradient2753);filter:url(#d-4)"/><path d="m6.7453 2.35h36.509a4.2453 4.7 0 0 1 4.2453 4.7v32.9a4.2453 4.7 0 0 1-4.2453 4.7h-36.509a4.2453 4.7 0 0 1-4.2453-4.7v-32.9a4.2453 4.7 0 0 1 4.2453-4.7"/><path transform="matrix(.9434 0 0 1.0444 -.9434 -1.0444)" d="m8.15 3.25h38.7a4.5 4.5 0 0 1 4.5 4.5v31.5a4.5 4.5 0 0 1-4.5 4.5h-38.7a4.5 4.5 0 0 1-4.5-4.5v-31.5a4.5 4.5 0 0 1 4.5-4.5" clip-path="url(#e-2)" style="fill:url(#linearGradient2755);filter:url(#c-9)"/></g><g transform="matrix(.96 0 0 1.0213 304.8 304.8)" style="fill-rule:evenodd;fill:#d943ff"><path d="m4.717-2e-5h40.566a4.717 5.2222 0 0 1 4.717 5.2222v36.556a4.717 5.2222 0 0 1-4.717 5.2222h-40.566a4.717 5.2222 0 0 1-4.717-5.2222v-36.556a4.717 5.2222 0 0 1 4.717-5.2222"/><path transform="matrix(.9434 0 0 1.0444 -.9434 -1.0444)" d="m6 1h43a5 5 0 0 1 5 5v35a5 5 0 0 1-5 5h-43a5 5 0 0 1-5-5v-35a5 5 0 0 1 5-5" clip-path="url(#f-1)" style="fill:url(#linearGradient2753);filter:url(#d-4)"/><path d="m6.7453 2.35h36.509a4.2453 4.7 0 0 1 4.2453 4.7v32.9a4.2453 4.7 0 0 1-4.2453 4.7h-36.509a4.2453 4.7 0 0 1-4.2453-4.7v-32.9a4.2453 4.7 0 0 1 4.2453-4.7"/><path transform="matrix(.9434 0 0 1.0444 -.9434 -1.0444)" d="m8.15 3.25h38.7a4.5 4.5 0 0 1 4.5 4.5v31.5a4.5 4.5 0 0 1-4.5 4.5h-38.7a4.5 4.5 0 0 1-4.5-4.5v-31.5a4.5 4.5 0 0 1 4.5-4.5" clip-path="url(#e-2)" style="fill:url(#linearGradient2755);filter:url(#c-9)"/></g><g transform="matrix(.96 0 0 1.0213 304.8 362.4)" style="fill-rule:evenodd;fill:#c6008f"><path d="m4.717-2e-5h40.566a4.717 5.2222 0 0 1 4.717 5.2222v36.556a4.717 5.2222 0 0 1-4.717 5.2222h-40.566a4.717 5.2222 0 0 1-4.717-5.2222v-36.556a4.717 5.2222 0 0 1 4.717-5.2222"/><path transform="matrix(.9434 0 0 1.0444 -.9434 -1.0444)" d="m6 1h43a5 5 0 0 1 5 5v35a5 5 0 0 1-5 5h-43a5 5 0 0 1-5-5v-35a5 5 0 0 1 5-5" clip-path="url(#f-1)" style="fill:url(#linearGradient2753);filter:url(#d-4)"/><path d="m6.7453 2.35h36.509a4.2453 4.7 0 0 1 4.2453 4.7v32.9a4.2453 4.7 0 0 1-4.2453 4.7h-36.509a4.2453 4.7 0 0 1-4.2453-4.7v-32.9a4.2453 4.7 0 0 1 4.2453-4.7"/><path transform="matrix(.9434 0 0 1.0444 -.9434 -1.0444)" d="m8.15 3.25h38.7a4.5 4.5 0 0 1 4.5 4.5v31.5a4.5 4.5 0 0 1-4.5 4.5h-38.7a4.5 4.5 0 0 1-4.5-4.5v-31.5a4.5 4.5 0 0 1 4.5-4.5" clip-path="url(#e-2)" style="fill:url(#linearGradient2755);filter:url(#c-9)"/></g><g transform="matrix(.96 0 0 1.0213 304.8 420)" style="fill-rule:evenodd;fill:#ff184f"><path d="m4.717-2e-5h40.566a4.717 5.2222 0 0 1 4.717 5.2222v36.556a4.717 5.2222 0 0 1-4.717 5.2222h-40.566a4.717 5.2222 0 0 1-4.717-5.2222v-36.556a4.717 5.2222 0 0 1 4.717-5.2222"/><path transform="matrix(.9434 0 0 1.0444 -.9434 -1.0444)" d="m6 1h43a5 5 0 0 1 5 5v35a5 5 0 0 1-5 5h-43a5 5 0 0 1-5-5v-35a5 5 0 0 1 5-5" clip-path="url(#f-1)" style="fill:url(#linearGradient2753);filter:url(#d-4)"/><path d="m6.7453 2.35h36.509a4.2453 4.7 0 0 1 4.2453 4.7v32.9a4.2453 4.7 0 0 1-4.2453 4.7h-36.509a4.2453 4.7 0 0 1-4.2453-4.7v-32.9a4.2453 4.7 0 0 1 4.2453-4.7"/><path transform="matrix(.9434 0 0 1.0444 -.9434 -1.0444)" d="m8.15 3.25h38.7a4.5 4.5 0 0 1 4.5 4.5v31.5a4.5 4.5 0 0 1-4.5 4.5h-38.7a4.5 4.5 0 0 1-4.5-4.5v-31.5a4.5 4.5 0 0 1 4.5-4.5" clip-path="url(#e-2)" style="fill:url(#linearGradient2755);filter:url(#c-9)"/></g><g transform="matrix(.96 0 0 1.0213 304.8 477.6)" style="fill-rule:evenodd;fill:#ff6433"><path d="m4.717-2e-5h40.566a4.717 5.2222 0 0 1 4.717 5.2222v36.556a4.717 5.2222 0 0 1-4.717 5.2222h-40.566a4.717 5.2222 0 0 1-4.717-5.2222v-36.556a4.717 5.2222 0 0 1 4.717-5.2222"/><path transform="matrix(.9434 0 0 1.0444 -.9434 -1.0444)" d="m6 1h43a5 5 0 0 1 5 5v35a5 5 0 0 1-5 5h-43a5 5 0 0 1-5-5v-35a5 5 0 0 1 5-5" clip-path="url(#f-1)" style="fill:url(#linearGradient2753);filter:url(#d-4)"/><path d="m6.7453 2.35h36.509a4.2453 4.7 0 0 1 4.2453 4.7v32.9a4.2453 4.7 0 0 1-4.2453 4.7h-36.509a4.2453 4.7 0 0 1-4.2453-4.7v-32.9a4.2453 4.7 0 0 1 4.2453-4.7"/><path transform="matrix(.9434 0 0 1.0444 -.9434 -1.0444)" d="m8.15 3.25h38.7a4.5 4.5 0 0 1 4.5 4.5v31.5a4.5 4.5 0 0 1-4.5 4.5h-38.7a4.5 4.5 0 0 1-4.5-4.5v-31.5a4.5 4.5 0 0 1 4.5-4.5" clip-path="url(#e-2)" style="fill:url(#linearGradient2755);filter:url(#c-9)"/></g><g transform="matrix(.96 0 0 1.0213 304.8 535.2)" style="fill-rule:evenodd;fill:#ffbb0e"><path d="m4.717-2e-5h40.566a4.717 5.2222 0 0 1 4.717 5.2222v36.556a4.717 5.2222 0 0 1-4.717 5.2222h-40.566a4.717 5.2222 0 0 1-4.717-5.2222v-36.556a4.717 5.2222 0 0 1 4.717-5.2222"/><path transform="matrix(.9434 0 0 1.0444 -.9434 -1.0444)" d="m6 1h43a5 5 0 0 1 5 5v35a5 5 0 0 1-5 5h-43a5 5 0 0 1-5-5v-35a5 5 0 0 1 5-5" clip-path="url(#f-1)" style="fill:url(#linearGradient2753);filter:url(#d-4)"/><path d="m6.7453 2.35h36.509a4.2453 4.7 0 0 1 4.2453 4.7v32.9a4.2453 4.7 0 0 1-4.2453 4.7h-36.509a4.2453 4.7 0 0 1-4.2453-4.7v-32.9a4.2453 4.7 0 0 1 4.2453-4.7"/><path transform="matrix(.9434 0 0 1.0444 -.9434 -1.0444)" d="m8.15 3.25h38.7a4.5 4.5 0 0 1 4.5 4.5v31.5a4.5 4.5 0 0 1-4.5 4.5h-38.7a4.5 4.5 0 0 1-4.5-4.5v-31.5a4.5 4.5 0 0 1 4.5-4.5" clip-path="url(#e-2)" style="fill:url(#linearGradient2755);filter:url(#c-9)"/></g><g transform="matrix(.96 0 0 1.0213 362.4 16.8)" style="fill-rule:evenodd;fill:#00b09b"><path d="m4.717-2e-5h40.566a4.717 5.2222 0 0 1 4.717 5.2222v36.556a4.717 5.2222 0 0 1-4.717 5.2222h-40.566a4.717 5.2222 0 0 1-4.717-5.2222v-36.556a4.717 5.2222 0 0 1 4.717-5.2222"/><path transform="matrix(.9434 0 0 1.0444 -.9434 -1.0444)" d="m6 1h43a5 5 0 0 1 5 5v35a5 5 0 0 1-5 5h-43a5 5 0 0 1-5-5v-35a5 5 0 0 1 5-5" clip-path="url(#f-1)" style="fill:url(#linearGradient2753);filter:url(#d-4)"/><path d="m6.7453 2.35h36.509a4.2453 4.7 0 0 1 4.2453 4.7v32.9a4.2453 4.7 0 0 1-4.2453 4.7h-36.509a4.2453 4.7 0 0 1-4.2453-4.7v-32.9a4.2453 4.7 0 0 1 4.2453-4.7"/><path transform="matrix(.9434 0 0 1.0444 -.9434 -1.0444)" d="m8.15 3.25h38.7a4.5 4.5 0 0 1 4.5 4.5v31.5a4.5 4.5 0 0 1-4.5 4.5h-38.7a4.5 4.5 0 0 1-4.5-4.5v-31.5a4.5 4.5 0 0 1 4.5-4.5" clip-path="url(#e-2)" style="fill:url(#linearGradient2755);filter:url(#c-9)"/></g><g transform="matrix(.96 0 0 1.0213 362.4 74.4)" style="fill-rule:evenodd;fill:#0099f0"><path d="m4.717-2e-5h40.566a4.717 5.2222 0 0 1 4.717 5.2222v36.556a4.717 5.2222 0 0 1-4.717 5.2222h-40.566a4.717 5.2222 0 0 1-4.717-5.2222v-36.556a4.717 5.2222 0 0 1 4.717-5.2222"/><path transform="matrix(.9434 0 0 1.0444 -.9434 -1.0444)" d="m6 1h43a5 5 0 0 1 5 5v35a5 5 0 0 1-5 5h-43a5 5 0 0 1-5-5v-35a5 5 0 0 1 5-5" clip-path="url(#f-1)" style="fill:url(#linearGradient2753);filter:url(#d-4)"/><path d="m6.7453 2.35h36.509a4.2453 4.7 0 0 1 4.2453 4.7v32.9a4.2453 4.7 0 0 1-4.2453 4.7h-36.509a4.2453 4.7 0 0 1-4.2453-4.7v-32.9a4.2453 4.7 0 0 1 4.2453-4.7"/><path transform="matrix(.9434 0 0 1.0444 -.9434 -1.0444)" d="m8.15 3.25h38.7a4.5 4.5 0 0 1 4.5 4.5v31.5a4.5 4.5 0 0 1-4.5 4.5h-38.7a4.5 4.5 0 0 1-4.5-4.5v-31.5a4.5 4.5 0 0 1 4.5-4.5" clip-path="url(#e-2)" style="fill:url(#linearGradient2755);filter:url(#c-9)"/></g><g transform="matrix(.96 0 0 1.0213 362.4 132)" style="fill-rule:evenodd;fill:#062efb"><path d="m4.717-2e-5h40.566a4.717 5.2222 0 0 1 4.717 5.2222v36.556a4.717 5.2222 0 0 1-4.717 5.2222h-40.566a4.717 5.2222 0 0 1-4.717-5.2222v-36.556a4.717 5.2222 0 0 1 4.717-5.2222"/><path transform="matrix(.9434 0 0 1.0444 -.9434 -1.0444)" d="m6 1h43a5 5 0 0 1 5 5v35a5 5 0 0 1-5 5h-43a5 5 0 0 1-5-5v-35a5 5 0 0 1 5-5" clip-path="url(#f-1)" style="fill:url(#linearGradient2753);filter:url(#d-4)"/><path d="m6.7453 2.35h36.509a4.2453 4.7 0 0 1 4.2453 4.7v32.9a4.2453 4.7 0 0 1-4.2453 4.7h-36.509a4.2453 4.7 0 0 1-4.2453-4.7v-32.9a4.2453 4.7 0 0 1 4.2453-4.7"/><path transform="matrix(.9434 0 0 1.0444 -.9434 -1.0444)" d="m8.15 3.25h38.7a4.5 4.5 0 0 1 4.5 4.5v31.5a4.5 4.5 0 0 1-4.5 4.5h-38.7a4.5 4.5 0 0 1-4.5-4.5v-31.5a4.5 4.5 0 0 1 4.5-4.5" clip-path="url(#e-2)" style="fill:url(#linearGradient2755);filter:url(#c-9)"/></g><g transform="matrix(.96 0 0 1.0213 362.4 189.6)" style="fill-rule:evenodd;fill:#7433ff"><path d="m4.717-2e-5h40.566a4.717 5.2222 0 0 1 4.717 5.2222v36.556a4.717 5.2222 0 0 1-4.717 5.2222h-40.566a4.717 5.2222 0 0 1-4.717-5.2222v-36.556a4.717 5.2222 0 0 1 4.717-5.2222"/><path transform="matrix(.9434 0 0 1.0444 -.9434 -1.0444)" d="m6 1h43a5 5 0 0 1 5 5v35a5 5 0 0 1-5 5h-43a5 5 0 0 1-5-5v-35a5 5 0 0 1 5-5" clip-path="url(#f-1)" style="fill:url(#linearGradient2753);filter:url(#d-4)"/><path d="m6.7453 2.35h36.509a4.2453 4.7 0 0 1 4.2453 4.7v32.9a4.2453 4.7 0 0 1-4.2453 4.7h-36.509a4.2453 4.7 0 0 1-4.2453-4.7v-32.9a4.2453 4.7 0 0 1 4.2453-4.7"/><path transform="matrix(.9434 0 0 1.0444 -.9434 -1.0444)" d="m8.15 3.25h38.7a4.5 4.5 0 0 1 4.5 4.5v31.5a4.5 4.5 0 0 1-4.5 4.5h-38.7a4.5 4.5 0 0 1-4.5-4.5v-31.5a4.5 4.5 0 0 1 4.5-4.5" clip-path="url(#e-2)" style="fill:url(#linearGradient2755);filter:url(#c-9)"/></g><g transform="matrix(.96 0 0 1.0213 362.4 247.2)" style="fill-rule:evenodd;fill:#c000f0"><path d="m4.717-2e-5h40.566a4.717 5.2222 0 0 1 4.717 5.2222v36.556a4.717 5.2222 0 0 1-4.717 5.2222h-40.566a4.717 5.2222 0 0 1-4.717-5.2222v-36.556a4.717 5.2222 0 0 1 4.717-5.2222"/><path transform="matrix(.9434 0 0 1.0444 -.9434 -1.0444)" d="m6 1h43a5 5 0 0 1 5 5v35a5 5 0 0 1-5 5h-43a5 5 0 0 1-5-5v-35a5 5 0 0 1 5-5" clip-path="url(#f-1)" style="fill:url(#linearGradient2753);filter:url(#d-4)"/><path d="m6.7453 2.35h36.509a4.2453 4.7 0 0 1 4.2453 4.7v32.9a4.2453 4.7 0 0 1-4.2453 4.7h-36.509a4.2453 4.7 0 0 1-4.2453-4.7v-32.9a4.2453 4.7 0 0 1 4.2453-4.7"/><path transform="matrix(.9434 0 0 1.0444 -.9434 -1.0444)" d="m8.15 3.25h38.7a4.5 4.5 0 0 1 4.5 4.5v31.5a4.5 4.5 0 0 1-4.5 4.5h-38.7a4.5 4.5 0 0 1-4.5-4.5v-31.5a4.5 4.5 0 0 1 4.5-4.5" clip-path="url(#e-2)" style="fill:url(#linearGradient2755);filter:url(#c-9)"/></g><g transform="matrix(.96 0 0 1.0213 362.4 304.8)" style="fill-rule:evenodd;fill:#e801a7"><path d="m4.717-2e-5h40.566a4.717 5.2222 0 0 1 4.717 5.2222v36.556a4.717 5.2222 0 0 1-4.717 5.2222h-40.566a4.717 5.2222 0 0 1-4.717-5.2222v-36.556a4.717 5.2222 0 0 1 4.717-5.2222"/><path transform="matrix(.9434 0 0 1.0444 -.9434 -1.0444)" d="m6 1h43a5 5 0 0 1 5 5v35a5 5 0 0 1-5 5h-43a5 5 0 0 1-5-5v-35a5 5 0 0 1 5-5" clip-path="url(#f-1)" style="fill:url(#linearGradient2753);filter:url(#d-4)"/><path d="m6.7453 2.35h36.509a4.2453 4.7 0 0 1 4.2453 4.7v32.9a4.2453 4.7 0 0 1-4.2453 4.7h-36.509a4.2453 4.7 0 0 1-4.2453-4.7v-32.9a4.2453 4.7 0 0 1 4.2453-4.7"/><path transform="matrix(.9434 0 0 1.0444 -.9434 -1.0444)" d="m8.15 3.25h38.7a4.5 4.5 0 0 1 4.5 4.5v31.5a4.5 4.5 0 0 1-4.5 4.5h-38.7a4.5 4.5 0 0 1-4.5-4.5v-31.5a4.5 4.5 0 0 1 4.5-4.5" clip-path="url(#e-2)" style="fill:url(#linearGradient2755);filter:url(#c-9)"/></g><g transform="matrix(.96 0 0 1.0213 362.4 362.4)" style="fill-rule:evenodd;fill:#e50037"><path d="m4.717-2e-5h40.566a4.717 5.2222 0 0 1 4.717 5.2222v36.556a4.717 5.2222 0 0 1-4.717 5.2222h-40.566a4.717 5.2222 0 0 1-4.717-5.2222v-36.556a4.717 5.2222 0 0 1 4.717-5.2222"/><path transform="matrix(.9434 0 0 1.0444 -.9434 -1.0444)" d="m6 1h43a5 5 0 0 1 5 5v35a5 5 0 0 1-5 5h-43a5 5 0 0 1-5-5v-35a5 5 0 0 1 5-5" clip-path="url(#f-1)" style="fill:url(#linearGradient2753);filter:url(#d-4)"/><path d="m6.7453 2.35h36.509a4.2453 4.7 0 0 1 4.2453 4.7v32.9a4.2453 4.7 0 0 1-4.2453 4.7h-36.509a4.2453 4.7 0 0 1-4.2453-4.7v-32.9a4.2453 4.7 0 0 1 4.2453-4.7"/><path transform="matrix(.9434 0 0 1.0444 -.9434 -1.0444)" d="m8.15 3.25h38.7a4.5 4.5 0 0 1 4.5 4.5v31.5a4.5 4.5 0 0 1-4.5 4.5h-38.7a4.5 4.5 0 0 1-4.5-4.5v-31.5a4.5 4.5 0 0 1 4.5-4.5" clip-path="url(#e-2)" style="fill:url(#linearGradient2755);filter:url(#c-9)"/></g><g transform="matrix(.96 0 0 1.0213 362.4 420)" style="fill-rule:evenodd;fill:#ff470c"><path d="m4.717-2e-5h40.566a4.717 5.2222 0 0 1 4.717 5.2222v36.556a4.717 5.2222 0 0 1-4.717 5.2222h-40.566a4.717 5.2222 0 0 1-4.717-5.2222v-36.556a4.717 5.2222 0 0 1 4.717-5.2222"/><path transform="matrix(.9434 0 0 1.0444 -.9434 -1.0444)" d="m6 1h43a5 5 0 0 1 5 5v35a5 5 0 0 1-5 5h-43a5 5 0 0 1-5-5v-35a5 5 0 0 1 5-5" clip-path="url(#f-1)" style="fill:url(#linearGradient2753);filter:url(#d-4)"/><path d="m6.7453 2.35h36.509a4.2453 4.7 0 0 1 4.2453 4.7v32.9a4.2453 4.7 0 0 1-4.2453 4.7h-36.509a4.2453 4.7 0 0 1-4.2453-4.7v-32.9a4.2453 4.7 0 0 1 4.2453-4.7"/><path transform="matrix(.9434 0 0 1.0444 -.9434 -1.0444)" d="m8.15 3.25h38.7a4.5 4.5 0 0 1 4.5 4.5v31.5a4.5 4.5 0 0 1-4.5 4.5h-38.7a4.5 4.5 0 0 1-4.5-4.5v-31.5a4.5 4.5 0 0 1 4.5-4.5" clip-path="url(#e-2)" style="fill:url(#linearGradient2755);filter:url(#c-9)"/></g><g transform="matrix(.96 0 0 1.0213 362.4 477.6)" style="fill-rule:evenodd;fill:#e2a300"><path d="m4.717-2e-5h40.566a4.717 5.2222 0 0 1 4.717 5.2222v36.556a4.717 5.2222 0 0 1-4.717 5.2222h-40.566a4.717 5.2222 0 0 1-4.717-5.2222v-36.556a4.717 5.2222 0 0 1 4.717-5.2222"/><path transform="matrix(.9434 0 0 1.0444 -.9434 -1.0444)" d="m6 1h43a5 5 0 0 1 5 5v35a5 5 0 0 1-5 5h-43a5 5 0 0 1-5-5v-35a5 5 0 0 1 5-5" clip-path="url(#f-1)" style="fill:url(#linearGradient2753);filter:url(#d-4)"/><path d="m6.7453 2.35h36.509a4.2453 4.7 0 0 1 4.2453 4.7v32.9a4.2453 4.7 0 0 1-4.2453 4.7h-36.509a4.2453 4.7 0 0 1-4.2453-4.7v-32.9a4.2453 4.7 0 0 1 4.2453-4.7"/><path transform="matrix(.9434 0 0 1.0444 -.9434 -1.0444)" d="m8.15 3.25h38.7a4.5 4.5 0 0 1 4.5 4.5v31.5a4.5 4.5 0 0 1-4.5 4.5h-38.7a4.5 4.5 0 0 1-4.5-4.5v-31.5a4.5 4.5 0 0 1 4.5-4.5" clip-path="url(#e-2)" style="fill:url(#linearGradient2755);filter:url(#c-9)"/></g><g transform="matrix(.96 0 0 1.0213 362.4 535.2)" style="fill-rule:evenodd;fill:#cdff06"><path d="m4.717-2e-5h40.566a4.717 5.2222 0 0 1 4.717 5.2222v36.556a4.717 5.2222 0 0 1-4.717 5.2222h-40.566a4.717 5.2222 0 0 1-4.717-5.2222v-36.556a4.717 5.2222 0 0 1 4.717-5.2222"/><path transform="matrix(.9434 0 0 1.0444 -.9434 -1.0444)" d="m6 1h43a5 5 0 0 1 5 5v35a5 5 0 0 1-5 5h-43a5 5 0 0 1-5-5v-35a5 5 0 0 1 5-5" clip-path="url(#f-1)" style="fill:url(#linearGradient2753);filter:url(#d-4)"/><path d="m6.7453 2.35h36.509a4.2453 4.7 0 0 1 4.2453 4.7v32.9a4.2453 4.7 0 0 1-4.2453 4.7h-36.509a4.2453 4.7 0 0 1-4.2453-4.7v-32.9a4.2453 4.7 0 0 1 4.2453-4.7"/><path transform="matrix(.9434 0 0 1.0444 -.9434 -1.0444)" d="m8.15 3.25h38.7a4.5 4.5 0 0 1 4.5 4.5v31.5a4.5 4.5 0 0 1-4.5 4.5h-38.7a4.5 4.5 0 0 1-4.5-4.5v-31.5a4.5 4.5 0 0 1 4.5-4.5" clip-path="url(#e-2)" style="fill:url(#linearGradient2755);filter:url(#c-9)"/></g><g transform="matrix(.96 0 0 1.0213 420 16.8)" style="fill-rule:evenodd;fill:#0074b5"><path d="m4.717-2e-5h40.566a4.717 5.2222 0 0 1 4.717 5.2222v36.556a4.717 5.2222 0 0 1-4.717 5.2222h-40.566a4.717 5.2222 0 0 1-4.717-5.2222v-36.556a4.717 5.2222 0 0 1 4.717-5.2222"/><path transform="matrix(.9434 0 0 1.0444 -.9434 -1.0444)" d="m6 1h43a5 5 0 0 1 5 5v35a5 5 0 0 1-5 5h-43a5 5 0 0 1-5-5v-35a5 5 0 0 1 5-5" clip-path="url(#f-1)" style="fill:url(#linearGradient2753);filter:url(#d-4)"/><path d="m6.7453 2.35h36.509a4.2453 4.7 0 0 1 4.2453 4.7v32.9a4.2453 4.7 0 0 1-4.2453 4.7h-36.509a4.2453 4.7 0 0 1-4.2453-4.7v-32.9a4.2453 4.7 0 0 1 4.2453-4.7"/><path transform="matrix(.9434 0 0 1.0444 -.9434 -1.0444)" d="m8.15 3.25h38.7a4.5 4.5 0 0 1 4.5 4.5v31.5a4.5 4.5 0 0 1-4.5 4.5h-38.7a4.5 4.5 0 0 1-4.5-4.5v-31.5a4.5 4.5 0 0 1 4.5-4.5" clip-path="url(#e-2)" style="fill:url(#linearGradient2755);filter:url(#c-9)"/></g><g transform="matrix(.96 0 0 1.0213 420 74.4)" style="fill-rule:evenodd;fill:#294bff"><path d="m4.717-2e-5h40.566a4.717 5.2222 0 0 1 4.717 5.2222v36.556a4.717 5.2222 0 0 1-4.717 5.2222h-40.566a4.717 5.2222 0 0 1-4.717-5.2222v-36.556a4.717 5.2222 0 0 1 4.717-5.2222"/><path transform="matrix(.9434 0 0 1.0444 -.9434 -1.0444)" d="m6 1h43a5 5 0 0 1 5 5v35a5 5 0 0 1-5 5h-43a5 5 0 0 1-5-5v-35a5 5 0 0 1 5-5" clip-path="url(#f-1)" style="fill:url(#linearGradient2753);filter:url(#d-4)"/><path d="m6.7453 2.35h36.509a4.2453 4.7 0 0 1 4.2453 4.7v32.9a4.2453 4.7 0 0 1-4.2453 4.7h-36.509a4.2453 4.7 0 0 1-4.2453-4.7v-32.9a4.2453 4.7 0 0 1 4.2453-4.7"/><path transform="matrix(.9434 0 0 1.0444 -.9434 -1.0444)" d="m8.15 3.25h38.7a4.5 4.5 0 0 1 4.5 4.5v31.5a4.5 4.5 0 0 1-4.5 4.5h-38.7a4.5 4.5 0 0 1-4.5-4.5v-31.5a4.5 4.5 0 0 1 4.5-4.5" clip-path="url(#e-2)" style="fill:url(#linearGradient2755);filter:url(#c-9)"/></g><g transform="matrix(.96 0 0 1.0213 420 132)" style="fill-rule:evenodd;fill:#3b00b9"><path d="m4.717-2e-5h40.566a4.717 5.2222 0 0 1 4.717 5.2222v36.556a4.717 5.2222 0 0 1-4.717 5.2222h-40.566a4.717 5.2222 0 0 1-4.717-5.2222v-36.556a4.717 5.2222 0 0 1 4.717-5.2222"/><path transform="matrix(.9434 0 0 1.0444 -.9434 -1.0444)" d="m6 1h43a5 5 0 0 1 5 5v35a5 5 0 0 1-5 5h-43a5 5 0 0 1-5-5v-35a5 5 0 0 1 5-5" clip-path="url(#f-1)" style="fill:url(#linearGradient2753);filter:url(#d-4)"/><path d="m6.7453 2.35h36.509a4.2453 4.7 0 0 1 4.2453 4.7v32.9a4.2453 4.7 0 0 1-4.2453 4.7h-36.509a4.2453 4.7 0 0 1-4.2453-4.7v-32.9a4.2453 4.7 0 0 1 4.2453-4.7"/><path transform="matrix(.9434 0 0 1.0444 -.9434 -1.0444)" d="m8.15 3.25h38.7a4.5 4.5 0 0 1 4.5 4.5v31.5a4.5 4.5 0 0 1-4.5 4.5h-38.7a4.5 4.5 0 0 1-4.5-4.5v-31.5a4.5 4.5 0 0 1 4.5-4.5" clip-path="url(#e-2)" style="fill:url(#linearGradient2755);filter:url(#c-9)"/></g><g transform="matrix(.96 0 0 1.0213 420 189.6)" style="fill-rule:evenodd;fill:#d21dff"><path d="m4.717-2e-5h40.566a4.717 5.2222 0 0 1 4.717 5.2222v36.556a4.717 5.2222 0 0 1-4.717 5.2222h-40.566a4.717 5.2222 0 0 1-4.717-5.2222v-36.556a4.717 5.2222 0 0 1 4.717-5.2222"/><path transform="matrix(.9434 0 0 1.0444 -.9434 -1.0444)" d="m6 1h43a5 5 0 0 1 5 5v35a5 5 0 0 1-5 5h-43a5 5 0 0 1-5-5v-35a5 5 0 0 1 5-5" clip-path="url(#f-1)" style="fill:url(#linearGradient2753);filter:url(#d-4)"/><path d="m6.7453 2.35h36.509a4.2453 4.7 0 0 1 4.2453 4.7v32.9a4.2453 4.7 0 0 1-4.2453 4.7h-36.509a4.2453 4.7 0 0 1-4.2453-4.7v-32.9a4.2453 4.7 0 0 1 4.2453-4.7"/><path transform="matrix(.9434 0 0 1.0444 -.9434 -1.0444)" d="m8.15 3.25h38.7a4.5 4.5 0 0 1 4.5 4.5v31.5a4.5 4.5 0 0 1-4.5 4.5h-38.7a4.5 4.5 0 0 1-4.5-4.5v-31.5a4.5 4.5 0 0 1 4.5-4.5" clip-path="url(#e-2)" style="fill:url(#linearGradient2755);filter:url(#c-9)"/></g><g transform="matrix(.96 0 0 1.0213 420 247.2)" style="fill-rule:evenodd;fill:#ff46cb"><path d="m4.717-2e-5h40.566a4.717 5.2222 0 0 1 4.717 5.2222v36.556a4.717 5.2222 0 0 1-4.717 5.2222h-40.566a4.717 5.2222 0 0 1-4.717-5.2222v-36.556a4.717 5.2222 0 0 1 4.717-5.2222"/><path transform="matrix(.9434 0 0 1.0444 -.9434 -1.0444)" d="m6 1h43a5 5 0 0 1 5 5v35a5 5 0 0 1-5 5h-43a5 5 0 0 1-5-5v-35a5 5 0 0 1 5-5" clip-path="url(#f-1)" style="fill:url(#linearGradient2753);filter:url(#d-4)"/><path d="m6.7453 2.35h36.509a4.2453 4.7 0 0 1 4.2453 4.7v32.9a4.2453 4.7 0 0 1-4.2453 4.7h-36.509a4.2453 4.7 0 0 1-4.2453-4.7v-32.9a4.2453 4.7 0 0 1 4.2453-4.7"/><path transform="matrix(.9434 0 0 1.0444 -.9434 -1.0444)" d="m8.15 3.25h38.7a4.5 4.5 0 0 1 4.5 4.5v31.5a4.5 4.5 0 0 1-4.5 4.5h-38.7a4.5 4.5 0 0 1-4.5-4.5v-31.5a4.5 4.5 0 0 1 4.5-4.5" clip-path="url(#e-2)" style="fill:url(#linearGradient2755);filter:url(#c-9)"/></g><g transform="matrix(.96 0 0 1.0213 420 304.8)" style="fill-rule:evenodd;fill:#f8003c"><path d="m4.717-2e-5h40.566a4.717 5.2222 0 0 1 4.717 5.2222v36.556a4.717 5.2222 0 0 1-4.717 5.2222h-40.566a4.717 5.2222 0 0 1-4.717-5.2222v-36.556a4.717 5.2222 0 0 1 4.717-5.2222"/><path transform="matrix(.9434 0 0 1.0444 -.9434 -1.0444)" d="m6 1h43a5 5 0 0 1 5 5v35a5 5 0 0 1-5 5h-43a5 5 0 0 1-5-5v-35a5 5 0 0 1 5-5" clip-path="url(#f-1)" style="fill:url(#linearGradient2753);filter:url(#d-4)"/><path d="m6.7453 2.35h36.509a4.2453 4.7 0 0 1 4.2453 4.7v32.9a4.2453 4.7 0 0 1-4.2453 4.7h-36.509a4.2453 4.7 0 0 1-4.2453-4.7v-32.9a4.2453 4.7 0 0 1 4.2453-4.7"/><path transform="matrix(.9434 0 0 1.0444 -.9434 -1.0444)" d="m8.15 3.25h38.7a4.5 4.5 0 0 1 4.5 4.5v31.5a4.5 4.5 0 0 1-4.5 4.5h-38.7a4.5 4.5 0 0 1-4.5-4.5v-31.5a4.5 4.5 0 0 1 4.5-4.5" clip-path="url(#e-2)" style="fill:url(#linearGradient2755);filter:url(#c-9)"/></g><g transform="matrix(.96 0 0 1.0213 420 362.4)" style="fill-rule:evenodd;fill:#da3400"><path d="m4.717-2e-5h40.566a4.717 5.2222 0 0 1 4.717 5.2222v36.556a4.717 5.2222 0 0 1-4.717 5.2222h-40.566a4.717 5.2222 0 0 1-4.717-5.2222v-36.556a4.717 5.2222 0 0 1 4.717-5.2222"/><path transform="matrix(.9434 0 0 1.0444 -.9434 -1.0444)" d="m6 1h43a5 5 0 0 1 5 5v35a5 5 0 0 1-5 5h-43a5 5 0 0 1-5-5v-35a5 5 0 0 1 5-5" clip-path="url(#f-1)" style="fill:url(#linearGradient2753);filter:url(#d-4)"/><path d="m6.7453 2.35h36.509a4.2453 4.7 0 0 1 4.2453 4.7v32.9a4.2453 4.7 0 0 1-4.2453 4.7h-36.509a4.2453 4.7 0 0 1-4.2453-4.7v-32.9a4.2453 4.7 0 0 1 4.2453-4.7"/><path transform="matrix(.9434 0 0 1.0444 -.9434 -1.0444)" d="m8.15 3.25h38.7a4.5 4.5 0 0 1 4.5 4.5v31.5a4.5 4.5 0 0 1-4.5 4.5h-38.7a4.5 4.5 0 0 1-4.5-4.5v-31.5a4.5 4.5 0 0 1 4.5-4.5" clip-path="url(#e-2)" style="fill:url(#linearGradient2755);filter:url(#c-9)"/></g><g transform="matrix(.96 0 0 1.0213 420 420)" style="fill-rule:evenodd;fill:#febe19"><path d="m4.717-2e-5h40.566a4.717 5.2222 0 0 1 4.717 5.2222v36.556a4.717 5.2222 0 0 1-4.717 5.2222h-40.566a4.717 5.2222 0 0 1-4.717-5.2222v-36.556a4.717 5.2222 0 0 1 4.717-5.2222"/><path transform="matrix(.9434 0 0 1.0444 -.9434 -1.0444)" d="m6 1h43a5 5 0 0 1 5 5v35a5 5 0 0 1-5 5h-43a5 5 0 0 1-5-5v-35a5 5 0 0 1 5-5" clip-path="url(#f-1)" style="fill:url(#linearGradient2753);filter:url(#d-4)"/><path d="m6.7453 2.35h36.509a4.2453 4.7 0 0 1 4.2453 4.7v32.9a4.2453 4.7 0 0 1-4.2453 4.7h-36.509a4.2453 4.7 0 0 1-4.2453-4.7v-32.9a4.2453 4.7 0 0 1 4.2453-4.7"/><path transform="matrix(.9434 0 0 1.0444 -.9434 -1.0444)" d="m8.15 3.25h38.7a4.5 4.5 0 0 1 4.5 4.5v31.5a4.5 4.5 0 0 1-4.5 4.5h-38.7a4.5 4.5 0 0 1-4.5-4.5v-31.5a4.5 4.5 0 0 1 4.5-4.5" clip-path="url(#e-2)" style="fill:url(#linearGradient2755);filter:url(#c-9)"/></g><g transform="matrix(.96 0 0 1.0213 420 477.6)" style="fill-rule:evenodd;fill:#b7e500"><path d="m4.717-2e-5h40.566a4.717 5.2222 0 0 1 4.717 5.2222v36.556a4.717 5.2222 0 0 1-4.717 5.2222h-40.566a4.717 5.2222 0 0 1-4.717-5.2222v-36.556a4.717 5.2222 0 0 1 4.717-5.2222"/><path transform="matrix(.9434 0 0 1.0444 -.9434 -1.0444)" d="m6 1h43a5 5 0 0 1 5 5v35a5 5 0 0 1-5 5h-43a5 5 0 0 1-5-5v-35a5 5 0 0 1 5-5" clip-path="url(#f-1)" style="fill:url(#linearGradient2753);filter:url(#d-4)"/><path d="m6.7453 2.35h36.509a4.2453 4.7 0 0 1 4.2453 4.7v32.9a4.2453 4.7 0 0 1-4.2453 4.7h-36.509a4.2453 4.7 0 0 1-4.2453-4.7v-32.9a4.2453 4.7 0 0 1 4.2453-4.7"/><path transform="matrix(.9434 0 0 1.0444 -.9434 -1.0444)" d="m8.15 3.25h38.7a4.5 4.5 0 0 1 4.5 4.5v31.5a4.5 4.5 0 0 1-4.5 4.5h-38.7a4.5 4.5 0 0 1-4.5-4.5v-31.5a4.5 4.5 0 0 1 4.5-4.5" clip-path="url(#e-2)" style="fill:url(#linearGradient2755);filter:url(#c-9)"/></g><g transform="matrix(.96 0 0 1.0213 420 535.2)" style="fill-rule:evenodd;fill:#5dff10"><path d="m4.717-2e-5h40.566a4.717 5.2222 0 0 1 4.717 5.2222v36.556a4.717 5.2222 0 0 1-4.717 5.2222h-40.566a4.717 5.2222 0 0 1-4.717-5.2222v-36.556a4.717 5.2222 0 0 1 4.717-5.2222"/><path transform="matrix(.9434 0 0 1.0444 -.9434 -1.0444)" d="m6 1h43a5 5 0 0 1 5 5v35a5 5 0 0 1-5 5h-43a5 5 0 0 1-5-5v-35a5 5 0 0 1 5-5" clip-path="url(#f-1)" style="fill:url(#linearGradient2753);filter:url(#d-4)"/><path d="m6.7453 2.35h36.509a4.2453 4.7 0 0 1 4.2453 4.7v32.9a4.2453 4.7 0 0 1-4.2453 4.7h-36.509a4.2453 4.7 0 0 1-4.2453-4.7v-32.9a4.2453 4.7 0 0 1 4.2453-4.7"/><path transform="matrix(.9434 0 0 1.0444 -.9434 -1.0444)" d="m8.15 3.25h38.7a4.5 4.5 0 0 1 4.5 4.5v31.5a4.5 4.5 0 0 1-4.5 4.5h-38.7a4.5 4.5 0 0 1-4.5-4.5v-31.5a4.5 4.5 0 0 1 4.5-4.5" clip-path="url(#e-2)" style="fill:url(#linearGradient2755);filter:url(#c-9)"/></g><g transform="matrix(.96 0 0 1.0213 477.6 16.8)" style="fill-rule:evenodd;fill:#1137ff"><path d="m4.717-2e-5h40.566a4.717 5.2222 0 0 1 4.717 5.2222v36.556a4.717 5.2222 0 0 1-4.717 5.2222h-40.566a4.717 5.2222 0 0 1-4.717-5.2222v-36.556a4.717 5.2222 0 0 1 4.717-5.2222"/><path transform="matrix(.9434 0 0 1.0444 -.9434 -1.0444)" d="m6 1h43a5 5 0 0 1 5 5v35a5 5 0 0 1-5 5h-43a5 5 0 0 1-5-5v-35a5 5 0 0 1 5-5" clip-path="url(#f-1)" style="fill:url(#linearGradient2753);filter:url(#d-4)"/><path d="m6.7453 2.35h36.509a4.2453 4.7 0 0 1 4.2453 4.7v32.9a4.2453 4.7 0 0 1-4.2453 4.7h-36.509a4.2453 4.7 0 0 1-4.2453-4.7v-32.9a4.2453 4.7 0 0 1 4.2453-4.7"/><path transform="matrix(.9434 0 0 1.0444 -.9434 -1.0444)" d="m8.15 3.25h38.7a4.5 4.5 0 0 1 4.5 4.5v31.5a4.5 4.5 0 0 1-4.5 4.5h-38.7a4.5 4.5 0 0 1-4.5-4.5v-31.5a4.5 4.5 0 0 1 4.5-4.5" clip-path="url(#e-2)" style="fill:url(#linearGradient2755);filter:url(#c-9)"/></g><g transform="matrix(.96 0 0 1.0213 477.6 74.4)" style="fill-rule:evenodd;fill:#4600db"><path d="m4.717-2e-5h40.566a4.717 5.2222 0 0 1 4.717 5.2222v36.556a4.717 5.2222 0 0 1-4.717 5.2222h-40.566a4.717 5.2222 0 0 1-4.717-5.2222v-36.556a4.717 5.2222 0 0 1 4.717-5.2222"/><path transform="matrix(.9434 0 0 1.0444 -.9434 -1.0444)" d="m6 1h43a5 5 0 0 1 5 5v35a5 5 0 0 1-5 5h-43a5 5 0 0 1-5-5v-35a5 5 0 0 1 5-5" clip-path="url(#f-1)" style="fill:url(#linearGradient2753);filter:url(#d-4)"/><path d="m6.7453 2.35h36.509a4.2453 4.7 0 0 1 4.2453 4.7v32.9a4.2453 4.7 0 0 1-4.2453 4.7h-36.509a4.2453 4.7 0 0 1-4.2453-4.7v-32.9a4.2453 4.7 0 0 1 4.2453-4.7"/><path transform="matrix(.9434 0 0 1.0444 -.9434 -1.0444)" d="m8.15 3.25h38.7a4.5 4.5 0 0 1 4.5 4.5v31.5a4.5 4.5 0 0 1-4.5 4.5h-38.7a4.5 4.5 0 0 1-4.5-4.5v-31.5a4.5 4.5 0 0 1 4.5-4.5" clip-path="url(#e-2)" style="fill:url(#linearGradient2755);filter:url(#c-9)"/></g><g transform="matrix(.96 0 0 1.0213 477.6 132)" style="fill-rule:evenodd;fill:#9d00c5"><path d="m4.717-2e-5h40.566a4.717 5.2222 0 0 1 4.717 5.2222v36.556a4.717 5.2222 0 0 1-4.717 5.2222h-40.566a4.717 5.2222 0 0 1-4.717-5.2222v-36.556a4.717 5.2222 0 0 1 4.717-5.2222"/><path transform="matrix(.9434 0 0 1.0444 -.9434 -1.0444)" d="m6 1h43a5 5 0 0 1 5 5v35a5 5 0 0 1-5 5h-43a5 5 0 0 1-5-5v-35a5 5 0 0 1 5-5" clip-path="url(#f-1)" style="fill:url(#linearGradient2753);filter:url(#d-4)"/><path d="m6.7453 2.35h36.509a4.2453 4.7 0 0 1 4.2453 4.7v32.9a4.2453 4.7 0 0 1-4.2453 4.7h-36.509a4.2453 4.7 0 0 1-4.2453-4.7v-32.9a4.2453 4.7 0 0 1 4.2453-4.7"/><path transform="matrix(.9434 0 0 1.0444 -.9434 -1.0444)" d="m8.15 3.25h38.7a4.5 4.5 0 0 1 4.5 4.5v31.5a4.5 4.5 0 0 1-4.5 4.5h-38.7a4.5 4.5 0 0 1-4.5-4.5v-31.5a4.5 4.5 0 0 1 4.5-4.5" clip-path="url(#e-2)" style="fill:url(#linearGradient2755);filter:url(#c-9)"/></g><g transform="matrix(.96 0 0 1.0213 477.6 189.6)" style="fill-rule:evenodd;fill:#ff2fc5"><path d="m4.717-2e-5h40.566a4.717 5.2222 0 0 1 4.717 5.2222v36.556a4.717 5.2222 0 0 1-4.717 5.2222h-40.566a4.717 5.2222 0 0 1-4.717-5.2222v-36.556a4.717 5.2222 0 0 1 4.717-5.2222"/><path transform="matrix(.9434 0 0 1.0444 -.9434 -1.0444)" d="m6 1h43a5 5 0 0 1 5 5v35a5 5 0 0 1-5 5h-43a5 5 0 0 1-5-5v-35a5 5 0 0 1 5-5" clip-path="url(#f-1)" style="fill:url(#linearGradient2753);filter:url(#d-4)"/><path d="m6.7453 2.35h36.509a4.2453 4.7 0 0 1 4.2453 4.7v32.9a4.2453 4.7 0 0 1-4.2453 4.7h-36.509a4.2453 4.7 0 0 1-4.2453-4.7v-32.9a4.2453 4.7 0 0 1 4.2453-4.7"/><path transform="matrix(.9434 0 0 1.0444 -.9434 -1.0444)" d="m8.15 3.25h38.7a4.5 4.5 0 0 1 4.5 4.5v31.5a4.5 4.5 0 0 1-4.5 4.5h-38.7a4.5 4.5 0 0 1-4.5-4.5v-31.5a4.5 4.5 0 0 1 4.5-4.5" clip-path="url(#e-2)" style="fill:url(#linearGradient2755);filter:url(#c-9)"/></g><g transform="matrix(.96 0 0 1.0213 477.6 247.2)" style="fill-rule:evenodd;fill:#c70030"><path d="m4.717-2e-5h40.566a4.717 5.2222 0 0 1 4.717 5.2222v36.556a4.717 5.2222 0 0 1-4.717 5.2222h-40.566a4.717 5.2222 0 0 1-4.717-5.2222v-36.556a4.717 5.2222 0 0 1 4.717-5.2222"/><path transform="matrix(.9434 0 0 1.0444 -.9434 -1.0444)" d="m6 1h43a5 5 0 0 1 5 5v35a5 5 0 0 1-5 5h-43a5 5 0 0 1-5-5v-35a5 5 0 0 1 5-5" clip-path="url(#f-1)" style="fill:url(#linearGradient2753);filter:url(#d-4)"/><path d="m6.7453 2.35h36.509a4.2453 4.7 0 0 1 4.2453 4.7v32.9a4.2453 4.7 0 0 1-4.2453 4.7h-36.509a4.2453 4.7 0 0 1-4.2453-4.7v-32.9a4.2453 4.7 0 0 1 4.2453-4.7"/><path transform="matrix(.9434 0 0 1.0444 -.9434 -1.0444)" d="m8.15 3.25h38.7a4.5 4.5 0 0 1 4.5 4.5v31.5a4.5 4.5 0 0 1-4.5 4.5h-38.7a4.5 4.5 0 0 1-4.5-4.5v-31.5a4.5 4.5 0 0 1 4.5-4.5" clip-path="url(#e-2)" style="fill:url(#linearGradient2755);filter:url(#c-9)"/></g><g transform="matrix(.96 0 0 1.0213 477.6 304.8)" style="fill-rule:evenodd;fill:#db3500"><path d="m4.717-2e-5h40.566a4.717 5.2222 0 0 1 4.717 5.2222v36.556a4.717 5.2222 0 0 1-4.717 5.2222h-40.566a4.717 5.2222 0 0 1-4.717-5.2222v-36.556a4.717 5.2222 0 0 1 4.717-5.2222"/><path transform="matrix(.9434 0 0 1.0444 -.9434 -1.0444)" d="m6 1h43a5 5 0 0 1 5 5v35a5 5 0 0 1-5 5h-43a5 5 0 0 1-5-5v-35a5 5 0 0 1 5-5" clip-path="url(#f-1)" style="fill:url(#linearGradient2753);filter:url(#d-4)"/><path d="m6.7453 2.35h36.509a4.2453 4.7 0 0 1 4.2453 4.7v32.9a4.2453 4.7 0 0 1-4.2453 4.7h-36.509a4.2453 4.7 0 0 1-4.2453-4.7v-32.9a4.2453 4.7 0 0 1 4.2453-4.7"/><path transform="matrix(.9434 0 0 1.0444 -.9434 -1.0444)" d="m8.15 3.25h38.7a4.5 4.5 0 0 1 4.5 4.5v31.5a4.5 4.5 0 0 1-4.5 4.5h-38.7a4.5 4.5 0 0 1-4.5-4.5v-31.5a4.5 4.5 0 0 1 4.5-4.5" clip-path="url(#e-2)" style="fill:url(#linearGradient2755);filter:url(#c-9)"/></g><g transform="matrix(.96 0 0 1.0213 477.6 362.4)" style="fill-rule:evenodd;fill:#ffc93f"><path d="m4.717-2e-5h40.566a4.717 5.2222 0 0 1 4.717 5.2222v36.556a4.717 5.2222 0 0 1-4.717 5.2222h-40.566a4.717 5.2222 0 0 1-4.717-5.2222v-36.556a4.717 5.2222 0 0 1 4.717-5.2222"/><path transform="matrix(.9434 0 0 1.0444 -.9434 -1.0444)" d="m6 1h43a5 5 0 0 1 5 5v35a5 5 0 0 1-5 5h-43a5 5 0 0 1-5-5v-35a5 5 0 0 1 5-5" clip-path="url(#f-1)" style="fill:url(#linearGradient2753);filter:url(#d-4)"/><path d="m6.7453 2.35h36.509a4.2453 4.7 0 0 1 4.2453 4.7v32.9a4.2453 4.7 0 0 1-4.2453 4.7h-36.509a4.2453 4.7 0 0 1-4.2453-4.7v-32.9a4.2453 4.7 0 0 1 4.2453-4.7"/><path transform="matrix(.9434 0 0 1.0444 -.9434 -1.0444)" d="m8.15 3.25h38.7a4.5 4.5 0 0 1 4.5 4.5v31.5a4.5 4.5 0 0 1-4.5 4.5h-38.7a4.5 4.5 0 0 1-4.5-4.5v-31.5a4.5 4.5 0 0 1 4.5-4.5" clip-path="url(#e-2)" style="fill:url(#linearGradient2755);filter:url(#c-9)"/></g><g transform="matrix(.96 0 0 1.0213 477.6 420)" style="fill-rule:evenodd;fill:#d2ff1f"><path d="m4.717-2e-5h40.566a4.717 5.2222 0 0 1 4.717 5.2222v36.556a4.717 5.2222 0 0 1-4.717 5.2222h-40.566a4.717 5.2222 0 0 1-4.717-5.2222v-36.556a4.717 5.2222 0 0 1 4.717-5.2222"/><path transform="matrix(.9434 0 0 1.0444 -.9434 -1.0444)" d="m6 1h43a5 5 0 0 1 5 5v35a5 5 0 0 1-5 5h-43a5 5 0 0 1-5-5v-35a5 5 0 0 1 5-5" clip-path="url(#f-1)" style="fill:url(#linearGradient2753);filter:url(#d-4)"/><path d="m6.7453 2.35h36.509a4.2453 4.7 0 0 1 4.2453 4.7v32.9a4.2453 4.7 0 0 1-4.2453 4.7h-36.509a4.2453 4.7 0 0 1-4.2453-4.7v-32.9a4.2453 4.7 0 0 1 4.2453-4.7"/><path transform="matrix(.9434 0 0 1.0444 -.9434 -1.0444)" d="m8.15 3.25h38.7a4.5 4.5 0 0 1 4.5 4.5v31.5a4.5 4.5 0 0 1-4.5 4.5h-38.7a4.5 4.5 0 0 1-4.5-4.5v-31.5a4.5 4.5 0 0 1 4.5-4.5" clip-path="url(#e-2)" style="fill:url(#linearGradient2755);filter:url(#c-9)"/></g><g transform="matrix(.96 0 0 1.0213 477.6 477.6)" style="fill-rule:evenodd;fill:#7aff3c"><path d="m4.717-2e-5h40.566a4.717 5.2222 0 0 1 4.717 5.2222v36.556a4.717 5.2222 0 0 1-4.717 5.2222h-40.566a4.717 5.2222 0 0 1-4.717-5.2222v-36.556a4.717 5.2222 0 0 1 4.717-5.2222"/><path transform="matrix(.9434 0 0 1.0444 -.9434 -1.0444)" d="m6 1h43a5 5 0 0 1 5 5v35a5 5 0 0 1-5 5h-43a5 5 0 0 1-5-5v-35a5 5 0 0 1 5-5" clip-path="url(#f-1)" style="fill:url(#linearGradient2753);filter:url(#d-4)"/><path d="m6.7453 2.35h36.509a4.2453 4.7 0 0 1 4.2453 4.7v32.9a4.2453 4.7 0 0 1-4.2453 4.7h-36.509a4.2453 4.7 0 0 1-4.2453-4.7v-32.9a4.2453 4.7 0 0 1 4.2453-4.7"/><path transform="matrix(.9434 0 0 1.0444 -.9434 -1.0444)" d="m8.15 3.25h38.7a4.5 4.5 0 0 1 4.5 4.5v31.5a4.5 4.5 0 0 1-4.5 4.5h-38.7a4.5 4.5 0 0 1-4.5-4.5v-31.5a4.5 4.5 0 0 1 4.5-4.5" clip-path="url(#e-2)" style="fill:url(#linearGradient2755);filter:url(#c-9)"/></g><g transform="matrix(.96 0 0 1.0213 477.6 535.2)" style="fill-rule:evenodd;fill:#1dff41"><path d="m4.717-2e-5h40.566a4.717 5.2222 0 0 1 4.717 5.2222v36.556a4.717 5.2222 0 0 1-4.717 5.2222h-40.566a4.717 5.2222 0 0 1-4.717-5.2222v-36.556a4.717 5.2222 0 0 1 4.717-5.2222"/><path transform="matrix(.9434 0 0 1.0444 -.9434 -1.0444)" d="m6 1h43a5 5 0 0 1 5 5v35a5 5 0 0 1-5 5h-43a5 5 0 0 1-5-5v-35a5 5 0 0 1 5-5" clip-path="url(#f-1)" style="fill:url(#linearGradient2753);filter:url(#d-4)"/><path d="m6.7453 2.35h36.509a4.2453 4.7 0 0 1 4.2453 4.7v32.9a4.2453 4.7 0 0 1-4.2453 4.7h-36.509a4.2453 4.7 0 0 1-4.2453-4.7v-32.9a4.2453 4.7 0 0 1 4.2453-4.7"/><path transform="matrix(.9434 0 0 1.0444 -.9434 -1.0444)" d="m8.15 3.25h38.7a4.5 4.5 0 0 1 4.5 4.5v31.5a4.5 4.5 0 0 1-4.5 4.5h-38.7a4.5 4.5 0 0 1-4.5-4.5v-31.5a4.5 4.5 0 0 1 4.5-4.5" clip-path="url(#e-2)" style="fill:url(#linearGradient2755);filter:url(#c-9)"/></g><g transform="matrix(.96 0 0 1.0213 535.2 16.8)" style="fill-rule:evenodd;fill:#4900e4"><path d="m4.717-2e-5h40.566a4.717 5.2222 0 0 1 4.717 5.2222v36.556a4.717 5.2222 0 0 1-4.717 5.2222h-40.566a4.717 5.2222 0 0 1-4.717-5.2222v-36.556a4.717 5.2222 0 0 1 4.717-5.2222"/><path transform="matrix(.9434 0 0 1.0444 -.9434 -1.0444)" d="m6 1h43a5 5 0 0 1 5 5v35a5 5 0 0 1-5 5h-43a5 5 0 0 1-5-5v-35a5 5 0 0 1 5-5" clip-path="url(#f-1)" style="fill:url(#linearGradient2753);filter:url(#d-4)"/><path d="m6.7453 2.35h36.509a4.2453 4.7 0 0 1 4.2453 4.7v32.9a4.2453 4.7 0 0 1-4.2453 4.7h-36.509a4.2453 4.7 0 0 1-4.2453-4.7v-32.9a4.2453 4.7 0 0 1 4.2453-4.7"/><path transform="matrix(.9434 0 0 1.0444 -.9434 -1.0444)" d="m8.15 3.25h38.7a4.5 4.5 0 0 1 4.5 4.5v31.5a4.5 4.5 0 0 1-4.5 4.5h-38.7a4.5 4.5 0 0 1-4.5-4.5v-31.5a4.5 4.5 0 0 1 4.5-4.5" clip-path="url(#e-2)" style="fill:url(#linearGradient2755);filter:url(#c-9)"/></g><g transform="matrix(.96 0 0 1.0213 535.2 74.4)" style="fill-rule:evenodd;fill:#c200f2"><path d="m4.717-2e-5h40.566a4.717 5.2222 0 0 1 4.717 5.2222v36.556a4.717 5.2222 0 0 1-4.717 5.2222h-40.566a4.717 5.2222 0 0 1-4.717-5.2222v-36.556a4.717 5.2222 0 0 1 4.717-5.2222"/><path transform="matrix(.9434 0 0 1.0444 -.9434 -1.0444)" d="m6 1h43a5 5 0 0 1 5 5v35a5 5 0 0 1-5 5h-43a5 5 0 0 1-5-5v-35a5 5 0 0 1 5-5" clip-path="url(#f-1)" style="fill:url(#linearGradient2753);filter:url(#d-4)"/><path d="m6.7453 2.35h36.509a4.2453 4.7 0 0 1 4.2453 4.7v32.9a4.2453 4.7 0 0 1-4.2453 4.7h-36.509a4.2453 4.7 0 0 1-4.2453-4.7v-32.9a4.2453 4.7 0 0 1 4.2453-4.7"/><path transform="matrix(.9434 0 0 1.0444 -.9434 -1.0444)" d="m8.15 3.25h38.7a4.5 4.5 0 0 1 4.5 4.5v31.5a4.5 4.5 0 0 1-4.5 4.5h-38.7a4.5 4.5 0 0 1-4.5-4.5v-31.5a4.5 4.5 0 0 1 4.5-4.5" clip-path="url(#e-2)" style="fill:url(#linearGradient2755);filter:url(#c-9)"/></g><g transform="matrix(.96 0 0 1.0213 535.2 132)" style="fill-rule:evenodd;fill:#ff42ca"><path d="m4.717-2e-5h40.566a4.717 5.2222 0 0 1 4.717 5.2222v36.556a4.717 5.2222 0 0 1-4.717 5.2222h-40.566a4.717 5.2222 0 0 1-4.717-5.2222v-36.556a4.717 5.2222 0 0 1 4.717-5.2222"/><path transform="matrix(.9434 0 0 1.0444 -.9434 -1.0444)" d="m6 1h43a5 5 0 0 1 5 5v35a5 5 0 0 1-5 5h-43a5 5 0 0 1-5-5v-35a5 5 0 0 1 5-5" clip-path="url(#f-1)" style="fill:url(#linearGradient2753);filter:url(#d-4)"/><path d="m6.7453 2.35h36.509a4.2453 4.7 0 0 1 4.2453 4.7v32.9a4.2453 4.7 0 0 1-4.2453 4.7h-36.509a4.2453 4.7 0 0 1-4.2453-4.7v-32.9a4.2453 4.7 0 0 1 4.2453-4.7"/><path transform="matrix(.9434 0 0 1.0444 -.9434 -1.0444)" d="m8.15 3.25h38.7a4.5 4.5 0 0 1 4.5 4.5v31.5a4.5 4.5 0 0 1-4.5 4.5h-38.7a4.5 4.5 0 0 1-4.5-4.5v-31.5a4.5 4.5 0 0 1 4.5-4.5" clip-path="url(#e-2)" style="fill:url(#linearGradient2755);filter:url(#c-9)"/></g><g transform="matrix(.96 0 0 1.0213 535.2 189.6)" style="fill-rule:evenodd;fill:#ff1e54"><path d="m4.717-2e-5h40.566a4.717 5.2222 0 0 1 4.717 5.2222v36.556a4.717 5.2222 0 0 1-4.717 5.2222h-40.566a4.717 5.2222 0 0 1-4.717-5.2222v-36.556a4.717 5.2222 0 0 1 4.717-5.2222"/><path transform="matrix(.9434 0 0 1.0444 -.9434 -1.0444)" d="m6 1h43a5 5 0 0 1 5 5v35a5 5 0 0 1-5 5h-43a5 5 0 0 1-5-5v-35a5 5 0 0 1 5-5" clip-path="url(#f-1)" style="fill:url(#linearGradient2753);filter:url(#d-4)"/><path d="m6.7453 2.35h36.509a4.2453 4.7 0 0 1 4.2453 4.7v32.9a4.2453 4.7 0 0 1-4.2453 4.7h-36.509a4.2453 4.7 0 0 1-4.2453-4.7v-32.9a4.2453 4.7 0 0 1 4.2453-4.7"/><path transform="matrix(.9434 0 0 1.0444 -.9434 -1.0444)" d="m8.15 3.25h38.7a4.5 4.5 0 0 1 4.5 4.5v31.5a4.5 4.5 0 0 1-4.5 4.5h-38.7a4.5 4.5 0 0 1-4.5-4.5v-31.5a4.5 4.5 0 0 1 4.5-4.5" clip-path="url(#e-2)" style="fill:url(#linearGradient2755);filter:url(#c-9)"/></g><g transform="matrix(.96 0 0 1.0213 535.2 247.2)" style="fill-rule:evenodd;fill:#ec3900"><path d="m4.717-2e-5h40.566a4.717 5.2222 0 0 1 4.717 5.2222v36.556a4.717 5.2222 0 0 1-4.717 5.2222h-40.566a4.717 5.2222 0 0 1-4.717-5.2222v-36.556a4.717 5.2222 0 0 1 4.717-5.2222"/><path transform="matrix(.9434 0 0 1.0444 -.9434 -1.0444)" d="m6 1h43a5 5 0 0 1 5 5v35a5 5 0 0 1-5 5h-43a5 5 0 0 1-5-5v-35a5 5 0 0 1 5-5" clip-path="url(#f-1)" style="fill:url(#linearGradient2753);filter:url(#d-4)"/><path d="m6.7453 2.35h36.509a4.2453 4.7 0 0 1 4.2453 4.7v32.9a4.2453 4.7 0 0 1-4.2453 4.7h-36.509a4.2453 4.7 0 0 1-4.2453-4.7v-32.9a4.2453 4.7 0 0 1 4.2453-4.7"/><path transform="matrix(.9434 0 0 1.0444 -.9434 -1.0444)" d="m8.15 3.25h38.7a4.5 4.5 0 0 1 4.5 4.5v31.5a4.5 4.5 0 0 1-4.5 4.5h-38.7a4.5 4.5 0 0 1-4.5-4.5v-31.5a4.5 4.5 0 0 1 4.5-4.5" clip-path="url(#e-2)" style="fill:url(#linearGradient2755);filter:url(#c-9)"/></g><g transform="matrix(.96 0 0 1.0213 535.2 304.8)" style="fill-rule:evenodd;fill:#eeab01"><path d="m4.717-2e-5h40.566a4.717 5.2222 0 0 1 4.717 5.2222v36.556a4.717 5.2222 0 0 1-4.717 5.2222h-40.566a4.717 5.2222 0 0 1-4.717-5.2222v-36.556a4.717 5.2222 0 0 1 4.717-5.2222"/><path transform="matrix(.9434 0 0 1.0444 -.9434 -1.0444)" d="m6 1h43a5 5 0 0 1 5 5v35a5 5 0 0 1-5 5h-43a5 5 0 0 1-5-5v-35a5 5 0 0 1 5-5" clip-path="url(#f-1)" style="fill:url(#linearGradient2753);filter:url(#d-4)"/><path d="m6.7453 2.35h36.509a4.2453 4.7 0 0 1 4.2453 4.7v32.9a4.2453 4.7 0 0 1-4.2453 4.7h-36.509a4.2453 4.7 0 0 1-4.2453-4.7v-32.9a4.2453 4.7 0 0 1 4.2453-4.7"/><path transform="matrix(.9434 0 0 1.0444 -.9434 -1.0444)" d="m8.15 3.25h38.7a4.5 4.5 0 0 1 4.5 4.5v31.5a4.5 4.5 0 0 1-4.5 4.5h-38.7a4.5 4.5 0 0 1-4.5-4.5v-31.5a4.5 4.5 0 0 1 4.5-4.5" clip-path="url(#e-2)" style="fill:url(#linearGradient2755);filter:url(#c-9)"/></g><g transform="matrix(.96 0 0 1.0213 535.2 362.4)" style="fill-rule:evenodd;fill:#ceff0a"><path d="m4.717-2e-5h40.566a4.717 5.2222 0 0 1 4.717 5.2222v36.556a4.717 5.2222 0 0 1-4.717 5.2222h-40.566a4.717 5.2222 0 0 1-4.717-5.2222v-36.556a4.717 5.2222 0 0 1 4.717-5.2222"/><path transform="matrix(.9434 0 0 1.0444 -.9434 -1.0444)" d="m6 1h43a5 5 0 0 1 5 5v35a5 5 0 0 1-5 5h-43a5 5 0 0 1-5-5v-35a5 5 0 0 1 5-5" clip-path="url(#f-1)" style="fill:url(#linearGradient2753);filter:url(#d-4)"/><path d="m6.7453 2.35h36.509a4.2453 4.7 0 0 1 4.2453 4.7v32.9a4.2453 4.7 0 0 1-4.2453 4.7h-36.509a4.2453 4.7 0 0 1-4.2453-4.7v-32.9a4.2453 4.7 0 0 1 4.2453-4.7"/><path transform="matrix(.9434 0 0 1.0444 -.9434 -1.0444)" d="m8.15 3.25h38.7a4.5 4.5 0 0 1 4.5 4.5v31.5a4.5 4.5 0 0 1-4.5 4.5h-38.7a4.5 4.5 0 0 1-4.5-4.5v-31.5a4.5 4.5 0 0 1 4.5-4.5" clip-path="url(#e-2)" style="fill:url(#linearGradient2755);filter:url(#c-9)"/></g><g transform="matrix(.96 0 0 1.0213 535.2 420)" style="fill-rule:evenodd;fill:#51ff00"><path d="m4.717-2e-5h40.566a4.717 5.2222 0 0 1 4.717 5.2222v36.556a4.717 5.2222 0 0 1-4.717 5.2222h-40.566a4.717 5.2222 0 0 1-4.717-5.2222v-36.556a4.717 5.2222 0 0 1 4.717-5.2222"/><path transform="matrix(.9434 0 0 1.0444 -.9434 -1.0444)" d="m6 1h43a5 5 0 0 1 5 5v35a5 5 0 0 1-5 5h-43a5 5 0 0 1-5-5v-35a5 5 0 0 1 5-5" clip-path="url(#f-1)" style="fill:url(#linearGradient2753);filter:url(#d-4)"/><path d="m6.7453 2.35h36.509a4.2453 4.7 0 0 1 4.2453 4.7v32.9a4.2453 4.7 0 0 1-4.2453 4.7h-36.509a4.2453 4.7 0 0 1-4.2453-4.7v-32.9a4.2453 4.7 0 0 1 4.2453-4.7"/><path transform="matrix(.9434 0 0 1.0444 -.9434 -1.0444)" d="m8.15 3.25h38.7a4.5 4.5 0 0 1 4.5 4.5v31.5a4.5 4.5 0 0 1-4.5 4.5h-38.7a4.5 4.5 0 0 1-4.5-4.5v-31.5a4.5 4.5 0 0 1 4.5-4.5" clip-path="url(#e-2)" style="fill:url(#linearGradient2755);filter:url(#c-9)"/></g><g transform="matrix(.96 0 0 1.0213 535.2 477.6)" style="fill-rule:evenodd;fill:#5bff75"><path d="m4.717-2e-5h40.566a4.717 5.2222 0 0 1 4.717 5.2222v36.556a4.717 5.2222 0 0 1-4.717 5.2222h-40.566a4.717 5.2222 0 0 1-4.717-5.2222v-36.556a4.717 5.2222 0 0 1 4.717-5.2222"/><path transform="matrix(.9434 0 0 1.0444 -.9434 -1.0444)" d="m6 1h43a5 5 0 0 1 5 5v35a5 5 0 0 1-5 5h-43a5 5 0 0 1-5-5v-35a5 5 0 0 1 5-5" clip-path="url(#f-1)" style="fill:url(#linearGradient2753);filter:url(#d-4)"/><path d="m6.7453 2.35h36.509a4.2453 4.7 0 0 1 4.2453 4.7v32.9a4.2453 4.7 0 0 1-4.2453 4.7h-36.509a4.2453 4.7 0 0 1-4.2453-4.7v-32.9a4.2453 4.7 0 0 1 4.2453-4.7"/><path transform="matrix(.9434 0 0 1.0444 -.9434 -1.0444)" d="m8.15 3.25h38.7a4.5 4.5 0 0 1 4.5 4.5v31.5a4.5 4.5 0 0 1-4.5 4.5h-38.7a4.5 4.5 0 0 1-4.5-4.5v-31.5a4.5 4.5 0 0 1 4.5-4.5" clip-path="url(#e-2)" style="fill:url(#linearGradient2755);filter:url(#c-9)"/></g><g transform="matrix(.96 0 0 1.0213 535.2 535.2)" style="fill-rule:evenodd;fill:#00f19a"><path d="m4.717-2e-5h40.566a4.717 5.2222 0 0 1 4.717 5.2222v36.556a4.717 5.2222 0 0 1-4.717 5.2222h-40.566a4.717 5.2222 0 0 1-4.717-5.2222v-36.556a4.717 5.2222 0 0 1 4.717-5.2222"/><path transform="matrix(.9434 0 0 1.0444 -.9434 -1.0444)" d="m6 1h43a5 5 0 0 1 5 5v35a5 5 0 0 1-5 5h-43a5 5 0 0 1-5-5v-35a5 5 0 0 1 5-5" clip-path="url(#f-1)" style="fill:url(#linearGradient2753);filter:url(#d-4)"/><path d="m6.7453 2.35h36.509a4.2453 4.7 0 0 1 4.2453 4.7v32.9a4.2453 4.7 0 0 1-4.2453 4.7h-36.509a4.2453 4.7 0 0 1-4.2453-4.7v-32.9a4.2453 4.7 0 0 1 4.2453-4.7"/><path transform="matrix(.9434 0 0 1.0444 -.9434 -1.0444)" d="m8.15 3.25h38.7a4.5 4.5 0 0 1 4.5 4.5v31.5a4.5 4.5 0 0 1-4.5 4.5h-38.7a4.5 4.5 0 0 1-4.5-4.5v-31.5a4.5 4.5 0 0 1 4.5-4.5" clip-path="url(#e-2)" style="fill:url(#linearGradient2755);filter:url(#c-9)"/></g></g></g></svg>
