<?xml version="1.0" encoding="UTF-8" standalone="no"?>
<!-- Created with Inkscape (http://www.inkscape.org/) -->

<svg
   xmlns:dc="http://purl.org/dc/elements/1.1/"
   xmlns:cc="http://creativecommons.org/ns#"
   xmlns:rdf="http://www.w3.org/1999/02/22-rdf-syntax-ns#"
   xmlns:svg="http://www.w3.org/2000/svg"
   xmlns="http://www.w3.org/2000/svg"
   xmlns:sodipodi="http://sodipodi.sourceforge.net/DTD/sodipodi-0.dtd"
   xmlns:inkscape="http://www.inkscape.org/namespaces/inkscape"
   width="60mm"
   height="66.000259mm"
   viewBox="0 0 60 66.000259"
   version="1.1"
   id="svg8"
   sodipodi:docname="robocik5.svg"
   inkscape:version="0.92.3 (2405546, 2018-03-11)">
  <defs
     id="defs2" />
  <sodipodi:namedview
     id="base"
     pagecolor="#ffffff"
     bordercolor="#666666"
     borderopacity="1.0"
     inkscape:pageopacity="0.0"
     inkscape:pageshadow="2"
     inkscape:zoom="1.979899"
     inkscape:cx="163.77278"
     inkscape:cy="66.439642"
     inkscape:document-units="mm"
     inkscape:current-layer="layer1-5"
     showgrid="false"
     fit-margin-top="0"
     fit-margin-left="0"
     fit-margin-right="0"
     fit-margin-bottom="0"
     inkscape:window-width="1920"
     inkscape:window-height="1017"
     inkscape:window-x="-8"
     inkscape:window-y="-8"
     inkscape:window-maximized="1" />
  <metadata
     id="metadata5">
    <rdf:RDF>
      <cc:Work
         rdf:about="">
        <dc:format>image/svg+xml</dc:format>
        <dc:type
           rdf:resource="http://purl.org/dc/dcmitype/StillImage" />
        <dc:title></dc:title>
      </cc:Work>
    </rdf:RDF>
  </metadata>
  <g
     inkscape:label="Layer 1"
     inkscape:groupmode="layer"
     id="layer1"
     transform="translate(-73.565476,-62.916539)">
    <g
       transform="translate(17.386901,-20.410714)"
       id="layer1-9"
       inkscape:label="Layer 1">
      <g
         transform="translate(56.178575,83.327249)"
         id="g1089">
        <g
           inkscape:label="Layer 1"
           id="layer1-5"
           style="display:inline"
           transform="translate(-10,-220.99974)">
          <rect
             style="fill:#f9f9f9;fill-rule:evenodd;stroke-width:0.26966324"
             id="rect1042"
             width="60"
             height="20"
             x="10"
             y="232.99991"
             ry="5.0878153" />
          <circle
             style="opacity:1;fill:#55ddff;fill-opacity:1;fill-rule:evenodd;stroke:none;stroke-width:0.36422759;stroke-linecap:round;stroke-linejoin:round;stroke-miterlimit:4;stroke-dasharray:none;stroke-opacity:1;paint-order:normal"
             id="path960"
             cx="25"
             cy="242.99991"
             r="9" />
          <ellipse
             style="display:inline;opacity:1;fill:#00ccff;fill-opacity:1;fill-rule:evenodd;stroke:none;stroke-width:0.15981413;stroke-linecap:round;stroke-linejoin:round;stroke-miterlimit:4;stroke-dasharray:none;stroke-opacity:1;paint-order:normal"
             id="path960-1"
             cx="24.977039"
             cy="242.97694"
             rx="3.9489791"
             ry="3.9489794" />
          <circle
             style="opacity:1;fill:#d5f6ff;fill-opacity:1;fill-rule:evenodd;stroke:none;stroke-width:0.36422759;stroke-linecap:round;stroke-linejoin:round;stroke-miterlimit:4;stroke-dasharray:none;stroke-opacity:1;paint-order:normal"
             id="path977"
             cx="23.255098"
             cy="241.07133"
             r="1.377551" />
          <circle
             style="display:inline;opacity:1;fill:#d5f6ff;fill-opacity:1;fill-rule:evenodd;stroke:none;stroke-width:0.1821138;stroke-linecap:round;stroke-linejoin:round;stroke-miterlimit:4;stroke-dasharray:none;stroke-opacity:1;paint-order:normal"
             id="path977-0"
             cx="27.25"
             cy="245.52539"
             r="0.68877548" />
          <circle
             style="display:inline;opacity:1;fill:#55ddff;fill-opacity:1;fill-rule:evenodd;stroke:none;stroke-width:0.36422759;stroke-linecap:round;stroke-linejoin:round;stroke-miterlimit:4;stroke-dasharray:none;stroke-opacity:1;paint-order:normal"
             id="path960-8"
             cx="55.00005"
             cy="242.99991"
             r="9" />
          <ellipse
             style="display:inline;opacity:1;fill:#00ccff;fill-opacity:1;fill-rule:evenodd;stroke:none;stroke-width:0.15981413;stroke-linecap:round;stroke-linejoin:round;stroke-miterlimit:4;stroke-dasharray:none;stroke-opacity:1;paint-order:normal"
             id="path960-1-2"
             cx="54.9771"
             cy="242.97694"
             rx="3.9489791"
             ry="3.9489794" />
          <circle
             style="display:inline;opacity:1;fill:#d5f6ff;fill-opacity:1;fill-rule:evenodd;stroke:none;stroke-width:0.36422759;stroke-linecap:round;stroke-linejoin:round;stroke-miterlimit:4;stroke-dasharray:none;stroke-opacity:1;paint-order:normal"
             id="path977-04"
             cx="53.255161"
             cy="241.07133"
             r="1.377551" />
          <circle
             style="display:inline;opacity:1;fill:#d5f6ff;fill-opacity:1;fill-rule:evenodd;stroke:none;stroke-width:0.1821138;stroke-linecap:round;stroke-linejoin:round;stroke-miterlimit:4;stroke-dasharray:none;stroke-opacity:1;paint-order:normal"
             id="path977-0-7"
             cx="57.25005"
             cy="245.52539"
             r="0.68877548" />
          <ellipse
             style="opacity:1;fill:#ff8080;fill-opacity:1;fill-rule:evenodd;stroke:#f9f9f9;stroke-width:0.26687226;stroke-linecap:round;stroke-linejoin:round;stroke-miterlimit:4;stroke-dasharray:none;stroke-opacity:1;paint-order:normal"
             id="path1044"
             cx="40.000042"
             cy="250.99991"
             rx="3.8665638"
             ry="0.86656386" />
          <path
             style="fill:#50162d;fill-rule:evenodd;stroke:none;stroke-width:0.27163988;stroke-opacity:1"
             d="m 35.000006,252.99985 h 10 l 1,4 h -12 z"
             id="rect1048"
             inkscape:connector-curvature="0"
             sodipodi:nodetypes="ccccc" />
          <path
             sodipodi:type="star"
             style="display:inline;opacity:1;fill:#50162d;fill-opacity:1;fill-rule:evenodd;stroke:none;stroke-width:0.26499999;stroke-linecap:round;stroke-linejoin:round;stroke-miterlimit:4;stroke-dasharray:none;stroke-opacity:1;paint-order:normal"
             id="path1057-8"
             sodipodi:sides="4"
             sodipodi:cx="60.476192"
             sodipodi:cy="250.31995"
             sodipodi:r1="27.13625"
             sodipodi:r2="19.188227"
             sodipodi:arg1="0"
             sodipodi:arg2="0.78539816"
             inkscape:flatsided="true"
             inkscape:rounded="0.8"
             inkscape:randomized="0"
             d="m 87.612442,250.31995 c 0,30.70116 3.564912,27.13625 -27.13625,27.13625 -30.701161,0 -27.136249,3.56491 -27.136249,-27.13625 0,-30.70117 -3.564912,-27.13625 27.136249,-27.13625 30.701162,0 27.13625,-3.56492 27.13625,27.13625 z"
             inkscape:transform-center-y="3.9185899e-006"
             transform="matrix(0.0683724,0.11693142,-0.07117133,0.03988379,75.180707,251.94457)"
             inkscape:transform-center-x="1.5836236e-006" />
          <circle
             style="opacity:1;fill:#f9f9f9;fill-opacity:1;fill-rule:evenodd;stroke:none;stroke-width:0.26087531;stroke-linecap:round;stroke-linejoin:round;stroke-miterlimit:4;stroke-dasharray:none;stroke-opacity:1;paint-order:normal"
             id="path1078"
             cx="58.000046"
             cy="263"
             r="4" />
          <path
             transform="matrix(0.0683724,-0.11693142,-0.07117133,-0.03988379,32.180707,286.05513)"
             d="m 87.612442,250.31995 c 0,30.70116 3.564912,27.13625 -27.13625,27.13625 -30.701161,0 -27.136249,3.56491 -27.136249,-27.13625 0,-30.70117 -3.564912,-27.13625 27.136249,-27.13625 30.701162,0 27.13625,-3.56492 27.13625,27.13625 z"
             inkscape:randomized="0"
             inkscape:rounded="0.8"
             inkscape:flatsided="true"
             sodipodi:arg2="0.78539816"
             sodipodi:arg1="0"
             sodipodi:r2="19.188227"
             sodipodi:r1="27.13625"
             sodipodi:cy="250.31995"
             sodipodi:cx="60.476192"
             sodipodi:sides="4"
             id="path1119"
             style="display:inline;opacity:1;fill:#50162d;fill-opacity:1;fill-rule:evenodd;stroke:none;stroke-width:0.26499999;stroke-linecap:round;stroke-linejoin:round;stroke-miterlimit:4;stroke-dasharray:none;stroke-opacity:1;paint-order:normal"
             sodipodi:type="star"
             inkscape:transform-center-y="-6.3134119e-006" />
          <circle
             style="display:inline;opacity:1;fill:#f9f9f9;fill-opacity:1;fill-rule:evenodd;stroke:none;stroke-width:0.26087531;stroke-linecap:round;stroke-linejoin:round;stroke-miterlimit:4;stroke-dasharray:none;stroke-opacity:1;paint-order:normal"
             id="path1078-1"
             cx="21.99999"
             cy="263"
             r="4" />
          <circle
             style="display:inline;opacity:1;fill:#f9f9f9;fill-opacity:1;fill-rule:evenodd;stroke:none;stroke-width:0.19565648;stroke-linecap:round;stroke-linejoin:round;stroke-miterlimit:4;stroke-dasharray:none;stroke-opacity:1;paint-order:normal"
             id="path1078-2"
             cx="64.000092"
             cy="273.99991"
             r="3" />
          <circle
             r="3"
             cy="273.99991"
             cx="16"
             id="circle1136"
             style="display:inline;opacity:1;fill:#f9f9f9;fill-opacity:1;fill-rule:evenodd;stroke:none;stroke-width:0.19565648;stroke-linecap:round;stroke-linejoin:round;stroke-miterlimit:4;stroke-dasharray:none;stroke-opacity:1;paint-order:normal" />
          <path
             sodipodi:type="star"
             style="opacity:1;fill:#f9f9f9;fill-opacity:1;fill-rule:evenodd;stroke:none;stroke-width:0.26499999;stroke-linecap:round;stroke-linejoin:round;stroke-miterlimit:4;stroke-dasharray:none;stroke-opacity:1;paint-order:normal"
             id="path1057"
             sodipodi:sides="4"
             sodipodi:cx="60.476192"
             sodipodi:cy="250.31995"
             sodipodi:r1="27.13625"
             sodipodi:r2="19.188227"
             sodipodi:arg1="0"
             sodipodi:arg2="0.78539816"
             inkscape:flatsided="true"
             inkscape:rounded="0.8"
             inkscape:randomized="0"
             d="m 87.612442,250.31995 c 0,30.70116 3.564912,27.13625 -27.13625,27.13625 -30.701161,0 -27.136249,3.56491 -27.136249,-27.13625 0,-30.70117 -3.564912,-27.13625 27.136249,-27.13625 30.701162,0 27.13625,-3.56492 27.13625,27.13625 z"
             inkscape:transform-center-y="2.0881358e-006"
             transform="matrix(0.55019882,0,0,0.36679921,6.7260755,175.18269)" />
          <path
             sodipodi:type="star"
             style="display:inline;opacity:1;fill:#50162d;fill-opacity:1;fill-rule:evenodd;stroke:none;stroke-width:0.26499999;stroke-linecap:round;stroke-linejoin:round;stroke-miterlimit:4;stroke-dasharray:none;stroke-opacity:1;paint-order:normal"
             id="path1057-4"
             sodipodi:sides="4"
             sodipodi:cx="60.476192"
             sodipodi:cy="250.31995"
             sodipodi:r1="27.13625"
             sodipodi:r2="19.188227"
             sodipodi:arg1="0"
             sodipodi:arg2="0.78539816"
             inkscape:flatsided="true"
             inkscape:rounded="0.8"
             inkscape:randomized="0"
             d="m 87.612442,250.31995 c 0,30.70116 3.564912,27.13625 -27.13625,27.13625 -30.701161,0 -27.136249,3.56491 -27.136249,-27.13625 0,-30.70117 -3.564912,-27.13625 27.136249,-27.13625 30.701162,0 27.13625,-3.56492 27.13625,27.13625 z"
             inkscape:transform-center-y="-3.4897668e-006"
             transform="matrix(0.14671968,0,0,0.12837972,25.126958,248.36385)" />
          <path
             sodipodi:type="star"
             style="display:inline;opacity:1;fill:#50162d;fill-opacity:1;fill-rule:evenodd;stroke:none;stroke-width:0.26499999;stroke-linecap:round;stroke-linejoin:round;stroke-miterlimit:4;stroke-dasharray:none;stroke-opacity:1;paint-order:normal"
             id="path1057-4-5"
             sodipodi:sides="4"
             sodipodi:cx="60.476192"
             sodipodi:cy="250.31995"
             sodipodi:r1="27.13625"
             sodipodi:r2="19.188227"
             sodipodi:arg1="0"
             sodipodi:arg2="0.78539816"
             inkscape:flatsided="true"
             inkscape:rounded="0.8"
             inkscape:randomized="0"
             d="m 87.612442,250.31995 c 0,30.70116 3.564912,27.13625 -27.13625,27.13625 -30.701161,0 -27.136249,3.56491 -27.136249,-27.13625 0,-30.70117 -3.564912,-27.13625 27.136249,-27.13625 30.701162,0 27.13625,-3.56492 27.13625,27.13625 z"
             inkscape:transform-center-y="-3.4897668e-006"
             transform="matrix(0.14671968,0,0,0.12837972,37.126958,248.36385)" />
          <circle
             style="display:inline;opacity:1;fill:#f9f9f9;fill-opacity:1;fill-rule:evenodd;stroke:none;stroke-width:0.26087531;stroke-linecap:round;stroke-linejoin:round;stroke-miterlimit:4;stroke-dasharray:none;stroke-opacity:1;paint-order:normal"
             id="path1078-1-3"
             cx="34.000042"
             cy="283"
             r="4" />
          <circle
             r="4"
             cy="283"
             cx="46.000065"
             id="circle1209"
             style="display:inline;opacity:1;fill:#f9f9f9;fill-opacity:1;fill-rule:evenodd;stroke:none;stroke-width:0.26087531;stroke-linecap:round;stroke-linejoin:round;stroke-miterlimit:4;stroke-dasharray:none;stroke-opacity:1;paint-order:normal" />
          <g
             id="g5048"
             transform="matrix(0.06003776,0,0,0.06162025,19.999674,220.99842)">
            <g
               id="Layer_3">
              <path
                 id="path5003"
                 d="m 176.18,215.03 c 0,0 36.925,-135.74 149.32,-136.57 112.395,-0.83 159.17,42.624 164.55,153.48 -104.22,-41.083 -187.46,15.797 -218.16,43.969 -31.64,-40.63 -33.99,-59.43 -95.71,-60.88 z"
                 inkscape:connector-curvature="0" />
            </g>
            <g
               id="Layer_2">
              <path
                 id="path5006"
                 d="m 661.07,68.443 c 6.354,2.381 8.366,10.915 -7.487,14.596 l -332.06,101.24 c -6.264,1.918 -14.637,4.998 -16.13,0.121 L 0.783,106.17 C -0.71,101.293 3.158,95.785 9.423,93.866 L 306.773,2.782 c 9.801,-3.107 9.801,-3.107 19.857,0.053 z"
                 inkscape:connector-curvature="0"
                 style="stroke:#333333;stroke-width:0.91619998" />
              <path
                 id="path5008"
                 d="m 552.78,150.36 c 0,-12.811 -18.305,-31.293 -27.322,-27.37"
                 inkscape:connector-curvature="0"
                 style="fill:none;stroke:#000000;stroke-width:6" />
              <circle
                 id="circle5010"
                 r="5.579"
                 cx="552.66998"
                 cy="150.34" />
              <circle
                 id="circle5012"
                 r="8.0950003"
                 cx="552.78003"
                 cy="156.88" />
              <circle
                 id="circle5014"
                 r="8.0950003"
                 cx="552.78003"
                 cy="164.00999" />
              <path
                 id="path5016"
                 d="m 571.77,197.29 c -0.737,-1.001 -1.598,-1.822 -1.805,-2.672 -1.618,-6.629 -6.54,-26.801 -13.305,-28.636 -0.915,-0.248 -1.477,-1.281 -1.256,-2.308 0.221,-1.027 1.144,-1.654 2.057,-1.409 7.684,2.083 12.294,17.014 15.79,31.343 0.249,1.019 -0.028,2.269 -0.397,3.485 -0.05,0.167 -0.296,1.196 -0.444,1.196 l -0.64,-0.99 z"
                 inkscape:connector-curvature="0" />
              <path
                 id="path5018"
                 d="m 567.52,200.05 c -0.737,-1.001 -1.598,-1.822 -1.805,-2.672 -1.618,-6.629 -6.54,-26.801 -13.305,-28.636 -0.915,-0.248 -1.477,-1.281 -1.256,-2.308 0.221,-1.027 1.144,-1.654 2.057,-1.409 7.684,2.083 12.294,17.014 15.79,31.343 0.249,1.019 -0.028,2.269 -0.397,3.485 -0.05,0.167 -0.296,1.196 -0.444,1.196 l -0.65,-0.99 z"
                 inkscape:connector-curvature="0" />
              <path
                 id="path5020"
                 d="m 557.14,201.4 c 0.15,-1.233 0.497,-2.371 0.262,-3.214 -1.845,-6.57 -7.456,-26.561 -2.462,-31.479 0.674,-0.666 0.656,-1.841 -0.038,-2.628 -0.697,-0.785 -1.809,-0.88 -2.485,-0.218 -5.672,5.587 -2.36,20.856 1.626,35.059 0.283,1.009 1.139,1.962 2.056,2.841 0.127,0.121 0.845,0.897 0.975,0.824 l 0.06,-1.18 z"
                 inkscape:connector-curvature="0" />
              <path
                 id="path5022"
                 d="m 550.8,200.9 c 0.15,-1.233 0.497,-2.371 0.262,-3.214 -1.845,-6.57 -7.456,-26.561 -2.462,-31.479 0.674,-0.666 0.656,-1.841 -0.038,-2.628 -0.697,-0.785 -1.809,-0.88 -2.485,-0.218 -5.672,5.587 -2.36,20.856 1.626,35.059 0.283,1.009 1.139,1.962 2.056,2.841 0.127,0.121 0.845,0.897 0.975,0.824 l 0.06,-1.18 z"
                 inkscape:connector-curvature="0" />
              <path
                 id="path5024"
                 d="m 563.44,199.58 c 0.205,-1.528 0.678,-2.938 0.356,-3.982 -2.516,-8.141 -10.169,-32.91 -3.357,-39.004 0.919,-0.825 0.896,-2.28 -0.052,-3.256 -0.951,-0.973 -2.467,-1.09 -3.39,-0.27 -7.736,6.922 -3.22,25.842 2.218,43.439 0.386,1.25 1.553,2.431 2.804,3.52 0.173,0.15 1.151,1.112 1.329,1.021 l 0.09,-1.47 z"
                 inkscape:connector-curvature="0" />
            </g>
          </g>
          <g
             id="g973"
             transform="rotate(-45,31.412251,288.28681)">
            <rect
               y="281"
               x="60"
               height="3"
               width="3"
               id="rect955"
               style="fill:#ff5555;fill-opacity:1;fill-rule:evenodd;stroke-width:0.25547081" />
            <circle
               r="1.5"
               cy="281"
               cx="61.5"
               id="path957"
               style="opacity:1;fill:#ff5555;fill-opacity:1;fill-rule:evenodd;stroke:none;stroke-width:0.31180158;stroke-linecap:round;stroke-linejoin:round;stroke-miterlimit:4;stroke-dasharray:none;stroke-opacity:1;paint-order:normal" />
            <circle
               style="opacity:1;fill:#ff5555;fill-opacity:1;fill-rule:evenodd;stroke:none;stroke-width:0.31180158;stroke-linecap:round;stroke-linejoin:round;stroke-miterlimit:4;stroke-dasharray:none;stroke-opacity:1;paint-order:normal"
               id="circle968"
               cx="63.000008"
               cy="282.5"
               r="1.5" />
          </g>
        </g>
        <g
           id="layer2"
           inkscape:label="Layer 2"
           style="display:none"
           transform="translate(-10,-220.99974)">
          <ellipse
             style="opacity:1;fill:#ff8080;fill-opacity:1;fill-rule:evenodd;stroke:none;stroke-width:0.79400003;stroke-linecap:round;stroke-linejoin:round;stroke-miterlimit:4;stroke-dasharray:none;stroke-opacity:1;paint-order:normal"
             id="path815"
             cx="73.886879"
             cy="54.906246"
             rx="24.946428"
             ry="12.473214" />
          <ellipse
             style="opacity:1;fill:#ff0000;fill-opacity:1;fill-rule:evenodd;stroke:none;stroke-width:0.79400003;stroke-linecap:round;stroke-linejoin:round;stroke-miterlimit:4;stroke-dasharray:none;stroke-opacity:1;paint-order:normal"
             id="path832"
             cx="73.962959"
             cy="54.733601"
             rx="6.0135641"
             ry="4.9444861" />
          <ellipse
             style="opacity:1;fill:#ffffff;fill-opacity:1;fill-rule:evenodd;stroke:none;stroke-width:0.79400003;stroke-linecap:round;stroke-linejoin:round;stroke-miterlimit:4;stroke-dasharray:none;stroke-opacity:1;paint-order:normal"
             id="path851"
             cx="71.319389"
             cy="52.496647"
             rx="1.6300223"
             ry="1.5119048" />
          <ellipse
             style="opacity:1;fill:#ffffff;fill-opacity:1;fill-rule:evenodd;stroke:none;stroke-width:0.79400003;stroke-linecap:round;stroke-linejoin:round;stroke-miterlimit:4;stroke-dasharray:none;stroke-opacity:1;paint-order:normal"
             id="path853"
             cx="76.374809"
             cy="58.14267"
             rx="0.82682288"
             ry="0.87406993" />
          <ellipse
             style="opacity:1;fill:#ff8080;fill-opacity:1;fill-rule:evenodd;stroke:none;stroke-width:0.79400003;stroke-linecap:round;stroke-linejoin:round;stroke-miterlimit:4;stroke-dasharray:none;stroke-opacity:1;paint-order:normal"
             id="path815-1"
             cx="136.4494"
             cy="54.717262"
             rx="24.946428"
             ry="12.473214" />
          <ellipse
             style="opacity:1;fill:#ff0000;fill-opacity:1;fill-rule:evenodd;stroke:none;stroke-width:0.79400003;stroke-linecap:round;stroke-linejoin:round;stroke-miterlimit:4;stroke-dasharray:none;stroke-opacity:1;paint-order:normal"
             id="path832-5"
             cx="136.52548"
             cy="54.544617"
             rx="6.0135641"
             ry="4.9444861" />
          <ellipse
             style="opacity:1;fill:#ffffff;fill-opacity:1;fill-rule:evenodd;stroke:none;stroke-width:0.79400003;stroke-linecap:round;stroke-linejoin:round;stroke-miterlimit:4;stroke-dasharray:none;stroke-opacity:1;paint-order:normal"
             id="path851-4"
             cx="133.88191"
             cy="52.307663"
             rx="1.6300223"
             ry="1.5119048" />
          <ellipse
             style="opacity:1;fill:#ffffff;fill-opacity:1;fill-rule:evenodd;stroke:none;stroke-width:0.79400003;stroke-linecap:round;stroke-linejoin:round;stroke-miterlimit:4;stroke-dasharray:none;stroke-opacity:1;paint-order:normal"
             id="path853-0"
             cx="138.93733"
             cy="57.953682"
             rx="0.82682294"
             ry="0.87406993" />
          <rect
             style="fill:#ff8080;fill-opacity:1;fill-rule:evenodd;stroke-width:0.26458332"
             id="rect879"
             width="24.054258"
             height="7.7508192"
             x="92.742523"
             y="50.844772"
             rx="3.9999974"
             ry="3.8754096" />
          <rect
             style="display:inline;fill:#ff8080;fill-opacity:1;fill-rule:evenodd;stroke:none;stroke-width:0.23771937"
             id="rect935"
             width="19.762281"
             height="29.762281"
             x="95.236565"
             y="58.324806"
             rx="3.4856284"
             ry="4.6318235" />
        </g>
      </g>
    </g>
  </g>
</svg>
