<?xml version="1.0" encoding="UTF-8"?>
<svg width="692.47mm" height="671.57mm" version="1.1" viewBox="0 0 692.47 671.57" xmlns="http://www.w3.org/2000/svg" xmlns:xlink="http://www.w3.org/1999/xlink"><defs><clipPath id="clipPath1102"><path d="m0 2038h2122v-2038h-2122z"/></clipPath><clipPath id="clipPath1114"><path d="m1284.8 1028.7h197.59v-438.8h-197.59z"/></clipPath><clipPath id="clipPath1134"><path d="m1382.6 921.55h302.48v-273.97h-302.48z"/></clipPath><clipPath id="clipPath1150"><path d="m1345.1 893.75h363.74v-308.45h-363.74z"/></clipPath><clipPath id="clipPath1170"><path d="m1536.1 1166.2h504.14v-546.31h-504.14z"/></clipPath><clipPath id="clipPath1186"><path d="m1513.7 1140h487.83v-461.82h-487.83z"/></clipPath><clipPath id="clipPath1206"><path d="m635.17 567.22h379.01v-335.34h-379.01z"/></clipPath><clipPath id="clipPath1226"><path d="m1098.5 1679.8h286.25v-660.81h-286.25z"/></clipPath><clipPath id="clipPath1246"><path d="m748.02 1967.3h688.95v-1517.4h-688.95z"/></clipPath><clipPath id="clipPath1262"><path d="m971.41 845.58h206.29v-215.14h-206.29z"/></clipPath><clipPath id="clipPath1282"><path d="m817.65 560.64h119.32v-130.63h-119.32z"/></clipPath><clipPath id="clipPath1302"><path d="m1074.2 570.48h110.2v-128.28h-110.2z"/></clipPath><clipPath id="clipPath1322"><path d="m651.6 1063.2h240.4v-423.75h-240.4z"/></clipPath><clipPath id="clipPath1342"><path d="m401.56 917.14h345.74v-215.19h-345.74z"/></clipPath><clipPath id="clipPath1358"><path d="m391.78 870.32h406.64v-230.19h-406.64z"/></clipPath><clipPath id="clipPath1378"><path d="m77.38 1125.6h496.76v-561.51h-496.76z"/></clipPath><clipPath id="clipPath1394"><path d="m108.8 1106h472.98v-482.95h-472.98z"/></clipPath><clipPath id="clipPath1410"><path d="m959.76 1210.7h204.04v-287.16h-204.04z"/></clipPath><clipPath id="clipPath1430"><path d="m957.93 1209.6h269.12v-322.63h-269.12z"/></clipPath><clipPath id="clipPath1446"><path d="m957.93 1209.6h257.28v-116.69h-257.28z"/></clipPath><clipPath id="clipPath1466"><path d="m1040.5 1164.5h120.39v-173.28h-120.39z"/></clipPath><clipPath id="clipPath1486"><path d="m1091.6 1113h41.32v-46.58h-41.32z"/></clipPath><clipPath id="clipPath1502"><path d="m1127.3 1111.7h8.93v-39.07h-8.93z"/></clipPath><clipPath id="clipPath1518"><path d="m1098.1 1095.7h55.49v-77.94h-55.49z"/></clipPath><clipPath id="clipPath1534"><path d="m988.19 1192.3h214.6v-263.88h-214.6z"/></clipPath><clipPath id="clipPath1550"><path d="m1063.2 1063.4h166.01v-168.8h-166.01z"/></clipPath><clipPath id="clipPath1566"><path d="m1154.6 980.6h76.26v-85.842h-76.26z"/></clipPath><clipPath id="clipPath1586"><path d="m964.7 1271.7h500.06v-161.8h-500.06z"/></clipPath><clipPath id="clipPath1602"><path d="m999.04 1183h458.62v-73.12h-458.62z"/></clipPath><clipPath id="clipPath1618"><path d="m1142.4 1228.4h288.69v-95.85h-288.69z"/></clipPath><clipPath id="clipPath1634"><path d="m1255.9 1207.4h190.91v-76.57h-190.91z"/></clipPath><clipPath id="clipPath1654"><path d="m957.9 1274.6h263.72v-73.46h-263.72z"/></clipPath><clipPath id="clipPath1670"><path d="m911.08 1238.6h60.595v-46.8h-60.595z"/></clipPath><clipPath id="clipPath1694"><path d="m675.75 524.68h298.63v-457.89h-298.63z"/></clipPath><clipPath id="clipPath1710"><path d="m760.15 468.22h204.85v-376.72h-204.85z"/></clipPath><clipPath id="clipPath1734"><path d="m1071.1 528.24h300.51v-443.99h-300.51z"/></clipPath><clipPath id="clipPath1750"><path d="m1155 503.12h209.14v-393.21h-209.14z"/></clipPath><clipPath id="clipPath1774"><path d="m905.43 1593.2h187.92v-328.85h-187.92z"/></clipPath><clipPath id="clipPath1794"><path d="m961.65 1515h99.759v-203.45h-99.759z"/></clipPath><clipPath id="clipPath1826"><path d="m896.82 1609.9h144.04v-130.59h-144.04z"/></clipPath><clipPath id="clipPath1842"><path d="m978.5 1543.1h102.12v-204.16h-102.12z"/></clipPath><clipPath id="clipPath1866"><path d="m1225.1 1599.6h181.88v-326.61h-181.88z"/></clipPath><clipPath id="clipPath1886"><path d="m1281.4 1504.8h83.05v-187.4h-83.05z"/></clipPath><clipPath id="clipPath1918"><path d="m1265.6 1617.7h148.54v-126.44h-148.54z"/></clipPath><clipPath id="clipPath1934"><path d="m1320.8 1542.2h76.65v-214.88h-76.65z"/></clipPath><clipPath id="clipPath1954"><path d="m876.54 1737.3h159.92v-116.14h-159.92z"/></clipPath><clipPath id="clipPath1970"><path d="m852.28 1738.1h204.06v-215.38h-204.06z"/></clipPath><clipPath id="clipPath1990"><path d="m1233.6 1749.5h168.74v-77.99h-168.74z"/></clipPath><clipPath id="clipPath2006"><path d="m1212.6 1747.8h226.16v-157.9h-226.16z"/></clipPath></defs><g transform="translate(278.18 210.06)"><g transform="matrix(.35278 0 0 -.35278 -305.47 485.06)"><g clip-path="url(#clipPath1102)"><g transform="translate(1403.5 878.57)"><path d="m0 0s-74.513 154.37-93.846 150.06c-26.214-5.852-31.5-45.866-16.728-184.72 12.631-118.74 22.04-213.62 53.207-239.85 30.915-26.012 144.9-23.043 135.74 68.642-8.717 87.247-78.369 205.88-78.369 205.88" style="fill:#d43232"/></g><g clip-path="url(#clipPath1114)" style="opacity:.14999"><g transform="translate(1481.9 672.69)"><path d="m0 0c-1.651 16.531-5.533 34.238-10.729 52.131-0.413-6.895-1.895-13.722-2.804-20.553-8.121-61.07-100.54-70.808-122.13-7.414-10.17 29.865-17.108 62.61-22.625 96.822-6.265 38.847-12.832 79.573-17.575 122.97-2.179 19.936-3.976 40.781-1.583 62.315 1.553 13.976 7.017 30.978 17.51 33.973 2.051 0.585 4.04 0.493 5.974 0.014-7.79 10.31-14.309 16.55-18.252 15.671-26.214-5.852-31.5-45.866-16.728-184.72 12.631-118.74 22.04-213.62 53.207-239.85 30.915-26.012 144.9-23.043 135.74 68.642"/></g></g><g transform="translate(1345.1 617.64)"><path d="m0 0s10.991 75.565 128.14 220.62c87.899 108.84 199.59 104 229.14 22.08 30.014-83.195-51.335-138.54-106.54-179.36-64.303-47.544-239.92-146.93-250.74-63.336" style="fill:#d43232"/></g><g clip-path="url(#clipPath1134)" style="opacity:.25"><g transform="translate(1494.3 789.09)"><path d="m0 0c39.747 39.749 69.551 60.578 115.59 84.525 24.77 12.883 51.069 19.826 75.24 17.59-41.526 50.315-135.55 41.604-211.9-52.937-37.581-46.535-65.011-87.604-84.664-121.56-9.398-26.567-7.718-50.455 5.896-69.13 0 0 44.505 86.18 99.833 141.51" style="fill:#fff"/></g></g><g clip-path="url(#clipPath1150)" style="opacity:.14999"><g transform="translate(1702.4 860.34)"><path d="m0 0c-4.83 13.387-11.453 24.474-19.419 33.41 4.878-46.994-23.943-98.855-70.342-147.53-35.815-37.571-114.82-116.88-192.45-122.52-37.62-2.733-55.426 13.504-60.125 37.389-12.873-29.429-14.947-43.448-14.947-43.448 10.82-83.596 186.44 15.791 250.74 63.336 55.208 40.82 136.56 96.17 106.54 179.36"/></g></g><g transform="translate(1658.8 973.31)"><path d="m0 0c7.339 5.167 76.506 90.465 72.188 176.02-4.318 85.553-165.69-180.74-165.69-180.74l-48.202-75.784s-32.084-43.785 4.96-98.299c37.045-54.514 86.688-77.152 155.18-57.323 0 0 144.55-132 176.68-115.88s-11.339 74.084-53.51 106.48-71.004 51.527-71.004 51.527 146-81.773 203.99-76.237c57.991 5.537 60.48 54.87-39.916 88.133-95.978 31.8-126.36 44.013-126.36 44.013s193.59-70.916 255.66-45.735-56.964 74.527-110.74 85.939c-53.779 11.412-143.77 30.059-143.77 30.059s166.11-20.871 219.77 20.338c53.657 41.21-43.674 62.174-122 57.95-78.325-4.223-207.22-10.458-207.22-10.458" style="fill:#d43232"/></g><g clip-path="url(#clipPath1170)" style="opacity:.14999"><g transform="translate(1840.2 654.3)"><path d="m0 0c-8.515-0.729-16.837 2.485-24.656 5.935-38.202 16.856-109.71 88.172-113.01 87.003-10.191-3.605-33.234 0.236-32.807 10.005 0.294 6.722 14.697 76.909 3.221 120.24-2.52-25.362-25.202-120.49-29.254-121.56-40.508-10.683-72.172-2.089-107.58 20.218 35.32-40.986 80.947-56.383 141.14-38.957 0 0 144.56-132 176.68-115.88 15.126 7.591 13.485 24.461 3.119 43.57-3.017-5.988-9.946-9.985-16.846-10.576m121.06 80.031c-15.537-3.075-31.568 0.37-46.891 4.38-27.533 7.206-54.538 16.271-81.519 25.327-24.802 8.327-49.604 16.652-74.406 24.978-3.397 1.14-6.845 2.306-9.794 4.341 0 0-5.826 23.724-9.181 29.347-1.456-15.675-7.335-27.008-13.602-41.449 2.048-1.087 3.547-1.942 3.547-1.942s146-81.772 203.99-76.236c31.993 3.054 45.697 16.054 35.484 34.545-2.178-1.625-5.007-2.772-7.631-3.291m74.315 83.746c-2.586-3.49-6.381-6.242-10.479-7.79-7.042-2.66-14.787-2.529-22.31-2.315-68.906 1.961-138.79 8.194-203.15 32.879-19.969 7.659-34.697 16.572-47.327 33.832 0.347-10.199-2.425-21.99-4.989-31.868 15.078-6.548 30.586-11.24 46.159-16.623 33.721-11.656 63.445-19.69 66.824-20.252 58.657-15.933 129.33-29.903 162.48-16.452 19.273 7.819 21.065 17.969 12.791 28.589m-278.88 88.97c21.906-3.292 43.523-4.574 61.856-5.73 53.425-2.821 134.86-2.09 169.48 24.507 20.861 16.021 18.838 28.966 4.046 38.577-0.125-0.636-0.274-1.275-0.493-1.919-2.413-7.11-9.867-11.024-16.758-14.006-43.026-18.614-89.895-28.29-136.77-28.235-29.788 0.035-61.641 4.879-83.657 24.944 1.868-11.161 1.865-29.609 2.295-38.138m-103.28-43.127c2.274 20.639-6.629 54.073-37.168 81.124 8.328-20.03 24.67-60.622-5.088-101.84-13.247-18.348-32.99-28.644-40.457-29.021 34.851-15.247 75.223 13.096 82.713 49.734m5.79 109.71c8.895 7.261 76.064 91.329 71.806 175.7-0.904 17.922-8.718 20.364-20.48 13.086 15.043 0.522 7.56-34.779 4.783-47.182-6.007-26.838-13.569-51.161-35.442-82.105-15.874-22.458-44.63-54.316-60.693-64.937 8.924 0.357 31.533 2.696 40.026 5.436"/></g></g><g clip-path="url(#clipPath1186)" style="opacity:.25"><g transform="translate(1775.3 740.57)"><path d="m0 0c-10.025 7.061-22.842 17.579-34.755 20.961-16.382 4.651-9.271-9.055 1.514-14.663 38.557-20.05 69.782-44.187 97.601-68.717-6.892 11.053-22.779 27.233-32.134 36.073-10.093 9.538-20.872 18.35-32.226 26.346m58.08 67.978c-26.242 7.628-38.191 10.82-56.118 13.436-16.622 2.426-16.907-12.293 0.774-15.35 57.399-9.922 124.49-32.014 167.09-47.112-20.847 14.82-32.574 20.186-54.671 29.099-18.204 7.344-38.226 14.447-57.075 19.927m-92.158 132.5c-0.29 2.359-0.66 4.822-2.066 6.738-1.428 1.946-3.722 3.044-5.986 3.879-13.565 5.009-29.549 2.874-41.323-5.522 16.067-21.225 20.422-49.052 21.057-75.665 0.516-21.631-1.1-43.312-4.783-64.632-2.978-17.242-8.393-40.697-12.848-52.374-7e-3 -0.019 0.023-0.033 0.038-0.021 17.343 14.152 26.899 51.254 33.234 71.38 11.777 37.409 17.482 77.104 12.677 116.22m29.826 6.043c3.3-1.304 7.005-0.802 10.505-0.219 23.035 3.836 45.562 10.305 68.567 14.319 38.407 6.702 78.442 7.418 117.34 5.908-51.483 16.073-87.157 10.206-119.3 7.891-20.004-1.44-58.068-6.222-76.225-14.741-2.26-1.061-4.651-2.423-5.53-4.76-1.25-3.32 1.346-7.094 4.645-8.398m-179.81 9.878c38.129 40.53 78.997 100.03 100.89 151.19 4.136 9.666 8.314 19.316 5.369 31.478-5.428 3.143-17.791-16.867-22.276-23.035-8.478-11.658-16.897-23.359-25.183-35.154-16.564-23.577-32.624-47.523-47.603-72.142-7.734-12.714-22.498-36.181-30.644-48.634-4.351-6.653-9.501-13.912-14.924-21.402-21.453-30.721-33.315-42.781-39.325-66.333-5.435-21.301-5.844-46.656 4.162-60.86 5.283 45.918 24.544 82.595 57.851 91.967 24.653 6.936 31.124-7.529 37.536-12.805 4.624 25.825-8.494 54.852-25.851 65.73m181.48-83.71c3.929-1.535 8.262-1.53 12.48-1.571 71.978-0.683 147.04-19.034 216.38-38.378-17.24 10.122-31.671 15.901-46.065 21.703-15.524 6.257-29.02 10.867-45.116 15.457-23.392 6.672-69.735 15.296-102.94 19.56-9.202 1.182-43.218 10.599-42.352-7.546 0.2-4.213 3.686-7.689 7.614-9.225" style="fill:#fff"/></g></g><g transform="translate(899.55 567.22)"><path d="m0 0c-6.919-5.614-24.617-77.762-131.61-99.286-106.99-21.523-109.52-9.798-109.52-9.798s56.069-46.345 135.07-18.896c0 0-54.819-41.833-158.31-59.892 0 0 34.998-22.356 105.64-5.494 70.648 16.861 87.933 36.76 87.933 36.76s-108.6-96.311-177.97-118.15c0 0 16.715-14.297 91.835 12.775 75.121 27.073 111.04 62.173 111.04 62.173s-27.949-55.872-65.15-95.698l-37.202-39.826s105.32 48.15 146.03 110.28c40.709 62.128 49.216 73.41 49.216 73.41s-29.79-81.025-50.758-129.88-17.544-39.365-17.544-39.365 65.275 54.34 97.865 122.02c32.589 67.682 41.045 154.46 37.204 169.3-3.842 14.845-113.78 29.569-113.78 29.569" style="fill:#d43232"/></g><g clip-path="url(#clipPath1206)" style="opacity:.14999"><g transform="translate(660.21 456.76)"><path d="m0 0c-1.162 0.858-1.794 1.375-1.794 1.375s0.16-0.658 1.794-1.375m218.47-210.08c-0.252-0.214-0.427-0.36-0.427-0.36s-0.674-1.874 0.427 0.36m134.64 290.96c-3.841 14.845-113.78 29.569-113.78 29.569-5.767-4.68-19.073-55.569-85.294-84.852 4.959-3.985 10.255-7.549 15.832-10.608-46.765-31.114-108.41-32.266-162.37-16.665-0.219 0.063-0.441 0.135-0.661 0.2-3.517 0.354-5.609 0.925-6.843 1.466 9.489-7.006 56.473-38.121 121.06-21.205 14.265 5.015 28.033 11.442 40.937 19.323-6.035-17.324-21.737-29.361-37.674-38.447-35.776-20.397-77.016-30.769-118.18-30.62-9.854-2.365-20.225-4.553-31.176-6.465 0 0 34.997-22.355 105.64-5.494 33.316 7.952 54.756 16.577 68.121 23.474 11.709 7.193 23.377 14.452 34.974 21.824-9.016-24.166-29.24-42.109-48.724-59.012-18.602-16.138-37.483-32.463-59.62-43.253-14.714-7.173-30.547-11.735-46.385-15.87-12.342-3.223-24.819-6.181-37.406-8.214-0.328-0.106-0.668-0.238-0.995-0.341 0 0 16.715-14.297 91.835 12.775 75.121 27.073 111.04 62.173 111.04 62.173s-27.949-55.872-65.151-95.699l-37.202-39.826s105.32 48.151 146.03 110.28c40.708 62.128 49.216 73.409 49.216 73.409s-29.79-81.024-50.758-129.88c-11.623-27.085-15.746-36.226-17.117-39.005 5.393 4.567 66.306 57.008 97.438 121.66 32.59 67.682 41.045 154.46 37.204 169.3"/></g></g><g transform="translate(1434.4 1666.6)"><path d="m0 0c-14.888 30.286-285.99 35.411-316.27 27.555 0 0 57.178 12.444 99.094 72.749 41.916 60.306 37.471 81.613 37.471 81.613s-65.603-86.372-118.92-101.36c0 0 47.847 61.631 47.739 133.14-0.096 64.621-11.577 90.156-11.577 90.156s-30.342-175.19-90.486-218.34c0 0 17.008 54.688-4.702 136.64 0 0-20.182-188.65-75.124-207.85-60.7-21.209-108.62-38.837-190.69-86.45-7.971 12.307-21.945 22.651-34.166 26.096 8.014-8.904 18.998-19.041 23.337-30.207-13.468 9.772-36.417 12.191-52.1 6.632 14.015-1.894 27.635-6.663 39.769-13.926-12.795-1.054-24.852-8.798-31.133-19.996 13.212 6.472 27.494 7.596 41.188 4.692 6.774-78.491 33.709-390.49 42.781-494.18 10.41-118.99 5.417-351.63-6.567-435.98-11.983-84.347-27.653-110.72-5.455-138.33 22.198-27.616 68.644-52.875 148.9-48.865 80.257 4.01 140.14 39.832 140.14 39.832s45.49 32.037 131.08 214.25 141.62 421.89 168.17 561.65c26.552 139.76 32.414 370.19 17.526 400.48" style="fill:#d43232"/></g><g clip-path="url(#clipPath1226)" style="opacity:.25"><g transform="translate(1352.9 1246.4)"><path d="m0 0c-30.177 7.187-62.246 6.555-92.039-2.158-6.768-1.979-14.948-7.076-12.916-13.829 1.054-3.5 4.569-5.565 7.816-7.242 23.612-12.188 48.513-21.877 74.153-28.852 5.278-1.435 11.078-3.097 14.058-7.684 1.898-2.921 2.289-6.54 2.589-10.01 4.569-52.827-0.345-106.46-14.437-157.58 31.774 53.103 49.842 114.28 52.354 176.1 1.266 31.16 0.817 43.54-31.578 51.255m-254.33 422.16c30.091-123.22 36.531-228.64 44.198-355.57 15.25 14.196 34.255 40.444 56.367 11.786-2.975 25.251-4.301 87.927-4.663 97.841-2.492 68.279-2.011 136.38-1.254 204.66 0.204 18.393 3.868 47.264 3.868 47.264-21.673 10.971-77.944 2.987-98.516-5.977" style="fill:#fff"/></g></g><g transform="translate(1206 801.38)"><path d="m0 0c-6.044 5.457-13.894 8.828-21.993 9.61-0.261 0.903-0.535 1.787-0.83 2.646 5.975 3.718 12.667 6.283 19.628 7.327-6.863 3.258-14.868 4.044-22.233 2.181 4.778 4.471 9.557 8.942 14.336 13.413-7.193-0.832-13.842-5.146-17.736-11.228-3.804 5.158-8.703 9.051-14.703 11.83-32.482 15.047-124.02 33.316-171.78 2.404-0.852 8.201-4.178 16.869-6.093 25.788 0.443-9.249-0.118-18.547-1.669-27.676-4.492 8.013-12.315 14.091-21.191 16.461 6.504-6.24 11.359-14.183 13.946-22.817-7.108 3.909-16.319 3.656-23.202-0.636 7.077-1.756 14.873-4.181 19.378-9.518-4.667-7.066-8.083-15.33-9.776-25.097-9.915-57.195-5.944-72.88-16.764-171.16-6.845-62.168-21.562-136.54-39.373-169.23 20.083-4.516 43.738-6.697 71.537-5.308 38.543 1.926 72.389 11.189 97.159 20.298 5.938 2.254 22.509 46.019 29.354 58.332 22.273 40.067 38.635 75.011 61.236 149.58 17.91 59.093 24.628 98.832 20.546 124.4 6.74-0.534 13.479-1.067 20.219-1.6" style="fill:#efce58"/></g><g clip-path="url(#clipPath1246)" style="opacity:.14999"><g transform="translate(1435.3 1591.7)"><path d="m0 0c-13.059 91.547-179.88 111.19-207.65 94.518-15.391-9.237-14.937-18.238-14.937-18.238s-29.073-216.51 6.849-405.54c0 0 51.535 27.95 95.933 14.875 44.399-13.076 80.248-19.544 80.248-19.544s51.031 253.51 39.558 333.93m-474.69-429.52c7.947-21.527 17.201-42.572 27.628-63.012 20.687-40.549 46.031-78.709 75.266-113.6 16.562-19.765 34.376-38.482 53.307-55.991 23.312-21.561 49.537-41.945 80.601-48.525-14.402 49.962-28.803 99.925-43.205 149.89-1.513 5.249-3.065 10.585-6.045 15.162-2.185 3.357-5.067 6.193-7.94 8.984-29.865 29.028-157.48 129.08-166.62 136.06 10.771 8.996-1.169 40.543-7.168 47.416 6.849-52.139-54.239-46.942-67.604-34.749-8.188 7.469-13.205 20.736-5.029 31.083 5.516 6.981 20.162 14.211 33.02 11.871 0 0 42.244 21.719 62.761 24.239 51.667 6.344 115.69-9.641 115.69-9.641 7.777 228.47-45.559 390.84-45.559 390.84l-37.721 8.581c4.177 2.906 8.115 6.091 11.542 9.87 8.509 9.384 13.139 21.581 17.11 33.609 18.261 55.321 29.631 130.3 25.432 178.5-3.976-32.191-25.311-184.72-74.421-201.88-4.038-1.411-8.018-2.806-11.956-4.195 0 0-57.033-7.941-102.25-41.444-22.597-10.833-47.398-23.936-76.491-40.809-7.972 12.306-21.944 22.648-34.164 26.094 8.013-8.905 18.997-19.042 23.337-30.207-13.468 9.771-36.417 12.19-52.1 6.631 14.015-1.893 27.635-6.663 39.768-13.926-12.795-1.054-24.852-8.798-31.132-19.996 13.212 6.472 27.494 7.596 41.188 4.692 6.774-78.49 33.708-390.49 42.781-494.18 10.41-118.99 5.417-351.63-6.567-435.98-11.983-84.347-27.653-110.72-5.455-138.33 22.197-27.616 68.644-52.875 148.9-48.865 80.256 4.011 140.14 39.832 140.14 39.832s19.416 13.695 56.723 73.942c-15.164-12.592-31.538-23.718-48.954-32.97-63.981-33.988-140.79-43.08-210.94-24.97-23.36 6.031-49.028 18.238-54.706 41.687-2.281 9.418-0.873 19.288 0.507 28.88 18.057 125.5 29.549 251.95 34.414 378.65 2.568 66.867 2.479 134.42-3.225 203.6 17.75 0.712 48.979 6.688 60.991 19.719 2.837-5.99 6.602-12.408 8.137-16.568m180.34 592.17c-12.083-12.992-24.867-25.148-36.631-32.991 64.036 10.584 118.14 64.804 150.52 126.04-0.039 0.748-0.112 1.111-0.112 1.111s-65.603-86.372-118.92-101.36c0 0 2.018 2.522 5.141 7.206m-67.953-26.066c42.614 16.516 73.596 85.132 86.794 128.89 9.215 30.555 11.499 73.649 12.947 100.85-0.284 4.607-0.462 7.488-0.575 9.312-0.289-0.194-0.559-0.414-0.866-0.58-4.684-25.052-34.446-173.42-88.893-213.92-2.991-8.901-6.154-17.286-9.407-24.546"/></g></g><g clip-path="url(#clipPath1262)" style="opacity:.25"><g transform="translate(996.52 773.24)"><path d="m0 0 5.283-44.808c10.192 13.272 20.384 26.545 30.576 39.817 28.831-10.361 47.548-31.415 56.519-53.694 8.971-22.278 9.394-45.991 9.752-69.377 11.343 21.42 18.233 43.948 20.366 66.591 6.8-26.684 5.642-54.581-3.376-81.321 33.092 43.156 53.91 90.884 60.763 139.3 2.083 14.72 2.693 30.227-6.381 43.245-21.968 31.511-97.76 38.559-141.96 28.036-54.655-13.013-63.845-62.256-52.237-96.316 4.843 5.58 21.461 22.005 20.693 28.524" style="fill:#fff"/></g></g><g transform="translate(862.43 560.77)"><path d="m0 0c-0.348-9.792 0.471-19.624 2.437-29.223-10.087 2.863-20.87 3.235-31.13 1.076 6.501-4.269 12.177-9.787 16.627-16.164-11.678-5.442-22.919-11.823-33.576-19.062 9.613-0.661 19.109-3.011 27.921-6.91-7.597-9.592-14.34-19.862-20.121-30.646 12.132 8.001 25.443 14.209 39.37 18.363 3.812-16.067 7.625-32.133 11.437-48.2 5.732 12.624 11.463 25.247 17.195 37.87 2.937-9.377 4.903-19.058 5.857-28.838 12.314 9.679 19.462 25.582 18.527 41.217 6.421-3.373 14.309-3.817 21.067-1.186-6.533 8.102-13.065 16.203-19.598 24.305 6.195 3.368 11.972 7.503 17.157 12.282-7.071 1.785-14.353 2.733-21.646 2.818-1.365 11.715-1.175 23.611 0.563 35.277-0.666-4.471-28.703-22.884-25.51-23.975s-19.667 24.689-26.577 30.996" style="fill:#f17e3a"/></g><g clip-path="url(#clipPath1282)" style="opacity:.14999"><g transform="translate(936.98 478.72)"><path d="m0 0c-9.902 6.004-18.538 14.096-25.09 23.647 2.271 0.708 4.622 0.818 6.949 0.523-0.13 0.161-0.26 0.322-0.39 0.484 5.762 3.131 11.14 6.953 16.038 11.313-9.252 2.01-17.117 1.345-27.498-0.249 0.917 11.574 2.123 23.945 6.963 34.357 0.156 1.405 0.285 2.812 0.485 4.211-0.108-0.071-0.22-0.144-0.331-0.216-3.154-5.07-23.013-18.585-25.098-22.154-0.011 0.02-0.034 0.051-0.046 0.072-0.182-1.305-0.202-2.633 0.132-3.981-3.597 0.974-7.3 1.561-11.022 1.747-3.511 11.446-8.859 22.296-15.636 32.165-0.337-9.748 0.481-19.535 2.437-29.09-0.321 0.091-0.655 0.128-0.977 0.213 0.742-2.465 1.559-4.908 2.518-7.297-2.003-0.888-3.827-2.177-5.333-3.768-6.637 5.968-14.87 10.144-23.605 11.974-0.517 0.108-1.043 0.2-1.571 0.272-0.718-0.126-1.448-0.169-2.161-0.319 6.326-4.154 11.851-9.508 16.245-15.67 1.827-1.213 3.605-2.497 5.306-3.882-1.862-3.09-3.724-6.179-5.585-9.269-0.529-0.878-1.088-1.787-1.951-2.338-1.232-0.786-2.806-0.685-4.265-0.603-8.738 0.495-17.538-0.785-25.839-3.561 9.319-0.739 18.512-3.031 27.06-6.813-7.597-9.592-14.34-19.861-20.121-30.646 12.132 8.001 25.444 14.21 39.37 18.363 3.813-16.066 7.625-32.133 11.438-48.199 5.731 12.623 11.463 25.246 17.195 37.869 2.936-9.377 4.902-19.057 5.856-28.837 12.314 9.679 19.462 25.581 18.528 41.216 6.088-3.198 13.486-3.728 19.999-1.534"/></g></g><g transform="translate(1151.8 570.62)"><path d="m0 0c-0.933-10.203-2.942-20.251-5.96-29.868 9.64 1.895 19.604 1.18 28.737-2.06-6.537-3.679-12.465-8.695-17.36-14.679 9.94-6.626 19.305-14.112 27.969-22.345-8.786 0.292-17.689-1.097-26.163-4.079 5.618-10.16 10.336-20.815 14.09-31.785-9.805 8.885-20.963 16.2-32.986 21.606-5.336-15.25-10.609-30.32-15.82-45.214-3.678 12.514-7.394 25.154-11.146 37.919-3.658-8.804-6.455-17.931-8.341-27.184-9.985 10.423-14.786 26.468-12.353 41.663-6.152-2.686-13.334-2.351-19.203 0.896 6.712 7.355 13.462 14.751 20.25 22.19-5.318 3.995-10.193 8.734-14.477 14.083 6.677 1.094 13.467 1.32 20.176 0.67 2.514 11.779 3.629 24.009 3.286 36.275 0.132-4.714 23.983-26.525 20.915-27.314-3.066-0.788 21.165 23.382 28.386 29.226" style="fill:#f17e3a"/></g><g clip-path="url(#clipPath1302)" style="opacity:.14999"><g transform="translate(1074.2 495.04)"><path d="m0 0c9.566 4.946 18.231 12.11 25.199 20.976-1.997 0.935-4.133 1.279-6.289 1.216 0.135 0.148 0.27 0.297 0.406 0.445-4.946 3.715-9.486 8.097-13.546 12.99 8.702 1.102 15.856-0.363 25.207-3.016 0.419 11.821 0.662 24.601-2.686 35.847 9e-3 1.474 0.042 2.949 8e-3 4.424 0.094-0.085 0.19-0.173 0.285-0.26 2.376-5.587 19.229-21.535 20.736-25.394 0.013 0.019 0.037 0.049 0.051 0.069 0.015-1.349-0.12-2.703-0.584-4.042 3.422 0.627 6.896 0.849 10.341 0.661 4.622 11.341 10.913 21.974 18.457 31.523-0.938-10.156-2.94-20.157-5.944-29.73 0.307 0.061 0.618 0.064 0.925 0.119-0.99-2.435-2.045-4.835-3.221-7.162 1.726-1.101 3.237-2.59 4.417-4.349 6.838 5.372 14.934 8.781 23.197 9.758 0.489 0.058 0.984 0.097 1.479 0.117 0.641-0.201 1.306-0.318 1.94-0.543-6.362-3.581-12.13-8.446-16.948-14.22-1.824-1.037-3.612-2.151-5.339-3.371 1.306-3.283 2.608-6.558 3.908-9.825 0.368-0.927 0.76-1.887 1.474-2.52 1.017-0.904 2.458-0.959 3.792-1.021 7.992-0.372 15.797-2.512 22.931-6.079-8.53 0.186-17.152-1.175-25.372-4.067 5.618-10.16 10.336-20.815 14.09-31.785-9.805 8.885-20.962 16.2-32.986 21.606-5.335-15.25-10.608-30.321-15.819-45.214-3.679 12.514-7.394 25.154-11.146 37.919-3.658-8.804-6.456-17.931-8.342-27.184-9.985 10.423-14.785 26.468-12.352 41.663-5.835-2.547-12.582-2.344-18.269 0.449"/></g></g><g transform="translate(760.51 927.34)"><path d="m0 0s95.181 142.56 113.73 135.61c25.151-9.427 24.842-49.788-9.024-185.26-28.959-115.84-51.422-208.51-85.922-230.16-34.221-21.479-146.69-2.748-124.92 86.784 20.72 85.198 106.14 193.03 106.14 193.03" style="fill:#d43232"/></g><g clip-path="url(#clipPath1322)" style="opacity:.14999"><g transform="translate(654.38 734.31)"><path d="m0 0c3.926 16.143 10.223 33.141 17.848 50.142-0.547-6.885-0.024-13.852-0.071-20.744-0.417-61.605 89.766-84.053 119.93-24.262 14.209 28.168 25.617 59.637 35.821 92.755 11.585 37.604 23.731 77.028 34.441 119.35 4.92 19.442 9.587 39.837 10.201 61.495 0.398 14.056-2.659 31.651-12.636 36.071-1.949 0.863-3.932 1.048-5.913 0.841 9.142 9.132 16.464 14.409 20.246 12.991 25.151-9.426 24.842-49.787-9.025-185.26-28.958-115.84-51.421-208.51-85.921-230.16-34.221-21.478-146.69-2.746-124.92 86.785"/></g></g><g transform="translate(798.06 684.97)"><path d="m0 0s-29.093 70.6-178.08 182.7c-111.8 84.111-218.93 52.164-227.61-34.486-8.811-88.003 83.583-121.84 147.08-147.96 73.958-30.422 268.51-83.966 258.61-0.256" style="fill:#d43232"/></g><g clip-path="url(#clipPath1342)" style="opacity:.25"><g transform="translate(611.54 814.84)"><path d="m0 0c-48.243 28.852-82.228 41.781-132.72 53.773-27.165 6.451-54.363 6.769-77.258-1.296 27.996 58.925 121.3 73.414 218.41 0.354 47.797-35.962 84.417-69.099 111.76-97.233 15.594-23.472 19.793-47.048 11.146-68.48 0 0-64.184 72.72-131.34 112.88" style="fill:#fff"/></g></g><g clip-path="url(#clipPath1358)" style="opacity:.14999"><g transform="translate(392.36 833.18)"><path d="m0 0c1.418 14.161 5.137 26.529 10.682 37.138 6.734-46.765 47.335-90.028 104.21-125.91 43.898-27.699 139.86-85.342 216.52-71.874 37.15 6.528 50.458 26.618 49.188 50.928 19.663-25.4 25.095-38.49 25.095-38.49 9.899-83.71-184.66-30.165-258.61 0.256-63.498 26.12-155.89 59.953-147.08 147.96"/></g></g><g transform="translate(407.05 953.37)"><path d="m0 0c-8.378 3.22-96.263 69.068-112.95 153.09-16.683 84.021 204.77-134.86 204.77-134.86l65.234-61.736s41.795-34.635 19.168-96.539-65.248-95.969-136.5-93.447c0 0-107.98-163.28-143.07-155.48s-7.076 74.612 25.918 116.32c32.994 41.706 56.29 67.291 56.29 67.291s-121.64-114.92-179.23-123.7c-57.589-8.777-72.038 38.458 17.212 95.208 85.32 54.252 111.81 73.508 111.81 73.508s-170.44-116-236.78-106.72c-66.334 9.28 37.063 86.171 86.434 110.36 49.37 24.186 132.1 64.224 132.1 64.224s-156-60.763-218.09-33.888 27.187 70.949 104.18 85.96 203.51 40.408 203.51 40.408" style="fill:#d43232"/></g><g clip-path="url(#clipPath1378)" style="opacity:.14999"><g transform="translate(290.05 605.89)"><path d="m0 0c-5.392-21.06-2.867-37.821 13.653-41.493 35.084-7.797 143.07 155.48 143.07 155.48 62.624-2.217 103.12 23.845 127.37 72.209-28.893-30.27-57.503-46.329-99.394-45.85-4.19 0.048-49.392 86.768-58.023 110.75-0.559-44.825 30.531-109.38 32.456-115.82 2.798-9.37-18.613-18.716-29.375-17.706-3.488 0.328-55.44-86.278-88.375-111.94-6.742-5.253-14.028-10.4-22.464-11.77-6.836-1.11-14.531 1.076-18.917 6.147m-126.21 43.265c-5.394-20.424 11.067-29.688 42.839-24.845 57.59 8.777 179.23 123.7 179.23 123.7s1.245 1.194 2.966 2.748c-9.601 12.476-18.067 22.032-23.303 36.878-1.881-6.271-1.744-30.699-1.744-30.699-2.363-2.694-5.423-4.665-8.44-6.6-22.021-14.124-44.043-28.249-66.064-42.374-23.956-15.365-47.935-30.744-72.878-44.448-13.881-7.627-28.588-14.878-44.406-15.686-2.672-0.137-5.694 0.285-8.203 1.33m-64.918 37.152c35.433-4.957 100.56 25.83 153.56 55.591 3.14 1.37 30.005 16.412 59.864 35.941 13.79 9.019 27.685 17.353 40.709 27.382-4.895 8.953-10.46 19.712-12.612 29.687-8.037-19.819-20.147-32.056-37.643-44.354-56.397-39.641-122.65-62.732-188.99-81.444-7.243-2.042-14.723-4.059-22.2-3.197-4.352 0.502-8.704 2.245-12.063 4.999-5.434-12.318-1.22-21.724 19.378-24.605m222.3 216.46c-16.457-24.83-46.166-37.297-75.046-44.598-45.45-11.489-93.263-13.54-139.53-5.983-7.41 1.21-15.595 3.188-19.669 9.495-0.369 0.571-0.67 1.154-0.946 1.741-12.001-12.93-10.805-25.977 13.334-36.426 40.072-17.345 119.22 1.81 170.34 17.58 17.497 5.592 38.148 12.109 58.589 20.646-1.664 8.376-6.167 26.266-7.077 37.545m210.11-82.228c-7.334-1.456-28.992 3.712-46.315 18.275-38.913 32.71-32.966 76.062-29.777 97.519-23.017-33.683-23.495-68.28-16.255-87.74 16.201-33.704 62.268-51.343 92.347-28.054m-84.583 137.53c-18.168 6.381-53.828 30.261-74.7 48.168-28.762 24.674-42.029 46.418-54.401 70.979-5.718 11.352-21.587 43.76-6.87 46.924-13.183 4.189-20.165-0.085-16.67-17.688 16.453-82.862 102.1-148 112.5-152.88 8.904-0.586 31.401 2.662 40.142 4.493"/></g></g><g clip-path="url(#clipPath1394)" style="opacity:.25"><g transform="translate(326.04 665.83)"><path d="m0 0c-6.916-10.855-18.376-30.423-22.363-42.823 20.994 30.576 45.388 61.601 77.889 90.45 9.091 8.07 12.644 23.096-2.11 14.59-10.727-6.186-20.591-19.513-28.591-28.806-9.06-10.524-17.364-21.699-24.825-33.411m-98.572 51.919c-19.255-14.035-29.319-22.099-45.922-41.557 37.628 25.033 97.305 62.825 150.55 86.45 16.401 7.277 12.534 21.482-2.994 15.075-16.747-6.911-27.556-12.92-51.145-26.721-16.943-9.911-34.627-21.685-50.489-33.247m148.18 74.609c11.055-17.974 29.372-51.623 49.644-61.117 0.018-8e-3 0.043 0.013 0.032 0.029-7.17 10.238-18.142 31.664-25.237 47.658-8.772 19.778-15.628 40.409-20.405 61.513-5.877 25.964-8.441 54.012 1.963 78.516-13.467 5.269-29.489 3.441-41.422-4.725-1.991-1.363-3.948-2.988-4.859-5.222-0.896-2.202-0.653-4.681-0.359-7.039 4.881-39.104 20.097-76.208 40.643-109.61m-68.586 117.48c-1.423 2.052-4.074 2.79-6.525 3.267-19.686 3.832-57.766-0.816-77.518-4.299-31.734-5.596-67.761-8.608-113.77-36.755 37.35 10.952 76.349 20.024 115.23 22.894 23.288 1.719 46.714 0.941 69.988 2.84 3.536 0.289 7.252 0.705 10.134 2.775 2.881 2.069 4.478 6.362 2.457 9.278m160.47-25.886c4.931 6.681 7.678 22.287 33.278 21.575 34.587-0.964 62.213-31.834 78.539-75.076 6.239 16.216-0.344 40.705-10.811 60.037-11.574 21.374-26.019 30.176-54.318 54.735-7.087 5.941-13.851 11.724-19.695 17.115-10.937 10.09-30.98 29.247-41.582 39.689-20.532 20.222-41.948 39.526-63.763 58.351-10.914 9.417-21.933 18.711-32.998 27.948-5.854 4.888-22.725 21.277-27.223 16.905 0.112-12.513 6.518-20.852 12.887-29.217 33.709-44.274 87.857-92.007 134.72-122.01-14.178-14.784-19.819-46.134-9.035-70.051m-141.4-44.597c-3.587 17.808-34.279 0.378-42.914-3.013-31.158-12.236-73.996-31.904-95.055-44.08-14.49-8.378-26.454-16.142-39.982-25.996-12.544-9.138-25.129-18.263-39.379-32.285 62.521 35.673 130.84 71.781 200.48 90.003 4.08 1.067 8.284 2.121 11.719 4.567 3.435 2.448 5.968 6.669 5.135 10.804" style="fill:#fff"/></g></g><g clip-path="url(#clipPath1410)" style="opacity:.2"><g transform="translate(964.7 1203.4)"><path d="m0 0c-1.499 2.437-2.995 4.87-4.488 7.299-4.265-3.781 21.35-91.153 79.932-175.19 26.061-37.386 116.7-129.14 123.65-109.15-31.782 44.513-142.37 182.72-167.04 223.37-8.171 13.468-16.153 26.987-23.157 41.414"/></g></g><g transform="translate(957.93 1209.6)"><path d="m0 0s7.347-19.333 20.602-45.876c13.441-26.918 42.008-83.417 113.05-162.43 69.481-77.279 103.33-104.69 123.09-112.31 20.335-7.842 19.346 9.577 19.346 9.577s-21.552 48.266-26.409 102.62c-4.906 54.887 4.083 115.01 7.558 123.09 3.502 8.139-214.22 52.776-257.24 85.342" style="fill:#fcd203"/></g><g clip-path="url(#clipPath1430)" style="opacity:.10001"><g transform="translate(1044.9 1085.4)"><path d="m0 0c-10.317 18.162 5.544 11.141 10.253 4.076 26.914-40.376 64.704-79.08 102.59-118.07 27.746-28.556 31.701-34.972 59.462-54.47-15.794 41.302-18.93 103.67-15.469 131.75 0.42 3.407 2.665 5.501 4.916 6.53 1.444 34.797 6.237 63.644 8.558 69.04 3.503 8.14-214.22 52.776-257.24 85.342 0 0 7.348-19.333 20.602-45.876 13.442-26.917 42.008-83.417 113.05-162.43 69.481-77.278 103.33-104.69 123.09-112.31 5.571-2.148 9.542-2.382 12.379-1.597-80.851 68.217-153.41 147.35-182.19 198.02"/></g></g><g clip-path="url(#clipPath1446)" style="opacity:.3"><g transform="translate(1209.7 1093.6)"><path d="m0 0c1.9 16.006 4.14 27.465 5.512 30.655 3.502 8.139-214.22 52.776-257.24 85.342 0 0 4.464-11.687 16.297-37.088 0 0 37.606-21.679 50.655-31.25 20.262-14.86 169.25-54.043 184.78-47.659"/></g></g><g transform="translate(988.69 1187.7)"><path d="m0 0c12.568-24.414 52.947-93.547 115.16-161.93 57.891-63.63 83.383-91.723 98.934-97.378 0 0-7.392 45.509-11.515 94.692-3.793 45.251 3.006 95.058 5.747 101.73 2.761 6.717-220.87 87.251-208.32 62.886" style="fill:#612124"/></g><g clip-path="url(#clipPath1466)" style="opacity:.2"><g transform="translate(1099.2 1064.1)"><path d="m0 0c20.156-27.575 40.017-52.729 61.753-72.885-5.108 24.809-10.453 50.829-16.271 78.076-3.825 17.91-8.401 36.257-11.304 55.715-0.488 3.271-0.853 6.819-1.198 10.49-27.259 9.419-60.509 20.084-91.619 28.997 20.346-36.206 37.21-71.076 58.639-100.39"/></g></g><g transform="translate(1100.4 1076.4)"><path d="m0 0c20.314-28.188 40.323-53.891 62.219-74.496-5.115 25.294-10.47 51.835-16.303 79.64-3.836 18.285-8.432 37.024-11.337 56.898-0.488 3.342-0.852 6.967-1.197 10.715-27.52 9.715-61.102 20.728-92.534 29.946 20.536-37.06 37.542-72.718 59.152-102.7" style="fill:#b3353b"/></g><g clip-path="url(#clipPath1486)" style="opacity:.5"><g transform="translate(1105.1 1102.1)"><path d="m0 0c-1.632-1.12-3.139-2.71-4.426-4.668 8.694-4.203 25.269-22.746 32.251-30.923-2.399 2.81-12.573 23.844-14.819 27.921-2.637 4.789-5.788 9.146-9.131 12.789-3.516 3.831-15.359 10.256-17.373 1.435 3.556-3.897 9.336-4.775 13.498-6.554" style="fill:#fff"/></g></g><g clip-path="url(#clipPath1502)" style="opacity:.5"><g transform="translate(1127.5 1109.7)"><path d="m0 0c-1.431-11.757 4.1-26.599 6.733-37.073 0.74 10.378-0.914 17.899 1.959 27.699-1.908 0.938-2.772-5.701-3.573-8.435 0.085 2.623-4.025 26.791-5.119 17.809" style="fill:#fff"/></g></g><g clip-path="url(#clipPath1518)" style="opacity:.2"><g transform="translate(1117.7 1062.7)"><path d="m0 0c8.842-10.561 20.672-27.576 35.88-44.926-2.415 13.809-4.883 27.912-7.403 42.318-1.567 8.953-2.391 18.447-5.623 26.936-3.825 10.047-7.699 4.024-7.34-5.424 0.627-16.493 3.433-25.425 3.433-25.425-3.263 6.055-16.318 26.826-24.726 35.728-5.355 5.669-15.635 5.113-13.557-2.438 1.59-5.777 13.125-19.35 19.336-26.769" style="fill:#fff"/></g></g><g clip-path="url(#clipPath1534)" style="opacity:.3"><g transform="translate(1133.7 1002)"><path d="m0 0c-20.672 22.909-45.458 55.794-57.102 77.619-16.019 30.027-20.194 44.106-19.664 46.795 0.307 1.554 24.06-2.705 29.419-3.898 43.769-9.742 65.685-13.987 83.305-15.448 4.034-0.334 1.272-13.148 3.082-26.852 0.539-4.078 9.078-57.608 14.211-78.953 2.431-10.111 7.334-31.681 11.609-43.712-2.351 17.455-5.21 40.994-7.265 65.5-3.793 45.252 3.006 95.058 5.747 101.73 2.762 6.717-220.87 87.251-208.32 62.887 12.568-24.415 52.947-93.548 115.16-161.93 57.891-63.631 83.383-91.723 98.934-97.379 0 0-0.214 1.328-0.564 3.586-22.202 16.599-46.461 45.579-68.546 70.055"/></g></g><g clip-path="url(#clipPath1550)" style="opacity:.39999"><g transform="translate(1202.4 1031.2)"><path d="m0 0c-0.125-44.333 7.433-78.493 10.027-90.702 1.327-6.241 4.726-17.584 7.107-27.285 0 0-5.357 2.928-9.267 5.242-44.285 26.205-135.67 133.48-147.07 144.94 13.286-17.884 89.384-116.31 156.05-165.28 18.745-13.77 5.79 16.729 3.002 23.354-6.135 14.575-17.445 75.124-19.843 109.73" style="fill:#fff"/></g></g><g clip-path="url(#clipPath1566)" style="opacity:.7"><g transform="translate(1230.8 896.76)"><path d="m0 0c-0.177 1.19-0.567 3.066-1.165 5.062-0.015 0.051 4e-3 0.1-0.016 0.152-0.049 0.125-0.093 0.253-0.142 0.378-0.324 1.026-0.71 2.065-1.147 3.056-11.487 26.132-21.661 77.512-21.271 75.106 2.952-18.23 9.438-51.733 15.439-68.984-1.408 0.561-2.894 0.311-4.358-1.348-0.317-0.359-0.56-0.724-0.771-1.092-7.358 5.188-56.865 47.104-62.78 53.433-1.47 1.572 64.233-65.477 74.242-67.734 1.028-0.232 2.158 0.699 1.969 1.971" style="fill:#fff"/></g></g><g transform="translate(1181.4 1271.3)"><path d="m0 0c-67.743-56.277-216.72-67.884-216.72-67.884s47.395-31.184 101.85-49.119c33.061-10.888 74.522-23.763 125.33-31.041 45.687-6.545 105.92-14.101 153.49-13.33 54.264 0.881 102.15 17.532 118.42 27.388 0 0 5.978 3.538-8.665 5.268-140.51 16.608-263.03 137.59-273.71 128.72" style="fill:#fcd203"/></g><g clip-path="url(#clipPath1586)" style="opacity:.10001"><g transform="translate(1459.6 1141.6)"><path d="m0 0c-4.214 0.3-8.852-0.156-14.404-2.664-6.341-2.863-12.185-6.652-18.485-9.408-0.324-0.142-0.649-0.268-0.973-0.407-23.927-3.146-50.023-5.533-73.319-5.578-65.436-0.125-104.6 6.405-195.06 23.653-15.557 2.966-85.822 25.25-82.319 29.386 79.411 24.778 121.63 88.082 118.96 89.739-6.881 4.273-11.196 6.26-12.591 5.006 0 0-24.244-22.51-75.918-40.83-68.29-24.21-140.8-27.054-140.8-27.054s47.395-31.184 101.85-49.119c33.062-10.888 74.523-23.763 125.33-31.042 45.687-6.545 105.92-14.101 153.49-13.328 33.416 0.542 63.504 6.835 85.733 13.846 0.525 0.165 1.058 0.329 1.575 0.495 1.13 0.364 2.226 0.728 3.315 1.096 0.899 0.302 1.781 0.604 2.651 0.907 0.801 0.281 1.595 0.559 2.371 0.841 1.258 0.454 2.47 0.907 3.66 1.361 0.388 0.149 0.791 0.297 1.171 0.445 7.657 2.973 13.823 5.899 17.944 8.395 0 0 3.965 2.018-4.191 4.26"/></g></g><g clip-path="url(#clipPath1602)" style="opacity:.10001"><g transform="translate(1434.4 1129.7)"><path d="m0 0c2.175 2.428 19.215 11.525 23.207 11.747-6.437-0.192-14.162-3.961-21.08-7.665-5.851-3.133-11.603-6.383-16.833-10.039-12.232-2.15-24.404-3.609-36.255-4.855-40.49-4.256-81.933-0.363-125.47 3.75-51.315 4.849-109.07 12.457-172.36 30.981-20.399 5.971-55.223 17.439-86.621 29.395 17.613-9.12 41.151-20.017 67.506-28.697 33.062-10.888 74.523-23.762 125.33-31.041 45.687-6.545 105.92-14.101 153.49-13.329 44.499 0.722 83.93 11.819 105.92 21.214-8.139-2.496-21.788-6.989-16.837-1.461"/></g></g><g clip-path="url(#clipPath1618)" style="opacity:.3"><g transform="translate(1341.5 1166.5)"><path d="m0 0c-31.98 11.092-122.69 61.907-122.69 61.907-17.228-34.084-56.522-50.858-76.401-55.013 148.81-35.474 270.07-40.997 270.96-40.836 1.207 0.218 9.887 9.409 17.735 10.522 0 0-27.893 2.014-89.61 23.42" style="fill:#fff"/></g></g><g clip-path="url(#clipPath1634)" style="opacity:.7"><g transform="translate(1344.1 1168.2)"><path d="m0 0c34.068-13.586 67.755-24.821 102.78-25.739-9.612-3.889-19.134-7.743-28.568-11.561 3.388 2.654 7.31 6.468 5.768 8.618-0.612 0.853-1.979 1.14-3.29 1.399-30 5.937-118.17 30.063-164.69 66.394-3.055 2.385 48.131-23.209 88.006-39.111" style="fill:#fff"/></g></g><g transform="translate(1221.6 1248.6)"><path d="m0 0c0.896 10.065-21.013 31.141-42.719 39.184-64.773-42.137-135-78.737-220.98-84.257 16.048-1.317 37.815-3.118 52.081-2.081 15.428 1.121 29.932 3.601 43.855 6.785 43.693 9.992 83.348 27.447 118.19 52.367 4.1 2.931 10.095 6.762 15.388 7.719 5.286 0.957 30.993-17.469 34.184-19.717" style="fill:#974321"/></g><g clip-path="url(#clipPath1654)" style="opacity:.14999"><g transform="translate(1195.3 1272.7)"><path d="m0 0c-14.918 6.204-24.947-4.335-35.354-10.927-16.628-10.532-33.484-20.176-50.413-29.279-16.886-9.079-55.698-18.796-72.582-14.789-24.486-7.299-50.587-12.362-79.035-14.189 16.048-1.317 37.815-3.117 52.082-2.08 15.427 1.121 29.931 3.6 43.854 6.785 43.693 9.992 83.349 27.447 118.19 52.366 4.099 2.932 10.095 6.762 15.387 7.72 5.287 0.956 30.993-17.469 34.184-19.717 0.186 2.094-0.639 4.65-2.183 7.441-6.991 6.329-15.966 13.272-24.133 16.669"/></g></g><g clip-path="url(#clipPath1670)" style="opacity:.050003"><g transform="translate(962.4 1197.7)"><path d="m0 0c11.434 5.378 11.711 25.802 4.029 40.871 1.466-14.561-4.433-28.326-15.009-33.279-10.525-4.928-16.08-7.604-40.34-7.269 21.06-8.208 39.58-8.354 51.32-0.323"/></g></g><g transform="translate(818.82 214.36)"><path d="m0 0c-0.248 4.901-6.312 51.24-1.617 129.4 5.864 97.621 36.586 167.99 52.845 178.23 16.26 10.24 50.034-9.917 40.109-40.433-9.925-30.517-31.47-90.407-36.872-145.63-5.403-55.221-0.281-122.11-0.281-122.11s95.175 10.536 100.78-19.482c7.933-42.45-64.961-13.105-102.63-27.29-5.604-2.11-51.794-46.836-78.626-80.947-26.832-34.112-54.68-19.957-43.507 18.277 11.174 38.235 61.448 70.253 61.448 70.253s-61.828-1.482-81.579-13.944c-19.752-12.462-54.704-33.88-53.086-1.041 1.619 32.839 54.346 47.344 85.726 51.652 47.171 6.475 57.282 3.063 57.282 3.063" style="fill:#fcd203"/></g><g transform="translate(941.67 213.33)"><path d="m0 0c-4.58 0.744-9.375 1.281-14.233 1.637-7.718-8.612-14.476-17.392-12.686-30.109 0.768-5.451 2.757-10.05 5.537-14.06 3.893-0.179 7.74-0.369 11.483-0.511-7.453 15.025-2.518 32.034 9.899 43.043m-65.25 0.823c-6.07-12.72-11.578-25.638-4.188-39.584 1.108-2.089 2.416-4.066 3.801-5.999 2.966 0.792 6.112 1.355 9.361 1.774-2.197 4.098-3.816 8.564-4.295 13.817-1.082 11.879 3.706 21.471 9.383 30.972-6.068-0.311-11.017-0.705-14.062-0.98m-75.997-39.943c3.969 0.147 7.466 0.264 9.123 0.356 1.227 14.129 0.462 27.709-5.17 40.666-2.769-0.052-6.089-0.196-9.905-0.441 6.382-11.623 9.244-27.454 5.952-40.581m-37.935-3.792c2.18 13.044-1.321 29.165-9.289 39.566-2.908-0.514-5.947-1.133-9.029-1.806 3.172-6.289 5.398-12.94 6.695-17.854 1.851-7.017 2.935-14.378 2.666-21.485 2.923 0.578 5.921 1.108 8.957 1.579m-56.174 25.135c-3.4-1.673-6.634-3.496-9.654-5.459 4.364-3.618 7.955-8.378 10.558-13.444 4.159-8.092 5.715-16.697 5.839-25.431 3.14 1.721 6.236 3.53 9.159 5.313 0.526 5.819 0.513 11.596-1.631 17.532-2.292 6.35-7.49 16.106-14.271 21.489m110.89-16.302c-2.143-1.266-5.958-3.766-11.367-7.772 13.953-1.932 28.952-9.737 36.448-20.927 1.31-1.955 2.455-3.984 3.482-6.062 2.256 2.223 4.388 4.282 6.449 6.255-0.484 4.34-1.74 8.632-4.73 12.944-6.916 9.979-18.815 13.809-30.282 15.562m-40.418-32.335c-3.904-3.958-7.772-8.224-11.365-12.754 0 0 7.463-0.408 14.45-3.612 9.743-4.468 16.969-6.511 23.68-15.915 1.875-2.627 5.601-8.727 5.601-8.727 3.476 3.938 7.05 7.877 10.642 11.764-2.955 4.944-7.179 9.725-12.637 15.024-7.313 7.101-27.514 14.515-30.371 14.22m98.226 203.03c0.553 3.896 1.193 7.8 1.871 11.702-19.44-3.662-38.903-3.328-57.944 3.276-0.427-4.274-0.823-8.589-1.154-12.984 18.927-5.774 38.282-6.136 57.227-1.994m-20.542 130.35c3.595-2.073 7.271-4.275 11.13-5.832 12.52-5.05 26.274-5.698 39.664-7.73 1.432 4.33 2.733 8.257 3.932 11.912-19.035-2.518-39.526 7.744-56.677 18.433-1.828-3.735-3.672-7.772-5.514-12.212l0.191-0.137c2.335-1.608 4.821-3.019 7.274-4.434m-18.29-54.025c-2.046 0.507-4.423 1.083-6.935 1.748-0.97-4.199-1.914-8.474-2.805-12.893 18.373-8.147 42.264-11.029 60.317-9.132 1.237 4.667 2.512 9.223 3.798 13.716-17.701-2.116-37.918 2.477-54.375 6.561m34.908-128.1c0.101 3.897 0.288 7.828 0.475 11.754-15.673-6.459-37.482-9.546-55.952-6.858-0.061-2.983-0.114-5.928-0.138-8.744 3.884-1.491 6.891-2.524 7.744-2.742 16.371-4.193 33.449-1.559 47.871 6.59m0.356-54.531c-0.145 3.997-0.274 8.318-0.38 12.848-16.389-7.711-36.595-9.833-54.851-5.966 0.178-3.926 0.374-7.586 0.578-10.902 17.6-5.989 38.651-4.525 54.653 4.02" style="fill:#db903f"/></g><g clip-path="url(#clipPath1694)" style="opacity:.10001"><g transform="translate(973.78 194.34)"><path d="m0 0c-0.088 0.47-0.262 0.902-0.393 1.353-2.615-1.901-4.127-14.336-25.034-11.474-34.325 4.7-73.937 6.065-90.549-4.802-21.983-14.379-45.949-37.377-61.373-58.639-6.187-8.528-12.843-16.715-19.928-24.513-4.036-4.442-8.375-8.873-13.906-11.205-5.21-2.197-11.729-2.053-16.045 1.489 1.108-23.876 23.875-28.542 45.975-0.447 26.832 34.112 73.023 78.837 78.627 80.948 37.665 14.184 110.56-15.161 102.63 27.29m-136.12 19.261c-1.258 49.395 0.22 98.86 4.424 148.09 3.753 43.967 10.026 88.863 30.859 127.76 5.849 10.921 15.402 22.586 27.719 21.261 2.444-0.263 4.635-1.037 6.609-2.162-8.471 13.758-26.581 20.151-37.237 13.44-16.259-10.239-46.981-80.612-52.845-178.23-4.466-74.349 0.793-119.82 1.531-128.31 5.81-0.78 12.033-1.469 18.94-1.855m-27.197-38.968c2.877 1.626 9.178 6.735 14.07 8.611-25.923 11.957-67.145 4.219-100.4-8.37-4.947-1.873-14.082-6.12-19.317-6.873-13.843-1.989-16.759 11.046-13.103 18.61-9.175-7.164-15.381-16.045-15.92-26.964-1.618-32.838 33.334-11.42 53.086 1.042 19.025 12.003 77.335 13.826 81.579 13.944"/></g></g><g clip-path="url(#clipPath1710)" style="opacity:.3"><g transform="translate(764.55 107.43)"><path d="m0 0c-3.309-4.753-6.423-11.474-2.703-15.851 7.105-1.156 13.884 10.195 19.845 16.281 22.496 31.019 37.98 48.636 64.249 69.153-17.492-4.393-28.572-11.213-50.414-30.858-11.135-12.235-21.525-25.146-30.977-38.725m198.53 95.315c-2.014 2.145-4.942 3.132-7.763 3.965-21.277 6.28-43.821 7.997-65.845 5.361-1.319-0.581-2.634-1.167-3.953-1.747 17.003-0.509 34.898-4.234 49.74-8.966 8.13-2.593 16.068-5.68 24.086-8.556 1.718 0.21 3.38 0.683 4.503 1.944 1.956 2.197 1.246 5.855-0.768 7.999m-97.779 90.54c1.613 50.799 11.294 101.19 26.871 149.51 0.804 2.494 5.508 14.392 7.876 25.424-24.122-36.014-33.132-80.841-40.413-122.9-4.638-26.793-6.906-53.921-6.356-81.117 0.263-13.045 0.72-26.51 2.828-39.414 1.466-8.971-0.292-7.761 7.255-9.348 1.71-0.36 3.778-0.387 5.959-0.214-1.897 18.691-4.205 72.222-4.02 78.059" style="fill:#fff"/></g></g><g transform="translate(1223.4 225.55)"><path d="m0 0c-0.247 4.901 1.121 51.615-11.419 128.9-15.663 96.535-53.314 163.46-70.522 172.01s-48.781-14.904-35.834-44.266 40.412-86.778 51.347-141.18c10.934-54.396 12.573-121.47 12.573-121.47s-95.752 0.9-98.31-29.529c-3.62-43.034 65.95-6.499 104.85-16.819 5.788-1.536 56.246-41.384 86.377-72.62 30.13-31.237 56.411-14.351 41.445 22.565-14.966 36.915-68.208 63.709-68.208 63.709s61.663 4.75 82.569-5.66 57.836-28.2 52.92 4.309c-4.917 32.509-58.837 41.633-90.491 42.759-47.583 1.693-57.299-2.72-57.299-2.72" style="fill:#fcd203"/></g><g transform="translate(1115.4 170.33)"><path d="m0 0c3.709 0.518 7.517 1.094 11.373 1.664 2.362 4.27 3.878 9.045 4.093 14.546 0.501 12.834-7.107 20.888-15.653 28.679-4.798-0.842-9.514-1.86-13.996-3.061 13.463-9.703 20.085-26.129 14.183-41.828m36.564 48.775c6.605-8.88 12.334-17.943 12.453-29.87 0.053-5.274-1.109-9.881-2.882-14.179 3.275-0.09 6.461-0.333 9.493-0.822 1.183 2.062 2.285 4.161 3.176 6.351 5.95 14.619-0.831 26.917-8.151 38.961-3.057-0.034-8.021-0.139-14.089-0.441m95.557 9.327c-3.821-0.141-7.139-0.332-9.899-0.559-4.299-13.458-4.048-26.986-1.405-40.92 1.659 0.076 5.504 0.252 9.469 0.504-4.598 12.729-3.344 28.769 1.835 40.975m45.359-41.597c-0.983 7.043-0.646 14.476 0.489 21.644 0.796 5.02 2.34 11.861 4.863 18.437-3.134 0.36-6.219 0.67-9.165 0.888-6.879-11.15-8.74-27.542-5.258-40.301 3.068-0.162 6.104-0.387 9.071-0.668m32.252 8.515c-1.535-6.121-0.966-11.87 0.143-17.607 3.088-1.479 6.349-2.968 9.647-4.364-0.757 8.702-0.074 17.42 3.249 25.889 2.08 5.303 5.173 10.4 9.151 14.439-3.203 1.65-6.603 3.138-10.155 4.46-6.205-6.039-10.393-16.269-12.035-22.817m-125.22-23.099c-2.54-4.591-3.357-8.988-3.402-13.354 2.249-1.755 4.577-3.59 7.046-5.574 0.812 2.17 1.748 4.305 2.854 6.382 6.331 11.887 20.033 21.407 33.721 24.735-6.246 3.65-8.536 4.361-12.383 6.392-11.233-2.898-21.959-7.957-27.836-18.581m39.036-26.574c-3.33-5.02-5.452-10.602-6.851-16.421 4.269-3.774 8.524-7.611 12.657-11.454 0.076 0.101 0.146 0.205 0.223 0.305 0.762 3.022 1.795 6.012 3.158 8.938 4.349 9.334 12.407 19.359 22.75 22.172 5.807 1.58 11.263 0.158 16.692-1.322-4.884 5.393-10.256 10.334-15.635 14.787-2.872 6e-3 -5.742-0.125-8.606-0.697-10.054-2.006-18.754-7.813-24.388-16.308m-28.438 216.86c-0.772 4.339-1.601 8.593-2.456 12.802-18.279-8.487-37.609-10.78-57.32-9.094 1.068-3.814 2.098-7.633 3.04-11.454 19.267-2.213 38.486 0.096 56.736 7.746m-42.632 129.16 0.177 0.156c-2.28 4.231-4.521 8.063-6.716 11.594-15.988-12.361-35.341-24.634-54.533-24.045 1.562-3.516 3.251-7.292 5.112-11.456 13.117 3.37 26.736 5.399 38.683 11.684 3.683 1.937 7.118 4.499 10.487 6.924 2.297 1.654 4.629 3.309 6.79 5.143m-36.592-69.055c1.732-4.341 3.459-8.745 5.16-13.264 18.151-0.07 41.631 5.203 59.09 15.158-1.33 4.307-2.7 8.465-4.088 12.545-2.432-0.914-4.74-1.726-6.724-2.437-15.962-5.72-35.615-12.325-53.438-12.002m79.896-120.7c0.827 0.304 3.714 1.634 7.429 3.509-0.308 2.799-0.657 5.724-1.018 8.685-18.106-4.533-40.114-3.658-56.358 1.191 0.581-3.888 1.163-7.78 1.656-11.648 15.169-6.655 32.426-7.556 48.291-1.737m11.624-51.049c-0.13 3.319-0.304 6.981-0.521 10.904-17.774-5.684-38.091-5.608-55.174 0.413 0.351-4.517 0.658-8.829 0.916-12.821 16.781-6.889 37.872-6.227 54.779 1.504" style="fill:#db903f"/></g><g clip-path="url(#clipPath1734)" style="opacity:.10001"><g transform="translate(1300.3 100.49)"><path d="m0 0c-6.916-1.769-13.592 3.247-18.792 8.138-16.111 15.15-30.253 32.312-46.614 47.191-16.36 14.88-35.572 27.677-57.334 31.61-25.394 4.589-51.266-3.269-77.065-3.793-8.453-0.172-19.674 3.316-19.106 11.751 0.18 2.673 1.662 5.079 3.331 7.175 2.005 2.52 4.362 4.63 6.869 6.541-11.428-4.327-19.677-10.436-20.403-19.076-3.62-43.034 65.95-6.499 104.85-16.819 5.788-1.536 56.246-41.384 86.377-72.62 25.235-26.162 47.753-18.556 45.617 6.29-1.715-3.066-4.35-5.523-7.732-6.388m70.935 84.22c-3.128-2.619-6.864-4.785-10.675-4.977-13.615-0.687-29.25 11.996-44.346 17.777-12.38 4.742-64.959 15.743-95.458-2.895 4.332-2.291 8.196-4.051 15.058-7.764 6.688 0.473 62.772 4.128 82.407-5.648 20.725-10.321 57.176-27.865 53.014 3.507m-204.45 34.84c0.646-4e-3 1.296 0.01 1.941 8e-3 -0.453 1e-3 -1.09-1e-3 -1.941-8e-3m-9.866 121.47c10.92-54.324 12.569-121.28 12.573-121.46 3.349-4e-3 6.7-2e-3 10.067 0.079 0.971 84.148-14.942 165.66-46.803 243.55-3.774 9.226-7.816 18.552-8.724 28.479-0.906 9.927 1.891 20.786 9.668 27.021 3.537 2.835 8.194 4.191 12.734 4.124-1.814 1.652-3.504 2.888-5.028 3.645-17.208 8.551-48.781-14.903-35.834-44.266 12.947-29.362 40.412-86.778 51.347-141.18"/></g></g><g clip-path="url(#clipPath1750)" style="opacity:.3"><g transform="translate(1281.9 148.22)"><path d="m0 0c-12.174 14.53-27.011 26.824-43.542 36.097-10.911 6.12-26.953 14.969-39.789 15.071 12.547-8.883 26.065-16.048 38.339-25.686 16.457-12.922 33.347-26.344 43.493-44.643 3.687-6.651 6.824-14.291 13.463-17.999 1.746-0.976 3.922-1.615 5.717-0.732 3.561 1.754 2.393 7.09 0.562 10.613-5.055 9.727-11.204 18.878-18.243 27.279m82.031 44.217c-2.437 11.21-13.991 17.723-24.701 21.835-20.054 7.7-41.399 11.968-62.861 12.733-10.73 0.382-21.495-0.113-32.143-1.496-4.971-0.646-10.469-1.07-15.253-2.603-3.264-1.045-7.653-5.099-10.892-5.263 16.26 2.999 32.905 3.516 49.417 2.662 26.018-1.344 52.761-6.448 74.091-21.407 5.385-3.777 10.411-8.17 16.36-10.978 1.581-0.746 3.576-1.337 4.972-0.283 1.381 1.042 1.378 3.109 1.01 4.8m-144.89 31.828c0.092 9.258-1.555 25.073-1.848 34.326-0.595 18.815-2.005 37.603-4.22 56.296-4.322 36.467-11.706 72.572-22.089 107.8-8.249 27.989-16.801 57.618-35.884 80.434 6.912-21.032 19.557-55.566 29.02-95.81 15.337-65.225 18.641-122.87 22.011-189.79 3.56 0.179 13.01 6.747 13.01 6.747" style="fill:#fff"/></g></g><g transform="translate(1105.3 1261.4)"><path d="m0 0c-4.435 13.424-19.591 19.782-33.357 23.004-50.459 11.813-112.01 7.333-145.09-37.602 59.393 15.555 117.05 23.889 178.45 14.598" style="fill:#901a1d"/></g><g transform="translate(1091 1271.2)"><path d="m0 0c0.472 9.252 11.152 76.605-7.038 175.66-18.191 99.05-57.724 139.78-68.413 143.85-10.688 4.074-32.038 5.902-61.772-17.13-29.735-23.032-39.021-42.042-43.108-57.628-4.088-15.586-10.328-67.521 2.301-145.31 9.775-61.026 37.006-105.41 42.235-106.3 70.05 17.761 135.8 6.853 135.8 6.853" style="fill:#e8f6fd"/></g><g clip-path="url(#clipPath1774)" style="opacity:.050003"><g transform="translate(1034.1 1288.1)"><path d="m0 0c-36.106 1.105-67.699 4.699-82.579 42.006-10.294 25.81-12.952 57.12-14.601 84.812-2.616 43.932-2.792 121.61 48.774 139.46 27.348 9.468 53.285-3.322 73.655-24.614-17.61 39.982-36.899 58.296-43.881 60.958-10.688 4.074-32.038 5.903-61.772-17.13-29.734-23.032-39.021-42.042-43.108-57.628s-10.328-67.521 2.301-145.31c9.774-61.025 37.007-105.41 42.235-106.3 70.05 17.761 135.8 6.853 135.8 6.853 0.103 2.001 1.723 19.883 2.385 27.056-9.243-8.947-42.28-10.688-59.204-10.17"/></g></g><g transform="translate(1056.9 1364.8)"><path d="m0 0c26.663 118.2-71.896 201.06-127 114.38-60.417-118.89 73.229-260.23 127-114.38" style="fill:#45c1c6"/></g><g clip-path="url(#clipPath1794)" style="opacity:.5"><g transform="translate(987.23 1377.2)"><path d="m0 0c-2.519 2.816-0.96 6.261 1.602 7.698-0.72 1.17-1.463 2.335-2.124 3.519-3.119 5.586 5.915 10.319 9.027 4.744 10.828-19.394 30.556-36.906 52.378-48.402 3.113 5.966 6.072 12.565 8.807 19.984 20.91 92.695-35.188 163.61-86.948 148.12-20.664-66.26-2.532-176.56 50.851-201.32 5.966 4.089 11.72 9.766 17.158 17.003-19.815 12.663-34.737 30.751-50.751 48.655" style="fill:#fff"/></g></g><g transform="translate(1028.6 1423.6)"><path d="m0 0c15.592-84.694-64.905-115.98-82.131-27.992-16.414 83.843 66.347 113.73 82.131 27.992"/></g><g transform="translate(990.27 1437.7)"><path d="m 0,0 c 1.746,-14.014 9.374,-27.82 19.978,-32.563 10.268,-4.593 21.287,-0.212 29.75,7.156 C 69.894,-7.85 82.959,47.321 50.133,63.377 22.1,77.087 -3.942,31.648 0,0" style="fill:#fff"/></g><g transform="translate(970 1454.8)"><path d="m0 0c0.984-7.901 5.285-15.684 11.263-18.358 5.789-2.589 12.002-0.12 16.774 4.034 11.369 9.897 18.735 41 0.228 50.052-15.804 7.73-30.487-17.886-28.265-35.728" style="fill:#fff"/></g><g transform="translate(948 1556.9)"><path d="m0 0c-21.574-17.041-33.938-35.605-39.028-61.897-0.766-3.956-0.14-16.168-4.302-15.655-8.939-0.521-9.136 26.044-6.064 38.774 6.815 28.244 21.711 55.246 44.87 73.975 23.158 18.728 54.991 28.37 84.56 22.385 2.724-0.552 5.609-1.339 7.375-3.396s1.635-5.755-0.894-6.887c-1.145-0.512-2.472-0.397-3.727-0.27-4.658 0.47-9.316 0.941-13.972 1.411 10.018-0.492 24.464-7.621 24.554-18.95 0.114-14.357-16.311-9.058-25.345-8.326-24.356 1.974-49.23-6.316-68.027-21.164" style="fill:#2d3e54"/></g><g clip-path="url(#clipPath1826)" style="opacity:.3"><g transform="translate(1040.3 1582.4)"><path d="m0 0c-4.48-0.453-8.915 0.916-13.286 2-36.188 8.974-76.72-2.32-103.05-28.716 18.394 23.11 44.701 39.802 73.445 46.601 8.17 1.932 16.824 3.026 25.116 2.154-1.123 0.283-2.232 0.499-3.312 0.65 3.873-0.391 7.748-0.782 11.623-1.173 1.254-0.127 2.581-0.243 3.726 0.269 1.918 0.859 2.446 3.186 1.824 5.162-1.127-1.345-3.787-1.461-5.798-1.136-31.241 5.042-64.507-4.25-88.612-24.753 9.772 10.336 21.047 19.213 33.288 26.458-11.517-4.17-22.349-10.237-31.742-17.833-23.159-18.728-38.055-45.73-44.87-73.974-3.072-12.73-2.875-39.295 6.064-38.774 4.162-0.513 3.536 11.699 4.302 15.655 5.09 26.292 17.454 44.855 39.027 61.897 18.798 14.847 43.671 23.138 68.028 21.164 8.086-0.655 22.056-4.925 24.826 4.471-0.202-0.028-0.394-0.102-0.597-0.122"/></g></g><g clip-path="url(#clipPath1842)" style="opacity:.8"><g transform="translate(986.65 1538.7)"><path d="m0 0c-7.933-4.365-10.54-16.626-5.745-24.307 4.452-7.13 13.837-8.802 21.838-11.38 26.405-8.506 45.225-33.329 52.622-60.066 7.396-26.737 4.902-55.228-0.261-82.485-1.438-7.59-1.929-17.59 5.115-20.764 8.424-3.794 17.086 6.692 18.287 15.852 8.308 63.406-10.123 122.64-17.939 143.26-10.511 27.739-46.224 55.125-73.917 39.889" style="fill:#fff"/></g></g><g transform="translate(1219.3 1262.4)"><path d="M 0,0 C 3.672,13.652 18.446,20.853 32.008,24.846 81.723,39.481 143.428,38.474 178.987,-4.527 118.814,7.659 60.782,12.733 0,0" style="fill:#901a1d"/></g><g transform="translate(1233.1 1273)"><path d="m0 0c-0.992 9.21-15.448 75.855-2.862 175.77 12.585 99.917 49.762 142.81 60.204 147.48s31.655 7.697 62.639-13.624c30.984-21.322 41.326-39.778 46.284-55.11 4.959-15.331 14.113-66.833 5.884-145.21-6.323-61.479-31.013-107.32-36.183-108.5-70.939 13.79-135.97-0.803-135.97-0.803" style="fill:#e8f6fd"/></g><g clip-path="url(#clipPath1866)" style="opacity:.050003"><g transform="translate(1272.6 1302.7)"><path d="m0 0c-45.411 27.194-33.809 129.64-22.154 171.56 11.422 41.085 32.739 95.607 84.734 83.957 34.416-7.712 57.799-40.393 71.751-76.683-1.928 22.948-5.253 38.692-7.63 46.041-4.959 15.331-15.301 33.787-46.284 55.109-30.984 21.322-52.198 18.294-62.639 13.624-10.442-4.669-47.62-47.558-60.205-147.48-12.585-99.917 1.871-166.56 2.862-175.77 0 0 65.028 14.593 135.97 0.804 3.042 0.695 12.829 16.924 21.668 42.62-30.28-20.078-86.082-32.933-118.07-13.778"/></g></g><g transform="translate(1354.4 1361.1)"><path d="m0 0c37.2 103.11-36.918 188.98-94.576 117.5-66.127-99.814 30.84-242.31 94.576-117.5" style="fill:#45c1c6"/></g><g clip-path="url(#clipPath1886)" style="opacity:.5"><g transform="translate(1304.1 1374.4)"><path d="m0 0c0.114 0.242 0.326 0.361 0.472 0.566 1.139 2.812 5.981 3.56 8.259 0.821 1.009-1.211 2.017-2.423 3.025-3.635 0.221-0.266 0.281-0.532 0.426-0.8 9.608-8.302 18.716-17.148 28.576-25.049 0.242-0.145 0.474-0.292 0.715-0.437 2.986 4.557 5.923 9.613 8.792 15.23 29.172 80.86-10.116 151.09-56.236 143.17-25.739-57.137-23.696-158.34 18.902-186.78 5.826 3.105 11.668 7.766 17.418 14.011-16.465 8.059-37.992 26.542-30.349 42.906" style="fill:#fff"/></g></g><g transform="translate(1332.5 1417.1)"><path d="m0 0c2.86-74.391-66.469-92.316-70.279-14.918-3.63 73.751 67.383 90.224 70.279 14.918"/></g><g transform="translate(1310.4 1441.9)"><path d="m 0,0 c -0.191,-11.231 4.054,-22.895 11.499,-27.715 7.211,-4.668 15.945,-2.336 23.082,2.614 17.006,11.794 32.711,53.976 9.808,69.98 C 24.83,58.546 0.432,25.361 0,0" style="fill:#fff"/></g><g transform="translate(1290.5 1446.3)"><path d="m0 0c1.02-6.791 4.757-13.396 9.733-15.552 4.818-2.088 9.848 0.198 13.65 3.902 9.061 8.824 14.267 35.839-1.158 43.182-13.172 6.27-24.527-16.197-22.225-31.532" style="fill:#fff"/></g><g transform="translate(1359.7 1566.3)"><path d="m0 0c22.499-15.799 35.888-33.637 42.451-59.602 0.987-3.906 1.049-16.134 5.176-15.387 8.954-0.017 7.656 26.517 3.872 39.054-8.395 27.816-24.788 53.936-48.964 71.331-24.176 17.394-56.502 25.229-85.686 17.588-2.689-0.704-5.525-1.653-7.173-3.806-1.647-2.153-1.308-5.838 1.281-6.825 1.172-0.447 2.491-0.257 3.736-0.06 4.624 0.732 9.249 1.464 13.871 2.195-9.975-1.054-23.996-8.985-23.449-20.301 0.695-14.342 16.795-8.126 25.774-6.886 24.206 3.341 49.507-3.535 69.111-17.301" style="fill:#2d3e54"/></g><g clip-path="url(#clipPath1918)" style="opacity:.3"><g transform="translate(1266.2 1586.6)"><path d="m0 0c4.499-0.2 8.849 1.416 13.152 2.744 35.626 10.998 76.729 2.004 104.5-22.868-19.665 22.039-46.871 37.223-75.951 42.392-8.267 1.469-16.968 2.074-25.198 0.737 1.105 0.346 2.2 0.624 3.27 0.836-3.845-0.609-7.692-1.218-11.539-1.827-1.245-0.197-2.563-0.387-3.735 0.06-1.964 0.749-2.621 3.043-2.112 5.05 1.202-1.279 3.864-1.245 5.853-0.808 30.908 6.794 64.645-0.611 89.865-19.724-10.338 9.77-22.095 17.998-34.724 24.542 11.733-3.515 22.89-8.962 32.695-16.017 24.176-17.395 40.57-43.515 48.964-71.331 3.784-12.536 5.083-39.071-3.872-39.054-4.126-0.747-4.189 11.482-5.176 15.388-6.562 25.964-19.952 43.802-42.45 59.601-19.604 13.766-44.905 20.643-69.112 17.301-8.036-1.109-21.744-6.159-25.038 3.066 0.203-0.017 0.399-0.079 0.603-0.088"/></g></g><g clip-path="url(#clipPath1934)" style="opacity:.8"><g transform="translate(1340.4 1541.9)"><path d="m0 0c-11.994-1.465-22.578-14.048-18.8-25.525 2.885-8.762 12.063-13.454 19.038-19.489 19.537-16.904 25.811-32.835 27.337-58.625 1.466-24.757-0.82-63.991-13.441-85.34-2.296-3.884-5.051-7.608-6.226-11.964-1.175-4.357-0.307-9.684 3.439-12.199 2.573-1.728 5.957-1.779 8.968-1.048 11.615 2.819 18.036 15.07 22.091 26.314 13.035 36.148 17.24 77.625 13.172 115.89-2.843 26.741-21.831 76.107-55.578 71.984" style="fill:#fff"/></g></g><g transform="translate(1015.7 1744.8)"><path d="m0 0c7.351-12.591 13.448-26.32 18.221-40.824-11.677 20.356-21.988 35.959-21.988 35.959s-30.649 6.329-88.048-52.994c-22.782-23.545-38.413-46.353-49.161-67.125 2.346-3.742 4.692-7.484 7.039-11.226-3.678 0.806-7.076 2.652-10.063 5.171-0.64-1.33-1.294-2.665-1.895-3.977 1.736-3.605 3.934-6.845 6.595-9.458-3.113 1.01-6.074 2.471-8.931 4.164-20.515-48.003-14.921-81.746-14.921-81.746s32.609 70.588 114.86 115.73c51.439 28.232 92.302 13.764 92.302 13.764-0.655 1.672-12.818 67.027-44.013 92.559" style="fill:#563416"/></g><g clip-path="url(#clipPath1954)" style="opacity:.3"><g transform="translate(1017.9 1694.2)"><path d="m0 0c-6.504 14.629-14.196 29.409-26.544 36.661 0 0 9.133 1.318 14.73-1.468 14.721-7.328 26.662-34.5 30.412-42.541-5.125 19.017-16.455 36.398-27.756 50.434-17.532-0.934-33.235-10.176-48.819-21.85-32.394-24.267-61.368-56.385-83.353-94.287 22.432 28.704 45.38 57.908 73.421 77.467 11.864 8.275 29.584-6.898 36.112-12.952-6.227 10.089-13.004 17.615-24.109 21.28 11.588-0.351 20.82-6.485 29.429-14.984 2.733-2.698 8.253-7.995 8.253-7.995-1.37 4.748-4.082 8.613-6.979 12.085-5.534 6.633-11.928 12.205-18.929 16.497 13.664-3.075 24.812-14.175 32.468-27.729-6.259 16.439-15.223 27.614-27.779 37.159 11.783 3.416 32.111-12.244 39.443-27.777" style="fill:#fff"/></g></g><g clip-path="url(#clipPath1970)" style="opacity:.39999"><g transform="translate(1000.3 1656)"><path d="m0 0c20.094 4.353 46.4 3.712 56.032 0.098-5.437 29.007-16.062 55.965-30.902 78.683-0.918 1.127-1.858 2.218-2.818 3.274 10.948-18.763 17.687-41.379 19.275-65.173-10.794 22.161-24.275 48.027-44.822 55.724 14.553-9.787 22.445-29.197 28.082-48.43-11.725 18.864-21.933 31.256-40.823 38.485 14.026-10.71 21.008-21.077 30.256-39.422-13.89 1.297-27.822-6.334-27.822-6.334-11.993 15.324-21.43 14.802-22.78 14.32-22.234-7.937-56.52-36.396-61.778-44.253 1.16-11.388 4.596-14.433 10.627-20.212-8.786 3.069-12.833 5.695-16.968 15.01 0.203-11.404 0.923-16.177 8.659-24.322-7.709 3.004-11.316 4.573-16.915 15.371-0.521-10.413 3.722-17.706 10.52-23.201-8.702 1.097-12.092 5.931-16.509 11.642 2.586-11.681 5.646-14.7 10.525-18.673-6.293 1.476-10.798 4.155-16.103 8.179 1.799-6.661 6.841-10.829 12.779-14.649-6.968 0.572-11.504 1.715-17.497 5.516 2.839-7.046 3.894-10.832 10.454-13.66-6.85-0.897-9.246 0.232-13.744 2.549 1.704-6.547 4.978-9.705 4.978-9.705-11.346-14.344-18.785-33.075-20.742-52.043 0.136-1.33 0.253-2.098 0.253-2.098s3.244 7.004 10.232 17.991c18.929 35.026 43.562 61.104 72.69 83.309 19.317 14.725 46.569 28.061 64.861 32.024"/></g></g><g transform="translate(1254.8 1754.8)"><path d="m0 0c-7.439-12.442-13.72-25.689-18.662-39.455 12.097 19.966 22.464 35.605 22.464 35.605 0.436 0.244 29.873 9.39 90.447-31.772 24.316-16.217 42.135-32.714 55.193-48.537-2.028-3.968-4.065-7.93-6.115-11.89 3.711 1.665 7.019 4.214 9.821 7.258 0.792-1.023 1.6-2.047 2.354-3.06-1.405-3.694-3.326-7.177-5.805-10.216 3.11 1.718 6.008 3.818 8.763 6.099 26.373-37.364 25.645-68.879 25.489-68.945-0.213 0.504-44.179 51.887-131.79 76.735-54.793 15.864-97.697-1.256-97.931-1.345 0.546 1.685 14.162 62.075 45.776 89.523" style="fill:#563416"/></g><g clip-path="url(#clipPath1990)" style="opacity:.3"><g transform="translate(1252.8 1708.8)"><path d="m0 0c6.579 14.193 14.326 28.686 26.68 37.248-2e-3 -8e-3 -9.223-0.293-14.879-3.65-14.843-8.858-27.182-35.018-31.085-42.799 5.314 17.9 17.001 35.147 28.353 49.536 17.713 1.781 33.559-3.883 49.632-11.485 33.362-15.801 64.519-37.928 90.747-66.183-25.799 19.924-50.974 40.832-80.1 52.923-12.266 5.094-29.763-11.768-36.374-18.327 6.124 10.189 12.827 18.151 23.924 23.534-11.693-2.485-20.91-9.617-29.557-18.732-2.738-2.89-8.322-8.573-8.322-8.573 1.309 4.515 4.026 8.448 6.921 12.065 5.532 6.906 11.912 13.023 18.88 18.147-13.728-5.209-24.92-17.015-32.611-30.464 6.183 15.851 15.189 27.356 27.642 38.156-11.891 0.99-32.347-16.311-39.851-31.396" style="fill:#fff"/></g></g><g clip-path="url(#clipPath2006)" style="opacity:.39999"><g transform="translate(1271.8 1676.9)"><path d="m0 0c-21.144 0.65-48.915-3.279-59.207-7.597 5.765 26.975 17.111 52.635 32.286 75.21 0.939 1.145 1.897 2.262 2.876 3.349-11.17-18.484-18.327-39.798-19.909-61.592 11.279 21.481 25.158 46.646 45.83 56.846-14.605-11.144-22.652-29.793-28.333-48.02 12.029 18.75 22.392 31.421 41.384 41.124-14.001-12.037-21.033-22.464-30.356-40.462 14.419 3.198 29.018-1.323 29.034-1.32 11.932 15.894 21.513 17.191 22.928 17.009 22.864-3.185 59.58-21.063 65.71-26.748-0.271-10.51-3.53-14.076-9.31-20.674 8.843 4.806 12.773 8.156 16.215 17.527 0.753-10.291 0.475-14.769-6.834-23.948 7.724 4.551 11.304 6.858 16.058 17.949 1.483-9.211-2.166-16.834-8.727-23.44 8.932 3.123 11.961 8.34 15.948 14.586-1.523-11.137-4.382-14.635-9.071-19.422 6.398 2.901 10.794 6.465 15.848 11.457-1.169-6.439-5.95-11.494-11.756-16.429 7.196 2.283 11.787 4.493 17.574 9.49-2.185-7.062-2.861-10.747-9.4-14.992 7.235 0.98 9.607 2.642 14.014 5.923-1.035-6.322-4.094-10.029-4.094-10.029 13.414-9.82 23.573-24.41 28.225-40.782 0.036-1.227 0.015-1.947 0.015-1.947 5e-3 4e-3 -4.417 5.3-13.189 13.171-24.399 26.048-52.507 43.153-84.403 56.943-21.163 9.074-50.082 16.085-69.356 16.818"/></g></g></g></g></g></svg>
