<?xml version="1.0" encoding="UTF-8"?>
<svg width="34.052mm" height="37.645mm" version="1.1" viewBox="0 0 34.052 37.645" xmlns="http://www.w3.org/2000/svg" xmlns:xlink="http://www.w3.org/1999/xlink"><g transform="translate(-92.587 -122.45)"><g transform="matrix(.26458 0 0 .26458 96.556 116.61)"><symbol id="x" viewBox="-0.008 -9.107 8.658 9.122"><path d="m7.4-1.15c0.833-0.867 1.25-1.983 1.25-3.35 0-1.167-0.183-2.15-0.55-2.95-0.467-0.933-1.117-1.45-1.95-1.55-2-0.233-3.483-0.083-4.45 0.45-0.934 0.5-1.483 1.4-1.65 2.7-0.2 1.8 0.117 3.217 0.95 4.25 0.767 0.967 1.817 1.5 3.15 1.6 1.3 0.1 2.383-0.283 3.25-1.15z" style="clip-rule:evenodd;fill-rule:evenodd;fill:#a01f1f"/></symbol><symbol id="y" viewBox="0.028 -10.048 9.422 10.022"><path d="m4.55-0.05c1.467 0.133 2.65-0.283 3.55-1.25 0.9-0.933 1.35-2.167 1.35-3.7 0-1.267-0.2-2.35-0.6-3.25-0.467-1.033-1.167-1.6-2.1-1.7-2.2-0.233-3.833-0.05-4.9 0.55-1 0.533-1.583 1.517-1.75 2.95-0.233 2 0.1 3.567 1 4.7 0.833 1.033 1.983 1.6 3.45 1.7z" style="clip-rule:evenodd;fill-rule:evenodd;fill:#a01f1f"/></symbol><symbol id="z" viewBox="-0.02 -10.252 9.72 10.226"><path d="m4.6-0.05c1.5 0.133 2.733-0.3 3.7-1.3 0.933-0.933 1.4-2.183 1.4-3.75 0-1.3-0.217-2.4-0.65-3.3-0.5-1.067-1.216-1.65-2.15-1.75-2.233-0.233-3.9-0.067-5 0.5-1.067 0.567-1.683 1.583-1.85 3.05-0.233 2.033 0.117 3.633 1.05 4.8 0.833 1.067 2 1.65 3.5 1.75z" style="clip-rule:evenodd;fill-rule:evenodd;fill:#a01f1f"/></symbol><symbol id="aa" viewBox="0.028 -9.802 9.222 9.777"><path d="m4.45-0.05c1.433 0.133 2.6-0.267 3.5-1.2 0.867-0.933 1.3-2.133 1.3-3.6 0-1.267-0.2-2.333-0.6-3.2-0.467-1-1.15-1.55-2.05-1.65-2.133-0.233-3.717-0.067-4.75 0.5-1 0.534-1.583 1.5-1.75 2.9-0.233 1.933 0.1 3.466 1 4.6 0.8 1 1.917 1.55 3.35 1.65z" style="clip-rule:evenodd;fill-rule:evenodd;fill:#a01f1f"/></symbol><symbol id="ab" viewBox="-0.006 -9.556 9.006 9.581"><path d="m7.7-1.2c0.867-0.9 1.3-2.083 1.3-3.55 0-1.2-0.2-2.233-0.6-3.1-0.433-0.967-1.083-1.5-1.95-1.6-2.1-0.233-3.667-0.083-4.7 0.45-0.967 0.533-1.533 1.483-1.7 2.85-0.2 1.9 0.133 3.4 1 4.5 0.767 0.967 1.85 1.517 3.25 1.65s2.533-0.267 3.4-1.2z" style="clip-rule:evenodd;fill-rule:evenodd;fill:#a01f1f"/></symbol><symbol id="ac" viewBox="-0.02 -10.473 9.87 10.447"><path d="m4.7-0.05c1.533 0.133 2.783-0.3 3.75-1.3 0.933-1 1.4-2.283 1.4-3.85 0-1.367-0.217-2.5-0.65-3.4-0.467-1.066-1.184-1.65-2.15-1.75-2.3-0.267-4-0.1-5.1 0.5-1.1 0.567-1.733 1.6-1.9 3.1-0.233 2.067 0.117 3.7 1.05 4.9 0.867 1.1 2.067 1.7 3.6 1.8z" style="clip-rule:evenodd;fill-rule:evenodd;fill:#a01f1f"/></symbol><symbol id="ad"></symbol><path d="m113.7 148.75c0 4.3-6.283 7.983-18.851 11.05-12.6 3.033-27.783 4.55-45.55 4.55-15.6 0-29.366-1.216-41.3-3.649-11.8-2.4-19.1-5.434-21.9-9.101-0.1-0.966-0.467-1.866-1.1-2.699v-0.15c0-4.333 6.283-8.017 18.85-11.05 12.533-3.066 27.683-4.601 45.45-4.601s32.95 1.534 45.55 4.601c12.571 3.03 18.851 6.72 18.851 11.05z" style="clip-rule:evenodd;fill-rule:evenodd;fill:url(#p)"/><path d="m52.5 161.25c0 0.667-0.85 1.25-2.55 1.75-1.7 0.467-3.75 0.7-6.15 0.7-2.366 0-4.4-0.233-6.1-0.7-1.7-0.5-2.55-1.083-2.55-1.75s0.85-1.25 2.55-1.75 3.733-0.75 6.1-0.75c2.4 0 4.45 0.25 6.15 0.75s2.55 1.08 2.55 1.75z" style="clip-rule:evenodd;fill-rule:evenodd;fill:url(#q)"/><path d="m4.1 141.4c1.767-0.5 3.9-0.75 6.4-0.75s4.65 0.25 6.45 0.75c1.767 0.5 2.65 1.116 2.65 1.85 0 0.7-0.883 1.316-2.65 1.85-1.8 0.5-3.95 0.75-6.45 0.75s-4.633-0.25-6.4-0.75c-1.767-0.533-2.65-1.149-2.65-1.85 0-0.73 0.883-1.35 2.65-1.85z" style="clip-rule:evenodd;fill-rule:evenodd;fill:url(#r)"/><path d="m103.65 155.4c0 0.733-0.851 1.35-2.551 1.85-1.699 0.5-3.75 0.75-6.149 0.75-2.367 0-4.4-0.25-6.101-0.75-1.699-0.5-2.55-1.116-2.55-1.85s0.851-1.351 2.55-1.851c1.7-0.533 3.733-0.8 6.101-0.8 2.399 0 4.45 0.267 6.149 0.8 1.7 0.5 2.55 1.12 2.55 1.85z" style="clip-rule:evenodd;fill-rule:evenodd;fill:url(#s)"/><g style="clip-rule:evenodd;fill-rule:evenodd"><path d="m48.55 145.85c-0.2 7.8-0.55 12.35-1.05 13.65-0.3 0.8-1.333 1.5-3.1 2.1l-2.55 0.601-3.05-1.8 0.2-3.9c1.567-0.7 2.55-1.65 2.95-2.85s-0.35-3.851-2.25-7.95l8.85 0.15z" style="fill:#1e1e1e"/><path d="m50.85 147.9c0 2.8 0.05 4.733 0.15 5.8 0.033 0.366-0.017 1.217-0.15 2.55-0.133 1.267-0.767 2.55-1.9 3.85l-1.7 1.551-5.4 0.55-0.3-4.05 1.3-0.301c0.9-0.399 1.467-1.116 1.7-2.149 0.267-1 0.05-2.55-0.65-4.65l-1.15-2.899 8.1-0.25z" style="fill:#353535"/><polygon points="39 156.5 41.55 158.15 41.85 162.2 38.8 160.4" style="fill:#2b2b2b"/><path d="m50.8 147.2 0.6 4.05c0.1 1.2-0.083 2.866-0.55 5-0.733-1.833-1.65-3.3-2.75-4.4-0.667-0.699-1.583-1.149-2.75-1.35l-1.6-0.15-1-2.199 8.05-0.95z" style="fill:#2b2b2b"/><path d="m46.75 158.2c-0.566 1.1-1.167 1.733-1.8 1.899l-3.25 0.9v-2.4c1.7-0.5 2.633-1.199 2.8-2.1 0.133-0.566 0.15-1.517 0.05-2.85l-0.2-1.801 1.65 0.65c1.1 0.634 1.65 1.417 1.65 2.35 0 1.1-0.3 2.22-0.9 3.35z" style="fill:#3f3f3f"/><path d="m43.3 149.6 1.3 1.851c0.8 1.533 1.066 3.017 0.8 4.45-0.133 0.8-0.816 1.416-2.05 1.85l-1.8 0.4c1.733-0.667 2.733-1.483 3-2.45 0.233-0.967 0.1-2.283-0.4-3.95l-0.85-2.15z" style="fill:#5b5b5b"/><polygon points="40.9 148.85 39.7 145.7 42.7 147.2 43.75 150.35" style="fill:#111"/></g><g style="clip-rule:evenodd;fill-rule:evenodd"><path d="m96.6 145.5c-0.566 2.967-0.649 4.833-0.25 5.6 0.467 0.934 1.25 1.467 2.351 1.601 0.566 0.066 1.066 0.033 1.5-0.101l-0.75 3.75-5.3 0.7-4.65-2.2c-0.767-1.899-1.267-3.899-1.5-6-0.133-1.233-0.167-2.533-0.1-3.899l0.1-1.65 9.55-2.05-0.95 4.25z" style="fill:#1e1e1e"/><path d="m97.5 142.4-0.4 2.5c-0.199 2-0.133 3.866 0.2 5.6 0.2 1 0.884 1.533 2.05 1.6 0.601 0 1.167-0.083 1.7-0.25l-1.6 4.5-5.3 0.7c-0.167-0.033-0.367-0.217-0.601-0.55-0.467-0.6-0.866-1.583-1.2-2.95-0.366-1.366-0.732-3.3-1.1-5.8l-0.45-3.35z" style="fill:#3f3f3f"/><path d="m96.7 145.7-0.05 2.35c0.033 1.667 0.25 2.684 0.649 3.05 0.7 0.601 1.95 0.851 3.75 0.75-0.633 0.267-1.316 0.45-2.05 0.551-1.467 0.233-2.434 0-2.9-0.7s-0.5-1.917-0.1-3.65l0.7-2.35z" style="fill:#5b5b5b"/><path d="m90.55 144 6.95-2.05-2.15 4.25c-0.3 0.3-0.6 0.684-0.899 1.149-0.634 0.9-0.934 1.784-0.9 2.65 0 1.1 0.267 2.2 0.8 3.3 0.601 1.233 1.284 1.884 2.051 1.95 1.1 0.066 2.217 0.1 3.35 0.1-0.2 0.667-2.066 1.233-5.6 1.7-0.434-0.133-0.9-0.467-1.4-1-1-1.033-1.633-2.483-1.9-4.35-0.166-1.4-0.267-3.101-0.3-5.101v-2.6z" style="fill:#353535"/><polygon points="90.55 143.15 97.5 141.95 95.85 144.95 90.4 146.9" style="fill:#2b2b2b"/></g><g style="clip-rule:evenodd;fill-rule:evenodd"><path d="m2.65 143.45 0.15-3.9c1.634-0.7 2.634-1.649 3-2.85 0.4-1.2-0.35-3.851-2.25-7.95l8.85 0.15c-0.2 7.8-0.55 12.35-1.05 13.649-0.3 0.8-1.333 1.5-3.1 2.101l-2.55 0.6z" style="fill:#1e1e1e"/><path d="m6.6 131.2 8.1-0.25c0 2.8 0.05 4.733 0.15 5.8 0.033 0.366-0.017 1.217-0.15 2.55-0.133 1.267-0.767 2.55-1.9 3.851l-1.7 1.55-5.4 0.55-0.3-4.05 1.3-0.3c0.9-0.4 1.466-1.117 1.7-2.15 0.267-1 0.05-2.55-0.65-4.65l-1.15-2.9z" style="fill:#353535"/><polygon points="2.8 139.55 5.4 141.2 5.7 145.25 2.65 143.45" style="fill:#2b2b2b"/><path d="m7.6 133.4-1-2.2 8.05-0.95 0.6 4.05c0.1 1.2-0.083 2.867-0.55 5-0.733-1.833-1.633-3.3-2.7-4.399-0.7-0.7-1.65-1.15-2.85-1.351z" style="fill:#2b2b2b"/><path d="m8.2 134.9 1.65 0.649c1.1 0.634 1.65 1.417 1.65 2.351 0 1.1-0.3 2.216-0.9 3.35-0.567 1.1-1.167 1.733-1.8 1.9l-3.3 0.899v-2.399c1.7-0.5 2.65-1.2 2.85-2.101 0.133-0.566 0.15-1.517 0.05-2.85l-0.2-1.8z" style="fill:#3f3f3f"/><path d="m7.15 132.65 1.3 1.85c0.8 1.533 1.066 3.017 0.8 4.45-0.133 0.8-0.816 1.416-2.05 1.85l-1.8 0.4c1.733-0.667 2.733-1.483 3-2.45 0.233-0.967 0.1-2.283-0.4-3.95z" style="fill:#5b5b5b"/><polygon points="6.55 130.25 7.6 133.4 4.75 131.9 3.55 128.75" style="fill:#111"/></g><path d="m7.55 31.05c3.667 0.4 7.017 1.217 10.05 2.45 0.1-0.434 0.3-0.983 0.6-1.65 0.566-1.333 1.283-2.583 2.15-3.75 2.767-3.633 6.517-5.633 11.25-6 3.8-0.267 7.45 1.15 10.95 4.25 1.733 1.566 3.083 3.15 4.05 4.75l1.2-0.5c1-0.367 2.083-0.583 3.25-0.65 3.733-0.167 7.533 1.15 11.4 3.95 3.866 2.8 4.366 8.8 1.5 18-1.467 4.767-3.55 10.15-6.25 16.15-0.7 2.967-1.217 7.95-1.55 14.95-0.367 7.533-0.2 12.483 0.5 14.85 0.633 2.134 1.833 4.667 3.6 7.601 0.9 1.5 1.717 2.767 2.45 3.8l-55.7 4.6c2.2-4.199 4.217-8.25 6.05-12.149 1.4-2.867 0.75-8.134-1.95-15.8-2.666-7.633-5.717-13.1-9.15-16.4-3.667-3.533-6.767-9.033-9.3-16.5-2.7-7.934-2.966-13.434-0.8-16.5 3.133-4.367 8.367-6.184 15.7-5.45z" style="clip-rule:evenodd;fill-rule:evenodd;fill:#353535"/><path d="m101.95 132.05c0.5 2.9 0.149 5.351-1.05 7.351-1.667 2.833-6.351 4.733-14.051 5.699-0.699 0.101-1.35 0.884-1.949 2.351-0.7 1.666-1.867 2.883-3.5 3.649-1.2 0.567-2.801 0.983-4.801 1.25l-2.649 0.25v-9.6l-15.05-42.9 2.199-1.8c1.834-1.2 3.7-1.8 5.601-1.8 2.066 0 3.95 0.167 5.649 0.5 0.934 0.167 3.084 0.7 6.45 1.6 3.733 1 8.767 3.034 15.101 6.101 7.333 3.533 11.416 6.3 12.25 8.3 1 2.4 1.366 4.983 1.1 7.75-0.333 2.967-1.316 4.884-2.95 5.75l-3.5 1.8 1.15 3.75z" style="clip-rule:evenodd;fill-rule:evenodd;fill:#353535"/><path d="m11.9 35.75c2.867-0.033 5.55 0.2 8.05 0.7l3.8-5.2c3.233-3.4 6.533-4.95 9.9-4.65 5.434 0.466 8.934 2.133 10.5 5 0.767 1.433 1 2.816 0.7 4.15l5.75-1c4.534-0.133 8.583 1.117 12.15 3.75 3.566 2.667 4.017 8.316 1.35 16.95-1.366 4.5-3.3 9.583-5.8 15.25-0.633 2.767-1.1 7.45-1.399 14.05-0.301 7.1-0.134 11.767 0.5 14 0.566 2 1.666 4.4 3.3 7.2 0.8 1.366 1.55 2.55 2.25 3.55l-51.35 4.35c2-3.966 3.85-7.783 5.55-11.449 1.333-2.834 1.167-7.834-0.5-15-1.734-7.4-4.118-12.6-7.151-15.6-3.333-3.267-6.117-8.617-8.35-16.05-2.333-7.8-2.5-13.167-0.5-16.1 1.767-2.567 5.517-3.867 11.25-3.9z" style="clip-rule:evenodd;fill-rule:evenodd;fill:#2d2d2d"/><path d="m98.25 131.45c0.566 3.566 0.35 5.916-0.65 7.05-0.866 1.033-2.3 1.733-4.3 2.1l-2.7 0.301-32.8-32.1 0.8-8.7 1.15 1.45c1.066 1 2.283 1.617 3.65 1.851 1.366 0.267 7.883 1 19.55 2.199 5.833 0.601 11.517 1.167 17.05 1.7l3.3 3c-0.933-0.133-1.95-0.116-3.05 0.05-2.2 0.334-3.684 1.317-4.45 2.95-0.899 1.967-1.366 4.167-1.399 6.601 0 2.466 0.467 4.133 1.399 5 1.067 0.93 1.884 3.12 2.45 6.55z" style="clip-rule:evenodd;fill-rule:evenodd;fill:#1c1c1c"/><path d="m13.35 36.85c2.8 0 5.417 0.233 7.85 0.7l3.7-5.1c3.133-3.333 6.35-4.85 9.65-4.55 5.267 0.467 8.65 2.1 10.15 4.9 0.767 1.434 1 2.8 0.7 4.1l5.6-1c4.4-0.133 8.333 1.1 11.8 3.7s3.9 8.167 1.3 16.7c-1.333 4.434-3.199 9.434-5.6 15-0.6 2.8-1.05 7.434-1.35 13.9-0.334 7-0.184 11.6 0.449 13.8 0.9 3.134 2.717 6.65 5.45 10.55l-49.95 4.3c1.933-3.899 3.733-7.649 5.4-11.25 1.3-2.8 1.133-7.75-0.5-14.85-1.7-7.267-4.017-12.366-6.95-15.3-3.233-3.233-5.933-8.517-8.1-15.85-2.267-7.7-2.434-13-0.5-15.9 1.701-2.533 5.334-3.817 10.901-3.85z" style="clip-rule:evenodd;fill-rule:evenodd;fill:#a01f1f"/><path d="m4.3 60.6c-2.1-5.534-3.133-10.367-3.1-14.5 0.5 1.033 1.3 1.483 2.4 1.35 1.5-0.2 2.967-0.967 4.4-2.3 0.733-0.667 1.3-1.316 1.7-1.95l11.3 21.15c7.434 14.6 10.967 23.216 10.6 25.85-0.5 3.666-3.417 11.267-8.75 22.8l-9.75 0.85c1.933-3.899 3.733-7.649 5.4-11.25 1.3-2.8 1.133-7.75-0.5-14.85-1.7-7.267-4.017-12.366-6.95-15.3-2.433-2.433-4.683-6.384-6.75-11.85z" style="clip-rule:evenodd;fill-rule:evenodd;fill:#6b1a1a"/><path d="m17.05 38.15c2.667 0 5.167 0.233 7.5 0.7l3.5-4.7c3-3.133 6.067-4.7 9.2-4.7s5.8 1.466 8 4.4c1.1 1.433 1.883 2.883 2.35 4.35l1.8-0.7c1.467-0.467 2.9-0.767 4.3-0.9 4.533-0.367 7.967 1.183 10.3 4.65 1.967 2.9 2.017 8.35 0.15 16.35-0.967 4.133-2.317 8.8-4.051 14-1.232 5.801-2 10.034-2.3 12.7-0.833 6.733-0.566 12 0.8 15.8 1.067 3 2.95 6.301 5.65 9.9l-47.45 2.95c1.867-3.8 3.583-7.45 5.15-10.95 1.233-2.733 1.083-7.533-0.45-14.4-1.633-7.066-3.85-12.033-6.65-14.899-3.1-3.134-5.684-8.267-7.75-15.4-2.167-7.433-2.317-12.566-0.45-15.4 1.634-2.468 5.101-3.718 10.401-3.751z" style="clip-rule:evenodd;fill-rule:evenodd;fill:#871e1e"/><path d="m17.05 38.15c2.667 0 5.167 0.233 7.5 0.7l3.5-4.7c3-3.133 6.067-4.7 9.2-4.7s5.8 1.466 8 4.4c1.1 1.433 1.883 2.883 2.35 4.35l1.8-0.7c1.467-0.467 2.9-0.767 4.3-0.9 4.533-0.367 7.967 1.183 10.3 4.65 1.967 2.9 2.017 8.35 0.15 16.35-0.967 4.133-2.317 8.8-4.051 14-1.232 5.801-2 10.034-2.3 12.7-0.833 6.733-0.566 12 0.8 15.8 1.067 3 2.95 6.301 5.65 9.9l-47.45 2.95c1.867-3.8 3.583-7.45 5.15-10.95 1.233-2.733 1.083-7.533-0.45-14.4-1.633-7.066-3.85-12.033-6.65-14.899-3.1-3.134-5.684-8.267-7.75-15.4-2.167-7.433-2.317-12.566-0.45-15.4 1.634-2.468 5.101-3.718 10.401-3.751z" style="clip-rule:evenodd;fill-rule:evenodd;fill:url(#t)"/><g style="clip-rule:evenodd;fill-rule:evenodd"><path d="m16 50.05c0.967-0.6 1.684-0.933 2.15-1-1.066 1.5-1.783 2.434-2.15 2.8-0.3 0.3-0.433 0.8-0.4 1.5 0.066 0.7 0.283 1.133 0.65 1.3 0.5 0.233 1.2 0.95 2.1 2.15-1.2-0.233-2.017-0.466-2.45-0.7-0.3-0.133-0.767-0.067-1.4 0.2l-0.85 0.4 0.8 2.7c-0.534-0.533-0.983-1.066-1.35-1.6-0.233-0.333-0.417-0.733-0.55-1.2l-0.15-0.6c-0.733-0.233-1.4-0.2-2 0.1-0.367 0.2-0.95 0.617-1.75 1.25l-1.1 0.9c0.067-0.267 0.15-0.55 0.25-0.85 0.233-0.633 0.5-1.1 0.8-1.4 0.433-0.434 1.066-1 1.9-1.7 0.3-1.333 0.15-2.183-0.45-2.55-0.366-0.233-1.066-0.867-2.1-1.9l-1.4-1.5 1.4 0.35c1.033 0.3 1.8 0.6 2.3 0.9 0.833 0.433 1.367 1 1.6 1.7h1.35c0.833-0.2 1.767-0.617 2.8-1.25z" style="fill:#6b1a1a"/><path d="m15.65 53.65c0 0.767-0.25 1.434-0.75 2-0.5 0.533-1.1 0.8-1.8 0.8-0.733 0-1.35-0.267-1.85-0.8-0.5-0.566-0.75-1.233-0.75-2s0.25-1.433 0.75-2c0.5-0.533 1.117-0.8 1.85-0.8 0.7 0 1.3 0.267 1.8 0.8 0.5 0.567 0.75 1.233 0.75 2z" style="fill:#541515"/><path d="m14.45 53.65c0 0.533-0.15 0.983-0.45 1.35-0.333 0.367-0.717 0.55-1.15 0.55-0.434 0-0.817-0.183-1.15-0.55-0.3-0.367-0.45-0.817-0.45-1.35s0.15-0.983 0.45-1.35c0.333-0.367 0.716-0.55 1.15-0.55 0.433 0 0.816 0.183 1.15 0.55 0.3 0.367 0.45 0.817 0.45 1.35z" style="fill:#a01f1f"/><path d="m14.45 53.3c0 0.434-0.133 0.8-0.4 1.1-0.233 0.3-0.533 0.45-0.9 0.45s-0.667-0.15-0.9-0.45c-0.267-0.3-0.4-0.667-0.4-1.1s0.133-0.8 0.4-1.1c0.233-0.3 0.533-0.45 0.9-0.45s0.667 0.15 0.9 0.45c0.267 0.3 0.4 0.667 0.4 1.1z" style="fill:#ad2727"/><path d="m14.45 53.05c0 0.367-0.1 0.684-0.3 0.95-0.233 0.267-0.5 0.4-0.8 0.4s-0.55-0.133-0.75-0.4c-0.233-0.267-0.35-0.583-0.35-0.95s0.117-0.667 0.35-0.9c0.2-0.267 0.45-0.4 0.75-0.4s0.566 0.133 0.8 0.4c0.2 0.233 0.3 0.533 0.3 0.9z" style="fill:#b73d3d"/></g><g style="clip-rule:evenodd;fill-rule:evenodd"><path d="m36.6 46.55c0.5-0.4 1.7-0.9 3.6-1.5-1 0.967-1.7 1.6-2.1 1.9-0.233 0.2-0.45 0.466-0.65 0.8l-0.25 0.45h0.4c0.367-0.034 0.8-0.15 1.3-0.35 0.8-0.3 2.034-0.55 3.7-0.75-2 1.333-3.233 2.233-3.7 2.7-0.3 0.3-0.433 0.817-0.4 1.55 0.033 0.667 0.2 1.2 0.5 1.6 0.4 0.5 1.2 1.267 2.4 2.3l-4.65-0.9c-0.267 0-0.683 0.117-1.25 0.35-0.533 0.233-0.95 0.45-1.25 0.65l-2.3 1.25 0.8-1.7c0.2-0.367 0.283-0.75 0.25-1.15l-0.85 0.4-2 1.2 0.45-0.85c0.367-0.6 0.683-1 0.95-1.2 0.367-0.233 0.583-0.716 0.65-1.45 0.066-0.733-0.117-1.2-0.55-1.4-0.4-0.134-1.117-0.284-2.15-0.45l-1.4-0.2 2.55-0.55c1.233-0.067 1.784-0.184 1.65-0.35-0.167-0.267-0.767-0.717-1.8-1.35l-1.5-0.9 1.5 0.3c1.033 0.233 1.667 0.433 1.9 0.6 0.434 0.3 1.083 0.65 1.95 1.05l0.45-0.6z" style="fill:#6b1a1a"/><path d="m37.8 51.55c0 0.767-0.25 1.434-0.75 2-0.533 0.567-1.15 0.85-1.85 0.85-0.733 0-1.35-0.283-1.85-0.85-0.5-0.566-0.75-1.233-0.75-2s0.25-1.433 0.75-2c0.5-0.533 1.117-0.8 1.85-0.8 0.7 0 1.316 0.267 1.85 0.8 0.5 0.567 0.75 1.233 0.75 2z" style="fill:#541515"/><path d="m36.55 51.55c0 0.534-0.15 0.983-0.45 1.35-0.333 0.367-0.717 0.55-1.15 0.55-0.434 0-0.8-0.184-1.1-0.55-0.333-0.367-0.5-0.816-0.5-1.35 0-0.533 0.167-0.983 0.5-1.35 0.3-0.367 0.667-0.55 1.1-0.55s0.816 0.184 1.15 0.55c0.3 0.366 0.45 0.817 0.45 1.35z" style="fill:#a01f1f"/><path d="m36.55 51.2c0 0.433-0.116 0.8-0.35 1.1-0.267 0.3-0.583 0.45-0.95 0.45s-0.667-0.15-0.9-0.45c-0.267-0.3-0.4-0.667-0.4-1.1 0-0.434 0.133-0.8 0.4-1.1 0.233-0.3 0.533-0.45 0.9-0.45s0.684 0.15 0.95 0.45c0.234 0.3 0.35 0.667 0.35 1.1z" style="fill:#b22f2f"/><path d="m36.55 51c0 0.367-0.1 0.667-0.3 0.9-0.233 0.267-0.5 0.4-0.8 0.4s-0.55-0.133-0.75-0.4c-0.233-0.233-0.35-0.533-0.35-0.9s0.117-0.684 0.35-0.95c0.2-0.267 0.45-0.4 0.75-0.4s0.566 0.133 0.8 0.4c0.2 0.266 0.3 0.583 0.3 0.95z" style="fill:#b73d3d"/></g><g style="clip-rule:evenodd;fill-rule:evenodd"><path d="m57.35 47c1.4-1.8 2.317-2.85 2.75-3.15l-0.399 1.1c-0.167 0.633-0.05 0.767 0.35 0.4 0.634-0.6 1.483-0.867 2.55-0.8 0.2 0.233 0 0.7-0.6 1.4-0.533 0.633-0.833 1.433-0.9 2.4-0.1 0.9 0.034 1.4 0.4 1.5 0.667 0.2 1.583 0.8 2.75 1.8-0.866-0.066-1.55-0.066-2.05 0-0.5 0.067-0.684 0.15-0.55 0.25 0.533 0.333 0.85 0.55 0.949 0.65 0.467 0.5 0.867 1.15 1.2 1.95-1.033-0.533-1.883-0.934-2.55-1.2-1.066-0.466-1.767-0.716-2.1-0.75-0.834-0.133-1.634 0.167-2.4 0.9l-3.1 2.7 1.4-2.7c0.167-0.3 0.417-0.65 0.75-1.05 0.167-0.167 0.317-0.316 0.45-0.45-0.866-2-1.7-3.15-2.5-3.45-0.467-0.2-1.083-0.383-1.85-0.55l-1-0.2h2.4c0.9 0 1.55 0.1 1.95 0.3 0.267-0.1 0.217-0.4-0.15-0.9-0.232-0.3-0.933-0.767-2.1-1.4l-1.7-0.85 1.4 0.15c1.066 0.2 1.883 0.45 2.45 0.75z" style="fill:#6b1a1a"/><path d="m60.6 49.95c0 0.8-0.25 1.483-0.75 2.05-0.533 0.533-1.149 0.8-1.85 0.8-0.733 0-1.35-0.267-1.85-0.8-0.5-0.567-0.75-1.25-0.75-2.05 0-0.767 0.25-1.434 0.75-2 0.5-0.534 1.116-0.8 1.85-0.8 0.7 0 1.316 0.267 1.85 0.8 0.5 0.567 0.75 1.233 0.75 2z" style="fill:#541515"/><path d="m59.35 50c0 0.5-0.149 0.95-0.449 1.35-0.334 0.367-0.717 0.55-1.15 0.55s-0.8-0.183-1.1-0.55c-0.334-0.4-0.5-0.85-0.5-1.35 0-0.533 0.166-1 0.5-1.4 0.3-0.367 0.666-0.55 1.1-0.55 0.467 0 0.85 0.184 1.15 0.55 0.299 0.4 0.449 0.867 0.449 1.4z" style="fill:#a01f1f"/><path d="m59.35 49.6c0 0.433-0.116 0.8-0.35 1.1-0.267 0.3-0.583 0.45-0.95 0.45-0.366 0-0.666-0.15-0.899-0.45-0.267-0.3-0.4-0.667-0.4-1.1 0-0.434 0.134-0.8 0.4-1.1 0.233-0.3 0.533-0.45 0.899-0.45 0.367 0 0.684 0.15 0.95 0.45 0.233 0.3 0.35 0.667 0.35 1.1z" style="fill:#ad2727"/><path d="m59.35 49.4c0 0.367-0.1 0.667-0.3 0.9-0.233 0.267-0.5 0.4-0.8 0.4s-0.55-0.134-0.75-0.4c-0.233-0.233-0.35-0.533-0.35-0.9s0.116-0.683 0.35-0.95c0.2-0.267 0.45-0.4 0.75-0.4s0.566 0.133 0.8 0.4c0.2 0.267 0.3 0.583 0.3 0.95z" style="fill:#b73d3d"/></g><g style="clip-rule:evenodd;fill-rule:evenodd"><path d="m44 65.15 0.6-0.45c0.467-0.333 0.917-0.534 1.35-0.6 0.7-0.1 1.4-0.15 2.1-0.15 0.6-0.3 0.7-0.7 0.3-1.2-0.233-0.3-0.883-0.85-1.95-1.65l-1.5-1.05 1.45 0.55c1.066 0.433 1.883 0.8 2.45 1.1 0.9 0.5 1.6 1.2 2.1 2.1l1.95-2.7c0.6-0.7 1.6-1.3 3-1.8-0.6 0.8-1.149 1.65-1.649 2.55-0.367 0.7-0.517 1.55-0.45 2.55 0.1 1.033 0.4 1.733 0.9 2.1 0.5 0.333 1.066 0.883 1.699 1.65 0.634 0.733 0.768 0.983 0.4 0.75-0.434-0.267-1.05-0.517-1.85-0.75-0.834-0.233-0.967-0.183-0.4 0.15 0.8 0.5 1.4 1.35 1.8 2.55-0.7-0.7-1.35-1.15-1.95-1.35-0.933-0.3-2.033-0.35-3.3-0.15-0.366 0.066-1.183 0.566-2.45 1.5l-1.75 1.35c0.967-1.3 1.6-2.4 1.9-3.3 0.2-0.633 0.233-1.383 0.1-2.25-0.2-0.967-0.567-1.517-1.1-1.65-0.5-0.133-1.267-0.15-2.3-0.05z" style="fill:#6b1a1a"/><path d="m53.65 66.5c0 0.767-0.25 1.433-0.75 2-0.5 0.533-1.1 0.8-1.8 0.8-0.733 0-1.35-0.267-1.85-0.8-0.5-0.567-0.75-1.233-0.75-2s0.25-1.434 0.75-2c0.5-0.533 1.117-0.8 1.85-0.8 0.7 0 1.3 0.267 1.8 0.8 0.5 0.566 0.75 1.233 0.75 2z" style="fill:#541515"/><path d="m52.45 66.5c0 0.533-0.15 0.983-0.45 1.35-0.333 0.367-0.717 0.55-1.15 0.55-0.434 0-0.8-0.183-1.1-0.55-0.333-0.367-0.5-0.817-0.5-1.35s0.167-0.983 0.5-1.35c0.3-0.367 0.667-0.55 1.1-0.55s0.816 0.183 1.15 0.55c0.3 0.367 0.45 0.817 0.45 1.35z" style="fill:#a01f1f"/><path d="m52.45 66.15c0 0.434-0.117 0.8-0.35 1.1-0.267 0.3-0.583 0.45-0.95 0.45s-0.667-0.15-0.9-0.45c-0.267-0.3-0.4-0.667-0.4-1.1s0.133-0.8 0.4-1.1c0.233-0.3 0.533-0.45 0.9-0.45s0.684 0.15 0.95 0.45c0.233 0.3 0.35 0.667 0.35 1.1z" style="fill:#ad2727"/><path d="m52.45 65.9c0 0.367-0.1 0.684-0.3 0.95-0.233 0.267-0.5 0.4-0.8 0.4s-0.55-0.133-0.75-0.4c-0.233-0.267-0.35-0.583-0.35-0.95s0.117-0.667 0.35-0.9c0.2-0.267 0.45-0.4 0.75-0.4s0.566 0.133 0.8 0.4c0.2 0.233 0.3 0.533 0.3 0.9z" style="fill:#b73d3d"/></g><g style="clip-rule:evenodd;fill-rule:evenodd"><path d="m20.35 62.85c1.433 0.367 2.433 0.767 3 1.2 0.9 0.7 1.4 1 1.5 0.9l1.65-0.75c0.6-0.2 1.45-0.95 2.55-2.25l-0.3 4.5c-0.066 0.5 0.067 1 0.4 1.5 0.3 0.433 0.667 0.783 1.1 1.05 0.5 0.3 0.85 1.05 1.05 2.25-0.533-0.134-1.017-0.25-1.45-0.35-0.867-0.2-1.083-0.183-0.65 0.05 0.7 0.399 1.55 1.6 2.55 3.6l-3.15-2.55c-1.1-0.866-2.1-0.917-3-0.15-0.434 0.367-1.117 0.801-2.05 1.301l-1.25 0.649c0.9-1.8 1.1-3.35 0.6-4.65-0.3-0.8-1.367-1.367-3.2-1.7l-2.65-0.25 0.65-0.4c0.533-0.267 1.117-0.433 1.75-0.5 1-0.1 1.9-0.1 2.7 0l0.5-0.35c0.233-0.3 0.167-0.634-0.2-1-0.367-0.367-1.15-0.9-2.35-1.6l-1.7-0.95z" style="fill:#6b1a1a"/><path d="m28.2 68.5c0 0.767-0.25 1.433-0.75 2-0.5 0.566-1.117 0.85-1.85 0.85-0.7 0-1.3-0.283-1.8-0.85s-0.75-1.233-0.75-2 0.25-1.434 0.75-2c0.5-0.533 1.1-0.8 1.8-0.8 0.733 0 1.35 0.267 1.85 0.8 0.5 0.566 0.75 1.233 0.75 2z" style="fill:#541515"/><path d="m27 68.5c0 0.533-0.15 0.983-0.45 1.35-0.333 0.367-0.716 0.55-1.15 0.55-0.433 0-0.816-0.183-1.15-0.55-0.3-0.367-0.45-0.817-0.45-1.35s0.15-0.983 0.45-1.35c0.333-0.367 0.717-0.55 1.15-0.55 0.434 0 0.817 0.183 1.15 0.55 0.3 0.367 0.45 0.817 0.45 1.35z" style="fill:#a01f1f"/><path d="m27 68.15c0 0.434-0.133 0.8-0.4 1.1-0.233 0.3-0.533 0.45-0.9 0.45s-0.667-0.15-0.9-0.45c-0.267-0.3-0.4-0.667-0.4-1.1s0.133-0.8 0.4-1.1c0.233-0.3 0.534-0.45 0.9-0.45s0.667 0.15 0.9 0.45c0.267 0.3 0.4 0.667 0.4 1.1z" style="fill:#ad2727"/><path d="m27 67.95c0 0.366-0.1 0.667-0.3 0.9-0.233 0.267-0.5 0.4-0.8 0.4s-0.55-0.133-0.75-0.4c-0.233-0.233-0.35-0.534-0.35-0.9 0-0.367 0.117-0.684 0.35-0.95 0.2-0.267 0.45-0.4 0.75-0.4s0.567 0.133 0.8 0.4c0.2 0.267 0.3 0.583 0.3 0.95z" style="fill:#b73d3d"/></g><g style="clip-rule:evenodd;fill-rule:evenodd"><path d="m41.65 79.1c0.067 0 0.383 0.134 0.95 0.4 0.433 0.233 0.933 0.167 1.5-0.2 0.967-0.6 1.683-0.934 2.15-1-1.066 1.5-1.783 2.434-2.15 2.8-0.3 0.301-0.434 0.801-0.4 1.5 0.033 0.733 0.233 1.184 0.6 1.351 0.534 0.2 1.25 0.899 2.15 2.1-1.2-0.2-2.017-0.416-2.45-0.649-0.3-0.134-0.767-0.084-1.4 0.149l-0.85 0.4 0.75 2.7-1.35-1.551c-0.233-0.333-0.417-0.733-0.55-1.199l-0.1-0.601c-0.767-0.233-1.45-0.2-2.05 0.101-0.367 0.199-0.95 0.616-1.75 1.25l-1.05 0.899c0.067-0.267 0.15-0.566 0.25-0.899 0.233-0.634 0.483-1.084 0.75-1.351 0.467-0.467 1.117-1.033 1.95-1.7 0.3-1.366 0.15-2.233-0.45-2.6-0.367-0.233-1.066-0.866-2.1-1.9l-1.4-1.449 1.4 0.35c1 0.3 1.767 0.583 2.3 0.85 0.833 0.467 1.033-0.05 0.6-1.55l1.1 0.95c0.767 0.599 1.3 0.883 1.6 0.849z" style="fill:#6b1a1a"/><path d="m43.75 82.9c0 0.767-0.25 1.433-0.75 2-0.5 0.566-1.117 0.85-1.85 0.85-0.7 0-1.3-0.283-1.8-0.85s-0.75-1.233-0.75-2 0.25-1.434 0.75-2c0.5-0.534 1.1-0.801 1.8-0.801 0.733 0 1.35 0.267 1.85 0.801 0.5 0.567 0.75 1.234 0.75 2z" style="fill:#541515"/><path d="m42.55 82.9c0 0.533-0.15 0.983-0.45 1.35-0.333 0.366-0.717 0.55-1.15 0.55-0.434 0-0.817-0.184-1.15-0.55-0.3-0.366-0.45-0.816-0.45-1.35s0.15-0.983 0.45-1.351c0.333-0.366 0.717-0.55 1.15-0.55s0.816 0.184 1.15 0.55c0.3 0.368 0.45 0.817 0.45 1.351z" style="fill:#a01f1f"/><path d="m42.55 82.55c0 0.434-0.133 0.8-0.4 1.101-0.233 0.3-0.533 0.449-0.9 0.449s-0.667-0.149-0.9-0.449c-0.267-0.301-0.4-0.667-0.4-1.101s0.133-0.8 0.4-1.1c0.233-0.3 0.533-0.45 0.9-0.45s0.667 0.15 0.9 0.45c0.267 0.3 0.4 0.666 0.4 1.1z" style="fill:#ad2727"/><path d="m42.55 82.35c0 0.367-0.1 0.667-0.3 0.9-0.233 0.267-0.5 0.4-0.8 0.4-0.333 0-0.6-0.134-0.8-0.4-0.233-0.233-0.35-0.533-0.35-0.9 0-0.366 0.117-0.683 0.35-0.949 0.2-0.267 0.467-0.4 0.8-0.4 0.3 0 0.566 0.134 0.8 0.4 0.2 0.266 0.3 0.582 0.3 0.949z" style="fill:#b73d3d"/></g><g style="clip-rule:evenodd;fill-rule:evenodd"><path d="m27.7 95.45 2.2 1.2c1.4-1.801 2.317-2.851 2.75-3.15l-0.4 1.1c-0.167 0.634-0.05 0.767 0.35 0.4 0.633-0.6 1.983-1.1 4.05-1.5-0.8 0.7-1.5 1.4-2.1 2.1-0.533 0.634-0.833 1.434-0.9 2.4-0.1 0.9 0.034 1.4 0.4 1.5 0.634 0.2 1.55 0.8 2.75 1.8-0.866-0.066-1.55-0.066-2.05 0s-0.683 0.15-0.55 0.25c0.533 0.334 0.85 0.55 0.95 0.65 0.467 0.5 0.867 1.149 1.2 1.95l-2.55-1.2c-1.066-0.467-1.767-0.717-2.1-0.75-0.833-0.134-1.633 0.166-2.4 0.899l-3.1 2.7 1.35-2.7c0.3-0.5 0.717-1 1.25-1.5-0.866-2-1.7-3.149-2.5-3.449-0.466-0.2-1.083-0.384-1.85-0.551l-1-0.199h2.4c0.9 0 1.55 0.1 1.95 0.3 0.267-0.101 0.217-0.4-0.15-0.9-0.233-0.3-0.933-0.767-2.1-1.399l-1.7-0.851 1.4 0.15c1.067 0.199 1.883 0.449 2.45 0.749z" style="fill:#6b1a1a"/><path d="m33.1 99.65c0 0.767-0.25 1.433-0.75 2-0.5 0.533-1.1 0.8-1.8 0.8-0.733 0-1.35-0.267-1.85-0.8-0.5-0.567-0.75-1.233-0.75-2 0-0.801 0.25-1.467 0.75-2 0.5-0.567 1.117-0.851 1.85-0.851 0.7 0 1.3 0.283 1.8 0.851 0.5 0.534 0.75 1.2 0.75 2z" style="fill:#541515"/><path d="m31.9 99.65c0 0.533-0.15 0.983-0.45 1.35-0.333 0.366-0.717 0.55-1.15 0.55s-0.8-0.184-1.1-0.55c-0.333-0.366-0.5-0.816-0.5-1.35s0.167-0.983 0.5-1.351c0.3-0.366 0.667-0.55 1.1-0.55 0.434 0 0.817 0.184 1.15 0.55 0.3 0.368 0.45 0.817 0.45 1.351z" style="fill:#a01f1f"/><path d="m31.9 99.25c0 0.434-0.117 0.8-0.35 1.1-0.267 0.301-0.583 0.45-0.95 0.45s-0.667-0.149-0.9-0.45c-0.267-0.3-0.4-0.666-0.4-1.1s0.134-0.783 0.4-1.05c0.233-0.3 0.533-0.45 0.9-0.45s0.683 0.15 0.95 0.45c0.233 0.267 0.35 0.616 0.35 1.05z" style="fill:#ad2727"/><path d="m31.9 99.05c0 0.367-0.1 0.667-0.3 0.9-0.233 0.267-0.5 0.399-0.8 0.399s-0.55-0.133-0.75-0.399c-0.233-0.233-0.35-0.533-0.35-0.9 0-0.366 0.117-0.684 0.35-0.95 0.2-0.233 0.45-0.35 0.75-0.35s0.567 0.116 0.8 0.35c0.2 0.265 0.3 0.583 0.3 0.949z" style="fill:#b73d3d"/></g><g style="clip-rule:evenodd;fill-rule:evenodd"><path d="m55.8 93.75c0.7-0.3 1.167-0.134 1.4 0.5l-1.4 1.55c-0.3 0.367-0.433 0.917-0.399 1.65s0.183 1.3 0.449 1.7c0.367 0.533 1.067 1.35 2.101 2.449l-4.1-0.949c-0.2 0-0.567 0.133-1.1 0.399-0.467 0.233-0.833 0.45-1.1 0.65l-2.05 1.35 0.75-1.85c0.167-0.367 0.233-0.767 0.2-1.2l-0.75 0.4-1.8 1.3 0.4-0.9c0.333-0.633 0.617-1.05 0.85-1.25 0.333-0.267 0.533-0.783 0.6-1.55 0.066-0.767-0.1-1.25-0.5-1.45-0.367-0.166-1-0.333-1.9-0.5l-1.251-0.25 2.25-0.55c1.1-0.066 1.6-0.2 1.5-0.4-0.167-0.267-0.7-0.733-1.6-1.399l-1.35-0.951 1.3 0.35c0.934 0.233 1.5 0.434 1.7 0.601 0.4 0.3 0.983 0.666 1.75 1.1l0.4-0.649c0.2-0.267 0.717-0.767 1.55-1.5 0.467-0.434 1.533-0.967 3.2-1.601-0.867 1-1.483 1.667-1.851 2-0.233 0.2-0.433 0.483-0.6 0.851-0.101 0.199-0.167 0.366-0.2 0.5h0.35c0.335-0.069 0.734-0.202 1.201-0.402z" style="fill:#6b1a1a"/><path d="m55 98c0 0.767-0.25 1.434-0.75 2-0.5 0.533-1.117 0.8-1.85 0.8s-1.35-0.267-1.85-0.8c-0.5-0.566-0.75-1.233-0.75-2s0.25-1.434 0.75-2c0.5-0.533 1.117-0.8 1.85-0.8s1.35 0.267 1.85 0.8c0.5 0.566 0.75 1.233 0.75 2z" style="fill:#541515"/><path d="m53.75 98c0 0.533-0.15 0.983-0.45 1.35-0.333 0.367-0.716 0.551-1.15 0.551-0.433 0-0.8-0.184-1.1-0.551-0.3-0.366-0.45-0.816-0.45-1.35s0.15-0.983 0.45-1.35 0.667-0.551 1.1-0.551c0.434 0 0.817 0.184 1.15 0.551 0.3 0.367 0.45 0.817 0.45 1.35z" style="fill:#a01f1f"/><path d="m53.75 97.65c0 0.433-0.117 0.8-0.35 1.1-0.267 0.3-0.566 0.45-0.9 0.45-0.367 0-0.683-0.15-0.95-0.45-0.233-0.3-0.35-0.667-0.35-1.1 0-0.434 0.117-0.801 0.35-1.101 0.267-0.3 0.583-0.45 0.95-0.45 0.333 0 0.633 0.15 0.9 0.45 0.233 0.301 0.35 0.668 0.35 1.101z" style="fill:#b22f2f"/><path d="m53.75 97.4c0 0.366-0.1 0.683-0.3 0.949-0.233 0.267-0.5 0.4-0.8 0.4s-0.55-0.134-0.75-0.4c-0.233-0.267-0.35-0.583-0.35-0.949 0-0.367 0.117-0.667 0.35-0.9 0.2-0.267 0.45-0.4 0.75-0.4s0.567 0.134 0.8 0.4c0.2 0.233 0.3 0.533 0.3 0.9z" style="fill:#b73d3d"/></g><path d="m93 121.4c-4.967-2.301-10.066-4.601-15.3-6.9-3.7-1.634-7.134-2.866-10.3-3.7l-3.65-0.8c-0.233-1.134-0.383-2.4-0.45-3.8-0.2-2.8 0.033-4.834 0.7-6.101 1-1.8 1.917-3.017 2.75-3.649 1.233-0.9 3-1.283 5.3-1.15 3.601 0.2 10.317 2.2 20.15 6 4.8 1.867 7.95 3.783 9.45 5.75 0.733 0.967 0.983 1.75 0.75 2.351-0.634-0.134-1.4-0.15-2.301-0.051-1.833 0.2-3.482 0.917-4.949 2.15-1.467 1.267-2.267 3.3-2.4 6.1-0.067 1.4 0.016 2.67 0.249 3.8z" style="clip-rule:evenodd;fill-rule:evenodd;fill:#a01f1f"/><path d="m93 121.4c-4.967-2.301-10.066-4.601-15.3-6.9-3.7-1.634-7.134-2.866-10.3-3.7l-3.65-0.8c-0.233-1.134-0.383-2.4-0.45-3.8-0.2-2.8 0.033-4.834 0.7-6.101 1-1.8 1.917-3.017 2.75-3.649 1.233-0.9 3-1.283 5.3-1.15 3.601 0.2 10.317 2.2 20.15 6 4.8 1.867 7.95 3.783 9.45 5.75 0.733 0.967 0.983 1.75 0.75 2.351-0.634-0.134-1.4-0.15-2.301-0.051-1.833 0.2-3.482 0.917-4.949 2.15-1.467 1.267-2.267 3.3-2.4 6.1-0.067 1.4 0.016 2.67 0.249 3.8z" style="clip-rule:evenodd;fill-rule:evenodd;fill:url(#u)"/><path d="m-0.65 70.1c-2.567-2.467-4.783-6.567-6.65-12.3-1.9-5.733-2.717-10.833-2.45-15.3 0.233 0.7 1.033 1.2 2.4 1.5 1.3 0.3 2.45 0.3 3.45 0l1.4-0.4c-0.6 4.133 0.017 9.216 1.85 15.25 1.833 5.933 4.033 10.167 6.6 12.7 3.233 3.167 6.1 8.384 8.6 15.65 2.5 7.3 3.1 12.333 1.8 15.1l-4.45 9.15c-0.433 0.066-1.816-0.066-4.15-0.4-2.367-0.333-3.75-0.483-4.15-0.45 0.3-0.633 1.35-1.933 3.15-3.899s3.033-3.667 3.7-5.101c1.367-2.866 0.716-8.017-1.95-15.449-2.667-7.368-5.717-12.717-9.15-16.051z" style="clip-rule:evenodd;fill-rule:evenodd;fill:#2b2b2b"/><path d="m-4.7 47.25c-0.3 4.033 0.667 9 2.9 14.9 2.167 5.6 4.5 9.65 7 12.15 2.7 2.667 5.267 7.101 7.7 13.3 2.434 6.167 3.567 11.084 3.4 14.75-0.566 1.233-2.033 4.267-4.4 9.101-0.167 0-1.983-0.2-5.45-0.601 1.3-1.767 2.05-2.8 2.25-3.1 0.867-1.267 1.5-2.467 1.9-3.6 0.4-1.067 0.517-2.534 0.35-4.4 0.5-3.634-0.534-8.733-3.1-15.3-2.567-6.601-5.4-11.384-8.5-14.35-2.133-2.067-4.083-5.417-5.85-10.05-1.767-4.566-2.833-9.033-3.2-13.4 0.4 0.3 0.884 0.717 1.45 1.25 0.5 0.367 1.017 0.45 1.55 0.25z" style="clip-rule:evenodd;fill-rule:evenodd;fill:#1e1e1e"/><path d="m13 36.85c-0.066 0.233-0.583 0.5-1.55 0.8-1.333 0.367-2.4 0.684-3.2 0.95-1.233 0.433-2.133 1.216-2.7 2.35-0.433 0.933-1.033 1.35-1.8 1.25-0.967-0.134-1.333-0.717-1.1-1.75 1.7-2.267 5.15-3.467 10.35-3.6z" style="clip-rule:evenodd;fill-rule:evenodd;fill:#ad2727"/><path d="m28.35 31.7c-1.267 0.366-1.8 0.05-1.6-0.95 2.567-2.167 5.167-3.117 7.8-2.85 1.3 0.1 2.583 0.317 3.85 0.65-1.233 0.067-2.183 0.117-2.85 0.15-1.466 0.1-2.783 0.533-3.95 1.3-1.5 0.933-2.583 1.5-3.25 1.7z" style="clip-rule:evenodd;fill-rule:evenodd;fill:#ad2727"/><path d="m29.85 32.9-5.3 5.95-3.35-1.3 0.7-1.1c0.567-0.9 1.184-1.767 1.85-2.6 0.2 0.367 0.617 0.55 1.25 0.55 1.833 0 3.45-0.5 4.85-1.5z" style="clip-rule:evenodd;fill-rule:evenodd;fill:#6b1a1a"/><path d="m38.2 31.4c-3.467-0.267-6.717 1.05-9.75 3.95l-3.45 4.45c-1.433-0.333-3.133-0.55-5.1-0.65-3.867-0.133-7.066 0.483-9.6 1.85-1.4 0.8-2.616 1.983-3.65 3.55l-1.1 2.15-0.1 0.75c0-2.467 0.4-4.317 1.2-5.55 1.633-2.467 5.1-3.717 10.4-3.75 2.667 0 5.167 0.233 7.5 0.7l3.5-4.7c3-3.133 6.067-4.7 9.2-4.7s5.8 1.466 8 4.4c1.1 1.433 1.883 2.883 2.35 4.35l1.8-0.7c1.467-0.467 2.9-0.767 4.3-0.9 4.533-0.367 7.967 1.183 10.3 4.65 0.9 1.333 1.4 3.167 1.5 5.5-0.8-1.434-1.55-2.667-2.25-3.7-1.333-2-2.667-3.383-4-4.15-2.4-1.367-5.133-1.733-8.2-1.1l-3.85 1.4c-0.2-1.2-0.717-2.417-1.55-3.65-1.7-2.5-4.183-3.883-7.45-4.15z" style="clip-rule:evenodd;fill-rule:evenodd;fill:#b73d3d"/><path d="m23.6 29.4-4.6 5.3c-2.4-0.2-5.7-0.6-9.9-1.2-2.567-0.367-5.283 0.383-8.15 2.25-2.867 2.2-4.85 3.55-5.95 4.05-1.8 0.833-3.117 0.267-3.95-1.7 0.167-0.534 0.434-1.067 0.8-1.6 3.133-4.367 8.367-6.184 15.7-5.45 3.667 0.4 7.017 1.217 10.05 2.45 0.1-0.434 0.3-0.983 0.6-1.65 0.566-1.333 1.283-2.583 2.15-3.75 2.767-3.633 6.517-5.633 11.25-6 3.8-0.267 7.45 1.15 10.95 4.25 1.733 1.566 3.083 3.15 4.05 4.75l1.2-0.5c1-0.367 2.083-0.583 3.25-0.65 3.733-0.167 7.533 1.15 11.4 3.95 0.733 0.5 1.366 1.184 1.899 2.05-2.833-1.434-5.133-2.35-6.899-2.75-1.733-0.367-3.817-0.333-6.25 0.1l-3.1 0.8-0.9-1.8c-0.9-1.2-2.117-2.417-3.65-3.65-3.1-2.5-6.283-3.883-9.55-4.15-3.233-0.233-6.7 1.4-10.4 4.9z" style="clip-rule:evenodd;fill-rule:evenodd;fill:#444"/><path d="m12.45 34.6c-4.667 0.133-7.75 0.667-9.25 1.6s-2.9 2.45-4.2 4.55l-1.5 2.85c0-1.034 0.233-2.184 0.7-3.45 0.867-2.5 2.383-4.267 4.55-5.3 2.167-1.034 5.533-1.367 10.1-1 2.267 0.2 4.316 0.483 6.15 0.85-2.033-0.134-4.217-0.167-6.55-0.1z" style="clip-rule:evenodd;fill-rule:evenodd;fill:#5b5b5b"/><path d="m21.85 31.5 3.2-3.5c2.767-2.333 5.75-3.5 8.95-3.5s6.517 1.6 9.95 4.8c1.7 1.6 3.083 3.2 4.15 4.8-1.4-1.534-3.067-3.017-5-4.45-3.833-2.9-7.017-4.167-9.55-3.8s-5.233 1.417-8.1 3.15z" style="clip-rule:evenodd;fill-rule:evenodd;fill:#5b5b5b"/><path d="m51.55 33.3 3.351-0.1c2.533 0 4.55 0.183 6.05 0.55 0.934 0.233 1.633 0.533 2.1 0.9 1.134 0.833 1.917 2.067 2.351 3.7 0.233 0.8 0.35 1.517 0.35 2.15-0.2-0.733-0.517-1.517-0.95-2.35-0.899-1.667-2-2.683-3.3-3.05-1.333-0.367-3.383-0.784-6.15-1.25z" style="clip-rule:evenodd;fill-rule:evenodd;fill:#5b5b5b"/><path d="m100 105.45 1 0.85 1.4 3.101c-0.634-0.134-1.4-0.15-2.301-0.051-1.833 0.2-3.482 0.917-4.949 2.15-1.801 1.566-2.584 4.184-2.351 7.85l-0.3 0.25-3.9-2.1c0.2-1.6 0.551-3.267 1.051-5 1-3.434 2.267-5.467 3.8-6.1 2.032-0.83 4.216-1.15 6.549-0.95z" style="clip-rule:evenodd;fill-rule:evenodd;fill:#871e1e"/><path d="m96 123.95c0.934 2.8 0.467 6-1.4 9.6-0.933 1.767-1.966 3.267-3.1 4.5l-41.85 2-1.3-1.8c0.5-1.767 1.333-3.083 2.5-3.95 2.2-1.633 3.383-4 3.55-7.1 0.166-3.033-0.717-5.767-2.65-8.2v-0.8l-0.05-0.1v-0.3l-0.05-0.2-0.05-0.1-0.05-0.25-0.05-0.15-0.05-0.25-0.2-0.6-0.15-0.3-0.1-0.15-0.15-0.35-0.7-1.15-0.05-0.149c-0.934-1.4-2.317-2.867-4.15-4.4l11.85-0.95 18.25 5.05c12.367 3.93 19.016 7.3 19.95 10.1z" style="clip-rule:evenodd;fill-rule:evenodd;fill:#871e1e"/><path d="m96.4 126.15c0.199 2.533-0.567 5.267-2.301 8.199l-2.6 3.7-41.85 2-1.3-1.8c0.5-1.767 1.333-3.083 2.5-3.95 1.333-0.934 2.316-2.267 2.95-4 3.3 1.101 6.667 2 10.101 2.7 5.533 1.134 10.233 1.45 14.1 0.95 4.467-0.566 8.8-2.267 13-5.101 2.134-1.433 3.8-2.8 5-4.1l0.4 1.4z" style="clip-rule:evenodd;fill-rule:evenodd;fill:#6b1a1a"/><path d="m83.35 142.5c-9.5 1.467-19.816 2.134-30.95 2-4.466-0.033-7.267-0.6-8.4-1.7-0.367-0.333-0.533-0.7-0.5-1.1l0.15-0.5 7.4-1.8c6.167-1.2 12.283-1.801 18.351-1.801h22.199l3.4 0.45c2.1 0.4 2.667 0.851 1.7 1.351-1.867 1-6.316 2.03-13.35 3.1z" style="clip-rule:evenodd;fill-rule:evenodd;fill:#161616"/><path d="m96 124.75c-8.7-0.434-15.717-0.517-21.05-0.25-3.333 0.167-9.283 1.1-17.851 2.8l-11.85 2.45 0.6-2.6 9.2-1.351c6.867-1 12.233-1.7 16.101-2.1 4.133-0.434 9.517-0.517 16.149-0.25 3.3 0.133 6.2 0.3 8.7 0.5v0.8z" style="clip-rule:evenodd;fill-rule:evenodd;fill:#b73d3d"/><path d="m4.95 112.4 8.05 0.3 3.35 19.5c-1.767 0.066-3.684-0.101-5.75-0.5-4.167-0.8-7.05-2.334-8.65-4.601-1.266-1.73-1.15-4.7 0.35-8.9l2.65-5.8z" style="clip-rule:evenodd;fill-rule:evenodd;fill:#2b2b2b"/><path d="m24.1 137.6c-4.767-2.066-8.25-3.666-10.45-4.8-3.833-1.967-6.25-3.967-7.25-6-1-2-0.783-4.8 0.65-8.399l2.4-4.801 36.3 11.4-1.8 22.8c-8.2-4.4-14.817-7.8-19.85-10.2z" style="clip-rule:evenodd;fill-rule:evenodd;fill:#070707"/><path d="m50.85 134.3c-1.2 0.867-2.033 2.184-2.5 3.95-0.5 1.8-0.367 3.283 0.4 4.45 0.633 1 6.95 1.217 18.95 0.649 6.033-0.267 11.983-0.649 17.85-1.149l-9.8 10.399c-1.4 0.367-3.033 0.467-4.9 0.301-3.699-0.301-6.666-1.7-8.899-4.2-1.066-1.167-3.05-1.434-5.95-0.8-3.133 0.933-5.15 1.5-6.05 1.699-2.2 0.5-4.5 0.15-6.9-1.05-3.2-1.6-4.6-4.35-4.2-8.25 0.1-1.033 0.517-2.2 1.25-3.5s1.117-2.233 1.15-2.8c0.033-0.833-0.417-1.434-1.35-1.8l-1.4-0.3c-6.833-2.2-13.617-4.867-20.35-8-13.434-6.3-19.834-11.83-19.201-16.6 0.633-4.833 2.267-8.083 4.9-9.75 1.333-0.833 2.6-1.184 3.8-1.05l20.5 9.4c14.034 6.666 21.9 11.033 23.6 13.1 1.934 2.434 2.816 5.167 2.65 8.2-0.167 3.1-1.35 5.47-3.55 7.1z" style="clip-rule:evenodd;fill-rule:evenodd;fill:#353535"/><path d="m45.95 114.45c3.267 2 5.2 3.517 5.8 4.55l0.45 1c-4.133-1.8-7.3-1.934-9.5-0.4-2.167 1.567-3.567 3.2-4.2 4.9-0.667 1.833-0.35 3.4 0.95 4.7 1.767 1.8 3.55 3.2 5.35 4.2l-1.55 4.399c-0.833 3.2-0.683 5.483 0.45 6.851 1.167 1.399 2.483 2.149 3.95 2.25 0.833 0.066 2.133-0.084 3.9-0.45 0.9-0.101 2.884-0.4 5.95-0.9 3-0.2 5.566 0.25 7.7 1.351 3 1.533 4.583 2.333 4.75 2.399 1.467 0.667 2.883 1.066 4.25 1.2 0.267 0.033 1.816-0.017 4.649-0.15 2.867-0.133 4.417-0.233 4.65-0.3l-7.75 2.55c-1.4 0.367-3.033 0.467-4.9 0.301-3.699-0.301-6.666-1.7-8.899-4.2-1.066-1.167-3.05-1.434-5.95-0.8-3.133 0.933-5.15 1.5-6.05 1.699-2.2 0.5-4.5 0.15-6.9-1.05-3.2-1.6-4.6-4.35-4.2-8.25 0.1-1.033 0.467-2 1.1-2.899 0.667-0.9 1.017-1.634 1.05-2.2 0.067-0.834-0.333-1.634-1.2-2.4l-1.3-0.899c-6.833-2.2-13.617-4.867-20.35-8-13.433-6.3-19.833-11.83-19.2-16.6 0.066-0.666 0.233-1.566 0.5-2.7h0.05l1.15-3.3 0.1-0.2c0.1 1.434 0.817 3.017 2.15 4.75 2.467 3.167 6.534 5.834 12.2 8 4.733 1.801 10.483 2.5 17.25 2.101 3.667-0.2 8.2-0.7 13.6-1.5z" style="clip-rule:evenodd;fill-rule:evenodd;fill:#2b2b2b"/><path d="m51.75 119c-0.033-0.3-0.367-0.6-1-0.9-1.2-0.6-3.183-0.899-5.95-0.899-2.733 0-5.05 1.35-6.95 4.05l-2.05 4.05c-5.033-2.3-10.167-4.684-15.4-7.149-10.433-4.967-16.083-7.884-16.95-8.75-1.1-1.101-1.117-2.917-0.05-5.45 1.1-2.601 2.8-4.483 5.1-5.65 2.3-1.166 6.05-1.283 11.25-0.35 4.934 0.899 9.684 2.416 14.25 4.55 8 3.767 13.367 7.65 16.1 11.65 1.334 2 1.883 3.62 1.65 4.85z" style="clip-rule:evenodd;fill-rule:evenodd;fill:#a01f1f"/><path d="m51.75 119c-0.033-0.3-0.367-0.6-1-0.9-1.2-0.6-3.183-0.899-5.95-0.899-2.733 0-5.05 1.35-6.95 4.05l-2.05 4.05c-5.033-2.3-10.167-4.684-15.4-7.149-10.433-4.967-16.083-7.884-16.95-8.75-1.1-1.101-1.117-2.917-0.05-5.45 1.1-2.601 2.8-4.483 5.1-5.65 2.3-1.166 6.05-1.283 11.25-0.35 4.934 0.899 9.684 2.416 14.25 4.55 8 3.767 13.367 7.65 16.1 11.65 1.334 2 1.883 3.62 1.65 4.85z" style="clip-rule:evenodd;fill-rule:evenodd;fill:url(#v)"/><path d="m49.65 113.55c1.034 1.4 1.7 2.733 2 4 0.133 0.634 0.167 1.117 0.1 1.45-0.033-0.3-0.367-0.6-1-0.9-1.2-0.6-3.183-0.899-5.95-0.899-2.733 0-5.05 1.35-6.95 4.05l-2.05 4.05c-5.033-2.3-10.167-4.684-15.4-7.149-10.433-4.967-16.083-7.884-16.95-8.75-0.5-0.5-0.75-1.2-0.75-2.101-0.034-0.899 0.15-1.866 0.55-2.899 0.4 0.267 2.833 1.8 7.3 4.6 4.7 2.833 8.117 4.667 10.25 5.5 3.6 1.4 7.7 2.6 12.3 3.6l3.55-3c2.7-2 4.917-3 6.65-3 1.833 0 3.95 0.48 6.35 1.45z" style="clip-rule:evenodd;fill-rule:evenodd;fill:#871e1e"/><path d="m96 123.65-0.2 0.949c-6.767-0.866-16.25-1-28.45-0.399-4.232 0.2-8.533 0.733-12.899 1.6-0.167-2.633-1.067-5-2.7-7.1v-0.8l-0.051-0.1v-0.3l-0.05-0.2-0.05-0.1-0.05-0.25-0.05-0.15-0.05-0.25-0.2-0.6-0.15-0.3-0.1-0.15-0.15-0.35-0.7-1.15-0.05-0.15c-0.867-1.267-1.983-2.5-3.35-3.699l17-1.65 16.55 5.55c10.933 4.17 16.167 7.37 15.7 9.6z" style="clip-rule:evenodd;fill-rule:evenodd;fill:#a01f1f"/><path d="m95.7 123.35-0.2 0.95c-6.767-0.866-16.25-1-28.45-0.399-4.233 0.199-8.533 0.733-12.899 1.6-0.167-2.634-1.067-5-2.7-7.1v-0.8l-0.05-0.1v-0.3l-0.05-0.2-0.05-0.1-0.05-0.25-0.05-0.15-0.05-0.25-0.2-0.6-0.15-0.301-0.1-0.149-0.45-0.9-0.4-0.6-0.05-0.15c-0.866-1.267-1.983-2.5-3.35-3.7l17-1.649 16.549 5.55c10.934 4.17 16.167 7.37 15.7 9.6z" style="clip-rule:evenodd;fill-rule:evenodd;fill:url(#w)"/><path d="m20.8 114.5c3.6 1.4 7.7 2.6 12.3 3.6l2 6.9c-9.7-4.533-15.317-7.167-16.85-7.9-9.066-4.333-14-6.899-14.8-7.699-0.5-0.5-0.75-1.2-0.75-2.101-0.034-0.899 0.15-1.866 0.55-2.899 0.4 0.267 2.833 1.8 7.3 4.6 4.7 2.83 8.117 4.67 10.25 5.5z" style="clip-rule:evenodd;fill-rule:evenodd;fill:#6b1a1a"/><path d="m52 126.15c0 1.466-0.483 2.733-1.45 3.8-1 1.033-2.2 1.55-3.6 1.55-1.434 0-2.65-0.517-3.65-1.55-1-1.066-1.5-2.334-1.5-3.8 0-1.467 0.5-2.733 1.5-3.801 1-1.033 2.217-1.55 3.65-1.55 1.4 0 2.6 0.517 3.6 1.55 0.967 1.07 1.45 2.33 1.45 3.8z" style="clip-rule:evenodd;fill-rule:evenodd;fill:#1e1e1e"/><path d="m50.7 126.85c0 1.267-0.434 2.367-1.3 3.301-0.867 0.899-1.917 1.35-3.15 1.35s-2.283-0.45-3.15-1.35c-0.867-0.934-1.3-2.034-1.3-3.301 0-1.3 0.434-2.399 1.3-3.3 0.867-0.899 1.917-1.35 3.15-1.35s2.283 0.45 3.15 1.35 1.3 2 1.3 3.3z" style="clip-rule:evenodd;fill-rule:evenodd;fill:#111"/><path d="m9.1 122.6 12 6.301c2.8 1.399 8.017 3.1 15.65 5.1-0.8 0.634-2 1.083-3.6 1.35-3.267 0.6-6.983 0.05-11.15-1.65-3.967-1.634-7.316-3.967-10.05-7l-2.85-4.1z" style="clip-rule:evenodd;fill-rule:evenodd;fill:#1e1e1e"/><path d="m38.5 131.9c-7.333-2.4-14.3-5.167-20.9-8.301-13.067-6.17-19.283-11.6-18.65-16.3 0-0.051 0.042-0.301 0.125-0.75 1.836 1.01 5.928 3.06 12.275 6.15 4.333 2.133 12.233 6.233 23.7 12.3l0.7 2.65c0.7 1.97 1.617 3.38 2.75 4.25z" style="clip-rule:evenodd;fill-rule:evenodd;fill:#1e1e1e"/><path d="m106.3 118.35c0 1.467-0.483 2.733-1.45 3.801-1 1.033-2.183 1.55-3.55 1.55-1.399 0-2.583-0.517-3.55-1.55-1-1.067-1.5-2.334-1.5-3.801 0-1.466 0.5-2.733 1.5-3.8 0.967-1.033 2.15-1.55 3.55-1.55 1.367 0 2.55 0.517 3.55 1.55 0.97 1.07 1.45 2.33 1.45 3.8z" style="clip-rule:evenodd;fill-rule:evenodd;fill:#1e1e1e"/><path d="m105.2 118.95c0 1.3-0.434 2.416-1.3 3.35-0.9 0.934-1.967 1.4-3.2 1.4s-2.283-0.467-3.15-1.4c-0.866-0.934-1.3-2.05-1.3-3.35s0.434-2.417 1.3-3.351c0.867-0.933 1.917-1.399 3.15-1.399s2.3 0.467 3.2 1.399c0.87 0.93 1.3 2.05 1.3 3.35z" style="clip-rule:evenodd;fill-rule:evenodd;fill:#111"/><path d="m50.25 119.25c-1.667-0.4-3.383-0.283-5.15 0.35-1.733 0.634-3.45 1.717-5.15 3.25l-2.05 2.15 1.35-2.95c1.4-2.066 3.35-3.283 5.85-3.649 2.5-0.367 4.433-0.217 5.8 0.449 0.7 0.367 1.133 0.75 1.3 1.15-0.467-0.3-1.117-0.55-1.95-0.75z" style="clip-rule:evenodd;fill-rule:evenodd;fill:#5b5b5b"/><path d="m104.45 110.9c-2.101 0.166-4.05 0.767-5.851 1.8-1.8 1.033-2.899 2.467-3.3 4.3-0.03 0.144-0.056 0.285-0.075 0.425 0.017-0.253 0.041-0.511 0.075-0.774 0.3-2.101 1.101-3.634 2.4-4.601 1.5-1.133 3.083-1.666 4.75-1.6 0.8 0.03 1.47 0.18 2 0.45z" style="clip-rule:evenodd;fill-rule:evenodd;fill:#5b5b5b"/><path d="m48.75 143.4 11 0.399c8.2 0.134 14.4-0.033 18.6-0.5 4.233-0.467 8.717-1.283 13.45-2.45 2.367-0.6 4.3-1.149 5.8-1.649-1 0.733-2.55 1.5-4.649 2.3-4.2 1.6-9.066 2.583-14.601 2.95-4.133 0.267-10.316 0.166-18.55-0.3z" style="clip-rule:evenodd;fill-rule:evenodd;fill:#5b5b5b"/><path d="m46.2 112.2c-2.5-0.233-4.467-0.066-5.9 0.5-1.4 0.566-3.017 1.633-4.85 3.2l-2.35 2.2 2.45-3c1.934-2.066 3.6-3.233 5-3.5 1.434-0.3 3.367-0.199 5.8 0.301 1.2 0.233 2.267 0.5 3.2 0.8-0.967-0.23-2.083-0.4-3.35-0.5z" style="clip-rule:evenodd;fill-rule:evenodd;fill:#b73d3d"/><path d="m16.95 112.05c2.5 1.3 7.883 3.017 16.15 5.15-1.533-0.167-3.367-0.483-5.5-0.95-4.233-0.9-7.833-2-10.8-3.3-1.9-0.867-4.733-2.55-8.5-5.05l-5.05-3.5z" style="clip-rule:evenodd;fill-rule:evenodd;fill:#b73d3d"/><path d="m5.45 128c0.8 0.9 1.583 1.884 2.35 2.95-2.7-0.867-4.65-2.15-5.85-3.851-1.034-1.366-1.15-3.6-0.35-6.699-0.067 0.566 0.167 0.783 0.7 0.649 1.034-0.3 1.934-0.983 2.7-2.05l-0.6 3.6c-0.233 2.57 0.117 4.37 1.05 5.4z" style="clip-rule:evenodd;fill-rule:evenodd;fill:#1e1e1e"/><path d="m42.3 138.05c-0.5 1.537-0.767 3.07-0.8 4.601-0.066 2.733 0.75 4.449 2.45 5.149 0.966 0.434 1.583 1 1.85 1.7-2.133-0.434-3.816-1.283-5.05-2.55-1.566-1.667-2.2-3.884-1.9-6.65l0.25-1.3c0.2 0.3 0.4 0.75 0.6 1.35 0.167 0.4 0.367 0.483 0.6 0.25 0.4-0.366 0.817-0.833 1.25-1.399 0.427-0.56 0.677-0.94 0.75-1.15z" style="clip-rule:evenodd;fill-rule:evenodd;fill:#1e1e1e"/><path d="m47 138.8 1.45-2.899-0.75 3.2c-0.3 2.233 0.05 3.667 1.05 4.301 1.567 1 3.4 1.416 5.5 1.25-0.933 0.433-1.95 0.699-3.05 0.8-2.2 0.233-3.733-0.4-4.6-1.9-0.567-1.03-0.433-2.62 0.4-4.75z" style="clip-rule:evenodd;fill-rule:evenodd;fill:#3f3f3f"/><path d="m100.85 129.6 0.65 3.051c0.333 2.199 0.267 3.733-0.2 4.6-0.733 1.333-1.933 2.384-3.6 3.15 1.366-1.967 2.2-3.617 2.5-4.95 0.167-0.867 0.333-2.101 0.5-3.7l0.15-2.15z" style="clip-rule:evenodd;fill-rule:evenodd;fill:#3f3f3f"/><path d="m85.65 145.8h-0.1v-1.6l4.45-0.6c3.2-0.533 5.316-1.083 6.35-1.649l4.551-2.55c-1.667 2.833-6.351 4.733-14.051 5.699-0.533 0.1-0.932 0.33-1.199 0.7z" style="clip-rule:evenodd;fill-rule:evenodd;fill:#2b2b2b"/><path d="m104.3 126.5-3 1.55-1.8-1.6 1.85-0.3c1.367-0.367 2.483-1.017 3.351-1.95l2.5-3.05c-0.4 2.77-1.37 4.55-2.9 5.35z" style="clip-rule:evenodd;fill-rule:evenodd;fill:#2b2b2b"/><path d="m3.75 68.35c-1.233-1.367-2.167-2.7-2.8-4-0.8-1.6-1.5-4.05-2.1-7.35l-0.65-4.45 0.9 4.6c0.767 3.3 1.566 5.567 2.4 6.8 0.533 0.866 1.667 2.5 3.4 4.9l2.35 2.7c1.1 1.3 2.233 2.9 3.4 4.8 1.534 2.5 2.65 4.801 3.35 6.9 1.033 3.134 1.783 7.033 2.25 11.7-0.9-4.2-1.8-7.434-2.7-9.7-0.7-1.733-1.767-3.967-3.2-6.7-1.533-2.833-2.717-4.8-3.55-5.899z" style="clip-rule:evenodd;fill-rule:evenodd;fill:#5b5b5b"/><path d="m69.25 151.1 5.75 0.9-2.1 0.95c-4.634 0.166-8.283-1.25-10.95-4.25-1.066-1.167-3.05-1.434-5.95-0.8-3.133 0.933-5.15 1.5-6.05 1.699-0.867 0.2-1.95 0.217-3.25 0.051-1.567-0.2-2.95-0.65-4.15-1.351l-0.15-1.85 2.1 1.25c1.767 0.767 3.617 1 5.55 0.7 1.2-0.2 3.233-0.767 6.101-1.7 2.033-0.634 3.467-0.816 4.3-0.55 0.566 0.199 1.95 1.066 4.149 2.6 2 1.4 3.55 2.18 4.65 2.35z" style="clip-rule:evenodd;fill-rule:evenodd;fill:#1e1e1e"/><path d="m68.8 145.85 4.3-0.05c3.134-0.033 5.417-0.116 6.851-0.25 2.3-0.2 3.899-0.45 4.8-0.75-0.434 2.5-1.1 3.9-2 4.2-0.8 0.267-2.116 0.384-3.95 0.35-2.066-0.066-3.75-0.333-5.05-0.8-1.167-0.434-2.333-1.017-3.5-1.75z" style="clip-rule:evenodd;fill-rule:evenodd;fill:#3f3f3f"/><path d="m88.6 117.5-25.449-9.9 0.25-5.699 3.6 2.25c3 1.699 6 3.05 9 4.05s6.3 1.45 9.9 1.35c1.8-0.033 3.3-0.184 4.5-0.45l-1.801 8.4z" style="clip-rule:evenodd;fill-rule:evenodd;fill:#6b1a1a"/><path d="m99.925 105.42c-1.349-0.542-2.906-0.583-4.675-0.125-1.133 0.267-2.35 1.167-3.65 2.7l-1.55 2.25c0.067-0.6 0.25-1.267 0.55-2 0.567-1.467 1.367-2.533 2.4-3.2 1.033-0.633 2.5-0.767 4.4-0.399 0.937 0.19 1.778 0.45 2.525 0.77z" style="clip-rule:evenodd;fill-rule:evenodd;fill:#b73d3d"/><path d="m91.2 109.35c-1.2 0.167-2.733 0.233-4.601 0.2-3.732-0.033-7.267-0.483-10.6-1.35-3.3-0.834-6.383-2.134-9.25-3.9l-3.349-2.4 11.8 4.3c3.167 1.2 8.5 2.25 16 3.15z" style="clip-rule:evenodd;fill-rule:evenodd;fill:#b73d3d"/><use transform="matrix(1,0,0,-1,33.3,61.6)" x="-0.02" y="-10.473" width="9.8699999" height="10.447" style="enable-background:new;opacity:.25" xlink:href="#ac"/><use transform="matrix(1,0,0,-1,19.6,48.35)" x="-0.0060000001" y="-9.5559998" width="9.0059996" height="9.5810003" style="enable-background:new;opacity:.25" xlink:href="#ab"/><use transform="matrix(1,0,0,-1,42.75,45.85)" x="0.028000001" y="-9.802" width="9.2220001" height="9.7770004" style="enable-background:new;opacity:.25" xlink:href="#aa"/><use transform="matrix(1,0,0,-1,23,77.8)" x="-0.02" y="-10.252" width="9.7200003" height="10.226" style="enable-background:new;opacity:.25" xlink:href="#z"/><use transform="matrix(1,0,0,-1,46.6,75.55)" x="0.028000001" y="-10.048" width="9.4219999" height="10.022" style="enable-background:new;opacity:.25" xlink:href="#y"/><use transform="matrix(1,0,0,-1,37.55,93.8)" x="-0.0080000004" y="-9.1070004" width="8.658" height="9.1219997" style="enable-background:new;opacity:.25" xlink:href="#x"/><path d="m89.1 133.85c2.768-1.1 5.067-2.366 6.9-3.8-0.533 1.867-1.434 3.75-2.7 5.65l-1.8 2.35-43.25 3.4c-0.3-1.2-0.183-2.517 0.35-3.95s1.283-2.5 2.25-3.2c0.6-0.434 1.15-0.983 1.65-1.649 7.5 3.399 14.884 4.833 22.15 4.3 5.333-0.37 10.15-1.4 14.45-3.1z" style="clip-rule:evenodd;fill-rule:evenodd;fill:#541616"/><path d="m69.15 111.55c-1.934-0.899-2.834-1.45-2.7-1.649 6.833 1.933 13.066 4.083 18.7 6.449 7.633 3.167 11.25 5.7 10.85 7.601-7.3-0.367-13.3-0.634-18-0.8-1.7-0.101-4.517 0.316-8.45 1.25l-2.2 0.1c-4.333 0.2-8.633 0.733-12.899 1.6l-0.251-1.9c4.167-0.334 6.7-0.55 7.6-0.65 3.233-0.333 5.867-0.75 7.9-1.25 1.934-0.467 5.184-0.8 9.75-1 3.5-0.166 5.767-0.633 6.8-1.399 1.167-0.9-0.833-2.351-6-4.351l-8.15-2.7c-1-0.4-1.983-0.83-2.95-1.3z" style="clip-rule:evenodd;fill-rule:evenodd;fill:#681a1a"/><use transform="matrix(1,0,0,-1,72.2,157.7)" x="16383" y="16383" width="-32766" height="-32766" xlink:href="#ad"/></g></g></svg>
