<?xml version="1.0" encoding="UTF-8"?>
<svg width="167.65mm" height="266.6mm" version="1.1" viewBox="0 0 167.65 266.6" xmlns="http://www.w3.org/2000/svg"><defs><linearGradient id="d" x1="352.12" x2="107.78" y1="68.868" y2="90.404" gradientUnits="userSpaceOnUse"><stop stop-color="#deaa87" offset="0"/><stop stop-color="#decfa1" offset=".6288"/><stop stop-color="#deaa87" offset="1"/></linearGradient><linearGradient id="c" x1="366.84" x2="111.18" y1="135.67" y2="167.96" gradientUnits="userSpaceOnUse"><stop stop-color="#deaa87" offset="0"/><stop stop-color="#decfa1" offset=".6106"/><stop stop-color="#deaa87" offset="1"/></linearGradient><linearGradient id="b" x1="366.84" x2="127.03" y1="179.43" y2="204.93" gradientUnits="userSpaceOnUse"><stop stop-color="#deaa87" offset="0"/><stop stop-color="#decfa1" offset=".598"/><stop stop-color="#deaa87" offset="1"/></linearGradient><radialGradient id="a" cx="887.14" cy="159.51" r="721.43" gradientTransform="matrix(-.28988 .02036 -.0192 -.27334 666.54 509.04)" gradientUnits="userSpaceOnUse"><stop stop-color="#4d4d4d" offset="0"/><stop stop-color="#747979" offset="1"/></radialGradient></defs><g transform="translate(-12.18 -10.997)"><g transform="matrix(.26458 0 0 .26458 -3.3895 3.9876)"><path d="m338.48 31.589 11.323-3.2552c21.648 140.48 40.484 292.8 41.182 373.63 0.85906 99.505 3.5168 112.43 2.4712 164.91-2.0413 102.46-17.606 138.8-28.049 231.4l-10.544-9.9782c8.3552-85.608 16.056-108.95 18.259-182.93 1.7301-58.099 0.15831-146.17 0.34718-200.43 0.3466-99.608-19.061-236.59-34.989-373.35z" style="fill:#784421"/><path d="m338.84 593.57 341.62-77.795-279.25-55.198-275.42 50.245z" style="fill:#d38d5f;opacity:.4072"/><path d="m376.42 26.494-26.608 1.84c21.648 140.48 40.366 294 41.064 374.83 0.85904 99.505 2.0327 111.22 0.98713 163.71-2.0412 102.46-16.005 138.8-26.447 231.4l11.818-4.8829c13.45-82.494 34.456-114.05 36.659-188.02 1.7301-58.099 3.5255-157.77 4.027-212.04 0.91274-98.759-23.59-229.23-41.499-366.84z" style="fill:#d19b72"/><path d="m58.844 52.394 12.172-2.9722c21.648 140.48 45.648 292.68 46.345 373.52 0.85906 99.505 0.90048 111.13-0.14515 163.61-2.0412 102.46-12.511 196.83-24.369 289.43l-11.393-14.224c7.2228-85.891 15.773-159.91 17.976-233.88 1.7301-58.099 0.72444-126.35 0.91328-180.62 0.34663-99.608-25.571-258.1-41.499-394.87z" style="fill:#784421"/><path d="m97.574 52.317c82.877-4.4256 167.17-11.882 251.1-18.415l9.7077 67.954-249.2 22.518z" style="fill:url(#d)"/><path d="m112.58 149.13c84.009-8.9546 164.48-16.835 248.98-24.784l3.1972 22.663-249.34 25.773z" style="fill:url(#c)"/><path d="m119.79 195.72c84.009-8.9546 163.35-19.383 247.84-27.331l3.1972 23.654-247.78 29.028z" style="fill:url(#b)"/><path d="m99.377 47.39-28.36 2.0318c21.648 140.48 45.648 292.68 46.345 373.52 0.85906 99.505 0.90048 111.13-0.14515 163.61-2.0412 102.46-12.825 196.51-24.682 289.12l26.65-5.1034c11.726-81.387 23.279-166.41 26.683-240.78 2.6574-58.064 1.0247-130.75 1.2135-185.02 0.34663-99.608-29.775-285.82-47.704-397.37z" style="fill:#d19b72"/><path d="m123.5 626.33 200.77 89.066 0.11728 20.807-200.49-89.433z" style="fill:#a66320"/><path d="m123.43 626.26 200.84 89.137 13.138-6.3677-196.53-84.975z" style="fill:#d38d5f"/><path d="m124.5 508.21 200.69 73.304-0.2274 56.467-200.56-77.261z" style="fill:#a66320"/><path d="m475.1 590.22 164.46 45.008 0.28308 19.815-163.9-46.14z" style="fill:#784421"/><path d="m475.1 590.22 164.46 45.008 14.153-3.9629-162.76-45.291z" style="fill:#d38d5f"/><path d="m636.56 517.9 23.094 1.4153v411.3l-15.993-6.7936c-8.6146-192.76-9.3591-276.86-7.101-405.92z" style="fill:#784421"/><path d="m321.77 581.24 20.459 7.1202 4.6049 445.76-15.34-6.7623c-6.6994-190.2-9.7779-309.92-9.7236-446.12z" style="fill:#a05a2c"/><path d="m683.69 513.71-24.036 4.8122v412.09l18.824-5.6614c2.7081-188.8 4.1574-282.25 5.2125-411.24z" style="fill:#c78d5e"/><path d="m360.35 584.06 295.76-64.547-0.14144 53.16-295.24 68.927z" style="fill:#c79165"/><path d="m360.97 692.85 295.9-73.408v20.664l-295.38 74.73z" style="fill:#c79165"/><path d="m360.97 692.85 295.9-73.408-18.258-3.2553-291.98 70.908z" style="fill:#c87137"/><path d="m373.21 579.62-30.982 8.7375 4.6049 445.76 21.088-5.6614c2.7082-188.8 4.2333-319.84 5.2883-448.83z" style="fill:#bf8559"/><path d="m418.76 415 119.68 22.832c49.036 10.502 143.24 27.082 153.76 42.839l-287.07 56.416-61.668 14.917-223.06-79.825c5.4949-10.685 79.031-16.616 163.4-33.082 43.862-8.5599 95.628-19.488 134.95-24.098z" style="fill:url(#a)"/><path d="m120.41 471.9c73.496 23.399 146.31 43.494 220.51 79.542l0.84921 36.799-219.66-79.542z" style="fill:#454444"/><path d="m340.5 550.1c7.2942-1.9967 10.822-3.1066 18.181-5.0481 7.1215-1.8788 222.72-44.497 331.76-66.922 1.9212 0.69193 1.925 2.1448 1.203 2.8307l-327.27 65.481-23.314 6.2767z" style="fill:#b3b3b3"/><path d="m121.54 470.77c73.079 21.322 145.87 45.779 219.24 79.259l0.28307 2.6892c-81.373-37.17-145.42-57.681-220.65-79.967-0.55482-1.0489-0.56327-1.8702 1.1323-1.9815z" style="fill:#999"/><path d="m339.79 551.44c2.233-0.44211 14.657-4.847 16.89-5.2886 114.98-22.738 220.8-43.156 333.83-66.611 2.642 4.1516 2.642 15.097 0 32.836l-349.02 76.428z" style="fill:#666"/></g></g></svg>
