<?xml version="1.0" encoding="UTF-8"?>
<svg width="45.271mm" height="67.67mm" version="1.1" viewBox="0 0 45.271 67.67" xmlns="http://www.w3.org/2000/svg" xmlns:xlink="http://www.w3.org/1999/xlink"><defs><linearGradient id="e-6"><stop offset="0"/><stop stop-color="#494949" offset=".4"/><stop stop-color="#232323" offset=".6934"/><stop offset="1"/></linearGradient><linearGradient id="f-6"><stop offset="0"/><stop stop-color="#c1c1c1" offset=".25"/><stop stop-color="#fff" offset=".5"/><stop offset="1"/></linearGradient><linearGradient id="r-0" x2="0" y1="-22.092" y2="83.952" gradientUnits="userSpaceOnUse"><stop offset="0"/><stop stop-color="#c1c1c1" offset=".1429"/><stop stop-color="#fff" offset=".4286"/><stop offset="1"/></linearGradient><linearGradient id="u-7" x1="96" x2="160" gradientUnits="userSpaceOnUse"><stop offset="0"/><stop stop-color="#d7d7d7" offset=".5"/><stop stop-color="#ababab" offset=".6667"/><stop offset="1"/></linearGradient><linearGradient id="t-1" x2="0" y1="865.93" y2="840.68" gradientUnits="userSpaceOnUse"><stop offset="0"/><stop stop-color="#c1c1c1" offset=".25"/><stop offset=".8184"/><stop offset="1"/></linearGradient><linearGradient id="b-8" x2="16" gradientUnits="userSpaceOnUse" xlink:href="#f-6"/><linearGradient id="s-1" x1="112" x2="144" gradientUnits="userSpaceOnUse" xlink:href="#f-6"/><radialGradient id="a-8" cx="8" cy="216" r="8" gradientUnits="userSpaceOnUse" xlink:href="#e-6"/><clipPath id="k-4"><path d="m294.32 487.12h179.06c9.5653 0 17.266 7.7006 17.266 17.266v30.284c0 9.5653-7.7006 17.266-17.266 17.266h-179.06c-9.5653 0-17.266-7.7006-17.266-17.266v-30.284c0-9.5653 7.7006-17.266 17.266-17.266z"/></clipPath><filter id="i-5" x="-.10676" y="-.10676" width="1.2135" height="1.2135"><feGaussianBlur stdDeviation="25.54581"/></filter><filter id="g-9" x="-.07825" y="-.11952" width="1.1565" height="1.239"><feGaussianBlur stdDeviation="14.16288"/></filter><filter id="j-4" x="-.10017" y="-.33009" width="1.2003" height="1.6602"><feGaussianBlur stdDeviation="8.91465"/></filter><linearGradient id="a-5"><stop stop-color="#fff" offset="0"/><stop stop-color="#ff0e0e" offset=".4846"/><stop stop-color="#850000" offset="1"/></linearGradient><radialGradient id="f-8" cx="317.34" cy="633.94" r="287.14" gradientTransform="matrix(1.7192 -.27854 .23847 1.4718 -502.65 -249.53)" gradientUnits="userSpaceOnUse"><stop stop-color="#f00" offset="0"/><stop stop-color="#a50000" offset="1"/></radialGradient><radialGradient id="b-7" cx="500.23" cy="869.06" r="217.18" gradientTransform="matrix(2.1042 -1.4029 .46183 .6927 -953.73 918.91)" gradientUnits="userSpaceOnUse"><stop offset="0"/><stop stop-opacity="0" offset="1"/></radialGradient><radialGradient id="d-9" cx="596.63" cy="788.8" r="289.32" gradientUnits="userSpaceOnUse" xlink:href="#a-5"/><radialGradient id="c-4" cx="272.22" cy="332.6" r="287.14" gradientUnits="userSpaceOnUse" xlink:href="#a-5"/></defs><g transform="translate(-30.161 -57.617)"><g transform="matrix(1.1547 0 0 1 -68.537 -86.106)" style="stroke-width:.9306"><g transform="matrix(.26458 0 0 .26458 71.207 -66.988)" style="stroke-width:.9306"><path d="m147.09 820.69c63.755 14.391 60.73 45.291 26.65 83.867" style="fill:none;stroke-width:4.0219;stroke:#000"/><path d="m152.39 824.03 1.0659-3.8552c0.14134-0.51123 0.10447-1.0466 0.0558-1.4442-0.0487-0.39759-0.18456-0.64723-0.37789-0.69394l-4.3739-1.0569c-0.40261-0.0973-0.9393 0.69419-1.1987 1.7678l-0.93947 3.888c-0.25943 1.0736-0.14335 2.0228 0.25926 2.1201l4.3739 1.0569c0.19334 0.0467 0.42825-0.11331 0.65306-0.44482s0.3407-0.82656 0.48205-1.3378m6.662 1.8951 1.205-3.8139c0.15978-0.50577 0.23769-1.0146 0.21657-1.4146-0.0211-0.39999-0.13954-0.65837-0.3292-0.7183l-4.4689-1.2647c-0.39922-0.11038-0.96145 0.66315-1.2558 1.7277l-1.0659 3.8552c-0.29433 1.0646-0.20931 2.017 0.1899 2.1274l4.1908 1.1822c0.18965 0.0599 0.43501-0.0836 0.68212-0.39879s0.47569-0.77649 0.63547-1.2822m6.5566 2.2047 1.358-3.7621c0.18009-0.49888 0.27848-1.0042 0.27353-1.4047-5e-3 -0.40052-0.11283-0.66346-0.29992-0.731l-4.4121-1.5006c-0.39495-0.12478-0.98485 0.62784-1.3176 1.681l-1.205 3.8139c-0.33275 1.0532-0.28232 2.0081 0.11262 2.1329l4.1061 1.397c0.18708 0.0675 0.43805-0.0659 0.69767-0.37091s0.50665-0.75663 0.68673-1.2555m6.3367 2.5557 1.6631-3.6377c0.22054-0.48239 0.36019-0.97788 0.38823-1.3775 0.028-0.39959-0.1939-0.7318-0.37775-0.8077l-4.3274-1.7818c-0.38958-0.14063-1.0094 0.58754-1.3844 1.6264l-1.358 3.7621c-0.37501 1.0389-0.36319 1.995 0.0264 2.1357l3.991 1.6516c0.18385 0.0759 0.3072-0.0934 0.591-0.37626s0.56723-0.71241 0.78777-1.1948m6.0948 3.0774 1.9647-3.484c0.26054-0.46202 0.44159-0.94392 0.50331-1.3397 0.0617-0.39578-9.4e-4 -0.67301-0.1742-0.77071l-4.2078-2.1626c-0.37197-0.18219-1.149 0.45315-1.6082 1.4577l-1.6631 3.6377c-0.45927 1.0045-0.61957 1.9066-0.2476 2.0888l3.7973 1.9465c0.17325 0.0977 0.44291 8e-3 0.74964-0.24975s0.62544-0.66188 0.88598-1.1239m5.6344 3.6632 2.4222-3.1829c0.3212-0.42209 0.56637-0.87473 0.68158-1.2584s-0.0281-0.75502-0.19078-0.86953l-3.9823-2.6293c-0.35419-0.21472-1.1055 0.37689-1.6781 1.3214l-2.0735 3.4204c-0.5726 0.94451-0.74965 1.8842-0.39545 2.099l3.5242 2.3296c0.16264 0.1145 0.32198-0.0247 0.66105-0.23787s0.70997-0.57023 1.0312-0.99231m4.9727 4.4216 2.92-2.7332c0.38722-0.36245 0.70459-0.76774 0.88228-1.1267s0.20117-0.64222 0.0652-0.78742l-3.7057-3.3749c-0.31957-0.26348-1.2478 0.14432-1.9166 1.0233l-2.4222 3.1829c-0.66887 0.87894-1.0697 1.7023-0.75017 1.9658l2.9546 2.6694c0.13592 0.14521 0.4201 0.14048 0.79001-0.0131s0.79527-0.44354 1.1825-0.80599m3.8735 5.1988 3.5057-1.9252c0.46489-0.25528 0.8727-0.56938 1.1337-0.87317s0.23625-0.74857 0.13143-0.91761l-2.9789-4.1342c-0.26858-0.31529-1.1679 0.01-2.0087 0.7259l-3.0447 2.5936c-0.84078 0.7162-1.3046 1.5524-1.0361 1.8677l2.2702 3.1626c0.10481 0.16903 0.28567 0.0458 0.68209-0.0115s0.88029-0.23282 1.3452-0.4881m2.4035 5.9678 3.8942-0.91181c0.51642-0.12087 0.99369-0.31366 1.3267-0.53624s0.42873-0.6637 0.37292-0.8546l-1.8287-4.8119c-0.17954-0.37322-1.2136-0.43351-2.1817 0.0981l-3.5057 1.9251c-0.96808 0.53162-1.7005 1.071-1.521 1.4443l1.3593 3.5887c0.0558 0.19088 0.25978 0.11544 0.657 0.16687 0.39722 0.0514 0.91047 0.0124 1.4269-0.10851m0.71344 6.428 3.9982 0.10477c0.5302 0.0139 1.0408-0.0518 1.4194-0.18254s0.58823-0.5092 0.58383-0.70804l-0.46948-5.088c-0.0726-0.40774-1.0479-0.74423-2.1232-0.49245l-3.8942 0.91181c-1.0754 0.25179-1.9303 0.57582-1.8576 0.98359l0.34731 3.862c4e-3 0.19884 0.21673 0.2018 0.58795 0.35221s0.87765 0.24272 1.4078 0.25662m-0.80502 6.5119 3.8858 0.948c0.51529 0.12571 1.0538 0.0548 1.4493-8e-3s0.64016-0.20762 0.67968-0.40293l0.69792-4.9582c0.0301-0.41308-0.83155-0.95723-1.9356-0.98616l-3.9983-0.10477c-1.1041-0.0289-2.0142 0.0967-2.0443 0.50975l-0.55877 3.9452c-0.0396 0.19491 0.1288 0.42384 0.46831 0.63639s0.84064 0.29525 1.3559 0.42096m-1.9978 6.4183 3.7222 1.4644c0.49358 0.19418 0.99588 0.30689 1.3964 0.31332 0.40051 6e-3 0.71424-0.20902 0.78127-0.39628l1.4646-4.5384c0.11287-0.39853-0.64483-1.0801-1.7179-1.3419l-3.8858-0.948c-1.073-0.26178-1.9803-0.28847-2.0932 0.11004l-1.2996 4.0227c-0.067 0.18727 0.0989 0.32383 0.39646 0.59202s0.74197 0.52796 1.2356 0.72215m-2.8445 6.1802 3.5644 1.8144c0.47267 0.24059 0.96182 0.40093 1.3598 0.44573s0.67232-0.0296 0.76255-0.20685l2.0025-4.261c0.16824-0.37845-0.5135-1.0489-1.5227-1.4976l-3.6546-1.6246c-1.0092-0.44862-1.9637-0.50551-2.1319-0.12706l-1.8219 3.8815c-0.0902 0.17725 0.011 0.44282 0.28145 0.73829s0.68789 0.59661 1.1606 0.83721m-3.4074 5.9067 3.3897 2.1232c0.4495 0.28155 0.92253 0.48461 1.315 0.56451s0.67232 0.0301 0.7779-0.13848l2.3618-4.0244c0.20498-0.35991-0.34191-1.2251-1.3262-1.7261l-3.5644-1.8144c-0.98427-0.50103-1.8555-0.77835-2.0604-0.41846l-2.1902 3.7369c-0.10558 0.16857-0.0283 0.44207 0.21491 0.76035s0.63234 0.65526 1.0818 0.93682m-3.8272 5.6882 3.2307 2.3583c0.42841 0.31272 0.88587 0.54882 1.2717 0.65636s0.66851 0.0777 0.78578-0.083l2.6947-3.9521c0.21986-0.35101-0.36076-1.1108-1.2968-1.6972l-3.3897-2.1232c-0.93604-0.58631-1.8731-0.77705-2.0929-0.42604l-2.3766 3.4819c-0.11727 0.16065-0.0596 0.43896 0.16046 0.77369s0.58428 0.69847 1.0127 1.0112m-4.182 5.5369 3.1582 2.4545c0.4188 0.32549 0.86894 0.57526 1.2514 0.69436s0.66587 0.0978 0.78793-0.0593l2.7987-3.6757c0.2442-0.33454-0.28104-1.1337-1.1732-1.7849l-3.2307-2.3583c-0.89212-0.65121-1.8133-0.90793-2.0575-0.57339l-2.6538 3.4832c-0.12206 0.15705-0.0728 0.43697 0.13708 0.77817s0.563 0.71576 0.9818 1.0412m-4.3978 5.3117 3.0276 2.614c0.40148 0.34664 0.83816 0.61928 1.214 0.75793s0.65996 0.13197 0.78995-0.0186l2.9386-3.5356c0.26294-0.32004-0.21575-1.1479-1.0692-1.8491l-3.0906-2.5392c-0.85342-0.70118-1.7584-1.0102-2.0214-0.69013l-2.8127 3.386c-0.12999 0.15056-0.0952 0.43265 0.0968 0.78422s0.52537 0.74382 0.92685 1.0905" style="fill-rule:evenodd;fill:#0a0;stroke-width:.9306;stroke:#000"/><path d="m108.94 820.69c-63.755 14.391-60.73 45.291-26.65 83.867" style="fill:none;stroke-width:4.0219;stroke:#000"/><path d="m103.64 824.03-1.0659-3.8552c-0.14135-0.51123-0.10447-1.0466-0.0559-1.4442 0.0486-0.39759 0.18455-0.64723 0.37789-0.69394l4.3739-1.0569c0.40261-0.0973 0.9393 0.69419 1.1987 1.7678l0.93947 3.888c0.25943 1.0736 0.14336 2.0228-0.25925 2.1201l-4.3739 1.0569c-0.19334 0.0467-0.42824-0.11331-0.65305-0.44482s-0.3407-0.82656-0.48205-1.3378m-6.662 1.8951-1.205-3.8139c-0.15979-0.50577-0.23769-1.0146-0.21657-1.4146s0.13954-0.65837 0.32919-0.7183l4.4689-1.2647c0.39921-0.11038 0.96145 0.66315 1.2558 1.7277l1.0659 3.8552c0.29434 1.0646 0.20932 2.017-0.1899 2.1274l-4.1908 1.1822c-0.18966 0.0599-0.43501-0.0836-0.68212-0.39879s-0.47569-0.77649-0.63547-1.2822m-6.5566 2.2047-1.358-3.7621c-0.18008-0.49888-0.27847-1.0042-0.27352-1.4047 5e-3 -0.40052 0.11283-0.66346 0.29991-0.731l4.4121-1.5006c0.39495-0.12478 0.98486 0.62784 1.3176 1.681l1.205 3.8139c0.33274 1.0532 0.28232 2.0081-0.11263 2.1329l-4.1061 1.397c-0.18708 0.0675-0.43805-0.0659-0.69766-0.37091s-0.50665-0.75663-0.68673-1.2555m-6.3367 2.5557-1.6631-3.6377c-0.22054-0.48239-0.36019-0.97788-0.38823-1.3775s0.1939-0.7318 0.37774-0.8077l4.3274-1.7818c0.38958-0.14063 1.0094 0.58754 1.3844 1.6264l1.358 3.7621c0.375 1.0389 0.36319 1.995-0.02639 2.1357l-3.991 1.6516c-0.18385 0.0759-0.3072-0.0934-0.59099-0.37626s-0.56723-0.71241-0.78778-1.1948m-6.0948 3.0774-1.9647-3.484c-0.26054-0.46202-0.44158-0.94392-0.5033-1.3397s9.4e-4 -0.67301 0.1742-0.77071l4.2078-2.1626c0.37197-0.18219 1.149 0.45315 1.6082 1.4577l1.6631 3.6377c0.45926 1.0045 0.61957 1.9066 0.2476 2.0888l-3.7973 1.9465c-0.17326 0.0977-0.44292 8e-3 -0.74965-0.24975s-0.62543-0.66188-0.88598-1.1239m-5.6344 3.6632-2.4222-3.1829c-0.3212-0.42209-0.56637-0.87473-0.68158-1.2584s0.02813-0.75502 0.19077-0.86953l3.9823-2.6293c0.35419-0.21472 1.1055 0.37689 1.6781 1.3214l2.0735 3.4204c0.57259 0.94451 0.74964 1.8842 0.39545 2.099l-3.5242 2.3296c-0.16264 0.1145-0.32197-0.0247-0.66105-0.23787s-0.70997-0.57023-1.0312-0.99231m-4.9727 4.4216-2.92-2.7332c-0.38722-0.36245-0.70458-0.76774-0.88228-1.1267s-0.20116-0.64222-0.06524-0.78742l3.7057-3.3749c0.31957-0.26348 1.2478 0.14432 1.9166 1.0233l2.4222 3.1829c0.66887 0.87894 1.0697 1.7023 0.75017 1.9658l-2.9546 2.6694c-0.13592 0.14521-0.4201 0.14048-0.79001-0.0131s-0.79527-0.44354-1.1825-0.80599m-3.8735 5.1988-3.5057-1.9252c-0.46489-0.25528-0.8727-0.56938-1.1337-0.87317s-0.23624-0.74857-0.13142-0.91761l2.9789-4.1342c0.26858-0.31529 1.1679 0.01 2.0087 0.7259l3.0447 2.5936c0.84077 0.7162 1.3046 1.5524 1.0361 1.8677l-2.2702 3.1626c-0.10481 0.16903-0.28567 0.0458-0.68209-0.0115s-0.88029-0.23282-1.3452-0.4881m-2.4035 5.9678-3.8942-0.91181c-0.51642-0.12087-0.99369-0.31366-1.3267-0.53624s-0.42872-0.6637-0.37292-0.8546l1.8287-4.8119c0.17954-0.37322 1.2136-0.43351 2.1817 0.0981l3.5057 1.9251c0.96807 0.53162 1.7005 1.071 1.521 1.4443l-1.3593 3.5887c-0.05583 0.19088-0.25978 0.11544-0.65699 0.16687-0.39721 0.0514-0.91048 0.0124-1.4269-0.10851m-0.71343 6.428-3.9982 0.10477c-0.5302 0.0139-1.0408-0.0518-1.4194-0.18254s-0.58824-0.5092-0.58383-0.70804l0.46948-5.088c0.07264-0.40774 1.0479-0.74423 2.1232-0.49245l3.8942 0.91181c1.0754 0.25179 1.9303 0.57582 1.8576 0.98359l-0.3473 3.862c-0.0044 0.19884-0.21674 0.2018-0.58796 0.35221s-0.87764 0.24272-1.4078 0.25662m0.80501 6.5119-3.8858 0.948c-0.51529 0.12571-1.0538 0.0548-1.4493-8e-3s-0.64017-0.20762-0.67968-0.40293l-0.69792-4.9582c-0.03009-0.41308 0.83154-0.95723 1.9356-0.98616l3.9982-0.10477c1.1041-0.0289 2.0142 0.0967 2.0443 0.50975l0.55877 3.9452c0.03964 0.19491-0.12881 0.42384-0.46832 0.63639s-0.84063 0.29525-1.3559 0.42096m1.9978 6.4183-3.7222 1.4644c-0.49359 0.19418-0.99589 0.30689-1.3964 0.31332-0.40051 6e-3 -0.71423-0.20902-0.78126-0.39628l-1.4647-4.5384c-0.11286-0.39853 0.64484-1.0801 1.7179-1.3419l3.8858-0.948c1.073-0.26178 1.9803-0.28847 2.0932 0.11004l1.2996 4.0227c0.06702 0.18727-0.09892 0.32383-0.39646 0.59202s-0.74197 0.52796-1.2356 0.72215m2.8445 6.1802-3.5644 1.8144c-0.47266 0.24059-0.96181 0.40093-1.3598 0.44573s-0.67232-0.0296-0.76255-0.20685l-2.0025-4.261c-0.16823-0.37845 0.51351-1.0489 1.5227-1.4976l3.6546-1.6246c1.0092-0.44862 1.9637-0.50551 2.1319-0.12706l1.8219 3.8815c0.09023 0.17725-0.01101 0.44282-0.28144 0.73829s-0.68789 0.59661-1.1606 0.83721m3.4075 5.9067-3.3897 2.1232c-0.4495 0.28155-0.92253 0.48461-1.315 0.56451s-0.67232 0.0301-0.77791-0.13848l-2.3618-4.0244c-0.20498-0.35991 0.34191-1.2251 1.3262-1.7261l3.5644-1.8144c0.98428-0.50103 1.8555-0.77835 2.0604-0.41846l2.1902 3.7369c0.10558 0.16857 0.02828 0.44207-0.21491 0.76035s-0.63233 0.65526-1.0818 0.93682m3.8272 5.6882-3.2307 2.3583c-0.42841 0.31272-0.88586 0.54882-1.2717 0.65636s-0.66851 0.0777-0.78579-0.083l-2.6947-3.9521c-0.21987-0.35101 0.36075-1.1108 1.2967-1.6972l3.3897-2.1232c0.93604-0.58631 1.8731-0.77705 2.0929-0.42604l2.3766 3.4819c0.11727 0.16065 0.05956 0.43896-0.16045 0.77369s-0.58429 0.69847-1.0127 1.0112m4.182 5.5369-3.1582 2.4545c-0.4188 0.32549-0.86894 0.57526-1.2514 0.69436s-0.66588 0.0978-0.78794-0.0593l-2.7987-3.6757c-0.24421-0.33454 0.28103-1.1337 1.1732-1.7849l3.2307-2.3583c0.89212-0.65121 1.8133-0.90793 2.0575-0.57339l2.6538 3.4832c0.12206 0.15705 0.07275 0.43697-0.13708 0.77817s-0.563 0.71576-0.9818 1.0412m4.3978 5.3117-3.0276 2.614c-0.40148 0.34664-0.83816 0.61928-1.214 0.75793s-0.65996 0.13197-0.78995-0.0186l-2.9386-3.5356c-0.26294-0.32004 0.21574-1.1479 1.0692-1.8491l3.0906-2.5392c0.85343-0.70118 1.7584-1.0102 2.0214-0.69013l2.8127 3.386c0.12999 0.15056 0.09517 0.43265-0.09681 0.78422s-0.52537 0.74382-0.92685 1.0905" style="fill-rule:evenodd;fill:#0a0;stroke-width:.9306;stroke:#000"/><path d="m159.98 966.35c-1.6274-18.728 0-56.606 0-56.606s-12.216-5.3368-15.983 0c-5.6508 8.0052 0.78748 22.698 0 33.964-1.3384 19.148-8.3146 37.369-7.9914 56.606 0.2612 15.555-0.66556 35.71 7.9914 45.285 4.1993 4.6448 11.661 4.4132 15.983 0 6.8337-6.978 7.6682-22.039 7.9915-33.964 0.42148-15.548-6.6495-29.842-7.9915-45.285z" style="fill-rule:evenodd;fill:#a80;stroke-width:.92961;stroke:#000"/><path d="m96.048 966.35c1.6274-18.728 0-56.606 0-56.606s12.216-5.3368 15.983 0c5.6508 8.0052-0.78744 22.698 0 33.964 1.3384 19.148 8.3146 37.369 7.9915 56.606-0.2612 15.555 0.66556 35.71-7.9915 45.285-4.1993 4.6448-11.661 4.4132-15.983 0-6.8337-6.978-7.6682-22.039-7.9914-33.964-0.42152-15.548 6.6495-29.842 7.9914-45.285z" style="fill-rule:evenodd;fill:#a80;stroke-width:.92961;stroke:#000"/><path d="m87.839 971.67c-3.2705 19.68-5.3164 11.892-11.857 11.892s-8.5869 7.7884-11.857-11.892-0.306-21.942 2.9643-41.622 2.352-29.73 8.8931-29.73 5.6226 10.05 8.8931 29.73 6.2349 21.942 2.9644 41.622z" style="fill-rule:evenodd;fill:#d4aa00;stroke-width:.92961;stroke:#000"/><path d="m191.88 971.67c-3.2705 19.68-5.3164 11.892-11.857 11.892s-8.5869 7.7884-11.857-11.892-0.306-21.942 2.9644-41.622 2.352-29.73 8.893-29.73 5.6226 10.05 8.8931 29.73 6.2349 21.942 2.9644 41.622z" style="fill-rule:evenodd;fill:#d4aa00;stroke-width:.92961;stroke:#000"/><path d="m146.22 891.9c-5.0248-9.382-8.1681-5.6692-18.218-5.6692s-13.193-3.7128-18.218 5.6692-0.4704 10.46 4.5544 19.842 3.6136 14.173 13.663 14.173 8.6385-4.7908 13.663-14.173 9.5792-10.46 4.5544-19.842z" style="fill-rule:evenodd;fill:url(#s-1);stroke-width:.92961;stroke:#000"/><path d="m168.35 911.27c-11.131-19.058-18.093-11.516-40.355-11.516s-29.224-7.5418-40.355 11.516-1.042 21.247 10.089 40.305 8.0048 28.79 30.266 28.79 19.135-9.732 30.266-28.79 21.219-21.247 10.089-40.305z" style="fill-rule:evenodd;fill:#d4aa00;stroke-width:.8902;stroke:#000"/><path d="m175.96 844.81c0 26.481-21.467 47.949-47.949 47.949s-47.949-21.468-47.949-47.949 21.467-47.949 47.949-47.949 47.949 21.467 47.949 47.949z" style="fill-rule:evenodd;fill:#0a0;stroke-linecap:round;stroke-linejoin:round;stroke-width:.92961;stroke:#000"/><path d="m171.22 831.77c-11.918-17.378-19.373-10.5-43.209-10.5s-31.291-6.8776-43.208 10.5-1.1157 19.374 10.802 36.752 8.5708 26.251 32.406 26.251 20.489-8.874 32.406-26.251 22.72-19.374 10.802-36.752z" style="fill-rule:evenodd;fill:#d4aa00;stroke-width:.9306;stroke:#000"/><path d="m89.389 853.34c-2.0924-1.7671-1.375-5.3756-1.375-8.1004s-1.2851-4.8168 1.375-8.1c10.641-13.132 17.344-7.9 38.625-7.9s27.984-5.2316 38.625 7.9c2.6601 3.2832 1.375 5.3752 1.375 8.1s0.71737 6.3333-1.375 8.1004c-19.673 16.615-57.577 16.615-77.25 0z" style="fill-rule:evenodd;fill:url(#u-7);stroke-linecap:round;stroke-linejoin:round;stroke-width:.72249;stroke:url(#t-1)"/><path d="m117.53 1002.3c-3.7324-4.2556-6.0672-2.5715-13.532-2.5715s-9.7996-1.6841-13.532 2.5715c-3.7324 4.255-0.3492 4.7438 3.383 8.9994 3.7324 4.255 2.6842 6.428 10.149 6.428s6.4166-2.173 10.149-6.428c3.7324-4.2556 7.1154-4.7444 3.383-8.9994z" style="fill-rule:evenodd;fill:#4a0;stroke-width:.53957;stroke:#000"/><path d="m165.53 1002.3c-3.7324-4.2556-6.0672-2.5715-13.532-2.5715s-9.7996-1.6841-13.532 2.5715c-3.7324 4.255-0.3496 4.7439 3.383 8.9994 3.7324 4.255 2.6842 6.428 10.149 6.428s6.4166-2.173 10.149-6.428c3.7324-4.2555 7.1154-4.7444 3.383-8.9994z" style="fill-rule:evenodd;fill:#4a0;stroke-width:.53967;stroke:#000"/><path d="m86.057 985.66c-0.2848 0.688-1.2548 1.0452-1.9979 0.9988-1.1982-0.076-1.8068-1.8384-2.9968-1.9976-1.0436-0.14-2.5938 0.04-2.9968 0.9988-0.2848 0.688 0.47244 1.4712 0.99892 1.998s1.2732 0.8276 1.9979 0.9988c0.9722 0.228 2.4915-0.862 2.9968 0 0.65068 1.1096-0.916 2.5204-1.884 3.3676-1.1087 0.9704-2.6368 1.5864-4.1096 1.6272-2.1051 0.056-4.32-0.72-5.9936-1.998-0.95408-0.7288-1.4704-1.9184-1.9979-2.9968-0.4626-0.946-0.91656-1.9472-0.99892-2.9968-0.1584-2.0192-0.3748-4.5056 0.99892-5.9936 1.8626-2.0176 5.2477-2.1032 7.9915-1.998 2.1044 0.08 4.5045 0.5088 5.9936 1.998s2.8038 4.048 1.9979 5.9936z" style="fill-rule:evenodd;fill:#55d400;stroke-linecap:round;stroke-linejoin:round;stroke-width:.92961;stroke:#000"/><path d="m169.97 985.66c0.2848 0.688 1.2547 1.0452 1.9978 0.9988 1.1983-0.076 1.8069-1.8384 2.9968-1.9976 1.0437-0.14 2.5939 0.04 2.9968 0.9988 0.2848 0.688-0.47244 1.4712-0.99892 1.998s-1.2732 0.8276-1.9979 0.9988c-0.9722 0.228-2.4915-0.862-2.9968 0-0.65068 1.1096 0.916 2.5204 1.884 3.3676 1.1088 0.9704 2.6368 1.5864 4.1096 1.6272 2.1052 0.056 4.32-0.72 5.9936-1.998 0.95412-0.7288 1.4704-1.9184 1.9979-2.9968 0.46264-0.946 0.91656-1.9472 0.99892-2.9968 0.1584-2.0192 0.3748-4.5056-0.99892-5.9936-1.8626-2.0176-5.2477-2.1032-7.9915-1.998-2.1044 0.08-4.5045 0.5088-5.9936 1.998s-2.8038 4.048-1.9978 5.9936z" style="fill-rule:evenodd;fill:#55d400;stroke-linecap:round;stroke-linejoin:round;stroke-width:.92961;stroke:#000"/><path transform="matrix(-.52752 0 0 -.45001 85.813 953.08)" d="m-39.602 71.324c-11.143 19.3-18.113 11.662-40.398 11.662s-29.255 7.6377-40.398-11.662-1.0431-21.517 10.1-40.817 8.0133-29.155 30.299-29.155 19.156 9.8552 30.299 29.155 21.242 21.517 10.1 40.817z" style="fill-rule:evenodd;fill:#250;stroke-linecap:round;stroke-linejoin:round;stroke-width:1.908;stroke:url(#r-0)"/><path d="m187.94 925.74c-1.6696 1.3776-2.2289 3.7551-4.4688 7.1562-3.7326 5.6684-7.1074 6.3324-3.375 12 3.4366 5.219 5.7443 3.7374 11.906 3.4688-0.52038-6.3227-2.2211-11.801-4.0625-22.625z" style="fill-rule:evenodd;fill:#55d400;stroke-width:.62284;stroke:#000"/><path d="m122.22 1048.1c-5.0248 5.4376-8.1681 3.2856-18.218 3.2856s-13.193 2.152-18.218-3.2856-0.4704-6.0624 4.5544-11.5 3.6136-8.214 13.663-8.214 8.6385 2.7768 13.663 8.214 9.5792 6.0628 4.5544 11.5z" style="fill-rule:evenodd;fill:#55d400;stroke-width:.70771;stroke:#000"/><path d="m104.78 904.32c-5.0248-7.5572-8.1681-4.5664-18.218-4.5664s-13.193-2.9908-18.218 4.5664-0.4704 8.426 4.5544 15.983 3.6136 11.416 13.663 11.416 8.6385-3.8592 13.663-11.416 9.5792-8.4256 4.5544-15.983z" style="fill-rule:evenodd;fill:#fc0;stroke-width:.83432;stroke:#000"/><path d="m187.66 904.32c-5.0248-7.5572-8.1681-4.5664-18.218-4.5664s-13.193-2.9908-18.218 4.5664-0.4704 8.426 4.5544 15.983 3.6136 11.416 13.663 11.416 8.6385-3.8592 13.663-11.416 9.5792-8.4256 4.5544-15.983z" style="fill-rule:evenodd;fill:#fc0;stroke-width:.83432;stroke:#000"/><path d="m122.22 1037.8c-5.0248-5.4376-8.1681-3.2856-18.218-3.2856s-13.193-2.152-18.218 3.2856-0.4704 6.0624 4.5544 11.5 3.6136 0.212 13.663 0.212 8.6385 5.2232 13.663-0.212 9.5792-6.0628 4.5544-11.5z" style="fill-rule:evenodd;fill:#4a0;stroke-width:.70771;stroke:#000"/><path d="m120 1049.3c-4.4215 3.7784-7.1874 2.2832-16.03 2.2832s-11.609 1.4952-16.03-2.2832-0.41368-4.2128 4.0076-7.9916 3.1798 2.2832 12.023 2.2832 7.6013-6.062 12.023-2.2832 8.4291 4.2128 4.0076 7.9916z" style="fill-rule:evenodd;fill:#d4aa00;stroke-width:.55341;stroke:#000"/><path d="m170.22 1048.1c-5.0248 5.4376-8.1681 3.2856-18.218 3.2856s-13.193 2.152-18.218-3.2856-0.4704-6.0624 4.5544-11.5 3.6136-8.214 13.663-8.214 8.6385 2.7768 13.663 8.214 9.5792 6.0628 4.5544 11.5z" style="fill-rule:evenodd;fill:#55d400;stroke-width:.70771;stroke:#000"/><path d="m170.22 1037.8c-5.0248-5.4376-8.1681-3.2856-18.218-3.2856s-13.193-2.152-18.218 3.2856-0.4704 6.0624 4.5544 11.5 3.6136 0.212 13.663 0.212 8.6385 5.2232 13.663-0.212 9.5792-6.0628 4.5544-11.5z" style="fill-rule:evenodd;fill:#4a0;stroke-width:.70771;stroke:#000"/><path d="m168 1049.3c-4.436 3.7784-7.211 2.2832-16.083 2.2832s-11.647 1.4952-16.083-2.2832-0.41548-4.2128 4.0208-7.9916 3.1902 2.2832 12.062 2.2832 7.6263-6.062 12.062-2.2832 8.4568 4.2128 4.0207 7.9916z" style="fill-rule:evenodd;fill:#d4aa00;stroke-width:.55431;stroke:#000"/><path d="m90.507 1047c3.7324 4.2508 6.0672 2.5684 13.532 2.5684s9.7996 1.6824 13.532-2.5684 0.3496-4.74-3.383-8.9908-2.6447-1.6704-10.11-1.6704-6.4562-2.5804-10.189 1.6704-7.1154 4.7396-3.383 8.9908z" style="fill-rule:evenodd;fill:#a80;stroke-width:.5393;stroke:#000"/><path d="m165.52 1047c-3.7324 4.2508-6.0672 2.5684-13.532 2.5684s-9.7996 1.6824-13.532-2.5684-0.3496-4.74 3.383-8.9908 2.6958-1.6704 10.161-1.6704 6.405-2.5804 10.137 1.6704 7.1154 4.7396 3.383 8.9908z" style="fill-rule:evenodd;fill:#a80;stroke-width:.5393;stroke:#000"/><path transform="matrix(.50001 0 0 .50001 76 804.36)" d="m16 216c0 4.4183-3.5817 8-8 8s-8-3.5817-8-8 3.5817-8 8-8 8 3.5817 8 8z" style="fill-rule:evenodd;fill:url(#a-8);stroke-width:.9306;stroke:url(#b-8)"/><path transform="matrix(.50001 0 0 .50001 172 804.36)" d="m16 216c0 4.4183-3.5817 8-8 8s-8-3.5817-8-8 3.5817-8 8-8 8 3.5817 8 8z" style="fill-rule:evenodd;fill:url(#a-8);stroke-width:.9306;stroke:url(#b-8)"/><path transform="matrix(.50001 0 0 .50001 160 804.36)" d="m16 216c0 4.4183-3.5817 8-8 8s-8-3.5817-8-8 3.5817-8 8-8 8 3.5817 8 8z" style="fill-rule:evenodd;fill:url(#a-8);stroke-width:.9306;stroke:url(#b-8)"/><path transform="matrix(.50001 0 0 .50001 88 804.36)" d="m16 216c0 4.4183-3.5817 8-8 8s-8-3.5817-8-8 3.5817-8 8-8 8 3.5817 8 8z" style="fill-rule:evenodd;fill:url(#a-8);stroke-width:.9306;stroke:url(#b-8)"/><path transform="matrix(.50001 0 0 .50001 112 768.36)" d="m16 216c0 4.4183-3.5817 8-8 8s-8-3.5817-8-8 3.5817-8 8-8 8 3.5817 8 8z" style="fill-rule:evenodd;fill:url(#a-8);stroke-width:.9306;stroke:url(#b-8)"/><path transform="matrix(.50001 0 0 .50001 136 768.36)" d="m16 216c0 4.4183-3.5817 8-8 8s-8-3.5817-8-8 3.5817-8 8-8 8 3.5817 8 8z" style="fill-rule:evenodd;fill:url(#a-8);stroke-width:.9306;stroke:url(#b-8)"/><path transform="matrix(.48297 -.12941 .09706 .36224 87.171 730.15)" d="m16 216c0 4.4183-3.5817 8-8 8s-8-3.5817-8-8 3.5817-8 8-8 8 3.5817 8 8z" style="fill-rule:evenodd;fill:url(#a-8);stroke-width:.9306;stroke:url(#b-8)"/><path transform="matrix(.48297 .12941 -.09706 .36224 161.1 728.08)" d="m16 216c0 4.4183-3.5817 8-8 8s-8-3.5817-8-8 3.5817-8 8-8 8 3.5817 8 8z" style="fill-rule:evenodd;fill:url(#a-8);stroke-width:.9306;stroke:url(#b-8)"/><path transform="matrix(.50001 0 0 .37502 124 726.36)" d="m16 216c0 4.4183-3.5817 8-8 8s-8-3.5817-8-8 3.5817-8 8-8 8 3.5817 8 8z" style="fill-rule:evenodd;fill:url(#a-8);stroke-width:.9306;stroke:url(#b-8)"/><path transform="matrix(.50001 0 0 .50001 148 900.36)" d="m16 216c0 4.4183-3.5817 8-8 8s-8-3.5817-8-8 3.5817-8 8-8 8 3.5817 8 8z" style="fill-rule:evenodd;fill:url(#a-8);stroke-width:.9306;stroke:url(#b-8)"/><path transform="matrix(.50001 0 0 .50001 100 900.36)" d="m16 216c0 4.4183-3.5817 8-8 8s-8-3.5817-8-8 3.5817-8 8-8 8 3.5817 8 8z" style="fill-rule:evenodd;fill:url(#a-8);stroke-width:.9306;stroke:url(#b-8)"/><path transform="matrix(.50001 0 0 .50001 176 832.36)" d="m16 216c0 4.4183-3.5817 8-8 8s-8-3.5817-8-8 3.5817-8 8-8 8 3.5817 8 8z" style="fill-rule:evenodd;fill:url(#a-8);stroke-width:.9306;stroke:url(#b-8)"/><path d="m160 948.36s-12.31 12.026-32 12.026-32-12.026-32-12.026c-7.922 4.5606 0.06771 24.273 0.06771 24.273s3.2397 2.0583 5.1626 3.1654c9.8449 5.6676 7.08 8.562 26.77 8.562s16.925-2.8944 26.77-8.562c2.1087-1.2141 5.5881-3.4575 5.5881-3.4575s7.3783-19.527-0.35784-23.98z" style="fill-rule:evenodd;fill:#0a0;stroke-linecap:round;stroke-linejoin:round;stroke-width:1.0116;stroke:#000"/><path d="m68.062 925.74c1.6696 1.3776 2.2289 3.7551 4.4688 7.1562 3.7326 5.6684 7.1074 6.3324 3.375 12-3.4366 5.219-5.7443 3.7374-11.906 3.4688 0.52038-6.3227 2.2211-11.801 4.0625-22.625z" style="fill-rule:evenodd;fill:#55d400;stroke-width:.62284;stroke:#000"/><path transform="matrix(.50001 0 0 .50001 72 832.36)" d="m16 216c0 4.4183-3.5817 8-8 8s-8-3.5817-8-8 3.5817-8 8-8 8 3.5817 8 8z" style="fill-rule:evenodd;fill:url(#a-8);stroke-width:.9306;stroke:url(#b-8)"/></g><g transform="matrix(.026374 0 0 .026374 101.06 175.49)" style="stroke-width:9.3358"><path transform="matrix(.47133 0 0 .47133 -35.562 -111.62)" d="m700 579.51a287.14 287.14 0 1 1-574.29 0 287.14 287.14 0 1 1 574.29 0z" style="filter:url(#i-5);stroke-width:9.3358"/><path transform="matrix(.47133 0 0 .47133 -40.747 -120.11)" d="m700 579.51a287.14 287.14 0 1 1-574.29 0 287.14 287.14 0 1 1 574.29 0z" style="fill:url(#f-8);stroke-linecap:round;stroke-linejoin:round;stroke-width:46.678;stroke:url(#c-4)"/><path transform="matrix(.43285 0 0 .43285 -24.862 -97.812)" d="m700 579.51a287.14 287.14 0 1 1-574.29 0 287.14 287.14 0 1 1 574.29 0z" style="fill:none;stroke-linecap:round;stroke-linejoin:round;stroke-width:50.828;stroke:url(#d-9)"/><g transform="translate(-230.01,-366.5)" style="stroke-width:9.3358"><path d="m294.32 487.12h179.06c9.5653 0 17.266 7.7006 17.266 17.266v30.284c0 9.5653-7.7006 17.266-17.266 17.266h-179.06c-9.5653 0-17.266-7.7006-17.266-17.266v-30.284c0-9.5653 7.7006-17.266 17.266-17.266z" style="fill:#fff;stroke-width:9.3358"/></g><g transform="translate(-230.01,-366.5)" style="stroke-width:9.3358"><path d="m216.99 352.68v333.71h333.71v-333.71zm83.916 140.49h165.89c9.9301 0 17.921 0.71102 17.921 10.641v31.438c-1e-5 9.9301-7.9908 10.641-17.921 10.641h-165.89c-9.9301 0-17.936-0.71101-17.936-10.641v-31.438c0-9.9301 8.0061-10.641 17.936-10.641z" clip-path="url(#k-4)" style="fill:#5d90d6;filter:url(#j-4);opacity:.63054;stroke-width:9.3358"/></g><path transform="matrix(.47133 0 0 .47133 -40.747 -120.11)" d="m699.61 594.54c-7.8281 151.52-133.3 272.11-286.76 272.11-53.966 0-104.47-14.912-147.61-40.838 16.638 5.8804 34.788-6.0324 7.7523-25.668 45.466-6.9287 133.35-20.693 204.31-70.569 111.54-78.405 132.92-138.92 196.81-147.32-2.2565 44.289 23.879 15.505 25.499 12.288z" style="fill:url(#b-7);filter:url(#g-9);opacity:.18719;stroke-width:9.3358"/></g></g></g></svg>
