<?xml version="1.0" encoding="UTF-8"?>
<svg width="163.46mm" height="232.88mm" version="1.1" viewBox="0 0 163.46 232.88" xmlns="http://www.w3.org/2000/svg"><defs><clipPath id="clipPath1165"><path d="m1928.6 1742.1h17.77v-92.97h-17.77z"/></clipPath><clipPath id="clipPath1181"><path d="m1977.3 1761.9h20.16v-112.26h-20.16z"/></clipPath><clipPath id="clipPath1197"><path d="m2025.4 1734h24.67v-85.26h-24.67z"/></clipPath><clipPath id="clipPath1213"><path d="m2071.1 1766.3h12.2v-113.14h-12.2z"/></clipPath><clipPath id="clipPath1229"><path d="m2110.7 1757.3h12.83v-102.29h-12.83z"/></clipPath><clipPath id="clipPath1245"><path d="m1911.4 1852.2h248.74v-42.05h-248.74z"/></clipPath><clipPath id="clipPath1261"><path d="m1872.8 1637.3h377.83v-39.71h-377.83z"/></clipPath><clipPath id="clipPath1305"><path d="m2049.8 1795.5h463.34v-660.13h-463.34z"/></clipPath><clipPath id="clipPath1333"><path d="m2081.8 1625.2h14.29v-20.61h-14.29z"/></clipPath><clipPath id="clipPath1349"><path d="m2096.7 1641.4h10.53v-20.99h-10.53z"/></clipPath><clipPath id="clipPath1365"><path d="m2111.6 1656h9.38v-17.46h-9.38z"/></clipPath><clipPath id="clipPath1381"><path d="m2103.7 1610.5h24.11v-45.73h-24.11z"/></clipPath><clipPath id="clipPath1397"><path d="m2081.9 1653.6h18.15v-38.28h-18.15z"/></clipPath><clipPath id="clipPath1413"><path d="m2099.4 1653.1h18.03v-33.79h-18.03z"/></clipPath><clipPath id="clipPath1429"><path d="m2104.4 1576.1h33.02v-95.92h-33.02z"/></clipPath><clipPath id="clipPath1453"><path d="m2094.7 1548.8h101.81v-139.63h-101.81z"/></clipPath><clipPath id="clipPath1473"><path d="m2097.9 1577.6h11.22v-62.55h-11.22z"/></clipPath><clipPath id="clipPath1493"><path d="m2105.2 1533.7h41.11v-17.99h-41.11z"/></clipPath><clipPath id="clipPath1513"><path d="m2108.7 1505.6h45.49v-10.37h-45.49z"/></clipPath><clipPath id="clipPath1529"><path d="m2112 1479.5h40.04v-9.74h-40.04z"/></clipPath><clipPath id="clipPath1545"><path d="m2127.4 1521h21.32v-7.16h-21.32z"/></clipPath><clipPath id="clipPath1561"><path d="m2127.6 1493.5h20.03v-6.43h-20.03z"/></clipPath><clipPath id="clipPath1577"><path d="m2119 1543.6h20.7v-6.8h-20.7z"/></clipPath><clipPath id="clipPath1605"><path d="m2182.7 1353.7h253.53v-218.33h-253.53z"/></clipPath><clipPath id="clipPath1609"><path d="m2182.7 1353.7h253.53v-218.33h-253.53z"/></clipPath><clipPath id="clipPath1633"><path d="m2182.7 1538.3h253.53v-402.99h-253.53z"/></clipPath><clipPath id="clipPath1637"><path d="m2182.7 1538.3h253.53v-402.99h-253.53z"/></clipPath><clipPath id="clipPath1665"><path d="m2021.8 1774.1h371.87v-39.39h-371.87z"/></clipPath><clipPath id="clipPath2005"><path d="m2214.6 1666.4h53.97v-74.98h-53.97z"/></clipPath><clipPath id="clipPath2029"><path d="m2197.3 1566.8h66.85v-34.26h-66.85z"/></clipPath><clipPath id="clipPath2049"><path d="m2262.3 1567.6h70.82v-35.55h-70.82z"/></clipPath><clipPath id="clipPath2069"><path d="m2227.2 1586h21.77v-12.38h-21.77z"/></clipPath><clipPath id="clipPath2089"><path d="m2240.9 1503.3h42v-11.81h-42z"/></clipPath><clipPath id="clipPath2121"><path d="m2233.4 1593.7h10.79v-9.45h-10.79z"/></clipPath><clipPath id="clipPath2141"><path d="m2245.1 1629.9h26.67v-53.42h-26.67z"/></clipPath><clipPath id="clipPath2157"><path d="m2242.1 1586.7h42.18v-30.48h-42.18z"/></clipPath><clipPath id="clipPath2173"><path d="m2242.1 1586h42.92v-29.79h-42.92z"/></clipPath><clipPath id="clipPath2193"><path d="m2281.3 1580.3h27.44v-12.39h-27.44z"/></clipPath><clipPath id="clipPath2209"><path d="m2255.3 1574.5h4.86v-5.28h-4.86z"/></clipPath><clipPath id="clipPath2225"><path d="m2272.7 1674.6h63.22v-88.54h-63.22z"/></clipPath><clipPath id="clipPath2257"><path d="m2289.3 1588.3h10.8v-9.44h-10.8z"/></clipPath><clipPath id="clipPath2341"><path d="m2325.8 1577.8h33.97v-32.53h-33.97z"/></clipPath><clipPath id="clipPath2357"><path d="m2325.8 1640.2h33.78v-129.87h-33.78z"/></clipPath><clipPath id="clipPath2373"><path d="m2328.2 1614.4h36.74v-29.91h-36.74z"/></clipPath><clipPath id="clipPath2389"><path d="m2382.6 1558.1h100.41v-177.98h-100.41z"/></clipPath><clipPath id="clipPath2413"><path d="m2349 1535.5h11.53v-42.75h-11.53z"/></clipPath><clipPath id="clipPath2433"><path d="m2307.5 1495.5h38.48v-20.39h-38.48z"/></clipPath><clipPath id="clipPath2453"><path d="m2299.7 1468.5h41.57v-17.64h-41.57z"/></clipPath><clipPath id="clipPath2473"><path d="m2301.1 1443.3h74.17v-16.33h-74.17z"/></clipPath><clipPath id="clipPath2493"><path d="m2421 1557.7h34.39v-140.39h-34.39z"/></clipPath><clipPath id="clipPath2509"><path d="m2374.5 1437.7h108.5v-60.39h-108.5z"/></clipPath><clipPath id="clipPath2525"><path d="m2305.3 1477.8h21.32v-7.16h-21.32z"/></clipPath><clipPath id="clipPath2541"><path d="m2306.6 1451.1h20.03v-6.45h-20.03z"/></clipPath><clipPath id="clipPath2557"><path d="m2312.9 1501.4h20.71v-6.75h-20.71z"/></clipPath><clipPath id="clipPath2605"><path d="m1850.2 1364.4h639v-162.8h-639z"/></clipPath><clipPath id="clipPath3289"><path d="m1949 1438.5h91.26v-111.69h-91.26z"/></clipPath></defs><g transform="translate(-12.16 45.066)"><g transform="matrix(.35278 0 0 -.35278 -701.07 588.34)"><g clip-path="url(#clipPath1165)" style="opacity:.35001"></g></g><g transform="matrix(.35278 0 0 -.35278 -701.07 588.34)"><g clip-path="url(#clipPath1181)" style="opacity:.35001"></g></g><g transform="matrix(.35278 0 0 -.35278 -701.07 588.34)"><g clip-path="url(#clipPath1197)" style="opacity:.35001"></g></g><g transform="matrix(.35278 0 0 -.35278 -701.07 588.34)"><g clip-path="url(#clipPath1213)" style="opacity:.35001"></g></g><g transform="matrix(.35278 0 0 -.35278 -701.07 588.34)"><g clip-path="url(#clipPath1229)" style="opacity:.35001"></g></g><g transform="matrix(.35278 0 0 -.35278 -701.07 588.34)"><g clip-path="url(#clipPath1245)" style="opacity:.35001"></g></g><g transform="matrix(.35278 0 0 -.35278 -701.07 588.34)"><g clip-path="url(#clipPath1261)" style="opacity:.36"></g></g><g transform="matrix(.35278 0 0 -.35278 -701.07 588.34)"><g clip-path="url(#clipPath1305)" style="opacity:.36"></g></g><g transform="matrix(.35278 0 0 -.35278 41.845 48.988)"><path d="m 0,0 c -8.412,-1.512 -17.275,9.562 -26.044,-13.061 -6.158,-15.889 5.854,-38.468 11.115,-42.775 3.335,-2.73 15.889,-4.049 23.355,0.672 7.465,4.722 4.54,17.352 3.897,21.352 C 11.68,-29.813 0,0 0,0" style="fill:#d5912f"/></g><g transform="matrix(.35278 0 0 -.35278 40.938 69.436)"><path d="M 0,0 C 0.584,-0.031 1.651,-0.087 3.093,-0.157 2.135,0.262 1.175,0.52 0,0" style="fill:#d5912f"/></g><g transform="matrix(.35278 0 0 -.35278 44.32 63.764)"><path d="m0 0c-3.698 10.465-4.476 101.02-13.56 101.68-9.796 0.714-13.588 9.352-18.111 29.908-5.857 26.62 0.83 38.682 4.651 26.934 2.965-9.119 3.941-31.912 11.848-27.218 3.268 1.94-7.589 34.577-1.863 35.361 8.663 1.186 11.512-31.638 15.055-32.409 11.8-2.566-1.083 26.327 0.803 33.01 1.885 6.683 6.364 0.276 11.727-15.824 5.695-17.099 6.538-41.051-1.872-45.219-12.628-6.259 17.572-93.715 15.774-104.03-1.797-10.315-20.754-12.656-24.452-2.191" style="fill:#afc3ce"/></g><g transform="matrix(.35278 0 0 -.35278 -701.07 588.34)"><g clip-path="url(#clipPath1333)" style="opacity:.39"><g transform="translate(2090.4 1625.2)"><path d="m0 0c-2.816-3.064-5.682-6.083-8.598-9.056 1.016-4.44 2.01-8.269 3.057-11.55 3.889 4.294 7.577 8.705 11.234 13.123-2.648-0.311-4.379 2.954-5.693 7.483" style="fill:#fff"/></g></g></g><g transform="matrix(.35278 0 0 -.35278 -701.07 588.34)"><g clip-path="url(#clipPath1349)" style="opacity:.39"><g transform="translate(2096.7 1632.2)"><path d="m 0,0 c 0.913,-4.799 1.718,-9.218 1.681,-11.761 2.913,3.523 5.835,7.032 8.842,10.478 C 9.681,2.019 8.762,5.753 7.701,9.228 5.186,6.104 2.627,3.021 0,0" style="fill:#fff"/></g></g></g><g transform="matrix(.35278 0 0 -.35278 -701.07 588.34)"><g clip-path="url(#clipPath1365)" style="opacity:.39"><g transform="translate(2121 1645.2)"><path d="m0 0c-2.136 5.496-4.066 9.162-5.659 10.74-1.219-1.729-2.461-3.437-3.716-5.132 0.334-3.253 1.476-7.777 2.504-12.322 2.209 2.294 4.485 4.542 6.871 6.714" style="fill:#fff"/></g></g></g><g transform="matrix(.35278 0 0 -.35278 -701.07 588.34)"><g clip-path="url(#clipPath1381)" style="opacity:.39"><g transform="translate(2103.7 1579.8)"><path d="m 0,0 c 0.888,-4.008 1.656,-9.137 2.333,-14.942 4.322,5.946 8.359,12.061 12.474,18.166 -0.049,5.391 0.835,9.105 3.089,10.222 4.138,2.05 6.031,8.893 6.214,17.348 C 17.736,19.44 9.017,9.607 0,0" style="fill:#fff"/></g></g></g><g transform="matrix(.35278 0 0 -.35278 -701.07 588.34)"><g clip-path="url(#clipPath1397)"></g></g><g transform="matrix(.35278 0 0 -.35278 -701.07 588.34)"><g clip-path="url(#clipPath1413)"></g></g><g transform="matrix(.35278 0 0 -.35278 -701.07 588.34)"><g clip-path="url(#clipPath1429)"></g></g><g transform="matrix(.35278 0 0 -.35278 39.818 61.898)"><path d="m0 0c15.211 5.438 38.61 5.313 47.337 3.112s7.708-23.903-6.96-25.287c-13.288-1.254-37.725 0.836-37.725 0.836z" style="fill:#d5912f"/></g><g transform="matrix(.35278 0 0 -.35278 73.795 48.222)"><path d="m0 0c0.065-21.511-11.309-104.54-12.169-106.62-4.156-10.385-8.299-13.092-12.266-14.505-3.969-1.412-7.909-0.988-14.172 1.72-6.262 2.708-68.586 59.212-69.78 62.618-12.056 16.789 8.502 13.257 8.502 13.257s4.299-1.905 29.869-18.721c4.406-3.094 17.875-12.264 27.442-21.874 2.309-1.818 9.337-11.748 9.543-11.945 0.047-0.02-0.011-0.025-0.084-0.034-0.062-0.01 0.012-0.108 0.012-0.108l0.43-8e-3c0.197 0.015-0.994-0.099-0.681-0.076-0.241-0.036-3.344-1.002-2.675 0.235 0.702 1.269 5.189 100.47 16.883 115.52 2.827 10.835 20.198-8.236 19.146-19.454" style="fill:#d5912f"/></g><g transform="matrix(.35278 0 0 -.35278 -701.07 588.34)"><g clip-path="url(#clipPath1453)" style="opacity:.16"><g transform="translate(2188.6 1548.7)"><path d="m0 0c-0.155-0.051-0.306-0.089-0.441-0.096-19.251-16.036 7.026-131.35-28.301-125.98-23.498 3.573-41.907 38.074-65.154 44.209 15.658-15.909 58.136-53.084 63.152-55.252 6.262-2.708 10.203-3.132 14.171-1.72 3.968 1.413 8.11 4.119 12.266 14.504 0.86 2.084 12.235 85.11 12.17 106.62 0.515 5.504-3.404 12.891-7.863 17.716" style="fill:#1d1d1b"/></g></g></g><g transform="matrix(.35278 0 0 -.35278 35.523 56.873)"><path d="m0 0c-18.857 3.215 1.862 29.553 0.71 44.672-1.065 13.977-3.751 19.214 0.929 25 3.891 4.81 11.647 1.569 14.641-4.382 5.322-10.58 5.68-17.467 3.893-31.214-1.797-13.828-3.91-20.851-6.312-25.308s-13.861-8.768-13.861-8.768" style="fill:#d5912f"/></g><g transform="matrix(.35278 0 0 -.35278 -701.07 588.34)"><g clip-path="url(#clipPath1473)" style="opacity:.14999"><g transform="translate(2104.3 1571.8)"><path d="m0 0c-1.298 2.58-3.492 4.648-5.878 5.774 12.908-16.276 3.229-37.34-0.483-53.063 3.101 1.621 2.77-11.406 3.942-9.232 2.402 4.457 4.515 11.479 6.313 25.307 1.786 13.747 1.428 20.634-3.894 31.214" style="fill:#1d1d1b"/></g></g></g><g transform="matrix(.35278 0 0 -.35278 37.858 48.265)"><path d="m0 0c13.624 7.869 32.3 14.633 40.78 14.956 13.047 0.498 15.213-23.704 2.293-23.959-12.919-0.254-37.889-9.05-37.889-9.05z" style="fill:#d5912f"/></g><g transform="matrix(.35278 0 0 -.35278 -701.07 588.34)"><g clip-path="url(#clipPath1493)" style="opacity:.14999"><g transform="translate(2140.3 1527)"><path d="m0 0c-5.147-2.461-35.691-6.336-35.066-10.284 0.625-3.949 22.269 5.041 32.451 5.242 6.278 0.123 8.984 5.901 8.621 11.752-0.943-2.299-0.859-4.249-6.006-6.71" style="fill:#1d1d1b"/></g></g></g><g transform="matrix(.35278 0 0 -.35278 39.61 54.753)"><path d="m0 0c14.406 6.204 37.604 11.367 46.026 10.241 8.421-1.126 14.551-24.93-0.242-26.27-12.87-1.165-42.616-2.513-42.616-2.513z" style="fill:#d5912f"/></g><g transform="matrix(.35278 0 0 -.35278 -701.07 588.34)"><g clip-path="url(#clipPath1513)" style="opacity:.14999"><g transform="translate(2116.3 1499.4)"><path d="m0 0c-3.938-0.98-7.988-1.073-7.535-3.274 0.352-1.712 24.562-0.735 36.6 0.355 5.748 0.521 8.327 4.436 8.85 9.092-0.613-0.665-1.273-1.211-1.941-1.585-15.205-4.917-20.639-2.471-35.974-4.588" style="fill:#1d1d1b"/></g></g></g><g transform="matrix(.35278 0 0 -.35278 -701.07 588.34)"><g clip-path="url(#clipPath1529)" style="opacity:.14999"><g transform="translate(2112 1471)"><path d="m0 0c8.832-0.429 17.925-1.941 28.51-0.942 6.102 0.576 9.834 4.669 11.493 9.41-1.833-1.584-7.315-4.354-8.681-4.418-20.25-3.924-32.07 0.097-31.322-4.05" style="fill:#1d1d1b"/></g></g></g><g transform="matrix(.35278 0 0 -.35278 -701.07 588.34)"><g clip-path="url(#clipPath1545)" style="opacity:.26"><g transform="translate(2127.4 1516.3)"><path d="m0 0c0.518 2.187 10.586 5.002 14.984 4.694 1.886-0.132 6.184-0.452 6.293-4.497 0.098-3.615-7.19-2.487-9.953-2.399-3.783 0.12-12.054-0.882-11.324 2.202" style="fill:#fff"/></g></g></g><g transform="matrix(.35278 0 0 -.35278 -701.07 588.34)"><g clip-path="url(#clipPath1561)" style="opacity:.26"><g transform="translate(2127.7 1490.2)"><path d="m0 0c0.635 1.882 10.262 3.755 14.362 3.229 1.758-0.225 5.763-0.756 5.588-4.298-0.157-3.167-6.908-1.756-9.491-1.518-3.536 0.327-11.355-0.067-10.459 2.587" style="fill:#fff"/></g></g></g><g transform="matrix(.35278 0 0 -.35278 -701.07 588.34)"><g clip-path="url(#clipPath1577)" style="opacity:.26"><g transform="translate(2119.2 1538)"><path d="M 0,0 C -1.576,2.526 10.439,6.053 14.509,5.554 18.472,5.069 22.436,2.798 19.598,0.97 16.76,-0.857 1.453,-2.329 0,0" style="fill:#fff"/></g></g></g><g transform="matrix(.35278 0 0 -.35278 62.028 81.699)"><path d="m0 0c-0.314-0.023 0.877 0.092 0.68 0.077l-0.429 7e-3s-0.074 0.098-0.012 0.108c0.073 9e-3 0.13 0.015 0.084 0.035-0.073 0.069-0.991 1.343-2.242 3.035-0.42-1.818-0.682-2.892-0.756-3.027-0.669-1.237 2.433-0.27 2.675-0.235" style="fill:#d5912f"/></g><g transform="matrix(.35278 0 0 -.35278 160.98 22.609)"><path d="m0 0c0-13.105-0.575-26.658-1.78-40.506-0.224-2.69-0.491-5.395-0.771-8.115-1.415-13.875-3.461-28.017-6.153-42.313-0.953-5.116-1.99-10.245-3.125-15.403-0.967-4.415-2.004-8.844-3.111-13.287-3.448-14.086-7.555-28.213-12.334-42.257-0.813-2.383-1.64-4.765-2.495-7.134-1.234-3.518-2.537-7.036-3.883-10.54-0.897-2.368-1.822-4.737-2.775-7.106-0.953-2.382-1.92-4.765-2.915-7.134-12.558-30.007-28.354-59.23-47.681-86.392-56.231-79.048 21.023-127.54 67.275-162.58 20.449-15.487-86.196 25.228-122.64 65.874-7.933 8.858-10.386 96.344-9.811 96.708 0.112 0.07 77.212 88.621 80.239 91.452 0.015 0.014 0.813 5.242 2.173 14.268 0.378 2.481 0.785 5.256 1.248 8.297 0.714 4.836 1.527 10.316 2.41 16.328 0.322 2.229 0.673 4.542 1.023 6.924 10.834 73.863 30.4 212.72 27.275 229.27-0.014 0.113-0.042 0.211-0.056 0.309-0.098 0.49-0.183 0.967-0.281 1.443-1.247 6.616-2.326 11.858-3.041 15.165-0.042 0.239-0.098 0.463-0.14 0.687-0.21 0.995-0.477 2.004-0.757 3.014-2.046 7.189-5.816 15.094-9.376 21.864 0 0.014-0.014 0.014-0.014 0.028-4.051 7.681-7.807 13.889-8.508 15.992-6.91 16.594-6.223 37.702 7.344 41.668 23.224 1.99 33.063-24.051 36.553-38.375 3.967-16.244 16.104-95.18 16.104-148.14" style="fill:#d5912f"/></g><g transform="matrix(.35278 0 0 -.35278 146.68 -16.012)"><path d="m0 0c-1.498 7.489-8.104 14.979-13.545 23.165-100.83 9.551-202.27 17.438-302.5 7.561-12.876-1.268-25.171-5.481-37.713-7.406 4.053-0.82 7.683-2.187 11.376-7.957 8.779-13.717 17.558-37.31 20.576-48.01 4.933-17.49 18.188-19.907 23.045-10.425 7.681 14.997 9.51 3.475 15.363-11.522 5.681-14.558 10.946-20.789 14.787-14.114 3.295 5.728 46.117-95.996 51.994-115.76 15.417-51.858 21.865-93.395 19.971-139.8-2.102-51.505-55.854-181.55 5.955-215.48 53.607-29.431 200.29-57.347 223.42-20.205 7.556 12.136-73.403 25.596-112.83 84.094-43.448 64.472 52.909 134.55 71.13 221.8 23.776 96.934 27.26 164.08 8.97 254.06" style="fill:#fcd166"/></g><g transform="matrix(.35278 0 0 -.35278 -701.07 588.34)"><g clip-path="url(#clipPath1605)" style="opacity:.5"><g clip-path="url(#clipPath1609)" style="opacity:.5"><g transform="translate(2323 1237.3)"><path d="m0 0c-16.887 25.058-12.65 50.963-0.095 78.392-26.36-19.021-56.172-27.277-83.874-3.423-14.768 12.131-26.559 26.645-37.912 41.448-12.593-60.786-39.187-152.59 11.291-180.31 53.607-29.431 200.29-57.346 223.42-20.205 7.556 12.136-73.403 25.596-112.83 84.094" style="fill:#1d1d1b"/></g></g></g></g><g transform="matrix(.35278 0 0 -.35278 -701.07 588.34)"><g clip-path="url(#clipPath1633)" style="opacity:.5"><g clip-path="url(#clipPath1637)" style="opacity:.5"><g transform="translate(2323 1237.3)"><path d="m0 0c-43.448 64.472 73.707 138.04 86.811 301.08-34.252-92.249-58.554-115.88-109.24-207.18-8.275-14.908-16.118-46.252-35.74-44.85-35.74 3.504-53.26 28.031-78.494-5.839-6.968-45.334-6.252-89.359 26.069-107.1 53.607-29.432 200.29-57.347 223.42-20.206 7.556 12.136-73.404 25.596-112.83 84.094" style="fill:#1d1d1b"/></g></g></g></g><g transform="matrix(.35278 0 0 -.35278 143.35 -23.619)"><path d="m0 0c-2.532 3.81-8.071 8.522-9.465 12.704-6.916 16.597-3.365 32.316 7.342 41.677-1.642 0.388-3.337 0.765-5.147 1.121-23.456 4.607-323.18 6.866-335.53 4.064-35.482-8.047-30.835-35.739-25.228-44.849 5.606-9.111 18.975-12.68 24.558-13.809 12.541 1.925 24.835 6.155 37.713 7.407 105.35 10.242 204.92 1.236 305.76-8.315" style="fill:#f7b359"/></g><g transform="matrix(.35278 0 0 -.35278 -701.07 588.34)"><g clip-path="url(#clipPath1665)" style="opacity:.47"><g transform="translate(2058.2 1748.7)"><path d="m0 0c-28.031-3.504-33.529 17.76-34.774 25.379-3.523-9.644-0.807-19.812 2.188-24.678 5.606-9.11 18.975-12.679 24.557-13.809 12.542 1.926 24.836 6.155 37.714 7.407 105.35 10.242 204.92 1.237 305.76-8.315-1.854 2.79-8.708 21.333-10.979 24.528-10.862-14.366-32.782-1.106-59.566 2.803-14.662 2.14-37.84-3.449-49.405-2.102-4.671 0.543-46.505 9.876-50.106 10.161-33.725 2.663-42.019-12.21-64.122-10.862-28.732 1.752-26.166 11.559-62.72 8.059-10.687-1.024-27.648-17.209-38.543-18.571" style="fill:#d5912f"/></g></g></g><g transform="matrix(.35278 0 0 -.35278 132.66 -7.563)"><path d="m0 0c-4.084-8.99-11.071-5.925-14.51-2.656-3.44 3.269-3.44 17.775 6.019 26.357 9.459 8.581 23.002 7.151 28.591 4.29 5.589-2.86 14.723-8.306 9.564-14.537-1.666-2.012-14.18 0.116-13.218-2.625 0.859-2.452 11.553-5.697 9.888-12.055-1.629-6.224-5.159-6.947-10.318-6.947-5.16 0-8.814 5.925-9.244 10.42s-6.772-2.247-6.772-2.247" style="fill:#f4ce8f"/></g><g transform="matrix(.35278 0 0 -.35278 132.55 -7.6585)"><path d="m0 0c-1.844-3.626-4.626-6.37-8.896-5.391-2.427 0.556-4.917 2.127-6.048 4.373-2.946 5.848-0.038 14.752 3.289 19.753 7.24 10.882 22.956 13.653 34.047 7.367 2.166-1.228 6.693-3.531 7.665-6.114-0.163-1.131-0.325-2.262-0.488-3.392 0.73-2.417 0.164-3.64-1.698-3.67-0.349-0.127-0.863-0.086-1.23-0.122-1.089-0.11-2.193-0.09-3.286-0.118-1.404-0.036-6.108 0.536-6.887-1.327-0.74-1.771 2.066-3.146 3.151-3.885 1.804-1.227 4.076-2.388 5.33-4.234 3.354-4.937-0.53-10.4-5.833-11.036-4.979-0.598-8.906 1.795-10.824 6.508-0.463 1.137-0.372 4.213-1.579 5.033-2.05 1.394-5.393-2.319-6.581-3.559-0.304-0.317-0.041-1.318 0.347-0.914 1.731 1.807 4.518 4.97 6.336 1.996 1.527-2.496 1.446-5.306 3.776-7.608 3.699-3.656 11.285-3.805 14.564 0.562 3.137 4.179 2.253 8.413-1.53 11.599-1.065 0.896-6.288 3.444-6.027 4.873 0.277 1.517 7.558 0.928 9.024 1.059 3.969 0.354 6.238 3.408 4.763 7.427-1.958 5.333-9.919 9.281-15.087 10.522-14.639 3.514-29.575-5.094-32.472-20.107-0.907-4.704-1.161-10.859 3.049-14.038 5.535-4.182 10.804-1.861 13.736 3.902 0.23 0.452-0.299 1.154-0.611 0.541" style="fill:#b57245"/></g><g transform="matrix(.35278 0 0 -.35278 134.8 -9.8335)"><path d="m0 0c-2.983 1.839-12.253-14.328-18.38-6.589-2.6 4.941-2.425 10.659-1.755 16.219-3.64-7.761-2.721-16.639-0.18-19.054 3.44-3.269 9.19-5.44 14.242 2.988 0 0 5.162 6.494 6.771 2.247 2.043-5.389 1.881-8.887 8.088-10.343 1.512-0.354 4.516 0.204 6.289 1.2-13.221 2.682-12.39 11.676-15.075 13.332" style="fill:#d7b077"/></g><g transform="matrix(.35278 0 0 -.35278 134.82 -8.5351)"><path d="m0 0c-1.234 1.792-2.958 3.811-5.286 4.039-0.739 0.072-1.519-0.052-2.174-0.413-0.374-0.206-0.707-0.482-0.965-0.824-0.045-0.061-0.613-1.044-0.635-1.007-0.013-0.238-0.026-0.476-0.039-0.713l0.09 0.071c0.097 0.078 0.109 0.749-0.014 0.719-0.03-8e-3 -0.061-0.015-0.091-0.023-0.189-0.046-0.12-0.607-0.068-0.727 0.024-0.054 0.047-0.108 0.071-0.162 9e-3 -0.03 0.028-0.049 0.057-0.057 0.476 0.2 0.602 1.008 0.96 1.369 0.657 0.661 1.656 0.951 2.567 0.926 2.299-0.062 4.071-1.946 5.494-3.546 0.03-0.034 0.082 0.277 0.033 0.348" style="fill:#b57245"/></g><g transform="matrix(.35278 0 0 -.35278 139.15 -10.648)"><path d="m0 0c-0.975 0.908-2.361 1.811-2.973 3.03-1.348 2.687 0.677 3.846 2.965 3.34 0.174-0.038 0.185 0.363 0.082 0.435-1.644 1.162-3.886-0.11-4.022-2.052-0.147-2.095 2.106-4.264 3.883-4.985 0.112-0.045 0.121 0.18 0.065 0.232" style="fill:#b57245"/></g><g transform="matrix(.35278 0 0 -.35278 139.35 -16.239)"><path d="m0 0c2.419-1.226 3.891-1.87 5.221-3.188 0.587-0.581 1.071-1.546 0.489-2.131-0.453-0.456-1.24-0.333-1.861-0.124-2.449 0.824-4.51 2.422-6.782 3.62-2.271 1.197-5.043 1.993-7.446 1.057 3.124 2.911 6.832 1.916 10.379 0.766" style="fill:#fce2c0"/></g><g transform="matrix(.35278 0 0 -.35278 110.05 161.46)"><path d="m0 0c2.686-12.187 11.367-10.052 16.031-6.809 4.665 3.244 8.548 19.183-1.052 34.293-8.476 13.341-24.761 14.457-31.797 12.24-7.036-2.216-17.055-6.842-12.526-15.851 1.461-2.908 14.616-3.231 12.908-6.415-1.528-2.847-13.444-3.906-13.998-12.636-0.497-7.819 4.37-9.9 10.279-11.144s11.408 5.258 12.897 10.755 7.258-4.433 7.258-4.433" style="fill:#f4ce8f"/></g><g transform="matrix(.35278 0 0 -.35278 109.97 161.56)"><path d="m0 0c1.52-5.982 5.196-11.071 12.019-9.133 5.964 1.695 8.206 6.786 9.041 12.543 2.598 17.909-9.373 36.026-27.805 37.844-6.914 0.682-14.717-1.205-20.097-5.779-3.261-2.773-5.427-8.545-2.071-12.245 1.563-1.722 4.837-2.025 6.957-2.605 1.388-0.38 4.53-0.594 5.042-2.181 0.491-1.524-2.523-2.338-3.808-2.937-5.336-2.488-10.001-5.474-9.768-11.978 0.26-7.225 8.763-12.467 15.495-9.471 4.031 1.794 5.836 5.535 7.792 9.177 1.661 3.092 2.574 2.789 4.754 0.233 0.936-1.098 1.753-2.333 2.487-3.575 0.297-0.504 0.534 0.456 0.368 0.737-0.937 1.588-3.572 6.548-5.916 6.247-1.037-0.132-1.102-0.779-1.596-1.525-1.491-2.252-1.61-4.384-3.452-6.606-1.706-2.056-4.127-4.003-6.869-4.365-3.009-0.398-7.232 0.903-9.583 2.851-5.9 4.888-2.443 12.525 3.068 15.64 1.894 1.071 7.701 2.338 8.086 5.014 0.364 2.528-3.402 3.067-5.152 3.549-2.065 0.569-5.808 0.8-7.326 2.44-1.503 1.623-0.978 7.472 0.144 9.127 0.512 0.753 1.806 1.746 2.342 2.143 1.398 1.037 2.967 1.841 4.55 2.552 12.522 5.622 28.119 1.76 35.956-9.795 5.449-8.035 10.336-24.791 2.459-33.109-1.828-1.93-4.958-3.199-7.575-3.321-5.423-0.254-7.914 4.389-9.098 9.051-0.168 0.661-0.535-0.164-0.444-0.523" style="fill:#b57245"/></g><g transform="matrix(.35278 0 0 -.35278 108.1 158.12)"><path d="m0 0c3.824 1.572 10.859-20.807 19.592-12.642 4.073 5.531 5.14 12.697 5.605 19.786 2.449-10.548-0.572-21.388-4.018-23.785-4.664-3.244-11.731-4.562-15.65 7.157 0 0-4.473 9.337-7.258 4.434-3.533-6.223-5.379-9.598-12.811-9.915-1.81-0.077-3.871 0.32-5.681 1.989 15.737 0.153 16.779 11.561 20.221 12.976" style="fill:#d7b077"/></g><g transform="matrix(.35278 0 0 -.35278 107.79 159.87)"><path d="m0 0c1.876 1.582 4.241 3.516 6.867 3.201 1.007-0.12 2.036-0.621 2.693-1.405 0.555-0.662 0.438-1.857 1.068-2.341 0.042-0.033 0.061 5e-3 0.083 0.04 0.038 0.06 0.077 0.12 0.115 0.181 0.069 0.108 0.128 0.632-0.012 0.714l-0.096 0.057c-0.122 0.072-0.155-0.598-0.063-0.704 0.031-0.035 0.061-0.07 0.092-0.105 4e-3 0.251 9e-3 0.502 0.013 0.753 0.121 0.148-0.872 1.958-1.124 2.254-0.633 0.743-1.54 1.201-2.494 1.358-2.836 0.47-5.375-1.758-7.161-3.654-0.057-0.061-0.017-0.38 0.019-0.349" style="fill:#b57245"/></g><g transform="matrix(.35278 0 0 -.35278 103.32 156.15)"><path d="m0 0c2.249 0.581 5.163 2.673 5.47 5.168 0.272 2.216-1.787 4.584-4.073 3.556-0.126-0.057-0.148-0.474 0.026-0.461 0.813 0.062 1.624 0.089 2.358-0.332 1.742-1 1.373-3.441 0.209-4.73-1.131-1.253-2.618-2.059-4.023-2.955-0.07-0.044-0.081-0.275 0.033-0.246" style="fill:#b57245"/></g><g transform="matrix(.35278 0 0 -.35278 115.08 157.24)"><path d="m0 0c-0.629-3.42-0.898-5.468-1.958-7.566-0.467-0.924-1.39-1.851-2.215-1.323-0.642 0.41-0.744 1.43-0.7 2.273 0.174 3.323 1.324 6.423 1.965 9.652 0.641 3.228 0.687 6.942-1.076 9.618 4.171-2.908 4.187-7.855 3.984-12.654" style="fill:#fce2c0"/></g><g transform="matrix(.35278 0 0 -.35278 98.985 86.067)"><path d="m0 0c4.202-11.75 12.545-8.537 16.763-4.731 4.217 3.807 6.058 20.108-5.372 33.886-10.092 12.165-26.388 11.216-33.088 8.129-6.7-3.086-16.055-8.94-10.426-17.305 1.817-2.701 14.908-1.36 13.615-4.735-1.157-3.018-14.204-5.939-13.652-14.669 0.494-7.82 6.944-8.901 12.964-9.39 6.019-0.488 10.654 6.656 11.436 12.297 0.784 5.641 7.76-3.482 7.76-3.482" style="fill:#f4ce8f"/></g><g transform="matrix(.35278 0 0 -.35278 98.918 86.197)"><path d="m0 0c2.548-6.439 7.58-10.627 14.351-6.801 4.861 2.746 6.056 7.915 6.116 13.199 0.209 18.274-14.312 34.679-33.017 33.732-6.956-0.353-14.966-3.48-19.294-9.157-2.758-3.617-3.166-10.512 1.921-12.295 2.61-0.915 5.535-0.754 8.229-1.303 6.276-1.279-0.983-4.426-3.315-5.912-4.637-2.954-8.349-6.944-6.883-12.79 1.774-7.077 12.73-10.02 18.411-5.91 3.543 2.564 4.068 6.124 5.921 9.672 2.498 4.784 5.576 0.106 7.611-2.518 0.276-0.356 0.478 0.643 0.276 0.903-1.145 1.476-4.364 5.961-6.662 5.374-1.119-0.286-1.172-1.249-1.482-2.2-1.562-4.782-3.313-10.312-8.91-11.648-3.057-0.73-7.494 0.025-10.286 1.434-6.618 3.339-5.102 11.4 0.055 15.268 2.122 1.593 8.073 3.462 8.857 6.296 0.719 2.594-2.645 2.925-4.452 3.224-2.426 0.401-5.691 0.182-7.909 1.349-3.46 1.821-3.145 7.432-1.137 10.144 1.346 1.819 3.299 3.215 5.181 4.423 12.573 8.066 29.88 5.277 38.959-6.798 5.523-7.346 11.071-21.357 5.417-30.172-1.572-2.452-4.796-4.348-7.679-4.741-5.239-0.713-8.184 3.626-9.901 7.964-0.21 0.531-0.496-0.438-0.378-0.737" style="fill:#b57245"/></g><g transform="matrix(.35278 0 0 -.35278 96.628 82.994)"><path d="m0 0c3.595 2.042 13.398-19.27 21.031-10.068 3.342 6 3.496 13.244 3.063 20.335 3.76-10.155 2.132-21.29-0.984-24.102-4.217-3.806-11.062-6.006-16.428 5.125 0 0-5.616 8.697-7.759 3.482-2.72-6.619-4.125-10.199-11.458-11.452-1.786-0.305-3.88-0.172-5.887 1.255 15.592 2.139 15.186 13.587 18.422 15.425" style="fill:#d7b077"/></g><g transform="matrix(.35278 0 0 -.35278 96.542 84.767)"><path d="m0 0c1.694 1.855 3.876 4.124 6.615 4.011 1.263-0.052 2.276-0.617 2.985-1.631 0.328-0.469 0.428-1.297 0.942-1.593 0.082-0.047 0.134 0.039 0.165 0.103 0.03 0.063 0.06 0.127 0.09 0.191 0.059 0.124 0.119 0.581-0.059 0.654-0.035 0.015-0.071 0.03-0.107 0.044-0.243 0.101-0.217-0.587-0.091-0.703 0.033-0.031 0.067-0.062 0.1-0.093-8e-3 0.238-0.017 0.477-0.025 0.715 0.198 0.32-0.985 1.819-1.322 2.125-0.789 0.713-1.87 1.071-2.927 1.047-2.78-0.063-4.927-2.494-6.435-4.557-0.051-0.069-0.031-0.422 0.069-0.313" style="fill:#b57245"/></g><g transform="matrix(.35278 0 0 -.35278 91.628 81.649)"><path d="m0 0c2.167 0.885 4.653 3.259 4.718 5.758 0.059 2.251-2.157 4.389-4.354 3.085-0.076-0.045-0.069-0.476 0.01-0.46 0.853 0.178 1.568 0.282 2.39-0.075 1.667-0.723 1.921-2.739 1.128-4.282-0.807-1.569-2.567-2.705-3.897-3.776-0.039-0.031-0.028-0.263 5e-3 -0.25" style="fill:#b57245"/></g><g transform="matrix(.35278 0 0 -.35278 103.45 81.237)"><path d="m0 0c-0.192-3.472-0.201-5.538-0.988-7.752-0.346-0.976-1.145-2.012-2.03-1.593-0.688 0.326-0.918 1.324-0.981 2.167-0.247 3.318 0.503 6.539 0.731 9.822 0.229 3.283-0.194 6.974-2.282 9.406 4.506-2.359 5.145-7.264 5.55-12.05" style="fill:#fce2c0"/></g><g transform="matrix(.35278 0 0 -.35278 149.88 -.75398)"><path d="m0 0c-3.922 2.037-17.256 6.215-27.559-1.67s-14.454-17.191-16.893-28.785c-2.438-11.593-2.587-35.394 7.01-47.985 9.596-12.591 21.595-21.277 28.92-21.295 7.325-0.017 10.622-7e-3 12.313 4.3s0.032 42.335-0.686 56.811c-0.802 16.159-3.105 38.624-3.105 38.624" style="fill:#af4920"/></g><g transform="matrix(.35278 0 0 -.35278 149.93 -1.051)"><path d="m0 0c-7.625 3.749-17.695 4.273-25.22 0.064-8.507-4.759-14.547-13.569-17.641-22.63-5.528-16.19-5.917-37.731 2.204-53.126 4.859-9.211 14.053-18.042 23.192-22.996 5.172-2.804 16.094-5.501 20.456-0.048 2.724 3.403 1.899 9.477 1.921 13.485 0.049 9.069-0.265 18.143-0.606 27.204-0.723 19.19-1.981 38.323-3.932 57.428-0.119 1.159-1.163 0.457-1.07-0.447 2.964-29.021 5.214-58.667 4.456-87.868-0.052-1.962 0.103-4.263-0.421-6.17-1.328-4.835-6.303-4.599-10.387-4.599-9.137 0-16.895 6.659-23.014 12.83-7.871 7.938-12.633 16.278-14.412 27.354-1.371 8.538-1.442 17.567 0.032 26.103 1.946 11.275 6.641 21.861 15.73 29.15 8.027 6.438 19.227 7.087 28.389 2.582 0.718-0.353 0.963 1.369 0.323 1.684" style="fill:#a33316"/></g><g transform="matrix(.35278 0 0 -.35278 146.43 34.278)"><path d="m0 0c-34.826 15.195-36.533 61.254-20.766 89.548-6.067-6.661-9.545-13.635-11.443-22.66-2.439-11.593-1.059-35.933 8.303-49.518 8.982-13.036 20.302-19.745 27.627-19.762 5.749-0.014 8.236 1.96 10.193 4.044-5.628-2.544-10.048-2.836-13.914-1.652" style="fill:#e78d6d"/></g><g transform="matrix(.35278 0 0 -.35278 146.5 29.468)"><path d="m0 0c2.912 3.144 4.612 10.176-1.827 12.321-3.915 1.304-8.958-0.07-10.222-3.723-2.428-7.015 1.011-9.531 3.434-10.482s5.703-1.26 8.615 1.884" style="fill:#cd6b4d"/></g><g transform="matrix(.35278 0 0 -.35278 139.88 21.909)"><path d="m0 0c1.132 1.144 1.787 3.709-0.729 4.5-1.53 0.482-3.496-0.013-3.984-1.345-0.939-2.558 0.407-3.481 1.353-3.832 0.947-0.35 2.228-0.467 3.36 0.677" style="fill:#e78d6d"/></g><g transform="matrix(.35278 0 0 -.35278 148.03 15.54)"><path d="m0 0c1.881 2.198 2.994 7.1-1.14 8.575-2.513 0.897-5.759-0.074-6.582-2.621-1.581-4.893 0.623-6.635 2.178-7.29 1.555-0.656 3.663-0.862 5.544 1.336" style="fill:#e78d6d"/></g><g transform="matrix(.35278 0 0 -.35278 142.52 6.2141)"><path d="m0 0c1.39 1.557 2.121 4.136-0.858 6.088-1.647 1.079-4.732-0.259-5.337-2.066-1.163-3.469 0.94-4.493 2.092-4.961 1.153-0.468 2.714-0.618 4.103 0.939" style="fill:#cd6b4d"/></g><g transform="matrix(.35278 0 0 -.35278 142.25 12.327)"><path d="m0 0c2.229 2.297 3.521 7.444-1.426 9.027-3.008 0.962-6.876-0.035-7.84-2.708-1.851-5.133 0.794-6.981 2.656-7.683 1.861-0.701 4.38-0.933 6.61 1.364" style="fill:#cd6b4d"/></g><g transform="matrix(.35278 0 0 -.35278 75.775 -9.495)"><path d="m0 0c-0.732-12.803-11.34-25.605-26.337-31.092-14.998-5.487-36.89 0.115-46.821 7.681-15.364 11.706-17.796 27.346-16.278 39.232 2.195 17.192 9.876 23.044 16.46 25.788 18.2 7.583 37.86 9.602 54.321-3.201 11.111-8.642 19.386-25.605 18.655-38.408" style="fill:#af4920"/></g><g transform="matrix(.35278 0 0 -.35278 75.653 -9.5793)"><path d="m0 0c-1.535-18.556-20.198-31.952-37.853-32.616-16.781-0.631-34.937 5.725-44.628 20.019-8.923 13.16-9.746 35.542 1.752 47.621 4.556 4.787 11.163 6.938 17.335 8.753 8.459 2.489 17.464 3.63 26.206 2.024 20.777-3.82 37.901-24.731 37.171-46.034-0.035-1.034 0.692-1.054 0.728-0.012 0.625 18.253-11.49 37.411-28.111 44.789-9.895 4.393-20.92 4.56-31.362 2.201-7.402-1.672-15.938-4.02-21.555-9.442-10.244-9.888-11.613-28.467-7.439-41.396 6.069-18.798 24.44-28.498 43.152-30.106 20.572-1.768 43.469 11.62 45.298 33.721 0.062 0.748-0.595 1.671-0.694 0.478" style="fill:#a33316"/></g><g transform="matrix(.35278 0 0 -.35278 45.289 -14.624)"><path d="m0 0c4.664 25.331 25.057 28.532 44.345 31.913-9.649 0.56-18.993-0.921-28.524-4.936-6.424-2.706-15.729-10.151-17.833-25.971-1.462-10.999 1.28-25.331 14.997-36.122-7.955 8.687-15.559 21.137-12.985 35.116" style="fill:#e78d6d"/></g><g transform="matrix(.35278 0 0 -.35278 50.974 -6.8084)"><path d="m0 0c2.106 2.411 3.128 7.618-1.896 8.94-3.054 0.803-6.865-0.394-7.688-3.114-1.58-5.223 1.159-6.931 3.055-7.534 1.895-0.602 4.423-0.703 6.529 1.708" style="fill:#cd6b4d"/></g><g transform="matrix(.35278 0 0 -.35278 66.436 -2.3008)"><path d="m0 0c2.744 3.292 4.073 10.404-2.469 12.208-3.978 1.098-8.942-0.538-10.013-4.252-2.058-7.133 1.508-9.465 3.977-10.288 2.47-0.823 5.762-0.96 8.505 2.332" style="fill:#cd6b4d"/></g><g transform="matrix(.35278 0 0 -.35278 62.333 -19.129)"><path d="m0 0c1.763 2.293 2.618 7.247-1.587 8.504-2.557 0.764-5.747-0.375-6.436-2.962-1.323-4.969 0.97-6.593 2.556-7.167 1.588-0.573 3.704-0.668 5.467 1.625" style="fill:#e78d6d"/></g><g transform="matrix(.35278 0 0 -.35278 59.774 -11.56)"><path d="m0 0c1.071 1.202 1.59 3.797-0.964 4.456-1.552 0.401-3.49-0.196-3.908-1.552-0.804-2.604 0.589-3.455 1.552-3.755 0.964-0.3 2.249-0.351 3.32 0.851" style="fill:#e78d6d"/></g><g transform="matrix(.35278 0 0 -.35278 69.254 -6.2081)"><path d="m0 0c0.816 0.962 1.211 3.038-0.734 3.565-1.183 0.321-2.66-0.157-2.978-1.242-0.612-2.083 0.449-2.763 1.183-3.004 0.734-0.24 1.713-0.28 2.529 0.681" style="fill:#e78d6d"/></g><g transform="matrix(.35278 0 0 -.35278 68.983 -16.024)"><path d="m0 0c1.306 1.627 1.901 4.241-1.175 6.034-1.702 0.992-4.712-0.506-5.222-2.341-0.98-3.526 1.173-4.439 2.348-4.846 1.176-0.406 2.743-0.474 4.049 1.153" style="fill:#cd6b4d"/></g><g transform="matrix(.35278 0 0 -.35278 53.349 -17.523)"><path d="m0 0c0.969 1.142 1.439 3.607-0.872 4.233-1.405 0.381-3.158-0.186-3.536-1.474-0.727-2.474 0.533-3.282 1.405-3.568 0.871-0.285 2.034-0.333 3.003 0.809" style="fill:#e78d6d"/></g><g transform="matrix(.35278 0 0 -.35278 55.392 -3.9265)"><path d="m0 0c1.205 1.502 1.789 4.747-1.084 5.57-1.747 0.501-3.927-0.246-4.397-1.94-0.904-3.254 0.662-4.318 1.747-4.694 1.084-0.375 2.53-0.438 3.734 1.064" style="fill:#e78d6d"/></g><g transform="matrix(.35278 0 0 -.35278 72.969 -3.688)"><path d="m0 0c4.573 7.682 6.374 16.352 4.514 26.116-1.859 9.763-5.909 14.386-7.497 16.088s4.629-8.277 5.727-16.141c0.714-5.124 0.807-9.089-0.092-16.461-0.457-3.749-2.652-9.602-2.652-9.602" style="fill:#e78d6d"/></g><g transform="matrix(.35278 0 0 -.35278 76.902 97.961)"><path d="m0 0c15.552 17.284 28.68 19.228 39.133 13.254 8.282-4.733 14.714-17.979 8.8-34.724-5.913-16.745-14.449-23.571-25.789-26.901-11.34-3.331-30.605 1.557-28.823 6.481 8.031 22.191 6.679 41.89 6.679 41.89" style="fill:#af4920"/></g><g transform="matrix(.35278 0 0 -.35278 76.95 98.122)"><path d="m0 0c8.73 9.5 21.457 19.961 35.222 14.932 15.615-5.705 16.714-24.607 11.451-38.031-4.87-12.421-13.985-22.657-27.645-24.95-6.216-1.044-13.137-0.384-19.113 1.579-1.673 0.55-4.869 1.416-5.849 3.067-1.58 2.66 2.151 10.449 2.884 13.497 2.363 9.817 3.842 20.363 3.193 30.497-0.046 0.704-0.592 0.237-0.56-0.269 0.319-4.976-0.045-10.069-0.583-15.011-0.453-4.15-1.115-8.286-2.009-12.364-0.636-2.901-1.373-5.782-2.232-8.625-0.536-1.774-1.96-4.195-1.959-6.103 2e-3 -3.569 4.732-5.026 7.481-5.873 6.46-1.99 13.941-2.642 20.558-1.092 13.424 3.144 21.925 13.392 26.62 25.873 4.437 11.794 4.529 27.766-6.694 35.99-14.586 10.688-30.972-1.249-41.039-12.204-0.242-0.263-0.06-1.277 0.274-0.913" style="fill:#a33316"/></g><g transform="matrix(.35278 0 0 -.35278 89.765 93.861)"><path d="m0 0c-10.165 5.386-18.255 1.47-30.8-7.577 12.027 6.895 30.969 14.595 36.858-5.458 6.128-18.653-8.61-39.802-19.37-45.351 9.34 3.761 16.494 9.786 21.562 24.509 6.094 17.701 0.187 29.407-8.25 33.877" style="fill:#e78d6d"/></g><g transform="matrix(.35278 0 0 -.35278 87.034 108.03)"><path d="M 0,0 C -5.408,-2.738 -7.52,-9.863 -4.78,-11.085 0.413,-13.4 9.556,4.84 0,0" style="fill:#e78d6d"/></g><g transform="matrix(.35278 0 0 -.35278 82.185 99.331)"><path d="m0 0c0.396 2.651-0.113 5.467-3.225 3.314-3.111-2.154-4.373-5.732-3.422-7.362 1.347-2.304 4.982 0.546 6.647 4.048" style="fill:#cd6b4d"/></g><g transform="matrix(.35278 0 0 -.35278 78.566 111.41)"><path d="m0 0c-2.166-0.964-2.712-4.062-1.486-4.747 2.324-1.298 5.313 6.45 1.486 4.747" style="fill:#cd6b4d"/></g><g transform="matrix(.35278 0 0 -.35278 89.626 98.197)"><path d="m0 0c-2.1-0.864-2.177-4.919-0.763-4.897 3.937 0.063 4.475 6.423 0.763 4.897" style="fill:#cd6b4d"/></g><g transform="matrix(.35278 0 0 -.35278 80.764 101.71)"><path d="m0 0c-1.729-0.747-1.901-3.987-0.753-3.931 3.198 0.157 3.808 5.251 0.753 3.931" style="fill:#e78d6d"/></g><g transform="matrix(.35278 0 0 -.35278 85.1 101.19)"><path d="m0 0c-2.782-1.19-3.024-6.437-1.17-6.359 5.16 0.218 6.086 8.462 1.17 6.359" style="fill:#e78d6d"/></g><g transform="matrix(.35278 0 0 -.35278 82.107 107.78)"><path d="m0 0c-3.583-0.624-4.834-5.833-2.955-7.656 3.561-3.455 9.287 8.759 2.955 7.656" style="fill:#e78d6d"/></g><g transform="matrix(.35278 0 0 -.35278 95.986 152.84)"><path d="m0 0c-3.856-10.593-24.397-28.286-39.246-27.733-14.85 0.554-18.668 5.916-23.795 15.986-5.126 10.07 0.742 23.15 6.486 29.938 5.743 6.788 18.511 21.385 37.215 17.267 26.382-5.808 23.196-24.866 19.34-35.458" style="fill:#af4920"/></g><g transform="matrix(.35278 0 0 -.35278 95.931 152.67)"><path d="m0 0c-4.538-11.467-17.539-21.242-28.744-25.52-11.877-4.535-25.234-1.549-31.783 9.709-2.766 4.756-4.482 9.446-3.905 15.128 0.504 4.967 2.758 9.955 5.434 14.114 2.864 4.45 6.717 8.544 10.692 12.028 11.189 9.808 25.715 12.398 39.18 5.338 12.15-6.372 13.365-18.913 9.126-30.797-0.102-0.285 0.087-1.59 0.309-0.967 3.043 8.531 4.417 18.869-1.379 26.604-9.712 12.963-30.166 13.25-42.659 4.774-10.911-7.402-21.379-20.25-21.352-34.006 0.013-6.466 3.212-12.861 7.27-17.787 4.635-5.628 11.651-7.387 18.707-7.514 8.933-0.162 17.512 4.823 24.352 10.127 5.999 4.653 12.211 10.598 15.061 17.802 0.113 0.284-0.064 1.587-0.309 0.967" style="fill:#a33316"/></g><g transform="matrix(.35278 0 0 -.35278 74.014 151.46)"><path d="m0 0c-1.225-5.016-2.079-11.348 0.287-15.995 4.571-8.979 8.805-11.894 20.223-14.579-17.028 6.094-21.476 17.644-20.51 30.574" style="fill:#e78d6d"/></g><g transform="matrix(.35278 0 0 -.35278 87.498 140.57)"><path d="m0 0c7.565-3.105 15.011-7.301 18.517-13.909 3.167-5.97 3.206-14.544-0.036-22.007-2.335-5.374-7.559-12.575-8.108-13.787-0.326-0.719 8.641 8.904 11.308 15.203 4.982 11.769 4.075 28.599-20.275 34.271-0.476 0.111-0.936 0.148-1.406 0.229" style="fill:#e78d6d"/></g><g transform="matrix(.35278 0 0 -.35278 89.31 149.4)"><path d="m0 0c-5.864-2.502-8.153-8.739-5.182-9.738 5.631-1.893 15.544 14.159 5.182 9.738" style="fill:#e78d6d"/></g><g transform="matrix(.35278 0 0 -.35278 79.412 147.79)"><path d="m0 0c-4.388-1.106-5.328-6.417-2.771-7.959 4.847-2.923 10.526 9.913 2.771 7.959" style="fill:#e78d6d"/></g><g transform="matrix(.35278 0 0 -.35278 80.139 156.46)"><path d="m0 0c-2.229-1.073-2.471-3.805-1.072-4.257 2.652-0.858 5.01 6.154 1.072 4.257" style="fill:#e78d6d"/></g><g transform="matrix(.35278 0 0 -.35278 92.774 146.04)"><path d="m0 0c0.131 2.328-0.733 4.698-3.848 2.494-3.116-2.205-4.077-5.43-2.869-6.727 1.71-1.835 5.312 1.029 6.717 4.233" style="fill:#cd6b4d"/></g><g transform="matrix(.35278 0 0 -.35278 84.524 149.71)"><path d="m0 0c-2.216-0.346-3.074-2.468-1.613-3.646 2.07-1.668 5.528 4.258 1.613 3.646" style="fill:#cd6b4d"/></g><g transform="matrix(.35278 0 0 -.35278 88.346 155.68)"><path d="m0 0c-2.751-0.676-3.293-4.043-1.67-5.037 3.076-1.886 6.531 6.231 1.67 5.037" style="fill:#e78d6d"/></g><g transform="matrix(.35278 0 0 -.35278 83.456 143.97)"><path d="m0 0c-3.904-1.227-4.195-6.163-1.685-7.462 4.758-2.462 8.584 9.63 1.685 7.462" style="fill:#e78d6d"/></g><g transform="matrix(.35278 0 0 -.35278 122.79 94.424)"><path d="m0 0c9.808-2.561 20.397 2.838 25.789 8.779 8.284 9.128 9.419 14.815 8.504 25.148-0.937 10.592-6.493 19.478-18.198 21.673s-27.926-14.591-29.263-19.021c-2.926-9.693-9.145-28.349 13.168-36.579" style="fill:#af4920"/></g><g transform="matrix(.35278 0 0 -.35278 122.79 94.671)"><path d="m0 0c14.148-3.088 29.086 7.351 33.693 20.665 3.536 10.215 1.182 25.059-7.632 31.996-10.349 8.146-21.643 3.344-30.538-4.295-3.162-2.715-6.865-6.043-8.711-9.878-1.698-3.53-2.555-8.073-3.108-11.909-1.836-12.741 4.292-21.91 16.175-26.552 0.627-0.245 0.814 1.134 0.267 1.347-6.604 2.579-12.702 6.64-14.971 13.681-1.67 5.184-0.904 10.794 0.375 15.971 1.151 4.657 2.416 7.955 5.658 11.525 4.083 4.494 9.098 8.618 14.625 11.179 6.72 3.114 13.815 2.372 19.745-2.271 6.472-5.067 8.409-13.333 8.526-21.187 0.252-17.001-17.029-32.592-34.079-28.871-0.57 0.125-0.642-1.266-0.025-1.401" style="fill:#a33316"/></g><g transform="matrix(.35278 0 0 -.35278 122.22 77.604)"><path d="m0 0c-5.967-3.978-8.882-8.344-10.528-11.9-2.175-4.697-4.012-10.905-2.778-17.9 1.027 14.099 4.356 18.998 13.306 29.8" style="fill:#e78d6d"/></g><g transform="matrix(.35278 0 0 -.35278 134.26 81.504)"><path d="m0 0c-0.983 7.087-4.416 10.23-3.795 8.368 5.03-15.09 2.855-30.352-11.751-38.592-13.9-7.841 2.606-1.737 8.31 4.378 5.994 6.426 8.593 16.063 7.236 25.846" style="fill:#e78d6d"/></g><g transform="matrix(.35278 0 0 -.35278 126.81 91.19)"><path d="M 0,0 C 3.36,1.857 4.26,4.073 2.229,6.104 0.377,7.956 -4.59,5.618 -5.315,3.532 -6.413,0.377 -2.606,-1.441 0,0" style="fill:#e78d6d"/></g><g transform="matrix(.35278 0 0 -.35278 128.27 78.394)"><path d="m0 0c1.781 1.61 2.032 3.151 0.543 4.214-1.358 0.969-4.044-1.148-4.208-2.583-0.247-2.171 2.284-2.879 3.665-1.631" style="fill:#cd6b4d"/></g><g transform="matrix(.35278 0 0 -.35278 121.76 84.422)"><path d="M 0,0 C 1.547,1.11 1.961,2.436 1.026,3.65 0.173,4.757 -2.114,3.359 -2.448,2.112 -2.953,0.225 -1.2,-0.861 0,0" style="fill:#e78d6d"/></g><g transform="matrix(.35278 0 0 -.35278 127.89 88.137)"><path d="m0 0c2.105 1.39 2.668 3.05 1.396 4.57-1.16 1.387-4.271-0.364-4.726-1.925-0.688-2.363 1.697-3.724 3.33-2.645" style="fill:#cd6b4d"/></g><g transform="matrix(.35278 0 0 -.35278 132.36 82.935)"><path d="m0 0c1.807 2.305 1.806 4.294-0.174 5.419-1.806 1.025-4.591-2.057-4.506-3.9 0.128-2.787 3.279-3.307 4.68-1.519" style="fill:#e78d6d"/></g><g transform="matrix(.35278 0 0 -.35278 126 83.181)"><path d="m0 0c1.159 1.304 0.594 2.332-0.183 2.698-1.171 0.551-2.561-0.549-2.519-1.588 0.079-1.957 1.719-2.217 2.702-1.11" style="fill:#e78d6d"/></g><g transform="matrix(.35278 0 0 -.35278 125.21 78.846)"><path d="m0 0c1.856 2.845 1.644 5.043-0.778 5.956-2.209 0.832-5.121-3.034-4.827-5.056 0.445-3.057 4.165-3.107 5.605-0.9" style="fill:#e78d6d"/></g><g transform="matrix(.35278 0 0 -.35278 121.57 90.422)"><path d="M 0,0 C 1.547,1.11 1.961,2.436 1.026,3.65 0.173,4.757 -2.114,3.359 -2.448,2.112 -2.953,0.225 -1.2,-0.861 0,0" style="fill:#e78d6d"/></g><g transform="matrix(.35278 0 0 -.35278 120.88 185.9)"><path d="m0 0c4.687 2.905 6.747 5.177 4.161 10.801-2.586 5.623-8.548 13.843-25.539 17.058-16.99 3.215-25.124-0.606-31.872-5.783-6.747-5.177-11.53-11.787-0.524-12.16 7.951-0.269 38.514-6.929 38.514-6.929z" style="fill:#af4920"/></g><g transform="matrix(.35278 0 0 -.35278 120.9 186.08)"><path d="m0 0c4.045 2.603 6.491 5.324 4.875 10.224-1.427 4.322-4.564 8.21-8.07 11.021-10.948 8.778-30.227 11.933-43.143 6.153-3.496-1.565-21.218-13.167-11.498-16.917 1.984-0.765 4.381-0.564 6.486-0.782 2.915-0.303 5.816-0.807 8.702-1.306 6.288-1.086 12.547-2.334 18.796-3.623 7.923-1.635 15.847-3.233 23.788-4.788 0.295-0.058 0.376 0.981 0.018 1.051-12.936 2.532-25.823 5.356-38.787 7.734-4.142 0.759-8.308 1.545-12.498 1.983-2.074 0.216-4.317 0.066-6.288 0.79-5.051 1.858 0.097 6.9 2.472 8.969 9.431 8.21 20.703 9.647 32.779 7.497 7.103-1.265 14.281-3.636 19.816-8.429 1.879-1.627 3.521-3.518 4.85-5.619 0.572-0.904 1.331-1.978 1.631-3.018 0.548-1.898 0.227-6.193-0.94-7.622-0.773-0.948-2.098-1.658-3.099-2.302-0.283-0.182-0.171-1.197 0.11-1.016" style="fill:#a33316"/></g><g transform="matrix(.35278 0 0 -.35278 113.84 176.33)"><path d="m0 0c-15.544 2.682-20.45-1.515-27.73-4.42 25.983 6.971 43.876 0.729 51.46-17.83 0.066 1.251-0.6 4.726-1.33 6.241-2.321 4.815-6.161 13.207-22.4 16.009" style="fill:#e78d6d"/></g><g transform="matrix(.35278 0 0 -.35278 107.04 180.54)"><path d="m 0,0 c -3.357,0.094 -4.561,-1.301 -2.969,-2.277 1.592,-0.978 5.033,-1.949 6.73,-1.747 1.697,0.204 1.869,1.79 1.241,2.445 C 3.743,-0.268 0,0 0,0" style="fill:#e78d6d"/></g><g transform="matrix(.35278 0 0 -.35278 114.71 182.71)"><path d="M 0,0 C -2.276,0.047 -3.098,-0.901 -2.023,-1.553 -0.949,-2.205 1.379,-2.845 2.531,-2.7 3.682,-2.555 3.807,-1.483 3.384,-1.043 2.536,-0.164 0,0 0,0" style="fill:#cd6b4d"/></g><g transform="matrix(.35278 0 0 -.35278 111.77 178.46)"><path d="m 0,0 c -2.275,0.047 -3.098,-0.9 -2.023,-1.552 1.074,-0.653 3.402,-1.293 4.554,-1.147 1.151,0.145 1.276,1.217 0.853,1.656 C 2.537,-0.163 0,0 0,0" style="fill:#cd6b4d"/></g><g transform="matrix(.35278 0 0 -.35278 118.13 180.85)"><path d="m0 0c-2.385-0.037-3.283-1.043-2.181-1.673 1.103-0.631 3.521-1.202 4.734-1.01 1.214 0.193 1.385 1.301 0.957 1.737-0.855 0.873-3.51 0.946-3.51 0.946" style="fill:#e78d6d"/></g><g transform="matrix(.35278 0 0 -.35278 105.11 177.98)"><path d="m0 0c-2.385-0.037-3.283-1.043-2.18-1.674 1.102-0.63 3.52-1.201 4.734-1.009 1.213 0.193 1.384 1.301 0.956 1.737-0.855 0.873-3.51 0.946-3.51 0.946" style="fill:#e78d6d"/></g><g transform="matrix(.35278 0 0 -.35278 120.39 41.262)"><path d="m0 0c-4.849-3.185-22.628-16.974-39.185-19.4-15.522-2.275-29.526-2.1-35.651-1.194-6.125 0.905-2.226-4.269-5.164-15.877-2.545-10.052-5.274-12.226-5.114-13.206 0.435-2.674 21.04-8.271 40.529 0.117 19.488 8.388 24.877 14.87 37.141 30.718 12.263 15.848 10.733 17.51 10.733 17.51l-2.163 2.104z" style="fill:#fff"/></g><g transform="matrix(.35278 0 0 -.35278 106.14 53.297)"><path d="m0 0c-14.366-2.277-29.082-2.716-38.684 2.418-0.19-1.453-0.465-3.033-0.906-4.775-0.061-0.242-0.123-0.458-0.184-0.691 10.867-3.784 26.809-3.697 39.774 3.048" style="fill:#d9d9d9"/></g><g transform="matrix(.35278 0 0 -.35278 -701.07 588.34)"><g clip-path="url(#clipPath2005)" style="opacity:.5"><g transform="translate(2214.6 1628.9)"><path d="m0 0c0 20.707 12.079 37.492 26.98 37.492s26.98-16.785 26.98-37.492c0-20.706-12.079-37.492-26.98-37.492s-26.98 16.786-26.98 37.492" style="fill:#1d1d1b"/></g></g></g><g transform="matrix(.35278 0 0 -.35278 81.177 12.722)"><path d="m0 0c0 20.706 12.08 37.492 26.98 37.492 14.901 0 26.98-16.786 26.98-37.492 0-20.707-12.079-37.492-26.98-37.492-14.9 0-26.98 16.785-26.98 37.492" style="fill:#fff"/></g><g transform="matrix(.35278 0 0 -.35278 97.471 39.356)"><path d="m0 0c-2.17-7.722-7.465-13.48-15.031-17.868-8.339-4.836-21.816-6.412-28.887-5.48-10.538 1.388-15.672 4.784-19.853 10.789-4.448 6.391-1.979 15.051 2.044 15.753 2.895 0.506 0.393-5.901 9.346-9.081 12.587-4.472 18.984 7.985 26.471 16.342 13.152 14.681 29.817 3.446 25.91-10.455" style="fill:#444"/></g><g transform="matrix(.35278 0 0 -.35278 -701.07 588.34)"><g clip-path="url(#clipPath2029)" style="opacity:.38"><g transform="translate(2262.5 1566.8)"><path d="m0 0c-0.108-18.532-20.399-34.431-47.767-29.88-12.376 2.419-17.631 11.036-16.096 19.342-1.883-3.258-1.944-8.179 1.189-12.679 4.181-6.005 9.315-9.401 19.852-10.789 7.072-0.932 20.549 0.644 28.888 5.48 7.566 4.388 12.86 10.146 15.031 17.868 1.109 3.945 0.558 7.674-1.097 10.658" style="fill:#3a3a3a"/></g></g></g><g transform="matrix(.35278 0 0 -.35278 97.299 39.381)"><path d="m0 0c2.634-8.216 8.468-14.224 16.633-18.687 8.998-4.92 23.26-6.174 30.664-4.945 11.033 1.832 16.286 5.642 20.417 12.222 4.396 7.001 1.405 16.215-2.862 16.839-3.071 0.449-0.148-6.346-9.431-10.049-13.052-5.207-20.349 7.954-28.61 16.679-14.511 15.329-31.552 2.732-26.811-12.059" style="fill:#444"/></g><g transform="matrix(.35278 0 0 -.35278 -701.07 588.34)"><g clip-path="url(#clipPath2049)" style="opacity:.38"><g transform="translate(2263.8 1567.6)"><path d="m0 0c0.949-19.883 23.032-36.287 51.644-30.517 12.923 2.997 18.067 12.414 16.076 21.278 2.129-3.435 2.415-8.714-0.68-13.644-4.131-6.58-9.384-10.39-20.417-12.222-7.404-1.229-21.666 0.025-30.665 4.944-8.164 4.464-13.999 10.472-16.632 18.688-1.346 4.198-0.934 8.217 0.674 11.473" style="fill:#3a3a3a"/></g></g></g><g transform="matrix(.35278 0 0 -.35278 94.98 25.742)"><path d="m 0,0 c -3.504,3.036 -9.349,4.954 -18.921,4.555 -11.213,-0.467 -16.002,-9.344 -15.301,-14.016 0.701,-4.671 12.147,-11.796 19.828,-9.013 C -4.848,-15.015 0,0 0,0" style="fill:#fcd166"/></g><g transform="matrix(.35278 0 0 -.35278 -701.07 588.34)"><g clip-path="url(#clipPath2069)" style="opacity:.60001"><g transform="translate(2240.3 1576.3)"><path d="m0 0c6.696 3.066 8.567 9.998 8.587 9.636 0.146-2.675-2.678-10.687-9.217-12.089-3.417-0.732-9.95-0.351-12.549 5.094 3.074-3.246 8.452-3.867 13.179-2.641" style="fill:#1d1d1b"/></g></g></g><g transform="matrix(.35278 0 0 -.35278 105.49 58.489)"><path d="m0 0s-16.666-4.035-26.893-3.241c-9.022 0.701-16.556 5.606-17.782 4.38-1.226-1.227-1.008-4.057 0.876-5.256 2.891-1.839 12.702-4.117 18.746-4.205 5.699-0.082 19.447 0.876 21.549 2.103 2.102 1.226 3.504 6.219 3.504 6.219" style="fill:#fcd166"/></g><g transform="matrix(.35278 0 0 -.35278 -701.07 588.34)"><g clip-path="url(#clipPath2089)" style="opacity:.5"><g transform="translate(2243 1499.2)"><path d="m0 0c-1.232 1.224-1.291 3.575-0.572 4.078-0.379 0.039-0.666-0.02-0.83-0.221-1.226-1.5-1.008-4.962 0.876-6.428 2.891-2.25 12.702-5.036 18.746-5.143 5.699-0.101 19.447 1.071 21.549 2.571 1.624 1.159-29.52-5.036-39.769 5.143" style="fill:#1d1d1b"/></g></g></g><g transform="matrix(.35278 0 0 -.35278 85.698 14.345)"><path d="m0 0c-0.742 10 4.629 18.551 11.998 19.098 7.368 0.547 13.944-7.116 14.686-17.117 0.743-10-4.629-18.55-11.997-19.097-7.369-0.548-13.944 7.116-14.687 17.116" style="fill:#444"/></g><g transform="matrix(.35278 0 0 -.35278 84.514 11.156)"><path d="m0 0c0 3.096 2.301 5.606 5.139 5.606s5.139-2.51 5.139-5.606-2.301-5.606-5.139-5.606-5.139 2.51-5.139 5.606" style="fill:#fff"/></g><g transform="matrix(.35278 0 0 -.35278 104.84 -14.502)"><path d="m0 0c-1.846-1.384-2.215-6.645 1.385-9.599 4.291-3.521 17.167 2.769 33.503-9.968 16.337-12.737 16.429-16.706 18.552-16.06 3.362 1.024-7.045 19.863-20.859 28.151-19.383 11.629-31.104 8.584-32.581 7.476" style="fill:#444"/></g><g transform="matrix(.35278 0 0 -.35278 94.111 -19.898)"><path d="m0 0c1.962-1.215 2.798-6.422-0.525-9.684-3.96-3.889-17.345 1.23-32.484-12.911-15.138-14.14-14.876-18.101-17.048-17.647-3.44 0.721 5.249 20.411 18.271 29.896 18.27 13.308 30.216 11.317 31.786 10.346" style="fill:#444"/></g><g transform="matrix(.35278 0 0 -.35278 -701.07 588.34)"><g clip-path="url(#clipPath2121)" style="opacity:.39999"><g transform="translate(2233.4 1589)"><path d="m0 0c0 2.608 2.417 4.722 5.398 4.722s5.398-2.114 5.398-4.722-2.417-4.722-5.398-4.722-5.398 2.114-5.398 4.722" style="fill:#fce8bb"/></g></g></g><g transform="matrix(.35278 0 0 -.35278 100.25 12.31)"><path d="m0 0c-3.27-25.462-11.913-34.455-21.724-43.916-7.036-6.784-12.534-22.301-0.934-29.9 6.774-4.438 19.621-3.971 29.432 4.205 6.921 5.767 7.476 16.118 6.308 26.396" style="fill:#fcd166"/></g><g transform="matrix(.35278 0 0 -.35278 -701.07 588.34)"><g clip-path="url(#clipPath2141)" style="opacity:.39999"><g transform="translate(2252.7 1576.7)"><path d="m0 0c12.394 1.618 21.374 31.886 18.571 51.508 0 0.597-0.063 1.193-0.176 1.774-3.54-23.258-11.887-31.927-21.315-41.018-1.723-1.661-3.351-3.848-4.661-6.312 0.505-1.668-0.623-7.023 7.581-5.952" style="fill:#fce8bb"/></g></g></g><g transform="matrix(.35278 0 0 -.35278 -701.07 588.34)"><g clip-path="url(#clipPath2157)" style="opacity:.5"><g transform="translate(2251.6 1565.1)"><path d="m0 0c-6.033 2.948-7.713 8.868-7.693 15.038-2.974-7.229-2.948-15.976 4.89-21.111 6.774-4.439 19.622-3.972 29.433 4.204 6.109 5.091 7.241 14.133 4.905 23.476-4.334-15.603-16.001-29.199-31.535-21.607" style="fill:#1d1d1b"/></g></g></g><g transform="matrix(.35278 0 0 -.35278 -701.07 588.34)"><g clip-path="url(#clipPath2173)" style="opacity:.5"><g transform="translate(2284.9 1586)"><path d="m0 0c-0.178-0.642-0.378-1.278-0.586-1.909-2.079-5.929-4.386-22.777-22.256-24.091-16.812-1.236-18.928 6.274-18.978 17.675-2.005-6.673-1.222-14.099 5.751-18.668 6.774-4.438 19.622-3.971 29.433 4.205 6.109 5.091 7.254 13.755 6.636 22.788" style="fill:#1d1d1b"/></g></g></g><g transform="matrix(.35278 0 0 -.35278 103.73 30.831)"><path d="m0 0c-0.162-2.675 2.979-10.687 10.249-12.088 4.256-0.821 16.314-0.388 18.241 7.145s-6.766 11.338-10.62 13.002-17.082 4.993-17.87-8.059" style="fill:#fcd166"/></g><g transform="matrix(.35278 0 0 -.35278 -701.07 588.34)"><g clip-path="url(#clipPath2193)" style="opacity:.60001"><g transform="translate(2291.9 1570.9)"><path d="m0 0c-8.147 3.022-10.554 9.817-10.576 9.454-0.162-2.675 2.978-10.687 10.249-12.088 3.798-0.732 14.3-0.446 17.19 4.999-3.417-3.246-11.607-3.591-16.863-2.365" style="fill:#1d1d1b"/></g></g></g><g transform="matrix(.35278 0 0 -.35278 -701.07 588.34)"><g clip-path="url(#clipPath2209)" style="opacity:.39999"><g transform="translate(2256.6 1569.4)"><path d="m0 0c-1.177 0.56-1.614 2.105-0.973 3.451 0.64 1.346 2.113 1.984 3.29 1.424 1.178-0.56 1.614-2.105 0.974-3.451s-2.113-1.984-3.291-1.424" style="fill:#fce8bb"/></g></g></g><g transform="matrix(.35278 0 0 -.35278 -701.07 588.34)"><g clip-path="url(#clipPath2225)" style="opacity:.5"><g transform="translate(2272.7 1630.3)"><path d="m0 0c0 24.451 14.264 44.273 31.859 44.273 17.596 0 31.362-17.914 31.362-42.365 0-24.45-13.766-46.18-31.362-46.18-17.595 0-31.859 19.821-31.859 44.272" style="fill:#1d1d1b"/></g></g></g><g transform="matrix(.35278 0 0 -.35278 99.191 12.221)"><path d="m0 0c0 24.451 14.264 44.272 31.86 44.272 17.595 0 31.859-19.821 31.859-44.272s-14.264-44.272-31.859-44.272c-17.596 0-31.86 19.821-31.86 44.272" style="fill:#fff"/></g><g transform="matrix(.35278 0 0 -.35278 104.53 14.138)"><path d="m0 0c-0.877 11.809 5.466 21.906 14.167 22.551 8.701 0.647 16.466-8.402 17.343-20.211s-5.466-21.906-14.167-22.552-16.466 8.403-17.343 20.212" style="fill:#444"/></g><g transform="matrix(.35278 0 0 -.35278 103.13 10.372)"><path d="m0 0c0 3.656 2.717 6.62 6.069 6.62 3.351 0 6.068-2.964 6.068-6.62s-2.717-6.62-6.068-6.62c-3.352 0-6.069 2.964-6.069 6.62" style="fill:#fff"/></g><g transform="matrix(.35278 0 0 -.35278 121.37 26.69)"><path d="m0 0c-13.49 7.709-38.46 2.998-42.454-1.531-3.994-4.53-5.149-9.551 19.442-17.098 24.59-7.546 36.502 10.92 23.012 18.629" style="fill:#fcd166"/></g><g transform="matrix(.35278 0 0 -.35278 -701.07 588.34)"><g clip-path="url(#clipPath2257)" style="opacity:.39999"><g transform="translate(2289.3 1583.6)"><path d="m0 0c0 2.608 2.417 4.722 5.398 4.722s5.398-2.114 5.398-4.722-2.417-4.722-5.398-4.722-5.398 2.114-5.398 4.722" style="fill:#fce8bb"/></g></g></g><g transform="matrix(.35278 0 0 -.35278 103.92 37.03)"><path d="m0 0c3.737 1.693 9.558-4.255 12.614-7.095 4.555-4.234 10.249-7.271 14.716-8.673 4.468-1.401-9.896-1.71-15.008 0.526-6.541 2.862-12.868 7.343-13.607 11.037-0.613 3.066 1.285 4.205 1.285 4.205" style="fill:#4c4c4c"/></g><g transform="matrix(.35278 0 0 -.35278 90.789 37.854)"><path d="m0 0c-3.738 1.693-9.558-4.255-12.614-7.095-4.555-4.234-10.249-7.271-14.716-8.673-4.468-1.401 9.896-1.71 15.008 0.526 6.541 2.862 12.868 7.343 13.607 11.037 0.613 3.066-1.285 4.205-1.285 4.205" style="fill:#4c4c4c"/></g><g transform="matrix(.35278 0 0 -.35278 141.28 43.233)"><path d="m0 0c-14.173-14.172-75.003-81.75-124.74-79.422-43.068 2.016-67.742 29.433-67.742 29.433s-25.112-22.075-3.067-50.721c11.258-14.628 1.081-18.656 0.38-22.861s-23.096-11.299-4.205-25.929c13.003-10.07 0.291-25.406-0.38-32.5s22.805-30.571 30.865-64.559c3.732-15.742 17.152-34.739 26.98-29.433 9.827 5.307 29.753 67.362 36.06 75.771 6.307 8.41 21.754 11.127 25.258 18.134 3.504 7.008-7.037 18.657 0 24.878 7.038 6.221 26.208 0.588 28.546 12.217 2.669 13.276 13.45 18.745 27.466 26.453 14.016 7.709 33.338 42.971 48.405 90.975 10.477 33.382 23.476 44.5 23.476 44.5s-24.878 5.489-47.303-16.936" style="fill:#fff"/></g><g transform="matrix(.35278 0 0 -.35278 135.16 69.685)"><path d="m0 0c-1.402-4.204-8.76-10.512-12.965-13.315-23.826-12.614-27.505-26.279-33.111-54.31 0-1.402-2.804-4.194-4.205-4.205-46.077-0.35-12.789-38.543-45.726-36.791-22.614 1.203-20.264-2.922-9.811-9.111 10.45-6.186-4.133-43.313-25.754-67.625-4.824-7.235-12.758 5.237-20.236 13.326 3.843-15.675 17.136-34.362 26.893-29.093 9.829 5.306 29.754 67.361 36.061 75.77 6.307 8.41 21.754 11.126 25.258 18.134s-7.038 18.657 0 24.878 26.208 0.588 28.545 12.217c2.669 13.276 13.451 18.745 27.467 26.453 14.016 7.709 33.338 42.971 48.405 90.975 5.941 18.93 13.84 31.36 17.295 39.16-15.719-4.471-38.144-59.132-58.116-86.463" style="fill:#dae8f2"/></g><g transform="matrix(.35278 0 0 -.35278 132.48 85.092)"><path d="M 0,0 C 4.688,4.895 12.832,11.495 19.948,23.53 -4.828,2.836 -88.779,4.63 -90.584,-2.229 -92.92,-11.106 -9.293,-9.704 0,0" style="fill:#dae8f2"/></g><g transform="matrix(.35278 0 0 -.35278 88.804 121.97)"><path d="m0 0c0 7.427-17.87 1.052-34.008 10.063 3.098-5.568 6.169-11.753 8.79-18.493 6.122 0.897 25.218 4.932 25.218 8.43" style="fill:#dae8f2"/></g><g transform="matrix(.35278 0 0 -.35278 92.213 89.177)"><path d="m0 0c7.008 2.803-24.847 7.715-34.191 12.854-11.563 3.854-21.976 18.323-29.183 27.88 1.436-3.628 3.541-7.412 6.553-11.325 9.623-12.504 3.589-17.263 1.194-21.007 6.311-5.826 47.743-8.928 55.627-8.402" style="fill:#dae8f2"/></g><g transform="matrix(.35278 0 0 -.35278 90.658 102.19)"><path d="m0 0c0.467 8.176-34.864 4.204-63.78 28.311 0.13-3.056 2.151-6.616 7.542-10.791 11.058-8.564 3.521-20.934 0.606-28.807 4.827 1.401 9.476 3.552 13.76 4.98 11.213 4.204 39.536-1.869 41.872 6.307" style="fill:#dae8f2"/></g><g transform="matrix(.35278 0 0 -.35278 123.91 88.268)"><path d="m0 0c1.209 2.54 24.287 179.5 25.758 191.44 2.793 22.675 4.998 39.755-9.858 29.5-13.747-9.488-28.382-51.697-28.616-70.447-0.254-20.309 1.057-55.457 1.057-55.457s-4.656-64.059-8.386-78.641c-1.35-5.278-0.402-14.901 0.867-18.093 2.812-7.074 15.738-5.528 19.178 1.701" style="fill:#afc3ce"/></g><g transform="matrix(.35278 0 0 -.35278 -701.07 588.34)"><g clip-path="url(#clipPath2341)" style="opacity:.39"><g transform="translate(2326 1545.2)"><path d="m0 0c10.508 6.992 21.404 13.688 32.005 20.349 0.634 4.218 1.245 8.298 1.823 12.182-11.132-7.406-21.326-14.72-33.968-22.963 0.032-3.141 0.08-6.364 0.14-9.568" style="fill:#fff"/></g></g></g><g transform="matrix(.35278 0 0 -.35278 -701.07 588.34)"><g clip-path="url(#clipPath2357)" style="opacity:.38"><g transform="translate(2328.6 1513.1)"><path d="m0 0c4.398 40.504 0.262 88.415 29.333 121.75 1.1 1.017 3.325 5.772-0.676 5.321-0.871-0.455-1.811-1.022-2.84-1.732-13.747-9.489-28.382-51.697-28.616-70.448-0.253-20.309 1.057-55.456 1.057-55.456s-0.163-0.818-0.424-2.198c1.293 0.798 2.127 1.762 2.166 2.759" style="fill:#f5f5f5"/></g></g></g><g transform="matrix(.35278 0 0 -.35278 -701.07 588.34)"><g clip-path="url(#clipPath2373)" style="opacity:.39"><g transform="translate(2331 1594.8)"><path d="m0 0c-1.073-3.523-2.01-6.997-2.78-10.314 11.535 7.278 23.489 13.959 35.496 20.047 0.266 1.91 0.468 3.414 0.588 4.384 0.352 2.864 0.356 2.832 0.657 5.473-11.667-6.861-21.433-12.219-33.961-19.59" style="fill:#fff"/></g></g></g><g transform="matrix(.35278 0 0 -.35278 -701.07 588.34)"><g clip-path="url(#clipPath2389)" style="opacity:.13"><g transform="translate(2482.7 1395.8)"><path d="m0 0c-0.028-0.701-0.07-1.43-0.126-2.215-0.098-0.967-0.225-2.018-0.463-3.265-0.042-0.21-0.084-0.435-0.14-0.659-0.252-1.135-0.617-2.495-1.43-4.317-0.28-0.602-0.574-1.177-0.953-1.836-0.336-0.547-0.63-1.023-1.037-1.569-0.182-0.099-0.378-0.197-0.574-0.281-1.416-0.659-2.915-1.093-4.444-1.346-1.373-0.21-2.943-0.238-4.05-0.126l-0.911 0.099c-0.07 0-0.196 0.013-0.322 0.042-0.071 0.014-0.14 0.027-0.225 0.042-0.098 0.014-0.196 0.028-0.28 0.042-0.056 0.014-0.112 0.028-0.168 0.028-0.07 0.013-0.126 0.028-0.154 0.028-0.042 0.014-0.07 0.014-0.084 0.014-0.084 0.028-0.14 0.028-0.127 0.028l-0.182 0.056-0.406 0.098c-0.729 0.182-1.612 0.434-2.411 0.701l-1.345 0.504-1.149 0.491c-0.379 0.154-0.729 0.308-1.038 0.462-1.359 0.617-2.495 1.206-3.63 1.794-2.242 1.178-4.26 2.369-6.237 3.546-7.863 4.752-14.94 9.657-21.71 14.591-0.21 0.154-0.462 0.322-0.729 0.518-0.028 0.014-0.042 0.028-0.056 0.028-0.224 0.168-0.476 0.351-0.757 0.533-0.77 0.518-1.695 1.135-2.761 1.836-0.238 0.154-0.504 0.322-0.757 0.491-2.27 1.499-5.073 3.293-8.143 5.256-0.644 0.42-1.303 0.84-1.976 1.261-2.159 1.373-4.415 2.817-6.714 4.261-0.953-2.383-1.92-4.766-2.915-7.134-7.378 4.686-14.32 9.501-21.546 13.515-1.051 0.584 8.529 18.184 9.752 21.257 1.179 2.962 0.351 5.49 1.051 11.797 0.305 2.741 6.756-2.623 8.41-3.621 5.84-3.27 14.185-5.456 15.534-6.19 2.035-1.109-6.284-10.487-3.628-11.979 8.633-4.849 19.3-10.96 24.023-13.525 3.994-2.158 8.059-4.401 12.137-6.615-0.434 2.761-0.882 5.55-1.359 8.339-0.084 0.322-0.168 0.659-0.252 0.995 2.55-1.387 5.115-2.789 7.68-4.19-0.098 0.602-0.266 1.695-0.462 2.915-0.141 0.812-0.28 1.682-0.407 2.495-0.196 1.219-0.378 2.326-0.476 2.929-4.065 16.314-14.661 46.728-22.944 69.335-0.967-4.415-2.004-8.844-3.111-13.287-6.658 18.487-12.544 33.862-13.708 36.287-2.803 5.872 3.266 23.125 7.709 30.596 0.154 0.252 0.294 0.491 0.462 0.729v0.014c1.458 2.186 3.336 3.896 5.383 5.017 0.294 0.154 0.602 0.309 0.91 0.435 3.995 1.808 8.48 1.402 11.633-2.074 0.183-0.197 0.365-0.393 0.533-0.617 4.737-6.027 45.845-121.64 41.08-158.56" style="fill:#1d1d1b"/></g></g></g><g transform="matrix(.35278 0 0 -.35278 130.09 64.189)"><path d="m0 0c8.423-1.452 17.206 9.687 26.137-12.873 6.273-15.844-5.576-38.509-10.806-42.853-3.315-2.754-15.86-4.164-23.359 0.503-7.499 4.668-4.665 17.319-4.051 21.323 0.613 4.005 12.079 33.9 12.079 33.9" style="fill:#d5912f"/></g><g transform="matrix(.35278 0 0 -.35278 137.5 71.436)"><path d="m0 0c12.276 14.585-6.766 29.397-7.174 44.098-0.389 14.012 0.928 19.554-4.54 24.602-4.547 4.196-11.752-0.135-13.852-6.458-3.734-11.239-3.09-18.105 0.669-31.448 3.782-13.422 6.89-20.064 9.912-24.126s14.985-6.668 14.985-6.668" style="fill:#d5912f"/></g><g transform="matrix(.35278 0 0 -.35278 -701.07 588.34)"><g clip-path="url(#clipPath2413)" style="opacity:.089996"><g transform="translate(2360.5 1535.4)"><path d="m0 0c-0.062 0.067-0.125 0.116-0.187 0.178-3.681-0.444-7.423-3.792-8.841-8.059-3.733-11.239-3.09-18.105 0.669-31.448 0.32-1.134 0.633-2.203 0.943-3.243 3.098 14.176-3.134 30.398 7.416 42.572" style="fill:#1d1d1b"/></g></g></g><g transform="matrix(.35278 0 0 -.35278 134.08 63.437)"><path d="m0 0c-13.68 7.771-40.491 14.61-48.974 14.873-13.05 0.403-15.041-23.813-2.12-23.975s46.04-8.988 46.04-8.988z" style="fill:#d5912f"/></g><g transform="matrix(.35278 0 0 -.35278 -701.07 588.34)"><g clip-path="url(#clipPath2433)" style="opacity:.17"><g transform="translate(2308.6 1495.5)"><path d="m0 0c-2.692-7.02-0.461-16.604 7.652-16.705 12.921-0.162 29.633-5.644 29.74-2.931s-3.799 2.224-29.026 8.709c-5.397 1.388-8.079 5.578-8.366 10.927" style="fill:#1d1d1b"/></g></g></g><g transform="matrix(.35278 0 0 -.35278 132.37 69.937)"><path d="m0 0c-14.45 6.1-45.772 11.306-54.185 10.12-8.413-1.187-14.371-25.035 0.432-26.268 12.877-1.073 50.719-2.416 50.719-2.416z" style="fill:#d5912f"/></g><g transform="matrix(.35278 0 0 -.35278 -701.07 588.34)"><g clip-path="url(#clipPath2453)" style="opacity:.17"><g transform="translate(2305.6 1462.1)"><path d="m0 0c-2.344 1.7-4.663 3.862-5.39 6.419-1.444-6.876 0.371-14.525 8.586-15.209 12.877-1.073 33.401-5.039 32.501 0.286-0.902 5.324-18.769 1.218-35.697 8.504" style="fill:#1d1d1b"/></g></g></g><g transform="matrix(.35278 0 0 -.35278 132.21 77.084)"><path d="m0 0c-15.251 5.328-46.735 5.246-55.445 2.981-8.711-2.264-7.536-23.957 7.142-25.236 13.297-1.158 45.805 0.898 45.805 0.898z" style="fill:#d5912f"/></g><g transform="matrix(.35278 0 0 -.35278 -701.07 588.34)"><g clip-path="url(#clipPath2473)" style="opacity:.17"><g transform="translate(2301.2 1443.3)"><path d="m0 0c-0.371-6.972 3.506-16.213 12.592-16.311 14.823-0.159 50.32 0.769 50.32 0.769s9.632 0.439 11.23 8.383c0.154 0.767-4.363-2.484-6.132-2.856-7.249-1.527-56.474-9.242-68.01 10.015" style="fill:#1d1d1b"/></g></g></g><g transform="matrix(.35278 0 0 -.35278 175.37 95.365)"><path d="m0 0c-0.055-0.699-0.113-1.44-0.213-2.222-0.122-0.949-0.289-1.994-0.591-3.245-0.149-0.569-0.299-1.194-0.538-1.9-0.272-0.859-0.647-1.826-1.225-2.996-0.304-0.591-0.607-1.168-1.026-1.811-0.49-0.724-0.893-1.311-1.641-2.152-0.44-0.501-0.996-1.069-1.649-1.632-0.218-0.188-0.436-0.376-0.681-0.563-0.261-0.2-0.535-0.399-0.824-0.612-0.187-0.119-0.374-0.252-0.576-0.384-0.086-0.039-0.172-0.092-0.259-0.159-0.258-0.143-0.517-0.302-0.803-0.445-0.273-0.157-0.573-0.3-0.873-0.442-0.014-0.014-0.028-0.013-0.057-0.026-0.186-0.091-0.386-0.181-0.585-0.258-1.441-0.602-2.956-0.977-4.492-1.17-1.381-0.156-2.951-0.122-4.053 0.033l-0.906 0.134c-0.07 3e-3 -0.196 0.022-0.321 0.055-0.069 0.017-0.139 0.033-0.222 0.051-0.098 0.018-0.195 0.036-0.279 0.053-0.055 0.016-0.111 0.032-0.167 0.034-0.069 0.017-0.125 0.033-0.153 0.035-0.027 0.014-0.055 0.016-0.083 0.017-0.083 0.031-0.139 0.034-0.125 0.033l-0.18 0.063-0.402 0.114c-0.721 0.211-1.594 0.497-2.381 0.795l-1.325 0.557-1.13 0.535c-0.371 0.169-0.716 0.337-1.018 0.503-1.334 0.67-2.445 1.303-3.556 1.936-2.195 1.264-4.165 2.534-6.093 3.788-7.67 5.056-14.55 10.236-21.121 15.432-0.203 0.162-0.449 0.34-0.707 0.546-0.027 0.016-0.041 0.03-0.055 0.031-0.218 0.177-0.462 0.368-0.735 0.562-0.75 0.548-1.65 1.201-2.687 1.943-0.233 0.163-0.492 0.342-0.737 0.52-2.21 1.587-4.941 3.49-7.93 5.571-0.628 0.446-1.27 0.892-1.926 1.338-2.102 1.458-4.301 2.989-6.54 4.522-5.217 3.613-10.597 7.317-15.185 10.499-6.774 4.671-12.754 8.82-16.096 11.237-1.555 1.113-4.473 3.234-4.716 3.482-3.557 2.651-13.008 10.751-12.146 16.608 0.619 4.338 6.668 10.84 17.115 7.217 6.919-2.404 20.785-11.667 34.321-20.573 1.591-0.904 4.003-2.346 6.825-4.069 8.795-5.354 21.676-13.434 26.966-16.588 1.439-0.856 2.892-1.727 4.358-2.598 2.495-1.487 5.003-2.988 7.51-4.489-0.074 0.606-0.199 1.705-0.347 2.931-0.109 0.818-0.214 1.691-0.309 2.509-0.148 1.226-0.286 2.34-0.361 2.946-3.42 16.461-12.813 47.268-20.202 70.183-4.8 14.903-8.75 26.447-9.636 28.544-0.077 0.171-0.14 0.356-0.201 0.569-0.112 0.369-0.194 0.793-0.274 1.259-0.021 0.155-0.043 0.338-0.049 0.521-0.585 7.261 5.219 21.438 9.429 27.921 0.225 0.356 0.477 0.696 0.728 1.023 3.283 4.318 8.292 6.505 12.632 5.549 2.155-0.464 4.141-1.692 5.684-3.814 4.497-6.209 41.031-123.35 34.819-160.05" style="fill:#d5912f"/></g><g transform="matrix(.35278 0 0 -.35278 -701.07 588.34)"><g clip-path="url(#clipPath2493)" style="opacity:.17"><g transform="translate(2452.5 1417.3)"><path d="m0 0c-0.074 0.606-0.199 1.705-0.347 2.931-0.109 0.818-0.215 1.691-0.309 2.509-0.148 1.226-0.286 2.34-0.361 2.946-3.42 16.461-12.813 47.268-20.202 70.183-4.8 14.903-8.75 26.447-9.636 28.544-0.077 0.171-0.14 0.356-0.202 0.569-0.111 0.369-0.193 0.793-0.273 1.259-0.022 0.155-0.043 0.338-0.049 0.521-0.614 5.438 1.08 16.074 3.654 23.73v0.013c0.572 1.703 1.18 3.25 1.821 4.572 1.37 0.24 2.058 5.6 3.754 0.231 0.077-0.2 0.139-0.398 0.2-0.625 4.147-1.566 1.024-9.621 2.372-28.848 0.562-4.973 1.281-9.883 2.088-14.697 5.193-30.586 14.728-57.429 19.59-76.093 2.536-9.722-1.861-17.727-2.1-17.745" style="fill:#1d1d1b"/></g></g></g><g transform="matrix(.35278 0 0 -.35278 -701.07 588.34)"><g clip-path="url(#clipPath2509)" style="opacity:.17"><g transform="translate(2483 1390)"><path d="m0 0c-0.272-0.859-0.647-1.826-1.226-2.996-0.304-0.591-0.607-1.168-1.025-1.811-0.491-0.724-0.893-1.311-1.641-2.151-0.441-0.502-0.996-1.069-1.649-1.633-0.218-0.188-0.436-0.375-0.681-0.562-0.261-0.2-0.536-0.4-0.824-0.613-0.187-0.119-0.375-0.251-0.576-0.384-0.086-0.038-0.172-0.091-0.259-0.158-0.258-0.144-0.517-0.302-0.803-0.445-0.273-0.158-0.573-0.3-0.873-0.443-0.015-0.013-0.029-0.013-0.057-0.026-0.186-0.091-0.386-0.181-0.585-0.257-1.441-0.603-2.957-0.978-4.493-1.17-1.381-0.156-2.95-0.122-4.052 0.033l-0.907 0.133c-0.07 3e-3 -0.195 0.022-0.32 0.055-0.07 0.017-0.139 0.034-0.222 0.051-0.098 0.018-0.195 0.036-0.279 0.053-0.056 0.016-0.111 0.032-0.167 0.035-0.069 0.017-0.125 0.033-0.153 0.034-0.041 0.016-0.069 0.017-0.083 0.017-0.083 0.032-0.139 0.034-0.125 0.033l-0.18 0.063-0.403 0.114c-0.72 0.211-1.593 0.498-2.381 0.795l-1.325 0.557-1.129 0.536c-0.371 0.169-0.716 0.337-1.018 0.503-1.334 0.669-2.445 1.302-3.557 1.935-2.194 1.265-4.164 2.534-6.092 3.788-7.67 5.056-14.55 10.236-21.121 15.432-0.204 0.163-0.449 0.34-0.708 0.547-0.027 0.015-0.04 0.03-0.055 0.03-0.217 0.177-0.462 0.369-0.735 0.562-0.749 0.548-1.65 1.201-2.687 1.943-0.231 0.177-0.476 0.355-0.736 0.52-2.21 1.588-4.941 3.491-7.931 5.572-0.628 0.445-1.269 0.891-1.925 1.338-2.103 1.457-4.301 2.988-6.541 4.521-5.216 3.613-10.597 7.318-15.184 10.5-6.54 4.549-11.48 8.039-12.114 8.71-0.299 0.222-1.341 1.553-1.679 1.875 12.289-1.381 22.518-7.001 32.029-14.094 20.345-15.177 37.398-37.027 64.287-38.084 2.297-0.091 4.4 0.234 6.292 0.902 2.232 0.782 4.174 2.025 5.893 3.64" style="fill:#1d1d1b"/></g></g></g><g transform="matrix(.35278 0 0 -.35278 -701.07 588.34)"><g clip-path="url(#clipPath2525)" style="opacity:.26"><g transform="translate(2326.5 1473.2)"><path d="m0 0c-0.534 2.183-10.622 4.925-15.018 4.586-1.885-0.146-6.18-0.497-6.261-4.542-0.071-3.617 7.208-2.436 9.971-2.328 3.782 0.148 12.06-0.795 11.308 2.284" style="fill:#fff"/></g></g></g><g transform="matrix(.35278 0 0 -.35278 -701.07 588.34)"><g clip-path="url(#clipPath2541)" style="opacity:.26"><g transform="translate(2326.5 1447.9)"><path d="m0 0c-0.649 1.877-10.289 3.681-14.385 3.126-1.756-0.238-5.757-0.798-5.556-4.339 0.179-3.166 6.92-1.706 9.502-1.449 3.533 0.352 11.354 0.015 10.439 2.662" style="fill:#fff"/></g></g></g><g transform="matrix(.35278 0 0 -.35278 -701.07 588.34)"><g clip-path="url(#clipPath2557)" style="opacity:.26"><g transform="translate(2333.5 1495.9)"><path d="m0 0c1.558 2.538-10.482 5.978-14.548 5.45-3.96-0.515-7.908-2.814-5.056-4.621 2.851-1.807 18.168-3.169 19.604-0.829" style="fill:#fff"/></g></g></g><g transform="matrix(.35278 0 0 -.35278 -701.07 588.34)"><g clip-path="url(#clipPath2605)" style="opacity:.36"></g></g><g transform="matrix(.35278 0 0 -.35278 -712.03 591.74)"><g clip-path="url(#clipPath3289)" style="opacity:.3"></g></g></g></svg>
